<?xml version="1.0" encoding="UTF-8" standalone="no"?>
<!DOCTYPE svg PUBLIC "-//W3C//DTD SVG 1.1//EN"
 "http://www.w3.org/Graphics/SVG/1.1/DTD/svg11.dtd">
<!-- Generated by graphviz version 2.43.0 (0)
 -->
<!-- Title: include/emlabcpp/algorithm.h Pages: 1 -->
<svg width="632pt" height="196pt"
 viewBox="0.00 0.00 632.25 196.00" xmlns="http://www.w3.org/2000/svg" xmlns:xlink="http://www.w3.org/1999/xlink">
<g id="graph0" class="graph" transform="scale(1 1) rotate(0) translate(4 192)">
<title>include/emlabcpp/algorithm.h</title>
<polygon fill="white" stroke="transparent" points="-4,4 -4,-192 628.25,-192 628.25,4 -4,4"/>
<!-- Node1 -->
<g id="node1" class="node">
<title>Node1</title>
<g id="a_node1"><a xlink:title=" ">
<polygon fill="#bfbfbf" stroke="black" points="201.75,-168.5 201.75,-187.5 363.75,-187.5 363.75,-168.5 201.75,-168.5"/>
<text text-anchor="middle" x="282.75" y="-175.5" font-family="Helvetica,sans-Serif" font-size="10.00">include/emlabcpp/algorithm.h</text>
</a>
</g>
</g>
<!-- Node2 -->
<g id="node2" class="node">
<title>Node2</title>
<g id="a_node2"><a xlink:href="impl_8h.html" target="_top" xlink:title=" ">
<polygon fill="white" stroke="black" points="85.75,-112.5 85.75,-131.5 189.75,-131.5 189.75,-112.5 85.75,-112.5"/>
<text text-anchor="middle" x="137.75" y="-119.5" font-family="Helvetica,sans-Serif" font-size="10.00">./algorithm/impl.h</text>
</a>
</g>
</g>
<!-- Node1&#45;&gt;Node2 -->
<g id="edge1" class="edge">
<title>Node1&#45;&gt;Node2</title>
<path fill="none" stroke="midnightblue" d="M259.77,-168.44C235.59,-159.44 197.33,-145.19 170.1,-135.05"/>
<polygon fill="midnightblue" stroke="midnightblue" points="171.21,-131.73 160.61,-131.52 168.76,-138.29 171.21,-131.73"/>
</g>
<!-- Node3 -->
<g id="node3" class="node">
<title>Node3</title>
<g id="a_node3"><a xlink:href="types_8h.html" target="_top" xlink:title=" ">
<polygon fill="white" stroke="red" points="12.75,-56.5 12.75,-75.5 74.75,-75.5 74.75,-56.5 12.75,-56.5"/>
<text text-anchor="middle" x="43.75" y="-63.5" font-family="Helvetica,sans-Serif" font-size="10.00">../types.h</text>
</a>
</g>
</g>
<!-- Node1&#45;&gt;Node3 -->
<g id="edge14" class="edge">
<title>Node1&#45;&gt;Node3</title>
<path fill="none" stroke="midnightblue" d="M201.68,-175.15C128.86,-171.56 29.66,-161.27 4.75,-132 -8.47,-116.47 8.61,-95.92 24.15,-82.12"/>
<polygon fill="midnightblue" stroke="midnightblue" points="26.54,-84.68 31.96,-75.58 22.05,-79.31 26.54,-84.68"/>
</g>
<!-- Node9 -->
<g id="node5" class="node">
<title>Node9</title>
<g id="a_node5"><a xlink:title=" ">
<polygon fill="white" stroke="#bfbfbf" points="96.25,-56.5 96.25,-75.5 137.25,-75.5 137.25,-56.5 96.25,-56.5"/>
<text text-anchor="middle" x="116.75" y="-63.5" font-family="Helvetica,sans-Serif" font-size="10.00">tuple</text>
</a>
</g>
</g>
<!-- Node1&#45;&gt;Node9 -->
<g id="edge19" class="edge">
<title>Node1&#45;&gt;Node9</title>
<path fill="none" stroke="midnightblue" d="M272.78,-168.46C257.43,-155.49 226.81,-130.4 198.75,-112 180.81,-100.24 159.55,-88.64 143.18,-80.16"/>
<polygon fill="midnightblue" stroke="midnightblue" points="144.66,-76.99 134.16,-75.55 141.47,-83.22 144.66,-76.99"/>
</g>
<!-- Node16 -->
<g id="node6" class="node">
<title>Node16</title>
<g id="a_node6"><a xlink:href="bounded_8h.html" target="_top" xlink:title=" ">
<polygon fill="white" stroke="black" points="245.75,-112.5 245.75,-131.5 319.75,-131.5 319.75,-112.5 245.75,-112.5"/>
<text text-anchor="middle" x="282.75" y="-119.5" font-family="Helvetica,sans-Serif" font-size="10.00">./bounded.h</text>
</a>
</g>
</g>
<!-- Node1&#45;&gt;Node16 -->
<g id="edge5" class="edge">
<title>Node1&#45;&gt;Node16</title>
<path fill="none" stroke="midnightblue" d="M282.75,-168.08C282.75,-161.01 282.75,-150.86 282.75,-141.99"/>
<polygon fill="midnightblue" stroke="midnightblue" points="286.25,-141.75 282.75,-131.75 279.25,-141.75 286.25,-141.75"/>
</g>
<!-- Node18 -->
<g id="node9" class="node">
<title>Node18</title>
<g id="a_node9"><a xlink:href="min__max_8h.html" target="_top" xlink:title=" ">
<polygon fill="white" stroke="black" points="338.25,-112.5 338.25,-131.5 415.25,-131.5 415.25,-112.5 338.25,-112.5"/>
<text text-anchor="middle" x="376.75" y="-119.5" font-family="Helvetica,sans-Serif" font-size="10.00">./min_max.h</text>
</a>
</g>
</g>
<!-- Node1&#45;&gt;Node18 -->
<g id="edge9" class="edge">
<title>Node1&#45;&gt;Node18</title>
<path fill="none" stroke="midnightblue" d="M297.85,-168.32C312.65,-159.82 335.44,-146.73 352.73,-136.8"/>
<polygon fill="midnightblue" stroke="midnightblue" points="354.75,-139.67 361.68,-131.65 351.27,-133.6 354.75,-139.67"/>
</g>
<!-- Node20 -->
<g id="node12" class="node">
<title>Node20</title>
<g id="a_node12"><a xlink:href="range_8h.html" target="_top" xlink:title=" ">
<polygon fill="white" stroke="black" points="433.25,-112.5 433.25,-131.5 492.25,-131.5 492.25,-112.5 433.25,-112.5"/>
<text text-anchor="middle" x="462.75" y="-119.5" font-family="Helvetica,sans-Serif" font-size="10.00">./range.h</text>
</a>
</g>
</g>
<!-- Node1&#45;&gt;Node20 -->
<g id="edge12" class="edge">
<title>Node1&#45;&gt;Node20</title>
<path fill="none" stroke="midnightblue" d="M311.27,-168.44C341.81,-159.28 390.45,-144.69 424.35,-134.52"/>
<polygon fill="midnightblue" stroke="midnightblue" points="425.79,-137.74 434.36,-131.52 423.77,-131.04 425.79,-137.74"/>
</g>
<!-- Node23 -->
<g id="node14" class="node">
<title>Node23</title>
<g id="a_node14"><a xlink:href="view_8h.html" target="_top" xlink:title=" ">
<polygon fill="white" stroke="red" points="13.75,-112.5 13.75,-131.5 67.75,-131.5 67.75,-112.5 13.75,-112.5"/>
<text text-anchor="middle" x="40.75" y="-119.5" font-family="Helvetica,sans-Serif" font-size="10.00">./view.h</text>
</a>
</g>
</g>
<!-- Node1&#45;&gt;Node23 -->
<g id="edge15" class="edge">
<title>Node1&#45;&gt;Node23</title>
<path fill="none" stroke="midnightblue" d="M242.01,-168.48C202.51,-160.13 140.64,-146.83 77.92,-132.22"/>
<polygon fill="midnightblue" stroke="midnightblue" points="78.39,-128.74 67.85,-129.87 76.79,-135.55 78.39,-128.74"/>
</g>
<!-- Node25 -->
<g id="node15" class="node">
<title>Node25</title>
<g id="a_node15"><a xlink:title=" ">
<polygon fill="white" stroke="#bfbfbf" points="510.25,-112.5 510.25,-131.5 557.25,-131.5 557.25,-112.5 510.25,-112.5"/>
<text text-anchor="middle" x="533.75" y="-119.5" font-family="Helvetica,sans-Serif" font-size="10.00">cmath</text>
</a>
</g>
</g>
<!-- Node1&#45;&gt;Node25 -->
<g id="edge17" class="edge">
<title>Node1&#45;&gt;Node25</title>
<path fill="none" stroke="midnightblue" d="M329.1,-168.47C371.41,-160.47 435.85,-147.71 500.13,-132.27"/>
<polygon fill="midnightblue" stroke="midnightblue" points="501.14,-135.63 510.03,-129.87 499.49,-128.83 501.14,-135.63"/>
</g>
<!-- Node26 -->
<g id="node16" class="node">
<title>Node26</title>
<g id="a_node16"><a xlink:title=" ">
<polygon fill="white" stroke="#bfbfbf" points="575.25,-112.5 575.25,-131.5 624.25,-131.5 624.25,-112.5 575.25,-112.5"/>
<text text-anchor="middle" x="599.75" y="-119.5" font-family="Helvetica,sans-Serif" font-size="10.00">cstdlib</text>
</a>
</g>
</g>
<!-- Node1&#45;&gt;Node26 -->
<g id="edge18" class="edge">
<title>Node1&#45;&gt;Node26</title>
<path fill="none" stroke="midnightblue" d="M349.69,-168.49C405.11,-160.97 486.08,-148.88 564.86,-132.23"/>
<polygon fill="midnightblue" stroke="midnightblue" points="565.91,-135.59 574.95,-130.07 564.44,-128.74 565.91,-135.59"/>
</g>
<!-- Node2&#45;&gt;Node3 -->
<g id="edge2" class="edge">
<title>Node2&#45;&gt;Node3</title>
<path fill="none" stroke="midnightblue" d="M122.64,-112.32C107.84,-103.82 85.05,-90.73 67.76,-80.8"/>
<polygon fill="midnightblue" stroke="midnightblue" points="69.23,-77.6 58.81,-75.65 65.74,-83.67 69.23,-77.6"/>
</g>
<!-- Node2&#45;&gt;Node9 -->
<g id="edge4" class="edge">
<title>Node2&#45;&gt;Node9</title>
<path fill="none" stroke="midnightblue" d="M134.28,-112.08C131.43,-104.77 127.32,-94.18 123.79,-85.1"/>
<polygon fill="midnightblue" stroke="midnightblue" points="127.04,-83.8 120.15,-75.75 120.51,-86.34 127.04,-83.8"/>
</g>
<!-- Node4 -->
<g id="node4" class="node">
<title>Node4</title>
<g id="a_node4"><a xlink:href="concepts_8h.html" target="_top" xlink:title=" ">
<polygon fill="white" stroke="red" points="65.25,-0.5 65.25,-19.5 140.25,-19.5 140.25,-0.5 65.25,-0.5"/>
<text text-anchor="middle" x="102.75" y="-7.5" font-family="Helvetica,sans-Serif" font-size="10.00">./concepts.h</text>
</a>
</g>
</g>
<!-- Node3&#45;&gt;Node4 -->
<g id="edge3" class="edge">
<title>Node3&#45;&gt;Node4</title>
<path fill="none" stroke="midnightblue" d="M53.23,-56.32C61.95,-48.34 75.09,-36.31 85.64,-26.65"/>
<polygon fill="midnightblue" stroke="midnightblue" points="88.08,-29.17 93.09,-19.83 83.35,-24 88.08,-29.17"/>
</g>
<!-- Node16&#45;&gt;Node4 -->
<g id="edge6" class="edge">
<title>Node16&#45;&gt;Node4</title>
<path fill="none" stroke="midnightblue" d="M260.17,-112.44C239.79,-104.3 209.32,-91.08 184.75,-76 160.75,-61.28 135.75,-40.56 119.76,-26.5"/>
<polygon fill="midnightblue" stroke="midnightblue" points="122.07,-23.86 112.28,-19.82 117.41,-29.09 122.07,-23.86"/>
</g>
<!-- Node17 -->
<g id="node7" class="node">
<title>Node17</title>
<g id="a_node7"><a xlink:title=" ">
<polygon fill="white" stroke="#bfbfbf" points="193.75,-56.5 193.75,-75.5 249.75,-75.5 249.75,-56.5 193.75,-56.5"/>
<text text-anchor="middle" x="221.75" y="-63.5" font-family="Helvetica,sans-Serif" font-size="10.00">optional</text>
</a>
</g>
</g>
<!-- Node16&#45;&gt;Node17 -->
<g id="edge7" class="edge">
<title>Node16&#45;&gt;Node17</title>
<path fill="none" stroke="midnightblue" d="M272.95,-112.32C263.93,-104.34 250.34,-92.31 239.43,-82.65"/>
<polygon fill="midnightblue" stroke="midnightblue" points="241.53,-79.84 231.72,-75.83 236.89,-85.08 241.53,-79.84"/>
</g>
<!-- Node10 -->
<g id="node8" class="node">
<title>Node10</title>
<g id="a_node8"><a xlink:title=" ">
<polygon fill="white" stroke="#bfbfbf" points="268.25,-56.5 268.25,-75.5 337.25,-75.5 337.25,-56.5 268.25,-56.5"/>
<text text-anchor="middle" x="302.75" y="-63.5" font-family="Helvetica,sans-Serif" font-size="10.00">type_traits</text>
</a>
</g>
</g>
<!-- Node16&#45;&gt;Node10 -->
<g id="edge8" class="edge">
<title>Node16&#45;&gt;Node10</title>
<path fill="none" stroke="midnightblue" d="M286.05,-112.08C288.73,-104.85 292.59,-94.41 295.93,-85.4"/>
<polygon fill="midnightblue" stroke="midnightblue" points="299.31,-86.34 299.5,-75.75 292.75,-83.91 299.31,-86.34"/>
</g>
<!-- Node6 -->
<g id="node10" class="node">
<title>Node6</title>
<g id="a_node10"><a xlink:title=" ">
<polygon fill="white" stroke="#bfbfbf" points="355.75,-56.5 355.75,-75.5 397.75,-75.5 397.75,-56.5 355.75,-56.5"/>
<text text-anchor="middle" x="376.75" y="-63.5" font-family="Helvetica,sans-Serif" font-size="10.00">array</text>
</a>
</g>
</g>
<!-- Node18&#45;&gt;Node6 -->
<g id="edge10" class="edge">
<title>Node18&#45;&gt;Node6</title>
<path fill="none" stroke="midnightblue" d="M376.75,-112.08C376.75,-105.01 376.75,-94.86 376.75,-85.99"/>
<polygon fill="midnightblue" stroke="midnightblue" points="380.25,-85.75 376.75,-75.75 373.25,-85.75 380.25,-85.75"/>
</g>
<!-- Node19 -->
<g id="node11" class="node">
<title>Node19</title>
<g id="a_node11"><a xlink:title=" ">
<polygon fill="white" stroke="#bfbfbf" points="416.25,-56.5 416.25,-75.5 481.25,-75.5 481.25,-56.5 416.25,-56.5"/>
<text text-anchor="middle" x="448.75" y="-63.5" font-family="Helvetica,sans-Serif" font-size="10.00">functional</text>
</a>
</g>
</g>
<!-- Node18&#45;&gt;Node19 -->
<g id="edge11" class="edge">
<title>Node18&#45;&gt;Node19</title>
<path fill="none" stroke="midnightblue" d="M388.31,-112.32C399.17,-104.18 415.63,-91.84 428.63,-82.09"/>
<polygon fill="midnightblue" stroke="midnightblue" points="431.07,-84.63 436.97,-75.83 426.87,-79.03 431.07,-84.63"/>
</g>
<!-- Node21 -->
<g id="node13" class="node">
<title>Node21</title>
<g id="a_node13"><a xlink:href="numeric_8h.html" target="_top" xlink:title=" ">
<polygon fill="white" stroke="red" points="499.75,-56.5 499.75,-75.5 615.75,-75.5 615.75,-56.5 499.75,-56.5"/>
<text text-anchor="middle" x="557.75" y="-63.5" font-family="Helvetica,sans-Serif" font-size="10.00">./iterators/numeric.h</text>
</a>
</g>
</g>
<!-- Node20&#45;&gt;Node21 -->
<g id="edge13" class="edge">
<title>Node20&#45;&gt;Node21</title>
<path fill="none" stroke="midnightblue" d="M478.01,-112.32C492.97,-103.82 516,-90.73 533.47,-80.8"/>
<polygon fill="midnightblue" stroke="midnightblue" points="535.56,-83.64 542.52,-75.65 532.1,-77.55 535.56,-83.64"/>
</g>
<!-- Node23&#45;&gt;Node3 -->
<g id="edge16" class="edge">
<title>Node23&#45;&gt;Node3</title>
<path fill="none" stroke="midnightblue" d="M41.24,-112.08C41.63,-105.01 42.2,-94.86 42.69,-85.99"/>
<polygon fill="midnightblue" stroke="midnightblue" points="46.2,-85.93 43.26,-75.75 39.21,-85.54 46.2,-85.93"/>
</g>
</g>
</svg>
