<?xml version="1.0" encoding="UTF-8" standalone="no"?>
<!DOCTYPE svg PUBLIC "-//W3C//DTD SVG 1.1//EN"
 "http://www.w3.org/Graphics/SVG/1.1/DTD/svg11.dtd">
<!-- Generated by graphviz version 2.43.0 (0)
 -->
<!-- Title: include/emlabcpp/algorithm.h Pages: 1 -->
<svg width="747pt" height="430pt"
 viewBox="0.00 0.00 747.00 430.00" xmlns="http://www.w3.org/2000/svg" xmlns:xlink="http://www.w3.org/1999/xlink">
<g id="graph0" class="graph" transform="scale(1 1) rotate(0) translate(4 426)">
<title>include/emlabcpp/algorithm.h</title>
<polygon fill="white" stroke="transparent" points="-4,4 -4,-426 743,-426 743,4 -4,4"/>
<!-- Node1 -->
<g id="node1" class="node">
<title>Node1</title>
<g id="a_node1"><a xlink:title=" ">
<polygon fill="#bfbfbf" stroke="black" points="320,-402.5 320,-421.5 482,-421.5 482,-402.5 320,-402.5"/>
<text text-anchor="middle" x="401" y="-409.5" font-family="Helvetica,sans-Serif" font-size="10.00">include/emlabcpp/algorithm.h</text>
</a>
</g>
</g>
<!-- Node2 -->
<g id="node2" class="node">
<title>Node2</title>
<g id="a_node2"><a xlink:href="experimental_2testing_2protocol_8h.html" target="_top" xlink:title=" ">
<polygon fill="white" stroke="black" points="353.5,-268.5 353.5,-298.5 524.5,-298.5 524.5,-268.5 353.5,-268.5"/>
<text text-anchor="start" x="361.5" y="-286.5" font-family="Helvetica,sans-Serif" font-size="10.00">include/emlabcpp/experimental</text>
<text text-anchor="middle" x="439" y="-275.5" font-family="Helvetica,sans-Serif" font-size="10.00">/testing/protocol.h</text>
</a>
</g>
</g>
<!-- Node1&#45;&gt;Node2 -->
<g id="edge1" class="edge">
<title>Node1&#45;&gt;Node2</title>
<path fill="none" stroke="midnightblue" d="M404.97,-392.62C408.47,-377.12 413.94,-354.43 420,-335 423.85,-322.66 429.07,-308.95 433.06,-298.93"/>
<polygon fill="midnightblue" stroke="midnightblue" points="401.53,-391.96 402.79,-402.48 408.37,-393.47 401.53,-391.96"/>
</g>
<!-- Node11 -->
<g id="node11" class="node">
<title>Node11</title>
<g id="a_node11"><a xlink:href="pid_8h.html" target="_top" xlink:title=" ">
<polygon fill="white" stroke="black" points="243,-341 243,-360 373,-360 373,-341 243,-341"/>
<text text-anchor="middle" x="308" y="-348" font-family="Helvetica,sans-Serif" font-size="10.00">include/emlabcpp/pid.h</text>
</a>
</g>
</g>
<!-- Node1&#45;&gt;Node11 -->
<g id="edge13" class="edge">
<title>Node1&#45;&gt;Node11</title>
<path fill="none" stroke="midnightblue" d="M379.01,-396.93C361.08,-385.46 336.34,-369.63 321.3,-360.01"/>
<polygon fill="midnightblue" stroke="midnightblue" points="377.37,-400.03 387.68,-402.48 381.14,-394.14 377.37,-400.03"/>
</g>
<!-- Node12 -->
<g id="node12" class="node">
<title>Node12</title>
<g id="a_node12"><a xlink:href="def_8h.html" target="_top" xlink:title=" ">
<polygon fill="white" stroke="black" points="79,-335.5 79,-365.5 225,-365.5 225,-335.5 79,-335.5"/>
<text text-anchor="start" x="87" y="-353.5" font-family="Helvetica,sans-Serif" font-size="10.00">include/emlabcpp/protocol</text>
<text text-anchor="middle" x="152" y="-342.5" font-family="Helvetica,sans-Serif" font-size="10.00">/def.h</text>
</a>
</g>
</g>
<!-- Node1&#45;&gt;Node12 -->
<g id="edge14" class="edge">
<title>Node1&#45;&gt;Node12</title>
<path fill="none" stroke="midnightblue" d="M355.41,-400.11C314.73,-390.39 254.93,-376.1 210.68,-365.52"/>
<polygon fill="midnightblue" stroke="midnightblue" points="354.78,-403.56 365.32,-402.48 356.41,-396.75 354.78,-403.56"/>
</g>
<!-- Node16 -->
<g id="node16" class="node">
<title>Node16</title>
<g id="a_node16"><a xlink:href="json_8h.html" target="_top" xlink:title=" ">
<polygon fill="white" stroke="black" points="429,-335.5 429,-365.5 575,-365.5 575,-335.5 429,-335.5"/>
<text text-anchor="start" x="437" y="-353.5" font-family="Helvetica,sans-Serif" font-size="10.00">include/emlabcpp/protocol</text>
<text text-anchor="middle" x="502" y="-342.5" font-family="Helvetica,sans-Serif" font-size="10.00">/json.h</text>
</a>
</g>
</g>
<!-- Node1&#45;&gt;Node16 -->
<g id="edge20" class="edge">
<title>Node1&#45;&gt;Node16</title>
<path fill="none" stroke="midnightblue" d="M424.3,-397.28C440.46,-387.75 461.92,-375.11 478.2,-365.52"/>
<polygon fill="midnightblue" stroke="midnightblue" points="422.31,-394.38 415.47,-402.48 425.86,-400.41 422.31,-394.38"/>
</g>
<!-- Node17 -->
<g id="node17" class="node">
<title>Node17</title>
<g id="a_node17"><a xlink:href="register__map_8h.html" target="_top" xlink:title=" ">
<polygon fill="white" stroke="black" points="593,-335.5 593,-365.5 739,-365.5 739,-335.5 593,-335.5"/>
<text text-anchor="start" x="601" y="-353.5" font-family="Helvetica,sans-Serif" font-size="10.00">include/emlabcpp/protocol</text>
<text text-anchor="middle" x="666" y="-342.5" font-family="Helvetica,sans-Serif" font-size="10.00">/register_map.h</text>
</a>
</g>
</g>
<!-- Node1&#45;&gt;Node17 -->
<g id="edge21" class="edge">
<title>Node1&#45;&gt;Node17</title>
<path fill="none" stroke="midnightblue" d="M448.97,-400.23C492.27,-390.51 556.26,-376.14 603.54,-365.52"/>
<polygon fill="midnightblue" stroke="midnightblue" points="447.96,-396.87 438.97,-402.48 449.49,-403.7 447.96,-396.87"/>
</g>
<!-- Node3 -->
<g id="node3" class="node">
<title>Node3</title>
<g id="a_node3"><a xlink:href="controller__interface_8h.html" target="_top" xlink:title=" ">
<polygon fill="white" stroke="black" points="505.5,-134.5 505.5,-164.5 676.5,-164.5 676.5,-134.5 505.5,-134.5"/>
<text text-anchor="start" x="513.5" y="-152.5" font-family="Helvetica,sans-Serif" font-size="10.00">include/emlabcpp/experimental</text>
<text text-anchor="middle" x="591" y="-141.5" font-family="Helvetica,sans-Serif" font-size="10.00">/testing/controller_interface.h</text>
</a>
</g>
</g>
<!-- Node2&#45;&gt;Node3 -->
<g id="edge2" class="edge">
<title>Node2&#45;&gt;Node3</title>
<path fill="none" stroke="midnightblue" d="M457.4,-260.5C472.3,-243.33 494.31,-219.39 516,-201 532.04,-187.4 551.84,-174.2 567.07,-164.71"/>
<polygon fill="midnightblue" stroke="midnightblue" points="454.54,-258.46 450.69,-268.33 459.85,-263.02 454.54,-258.46"/>
</g>
<!-- Node6 -->
<g id="node6" class="node">
<title>Node6</title>
<g id="a_node6"><a xlink:href="experimental_2testing_2error_8h.html" target="_top" xlink:title=" ">
<polygon fill="white" stroke="black" points="524.5,-201.5 524.5,-231.5 695.5,-231.5 695.5,-201.5 524.5,-201.5"/>
<text text-anchor="start" x="532.5" y="-219.5" font-family="Helvetica,sans-Serif" font-size="10.00">include/emlabcpp/experimental</text>
<text text-anchor="middle" x="610" y="-208.5" font-family="Helvetica,sans-Serif" font-size="10.00">/testing/error.h</text>
</a>
</g>
</g>
<!-- Node2&#45;&gt;Node6 -->
<g id="edge5" class="edge">
<title>Node2&#45;&gt;Node6</title>
<path fill="none" stroke="midnightblue" d="M485.52,-264.82C513,-254.37 547.33,-241.32 572.97,-231.58"/>
<polygon fill="midnightblue" stroke="midnightblue" points="484.21,-261.57 476.1,-268.4 486.7,-268.11 484.21,-261.57"/>
</g>
<!-- Node7 -->
<g id="node7" class="node">
<title>Node7</title>
<g id="a_node7"><a xlink:href="reactor_8h.html" target="_top" xlink:title=" ">
<polygon fill="white" stroke="black" points="164.5,-67.5 164.5,-97.5 335.5,-97.5 335.5,-67.5 164.5,-67.5"/>
<text text-anchor="start" x="172.5" y="-85.5" font-family="Helvetica,sans-Serif" font-size="10.00">include/emlabcpp/experimental</text>
<text text-anchor="middle" x="250" y="-74.5" font-family="Helvetica,sans-Serif" font-size="10.00">/testing/reactor.h</text>
</a>
</g>
</g>
<!-- Node2&#45;&gt;Node7 -->
<g id="edge7" class="edge">
<title>Node2&#45;&gt;Node7</title>
<path fill="none" stroke="midnightblue" d="M447.08,-258.65C456.26,-226.74 466.65,-170.01 439,-134 425.86,-116.89 379.25,-104.33 335.6,-96.02"/>
<polygon fill="midnightblue" stroke="midnightblue" points="443.66,-257.87 444.07,-268.46 450.35,-259.92 443.66,-257.87"/>
</g>
<!-- Node8 -->
<g id="node8" class="node">
<title>Node8</title>
<g id="a_node8"><a xlink:href="reactor__interface_8h.html" target="_top" xlink:title=" ">
<polygon fill="white" stroke="black" points="258.5,-134.5 258.5,-164.5 429.5,-164.5 429.5,-134.5 258.5,-134.5"/>
<text text-anchor="start" x="266.5" y="-152.5" font-family="Helvetica,sans-Serif" font-size="10.00">include/emlabcpp/experimental</text>
<text text-anchor="middle" x="344" y="-141.5" font-family="Helvetica,sans-Serif" font-size="10.00">/testing/reactor_interface.h</text>
</a>
</g>
</g>
<!-- Node2&#45;&gt;Node8 -->
<g id="edge8" class="edge">
<title>Node2&#45;&gt;Node8</title>
<path fill="none" stroke="midnightblue" d="M422.94,-260.19C403.27,-232.86 370.54,-187.38 354.09,-164.52"/>
<polygon fill="midnightblue" stroke="midnightblue" points="420.15,-262.3 428.83,-268.37 425.83,-258.21 420.15,-262.3"/>
</g>
<!-- Node9 -->
<g id="node9" class="node">
<title>Node9</title>
<g id="a_node9"><a xlink:href="record_8h.html" target="_top" xlink:title=" ">
<polygon fill="white" stroke="black" points="173.5,-201.5 173.5,-231.5 344.5,-231.5 344.5,-201.5 173.5,-201.5"/>
<text text-anchor="start" x="181.5" y="-219.5" font-family="Helvetica,sans-Serif" font-size="10.00">include/emlabcpp/experimental</text>
<text text-anchor="middle" x="259" y="-208.5" font-family="Helvetica,sans-Serif" font-size="10.00">/testing/record.h</text>
</a>
</g>
</g>
<!-- Node2&#45;&gt;Node9 -->
<g id="edge10" class="edge">
<title>Node2&#45;&gt;Node9</title>
<path fill="none" stroke="midnightblue" d="M390.41,-264.96C361.42,-254.48 325.09,-241.37 297.98,-231.58"/>
<polygon fill="midnightblue" stroke="midnightblue" points="389.35,-268.29 399.94,-268.4 391.73,-261.71 389.35,-268.29"/>
</g>
<!-- Node4 -->
<g id="node4" class="node">
<title>Node4</title>
<g id="a_node4"><a xlink:href="controller_8h.html" target="_top" xlink:title=" ">
<polygon fill="white" stroke="black" points="505.5,-67.5 505.5,-97.5 676.5,-97.5 676.5,-67.5 505.5,-67.5"/>
<text text-anchor="start" x="513.5" y="-85.5" font-family="Helvetica,sans-Serif" font-size="10.00">include/emlabcpp/experimental</text>
<text text-anchor="middle" x="591" y="-74.5" font-family="Helvetica,sans-Serif" font-size="10.00">/testing/controller.h</text>
</a>
</g>
</g>
<!-- Node3&#45;&gt;Node4 -->
<g id="edge3" class="edge">
<title>Node3&#45;&gt;Node4</title>
<path fill="none" stroke="midnightblue" d="M591,-124.11C591,-115.15 591,-105.32 591,-97.58"/>
<polygon fill="midnightblue" stroke="midnightblue" points="587.5,-124.4 591,-134.4 594.5,-124.4 587.5,-124.4"/>
</g>
<!-- Node5 -->
<g id="node5" class="node">
<title>Node5</title>
<g id="a_node5"><a xlink:href="gtest_8h.html" target="_top" xlink:title=" ">
<polygon fill="white" stroke="black" points="505.5,-0.5 505.5,-30.5 676.5,-30.5 676.5,-0.5 505.5,-0.5"/>
<text text-anchor="start" x="513.5" y="-18.5" font-family="Helvetica,sans-Serif" font-size="10.00">include/emlabcpp/experimental</text>
<text text-anchor="middle" x="591" y="-7.5" font-family="Helvetica,sans-Serif" font-size="10.00">/testing/gtest.h</text>
</a>
</g>
</g>
<!-- Node4&#45;&gt;Node5 -->
<g id="edge4" class="edge">
<title>Node4&#45;&gt;Node5</title>
<path fill="none" stroke="midnightblue" d="M591,-57.11C591,-48.15 591,-38.32 591,-30.58"/>
<polygon fill="midnightblue" stroke="midnightblue" points="587.5,-57.4 591,-67.4 594.5,-57.4 587.5,-57.4"/>
</g>
<!-- Node6&#45;&gt;Node3 -->
<g id="edge6" class="edge">
<title>Node6&#45;&gt;Node3</title>
<path fill="none" stroke="midnightblue" d="M603.04,-191.7C600.38,-182.59 597.43,-172.49 595.11,-164.58"/>
<polygon fill="midnightblue" stroke="midnightblue" points="599.71,-192.78 605.88,-201.4 606.43,-190.82 599.71,-192.78"/>
</g>
<!-- Node8&#45;&gt;Node7 -->
<g id="edge9" class="edge">
<title>Node8&#45;&gt;Node7</title>
<path fill="none" stroke="midnightblue" d="M315.01,-128.45C300.55,-118.45 283.41,-106.6 270.36,-97.58"/>
<polygon fill="midnightblue" stroke="midnightblue" points="313.39,-131.59 323.6,-134.4 317.37,-125.83 313.39,-131.59"/>
</g>
<!-- Node10 -->
<g id="node10" class="node">
<title>Node10</title>
<g id="a_node10"><a xlink:href="interface_8h.html" target="_top" xlink:title=" ">
<polygon fill="white" stroke="black" points="69.5,-134.5 69.5,-164.5 240.5,-164.5 240.5,-134.5 69.5,-134.5"/>
<text text-anchor="start" x="77.5" y="-152.5" font-family="Helvetica,sans-Serif" font-size="10.00">include/emlabcpp/experimental</text>
<text text-anchor="middle" x="155" y="-141.5" font-family="Helvetica,sans-Serif" font-size="10.00">/testing/interface.h</text>
</a>
</g>
</g>
<!-- Node9&#45;&gt;Node10 -->
<g id="edge11" class="edge">
<title>Node9&#45;&gt;Node10</title>
<path fill="none" stroke="midnightblue" d="M227.82,-196.02C211.64,-185.9 192.23,-173.77 177.52,-164.58"/>
<polygon fill="midnightblue" stroke="midnightblue" points="226.1,-199.06 236.43,-201.4 229.81,-193.13 226.1,-199.06"/>
</g>
<!-- Node10&#45;&gt;Node7 -->
<g id="edge12" class="edge">
<title>Node10&#45;&gt;Node7</title>
<path fill="none" stroke="midnightblue" d="M183.89,-128.73C198.59,-118.68 216.11,-106.68 229.43,-97.58"/>
<polygon fill="midnightblue" stroke="midnightblue" points="181.89,-125.86 175.61,-134.4 185.84,-131.64 181.89,-125.86"/>
</g>
<!-- Node13 -->
<g id="node13" class="node">
<title>Node13</title>
<g id="a_node13"><a xlink:href="handler_8h.html" target="_top" xlink:title=" ">
<polygon fill="white" stroke="black" points="0,-268.5 0,-298.5 146,-298.5 146,-268.5 0,-268.5"/>
<text text-anchor="start" x="8" y="-286.5" font-family="Helvetica,sans-Serif" font-size="10.00">include/emlabcpp/protocol</text>
<text text-anchor="middle" x="73" y="-275.5" font-family="Helvetica,sans-Serif" font-size="10.00">/handler.h</text>
</a>
</g>
</g>
<!-- Node12&#45;&gt;Node13 -->
<g id="edge15" class="edge">
<title>Node12&#45;&gt;Node13</title>
<path fill="none" stroke="midnightblue" d="M126.94,-328.88C114.94,-319.01 100.87,-307.43 90.11,-298.58"/>
<polygon fill="midnightblue" stroke="midnightblue" points="124.91,-331.75 134.86,-335.4 129.36,-326.34 124.91,-331.75"/>
</g>
<!-- Node15 -->
<g id="node15" class="node">
<title>Node15</title>
<g id="a_node15"><a xlink:href="register__handler_8h.html" target="_top" xlink:title=" ">
<polygon fill="white" stroke="black" points="164,-268.5 164,-298.5 310,-298.5 310,-268.5 164,-268.5"/>
<text text-anchor="start" x="172" y="-286.5" font-family="Helvetica,sans-Serif" font-size="10.00">include/emlabcpp/protocol</text>
<text text-anchor="middle" x="237" y="-275.5" font-family="Helvetica,sans-Serif" font-size="10.00">/register_handler.h</text>
</a>
</g>
</g>
<!-- Node12&#45;&gt;Node15 -->
<g id="edge19" class="edge">
<title>Node12&#45;&gt;Node15</title>
<path fill="none" stroke="midnightblue" d="M178.59,-329.17C191.59,-319.23 206.9,-307.51 218.59,-298.58"/>
<polygon fill="midnightblue" stroke="midnightblue" points="176.26,-326.54 170.44,-335.4 180.51,-332.1 176.26,-326.54"/>
</g>
<!-- Node14 -->
<g id="node14" class="node">
<title>Node14</title>
<g id="a_node14"><a xlink:href="packet__handler_8h.html" target="_top" xlink:title=" ">
<polygon fill="white" stroke="black" points="0,-201.5 0,-231.5 146,-231.5 146,-201.5 0,-201.5"/>
<text text-anchor="start" x="8" y="-219.5" font-family="Helvetica,sans-Serif" font-size="10.00">include/emlabcpp/protocol</text>
<text text-anchor="middle" x="73" y="-208.5" font-family="Helvetica,sans-Serif" font-size="10.00">/packet_handler.h</text>
</a>
</g>
</g>
<!-- Node13&#45;&gt;Node14 -->
<g id="edge16" class="edge">
<title>Node13&#45;&gt;Node14</title>
<path fill="none" stroke="midnightblue" d="M73,-258.11C73,-249.15 73,-239.32 73,-231.58"/>
<polygon fill="midnightblue" stroke="midnightblue" points="69.5,-258.4 73,-268.4 76.5,-258.4 69.5,-258.4"/>
</g>
<!-- Node14&#45;&gt;Node7 -->
<g id="edge18" class="edge">
<title>Node14&#45;&gt;Node7</title>
<path fill="none" stroke="midnightblue" d="M60.66,-192.16C53.2,-174.47 47.32,-150.48 60,-134 73.26,-116.75 120.44,-104.16 164.47,-95.86"/>
<polygon fill="midnightblue" stroke="midnightblue" points="57.49,-193.64 64.87,-201.24 63.85,-190.7 57.49,-193.64"/>
</g>
<!-- Node14&#45;&gt;Node10 -->
<g id="edge17" class="edge">
<title>Node14&#45;&gt;Node10</title>
<path fill="none" stroke="midnightblue" d="M98.65,-195.17C111.19,-185.23 125.97,-173.51 137.24,-164.58"/>
<polygon fill="midnightblue" stroke="midnightblue" points="96.46,-192.44 90.79,-201.4 100.8,-197.93 96.46,-192.44"/>
</g>
<!-- Node18 -->
<g id="node18" class="node">
<title>Node18</title>
<g id="a_node18"><a xlink:href="streams_8h.html" target="_top" xlink:title=" ">
<polygon fill="white" stroke="black" points="556,-268.5 556,-298.5 702,-298.5 702,-268.5 556,-268.5"/>
<text text-anchor="start" x="564" y="-286.5" font-family="Helvetica,sans-Serif" font-size="10.00">include/emlabcpp/protocol</text>
<text text-anchor="middle" x="629" y="-275.5" font-family="Helvetica,sans-Serif" font-size="10.00">/streams.h</text>
</a>
</g>
</g>
<!-- Node17&#45;&gt;Node18 -->
<g id="edge22" class="edge">
<title>Node17&#45;&gt;Node18</title>
<path fill="none" stroke="midnightblue" d="M652.95,-326.58C647.64,-317.24 641.66,-306.75 637.01,-298.58"/>
<polygon fill="midnightblue" stroke="midnightblue" points="649.98,-328.44 657.97,-335.4 656.07,-324.97 649.98,-328.44"/>
</g>
<!-- Node18&#45;&gt;Node6 -->
<g id="edge23" class="edge">
<title>Node18&#45;&gt;Node6</title>
<path fill="none" stroke="midnightblue" d="M622.04,-258.7C619.38,-249.59 616.43,-239.49 614.11,-231.58"/>
<polygon fill="midnightblue" stroke="midnightblue" points="618.71,-259.78 624.88,-268.4 625.43,-257.82 618.71,-259.78"/>
</g>
</g>
</svg>
