<?xml version="1.0" encoding="UTF-8" standalone="no"?>
<!DOCTYPE svg PUBLIC "-//W3C//DTD SVG 1.1//EN"
 "http://www.w3.org/Graphics/SVG/1.1/DTD/svg11.dtd">
<!-- Generated by graphviz version 2.43.0 (0)
 -->
<!-- Title: include/emlabcpp/algorithm.h Pages: 1 -->
<svg width="818pt" height="319pt"
 viewBox="0.00 0.00 817.79 319.00" xmlns="http://www.w3.org/2000/svg" xmlns:xlink="http://www.w3.org/1999/xlink">
<g id="graph0" class="graph" transform="scale(1 1) rotate(0) translate(4 315)">
<title>include/emlabcpp/algorithm.h</title>
<polygon fill="white" stroke="transparent" points="-4,4 -4,-315 813.79,-315 813.79,4 -4,4"/>
<!-- Node1 -->
<g id="node1" class="node">
<title>Node1</title>
<g id="a_node1"><a xlink:title=" ">
<polygon fill="#bfbfbf" stroke="black" points="242.29,-291.5 242.29,-310.5 404.29,-310.5 404.29,-291.5 242.29,-291.5"/>
<text text-anchor="middle" x="323.29" y="-298.5" font-family="Helvetica,sans-Serif" font-size="10.00">include/emlabcpp/algorithm.h</text>
</a>
</g>
</g>
<!-- Node2 -->
<g id="node2" class="node">
<title>Node2</title>
<g id="a_node2"><a xlink:href="impl_8h.html" target="_top" xlink:title=" ">
<polygon fill="white" stroke="black" points="18.79,-168.5 18.79,-198.5 133.79,-198.5 133.79,-168.5 18.79,-168.5"/>
<text text-anchor="start" x="26.79" y="-186.5" font-family="Helvetica,sans-Serif" font-size="10.00">emlabcpp/algorithm</text>
<text text-anchor="middle" x="76.29" y="-175.5" font-family="Helvetica,sans-Serif" font-size="10.00">/impl.h</text>
</a>
</g>
</g>
<!-- Node1&#45;&gt;Node2 -->
<g id="edge1" class="edge">
<title>Node1&#45;&gt;Node2</title>
<path fill="none" stroke="midnightblue" d="M257.46,-291.45C223.27,-284.98 181.77,-273.87 148.29,-255 126.49,-242.71 106.57,-222.14 93.23,-206.38"/>
<polygon fill="midnightblue" stroke="midnightblue" points="95.94,-204.16 86.89,-198.65 90.53,-208.6 95.94,-204.16"/>
</g>
<!-- Node3 -->
<g id="node3" class="node">
<title>Node3</title>
<g id="a_node3"><a xlink:href="types_8h.html" target="_top" xlink:title=" ">
<polygon fill="white" stroke="red" points="218.29,-56.5 218.29,-75.5 322.29,-75.5 322.29,-56.5 218.29,-56.5"/>
<text text-anchor="middle" x="270.29" y="-63.5" font-family="Helvetica,sans-Serif" font-size="10.00">emlabcpp/types.h</text>
</a>
</g>
</g>
<!-- Node1&#45;&gt;Node3 -->
<g id="edge19" class="edge">
<title>Node1&#45;&gt;Node3</title>
<path fill="none" stroke="midnightblue" d="M270.93,-291.49C188.99,-276.91 36.93,-244.27 9.29,-199 -39.36,-119.32 116.5,-86 208.2,-73.56"/>
<polygon fill="midnightblue" stroke="midnightblue" points="208.77,-77.01 218.23,-72.24 207.86,-70.07 208.77,-77.01"/>
</g>
<!-- Node9 -->
<g id="node5" class="node">
<title>Node9</title>
<g id="a_node5"><a xlink:title=" ">
<polygon fill="white" stroke="#bfbfbf" points="141.79,-112.5 141.79,-131.5 182.79,-131.5 182.79,-112.5 141.79,-112.5"/>
<text text-anchor="middle" x="162.29" y="-119.5" font-family="Helvetica,sans-Serif" font-size="10.00">tuple</text>
</a>
</g>
</g>
<!-- Node1&#45;&gt;Node9 -->
<g id="edge23" class="edge">
<title>Node1&#45;&gt;Node9</title>
<path fill="none" stroke="midnightblue" d="M300.03,-291.41C282.09,-283.91 257.52,-271.61 240.29,-255 205.43,-221.41 180.74,-168.93 169.36,-141.35"/>
<polygon fill="midnightblue" stroke="midnightblue" points="172.49,-139.77 165.53,-131.78 165.99,-142.37 172.49,-139.77"/>
</g>
<!-- Node16 -->
<g id="node6" class="node">
<title>Node16</title>
<g id="a_node6"><a xlink:href="bounded_8h.html" target="_top" xlink:title=" ">
<polygon fill="white" stroke="black" points="433.79,-235.5 433.79,-254.5 552.79,-254.5 552.79,-235.5 433.79,-235.5"/>
<text text-anchor="middle" x="493.29" y="-242.5" font-family="Helvetica,sans-Serif" font-size="10.00">emlabcpp/bounded.h</text>
</a>
</g>
</g>
<!-- Node1&#45;&gt;Node16 -->
<g id="edge5" class="edge">
<title>Node1&#45;&gt;Node16</title>
<path fill="none" stroke="midnightblue" d="M350.23,-291.44C378.95,-282.32 424.62,-267.81 456.61,-257.65"/>
<polygon fill="midnightblue" stroke="midnightblue" points="458.01,-260.88 466.48,-254.52 455.89,-254.21 458.01,-260.88"/>
</g>
<!-- Node24 -->
<g id="node9" class="node">
<title>Node24</title>
<g id="a_node9"><a xlink:href="min__max_8h.html" target="_top" xlink:title=" ">
<polygon fill="white" stroke="red" points="553.29,-112.5 553.29,-131.5 675.29,-131.5 675.29,-112.5 553.29,-112.5"/>
<text text-anchor="middle" x="614.29" y="-119.5" font-family="Helvetica,sans-Serif" font-size="10.00">emlabcpp/min_max.h</text>
</a>
</g>
</g>
<!-- Node1&#45;&gt;Node24 -->
<g id="edge18" class="edge">
<title>Node1&#45;&gt;Node24</title>
<path fill="none" stroke="midnightblue" d="M404.34,-292.71C451.68,-286.51 511.84,-275.25 562.29,-255 604.62,-238.01 626.55,-239.1 648.29,-199 659.1,-179.06 643.88,-155 630.48,-139.37"/>
<polygon fill="midnightblue" stroke="midnightblue" points="632.73,-136.65 623.4,-131.64 627.57,-141.38 632.73,-136.65"/>
</g>
<!-- Node29 -->
<g id="node10" class="node">
<title>Node29</title>
<g id="a_node10"><a xlink:href="view_8h.html" target="_top" xlink:title=" ">
<polygon fill="white" stroke="red" points="220.79,-112.5 220.79,-131.5 319.79,-131.5 319.79,-112.5 220.79,-112.5"/>
<text text-anchor="middle" x="270.29" y="-119.5" font-family="Helvetica,sans-Serif" font-size="10.00">emlabcpp/view.h</text>
</a>
</g>
</g>
<!-- Node1&#45;&gt;Node29 -->
<g id="edge20" class="edge">
<title>Node1&#45;&gt;Node29</title>
<path fill="none" stroke="midnightblue" d="M308.69,-291.39C284.66,-276.26 237.62,-242.35 219.29,-199 213.92,-186.31 213.62,-180.56 219.29,-168 224.9,-155.56 235.85,-145.17 246.17,-137.53"/>
<polygon fill="midnightblue" stroke="midnightblue" points="248.3,-140.31 254.55,-131.76 244.33,-134.54 248.3,-140.31"/>
</g>
<!-- Node39 -->
<g id="node13" class="node">
<title>Node39</title>
<g id="a_node13"><a xlink:title=" ">
<polygon fill="white" stroke="#bfbfbf" points="695.79,-235.5 695.79,-254.5 742.79,-254.5 742.79,-235.5 695.79,-235.5"/>
<text text-anchor="middle" x="719.29" y="-242.5" font-family="Helvetica,sans-Serif" font-size="10.00">cmath</text>
</a>
</g>
</g>
<!-- Node1&#45;&gt;Node39 -->
<g id="edge21" class="edge">
<title>Node1&#45;&gt;Node39</title>
<path fill="none" stroke="midnightblue" d="M404.35,-292.32C477.16,-284.83 586.82,-272.07 681.29,-255 682.75,-254.74 684.24,-254.45 685.74,-254.15"/>
<polygon fill="midnightblue" stroke="midnightblue" points="686.62,-257.54 695.65,-252.01 685.14,-250.7 686.62,-257.54"/>
</g>
<!-- Node40 -->
<g id="node14" class="node">
<title>Node40</title>
<g id="a_node14"><a xlink:title=" ">
<polygon fill="white" stroke="#bfbfbf" points="760.79,-235.5 760.79,-254.5 809.79,-254.5 809.79,-235.5 760.79,-235.5"/>
<text text-anchor="middle" x="785.29" y="-242.5" font-family="Helvetica,sans-Serif" font-size="10.00">cstdlib</text>
</a>
</g>
</g>
<!-- Node1&#45;&gt;Node40 -->
<g id="edge22" class="edge">
<title>Node1&#45;&gt;Node40</title>
<path fill="none" stroke="midnightblue" d="M404.5,-295.41C488.91,-289.74 624.91,-278.13 750.35,-255.11"/>
<polygon fill="midnightblue" stroke="midnightblue" points="751.33,-258.49 760.52,-253.22 750.05,-251.61 751.33,-258.49"/>
</g>
<!-- Node2&#45;&gt;Node3 -->
<g id="edge2" class="edge">
<title>Node2&#45;&gt;Node3</title>
<path fill="none" stroke="midnightblue" d="M84.12,-168.26C93.55,-152.36 110.85,-126.9 132.29,-112 155.96,-95.55 186.03,-84.82 212.05,-77.97"/>
<polygon fill="midnightblue" stroke="midnightblue" points="212.95,-81.36 221.81,-75.54 211.26,-74.57 212.95,-81.36"/>
</g>
<!-- Node2&#45;&gt;Node9 -->
<g id="edge4" class="edge">
<title>Node2&#45;&gt;Node9</title>
<path fill="none" stroke="midnightblue" d="M96.67,-168.4C110.2,-159.04 127.9,-146.79 141.51,-137.38"/>
<polygon fill="midnightblue" stroke="midnightblue" points="143.54,-140.23 149.77,-131.66 139.56,-134.47 143.54,-140.23"/>
</g>
<!-- Node4 -->
<g id="node4" class="node">
<title>Node4</title>
<g id="a_node4"><a xlink:href="concepts_8h.html" target="_top" xlink:title=" ">
<polygon fill="white" stroke="red" points="386.29,-0.5 386.29,-19.5 506.29,-19.5 506.29,-0.5 386.29,-0.5"/>
<text text-anchor="middle" x="446.29" y="-7.5" font-family="Helvetica,sans-Serif" font-size="10.00">emlabcpp/concepts.h</text>
</a>
</g>
</g>
<!-- Node3&#45;&gt;Node4 -->
<g id="edge3" class="edge">
<title>Node3&#45;&gt;Node4</title>
<path fill="none" stroke="midnightblue" d="M298.18,-56.44C328.04,-47.28 375.6,-32.69 408.74,-22.52"/>
<polygon fill="midnightblue" stroke="midnightblue" points="410,-25.8 418.53,-19.52 407.94,-19.1 410,-25.8"/>
</g>
<!-- Node16&#45;&gt;Node4 -->
<g id="edge6" class="edge">
<title>Node16&#45;&gt;Node4</title>
<path fill="none" stroke="midnightblue" d="M552.87,-237.87C584.06,-232.09 621.27,-220.85 648.29,-199 680.82,-172.68 707.39,-146.89 684.29,-112 647.24,-56.04 572.28,-30.99 516.33,-19.84"/>
<polygon fill="midnightblue" stroke="midnightblue" points="516.95,-16.39 506.47,-17.98 515.65,-23.27 516.95,-16.39"/>
</g>
<!-- Node17 -->
<g id="node7" class="node">
<title>Node17</title>
<g id="a_node7"><a xlink:href="logging_8h.html" target="_top" xlink:title=" ">
<polygon fill="white" stroke="red" points="228.79,-168.5 228.79,-198.5 361.79,-198.5 361.79,-168.5 228.79,-168.5"/>
<text text-anchor="start" x="236.79" y="-186.5" font-family="Helvetica,sans-Serif" font-size="10.00">emlabcpp/experimental</text>
<text text-anchor="middle" x="295.29" y="-175.5" font-family="Helvetica,sans-Serif" font-size="10.00">/logging.h</text>
</a>
</g>
</g>
<!-- Node16&#45;&gt;Node17 -->
<g id="edge7" class="edge">
<title>Node16&#45;&gt;Node17</title>
<path fill="none" stroke="midnightblue" d="M464.92,-235.48C435.47,-226.63 388.63,-212.55 351.62,-201.43"/>
<polygon fill="midnightblue" stroke="midnightblue" points="352.54,-198.05 341.95,-198.52 350.52,-204.75 352.54,-198.05"/>
</g>
<!-- Node19 -->
<g id="node8" class="node">
<title>Node19</title>
<g id="a_node8"><a xlink:href="pretty__printer_8h.html" target="_top" xlink:title=" ">
<polygon fill="white" stroke="red" points="379.79,-168.5 379.79,-198.5 512.79,-198.5 512.79,-168.5 379.79,-168.5"/>
<text text-anchor="start" x="387.79" y="-186.5" font-family="Helvetica,sans-Serif" font-size="10.00">emlabcpp/experimental</text>
<text text-anchor="middle" x="446.29" y="-175.5" font-family="Helvetica,sans-Serif" font-size="10.00">/pretty_printer.h</text>
</a>
</g>
</g>
<!-- Node16&#45;&gt;Node19 -->
<g id="edge8" class="edge">
<title>Node16&#45;&gt;Node19</title>
<path fill="none" stroke="midnightblue" d="M486.55,-235.48C480.61,-227.94 471.67,-216.63 463.72,-206.57"/>
<polygon fill="midnightblue" stroke="midnightblue" points="466.31,-204.2 457.37,-198.52 460.82,-208.54 466.31,-204.2"/>
</g>
<!-- Node36 -->
<g id="node11" class="node">
<title>Node36</title>
<g id="a_node11"><a xlink:title=" ">
<polygon fill="white" stroke="#bfbfbf" points="476.29,-112.5 476.29,-131.5 532.29,-131.5 532.29,-112.5 476.29,-112.5"/>
<text text-anchor="middle" x="504.29" y="-119.5" font-family="Helvetica,sans-Serif" font-size="10.00">optional</text>
</a>
</g>
</g>
<!-- Node16&#45;&gt;Node36 -->
<g id="edge16" class="edge">
<title>Node16&#45;&gt;Node36</title>
<path fill="none" stroke="midnightblue" d="M500.96,-235.46C508.07,-226.93 518.14,-213.09 522.29,-199 528.07,-179.34 520.76,-156.41 513.79,-140.92"/>
<polygon fill="midnightblue" stroke="midnightblue" points="516.73,-138.96 509.19,-131.51 510.44,-142.03 516.73,-138.96"/>
</g>
<!-- Node10 -->
<g id="node12" class="node">
<title>Node10</title>
<g id="a_node12"><a xlink:title=" ">
<polygon fill="white" stroke="#bfbfbf" points="569.79,-174 569.79,-193 638.79,-193 638.79,-174 569.79,-174"/>
<text text-anchor="middle" x="604.29" y="-181" font-family="Helvetica,sans-Serif" font-size="10.00">type_traits</text>
</a>
</g>
</g>
<!-- Node16&#45;&gt;Node10 -->
<g id="edge17" class="edge">
<title>Node16&#45;&gt;Node10</title>
<path fill="none" stroke="midnightblue" d="M509.19,-235.48C527.57,-225.62 558.04,-209.29 579.53,-197.77"/>
<polygon fill="midnightblue" stroke="midnightblue" points="581.25,-200.82 588.41,-193.01 577.95,-194.65 581.25,-200.82"/>
</g>
<!-- Node19&#45;&gt;Node3 -->
<g id="edge11" class="edge">
<title>Node19&#45;&gt;Node3</title>
<path fill="none" stroke="midnightblue" d="M424.71,-168.34C390.98,-146.2 326.13,-103.64 292.2,-81.38"/>
<polygon fill="midnightblue" stroke="midnightblue" points="293.78,-78.23 283.5,-75.67 289.94,-84.08 293.78,-78.23"/>
</g>
<!-- Node19&#45;&gt;Node4 -->
<g id="edge9" class="edge">
<title>Node19&#45;&gt;Node4</title>
<path fill="none" stroke="midnightblue" d="M446.29,-168.47C446.29,-137.7 446.29,-64.33 446.29,-29.7"/>
<polygon fill="midnightblue" stroke="midnightblue" points="449.79,-29.56 446.29,-19.56 442.79,-29.56 449.79,-29.56"/>
</g>
<!-- Node19&#45;&gt;Node9 -->
<g id="edge15" class="edge">
<title>Node19&#45;&gt;Node9</title>
<path fill="none" stroke="midnightblue" d="M379.7,-168.55C320.66,-156.18 237.11,-138.68 192.74,-129.38"/>
<polygon fill="midnightblue" stroke="midnightblue" points="193.37,-125.93 182.86,-127.31 191.93,-132.79 193.37,-125.93"/>
</g>
<!-- Node19&#45;&gt;Node24 -->
<g id="edge10" class="edge">
<title>Node19&#45;&gt;Node24</title>
<path fill="none" stroke="midnightblue" d="M486.1,-168.4C514.79,-158.24 553.1,-144.67 580.34,-135.02"/>
<polygon fill="midnightblue" stroke="midnightblue" points="581.59,-138.3 589.84,-131.66 579.25,-131.7 581.59,-138.3"/>
</g>
<!-- Node19&#45;&gt;Node29 -->
<g id="edge12" class="edge">
<title>Node19&#45;&gt;Node29</title>
<path fill="none" stroke="midnightblue" d="M404.58,-168.4C374.3,-158.16 333.8,-144.47 305.22,-134.81"/>
<polygon fill="midnightblue" stroke="midnightblue" points="306.24,-131.46 295.64,-131.57 303.99,-138.09 306.24,-131.46"/>
</g>
<!-- Node19&#45;&gt;Node36 -->
<g id="edge14" class="edge">
<title>Node19&#45;&gt;Node36</title>
<path fill="none" stroke="midnightblue" d="M460.03,-168.4C468.64,-159.58 479.74,-148.18 488.67,-139.02"/>
<polygon fill="midnightblue" stroke="midnightblue" points="491.38,-141.26 495.85,-131.66 486.36,-136.38 491.38,-141.26"/>
</g>
<!-- Node29&#45;&gt;Node3 -->
<g id="edge13" class="edge">
<title>Node29&#45;&gt;Node3</title>
<path fill="none" stroke="midnightblue" d="M270.29,-112.08C270.29,-105.01 270.29,-94.86 270.29,-85.99"/>
<polygon fill="midnightblue" stroke="midnightblue" points="273.79,-85.75 270.29,-75.75 266.79,-85.75 273.79,-85.75"/>
</g>
</g>
</svg>
