<?xml version="1.0" encoding="UTF-8" standalone="no"?>
<!DOCTYPE svg PUBLIC "-//W3C//DTD SVG 1.1//EN"
 "http://www.w3.org/Graphics/SVG/1.1/DTD/svg11.dtd">
<!-- Generated by graphviz version 2.43.0 (0)
 -->
<!-- Title: include/emlabcpp/algorithm.h Pages: 1 -->
<svg width="676pt" height="252pt"
 viewBox="0.00 0.00 675.50 252.00" xmlns="http://www.w3.org/2000/svg" xmlns:xlink="http://www.w3.org/1999/xlink">
<g id="graph0" class="graph" transform="scale(1 1) rotate(0) translate(4 248)">
<title>include/emlabcpp/algorithm.h</title>
<polygon fill="white" stroke="transparent" points="-4,4 -4,-248 671.5,-248 671.5,4 -4,4"/>
<!-- Node1 -->
<g id="node1" class="node">
<title>Node1</title>
<g id="a_node1"><a xlink:title=" ">
<polygon fill="#bfbfbf" stroke="black" points="233,-224.5 233,-243.5 395,-243.5 395,-224.5 233,-224.5"/>
<text text-anchor="middle" x="314" y="-231.5" font-family="Helvetica,sans-Serif" font-size="10.00">include/emlabcpp/algorithm.h</text>
</a>
</g>
</g>
<!-- Node2 -->
<g id="node2" class="node">
<title>Node2</title>
<g id="a_node2"><a xlink:href="impl_8h.html" target="_top" xlink:title=" ">
<polygon fill="white" stroke="black" points="144,-168.5 144,-187.5 248,-187.5 248,-168.5 144,-168.5"/>
<text text-anchor="middle" x="196" y="-175.5" font-family="Helvetica,sans-Serif" font-size="10.00">./algorithm/impl.h</text>
</a>
</g>
</g>
<!-- Node1&#45;&gt;Node2 -->
<g id="edge1" class="edge">
<title>Node1&#45;&gt;Node2</title>
<path fill="none" stroke="midnightblue" d="M295.3,-224.44C276.06,-215.64 245.85,-201.81 223.8,-191.72"/>
<polygon fill="midnightblue" stroke="midnightblue" points="225.16,-188.5 214.61,-187.52 222.25,-194.86 225.16,-188.5"/>
</g>
<!-- Node3 -->
<g id="node3" class="node">
<title>Node3</title>
<g id="a_node3"><a xlink:href="types_8h.html" target="_top" xlink:title=" ">
<polygon fill="white" stroke="red" points="234,-56.5 234,-75.5 296,-75.5 296,-56.5 234,-56.5"/>
<text text-anchor="middle" x="265" y="-63.5" font-family="Helvetica,sans-Serif" font-size="10.00">../types.h</text>
</a>
</g>
</g>
<!-- Node1&#45;&gt;Node3 -->
<g id="edge16" class="edge">
<title>Node1&#45;&gt;Node3</title>
<path fill="none" stroke="midnightblue" d="M313.77,-224.48C312.98,-204.27 309.48,-152.13 294,-112 290.16,-102.05 283.93,-91.97 278.23,-83.88"/>
<polygon fill="midnightblue" stroke="midnightblue" points="280.94,-81.66 272.17,-75.71 275.32,-85.83 280.94,-81.66"/>
</g>
<!-- Node9 -->
<g id="node5" class="node">
<title>Node9</title>
<g id="a_node5"><a xlink:title=" ">
<polygon fill="white" stroke="#bfbfbf" points="244.5,-112.5 244.5,-131.5 285.5,-131.5 285.5,-112.5 244.5,-112.5"/>
<text text-anchor="middle" x="265" y="-119.5" font-family="Helvetica,sans-Serif" font-size="10.00">tuple</text>
</a>
</g>
</g>
<!-- Node1&#45;&gt;Node9 -->
<g id="edge20" class="edge">
<title>Node1&#45;&gt;Node9</title>
<path fill="none" stroke="midnightblue" d="M310.16,-224.37C302.18,-206.46 283.67,-164.92 273,-140.95"/>
<polygon fill="midnightblue" stroke="midnightblue" points="276.09,-139.3 268.83,-131.59 269.7,-142.15 276.09,-139.3"/>
</g>
<!-- Node16 -->
<g id="node6" class="node">
<title>Node16</title>
<g id="a_node6"><a xlink:href="bounded_8h.html" target="_top" xlink:title=" ">
<polygon fill="white" stroke="black" points="342,-168.5 342,-187.5 416,-187.5 416,-168.5 342,-168.5"/>
<text text-anchor="middle" x="379" y="-175.5" font-family="Helvetica,sans-Serif" font-size="10.00">./bounded.h</text>
</a>
</g>
</g>
<!-- Node1&#45;&gt;Node16 -->
<g id="edge5" class="edge">
<title>Node1&#45;&gt;Node16</title>
<path fill="none" stroke="midnightblue" d="M324.44,-224.32C334.15,-216.26 348.82,-204.08 360.5,-194.37"/>
<polygon fill="midnightblue" stroke="midnightblue" points="362.91,-196.92 368.37,-187.83 358.44,-191.53 362.91,-196.92"/>
</g>
<!-- Node18 -->
<g id="node9" class="node">
<title>Node18</title>
<g id="a_node9"><a xlink:href="min__max_8h.html" target="_top" xlink:title=" ">
<polygon fill="white" stroke="black" points="434.5,-168.5 434.5,-187.5 511.5,-187.5 511.5,-168.5 434.5,-168.5"/>
<text text-anchor="middle" x="473" y="-175.5" font-family="Helvetica,sans-Serif" font-size="10.00">./min_max.h</text>
</a>
</g>
</g>
<!-- Node1&#45;&gt;Node18 -->
<g id="edge9" class="edge">
<title>Node1&#45;&gt;Node18</title>
<path fill="none" stroke="midnightblue" d="M339.19,-224.44C365.94,-215.36 408.4,-200.94 438.31,-190.78"/>
<polygon fill="midnightblue" stroke="midnightblue" points="439.58,-194.05 447.92,-187.52 437.33,-187.42 439.58,-194.05"/>
</g>
<!-- Node20 -->
<g id="node12" class="node">
<title>Node20</title>
<g id="a_node12"><a xlink:href="range_8h.html" target="_top" xlink:title=" ">
<polygon fill="white" stroke="black" points="66.5,-168.5 66.5,-187.5 125.5,-187.5 125.5,-168.5 66.5,-168.5"/>
<text text-anchor="middle" x="96" y="-175.5" font-family="Helvetica,sans-Serif" font-size="10.00">./range.h</text>
</a>
</g>
</g>
<!-- Node1&#45;&gt;Node20 -->
<g id="edge12" class="edge">
<title>Node1&#45;&gt;Node20</title>
<path fill="none" stroke="midnightblue" d="M279.46,-224.44C240.39,-214.77 176.87,-199.03 135.77,-188.85"/>
<polygon fill="midnightblue" stroke="midnightblue" points="136.38,-185.4 125.83,-186.39 134.69,-192.19 136.38,-185.4"/>
</g>
<!-- Node23 -->
<g id="node14" class="node">
<title>Node23</title>
<g id="a_node14"><a xlink:href="view_8h.html" target="_top" xlink:title=" ">
<polygon fill="white" stroke="red" points="0,-112.5 0,-131.5 54,-131.5 54,-112.5 0,-112.5"/>
<text text-anchor="middle" x="27" y="-119.5" font-family="Helvetica,sans-Serif" font-size="10.00">./view.h</text>
</a>
</g>
</g>
<!-- Node1&#45;&gt;Node23 -->
<g id="edge17" class="edge">
<title>Node1&#45;&gt;Node23</title>
<path fill="none" stroke="midnightblue" d="M232.8,-226.96C168.09,-220.69 84.01,-208.79 57,-188 42.4,-176.77 34.65,-156.75 30.71,-141.89"/>
<polygon fill="midnightblue" stroke="midnightblue" points="34.04,-140.73 28.39,-131.76 27.21,-142.29 34.04,-140.73"/>
</g>
<!-- Node25 -->
<g id="node15" class="node">
<title>Node25</title>
<g id="a_node15"><a xlink:title=" ">
<polygon fill="white" stroke="#bfbfbf" points="529.5,-168.5 529.5,-187.5 576.5,-187.5 576.5,-168.5 529.5,-168.5"/>
<text text-anchor="middle" x="553" y="-175.5" font-family="Helvetica,sans-Serif" font-size="10.00">cmath</text>
</a>
</g>
</g>
<!-- Node1&#45;&gt;Node25 -->
<g id="edge18" class="edge">
<title>Node1&#45;&gt;Node25</title>
<path fill="none" stroke="midnightblue" d="M356.99,-224.44C396.85,-216.33 458.01,-203.44 519.42,-188.29"/>
<polygon fill="midnightblue" stroke="midnightblue" points="520.42,-191.65 529.28,-185.84 518.73,-184.86 520.42,-191.65"/>
</g>
<!-- Node26 -->
<g id="node16" class="node">
<title>Node26</title>
<g id="a_node16"><a xlink:title=" ">
<polygon fill="white" stroke="#bfbfbf" points="594.5,-168.5 594.5,-187.5 643.5,-187.5 643.5,-168.5 594.5,-168.5"/>
<text text-anchor="middle" x="619" y="-175.5" font-family="Helvetica,sans-Serif" font-size="10.00">cstdlib</text>
</a>
</g>
</g>
<!-- Node1&#45;&gt;Node26 -->
<g id="edge19" class="edge">
<title>Node1&#45;&gt;Node26</title>
<path fill="none" stroke="midnightblue" d="M376.73,-224.48C429.82,-216.85 508.07,-204.61 584.42,-188.19"/>
<polygon fill="midnightblue" stroke="midnightblue" points="585.17,-191.6 594.2,-186.06 583.69,-184.76 585.17,-191.6"/>
</g>
<!-- Node2&#45;&gt;Node3 -->
<g id="edge2" class="edge">
<title>Node2&#45;&gt;Node3</title>
<path fill="none" stroke="midnightblue" d="M201.17,-168.09C208.51,-155.49 222.47,-131.79 235,-112 240.91,-102.66 247.73,-92.4 253.37,-84.03"/>
<polygon fill="midnightblue" stroke="midnightblue" points="256.41,-85.79 259.13,-75.55 250.61,-81.86 256.41,-85.79"/>
</g>
<!-- Node2&#45;&gt;Node9 -->
<g id="edge4" class="edge">
<title>Node2&#45;&gt;Node9</title>
<path fill="none" stroke="midnightblue" d="M207.09,-168.32C217.49,-160.18 233.26,-147.84 245.72,-138.09"/>
<polygon fill="midnightblue" stroke="midnightblue" points="247.99,-140.75 253.71,-131.83 243.68,-135.24 247.99,-140.75"/>
</g>
<!-- Node4 -->
<g id="node4" class="node">
<title>Node4</title>
<g id="a_node4"><a xlink:href="concepts_8h.html" target="_top" xlink:title=" ">
<polygon fill="white" stroke="red" points="351.5,-0.5 351.5,-19.5 426.5,-19.5 426.5,-0.5 351.5,-0.5"/>
<text text-anchor="middle" x="389" y="-7.5" font-family="Helvetica,sans-Serif" font-size="10.00">./concepts.h</text>
</a>
</g>
</g>
<!-- Node3&#45;&gt;Node4 -->
<g id="edge3" class="edge">
<title>Node3&#45;&gt;Node4</title>
<path fill="none" stroke="midnightblue" d="M284.65,-56.44C304.96,-47.6 336.9,-33.69 360.1,-23.59"/>
<polygon fill="midnightblue" stroke="midnightblue" points="361.67,-26.72 369.44,-19.52 358.88,-20.3 361.67,-26.72"/>
</g>
<!-- Node16&#45;&gt;Node4 -->
<g id="edge6" class="edge">
<title>Node16&#45;&gt;Node4</title>
<path fill="none" stroke="midnightblue" d="M412.74,-168.46C443.43,-159.92 485.36,-146.08 495,-132 524.07,-89.55 456.4,-45.53 416.18,-24.19"/>
<polygon fill="midnightblue" stroke="midnightblue" points="417.59,-20.98 407.09,-19.5 414.38,-27.2 417.59,-20.98"/>
</g>
<!-- Node17 -->
<g id="node7" class="node">
<title>Node17</title>
<g id="a_node7"><a xlink:title=" ">
<polygon fill="white" stroke="#bfbfbf" points="342,-112.5 342,-131.5 398,-131.5 398,-112.5 342,-112.5"/>
<text text-anchor="middle" x="370" y="-119.5" font-family="Helvetica,sans-Serif" font-size="10.00">optional</text>
</a>
</g>
</g>
<!-- Node16&#45;&gt;Node17 -->
<g id="edge7" class="edge">
<title>Node16&#45;&gt;Node17</title>
<path fill="none" stroke="midnightblue" d="M377.51,-168.08C376.32,-160.93 374.61,-150.64 373.12,-141.69"/>
<polygon fill="midnightblue" stroke="midnightblue" points="376.55,-141.04 371.46,-131.75 369.65,-142.19 376.55,-141.04"/>
</g>
<!-- Node10 -->
<g id="node8" class="node">
<title>Node10</title>
<g id="a_node8"><a xlink:title=" ">
<polygon fill="white" stroke="#bfbfbf" points="416.5,-112.5 416.5,-131.5 485.5,-131.5 485.5,-112.5 416.5,-112.5"/>
<text text-anchor="middle" x="451" y="-119.5" font-family="Helvetica,sans-Serif" font-size="10.00">type_traits</text>
</a>
</g>
</g>
<!-- Node16&#45;&gt;Node10 -->
<g id="edge8" class="edge">
<title>Node16&#45;&gt;Node10</title>
<path fill="none" stroke="midnightblue" d="M390.57,-168.32C401.42,-160.18 417.88,-147.84 430.88,-138.09"/>
<polygon fill="midnightblue" stroke="midnightblue" points="433.32,-140.63 439.22,-131.83 429.12,-135.03 433.32,-140.63"/>
</g>
<!-- Node6 -->
<g id="node10" class="node">
<title>Node6</title>
<g id="a_node10"><a xlink:title=" ">
<polygon fill="white" stroke="#bfbfbf" points="542,-112.5 542,-131.5 584,-131.5 584,-112.5 542,-112.5"/>
<text text-anchor="middle" x="563" y="-119.5" font-family="Helvetica,sans-Serif" font-size="10.00">array</text>
</a>
</g>
</g>
<!-- Node18&#45;&gt;Node6 -->
<g id="edge10" class="edge">
<title>Node18&#45;&gt;Node6</title>
<path fill="none" stroke="midnightblue" d="M487.46,-168.32C501.5,-159.9 523.05,-146.97 539.54,-137.07"/>
<polygon fill="midnightblue" stroke="midnightblue" points="541.8,-139.8 548.58,-131.65 538.2,-133.8 541.8,-139.8"/>
</g>
<!-- Node19 -->
<g id="node11" class="node">
<title>Node19</title>
<g id="a_node11"><a xlink:title=" ">
<polygon fill="white" stroke="#bfbfbf" points="602.5,-112.5 602.5,-131.5 667.5,-131.5 667.5,-112.5 602.5,-112.5"/>
<text text-anchor="middle" x="635" y="-119.5" font-family="Helvetica,sans-Serif" font-size="10.00">functional</text>
</a>
</g>
</g>
<!-- Node18&#45;&gt;Node19 -->
<g id="edge11" class="edge">
<title>Node18&#45;&gt;Node19</title>
<path fill="none" stroke="midnightblue" d="M498.67,-168.44C525.92,-159.36 569.18,-144.94 599.65,-134.78"/>
<polygon fill="midnightblue" stroke="midnightblue" points="601.07,-138 609.45,-131.52 598.86,-131.36 601.07,-138"/>
</g>
<!-- Node21 -->
<g id="node13" class="node">
<title>Node21</title>
<g id="a_node13"><a xlink:href="numeric_8h.html" target="_top" xlink:title=" ">
<polygon fill="white" stroke="red" points="72,-112.5 72,-131.5 188,-131.5 188,-112.5 72,-112.5"/>
<text text-anchor="middle" x="130" y="-119.5" font-family="Helvetica,sans-Serif" font-size="10.00">./iterators/numeric.h</text>
</a>
</g>
</g>
<!-- Node20&#45;&gt;Node21 -->
<g id="edge13" class="edge">
<title>Node20&#45;&gt;Node21</title>
<path fill="none" stroke="midnightblue" d="M101.61,-168.08C106.37,-160.53 113.32,-149.49 119.15,-140.23"/>
<polygon fill="midnightblue" stroke="midnightblue" points="122.12,-142.08 124.49,-131.75 116.2,-138.35 122.12,-142.08"/>
</g>
<!-- Node20&#45;&gt;Node23 -->
<g id="edge14" class="edge">
<title>Node20&#45;&gt;Node23</title>
<path fill="none" stroke="midnightblue" d="M84.91,-168.32C74.51,-160.18 58.74,-147.84 46.28,-138.09"/>
<polygon fill="midnightblue" stroke="midnightblue" points="48.32,-135.24 38.29,-131.83 44.01,-140.75 48.32,-135.24"/>
</g>
<!-- Node23&#45;&gt;Node3 -->
<g id="edge15" class="edge">
<title>Node23&#45;&gt;Node3</title>
<path fill="none" stroke="midnightblue" d="M54.11,-114.14C57.11,-113.41 60.12,-112.68 63,-112 118.6,-98.86 183.07,-84.68 223.94,-75.82"/>
<polygon fill="midnightblue" stroke="midnightblue" points="224.76,-79.22 233.8,-73.69 223.28,-72.38 224.76,-79.22"/>
</g>
</g>
</svg>
