<?xml version="1.0" encoding="UTF-8" standalone="no"?>
<!DOCTYPE svg PUBLIC "-//W3C//DTD SVG 1.1//EN"
 "http://www.w3.org/Graphics/SVG/1.1/DTD/svg11.dtd">
<!-- Generated by graphviz version 2.43.0 (0)
 -->
<!-- Title: include/emlabcpp/algorithm.h Pages: 1 -->
<svg width="827pt" height="218pt"
 viewBox="0.00 0.00 826.87 218.00" xmlns="http://www.w3.org/2000/svg" xmlns:xlink="http://www.w3.org/1999/xlink">
<g id="graph0" class="graph" transform="scale(1 1) rotate(0) translate(4 214)">
<title>include/emlabcpp/algorithm.h</title>
<polygon fill="white" stroke="transparent" points="-4,4 -4,-214 822.87,-214 822.87,4 -4,4"/>
<!-- Node1 -->
<g id="node1" class="node">
<title>Node1</title>
<g id="a_node1"><a xlink:title=" ">
<polygon fill="#bfbfbf" stroke="black" points="283.37,-190.5 283.37,-209.5 445.37,-209.5 445.37,-190.5 283.37,-190.5"/>
<text text-anchor="middle" x="364.37" y="-197.5" font-family="Helvetica,sans-Serif" font-size="10.00">include/emlabcpp/algorithm.h</text>
</a>
</g>
</g>
<!-- Node2 -->
<g id="node2" class="node">
<title>Node2</title>
<g id="a_node2"><a xlink:href="impl_8h.html" target="_top" xlink:title=" ">
<polygon fill="white" stroke="black" points="132.87,-123.5 132.87,-153.5 247.87,-153.5 247.87,-123.5 132.87,-123.5"/>
<text text-anchor="start" x="140.87" y="-141.5" font-family="Helvetica,sans-Serif" font-size="10.00">emlabcpp/algorithm</text>
<text text-anchor="middle" x="190.37" y="-130.5" font-family="Helvetica,sans-Serif" font-size="10.00">/impl.h</text>
</a>
</g>
</g>
<!-- Node1&#45;&gt;Node2 -->
<g id="edge1" class="edge">
<title>Node1&#45;&gt;Node2</title>
<path fill="none" stroke="midnightblue" d="M339.44,-190.48C313.89,-181.74 273.45,-167.91 241.12,-156.86"/>
<polygon fill="midnightblue" stroke="midnightblue" points="241.97,-153.45 231.38,-153.52 239.71,-160.07 241.97,-153.45"/>
</g>
<!-- Node3 -->
<g id="node3" class="node">
<title>Node3</title>
<g id="a_node3"><a xlink:href="types_8h.html" target="_top" xlink:title=" ">
<polygon fill="white" stroke="red" points="30.37,-62 30.37,-81 134.37,-81 134.37,-62 30.37,-62"/>
<text text-anchor="middle" x="82.37" y="-69" font-family="Helvetica,sans-Serif" font-size="10.00">emlabcpp/types.h</text>
</a>
</g>
</g>
<!-- Node1&#45;&gt;Node3 -->
<g id="edge14" class="edge">
<title>Node1&#45;&gt;Node3</title>
<path fill="none" stroke="midnightblue" d="M283.26,-194.4C183.31,-187.88 24.4,-174.43 6.37,-154 -15.22,-129.52 24.67,-101.9 54.37,-85.92"/>
<polygon fill="midnightblue" stroke="midnightblue" points="56.3,-88.86 63.57,-81.16 53.08,-82.65 56.3,-88.86"/>
</g>
<!-- Node9 -->
<g id="node5" class="node">
<title>Node9</title>
<g id="a_node5"><a xlink:title=" ">
<polygon fill="white" stroke="#bfbfbf" points="169.87,-62 169.87,-81 210.87,-81 210.87,-62 169.87,-62"/>
<text text-anchor="middle" x="190.37" y="-69" font-family="Helvetica,sans-Serif" font-size="10.00">tuple</text>
</a>
</g>
</g>
<!-- Node1&#45;&gt;Node9 -->
<g id="edge19" class="edge">
<title>Node1&#45;&gt;Node9</title>
<path fill="none" stroke="midnightblue" d="M350.37,-190.41C336.24,-181.62 313.93,-167.38 295.37,-154 277.41,-141.05 273.83,-136.62 256.37,-123 240.84,-110.89 223.11,-97.34 209.94,-87.32"/>
<polygon fill="midnightblue" stroke="midnightblue" points="211.71,-84.27 201.63,-81.02 207.48,-89.85 211.71,-84.27"/>
</g>
<!-- Node16 -->
<g id="node6" class="node">
<title>Node16</title>
<g id="a_node6"><a xlink:href="bounded_8h.html" target="_top" xlink:title=" ">
<polygon fill="white" stroke="black" points="304.87,-129 304.87,-148 423.87,-148 423.87,-129 304.87,-129"/>
<text text-anchor="middle" x="364.37" y="-136" font-family="Helvetica,sans-Serif" font-size="10.00">emlabcpp/bounded.h</text>
</a>
</g>
</g>
<!-- Node1&#45;&gt;Node16 -->
<g id="edge5" class="edge">
<title>Node1&#45;&gt;Node16</title>
<path fill="none" stroke="midnightblue" d="M364.37,-190.48C364.37,-182.08 364.37,-168.98 364.37,-158.16"/>
<polygon fill="midnightblue" stroke="midnightblue" points="367.87,-158.01 364.37,-148.01 360.87,-158.01 367.87,-158.01"/>
</g>
<!-- Node18 -->
<g id="node9" class="node">
<title>Node18</title>
<g id="a_node9"><a xlink:href="min__max_8h.html" target="_top" xlink:title=" ">
<polygon fill="white" stroke="black" points="442.37,-129 442.37,-148 564.37,-148 564.37,-129 442.37,-129"/>
<text text-anchor="middle" x="503.37" y="-136" font-family="Helvetica,sans-Serif" font-size="10.00">emlabcpp/min_max.h</text>
</a>
</g>
</g>
<!-- Node1&#45;&gt;Node18 -->
<g id="edge9" class="edge">
<title>Node1&#45;&gt;Node18</title>
<path fill="none" stroke="midnightblue" d="M384.29,-190.48C407.82,-180.4 447.18,-163.55 474.16,-152"/>
<polygon fill="midnightblue" stroke="midnightblue" points="475.68,-155.16 483.49,-148.01 472.92,-148.73 475.68,-155.16"/>
</g>
<!-- Node20 -->
<g id="node12" class="node">
<title>Node20</title>
<g id="a_node12"><a xlink:href="range_8h.html" target="_top" xlink:title=" ">
<polygon fill="white" stroke="black" points="582.37,-129 582.37,-148 686.37,-148 686.37,-129 582.37,-129"/>
<text text-anchor="middle" x="634.37" y="-136" font-family="Helvetica,sans-Serif" font-size="10.00">emlabcpp/range.h</text>
</a>
</g>
</g>
<!-- Node1&#45;&gt;Node20 -->
<g id="edge12" class="edge">
<title>Node1&#45;&gt;Node20</title>
<path fill="none" stroke="midnightblue" d="M405.28,-190.46C447.45,-181.6 515.09,-167.2 573.37,-154 578.42,-152.86 583.69,-151.64 588.94,-150.41"/>
<polygon fill="midnightblue" stroke="midnightblue" points="589.99,-153.76 598.92,-148.06 588.38,-146.95 589.99,-153.76"/>
</g>
<!-- Node23 -->
<g id="node14" class="node">
<title>Node23</title>
<g id="a_node14"><a xlink:href="view_8h.html" target="_top" xlink:title=" ">
<polygon fill="white" stroke="red" points="15.87,-129 15.87,-148 114.87,-148 114.87,-129 15.87,-129"/>
<text text-anchor="middle" x="65.37" y="-136" font-family="Helvetica,sans-Serif" font-size="10.00">emlabcpp/view.h</text>
</a>
</g>
</g>
<!-- Node1&#45;&gt;Node23 -->
<g id="edge15" class="edge">
<title>Node1&#45;&gt;Node23</title>
<path fill="none" stroke="midnightblue" d="M313.88,-190.49C265,-182.03 188.87,-168.29 123.37,-154 118.37,-152.91 113.13,-151.7 107.95,-150.46"/>
<polygon fill="midnightblue" stroke="midnightblue" points="108.66,-147.03 98.11,-148.05 106.99,-153.83 108.66,-147.03"/>
</g>
<!-- Node25 -->
<g id="node15" class="node">
<title>Node25</title>
<g id="a_node15"><a xlink:title=" ">
<polygon fill="white" stroke="#bfbfbf" points="704.87,-129 704.87,-148 751.87,-148 751.87,-129 704.87,-129"/>
<text text-anchor="middle" x="728.37" y="-136" font-family="Helvetica,sans-Serif" font-size="10.00">cmath</text>
</a>
</g>
</g>
<!-- Node1&#45;&gt;Node25 -->
<g id="edge17" class="edge">
<title>Node1&#45;&gt;Node25</title>
<path fill="none" stroke="midnightblue" d="M445.58,-194.29C513.38,-188.87 612.06,-177.47 695.37,-154 697.53,-153.39 699.72,-152.67 701.9,-151.88"/>
<polygon fill="midnightblue" stroke="midnightblue" points="703.28,-155.1 711.24,-148.11 700.65,-148.61 703.28,-155.1"/>
</g>
<!-- Node26 -->
<g id="node16" class="node">
<title>Node26</title>
<g id="a_node16"><a xlink:title=" ">
<polygon fill="white" stroke="#bfbfbf" points="769.87,-129 769.87,-148 818.87,-148 818.87,-129 769.87,-129"/>
<text text-anchor="middle" x="794.37" y="-136" font-family="Helvetica,sans-Serif" font-size="10.00">cstdlib</text>
</a>
</g>
</g>
<!-- Node1&#45;&gt;Node26 -->
<g id="edge18" class="edge">
<title>Node1&#45;&gt;Node26</title>
<path fill="none" stroke="midnightblue" d="M445.54,-196.92C526.73,-193.19 654.55,-182.81 761.37,-154 763.67,-153.38 766.01,-152.63 768.33,-151.79"/>
<polygon fill="midnightblue" stroke="midnightblue" points="769.65,-155.03 777.6,-148.03 767.02,-148.55 769.65,-155.03"/>
</g>
<!-- Node2&#45;&gt;Node3 -->
<g id="edge2" class="edge">
<title>Node2&#45;&gt;Node3</title>
<path fill="none" stroke="midnightblue" d="M166.94,-123.4C148.66,-112.39 123.41,-97.2 105.27,-86.28"/>
<polygon fill="midnightblue" stroke="midnightblue" points="106.88,-83.16 96.51,-81.01 103.27,-89.16 106.88,-83.16"/>
</g>
<!-- Node2&#45;&gt;Node9 -->
<g id="edge4" class="edge">
<title>Node2&#45;&gt;Node9</title>
<path fill="none" stroke="midnightblue" d="M190.37,-123.4C190.37,-114.06 190.37,-101.71 190.37,-91.52"/>
<polygon fill="midnightblue" stroke="midnightblue" points="193.87,-91.19 190.37,-81.19 186.87,-91.19 193.87,-91.19"/>
</g>
<!-- Node4 -->
<g id="node4" class="node">
<title>Node4</title>
<g id="a_node4"><a xlink:href="concepts_8h.html" target="_top" xlink:title=" ">
<polygon fill="white" stroke="red" points="95.37,-0.5 95.37,-19.5 215.37,-19.5 215.37,-0.5 95.37,-0.5"/>
<text text-anchor="middle" x="155.37" y="-7.5" font-family="Helvetica,sans-Serif" font-size="10.00">emlabcpp/concepts.h</text>
</a>
</g>
</g>
<!-- Node3&#45;&gt;Node4 -->
<g id="edge3" class="edge">
<title>Node3&#45;&gt;Node4</title>
<path fill="none" stroke="midnightblue" d="M92.83,-61.98C104.32,-52.61 123,-37.38 136.96,-26.01"/>
<polygon fill="midnightblue" stroke="midnightblue" points="139.39,-28.54 144.93,-19.51 134.97,-23.11 139.39,-28.54"/>
</g>
<!-- Node16&#45;&gt;Node4 -->
<g id="edge6" class="edge">
<title>Node16&#45;&gt;Node4</title>
<path fill="none" stroke="midnightblue" d="M344.69,-128.93C323.77,-119.55 289.96,-103.62 262.37,-87 242.19,-74.84 238.56,-69.66 219.37,-56 204.95,-45.73 188.62,-34.25 176.06,-25.46"/>
<polygon fill="midnightblue" stroke="midnightblue" points="177.87,-22.45 167.67,-19.58 173.86,-28.18 177.87,-22.45"/>
</g>
<!-- Node17 -->
<g id="node7" class="node">
<title>Node17</title>
<g id="a_node7"><a xlink:title=" ">
<polygon fill="white" stroke="#bfbfbf" points="271.37,-62 271.37,-81 327.37,-81 327.37,-62 271.37,-62"/>
<text text-anchor="middle" x="299.37" y="-69" font-family="Helvetica,sans-Serif" font-size="10.00">optional</text>
</a>
</g>
</g>
<!-- Node16&#45;&gt;Node17 -->
<g id="edge7" class="edge">
<title>Node16&#45;&gt;Node17</title>
<path fill="none" stroke="midnightblue" d="M355.61,-128.73C345.27,-118.4 327.91,-101.04 315.2,-88.33"/>
<polygon fill="midnightblue" stroke="midnightblue" points="317.54,-85.72 308,-81.13 312.6,-90.67 317.54,-85.72"/>
</g>
<!-- Node10 -->
<g id="node8" class="node">
<title>Node10</title>
<g id="a_node8"><a xlink:title=" ">
<polygon fill="white" stroke="#bfbfbf" points="345.87,-62 345.87,-81 414.87,-81 414.87,-62 345.87,-62"/>
<text text-anchor="middle" x="380.37" y="-69" font-family="Helvetica,sans-Serif" font-size="10.00">type_traits</text>
</a>
</g>
</g>
<!-- Node16&#45;&gt;Node10 -->
<g id="edge8" class="edge">
<title>Node16&#45;&gt;Node10</title>
<path fill="none" stroke="midnightblue" d="M366.53,-128.73C368.9,-119.09 372.79,-103.3 375.84,-90.91"/>
<polygon fill="midnightblue" stroke="midnightblue" points="379.26,-91.67 378.25,-81.13 372.46,-90 379.26,-91.67"/>
</g>
<!-- Node6 -->
<g id="node10" class="node">
<title>Node6</title>
<g id="a_node10"><a xlink:title=" ">
<polygon fill="white" stroke="#bfbfbf" points="435.37,-62 435.37,-81 477.37,-81 477.37,-62 435.37,-62"/>
<text text-anchor="middle" x="456.37" y="-69" font-family="Helvetica,sans-Serif" font-size="10.00">array</text>
</a>
</g>
</g>
<!-- Node18&#45;&gt;Node6 -->
<g id="edge10" class="edge">
<title>Node18&#45;&gt;Node6</title>
<path fill="none" stroke="midnightblue" d="M497.03,-128.73C489.77,-118.7 477.71,-102.01 468.61,-89.42"/>
<polygon fill="midnightblue" stroke="midnightblue" points="471.31,-87.18 462.61,-81.13 465.63,-91.28 471.31,-87.18"/>
</g>
<!-- Node19 -->
<g id="node11" class="node">
<title>Node19</title>
<g id="a_node11"><a xlink:title=" ">
<polygon fill="white" stroke="#bfbfbf" points="495.87,-62 495.87,-81 560.87,-81 560.87,-62 495.87,-62"/>
<text text-anchor="middle" x="528.37" y="-69" font-family="Helvetica,sans-Serif" font-size="10.00">functional</text>
</a>
</g>
</g>
<!-- Node18&#45;&gt;Node19 -->
<g id="edge11" class="edge">
<title>Node18&#45;&gt;Node19</title>
<path fill="none" stroke="midnightblue" d="M506.74,-128.73C510.49,-118.99 516.65,-102.98 521.44,-90.53"/>
<polygon fill="midnightblue" stroke="midnightblue" points="524.73,-91.72 525.05,-81.13 518.2,-89.2 524.73,-91.72"/>
</g>
<!-- Node21 -->
<g id="node13" class="node">
<title>Node21</title>
<g id="a_node13"><a xlink:href="numeric_8h.html" target="_top" xlink:title=" ">
<polygon fill="white" stroke="red" points="579.87,-56.5 579.87,-86.5 688.87,-86.5 688.87,-56.5 579.87,-56.5"/>
<text text-anchor="start" x="587.87" y="-74.5" font-family="Helvetica,sans-Serif" font-size="10.00">emlabcpp/iterators</text>
<text text-anchor="middle" x="634.37" y="-63.5" font-family="Helvetica,sans-Serif" font-size="10.00">/numeric.h</text>
</a>
</g>
</g>
<!-- Node20&#45;&gt;Node21 -->
<g id="edge13" class="edge">
<title>Node20&#45;&gt;Node21</title>
<path fill="none" stroke="midnightblue" d="M634.37,-128.73C634.37,-120.54 634.37,-107.92 634.37,-96.71"/>
<polygon fill="midnightblue" stroke="midnightblue" points="637.87,-96.59 634.37,-86.59 630.87,-96.59 637.87,-96.59"/>
</g>
<!-- Node23&#45;&gt;Node3 -->
<g id="edge16" class="edge">
<title>Node23&#45;&gt;Node3</title>
<path fill="none" stroke="midnightblue" d="M67.66,-128.73C70.19,-119.09 74.32,-103.3 77.56,-90.91"/>
<polygon fill="midnightblue" stroke="midnightblue" points="80.97,-91.69 80.12,-81.13 74.2,-89.92 80.97,-91.69"/>
</g>
</g>
</svg>
