<?xml version="1.0" encoding="UTF-8" standalone="no"?>
<!DOCTYPE svg PUBLIC "-//W3C//DTD SVG 1.1//EN"
 "http://www.w3.org/Graphics/SVG/1.1/DTD/svg11.dtd">
<!-- Generated by graphviz version 2.43.0 (0)
 -->
<!-- Title: include/emlabcpp/pmr/aliases.h Pages: 1 -->
<svg width="650pt" height="162pt"
 viewBox="0.00 0.00 650.00 162.00" xmlns="http://www.w3.org/2000/svg" xmlns:xlink="http://www.w3.org/1999/xlink">
<g id="graph0" class="graph" transform="scale(1 1) rotate(0) translate(4 158)">
<title>include/emlabcpp/pmr/aliases.h</title>
<polygon fill="white" stroke="transparent" points="-4,4 -4,-158 646,-158 646,4 -4,4"/>
<!-- Node1 -->
<g id="node1" class="node">
<title>Node1</title>
<g id="a_node1"><a xlink:title=" ">
<polygon fill="#bfbfbf" stroke="black" points="369,-123.5 369,-153.5 494,-153.5 494,-123.5 369,-123.5"/>
<text text-anchor="start" x="377" y="-141.5" font-family="Helvetica,sans-Serif" font-size="10.00">include/emlabcpp/pmr</text>
<text text-anchor="middle" x="431.5" y="-130.5" font-family="Helvetica,sans-Serif" font-size="10.00">/aliases.h</text>
</a>
</g>
</g>
<!-- Node2 -->
<g id="node2" class="node">
<title>Node2</title>
<g id="a_node2"><a xlink:href="allocator_8h.html" target="_top" xlink:title=" ">
<polygon fill="white" stroke="black" points="138,-67.5 138,-86.5 279,-86.5 279,-67.5 138,-67.5"/>
<text text-anchor="middle" x="208.5" y="-74.5" font-family="Helvetica,sans-Serif" font-size="10.00">emlabcpp/pmr/allocator.h</text>
</a>
</g>
</g>
<!-- Node1&#45;&gt;Node2 -->
<g id="edge1" class="edge">
<title>Node1&#45;&gt;Node2</title>
<path fill="none" stroke="midnightblue" d="M378.93,-123.47C339.62,-112.99 286.59,-98.84 250.18,-89.12"/>
<polygon fill="midnightblue" stroke="midnightblue" points="250.95,-85.7 240.38,-86.51 249.14,-92.47 250.95,-85.7"/>
</g>
<!-- Node34 -->
<g id="node6" class="node">
<title>Node34</title>
<g id="a_node6"><a xlink:title=" ">
<polygon fill="white" stroke="#bfbfbf" points="297,-67.5 297,-86.5 344,-86.5 344,-67.5 297,-67.5"/>
<text text-anchor="middle" x="320.5" y="-74.5" font-family="Helvetica,sans-Serif" font-size="10.00">deque</text>
</a>
</g>
</g>
<!-- Node1&#45;&gt;Node34 -->
<g id="edge5" class="edge">
<title>Node1&#45;&gt;Node34</title>
<path fill="none" stroke="midnightblue" d="M405.19,-123.4C387.24,-113.77 363.58,-101.09 345.83,-91.58"/>
<polygon fill="midnightblue" stroke="midnightblue" points="347.12,-88.3 336.65,-86.66 343.81,-94.47 347.12,-88.3"/>
</g>
<!-- Node35 -->
<g id="node7" class="node">
<title>Node35</title>
<g id="a_node7"><a xlink:title=" ">
<polygon fill="white" stroke="#bfbfbf" points="362.5,-67.5 362.5,-86.5 394.5,-86.5 394.5,-67.5 362.5,-67.5"/>
<text text-anchor="middle" x="378.5" y="-74.5" font-family="Helvetica,sans-Serif" font-size="10.00">list</text>
</a>
</g>
</g>
<!-- Node1&#45;&gt;Node35 -->
<g id="edge6" class="edge">
<title>Node1&#45;&gt;Node35</title>
<path fill="none" stroke="midnightblue" d="M418.94,-123.4C411.16,-114.66 401.14,-103.41 393.02,-94.3"/>
<polygon fill="midnightblue" stroke="midnightblue" points="395.48,-91.8 386.21,-86.66 390.25,-96.45 395.48,-91.8"/>
</g>
<!-- Node36 -->
<g id="node8" class="node">
<title>Node36</title>
<g id="a_node8"><a xlink:title=" ">
<polygon fill="white" stroke="#bfbfbf" points="412.5,-67.5 412.5,-86.5 450.5,-86.5 450.5,-67.5 412.5,-67.5"/>
<text text-anchor="middle" x="431.5" y="-74.5" font-family="Helvetica,sans-Serif" font-size="10.00">map</text>
</a>
</g>
</g>
<!-- Node1&#45;&gt;Node36 -->
<g id="edge7" class="edge">
<title>Node1&#45;&gt;Node36</title>
<path fill="none" stroke="midnightblue" d="M431.5,-123.4C431.5,-115.47 431.5,-105.46 431.5,-96.86"/>
<polygon fill="midnightblue" stroke="midnightblue" points="435,-96.66 431.5,-86.66 428,-96.66 435,-96.66"/>
</g>
<!-- Node37 -->
<g id="node9" class="node">
<title>Node37</title>
<g id="a_node9"><a xlink:title=" ">
<polygon fill="white" stroke="#bfbfbf" points="468.5,-67.5 468.5,-86.5 526.5,-86.5 526.5,-67.5 468.5,-67.5"/>
<text text-anchor="middle" x="497.5" y="-74.5" font-family="Helvetica,sans-Serif" font-size="10.00">memory</text>
</a>
</g>
</g>
<!-- Node1&#45;&gt;Node37 -->
<g id="edge8" class="edge">
<title>Node1&#45;&gt;Node37</title>
<path fill="none" stroke="midnightblue" d="M447.14,-123.4C457.13,-114.4 470.08,-102.72 480.35,-93.47"/>
<polygon fill="midnightblue" stroke="midnightblue" points="482.81,-95.95 487.9,-86.66 478.13,-90.75 482.81,-95.95"/>
</g>
<!-- Node38 -->
<g id="node10" class="node">
<title>Node38</title>
<g id="a_node10"><a xlink:title=" ">
<polygon fill="white" stroke="#bfbfbf" points="544.5,-67.5 544.5,-86.5 576.5,-86.5 576.5,-67.5 544.5,-67.5"/>
<text text-anchor="middle" x="560.5" y="-74.5" font-family="Helvetica,sans-Serif" font-size="10.00">set</text>
</a>
</g>
</g>
<!-- Node1&#45;&gt;Node38 -->
<g id="edge9" class="edge">
<title>Node1&#45;&gt;Node38</title>
<path fill="none" stroke="midnightblue" d="M462.07,-123.4C484.33,-113.13 514.11,-99.4 535.07,-89.73"/>
<polygon fill="midnightblue" stroke="midnightblue" points="536.68,-92.84 544.3,-85.47 533.75,-86.48 536.68,-92.84"/>
</g>
<!-- Node15 -->
<g id="node11" class="node">
<title>Node15</title>
<g id="a_node11"><a xlink:title=" ">
<polygon fill="white" stroke="#bfbfbf" points="595,-67.5 595,-86.5 642,-86.5 642,-67.5 595,-67.5"/>
<text text-anchor="middle" x="618.5" y="-74.5" font-family="Helvetica,sans-Serif" font-size="10.00">vector</text>
</a>
</g>
</g>
<!-- Node1&#45;&gt;Node15 -->
<g id="edge10" class="edge">
<title>Node1&#45;&gt;Node15</title>
<path fill="none" stroke="midnightblue" d="M475.82,-123.4C509.29,-112.75 554.53,-98.35 585.02,-88.65"/>
<polygon fill="midnightblue" stroke="midnightblue" points="586.29,-91.92 594.76,-85.56 584.17,-85.25 586.29,-91.92"/>
</g>
<!-- Node3 -->
<g id="node3" class="node">
<title>Node3</title>
<g id="a_node3"><a xlink:href="memory__resource_8h.html" target="_top" xlink:title=" ">
<polygon fill="white" stroke="red" points="0,-0.5 0,-30.5 131,-30.5 131,-0.5 0,-0.5"/>
<text text-anchor="start" x="8" y="-18.5" font-family="Helvetica,sans-Serif" font-size="10.00">emlabcpp/pmr/memory</text>
<text text-anchor="middle" x="65.5" y="-7.5" font-family="Helvetica,sans-Serif" font-size="10.00">_resource.h</text>
</a>
</g>
</g>
<!-- Node2&#45;&gt;Node3 -->
<g id="edge2" class="edge">
<title>Node2&#45;&gt;Node3</title>
<path fill="none" stroke="midnightblue" d="M188.01,-67.48C167.38,-58.89 134.92,-45.38 108.59,-34.43"/>
<polygon fill="midnightblue" stroke="midnightblue" points="109.78,-31.13 99.2,-30.52 107.09,-37.6 109.78,-31.13"/>
</g>
<!-- Node32 -->
<g id="node4" class="node">
<title>Node32</title>
<g id="a_node4"><a xlink:href="throw__bad__alloc_8h.html" target="_top" xlink:title=" ">
<polygon fill="white" stroke="red" points="149.5,-0.5 149.5,-30.5 267.5,-30.5 267.5,-0.5 149.5,-0.5"/>
<text text-anchor="start" x="157.5" y="-18.5" font-family="Helvetica,sans-Serif" font-size="10.00">emlabcpp/pmr/throw</text>
<text text-anchor="middle" x="208.5" y="-7.5" font-family="Helvetica,sans-Serif" font-size="10.00">_bad_alloc.h</text>
</a>
</g>
</g>
<!-- Node2&#45;&gt;Node32 -->
<g id="edge3" class="edge">
<title>Node2&#45;&gt;Node32</title>
<path fill="none" stroke="midnightblue" d="M208.5,-67.48C208.5,-60.47 208.5,-50.19 208.5,-40.7"/>
<polygon fill="midnightblue" stroke="midnightblue" points="212,-40.52 208.5,-30.52 205,-40.52 212,-40.52"/>
</g>
<!-- Node23 -->
<g id="node5" class="node">
<title>Node23</title>
<g id="a_node5"><a xlink:title=" ">
<polygon fill="white" stroke="#bfbfbf" points="286,-6 286,-25 351,-25 351,-6 286,-6"/>
<text text-anchor="middle" x="318.5" y="-13" font-family="Helvetica,sans-Serif" font-size="10.00">functional</text>
</a>
</g>
</g>
<!-- Node2&#45;&gt;Node23 -->
<g id="edge4" class="edge">
<title>Node2&#45;&gt;Node23</title>
<path fill="none" stroke="midnightblue" d="M224.26,-67.48C242.48,-57.62 272.67,-41.29 293.97,-29.77"/>
<polygon fill="midnightblue" stroke="midnightblue" points="295.64,-32.85 302.77,-25.01 292.31,-26.69 295.64,-32.85"/>
</g>
</g>
</svg>
