<?xml version="1.0" encoding="UTF-8" standalone="no"?>
<!DOCTYPE svg PUBLIC "-//W3C//DTD SVG 1.1//EN"
 "http://www.w3.org/Graphics/SVG/1.1/DTD/svg11.dtd">
<!-- Generated by graphviz version 2.43.0 (0)
 -->
<!-- Title: include/emlabcpp/assert.h Pages: 1 -->
<svg width="916pt" height="497pt"
 viewBox="0.00 0.00 915.50 497.00" xmlns="http://www.w3.org/2000/svg" xmlns:xlink="http://www.w3.org/1999/xlink">
<g id="graph0" class="graph" transform="scale(1 1) rotate(0) translate(4 493)">
<title>include/emlabcpp/assert.h</title>
<polygon fill="white" stroke="transparent" points="-4,4 -4,-493 911.5,-493 911.5,4 -4,4"/>
<!-- Node1 -->
<g id="node1" class="node">
<title>Node1</title>
<g id="a_node1"><a xlink:title=" ">
<polygon fill="#bfbfbf" stroke="black" points="406,-469.5 406,-488.5 551,-488.5 551,-469.5 406,-469.5"/>
<text text-anchor="middle" x="478.5" y="-476.5" font-family="Helvetica,sans-Serif" font-size="10.00">include/emlabcpp/assert.h</text>
</a>
</g>
</g>
<!-- Node2 -->
<g id="node2" class="node">
<title>Node2</title>
<g id="a_node2"><a xlink:href="pool_8h.html" target="_top" xlink:title=" ">
<polygon fill="white" stroke="black" points="0,-134.5 0,-164.5 149,-164.5 149,-134.5 0,-134.5"/>
<text text-anchor="start" x="8" y="-152.5" font-family="Helvetica,sans-Serif" font-size="10.00">include/emlabcpp/allocator</text>
<text text-anchor="middle" x="74.5" y="-141.5" font-family="Helvetica,sans-Serif" font-size="10.00">/pool.h</text>
</a>
</g>
</g>
<!-- Node1&#45;&gt;Node2 -->
<g id="edge1" class="edge">
<title>Node1&#45;&gt;Node2</title>
<path fill="none" stroke="midnightblue" d="M395.7,-468.17C280.95,-452.19 87.5,-415.73 87.5,-351.5 87.5,-351.5 87.5,-351.5 87.5,-282.5 87.5,-239.44 80.56,-188.85 76.82,-164.71"/>
<polygon fill="midnightblue" stroke="midnightblue" points="395.49,-471.67 405.87,-469.56 396.44,-464.74 395.49,-471.67"/>
</g>
<!-- Node5 -->
<g id="node5" class="node">
<title>Node5</title>
<g id="a_node5"><a xlink:href="reactor_8h.html" target="_top" xlink:title=" ">
<polygon fill="white" stroke="black" points="520,-67.5 520,-97.5 691,-97.5 691,-67.5 520,-67.5"/>
<text text-anchor="start" x="528" y="-85.5" font-family="Helvetica,sans-Serif" font-size="10.00">include/emlabcpp/experimental</text>
<text text-anchor="middle" x="605.5" y="-74.5" font-family="Helvetica,sans-Serif" font-size="10.00">/testing/reactor.h</text>
</a>
</g>
</g>
<!-- Node1&#45;&gt;Node5 -->
<g id="edge5" class="edge">
<title>Node1&#45;&gt;Node5</title>
<path fill="none" stroke="midnightblue" d="M561.56,-470.52C686.28,-456.97 907.5,-422.87 907.5,-351.5 907.5,-351.5 907.5,-351.5 907.5,-215.5 907.5,-120.51 780.52,-93.21 691.23,-85.75"/>
<polygon fill="midnightblue" stroke="midnightblue" points="560.85,-467.08 551.27,-471.62 561.59,-474.04 560.85,-467.08"/>
</g>
<!-- Node6 -->
<g id="node6" class="node">
<title>Node6</title>
<g id="a_node6"><a xlink:href="command__group_8h.html" target="_top" xlink:title=" ">
<polygon fill="white" stroke="black" points="238.5,-402.5 238.5,-432.5 384.5,-432.5 384.5,-402.5 238.5,-402.5"/>
<text text-anchor="start" x="246.5" y="-420.5" font-family="Helvetica,sans-Serif" font-size="10.00">include/emlabcpp/protocol</text>
<text text-anchor="middle" x="311.5" y="-409.5" font-family="Helvetica,sans-Serif" font-size="10.00">/command_group.h</text>
</a>
</g>
</g>
<!-- Node1&#45;&gt;Node6 -->
<g id="edge6" class="edge">
<title>Node1&#45;&gt;Node6</title>
<path fill="none" stroke="midnightblue" d="M445.11,-466.1C417.94,-456.42 379.53,-442.74 350.86,-432.52"/>
<polygon fill="midnightblue" stroke="midnightblue" points="443.98,-469.42 454.57,-469.48 446.33,-462.82 443.98,-469.42"/>
</g>
<!-- Node14 -->
<g id="node14" class="node">
<title>Node14</title>
<g id="a_node14"><a xlink:href="def_8h.html" target="_top" xlink:title=" ">
<polygon fill="white" stroke="black" points="569.5,-402.5 569.5,-432.5 715.5,-432.5 715.5,-402.5 569.5,-402.5"/>
<text text-anchor="start" x="577.5" y="-420.5" font-family="Helvetica,sans-Serif" font-size="10.00">include/emlabcpp/protocol</text>
<text text-anchor="middle" x="642.5" y="-409.5" font-family="Helvetica,sans-Serif" font-size="10.00">/def.h</text>
</a>
</g>
</g>
<!-- Node1&#45;&gt;Node14 -->
<g id="edge19" class="edge">
<title>Node1&#45;&gt;Node14</title>
<path fill="none" stroke="midnightblue" d="M511.64,-465.98C538.31,-456.3 575.82,-442.69 603.85,-432.52"/>
<polygon fill="midnightblue" stroke="midnightblue" points="510.2,-462.77 502,-469.48 512.59,-469.35 510.2,-462.77"/>
</g>
<!-- Node18 -->
<g id="node18" class="node">
<title>Node18</title>
<g id="a_node18"><a xlink:href="sequencer_8h.html" target="_top" xlink:title=" ">
<polygon fill="white" stroke="black" points="405.5,-402.5 405.5,-432.5 551.5,-432.5 551.5,-402.5 405.5,-402.5"/>
<text text-anchor="start" x="413.5" y="-420.5" font-family="Helvetica,sans-Serif" font-size="10.00">include/emlabcpp/protocol</text>
<text text-anchor="middle" x="478.5" y="-409.5" font-family="Helvetica,sans-Serif" font-size="10.00">/sequencer.h</text>
</a>
</g>
</g>
<!-- Node1&#45;&gt;Node18 -->
<g id="edge25" class="edge">
<title>Node1&#45;&gt;Node18</title>
<path fill="none" stroke="midnightblue" d="M478.5,-459.23C478.5,-450.59 478.5,-440.5 478.5,-432.52"/>
<polygon fill="midnightblue" stroke="midnightblue" points="475,-459.48 478.5,-469.48 482,-459.48 475,-459.48"/>
</g>
<!-- Node3 -->
<g id="node3" class="node">
<title>Node3</title>
<g id="a_node3"><a xlink:href="controller_8h.html" target="_top" xlink:title=" ">
<polygon fill="white" stroke="black" points="78,-67.5 78,-97.5 249,-97.5 249,-67.5 78,-67.5"/>
<text text-anchor="start" x="86" y="-85.5" font-family="Helvetica,sans-Serif" font-size="10.00">include/emlabcpp/experimental</text>
<text text-anchor="middle" x="163.5" y="-74.5" font-family="Helvetica,sans-Serif" font-size="10.00">/testing/controller.h</text>
</a>
</g>
</g>
<!-- Node2&#45;&gt;Node3 -->
<g id="edge2" class="edge">
<title>Node2&#45;&gt;Node3</title>
<path fill="none" stroke="midnightblue" d="M101.95,-128.45C115.64,-118.45 131.87,-106.6 144.23,-97.58"/>
<polygon fill="midnightblue" stroke="midnightblue" points="99.82,-125.67 93.81,-134.4 103.95,-131.32 99.82,-125.67"/>
</g>
<!-- Node2&#45;&gt;Node5 -->
<g id="edge4" class="edge">
<title>Node2&#45;&gt;Node5</title>
<path fill="none" stroke="midnightblue" d="M159.36,-133.78C290.6,-115.17 431.82,-100.27 519.84,-91.6"/>
<polygon fill="midnightblue" stroke="midnightblue" points="158.53,-130.36 149.12,-135.24 159.52,-137.29 158.53,-130.36"/>
</g>
<!-- Node4 -->
<g id="node4" class="node">
<title>Node4</title>
<g id="a_node4"><a xlink:href="gtest_8h.html" target="_top" xlink:title=" ">
<polygon fill="white" stroke="black" points="78,-0.5 78,-30.5 249,-30.5 249,-0.5 78,-0.5"/>
<text text-anchor="start" x="86" y="-18.5" font-family="Helvetica,sans-Serif" font-size="10.00">include/emlabcpp/experimental</text>
<text text-anchor="middle" x="163.5" y="-7.5" font-family="Helvetica,sans-Serif" font-size="10.00">/testing/gtest.h</text>
</a>
</g>
</g>
<!-- Node3&#45;&gt;Node4 -->
<g id="edge3" class="edge">
<title>Node3&#45;&gt;Node4</title>
<path fill="none" stroke="midnightblue" d="M163.5,-57.11C163.5,-48.15 163.5,-38.32 163.5,-30.58"/>
<polygon fill="midnightblue" stroke="midnightblue" points="160,-57.4 163.5,-67.4 167,-57.4 160,-57.4"/>
</g>
<!-- Node7 -->
<g id="node7" class="node">
<title>Node7</title>
<g id="a_node7"><a xlink:href="protocol_8h.html" target="_top" xlink:title=" ">
<polygon fill="white" stroke="black" points="232,-341 232,-360 387,-360 387,-341 232,-341"/>
<text text-anchor="middle" x="309.5" y="-348" font-family="Helvetica,sans-Serif" font-size="10.00">include/emlabcpp/protocol.h</text>
</a>
</g>
</g>
<!-- Node6&#45;&gt;Node7 -->
<g id="edge7" class="edge">
<title>Node6&#45;&gt;Node7</title>
<path fill="none" stroke="midnightblue" d="M310.75,-392.25C310.41,-381.02 310.02,-368.38 309.77,-360.19"/>
<polygon fill="midnightblue" stroke="midnightblue" points="307.26,-392.51 311.07,-402.4 314.26,-392.29 307.26,-392.51"/>
</g>
<!-- Node8 -->
<g id="node8" class="node">
<title>Node8</title>
<g id="a_node8"><a xlink:href="experimental_2testing_2protocol_8h.html" target="_top" xlink:title=" ">
<polygon fill="white" stroke="black" points="349,-268.5 349,-298.5 520,-298.5 520,-268.5 349,-268.5"/>
<text text-anchor="start" x="357" y="-286.5" font-family="Helvetica,sans-Serif" font-size="10.00">include/emlabcpp/experimental</text>
<text text-anchor="middle" x="434.5" y="-275.5" font-family="Helvetica,sans-Serif" font-size="10.00">/testing/protocol.h</text>
</a>
</g>
</g>
<!-- Node7&#45;&gt;Node8 -->
<g id="edge8" class="edge">
<title>Node7&#45;&gt;Node8</title>
<path fill="none" stroke="midnightblue" d="M335.09,-336.19C356.11,-325.26 385.83,-309.81 407.29,-298.65"/>
<polygon fill="midnightblue" stroke="midnightblue" points="333.36,-333.15 326.1,-340.87 336.59,-339.36 333.36,-333.15"/>
</g>
<!-- Node8&#45;&gt;Node5 -->
<g id="edge13" class="edge">
<title>Node8&#45;&gt;Node5</title>
<path fill="none" stroke="midnightblue" d="M484.53,-264.07C500.57,-256.19 517.31,-245.61 529.5,-232 560.78,-197.08 545.8,-175.01 568.5,-134 575.66,-121.07 585.65,-107.62 593.45,-97.86"/>
<polygon fill="midnightblue" stroke="midnightblue" points="482.81,-261.01 475.21,-268.4 485.76,-267.36 482.81,-261.01"/>
</g>
<!-- Node9 -->
<g id="node9" class="node">
<title>Node9</title>
<g id="a_node9"><a xlink:href="controller__interface_8h.html" target="_top" xlink:title=" ">
<polygon fill="white" stroke="black" points="167,-134.5 167,-164.5 338,-164.5 338,-134.5 167,-134.5"/>
<text text-anchor="start" x="175" y="-152.5" font-family="Helvetica,sans-Serif" font-size="10.00">include/emlabcpp/experimental</text>
<text text-anchor="middle" x="252.5" y="-141.5" font-family="Helvetica,sans-Serif" font-size="10.00">/testing/controller_interface.h</text>
</a>
</g>
</g>
<!-- Node8&#45;&gt;Node9 -->
<g id="edge9" class="edge">
<title>Node8&#45;&gt;Node9</title>
<path fill="none" stroke="midnightblue" d="M338.62,-278.32C265.84,-272.89 174.34,-260.46 150.5,-232 127.21,-204.2 172.87,-179.31 210.4,-164.56"/>
<polygon fill="midnightblue" stroke="midnightblue" points="338.54,-281.82 348.76,-279.04 339.03,-274.84 338.54,-281.82"/>
</g>
<!-- Node10 -->
<g id="node10" class="node">
<title>Node10</title>
<g id="a_node10"><a xlink:href="experimental_2testing_2error_8h.html" target="_top" xlink:title=" ">
<polygon fill="white" stroke="black" points="160,-201.5 160,-231.5 331,-231.5 331,-201.5 160,-201.5"/>
<text text-anchor="start" x="168" y="-219.5" font-family="Helvetica,sans-Serif" font-size="10.00">include/emlabcpp/experimental</text>
<text text-anchor="middle" x="245.5" y="-208.5" font-family="Helvetica,sans-Serif" font-size="10.00">/testing/error.h</text>
</a>
</g>
</g>
<!-- Node8&#45;&gt;Node10 -->
<g id="edge11" class="edge">
<title>Node8&#45;&gt;Node10</title>
<path fill="none" stroke="midnightblue" d="M383.88,-265.09C353.37,-254.6 315.02,-241.41 286.43,-231.58"/>
<polygon fill="midnightblue" stroke="midnightblue" points="382.9,-268.45 393.49,-268.4 385.17,-261.83 382.9,-268.45"/>
</g>
<!-- Node11 -->
<g id="node11" class="node">
<title>Node11</title>
<g id="a_node11"><a xlink:href="reactor__interface_8h.html" target="_top" xlink:title=" ">
<polygon fill="white" stroke="black" points="349,-201.5 349,-231.5 520,-231.5 520,-201.5 349,-201.5"/>
<text text-anchor="start" x="357" y="-219.5" font-family="Helvetica,sans-Serif" font-size="10.00">include/emlabcpp/experimental</text>
<text text-anchor="middle" x="434.5" y="-208.5" font-family="Helvetica,sans-Serif" font-size="10.00">/testing/reactor_interface.h</text>
</a>
</g>
</g>
<!-- Node8&#45;&gt;Node11 -->
<g id="edge14" class="edge">
<title>Node8&#45;&gt;Node11</title>
<path fill="none" stroke="midnightblue" d="M434.5,-258.11C434.5,-249.15 434.5,-239.32 434.5,-231.58"/>
<polygon fill="midnightblue" stroke="midnightblue" points="431,-258.4 434.5,-268.4 438,-258.4 431,-258.4"/>
</g>
<!-- Node12 -->
<g id="node12" class="node">
<title>Node12</title>
<g id="a_node12"><a xlink:href="record_8h.html" target="_top" xlink:title=" ">
<polygon fill="white" stroke="black" points="577,-201.5 577,-231.5 748,-231.5 748,-201.5 577,-201.5"/>
<text text-anchor="start" x="585" y="-219.5" font-family="Helvetica,sans-Serif" font-size="10.00">include/emlabcpp/experimental</text>
<text text-anchor="middle" x="662.5" y="-208.5" font-family="Helvetica,sans-Serif" font-size="10.00">/testing/record.h</text>
</a>
</g>
</g>
<!-- Node8&#45;&gt;Node12 -->
<g id="edge16" class="edge">
<title>Node8&#45;&gt;Node12</title>
<path fill="none" stroke="midnightblue" d="M493.38,-265.71C530.48,-255.14 577.84,-241.63 613,-231.61"/>
<polygon fill="midnightblue" stroke="midnightblue" points="492.35,-262.37 483.69,-268.48 494.27,-269.1 492.35,-262.37"/>
</g>
<!-- Node9&#45;&gt;Node3 -->
<g id="edge10" class="edge">
<title>Node9&#45;&gt;Node3</title>
<path fill="none" stroke="midnightblue" d="M225.05,-128.45C211.36,-118.45 195.13,-106.6 182.77,-97.58"/>
<polygon fill="midnightblue" stroke="midnightblue" points="223.05,-131.32 233.19,-134.4 227.18,-125.67 223.05,-131.32"/>
</g>
<!-- Node10&#45;&gt;Node9 -->
<g id="edge12" class="edge">
<title>Node10&#45;&gt;Node9</title>
<path fill="none" stroke="midnightblue" d="M248.1,-191.4C249.07,-182.37 250.14,-172.41 250.98,-164.58"/>
<polygon fill="midnightblue" stroke="midnightblue" points="244.61,-191.08 247.02,-201.4 251.57,-191.83 244.61,-191.08"/>
</g>
<!-- Node11&#45;&gt;Node5 -->
<g id="edge15" class="edge">
<title>Node11&#45;&gt;Node5</title>
<path fill="none" stroke="midnightblue" d="M458.94,-194.83C478.97,-178.08 508.19,-154.04 534.5,-134 551.22,-121.26 570.72,-107.47 585.05,-97.52"/>
<polygon fill="midnightblue" stroke="midnightblue" points="456.63,-192.2 451.22,-201.31 461.13,-197.57 456.63,-192.2"/>
</g>
<!-- Node13 -->
<g id="node13" class="node">
<title>Node13</title>
<g id="a_node13"><a xlink:href="interface_8h.html" target="_top" xlink:title=" ">
<polygon fill="white" stroke="black" points="577,-134.5 577,-164.5 748,-164.5 748,-134.5 577,-134.5"/>
<text text-anchor="start" x="585" y="-152.5" font-family="Helvetica,sans-Serif" font-size="10.00">include/emlabcpp/experimental</text>
<text text-anchor="middle" x="662.5" y="-141.5" font-family="Helvetica,sans-Serif" font-size="10.00">/testing/interface.h</text>
</a>
</g>
</g>
<!-- Node12&#45;&gt;Node13 -->
<g id="edge17" class="edge">
<title>Node12&#45;&gt;Node13</title>
<path fill="none" stroke="midnightblue" d="M662.5,-191.11C662.5,-182.15 662.5,-172.32 662.5,-164.58"/>
<polygon fill="midnightblue" stroke="midnightblue" points="659,-191.4 662.5,-201.4 666,-191.4 659,-191.4"/>
</g>
<!-- Node13&#45;&gt;Node5 -->
<g id="edge18" class="edge">
<title>Node13&#45;&gt;Node5</title>
<path fill="none" stroke="midnightblue" d="M643.41,-126.74C634.98,-117.12 625.31,-106.09 617.84,-97.58"/>
<polygon fill="midnightblue" stroke="midnightblue" points="640.91,-129.18 650.13,-134.4 646.17,-124.57 640.91,-129.18"/>
</g>
<!-- Node15 -->
<g id="node15" class="node">
<title>Node15</title>
<g id="a_node15"><a xlink:href="handler_8h.html" target="_top" xlink:title=" ">
<polygon fill="white" stroke="black" points="569.5,-335.5 569.5,-365.5 715.5,-365.5 715.5,-335.5 569.5,-335.5"/>
<text text-anchor="start" x="577.5" y="-353.5" font-family="Helvetica,sans-Serif" font-size="10.00">include/emlabcpp/protocol</text>
<text text-anchor="middle" x="642.5" y="-342.5" font-family="Helvetica,sans-Serif" font-size="10.00">/handler.h</text>
</a>
</g>
</g>
<!-- Node14&#45;&gt;Node15 -->
<g id="edge20" class="edge">
<title>Node14&#45;&gt;Node15</title>
<path fill="none" stroke="midnightblue" d="M642.5,-392.11C642.5,-383.15 642.5,-373.32 642.5,-365.58"/>
<polygon fill="midnightblue" stroke="midnightblue" points="639,-392.4 642.5,-402.4 646,-392.4 639,-392.4"/>
</g>
<!-- Node17 -->
<g id="node17" class="node">
<title>Node17</title>
<g id="a_node17"><a xlink:href="register__handler_8h.html" target="_top" xlink:title=" ">
<polygon fill="white" stroke="black" points="733.5,-335.5 733.5,-365.5 879.5,-365.5 879.5,-335.5 733.5,-335.5"/>
<text text-anchor="start" x="741.5" y="-353.5" font-family="Helvetica,sans-Serif" font-size="10.00">include/emlabcpp/protocol</text>
<text text-anchor="middle" x="806.5" y="-342.5" font-family="Helvetica,sans-Serif" font-size="10.00">/register_handler.h</text>
</a>
</g>
</g>
<!-- Node14&#45;&gt;Node17 -->
<g id="edge24" class="edge">
<title>Node14&#45;&gt;Node17</title>
<path fill="none" stroke="midnightblue" d="M687.46,-398.68C713.76,-388.26 746.5,-375.28 770.98,-365.58"/>
<polygon fill="midnightblue" stroke="midnightblue" points="686.09,-395.46 678.09,-402.4 688.67,-401.97 686.09,-395.46"/>
</g>
<!-- Node16 -->
<g id="node16" class="node">
<title>Node16</title>
<g id="a_node16"><a xlink:href="packet__handler_8h.html" target="_top" xlink:title=" ">
<polygon fill="white" stroke="black" points="658.5,-268.5 658.5,-298.5 804.5,-298.5 804.5,-268.5 658.5,-268.5"/>
<text text-anchor="start" x="666.5" y="-286.5" font-family="Helvetica,sans-Serif" font-size="10.00">include/emlabcpp/protocol</text>
<text text-anchor="middle" x="731.5" y="-275.5" font-family="Helvetica,sans-Serif" font-size="10.00">/packet_handler.h</text>
</a>
</g>
</g>
<!-- Node15&#45;&gt;Node16 -->
<g id="edge21" class="edge">
<title>Node15&#45;&gt;Node16</title>
<path fill="none" stroke="midnightblue" d="M669.95,-329.45C683.64,-319.45 699.87,-307.6 712.23,-298.58"/>
<polygon fill="midnightblue" stroke="midnightblue" points="667.82,-326.67 661.81,-335.4 671.95,-332.32 667.82,-326.67"/>
</g>
<!-- Node16&#45;&gt;Node5 -->
<g id="edge23" class="edge">
<title>Node16&#45;&gt;Node5</title>
<path fill="none" stroke="midnightblue" d="M754.96,-261.05C762.36,-252.78 769.62,-242.73 773.5,-232 788.5,-190.5 787.33,-166.52 757.5,-134 740.11,-115.04 715.45,-103.19 691.03,-95.79"/>
<polygon fill="midnightblue" stroke="midnightblue" points="752.31,-258.76 747.91,-268.4 757.36,-263.6 752.31,-258.76"/>
</g>
<!-- Node16&#45;&gt;Node13 -->
<g id="edge22" class="edge">
<title>Node16&#45;&gt;Node13</title>
<path fill="none" stroke="midnightblue" d="M748.52,-259.68C758.99,-242.64 768.47,-219.26 757.5,-201 747.3,-184.03 729.26,-172.45 711.62,-164.72"/>
<polygon fill="midnightblue" stroke="midnightblue" points="745.34,-258.14 742.73,-268.41 751.18,-262.01 745.34,-258.14"/>
</g>
<!-- Node19 -->
<g id="node19" class="node">
<title>Node19</title>
<g id="a_node19"><a xlink:href="packet_8h.html" target="_top" xlink:title=" ">
<polygon fill="white" stroke="black" points="405.5,-335.5 405.5,-365.5 551.5,-365.5 551.5,-335.5 405.5,-335.5"/>
<text text-anchor="start" x="413.5" y="-353.5" font-family="Helvetica,sans-Serif" font-size="10.00">include/emlabcpp/protocol</text>
<text text-anchor="middle" x="478.5" y="-342.5" font-family="Helvetica,sans-Serif" font-size="10.00">/packet.h</text>
</a>
</g>
</g>
<!-- Node18&#45;&gt;Node19 -->
<g id="edge26" class="edge">
<title>Node18&#45;&gt;Node19</title>
<path fill="none" stroke="midnightblue" d="M478.5,-392.11C478.5,-383.15 478.5,-373.32 478.5,-365.58"/>
<polygon fill="midnightblue" stroke="midnightblue" points="475,-392.4 478.5,-402.4 482,-392.4 475,-392.4"/>
</g>
<!-- Node19&#45;&gt;Node8 -->
<g id="edge27" class="edge">
<title>Node19&#45;&gt;Node8</title>
<path fill="none" stroke="midnightblue" d="M463.18,-326.87C456.81,-317.46 449.62,-306.83 444.03,-298.58"/>
<polygon fill="midnightblue" stroke="midnightblue" points="460.45,-329.08 468.95,-335.4 466.25,-325.15 460.45,-329.08"/>
</g>
<!-- Node19&#45;&gt;Node16 -->
<g id="edge28" class="edge">
<title>Node19&#45;&gt;Node16</title>
<path fill="none" stroke="midnightblue" d="M542.78,-332.98C584.11,-322.37 637.23,-308.72 676.58,-298.61"/>
<polygon fill="midnightblue" stroke="midnightblue" points="541.9,-329.6 533.09,-335.48 543.64,-336.38 541.9,-329.6"/>
</g>
</g>
</svg>
