<?xml version="1.0" encoding="UTF-8" standalone="no"?>
<!DOCTYPE svg PUBLIC "-//W3C//DTD SVG 1.1//EN"
 "http://www.w3.org/Graphics/SVG/1.1/DTD/svg11.dtd">
<!-- Generated by graphviz version 2.43.0 (0)
 -->
<!-- Title: include/emlabcpp/experimental/bounded_view.h Pages: 1 -->
<svg width="484pt" height="218pt"
 viewBox="0.00 0.00 483.58 218.00" xmlns="http://www.w3.org/2000/svg" xmlns:xlink="http://www.w3.org/1999/xlink">
<g id="graph0" class="graph" transform="scale(1 1) rotate(0) translate(4 214)">
<title>include/emlabcpp/experimental/bounded_view.h</title>
<polygon fill="white" stroke="transparent" points="-4,4 -4,-214 479.58,-214 479.58,4 -4,4"/>
<!-- Node1 -->
<g id="node1" class="node">
<title>Node1</title>
<g id="a_node1"><a xlink:title=" ">
<polygon fill="#bfbfbf" stroke="black" points="10.08,-179.5 10.08,-209.5 181.08,-209.5 181.08,-179.5 10.08,-179.5"/>
<text text-anchor="start" x="18.08" y="-197.5" font-family="Helvetica,sans-Serif" font-size="10.00">include/emlabcpp/experimental</text>
<text text-anchor="middle" x="95.58" y="-186.5" font-family="Helvetica,sans-Serif" font-size="10.00">/bounded_view.h</text>
</a>
</g>
</g>
<!-- Node2 -->
<g id="node2" class="node">
<title>Node2</title>
<g id="a_node2"><a xlink:href="bounded_8h.html" target="_top" xlink:title=" ">
<polygon fill="white" stroke="black" points="202.08,-123.5 202.08,-142.5 321.08,-142.5 321.08,-123.5 202.08,-123.5"/>
<text text-anchor="middle" x="261.58" y="-130.5" font-family="Helvetica,sans-Serif" font-size="10.00">emlabcpp/bounded.h</text>
</a>
</g>
</g>
<!-- Node1&#45;&gt;Node2 -->
<g id="edge1" class="edge">
<title>Node1&#45;&gt;Node2</title>
<path fill="none" stroke="midnightblue" d="M134.92,-179.4C163.14,-169.28 200.78,-155.79 227.68,-146.15"/>
<polygon fill="midnightblue" stroke="midnightblue" points="229.19,-149.33 237.42,-142.66 226.83,-142.74 229.19,-149.33"/>
</g>
<!-- Node24 -->
<g id="node6" class="node">
<title>Node24</title>
<g id="a_node6"><a xlink:href="view_8h.html" target="_top" xlink:title=" ">
<polygon fill="white" stroke="red" points="49.08,-0.5 49.08,-19.5 148.08,-19.5 148.08,-0.5 49.08,-0.5"/>
<text text-anchor="middle" x="98.58" y="-7.5" font-family="Helvetica,sans-Serif" font-size="10.00">emlabcpp/view.h</text>
</a>
</g>
</g>
<!-- Node1&#45;&gt;Node24 -->
<g id="edge10" class="edge">
<title>Node1&#45;&gt;Node24</title>
<path fill="none" stroke="midnightblue" d="M74.57,-179.33C40.42,-154.48 -20.61,-101.38 7.58,-56 17.29,-40.36 34.24,-29.98 50.89,-23.19"/>
<polygon fill="midnightblue" stroke="midnightblue" points="52.45,-26.35 60.61,-19.59 50.02,-19.78 52.45,-26.35"/>
</g>
<!-- Node3 -->
<g id="node3" class="node">
<title>Node3</title>
<g id="a_node3"><a xlink:href="concepts_8h.html" target="_top" xlink:title=" ">
<polygon fill="white" stroke="red" points="268.58,-0.5 268.58,-19.5 388.58,-19.5 388.58,-0.5 268.58,-0.5"/>
<text text-anchor="middle" x="328.58" y="-7.5" font-family="Helvetica,sans-Serif" font-size="10.00">emlabcpp/concepts.h</text>
</a>
</g>
</g>
<!-- Node2&#45;&gt;Node3 -->
<g id="edge2" class="edge">
<title>Node2&#45;&gt;Node3</title>
<path fill="none" stroke="midnightblue" d="M321.15,-127.88C349.12,-122.59 380.1,-111.19 397.58,-87 405.64,-75.83 404.14,-68.11 397.58,-56 389.83,-41.7 375.34,-31.22 361.64,-23.99"/>
<polygon fill="midnightblue" stroke="midnightblue" points="362.89,-20.71 352.36,-19.5 359.84,-27.01 362.89,-20.71"/>
</g>
<!-- Node14 -->
<g id="node4" class="node">
<title>Node14</title>
<g id="a_node4"><a xlink:href="logging_8h.html" target="_top" xlink:title=" ">
<polygon fill="white" stroke="red" points="17.08,-56.5 17.08,-86.5 150.08,-86.5 150.08,-56.5 17.08,-56.5"/>
<text text-anchor="start" x="25.08" y="-74.5" font-family="Helvetica,sans-Serif" font-size="10.00">emlabcpp/experimental</text>
<text text-anchor="middle" x="83.58" y="-63.5" font-family="Helvetica,sans-Serif" font-size="10.00">/logging.h</text>
</a>
</g>
</g>
<!-- Node2&#45;&gt;Node14 -->
<g id="edge3" class="edge">
<title>Node2&#45;&gt;Node14</title>
<path fill="none" stroke="midnightblue" d="M236.07,-123.48C209.83,-114.7 168.2,-100.79 135.07,-89.71"/>
<polygon fill="midnightblue" stroke="midnightblue" points="136.12,-86.37 125.53,-86.52 133.9,-93.01 136.12,-86.37"/>
</g>
<!-- Node16 -->
<g id="node5" class="node">
<title>Node16</title>
<g id="a_node5"><a xlink:href="pretty__printer_8h.html" target="_top" xlink:title=" ">
<polygon fill="white" stroke="red" points="255.08,-56.5 255.08,-86.5 388.08,-86.5 388.08,-56.5 255.08,-56.5"/>
<text text-anchor="start" x="263.08" y="-74.5" font-family="Helvetica,sans-Serif" font-size="10.00">emlabcpp/experimental</text>
<text text-anchor="middle" x="321.58" y="-63.5" font-family="Helvetica,sans-Serif" font-size="10.00">/pretty_printer.h</text>
</a>
</g>
</g>
<!-- Node2&#45;&gt;Node16 -->
<g id="edge4" class="edge">
<title>Node2&#45;&gt;Node16</title>
<path fill="none" stroke="midnightblue" d="M270.17,-123.48C278,-115.72 289.87,-103.94 300.23,-93.66"/>
<polygon fill="midnightblue" stroke="midnightblue" points="302.8,-96.05 307.44,-86.52 297.87,-91.08 302.8,-96.05"/>
</g>
<!-- Node33 -->
<g id="node7" class="node">
<title>Node33</title>
<g id="a_node7"><a xlink:title=" ">
<polygon fill="white" stroke="#bfbfbf" points="419.58,-0.5 419.58,-19.5 475.58,-19.5 475.58,-0.5 419.58,-0.5"/>
<text text-anchor="middle" x="447.58" y="-7.5" font-family="Helvetica,sans-Serif" font-size="10.00">optional</text>
</a>
</g>
</g>
<!-- Node2&#45;&gt;Node33 -->
<g id="edge8" class="edge">
<title>Node2&#45;&gt;Node33</title>
<path fill="none" stroke="midnightblue" d="M321.4,-126.24C352.02,-120.55 388.1,-109.29 413.58,-87 430.62,-72.08 439.54,-46.96 443.89,-29.71"/>
<polygon fill="midnightblue" stroke="midnightblue" points="447.36,-30.22 446.13,-19.69 440.53,-28.69 447.36,-30.22"/>
</g>
<!-- Node9 -->
<g id="node8" class="node">
<title>Node9</title>
<g id="a_node8"><a xlink:title=" ">
<polygon fill="white" stroke="#bfbfbf" points="168.08,-62 168.08,-81 237.08,-81 237.08,-62 168.08,-62"/>
<text text-anchor="middle" x="202.58" y="-69" font-family="Helvetica,sans-Serif" font-size="10.00">type_traits</text>
</a>
</g>
</g>
<!-- Node2&#45;&gt;Node9 -->
<g id="edge9" class="edge">
<title>Node2&#45;&gt;Node9</title>
<path fill="none" stroke="midnightblue" d="M253.12,-123.48C244.01,-114.28 229.31,-99.46 218.1,-88.16"/>
<polygon fill="midnightblue" stroke="midnightblue" points="220.54,-85.65 211.01,-81.01 215.57,-90.57 220.54,-85.65"/>
</g>
<!-- Node16&#45;&gt;Node3 -->
<g id="edge5" class="edge">
<title>Node16&#45;&gt;Node3</title>
<path fill="none" stroke="midnightblue" d="M323.24,-56.4C324.17,-48.47 325.35,-38.46 326.36,-29.86"/>
<polygon fill="midnightblue" stroke="midnightblue" points="329.87,-30 327.56,-19.66 322.91,-29.18 329.87,-30"/>
</g>
<!-- Node16&#45;&gt;Node24 -->
<g id="edge6" class="edge">
<title>Node16&#45;&gt;Node24</title>
<path fill="none" stroke="midnightblue" d="M269.01,-56.47C229.7,-45.99 176.67,-31.84 140.26,-22.12"/>
<polygon fill="midnightblue" stroke="midnightblue" points="141.02,-18.7 130.46,-19.51 139.22,-25.47 141.02,-18.7"/>
</g>
<!-- Node16&#45;&gt;Node33 -->
<g id="edge7" class="edge">
<title>Node16&#45;&gt;Node33</title>
<path fill="none" stroke="midnightblue" d="M351.44,-56.4C372.2,-46.59 399.68,-33.62 419.94,-24.05"/>
<polygon fill="midnightblue" stroke="midnightblue" points="421.69,-27.09 429.24,-19.66 418.71,-20.76 421.69,-27.09"/>
</g>
</g>
</svg>
