<?xml version="1.0" encoding="UTF-8" standalone="no"?>
<!DOCTYPE svg PUBLIC "-//W3C//DTD SVG 1.1//EN"
 "http://www.w3.org/Graphics/SVG/1.1/DTD/svg11.dtd">
<!-- Generated by graphviz version 2.43.0 (0)
 -->
<!-- Title: include/emlabcpp/bounded.h Pages: 1 -->
<svg width="1411pt" height="386pt"
 viewBox="0.00 0.00 1410.50 386.00" xmlns="http://www.w3.org/2000/svg" xmlns:xlink="http://www.w3.org/1999/xlink">
<g id="graph0" class="graph" transform="scale(1 1) rotate(0) translate(4 382)">
<title>include/emlabcpp/bounded.h</title>
<polygon fill="white" stroke="transparent" points="-4,4 -4,-382 1406.5,-382 1406.5,4 -4,4"/>
<!-- Node1 -->
<g id="node1" class="node">
<title>Node1</title>
<g id="a_node1"><a xlink:title=" ">
<polygon fill="#bfbfbf" stroke="black" points="715.5,-358.5 715.5,-377.5 872.5,-377.5 872.5,-358.5 715.5,-358.5"/>
<text text-anchor="middle" x="794" y="-365.5" font-family="Helvetica,sans-Serif" font-size="10.00">include/emlabcpp/bounded.h</text>
</a>
</g>
</g>
<!-- Node2 -->
<g id="node2" class="node">
<title>Node2</title>
<g id="a_node2"><a xlink:href="concepts_8h.html" target="_top" xlink:title=" ">
<polygon fill="white" stroke="black" points="313,-112.5 313,-131.5 433,-131.5 433,-112.5 313,-112.5"/>
<text text-anchor="middle" x="373" y="-119.5" font-family="Helvetica,sans-Serif" font-size="10.00">emlabcpp/concepts.h</text>
</a>
</g>
</g>
<!-- Node1&#45;&gt;Node2 -->
<g id="edge1" class="edge">
<title>Node1&#45;&gt;Node2</title>
<path fill="none" stroke="midnightblue" d="M715.47,-363.98C570.5,-356.59 269.81,-332.11 206,-255 193.34,-239.7 178.22,-208.61 212,-168 224.56,-152.89 268.88,-141.18 307.84,-133.49"/>
<polygon fill="midnightblue" stroke="midnightblue" points="308.96,-136.84 318.13,-131.53 307.65,-129.97 308.96,-136.84"/>
</g>
<!-- Node8 -->
<g id="node5" class="node">
<title>Node8</title>
<g id="a_node5"><a xlink:title=" ">
<polygon fill="white" stroke="#bfbfbf" points="45.5,-0.5 45.5,-19.5 114.5,-19.5 114.5,-0.5 45.5,-0.5"/>
<text text-anchor="middle" x="80" y="-7.5" font-family="Helvetica,sans-Serif" font-size="10.00">type_traits</text>
</a>
</g>
</g>
<!-- Node1&#45;&gt;Node8 -->
<g id="edge37" class="edge">
<title>Node1&#45;&gt;Node8</title>
<path fill="none" stroke="midnightblue" d="M715.33,-363.19C514.76,-352.44 0,-317.85 0,-246 0,-246 0,-246 0,-121 0,-80.62 35.69,-45.11 59.4,-25.97"/>
<polygon fill="midnightblue" stroke="midnightblue" points="61.74,-28.58 67.5,-19.69 57.45,-23.05 61.74,-28.58"/>
</g>
<!-- Node13 -->
<g id="node9" class="node">
<title>Node13</title>
<g id="a_node9"><a xlink:href="logging_8h.html" target="_top" xlink:title=" ">
<polygon fill="white" stroke="black" points="1232.5,-291.5 1232.5,-321.5 1365.5,-321.5 1365.5,-291.5 1232.5,-291.5"/>
<text text-anchor="start" x="1240.5" y="-309.5" font-family="Helvetica,sans-Serif" font-size="10.00">emlabcpp/experimental</text>
<text text-anchor="middle" x="1299" y="-298.5" font-family="Helvetica,sans-Serif" font-size="10.00">/logging.h</text>
</a>
</g>
</g>
<!-- Node1&#45;&gt;Node13 -->
<g id="edge8" class="edge">
<title>Node1&#45;&gt;Node13</title>
<path fill="none" stroke="midnightblue" d="M866.35,-358.48C960.92,-347.33 1125.82,-327.9 1222.42,-316.52"/>
<polygon fill="midnightblue" stroke="midnightblue" points="1222.89,-319.99 1232.42,-315.35 1222.08,-313.04 1222.89,-319.99"/>
</g>
<!-- Node15 -->
<g id="node11" class="node">
<title>Node15</title>
<g id="a_node11"><a xlink:href="pretty__printer_8h.html" target="_top" xlink:title=" ">
<polygon fill="white" stroke="black" points="727.5,-291.5 727.5,-321.5 860.5,-321.5 860.5,-291.5 727.5,-291.5"/>
<text text-anchor="start" x="735.5" y="-309.5" font-family="Helvetica,sans-Serif" font-size="10.00">emlabcpp/experimental</text>
<text text-anchor="middle" x="794" y="-298.5" font-family="Helvetica,sans-Serif" font-size="10.00">/pretty_printer.h</text>
</a>
</g>
</g>
<!-- Node1&#45;&gt;Node15 -->
<g id="edge10" class="edge">
<title>Node1&#45;&gt;Node15</title>
<path fill="none" stroke="midnightblue" d="M794,-358.48C794,-351.47 794,-341.19 794,-331.7"/>
<polygon fill="midnightblue" stroke="midnightblue" points="797.5,-331.52 794,-321.52 790.5,-331.52 797.5,-331.52"/>
</g>
<!-- Node32 -->
<g id="node24" class="node">
<title>Node32</title>
<g id="a_node24"><a xlink:title=" ">
<polygon fill="white" stroke="#bfbfbf" points="1255,-235.5 1255,-254.5 1311,-254.5 1311,-235.5 1255,-235.5"/>
<text text-anchor="middle" x="1283" y="-242.5" font-family="Helvetica,sans-Serif" font-size="10.00">optional</text>
</a>
</g>
</g>
<!-- Node1&#45;&gt;Node32 -->
<g id="edge36" class="edge">
<title>Node1&#45;&gt;Node32</title>
<path fill="none" stroke="midnightblue" d="M828.39,-358.49C917.02,-336.56 1152.77,-278.22 1245.13,-255.37"/>
<polygon fill="midnightblue" stroke="midnightblue" points="1246.03,-258.75 1254.9,-252.95 1244.35,-251.96 1246.03,-258.75"/>
</g>
<!-- Node3 -->
<g id="node3" class="node">
<title>Node3</title>
<g id="a_node3"><a xlink:href="types_2base_8h.html" target="_top" xlink:title=" ">
<polygon fill="white" stroke="red" points="207,-56.5 207,-75.5 337,-75.5 337,-56.5 207,-56.5"/>
<text text-anchor="middle" x="272" y="-63.5" font-family="Helvetica,sans-Serif" font-size="10.00">emlabcpp/types/base.h</text>
</a>
</g>
</g>
<!-- Node2&#45;&gt;Node3 -->
<g id="edge2" class="edge">
<title>Node2&#45;&gt;Node3</title>
<path fill="none" stroke="midnightblue" d="M356.77,-112.32C340.65,-103.7 315.7,-90.36 297.04,-80.39"/>
<polygon fill="midnightblue" stroke="midnightblue" points="298.66,-77.28 288.19,-75.65 295.36,-83.46 298.66,-77.28"/>
</g>
<!-- Node10 -->
<g id="node6" class="node">
<title>Node10</title>
<g id="a_node6"><a xlink:title=" ">
<polygon fill="white" stroke="#bfbfbf" points="355,-56.5 355,-75.5 415,-75.5 415,-56.5 355,-56.5"/>
<text text-anchor="middle" x="385" y="-63.5" font-family="Helvetica,sans-Serif" font-size="10.00">concepts</text>
</a>
</g>
</g>
<!-- Node2&#45;&gt;Node10 -->
<g id="edge5" class="edge">
<title>Node2&#45;&gt;Node10</title>
<path fill="none" stroke="midnightblue" d="M374.98,-112.08C376.57,-104.93 378.86,-94.64 380.85,-85.69"/>
<polygon fill="midnightblue" stroke="midnightblue" points="384.3,-86.27 383.06,-75.75 377.47,-84.75 384.3,-86.27"/>
</g>
<!-- Node11 -->
<g id="node7" class="node">
<title>Node11</title>
<g id="a_node7"><a xlink:title=" ">
<polygon fill="white" stroke="#bfbfbf" points="433.5,-56.5 433.5,-75.5 486.5,-75.5 486.5,-56.5 433.5,-56.5"/>
<text text-anchor="middle" x="460" y="-63.5" font-family="Helvetica,sans-Serif" font-size="10.00">iterator</text>
</a>
</g>
</g>
<!-- Node2&#45;&gt;Node11 -->
<g id="edge6" class="edge">
<title>Node2&#45;&gt;Node11</title>
<path fill="none" stroke="midnightblue" d="M386.98,-112.32C400.55,-103.9 421.38,-90.97 437.32,-81.07"/>
<polygon fill="midnightblue" stroke="midnightblue" points="439.41,-83.9 446.06,-75.65 435.71,-77.95 439.41,-83.9"/>
</g>
<!-- Node12 -->
<g id="node8" class="node">
<title>Node12</title>
<g id="a_node8"><a xlink:title=" ">
<polygon fill="white" stroke="#bfbfbf" points="136.5,-56.5 136.5,-75.5 187.5,-75.5 187.5,-56.5 136.5,-56.5"/>
<text text-anchor="middle" x="162" y="-63.5" font-family="Helvetica,sans-Serif" font-size="10.00">variant</text>
</a>
</g>
</g>
<!-- Node2&#45;&gt;Node12 -->
<g id="edge7" class="edge">
<title>Node2&#45;&gt;Node12</title>
<path fill="none" stroke="midnightblue" d="M339.57,-112.44C300.76,-102.51 237.04,-86.21 197.41,-76.06"/>
<polygon fill="midnightblue" stroke="midnightblue" points="198.2,-72.65 187.64,-73.56 196.46,-79.43 198.2,-72.65"/>
</g>
<!-- Node7 -->
<g id="node4" class="node">
<title>Node7</title>
<g id="a_node4"><a xlink:title=" ">
<polygon fill="white" stroke="#bfbfbf" points="1111.5,-0.5 1111.5,-19.5 1152.5,-19.5 1152.5,-0.5 1111.5,-0.5"/>
<text text-anchor="middle" x="1132" y="-7.5" font-family="Helvetica,sans-Serif" font-size="10.00">tuple</text>
</a>
</g>
</g>
<!-- Node3&#45;&gt;Node7 -->
<g id="edge3" class="edge">
<title>Node3&#45;&gt;Node7</title>
<path fill="none" stroke="midnightblue" d="M337.35,-56.82C340.27,-56.53 343.16,-56.25 346,-56 639.21,-29.8 995.4,-15.83 1101.06,-12.06"/>
<polygon fill="midnightblue" stroke="midnightblue" points="1101.45,-15.55 1111.32,-11.7 1101.2,-8.55 1101.45,-15.55"/>
</g>
<!-- Node3&#45;&gt;Node8 -->
<g id="edge4" class="edge">
<title>Node3&#45;&gt;Node8</title>
<path fill="none" stroke="midnightblue" d="M241.58,-56.44C208.72,-47.2 156.22,-32.44 120.03,-22.26"/>
<polygon fill="midnightblue" stroke="midnightblue" points="120.85,-18.85 110.28,-19.52 118.96,-25.59 120.85,-18.85"/>
</g>
<!-- Node14 -->
<g id="node10" class="node">
<title>Node14</title>
<g id="a_node10"><a xlink:title=" ">
<polygon fill="white" stroke="#bfbfbf" points="1329.5,-235.5 1329.5,-254.5 1402.5,-254.5 1402.5,-235.5 1329.5,-235.5"/>
<text text-anchor="middle" x="1366" y="-242.5" font-family="Helvetica,sans-Serif" font-size="10.00">string_view</text>
</a>
</g>
</g>
<!-- Node13&#45;&gt;Node14 -->
<g id="edge9" class="edge">
<title>Node13&#45;&gt;Node14</title>
<path fill="none" stroke="midnightblue" d="M1314.88,-291.4C1325.02,-282.4 1338.16,-270.72 1348.59,-261.47"/>
<polygon fill="midnightblue" stroke="midnightblue" points="1351.1,-263.92 1356.25,-254.66 1346.45,-258.68 1351.1,-263.92"/>
</g>
<!-- Node15&#45;&gt;Node2 -->
<g id="edge11" class="edge">
<title>Node15&#45;&gt;Node2</title>
<path fill="none" stroke="midnightblue" d="M860.78,-299.42C948.68,-290.73 1094.02,-273.73 1110,-255 1115.77,-248.24 1115.75,-241.78 1110,-235 1067.04,-184.35 619.06,-142.91 443.25,-128.48"/>
<polygon fill="midnightblue" stroke="midnightblue" points="443.33,-124.98 433.08,-127.65 442.76,-131.95 443.33,-124.98"/>
</g>
<!-- Node15&#45;&gt;Node7 -->
<g id="edge33" class="edge">
<title>Node15&#45;&gt;Node7</title>
<path fill="none" stroke="midnightblue" d="M860.86,-299.89C964.67,-290.72 1155.48,-271.85 1182,-255 1213.37,-235.06 1227,-221.67 1227,-184.5 1227,-184.5 1227,-184.5 1227,-121 1227,-77.74 1184.39,-43.09 1156.25,-24.91"/>
<polygon fill="midnightblue" stroke="midnightblue" points="1158.03,-21.9 1147.69,-19.6 1154.34,-27.85 1158.03,-21.9"/>
</g>
<!-- Node15&#45;&gt;Node12 -->
<g id="edge35" class="edge">
<title>Node15&#45;&gt;Node12</title>
<path fill="none" stroke="midnightblue" d="M727.46,-304.12C581.84,-300.49 244.74,-288.52 206,-255 156.38,-212.07 156.92,-124.87 159.92,-86.2"/>
<polygon fill="midnightblue" stroke="midnightblue" points="163.44,-86.15 160.88,-75.87 156.47,-85.5 163.44,-86.15"/>
</g>
<!-- Node16 -->
<g id="node12" class="node">
<title>Node16</title>
<g id="a_node12"><a xlink:href="enum_8h.html" target="_top" xlink:title=" ">
<polygon fill="white" stroke="black" points="28,-112.5 28,-131.5 132,-131.5 132,-112.5 28,-112.5"/>
<text text-anchor="middle" x="80" y="-119.5" font-family="Helvetica,sans-Serif" font-size="10.00">emlabcpp/enum.h</text>
</a>
</g>
</g>
<!-- Node15&#45;&gt;Node16 -->
<g id="edge12" class="edge">
<title>Node15&#45;&gt;Node16</title>
<path fill="none" stroke="midnightblue" d="M727.48,-304.05C571.43,-300.12 191.4,-287.32 144,-255 105,-228.41 88.93,-171.14 83.02,-141.55"/>
<polygon fill="midnightblue" stroke="midnightblue" points="86.46,-140.9 81.23,-131.68 79.58,-142.15 86.46,-140.9"/>
</g>
<!-- Node17 -->
<g id="node13" class="node">
<title>Node17</title>
<g id="a_node13"><a xlink:href="decompose_8h.html" target="_top" xlink:title=" ">
<polygon fill="white" stroke="black" points="1065.5,-168.5 1065.5,-198.5 1198.5,-198.5 1198.5,-168.5 1065.5,-168.5"/>
<text text-anchor="start" x="1073.5" y="-186.5" font-family="Helvetica,sans-Serif" font-size="10.00">emlabcpp/experimental</text>
<text text-anchor="middle" x="1132" y="-175.5" font-family="Helvetica,sans-Serif" font-size="10.00">/decompose.h</text>
</a>
</g>
</g>
<!-- Node15&#45;&gt;Node17 -->
<g id="edge14" class="edge">
<title>Node15&#45;&gt;Node17</title>
<path fill="none" stroke="midnightblue" d="M860.51,-306.45C956.4,-306.23 1126.26,-299.38 1165,-255 1177.37,-240.83 1166.53,-221.22 1154.06,-206.28"/>
<polygon fill="midnightblue" stroke="midnightblue" points="1156.39,-203.63 1147.1,-198.52 1151.18,-208.31 1156.39,-203.63"/>
</g>
<!-- Node18 -->
<g id="node14" class="node">
<title>Node18</title>
<g id="a_node14"><a xlink:href="match_8h.html" target="_top" xlink:title=" ">
<polygon fill="white" stroke="red" points="341.5,-235.5 341.5,-254.5 448.5,-254.5 448.5,-235.5 341.5,-235.5"/>
<text text-anchor="middle" x="395" y="-242.5" font-family="Helvetica,sans-Serif" font-size="10.00">emlabcpp/match.h</text>
</a>
</g>
</g>
<!-- Node15&#45;&gt;Node18 -->
<g id="edge17" class="edge">
<title>Node15&#45;&gt;Node18</title>
<path fill="none" stroke="midnightblue" d="M727.22,-295.54C652.42,-284.39 532.08,-266.44 458.61,-255.49"/>
<polygon fill="midnightblue" stroke="midnightblue" points="458.97,-252 448.56,-253.99 457.93,-258.92 458.97,-252"/>
</g>
<!-- Node20 -->
<g id="node15" class="node">
<title>Node20</title>
<g id="a_node15"><a xlink:href="range_8h.html" target="_top" xlink:title=" ">
<polygon fill="white" stroke="red" points="467,-235.5 467,-254.5 571,-254.5 571,-235.5 467,-235.5"/>
<text text-anchor="middle" x="519" y="-242.5" font-family="Helvetica,sans-Serif" font-size="10.00">emlabcpp/range.h</text>
</a>
</g>
</g>
<!-- Node15&#45;&gt;Node20 -->
<g id="edge18" class="edge">
<title>Node15&#45;&gt;Node20</title>
<path fill="none" stroke="midnightblue" d="M729.18,-291.47C679.87,-280.81 613.06,-266.35 568.12,-256.63"/>
<polygon fill="midnightblue" stroke="midnightblue" points="568.83,-253.2 558.32,-254.51 567.35,-260.04 568.83,-253.2"/>
</g>
<!-- Node24 -->
<g id="node16" class="node">
<title>Node24</title>
<g id="a_node16"><a xlink:href="types_8h.html" target="_top" xlink:title=" ">
<polygon fill="white" stroke="red" points="221,-174 221,-193 325,-193 325,-174 221,-174"/>
<text text-anchor="middle" x="273" y="-181" font-family="Helvetica,sans-Serif" font-size="10.00">emlabcpp/types.h</text>
</a>
</g>
</g>
<!-- Node15&#45;&gt;Node24 -->
<g id="edge19" class="edge">
<title>Node15&#45;&gt;Node24</title>
<path fill="none" stroke="midnightblue" d="M727.35,-304.64C582.47,-302.07 249.05,-292.15 215,-255 197.7,-236.12 225.33,-213 248.08,-198.5"/>
<polygon fill="midnightblue" stroke="midnightblue" points="250.04,-201.4 256.76,-193.21 246.4,-195.42 250.04,-201.4"/>
</g>
<!-- Node23 -->
<g id="node17" class="node">
<title>Node23</title>
<g id="a_node17"><a xlink:href="view_8h.html" target="_top" xlink:title=" ">
<polygon fill="white" stroke="black" points="224.5,-235.5 224.5,-254.5 323.5,-254.5 323.5,-235.5 224.5,-235.5"/>
<text text-anchor="middle" x="274" y="-242.5" font-family="Helvetica,sans-Serif" font-size="10.00">emlabcpp/view.h</text>
</a>
</g>
</g>
<!-- Node15&#45;&gt;Node23 -->
<g id="edge22" class="edge">
<title>Node15&#45;&gt;Node23</title>
<path fill="none" stroke="midnightblue" d="M727.33,-299.16C639.44,-290.6 479.76,-274.31 333.7,-255.18"/>
<polygon fill="midnightblue" stroke="midnightblue" points="334.02,-251.69 323.65,-253.86 333.11,-258.63 334.02,-251.69"/>
</g>
<!-- Node26 -->
<g id="node18" class="node">
<title>Node26</title>
<g id="a_node18"><a xlink:title=" ">
<polygon fill="white" stroke="#bfbfbf" points="656,-174 656,-193 696,-193 696,-174 656,-174"/>
<text text-anchor="middle" x="676" y="-181" font-family="Helvetica,sans-Serif" font-size="10.00">span</text>
</a>
</g>
</g>
<!-- Node15&#45;&gt;Node26 -->
<g id="edge32" class="edge">
<title>Node15&#45;&gt;Node26</title>
<path fill="none" stroke="midnightblue" d="M860.7,-303.89C939.57,-300.42 1063.86,-289.48 1093,-255 1098.74,-248.21 1098.9,-241.65 1093,-235 1067.35,-206.06 797.89,-190.41 706.28,-185.89"/>
<polygon fill="midnightblue" stroke="midnightblue" points="706.18,-182.38 696.02,-185.4 705.84,-189.37 706.18,-182.38"/>
</g>
<!-- Node27 -->
<g id="node19" class="node">
<title>Node27</title>
<g id="a_node19"><a xlink:title=" ">
<polygon fill="white" stroke="#bfbfbf" points="589,-235.5 589,-254.5 633,-254.5 633,-235.5 589,-235.5"/>
<text text-anchor="middle" x="611" y="-242.5" font-family="Helvetica,sans-Serif" font-size="10.00">bitset</text>
</a>
</g>
</g>
<!-- Node15&#45;&gt;Node27 -->
<g id="edge25" class="edge">
<title>Node15&#45;&gt;Node27</title>
<path fill="none" stroke="midnightblue" d="M750.63,-291.4C717.73,-280.7 673.22,-266.23 643.38,-256.53"/>
<polygon fill="midnightblue" stroke="midnightblue" points="644.07,-253.07 633.48,-253.31 641.91,-259.73 644.07,-253.07"/>
</g>
<!-- Node28 -->
<g id="node20" class="node">
<title>Node28</title>
<g id="a_node20"><a xlink:title=" ">
<polygon fill="white" stroke="#bfbfbf" points="651.5,-235.5 651.5,-254.5 712.5,-254.5 712.5,-235.5 651.5,-235.5"/>
<text text-anchor="middle" x="682" y="-242.5" font-family="Helvetica,sans-Serif" font-size="10.00">charconv</text>
</a>
</g>
</g>
<!-- Node15&#45;&gt;Node28 -->
<g id="edge26" class="edge">
<title>Node15&#45;&gt;Node28</title>
<path fill="none" stroke="midnightblue" d="M767.46,-291.4C749.34,-281.77 725.46,-269.09 707.56,-259.58"/>
<polygon fill="midnightblue" stroke="midnightblue" points="708.77,-256.26 698.3,-254.66 705.49,-262.44 708.77,-256.26"/>
</g>
<!-- Node29 -->
<g id="node21" class="node">
<title>Node29</title>
<g id="a_node21"><a xlink:title=" ">
<polygon fill="white" stroke="#bfbfbf" points="731,-235.5 731,-254.5 781,-254.5 781,-235.5 731,-235.5"/>
<text text-anchor="middle" x="756" y="-242.5" font-family="Helvetica,sans-Serif" font-size="10.00">chrono</text>
</a>
</g>
</g>
<!-- Node15&#45;&gt;Node29 -->
<g id="edge27" class="edge">
<title>Node15&#45;&gt;Node29</title>
<path fill="none" stroke="midnightblue" d="M784.99,-291.4C779.59,-282.93 772.67,-272.1 766.95,-263.14"/>
<polygon fill="midnightblue" stroke="midnightblue" points="769.86,-261.2 761.53,-254.66 763.96,-264.97 769.86,-261.2"/>
</g>
<!-- Node30 -->
<g id="node22" class="node">
<title>Node30</title>
<g id="a_node22"><a xlink:title=" ">
<polygon fill="white" stroke="#bfbfbf" points="799,-235.5 799,-254.5 867,-254.5 867,-235.5 799,-235.5"/>
<text text-anchor="middle" x="833" y="-242.5" font-family="Helvetica,sans-Serif" font-size="10.00">filesystem</text>
</a>
</g>
</g>
<!-- Node15&#45;&gt;Node30 -->
<g id="edge28" class="edge">
<title>Node15&#45;&gt;Node30</title>
<path fill="none" stroke="midnightblue" d="M803.24,-291.4C808.79,-282.93 815.89,-272.1 821.77,-263.14"/>
<polygon fill="midnightblue" stroke="midnightblue" points="824.77,-264.94 827.33,-254.66 818.92,-261.1 824.77,-264.94"/>
</g>
<!-- Node31 -->
<g id="node23" class="node">
<title>Node31</title>
<g id="a_node23"><a xlink:title=" ">
<polygon fill="white" stroke="#bfbfbf" points="885,-235.5 885,-254.5 923,-254.5 923,-235.5 885,-235.5"/>
<text text-anchor="middle" x="904" y="-242.5" font-family="Helvetica,sans-Serif" font-size="10.00">map</text>
</a>
</g>
</g>
<!-- Node15&#45;&gt;Node31 -->
<g id="edge29" class="edge">
<title>Node15&#45;&gt;Node31</title>
<path fill="none" stroke="midnightblue" d="M820.07,-291.4C837.87,-281.77 861.31,-269.09 878.9,-259.58"/>
<polygon fill="midnightblue" stroke="midnightblue" points="880.86,-262.49 887.99,-254.66 877.53,-256.34 880.86,-262.49"/>
</g>
<!-- Node15&#45;&gt;Node32 -->
<g id="edge30" class="edge">
<title>Node15&#45;&gt;Node32</title>
<path fill="none" stroke="midnightblue" d="M860.55,-300.05C948.12,-292.4 1106.69,-276.92 1241,-255 1242.24,-254.8 1243.5,-254.58 1244.77,-254.36"/>
<polygon fill="midnightblue" stroke="midnightblue" points="1245.44,-257.79 1254.61,-252.48 1244.13,-250.92 1245.44,-257.79"/>
</g>
<!-- Node33 -->
<g id="node25" class="node">
<title>Node33</title>
<g id="a_node25"><a xlink:title=" ">
<polygon fill="white" stroke="#bfbfbf" points="941,-235.5 941,-254.5 973,-254.5 973,-235.5 941,-235.5"/>
<text text-anchor="middle" x="957" y="-242.5" font-family="Helvetica,sans-Serif" font-size="10.00">set</text>
</a>
</g>
</g>
<!-- Node15&#45;&gt;Node33 -->
<g id="edge31" class="edge">
<title>Node15&#45;&gt;Node33</title>
<path fill="none" stroke="midnightblue" d="M832.63,-291.4C863.05,-280.3 904.6,-265.13 931.13,-255.44"/>
<polygon fill="midnightblue" stroke="midnightblue" points="932.64,-258.62 940.83,-251.9 930.24,-252.04 932.64,-258.62"/>
</g>
<!-- Node34 -->
<g id="node26" class="node">
<title>Node34</title>
<g id="a_node26"><a xlink:title=" ">
<polygon fill="white" stroke="#bfbfbf" points="991.5,-235.5 991.5,-254.5 1084.5,-254.5 1084.5,-235.5 991.5,-235.5"/>
<text text-anchor="middle" x="1038" y="-242.5" font-family="Helvetica,sans-Serif" font-size="10.00">unordered_map</text>
</a>
</g>
</g>
<!-- Node15&#45;&gt;Node34 -->
<g id="edge34" class="edge">
<title>Node15&#45;&gt;Node34</title>
<path fill="none" stroke="midnightblue" d="M851.52,-291.47C894.81,-280.92 953.3,-266.66 993.15,-256.94"/>
<polygon fill="midnightblue" stroke="midnightblue" points="994.23,-260.28 1003.12,-254.51 992.57,-253.48 994.23,-260.28"/>
</g>
<!-- Node16&#45;&gt;Node8 -->
<g id="edge13" class="edge">
<title>Node16&#45;&gt;Node8</title>
<path fill="none" stroke="midnightblue" d="M80,-112.37C80,-94.62 80,-53.67 80,-29.6"/>
<polygon fill="midnightblue" stroke="midnightblue" points="83.5,-29.59 80,-19.59 76.5,-29.59 83.5,-29.59"/>
</g>
<!-- Node17&#45;&gt;Node2 -->
<g id="edge15" class="edge">
<title>Node17&#45;&gt;Node2</title>
<path fill="none" stroke="midnightblue" d="M1065.34,-169.96C1060.5,-169.24 1055.68,-168.57 1051,-168 830.05,-140.98 566.46,-129.34 443.13,-125.09"/>
<polygon fill="midnightblue" stroke="midnightblue" points="443.18,-121.59 433.07,-124.75 442.94,-128.59 443.18,-121.59"/>
</g>
<!-- Node17&#45;&gt;Node7 -->
<g id="edge16" class="edge">
<title>Node17&#45;&gt;Node7</title>
<path fill="none" stroke="midnightblue" d="M1132,-168.47C1132,-137.7 1132,-64.33 1132,-29.7"/>
<polygon fill="midnightblue" stroke="midnightblue" points="1135.5,-29.56 1132,-19.56 1128.5,-29.56 1135.5,-29.56"/>
</g>
<!-- Node24&#45;&gt;Node2 -->
<g id="edge20" class="edge">
<title>Node24&#45;&gt;Node2</title>
<path fill="none" stroke="midnightblue" d="M287.33,-173.98C303.66,-164.25 330.6,-148.23 349.91,-136.74"/>
<polygon fill="midnightblue" stroke="midnightblue" points="351.89,-139.63 358.7,-131.51 348.32,-133.61 351.89,-139.63"/>
</g>
<!-- Node24&#45;&gt;Node3 -->
<g id="edge21" class="edge">
<title>Node24&#45;&gt;Node3</title>
<path fill="none" stroke="midnightblue" d="M272.92,-173.82C272.76,-155.26 272.38,-111.34 272.16,-85.97"/>
<polygon fill="midnightblue" stroke="midnightblue" points="275.66,-85.75 272.08,-75.78 268.66,-85.81 275.66,-85.75"/>
</g>
<!-- Node23&#45;&gt;Node24 -->
<g id="edge23" class="edge">
<title>Node23&#45;&gt;Node24</title>
<path fill="none" stroke="midnightblue" d="M273.86,-235.48C273.72,-227.08 273.5,-213.98 273.31,-203.16"/>
<polygon fill="midnightblue" stroke="midnightblue" points="276.81,-202.95 273.14,-193.01 269.81,-203.07 276.81,-202.95"/>
</g>
<!-- Node23&#45;&gt;Node26 -->
<g id="edge24" class="edge">
<title>Node23&#45;&gt;Node26</title>
<path fill="none" stroke="midnightblue" d="M323.67,-236.27C326.49,-235.83 329.28,-235.41 332,-235 447.99,-217.49 586.11,-197.46 645.92,-188.83"/>
<polygon fill="midnightblue" stroke="midnightblue" points="646.43,-192.29 655.83,-187.4 645.43,-185.37 646.43,-192.29"/>
</g>
</g>
</svg>
