<?xml version="1.0" encoding="UTF-8" standalone="no"?>
<!DOCTYPE svg PUBLIC "-//W3C//DTD SVG 1.1//EN"
 "http://www.w3.org/Graphics/SVG/1.1/DTD/svg11.dtd">
<!-- Generated by graphviz version 2.43.0 (0)
 -->
<!-- Title: include/emlabcpp/bounded.h Pages: 1 -->
<svg width="1416pt" height="386pt"
 viewBox="0.00 0.00 1416.00 386.00" xmlns="http://www.w3.org/2000/svg" xmlns:xlink="http://www.w3.org/1999/xlink">
<g id="graph0" class="graph" transform="scale(1 1) rotate(0) translate(4 382)">
<title>include/emlabcpp/bounded.h</title>
<polygon fill="white" stroke="transparent" points="-4,4 -4,-382 1412,-382 1412,4 -4,4"/>
<!-- Node1 -->
<g id="node1" class="node">
<title>Node1</title>
<g id="a_node1"><a xlink:title=" ">
<polygon fill="#bfbfbf" stroke="black" points="313.5,-358.5 313.5,-377.5 470.5,-377.5 470.5,-358.5 313.5,-358.5"/>
<text text-anchor="middle" x="392" y="-365.5" font-family="Helvetica,sans-Serif" font-size="10.00">include/emlabcpp/bounded.h</text>
</a>
</g>
</g>
<!-- Node2 -->
<g id="node2" class="node">
<title>Node2</title>
<g id="a_node2"><a xlink:href="concepts_8h.html" target="_top" xlink:title=" ">
<polygon fill="white" stroke="black" points="630,-112.5 630,-131.5 750,-131.5 750,-112.5 630,-112.5"/>
<text text-anchor="middle" x="690" y="-119.5" font-family="Helvetica,sans-Serif" font-size="10.00">emlabcpp/concepts.h</text>
</a>
</g>
</g>
<!-- Node1&#45;&gt;Node2 -->
<g id="edge1" class="edge">
<title>Node1&#45;&gt;Node2</title>
<path fill="none" stroke="midnightblue" d="M321.94,-358.45C223.93,-343.69 64.24,-307.74 124,-235 186.03,-159.49 482.3,-134.02 619.71,-126.18"/>
<polygon fill="midnightblue" stroke="midnightblue" points="619.93,-129.67 629.73,-125.62 619.55,-122.68 619.93,-129.67"/>
</g>
<!-- Node8 -->
<g id="node5" class="node">
<title>Node8</title>
<g id="a_node5"><a xlink:title=" ">
<polygon fill="white" stroke="#bfbfbf" points="45.5,-0.5 45.5,-19.5 114.5,-19.5 114.5,-0.5 45.5,-0.5"/>
<text text-anchor="middle" x="80" y="-7.5" font-family="Helvetica,sans-Serif" font-size="10.00">type_traits</text>
</a>
</g>
</g>
<!-- Node1&#45;&gt;Node8 -->
<g id="edge36" class="edge">
<title>Node1&#45;&gt;Node8</title>
<path fill="none" stroke="midnightblue" d="M313.14,-358.82C198.67,-344.72 0,-310.9 0,-246 0,-246 0,-246 0,-121 0,-80.62 35.69,-45.11 59.4,-25.97"/>
<polygon fill="midnightblue" stroke="midnightblue" points="61.74,-28.58 67.5,-19.69 57.45,-23.05 61.74,-28.58"/>
</g>
<!-- Node13 -->
<g id="node9" class="node">
<title>Node13</title>
<g id="a_node9"><a xlink:href="pretty__printer_8h.html" target="_top" xlink:title=" ">
<polygon fill="white" stroke="black" points="714.5,-291.5 714.5,-321.5 847.5,-321.5 847.5,-291.5 714.5,-291.5"/>
<text text-anchor="start" x="722.5" y="-309.5" font-family="Helvetica,sans-Serif" font-size="10.00">emlabcpp/experimental</text>
<text text-anchor="middle" x="781" y="-298.5" font-family="Helvetica,sans-Serif" font-size="10.00">/pretty_printer.h</text>
</a>
</g>
</g>
<!-- Node1&#45;&gt;Node13 -->
<g id="edge8" class="edge">
<title>Node1&#45;&gt;Node13</title>
<path fill="none" stroke="midnightblue" d="M447.73,-358.48C515.09,-348.17 628.77,-330.79 704.34,-319.23"/>
<polygon fill="midnightblue" stroke="midnightblue" points="704.93,-322.68 714.28,-317.7 703.87,-315.76 704.93,-322.68"/>
</g>
<!-- Node33 -->
<g id="node23" class="node">
<title>Node33</title>
<g id="a_node23"><a xlink:title=" ">
<polygon fill="white" stroke="#bfbfbf" points="1352,-235.5 1352,-254.5 1408,-254.5 1408,-235.5 1352,-235.5"/>
<text text-anchor="middle" x="1380" y="-242.5" font-family="Helvetica,sans-Serif" font-size="10.00">optional</text>
</a>
</g>
</g>
<!-- Node1&#45;&gt;Node33 -->
<g id="edge35" class="edge">
<title>Node1&#45;&gt;Node33</title>
<path fill="none" stroke="midnightblue" d="M470.62,-360.73C633.35,-347.09 1018.57,-311.35 1338,-255 1339.24,-254.78 1340.5,-254.55 1341.77,-254.32"/>
<polygon fill="midnightblue" stroke="midnightblue" points="1342.45,-257.75 1351.59,-252.38 1341.1,-250.88 1342.45,-257.75"/>
</g>
<!-- Node3 -->
<g id="node3" class="node">
<title>Node3</title>
<g id="a_node3"><a xlink:href="types_2base_8h.html" target="_top" xlink:title=" ">
<polygon fill="white" stroke="red" points="508,-56.5 508,-75.5 638,-75.5 638,-56.5 508,-56.5"/>
<text text-anchor="middle" x="573" y="-63.5" font-family="Helvetica,sans-Serif" font-size="10.00">emlabcpp/types/base.h</text>
</a>
</g>
</g>
<!-- Node2&#45;&gt;Node3 -->
<g id="edge2" class="edge">
<title>Node2&#45;&gt;Node3</title>
<path fill="none" stroke="midnightblue" d="M671.46,-112.44C652.38,-103.64 622.43,-89.81 600.56,-79.72"/>
<polygon fill="midnightblue" stroke="midnightblue" points="602,-76.53 591.45,-75.52 599.07,-82.88 602,-76.53"/>
</g>
<!-- Node10 -->
<g id="node6" class="node">
<title>Node10</title>
<g id="a_node6"><a xlink:title=" ">
<polygon fill="white" stroke="#bfbfbf" points="658,-56.5 658,-75.5 718,-75.5 718,-56.5 658,-56.5"/>
<text text-anchor="middle" x="688" y="-63.5" font-family="Helvetica,sans-Serif" font-size="10.00">concepts</text>
</a>
</g>
</g>
<!-- Node2&#45;&gt;Node10 -->
<g id="edge5" class="edge">
<title>Node2&#45;&gt;Node10</title>
<path fill="none" stroke="midnightblue" d="M689.67,-112.08C689.41,-105.01 689.03,-94.86 688.7,-85.99"/>
<polygon fill="midnightblue" stroke="midnightblue" points="692.19,-85.61 688.32,-75.75 685.2,-85.87 692.19,-85.61"/>
</g>
<!-- Node11 -->
<g id="node7" class="node">
<title>Node11</title>
<g id="a_node7"><a xlink:title=" ">
<polygon fill="white" stroke="#bfbfbf" points="736.5,-56.5 736.5,-75.5 789.5,-75.5 789.5,-56.5 736.5,-56.5"/>
<text text-anchor="middle" x="763" y="-63.5" font-family="Helvetica,sans-Serif" font-size="10.00">iterator</text>
</a>
</g>
</g>
<!-- Node2&#45;&gt;Node11 -->
<g id="edge6" class="edge">
<title>Node2&#45;&gt;Node11</title>
<path fill="none" stroke="midnightblue" d="M701.73,-112.32C712.84,-104.11 729.74,-91.6 742.98,-81.81"/>
<polygon fill="midnightblue" stroke="midnightblue" points="745.1,-84.59 751.06,-75.83 740.94,-78.97 745.1,-84.59"/>
</g>
<!-- Node12 -->
<g id="node8" class="node">
<title>Node12</title>
<g id="a_node8"><a xlink:title=" ">
<polygon fill="white" stroke="#bfbfbf" points="967.5,-56.5 967.5,-75.5 1018.5,-75.5 1018.5,-56.5 967.5,-56.5"/>
<text text-anchor="middle" x="993" y="-63.5" font-family="Helvetica,sans-Serif" font-size="10.00">variant</text>
</a>
</g>
</g>
<!-- Node2&#45;&gt;Node12 -->
<g id="edge7" class="edge">
<title>Node2&#45;&gt;Node12</title>
<path fill="none" stroke="midnightblue" d="M738.01,-112.44C798.99,-101.58 902.83,-83.07 957.27,-73.37"/>
<polygon fill="midnightblue" stroke="midnightblue" points="957.93,-76.81 967.16,-71.6 956.7,-69.91 957.93,-76.81"/>
</g>
<!-- Node7 -->
<g id="node4" class="node">
<title>Node7</title>
<g id="a_node4"><a xlink:title=" ">
<polygon fill="white" stroke="#bfbfbf" points="1106.5,-0.5 1106.5,-19.5 1147.5,-19.5 1147.5,-0.5 1106.5,-0.5"/>
<text text-anchor="middle" x="1127" y="-7.5" font-family="Helvetica,sans-Serif" font-size="10.00">tuple</text>
</a>
</g>
</g>
<!-- Node3&#45;&gt;Node7 -->
<g id="edge3" class="edge">
<title>Node3&#45;&gt;Node7</title>
<path fill="none" stroke="midnightblue" d="M638.08,-57.19C641.77,-56.78 645.43,-56.38 649,-56 817.67,-38.08 1020.22,-20.21 1096.21,-13.64"/>
<polygon fill="midnightblue" stroke="midnightblue" points="1096.82,-17.1 1106.48,-12.75 1096.22,-10.13 1096.82,-17.1"/>
</g>
<!-- Node3&#45;&gt;Node8 -->
<g id="edge4" class="edge">
<title>Node3&#45;&gt;Node8</title>
<path fill="none" stroke="midnightblue" d="M507.79,-57.86C406.07,-46.72 212.24,-25.48 124.78,-15.91"/>
<polygon fill="midnightblue" stroke="midnightblue" points="124.98,-12.41 114.66,-14.8 124.22,-19.36 124.98,-12.41"/>
</g>
<!-- Node13&#45;&gt;Node2 -->
<g id="edge9" class="edge">
<title>Node13&#45;&gt;Node2</title>
<path fill="none" stroke="midnightblue" d="M754.27,-291.42C740.42,-282.75 724.46,-270.35 715,-255 693.05,-219.39 689.58,-168.87 689.48,-141.83"/>
<polygon fill="midnightblue" stroke="midnightblue" points="692.98,-141.82 689.59,-131.78 685.98,-141.74 692.98,-141.82"/>
</g>
<!-- Node13&#45;&gt;Node7 -->
<g id="edge32" class="edge">
<title>Node13&#45;&gt;Node7</title>
<path fill="none" stroke="midnightblue" d="M847.77,-294.22C855.59,-293.05 863.46,-291.95 871,-291 958.23,-280 1187.12,-295.8 1265,-255 1301.19,-236.04 1324,-225.36 1324,-184.5 1324,-184.5 1324,-184.5 1324,-121 1324,-45.74 1213.05,-21.49 1157.68,-14.07"/>
<polygon fill="midnightblue" stroke="midnightblue" points="1158.06,-10.59 1147.71,-12.84 1157.2,-17.54 1158.06,-10.59"/>
</g>
<!-- Node13&#45;&gt;Node12 -->
<g id="edge34" class="edge">
<title>Node13&#45;&gt;Node12</title>
<path fill="none" stroke="midnightblue" d="M847.77,-294.25C855.59,-293.08 863.47,-291.97 871,-291 912.52,-285.67 1217.85,-285.98 1246,-255 1321.32,-172.1 1114.47,-101.58 1028.51,-76.64"/>
<polygon fill="midnightblue" stroke="midnightblue" points="1029.23,-73.21 1018.65,-73.83 1027.31,-79.94 1029.23,-73.21"/>
</g>
<!-- Node14 -->
<g id="node10" class="node">
<title>Node14</title>
<g id="a_node10"><a xlink:href="enum_8h.html" target="_top" xlink:title=" ">
<polygon fill="white" stroke="black" points="28,-112.5 28,-131.5 132,-131.5 132,-112.5 28,-112.5"/>
<text text-anchor="middle" x="80" y="-119.5" font-family="Helvetica,sans-Serif" font-size="10.00">emlabcpp/enum.h</text>
</a>
</g>
</g>
<!-- Node13&#45;&gt;Node14 -->
<g id="edge10" class="edge">
<title>Node13&#45;&gt;Node14</title>
<path fill="none" stroke="midnightblue" d="M714.36,-304.5C556.55,-301.56 169.79,-290.75 124,-255 88.87,-227.57 81.52,-171.11 80.16,-141.72"/>
<polygon fill="midnightblue" stroke="midnightblue" points="83.65,-141.47 79.88,-131.57 76.66,-141.66 83.65,-141.47"/>
</g>
<!-- Node15 -->
<g id="node11" class="node">
<title>Node15</title>
<g id="a_node11"><a xlink:href="decompose_8h.html" target="_top" xlink:title=" ">
<polygon fill="white" stroke="black" points="1060.5,-168.5 1060.5,-198.5 1193.5,-198.5 1193.5,-168.5 1060.5,-168.5"/>
<text text-anchor="start" x="1068.5" y="-186.5" font-family="Helvetica,sans-Serif" font-size="10.00">emlabcpp/experimental</text>
<text text-anchor="middle" x="1127" y="-175.5" font-family="Helvetica,sans-Serif" font-size="10.00">/decompose.h</text>
</a>
</g>
</g>
<!-- Node13&#45;&gt;Node15 -->
<g id="edge12" class="edge">
<title>Node13&#45;&gt;Node15</title>
<path fill="none" stroke="midnightblue" d="M847.7,-302.8C966.35,-297.3 1204.06,-282.9 1229,-255 1248.45,-233.23 1218.67,-214.74 1186.36,-202.17"/>
<polygon fill="midnightblue" stroke="midnightblue" points="1187.36,-198.8 1176.76,-198.62 1184.93,-205.37 1187.36,-198.8"/>
</g>
<!-- Node16 -->
<g id="node12" class="node">
<title>Node16</title>
<g id="a_node12"><a xlink:href="match_8h.html" target="_top" xlink:title=" ">
<polygon fill="white" stroke="red" points="142.5,-235.5 142.5,-254.5 249.5,-254.5 249.5,-235.5 142.5,-235.5"/>
<text text-anchor="middle" x="196" y="-242.5" font-family="Helvetica,sans-Serif" font-size="10.00">emlabcpp/match.h</text>
</a>
</g>
</g>
<!-- Node13&#45;&gt;Node16 -->
<g id="edge15" class="edge">
<title>Node13&#45;&gt;Node16</title>
<path fill="none" stroke="midnightblue" d="M714.15,-300.01C616.69,-291.79 429.66,-275.2 259.73,-255.03"/>
<polygon fill="midnightblue" stroke="midnightblue" points="259.94,-251.54 249.59,-253.83 259.11,-258.49 259.94,-251.54"/>
</g>
<!-- Node21 -->
<g id="node13" class="node">
<title>Node21</title>
<g id="a_node13"><a xlink:href="min__max_8h.html" target="_top" xlink:title=" ">
<polygon fill="white" stroke="red" points="268,-235.5 268,-254.5 390,-254.5 390,-235.5 268,-235.5"/>
<text text-anchor="middle" x="329" y="-242.5" font-family="Helvetica,sans-Serif" font-size="10.00">emlabcpp/min_max.h</text>
</a>
</g>
</g>
<!-- Node13&#45;&gt;Node21 -->
<g id="edge16" class="edge">
<title>Node13&#45;&gt;Node21</title>
<path fill="none" stroke="midnightblue" d="M714.31,-296.72C630.21,-285.65 486.25,-266.7 400.12,-255.36"/>
<polygon fill="midnightblue" stroke="midnightblue" points="400.54,-251.89 390.16,-254.05 399.62,-258.83 400.54,-251.89"/>
</g>
<!-- Node23 -->
<g id="node14" class="node">
<title>Node23</title>
<g id="a_node14"><a xlink:href="range_8h.html" target="_top" xlink:title=" ">
<polygon fill="white" stroke="red" points="408,-235.5 408,-254.5 512,-254.5 512,-235.5 408,-235.5"/>
<text text-anchor="middle" x="460" y="-242.5" font-family="Helvetica,sans-Serif" font-size="10.00">emlabcpp/range.h</text>
</a>
</g>
</g>
<!-- Node13&#45;&gt;Node23 -->
<g id="edge17" class="edge">
<title>Node13&#45;&gt;Node23</title>
<path fill="none" stroke="midnightblue" d="M714.49,-293.17C655.88,-282.31 571.46,-266.66 516.18,-256.41"/>
<polygon fill="midnightblue" stroke="midnightblue" points="516.68,-252.95 506.21,-254.56 515.4,-259.83 516.68,-252.95"/>
</g>
<!-- Node19 -->
<g id="node15" class="node">
<title>Node19</title>
<g id="a_node15"><a xlink:href="types_8h.html" target="_top" xlink:title=" ">
<polygon fill="white" stroke="red" points="506,-174 506,-193 610,-193 610,-174 506,-174"/>
<text text-anchor="middle" x="558" y="-181" font-family="Helvetica,sans-Serif" font-size="10.00">emlabcpp/types.h</text>
</a>
</g>
</g>
<!-- Node13&#45;&gt;Node19 -->
<g id="edge18" class="edge">
<title>Node13&#45;&gt;Node19</title>
<path fill="none" stroke="midnightblue" d="M714.47,-305.31C557.04,-304.17 171.91,-297.06 133,-255 82.62,-200.54 365.53,-188.15 495.44,-185.33"/>
<polygon fill="midnightblue" stroke="midnightblue" points="495.72,-188.83 505.65,-185.12 495.58,-181.83 495.72,-188.83"/>
</g>
<!-- Node26 -->
<g id="node16" class="node">
<title>Node26</title>
<g id="a_node16"><a xlink:href="view_8h.html" target="_top" xlink:title=" ">
<polygon fill="white" stroke="black" points="530.5,-235.5 530.5,-254.5 629.5,-254.5 629.5,-235.5 530.5,-235.5"/>
<text text-anchor="middle" x="580" y="-242.5" font-family="Helvetica,sans-Serif" font-size="10.00">emlabcpp/view.h</text>
</a>
</g>
</g>
<!-- Node13&#45;&gt;Node26 -->
<g id="edge21" class="edge">
<title>Node13&#45;&gt;Node26</title>
<path fill="none" stroke="midnightblue" d="M733.62,-291.47C698.49,-281.08 651.21,-267.08 618.42,-257.37"/>
<polygon fill="midnightblue" stroke="midnightblue" points="619.32,-253.99 608.74,-254.51 617.33,-260.7 619.32,-253.99"/>
</g>
<!-- Node27 -->
<g id="node17" class="node">
<title>Node27</title>
<g id="a_node17"><a xlink:title=" ">
<polygon fill="white" stroke="#bfbfbf" points="628,-174 628,-193 668,-193 668,-174 628,-174"/>
<text text-anchor="middle" x="648" y="-181" font-family="Helvetica,sans-Serif" font-size="10.00">span</text>
</a>
</g>
</g>
<!-- Node13&#45;&gt;Node27 -->
<g id="edge31" class="edge">
<title>Node13&#45;&gt;Node27</title>
<path fill="none" stroke="midnightblue" d="M739.59,-291.49C720.2,-283.28 697.92,-271.28 682,-255 667.78,-240.46 658.57,-218.82 653.36,-203.36"/>
<polygon fill="midnightblue" stroke="midnightblue" points="656.58,-201.89 650.27,-193.38 649.89,-203.97 656.58,-201.89"/>
</g>
<!-- Node28 -->
<g id="node18" class="node">
<title>Node28</title>
<g id="a_node18"><a xlink:title=" ">
<polygon fill="white" stroke="#bfbfbf" points="724,-235.5 724,-254.5 768,-254.5 768,-235.5 724,-235.5"/>
<text text-anchor="middle" x="746" y="-242.5" font-family="Helvetica,sans-Serif" font-size="10.00">bitset</text>
</a>
</g>
</g>
<!-- Node13&#45;&gt;Node28 -->
<g id="edge24" class="edge">
<title>Node13&#45;&gt;Node28</title>
<path fill="none" stroke="midnightblue" d="M772.71,-291.4C767.78,-283.02 761.49,-272.33 756.25,-263.42"/>
<polygon fill="midnightblue" stroke="midnightblue" points="759.18,-261.5 751.09,-254.66 753.15,-265.05 759.18,-261.5"/>
</g>
<!-- Node29 -->
<g id="node19" class="node">
<title>Node29</title>
<g id="a_node19"><a xlink:title=" ">
<polygon fill="white" stroke="#bfbfbf" points="786.5,-235.5 786.5,-254.5 847.5,-254.5 847.5,-235.5 786.5,-235.5"/>
<text text-anchor="middle" x="817" y="-242.5" font-family="Helvetica,sans-Serif" font-size="10.00">charconv</text>
</a>
</g>
</g>
<!-- Node13&#45;&gt;Node29 -->
<g id="edge25" class="edge">
<title>Node13&#45;&gt;Node29</title>
<path fill="none" stroke="midnightblue" d="M789.53,-291.4C794.6,-283.02 801.07,-272.33 806.46,-263.42"/>
<polygon fill="midnightblue" stroke="midnightblue" points="809.58,-265.03 811.76,-254.66 803.59,-261.4 809.58,-265.03"/>
</g>
<!-- Node30 -->
<g id="node20" class="node">
<title>Node30</title>
<g id="a_node20"><a xlink:title=" ">
<polygon fill="white" stroke="#bfbfbf" points="866,-235.5 866,-254.5 916,-254.5 916,-235.5 866,-235.5"/>
<text text-anchor="middle" x="891" y="-242.5" font-family="Helvetica,sans-Serif" font-size="10.00">chrono</text>
</a>
</g>
</g>
<!-- Node13&#45;&gt;Node30 -->
<g id="edge26" class="edge">
<title>Node13&#45;&gt;Node30</title>
<path fill="none" stroke="midnightblue" d="M807.07,-291.4C824.87,-281.77 848.31,-269.09 865.9,-259.58"/>
<polygon fill="midnightblue" stroke="midnightblue" points="867.86,-262.49 874.99,-254.66 864.53,-256.34 867.86,-262.49"/>
</g>
<!-- Node31 -->
<g id="node21" class="node">
<title>Node31</title>
<g id="a_node21"><a xlink:title=" ">
<polygon fill="white" stroke="#bfbfbf" points="934,-235.5 934,-254.5 1002,-254.5 1002,-235.5 934,-235.5"/>
<text text-anchor="middle" x="968" y="-242.5" font-family="Helvetica,sans-Serif" font-size="10.00">filesystem</text>
</a>
</g>
</g>
<!-- Node13&#45;&gt;Node31 -->
<g id="edge27" class="edge">
<title>Node13&#45;&gt;Node31</title>
<path fill="none" stroke="midnightblue" d="M825.32,-291.4C857.63,-281.12 900.9,-267.35 931.29,-257.68"/>
<polygon fill="midnightblue" stroke="midnightblue" points="932.59,-260.94 941.06,-254.57 930.47,-254.27 932.59,-260.94"/>
</g>
<!-- Node32 -->
<g id="node22" class="node">
<title>Node32</title>
<g id="a_node22"><a xlink:title=" ">
<polygon fill="white" stroke="#bfbfbf" points="1020,-235.5 1020,-254.5 1058,-254.5 1058,-235.5 1020,-235.5"/>
<text text-anchor="middle" x="1039" y="-242.5" font-family="Helvetica,sans-Serif" font-size="10.00">map</text>
</a>
</g>
</g>
<!-- Node13&#45;&gt;Node32 -->
<g id="edge28" class="edge">
<title>Node13&#45;&gt;Node32</title>
<path fill="none" stroke="midnightblue" d="M847.83,-292.57C891.52,-283.72 949.98,-271.11 1009.79,-255.14"/>
<polygon fill="midnightblue" stroke="midnightblue" points="1011.05,-258.42 1019.79,-252.44 1009.23,-251.67 1011.05,-258.42"/>
</g>
<!-- Node13&#45;&gt;Node33 -->
<g id="edge29" class="edge">
<title>Node13&#45;&gt;Node33</title>
<path fill="none" stroke="midnightblue" d="M847.76,-302.06C952.61,-296.06 1162.09,-281.72 1338,-255 1339.24,-254.81 1340.51,-254.61 1341.78,-254.39"/>
<polygon fill="midnightblue" stroke="midnightblue" points="1342.43,-257.83 1351.62,-252.57 1341.15,-250.95 1342.43,-257.83"/>
</g>
<!-- Node34 -->
<g id="node24" class="node">
<title>Node34</title>
<g id="a_node24"><a xlink:title=" ">
<polygon fill="white" stroke="#bfbfbf" points="1076,-235.5 1076,-254.5 1108,-254.5 1108,-235.5 1076,-235.5"/>
<text text-anchor="middle" x="1092" y="-242.5" font-family="Helvetica,sans-Serif" font-size="10.00">set</text>
</a>
</g>
</g>
<!-- Node13&#45;&gt;Node34 -->
<g id="edge30" class="edge">
<title>Node13&#45;&gt;Node34</title>
<path fill="none" stroke="midnightblue" d="M847.58,-297.03C903.72,-289.14 986.19,-275.81 1066.24,-254.82"/>
<polygon fill="midnightblue" stroke="midnightblue" points="1067.23,-258.18 1075.99,-252.22 1065.43,-251.41 1067.23,-258.18"/>
</g>
<!-- Node35 -->
<g id="node25" class="node">
<title>Node35</title>
<g id="a_node25"><a xlink:title=" ">
<polygon fill="white" stroke="#bfbfbf" points="1126.5,-235.5 1126.5,-254.5 1219.5,-254.5 1219.5,-235.5 1126.5,-235.5"/>
<text text-anchor="middle" x="1173" y="-242.5" font-family="Helvetica,sans-Serif" font-size="10.00">unordered_map</text>
</a>
</g>
</g>
<!-- Node13&#45;&gt;Node35 -->
<g id="edge33" class="edge">
<title>Node13&#45;&gt;Node35</title>
<path fill="none" stroke="midnightblue" d="M847.65,-295.69C913.28,-285.98 1016.67,-270.56 1116.31,-255.09"/>
<polygon fill="midnightblue" stroke="midnightblue" points="1116.91,-258.54 1126.25,-253.55 1115.84,-251.63 1116.91,-258.54"/>
</g>
<!-- Node14&#45;&gt;Node8 -->
<g id="edge11" class="edge">
<title>Node14&#45;&gt;Node8</title>
<path fill="none" stroke="midnightblue" d="M80,-112.37C80,-94.62 80,-53.67 80,-29.6"/>
<polygon fill="midnightblue" stroke="midnightblue" points="83.5,-29.59 80,-19.59 76.5,-29.59 83.5,-29.59"/>
</g>
<!-- Node15&#45;&gt;Node2 -->
<g id="edge13" class="edge">
<title>Node15&#45;&gt;Node2</title>
<path fill="none" stroke="midnightblue" d="M1060.15,-173.4C979.02,-162.35 842.83,-143.81 760.21,-132.56"/>
<polygon fill="midnightblue" stroke="midnightblue" points="760.54,-129.07 750.16,-131.19 759.59,-136.01 760.54,-129.07"/>
</g>
<!-- Node15&#45;&gt;Node7 -->
<g id="edge14" class="edge">
<title>Node15&#45;&gt;Node7</title>
<path fill="none" stroke="midnightblue" d="M1127,-168.47C1127,-137.7 1127,-64.33 1127,-29.7"/>
<polygon fill="midnightblue" stroke="midnightblue" points="1130.5,-29.56 1127,-19.56 1123.5,-29.56 1130.5,-29.56"/>
</g>
<!-- Node19&#45;&gt;Node2 -->
<g id="edge19" class="edge">
<title>Node19&#45;&gt;Node2</title>
<path fill="none" stroke="midnightblue" d="M576.91,-173.98C599.16,-163.95 636.31,-147.2 661.93,-135.65"/>
<polygon fill="midnightblue" stroke="midnightblue" points="663.44,-138.81 671.12,-131.51 660.57,-132.43 663.44,-138.81"/>
</g>
<!-- Node19&#45;&gt;Node3 -->
<g id="edge20" class="edge">
<title>Node19&#45;&gt;Node3</title>
<path fill="none" stroke="midnightblue" d="M559.13,-173.82C561.54,-155.26 567.24,-111.34 570.54,-85.97"/>
<polygon fill="midnightblue" stroke="midnightblue" points="574.04,-86.15 571.86,-75.78 567.1,-85.25 574.04,-86.15"/>
</g>
<!-- Node26&#45;&gt;Node19 -->
<g id="edge22" class="edge">
<title>Node26&#45;&gt;Node19</title>
<path fill="none" stroke="midnightblue" d="M576.85,-235.48C573.68,-226.9 568.7,-213.43 564.65,-202.48"/>
<polygon fill="midnightblue" stroke="midnightblue" points="567.9,-201.17 561.15,-193.01 561.33,-203.6 567.9,-201.17"/>
</g>
<!-- Node26&#45;&gt;Node27 -->
<g id="edge23" class="edge">
<title>Node26&#45;&gt;Node27</title>
<path fill="none" stroke="midnightblue" d="M589.74,-235.48C600.35,-226.2 617.52,-211.17 630.48,-199.83"/>
<polygon fill="midnightblue" stroke="midnightblue" points="633.05,-202.23 638.28,-193.01 628.44,-196.96 633.05,-202.23"/>
</g>
</g>
</svg>
