<?xml version="1.0" encoding="UTF-8" standalone="no"?>
<!DOCTYPE svg PUBLIC "-//W3C//DTD SVG 1.1//EN"
 "http://www.w3.org/Graphics/SVG/1.1/DTD/svg11.dtd">
<!-- Generated by graphviz version 2.43.0 (0)
 -->
<!-- Title: include/emlabcpp/bounded.h Pages: 1 -->
<svg width="1507pt" height="386pt"
 viewBox="0.00 0.00 1506.50 386.00" xmlns="http://www.w3.org/2000/svg" xmlns:xlink="http://www.w3.org/1999/xlink">
<g id="graph0" class="graph" transform="scale(1 1) rotate(0) translate(4 382)">
<title>include/emlabcpp/bounded.h</title>
<polygon fill="white" stroke="transparent" points="-4,4 -4,-382 1502.5,-382 1502.5,4 -4,4"/>
<!-- Node1 -->
<g id="node1" class="node">
<title>Node1</title>
<g id="a_node1"><a xlink:title=" ">
<polygon fill="#bfbfbf" stroke="black" points="587.5,-358.5 587.5,-377.5 744.5,-377.5 744.5,-358.5 587.5,-358.5"/>
<text text-anchor="middle" x="666" y="-365.5" font-family="Helvetica,sans-Serif" font-size="10.00">include/emlabcpp/bounded.h</text>
</a>
</g>
</g>
<!-- Node2 -->
<g id="node2" class="node">
<title>Node2</title>
<g id="a_node2"><a xlink:href="concepts_8h.html" target="_top" xlink:title=" ">
<polygon fill="white" stroke="black" points="694,-112.5 694,-131.5 814,-131.5 814,-112.5 694,-112.5"/>
<text text-anchor="middle" x="754" y="-119.5" font-family="Helvetica,sans-Serif" font-size="10.00">emlabcpp/concepts.h</text>
</a>
</g>
</g>
<!-- Node1&#45;&gt;Node2 -->
<g id="edge1" class="edge">
<title>Node1&#45;&gt;Node2</title>
<path fill="none" stroke="midnightblue" d="M587.2,-362.02C415.76,-349.67 29.28,-312.84 95,-235 169.79,-146.43 529.2,-127.89 683.44,-124.02"/>
<polygon fill="midnightblue" stroke="midnightblue" points="683.83,-127.51 693.74,-123.77 683.66,-120.51 683.83,-127.51"/>
</g>
<!-- Node8 -->
<g id="node5" class="node">
<title>Node8</title>
<g id="a_node5"><a xlink:title=" ">
<polygon fill="white" stroke="#bfbfbf" points="45.5,-0.5 45.5,-19.5 114.5,-19.5 114.5,-0.5 45.5,-0.5"/>
<text text-anchor="middle" x="80" y="-7.5" font-family="Helvetica,sans-Serif" font-size="10.00">type_traits</text>
</a>
</g>
</g>
<!-- Node1&#45;&gt;Node8 -->
<g id="edge38" class="edge">
<title>Node1&#45;&gt;Node8</title>
<path fill="none" stroke="midnightblue" d="M587.29,-364.66C459.55,-360.14 213.02,-348.27 130,-322 66.19,-301.81 0,-312.93 0,-246 0,-246 0,-246 0,-121 0,-80.62 35.69,-45.11 59.4,-25.97"/>
<polygon fill="midnightblue" stroke="midnightblue" points="61.74,-28.58 67.5,-19.69 57.45,-23.05 61.74,-28.58"/>
</g>
<!-- Node13 -->
<g id="node9" class="node">
<title>Node13</title>
<g id="a_node9"><a xlink:href="logging_8h.html" target="_top" xlink:title=" ">
<polygon fill="white" stroke="black" points="1243.5,-291.5 1243.5,-321.5 1376.5,-321.5 1376.5,-291.5 1243.5,-291.5"/>
<text text-anchor="start" x="1251.5" y="-309.5" font-family="Helvetica,sans-Serif" font-size="10.00">emlabcpp/experimental</text>
<text text-anchor="middle" x="1310" y="-298.5" font-family="Helvetica,sans-Serif" font-size="10.00">/logging.h</text>
</a>
</g>
</g>
<!-- Node1&#45;&gt;Node13 -->
<g id="edge8" class="edge">
<title>Node1&#45;&gt;Node13</title>
<path fill="none" stroke="midnightblue" d="M744.64,-359.73C869.15,-348.23 1110.14,-325.97 1233.38,-314.58"/>
<polygon fill="midnightblue" stroke="midnightblue" points="1233.85,-318.05 1243.49,-313.65 1233.21,-311.08 1233.85,-318.05"/>
</g>
<!-- Node15 -->
<g id="node11" class="node">
<title>Node15</title>
<g id="a_node11"><a xlink:href="pretty__printer_8h.html" target="_top" xlink:title=" ">
<polygon fill="white" stroke="black" points="599.5,-291.5 599.5,-321.5 732.5,-321.5 732.5,-291.5 599.5,-291.5"/>
<text text-anchor="start" x="607.5" y="-309.5" font-family="Helvetica,sans-Serif" font-size="10.00">emlabcpp/experimental</text>
<text text-anchor="middle" x="666" y="-298.5" font-family="Helvetica,sans-Serif" font-size="10.00">/pretty_printer.h</text>
</a>
</g>
</g>
<!-- Node1&#45;&gt;Node15 -->
<g id="edge10" class="edge">
<title>Node1&#45;&gt;Node15</title>
<path fill="none" stroke="midnightblue" d="M666,-358.48C666,-351.47 666,-341.19 666,-331.7"/>
<polygon fill="midnightblue" stroke="midnightblue" points="669.5,-331.52 666,-321.52 662.5,-331.52 669.5,-331.52"/>
</g>
<!-- Node34 -->
<g id="node25" class="node">
<title>Node34</title>
<g id="a_node25"><a xlink:title=" ">
<polygon fill="white" stroke="#bfbfbf" points="1351,-235.5 1351,-254.5 1407,-254.5 1407,-235.5 1351,-235.5"/>
<text text-anchor="middle" x="1379" y="-242.5" font-family="Helvetica,sans-Serif" font-size="10.00">optional</text>
</a>
</g>
</g>
<!-- Node1&#45;&gt;Node34 -->
<g id="edge37" class="edge">
<title>Node1&#45;&gt;Node34</title>
<path fill="none" stroke="midnightblue" d="M722.27,-358.5C837.78,-340.85 1109.89,-298.26 1337,-255 1338.24,-254.76 1339.49,-254.52 1340.76,-254.27"/>
<polygon fill="midnightblue" stroke="midnightblue" points="1341.47,-257.7 1350.57,-252.28 1340.07,-250.84 1341.47,-257.7"/>
</g>
<!-- Node3 -->
<g id="node3" class="node">
<title>Node3</title>
<g id="a_node3"><a xlink:href="types_2base_8h.html" target="_top" xlink:title=" ">
<polygon fill="white" stroke="red" points="793,-56.5 793,-75.5 923,-75.5 923,-56.5 793,-56.5"/>
<text text-anchor="middle" x="858" y="-63.5" font-family="Helvetica,sans-Serif" font-size="10.00">emlabcpp/types/base.h</text>
</a>
</g>
</g>
<!-- Node2&#45;&gt;Node3 -->
<g id="edge2" class="edge">
<title>Node2&#45;&gt;Node3</title>
<path fill="none" stroke="midnightblue" d="M770.71,-112.32C787.31,-103.7 813,-90.36 832.22,-80.39"/>
<polygon fill="midnightblue" stroke="midnightblue" points="834.07,-83.37 841.33,-75.65 830.84,-77.16 834.07,-83.37"/>
</g>
<!-- Node10 -->
<g id="node6" class="node">
<title>Node10</title>
<g id="a_node6"><a xlink:title=" ">
<polygon fill="white" stroke="#bfbfbf" points="643,-56.5 643,-75.5 703,-75.5 703,-56.5 643,-56.5"/>
<text text-anchor="middle" x="673" y="-63.5" font-family="Helvetica,sans-Serif" font-size="10.00">concepts</text>
</a>
</g>
</g>
<!-- Node2&#45;&gt;Node10 -->
<g id="edge5" class="edge">
<title>Node2&#45;&gt;Node10</title>
<path fill="none" stroke="midnightblue" d="M740.99,-112.32C728.47,-103.98 709.32,-91.21 694.53,-81.35"/>
<polygon fill="midnightblue" stroke="midnightblue" points="696.24,-78.29 685.98,-75.65 692.36,-84.11 696.24,-78.29"/>
</g>
<!-- Node11 -->
<g id="node7" class="node">
<title>Node11</title>
<g id="a_node7"><a xlink:title=" ">
<polygon fill="white" stroke="#bfbfbf" points="721.5,-56.5 721.5,-75.5 774.5,-75.5 774.5,-56.5 721.5,-56.5"/>
<text text-anchor="middle" x="748" y="-63.5" font-family="Helvetica,sans-Serif" font-size="10.00">iterator</text>
</a>
</g>
</g>
<!-- Node2&#45;&gt;Node11 -->
<g id="edge6" class="edge">
<title>Node2&#45;&gt;Node11</title>
<path fill="none" stroke="midnightblue" d="M753.01,-112.08C752.21,-104.93 751.07,-94.64 750.08,-85.69"/>
<polygon fill="midnightblue" stroke="midnightblue" points="753.56,-85.3 748.97,-75.75 746.6,-86.08 753.56,-85.3"/>
</g>
<!-- Node12 -->
<g id="node8" class="node">
<title>Node12</title>
<g id="a_node8"><a xlink:title=" ">
<polygon fill="white" stroke="#bfbfbf" points="1087.5,-56.5 1087.5,-75.5 1138.5,-75.5 1138.5,-56.5 1087.5,-56.5"/>
<text text-anchor="middle" x="1113" y="-63.5" font-family="Helvetica,sans-Serif" font-size="10.00">variant</text>
</a>
</g>
</g>
<!-- Node2&#45;&gt;Node12 -->
<g id="edge7" class="edge">
<title>Node2&#45;&gt;Node12</title>
<path fill="none" stroke="midnightblue" d="M810.88,-112.44C885.64,-101.2 1014.76,-81.78 1077.17,-72.39"/>
<polygon fill="midnightblue" stroke="midnightblue" points="1077.94,-75.81 1087.31,-70.86 1076.9,-68.89 1077.94,-75.81"/>
</g>
<!-- Node7 -->
<g id="node4" class="node">
<title>Node7</title>
<g id="a_node4"><a xlink:title=" ">
<polygon fill="white" stroke="#bfbfbf" points="952.5,-0.5 952.5,-19.5 993.5,-19.5 993.5,-0.5 952.5,-0.5"/>
<text text-anchor="middle" x="973" y="-7.5" font-family="Helvetica,sans-Serif" font-size="10.00">tuple</text>
</a>
</g>
</g>
<!-- Node3&#45;&gt;Node7 -->
<g id="edge3" class="edge">
<title>Node3&#45;&gt;Node7</title>
<path fill="none" stroke="midnightblue" d="M876.22,-56.44C894.9,-47.68 924.16,-33.94 945.62,-23.86"/>
<polygon fill="midnightblue" stroke="midnightblue" points="947.3,-26.93 954.86,-19.52 944.32,-20.6 947.3,-26.93"/>
</g>
<!-- Node3&#45;&gt;Node8 -->
<g id="edge4" class="edge">
<title>Node3&#45;&gt;Node8</title>
<path fill="none" stroke="midnightblue" d="M792.98,-56.97C789.61,-56.63 786.26,-56.3 783,-56 534.95,-33.2 236.6,-18.19 125.01,-13.01"/>
<polygon fill="midnightblue" stroke="midnightblue" points="124.95,-9.51 114.8,-12.54 124.63,-16.5 124.95,-9.51"/>
</g>
<!-- Node14 -->
<g id="node10" class="node">
<title>Node14</title>
<g id="a_node10"><a xlink:title=" ">
<polygon fill="white" stroke="#bfbfbf" points="1425.5,-235.5 1425.5,-254.5 1498.5,-254.5 1498.5,-235.5 1425.5,-235.5"/>
<text text-anchor="middle" x="1462" y="-242.5" font-family="Helvetica,sans-Serif" font-size="10.00">string_view</text>
</a>
</g>
</g>
<!-- Node13&#45;&gt;Node14 -->
<g id="edge9" class="edge">
<title>Node13&#45;&gt;Node14</title>
<path fill="none" stroke="midnightblue" d="M1346.02,-291.4C1371.64,-281.37 1405.73,-268.03 1430.31,-258.4"/>
<polygon fill="midnightblue" stroke="midnightblue" points="1431.85,-261.56 1439.88,-254.66 1429.29,-255.04 1431.85,-261.56"/>
</g>
<!-- Node15&#45;&gt;Node2 -->
<g id="edge11" class="edge">
<title>Node15&#45;&gt;Node2</title>
<path fill="none" stroke="midnightblue" d="M663.73,-291.32C660.25,-264.83 656.37,-206.98 681,-168 690.07,-153.65 705.54,-143.15 719.91,-135.93"/>
<polygon fill="midnightblue" stroke="midnightblue" points="721.53,-139.04 729.12,-131.64 718.58,-132.69 721.53,-139.04"/>
</g>
<!-- Node15&#45;&gt;Node7 -->
<g id="edge34" class="edge">
<title>Node15&#45;&gt;Node7</title>
<path fill="none" stroke="midnightblue" d="M732.52,-301.78C887.68,-292.87 1262.14,-269.94 1285,-255 1314.8,-235.53 1323,-220.1 1323,-184.5 1323,-184.5 1323,-184.5 1323,-121 1323,-54.34 1089.05,-23.15 1003.69,-13.99"/>
<polygon fill="midnightblue" stroke="midnightblue" points="1003.9,-10.49 993.59,-12.94 1003.17,-17.46 1003.9,-10.49"/>
</g>
<!-- Node15&#45;&gt;Node12 -->
<g id="edge36" class="edge">
<title>Node15&#45;&gt;Node12</title>
<path fill="none" stroke="midnightblue" d="M732.73,-302.29C885.34,-294.61 1248.15,-274.42 1266,-255 1323.47,-192.49 1195.31,-111.73 1138.43,-80.32"/>
<polygon fill="midnightblue" stroke="midnightblue" points="1140.09,-77.24 1129.63,-75.55 1136.75,-83.39 1140.09,-77.24"/>
</g>
<!-- Node16 -->
<g id="node12" class="node">
<title>Node16</title>
<g id="a_node12"><a xlink:href="enum_8h.html" target="_top" xlink:title=" ">
<polygon fill="white" stroke="black" points="28,-112.5 28,-131.5 132,-131.5 132,-112.5 28,-112.5"/>
<text text-anchor="middle" x="80" y="-119.5" font-family="Helvetica,sans-Serif" font-size="10.00">emlabcpp/enum.h</text>
</a>
</g>
</g>
<!-- Node15&#45;&gt;Node16 -->
<g id="edge12" class="edge">
<title>Node15&#45;&gt;Node16</title>
<path fill="none" stroke="midnightblue" d="M599.49,-304.26C456.64,-300.94 130.49,-289.61 95,-255 64.68,-225.43 70.14,-170.37 75.65,-141.6"/>
<polygon fill="midnightblue" stroke="midnightblue" points="79.11,-142.16 77.76,-131.65 72.26,-140.7 79.11,-142.16"/>
</g>
<!-- Node17 -->
<g id="node13" class="node">
<title>Node17</title>
<g id="a_node13"><a xlink:href="decompose_8h.html" target="_top" xlink:title=" ">
<polygon fill="white" stroke="black" points="906.5,-168.5 906.5,-198.5 1039.5,-198.5 1039.5,-168.5 906.5,-168.5"/>
<text text-anchor="start" x="914.5" y="-186.5" font-family="Helvetica,sans-Serif" font-size="10.00">emlabcpp/experimental</text>
<text text-anchor="middle" x="973" y="-175.5" font-family="Helvetica,sans-Serif" font-size="10.00">/decompose.h</text>
</a>
</g>
</g>
<!-- Node15&#45;&gt;Node17 -->
<g id="edge14" class="edge">
<title>Node15&#45;&gt;Node17</title>
<path fill="none" stroke="midnightblue" d="M732.54,-300.72C804.2,-294.32 912.25,-280.68 944,-255 958.13,-243.57 965.44,-224.12 969.19,-208.54"/>
<polygon fill="midnightblue" stroke="midnightblue" points="972.67,-209.02 971.25,-198.52 965.81,-207.61 972.67,-209.02"/>
</g>
<!-- Node18 -->
<g id="node14" class="node">
<title>Node18</title>
<g id="a_node14"><a xlink:href="match_8h.html" target="_top" xlink:title=" ">
<polygon fill="white" stroke="red" points="811.5,-235.5 811.5,-254.5 918.5,-254.5 918.5,-235.5 811.5,-235.5"/>
<text text-anchor="middle" x="865" y="-242.5" font-family="Helvetica,sans-Serif" font-size="10.00">emlabcpp/match.h</text>
</a>
</g>
</g>
<!-- Node15&#45;&gt;Node18 -->
<g id="edge17" class="edge">
<title>Node15&#45;&gt;Node18</title>
<path fill="none" stroke="midnightblue" d="M712.91,-291.47C747.69,-281.08 794.5,-267.08 826.97,-257.37"/>
<polygon fill="midnightblue" stroke="midnightblue" points="827.97,-260.72 836.55,-254.51 825.97,-254.02 827.97,-260.72"/>
</g>
<!-- Node20 -->
<g id="node15" class="node">
<title>Node20</title>
<g id="a_node15"><a xlink:href="min__max_8h.html" target="_top" xlink:title=" ">
<polygon fill="white" stroke="red" points="1013,-235.5 1013,-254.5 1135,-254.5 1135,-235.5 1013,-235.5"/>
<text text-anchor="middle" x="1074" y="-242.5" font-family="Helvetica,sans-Serif" font-size="10.00">emlabcpp/min_max.h</text>
</a>
</g>
</g>
<!-- Node15&#45;&gt;Node20 -->
<g id="edge18" class="edge">
<title>Node15&#45;&gt;Node20</title>
<path fill="none" stroke="midnightblue" d="M732.92,-295.74C808.21,-284.76 929.87,-267.02 1005.72,-255.96"/>
<polygon fill="midnightblue" stroke="midnightblue" points="1006.26,-259.42 1015.65,-254.51 1005.25,-252.49 1006.26,-259.42"/>
</g>
<!-- Node22 -->
<g id="node16" class="node">
<title>Node22</title>
<g id="a_node16"><a xlink:href="range_8h.html" target="_top" xlink:title=" ">
<polygon fill="white" stroke="red" points="1153,-235.5 1153,-254.5 1257,-254.5 1257,-235.5 1153,-235.5"/>
<text text-anchor="middle" x="1205" y="-242.5" font-family="Helvetica,sans-Serif" font-size="10.00">emlabcpp/range.h</text>
</a>
</g>
</g>
<!-- Node15&#45;&gt;Node22 -->
<g id="edge19" class="edge">
<title>Node15&#45;&gt;Node22</title>
<path fill="none" stroke="midnightblue" d="M732.6,-299.34C823.07,-290.77 990.09,-274.27 1142.74,-255.12"/>
<polygon fill="midnightblue" stroke="midnightblue" points="1143.29,-258.57 1152.78,-253.85 1142.42,-251.63 1143.29,-258.57"/>
</g>
<!-- Node26 -->
<g id="node17" class="node">
<title>Node26</title>
<g id="a_node17"><a xlink:href="types_8h.html" target="_top" xlink:title=" ">
<polygon fill="white" stroke="red" points="772,-174 772,-193 876,-193 876,-174 772,-174"/>
<text text-anchor="middle" x="824" y="-181" font-family="Helvetica,sans-Serif" font-size="10.00">emlabcpp/types.h</text>
</a>
</g>
</g>
<!-- Node15&#45;&gt;Node26 -->
<g id="edge20" class="edge">
<title>Node15&#45;&gt;Node26</title>
<path fill="none" stroke="midnightblue" d="M732.62,-302C801.65,-296.82 902.8,-284.33 927,-255 948.77,-228.61 904.51,-207.95 867.38,-196"/>
<polygon fill="midnightblue" stroke="midnightblue" points="868.24,-192.6 857.65,-193 866.18,-199.29 868.24,-192.6"/>
</g>
<!-- Node25 -->
<g id="node18" class="node">
<title>Node25</title>
<g id="a_node18"><a xlink:href="view_8h.html" target="_top" xlink:title=" ">
<polygon fill="white" stroke="black" points="694.5,-235.5 694.5,-254.5 793.5,-254.5 793.5,-235.5 694.5,-235.5"/>
<text text-anchor="middle" x="744" y="-242.5" font-family="Helvetica,sans-Serif" font-size="10.00">emlabcpp/view.h</text>
</a>
</g>
</g>
<!-- Node15&#45;&gt;Node25 -->
<g id="edge23" class="edge">
<title>Node15&#45;&gt;Node25</title>
<path fill="none" stroke="midnightblue" d="M684.48,-291.4C696.52,-282.22 712.2,-270.26 724.44,-260.92"/>
<polygon fill="midnightblue" stroke="midnightblue" points="726.82,-263.51 732.65,-254.66 722.58,-257.94 726.82,-263.51"/>
</g>
<!-- Node28 -->
<g id="node19" class="node">
<title>Node28</title>
<g id="a_node19"><a xlink:title=" ">
<polygon fill="white" stroke="#bfbfbf" points="690,-174 690,-193 730,-193 730,-174 690,-174"/>
<text text-anchor="middle" x="710" y="-181" font-family="Helvetica,sans-Serif" font-size="10.00">span</text>
</a>
</g>
</g>
<!-- Node15&#45;&gt;Node28 -->
<g id="edge33" class="edge">
<title>Node15&#45;&gt;Node28</title>
<path fill="none" stroke="midnightblue" d="M668.93,-291.47C672.13,-277.05 677.78,-254.09 685,-235 689.26,-223.73 695.21,-211.61 700.24,-202.07"/>
<polygon fill="midnightblue" stroke="midnightblue" points="703.35,-203.66 705.03,-193.2 697.2,-200.33 703.35,-203.66"/>
</g>
<!-- Node29 -->
<g id="node20" class="node">
<title>Node29</title>
<g id="a_node20"><a xlink:title=" ">
<polygon fill="white" stroke="#bfbfbf" points="104,-235.5 104,-254.5 148,-254.5 148,-235.5 104,-235.5"/>
<text text-anchor="middle" x="126" y="-242.5" font-family="Helvetica,sans-Serif" font-size="10.00">bitset</text>
</a>
</g>
</g>
<!-- Node15&#45;&gt;Node29 -->
<g id="edge26" class="edge">
<title>Node15&#45;&gt;Node29</title>
<path fill="none" stroke="midnightblue" d="M599.14,-302.78C503.31,-298.02 321.38,-285.78 158.44,-254.95"/>
<polygon fill="midnightblue" stroke="midnightblue" points="158.71,-251.43 148.23,-252.98 157.39,-258.31 158.71,-251.43"/>
</g>
<!-- Node30 -->
<g id="node21" class="node">
<title>Node30</title>
<g id="a_node21"><a xlink:title=" ">
<polygon fill="white" stroke="#bfbfbf" points="166.5,-235.5 166.5,-254.5 227.5,-254.5 227.5,-235.5 166.5,-235.5"/>
<text text-anchor="middle" x="197" y="-242.5" font-family="Helvetica,sans-Serif" font-size="10.00">charconv</text>
</a>
</g>
</g>
<!-- Node15&#45;&gt;Node30 -->
<g id="edge27" class="edge">
<title>Node15&#45;&gt;Node30</title>
<path fill="none" stroke="midnightblue" d="M599.18,-299.81C516.6,-292.29 371.63,-277.5 237.55,-254.92"/>
<polygon fill="midnightblue" stroke="midnightblue" points="237.96,-251.44 227.51,-253.21 236.78,-258.34 237.96,-251.44"/>
</g>
<!-- Node31 -->
<g id="node22" class="node">
<title>Node31</title>
<g id="a_node22"><a xlink:title=" ">
<polygon fill="white" stroke="#bfbfbf" points="246,-235.5 246,-254.5 296,-254.5 296,-235.5 246,-235.5"/>
<text text-anchor="middle" x="271" y="-242.5" font-family="Helvetica,sans-Serif" font-size="10.00">chrono</text>
</a>
</g>
</g>
<!-- Node15&#45;&gt;Node31 -->
<g id="edge28" class="edge">
<title>Node15&#45;&gt;Node31</title>
<path fill="none" stroke="midnightblue" d="M599.39,-298.6C528.85,-290.75 414.1,-276.44 306.25,-255.05"/>
<polygon fill="midnightblue" stroke="midnightblue" points="306.67,-251.56 296.17,-253.02 305.29,-258.42 306.67,-251.56"/>
</g>
<!-- Node32 -->
<g id="node23" class="node">
<title>Node32</title>
<g id="a_node23"><a xlink:title=" ">
<polygon fill="white" stroke="#bfbfbf" points="314,-235.5 314,-254.5 382,-254.5 382,-235.5 314,-235.5"/>
<text text-anchor="middle" x="348" y="-242.5" font-family="Helvetica,sans-Serif" font-size="10.00">filesystem</text>
</a>
</g>
</g>
<!-- Node15&#45;&gt;Node32 -->
<g id="edge29" class="edge">
<title>Node15&#45;&gt;Node32</title>
<path fill="none" stroke="midnightblue" d="M599.23,-293.71C545.77,-284.17 468.61,-270.15 392.07,-255.17"/>
<polygon fill="midnightblue" stroke="midnightblue" points="392.74,-251.74 382.25,-253.25 391.39,-258.61 392.74,-251.74"/>
</g>
<!-- Node33 -->
<g id="node24" class="node">
<title>Node33</title>
<g id="a_node24"><a xlink:title=" ">
<polygon fill="white" stroke="#bfbfbf" points="400,-235.5 400,-254.5 438,-254.5 438,-235.5 400,-235.5"/>
<text text-anchor="middle" x="419" y="-242.5" font-family="Helvetica,sans-Serif" font-size="10.00">map</text>
</a>
</g>
</g>
<!-- Node15&#45;&gt;Node33 -->
<g id="edge30" class="edge">
<title>Node15&#45;&gt;Node33</title>
<path fill="none" stroke="midnightblue" d="M599.02,-291.59C557.86,-282.69 503.88,-270.37 447.94,-255.09"/>
<polygon fill="midnightblue" stroke="midnightblue" points="448.79,-251.7 438.22,-252.41 446.93,-258.44 448.79,-251.7"/>
</g>
<!-- Node15&#45;&gt;Node34 -->
<g id="edge31" class="edge">
<title>Node15&#45;&gt;Node34</title>
<path fill="none" stroke="midnightblue" d="M732.52,-303.49C853.41,-299.17 1117.02,-286.7 1337,-255 1338.25,-254.82 1339.51,-254.63 1340.78,-254.42"/>
<polygon fill="midnightblue" stroke="midnightblue" points="1341.42,-257.86 1350.63,-252.63 1340.16,-250.97 1341.42,-257.86"/>
</g>
<!-- Node35 -->
<g id="node26" class="node">
<title>Node35</title>
<g id="a_node26"><a xlink:title=" ">
<polygon fill="white" stroke="#bfbfbf" points="456,-235.5 456,-254.5 488,-254.5 488,-235.5 456,-235.5"/>
<text text-anchor="middle" x="472" y="-242.5" font-family="Helvetica,sans-Serif" font-size="10.00">set</text>
</a>
</g>
</g>
<!-- Node15&#45;&gt;Node35 -->
<g id="edge32" class="edge">
<title>Node15&#45;&gt;Node35</title>
<path fill="none" stroke="midnightblue" d="M616.23,-291.41C584.69,-282.3 542.85,-269.9 497.76,-255.13"/>
<polygon fill="midnightblue" stroke="midnightblue" points="498.69,-251.75 488.09,-251.94 496.49,-258.4 498.69,-251.75"/>
</g>
<!-- Node36 -->
<g id="node27" class="node">
<title>Node36</title>
<g id="a_node27"><a xlink:title=" ">
<polygon fill="white" stroke="#bfbfbf" points="506.5,-235.5 506.5,-254.5 599.5,-254.5 599.5,-235.5 506.5,-235.5"/>
<text text-anchor="middle" x="553" y="-242.5" font-family="Helvetica,sans-Serif" font-size="10.00">unordered_map</text>
</a>
</g>
</g>
<!-- Node15&#45;&gt;Node36 -->
<g id="edge35" class="edge">
<title>Node15&#45;&gt;Node36</title>
<path fill="none" stroke="midnightblue" d="M639.22,-291.4C620.94,-281.77 596.85,-269.09 578.79,-259.58"/>
<polygon fill="midnightblue" stroke="midnightblue" points="579.92,-256.22 569.44,-254.66 576.66,-262.41 579.92,-256.22"/>
</g>
<!-- Node16&#45;&gt;Node8 -->
<g id="edge13" class="edge">
<title>Node16&#45;&gt;Node8</title>
<path fill="none" stroke="midnightblue" d="M80,-112.37C80,-94.62 80,-53.67 80,-29.6"/>
<polygon fill="midnightblue" stroke="midnightblue" points="83.5,-29.59 80,-19.59 76.5,-29.59 83.5,-29.59"/>
</g>
<!-- Node17&#45;&gt;Node2 -->
<g id="edge15" class="edge">
<title>Node17&#45;&gt;Node2</title>
<path fill="none" stroke="midnightblue" d="M921.38,-168.47C882.94,-158.03 831.14,-143.96 795.4,-134.25"/>
<polygon fill="midnightblue" stroke="midnightblue" points="795.88,-130.75 785.31,-131.51 794.04,-137.51 795.88,-130.75"/>
</g>
<!-- Node17&#45;&gt;Node7 -->
<g id="edge16" class="edge">
<title>Node17&#45;&gt;Node7</title>
<path fill="none" stroke="midnightblue" d="M973,-168.47C973,-137.7 973,-64.33 973,-29.7"/>
<polygon fill="midnightblue" stroke="midnightblue" points="976.5,-29.56 973,-19.56 969.5,-29.56 976.5,-29.56"/>
</g>
<!-- Node26&#45;&gt;Node2 -->
<g id="edge21" class="edge">
<title>Node26&#45;&gt;Node2</title>
<path fill="none" stroke="midnightblue" d="M813.97,-173.98C802.95,-164.61 785.04,-149.38 771.66,-138.01"/>
<polygon fill="midnightblue" stroke="midnightblue" points="773.9,-135.32 764.01,-131.51 769.36,-140.65 773.9,-135.32"/>
</g>
<!-- Node26&#45;&gt;Node3 -->
<g id="edge22" class="edge">
<title>Node26&#45;&gt;Node3</title>
<path fill="none" stroke="midnightblue" d="M826.56,-173.82C832.04,-155.17 845.06,-110.94 852.52,-85.63"/>
<polygon fill="midnightblue" stroke="midnightblue" points="855.95,-86.36 855.41,-75.78 849.23,-84.39 855.95,-86.36"/>
</g>
<!-- Node25&#45;&gt;Node26 -->
<g id="edge24" class="edge">
<title>Node25&#45;&gt;Node26</title>
<path fill="none" stroke="midnightblue" d="M755.46,-235.48C768.17,-226.02 788.91,-210.6 804.25,-199.19"/>
<polygon fill="midnightblue" stroke="midnightblue" points="806.62,-201.79 812.56,-193.01 802.45,-196.17 806.62,-201.79"/>
</g>
<!-- Node25&#45;&gt;Node28 -->
<g id="edge25" class="edge">
<title>Node25&#45;&gt;Node28</title>
<path fill="none" stroke="midnightblue" d="M739.13,-235.48C734.13,-226.73 726.21,-212.87 719.89,-201.81"/>
<polygon fill="midnightblue" stroke="midnightblue" points="722.86,-199.96 714.86,-193.01 716.78,-203.43 722.86,-199.96"/>
</g>
</g>
</svg>
