<?xml version="1.0" encoding="UTF-8" standalone="no"?>
<!DOCTYPE svg PUBLIC "-//W3C//DTD SVG 1.1//EN"
 "http://www.w3.org/Graphics/SVG/1.1/DTD/svg11.dtd">
<!-- Generated by graphviz version 2.43.0 (0)
 -->
<!-- Title: include/emlabcpp/bounded_view.h Pages: 1 -->
<svg width="287pt" height="207pt"
 viewBox="0.00 0.00 286.88 207.00" xmlns="http://www.w3.org/2000/svg" xmlns:xlink="http://www.w3.org/1999/xlink">
<g id="graph0" class="graph" transform="scale(1 1) rotate(0) translate(4 203)">
<title>include/emlabcpp/bounded_view.h</title>
<polygon fill="white" stroke="transparent" points="-4,4 -4,-203 282.88,-203 282.88,4 -4,4"/>
<!-- Node1 -->
<g id="node1" class="node">
<title>Node1</title>
<g id="a_node1"><a xlink:title=" ">
<polygon fill="#bfbfbf" stroke="black" points="58.88,-168.5 58.88,-198.5 206.88,-198.5 206.88,-168.5 58.88,-168.5"/>
<text text-anchor="start" x="66.88" y="-186.5" font-family="Helvetica,sans-Serif" font-size="10.00">include/emlabcpp/bounded</text>
<text text-anchor="middle" x="132.88" y="-175.5" font-family="Helvetica,sans-Serif" font-size="10.00">_view.h</text>
</a>
</g>
</g>
<!-- Node2 -->
<g id="node2" class="node">
<title>Node2</title>
<g id="a_node2"><a xlink:href="bounded_8h.html" target="_top" xlink:title=" ">
<polygon fill="white" stroke="black" points="10.38,-112.5 10.38,-131.5 129.38,-131.5 129.38,-112.5 10.38,-112.5"/>
<text text-anchor="middle" x="69.88" y="-119.5" font-family="Helvetica,sans-Serif" font-size="10.00">emlabcpp/bounded.h</text>
</a>
</g>
</g>
<!-- Node1&#45;&gt;Node2 -->
<g id="edge1" class="edge">
<title>Node1&#45;&gt;Node2</title>
<path fill="none" stroke="midnightblue" d="M117.95,-168.4C108.51,-159.49 96.3,-147.95 86.55,-138.74"/>
<polygon fill="midnightblue" stroke="midnightblue" points="88.72,-135.98 79.05,-131.66 83.91,-141.07 88.72,-135.98"/>
</g>
<!-- Node15 -->
<g id="node6" class="node">
<title>Node15</title>
<g id="a_node6"><a xlink:href="view_8h.html" target="_top" xlink:title=" ">
<polygon fill="white" stroke="black" points="162.38,-112.5 162.38,-131.5 261.38,-131.5 261.38,-112.5 162.38,-112.5"/>
<text text-anchor="middle" x="211.88" y="-119.5" font-family="Helvetica,sans-Serif" font-size="10.00">emlabcpp/view.h</text>
</a>
</g>
</g>
<!-- Node1&#45;&gt;Node15 -->
<g id="edge5" class="edge">
<title>Node1&#45;&gt;Node15</title>
<path fill="none" stroke="midnightblue" d="M151.6,-168.4C163.79,-159.22 179.67,-147.26 192.07,-137.92"/>
<polygon fill="midnightblue" stroke="midnightblue" points="194.5,-140.47 200.38,-131.66 190.29,-134.88 194.5,-140.47"/>
</g>
<!-- Node3 -->
<g id="node3" class="node">
<title>Node3</title>
<g id="a_node3"><a xlink:href="concepts_8h.html" target="_top" xlink:title=" ">
<polygon fill="white" stroke="red" points="45.88,-0.5 45.88,-19.5 165.88,-19.5 165.88,-0.5 45.88,-0.5"/>
<text text-anchor="middle" x="105.88" y="-7.5" font-family="Helvetica,sans-Serif" font-size="10.00">emlabcpp/concepts.h</text>
</a>
</g>
</g>
<!-- Node2&#45;&gt;Node3 -->
<g id="edge2" class="edge">
<title>Node2&#45;&gt;Node3</title>
<path fill="none" stroke="midnightblue" d="M49.2,-112.48C24.58,-101.05 -11.4,-79.44 3.88,-56 14.36,-39.92 32.02,-29.55 49.73,-22.87"/>
<polygon fill="midnightblue" stroke="midnightblue" points="51.19,-26.07 59.52,-19.53 48.93,-19.45 51.19,-26.07"/>
</g>
<!-- Node14 -->
<g id="node4" class="node">
<title>Node14</title>
<g id="a_node4"><a xlink:title=" ">
<polygon fill="white" stroke="#bfbfbf" points="12.88,-56.5 12.88,-75.5 68.88,-75.5 68.88,-56.5 12.88,-56.5"/>
<text text-anchor="middle" x="40.88" y="-63.5" font-family="Helvetica,sans-Serif" font-size="10.00">optional</text>
</a>
</g>
</g>
<!-- Node2&#45;&gt;Node14 -->
<g id="edge3" class="edge">
<title>Node2&#45;&gt;Node14</title>
<path fill="none" stroke="midnightblue" d="M65.09,-112.08C61.12,-104.69 55.35,-93.95 50.45,-84.81"/>
<polygon fill="midnightblue" stroke="midnightblue" points="53.39,-82.91 45.58,-75.75 47.23,-86.22 53.39,-82.91"/>
</g>
<!-- Node9 -->
<g id="node5" class="node">
<title>Node9</title>
<g id="a_node5"><a xlink:title=" ">
<polygon fill="white" stroke="#bfbfbf" points="87.38,-56.5 87.38,-75.5 156.38,-75.5 156.38,-56.5 87.38,-56.5"/>
<text text-anchor="middle" x="121.88" y="-63.5" font-family="Helvetica,sans-Serif" font-size="10.00">type_traits</text>
</a>
</g>
</g>
<!-- Node2&#45;&gt;Node9 -->
<g id="edge4" class="edge">
<title>Node2&#45;&gt;Node9</title>
<path fill="none" stroke="midnightblue" d="M78.47,-112.08C86.04,-104.22 97.26,-92.57 106.39,-83.08"/>
<polygon fill="midnightblue" stroke="midnightblue" points="109.04,-85.38 113.45,-75.75 104,-80.53 109.04,-85.38"/>
</g>
<!-- Node16 -->
<g id="node7" class="node">
<title>Node16</title>
<g id="a_node7"><a xlink:href="types_8h.html" target="_top" xlink:title=" ">
<polygon fill="white" stroke="red" points="174.88,-56.5 174.88,-75.5 278.88,-75.5 278.88,-56.5 174.88,-56.5"/>
<text text-anchor="middle" x="226.88" y="-63.5" font-family="Helvetica,sans-Serif" font-size="10.00">emlabcpp/types.h</text>
</a>
</g>
</g>
<!-- Node15&#45;&gt;Node16 -->
<g id="edge6" class="edge">
<title>Node15&#45;&gt;Node16</title>
<path fill="none" stroke="midnightblue" d="M214.36,-112.08C216.37,-104.85 219.27,-94.41 221.77,-85.4"/>
<polygon fill="midnightblue" stroke="midnightblue" points="225.14,-86.32 224.45,-75.75 218.4,-84.45 225.14,-86.32"/>
</g>
<!-- Node16&#45;&gt;Node3 -->
<g id="edge7" class="edge">
<title>Node16&#45;&gt;Node3</title>
<path fill="none" stroke="midnightblue" d="M207.71,-56.44C187.97,-47.64 156.99,-33.81 134.39,-23.72"/>
<polygon fill="midnightblue" stroke="midnightblue" points="135.52,-20.4 124.96,-19.52 132.67,-26.79 135.52,-20.4"/>
</g>
</g>
</svg>
