<?xml version="1.0" encoding="UTF-8" standalone="no"?>
<!DOCTYPE svg PUBLIC "-//W3C//DTD SVG 1.1//EN"
 "http://www.w3.org/Graphics/SVG/1.1/DTD/svg11.dtd">
<!-- Generated by graphviz version 2.43.0 (0)
 -->
<!-- Title: include/emlabcpp/experimental/bounded_view.h Pages: 1 -->
<svg width="377pt" height="218pt"
 viewBox="0.00 0.00 376.50 218.00" xmlns="http://www.w3.org/2000/svg" xmlns:xlink="http://www.w3.org/1999/xlink">
<g id="graph0" class="graph" transform="scale(1 1) rotate(0) translate(4 214)">
<title>include/emlabcpp/experimental/bounded_view.h</title>
<polygon fill="white" stroke="transparent" points="-4,4 -4,-214 372.5,-214 372.5,4 -4,4"/>
<!-- Node1 -->
<g id="node1" class="node">
<title>Node1</title>
<g id="a_node1"><a xlink:title=" ">
<polygon fill="#bfbfbf" stroke="black" points="162.5,-179.5 162.5,-209.5 333.5,-209.5 333.5,-179.5 162.5,-179.5"/>
<text text-anchor="start" x="170.5" y="-197.5" font-family="Helvetica,sans-Serif" font-size="10.00">include/emlabcpp/experimental</text>
<text text-anchor="middle" x="248" y="-186.5" font-family="Helvetica,sans-Serif" font-size="10.00">/bounded_view.h</text>
</a>
</g>
</g>
<!-- Node2 -->
<g id="node2" class="node">
<title>Node2</title>
<g id="a_node2"><a xlink:href="bounded_8h.html" target="_top" xlink:title=" ">
<polygon fill="white" stroke="black" points="93.5,-123.5 93.5,-142.5 212.5,-142.5 212.5,-123.5 93.5,-123.5"/>
<text text-anchor="middle" x="153" y="-130.5" font-family="Helvetica,sans-Serif" font-size="10.00">emlabcpp/bounded.h</text>
</a>
</g>
</g>
<!-- Node1&#45;&gt;Node2 -->
<g id="edge1" class="edge">
<title>Node1&#45;&gt;Node2</title>
<path fill="none" stroke="midnightblue" d="M225.49,-179.4C210.4,-169.95 190.61,-157.56 175.53,-148.11"/>
<polygon fill="midnightblue" stroke="midnightblue" points="177.16,-145 166.82,-142.66 173.44,-150.93 177.16,-145"/>
</g>
<!-- Node27 -->
<g id="node5" class="node">
<title>Node27</title>
<g id="a_node5"><a xlink:href="view_8h.html" target="_top" xlink:title=" ">
<polygon fill="white" stroke="red" points="269.5,-0.5 269.5,-19.5 368.5,-19.5 368.5,-0.5 269.5,-0.5"/>
<text text-anchor="middle" x="319" y="-7.5" font-family="Helvetica,sans-Serif" font-size="10.00">emlabcpp/view.h</text>
</a>
</g>
</g>
<!-- Node1&#45;&gt;Node27 -->
<g id="edge9" class="edge">
<title>Node1&#45;&gt;Node27</title>
<path fill="none" stroke="midnightblue" d="M262.69,-179.31C281.17,-160.31 311.95,-124.64 324,-87 330.04,-68.15 327.3,-45.36 323.99,-29.69"/>
<polygon fill="midnightblue" stroke="midnightblue" points="327.33,-28.6 321.6,-19.69 320.52,-30.23 327.33,-28.6"/>
</g>
<!-- Node3 -->
<g id="node3" class="node">
<title>Node3</title>
<g id="a_node3"><a xlink:href="concepts_8h.html" target="_top" xlink:title=" ">
<polygon fill="white" stroke="red" points="0,-0.5 0,-19.5 120,-19.5 120,-0.5 0,-0.5"/>
<text text-anchor="middle" x="60" y="-7.5" font-family="Helvetica,sans-Serif" font-size="10.00">emlabcpp/concepts.h</text>
</a>
</g>
</g>
<!-- Node2&#45;&gt;Node3 -->
<g id="edge2" class="edge">
<title>Node2&#45;&gt;Node3</title>
<path fill="none" stroke="midnightblue" d="M102.49,-123.49C81.32,-117.15 58.71,-106.14 46,-87 34.44,-69.6 42.12,-45.26 49.91,-28.85"/>
<polygon fill="midnightblue" stroke="midnightblue" points="53.11,-30.28 54.61,-19.79 46.9,-27.06 53.11,-30.28"/>
</g>
<!-- Node14 -->
<g id="node4" class="node">
<title>Node14</title>
<g id="a_node4"><a xlink:href="pretty__printer_8h.html" target="_top" xlink:title=" ">
<polygon fill="white" stroke="red" points="181.5,-56.5 181.5,-86.5 314.5,-86.5 314.5,-56.5 181.5,-56.5"/>
<text text-anchor="start" x="189.5" y="-74.5" font-family="Helvetica,sans-Serif" font-size="10.00">emlabcpp/experimental</text>
<text text-anchor="middle" x="248" y="-63.5" font-family="Helvetica,sans-Serif" font-size="10.00">/pretty_printer.h</text>
</a>
</g>
</g>
<!-- Node2&#45;&gt;Node14 -->
<g id="edge3" class="edge">
<title>Node2&#45;&gt;Node14</title>
<path fill="none" stroke="midnightblue" d="M166.61,-123.48C179.72,-115.27 200.01,-102.56 217.05,-91.88"/>
<polygon fill="midnightblue" stroke="midnightblue" points="218.99,-94.8 225.61,-86.52 215.28,-88.86 218.99,-94.8"/>
</g>
<!-- Node34 -->
<g id="node6" class="node">
<title>Node34</title>
<g id="a_node6"><a xlink:title=" ">
<polygon fill="white" stroke="#bfbfbf" points="148,-0.5 148,-19.5 204,-19.5 204,-0.5 148,-0.5"/>
<text text-anchor="middle" x="176" y="-7.5" font-family="Helvetica,sans-Serif" font-size="10.00">optional</text>
</a>
</g>
</g>
<!-- Node2&#45;&gt;Node34 -->
<g id="edge7" class="edge">
<title>Node2&#45;&gt;Node34</title>
<path fill="none" stroke="midnightblue" d="M154.65,-123.3C158.37,-103.76 167.43,-56.06 172.47,-29.55"/>
<polygon fill="midnightblue" stroke="midnightblue" points="175.93,-30.1 174.36,-19.62 169.05,-28.79 175.93,-30.1"/>
</g>
<!-- Node9 -->
<g id="node7" class="node">
<title>Node9</title>
<g id="a_node7"><a xlink:title=" ">
<polygon fill="white" stroke="#bfbfbf" points="55.5,-62 55.5,-81 124.5,-81 124.5,-62 55.5,-62"/>
<text text-anchor="middle" x="90" y="-69" font-family="Helvetica,sans-Serif" font-size="10.00">type_traits</text>
</a>
</g>
</g>
<!-- Node2&#45;&gt;Node9 -->
<g id="edge8" class="edge">
<title>Node2&#45;&gt;Node9</title>
<path fill="none" stroke="midnightblue" d="M143.97,-123.48C134.24,-114.28 118.54,-99.46 106.58,-88.16"/>
<polygon fill="midnightblue" stroke="midnightblue" points="108.68,-85.33 99.01,-81.01 103.88,-90.42 108.68,-85.33"/>
</g>
<!-- Node14&#45;&gt;Node3 -->
<g id="edge4" class="edge">
<title>Node14&#45;&gt;Node3</title>
<path fill="none" stroke="midnightblue" d="M203.45,-56.4C170.96,-46.12 127.46,-32.35 96.91,-22.68"/>
<polygon fill="midnightblue" stroke="midnightblue" points="97.67,-19.25 87.08,-19.57 95.56,-25.93 97.67,-19.25"/>
</g>
<!-- Node14&#45;&gt;Node27 -->
<g id="edge5" class="edge">
<title>Node14&#45;&gt;Node27</title>
<path fill="none" stroke="midnightblue" d="M264.83,-56.4C275.67,-47.31 289.78,-35.49 300.87,-26.19"/>
<polygon fill="midnightblue" stroke="midnightblue" points="303.25,-28.76 308.67,-19.66 298.76,-23.4 303.25,-28.76"/>
</g>
<!-- Node14&#45;&gt;Node34 -->
<g id="edge6" class="edge">
<title>Node14&#45;&gt;Node34</title>
<path fill="none" stroke="midnightblue" d="M230.94,-56.4C219.94,-47.31 205.63,-35.49 194.38,-26.19"/>
<polygon fill="midnightblue" stroke="midnightblue" points="196.41,-23.33 186.48,-19.66 191.96,-28.73 196.41,-23.33"/>
</g>
</g>
</svg>
