<?xml version="1.0" encoding="UTF-8" standalone="no"?>
<!DOCTYPE svg PUBLIC "-//W3C//DTD SVG 1.1//EN"
 "http://www.w3.org/Graphics/SVG/1.1/DTD/svg11.dtd">
<!-- Generated by graphviz version 2.43.0 (0)
 -->
<!-- Title: include/emlabcpp/bounded.h Pages: 1 -->
<svg width="525pt" height="330pt"
 viewBox="0.00 0.00 525.21 330.00" xmlns="http://www.w3.org/2000/svg" xmlns:xlink="http://www.w3.org/1999/xlink">
<g id="graph0" class="graph" transform="scale(1 1) rotate(0) translate(4 326)">
<title>include/emlabcpp/bounded.h</title>
<polygon fill="white" stroke="transparent" points="-4,4 -4,-326 521.21,-326 521.21,4 -4,4"/>
<!-- Node1 -->
<g id="node1" class="node">
<title>Node1</title>
<g id="a_node1"><a xlink:title=" ">
<polygon fill="#bfbfbf" stroke="black" points="153.71,-302.5 153.71,-321.5 310.71,-321.5 310.71,-302.5 153.71,-302.5"/>
<text text-anchor="middle" x="232.21" y="-309.5" font-family="Helvetica,sans-Serif" font-size="10.00">include/emlabcpp/bounded.h</text>
</a>
</g>
</g>
<!-- Node2 -->
<g id="node2" class="node">
<title>Node2</title>
<g id="a_node2"><a xlink:href="concepts_8h.html" target="_top" xlink:title=" ">
<polygon fill="white" stroke="black" points="128.21,-112.5 128.21,-131.5 248.21,-131.5 248.21,-112.5 128.21,-112.5"/>
<text text-anchor="middle" x="188.21" y="-119.5" font-family="Helvetica,sans-Serif" font-size="10.00">emlabcpp/concepts.h</text>
</a>
</g>
</g>
<!-- Node1&#45;&gt;Node2 -->
<g id="edge1" class="edge">
<title>Node1&#45;&gt;Node2</title>
<path fill="none" stroke="midnightblue" d="M229.92,-302.31C224.99,-283.52 213.11,-237.67 204.21,-199 199.73,-179.54 195.08,-157.17 191.96,-141.76"/>
<polygon fill="midnightblue" stroke="midnightblue" points="195.38,-141.03 189.97,-131.92 188.52,-142.41 195.38,-141.03"/>
</g>
<!-- Node8 -->
<g id="node4" class="node">
<title>Node8</title>
<g id="a_node4"><a xlink:title=" ">
<polygon fill="white" stroke="#bfbfbf" points="86.71,-0.5 86.71,-19.5 155.71,-19.5 155.71,-0.5 86.71,-0.5"/>
<text text-anchor="middle" x="121.21" y="-7.5" font-family="Helvetica,sans-Serif" font-size="10.00">type_traits</text>
</a>
</g>
</g>
<!-- Node1&#45;&gt;Node8 -->
<g id="edge16" class="edge">
<title>Node1&#45;&gt;Node8</title>
<path fill="none" stroke="midnightblue" d="M161.66,-302.48C93.4,-289.83 0.21,-258.93 0.21,-184.5 0.21,-184.5 0.21,-184.5 0.21,-121 0.21,-90.9 -0.63,-78.63 19.21,-56 34.12,-38.99 56.68,-28.13 76.79,-21.36"/>
<polygon fill="midnightblue" stroke="midnightblue" points="77.92,-24.67 86.42,-18.35 75.84,-17.99 77.92,-24.67"/>
</g>
<!-- Node13 -->
<g id="node8" class="node">
<title>Node13</title>
<g id="a_node8"><a xlink:href="logging_8h.html" target="_top" xlink:title=" ">
<polygon fill="white" stroke="black" points="260.71,-235.5 260.71,-265.5 393.71,-265.5 393.71,-235.5 260.71,-235.5"/>
<text text-anchor="start" x="268.71" y="-253.5" font-family="Helvetica,sans-Serif" font-size="10.00">emlabcpp/experimental</text>
<text text-anchor="middle" x="327.21" y="-242.5" font-family="Helvetica,sans-Serif" font-size="10.00">/logging.h</text>
</a>
</g>
</g>
<!-- Node1&#45;&gt;Node13 -->
<g id="edge7" class="edge">
<title>Node1&#45;&gt;Node13</title>
<path fill="none" stroke="midnightblue" d="M245.82,-302.48C258.93,-294.27 279.22,-281.56 296.26,-270.88"/>
<polygon fill="midnightblue" stroke="midnightblue" points="298.2,-273.8 304.82,-265.52 294.49,-267.86 298.2,-273.8"/>
</g>
<!-- Node22 -->
<g id="node11" class="node">
<title>Node22</title>
<g id="a_node11"><a xlink:title=" ">
<polygon fill="white" stroke="#bfbfbf" points="461.21,-112.5 461.21,-131.5 517.21,-131.5 517.21,-112.5 461.21,-112.5"/>
<text text-anchor="middle" x="489.21" y="-119.5" font-family="Helvetica,sans-Serif" font-size="10.00">optional</text>
</a>
</g>
</g>
<!-- Node1&#45;&gt;Node22 -->
<g id="edge15" class="edge">
<title>Node1&#45;&gt;Node22</title>
<path fill="none" stroke="midnightblue" d="M287.54,-302.45C321.85,-295.69 366.13,-284.28 402.21,-266 444.5,-244.57 463.65,-241.22 485.21,-199 494.3,-181.2 494.04,-157.9 492.31,-141.81"/>
<polygon fill="midnightblue" stroke="midnightblue" points="495.73,-140.99 490.91,-131.56 488.8,-141.94 495.73,-140.99"/>
</g>
<!-- Node3 -->
<g id="node3" class="node">
<title>Node3</title>
<g id="a_node3"><a xlink:href="types_2base_8h.html" target="_top" xlink:title=" ">
<polygon fill="white" stroke="red" points="178.21,-56.5 178.21,-75.5 308.21,-75.5 308.21,-56.5 178.21,-56.5"/>
<text text-anchor="middle" x="243.21" y="-63.5" font-family="Helvetica,sans-Serif" font-size="10.00">emlabcpp/types/base.h</text>
</a>
</g>
</g>
<!-- Node2&#45;&gt;Node3 -->
<g id="edge2" class="edge">
<title>Node2&#45;&gt;Node3</title>
<path fill="none" stroke="midnightblue" d="M197.29,-112.08C205.38,-104.14 217.41,-92.34 227.12,-82.8"/>
<polygon fill="midnightblue" stroke="midnightblue" points="229.61,-85.25 234.3,-75.75 224.71,-80.26 229.61,-85.25"/>
</g>
<!-- Node10 -->
<g id="node5" class="node">
<title>Node10</title>
<g id="a_node5"><a xlink:title=" ">
<polygon fill="white" stroke="#bfbfbf" points="28.21,-56.5 28.21,-75.5 88.21,-75.5 88.21,-56.5 28.21,-56.5"/>
<text text-anchor="middle" x="58.21" y="-63.5" font-family="Helvetica,sans-Serif" font-size="10.00">concepts</text>
</a>
</g>
</g>
<!-- Node2&#45;&gt;Node10 -->
<g id="edge4" class="edge">
<title>Node2&#45;&gt;Node10</title>
<path fill="none" stroke="midnightblue" d="M167.61,-112.44C146.22,-103.56 112.53,-89.56 88.19,-79.45"/>
<polygon fill="midnightblue" stroke="midnightblue" points="89.29,-76.12 78.71,-75.52 86.61,-82.58 89.29,-76.12"/>
</g>
<!-- Node11 -->
<g id="node6" class="node">
<title>Node11</title>
<g id="a_node6"><a xlink:title=" ">
<polygon fill="white" stroke="#bfbfbf" points="106.71,-56.5 106.71,-75.5 159.71,-75.5 159.71,-56.5 106.71,-56.5"/>
<text text-anchor="middle" x="133.21" y="-63.5" font-family="Helvetica,sans-Serif" font-size="10.00">iterator</text>
</a>
</g>
</g>
<!-- Node2&#45;&gt;Node11 -->
<g id="edge5" class="edge">
<title>Node2&#45;&gt;Node11</title>
<path fill="none" stroke="midnightblue" d="M179.13,-112.08C171.04,-104.14 159.02,-92.34 149.3,-82.8"/>
<polygon fill="midnightblue" stroke="midnightblue" points="151.71,-80.26 142.12,-75.75 146.81,-85.25 151.71,-80.26"/>
</g>
<!-- Node12 -->
<g id="node7" class="node">
<title>Node12</title>
<g id="a_node7"><a xlink:title=" ">
<polygon fill="white" stroke="#bfbfbf" points="326.71,-56.5 326.71,-75.5 377.71,-75.5 377.71,-56.5 326.71,-56.5"/>
<text text-anchor="middle" x="352.21" y="-63.5" font-family="Helvetica,sans-Serif" font-size="10.00">variant</text>
</a>
</g>
</g>
<!-- Node2&#45;&gt;Node12 -->
<g id="edge6" class="edge">
<title>Node2&#45;&gt;Node12</title>
<path fill="none" stroke="midnightblue" d="M214.2,-112.44C241.99,-103.29 286.22,-88.73 317.1,-78.56"/>
<polygon fill="midnightblue" stroke="midnightblue" points="318.21,-81.88 326.62,-75.43 316.02,-75.23 318.21,-81.88"/>
</g>
<!-- Node3&#45;&gt;Node8 -->
<g id="edge3" class="edge">
<title>Node3&#45;&gt;Node8</title>
<path fill="none" stroke="midnightblue" d="M223.88,-56.44C203.89,-47.6 172.47,-33.69 149.65,-23.59"/>
<polygon fill="midnightblue" stroke="midnightblue" points="151.01,-20.36 140.45,-19.52 148.18,-26.76 151.01,-20.36"/>
</g>
<!-- Node14 -->
<g id="node9" class="node">
<title>Node14</title>
<g id="a_node9"><a xlink:href="pretty__printer_8h.html" target="_top" xlink:title=" ">
<polygon fill="white" stroke="red" points="213.71,-168.5 213.71,-198.5 346.71,-198.5 346.71,-168.5 213.71,-168.5"/>
<text text-anchor="start" x="221.71" y="-186.5" font-family="Helvetica,sans-Serif" font-size="10.00">emlabcpp/experimental</text>
<text text-anchor="middle" x="280.21" y="-175.5" font-family="Helvetica,sans-Serif" font-size="10.00">/pretty_printer.h</text>
</a>
</g>
</g>
<!-- Node13&#45;&gt;Node14 -->
<g id="edge8" class="edge">
<title>Node13&#45;&gt;Node14</title>
<path fill="none" stroke="midnightblue" d="M317.01,-235.4C310.98,-227.05 303.2,-216.29 296.34,-206.81"/>
<polygon fill="midnightblue" stroke="midnightblue" points="299.08,-204.63 290.39,-198.58 293.41,-208.73 299.08,-204.63"/>
</g>
<!-- Node17 -->
<g id="node10" class="node">
<title>Node17</title>
<g id="a_node10"><a xlink:href="match_8h.html" target="_top" xlink:title=" ">
<polygon fill="white" stroke="red" points="319.71,-112.5 319.71,-131.5 426.71,-131.5 426.71,-112.5 319.71,-112.5"/>
<text text-anchor="middle" x="373.21" y="-119.5" font-family="Helvetica,sans-Serif" font-size="10.00">emlabcpp/match.h</text>
</a>
</g>
</g>
<!-- Node13&#45;&gt;Node17 -->
<g id="edge13" class="edge">
<title>Node13&#45;&gt;Node17</title>
<path fill="none" stroke="midnightblue" d="M336.39,-235.43C342.47,-225.57 350.22,-211.9 355.21,-199 362.54,-180.07 367.45,-157.3 370.27,-141.65"/>
<polygon fill="midnightblue" stroke="midnightblue" points="373.74,-142.11 371.95,-131.66 366.84,-140.94 373.74,-142.11"/>
</g>
<!-- Node24 -->
<g id="node12" class="node">
<title>Node24</title>
<g id="a_node12"><a xlink:title=" ">
<polygon fill="white" stroke="#bfbfbf" points="403.71,-174 403.71,-193 476.71,-193 476.71,-174 403.71,-174"/>
<text text-anchor="middle" x="440.21" y="-181" font-family="Helvetica,sans-Serif" font-size="10.00">string_view</text>
</a>
</g>
</g>
<!-- Node13&#45;&gt;Node24 -->
<g id="edge14" class="edge">
<title>Node13&#45;&gt;Node24</title>
<path fill="none" stroke="midnightblue" d="M351.73,-235.4C370.94,-224.34 397.51,-209.06 416.51,-198.13"/>
<polygon fill="midnightblue" stroke="midnightblue" points="418.5,-201.03 425.42,-193.01 415.01,-194.96 418.5,-201.03"/>
</g>
<!-- Node14&#45;&gt;Node2 -->
<g id="edge9" class="edge">
<title>Node14&#45;&gt;Node2</title>
<path fill="none" stroke="midnightblue" d="M258.41,-168.4C243.8,-158.95 224.64,-146.56 210.03,-137.11"/>
<polygon fill="midnightblue" stroke="midnightblue" points="211.9,-134.15 201.6,-131.66 208.09,-140.03 211.9,-134.15"/>
</g>
<!-- Node14&#45;&gt;Node12 -->
<g id="edge12" class="edge">
<title>Node14&#45;&gt;Node12</title>
<path fill="none" stroke="midnightblue" d="M284.62,-168.27C289.57,-153.5 298.46,-130.06 310.21,-112 317.19,-101.27 326.82,-90.74 335.11,-82.56"/>
<polygon fill="midnightblue" stroke="midnightblue" points="337.68,-84.94 342.51,-75.51 332.85,-79.88 337.68,-84.94"/>
</g>
<!-- Node14&#45;&gt;Node17 -->
<g id="edge10" class="edge">
<title>Node14&#45;&gt;Node17</title>
<path fill="none" stroke="midnightblue" d="M302.25,-168.4C317.02,-158.95 336.39,-146.56 351.16,-137.11"/>
<polygon fill="midnightblue" stroke="midnightblue" points="353.14,-140 359.68,-131.66 349.37,-134.1 353.14,-140"/>
</g>
<!-- Node14&#45;&gt;Node22 -->
<g id="edge11" class="edge">
<title>Node14&#45;&gt;Node22</title>
<path fill="none" stroke="midnightblue" d="M329.48,-168.47C366.66,-157.89 416.94,-143.57 451.09,-133.85"/>
<polygon fill="midnightblue" stroke="midnightblue" points="452.47,-137.1 461.13,-130.99 450.56,-130.36 452.47,-137.1"/>
</g>
</g>
</svg>
