<?xml version="1.0" encoding="UTF-8" standalone="no"?>
<!DOCTYPE svg PUBLIC "-//W3C//DTD SVG 1.1//EN"
 "http://www.w3.org/Graphics/SVG/1.1/DTD/svg11.dtd">
<!-- Generated by graphviz version 2.43.0 (0)
 -->
<!-- Title: include/emlabcpp/experimental/bounded_view.hpp Pages: 1 -->
<svg width="312pt" height="207pt"
 viewBox="0.00 0.00 311.80 207.00" xmlns="http://www.w3.org/2000/svg" xmlns:xlink="http://www.w3.org/1999/xlink">
<g id="graph0" class="graph" transform="scale(1 1) rotate(0) translate(4 203)">
<title>include/emlabcpp/experimental/bounded_view.hpp</title>
<polygon fill="white" stroke="transparent" points="-4,4 -4,-203 307.8,-203 307.8,4 -4,4"/>
<!-- Node1 -->
<g id="node1" class="node">
<title>Node1</title>
<g id="a_node1"><a xlink:title=" ">
<polygon fill="#bfbfbf" stroke="black" points="39.3,-168.5 39.3,-198.5 210.3,-198.5 210.3,-168.5 39.3,-168.5"/>
<text text-anchor="start" x="47.3" y="-186.5" font-family="Helvetica,sans-Serif" font-size="10.00">include/emlabcpp/experimental</text>
<text text-anchor="middle" x="124.8" y="-175.5" font-family="Helvetica,sans-Serif" font-size="10.00">/bounded_view.hpp</text>
</a>
</g>
</g>
<!-- Node2 -->
<g id="node2" class="node">
<title>Node2</title>
<g id="a_node2"><a xlink:href="bounded_8hpp.html" target="_top" xlink:title=" ">
<polygon fill="white" stroke="black" points="32.3,-112.5 32.3,-131.5 121.3,-131.5 121.3,-112.5 32.3,-112.5"/>
<text text-anchor="middle" x="76.8" y="-119.5" font-family="Helvetica,sans-Serif" font-size="10.00">../bounded.hpp</text>
</a>
</g>
</g>
<!-- Node1&#45;&gt;Node2 -->
<g id="edge1" class="edge">
<title>Node1&#45;&gt;Node2</title>
<path fill="none" stroke="midnightblue" d="M113.43,-168.4C106.45,-159.75 97.49,-148.64 90.18,-139.58"/>
<polygon fill="midnightblue" stroke="midnightblue" points="92.79,-137.24 83.79,-131.66 87.34,-141.64 92.79,-137.24"/>
</g>
<!-- Node15 -->
<g id="node6" class="node">
<title>Node15</title>
<g id="a_node6"><a xlink:href="view_8hpp.html" target="_top" xlink:title=" ">
<polygon fill="white" stroke="black" points="175.3,-112.5 175.3,-131.5 244.3,-131.5 244.3,-112.5 175.3,-112.5"/>
<text text-anchor="middle" x="209.8" y="-119.5" font-family="Helvetica,sans-Serif" font-size="10.00">../view.hpp</text>
</a>
</g>
</g>
<!-- Node1&#45;&gt;Node15 -->
<g id="edge5" class="edge">
<title>Node1&#45;&gt;Node15</title>
<path fill="none" stroke="midnightblue" d="M144.95,-168.4C158.19,-159.13 175.48,-147.03 188.88,-137.65"/>
<polygon fill="midnightblue" stroke="midnightblue" points="191.25,-140.26 197.44,-131.66 187.24,-134.53 191.25,-140.26"/>
</g>
<!-- Node3 -->
<g id="node3" class="node">
<title>Node3</title>
<g id="a_node3"><a xlink:href="concepts_8hpp.html" target="_top" xlink:title=" ">
<polygon fill="white" stroke="red" points="53.3,-0.5 53.3,-19.5 140.3,-19.5 140.3,-0.5 53.3,-0.5"/>
<text text-anchor="middle" x="96.8" y="-7.5" font-family="Helvetica,sans-Serif" font-size="10.00">./concepts.hpp</text>
</a>
</g>
</g>
<!-- Node2&#45;&gt;Node3 -->
<g id="edge2" class="edge">
<title>Node2&#45;&gt;Node3</title>
<path fill="none" stroke="midnightblue" d="M52.91,-112.39C26.14,-101.33 -11.61,-80.58 3.8,-56 13.68,-40.25 30.81,-29.87 47.69,-23.11"/>
<polygon fill="midnightblue" stroke="midnightblue" points="49.35,-26.23 57.55,-19.52 46.96,-19.65 49.35,-26.23"/>
</g>
<!-- Node14 -->
<g id="node4" class="node">
<title>Node14</title>
<g id="a_node4"><a xlink:title=" ">
<polygon fill="white" stroke="#bfbfbf" points="12.8,-56.5 12.8,-75.5 68.8,-75.5 68.8,-56.5 12.8,-56.5"/>
<text text-anchor="middle" x="40.8" y="-63.5" font-family="Helvetica,sans-Serif" font-size="10.00">optional</text>
</a>
</g>
</g>
<!-- Node2&#45;&gt;Node14 -->
<g id="edge3" class="edge">
<title>Node2&#45;&gt;Node14</title>
<path fill="none" stroke="midnightblue" d="M70.86,-112.08C65.83,-104.53 58.47,-93.49 52.29,-84.23"/>
<polygon fill="midnightblue" stroke="midnightblue" points="55.1,-82.13 46.64,-75.75 49.27,-86.01 55.1,-82.13"/>
</g>
<!-- Node9 -->
<g id="node5" class="node">
<title>Node9</title>
<g id="a_node5"><a xlink:title=" ">
<polygon fill="white" stroke="#bfbfbf" points="87.3,-56.5 87.3,-75.5 156.3,-75.5 156.3,-56.5 87.3,-56.5"/>
<text text-anchor="middle" x="121.8" y="-63.5" font-family="Helvetica,sans-Serif" font-size="10.00">type_traits</text>
</a>
</g>
</g>
<!-- Node2&#45;&gt;Node9 -->
<g id="edge4" class="edge">
<title>Node2&#45;&gt;Node9</title>
<path fill="none" stroke="midnightblue" d="M84.24,-112.08C90.66,-104.38 100.11,-93.03 107.93,-83.65"/>
<polygon fill="midnightblue" stroke="midnightblue" points="110.8,-85.67 114.51,-75.75 105.42,-81.19 110.8,-85.67"/>
</g>
<!-- Node16 -->
<g id="node7" class="node">
<title>Node16</title>
<g id="a_node7"><a xlink:href="types_8hpp.html" target="_top" xlink:title=" ">
<polygon fill="white" stroke="red" points="174.3,-56.5 174.3,-75.5 245.3,-75.5 245.3,-56.5 174.3,-56.5"/>
<text text-anchor="middle" x="209.8" y="-63.5" font-family="Helvetica,sans-Serif" font-size="10.00">./types.hpp</text>
</a>
</g>
</g>
<!-- Node15&#45;&gt;Node16 -->
<g id="edge6" class="edge">
<title>Node15&#45;&gt;Node16</title>
<path fill="none" stroke="midnightblue" d="M209.8,-112.08C209.8,-105.01 209.8,-94.86 209.8,-85.99"/>
<polygon fill="midnightblue" stroke="midnightblue" points="213.3,-85.75 209.8,-75.75 206.3,-85.75 213.3,-85.75"/>
</g>
<!-- Node18 -->
<g id="node8" class="node">
<title>Node18</title>
<g id="a_node8"><a xlink:title=" ">
<polygon fill="white" stroke="#bfbfbf" points="263.8,-56.5 263.8,-75.5 303.8,-75.5 303.8,-56.5 263.8,-56.5"/>
<text text-anchor="middle" x="283.8" y="-63.5" font-family="Helvetica,sans-Serif" font-size="10.00">span</text>
</a>
</g>
</g>
<!-- Node15&#45;&gt;Node18 -->
<g id="edge8" class="edge">
<title>Node15&#45;&gt;Node18</title>
<path fill="none" stroke="midnightblue" d="M221.69,-112.32C232.96,-104.11 250.09,-91.6 263.51,-81.81"/>
<polygon fill="midnightblue" stroke="midnightblue" points="265.68,-84.56 271.7,-75.83 261.56,-78.9 265.68,-84.56"/>
</g>
<!-- Node16&#45;&gt;Node3 -->
<g id="edge7" class="edge">
<title>Node16&#45;&gt;Node3</title>
<path fill="none" stroke="midnightblue" d="M191.9,-56.44C173.55,-47.68 144.8,-33.94 123.71,-23.86"/>
<polygon fill="midnightblue" stroke="midnightblue" points="125.16,-20.67 114.63,-19.52 122.14,-26.99 125.16,-20.67"/>
</g>
</g>
</svg>
