<?xml version="1.0" encoding="UTF-8" standalone="no"?>
<!DOCTYPE svg PUBLIC "-//W3C//DTD SVG 1.1//EN"
 "http://www.w3.org/Graphics/SVG/1.1/DTD/svg11.dtd">
<!-- Generated by graphviz version 2.43.0 (0)
 -->
<!-- Title: include/emlabcpp/bounded.h Pages: 1 -->
<svg width="1229pt" height="631pt"
 viewBox="0.00 0.00 1228.74 631.00" xmlns="http://www.w3.org/2000/svg" xmlns:xlink="http://www.w3.org/1999/xlink">
<g id="graph0" class="graph" transform="scale(1 1) rotate(0) translate(4 627)">
<title>include/emlabcpp/bounded.h</title>
<polygon fill="white" stroke="transparent" points="-4,4 -4,-627 1224.74,-627 1224.74,4 -4,4"/>
<!-- Node1 -->
<g id="node1" class="node">
<title>Node1</title>
<g id="a_node1"><a xlink:title=" ">
<polygon fill="#bfbfbf" stroke="black" points="640.24,-603.5 640.24,-622.5 797.24,-622.5 797.24,-603.5 640.24,-603.5"/>
<text text-anchor="middle" x="718.74" y="-610.5" font-family="Helvetica,sans-Serif" font-size="10.00">include/emlabcpp/bounded.h</text>
</a>
</g>
</g>
<!-- Node2 -->
<g id="node2" class="node">
<title>Node2</title>
<g id="a_node2"><a xlink:href="algorithm_8h.html" target="_top" xlink:title=" ">
<polygon fill="white" stroke="black" points="637.74,-475 637.74,-494 799.74,-494 799.74,-475 637.74,-475"/>
<text text-anchor="middle" x="718.74" y="-482" font-family="Helvetica,sans-Serif" font-size="10.00">include/emlabcpp/algorithm.h</text>
</a>
</g>
</g>
<!-- Node1&#45;&gt;Node2 -->
<g id="edge1" class="edge">
<title>Node1&#45;&gt;Node2</title>
<path fill="none" stroke="midnightblue" d="M718.74,-592.94C718.74,-565.12 718.74,-514.54 718.74,-494.26"/>
<polygon fill="midnightblue" stroke="midnightblue" points="715.24,-593.31 718.74,-603.31 722.24,-593.31 715.24,-593.31"/>
</g>
<!-- Node20 -->
<g id="node20" class="node">
<title>Node20</title>
<g id="a_node20"><a xlink:href="bounded__view_8h.html" target="_top" xlink:title=" ">
<polygon fill="white" stroke="black" points="830.74,-536.5 830.74,-566.5 978.74,-566.5 978.74,-536.5 830.74,-536.5"/>
<text text-anchor="start" x="838.74" y="-554.5" font-family="Helvetica,sans-Serif" font-size="10.00">include/emlabcpp/bounded</text>
<text text-anchor="middle" x="904.74" y="-543.5" font-family="Helvetica,sans-Serif" font-size="10.00">_view.h</text>
</a>
</g>
</g>
<!-- Node1&#45;&gt;Node20 -->
<g id="edge25" class="edge">
<title>Node1&#45;&gt;Node20</title>
<path fill="none" stroke="midnightblue" d="M755.13,-600.36C785.44,-590.66 828.69,-576.83 860.9,-566.52"/>
<polygon fill="midnightblue" stroke="midnightblue" points="753.84,-597.09 745.39,-603.48 755.98,-603.76 753.84,-597.09"/>
</g>
<!-- Node23 -->
<g id="node23" class="node">
<title>Node23</title>
<g id="a_node23"><a xlink:href="protocol_2base_8h.html" target="_top" xlink:title=" ">
<polygon fill="white" stroke="black" points="330.74,-536.5 330.74,-566.5 476.74,-566.5 476.74,-536.5 330.74,-536.5"/>
<text text-anchor="start" x="338.74" y="-554.5" font-family="Helvetica,sans-Serif" font-size="10.00">include/emlabcpp/protocol</text>
<text text-anchor="middle" x="403.74" y="-543.5" font-family="Helvetica,sans-Serif" font-size="10.00">/base.h</text>
</a>
</g>
</g>
<!-- Node1&#45;&gt;Node23 -->
<g id="edge32" class="edge">
<title>Node1&#45;&gt;Node23</title>
<path fill="none" stroke="midnightblue" d="M663.6,-601.58C611.74,-591.79 533.77,-577.06 476.76,-566.29"/>
<polygon fill="midnightblue" stroke="midnightblue" points="663.13,-605.06 673.6,-603.48 664.43,-598.18 663.13,-605.06"/>
</g>
<!-- Node3 -->
<g id="node3" class="node">
<title>Node3</title>
<g id="a_node3"><a xlink:href="experimental_2testing_2protocol_8h.html" target="_top" xlink:title=" ">
<polygon fill="white" stroke="black" points="543.24,-268.5 543.24,-298.5 714.24,-298.5 714.24,-268.5 543.24,-268.5"/>
<text text-anchor="start" x="551.24" y="-286.5" font-family="Helvetica,sans-Serif" font-size="10.00">include/emlabcpp/experimental</text>
<text text-anchor="middle" x="628.74" y="-275.5" font-family="Helvetica,sans-Serif" font-size="10.00">/testing/protocol.h</text>
</a>
</g>
</g>
<!-- Node2&#45;&gt;Node3 -->
<g id="edge2" class="edge">
<title>Node2&#45;&gt;Node3</title>
<path fill="none" stroke="midnightblue" d="M716.04,-464.45C713.24,-447.6 708.1,-422.56 699.74,-402 683.48,-362.04 654.72,-319.85 639.26,-298.56"/>
<polygon fill="midnightblue" stroke="midnightblue" points="712.63,-465.31 717.6,-474.66 719.55,-464.24 712.63,-465.31"/>
</g>
<!-- Node12 -->
<g id="node12" class="node">
<title>Node12</title>
<g id="a_node12"><a xlink:href="pid_8h.html" target="_top" xlink:title=" ">
<polygon fill="white" stroke="black" points="746.74,-408 746.74,-427 876.74,-427 876.74,-408 746.74,-408"/>
<text text-anchor="middle" x="811.74" y="-415" font-family="Helvetica,sans-Serif" font-size="10.00">include/emlabcpp/pid.h</text>
</a>
</g>
</g>
<!-- Node2&#45;&gt;Node12 -->
<g id="edge14" class="edge">
<title>Node2&#45;&gt;Node12</title>
<path fill="none" stroke="midnightblue" d="M739.6,-468.92C757.98,-456.07 784.15,-437.78 799.39,-427.13"/>
<polygon fill="midnightblue" stroke="midnightblue" points="737.47,-466.14 731.28,-474.73 741.48,-471.87 737.47,-466.14"/>
</g>
<!-- Node13 -->
<g id="node13" class="node">
<title>Node13</title>
<g id="a_node13"><a xlink:href="def_8h.html" target="_top" xlink:title=" ">
<polygon fill="white" stroke="black" points="932.74,-402.5 932.74,-432.5 1078.74,-432.5 1078.74,-402.5 932.74,-402.5"/>
<text text-anchor="start" x="940.74" y="-420.5" font-family="Helvetica,sans-Serif" font-size="10.00">include/emlabcpp/protocol</text>
<text text-anchor="middle" x="1005.74" y="-409.5" font-family="Helvetica,sans-Serif" font-size="10.00">/def.h</text>
</a>
</g>
</g>
<!-- Node2&#45;&gt;Node13 -->
<g id="edge15" class="edge">
<title>Node2&#45;&gt;Node13</title>
<path fill="none" stroke="midnightblue" d="M766.49,-472.69C815.04,-461.69 890.49,-444.6 943.66,-432.56"/>
<polygon fill="midnightblue" stroke="midnightblue" points="765.53,-469.31 756.55,-474.94 767.08,-476.14 765.53,-469.31"/>
</g>
<!-- Node17 -->
<g id="node17" class="node">
<title>Node17</title>
<g id="a_node17"><a xlink:href="json_8h.html" target="_top" xlink:title=" ">
<polygon fill="white" stroke="black" points="544.74,-402.5 544.74,-432.5 690.74,-432.5 690.74,-402.5 544.74,-402.5"/>
<text text-anchor="start" x="552.74" y="-420.5" font-family="Helvetica,sans-Serif" font-size="10.00">include/emlabcpp/protocol</text>
<text text-anchor="middle" x="617.74" y="-409.5" font-family="Helvetica,sans-Serif" font-size="10.00">/json.h</text>
</a>
</g>
</g>
<!-- Node2&#45;&gt;Node17 -->
<g id="edge21" class="edge">
<title>Node2&#45;&gt;Node17</title>
<path fill="none" stroke="midnightblue" d="M696.44,-469.15C679.54,-458.27 656.43,-443.4 639.63,-432.59"/>
<polygon fill="midnightblue" stroke="midnightblue" points="694.81,-472.27 705.11,-474.73 698.6,-466.38 694.81,-472.27"/>
</g>
<!-- Node18 -->
<g id="node18" class="node">
<title>Node18</title>
<g id="a_node18"><a xlink:href="register__map_8h.html" target="_top" xlink:title=" ">
<polygon fill="white" stroke="black" points="14.74,-402.5 14.74,-432.5 160.74,-432.5 160.74,-402.5 14.74,-402.5"/>
<text text-anchor="start" x="22.74" y="-420.5" font-family="Helvetica,sans-Serif" font-size="10.00">include/emlabcpp/protocol</text>
<text text-anchor="middle" x="87.74" y="-409.5" font-family="Helvetica,sans-Serif" font-size="10.00">/register_map.h</text>
</a>
</g>
</g>
<!-- Node2&#45;&gt;Node18 -->
<g id="edge22" class="edge">
<title>Node2&#45;&gt;Node18</title>
<path fill="none" stroke="midnightblue" d="M627.58,-477.45C518.45,-469.67 330.26,-454.54 169.74,-433 166.87,-432.62 163.95,-432.2 161.01,-431.77"/>
<polygon fill="midnightblue" stroke="midnightblue" points="627.35,-480.94 637.57,-478.16 627.84,-473.96 627.35,-480.94"/>
</g>
<!-- Node4 -->
<g id="node4" class="node">
<title>Node4</title>
<g id="a_node4"><a xlink:href="controller__interface_8h.html" target="_top" xlink:title=" ">
<polygon fill="white" stroke="black" points="273.24,-134.5 273.24,-164.5 444.24,-164.5 444.24,-134.5 273.24,-134.5"/>
<text text-anchor="start" x="281.24" y="-152.5" font-family="Helvetica,sans-Serif" font-size="10.00">include/emlabcpp/experimental</text>
<text text-anchor="middle" x="358.74" y="-141.5" font-family="Helvetica,sans-Serif" font-size="10.00">/testing/controller_interface.h</text>
</a>
</g>
</g>
<!-- Node3&#45;&gt;Node4 -->
<g id="edge3" class="edge">
<title>Node3&#45;&gt;Node4</title>
<path fill="none" stroke="midnightblue" d="M591.1,-264.1C536.52,-237.42 436.57,-188.55 387.49,-164.56"/>
<polygon fill="midnightblue" stroke="midnightblue" points="589.58,-267.25 600.1,-268.5 592.65,-260.96 589.58,-267.25"/>
</g>
<!-- Node7 -->
<g id="node7" class="node">
<title>Node7</title>
<g id="a_node7"><a xlink:href="experimental_2testing_2error_8h.html" target="_top" xlink:title=" ">
<polygon fill="white" stroke="black" points="273.24,-201.5 273.24,-231.5 444.24,-231.5 444.24,-201.5 273.24,-201.5"/>
<text text-anchor="start" x="281.24" y="-219.5" font-family="Helvetica,sans-Serif" font-size="10.00">include/emlabcpp/experimental</text>
<text text-anchor="middle" x="358.74" y="-208.5" font-family="Helvetica,sans-Serif" font-size="10.00">/testing/error.h</text>
</a>
</g>
</g>
<!-- Node3&#45;&gt;Node7 -->
<g id="edge6" class="edge">
<title>Node3&#45;&gt;Node7</title>
<path fill="none" stroke="midnightblue" d="M560.69,-266.12C516.51,-255.48 459.52,-241.76 417.35,-231.61"/>
<polygon fill="midnightblue" stroke="midnightblue" points="559.94,-269.54 570.48,-268.48 561.58,-262.73 559.94,-269.54"/>
</g>
<!-- Node8 -->
<g id="node8" class="node">
<title>Node8</title>
<g id="a_node8"><a xlink:href="reactor_8h.html" target="_top" xlink:title=" ">
<polygon fill="white" stroke="black" points="633.24,-67.5 633.24,-97.5 804.24,-97.5 804.24,-67.5 633.24,-67.5"/>
<text text-anchor="start" x="641.24" y="-85.5" font-family="Helvetica,sans-Serif" font-size="10.00">include/emlabcpp/experimental</text>
<text text-anchor="middle" x="718.74" y="-74.5" font-family="Helvetica,sans-Serif" font-size="10.00">/testing/reactor.h</text>
</a>
</g>
</g>
<!-- Node3&#45;&gt;Node8 -->
<g id="edge8" class="edge">
<title>Node3&#45;&gt;Node8</title>
<path fill="none" stroke="midnightblue" d="M634.72,-258.35C642.75,-228.16 658.6,-175.41 680.74,-134 687.77,-120.84 698.06,-107.41 706.15,-97.71"/>
<polygon fill="midnightblue" stroke="midnightblue" points="631.24,-257.84 632.12,-268.39 638.01,-259.59 631.24,-257.84"/>
</g>
<!-- Node9 -->
<g id="node9" class="node">
<title>Node9</title>
<g id="a_node9"><a xlink:href="reactor__interface_8h.html" target="_top" xlink:title=" ">
<polygon fill="white" stroke="black" points="462.24,-134.5 462.24,-164.5 633.24,-164.5 633.24,-134.5 462.24,-134.5"/>
<text text-anchor="start" x="470.24" y="-152.5" font-family="Helvetica,sans-Serif" font-size="10.00">include/emlabcpp/experimental</text>
<text text-anchor="middle" x="547.74" y="-141.5" font-family="Helvetica,sans-Serif" font-size="10.00">/testing/reactor_interface.h</text>
</a>
</g>
</g>
<!-- Node3&#45;&gt;Node9 -->
<g id="edge9" class="edge">
<title>Node3&#45;&gt;Node9</title>
<path fill="none" stroke="midnightblue" d="M614.83,-259.83C598.03,-232.47 570.31,-187.28 556.34,-164.52"/>
<polygon fill="midnightblue" stroke="midnightblue" points="611.85,-261.68 620.07,-268.37 617.82,-258.02 611.85,-261.68"/>
</g>
<!-- Node10 -->
<g id="node10" class="node">
<title>Node10</title>
<g id="a_node10"><a xlink:href="record_8h.html" target="_top" xlink:title=" ">
<polygon fill="white" stroke="black" points="690.24,-201.5 690.24,-231.5 861.24,-231.5 861.24,-201.5 690.24,-201.5"/>
<text text-anchor="start" x="698.24" y="-219.5" font-family="Helvetica,sans-Serif" font-size="10.00">include/emlabcpp/experimental</text>
<text text-anchor="middle" x="775.74" y="-208.5" font-family="Helvetica,sans-Serif" font-size="10.00">/testing/record.h</text>
</a>
</g>
</g>
<!-- Node3&#45;&gt;Node10 -->
<g id="edge11" class="edge">
<title>Node3&#45;&gt;Node10</title>
<path fill="none" stroke="midnightblue" d="M669.97,-264.27C693.38,-253.92 722.24,-241.15 743.9,-231.58"/>
<polygon fill="midnightblue" stroke="midnightblue" points="668.36,-261.15 660.63,-268.4 671.19,-267.55 668.36,-261.15"/>
</g>
<!-- Node5 -->
<g id="node5" class="node">
<title>Node5</title>
<g id="a_node5"><a xlink:href="controller_8h.html" target="_top" xlink:title=" ">
<polygon fill="white" stroke="black" points="273.24,-67.5 273.24,-97.5 444.24,-97.5 444.24,-67.5 273.24,-67.5"/>
<text text-anchor="start" x="281.24" y="-85.5" font-family="Helvetica,sans-Serif" font-size="10.00">include/emlabcpp/experimental</text>
<text text-anchor="middle" x="358.74" y="-74.5" font-family="Helvetica,sans-Serif" font-size="10.00">/testing/controller.h</text>
</a>
</g>
</g>
<!-- Node4&#45;&gt;Node5 -->
<g id="edge4" class="edge">
<title>Node4&#45;&gt;Node5</title>
<path fill="none" stroke="midnightblue" d="M358.74,-124.11C358.74,-115.15 358.74,-105.32 358.74,-97.58"/>
<polygon fill="midnightblue" stroke="midnightblue" points="355.24,-124.4 358.74,-134.4 362.24,-124.4 355.24,-124.4"/>
</g>
<!-- Node6 -->
<g id="node6" class="node">
<title>Node6</title>
<g id="a_node6"><a xlink:href="gtest_8h.html" target="_top" xlink:title=" ">
<polygon fill="white" stroke="black" points="273.24,-0.5 273.24,-30.5 444.24,-30.5 444.24,-0.5 273.24,-0.5"/>
<text text-anchor="start" x="281.24" y="-18.5" font-family="Helvetica,sans-Serif" font-size="10.00">include/emlabcpp/experimental</text>
<text text-anchor="middle" x="358.74" y="-7.5" font-family="Helvetica,sans-Serif" font-size="10.00">/testing/gtest.h</text>
</a>
</g>
</g>
<!-- Node5&#45;&gt;Node6 -->
<g id="edge5" class="edge">
<title>Node5&#45;&gt;Node6</title>
<path fill="none" stroke="midnightblue" d="M358.74,-57.11C358.74,-48.15 358.74,-38.32 358.74,-30.58"/>
<polygon fill="midnightblue" stroke="midnightblue" points="355.24,-57.4 358.74,-67.4 362.24,-57.4 355.24,-57.4"/>
</g>
<!-- Node7&#45;&gt;Node4 -->
<g id="edge7" class="edge">
<title>Node7&#45;&gt;Node4</title>
<path fill="none" stroke="midnightblue" d="M358.74,-191.11C358.74,-182.15 358.74,-172.32 358.74,-164.58"/>
<polygon fill="midnightblue" stroke="midnightblue" points="355.24,-191.4 358.74,-201.4 362.24,-191.4 355.24,-191.4"/>
</g>
<!-- Node9&#45;&gt;Node8 -->
<g id="edge10" class="edge">
<title>Node9&#45;&gt;Node8</title>
<path fill="none" stroke="midnightblue" d="M594.25,-130.82C621.74,-120.37 656.06,-107.32 681.7,-97.58"/>
<polygon fill="midnightblue" stroke="midnightblue" points="592.94,-127.57 584.84,-134.4 595.43,-134.11 592.94,-127.57"/>
</g>
<!-- Node11 -->
<g id="node11" class="node">
<title>Node11</title>
<g id="a_node11"><a xlink:href="interface_8h.html" target="_top" xlink:title=" ">
<polygon fill="white" stroke="black" points="690.24,-134.5 690.24,-164.5 861.24,-164.5 861.24,-134.5 690.24,-134.5"/>
<text text-anchor="start" x="698.24" y="-152.5" font-family="Helvetica,sans-Serif" font-size="10.00">include/emlabcpp/experimental</text>
<text text-anchor="middle" x="775.74" y="-141.5" font-family="Helvetica,sans-Serif" font-size="10.00">/testing/interface.h</text>
</a>
</g>
</g>
<!-- Node10&#45;&gt;Node11 -->
<g id="edge12" class="edge">
<title>Node10&#45;&gt;Node11</title>
<path fill="none" stroke="midnightblue" d="M775.74,-191.11C775.74,-182.15 775.74,-172.32 775.74,-164.58"/>
<polygon fill="midnightblue" stroke="midnightblue" points="772.24,-191.4 775.74,-201.4 779.24,-191.4 772.24,-191.4"/>
</g>
<!-- Node11&#45;&gt;Node8 -->
<g id="edge13" class="edge">
<title>Node11&#45;&gt;Node8</title>
<path fill="none" stroke="midnightblue" d="M756.65,-126.74C748.22,-117.12 738.54,-106.09 731.08,-97.58"/>
<polygon fill="midnightblue" stroke="midnightblue" points="754.14,-129.18 763.37,-134.4 759.41,-124.57 754.14,-129.18"/>
</g>
<!-- Node14 -->
<g id="node14" class="node">
<title>Node14</title>
<g id="a_node14"><a xlink:href="handler_8h.html" target="_top" xlink:title=" ">
<polygon fill="white" stroke="black" points="1074.74,-335.5 1074.74,-365.5 1220.74,-365.5 1220.74,-335.5 1074.74,-335.5"/>
<text text-anchor="start" x="1082.74" y="-353.5" font-family="Helvetica,sans-Serif" font-size="10.00">include/emlabcpp/protocol</text>
<text text-anchor="middle" x="1147.74" y="-342.5" font-family="Helvetica,sans-Serif" font-size="10.00">/handler.h</text>
</a>
</g>
</g>
<!-- Node13&#45;&gt;Node14 -->
<g id="edge16" class="edge">
<title>Node13&#45;&gt;Node14</title>
<path fill="none" stroke="midnightblue" d="M1045.87,-398.13C1068.43,-387.8 1096.16,-375.11 1116.98,-365.58"/>
<polygon fill="midnightblue" stroke="midnightblue" points="1044.18,-395.05 1036.55,-402.4 1047.1,-401.42 1044.18,-395.05"/>
</g>
<!-- Node16 -->
<g id="node16" class="node">
<title>Node16</title>
<g id="a_node16"><a xlink:href="register__handler_8h.html" target="_top" xlink:title=" ">
<polygon fill="white" stroke="black" points="910.74,-335.5 910.74,-365.5 1056.74,-365.5 1056.74,-335.5 910.74,-335.5"/>
<text text-anchor="start" x="918.74" y="-353.5" font-family="Helvetica,sans-Serif" font-size="10.00">include/emlabcpp/protocol</text>
<text text-anchor="middle" x="983.74" y="-342.5" font-family="Helvetica,sans-Serif" font-size="10.00">/register_handler.h</text>
</a>
</g>
</g>
<!-- Node13&#45;&gt;Node16 -->
<g id="edge20" class="edge">
<title>Node13&#45;&gt;Node16</title>
<path fill="none" stroke="midnightblue" d="M997.68,-392.7C994.6,-383.59 991.18,-373.49 988.5,-365.58"/>
<polygon fill="midnightblue" stroke="midnightblue" points="994.44,-394.05 1000.96,-402.4 1001.07,-391.8 994.44,-394.05"/>
</g>
<!-- Node15 -->
<g id="node15" class="node">
<title>Node15</title>
<g id="a_node15"><a xlink:href="packet__handler_8h.html" target="_top" xlink:title=" ">
<polygon fill="white" stroke="black" points="835.74,-268.5 835.74,-298.5 981.74,-298.5 981.74,-268.5 835.74,-268.5"/>
<text text-anchor="start" x="843.74" y="-286.5" font-family="Helvetica,sans-Serif" font-size="10.00">include/emlabcpp/protocol</text>
<text text-anchor="middle" x="908.74" y="-275.5" font-family="Helvetica,sans-Serif" font-size="10.00">/packet_handler.h</text>
</a>
</g>
</g>
<!-- Node14&#45;&gt;Node15 -->
<g id="edge17" class="edge">
<title>Node14&#45;&gt;Node15</title>
<path fill="none" stroke="midnightblue" d="M1086.51,-332.85C1047.55,-322.25 997.63,-308.68 960.62,-298.61"/>
<polygon fill="midnightblue" stroke="midnightblue" points="1085.6,-336.23 1096.17,-335.48 1087.44,-329.47 1085.6,-336.23"/>
</g>
<!-- Node15&#45;&gt;Node8 -->
<g id="edge19" class="edge">
<title>Node15&#45;&gt;Node8</title>
<path fill="none" stroke="midnightblue" d="M909.58,-258.16C909.32,-225.22 903.66,-166.78 869.74,-134 851.65,-116.52 827.34,-105.09 803.52,-97.61"/>
<polygon fill="midnightblue" stroke="midnightblue" points="906.08,-258.26 909.49,-268.29 913.08,-258.32 906.08,-258.26"/>
</g>
<!-- Node15&#45;&gt;Node11 -->
<g id="edge18" class="edge">
<title>Node15&#45;&gt;Node11</title>
<path fill="none" stroke="midnightblue" d="M901.8,-258.65C895.69,-241.01 885.31,-217.32 869.74,-201 854.52,-185.05 833.13,-173.02 814.61,-164.71"/>
<polygon fill="midnightblue" stroke="midnightblue" points="898.49,-259.81 904.91,-268.24 905.15,-257.65 898.49,-259.81"/>
</g>
<!-- Node19 -->
<g id="node19" class="node">
<title>Node19</title>
<g id="a_node19"><a xlink:href="streams_8h.html" target="_top" xlink:title=" ">
<polygon fill="white" stroke="black" points="14.74,-335.5 14.74,-365.5 160.74,-365.5 160.74,-335.5 14.74,-335.5"/>
<text text-anchor="start" x="22.74" y="-353.5" font-family="Helvetica,sans-Serif" font-size="10.00">include/emlabcpp/protocol</text>
<text text-anchor="middle" x="87.74" y="-342.5" font-family="Helvetica,sans-Serif" font-size="10.00">/streams.h</text>
</a>
</g>
</g>
<!-- Node18&#45;&gt;Node19 -->
<g id="edge23" class="edge">
<title>Node18&#45;&gt;Node19</title>
<path fill="none" stroke="midnightblue" d="M87.74,-392.11C87.74,-383.15 87.74,-373.32 87.74,-365.58"/>
<polygon fill="midnightblue" stroke="midnightblue" points="84.24,-392.4 87.74,-402.4 91.24,-392.4 84.24,-392.4"/>
</g>
<!-- Node19&#45;&gt;Node7 -->
<g id="edge24" class="edge">
<title>Node19&#45;&gt;Node7</title>
<path fill="none" stroke="midnightblue" d="M125.51,-331.1C180.29,-304.42 280.61,-255.55 329.88,-231.56"/>
<polygon fill="midnightblue" stroke="midnightblue" points="123.94,-327.97 116.48,-335.5 127,-334.27 123.94,-327.97"/>
</g>
<!-- Node20&#45;&gt;Node13 -->
<g id="edge26" class="edge">
<title>Node20&#45;&gt;Node13</title>
<path fill="none" stroke="midnightblue" d="M949.11,-531.64C963.01,-523.73 977.2,-513.25 986.74,-500 1001.34,-479.72 1004.89,-449.9 1005.66,-432.52"/>
<polygon fill="midnightblue" stroke="midnightblue" points="947.24,-528.67 940.07,-536.46 950.54,-534.85 947.24,-528.67"/>
</g>
<!-- Node21 -->
<g id="node21" class="node">
<title>Node21</title>
<g id="a_node21"><a xlink:href="serializer_8h.html" target="_top" xlink:title=" ">
<polygon fill="white" stroke="black" points="831.74,-469.5 831.74,-499.5 977.74,-499.5 977.74,-469.5 831.74,-469.5"/>
<text text-anchor="start" x="839.74" y="-487.5" font-family="Helvetica,sans-Serif" font-size="10.00">include/emlabcpp/protocol</text>
<text text-anchor="middle" x="904.74" y="-476.5" font-family="Helvetica,sans-Serif" font-size="10.00">/serializer.h</text>
</a>
</g>
</g>
<!-- Node20&#45;&gt;Node21 -->
<g id="edge27" class="edge">
<title>Node20&#45;&gt;Node21</title>
<path fill="none" stroke="midnightblue" d="M904.74,-526.11C904.74,-517.15 904.74,-507.32 904.74,-499.58"/>
<polygon fill="midnightblue" stroke="midnightblue" points="901.24,-526.4 904.74,-536.4 908.24,-526.4 901.24,-526.4"/>
</g>
<!-- Node21&#45;&gt;Node13 -->
<g id="edge28" class="edge">
<title>Node21&#45;&gt;Node13</title>
<path fill="none" stroke="midnightblue" d="M935.45,-463.73C951.08,-453.68 969.71,-441.68 983.86,-432.58"/>
<polygon fill="midnightblue" stroke="midnightblue" points="933.17,-461.04 926.65,-469.4 936.95,-466.93 933.17,-461.04"/>
</g>
<!-- Node22 -->
<g id="node22" class="node">
<title>Node22</title>
<g id="a_node22"><a xlink:href="packet_8h.html" target="_top" xlink:title=" ">
<polygon fill="white" stroke="black" points="746.74,-335.5 746.74,-365.5 892.74,-365.5 892.74,-335.5 746.74,-335.5"/>
<text text-anchor="start" x="754.74" y="-353.5" font-family="Helvetica,sans-Serif" font-size="10.00">include/emlabcpp/protocol</text>
<text text-anchor="middle" x="819.74" y="-342.5" font-family="Helvetica,sans-Serif" font-size="10.00">/packet.h</text>
</a>
</g>
</g>
<!-- Node21&#45;&gt;Node22 -->
<g id="edge29" class="edge">
<title>Node21&#45;&gt;Node22</title>
<path fill="none" stroke="midnightblue" d="M903.38,-459.09C901.44,-441.95 896.79,-419.12 885.74,-402 875.87,-386.73 859.73,-374.26 845.88,-365.53"/>
<polygon fill="midnightblue" stroke="midnightblue" points="899.92,-459.77 904.3,-469.41 906.89,-459.14 899.92,-459.77"/>
</g>
<!-- Node22&#45;&gt;Node3 -->
<g id="edge30" class="edge">
<title>Node22&#45;&gt;Node3</title>
<path fill="none" stroke="midnightblue" d="M768.58,-332.09C737.75,-321.6 698.99,-308.41 670.1,-298.58"/>
<polygon fill="midnightblue" stroke="midnightblue" points="767.7,-335.49 778.29,-335.4 769.95,-328.86 767.7,-335.49"/>
</g>
<!-- Node22&#45;&gt;Node15 -->
<g id="edge31" class="edge">
<title>Node22&#45;&gt;Node15</title>
<path fill="none" stroke="midnightblue" d="M847.19,-329.45C860.88,-319.45 877.11,-307.6 889.46,-298.58"/>
<polygon fill="midnightblue" stroke="midnightblue" points="845.06,-326.67 839.05,-335.4 849.19,-332.32 845.06,-326.67"/>
</g>
<!-- Node23&#45;&gt;Node18 -->
<g id="edge44" class="edge">
<title>Node23&#45;&gt;Node18</title>
<path fill="none" stroke="midnightblue" d="M360.87,-532.59C297.26,-506.02 179.19,-456.7 121.39,-432.56"/>
<polygon fill="midnightblue" stroke="midnightblue" points="359.64,-535.87 370.22,-536.5 362.34,-529.41 359.64,-535.87"/>
</g>
<!-- Node23&#45;&gt;Node19 -->
<g id="edge46" class="edge">
<title>Node23&#45;&gt;Node19</title>
<path fill="none" stroke="midnightblue" d="M320.75,-537.99C215.41,-520.19 42.88,-483.98 5.74,-433 -2.38,-421.86 -0.98,-414.03 5.74,-402 15.03,-385.36 32.31,-373.53 48.62,-365.52"/>
<polygon fill="midnightblue" stroke="midnightblue" points="320.28,-541.46 330.72,-539.65 321.44,-534.55 320.28,-541.46"/>
</g>
<!-- Node23&#45;&gt;Node21 -->
<g id="edge45" class="edge">
<title>Node23&#45;&gt;Node21</title>
<path fill="none" stroke="midnightblue" d="M486.98,-540.76C568.91,-531.02 697.55,-515.33 808.74,-500 816.17,-498.98 823.91,-497.87 831.65,-496.74"/>
<polygon fill="midnightblue" stroke="midnightblue" points="486.49,-537.29 476.97,-541.95 487.32,-544.24 486.49,-537.29"/>
</g>
<!-- Node24 -->
<g id="node24" class="node">
<title>Node24</title>
<g id="a_node24"><a xlink:href="decl_8h.html" target="_top" xlink:title=" ">
<polygon fill="white" stroke="black" points="330.74,-469.5 330.74,-499.5 476.74,-499.5 476.74,-469.5 330.74,-469.5"/>
<text text-anchor="start" x="338.74" y="-487.5" font-family="Helvetica,sans-Serif" font-size="10.00">include/emlabcpp/protocol</text>
<text text-anchor="middle" x="403.74" y="-476.5" font-family="Helvetica,sans-Serif" font-size="10.00">/decl.h</text>
</a>
</g>
</g>
<!-- Node23&#45;&gt;Node24 -->
<g id="edge33" class="edge">
<title>Node23&#45;&gt;Node24</title>
<path fill="none" stroke="midnightblue" d="M403.74,-526.11C403.74,-517.15 403.74,-507.32 403.74,-499.58"/>
<polygon fill="midnightblue" stroke="midnightblue" points="400.24,-526.4 403.74,-536.4 407.24,-526.4 400.24,-526.4"/>
</g>
<!-- Node24&#45;&gt;Node13 -->
<g id="edge37" class="edge">
<title>Node24&#45;&gt;Node13</title>
<path fill="none" stroke="midnightblue" d="M487.1,-475.17C583.23,-465.47 745.98,-448.76 885.74,-433 900.85,-431.29 917.03,-429.39 932.46,-427.54"/>
<polygon fill="midnightblue" stroke="midnightblue" points="486.46,-471.72 476.86,-476.2 487.16,-478.68 486.46,-471.72"/>
</g>
<!-- Node24&#45;&gt;Node17 -->
<g id="edge38" class="edge">
<title>Node24&#45;&gt;Node17</title>
<path fill="none" stroke="midnightblue" d="M459.89,-466.44C494.58,-455.91 538.56,-442.55 571.28,-432.61"/>
<polygon fill="midnightblue" stroke="midnightblue" points="458.46,-463.22 449.91,-469.48 460.49,-469.92 458.46,-463.22"/>
</g>
<!-- Node24&#45;&gt;Node18 -->
<g id="edge39" class="edge">
<title>Node24&#45;&gt;Node18</title>
<path fill="none" stroke="midnightblue" d="M325.7,-467.45C273.68,-456.75 205.96,-442.82 156.06,-432.55"/>
<polygon fill="midnightblue" stroke="midnightblue" points="325.06,-470.89 335.56,-469.48 326.47,-464.03 325.06,-470.89"/>
</g>
<!-- Node25 -->
<g id="node25" class="node">
<title>Node25</title>
<g id="a_node25"><a xlink:href="command__group_8h.html" target="_top" xlink:title=" ">
<polygon fill="white" stroke="black" points="178.74,-402.5 178.74,-432.5 324.74,-432.5 324.74,-402.5 178.74,-402.5"/>
<text text-anchor="start" x="186.74" y="-420.5" font-family="Helvetica,sans-Serif" font-size="10.00">include/emlabcpp/protocol</text>
<text text-anchor="middle" x="251.74" y="-409.5" font-family="Helvetica,sans-Serif" font-size="10.00">/command_group.h</text>
</a>
</g>
</g>
<!-- Node24&#45;&gt;Node25 -->
<g id="edge34" class="edge">
<title>Node24&#45;&gt;Node25</title>
<path fill="none" stroke="midnightblue" d="M361.43,-465.41C337.16,-455.03 307.15,-442.2 284.65,-432.58"/>
<polygon fill="midnightblue" stroke="midnightblue" points="360.18,-468.68 370.75,-469.4 362.94,-462.25 360.18,-468.68"/>
</g>
<!-- Node26 -->
<g id="node26" class="node">
<title>Node26</title>
<g id="a_node26"><a xlink:href="protocol_8h.html" target="_top" xlink:title=" ">
<polygon fill="white" stroke="black" points="325.24,-341 325.24,-360 480.24,-360 480.24,-341 325.24,-341"/>
<text text-anchor="middle" x="402.74" y="-348" font-family="Helvetica,sans-Serif" font-size="10.00">include/emlabcpp/protocol.h</text>
</a>
</g>
</g>
<!-- Node24&#45;&gt;Node26 -->
<g id="edge43" class="edge">
<title>Node24&#45;&gt;Node26</title>
<path fill="none" stroke="midnightblue" d="M385.52,-460.8C379.97,-452.54 374.58,-442.81 371.74,-433 367.9,-419.77 367.99,-415.26 371.74,-402 376.32,-385.76 387.75,-369.6 395.38,-360.09"/>
<polygon fill="midnightblue" stroke="midnightblue" points="382.82,-463.05 391.5,-469.12 388.51,-458.96 382.82,-463.05"/>
</g>
<!-- Node27 -->
<g id="node27" class="node">
<title>Node27</title>
<g id="a_node27"><a xlink:href="tuple_8h.html" target="_top" xlink:title=" ">
<polygon fill="white" stroke="black" points="380.74,-402.5 380.74,-432.5 526.74,-432.5 526.74,-402.5 380.74,-402.5"/>
<text text-anchor="start" x="388.74" y="-420.5" font-family="Helvetica,sans-Serif" font-size="10.00">include/emlabcpp/protocol</text>
<text text-anchor="middle" x="453.74" y="-409.5" font-family="Helvetica,sans-Serif" font-size="10.00">/tuple.h</text>
</a>
</g>
</g>
<!-- Node24&#45;&gt;Node27 -->
<g id="edge40" class="edge">
<title>Node24&#45;&gt;Node27</title>
<path fill="none" stroke="midnightblue" d="M420.7,-461.45C428.04,-451.9 436.43,-441 442.91,-432.58"/>
<polygon fill="midnightblue" stroke="midnightblue" points="417.91,-459.34 414.59,-469.4 423.46,-463.6 417.91,-459.34"/>
</g>
<!-- Node25&#45;&gt;Node26 -->
<g id="edge35" class="edge">
<title>Node25&#45;&gt;Node26</title>
<path fill="none" stroke="midnightblue" d="M294.03,-398.3C323.15,-385.76 360.5,-369.68 382.97,-360.01"/>
<polygon fill="midnightblue" stroke="midnightblue" points="292.3,-395.23 284.5,-402.4 295.07,-401.66 292.3,-395.23"/>
</g>
<!-- Node26&#45;&gt;Node3 -->
<g id="edge36" class="edge">
<title>Node26&#45;&gt;Node3</title>
<path fill="none" stroke="midnightblue" d="M442.52,-338.06C480.84,-327.04 538.88,-310.34 579.96,-298.53"/>
<polygon fill="midnightblue" stroke="midnightblue" points="441.39,-334.74 432.75,-340.87 443.32,-341.47 441.39,-334.74"/>
</g>
<!-- Node27&#45;&gt;Node22 -->
<g id="edge41" class="edge">
<title>Node27&#45;&gt;Node22</title>
<path fill="none" stroke="midnightblue" d="M536.86,-401.74C600.04,-390.52 686.12,-375.23 746.68,-364.47"/>
<polygon fill="midnightblue" stroke="midnightblue" points="536.16,-398.31 526.92,-403.5 537.38,-405.2 536.16,-398.31"/>
</g>
<!-- Node27&#45;&gt;Node26 -->
<g id="edge42" class="edge">
<title>Node27&#45;&gt;Node26</title>
<path fill="none" stroke="midnightblue" d="M436.33,-394.32C427.14,-382.6 416.37,-368.88 409.56,-360.19"/>
<polygon fill="midnightblue" stroke="midnightblue" points="433.74,-396.69 442.67,-402.4 439.25,-392.37 433.74,-396.69"/>
</g>
</g>
</svg>
