<?xml version="1.0" encoding="UTF-8" standalone="no"?>
<!DOCTYPE svg PUBLIC "-//W3C//DTD SVG 1.1//EN"
 "http://www.w3.org/Graphics/SVG/1.1/DTD/svg11.dtd">
<!-- Generated by graphviz version 2.43.0 (0)
 -->
<!-- Title: include/emlabcpp/bounded.h Pages: 1 -->
<svg width="425pt" height="196pt"
 viewBox="0.00 0.00 424.50 196.00" xmlns="http://www.w3.org/2000/svg" xmlns:xlink="http://www.w3.org/1999/xlink">
<g id="graph0" class="graph" transform="scale(1 1) rotate(0) translate(4 192)">
<title>include/emlabcpp/bounded.h</title>
<polygon fill="white" stroke="transparent" points="-4,4 -4,-192 420.5,-192 420.5,4 -4,4"/>
<!-- Node1 -->
<g id="node1" class="node">
<title>Node1</title>
<g id="a_node1"><a xlink:title=" ">
<polygon fill="#bfbfbf" stroke="black" points="254,-168.5 254,-187.5 411,-187.5 411,-168.5 254,-168.5"/>
<text text-anchor="middle" x="332.5" y="-175.5" font-family="Helvetica,sans-Serif" font-size="10.00">include/emlabcpp/bounded.h</text>
</a>
</g>
</g>
<!-- Node2 -->
<g id="node2" class="node">
<title>Node2</title>
<g id="a_node2"><a xlink:href="concepts_8h.html" target="_top" xlink:title=" ">
<polygon fill="white" stroke="black" points="171,-112.5 171,-131.5 246,-131.5 246,-112.5 171,-112.5"/>
<text text-anchor="middle" x="208.5" y="-119.5" font-family="Helvetica,sans-Serif" font-size="10.00">./concepts.h</text>
</a>
</g>
</g>
<!-- Node1&#45;&gt;Node2 -->
<g id="edge1" class="edge">
<title>Node1&#45;&gt;Node2</title>
<path fill="none" stroke="midnightblue" d="M312.85,-168.44C292.54,-159.6 260.6,-145.69 237.4,-135.59"/>
<polygon fill="midnightblue" stroke="midnightblue" points="238.62,-132.3 228.06,-131.52 235.83,-138.72 238.62,-132.3"/>
</g>
<!-- Node8 -->
<g id="node4" class="node">
<title>Node8</title>
<g id="a_node4"><a xlink:title=" ">
<polygon fill="white" stroke="#bfbfbf" points="153,-0.5 153,-19.5 222,-19.5 222,-0.5 153,-0.5"/>
<text text-anchor="middle" x="187.5" y="-7.5" font-family="Helvetica,sans-Serif" font-size="10.00">type_traits</text>
</a>
</g>
</g>
<!-- Node1&#45;&gt;Node8 -->
<g id="edge8" class="edge">
<title>Node1&#45;&gt;Node8</title>
<path fill="none" stroke="midnightblue" d="M333.89,-168.19C336.81,-146.41 341.17,-89.41 313.5,-56 293.59,-31.97 259.88,-20.77 232.34,-15.55"/>
<polygon fill="midnightblue" stroke="midnightblue" points="232.57,-12.04 222.12,-13.83 231.4,-18.94 232.57,-12.04"/>
</g>
<!-- Node13 -->
<g id="node8" class="node">
<title>Node13</title>
<g id="a_node8"><a xlink:title=" ">
<polygon fill="white" stroke="#bfbfbf" points="360.5,-112.5 360.5,-131.5 416.5,-131.5 416.5,-112.5 360.5,-112.5"/>
<text text-anchor="middle" x="388.5" y="-119.5" font-family="Helvetica,sans-Serif" font-size="10.00">optional</text>
</a>
</g>
</g>
<!-- Node1&#45;&gt;Node13 -->
<g id="edge7" class="edge">
<title>Node1&#45;&gt;Node13</title>
<path fill="none" stroke="midnightblue" d="M341.5,-168.32C349.69,-160.42 362.01,-148.55 371.97,-138.94"/>
<polygon fill="midnightblue" stroke="midnightblue" points="374.57,-141.29 379.34,-131.83 369.71,-136.26 374.57,-141.29"/>
</g>
<!-- Node3 -->
<g id="node3" class="node">
<title>Node3</title>
<g id="a_node3"><a xlink:href="types_2base_8h.html" target="_top" xlink:title=" ">
<polygon fill="white" stroke="red" points="0,-56.5 0,-75.5 85,-75.5 85,-56.5 0,-56.5"/>
<text text-anchor="middle" x="42.5" y="-63.5" font-family="Helvetica,sans-Serif" font-size="10.00">./types/base.h</text>
</a>
</g>
</g>
<!-- Node2&#45;&gt;Node3 -->
<g id="edge2" class="edge">
<title>Node2&#45;&gt;Node3</title>
<path fill="none" stroke="midnightblue" d="M182.2,-112.44C154.15,-103.32 109.56,-88.81 78.32,-78.65"/>
<polygon fill="midnightblue" stroke="midnightblue" points="79.27,-75.28 68.68,-75.52 77.11,-81.94 79.27,-75.28"/>
</g>
<!-- Node10 -->
<g id="node5" class="node">
<title>Node10</title>
<g id="a_node5"><a xlink:title=" ">
<polygon fill="white" stroke="#bfbfbf" points="103.5,-56.5 103.5,-75.5 163.5,-75.5 163.5,-56.5 103.5,-56.5"/>
<text text-anchor="middle" x="133.5" y="-63.5" font-family="Helvetica,sans-Serif" font-size="10.00">concepts</text>
</a>
</g>
</g>
<!-- Node2&#45;&gt;Node10 -->
<g id="edge4" class="edge">
<title>Node2&#45;&gt;Node10</title>
<path fill="none" stroke="midnightblue" d="M196.45,-112.32C185.04,-104.11 167.67,-91.6 154.07,-81.81"/>
<polygon fill="midnightblue" stroke="midnightblue" points="155.93,-78.84 145.77,-75.83 151.84,-84.52 155.93,-78.84"/>
</g>
<!-- Node11 -->
<g id="node6" class="node">
<title>Node11</title>
<g id="a_node6"><a xlink:title=" ">
<polygon fill="white" stroke="#bfbfbf" points="182,-56.5 182,-75.5 235,-75.5 235,-56.5 182,-56.5"/>
<text text-anchor="middle" x="208.5" y="-63.5" font-family="Helvetica,sans-Serif" font-size="10.00">iterator</text>
</a>
</g>
</g>
<!-- Node2&#45;&gt;Node11 -->
<g id="edge5" class="edge">
<title>Node2&#45;&gt;Node11</title>
<path fill="none" stroke="midnightblue" d="M208.5,-112.08C208.5,-105.01 208.5,-94.86 208.5,-85.99"/>
<polygon fill="midnightblue" stroke="midnightblue" points="212,-85.75 208.5,-75.75 205,-85.75 212,-85.75"/>
</g>
<!-- Node12 -->
<g id="node7" class="node">
<title>Node12</title>
<g id="a_node7"><a xlink:title=" ">
<polygon fill="white" stroke="#bfbfbf" points="253,-56.5 253,-75.5 304,-75.5 304,-56.5 253,-56.5"/>
<text text-anchor="middle" x="278.5" y="-63.5" font-family="Helvetica,sans-Serif" font-size="10.00">variant</text>
</a>
</g>
</g>
<!-- Node2&#45;&gt;Node12 -->
<g id="edge6" class="edge">
<title>Node2&#45;&gt;Node12</title>
<path fill="none" stroke="midnightblue" d="M219.75,-112.32C230.3,-104.18 246.3,-91.84 258.94,-82.09"/>
<polygon fill="midnightblue" stroke="midnightblue" points="261.27,-84.71 267.05,-75.83 256.99,-79.17 261.27,-84.71"/>
</g>
<!-- Node3&#45;&gt;Node8 -->
<g id="edge3" class="edge">
<title>Node3&#45;&gt;Node8</title>
<path fill="none" stroke="midnightblue" d="M65.48,-56.44C89.66,-47.44 127.92,-33.19 155.15,-23.05"/>
<polygon fill="midnightblue" stroke="midnightblue" points="156.48,-26.29 164.63,-19.52 154.04,-19.73 156.48,-26.29"/>
</g>
</g>
</svg>
