<?xml version="1.0" encoding="UTF-8" standalone="no"?>
<!DOCTYPE svg PUBLIC "-//W3C//DTD SVG 1.1//EN"
 "http://www.w3.org/Graphics/SVG/1.1/DTD/svg11.dtd">
<!-- Generated by graphviz version 2.43.0 (0)
 -->
<!-- Title: include/emlabcpp/experimental/bounded_view.h Pages: 1 -->
<svg width="300pt" height="207pt"
 viewBox="0.00 0.00 299.78 207.00" xmlns="http://www.w3.org/2000/svg" xmlns:xlink="http://www.w3.org/1999/xlink">
<g id="graph0" class="graph" transform="scale(1 1) rotate(0) translate(4 203)">
<title>include/emlabcpp/experimental/bounded_view.h</title>
<polygon fill="white" stroke="transparent" points="-4,4 -4,-203 295.78,-203 295.78,4 -4,4"/>
<!-- Node1 -->
<g id="node1" class="node">
<title>Node1</title>
<g id="a_node1"><a xlink:title=" ">
<polygon fill="#bfbfbf" stroke="black" points="36.28,-168.5 36.28,-198.5 207.28,-198.5 207.28,-168.5 36.28,-168.5"/>
<text text-anchor="start" x="44.28" y="-186.5" font-family="Helvetica,sans-Serif" font-size="10.00">include/emlabcpp/experimental</text>
<text text-anchor="middle" x="121.78" y="-175.5" font-family="Helvetica,sans-Serif" font-size="10.00">/bounded_view.h</text>
</a>
</g>
</g>
<!-- Node2 -->
<g id="node2" class="node">
<title>Node2</title>
<g id="a_node2"><a xlink:href="bounded_8h.html" target="_top" xlink:title=" ">
<polygon fill="white" stroke="black" points="41.28,-112.5 41.28,-131.5 118.28,-131.5 118.28,-112.5 41.28,-112.5"/>
<text text-anchor="middle" x="79.78" y="-119.5" font-family="Helvetica,sans-Serif" font-size="10.00">../bounded.h</text>
</a>
</g>
</g>
<!-- Node1&#45;&gt;Node2 -->
<g id="edge1" class="edge">
<title>Node1&#45;&gt;Node2</title>
<path fill="none" stroke="midnightblue" d="M111.83,-168.4C105.79,-159.84 98.05,-148.87 91.68,-139.86"/>
<polygon fill="midnightblue" stroke="midnightblue" points="94.52,-137.81 85.9,-131.66 88.8,-141.85 94.52,-137.81"/>
</g>
<!-- Node15 -->
<g id="node6" class="node">
<title>Node15</title>
<g id="a_node6"><a xlink:href="view_8h.html" target="_top" xlink:title=" ">
<polygon fill="white" stroke="black" points="175.28,-112.5 175.28,-131.5 232.28,-131.5 232.28,-112.5 175.28,-112.5"/>
<text text-anchor="middle" x="203.78" y="-119.5" font-family="Helvetica,sans-Serif" font-size="10.00">../view.h</text>
</a>
</g>
</g>
<!-- Node1&#45;&gt;Node15 -->
<g id="edge5" class="edge">
<title>Node1&#45;&gt;Node15</title>
<path fill="none" stroke="midnightblue" d="M141.22,-168.4C153.99,-159.13 170.67,-147.03 183.6,-137.65"/>
<polygon fill="midnightblue" stroke="midnightblue" points="185.81,-140.36 191.85,-131.66 181.7,-134.7 185.81,-140.36"/>
</g>
<!-- Node3 -->
<g id="node3" class="node">
<title>Node3</title>
<g id="a_node3"><a xlink:href="concepts_8h.html" target="_top" xlink:title=" ">
<polygon fill="white" stroke="red" points="56.28,-0.5 56.28,-19.5 131.28,-19.5 131.28,-0.5 56.28,-0.5"/>
<text text-anchor="middle" x="93.78" y="-7.5" font-family="Helvetica,sans-Serif" font-size="10.00">./concepts.h</text>
</a>
</g>
</g>
<!-- Node2&#45;&gt;Node3 -->
<g id="edge2" class="edge">
<title>Node2&#45;&gt;Node3</title>
<path fill="none" stroke="midnightblue" d="M54.56,-112.42C26.87,-101.53 -11.73,-81.11 3.78,-56 13.46,-40.35 30.41,-29.96 47.01,-23.15"/>
<polygon fill="midnightblue" stroke="midnightblue" points="48.53,-26.32 56.68,-19.54 46.09,-19.76 48.53,-26.32"/>
</g>
<!-- Node14 -->
<g id="node4" class="node">
<title>Node14</title>
<g id="a_node4"><a xlink:title=" ">
<polygon fill="white" stroke="#bfbfbf" points="12.78,-56.5 12.78,-75.5 68.78,-75.5 68.78,-56.5 12.78,-56.5"/>
<text text-anchor="middle" x="40.78" y="-63.5" font-family="Helvetica,sans-Serif" font-size="10.00">optional</text>
</a>
</g>
</g>
<!-- Node2&#45;&gt;Node14 -->
<g id="edge3" class="edge">
<title>Node2&#45;&gt;Node14</title>
<path fill="none" stroke="midnightblue" d="M73.34,-112.08C67.84,-104.46 59.75,-93.26 53.02,-83.94"/>
<polygon fill="midnightblue" stroke="midnightblue" points="55.8,-81.81 47.1,-75.75 50.12,-85.91 55.8,-81.81"/>
</g>
<!-- Node9 -->
<g id="node5" class="node">
<title>Node9</title>
<g id="a_node5"><a xlink:title=" ">
<polygon fill="white" stroke="#bfbfbf" points="87.28,-56.5 87.28,-75.5 156.28,-75.5 156.28,-56.5 87.28,-56.5"/>
<text text-anchor="middle" x="121.78" y="-63.5" font-family="Helvetica,sans-Serif" font-size="10.00">type_traits</text>
</a>
</g>
</g>
<!-- Node2&#45;&gt;Node9 -->
<g id="edge4" class="edge">
<title>Node2&#45;&gt;Node9</title>
<path fill="none" stroke="midnightblue" d="M86.72,-112.08C92.71,-104.38 101.54,-93.03 108.83,-83.65"/>
<polygon fill="midnightblue" stroke="midnightblue" points="111.6,-85.79 114.98,-75.75 106.08,-81.5 111.6,-85.79"/>
</g>
<!-- Node16 -->
<g id="node7" class="node">
<title>Node16</title>
<g id="a_node7"><a xlink:href="types_8h.html" target="_top" xlink:title=" ">
<polygon fill="white" stroke="red" points="174.28,-56.5 174.28,-75.5 233.28,-75.5 233.28,-56.5 174.28,-56.5"/>
<text text-anchor="middle" x="203.78" y="-63.5" font-family="Helvetica,sans-Serif" font-size="10.00">./types.h</text>
</a>
</g>
</g>
<!-- Node15&#45;&gt;Node16 -->
<g id="edge6" class="edge">
<title>Node15&#45;&gt;Node16</title>
<path fill="none" stroke="midnightblue" d="M203.78,-112.08C203.78,-105.01 203.78,-94.86 203.78,-85.99"/>
<polygon fill="midnightblue" stroke="midnightblue" points="207.28,-85.75 203.78,-75.75 200.28,-85.75 207.28,-85.75"/>
</g>
<!-- Node18 -->
<g id="node8" class="node">
<title>Node18</title>
<g id="a_node8"><a xlink:title=" ">
<polygon fill="white" stroke="#bfbfbf" points="251.78,-56.5 251.78,-75.5 291.78,-75.5 291.78,-56.5 251.78,-56.5"/>
<text text-anchor="middle" x="271.78" y="-63.5" font-family="Helvetica,sans-Serif" font-size="10.00">span</text>
</a>
</g>
</g>
<!-- Node15&#45;&gt;Node18 -->
<g id="edge8" class="edge">
<title>Node15&#45;&gt;Node18</title>
<path fill="none" stroke="midnightblue" d="M214.71,-112.32C224.96,-104.18 240.5,-91.84 252.79,-82.09"/>
<polygon fill="midnightblue" stroke="midnightblue" points="255.01,-84.79 260.66,-75.83 250.65,-79.31 255.01,-84.79"/>
</g>
<!-- Node16&#45;&gt;Node3 -->
<g id="edge7" class="edge">
<title>Node16&#45;&gt;Node3</title>
<path fill="none" stroke="midnightblue" d="M186.11,-56.32C168.39,-47.62 140.88,-34.12 120.5,-24.11"/>
<polygon fill="midnightblue" stroke="midnightblue" points="121.93,-20.92 111.41,-19.65 118.85,-27.2 121.93,-20.92"/>
</g>
</g>
</svg>
