<?xml version="1.0" encoding="UTF-8" standalone="no"?>
<!DOCTYPE svg PUBLIC "-//W3C//DTD SVG 1.1//EN"
 "http://www.w3.org/Graphics/SVG/1.1/DTD/svg11.dtd">
<!-- Generated by graphviz version 2.43.0 (0)
 -->
<!-- Title: emlabcpp::coro::wait_interface Pages: 1 -->
<svg width="328pt" height="235pt"
 viewBox="0.00 0.00 328.00 235.00" xmlns="http://www.w3.org/2000/svg" xmlns:xlink="http://www.w3.org/1999/xlink">
<g id="graph0" class="graph" transform="scale(1 1) rotate(0) translate(4 231)">
<title>emlabcpp::coro::wait_interface</title>
<polygon fill="white" stroke="transparent" points="-4,4 -4,-231 324,-231 324,4 -4,4"/>
<!-- Node1 -->
<g id="node1" class="node">
<title>Node1</title>
<g id="a_node1"><a xlink:title=" ">
<polygon fill="#bfbfbf" stroke="black" points="0,-98.5 0,-128.5 119,-128.5 119,-98.5 0,-98.5"/>
<text text-anchor="start" x="8" y="-116.5" font-family="Helvetica,sans-Serif" font-size="10.00">emlabcpp::coro::wait</text>
<text text-anchor="middle" x="59.5" y="-105.5" font-family="Helvetica,sans-Serif" font-size="10.00">_interface</text>
</a>
</g>
</g>
<!-- Node2 -->
<g id="node2" class="node">
<title>Node2</title>
<g id="a_node2"><a xlink:href="classemlabcpp_1_1coro_1_1recursive__coroutine.html" target="_top" xlink:title=" ">
<polygon fill="white" stroke="black" points="166,-196.5 166,-226.5 309,-226.5 309,-196.5 166,-196.5"/>
<text text-anchor="start" x="174" y="-214.5" font-family="Helvetica,sans-Serif" font-size="10.00">emlabcpp::coro::recursive</text>
<text text-anchor="middle" x="237.5" y="-203.5" font-family="Helvetica,sans-Serif" font-size="10.00">_coroutine&lt; void &gt;</text>
</a>
</g>
</g>
<!-- Node1&#45;&gt;Node2 -->
<g id="edge1" class="edge">
<title>Node1&#45;&gt;Node2</title>
<path fill="none" stroke="midnightblue" d="M83.63,-135.73C101.77,-152.08 128.33,-173.77 155,-187.5 161.56,-190.88 168.66,-193.85 175.85,-196.45"/>
<polygon fill="midnightblue" stroke="midnightblue" points="85.65,-132.83 75.92,-128.64 80.91,-137.98 85.65,-132.83"/>
</g>
<!-- Node3 -->
<g id="node3" class="node">
<title>Node3</title>
<g id="a_node3"><a xlink:href="structemlabcpp_1_1coro_1_1noop__awaiter.html" target="_top" xlink:title=" ">
<polygon fill="white" stroke="black" points="176.5,-147.5 176.5,-177.5 298.5,-177.5 298.5,-147.5 176.5,-147.5"/>
<text text-anchor="start" x="184.5" y="-165.5" font-family="Helvetica,sans-Serif" font-size="10.00">emlabcpp::coro::noop</text>
<text text-anchor="middle" x="237.5" y="-154.5" font-family="Helvetica,sans-Serif" font-size="10.00">_awaiter</text>
</a>
</g>
</g>
<!-- Node1&#45;&gt;Node3 -->
<g id="edge2" class="edge">
<title>Node1&#45;&gt;Node3</title>
<path fill="none" stroke="midnightblue" d="M124.51,-131.32C143.51,-136.61 164.13,-142.35 182.44,-147.45"/>
<polygon fill="midnightblue" stroke="midnightblue" points="125.31,-127.91 114.74,-128.6 123.44,-134.66 125.31,-127.91"/>
</g>
<!-- Node4 -->
<g id="node4" class="node">
<title>Node4</title>
<g id="a_node4"><a xlink:href="classemlabcpp_1_1coro_1_1recursive__coroutine.html" target="_top" xlink:title=" ">
<polygon fill="white" stroke="black" points="166,-98.5 166,-128.5 309,-128.5 309,-98.5 166,-98.5"/>
<text text-anchor="start" x="174" y="-116.5" font-family="Helvetica,sans-Serif" font-size="10.00">emlabcpp::coro::recursive</text>
<text text-anchor="middle" x="237.5" y="-105.5" font-family="Helvetica,sans-Serif" font-size="10.00">_coroutine&lt; T &gt;</text>
</a>
</g>
</g>
<!-- Node1&#45;&gt;Node4 -->
<g id="edge3" class="edge">
<title>Node1&#45;&gt;Node4</title>
<path fill="none" stroke="midnightblue" d="M129.11,-113.5C141.19,-113.5 153.79,-113.5 165.92,-113.5"/>
<polygon fill="midnightblue" stroke="midnightblue" points="129.11,-110 119.11,-113.5 129.11,-117 129.11,-110"/>
</g>
<!-- Node5 -->
<g id="node5" class="node">
<title>Node5</title>
<g id="a_node5"><a xlink:href="classemlabcpp_1_1testing_1_1collect__awaiter.html" target="_top" xlink:title=" ">
<polygon fill="white" stroke="black" points="182.5,-49.5 182.5,-79.5 292.5,-79.5 292.5,-49.5 182.5,-49.5"/>
<text text-anchor="start" x="190.5" y="-67.5" font-family="Helvetica,sans-Serif" font-size="10.00">emlabcpp::testing::</text>
<text text-anchor="middle" x="237.5" y="-56.5" font-family="Helvetica,sans-Serif" font-size="10.00">collect_awaiter</text>
</a>
</g>
</g>
<!-- Node1&#45;&gt;Node5 -->
<g id="edge4" class="edge">
<title>Node1&#45;&gt;Node5</title>
<path fill="none" stroke="midnightblue" d="M124.51,-95.68C143.51,-90.39 164.13,-84.65 182.44,-79.55"/>
<polygon fill="midnightblue" stroke="midnightblue" points="123.44,-92.34 114.74,-98.4 125.31,-99.09 123.44,-92.34"/>
</g>
<!-- Node6 -->
<g id="node6" class="node">
<title>Node6</title>
<g id="a_node6"><a xlink:href="structemlabcpp_1_1testing_1_1params__awaiter.html" target="_top" xlink:title=" ">
<polygon fill="white" stroke="black" points="155,-0.5 155,-30.5 320,-30.5 320,-0.5 155,-0.5"/>
<text text-anchor="start" x="163" y="-18.5" font-family="Helvetica,sans-Serif" font-size="10.00">emlabcpp::testing::</text>
<text text-anchor="middle" x="237.5" y="-7.5" font-family="Helvetica,sans-Serif" font-size="10.00">params_awaiter&lt; Processor &gt;</text>
</a>
</g>
</g>
<!-- Node1&#45;&gt;Node6 -->
<g id="edge5" class="edge">
<title>Node1&#45;&gt;Node6</title>
<path fill="none" stroke="midnightblue" d="M84.06,-91.38C102.24,-75.34 128.66,-54.14 155,-40.5 162.23,-36.76 170.11,-33.47 178.04,-30.61"/>
<polygon fill="midnightblue" stroke="midnightblue" points="81.41,-89.06 76.32,-98.35 86.09,-94.26 81.41,-89.06"/>
</g>
</g>
</svg>
