<?xml version="1.0" encoding="UTF-8" standalone="no"?>
<!DOCTYPE svg PUBLIC "-//W3C//DTD SVG 1.1//EN"
 "http://www.w3.org/Graphics/SVG/1.1/DTD/svg11.dtd">
<!-- Generated by graphviz version 2.43.0 (0)
 -->
<!-- Title: emlabcpp::static_circular_buffer_iterator&lt; Container &gt; Pages: 1 -->
<svg width="169pt" height="117pt"
 viewBox="0.00 0.00 169.00 117.00" xmlns="http://www.w3.org/2000/svg" xmlns:xlink="http://www.w3.org/1999/xlink">
<g id="graph0" class="graph" transform="scale(1 1) rotate(0) translate(4 113)">
<title>emlabcpp::static_circular_buffer_iterator&lt; Container &gt;</title>
<polygon fill="white" stroke="transparent" points="-4,4 -4,-113 165,-113 165,4 -4,4"/>
<!-- Node1 -->
<g id="node1" class="node">
<title>Node1</title>
<g id="a_node1"><a xlink:title=" ">
<polygon fill="#bfbfbf" stroke="black" points="0,-0.5 0,-30.5 161,-30.5 161,-0.5 0,-0.5"/>
<text text-anchor="start" x="8" y="-18.5" font-family="Helvetica,sans-Serif" font-size="10.00">emlabcpp::static_circular</text>
<text text-anchor="middle" x="80.5" y="-7.5" font-family="Helvetica,sans-Serif" font-size="10.00">_buffer_iterator&lt; Container &gt;</text>
</a>
</g>
</g>
<!-- Node2 -->
<g id="node2" class="node">
<title>Node2</title>
<g id="a_node2"><a xlink:href="classemlabcpp_1_1generic__iterator.html" target="_top" xlink:title=" ">
<polygon fill="white" stroke="black" points="6.5,-67.5 6.5,-108.5 154.5,-108.5 154.5,-67.5 6.5,-67.5"/>
<text text-anchor="start" x="14.5" y="-96.5" font-family="Helvetica,sans-Serif" font-size="10.00">emlabcpp::generic_iterator</text>
<text text-anchor="start" x="14.5" y="-85.5" font-family="Helvetica,sans-Serif" font-size="10.00">&lt; static_circular_buffer</text>
<text text-anchor="middle" x="80.5" y="-74.5" font-family="Helvetica,sans-Serif" font-size="10.00">_iterator&lt; Container &gt; &gt;</text>
</a>
</g>
</g>
<!-- Node2&#45;&gt;Node1 -->
<g id="edge1" class="edge">
<title>Node2&#45;&gt;Node1</title>
<path fill="none" stroke="midnightblue" d="M80.5,-57.08C80.5,-48.01 80.5,-38.45 80.5,-30.89"/>
<polygon fill="midnightblue" stroke="midnightblue" points="77,-57.36 80.5,-67.36 84,-57.36 77,-57.36"/>
</g>
</g>
</svg>
