<?xml version="1.0" encoding="UTF-8" standalone="no"?>
<!DOCTYPE svg PUBLIC "-//W3C//DTD SVG 1.1//EN"
 "http://www.w3.org/Graphics/SVG/1.1/DTD/svg11.dtd">
<!-- Generated by graphviz version 2.43.0 (0)
 -->
<!-- Title: emlabcpp::iterators::access_iterator&lt; Iterator, AccessCallable &gt; Pages: 1 -->
<svg width="160pt" height="128pt"
 viewBox="0.00 0.00 160.00 128.00" xmlns="http://www.w3.org/2000/svg" xmlns:xlink="http://www.w3.org/1999/xlink">
<g id="graph0" class="graph" transform="scale(1 1) rotate(0) translate(4 124)">
<title>emlabcpp::iterators::access_iterator&lt; Iterator, AccessCallable &gt;</title>
<polygon fill="white" stroke="transparent" points="-4,4 -4,-124 156,-124 156,4 -4,4"/>
<!-- Node1 -->
<g id="node1" class="node">
<title>Node1</title>
<g id="a_node1"><a xlink:title="access_iterator provides access to a reference of value stored in the Iterator.">
<polygon fill="#bfbfbf" stroke="black" points="2.5,-0.5 2.5,-41.5 149.5,-41.5 149.5,-0.5 2.5,-0.5"/>
<text text-anchor="start" x="10.5" y="-29.5" font-family="Helvetica,sans-Serif" font-size="10.00">emlabcpp::iterators</text>
<text text-anchor="start" x="10.5" y="-18.5" font-family="Helvetica,sans-Serif" font-size="10.00">::access_iterator&lt; Iterator,</text>
<text text-anchor="middle" x="76" y="-7.5" font-family="Helvetica,sans-Serif" font-size="10.00"> AccessCallable &gt;</text>
</a>
</g>
</g>
<!-- Node2 -->
<g id="node2" class="node">
<title>Node2</title>
<g id="a_node2"><a xlink:href="classemlabcpp_1_1generic__iterator.html" target="_top" xlink:title=" ">
<polygon fill="white" stroke="black" points="0,-78.5 0,-119.5 152,-119.5 152,-78.5 0,-78.5"/>
<text text-anchor="start" x="8" y="-107.5" font-family="Helvetica,sans-Serif" font-size="10.00">emlabcpp::generic_iterator</text>
<text text-anchor="start" x="8" y="-96.5" font-family="Helvetica,sans-Serif" font-size="10.00">&lt; access_iterator&lt; Iterator,</text>
<text text-anchor="middle" x="76" y="-85.5" font-family="Helvetica,sans-Serif" font-size="10.00"> AccessCallable &gt; &gt;</text>
</a>
</g>
</g>
<!-- Node2&#45;&gt;Node1 -->
<g id="edge1" class="edge">
<title>Node2&#45;&gt;Node1</title>
<path fill="none" stroke="midnightblue" d="M76,-68.3C76,-59.3 76,-49.65 76,-41.51"/>
<polygon fill="midnightblue" stroke="midnightblue" points="72.5,-68.43 76,-78.43 79.5,-68.43 72.5,-68.43"/>
</g>
</g>
</svg>
