<?xml version="1.0" encoding="UTF-8" standalone="no"?>
<!DOCTYPE svg PUBLIC "-//W3C//DTD SVG 1.1//EN"
 "http://www.w3.org/Graphics/SVG/1.1/DTD/svg11.dtd">
<!-- Generated by graphviz version 2.43.0 (0)
 -->
<!-- Title: emlabcpp::pmr::memory_resource Pages: 1 -->
<svg width="318pt" height="198pt"
 viewBox="0.00 0.00 318.00 198.00" xmlns="http://www.w3.org/2000/svg" xmlns:xlink="http://www.w3.org/1999/xlink">
<g id="graph0" class="graph" transform="scale(1 1) rotate(0) translate(4 194)">
<title>emlabcpp::pmr::memory_resource</title>
<polygon fill="white" stroke="transparent" points="-4,4 -4,-194 314,-194 314,4 -4,4"/>
<!-- Node1 -->
<g id="node1" class="node">
<title>Node1</title>
<g id="a_node1"><a xlink:title=" ">
<polygon fill="#bfbfbf" stroke="black" points="0,-82.5 0,-112.5 137,-112.5 137,-82.5 0,-82.5"/>
<text text-anchor="start" x="8" y="-100.5" font-family="Helvetica,sans-Serif" font-size="10.00">emlabcpp::pmr::memory</text>
<text text-anchor="middle" x="68.5" y="-89.5" font-family="Helvetica,sans-Serif" font-size="10.00">_resource</text>
</a>
</g>
</g>
<!-- Node2 -->
<g id="node2" class="node">
<title>Node2</title>
<g id="a_node2"><a xlink:href="classemlabcpp_1_1pmr_1_1stack__resource.html" target="_top" xlink:title=" ">
<polygon fill="white" stroke="black" points="173,-159.5 173,-189.5 310,-189.5 310,-159.5 173,-159.5"/>
<text text-anchor="start" x="181" y="-177.5" font-family="Helvetica,sans-Serif" font-size="10.00">emlabcpp::pmr::stack</text>
<text text-anchor="middle" x="241.5" y="-166.5" font-family="Helvetica,sans-Serif" font-size="10.00">_resource&lt; 1024+512 &gt;</text>
</a>
</g>
</g>
<!-- Node1&#45;&gt;Node2 -->
<g id="edge1" class="edge">
<title>Node1&#45;&gt;Node2</title>
<path fill="none" stroke="midnightblue" d="M105.61,-117.47C125.24,-127.95 150.12,-140.62 173,-150.5 180.19,-153.6 187.94,-156.64 195.52,-159.44"/>
<polygon fill="midnightblue" stroke="midnightblue" points="107.17,-114.34 96.7,-112.68 103.85,-120.5 107.17,-114.34"/>
</g>
<!-- Node3 -->
<g id="node3" class="node">
<title>Node3</title>
<g id="a_node3"><a xlink:href="structemlabcpp_1_1pmr_1_1new__delete__resource__impl.html" target="_top" xlink:title=" ">
<polygon fill="white" stroke="black" points="178,-110.5 178,-140.5 305,-140.5 305,-110.5 178,-110.5"/>
<text text-anchor="start" x="186" y="-128.5" font-family="Helvetica,sans-Serif" font-size="10.00">emlabcpp::pmr::new</text>
<text text-anchor="middle" x="241.5" y="-117.5" font-family="Helvetica,sans-Serif" font-size="10.00">_delete_resource_impl</text>
</a>
</g>
</g>
<!-- Node1&#45;&gt;Node3 -->
<g id="edge2" class="edge">
<title>Node1&#45;&gt;Node3</title>
<path fill="none" stroke="midnightblue" d="M147.26,-110.23C157.51,-111.91 167.91,-113.61 177.86,-115.24"/>
<polygon fill="midnightblue" stroke="midnightblue" points="147.52,-106.73 137.08,-108.57 146.39,-113.64 147.52,-106.73"/>
</g>
<!-- Node4 -->
<g id="node4" class="node">
<title>Node4</title>
<g id="a_node4"><a xlink:href="classemlabcpp_1_1pmr_1_1pool__resource.html" target="_top" xlink:title=" ">
<polygon fill="white" stroke="black" points="182,-50 182,-91 301,-91 301,-50 182,-50"/>
<text text-anchor="start" x="190" y="-79" font-family="Helvetica,sans-Serif" font-size="10.00">emlabcpp::pmr::pool</text>
<text text-anchor="start" x="190" y="-68" font-family="Helvetica,sans-Serif" font-size="10.00">_resource&lt; PoolSize,</text>
<text text-anchor="middle" x="241.5" y="-57" font-family="Helvetica,sans-Serif" font-size="10.00"> PoolCount &gt;</text>
</a>
</g>
</g>
<!-- Node1&#45;&gt;Node4 -->
<g id="edge3" class="edge">
<title>Node1&#45;&gt;Node4</title>
<path fill="none" stroke="midnightblue" d="M147.27,-85.22C158.94,-83.38 170.8,-81.51 181.98,-79.74"/>
<polygon fill="midnightblue" stroke="midnightblue" points="146.42,-81.81 137.08,-86.83 147.51,-88.73 146.42,-81.81"/>
</g>
<!-- Node5 -->
<g id="node5" class="node">
<title>Node5</title>
<g id="a_node5"><a xlink:href="classemlabcpp_1_1pmr_1_1stack__resource.html" target="_top" xlink:title=" ">
<polygon fill="white" stroke="black" points="177,-0.5 177,-30.5 306,-30.5 306,-0.5 177,-0.5"/>
<text text-anchor="start" x="185" y="-18.5" font-family="Helvetica,sans-Serif" font-size="10.00">emlabcpp::pmr::stack</text>
<text text-anchor="middle" x="241.5" y="-7.5" font-family="Helvetica,sans-Serif" font-size="10.00">_resource&lt; Capacity &gt;</text>
</a>
</g>
</g>
<!-- Node1&#45;&gt;Node5 -->
<g id="edge4" class="edge">
<title>Node1&#45;&gt;Node5</title>
<path fill="none" stroke="midnightblue" d="M103.18,-77.29C123.11,-65.75 149.06,-51.45 173,-40.5 180.61,-37.02 188.87,-33.64 196.9,-30.56"/>
<polygon fill="midnightblue" stroke="midnightblue" points="101.35,-74.3 94.48,-82.37 104.88,-80.35 101.35,-74.3"/>
</g>
</g>
</svg>
