<?xml version="1.0" encoding="UTF-8" standalone="no"?>
<!DOCTYPE svg PUBLIC "-//W3C//DTD SVG 1.1//EN"
 "http://www.w3.org/Graphics/SVG/1.1/DTD/svg11.dtd">
<!-- Generated by graphviz version 2.43.0 (0)
 -->
<!-- Title: emlabcpp::iterators::subscript_iterator&lt; Container &gt; Pages: 1 -->
<svg width="202pt" height="117pt"
 viewBox="0.00 0.00 202.00 117.00" xmlns="http://www.w3.org/2000/svg" xmlns:xlink="http://www.w3.org/1999/xlink">
<g id="graph0" class="graph" transform="scale(1 1) rotate(0) translate(4 113)">
<title>emlabcpp::iterators::subscript_iterator&lt; Container &gt;</title>
<polygon fill="white" stroke="transparent" points="-4,4 -4,-113 198,-113 198,4 -4,4"/>
<!-- Node1 -->
<g id="node1" class="node">
<title>Node1</title>
<g id="a_node1"><a xlink:title="Subscript iterator stores reference to given container and index of item.">
<polygon fill="#bfbfbf" stroke="black" points="41,-0.5 41,-41.5 153,-41.5 153,-0.5 41,-0.5"/>
<text text-anchor="start" x="49" y="-29.5" font-family="Helvetica,sans-Serif" font-size="10.00">emlabcpp::iterators</text>
<text text-anchor="start" x="49" y="-18.5" font-family="Helvetica,sans-Serif" font-size="10.00">::subscript_iterator</text>
<text text-anchor="middle" x="97" y="-7.5" font-family="Helvetica,sans-Serif" font-size="10.00">&lt; Container &gt;</text>
</a>
</g>
</g>
<!-- Node2 -->
<g id="node2" class="node">
<title>Node2</title>
<g id="a_node2"><a xlink:href="namespaceemlabcpp.html" target="_top" xlink:title=" ">
<polygon fill="white" stroke="black" points="0,-78.5 0,-108.5 194,-108.5 194,-78.5 0,-78.5"/>
<text text-anchor="start" x="8" y="-96.5" font-family="Helvetica,sans-Serif" font-size="10.00">emlabcpp::generic_iterator</text>
<text text-anchor="middle" x="97" y="-85.5" font-family="Helvetica,sans-Serif" font-size="10.00">&lt; subscript_iterator&lt; Container &gt; &gt;</text>
</a>
</g>
</g>
<!-- Node2&#45;&gt;Node1 -->
<g id="edge1" class="edge">
<title>Node2&#45;&gt;Node1</title>
<path fill="none" stroke="midnightblue" d="M97,-67.98C97,-59.35 97,-49.76 97,-41.59"/>
<polygon fill="midnightblue" stroke="midnightblue" points="93.5,-68.23 97,-78.23 100.5,-68.23 93.5,-68.23"/>
</g>
</g>
</svg>
