<?xml version="1.0" encoding="UTF-8" standalone="no"?>
<!DOCTYPE svg PUBLIC "-//W3C//DTD SVG 1.1//EN"
 "http://www.w3.org/Graphics/SVG/1.1/DTD/svg11.dtd">
<!-- Generated by graphviz version 2.43.0 (0)
 -->
<!-- Title: emlabcpp::detail::static_function_storage&lt; T, ReturnType, ArgTypes &gt; Pages: 1 -->
<svg width="193pt" height="139pt"
 viewBox="0.00 0.00 193.00 139.00" xmlns="http://www.w3.org/2000/svg" xmlns:xlink="http://www.w3.org/1999/xlink">
<g id="graph0" class="graph" transform="scale(1 1) rotate(0) translate(4 135)">
<title>emlabcpp::detail::static_function_storage&lt; T, ReturnType, ArgTypes &gt;</title>
<polygon fill="white" stroke="transparent" points="-4,4 -4,-135 189,-135 189,4 -4,4"/>
<!-- Node1 -->
<g id="node1" class="node">
<title>Node1</title>
<g id="a_node1"><a xlink:title=" ">
<polygon fill="#bfbfbf" stroke="black" points="0,-0.5 0,-41.5 185,-41.5 185,-0.5 0,-0.5"/>
<text text-anchor="start" x="8" y="-29.5" font-family="Helvetica,sans-Serif" font-size="10.00">emlabcpp::detail::static</text>
<text text-anchor="start" x="8" y="-18.5" font-family="Helvetica,sans-Serif" font-size="10.00">_function_storage&lt; T, ReturnType,</text>
<text text-anchor="middle" x="92.5" y="-7.5" font-family="Helvetica,sans-Serif" font-size="10.00"> ArgTypes &gt;</text>
</a>
</g>
</g>
<!-- Node2 -->
<g id="node2" class="node">
<title>Node2</title>
<g id="a_node2"><a xlink:href="structemlabcpp_1_1detail_1_1static__function__vtable.html" target="_top" xlink:title=" ">
<polygon fill="white" stroke="black" points="9,-89.5 9,-130.5 176,-130.5 176,-89.5 9,-89.5"/>
<text text-anchor="start" x="17" y="-118.5" font-family="Helvetica,sans-Serif" font-size="10.00">emlabcpp::detail::static</text>
<text text-anchor="start" x="17" y="-107.5" font-family="Helvetica,sans-Serif" font-size="10.00">_function_vtable&lt; ReturnType,</text>
<text text-anchor="middle" x="92.5" y="-96.5" font-family="Helvetica,sans-Serif" font-size="10.00"> ArgTypes... &gt;</text>
</a>
</g>
</g>
<!-- Node2&#45;&gt;Node1 -->
<g id="edge1" class="edge">
<title>Node2&#45;&gt;Node1</title>
<path fill="none" stroke="#9a32cd" stroke-dasharray="5,2" d="M92.5,-78.94C92.5,-66.6 92.5,-52.66 92.5,-41.66"/>
<polygon fill="#9a32cd" stroke="#9a32cd" points="89,-79.26 92.5,-89.26 96,-79.26 89,-79.26"/>
<text text-anchor="middle" x="109.5" y="-63" font-family="Helvetica,sans-Serif" font-size="10.00"> vtable</text>
</g>
</g>
</svg>
