<?xml version="1.0" encoding="UTF-8" standalone="no"?>
<!DOCTYPE svg PUBLIC "-//W3C//DTD SVG 1.1//EN"
 "http://www.w3.org/Graphics/SVG/1.1/DTD/svg11.dtd">
<!-- Generated by graphviz version 2.43.0 (0)
 -->
<!-- Title: emlabcpp::coro::wait_interface Pages: 1 -->
<svg width="328pt" height="186pt"
 viewBox="0.00 0.00 328.00 186.00" xmlns="http://www.w3.org/2000/svg" xmlns:xlink="http://www.w3.org/1999/xlink">
<g id="graph0" class="graph" transform="scale(1 1) rotate(0) translate(4 182)">
<title>emlabcpp::coro::wait_interface</title>
<polygon fill="white" stroke="transparent" points="-4,4 -4,-182 324,-182 324,4 -4,4"/>
<!-- Node1 -->
<g id="node1" class="node">
<title>Node1</title>
<g id="a_node1"><a xlink:title=" ">
<polygon fill="#bfbfbf" stroke="black" points="0,-73.5 0,-103.5 119,-103.5 119,-73.5 0,-73.5"/>
<text text-anchor="start" x="8" y="-91.5" font-family="Helvetica,sans-Serif" font-size="10.00">emlabcpp::coro::wait</text>
<text text-anchor="middle" x="59.5" y="-80.5" font-family="Helvetica,sans-Serif" font-size="10.00">_interface</text>
</a>
</g>
</g>
<!-- Node2 -->
<g id="node2" class="node">
<title>Node2</title>
<g id="a_node2"><a xlink:href="classemlabcpp_1_1coro_1_1recursive__coroutine.html" target="_top" xlink:title=" ">
<polygon fill="white" stroke="black" points="166,-147.5 166,-177.5 309,-177.5 309,-147.5 166,-147.5"/>
<text text-anchor="start" x="174" y="-165.5" font-family="Helvetica,sans-Serif" font-size="10.00">emlabcpp::coro::recursive</text>
<text text-anchor="middle" x="237.5" y="-154.5" font-family="Helvetica,sans-Serif" font-size="10.00">_coroutine&lt; void &gt;</text>
</a>
</g>
</g>
<!-- Node1&#45;&gt;Node2 -->
<g id="edge1" class="edge">
<title>Node1&#45;&gt;Node2</title>
<path fill="none" stroke="midnightblue" d="M94.3,-108.5C111.98,-118.42 134.21,-130.04 155,-138.5 162.92,-141.72 171.44,-144.72 179.88,-147.43"/>
<polygon fill="midnightblue" stroke="midnightblue" points="95.93,-105.4 85.51,-103.5 92.47,-111.49 95.93,-105.4"/>
</g>
<!-- Node3 -->
<g id="node3" class="node">
<title>Node3</title>
<g id="a_node3"><a xlink:href="classemlabcpp_1_1coro_1_1recursive__coroutine.html" target="_top" xlink:title=" ">
<polygon fill="white" stroke="black" points="166,-98.5 166,-128.5 309,-128.5 309,-98.5 166,-98.5"/>
<text text-anchor="start" x="174" y="-116.5" font-family="Helvetica,sans-Serif" font-size="10.00">emlabcpp::coro::recursive</text>
<text text-anchor="middle" x="237.5" y="-105.5" font-family="Helvetica,sans-Serif" font-size="10.00">_coroutine&lt; T &gt;</text>
</a>
</g>
</g>
<!-- Node1&#45;&gt;Node3 -->
<g id="edge2" class="edge">
<title>Node1&#45;&gt;Node3</title>
<path fill="none" stroke="midnightblue" d="M129.11,-98.25C141.19,-99.96 153.79,-101.75 165.92,-103.48"/>
<polygon fill="midnightblue" stroke="midnightblue" points="129.5,-94.77 119.11,-96.82 128.51,-101.7 129.5,-94.77"/>
</g>
<!-- Node4 -->
<g id="node4" class="node">
<title>Node4</title>
<g id="a_node4"><a xlink:href="classemlabcpp_1_1testing_1_1collect__awaiter.html" target="_top" xlink:title=" ">
<polygon fill="white" stroke="black" points="182.5,-49.5 182.5,-79.5 292.5,-79.5 292.5,-49.5 182.5,-49.5"/>
<text text-anchor="start" x="190.5" y="-67.5" font-family="Helvetica,sans-Serif" font-size="10.00">emlabcpp::testing::</text>
<text text-anchor="middle" x="237.5" y="-56.5" font-family="Helvetica,sans-Serif" font-size="10.00">collect_awaiter</text>
</a>
</g>
</g>
<!-- Node1&#45;&gt;Node4 -->
<g id="edge3" class="edge">
<title>Node1&#45;&gt;Node4</title>
<path fill="none" stroke="midnightblue" d="M129.32,-79.12C146.91,-76.72 165.57,-74.17 182.31,-71.89"/>
<polygon fill="midnightblue" stroke="midnightblue" points="128.54,-75.69 119.11,-80.51 129.49,-82.63 128.54,-75.69"/>
</g>
<!-- Node5 -->
<g id="node5" class="node">
<title>Node5</title>
<g id="a_node5"><a xlink:href="structemlabcpp_1_1testing_1_1params__awaiter.html" target="_top" xlink:title=" ">
<polygon fill="white" stroke="black" points="155,-0.5 155,-30.5 320,-30.5 320,-0.5 155,-0.5"/>
<text text-anchor="start" x="163" y="-18.5" font-family="Helvetica,sans-Serif" font-size="10.00">emlabcpp::testing::</text>
<text text-anchor="middle" x="237.5" y="-7.5" font-family="Helvetica,sans-Serif" font-size="10.00">params_awaiter&lt; Processor &gt;</text>
</a>
</g>
</g>
<!-- Node1&#45;&gt;Node5 -->
<g id="edge4" class="edge">
<title>Node1&#45;&gt;Node5</title>
<path fill="none" stroke="midnightblue" d="M96.42,-68.41C113.79,-59.18 135.13,-48.52 155,-40.5 163.78,-36.95 173.27,-33.62 182.56,-30.61"/>
<polygon fill="midnightblue" stroke="midnightblue" points="94.36,-65.54 87.22,-73.37 97.68,-71.71 94.36,-65.54"/>
</g>
</g>
</svg>
