<?xml version="1.0" encoding="UTF-8" standalone="no"?>
<!DOCTYPE svg PUBLIC "-//W3C//DTD SVG 1.1//EN"
 "http://www.w3.org/Graphics/SVG/1.1/DTD/svg11.dtd">
<!-- Generated by graphviz version 2.43.0 (0)
 -->
<!-- Title: emlabcpp::coro::wait_interface Pages: 1 -->
<svg width="328pt" height="333pt"
 viewBox="0.00 0.00 328.00 333.00" xmlns="http://www.w3.org/2000/svg" xmlns:xlink="http://www.w3.org/1999/xlink">
<g id="graph0" class="graph" transform="scale(1 1) rotate(0) translate(4 329)">
<title>emlabcpp::coro::wait_interface</title>
<polygon fill="white" stroke="transparent" points="-4,4 -4,-329 324,-329 324,4 -4,4"/>
<!-- Node1 -->
<g id="node1" class="node">
<title>Node1</title>
<g id="a_node1"><a xlink:title=" ">
<polygon fill="#bfbfbf" stroke="black" points="0,-147.5 0,-177.5 119,-177.5 119,-147.5 0,-147.5"/>
<text text-anchor="start" x="8" y="-165.5" font-family="Helvetica,sans-Serif" font-size="10.00">emlabcpp::coro::wait</text>
<text text-anchor="middle" x="59.5" y="-154.5" font-family="Helvetica,sans-Serif" font-size="10.00">_interface</text>
</a>
</g>
</g>
<!-- Node2 -->
<g id="node2" class="node">
<title>Node2</title>
<g id="a_node2"><a xlink:href="classemlabcpp_1_1coro_1_1recursive__coroutine.html" target="_top" xlink:title=" ">
<polygon fill="white" stroke="black" points="166,-294.5 166,-324.5 309,-324.5 309,-294.5 166,-294.5"/>
<text text-anchor="start" x="174" y="-312.5" font-family="Helvetica,sans-Serif" font-size="10.00">emlabcpp::coro::recursive</text>
<text text-anchor="middle" x="237.5" y="-301.5" font-family="Helvetica,sans-Serif" font-size="10.00">_coroutine&lt; void &gt;</text>
</a>
</g>
</g>
<!-- Node1&#45;&gt;Node2 -->
<g id="edge1" class="edge">
<title>Node1&#45;&gt;Node2</title>
<path fill="none" stroke="midnightblue" d="M73.05,-186.96C88.59,-214.85 117.65,-259.89 155,-285.5 159.99,-288.92 165.47,-291.86 171.16,-294.39"/>
<polygon fill="midnightblue" stroke="midnightblue" points="75.96,-184.99 68.12,-177.87 69.81,-188.32 75.96,-184.99"/>
</g>
<!-- Node3 -->
<g id="node3" class="node">
<title>Node3</title>
<g id="a_node3"><a xlink:href="structemlabcpp_1_1coro_1_1error__awaiter.html" target="_top" xlink:title=" ">
<polygon fill="white" stroke="black" points="177,-245.5 177,-275.5 298,-275.5 298,-245.5 177,-245.5"/>
<text text-anchor="start" x="185" y="-263.5" font-family="Helvetica,sans-Serif" font-size="10.00">emlabcpp::coro::error</text>
<text text-anchor="middle" x="237.5" y="-252.5" font-family="Helvetica,sans-Serif" font-size="10.00">_awaiter</text>
</a>
</g>
</g>
<!-- Node1&#45;&gt;Node3 -->
<g id="edge2" class="edge">
<title>Node1&#45;&gt;Node3</title>
<path fill="none" stroke="midnightblue" d="M83.63,-184.73C101.77,-201.08 128.33,-222.77 155,-236.5 161.82,-240.01 169.23,-243.08 176.71,-245.76"/>
<polygon fill="midnightblue" stroke="midnightblue" points="85.65,-181.83 75.92,-177.64 80.91,-186.98 85.65,-181.83"/>
</g>
<!-- Node4 -->
<g id="node4" class="node">
<title>Node4</title>
<g id="a_node4"><a xlink:href="structemlabcpp_1_1coro_1_1noop__awaiter.html" target="_top" xlink:title=" ">
<polygon fill="white" stroke="black" points="176.5,-196.5 176.5,-226.5 298.5,-226.5 298.5,-196.5 176.5,-196.5"/>
<text text-anchor="start" x="184.5" y="-214.5" font-family="Helvetica,sans-Serif" font-size="10.00">emlabcpp::coro::noop</text>
<text text-anchor="middle" x="237.5" y="-203.5" font-family="Helvetica,sans-Serif" font-size="10.00">_awaiter</text>
</a>
</g>
</g>
<!-- Node1&#45;&gt;Node4 -->
<g id="edge3" class="edge">
<title>Node1&#45;&gt;Node4</title>
<path fill="none" stroke="midnightblue" d="M124.51,-180.32C143.51,-185.61 164.13,-191.35 182.44,-196.45"/>
<polygon fill="midnightblue" stroke="midnightblue" points="125.31,-176.91 114.74,-177.6 123.44,-183.66 125.31,-176.91"/>
</g>
<!-- Node5 -->
<g id="node5" class="node">
<title>Node5</title>
<g id="a_node5"><a xlink:href="classemlabcpp_1_1coro_1_1recursive__coroutine.html" target="_top" xlink:title=" ">
<polygon fill="white" stroke="black" points="166,-147.5 166,-177.5 309,-177.5 309,-147.5 166,-147.5"/>
<text text-anchor="start" x="174" y="-165.5" font-family="Helvetica,sans-Serif" font-size="10.00">emlabcpp::coro::recursive</text>
<text text-anchor="middle" x="237.5" y="-154.5" font-family="Helvetica,sans-Serif" font-size="10.00">_coroutine&lt; T &gt;</text>
</a>
</g>
</g>
<!-- Node1&#45;&gt;Node5 -->
<g id="edge4" class="edge">
<title>Node1&#45;&gt;Node5</title>
<path fill="none" stroke="midnightblue" d="M129.11,-162.5C141.19,-162.5 153.79,-162.5 165.92,-162.5"/>
<polygon fill="midnightblue" stroke="midnightblue" points="129.11,-159 119.11,-162.5 129.11,-166 129.11,-159"/>
</g>
<!-- Node6 -->
<g id="node6" class="node">
<title>Node6</title>
<g id="a_node6"><a xlink:href="classemlabcpp_1_1testing_1_1collect__awaiter.html" target="_top" xlink:title=" ">
<polygon fill="white" stroke="black" points="182.5,-98.5 182.5,-128.5 292.5,-128.5 292.5,-98.5 182.5,-98.5"/>
<text text-anchor="start" x="190.5" y="-116.5" font-family="Helvetica,sans-Serif" font-size="10.00">emlabcpp::testing::</text>
<text text-anchor="middle" x="237.5" y="-105.5" font-family="Helvetica,sans-Serif" font-size="10.00">collect_awaiter</text>
</a>
</g>
</g>
<!-- Node1&#45;&gt;Node6 -->
<g id="edge5" class="edge">
<title>Node1&#45;&gt;Node6</title>
<path fill="none" stroke="midnightblue" d="M124.51,-144.68C143.51,-139.39 164.13,-133.65 182.44,-128.55"/>
<polygon fill="midnightblue" stroke="midnightblue" points="123.44,-141.34 114.74,-147.4 125.31,-148.09 123.44,-141.34"/>
</g>
<!-- Node7 -->
<g id="node7" class="node">
<title>Node7</title>
<g id="a_node7"><a xlink:href="structemlabcpp_1_1testing_1_1expect__awaiter.html" target="_top" xlink:title=" ">
<polygon fill="white" stroke="black" points="182.5,-49.5 182.5,-79.5 292.5,-79.5 292.5,-49.5 182.5,-49.5"/>
<text text-anchor="start" x="190.5" y="-67.5" font-family="Helvetica,sans-Serif" font-size="10.00">emlabcpp::testing::</text>
<text text-anchor="middle" x="237.5" y="-56.5" font-family="Helvetica,sans-Serif" font-size="10.00">expect_awaiter</text>
</a>
</g>
</g>
<!-- Node1&#45;&gt;Node7 -->
<g id="edge6" class="edge">
<title>Node1&#45;&gt;Node7</title>
<path fill="none" stroke="midnightblue" d="M84.06,-140.38C102.24,-124.34 128.66,-103.14 155,-89.5 163.54,-85.08 173,-81.29 182.36,-78.1"/>
<polygon fill="midnightblue" stroke="midnightblue" points="81.41,-138.06 76.32,-147.35 86.09,-143.26 81.41,-138.06"/>
</g>
<!-- Node8 -->
<g id="node8" class="node">
<title>Node8</title>
<g id="a_node8"><a xlink:href="structemlabcpp_1_1testing_1_1params__awaiter.html" target="_top" xlink:title=" ">
<polygon fill="white" stroke="black" points="155,-0.5 155,-30.5 320,-30.5 320,-0.5 155,-0.5"/>
<text text-anchor="start" x="163" y="-18.5" font-family="Helvetica,sans-Serif" font-size="10.00">emlabcpp::testing::</text>
<text text-anchor="middle" x="237.5" y="-7.5" font-family="Helvetica,sans-Serif" font-size="10.00">params_awaiter&lt; Processor &gt;</text>
</a>
</g>
</g>
<!-- Node1&#45;&gt;Node8 -->
<g id="edge7" class="edge">
<title>Node1&#45;&gt;Node8</title>
<path fill="none" stroke="midnightblue" d="M73.15,-138.32C88.79,-110.72 117.93,-66.11 155,-40.5 160.6,-36.63 166.82,-33.34 173.26,-30.56"/>
<polygon fill="midnightblue" stroke="midnightblue" points="69.95,-136.86 68.19,-147.31 76.08,-140.24 69.95,-136.86"/>
</g>
</g>
</svg>
