<?xml version="1.0" encoding="UTF-8" standalone="no"?>
<!DOCTYPE svg PUBLIC "-//W3C//DTD SVG 1.1//EN"
 "http://www.w3.org/Graphics/SVG/1.1/DTD/svg11.dtd">
<!-- Generated by graphviz version 2.43.0 (0)
 -->
<!-- Title: include/emlabcpp/experimental/cobs.h Pages: 1 -->
<svg width="828pt" height="218pt"
 viewBox="0.00 0.00 827.60 218.00" xmlns="http://www.w3.org/2000/svg" xmlns:xlink="http://www.w3.org/1999/xlink">
<g id="graph0" class="graph" transform="scale(1 1) rotate(0) translate(4 214)">
<title>include/emlabcpp/experimental/cobs.h</title>
<polygon fill="white" stroke="transparent" points="-4,4 -4,-214 823.6,-214 823.6,4 -4,4"/>
<!-- Node1 -->
<g id="node1" class="node">
<title>Node1</title>
<g id="a_node1"><a xlink:title=" ">
<polygon fill="#bfbfbf" stroke="black" points="607.6,-179.5 607.6,-209.5 778.6,-209.5 778.6,-179.5 607.6,-179.5"/>
<text text-anchor="start" x="615.6" y="-197.5" font-family="Helvetica,sans-Serif" font-size="10.00">include/emlabcpp/experimental</text>
<text text-anchor="middle" x="693.1" y="-186.5" font-family="Helvetica,sans-Serif" font-size="10.00">/cobs.h</text>
</a>
</g>
</g>
<!-- Node2 -->
<g id="node2" class="node">
<title>Node2</title>
<g id="a_node2"><a xlink:href="algorithm_8h.html" target="_top" xlink:title=" ">
<polygon fill="white" stroke="black" points="464.1,-123.5 464.1,-142.5 588.1,-142.5 588.1,-123.5 464.1,-123.5"/>
<text text-anchor="middle" x="526.1" y="-130.5" font-family="Helvetica,sans-Serif" font-size="10.00">emlabcpp/algorithm.h</text>
</a>
</g>
</g>
<!-- Node1&#45;&gt;Node2 -->
<g id="edge1" class="edge">
<title>Node1&#45;&gt;Node2</title>
<path fill="none" stroke="midnightblue" d="M653.53,-179.4C625.01,-169.24 586.93,-155.67 559.85,-146.02"/>
<polygon fill="midnightblue" stroke="midnightblue" points="561,-142.72 550.4,-142.66 558.65,-149.31 561,-142.72"/>
</g>
<!-- Node24 -->
<g id="node9" class="node">
<title>Node24</title>
<g id="a_node9"><a xlink:href="view_8h.html" target="_top" xlink:title=" ">
<polygon fill="white" stroke="red" points="720.6,-62 720.6,-81 819.6,-81 819.6,-62 720.6,-62"/>
<text text-anchor="middle" x="770.1" y="-69" font-family="Helvetica,sans-Serif" font-size="10.00">emlabcpp/view.h</text>
</a>
</g>
</g>
<!-- Node1&#45;&gt;Node24 -->
<g id="edge14" class="edge">
<title>Node1&#45;&gt;Node24</title>
<path fill="none" stroke="midnightblue" d="M694.73,-179.3C696.98,-164.34 702.07,-140.56 713.1,-123 722.05,-108.77 736.17,-96.22 748.11,-87.19"/>
<polygon fill="midnightblue" stroke="midnightblue" points="750.27,-89.95 756.33,-81.26 746.17,-84.27 750.27,-89.95"/>
</g>
<!-- Node28 -->
<g id="node12" class="node">
<title>Node28</title>
<g id="a_node12"><a xlink:title=" ">
<polygon fill="white" stroke="#bfbfbf" points="721.6,-123.5 721.6,-142.5 774.6,-142.5 774.6,-123.5 721.6,-123.5"/>
<text text-anchor="middle" x="748.1" y="-130.5" font-family="Helvetica,sans-Serif" font-size="10.00">cstddef</text>
</a>
</g>
</g>
<!-- Node1&#45;&gt;Node28 -->
<g id="edge15" class="edge">
<title>Node1&#45;&gt;Node28</title>
<path fill="none" stroke="midnightblue" d="M706.14,-179.4C714.29,-170.58 724.82,-159.18 733.3,-150.02"/>
<polygon fill="midnightblue" stroke="midnightblue" points="735.88,-152.38 740.1,-142.66 730.74,-147.63 735.88,-152.38"/>
</g>
<!-- Node3 -->
<g id="node3" class="node">
<title>Node3</title>
<g id="a_node3"><a xlink:href="impl_8h.html" target="_top" xlink:title=" ">
<polygon fill="white" stroke="black" points="16.6,-56.5 16.6,-86.5 131.6,-86.5 131.6,-56.5 16.6,-56.5"/>
<text text-anchor="start" x="24.6" y="-74.5" font-family="Helvetica,sans-Serif" font-size="10.00">emlabcpp/algorithm</text>
<text text-anchor="middle" x="74.1" y="-63.5" font-family="Helvetica,sans-Serif" font-size="10.00">/impl.h</text>
</a>
</g>
</g>
<!-- Node2&#45;&gt;Node3 -->
<g id="edge2" class="edge">
<title>Node2&#45;&gt;Node3</title>
<path fill="none" stroke="midnightblue" d="M463.83,-126.59C389.57,-119.72 261.53,-106.56 141.85,-87.02"/>
<polygon fill="midnightblue" stroke="midnightblue" points="142.22,-83.53 131.78,-85.35 141.07,-90.44 142.22,-83.53"/>
</g>
<!-- Node4 -->
<g id="node4" class="node">
<title>Node4</title>
<g id="a_node4"><a xlink:href="types_8h.html" target="_top" xlink:title=" ">
<polygon fill="white" stroke="red" points="640.1,-0.5 640.1,-19.5 744.1,-19.5 744.1,-0.5 640.1,-0.5"/>
<text text-anchor="middle" x="692.1" y="-7.5" font-family="Helvetica,sans-Serif" font-size="10.00">emlabcpp/types.h</text>
</a>
</g>
</g>
<!-- Node2&#45;&gt;Node4 -->
<g id="edge8" class="edge">
<title>Node2&#45;&gt;Node4</title>
<path fill="none" stroke="midnightblue" d="M588.19,-126.99C617.66,-121.47 651.15,-110.13 673.1,-87 687.63,-71.69 691.53,-47.01 692.34,-29.95"/>
<polygon fill="midnightblue" stroke="midnightblue" points="695.85,-29.62 692.51,-19.57 688.85,-29.51 695.85,-29.62"/>
</g>
<!-- Node10 -->
<g id="node5" class="node">
<title>Node10</title>
<g id="a_node5"><a xlink:title=" ">
<polygon fill="white" stroke="#bfbfbf" points="10.6,-0.5 10.6,-19.5 51.6,-19.5 51.6,-0.5 10.6,-0.5"/>
<text text-anchor="middle" x="31.1" y="-7.5" font-family="Helvetica,sans-Serif" font-size="10.00">tuple</text>
</a>
</g>
</g>
<!-- Node2&#45;&gt;Node10 -->
<g id="edge13" class="edge">
<title>Node2&#45;&gt;Node10</title>
<path fill="none" stroke="midnightblue" d="M463.91,-131.22C332.77,-128.91 37.44,-120.08 7.1,-87 -7.89,-70.65 5.31,-44.98 17.27,-28.06"/>
<polygon fill="midnightblue" stroke="midnightblue" points="20.36,-29.77 23.6,-19.69 14.78,-25.56 20.36,-29.77"/>
</g>
<!-- Node17 -->
<g id="node6" class="node">
<title>Node17</title>
<g id="a_node6"><a xlink:href="bounded_8h.html" target="_top" xlink:title=" ">
<polygon fill="white" stroke="red" points="149.6,-62 149.6,-81 268.6,-81 268.6,-62 149.6,-62"/>
<text text-anchor="middle" x="209.1" y="-69" font-family="Helvetica,sans-Serif" font-size="10.00">emlabcpp/bounded.h</text>
</a>
</g>
</g>
<!-- Node2&#45;&gt;Node17 -->
<g id="edge5" class="edge">
<title>Node2&#45;&gt;Node17</title>
<path fill="none" stroke="midnightblue" d="M476.62,-123.44C426.51,-114.67 346.81,-100.45 278.1,-87 271.87,-85.78 265.34,-84.46 258.88,-83.13"/>
<polygon fill="midnightblue" stroke="midnightblue" points="259.34,-79.65 248.84,-81.05 257.92,-86.51 259.34,-79.65"/>
</g>
<!-- Node19 -->
<g id="node7" class="node">
<title>Node19</title>
<g id="a_node7"><a xlink:href="min__max_8h.html" target="_top" xlink:title=" ">
<polygon fill="white" stroke="red" points="287.1,-62 287.1,-81 409.1,-81 409.1,-62 287.1,-62"/>
<text text-anchor="middle" x="348.1" y="-69" font-family="Helvetica,sans-Serif" font-size="10.00">emlabcpp/min_max.h</text>
</a>
</g>
</g>
<!-- Node2&#45;&gt;Node19 -->
<g id="edge6" class="edge">
<title>Node2&#45;&gt;Node19</title>
<path fill="none" stroke="midnightblue" d="M500.6,-123.48C469.8,-113.18 417.84,-95.81 383.25,-84.25"/>
<polygon fill="midnightblue" stroke="midnightblue" points="384.15,-80.86 373.56,-81.01 381.93,-87.5 384.15,-80.86"/>
</g>
<!-- Node21 -->
<g id="node8" class="node">
<title>Node21</title>
<g id="a_node8"><a xlink:href="range_8h.html" target="_top" xlink:title=" ">
<polygon fill="white" stroke="red" points="427.1,-62 427.1,-81 531.1,-81 531.1,-62 427.1,-62"/>
<text text-anchor="middle" x="479.1" y="-69" font-family="Helvetica,sans-Serif" font-size="10.00">emlabcpp/range.h</text>
</a>
</g>
</g>
<!-- Node2&#45;&gt;Node21 -->
<g id="edge7" class="edge">
<title>Node2&#45;&gt;Node21</title>
<path fill="none" stroke="midnightblue" d="M519.37,-123.48C512.32,-114.55 501.07,-100.31 492.25,-89.14"/>
<polygon fill="midnightblue" stroke="midnightblue" points="494.77,-86.69 485.82,-81.01 489.28,-91.03 494.77,-86.69"/>
</g>
<!-- Node2&#45;&gt;Node24 -->
<g id="edge9" class="edge">
<title>Node2&#45;&gt;Node24</title>
<path fill="none" stroke="midnightblue" d="M561.06,-123.48C604.28,-112.94 677.89,-94.99 725.23,-83.44"/>
<polygon fill="midnightblue" stroke="midnightblue" points="726.32,-86.78 735.21,-81.01 724.66,-79.98 726.32,-86.78"/>
</g>
<!-- Node26 -->
<g id="node10" class="node">
<title>Node26</title>
<g id="a_node10"><a xlink:title=" ">
<polygon fill="white" stroke="#bfbfbf" points="549.6,-62 549.6,-81 596.6,-81 596.6,-62 549.6,-62"/>
<text text-anchor="middle" x="573.1" y="-69" font-family="Helvetica,sans-Serif" font-size="10.00">cmath</text>
</a>
</g>
</g>
<!-- Node2&#45;&gt;Node26 -->
<g id="edge11" class="edge">
<title>Node2&#45;&gt;Node26</title>
<path fill="none" stroke="midnightblue" d="M532.84,-123.48C539.89,-114.55 551.14,-100.31 559.96,-89.14"/>
<polygon fill="midnightblue" stroke="midnightblue" points="562.93,-91.03 566.38,-81.01 557.44,-86.69 562.93,-91.03"/>
</g>
<!-- Node27 -->
<g id="node11" class="node">
<title>Node27</title>
<g id="a_node11"><a xlink:title=" ">
<polygon fill="white" stroke="#bfbfbf" points="614.6,-62 614.6,-81 663.6,-81 663.6,-62 614.6,-62"/>
<text text-anchor="middle" x="639.1" y="-69" font-family="Helvetica,sans-Serif" font-size="10.00">cstdlib</text>
</a>
</g>
</g>
<!-- Node2&#45;&gt;Node27 -->
<g id="edge12" class="edge">
<title>Node2&#45;&gt;Node27</title>
<path fill="none" stroke="midnightblue" d="M542.29,-123.48C561.01,-113.62 592.03,-97.29 613.9,-85.77"/>
<polygon fill="midnightblue" stroke="midnightblue" points="615.73,-88.77 622.94,-81.01 612.46,-82.57 615.73,-88.77"/>
</g>
<!-- Node3&#45;&gt;Node4 -->
<g id="edge3" class="edge">
<title>Node3&#45;&gt;Node4</title>
<path fill="none" stroke="midnightblue" d="M131.76,-57.52C134.91,-56.97 138.04,-56.45 141.1,-56 317.1,-29.88 527.14,-17.99 629.63,-13.42"/>
<polygon fill="midnightblue" stroke="midnightblue" points="629.97,-16.91 639.8,-12.98 629.66,-9.92 629.97,-16.91"/>
</g>
<!-- Node3&#45;&gt;Node10 -->
<g id="edge4" class="edge">
<title>Node3&#45;&gt;Node10</title>
<path fill="none" stroke="midnightblue" d="M63.91,-56.4C57.73,-47.84 49.8,-36.87 43.29,-27.86"/>
<polygon fill="midnightblue" stroke="midnightblue" points="46.05,-25.71 37.36,-19.66 40.38,-29.81 46.05,-25.71"/>
</g>
<!-- Node24&#45;&gt;Node4 -->
<g id="edge10" class="edge">
<title>Node24&#45;&gt;Node4</title>
<path fill="none" stroke="midnightblue" d="M758.93,-61.98C746.53,-52.52 726.31,-37.1 711.36,-25.69"/>
<polygon fill="midnightblue" stroke="midnightblue" points="713.33,-22.79 703.26,-19.51 709.09,-28.36 713.33,-22.79"/>
</g>
</g>
</svg>
