<?xml version="1.0" encoding="UTF-8" standalone="no"?>
<!DOCTYPE svg PUBLIC "-//W3C//DTD SVG 1.1//EN"
 "http://www.w3.org/Graphics/SVG/1.1/DTD/svg11.dtd">
<!-- Generated by graphviz version 2.43.0 (0)
 -->
<!-- Title: include/emlabcpp/experimental/cobs.h Pages: 1 -->
<svg width="564pt" height="218pt"
 viewBox="0.00 0.00 564.35 218.00" xmlns="http://www.w3.org/2000/svg" xmlns:xlink="http://www.w3.org/1999/xlink">
<g id="graph0" class="graph" transform="scale(1 1) rotate(0) translate(4 214)">
<title>include/emlabcpp/experimental/cobs.h</title>
<polygon fill="white" stroke="transparent" points="-4,4 -4,-214 560.35,-214 560.35,4 -4,4"/>
<!-- Node1 -->
<g id="node1" class="node">
<title>Node1</title>
<g id="a_node1"><a xlink:title=" ">
<polygon fill="#bfbfbf" stroke="black" points="384.35,-179.5 384.35,-209.5 555.35,-209.5 555.35,-179.5 384.35,-179.5"/>
<text text-anchor="start" x="392.35" y="-197.5" font-family="Helvetica,sans-Serif" font-size="10.00">include/emlabcpp/experimental</text>
<text text-anchor="middle" x="469.85" y="-186.5" font-family="Helvetica,sans-Serif" font-size="10.00">/cobs.h</text>
</a>
</g>
</g>
<!-- Node2 -->
<g id="node2" class="node">
<title>Node2</title>
<g id="a_node2"><a xlink:href="algorithm_8h.html" target="_top" xlink:title=" ">
<polygon fill="white" stroke="black" points="280.85,-123.5 280.85,-142.5 404.85,-142.5 404.85,-123.5 280.85,-123.5"/>
<text text-anchor="middle" x="342.85" y="-130.5" font-family="Helvetica,sans-Serif" font-size="10.00">emlabcpp/algorithm.h</text>
</a>
</g>
</g>
<!-- Node1&#45;&gt;Node2 -->
<g id="edge1" class="edge">
<title>Node1&#45;&gt;Node2</title>
<path fill="none" stroke="midnightblue" d="M439.76,-179.4C418.73,-169.55 390.88,-156.5 370.43,-146.92"/>
<polygon fill="midnightblue" stroke="midnightblue" points="371.87,-143.73 361.33,-142.66 368.9,-150.07 371.87,-143.73"/>
</g>
<!-- Node27 -->
<g id="node7" class="node">
<title>Node27</title>
<g id="a_node7"><a xlink:href="view_8h.html" target="_top" xlink:title=" ">
<polygon fill="white" stroke="red" points="457.35,-62 457.35,-81 556.35,-81 556.35,-62 457.35,-62"/>
<text text-anchor="middle" x="506.85" y="-69" font-family="Helvetica,sans-Serif" font-size="10.00">emlabcpp/view.h</text>
</a>
</g>
</g>
<!-- Node1&#45;&gt;Node27 -->
<g id="edge12" class="edge">
<title>Node1&#45;&gt;Node27</title>
<path fill="none" stroke="midnightblue" d="M473.64,-179.4C477.52,-165.12 483.83,-142.44 489.85,-123 493.2,-112.21 497.22,-100.23 500.51,-90.65"/>
<polygon fill="midnightblue" stroke="midnightblue" points="503.87,-91.63 503.84,-81.04 497.26,-89.34 503.87,-91.63"/>
</g>
<!-- Node37 -->
<g id="node10" class="node">
<title>Node37</title>
<g id="a_node10"><a xlink:title=" ">
<polygon fill="white" stroke="#bfbfbf" points="498.35,-123.5 498.35,-142.5 551.35,-142.5 551.35,-123.5 498.35,-123.5"/>
<text text-anchor="middle" x="524.85" y="-130.5" font-family="Helvetica,sans-Serif" font-size="10.00">cstddef</text>
</a>
</g>
</g>
<!-- Node1&#45;&gt;Node37 -->
<g id="edge13" class="edge">
<title>Node1&#45;&gt;Node37</title>
<path fill="none" stroke="midnightblue" d="M482.89,-179.4C491.05,-170.58 501.58,-159.18 510.05,-150.02"/>
<polygon fill="midnightblue" stroke="midnightblue" points="512.63,-152.38 516.85,-142.66 507.49,-147.63 512.63,-152.38"/>
</g>
<!-- Node3 -->
<g id="node3" class="node">
<title>Node3</title>
<g id="a_node3"><a xlink:href="impl_8h.html" target="_top" xlink:title=" ">
<polygon fill="white" stroke="black" points="16.35,-56.5 16.35,-86.5 131.35,-86.5 131.35,-56.5 16.35,-56.5"/>
<text text-anchor="start" x="24.35" y="-74.5" font-family="Helvetica,sans-Serif" font-size="10.00">emlabcpp/algorithm</text>
<text text-anchor="middle" x="73.85" y="-63.5" font-family="Helvetica,sans-Serif" font-size="10.00">/impl.h</text>
</a>
</g>
</g>
<!-- Node2&#45;&gt;Node3 -->
<g id="edge2" class="edge">
<title>Node2&#45;&gt;Node3</title>
<path fill="none" stroke="midnightblue" d="M304.31,-123.48C261.89,-114.09 192.89,-98.83 141.42,-87.45"/>
<polygon fill="midnightblue" stroke="midnightblue" points="141.9,-83.97 131.38,-85.22 140.39,-90.8 141.9,-83.97"/>
</g>
<!-- Node4 -->
<g id="node4" class="node">
<title>Node4</title>
<g id="a_node4"><a xlink:href="types_8h.html" target="_top" xlink:title=" ">
<polygon fill="white" stroke="red" points="376.85,-0.5 376.85,-19.5 480.85,-19.5 480.85,-0.5 376.85,-0.5"/>
<text text-anchor="middle" x="428.85" y="-7.5" font-family="Helvetica,sans-Serif" font-size="10.00">emlabcpp/types.h</text>
</a>
</g>
</g>
<!-- Node2&#45;&gt;Node4 -->
<g id="edge6" class="edge">
<title>Node2&#45;&gt;Node4</title>
<path fill="none" stroke="midnightblue" d="M362.82,-123.49C377.96,-116.02 398.1,-103.74 409.85,-87 421.79,-70 426.25,-46.23 427.9,-29.82"/>
<polygon fill="midnightblue" stroke="midnightblue" points="431.39,-30.04 428.65,-19.81 424.41,-29.52 431.39,-30.04"/>
</g>
<!-- Node10 -->
<g id="node5" class="node">
<title>Node10</title>
<g id="a_node5"><a xlink:title=" ">
<polygon fill="white" stroke="#bfbfbf" points="10.35,-0.5 10.35,-19.5 51.35,-19.5 51.35,-0.5 10.35,-0.5"/>
<text text-anchor="middle" x="30.85" y="-7.5" font-family="Helvetica,sans-Serif" font-size="10.00">tuple</text>
</a>
</g>
</g>
<!-- Node2&#45;&gt;Node10 -->
<g id="edge11" class="edge">
<title>Node2&#45;&gt;Node10</title>
<path fill="none" stroke="midnightblue" d="M280.82,-133C193.68,-132.92 41.73,-126.86 6.85,-87 -7.75,-70.31 5.35,-44.72 17.18,-27.92"/>
<polygon fill="midnightblue" stroke="midnightblue" points="20.22,-29.7 23.44,-19.6 14.63,-25.49 20.22,-29.7"/>
</g>
<!-- Node17 -->
<g id="node6" class="node">
<title>Node17</title>
<g id="a_node6"><a xlink:href="bounded_8h.html" target="_top" xlink:title=" ">
<polygon fill="white" stroke="red" points="149.35,-62 149.35,-81 268.35,-81 268.35,-62 149.35,-62"/>
<text text-anchor="middle" x="208.85" y="-69" font-family="Helvetica,sans-Serif" font-size="10.00">emlabcpp/bounded.h</text>
</a>
</g>
</g>
<!-- Node2&#45;&gt;Node17 -->
<g id="edge5" class="edge">
<title>Node2&#45;&gt;Node17</title>
<path fill="none" stroke="midnightblue" d="M323.66,-123.48C301.07,-113.45 263.36,-96.7 237.35,-85.15"/>
<polygon fill="midnightblue" stroke="midnightblue" points="238.58,-81.87 228.02,-81.01 235.74,-88.27 238.58,-81.87"/>
</g>
<!-- Node2&#45;&gt;Node27 -->
<g id="edge7" class="edge">
<title>Node2&#45;&gt;Node27</title>
<path fill="none" stroke="midnightblue" d="M366.35,-123.48C394.48,-113.27 441.78,-96.11 473.64,-84.55"/>
<polygon fill="midnightblue" stroke="midnightblue" points="475.19,-87.71 483.4,-81.01 472.81,-81.13 475.19,-87.71"/>
</g>
<!-- Node39 -->
<g id="node8" class="node">
<title>Node39</title>
<g id="a_node8"><a xlink:title=" ">
<polygon fill="white" stroke="#bfbfbf" points="286.35,-62 286.35,-81 333.35,-81 333.35,-62 286.35,-62"/>
<text text-anchor="middle" x="309.85" y="-69" font-family="Helvetica,sans-Serif" font-size="10.00">cmath</text>
</a>
</g>
</g>
<!-- Node2&#45;&gt;Node39 -->
<g id="edge9" class="edge">
<title>Node2&#45;&gt;Node39</title>
<path fill="none" stroke="midnightblue" d="M338.13,-123.48C333.27,-114.73 325.59,-100.87 319.45,-89.81"/>
<polygon fill="midnightblue" stroke="midnightblue" points="322.48,-88.06 314.57,-81.01 316.36,-91.45 322.48,-88.06"/>
</g>
<!-- Node40 -->
<g id="node9" class="node">
<title>Node40</title>
<g id="a_node9"><a xlink:title=" ">
<polygon fill="white" stroke="#bfbfbf" points="351.35,-62 351.35,-81 400.35,-81 400.35,-62 351.35,-62"/>
<text text-anchor="middle" x="375.85" y="-69" font-family="Helvetica,sans-Serif" font-size="10.00">cstdlib</text>
</a>
</g>
</g>
<!-- Node2&#45;&gt;Node40 -->
<g id="edge10" class="edge">
<title>Node2&#45;&gt;Node40</title>
<path fill="none" stroke="midnightblue" d="M347.58,-123.48C352.43,-114.73 360.12,-100.87 366.25,-89.81"/>
<polygon fill="midnightblue" stroke="midnightblue" points="369.35,-91.45 371.13,-81.01 363.22,-88.06 369.35,-91.45"/>
</g>
<!-- Node3&#45;&gt;Node4 -->
<g id="edge3" class="edge">
<title>Node3&#45;&gt;Node4</title>
<path fill="none" stroke="midnightblue" d="M131.55,-57.79C134.7,-57.17 137.81,-56.57 140.85,-56 218.3,-41.58 308.04,-28.06 366.49,-19.68"/>
<polygon fill="midnightblue" stroke="midnightblue" points="367.27,-23.1 376.67,-18.22 366.28,-16.17 367.27,-23.1"/>
</g>
<!-- Node3&#45;&gt;Node10 -->
<g id="edge4" class="edge">
<title>Node3&#45;&gt;Node10</title>
<path fill="none" stroke="midnightblue" d="M63.66,-56.4C57.48,-47.84 49.55,-36.87 43.04,-27.86"/>
<polygon fill="midnightblue" stroke="midnightblue" points="45.81,-25.71 37.11,-19.66 40.13,-29.81 45.81,-25.71"/>
</g>
<!-- Node27&#45;&gt;Node4 -->
<g id="edge8" class="edge">
<title>Node27&#45;&gt;Node4</title>
<path fill="none" stroke="midnightblue" d="M495.68,-61.98C483.28,-52.52 463.06,-37.1 448.11,-25.69"/>
<polygon fill="midnightblue" stroke="midnightblue" points="450.08,-22.79 440.01,-19.51 445.84,-28.36 450.08,-22.79"/>
</g>
</g>
</svg>
