<?xml version="1.0" encoding="UTF-8" standalone="no"?>
<!DOCTYPE svg PUBLIC "-//W3C//DTD SVG 1.1//EN"
 "http://www.w3.org/Graphics/SVG/1.1/DTD/svg11.dtd">
<!-- Generated by graphviz version 2.43.0 (0)
 -->
<!-- Title: include/emlabcpp/experimental/testing/collect.h Pages: 1 -->
<svg width="1002pt" height="385pt"
 viewBox="0.00 0.00 1002.29 385.00" xmlns="http://www.w3.org/2000/svg" xmlns:xlink="http://www.w3.org/1999/xlink">
<g id="graph0" class="graph" transform="scale(1 1) rotate(0) translate(4 381)">
<title>include/emlabcpp/experimental/testing/collect.h</title>
<polygon fill="white" stroke="transparent" points="-4,4 -4,-381 998.29,-381 998.29,4 -4,4"/>
<!-- Node1 -->
<g id="node1" class="node">
<title>Node1</title>
<g id="a_node1"><a xlink:title=" ">
<polygon fill="#bfbfbf" stroke="black" points="228.79,-346.5 228.79,-376.5 399.79,-376.5 399.79,-346.5 228.79,-346.5"/>
<text text-anchor="start" x="236.79" y="-364.5" font-family="Helvetica,sans-Serif" font-size="10.00">include/emlabcpp/experimental</text>
<text text-anchor="middle" x="314.29" y="-353.5" font-family="Helvetica,sans-Serif" font-size="10.00">/testing/collect.h</text>
</a>
</g>
</g>
<!-- Node2 -->
<g id="node2" class="node">
<title>Node2</title>
<g id="a_node2"><a xlink:href="request__adapter_8h.html" target="_top" xlink:title=" ">
<polygon fill="white" stroke="black" points="45.79,-123.5 45.79,-164.5 182.79,-164.5 182.79,-123.5 45.79,-123.5"/>
<text text-anchor="start" x="53.79" y="-152.5" font-family="Helvetica,sans-Serif" font-size="10.00">emlabcpp/experimental</text>
<text text-anchor="start" x="53.79" y="-141.5" font-family="Helvetica,sans-Serif" font-size="10.00">/contiguous_tree/request</text>
<text text-anchor="middle" x="114.29" y="-130.5" font-family="Helvetica,sans-Serif" font-size="10.00">_adapter.h</text>
</a>
</g>
</g>
<!-- Node1&#45;&gt;Node2 -->
<g id="edge1" class="edge">
<title>Node1&#45;&gt;Node2</title>
<path fill="none" stroke="midnightblue" d="M301.16,-346.36C268.39,-311.04 182.48,-218.48 139.52,-172.19"/>
<polygon fill="midnightblue" stroke="midnightblue" points="141.88,-169.58 132.51,-164.64 136.75,-174.35 141.88,-169.58"/>
</g>
<!-- Node43 -->
<g id="node5" class="node">
<title>Node43</title>
<g id="a_node5"><a xlink:href="function__view_8h.html" target="_top" xlink:title=" ">
<polygon fill="white" stroke="black" points="783.79,-279.5 783.79,-309.5 916.79,-309.5 916.79,-279.5 783.79,-279.5"/>
<text text-anchor="start" x="791.79" y="-297.5" font-family="Helvetica,sans-Serif" font-size="10.00">emlabcpp/experimental</text>
<text text-anchor="middle" x="850.29" y="-286.5" font-family="Helvetica,sans-Serif" font-size="10.00">/function_view.h</text>
</a>
</g>
</g>
<!-- Node1&#45;&gt;Node43 -->
<g id="edge4" class="edge">
<title>Node1&#45;&gt;Node43</title>
<path fill="none" stroke="midnightblue" d="M399.81,-350.13C502.96,-337.62 674.81,-316.78 773.76,-304.78"/>
<polygon fill="midnightblue" stroke="midnightblue" points="774.19,-308.25 783.69,-303.58 773.34,-301.31 774.19,-308.25"/>
</g>
<!-- Node44 -->
<g id="node7" class="node">
<title>Node44</title>
<g id="a_node7"><a xlink:href="experimental_2testing_2convert_8h.html" target="_top" xlink:title=" ">
<polygon fill="white" stroke="black" points="295.79,-207 295.79,-237 428.79,-237 428.79,-207 295.79,-207"/>
<text text-anchor="start" x="303.79" y="-225" font-family="Helvetica,sans-Serif" font-size="10.00">emlabcpp/experimental</text>
<text text-anchor="middle" x="362.29" y="-214" font-family="Helvetica,sans-Serif" font-size="10.00">/testing/convert.h</text>
</a>
</g>
</g>
<!-- Node1&#45;&gt;Node44 -->
<g id="edge6" class="edge">
<title>Node1&#45;&gt;Node44</title>
<path fill="none" stroke="midnightblue" d="M319.24,-346.3C327.43,-322.84 343.89,-275.7 353.91,-246.99"/>
<polygon fill="midnightblue" stroke="midnightblue" points="357.29,-247.92 357.29,-237.33 350.69,-245.61 357.29,-247.92"/>
</g>
<!-- Node61 -->
<g id="node9" class="node">
<title>Node61</title>
<g id="a_node9"><a xlink:href="static__function_8h.html" target="_top" xlink:title=" ">
<polygon fill="white" stroke="red" points="164.79,-0.5 164.79,-19.5 313.79,-19.5 313.79,-0.5 164.79,-0.5"/>
<text text-anchor="middle" x="239.29" y="-7.5" font-family="Helvetica,sans-Serif" font-size="10.00">emlabcpp/static_function.h</text>
</a>
</g>
</g>
<!-- Node1&#45;&gt;Node61 -->
<g id="edge27" class="edge">
<title>Node1&#45;&gt;Node61</title>
<path fill="none" stroke="midnightblue" d="M228.62,-358.15C136.25,-350.5 2.29,-322.3 2.29,-223 2.29,-223 2.29,-223 2.29,-143 2.29,-103.42 -6.86,-83.83 21.29,-56 40.17,-37.34 101.57,-25.74 154.42,-19.01"/>
<polygon fill="midnightblue" stroke="midnightblue" points="155.02,-22.46 164.52,-17.77 154.17,-15.51 155.02,-22.46"/>
</g>
<!-- Node64 -->
<g id="node10" class="node">
<title>Node64</title>
<g id="a_node10"><a xlink:href="coroutine_8h.html" target="_top" xlink:title=" ">
<polygon fill="white" stroke="black" points="548.79,-279.5 548.79,-309.5 681.79,-309.5 681.79,-279.5 548.79,-279.5"/>
<text text-anchor="start" x="556.79" y="-297.5" font-family="Helvetica,sans-Serif" font-size="10.00">emlabcpp/experimental</text>
<text text-anchor="middle" x="615.29" y="-286.5" font-family="Helvetica,sans-Serif" font-size="10.00">/testing/coroutine.h</text>
</a>
</g>
</g>
<!-- Node1&#45;&gt;Node64 -->
<g id="edge9" class="edge">
<title>Node1&#45;&gt;Node64</title>
<path fill="none" stroke="midnightblue" d="M379.23,-346.48C426.52,-336.26 490.69,-322.41 540.19,-311.72"/>
<polygon fill="midnightblue" stroke="midnightblue" points="541.17,-315.09 550.2,-309.55 539.69,-308.24 541.17,-315.09"/>
</g>
<!-- Node95 -->
<g id="node16" class="node">
<title>Node95</title>
<g id="a_node16"><a xlink:href="experimental_2testing_2protocol_8h.html" target="_top" xlink:title=" ">
<polygon fill="white" stroke="red" points="200.79,-129 200.79,-159 333.79,-159 333.79,-129 200.79,-129"/>
<text text-anchor="start" x="208.79" y="-147" font-family="Helvetica,sans-Serif" font-size="10.00">emlabcpp/experimental</text>
<text text-anchor="middle" x="267.29" y="-136" font-family="Helvetica,sans-Serif" font-size="10.00">/testing/protocol.h</text>
</a>
</g>
</g>
<!-- Node1&#45;&gt;Node95 -->
<g id="edge26" class="edge">
<title>Node1&#45;&gt;Node95</title>
<path fill="none" stroke="midnightblue" d="M310.73,-346.44C305.22,-324.44 294.39,-280.51 286.29,-243 280.88,-217.99 275.39,-189.23 271.71,-169.36"/>
<polygon fill="midnightblue" stroke="midnightblue" points="275.12,-168.52 269.87,-159.32 268.23,-169.79 275.12,-168.52"/>
</g>
<!-- Node3 -->
<g id="node3" class="node">
<title>Node3</title>
<g id="a_node3"><a xlink:href="experimental_2contiguous__tree_2base_8h.html" target="_top" xlink:title=" ">
<polygon fill="white" stroke="red" points="30.79,-56.5 30.79,-86.5 163.79,-86.5 163.79,-56.5 30.79,-56.5"/>
<text text-anchor="start" x="38.79" y="-74.5" font-family="Helvetica,sans-Serif" font-size="10.00">emlabcpp/experimental</text>
<text text-anchor="middle" x="97.29" y="-63.5" font-family="Helvetica,sans-Serif" font-size="10.00">/contiguous_tree/base.h</text>
</a>
</g>
</g>
<!-- Node2&#45;&gt;Node3 -->
<g id="edge2" class="edge">
<title>Node2&#45;&gt;Node3</title>
<path fill="none" stroke="midnightblue" d="M109.55,-123.36C107.57,-115.14 105.24,-105.49 103.15,-96.82"/>
<polygon fill="midnightblue" stroke="midnightblue" points="106.5,-95.79 100.76,-86.89 99.7,-97.43 106.5,-95.79"/>
</g>
<!-- Node40 -->
<g id="node4" class="node">
<title>Node40</title>
<g id="a_node4"><a xlink:href="logging_8h.html" target="_top" xlink:title=" ">
<polygon fill="white" stroke="red" points="371.79,-56.5 371.79,-86.5 504.79,-86.5 504.79,-56.5 371.79,-56.5"/>
<text text-anchor="start" x="379.79" y="-74.5" font-family="Helvetica,sans-Serif" font-size="10.00">emlabcpp/experimental</text>
<text text-anchor="middle" x="438.29" y="-63.5" font-family="Helvetica,sans-Serif" font-size="10.00">/logging.h</text>
</a>
</g>
</g>
<!-- Node2&#45;&gt;Node40 -->
<g id="edge3" class="edge">
<title>Node2&#45;&gt;Node40</title>
<path fill="none" stroke="midnightblue" d="M183.09,-124.94C185.86,-124.27 188.6,-123.62 191.29,-123 223.09,-115.62 301.72,-99.69 361.79,-87.68"/>
<polygon fill="midnightblue" stroke="midnightblue" points="362.52,-91.11 371.64,-85.72 361.15,-84.24 362.52,-91.11"/>
</g>
<!-- Node6 -->
<g id="node6" class="node">
<title>Node6</title>
<g id="a_node6"><a xlink:href="concepts_8h.html" target="_top" xlink:title=" ">
<polygon fill="white" stroke="red" points="874.29,-212.5 874.29,-231.5 994.29,-231.5 994.29,-212.5 874.29,-212.5"/>
<text text-anchor="middle" x="934.29" y="-219.5" font-family="Helvetica,sans-Serif" font-size="10.00">emlabcpp/concepts.h</text>
</a>
</g>
</g>
<!-- Node43&#45;&gt;Node6 -->
<g id="edge5" class="edge">
<title>Node43&#45;&gt;Node6</title>
<path fill="none" stroke="midnightblue" d="M867.29,-279.23C881.39,-267.39 901.41,-250.59 915.89,-238.44"/>
<polygon fill="midnightblue" stroke="midnightblue" points="918.28,-241 923.69,-231.89 913.78,-235.64 918.28,-241"/>
</g>
<!-- Node45 -->
<g id="node8" class="node">
<title>Node45</title>
<g id="a_node8"><a xlink:href="experimental_2testing_2base_8h.html" target="_top" xlink:title=" ">
<polygon fill="white" stroke="red" points="220.79,-56.5 220.79,-86.5 353.79,-86.5 353.79,-56.5 220.79,-56.5"/>
<text text-anchor="start" x="228.79" y="-74.5" font-family="Helvetica,sans-Serif" font-size="10.00">emlabcpp/experimental</text>
<text text-anchor="middle" x="287.29" y="-63.5" font-family="Helvetica,sans-Serif" font-size="10.00">/testing/base.h</text>
</a>
</g>
</g>
<!-- Node44&#45;&gt;Node45 -->
<g id="edge7" class="edge">
<title>Node44&#45;&gt;Node45</title>
<path fill="none" stroke="midnightblue" d="M362.09,-206.74C361.23,-186.77 357.5,-149.9 342.29,-123 335.86,-111.63 325.96,-101.38 316.33,-93.14"/>
<polygon fill="midnightblue" stroke="midnightblue" points="318.36,-90.28 308.39,-86.71 313.96,-95.72 318.36,-90.28"/>
</g>
<!-- Node45&#45;&gt;Node61 -->
<g id="edge8" class="edge">
<title>Node45&#45;&gt;Node61</title>
<path fill="none" stroke="midnightblue" d="M275.91,-56.4C268.94,-47.75 259.97,-36.64 252.66,-27.58"/>
<polygon fill="midnightblue" stroke="midnightblue" points="255.27,-25.24 246.27,-19.66 249.83,-29.64 255.27,-25.24"/>
</g>
<!-- Node64&#45;&gt;Node44 -->
<g id="edge18" class="edge">
<title>Node64&#45;&gt;Node44</title>
<path fill="none" stroke="midnightblue" d="M565,-279.49C524.09,-268.09 466.23,-251.96 422.78,-239.86"/>
<polygon fill="midnightblue" stroke="midnightblue" points="423.48,-236.42 412.91,-237.11 421.6,-243.16 423.48,-236.42"/>
</g>
<!-- Node65 -->
<g id="node11" class="node">
<title>Node65</title>
<g id="a_node11"><a xlink:href="memory__promise_8h.html" target="_top" xlink:title=" ">
<polygon fill="white" stroke="red" points="545.79,-129 545.79,-159 684.79,-159 684.79,-129 545.79,-129"/>
<text text-anchor="start" x="553.79" y="-147" font-family="Helvetica,sans-Serif" font-size="10.00">emlabcpp/experimental</text>
<text text-anchor="middle" x="615.29" y="-136" font-family="Helvetica,sans-Serif" font-size="10.00">/coro/memory_promise.h</text>
</a>
</g>
</g>
<!-- Node64&#45;&gt;Node65 -->
<g id="edge10" class="edge">
<title>Node64&#45;&gt;Node65</title>
<path fill="none" stroke="midnightblue" d="M615.29,-279.26C615.29,-253.94 615.29,-200.79 615.29,-169.49"/>
<polygon fill="midnightblue" stroke="midnightblue" points="618.79,-169.41 615.29,-159.41 611.79,-169.41 618.79,-169.41"/>
</g>
<!-- Node66 -->
<g id="node12" class="node">
<title>Node66</title>
<g id="a_node12"><a xlink:href="owning__coroutine__handle_8h.html" target="_top" xlink:title=" ">
<polygon fill="white" stroke="red" points="779.79,-123.5 779.79,-164.5 912.79,-164.5 912.79,-123.5 779.79,-123.5"/>
<text text-anchor="start" x="787.79" y="-152.5" font-family="Helvetica,sans-Serif" font-size="10.00">emlabcpp/experimental</text>
<text text-anchor="start" x="787.79" y="-141.5" font-family="Helvetica,sans-Serif" font-size="10.00">/coro/owning_coroutine</text>
<text text-anchor="middle" x="846.29" y="-130.5" font-family="Helvetica,sans-Serif" font-size="10.00">_handle.h</text>
</a>
</g>
</g>
<!-- Node64&#45;&gt;Node66 -->
<g id="edge12" class="edge">
<title>Node64&#45;&gt;Node66</title>
<path fill="none" stroke="midnightblue" d="M681.97,-285.55C736.38,-277.67 807.39,-263.76 827.29,-243 844.5,-225.04 848.38,-196.42 848.47,-174.73"/>
<polygon fill="midnightblue" stroke="midnightblue" points="851.97,-174.64 848.26,-164.72 844.97,-174.8 851.97,-174.64"/>
</g>
<!-- Node67 -->
<g id="node13" class="node">
<title>Node67</title>
<g id="a_node13"><a xlink:title=" ">
<polygon fill="white" stroke="#bfbfbf" points="720.29,-62 720.29,-81 782.29,-81 782.29,-62 720.29,-62"/>
<text text-anchor="middle" x="751.29" y="-69" font-family="Helvetica,sans-Serif" font-size="10.00">coroutine</text>
</a>
</g>
</g>
<!-- Node64&#45;&gt;Node67 -->
<g id="edge25" class="edge">
<title>Node64&#45;&gt;Node67</title>
<path fill="none" stroke="midnightblue" d="M624,-279.34C647.93,-240.45 714.61,-132.1 740.66,-89.76"/>
<polygon fill="midnightblue" stroke="midnightblue" points="743.71,-91.48 745.97,-81.13 737.75,-87.82 743.71,-91.48"/>
</g>
<!-- Node68 -->
<g id="node14" class="node">
<title>Node68</title>
<g id="a_node14"><a xlink:href="recursive_8h.html" target="_top" xlink:title=" ">
<polygon fill="white" stroke="black" points="684.79,-207 684.79,-237 817.79,-237 817.79,-207 684.79,-207"/>
<text text-anchor="start" x="692.79" y="-225" font-family="Helvetica,sans-Serif" font-size="10.00">emlabcpp/experimental</text>
<text text-anchor="middle" x="751.29" y="-214" font-family="Helvetica,sans-Serif" font-size="10.00">/coro/recursive.h</text>
</a>
</g>
</g>
<!-- Node64&#45;&gt;Node68 -->
<g id="edge14" class="edge">
<title>Node64&#45;&gt;Node68</title>
<path fill="none" stroke="midnightblue" d="M642.48,-279.4C663.33,-268.6 692.3,-253.58 715.1,-241.76"/>
<polygon fill="midnightblue" stroke="midnightblue" points="716.87,-244.78 724.14,-237.07 713.65,-238.57 716.87,-244.78"/>
</g>
<!-- Node69 -->
<g id="node15" class="node">
<title>Node69</title>
<g id="a_node15"><a xlink:href="reactor__interface__adapter_8h.html" target="_top" xlink:title=" ">
<polygon fill="white" stroke="red" points="447.29,-201.5 447.29,-242.5 587.29,-242.5 587.29,-201.5 447.29,-201.5"/>
<text text-anchor="start" x="455.29" y="-230.5" font-family="Helvetica,sans-Serif" font-size="10.00">emlabcpp/experimental</text>
<text text-anchor="start" x="455.29" y="-219.5" font-family="Helvetica,sans-Serif" font-size="10.00">/testing/reactor_interface</text>
<text text-anchor="middle" x="517.29" y="-208.5" font-family="Helvetica,sans-Serif" font-size="10.00">_adapter.h</text>
</a>
</g>
</g>
<!-- Node64&#45;&gt;Node69 -->
<g id="edge19" class="edge">
<title>Node64&#45;&gt;Node69</title>
<path fill="none" stroke="midnightblue" d="M595.45,-279.23C583.21,-270.42 567.13,-258.86 552.75,-248.51"/>
<polygon fill="midnightblue" stroke="midnightblue" points="554.68,-245.59 544.52,-242.59 550.59,-251.27 554.68,-245.59"/>
</g>
<!-- Node65&#45;&gt;Node40 -->
<g id="edge11" class="edge">
<title>Node65&#45;&gt;Node40</title>
<path fill="none" stroke="midnightblue" d="M579.89,-128.9C552.04,-117.81 513.04,-102.28 483.02,-90.32"/>
<polygon fill="midnightblue" stroke="midnightblue" points="484.2,-87.02 473.62,-86.57 481.61,-93.52 484.2,-87.02"/>
</g>
<!-- Node66&#45;&gt;Node67 -->
<g id="edge13" class="edge">
<title>Node66&#45;&gt;Node67</title>
<path fill="none" stroke="midnightblue" d="M819.82,-123.36C804.37,-111.89 785.18,-97.65 771.05,-87.16"/>
<polygon fill="midnightblue" stroke="midnightblue" points="773.09,-84.32 762.97,-81.17 768.92,-89.94 773.09,-84.32"/>
</g>
<!-- Node68&#45;&gt;Node65 -->
<g id="edge15" class="edge">
<title>Node68&#45;&gt;Node65</title>
<path fill="none" stroke="midnightblue" d="M726.02,-206.88C704.46,-194.83 673.25,-177.39 649.46,-164.1"/>
<polygon fill="midnightblue" stroke="midnightblue" points="650.85,-160.86 640.41,-159.04 647.44,-166.97 650.85,-160.86"/>
</g>
<!-- Node68&#45;&gt;Node66 -->
<g id="edge16" class="edge">
<title>Node68&#45;&gt;Node66</title>
<path fill="none" stroke="midnightblue" d="M769.16,-206.7C781.67,-196.69 798.76,-183.02 813.67,-171.09"/>
<polygon fill="midnightblue" stroke="midnightblue" points="816.06,-173.66 821.69,-164.68 811.69,-168.19 816.06,-173.66"/>
</g>
<!-- Node68&#45;&gt;Node67 -->
<g id="edge17" class="edge">
<title>Node68&#45;&gt;Node67</title>
<path fill="none" stroke="midnightblue" d="M751.29,-206.76C751.29,-179.85 751.29,-121.54 751.29,-91.4"/>
<polygon fill="midnightblue" stroke="midnightblue" points="754.79,-91.35 751.29,-81.35 747.79,-91.35 754.79,-91.35"/>
</g>
<!-- Node69&#45;&gt;Node61 -->
<g id="edge24" class="edge">
<title>Node69&#45;&gt;Node61</title>
<path fill="none" stroke="midnightblue" d="M523.91,-201.4C534.08,-167.32 548.84,-96.85 513.29,-56 489.01,-28.1 395.38,-17.48 324.27,-13.45"/>
<polygon fill="midnightblue" stroke="midnightblue" points="324.13,-9.93 313.96,-12.9 323.76,-16.92 324.13,-9.93"/>
</g>
<!-- Node69&#45;&gt;Node95 -->
<g id="edge20" class="edge">
<title>Node69&#45;&gt;Node95</title>
<path fill="none" stroke="midnightblue" d="M452.91,-201.43C412.93,-189.28 362.04,-173.81 323.66,-162.14"/>
<polygon fill="midnightblue" stroke="midnightblue" points="324.28,-158.67 313.69,-159.11 322.24,-165.36 324.28,-158.67"/>
</g>
<!-- Node95&#45;&gt;Node3 -->
<g id="edge21" class="edge">
<title>Node95&#45;&gt;Node3</title>
<path fill="none" stroke="midnightblue" d="M233.29,-128.9C206.65,-117.86 169.41,-102.41 140.63,-90.47"/>
<polygon fill="midnightblue" stroke="midnightblue" points="141.8,-87.17 131.22,-86.57 139.12,-93.64 141.8,-87.17"/>
</g>
<!-- Node95&#45;&gt;Node45 -->
<g id="edge22" class="edge">
<title>Node95&#45;&gt;Node45</title>
<path fill="none" stroke="midnightblue" d="M271.33,-128.73C273.96,-119.46 277.46,-107.15 280.5,-96.41"/>
<polygon fill="midnightblue" stroke="midnightblue" points="283.88,-97.32 283.25,-86.75 277.15,-95.41 283.88,-97.32"/>
</g>
<!-- Node95&#45;&gt;Node61 -->
<g id="edge23" class="edge">
<title>Node95&#45;&gt;Node61</title>
<path fill="none" stroke="midnightblue" d="M246.34,-128.79C233.57,-118.78 218.39,-104.15 211.29,-87 202.92,-66.8 215.05,-43.1 225.86,-27.61"/>
<polygon fill="midnightblue" stroke="midnightblue" points="228.72,-29.62 231.91,-19.52 223.11,-25.43 228.72,-29.62"/>
</g>
</g>
</svg>
