<?xml version="1.0" encoding="UTF-8" standalone="no"?>
<!DOCTYPE svg PUBLIC "-//W3C//DTD SVG 1.1//EN"
 "http://www.w3.org/Graphics/SVG/1.1/DTD/svg11.dtd">
<!-- Generated by graphviz version 2.43.0 (0)
 -->
<!-- Title: include/emlabcpp/experimental/testing/collect.h Pages: 1 -->
<svg width="1030pt" height="374pt"
 viewBox="0.00 0.00 1030.00 374.00" xmlns="http://www.w3.org/2000/svg" xmlns:xlink="http://www.w3.org/1999/xlink">
<g id="graph0" class="graph" transform="scale(1 1) rotate(0) translate(4 370)">
<title>include/emlabcpp/experimental/testing/collect.h</title>
<polygon fill="white" stroke="transparent" points="-4,4 -4,-370 1026,-370 1026,4 -4,4"/>
<!-- Node1 -->
<g id="node1" class="node">
<title>Node1</title>
<g id="a_node1"><a xlink:title=" ">
<polygon fill="#bfbfbf" stroke="black" points="588,-335.5 588,-365.5 759,-365.5 759,-335.5 588,-335.5"/>
<text text-anchor="start" x="596" y="-353.5" font-family="Helvetica,sans-Serif" font-size="10.00">include/emlabcpp/experimental</text>
<text text-anchor="middle" x="673.5" y="-342.5" font-family="Helvetica,sans-Serif" font-size="10.00">/testing/collect.h</text>
</a>
</g>
</g>
<!-- Node2 -->
<g id="node2" class="node">
<title>Node2</title>
<g id="a_node2"><a xlink:href="request__adapter_8h.html" target="_top" xlink:title=" ">
<polygon fill="white" stroke="black" points="0,-190.5 0,-231.5 137,-231.5 137,-190.5 0,-190.5"/>
<text text-anchor="start" x="8" y="-219.5" font-family="Helvetica,sans-Serif" font-size="10.00">emlabcpp/experimental</text>
<text text-anchor="start" x="8" y="-208.5" font-family="Helvetica,sans-Serif" font-size="10.00">/contiguous_tree/request</text>
<text text-anchor="middle" x="68.5" y="-197.5" font-family="Helvetica,sans-Serif" font-size="10.00">_adapter.h</text>
</a>
</g>
</g>
<!-- Node1&#45;&gt;Node2 -->
<g id="edge1" class="edge">
<title>Node1&#45;&gt;Node2</title>
<path fill="none" stroke="midnightblue" d="M587.86,-348.39C460.01,-345.54 226.26,-335.36 151.5,-299 124.56,-285.9 101.74,-260.15 86.89,-240.05"/>
<polygon fill="midnightblue" stroke="midnightblue" points="89.68,-237.94 81.03,-231.83 83.99,-242 89.68,-237.94"/>
</g>
<!-- Node40 -->
<g id="node5" class="node">
<title>Node40</title>
<g id="a_node5"><a xlink:href="function__view_8h.html" target="_top" xlink:title=" ">
<polygon fill="white" stroke="black" points="889,-268.5 889,-298.5 1022,-298.5 1022,-268.5 889,-268.5"/>
<text text-anchor="start" x="897" y="-286.5" font-family="Helvetica,sans-Serif" font-size="10.00">emlabcpp/experimental</text>
<text text-anchor="middle" x="955.5" y="-275.5" font-family="Helvetica,sans-Serif" font-size="10.00">/function_view.h</text>
</a>
</g>
</g>
<!-- Node1&#45;&gt;Node40 -->
<g id="edge4" class="edge">
<title>Node1&#45;&gt;Node40</title>
<path fill="none" stroke="midnightblue" d="M734.34,-335.48C778.39,-325.32 838.06,-311.57 884.33,-300.91"/>
<polygon fill="midnightblue" stroke="midnightblue" points="885.32,-304.27 894.28,-298.61 883.75,-297.45 885.32,-304.27"/>
</g>
<!-- Node41 -->
<g id="node7" class="node">
<title>Node41</title>
<g id="a_node7"><a xlink:href="experimental_2testing_2convert_8h.html" target="_top" xlink:title=" ">
<polygon fill="white" stroke="black" points="699,-196 699,-226 832,-226 832,-196 699,-196"/>
<text text-anchor="start" x="707" y="-214" font-family="Helvetica,sans-Serif" font-size="10.00">emlabcpp/experimental</text>
<text text-anchor="middle" x="765.5" y="-203" font-family="Helvetica,sans-Serif" font-size="10.00">/testing/convert.h</text>
</a>
</g>
</g>
<!-- Node1&#45;&gt;Node41 -->
<g id="edge6" class="edge">
<title>Node1&#45;&gt;Node41</title>
<path fill="none" stroke="midnightblue" d="M683,-335.3C698.91,-311.53 731.07,-263.46 750.2,-234.87"/>
<polygon fill="midnightblue" stroke="midnightblue" points="753.26,-236.58 755.91,-226.33 747.44,-232.69 753.26,-236.58"/>
</g>
<!-- Node60 -->
<g id="node9" class="node">
<title>Node60</title>
<g id="a_node9"><a xlink:href="static__function_8h.html" target="_top" xlink:title=" ">
<polygon fill="white" stroke="red" points="405,-0.5 405,-19.5 554,-19.5 554,-0.5 405,-0.5"/>
<text text-anchor="middle" x="479.5" y="-7.5" font-family="Helvetica,sans-Serif" font-size="10.00">emlabcpp/static_function.h</text>
</a>
</g>
</g>
<!-- Node1&#45;&gt;Node60 -->
<g id="edge23" class="edge">
<title>Node1&#45;&gt;Node60</title>
<path fill="none" stroke="midnightblue" d="M726.09,-335.43C781.4,-317.08 860.5,-279.09 860.5,-212 860.5,-212 860.5,-212 860.5,-137.5 860.5,-74.48 670.35,-37.37 558.71,-21.01"/>
<polygon fill="midnightblue" stroke="midnightblue" points="558.89,-17.5 548.5,-19.54 557.9,-24.43 558.89,-17.5"/>
</g>
<!-- Node63 -->
<g id="node10" class="node">
<title>Node63</title>
<g id="a_node10"><a xlink:href="coroutine_8h.html" target="_top" xlink:title=" ">
<polygon fill="white" stroke="black" points="484,-268.5 484,-298.5 617,-298.5 617,-268.5 484,-268.5"/>
<text text-anchor="start" x="492" y="-286.5" font-family="Helvetica,sans-Serif" font-size="10.00">emlabcpp/experimental</text>
<text text-anchor="middle" x="550.5" y="-275.5" font-family="Helvetica,sans-Serif" font-size="10.00">/testing/coroutine.h</text>
</a>
</g>
</g>
<!-- Node1&#45;&gt;Node63 -->
<g id="edge9" class="edge">
<title>Node1&#45;&gt;Node63</title>
<path fill="none" stroke="midnightblue" d="M646.81,-335.4C629,-325.98 605.38,-313.5 585.99,-303.26"/>
<polygon fill="midnightblue" stroke="midnightblue" points="587.61,-300.15 577.14,-298.58 584.34,-306.34 587.61,-300.15"/>
</g>
<!-- Node94 -->
<g id="node15" class="node">
<title>Node94</title>
<g id="a_node15"><a xlink:href="experimental_2testing_2protocol_8h.html" target="_top" xlink:title=" ">
<polygon fill="white" stroke="red" points="271,-123.5 271,-153.5 404,-153.5 404,-123.5 271,-123.5"/>
<text text-anchor="start" x="279" y="-141.5" font-family="Helvetica,sans-Serif" font-size="10.00">emlabcpp/experimental</text>
<text text-anchor="middle" x="337.5" y="-130.5" font-family="Helvetica,sans-Serif" font-size="10.00">/testing/protocol.h</text>
</a>
</g>
</g>
<!-- Node1&#45;&gt;Node94 -->
<g id="edge22" class="edge">
<title>Node1&#45;&gt;Node94</title>
<path fill="none" stroke="midnightblue" d="M587.92,-341.48C461.34,-327.65 233.82,-294.57 184.5,-232 172.95,-217.34 173.56,-205.13 184.5,-190 194.23,-176.54 227.87,-164.7 261.13,-155.87"/>
<polygon fill="midnightblue" stroke="midnightblue" points="262.14,-159.23 270.95,-153.35 260.39,-152.45 262.14,-159.23"/>
</g>
<!-- Node3 -->
<g id="node3" class="node">
<title>Node3</title>
<g id="a_node3"><a xlink:href="experimental_2contiguous__tree_2base_8h.html" target="_top" xlink:title=" ">
<polygon fill="white" stroke="red" points="91,-56.5 91,-86.5 224,-86.5 224,-56.5 91,-56.5"/>
<text text-anchor="start" x="99" y="-74.5" font-family="Helvetica,sans-Serif" font-size="10.00">emlabcpp/experimental</text>
<text text-anchor="middle" x="157.5" y="-63.5" font-family="Helvetica,sans-Serif" font-size="10.00">/contiguous_tree/base.h</text>
</a>
</g>
</g>
<!-- Node2&#45;&gt;Node3 -->
<g id="edge2" class="edge">
<title>Node2&#45;&gt;Node3</title>
<path fill="none" stroke="midnightblue" d="M74.09,-190.17C79.87,-171.74 90.08,-144.03 104.5,-123 111.97,-112.11 122.1,-101.74 131.51,-93.26"/>
<polygon fill="midnightblue" stroke="midnightblue" points="133.91,-95.81 139.17,-86.62 129.32,-90.53 133.91,-95.81"/>
</g>
<!-- Node37 -->
<g id="node4" class="node">
<title>Node37</title>
<g id="a_node4"><a xlink:href="logging_8h.html" target="_top" xlink:title=" ">
<polygon fill="white" stroke="red" points="114,-123.5 114,-153.5 247,-153.5 247,-123.5 114,-123.5"/>
<text text-anchor="start" x="122" y="-141.5" font-family="Helvetica,sans-Serif" font-size="10.00">emlabcpp/experimental</text>
<text text-anchor="middle" x="180.5" y="-130.5" font-family="Helvetica,sans-Serif" font-size="10.00">/logging.h</text>
</a>
</g>
</g>
<!-- Node2&#45;&gt;Node37 -->
<g id="edge3" class="edge">
<title>Node2&#45;&gt;Node37</title>
<path fill="none" stroke="midnightblue" d="M99.7,-190.36C115.17,-180.62 133.81,-168.89 149.29,-159.15"/>
<polygon fill="midnightblue" stroke="midnightblue" points="151.39,-161.96 157.99,-153.67 147.66,-156.04 151.39,-161.96"/>
</g>
<!-- Node6 -->
<g id="node6" class="node">
<title>Node6</title>
<g id="a_node6"><a xlink:href="concepts_8h.html" target="_top" xlink:title=" ">
<polygon fill="white" stroke="red" points="895.5,-201.5 895.5,-220.5 1015.5,-220.5 1015.5,-201.5 895.5,-201.5"/>
<text text-anchor="middle" x="955.5" y="-208.5" font-family="Helvetica,sans-Serif" font-size="10.00">emlabcpp/concepts.h</text>
</a>
</g>
</g>
<!-- Node40&#45;&gt;Node6 -->
<g id="edge5" class="edge">
<title>Node40&#45;&gt;Node6</title>
<path fill="none" stroke="midnightblue" d="M955.5,-268.23C955.5,-257.5 955.5,-242.69 955.5,-230.96"/>
<polygon fill="midnightblue" stroke="midnightblue" points="959,-230.89 955.5,-220.89 952,-230.89 959,-230.89"/>
</g>
<!-- Node42 -->
<g id="node8" class="node">
<title>Node42</title>
<g id="a_node8"><a xlink:href="experimental_2testing_2base_8h.html" target="_top" xlink:title=" ">
<polygon fill="white" stroke="red" points="366,-56.5 366,-86.5 499,-86.5 499,-56.5 366,-56.5"/>
<text text-anchor="start" x="374" y="-74.5" font-family="Helvetica,sans-Serif" font-size="10.00">emlabcpp/experimental</text>
<text text-anchor="middle" x="432.5" y="-63.5" font-family="Helvetica,sans-Serif" font-size="10.00">/testing/base.h</text>
</a>
</g>
</g>
<!-- Node41&#45;&gt;Node42 -->
<g id="edge7" class="edge">
<title>Node41&#45;&gt;Node42</title>
<path fill="none" stroke="midnightblue" d="M747.64,-195.91C722.6,-176.8 675,-142.78 629.5,-123 591.16,-106.33 546.13,-94.28 508.81,-86.14"/>
<polygon fill="midnightblue" stroke="midnightblue" points="509.51,-82.71 499.01,-84.05 508.06,-89.56 509.51,-82.71"/>
</g>
<!-- Node42&#45;&gt;Node60 -->
<g id="edge8" class="edge">
<title>Node42&#45;&gt;Node60</title>
<path fill="none" stroke="midnightblue" d="M443.64,-56.4C450.47,-47.75 459.24,-36.64 466.41,-27.58"/>
<polygon fill="midnightblue" stroke="midnightblue" points="469.21,-29.67 472.66,-19.66 463.72,-25.34 469.21,-29.67"/>
</g>
<!-- Node63&#45;&gt;Node41 -->
<g id="edge14" class="edge">
<title>Node63&#45;&gt;Node41</title>
<path fill="none" stroke="midnightblue" d="M593.23,-268.49C627.63,-257.21 676.14,-241.3 712.92,-229.24"/>
<polygon fill="midnightblue" stroke="midnightblue" points="714.07,-232.55 722.48,-226.11 711.89,-225.9 714.07,-232.55"/>
</g>
<!-- Node64 -->
<g id="node11" class="node">
<title>Node64</title>
<g id="a_node11"><a xlink:href="memory__promise_8h.html" target="_top" xlink:title=" ">
<polygon fill="white" stroke="red" points="194,-196 194,-226 333,-226 333,-196 194,-196"/>
<text text-anchor="start" x="202" y="-214" font-family="Helvetica,sans-Serif" font-size="10.00">emlabcpp/experimental</text>
<text text-anchor="middle" x="263.5" y="-203" font-family="Helvetica,sans-Serif" font-size="10.00">/coro/memory_promise.h</text>
</a>
</g>
</g>
<!-- Node63&#45;&gt;Node64 -->
<g id="edge10" class="edge">
<title>Node63&#45;&gt;Node64</title>
<path fill="none" stroke="midnightblue" d="M491.74,-268.4C450.06,-258.35 392.81,-244.48 342.5,-232 337.93,-230.87 333.22,-229.69 328.48,-228.5"/>
<polygon fill="midnightblue" stroke="midnightblue" points="329.28,-225.1 318.73,-226.06 327.58,-231.89 329.28,-225.1"/>
</g>
<!-- Node65 -->
<g id="node12" class="node">
<title>Node65</title>
<g id="a_node12"><a xlink:href="owning__coroutine__handle_8h.html" target="_top" xlink:title=" ">
<polygon fill="white" stroke="red" points="548,-190.5 548,-231.5 681,-231.5 681,-190.5 548,-190.5"/>
<text text-anchor="start" x="556" y="-219.5" font-family="Helvetica,sans-Serif" font-size="10.00">emlabcpp/experimental</text>
<text text-anchor="start" x="556" y="-208.5" font-family="Helvetica,sans-Serif" font-size="10.00">/coro/owning_coroutine</text>
<text text-anchor="middle" x="614.5" y="-197.5" font-family="Helvetica,sans-Serif" font-size="10.00">_handle.h</text>
</a>
</g>
</g>
<!-- Node63&#45;&gt;Node65 -->
<g id="edge12" class="edge">
<title>Node63&#45;&gt;Node65</title>
<path fill="none" stroke="midnightblue" d="M563.45,-268.23C571,-259.92 580.78,-249.15 589.75,-239.26"/>
<polygon fill="midnightblue" stroke="midnightblue" points="592.59,-241.35 596.72,-231.59 587.4,-236.64 592.59,-241.35"/>
</g>
<!-- Node66 -->
<g id="node13" class="node">
<title>Node66</title>
<g id="a_node13"><a xlink:title=" ">
<polygon fill="white" stroke="#bfbfbf" points="558.5,-129 558.5,-148 620.5,-148 620.5,-129 558.5,-129"/>
<text text-anchor="middle" x="589.5" y="-136" font-family="Helvetica,sans-Serif" font-size="10.00">coroutine</text>
</a>
</g>
</g>
<!-- Node63&#45;&gt;Node66 -->
<g id="edge21" class="edge">
<title>Node63&#45;&gt;Node66</title>
<path fill="none" stroke="midnightblue" d="M544.38,-268.43C537.2,-249.78 527.59,-216.15 538.5,-190 544.54,-175.52 556.97,-163.07 568.05,-154.15"/>
<polygon fill="midnightblue" stroke="midnightblue" points="570.26,-156.87 576.13,-148.05 566.04,-151.28 570.26,-156.87"/>
</g>
<!-- Node67 -->
<g id="node14" class="node">
<title>Node67</title>
<g id="a_node14"><a xlink:href="reactor__interface__adapter_8h.html" target="_top" xlink:title=" ">
<polygon fill="white" stroke="red" points="351.5,-190.5 351.5,-231.5 491.5,-231.5 491.5,-190.5 351.5,-190.5"/>
<text text-anchor="start" x="359.5" y="-219.5" font-family="Helvetica,sans-Serif" font-size="10.00">emlabcpp/experimental</text>
<text text-anchor="start" x="359.5" y="-208.5" font-family="Helvetica,sans-Serif" font-size="10.00">/testing/reactor_interface</text>
<text text-anchor="middle" x="421.5" y="-197.5" font-family="Helvetica,sans-Serif" font-size="10.00">_adapter.h</text>
</a>
</g>
</g>
<!-- Node63&#45;&gt;Node67 -->
<g id="edge15" class="edge">
<title>Node63&#45;&gt;Node67</title>
<path fill="none" stroke="midnightblue" d="M524.7,-268.4C508.07,-259.31 486,-247.25 466.53,-236.61"/>
<polygon fill="midnightblue" stroke="midnightblue" points="467.96,-233.4 457.51,-231.68 464.61,-239.55 467.96,-233.4"/>
</g>
<!-- Node64&#45;&gt;Node37 -->
<g id="edge11" class="edge">
<title>Node64&#45;&gt;Node37</title>
<path fill="none" stroke="midnightblue" d="M246.7,-195.73C234.7,-185.54 218.36,-171.66 204.92,-160.24"/>
<polygon fill="midnightblue" stroke="midnightblue" points="206.88,-157.31 196.99,-153.5 202.34,-162.65 206.88,-157.31"/>
</g>
<!-- Node65&#45;&gt;Node66 -->
<g id="edge13" class="edge">
<title>Node65&#45;&gt;Node66</title>
<path fill="none" stroke="midnightblue" d="M607.54,-190.36C603.93,-180.19 599.55,-167.84 596.01,-157.86"/>
<polygon fill="midnightblue" stroke="midnightblue" points="599.22,-156.43 592.58,-148.17 592.62,-158.77 599.22,-156.43"/>
</g>
<!-- Node67&#45;&gt;Node60 -->
<g id="edge20" class="edge">
<title>Node67&#45;&gt;Node60</title>
<path fill="none" stroke="midnightblue" d="M441.1,-190.38C462.2,-167.73 494.51,-128.26 507.5,-87 511.64,-73.86 511.29,-69.25 507.5,-56 504.6,-45.84 498.67,-35.75 493.01,-27.7"/>
<polygon fill="midnightblue" stroke="midnightblue" points="495.72,-25.48 486.91,-19.59 490.12,-29.69 495.72,-25.48"/>
</g>
<!-- Node67&#45;&gt;Node94 -->
<g id="edge16" class="edge">
<title>Node67&#45;&gt;Node94</title>
<path fill="none" stroke="midnightblue" d="M398.1,-190.36C386.93,-180.99 373.56,-169.76 362.22,-160.25"/>
<polygon fill="midnightblue" stroke="midnightblue" points="364.29,-157.42 354.38,-153.67 359.79,-162.78 364.29,-157.42"/>
</g>
<!-- Node94&#45;&gt;Node3 -->
<g id="edge17" class="edge">
<title>Node94&#45;&gt;Node3</title>
<path fill="none" stroke="midnightblue" d="M298.44,-123.4C271.32,-113.6 234.99,-100.48 206,-90.02"/>
<polygon fill="midnightblue" stroke="midnightblue" points="207.08,-86.68 196.48,-86.58 204.7,-93.26 207.08,-86.68"/>
</g>
<!-- Node94&#45;&gt;Node42 -->
<g id="edge18" class="edge">
<title>Node94&#45;&gt;Node42</title>
<path fill="none" stroke="midnightblue" d="M358.11,-123.4C371.43,-114.28 388.96,-102.29 403.66,-92.24"/>
<polygon fill="midnightblue" stroke="midnightblue" points="405.65,-95.11 411.93,-86.58 401.7,-89.33 405.65,-95.11"/>
</g>
<!-- Node94&#45;&gt;Node60 -->
<g id="edge19" class="edge">
<title>Node94&#45;&gt;Node60</title>
<path fill="none" stroke="midnightblue" d="M336.94,-123.29C337.02,-105.42 339.84,-74.82 356.5,-56 371.14,-39.46 392.37,-29 413.09,-22.38"/>
<polygon fill="midnightblue" stroke="midnightblue" points="414.25,-25.68 422.87,-19.51 412.29,-18.97 414.25,-25.68"/>
</g>
</g>
</svg>
