<?xml version="1.0" encoding="UTF-8" standalone="no"?>
<!DOCTYPE svg PUBLIC "-//W3C//DTD SVG 1.1//EN"
 "http://www.w3.org/Graphics/SVG/1.1/DTD/svg11.dtd">
<!-- Generated by graphviz version 2.43.0 (0)
 -->
<!-- Title: include/emlabcpp/experimental/testing/collect.h Pages: 1 -->
<svg width="1716pt" height="397pt"
 viewBox="0.00 0.00 1715.68 397.00" xmlns="http://www.w3.org/2000/svg" xmlns:xlink="http://www.w3.org/1999/xlink">
<g id="graph0" class="graph" transform="scale(1 1) rotate(0) translate(4 393)">
<title>include/emlabcpp/experimental/testing/collect.h</title>
<polygon fill="white" stroke="transparent" points="-4,4 -4,-393 1711.68,-393 1711.68,4 -4,4"/>
<!-- Node1 -->
<g id="node1" class="node">
<title>Node1</title>
<g id="a_node1"><a xlink:title=" ">
<polygon fill="#bfbfbf" stroke="black" points="676.68,-358.5 676.68,-388.5 847.68,-388.5 847.68,-358.5 676.68,-358.5"/>
<text text-anchor="start" x="684.68" y="-376.5" font-family="Helvetica,sans-Serif" font-size="10.00">include/emlabcpp/experimental</text>
<text text-anchor="middle" x="762.18" y="-365.5" font-family="Helvetica,sans-Serif" font-size="10.00">/testing/collect.h</text>
</a>
</g>
</g>
<!-- Node2 -->
<g id="node2" class="node">
<title>Node2</title>
<g id="a_node2"><a xlink:href="static__function_8h.html" target="_top" xlink:title=" ">
<polygon fill="white" stroke="black" points="95.18,-168.5 95.18,-187.5 211.18,-187.5 211.18,-168.5 95.18,-168.5"/>
<text text-anchor="middle" x="153.18" y="-175.5" font-family="Helvetica,sans-Serif" font-size="10.00">../../static_function.h</text>
</a>
</g>
</g>
<!-- Node1&#45;&gt;Node2 -->
<g id="edge1" class="edge">
<title>Node1&#45;&gt;Node2</title>
<path fill="none" stroke="midnightblue" d="M676.5,-373.07C548.42,-372.46 314.54,-365.2 244.18,-322 196.84,-292.94 169.84,-229 158.92,-197.41"/>
<polygon fill="midnightblue" stroke="midnightblue" points="162.17,-196.09 155.72,-187.69 155.52,-198.28 162.17,-196.09"/>
</g>
<!-- Node9 -->
<g id="node7" class="node">
<title>Node9</title>
<g id="a_node7"><a xlink:href="request__adapter_8h.html" target="_top" xlink:title=" ">
<polygon fill="white" stroke="black" points="411.68,-291.5 411.68,-321.5 518.68,-321.5 518.68,-291.5 411.68,-291.5"/>
<text text-anchor="start" x="419.68" y="-309.5" font-family="Helvetica,sans-Serif" font-size="10.00">../contiguous_tree</text>
<text text-anchor="middle" x="465.18" y="-298.5" font-family="Helvetica,sans-Serif" font-size="10.00">/request_adapter.h</text>
</a>
</g>
</g>
<!-- Node1&#45;&gt;Node9 -->
<g id="edge6" class="edge">
<title>Node1&#45;&gt;Node9</title>
<path fill="none" stroke="midnightblue" d="M698.1,-358.48C648,-347.51 578.72,-332.35 528.75,-321.41"/>
<polygon fill="midnightblue" stroke="midnightblue" points="529.23,-317.94 518.71,-319.22 527.73,-324.77 529.23,-317.94"/>
</g>
<!-- Node12 -->
<g id="node10" class="node">
<title>Node12</title>
<g id="a_node10"><a xlink:href="function__view_8h.html" target="_top" xlink:title=" ">
<polygon fill="white" stroke="black" points="968.18,-297 968.18,-316 1070.18,-316 1070.18,-297 968.18,-297"/>
<text text-anchor="middle" x="1019.18" y="-304" font-family="Helvetica,sans-Serif" font-size="10.00">../function_view.h</text>
</a>
</g>
</g>
<!-- Node1&#45;&gt;Node12 -->
<g id="edge10" class="edge">
<title>Node1&#45;&gt;Node12</title>
<path fill="none" stroke="midnightblue" d="M817.63,-358.48C864.99,-346.5 932.19,-329.5 975.73,-318.49"/>
<polygon fill="midnightblue" stroke="midnightblue" points="976.62,-321.87 985.46,-316.03 974.9,-315.09 976.62,-321.87"/>
</g>
<!-- Node22 -->
<g id="node12" class="node">
<title>Node22</title>
<g id="a_node12"><a xlink:href="experimental_2testing_2convert_8h.html" target="_top" xlink:title=" ">
<polygon fill="white" stroke="black" points="253.18,-297 253.18,-316 321.18,-316 321.18,-297 253.18,-297"/>
<text text-anchor="middle" x="287.18" y="-304" font-family="Helvetica,sans-Serif" font-size="10.00">./convert.h</text>
</a>
</g>
</g>
<!-- Node1&#45;&gt;Node22 -->
<g id="edge13" class="edge">
<title>Node1&#45;&gt;Node22</title>
<path fill="none" stroke="midnightblue" d="M676.43,-360.77C574.9,-346.87 409.71,-324.27 331.24,-313.53"/>
<polygon fill="midnightblue" stroke="midnightblue" points="331.6,-310.05 321.21,-312.16 330.65,-316.98 331.6,-310.05"/>
</g>
<!-- Node61 -->
<g id="node19" class="node">
<title>Node61</title>
<g id="a_node19"><a xlink:href="coroutine_8h.html" target="_top" xlink:title=" ">
<polygon fill="white" stroke="black" points="1246.68,-297 1246.68,-316 1323.68,-316 1323.68,-297 1246.68,-297"/>
<text text-anchor="middle" x="1285.18" y="-304" font-family="Helvetica,sans-Serif" font-size="10.00">./coroutine.h</text>
</a>
</g>
</g>
<!-- Node1&#45;&gt;Node61 -->
<g id="edge23" class="edge">
<title>Node1&#45;&gt;Node61</title>
<path fill="none" stroke="midnightblue" d="M847.95,-361.84C958.76,-348.07 1147.91,-324.56 1236.59,-313.54"/>
<polygon fill="midnightblue" stroke="midnightblue" points="1237.15,-317 1246.64,-312.29 1236.29,-310.05 1237.15,-317"/>
</g>
<!-- Node66 -->
<g id="node24" class="node">
<title>Node66</title>
<g id="a_node24"><a xlink:href="experimental_2testing_2protocol_8h.html" target="_top" xlink:title=" ">
<polygon fill="white" stroke="black" points="726.68,-297 726.68,-316 797.68,-316 797.68,-297 726.68,-297"/>
<text text-anchor="middle" x="762.18" y="-304" font-family="Helvetica,sans-Serif" font-size="10.00">./protocol.h</text>
</a>
</g>
</g>
<!-- Node1&#45;&gt;Node66 -->
<g id="edge29" class="edge">
<title>Node1&#45;&gt;Node66</title>
<path fill="none" stroke="midnightblue" d="M762.18,-358.4C762.18,-349.06 762.18,-336.71 762.18,-326.52"/>
<polygon fill="midnightblue" stroke="midnightblue" points="765.68,-326.19 762.18,-316.19 758.68,-326.19 765.68,-326.19"/>
</g>
<!-- Node94 -->
<g id="node33" class="node">
<title>Node94</title>
<g id="a_node33"><a xlink:title=" ">
<polygon fill="white" stroke="#bfbfbf" points="1341.68,-297 1341.68,-316 1434.68,-316 1434.68,-297 1341.68,-297"/>
<text text-anchor="middle" x="1388.18" y="-304" font-family="Helvetica,sans-Serif" font-size="10.00">source_location</text>
</a>
</g>
</g>
<!-- Node1&#45;&gt;Node94 -->
<g id="edge60" class="edge">
<title>Node1&#45;&gt;Node94</title>
<path fill="none" stroke="midnightblue" d="M847.9,-369.45C960.11,-364.42 1162.6,-351.81 1333.18,-322 1338.59,-321.05 1344.24,-319.84 1349.78,-318.51"/>
<polygon fill="midnightblue" stroke="midnightblue" points="1350.72,-321.88 1359.55,-316.03 1349,-315.09 1350.72,-321.88"/>
</g>
<!-- Node3 -->
<g id="node3" class="node">
<title>Node3</title>
<g id="a_node3"><a xlink:href="util_8h.html" target="_top" xlink:title=" ">
<polygon fill="white" stroke="red" points="95.18,-112.5 95.18,-131.5 165.18,-131.5 165.18,-112.5 95.18,-112.5"/>
<text text-anchor="middle" x="130.18" y="-119.5" font-family="Helvetica,sans-Serif" font-size="10.00">./pmr/util.h</text>
</a>
</g>
</g>
<!-- Node2&#45;&gt;Node3 -->
<g id="edge2" class="edge">
<title>Node2&#45;&gt;Node3</title>
<path fill="none" stroke="midnightblue" d="M149.38,-168.08C146.26,-160.77 141.75,-150.18 137.89,-141.1"/>
<polygon fill="midnightblue" stroke="midnightblue" points="141.04,-139.58 133.9,-131.75 134.6,-142.32 141.04,-139.58"/>
</g>
<!-- Node7 -->
<g id="node5" class="node">
<title>Node7</title>
<g id="a_node5"><a xlink:title=" ">
<polygon fill="white" stroke="#bfbfbf" points="183.68,-112.5 183.68,-131.5 248.68,-131.5 248.68,-112.5 183.68,-112.5"/>
<text text-anchor="middle" x="216.18" y="-119.5" font-family="Helvetica,sans-Serif" font-size="10.00">functional</text>
</a>
</g>
</g>
<!-- Node2&#45;&gt;Node7 -->
<g id="edge4" class="edge">
<title>Node2&#45;&gt;Node7</title>
<path fill="none" stroke="midnightblue" d="M163.3,-168.32C172.7,-160.26 186.92,-148.08 198.25,-138.37"/>
<polygon fill="midnightblue" stroke="midnightblue" points="200.56,-141 205.87,-131.83 196,-135.68 200.56,-141"/>
</g>
<!-- Node8 -->
<g id="node6" class="node">
<title>Node8</title>
<g id="a_node6"><a xlink:title=" ">
<polygon fill="white" stroke="#bfbfbf" points="19.18,-112.5 19.18,-131.5 77.18,-131.5 77.18,-112.5 19.18,-112.5"/>
<text text-anchor="middle" x="48.18" y="-119.5" font-family="Helvetica,sans-Serif" font-size="10.00">memory</text>
</a>
</g>
</g>
<!-- Node2&#45;&gt;Node8 -->
<g id="edge5" class="edge">
<title>Node2&#45;&gt;Node8</title>
<path fill="none" stroke="midnightblue" d="M136.31,-168.32C119.47,-159.66 93.37,-146.24 73.94,-136.25"/>
<polygon fill="midnightblue" stroke="midnightblue" points="75.5,-133.12 65.01,-131.65 72.3,-139.34 75.5,-133.12"/>
</g>
<!-- Node4 -->
<g id="node4" class="node">
<title>Node4</title>
<g id="a_node4"><a xlink:title=" ">
<polygon fill="white" stroke="#bfbfbf" points="362.68,-56.5 362.68,-75.5 391.68,-75.5 391.68,-56.5 362.68,-56.5"/>
<text text-anchor="middle" x="377.18" y="-63.5" font-family="Helvetica,sans-Serif" font-size="10.00">bit</text>
</a>
</g>
</g>
<!-- Node3&#45;&gt;Node4 -->
<g id="edge3" class="edge">
<title>Node3&#45;&gt;Node4</title>
<path fill="none" stroke="midnightblue" d="M165.3,-113.32C216.12,-102.21 308.86,-81.94 352.82,-72.33"/>
<polygon fill="midnightblue" stroke="midnightblue" points="353.62,-75.73 362.65,-70.18 352.13,-68.89 353.62,-75.73"/>
</g>
<!-- Node10 -->
<g id="node8" class="node">
<title>Node10</title>
<g id="a_node8"><a xlink:href="experimental_2contiguous__tree_2base_8h.html" target="_top" xlink:title=" ">
<polygon fill="white" stroke="red" points="343.68,-230 343.68,-249 398.68,-249 398.68,-230 343.68,-230"/>
<text text-anchor="middle" x="371.18" y="-237" font-family="Helvetica,sans-Serif" font-size="10.00">./base.h</text>
</a>
</g>
</g>
<!-- Node9&#45;&gt;Node10 -->
<g id="edge7" class="edge">
<title>Node9&#45;&gt;Node10</title>
<path fill="none" stroke="midnightblue" d="M444.78,-291.4C429.16,-280.6 407.7,-265.76 391.98,-254.89"/>
<polygon fill="midnightblue" stroke="midnightblue" points="393.7,-251.82 383.48,-249.01 389.71,-257.57 393.7,-251.82"/>
</g>
<!-- Node11 -->
<g id="node9" class="node">
<title>Node11</title>
<g id="a_node9"><a xlink:title=" ">
<polygon fill="white" stroke="#bfbfbf" points="572.68,-56.5 572.68,-75.5 623.68,-75.5 623.68,-56.5 572.68,-56.5"/>
<text text-anchor="middle" x="598.18" y="-63.5" font-family="Helvetica,sans-Serif" font-size="10.00">variant</text>
</a>
</g>
</g>
<!-- Node9&#45;&gt;Node11 -->
<g id="edge9" class="edge">
<title>Node9&#45;&gt;Node11</title>
<path fill="none" stroke="midnightblue" d="M474.62,-291.29C488.99,-269.46 516.91,-226.19 538.18,-188 558.15,-152.13 578.87,-108.73 589.97,-84.87"/>
<polygon fill="midnightblue" stroke="midnightblue" points="593.21,-86.2 594.23,-75.65 586.86,-83.26 593.21,-86.2"/>
</g>
<!-- Node10&#45;&gt;Node7 -->
<g id="edge8" class="edge">
<title>Node10&#45;&gt;Node7</title>
<path fill="none" stroke="midnightblue" d="M359.53,-229.82C333.27,-210.25 269.21,-162.52 236.35,-138.03"/>
<polygon fill="midnightblue" stroke="midnightblue" points="238.07,-134.95 227.96,-131.78 233.89,-140.56 238.07,-134.95"/>
</g>
<!-- Node13 -->
<g id="node11" class="node">
<title>Node13</title>
<g id="a_node11"><a xlink:href="concepts_8h.html" target="_top" xlink:title=" ">
<polygon fill="white" stroke="red" points="817.18,-112.5 817.18,-131.5 895.18,-131.5 895.18,-112.5 817.18,-112.5"/>
<text text-anchor="middle" x="856.18" y="-119.5" font-family="Helvetica,sans-Serif" font-size="10.00">../concepts.h</text>
</a>
</g>
</g>
<!-- Node12&#45;&gt;Node13 -->
<g id="edge11" class="edge">
<title>Node12&#45;&gt;Node13</title>
<path fill="none" stroke="midnightblue" d="M1035.24,-296.97C1074.38,-275.15 1168.57,-215.62 1128.18,-168 1100.2,-135.02 976.17,-126.18 905.65,-123.83"/>
<polygon fill="midnightblue" stroke="midnightblue" points="905.33,-120.32 895.23,-123.52 905.12,-127.31 905.33,-120.32"/>
</g>
<!-- Node13&#45;&gt;Node11 -->
<g id="edge12" class="edge">
<title>Node13&#45;&gt;Node11</title>
<path fill="none" stroke="midnightblue" d="M816.99,-112.8C767.22,-102.38 682.03,-84.55 633.94,-74.49"/>
<polygon fill="midnightblue" stroke="midnightblue" points="634.49,-71.02 623.99,-72.4 633.06,-77.88 634.49,-71.02"/>
</g>
<!-- Node23 -->
<g id="node13" class="node">
<title>Node23</title>
<g id="a_node13"><a xlink:href="string__buffer_8h.html" target="_top" xlink:title=" ">
<polygon fill="white" stroke="red" points="96.68,-56.5 96.68,-75.5 191.68,-75.5 191.68,-56.5 96.68,-56.5"/>
<text text-anchor="middle" x="144.18" y="-63.5" font-family="Helvetica,sans-Serif" font-size="10.00">../string_buffer.h</text>
</a>
</g>
</g>
<!-- Node22&#45;&gt;Node23 -->
<g id="edge14" class="edge">
<title>Node22&#45;&gt;Node23</title>
<path fill="none" stroke="midnightblue" d="M253.15,-299.61C184.09,-285.43 31.61,-242.07 3.18,-132 0.95,-123.39 -2.07,-119.18 3.18,-112 22.24,-85.9 56.61,-74.59 86.64,-69.83"/>
<polygon fill="midnightblue" stroke="midnightblue" points="87.2,-73.28 96.63,-68.45 86.25,-66.35 87.2,-73.28"/>
</g>
<!-- Node27 -->
<g id="node15" class="node">
<title>Node27</title>
<g id="a_node15"><a xlink:href="experimental_2testing_2base_8h.html" target="_top" xlink:title=" ">
<polygon fill="white" stroke="red" points="231.68,-230 231.68,-249 286.68,-249 286.68,-230 231.68,-230"/>
<text text-anchor="middle" x="259.18" y="-237" font-family="Helvetica,sans-Serif" font-size="10.00">./base.h</text>
</a>
</g>
</g>
<!-- Node22&#45;&gt;Node27 -->
<g id="edge16" class="edge">
<title>Node22&#45;&gt;Node27</title>
<path fill="none" stroke="midnightblue" d="M283.4,-296.73C279.2,-286.99 272.31,-270.98 266.95,-258.53"/>
<polygon fill="midnightblue" stroke="midnightblue" points="270.06,-256.93 262.89,-249.13 263.64,-259.7 270.06,-256.93"/>
</g>
<!-- Node60 -->
<g id="node18" class="node">
<title>Node60</title>
<g id="a_node18"><a xlink:title=" ">
<polygon fill="white" stroke="#bfbfbf" points="305.18,-112.5 305.18,-131.5 349.18,-131.5 349.18,-112.5 305.18,-112.5"/>
<text text-anchor="middle" x="327.18" y="-119.5" font-family="Helvetica,sans-Serif" font-size="10.00">bitset</text>
</a>
</g>
</g>
<!-- Node22&#45;&gt;Node60 -->
<g id="edge22" class="edge">
<title>Node22&#45;&gt;Node60</title>
<path fill="none" stroke="midnightblue" d="M289.11,-296.7C295.27,-268.57 314.58,-180.46 323.09,-141.66"/>
<polygon fill="midnightblue" stroke="midnightblue" points="326.55,-142.23 325.27,-131.71 319.71,-140.73 326.55,-142.23"/>
</g>
<!-- Node15 -->
<g id="node14" class="node">
<title>Node15</title>
<g id="a_node14"><a xlink:title=" ">
<polygon fill="white" stroke="#bfbfbf" points="449.18,-0.5 449.18,-19.5 491.18,-19.5 491.18,-0.5 449.18,-0.5"/>
<text text-anchor="middle" x="470.18" y="-7.5" font-family="Helvetica,sans-Serif" font-size="10.00">array</text>
</a>
</g>
</g>
<!-- Node23&#45;&gt;Node15 -->
<g id="edge15" class="edge">
<title>Node23&#45;&gt;Node15</title>
<path fill="none" stroke="midnightblue" d="M191.93,-57.09C259.69,-45.87 381.86,-25.63 439.06,-16.16"/>
<polygon fill="midnightblue" stroke="midnightblue" points="439.66,-19.6 448.95,-14.52 438.51,-12.7 439.66,-19.6"/>
</g>
<!-- Node27&#45;&gt;Node2 -->
<g id="edge19" class="edge">
<title>Node27&#45;&gt;Node2</title>
<path fill="none" stroke="midnightblue" d="M243.99,-229.98C226.52,-220.17 197.6,-203.93 177.09,-192.42"/>
<polygon fill="midnightblue" stroke="midnightblue" points="178.77,-189.35 168.34,-187.51 175.34,-195.46 178.77,-189.35"/>
</g>
<!-- Node27&#45;&gt;Node11 -->
<g id="edge21" class="edge">
<title>Node27&#45;&gt;Node11</title>
<path fill="none" stroke="midnightblue" d="M258.8,-229.79C258.32,-206.62 260.48,-143.13 296.18,-112 335.23,-77.95 490.71,-69.66 562.06,-67.65"/>
<polygon fill="midnightblue" stroke="midnightblue" points="562.44,-71.14 572.35,-67.38 562.26,-64.14 562.44,-71.14"/>
</g>
<!-- Node27&#45;&gt;Node23 -->
<g id="edge20" class="edge">
<title>Node27&#45;&gt;Node23</title>
<path fill="none" stroke="midnightblue" d="M231.4,-237.25C175.62,-232.98 51.74,-214.25 10.18,-132 -7.46,-97.1 42.5,-80.75 86.35,-73.21"/>
<polygon fill="midnightblue" stroke="midnightblue" points="87.12,-76.64 96.45,-71.61 86.02,-69.72 87.12,-76.64"/>
</g>
<!-- Node28 -->
<g id="node16" class="node">
<title>Node28</title>
<g id="a_node16"><a xlink:href="algorithm_8h.html" target="_top" xlink:title=" ">
<polygon fill="white" stroke="red" points="661.68,-168.5 661.68,-187.5 752.68,-187.5 752.68,-168.5 661.68,-168.5"/>
<text text-anchor="middle" x="707.18" y="-175.5" font-family="Helvetica,sans-Serif" font-size="10.00">../../algorithm.h</text>
</a>
</g>
</g>
<!-- Node27&#45;&gt;Node28 -->
<g id="edge17" class="edge">
<title>Node27&#45;&gt;Node28</title>
<path fill="none" stroke="midnightblue" d="M286.88,-232.66C300.99,-229.81 318.46,-226.47 334.18,-224 446.27,-206.43 578.24,-191.96 651.33,-184.49"/>
<polygon fill="midnightblue" stroke="midnightblue" points="652.08,-187.93 661.67,-183.44 651.37,-180.97 652.08,-187.93"/>
</g>
<!-- Node38 -->
<g id="node17" class="node">
<title>Node38</title>
<g id="a_node17"><a xlink:href="view_8h.html" target="_top" xlink:title=" ">
<polygon fill="white" stroke="red" points="745.18,-112.5 745.18,-131.5 799.18,-131.5 799.18,-112.5 745.18,-112.5"/>
<text text-anchor="middle" x="772.18" y="-119.5" font-family="Helvetica,sans-Serif" font-size="10.00">./view.h</text>
</a>
</g>
</g>
<!-- Node28&#45;&gt;Node38 -->
<g id="edge18" class="edge">
<title>Node28&#45;&gt;Node38</title>
<path fill="none" stroke="midnightblue" d="M717.62,-168.32C727.32,-160.26 741.99,-148.08 753.68,-138.37"/>
<polygon fill="midnightblue" stroke="midnightblue" points="756.09,-140.92 761.54,-131.83 751.62,-135.53 756.09,-140.92"/>
</g>
<!-- Node62 -->
<g id="node20" class="node">
<title>Node62</title>
<g id="a_node20"><a xlink:href="data__promise_8h.html" target="_top" xlink:title=" ">
<polygon fill="white" stroke="red" points="1419.68,-230 1419.68,-249 1544.68,-249 1544.68,-230 1419.68,-230"/>
<text text-anchor="middle" x="1482.18" y="-237" font-family="Helvetica,sans-Serif" font-size="10.00">../coro/data_promise.h</text>
</a>
</g>
</g>
<!-- Node61&#45;&gt;Node62 -->
<g id="edge24" class="edge">
<title>Node61&#45;&gt;Node62</title>
<path fill="none" stroke="midnightblue" d="M1311.34,-296.87C1346.02,-285.42 1407.38,-265.18 1446.35,-252.32"/>
<polygon fill="midnightblue" stroke="midnightblue" points="1447.82,-255.52 1456.22,-249.06 1445.63,-248.87 1447.82,-255.52"/>
</g>
<!-- Node63 -->
<g id="node21" class="node">
<title>Node63</title>
<g id="a_node21"><a xlink:href="memory__promise_8h.html" target="_top" xlink:title=" ">
<polygon fill="white" stroke="red" points="1562.68,-230 1562.68,-249 1707.68,-249 1707.68,-230 1562.68,-230"/>
<text text-anchor="middle" x="1635.18" y="-237" font-family="Helvetica,sans-Serif" font-size="10.00">../coro/memory_promise.h</text>
</a>
</g>
</g>
<!-- Node61&#45;&gt;Node63 -->
<g id="edge25" class="edge">
<title>Node61&#45;&gt;Node63</title>
<path fill="none" stroke="midnightblue" d="M1311.17,-296.97C1318.26,-294.83 1325.97,-292.67 1333.18,-291 1430.13,-268.56 1456.08,-271.77 1554.18,-255 1561.9,-253.68 1570.03,-252.26 1578.04,-250.84"/>
<polygon fill="midnightblue" stroke="midnightblue" points="1578.85,-254.25 1588.08,-249.06 1577.63,-247.36 1578.85,-254.25"/>
</g>
<!-- Node64 -->
<g id="node22" class="node">
<title>Node64</title>
<g id="a_node22"><a xlink:href="owning__coroutine__handle_8h.html" target="_top" xlink:title=" ">
<polygon fill="white" stroke="red" points="1265.18,-224.5 1265.18,-254.5 1401.18,-254.5 1401.18,-224.5 1265.18,-224.5"/>
<text text-anchor="start" x="1273.18" y="-242.5" font-family="Helvetica,sans-Serif" font-size="10.00">../coro/owning_coroutine</text>
<text text-anchor="middle" x="1333.18" y="-231.5" font-family="Helvetica,sans-Serif" font-size="10.00">_handle.h</text>
</a>
</g>
</g>
<!-- Node61&#45;&gt;Node64 -->
<g id="edge26" class="edge">
<title>Node61&#45;&gt;Node64</title>
<path fill="none" stroke="midnightblue" d="M1291.65,-296.73C1298.08,-288.03 1308.18,-274.34 1316.82,-262.65"/>
<polygon fill="midnightblue" stroke="midnightblue" points="1319.65,-264.71 1322.77,-254.59 1314.02,-260.55 1319.65,-264.71"/>
</g>
<!-- Node65 -->
<g id="node23" class="node">
<title>Node65</title>
<g id="a_node23"><a xlink:title=" ">
<polygon fill="white" stroke="#bfbfbf" points="1277.18,-168.5 1277.18,-187.5 1339.18,-187.5 1339.18,-168.5 1277.18,-168.5"/>
<text text-anchor="middle" x="1308.18" y="-175.5" font-family="Helvetica,sans-Serif" font-size="10.00">coroutine</text>
</a>
</g>
</g>
<!-- Node61&#45;&gt;Node65 -->
<g id="edge28" class="edge">
<title>Node61&#45;&gt;Node65</title>
<path fill="none" stroke="midnightblue" d="M1277.64,-296.74C1265.58,-281.6 1244.44,-249.68 1256.18,-224 1261.95,-211.36 1273.23,-200.91 1283.81,-193.27"/>
<polygon fill="midnightblue" stroke="midnightblue" points="1286.03,-196 1292.39,-187.53 1282.14,-190.18 1286.03,-196"/>
</g>
<!-- Node64&#45;&gt;Node65 -->
<g id="edge27" class="edge">
<title>Node64&#45;&gt;Node65</title>
<path fill="none" stroke="midnightblue" d="M1327.25,-224.4C1323.81,-216.2 1319.43,-205.78 1315.74,-196.99"/>
<polygon fill="midnightblue" stroke="midnightblue" points="1318.92,-195.52 1311.82,-187.66 1312.46,-198.23 1318.92,-195.52"/>
</g>
<!-- Node66&#45;&gt;Node2 -->
<g id="edge50" class="edge">
<title>Node66&#45;&gt;Node2</title>
<path fill="none" stroke="midnightblue" d="M726.38,-300.96C673.76,-293.81 572.74,-278.32 489.18,-255 451.65,-244.53 444.74,-234.33 407.18,-224 345.24,-206.97 272.97,-194.89 221.39,-187.57"/>
<polygon fill="midnightblue" stroke="midnightblue" points="221.75,-184.09 211.36,-186.17 220.78,-191.02 221.75,-184.09"/>
</g>
<!-- Node66&#45;&gt;Node4 -->
<g id="edge58" class="edge">
<title>Node66&#45;&gt;Node4</title>
<path fill="none" stroke="midnightblue" d="M726.67,-301.88C678.07,-296.1 588.72,-282.53 517.18,-255 513.75,-253.68 405.33,-190.98 403.18,-188 380.92,-157.19 377.01,-111.18 376.72,-85.69"/>
<polygon fill="midnightblue" stroke="midnightblue" points="380.22,-85.57 376.78,-75.55 373.22,-85.53 380.22,-85.57"/>
</g>
<!-- Node66&#45;&gt;Node10 -->
<g id="edge52" class="edge">
<title>Node66&#45;&gt;Node10</title>
<path fill="none" stroke="midnightblue" d="M726.59,-302.59C662.98,-296.89 525.92,-282.36 413.18,-255 409.95,-254.22 406.63,-253.29 403.33,-252.29"/>
<polygon fill="midnightblue" stroke="midnightblue" points="404.21,-248.89 393.61,-249.12 402.04,-255.55 404.21,-248.89"/>
</g>
<!-- Node66&#45;&gt;Node11 -->
<g id="edge59" class="edge">
<title>Node66&#45;&gt;Node11</title>
<path fill="none" stroke="midnightblue" d="M797.69,-303.83C872.27,-299.73 1042.19,-287.04 1089.18,-255 1124.19,-231.13 1154.26,-201.4 1128.18,-168 1067.02,-89.67 743.14,-71.8 634.07,-67.98"/>
<polygon fill="midnightblue" stroke="midnightblue" points="634.01,-64.48 623.9,-67.64 633.78,-71.47 634.01,-64.48"/>
</g>
<!-- Node66&#45;&gt;Node15 -->
<g id="edge57" class="edge">
<title>Node66&#45;&gt;Node15</title>
<path fill="none" stroke="midnightblue" d="M797.8,-302.54C883.51,-295.12 1096.05,-274.91 1121.18,-255 1152.81,-229.93 1166.69,-203.33 1147.18,-168 1082.78,-51.39 625.79,-19.14 501.38,-12.47"/>
<polygon fill="midnightblue" stroke="midnightblue" points="501.54,-8.98 491.37,-11.95 501.17,-15.97 501.54,-8.98"/>
</g>
<!-- Node66&#45;&gt;Node27 -->
<g id="edge56" class="edge">
<title>Node66&#45;&gt;Node27</title>
<path fill="none" stroke="midnightblue" d="M726.55,-302.19C652.99,-295.16 479.09,-277.53 334.18,-255 322.01,-253.11 308.81,-250.68 296.92,-248.36"/>
<polygon fill="midnightblue" stroke="midnightblue" points="297.37,-244.88 286.87,-246.36 296,-251.74 297.37,-244.88"/>
</g>
<!-- Node66&#45;&gt;Node28 -->
<g id="edge30" class="edge">
<title>Node66&#45;&gt;Node28</title>
<path fill="none" stroke="midnightblue" d="M758.4,-296.81C749.49,-276.31 727.02,-224.65 715.02,-197.04"/>
<polygon fill="midnightblue" stroke="midnightblue" points="718.18,-195.53 710.98,-187.76 711.76,-198.32 718.18,-195.53"/>
</g>
<!-- Node66&#45;&gt;Node38 -->
<g id="edge51" class="edge">
<title>Node66&#45;&gt;Node38</title>
<path fill="none" stroke="midnightblue" d="M762.66,-296.7C764.19,-268.69 768.99,-181.21 771.13,-142.16"/>
<polygon fill="midnightblue" stroke="midnightblue" points="774.65,-141.89 771.7,-131.71 767.66,-141.51 774.65,-141.89"/>
</g>
<!-- Node67 -->
<g id="node25" class="node">
<title>Node67</title>
<g id="a_node25"><a xlink:href="protocol_2base_8h.html" target="_top" xlink:title=" ">
<polygon fill="white" stroke="red" points="419.18,-168.5 419.18,-187.5 529.18,-187.5 529.18,-168.5 419.18,-168.5"/>
<text text-anchor="middle" x="474.18" y="-175.5" font-family="Helvetica,sans-Serif" font-size="10.00">../../protocol/base.h</text>
</a>
</g>
</g>
<!-- Node66&#45;&gt;Node67 -->
<g id="edge31" class="edge">
<title>Node66&#45;&gt;Node67</title>
<path fill="none" stroke="midnightblue" d="M726.36,-298.03C692.25,-290.11 640.05,-275.83 598.18,-255 577.08,-244.51 575.06,-236.63 555.18,-224 537.13,-212.54 515.99,-200.85 499.83,-192.25"/>
<polygon fill="midnightblue" stroke="midnightblue" points="501.43,-189.14 490.95,-187.58 498.17,-195.34 501.43,-189.14"/>
</g>
<!-- Node68 -->
<g id="node26" class="node">
<title>Node68</title>
<g id="a_node26"><a xlink:href="protocol_2error_8h.html" target="_top" xlink:title=" ">
<polygon fill="white" stroke="red" points="443.18,-112.5 443.18,-131.5 497.18,-131.5 497.18,-112.5 443.18,-112.5"/>
<text text-anchor="middle" x="470.18" y="-119.5" font-family="Helvetica,sans-Serif" font-size="10.00">./error.h</text>
</a>
</g>
</g>
<!-- Node66&#45;&gt;Node68 -->
<g id="edge39" class="edge">
<title>Node66&#45;&gt;Node68</title>
<path fill="none" stroke="midnightblue" d="M726.47,-301.67C683.86,-296.02 611.31,-282.94 555.18,-255 535.66,-245.29 536.26,-234.53 517.18,-224 473.25,-199.75 439.46,-228.75 410.18,-188 396.38,-168.79 420.89,-149.17 442.62,-136.59"/>
<polygon fill="midnightblue" stroke="midnightblue" points="444.55,-139.52 451.64,-131.65 441.19,-133.38 444.55,-139.52"/>
</g>
<!-- Node69 -->
<g id="node27" class="node">
<title>Node69</title>
<g id="a_node27"><a xlink:href="endpoint_8h.html" target="_top" xlink:title=" ">
<polygon fill="white" stroke="red" points="903.68,-168.5 903.68,-187.5 1032.68,-187.5 1032.68,-168.5 903.68,-168.5"/>
<text text-anchor="middle" x="968.18" y="-175.5" font-family="Helvetica,sans-Serif" font-size="10.00">../../protocol/endpoint.h</text>
</a>
</g>
</g>
<!-- Node66&#45;&gt;Node69 -->
<g id="edge38" class="edge">
<title>Node66&#45;&gt;Node69</title>
<path fill="none" stroke="midnightblue" d="M773.09,-296.76C792.91,-281.1 836.48,-247.68 876.18,-224 896.5,-211.88 920.56,-200.2 938.97,-191.78"/>
<polygon fill="midnightblue" stroke="midnightblue" points="940.62,-194.87 948.3,-187.57 937.74,-188.49 940.62,-194.87"/>
</g>
<!-- Node71 -->
<g id="node28" class="node">
<title>Node71</title>
<g id="a_node28"><a xlink:href="protocol_2handler_8h.html" target="_top" xlink:title=" ">
<polygon fill="white" stroke="red" points="1051.18,-168.5 1051.18,-187.5 1119.18,-187.5 1119.18,-168.5 1051.18,-168.5"/>
<text text-anchor="middle" x="1085.18" y="-175.5" font-family="Helvetica,sans-Serif" font-size="10.00">./handler.h</text>
</a>
</g>
</g>
<!-- Node66&#45;&gt;Node71 -->
<g id="edge40" class="edge">
<title>Node66&#45;&gt;Node71</title>
<path fill="none" stroke="midnightblue" d="M797.82,-304.35C869.51,-301.3 1027.59,-290.6 1066.18,-255 1081.92,-240.47 1085.48,-215.05 1085.9,-197.64"/>
<polygon fill="midnightblue" stroke="midnightblue" points="1089.39,-197.52 1085.81,-187.55 1082.4,-197.59 1089.39,-197.52"/>
</g>
<!-- Node82 -->
<g id="node29" class="node">
<title>Node82</title>
<g id="a_node29"><a xlink:href="message_8h.html" target="_top" xlink:title=" ">
<polygon fill="white" stroke="black" points="809.18,-168.5 809.18,-187.5 885.18,-187.5 885.18,-168.5 809.18,-168.5"/>
<text text-anchor="middle" x="847.18" y="-175.5" font-family="Helvetica,sans-Serif" font-size="10.00">./message.h</text>
</a>
</g>
</g>
<!-- Node66&#45;&gt;Node82 -->
<g id="edge41" class="edge">
<title>Node66&#45;&gt;Node82</title>
<path fill="none" stroke="midnightblue" d="M768.02,-296.81C781.91,-276.13 817.12,-223.73 835.54,-196.32"/>
<polygon fill="midnightblue" stroke="midnightblue" points="838.62,-198.01 841.29,-187.76 832.81,-194.1 838.62,-198.01"/>
</g>
<!-- Node84 -->
<g id="node30" class="node">
<title>Node84</title>
<g id="a_node30"><a xlink:href="packet_8h.html" target="_top" xlink:title=" ">
<polygon fill="white" stroke="red" points="993.18,-230 993.18,-249 1057.18,-249 1057.18,-230 993.18,-230"/>
<text text-anchor="middle" x="1025.18" y="-237" font-family="Helvetica,sans-Serif" font-size="10.00">./packet.h</text>
</a>
</g>
</g>
<!-- Node66&#45;&gt;Node84 -->
<g id="edge44" class="edge">
<title>Node66&#45;&gt;Node84</title>
<path fill="none" stroke="midnightblue" d="M797.69,-298.61C841.6,-289.82 918.47,-273.5 983.18,-255 986.12,-254.16 989.17,-253.23 992.2,-252.26"/>
<polygon fill="midnightblue" stroke="midnightblue" points="993.39,-255.55 1001.77,-249.08 991.18,-248.91 993.39,-255.55"/>
</g>
<!-- Node77 -->
<g id="node31" class="node">
<title>Node77</title>
<g id="a_node31"><a xlink:href="traits_8h.html" target="_top" xlink:title=" ">
<polygon fill="white" stroke="red" points="607.68,-230 607.68,-249 664.68,-249 664.68,-230 607.68,-230"/>
<text text-anchor="middle" x="636.18" y="-237" font-family="Helvetica,sans-Serif" font-size="10.00">./traits.h</text>
</a>
</g>
</g>
<!-- Node66&#45;&gt;Node77 -->
<g id="edge45" class="edge">
<title>Node66&#45;&gt;Node77</title>
<path fill="none" stroke="midnightblue" d="M745.45,-296.87C724.08,-285.84 686.88,-266.66 661.9,-253.77"/>
<polygon fill="midnightblue" stroke="midnightblue" points="663.47,-250.64 652.98,-249.17 660.26,-256.86 663.47,-250.64"/>
</g>
<!-- Node92 -->
<g id="node32" class="node">
<title>Node92</title>
<g id="a_node32"><a xlink:href="multiplexer_8h.html" target="_top" xlink:title=" ">
<polygon fill="white" stroke="red" points="885.68,-230 885.68,-249 974.68,-249 974.68,-230 885.68,-230"/>
<text text-anchor="middle" x="930.18" y="-237" font-family="Helvetica,sans-Serif" font-size="10.00">../multiplexer.h</text>
</a>
</g>
</g>
<!-- Node66&#45;&gt;Node92 -->
<g id="edge53" class="edge">
<title>Node66&#45;&gt;Node92</title>
<path fill="none" stroke="midnightblue" d="M784.49,-296.87C813.69,-285.57 865.06,-265.7 898.34,-252.82"/>
<polygon fill="midnightblue" stroke="midnightblue" points="899.98,-255.94 908.04,-249.06 897.45,-249.41 899.98,-255.94"/>
</g>
<!-- Node67&#45;&gt;Node4 -->
<g id="edge35" class="edge">
<title>Node67&#45;&gt;Node4</title>
<path fill="none" stroke="midnightblue" d="M466.49,-168.39C458.43,-159.34 445.38,-144.69 434.18,-132 419.67,-115.57 403.17,-96.74 391.67,-83.59"/>
<polygon fill="midnightblue" stroke="midnightblue" points="394.12,-81.07 384.9,-75.85 388.85,-85.68 394.12,-81.07"/>
</g>
<!-- Node67&#45;&gt;Node11 -->
<g id="edge37" class="edge">
<title>Node67&#45;&gt;Node11</title>
<path fill="none" stroke="midnightblue" d="M483.91,-168.37C504.82,-149.81 554.31,-105.91 580.78,-82.44"/>
<polygon fill="midnightblue" stroke="midnightblue" points="583.33,-84.85 588.49,-75.59 578.69,-79.61 583.33,-84.85"/>
</g>
<!-- Node67&#45;&gt;Node60 -->
<g id="edge36" class="edge">
<title>Node67&#45;&gt;Node60</title>
<path fill="none" stroke="midnightblue" d="M450.88,-168.44C426.08,-159.33 386.67,-144.85 359.01,-134.69"/>
<polygon fill="midnightblue" stroke="midnightblue" points="359.99,-131.33 349.4,-131.16 357.58,-137.9 359.99,-131.33"/>
</g>
<!-- Node67&#45;&gt;Node68 -->
<g id="edge32" class="edge">
<title>Node67&#45;&gt;Node68</title>
<path fill="none" stroke="midnightblue" d="M473.52,-168.08C472.99,-161.01 472.24,-150.86 471.58,-141.99"/>
<polygon fill="midnightblue" stroke="midnightblue" points="475.06,-141.47 470.83,-131.75 468.07,-141.98 475.06,-141.47"/>
</g>
<!-- Node68&#45;&gt;Node23 -->
<g id="edge33" class="edge">
<title>Node68&#45;&gt;Node23</title>
<path fill="none" stroke="midnightblue" d="M442.94,-116.49C390.14,-107.74 272.83,-88.31 201.93,-76.57"/>
<polygon fill="midnightblue" stroke="midnightblue" points="202.26,-73.07 191.82,-74.89 201.11,-79.98 202.26,-73.07"/>
</g>
<!-- Node68&#45;&gt;Node15 -->
<g id="edge34" class="edge">
<title>Node68&#45;&gt;Node15</title>
<path fill="none" stroke="midnightblue" d="M470.18,-112.37C470.18,-94.62 470.18,-53.67 470.18,-29.6"/>
<polygon fill="midnightblue" stroke="midnightblue" points="473.68,-29.59 470.18,-19.59 466.68,-29.59 473.68,-29.59"/>
</g>
<!-- Node82&#45;&gt;Node13 -->
<g id="edge42" class="edge">
<title>Node82&#45;&gt;Node13</title>
<path fill="none" stroke="midnightblue" d="M848.66,-168.08C849.86,-160.93 851.57,-150.64 853.06,-141.69"/>
<polygon fill="midnightblue" stroke="midnightblue" points="856.53,-142.19 854.72,-131.75 849.62,-141.04 856.53,-142.19"/>
</g>
<!-- Node82&#45;&gt;Node38 -->
<g id="edge43" class="edge">
<title>Node82&#45;&gt;Node38</title>
<path fill="none" stroke="midnightblue" d="M835.13,-168.32C823.71,-160.11 806.35,-147.6 792.74,-137.81"/>
<polygon fill="midnightblue" stroke="midnightblue" points="794.61,-134.84 784.45,-131.83 790.52,-140.52 794.61,-134.84"/>
</g>
<!-- Node77&#45;&gt;Node11 -->
<g id="edge49" class="edge">
<title>Node77&#45;&gt;Node11</title>
<path fill="none" stroke="midnightblue" d="M634.24,-229.76C628.32,-203.04 610.37,-122.02 602.25,-85.36"/>
<polygon fill="midnightblue" stroke="midnightblue" points="605.65,-84.53 600.07,-75.52 598.81,-86.04 605.65,-84.53"/>
</g>
<!-- Node77&#45;&gt;Node67 -->
<g id="edge46" class="edge">
<title>Node77&#45;&gt;Node67</title>
<path fill="none" stroke="midnightblue" d="M612.97,-229.98C585.18,-219.77 538.45,-202.61 506.98,-191.05"/>
<polygon fill="midnightblue" stroke="midnightblue" points="507.94,-187.67 497.35,-187.51 505.53,-194.24 507.94,-187.67"/>
</g>
<!-- Node77&#45;&gt;Node68 -->
<g id="edge47" class="edge">
<title>Node77&#45;&gt;Node68</title>
<path fill="none" stroke="midnightblue" d="M624.52,-229.89C606.26,-216.45 569.74,-189.79 538.18,-168 522.94,-157.48 505.52,-145.96 492.12,-137.21"/>
<polygon fill="midnightblue" stroke="midnightblue" points="493.86,-134.17 483.57,-131.64 490.04,-140.03 493.86,-134.17"/>
</g>
<!-- Node77&#45;&gt;Node82 -->
<g id="edge48" class="edge">
<title>Node77&#45;&gt;Node82</title>
<path fill="none" stroke="midnightblue" d="M665.07,-230.35C701.88,-219.97 765.68,-201.98 807.15,-190.29"/>
<polygon fill="midnightblue" stroke="midnightblue" points="808.25,-193.61 816.93,-187.53 806.35,-186.88 808.25,-193.61"/>
</g>
<!-- Node92&#45;&gt;Node69 -->
<g id="edge54" class="edge">
<title>Node92&#45;&gt;Node69</title>
<path fill="none" stroke="midnightblue" d="M935.62,-229.98C941.27,-221.14 950.24,-207.09 957.34,-195.98"/>
<polygon fill="midnightblue" stroke="midnightblue" points="960.31,-197.82 962.74,-187.51 954.41,-194.05 960.31,-197.82"/>
</g>
<!-- Node92&#45;&gt;Node71 -->
<g id="edge55" class="edge">
<title>Node92&#45;&gt;Node71</title>
<path fill="none" stroke="midnightblue" d="M952.39,-229.98C978.86,-219.81 1023.29,-202.76 1053.4,-191.2"/>
<polygon fill="midnightblue" stroke="midnightblue" points="1054.93,-194.36 1063.01,-187.51 1052.42,-187.83 1054.93,-194.36"/>
</g>
</g>
</svg>
