<?xml version="1.0" encoding="UTF-8" standalone="no"?>
<!DOCTYPE svg PUBLIC "-//W3C//DTD SVG 1.1//EN"
 "http://www.w3.org/Graphics/SVG/1.1/DTD/svg11.dtd">
<!-- Generated by graphviz version 2.43.0 (0)
 -->
<!-- Title: include/emlabcpp/experimental/testing/collect.h Pages: 1 -->
<svg width="1944pt" height="430pt"
 viewBox="0.00 0.00 1943.69 430.00" xmlns="http://www.w3.org/2000/svg" xmlns:xlink="http://www.w3.org/1999/xlink">
<g id="graph0" class="graph" transform="scale(1 1) rotate(0) translate(4 426)">
<title>include/emlabcpp/experimental/testing/collect.h</title>
<polygon fill="white" stroke="transparent" points="-4,4 -4,-426 1939.69,-426 1939.69,4 -4,4"/>
<!-- Node1 -->
<g id="node1" class="node">
<title>Node1</title>
<g id="a_node1"><a xlink:title=" ">
<polygon fill="#bfbfbf" stroke="black" points="1238.69,-391.5 1238.69,-421.5 1409.69,-421.5 1409.69,-391.5 1238.69,-391.5"/>
<text text-anchor="start" x="1246.69" y="-409.5" font-family="Helvetica,sans-Serif" font-size="10.00">include/emlabcpp/experimental</text>
<text text-anchor="middle" x="1324.19" y="-398.5" font-family="Helvetica,sans-Serif" font-size="10.00">/testing/collect.h</text>
</a>
</g>
</g>
<!-- Node2 -->
<g id="node2" class="node">
<title>Node2</title>
<g id="a_node2"><a xlink:href="request__adapter_8h.html" target="_top" xlink:title=" ">
<polygon fill="white" stroke="black" points="378.69,-313.5 378.69,-354.5 515.69,-354.5 515.69,-313.5 378.69,-313.5"/>
<text text-anchor="start" x="386.69" y="-342.5" font-family="Helvetica,sans-Serif" font-size="10.00">emlabcpp/experimental</text>
<text text-anchor="start" x="386.69" y="-331.5" font-family="Helvetica,sans-Serif" font-size="10.00">/contiguous_tree/request</text>
<text text-anchor="middle" x="447.19" y="-320.5" font-family="Helvetica,sans-Serif" font-size="10.00">_adapter.h</text>
</a>
</g>
</g>
<!-- Node1&#45;&gt;Node2 -->
<g id="edge1" class="edge">
<title>Node1&#45;&gt;Node2</title>
<path fill="none" stroke="midnightblue" d="M1238.53,-400.35C1106.95,-392.21 847.23,-375.19 627.19,-355 593.99,-351.95 557.42,-348 525.96,-344.41"/>
<polygon fill="midnightblue" stroke="midnightblue" points="526.27,-340.93 515.93,-343.26 525.47,-347.88 526.27,-340.93"/>
</g>
<!-- Node44 -->
<g id="node4" class="node">
<title>Node44</title>
<g id="a_node4"><a xlink:href="function__view_8h.html" target="_top" xlink:title=" ">
<polygon fill="white" stroke="black" points="21.69,-319 21.69,-349 154.69,-349 154.69,-319 21.69,-319"/>
<text text-anchor="start" x="29.69" y="-337" font-family="Helvetica,sans-Serif" font-size="10.00">emlabcpp/experimental</text>
<text text-anchor="middle" x="88.19" y="-326" font-family="Helvetica,sans-Serif" font-size="10.00">/function_view.h</text>
</a>
</g>
</g>
<!-- Node1&#45;&gt;Node44 -->
<g id="edge3" class="edge">
<title>Node1&#45;&gt;Node44</title>
<path fill="none" stroke="midnightblue" d="M1238.55,-401.5C1071.37,-393.56 689.84,-374.89 369.19,-355 300.14,-350.72 221.61,-345.06 165.15,-340.86"/>
<polygon fill="midnightblue" stroke="midnightblue" points="165.11,-337.34 154.88,-340.09 164.59,-344.33 165.11,-337.34"/>
</g>
<!-- Node45 -->
<g id="node7" class="node">
<title>Node45</title>
<g id="a_node7"><a xlink:href="experimental_2testing_2convert_8h.html" target="_top" xlink:title=" ">
<polygon fill="white" stroke="black" points="1352.69,-319 1352.69,-349 1485.69,-349 1485.69,-319 1352.69,-319"/>
<text text-anchor="start" x="1360.69" y="-337" font-family="Helvetica,sans-Serif" font-size="10.00">emlabcpp/experimental</text>
<text text-anchor="middle" x="1419.19" y="-326" font-family="Helvetica,sans-Serif" font-size="10.00">/testing/convert.h</text>
</a>
</g>
</g>
<!-- Node1&#45;&gt;Node45 -->
<g id="edge6" class="edge">
<title>Node1&#45;&gt;Node45</title>
<path fill="none" stroke="midnightblue" d="M1343.41,-391.23C1357.41,-380.85 1376.56,-366.63 1392.11,-355.1"/>
<polygon fill="midnightblue" stroke="midnightblue" points="1394.37,-357.77 1400.32,-349 1390.2,-352.15 1394.37,-357.77"/>
</g>
<!-- Node67 -->
<g id="node13" class="node">
<title>Node67</title>
<g id="a_node13"><a xlink:href="static__function_8h.html" target="_top" xlink:title=" ">
<polygon fill="white" stroke="red" points="1250.69,-179.5 1250.69,-198.5 1399.69,-198.5 1399.69,-179.5 1250.69,-179.5"/>
<text text-anchor="middle" x="1325.19" y="-186.5" font-family="Helvetica,sans-Serif" font-size="10.00">emlabcpp/static_function.h</text>
</a>
</g>
</g>
<!-- Node1&#45;&gt;Node67 -->
<g id="edge51" class="edge">
<title>Node1&#45;&gt;Node67</title>
<path fill="none" stroke="midnightblue" d="M1324.25,-391.36C1324.43,-353.79 1324.9,-251.45 1325.1,-208.93"/>
<polygon fill="midnightblue" stroke="midnightblue" points="1328.6,-208.85 1325.15,-198.83 1321.6,-208.82 1328.6,-208.85"/>
</g>
<!-- Node69 -->
<g id="node14" class="node">
<title>Node69</title>
<g id="a_node14"><a xlink:href="coroutine_8h.html" target="_top" xlink:title=" ">
<polygon fill="white" stroke="black" points="1560.69,-319 1560.69,-349 1693.69,-349 1693.69,-319 1560.69,-319"/>
<text text-anchor="start" x="1568.69" y="-337" font-family="Helvetica,sans-Serif" font-size="10.00">emlabcpp/experimental</text>
<text text-anchor="middle" x="1627.19" y="-326" font-family="Helvetica,sans-Serif" font-size="10.00">/testing/coroutine.h</text>
</a>
</g>
</g>
<!-- Node1&#45;&gt;Node69 -->
<g id="edge15" class="edge">
<title>Node1&#45;&gt;Node69</title>
<path fill="none" stroke="midnightblue" d="M1384.41,-391.49C1434.11,-379.92 1504.69,-363.5 1556.95,-351.34"/>
<polygon fill="midnightblue" stroke="midnightblue" points="1557.87,-354.72 1566.82,-349.05 1556.29,-347.9 1557.87,-354.72"/>
</g>
<!-- Node74 -->
<g id="node19" class="node">
<title>Node74</title>
<g id="a_node19"><a xlink:href="experimental_2testing_2protocol_8h.html" target="_top" xlink:title=" ">
<polygon fill="white" stroke="black" points="636.69,-319 636.69,-349 769.69,-349 769.69,-319 636.69,-319"/>
<text text-anchor="start" x="644.69" y="-337" font-family="Helvetica,sans-Serif" font-size="10.00">emlabcpp/experimental</text>
<text text-anchor="middle" x="703.19" y="-326" font-family="Helvetica,sans-Serif" font-size="10.00">/testing/protocol.h</text>
</a>
</g>
</g>
<!-- Node1&#45;&gt;Node74 -->
<g id="edge21" class="edge">
<title>Node1&#45;&gt;Node74</title>
<path fill="none" stroke="midnightblue" d="M1238.49,-395.77C1117.05,-381.98 896.73,-356.97 780.21,-343.74"/>
<polygon fill="midnightblue" stroke="midnightblue" points="780.28,-340.23 769.95,-342.58 779.49,-347.19 780.28,-340.23"/>
</g>
<!-- Node99 -->
<g id="node29" class="node">
<title>Node99</title>
<g id="a_node29"><a xlink:title=" ">
<polygon fill="white" stroke="#bfbfbf" points="1711.69,-324.5 1711.69,-343.5 1804.69,-343.5 1804.69,-324.5 1711.69,-324.5"/>
<text text-anchor="middle" x="1758.19" y="-331.5" font-family="Helvetica,sans-Serif" font-size="10.00">source_location</text>
</a>
</g>
</g>
<!-- Node1&#45;&gt;Node99 -->
<g id="edge52" class="edge">
<title>Node1&#45;&gt;Node99</title>
<path fill="none" stroke="midnightblue" d="M1409.96,-399.21C1487.2,-392.34 1603.42,-378.95 1702.19,-355 1710.68,-352.94 1719.67,-350.06 1727.91,-347.12"/>
<polygon fill="midnightblue" stroke="midnightblue" points="1729.34,-350.32 1737.5,-343.57 1726.91,-343.76 1729.34,-350.32"/>
</g>
<!-- Node3 -->
<g id="node3" class="node">
<title>Node3</title>
<g id="a_node3"><a xlink:href="experimental_2contiguous__tree_2base_8h.html" target="_top" xlink:title=" ">
<polygon fill="white" stroke="red" points="16.69,-241 16.69,-271 149.69,-271 149.69,-241 16.69,-241"/>
<text text-anchor="start" x="24.69" y="-259" font-family="Helvetica,sans-Serif" font-size="10.00">emlabcpp/experimental</text>
<text text-anchor="middle" x="83.19" y="-248" font-family="Helvetica,sans-Serif" font-size="10.00">/contiguous_tree/base.h</text>
</a>
</g>
</g>
<!-- Node2&#45;&gt;Node3 -->
<g id="edge2" class="edge">
<title>Node2&#45;&gt;Node3</title>
<path fill="none" stroke="midnightblue" d="M378.67,-320.37C321.24,-309.56 237.16,-293.22 164.19,-277 159.11,-275.87 153.85,-274.66 148.58,-273.42"/>
<polygon fill="midnightblue" stroke="midnightblue" points="148.98,-269.92 138.44,-271.01 147.36,-276.73 148.98,-269.92"/>
</g>
<!-- Node6 -->
<g id="node5" class="node">
<title>Node6</title>
<g id="a_node5"><a xlink:href="concepts_8h.html" target="_top" xlink:title=" ">
<polygon fill="white" stroke="red" points="188.19,-123.5 188.19,-142.5 308.19,-142.5 308.19,-123.5 188.19,-123.5"/>
<text text-anchor="middle" x="248.19" y="-130.5" font-family="Helvetica,sans-Serif" font-size="10.00">emlabcpp/concepts.h</text>
</a>
</g>
</g>
<!-- Node44&#45;&gt;Node6 -->
<g id="edge4" class="edge">
<title>Node44&#45;&gt;Node6</title>
<path fill="none" stroke="midnightblue" d="M54.06,-318.88C36.66,-309.72 17.11,-295.93 7.19,-277 -1.48,-260.47 -3.05,-250.61 7.19,-235 44.57,-178.02 121.08,-153.13 177.91,-142.29"/>
<polygon fill="midnightblue" stroke="midnightblue" points="178.7,-145.71 187.92,-140.49 177.46,-138.82 178.7,-145.71"/>
</g>
<!-- Node16 -->
<g id="node6" class="node">
<title>Node16</title>
<g id="a_node6"><a xlink:title=" ">
<polygon fill="white" stroke="#bfbfbf" points="310.69,-62 310.69,-81 361.69,-81 361.69,-62 310.69,-62"/>
<text text-anchor="middle" x="336.19" y="-69" font-family="Helvetica,sans-Serif" font-size="10.00">variant</text>
</a>
</g>
</g>
<!-- Node6&#45;&gt;Node16 -->
<g id="edge5" class="edge">
<title>Node6&#45;&gt;Node16</title>
<path fill="none" stroke="midnightblue" d="M260.8,-123.48C274.91,-113.93 298.02,-98.31 314.94,-86.87"/>
<polygon fill="midnightblue" stroke="midnightblue" points="317.28,-89.51 323.6,-81.01 313.36,-83.71 317.28,-89.51"/>
</g>
<!-- Node46 -->
<g id="node8" class="node">
<title>Node46</title>
<g id="a_node8"><a xlink:href="string__buffer_8h.html" target="_top" xlink:title=" ">
<polygon fill="white" stroke="red" points="1156.69,-56.5 1156.69,-86.5 1289.69,-86.5 1289.69,-56.5 1156.69,-56.5"/>
<text text-anchor="start" x="1164.69" y="-74.5" font-family="Helvetica,sans-Serif" font-size="10.00">emlabcpp/experimental</text>
<text text-anchor="middle" x="1223.19" y="-63.5" font-family="Helvetica,sans-Serif" font-size="10.00">/string_buffer.h</text>
</a>
</g>
</g>
<!-- Node45&#45;&gt;Node46 -->
<g id="edge7" class="edge">
<title>Node45&#45;&gt;Node46</title>
<path fill="none" stroke="midnightblue" d="M1422.26,-318.92C1427.72,-290.14 1436.09,-223.51 1408.19,-179 1379.92,-133.9 1325.13,-105.88 1282.48,-89.97"/>
<polygon fill="midnightblue" stroke="midnightblue" points="1283.63,-86.66 1273.03,-86.57 1281.26,-93.25 1283.63,-86.66"/>
</g>
<!-- Node50 -->
<g id="node10" class="node">
<title>Node50</title>
<g id="a_node10"><a xlink:href="experimental_2testing_2base_8h.html" target="_top" xlink:title=" ">
<polygon fill="white" stroke="red" points="1119.69,-241 1119.69,-271 1252.69,-271 1252.69,-241 1119.69,-241"/>
<text text-anchor="start" x="1127.69" y="-259" font-family="Helvetica,sans-Serif" font-size="10.00">emlabcpp/experimental</text>
<text text-anchor="middle" x="1186.19" y="-248" font-family="Helvetica,sans-Serif" font-size="10.00">/testing/base.h</text>
</a>
</g>
</g>
<!-- Node45&#45;&gt;Node50 -->
<g id="edge9" class="edge">
<title>Node45&#45;&gt;Node50</title>
<path fill="none" stroke="midnightblue" d="M1376.18,-318.97C1337.47,-306.35 1280.46,-287.75 1239,-274.22"/>
<polygon fill="midnightblue" stroke="midnightblue" points="1239.93,-270.85 1229.34,-271.07 1237.76,-277.5 1239.93,-270.85"/>
</g>
<!-- Node8 -->
<g id="node9" class="node">
<title>Node8</title>
<g id="a_node9"><a xlink:title=" ">
<polygon fill="white" stroke="#bfbfbf" points="1202.19,-0.5 1202.19,-19.5 1244.19,-19.5 1244.19,-0.5 1202.19,-0.5"/>
<text text-anchor="middle" x="1223.19" y="-7.5" font-family="Helvetica,sans-Serif" font-size="10.00">array</text>
</a>
</g>
</g>
<!-- Node46&#45;&gt;Node8 -->
<g id="edge8" class="edge">
<title>Node46&#45;&gt;Node8</title>
<path fill="none" stroke="midnightblue" d="M1223.19,-56.4C1223.19,-48.47 1223.19,-38.46 1223.19,-29.86"/>
<polygon fill="midnightblue" stroke="midnightblue" points="1226.69,-29.66 1223.19,-19.66 1219.69,-29.66 1226.69,-29.66"/>
</g>
<!-- Node50&#45;&gt;Node16 -->
<g id="edge14" class="edge">
<title>Node50&#45;&gt;Node16</title>
<path fill="none" stroke="midnightblue" d="M1186.23,-240.83C1185.51,-224.03 1181.82,-196.13 1166.19,-179 1117.1,-125.2 1083.39,-138.3 1012.19,-123 888.21,-96.36 493.95,-78.79 372.29,-73.89"/>
<polygon fill="midnightblue" stroke="midnightblue" points="372.17,-70.38 362.04,-73.48 371.89,-77.38 372.17,-70.38"/>
</g>
<!-- Node50&#45;&gt;Node46 -->
<g id="edge12" class="edge">
<title>Node50&#45;&gt;Node46</title>
<path fill="none" stroke="midnightblue" d="M1189.66,-240.76C1192.38,-229.47 1196.18,-213.26 1199.19,-199 1206.69,-163.4 1214.36,-121.94 1218.94,-96.46"/>
<polygon fill="midnightblue" stroke="midnightblue" points="1222.39,-97.04 1220.71,-86.58 1215.5,-95.8 1222.39,-97.04"/>
</g>
<!-- Node51 -->
<g id="node11" class="node">
<title>Node51</title>
<g id="a_node11"><a xlink:href="algorithm_8h.html" target="_top" xlink:title=" ">
<polygon fill="white" stroke="red" points="1033.19,-179.5 1033.19,-198.5 1157.19,-198.5 1157.19,-179.5 1033.19,-179.5"/>
<text text-anchor="middle" x="1095.19" y="-186.5" font-family="Helvetica,sans-Serif" font-size="10.00">emlabcpp/algorithm.h</text>
</a>
</g>
</g>
<!-- Node50&#45;&gt;Node51 -->
<g id="edge10" class="edge">
<title>Node50&#45;&gt;Node51</title>
<path fill="none" stroke="midnightblue" d="M1166.44,-240.9C1151.32,-230.1 1130.55,-215.26 1115.33,-204.39"/>
<polygon fill="midnightblue" stroke="midnightblue" points="1117.27,-201.47 1107.1,-198.51 1113.2,-207.17 1117.27,-201.47"/>
</g>
<!-- Node50&#45;&gt;Node67 -->
<g id="edge13" class="edge">
<title>Node50&#45;&gt;Node67</title>
<path fill="none" stroke="midnightblue" d="M1216.35,-240.9C1240.63,-229.54 1274.46,-213.72 1297.94,-202.74"/>
<polygon fill="midnightblue" stroke="midnightblue" points="1299.42,-205.91 1307,-198.51 1296.46,-199.57 1299.42,-205.91"/>
</g>
<!-- Node30 -->
<g id="node12" class="node">
<title>Node30</title>
<g id="a_node12"><a xlink:href="view_8h.html" target="_top" xlink:title=" ">
<polygon fill="white" stroke="red" points="904.69,-123.5 904.69,-142.5 1003.69,-142.5 1003.69,-123.5 904.69,-123.5"/>
<text text-anchor="middle" x="954.19" y="-130.5" font-family="Helvetica,sans-Serif" font-size="10.00">emlabcpp/view.h</text>
</a>
</g>
</g>
<!-- Node51&#45;&gt;Node30 -->
<g id="edge11" class="edge">
<title>Node51&#45;&gt;Node30</title>
<path fill="none" stroke="midnightblue" d="M1072.85,-179.44C1049.44,-170.48 1012.45,-156.31 986,-146.18"/>
<polygon fill="midnightblue" stroke="midnightblue" points="987.02,-142.82 976.43,-142.52 984.51,-149.36 987.02,-142.82"/>
</g>
<!-- Node70 -->
<g id="node15" class="node">
<title>Node70</title>
<g id="a_node15"><a xlink:href="data__promise_8h.html" target="_top" xlink:title=" ">
<polygon fill="white" stroke="red" points="1802.69,-241 1802.69,-271 1935.69,-271 1935.69,-241 1802.69,-241"/>
<text text-anchor="start" x="1810.69" y="-259" font-family="Helvetica,sans-Serif" font-size="10.00">emlabcpp/experimental</text>
<text text-anchor="middle" x="1869.19" y="-248" font-family="Helvetica,sans-Serif" font-size="10.00">/coro/data_promise.h</text>
</a>
</g>
</g>
<!-- Node69&#45;&gt;Node70 -->
<g id="edge16" class="edge">
<title>Node69&#45;&gt;Node70</title>
<path fill="none" stroke="midnightblue" d="M1671.86,-318.97C1712.15,-306.32 1771.52,-287.67 1814.61,-274.14"/>
<polygon fill="midnightblue" stroke="midnightblue" points="1815.88,-277.41 1824.37,-271.07 1813.78,-270.73 1815.88,-277.41"/>
</g>
<!-- Node71 -->
<g id="node16" class="node">
<title>Node71</title>
<g id="a_node16"><a xlink:href="memory__promise_8h.html" target="_top" xlink:title=" ">
<polygon fill="white" stroke="red" points="1455.69,-241 1455.69,-271 1594.69,-271 1594.69,-241 1455.69,-241"/>
<text text-anchor="start" x="1463.69" y="-259" font-family="Helvetica,sans-Serif" font-size="10.00">emlabcpp/experimental</text>
<text text-anchor="middle" x="1525.19" y="-248" font-family="Helvetica,sans-Serif" font-size="10.00">/coro/memory_promise.h</text>
</a>
</g>
</g>
<!-- Node69&#45;&gt;Node71 -->
<g id="edge17" class="edge">
<title>Node69&#45;&gt;Node71</title>
<path fill="none" stroke="midnightblue" d="M1608,-318.7C1592.33,-307.03 1569.99,-290.38 1552.46,-277.32"/>
<polygon fill="midnightblue" stroke="midnightblue" points="1554.4,-274.4 1544.29,-271.23 1550.22,-280.01 1554.4,-274.4"/>
</g>
<!-- Node72 -->
<g id="node17" class="node">
<title>Node72</title>
<g id="a_node17"><a xlink:href="owning__coroutine__handle_8h.html" target="_top" xlink:title=" ">
<polygon fill="white" stroke="red" points="1612.69,-235.5 1612.69,-276.5 1745.69,-276.5 1745.69,-235.5 1612.69,-235.5"/>
<text text-anchor="start" x="1620.69" y="-264.5" font-family="Helvetica,sans-Serif" font-size="10.00">emlabcpp/experimental</text>
<text text-anchor="start" x="1620.69" y="-253.5" font-family="Helvetica,sans-Serif" font-size="10.00">/coro/owning_coroutine</text>
<text text-anchor="middle" x="1679.19" y="-242.5" font-family="Helvetica,sans-Serif" font-size="10.00">_handle.h</text>
</a>
</g>
</g>
<!-- Node69&#45;&gt;Node72 -->
<g id="edge18" class="edge">
<title>Node69&#45;&gt;Node72</title>
<path fill="none" stroke="midnightblue" d="M1636.97,-318.7C1643.44,-309.25 1652.14,-296.53 1659.96,-285.1"/>
<polygon fill="midnightblue" stroke="midnightblue" points="1662.97,-286.91 1665.72,-276.68 1657.19,-282.96 1662.97,-286.91"/>
</g>
<!-- Node73 -->
<g id="node18" class="node">
<title>Node73</title>
<g id="a_node18"><a xlink:title=" ">
<polygon fill="white" stroke="#bfbfbf" points="1695.19,-179.5 1695.19,-198.5 1757.19,-198.5 1757.19,-179.5 1695.19,-179.5"/>
<text text-anchor="middle" x="1726.19" y="-186.5" font-family="Helvetica,sans-Serif" font-size="10.00">coroutine</text>
</a>
</g>
</g>
<!-- Node69&#45;&gt;Node73 -->
<g id="edge20" class="edge">
<title>Node69&#45;&gt;Node73</title>
<path fill="none" stroke="midnightblue" d="M1672.75,-318.96C1705.5,-307.84 1745.53,-291.77 1755.19,-277 1769.57,-255.01 1753.36,-225.23 1740.03,-206.83"/>
<polygon fill="midnightblue" stroke="midnightblue" points="1742.72,-204.6 1733.86,-198.8 1737.17,-208.86 1742.72,-204.6"/>
</g>
<!-- Node72&#45;&gt;Node73 -->
<g id="edge19" class="edge">
<title>Node72&#45;&gt;Node73</title>
<path fill="none" stroke="midnightblue" d="M1693.29,-235.5C1699.87,-226.39 1707.63,-215.66 1713.96,-206.91"/>
<polygon fill="midnightblue" stroke="midnightblue" points="1716.91,-208.81 1719.93,-198.65 1711.24,-204.71 1716.91,-208.81"/>
</g>
<!-- Node74&#45;&gt;Node3 -->
<g id="edge23" class="edge">
<title>Node74&#45;&gt;Node3</title>
<path fill="none" stroke="midnightblue" d="M636.48,-325.36C602.82,-321.55 561.35,-316.93 524.19,-313 364.28,-296.07 322.65,-304.34 164.19,-277 158.01,-275.93 151.6,-274.65 145.22,-273.27"/>
<polygon fill="midnightblue" stroke="midnightblue" points="145.77,-269.8 135.25,-271.01 144.23,-276.63 145.77,-269.8"/>
</g>
<!-- Node74&#45;&gt;Node16 -->
<g id="edge50" class="edge">
<title>Node74&#45;&gt;Node16</title>
<path fill="none" stroke="midnightblue" d="M685.98,-318.91C672.95,-307.96 654.85,-292.14 640.19,-277 600.28,-235.79 601.81,-213.78 556.19,-179 497.4,-134.18 416.74,-101.04 371.2,-84.44"/>
<polygon fill="midnightblue" stroke="midnightblue" points="372.36,-81.14 361.77,-81.05 370,-87.73 372.36,-81.14"/>
</g>
<!-- Node74&#45;&gt;Node8 -->
<g id="edge48" class="edge">
<title>Node74&#45;&gt;Node8</title>
<path fill="none" stroke="midnightblue" d="M769.71,-330.97C903.6,-326.19 1200.97,-311.89 1296.19,-277 1353.14,-256.13 1380.11,-252.77 1408.19,-199 1450.14,-118.67 1316.66,-50.18 1253.92,-23.24"/>
<polygon fill="midnightblue" stroke="midnightblue" points="1255.07,-19.92 1244.5,-19.27 1252.36,-26.38 1255.07,-19.92"/>
</g>
<!-- Node74&#45;&gt;Node50 -->
<g id="edge27" class="edge">
<title>Node74&#45;&gt;Node50</title>
<path fill="none" stroke="midnightblue" d="M769.74,-324.06C845.53,-313.66 973.01,-295.55 1082.19,-277 1091.04,-275.5 1100.3,-273.84 1109.49,-272.14"/>
<polygon fill="midnightblue" stroke="midnightblue" points="1110.22,-275.56 1119.41,-270.28 1108.94,-268.68 1110.22,-275.56"/>
</g>
<!-- Node74&#45;&gt;Node51 -->
<g id="edge22" class="edge">
<title>Node74&#45;&gt;Node51</title>
<path fill="none" stroke="midnightblue" d="M769.8,-326.44C849.53,-317.69 977.53,-300.53 1019.19,-277 1048.75,-260.3 1072.45,-227.64 1085.11,-207.43"/>
<polygon fill="midnightblue" stroke="midnightblue" points="1088.25,-209.01 1090.42,-198.64 1082.26,-205.39 1088.25,-209.01"/>
</g>
<!-- Node74&#45;&gt;Node30 -->
<g id="edge47" class="edge">
<title>Node74&#45;&gt;Node30</title>
<path fill="none" stroke="midnightblue" d="M692.79,-318.83C668.7,-285.16 612.54,-201.52 632.19,-179 669.15,-136.63 821.54,-150 894.46,-142.83"/>
<polygon fill="midnightblue" stroke="midnightblue" points="895.11,-146.28 904.62,-141.62 894.28,-139.33 895.11,-146.28"/>
</g>
<!-- Node74&#45;&gt;Node67 -->
<g id="edge46" class="edge">
<title>Node74&#45;&gt;Node67</title>
<path fill="none" stroke="midnightblue" d="M770.09,-332.98C899.57,-331.86 1178.94,-323.91 1261.19,-277 1288.78,-261.27 1307.88,-228.27 1317.64,-207.74"/>
<polygon fill="midnightblue" stroke="midnightblue" points="1320.87,-209.1 1321.79,-198.54 1314.49,-206.22 1320.87,-209.1"/>
</g>
<!-- Node75 -->
<g id="node20" class="node">
<title>Node75</title>
<g id="a_node20"><a xlink:href="multiplexer_8h.html" target="_top" xlink:title=" ">
<polygon fill="white" stroke="red" points="731.69,-241 731.69,-271 864.69,-271 864.69,-241 731.69,-241"/>
<text text-anchor="start" x="739.69" y="-259" font-family="Helvetica,sans-Serif" font-size="10.00">emlabcpp/experimental</text>
<text text-anchor="middle" x="798.19" y="-248" font-family="Helvetica,sans-Serif" font-size="10.00">/multiplexer.h</text>
</a>
</g>
</g>
<!-- Node74&#45;&gt;Node75 -->
<g id="edge24" class="edge">
<title>Node74&#45;&gt;Node75</title>
<path fill="none" stroke="midnightblue" d="M721.06,-318.7C735.52,-307.13 756.09,-290.68 772.35,-277.67"/>
<polygon fill="midnightblue" stroke="midnightblue" points="774.78,-280.21 780.4,-271.23 770.4,-274.74 774.78,-280.21"/>
</g>
<!-- Node77 -->
<g id="node21" class="node">
<title>Node77</title>
<g id="a_node21"><a xlink:href="endpoint_8h.html" target="_top" xlink:title=" ">
<polygon fill="white" stroke="red" points="815.19,-179.5 815.19,-198.5 977.19,-198.5 977.19,-179.5 815.19,-179.5"/>
<text text-anchor="middle" x="896.19" y="-186.5" font-family="Helvetica,sans-Serif" font-size="10.00">emlabcpp/protocol/endpoint.h</text>
</a>
</g>
</g>
<!-- Node74&#45;&gt;Node77 -->
<g id="edge34" class="edge">
<title>Node74&#45;&gt;Node77</title>
<path fill="none" stroke="midnightblue" d="M769.83,-326.31C805.07,-319.4 846.45,-305.39 873.19,-277 890.65,-258.46 895.2,-228.26 896.2,-208.76"/>
<polygon fill="midnightblue" stroke="midnightblue" points="899.7,-208.77 896.45,-198.69 892.7,-208.6 899.7,-208.77"/>
</g>
<!-- Node79 -->
<g id="node22" class="node">
<title>Node79</title>
<g id="a_node22"><a xlink:href="protocol_2handler_8h.html" target="_top" xlink:title=" ">
<polygon fill="white" stroke="red" points="641.69,-179.5 641.69,-198.5 796.69,-198.5 796.69,-179.5 641.69,-179.5"/>
<text text-anchor="middle" x="719.19" y="-186.5" font-family="Helvetica,sans-Serif" font-size="10.00">emlabcpp/protocol/handler.h</text>
</a>
</g>
</g>
<!-- Node74&#45;&gt;Node79 -->
<g id="edge36" class="edge">
<title>Node74&#45;&gt;Node79</title>
<path fill="none" stroke="midnightblue" d="M704.78,-318.77C707.68,-292.82 713.84,-237.85 717.08,-208.84"/>
<polygon fill="midnightblue" stroke="midnightblue" points="720.57,-209.11 718.21,-198.78 713.62,-208.33 720.57,-209.11"/>
</g>
<!-- Node85 -->
<g id="node23" class="node">
<title>Node85</title>
<g id="a_node23"><a xlink:href="protocol_2base_8h.html" target="_top" xlink:title=" ">
<polygon fill="white" stroke="red" points="145.69,-179.5 145.69,-198.5 288.69,-198.5 288.69,-179.5 145.69,-179.5"/>
<text text-anchor="middle" x="217.19" y="-186.5" font-family="Helvetica,sans-Serif" font-size="10.00">emlabcpp/protocol/base.h</text>
</a>
</g>
</g>
<!-- Node74&#45;&gt;Node85 -->
<g id="edge28" class="edge">
<title>Node74&#45;&gt;Node85</title>
<path fill="none" stroke="midnightblue" d="M636.27,-325.5C507.79,-311.02 238.86,-280.37 235.19,-277 216.49,-259.83 214.4,-228.77 215.28,-208.78"/>
<polygon fill="midnightblue" stroke="midnightblue" points="218.78,-208.96 216.02,-198.73 211.8,-208.44 218.78,-208.96"/>
</g>
<!-- Node86 -->
<g id="node24" class="node">
<title>Node86</title>
<g id="a_node24"><a xlink:href="protocol_2error_8h.html" target="_top" xlink:title=" ">
<polygon fill="white" stroke="red" points="744.19,-123.5 744.19,-142.5 886.19,-142.5 886.19,-123.5 744.19,-123.5"/>
<text text-anchor="middle" x="815.19" y="-130.5" font-family="Helvetica,sans-Serif" font-size="10.00">emlabcpp/protocol/error.h</text>
</a>
</g>
</g>
<!-- Node74&#45;&gt;Node86 -->
<g id="edge35" class="edge">
<title>Node74&#45;&gt;Node86</title>
<path fill="none" stroke="midnightblue" d="M769.71,-325.43C841,-313.13 948.93,-281.19 986.19,-199 989.86,-190.9 991.62,-186.04 986.19,-179 973.9,-163.05 929.3,-151.63 888.73,-144.29"/>
<polygon fill="midnightblue" stroke="midnightblue" points="889.25,-140.83 878.8,-142.55 888.05,-147.72 889.25,-140.83"/>
</g>
<!-- Node66 -->
<g id="node25" class="node">
<title>Node66</title>
<g id="a_node25"><a xlink:title=" ">
<polygon fill="white" stroke="#bfbfbf" points="102.69,-123.5 102.69,-142.5 131.69,-142.5 131.69,-123.5 102.69,-123.5"/>
<text text-anchor="middle" x="117.19" y="-130.5" font-family="Helvetica,sans-Serif" font-size="10.00">bit</text>
</a>
</g>
</g>
<!-- Node74&#45;&gt;Node66 -->
<g id="edge49" class="edge">
<title>Node74&#45;&gt;Node66</title>
<path fill="none" stroke="midnightblue" d="M636.47,-325.52C502.98,-310.53 215.55,-278.15 213.19,-277 169.39,-255.69 160.88,-240.99 136.19,-199 127.71,-184.59 122.79,-166.14 120.09,-152.57"/>
<polygon fill="midnightblue" stroke="midnightblue" points="123.5,-151.77 118.31,-142.53 116.61,-152.99 123.5,-151.77"/>
</g>
<!-- Node88 -->
<g id="node26" class="node">
<title>Node88</title>
<g id="a_node26"><a xlink:href="message_8h.html" target="_top" xlink:title=" ">
<polygon fill="white" stroke="black" points="383.19,-179.5 383.19,-198.5 547.19,-198.5 547.19,-179.5 383.19,-179.5"/>
<text text-anchor="middle" x="465.19" y="-186.5" font-family="Helvetica,sans-Serif" font-size="10.00">emlabcpp/protocol/message.h</text>
</a>
</g>
</g>
<!-- Node74&#45;&gt;Node88 -->
<g id="edge37" class="edge">
<title>Node74&#45;&gt;Node88</title>
<path fill="none" stroke="midnightblue" d="M677.08,-318.99C658.32,-308.45 632.81,-293.09 612.19,-277 591.13,-260.56 591.37,-249.89 569.19,-235 548.32,-220.99 522.37,-209.76 501.62,-202.02"/>
<polygon fill="midnightblue" stroke="midnightblue" points="502.79,-198.72 492.19,-198.61 500.4,-205.3 502.79,-198.72"/>
</g>
<!-- Node92 -->
<g id="node27" class="node">
<title>Node92</title>
<g id="a_node27"><a xlink:href="packet_8h.html" target="_top" xlink:title=" ">
<polygon fill="white" stroke="red" points="408.19,-246.5 408.19,-265.5 560.19,-265.5 560.19,-246.5 408.19,-246.5"/>
<text text-anchor="middle" x="484.19" y="-253.5" font-family="Helvetica,sans-Serif" font-size="10.00">emlabcpp/protocol/packet.h</text>
</a>
</g>
</g>
<!-- Node74&#45;&gt;Node92 -->
<g id="edge40" class="edge">
<title>Node74&#45;&gt;Node92</title>
<path fill="none" stroke="midnightblue" d="M662.77,-318.97C621.27,-304.57 557.4,-282.41 518.34,-268.85"/>
<polygon fill="midnightblue" stroke="midnightblue" points="519.34,-265.49 508.74,-265.52 517.04,-272.11 519.34,-265.49"/>
</g>
<!-- Node87 -->
<g id="node28" class="node">
<title>Node87</title>
<g id="a_node28"><a xlink:href="traits_8h.html" target="_top" xlink:title=" ">
<polygon fill="white" stroke="red" points="244.69,-246.5 244.69,-265.5 389.69,-265.5 389.69,-246.5 244.69,-246.5"/>
<text text-anchor="middle" x="317.19" y="-253.5" font-family="Helvetica,sans-Serif" font-size="10.00">emlabcpp/protocol/traits.h</text>
</a>
</g>
</g>
<!-- Node74&#45;&gt;Node87 -->
<g id="edge41" class="edge">
<title>Node74&#45;&gt;Node87</title>
<path fill="none" stroke="midnightblue" d="M636.55,-321.85C574.82,-311.26 480.53,-294.4 399.19,-277 386.41,-274.27 372.59,-271.01 360,-267.93"/>
<polygon fill="midnightblue" stroke="midnightblue" points="360.75,-264.51 350.21,-265.51 359.07,-271.31 360.75,-264.51"/>
</g>
<!-- Node75&#45;&gt;Node77 -->
<g id="edge25" class="edge">
<title>Node75&#45;&gt;Node77</title>
<path fill="none" stroke="midnightblue" d="M819.45,-240.9C835.89,-230 858.53,-214.98 874.96,-204.08"/>
<polygon fill="midnightblue" stroke="midnightblue" points="876.96,-206.95 883.36,-198.51 873.09,-201.12 876.96,-206.95"/>
</g>
<!-- Node75&#45;&gt;Node79 -->
<g id="edge26" class="edge">
<title>Node75&#45;&gt;Node79</title>
<path fill="none" stroke="midnightblue" d="M781.05,-240.9C768.24,-230.36 750.76,-215.98 737.65,-205.19"/>
<polygon fill="midnightblue" stroke="midnightblue" points="739.7,-202.35 729.76,-198.69 735.25,-207.75 739.7,-202.35"/>
</g>
<!-- Node85&#45;&gt;Node16 -->
<g id="edge33" class="edge">
<title>Node85&#45;&gt;Node16</title>
<path fill="none" stroke="midnightblue" d="M205.73,-179.46C190.02,-166.7 165.25,-142.12 179.19,-123 206.74,-85.2 263.07,-75.08 300.22,-72.7"/>
<polygon fill="midnightblue" stroke="midnightblue" points="300.8,-76.18 310.62,-72.21 300.46,-69.19 300.8,-76.18"/>
</g>
<!-- Node85&#45;&gt;Node86 -->
<g id="edge29" class="edge">
<title>Node85&#45;&gt;Node86</title>
<path fill="none" stroke="midnightblue" d="M288.73,-181.54C400.64,-171.43 616.44,-151.95 734.01,-141.33"/>
<polygon fill="midnightblue" stroke="midnightblue" points="734.39,-144.81 744.03,-140.43 733.76,-137.84 734.39,-144.81"/>
</g>
<!-- Node85&#45;&gt;Node66 -->
<g id="edge32" class="edge">
<title>Node85&#45;&gt;Node66</title>
<path fill="none" stroke="midnightblue" d="M201.12,-179.32C184.85,-170.54 159.51,-156.86 140.93,-146.82"/>
<polygon fill="midnightblue" stroke="midnightblue" points="142.37,-143.62 131.91,-141.95 139.05,-149.78 142.37,-143.62"/>
</g>
<!-- Node86&#45;&gt;Node46 -->
<g id="edge30" class="edge">
<title>Node86&#45;&gt;Node46</title>
<path fill="none" stroke="midnightblue" d="M873.65,-123.48C945.38,-113.01 1067.23,-95.24 1146.44,-83.69"/>
<polygon fill="midnightblue" stroke="midnightblue" points="1146.98,-87.15 1156.37,-82.24 1145.97,-80.22 1146.98,-87.15"/>
</g>
<!-- Node86&#45;&gt;Node8 -->
<g id="edge31" class="edge">
<title>Node86&#45;&gt;Node8</title>
<path fill="none" stroke="midnightblue" d="M843.88,-123.49C918.02,-101.5 1115.56,-42.92 1192.19,-20.19"/>
<polygon fill="midnightblue" stroke="midnightblue" points="1193.59,-23.43 1202.18,-17.23 1191.6,-16.72 1193.59,-23.43"/>
</g>
<!-- Node88&#45;&gt;Node6 -->
<g id="edge38" class="edge">
<title>Node88&#45;&gt;Node6</title>
<path fill="none" stroke="midnightblue" d="M430.8,-179.44C393.27,-170.1 333.06,-155.12 292.12,-144.93"/>
<polygon fill="midnightblue" stroke="midnightblue" points="292.96,-141.53 282.41,-142.52 291.27,-148.33 292.96,-141.53"/>
</g>
<!-- Node88&#45;&gt;Node30 -->
<g id="edge39" class="edge">
<title>Node88&#45;&gt;Node30</title>
<path fill="none" stroke="midnightblue" d="M547.36,-180.56C631.79,-172.65 767.3,-159.23 894.7,-143.01"/>
<polygon fill="midnightblue" stroke="midnightblue" points="895.16,-146.47 904.64,-141.73 894.27,-139.53 895.16,-146.47"/>
</g>
<!-- Node87&#45;&gt;Node16 -->
<g id="edge45" class="edge">
<title>Node87&#45;&gt;Node16</title>
<path fill="none" stroke="midnightblue" d="M318.11,-246.2C321.02,-218.19 330.13,-130.71 334.19,-91.66"/>
<polygon fill="midnightblue" stroke="midnightblue" points="337.73,-91.52 335.28,-81.21 330.76,-90.8 337.73,-91.52"/>
</g>
<!-- Node87&#45;&gt;Node85 -->
<g id="edge42" class="edge">
<title>Node87&#45;&gt;Node85</title>
<path fill="none" stroke="midnightblue" d="M303.7,-246.23C287.13,-235.46 258.8,-217.05 239.1,-204.24"/>
<polygon fill="midnightblue" stroke="midnightblue" points="240.75,-201.14 230.46,-198.63 236.94,-207.01 240.75,-201.14"/>
</g>
<!-- Node87&#45;&gt;Node86 -->
<g id="edge43" class="edge">
<title>Node87&#45;&gt;Node86</title>
<path fill="none" stroke="midnightblue" d="M320.93,-246.05C328.34,-229.54 346.62,-194.58 374.19,-179 433.8,-145.3 623.61,-136.71 733.82,-134.6"/>
<polygon fill="midnightblue" stroke="midnightblue" points="733.97,-138.1 743.9,-134.42 733.84,-131.1 733.97,-138.1"/>
</g>
<!-- Node87&#45;&gt;Node88 -->
<g id="edge44" class="edge">
<title>Node87&#45;&gt;Node88</title>
<path fill="none" stroke="midnightblue" d="M336.84,-246.37C362.27,-235.2 406.79,-215.65 436.13,-202.76"/>
<polygon fill="midnightblue" stroke="midnightblue" points="437.71,-205.89 445.45,-198.67 434.89,-199.48 437.71,-205.89"/>
</g>
</g>
</svg>
