<?xml version="1.0" encoding="UTF-8" standalone="no"?>
<!DOCTYPE svg PUBLIC "-//W3C//DTD SVG 1.1//EN"
 "http://www.w3.org/Graphics/SVG/1.1/DTD/svg11.dtd">
<!-- Generated by graphviz version 2.43.0 (0)
 -->
<!-- Title: include/emlabcpp/experimental/logging/color.h Pages: 1 -->
<svg width="376pt" height="162pt"
 viewBox="0.00 0.00 375.50 162.00" xmlns="http://www.w3.org/2000/svg" xmlns:xlink="http://www.w3.org/1999/xlink">
<g id="graph0" class="graph" transform="scale(1 1) rotate(0) translate(4 158)">
<title>include/emlabcpp/experimental/logging/color.h</title>
<polygon fill="white" stroke="transparent" points="-4,4 -4,-158 371.5,-158 371.5,4 -4,4"/>
<!-- Node1 -->
<g id="node1" class="node">
<title>Node1</title>
<g id="a_node1"><a xlink:title=" ">
<polygon fill="#bfbfbf" stroke="black" points="130.5,-123.5 130.5,-153.5 301.5,-153.5 301.5,-123.5 130.5,-123.5"/>
<text text-anchor="start" x="138.5" y="-141.5" font-family="Helvetica,sans-Serif" font-size="10.00">include/emlabcpp/experimental</text>
<text text-anchor="middle" x="216" y="-130.5" font-family="Helvetica,sans-Serif" font-size="10.00">/logging/color.h</text>
</a>
</g>
</g>
<!-- Node2 -->
<g id="node2" class="node">
<title>Node2</title>
<g id="a_node2"><a xlink:href="severity_8h.html" target="_top" xlink:title=" ">
<polygon fill="white" stroke="black" points="4.5,-56.5 4.5,-86.5 137.5,-86.5 137.5,-56.5 4.5,-56.5"/>
<text text-anchor="start" x="12.5" y="-74.5" font-family="Helvetica,sans-Serif" font-size="10.00">emlabcpp/experimental</text>
<text text-anchor="middle" x="71" y="-63.5" font-family="Helvetica,sans-Serif" font-size="10.00">/logging/severity.h</text>
</a>
</g>
</g>
<!-- Node1&#45;&gt;Node2 -->
<g id="edge1" class="edge">
<title>Node1&#45;&gt;Node2</title>
<path fill="none" stroke="midnightblue" d="M184.54,-123.4C163.16,-113.81 134.69,-101.05 111.6,-90.7"/>
<polygon fill="midnightblue" stroke="midnightblue" points="112.96,-87.47 102.4,-86.58 110.09,-93.86 112.96,-87.47"/>
</g>
<!-- Node3 -->
<g id="node3" class="node">
<title>Node3</title>
<g id="a_node3"><a xlink:href="concepts_8h.html" target="_top" xlink:title=" ">
<polygon fill="white" stroke="black" points="156,-62 156,-81 276,-81 276,-62 156,-62"/>
<text text-anchor="middle" x="216" y="-69" font-family="Helvetica,sans-Serif" font-size="10.00">emlabcpp/concepts.h</text>
</a>
</g>
</g>
<!-- Node1&#45;&gt;Node3 -->
<g id="edge2" class="edge">
<title>Node1&#45;&gt;Node3</title>
<path fill="none" stroke="midnightblue" d="M216,-123.4C216,-114.06 216,-101.71 216,-91.52"/>
<polygon fill="midnightblue" stroke="midnightblue" points="219.5,-91.19 216,-81.19 212.5,-91.19 219.5,-91.19"/>
</g>
<!-- Node14 -->
<g id="node8" class="node">
<title>Node14</title>
<g id="a_node8"><a xlink:title=" ">
<polygon fill="white" stroke="#bfbfbf" points="294.5,-62 294.5,-81 367.5,-81 367.5,-62 294.5,-62"/>
<text text-anchor="middle" x="331" y="-69" font-family="Helvetica,sans-Serif" font-size="10.00">string_view</text>
</a>
</g>
</g>
<!-- Node1&#45;&gt;Node14 -->
<g id="edge7" class="edge">
<title>Node1&#45;&gt;Node14</title>
<path fill="none" stroke="midnightblue" d="M240.95,-123.4C260.6,-112.29 287.79,-96.92 307.15,-85.98"/>
<polygon fill="midnightblue" stroke="midnightblue" points="308.97,-88.97 315.95,-81.01 305.52,-82.88 308.97,-88.97"/>
</g>
<!-- Node4 -->
<g id="node4" class="node">
<title>Node4</title>
<g id="a_node4"><a xlink:href="types_2base_8h.html" target="_top" xlink:title=" ">
<polygon fill="white" stroke="red" points="0,-0.5 0,-19.5 130,-19.5 130,-0.5 0,-0.5"/>
<text text-anchor="middle" x="65" y="-7.5" font-family="Helvetica,sans-Serif" font-size="10.00">emlabcpp/types/base.h</text>
</a>
</g>
</g>
<!-- Node3&#45;&gt;Node4 -->
<g id="edge3" class="edge">
<title>Node3&#45;&gt;Node4</title>
<path fill="none" stroke="midnightblue" d="M194.37,-61.98C168.58,-51.81 125.29,-34.76 95.96,-23.2"/>
<polygon fill="midnightblue" stroke="midnightblue" points="97.18,-19.92 86.59,-19.51 94.62,-26.43 97.18,-19.92"/>
</g>
<!-- Node11 -->
<g id="node5" class="node">
<title>Node11</title>
<g id="a_node5"><a xlink:title=" ">
<polygon fill="white" stroke="#bfbfbf" points="148,-0.5 148,-19.5 208,-19.5 208,-0.5 148,-0.5"/>
<text text-anchor="middle" x="178" y="-7.5" font-family="Helvetica,sans-Serif" font-size="10.00">concepts</text>
</a>
</g>
</g>
<!-- Node3&#45;&gt;Node11 -->
<g id="edge4" class="edge">
<title>Node3&#45;&gt;Node11</title>
<path fill="none" stroke="midnightblue" d="M210.56,-61.98C204.91,-53.14 195.94,-39.09 188.84,-27.98"/>
<polygon fill="midnightblue" stroke="midnightblue" points="191.77,-26.05 183.43,-19.51 185.87,-29.82 191.77,-26.05"/>
</g>
<!-- Node12 -->
<g id="node6" class="node">
<title>Node12</title>
<g id="a_node6"><a xlink:title=" ">
<polygon fill="white" stroke="#bfbfbf" points="226.5,-0.5 226.5,-19.5 279.5,-19.5 279.5,-0.5 226.5,-0.5"/>
<text text-anchor="middle" x="253" y="-7.5" font-family="Helvetica,sans-Serif" font-size="10.00">iterator</text>
</a>
</g>
</g>
<!-- Node3&#45;&gt;Node12 -->
<g id="edge5" class="edge">
<title>Node3&#45;&gt;Node12</title>
<path fill="none" stroke="midnightblue" d="M221.3,-61.98C226.74,-53.23 235.36,-39.37 242.24,-28.31"/>
<polygon fill="midnightblue" stroke="midnightblue" points="245.4,-29.85 247.71,-19.51 239.46,-26.15 245.4,-29.85"/>
</g>
<!-- Node13 -->
<g id="node7" class="node">
<title>Node13</title>
<g id="a_node7"><a xlink:title=" ">
<polygon fill="white" stroke="#bfbfbf" points="297.5,-0.5 297.5,-19.5 348.5,-19.5 348.5,-0.5 297.5,-0.5"/>
<text text-anchor="middle" x="323" y="-7.5" font-family="Helvetica,sans-Serif" font-size="10.00">variant</text>
</a>
</g>
</g>
<!-- Node3&#45;&gt;Node13 -->
<g id="edge6" class="edge">
<title>Node3&#45;&gt;Node13</title>
<path fill="none" stroke="midnightblue" d="M231.33,-61.98C248.97,-52.17 278.16,-35.93 298.86,-24.42"/>
<polygon fill="midnightblue" stroke="midnightblue" points="300.66,-27.43 307.7,-19.51 297.26,-21.31 300.66,-27.43"/>
</g>
</g>
</svg>
