<?xml version="1.0" encoding="UTF-8" standalone="no"?>
<!DOCTYPE svg PUBLIC "-//W3C//DTD SVG 1.1//EN"
 "http://www.w3.org/Graphics/SVG/1.1/DTD/svg11.dtd">
<!-- Generated by graphviz version 2.43.0 (0)
 -->
<!-- Title: include/emlabcpp/protocol/command_group.h Pages: 1 -->
<svg width="1037pt" height="263pt"
 viewBox="0.00 0.00 1036.80 263.00" xmlns="http://www.w3.org/2000/svg" xmlns:xlink="http://www.w3.org/1999/xlink">
<g id="graph0" class="graph" transform="scale(1 1) rotate(0) translate(4 259)">
<title>include/emlabcpp/protocol/command_group.h</title>
<polygon fill="white" stroke="transparent" points="-4,4 -4,-259 1032.8,-259 1032.8,4 -4,4"/>
<!-- Node1 -->
<g id="node1" class="node">
<title>Node1</title>
<g id="a_node1"><a xlink:title=" ">
<polygon fill="#bfbfbf" stroke="black" points="335.74,-224.5 335.74,-254.5 481.74,-254.5 481.74,-224.5 335.74,-224.5"/>
<text text-anchor="start" x="343.74" y="-242.5" font-family="Helvetica,sans-Serif" font-size="10.00">include/emlabcpp/protocol</text>
<text text-anchor="middle" x="408.74" y="-231.5" font-family="Helvetica,sans-Serif" font-size="10.00">/command_group.h</text>
</a>
</g>
</g>
<!-- Node2 -->
<g id="node2" class="node">
<title>Node2</title>
<g id="a_node2"><a xlink:href="algorithm_8h.html" target="_top" xlink:title=" ">
<polygon fill="white" stroke="black" points="318.74,-112.5 318.74,-131.5 400.74,-131.5 400.74,-112.5 318.74,-112.5"/>
<text text-anchor="middle" x="359.74" y="-119.5" font-family="Helvetica,sans-Serif" font-size="10.00">../algorithm.h</text>
</a>
</g>
</g>
<!-- Node1&#45;&gt;Node2 -->
<g id="edge1" class="edge">
<title>Node1&#45;&gt;Node2</title>
<path fill="none" stroke="midnightblue" d="M402.73,-224.34C393.82,-203.34 377.11,-163.96 367.36,-140.96"/>
<polygon fill="midnightblue" stroke="midnightblue" points="370.54,-139.51 363.41,-131.67 364.1,-142.24 370.54,-139.51"/>
</g>
<!-- Node4 -->
<g id="node4" class="node">
<title>Node4</title>
<g id="a_node4"><a xlink:href="types_8h.html" target="_top" xlink:title=" ">
<polygon fill="white" stroke="red" points="434.74,-0.5 434.74,-19.5 496.74,-19.5 496.74,-0.5 434.74,-0.5"/>
<text text-anchor="middle" x="465.74" y="-7.5" font-family="Helvetica,sans-Serif" font-size="10.00">../types.h</text>
</a>
</g>
</g>
<!-- Node1&#45;&gt;Node4 -->
<g id="edge17" class="edge">
<title>Node1&#45;&gt;Node4</title>
<path fill="none" stroke="midnightblue" d="M412.3,-224.27C422.19,-184.81 449.95,-74.02 461.06,-29.68"/>
<polygon fill="midnightblue" stroke="midnightblue" points="464.46,-30.48 463.5,-19.93 457.67,-28.78 464.46,-30.48"/>
</g>
<!-- Node28 -->
<g id="node13" class="node">
<title>Node28</title>
<g id="a_node13"><a xlink:href="assert_8h.html" target="_top" xlink:title=" ">
<polygon fill="white" stroke="black" points="181.24,-168.5 181.24,-187.5 246.24,-187.5 246.24,-168.5 181.24,-168.5"/>
<text text-anchor="middle" x="213.74" y="-175.5" font-family="Helvetica,sans-Serif" font-size="10.00">../assert.h</text>
</a>
</g>
</g>
<!-- Node1&#45;&gt;Node28 -->
<g id="edge15" class="edge">
<title>Node1&#45;&gt;Node28</title>
<path fill="none" stroke="midnightblue" d="M362.52,-224.4C328.68,-214.07 283.32,-200.23 251.61,-190.56"/>
<polygon fill="midnightblue" stroke="midnightblue" points="252.41,-187.14 241.83,-187.57 250.37,-193.84 252.41,-187.14"/>
</g>
<!-- Node30 -->
<g id="node15" class="node">
<title>Node30</title>
<g id="a_node15"><a xlink:href="traits_8h.html" target="_top" xlink:title=" ">
<polygon fill="white" stroke="black" points="740.24,-168.5 740.24,-187.5 797.24,-187.5 797.24,-168.5 740.24,-168.5"/>
<text text-anchor="middle" x="768.74" y="-175.5" font-family="Helvetica,sans-Serif" font-size="10.00">./traits.h</text>
</a>
</g>
</g>
<!-- Node1&#45;&gt;Node30 -->
<g id="edge18" class="edge">
<title>Node1&#45;&gt;Node30</title>
<path fill="none" stroke="midnightblue" d="M482.02,-226.39C557.08,-213.98 670.87,-195.17 730,-185.4"/>
<polygon fill="midnightblue" stroke="midnightblue" points="730.74,-188.83 740.04,-183.74 729.6,-181.92 730.74,-188.83"/>
</g>
<!-- Node3 -->
<g id="node3" class="node">
<title>Node3</title>
<g id="a_node3"><a xlink:href="impl_8h.html" target="_top" xlink:title=" ">
<polygon fill="white" stroke="black" points="295.74,-56.5 295.74,-75.5 399.74,-75.5 399.74,-56.5 295.74,-56.5"/>
<text text-anchor="middle" x="347.74" y="-63.5" font-family="Helvetica,sans-Serif" font-size="10.00">./algorithm/impl.h</text>
</a>
</g>
</g>
<!-- Node2&#45;&gt;Node3 -->
<g id="edge2" class="edge">
<title>Node2&#45;&gt;Node3</title>
<path fill="none" stroke="midnightblue" d="M357.76,-112.08C356.16,-104.93 353.88,-94.64 351.89,-85.69"/>
<polygon fill="midnightblue" stroke="midnightblue" points="355.27,-84.75 349.68,-75.75 348.43,-86.27 355.27,-84.75"/>
</g>
<!-- Node2&#45;&gt;Node4 -->
<g id="edge9" class="edge">
<title>Node2&#45;&gt;Node4</title>
<path fill="none" stroke="midnightblue" d="M369.79,-112.34C379.91,-103.49 395.82,-89.22 408.74,-76 424.23,-60.15 440.81,-40.96 452.07,-27.56"/>
<polygon fill="midnightblue" stroke="midnightblue" points="454.93,-29.6 458.64,-19.68 449.55,-25.12 454.93,-29.6"/>
</g>
<!-- Node10 -->
<g id="node5" class="node">
<title>Node10</title>
<g id="a_node5"><a xlink:title=" ">
<polygon fill="white" stroke="#bfbfbf" points="151.24,-0.5 151.24,-19.5 192.24,-19.5 192.24,-0.5 151.24,-0.5"/>
<text text-anchor="middle" x="171.74" y="-7.5" font-family="Helvetica,sans-Serif" font-size="10.00">tuple</text>
</a>
</g>
</g>
<!-- Node2&#45;&gt;Node10 -->
<g id="edge14" class="edge">
<title>Node2&#45;&gt;Node10</title>
<path fill="none" stroke="midnightblue" d="M319.29,-112.41C272.31,-102.1 200.03,-85.07 190.74,-76 178.52,-64.08 174.05,-44.77 172.47,-30.29"/>
<polygon fill="midnightblue" stroke="midnightblue" points="175.93,-29.67 171.73,-19.95 168.95,-30.17 175.93,-29.67"/>
</g>
<!-- Node17 -->
<g id="node6" class="node">
<title>Node17</title>
<g id="a_node6"><a xlink:href="bounded_8h.html" target="_top" xlink:title=" ">
<polygon fill="white" stroke="red" points="796.74,-56.5 796.74,-75.5 870.74,-75.5 870.74,-56.5 796.74,-56.5"/>
<text text-anchor="middle" x="833.74" y="-63.5" font-family="Helvetica,sans-Serif" font-size="10.00">./bounded.h</text>
</a>
</g>
</g>
<!-- Node2&#45;&gt;Node17 -->
<g id="edge5" class="edge">
<title>Node2&#45;&gt;Node17</title>
<path fill="none" stroke="midnightblue" d="M400.97,-116.3C488.79,-106.3 693.81,-82.94 786.61,-72.37"/>
<polygon fill="midnightblue" stroke="midnightblue" points="787.02,-75.84 796.56,-71.23 786.23,-68.89 787.02,-75.84"/>
</g>
<!-- Node19 -->
<g id="node8" class="node">
<title>Node19</title>
<g id="a_node8"><a xlink:href="min__max_8h.html" target="_top" xlink:title=" ">
<polygon fill="white" stroke="red" points="200.24,-56.5 200.24,-75.5 277.24,-75.5 277.24,-56.5 200.24,-56.5"/>
<text text-anchor="middle" x="238.74" y="-63.5" font-family="Helvetica,sans-Serif" font-size="10.00">./min_max.h</text>
</a>
</g>
</g>
<!-- Node2&#45;&gt;Node19 -->
<g id="edge7" class="edge">
<title>Node2&#45;&gt;Node19</title>
<path fill="none" stroke="midnightblue" d="M340.56,-112.44C320.83,-103.64 289.85,-89.81 267.24,-79.72"/>
<polygon fill="midnightblue" stroke="midnightblue" points="268.38,-76.4 257.82,-75.52 265.53,-82.79 268.38,-76.4"/>
</g>
<!-- Node21 -->
<g id="node9" class="node">
<title>Node21</title>
<g id="a_node9"><a xlink:href="range_8h.html" target="_top" xlink:title=" ">
<polygon fill="white" stroke="red" points="17.24,-56.5 17.24,-75.5 76.24,-75.5 76.24,-56.5 17.24,-56.5"/>
<text text-anchor="middle" x="46.74" y="-63.5" font-family="Helvetica,sans-Serif" font-size="10.00">./range.h</text>
</a>
</g>
</g>
<!-- Node2&#45;&gt;Node21 -->
<g id="edge8" class="edge">
<title>Node2&#45;&gt;Node21</title>
<path fill="none" stroke="midnightblue" d="M318.55,-113.68C315.23,-113.1 311.93,-112.54 308.74,-112 212.51,-95.78 185.37,-95.62 86.67,-76.28"/>
<polygon fill="midnightblue" stroke="midnightblue" points="87.05,-72.79 76.56,-74.28 85.69,-79.66 87.05,-72.79"/>
</g>
<!-- Node24 -->
<g id="node10" class="node">
<title>Node24</title>
<g id="a_node10"><a xlink:href="view_8h.html" target="_top" xlink:title=" ">
<polygon fill="white" stroke="red" points="559.74,-56.5 559.74,-75.5 613.74,-75.5 613.74,-56.5 559.74,-56.5"/>
<text text-anchor="middle" x="586.74" y="-63.5" font-family="Helvetica,sans-Serif" font-size="10.00">./view.h</text>
</a>
</g>
</g>
<!-- Node2&#45;&gt;Node24 -->
<g id="edge10" class="edge">
<title>Node2&#45;&gt;Node24</title>
<path fill="none" stroke="midnightblue" d="M396.18,-112.44C434.44,-103.43 496.34,-88.82 549.74,-76 549.84,-75.98 549.94,-75.95 550.04,-75.93"/>
<polygon fill="midnightblue" stroke="midnightblue" points="550.76,-79.35 559.66,-73.61 549.12,-72.55 550.76,-79.35"/>
</g>
<!-- Node26 -->
<g id="node11" class="node">
<title>Node26</title>
<g id="a_node11"><a xlink:title=" ">
<polygon fill="white" stroke="#bfbfbf" points="494.24,-56.5 494.24,-75.5 541.24,-75.5 541.24,-56.5 494.24,-56.5"/>
<text text-anchor="middle" x="517.74" y="-63.5" font-family="Helvetica,sans-Serif" font-size="10.00">cmath</text>
</a>
</g>
</g>
<!-- Node2&#45;&gt;Node26 -->
<g id="edge12" class="edge">
<title>Node2&#45;&gt;Node26</title>
<path fill="none" stroke="midnightblue" d="M384.77,-112.44C411.74,-103.23 454.79,-88.51 484.56,-78.34"/>
<polygon fill="midnightblue" stroke="midnightblue" points="485.78,-81.62 494.11,-75.08 483.51,-75 485.78,-81.62"/>
</g>
<!-- Node27 -->
<g id="node12" class="node">
<title>Node27</title>
<g id="a_node12"><a xlink:title=" ">
<polygon fill="white" stroke="#bfbfbf" points="94.24,-56.5 94.24,-75.5 143.24,-75.5 143.24,-56.5 94.24,-56.5"/>
<text text-anchor="middle" x="118.74" y="-63.5" font-family="Helvetica,sans-Serif" font-size="10.00">cstdlib</text>
</a>
</g>
</g>
<!-- Node2&#45;&gt;Node27 -->
<g id="edge13" class="edge">
<title>Node2&#45;&gt;Node27</title>
<path fill="none" stroke="midnightblue" d="M320.99,-112.46C280.31,-103.47 214.5,-88.87 157.74,-76 156.3,-75.67 154.83,-75.34 153.34,-75"/>
<polygon fill="midnightblue" stroke="midnightblue" points="154.02,-71.56 143.49,-72.74 152.45,-78.39 154.02,-71.56"/>
</g>
<!-- Node3&#45;&gt;Node4 -->
<g id="edge3" class="edge">
<title>Node3&#45;&gt;Node4</title>
<path fill="none" stroke="midnightblue" d="M366.43,-56.44C385.68,-47.64 415.89,-33.81 437.94,-23.72"/>
<polygon fill="midnightblue" stroke="midnightblue" points="439.49,-26.86 447.13,-19.52 436.58,-20.5 439.49,-26.86"/>
</g>
<!-- Node3&#45;&gt;Node10 -->
<g id="edge4" class="edge">
<title>Node3&#45;&gt;Node10</title>
<path fill="none" stroke="midnightblue" d="M319.85,-56.44C287.7,-46.58 235.04,-30.42 201.94,-20.27"/>
<polygon fill="midnightblue" stroke="midnightblue" points="202.93,-16.91 192.34,-17.32 200.88,-23.6 202.93,-16.91"/>
</g>
<!-- Node18 -->
<g id="node7" class="node">
<title>Node18</title>
<g id="a_node7"><a xlink:title=" ">
<polygon fill="white" stroke="#bfbfbf" points="908.74,-0.5 908.74,-19.5 964.74,-19.5 964.74,-0.5 908.74,-0.5"/>
<text text-anchor="middle" x="936.74" y="-7.5" font-family="Helvetica,sans-Serif" font-size="10.00">optional</text>
</a>
</g>
</g>
<!-- Node17&#45;&gt;Node18 -->
<g id="edge6" class="edge">
<title>Node17&#45;&gt;Node18</title>
<path fill="none" stroke="midnightblue" d="M850.29,-56.32C866.73,-47.7 892.17,-34.36 911.21,-24.39"/>
<polygon fill="midnightblue" stroke="midnightblue" points="913,-27.4 920.23,-19.65 909.75,-21.2 913,-27.4"/>
</g>
<!-- Node24&#45;&gt;Node4 -->
<g id="edge11" class="edge">
<title>Node24&#45;&gt;Node4</title>
<path fill="none" stroke="midnightblue" d="M567.56,-56.44C547.83,-47.64 516.85,-33.81 494.24,-23.72"/>
<polygon fill="midnightblue" stroke="midnightblue" points="495.38,-20.4 484.82,-19.52 492.53,-26.79 495.38,-20.4"/>
</g>
<!-- Node29 -->
<g id="node14" class="node">
<title>Node29</title>
<g id="a_node14"><a xlink:title=" ">
<polygon fill="white" stroke="#bfbfbf" points="71.74,-112.5 71.74,-131.5 123.74,-131.5 123.74,-112.5 71.74,-112.5"/>
<text text-anchor="middle" x="97.74" y="-119.5" font-family="Helvetica,sans-Serif" font-size="10.00">cassert</text>
</a>
</g>
</g>
<!-- Node28&#45;&gt;Node29 -->
<g id="edge16" class="edge">
<title>Node28&#45;&gt;Node29</title>
<path fill="none" stroke="midnightblue" d="M195.36,-168.44C176.52,-159.68 147.01,-145.94 125.36,-135.86"/>
<polygon fill="midnightblue" stroke="midnightblue" points="126.57,-132.56 116.03,-131.52 123.62,-138.91 126.57,-132.56"/>
</g>
<!-- Node30&#45;&gt;Node4 -->
<g id="edge25" class="edge">
<title>Node30&#45;&gt;Node4</title>
<path fill="none" stroke="midnightblue" d="M768.46,-168.33C767.58,-154.73 764,-128.26 749.74,-112 686.79,-40.22 569.32,-19.45 507.01,-13.44"/>
<polygon fill="midnightblue" stroke="midnightblue" points="507.04,-9.93 496.77,-12.54 506.43,-16.91 507.04,-9.93"/>
</g>
<!-- Node30&#45;&gt;Node18 -->
<g id="edge34" class="edge">
<title>Node30&#45;&gt;Node18</title>
<path fill="none" stroke="midnightblue" d="M797.24,-173.99C849.32,-168.05 957.28,-153.47 987.74,-132 1017.98,-110.68 1040.82,-87.7 1021.74,-56 1011.42,-38.86 992.14,-27.91 974.55,-21.1"/>
<polygon fill="midnightblue" stroke="midnightblue" points="975.61,-17.77 965.02,-17.74 973.28,-24.37 975.61,-17.77"/>
</g>
<!-- Node31 -->
<g id="node16" class="node">
<title>Node31</title>
<g id="a_node16"><a xlink:href="decompose_8h.html" target="_top" xlink:title=" ">
<polygon fill="white" stroke="red" points="141.24,-112.5 141.24,-131.5 300.24,-131.5 300.24,-112.5 141.24,-112.5"/>
<text text-anchor="middle" x="220.74" y="-119.5" font-family="Helvetica,sans-Serif" font-size="10.00">../experimental/decompose.h</text>
</a>
</g>
</g>
<!-- Node30&#45;&gt;Node31 -->
<g id="edge19" class="edge">
<title>Node30&#45;&gt;Node31</title>
<path fill="none" stroke="midnightblue" d="M740,-174.21C669.13,-167.33 480.05,-148.94 310.42,-132.07"/>
<polygon fill="midnightblue" stroke="midnightblue" points="310.61,-128.57 300.31,-131.06 309.92,-135.53 310.61,-128.57"/>
</g>
<!-- Node32 -->
<g id="node17" class="node">
<title>Node32</title>
<g id="a_node17"><a xlink:href="quantity_8h.html" target="_top" xlink:title=" ">
<polygon fill="white" stroke="red" points="456.74,-112.5 456.74,-131.5 530.74,-131.5 530.74,-112.5 456.74,-112.5"/>
<text text-anchor="middle" x="493.74" y="-119.5" font-family="Helvetica,sans-Serif" font-size="10.00">../quantity.h</text>
</a>
</g>
</g>
<!-- Node30&#45;&gt;Node32 -->
<g id="edge21" class="edge">
<title>Node30&#45;&gt;Node32</title>
<path fill="none" stroke="midnightblue" d="M740.09,-171.37C692.85,-162.1 598.16,-143.51 540.92,-132.27"/>
<polygon fill="midnightblue" stroke="midnightblue" points="541.52,-128.82 531.04,-130.32 540.17,-135.69 541.52,-128.82"/>
</g>
<!-- Node35 -->
<g id="node18" class="node">
<title>Node35</title>
<g id="a_node18"><a xlink:href="static__vector_8h.html" target="_top" xlink:title=" ">
<polygon fill="white" stroke="red" points="643.24,-112.5 643.24,-131.5 740.24,-131.5 740.24,-112.5 643.24,-112.5"/>
<text text-anchor="middle" x="691.74" y="-119.5" font-family="Helvetica,sans-Serif" font-size="10.00">../static_vector.h</text>
</a>
</g>
</g>
<!-- Node30&#45;&gt;Node35 -->
<g id="edge23" class="edge">
<title>Node30&#45;&gt;Node35</title>
<path fill="none" stroke="midnightblue" d="M756.37,-168.32C744.58,-160.06 726.6,-147.45 712.6,-137.63"/>
<polygon fill="midnightblue" stroke="midnightblue" points="714.27,-134.53 704.08,-131.65 710.26,-140.26 714.27,-134.53"/>
</g>
<!-- Node40 -->
<g id="node19" class="node">
<title>Node40</title>
<g id="a_node19"><a xlink:href="protocol_2base_8h.html" target="_top" xlink:title=" ">
<polygon fill="white" stroke="red" points="903.24,-112.5 903.24,-131.5 958.24,-131.5 958.24,-112.5 903.24,-112.5"/>
<text text-anchor="middle" x="930.74" y="-119.5" font-family="Helvetica,sans-Serif" font-size="10.00">./base.h</text>
</a>
</g>
</g>
<!-- Node30&#45;&gt;Node40 -->
<g id="edge26" class="edge">
<title>Node30&#45;&gt;Node40</title>
<path fill="none" stroke="midnightblue" d="M794.41,-168.44C821.66,-159.36 864.92,-144.94 895.39,-134.78"/>
<polygon fill="midnightblue" stroke="midnightblue" points="896.81,-138 905.19,-131.52 894.59,-131.36 896.81,-138"/>
</g>
<!-- Node41 -->
<g id="node20" class="node">
<title>Node41</title>
<g id="a_node20"><a xlink:href="protocol_2error_8h.html" target="_top" xlink:title=" ">
<polygon fill="white" stroke="red" points="888.74,-56.5 888.74,-75.5 942.74,-75.5 942.74,-56.5 888.74,-56.5"/>
<text text-anchor="middle" x="915.74" y="-63.5" font-family="Helvetica,sans-Serif" font-size="10.00">./error.h</text>
</a>
</g>
</g>
<!-- Node30&#45;&gt;Node41 -->
<g id="edge30" class="edge">
<title>Node30&#45;&gt;Node41</title>
<path fill="none" stroke="midnightblue" d="M790.33,-168.36C808.72,-160.43 835.32,-147.57 855.74,-132 874.14,-117.97 891.67,-97.93 902.98,-83.82"/>
<polygon fill="midnightblue" stroke="midnightblue" points="905.76,-85.94 909.17,-75.91 900.25,-81.63 905.76,-85.94"/>
</g>
<!-- Node15 -->
<g id="node21" class="node">
<title>Node15</title>
<g id="a_node21"><a xlink:title=" ">
<polygon fill="white" stroke="#bfbfbf" points="961.24,-56.5 961.24,-75.5 1012.24,-75.5 1012.24,-56.5 961.24,-56.5"/>
<text text-anchor="middle" x="986.74" y="-63.5" font-family="Helvetica,sans-Serif" font-size="10.00">variant</text>
</a>
</g>
</g>
<!-- Node30&#45;&gt;Node15 -->
<g id="edge35" class="edge">
<title>Node30&#45;&gt;Node15</title>
<path fill="none" stroke="midnightblue" d="M797.48,-174.08C846.5,-168.53 943.35,-154.92 967.74,-132 980.31,-120.18 984.71,-100.55 986.18,-85.95"/>
<polygon fill="midnightblue" stroke="midnightblue" points="989.7,-85.76 986.83,-75.56 982.71,-85.33 989.7,-85.76"/>
</g>
<!-- Node48 -->
<g id="node22" class="node">
<title>Node48</title>
<g id="a_node22"><a xlink:href="message_8h.html" target="_top" xlink:title=" ">
<polygon fill="white" stroke="red" points="548.74,-112.5 548.74,-131.5 624.74,-131.5 624.74,-112.5 548.74,-112.5"/>
<text text-anchor="middle" x="586.74" y="-119.5" font-family="Helvetica,sans-Serif" font-size="10.00">./message.h</text>
</a>
</g>
</g>
<!-- Node30&#45;&gt;Node48 -->
<g id="edge31" class="edge">
<title>Node30&#45;&gt;Node48</title>
<path fill="none" stroke="midnightblue" d="M739.9,-168.44C708.88,-159.24 659.41,-144.56 625.12,-134.39"/>
<polygon fill="midnightblue" stroke="midnightblue" points="626.02,-131.01 615.44,-131.52 624.03,-137.72 626.02,-131.01"/>
</g>
<!-- Node49 -->
<g id="node23" class="node">
<title>Node49</title>
<g id="a_node23"><a xlink:title=" ">
<polygon fill="white" stroke="#bfbfbf" points="796.74,-112.5 796.74,-131.5 846.74,-131.5 846.74,-112.5 796.74,-112.5"/>
<text text-anchor="middle" x="821.74" y="-119.5" font-family="Helvetica,sans-Serif" font-size="10.00">chrono</text>
</a>
</g>
</g>
<!-- Node30&#45;&gt;Node49 -->
<g id="edge33" class="edge">
<title>Node30&#45;&gt;Node49</title>
<path fill="none" stroke="midnightblue" d="M777.49,-168.08C785.21,-160.22 796.64,-148.57 805.95,-139.08"/>
<polygon fill="midnightblue" stroke="midnightblue" points="808.64,-141.34 813.15,-131.75 803.65,-136.44 808.64,-141.34"/>
</g>
<!-- Node31&#45;&gt;Node10 -->
<g id="edge20" class="edge">
<title>Node31&#45;&gt;Node10</title>
<path fill="none" stroke="midnightblue" d="M162.31,-112.49C102.68,-103.21 17.53,-88.07 7.74,-76 -29.59,-29.96 83.24,-16.38 140.53,-12.5"/>
<polygon fill="midnightblue" stroke="midnightblue" points="141.1,-15.97 150.86,-11.86 140.67,-8.98 141.1,-15.97"/>
</g>
<!-- Node32&#45;&gt;Node26 -->
<g id="edge22" class="edge">
<title>Node32&#45;&gt;Node26</title>
<path fill="none" stroke="midnightblue" d="M497.7,-112.08C500.95,-104.77 505.66,-94.18 509.69,-85.1"/>
<polygon fill="midnightblue" stroke="midnightblue" points="512.98,-86.31 513.85,-75.75 506.59,-83.47 512.98,-86.31"/>
</g>
<!-- Node35&#45;&gt;Node24 -->
<g id="edge24" class="edge">
<title>Node35&#45;&gt;Node24</title>
<path fill="none" stroke="midnightblue" d="M674.87,-112.32C658.03,-103.66 631.93,-90.24 612.5,-80.25"/>
<polygon fill="midnightblue" stroke="midnightblue" points="614.06,-77.12 603.56,-75.65 610.86,-83.34 614.06,-77.12"/>
</g>
<!-- Node40&#45;&gt;Node17 -->
<g id="edge27" class="edge">
<title>Node40&#45;&gt;Node17</title>
<path fill="none" stroke="midnightblue" d="M915.15,-112.32C899.74,-103.74 875.92,-90.49 858.03,-80.52"/>
<polygon fill="midnightblue" stroke="midnightblue" points="859.72,-77.46 849.28,-75.65 856.32,-83.58 859.72,-77.46"/>
</g>
<!-- Node40&#45;&gt;Node41 -->
<g id="edge28" class="edge">
<title>Node40&#45;&gt;Node41</title>
<path fill="none" stroke="midnightblue" d="M928.26,-112.08C926.25,-104.85 923.35,-94.41 920.85,-85.4"/>
<polygon fill="midnightblue" stroke="midnightblue" points="924.22,-84.45 918.17,-75.75 917.47,-86.32 924.22,-84.45"/>
</g>
<!-- Node40&#45;&gt;Node15 -->
<g id="edge29" class="edge">
<title>Node40&#45;&gt;Node15</title>
<path fill="none" stroke="midnightblue" d="M939.73,-112.32C947.93,-104.42 960.24,-92.55 970.21,-82.94"/>
<polygon fill="midnightblue" stroke="midnightblue" points="972.81,-85.29 977.58,-75.83 967.95,-80.26 972.81,-85.29"/>
</g>
<!-- Node48&#45;&gt;Node24 -->
<g id="edge32" class="edge">
<title>Node48&#45;&gt;Node24</title>
<path fill="none" stroke="midnightblue" d="M586.74,-112.08C586.74,-105.01 586.74,-94.86 586.74,-85.99"/>
<polygon fill="midnightblue" stroke="midnightblue" points="590.24,-85.75 586.74,-75.75 583.24,-85.75 590.24,-85.75"/>
</g>
</g>
</svg>
