<?xml version="1.0" encoding="UTF-8" standalone="no"?>
<!DOCTYPE svg PUBLIC "-//W3C//DTD SVG 1.1//EN"
 "http://www.w3.org/Graphics/SVG/1.1/DTD/svg11.dtd">
<!-- Generated by graphviz version 2.43.0 (0)
 -->
<!-- Title: include/emlabcpp/protocol/command_group.h Pages: 1 -->
<svg width="1084pt" height="218pt"
 viewBox="0.00 0.00 1084.00 218.00" xmlns="http://www.w3.org/2000/svg" xmlns:xlink="http://www.w3.org/1999/xlink">
<g id="graph0" class="graph" transform="scale(1 1) rotate(0) translate(4 214)">
<title>include/emlabcpp/protocol/command_group.h</title>
<polygon fill="white" stroke="transparent" points="-4,4 -4,-214 1080,-214 1080,4 -4,4"/>
<!-- Node1 -->
<g id="node1" class="node">
<title>Node1</title>
<g id="a_node1"><a xlink:title=" ">
<polygon fill="#bfbfbf" stroke="black" points="469,-179.5 469,-209.5 615,-209.5 615,-179.5 469,-179.5"/>
<text text-anchor="start" x="477" y="-197.5" font-family="Helvetica,sans-Serif" font-size="10.00">include/emlabcpp/protocol</text>
<text text-anchor="middle" x="542" y="-186.5" font-family="Helvetica,sans-Serif" font-size="10.00">/command_group.h</text>
</a>
</g>
</g>
<!-- Node2 -->
<g id="node2" class="node">
<title>Node2</title>
<g id="a_node2"><a xlink:href="assert_8h.html" target="_top" xlink:title=" ">
<polygon fill="white" stroke="black" points="158.5,-123.5 158.5,-142.5 265.5,-142.5 265.5,-123.5 158.5,-123.5"/>
<text text-anchor="middle" x="212" y="-130.5" font-family="Helvetica,sans-Serif" font-size="10.00">emlabcpp/assert.h</text>
</a>
</g>
</g>
<!-- Node1&#45;&gt;Node2 -->
<g id="edge1" class="edge">
<title>Node1&#45;&gt;Node2</title>
<path fill="none" stroke="midnightblue" d="M468.76,-180.3C408.7,-169.47 324.85,-154.35 269.53,-144.37"/>
<polygon fill="midnightblue" stroke="midnightblue" points="270.01,-140.9 259.54,-142.57 268.76,-147.79 270.01,-140.9"/>
</g>
<!-- Node4 -->
<g id="node4" class="node">
<title>Node4</title>
<g id="a_node4"><a xlink:href="traits_8h.html" target="_top" xlink:title=" ">
<polygon fill="white" stroke="black" points="469.5,-123.5 469.5,-142.5 614.5,-142.5 614.5,-123.5 469.5,-123.5"/>
<text text-anchor="middle" x="542" y="-130.5" font-family="Helvetica,sans-Serif" font-size="10.00">emlabcpp/protocol/traits.h</text>
</a>
</g>
</g>
<!-- Node1&#45;&gt;Node4 -->
<g id="edge3" class="edge">
<title>Node1&#45;&gt;Node4</title>
<path fill="none" stroke="midnightblue" d="M542,-179.4C542,-171.47 542,-161.46 542,-152.86"/>
<polygon fill="midnightblue" stroke="midnightblue" points="545.5,-152.66 542,-142.66 538.5,-152.66 545.5,-152.66"/>
</g>
<!-- Node28 -->
<g id="node13" class="node">
<title>Node28</title>
<g id="a_node13"><a xlink:href="types_8h.html" target="_top" xlink:title=" ">
<polygon fill="white" stroke="red" points="972,-62 972,-81 1076,-81 1076,-62 972,-62"/>
<text text-anchor="middle" x="1024" y="-69" font-family="Helvetica,sans-Serif" font-size="10.00">emlabcpp/types.h</text>
</a>
</g>
</g>
<!-- Node1&#45;&gt;Node28 -->
<g id="edge16" class="edge">
<title>Node1&#45;&gt;Node28</title>
<path fill="none" stroke="midnightblue" d="M598.23,-179.38C695.34,-155.01 892.45,-105.52 980.18,-83.5"/>
<polygon fill="midnightblue" stroke="midnightblue" points="981.23,-86.85 990.08,-81.02 979.52,-80.06 981.23,-86.85"/>
</g>
<!-- Node3 -->
<g id="node3" class="node">
<title>Node3</title>
<g id="a_node3"><a xlink:title=" ">
<polygon fill="white" stroke="#bfbfbf" points="0,-62 0,-81 52,-81 52,-62 0,-62"/>
<text text-anchor="middle" x="26" y="-69" font-family="Helvetica,sans-Serif" font-size="10.00">cassert</text>
</a>
</g>
</g>
<!-- Node2&#45;&gt;Node3 -->
<g id="edge2" class="edge">
<title>Node2&#45;&gt;Node3</title>
<path fill="none" stroke="midnightblue" d="M179.88,-123.46C149.1,-115.04 101.47,-101.37 61,-87 59.14,-86.34 57.24,-85.64 55.32,-84.91"/>
<polygon fill="midnightblue" stroke="midnightblue" points="56.44,-81.58 45.85,-81.14 53.85,-88.09 56.44,-81.58"/>
</g>
<!-- Node5 -->
<g id="node5" class="node">
<title>Node5</title>
<g id="a_node5"><a xlink:href="decompose_8h.html" target="_top" xlink:title=" ">
<polygon fill="white" stroke="red" points="70.5,-56.5 70.5,-86.5 203.5,-86.5 203.5,-56.5 70.5,-56.5"/>
<text text-anchor="start" x="78.5" y="-74.5" font-family="Helvetica,sans-Serif" font-size="10.00">emlabcpp/experimental</text>
<text text-anchor="middle" x="137" y="-63.5" font-family="Helvetica,sans-Serif" font-size="10.00">/decompose.h</text>
</a>
</g>
</g>
<!-- Node4&#45;&gt;Node5 -->
<g id="edge4" class="edge">
<title>Node4&#45;&gt;Node5</title>
<path fill="none" stroke="midnightblue" d="M475.18,-123.5C409.59,-114.97 306.76,-101.1 218,-87 216.55,-86.77 215.08,-86.53 213.6,-86.29"/>
<polygon fill="midnightblue" stroke="midnightblue" points="214.15,-82.84 203.71,-84.66 213,-89.74 214.15,-82.84"/>
</g>
<!-- Node17 -->
<g id="node6" class="node">
<title>Node17</title>
<g id="a_node6"><a xlink:href="protocol_2base_8h.html" target="_top" xlink:title=" ">
<polygon fill="white" stroke="red" points="260.5,-62 260.5,-81 403.5,-81 403.5,-62 260.5,-62"/>
<text text-anchor="middle" x="332" y="-69" font-family="Helvetica,sans-Serif" font-size="10.00">emlabcpp/protocol/base.h</text>
</a>
</g>
</g>
<!-- Node4&#45;&gt;Node17 -->
<g id="edge5" class="edge">
<title>Node4&#45;&gt;Node17</title>
<path fill="none" stroke="midnightblue" d="M511.91,-123.48C475.11,-113.05 412.69,-95.36 371.91,-83.81"/>
<polygon fill="midnightblue" stroke="midnightblue" points="372.61,-80.37 362.03,-81.01 370.7,-87.1 372.61,-80.37"/>
</g>
<!-- Node21 -->
<g id="node7" class="node">
<title>Node21</title>
<g id="a_node7"><a xlink:href="protocol_2error_8h.html" target="_top" xlink:title=" ">
<polygon fill="white" stroke="red" points="183,-0.5 183,-19.5 325,-19.5 325,-0.5 183,-0.5"/>
<text text-anchor="middle" x="254" y="-7.5" font-family="Helvetica,sans-Serif" font-size="10.00">emlabcpp/protocol/error.h</text>
</a>
</g>
</g>
<!-- Node4&#45;&gt;Node21 -->
<g id="edge8" class="edge">
<title>Node4&#45;&gt;Node21</title>
<path fill="none" stroke="midnightblue" d="M469.28,-131.16C392.43,-128.54 278.57,-119.17 251,-87 237.61,-71.37 241.63,-46.6 246.83,-29.62"/>
<polygon fill="midnightblue" stroke="midnightblue" points="250.28,-30.35 250.25,-19.75 243.67,-28.06 250.28,-30.35"/>
</g>
<!-- Node16 -->
<g id="node8" class="node">
<title>Node16</title>
<g id="a_node8"><a xlink:title=" ">
<polygon fill="white" stroke="#bfbfbf" points="364.5,-0.5 364.5,-19.5 415.5,-19.5 415.5,-0.5 364.5,-0.5"/>
<text text-anchor="middle" x="390" y="-7.5" font-family="Helvetica,sans-Serif" font-size="10.00">variant</text>
</a>
</g>
</g>
<!-- Node4&#45;&gt;Node16 -->
<g id="edge15" class="edge">
<title>Node4&#45;&gt;Node16</title>
<path fill="none" stroke="midnightblue" d="M517.93,-123.45C498.57,-115.83 471.33,-103.34 451,-87 430.05,-70.17 411.62,-44.97 400.64,-28.26"/>
<polygon fill="midnightblue" stroke="midnightblue" points="403.4,-26.09 395.08,-19.54 397.5,-29.85 403.4,-26.09"/>
</g>
<!-- Node26 -->
<g id="node9" class="node">
<title>Node26</title>
<g id="a_node9"><a xlink:href="message_8h.html" target="_top" xlink:title=" ">
<polygon fill="white" stroke="red" points="460,-62 460,-81 624,-81 624,-62 460,-62"/>
<text text-anchor="middle" x="542" y="-69" font-family="Helvetica,sans-Serif" font-size="10.00">emlabcpp/protocol/message.h</text>
</a>
</g>
</g>
<!-- Node4&#45;&gt;Node26 -->
<g id="edge9" class="edge">
<title>Node4&#45;&gt;Node26</title>
<path fill="none" stroke="midnightblue" d="M542,-123.48C542,-115.08 542,-101.98 542,-91.16"/>
<polygon fill="midnightblue" stroke="midnightblue" points="545.5,-91.01 542,-81.01 538.5,-91.01 545.5,-91.01"/>
</g>
<!-- Node20 -->
<g id="node10" class="node">
<title>Node20</title>
<g id="a_node10"><a xlink:title=" ">
<polygon fill="white" stroke="#bfbfbf" points="569,-0.5 569,-19.5 625,-19.5 625,-0.5 569,-0.5"/>
<text text-anchor="middle" x="597" y="-7.5" font-family="Helvetica,sans-Serif" font-size="10.00">optional</text>
</a>
</g>
</g>
<!-- Node4&#45;&gt;Node20 -->
<g id="edge14" class="edge">
<title>Node4&#45;&gt;Node20</title>
<path fill="none" stroke="midnightblue" d="M579.97,-123.41C599.41,-116.88 621.38,-105.72 633,-87 645.2,-67.36 628.52,-42.93 614.03,-27.15"/>
<polygon fill="midnightblue" stroke="midnightblue" points="616.31,-24.47 606.82,-19.77 611.3,-29.37 616.31,-24.47"/>
</g>
<!-- Node30 -->
<g id="node11" class="node">
<title>Node30</title>
<g id="a_node11"><a xlink:href="quantity_8h.html" target="_top" xlink:title=" ">
<polygon fill="white" stroke="red" points="680,-62 680,-81 796,-81 796,-62 680,-62"/>
<text text-anchor="middle" x="738" y="-69" font-family="Helvetica,sans-Serif" font-size="10.00">emlabcpp/quantity.h</text>
</a>
</g>
</g>
<!-- Node4&#45;&gt;Node30 -->
<g id="edge11" class="edge">
<title>Node4&#45;&gt;Node30</title>
<path fill="none" stroke="midnightblue" d="M570.08,-123.48C604.29,-113.09 662.2,-95.51 700.27,-83.95"/>
<polygon fill="midnightblue" stroke="midnightblue" points="701.42,-87.26 709.97,-81.01 699.38,-80.56 701.42,-87.26"/>
</g>
<!-- Node35 -->
<g id="node12" class="node">
<title>Node35</title>
<g id="a_node12"><a xlink:href="static__vector_8h.html" target="_top" xlink:title=" ">
<polygon fill="white" stroke="red" points="814.5,-62 814.5,-81 953.5,-81 953.5,-62 814.5,-62"/>
<text text-anchor="middle" x="884" y="-69" font-family="Helvetica,sans-Serif" font-size="10.00">emlabcpp/static_vector.h</text>
</a>
</g>
</g>
<!-- Node4&#45;&gt;Node35 -->
<g id="edge12" class="edge">
<title>Node4&#45;&gt;Node35</title>
<path fill="none" stroke="midnightblue" d="M592.94,-123.47C645.95,-114.55 731.34,-100.06 805,-87 812.45,-85.68 820.28,-84.27 828.01,-82.86"/>
<polygon fill="midnightblue" stroke="midnightblue" points="828.86,-86.27 838.07,-81.03 827.6,-79.38 828.86,-86.27"/>
</g>
<!-- Node4&#45;&gt;Node28 -->
<g id="edge13" class="edge">
<title>Node4&#45;&gt;Node28</title>
<path fill="none" stroke="midnightblue" d="M614.84,-126.93C698.89,-120.45 841.08,-107.54 962,-87 968.22,-85.94 974.75,-84.64 981.14,-83.24"/>
<polygon fill="midnightblue" stroke="midnightblue" points="982.03,-86.63 991.01,-81.01 980.48,-79.8 982.03,-86.63"/>
</g>
<!-- Node17&#45;&gt;Node21 -->
<g id="edge6" class="edge">
<title>Node17&#45;&gt;Node21</title>
<path fill="none" stroke="midnightblue" d="M320.82,-61.98C308.43,-52.52 288.21,-37.1 273.25,-25.69"/>
<polygon fill="midnightblue" stroke="midnightblue" points="275.23,-22.79 265.15,-19.51 270.98,-28.36 275.23,-22.79"/>
</g>
<!-- Node17&#45;&gt;Node16 -->
<g id="edge7" class="edge">
<title>Node17&#45;&gt;Node16</title>
<path fill="none" stroke="midnightblue" d="M340.31,-61.98C349.18,-52.87 363.45,-38.24 374.42,-26.98"/>
<polygon fill="midnightblue" stroke="midnightblue" points="377.23,-29.11 381.71,-19.51 372.22,-24.23 377.23,-29.11"/>
</g>
<!-- Node26&#45;&gt;Node20 -->
<g id="edge10" class="edge">
<title>Node26&#45;&gt;Node20</title>
<path fill="none" stroke="midnightblue" d="M549.88,-61.98C558.29,-52.87 571.82,-38.24 582.23,-26.98"/>
<polygon fill="midnightblue" stroke="midnightblue" points="584.92,-29.23 589.13,-19.51 579.78,-24.48 584.92,-29.23"/>
</g>
</g>
</svg>
