<?xml version="1.0" encoding="UTF-8" standalone="no"?>
<!DOCTYPE svg PUBLIC "-//W3C//DTD SVG 1.1//EN"
 "http://www.w3.org/Graphics/SVG/1.1/DTD/svg11.dtd">
<!-- Generated by graphviz version 2.43.0 (0)
 -->
<!-- Title: include/emlabcpp/protocol/command_group.h Pages: 1 -->
<svg width="1264pt" height="285pt"
 viewBox="0.00 0.00 1264.45 285.00" xmlns="http://www.w3.org/2000/svg" xmlns:xlink="http://www.w3.org/1999/xlink">
<g id="graph0" class="graph" transform="scale(1 1) rotate(0) translate(4 281)">
<title>include/emlabcpp/protocol/command_group.h</title>
<polygon fill="white" stroke="transparent" points="-4,4 -4,-281 1260.45,-281 1260.45,4 -4,4"/>
<!-- Node1 -->
<g id="node1" class="node">
<title>Node1</title>
<g id="a_node1"><a xlink:title=" ">
<polygon fill="#bfbfbf" stroke="black" points="545.45,-246.5 545.45,-276.5 691.45,-276.5 691.45,-246.5 545.45,-246.5"/>
<text text-anchor="start" x="553.45" y="-264.5" font-family="Helvetica,sans-Serif" font-size="10.00">include/emlabcpp/protocol</text>
<text text-anchor="middle" x="618.45" y="-253.5" font-family="Helvetica,sans-Serif" font-size="10.00">/command_group.h</text>
</a>
</g>
</g>
<!-- Node2 -->
<g id="node2" class="node">
<title>Node2</title>
<g id="a_node2"><a xlink:href="algorithm_8h.html" target="_top" xlink:title=" ">
<polygon fill="white" stroke="black" points="274.45,-129 274.45,-148 398.45,-148 398.45,-129 274.45,-129"/>
<text text-anchor="middle" x="336.45" y="-136" font-family="Helvetica,sans-Serif" font-size="10.00">emlabcpp/algorithm.h</text>
</a>
</g>
</g>
<!-- Node1&#45;&gt;Node2 -->
<g id="edge1" class="edge">
<title>Node1&#45;&gt;Node2</title>
<path fill="none" stroke="midnightblue" d="M585.55,-246.38C530.13,-222.61 419.04,-174.94 365.98,-152.17"/>
<polygon fill="midnightblue" stroke="midnightblue" points="367.04,-148.82 356.47,-148.09 364.28,-155.25 367.04,-148.82"/>
</g>
<!-- Node4 -->
<g id="node4" class="node">
<title>Node4</title>
<g id="a_node4"><a xlink:href="types_8h.html" target="_top" xlink:title=" ">
<polygon fill="white" stroke="red" points="33.45,-0.5 33.45,-19.5 137.45,-19.5 137.45,-0.5 33.45,-0.5"/>
<text text-anchor="middle" x="85.45" y="-7.5" font-family="Helvetica,sans-Serif" font-size="10.00">emlabcpp/types.h</text>
</a>
</g>
</g>
<!-- Node1&#45;&gt;Node4 -->
<g id="edge33" class="edge">
<title>Node1&#45;&gt;Node4</title>
<path fill="none" stroke="midnightblue" d="M545.34,-257.48C403.45,-250.05 98.32,-225.93 26.45,-154 -4.57,-122.96 -6.7,-94.45 14.45,-56 22.33,-41.66 36.93,-31.25 50.85,-24.08"/>
<polygon fill="midnightblue" stroke="midnightblue" points="52.74,-27.06 60.29,-19.62 49.75,-20.73 52.74,-27.06"/>
</g>
<!-- Node42 -->
<g id="node12" class="node">
<title>Node42</title>
<g id="a_node12"><a xlink:href="assert_8h.html" target="_top" xlink:title=" ">
<polygon fill="white" stroke="black" points="989.95,-190.5 989.95,-209.5 1096.95,-209.5 1096.95,-190.5 989.95,-190.5"/>
<text text-anchor="middle" x="1043.45" y="-197.5" font-family="Helvetica,sans-Serif" font-size="10.00">emlabcpp/assert.h</text>
</a>
</g>
</g>
<!-- Node1&#45;&gt;Node42 -->
<g id="edge14" class="edge">
<title>Node1&#45;&gt;Node42</title>
<path fill="none" stroke="midnightblue" d="M691.51,-250.27C772.71,-238.9 902.54,-220.73 979.75,-209.92"/>
<polygon fill="midnightblue" stroke="midnightblue" points="980.41,-213.36 989.82,-208.51 979.44,-206.43 980.41,-213.36"/>
</g>
<!-- Node44 -->
<g id="node14" class="node">
<title>Node44</title>
<g id="a_node14"><a xlink:href="traits_8h.html" target="_top" xlink:title=" ">
<polygon fill="white" stroke="black" points="639.95,-190.5 639.95,-209.5 784.95,-209.5 784.95,-190.5 639.95,-190.5"/>
<text text-anchor="middle" x="712.45" y="-197.5" font-family="Helvetica,sans-Serif" font-size="10.00">emlabcpp/protocol/traits.h</text>
</a>
</g>
</g>
<!-- Node1&#45;&gt;Node44 -->
<g id="edge16" class="edge">
<title>Node1&#45;&gt;Node44</title>
<path fill="none" stroke="midnightblue" d="M640.72,-246.4C655.65,-236.95 675.23,-224.56 690.16,-215.11"/>
<polygon fill="midnightblue" stroke="midnightblue" points="692.19,-217.96 698.77,-209.66 688.45,-212.05 692.19,-217.96"/>
</g>
<!-- Node3 -->
<g id="node3" class="node">
<title>Node3</title>
<g id="a_node3"><a xlink:href="impl_8h.html" target="_top" xlink:title=" ">
<polygon fill="white" stroke="black" points="398.95,-56.5 398.95,-86.5 513.95,-86.5 513.95,-56.5 398.95,-56.5"/>
<text text-anchor="start" x="406.95" y="-74.5" font-family="Helvetica,sans-Serif" font-size="10.00">emlabcpp/algorithm</text>
<text text-anchor="middle" x="456.45" y="-63.5" font-family="Helvetica,sans-Serif" font-size="10.00">/impl.h</text>
</a>
</g>
</g>
<!-- Node2&#45;&gt;Node3 -->
<g id="edge2" class="edge">
<title>Node2&#45;&gt;Node3</title>
<path fill="none" stroke="midnightblue" d="M352.63,-128.73C370.17,-119.23 398.7,-103.78 421.42,-91.47"/>
<polygon fill="midnightblue" stroke="midnightblue" points="423.31,-94.43 430.44,-86.59 419.98,-88.27 423.31,-94.43"/>
</g>
<!-- Node2&#45;&gt;Node4 -->
<g id="edge8" class="edge">
<title>Node2&#45;&gt;Node4</title>
<path fill="none" stroke="midnightblue" d="M298.21,-128.99C266.09,-120.92 219.6,-107.02 182.45,-87 162.95,-76.5 160.86,-69.68 143.45,-56 130.51,-45.84 115.87,-34.48 104.54,-25.72"/>
<polygon fill="midnightblue" stroke="midnightblue" points="106.65,-22.93 96.6,-19.59 102.37,-28.47 106.65,-22.93"/>
</g>
<!-- Node10 -->
<g id="node5" class="node">
<title>Node10</title>
<g id="a_node5"><a xlink:title=" ">
<polygon fill="white" stroke="#bfbfbf" points="521.95,-0.5 521.95,-19.5 562.95,-19.5 562.95,-0.5 521.95,-0.5"/>
<text text-anchor="middle" x="542.45" y="-7.5" font-family="Helvetica,sans-Serif" font-size="10.00">tuple</text>
</a>
</g>
</g>
<!-- Node2&#45;&gt;Node10 -->
<g id="edge13" class="edge">
<title>Node2&#45;&gt;Node10</title>
<path fill="none" stroke="midnightblue" d="M376.11,-128.95C427.57,-117.51 512.05,-97.48 522.45,-87 537.36,-71.97 541.54,-47.23 542.52,-30.08"/>
<polygon fill="midnightblue" stroke="midnightblue" points="546.03,-29.72 542.78,-19.63 539.03,-29.54 546.03,-29.72"/>
</g>
<!-- Node17 -->
<g id="node6" class="node">
<title>Node17</title>
<g id="a_node6"><a xlink:href="bounded_8h.html" target="_top" xlink:title=" ">
<polygon fill="white" stroke="red" points="798.95,-62 798.95,-81 917.95,-81 917.95,-62 798.95,-62"/>
<text text-anchor="middle" x="858.45" y="-69" font-family="Helvetica,sans-Serif" font-size="10.00">emlabcpp/bounded.h</text>
</a>
</g>
</g>
<!-- Node2&#45;&gt;Node17 -->
<g id="edge5" class="edge">
<title>Node2&#45;&gt;Node17</title>
<path fill="none" stroke="midnightblue" d="M375.02,-128.96C385.51,-126.82 396.88,-124.67 407.45,-123 541.63,-101.83 699.66,-86.27 788.53,-78.36"/>
<polygon fill="midnightblue" stroke="midnightblue" points="789.1,-81.83 798.76,-77.46 788.49,-74.85 789.1,-81.83"/>
</g>
<!-- Node25 -->
<g id="node8" class="node">
<title>Node25</title>
<g id="a_node8"><a xlink:href="min__max_8h.html" target="_top" xlink:title=" ">
<polygon fill="white" stroke="red" points="191.45,-62 191.45,-81 313.45,-81 313.45,-62 191.45,-62"/>
<text text-anchor="middle" x="252.45" y="-69" font-family="Helvetica,sans-Serif" font-size="10.00">emlabcpp/min_max.h</text>
</a>
</g>
</g>
<!-- Node2&#45;&gt;Node25 -->
<g id="edge7" class="edge">
<title>Node2&#45;&gt;Node25</title>
<path fill="none" stroke="midnightblue" d="M325.12,-128.73C311.39,-118.11 288.05,-100.05 271.53,-87.26"/>
<polygon fill="midnightblue" stroke="midnightblue" points="273.65,-84.48 263.6,-81.13 269.36,-90.02 273.65,-84.48"/>
</g>
<!-- Node30 -->
<g id="node9" class="node">
<title>Node30</title>
<g id="a_node9"><a xlink:href="view_8h.html" target="_top" xlink:title=" ">
<polygon fill="white" stroke="red" points="35.95,-62 35.95,-81 134.95,-81 134.95,-62 35.95,-62"/>
<text text-anchor="middle" x="85.45" y="-69" font-family="Helvetica,sans-Serif" font-size="10.00">emlabcpp/view.h</text>
</a>
</g>
</g>
<!-- Node2&#45;&gt;Node30 -->
<g id="edge9" class="edge">
<title>Node2&#45;&gt;Node30</title>
<path fill="none" stroke="midnightblue" d="M303.37,-128.94C258.42,-117.29 177.95,-96.45 128.37,-83.62"/>
<polygon fill="midnightblue" stroke="midnightblue" points="129.15,-80.2 118.59,-81.08 127.39,-86.98 129.15,-80.2"/>
</g>
<!-- Node40 -->
<g id="node10" class="node">
<title>Node40</title>
<g id="a_node10"><a xlink:title=" ">
<polygon fill="white" stroke="#bfbfbf" points="570.95,-62 570.95,-81 617.95,-81 617.95,-62 570.95,-62"/>
<text text-anchor="middle" x="594.45" y="-69" font-family="Helvetica,sans-Serif" font-size="10.00">cmath</text>
</a>
</g>
</g>
<!-- Node2&#45;&gt;Node40 -->
<g id="edge11" class="edge">
<title>Node2&#45;&gt;Node40</title>
<path fill="none" stroke="midnightblue" d="M376.89,-128.92C430.8,-117.37 523.26,-97.09 556.45,-87 559.02,-86.22 561.66,-85.35 564.31,-84.43"/>
<polygon fill="midnightblue" stroke="midnightblue" points="565.52,-87.72 573.72,-81.01 563.13,-81.14 565.52,-87.72"/>
</g>
<!-- Node41 -->
<g id="node11" class="node">
<title>Node41</title>
<g id="a_node11"><a xlink:title=" ">
<polygon fill="white" stroke="#bfbfbf" points="331.95,-62 331.95,-81 380.95,-81 380.95,-62 331.95,-62"/>
<text text-anchor="middle" x="356.45" y="-69" font-family="Helvetica,sans-Serif" font-size="10.00">cstdlib</text>
</a>
</g>
</g>
<!-- Node2&#45;&gt;Node41 -->
<g id="edge12" class="edge">
<title>Node2&#45;&gt;Node41</title>
<path fill="none" stroke="midnightblue" d="M339.14,-128.73C342.11,-119.09 346.97,-103.3 350.78,-90.91"/>
<polygon fill="midnightblue" stroke="midnightblue" points="354.2,-91.71 353.79,-81.13 347.51,-89.66 354.2,-91.71"/>
</g>
<!-- Node3&#45;&gt;Node4 -->
<g id="edge3" class="edge">
<title>Node3&#45;&gt;Node4</title>
<path fill="none" stroke="midnightblue" d="M398.75,-57.76C395.61,-57.15 392.49,-56.55 389.45,-56 306.04,-40.82 209.05,-27.15 147.47,-18.96"/>
<polygon fill="midnightblue" stroke="midnightblue" points="147.9,-15.48 137.53,-17.64 146.98,-22.42 147.9,-15.48"/>
</g>
<!-- Node3&#45;&gt;Node10 -->
<g id="edge4" class="edge">
<title>Node3&#45;&gt;Node10</title>
<path fill="none" stroke="midnightblue" d="M476.83,-56.4C490.35,-47.04 508.06,-34.79 521.67,-25.38"/>
<polygon fill="midnightblue" stroke="midnightblue" points="523.7,-28.23 529.93,-19.66 519.72,-22.47 523.7,-28.23"/>
</g>
<!-- Node37 -->
<g id="node7" class="node">
<title>Node37</title>
<g id="a_node7"><a xlink:title=" ">
<polygon fill="white" stroke="#bfbfbf" points="989.45,-0.5 989.45,-19.5 1045.45,-19.5 1045.45,-0.5 989.45,-0.5"/>
<text text-anchor="middle" x="1017.45" y="-7.5" font-family="Helvetica,sans-Serif" font-size="10.00">optional</text>
</a>
</g>
</g>
<!-- Node17&#45;&gt;Node37 -->
<g id="edge6" class="edge">
<title>Node17&#45;&gt;Node37</title>
<path fill="none" stroke="midnightblue" d="M881.23,-61.98C908.5,-51.77 954.36,-34.61 985.25,-23.05"/>
<polygon fill="midnightblue" stroke="midnightblue" points="986.57,-26.29 994.71,-19.51 984.12,-19.74 986.57,-26.29"/>
</g>
<!-- Node30&#45;&gt;Node4 -->
<g id="edge10" class="edge">
<title>Node30&#45;&gt;Node4</title>
<path fill="none" stroke="midnightblue" d="M85.45,-61.98C85.45,-53.58 85.45,-40.48 85.45,-29.66"/>
<polygon fill="midnightblue" stroke="midnightblue" points="88.95,-29.51 85.45,-19.51 81.95,-29.51 88.95,-29.51"/>
</g>
<!-- Node43 -->
<g id="node13" class="node">
<title>Node43</title>
<g id="a_node13"><a xlink:title=" ">
<polygon fill="white" stroke="#bfbfbf" points="1204.45,-129 1204.45,-148 1256.45,-148 1256.45,-129 1204.45,-129"/>
<text text-anchor="middle" x="1230.45" y="-136" font-family="Helvetica,sans-Serif" font-size="10.00">cassert</text>
</a>
</g>
</g>
<!-- Node42&#45;&gt;Node43 -->
<g id="edge15" class="edge">
<title>Node42&#45;&gt;Node43</title>
<path fill="none" stroke="midnightblue" d="M1072.87,-190.47C1102.65,-181.73 1149.94,-167.53 1190.45,-154 1192.84,-153.2 1195.3,-152.36 1197.78,-151.5"/>
<polygon fill="midnightblue" stroke="midnightblue" points="1199,-154.78 1207.25,-148.13 1196.65,-148.18 1199,-154.78"/>
</g>
<!-- Node44&#45;&gt;Node4 -->
<g id="edge29" class="edge">
<title>Node44&#45;&gt;Node4</title>
<path fill="none" stroke="midnightblue" d="M639.84,-197.8C480.83,-194.61 112.16,-184.05 64.45,-154 24.92,-129.1 5.72,-97.87 26.45,-56 33.05,-42.66 45.71,-32.19 57.62,-24.73"/>
<polygon fill="midnightblue" stroke="midnightblue" points="59.56,-27.64 66.46,-19.6 56.05,-21.59 59.56,-27.64"/>
</g>
<!-- Node44&#45;&gt;Node37 -->
<g id="edge31" class="edge">
<title>Node44&#45;&gt;Node37</title>
<path fill="none" stroke="midnightblue" d="M785.14,-195.76C899.75,-190 1112.18,-176.43 1138.45,-154 1172.12,-125.24 1182.49,-91.81 1156.45,-56 1133.63,-24.63 1088.46,-14.68 1055.79,-11.75"/>
<polygon fill="midnightblue" stroke="midnightblue" points="1055.89,-8.25 1045.67,-11.03 1055.39,-15.23 1055.89,-8.25"/>
</g>
<!-- Node22 -->
<g id="node15" class="node">
<title>Node22</title>
<g id="a_node15"><a xlink:href="decompose_8h.html" target="_top" xlink:title=" ">
<polygon fill="white" stroke="red" points="550.95,-123.5 550.95,-153.5 683.95,-153.5 683.95,-123.5 550.95,-123.5"/>
<text text-anchor="start" x="558.95" y="-141.5" font-family="Helvetica,sans-Serif" font-size="10.00">emlabcpp/experimental</text>
<text text-anchor="middle" x="617.45" y="-130.5" font-family="Helvetica,sans-Serif" font-size="10.00">/decompose.h</text>
</a>
</g>
</g>
<!-- Node44&#45;&gt;Node22 -->
<g id="edge17" class="edge">
<title>Node44&#45;&gt;Node22</title>
<path fill="none" stroke="midnightblue" d="M698.84,-190.48C685.73,-182.27 665.44,-169.56 648.4,-158.88"/>
<polygon fill="midnightblue" stroke="midnightblue" points="650.17,-155.86 639.84,-153.52 646.45,-161.8 650.17,-155.86"/>
</g>
<!-- Node45 -->
<g id="node16" class="node">
<title>Node45</title>
<g id="a_node16"><a xlink:href="protocol_2base_8h.html" target="_top" xlink:title=" ">
<polygon fill="white" stroke="red" points="966.95,-129 966.95,-148 1109.95,-148 1109.95,-129 966.95,-129"/>
<text text-anchor="middle" x="1038.45" y="-136" font-family="Helvetica,sans-Serif" font-size="10.00">emlabcpp/protocol/base.h</text>
</a>
</g>
</g>
<!-- Node44&#45;&gt;Node45 -->
<g id="edge19" class="edge">
<title>Node44&#45;&gt;Node45</title>
<path fill="none" stroke="midnightblue" d="M759.15,-190.48C817.86,-179.76 918.55,-161.38 981.65,-149.87"/>
<polygon fill="midnightblue" stroke="midnightblue" points="982.62,-153.25 991.83,-148.01 981.36,-146.36 982.62,-153.25"/>
</g>
<!-- Node46 -->
<g id="node17" class="node">
<title>Node46</title>
<g id="a_node17"><a xlink:href="protocol_2error_8h.html" target="_top" xlink:title=" ">
<polygon fill="white" stroke="red" points="936.45,-62 936.45,-81 1078.45,-81 1078.45,-62 936.45,-62"/>
<text text-anchor="middle" x="1007.45" y="-69" font-family="Helvetica,sans-Serif" font-size="10.00">emlabcpp/protocol/error.h</text>
</a>
</g>
</g>
<!-- Node44&#45;&gt;Node46 -->
<g id="edge23" class="edge">
<title>Node44&#45;&gt;Node46</title>
<path fill="none" stroke="midnightblue" d="M711.84,-190.47C711.24,-174.68 712.4,-140.86 731.45,-123 732.45,-122.06 869.29,-97.33 949.89,-82.83"/>
<polygon fill="midnightblue" stroke="midnightblue" points="950.68,-86.25 959.91,-81.03 949.44,-79.36 950.68,-86.25"/>
</g>
<!-- Node15 -->
<g id="node18" class="node">
<title>Node15</title>
<g id="a_node18"><a xlink:title=" ">
<polygon fill="white" stroke="#bfbfbf" points="1096.95,-62 1096.95,-81 1147.95,-81 1147.95,-62 1096.95,-62"/>
<text text-anchor="middle" x="1122.45" y="-69" font-family="Helvetica,sans-Serif" font-size="10.00">variant</text>
</a>
</g>
</g>
<!-- Node44&#45;&gt;Node15 -->
<g id="edge32" class="edge">
<title>Node44&#45;&gt;Node15</title>
<path fill="none" stroke="midnightblue" d="M784.97,-195.98C895.59,-190.65 1096.07,-177.8 1118.45,-154 1134.11,-137.34 1131.61,-109.29 1127.63,-90.83"/>
<polygon fill="midnightblue" stroke="midnightblue" points="1130.99,-89.86 1125.17,-81 1124.2,-91.55 1130.99,-89.86"/>
</g>
<!-- Node51 -->
<g id="node19" class="node">
<title>Node51</title>
<g id="a_node19"><a xlink:href="message_8h.html" target="_top" xlink:title=" ">
<polygon fill="white" stroke="red" points="73.45,-129 73.45,-148 237.45,-148 237.45,-129 73.45,-129"/>
<text text-anchor="middle" x="155.45" y="-136" font-family="Helvetica,sans-Serif" font-size="10.00">emlabcpp/protocol/message.h</text>
</a>
</g>
</g>
<!-- Node44&#45;&gt;Node51 -->
<g id="edge24" class="edge">
<title>Node44&#45;&gt;Node51</title>
<path fill="none" stroke="midnightblue" d="M639.59,-192.36C551.05,-184.13 397.15,-169.31 265.45,-154 253.14,-152.57 240.08,-150.94 227.41,-149.31"/>
<polygon fill="midnightblue" stroke="midnightblue" points="227.73,-145.82 217.36,-148 226.83,-152.76 227.73,-145.82"/>
</g>
<!-- Node52 -->
<g id="node20" class="node">
<title>Node52</title>
<g id="a_node20"><a xlink:href="quantity_8h.html" target="_top" xlink:title=" ">
<polygon fill="white" stroke="red" points="416.45,-129 416.45,-148 532.45,-148 532.45,-129 416.45,-129"/>
<text text-anchor="middle" x="474.45" y="-136" font-family="Helvetica,sans-Serif" font-size="10.00">emlabcpp/quantity.h</text>
</a>
</g>
</g>
<!-- Node44&#45;&gt;Node52 -->
<g id="edge26" class="edge">
<title>Node44&#45;&gt;Node52</title>
<path fill="none" stroke="midnightblue" d="M678.35,-190.48C636.2,-179.94 564.39,-161.99 518.21,-150.44"/>
<polygon fill="midnightblue" stroke="midnightblue" points="519.03,-147.04 508.48,-148.01 517.34,-153.83 519.03,-147.04"/>
</g>
<!-- Node55 -->
<g id="node21" class="node">
<title>Node55</title>
<g id="a_node21"><a xlink:href="static__vector_8h.html" target="_top" xlink:title=" ">
<polygon fill="white" stroke="red" points="740.95,-129 740.95,-148 879.95,-148 879.95,-129 740.95,-129"/>
<text text-anchor="middle" x="810.45" y="-136" font-family="Helvetica,sans-Serif" font-size="10.00">emlabcpp/static_vector.h</text>
</a>
</g>
</g>
<!-- Node44&#45;&gt;Node55 -->
<g id="edge28" class="edge">
<title>Node44&#45;&gt;Node55</title>
<path fill="none" stroke="midnightblue" d="M726.49,-190.48C742.5,-180.75 768.9,-164.73 787.82,-153.24"/>
<polygon fill="midnightblue" stroke="midnightblue" points="789.7,-156.19 796.43,-148.01 786.07,-150.21 789.7,-156.19"/>
</g>
<!-- Node34 -->
<g id="node22" class="node">
<title>Node34</title>
<g id="a_node22"><a xlink:title=" ">
<polygon fill="white" stroke="#bfbfbf" points="898.45,-129 898.45,-148 948.45,-148 948.45,-129 898.45,-129"/>
<text text-anchor="middle" x="923.45" y="-136" font-family="Helvetica,sans-Serif" font-size="10.00">chrono</text>
</a>
</g>
</g>
<!-- Node44&#45;&gt;Node34 -->
<g id="edge30" class="edge">
<title>Node44&#45;&gt;Node34</title>
<path fill="none" stroke="midnightblue" d="M752.41,-190.49C788.39,-182.43 842.52,-169.3 888.45,-154 890.37,-153.36 892.33,-152.67 894.3,-151.94"/>
<polygon fill="midnightblue" stroke="midnightblue" points="895.98,-155.04 904.01,-148.13 893.42,-148.52 895.98,-155.04"/>
</g>
<!-- Node22&#45;&gt;Node10 -->
<g id="edge18" class="edge">
<title>Node22&#45;&gt;Node10</title>
<path fill="none" stroke="midnightblue" d="M623.9,-123.42C630.73,-106.23 638.95,-76.89 626.45,-56 614.92,-36.75 592.03,-25.27 573.05,-18.72"/>
<polygon fill="midnightblue" stroke="midnightblue" points="573.88,-15.31 563.29,-15.66 571.78,-21.99 573.88,-15.31"/>
</g>
<!-- Node45&#45;&gt;Node17 -->
<g id="edge20" class="edge">
<title>Node45&#45;&gt;Node17</title>
<path fill="none" stroke="midnightblue" d="M1014.54,-128.87C982.99,-117.47 927.27,-97.35 891.64,-84.49"/>
<polygon fill="midnightblue" stroke="midnightblue" points="892.76,-81.17 882.16,-81.06 890.38,-87.75 892.76,-81.17"/>
</g>
<!-- Node45&#45;&gt;Node46 -->
<g id="edge21" class="edge">
<title>Node45&#45;&gt;Node46</title>
<path fill="none" stroke="midnightblue" d="M1034.27,-128.73C1029.57,-118.89 1021.83,-102.66 1015.87,-90.16"/>
<polygon fill="midnightblue" stroke="midnightblue" points="1019.02,-88.65 1011.56,-81.13 1012.71,-91.66 1019.02,-88.65"/>
</g>
<!-- Node45&#45;&gt;Node15 -->
<g id="edge22" class="edge">
<title>Node45&#45;&gt;Node15</title>
<path fill="none" stroke="midnightblue" d="M1049.77,-128.73C1063.5,-118.11 1086.85,-100.05 1103.37,-87.26"/>
<polygon fill="midnightblue" stroke="midnightblue" points="1105.53,-90.02 1111.3,-81.13 1101.25,-84.48 1105.53,-90.02"/>
</g>
<!-- Node51&#45;&gt;Node30 -->
<g id="edge25" class="edge">
<title>Node51&#45;&gt;Node30</title>
<path fill="none" stroke="midnightblue" d="M146.01,-128.73C134.78,-118.31 115.82,-100.71 102.11,-87.97"/>
<polygon fill="midnightblue" stroke="midnightblue" points="104.45,-85.37 94.74,-81.13 99.68,-90.5 104.45,-85.37"/>
</g>
<!-- Node52&#45;&gt;Node40 -->
<g id="edge27" class="edge">
<title>Node52&#45;&gt;Node40</title>
<path fill="none" stroke="midnightblue" d="M490.63,-128.73C510.87,-117.77 545.74,-98.88 569.43,-86.05"/>
<polygon fill="midnightblue" stroke="midnightblue" points="571.39,-88.97 578.52,-81.13 568.06,-82.81 571.39,-88.97"/>
</g>
</g>
</svg>
