<?xml version="1.0" encoding="UTF-8" standalone="no"?>
<!DOCTYPE svg PUBLIC "-//W3C//DTD SVG 1.1//EN"
 "http://www.w3.org/Graphics/SVG/1.1/DTD/svg11.dtd">
<!-- Generated by graphviz version 2.43.0 (0)
 -->
<!-- Title: include/emlabcpp/protocol/command_group.h Pages: 1 -->
<svg width="1159pt" height="285pt"
 viewBox="0.00 0.00 1159.06 285.00" xmlns="http://www.w3.org/2000/svg" xmlns:xlink="http://www.w3.org/1999/xlink">
<g id="graph0" class="graph" transform="scale(1 1) rotate(0) translate(4 281)">
<title>include/emlabcpp/protocol/command_group.h</title>
<polygon fill="white" stroke="transparent" points="-4,4 -4,-281 1155.06,-281 1155.06,4 -4,4"/>
<!-- Node1 -->
<g id="node1" class="node">
<title>Node1</title>
<g id="a_node1"><a xlink:title=" ">
<polygon fill="#bfbfbf" stroke="black" points="428.06,-246.5 428.06,-276.5 574.06,-276.5 574.06,-246.5 428.06,-246.5"/>
<text text-anchor="start" x="436.06" y="-264.5" font-family="Helvetica,sans-Serif" font-size="10.00">include/emlabcpp/protocol</text>
<text text-anchor="middle" x="501.06" y="-253.5" font-family="Helvetica,sans-Serif" font-size="10.00">/command_group.h</text>
</a>
</g>
</g>
<!-- Node2 -->
<g id="node2" class="node">
<title>Node2</title>
<g id="a_node2"><a xlink:href="algorithm_8h.html" target="_top" xlink:title=" ">
<polygon fill="white" stroke="black" points="200.06,-129 200.06,-148 324.06,-148 324.06,-129 200.06,-129"/>
<text text-anchor="middle" x="262.06" y="-136" font-family="Helvetica,sans-Serif" font-size="10.00">emlabcpp/algorithm.h</text>
</a>
</g>
</g>
<!-- Node1&#45;&gt;Node2 -->
<g id="edge1" class="edge">
<title>Node1&#45;&gt;Node2</title>
<path fill="none" stroke="midnightblue" d="M473.17,-246.38C426.6,-222.8 333.62,-175.73 288.22,-152.74"/>
<polygon fill="midnightblue" stroke="midnightblue" points="289.53,-149.49 279.03,-148.09 286.37,-155.73 289.53,-149.49"/>
</g>
<!-- Node4 -->
<g id="node4" class="node">
<title>Node4</title>
<g id="a_node4"><a xlink:href="types_8h.html" target="_top" xlink:title=" ">
<polygon fill="white" stroke="red" points="152.06,-0.5 152.06,-19.5 256.06,-19.5 256.06,-0.5 152.06,-0.5"/>
<text text-anchor="middle" x="204.06" y="-7.5" font-family="Helvetica,sans-Serif" font-size="10.00">emlabcpp/types.h</text>
</a>
</g>
</g>
<!-- Node1&#45;&gt;Node4 -->
<g id="edge31" class="edge">
<title>Node1&#45;&gt;Node4</title>
<path fill="none" stroke="midnightblue" d="M427.76,-255.6C303.73,-245.62 60.84,-218.2 9.06,-154 -25.55,-111.1 54.49,-64.37 67.06,-56 91.45,-39.76 122.18,-28.97 148.35,-22.03"/>
<polygon fill="midnightblue" stroke="midnightblue" points="149.29,-25.4 158.13,-19.56 147.58,-18.61 149.29,-25.4"/>
</g>
<!-- Node41 -->
<g id="node11" class="node">
<title>Node41</title>
<g id="a_node11"><a xlink:href="assert_8h.html" target="_top" xlink:title=" ">
<polygon fill="white" stroke="black" points="918.56,-190.5 918.56,-209.5 1025.56,-209.5 1025.56,-190.5 918.56,-190.5"/>
<text text-anchor="middle" x="972.06" y="-197.5" font-family="Helvetica,sans-Serif" font-size="10.00">emlabcpp/assert.h</text>
</a>
</g>
</g>
<!-- Node1&#45;&gt;Node41 -->
<g id="edge13" class="edge">
<title>Node1&#45;&gt;Node41</title>
<path fill="none" stroke="midnightblue" d="M574.13,-251.27C665.72,-239.7 821.22,-220.05 908.24,-209.06"/>
<polygon fill="midnightblue" stroke="midnightblue" points="908.76,-212.52 918.24,-207.8 907.88,-205.58 908.76,-212.52"/>
</g>
<!-- Node43 -->
<g id="node13" class="node">
<title>Node43</title>
<g id="a_node13"><a xlink:href="traits_8h.html" target="_top" xlink:title=" ">
<polygon fill="white" stroke="black" points="555.56,-190.5 555.56,-209.5 700.56,-209.5 700.56,-190.5 555.56,-190.5"/>
<text text-anchor="middle" x="628.06" y="-197.5" font-family="Helvetica,sans-Serif" font-size="10.00">emlabcpp/protocol/traits.h</text>
</a>
</g>
</g>
<!-- Node1&#45;&gt;Node43 -->
<g id="edge15" class="edge">
<title>Node1&#45;&gt;Node43</title>
<path fill="none" stroke="midnightblue" d="M531.15,-246.4C552.18,-236.55 580.03,-223.5 600.48,-213.92"/>
<polygon fill="midnightblue" stroke="midnightblue" points="602.01,-217.07 609.58,-209.66 599.04,-210.73 602.01,-217.07"/>
</g>
<!-- Node3 -->
<g id="node3" class="node">
<title>Node3</title>
<g id="a_node3"><a xlink:href="impl_8h.html" target="_top" xlink:title=" ">
<polygon fill="white" stroke="black" points="338.56,-56.5 338.56,-86.5 453.56,-86.5 453.56,-56.5 338.56,-56.5"/>
<text text-anchor="start" x="346.56" y="-74.5" font-family="Helvetica,sans-Serif" font-size="10.00">emlabcpp/algorithm</text>
<text text-anchor="middle" x="396.06" y="-63.5" font-family="Helvetica,sans-Serif" font-size="10.00">/impl.h</text>
</a>
</g>
</g>
<!-- Node2&#45;&gt;Node3 -->
<g id="edge2" class="edge">
<title>Node2&#45;&gt;Node3</title>
<path fill="none" stroke="midnightblue" d="M279.85,-128.87C299.7,-119.24 332.38,-103.39 358.04,-90.94"/>
<polygon fill="midnightblue" stroke="midnightblue" points="359.67,-94.04 367.14,-86.53 356.61,-87.74 359.67,-94.04"/>
</g>
<!-- Node2&#45;&gt;Node4 -->
<g id="edge7" class="edge">
<title>Node2&#45;&gt;Node4</title>
<path fill="none" stroke="midnightblue" d="M253.64,-128.96C244.76,-119.48 230.98,-103.35 223.06,-87 214.18,-68.68 209.19,-45.8 206.57,-29.96"/>
<polygon fill="midnightblue" stroke="midnightblue" points="210,-29.21 205.07,-19.83 203.08,-30.24 210,-29.21"/>
</g>
<!-- Node10 -->
<g id="node5" class="node">
<title>Node10</title>
<g id="a_node5"><a xlink:title=" ">
<polygon fill="white" stroke="#bfbfbf" points="461.56,-0.5 461.56,-19.5 502.56,-19.5 502.56,-0.5 461.56,-0.5"/>
<text text-anchor="middle" x="482.06" y="-7.5" font-family="Helvetica,sans-Serif" font-size="10.00">tuple</text>
</a>
</g>
</g>
<!-- Node2&#45;&gt;Node10 -->
<g id="edge12" class="edge">
<title>Node2&#45;&gt;Node10</title>
<path fill="none" stroke="midnightblue" d="M323.18,-129C374.51,-120.64 442.53,-106.34 462.06,-87 477.1,-72.1 481.26,-47.34 482.2,-30.14"/>
<polygon fill="midnightblue" stroke="midnightblue" points="485.71,-29.74 482.43,-19.66 478.71,-29.59 485.71,-29.74"/>
</g>
<!-- Node17 -->
<g id="node6" class="node">
<title>Node17</title>
<g id="a_node6"><a xlink:href="bounded_8h.html" target="_top" xlink:title=" ">
<polygon fill="white" stroke="red" points="693.56,-62 693.56,-81 812.56,-81 812.56,-62 693.56,-62"/>
<text text-anchor="middle" x="753.06" y="-69" font-family="Helvetica,sans-Serif" font-size="10.00">emlabcpp/bounded.h</text>
</a>
</g>
</g>
<!-- Node2&#45;&gt;Node17 -->
<g id="edge5" class="edge">
<title>Node2&#45;&gt;Node17</title>
<path fill="none" stroke="midnightblue" d="M324.31,-129.21C339.6,-127.18 355.92,-125.01 371.06,-123 480.22,-108.52 606.94,-91.78 683.5,-81.68"/>
<polygon fill="midnightblue" stroke="midnightblue" points="684.05,-85.14 693.51,-80.36 683.13,-78.2 684.05,-85.14"/>
</g>
<!-- Node27 -->
<g id="node8" class="node">
<title>Node27</title>
<g id="a_node8"><a xlink:href="view_8h.html" target="_top" xlink:title=" ">
<polygon fill="white" stroke="red" points="76.56,-62 76.56,-81 175.56,-81 175.56,-62 76.56,-62"/>
<text text-anchor="middle" x="126.06" y="-69" font-family="Helvetica,sans-Serif" font-size="10.00">emlabcpp/view.h</text>
</a>
</g>
</g>
<!-- Node2&#45;&gt;Node27 -->
<g id="edge8" class="edge">
<title>Node2&#45;&gt;Node27</title>
<path fill="none" stroke="midnightblue" d="M244,-128.87C220.83,-117.8 180.43,-98.49 153.46,-85.6"/>
<polygon fill="midnightblue" stroke="midnightblue" points="154.72,-82.32 144.19,-81.17 151.71,-88.64 154.72,-82.32"/>
</g>
<!-- Node39 -->
<g id="node9" class="node">
<title>Node39</title>
<g id="a_node9"><a xlink:title=" ">
<polygon fill="white" stroke="#bfbfbf" points="510.56,-62 510.56,-81 557.56,-81 557.56,-62 510.56,-62"/>
<text text-anchor="middle" x="534.06" y="-69" font-family="Helvetica,sans-Serif" font-size="10.00">cmath</text>
</a>
</g>
</g>
<!-- Node2&#45;&gt;Node39 -->
<g id="edge10" class="edge">
<title>Node2&#45;&gt;Node39</title>
<path fill="none" stroke="midnightblue" d="M312.37,-128.93C360.14,-120.26 433.7,-105.51 496.06,-87 498.63,-86.24 501.28,-85.38 503.93,-84.47"/>
<polygon fill="midnightblue" stroke="midnightblue" points="505.14,-87.76 513.35,-81.06 502.75,-81.17 505.14,-87.76"/>
</g>
<!-- Node40 -->
<g id="node10" class="node">
<title>Node40</title>
<g id="a_node10"><a xlink:title=" ">
<polygon fill="white" stroke="#bfbfbf" points="232.56,-62 232.56,-81 281.56,-81 281.56,-62 232.56,-62"/>
<text text-anchor="middle" x="257.06" y="-69" font-family="Helvetica,sans-Serif" font-size="10.00">cstdlib</text>
</a>
</g>
</g>
<!-- Node2&#45;&gt;Node40 -->
<g id="edge11" class="edge">
<title>Node2&#45;&gt;Node40</title>
<path fill="none" stroke="midnightblue" d="M261.38,-128.73C260.65,-119.18 259.45,-103.62 258.5,-91.28"/>
<polygon fill="midnightblue" stroke="midnightblue" points="261.98,-90.83 257.72,-81.13 255,-91.37 261.98,-90.83"/>
</g>
<!-- Node3&#45;&gt;Node4 -->
<g id="edge3" class="edge">
<title>Node3&#45;&gt;Node4</title>
<path fill="none" stroke="midnightblue" d="M350.56,-56.4C317.24,-46.07 272.57,-32.23 241.35,-22.56"/>
<polygon fill="midnightblue" stroke="midnightblue" points="242.3,-19.19 231.71,-19.57 240.23,-25.87 242.3,-19.19"/>
</g>
<!-- Node3&#45;&gt;Node10 -->
<g id="edge4" class="edge">
<title>Node3&#45;&gt;Node10</title>
<path fill="none" stroke="midnightblue" d="M416.44,-56.4C429.97,-47.04 447.67,-34.79 461.28,-25.38"/>
<polygon fill="midnightblue" stroke="midnightblue" points="463.31,-28.23 469.54,-19.66 459.33,-22.47 463.31,-28.23"/>
</g>
<!-- Node34 -->
<g id="node7" class="node">
<title>Node34</title>
<g id="a_node7"><a xlink:title=" ">
<polygon fill="white" stroke="#bfbfbf" points="884.06,-0.5 884.06,-19.5 940.06,-19.5 940.06,-0.5 884.06,-0.5"/>
<text text-anchor="middle" x="912.06" y="-7.5" font-family="Helvetica,sans-Serif" font-size="10.00">optional</text>
</a>
</g>
</g>
<!-- Node17&#45;&gt;Node34 -->
<g id="edge6" class="edge">
<title>Node17&#45;&gt;Node34</title>
<path fill="none" stroke="midnightblue" d="M775.84,-61.98C803.11,-51.77 848.97,-34.61 879.86,-23.05"/>
<polygon fill="midnightblue" stroke="midnightblue" points="881.18,-26.29 889.32,-19.51 878.73,-19.74 881.18,-26.29"/>
</g>
<!-- Node27&#45;&gt;Node4 -->
<g id="edge9" class="edge">
<title>Node27&#45;&gt;Node4</title>
<path fill="none" stroke="midnightblue" d="M137.23,-61.98C149.63,-52.52 169.85,-37.1 184.8,-25.69"/>
<polygon fill="midnightblue" stroke="midnightblue" points="187.07,-28.36 192.9,-19.51 182.83,-22.79 187.07,-28.36"/>
</g>
<!-- Node42 -->
<g id="node12" class="node">
<title>Node42</title>
<g id="a_node12"><a xlink:title=" ">
<polygon fill="white" stroke="#bfbfbf" points="1099.06,-129 1099.06,-148 1151.06,-148 1151.06,-129 1099.06,-129"/>
<text text-anchor="middle" x="1125.06" y="-136" font-family="Helvetica,sans-Serif" font-size="10.00">cassert</text>
</a>
</g>
</g>
<!-- Node41&#45;&gt;Node42 -->
<g id="edge14" class="edge">
<title>Node41&#45;&gt;Node42</title>
<path fill="none" stroke="midnightblue" d="M993.98,-190.48C1020.11,-180.31 1063.97,-163.26 1093.69,-151.7"/>
<polygon fill="midnightblue" stroke="midnightblue" points="1095.13,-154.9 1103.18,-148.01 1092.59,-148.37 1095.13,-154.9"/>
</g>
<!-- Node43&#45;&gt;Node4 -->
<g id="edge28" class="edge">
<title>Node43&#45;&gt;Node4</title>
<path fill="none" stroke="midnightblue" d="M555.34,-191.93C490.64,-184.63 401.65,-171.79 371.06,-154 322.21,-125.59 333.96,-91.58 290.06,-56 273.64,-42.7 252.68,-31.63 235.55,-23.8"/>
<polygon fill="midnightblue" stroke="midnightblue" points="236.54,-20.41 225.98,-19.57 233.71,-26.81 236.54,-20.41"/>
</g>
<!-- Node43&#45;&gt;Node34 -->
<g id="edge29" class="edge">
<title>Node43&#45;&gt;Node34</title>
<path fill="none" stroke="midnightblue" d="M700.73,-195.33C810.48,-189.13 1008.4,-175.17 1033.06,-154 1066.66,-125.15 1077.11,-91.81 1051.06,-56 1028.24,-24.63 983.07,-14.68 950.4,-11.75"/>
<polygon fill="midnightblue" stroke="midnightblue" points="950.5,-8.25 940.28,-11.03 950.01,-15.23 950.5,-8.25"/>
</g>
<!-- Node21 -->
<g id="node14" class="node">
<title>Node21</title>
<g id="a_node14"><a xlink:href="decompose_8h.html" target="_top" xlink:title=" ">
<polygon fill="white" stroke="red" points="514.56,-123.5 514.56,-153.5 647.56,-153.5 647.56,-123.5 514.56,-123.5"/>
<text text-anchor="start" x="522.56" y="-141.5" font-family="Helvetica,sans-Serif" font-size="10.00">emlabcpp/experimental</text>
<text text-anchor="middle" x="581.06" y="-130.5" font-family="Helvetica,sans-Serif" font-size="10.00">/decompose.h</text>
</a>
</g>
</g>
<!-- Node43&#45;&gt;Node21 -->
<g id="edge16" class="edge">
<title>Node43&#45;&gt;Node21</title>
<path fill="none" stroke="midnightblue" d="M621.32,-190.48C615.37,-182.94 606.43,-171.63 598.49,-161.57"/>
<polygon fill="midnightblue" stroke="midnightblue" points="601.08,-159.2 592.13,-153.52 595.59,-163.54 601.08,-159.2"/>
</g>
<!-- Node44 -->
<g id="node15" class="node">
<title>Node44</title>
<g id="a_node15"><a xlink:href="protocol_2base_8h.html" target="_top" xlink:title=" ">
<polygon fill="white" stroke="red" points="861.56,-129 861.56,-148 1004.56,-148 1004.56,-129 861.56,-129"/>
<text text-anchor="middle" x="933.06" y="-136" font-family="Helvetica,sans-Serif" font-size="10.00">emlabcpp/protocol/base.h</text>
</a>
</g>
</g>
<!-- Node43&#45;&gt;Node44 -->
<g id="edge18" class="edge">
<title>Node43&#45;&gt;Node44</title>
<path fill="none" stroke="midnightblue" d="M671.76,-190.48C726.57,-179.78 820.5,-161.46 879.55,-149.94"/>
<polygon fill="midnightblue" stroke="midnightblue" points="880.29,-153.36 889.44,-148.01 878.95,-146.49 880.29,-153.36"/>
</g>
<!-- Node45 -->
<g id="node16" class="node">
<title>Node45</title>
<g id="a_node16"><a xlink:href="protocol_2error_8h.html" target="_top" xlink:title=" ">
<polygon fill="white" stroke="red" points="831.06,-62 831.06,-81 973.06,-81 973.06,-62 831.06,-62"/>
<text text-anchor="middle" x="902.06" y="-69" font-family="Helvetica,sans-Serif" font-size="10.00">emlabcpp/protocol/error.h</text>
</a>
</g>
</g>
<!-- Node43&#45;&gt;Node45 -->
<g id="edge22" class="edge">
<title>Node43&#45;&gt;Node45</title>
<path fill="none" stroke="midnightblue" d="M633.11,-190.4C642.92,-174.49 666.16,-140.47 695.06,-123 719.62,-108.15 790.44,-92.75 842.43,-82.92"/>
<polygon fill="midnightblue" stroke="midnightblue" points="843.37,-86.31 852.56,-81.03 842.09,-79.43 843.37,-86.31"/>
</g>
<!-- Node15 -->
<g id="node17" class="node">
<title>Node15</title>
<g id="a_node17"><a xlink:title=" ">
<polygon fill="white" stroke="#bfbfbf" points="991.56,-62 991.56,-81 1042.56,-81 1042.56,-62 991.56,-62"/>
<text text-anchor="middle" x="1017.06" y="-69" font-family="Helvetica,sans-Serif" font-size="10.00">variant</text>
</a>
</g>
</g>
<!-- Node43&#45;&gt;Node15 -->
<g id="edge30" class="edge">
<title>Node43&#45;&gt;Node15</title>
<path fill="none" stroke="midnightblue" d="M700.73,-195.5C806.38,-189.68 992.15,-176.37 1013.06,-154 1028.59,-137.38 1026.21,-109.54 1022.28,-91.1"/>
<polygon fill="midnightblue" stroke="midnightblue" points="1025.64,-90.12 1019.84,-81.25 1018.85,-91.8 1025.64,-90.12"/>
</g>
<!-- Node51 -->
<g id="node18" class="node">
<title>Node51</title>
<g id="a_node18"><a xlink:href="message_8h.html" target="_top" xlink:title=" ">
<polygon fill="white" stroke="red" points="18.06,-129 18.06,-148 182.06,-148 182.06,-129 18.06,-129"/>
<text text-anchor="middle" x="100.06" y="-136" font-family="Helvetica,sans-Serif" font-size="10.00">emlabcpp/protocol/message.h</text>
</a>
</g>
</g>
<!-- Node43&#45;&gt;Node51 -->
<g id="edge23" class="edge">
<title>Node43&#45;&gt;Node51</title>
<path fill="none" stroke="midnightblue" d="M555.23,-192.74C468.37,-185 318.86,-170.75 191.06,-154 181.18,-152.71 170.73,-151.18 160.56,-149.62"/>
<polygon fill="midnightblue" stroke="midnightblue" points="160.95,-146.14 150.53,-148.05 159.87,-153.05 160.95,-146.14"/>
</g>
<!-- Node52 -->
<g id="node19" class="node">
<title>Node52</title>
<g id="a_node19"><a xlink:href="quantity_8h.html" target="_top" xlink:title=" ">
<polygon fill="white" stroke="red" points="380.06,-129 380.06,-148 496.06,-148 496.06,-129 380.06,-129"/>
<text text-anchor="middle" x="438.06" y="-136" font-family="Helvetica,sans-Serif" font-size="10.00">emlabcpp/quantity.h</text>
</a>
</g>
</g>
<!-- Node43&#45;&gt;Node52 -->
<g id="edge25" class="edge">
<title>Node43&#45;&gt;Node52</title>
<path fill="none" stroke="midnightblue" d="M600.84,-190.48C567.82,-180.14 512.02,-162.66 475.11,-151.1"/>
<polygon fill="midnightblue" stroke="midnightblue" points="475.82,-147.66 465.23,-148.01 473.73,-154.34 475.82,-147.66"/>
</g>
<!-- Node56 -->
<g id="node20" class="node">
<title>Node56</title>
<g id="a_node20"><a xlink:href="static__vector_8h.html" target="_top" xlink:title=" ">
<polygon fill="white" stroke="red" points="704.56,-129 704.56,-148 843.56,-148 843.56,-129 704.56,-129"/>
<text text-anchor="middle" x="774.06" y="-136" font-family="Helvetica,sans-Serif" font-size="10.00">emlabcpp/static_vector.h</text>
</a>
</g>
</g>
<!-- Node43&#45;&gt;Node56 -->
<g id="edge27" class="edge">
<title>Node43&#45;&gt;Node56</title>
<path fill="none" stroke="midnightblue" d="M648.98,-190.48C673.8,-180.36 715.4,-163.4 743.75,-151.85"/>
<polygon fill="midnightblue" stroke="midnightblue" points="745.24,-155.02 753.18,-148.01 742.6,-148.54 745.24,-155.02"/>
</g>
<!-- Node21&#45;&gt;Node10 -->
<g id="edge17" class="edge">
<title>Node21&#45;&gt;Node10</title>
<path fill="none" stroke="midnightblue" d="M581.98,-123.39C582.4,-105.91 580.65,-75.99 566.06,-56 553.05,-38.19 530.82,-26.72 512.48,-19.82"/>
<polygon fill="midnightblue" stroke="midnightblue" points="513.38,-16.43 502.79,-16.45 511.08,-23.04 513.38,-16.43"/>
</g>
<!-- Node44&#45;&gt;Node17 -->
<g id="edge19" class="edge">
<title>Node44&#45;&gt;Node17</title>
<path fill="none" stroke="midnightblue" d="M909.15,-128.87C877.6,-117.47 821.88,-97.35 786.25,-84.49"/>
<polygon fill="midnightblue" stroke="midnightblue" points="787.37,-81.17 776.77,-81.06 784.99,-87.75 787.37,-81.17"/>
</g>
<!-- Node44&#45;&gt;Node45 -->
<g id="edge20" class="edge">
<title>Node44&#45;&gt;Node45</title>
<path fill="none" stroke="midnightblue" d="M928.88,-128.73C924.18,-118.89 916.44,-102.66 910.48,-90.16"/>
<polygon fill="midnightblue" stroke="midnightblue" points="913.64,-88.65 906.17,-81.13 907.32,-91.66 913.64,-88.65"/>
</g>
<!-- Node44&#45;&gt;Node15 -->
<g id="edge21" class="edge">
<title>Node44&#45;&gt;Node15</title>
<path fill="none" stroke="midnightblue" d="M944.39,-128.73C958.11,-118.11 981.46,-100.05 997.98,-87.26"/>
<polygon fill="midnightblue" stroke="midnightblue" points="1000.14,-90.02 1005.91,-81.13 995.86,-84.48 1000.14,-90.02"/>
</g>
<!-- Node51&#45;&gt;Node27 -->
<g id="edge24" class="edge">
<title>Node51&#45;&gt;Node27</title>
<path fill="none" stroke="midnightblue" d="M103.56,-128.73C107.46,-118.99 113.87,-102.98 118.84,-90.53"/>
<polygon fill="midnightblue" stroke="midnightblue" points="122.14,-91.71 122.61,-81.13 115.64,-89.11 122.14,-91.71"/>
</g>
<!-- Node52&#45;&gt;Node39 -->
<g id="edge26" class="edge">
<title>Node52&#45;&gt;Node39</title>
<path fill="none" stroke="midnightblue" d="M451,-128.73C466.91,-117.96 494.11,-99.55 513.03,-86.74"/>
<polygon fill="midnightblue" stroke="midnightblue" points="515,-89.63 521.32,-81.13 511.07,-83.84 515,-89.63"/>
</g>
</g>
</svg>
