<?xml version="1.0" encoding="UTF-8" standalone="no"?>
<!DOCTYPE svg PUBLIC "-//W3C//DTD SVG 1.1//EN"
 "http://www.w3.org/Graphics/SVG/1.1/DTD/svg11.dtd">
<!-- Generated by graphviz version 2.43.0 (0)
 -->
<!-- Title: include/emlabcpp/protocol/command_group.h Pages: 1 -->
<svg width="1408pt" height="263pt"
 viewBox="0.00 0.00 1408.04 263.00" xmlns="http://www.w3.org/2000/svg" xmlns:xlink="http://www.w3.org/1999/xlink">
<g id="graph0" class="graph" transform="scale(1 1) rotate(0) translate(4 259)">
<title>include/emlabcpp/protocol/command_group.h</title>
<polygon fill="white" stroke="transparent" points="-4,4 -4,-259 1404.04,-259 1404.04,4 -4,4"/>
<!-- Node1 -->
<g id="node1" class="node">
<title>Node1</title>
<g id="a_node1"><a xlink:title=" ">
<polygon fill="#bfbfbf" stroke="black" points="666.04,-224.5 666.04,-254.5 812.04,-254.5 812.04,-224.5 666.04,-224.5"/>
<text text-anchor="start" x="674.04" y="-242.5" font-family="Helvetica,sans-Serif" font-size="10.00">include/emlabcpp/protocol</text>
<text text-anchor="middle" x="739.04" y="-231.5" font-family="Helvetica,sans-Serif" font-size="10.00">/command_group.h</text>
</a>
</g>
</g>
<!-- Node2 -->
<g id="node2" class="node">
<title>Node2</title>
<g id="a_node2"><a xlink:href="algorithm_8h.html" target="_top" xlink:title=" ">
<polygon fill="white" stroke="black" points="344.04,-168.5 344.04,-187.5 426.04,-187.5 426.04,-168.5 344.04,-168.5"/>
<text text-anchor="middle" x="385.04" y="-175.5" font-family="Helvetica,sans-Serif" font-size="10.00">../algorithm.h</text>
</a>
</g>
</g>
<!-- Node1&#45;&gt;Node2 -->
<g id="edge1" class="edge">
<title>Node1&#45;&gt;Node2</title>
<path fill="none" stroke="midnightblue" d="M665.69,-226.17C597.15,-214.65 496.6,-197.75 436.3,-187.62"/>
<polygon fill="midnightblue" stroke="midnightblue" points="436.7,-184.13 426.26,-185.93 435.54,-191.04 436.7,-184.13"/>
</g>
<!-- Node4 -->
<g id="node4" class="node">
<title>Node4</title>
<g id="a_node4"><a xlink:href="types_8h.html" target="_top" xlink:title=" ">
<polygon fill="white" stroke="red" points="245.04,-0.5 245.04,-19.5 307.04,-19.5 307.04,-0.5 245.04,-0.5"/>
<text text-anchor="middle" x="276.04" y="-7.5" font-family="Helvetica,sans-Serif" font-size="10.00">../types.h</text>
</a>
</g>
</g>
<!-- Node1&#45;&gt;Node4 -->
<g id="edge18" class="edge">
<title>Node1&#45;&gt;Node4</title>
<path fill="none" stroke="midnightblue" d="M665.88,-239.43C498.5,-239.81 95.7,-230.28 13.04,-132 -51.77,-54.95 145.88,-24.39 234.92,-14.75"/>
<polygon fill="midnightblue" stroke="midnightblue" points="235.39,-18.22 244.97,-13.7 234.66,-11.26 235.39,-18.22"/>
</g>
<!-- Node28 -->
<g id="node13" class="node">
<title>Node28</title>
<g id="a_node13"><a xlink:href="assert_8h.html" target="_top" xlink:title=" ">
<polygon fill="white" stroke="black" points="1225.54,-168.5 1225.54,-187.5 1290.54,-187.5 1290.54,-168.5 1225.54,-168.5"/>
<text text-anchor="middle" x="1258.04" y="-175.5" font-family="Helvetica,sans-Serif" font-size="10.00">../assert.h</text>
</a>
</g>
</g>
<!-- Node1&#45;&gt;Node28 -->
<g id="edge16" class="edge">
<title>Node1&#45;&gt;Node28</title>
<path fill="none" stroke="midnightblue" d="M812.3,-230.1C922.36,-217.48 1126.9,-194.03 1215.4,-183.89"/>
<polygon fill="midnightblue" stroke="midnightblue" points="1215.82,-187.36 1225.35,-182.75 1215.02,-180.41 1215.82,-187.36"/>
</g>
<!-- Node30 -->
<g id="node15" class="node">
<title>Node30</title>
<g id="a_node15"><a xlink:href="traits_8h.html" target="_top" xlink:title=" ">
<polygon fill="white" stroke="black" points="1035.54,-168.5 1035.54,-187.5 1092.54,-187.5 1092.54,-168.5 1035.54,-168.5"/>
<text text-anchor="middle" x="1064.04" y="-175.5" font-family="Helvetica,sans-Serif" font-size="10.00">./traits.h</text>
</a>
</g>
</g>
<!-- Node1&#45;&gt;Node30 -->
<g id="edge19" class="edge">
<title>Node1&#45;&gt;Node30</title>
<path fill="none" stroke="midnightblue" d="M812.38,-225.07C878.55,-212.96 973.28,-195.61 1025.62,-186.03"/>
<polygon fill="midnightblue" stroke="midnightblue" points="1026.29,-189.47 1035.5,-184.23 1025.03,-182.58 1026.29,-189.47"/>
</g>
<!-- Node3 -->
<g id="node3" class="node">
<title>Node3</title>
<g id="a_node3"><a xlink:href="impl_8h.html" target="_top" xlink:title=" ">
<polygon fill="white" stroke="black" points="224.04,-112.5 224.04,-131.5 328.04,-131.5 328.04,-112.5 224.04,-112.5"/>
<text text-anchor="middle" x="276.04" y="-119.5" font-family="Helvetica,sans-Serif" font-size="10.00">./algorithm/impl.h</text>
</a>
</g>
</g>
<!-- Node2&#45;&gt;Node3 -->
<g id="edge2" class="edge">
<title>Node2&#45;&gt;Node3</title>
<path fill="none" stroke="midnightblue" d="M367.52,-168.32C349.96,-159.62 322.71,-146.12 302.51,-136.11"/>
<polygon fill="midnightblue" stroke="midnightblue" points="304.02,-132.96 293.51,-131.65 300.91,-139.23 304.02,-132.96"/>
</g>
<!-- Node2&#45;&gt;Node4 -->
<g id="edge11" class="edge">
<title>Node2&#45;&gt;Node4</title>
<path fill="none" stroke="midnightblue" d="M344,-175.34C282.66,-171.89 171.59,-161.63 147.04,-132 110.67,-88.11 194.87,-44.25 243.91,-23.45"/>
<polygon fill="midnightblue" stroke="midnightblue" points="245.3,-26.67 253.2,-19.61 242.62,-20.2 245.3,-26.67"/>
</g>
<!-- Node10 -->
<g id="node5" class="node">
<title>Node10</title>
<g id="a_node5"><a xlink:title=" ">
<polygon fill="white" stroke="#bfbfbf" points="335.54,-56.5 335.54,-75.5 376.54,-75.5 376.54,-56.5 335.54,-56.5"/>
<text text-anchor="middle" x="356.04" y="-63.5" font-family="Helvetica,sans-Serif" font-size="10.00">tuple</text>
</a>
</g>
</g>
<!-- Node2&#45;&gt;Node10 -->
<g id="edge15" class="edge">
<title>Node2&#45;&gt;Node10</title>
<path fill="none" stroke="midnightblue" d="M382.76,-168.37C378.06,-150.54 367.19,-109.3 360.85,-85.27"/>
<polygon fill="midnightblue" stroke="midnightblue" points="364.24,-84.37 358.3,-75.59 357.47,-86.15 364.24,-84.37"/>
</g>
<!-- Node17 -->
<g id="node6" class="node">
<title>Node17</title>
<g id="a_node6"><a xlink:href="bounded_8h.html" target="_top" xlink:title=" ">
<polygon fill="white" stroke="red" points="1130.04,-56.5 1130.04,-75.5 1204.04,-75.5 1204.04,-56.5 1130.04,-56.5"/>
<text text-anchor="middle" x="1167.04" y="-63.5" font-family="Helvetica,sans-Serif" font-size="10.00">./bounded.h</text>
</a>
</g>
</g>
<!-- Node2&#45;&gt;Node17 -->
<g id="edge5" class="edge">
<title>Node2&#45;&gt;Node17</title>
<path fill="none" stroke="midnightblue" d="M426.05,-175.71C546.21,-171.66 895.93,-157.9 1007.04,-132 1056.57,-120.45 1110.71,-95.67 1141.61,-80.26"/>
<polygon fill="midnightblue" stroke="midnightblue" points="1143.44,-83.25 1150.79,-75.61 1140.28,-77.01 1143.44,-83.25"/>
</g>
<!-- Node19 -->
<g id="node8" class="node">
<title>Node19</title>
<g id="a_node8"><a xlink:href="min__max_8h.html" target="_top" xlink:title=" ">
<polygon fill="white" stroke="red" points="22.54,-112.5 22.54,-131.5 99.54,-131.5 99.54,-112.5 22.54,-112.5"/>
<text text-anchor="middle" x="61.04" y="-119.5" font-family="Helvetica,sans-Serif" font-size="10.00">./min_max.h</text>
</a>
</g>
</g>
<!-- Node2&#45;&gt;Node19 -->
<g id="edge7" class="edge">
<title>Node2&#45;&gt;Node19</title>
<path fill="none" stroke="midnightblue" d="M343.71,-170.19C290.56,-161.41 195.41,-145.66 114.04,-132 112.74,-131.78 111.43,-131.56 110.11,-131.34"/>
<polygon fill="midnightblue" stroke="midnightblue" points="110.26,-127.82 99.82,-129.6 109.1,-134.72 110.26,-127.82"/>
</g>
<!-- Node21 -->
<g id="node9" class="node">
<title>Node21</title>
<g id="a_node9"><a xlink:href="range_8h.html" target="_top" xlink:title=" ">
<polygon fill="white" stroke="red" points="384.54,-112.5 384.54,-131.5 443.54,-131.5 443.54,-112.5 384.54,-112.5"/>
<text text-anchor="middle" x="414.04" y="-119.5" font-family="Helvetica,sans-Serif" font-size="10.00">./range.h</text>
</a>
</g>
</g>
<!-- Node2&#45;&gt;Node21 -->
<g id="edge8" class="edge">
<title>Node2&#45;&gt;Node21</title>
<path fill="none" stroke="midnightblue" d="M389.83,-168.08C393.79,-160.69 399.56,-149.95 404.47,-140.81"/>
<polygon fill="midnightblue" stroke="midnightblue" points="407.69,-142.22 409.34,-131.75 401.52,-138.91 407.69,-142.22"/>
</g>
<!-- Node24 -->
<g id="node10" class="node">
<title>Node24</title>
<g id="a_node10"><a xlink:href="view_8h.html" target="_top" xlink:title=" ">
<polygon fill="white" stroke="red" points="445.04,-56.5 445.04,-75.5 499.04,-75.5 499.04,-56.5 445.04,-56.5"/>
<text text-anchor="middle" x="472.04" y="-63.5" font-family="Helvetica,sans-Serif" font-size="10.00">./view.h</text>
</a>
</g>
</g>
<!-- Node2&#45;&gt;Node24 -->
<g id="edge12" class="edge">
<title>Node2&#45;&gt;Node24</title>
<path fill="none" stroke="midnightblue" d="M404.45,-168.47C419.48,-160.92 439.75,-148.53 452.04,-132 462.05,-118.52 467.11,-99.97 469.63,-86.13"/>
<polygon fill="midnightblue" stroke="midnightblue" points="473.15,-86.24 471.2,-75.83 466.23,-85.19 473.15,-86.24"/>
</g>
<!-- Node26 -->
<g id="node11" class="node">
<title>Node26</title>
<g id="a_node11"><a xlink:title=" ">
<polygon fill="white" stroke="#bfbfbf" points="857.54,-56.5 857.54,-75.5 904.54,-75.5 904.54,-56.5 857.54,-56.5"/>
<text text-anchor="middle" x="881.04" y="-63.5" font-family="Helvetica,sans-Serif" font-size="10.00">cmath</text>
</a>
</g>
</g>
<!-- Node2&#45;&gt;Node26 -->
<g id="edge13" class="edge">
<title>Node2&#45;&gt;Node26</title>
<path fill="none" stroke="midnightblue" d="M426.33,-174.75C514.26,-169.57 717.29,-155.41 782.04,-132 798.58,-126.02 837.25,-98.99 861.07,-81.72"/>
<polygon fill="midnightblue" stroke="midnightblue" points="863.38,-84.37 869.39,-75.65 859.25,-78.71 863.38,-84.37"/>
</g>
<!-- Node27 -->
<g id="node12" class="node">
<title>Node27</title>
<g id="a_node12"><a xlink:title=" ">
<polygon fill="white" stroke="#bfbfbf" points="156.54,-112.5 156.54,-131.5 205.54,-131.5 205.54,-112.5 156.54,-112.5"/>
<text text-anchor="middle" x="181.04" y="-119.5" font-family="Helvetica,sans-Serif" font-size="10.00">cstdlib</text>
</a>
</g>
</g>
<!-- Node2&#45;&gt;Node27 -->
<g id="edge14" class="edge">
<title>Node2&#45;&gt;Node27</title>
<path fill="none" stroke="midnightblue" d="M352.71,-168.44C315.28,-158.53 253.85,-142.27 215.52,-132.13"/>
<polygon fill="midnightblue" stroke="midnightblue" points="216.39,-128.74 205.83,-129.56 214.6,-135.51 216.39,-128.74"/>
</g>
<!-- Node3&#45;&gt;Node4 -->
<g id="edge3" class="edge">
<title>Node3&#45;&gt;Node4</title>
<path fill="none" stroke="midnightblue" d="M276.04,-112.37C276.04,-94.62 276.04,-53.67 276.04,-29.6"/>
<polygon fill="midnightblue" stroke="midnightblue" points="279.54,-29.59 276.04,-19.59 272.54,-29.59 279.54,-29.59"/>
</g>
<!-- Node3&#45;&gt;Node10 -->
<g id="edge4" class="edge">
<title>Node3&#45;&gt;Node10</title>
<path fill="none" stroke="midnightblue" d="M288.89,-112.32C301.25,-103.98 320.17,-91.21 334.77,-81.35"/>
<polygon fill="midnightblue" stroke="midnightblue" points="336.88,-84.15 343.22,-75.65 332.97,-78.35 336.88,-84.15"/>
</g>
<!-- Node18 -->
<g id="node7" class="node">
<title>Node18</title>
<g id="a_node7"><a xlink:title=" ">
<polygon fill="white" stroke="#bfbfbf" points="1106.04,-0.5 1106.04,-19.5 1162.04,-19.5 1162.04,-0.5 1106.04,-0.5"/>
<text text-anchor="middle" x="1134.04" y="-7.5" font-family="Helvetica,sans-Serif" font-size="10.00">optional</text>
</a>
</g>
</g>
<!-- Node17&#45;&gt;Node18 -->
<g id="edge6" class="edge">
<title>Node17&#45;&gt;Node18</title>
<path fill="none" stroke="midnightblue" d="M1161.59,-56.08C1157.02,-48.61 1150.37,-37.72 1144.74,-28.52"/>
<polygon fill="midnightblue" stroke="midnightblue" points="1147.59,-26.46 1139.38,-19.75 1141.61,-30.11 1147.59,-26.46"/>
</g>
<!-- Node21&#45;&gt;Node24 -->
<g id="edge9" class="edge">
<title>Node21&#45;&gt;Node24</title>
<path fill="none" stroke="midnightblue" d="M423.36,-112.32C431.93,-104.34 444.85,-92.31 455.22,-82.65"/>
<polygon fill="midnightblue" stroke="midnightblue" points="457.61,-85.21 462.55,-75.83 452.84,-80.09 457.61,-85.21"/>
</g>
<!-- Node24&#45;&gt;Node4 -->
<g id="edge10" class="edge">
<title>Node24&#45;&gt;Node4</title>
<path fill="none" stroke="midnightblue" d="M444.78,-57.49C411.57,-48.34 355.13,-32.79 316.76,-22.22"/>
<polygon fill="midnightblue" stroke="midnightblue" points="317.5,-18.79 306.93,-19.51 315.64,-25.54 317.5,-18.79"/>
</g>
<!-- Node29 -->
<g id="node14" class="node">
<title>Node29</title>
<g id="a_node14"><a xlink:title=" ">
<polygon fill="white" stroke="#bfbfbf" points="1348.04,-112.5 1348.04,-131.5 1400.04,-131.5 1400.04,-112.5 1348.04,-112.5"/>
<text text-anchor="middle" x="1374.04" y="-119.5" font-family="Helvetica,sans-Serif" font-size="10.00">cassert</text>
</a>
</g>
</g>
<!-- Node28&#45;&gt;Node29 -->
<g id="edge17" class="edge">
<title>Node28&#45;&gt;Node29</title>
<path fill="none" stroke="midnightblue" d="M1276.42,-168.44C1295.25,-159.68 1324.77,-145.94 1346.42,-135.86"/>
<polygon fill="midnightblue" stroke="midnightblue" points="1348.15,-138.91 1355.74,-131.52 1345.2,-132.56 1348.15,-138.91"/>
</g>
<!-- Node30&#45;&gt;Node4 -->
<g id="edge26" class="edge">
<title>Node30&#45;&gt;Node4</title>
<path fill="none" stroke="midnightblue" d="M1057.76,-168.23C1047.98,-154.96 1028.03,-129.47 1007.04,-112 969.66,-80.89 959.44,-70.55 913.04,-56 801.25,-20.94 439.9,-13.1 317.23,-11.43"/>
<polygon fill="midnightblue" stroke="midnightblue" points="317.16,-7.93 307.12,-11.3 317.07,-14.93 317.16,-7.93"/>
</g>
<!-- Node30&#45;&gt;Node18 -->
<g id="edge35" class="edge">
<title>Node30&#45;&gt;Node18</title>
<path fill="none" stroke="midnightblue" d="M1067.8,-168.08C1078.87,-141.83 1111.46,-64.55 1126.4,-29.12"/>
<polygon fill="midnightblue" stroke="midnightblue" points="1129.76,-30.14 1130.42,-19.57 1123.31,-27.42 1129.76,-30.14"/>
</g>
<!-- Node31 -->
<g id="node16" class="node">
<title>Node31</title>
<g id="a_node16"><a xlink:href="decompose_8h.html" target="_top" xlink:title=" ">
<polygon fill="white" stroke="red" points="499.54,-112.5 499.54,-131.5 658.54,-131.5 658.54,-112.5 499.54,-112.5"/>
<text text-anchor="middle" x="579.04" y="-119.5" font-family="Helvetica,sans-Serif" font-size="10.00">../experimental/decompose.h</text>
</a>
</g>
</g>
<!-- Node30&#45;&gt;Node31 -->
<g id="edge20" class="edge">
<title>Node30&#45;&gt;Node31</title>
<path fill="none" stroke="midnightblue" d="M1035.51,-173.82C964.43,-165.91 777.15,-145.06 665.8,-132.66"/>
<polygon fill="midnightblue" stroke="midnightblue" points="665.93,-129.15 655.6,-131.52 665.15,-136.11 665.93,-129.15"/>
</g>
<!-- Node32 -->
<g id="node17" class="node">
<title>Node32</title>
<g id="a_node17"><a xlink:href="quantity_8h.html" target="_top" xlink:title=" ">
<polygon fill="white" stroke="red" points="924.04,-112.5 924.04,-131.5 998.04,-131.5 998.04,-112.5 924.04,-112.5"/>
<text text-anchor="middle" x="961.04" y="-119.5" font-family="Helvetica,sans-Serif" font-size="10.00">../quantity.h</text>
</a>
</g>
</g>
<!-- Node30&#45;&gt;Node32 -->
<g id="edge22" class="edge">
<title>Node30&#45;&gt;Node32</title>
<path fill="none" stroke="midnightblue" d="M1047.49,-168.32C1031.04,-159.7 1005.6,-146.36 986.57,-136.39"/>
<polygon fill="midnightblue" stroke="midnightblue" points="988.03,-133.2 977.54,-131.65 984.78,-139.4 988.03,-133.2"/>
</g>
<!-- Node35 -->
<g id="node18" class="node">
<title>Node35</title>
<g id="a_node18"><a xlink:href="static__vector_8h.html" target="_top" xlink:title=" ">
<polygon fill="white" stroke="red" points="676.54,-112.5 676.54,-131.5 773.54,-131.5 773.54,-112.5 676.54,-112.5"/>
<text text-anchor="middle" x="725.04" y="-119.5" font-family="Helvetica,sans-Serif" font-size="10.00">../static_vector.h</text>
</a>
</g>
</g>
<!-- Node30&#45;&gt;Node35 -->
<g id="edge24" class="edge">
<title>Node30&#45;&gt;Node35</title>
<path fill="none" stroke="midnightblue" d="M1035.43,-172.44C980.01,-163.61 857.03,-144.03 783.6,-132.33"/>
<polygon fill="midnightblue" stroke="midnightblue" points="784.01,-128.85 773.58,-130.73 782.9,-135.76 784.01,-128.85"/>
</g>
<!-- Node40 -->
<g id="node19" class="node">
<title>Node40</title>
<g id="a_node19"><a xlink:href="protocol_2base_8h.html" target="_top" xlink:title=" ">
<polygon fill="white" stroke="red" points="1198.54,-112.5 1198.54,-131.5 1253.54,-131.5 1253.54,-112.5 1198.54,-112.5"/>
<text text-anchor="middle" x="1226.04" y="-119.5" font-family="Helvetica,sans-Serif" font-size="10.00">./base.h</text>
</a>
</g>
</g>
<!-- Node30&#45;&gt;Node40 -->
<g id="edge27" class="edge">
<title>Node30&#45;&gt;Node40</title>
<path fill="none" stroke="midnightblue" d="M1089.71,-168.44C1116.96,-159.36 1160.22,-144.94 1190.69,-134.78"/>
<polygon fill="midnightblue" stroke="midnightblue" points="1192.11,-138 1200.49,-131.52 1189.89,-131.36 1192.11,-138"/>
</g>
<!-- Node41 -->
<g id="node20" class="node">
<title>Node41</title>
<g id="a_node20"><a xlink:href="protocol_2error_8h.html" target="_top" xlink:title=" ">
<polygon fill="white" stroke="red" points="1222.04,-56.5 1222.04,-75.5 1276.04,-75.5 1276.04,-56.5 1222.04,-56.5"/>
<text text-anchor="middle" x="1249.04" y="-63.5" font-family="Helvetica,sans-Serif" font-size="10.00">./error.h</text>
</a>
</g>
</g>
<!-- Node30&#45;&gt;Node41 -->
<g id="edge31" class="edge">
<title>Node30&#45;&gt;Node41</title>
<path fill="none" stroke="midnightblue" d="M1092.71,-174.81C1142.59,-170.34 1242.03,-158.29 1263.04,-132 1273.81,-118.52 1267.23,-98.62 1259.88,-84.39"/>
<polygon fill="midnightblue" stroke="midnightblue" points="1262.87,-82.56 1254.88,-75.6 1256.78,-86.02 1262.87,-82.56"/>
</g>
<!-- Node15 -->
<g id="node21" class="node">
<title>Node15</title>
<g id="a_node21"><a xlink:title=" ">
<polygon fill="white" stroke="#bfbfbf" points="1294.54,-56.5 1294.54,-75.5 1345.54,-75.5 1345.54,-56.5 1294.54,-56.5"/>
<text text-anchor="middle" x="1320.04" y="-63.5" font-family="Helvetica,sans-Serif" font-size="10.00">variant</text>
</a>
</g>
</g>
<!-- Node30&#45;&gt;Node15 -->
<g id="edge36" class="edge">
<title>Node30&#45;&gt;Node15</title>
<path fill="none" stroke="midnightblue" d="M1092.89,-177.82C1136.95,-177.67 1221.88,-171.71 1279.04,-132 1295.44,-120.61 1306.67,-100.32 1313.18,-85.43"/>
<polygon fill="midnightblue" stroke="midnightblue" points="1316.59,-86.33 1317.09,-75.75 1310.1,-83.71 1316.59,-86.33"/>
</g>
<!-- Node48 -->
<g id="node22" class="node">
<title>Node48</title>
<g id="a_node22"><a xlink:href="message_8h.html" target="_top" xlink:title=" ">
<polygon fill="white" stroke="red" points="830.04,-112.5 830.04,-131.5 906.04,-131.5 906.04,-112.5 830.04,-112.5"/>
<text text-anchor="middle" x="868.04" y="-119.5" font-family="Helvetica,sans-Serif" font-size="10.00">./message.h</text>
</a>
</g>
</g>
<!-- Node30&#45;&gt;Node48 -->
<g id="edge32" class="edge">
<title>Node30&#45;&gt;Node48</title>
<path fill="none" stroke="midnightblue" d="M1035.54,-169.15C1002.2,-159.96 946.77,-144.69 908.87,-134.25"/>
<polygon fill="midnightblue" stroke="midnightblue" points="909.73,-130.86 899.16,-131.58 907.87,-137.61 909.73,-130.86"/>
</g>
<!-- Node49 -->
<g id="node23" class="node">
<title>Node49</title>
<g id="a_node23"><a xlink:title=" ">
<polygon fill="white" stroke="#bfbfbf" points="1130.04,-112.5 1130.04,-131.5 1180.04,-131.5 1180.04,-112.5 1130.04,-112.5"/>
<text text-anchor="middle" x="1155.04" y="-119.5" font-family="Helvetica,sans-Serif" font-size="10.00">chrono</text>
</a>
</g>
</g>
<!-- Node30&#45;&gt;Node49 -->
<g id="edge34" class="edge">
<title>Node30&#45;&gt;Node49</title>
<path fill="none" stroke="midnightblue" d="M1078.66,-168.32C1092.99,-159.82 1115.05,-146.73 1131.79,-136.8"/>
<polygon fill="midnightblue" stroke="midnightblue" points="1133.64,-139.77 1140.45,-131.65 1130.07,-133.75 1133.64,-139.77"/>
</g>
<!-- Node31&#45;&gt;Node10 -->
<g id="edge21" class="edge">
<title>Node31&#45;&gt;Node10</title>
<path fill="none" stroke="midnightblue" d="M543.7,-112.44C500.43,-101.97 427.85,-84.39 386.78,-74.45"/>
<polygon fill="midnightblue" stroke="midnightblue" points="387.36,-70.98 376.81,-72.03 385.71,-77.79 387.36,-70.98"/>
</g>
<!-- Node32&#45;&gt;Node26 -->
<g id="edge23" class="edge">
<title>Node32&#45;&gt;Node26</title>
<path fill="none" stroke="midnightblue" d="M948.18,-112.32C935.82,-103.98 916.91,-91.21 902.3,-81.35"/>
<polygon fill="midnightblue" stroke="midnightblue" points="904.1,-78.35 893.86,-75.65 900.19,-84.15 904.1,-78.35"/>
</g>
<!-- Node35&#45;&gt;Node24 -->
<g id="edge25" class="edge">
<title>Node35&#45;&gt;Node24</title>
<path fill="none" stroke="midnightblue" d="M684.95,-112.44C636.63,-102.13 556.1,-84.94 509.15,-74.92"/>
<polygon fill="midnightblue" stroke="midnightblue" points="509.61,-71.44 499.1,-72.78 508.15,-78.29 509.61,-71.44"/>
</g>
<!-- Node40&#45;&gt;Node17 -->
<g id="edge28" class="edge">
<title>Node40&#45;&gt;Node17</title>
<path fill="none" stroke="midnightblue" d="M1216.56,-112.32C1207.84,-104.34 1194.69,-92.31 1184.14,-82.65"/>
<polygon fill="midnightblue" stroke="midnightblue" points="1186.43,-80 1176.69,-75.83 1181.7,-85.17 1186.43,-80"/>
</g>
<!-- Node40&#45;&gt;Node41 -->
<g id="edge29" class="edge">
<title>Node40&#45;&gt;Node41</title>
<path fill="none" stroke="midnightblue" d="M1229.83,-112.08C1232.95,-104.77 1237.46,-94.18 1241.33,-85.1"/>
<polygon fill="midnightblue" stroke="midnightblue" points="1244.61,-86.32 1245.31,-75.75 1238.17,-83.58 1244.61,-86.32"/>
</g>
<!-- Node40&#45;&gt;Node15 -->
<g id="edge30" class="edge">
<title>Node40&#45;&gt;Node15</title>
<path fill="none" stroke="midnightblue" d="M1241.14,-112.32C1255.94,-103.82 1278.73,-90.73 1296.02,-80.8"/>
<polygon fill="midnightblue" stroke="midnightblue" points="1298.04,-83.67 1304.97,-75.65 1294.56,-77.6 1298.04,-83.67"/>
</g>
<!-- Node48&#45;&gt;Node24 -->
<g id="edge33" class="edge">
<title>Node48&#45;&gt;Node24</title>
<path fill="none" stroke="midnightblue" d="M829.71,-115.77C753.61,-105.4 584.33,-82.31 509.2,-72.07"/>
<polygon fill="midnightblue" stroke="midnightblue" points="509.62,-68.59 499.24,-70.71 508.67,-75.53 509.62,-68.59"/>
</g>
</g>
</svg>
