<?xml version="1.0" encoding="UTF-8" standalone="no"?>
<!DOCTYPE svg PUBLIC "-//W3C//DTD SVG 1.1//EN"
 "http://www.w3.org/Graphics/SVG/1.1/DTD/svg11.dtd">
<!-- Generated by graphviz version 2.43.0 (0)
 -->
<!-- Title: include/emlabcpp/experimental/testing/controller.h Pages: 1 -->
<svg width="620pt" height="240pt"
 viewBox="0.00 0.00 619.50 240.00" xmlns="http://www.w3.org/2000/svg" xmlns:xlink="http://www.w3.org/1999/xlink">
<g id="graph0" class="graph" transform="scale(1 1) rotate(0) translate(4 236)">
<title>include/emlabcpp/experimental/testing/controller.h</title>
<polygon fill="white" stroke="transparent" points="-4,4 -4,-236 615.5,-236 615.5,4 -4,4"/>
<!-- Node1 -->
<g id="node1" class="node">
<title>Node1</title>
<g id="a_node1"><a xlink:title=" ">
<polygon fill="#bfbfbf" stroke="black" points="257,-201.5 257,-231.5 428,-231.5 428,-201.5 257,-201.5"/>
<text text-anchor="start" x="265" y="-219.5" font-family="Helvetica,sans-Serif" font-size="10.00">include/emlabcpp/experimental</text>
<text text-anchor="middle" x="342.5" y="-208.5" font-family="Helvetica,sans-Serif" font-size="10.00">/testing/controller.h</text>
</a>
</g>
</g>
<!-- Node2 -->
<g id="node2" class="node">
<title>Node2</title>
<g id="a_node2"><a xlink:href="controller__interface_8h.html" target="_top" xlink:title=" ">
<polygon fill="white" stroke="black" points="46,-134.5 46,-164.5 207,-164.5 207,-134.5 46,-134.5"/>
<text text-anchor="start" x="54" y="-152.5" font-family="Helvetica,sans-Serif" font-size="10.00">emlabcpp/experimental</text>
<text text-anchor="middle" x="126.5" y="-141.5" font-family="Helvetica,sans-Serif" font-size="10.00">/testing/controller_interface.h</text>
</a>
</g>
</g>
<!-- Node1&#45;&gt;Node2 -->
<g id="edge1" class="edge">
<title>Node1&#45;&gt;Node2</title>
<path fill="none" stroke="midnightblue" d="M295.9,-201.48C262.8,-191.51 218.17,-178.09 183.03,-167.51"/>
<polygon fill="midnightblue" stroke="midnightblue" points="183.98,-164.14 173.39,-164.61 181.96,-170.84 183.98,-164.14"/>
</g>
<!-- Node87 -->
<g id="node5" class="node">
<title>Node87</title>
<g id="a_node5"><a xlink:href="iterators_2convert_8h.html" target="_top" xlink:title=" ">
<polygon fill="white" stroke="black" points="225,-134.5 225,-164.5 334,-164.5 334,-134.5 225,-134.5"/>
<text text-anchor="start" x="233" y="-152.5" font-family="Helvetica,sans-Serif" font-size="10.00">emlabcpp/iterators</text>
<text text-anchor="middle" x="279.5" y="-141.5" font-family="Helvetica,sans-Serif" font-size="10.00">/convert.h</text>
</a>
</g>
</g>
<!-- Node1&#45;&gt;Node87 -->
<g id="edge5" class="edge">
<title>Node1&#45;&gt;Node87</title>
<path fill="none" stroke="midnightblue" d="M328.83,-201.4C320.49,-192.79 309.67,-181.63 300.28,-171.94"/>
<polygon fill="midnightblue" stroke="midnightblue" points="302.62,-169.32 293.14,-164.58 297.59,-174.19 302.62,-169.32"/>
</g>
<!-- Node30 -->
<g id="node7" class="node">
<title>Node30</title>
<g id="a_node7"><a xlink:href="match_8h.html" target="_top" xlink:title=" ">
<polygon fill="white" stroke="red" points="352,-140 352,-159 459,-159 459,-140 352,-140"/>
<text text-anchor="middle" x="405.5" y="-147" font-family="Helvetica,sans-Serif" font-size="10.00">emlabcpp/match.h</text>
</a>
</g>
</g>
<!-- Node1&#45;&gt;Node30 -->
<g id="edge7" class="edge">
<title>Node1&#45;&gt;Node30</title>
<path fill="none" stroke="midnightblue" d="M356.17,-201.4C366.09,-191.16 379.53,-177.3 389.87,-166.62"/>
<polygon fill="midnightblue" stroke="midnightblue" points="392.63,-168.81 397.07,-159.19 387.6,-163.94 392.63,-168.81"/>
</g>
<!-- Node32 -->
<g id="node8" class="node">
<title>Node32</title>
<g id="a_node8"><a xlink:href="aliases_8h.html" target="_top" xlink:title=" ">
<polygon fill="white" stroke="red" points="477.5,-140 477.5,-159 611.5,-159 611.5,-140 477.5,-140"/>
<text text-anchor="middle" x="544.5" y="-147" font-family="Helvetica,sans-Serif" font-size="10.00">emlabcpp/pmr/aliases.h</text>
</a>
</g>
</g>
<!-- Node1&#45;&gt;Node32 -->
<g id="edge8" class="edge">
<title>Node1&#45;&gt;Node32</title>
<path fill="none" stroke="midnightblue" d="M386.33,-201.4C422.87,-189.64 474.3,-173.09 508.48,-162.09"/>
<polygon fill="midnightblue" stroke="midnightblue" points="509.62,-165.4 518.06,-159.01 507.47,-158.74 509.62,-165.4"/>
</g>
<!-- Node3 -->
<g id="node3" class="node">
<title>Node3</title>
<g id="a_node3"><a xlink:href="experimental_2testing_2error_8h.html" target="_top" xlink:title=" ">
<polygon fill="white" stroke="red" points="0,-67.5 0,-97.5 133,-97.5 133,-67.5 0,-67.5"/>
<text text-anchor="start" x="8" y="-85.5" font-family="Helvetica,sans-Serif" font-size="10.00">emlabcpp/experimental</text>
<text text-anchor="middle" x="66.5" y="-74.5" font-family="Helvetica,sans-Serif" font-size="10.00">/testing/error.h</text>
</a>
</g>
</g>
<!-- Node2&#45;&gt;Node3 -->
<g id="edge2" class="edge">
<title>Node2&#45;&gt;Node3</title>
<path fill="none" stroke="midnightblue" d="M113.48,-134.4C105.54,-125.79 95.23,-114.63 86.3,-104.94"/>
<polygon fill="midnightblue" stroke="midnightblue" points="88.85,-102.55 79.49,-97.58 83.7,-107.3 88.85,-102.55"/>
</g>
<!-- Node4 -->
<g id="node4" class="node">
<title>Node4</title>
<g id="a_node4"><a xlink:href="experimental_2testing_2protocol_8h.html" target="_top" xlink:title=" ">
<polygon fill="white" stroke="red" points="47,-0.5 47,-30.5 180,-30.5 180,-0.5 47,-0.5"/>
<text text-anchor="start" x="55" y="-18.5" font-family="Helvetica,sans-Serif" font-size="10.00">emlabcpp/experimental</text>
<text text-anchor="middle" x="113.5" y="-7.5" font-family="Helvetica,sans-Serif" font-size="10.00">/testing/protocol.h</text>
</a>
</g>
</g>
<!-- Node2&#45;&gt;Node4 -->
<g id="edge4" class="edge">
<title>Node2&#45;&gt;Node4</title>
<path fill="none" stroke="midnightblue" d="M133.21,-134.23C140.01,-117.86 148.71,-90.27 142.5,-67 139.9,-57.24 134.91,-47.41 129.8,-39.05"/>
<polygon fill="midnightblue" stroke="midnightblue" points="132.7,-37.09 124.31,-30.63 126.84,-40.92 132.7,-37.09"/>
</g>
<!-- Node3&#45;&gt;Node4 -->
<g id="edge3" class="edge">
<title>Node3&#45;&gt;Node4</title>
<path fill="none" stroke="midnightblue" d="M76.7,-67.4C82.73,-59.05 90.52,-48.29 97.37,-38.81"/>
<polygon fill="midnightblue" stroke="midnightblue" points="100.3,-40.73 103.32,-30.58 94.63,-36.63 100.3,-40.73"/>
</g>
<!-- Node47 -->
<g id="node6" class="node">
<title>Node47</title>
<g id="a_node6"><a xlink:href="iterator_8h.html" target="_top" xlink:title=" ">
<polygon fill="white" stroke="red" points="223.5,-73 223.5,-92 335.5,-92 335.5,-73 223.5,-73"/>
<text text-anchor="middle" x="279.5" y="-80" font-family="Helvetica,sans-Serif" font-size="10.00">emlabcpp/iterator.h</text>
</a>
</g>
</g>
<!-- Node87&#45;&gt;Node47 -->
<g id="edge6" class="edge">
<title>Node87&#45;&gt;Node47</title>
<path fill="none" stroke="midnightblue" d="M279.5,-134.4C279.5,-125.06 279.5,-112.71 279.5,-102.52"/>
<polygon fill="midnightblue" stroke="midnightblue" points="283,-102.19 279.5,-92.19 276,-102.19 283,-102.19"/>
</g>
</g>
</svg>
