<?xml version="1.0" encoding="UTF-8" standalone="no"?>
<!DOCTYPE svg PUBLIC "-//W3C//DTD SVG 1.1//EN"
 "http://www.w3.org/Graphics/SVG/1.1/DTD/svg11.dtd">
<!-- Generated by graphviz version 2.43.0 (0)
 -->
<!-- Title: include/emlabcpp/experimental/testing/controller_interface.h Pages: 1 -->
<svg width="449pt" height="229pt"
 viewBox="0.00 0.00 449.05 229.00" xmlns="http://www.w3.org/2000/svg" xmlns:xlink="http://www.w3.org/1999/xlink">
<g id="graph0" class="graph" transform="scale(1 1) rotate(0) translate(4 225)">
<title>include/emlabcpp/experimental/testing/controller_interface.h</title>
<polygon fill="white" stroke="transparent" points="-4,4 -4,-225 445.05,-225 445.05,4 -4,4"/>
<!-- Node1 -->
<g id="node1" class="node">
<title>Node1</title>
<g id="a_node1"><a xlink:title=" ">
<polygon fill="#bfbfbf" stroke="black" points="63,-190.5 63,-220.5 234,-220.5 234,-190.5 63,-190.5"/>
<text text-anchor="start" x="71" y="-208.5" font-family="Helvetica,sans-Serif" font-size="10.00">include/emlabcpp/experimental</text>
<text text-anchor="middle" x="148.5" y="-197.5" font-family="Helvetica,sans-Serif" font-size="10.00">/testing/controller_interface.h</text>
</a>
</g>
</g>
<!-- Node2 -->
<g id="node2" class="node">
<title>Node2</title>
<g id="a_node2"><a xlink:href="experimental_2testing_2error_8h.html" target="_top" xlink:title=" ">
<polygon fill="white" stroke="black" points="164,-123.5 164,-153.5 297,-153.5 297,-123.5 164,-123.5"/>
<text text-anchor="start" x="172" y="-141.5" font-family="Helvetica,sans-Serif" font-size="10.00">emlabcpp/experimental</text>
<text text-anchor="middle" x="230.5" y="-130.5" font-family="Helvetica,sans-Serif" font-size="10.00">/testing/error.h</text>
</a>
</g>
</g>
<!-- Node1&#45;&gt;Node2 -->
<g id="edge1" class="edge">
<title>Node1&#45;&gt;Node2</title>
<path fill="none" stroke="midnightblue" d="M166.29,-190.4C177.58,-181.45 192.35,-169.74 204.89,-159.8"/>
<polygon fill="midnightblue" stroke="midnightblue" points="207.08,-162.53 212.74,-153.58 202.73,-157.05 207.08,-162.53"/>
</g>
<!-- Node3 -->
<g id="node3" class="node">
<title>Node3</title>
<g id="a_node3"><a xlink:href="experimental_2testing_2protocol_8h.html" target="_top" xlink:title=" ">
<polygon fill="white" stroke="red" points="0,-56.5 0,-86.5 133,-86.5 133,-56.5 0,-56.5"/>
<text text-anchor="start" x="8" y="-74.5" font-family="Helvetica,sans-Serif" font-size="10.00">emlabcpp/experimental</text>
<text text-anchor="middle" x="66.5" y="-63.5" font-family="Helvetica,sans-Serif" font-size="10.00">/testing/protocol.h</text>
</a>
</g>
</g>
<!-- Node1&#45;&gt;Node3 -->
<g id="edge7" class="edge">
<title>Node1&#45;&gt;Node3</title>
<path fill="none" stroke="midnightblue" d="M139.72,-190.37C125.54,-167.55 97.47,-122.36 80.5,-95.04"/>
<polygon fill="midnightblue" stroke="midnightblue" points="83.46,-93.17 75.21,-86.52 77.52,-96.87 83.46,-93.17"/>
</g>
<!-- Node2&#45;&gt;Node3 -->
<g id="edge2" class="edge">
<title>Node2&#45;&gt;Node3</title>
<path fill="none" stroke="midnightblue" d="M194.91,-123.4C170.41,-113.69 137.67,-100.71 111.38,-90.29"/>
<polygon fill="midnightblue" stroke="midnightblue" points="112.6,-87.01 102.02,-86.58 110.02,-93.51 112.6,-87.01"/>
</g>
<!-- Node55 -->
<g id="node4" class="node">
<title>Node55</title>
<g id="a_node4"><a xlink:href="streams_8h.html" target="_top" xlink:title=" ">
<polygon fill="white" stroke="red" points="151,-62 151,-81 310,-81 310,-62 151,-62"/>
<text text-anchor="middle" x="230.5" y="-69" font-family="Helvetica,sans-Serif" font-size="10.00">emlabcpp/protocol/streams.h</text>
</a>
</g>
</g>
<!-- Node2&#45;&gt;Node55 -->
<g id="edge3" class="edge">
<title>Node2&#45;&gt;Node55</title>
<path fill="none" stroke="midnightblue" d="M230.5,-123.4C230.5,-114.06 230.5,-101.71 230.5,-91.52"/>
<polygon fill="midnightblue" stroke="midnightblue" points="234,-91.19 230.5,-81.19 227,-91.19 234,-91.19"/>
</g>
<!-- Node58 -->
<g id="node5" class="node">
<title>Node58</title>
<g id="a_node5"><a xlink:href="visit_8h.html" target="_top" xlink:title=" ">
<polygon fill="white" stroke="red" points="327.5,-62 327.5,-81 425.5,-81 425.5,-62 327.5,-62"/>
<text text-anchor="middle" x="376.5" y="-69" font-family="Helvetica,sans-Serif" font-size="10.00">emlabcpp/visit.h</text>
</a>
</g>
</g>
<!-- Node2&#45;&gt;Node58 -->
<g id="edge4" class="edge">
<title>Node2&#45;&gt;Node58</title>
<path fill="none" stroke="midnightblue" d="M262.18,-123.4C287.8,-111.99 323.54,-96.08 348.2,-85.1"/>
<polygon fill="midnightblue" stroke="midnightblue" points="349.68,-88.27 357.39,-81.01 346.83,-81.88 349.68,-88.27"/>
</g>
<!-- Node30 -->
<g id="node6" class="node">
<title>Node30</title>
<g id="a_node6"><a xlink:title=" ">
<polygon fill="white" stroke="#bfbfbf" points="389,-0.5 389,-19.5 440,-19.5 440,-0.5 389,-0.5"/>
<text text-anchor="middle" x="414.5" y="-7.5" font-family="Helvetica,sans-Serif" font-size="10.00">variant</text>
</a>
</g>
</g>
<!-- Node2&#45;&gt;Node30 -->
<g id="edge6" class="edge">
<title>Node2&#45;&gt;Node30</title>
<path fill="none" stroke="midnightblue" d="M297.26,-129.86C350.05,-122.27 417.58,-108.62 434.5,-87 447.72,-70.11 437.17,-45.32 427.05,-28.69"/>
<polygon fill="midnightblue" stroke="midnightblue" points="429.74,-26.41 421.33,-19.96 423.89,-30.24 429.74,-26.41"/>
</g>
<!-- Node58&#45;&gt;Node30 -->
<g id="edge5" class="edge">
<title>Node58&#45;&gt;Node30</title>
<path fill="none" stroke="midnightblue" d="M381.94,-61.98C387.59,-53.14 396.56,-39.09 403.66,-27.98"/>
<polygon fill="midnightblue" stroke="midnightblue" points="406.63,-29.82 409.07,-19.51 400.73,-26.05 406.63,-29.82"/>
</g>
</g>
</svg>
