<?xml version="1.0" encoding="UTF-8" standalone="no"?>
<!DOCTYPE svg PUBLIC "-//W3C//DTD SVG 1.1//EN"
 "http://www.w3.org/Graphics/SVG/1.1/DTD/svg11.dtd">
<!-- Generated by graphviz version 2.43.0 (0)
 -->
<!-- Title: include/emlabcpp/experimental/testing/controller.h Pages: 1 -->
<svg width="1351pt" height="240pt"
 viewBox="0.00 0.00 1351.00 240.00" xmlns="http://www.w3.org/2000/svg" xmlns:xlink="http://www.w3.org/1999/xlink">
<g id="graph0" class="graph" transform="scale(1 1) rotate(0) translate(4 236)">
<title>include/emlabcpp/experimental/testing/controller.h</title>
<polygon fill="white" stroke="transparent" points="-4,4 -4,-236 1347,-236 1347,4 -4,4"/>
<!-- Node1 -->
<g id="node1" class="node">
<title>Node1</title>
<g id="a_node1"><a xlink:title=" ">
<polygon fill="#bfbfbf" stroke="black" points="929,-201.5 929,-231.5 1100,-231.5 1100,-201.5 929,-201.5"/>
<text text-anchor="start" x="937" y="-219.5" font-family="Helvetica,sans-Serif" font-size="10.00">include/emlabcpp/experimental</text>
<text text-anchor="middle" x="1014.5" y="-208.5" font-family="Helvetica,sans-Serif" font-size="10.00">/testing/controller.h</text>
</a>
</g>
</g>
<!-- Node2 -->
<g id="node2" class="node">
<title>Node2</title>
<g id="a_node2"><a xlink:href="pool_8h.html" target="_top" xlink:title=" ">
<polygon fill="white" stroke="black" points="266.5,-134.5 266.5,-164.5 376.5,-164.5 376.5,-134.5 266.5,-134.5"/>
<text text-anchor="start" x="274.5" y="-152.5" font-family="Helvetica,sans-Serif" font-size="10.00">emlabcpp/allocator</text>
<text text-anchor="middle" x="321.5" y="-141.5" font-family="Helvetica,sans-Serif" font-size="10.00">/pool.h</text>
</a>
</g>
</g>
<!-- Node1&#45;&gt;Node2 -->
<g id="edge1" class="edge">
<title>Node1&#45;&gt;Node2</title>
<path fill="none" stroke="midnightblue" d="M928.83,-207.46C788.47,-194.3 512.56,-168.42 386.77,-156.62"/>
<polygon fill="midnightblue" stroke="midnightblue" points="386.81,-153.11 376.53,-155.66 386.16,-160.08 386.81,-153.11"/>
</g>
<!-- Node29 -->
<g id="node14" class="node">
<title>Node29</title>
<g id="a_node14"><a xlink:href="controller__interface_8h.html" target="_top" xlink:title=" ">
<polygon fill="white" stroke="black" points="934,-134.5 934,-164.5 1095,-164.5 1095,-134.5 934,-134.5"/>
<text text-anchor="start" x="942" y="-152.5" font-family="Helvetica,sans-Serif" font-size="10.00">emlabcpp/experimental</text>
<text text-anchor="middle" x="1014.5" y="-141.5" font-family="Helvetica,sans-Serif" font-size="10.00">/testing/controller_interface.h</text>
</a>
</g>
</g>
<!-- Node1&#45;&gt;Node29 -->
<g id="edge14" class="edge">
<title>Node1&#45;&gt;Node29</title>
<path fill="none" stroke="midnightblue" d="M1014.5,-201.4C1014.5,-193.64 1014.5,-183.81 1014.5,-174.86"/>
<polygon fill="midnightblue" stroke="midnightblue" points="1018,-174.58 1014.5,-164.58 1011,-174.58 1018,-174.58"/>
</g>
<!-- Node66 -->
<g id="node18" class="node">
<title>Node66</title>
<g id="a_node18"><a xlink:href="convert_8h.html" target="_top" xlink:title=" ">
<polygon fill="white" stroke="black" points="807,-134.5 807,-164.5 916,-164.5 916,-134.5 807,-134.5"/>
<text text-anchor="start" x="815" y="-152.5" font-family="Helvetica,sans-Serif" font-size="10.00">emlabcpp/iterators</text>
<text text-anchor="middle" x="861.5" y="-141.5" font-family="Helvetica,sans-Serif" font-size="10.00">/convert.h</text>
</a>
</g>
</g>
<!-- Node1&#45;&gt;Node66 -->
<g id="edge19" class="edge">
<title>Node1&#45;&gt;Node66</title>
<path fill="none" stroke="midnightblue" d="M981.3,-201.4C958.65,-191.77 928.43,-178.94 904.02,-168.56"/>
<polygon fill="midnightblue" stroke="midnightblue" points="905.21,-165.27 894.63,-164.58 902.47,-171.71 905.21,-165.27"/>
</g>
<!-- Node67 -->
<g id="node19" class="node">
<title>Node67</title>
<g id="a_node19"><a xlink:href="match_8h.html" target="_top" xlink:title=" ">
<polygon fill="white" stroke="black" points="1113,-140 1113,-159 1220,-159 1220,-140 1113,-140"/>
<text text-anchor="middle" x="1166.5" y="-147" font-family="Helvetica,sans-Serif" font-size="10.00">emlabcpp/match.h</text>
</a>
</g>
</g>
<!-- Node1&#45;&gt;Node67 -->
<g id="edge21" class="edge">
<title>Node1&#45;&gt;Node67</title>
<path fill="none" stroke="midnightblue" d="M1047.48,-201.4C1074.27,-189.94 1111.69,-173.94 1137.38,-162.95"/>
<polygon fill="midnightblue" stroke="midnightblue" points="1138.79,-166.16 1146.61,-159.01 1136.04,-159.72 1138.79,-166.16"/>
</g>
<!-- Node39 -->
<g id="node20" class="node">
<title>Node39</title>
<g id="a_node20"><a xlink:title=" ">
<polygon fill="white" stroke="#bfbfbf" points="1238,-140 1238,-159 1343,-159 1343,-140 1238,-140"/>
<text text-anchor="middle" x="1290.5" y="-147" font-family="Helvetica,sans-Serif" font-size="10.00">memory_resource</text>
</a>
</g>
</g>
<!-- Node1&#45;&gt;Node39 -->
<g id="edge23" class="edge">
<title>Node1&#45;&gt;Node39</title>
<path fill="none" stroke="midnightblue" d="M1074.05,-201.48C1125.13,-189.45 1197.69,-172.36 1244.43,-161.35"/>
<polygon fill="midnightblue" stroke="midnightblue" points="1245.35,-164.73 1254.29,-159.03 1243.75,-157.91 1245.35,-164.73"/>
</g>
<!-- Node3 -->
<g id="node3" class="node">
<title>Node3</title>
<g id="a_node3"><a xlink:href="util_8h.html" target="_top" xlink:title=" ">
<polygon fill="white" stroke="red" points="363.5,-67.5 363.5,-97.5 473.5,-97.5 473.5,-67.5 363.5,-67.5"/>
<text text-anchor="start" x="371.5" y="-85.5" font-family="Helvetica,sans-Serif" font-size="10.00">emlabcpp/allocator</text>
<text text-anchor="middle" x="418.5" y="-74.5" font-family="Helvetica,sans-Serif" font-size="10.00">/util.h</text>
</a>
</g>
</g>
<!-- Node2&#45;&gt;Node3 -->
<g id="edge2" class="edge">
<title>Node2&#45;&gt;Node3</title>
<path fill="none" stroke="midnightblue" d="M342.55,-134.4C356.15,-125.28 374.04,-113.29 389.05,-103.24"/>
<polygon fill="midnightblue" stroke="midnightblue" points="391.13,-106.05 397.49,-97.58 387.24,-100.24 391.13,-106.05"/>
</g>
<!-- Node5 -->
<g id="node4" class="node">
<title>Node5</title>
<g id="a_node4"><a xlink:href="assert_8h.html" target="_top" xlink:title=" ">
<polygon fill="white" stroke="red" points="492,-73 492,-92 599,-92 599,-73 492,-73"/>
<text text-anchor="middle" x="545.5" y="-80" font-family="Helvetica,sans-Serif" font-size="10.00">emlabcpp/assert.h</text>
</a>
</g>
</g>
<!-- Node2&#45;&gt;Node5 -->
<g id="edge3" class="edge">
<title>Node2&#45;&gt;Node5</title>
<path fill="none" stroke="midnightblue" d="M369.83,-134.48C410.68,-122.62 468.45,-105.86 506.43,-94.84"/>
<polygon fill="midnightblue" stroke="midnightblue" points="507.48,-98.18 516.11,-92.03 505.53,-91.45 507.48,-98.18"/>
</g>
<!-- Node7 -->
<g id="node5" class="node">
<title>Node7</title>
<g id="a_node5"><a xlink:href="numeric_8h.html" target="_top" xlink:title=" ">
<polygon fill="white" stroke="black" points="617,-67.5 617,-97.5 726,-97.5 726,-67.5 617,-67.5"/>
<text text-anchor="start" x="625" y="-85.5" font-family="Helvetica,sans-Serif" font-size="10.00">emlabcpp/iterators</text>
<text text-anchor="middle" x="671.5" y="-74.5" font-family="Helvetica,sans-Serif" font-size="10.00">/numeric.h</text>
</a>
</g>
</g>
<!-- Node2&#45;&gt;Node7 -->
<g id="edge4" class="edge">
<title>Node2&#45;&gt;Node7</title>
<path fill="none" stroke="midnightblue" d="M376.74,-139.55C432.31,-130.37 520.69,-115.28 606.78,-98.09"/>
<polygon fill="midnightblue" stroke="midnightblue" points="607.61,-101.49 616.72,-96.09 606.23,-94.63 607.61,-101.49"/>
</g>
<!-- Node21 -->
<g id="node7" class="node">
<title>Node21</title>
<g id="a_node7"><a xlink:href="static__vector_8h.html" target="_top" xlink:title=" ">
<polygon fill="white" stroke="red" points="744,-73 744,-92 883,-92 883,-73 744,-73"/>
<text text-anchor="middle" x="813.5" y="-80" font-family="Helvetica,sans-Serif" font-size="10.00">emlabcpp/static_vector.h</text>
</a>
</g>
</g>
<!-- Node2&#45;&gt;Node21 -->
<g id="edge6" class="edge">
<title>Node2&#45;&gt;Node21</title>
<path fill="none" stroke="midnightblue" d="M376.76,-142.81C456.11,-134.39 606.86,-117.5 734.5,-98 742.63,-96.76 751.22,-95.32 759.61,-93.84"/>
<polygon fill="midnightblue" stroke="midnightblue" points="760.48,-97.24 769.7,-92.02 759.24,-90.35 760.48,-97.24"/>
</g>
<!-- Node24 -->
<g id="node8" class="node">
<title>Node24</title>
<g id="a_node8"><a xlink:title=" ">
<polygon fill="white" stroke="#bfbfbf" points="0,-73 0,-92 47,-92 47,-73 0,-73"/>
<text text-anchor="middle" x="23.5" y="-80" font-family="Helvetica,sans-Serif" font-size="10.00">deque</text>
</a>
</g>
</g>
<!-- Node2&#45;&gt;Node24 -->
<g id="edge8" class="edge">
<title>Node2&#45;&gt;Node24</title>
<path fill="none" stroke="midnightblue" d="M266.31,-141.69C212.08,-134.13 127.39,-120.02 56.5,-98 54.57,-97.4 52.61,-96.72 50.64,-96"/>
<polygon fill="midnightblue" stroke="midnightblue" points="51.61,-92.61 41.03,-92.08 48.97,-99.09 51.61,-92.61"/>
</g>
<!-- Node25 -->
<g id="node9" class="node">
<title>Node25</title>
<g id="a_node9"><a xlink:title=" ">
<polygon fill="white" stroke="#bfbfbf" points="65.5,-73 65.5,-92 97.5,-92 97.5,-73 65.5,-73"/>
<text text-anchor="middle" x="81.5" y="-80" font-family="Helvetica,sans-Serif" font-size="10.00">list</text>
</a>
</g>
</g>
<!-- Node2&#45;&gt;Node25 -->
<g id="edge9" class="edge">
<title>Node2&#45;&gt;Node25</title>
<path fill="none" stroke="midnightblue" d="M266.25,-140.15C222,-132.37 158.88,-118.81 106.5,-98 105.62,-97.65 104.74,-97.28 103.86,-96.88"/>
<polygon fill="midnightblue" stroke="midnightblue" points="105.11,-93.59 94.63,-92.08 101.89,-99.8 105.11,-93.59"/>
</g>
<!-- Node26 -->
<g id="node10" class="node">
<title>Node26</title>
<g id="a_node10"><a xlink:title=" ">
<polygon fill="white" stroke="#bfbfbf" points="115.5,-73 115.5,-92 153.5,-92 153.5,-73 115.5,-73"/>
<text text-anchor="middle" x="134.5" y="-80" font-family="Helvetica,sans-Serif" font-size="10.00">map</text>
</a>
</g>
</g>
<!-- Node2&#45;&gt;Node26 -->
<g id="edge10" class="edge">
<title>Node2&#45;&gt;Node26</title>
<path fill="none" stroke="midnightblue" d="M269.51,-134.42C238.06,-125.3 197.42,-112.46 162.5,-98 161.46,-97.57 160.41,-97.12 159.36,-96.65"/>
<polygon fill="midnightblue" stroke="midnightblue" points="160.5,-93.31 149.97,-92.11 157.45,-99.61 160.5,-93.31"/>
</g>
<!-- Node27 -->
<g id="node11" class="node">
<title>Node27</title>
<g id="a_node11"><a xlink:title=" ">
<polygon fill="white" stroke="#bfbfbf" points="171.5,-73 171.5,-92 229.5,-92 229.5,-73 171.5,-73"/>
<text text-anchor="middle" x="200.5" y="-80" font-family="Helvetica,sans-Serif" font-size="10.00">memory</text>
</a>
</g>
</g>
<!-- Node2&#45;&gt;Node27 -->
<g id="edge11" class="edge">
<title>Node2&#45;&gt;Node27</title>
<path fill="none" stroke="midnightblue" d="M295.24,-134.4C274.48,-123.24 245.7,-107.78 225.32,-96.83"/>
<polygon fill="midnightblue" stroke="midnightblue" points="226.8,-93.66 216.34,-92.01 223.49,-99.82 226.8,-93.66"/>
</g>
<!-- Node28 -->
<g id="node12" class="node">
<title>Node28</title>
<g id="a_node12"><a xlink:title=" ">
<polygon fill="white" stroke="#bfbfbf" points="247.5,-73 247.5,-92 279.5,-92 279.5,-73 247.5,-73"/>
<text text-anchor="middle" x="263.5" y="-80" font-family="Helvetica,sans-Serif" font-size="10.00">set</text>
</a>
</g>
</g>
<!-- Node2&#45;&gt;Node28 -->
<g id="edge12" class="edge">
<title>Node2&#45;&gt;Node28</title>
<path fill="none" stroke="midnightblue" d="M308.91,-134.4C299.87,-124.26 287.65,-110.57 278.17,-99.94"/>
<polygon fill="midnightblue" stroke="midnightblue" points="280.53,-97.33 271.26,-92.19 275.3,-101.99 280.53,-97.33"/>
</g>
<!-- Node17 -->
<g id="node13" class="node">
<title>Node17</title>
<g id="a_node13"><a xlink:title=" ">
<polygon fill="white" stroke="#bfbfbf" points="298,-73 298,-92 345,-92 345,-73 298,-73"/>
<text text-anchor="middle" x="321.5" y="-80" font-family="Helvetica,sans-Serif" font-size="10.00">vector</text>
</a>
</g>
</g>
<!-- Node2&#45;&gt;Node17 -->
<g id="edge13" class="edge">
<title>Node2&#45;&gt;Node17</title>
<path fill="none" stroke="midnightblue" d="M321.5,-134.4C321.5,-125.06 321.5,-112.71 321.5,-102.52"/>
<polygon fill="midnightblue" stroke="midnightblue" points="325,-102.19 321.5,-92.19 318,-102.19 325,-102.19"/>
</g>
<!-- Node8 -->
<g id="node6" class="node">
<title>Node8</title>
<g id="a_node6"><a xlink:href="iterator_8h.html" target="_top" xlink:title=" ">
<polygon fill="white" stroke="red" points="757.5,-6 757.5,-25 869.5,-25 869.5,-6 757.5,-6"/>
<text text-anchor="middle" x="813.5" y="-13" font-family="Helvetica,sans-Serif" font-size="10.00">emlabcpp/iterator.h</text>
</a>
</g>
</g>
<!-- Node7&#45;&gt;Node8 -->
<g id="edge5" class="edge">
<title>Node7&#45;&gt;Node8</title>
<path fill="none" stroke="midnightblue" d="M702.31,-67.4C727.12,-56.04 761.68,-40.22 785.66,-29.24"/>
<polygon fill="midnightblue" stroke="midnightblue" points="787.28,-32.35 794.92,-25.01 784.37,-25.99 787.28,-32.35"/>
</g>
<!-- Node21&#45;&gt;Node8 -->
<g id="edge7" class="edge">
<title>Node21&#45;&gt;Node8</title>
<path fill="none" stroke="midnightblue" d="M813.5,-72.73C813.5,-63.18 813.5,-47.62 813.5,-35.28"/>
<polygon fill="midnightblue" stroke="midnightblue" points="817,-35.13 813.5,-25.13 810,-35.13 817,-35.13"/>
</g>
<!-- Node30 -->
<g id="node15" class="node">
<title>Node30</title>
<g id="a_node15"><a xlink:href="experimental_2testing_2error_8h.html" target="_top" xlink:title=" ">
<polygon fill="white" stroke="red" points="1005,-67.5 1005,-97.5 1138,-97.5 1138,-67.5 1005,-67.5"/>
<text text-anchor="start" x="1013" y="-85.5" font-family="Helvetica,sans-Serif" font-size="10.00">emlabcpp/experimental</text>
<text text-anchor="middle" x="1071.5" y="-74.5" font-family="Helvetica,sans-Serif" font-size="10.00">/testing/error.h</text>
</a>
</g>
</g>
<!-- Node29&#45;&gt;Node30 -->
<g id="edge15" class="edge">
<title>Node29&#45;&gt;Node30</title>
<path fill="none" stroke="midnightblue" d="M1026.87,-134.4C1034.34,-125.88 1044.01,-114.85 1052.44,-105.23"/>
<polygon fill="midnightblue" stroke="midnightblue" points="1055.19,-107.4 1059.16,-97.58 1049.93,-102.79 1055.19,-107.4"/>
</g>
<!-- Node31 -->
<g id="node16" class="node">
<title>Node31</title>
<g id="a_node16"><a xlink:href="experimental_2testing_2protocol_8h.html" target="_top" xlink:title=" ">
<polygon fill="white" stroke="red" points="924,-0.5 924,-30.5 1057,-30.5 1057,-0.5 924,-0.5"/>
<text text-anchor="start" x="932" y="-18.5" font-family="Helvetica,sans-Serif" font-size="10.00">emlabcpp/experimental</text>
<text text-anchor="middle" x="990.5" y="-7.5" font-family="Helvetica,sans-Serif" font-size="10.00">/testing/protocol.h</text>
</a>
</g>
</g>
<!-- Node29&#45;&gt;Node31 -->
<g id="edge18" class="edge">
<title>Node29&#45;&gt;Node31</title>
<path fill="none" stroke="midnightblue" d="M1007.83,-134.26C1003.51,-124.33 998.2,-110.64 995.5,-98 991.46,-79.08 990.3,-57.16 990.11,-40.83"/>
<polygon fill="midnightblue" stroke="midnightblue" points="993.61,-40.51 990.1,-30.51 986.61,-40.52 993.61,-40.51"/>
</g>
<!-- Node30&#45;&gt;Node31 -->
<g id="edge16" class="edge">
<title>Node30&#45;&gt;Node31</title>
<path fill="none" stroke="midnightblue" d="M1053.92,-67.4C1042.89,-58.54 1028.46,-46.96 1016.15,-37.09"/>
<polygon fill="midnightblue" stroke="midnightblue" points="1018.03,-34.11 1008.04,-30.58 1013.65,-39.56 1018.03,-34.11"/>
</g>
<!-- Node65 -->
<g id="node17" class="node">
<title>Node65</title>
<g id="a_node17"><a xlink:href="visit_8h.html" target="_top" xlink:title=" ">
<polygon fill="white" stroke="red" points="1103.5,-6 1103.5,-25 1201.5,-25 1201.5,-6 1103.5,-6"/>
<text text-anchor="middle" x="1152.5" y="-13" font-family="Helvetica,sans-Serif" font-size="10.00">emlabcpp/visit.h</text>
</a>
</g>
</g>
<!-- Node30&#45;&gt;Node65 -->
<g id="edge17" class="edge">
<title>Node30&#45;&gt;Node65</title>
<path fill="none" stroke="midnightblue" d="M1089.08,-67.4C1102.21,-56.86 1120.13,-42.48 1133.57,-31.69"/>
<polygon fill="midnightblue" stroke="midnightblue" points="1136.06,-34.18 1141.67,-25.19 1131.68,-28.72 1136.06,-34.18"/>
</g>
<!-- Node66&#45;&gt;Node8 -->
<g id="edge20" class="edge">
<title>Node66&#45;&gt;Node8</title>
<path fill="none" stroke="midnightblue" d="M873.76,-134.42C886.7,-117.73 903.67,-89.38 891.5,-67 882.16,-49.82 864.18,-37.59 847.83,-29.47"/>
<polygon fill="midnightblue" stroke="midnightblue" points="849.02,-26.17 838.47,-25.16 846.09,-32.52 849.02,-26.17"/>
</g>
<!-- Node67&#45;&gt;Node65 -->
<g id="edge22" class="edge">
<title>Node67&#45;&gt;Node65</title>
<path fill="none" stroke="midnightblue" d="M1165.58,-139.84C1163.34,-118.67 1157.53,-63.95 1154.47,-35.03"/>
<polygon fill="midnightblue" stroke="midnightblue" points="1157.94,-34.6 1153.4,-25.02 1150.98,-35.33 1157.94,-34.6"/>
</g>
</g>
</svg>
