<?xml version="1.0" encoding="UTF-8" standalone="no"?>
<!DOCTYPE svg PUBLIC "-//W3C//DTD SVG 1.1//EN"
 "http://www.w3.org/Graphics/SVG/1.1/DTD/svg11.dtd">
<!-- Generated by graphviz version 2.43.0 (0)
 -->
<!-- Title: include/emlabcpp/protocol/converter.h Pages: 1 -->
<svg width="1856pt" height="341pt"
 viewBox="0.00 0.00 1856.29 341.00" xmlns="http://www.w3.org/2000/svg" xmlns:xlink="http://www.w3.org/1999/xlink">
<g id="graph0" class="graph" transform="scale(1 1) rotate(0) translate(4 337)">
<title>include/emlabcpp/protocol/converter.h</title>
<polygon fill="white" stroke="transparent" points="-4,4 -4,-337 1852.29,-337 1852.29,4 -4,4"/>
<!-- Node1 -->
<g id="node1" class="node">
<title>Node1</title>
<g id="a_node1"><a xlink:title=" ">
<polygon fill="#bfbfbf" stroke="black" points="1292.29,-302.5 1292.29,-332.5 1438.29,-332.5 1438.29,-302.5 1292.29,-302.5"/>
<text text-anchor="start" x="1300.29" y="-320.5" font-family="Helvetica,sans-Serif" font-size="10.00">include/emlabcpp/protocol</text>
<text text-anchor="middle" x="1365.29" y="-309.5" font-family="Helvetica,sans-Serif" font-size="10.00">/converter.h</text>
</a>
</g>
</g>
<!-- Node2 -->
<g id="node2" class="node">
<title>Node2</title>
<g id="a_node2"><a xlink:href="algorithm_8h.html" target="_top" xlink:title=" ">
<polygon fill="white" stroke="black" points="206.29,-185 206.29,-204 330.29,-204 330.29,-185 206.29,-185"/>
<text text-anchor="middle" x="268.29" y="-192" font-family="Helvetica,sans-Serif" font-size="10.00">emlabcpp/algorithm.h</text>
</a>
</g>
</g>
<!-- Node1&#45;&gt;Node2 -->
<g id="edge1" class="edge">
<title>Node1&#45;&gt;Node2</title>
<path fill="none" stroke="midnightblue" d="M1292.03,-314.34C1113.04,-308.7 657.22,-292.17 507.29,-266 431.61,-252.79 345.93,-223.99 300.53,-207.58"/>
<polygon fill="midnightblue" stroke="midnightblue" points="301.54,-204.22 290.94,-204.08 299.14,-210.79 301.54,-204.22"/>
</g>
<!-- Node24 -->
<g id="node12" class="node">
<title>Node24</title>
<g id="a_node12"><a xlink:href="assert_8h.html" target="_top" xlink:title=" ">
<polygon fill="white" stroke="black" points="1558.79,-246.5 1558.79,-265.5 1665.79,-265.5 1665.79,-246.5 1558.79,-246.5"/>
<text text-anchor="middle" x="1612.29" y="-253.5" font-family="Helvetica,sans-Serif" font-size="10.00">emlabcpp/assert.h</text>
</a>
</g>
</g>
<!-- Node1&#45;&gt;Node24 -->
<g id="edge14" class="edge">
<title>Node1&#45;&gt;Node24</title>
<path fill="none" stroke="midnightblue" d="M1423.51,-302.47C1467.43,-291.9 1526.79,-277.59 1567.15,-267.87"/>
<polygon fill="midnightblue" stroke="midnightblue" points="1568.07,-271.25 1576.98,-265.51 1566.43,-264.45 1568.07,-271.25"/>
</g>
<!-- Node26 -->
<g id="node14" class="node">
<title>Node26</title>
<g id="a_node14"><a xlink:href="either_8h.html" target="_top" xlink:title=" ">
<polygon fill="white" stroke="black" points="516.29,-246.5 516.29,-265.5 620.29,-265.5 620.29,-246.5 516.29,-246.5"/>
<text text-anchor="middle" x="568.29" y="-253.5" font-family="Helvetica,sans-Serif" font-size="10.00">emlabcpp/either.h</text>
</a>
</g>
</g>
<!-- Node1&#45;&gt;Node26 -->
<g id="edge16" class="edge">
<title>Node1&#45;&gt;Node26</title>
<path fill="none" stroke="midnightblue" d="M1292.09,-311.04C1136.6,-299.43 775.76,-272.49 630.51,-261.65"/>
<polygon fill="midnightblue" stroke="midnightblue" points="630.66,-258.15 620.43,-260.89 630.14,-265.13 630.66,-258.15"/>
</g>
<!-- Node39 -->
<g id="node18" class="node">
<title>Node39</title>
<g id="a_node18"><a xlink:href="bounded__view_8h.html" target="_top" xlink:title=" ">
<polygon fill="white" stroke="black" points="1258.79,-179.5 1258.79,-209.5 1391.79,-209.5 1391.79,-179.5 1258.79,-179.5"/>
<text text-anchor="start" x="1266.79" y="-197.5" font-family="Helvetica,sans-Serif" font-size="10.00">emlabcpp/experimental</text>
<text text-anchor="middle" x="1325.29" y="-186.5" font-family="Helvetica,sans-Serif" font-size="10.00">/bounded_view.h</text>
</a>
</g>
</g>
<!-- Node1&#45;&gt;Node39 -->
<g id="edge27" class="edge">
<title>Node1&#45;&gt;Node39</title>
<path fill="none" stroke="midnightblue" d="M1351.81,-302.3C1343.71,-292.81 1334.07,-279.61 1329.29,-266 1324.12,-251.31 1323.1,-233.84 1323.38,-219.96"/>
<polygon fill="midnightblue" stroke="midnightblue" points="1326.89,-219.87 1323.83,-209.73 1319.89,-219.56 1326.89,-219.87"/>
</g>
<!-- Node40 -->
<g id="node19" class="node">
<title>Node40</title>
<g id="a_node19"><a xlink:href="numeric_8h.html" target="_top" xlink:title=" ">
<polygon fill="white" stroke="black" points="1668.79,-179.5 1668.79,-209.5 1777.79,-209.5 1777.79,-179.5 1668.79,-179.5"/>
<text text-anchor="start" x="1676.79" y="-197.5" font-family="Helvetica,sans-Serif" font-size="10.00">emlabcpp/iterators</text>
<text text-anchor="middle" x="1723.29" y="-186.5" font-family="Helvetica,sans-Serif" font-size="10.00">/numeric.h</text>
</a>
</g>
</g>
<!-- Node1&#45;&gt;Node40 -->
<g id="edge30" class="edge">
<title>Node1&#45;&gt;Node40</title>
<path fill="none" stroke="midnightblue" d="M1411.67,-302.44C1440.71,-293.16 1478.68,-280.12 1511.29,-266 1528.8,-258.41 1531.59,-253.14 1549.29,-246 1584.58,-231.76 1625.38,-219.7 1658.59,-210.94"/>
<polygon fill="midnightblue" stroke="midnightblue" points="1659.84,-214.23 1668.64,-208.33 1658.08,-207.46 1659.84,-214.23"/>
</g>
<!-- Node31 -->
<g id="node20" class="node">
<title>Node31</title>
<g id="a_node20"><a xlink:href="match_8h.html" target="_top" xlink:title=" ">
<polygon fill="white" stroke="red" points="1683.79,-246.5 1683.79,-265.5 1790.79,-265.5 1790.79,-246.5 1683.79,-246.5"/>
<text text-anchor="middle" x="1737.29" y="-253.5" font-family="Helvetica,sans-Serif" font-size="10.00">emlabcpp/match.h</text>
</a>
</g>
</g>
<!-- Node1&#45;&gt;Node31 -->
<g id="edge32" class="edge">
<title>Node1&#45;&gt;Node31</title>
<path fill="none" stroke="midnightblue" d="M1438.34,-304.82C1506.93,-293.84 1608.5,-277.6 1673.79,-267.16"/>
<polygon fill="midnightblue" stroke="midnightblue" points="1674.63,-270.57 1683.95,-265.53 1673.52,-263.65 1674.63,-270.57"/>
</g>
<!-- Node41 -->
<g id="node21" class="node">
<title>Node41</title>
<g id="a_node21"><a xlink:href="serializer_8h.html" target="_top" xlink:title=" ">
<polygon fill="white" stroke="black" points="1338.29,-246.5 1338.29,-265.5 1502.29,-265.5 1502.29,-246.5 1338.29,-246.5"/>
<text text-anchor="middle" x="1420.29" y="-253.5" font-family="Helvetica,sans-Serif" font-size="10.00">emlabcpp/protocol/serializer.h</text>
</a>
</g>
</g>
<!-- Node1&#45;&gt;Node41 -->
<g id="edge33" class="edge">
<title>Node1&#45;&gt;Node41</title>
<path fill="none" stroke="midnightblue" d="M1378.32,-302.4C1386.48,-293.58 1397.01,-282.18 1405.48,-273.02"/>
<polygon fill="midnightblue" stroke="midnightblue" points="1408.07,-275.38 1412.28,-265.66 1402.93,-270.63 1408.07,-275.38"/>
</g>
<!-- Node48 -->
<g id="node27" class="node">
<title>Node48</title>
<g id="a_node27"><a xlink:href="traits_8h.html" target="_top" xlink:title=" ">
<polygon fill="white" stroke="black" points="938.79,-246.5 938.79,-265.5 1083.79,-265.5 1083.79,-246.5 938.79,-246.5"/>
<text text-anchor="middle" x="1011.29" y="-253.5" font-family="Helvetica,sans-Serif" font-size="10.00">emlabcpp/protocol/traits.h</text>
</a>
</g>
</g>
<!-- Node1&#45;&gt;Node48 -->
<g id="edge44" class="edge">
<title>Node1&#45;&gt;Node48</title>
<path fill="none" stroke="midnightblue" d="M1291.94,-304.17C1226.94,-293.25 1133.16,-277.48 1072.21,-267.24"/>
<polygon fill="midnightblue" stroke="midnightblue" points="1072.42,-263.73 1061.98,-265.52 1071.26,-270.63 1072.42,-263.73"/>
</g>
<!-- Node3 -->
<g id="node3" class="node">
<title>Node3</title>
<g id="a_node3"><a xlink:href="impl_8h.html" target="_top" xlink:title=" ">
<polygon fill="white" stroke="black" points="124.79,-112.5 124.79,-142.5 239.79,-142.5 239.79,-112.5 124.79,-112.5"/>
<text text-anchor="start" x="132.79" y="-130.5" font-family="Helvetica,sans-Serif" font-size="10.00">emlabcpp/algorithm</text>
<text text-anchor="middle" x="182.29" y="-119.5" font-family="Helvetica,sans-Serif" font-size="10.00">/impl.h</text>
</a>
</g>
</g>
<!-- Node2&#45;&gt;Node3 -->
<g id="edge2" class="edge">
<title>Node2&#45;&gt;Node3</title>
<path fill="none" stroke="midnightblue" d="M256.69,-184.73C244.51,-175.53 224.93,-160.73 208.92,-148.63"/>
<polygon fill="midnightblue" stroke="midnightblue" points="211.02,-145.83 200.93,-142.59 206.8,-151.41 211.02,-145.83"/>
</g>
<!-- Node4 -->
<g id="node4" class="node">
<title>Node4</title>
<g id="a_node4"><a xlink:href="types_8h.html" target="_top" xlink:title=" ">
<polygon fill="white" stroke="red" points="130.29,-0.5 130.29,-19.5 234.29,-19.5 234.29,-0.5 130.29,-0.5"/>
<text text-anchor="middle" x="182.29" y="-7.5" font-family="Helvetica,sans-Serif" font-size="10.00">emlabcpp/types.h</text>
</a>
</g>
</g>
<!-- Node2&#45;&gt;Node4 -->
<g id="edge8" class="edge">
<title>Node2&#45;&gt;Node4</title>
<path fill="none" stroke="midnightblue" d="M205.97,-189.75C173.32,-184.24 135.94,-171.56 115.29,-143 87.19,-104.14 135.64,-51.81 163.98,-26.28"/>
<polygon fill="midnightblue" stroke="midnightblue" points="166.47,-28.76 171.69,-19.55 161.86,-23.49 166.47,-28.76"/>
</g>
<!-- Node10 -->
<g id="node5" class="node">
<title>Node10</title>
<g id="a_node5"><a xlink:title=" ">
<polygon fill="white" stroke="#bfbfbf" points="299.79,-56.5 299.79,-75.5 340.79,-75.5 340.79,-56.5 299.79,-56.5"/>
<text text-anchor="middle" x="320.29" y="-63.5" font-family="Helvetica,sans-Serif" font-size="10.00">tuple</text>
</a>
</g>
</g>
<!-- Node2&#45;&gt;Node10 -->
<g id="edge13" class="edge">
<title>Node2&#45;&gt;Node10</title>
<path fill="none" stroke="midnightblue" d="M269.18,-184.56C270.98,-169.14 275.88,-136.82 287.29,-112 291.98,-101.79 299.2,-91.59 305.69,-83.49"/>
<polygon fill="midnightblue" stroke="midnightblue" points="308.55,-85.53 312.29,-75.62 303.18,-81.03 308.55,-85.53"/>
</g>
<!-- Node17 -->
<g id="node6" class="node">
<title>Node17</title>
<g id="a_node6"><a xlink:href="bounded_8h.html" target="_top" xlink:title=" ">
<polygon fill="white" stroke="red" points="1081.79,-118 1081.79,-137 1200.79,-137 1200.79,-118 1081.79,-118"/>
<text text-anchor="middle" x="1141.29" y="-125" font-family="Helvetica,sans-Serif" font-size="10.00">emlabcpp/bounded.h</text>
</a>
</g>
</g>
<!-- Node2&#45;&gt;Node17 -->
<g id="edge5" class="edge">
<title>Node2&#45;&gt;Node17</title>
<path fill="none" stroke="midnightblue" d="M330.47,-186.81C356.63,-184.14 387.42,-181.19 415.29,-179 689.58,-157.49 759.42,-169.32 1033.29,-143 1046.42,-141.74 1060.41,-140.09 1073.81,-138.35"/>
<polygon fill="midnightblue" stroke="midnightblue" points="1074.47,-141.8 1083.93,-137.02 1073.56,-134.86 1074.47,-141.8"/>
</g>
<!-- Node21 -->
<g id="node9" class="node">
<title>Node21</title>
<g id="a_node9"><a xlink:href="view_8h.html" target="_top" xlink:title=" ">
<polygon fill="white" stroke="black" points="1387.79,-56.5 1387.79,-75.5 1486.79,-75.5 1486.79,-56.5 1387.79,-56.5"/>
<text text-anchor="middle" x="1437.29" y="-63.5" font-family="Helvetica,sans-Serif" font-size="10.00">emlabcpp/view.h</text>
</a>
</g>
</g>
<!-- Node2&#45;&gt;Node21 -->
<g id="edge9" class="edge">
<title>Node2&#45;&gt;Node21</title>
<path fill="none" stroke="midnightblue" d="M309.46,-184.95C391.71,-168.21 582.33,-131.07 744.29,-112 977.56,-84.53 1257.14,-72.81 1377.44,-68.78"/>
<polygon fill="midnightblue" stroke="midnightblue" points="1377.67,-72.27 1387.55,-68.44 1377.44,-65.27 1377.67,-72.27"/>
</g>
<!-- Node22 -->
<g id="node10" class="node">
<title>Node22</title>
<g id="a_node10"><a xlink:title=" ">
<polygon fill="white" stroke="#bfbfbf" points="296.79,-118 296.79,-137 343.79,-137 343.79,-118 296.79,-118"/>
<text text-anchor="middle" x="320.29" y="-125" font-family="Helvetica,sans-Serif" font-size="10.00">cmath</text>
</a>
</g>
</g>
<!-- Node2&#45;&gt;Node22 -->
<g id="edge11" class="edge">
<title>Node2&#45;&gt;Node22</title>
<path fill="none" stroke="midnightblue" d="M275.3,-184.73C283.41,-174.6 296.94,-157.69 307.04,-145.06"/>
<polygon fill="midnightblue" stroke="midnightblue" points="309.87,-147.12 313.39,-137.13 304.41,-142.75 309.87,-147.12"/>
</g>
<!-- Node23 -->
<g id="node11" class="node">
<title>Node23</title>
<g id="a_node11"><a xlink:title=" ">
<polygon fill="white" stroke="#bfbfbf" points="18.79,-118 18.79,-137 67.79,-137 67.79,-118 18.79,-118"/>
<text text-anchor="middle" x="43.29" y="-125" font-family="Helvetica,sans-Serif" font-size="10.00">cstdlib</text>
</a>
</g>
</g>
<!-- Node2&#45;&gt;Node23 -->
<g id="edge12" class="edge">
<title>Node2&#45;&gt;Node23</title>
<path fill="none" stroke="midnightblue" d="M233.04,-184.95C195.43,-175.58 134.22,-159.67 82.29,-143 79.88,-142.23 77.4,-141.4 74.92,-140.53"/>
<polygon fill="midnightblue" stroke="midnightblue" points="76.03,-137.22 65.44,-137.13 73.67,-143.8 76.03,-137.22"/>
</g>
<!-- Node3&#45;&gt;Node4 -->
<g id="edge3" class="edge">
<title>Node3&#45;&gt;Node4</title>
<path fill="none" stroke="midnightblue" d="M182.29,-112.34C182.29,-91.62 182.29,-53.02 182.29,-29.9"/>
<polygon fill="midnightblue" stroke="midnightblue" points="185.79,-29.67 182.29,-19.67 178.79,-29.67 185.79,-29.67"/>
</g>
<!-- Node3&#45;&gt;Node10 -->
<g id="edge4" class="edge">
<title>Node3&#45;&gt;Node10</title>
<path fill="none" stroke="midnightblue" d="M214.99,-112.4C238.04,-102.46 268.65,-89.26 290.92,-79.66"/>
<polygon fill="midnightblue" stroke="midnightblue" points="292.41,-82.83 300.21,-75.66 289.64,-76.4 292.41,-82.83"/>
</g>
<!-- Node20 -->
<g id="node7" class="node">
<title>Node20</title>
<g id="a_node7"><a xlink:title=" ">
<polygon fill="white" stroke="#bfbfbf" points="1024.29,-56.5 1024.29,-75.5 1080.29,-75.5 1080.29,-56.5 1024.29,-56.5"/>
<text text-anchor="middle" x="1052.29" y="-63.5" font-family="Helvetica,sans-Serif" font-size="10.00">optional</text>
</a>
</g>
</g>
<!-- Node17&#45;&gt;Node20 -->
<g id="edge6" class="edge">
<title>Node17&#45;&gt;Node20</title>
<path fill="none" stroke="midnightblue" d="M1128.54,-117.98C1114.26,-108.43 1090.89,-92.81 1073.78,-81.37"/>
<polygon fill="midnightblue" stroke="midnightblue" points="1075.27,-78.16 1065.02,-75.51 1071.38,-83.98 1075.27,-78.16"/>
</g>
<!-- Node11 -->
<g id="node8" class="node">
<title>Node11</title>
<g id="a_node8"><a xlink:title=" ">
<polygon fill="white" stroke="#bfbfbf" points="809.79,-56.5 809.79,-75.5 878.79,-75.5 878.79,-56.5 809.79,-56.5"/>
<text text-anchor="middle" x="844.29" y="-63.5" font-family="Helvetica,sans-Serif" font-size="10.00">type_traits</text>
</a>
</g>
</g>
<!-- Node17&#45;&gt;Node11 -->
<g id="edge7" class="edge">
<title>Node17&#45;&gt;Node11</title>
<path fill="none" stroke="midnightblue" d="M1098.73,-117.98C1043.02,-106.81 945.78,-87.33 889.01,-75.96"/>
<polygon fill="midnightblue" stroke="midnightblue" points="889.39,-72.47 878.9,-73.93 888.01,-79.33 889.39,-72.47"/>
</g>
<!-- Node21&#45;&gt;Node4 -->
<g id="edge10" class="edge">
<title>Node21&#45;&gt;Node4</title>
<path fill="none" stroke="midnightblue" d="M1387.7,-62.87C1190.61,-54.39 462.77,-23.07 244.53,-13.68"/>
<polygon fill="midnightblue" stroke="midnightblue" points="244.67,-10.18 234.53,-13.25 244.37,-17.17 244.67,-10.18"/>
</g>
<!-- Node25 -->
<g id="node13" class="node">
<title>Node25</title>
<g id="a_node13"><a xlink:title=" ">
<polygon fill="white" stroke="#bfbfbf" points="1796.29,-185 1796.29,-204 1848.29,-204 1848.29,-185 1796.29,-185"/>
<text text-anchor="middle" x="1822.29" y="-192" font-family="Helvetica,sans-Serif" font-size="10.00">cassert</text>
</a>
</g>
</g>
<!-- Node24&#45;&gt;Node25 -->
<g id="edge15" class="edge">
<title>Node24&#45;&gt;Node25</title>
<path fill="none" stroke="midnightblue" d="M1652.02,-246.47C1687.79,-238.39 1741.61,-225.25 1787.29,-210 1789.21,-209.36 1791.17,-208.66 1793.14,-207.94"/>
<polygon fill="midnightblue" stroke="midnightblue" points="1794.82,-211.03 1802.85,-204.12 1792.26,-204.52 1794.82,-211.03"/>
</g>
<!-- Node26&#45;&gt;Node4 -->
<g id="edge22" class="edge">
<title>Node26&#45;&gt;Node4</title>
<path fill="none" stroke="midnightblue" d="M516.14,-253.25C388.68,-247.69 67.54,-225.61 9.29,-143 -31.12,-85.71 77.96,-42.11 141.04,-22.47"/>
<polygon fill="midnightblue" stroke="midnightblue" points="142.18,-25.77 150.74,-19.52 140.15,-19.08 142.18,-25.77"/>
</g>
<!-- Node26&#45;&gt;Node10 -->
<g id="edge24" class="edge">
<title>Node26&#45;&gt;Node10</title>
<path fill="none" stroke="midnightblue" d="M516.24,-248.25C468.19,-241 401.45,-228.05 382.29,-210 349.13,-178.77 372.41,-152.86 352.29,-112 347.37,-102.02 340.34,-91.84 334.12,-83.7"/>
<polygon fill="midnightblue" stroke="midnightblue" points="336.78,-81.42 327.82,-75.76 331.3,-85.77 336.78,-81.42"/>
</g>
<!-- Node26&#45;&gt;Node20 -->
<g id="edge23" class="edge">
<title>Node26&#45;&gt;Node20</title>
<path fill="none" stroke="midnightblue" d="M568.08,-246.37C568.17,-231 570.52,-198.66 587.29,-179 636.52,-121.28 671.26,-132.54 744.29,-112 839.05,-85.34 954.9,-73.84 1013.85,-69.42"/>
<polygon fill="midnightblue" stroke="midnightblue" points="1014.45,-72.88 1024.18,-68.67 1013.95,-65.9 1014.45,-72.88"/>
</g>
<!-- Node26&#45;&gt;Node11 -->
<g id="edge25" class="edge">
<title>Node26&#45;&gt;Node11</title>
<path fill="none" stroke="midnightblue" d="M516.13,-246.49C476.78,-238.88 427.56,-226.4 415.29,-210 407.03,-198.97 408.83,-191.17 415.29,-179 440.19,-132.07 464.66,-130.98 514.29,-112 611.24,-74.93 734.48,-67.72 799.47,-66.72"/>
<polygon fill="midnightblue" stroke="midnightblue" points="799.81,-70.22 809.77,-66.61 799.73,-63.22 799.81,-70.22"/>
</g>
<!-- Node27 -->
<g id="node15" class="node">
<title>Node27</title>
<g id="a_node15"><a xlink:href="static__vector_8h.html" target="_top" xlink:title=" ">
<polygon fill="white" stroke="red" points="786.79,-185 786.79,-204 925.79,-204 925.79,-185 786.79,-185"/>
<text text-anchor="middle" x="856.29" y="-192" font-family="Helvetica,sans-Serif" font-size="10.00">emlabcpp/static_vector.h</text>
</a>
</g>
</g>
<!-- Node26&#45;&gt;Node27 -->
<g id="edge17" class="edge">
<title>Node26&#45;&gt;Node27</title>
<path fill="none" stroke="midnightblue" d="M609.55,-246.48C661.09,-235.83 749.27,-217.61 805.07,-206.08"/>
<polygon fill="midnightblue" stroke="midnightblue" points="806.02,-209.46 815.1,-204.01 804.6,-202.6 806.02,-209.46"/>
</g>
<!-- Node38 -->
<g id="node17" class="node">
<title>Node38</title>
<g id="a_node17"><a xlink:title=" ">
<polygon fill="white" stroke="#bfbfbf" points="753.79,-118 753.79,-137 798.79,-137 798.79,-118 753.79,-118"/>
<text text-anchor="middle" x="776.29" y="-125" font-family="Helvetica,sans-Serif" font-size="10.00">utility</text>
</a>
</g>
</g>
<!-- Node26&#45;&gt;Node38 -->
<g id="edge26" class="edge">
<title>Node26&#45;&gt;Node38</title>
<path fill="none" stroke="midnightblue" d="M620.39,-252.64C657.05,-248.47 705.27,-237.62 738.29,-210 757.62,-193.83 767.68,-165.65 772.47,-147.03"/>
<polygon fill="midnightblue" stroke="midnightblue" points="775.93,-147.64 774.77,-137.11 769.11,-146.06 775.93,-147.64"/>
</g>
<!-- Node27&#45;&gt;Node11 -->
<g id="edge20" class="edge">
<title>Node27&#45;&gt;Node11</title>
<path fill="none" stroke="midnightblue" d="M855.46,-184.81C853.54,-164.49 848.7,-113.55 846.07,-85.78"/>
<polygon fill="midnightblue" stroke="midnightblue" points="849.55,-85.38 845.12,-75.76 842.58,-86.04 849.55,-85.38"/>
</g>
<!-- Node36 -->
<g id="node16" class="node">
<title>Node36</title>
<g id="a_node16"><a xlink:href="iterator_8h.html" target="_top" xlink:title=" ">
<polygon fill="white" stroke="red" points="1503.29,-118 1503.29,-137 1615.29,-137 1615.29,-118 1503.29,-118"/>
<text text-anchor="middle" x="1559.29" y="-125" font-family="Helvetica,sans-Serif" font-size="10.00">emlabcpp/iterator.h</text>
</a>
</g>
</g>
<!-- Node27&#45;&gt;Node36 -->
<g id="edge18" class="edge">
<title>Node27&#45;&gt;Node36</title>
<path fill="none" stroke="midnightblue" d="M925.84,-187.51C1031.89,-178.31 1240.37,-160 1417.29,-143 1442,-140.63 1469.12,-137.89 1492.98,-135.44"/>
<polygon fill="midnightblue" stroke="midnightblue" points="1493.4,-138.91 1502.98,-134.41 1492.68,-131.95 1493.4,-138.91"/>
</g>
<!-- Node27&#45;&gt;Node38 -->
<g id="edge21" class="edge">
<title>Node27&#45;&gt;Node38</title>
<path fill="none" stroke="midnightblue" d="M845.5,-184.73C832.54,-174.21 810.6,-156.38 794.89,-143.62"/>
<polygon fill="midnightblue" stroke="midnightblue" points="796.87,-140.72 786.91,-137.13 792.46,-146.15 796.87,-140.72"/>
</g>
<!-- Node36&#45;&gt;Node21 -->
<g id="edge19" class="edge">
<title>Node36&#45;&gt;Node21</title>
<path fill="none" stroke="midnightblue" d="M1541.81,-117.98C1521.42,-108.03 1487.51,-91.49 1463.86,-79.96"/>
<polygon fill="midnightblue" stroke="midnightblue" points="1465.26,-76.75 1454.73,-75.51 1462.19,-83.04 1465.26,-76.75"/>
</g>
<!-- Node39&#45;&gt;Node17 -->
<g id="edge28" class="edge">
<title>Node39&#45;&gt;Node17</title>
<path fill="none" stroke="midnightblue" d="M1285.36,-179.4C1252.36,-167.74 1206.04,-151.37 1174.91,-140.38"/>
<polygon fill="midnightblue" stroke="midnightblue" points="1175.96,-137.04 1165.37,-137.01 1173.63,-143.64 1175.96,-137.04"/>
</g>
<!-- Node39&#45;&gt;Node21 -->
<g id="edge29" class="edge">
<title>Node39&#45;&gt;Node21</title>
<path fill="none" stroke="midnightblue" d="M1366.53,-179.45C1384.51,-171.38 1404.39,-159.51 1417.29,-143 1430.12,-126.58 1434.76,-102.69 1436.41,-86.1"/>
<polygon fill="midnightblue" stroke="midnightblue" points="1439.91,-86.19 1437.15,-75.96 1432.93,-85.68 1439.91,-86.19"/>
</g>
<!-- Node40&#45;&gt;Node36 -->
<g id="edge31" class="edge">
<title>Node40&#45;&gt;Node36</title>
<path fill="none" stroke="midnightblue" d="M1687.7,-179.4C1658.67,-167.89 1618.07,-151.8 1590.34,-140.81"/>
<polygon fill="midnightblue" stroke="midnightblue" points="1591.34,-137.44 1580.75,-137.01 1588.76,-143.95 1591.34,-137.44"/>
</g>
<!-- Node41&#45;&gt;Node39 -->
<g id="edge34" class="edge">
<title>Node41&#45;&gt;Node39</title>
<path fill="none" stroke="midnightblue" d="M1406.68,-246.48C1393.57,-238.27 1373.28,-225.56 1356.24,-214.88"/>
<polygon fill="midnightblue" stroke="midnightblue" points="1358.01,-211.86 1347.68,-209.52 1354.29,-217.8 1358.01,-211.86"/>
</g>
<!-- Node41&#45;&gt;Node40 -->
<g id="edge35" class="edge">
<title>Node41&#45;&gt;Node40</title>
<path fill="none" stroke="midnightblue" d="M1466.07,-246.44C1513.27,-237.55 1588.99,-223.14 1654.29,-210 1655.75,-209.71 1657.23,-209.41 1658.72,-209.1"/>
<polygon fill="midnightblue" stroke="midnightblue" points="1659.6,-212.5 1668.69,-207.06 1658.19,-205.64 1659.6,-212.5"/>
</g>
<!-- Node42 -->
<g id="node22" class="node">
<title>Node42</title>
<g id="a_node22"><a xlink:href="protocol_2base_8h.html" target="_top" xlink:title=" ">
<polygon fill="white" stroke="red" points="1058.79,-185 1058.79,-204 1201.79,-204 1201.79,-185 1058.79,-185"/>
<text text-anchor="middle" x="1130.29" y="-192" font-family="Helvetica,sans-Serif" font-size="10.00">emlabcpp/protocol/base.h</text>
</a>
</g>
</g>
<!-- Node41&#45;&gt;Node42 -->
<g id="edge36" class="edge">
<title>Node41&#45;&gt;Node42</title>
<path fill="none" stroke="midnightblue" d="M1378.74,-246.48C1326.84,-235.83 1238.05,-217.61 1181.86,-206.08"/>
<polygon fill="midnightblue" stroke="midnightblue" points="1182.26,-202.59 1171.76,-204.01 1180.85,-209.45 1182.26,-202.59"/>
</g>
<!-- Node45 -->
<g id="node24" class="node">
<title>Node45</title>
<g id="a_node24"><a xlink:title=" ">
<polygon fill="white" stroke="#bfbfbf" points="1379.79,-118 1379.79,-137 1408.79,-137 1408.79,-118 1379.79,-118"/>
<text text-anchor="middle" x="1394.29" y="-125" font-family="Helvetica,sans-Serif" font-size="10.00">bit</text>
</a>
</g>
</g>
<!-- Node41&#45;&gt;Node45 -->
<g id="edge42" class="edge">
<title>Node41&#45;&gt;Node45</title>
<path fill="none" stroke="midnightblue" d="M1418.5,-246.31C1414.33,-225.99 1403.86,-175.05 1398.15,-147.28"/>
<polygon fill="midnightblue" stroke="midnightblue" points="1401.53,-146.35 1396.09,-137.26 1394.67,-147.76 1401.53,-146.35"/>
</g>
<!-- Node34 -->
<g id="node26" class="node">
<title>Node34</title>
<g id="a_node26"><a xlink:title=" ">
<polygon fill="white" stroke="#bfbfbf" points="1671.29,-118 1671.29,-137 1711.29,-137 1711.29,-118 1671.29,-118"/>
<text text-anchor="middle" x="1691.29" y="-125" font-family="Helvetica,sans-Serif" font-size="10.00">span</text>
</a>
</g>
</g>
<!-- Node41&#45;&gt;Node34 -->
<g id="edge43" class="edge">
<title>Node41&#45;&gt;Node34</title>
<path fill="none" stroke="midnightblue" d="M1476.42,-246.5C1527.07,-238.1 1597.22,-224.45 1621.29,-210 1647.71,-194.14 1669.18,-164.81 1681.09,-146"/>
<polygon fill="midnightblue" stroke="midnightblue" points="1684.2,-147.61 1686.42,-137.25 1678.23,-143.97 1684.2,-147.61"/>
</g>
<!-- Node42&#45;&gt;Node17 -->
<g id="edge37" class="edge">
<title>Node42&#45;&gt;Node17</title>
<path fill="none" stroke="midnightblue" d="M1131.77,-184.73C1133.39,-175.18 1136.02,-159.62 1138.11,-147.28"/>
<polygon fill="midnightblue" stroke="midnightblue" points="1141.61,-147.57 1139.83,-137.13 1134.71,-146.4 1141.61,-147.57"/>
</g>
<!-- Node42&#45;&gt;Node11 -->
<g id="edge40" class="edge">
<title>Node42&#45;&gt;Node11</title>
<path fill="none" stroke="midnightblue" d="M1120.18,-184.79C1096.35,-164.29 1038.27,-114.51 1033.29,-112 987.24,-88.82 928.8,-77.28 889.19,-71.74"/>
<polygon fill="midnightblue" stroke="midnightblue" points="889.42,-68.24 879.04,-70.4 888.5,-75.18 889.42,-68.24"/>
</g>
<!-- Node43 -->
<g id="node23" class="node">
<title>Node43</title>
<g id="a_node23"><a xlink:href="protocol_2error_8h.html" target="_top" xlink:title=" ">
<polygon fill="white" stroke="red" points="1219.29,-118 1219.29,-137 1361.29,-137 1361.29,-118 1219.29,-118"/>
<text text-anchor="middle" x="1290.29" y="-125" font-family="Helvetica,sans-Serif" font-size="10.00">emlabcpp/protocol/error.h</text>
</a>
</g>
</g>
<!-- Node42&#45;&gt;Node43 -->
<g id="edge38" class="edge">
<title>Node42&#45;&gt;Node43</title>
<path fill="none" stroke="midnightblue" d="M1151.53,-184.87C1179.22,-173.62 1227.85,-153.87 1259.55,-140.99"/>
<polygon fill="midnightblue" stroke="midnightblue" points="1261.26,-144.07 1269.21,-137.06 1258.63,-137.58 1261.26,-144.07"/>
</g>
<!-- Node42&#45;&gt;Node45 -->
<g id="edge39" class="edge">
<title>Node42&#45;&gt;Node45</title>
<path fill="none" stroke="midnightblue" d="M1201.15,-184.98C1249.91,-177.58 1315.52,-164.58 1370.29,-143 1371.16,-142.66 1372.04,-142.28 1372.91,-141.88"/>
<polygon fill="midnightblue" stroke="midnightblue" points="1374.84,-144.82 1381.99,-137.01 1371.53,-138.65 1374.84,-144.82"/>
</g>
<!-- Node15 -->
<g id="node25" class="node">
<title>Node15</title>
<g id="a_node25"><a xlink:title=" ">
<polygon fill="white" stroke="#bfbfbf" points="973.79,-118 973.79,-137 1024.79,-137 1024.79,-118 973.79,-118"/>
<text text-anchor="middle" x="999.29" y="-125" font-family="Helvetica,sans-Serif" font-size="10.00">variant</text>
</a>
</g>
</g>
<!-- Node42&#45;&gt;Node15 -->
<g id="edge41" class="edge">
<title>Node42&#45;&gt;Node15</title>
<path fill="none" stroke="midnightblue" d="M1112.89,-184.87C1090.67,-173.84 1052,-154.66 1026.03,-141.77"/>
<polygon fill="midnightblue" stroke="midnightblue" points="1027.27,-138.48 1016.76,-137.17 1024.16,-144.75 1027.27,-138.48"/>
</g>
<!-- Node48&#45;&gt;Node4 -->
<g id="edge57" class="edge">
<title>Node48&#45;&gt;Node4</title>
<path fill="none" stroke="midnightblue" d="M1002.94,-246.48C994.62,-237.75 981.75,-223.57 972.29,-210 927.55,-145.89 953.31,-97.86 887.29,-56 833.76,-22.06 407.01,-13.59 244.67,-11.59"/>
<polygon fill="midnightblue" stroke="midnightblue" points="244.41,-8.08 234.37,-11.46 244.33,-15.08 244.41,-8.08"/>
</g>
<!-- Node48&#45;&gt;Node20 -->
<g id="edge58" class="edge">
<title>Node48&#45;&gt;Node20</title>
<path fill="none" stroke="midnightblue" d="M1006.53,-246.26C991.95,-218.97 949.76,-135.74 964.29,-112 975.22,-94.13 995.73,-83.07 1014.2,-76.39"/>
<polygon fill="midnightblue" stroke="midnightblue" points="1015.5,-79.65 1023.9,-73.2 1013.31,-73 1015.5,-79.65"/>
</g>
<!-- Node48&#45;&gt;Node27 -->
<g id="edge56" class="edge">
<title>Node48&#45;&gt;Node27</title>
<path fill="none" stroke="midnightblue" d="M989.08,-246.48C962.61,-236.31 918.17,-219.26 888.07,-207.7"/>
<polygon fill="midnightblue" stroke="midnightblue" points="889.04,-204.33 878.45,-204.01 886.54,-210.86 889.04,-204.33"/>
</g>
<!-- Node48&#45;&gt;Node42 -->
<g id="edge47" class="edge">
<title>Node48&#45;&gt;Node42</title>
<path fill="none" stroke="midnightblue" d="M1028.34,-246.48C1048.13,-236.58 1081,-220.14 1104.06,-208.62"/>
<polygon fill="midnightblue" stroke="midnightblue" points="1105.89,-211.61 1113.27,-204.01 1102.76,-205.35 1105.89,-211.61"/>
</g>
<!-- Node48&#45;&gt;Node43 -->
<g id="edge48" class="edge">
<title>Node48&#45;&gt;Node43</title>
<path fill="none" stroke="midnightblue" d="M1083.9,-248.64C1123.26,-242.79 1171.61,-231.56 1210.29,-210 1225.58,-201.48 1257.83,-165.94 1276.38,-144.71"/>
<polygon fill="midnightblue" stroke="midnightblue" points="1279.06,-146.96 1282.96,-137.11 1273.77,-142.37 1279.06,-146.96"/>
</g>
<!-- Node48&#45;&gt;Node15 -->
<g id="edge59" class="edge">
<title>Node48&#45;&gt;Node15</title>
<path fill="none" stroke="midnightblue" d="M1010.91,-246.09C1010.26,-231.88 1008.76,-203.2 1006.29,-179 1005.2,-168.37 1003.58,-156.53 1002.18,-146.99"/>
<polygon fill="midnightblue" stroke="midnightblue" points="1005.63,-146.42 1000.67,-137.06 998.71,-147.47 1005.63,-146.42"/>
</g>
<!-- Node30 -->
<g id="node28" class="node">
<title>Node30</title>
<g id="a_node28"><a xlink:href="decompose_8h.html" target="_top" xlink:title=" ">
<polygon fill="white" stroke="red" points="596.79,-179.5 596.79,-209.5 729.79,-209.5 729.79,-179.5 596.79,-179.5"/>
<text text-anchor="start" x="604.79" y="-197.5" font-family="Helvetica,sans-Serif" font-size="10.00">emlabcpp/experimental</text>
<text text-anchor="middle" x="663.29" y="-186.5" font-family="Helvetica,sans-Serif" font-size="10.00">/decompose.h</text>
</a>
</g>
</g>
<!-- Node48&#45;&gt;Node30 -->
<g id="edge45" class="edge">
<title>Node48&#45;&gt;Node30</title>
<path fill="none" stroke="midnightblue" d="M961.43,-246.48C903.6,-236.59 807.59,-220.17 740.19,-208.65"/>
<polygon fill="midnightblue" stroke="midnightblue" points="740.49,-205.15 730.04,-206.91 739.31,-212.05 740.49,-205.15"/>
</g>
<!-- Node49 -->
<g id="node29" class="node">
<title>Node49</title>
<g id="a_node29"><a xlink:href="message_8h.html" target="_top" xlink:title=" ">
<polygon fill="white" stroke="red" points="1448.29,-185 1448.29,-204 1612.29,-204 1612.29,-185 1448.29,-185"/>
<text text-anchor="middle" x="1530.29" y="-192" font-family="Helvetica,sans-Serif" font-size="10.00">emlabcpp/protocol/message.h</text>
</a>
</g>
</g>
<!-- Node48&#45;&gt;Node49 -->
<g id="edge49" class="edge">
<title>Node48&#45;&gt;Node49</title>
<path fill="none" stroke="midnightblue" d="M1084,-246.66C1179.07,-235.76 1345.31,-216.71 1445.85,-205.18"/>
<polygon fill="midnightblue" stroke="midnightblue" points="1446.43,-208.64 1455.97,-204.02 1445.64,-201.68 1446.43,-208.64"/>
</g>
<!-- Node50 -->
<g id="node30" class="node">
<title>Node50</title>
<g id="a_node30"><a xlink:href="quantity_8h.html" target="_top" xlink:title=" ">
<polygon fill="white" stroke="red" points="424.29,-185 424.29,-204 540.29,-204 540.29,-185 424.29,-185"/>
<text text-anchor="middle" x="482.29" y="-192" font-family="Helvetica,sans-Serif" font-size="10.00">emlabcpp/quantity.h</text>
</a>
</g>
</g>
<!-- Node48&#45;&gt;Node50 -->
<g id="edge53" class="edge">
<title>Node48&#45;&gt;Node50</title>
<path fill="none" stroke="midnightblue" d="M938.43,-247.97C853.9,-239.65 710.36,-225.03 587.29,-210 575.44,-208.55 562.86,-206.91 550.68,-205.26"/>
<polygon fill="midnightblue" stroke="midnightblue" points="550.94,-201.77 540.56,-203.88 550,-208.7 550.94,-201.77"/>
</g>
<!-- Node30&#45;&gt;Node10 -->
<g id="edge46" class="edge">
<title>Node30&#45;&gt;Node10</title>
<path fill="none" stroke="midnightblue" d="M625.27,-179.48C556.7,-154.19 413.63,-101.43 350.89,-78.29"/>
<polygon fill="midnightblue" stroke="midnightblue" points="351.78,-74.88 341.19,-74.71 349.36,-81.45 351.78,-74.88"/>
</g>
<!-- Node49&#45;&gt;Node20 -->
<g id="edge51" class="edge">
<title>Node49&#45;&gt;Node20</title>
<path fill="none" stroke="midnightblue" d="M1521.58,-184.76C1503.78,-167.49 1461.2,-129.22 1417.29,-112 1358.41,-88.91 1172.08,-74.61 1090.81,-69.32"/>
<polygon fill="midnightblue" stroke="midnightblue" points="1090.73,-65.81 1080.52,-68.66 1090.28,-72.79 1090.73,-65.81"/>
</g>
<!-- Node49&#45;&gt;Node21 -->
<g id="edge50" class="edge">
<title>Node49&#45;&gt;Node21</title>
<path fill="none" stroke="midnightblue" d="M1564.36,-184.87C1585.64,-177.52 1611.36,-164.62 1624.29,-143 1631.36,-131.17 1632.81,-122.82 1624.29,-112 1608.61,-92.1 1545.84,-79.99 1497.3,-73.41"/>
<polygon fill="midnightblue" stroke="midnightblue" points="1497.55,-69.92 1487.18,-72.1 1496.65,-76.86 1497.55,-69.92"/>
</g>
<!-- Node49&#45;&gt;Node34 -->
<g id="edge52" class="edge">
<title>Node49&#45;&gt;Node34</title>
<path fill="none" stroke="midnightblue" d="M1552.38,-184.91C1577.77,-174.99 1620.65,-158.09 1657.29,-143 1658.88,-142.34 1660.51,-141.67 1662.15,-140.98"/>
<polygon fill="midnightblue" stroke="midnightblue" points="1663.69,-144.13 1671.55,-137.02 1660.97,-137.68 1663.69,-144.13"/>
</g>
<!-- Node50&#45;&gt;Node11 -->
<g id="edge55" class="edge">
<title>Node50&#45;&gt;Node11</title>
<path fill="none" stroke="midnightblue" d="M487.1,-184.83C497.12,-167.71 521.99,-129.67 554.29,-112 595.63,-89.38 728.67,-75.95 799.29,-70.24"/>
<polygon fill="midnightblue" stroke="midnightblue" points="799.95,-73.7 809.65,-69.43 799.4,-66.72 799.95,-73.7"/>
</g>
<!-- Node50&#45;&gt;Node22 -->
<g id="edge54" class="edge">
<title>Node50&#45;&gt;Node22</title>
<path fill="none" stroke="midnightblue" d="M460.78,-184.87C432.62,-173.57 383.08,-153.7 350.99,-140.82"/>
<polygon fill="midnightblue" stroke="midnightblue" points="352.21,-137.54 341.63,-137.06 349.61,-144.04 352.21,-137.54"/>
</g>
</g>
</svg>
