<?xml version="1.0" encoding="UTF-8" standalone="no"?>
<!DOCTYPE svg PUBLIC "-//W3C//DTD SVG 1.1//EN"
 "http://www.w3.org/Graphics/SVG/1.1/DTD/svg11.dtd">
<!-- Generated by graphviz version 2.43.0 (0)
 -->
<!-- Title: include/emlabcpp/protocol/converter.h Pages: 1 -->
<svg width="1606pt" height="285pt"
 viewBox="0.00 0.00 1606.00 285.00" xmlns="http://www.w3.org/2000/svg" xmlns:xlink="http://www.w3.org/1999/xlink">
<g id="graph0" class="graph" transform="scale(1 1) rotate(0) translate(4 281)">
<title>include/emlabcpp/protocol/converter.h</title>
<polygon fill="white" stroke="transparent" points="-4,4 -4,-281 1602,-281 1602,4 -4,4"/>
<!-- Node1 -->
<g id="node1" class="node">
<title>Node1</title>
<g id="a_node1"><a xlink:title=" ">
<polygon fill="#bfbfbf" stroke="black" points="623,-246.5 623,-276.5 769,-276.5 769,-246.5 623,-246.5"/>
<text text-anchor="start" x="631" y="-264.5" font-family="Helvetica,sans-Serif" font-size="10.00">include/emlabcpp/protocol</text>
<text text-anchor="middle" x="696" y="-253.5" font-family="Helvetica,sans-Serif" font-size="10.00">/converter.h</text>
</a>
</g>
</g>
<!-- Node2 -->
<g id="node2" class="node">
<title>Node2</title>
<g id="a_node2"><a xlink:href="algorithm_8h.html" target="_top" xlink:title=" ">
<polygon fill="white" stroke="black" points="634,-129 634,-148 758,-148 758,-129 634,-129"/>
<text text-anchor="middle" x="696" y="-136" font-family="Helvetica,sans-Serif" font-size="10.00">emlabcpp/algorithm.h</text>
</a>
</g>
</g>
<!-- Node1&#45;&gt;Node2 -->
<g id="edge1" class="edge">
<title>Node1&#45;&gt;Node2</title>
<path fill="none" stroke="midnightblue" d="M696,-246.14C696,-224.2 696,-182.33 696,-158.09"/>
<polygon fill="midnightblue" stroke="midnightblue" points="699.5,-158.05 696,-148.05 692.5,-158.05 699.5,-158.05"/>
</g>
<!-- Node28 -->
<g id="node14" class="node">
<title>Node28</title>
<g id="a_node14"><a xlink:href="assert_8h.html" target="_top" xlink:title=" ">
<polygon fill="white" stroke="black" points="1297.5,-190.5 1297.5,-209.5 1404.5,-209.5 1404.5,-190.5 1297.5,-190.5"/>
<text text-anchor="middle" x="1351" y="-197.5" font-family="Helvetica,sans-Serif" font-size="10.00">emlabcpp/assert.h</text>
</a>
</g>
</g>
<!-- Node1&#45;&gt;Node28 -->
<g id="edge16" class="edge">
<title>Node1&#45;&gt;Node28</title>
<path fill="none" stroke="midnightblue" d="M769.23,-253.85C898.46,-242.11 1164.85,-217.91 1287.12,-206.8"/>
<polygon fill="midnightblue" stroke="midnightblue" points="1287.44,-210.29 1297.08,-205.9 1286.8,-203.32 1287.44,-210.29"/>
</g>
<!-- Node30 -->
<g id="node16" class="node">
<title>Node30</title>
<g id="a_node16"><a xlink:href="serializer_8h.html" target="_top" xlink:title=" ">
<polygon fill="white" stroke="black" points="303,-190.5 303,-209.5 467,-209.5 467,-190.5 303,-190.5"/>
<text text-anchor="middle" x="385" y="-197.5" font-family="Helvetica,sans-Serif" font-size="10.00">emlabcpp/protocol/serializer.h</text>
</a>
</g>
</g>
<!-- Node1&#45;&gt;Node30 -->
<g id="edge18" class="edge">
<title>Node1&#45;&gt;Node30</title>
<path fill="none" stroke="midnightblue" d="M622.69,-246.47C566.58,-235.74 490.42,-221.17 439.59,-211.44"/>
<polygon fill="midnightblue" stroke="midnightblue" points="439.94,-207.95 429.46,-209.51 438.63,-214.82 439.94,-207.95"/>
</g>
<!-- Node40 -->
<g id="node22" class="node">
<title>Node40</title>
<g id="a_node22"><a xlink:href="traits_8h.html" target="_top" xlink:title=" ">
<polygon fill="white" stroke="black" points="913.5,-190.5 913.5,-209.5 1058.5,-209.5 1058.5,-190.5 913.5,-190.5"/>
<text text-anchor="middle" x="986" y="-197.5" font-family="Helvetica,sans-Serif" font-size="10.00">emlabcpp/protocol/traits.h</text>
</a>
</g>
</g>
<!-- Node1&#45;&gt;Node40 -->
<g id="edge30" class="edge">
<title>Node1&#45;&gt;Node40</title>
<path fill="none" stroke="midnightblue" d="M764.36,-246.47C816.47,-235.78 887.1,-221.29 934.5,-211.57"/>
<polygon fill="midnightblue" stroke="midnightblue" points="935.45,-214.94 944.54,-209.51 934.04,-208.09 935.45,-214.94"/>
</g>
<!-- Node52 -->
<g id="node28" class="node">
<title>Node52</title>
<g id="a_node28"><a xlink:href="visit_8h.html" target="_top" xlink:title=" ">
<polygon fill="white" stroke="black" points="0,-129 0,-148 98,-148 98,-129 0,-129"/>
<text text-anchor="middle" x="49" y="-136" font-family="Helvetica,sans-Serif" font-size="10.00">emlabcpp/visit.h</text>
</a>
</g>
</g>
<!-- Node1&#45;&gt;Node52 -->
<g id="edge45" class="edge">
<title>Node1&#45;&gt;Node52</title>
<path fill="none" stroke="midnightblue" d="M622.82,-254.74C541.82,-247.58 407.69,-233.35 294,-210 217.66,-194.32 130.43,-166.86 83.4,-151.24"/>
<polygon fill="midnightblue" stroke="midnightblue" points="84.32,-147.85 73.72,-148 82.1,-154.49 84.32,-147.85"/>
</g>
<!-- Node3 -->
<g id="node3" class="node">
<title>Node3</title>
<g id="a_node3"><a xlink:href="impl_8h.html" target="_top" xlink:title=" ">
<polygon fill="white" stroke="black" points="430.5,-56.5 430.5,-86.5 545.5,-86.5 545.5,-56.5 430.5,-56.5"/>
<text text-anchor="start" x="438.5" y="-74.5" font-family="Helvetica,sans-Serif" font-size="10.00">emlabcpp/algorithm</text>
<text text-anchor="middle" x="488" y="-63.5" font-family="Helvetica,sans-Serif" font-size="10.00">/impl.h</text>
</a>
</g>
</g>
<!-- Node2&#45;&gt;Node3 -->
<g id="edge2" class="edge">
<title>Node2&#45;&gt;Node3</title>
<path fill="none" stroke="midnightblue" d="M668.38,-128.87C636.42,-118.88 583.03,-102.2 542.61,-89.56"/>
<polygon fill="midnightblue" stroke="midnightblue" points="543.48,-86.17 532.89,-86.53 541.39,-92.85 543.48,-86.17"/>
</g>
<!-- Node4 -->
<g id="node4" class="node">
<title>Node4</title>
<g id="a_node4"><a xlink:href="types_8h.html" target="_top" xlink:title=" ">
<polygon fill="white" stroke="red" points="1009,-0.5 1009,-19.5 1113,-19.5 1113,-0.5 1009,-0.5"/>
<text text-anchor="middle" x="1061" y="-7.5" font-family="Helvetica,sans-Serif" font-size="10.00">emlabcpp/types.h</text>
</a>
</g>
</g>
<!-- Node2&#45;&gt;Node4 -->
<g id="edge9" class="edge">
<title>Node2&#45;&gt;Node4</title>
<path fill="none" stroke="midnightblue" d="M736.32,-128.98C799.01,-115.66 913.6,-91.01 922,-87 941.98,-77.45 942.09,-67.52 961,-56 982.38,-42.98 1008.17,-31.46 1028.21,-23.34"/>
<polygon fill="midnightblue" stroke="midnightblue" points="1029.54,-26.58 1037.54,-19.63 1026.96,-20.07 1029.54,-26.58"/>
</g>
<!-- Node10 -->
<g id="node5" class="node">
<title>Node10</title>
<g id="a_node5"><a xlink:title=" ">
<polygon fill="white" stroke="#bfbfbf" points="424.5,-0.5 424.5,-19.5 465.5,-19.5 465.5,-0.5 424.5,-0.5"/>
<text text-anchor="middle" x="445" y="-7.5" font-family="Helvetica,sans-Serif" font-size="10.00">tuple</text>
</a>
</g>
</g>
<!-- Node2&#45;&gt;Node10 -->
<g id="edge15" class="edge">
<title>Node2&#45;&gt;Node10</title>
<path fill="none" stroke="midnightblue" d="M696.77,-128.92C697.74,-112.28 697.3,-75.55 677,-56 648.61,-28.66 532.17,-17.01 475.83,-12.9"/>
<polygon fill="midnightblue" stroke="midnightblue" points="475.94,-9.4 465.72,-12.2 475.45,-16.38 475.94,-9.4"/>
</g>
<!-- Node17 -->
<g id="node6" class="node">
<title>Node17</title>
<g id="a_node6"><a xlink:href="bounded_8h.html" target="_top" xlink:title=" ">
<polygon fill="white" stroke="red" points="970.5,-62 970.5,-81 1089.5,-81 1089.5,-62 970.5,-62"/>
<text text-anchor="middle" x="1030" y="-69" font-family="Helvetica,sans-Serif" font-size="10.00">emlabcpp/bounded.h</text>
</a>
</g>
</g>
<!-- Node2&#45;&gt;Node17 -->
<g id="edge5" class="edge">
<title>Node2&#45;&gt;Node17</title>
<path fill="none" stroke="midnightblue" d="M737.28,-128.97C747.02,-126.99 757.37,-124.9 767,-123 850.89,-106.44 872.04,-103.22 956,-87 962.65,-85.72 969.63,-84.36 976.55,-83.01"/>
<polygon fill="midnightblue" stroke="midnightblue" points="977.43,-86.4 986.57,-81.05 976.09,-79.53 977.43,-86.4"/>
</g>
<!-- Node19 -->
<g id="node8" class="node">
<title>Node19</title>
<g id="a_node8"><a xlink:href="min__max_8h.html" target="_top" xlink:title=" ">
<polygon fill="white" stroke="red" points="724,-62 724,-81 846,-81 846,-62 724,-62"/>
<text text-anchor="middle" x="785" y="-69" font-family="Helvetica,sans-Serif" font-size="10.00">emlabcpp/min_max.h</text>
</a>
</g>
</g>
<!-- Node2&#45;&gt;Node19 -->
<g id="edge7" class="edge">
<title>Node2&#45;&gt;Node19</title>
<path fill="none" stroke="midnightblue" d="M708,-128.73C722.55,-118.11 747.28,-100.05 764.78,-87.26"/>
<polygon fill="midnightblue" stroke="midnightblue" points="767.18,-89.85 773.19,-81.13 763.05,-84.2 767.18,-89.85"/>
</g>
<!-- Node21 -->
<g id="node9" class="node">
<title>Node21</title>
<g id="a_node9"><a xlink:href="range_8h.html" target="_top" xlink:title=" ">
<polygon fill="white" stroke="red" points="564,-62 564,-81 668,-81 668,-62 564,-62"/>
<text text-anchor="middle" x="616" y="-69" font-family="Helvetica,sans-Serif" font-size="10.00">emlabcpp/range.h</text>
</a>
</g>
</g>
<!-- Node2&#45;&gt;Node21 -->
<g id="edge8" class="edge">
<title>Node2&#45;&gt;Node21</title>
<path fill="none" stroke="midnightblue" d="M685.21,-128.73C672.26,-118.21 650.31,-100.38 634.61,-87.62"/>
<polygon fill="midnightblue" stroke="midnightblue" points="636.59,-84.72 626.62,-81.13 632.17,-90.15 636.59,-84.72"/>
</g>
<!-- Node24 -->
<g id="node10" class="node">
<title>Node24</title>
<g id="a_node10"><a xlink:href="view_8h.html" target="_top" xlink:title=" ">
<polygon fill="white" stroke="black" points="1172.5,-62 1172.5,-81 1271.5,-81 1271.5,-62 1172.5,-62"/>
<text text-anchor="middle" x="1222" y="-69" font-family="Helvetica,sans-Serif" font-size="10.00">emlabcpp/view.h</text>
</a>
</g>
</g>
<!-- Node2&#45;&gt;Node24 -->
<g id="edge10" class="edge">
<title>Node2&#45;&gt;Node24</title>
<path fill="none" stroke="midnightblue" d="M733.82,-128.97C744.5,-126.78 756.17,-124.59 767,-123 941.84,-97.28 988.7,-116.17 1163,-87 1168.86,-86.02 1175.01,-84.77 1181.02,-83.41"/>
<polygon fill="midnightblue" stroke="midnightblue" points="1182.03,-86.77 1190.95,-81.06 1180.41,-79.96 1182.03,-86.77"/>
</g>
<!-- Node26 -->
<g id="node12" class="node">
<title>Node26</title>
<g id="a_node12"><a xlink:title=" ">
<polygon fill="white" stroke="#bfbfbf" points="1107.5,-62 1107.5,-81 1154.5,-81 1154.5,-62 1107.5,-62"/>
<text text-anchor="middle" x="1131" y="-69" font-family="Helvetica,sans-Serif" font-size="10.00">cmath</text>
</a>
</g>
</g>
<!-- Node2&#45;&gt;Node26 -->
<g id="edge13" class="edge">
<title>Node2&#45;&gt;Node26</title>
<path fill="none" stroke="midnightblue" d="M734.57,-128.94C745.06,-126.8 756.43,-124.65 767,-123 913.21,-100.17 955.04,-125.21 1098,-87 1100.3,-86.39 1102.64,-85.64 1104.96,-84.8"/>
<polygon fill="midnightblue" stroke="midnightblue" points="1106.28,-88.05 1114.23,-81.05 1103.65,-81.56 1106.28,-88.05"/>
</g>
<!-- Node27 -->
<g id="node13" class="node">
<title>Node27</title>
<g id="a_node13"><a xlink:title=" ">
<polygon fill="white" stroke="#bfbfbf" points="864.5,-62 864.5,-81 913.5,-81 913.5,-62 864.5,-62"/>
<text text-anchor="middle" x="889" y="-69" font-family="Helvetica,sans-Serif" font-size="10.00">cstdlib</text>
</a>
</g>
</g>
<!-- Node2&#45;&gt;Node27 -->
<g id="edge14" class="edge">
<title>Node2&#45;&gt;Node27</title>
<path fill="none" stroke="midnightblue" d="M725.89,-128.94C758.06,-119.5 810.6,-103.47 855,-87 856.65,-86.39 858.35,-85.74 860.05,-85.07"/>
<polygon fill="midnightblue" stroke="midnightblue" points="861.79,-88.14 869.71,-81.1 859.13,-81.66 861.79,-88.14"/>
</g>
<!-- Node3&#45;&gt;Node4 -->
<g id="edge3" class="edge">
<title>Node3&#45;&gt;Node4</title>
<path fill="none" stroke="midnightblue" d="M545.66,-57.54C548.81,-56.99 551.94,-56.47 555,-56 713.79,-31.85 902.73,-19.29 998.56,-14.05"/>
<polygon fill="midnightblue" stroke="midnightblue" points="998.86,-17.54 1008.66,-13.5 998.49,-10.55 998.86,-17.54"/>
</g>
<!-- Node3&#45;&gt;Node10 -->
<g id="edge4" class="edge">
<title>Node3&#45;&gt;Node10</title>
<path fill="none" stroke="midnightblue" d="M477.81,-56.4C471.63,-47.84 463.7,-36.87 457.18,-27.86"/>
<polygon fill="midnightblue" stroke="midnightblue" points="459.95,-25.71 451.26,-19.66 454.28,-29.81 459.95,-25.71"/>
</g>
<!-- Node18 -->
<g id="node7" class="node">
<title>Node18</title>
<g id="a_node7"><a xlink:title=" ">
<polygon fill="white" stroke="#bfbfbf" points="1370,-0.5 1370,-19.5 1426,-19.5 1426,-0.5 1370,-0.5"/>
<text text-anchor="middle" x="1398" y="-7.5" font-family="Helvetica,sans-Serif" font-size="10.00">optional</text>
</a>
</g>
</g>
<!-- Node17&#45;&gt;Node18 -->
<g id="edge6" class="edge">
<title>Node17&#45;&gt;Node18</title>
<path fill="none" stroke="midnightblue" d="M1068.04,-61.96C1077.78,-59.89 1088.26,-57.77 1098,-56 1191.66,-39.01 1302.62,-23.58 1359.75,-15.97"/>
<polygon fill="midnightblue" stroke="midnightblue" points="1360.33,-19.43 1369.78,-14.65 1359.41,-12.49 1360.33,-19.43"/>
</g>
<!-- Node24&#45;&gt;Node4 -->
<g id="edge11" class="edge">
<title>Node24&#45;&gt;Node4</title>
<path fill="none" stroke="midnightblue" d="M1198.93,-61.98C1171.32,-51.77 1124.88,-34.61 1093.6,-23.05"/>
<polygon fill="midnightblue" stroke="midnightblue" points="1094.62,-19.69 1084.02,-19.51 1092.19,-26.26 1094.62,-19.69"/>
</g>
<!-- Node25 -->
<g id="node11" class="node">
<title>Node25</title>
<g id="a_node11"><a xlink:title=" ">
<polygon fill="white" stroke="#bfbfbf" points="777,-0.5 777,-19.5 817,-19.5 817,-0.5 777,-0.5"/>
<text text-anchor="middle" x="797" y="-7.5" font-family="Helvetica,sans-Serif" font-size="10.00">span</text>
</a>
</g>
</g>
<!-- Node24&#45;&gt;Node25 -->
<g id="edge12" class="edge">
<title>Node24&#45;&gt;Node25</title>
<path fill="none" stroke="midnightblue" d="M1190.3,-61.98C1181.51,-59.81 1171.92,-57.64 1163,-56 1039.49,-33.31 890.38,-18.97 827.41,-13.51"/>
<polygon fill="midnightblue" stroke="midnightblue" points="827.63,-10.01 817.36,-12.65 827.03,-16.99 827.63,-10.01"/>
</g>
<!-- Node29 -->
<g id="node15" class="node">
<title>Node29</title>
<g id="a_node15"><a xlink:title=" ">
<polygon fill="white" stroke="#bfbfbf" points="1546,-129 1546,-148 1598,-148 1598,-129 1546,-129"/>
<text text-anchor="middle" x="1572" y="-136" font-family="Helvetica,sans-Serif" font-size="10.00">cassert</text>
</a>
</g>
</g>
<!-- Node28&#45;&gt;Node29 -->
<g id="edge17" class="edge">
<title>Node28&#45;&gt;Node29</title>
<path fill="none" stroke="midnightblue" d="M1390.51,-190.42C1427.4,-182.12 1483.83,-168.67 1532,-154 1534.63,-153.2 1537.33,-152.33 1540.04,-151.42"/>
<polygon fill="midnightblue" stroke="midnightblue" points="1541.42,-154.64 1549.71,-148.04 1539.12,-148.03 1541.42,-154.64"/>
</g>
<!-- Node30&#45;&gt;Node21 -->
<g id="edge27" class="edge">
<title>Node30&#45;&gt;Node21</title>
<path fill="none" stroke="midnightblue" d="M392.92,-190.29C407.42,-174.79 439.83,-142.25 473,-123 503.66,-105.21 541.62,-92.16 570.72,-83.79"/>
<polygon fill="midnightblue" stroke="midnightblue" points="571.93,-87.09 580.62,-81.03 570.05,-80.35 571.93,-87.09"/>
</g>
<!-- Node30&#45;&gt;Node25 -->
<g id="edge29" class="edge">
<title>Node30&#45;&gt;Node25</title>
<path fill="none" stroke="midnightblue" d="M324.83,-190.43C223.23,-173.68 35.29,-131.46 106,-56 128.91,-31.55 636.16,-15.55 766.62,-11.83"/>
<polygon fill="midnightblue" stroke="midnightblue" points="766.82,-15.33 776.71,-11.55 766.62,-8.33 766.82,-15.33"/>
</g>
<!-- Node31 -->
<g id="node17" class="node">
<title>Node31</title>
<g id="a_node17"><a xlink:href="bounded__view_8h.html" target="_top" xlink:title=" ">
<polygon fill="white" stroke="black" points="776.5,-123.5 776.5,-153.5 909.5,-153.5 909.5,-123.5 776.5,-123.5"/>
<text text-anchor="start" x="784.5" y="-141.5" font-family="Helvetica,sans-Serif" font-size="10.00">emlabcpp/experimental</text>
<text text-anchor="middle" x="843" y="-130.5" font-family="Helvetica,sans-Serif" font-size="10.00">/bounded_view.h</text>
</a>
</g>
</g>
<!-- Node30&#45;&gt;Node31 -->
<g id="edge19" class="edge">
<title>Node30&#45;&gt;Node31</title>
<path fill="none" stroke="midnightblue" d="M467.2,-191.03C542.44,-183.34 657.09,-170.64 766.43,-154.02"/>
<polygon fill="midnightblue" stroke="midnightblue" points="766.96,-157.48 776.32,-152.5 765.9,-150.56 766.96,-157.48"/>
</g>
<!-- Node32 -->
<g id="node18" class="node">
<title>Node32</title>
<g id="a_node18"><a xlink:href="protocol_2base_8h.html" target="_top" xlink:title=" ">
<polygon fill="white" stroke="red" points="244.5,-129 244.5,-148 387.5,-148 387.5,-129 244.5,-129"/>
<text text-anchor="middle" x="316" y="-136" font-family="Helvetica,sans-Serif" font-size="10.00">emlabcpp/protocol/base.h</text>
</a>
</g>
</g>
<!-- Node30&#45;&gt;Node32 -->
<g id="edge22" class="edge">
<title>Node30&#45;&gt;Node32</title>
<path fill="none" stroke="midnightblue" d="M375.11,-190.48C364.35,-181.2 346.93,-166.17 333.78,-154.83"/>
<polygon fill="midnightblue" stroke="midnightblue" points="335.73,-151.89 325.87,-148.01 331.16,-157.19 335.73,-151.89"/>
</g>
<!-- Node38 -->
<g id="node20" class="node">
<title>Node38</title>
<g id="a_node20"><a xlink:title=" ">
<polygon fill="white" stroke="#bfbfbf" points="184.5,-62 184.5,-81 213.5,-81 213.5,-62 184.5,-62"/>
<text text-anchor="middle" x="199" y="-69" font-family="Helvetica,sans-Serif" font-size="10.00">bit</text>
</a>
</g>
</g>
<!-- Node30&#45;&gt;Node38 -->
<g id="edge28" class="edge">
<title>Node30&#45;&gt;Node38</title>
<path fill="none" stroke="midnightblue" d="M313.49,-190.49C286.32,-184.17 256.71,-173.16 235,-154 216.28,-137.48 206.86,-109.39 202.45,-90.89"/>
<polygon fill="midnightblue" stroke="midnightblue" points="205.85,-90.09 200.35,-81.03 199.01,-91.54 205.85,-90.09"/>
</g>
<!-- Node31&#45;&gt;Node17 -->
<g id="edge20" class="edge">
<title>Node31&#45;&gt;Node17</title>
<path fill="none" stroke="midnightblue" d="M883.58,-123.4C917.11,-111.74 964.2,-95.37 995.83,-84.38"/>
<polygon fill="midnightblue" stroke="midnightblue" points="997.23,-87.6 1005.53,-81.01 994.93,-80.98 997.23,-87.6"/>
</g>
<!-- Node31&#45;&gt;Node24 -->
<g id="edge21" class="edge">
<title>Node31&#45;&gt;Node24</title>
<path fill="none" stroke="midnightblue" d="M909.7,-124.61C912.84,-124.05 915.95,-123.52 919,-123 1027.08,-104.72 1055.43,-108.1 1163,-87 1168.43,-85.93 1174.12,-84.7 1179.73,-83.4"/>
<polygon fill="midnightblue" stroke="midnightblue" points="1180.75,-86.75 1189.66,-81.03 1179.12,-79.95 1180.75,-86.75"/>
</g>
<!-- Node32&#45;&gt;Node17 -->
<g id="edge23" class="edge">
<title>Node32&#45;&gt;Node17</title>
<path fill="none" stroke="midnightblue" d="M387.89,-130.68C414.61,-128.19 445.18,-125.4 473,-123 672.46,-105.79 722.94,-108.33 922,-87 934.54,-85.66 947.88,-84.03 960.74,-82.36"/>
<polygon fill="midnightblue" stroke="midnightblue" points="961.48,-85.79 970.93,-81.01 960.56,-78.85 961.48,-85.79"/>
</g>
<!-- Node33 -->
<g id="node19" class="node">
<title>Node33</title>
<g id="a_node19"><a xlink:href="protocol_2error_8h.html" target="_top" xlink:title=" ">
<polygon fill="white" stroke="red" points="232,-62 232,-81 374,-81 374,-62 232,-62"/>
<text text-anchor="middle" x="303" y="-69" font-family="Helvetica,sans-Serif" font-size="10.00">emlabcpp/protocol/error.h</text>
</a>
</g>
</g>
<!-- Node32&#45;&gt;Node33 -->
<g id="edge24" class="edge">
<title>Node32&#45;&gt;Node33</title>
<path fill="none" stroke="midnightblue" d="M314.25,-128.73C312.34,-119.18 309.22,-103.62 306.76,-91.28"/>
<polygon fill="midnightblue" stroke="midnightblue" points="310.12,-90.25 304.73,-81.13 303.25,-91.62 310.12,-90.25"/>
</g>
<!-- Node32&#45;&gt;Node38 -->
<g id="edge25" class="edge">
<title>Node32&#45;&gt;Node38</title>
<path fill="none" stroke="midnightblue" d="M299.75,-128.97C281.09,-119.1 249.62,-102.26 223,-87 222.59,-86.76 222.17,-86.52 221.76,-86.28"/>
<polygon fill="midnightblue" stroke="midnightblue" points="223.28,-83.12 212.9,-81.04 219.72,-89.15 223.28,-83.12"/>
</g>
<!-- Node15 -->
<g id="node21" class="node">
<title>Node15</title>
<g id="a_node21"><a xlink:title=" ">
<polygon fill="white" stroke="#bfbfbf" points="115.5,-62 115.5,-81 166.5,-81 166.5,-62 115.5,-62"/>
<text text-anchor="middle" x="141" y="-69" font-family="Helvetica,sans-Serif" font-size="10.00">variant</text>
</a>
</g>
</g>
<!-- Node32&#45;&gt;Node15 -->
<g id="edge26" class="edge">
<title>Node32&#45;&gt;Node15</title>
<path fill="none" stroke="midnightblue" d="M290.62,-128.92C262.26,-119.21 215.07,-102.7 175,-87 173.4,-86.37 171.76,-85.72 170.11,-85.05"/>
<polygon fill="midnightblue" stroke="midnightblue" points="171.27,-81.74 160.7,-81.13 168.59,-88.2 171.27,-81.74"/>
</g>
<!-- Node40&#45;&gt;Node4 -->
<g id="edge41" class="edge">
<title>Node40&#45;&gt;Node4</title>
<path fill="none" stroke="midnightblue" d="M1058.51,-197.38C1184.62,-193.79 1433.55,-183.08 1460,-154 1559.17,-44.97 1258.95,-19.01 1123.57,-12.88"/>
<polygon fill="midnightblue" stroke="midnightblue" points="1123.47,-9.37 1113.33,-12.44 1123.17,-16.37 1123.47,-9.37"/>
</g>
<!-- Node40&#45;&gt;Node18 -->
<g id="edge43" class="edge">
<title>Node40&#45;&gt;Node18</title>
<path fill="none" stroke="midnightblue" d="M1058.65,-197.72C1189.76,-194.65 1454.97,-184.68 1483,-154 1503.44,-131.62 1469.29,-69.83 1459,-56 1449.61,-43.38 1435.69,-32.73 1423.52,-24.97"/>
<polygon fill="midnightblue" stroke="midnightblue" points="1425.02,-21.79 1414.65,-19.61 1421.4,-27.78 1425.02,-21.79"/>
</g>
<!-- Node40&#45;&gt;Node32 -->
<g id="edge33" class="edge">
<title>Node40&#45;&gt;Node32</title>
<path fill="none" stroke="midnightblue" d="M913.41,-195.51C802.78,-189.73 585.45,-176.49 402,-154 392.19,-152.8 381.8,-151.27 371.75,-149.65"/>
<polygon fill="midnightblue" stroke="midnightblue" points="372.3,-146.19 361.86,-148.02 371.16,-153.1 372.3,-146.19"/>
</g>
<!-- Node40&#45;&gt;Node33 -->
<g id="edge34" class="edge">
<title>Node40&#45;&gt;Node33</title>
<path fill="none" stroke="midnightblue" d="M913.32,-195.84C792.09,-190.02 553.95,-176.17 473,-154 443.76,-145.99 367.84,-106.91 328.09,-85.91"/>
<polygon fill="midnightblue" stroke="midnightblue" points="329.52,-82.7 319.04,-81.11 326.24,-88.89 329.52,-82.7"/>
</g>
<!-- Node40&#45;&gt;Node15 -->
<g id="edge44" class="edge">
<title>Node40&#45;&gt;Node15</title>
<path fill="none" stroke="midnightblue" d="M913.27,-197.3C736.95,-192.79 296.69,-179.15 235,-154 200.85,-140.08 170.44,-108.48 153.97,-88.97"/>
<polygon fill="midnightblue" stroke="midnightblue" points="156.65,-86.72 147.61,-81.2 151.24,-91.15 156.65,-86.72"/>
</g>
<!-- Node41 -->
<g id="node23" class="node">
<title>Node41</title>
<g id="a_node23"><a xlink:href="decompose_8h.html" target="_top" xlink:title=" ">
<polygon fill="white" stroke="red" points="482.5,-123.5 482.5,-153.5 615.5,-153.5 615.5,-123.5 482.5,-123.5"/>
<text text-anchor="start" x="490.5" y="-141.5" font-family="Helvetica,sans-Serif" font-size="10.00">emlabcpp/experimental</text>
<text text-anchor="middle" x="549" y="-130.5" font-family="Helvetica,sans-Serif" font-size="10.00">/decompose.h</text>
</a>
</g>
</g>
<!-- Node40&#45;&gt;Node41 -->
<g id="edge31" class="edge">
<title>Node40&#45;&gt;Node41</title>
<path fill="none" stroke="midnightblue" d="M913.2,-191.32C842.37,-183.53 731.47,-170.5 625.59,-154.03"/>
<polygon fill="midnightblue" stroke="midnightblue" points="626.11,-150.57 615.69,-152.47 625.02,-157.48 626.11,-150.57"/>
</g>
<!-- Node42 -->
<g id="node24" class="node">
<title>Node42</title>
<g id="a_node24"><a xlink:href="message_8h.html" target="_top" xlink:title=" ">
<polygon fill="white" stroke="red" points="1130,-129 1130,-148 1294,-148 1294,-129 1130,-129"/>
<text text-anchor="middle" x="1212" y="-136" font-family="Helvetica,sans-Serif" font-size="10.00">emlabcpp/protocol/message.h</text>
</a>
</g>
</g>
<!-- Node40&#45;&gt;Node42 -->
<g id="edge35" class="edge">
<title>Node40&#45;&gt;Node42</title>
<path fill="none" stroke="midnightblue" d="M1018.38,-190.48C1058.24,-179.98 1126.02,-162.14 1169.89,-150.59"/>
<polygon fill="midnightblue" stroke="midnightblue" points="1170.9,-153.94 1179.68,-148.01 1169.12,-147.17 1170.9,-153.94"/>
</g>
<!-- Node43 -->
<g id="node25" class="node">
<title>Node43</title>
<g id="a_node25"><a xlink:href="quantity_8h.html" target="_top" xlink:title=" ">
<polygon fill="white" stroke="red" points="928,-129 928,-148 1044,-148 1044,-129 928,-129"/>
<text text-anchor="middle" x="986" y="-136" font-family="Helvetica,sans-Serif" font-size="10.00">emlabcpp/quantity.h</text>
</a>
</g>
</g>
<!-- Node40&#45;&gt;Node43 -->
<g id="edge37" class="edge">
<title>Node40&#45;&gt;Node43</title>
<path fill="none" stroke="midnightblue" d="M986,-190.48C986,-182.08 986,-168.98 986,-158.16"/>
<polygon fill="midnightblue" stroke="midnightblue" points="989.5,-158.01 986,-148.01 982.5,-158.01 989.5,-158.01"/>
</g>
<!-- Node46 -->
<g id="node26" class="node">
<title>Node46</title>
<g id="a_node26"><a xlink:href="static__vector_8h.html" target="_top" xlink:title=" ">
<polygon fill="white" stroke="red" points="1312.5,-129 1312.5,-148 1451.5,-148 1451.5,-129 1312.5,-129"/>
<text text-anchor="middle" x="1382" y="-136" font-family="Helvetica,sans-Serif" font-size="10.00">emlabcpp/static_vector.h</text>
</a>
</g>
</g>
<!-- Node40&#45;&gt;Node46 -->
<g id="edge39" class="edge">
<title>Node40&#45;&gt;Node46</title>
<path fill="none" stroke="midnightblue" d="M1051.69,-190.47C1115.88,-181.94 1216.31,-168.1 1303,-154 1310.93,-152.71 1319.28,-151.27 1327.48,-149.81"/>
<polygon fill="midnightblue" stroke="midnightblue" points="1328.13,-153.24 1337.35,-148.02 1326.89,-146.36 1328.13,-153.24"/>
</g>
<!-- Node51 -->
<g id="node27" class="node">
<title>Node51</title>
<g id="a_node27"><a xlink:title=" ">
<polygon fill="white" stroke="#bfbfbf" points="1062,-129 1062,-148 1112,-148 1112,-129 1062,-129"/>
<text text-anchor="middle" x="1087" y="-136" font-family="Helvetica,sans-Serif" font-size="10.00">chrono</text>
</a>
</g>
</g>
<!-- Node40&#45;&gt;Node51 -->
<g id="edge42" class="edge">
<title>Node40&#45;&gt;Node51</title>
<path fill="none" stroke="midnightblue" d="M1000.47,-190.48C1016.97,-180.75 1044.18,-164.73 1063.68,-153.24"/>
<polygon fill="midnightblue" stroke="midnightblue" points="1065.72,-156.1 1072.56,-148.01 1062.16,-150.07 1065.72,-156.1"/>
</g>
<!-- Node41&#45;&gt;Node10 -->
<g id="edge32" class="edge">
<title>Node41&#45;&gt;Node10</title>
<path fill="none" stroke="midnightblue" d="M482.33,-127.06C458.95,-119.84 435.04,-107.64 421,-87 408.77,-69.02 420.6,-44.48 431.56,-28.2"/>
<polygon fill="midnightblue" stroke="midnightblue" points="434.69,-29.84 437.72,-19.69 429.02,-25.73 434.69,-29.84"/>
</g>
<!-- Node42&#45;&gt;Node24 -->
<g id="edge36" class="edge">
<title>Node42&#45;&gt;Node24</title>
<path fill="none" stroke="midnightblue" d="M1213.35,-128.73C1214.82,-119.18 1217.21,-103.62 1219.11,-91.28"/>
<polygon fill="midnightblue" stroke="midnightblue" points="1222.61,-91.54 1220.67,-81.13 1215.69,-90.48 1222.61,-91.54"/>
</g>
<!-- Node43&#45;&gt;Node26 -->
<g id="edge38" class="edge">
<title>Node43&#45;&gt;Node26</title>
<path fill="none" stroke="midnightblue" d="M1005.25,-128.87C1030.17,-117.7 1073.79,-98.15 1102.53,-85.26"/>
<polygon fill="midnightblue" stroke="midnightblue" points="1103.97,-88.45 1111.67,-81.17 1101.11,-82.06 1103.97,-88.45"/>
</g>
<!-- Node46&#45;&gt;Node24 -->
<g id="edge40" class="edge">
<title>Node46&#45;&gt;Node24</title>
<path fill="none" stroke="midnightblue" d="M1360.75,-128.87C1333.06,-117.62 1284.44,-97.87 1252.73,-84.99"/>
<polygon fill="midnightblue" stroke="midnightblue" points="1253.66,-81.58 1243.08,-81.06 1251.03,-88.07 1253.66,-81.58"/>
</g>
<!-- Node52&#45;&gt;Node3 -->
<g id="edge46" class="edge">
<title>Node52&#45;&gt;Node3</title>
<path fill="none" stroke="midnightblue" d="M98.08,-130.23C176.72,-118.59 331.12,-95.73 420.22,-82.54"/>
<polygon fill="midnightblue" stroke="midnightblue" points="420.85,-85.98 430.23,-81.05 419.82,-79.06 420.85,-85.98"/>
</g>
<!-- Node52&#45;&gt;Node10 -->
<g id="edge47" class="edge">
<title>Node52&#45;&gt;Node10</title>
<path fill="none" stroke="midnightblue" d="M48.7,-128.99C48.61,-112.14 51.05,-74.58 73,-56 124.1,-12.75 333.49,-9.96 413.61,-10.52"/>
<polygon fill="midnightblue" stroke="midnightblue" points="414,-14.03 424.03,-10.62 414.07,-7.03 414,-14.03"/>
</g>
<!-- Node52&#45;&gt;Node15 -->
<g id="edge48" class="edge">
<title>Node52&#45;&gt;Node15</title>
<path fill="none" stroke="midnightblue" d="M61.41,-128.73C76.58,-118.01 102.48,-99.72 120.6,-86.91"/>
<polygon fill="midnightblue" stroke="midnightblue" points="122.64,-89.76 128.79,-81.13 118.6,-84.04 122.64,-89.76"/>
</g>
</g>
</svg>
