<?xml version="1.0" encoding="UTF-8" standalone="no"?>
<!DOCTYPE svg PUBLIC "-//W3C//DTD SVG 1.1//EN"
 "http://www.w3.org/Graphics/SVG/1.1/DTD/svg11.dtd">
<!-- Generated by graphviz version 2.43.0 (0)
 -->
<!-- Title: include/emlabcpp/protocol/converter.h Pages: 1 -->
<svg width="1531pt" height="341pt"
 viewBox="0.00 0.00 1530.57 341.00" xmlns="http://www.w3.org/2000/svg" xmlns:xlink="http://www.w3.org/1999/xlink">
<g id="graph0" class="graph" transform="scale(1 1) rotate(0) translate(4 337)">
<title>include/emlabcpp/protocol/converter.h</title>
<polygon fill="white" stroke="transparent" points="-4,4 -4,-337 1526.57,-337 1526.57,4 -4,4"/>
<!-- Node1 -->
<g id="node1" class="node">
<title>Node1</title>
<g id="a_node1"><a xlink:title=" ">
<polygon fill="#bfbfbf" stroke="black" points="487.43,-302.5 487.43,-332.5 633.43,-332.5 633.43,-302.5 487.43,-302.5"/>
<text text-anchor="start" x="495.43" y="-320.5" font-family="Helvetica,sans-Serif" font-size="10.00">include/emlabcpp/protocol</text>
<text text-anchor="middle" x="560.43" y="-309.5" font-family="Helvetica,sans-Serif" font-size="10.00">/converter.h</text>
</a>
</g>
</g>
<!-- Node2 -->
<g id="node2" class="node">
<title>Node2</title>
<g id="a_node2"><a xlink:href="algorithm_8h.html" target="_top" xlink:title=" ">
<polygon fill="white" stroke="black" points="168.43,-185 168.43,-204 292.43,-204 292.43,-185 168.43,-185"/>
<text text-anchor="middle" x="230.43" y="-192" font-family="Helvetica,sans-Serif" font-size="10.00">emlabcpp/algorithm.h</text>
</a>
</g>
</g>
<!-- Node1&#45;&gt;Node2 -->
<g id="edge1" class="edge">
<title>Node1&#45;&gt;Node2</title>
<path fill="none" stroke="midnightblue" d="M507.36,-302.44C473.78,-293.11 429.66,-280.02 391.43,-266 343.14,-248.29 288.64,-223.34 257.04,-208.36"/>
<polygon fill="midnightblue" stroke="midnightblue" points="258.54,-205.19 248,-204.05 255.52,-211.51 258.54,-205.19"/>
</g>
<!-- Node23 -->
<g id="node12" class="node">
<title>Node23</title>
<g id="a_node12"><a xlink:href="assert_8h.html" target="_top" xlink:title=" ">
<polygon fill="white" stroke="black" points="93.93,-246.5 93.93,-265.5 200.93,-265.5 200.93,-246.5 93.93,-246.5"/>
<text text-anchor="middle" x="147.43" y="-253.5" font-family="Helvetica,sans-Serif" font-size="10.00">emlabcpp/assert.h</text>
</a>
</g>
</g>
<!-- Node1&#45;&gt;Node23 -->
<g id="edge14" class="edge">
<title>Node1&#45;&gt;Node23</title>
<path fill="none" stroke="midnightblue" d="M487.07,-305.93C408.7,-294.64 285.73,-276.92 211.23,-266.19"/>
<polygon fill="midnightblue" stroke="midnightblue" points="211.45,-262.69 201.05,-264.73 210.45,-269.62 211.45,-262.69"/>
</g>
<!-- Node25 -->
<g id="node14" class="node">
<title>Node25</title>
<g id="a_node14"><a xlink:href="either_8h.html" target="_top" xlink:title=" ">
<polygon fill="white" stroke="black" points="1401.43,-246.5 1401.43,-265.5 1505.43,-265.5 1505.43,-246.5 1401.43,-246.5"/>
<text text-anchor="middle" x="1453.43" y="-253.5" font-family="Helvetica,sans-Serif" font-size="10.00">emlabcpp/either.h</text>
</a>
</g>
</g>
<!-- Node1&#45;&gt;Node25 -->
<g id="edge16" class="edge">
<title>Node1&#45;&gt;Node25</title>
<path fill="none" stroke="midnightblue" d="M633.5,-311.63C805,-300.2 1230.86,-271.83 1391.11,-261.15"/>
<polygon fill="midnightblue" stroke="midnightblue" points="1391.53,-264.63 1401.28,-260.47 1391.07,-257.65 1391.53,-264.63"/>
</g>
<!-- Node36 -->
<g id="node18" class="node">
<title>Node36</title>
<g id="a_node18"><a xlink:href="bounded__view_8h.html" target="_top" xlink:title=" ">
<polygon fill="white" stroke="black" points="581.93,-179.5 581.93,-209.5 714.93,-209.5 714.93,-179.5 581.93,-179.5"/>
<text text-anchor="start" x="589.93" y="-197.5" font-family="Helvetica,sans-Serif" font-size="10.00">emlabcpp/experimental</text>
<text text-anchor="middle" x="648.43" y="-186.5" font-family="Helvetica,sans-Serif" font-size="10.00">/bounded_view.h</text>
</a>
</g>
</g>
<!-- Node1&#45;&gt;Node36 -->
<g id="edge27" class="edge">
<title>Node1&#45;&gt;Node36</title>
<path fill="none" stroke="midnightblue" d="M570.87,-302.14C585.95,-281.4 613.99,-242.85 631.9,-218.22"/>
<polygon fill="midnightblue" stroke="midnightblue" points="634.95,-219.98 638,-209.84 629.29,-215.87 634.95,-219.98"/>
</g>
<!-- Node37 -->
<g id="node19" class="node">
<title>Node37</title>
<g id="a_node19"><a xlink:href="numeric_8h.html" target="_top" xlink:title=" ">
<polygon fill="white" stroke="black" points="310.93,-179.5 310.93,-209.5 419.93,-209.5 419.93,-179.5 310.93,-179.5"/>
<text text-anchor="start" x="318.93" y="-197.5" font-family="Helvetica,sans-Serif" font-size="10.00">emlabcpp/iterators</text>
<text text-anchor="middle" x="365.43" y="-186.5" font-family="Helvetica,sans-Serif" font-size="10.00">/numeric.h</text>
</a>
</g>
</g>
<!-- Node1&#45;&gt;Node37 -->
<g id="edge30" class="edge">
<title>Node1&#45;&gt;Node37</title>
<path fill="none" stroke="midnightblue" d="M492.13,-302.48C466.02,-294.77 437.09,-283.16 414.43,-266 397.99,-253.55 385.02,-233.98 376.55,-218.61"/>
<polygon fill="midnightblue" stroke="midnightblue" points="379.62,-216.92 371.88,-209.69 373.42,-220.17 379.62,-216.92"/>
</g>
<!-- Node30 -->
<g id="node20" class="node">
<title>Node30</title>
<g id="a_node20"><a xlink:href="match_8h.html" target="_top" xlink:title=" ">
<polygon fill="white" stroke="red" points="643.93,-246.5 643.93,-265.5 750.93,-265.5 750.93,-246.5 643.93,-246.5"/>
<text text-anchor="middle" x="697.43" y="-253.5" font-family="Helvetica,sans-Serif" font-size="10.00">emlabcpp/match.h</text>
</a>
</g>
</g>
<!-- Node1&#45;&gt;Node30 -->
<g id="edge32" class="edge">
<title>Node1&#45;&gt;Node30</title>
<path fill="none" stroke="midnightblue" d="M592.89,-302.4C615.78,-292.46 646.16,-279.26 668.27,-269.66"/>
<polygon fill="midnightblue" stroke="midnightblue" points="669.71,-272.85 677.49,-265.66 666.92,-266.43 669.71,-272.85"/>
</g>
<!-- Node38 -->
<g id="node21" class="node">
<title>Node38</title>
<g id="a_node21"><a xlink:href="serializer_8h.html" target="_top" xlink:title=" ">
<polygon fill="white" stroke="black" points="423.43,-246.5 423.43,-265.5 587.43,-265.5 587.43,-246.5 423.43,-246.5"/>
<text text-anchor="middle" x="505.43" y="-253.5" font-family="Helvetica,sans-Serif" font-size="10.00">emlabcpp/protocol/serializer.h</text>
</a>
</g>
</g>
<!-- Node1&#45;&gt;Node38 -->
<g id="edge33" class="edge">
<title>Node1&#45;&gt;Node38</title>
<path fill="none" stroke="midnightblue" d="M547.39,-302.4C539.24,-293.58 528.7,-282.18 520.23,-273.02"/>
<polygon fill="midnightblue" stroke="midnightblue" points="522.79,-270.63 513.43,-265.66 517.65,-275.38 522.79,-270.63"/>
</g>
<!-- Node46 -->
<g id="node27" class="node">
<title>Node46</title>
<g id="a_node27"><a xlink:href="traits_8h.html" target="_top" xlink:title=" ">
<polygon fill="white" stroke="black" points="1023.93,-246.5 1023.93,-265.5 1168.93,-265.5 1168.93,-246.5 1023.93,-246.5"/>
<text text-anchor="middle" x="1096.43" y="-253.5" font-family="Helvetica,sans-Serif" font-size="10.00">emlabcpp/protocol/traits.h</text>
</a>
</g>
</g>
<!-- Node1&#45;&gt;Node46 -->
<g id="edge43" class="edge">
<title>Node1&#45;&gt;Node46</title>
<path fill="none" stroke="midnightblue" d="M633.55,-308.38C732.8,-297.36 909.68,-277.73 1013.68,-266.19"/>
<polygon fill="midnightblue" stroke="midnightblue" points="1014.27,-269.64 1023.82,-265.06 1013.5,-262.68 1014.27,-269.64"/>
</g>
<!-- Node3 -->
<g id="node3" class="node">
<title>Node3</title>
<g id="a_node3"><a xlink:href="impl_8h.html" target="_top" xlink:title=" ">
<polygon fill="white" stroke="black" points="82.93,-112.5 82.93,-142.5 197.93,-142.5 197.93,-112.5 82.93,-112.5"/>
<text text-anchor="start" x="90.93" y="-130.5" font-family="Helvetica,sans-Serif" font-size="10.00">emlabcpp/algorithm</text>
<text text-anchor="middle" x="140.43" y="-119.5" font-family="Helvetica,sans-Serif" font-size="10.00">/impl.h</text>
</a>
</g>
</g>
<!-- Node2&#45;&gt;Node3 -->
<g id="edge2" class="edge">
<title>Node2&#45;&gt;Node3</title>
<path fill="none" stroke="midnightblue" d="M218.29,-184.73C205.54,-175.53 185.06,-160.73 168.3,-148.63"/>
<polygon fill="midnightblue" stroke="midnightblue" points="170.09,-145.61 159.93,-142.59 165.99,-151.28 170.09,-145.61"/>
</g>
<!-- Node4 -->
<g id="node4" class="node">
<title>Node4</title>
<g id="a_node4"><a xlink:href="types_8h.html" target="_top" xlink:title=" ">
<polygon fill="white" stroke="red" points="528.43,-0.5 528.43,-19.5 632.43,-19.5 632.43,-0.5 528.43,-0.5"/>
<text text-anchor="middle" x="580.43" y="-7.5" font-family="Helvetica,sans-Serif" font-size="10.00">emlabcpp/types.h</text>
</a>
</g>
</g>
<!-- Node2&#45;&gt;Node4 -->
<g id="edge8" class="edge">
<title>Node2&#45;&gt;Node4</title>
<path fill="none" stroke="midnightblue" d="M189.73,-185C125.94,-171.57 9.32,-146.61 6.43,-143 -2.18,-132.24 -2.07,-122.85 6.43,-112 68.68,-32.52 382.65,-15.58 518.09,-11.97"/>
<polygon fill="midnightblue" stroke="midnightblue" points="518.39,-15.47 528.3,-11.72 518.22,-8.47 518.39,-15.47"/>
</g>
<!-- Node10 -->
<g id="node5" class="node">
<title>Node10</title>
<g id="a_node5"><a xlink:title=" ">
<polygon fill="white" stroke="#bfbfbf" points="296.93,-56.5 296.93,-75.5 337.93,-75.5 337.93,-56.5 296.93,-56.5"/>
<text text-anchor="middle" x="317.43" y="-63.5" font-family="Helvetica,sans-Serif" font-size="10.00">tuple</text>
</a>
</g>
</g>
<!-- Node2&#45;&gt;Node10 -->
<g id="edge13" class="edge">
<title>Node2&#45;&gt;Node10</title>
<path fill="none" stroke="midnightblue" d="M230.56,-184.82C231.2,-168.95 234.49,-134.81 250.43,-112 259.88,-98.47 274.83,-87.86 288.2,-80.35"/>
<polygon fill="midnightblue" stroke="midnightblue" points="289.91,-83.41 297.13,-75.65 286.65,-77.22 289.91,-83.41"/>
</g>
<!-- Node17 -->
<g id="node6" class="node">
<title>Node17</title>
<g id="a_node6"><a xlink:href="bounded_8h.html" target="_top" xlink:title=" ">
<polygon fill="white" stroke="red" points="715.93,-118 715.93,-137 834.93,-137 834.93,-118 715.93,-118"/>
<text text-anchor="middle" x="775.43" y="-125" font-family="Helvetica,sans-Serif" font-size="10.00">emlabcpp/bounded.h</text>
</a>
</g>
</g>
<!-- Node2&#45;&gt;Node17 -->
<g id="edge5" class="edge">
<title>Node2&#45;&gt;Node17</title>
<path fill="none" stroke="midnightblue" d="M268.24,-184.95C278.93,-182.76 290.6,-180.58 301.43,-179 480.24,-152.88 527.69,-169.63 706.43,-143 713.67,-141.92 721.29,-140.55 728.73,-139.09"/>
<polygon fill="midnightblue" stroke="midnightblue" points="729.59,-142.49 738.69,-137.06 728.19,-135.63 729.59,-142.49"/>
</g>
<!-- Node20 -->
<g id="node9" class="node">
<title>Node20</title>
<g id="a_node9"><a xlink:href="view_8h.html" target="_top" xlink:title=" ">
<polygon fill="white" stroke="black" points="530.93,-56.5 530.93,-75.5 629.93,-75.5 629.93,-56.5 530.93,-56.5"/>
<text text-anchor="middle" x="580.43" y="-63.5" font-family="Helvetica,sans-Serif" font-size="10.00">emlabcpp/view.h</text>
</a>
</g>
</g>
<!-- Node2&#45;&gt;Node20 -->
<g id="edge9" class="edge">
<title>Node2&#45;&gt;Node20</title>
<path fill="none" stroke="midnightblue" d="M233.31,-184.86C239.49,-167.78 255.76,-129.82 283.43,-112 321.58,-87.42 445.16,-75.46 520.35,-70.32"/>
<polygon fill="midnightblue" stroke="midnightblue" points="520.88,-73.8 530.63,-69.64 520.42,-66.81 520.88,-73.8"/>
</g>
<!-- Node21 -->
<g id="node10" class="node">
<title>Node21</title>
<g id="a_node10"><a xlink:title=" ">
<polygon fill="white" stroke="#bfbfbf" points="443.93,-118 443.93,-137 490.93,-137 490.93,-118 443.93,-118"/>
<text text-anchor="middle" x="467.43" y="-125" font-family="Helvetica,sans-Serif" font-size="10.00">cmath</text>
</a>
</g>
</g>
<!-- Node2&#45;&gt;Node21 -->
<g id="edge11" class="edge">
<title>Node2&#45;&gt;Node21</title>
<path fill="none" stroke="midnightblue" d="M268.41,-184.92C318.53,-173.45 403.95,-153.38 434.43,-143 436.29,-142.36 438.2,-141.67 440.11,-140.93"/>
<polygon fill="midnightblue" stroke="midnightblue" points="441.59,-144.1 449.49,-137.05 438.91,-137.64 441.59,-144.1"/>
</g>
<!-- Node22 -->
<g id="node11" class="node">
<title>Node22</title>
<g id="a_node11"><a xlink:title=" ">
<polygon fill="white" stroke="#bfbfbf" points="15.93,-118 15.93,-137 64.93,-137 64.93,-118 15.93,-118"/>
<text text-anchor="middle" x="40.43" y="-125" font-family="Helvetica,sans-Serif" font-size="10.00">cstdlib</text>
</a>
</g>
</g>
<!-- Node2&#45;&gt;Node22 -->
<g id="edge12" class="edge">
<title>Node2&#45;&gt;Node22</title>
<path fill="none" stroke="midnightblue" d="M200.89,-184.99C169.1,-175.6 117.2,-159.61 73.43,-143 71.82,-142.39 70.17,-141.74 68.52,-141.08"/>
<polygon fill="midnightblue" stroke="midnightblue" points="69.71,-137.78 59.14,-137.12 66.99,-144.23 69.71,-137.78"/>
</g>
<!-- Node3&#45;&gt;Node4 -->
<g id="edge3" class="edge">
<title>Node3&#45;&gt;Node4</title>
<path fill="none" stroke="midnightblue" d="M164.24,-112.36C192.59,-96.17 241.86,-70.08 287.43,-56 364.93,-32.04 458.08,-20.53 518.22,-15.21"/>
<polygon fill="midnightblue" stroke="midnightblue" points="518.65,-18.69 528.32,-14.35 518.05,-11.72 518.65,-18.69"/>
</g>
<!-- Node3&#45;&gt;Node10 -->
<g id="edge4" class="edge">
<title>Node3&#45;&gt;Node10</title>
<path fill="none" stroke="midnightblue" d="M182.37,-112.4C214.56,-101.58 258.24,-86.9 287.1,-77.2"/>
<polygon fill="midnightblue" stroke="midnightblue" points="288.28,-80.49 296.65,-73.99 286.05,-73.85 288.28,-80.49"/>
</g>
<!-- Node19 -->
<g id="node7" class="node">
<title>Node19</title>
<g id="a_node7"><a xlink:title=" ">
<polygon fill="white" stroke="#bfbfbf" points="1319.43,-56.5 1319.43,-75.5 1375.43,-75.5 1375.43,-56.5 1319.43,-56.5"/>
<text text-anchor="middle" x="1347.43" y="-63.5" font-family="Helvetica,sans-Serif" font-size="10.00">optional</text>
</a>
</g>
</g>
<!-- Node17&#45;&gt;Node19 -->
<g id="edge6" class="edge">
<title>Node17&#45;&gt;Node19</title>
<path fill="none" stroke="midnightblue" d="M835.02,-120.3C952.63,-108.07 1211.63,-81.13 1309.22,-70.97"/>
<polygon fill="midnightblue" stroke="midnightblue" points="1309.65,-74.45 1319.23,-69.93 1308.92,-67.49 1309.65,-74.45"/>
</g>
<!-- Node11 -->
<g id="node8" class="node">
<title>Node11</title>
<g id="a_node8"><a xlink:title=" ">
<polygon fill="white" stroke="#bfbfbf" points="866.93,-56.5 866.93,-75.5 935.93,-75.5 935.93,-56.5 866.93,-56.5"/>
<text text-anchor="middle" x="901.43" y="-63.5" font-family="Helvetica,sans-Serif" font-size="10.00">type_traits</text>
</a>
</g>
</g>
<!-- Node17&#45;&gt;Node11 -->
<g id="edge7" class="edge">
<title>Node17&#45;&gt;Node11</title>
<path fill="none" stroke="midnightblue" d="M793.48,-117.98C814.62,-107.99 849.87,-91.35 874.3,-79.81"/>
<polygon fill="midnightblue" stroke="midnightblue" points="875.86,-82.94 883.41,-75.51 872.87,-76.61 875.86,-82.94"/>
</g>
<!-- Node20&#45;&gt;Node4 -->
<g id="edge10" class="edge">
<title>Node20&#45;&gt;Node4</title>
<path fill="none" stroke="midnightblue" d="M580.43,-56.08C580.43,-49.01 580.43,-38.86 580.43,-29.99"/>
<polygon fill="midnightblue" stroke="midnightblue" points="583.93,-29.75 580.43,-19.75 576.93,-29.75 583.93,-29.75"/>
</g>
<!-- Node24 -->
<g id="node13" class="node">
<title>Node24</title>
<g id="a_node13"><a xlink:title=" ">
<polygon fill="white" stroke="#bfbfbf" points="98.43,-185 98.43,-204 150.43,-204 150.43,-185 98.43,-185"/>
<text text-anchor="middle" x="124.43" y="-192" font-family="Helvetica,sans-Serif" font-size="10.00">cassert</text>
</a>
</g>
</g>
<!-- Node23&#45;&gt;Node24 -->
<g id="edge15" class="edge">
<title>Node23&#45;&gt;Node24</title>
<path fill="none" stroke="midnightblue" d="M144.13,-246.48C140.82,-237.9 135.61,-224.43 131.38,-213.48"/>
<polygon fill="midnightblue" stroke="midnightblue" points="134.59,-212.07 127.72,-204.01 128.06,-214.6 134.59,-212.07"/>
</g>
<!-- Node25&#45;&gt;Node4 -->
<g id="edge22" class="edge">
<title>Node25&#45;&gt;Node4</title>
<path fill="none" stroke="midnightblue" d="M1457.27,-246.25C1466.77,-223.32 1489.25,-159.94 1470.43,-112 1458.01,-80.39 1449.18,-70.41 1418.43,-56 1348.86,-23.42 825.14,-13.98 642.8,-11.66"/>
<polygon fill="midnightblue" stroke="midnightblue" points="642.61,-8.16 632.57,-11.54 642.52,-15.16 642.61,-8.16"/>
</g>
<!-- Node25&#45;&gt;Node10 -->
<g id="edge24" class="edge">
<title>Node25&#45;&gt;Node10</title>
<path fill="none" stroke="midnightblue" d="M1401.41,-252.56C1271.98,-246.25 942.55,-228.56 896.43,-210 876.21,-201.87 878.45,-187.6 858.43,-179 742.33,-129.14 698.7,-174.85 576.43,-143 540.73,-133.7 534.53,-123.34 499.43,-112 447.14,-95.1 384.66,-80.92 348.17,-73.22"/>
<polygon fill="midnightblue" stroke="midnightblue" points="348.66,-69.75 338.16,-71.13 347.24,-76.6 348.66,-69.75"/>
</g>
<!-- Node25&#45;&gt;Node19 -->
<g id="edge23" class="edge">
<title>Node25&#45;&gt;Node19</title>
<path fill="none" stroke="midnightblue" d="M1469.21,-246.47C1481.63,-238.77 1498.03,-226.18 1505.43,-210 1523.53,-170.39 1531.67,-146.76 1505.43,-112 1490.98,-92.86 1427.35,-79.45 1385.38,-72.5"/>
<polygon fill="midnightblue" stroke="midnightblue" points="1385.91,-69.04 1375.48,-70.91 1384.8,-75.95 1385.91,-69.04"/>
</g>
<!-- Node25&#45;&gt;Node11 -->
<g id="edge25" class="edge">
<title>Node25&#45;&gt;Node11</title>
<path fill="none" stroke="midnightblue" d="M1455.49,-246.32C1460.89,-221.27 1472.49,-148.29 1434.43,-112 1399.4,-78.61 1068.1,-69.76 946.18,-67.63"/>
<polygon fill="midnightblue" stroke="midnightblue" points="946.12,-64.12 936.06,-67.46 946,-71.12 946.12,-64.12"/>
</g>
<!-- Node26 -->
<g id="node15" class="node">
<title>Node26</title>
<g id="a_node15"><a xlink:href="static__vector_8h.html" target="_top" xlink:title=" ">
<polygon fill="white" stroke="red" points="1247.93,-185 1247.93,-204 1386.93,-204 1386.93,-185 1247.93,-185"/>
<text text-anchor="middle" x="1317.43" y="-192" font-family="Helvetica,sans-Serif" font-size="10.00">emlabcpp/static_vector.h</text>
</a>
</g>
</g>
<!-- Node25&#45;&gt;Node26 -->
<g id="edge17" class="edge">
<title>Node25&#45;&gt;Node26</title>
<path fill="none" stroke="midnightblue" d="M1433.94,-246.48C1411.02,-236.45 1372.74,-219.7 1346.35,-208.15"/>
<polygon fill="midnightblue" stroke="midnightblue" points="1347.44,-204.81 1336.88,-204.01 1344.63,-211.22 1347.44,-204.81"/>
</g>
<!-- Node35 -->
<g id="node17" class="node">
<title>Node35</title>
<g id="a_node17"><a xlink:title=" ">
<polygon fill="white" stroke="#bfbfbf" points="1379.93,-118 1379.93,-137 1424.93,-137 1424.93,-118 1379.93,-118"/>
<text text-anchor="middle" x="1402.43" y="-125" font-family="Helvetica,sans-Serif" font-size="10.00">utility</text>
</a>
</g>
</g>
<!-- Node25&#45;&gt;Node35 -->
<g id="edge26" class="edge">
<title>Node25&#45;&gt;Node35</title>
<path fill="none" stroke="midnightblue" d="M1449.92,-246.31C1441.66,-225.81 1420.83,-174.15 1409.7,-146.54"/>
<polygon fill="midnightblue" stroke="midnightblue" points="1412.94,-145.22 1405.96,-137.26 1406.45,-147.84 1412.94,-145.22"/>
</g>
<!-- Node26&#45;&gt;Node11 -->
<g id="edge20" class="edge">
<title>Node26&#45;&gt;Node11</title>
<path fill="none" stroke="midnightblue" d="M1323.24,-184.61C1333.23,-168.1 1350.92,-132.52 1332.43,-112 1306.9,-83.66 1051.37,-71.98 946.24,-68.35"/>
<polygon fill="midnightblue" stroke="midnightblue" points="946.07,-64.84 935.96,-68.01 945.84,-71.84 946.07,-64.84"/>
</g>
<!-- Node33 -->
<g id="node16" class="node">
<title>Node33</title>
<g id="a_node16"><a xlink:href="iterator_8h.html" target="_top" xlink:title=" ">
<polygon fill="white" stroke="red" points="585.43,-118 585.43,-137 697.43,-137 697.43,-118 585.43,-118"/>
<text text-anchor="middle" x="641.43" y="-125" font-family="Helvetica,sans-Serif" font-size="10.00">emlabcpp/iterator.h</text>
</a>
</g>
</g>
<!-- Node26&#45;&gt;Node33 -->
<g id="edge18" class="edge">
<title>Node26&#45;&gt;Node33</title>
<path fill="none" stroke="midnightblue" d="M1247.89,-188.96C1110.6,-179.79 809.15,-158.63 706.43,-143 699.67,-141.97 692.56,-140.65 685.64,-139.21"/>
<polygon fill="midnightblue" stroke="midnightblue" points="686.18,-135.75 675.67,-137.06 684.7,-142.59 686.18,-135.75"/>
</g>
<!-- Node26&#45;&gt;Node35 -->
<g id="edge21" class="edge">
<title>Node26&#45;&gt;Node35</title>
<path fill="none" stroke="midnightblue" d="M1328.89,-184.73C1342.78,-174.11 1366.4,-156.05 1383.12,-143.26"/>
<polygon fill="midnightblue" stroke="midnightblue" points="1385.33,-145.98 1391.14,-137.13 1381.07,-140.42 1385.33,-145.98"/>
</g>
<!-- Node33&#45;&gt;Node20 -->
<g id="edge19" class="edge">
<title>Node33&#45;&gt;Node20</title>
<path fill="none" stroke="midnightblue" d="M632.69,-117.98C623.26,-108.78 608.06,-93.96 596.48,-82.66"/>
<polygon fill="midnightblue" stroke="midnightblue" points="598.75,-79.99 589.15,-75.51 593.86,-85 598.75,-79.99"/>
</g>
<!-- Node36&#45;&gt;Node17 -->
<g id="edge28" class="edge">
<title>Node36&#45;&gt;Node17</title>
<path fill="none" stroke="midnightblue" d="M675.98,-179.4C697.87,-168.19 728.26,-152.64 749.66,-141.69"/>
<polygon fill="midnightblue" stroke="midnightblue" points="751.5,-144.68 758.8,-137.01 748.31,-138.45 751.5,-144.68"/>
</g>
<!-- Node36&#45;&gt;Node20 -->
<g id="edge29" class="edge">
<title>Node36&#45;&gt;Node20</title>
<path fill="none" stroke="midnightblue" d="M615.84,-179.44C600.96,-171.16 584.81,-159.12 576.43,-143 567.11,-125.09 570.34,-101.5 574.45,-85.38"/>
<polygon fill="midnightblue" stroke="midnightblue" points="577.87,-86.15 577.3,-75.57 571.15,-84.2 577.87,-86.15"/>
</g>
<!-- Node37&#45;&gt;Node33 -->
<g id="edge31" class="edge">
<title>Node37&#45;&gt;Node33</title>
<path fill="none" stroke="midnightblue" d="M419.96,-180.66C471.14,-168.6 546.87,-150.77 595.18,-139.39"/>
<polygon fill="midnightblue" stroke="midnightblue" points="596.12,-142.77 605.05,-137.07 594.51,-135.95 596.12,-142.77"/>
</g>
<!-- Node38&#45;&gt;Node36 -->
<g id="edge34" class="edge">
<title>Node38&#45;&gt;Node36</title>
<path fill="none" stroke="midnightblue" d="M525.91,-246.48C546.55,-237.89 579.01,-224.38 605.34,-213.43"/>
<polygon fill="midnightblue" stroke="midnightblue" points="606.84,-216.6 614.72,-209.52 604.15,-210.13 606.84,-216.6"/>
</g>
<!-- Node38&#45;&gt;Node37 -->
<g id="edge35" class="edge">
<title>Node38&#45;&gt;Node37</title>
<path fill="none" stroke="midnightblue" d="M485.37,-246.48C465.25,-237.93 433.66,-224.5 407.95,-213.57"/>
<polygon fill="midnightblue" stroke="midnightblue" points="408.99,-210.21 398.42,-209.52 406.26,-216.66 408.99,-210.21"/>
</g>
<!-- Node39 -->
<g id="node22" class="node">
<title>Node39</title>
<g id="a_node22"><a xlink:href="protocol_2base_8h.html" target="_top" xlink:title=" ">
<polygon fill="white" stroke="red" points="905.93,-185 905.93,-204 1048.93,-204 1048.93,-185 905.93,-185"/>
<text text-anchor="middle" x="977.43" y="-192" font-family="Helvetica,sans-Serif" font-size="10.00">emlabcpp/protocol/base.h</text>
</a>
</g>
</g>
<!-- Node38&#45;&gt;Node39 -->
<g id="edge36" class="edge">
<title>Node38&#45;&gt;Node39</title>
<path fill="none" stroke="midnightblue" d="M573.05,-246.48C659.54,-235.57 808.97,-216.74 899.95,-205.27"/>
<polygon fill="midnightblue" stroke="midnightblue" points="900.44,-208.73 909.93,-204.01 899.57,-201.79 900.44,-208.73"/>
</g>
<!-- Node44 -->
<g id="node25" class="node">
<title>Node44</title>
<g id="a_node25"><a xlink:title=" ">
<polygon fill="white" stroke="#bfbfbf" points="437.93,-185 437.93,-204 466.93,-204 466.93,-185 437.93,-185"/>
<text text-anchor="middle" x="452.43" y="-192" font-family="Helvetica,sans-Serif" font-size="10.00">bit</text>
</a>
</g>
</g>
<!-- Node38&#45;&gt;Node44 -->
<g id="edge41" class="edge">
<title>Node38&#45;&gt;Node44</title>
<path fill="none" stroke="midnightblue" d="M497.83,-246.48C489.73,-237.37 476.69,-222.74 466.66,-211.48"/>
<polygon fill="midnightblue" stroke="midnightblue" points="469.27,-209.15 460.01,-204.01 464.04,-213.8 469.27,-209.15"/>
</g>
<!-- Node45 -->
<g id="node26" class="node">
<title>Node45</title>
<g id="a_node26"><a xlink:title=" ">
<polygon fill="white" stroke="#bfbfbf" points="485.43,-185 485.43,-204 525.43,-204 525.43,-185 485.43,-185"/>
<text text-anchor="middle" x="505.43" y="-192" font-family="Helvetica,sans-Serif" font-size="10.00">span</text>
</a>
</g>
</g>
<!-- Node38&#45;&gt;Node45 -->
<g id="edge42" class="edge">
<title>Node38&#45;&gt;Node45</title>
<path fill="none" stroke="midnightblue" d="M505.43,-246.48C505.43,-238.08 505.43,-224.98 505.43,-214.16"/>
<polygon fill="midnightblue" stroke="midnightblue" points="508.93,-214.01 505.43,-204.01 501.93,-214.01 508.93,-214.01"/>
</g>
<!-- Node39&#45;&gt;Node17 -->
<g id="edge37" class="edge">
<title>Node39&#45;&gt;Node17</title>
<path fill="none" stroke="midnightblue" d="M950.6,-184.87C914.89,-173.38 851.59,-153.01 811.66,-140.16"/>
<polygon fill="midnightblue" stroke="midnightblue" points="812.63,-136.8 802.04,-137.06 810.49,-143.46 812.63,-136.8"/>
</g>
<!-- Node39&#45;&gt;Node11 -->
<g id="edge39" class="edge">
<title>Node39&#45;&gt;Node11</title>
<path fill="none" stroke="midnightblue" d="M963.77,-184.98C950.68,-176.1 931.33,-160.97 920.43,-143 909.75,-125.41 905.06,-102.07 903.01,-85.92"/>
<polygon fill="midnightblue" stroke="midnightblue" points="906.45,-85.19 901.93,-75.61 899.49,-85.92 906.45,-85.19"/>
</g>
<!-- Node40 -->
<g id="node23" class="node">
<title>Node40</title>
<g id="a_node23"><a xlink:href="protocol_2error_8h.html" target="_top" xlink:title=" ">
<polygon fill="white" stroke="red" points="929.43,-118 929.43,-137 1071.43,-137 1071.43,-118 929.43,-118"/>
<text text-anchor="middle" x="1000.43" y="-125" font-family="Helvetica,sans-Serif" font-size="10.00">emlabcpp/protocol/error.h</text>
</a>
</g>
</g>
<!-- Node39&#45;&gt;Node40 -->
<g id="edge38" class="edge">
<title>Node39&#45;&gt;Node40</title>
<path fill="none" stroke="midnightblue" d="M980.53,-184.73C983.94,-175.09 989.53,-159.3 993.91,-146.91"/>
<polygon fill="midnightblue" stroke="midnightblue" points="997.34,-147.72 997.37,-137.13 990.74,-145.39 997.34,-147.72"/>
</g>
<!-- Node15 -->
<g id="node24" class="node">
<title>Node15</title>
<g id="a_node24"><a xlink:title=" ">
<polygon fill="white" stroke="#bfbfbf" points="1089.93,-118 1089.93,-137 1140.93,-137 1140.93,-118 1089.93,-118"/>
<text text-anchor="middle" x="1115.43" y="-125" font-family="Helvetica,sans-Serif" font-size="10.00">variant</text>
</a>
</g>
</g>
<!-- Node39&#45;&gt;Node15 -->
<g id="edge40" class="edge">
<title>Node39&#45;&gt;Node15</title>
<path fill="none" stroke="midnightblue" d="M995.75,-184.87C1019.36,-173.75 1060.62,-154.32 1087.98,-141.43"/>
<polygon fill="midnightblue" stroke="midnightblue" points="1089.47,-144.59 1097.03,-137.17 1086.49,-138.26 1089.47,-144.59"/>
</g>
<!-- Node46&#45;&gt;Node4 -->
<g id="edge55" class="edge">
<title>Node46&#45;&gt;Node4</title>
<path fill="none" stroke="midnightblue" d="M1169.23,-253.64C1254.41,-250.61 1388.75,-240.92 1427.43,-210 1462.54,-181.93 1471.61,-152.65 1452.43,-112 1435.72,-76.59 1420.89,-70.25 1384.43,-56 1316.12,-29.32 819.69,-16.14 642.81,-12.26"/>
<polygon fill="midnightblue" stroke="midnightblue" points="642.7,-8.76 632.62,-12.04 642.54,-15.75 642.7,-8.76"/>
</g>
<!-- Node46&#45;&gt;Node19 -->
<g id="edge56" class="edge">
<title>Node46&#45;&gt;Node19</title>
<path fill="none" stroke="midnightblue" d="M1169.27,-251.33C1245.99,-246.22 1360.56,-234.64 1396.43,-210 1434.93,-183.55 1458.71,-151.91 1434.43,-112 1423.63,-94.27 1403.36,-83.22 1385.09,-76.5"/>
<polygon fill="midnightblue" stroke="midnightblue" points="1386.1,-73.15 1375.5,-73.29 1383.87,-79.79 1386.1,-73.15"/>
</g>
<!-- Node46&#45;&gt;Node26 -->
<g id="edge54" class="edge">
<title>Node46&#45;&gt;Node26</title>
<path fill="none" stroke="midnightblue" d="M1128.09,-246.48C1166.98,-236 1233.07,-218.21 1275.97,-206.66"/>
<polygon fill="midnightblue" stroke="midnightblue" points="1277.07,-209.99 1285.82,-204.01 1275.26,-203.23 1277.07,-209.99"/>
</g>
<!-- Node46&#45;&gt;Node39 -->
<g id="edge46" class="edge">
<title>Node46&#45;&gt;Node39</title>
<path fill="none" stroke="midnightblue" d="M1079.38,-246.48C1059.58,-236.58 1026.71,-220.14 1003.66,-208.62"/>
<polygon fill="midnightblue" stroke="midnightblue" points="1004.95,-205.35 994.44,-204.01 1001.82,-211.61 1004.95,-205.35"/>
</g>
<!-- Node46&#45;&gt;Node40 -->
<g id="edge47" class="edge">
<title>Node46&#45;&gt;Node40</title>
<path fill="none" stroke="midnightblue" d="M1093.25,-246.42C1087.54,-231.69 1074.52,-201.03 1057.43,-179 1046.86,-165.38 1032.27,-152.54 1020.5,-143.21"/>
<polygon fill="midnightblue" stroke="midnightblue" points="1022.59,-140.4 1012.53,-137.08 1018.32,-145.95 1022.59,-140.4"/>
</g>
<!-- Node46&#45;&gt;Node15 -->
<g id="edge57" class="edge">
<title>Node46&#45;&gt;Node15</title>
<path fill="none" stroke="midnightblue" d="M1097.73,-246.31C1100.78,-225.99 1108.43,-175.05 1112.61,-147.28"/>
<polygon fill="midnightblue" stroke="midnightblue" points="1116.09,-147.66 1114.11,-137.26 1109.16,-146.62 1116.09,-147.66"/>
</g>
<!-- Node29 -->
<g id="node28" class="node">
<title>Node29</title>
<g id="a_node28"><a xlink:href="decompose_8h.html" target="_top" xlink:title=" ">
<polygon fill="white" stroke="red" points="292.93,-112.5 292.93,-142.5 425.93,-142.5 425.93,-112.5 292.93,-112.5"/>
<text text-anchor="start" x="300.93" y="-130.5" font-family="Helvetica,sans-Serif" font-size="10.00">emlabcpp/experimental</text>
<text text-anchor="middle" x="359.43" y="-119.5" font-family="Helvetica,sans-Serif" font-size="10.00">/decompose.h</text>
</a>
</g>
</g>
<!-- Node46&#45;&gt;Node29 -->
<g id="edge44" class="edge">
<title>Node46&#45;&gt;Node29</title>
<path fill="none" stroke="midnightblue" d="M1023.48,-254.01C899.24,-251.46 652.29,-242.36 572.43,-210 552.23,-201.81 553.73,-189.12 534.43,-179 503.97,-163.04 467.82,-151.53 436.3,-143.57"/>
<polygon fill="midnightblue" stroke="midnightblue" points="436.79,-140.08 426.24,-141.1 435.12,-146.88 436.79,-140.08"/>
</g>
<!-- Node47 -->
<g id="node29" class="node">
<title>Node47</title>
<g id="a_node29"><a xlink:href="message_8h.html" target="_top" xlink:title=" ">
<polygon fill="white" stroke="red" points="1159.43,-118 1159.43,-137 1323.43,-137 1323.43,-118 1159.43,-118"/>
<text text-anchor="middle" x="1241.43" y="-125" font-family="Helvetica,sans-Serif" font-size="10.00">emlabcpp/protocol/message.h</text>
</a>
</g>
</g>
<!-- Node46&#45;&gt;Node47 -->
<g id="edge48" class="edge">
<title>Node46&#45;&gt;Node47</title>
<path fill="none" stroke="midnightblue" d="M1106.39,-246.31C1130.61,-225.18 1192.79,-170.93 1223.59,-144.06"/>
<polygon fill="midnightblue" stroke="midnightblue" points="1226.16,-146.47 1231.39,-137.26 1221.55,-141.19 1226.16,-146.47"/>
</g>
<!-- Node48 -->
<g id="node30" class="node">
<title>Node48</title>
<g id="a_node30"><a xlink:href="quantity_8h.html" target="_top" xlink:title=" ">
<polygon fill="white" stroke="red" points="733.43,-185 733.43,-204 849.43,-204 849.43,-185 733.43,-185"/>
<text text-anchor="middle" x="791.43" y="-192" font-family="Helvetica,sans-Serif" font-size="10.00">emlabcpp/quantity.h</text>
</a>
</g>
</g>
<!-- Node46&#45;&gt;Node48 -->
<g id="edge51" class="edge">
<title>Node46&#45;&gt;Node48</title>
<path fill="none" stroke="midnightblue" d="M1051.74,-246.48C1004.82,-237.51 928.91,-222.92 863.43,-210 857.1,-208.75 850.47,-207.43 843.9,-206.12"/>
<polygon fill="midnightblue" stroke="midnightblue" points="844.17,-202.6 833.67,-204.07 842.79,-209.47 844.17,-202.6"/>
</g>
<!-- Node29&#45;&gt;Node10 -->
<g id="edge45" class="edge">
<title>Node29&#45;&gt;Node10</title>
<path fill="none" stroke="midnightblue" d="M349.47,-112.4C343.43,-103.84 335.69,-92.87 329.33,-83.86"/>
<polygon fill="midnightblue" stroke="midnightblue" points="332.16,-81.81 323.54,-75.66 326.45,-85.85 332.16,-81.81"/>
</g>
<!-- Node47&#45;&gt;Node19 -->
<g id="edge50" class="edge">
<title>Node47&#45;&gt;Node19</title>
<path fill="none" stroke="midnightblue" d="M1256.61,-117.98C1274.09,-108.17 1303,-91.93 1323.51,-80.42"/>
<polygon fill="midnightblue" stroke="midnightblue" points="1325.26,-83.46 1332.27,-75.51 1321.83,-77.35 1325.26,-83.46"/>
</g>
<!-- Node47&#45;&gt;Node20 -->
<g id="edge49" class="edge">
<title>Node47&#45;&gt;Node20</title>
<path fill="none" stroke="midnightblue" d="M1191.87,-117.97C1178.15,-115.8 1163.24,-113.63 1149.43,-112 964.38,-90.13 744.18,-76.11 640.31,-70.21"/>
<polygon fill="midnightblue" stroke="midnightblue" points="640.21,-66.7 630.02,-69.63 639.81,-73.68 640.21,-66.7"/>
</g>
<!-- Node48&#45;&gt;Node11 -->
<g id="edge53" class="edge">
<title>Node48&#45;&gt;Node11</title>
<path fill="none" stroke="midnightblue" d="M801.05,-184.96C811.81,-175.22 829.56,-158.62 843.43,-143 860.56,-123.7 878.28,-99.81 889.55,-84.02"/>
<polygon fill="midnightblue" stroke="midnightblue" points="892.47,-85.95 895.39,-75.76 886.76,-81.91 892.47,-85.95"/>
</g>
<!-- Node48&#45;&gt;Node21 -->
<g id="edge52" class="edge">
<title>Node48&#45;&gt;Node21</title>
<path fill="none" stroke="midnightblue" d="M751.89,-184.96C742.56,-182.98 732.65,-180.89 723.43,-179 643.84,-162.67 550.13,-144.43 501.14,-134.98"/>
<polygon fill="midnightblue" stroke="midnightblue" points="501.58,-131.5 491.1,-133.04 500.25,-138.37 501.58,-131.5"/>
</g>
</g>
</svg>
