<?xml version="1.0" encoding="UTF-8" standalone="no"?>
<!DOCTYPE svg PUBLIC "-//W3C//DTD SVG 1.1//EN"
 "http://www.w3.org/Graphics/SVG/1.1/DTD/svg11.dtd">
<!-- Generated by graphviz version 2.43.0 (0)
 -->
<!-- Title: include/emlabcpp/protocol/converter.h Pages: 1 -->
<svg width="1768pt" height="285pt"
 viewBox="0.00 0.00 1768.00 285.00" xmlns="http://www.w3.org/2000/svg" xmlns:xlink="http://www.w3.org/1999/xlink">
<g id="graph0" class="graph" transform="scale(1 1) rotate(0) translate(4 281)">
<title>include/emlabcpp/protocol/converter.h</title>
<polygon fill="white" stroke="transparent" points="-4,4 -4,-281 1764,-281 1764,4 -4,4"/>
<!-- Node1 -->
<g id="node1" class="node">
<title>Node1</title>
<g id="a_node1"><a xlink:title=" ">
<polygon fill="#bfbfbf" stroke="black" points="1166.5,-246.5 1166.5,-276.5 1312.5,-276.5 1312.5,-246.5 1166.5,-246.5"/>
<text text-anchor="start" x="1174.5" y="-264.5" font-family="Helvetica,sans-Serif" font-size="10.00">include/emlabcpp/protocol</text>
<text text-anchor="middle" x="1239.5" y="-253.5" font-family="Helvetica,sans-Serif" font-size="10.00">/converter.h</text>
</a>
</g>
</g>
<!-- Node2 -->
<g id="node2" class="node">
<title>Node2</title>
<g id="a_node2"><a xlink:href="algorithm_8h.html" target="_top" xlink:title=" ">
<polygon fill="white" stroke="black" points="216.5,-129 216.5,-148 340.5,-148 340.5,-129 216.5,-129"/>
<text text-anchor="middle" x="278.5" y="-136" font-family="Helvetica,sans-Serif" font-size="10.00">emlabcpp/algorithm.h</text>
</a>
</g>
</g>
<!-- Node1&#45;&gt;Node2 -->
<g id="edge1" class="edge">
<title>Node1&#45;&gt;Node2</title>
<path fill="none" stroke="midnightblue" d="M1166.5,-258.44C1000.63,-253.31 599.57,-238.31 467.5,-210 407.72,-197.18 341.57,-169.06 305.55,-152.47"/>
<polygon fill="midnightblue" stroke="midnightblue" points="306.76,-149.17 296.22,-148.12 303.8,-155.51 306.76,-149.17"/>
</g>
<!-- Node41 -->
<g id="node12" class="node">
<title>Node41</title>
<g id="a_node12"><a xlink:href="assert_8h.html" target="_top" xlink:title=" ">
<polygon fill="white" stroke="black" points="1528,-190.5 1528,-209.5 1635,-209.5 1635,-190.5 1528,-190.5"/>
<text text-anchor="middle" x="1581.5" y="-197.5" font-family="Helvetica,sans-Serif" font-size="10.00">emlabcpp/assert.h</text>
</a>
</g>
</g>
<!-- Node1&#45;&gt;Node41 -->
<g id="edge14" class="edge">
<title>Node1&#45;&gt;Node41</title>
<path fill="none" stroke="midnightblue" d="M1312.87,-247.74C1375.45,-236.85 1464.27,-221.4 1522.38,-211.29"/>
<polygon fill="midnightblue" stroke="midnightblue" points="1523.24,-214.69 1532.5,-209.53 1522.04,-207.79 1523.24,-214.69"/>
</g>
<!-- Node43 -->
<g id="node14" class="node">
<title>Node43</title>
<g id="a_node14"><a xlink:href="either_8h.html" target="_top" xlink:title=" ">
<polygon fill="white" stroke="black" points="521.5,-62 521.5,-81 625.5,-81 625.5,-62 521.5,-62"/>
<text text-anchor="middle" x="573.5" y="-69" font-family="Helvetica,sans-Serif" font-size="10.00">emlabcpp/either.h</text>
</a>
</g>
</g>
<!-- Node1&#45;&gt;Node43 -->
<g id="edge16" class="edge">
<title>Node1&#45;&gt;Node43</title>
<path fill="none" stroke="midnightblue" d="M1166.33,-255.42C988.12,-242.3 543.02,-204.72 500.5,-154 479.91,-129.44 518.18,-101.85 546.66,-85.89"/>
<polygon fill="midnightblue" stroke="midnightblue" points="548.33,-88.96 555.48,-81.14 545.01,-82.8 548.33,-88.96"/>
</g>
<!-- Node25 -->
<g id="node17" class="node">
<title>Node25</title>
<g id="a_node17"><a xlink:href="numeric_8h.html" target="_top" xlink:title=" ">
<polygon fill="white" stroke="red" points="1405,-56.5 1405,-86.5 1514,-86.5 1514,-56.5 1405,-56.5"/>
<text text-anchor="start" x="1413" y="-74.5" font-family="Helvetica,sans-Serif" font-size="10.00">emlabcpp/iterators</text>
<text text-anchor="middle" x="1459.5" y="-63.5" font-family="Helvetica,sans-Serif" font-size="10.00">/numeric.h</text>
</a>
</g>
</g>
<!-- Node1&#45;&gt;Node25 -->
<g id="edge23" class="edge">
<title>Node1&#45;&gt;Node25</title>
<path fill="none" stroke="midnightblue" d="M1312.54,-249.85C1369.03,-237.37 1443.61,-210.63 1480.5,-154 1492.01,-136.34 1483.87,-112.69 1474.58,-95.42"/>
<polygon fill="midnightblue" stroke="midnightblue" points="1477.48,-93.44 1469.42,-86.56 1471.43,-96.97 1477.48,-93.44"/>
</g>
<!-- Node22 -->
<g id="node18" class="node">
<title>Node22</title>
<g id="a_node18"><a xlink:href="match_8h.html" target="_top" xlink:title=" ">
<polygon fill="white" stroke="red" points="1653,-190.5 1653,-209.5 1760,-209.5 1760,-190.5 1653,-190.5"/>
<text text-anchor="middle" x="1706.5" y="-197.5" font-family="Helvetica,sans-Serif" font-size="10.00">emlabcpp/match.h</text>
</a>
</g>
</g>
<!-- Node1&#45;&gt;Node22 -->
<g id="edge24" class="edge">
<title>Node1&#45;&gt;Node22</title>
<path fill="none" stroke="midnightblue" d="M1312.72,-251.82C1391.66,-242.36 1521.31,-226.53 1642.54,-210.25"/>
<polygon fill="midnightblue" stroke="midnightblue" points="1643.3,-213.67 1652.74,-208.87 1642.36,-206.74 1643.3,-213.67"/>
</g>
<!-- Node48 -->
<g id="node19" class="node">
<title>Node48</title>
<g id="a_node19"><a xlink:href="serializer_8h.html" target="_top" xlink:title=" ">
<polygon fill="white" stroke="black" points="1157.5,-190.5 1157.5,-209.5 1321.5,-209.5 1321.5,-190.5 1157.5,-190.5"/>
<text text-anchor="middle" x="1239.5" y="-197.5" font-family="Helvetica,sans-Serif" font-size="10.00">emlabcpp/protocol/serializer.h</text>
</a>
</g>
</g>
<!-- Node1&#45;&gt;Node48 -->
<g id="edge25" class="edge">
<title>Node1&#45;&gt;Node48</title>
<path fill="none" stroke="midnightblue" d="M1239.5,-246.4C1239.5,-238.47 1239.5,-228.46 1239.5,-219.86"/>
<polygon fill="midnightblue" stroke="midnightblue" points="1243,-219.66 1239.5,-209.66 1236,-219.66 1243,-219.66"/>
</g>
<!-- Node55 -->
<g id="node27" class="node">
<title>Node55</title>
<g id="a_node27"><a xlink:href="traits_8h.html" target="_top" xlink:title=" ">
<polygon fill="white" stroke="black" points="826,-190.5 826,-209.5 971,-209.5 971,-190.5 826,-190.5"/>
<text text-anchor="middle" x="898.5" y="-197.5" font-family="Helvetica,sans-Serif" font-size="10.00">emlabcpp/protocol/traits.h</text>
</a>
</g>
</g>
<!-- Node1&#45;&gt;Node55 -->
<g id="edge39" class="edge">
<title>Node1&#45;&gt;Node55</title>
<path fill="none" stroke="midnightblue" d="M1166.35,-247.74C1103.95,-236.85 1015.39,-221.4 957.45,-211.29"/>
<polygon fill="midnightblue" stroke="midnightblue" points="957.81,-207.8 947.36,-209.53 956.61,-214.69 957.81,-207.8"/>
</g>
<!-- Node3 -->
<g id="node3" class="node">
<title>Node3</title>
<g id="a_node3"><a xlink:href="impl_8h.html" target="_top" xlink:title=" ">
<polygon fill="white" stroke="black" points="128,-56.5 128,-86.5 243,-86.5 243,-56.5 128,-56.5"/>
<text text-anchor="start" x="136" y="-74.5" font-family="Helvetica,sans-Serif" font-size="10.00">emlabcpp/algorithm</text>
<text text-anchor="middle" x="185.5" y="-63.5" font-family="Helvetica,sans-Serif" font-size="10.00">/impl.h</text>
</a>
</g>
</g>
<!-- Node2&#45;&gt;Node3 -->
<g id="edge2" class="edge">
<title>Node2&#45;&gt;Node3</title>
<path fill="none" stroke="midnightblue" d="M265.96,-128.73C252.78,-119.53 231.62,-104.73 214.3,-92.63"/>
<polygon fill="midnightblue" stroke="midnightblue" points="215.86,-89.45 205.66,-86.59 211.85,-95.19 215.86,-89.45"/>
</g>
<!-- Node4 -->
<g id="node4" class="node">
<title>Node4</title>
<g id="a_node4"><a xlink:href="types_8h.html" target="_top" xlink:title=" ">
<polygon fill="white" stroke="red" points="323.5,-0.5 323.5,-19.5 427.5,-19.5 427.5,-0.5 323.5,-0.5"/>
<text text-anchor="middle" x="375.5" y="-7.5" font-family="Helvetica,sans-Serif" font-size="10.00">emlabcpp/types.h</text>
</a>
</g>
</g>
<!-- Node2&#45;&gt;Node4 -->
<g id="edge8" class="edge">
<title>Node2&#45;&gt;Node4</title>
<path fill="none" stroke="midnightblue" d="M277.4,-128.97C275.83,-113.06 274.66,-78.43 290.5,-56 301.21,-40.84 318.65,-30.36 334.95,-23.35"/>
<polygon fill="midnightblue" stroke="midnightblue" points="336.36,-26.56 344.36,-19.62 333.78,-20.05 336.36,-26.56"/>
</g>
<!-- Node10 -->
<g id="node5" class="node">
<title>Node10</title>
<g id="a_node5"><a xlink:title=" ">
<polygon fill="white" stroke="#bfbfbf" points="89,-0.5 89,-19.5 130,-19.5 130,-0.5 89,-0.5"/>
<text text-anchor="middle" x="109.5" y="-7.5" font-family="Helvetica,sans-Serif" font-size="10.00">tuple</text>
</a>
</g>
</g>
<!-- Node2&#45;&gt;Node10 -->
<g id="edge13" class="edge">
<title>Node2&#45;&gt;Node10</title>
<path fill="none" stroke="midnightblue" d="M216.32,-132.27C156.37,-125.79 71.83,-112.35 51.5,-87 42.88,-76.25 45.44,-68.37 51.5,-56 58.02,-42.68 70.6,-32.18 82.37,-24.68"/>
<polygon fill="midnightblue" stroke="midnightblue" points="84.27,-27.62 91.11,-19.53 80.72,-21.59 84.27,-27.62"/>
</g>
<!-- Node17 -->
<g id="node6" class="node">
<title>Node17</title>
<g id="a_node6"><a xlink:href="bounded_8h.html" target="_top" xlink:title=" ">
<polygon fill="white" stroke="red" points="720,-62 720,-81 839,-81 839,-62 720,-62"/>
<text text-anchor="middle" x="779.5" y="-69" font-family="Helvetica,sans-Serif" font-size="10.00">emlabcpp/bounded.h</text>
</a>
</g>
</g>
<!-- Node2&#45;&gt;Node17 -->
<g id="edge5" class="edge">
<title>Node2&#45;&gt;Node17</title>
<path fill="none" stroke="midnightblue" d="M340.69,-129.43C434.46,-117.27 611.5,-94.3 709.61,-81.57"/>
<polygon fill="midnightblue" stroke="midnightblue" points="710.26,-85.01 719.72,-80.26 709.36,-78.07 710.26,-85.01"/>
</g>
<!-- Node27 -->
<g id="node9" class="node">
<title>Node27</title>
<g id="a_node9"><a xlink:href="view_8h.html" target="_top" xlink:title=" ">
<polygon fill="white" stroke="black" points="404,-62 404,-81 503,-81 503,-62 404,-62"/>
<text text-anchor="middle" x="453.5" y="-69" font-family="Helvetica,sans-Serif" font-size="10.00">emlabcpp/view.h</text>
</a>
</g>
</g>
<!-- Node2&#45;&gt;Node27 -->
<g id="edge9" class="edge">
<title>Node2&#45;&gt;Node27</title>
<path fill="none" stroke="midnightblue" d="M301.74,-128.87C332.29,-117.52 386.13,-97.52 420.78,-84.65"/>
<polygon fill="midnightblue" stroke="midnightblue" points="422.29,-87.83 430.44,-81.06 419.85,-81.26 422.29,-87.83"/>
</g>
<!-- Node39 -->
<g id="node10" class="node">
<title>Node39</title>
<g id="a_node10"><a xlink:title=" ">
<polygon fill="white" stroke="#bfbfbf" points="300,-62 300,-81 347,-81 347,-62 300,-62"/>
<text text-anchor="middle" x="323.5" y="-69" font-family="Helvetica,sans-Serif" font-size="10.00">cmath</text>
</a>
</g>
</g>
<!-- Node2&#45;&gt;Node39 -->
<g id="edge11" class="edge">
<title>Node2&#45;&gt;Node39</title>
<path fill="none" stroke="midnightblue" d="M284.57,-128.73C291.52,-118.7 303.07,-102.01 311.79,-89.42"/>
<polygon fill="midnightblue" stroke="midnightblue" points="314.71,-91.34 317.53,-81.13 308.96,-87.36 314.71,-91.34"/>
</g>
<!-- Node40 -->
<g id="node11" class="node">
<title>Node40</title>
<g id="a_node11"><a xlink:title=" ">
<polygon fill="white" stroke="#bfbfbf" points="61,-62 61,-81 110,-81 110,-62 61,-62"/>
<text text-anchor="middle" x="85.5" y="-69" font-family="Helvetica,sans-Serif" font-size="10.00">cstdlib</text>
</a>
</g>
</g>
<!-- Node2&#45;&gt;Node40 -->
<g id="edge12" class="edge">
<title>Node2&#45;&gt;Node40</title>
<path fill="none" stroke="midnightblue" d="M248.09,-128.97C215.65,-119.62 162.94,-103.72 118.5,-87 116.89,-86.39 115.24,-85.75 113.59,-85.09"/>
<polygon fill="midnightblue" stroke="midnightblue" points="114.78,-81.79 104.2,-81.14 112.06,-88.24 114.78,-81.79"/>
</g>
<!-- Node3&#45;&gt;Node4 -->
<g id="edge3" class="edge">
<title>Node3&#45;&gt;Node4</title>
<path fill="none" stroke="midnightblue" d="M230.53,-56.4C263.36,-46.12 307.32,-32.35 338.2,-22.68"/>
<polygon fill="midnightblue" stroke="midnightblue" points="339.63,-25.9 348.13,-19.57 337.54,-19.22 339.63,-25.9"/>
</g>
<!-- Node3&#45;&gt;Node10 -->
<g id="edge4" class="edge">
<title>Node3&#45;&gt;Node10</title>
<path fill="none" stroke="midnightblue" d="M167.49,-56.4C155.76,-47.22 140.48,-35.26 128.56,-25.92"/>
<polygon fill="midnightblue" stroke="midnightblue" points="130.59,-23.07 120.56,-19.66 126.28,-28.58 130.59,-23.07"/>
</g>
<!-- Node33 -->
<g id="node7" class="node">
<title>Node33</title>
<g id="a_node7"><a xlink:title=" ">
<polygon fill="white" stroke="#bfbfbf" points="834.5,-0.5 834.5,-19.5 890.5,-19.5 890.5,-0.5 834.5,-0.5"/>
<text text-anchor="middle" x="862.5" y="-7.5" font-family="Helvetica,sans-Serif" font-size="10.00">optional</text>
</a>
</g>
</g>
<!-- Node17&#45;&gt;Node33 -->
<g id="edge6" class="edge">
<title>Node17&#45;&gt;Node33</title>
<path fill="none" stroke="midnightblue" d="M791.39,-61.98C804.7,-52.43 826.5,-36.81 842.46,-25.37"/>
<polygon fill="midnightblue" stroke="midnightblue" points="844.54,-28.18 850.63,-19.51 840.46,-22.49 844.54,-28.18"/>
</g>
<!-- Node11 -->
<g id="node8" class="node">
<title>Node11</title>
<g id="a_node8"><a xlink:title=" ">
<polygon fill="white" stroke="#bfbfbf" points="743,-0.5 743,-19.5 812,-19.5 812,-0.5 743,-0.5"/>
<text text-anchor="middle" x="777.5" y="-7.5" font-family="Helvetica,sans-Serif" font-size="10.00">type_traits</text>
</a>
</g>
</g>
<!-- Node17&#45;&gt;Node11 -->
<g id="edge7" class="edge">
<title>Node17&#45;&gt;Node11</title>
<path fill="none" stroke="midnightblue" d="M779.21,-61.98C778.93,-53.58 778.49,-40.48 778.13,-29.66"/>
<polygon fill="midnightblue" stroke="midnightblue" points="781.62,-29.39 777.79,-19.51 774.62,-29.62 781.62,-29.39"/>
</g>
<!-- Node27&#45;&gt;Node4 -->
<g id="edge10" class="edge">
<title>Node27&#45;&gt;Node4</title>
<path fill="none" stroke="midnightblue" d="M442.32,-61.98C429.93,-52.52 409.71,-37.1 394.75,-25.69"/>
<polygon fill="midnightblue" stroke="midnightblue" points="396.73,-22.79 386.65,-19.51 392.48,-28.36 396.73,-22.79"/>
</g>
<!-- Node42 -->
<g id="node13" class="node">
<title>Node42</title>
<g id="a_node13"><a xlink:title=" ">
<polygon fill="white" stroke="#bfbfbf" points="1555.5,-129 1555.5,-148 1607.5,-148 1607.5,-129 1555.5,-129"/>
<text text-anchor="middle" x="1581.5" y="-136" font-family="Helvetica,sans-Serif" font-size="10.00">cassert</text>
</a>
</g>
</g>
<!-- Node41&#45;&gt;Node42 -->
<g id="edge15" class="edge">
<title>Node41&#45;&gt;Node42</title>
<path fill="none" stroke="midnightblue" d="M1581.5,-190.48C1581.5,-182.08 1581.5,-168.98 1581.5,-158.16"/>
<polygon fill="midnightblue" stroke="midnightblue" points="1585,-158.01 1581.5,-148.01 1578,-158.01 1585,-158.01"/>
</g>
<!-- Node43&#45;&gt;Node4 -->
<g id="edge18" class="edge">
<title>Node43&#45;&gt;Node4</title>
<path fill="none" stroke="midnightblue" d="M545.13,-61.98C510.58,-51.59 452.08,-34.01 413.62,-22.45"/>
<polygon fill="midnightblue" stroke="midnightblue" points="414.4,-19.04 403.82,-19.51 412.39,-25.74 414.4,-19.04"/>
</g>
<!-- Node43&#45;&gt;Node10 -->
<g id="edge20" class="edge">
<title>Node43&#45;&gt;Node10</title>
<path fill="none" stroke="midnightblue" d="M540.18,-61.95C530.94,-59.78 520.87,-57.61 511.5,-56 374.16,-32.34 208.17,-18.32 140.49,-13.21"/>
<polygon fill="midnightblue" stroke="midnightblue" points="140.35,-9.69 130.12,-12.44 139.83,-16.67 140.35,-9.69"/>
</g>
<!-- Node43&#45;&gt;Node33 -->
<g id="edge19" class="edge">
<title>Node43&#45;&gt;Node33</title>
<path fill="none" stroke="midnightblue" d="M615.92,-61.95C665.14,-52.01 748.74,-35.02 820.5,-20 821.77,-19.73 823.07,-19.46 824.37,-19.19"/>
<polygon fill="midnightblue" stroke="midnightblue" points="825.44,-22.54 834.49,-17.04 823.99,-15.69 825.44,-22.54"/>
</g>
<!-- Node43&#45;&gt;Node11 -->
<g id="edge21" class="edge">
<title>Node43&#45;&gt;Node11</title>
<path fill="none" stroke="midnightblue" d="M602.73,-61.98C638.4,-51.57 698.86,-33.94 738.48,-22.38"/>
<polygon fill="midnightblue" stroke="midnightblue" points="739.71,-25.67 748.33,-19.51 737.75,-18.95 739.71,-25.67"/>
</g>
<!-- Node44 -->
<g id="node15" class="node">
<title>Node44</title>
<g id="a_node15"><a xlink:href="static__vector_8h.html" target="_top" xlink:title=" ">
<polygon fill="white" stroke="red" points="584,-0.5 584,-19.5 723,-19.5 723,-0.5 584,-0.5"/>
<text text-anchor="middle" x="653.5" y="-7.5" font-family="Helvetica,sans-Serif" font-size="10.00">emlabcpp/static_vector.h</text>
</a>
</g>
</g>
<!-- Node43&#45;&gt;Node44 -->
<g id="edge17" class="edge">
<title>Node43&#45;&gt;Node44</title>
<path fill="none" stroke="midnightblue" d="M584.96,-61.98C597.67,-52.52 618.41,-37.1 633.75,-25.69"/>
<polygon fill="midnightblue" stroke="midnightblue" points="636.12,-28.29 642.06,-19.51 631.95,-22.67 636.12,-28.29"/>
</g>
<!-- Node47 -->
<g id="node16" class="node">
<title>Node47</title>
<g id="a_node16"><a xlink:title=" ">
<polygon fill="white" stroke="#bfbfbf" points="521,-0.5 521,-19.5 566,-19.5 566,-0.5 521,-0.5"/>
<text text-anchor="middle" x="543.5" y="-7.5" font-family="Helvetica,sans-Serif" font-size="10.00">utility</text>
</a>
</g>
</g>
<!-- Node43&#45;&gt;Node47 -->
<g id="edge22" class="edge">
<title>Node43&#45;&gt;Node47</title>
<path fill="none" stroke="midnightblue" d="M569.2,-61.98C564.84,-53.32 557.94,-39.65 552.4,-28.65"/>
<polygon fill="midnightblue" stroke="midnightblue" points="555.42,-26.86 547.79,-19.51 549.17,-30.01 555.42,-26.86"/>
</g>
<!-- Node49 -->
<g id="node20" class="node">
<title>Node49</title>
<g id="a_node20"><a xlink:href="bounded__view_8h.html" target="_top" xlink:title=" ">
<polygon fill="white" stroke="black" points="682,-123.5 682,-153.5 815,-153.5 815,-123.5 682,-123.5"/>
<text text-anchor="start" x="690" y="-141.5" font-family="Helvetica,sans-Serif" font-size="10.00">emlabcpp/experimental</text>
<text text-anchor="middle" x="748.5" y="-130.5" font-family="Helvetica,sans-Serif" font-size="10.00">/bounded_view.h</text>
</a>
</g>
</g>
<!-- Node48&#45;&gt;Node49 -->
<g id="edge26" class="edge">
<title>Node48&#45;&gt;Node49</title>
<path fill="none" stroke="midnightblue" d="M1166.85,-190.5C1090.92,-181.57 968.32,-167.04 862.5,-154 850.39,-152.51 837.56,-150.9 825.05,-149.32"/>
<polygon fill="midnightblue" stroke="midnightblue" points="825.46,-145.84 815.1,-148.06 824.58,-152.79 825.46,-145.84"/>
</g>
<!-- Node50 -->
<g id="node21" class="node">
<title>Node50</title>
<g id="a_node21"><a xlink:href="protocol_2base_8h.html" target="_top" xlink:title=" ">
<polygon fill="white" stroke="red" points="1168,-129 1168,-148 1311,-148 1311,-129 1168,-129"/>
<text text-anchor="middle" x="1239.5" y="-136" font-family="Helvetica,sans-Serif" font-size="10.00">emlabcpp/protocol/base.h</text>
</a>
</g>
</g>
<!-- Node48&#45;&gt;Node50 -->
<g id="edge29" class="edge">
<title>Node48&#45;&gt;Node50</title>
<path fill="none" stroke="midnightblue" d="M1239.5,-190.48C1239.5,-182.08 1239.5,-168.98 1239.5,-158.16"/>
<polygon fill="midnightblue" stroke="midnightblue" points="1243,-158.01 1239.5,-148.01 1236,-158.01 1243,-158.01"/>
</g>
<!-- Node53 -->
<g id="node23" class="node">
<title>Node53</title>
<g id="a_node23"><a xlink:title=" ">
<polygon fill="white" stroke="#bfbfbf" points="1316,-62 1316,-81 1345,-81 1345,-62 1316,-62"/>
<text text-anchor="middle" x="1330.5" y="-69" font-family="Helvetica,sans-Serif" font-size="10.00">bit</text>
</a>
</g>
</g>
<!-- Node48&#45;&gt;Node53 -->
<g id="edge37" class="edge">
<title>Node48&#45;&gt;Node53</title>
<path fill="none" stroke="midnightblue" d="M1268.55,-190.41C1286.5,-183.54 1308.37,-172.01 1320.5,-154 1332.98,-135.48 1333.93,-109.1 1332.79,-91.42"/>
<polygon fill="midnightblue" stroke="midnightblue" points="1336.25,-90.86 1331.84,-81.23 1329.28,-91.51 1336.25,-90.86"/>
</g>
<!-- Node24 -->
<g id="node25" class="node">
<title>Node24</title>
<g id="a_node25"><a xlink:href="range_8h.html" target="_top" xlink:title=" ">
<polygon fill="white" stroke="black" points="1367.5,-129 1367.5,-148 1471.5,-148 1471.5,-129 1367.5,-129"/>
<text text-anchor="middle" x="1419.5" y="-136" font-family="Helvetica,sans-Serif" font-size="10.00">emlabcpp/range.h</text>
</a>
</g>
</g>
<!-- Node48&#45;&gt;Node24 -->
<g id="edge35" class="edge">
<title>Node48&#45;&gt;Node24</title>
<path fill="none" stroke="midnightblue" d="M1265.29,-190.48C1296.43,-180.18 1348.98,-162.81 1383.95,-151.25"/>
<polygon fill="midnightblue" stroke="midnightblue" points="1385.36,-154.47 1393.76,-148.01 1383.16,-147.82 1385.36,-154.47"/>
</g>
<!-- Node35 -->
<g id="node26" class="node">
<title>Node35</title>
<g id="a_node26"><a xlink:title=" ">
<polygon fill="white" stroke="#bfbfbf" points="962.5,-62 962.5,-81 1002.5,-81 1002.5,-62 962.5,-62"/>
<text text-anchor="middle" x="982.5" y="-69" font-family="Helvetica,sans-Serif" font-size="10.00">span</text>
</a>
</g>
</g>
<!-- Node48&#45;&gt;Node35 -->
<g id="edge38" class="edge">
<title>Node48&#45;&gt;Node35</title>
<path fill="none" stroke="midnightblue" d="M1221.84,-190.31C1177.53,-168.5 1061.49,-111.38 1008.98,-85.53"/>
<polygon fill="midnightblue" stroke="midnightblue" points="1010.47,-82.36 999.95,-81.09 1007.37,-88.64 1010.47,-82.36"/>
</g>
<!-- Node49&#45;&gt;Node17 -->
<g id="edge27" class="edge">
<title>Node49&#45;&gt;Node17</title>
<path fill="none" stroke="midnightblue" d="M755.23,-123.4C759.82,-113.76 765.95,-100.91 770.9,-90.54"/>
<polygon fill="midnightblue" stroke="midnightblue" points="774.21,-91.73 775.35,-81.19 767.89,-88.71 774.21,-91.73"/>
</g>
<!-- Node49&#45;&gt;Node27 -->
<g id="edge28" class="edge">
<title>Node49&#45;&gt;Node27</title>
<path fill="none" stroke="midnightblue" d="M681.75,-123.78C634.43,-113.91 569.47,-100.09 512.5,-87 507.55,-85.86 502.38,-84.64 497.24,-83.41"/>
<polygon fill="midnightblue" stroke="midnightblue" points="498.01,-79.99 487.47,-81.03 496.36,-86.79 498.01,-79.99"/>
</g>
<!-- Node50&#45;&gt;Node17 -->
<g id="edge30" class="edge">
<title>Node50&#45;&gt;Node17</title>
<path fill="none" stroke="midnightblue" d="M1178.89,-128.94C1093.73,-116.9 939.06,-95.05 849.24,-82.35"/>
<polygon fill="midnightblue" stroke="midnightblue" points="849.54,-78.86 839.15,-80.93 848.56,-85.79 849.54,-78.86"/>
</g>
<!-- Node50&#45;&gt;Node11 -->
<g id="edge33" class="edge">
<title>Node50&#45;&gt;Node11</title>
<path fill="none" stroke="midnightblue" d="M1245.02,-128.56C1254.5,-111.97 1271.12,-76.25 1252.5,-56 1220.28,-20.95 872.68,-26.4 825.5,-20 824.41,-19.85 823.3,-19.7 822.19,-19.53"/>
<polygon fill="midnightblue" stroke="midnightblue" points="822.47,-16.03 812.04,-17.91 821.36,-22.94 822.47,-16.03"/>
</g>
<!-- Node51 -->
<g id="node22" class="node">
<title>Node51</title>
<g id="a_node22"><a xlink:href="protocol_2error_8h.html" target="_top" xlink:title=" ">
<polygon fill="white" stroke="red" points="1101.5,-62 1101.5,-81 1243.5,-81 1243.5,-62 1101.5,-62"/>
<text text-anchor="middle" x="1172.5" y="-69" font-family="Helvetica,sans-Serif" font-size="10.00">emlabcpp/protocol/error.h</text>
</a>
</g>
</g>
<!-- Node50&#45;&gt;Node51 -->
<g id="edge31" class="edge">
<title>Node50&#45;&gt;Node51</title>
<path fill="none" stroke="midnightblue" d="M1230.46,-128.73C1219.82,-118.4 1201.92,-101.04 1188.82,-88.33"/>
<polygon fill="midnightblue" stroke="midnightblue" points="1191.01,-85.58 1181.39,-81.13 1186.13,-90.6 1191.01,-85.58"/>
</g>
<!-- Node50&#45;&gt;Node53 -->
<g id="edge32" class="edge">
<title>Node50&#45;&gt;Node53</title>
<path fill="none" stroke="midnightblue" d="M1251.77,-128.73C1266.65,-118.11 1291.93,-100.05 1309.83,-87.26"/>
<polygon fill="midnightblue" stroke="midnightblue" points="1312.32,-89.79 1318.42,-81.13 1308.25,-84.09 1312.32,-89.79"/>
</g>
<!-- Node15 -->
<g id="node24" class="node">
<title>Node15</title>
<g id="a_node24"><a xlink:title=" ">
<polygon fill="white" stroke="#bfbfbf" points="1032,-62 1032,-81 1083,-81 1083,-62 1032,-62"/>
<text text-anchor="middle" x="1057.5" y="-69" font-family="Helvetica,sans-Serif" font-size="10.00">variant</text>
</a>
</g>
</g>
<!-- Node50&#45;&gt;Node15 -->
<g id="edge34" class="edge">
<title>Node50&#45;&gt;Node15</title>
<path fill="none" stroke="midnightblue" d="M1213.04,-128.96C1183.47,-119.28 1134.27,-102.81 1092.5,-87 1090.85,-86.38 1089.16,-85.72 1087.46,-85.06"/>
<polygon fill="midnightblue" stroke="midnightblue" points="1088.36,-81.64 1077.77,-81.15 1085.74,-88.13 1088.36,-81.64"/>
</g>
<!-- Node24&#45;&gt;Node25 -->
<g id="edge36" class="edge">
<title>Node24&#45;&gt;Node25</title>
<path fill="none" stroke="midnightblue" d="M1424.89,-128.73C1430.14,-120.2 1438.35,-106.87 1445.45,-95.33"/>
<polygon fill="midnightblue" stroke="midnightblue" points="1448.57,-96.94 1450.83,-86.59 1442.61,-93.27 1448.57,-96.94"/>
</g>
<!-- Node55&#45;&gt;Node4 -->
<g id="edge52" class="edge">
<title>Node55&#45;&gt;Node4</title>
<path fill="none" stroke="midnightblue" d="M825.6,-194.68C727.54,-188.19 558.72,-174.47 500.5,-154 447.92,-135.51 427.16,-132.16 394.5,-87 382.33,-70.17 377.92,-46.36 376.34,-29.9"/>
<polygon fill="midnightblue" stroke="midnightblue" points="379.83,-29.58 375.64,-19.85 372.84,-30.07 379.83,-29.58"/>
</g>
<!-- Node55&#45;&gt;Node33 -->
<g id="edge53" class="edge">
<title>Node55&#45;&gt;Node33</title>
<path fill="none" stroke="midnightblue" d="M888.34,-190.19C879.59,-181.87 867.6,-168.54 862.5,-154 847.62,-111.58 853.79,-57.64 858.67,-29.69"/>
<polygon fill="midnightblue" stroke="midnightblue" points="862.14,-30.19 860.56,-19.71 855.26,-28.89 862.14,-30.19"/>
</g>
<!-- Node55&#45;&gt;Node44 -->
<g id="edge51" class="edge">
<title>Node55&#45;&gt;Node44</title>
<path fill="none" stroke="midnightblue" d="M825.77,-193.59C767.83,-187.69 693.12,-176 672.5,-154 640.76,-120.14 645.01,-60.36 649.79,-29.94"/>
<polygon fill="midnightblue" stroke="midnightblue" points="653.28,-30.28 651.57,-19.83 646.38,-29.07 653.28,-30.28"/>
</g>
<!-- Node55&#45;&gt;Node50 -->
<g id="edge42" class="edge">
<title>Node55&#45;&gt;Node50</title>
<path fill="none" stroke="midnightblue" d="M947.36,-190.48C1008.89,-179.74 1114.53,-161.31 1180.5,-149.79"/>
<polygon fill="midnightblue" stroke="midnightblue" points="1181.48,-153.18 1190.73,-148.01 1180.28,-146.28 1181.48,-153.18"/>
</g>
<!-- Node55&#45;&gt;Node51 -->
<g id="edge43" class="edge">
<title>Node55&#45;&gt;Node51</title>
<path fill="none" stroke="midnightblue" d="M950.03,-190.49C984.01,-183.6 1028.86,-172.02 1065.5,-154 1101.07,-136.51 1136.51,-106.38 1156.36,-88.06"/>
<polygon fill="midnightblue" stroke="midnightblue" points="1158.98,-90.41 1163.86,-81.01 1154.18,-85.31 1158.98,-90.41"/>
</g>
<!-- Node55&#45;&gt;Node15 -->
<g id="edge54" class="edge">
<title>Node55&#45;&gt;Node15</title>
<path fill="none" stroke="midnightblue" d="M971.15,-192.62C997.87,-186.59 1026.07,-175.23 1044.5,-154 1059.44,-136.8 1060.83,-109.52 1059.75,-91.33"/>
<polygon fill="midnightblue" stroke="midnightblue" points="1063.23,-90.99 1058.85,-81.34 1056.26,-91.61 1063.23,-90.99"/>
</g>
<!-- Node21 -->
<g id="node28" class="node">
<title>Node21</title>
<g id="a_node28"><a xlink:href="decompose_8h.html" target="_top" xlink:title=" ">
<polygon fill="white" stroke="red" points="0,-123.5 0,-153.5 133,-153.5 133,-123.5 0,-123.5"/>
<text text-anchor="start" x="8" y="-141.5" font-family="Helvetica,sans-Serif" font-size="10.00">emlabcpp/experimental</text>
<text text-anchor="middle" x="66.5" y="-130.5" font-family="Helvetica,sans-Serif" font-size="10.00">/decompose.h</text>
</a>
</g>
</g>
<!-- Node55&#45;&gt;Node21 -->
<g id="edge40" class="edge">
<title>Node55&#45;&gt;Node21</title>
<path fill="none" stroke="midnightblue" d="M825.81,-195.16C699.81,-188.31 432.72,-172.91 207.5,-154 186.64,-152.25 164.07,-150.06 143.23,-147.92"/>
<polygon fill="midnightblue" stroke="midnightblue" points="143.46,-144.42 133.16,-146.87 142.74,-151.39 143.46,-144.42"/>
</g>
<!-- Node56 -->
<g id="node29" class="node">
<title>Node56</title>
<g id="a_node29"><a xlink:href="message_8h.html" target="_top" xlink:title=" ">
<polygon fill="white" stroke="red" points="871.5,-129 871.5,-148 1035.5,-148 1035.5,-129 871.5,-129"/>
<text text-anchor="middle" x="953.5" y="-136" font-family="Helvetica,sans-Serif" font-size="10.00">emlabcpp/protocol/message.h</text>
</a>
</g>
</g>
<!-- Node55&#45;&gt;Node56 -->
<g id="edge44" class="edge">
<title>Node55&#45;&gt;Node56</title>
<path fill="none" stroke="midnightblue" d="M906.38,-190.48C914.79,-181.37 928.32,-166.74 938.73,-155.48"/>
<polygon fill="midnightblue" stroke="midnightblue" points="941.42,-157.73 945.63,-148.01 936.28,-152.98 941.42,-157.73"/>
</g>
<!-- Node57 -->
<g id="node30" class="node">
<title>Node57</title>
<g id="a_node30"><a xlink:href="quantity_8h.html" target="_top" xlink:title=" ">
<polygon fill="white" stroke="red" points="509.5,-129 509.5,-148 625.5,-148 625.5,-129 509.5,-129"/>
<text text-anchor="middle" x="567.5" y="-136" font-family="Helvetica,sans-Serif" font-size="10.00">emlabcpp/quantity.h</text>
</a>
</g>
</g>
<!-- Node55&#45;&gt;Node57 -->
<g id="edge48" class="edge">
<title>Node55&#45;&gt;Node57</title>
<path fill="none" stroke="midnightblue" d="M846.83,-190.44C794.5,-181.67 711.27,-167.46 639.5,-154 632.85,-152.75 625.86,-151.4 618.96,-150.04"/>
<polygon fill="midnightblue" stroke="midnightblue" points="619.45,-146.57 608.96,-148.05 618.09,-153.43 619.45,-146.57"/>
</g>
<!-- Node21&#45;&gt;Node10 -->
<g id="edge41" class="edge">
<title>Node21&#45;&gt;Node10</title>
<path fill="none" stroke="midnightblue" d="M47.88,-123.24C28.87,-106.88 4.03,-79.3 18.5,-56 31.69,-34.77 58.18,-23.25 79.2,-17.2"/>
<polygon fill="midnightblue" stroke="midnightblue" points="80.2,-20.56 89,-14.65 78.44,-13.78 80.2,-20.56"/>
</g>
<!-- Node56&#45;&gt;Node33 -->
<g id="edge46" class="edge">
<title>Node56&#45;&gt;Node33</title>
<path fill="none" stroke="midnightblue" d="M947.25,-128.81C932.31,-108.04 894.35,-55.27 874.7,-27.96"/>
<polygon fill="midnightblue" stroke="midnightblue" points="877.48,-25.83 868.8,-19.76 871.8,-29.92 877.48,-25.83"/>
</g>
<!-- Node56&#45;&gt;Node27 -->
<g id="edge45" class="edge">
<title>Node56&#45;&gt;Node27</title>
<path fill="none" stroke="midnightblue" d="M878.08,-128.99C754.45,-115.01 521.4,-88.6 512.5,-87 506.92,-86 501.08,-84.78 495.34,-83.48"/>
<polygon fill="midnightblue" stroke="midnightblue" points="495.72,-79.97 485.19,-81.07 494.11,-86.78 495.72,-79.97"/>
</g>
<!-- Node56&#45;&gt;Node35 -->
<g id="edge47" class="edge">
<title>Node56&#45;&gt;Node35</title>
<path fill="none" stroke="midnightblue" d="M957.41,-128.73C961.76,-118.99 968.9,-102.98 974.46,-90.53"/>
<polygon fill="midnightblue" stroke="midnightblue" points="977.77,-91.69 978.65,-81.13 971.38,-88.83 977.77,-91.69"/>
</g>
<!-- Node57&#45;&gt;Node11 -->
<g id="edge50" class="edge">
<title>Node57&#45;&gt;Node11</title>
<path fill="none" stroke="midnightblue" d="M581.93,-128.81C617.76,-107.22 711,-51.06 754.51,-24.85"/>
<polygon fill="midnightblue" stroke="midnightblue" points="756.48,-27.75 763.24,-19.59 752.87,-21.75 756.48,-27.75"/>
</g>
<!-- Node57&#45;&gt;Node39 -->
<g id="edge49" class="edge">
<title>Node57&#45;&gt;Node39</title>
<path fill="none" stroke="midnightblue" d="M535.35,-128.94C489.05,-116.6 404.03,-93.95 356.99,-81.42"/>
<polygon fill="midnightblue" stroke="midnightblue" points="357.85,-78.03 347.28,-78.84 356.05,-84.79 357.85,-78.03"/>
</g>
</g>
</svg>
