<?xml version="1.0" encoding="UTF-8" standalone="no"?>
<!DOCTYPE svg PUBLIC "-//W3C//DTD SVG 1.1//EN"
 "http://www.w3.org/Graphics/SVG/1.1/DTD/svg11.dtd">
<!-- Generated by graphviz version 2.43.0 (0)
 -->
<!-- Title: include/emlabcpp/protocol/converter.h Pages: 1 -->
<svg width="1641pt" height="274pt"
 viewBox="0.00 0.00 1640.67 274.00" xmlns="http://www.w3.org/2000/svg" xmlns:xlink="http://www.w3.org/1999/xlink">
<g id="graph0" class="graph" transform="scale(1 1) rotate(0) translate(4 270)">
<title>include/emlabcpp/protocol/converter.h</title>
<polygon fill="white" stroke="transparent" points="-4,4 -4,-270 1636.67,-270 1636.67,4 -4,4"/>
<!-- Node1 -->
<g id="node1" class="node">
<title>Node1</title>
<g id="a_node1"><a xlink:title=" ">
<polygon fill="#bfbfbf" stroke="black" points="843.67,-235.5 843.67,-265.5 989.67,-265.5 989.67,-235.5 843.67,-235.5"/>
<text text-anchor="start" x="851.67" y="-253.5" font-family="Helvetica,sans-Serif" font-size="10.00">include/emlabcpp/protocol</text>
<text text-anchor="middle" x="916.67" y="-242.5" font-family="Helvetica,sans-Serif" font-size="10.00">/converter.h</text>
</a>
</g>
</g>
<!-- Node2 -->
<g id="node2" class="node">
<title>Node2</title>
<g id="a_node2"><a xlink:href="algorithm_8h.html" target="_top" xlink:title=" ">
<polygon fill="white" stroke="black" points="289.67,-179.5 289.67,-198.5 371.67,-198.5 371.67,-179.5 289.67,-179.5"/>
<text text-anchor="middle" x="330.67" y="-186.5" font-family="Helvetica,sans-Serif" font-size="10.00">../algorithm.h</text>
</a>
</g>
</g>
<!-- Node1&#45;&gt;Node2 -->
<g id="edge1" class="edge">
<title>Node1&#45;&gt;Node2</title>
<path fill="none" stroke="midnightblue" d="M843.64,-242.08C723.24,-229.86 486.05,-205.78 381.83,-195.19"/>
<polygon fill="midnightblue" stroke="midnightblue" points="382.18,-191.71 371.87,-194.18 381.47,-198.68 382.18,-191.71"/>
</g>
<!-- Node28 -->
<g id="node14" class="node">
<title>Node28</title>
<g id="a_node14"><a xlink:href="assert_8h.html" target="_top" xlink:title=" ">
<polygon fill="white" stroke="black" points="1502.17,-179.5 1502.17,-198.5 1567.17,-198.5 1567.17,-179.5 1502.17,-179.5"/>
<text text-anchor="middle" x="1534.67" y="-186.5" font-family="Helvetica,sans-Serif" font-size="10.00">../assert.h</text>
</a>
</g>
</g>
<!-- Node1&#45;&gt;Node28 -->
<g id="edge17" class="edge">
<title>Node1&#45;&gt;Node28</title>
<path fill="none" stroke="midnightblue" d="M989.69,-242.47C1119.69,-229.95 1387.41,-204.18 1491.73,-194.13"/>
<polygon fill="midnightblue" stroke="midnightblue" points="1492.27,-197.6 1501.89,-193.16 1491.6,-190.63 1492.27,-197.6"/>
</g>
<!-- Node30 -->
<g id="node16" class="node">
<title>Node30</title>
<g id="a_node16"><a xlink:href="visit_8h.html" target="_top" xlink:title=" ">
<polygon fill="white" stroke="black" points="505.67,-179.5 505.67,-198.5 561.67,-198.5 561.67,-179.5 505.67,-179.5"/>
<text text-anchor="middle" x="533.67" y="-186.5" font-family="Helvetica,sans-Serif" font-size="10.00">../visit.h</text>
</a>
</g>
</g>
<!-- Node1&#45;&gt;Node30 -->
<g id="edge19" class="edge">
<title>Node1&#45;&gt;Node30</title>
<path fill="none" stroke="midnightblue" d="M843.28,-238.1C762.21,-225.5 634.82,-205.71 571.71,-195.91"/>
<polygon fill="midnightblue" stroke="midnightblue" points="572.21,-192.44 561.79,-194.37 571.13,-199.36 572.21,-192.44"/>
</g>
<!-- Node31 -->
<g id="node18" class="node">
<title>Node31</title>
<g id="a_node18"><a xlink:href="serializer_8h.html" target="_top" xlink:title=" ">
<polygon fill="white" stroke="black" points="1264.67,-179.5 1264.67,-198.5 1340.67,-198.5 1340.67,-179.5 1264.67,-179.5"/>
<text text-anchor="middle" x="1302.67" y="-186.5" font-family="Helvetica,sans-Serif" font-size="10.00">./serializer.h</text>
</a>
</g>
</g>
<!-- Node1&#45;&gt;Node31 -->
<g id="edge23" class="edge">
<title>Node1&#45;&gt;Node31</title>
<path fill="none" stroke="midnightblue" d="M989.73,-238.24C1067.32,-226.28 1187.77,-207.71 1254.33,-197.45"/>
<polygon fill="midnightblue" stroke="midnightblue" points="1255.19,-200.86 1264.54,-195.88 1254.12,-193.94 1255.19,-200.86"/>
</g>
<!-- Node41 -->
<g id="node23" class="node">
<title>Node41</title>
<g id="a_node23"><a xlink:href="traits_8h.html" target="_top" xlink:title=" ">
<polygon fill="white" stroke="black" points="888.17,-179.5 888.17,-198.5 945.17,-198.5 945.17,-179.5 888.17,-179.5"/>
<text text-anchor="middle" x="916.67" y="-186.5" font-family="Helvetica,sans-Serif" font-size="10.00">./traits.h</text>
</a>
</g>
</g>
<!-- Node1&#45;&gt;Node41 -->
<g id="edge35" class="edge">
<title>Node1&#45;&gt;Node41</title>
<path fill="none" stroke="midnightblue" d="M916.67,-235.4C916.67,-227.47 916.67,-217.46 916.67,-208.86"/>
<polygon fill="midnightblue" stroke="midnightblue" points="920.17,-208.66 916.67,-198.66 913.17,-208.66 920.17,-208.66"/>
</g>
<!-- Node3 -->
<g id="node3" class="node">
<title>Node3</title>
<g id="a_node3"><a xlink:href="impl_8h.html" target="_top" xlink:title=" ">
<polygon fill="white" stroke="black" points="188.67,-118 188.67,-137 292.67,-137 292.67,-118 188.67,-118"/>
<text text-anchor="middle" x="240.67" y="-125" font-family="Helvetica,sans-Serif" font-size="10.00">./algorithm/impl.h</text>
</a>
</g>
</g>
<!-- Node2&#45;&gt;Node3 -->
<g id="edge2" class="edge">
<title>Node2&#45;&gt;Node3</title>
<path fill="none" stroke="midnightblue" d="M317.78,-179.48C303.21,-169.84 279.27,-154.02 261.93,-142.55"/>
<polygon fill="midnightblue" stroke="midnightblue" points="263.82,-139.6 253.54,-137.01 259.95,-145.44 263.82,-139.6"/>
</g>
<!-- Node4 -->
<g id="node4" class="node">
<title>Node4</title>
<g id="a_node4"><a xlink:href="types_8h.html" target="_top" xlink:title=" ">
<polygon fill="white" stroke="red" points="553.67,-0.5 553.67,-19.5 615.67,-19.5 615.67,-0.5 553.67,-0.5"/>
<text text-anchor="middle" x="584.67" y="-7.5" font-family="Helvetica,sans-Serif" font-size="10.00">../types.h</text>
</a>
</g>
</g>
<!-- Node2&#45;&gt;Node4 -->
<g id="edge12" class="edge">
<title>Node2&#45;&gt;Node4</title>
<path fill="none" stroke="midnightblue" d="M289.54,-188.67C210.69,-188.98 42.89,-184.6 6.67,-143 -2.38,-132.61 -2.01,-122.7 6.67,-112 74.3,-28.71 421.97,-14.11 543.04,-11.54"/>
<polygon fill="midnightblue" stroke="midnightblue" points="543.44,-15.04 553.37,-11.34 543.3,-8.04 543.44,-15.04"/>
</g>
<!-- Node10 -->
<g id="node5" class="node">
<title>Node10</title>
<g id="a_node5"><a xlink:title=" ">
<polygon fill="white" stroke="#bfbfbf" points="411.17,-56.5 411.17,-75.5 452.17,-75.5 452.17,-56.5 411.17,-56.5"/>
<text text-anchor="middle" x="431.67" y="-63.5" font-family="Helvetica,sans-Serif" font-size="10.00">tuple</text>
</a>
</g>
</g>
<!-- Node2&#45;&gt;Node10 -->
<g id="edge16" class="edge">
<title>Node2&#45;&gt;Node10</title>
<path fill="none" stroke="midnightblue" d="M346.85,-179.44C360.68,-171.48 380.4,-158.53 393.67,-143 408.45,-125.7 419.21,-101.67 425.44,-85.29"/>
<polygon fill="midnightblue" stroke="midnightblue" points="428.77,-86.37 428.87,-75.78 422.18,-83.99 428.77,-86.37"/>
</g>
<!-- Node17 -->
<g id="node6" class="node">
<title>Node17</title>
<g id="a_node6"><a xlink:href="bounded_8h.html" target="_top" xlink:title=" ">
<polygon fill="white" stroke="red" points="1065.67,-56.5 1065.67,-75.5 1139.67,-75.5 1139.67,-56.5 1065.67,-56.5"/>
<text text-anchor="middle" x="1102.67" y="-63.5" font-family="Helvetica,sans-Serif" font-size="10.00">./bounded.h</text>
</a>
</g>
</g>
<!-- Node2&#45;&gt;Node17 -->
<g id="edge5" class="edge">
<title>Node2&#45;&gt;Node17</title>
<path fill="none" stroke="midnightblue" d="M371.72,-185.59C502.86,-177.79 904.65,-153.19 930.67,-143 951.29,-134.93 950.23,-122.59 969.67,-112 997.19,-97 1030.62,-85.72 1057.08,-78.2"/>
<polygon fill="midnightblue" stroke="midnightblue" points="1058.14,-81.54 1066.85,-75.51 1056.28,-74.79 1058.14,-81.54"/>
</g>
<!-- Node19 -->
<g id="node8" class="node">
<title>Node19</title>
<g id="a_node8"><a xlink:href="min__max_8h.html" target="_top" xlink:title=" ">
<polygon fill="white" stroke="red" points="26.17,-118 26.17,-137 103.17,-137 103.17,-118 26.17,-118"/>
<text text-anchor="middle" x="64.67" y="-125" font-family="Helvetica,sans-Serif" font-size="10.00">./min_max.h</text>
</a>
</g>
</g>
<!-- Node2&#45;&gt;Node19 -->
<g id="edge7" class="edge">
<title>Node2&#45;&gt;Node19</title>
<path fill="none" stroke="midnightblue" d="M289.64,-180.79C245.43,-172.74 173.15,-158.76 111.67,-143 108.07,-142.08 104.33,-141.05 100.61,-139.97"/>
<polygon fill="midnightblue" stroke="midnightblue" points="101.48,-136.58 90.89,-137.08 99.48,-143.29 101.48,-136.58"/>
</g>
<!-- Node21 -->
<g id="node9" class="node">
<title>Node21</title>
<g id="a_node9"><a xlink:href="range_8h.html" target="_top" xlink:title=" ">
<polygon fill="white" stroke="red" points="863.17,-118 863.17,-137 922.17,-137 922.17,-118 863.17,-118"/>
<text text-anchor="middle" x="892.67" y="-125" font-family="Helvetica,sans-Serif" font-size="10.00">./range.h</text>
</a>
</g>
</g>
<!-- Node2&#45;&gt;Node21 -->
<g id="edge8" class="edge">
<title>Node2&#45;&gt;Node21</title>
<path fill="none" stroke="midnightblue" d="M371.86,-185.9C478.56,-180.21 761.97,-163.59 853.67,-143 856.74,-142.31 859.9,-141.43 863.03,-140.46"/>
<polygon fill="midnightblue" stroke="midnightblue" points="864.44,-143.67 872.75,-137.09 862.15,-137.06 864.44,-143.67"/>
</g>
<!-- Node24 -->
<g id="node10" class="node">
<title>Node24</title>
<g id="a_node10"><a xlink:href="view_8h.html" target="_top" xlink:title=" ">
<polygon fill="white" stroke="black" points="865.67,-56.5 865.67,-75.5 919.67,-75.5 919.67,-56.5 865.67,-56.5"/>
<text text-anchor="middle" x="892.67" y="-63.5" font-family="Helvetica,sans-Serif" font-size="10.00">./view.h</text>
</a>
</g>
</g>
<!-- Node2&#45;&gt;Node24 -->
<g id="edge13" class="edge">
<title>Node2&#45;&gt;Node24</title>
<path fill="none" stroke="midnightblue" d="M346.13,-179.48C376.1,-163.38 444.63,-128.63 506.67,-112 631.57,-78.53 785.81,-69.95 855.45,-67.76"/>
<polygon fill="midnightblue" stroke="midnightblue" points="855.6,-71.25 865.49,-67.47 855.4,-64.26 855.6,-71.25"/>
</g>
<!-- Node26 -->
<g id="node12" class="node">
<title>Node26</title>
<g id="a_node12"><a xlink:title=" ">
<polygon fill="white" stroke="#bfbfbf" points="310.17,-56.5 310.17,-75.5 357.17,-75.5 357.17,-56.5 310.17,-56.5"/>
<text text-anchor="middle" x="333.67" y="-63.5" font-family="Helvetica,sans-Serif" font-size="10.00">cmath</text>
</a>
</g>
</g>
<!-- Node2&#45;&gt;Node26 -->
<g id="edge14" class="edge">
<title>Node2&#45;&gt;Node26</title>
<path fill="none" stroke="midnightblue" d="M289.61,-188.46C212.69,-188.35 51.53,-183.21 16.67,-143 7.65,-132.59 7.64,-122.4 16.67,-112 53.05,-70.09 225.54,-66.18 299.68,-66.49"/>
<polygon fill="midnightblue" stroke="midnightblue" points="299.85,-69.99 309.87,-66.56 299.9,-62.99 299.85,-69.99"/>
</g>
<!-- Node27 -->
<g id="node13" class="node">
<title>Node27</title>
<g id="a_node13"><a xlink:title=" ">
<polygon fill="white" stroke="#bfbfbf" points="121.17,-118 121.17,-137 170.17,-137 170.17,-118 121.17,-118"/>
<text text-anchor="middle" x="145.67" y="-125" font-family="Helvetica,sans-Serif" font-size="10.00">cstdlib</text>
</a>
</g>
</g>
<!-- Node2&#45;&gt;Node27 -->
<g id="edge15" class="edge">
<title>Node2&#45;&gt;Node27</title>
<path fill="none" stroke="midnightblue" d="M298.22,-179.48C267.41,-171.12 219.94,-157.53 179.67,-143 177.82,-142.33 175.92,-141.61 174.01,-140.87"/>
<polygon fill="midnightblue" stroke="midnightblue" points="175.16,-137.56 164.58,-137.01 172.51,-144.04 175.16,-137.56"/>
</g>
<!-- Node3&#45;&gt;Node4 -->
<g id="edge3" class="edge">
<title>Node3&#45;&gt;Node4</title>
<path fill="none" stroke="midnightblue" d="M245.27,-117.84C253.89,-102.54 274.04,-70.95 300.67,-56 341.46,-33.11 474.69,-19.62 543.19,-14.03"/>
<polygon fill="midnightblue" stroke="midnightblue" points="543.51,-17.52 553.2,-13.23 542.96,-10.54 543.51,-17.52"/>
</g>
<!-- Node3&#45;&gt;Node10 -->
<g id="edge4" class="edge">
<title>Node3&#45;&gt;Node10</title>
<path fill="none" stroke="midnightblue" d="M268.04,-117.98C303.4,-106.96 364.75,-87.85 401.45,-76.42"/>
<polygon fill="midnightblue" stroke="midnightblue" points="402.6,-79.72 411.1,-73.41 400.51,-73.04 402.6,-79.72"/>
</g>
<!-- Node18 -->
<g id="node7" class="node">
<title>Node18</title>
<g id="a_node7"><a xlink:title=" ">
<polygon fill="white" stroke="#bfbfbf" points="830.67,-0.5 830.67,-19.5 886.67,-19.5 886.67,-0.5 830.67,-0.5"/>
<text text-anchor="middle" x="858.67" y="-7.5" font-family="Helvetica,sans-Serif" font-size="10.00">optional</text>
</a>
</g>
</g>
<!-- Node17&#45;&gt;Node18 -->
<g id="edge6" class="edge">
<title>Node17&#45;&gt;Node18</title>
<path fill="none" stroke="midnightblue" d="M1065.61,-56.8C1020,-46.7 942.95,-29.65 896.83,-19.45"/>
<polygon fill="midnightblue" stroke="midnightblue" points="897.45,-16 886.93,-17.25 895.94,-22.83 897.45,-16"/>
</g>
<!-- Node21&#45;&gt;Node24 -->
<g id="edge9" class="edge">
<title>Node21&#45;&gt;Node24</title>
<path fill="none" stroke="midnightblue" d="M892.67,-117.98C892.67,-109.58 892.67,-96.48 892.67,-85.66"/>
<polygon fill="midnightblue" stroke="midnightblue" points="896.17,-85.51 892.67,-75.51 889.17,-85.51 896.17,-85.51"/>
</g>
<!-- Node24&#45;&gt;Node4 -->
<g id="edge10" class="edge">
<title>Node24&#45;&gt;Node4</title>
<path fill="none" stroke="midnightblue" d="M865.61,-60.26C811.66,-50.8 690.4,-29.54 626.26,-18.29"/>
<polygon fill="midnightblue" stroke="midnightblue" points="626.56,-14.79 616.1,-16.51 625.35,-21.69 626.56,-14.79"/>
</g>
<!-- Node25 -->
<g id="node11" class="node">
<title>Node25</title>
<g id="a_node11"><a xlink:title=" ">
<polygon fill="white" stroke="#bfbfbf" points="1202.67,-0.5 1202.67,-19.5 1242.67,-19.5 1242.67,-0.5 1202.67,-0.5"/>
<text text-anchor="middle" x="1222.67" y="-7.5" font-family="Helvetica,sans-Serif" font-size="10.00">span</text>
</a>
</g>
</g>
<!-- Node24&#45;&gt;Node25 -->
<g id="edge11" class="edge">
<title>Node24&#45;&gt;Node25</title>
<path fill="none" stroke="midnightblue" d="M919.68,-60.58C980.5,-50.63 1127.91,-26.51 1192.03,-16.01"/>
<polygon fill="midnightblue" stroke="midnightblue" points="1192.99,-19.4 1202.29,-14.34 1191.86,-12.5 1192.99,-19.4"/>
</g>
<!-- Node29 -->
<g id="node15" class="node">
<title>Node29</title>
<g id="a_node15"><a xlink:title=" ">
<polygon fill="white" stroke="#bfbfbf" points="1580.67,-118 1580.67,-137 1632.67,-137 1632.67,-118 1580.67,-118"/>
<text text-anchor="middle" x="1606.67" y="-125" font-family="Helvetica,sans-Serif" font-size="10.00">cassert</text>
</a>
</g>
</g>
<!-- Node28&#45;&gt;Node29 -->
<g id="edge18" class="edge">
<title>Node28&#45;&gt;Node29</title>
<path fill="none" stroke="midnightblue" d="M1544.99,-179.48C1556.32,-170.11 1574.75,-154.88 1588.51,-143.51"/>
<polygon fill="midnightblue" stroke="midnightblue" points="1590.9,-146.08 1596.38,-137.01 1586.44,-140.68 1590.9,-146.08"/>
</g>
<!-- Node30&#45;&gt;Node3 -->
<g id="edge20" class="edge">
<title>Node30&#45;&gt;Node3</title>
<path fill="none" stroke="midnightblue" d="M505.38,-182.91C461.61,-174.94 374.87,-158.79 301.67,-143 296.35,-141.85 290.78,-140.6 285.27,-139.33"/>
<polygon fill="midnightblue" stroke="midnightblue" points="285.99,-135.9 275.45,-137.03 284.39,-142.72 285.99,-135.9"/>
</g>
<!-- Node30&#45;&gt;Node10 -->
<g id="edge21" class="edge">
<title>Node30&#45;&gt;Node10</title>
<path fill="none" stroke="midnightblue" d="M526.34,-179.3C509.43,-159.24 467.49,-109.49 445.55,-83.46"/>
<polygon fill="midnightblue" stroke="midnightblue" points="448.06,-81.01 438.94,-75.62 442.71,-85.52 448.06,-81.01"/>
</g>
<!-- Node15 -->
<g id="node17" class="node">
<title>Node15</title>
<g id="a_node17"><a xlink:title=" ">
<polygon fill="white" stroke="#bfbfbf" points="1339.17,-56.5 1339.17,-75.5 1390.17,-75.5 1390.17,-56.5 1339.17,-56.5"/>
<text text-anchor="middle" x="1364.67" y="-63.5" font-family="Helvetica,sans-Serif" font-size="10.00">variant</text>
</a>
</g>
</g>
<!-- Node30&#45;&gt;Node15 -->
<g id="edge22" class="edge">
<title>Node30&#45;&gt;Node15</title>
<path fill="none" stroke="midnightblue" d="M561.69,-187.03C696.6,-182.29 1274.17,-160.99 1307.67,-143 1320.09,-136.33 1341.34,-104.69 1354.09,-84.39"/>
<polygon fill="midnightblue" stroke="midnightblue" points="1357.15,-86.09 1359.44,-75.75 1351.2,-82.41 1357.15,-86.09"/>
</g>
<!-- Node31&#45;&gt;Node21 -->
<g id="edge27" class="edge">
<title>Node31&#45;&gt;Node21</title>
<path fill="none" stroke="midnightblue" d="M1264.62,-183.51C1202.67,-176.05 1076.22,-160.22 969.67,-143 957.52,-141.04 944.34,-138.65 932.37,-136.38"/>
<polygon fill="midnightblue" stroke="midnightblue" points="932.71,-132.88 922.23,-134.44 931.39,-139.76 932.71,-132.88"/>
</g>
<!-- Node31&#45;&gt;Node25 -->
<g id="edge34" class="edge">
<title>Node31&#45;&gt;Node25</title>
<path fill="none" stroke="midnightblue" d="M1340.99,-184.82C1395.47,-179.51 1491.41,-166.97 1515.67,-143 1543.58,-115.42 1556.33,-85.68 1530.67,-56 1494.95,-14.68 1323.64,-10.56 1253.11,-10.65"/>
<polygon fill="midnightblue" stroke="midnightblue" points="1253.06,-7.15 1243.08,-10.69 1253.09,-14.15 1253.06,-7.15"/>
</g>
<!-- Node32 -->
<g id="node19" class="node">
<title>Node32</title>
<g id="a_node19"><a xlink:href="bounded__view_8h.html" target="_top" xlink:title=" ">
<polygon fill="white" stroke="black" points="1162.67,-112.5 1162.67,-142.5 1298.67,-142.5 1298.67,-112.5 1162.67,-112.5"/>
<text text-anchor="start" x="1170.67" y="-130.5" font-family="Helvetica,sans-Serif" font-size="10.00">../experimental/bounded</text>
<text text-anchor="middle" x="1230.67" y="-119.5" font-family="Helvetica,sans-Serif" font-size="10.00">_view.h</text>
</a>
</g>
</g>
<!-- Node31&#45;&gt;Node32 -->
<g id="edge24" class="edge">
<title>Node31&#45;&gt;Node32</title>
<path fill="none" stroke="midnightblue" d="M1292.36,-179.48C1282.79,-171.57 1268.17,-159.48 1255.56,-149.07"/>
<polygon fill="midnightblue" stroke="midnightblue" points="1257.58,-146.2 1247.64,-142.52 1253.12,-151.59 1257.58,-146.2"/>
</g>
<!-- Node33 -->
<g id="node20" class="node">
<title>Node33</title>
<g id="a_node20"><a xlink:href="protocol_2base_8h.html" target="_top" xlink:title=" ">
<polygon fill="white" stroke="red" points="1431.17,-118 1431.17,-137 1486.17,-137 1486.17,-118 1431.17,-118"/>
<text text-anchor="middle" x="1458.67" y="-125" font-family="Helvetica,sans-Serif" font-size="10.00">./base.h</text>
</a>
</g>
</g>
<!-- Node31&#45;&gt;Node33 -->
<g id="edge28" class="edge">
<title>Node31&#45;&gt;Node33</title>
<path fill="none" stroke="midnightblue" d="M1325.02,-179.48C1351.67,-169.31 1396.39,-152.26 1426.69,-140.7"/>
<polygon fill="midnightblue" stroke="midnightblue" points="1428.27,-143.84 1436.36,-137.01 1425.77,-137.3 1428.27,-143.84"/>
</g>
<!-- Node39 -->
<g id="node22" class="node">
<title>Node39</title>
<g id="a_node22"><a xlink:title=" ">
<polygon fill="white" stroke="#bfbfbf" points="1492.17,-56.5 1492.17,-75.5 1521.17,-75.5 1521.17,-56.5 1492.17,-56.5"/>
<text text-anchor="middle" x="1506.67" y="-63.5" font-family="Helvetica,sans-Serif" font-size="10.00">bit</text>
</a>
</g>
</g>
<!-- Node31&#45;&gt;Node39 -->
<g id="edge33" class="edge">
<title>Node31&#45;&gt;Node39</title>
<path fill="none" stroke="midnightblue" d="M1341.01,-184.15C1391.18,-178.28 1475.14,-165.37 1495.67,-143 1509.66,-127.76 1510.73,-103.07 1509.41,-85.98"/>
<polygon fill="midnightblue" stroke="midnightblue" points="1512.83,-85.13 1508.24,-75.58 1505.88,-85.91 1512.83,-85.13"/>
</g>
<!-- Node32&#45;&gt;Node17 -->
<g id="edge25" class="edge">
<title>Node32&#45;&gt;Node17</title>
<path fill="none" stroke="midnightblue" d="M1200.34,-112.4C1179.15,-102.55 1151.08,-89.5 1130.47,-79.92"/>
<polygon fill="midnightblue" stroke="midnightblue" points="1131.84,-76.7 1121.3,-75.66 1128.89,-83.05 1131.84,-76.7"/>
</g>
<!-- Node32&#45;&gt;Node24 -->
<g id="edge26" class="edge">
<title>Node32&#45;&gt;Node24</title>
<path fill="none" stroke="midnightblue" d="M1162.66,-113.63C1159.63,-113.08 1156.62,-112.53 1153.67,-112 1074.04,-97.64 980.55,-81.76 929.89,-73.23"/>
<polygon fill="midnightblue" stroke="midnightblue" points="930.19,-69.73 919.75,-71.53 929.03,-76.64 930.19,-69.73"/>
</g>
<!-- Node33&#45;&gt;Node17 -->
<g id="edge29" class="edge">
<title>Node33&#45;&gt;Node17</title>
<path fill="none" stroke="midnightblue" d="M1431.03,-121.88C1370.42,-111.75 1225.2,-87.48 1149.85,-74.88"/>
<polygon fill="midnightblue" stroke="midnightblue" points="1150.13,-71.38 1139.69,-73.19 1148.98,-78.29 1150.13,-71.38"/>
</g>
<!-- Node33&#45;&gt;Node15 -->
<g id="edge32" class="edge">
<title>Node33&#45;&gt;Node15</title>
<path fill="none" stroke="midnightblue" d="M1445.2,-117.98C1429.99,-108.34 1404.99,-92.52 1386.87,-81.05"/>
<polygon fill="midnightblue" stroke="midnightblue" points="1388.44,-77.9 1378.12,-75.51 1384.69,-83.81 1388.44,-77.9"/>
</g>
<!-- Node34 -->
<g id="node21" class="node">
<title>Node34</title>
<g id="a_node21"><a xlink:href="protocol_2error_8h.html" target="_top" xlink:title=" ">
<polygon fill="white" stroke="red" points="1412.67,-56.5 1412.67,-75.5 1466.67,-75.5 1466.67,-56.5 1412.67,-56.5"/>
<text text-anchor="middle" x="1439.67" y="-63.5" font-family="Helvetica,sans-Serif" font-size="10.00">./error.h</text>
</a>
</g>
</g>
<!-- Node33&#45;&gt;Node34 -->
<g id="edge30" class="edge">
<title>Node33&#45;&gt;Node34</title>
<path fill="none" stroke="midnightblue" d="M1455.95,-117.98C1453.24,-109.49 1449,-96.2 1445.52,-85.32"/>
<polygon fill="midnightblue" stroke="midnightblue" points="1448.77,-83.97 1442.39,-75.51 1442.1,-86.1 1448.77,-83.97"/>
</g>
<!-- Node33&#45;&gt;Node39 -->
<g id="edge31" class="edge">
<title>Node33&#45;&gt;Node39</title>
<path fill="none" stroke="midnightblue" d="M1465.55,-117.98C1472.82,-108.96 1484.47,-94.52 1493.51,-83.31"/>
<polygon fill="midnightblue" stroke="midnightblue" points="1496.25,-85.49 1499.81,-75.51 1490.8,-81.09 1496.25,-85.49"/>
</g>
<!-- Node41&#45;&gt;Node4 -->
<g id="edge42" class="edge">
<title>Node41&#45;&gt;Node4</title>
<path fill="none" stroke="midnightblue" d="M888.15,-184.15C853.46,-178.64 793.82,-166.47 747.67,-143 686.23,-111.75 626.52,-54.53 599.58,-26.84"/>
<polygon fill="midnightblue" stroke="midnightblue" points="602.04,-24.35 592.59,-19.56 596.99,-29.2 602.04,-24.35"/>
</g>
<!-- Node41&#45;&gt;Node18 -->
<g id="edge48" class="edge">
<title>Node41&#45;&gt;Node18</title>
<path fill="none" stroke="midnightblue" d="M888.12,-183.95C847.2,-177.5 775.12,-163.49 759.67,-143 727.19,-99.9 796.13,-48.75 834.81,-24.74"/>
<polygon fill="midnightblue" stroke="midnightblue" points="836.72,-27.67 843.46,-19.5 833.09,-21.69 836.72,-27.67"/>
</g>
<!-- Node41&#45;&gt;Node15 -->
<g id="edge49" class="edge">
<title>Node41&#45;&gt;Node15</title>
<path fill="none" stroke="midnightblue" d="M945.32,-186.76C1035.61,-182.6 1310.08,-168.01 1340.67,-143 1357.62,-129.14 1362.79,-103.37 1364.26,-85.72"/>
<polygon fill="midnightblue" stroke="midnightblue" points="1367.76,-85.89 1364.78,-75.72 1360.77,-85.53 1367.76,-85.89"/>
</g>
<!-- Node41&#45;&gt;Node33 -->
<g id="edge43" class="edge">
<title>Node41&#45;&gt;Node33</title>
<path fill="none" stroke="midnightblue" d="M945.23,-187.84C1022.23,-186.89 1240.26,-180.8 1416.67,-143 1420.17,-142.25 1423.78,-141.3 1427.35,-140.23"/>
<polygon fill="midnightblue" stroke="midnightblue" points="1428.73,-143.47 1437.16,-137.05 1426.57,-136.81 1428.73,-143.47"/>
</g>
<!-- Node41&#45;&gt;Node34 -->
<g id="edge44" class="edge">
<title>Node41&#45;&gt;Node34</title>
<path fill="none" stroke="midnightblue" d="M945.2,-187.64C1031.74,-186.15 1289.92,-178.75 1364.67,-143 1392.02,-129.92 1415.02,-102.55 1428.08,-84.48"/>
<polygon fill="midnightblue" stroke="midnightblue" points="1431.14,-86.21 1433.97,-76 1425.39,-82.21 1431.14,-86.21"/>
</g>
<!-- Node42 -->
<g id="node24" class="node">
<title>Node42</title>
<g id="a_node24"><a xlink:href="decompose_8h.html" target="_top" xlink:title=" ">
<polygon fill="white" stroke="red" points="516.17,-118 516.17,-137 675.17,-137 675.17,-118 516.17,-118"/>
<text text-anchor="middle" x="595.67" y="-125" font-family="Helvetica,sans-Serif" font-size="10.00">../experimental/decompose.h</text>
</a>
</g>
</g>
<!-- Node41&#45;&gt;Node42 -->
<g id="edge36" class="edge">
<title>Node41&#45;&gt;Node42</title>
<path fill="none" stroke="midnightblue" d="M887.9,-182.67C834.84,-172.83 720.72,-151.68 651.84,-138.91"/>
<polygon fill="midnightblue" stroke="midnightblue" points="652.07,-135.39 641.6,-137.01 650.79,-142.28 652.07,-135.39"/>
</g>
<!-- Node43 -->
<g id="node25" class="node">
<title>Node43</title>
<g id="a_node25"><a xlink:href="quantity_8h.html" target="_top" xlink:title=" ">
<polygon fill="white" stroke="red" points="310.67,-118 310.67,-137 384.67,-137 384.67,-118 310.67,-118"/>
<text text-anchor="middle" x="347.67" y="-125" font-family="Helvetica,sans-Serif" font-size="10.00">../quantity.h</text>
</a>
</g>
</g>
<!-- Node41&#45;&gt;Node43 -->
<g id="edge38" class="edge">
<title>Node41&#45;&gt;Node43</title>
<path fill="none" stroke="midnightblue" d="M888.07,-185.01C796.39,-175.42 509.25,-145.4 395.13,-133.46"/>
<polygon fill="midnightblue" stroke="midnightblue" points="395.27,-129.96 384.96,-132.4 394.54,-136.92 395.27,-129.96"/>
</g>
<!-- Node46 -->
<g id="node26" class="node">
<title>Node46</title>
<g id="a_node26"><a xlink:href="static__vector_8h.html" target="_top" xlink:title=" ">
<polygon fill="white" stroke="red" points="979.17,-118 979.17,-137 1076.17,-137 1076.17,-118 979.17,-118"/>
<text text-anchor="middle" x="1027.67" y="-125" font-family="Helvetica,sans-Serif" font-size="10.00">../static_vector.h</text>
</a>
</g>
</g>
<!-- Node41&#45;&gt;Node46 -->
<g id="edge40" class="edge">
<title>Node41&#45;&gt;Node46</title>
<path fill="none" stroke="midnightblue" d="M932.58,-179.48C950.96,-169.62 981.43,-153.29 1002.92,-141.77"/>
<polygon fill="midnightblue" stroke="midnightblue" points="1004.64,-144.82 1011.8,-137.01 1001.33,-138.65 1004.64,-144.82"/>
</g>
<!-- Node51 -->
<g id="node27" class="node">
<title>Node51</title>
<g id="a_node27"><a xlink:href="message_8h.html" target="_top" xlink:title=" ">
<polygon fill="white" stroke="red" points="768.67,-118 768.67,-137 844.67,-137 844.67,-118 768.67,-118"/>
<text text-anchor="middle" x="806.67" y="-125" font-family="Helvetica,sans-Serif" font-size="10.00">./message.h</text>
</a>
</g>
</g>
<!-- Node41&#45;&gt;Node51 -->
<g id="edge45" class="edge">
<title>Node41&#45;&gt;Node51</title>
<path fill="none" stroke="midnightblue" d="M900.91,-179.48C882.7,-169.62 852.5,-153.29 831.2,-141.77"/>
<polygon fill="midnightblue" stroke="midnightblue" points="832.86,-138.69 822.4,-137.01 829.53,-144.85 832.86,-138.69"/>
</g>
<!-- Node52 -->
<g id="node28" class="node">
<title>Node52</title>
<g id="a_node28"><a xlink:title=" ">
<polygon fill="white" stroke="#bfbfbf" points="1094.67,-118 1094.67,-137 1144.67,-137 1144.67,-118 1094.67,-118"/>
<text text-anchor="middle" x="1119.67" y="-125" font-family="Helvetica,sans-Serif" font-size="10.00">chrono</text>
</a>
</g>
</g>
<!-- Node41&#45;&gt;Node52 -->
<g id="edge47" class="edge">
<title>Node41&#45;&gt;Node52</title>
<path fill="none" stroke="midnightblue" d="M945.25,-181.55C978.96,-173.67 1036.49,-159.35 1084.67,-143 1086.59,-142.35 1088.55,-141.65 1090.51,-140.91"/>
<polygon fill="midnightblue" stroke="midnightblue" points="1092.2,-144.01 1100.22,-137.09 1089.64,-137.5 1092.2,-144.01"/>
</g>
<!-- Node42&#45;&gt;Node10 -->
<g id="edge37" class="edge">
<title>Node42&#45;&gt;Node10</title>
<path fill="none" stroke="midnightblue" d="M572.18,-117.98C543.16,-107.45 493.77,-89.53 461.94,-77.98"/>
<polygon fill="midnightblue" stroke="midnightblue" points="462.87,-74.6 452.28,-74.47 460.48,-81.18 462.87,-74.6"/>
</g>
<!-- Node43&#45;&gt;Node26 -->
<g id="edge39" class="edge">
<title>Node43&#45;&gt;Node26</title>
<path fill="none" stroke="midnightblue" d="M345.67,-117.98C343.67,-109.49 340.54,-96.2 337.98,-85.32"/>
<polygon fill="midnightblue" stroke="midnightblue" points="341.37,-84.44 335.67,-75.51 334.56,-86.04 341.37,-84.44"/>
</g>
<!-- Node46&#45;&gt;Node24 -->
<g id="edge41" class="edge">
<title>Node46&#45;&gt;Node24</title>
<path fill="none" stroke="midnightblue" d="M1008.33,-117.98C985.57,-107.95 947.58,-91.2 921.38,-79.65"/>
<polygon fill="midnightblue" stroke="midnightblue" points="922.54,-76.34 911.98,-75.51 919.72,-82.74 922.54,-76.34"/>
</g>
<!-- Node51&#45;&gt;Node24 -->
<g id="edge46" class="edge">
<title>Node51&#45;&gt;Node24</title>
<path fill="none" stroke="midnightblue" d="M818.99,-117.98C832.79,-108.43 855.37,-92.81 871.9,-81.37"/>
<polygon fill="midnightblue" stroke="midnightblue" points="874.14,-84.08 880.37,-75.51 870.16,-78.32 874.14,-84.08"/>
</g>
</g>
</svg>
