<?xml version="1.0" encoding="UTF-8" standalone="no"?>
<!DOCTYPE svg PUBLIC "-//W3C//DTD SVG 1.1//EN"
 "http://www.w3.org/Graphics/SVG/1.1/DTD/svg11.dtd">
<!-- Generated by graphviz version 2.43.0 (0)
 -->
<!-- Title: include/emlabcpp/protocol/converter.h Pages: 1 -->
<svg width="1559pt" height="285pt"
 viewBox="0.00 0.00 1558.50 285.00" xmlns="http://www.w3.org/2000/svg" xmlns:xlink="http://www.w3.org/1999/xlink">
<g id="graph0" class="graph" transform="scale(1 1) rotate(0) translate(4 281)">
<title>include/emlabcpp/protocol/converter.h</title>
<polygon fill="white" stroke="transparent" points="-4,4 -4,-281 1554.5,-281 1554.5,4 -4,4"/>
<!-- Node1 -->
<g id="node1" class="node">
<title>Node1</title>
<g id="a_node1"><a xlink:title=" ">
<polygon fill="#bfbfbf" stroke="black" points="954.5,-246.5 954.5,-276.5 1100.5,-276.5 1100.5,-246.5 954.5,-246.5"/>
<text text-anchor="start" x="962.5" y="-264.5" font-family="Helvetica,sans-Serif" font-size="10.00">include/emlabcpp/protocol</text>
<text text-anchor="middle" x="1027.5" y="-253.5" font-family="Helvetica,sans-Serif" font-size="10.00">/converter.h</text>
</a>
</g>
</g>
<!-- Node2 -->
<g id="node2" class="node">
<title>Node2</title>
<g id="a_node2"><a xlink:href="algorithm_8h.html" target="_top" xlink:title=" ">
<polygon fill="white" stroke="black" points="218.5,-129 218.5,-148 342.5,-148 342.5,-129 218.5,-129"/>
<text text-anchor="middle" x="280.5" y="-136" font-family="Helvetica,sans-Serif" font-size="10.00">emlabcpp/algorithm.h</text>
</a>
</g>
</g>
<!-- Node1&#45;&gt;Node2 -->
<g id="edge1" class="edge">
<title>Node1&#45;&gt;Node2</title>
<path fill="none" stroke="midnightblue" d="M954.29,-250.07C830.06,-232.13 570.13,-193.53 351.5,-154 344.76,-152.78 337.68,-151.43 330.71,-150.05"/>
<polygon fill="midnightblue" stroke="midnightblue" points="331.11,-146.56 320.62,-148.02 329.73,-153.42 331.11,-146.56"/>
</g>
<!-- Node41 -->
<g id="node12" class="node">
<title>Node41</title>
<g id="a_node12"><a xlink:href="assert_8h.html" target="_top" xlink:title=" ">
<polygon fill="white" stroke="black" points="1421,-190.5 1421,-209.5 1528,-209.5 1528,-190.5 1421,-190.5"/>
<text text-anchor="middle" x="1474.5" y="-197.5" font-family="Helvetica,sans-Serif" font-size="10.00">emlabcpp/assert.h</text>
</a>
</g>
</g>
<!-- Node1&#45;&gt;Node41 -->
<g id="edge14" class="edge">
<title>Node1&#45;&gt;Node41</title>
<path fill="none" stroke="midnightblue" d="M1100.81,-250.74C1187.12,-239.25 1329.04,-220.36 1410.9,-209.47"/>
<polygon fill="midnightblue" stroke="midnightblue" points="1411.37,-212.93 1420.82,-208.15 1410.45,-206 1411.37,-212.93"/>
</g>
<!-- Node43 -->
<g id="node14" class="node">
<title>Node43</title>
<g id="a_node14"><a xlink:href="serializer_8h.html" target="_top" xlink:title=" ">
<polygon fill="white" stroke="black" points="1139.5,-190.5 1139.5,-209.5 1303.5,-209.5 1303.5,-190.5 1139.5,-190.5"/>
<text text-anchor="middle" x="1221.5" y="-197.5" font-family="Helvetica,sans-Serif" font-size="10.00">emlabcpp/protocol/serializer.h</text>
</a>
</g>
</g>
<!-- Node1&#45;&gt;Node43 -->
<g id="edge16" class="edge">
<title>Node1&#45;&gt;Node43</title>
<path fill="none" stroke="midnightblue" d="M1073.48,-246.4C1107.14,-236.07 1152.28,-222.23 1183.82,-212.56"/>
<polygon fill="midnightblue" stroke="midnightblue" points="1185.02,-215.85 1193.55,-209.57 1182.97,-209.16 1185.02,-215.85"/>
</g>
<!-- Node52 -->
<g id="node21" class="node">
<title>Node52</title>
<g id="a_node21"><a xlink:href="traits_8h.html" target="_top" xlink:title=" ">
<polygon fill="white" stroke="black" points="755,-190.5 755,-209.5 900,-209.5 900,-190.5 755,-190.5"/>
<text text-anchor="middle" x="827.5" y="-197.5" font-family="Helvetica,sans-Serif" font-size="10.00">emlabcpp/protocol/traits.h</text>
</a>
</g>
</g>
<!-- Node1&#45;&gt;Node52 -->
<g id="edge28" class="edge">
<title>Node1&#45;&gt;Node52</title>
<path fill="none" stroke="midnightblue" d="M980.36,-246.47C945.4,-236.08 898.35,-222.08 865.73,-212.37"/>
<polygon fill="midnightblue" stroke="midnightblue" points="866.68,-209 856.09,-209.51 864.68,-215.71 866.68,-209"/>
</g>
<!-- Node3 -->
<g id="node3" class="node">
<title>Node3</title>
<g id="a_node3"><a xlink:href="impl_8h.html" target="_top" xlink:title=" ">
<polygon fill="white" stroke="black" points="257,-56.5 257,-86.5 372,-86.5 372,-56.5 257,-56.5"/>
<text text-anchor="start" x="265" y="-74.5" font-family="Helvetica,sans-Serif" font-size="10.00">emlabcpp/algorithm</text>
<text text-anchor="middle" x="314.5" y="-63.5" font-family="Helvetica,sans-Serif" font-size="10.00">/impl.h</text>
</a>
</g>
</g>
<!-- Node2&#45;&gt;Node3 -->
<g id="edge2" class="edge">
<title>Node2&#45;&gt;Node3</title>
<path fill="none" stroke="midnightblue" d="M285.09,-128.73C289.5,-120.29 296.38,-107.14 302.38,-95.68"/>
<polygon fill="midnightblue" stroke="midnightblue" points="305.6,-97.07 307.13,-86.59 299.39,-93.83 305.6,-97.07"/>
</g>
<!-- Node4 -->
<g id="node4" class="node">
<title>Node4</title>
<g id="a_node4"><a xlink:href="types_8h.html" target="_top" xlink:title=" ">
<polygon fill="white" stroke="red" points="400.5,-0.5 400.5,-19.5 504.5,-19.5 504.5,-0.5 400.5,-0.5"/>
<text text-anchor="middle" x="452.5" y="-7.5" font-family="Helvetica,sans-Serif" font-size="10.00">emlabcpp/types.h</text>
</a>
</g>
</g>
<!-- Node2&#45;&gt;Node4 -->
<g id="edge7" class="edge">
<title>Node2&#45;&gt;Node4</title>
<path fill="none" stroke="midnightblue" d="M302.81,-128.87C323.95,-120.1 356.01,-105.24 380.5,-87 403.62,-69.78 425.74,-44.72 439.21,-28.15"/>
<polygon fill="midnightblue" stroke="midnightblue" points="442.27,-29.92 445.76,-19.92 436.79,-25.56 442.27,-29.92"/>
</g>
<!-- Node10 -->
<g id="node5" class="node">
<title>Node10</title>
<g id="a_node5"><a xlink:title=" ">
<polygon fill="white" stroke="#bfbfbf" points="141,-0.5 141,-19.5 182,-19.5 182,-0.5 141,-0.5"/>
<text text-anchor="middle" x="161.5" y="-7.5" font-family="Helvetica,sans-Serif" font-size="10.00">tuple</text>
</a>
</g>
</g>
<!-- Node2&#45;&gt;Node10 -->
<g id="edge13" class="edge">
<title>Node2&#45;&gt;Node10</title>
<path fill="none" stroke="midnightblue" d="M247.98,-128.89C225.81,-121.38 197.5,-108.27 180.5,-87 167.4,-70.6 163.19,-46.34 161.91,-29.67"/>
<polygon fill="midnightblue" stroke="midnightblue" points="165.4,-29.34 161.42,-19.52 158.41,-29.68 165.4,-29.34"/>
</g>
<!-- Node17 -->
<g id="node6" class="node">
<title>Node17</title>
<g id="a_node6"><a xlink:href="bounded_8h.html" target="_top" xlink:title=" ">
<polygon fill="white" stroke="red" points="915,-62 915,-81 1034,-81 1034,-62 915,-62"/>
<text text-anchor="middle" x="974.5" y="-69" font-family="Helvetica,sans-Serif" font-size="10.00">emlabcpp/bounded.h</text>
</a>
</g>
</g>
<!-- Node2&#45;&gt;Node17 -->
<g id="edge5" class="edge">
<title>Node2&#45;&gt;Node17</title>
<path fill="none" stroke="midnightblue" d="M317.93,-128.93C328.72,-126.72 340.53,-124.53 351.5,-123 562.95,-93.58 617.83,-105.7 830.5,-87 854.7,-84.87 881.16,-82.28 904.73,-79.89"/>
<polygon fill="midnightblue" stroke="midnightblue" points="905.39,-83.34 914.98,-78.84 904.68,-76.37 905.39,-83.34"/>
</g>
<!-- Node27 -->
<g id="node8" class="node">
<title>Node27</title>
<g id="a_node8"><a xlink:href="view_8h.html" target="_top" xlink:title=" ">
<polygon fill="white" stroke="black" points="723,-62 723,-81 822,-81 822,-62 723,-62"/>
<text text-anchor="middle" x="772.5" y="-69" font-family="Helvetica,sans-Serif" font-size="10.00">emlabcpp/view.h</text>
</a>
</g>
</g>
<!-- Node2&#45;&gt;Node27 -->
<g id="edge8" class="edge">
<title>Node2&#45;&gt;Node27</title>
<path fill="none" stroke="midnightblue" d="M319.46,-128.94C329.84,-126.83 341.07,-124.69 351.5,-123 479.55,-102.28 630.79,-86.16 712.62,-78.12"/>
<polygon fill="midnightblue" stroke="midnightblue" points="713.12,-81.59 722.74,-77.13 712.44,-74.62 713.12,-81.59"/>
</g>
<!-- Node39 -->
<g id="node10" class="node">
<title>Node39</title>
<g id="a_node10"><a xlink:title=" ">
<polygon fill="white" stroke="#bfbfbf" points="429,-62 429,-81 476,-81 476,-62 429,-62"/>
<text text-anchor="middle" x="452.5" y="-69" font-family="Helvetica,sans-Serif" font-size="10.00">cmath</text>
</a>
</g>
</g>
<!-- Node2&#45;&gt;Node39 -->
<g id="edge11" class="edge">
<title>Node2&#45;&gt;Node39</title>
<path fill="none" stroke="midnightblue" d="M303.27,-128.95C329.94,-118.93 375.45,-101.81 414.5,-87 416.38,-86.29 418.32,-85.55 420.27,-84.81"/>
<polygon fill="midnightblue" stroke="midnightblue" points="421.9,-87.93 430,-81.1 419.41,-81.39 421.9,-87.93"/>
</g>
<!-- Node40 -->
<g id="node11" class="node">
<title>Node40</title>
<g id="a_node11"><a xlink:title=" ">
<polygon fill="white" stroke="#bfbfbf" points="190,-62 190,-81 239,-81 239,-62 190,-62"/>
<text text-anchor="middle" x="214.5" y="-69" font-family="Helvetica,sans-Serif" font-size="10.00">cstdlib</text>
</a>
</g>
</g>
<!-- Node2&#45;&gt;Node40 -->
<g id="edge12" class="edge">
<title>Node2&#45;&gt;Node40</title>
<path fill="none" stroke="midnightblue" d="M271.6,-128.73C261.11,-118.4 243.48,-101.04 230.58,-88.33"/>
<polygon fill="midnightblue" stroke="midnightblue" points="232.84,-85.65 223.26,-81.13 227.93,-90.64 232.84,-85.65"/>
</g>
<!-- Node3&#45;&gt;Node4 -->
<g id="edge3" class="edge">
<title>Node3&#45;&gt;Node4</title>
<path fill="none" stroke="midnightblue" d="M347.2,-56.4C370.25,-46.46 400.86,-33.26 423.13,-23.66"/>
<polygon fill="midnightblue" stroke="midnightblue" points="424.62,-26.83 432.42,-19.66 421.85,-20.4 424.62,-26.83"/>
</g>
<!-- Node3&#45;&gt;Node10 -->
<g id="edge4" class="edge">
<title>Node3&#45;&gt;Node10</title>
<path fill="none" stroke="midnightblue" d="M278.24,-56.4C251.83,-46.13 216.48,-32.38 191.63,-22.72"/>
<polygon fill="midnightblue" stroke="midnightblue" points="192.59,-19.33 182,-18.97 190.05,-25.86 192.59,-19.33"/>
</g>
<!-- Node34 -->
<g id="node7" class="node">
<title>Node34</title>
<g id="a_node7"><a xlink:title=" ">
<polygon fill="white" stroke="#bfbfbf" points="900.5,-0.5 900.5,-19.5 956.5,-19.5 956.5,-0.5 900.5,-0.5"/>
<text text-anchor="middle" x="928.5" y="-7.5" font-family="Helvetica,sans-Serif" font-size="10.00">optional</text>
</a>
</g>
</g>
<!-- Node17&#45;&gt;Node34 -->
<g id="edge6" class="edge">
<title>Node17&#45;&gt;Node34</title>
<path fill="none" stroke="midnightblue" d="M967.91,-61.98C961.01,-53.05 950,-38.81 941.37,-27.64"/>
<polygon fill="midnightblue" stroke="midnightblue" points="943.96,-25.28 935.08,-19.51 938.43,-29.56 943.96,-25.28"/>
</g>
<!-- Node27&#45;&gt;Node4 -->
<g id="edge9" class="edge">
<title>Node27&#45;&gt;Node4</title>
<path fill="none" stroke="midnightblue" d="M726.65,-61.98C669.03,-51.26 570.19,-32.88 508.25,-21.37"/>
<polygon fill="midnightblue" stroke="midnightblue" points="508.73,-17.9 498.26,-19.51 507.45,-24.78 508.73,-17.9"/>
</g>
<!-- Node28 -->
<g id="node9" class="node">
<title>Node28</title>
<g id="a_node9"><a xlink:title=" ">
<polygon fill="white" stroke="#bfbfbf" points="1235.5,-0.5 1235.5,-19.5 1275.5,-19.5 1275.5,-0.5 1235.5,-0.5"/>
<text text-anchor="middle" x="1255.5" y="-7.5" font-family="Helvetica,sans-Serif" font-size="10.00">span</text>
</a>
</g>
</g>
<!-- Node27&#45;&gt;Node28 -->
<g id="edge10" class="edge">
<title>Node27&#45;&gt;Node28</title>
<path fill="none" stroke="midnightblue" d="M822.37,-64.36C922.25,-52.05 1144.18,-24.71 1225.17,-14.74"/>
<polygon fill="midnightblue" stroke="midnightblue" points="1225.7,-18.2 1235.2,-13.5 1224.85,-11.25 1225.7,-18.2"/>
</g>
<!-- Node42 -->
<g id="node13" class="node">
<title>Node42</title>
<g id="a_node13"><a xlink:title=" ">
<polygon fill="white" stroke="#bfbfbf" points="1498.5,-129 1498.5,-148 1550.5,-148 1550.5,-129 1498.5,-129"/>
<text text-anchor="middle" x="1524.5" y="-136" font-family="Helvetica,sans-Serif" font-size="10.00">cassert</text>
</a>
</g>
</g>
<!-- Node41&#45;&gt;Node42 -->
<g id="edge15" class="edge">
<title>Node41&#45;&gt;Node42</title>
<path fill="none" stroke="midnightblue" d="M1481.66,-190.48C1489.24,-181.46 1501.37,-167.02 1510.79,-155.81"/>
<polygon fill="midnightblue" stroke="midnightblue" points="1513.6,-157.92 1517.35,-148.01 1508.24,-153.41 1513.6,-157.92"/>
</g>
<!-- Node43&#45;&gt;Node28 -->
<g id="edge27" class="edge">
<title>Node43&#45;&gt;Node28</title>
<path fill="none" stroke="midnightblue" d="M1303.69,-191.71C1354.73,-185.28 1413.55,-173.77 1429.5,-154 1454.29,-123.28 1401.9,-62.25 1394.5,-56 1363.3,-29.65 1316.36,-18.64 1285.82,-14.11"/>
<polygon fill="midnightblue" stroke="midnightblue" points="1286.13,-10.62 1275.75,-12.75 1285.2,-17.55 1286.13,-10.62"/>
</g>
<!-- Node44 -->
<g id="node15" class="node">
<title>Node44</title>
<g id="a_node15"><a xlink:href="bounded__view_8h.html" target="_top" xlink:title=" ">
<polygon fill="white" stroke="black" points="911,-123.5 911,-153.5 1044,-153.5 1044,-123.5 911,-123.5"/>
<text text-anchor="start" x="919" y="-141.5" font-family="Helvetica,sans-Serif" font-size="10.00">emlabcpp/experimental</text>
<text text-anchor="middle" x="977.5" y="-130.5" font-family="Helvetica,sans-Serif" font-size="10.00">/bounded_view.h</text>
</a>
</g>
</g>
<!-- Node43&#45;&gt;Node44 -->
<g id="edge17" class="edge">
<title>Node43&#45;&gt;Node44</title>
<path fill="none" stroke="midnightblue" d="M1186.54,-190.48C1149.71,-181.49 1090.8,-167.13 1044.89,-155.93"/>
<polygon fill="midnightblue" stroke="midnightblue" points="1045.55,-152.49 1035.01,-153.52 1043.89,-159.29 1045.55,-152.49"/>
</g>
<!-- Node45 -->
<g id="node16" class="node">
<title>Node45</title>
<g id="a_node16"><a xlink:href="protocol_2base_8h.html" target="_top" xlink:title=" ">
<polygon fill="white" stroke="red" points="1101,-129 1101,-148 1244,-148 1244,-129 1101,-129"/>
<text text-anchor="middle" x="1172.5" y="-136" font-family="Helvetica,sans-Serif" font-size="10.00">emlabcpp/protocol/base.h</text>
</a>
</g>
</g>
<!-- Node43&#45;&gt;Node45 -->
<g id="edge20" class="edge">
<title>Node43&#45;&gt;Node45</title>
<path fill="none" stroke="midnightblue" d="M1214.48,-190.48C1207.06,-181.46 1195.17,-167.02 1185.93,-155.81"/>
<polygon fill="midnightblue" stroke="midnightblue" points="1188.57,-153.5 1179.51,-148.01 1183.16,-157.95 1188.57,-153.5"/>
</g>
<!-- Node50 -->
<g id="node18" class="node">
<title>Node50</title>
<g id="a_node18"><a xlink:title=" ">
<polygon fill="white" stroke="#bfbfbf" points="1356,-62 1356,-81 1385,-81 1385,-62 1356,-62"/>
<text text-anchor="middle" x="1370.5" y="-69" font-family="Helvetica,sans-Serif" font-size="10.00">bit</text>
</a>
</g>
</g>
<!-- Node43&#45;&gt;Node50 -->
<g id="edge26" class="edge">
<title>Node43&#45;&gt;Node50</title>
<path fill="none" stroke="midnightblue" d="M1300.01,-190.48C1346.54,-183.63 1399.14,-172.11 1413.5,-154 1429.87,-133.34 1407.36,-105.52 1389.23,-88.31"/>
<polygon fill="midnightblue" stroke="midnightblue" points="1391.13,-85.31 1381.37,-81.21 1386.45,-90.51 1391.13,-85.31"/>
</g>
<!-- Node24 -->
<g id="node20" class="node">
<title>Node24</title>
<g id="a_node20"><a xlink:href="range_8h.html" target="_top" xlink:title=" ">
<polygon fill="white" stroke="red" points="1300.5,-129 1300.5,-148 1404.5,-148 1404.5,-129 1300.5,-129"/>
<text text-anchor="middle" x="1352.5" y="-136" font-family="Helvetica,sans-Serif" font-size="10.00">emlabcpp/range.h</text>
</a>
</g>
</g>
<!-- Node43&#45;&gt;Node24 -->
<g id="edge25" class="edge">
<title>Node43&#45;&gt;Node24</title>
<path fill="none" stroke="midnightblue" d="M1240.27,-190.48C1262.35,-180.45 1299.22,-163.7 1324.64,-152.15"/>
<polygon fill="midnightblue" stroke="midnightblue" points="1326.11,-155.33 1333.77,-148.01 1323.21,-148.96 1326.11,-155.33"/>
</g>
<!-- Node44&#45;&gt;Node17 -->
<g id="edge18" class="edge">
<title>Node44&#45;&gt;Node17</title>
<path fill="none" stroke="midnightblue" d="M976.85,-123.4C976.41,-113.96 975.84,-101.45 975.36,-91.19"/>
<polygon fill="midnightblue" stroke="midnightblue" points="978.86,-91.02 974.9,-81.19 971.87,-91.35 978.86,-91.02"/>
</g>
<!-- Node44&#45;&gt;Node27 -->
<g id="edge19" class="edge">
<title>Node44&#45;&gt;Node27</title>
<path fill="none" stroke="midnightblue" d="M933.27,-123.48C896.2,-111.72 843.91,-95.14 809.15,-84.12"/>
<polygon fill="midnightblue" stroke="midnightblue" points="809.99,-80.71 799.4,-81.03 807.87,-87.39 809.99,-80.71"/>
</g>
<!-- Node45&#45;&gt;Node17 -->
<g id="edge21" class="edge">
<title>Node45&#45;&gt;Node17</title>
<path fill="none" stroke="midnightblue" d="M1146.21,-128.87C1111.27,-117.4 1049.42,-97.09 1010.26,-84.24"/>
<polygon fill="midnightblue" stroke="midnightblue" points="1011.18,-80.86 1000.59,-81.06 1009,-87.51 1011.18,-80.86"/>
</g>
<!-- Node46 -->
<g id="node17" class="node">
<title>Node46</title>
<g id="a_node17"><a xlink:href="protocol_2error_8h.html" target="_top" xlink:title=" ">
<polygon fill="white" stroke="red" points="1061.5,-62 1061.5,-81 1203.5,-81 1203.5,-62 1061.5,-62"/>
<text text-anchor="middle" x="1132.5" y="-69" font-family="Helvetica,sans-Serif" font-size="10.00">emlabcpp/protocol/error.h</text>
</a>
</g>
</g>
<!-- Node45&#45;&gt;Node46 -->
<g id="edge22" class="edge">
<title>Node45&#45;&gt;Node46</title>
<path fill="none" stroke="midnightblue" d="M1167.11,-128.73C1160.99,-118.79 1150.86,-102.34 1143.14,-89.79"/>
<polygon fill="midnightblue" stroke="midnightblue" points="1146.03,-87.81 1137.81,-81.13 1140.07,-91.48 1146.03,-87.81"/>
</g>
<!-- Node45&#45;&gt;Node50 -->
<g id="edge23" class="edge">
<title>Node45&#45;&gt;Node50</title>
<path fill="none" stroke="midnightblue" d="M1198.79,-128.87C1237.45,-116.18 1309.06,-92.67 1346.41,-80.41"/>
<polygon fill="midnightblue" stroke="midnightblue" points="1347.58,-83.71 1355.98,-77.27 1345.39,-77.06 1347.58,-83.71"/>
</g>
<!-- Node15 -->
<g id="node19" class="node">
<title>Node15</title>
<g id="a_node19"><a xlink:title=" ">
<polygon fill="white" stroke="#bfbfbf" points="1230,-62 1230,-81 1281,-81 1281,-62 1230,-62"/>
<text text-anchor="middle" x="1255.5" y="-69" font-family="Helvetica,sans-Serif" font-size="10.00">variant</text>
</a>
</g>
</g>
<!-- Node45&#45;&gt;Node15 -->
<g id="edge24" class="edge">
<title>Node45&#45;&gt;Node15</title>
<path fill="none" stroke="midnightblue" d="M1183.69,-128.73C1197.13,-118.21 1219.9,-100.38 1236.2,-87.62"/>
<polygon fill="midnightblue" stroke="midnightblue" points="1238.77,-90.05 1244.48,-81.13 1234.45,-84.54 1238.77,-90.05"/>
</g>
<!-- Node52&#45;&gt;Node4 -->
<g id="edge38" class="edge">
<title>Node52&#45;&gt;Node4</title>
<path fill="none" stroke="midnightblue" d="M754.78,-196.45C676.45,-192.31 558.33,-181.56 523.5,-154 486.74,-124.91 506.91,-97.17 484.5,-56 479.12,-46.11 471.93,-35.81 465.74,-27.57"/>
<polygon fill="midnightblue" stroke="midnightblue" points="468.42,-25.32 459.53,-19.55 462.88,-29.61 468.42,-25.32"/>
</g>
<!-- Node52&#45;&gt;Node34 -->
<g id="edge39" class="edge">
<title>Node52&#45;&gt;Node34</title>
<path fill="none" stroke="midnightblue" d="M835.72,-190.23C843.57,-181.52 855.38,-167.56 863.5,-154 887.86,-113.35 885.37,-98.9 905.5,-56 909.79,-46.85 914.88,-36.83 919.17,-28.57"/>
<polygon fill="midnightblue" stroke="midnightblue" points="922.36,-30.02 923.92,-19.54 916.17,-26.77 922.36,-30.02"/>
</g>
<!-- Node52&#45;&gt;Node45 -->
<g id="edge31" class="edge">
<title>Node52&#45;&gt;Node45</title>
<path fill="none" stroke="midnightblue" d="M876.93,-190.48C939.31,-179.72 1046.5,-161.23 1113.22,-149.72"/>
<polygon fill="midnightblue" stroke="midnightblue" points="1113.9,-153.16 1123.16,-148.01 1112.71,-146.26 1113.9,-153.16"/>
</g>
<!-- Node52&#45;&gt;Node46 -->
<g id="edge32" class="edge">
<title>Node52&#45;&gt;Node46</title>
<path fill="none" stroke="midnightblue" d="M900.11,-195.39C946.11,-190.54 1005.55,-179.41 1052.5,-154 1067.89,-145.67 1100.11,-110.06 1118.62,-88.77"/>
<polygon fill="midnightblue" stroke="midnightblue" points="1121.31,-91 1125.19,-81.14 1116.01,-86.43 1121.31,-91"/>
</g>
<!-- Node52&#45;&gt;Node15 -->
<g id="edge40" class="edge">
<title>Node52&#45;&gt;Node15</title>
<path fill="none" stroke="midnightblue" d="M900.38,-196.45C1015.8,-191.66 1230.05,-179.42 1253.5,-154 1268.91,-137.29 1265.77,-109.48 1261.3,-91.06"/>
<polygon fill="midnightblue" stroke="midnightblue" points="1264.61,-89.93 1258.56,-81.23 1257.87,-91.8 1264.61,-89.93"/>
</g>
<!-- Node21 -->
<g id="node22" class="node">
<title>Node21</title>
<g id="a_node22"><a xlink:href="decompose_8h.html" target="_top" xlink:title=" ">
<polygon fill="white" stroke="red" points="0,-56.5 0,-86.5 133,-86.5 133,-56.5 0,-56.5"/>
<text text-anchor="start" x="8" y="-74.5" font-family="Helvetica,sans-Serif" font-size="10.00">emlabcpp/experimental</text>
<text text-anchor="middle" x="66.5" y="-63.5" font-family="Helvetica,sans-Serif" font-size="10.00">/decompose.h</text>
</a>
</g>
</g>
<!-- Node52&#45;&gt;Node21 -->
<g id="edge29" class="edge">
<title>Node52&#45;&gt;Node21</title>
<path fill="none" stroke="midnightblue" d="M754.97,-197.73C614.33,-194.61 309.59,-184.45 209.5,-154 165.84,-140.72 121,-112.28 93.44,-92.78"/>
<polygon fill="midnightblue" stroke="midnightblue" points="95.28,-89.79 85.12,-86.79 91.19,-95.47 95.28,-89.79"/>
</g>
<!-- Node53 -->
<g id="node23" class="node">
<title>Node53</title>
<g id="a_node23"><a xlink:href="message_8h.html" target="_top" xlink:title=" ">
<polygon fill="white" stroke="red" points="690.5,-129 690.5,-148 854.5,-148 854.5,-129 690.5,-129"/>
<text text-anchor="middle" x="772.5" y="-136" font-family="Helvetica,sans-Serif" font-size="10.00">emlabcpp/protocol/message.h</text>
</a>
</g>
</g>
<!-- Node52&#45;&gt;Node53 -->
<g id="edge33" class="edge">
<title>Node52&#45;&gt;Node53</title>
<path fill="none" stroke="midnightblue" d="M819.62,-190.48C811.21,-181.37 797.68,-166.74 787.27,-155.48"/>
<polygon fill="midnightblue" stroke="midnightblue" points="789.72,-152.98 780.37,-148.01 784.58,-157.73 789.72,-152.98"/>
</g>
<!-- Node54 -->
<g id="node24" class="node">
<title>Node54</title>
<g id="a_node24"><a xlink:href="quantity_8h.html" target="_top" xlink:title=" ">
<polygon fill="white" stroke="red" points="360.5,-129 360.5,-148 476.5,-148 476.5,-129 360.5,-129"/>
<text text-anchor="middle" x="418.5" y="-136" font-family="Helvetica,sans-Serif" font-size="10.00">emlabcpp/quantity.h</text>
</a>
</g>
</g>
<!-- Node52&#45;&gt;Node54 -->
<g id="edge35" class="edge">
<title>Node52&#45;&gt;Node54</title>
<path fill="none" stroke="midnightblue" d="M754.98,-190.72C686.59,-182.58 581.32,-169.19 490.5,-154 483.32,-152.8 475.77,-151.41 468.36,-149.99"/>
<polygon fill="midnightblue" stroke="midnightblue" points="468.89,-146.52 458.4,-148.02 467.54,-153.39 468.89,-146.52"/>
</g>
<!-- Node58 -->
<g id="node25" class="node">
<title>Node58</title>
<g id="a_node25"><a xlink:href="static__vector_8h.html" target="_top" xlink:title=" ">
<polygon fill="white" stroke="red" points="533,-129 533,-148 672,-148 672,-129 533,-129"/>
<text text-anchor="middle" x="602.5" y="-136" font-family="Helvetica,sans-Serif" font-size="10.00">emlabcpp/static_vector.h</text>
</a>
</g>
</g>
<!-- Node52&#45;&gt;Node58 -->
<g id="edge37" class="edge">
<title>Node52&#45;&gt;Node58</title>
<path fill="none" stroke="midnightblue" d="M795.26,-190.48C755.58,-179.98 688.1,-162.14 644.43,-150.59"/>
<polygon fill="midnightblue" stroke="midnightblue" points="645.24,-147.18 634.68,-148.01 643.45,-153.95 645.24,-147.18"/>
</g>
<!-- Node21&#45;&gt;Node10 -->
<g id="edge30" class="edge">
<title>Node21&#45;&gt;Node10</title>
<path fill="none" stroke="midnightblue" d="M89.01,-56.4C104.1,-46.95 123.89,-34.56 138.97,-25.11"/>
<polygon fill="midnightblue" stroke="midnightblue" points="141.06,-27.93 147.68,-19.66 137.34,-22 141.06,-27.93"/>
</g>
<!-- Node53&#45;&gt;Node27 -->
<g id="edge34" class="edge">
<title>Node53&#45;&gt;Node27</title>
<path fill="none" stroke="midnightblue" d="M772.5,-128.73C772.5,-119.18 772.5,-103.62 772.5,-91.28"/>
<polygon fill="midnightblue" stroke="midnightblue" points="776,-91.13 772.5,-81.13 769,-91.13 776,-91.13"/>
</g>
<!-- Node54&#45;&gt;Node39 -->
<g id="edge36" class="edge">
<title>Node54&#45;&gt;Node39</title>
<path fill="none" stroke="midnightblue" d="M423.09,-128.73C428.23,-118.89 436.72,-102.66 443.26,-90.16"/>
<polygon fill="midnightblue" stroke="midnightblue" points="446.45,-91.61 447.99,-81.13 440.25,-88.37 446.45,-91.61"/>
</g>
</g>
</svg>
