<?xml version="1.0" encoding="UTF-8" standalone="no"?>
<!DOCTYPE svg PUBLIC "-//W3C//DTD SVG 1.1//EN"
 "http://www.w3.org/Graphics/SVG/1.1/DTD/svg11.dtd">
<!-- Generated by graphviz version 2.43.0 (0)
 -->
<!-- Title: include/emlabcpp/experimental/testing/coroutine.h Pages: 1 -->
<svg width="629pt" height="184pt"
 viewBox="0.00 0.00 628.50 184.00" xmlns="http://www.w3.org/2000/svg" xmlns:xlink="http://www.w3.org/1999/xlink">
<g id="graph0" class="graph" transform="scale(1 1) rotate(0) translate(4 180)">
<title>include/emlabcpp/experimental/testing/coroutine.h</title>
<polygon fill="white" stroke="transparent" points="-4,4 -4,-180 624.5,-180 624.5,4 -4,4"/>
<!-- Node1 -->
<g id="node1" class="node">
<title>Node1</title>
<g id="a_node1"><a xlink:title=" ">
<polygon fill="#bfbfbf" stroke="black" points="360,-145.5 360,-175.5 531,-175.5 531,-145.5 360,-145.5"/>
<text text-anchor="start" x="368" y="-163.5" font-family="Helvetica,sans-Serif" font-size="10.00">include/emlabcpp/experimental</text>
<text text-anchor="middle" x="445.5" y="-152.5" font-family="Helvetica,sans-Serif" font-size="10.00">/testing/coroutine.h</text>
</a>
</g>
</g>
<!-- Node2 -->
<g id="node2" class="node">
<title>Node2</title>
<g id="a_node2"><a xlink:href="data__promise_8h.html" target="_top" xlink:title=" ">
<polygon fill="white" stroke="black" points="304,-73 304,-103 437,-103 437,-73 304,-73"/>
<text text-anchor="start" x="312" y="-91" font-family="Helvetica,sans-Serif" font-size="10.00">emlabcpp/experimental</text>
<text text-anchor="middle" x="370.5" y="-80" font-family="Helvetica,sans-Serif" font-size="10.00">/coro/data_promise.h</text>
</a>
</g>
</g>
<!-- Node1&#45;&gt;Node2 -->
<g id="edge1" class="edge">
<title>Node1&#45;&gt;Node2</title>
<path fill="none" stroke="midnightblue" d="M430.32,-145.23C419.58,-135.13 404.99,-121.42 392.91,-110.07"/>
<polygon fill="midnightblue" stroke="midnightblue" points="395.08,-107.3 385.4,-103 390.29,-112.4 395.08,-107.3"/>
</g>
<!-- Node4 -->
<g id="node4" class="node">
<title>Node4</title>
<g id="a_node4"><a xlink:href="memory__promise_8h.html" target="_top" xlink:title=" ">
<polygon fill="white" stroke="black" points="147,-73 147,-103 286,-103 286,-73 147,-73"/>
<text text-anchor="start" x="155" y="-91" font-family="Helvetica,sans-Serif" font-size="10.00">emlabcpp/experimental</text>
<text text-anchor="middle" x="216.5" y="-80" font-family="Helvetica,sans-Serif" font-size="10.00">/coro/memory_promise.h</text>
</a>
</g>
</g>
<!-- Node1&#45;&gt;Node4 -->
<g id="edge3" class="edge">
<title>Node1&#45;&gt;Node4</title>
<path fill="none" stroke="midnightblue" d="M399.98,-145.49C363.19,-134.16 311.24,-118.17 272.01,-106.09"/>
<polygon fill="midnightblue" stroke="midnightblue" points="272.91,-102.7 262.32,-103.11 270.85,-109.39 272.91,-102.7"/>
</g>
<!-- Node50 -->
<g id="node8" class="node">
<title>Node50</title>
<g id="a_node8"><a xlink:href="owning__coroutine__handle_8h.html" target="_top" xlink:title=" ">
<polygon fill="white" stroke="black" points="455,-67.5 455,-108.5 588,-108.5 588,-67.5 455,-67.5"/>
<text text-anchor="start" x="463" y="-96.5" font-family="Helvetica,sans-Serif" font-size="10.00">emlabcpp/experimental</text>
<text text-anchor="start" x="463" y="-85.5" font-family="Helvetica,sans-Serif" font-size="10.00">/coro/owning_coroutine</text>
<text text-anchor="middle" x="521.5" y="-74.5" font-family="Helvetica,sans-Serif" font-size="10.00">_handle.h</text>
</a>
</g>
</g>
<!-- Node1&#45;&gt;Node50 -->
<g id="edge7" class="edge">
<title>Node1&#45;&gt;Node50</title>
<path fill="none" stroke="midnightblue" d="M460.88,-145.23C470.02,-136.75 481.92,-125.72 492.74,-115.68"/>
<polygon fill="midnightblue" stroke="midnightblue" points="495.43,-117.96 500.38,-108.59 490.67,-112.82 495.43,-117.96"/>
</g>
<!-- Node51 -->
<g id="node9" class="node">
<title>Node51</title>
<g id="a_node9"><a xlink:title=" ">
<polygon fill="white" stroke="#bfbfbf" points="558.5,-6 558.5,-25 620.5,-25 620.5,-6 558.5,-6"/>
<text text-anchor="middle" x="589.5" y="-13" font-family="Helvetica,sans-Serif" font-size="10.00">coroutine</text>
</a>
</g>
</g>
<!-- Node1&#45;&gt;Node51 -->
<g id="edge10" class="edge">
<title>Node1&#45;&gt;Node51</title>
<path fill="none" stroke="midnightblue" d="M531.34,-149.99C556.41,-142.76 581.16,-130.31 596.5,-109 612.13,-87.29 604.53,-54.8 597.26,-34.66"/>
<polygon fill="midnightblue" stroke="midnightblue" points="600.43,-33.16 593.51,-25.14 593.92,-35.73 600.43,-33.16"/>
</g>
<!-- Node3 -->
<g id="node3" class="node">
<title>Node3</title>
<g id="a_node3"><a xlink:title=" ">
<polygon fill="white" stroke="#bfbfbf" points="468,-6 468,-25 513,-25 513,-6 468,-6"/>
<text text-anchor="middle" x="490.5" y="-13" font-family="Helvetica,sans-Serif" font-size="10.00">utility</text>
</a>
</g>
</g>
<!-- Node2&#45;&gt;Node3 -->
<g id="edge2" class="edge">
<title>Node2&#45;&gt;Node3</title>
<path fill="none" stroke="midnightblue" d="M394.5,-72.9C415.61,-60.5 446.17,-42.55 467.1,-30.25"/>
<polygon fill="midnightblue" stroke="midnightblue" points="469.13,-33.12 475.97,-25.03 465.58,-27.08 469.13,-33.12"/>
</g>
<!-- Node5 -->
<g id="node5" class="node">
<title>Node5</title>
<g id="a_node5"><a xlink:href="logging_8h.html" target="_top" xlink:title=" ">
<polygon fill="white" stroke="red" points="0,-0.5 0,-30.5 133,-30.5 133,-0.5 0,-0.5"/>
<text text-anchor="start" x="8" y="-18.5" font-family="Helvetica,sans-Serif" font-size="10.00">emlabcpp/experimental</text>
<text text-anchor="middle" x="66.5" y="-7.5" font-family="Helvetica,sans-Serif" font-size="10.00">/logging.h</text>
</a>
</g>
</g>
<!-- Node4&#45;&gt;Node5 -->
<g id="edge4" class="edge">
<title>Node4&#45;&gt;Node5</title>
<path fill="none" stroke="midnightblue" d="M186.51,-72.9C163.31,-62 130.99,-46.81 105.74,-34.94"/>
<polygon fill="midnightblue" stroke="midnightblue" points="106.98,-31.66 96.44,-30.57 104,-37.99 106.98,-31.66"/>
</g>
<!-- Node7 -->
<g id="node6" class="node">
<title>Node7</title>
<g id="a_node6"><a xlink:href="memory__resource_8h.html" target="_top" xlink:title=" ">
<polygon fill="white" stroke="red" points="151,-0.5 151,-30.5 282,-30.5 282,-0.5 151,-0.5"/>
<text text-anchor="start" x="159" y="-18.5" font-family="Helvetica,sans-Serif" font-size="10.00">emlabcpp/pmr/memory</text>
<text text-anchor="middle" x="216.5" y="-7.5" font-family="Helvetica,sans-Serif" font-size="10.00">_resource.h</text>
</a>
</g>
</g>
<!-- Node4&#45;&gt;Node7 -->
<g id="edge5" class="edge">
<title>Node4&#45;&gt;Node7</title>
<path fill="none" stroke="midnightblue" d="M216.5,-72.73C216.5,-63.66 216.5,-51.66 216.5,-41.08"/>
<polygon fill="midnightblue" stroke="midnightblue" points="220,-40.75 216.5,-30.75 213,-40.75 220,-40.75"/>
</g>
<!-- Node48 -->
<g id="node7" class="node">
<title>Node48</title>
<g id="a_node7"><a xlink:href="throw__bad__alloc_8h.html" target="_top" xlink:title=" ">
<polygon fill="white" stroke="red" points="300.5,-0.5 300.5,-30.5 418.5,-30.5 418.5,-0.5 300.5,-0.5"/>
<text text-anchor="start" x="308.5" y="-18.5" font-family="Helvetica,sans-Serif" font-size="10.00">emlabcpp/pmr/throw</text>
<text text-anchor="middle" x="359.5" y="-7.5" font-family="Helvetica,sans-Serif" font-size="10.00">_bad_alloc.h</text>
</a>
</g>
</g>
<!-- Node4&#45;&gt;Node48 -->
<g id="edge6" class="edge">
<title>Node4&#45;&gt;Node48</title>
<path fill="none" stroke="midnightblue" d="M245.09,-72.9C267.11,-62.05 297.74,-46.95 321.77,-35.1"/>
<polygon fill="midnightblue" stroke="midnightblue" points="323.53,-38.13 330.96,-30.57 320.44,-31.86 323.53,-38.13"/>
</g>
<!-- Node50&#45;&gt;Node3 -->
<g id="edge9" class="edge">
<title>Node50&#45;&gt;Node3</title>
<path fill="none" stroke="midnightblue" d="M512.86,-67.36C508.34,-57.08 502.85,-44.58 498.43,-34.54"/>
<polygon fill="midnightblue" stroke="midnightblue" points="501.54,-32.92 494.31,-25.17 495.14,-35.74 501.54,-32.92"/>
</g>
<!-- Node50&#45;&gt;Node51 -->
<g id="edge8" class="edge">
<title>Node50&#45;&gt;Node51</title>
<path fill="none" stroke="midnightblue" d="M540.44,-67.36C550.98,-56.43 563.95,-42.99 573.9,-32.67"/>
<polygon fill="midnightblue" stroke="midnightblue" points="576.71,-34.8 581.13,-25.17 571.67,-29.94 576.71,-34.8"/>
</g>
</g>
</svg>
