<?xml version="1.0" encoding="UTF-8" standalone="no"?>
<!DOCTYPE svg PUBLIC "-//W3C//DTD SVG 1.1//EN"
 "http://www.w3.org/Graphics/SVG/1.1/DTD/svg11.dtd">
<!-- Generated by graphviz version 2.43.0 (0)
 -->
<!-- Title: include/emlabcpp/experimental/testing/coroutine.h Pages: 1 -->
<svg width="494pt" height="173pt"
 viewBox="0.00 0.00 493.50 173.00" xmlns="http://www.w3.org/2000/svg" xmlns:xlink="http://www.w3.org/1999/xlink">
<g id="graph0" class="graph" transform="scale(1 1) rotate(0) translate(4 169)">
<title>include/emlabcpp/experimental/testing/coroutine.h</title>
<polygon fill="white" stroke="transparent" points="-4,4 -4,-169 489.5,-169 489.5,4 -4,4"/>
<!-- Node1 -->
<g id="node1" class="node">
<title>Node1</title>
<g id="a_node1"><a xlink:title=" ">
<polygon fill="#bfbfbf" stroke="black" points="226,-134.5 226,-164.5 397,-164.5 397,-134.5 226,-134.5"/>
<text text-anchor="start" x="234" y="-152.5" font-family="Helvetica,sans-Serif" font-size="10.00">include/emlabcpp/experimental</text>
<text text-anchor="middle" x="311.5" y="-141.5" font-family="Helvetica,sans-Serif" font-size="10.00">/testing/coroutine.h</text>
</a>
</g>
</g>
<!-- Node2 -->
<g id="node2" class="node">
<title>Node2</title>
<g id="a_node2"><a xlink:href="data__promise_8h.html" target="_top" xlink:title=" ">
<polygon fill="white" stroke="black" points="175,-73 175,-92 300,-92 300,-73 175,-73"/>
<text text-anchor="middle" x="237.5" y="-80" font-family="Helvetica,sans-Serif" font-size="10.00">../coro/data_promise.h</text>
</a>
</g>
</g>
<!-- Node1&#45;&gt;Node2 -->
<g id="edge1" class="edge">
<title>Node1&#45;&gt;Node2</title>
<path fill="none" stroke="midnightblue" d="M295.44,-134.4C283.56,-123.96 267.39,-109.75 255.14,-99"/>
<polygon fill="midnightblue" stroke="midnightblue" points="257.22,-96.16 247.4,-92.19 252.6,-101.42 257.22,-96.16"/>
</g>
<!-- Node4 -->
<g id="node4" class="node">
<title>Node4</title>
<g id="a_node4"><a xlink:href="memory__promise_8h.html" target="_top" xlink:title=" ">
<polygon fill="white" stroke="black" points="12,-73 12,-92 157,-92 157,-73 12,-73"/>
<text text-anchor="middle" x="84.5" y="-80" font-family="Helvetica,sans-Serif" font-size="10.00">../coro/memory_promise.h</text>
</a>
</g>
</g>
<!-- Node1&#45;&gt;Node4 -->
<g id="edge3" class="edge">
<title>Node1&#45;&gt;Node4</title>
<path fill="none" stroke="midnightblue" d="M262.52,-134.48C221.13,-122.62 162.58,-105.86 124.1,-94.84"/>
<polygon fill="midnightblue" stroke="midnightblue" points="124.86,-91.42 114.28,-92.03 122.93,-98.15 124.86,-91.42"/>
</g>
<!-- Node37 -->
<g id="node7" class="node">
<title>Node37</title>
<g id="a_node7"><a xlink:href="owning__coroutine__handle_8h.html" target="_top" xlink:title=" ">
<polygon fill="white" stroke="black" points="318.5,-67.5 318.5,-97.5 454.5,-97.5 454.5,-67.5 318.5,-67.5"/>
<text text-anchor="start" x="326.5" y="-85.5" font-family="Helvetica,sans-Serif" font-size="10.00">../coro/owning_coroutine</text>
<text text-anchor="middle" x="386.5" y="-74.5" font-family="Helvetica,sans-Serif" font-size="10.00">_handle.h</text>
</a>
</g>
</g>
<!-- Node1&#45;&gt;Node37 -->
<g id="edge6" class="edge">
<title>Node1&#45;&gt;Node37</title>
<path fill="none" stroke="midnightblue" d="M327.77,-134.4C337.9,-125.62 351.1,-114.18 362.42,-104.37"/>
<polygon fill="midnightblue" stroke="midnightblue" points="364.99,-106.77 370.26,-97.58 360.41,-101.48 364.99,-106.77"/>
</g>
<!-- Node38 -->
<g id="node8" class="node">
<title>Node38</title>
<g id="a_node8"><a xlink:title=" ">
<polygon fill="white" stroke="#bfbfbf" points="423.5,-6 423.5,-25 485.5,-25 485.5,-6 423.5,-6"/>
<text text-anchor="middle" x="454.5" y="-13" font-family="Helvetica,sans-Serif" font-size="10.00">coroutine</text>
</a>
</g>
</g>
<!-- Node1&#45;&gt;Node38 -->
<g id="edge9" class="edge">
<title>Node1&#45;&gt;Node38</title>
<path fill="none" stroke="midnightblue" d="M397.1,-139.35C422.6,-132.16 447.88,-119.65 463.5,-98 476.87,-79.47 469.94,-52.14 462.9,-34.33"/>
<polygon fill="midnightblue" stroke="midnightblue" points="466.09,-32.87 458.9,-25.08 459.66,-35.65 466.09,-32.87"/>
</g>
<!-- Node3 -->
<g id="node3" class="node">
<title>Node3</title>
<g id="a_node3"><a xlink:title=" ">
<polygon fill="white" stroke="#bfbfbf" points="332,-6 332,-25 377,-25 377,-6 332,-6"/>
<text text-anchor="middle" x="354.5" y="-13" font-family="Helvetica,sans-Serif" font-size="10.00">utility</text>
</a>
</g>
</g>
<!-- Node2&#45;&gt;Node3 -->
<g id="edge2" class="edge">
<title>Node2&#45;&gt;Node3</title>
<path fill="none" stroke="midnightblue" d="M253.28,-72.73C273.01,-61.77 307.01,-42.88 330.11,-30.05"/>
<polygon fill="midnightblue" stroke="midnightblue" points="331.93,-33.04 338.97,-25.13 328.53,-26.92 331.93,-33.04"/>
</g>
<!-- Node5 -->
<g id="node5" class="node">
<title>Node5</title>
<g id="a_node5"><a xlink:href="memory__resource_8h.html" target="_top" xlink:title=" ">
<polygon fill="white" stroke="red" points="0,-6 0,-25 155,-25 155,-6 0,-6"/>
<text text-anchor="middle" x="77.5" y="-13" font-family="Helvetica,sans-Serif" font-size="10.00">../../pmr/memory_resource.h</text>
</a>
</g>
</g>
<!-- Node4&#45;&gt;Node5 -->
<g id="edge4" class="edge">
<title>Node4&#45;&gt;Node5</title>
<path fill="none" stroke="midnightblue" d="M83.56,-72.73C82.53,-63.18 80.85,-47.62 79.52,-35.28"/>
<polygon fill="midnightblue" stroke="midnightblue" points="82.98,-34.7 78.43,-25.13 76.02,-35.44 82.98,-34.7"/>
</g>
<!-- Node35 -->
<g id="node6" class="node">
<title>Node35</title>
<g id="a_node6"><a xlink:href="throw__bad__alloc_8h.html" target="_top" xlink:title=" ">
<polygon fill="white" stroke="red" points="173.5,-0.5 173.5,-30.5 281.5,-30.5 281.5,-0.5 173.5,-0.5"/>
<text text-anchor="start" x="181.5" y="-18.5" font-family="Helvetica,sans-Serif" font-size="10.00">../../pmr/throw_bad</text>
<text text-anchor="middle" x="227.5" y="-7.5" font-family="Helvetica,sans-Serif" font-size="10.00">_alloc.h</text>
</a>
</g>
</g>
<!-- Node4&#45;&gt;Node35 -->
<g id="edge5" class="edge">
<title>Node4&#45;&gt;Node35</title>
<path fill="none" stroke="midnightblue" d="M103.49,-72.87C124.76,-63.2 159.85,-47.25 187.29,-34.78"/>
<polygon fill="midnightblue" stroke="midnightblue" points="188.98,-37.85 196.64,-30.53 186.09,-31.48 188.98,-37.85"/>
</g>
<!-- Node37&#45;&gt;Node3 -->
<g id="edge8" class="edge">
<title>Node37&#45;&gt;Node3</title>
<path fill="none" stroke="midnightblue" d="M379.56,-67.4C374.76,-57.66 368.36,-44.65 363.22,-34.21"/>
<polygon fill="midnightblue" stroke="midnightblue" points="366.34,-32.62 358.78,-25.19 360.06,-35.71 366.34,-32.62"/>
</g>
<!-- Node37&#45;&gt;Node38 -->
<g id="edge7" class="edge">
<title>Node37&#45;&gt;Node38</title>
<path fill="none" stroke="midnightblue" d="M401.25,-67.4C412.07,-57.06 426.75,-43.02 437.96,-32.31"/>
<polygon fill="midnightblue" stroke="midnightblue" points="440.59,-34.63 445.4,-25.19 435.76,-29.57 440.59,-34.63"/>
</g>
</g>
</svg>
