<?xml version="1.0" encoding="UTF-8" standalone="no"?>
<!DOCTYPE svg PUBLIC "-//W3C//DTD SVG 1.1//EN"
 "http://www.w3.org/Graphics/SVG/1.1/DTD/svg11.dtd">
<!-- Generated by graphviz version 2.43.0 (0)
 -->
<!-- Title: include/emlabcpp/experimental/testing/coroutine.h Pages: 1 -->
<svg width="1007pt" height="318pt"
 viewBox="0.00 0.00 1007.00 318.00" xmlns="http://www.w3.org/2000/svg" xmlns:xlink="http://www.w3.org/1999/xlink">
<g id="graph0" class="graph" transform="scale(1 1) rotate(0) translate(4 314)">
<title>include/emlabcpp/experimental/testing/coroutine.h</title>
<polygon fill="white" stroke="transparent" points="-4,4 -4,-314 1003,-314 1003,4 -4,4"/>
<!-- Node1 -->
<g id="node1" class="node">
<title>Node1</title>
<g id="a_node1"><a xlink:title=" ">
<polygon fill="#bfbfbf" stroke="black" points="393,-279.5 393,-309.5 564,-309.5 564,-279.5 393,-279.5"/>
<text text-anchor="start" x="401" y="-297.5" font-family="Helvetica,sans-Serif" font-size="10.00">include/emlabcpp/experimental</text>
<text text-anchor="middle" x="478.5" y="-286.5" font-family="Helvetica,sans-Serif" font-size="10.00">/testing/coroutine.h</text>
</a>
</g>
</g>
<!-- Node2 -->
<g id="node2" class="node">
<title>Node2</title>
<g id="a_node2"><a xlink:href="memory__promise_8h.html" target="_top" xlink:title=" ">
<polygon fill="white" stroke="black" points="199,-129 199,-159 338,-159 338,-129 199,-129"/>
<text text-anchor="start" x="207" y="-147" font-family="Helvetica,sans-Serif" font-size="10.00">emlabcpp/experimental</text>
<text text-anchor="middle" x="268.5" y="-136" font-family="Helvetica,sans-Serif" font-size="10.00">/coro/memory_promise.h</text>
</a>
</g>
</g>
<!-- Node1&#45;&gt;Node2 -->
<g id="edge1" class="edge">
<title>Node1&#45;&gt;Node2</title>
<path fill="none" stroke="midnightblue" d="M392.96,-280.02C349.31,-271.41 302.35,-258.88 287.5,-243 269.07,-223.29 266.03,-191.31 266.48,-169.27"/>
<polygon fill="midnightblue" stroke="midnightblue" points="269.98,-169.21 266.94,-159.06 262.99,-168.89 269.98,-169.21"/>
</g>
<!-- Node41 -->
<g id="node6" class="node">
<title>Node41</title>
<g id="a_node6"><a xlink:href="owning__coroutine__handle_8h.html" target="_top" xlink:title=" ">
<polygon fill="white" stroke="black" points="448,-123.5 448,-164.5 581,-164.5 581,-123.5 448,-123.5"/>
<text text-anchor="start" x="456" y="-152.5" font-family="Helvetica,sans-Serif" font-size="10.00">emlabcpp/experimental</text>
<text text-anchor="start" x="456" y="-141.5" font-family="Helvetica,sans-Serif" font-size="10.00">/coro/owning_coroutine</text>
<text text-anchor="middle" x="514.5" y="-130.5" font-family="Helvetica,sans-Serif" font-size="10.00">_handle.h</text>
</a>
</g>
</g>
<!-- Node1&#45;&gt;Node41 -->
<g id="edge5" class="edge">
<title>Node1&#45;&gt;Node41</title>
<path fill="none" stroke="midnightblue" d="M481.95,-279.26C487.77,-255.26 499.65,-206.27 507.33,-174.57"/>
<polygon fill="midnightblue" stroke="midnightblue" points="510.81,-175.09 509.76,-164.55 504,-173.44 510.81,-175.09"/>
</g>
<!-- Node42 -->
<g id="node7" class="node">
<title>Node42</title>
<g id="a_node7"><a xlink:title=" ">
<polygon fill="white" stroke="#bfbfbf" points="436.5,-62 436.5,-81 498.5,-81 498.5,-62 436.5,-62"/>
<text text-anchor="middle" x="467.5" y="-69" font-family="Helvetica,sans-Serif" font-size="10.00">coroutine</text>
</a>
</g>
</g>
<!-- Node1&#45;&gt;Node42 -->
<g id="edge23" class="edge">
<title>Node1&#45;&gt;Node42</title>
<path fill="none" stroke="midnightblue" d="M470.41,-279.28C454.75,-249.93 423.14,-180.58 438.5,-123 441.7,-110.98 448.52,-98.86 454.75,-89.5"/>
<polygon fill="midnightblue" stroke="midnightblue" points="457.71,-91.36 460.61,-81.17 451.99,-87.33 457.71,-91.36"/>
</g>
<!-- Node44 -->
<g id="node9" class="node">
<title>Node44</title>
<g id="a_node9"><a xlink:href="recursive_8h.html" target="_top" xlink:title=" ">
<polygon fill="white" stroke="black" points="297,-207 297,-237 430,-237 430,-207 297,-207"/>
<text text-anchor="start" x="305" y="-225" font-family="Helvetica,sans-Serif" font-size="10.00">emlabcpp/experimental</text>
<text text-anchor="middle" x="363.5" y="-214" font-family="Helvetica,sans-Serif" font-size="10.00">/coro/recursive.h</text>
</a>
</g>
</g>
<!-- Node1&#45;&gt;Node44 -->
<g id="edge8" class="edge">
<title>Node1&#45;&gt;Node44</title>
<path fill="none" stroke="midnightblue" d="M455.5,-279.4C438.19,-268.79 414.25,-254.11 395.13,-242.39"/>
<polygon fill="midnightblue" stroke="midnightblue" points="396.81,-239.32 386.46,-237.07 393.15,-245.28 396.81,-239.32"/>
</g>
<!-- Node45 -->
<g id="node10" class="node">
<title>Node45</title>
<g id="a_node10"><a xlink:href="experimental_2testing_2convert_8h.html" target="_top" xlink:title=" ">
<polygon fill="white" stroke="black" points="772,-207 772,-237 905,-237 905,-207 772,-207"/>
<text text-anchor="start" x="780" y="-225" font-family="Helvetica,sans-Serif" font-size="10.00">emlabcpp/experimental</text>
<text text-anchor="middle" x="838.5" y="-214" font-family="Helvetica,sans-Serif" font-size="10.00">/testing/convert.h</text>
</a>
</g>
</g>
<!-- Node1&#45;&gt;Node45 -->
<g id="edge12" class="edge">
<title>Node1&#45;&gt;Node45</title>
<path fill="none" stroke="midnightblue" d="M550.05,-279.49C611.37,-267.48 699.44,-250.23 762.11,-237.96"/>
<polygon fill="midnightblue" stroke="midnightblue" points="762.8,-241.39 771.94,-236.03 761.45,-234.52 762.8,-241.39"/>
</g>
<!-- Node66 -->
<g id="node13" class="node">
<title>Node66</title>
<g id="a_node13"><a xlink:href="reactor__interface__adapter_8h.html" target="_top" xlink:title=" ">
<polygon fill="white" stroke="black" points="577.5,-201.5 577.5,-242.5 717.5,-242.5 717.5,-201.5 577.5,-201.5"/>
<text text-anchor="start" x="585.5" y="-230.5" font-family="Helvetica,sans-Serif" font-size="10.00">emlabcpp/experimental</text>
<text text-anchor="start" x="585.5" y="-219.5" font-family="Helvetica,sans-Serif" font-size="10.00">/testing/reactor_interface</text>
<text text-anchor="middle" x="647.5" y="-208.5" font-family="Helvetica,sans-Serif" font-size="10.00">_adapter.h</text>
</a>
</g>
</g>
<!-- Node1&#45;&gt;Node66 -->
<g id="edge15" class="edge">
<title>Node1&#45;&gt;Node66</title>
<path fill="none" stroke="midnightblue" d="M512.29,-279.4C534.86,-269.99 565.07,-257.39 591.22,-246.48"/>
<polygon fill="midnightblue" stroke="midnightblue" points="592.76,-249.63 600.64,-242.55 590.07,-243.17 592.76,-249.63"/>
</g>
<!-- Node3 -->
<g id="node3" class="node">
<title>Node3</title>
<g id="a_node3"><a xlink:href="logging_8h.html" target="_top" xlink:title=" ">
<polygon fill="white" stroke="red" points="0,-56.5 0,-86.5 133,-86.5 133,-56.5 0,-56.5"/>
<text text-anchor="start" x="8" y="-74.5" font-family="Helvetica,sans-Serif" font-size="10.00">emlabcpp/experimental</text>
<text text-anchor="middle" x="66.5" y="-63.5" font-family="Helvetica,sans-Serif" font-size="10.00">/logging.h</text>
</a>
</g>
</g>
<!-- Node2&#45;&gt;Node3 -->
<g id="edge2" class="edge">
<title>Node2&#45;&gt;Node3</title>
<path fill="none" stroke="midnightblue" d="M228.11,-128.9C196.04,-117.71 151.04,-102.01 116.67,-90.01"/>
<polygon fill="midnightblue" stroke="midnightblue" points="117.42,-86.56 106.82,-86.57 115.11,-93.17 117.42,-86.56"/>
</g>
<!-- Node37 -->
<g id="node4" class="node">
<title>Node37</title>
<g id="a_node4"><a xlink:href="memory__resource_8h.html" target="_top" xlink:title=" ">
<polygon fill="white" stroke="red" points="151,-56.5 151,-86.5 282,-86.5 282,-56.5 151,-56.5"/>
<text text-anchor="start" x="159" y="-74.5" font-family="Helvetica,sans-Serif" font-size="10.00">emlabcpp/pmr/memory</text>
<text text-anchor="middle" x="216.5" y="-63.5" font-family="Helvetica,sans-Serif" font-size="10.00">_resource.h</text>
</a>
</g>
</g>
<!-- Node2&#45;&gt;Node37 -->
<g id="edge3" class="edge">
<title>Node2&#45;&gt;Node37</title>
<path fill="none" stroke="midnightblue" d="M257.98,-128.73C250.86,-119.08 241.31,-106.13 233.16,-95.09"/>
<polygon fill="midnightblue" stroke="midnightblue" points="235.76,-92.72 227.01,-86.75 230.13,-96.87 235.76,-92.72"/>
</g>
<!-- Node38 -->
<g id="node5" class="node">
<title>Node38</title>
<g id="a_node5"><a xlink:href="throw__bad__alloc_8h.html" target="_top" xlink:title=" ">
<polygon fill="white" stroke="red" points="300.5,-56.5 300.5,-86.5 418.5,-86.5 418.5,-56.5 300.5,-56.5"/>
<text text-anchor="start" x="308.5" y="-74.5" font-family="Helvetica,sans-Serif" font-size="10.00">emlabcpp/pmr/throw</text>
<text text-anchor="middle" x="359.5" y="-63.5" font-family="Helvetica,sans-Serif" font-size="10.00">_bad_alloc.h</text>
</a>
</g>
</g>
<!-- Node2&#45;&gt;Node38 -->
<g id="edge4" class="edge">
<title>Node2&#45;&gt;Node38</title>
<path fill="none" stroke="midnightblue" d="M286.92,-128.73C300.2,-118.44 318.33,-104.4 333.14,-92.92"/>
<polygon fill="midnightblue" stroke="midnightblue" points="335.66,-95.4 341.42,-86.5 331.37,-89.86 335.66,-95.4"/>
</g>
<!-- Node41&#45;&gt;Node42 -->
<g id="edge6" class="edge">
<title>Node41&#45;&gt;Node42</title>
<path fill="none" stroke="midnightblue" d="M501.41,-123.36C494.34,-112.76 485.69,-99.79 478.9,-89.6"/>
<polygon fill="midnightblue" stroke="midnightblue" points="481.74,-87.55 473.28,-81.17 475.92,-91.44 481.74,-87.55"/>
</g>
<!-- Node43 -->
<g id="node8" class="node">
<title>Node43</title>
<g id="a_node8"><a xlink:title=" ">
<polygon fill="white" stroke="#bfbfbf" points="569,-62 569,-81 614,-81 614,-62 569,-62"/>
<text text-anchor="middle" x="591.5" y="-69" font-family="Helvetica,sans-Serif" font-size="10.00">utility</text>
</a>
</g>
</g>
<!-- Node41&#45;&gt;Node43 -->
<g id="edge7" class="edge">
<title>Node41&#45;&gt;Node43</title>
<path fill="none" stroke="midnightblue" d="M535.95,-123.36C548.12,-112.21 563.15,-98.46 574.5,-88.06"/>
<polygon fill="midnightblue" stroke="midnightblue" points="577.01,-90.51 582.03,-81.17 572.29,-85.34 577.01,-90.51"/>
</g>
<!-- Node44&#45;&gt;Node2 -->
<g id="edge9" class="edge">
<title>Node44&#45;&gt;Node2</title>
<path fill="none" stroke="midnightblue" d="M345.63,-206.7C331.17,-195.13 310.6,-178.68 294.34,-165.67"/>
<polygon fill="midnightblue" stroke="midnightblue" points="296.28,-162.74 286.29,-159.23 291.91,-168.21 296.28,-162.74"/>
</g>
<!-- Node44&#45;&gt;Node41 -->
<g id="edge10" class="edge">
<title>Node44&#45;&gt;Node41</title>
<path fill="none" stroke="midnightblue" d="M391.55,-206.88C412.5,-196.34 441.64,-181.67 466.3,-169.26"/>
<polygon fill="midnightblue" stroke="midnightblue" points="468.14,-172.25 475.5,-164.63 465,-166 468.14,-172.25"/>
</g>
<!-- Node44&#45;&gt;Node42 -->
<g id="edge11" class="edge">
<title>Node44&#45;&gt;Node42</title>
<path fill="none" stroke="midnightblue" d="M367.2,-206.92C372.97,-186.83 385.55,-149.46 405.5,-123 416.3,-108.68 431.99,-95.95 444.88,-86.86"/>
<polygon fill="midnightblue" stroke="midnightblue" points="446.96,-89.68 453.27,-81.17 443.03,-83.89 446.96,-89.68"/>
</g>
<!-- Node46 -->
<g id="node11" class="node">
<title>Node46</title>
<g id="a_node11"><a xlink:href="experimental_2testing_2base_8h.html" target="_top" xlink:title=" ">
<polygon fill="white" stroke="red" points="866,-56.5 866,-86.5 999,-86.5 999,-56.5 866,-56.5"/>
<text text-anchor="start" x="874" y="-74.5" font-family="Helvetica,sans-Serif" font-size="10.00">emlabcpp/experimental</text>
<text text-anchor="middle" x="932.5" y="-63.5" font-family="Helvetica,sans-Serif" font-size="10.00">/testing/base.h</text>
</a>
</g>
</g>
<!-- Node45&#45;&gt;Node46 -->
<g id="edge13" class="edge">
<title>Node45&#45;&gt;Node46</title>
<path fill="none" stroke="midnightblue" d="M857.78,-206.94C870.8,-196.59 887.55,-181.5 898.5,-165 912.55,-143.83 921.74,-116.1 926.98,-96.54"/>
<polygon fill="midnightblue" stroke="midnightblue" points="930.44,-97.16 929.49,-86.6 923.65,-95.44 930.44,-97.16"/>
</g>
<!-- Node63 -->
<g id="node12" class="node">
<title>Node63</title>
<g id="a_node12"><a xlink:href="static__function_8h.html" target="_top" xlink:title=" ">
<polygon fill="white" stroke="red" points="763,-0.5 763,-19.5 912,-19.5 912,-0.5 763,-0.5"/>
<text text-anchor="middle" x="837.5" y="-7.5" font-family="Helvetica,sans-Serif" font-size="10.00">emlabcpp/static_function.h</text>
</a>
</g>
</g>
<!-- Node46&#45;&gt;Node63 -->
<g id="edge14" class="edge">
<title>Node46&#45;&gt;Node63</title>
<path fill="none" stroke="midnightblue" d="M909.99,-56.4C894.9,-46.95 875.11,-34.56 860.03,-25.11"/>
<polygon fill="midnightblue" stroke="midnightblue" points="861.66,-22 851.32,-19.66 857.94,-27.93 861.66,-22"/>
</g>
<!-- Node66&#45;&gt;Node43 -->
<g id="edge22" class="edge">
<title>Node66&#45;&gt;Node43</title>
<path fill="none" stroke="midnightblue" d="M640.06,-201.28C629.14,-172.32 608.92,-118.68 598.34,-90.65"/>
<polygon fill="midnightblue" stroke="midnightblue" points="601.61,-89.38 594.8,-81.26 595.06,-91.85 601.61,-89.38"/>
</g>
<!-- Node66&#45;&gt;Node63 -->
<g id="edge21" class="edge">
<title>Node66&#45;&gt;Node63</title>
<path fill="none" stroke="midnightblue" d="M643.39,-201.47C637.46,-167.49 630.81,-97.18 666.5,-56 679.97,-40.46 726.16,-28.86 767.14,-21.34"/>
<polygon fill="midnightblue" stroke="midnightblue" points="767.92,-24.75 777.15,-19.56 766.7,-17.86 767.92,-24.75"/>
</g>
<!-- Node67 -->
<g id="node14" class="node">
<title>Node67</title>
<g id="a_node14"><a xlink:href="multiplexer_8h.html" target="_top" xlink:title=" ">
<polygon fill="white" stroke="red" points="676,-56.5 676,-86.5 809,-86.5 809,-56.5 676,-56.5"/>
<text text-anchor="start" x="684" y="-74.5" font-family="Helvetica,sans-Serif" font-size="10.00">emlabcpp/experimental</text>
<text text-anchor="middle" x="742.5" y="-63.5" font-family="Helvetica,sans-Serif" font-size="10.00">/multiplexer.h</text>
</a>
</g>
</g>
<!-- Node66&#45;&gt;Node67 -->
<g id="edge16" class="edge">
<title>Node66&#45;&gt;Node67</title>
<path fill="none" stroke="midnightblue" d="M660.12,-201.28C677.7,-173.8 709.48,-124.11 728.01,-95.15"/>
<polygon fill="midnightblue" stroke="midnightblue" points="731.09,-96.84 733.53,-86.53 725.19,-93.06 731.09,-96.84"/>
</g>
<!-- Node92 -->
<g id="node15" class="node">
<title>Node92</title>
<g id="a_node15"><a xlink:href="experimental_2testing_2protocol_8h.html" target="_top" xlink:title=" ">
<polygon fill="white" stroke="red" points="756,-129 756,-159 889,-159 889,-129 756,-129"/>
<text text-anchor="start" x="764" y="-147" font-family="Helvetica,sans-Serif" font-size="10.00">emlabcpp/experimental</text>
<text text-anchor="middle" x="822.5" y="-136" font-family="Helvetica,sans-Serif" font-size="10.00">/testing/protocol.h</text>
</a>
</g>
</g>
<!-- Node66&#45;&gt;Node92 -->
<g id="edge17" class="edge">
<title>Node66&#45;&gt;Node92</title>
<path fill="none" stroke="midnightblue" d="M692.57,-201.43C719.72,-189.64 754.06,-174.72 780.61,-163.19"/>
<polygon fill="midnightblue" stroke="midnightblue" points="782.24,-166.3 790.02,-159.11 779.45,-159.88 782.24,-166.3"/>
</g>
<!-- Node92&#45;&gt;Node46 -->
<g id="edge19" class="edge">
<title>Node92&#45;&gt;Node46</title>
<path fill="none" stroke="midnightblue" d="M844.5,-128.9C860.98,-118.34 883.75,-103.74 902,-92.05"/>
<polygon fill="midnightblue" stroke="midnightblue" points="904.01,-94.92 910.54,-86.57 900.23,-89.02 904.01,-94.92"/>
</g>
<!-- Node92&#45;&gt;Node63 -->
<g id="edge20" class="edge">
<title>Node92&#45;&gt;Node63</title>
<path fill="none" stroke="midnightblue" d="M824.11,-128.87C826.83,-104.9 832.36,-56.25 835.39,-29.56"/>
<polygon fill="midnightblue" stroke="midnightblue" points="838.87,-29.93 836.52,-19.6 831.92,-29.14 838.87,-29.93"/>
</g>
<!-- Node92&#45;&gt;Node67 -->
<g id="edge18" class="edge">
<title>Node92&#45;&gt;Node67</title>
<path fill="none" stroke="midnightblue" d="M806.31,-128.73C794.74,-118.54 778.99,-104.66 766.04,-93.24"/>
<polygon fill="midnightblue" stroke="midnightblue" points="768.21,-90.49 758.39,-86.5 763.58,-95.74 768.21,-90.49"/>
</g>
</g>
</svg>
