<?xml version="1.0" encoding="UTF-8" standalone="no"?>
<!DOCTYPE svg PUBLIC "-//W3C//DTD SVG 1.1//EN"
 "http://www.w3.org/Graphics/SVG/1.1/DTD/svg11.dtd">
<!-- Generated by graphviz version 2.43.0 (0)
 -->
<!-- Title: include/emlabcpp/protocol/decl.h Pages: 1 -->
<svg width="1560pt" height="386pt"
 viewBox="0.00 0.00 1559.50 386.00" xmlns="http://www.w3.org/2000/svg" xmlns:xlink="http://www.w3.org/1999/xlink">
<g id="graph0" class="graph" transform="scale(1 1) rotate(0) translate(4 382)">
<title>include/emlabcpp/protocol/decl.h</title>
<polygon fill="white" stroke="transparent" points="-4,4 -4,-382 1555.5,-382 1555.5,4 -4,4"/>
<!-- Node1 -->
<g id="node1" class="node">
<title>Node1</title>
<g id="a_node1"><a xlink:title=" ">
<polygon fill="#bfbfbf" stroke="black" points="500,-347.5 500,-377.5 646,-377.5 646,-347.5 500,-347.5"/>
<text text-anchor="start" x="508" y="-365.5" font-family="Helvetica,sans-Serif" font-size="10.00">include/emlabcpp/protocol</text>
<text text-anchor="middle" x="573" y="-354.5" font-family="Helvetica,sans-Serif" font-size="10.00">/decl.h</text>
</a>
</g>
</g>
<!-- Node2 -->
<g id="node2" class="node">
<title>Node2</title>
<g id="a_node2"><a xlink:href="protocol_2base_8h.html" target="_top" xlink:title=" ">
<polygon fill="white" stroke="black" points="241.5,-291.5 241.5,-310.5 384.5,-310.5 384.5,-291.5 241.5,-291.5"/>
<text text-anchor="middle" x="313" y="-298.5" font-family="Helvetica,sans-Serif" font-size="10.00">emlabcpp/protocol/base.h</text>
</a>
</g>
</g>
<!-- Node1&#45;&gt;Node2 -->
<g id="edge1" class="edge">
<title>Node1&#45;&gt;Node2</title>
<path fill="none" stroke="midnightblue" d="M511.71,-347.47C465.29,-336.85 402.46,-322.47 359.98,-312.75"/>
<polygon fill="midnightblue" stroke="midnightblue" points="360.7,-309.33 350.17,-310.51 359.14,-316.15 360.7,-309.33"/>
</g>
<!-- Node14 -->
<g id="node5" class="node">
<title>Node14</title>
<g id="a_node5"><a xlink:title=" ">
<polygon fill="white" stroke="#bfbfbf" points="63.5,-0.5 63.5,-19.5 114.5,-19.5 114.5,-0.5 63.5,-0.5"/>
<text text-anchor="middle" x="89" y="-7.5" font-family="Helvetica,sans-Serif" font-size="10.00">variant</text>
</a>
</g>
</g>
<!-- Node1&#45;&gt;Node14 -->
<g id="edge43" class="edge">
<title>Node1&#45;&gt;Node14</title>
<path fill="none" stroke="midnightblue" d="M499.85,-361.21C345.37,-358.62 0,-341.54 0,-240.5 0,-240.5 0,-240.5 0,-121 0,-78.85 39.99,-43.78 66.36,-25.24"/>
<polygon fill="midnightblue" stroke="midnightblue" points="68.38,-28.1 74.7,-19.6 64.46,-22.3 68.38,-28.1"/>
</g>
<!-- Node15 -->
<g id="node6" class="node">
<title>Node15</title>
<g id="a_node6"><a xlink:title=" ">
<polygon fill="white" stroke="#bfbfbf" points="545,-168.5 545,-187.5 601,-187.5 601,-168.5 545,-168.5"/>
<text text-anchor="middle" x="573" y="-175.5" font-family="Helvetica,sans-Serif" font-size="10.00">optional</text>
</a>
</g>
</g>
<!-- Node1&#45;&gt;Node15 -->
<g id="edge42" class="edge">
<title>Node1&#45;&gt;Node15</title>
<path fill="none" stroke="midnightblue" d="M563.72,-347.22C548.54,-321.98 521.56,-268.01 537,-224 540.79,-213.21 548.37,-203.08 555.6,-195.18"/>
<polygon fill="midnightblue" stroke="midnightblue" points="558.33,-197.4 562.84,-187.81 553.33,-192.49 558.33,-197.4"/>
</g>
<!-- Node16 -->
<g id="node8" class="node">
<title>Node16</title>
<g id="a_node8"><a xlink:href="protocol_2error_8h.html" target="_top" xlink:title=" ">
<polygon fill="white" stroke="red" points="66,-230 66,-249 208,-249 208,-230 66,-230"/>
<text text-anchor="middle" x="137" y="-237" font-family="Helvetica,sans-Serif" font-size="10.00">emlabcpp/protocol/error.h</text>
</a>
</g>
</g>
<!-- Node1&#45;&gt;Node16 -->
<g id="edge13" class="edge">
<title>Node1&#45;&gt;Node16</title>
<path fill="none" stroke="midnightblue" d="M499.75,-360.87C428.78,-357.94 319.36,-347.19 232,-311 201.02,-298.17 170.91,-273.02 153.17,-256.49"/>
<polygon fill="midnightblue" stroke="midnightblue" points="155.15,-253.54 145.5,-249.16 150.31,-258.6 155.15,-253.54"/>
</g>
<!-- Node20 -->
<g id="node12" class="node">
<title>Node20</title>
<g id="a_node12"><a xlink:href="message_8h.html" target="_top" xlink:title=" ">
<polygon fill="white" stroke="black" points="546,-230 546,-249 710,-249 710,-230 546,-230"/>
<text text-anchor="middle" x="628" y="-237" font-family="Helvetica,sans-Serif" font-size="10.00">emlabcpp/protocol/message.h</text>
</a>
</g>
</g>
<!-- Node1&#45;&gt;Node20 -->
<g id="edge14" class="edge">
<title>Node1&#45;&gt;Node20</title>
<path fill="none" stroke="midnightblue" d="M579.53,-347.14C589.59,-325 608.88,-282.57 619.85,-258.44"/>
<polygon fill="midnightblue" stroke="midnightblue" points="623.16,-259.6 624.11,-249.05 616.79,-256.71 623.16,-259.6"/>
</g>
<!-- Node22 -->
<g id="node14" class="node">
<title>Node22</title>
<g id="a_node14"><a xlink:href="types_8h.html" target="_top" xlink:title=" ">
<polygon fill="white" stroke="red" points="1043,-112.5 1043,-131.5 1147,-131.5 1147,-112.5 1043,-112.5"/>
<text text-anchor="middle" x="1095" y="-119.5" font-family="Helvetica,sans-Serif" font-size="10.00">emlabcpp/types.h</text>
</a>
</g>
</g>
<!-- Node1&#45;&gt;Node22 -->
<g id="edge41" class="edge">
<title>Node1&#45;&gt;Node22</title>
<path fill="none" stroke="midnightblue" d="M646.03,-361.5C800.64,-359.7 1152.4,-345.53 1220,-255 1255.51,-207.44 1171.41,-158.53 1124.25,-135.91"/>
<polygon fill="midnightblue" stroke="midnightblue" points="1125.63,-132.69 1115.09,-131.62 1122.66,-139.03 1125.63,-132.69"/>
</g>
<!-- Node24 -->
<g id="node16" class="node">
<title>Node24</title>
<g id="a_node16"><a xlink:href="quantity_8h.html" target="_top" xlink:title=" ">
<polygon fill="white" stroke="black" points="1267,-230 1267,-249 1383,-249 1383,-230 1267,-230"/>
<text text-anchor="middle" x="1325" y="-237" font-family="Helvetica,sans-Serif" font-size="10.00">emlabcpp/quantity.h</text>
</a>
</g>
</g>
<!-- Node1&#45;&gt;Node24 -->
<g id="edge22" class="edge">
<title>Node1&#45;&gt;Node24</title>
<path fill="none" stroke="midnightblue" d="M646.03,-362.33C798.71,-363.07 1146.34,-359.21 1253,-311 1278.69,-299.39 1300.57,-274.46 1313.25,-257.58"/>
<polygon fill="midnightblue" stroke="midnightblue" points="1316.31,-259.32 1319.32,-249.17 1310.63,-255.23 1316.31,-259.32"/>
</g>
<!-- Node29 -->
<g id="node21" class="node">
<title>Node29</title>
<g id="a_node21"><a xlink:href="static__vector_8h.html" target="_top" xlink:title=" ">
<polygon fill="white" stroke="black" points="882.5,-291.5 882.5,-310.5 1021.5,-310.5 1021.5,-291.5 882.5,-291.5"/>
<text text-anchor="middle" x="952" y="-298.5" font-family="Helvetica,sans-Serif" font-size="10.00">emlabcpp/static_vector.h</text>
</a>
</g>
</g>
<!-- Node1&#45;&gt;Node29 -->
<g id="edge30" class="edge">
<title>Node1&#45;&gt;Node29</title>
<path fill="none" stroke="midnightblue" d="M646.08,-350.03C716.15,-339.03 820.91,-322.58 887.84,-312.07"/>
<polygon fill="midnightblue" stroke="midnightblue" points="888.5,-315.51 897.84,-310.5 887.42,-308.6 888.5,-315.51"/>
</g>
<!-- Node3 -->
<g id="node3" class="node">
<title>Node3</title>
<g id="a_node3"><a xlink:href="bounded_8h.html" target="_top" xlink:title=" ">
<polygon fill="white" stroke="black" points="728.5,-230 728.5,-249 847.5,-249 847.5,-230 728.5,-230"/>
<text text-anchor="middle" x="788" y="-237" font-family="Helvetica,sans-Serif" font-size="10.00">emlabcpp/bounded.h</text>
</a>
</g>
</g>
<!-- Node2&#45;&gt;Node3 -->
<g id="edge2" class="edge">
<title>Node2&#45;&gt;Node3</title>
<path fill="none" stroke="midnightblue" d="M384.79,-294.16C466.15,-287.05 602.58,-273.64 719,-255 725.9,-253.89 733.16,-252.56 740.27,-251.16"/>
<polygon fill="midnightblue" stroke="midnightblue" points="741.42,-254.49 750.52,-249.06 740.02,-247.63 741.42,-254.49"/>
</g>
<!-- Node2&#45;&gt;Node14 -->
<g id="edge12" class="edge">
<title>Node2&#45;&gt;Node14</title>
<path fill="none" stroke="midnightblue" d="M241.27,-296C175.07,-290.82 83.17,-279.37 57,-255 31.52,-231.27 38,-213.82 38,-179 38,-179 38,-179 38,-121 38,-85.24 60.45,-48.51 75.56,-27.84"/>
<polygon fill="midnightblue" stroke="midnightblue" points="78.43,-29.85 81.69,-19.77 72.86,-25.61 78.43,-29.85"/>
</g>
<!-- Node10 -->
<g id="node7" class="node">
<title>Node10</title>
<g id="a_node7"><a xlink:title=" ">
<polygon fill="white" stroke="#bfbfbf" points="848.5,-168.5 848.5,-187.5 917.5,-187.5 917.5,-168.5 848.5,-168.5"/>
<text text-anchor="middle" x="883" y="-175.5" font-family="Helvetica,sans-Serif" font-size="10.00">type_traits</text>
</a>
</g>
</g>
<!-- Node2&#45;&gt;Node10 -->
<g id="edge11" class="edge">
<title>Node2&#45;&gt;Node10</title>
<path fill="none" stroke="midnightblue" d="M384.73,-298.39C523.99,-294.64 820.56,-283.39 857,-255 874.41,-241.44 880.23,-215.6 882.14,-197.85"/>
<polygon fill="midnightblue" stroke="midnightblue" points="885.63,-198.03 882.9,-187.79 878.65,-197.5 885.63,-198.03"/>
</g>
<!-- Node2&#45;&gt;Node16 -->
<g id="edge7" class="edge">
<title>Node2&#45;&gt;Node16</title>
<path fill="none" stroke="midnightblue" d="M287.78,-291.48C257.33,-281.18 205.95,-263.81 171.76,-252.25"/>
<polygon fill="midnightblue" stroke="midnightblue" points="172.76,-248.9 162.17,-249.01 170.52,-255.53 172.76,-248.9"/>
</g>
<!-- Node18 -->
<g id="node10" class="node">
<title>Node18</title>
<g id="a_node10"><a xlink:title=" ">
<polygon fill="white" stroke="#bfbfbf" points="226,-230 226,-249 270,-249 270,-230 226,-230"/>
<text text-anchor="middle" x="248" y="-237" font-family="Helvetica,sans-Serif" font-size="10.00">bitset</text>
</a>
</g>
</g>
<!-- Node2&#45;&gt;Node18 -->
<g id="edge9" class="edge">
<title>Node2&#45;&gt;Node18</title>
<path fill="none" stroke="midnightblue" d="M303.69,-291.48C293.55,-282.2 277.14,-267.17 264.75,-255.83"/>
<polygon fill="midnightblue" stroke="midnightblue" points="267.04,-253.18 257.3,-249.01 262.31,-258.34 267.04,-253.18"/>
</g>
<!-- Node19 -->
<g id="node11" class="node">
<title>Node19</title>
<g id="a_node11"><a xlink:title=" ">
<polygon fill="white" stroke="#bfbfbf" points="288,-230 288,-249 338,-249 338,-230 288,-230"/>
<text text-anchor="middle" x="313" y="-237" font-family="Helvetica,sans-Serif" font-size="10.00">cstring</text>
</a>
</g>
</g>
<!-- Node2&#45;&gt;Node19 -->
<g id="edge10" class="edge">
<title>Node2&#45;&gt;Node19</title>
<path fill="none" stroke="midnightblue" d="M313,-291.48C313,-283.08 313,-269.98 313,-259.16"/>
<polygon fill="midnightblue" stroke="midnightblue" points="316.5,-259.01 313,-249.01 309.5,-259.01 316.5,-259.01"/>
</g>
<!-- Node4 -->
<g id="node4" class="node">
<title>Node4</title>
<g id="a_node4"><a xlink:href="concepts_8h.html" target="_top" xlink:title=" ">
<polygon fill="white" stroke="red" points="728,-56.5 728,-75.5 848,-75.5 848,-56.5 728,-56.5"/>
<text text-anchor="middle" x="788" y="-63.5" font-family="Helvetica,sans-Serif" font-size="10.00">emlabcpp/concepts.h</text>
</a>
</g>
</g>
<!-- Node3&#45;&gt;Node4 -->
<g id="edge3" class="edge">
<title>Node3&#45;&gt;Node4</title>
<path fill="none" stroke="midnightblue" d="M788,-229.76C788,-203.15 788,-122.71 788,-85.84"/>
<polygon fill="midnightblue" stroke="midnightblue" points="791.5,-85.52 788,-75.52 784.5,-85.52 791.5,-85.52"/>
</g>
<!-- Node3&#45;&gt;Node15 -->
<g id="edge5" class="edge">
<title>Node3&#45;&gt;Node15</title>
<path fill="none" stroke="midnightblue" d="M757.2,-229.98C718.58,-219.29 652.41,-200.98 610.78,-189.46"/>
<polygon fill="midnightblue" stroke="midnightblue" points="611.58,-186.05 601.01,-186.75 609.72,-192.79 611.58,-186.05"/>
</g>
<!-- Node3&#45;&gt;Node10 -->
<g id="edge6" class="edge">
<title>Node3&#45;&gt;Node10</title>
<path fill="none" stroke="midnightblue" d="M801.61,-229.98C817.06,-220.3 842.49,-204.37 860.82,-192.89"/>
<polygon fill="midnightblue" stroke="midnightblue" points="862.8,-195.78 869.41,-187.51 859.08,-189.85 862.8,-195.78"/>
</g>
<!-- Node4&#45;&gt;Node14 -->
<g id="edge4" class="edge">
<title>Node4&#45;&gt;Node14</title>
<path fill="none" stroke="midnightblue" d="M727.8,-60.35C586.64,-49.44 237.77,-22.49 124.87,-13.77"/>
<polygon fill="midnightblue" stroke="midnightblue" points="124.94,-10.27 114.7,-12.99 124.4,-17.25 124.94,-10.27"/>
</g>
<!-- Node6 -->
<g id="node9" class="node">
<title>Node6</title>
<g id="a_node9"><a xlink:title=" ">
<polygon fill="white" stroke="#bfbfbf" points="254,-168.5 254,-187.5 296,-187.5 296,-168.5 254,-168.5"/>
<text text-anchor="middle" x="275" y="-175.5" font-family="Helvetica,sans-Serif" font-size="10.00">array</text>
</a>
</g>
</g>
<!-- Node16&#45;&gt;Node6 -->
<g id="edge8" class="edge">
<title>Node16&#45;&gt;Node6</title>
<path fill="none" stroke="midnightblue" d="M156.77,-229.98C180.14,-219.9 219.21,-203.05 246,-191.5"/>
<polygon fill="midnightblue" stroke="midnightblue" points="247.47,-194.68 255.26,-187.51 244.7,-188.25 247.47,-194.68"/>
</g>
<!-- Node20&#45;&gt;Node4 -->
<g id="edge15" class="edge">
<title>Node20&#45;&gt;Node4</title>
<path fill="none" stroke="midnightblue" d="M636.15,-229.76C661.62,-202.46 739.95,-118.5 773.02,-83.05"/>
<polygon fill="midnightblue" stroke="midnightblue" points="775.79,-85.22 780.05,-75.52 770.67,-80.44 775.79,-85.22"/>
</g>
<!-- Node20&#45;&gt;Node15 -->
<g id="edge21" class="edge">
<title>Node20&#45;&gt;Node15</title>
<path fill="none" stroke="midnightblue" d="M620.12,-229.98C611.71,-220.87 598.18,-206.24 587.77,-194.98"/>
<polygon fill="midnightblue" stroke="midnightblue" points="590.22,-192.48 580.87,-187.51 585.08,-197.23 590.22,-192.48"/>
</g>
<!-- Node20&#45;&gt;Node6 -->
<g id="edge20" class="edge">
<title>Node20&#45;&gt;Node6</title>
<path fill="none" stroke="midnightblue" d="M577.42,-229.98C503.33,-217.49 367.46,-194.58 306.29,-184.27"/>
<polygon fill="midnightblue" stroke="midnightblue" points="306.56,-180.77 296.11,-182.56 305.39,-187.67 306.56,-180.77"/>
</g>
<!-- Node21 -->
<g id="node13" class="node">
<title>Node21</title>
<g id="a_node13"><a xlink:href="view_8h.html" target="_top" xlink:title=" ">
<polygon fill="white" stroke="black" points="986.5,-168.5 986.5,-187.5 1085.5,-187.5 1085.5,-168.5 986.5,-168.5"/>
<text text-anchor="middle" x="1036" y="-175.5" font-family="Helvetica,sans-Serif" font-size="10.00">emlabcpp/view.h</text>
</a>
</g>
</g>
<!-- Node20&#45;&gt;Node21 -->
<g id="edge16" class="edge">
<title>Node20&#45;&gt;Node21</title>
<path fill="none" stroke="midnightblue" d="M680.43,-229.99C693.05,-227.98 706.5,-225.88 719,-224 808.43,-210.53 912.22,-196.01 976,-187.21"/>
<polygon fill="midnightblue" stroke="midnightblue" points="976.84,-190.62 986.27,-185.79 975.89,-183.69 976.84,-190.62"/>
</g>
<!-- Node21&#45;&gt;Node22 -->
<g id="edge17" class="edge">
<title>Node21&#45;&gt;Node22</title>
<path fill="none" stroke="midnightblue" d="M1045.48,-168.32C1054.2,-160.34 1067.34,-148.31 1077.9,-138.65"/>
<polygon fill="midnightblue" stroke="midnightblue" points="1080.33,-141.17 1085.35,-131.83 1075.61,-136 1080.33,-141.17"/>
</g>
<!-- Node22&#45;&gt;Node4 -->
<g id="edge18" class="edge">
<title>Node22&#45;&gt;Node4</title>
<path fill="none" stroke="midnightblue" d="M1046.35,-112.44C992.13,-102.9 904.45,-87.48 846.52,-77.29"/>
<polygon fill="midnightblue" stroke="midnightblue" points="846.87,-73.8 836.42,-75.52 845.66,-80.7 846.87,-73.8"/>
</g>
<!-- Node23 -->
<g id="node15" class="node">
<title>Node23</title>
<g id="a_node15"><a xlink:title=" ">
<polygon fill="white" stroke="#bfbfbf" points="1162,-56.5 1162,-75.5 1206,-75.5 1206,-56.5 1162,-56.5"/>
<text text-anchor="middle" x="1184" y="-63.5" font-family="Helvetica,sans-Serif" font-size="10.00">string</text>
</a>
</g>
</g>
<!-- Node22&#45;&gt;Node23 -->
<g id="edge19" class="edge">
<title>Node22&#45;&gt;Node23</title>
<path fill="none" stroke="midnightblue" d="M1109.3,-112.32C1123.18,-103.9 1144.49,-90.97 1160.8,-81.07"/>
<polygon fill="midnightblue" stroke="midnightblue" points="1163,-83.83 1169.74,-75.65 1159.37,-77.85 1163,-83.83"/>
</g>
<!-- Node24&#45;&gt;Node4 -->
<g id="edge23" class="edge">
<title>Node24&#45;&gt;Node4</title>
<path fill="none" stroke="midnightblue" d="M1316.86,-229.82C1294.09,-206.17 1226.73,-140.43 1156,-112 1103.47,-90.89 949.38,-77.54 858.1,-71.26"/>
<polygon fill="midnightblue" stroke="midnightblue" points="858.32,-67.77 848.11,-70.58 857.85,-74.75 858.32,-67.77"/>
</g>
<!-- Node24&#45;&gt;Node10 -->
<g id="edge29" class="edge">
<title>Node24&#45;&gt;Node10</title>
<path fill="none" stroke="midnightblue" d="M1266.96,-230.44C1251.69,-228.33 1235.23,-226.07 1220,-224 1115.56,-209.82 992.86,-193.53 928.19,-184.97"/>
<polygon fill="midnightblue" stroke="midnightblue" points="928.31,-181.45 917.94,-183.61 927.39,-188.39 928.31,-181.45"/>
</g>
<!-- Node24&#45;&gt;Node23 -->
<g id="edge28" class="edge">
<title>Node24&#45;&gt;Node23</title>
<path fill="none" stroke="midnightblue" d="M1319.46,-229.99C1312.99,-220 1302.04,-202.91 1293,-188 1272.77,-154.62 1275.46,-140.69 1249,-112 1237.62,-99.66 1222.27,-88.84 1209.35,-80.9"/>
<polygon fill="midnightblue" stroke="midnightblue" points="1210.85,-77.72 1200.46,-75.65 1207.29,-83.75 1210.85,-77.72"/>
</g>
<!-- Node25 -->
<g id="node17" class="node">
<title>Node25</title>
<g id="a_node17"><a xlink:title=" ">
<polygon fill="white" stroke="#bfbfbf" points="1301.5,-168.5 1301.5,-187.5 1348.5,-187.5 1348.5,-168.5 1301.5,-168.5"/>
<text text-anchor="middle" x="1325" y="-175.5" font-family="Helvetica,sans-Serif" font-size="10.00">cmath</text>
</a>
</g>
</g>
<!-- Node24&#45;&gt;Node25 -->
<g id="edge24" class="edge">
<title>Node24&#45;&gt;Node25</title>
<path fill="none" stroke="midnightblue" d="M1325,-229.98C1325,-221.58 1325,-208.48 1325,-197.66"/>
<polygon fill="midnightblue" stroke="midnightblue" points="1328.5,-197.51 1325,-187.51 1321.5,-197.51 1328.5,-197.51"/>
</g>
<!-- Node26 -->
<g id="node18" class="node">
<title>Node26</title>
<g id="a_node18"><a xlink:title=" ">
<polygon fill="white" stroke="#bfbfbf" points="1366.5,-168.5 1366.5,-187.5 1431.5,-187.5 1431.5,-168.5 1366.5,-168.5"/>
<text text-anchor="middle" x="1399" y="-175.5" font-family="Helvetica,sans-Serif" font-size="10.00">functional</text>
</a>
</g>
</g>
<!-- Node24&#45;&gt;Node26 -->
<g id="edge25" class="edge">
<title>Node24&#45;&gt;Node26</title>
<path fill="none" stroke="midnightblue" d="M1335.6,-229.98C1347.25,-220.61 1366.19,-205.38 1380.33,-194.01"/>
<polygon fill="midnightblue" stroke="midnightblue" points="1382.82,-196.5 1388.42,-187.51 1378.43,-191.05 1382.82,-196.5"/>
</g>
<!-- Node27 -->
<g id="node19" class="node">
<title>Node27</title>
<g id="a_node19"><a xlink:title=" ">
<polygon fill="white" stroke="#bfbfbf" points="1450,-168.5 1450,-187.5 1494,-187.5 1494,-168.5 1450,-168.5"/>
<text text-anchor="middle" x="1472" y="-175.5" font-family="Helvetica,sans-Serif" font-size="10.00">limits</text>
</a>
</g>
</g>
<!-- Node24&#45;&gt;Node27 -->
<g id="edge26" class="edge">
<title>Node24&#45;&gt;Node27</title>
<path fill="none" stroke="midnightblue" d="M1346.06,-229.98C1371.06,-219.86 1412.94,-202.9 1441.49,-191.35"/>
<polygon fill="midnightblue" stroke="midnightblue" points="1443.02,-194.51 1450.98,-187.51 1440.39,-188.02 1443.02,-194.51"/>
</g>
<!-- Node28 -->
<g id="node20" class="node">
<title>Node28</title>
<g id="a_node20"><a xlink:title=" ">
<polygon fill="white" stroke="#bfbfbf" points="1512.5,-168.5 1512.5,-187.5 1551.5,-187.5 1551.5,-168.5 1512.5,-168.5"/>
<text text-anchor="middle" x="1532" y="-175.5" font-family="Helvetica,sans-Serif" font-size="10.00">ratio</text>
</a>
</g>
</g>
<!-- Node24&#45;&gt;Node28 -->
<g id="edge27" class="edge">
<title>Node24&#45;&gt;Node28</title>
<path fill="none" stroke="midnightblue" d="M1355.94,-229.97C1389.62,-220.63 1445.31,-205.03 1502.76,-188.02"/>
<polygon fill="midnightblue" stroke="midnightblue" points="1503.77,-191.37 1512.36,-185.17 1501.78,-184.66 1503.77,-191.37"/>
</g>
<!-- Node29&#45;&gt;Node4 -->
<g id="edge31" class="edge">
<title>Node29&#45;&gt;Node4</title>
<path fill="none" stroke="midnightblue" d="M952.47,-291.18C953.23,-268.74 952.59,-208.39 927,-168 900.45,-126.1 849.74,-96.02 817.46,-80.08"/>
<polygon fill="midnightblue" stroke="midnightblue" points="818.61,-76.75 808.08,-75.59 815.59,-83.06 818.61,-76.75"/>
</g>
<!-- Node29&#45;&gt;Node10 -->
<g id="edge39" class="edge">
<title>Node29&#45;&gt;Node10</title>
<path fill="none" stroke="midnightblue" d="M947.04,-291.3C935.75,-271.5 907.97,-222.78 892.98,-196.49"/>
<polygon fill="midnightblue" stroke="midnightblue" points="895.91,-194.58 887.92,-187.62 889.83,-198.04 895.91,-194.58"/>
</g>
<!-- Node30 -->
<g id="node22" class="node">
<title>Node30</title>
<g id="a_node22"><a xlink:href="pretty__printer_8h.html" target="_top" xlink:title=" ">
<polygon fill="white" stroke="red" points="356.5,-224.5 356.5,-254.5 489.5,-254.5 489.5,-224.5 356.5,-224.5"/>
<text text-anchor="start" x="364.5" y="-242.5" font-family="Helvetica,sans-Serif" font-size="10.00">emlabcpp/experimental</text>
<text text-anchor="middle" x="423" y="-231.5" font-family="Helvetica,sans-Serif" font-size="10.00">/pretty_printer.h</text>
</a>
</g>
</g>
<!-- Node29&#45;&gt;Node30 -->
<g id="edge32" class="edge">
<title>Node29&#45;&gt;Node30</title>
<path fill="none" stroke="midnightblue" d="M882.2,-292.83C799.69,-284.26 658.27,-269.29 537,-255 524.88,-253.57 512.05,-252 499.53,-250.43"/>
<polygon fill="midnightblue" stroke="midnightblue" points="499.94,-246.96 489.59,-249.18 499.07,-253.9 499.94,-246.96"/>
</g>
<!-- Node35 -->
<g id="node23" class="node">
<title>Node35</title>
<g id="a_node23"><a xlink:href="iterator_8h.html" target="_top" xlink:title=" ">
<polygon fill="white" stroke="red" points="980,-230 980,-249 1092,-249 1092,-230 980,-230"/>
<text text-anchor="middle" x="1036" y="-237" font-family="Helvetica,sans-Serif" font-size="10.00">emlabcpp/iterator.h</text>
</a>
</g>
</g>
<!-- Node29&#45;&gt;Node35 -->
<g id="edge36" class="edge">
<title>Node29&#45;&gt;Node35</title>
<path fill="none" stroke="midnightblue" d="M964.04,-291.48C977.51,-281.93 999.57,-266.31 1015.72,-254.87"/>
<polygon fill="midnightblue" stroke="midnightblue" points="1017.85,-257.65 1023.99,-249.01 1013.8,-251.93 1017.85,-257.65"/>
</g>
<!-- Node36 -->
<g id="node24" class="node">
<title>Node36</title>
<g id="a_node24"><a xlink:title=" ">
<polygon fill="white" stroke="#bfbfbf" points="1110.5,-230 1110.5,-249 1147.5,-249 1147.5,-230 1110.5,-230"/>
<text text-anchor="middle" x="1129" y="-237" font-family="Helvetica,sans-Serif" font-size="10.00">new</text>
</a>
</g>
</g>
<!-- Node29&#45;&gt;Node36 -->
<g id="edge38" class="edge">
<title>Node29&#45;&gt;Node36</title>
<path fill="none" stroke="midnightblue" d="M986.65,-291.48C1017.25,-283.5 1062.82,-270.5 1101,-255 1102.04,-254.58 1103.09,-254.13 1104.15,-253.66"/>
<polygon fill="midnightblue" stroke="midnightblue" points="1106.05,-256.64 1113.54,-249.15 1103.01,-250.33 1106.05,-256.64"/>
</g>
<!-- Node37 -->
<g id="node25" class="node">
<title>Node37</title>
<g id="a_node25"><a xlink:title=" ">
<polygon fill="white" stroke="#bfbfbf" points="1165.5,-230 1165.5,-249 1210.5,-249 1210.5,-230 1165.5,-230"/>
<text text-anchor="middle" x="1188" y="-237" font-family="Helvetica,sans-Serif" font-size="10.00">utility</text>
</a>
</g>
</g>
<!-- Node29&#45;&gt;Node37 -->
<g id="edge40" class="edge">
<title>Node29&#45;&gt;Node37</title>
<path fill="none" stroke="midnightblue" d="M1006.41,-291.45C1048.25,-284.06 1107.13,-271.9 1157,-255 1158.66,-254.44 1160.36,-253.81 1162.05,-253.14"/>
<polygon fill="midnightblue" stroke="midnightblue" points="1163.77,-256.21 1171.55,-249.02 1160.98,-249.79 1163.77,-256.21"/>
</g>
<!-- Node30&#45;&gt;Node4 -->
<g id="edge33" class="edge">
<title>Node30&#45;&gt;Node4</title>
<path fill="none" stroke="midnightblue" d="M443.19,-224.38C465.32,-209.27 502.18,-185.16 536,-168 610.72,-130.09 703.17,-96.13 752.7,-78.92"/>
<polygon fill="midnightblue" stroke="midnightblue" points="754,-82.17 762.31,-75.6 751.72,-75.55 754,-82.17"/>
</g>
<!-- Node30&#45;&gt;Node14 -->
<g id="edge35" class="edge">
<title>Node30&#45;&gt;Node14</title>
<path fill="none" stroke="midnightblue" d="M359.11,-224.39C316.21,-214.17 264.16,-200.08 245,-188 176.9,-145.08 121.42,-63.75 99.32,-28.27"/>
<polygon fill="midnightblue" stroke="midnightblue" points="102.19,-26.26 93.99,-19.55 96.22,-29.91 102.19,-26.26"/>
</g>
<!-- Node30&#45;&gt;Node15 -->
<g id="edge34" class="edge">
<title>Node30&#45;&gt;Node15</title>
<path fill="none" stroke="midnightblue" d="M458.55,-224.4C483.83,-214.37 517.47,-201.03 541.73,-191.4"/>
<polygon fill="midnightblue" stroke="midnightblue" points="543.17,-194.6 551.17,-187.66 540.59,-188.09 543.17,-194.6"/>
</g>
<!-- Node35&#45;&gt;Node21 -->
<g id="edge37" class="edge">
<title>Node35&#45;&gt;Node21</title>
<path fill="none" stroke="midnightblue" d="M1036,-229.98C1036,-221.58 1036,-208.48 1036,-197.66"/>
<polygon fill="midnightblue" stroke="midnightblue" points="1039.5,-197.51 1036,-187.51 1032.5,-197.51 1039.5,-197.51"/>
</g>
</g>
</svg>
