<?xml version="1.0" encoding="UTF-8" standalone="no"?>
<!DOCTYPE svg PUBLIC "-//W3C//DTD SVG 1.1//EN"
 "http://www.w3.org/Graphics/SVG/1.1/DTD/svg11.dtd">
<!-- Generated by graphviz version 2.43.0 (0)
 -->
<!-- Title: include/emlabcpp/protocol/decl.h Pages: 1 -->
<svg width="1272pt" height="319pt"
 viewBox="0.00 0.00 1271.95 319.00" xmlns="http://www.w3.org/2000/svg" xmlns:xlink="http://www.w3.org/1999/xlink">
<g id="graph0" class="graph" transform="scale(1 1) rotate(0) translate(4 315)">
<title>include/emlabcpp/protocol/decl.h</title>
<polygon fill="white" stroke="transparent" points="-4,4 -4,-315 1267.95,-315 1267.95,4 -4,4"/>
<!-- Node1 -->
<g id="node1" class="node">
<title>Node1</title>
<g id="a_node1"><a xlink:title=" ">
<polygon fill="#bfbfbf" stroke="black" points="601,-280.5 601,-310.5 747,-310.5 747,-280.5 601,-280.5"/>
<text text-anchor="start" x="609" y="-298.5" font-family="Helvetica,sans-Serif" font-size="10.00">include/emlabcpp/protocol</text>
<text text-anchor="middle" x="674" y="-287.5" font-family="Helvetica,sans-Serif" font-size="10.00">/decl.h</text>
</a>
</g>
</g>
<!-- Node2 -->
<g id="node2" class="node">
<title>Node2</title>
<g id="a_node2"><a xlink:href="protocol_2base_8h.html" target="_top" xlink:title=" ">
<polygon fill="white" stroke="black" points="468.5,-224.5 468.5,-243.5 611.5,-243.5 611.5,-224.5 468.5,-224.5"/>
<text text-anchor="middle" x="540" y="-231.5" font-family="Helvetica,sans-Serif" font-size="10.00">emlabcpp/protocol/base.h</text>
</a>
</g>
</g>
<!-- Node1&#45;&gt;Node2 -->
<g id="edge1" class="edge">
<title>Node1&#45;&gt;Node2</title>
<path fill="none" stroke="midnightblue" d="M642.24,-280.4C619.96,-270.51 590.41,-257.38 568.81,-247.79"/>
<polygon fill="midnightblue" stroke="midnightblue" points="570.06,-244.52 559.5,-243.66 567.22,-250.91 570.06,-244.52"/>
</g>
<!-- Node14 -->
<g id="node7" class="node">
<title>Node14</title>
<g id="a_node7"><a xlink:href="protocol_2error_8h.html" target="_top" xlink:title=" ">
<polygon fill="white" stroke="red" points="0,-168.5 0,-187.5 142,-187.5 142,-168.5 0,-168.5"/>
<text text-anchor="middle" x="71" y="-175.5" font-family="Helvetica,sans-Serif" font-size="10.00">emlabcpp/protocol/error.h</text>
</a>
</g>
</g>
<!-- Node1&#45;&gt;Node14 -->
<g id="edge12" class="edge">
<title>Node1&#45;&gt;Node14</title>
<path fill="none" stroke="midnightblue" d="M600.95,-282.03C543.53,-272.1 461.57,-257.65 390,-244 294.81,-225.84 184.04,-202.85 121.25,-189.64"/>
<polygon fill="midnightblue" stroke="midnightblue" points="121.73,-186.17 111.22,-187.53 120.29,-193.02 121.73,-186.17"/>
</g>
<!-- Node18 -->
<g id="node11" class="node">
<title>Node18</title>
<g id="a_node11"><a xlink:title=" ">
<polygon fill="white" stroke="#bfbfbf" points="648.5,-168.5 648.5,-187.5 699.5,-187.5 699.5,-168.5 648.5,-168.5"/>
<text text-anchor="middle" x="674" y="-175.5" font-family="Helvetica,sans-Serif" font-size="10.00">variant</text>
</a>
</g>
</g>
<!-- Node1&#45;&gt;Node18 -->
<g id="edge37" class="edge">
<title>Node1&#45;&gt;Node18</title>
<path fill="none" stroke="midnightblue" d="M674,-280.34C674,-259.62 674,-221.02 674,-197.9"/>
<polygon fill="midnightblue" stroke="midnightblue" points="677.5,-197.67 674,-187.67 670.5,-197.67 677.5,-197.67"/>
</g>
<!-- Node19 -->
<g id="node12" class="node">
<title>Node19</title>
<g id="a_node12"><a xlink:href="message_8h.html" target="_top" xlink:title=" ">
<polygon fill="white" stroke="black" points="160,-168.5 160,-187.5 324,-187.5 324,-168.5 160,-168.5"/>
<text text-anchor="middle" x="242" y="-175.5" font-family="Helvetica,sans-Serif" font-size="10.00">emlabcpp/protocol/message.h</text>
</a>
</g>
</g>
<!-- Node1&#45;&gt;Node19 -->
<g id="edge13" class="edge">
<title>Node1&#45;&gt;Node19</title>
<path fill="none" stroke="midnightblue" d="M609.78,-280.48C566.91,-270.86 509.38,-257.45 459,-244 394.98,-226.91 321.23,-204.16 278.29,-190.6"/>
<polygon fill="midnightblue" stroke="midnightblue" points="279.17,-187.21 268.58,-187.53 277.05,-193.88 279.17,-187.21"/>
</g>
<!-- Node21 -->
<g id="node14" class="node">
<title>Node21</title>
<g id="a_node14"><a xlink:href="types_8h.html" target="_top" xlink:title=" ">
<polygon fill="white" stroke="red" points="945,-56.5 945,-75.5 1049,-75.5 1049,-56.5 945,-56.5"/>
<text text-anchor="middle" x="997" y="-63.5" font-family="Helvetica,sans-Serif" font-size="10.00">emlabcpp/types.h</text>
</a>
</g>
</g>
<!-- Node1&#45;&gt;Node21 -->
<g id="edge36" class="edge">
<title>Node1&#45;&gt;Node21</title>
<path fill="none" stroke="midnightblue" d="M747.13,-286.77C892.74,-269.53 1209.31,-222.2 1260,-132 1264.35,-124.25 1265.73,-118.79 1260,-112 1234.86,-82.19 1129.04,-72.13 1059.53,-68.73"/>
<polygon fill="midnightblue" stroke="midnightblue" points="1059.28,-65.22 1049.13,-68.26 1058.96,-72.21 1059.28,-65.22"/>
</g>
<!-- Node23 -->
<g id="node16" class="node">
<title>Node23</title>
<g id="a_node16"><a xlink:href="quantity_8h.html" target="_top" xlink:title=" ">
<polygon fill="white" stroke="black" points="1043,-168.5 1043,-187.5 1159,-187.5 1159,-168.5 1043,-168.5"/>
<text text-anchor="middle" x="1101" y="-175.5" font-family="Helvetica,sans-Serif" font-size="10.00">emlabcpp/quantity.h</text>
</a>
</g>
</g>
<!-- Node1&#45;&gt;Node23 -->
<g id="edge21" class="edge">
<title>Node1&#45;&gt;Node23</title>
<path fill="none" stroke="midnightblue" d="M747.02,-286.4C804.65,-278.83 886.61,-265.41 956,-244 999.86,-230.47 1047.96,-207.07 1076.26,-192.34"/>
<polygon fill="midnightblue" stroke="midnightblue" points="1078.19,-195.28 1085.4,-187.53 1074.92,-189.09 1078.19,-195.28"/>
</g>
<!-- Node28 -->
<g id="node21" class="node">
<title>Node28</title>
<g id="a_node21"><a xlink:href="static__vector_8h.html" target="_top" xlink:title=" ">
<polygon fill="white" stroke="black" points="807.5,-224.5 807.5,-243.5 946.5,-243.5 946.5,-224.5 807.5,-224.5"/>
<text text-anchor="middle" x="877" y="-231.5" font-family="Helvetica,sans-Serif" font-size="10.00">emlabcpp/static_vector.h</text>
</a>
</g>
</g>
<!-- Node1&#45;&gt;Node28 -->
<g id="edge29" class="edge">
<title>Node1&#45;&gt;Node28</title>
<path fill="none" stroke="midnightblue" d="M721.85,-280.47C757.33,-270.08 805.09,-256.08 838.2,-246.37"/>
<polygon fill="midnightblue" stroke="midnightblue" points="839.37,-249.68 847.98,-243.51 837.4,-242.96 839.37,-249.68"/>
</g>
<!-- Node3 -->
<g id="node3" class="node">
<title>Node3</title>
<g id="a_node3"><a xlink:href="bounded_8h.html" target="_top" xlink:title=" ">
<polygon fill="white" stroke="black" points="342.5,-168.5 342.5,-187.5 461.5,-187.5 461.5,-168.5 342.5,-168.5"/>
<text text-anchor="middle" x="402" y="-175.5" font-family="Helvetica,sans-Serif" font-size="10.00">emlabcpp/bounded.h</text>
</a>
</g>
</g>
<!-- Node2&#45;&gt;Node3 -->
<g id="edge2" class="edge">
<title>Node2&#45;&gt;Node3</title>
<path fill="none" stroke="midnightblue" d="M518.13,-224.44C495.22,-215.48 459.02,-201.31 433.13,-191.18"/>
<polygon fill="midnightblue" stroke="midnightblue" points="434.35,-187.9 423.76,-187.52 431.8,-194.42 434.35,-187.9"/>
</g>
<!-- Node10 -->
<g id="node6" class="node">
<title>Node10</title>
<g id="a_node6"><a xlink:title=" ">
<polygon fill="white" stroke="#bfbfbf" points="798.5,-112.5 798.5,-131.5 867.5,-131.5 867.5,-112.5 798.5,-112.5"/>
<text text-anchor="middle" x="833" y="-119.5" font-family="Helvetica,sans-Serif" font-size="10.00">type_traits</text>
</a>
</g>
</g>
<!-- Node2&#45;&gt;Node10 -->
<g id="edge10" class="edge">
<title>Node2&#45;&gt;Node10</title>
<path fill="none" stroke="midnightblue" d="M529.96,-224.13C515.98,-210.73 493.97,-185.08 509,-168 548.72,-122.86 712.26,-140.64 788.2,-131.92"/>
<polygon fill="midnightblue" stroke="midnightblue" points="788.89,-135.36 798.31,-130.51 787.92,-128.43 788.89,-135.36"/>
</g>
<!-- Node2&#45;&gt;Node14 -->
<g id="edge6" class="edge">
<title>Node2&#45;&gt;Node14</title>
<path fill="none" stroke="midnightblue" d="M468.26,-224.74C383.14,-214.94 241.56,-198.64 152.42,-188.37"/>
<polygon fill="midnightblue" stroke="midnightblue" points="152.68,-184.88 142.35,-187.22 151.88,-191.84 152.68,-184.88"/>
</g>
<!-- Node16 -->
<g id="node9" class="node">
<title>Node16</title>
<g id="a_node9"><a xlink:title=" ">
<polygon fill="white" stroke="#bfbfbf" points="518,-168.5 518,-187.5 562,-187.5 562,-168.5 518,-168.5"/>
<text text-anchor="middle" x="540" y="-175.5" font-family="Helvetica,sans-Serif" font-size="10.00">bitset</text>
</a>
</g>
</g>
<!-- Node2&#45;&gt;Node16 -->
<g id="edge8" class="edge">
<title>Node2&#45;&gt;Node16</title>
<path fill="none" stroke="midnightblue" d="M540,-224.08C540,-217.01 540,-206.86 540,-197.99"/>
<polygon fill="midnightblue" stroke="midnightblue" points="543.5,-197.75 540,-187.75 536.5,-197.75 543.5,-197.75"/>
</g>
<!-- Node17 -->
<g id="node10" class="node">
<title>Node17</title>
<g id="a_node10"><a xlink:title=" ">
<polygon fill="white" stroke="#bfbfbf" points="580,-168.5 580,-187.5 630,-187.5 630,-168.5 580,-168.5"/>
<text text-anchor="middle" x="605" y="-175.5" font-family="Helvetica,sans-Serif" font-size="10.00">cstring</text>
</a>
</g>
</g>
<!-- Node2&#45;&gt;Node17 -->
<g id="edge9" class="edge">
<title>Node2&#45;&gt;Node17</title>
<path fill="none" stroke="midnightblue" d="M550.44,-224.32C560.15,-216.26 574.82,-204.08 586.5,-194.37"/>
<polygon fill="midnightblue" stroke="midnightblue" points="588.91,-196.92 594.37,-187.83 584.44,-191.53 588.91,-196.92"/>
</g>
<!-- Node2&#45;&gt;Node18 -->
<g id="edge11" class="edge">
<title>Node2&#45;&gt;Node18</title>
<path fill="none" stroke="midnightblue" d="M561.23,-224.44C583.38,-215.52 618.32,-201.44 643.44,-191.32"/>
<polygon fill="midnightblue" stroke="midnightblue" points="644.9,-194.5 652.87,-187.52 642.28,-188.01 644.9,-194.5"/>
</g>
<!-- Node4 -->
<g id="node4" class="node">
<title>Node4</title>
<g id="a_node4"><a xlink:href="concepts_8h.html" target="_top" xlink:title=" ">
<polygon fill="white" stroke="red" points="836,-0.5 836,-19.5 956,-19.5 956,-0.5 836,-0.5"/>
<text text-anchor="middle" x="896" y="-7.5" font-family="Helvetica,sans-Serif" font-size="10.00">emlabcpp/concepts.h</text>
</a>
</g>
</g>
<!-- Node3&#45;&gt;Node4 -->
<g id="edge3" class="edge">
<title>Node3&#45;&gt;Node4</title>
<path fill="none" stroke="midnightblue" d="M427.52,-168.42C509.58,-140.85 766.82,-54.41 861,-22.76"/>
<polygon fill="midnightblue" stroke="midnightblue" points="862.27,-26.03 870.63,-19.52 860.04,-19.39 862.27,-26.03"/>
</g>
<!-- Node13 -->
<g id="node5" class="node">
<title>Node13</title>
<g id="a_node5"><a xlink:title=" ">
<polygon fill="white" stroke="#bfbfbf" points="347,-112.5 347,-131.5 403,-131.5 403,-112.5 347,-112.5"/>
<text text-anchor="middle" x="375" y="-119.5" font-family="Helvetica,sans-Serif" font-size="10.00">optional</text>
</a>
</g>
</g>
<!-- Node3&#45;&gt;Node13 -->
<g id="edge4" class="edge">
<title>Node3&#45;&gt;Node13</title>
<path fill="none" stroke="midnightblue" d="M397.54,-168.08C393.85,-160.69 388.48,-149.95 383.91,-140.81"/>
<polygon fill="midnightblue" stroke="midnightblue" points="386.98,-139.13 379.38,-131.75 380.72,-142.26 386.98,-139.13"/>
</g>
<!-- Node3&#45;&gt;Node10 -->
<g id="edge5" class="edge">
<title>Node3&#45;&gt;Node10</title>
<path fill="none" stroke="midnightblue" d="M461.77,-169.69C466.58,-169.12 471.37,-168.55 476,-168 612.23,-151.91 649.59,-154.29 788.16,-132.18"/>
<polygon fill="midnightblue" stroke="midnightblue" points="789,-135.59 798.32,-130.55 787.89,-128.68 789,-135.59"/>
</g>
<!-- Node6 -->
<g id="node8" class="node">
<title>Node6</title>
<g id="a_node8"><a xlink:title=" ">
<polygon fill="white" stroke="#bfbfbf" points="136,-112.5 136,-131.5 178,-131.5 178,-112.5 136,-112.5"/>
<text text-anchor="middle" x="157" y="-119.5" font-family="Helvetica,sans-Serif" font-size="10.00">array</text>
</a>
</g>
</g>
<!-- Node14&#45;&gt;Node6 -->
<g id="edge7" class="edge">
<title>Node14&#45;&gt;Node6</title>
<path fill="none" stroke="midnightblue" d="M84.82,-168.32C98.23,-159.9 118.82,-146.97 134.59,-137.07"/>
<polygon fill="midnightblue" stroke="midnightblue" points="136.61,-139.94 143.22,-131.65 132.89,-134.01 136.61,-139.94"/>
</g>
<!-- Node19&#45;&gt;Node4 -->
<g id="edge14" class="edge">
<title>Node19&#45;&gt;Node4</title>
<path fill="none" stroke="midnightblue" d="M251.57,-168.48C267.99,-154.34 303.15,-126.21 338,-112 504.47,-44.13 717.37,-21.69 825.76,-14.41"/>
<polygon fill="midnightblue" stroke="midnightblue" points="826.17,-17.89 835.92,-13.75 825.71,-10.9 826.17,-17.89"/>
</g>
<!-- Node19&#45;&gt;Node13 -->
<g id="edge20" class="edge">
<title>Node19&#45;&gt;Node13</title>
<path fill="none" stroke="midnightblue" d="M263.07,-168.44C285.06,-159.52 319.73,-145.44 344.66,-135.32"/>
<polygon fill="midnightblue" stroke="midnightblue" points="346.08,-138.52 354.02,-131.52 343.44,-132.04 346.08,-138.52"/>
</g>
<!-- Node19&#45;&gt;Node6 -->
<g id="edge19" class="edge">
<title>Node19&#45;&gt;Node6</title>
<path fill="none" stroke="midnightblue" d="M228.34,-168.32C215.08,-159.9 194.73,-146.97 179.15,-137.07"/>
<polygon fill="midnightblue" stroke="midnightblue" points="180.94,-134.06 170.62,-131.65 177.19,-139.97 180.94,-134.06"/>
</g>
<!-- Node20 -->
<g id="node13" class="node">
<title>Node20</title>
<g id="a_node13"><a xlink:href="view_8h.html" target="_top" xlink:title=" ">
<polygon fill="white" stroke="black" points="681.5,-112.5 681.5,-131.5 780.5,-131.5 780.5,-112.5 681.5,-112.5"/>
<text text-anchor="middle" x="731" y="-119.5" font-family="Helvetica,sans-Serif" font-size="10.00">emlabcpp/view.h</text>
</a>
</g>
</g>
<!-- Node19&#45;&gt;Node20 -->
<g id="edge15" class="edge">
<title>Node19&#45;&gt;Node20</title>
<path fill="none" stroke="midnightblue" d="M319.21,-168.47C416.81,-157.7 582.74,-139.37 671.23,-129.6"/>
<polygon fill="midnightblue" stroke="midnightblue" points="671.82,-133.06 681.37,-128.48 671.05,-126.1 671.82,-133.06"/>
</g>
<!-- Node20&#45;&gt;Node21 -->
<g id="edge16" class="edge">
<title>Node20&#45;&gt;Node21</title>
<path fill="none" stroke="midnightblue" d="M773.15,-112.44C819.75,-102.98 894.84,-87.74 945.05,-77.55"/>
<polygon fill="midnightblue" stroke="midnightblue" points="945.94,-80.94 955.05,-75.52 944.55,-74.08 945.94,-80.94"/>
</g>
<!-- Node21&#45;&gt;Node4 -->
<g id="edge17" class="edge">
<title>Node21&#45;&gt;Node4</title>
<path fill="none" stroke="midnightblue" d="M980.77,-56.32C964.65,-47.7 939.7,-34.36 921.04,-24.39"/>
<polygon fill="midnightblue" stroke="midnightblue" points="922.66,-21.28 912.19,-19.65 919.36,-27.46 922.66,-21.28"/>
</g>
<!-- Node22 -->
<g id="node15" class="node">
<title>Node22</title>
<g id="a_node15"><a xlink:title=" ">
<polygon fill="white" stroke="#bfbfbf" points="995,-0.5 995,-19.5 1039,-19.5 1039,-0.5 995,-0.5"/>
<text text-anchor="middle" x="1017" y="-7.5" font-family="Helvetica,sans-Serif" font-size="10.00">string</text>
</a>
</g>
</g>
<!-- Node21&#45;&gt;Node22 -->
<g id="edge18" class="edge">
<title>Node21&#45;&gt;Node22</title>
<path fill="none" stroke="midnightblue" d="M1000.3,-56.08C1002.98,-48.85 1006.85,-38.41 1010.19,-29.4"/>
<polygon fill="midnightblue" stroke="midnightblue" points="1013.57,-30.34 1013.76,-19.75 1007,-27.91 1013.57,-30.34"/>
</g>
<!-- Node23&#45;&gt;Node4 -->
<g id="edge22" class="edge">
<title>Node23&#45;&gt;Node4</title>
<path fill="none" stroke="midnightblue" d="M1102.53,-168.3C1104.4,-155.55 1106.57,-131.22 1100,-112 1089.94,-82.56 1083.69,-73.54 1058,-56 1030.93,-37.51 996.43,-26.59 966.23,-20.14"/>
<polygon fill="midnightblue" stroke="midnightblue" points="966.67,-16.66 956.18,-18.13 965.29,-23.53 966.67,-16.66"/>
</g>
<!-- Node23&#45;&gt;Node10 -->
<g id="edge28" class="edge">
<title>Node23&#45;&gt;Node10</title>
<path fill="none" stroke="midnightblue" d="M1058.53,-168.44C1009.1,-158.48 927.83,-142.11 877.53,-131.97"/>
<polygon fill="midnightblue" stroke="midnightblue" points="878.09,-128.52 867.6,-129.97 876.71,-135.38 878.09,-128.52"/>
</g>
<!-- Node23&#45;&gt;Node22 -->
<g id="edge27" class="edge">
<title>Node23&#45;&gt;Node22</title>
<path fill="none" stroke="midnightblue" d="M1102.53,-168.3C1104.4,-155.55 1106.57,-131.22 1100,-112 1087.74,-76.14 1056.16,-44.09 1035.68,-26.13"/>
<polygon fill="midnightblue" stroke="midnightblue" points="1037.81,-23.35 1027.92,-19.54 1033.28,-28.69 1037.81,-23.35"/>
</g>
<!-- Node24 -->
<g id="node17" class="node">
<title>Node24</title>
<g id="a_node17"><a xlink:title=" ">
<polygon fill="white" stroke="#bfbfbf" points="1043.5,-112.5 1043.5,-131.5 1090.5,-131.5 1090.5,-112.5 1043.5,-112.5"/>
<text text-anchor="middle" x="1067" y="-119.5" font-family="Helvetica,sans-Serif" font-size="10.00">cmath</text>
</a>
</g>
</g>
<!-- Node23&#45;&gt;Node24 -->
<g id="edge23" class="edge">
<title>Node23&#45;&gt;Node24</title>
<path fill="none" stroke="midnightblue" d="M1095.39,-168.08C1090.63,-160.53 1083.68,-149.49 1077.85,-140.23"/>
<polygon fill="midnightblue" stroke="midnightblue" points="1080.8,-138.35 1072.51,-131.75 1074.88,-142.08 1080.8,-138.35"/>
</g>
<!-- Node25 -->
<g id="node18" class="node">
<title>Node25</title>
<g id="a_node18"><a xlink:title=" ">
<polygon fill="white" stroke="#bfbfbf" points="1185.5,-112.5 1185.5,-131.5 1250.5,-131.5 1250.5,-112.5 1185.5,-112.5"/>
<text text-anchor="middle" x="1218" y="-119.5" font-family="Helvetica,sans-Serif" font-size="10.00">functional</text>
</a>
</g>
</g>
<!-- Node23&#45;&gt;Node25 -->
<g id="edge24" class="edge">
<title>Node23&#45;&gt;Node25</title>
<path fill="none" stroke="midnightblue" d="M1119.54,-168.44C1138.62,-159.64 1168.57,-145.81 1190.44,-135.72"/>
<polygon fill="midnightblue" stroke="midnightblue" points="1191.93,-138.88 1199.55,-131.52 1189,-132.53 1191.93,-138.88"/>
</g>
<!-- Node26 -->
<g id="node19" class="node">
<title>Node26</title>
<g id="a_node19"><a xlink:title=" ">
<polygon fill="white" stroke="#bfbfbf" points="924,-112.5 924,-131.5 968,-131.5 968,-112.5 924,-112.5"/>
<text text-anchor="middle" x="946" y="-119.5" font-family="Helvetica,sans-Serif" font-size="10.00">limits</text>
</a>
</g>
</g>
<!-- Node23&#45;&gt;Node26 -->
<g id="edge25" class="edge">
<title>Node23&#45;&gt;Node26</title>
<path fill="none" stroke="midnightblue" d="M1076.44,-168.44C1049.87,-159.19 1007.39,-144.39 978.17,-134.21"/>
<polygon fill="midnightblue" stroke="midnightblue" points="979.03,-130.8 968.43,-130.82 976.72,-137.41 979.03,-130.8"/>
</g>
<!-- Node27 -->
<g id="node20" class="node">
<title>Node27</title>
<g id="a_node20"><a xlink:title=" ">
<polygon fill="white" stroke="#bfbfbf" points="986.5,-112.5 986.5,-131.5 1025.5,-131.5 1025.5,-112.5 986.5,-112.5"/>
<text text-anchor="middle" x="1006" y="-119.5" font-family="Helvetica,sans-Serif" font-size="10.00">ratio</text>
</a>
</g>
</g>
<!-- Node23&#45;&gt;Node27 -->
<g id="edge26" class="edge">
<title>Node23&#45;&gt;Node27</title>
<path fill="none" stroke="midnightblue" d="M1085.74,-168.32C1070.78,-159.82 1047.75,-146.73 1030.27,-136.8"/>
<polygon fill="midnightblue" stroke="midnightblue" points="1031.65,-133.55 1021.23,-131.65 1028.19,-139.64 1031.65,-133.55"/>
</g>
<!-- Node28&#45;&gt;Node4 -->
<g id="edge30" class="edge">
<title>Node28&#45;&gt;Node4</title>
<path fill="none" stroke="midnightblue" d="M877.74,-224.3C880.54,-191.63 890.45,-75.87 894.38,-29.96"/>
<polygon fill="midnightblue" stroke="midnightblue" points="897.87,-30.15 895.24,-19.88 890.9,-29.55 897.87,-30.15"/>
</g>
<!-- Node28&#45;&gt;Node10 -->
<g id="edge34" class="edge">
<title>Node28&#45;&gt;Node10</title>
<path fill="none" stroke="midnightblue" d="M873.55,-224.37C866.38,-206.46 849.77,-164.92 840.18,-140.95"/>
<polygon fill="midnightblue" stroke="midnightblue" points="843.4,-139.58 836.44,-131.59 836.9,-142.18 843.4,-139.58"/>
</g>
<!-- Node29 -->
<g id="node22" class="node">
<title>Node29</title>
<g id="a_node22"><a xlink:href="iterator_8h.html" target="_top" xlink:title=" ">
<polygon fill="white" stroke="red" points="718,-168.5 718,-187.5 830,-187.5 830,-168.5 718,-168.5"/>
<text text-anchor="middle" x="774" y="-175.5" font-family="Helvetica,sans-Serif" font-size="10.00">emlabcpp/iterator.h</text>
</a>
</g>
</g>
<!-- Node28&#45;&gt;Node29 -->
<g id="edge31" class="edge">
<title>Node28&#45;&gt;Node29</title>
<path fill="none" stroke="midnightblue" d="M860.45,-224.32C844.01,-215.7 818.57,-202.36 799.53,-192.39"/>
<polygon fill="midnightblue" stroke="midnightblue" points="800.99,-189.2 790.51,-187.65 797.74,-195.4 800.99,-189.2"/>
</g>
<!-- Node31 -->
<g id="node23" class="node">
<title>Node31</title>
<g id="a_node23"><a xlink:title=" ">
<polygon fill="white" stroke="#bfbfbf" points="924.5,-168.5 924.5,-187.5 961.5,-187.5 961.5,-168.5 924.5,-168.5"/>
<text text-anchor="middle" x="943" y="-175.5" font-family="Helvetica,sans-Serif" font-size="10.00">new</text>
</a>
</g>
</g>
<!-- Node28&#45;&gt;Node31 -->
<g id="edge33" class="edge">
<title>Node28&#45;&gt;Node31</title>
<path fill="none" stroke="midnightblue" d="M887.6,-224.32C897.46,-216.26 912.35,-204.08 924.22,-194.37"/>
<polygon fill="midnightblue" stroke="midnightblue" points="926.68,-196.88 932.2,-187.83 922.25,-191.46 926.68,-196.88"/>
</g>
<!-- Node32 -->
<g id="node24" class="node">
<title>Node32</title>
<g id="a_node24"><a xlink:title=" ">
<polygon fill="white" stroke="#bfbfbf" points="979.5,-168.5 979.5,-187.5 1024.5,-187.5 1024.5,-168.5 979.5,-168.5"/>
<text text-anchor="middle" x="1002" y="-175.5" font-family="Helvetica,sans-Serif" font-size="10.00">utility</text>
</a>
</g>
</g>
<!-- Node28&#45;&gt;Node32 -->
<g id="edge35" class="edge">
<title>Node28&#45;&gt;Node32</title>
<path fill="none" stroke="midnightblue" d="M896.81,-224.44C917.29,-215.6 949.48,-201.69 972.86,-191.59"/>
<polygon fill="midnightblue" stroke="midnightblue" points="974.49,-194.7 982.29,-187.52 971.72,-188.27 974.49,-194.7"/>
</g>
<!-- Node29&#45;&gt;Node20 -->
<g id="edge32" class="edge">
<title>Node29&#45;&gt;Node20</title>
<path fill="none" stroke="midnightblue" d="M766.9,-168.08C760.76,-160.38 751.73,-149.03 744.26,-139.65"/>
<polygon fill="midnightblue" stroke="midnightblue" points="746.94,-137.39 737.97,-131.75 741.46,-141.75 746.94,-137.39"/>
</g>
</g>
</svg>
