<?xml version="1.0" encoding="UTF-8" standalone="no"?>
<!DOCTYPE svg PUBLIC "-//W3C//DTD SVG 1.1//EN"
 "http://www.w3.org/Graphics/SVG/1.1/DTD/svg11.dtd">
<!-- Generated by graphviz version 2.43.0 (0)
 -->
<!-- Title: include/emlabcpp/protocol/def.h Pages: 1 -->
<svg width="1671pt" height="341pt"
 viewBox="0.00 0.00 1671.00 341.00" xmlns="http://www.w3.org/2000/svg" xmlns:xlink="http://www.w3.org/1999/xlink">
<g id="graph0" class="graph" transform="scale(1 1) rotate(0) translate(4 337)">
<title>include/emlabcpp/protocol/def.h</title>
<polygon fill="white" stroke="transparent" points="-4,4 -4,-337 1667,-337 1667,4 -4,4"/>
<!-- Node1 -->
<g id="node1" class="node">
<title>Node1</title>
<g id="a_node1"><a xlink:title=" ">
<polygon fill="#bfbfbf" stroke="black" points="584,-302.5 584,-332.5 730,-332.5 730,-302.5 584,-302.5"/>
<text text-anchor="start" x="592" y="-320.5" font-family="Helvetica,sans-Serif" font-size="10.00">include/emlabcpp/protocol</text>
<text text-anchor="middle" x="657" y="-309.5" font-family="Helvetica,sans-Serif" font-size="10.00">/def.h</text>
</a>
</g>
</g>
<!-- Node2 -->
<g id="node2" class="node">
<title>Node2</title>
<g id="a_node2"><a xlink:href="algorithm_8h.html" target="_top" xlink:title=" ">
<polygon fill="white" stroke="black" points="576,-185 576,-204 700,-204 700,-185 576,-185"/>
<text text-anchor="middle" x="638" y="-192" font-family="Helvetica,sans-Serif" font-size="10.00">emlabcpp/algorithm.h</text>
</a>
</g>
</g>
<!-- Node1&#45;&gt;Node2 -->
<g id="edge1" class="edge">
<title>Node1&#45;&gt;Node2</title>
<path fill="none" stroke="midnightblue" d="M654.75,-302.14C651.3,-280.2 644.72,-238.33 640.92,-214.09"/>
<polygon fill="midnightblue" stroke="midnightblue" points="644.35,-213.39 639.34,-204.05 637.44,-214.47 644.35,-213.39"/>
</g>
<!-- Node22 -->
<g id="node12" class="node">
<title>Node22</title>
<g id="a_node12"><a xlink:href="assert_8h.html" target="_top" xlink:title=" ">
<polygon fill="white" stroke="black" points="18.5,-246.5 18.5,-265.5 125.5,-265.5 125.5,-246.5 18.5,-246.5"/>
<text text-anchor="middle" x="72" y="-253.5" font-family="Helvetica,sans-Serif" font-size="10.00">emlabcpp/assert.h</text>
</a>
</g>
</g>
<!-- Node1&#45;&gt;Node22 -->
<g id="edge14" class="edge">
<title>Node1&#45;&gt;Node22</title>
<path fill="none" stroke="midnightblue" d="M583.8,-309.05C468.26,-297.3 245.55,-274.65 136.01,-263.51"/>
<polygon fill="midnightblue" stroke="midnightblue" points="136.07,-260 125.77,-262.47 135.37,-266.96 136.07,-260"/>
</g>
<!-- Node24 -->
<g id="node14" class="node">
<title>Node24</title>
<g id="a_node14"><a xlink:href="either_8h.html" target="_top" xlink:title=" ">
<polygon fill="white" stroke="black" points="256,-246.5 256,-265.5 360,-265.5 360,-246.5 256,-246.5"/>
<text text-anchor="middle" x="308" y="-253.5" font-family="Helvetica,sans-Serif" font-size="10.00">emlabcpp/either.h</text>
</a>
</g>
</g>
<!-- Node1&#45;&gt;Node24 -->
<g id="edge16" class="edge">
<title>Node1&#45;&gt;Node24</title>
<path fill="none" stroke="midnightblue" d="M583.84,-304.03C519.78,-293.11 427.85,-277.43 368.03,-267.24"/>
<polygon fill="midnightblue" stroke="midnightblue" points="368.43,-263.75 357.99,-265.52 367.26,-270.65 368.43,-263.75"/>
</g>
<!-- Node34 -->
<g id="node18" class="node">
<title>Node34</title>
<g id="a_node18"><a xlink:href="bounded__view_8h.html" target="_top" xlink:title=" ">
<polygon fill="white" stroke="black" points="947.5,-179.5 947.5,-209.5 1080.5,-209.5 1080.5,-179.5 947.5,-179.5"/>
<text text-anchor="start" x="955.5" y="-197.5" font-family="Helvetica,sans-Serif" font-size="10.00">emlabcpp/experimental</text>
<text text-anchor="middle" x="1014" y="-186.5" font-family="Helvetica,sans-Serif" font-size="10.00">/bounded_view.h</text>
</a>
</g>
</g>
<!-- Node1&#45;&gt;Node34 -->
<g id="edge27" class="edge">
<title>Node1&#45;&gt;Node34</title>
<path fill="none" stroke="midnightblue" d="M660.72,-302.28C665.8,-285.88 676.58,-259.48 696,-246 782.72,-185.83 828.09,-225.7 937.24,-209.97"/>
<polygon fill="midnightblue" stroke="midnightblue" points="937.96,-213.4 947.3,-208.39 936.88,-206.48 937.96,-213.4"/>
</g>
<!-- Node35 -->
<g id="node19" class="node">
<title>Node35</title>
<g id="a_node19"><a xlink:href="numeric_8h.html" target="_top" xlink:title=" ">
<polygon fill="white" stroke="black" points="448.5,-179.5 448.5,-209.5 557.5,-209.5 557.5,-179.5 448.5,-179.5"/>
<text text-anchor="start" x="456.5" y="-197.5" font-family="Helvetica,sans-Serif" font-size="10.00">emlabcpp/iterators</text>
<text text-anchor="middle" x="503" y="-186.5" font-family="Helvetica,sans-Serif" font-size="10.00">/numeric.h</text>
</a>
</g>
</g>
<!-- Node1&#45;&gt;Node35 -->
<g id="edge30" class="edge">
<title>Node1&#45;&gt;Node35</title>
<path fill="none" stroke="midnightblue" d="M639.03,-302.38C611.91,-281.07 560.36,-240.57 529.1,-216"/>
<polygon fill="midnightblue" stroke="midnightblue" points="530.88,-212.95 520.85,-209.53 526.55,-218.46 530.88,-212.95"/>
</g>
<!-- Node28 -->
<g id="node20" class="node">
<title>Node28</title>
<g id="a_node20"><a xlink:href="match_8h.html" target="_top" xlink:title=" ">
<polygon fill="white" stroke="red" points="704.5,-246.5 704.5,-265.5 811.5,-265.5 811.5,-246.5 704.5,-246.5"/>
<text text-anchor="middle" x="758" y="-253.5" font-family="Helvetica,sans-Serif" font-size="10.00">emlabcpp/match.h</text>
</a>
</g>
</g>
<!-- Node1&#45;&gt;Node28 -->
<g id="edge32" class="edge">
<title>Node1&#45;&gt;Node28</title>
<path fill="none" stroke="midnightblue" d="M680.94,-302.4C697.13,-292.86 718.41,-280.32 734.5,-270.84"/>
<polygon fill="midnightblue" stroke="midnightblue" points="736.46,-273.75 743.3,-265.66 732.91,-267.72 736.46,-273.75"/>
</g>
<!-- Node36 -->
<g id="node21" class="node">
<title>Node36</title>
<g id="a_node21"><a xlink:href="decl_8h.html" target="_top" xlink:title=" ">
<polygon fill="white" stroke="black" points="1139,-246.5 1139,-265.5 1279,-265.5 1279,-246.5 1139,-246.5"/>
<text text-anchor="middle" x="1209" y="-253.5" font-family="Helvetica,sans-Serif" font-size="10.00">emlabcpp/protocol/decl.h</text>
</a>
</g>
</g>
<!-- Node1&#45;&gt;Node36 -->
<g id="edge33" class="edge">
<title>Node1&#45;&gt;Node36</title>
<path fill="none" stroke="midnightblue" d="M730.02,-308.63C833.34,-297.49 1021.54,-277.21 1128.7,-265.66"/>
<polygon fill="midnightblue" stroke="midnightblue" points="1129.24,-269.12 1138.81,-264.57 1128.49,-262.16 1129.24,-269.12"/>
</g>
<!-- Node47 -->
<g id="node27" class="node">
<title>Node47</title>
<g id="a_node27"><a xlink:href="serializer_8h.html" target="_top" xlink:title=" ">
<polygon fill="white" stroke="black" points="1297,-246.5 1297,-265.5 1461,-265.5 1461,-246.5 1297,-246.5"/>
<text text-anchor="middle" x="1379" y="-253.5" font-family="Helvetica,sans-Serif" font-size="10.00">emlabcpp/protocol/serializer.h</text>
</a>
</g>
</g>
<!-- Node1&#45;&gt;Node47 -->
<g id="edge50" class="edge">
<title>Node1&#45;&gt;Node47</title>
<path fill="none" stroke="midnightblue" d="M730.39,-311.07C846.19,-302.41 1078.67,-284.63 1286.48,-266.12"/>
<polygon fill="midnightblue" stroke="midnightblue" points="1287.02,-269.59 1296.67,-265.21 1286.39,-262.62 1287.02,-269.59"/>
</g>
<!-- Node3 -->
<g id="node3" class="node">
<title>Node3</title>
<g id="a_node3"><a xlink:href="impl_8h.html" target="_top" xlink:title=" ">
<polygon fill="white" stroke="black" points="378.5,-112.5 378.5,-142.5 493.5,-142.5 493.5,-112.5 378.5,-112.5"/>
<text text-anchor="start" x="386.5" y="-130.5" font-family="Helvetica,sans-Serif" font-size="10.00">emlabcpp/algorithm</text>
<text text-anchor="middle" x="436" y="-119.5" font-family="Helvetica,sans-Serif" font-size="10.00">/impl.h</text>
</a>
</g>
</g>
<!-- Node2&#45;&gt;Node3 -->
<g id="edge2" class="edge">
<title>Node2&#45;&gt;Node3</title>
<path fill="none" stroke="midnightblue" d="M611.18,-184.87C580.21,-174.9 528.51,-158.27 489.28,-145.64"/>
<polygon fill="midnightblue" stroke="midnightblue" points="490.19,-142.26 479.59,-142.53 488.04,-148.92 490.19,-142.26"/>
</g>
<!-- Node4 -->
<g id="node4" class="node">
<title>Node4</title>
<g id="a_node4"><a xlink:href="types_8h.html" target="_top" xlink:title=" ">
<polygon fill="white" stroke="red" points="470,-0.5 470,-19.5 574,-19.5 574,-0.5 470,-0.5"/>
<text text-anchor="middle" x="522" y="-7.5" font-family="Helvetica,sans-Serif" font-size="10.00">emlabcpp/types.h</text>
</a>
</g>
</g>
<!-- Node2&#45;&gt;Node4 -->
<g id="edge8" class="edge">
<title>Node2&#45;&gt;Node4</title>
<path fill="none" stroke="midnightblue" d="M628.96,-184.94C610.14,-166.67 566.5,-121.74 542,-76 534.16,-61.36 528.9,-43.19 525.75,-29.79"/>
<polygon fill="midnightblue" stroke="midnightblue" points="529.13,-28.86 523.59,-19.83 522.29,-30.35 529.13,-28.86"/>
</g>
<!-- Node10 -->
<g id="node5" class="node">
<title>Node10</title>
<g id="a_node5"><a xlink:title=" ">
<polygon fill="white" stroke="#bfbfbf" points="329.5,-56.5 329.5,-75.5 370.5,-75.5 370.5,-56.5 329.5,-56.5"/>
<text text-anchor="middle" x="350" y="-63.5" font-family="Helvetica,sans-Serif" font-size="10.00">tuple</text>
</a>
</g>
</g>
<!-- Node2&#45;&gt;Node10 -->
<g id="edge13" class="edge">
<title>Node2&#45;&gt;Node10</title>
<path fill="none" stroke="midnightblue" d="M597.11,-185C587.25,-182.99 576.76,-180.89 567,-179 479.61,-162.09 435.3,-203.48 370,-143 354.23,-128.4 350.3,-103 349.6,-85.61"/>
<polygon fill="midnightblue" stroke="midnightblue" points="353.1,-85.51 349.52,-75.54 346.1,-85.57 353.1,-85.51"/>
</g>
<!-- Node17 -->
<g id="node6" class="node">
<title>Node17</title>
<g id="a_node6"><a xlink:href="bounded_8h.html" target="_top" xlink:title=" ">
<polygon fill="white" stroke="red" points="873.5,-118 873.5,-137 992.5,-137 992.5,-118 873.5,-118"/>
<text text-anchor="middle" x="933" y="-125" font-family="Helvetica,sans-Serif" font-size="10.00">emlabcpp/bounded.h</text>
</a>
</g>
</g>
<!-- Node2&#45;&gt;Node17 -->
<g id="edge5" class="edge">
<title>Node2&#45;&gt;Node17</title>
<path fill="none" stroke="midnightblue" d="M676.87,-184.94C730.15,-173.2 825.87,-152.11 884,-139.3"/>
<polygon fill="midnightblue" stroke="midnightblue" points="885.03,-142.65 894.04,-137.08 883.53,-135.82 885.03,-142.65"/>
</g>
<!-- Node19 -->
<g id="node9" class="node">
<title>Node19</title>
<g id="a_node9"><a xlink:href="view_8h.html" target="_top" xlink:title=" ">
<polygon fill="white" stroke="black" points="550.5,-56.5 550.5,-75.5 649.5,-75.5 649.5,-56.5 550.5,-56.5"/>
<text text-anchor="middle" x="600" y="-63.5" font-family="Helvetica,sans-Serif" font-size="10.00">emlabcpp/view.h</text>
</a>
</g>
</g>
<!-- Node2&#45;&gt;Node19 -->
<g id="edge9" class="edge">
<title>Node2&#45;&gt;Node19</title>
<path fill="none" stroke="midnightblue" d="M634.06,-184.7C629.71,-174.73 622.7,-157.93 618,-143 611.91,-123.64 606.79,-100.94 603.58,-85.42"/>
<polygon fill="midnightblue" stroke="midnightblue" points="607,-84.66 601.6,-75.54 600.14,-86.04 607,-84.66"/>
</g>
<!-- Node20 -->
<g id="node10" class="node">
<title>Node20</title>
<g id="a_node10"><a xlink:title=" ">
<polygon fill="white" stroke="#bfbfbf" points="693.5,-118 693.5,-137 740.5,-137 740.5,-118 693.5,-118"/>
<text text-anchor="middle" x="717" y="-125" font-family="Helvetica,sans-Serif" font-size="10.00">cmath</text>
</a>
</g>
</g>
<!-- Node2&#45;&gt;Node20 -->
<g id="edge11" class="edge">
<title>Node2&#45;&gt;Node20</title>
<path fill="none" stroke="midnightblue" d="M648.65,-184.73C661.45,-174.21 683.12,-156.38 698.63,-143.62"/>
<polygon fill="midnightblue" stroke="midnightblue" points="701.02,-146.18 706.51,-137.13 696.57,-140.78 701.02,-146.18"/>
</g>
<!-- Node21 -->
<g id="node11" class="node">
<title>Node21</title>
<g id="a_node11"><a xlink:title=" ">
<polygon fill="white" stroke="#bfbfbf" points="626.5,-118 626.5,-137 675.5,-137 675.5,-118 626.5,-118"/>
<text text-anchor="middle" x="651" y="-125" font-family="Helvetica,sans-Serif" font-size="10.00">cstdlib</text>
</a>
</g>
</g>
<!-- Node2&#45;&gt;Node21 -->
<g id="edge12" class="edge">
<title>Node2&#45;&gt;Node21</title>
<path fill="none" stroke="midnightblue" d="M639.75,-184.73C641.66,-175.18 644.78,-159.62 647.24,-147.28"/>
<polygon fill="midnightblue" stroke="midnightblue" points="650.75,-147.62 649.27,-137.13 643.88,-146.25 650.75,-147.62"/>
</g>
<!-- Node3&#45;&gt;Node4 -->
<g id="edge3" class="edge">
<title>Node3&#45;&gt;Node4</title>
<path fill="none" stroke="midnightblue" d="M446.55,-112.34C462.46,-90.96 492.57,-50.53 509.54,-27.73"/>
<polygon fill="midnightblue" stroke="midnightblue" points="512.38,-29.78 515.54,-19.67 506.77,-25.6 512.38,-29.78"/>
</g>
<!-- Node3&#45;&gt;Node10 -->
<g id="edge4" class="edge">
<title>Node3&#45;&gt;Node10</title>
<path fill="none" stroke="midnightblue" d="M415.62,-112.4C402.09,-103.04 384.39,-90.79 370.78,-81.38"/>
<polygon fill="midnightblue" stroke="midnightblue" points="372.73,-78.47 362.51,-75.66 368.75,-84.23 372.73,-78.47"/>
</g>
<!-- Node18 -->
<g id="node7" class="node">
<title>Node18</title>
<g id="a_node7"><a xlink:title=" ">
<polygon fill="white" stroke="#bfbfbf" points="1120,-56.5 1120,-75.5 1176,-75.5 1176,-56.5 1120,-56.5"/>
<text text-anchor="middle" x="1148" y="-63.5" font-family="Helvetica,sans-Serif" font-size="10.00">optional</text>
</a>
</g>
</g>
<!-- Node17&#45;&gt;Node18 -->
<g id="edge6" class="edge">
<title>Node17&#45;&gt;Node18</title>
<path fill="none" stroke="midnightblue" d="M963.8,-117.98C1002.42,-107.29 1068.59,-88.98 1110.22,-77.46"/>
<polygon fill="midnightblue" stroke="midnightblue" points="1111.28,-80.79 1119.99,-74.75 1109.42,-74.05 1111.28,-80.79"/>
</g>
<!-- Node11 -->
<g id="node8" class="node">
<title>Node11</title>
<g id="a_node8"><a xlink:title=" ">
<polygon fill="white" stroke="#bfbfbf" points="810.5,-56.5 810.5,-75.5 879.5,-75.5 879.5,-56.5 810.5,-56.5"/>
<text text-anchor="middle" x="845" y="-63.5" font-family="Helvetica,sans-Serif" font-size="10.00">type_traits</text>
</a>
</g>
</g>
<!-- Node17&#45;&gt;Node11 -->
<g id="edge7" class="edge">
<title>Node17&#45;&gt;Node11</title>
<path fill="none" stroke="midnightblue" d="M920.39,-117.98C906.28,-108.43 883.17,-92.81 866.25,-81.37"/>
<polygon fill="midnightblue" stroke="midnightblue" points="867.83,-78.21 857.58,-75.51 863.91,-84.01 867.83,-78.21"/>
</g>
<!-- Node19&#45;&gt;Node4 -->
<g id="edge10" class="edge">
<title>Node19&#45;&gt;Node4</title>
<path fill="none" stroke="midnightblue" d="M587.47,-56.32C575.41,-47.98 556.97,-35.21 542.73,-25.35"/>
<polygon fill="midnightblue" stroke="midnightblue" points="544.72,-22.47 534.5,-19.65 540.73,-28.22 544.72,-22.47"/>
</g>
<!-- Node23 -->
<g id="node13" class="node">
<title>Node23</title>
<g id="a_node13"><a xlink:title=" ">
<polygon fill="white" stroke="#bfbfbf" points="0,-185 0,-204 52,-204 52,-185 0,-185"/>
<text text-anchor="middle" x="26" y="-192" font-family="Helvetica,sans-Serif" font-size="10.00">cassert</text>
</a>
</g>
</g>
<!-- Node22&#45;&gt;Node23 -->
<g id="edge15" class="edge">
<title>Node22&#45;&gt;Node23</title>
<path fill="none" stroke="midnightblue" d="M65.41,-246.48C58.51,-237.55 47.5,-223.31 38.87,-212.14"/>
<polygon fill="midnightblue" stroke="midnightblue" points="41.46,-209.78 32.58,-204.01 35.93,-214.06 41.46,-209.78"/>
</g>
<!-- Node24&#45;&gt;Node4 -->
<g id="edge22" class="edge">
<title>Node24&#45;&gt;Node4</title>
<path fill="none" stroke="midnightblue" d="M255.92,-252.83C220.76,-248.7 175.53,-237.82 146,-210 113.43,-179.32 96.03,-147.7 123,-112 163.29,-58.67 357.76,-29.35 459.57,-17.42"/>
<polygon fill="midnightblue" stroke="midnightblue" points="460.18,-20.88 469.72,-16.26 459.38,-13.92 460.18,-20.88"/>
</g>
<!-- Node24&#45;&gt;Node10 -->
<g id="edge24" class="edge">
<title>Node24&#45;&gt;Node10</title>
<path fill="none" stroke="midnightblue" d="M280.93,-246.4C221.37,-226.12 88.01,-172.42 137,-112 159.6,-84.12 265.9,-72.84 319.27,-68.87"/>
<polygon fill="midnightblue" stroke="midnightblue" points="319.77,-72.35 329.5,-68.16 319.28,-65.37 319.77,-72.35"/>
</g>
<!-- Node24&#45;&gt;Node18 -->
<g id="edge23" class="edge">
<title>Node24&#45;&gt;Node18</title>
<path fill="none" stroke="midnightblue" d="M360.13,-253.68C523.95,-249.28 1021.57,-234.08 1090,-210 1138.4,-192.97 1160.5,-188.61 1184,-143 1190.31,-130.75 1188.56,-125 1184,-112 1180.21,-101.21 1172.63,-91.08 1165.4,-83.18"/>
<polygon fill="midnightblue" stroke="midnightblue" points="1167.67,-80.49 1158.16,-75.81 1162.67,-85.4 1167.67,-80.49"/>
</g>
<!-- Node24&#45;&gt;Node11 -->
<g id="edge25" class="edge">
<title>Node24&#45;&gt;Node11</title>
<path fill="none" stroke="midnightblue" d="M360.1,-253.55C454.34,-250.22 648.93,-239.85 709,-210 767.67,-180.85 814.57,-115.46 834.55,-84.24"/>
<polygon fill="midnightblue" stroke="midnightblue" points="837.54,-86.06 839.87,-75.72 831.61,-82.35 837.54,-86.06"/>
</g>
<!-- Node25 -->
<g id="node15" class="node">
<title>Node25</title>
<g id="a_node15"><a xlink:href="static__vector_8h.html" target="_top" xlink:title=" ">
<polygon fill="white" stroke="red" points="238.5,-185 238.5,-204 377.5,-204 377.5,-185 238.5,-185"/>
<text text-anchor="middle" x="308" y="-192" font-family="Helvetica,sans-Serif" font-size="10.00">emlabcpp/static_vector.h</text>
</a>
</g>
</g>
<!-- Node24&#45;&gt;Node25 -->
<g id="edge17" class="edge">
<title>Node24&#45;&gt;Node25</title>
<path fill="none" stroke="midnightblue" d="M308,-246.48C308,-238.08 308,-224.98 308,-214.16"/>
<polygon fill="midnightblue" stroke="midnightblue" points="311.5,-214.01 308,-204.01 304.5,-214.01 311.5,-214.01"/>
</g>
<!-- Node33 -->
<g id="node17" class="node">
<title>Node33</title>
<g id="a_node17"><a xlink:title=" ">
<polygon fill="white" stroke="#bfbfbf" points="146.5,-118 146.5,-137 191.5,-137 191.5,-118 146.5,-118"/>
<text text-anchor="middle" x="169" y="-125" font-family="Helvetica,sans-Serif" font-size="10.00">utility</text>
</a>
</g>
</g>
<!-- Node24&#45;&gt;Node33 -->
<g id="edge26" class="edge">
<title>Node24&#45;&gt;Node33</title>
<path fill="none" stroke="midnightblue" d="M288.02,-246.49C271.09,-238.65 246.81,-225.84 229,-210 207.73,-191.08 189.35,-163.47 178.73,-145.74"/>
<polygon fill="midnightblue" stroke="midnightblue" points="181.71,-143.91 173.65,-137.03 175.66,-147.43 181.71,-143.91"/>
</g>
<!-- Node25&#45;&gt;Node11 -->
<g id="edge20" class="edge">
<title>Node25&#45;&gt;Node11</title>
<path fill="none" stroke="midnightblue" d="M341.5,-184.93C380.36,-174.97 446.37,-157.97 503,-143 554.18,-129.48 566.45,-124.04 618,-112 680.92,-97.3 754.38,-83.31 800.3,-74.94"/>
<polygon fill="midnightblue" stroke="midnightblue" points="801.02,-78.37 810.23,-73.14 799.77,-71.48 801.02,-78.37"/>
</g>
<!-- Node31 -->
<g id="node16" class="node">
<title>Node31</title>
<g id="a_node16"><a xlink:href="iterator_8h.html" target="_top" xlink:title=" ">
<polygon fill="white" stroke="red" points="210,-118 210,-137 322,-137 322,-118 210,-118"/>
<text text-anchor="middle" x="266" y="-125" font-family="Helvetica,sans-Serif" font-size="10.00">emlabcpp/iterator.h</text>
</a>
</g>
</g>
<!-- Node25&#45;&gt;Node31 -->
<g id="edge18" class="edge">
<title>Node25&#45;&gt;Node31</title>
<path fill="none" stroke="midnightblue" d="M302.34,-184.73C295.91,-174.79 285.28,-158.34 277.17,-145.79"/>
<polygon fill="midnightblue" stroke="midnightblue" points="279.94,-143.63 271.57,-137.13 274.06,-147.43 279.94,-143.63"/>
</g>
<!-- Node25&#45;&gt;Node33 -->
<g id="edge21" class="edge">
<title>Node25&#45;&gt;Node33</title>
<path fill="none" stroke="midnightblue" d="M289.54,-184.87C265.76,-173.75 224.21,-154.32 196.65,-141.43"/>
<polygon fill="midnightblue" stroke="midnightblue" points="198.08,-138.23 187.53,-137.17 195.11,-144.57 198.08,-138.23"/>
</g>
<!-- Node31&#45;&gt;Node19 -->
<g id="edge19" class="edge">
<title>Node31&#45;&gt;Node19</title>
<path fill="none" stroke="midnightblue" d="M313.85,-117.98C374.12,-107.24 477.59,-88.81 542.21,-77.29"/>
<polygon fill="midnightblue" stroke="midnightblue" points="543,-80.71 552.23,-75.51 541.78,-73.82 543,-80.71"/>
</g>
<!-- Node34&#45;&gt;Node17 -->
<g id="edge28" class="edge">
<title>Node34&#45;&gt;Node17</title>
<path fill="none" stroke="midnightblue" d="M996.42,-179.4C983.29,-168.86 965.37,-154.48 951.93,-143.69"/>
<polygon fill="midnightblue" stroke="midnightblue" points="953.82,-140.72 943.83,-137.19 949.44,-146.18 953.82,-140.72"/>
</g>
<!-- Node34&#45;&gt;Node19 -->
<g id="edge29" class="edge">
<title>Node34&#45;&gt;Node19</title>
<path fill="none" stroke="midnightblue" d="M968.72,-179.4C916.16,-163.07 826.86,-135.39 750,-112 712.14,-100.48 668.85,-87.51 638.53,-78.47"/>
<polygon fill="midnightblue" stroke="midnightblue" points="639.36,-75.06 628.78,-75.56 637.36,-81.77 639.36,-75.06"/>
</g>
<!-- Node35&#45;&gt;Node31 -->
<g id="edge31" class="edge">
<title>Node35&#45;&gt;Node31</title>
<path fill="none" stroke="midnightblue" d="M451.87,-179.48C408.46,-167.57 347,-150.72 306.83,-139.7"/>
<polygon fill="midnightblue" stroke="midnightblue" points="307.67,-136.3 297.1,-137.03 305.81,-143.05 307.67,-136.3"/>
</g>
<!-- Node36&#45;&gt;Node4 -->
<g id="edge47" class="edge">
<title>Node36&#45;&gt;Node4</title>
<path fill="none" stroke="midnightblue" d="M1279.12,-246.5C1354.86,-236.85 1467.04,-221.02 1484,-210 1524.04,-184 1558.92,-148.38 1528,-112 1466.69,-39.87 794.3,-17.58 584.29,-12.36"/>
<polygon fill="midnightblue" stroke="midnightblue" points="584.13,-8.85 574.05,-12.11 583.96,-15.85 584.13,-8.85"/>
</g>
<!-- Node36&#45;&gt;Node18 -->
<g id="edge48" class="edge">
<title>Node36&#45;&gt;Node18</title>
<path fill="none" stroke="midnightblue" d="M1212.46,-246.26C1221.15,-222.82 1241.52,-157.26 1217,-112 1209.25,-97.7 1194.77,-87.22 1181.06,-79.99"/>
<polygon fill="midnightblue" stroke="midnightblue" points="1182.31,-76.71 1171.79,-75.5 1179.26,-83.01 1182.31,-76.71"/>
</g>
<!-- Node36&#45;&gt;Node25 -->
<g id="edge46" class="edge">
<title>Node36&#45;&gt;Node25</title>
<path fill="none" stroke="midnightblue" d="M1138.94,-252.1C1003.67,-246.23 697.2,-231.64 440,-210 423.1,-208.58 405.01,-206.78 387.82,-204.93"/>
<polygon fill="midnightblue" stroke="midnightblue" points="388.13,-201.44 377.81,-203.84 387.37,-208.4 388.13,-201.44"/>
</g>
<!-- Node37 -->
<g id="node22" class="node">
<title>Node37</title>
<g id="a_node22"><a xlink:href="protocol_2base_8h.html" target="_top" xlink:title=" ">
<polygon fill="white" stroke="red" points="1307.5,-185 1307.5,-204 1450.5,-204 1450.5,-185 1307.5,-185"/>
<text text-anchor="middle" x="1379" y="-192" font-family="Helvetica,sans-Serif" font-size="10.00">emlabcpp/protocol/base.h</text>
</a>
</g>
</g>
<!-- Node36&#45;&gt;Node37 -->
<g id="edge34" class="edge">
<title>Node36&#45;&gt;Node37</title>
<path fill="none" stroke="midnightblue" d="M1233.36,-246.48C1262.64,-236.22 1311.97,-218.96 1345,-207.4"/>
<polygon fill="midnightblue" stroke="midnightblue" points="1346.41,-210.62 1354.69,-204.01 1344.09,-204.01 1346.41,-210.62"/>
</g>
<!-- Node38 -->
<g id="node23" class="node">
<title>Node38</title>
<g id="a_node23"><a xlink:href="protocol_2error_8h.html" target="_top" xlink:title=" ">
<polygon fill="white" stroke="red" points="1269,-118 1269,-137 1411,-137 1411,-118 1269,-118"/>
<text text-anchor="middle" x="1340" y="-125" font-family="Helvetica,sans-Serif" font-size="10.00">emlabcpp/protocol/error.h</text>
</a>
</g>
</g>
<!-- Node36&#45;&gt;Node38 -->
<g id="edge39" class="edge">
<title>Node36&#45;&gt;Node38</title>
<path fill="none" stroke="midnightblue" d="M1218,-246.31C1239.79,-225.27 1295.58,-171.39 1323.53,-144.4"/>
<polygon fill="midnightblue" stroke="midnightblue" points="1326.17,-146.72 1330.93,-137.26 1321.31,-141.68 1326.17,-146.72"/>
</g>
<!-- Node15 -->
<g id="node24" class="node">
<title>Node15</title>
<g id="a_node24"><a xlink:title=" ">
<polygon fill="white" stroke="#bfbfbf" points="1467.5,-118 1467.5,-137 1518.5,-137 1518.5,-118 1467.5,-118"/>
<text text-anchor="middle" x="1493" y="-125" font-family="Helvetica,sans-Serif" font-size="10.00">variant</text>
</a>
</g>
</g>
<!-- Node36&#45;&gt;Node15 -->
<g id="edge49" class="edge">
<title>Node36&#45;&gt;Node15</title>
<path fill="none" stroke="midnightblue" d="M1275.28,-246.48C1344.74,-237.01 1445.76,-221.56 1460,-210 1479.13,-194.47 1487.26,-166.13 1490.65,-147.3"/>
<polygon fill="midnightblue" stroke="midnightblue" points="1494.14,-147.65 1492.18,-137.24 1487.21,-146.6 1494.14,-147.65"/>
</g>
<!-- Node42 -->
<g id="node25" class="node">
<title>Node42</title>
<g id="a_node25"><a xlink:href="message_8h.html" target="_top" xlink:title=" ">
<polygon fill="white" stroke="red" points="1011,-118 1011,-137 1175,-137 1175,-118 1011,-118"/>
<text text-anchor="middle" x="1093" y="-125" font-family="Helvetica,sans-Serif" font-size="10.00">emlabcpp/protocol/message.h</text>
</a>
</g>
</g>
<!-- Node36&#45;&gt;Node42 -->
<g id="edge40" class="edge">
<title>Node36&#45;&gt;Node42</title>
<path fill="none" stroke="midnightblue" d="M1201.03,-246.31C1181.82,-225.36 1132.76,-171.85 1107.9,-144.75"/>
<polygon fill="midnightblue" stroke="midnightblue" points="1110.37,-142.26 1101.03,-137.26 1105.21,-146.99 1110.37,-142.26"/>
</g>
<!-- Node43 -->
<g id="node26" class="node">
<title>Node43</title>
<g id="a_node26"><a xlink:href="quantity_8h.html" target="_top" xlink:title=" ">
<polygon fill="white" stroke="red" points="813,-185 813,-204 929,-204 929,-185 813,-185"/>
<text text-anchor="middle" x="871" y="-192" font-family="Helvetica,sans-Serif" font-size="10.00">emlabcpp/quantity.h</text>
</a>
</g>
</g>
<!-- Node36&#45;&gt;Node43 -->
<g id="edge43" class="edge">
<title>Node36&#45;&gt;Node43</title>
<path fill="none" stroke="midnightblue" d="M1153.28,-246.46C1098.6,-237.91 1012.88,-224.03 939,-210 932.7,-208.8 926.08,-207.48 919.55,-206.13"/>
<polygon fill="midnightblue" stroke="midnightblue" points="919.92,-202.63 909.42,-204.01 918.49,-209.48 919.92,-202.63"/>
</g>
<!-- Node37&#45;&gt;Node17 -->
<g id="edge35" class="edge">
<title>Node37&#45;&gt;Node17</title>
<path fill="none" stroke="midnightblue" d="M1307.19,-185.48C1231.16,-176.62 1107.76,-161.17 1002,-143 995.27,-141.84 988.2,-140.5 981.26,-139.11"/>
<polygon fill="midnightblue" stroke="midnightblue" points="981.72,-135.64 971.23,-137.06 980.32,-142.49 981.72,-135.64"/>
</g>
<!-- Node37&#45;&gt;Node11 -->
<g id="edge37" class="edge">
<title>Node37&#45;&gt;Node11</title>
<path fill="none" stroke="midnightblue" d="M1389.28,-184.95C1407.26,-169.01 1440.65,-134.33 1420,-112 1402.05,-92.59 1022.08,-74.57 889.87,-68.86"/>
<polygon fill="midnightblue" stroke="midnightblue" points="889.83,-65.36 879.68,-68.43 889.53,-72.35 889.83,-65.36"/>
</g>
<!-- Node37&#45;&gt;Node38 -->
<g id="edge36" class="edge">
<title>Node37&#45;&gt;Node38</title>
<path fill="none" stroke="midnightblue" d="M1373.74,-184.73C1367.78,-174.79 1357.9,-158.34 1350.37,-145.79"/>
<polygon fill="midnightblue" stroke="midnightblue" points="1353.32,-143.9 1345.18,-137.13 1347.32,-147.5 1353.32,-143.9"/>
</g>
<!-- Node37&#45;&gt;Node15 -->
<g id="edge38" class="edge">
<title>Node37&#45;&gt;Node15</title>
<path fill="none" stroke="midnightblue" d="M1394.37,-184.73C1413.52,-173.82 1446.44,-155.05 1468.94,-142.22"/>
<polygon fill="midnightblue" stroke="midnightblue" points="1470.92,-145.12 1477.87,-137.13 1467.45,-139.04 1470.92,-145.12"/>
</g>
<!-- Node42&#45;&gt;Node18 -->
<g id="edge42" class="edge">
<title>Node42&#45;&gt;Node18</title>
<path fill="none" stroke="midnightblue" d="M1100.88,-117.98C1109.29,-108.87 1122.82,-94.24 1133.23,-82.98"/>
<polygon fill="midnightblue" stroke="midnightblue" points="1135.92,-85.23 1140.13,-75.51 1130.78,-80.48 1135.92,-85.23"/>
</g>
<!-- Node42&#45;&gt;Node19 -->
<g id="edge41" class="edge">
<title>Node42&#45;&gt;Node19</title>
<path fill="none" stroke="midnightblue" d="M1042.04,-117.95C1029.01,-115.88 1015,-113.76 1002,-112 880.79,-95.57 738.42,-80.66 659.8,-72.82"/>
<polygon fill="midnightblue" stroke="midnightblue" points="659.9,-69.31 649.6,-71.8 659.21,-76.27 659.9,-69.31"/>
</g>
<!-- Node43&#45;&gt;Node11 -->
<g id="edge45" class="edge">
<title>Node43&#45;&gt;Node11</title>
<path fill="none" stroke="midnightblue" d="M869.21,-184.81C865.04,-164.49 854.57,-113.55 848.86,-85.78"/>
<polygon fill="midnightblue" stroke="midnightblue" points="852.24,-84.85 846.8,-75.76 845.38,-86.26 852.24,-84.85"/>
</g>
<!-- Node43&#45;&gt;Node20 -->
<g id="edge44" class="edge">
<title>Node43&#45;&gt;Node20</title>
<path fill="none" stroke="midnightblue" d="M850.55,-184.87C823.97,-173.65 777.36,-153.98 746.83,-141.09"/>
<polygon fill="midnightblue" stroke="midnightblue" points="748.11,-137.83 737.53,-137.17 745.39,-144.28 748.11,-137.83"/>
</g>
<!-- Node47&#45;&gt;Node34 -->
<g id="edge51" class="edge">
<title>Node47&#45;&gt;Node34</title>
<path fill="none" stroke="midnightblue" d="M1326.7,-246.48C1264.99,-236.41 1161.81,-219.6 1090.97,-208.05"/>
<polygon fill="midnightblue" stroke="midnightblue" points="1091.19,-204.54 1080.76,-206.38 1090.06,-211.45 1091.19,-204.54"/>
</g>
<!-- Node47&#45;&gt;Node35 -->
<g id="edge52" class="edge">
<title>Node47&#45;&gt;Node35</title>
<path fill="none" stroke="midnightblue" d="M1296.68,-246.68C1293.75,-246.44 1290.85,-246.21 1288,-246 971.32,-222.45 886.6,-252.97 567.69,-209.91"/>
<polygon fill="midnightblue" stroke="midnightblue" points="568.08,-206.43 557.7,-208.55 567.13,-213.37 568.08,-206.43"/>
</g>
<!-- Node47&#45;&gt;Node37 -->
<g id="edge53" class="edge">
<title>Node47&#45;&gt;Node37</title>
<path fill="none" stroke="midnightblue" d="M1379,-246.48C1379,-238.08 1379,-224.98 1379,-214.16"/>
<polygon fill="midnightblue" stroke="midnightblue" points="1382.5,-214.01 1379,-204.01 1375.5,-214.01 1382.5,-214.01"/>
</g>
<!-- Node48 -->
<g id="node28" class="node">
<title>Node48</title>
<g id="a_node28"><a xlink:title=" ">
<polygon fill="white" stroke="#bfbfbf" points="1575.5,-185 1575.5,-204 1604.5,-204 1604.5,-185 1575.5,-185"/>
<text text-anchor="middle" x="1590" y="-192" font-family="Helvetica,sans-Serif" font-size="10.00">bit</text>
</a>
</g>
</g>
<!-- Node47&#45;&gt;Node48 -->
<g id="edge54" class="edge">
<title>Node47&#45;&gt;Node48</title>
<path fill="none" stroke="midnightblue" d="M1425.47,-246.47C1462.76,-238.92 1516.1,-226.54 1561,-210 1562.63,-209.4 1564.3,-208.73 1565.96,-208.02"/>
<polygon fill="midnightblue" stroke="midnightblue" points="1567.66,-211.09 1575.23,-203.67 1564.69,-204.75 1567.66,-211.09"/>
</g>
<!-- Node49 -->
<g id="node29" class="node">
<title>Node49</title>
<g id="a_node29"><a xlink:title=" ">
<polygon fill="white" stroke="#bfbfbf" points="1623,-185 1623,-204 1663,-204 1663,-185 1623,-185"/>
<text text-anchor="middle" x="1643" y="-192" font-family="Helvetica,sans-Serif" font-size="10.00">span</text>
</a>
</g>
</g>
<!-- Node47&#45;&gt;Node49 -->
<g id="edge55" class="edge">
<title>Node47&#45;&gt;Node49</title>
<path fill="none" stroke="midnightblue" d="M1450.75,-246.47C1497.97,-239.6 1560.69,-228.05 1614,-210 1615.43,-209.51 1616.88,-208.97 1618.34,-208.39"/>
<polygon fill="midnightblue" stroke="midnightblue" points="1620.03,-211.46 1627.69,-204.14 1617.13,-205.09 1620.03,-211.46"/>
</g>
</g>
</svg>
