<?xml version="1.0" encoding="UTF-8" standalone="no"?>
<!DOCTYPE svg PUBLIC "-//W3C//DTD SVG 1.1//EN"
 "http://www.w3.org/Graphics/SVG/1.1/DTD/svg11.dtd">
<!-- Generated by graphviz version 2.43.0 (0)
 -->
<!-- Title: include/emlabcpp/protocol/def.h Pages: 1 -->
<svg width="1531pt" height="341pt"
 viewBox="0.00 0.00 1530.74 341.00" xmlns="http://www.w3.org/2000/svg" xmlns:xlink="http://www.w3.org/1999/xlink">
<g id="graph0" class="graph" transform="scale(1 1) rotate(0) translate(4 337)">
<title>include/emlabcpp/protocol/def.h</title>
<polygon fill="white" stroke="transparent" points="-4,4 -4,-337 1526.74,-337 1526.74,4 -4,4"/>
<!-- Node1 -->
<g id="node1" class="node">
<title>Node1</title>
<g id="a_node1"><a xlink:title=" ">
<polygon fill="#bfbfbf" stroke="black" points="577,-302.5 577,-332.5 723,-332.5 723,-302.5 577,-302.5"/>
<text text-anchor="start" x="585" y="-320.5" font-family="Helvetica,sans-Serif" font-size="10.00">include/emlabcpp/protocol</text>
<text text-anchor="middle" x="650" y="-309.5" font-family="Helvetica,sans-Serif" font-size="10.00">/def.h</text>
</a>
</g>
</g>
<!-- Node2 -->
<g id="node2" class="node">
<title>Node2</title>
<g id="a_node2"><a xlink:href="algorithm_8h.html" target="_top" xlink:title=" ">
<polygon fill="white" stroke="black" points="282,-185 282,-204 406,-204 406,-185 282,-185"/>
<text text-anchor="middle" x="344" y="-192" font-family="Helvetica,sans-Serif" font-size="10.00">emlabcpp/algorithm.h</text>
</a>
</g>
</g>
<!-- Node1&#45;&gt;Node2 -->
<g id="edge1" class="edge">
<title>Node1&#45;&gt;Node2</title>
<path fill="none" stroke="midnightblue" d="M576.83,-304.44C537.8,-296.46 489.6,-284.07 449,-266 416.15,-251.38 382.36,-226.61 362.28,-210.67"/>
<polygon fill="midnightblue" stroke="midnightblue" points="364.28,-207.79 354.31,-204.23 359.88,-213.24 364.28,-207.79"/>
</g>
<!-- Node21 -->
<g id="node12" class="node">
<title>Node21</title>
<g id="a_node12"><a xlink:href="assert_8h.html" target="_top" xlink:title=" ">
<polygon fill="white" stroke="black" points="90.5,-246.5 90.5,-265.5 197.5,-265.5 197.5,-246.5 90.5,-246.5"/>
<text text-anchor="middle" x="144" y="-253.5" font-family="Helvetica,sans-Serif" font-size="10.00">emlabcpp/assert.h</text>
</a>
</g>
</g>
<!-- Node1&#45;&gt;Node21 -->
<g id="edge14" class="edge">
<title>Node1&#45;&gt;Node21</title>
<path fill="none" stroke="midnightblue" d="M576.96,-307.91C477.68,-296.24 301.72,-275.55 207.59,-264.48"/>
<polygon fill="midnightblue" stroke="midnightblue" points="207.97,-261 197.63,-263.31 207.16,-267.95 207.97,-261"/>
</g>
<!-- Node23 -->
<g id="node14" class="node">
<title>Node23</title>
<g id="a_node14"><a xlink:href="bounded__view_8h.html" target="_top" xlink:title=" ">
<polygon fill="white" stroke="black" points="861,-185 861,-204 1007,-204 1007,-185 861,-185"/>
<text text-anchor="middle" x="934" y="-192" font-family="Helvetica,sans-Serif" font-size="10.00">emlabcpp/bounded_view.h</text>
</a>
</g>
</g>
<!-- Node1&#45;&gt;Node23 -->
<g id="edge16" class="edge">
<title>Node1&#45;&gt;Node23</title>
<path fill="none" stroke="midnightblue" d="M653.85,-302.46C659.06,-286.25 669.96,-260.01 689,-246 696.63,-240.39 807.59,-218.98 877.54,-205.91"/>
<polygon fill="midnightblue" stroke="midnightblue" points="878.36,-209.31 887.55,-204.04 877.08,-202.43 878.36,-209.31"/>
</g>
<!-- Node24 -->
<g id="node15" class="node">
<title>Node24</title>
<g id="a_node15"><a xlink:href="either_8h.html" target="_top" xlink:title=" ">
<polygon fill="white" stroke="black" points="458,-246.5 458,-265.5 562,-265.5 562,-246.5 458,-246.5"/>
<text text-anchor="middle" x="510" y="-253.5" font-family="Helvetica,sans-Serif" font-size="10.00">emlabcpp/either.h</text>
</a>
</g>
</g>
<!-- Node1&#45;&gt;Node24 -->
<g id="edge19" class="edge">
<title>Node1&#45;&gt;Node24</title>
<path fill="none" stroke="midnightblue" d="M616.82,-302.4C593.44,-292.46 562.39,-279.26 539.79,-269.66"/>
<polygon fill="midnightblue" stroke="midnightblue" points="540.94,-266.35 530.37,-265.66 538.21,-272.79 540.94,-266.35"/>
</g>
<!-- Node35 -->
<g id="node19" class="node">
<title>Node35</title>
<g id="a_node19"><a xlink:href="numeric_8h.html" target="_top" xlink:title=" ">
<polygon fill="white" stroke="black" points="576.5,-179.5 576.5,-209.5 685.5,-209.5 685.5,-179.5 576.5,-179.5"/>
<text text-anchor="start" x="584.5" y="-197.5" font-family="Helvetica,sans-Serif" font-size="10.00">emlabcpp/iterators</text>
<text text-anchor="middle" x="631" y="-186.5" font-family="Helvetica,sans-Serif" font-size="10.00">/numeric.h</text>
</a>
</g>
</g>
<!-- Node1&#45;&gt;Node35 -->
<g id="edge30" class="edge">
<title>Node1&#45;&gt;Node35</title>
<path fill="none" stroke="midnightblue" d="M647.75,-302.14C644.56,-281.86 638.7,-244.53 634.83,-219.86"/>
<polygon fill="midnightblue" stroke="midnightblue" points="638.26,-219.17 633.25,-209.84 631.34,-220.26 638.26,-219.17"/>
</g>
<!-- Node28 -->
<g id="node20" class="node">
<title>Node28</title>
<g id="a_node20"><a xlink:href="match_8h.html" target="_top" xlink:title=" ">
<polygon fill="white" stroke="red" points="697.5,-246.5 697.5,-265.5 804.5,-265.5 804.5,-246.5 697.5,-246.5"/>
<text text-anchor="middle" x="751" y="-253.5" font-family="Helvetica,sans-Serif" font-size="10.00">emlabcpp/match.h</text>
</a>
</g>
</g>
<!-- Node1&#45;&gt;Node28 -->
<g id="edge32" class="edge">
<title>Node1&#45;&gt;Node28</title>
<path fill="none" stroke="midnightblue" d="M673.94,-302.4C690.13,-292.86 711.41,-280.32 727.5,-270.84"/>
<polygon fill="midnightblue" stroke="midnightblue" points="729.46,-273.75 736.3,-265.66 725.91,-267.72 729.46,-273.75"/>
</g>
<!-- Node36 -->
<g id="node21" class="node">
<title>Node36</title>
<g id="a_node21"><a xlink:href="decl_8h.html" target="_top" xlink:title=" ">
<polygon fill="white" stroke="black" points="1319,-246.5 1319,-265.5 1459,-265.5 1459,-246.5 1319,-246.5"/>
<text text-anchor="middle" x="1389" y="-253.5" font-family="Helvetica,sans-Serif" font-size="10.00">emlabcpp/protocol/decl.h</text>
</a>
</g>
</g>
<!-- Node1&#45;&gt;Node36 -->
<g id="edge33" class="edge">
<title>Node1&#45;&gt;Node36</title>
<path fill="none" stroke="midnightblue" d="M723.22,-310.6C862.44,-299.4 1164.3,-275.09 1308.78,-263.46"/>
<polygon fill="midnightblue" stroke="midnightblue" points="1309.22,-266.93 1318.91,-262.64 1308.66,-259.96 1309.22,-266.93"/>
</g>
<!-- Node47 -->
<g id="node27" class="node">
<title>Node47</title>
<g id="a_node27"><a xlink:href="serializer_8h.html" target="_top" xlink:title=" ">
<polygon fill="white" stroke="black" points="852,-246.5 852,-265.5 1016,-265.5 1016,-246.5 852,-246.5"/>
<text text-anchor="middle" x="934" y="-253.5" font-family="Helvetica,sans-Serif" font-size="10.00">emlabcpp/protocol/serializer.h</text>
</a>
</g>
</g>
<!-- Node1&#45;&gt;Node47 -->
<g id="edge50" class="edge">
<title>Node1&#45;&gt;Node47</title>
<path fill="none" stroke="midnightblue" d="M716.94,-302.47C767.97,-291.78 837.15,-277.29 883.56,-267.57"/>
<polygon fill="midnightblue" stroke="midnightblue" points="884.33,-270.98 893.4,-265.51 882.89,-264.13 884.33,-270.98"/>
</g>
<!-- Node3 -->
<g id="node3" class="node">
<title>Node3</title>
<g id="a_node3"><a xlink:href="impl_8h.html" target="_top" xlink:title=" ">
<polygon fill="white" stroke="black" points="214.5,-112.5 214.5,-142.5 329.5,-142.5 329.5,-112.5 214.5,-112.5"/>
<text text-anchor="start" x="222.5" y="-130.5" font-family="Helvetica,sans-Serif" font-size="10.00">emlabcpp/algorithm</text>
<text text-anchor="middle" x="272" y="-119.5" font-family="Helvetica,sans-Serif" font-size="10.00">/impl.h</text>
</a>
</g>
</g>
<!-- Node2&#45;&gt;Node3 -->
<g id="edge2" class="edge">
<title>Node2&#45;&gt;Node3</title>
<path fill="none" stroke="midnightblue" d="M334.29,-184.73C324.28,-175.7 308.3,-161.27 295.04,-149.3"/>
<polygon fill="midnightblue" stroke="midnightblue" points="297.37,-146.69 287.61,-142.59 292.68,-151.89 297.37,-146.69"/>
</g>
<!-- Node4 -->
<g id="node4" class="node">
<title>Node4</title>
<g id="a_node4"><a xlink:href="types_8h.html" target="_top" xlink:title=" ">
<polygon fill="white" stroke="red" points="382,-0.5 382,-19.5 486,-19.5 486,-0.5 382,-0.5"/>
<text text-anchor="middle" x="434" y="-7.5" font-family="Helvetica,sans-Serif" font-size="10.00">emlabcpp/types.h</text>
</a>
</g>
</g>
<!-- Node2&#45;&gt;Node4 -->
<g id="edge8" class="edge">
<title>Node2&#45;&gt;Node4</title>
<path fill="none" stroke="midnightblue" d="M348.34,-184.7C362.27,-156.45 406.04,-67.7 425.04,-29.16"/>
<polygon fill="midnightblue" stroke="midnightblue" points="428.42,-30.23 429.7,-19.71 422.14,-27.13 428.42,-30.23"/>
</g>
<!-- Node10 -->
<g id="node5" class="node">
<title>Node10</title>
<g id="a_node5"><a xlink:title=" ">
<polygon fill="white" stroke="#bfbfbf" points="165.5,-56.5 165.5,-75.5 206.5,-75.5 206.5,-56.5 165.5,-56.5"/>
<text text-anchor="middle" x="186" y="-63.5" font-family="Helvetica,sans-Serif" font-size="10.00">tuple</text>
</a>
</g>
</g>
<!-- Node2&#45;&gt;Node10 -->
<g id="edge13" class="edge">
<title>Node2&#45;&gt;Node10</title>
<path fill="none" stroke="midnightblue" d="M284.06,-184.91C256.4,-177.99 225.29,-165.5 205,-143 190.94,-127.41 186.93,-102.98 185.96,-86.05"/>
<polygon fill="midnightblue" stroke="midnightblue" points="189.45,-85.63 185.69,-75.72 182.45,-85.81 189.45,-85.63"/>
</g>
<!-- Node16 -->
<g id="node6" class="node">
<title>Node16</title>
<g id="a_node6"><a xlink:href="bounded_8h.html" target="_top" xlink:title=" ">
<polygon fill="white" stroke="red" points="874.5,-118 874.5,-137 993.5,-137 993.5,-118 874.5,-118"/>
<text text-anchor="middle" x="934" y="-125" font-family="Helvetica,sans-Serif" font-size="10.00">emlabcpp/bounded.h</text>
</a>
</g>
</g>
<!-- Node2&#45;&gt;Node16 -->
<g id="edge5" class="edge">
<title>Node2&#45;&gt;Node16</title>
<path fill="none" stroke="midnightblue" d="M406.16,-189.78C504.28,-183.39 700.89,-168.51 866,-143 873.14,-141.9 880.65,-140.52 887.97,-139.05"/>
<polygon fill="midnightblue" stroke="midnightblue" points="888.71,-142.47 897.79,-137.02 887.29,-135.62 888.71,-142.47"/>
</g>
<!-- Node18 -->
<g id="node9" class="node">
<title>Node18</title>
<g id="a_node9"><a xlink:href="view_8h.html" target="_top" xlink:title=" ">
<polygon fill="white" stroke="black" points="609.5,-56.5 609.5,-75.5 708.5,-75.5 708.5,-56.5 609.5,-56.5"/>
<text text-anchor="middle" x="659" y="-63.5" font-family="Helvetica,sans-Serif" font-size="10.00">emlabcpp/view.h</text>
</a>
</g>
</g>
<!-- Node2&#45;&gt;Node18 -->
<g id="edge9" class="edge">
<title>Node2&#45;&gt;Node18</title>
<path fill="none" stroke="midnightblue" d="M353.24,-184.86C371.66,-168.14 414.91,-131.27 458,-112 503.14,-91.82 558.16,-80.31 599.22,-73.99"/>
<polygon fill="midnightblue" stroke="midnightblue" points="599.96,-77.42 609.34,-72.5 598.94,-70.49 599.96,-77.42"/>
</g>
<!-- Node19 -->
<g id="node10" class="node">
<title>Node19</title>
<g id="a_node10"><a xlink:title=" ">
<polygon fill="white" stroke="#bfbfbf" points="809.5,-118 809.5,-137 856.5,-137 856.5,-118 809.5,-118"/>
<text text-anchor="middle" x="833" y="-125" font-family="Helvetica,sans-Serif" font-size="10.00">cmath</text>
</a>
</g>
</g>
<!-- Node2&#45;&gt;Node19 -->
<g id="edge11" class="edge">
<title>Node2&#45;&gt;Node19</title>
<path fill="none" stroke="midnightblue" d="M406.2,-185.24C481.46,-175.24 612.01,-157.89 724,-143 749.21,-139.65 777.69,-135.86 799.22,-132.99"/>
<polygon fill="midnightblue" stroke="midnightblue" points="799.73,-136.46 809.19,-131.67 798.81,-129.52 799.73,-136.46"/>
</g>
<!-- Node20 -->
<g id="node11" class="node">
<title>Node20</title>
<g id="a_node11"><a xlink:title=" ">
<polygon fill="white" stroke="#bfbfbf" points="108.5,-118 108.5,-137 157.5,-137 157.5,-118 108.5,-118"/>
<text text-anchor="middle" x="133" y="-125" font-family="Helvetica,sans-Serif" font-size="10.00">cstdlib</text>
</a>
</g>
</g>
<!-- Node2&#45;&gt;Node20 -->
<g id="edge12" class="edge">
<title>Node2&#45;&gt;Node20</title>
<path fill="none" stroke="midnightblue" d="M312.41,-184.94C277.75,-175.39 220.58,-159.14 172,-143 169.6,-142.2 167.13,-141.35 164.65,-140.48"/>
<polygon fill="midnightblue" stroke="midnightblue" points="165.77,-137.16 155.18,-137.05 163.39,-143.75 165.77,-137.16"/>
</g>
<!-- Node3&#45;&gt;Node4 -->
<g id="edge3" class="edge">
<title>Node3&#45;&gt;Node4</title>
<path fill="none" stroke="midnightblue" d="M283.91,-112.46C297.38,-97.2 320.49,-72.75 344,-56 362.24,-43 384.8,-31.73 402.76,-23.72"/>
<polygon fill="midnightblue" stroke="midnightblue" points="404.43,-26.81 412.21,-19.62 401.65,-20.39 404.43,-26.81"/>
</g>
<!-- Node3&#45;&gt;Node10 -->
<g id="edge4" class="edge">
<title>Node3&#45;&gt;Node10</title>
<path fill="none" stroke="midnightblue" d="M251.62,-112.4C238.09,-103.04 220.39,-90.79 206.78,-81.38"/>
<polygon fill="midnightblue" stroke="midnightblue" points="208.73,-78.47 198.51,-75.66 204.75,-84.23 208.73,-78.47"/>
</g>
<!-- Node17 -->
<g id="node7" class="node">
<title>Node17</title>
<g id="a_node7"><a xlink:title=" ">
<polygon fill="white" stroke="#bfbfbf" points="1180,-56.5 1180,-75.5 1236,-75.5 1236,-56.5 1180,-56.5"/>
<text text-anchor="middle" x="1208" y="-63.5" font-family="Helvetica,sans-Serif" font-size="10.00">optional</text>
</a>
</g>
</g>
<!-- Node16&#45;&gt;Node17 -->
<g id="edge6" class="edge">
<title>Node16&#45;&gt;Node17</title>
<path fill="none" stroke="midnightblue" d="M973.26,-117.98C1025.7,-106.59 1118,-86.54 1169.86,-75.28"/>
<polygon fill="midnightblue" stroke="midnightblue" points="1170.64,-78.69 1179.67,-73.15 1169.16,-71.85 1170.64,-78.69"/>
</g>
<!-- Node11 -->
<g id="node8" class="node">
<title>Node11</title>
<g id="a_node8"><a xlink:title=" ">
<polygon fill="white" stroke="#bfbfbf" points="899.5,-56.5 899.5,-75.5 968.5,-75.5 968.5,-56.5 899.5,-56.5"/>
<text text-anchor="middle" x="934" y="-63.5" font-family="Helvetica,sans-Serif" font-size="10.00">type_traits</text>
</a>
</g>
</g>
<!-- Node16&#45;&gt;Node11 -->
<g id="edge7" class="edge">
<title>Node16&#45;&gt;Node11</title>
<path fill="none" stroke="midnightblue" d="M934,-117.98C934,-109.58 934,-96.48 934,-85.66"/>
<polygon fill="midnightblue" stroke="midnightblue" points="937.5,-85.51 934,-75.51 930.5,-85.51 937.5,-85.51"/>
</g>
<!-- Node18&#45;&gt;Node4 -->
<g id="edge10" class="edge">
<title>Node18&#45;&gt;Node4</title>
<path fill="none" stroke="midnightblue" d="M623.35,-56.44C584.34,-47.08 521.73,-32.06 479.28,-21.87"/>
<polygon fill="midnightblue" stroke="midnightblue" points="480.03,-18.45 469.49,-19.52 478.39,-25.25 480.03,-18.45"/>
</g>
<!-- Node22 -->
<g id="node13" class="node">
<title>Node22</title>
<g id="a_node13"><a xlink:title=" ">
<polygon fill="white" stroke="#bfbfbf" points="0,-185 0,-204 52,-204 52,-185 0,-185"/>
<text text-anchor="middle" x="26" y="-192" font-family="Helvetica,sans-Serif" font-size="10.00">cassert</text>
</a>
</g>
</g>
<!-- Node21&#45;&gt;Node22 -->
<g id="edge15" class="edge">
<title>Node21&#45;&gt;Node22</title>
<path fill="none" stroke="midnightblue" d="M127.09,-246.48C107.47,-236.58 74.87,-220.14 52.01,-208.62"/>
<polygon fill="midnightblue" stroke="midnightblue" points="53.38,-205.39 42.88,-204.01 50.23,-211.64 53.38,-205.39"/>
</g>
<!-- Node23&#45;&gt;Node16 -->
<g id="edge17" class="edge">
<title>Node23&#45;&gt;Node16</title>
<path fill="none" stroke="midnightblue" d="M934,-184.73C934,-175.18 934,-159.62 934,-147.28"/>
<polygon fill="midnightblue" stroke="midnightblue" points="937.5,-147.13 934,-137.13 930.5,-147.13 937.5,-147.13"/>
</g>
<!-- Node23&#45;&gt;Node18 -->
<g id="edge18" class="edge">
<title>Node23&#45;&gt;Node18</title>
<path fill="none" stroke="midnightblue" d="M908.6,-184.95C881.54,-175.59 837.64,-159.68 801,-143 758.2,-123.52 710.35,-96.84 682.56,-80.82"/>
<polygon fill="midnightblue" stroke="midnightblue" points="684.01,-77.62 673.61,-75.63 680.5,-83.67 684.01,-77.62"/>
</g>
<!-- Node24&#45;&gt;Node4 -->
<g id="edge25" class="edge">
<title>Node24&#45;&gt;Node4</title>
<path fill="none" stroke="midnightblue" d="M501.96,-246.4C494.38,-237.83 483.28,-223.96 477,-210 449,-147.76 438.77,-66.19 435.44,-29.86"/>
<polygon fill="midnightblue" stroke="midnightblue" points="438.91,-29.41 434.59,-19.74 431.94,-30 438.91,-29.41"/>
</g>
<!-- Node24&#45;&gt;Node10 -->
<g id="edge27" class="edge">
<title>Node24&#45;&gt;Node10</title>
<path fill="none" stroke="midnightblue" d="M457.68,-249.03C356.36,-236.23 139.76,-202.37 99,-143 91.2,-131.64 91.84,-123.77 99,-112 111.2,-91.96 135.51,-80.45 155.34,-74.1"/>
<polygon fill="midnightblue" stroke="midnightblue" points="156.59,-77.38 165.22,-71.23 154.64,-70.66 156.59,-77.38"/>
</g>
<!-- Node24&#45;&gt;Node17 -->
<g id="edge26" class="edge">
<title>Node24&#45;&gt;Node17</title>
<path fill="none" stroke="midnightblue" d="M508.04,-246.27C502.96,-221.07 492.29,-147.75 531,-112 542.82,-101.08 1027.9,-76.01 1169.55,-68.91"/>
<polygon fill="midnightblue" stroke="midnightblue" points="1170.09,-72.38 1179.9,-68.39 1169.74,-65.39 1170.09,-72.38"/>
</g>
<!-- Node24&#45;&gt;Node11 -->
<g id="edge28" class="edge">
<title>Node24&#45;&gt;Node11</title>
<path fill="none" stroke="midnightblue" d="M505.23,-246.22C492.51,-221.52 461.07,-150.7 496,-112 522.02,-83.17 782.77,-71.75 889.16,-68.27"/>
<polygon fill="midnightblue" stroke="midnightblue" points="889.38,-71.77 899.26,-67.95 889.15,-64.77 889.38,-71.77"/>
</g>
<!-- Node25 -->
<g id="node16" class="node">
<title>Node25</title>
<g id="a_node16"><a xlink:href="static__vector_8h.html" target="_top" xlink:title=" ">
<polygon fill="white" stroke="red" points="703.5,-185 703.5,-204 842.5,-204 842.5,-185 703.5,-185"/>
<text text-anchor="middle" x="773" y="-192" font-family="Helvetica,sans-Serif" font-size="10.00">emlabcpp/static_vector.h</text>
</a>
</g>
</g>
<!-- Node24&#45;&gt;Node25 -->
<g id="edge20" class="edge">
<title>Node24&#45;&gt;Node25</title>
<path fill="none" stroke="midnightblue" d="M547.68,-246.48C594.55,-235.87 674.61,-217.76 725.6,-206.22"/>
<polygon fill="midnightblue" stroke="midnightblue" points="726.41,-209.63 735.39,-204.01 724.86,-202.8 726.41,-209.63"/>
</g>
<!-- Node34 -->
<g id="node18" class="node">
<title>Node34</title>
<g id="a_node18"><a xlink:title=" ">
<polygon fill="white" stroke="#bfbfbf" points="539.5,-118 539.5,-137 584.5,-137 584.5,-118 539.5,-118"/>
<text text-anchor="middle" x="562" y="-125" font-family="Helvetica,sans-Serif" font-size="10.00">utility</text>
</a>
</g>
</g>
<!-- Node24&#45;&gt;Node34 -->
<g id="edge29" class="edge">
<title>Node24&#45;&gt;Node34</title>
<path fill="none" stroke="midnightblue" d="M513.57,-246.31C522,-225.81 543.24,-174.15 554.58,-146.54"/>
<polygon fill="midnightblue" stroke="midnightblue" points="557.84,-147.84 558.4,-137.26 551.36,-145.17 557.84,-147.84"/>
</g>
<!-- Node25&#45;&gt;Node11 -->
<g id="edge23" class="edge">
<title>Node25&#45;&gt;Node11</title>
<path fill="none" stroke="midnightblue" d="M773.56,-184.57C775.07,-167.98 780.64,-132.26 801,-112 824.47,-88.64 860.47,-77.4 889.1,-72"/>
<polygon fill="midnightblue" stroke="midnightblue" points="890.01,-75.39 899.28,-70.26 888.83,-68.49 890.01,-75.39"/>
</g>
<!-- Node31 -->
<g id="node17" class="node">
<title>Node31</title>
<g id="a_node17"><a xlink:href="iterator_8h.html" target="_top" xlink:title=" ">
<polygon fill="white" stroke="red" points="603,-118 603,-137 715,-137 715,-118 603,-118"/>
<text text-anchor="middle" x="659" y="-125" font-family="Helvetica,sans-Serif" font-size="10.00">emlabcpp/iterator.h</text>
</a>
</g>
</g>
<!-- Node25&#45;&gt;Node31 -->
<g id="edge21" class="edge">
<title>Node25&#45;&gt;Node31</title>
<path fill="none" stroke="midnightblue" d="M757.63,-184.73C738.48,-173.82 705.56,-155.05 683.06,-142.22"/>
<polygon fill="midnightblue" stroke="midnightblue" points="684.55,-139.04 674.13,-137.13 681.08,-145.12 684.55,-139.04"/>
</g>
<!-- Node25&#45;&gt;Node34 -->
<g id="edge24" class="edge">
<title>Node25&#45;&gt;Node34</title>
<path fill="none" stroke="midnightblue" d="M736.84,-185C700.32,-176.02 642.53,-160.73 594,-143 592.39,-142.41 590.74,-141.77 589.09,-141.11"/>
<polygon fill="midnightblue" stroke="midnightblue" points="590.31,-137.83 579.74,-137.11 587.56,-144.26 590.31,-137.83"/>
</g>
<!-- Node31&#45;&gt;Node18 -->
<g id="edge22" class="edge">
<title>Node31&#45;&gt;Node18</title>
<path fill="none" stroke="midnightblue" d="M659,-117.98C659,-109.58 659,-96.48 659,-85.66"/>
<polygon fill="midnightblue" stroke="midnightblue" points="662.5,-85.51 659,-75.51 655.5,-85.51 662.5,-85.51"/>
</g>
<!-- Node35&#45;&gt;Node31 -->
<g id="edge31" class="edge">
<title>Node35&#45;&gt;Node31</title>
<path fill="none" stroke="midnightblue" d="M637.08,-179.4C641.23,-169.76 646.76,-156.91 651.23,-146.54"/>
<polygon fill="midnightblue" stroke="midnightblue" points="654.51,-147.76 655.25,-137.19 648.08,-144.99 654.51,-147.76"/>
</g>
<!-- Node36&#45;&gt;Node4 -->
<g id="edge47" class="edge">
<title>Node36&#45;&gt;Node4</title>
<path fill="none" stroke="midnightblue" d="M1420.5,-246.43C1440.68,-239.52 1466.16,-227.94 1483,-210 1513.92,-177.06 1538.45,-147.09 1510,-112 1445.84,-32.87 716.15,-15.31 496.3,-11.8"/>
<polygon fill="midnightblue" stroke="midnightblue" points="496.28,-8.3 486.23,-11.65 496.17,-15.3 496.28,-8.3"/>
</g>
<!-- Node36&#45;&gt;Node17 -->
<g id="edge48" class="edge">
<title>Node36&#45;&gt;Node17</title>
<path fill="none" stroke="midnightblue" d="M1406.44,-246.45C1421.11,-238.59 1441.88,-225.76 1456,-210 1486.86,-175.55 1521.03,-147.18 1491,-112 1459.97,-75.65 1316.1,-68.51 1246.26,-67.22"/>
<polygon fill="midnightblue" stroke="midnightblue" points="1246.16,-63.72 1236.11,-67.06 1246.05,-70.71 1246.16,-63.72"/>
</g>
<!-- Node36&#45;&gt;Node25 -->
<g id="edge46" class="edge">
<title>Node36&#45;&gt;Node25</title>
<path fill="none" stroke="midnightblue" d="M1318.82,-251.32C1216.05,-245.43 1018.69,-232.23 852,-210 843.26,-208.83 834.02,-207.36 825.06,-205.8"/>
<polygon fill="midnightblue" stroke="midnightblue" points="825.57,-202.34 815.11,-204.02 824.33,-209.23 825.57,-202.34"/>
</g>
<!-- Node37 -->
<g id="node22" class="node">
<title>Node37</title>
<g id="a_node22"><a xlink:href="protocol_2base_8h.html" target="_top" xlink:title=" ">
<polygon fill="white" stroke="red" points="1217.5,-185 1217.5,-204 1360.5,-204 1360.5,-185 1217.5,-185"/>
<text text-anchor="middle" x="1289" y="-192" font-family="Helvetica,sans-Serif" font-size="10.00">emlabcpp/protocol/base.h</text>
</a>
</g>
</g>
<!-- Node36&#45;&gt;Node37 -->
<g id="edge34" class="edge">
<title>Node36&#45;&gt;Node37</title>
<path fill="none" stroke="midnightblue" d="M1374.67,-246.48C1358.34,-236.75 1331.4,-220.73 1312.09,-209.24"/>
<polygon fill="midnightblue" stroke="midnightblue" points="1313.68,-206.11 1303.3,-204.01 1310.11,-212.13 1313.68,-206.11"/>
</g>
<!-- Node38 -->
<g id="node23" class="node">
<title>Node38</title>
<g id="a_node23"><a xlink:href="protocol_2error_8h.html" target="_top" xlink:title=" ">
<polygon fill="white" stroke="red" points="1088,-118 1088,-137 1230,-137 1230,-118 1088,-118"/>
<text text-anchor="middle" x="1159" y="-125" font-family="Helvetica,sans-Serif" font-size="10.00">emlabcpp/protocol/error.h</text>
</a>
</g>
</g>
<!-- Node36&#45;&gt;Node38 -->
<g id="edge39" class="edge">
<title>Node36&#45;&gt;Node38</title>
<path fill="none" stroke="midnightblue" d="M1389.52,-246.32C1389.95,-230.59 1388.46,-197.28 1370,-179 1358.95,-168.06 1274.3,-150.21 1215.64,-138.92"/>
<polygon fill="midnightblue" stroke="midnightblue" points="1216.22,-135.47 1205.74,-137.03 1214.9,-142.35 1216.22,-135.47"/>
</g>
<!-- Node14 -->
<g id="node24" class="node">
<title>Node14</title>
<g id="a_node24"><a xlink:title=" ">
<polygon fill="white" stroke="#bfbfbf" points="1248.5,-118 1248.5,-137 1299.5,-137 1299.5,-118 1248.5,-118"/>
<text text-anchor="middle" x="1274" y="-125" font-family="Helvetica,sans-Serif" font-size="10.00">variant</text>
</a>
</g>
</g>
<!-- Node36&#45;&gt;Node14 -->
<g id="edge49" class="edge">
<title>Node36&#45;&gt;Node14</title>
<path fill="none" stroke="midnightblue" d="M1394.46,-246.16C1403.04,-231.03 1417.29,-199.78 1403,-179 1377.65,-142.14 1350.56,-159.56 1309,-143 1307.36,-142.35 1305.68,-141.67 1303.99,-140.99"/>
<polygon fill="midnightblue" stroke="midnightblue" points="1304.9,-137.58 1294.32,-137.03 1302.25,-144.06 1304.9,-137.58"/>
</g>
<!-- Node42 -->
<g id="node25" class="node">
<title>Node42</title>
<g id="a_node25"><a xlink:href="message_8h.html" target="_top" xlink:title=" ">
<polygon fill="white" stroke="red" points="1318,-118 1318,-137 1482,-137 1482,-118 1318,-118"/>
<text text-anchor="middle" x="1400" y="-125" font-family="Helvetica,sans-Serif" font-size="10.00">emlabcpp/protocol/message.h</text>
</a>
</g>
</g>
<!-- Node36&#45;&gt;Node42 -->
<g id="edge40" class="edge">
<title>Node36&#45;&gt;Node42</title>
<path fill="none" stroke="midnightblue" d="M1404.78,-246.47C1417.2,-238.77 1433.61,-226.18 1441,-210 1446.73,-197.47 1445.61,-191.98 1441,-179 1436.33,-165.83 1426.59,-153.59 1417.78,-144.46"/>
<polygon fill="midnightblue" stroke="midnightblue" points="1420.03,-141.77 1410.42,-137.29 1415.14,-146.78 1420.03,-141.77"/>
</g>
<!-- Node43 -->
<g id="node26" class="node">
<title>Node43</title>
<g id="a_node26"><a xlink:href="quantity_8h.html" target="_top" xlink:title=" ">
<polygon fill="white" stroke="red" points="1083,-185 1083,-204 1199,-204 1199,-185 1083,-185"/>
<text text-anchor="middle" x="1141" y="-192" font-family="Helvetica,sans-Serif" font-size="10.00">emlabcpp/quantity.h</text>
</a>
</g>
</g>
<!-- Node36&#45;&gt;Node43 -->
<g id="edge43" class="edge">
<title>Node36&#45;&gt;Node43</title>
<path fill="none" stroke="midnightblue" d="M1353.47,-246.48C1309.45,-235.92 1234.41,-217.91 1186.3,-206.37"/>
<polygon fill="midnightblue" stroke="midnightblue" points="1187.01,-202.94 1176.47,-204.01 1185.37,-209.75 1187.01,-202.94"/>
</g>
<!-- Node37&#45;&gt;Node16 -->
<g id="edge35" class="edge">
<title>Node37&#45;&gt;Node16</title>
<path fill="none" stroke="midnightblue" d="M1242.22,-184.94C1177.35,-173.06 1060.21,-151.61 990.52,-138.85"/>
<polygon fill="midnightblue" stroke="midnightblue" points="991.06,-135.39 980.6,-137.03 989.8,-142.28 991.06,-135.39"/>
</g>
<!-- Node37&#45;&gt;Node11 -->
<g id="edge37" class="edge">
<title>Node37&#45;&gt;Node11</title>
<path fill="none" stroke="midnightblue" d="M1244.04,-184.94C1191.45,-174.53 1107.9,-156.66 1079,-143 1058.35,-133.23 1057.73,-123.51 1038,-112 1015.55,-98.91 988.58,-87.35 967.73,-79.22"/>
<polygon fill="midnightblue" stroke="midnightblue" points="968.92,-75.93 958.33,-75.63 966.42,-82.47 968.92,-75.93"/>
</g>
<!-- Node37&#45;&gt;Node38 -->
<g id="edge36" class="edge">
<title>Node37&#45;&gt;Node38</title>
<path fill="none" stroke="midnightblue" d="M1271.74,-184.87C1249.69,-173.84 1211.31,-154.66 1185.54,-141.77"/>
<polygon fill="midnightblue" stroke="midnightblue" points="1186.84,-138.51 1176.33,-137.17 1183.71,-144.77 1186.84,-138.51"/>
</g>
<!-- Node37&#45;&gt;Node14 -->
<g id="edge38" class="edge">
<title>Node37&#45;&gt;Node14</title>
<path fill="none" stroke="midnightblue" d="M1286.98,-184.73C1284.75,-175.09 1281.11,-159.3 1278.25,-146.91"/>
<polygon fill="midnightblue" stroke="midnightblue" points="1281.65,-146.08 1275.99,-137.13 1274.83,-147.66 1281.65,-146.08"/>
</g>
<!-- Node42&#45;&gt;Node17 -->
<g id="edge42" class="edge">
<title>Node42&#45;&gt;Node17</title>
<path fill="none" stroke="midnightblue" d="M1372.49,-117.98C1339.13,-107.64 1282.74,-90.16 1245.44,-78.6"/>
<polygon fill="midnightblue" stroke="midnightblue" points="1246.05,-75.13 1235.46,-75.51 1243.97,-81.81 1246.05,-75.13"/>
</g>
<!-- Node42&#45;&gt;Node18 -->
<g id="edge41" class="edge">
<title>Node42&#45;&gt;Node18</title>
<path fill="none" stroke="midnightblue" d="M1351.47,-117.95C1337.77,-115.76 1322.83,-113.58 1309,-112 1092.44,-87.3 833.64,-74.29 718.87,-69.36"/>
<polygon fill="midnightblue" stroke="midnightblue" points="719.02,-65.87 708.88,-68.94 718.72,-72.86 719.02,-65.87"/>
</g>
<!-- Node43&#45;&gt;Node11 -->
<g id="edge45" class="edge">
<title>Node43&#45;&gt;Node11</title>
<path fill="none" stroke="midnightblue" d="M1123.09,-184.89C1103.68,-175.36 1072.01,-159.18 1046,-143 1026,-130.55 1022.43,-125.33 1003,-112 987.57,-101.42 969.9,-89.9 956.3,-81.17"/>
<polygon fill="midnightblue" stroke="midnightblue" points="957.92,-78.05 947.61,-75.61 954.15,-83.95 957.92,-78.05"/>
</g>
<!-- Node43&#45;&gt;Node19 -->
<g id="edge44" class="edge">
<title>Node43&#45;&gt;Node19</title>
<path fill="none" stroke="midnightblue" d="M1102.79,-184.94C1093.39,-182.92 1083.35,-180.82 1074,-179 981.91,-161.07 955.83,-170.07 866,-143 864.07,-142.42 862.1,-141.75 860.13,-141.03"/>
<polygon fill="midnightblue" stroke="midnightblue" points="861.1,-137.65 850.51,-137.14 858.47,-144.13 861.1,-137.65"/>
</g>
<!-- Node47&#45;&gt;Node23 -->
<g id="edge51" class="edge">
<title>Node47&#45;&gt;Node23</title>
<path fill="none" stroke="midnightblue" d="M934,-246.48C934,-238.08 934,-224.98 934,-214.16"/>
<polygon fill="midnightblue" stroke="midnightblue" points="937.5,-214.01 934,-204.01 930.5,-214.01 937.5,-214.01"/>
</g>
<!-- Node47&#45;&gt;Node35 -->
<g id="edge52" class="edge">
<title>Node47&#45;&gt;Node35</title>
<path fill="none" stroke="midnightblue" d="M885.83,-246.47C839.66,-238.17 767.76,-224.93 695.92,-210.15"/>
<polygon fill="midnightblue" stroke="midnightblue" points="696.29,-206.65 685.78,-208.05 694.87,-213.5 696.29,-206.65"/>
</g>
<!-- Node47&#45;&gt;Node37 -->
<g id="edge53" class="edge">
<title>Node47&#45;&gt;Node37</title>
<path fill="none" stroke="midnightblue" d="M987.33,-246.47C1042.58,-237.59 1131.39,-223.15 1208,-210 1215.72,-208.67 1223.85,-207.25 1231.86,-205.83"/>
<polygon fill="midnightblue" stroke="midnightblue" points="1232.67,-209.25 1241.91,-204.05 1231.45,-202.35 1232.67,-209.25"/>
</g>
<!-- Node48 -->
<g id="node28" class="node">
<title>Node48</title>
<g id="a_node28"><a xlink:title=" ">
<polygon fill="white" stroke="#bfbfbf" points="1025,-185 1025,-204 1065,-204 1065,-185 1025,-185"/>
<text text-anchor="middle" x="1045" y="-192" font-family="Helvetica,sans-Serif" font-size="10.00">span</text>
</a>
</g>
</g>
<!-- Node47&#45;&gt;Node48 -->
<g id="edge54" class="edge">
<title>Node47&#45;&gt;Node48</title>
<path fill="none" stroke="midnightblue" d="M949.9,-246.48C968.28,-236.62 998.76,-220.29 1020.24,-208.77"/>
<polygon fill="midnightblue" stroke="midnightblue" points="1021.97,-211.82 1029.13,-204.01 1018.66,-205.65 1021.97,-211.82"/>
</g>
</g>
</svg>
