<?xml version="1.0" encoding="UTF-8" standalone="no"?>
<!DOCTYPE svg PUBLIC "-//W3C//DTD SVG 1.1//EN"
 "http://www.w3.org/Graphics/SVG/1.1/DTD/svg11.dtd">
<!-- Generated by graphviz version 2.43.0 (0)
 -->
<!-- Title: include/emlabcpp/experimental/derived_storage.h Pages: 1 -->
<svg width="294pt" height="151pt"
 viewBox="0.00 0.00 293.50 151.00" xmlns="http://www.w3.org/2000/svg" xmlns:xlink="http://www.w3.org/1999/xlink">
<g id="graph0" class="graph" transform="scale(1 1) rotate(0) translate(4 147)">
<title>include/emlabcpp/experimental/derived_storage.h</title>
<polygon fill="white" stroke="transparent" points="-4,4 -4,-147 289.5,-147 289.5,4 -4,4"/>
<!-- Node1 -->
<g id="node1" class="node">
<title>Node1</title>
<g id="a_node1"><a xlink:title=" ">
<polygon fill="#bfbfbf" stroke="black" points="94,-112.5 94,-142.5 265,-142.5 265,-112.5 94,-112.5"/>
<text text-anchor="start" x="102" y="-130.5" font-family="Helvetica,sans-Serif" font-size="10.00">include/emlabcpp/experimental</text>
<text text-anchor="middle" x="179.5" y="-119.5" font-family="Helvetica,sans-Serif" font-size="10.00">/derived_storage.h</text>
</a>
</g>
</g>
<!-- Node2 -->
<g id="node2" class="node">
<title>Node2</title>
<g id="a_node2"><a xlink:href="util_8h.html" target="_top" xlink:title=" ">
<polygon fill="white" stroke="black" points="16,-56.5 16,-75.5 131,-75.5 131,-56.5 16,-56.5"/>
<text text-anchor="middle" x="73.5" y="-63.5" font-family="Helvetica,sans-Serif" font-size="10.00">emlabcpp/pmr/util.h</text>
</a>
</g>
</g>
<!-- Node1&#45;&gt;Node2 -->
<g id="edge1" class="edge">
<title>Node1&#45;&gt;Node2</title>
<path fill="none" stroke="midnightblue" d="M154.38,-112.4C137.23,-102.77 114.64,-90.09 97.69,-80.58"/>
<polygon fill="midnightblue" stroke="midnightblue" points="99.36,-77.5 88.92,-75.66 95.93,-83.6 99.36,-77.5"/>
</g>
<!-- Node6 -->
<g id="node6" class="node">
<title>Node6</title>
<g id="a_node6"><a xlink:title=" ">
<polygon fill="white" stroke="#bfbfbf" points="149.5,-56.5 149.5,-75.5 209.5,-75.5 209.5,-56.5 149.5,-56.5"/>
<text text-anchor="middle" x="179.5" y="-63.5" font-family="Helvetica,sans-Serif" font-size="10.00">concepts</text>
</a>
</g>
</g>
<!-- Node1&#45;&gt;Node6 -->
<g id="edge5" class="edge">
<title>Node1&#45;&gt;Node6</title>
<path fill="none" stroke="midnightblue" d="M179.5,-112.4C179.5,-104.47 179.5,-94.46 179.5,-85.86"/>
<polygon fill="midnightblue" stroke="midnightblue" points="183,-85.66 179.5,-75.66 176,-85.66 183,-85.66"/>
</g>
<!-- Node7 -->
<g id="node7" class="node">
<title>Node7</title>
<g id="a_node7"><a xlink:title=" ">
<polygon fill="white" stroke="#bfbfbf" points="227.5,-56.5 227.5,-75.5 285.5,-75.5 285.5,-56.5 227.5,-56.5"/>
<text text-anchor="middle" x="256.5" y="-63.5" font-family="Helvetica,sans-Serif" font-size="10.00">memory</text>
</a>
</g>
</g>
<!-- Node1&#45;&gt;Node7 -->
<g id="edge6" class="edge">
<title>Node1&#45;&gt;Node7</title>
<path fill="none" stroke="midnightblue" d="M197.75,-112.4C209.63,-103.22 225.11,-91.26 237.19,-81.92"/>
<polygon fill="midnightblue" stroke="midnightblue" points="239.52,-84.54 245.3,-75.66 235.24,-79 239.52,-84.54"/>
</g>
<!-- Node3 -->
<g id="node3" class="node">
<title>Node3</title>
<g id="a_node3"><a xlink:title=" ">
<polygon fill="white" stroke="#bfbfbf" points="0,-0.5 0,-19.5 29,-19.5 29,-0.5 0,-0.5"/>
<text text-anchor="middle" x="14.5" y="-7.5" font-family="Helvetica,sans-Serif" font-size="10.00">bit</text>
</a>
</g>
</g>
<!-- Node2&#45;&gt;Node3 -->
<g id="edge2" class="edge">
<title>Node2&#45;&gt;Node3</title>
<path fill="none" stroke="midnightblue" d="M64.02,-56.32C55.3,-48.34 42.16,-36.31 31.6,-26.65"/>
<polygon fill="midnightblue" stroke="midnightblue" points="33.89,-24 24.15,-19.83 29.17,-29.17 33.89,-24"/>
</g>
<!-- Node4 -->
<g id="node4" class="node">
<title>Node4</title>
<g id="a_node4"><a xlink:title=" ">
<polygon fill="white" stroke="#bfbfbf" points="47,-0.5 47,-19.5 100,-19.5 100,-0.5 47,-0.5"/>
<text text-anchor="middle" x="73.5" y="-7.5" font-family="Helvetica,sans-Serif" font-size="10.00">cstddef</text>
</a>
</g>
</g>
<!-- Node2&#45;&gt;Node4 -->
<g id="edge3" class="edge">
<title>Node2&#45;&gt;Node4</title>
<path fill="none" stroke="midnightblue" d="M73.5,-56.08C73.5,-49.01 73.5,-38.86 73.5,-29.99"/>
<polygon fill="midnightblue" stroke="midnightblue" points="77,-29.75 73.5,-19.75 70,-29.75 77,-29.75"/>
</g>
<!-- Node5 -->
<g id="node5" class="node">
<title>Node5</title>
<g id="a_node5"><a xlink:title=" ">
<polygon fill="white" stroke="#bfbfbf" points="118.5,-0.5 118.5,-19.5 168.5,-19.5 168.5,-0.5 118.5,-0.5"/>
<text text-anchor="middle" x="143.5" y="-7.5" font-family="Helvetica,sans-Serif" font-size="10.00">cstdint</text>
</a>
</g>
</g>
<!-- Node2&#45;&gt;Node5 -->
<g id="edge4" class="edge">
<title>Node2&#45;&gt;Node5</title>
<path fill="none" stroke="midnightblue" d="M84.75,-56.32C95.3,-48.18 111.3,-35.84 123.94,-26.09"/>
<polygon fill="midnightblue" stroke="midnightblue" points="126.27,-28.71 132.05,-19.83 121.99,-23.17 126.27,-28.71"/>
</g>
</g>
</svg>
