<?xml version="1.0" encoding="UTF-8" standalone="no"?>
<!DOCTYPE svg PUBLIC "-//W3C//DTD SVG 1.1//EN"
 "http://www.w3.org/Graphics/SVG/1.1/DTD/svg11.dtd">
<!-- Generated by graphviz version 2.43.0 (0)
 -->
<!-- Title: include/emlabcpp/derived_storage.h Pages: 1 -->
<svg width="196pt" height="162pt"
 viewBox="0.00 0.00 196.00 162.00" xmlns="http://www.w3.org/2000/svg" xmlns:xlink="http://www.w3.org/1999/xlink">
<g id="graph0" class="graph" transform="scale(1 1) rotate(0) translate(4 158)">
<title>include/emlabcpp/derived_storage.h</title>
<polygon fill="white" stroke="transparent" points="-4,4 -4,-158 192,-158 192,4 -4,4"/>
<!-- Node1 -->
<g id="node1" class="node">
<title>Node1</title>
<g id="a_node1"><a xlink:title=" ">
<polygon fill="#bfbfbf" stroke="black" points="34.5,-123.5 34.5,-153.5 177.5,-153.5 177.5,-123.5 34.5,-123.5"/>
<text text-anchor="start" x="42.5" y="-141.5" font-family="Helvetica,sans-Serif" font-size="10.00">include/emlabcpp/derived</text>
<text text-anchor="middle" x="106" y="-130.5" font-family="Helvetica,sans-Serif" font-size="10.00">_storage.h</text>
</a>
</g>
</g>
<!-- Node2 -->
<g id="node2" class="node">
<title>Node2</title>
<g id="a_node2"><a xlink:href="util_8h.html" target="_top" xlink:title=" ">
<polygon fill="white" stroke="black" points="0,-56.5 0,-86.5 110,-86.5 110,-56.5 0,-56.5"/>
<text text-anchor="start" x="8" y="-74.5" font-family="Helvetica,sans-Serif" font-size="10.00">emlabcpp/allocator</text>
<text text-anchor="middle" x="55" y="-63.5" font-family="Helvetica,sans-Serif" font-size="10.00">/util.h</text>
</a>
</g>
</g>
<!-- Node1&#45;&gt;Node2 -->
<g id="edge1" class="edge">
<title>Node1&#45;&gt;Node2</title>
<path fill="none" stroke="midnightblue" d="M94.93,-123.4C88.32,-114.96 79.77,-104.07 72.28,-94.52"/>
<polygon fill="midnightblue" stroke="midnightblue" points="74.97,-92.28 66.04,-86.58 69.46,-96.6 74.97,-92.28"/>
</g>
<!-- Node4 -->
<g id="node4" class="node">
<title>Node4</title>
<g id="a_node4"><a xlink:title=" ">
<polygon fill="white" stroke="#bfbfbf" points="128,-62 128,-81 188,-81 188,-62 128,-62"/>
<text text-anchor="middle" x="158" y="-69" font-family="Helvetica,sans-Serif" font-size="10.00">concepts</text>
</a>
</g>
</g>
<!-- Node1&#45;&gt;Node4 -->
<g id="edge3" class="edge">
<title>Node1&#45;&gt;Node4</title>
<path fill="none" stroke="midnightblue" d="M117.28,-123.4C125.31,-113.36 136.13,-99.84 144.6,-89.25"/>
<polygon fill="midnightblue" stroke="midnightblue" points="147.53,-91.19 151.04,-81.19 142.06,-86.82 147.53,-91.19"/>
</g>
<!-- Node3 -->
<g id="node3" class="node">
<title>Node3</title>
<g id="a_node3"><a xlink:title=" ">
<polygon fill="white" stroke="#bfbfbf" points="30,-0.5 30,-19.5 80,-19.5 80,-0.5 30,-0.5"/>
<text text-anchor="middle" x="55" y="-7.5" font-family="Helvetica,sans-Serif" font-size="10.00">cstdint</text>
</a>
</g>
</g>
<!-- Node2&#45;&gt;Node3 -->
<g id="edge2" class="edge">
<title>Node2&#45;&gt;Node3</title>
<path fill="none" stroke="midnightblue" d="M55,-56.4C55,-48.47 55,-38.46 55,-29.86"/>
<polygon fill="midnightblue" stroke="midnightblue" points="58.5,-29.66 55,-19.66 51.5,-29.66 58.5,-29.66"/>
</g>
</g>
</svg>
