<?xml version="1.0" encoding="UTF-8" standalone="no"?>
<!DOCTYPE svg PUBLIC "-//W3C//DTD SVG 1.1//EN"
 "http://www.w3.org/Graphics/SVG/1.1/DTD/svg11.dtd">
<!-- Generated by graphviz version 2.43.0 (0)
 -->
<!-- Title: include/emlabcpp/experimental/testing Pages: 1 -->
<svg width="180pt" height="223pt"
 viewBox="0.00 0.00 179.50 223.00" xmlns="http://www.w3.org/2000/svg" xmlns:xlink="http://www.w3.org/1999/xlink">
<g id="graph0" class="graph" transform="scale(1 1) rotate(0) translate(4 219)">
<title>include/emlabcpp/experimental/testing</title>
<polygon fill="white" stroke="transparent" points="-4,4 -4,-219 175.5,-219 175.5,4 -4,4"/>
<g id="clust1" class="cluster">
<title>clusterdir_833cf07299c67ab119396183470d94f1</title>
<g id="a_clust1"><a xlink:href="dir_833cf07299c67ab119396183470d94f1.html" target="_top" xlink:title="experimental">
<polygon fill="#ddddee" stroke="black" points="46.5,-136 46.5,-207 128.5,-207 128.5,-136 46.5,-136"/>
<text text-anchor="middle" x="87.5" y="-195" font-family="Helvetica,sans-Serif" font-size="10.00">experimental</text>
</a>
</g>
</g>
<!-- dir_539f3c5103b46bf50615f61463de2f53 -->
<g id="node1" class="node">
<title>dir_539f3c5103b46bf50615f61463de2f53</title>
<g id="a_node1"><a xlink:href="dir_539f3c5103b46bf50615f61463de2f53.html" target="_top" xlink:title="testing">
<polygon fill="#eeeeff" stroke="black" points="114.5,-180 60.5,-180 60.5,-144 114.5,-144 114.5,-180"/>
<text text-anchor="middle" x="87.5" y="-159.5" font-family="Helvetica,sans-Serif" font-size="10.00">testing</text>
</a>
</g>
</g>
<!-- dir_52a6b55dd004b46393f33e3ff3a56c73 -->
<g id="node2" class="node">
<title>dir_52a6b55dd004b46393f33e3ff3a56c73</title>
<g id="a_node2"><a xlink:href="dir_52a6b55dd004b46393f33e3ff3a56c73.html" target="_top" xlink:title="allocator">
<polygon fill="none" stroke="black" points="59,-108 0,-108 0,-72 59,-72 59,-108"/>
<text text-anchor="middle" x="29.5" y="-87.5" font-family="Helvetica,sans-Serif" font-size="10.00">allocator</text>
</a>
</g>
</g>
<!-- dir_539f3c5103b46bf50615f61463de2f53&#45;&gt;dir_52a6b55dd004b46393f33e3ff3a56c73 -->
<g id="edge3" class="edge">
<title>dir_539f3c5103b46bf50615f61463de2f53&#45;&gt;dir_52a6b55dd004b46393f33e3ff3a56c73</title>
<path fill="none" stroke="black" d="M73.16,-143.7C66.21,-135.3 57.73,-125.07 50.1,-115.86"/>
<polygon fill="black" stroke="black" points="52.75,-113.57 43.67,-108.1 47.36,-118.04 52.75,-113.57"/>
<g id="a_edge3&#45;headlabel"><a xlink:href="dir_000005_000003.html" target="_top" xlink:title="2">
<text text-anchor="middle" x="57.23" y="-112.03" font-family="Helvetica,sans-Serif" font-size="10.00">2</text>
</a>
</g>
</g>
<!-- dir_d23cc4b283f7681fa42a07595366cfa6 -->
<g id="node3" class="node">
<title>dir_d23cc4b283f7681fa42a07595366cfa6</title>
<g id="a_node3"><a xlink:href="dir_d23cc4b283f7681fa42a07595366cfa6.html" target="_top" xlink:title="iterators">
<polygon fill="none" stroke="black" points="116.5,-36 58.5,-36 58.5,0 116.5,0 116.5,-36"/>
<text text-anchor="middle" x="87.5" y="-15.5" font-family="Helvetica,sans-Serif" font-size="10.00">iterators</text>
</a>
</g>
</g>
<!-- dir_539f3c5103b46bf50615f61463de2f53&#45;&gt;dir_d23cc4b283f7681fa42a07595366cfa6 -->
<g id="edge4" class="edge">
<title>dir_539f3c5103b46bf50615f61463de2f53&#45;&gt;dir_d23cc4b283f7681fa42a07595366cfa6</title>
<path fill="none" stroke="black" d="M87.5,-143.87C87.5,-119.67 87.5,-75.21 87.5,-46.39"/>
<polygon fill="black" stroke="black" points="91,-46.19 87.5,-36.19 84,-46.19 91,-46.19"/>
<g id="a_edge4&#45;headlabel"><a xlink:href="dir_000005_000008.html" target="_top" xlink:title="1">
<text text-anchor="middle" x="93.84" y="-47.28" font-family="Helvetica,sans-Serif" font-size="10.00">1</text>
</a>
</g>
</g>
<!-- dir_d020062af5803c7b3279d0fbd1610b13 -->
<g id="node4" class="node">
<title>dir_d020062af5803c7b3279d0fbd1610b13</title>
<g id="a_node4"><a xlink:href="dir_d020062af5803c7b3279d0fbd1610b13.html" target="_top" xlink:title="protocol">
<polygon fill="none" stroke="black" points="171.5,-108 115.5,-108 115.5,-72 171.5,-72 171.5,-108"/>
<text text-anchor="middle" x="143.5" y="-87.5" font-family="Helvetica,sans-Serif" font-size="10.00">protocol</text>
</a>
</g>
</g>
<!-- dir_539f3c5103b46bf50615f61463de2f53&#45;&gt;dir_d020062af5803c7b3279d0fbd1610b13 -->
<g id="edge5" class="edge">
<title>dir_539f3c5103b46bf50615f61463de2f53&#45;&gt;dir_d020062af5803c7b3279d0fbd1610b13</title>
<path fill="none" stroke="black" d="M101.34,-143.7C107.99,-135.39 116.08,-125.28 123.39,-116.14"/>
<polygon fill="black" stroke="black" points="126.3,-118.1 129.82,-108.1 120.84,-113.73 126.3,-118.1"/>
<g id="a_edge5&#45;headlabel"><a xlink:href="dir_000005_000006.html" target="_top" xlink:title="4">
<text text-anchor="middle" x="126.27" y="-120.18" font-family="Helvetica,sans-Serif" font-size="10.00">4</text>
</a>
</g>
</g>
<!-- dir_52a6b55dd004b46393f33e3ff3a56c73&#45;&gt;dir_d23cc4b283f7681fa42a07595366cfa6 -->
<g id="edge1" class="edge">
<title>dir_52a6b55dd004b46393f33e3ff3a56c73&#45;&gt;dir_d23cc4b283f7681fa42a07595366cfa6</title>
<path fill="none" stroke="black" d="M43.84,-71.7C50.79,-63.3 59.27,-53.07 66.9,-43.86"/>
<polygon fill="black" stroke="black" points="69.64,-46.04 73.33,-36.1 64.25,-41.57 69.64,-46.04"/>
<g id="a_edge1&#45;headlabel"><a xlink:href="dir_000003_000008.html" target="_top" xlink:title="1">
<text text-anchor="middle" x="69.54" y="-48.12" font-family="Helvetica,sans-Serif" font-size="10.00">1</text>
</a>
</g>
</g>
<!-- dir_d020062af5803c7b3279d0fbd1610b13&#45;&gt;dir_d23cc4b283f7681fa42a07595366cfa6 -->
<g id="edge2" class="edge">
<title>dir_d020062af5803c7b3279d0fbd1610b13&#45;&gt;dir_d23cc4b283f7681fa42a07595366cfa6</title>
<path fill="none" stroke="black" d="M129.66,-71.7C123.01,-63.39 114.92,-53.28 107.61,-44.14"/>
<polygon fill="black" stroke="black" points="110.16,-41.73 101.18,-36.1 104.7,-46.1 110.16,-41.73"/>
<g id="a_edge2&#45;headlabel"><a xlink:href="dir_000006_000008.html" target="_top" xlink:title="3">
<text text-anchor="middle" x="114.63" y="-40.26" font-family="Helvetica,sans-Serif" font-size="10.00">3</text>
</a>
</g>
</g>
</g>
</svg>
