<?xml version="1.0" encoding="UTF-8" standalone="no"?>
<!DOCTYPE svg PUBLIC "-//W3C//DTD SVG 1.1//EN"
 "http://www.w3.org/Graphics/SVG/1.1/DTD/svg11.dtd">
<!-- Generated by graphviz version 2.43.0 (0)
 -->
<!-- Title: include/emlabcpp/allocator Pages: 1 -->
<svg width="100pt" height="151pt"
 viewBox="0.00 0.00 100.00 151.00" xmlns="http://www.w3.org/2000/svg" xmlns:xlink="http://www.w3.org/1999/xlink">
<g id="graph0" class="graph" transform="scale(1 1) rotate(0) translate(4 147)">
<title>include/emlabcpp/allocator</title>
<polygon fill="white" stroke="transparent" points="-4,4 -4,-147 96,-147 96,4 -4,4"/>
<g id="clust1" class="cluster">
<title>clusterdir_e401c60e573c7244dba2167ba35f72d7</title>
<g id="a_clust1"><a xlink:href="dir_e401c60e573c7244dba2167ba35f72d7.html" target="_top" xlink:title="emlabcpp">
<polygon fill="#ddddee" stroke="black" points="8,-64 8,-135 84,-135 84,-64 8,-64"/>
<text text-anchor="middle" x="46" y="-123" font-family="Helvetica,sans-Serif" font-size="10.00">emlabcpp</text>
</a>
</g>
</g>
<!-- dir_52a6b55dd004b46393f33e3ff3a56c73 -->
<g id="node1" class="node">
<title>dir_52a6b55dd004b46393f33e3ff3a56c73</title>
<g id="a_node1"><a xlink:href="dir_52a6b55dd004b46393f33e3ff3a56c73.html" target="_top" xlink:title="allocator">
<polygon fill="#eeeeff" stroke="black" points="75.5,-108 16.5,-108 16.5,-72 75.5,-72 75.5,-108"/>
<text text-anchor="middle" x="46" y="-87.5" font-family="Helvetica,sans-Serif" font-size="10.00">allocator</text>
</a>
</g>
</g>
<!-- dir_d23cc4b283f7681fa42a07595366cfa6 -->
<g id="node2" class="node">
<title>dir_d23cc4b283f7681fa42a07595366cfa6</title>
<g id="a_node2"><a xlink:href="dir_d23cc4b283f7681fa42a07595366cfa6.html" target="_top" xlink:title="iterators">
<polygon fill="none" stroke="black" points="75,-36 17,-36 17,0 75,0 75,-36"/>
<text text-anchor="middle" x="46" y="-15.5" font-family="Helvetica,sans-Serif" font-size="10.00">iterators</text>
</a>
</g>
</g>
<!-- dir_52a6b55dd004b46393f33e3ff3a56c73&#45;&gt;dir_d23cc4b283f7681fa42a07595366cfa6 -->
<g id="edge1" class="edge">
<title>dir_52a6b55dd004b46393f33e3ff3a56c73&#45;&gt;dir_d23cc4b283f7681fa42a07595366cfa6</title>
<path fill="none" stroke="black" d="M46,-71.7C46,-63.98 46,-54.71 46,-46.11"/>
<polygon fill="black" stroke="black" points="49.5,-46.1 46,-36.1 42.5,-46.1 49.5,-46.1"/>
<g id="a_edge1&#45;headlabel"><a xlink:href="dir_000003_000008.html" target="_top" xlink:title="1">
<text text-anchor="middle" x="52.34" y="-47.2" font-family="Helvetica,sans-Serif" font-size="10.00">1</text>
</a>
</g>
</g>
</g>
</svg>
