<?xml version="1.0" encoding="UTF-8" standalone="no"?>
<!DOCTYPE svg PUBLIC "-//W3C//DTD SVG 1.1//EN"
 "http://www.w3.org/Graphics/SVG/1.1/DTD/svg11.dtd">
<!-- Generated by graphviz version 2.43.0 (0)
 -->
<!-- Title: include/emlabcpp/either.h Pages: 1 -->
<svg width="692pt" height="263pt"
 viewBox="0.00 0.00 691.52 263.00" xmlns="http://www.w3.org/2000/svg" xmlns:xlink="http://www.w3.org/1999/xlink">
<g id="graph0" class="graph" transform="scale(1 1) rotate(0) translate(4 259)">
<title>include/emlabcpp/either.h</title>
<polygon fill="white" stroke="transparent" points="-4,4 -4,-259 687.52,-259 687.52,4 -4,4"/>
<!-- Node1 -->
<g id="node1" class="node">
<title>Node1</title>
<g id="a_node1"><a xlink:title=" ">
<polygon fill="#bfbfbf" stroke="black" points="505.5,-235.5 505.5,-254.5 648.5,-254.5 648.5,-235.5 505.5,-235.5"/>
<text text-anchor="middle" x="577" y="-242.5" font-family="Helvetica,sans-Serif" font-size="10.00">include/emlabcpp/either.h</text>
</a>
</g>
</g>
<!-- Node2 -->
<g id="node2" class="node">
<title>Node2</title>
<g id="a_node2"><a xlink:href="static__vector_8h.html" target="_top" xlink:title=" ">
<polygon fill="white" stroke="black" points="342.5,-179.5 342.5,-198.5 481.5,-198.5 481.5,-179.5 342.5,-179.5"/>
<text text-anchor="middle" x="412" y="-186.5" font-family="Helvetica,sans-Serif" font-size="10.00">emlabcpp/static_vector.h</text>
</a>
</g>
</g>
<!-- Node1&#45;&gt;Node2 -->
<g id="edge1" class="edge">
<title>Node1&#45;&gt;Node2</title>
<path fill="none" stroke="midnightblue" d="M550.86,-235.44C522.98,-226.32 478.65,-211.81 447.6,-201.65"/>
<polygon fill="midnightblue" stroke="midnightblue" points="448.62,-198.3 438.02,-198.52 446.44,-204.95 448.62,-198.3"/>
</g>
<!-- Node19 -->
<g id="node5" class="node">
<title>Node19</title>
<g id="a_node5"><a xlink:href="types_8h.html" target="_top" xlink:title=" ">
<polygon fill="white" stroke="red" points="0,-56.5 0,-75.5 104,-75.5 104,-56.5 0,-56.5"/>
<text text-anchor="middle" x="52" y="-63.5" font-family="Helvetica,sans-Serif" font-size="10.00">emlabcpp/types.h</text>
</a>
</g>
</g>
<!-- Node1&#45;&gt;Node19 -->
<g id="edge13" class="edge">
<title>Node1&#45;&gt;Node19</title>
<path fill="none" stroke="midnightblue" d="M505.36,-240.72C412.96,-233.72 249.91,-211.78 130,-143 103.33,-127.7 79.06,-101.16 64.91,-83.84"/>
<polygon fill="midnightblue" stroke="midnightblue" points="67.43,-81.39 58.47,-75.74 61.95,-85.74 67.43,-81.39"/>
</g>
<!-- Node22 -->
<g id="node6" class="node">
<title>Node22</title>
<g id="a_node6"><a xlink:title=" ">
<polygon fill="white" stroke="#bfbfbf" points="438,-56.5 438,-75.5 494,-75.5 494,-56.5 438,-56.5"/>
<text text-anchor="middle" x="466" y="-63.5" font-family="Helvetica,sans-Serif" font-size="10.00">optional</text>
</a>
</g>
</g>
<!-- Node1&#45;&gt;Node22 -->
<g id="edge14" class="edge">
<title>Node1&#45;&gt;Node22</title>
<path fill="none" stroke="midnightblue" d="M587.06,-235.25C611.48,-212.97 669.63,-152.97 638,-112 621.81,-91.03 550.02,-77.95 504.46,-71.61"/>
<polygon fill="midnightblue" stroke="midnightblue" points="504.7,-68.11 494.33,-70.25 503.77,-75.05 504.7,-68.11"/>
</g>
<!-- Node8 -->
<g id="node7" class="node">
<title>Node8</title>
<g id="a_node7"><a xlink:title=" ">
<polygon fill="white" stroke="#bfbfbf" points="620.5,-56.5 620.5,-75.5 661.5,-75.5 661.5,-56.5 620.5,-56.5"/>
<text text-anchor="middle" x="641" y="-63.5" font-family="Helvetica,sans-Serif" font-size="10.00">tuple</text>
</a>
</g>
</g>
<!-- Node1&#45;&gt;Node8 -->
<g id="edge15" class="edge">
<title>Node1&#45;&gt;Node8</title>
<path fill="none" stroke="midnightblue" d="M617.15,-235.43C636.97,-228.95 659.14,-217.83 671,-199 691.61,-166.28 682.2,-149.01 671,-112 667.88,-101.7 661.55,-91.61 655.5,-83.6"/>
<polygon fill="midnightblue" stroke="midnightblue" points="658.22,-81.4 649.21,-75.82 652.77,-85.8 658.22,-81.4"/>
</g>
<!-- Node9 -->
<g id="node10" class="node">
<title>Node9</title>
<g id="a_node10"><a xlink:title=" ">
<polygon fill="white" stroke="#bfbfbf" points="496.5,-118 496.5,-137 565.5,-137 565.5,-118 496.5,-118"/>
<text text-anchor="middle" x="531" y="-125" font-family="Helvetica,sans-Serif" font-size="10.00">type_traits</text>
</a>
</g>
</g>
<!-- Node1&#45;&gt;Node9 -->
<g id="edge16" class="edge">
<title>Node1&#45;&gt;Node9</title>
<path fill="none" stroke="midnightblue" d="M573.54,-235.32C566.08,-216.59 548.34,-172.05 538.29,-146.79"/>
<polygon fill="midnightblue" stroke="midnightblue" points="541.45,-145.28 534.5,-137.28 534.95,-147.87 541.45,-145.28"/>
</g>
<!-- Node27 -->
<g id="node11" class="node">
<title>Node27</title>
<g id="a_node11"><a xlink:title=" ">
<polygon fill="white" stroke="#bfbfbf" points="583.5,-118 583.5,-137 628.5,-137 628.5,-118 583.5,-118"/>
<text text-anchor="middle" x="606" y="-125" font-family="Helvetica,sans-Serif" font-size="10.00">utility</text>
</a>
</g>
</g>
<!-- Node1&#45;&gt;Node27 -->
<g id="edge17" class="edge">
<title>Node1&#45;&gt;Node27</title>
<path fill="none" stroke="midnightblue" d="M579.18,-235.32C583.86,-216.67 594.97,-172.44 601.32,-147.13"/>
<polygon fill="midnightblue" stroke="midnightblue" points="604.75,-147.83 603.79,-137.28 597.97,-146.13 604.75,-147.83"/>
</g>
<!-- Node3 -->
<g id="node3" class="node">
<title>Node3</title>
<g id="a_node3"><a xlink:href="concepts_8h.html" target="_top" xlink:title=" ">
<polygon fill="white" stroke="red" points="72,-0.5 72,-19.5 192,-19.5 192,-0.5 72,-0.5"/>
<text text-anchor="middle" x="132" y="-7.5" font-family="Helvetica,sans-Serif" font-size="10.00">emlabcpp/concepts.h</text>
</a>
</g>
</g>
<!-- Node2&#45;&gt;Node3 -->
<g id="edge2" class="edge">
<title>Node2&#45;&gt;Node3</title>
<path fill="none" stroke="midnightblue" d="M342.46,-185.03C274.29,-180.59 176.93,-169.66 151,-143 121.49,-112.66 124.44,-58.34 128.53,-29.76"/>
<polygon fill="midnightblue" stroke="midnightblue" points="132.05,-29.98 130.21,-19.54 125.14,-28.84 132.05,-29.98"/>
</g>
<!-- Node14 -->
<g id="node4" class="node">
<title>Node14</title>
<g id="a_node4"><a xlink:href="pretty__printer_8h.html" target="_top" xlink:title=" ">
<polygon fill="white" stroke="red" points="345.5,-112.5 345.5,-142.5 478.5,-142.5 478.5,-112.5 345.5,-112.5"/>
<text text-anchor="start" x="353.5" y="-130.5" font-family="Helvetica,sans-Serif" font-size="10.00">emlabcpp/experimental</text>
<text text-anchor="middle" x="412" y="-119.5" font-family="Helvetica,sans-Serif" font-size="10.00">/pretty_printer.h</text>
</a>
</g>
</g>
<!-- Node2&#45;&gt;Node14 -->
<g id="edge3" class="edge">
<title>Node2&#45;&gt;Node14</title>
<path fill="none" stroke="midnightblue" d="M412,-179.48C412,-172.47 412,-162.19 412,-152.7"/>
<polygon fill="midnightblue" stroke="midnightblue" points="415.5,-152.52 412,-142.52 408.5,-152.52 415.5,-152.52"/>
</g>
<!-- Node24 -->
<g id="node8" class="node">
<title>Node24</title>
<g id="a_node8"><a xlink:href="iterator_8h.html" target="_top" xlink:title=" ">
<polygon fill="white" stroke="red" points="160,-118 160,-137 272,-137 272,-118 160,-118"/>
<text text-anchor="middle" x="216" y="-125" font-family="Helvetica,sans-Serif" font-size="10.00">emlabcpp/iterator.h</text>
</a>
</g>
</g>
<!-- Node2&#45;&gt;Node24 -->
<g id="edge9" class="edge">
<title>Node2&#45;&gt;Node24</title>
<path fill="none" stroke="midnightblue" d="M383.92,-179.48C349.71,-169.09 291.8,-151.51 253.73,-139.95"/>
<polygon fill="midnightblue" stroke="midnightblue" points="254.62,-136.56 244.03,-137.01 252.58,-143.26 254.62,-136.56"/>
</g>
<!-- Node26 -->
<g id="node9" class="node">
<title>Node26</title>
<g id="a_node9"><a xlink:title=" ">
<polygon fill="white" stroke="#bfbfbf" points="290.5,-118 290.5,-137 327.5,-137 327.5,-118 290.5,-118"/>
<text text-anchor="middle" x="309" y="-125" font-family="Helvetica,sans-Serif" font-size="10.00">new</text>
</a>
</g>
</g>
<!-- Node2&#45;&gt;Node26 -->
<g id="edge10" class="edge">
<title>Node2&#45;&gt;Node26</title>
<path fill="none" stroke="midnightblue" d="M397.24,-179.48C380.34,-169.71 352.42,-153.58 332.51,-142.08"/>
<polygon fill="midnightblue" stroke="midnightblue" points="334.14,-138.98 323.73,-137.01 330.64,-145.04 334.14,-138.98"/>
</g>
<!-- Node2&#45;&gt;Node9 -->
<g id="edge11" class="edge">
<title>Node2&#45;&gt;Node9</title>
<path fill="none" stroke="midnightblue" d="M429.05,-179.48C448.84,-169.58 481.72,-153.14 504.77,-141.62"/>
<polygon fill="midnightblue" stroke="midnightblue" points="506.6,-144.61 513.98,-137.01 503.47,-138.35 506.6,-144.61"/>
</g>
<!-- Node2&#45;&gt;Node27 -->
<g id="edge12" class="edge">
<title>Node2&#45;&gt;Node27</title>
<path fill="none" stroke="midnightblue" d="M449.79,-179.48C483.19,-171.5 533,-158.5 575,-143 576.61,-142.41 578.25,-141.76 579.9,-141.09"/>
<polygon fill="midnightblue" stroke="midnightblue" points="581.42,-144.24 589.16,-137 578.6,-137.83 581.42,-144.24"/>
</g>
<!-- Node14&#45;&gt;Node3 -->
<g id="edge4" class="edge">
<title>Node14&#45;&gt;Node3</title>
<path fill="none" stroke="midnightblue" d="M377.95,-112.45C322.77,-89.69 214.71,-45.12 162.15,-23.44"/>
<polygon fill="midnightblue" stroke="midnightblue" points="163.29,-20.12 152.71,-19.54 160.62,-26.59 163.29,-20.12"/>
</g>
<!-- Node14&#45;&gt;Node19 -->
<g id="edge5" class="edge">
<title>Node14&#45;&gt;Node19</title>
<path fill="none" stroke="midnightblue" d="M345.29,-113.65C342.15,-113.08 339.04,-112.53 336,-112 259.8,-98.7 171.8,-85.01 114.2,-76.28"/>
<polygon fill="midnightblue" stroke="midnightblue" points="114.58,-72.8 104.16,-74.76 113.53,-79.72 114.58,-72.8"/>
</g>
<!-- Node14&#45;&gt;Node22 -->
<g id="edge7" class="edge">
<title>Node14&#45;&gt;Node22</title>
<path fill="none" stroke="midnightblue" d="M424.8,-112.4C432.72,-103.66 442.94,-92.41 451.21,-83.3"/>
<polygon fill="midnightblue" stroke="midnightblue" points="454.01,-85.42 458.14,-75.66 448.83,-80.71 454.01,-85.42"/>
</g>
<!-- Node14&#45;&gt;Node8 -->
<g id="edge8" class="edge">
<title>Node14&#45;&gt;Node8</title>
<path fill="none" stroke="midnightblue" d="M465.98,-112.47C510.99,-100.78 573.51,-84.53 610.37,-74.96"/>
<polygon fill="midnightblue" stroke="midnightblue" points="611.69,-78.23 620.49,-72.33 609.93,-71.46 611.69,-78.23"/>
</g>
<!-- Node19&#45;&gt;Node3 -->
<g id="edge6" class="edge">
<title>Node19&#45;&gt;Node3</title>
<path fill="none" stroke="midnightblue" d="M64.85,-56.32C77.22,-47.98 96.13,-35.21 110.74,-25.35"/>
<polygon fill="midnightblue" stroke="midnightblue" points="112.85,-28.15 119.18,-19.65 108.93,-22.35 112.85,-28.15"/>
</g>
</g>
</svg>
