<?xml version="1.0" encoding="UTF-8" standalone="no"?>
<!DOCTYPE svg PUBLIC "-//W3C//DTD SVG 1.1//EN"
 "http://www.w3.org/Graphics/SVG/1.1/DTD/svg11.dtd">
<!-- Generated by graphviz version 2.43.0 (0)
 -->
<!-- Title: include/emlabcpp/protocol/endpoint.h Pages: 1 -->
<svg width="511pt" height="162pt"
 viewBox="0.00 0.00 511.00 162.00" xmlns="http://www.w3.org/2000/svg" xmlns:xlink="http://www.w3.org/1999/xlink">
<g id="graph0" class="graph" transform="scale(1 1) rotate(0) translate(4 158)">
<title>include/emlabcpp/protocol/endpoint.h</title>
<polygon fill="white" stroke="transparent" points="-4,4 -4,-158 507,-158 507,4 -4,4"/>
<!-- Node1 -->
<g id="node1" class="node">
<title>Node1</title>
<g id="a_node1"><a xlink:title=" ">
<polygon fill="#bfbfbf" stroke="black" points="176.5,-123.5 176.5,-153.5 322.5,-153.5 322.5,-123.5 176.5,-123.5"/>
<text text-anchor="start" x="184.5" y="-141.5" font-family="Helvetica,sans-Serif" font-size="10.00">include/emlabcpp/protocol</text>
<text text-anchor="middle" x="249.5" y="-130.5" font-family="Helvetica,sans-Serif" font-size="10.00">/endpoint.h</text>
</a>
</g>
</g>
<!-- Node2 -->
<g id="node2" class="node">
<title>Node2</title>
<g id="a_node2"><a xlink:href="packet__handler_8h.html" target="_top" xlink:title=" ">
<polygon fill="white" stroke="black" points="178,-56.5 178,-86.5 321,-86.5 321,-56.5 178,-56.5"/>
<text text-anchor="start" x="186" y="-74.5" font-family="Helvetica,sans-Serif" font-size="10.00">emlabcpp/protocol/packet</text>
<text text-anchor="middle" x="249.5" y="-63.5" font-family="Helvetica,sans-Serif" font-size="10.00">_handler.h</text>
</a>
</g>
</g>
<!-- Node1&#45;&gt;Node2 -->
<g id="edge1" class="edge">
<title>Node1&#45;&gt;Node2</title>
<path fill="none" stroke="midnightblue" d="M249.5,-123.4C249.5,-115.64 249.5,-105.81 249.5,-96.86"/>
<polygon fill="midnightblue" stroke="midnightblue" points="253,-96.58 249.5,-86.58 246,-96.58 253,-96.58"/>
</g>
<!-- Node3 -->
<g id="node3" class="node">
<title>Node3</title>
<g id="a_node3"><a xlink:href="protocol_2handler_8h.html" target="_top" xlink:title=" ">
<polygon fill="white" stroke="red" points="0,-0.5 0,-19.5 155,-19.5 155,-0.5 0,-0.5"/>
<text text-anchor="middle" x="77.5" y="-7.5" font-family="Helvetica,sans-Serif" font-size="10.00">emlabcpp/protocol/handler.h</text>
</a>
</g>
</g>
<!-- Node2&#45;&gt;Node3 -->
<g id="edge2" class="edge">
<title>Node2&#45;&gt;Node3</title>
<path fill="none" stroke="midnightblue" d="M208.74,-56.4C179.28,-46.21 139.91,-32.59 112,-22.93"/>
<polygon fill="midnightblue" stroke="midnightblue" points="112.87,-19.53 102.28,-19.57 110.58,-26.15 112.87,-19.53"/>
</g>
<!-- Node57 -->
<g id="node4" class="node">
<title>Node57</title>
<g id="a_node4"><a xlink:href="packet_8h.html" target="_top" xlink:title=" ">
<polygon fill="white" stroke="red" points="173.5,-0.5 173.5,-19.5 325.5,-19.5 325.5,-0.5 173.5,-0.5"/>
<text text-anchor="middle" x="249.5" y="-7.5" font-family="Helvetica,sans-Serif" font-size="10.00">emlabcpp/protocol/packet.h</text>
</a>
</g>
</g>
<!-- Node2&#45;&gt;Node57 -->
<g id="edge3" class="edge">
<title>Node2&#45;&gt;Node57</title>
<path fill="none" stroke="midnightblue" d="M249.5,-56.4C249.5,-48.47 249.5,-38.46 249.5,-29.86"/>
<polygon fill="midnightblue" stroke="midnightblue" points="253,-29.66 249.5,-19.66 246,-29.66 253,-29.66"/>
</g>
<!-- Node61 -->
<g id="node5" class="node">
<title>Node61</title>
<g id="a_node5"><a xlink:href="streams_8h.html" target="_top" xlink:title=" ">
<polygon fill="white" stroke="red" points="344,-0.5 344,-19.5 503,-19.5 503,-0.5 344,-0.5"/>
<text text-anchor="middle" x="423.5" y="-7.5" font-family="Helvetica,sans-Serif" font-size="10.00">emlabcpp/protocol/streams.h</text>
</a>
</g>
</g>
<!-- Node2&#45;&gt;Node61 -->
<g id="edge4" class="edge">
<title>Node2&#45;&gt;Node61</title>
<path fill="none" stroke="midnightblue" d="M290.74,-56.4C320.67,-46.16 360.71,-32.47 388.97,-22.81"/>
<polygon fill="midnightblue" stroke="midnightblue" points="390.11,-26.12 398.44,-19.57 387.84,-19.49 390.11,-26.12"/>
</g>
</g>
</svg>
