<?xml version="1.0" encoding="UTF-8" standalone="no"?>
<!DOCTYPE svg PUBLIC "-//W3C//DTD SVG 1.1//EN"
 "http://www.w3.org/Graphics/SVG/1.1/DTD/svg11.dtd">
<!-- Generated by graphviz version 2.43.0 (0)
 -->
<!-- Title: include/emlabcpp/protocol/endpoint.h Pages: 1 -->
<svg width="331pt" height="151pt"
 viewBox="0.00 0.00 331.00 151.00" xmlns="http://www.w3.org/2000/svg" xmlns:xlink="http://www.w3.org/1999/xlink">
<g id="graph0" class="graph" transform="scale(1 1) rotate(0) translate(4 147)">
<title>include/emlabcpp/protocol/endpoint.h</title>
<polygon fill="white" stroke="transparent" points="-4,4 -4,-147 327,-147 327,4 -4,4"/>
<!-- Node1 -->
<g id="node1" class="node">
<title>Node1</title>
<g id="a_node1"><a xlink:title=" ">
<polygon fill="#bfbfbf" stroke="black" points="86.5,-112.5 86.5,-142.5 232.5,-142.5 232.5,-112.5 86.5,-112.5"/>
<text text-anchor="start" x="94.5" y="-130.5" font-family="Helvetica,sans-Serif" font-size="10.00">include/emlabcpp/protocol</text>
<text text-anchor="middle" x="159.5" y="-119.5" font-family="Helvetica,sans-Serif" font-size="10.00">/endpoint.h</text>
</a>
</g>
</g>
<!-- Node2 -->
<g id="node2" class="node">
<title>Node2</title>
<g id="a_node2"><a xlink:href="packet__handler_8h.html" target="_top" xlink:title=" ">
<polygon fill="white" stroke="black" points="107,-56.5 107,-75.5 212,-75.5 212,-56.5 107,-56.5"/>
<text text-anchor="middle" x="159.5" y="-63.5" font-family="Helvetica,sans-Serif" font-size="10.00">./packet_handler.h</text>
</a>
</g>
</g>
<!-- Node1&#45;&gt;Node2 -->
<g id="edge1" class="edge">
<title>Node1&#45;&gt;Node2</title>
<path fill="none" stroke="midnightblue" d="M159.5,-112.4C159.5,-104.47 159.5,-94.46 159.5,-85.86"/>
<polygon fill="midnightblue" stroke="midnightblue" points="163,-85.66 159.5,-75.66 156,-85.66 163,-85.66"/>
</g>
<!-- Node3 -->
<g id="node3" class="node">
<title>Node3</title>
<g id="a_node3"><a xlink:href="match_8h.html" target="_top" xlink:title=" ">
<polygon fill="white" stroke="red" points="0,-0.5 0,-19.5 65,-19.5 65,-0.5 0,-0.5"/>
<text text-anchor="middle" x="32.5" y="-7.5" font-family="Helvetica,sans-Serif" font-size="10.00">../match.h</text>
</a>
</g>
</g>
<!-- Node2&#45;&gt;Node3 -->
<g id="edge2" class="edge">
<title>Node2&#45;&gt;Node3</title>
<path fill="none" stroke="midnightblue" d="M139.38,-56.44C118.48,-47.56 85.57,-33.56 61.78,-23.45"/>
<polygon fill="midnightblue" stroke="midnightblue" points="63.1,-20.21 52.53,-19.52 60.36,-26.65 63.1,-20.21"/>
</g>
<!-- Node19 -->
<g id="node4" class="node">
<title>Node19</title>
<g id="a_node4"><a xlink:href="protocol_2handler_8h.html" target="_top" xlink:title=" ">
<polygon fill="white" stroke="red" points="83.5,-0.5 83.5,-19.5 151.5,-19.5 151.5,-0.5 83.5,-0.5"/>
<text text-anchor="middle" x="117.5" y="-7.5" font-family="Helvetica,sans-Serif" font-size="10.00">./handler.h</text>
</a>
</g>
</g>
<!-- Node2&#45;&gt;Node19 -->
<g id="edge3" class="edge">
<title>Node2&#45;&gt;Node19</title>
<path fill="none" stroke="midnightblue" d="M152.56,-56.08C146.57,-48.38 137.75,-37.03 130.45,-27.65"/>
<polygon fill="midnightblue" stroke="midnightblue" points="133.21,-25.5 124.31,-19.75 127.68,-29.79 133.21,-25.5"/>
</g>
<!-- Node57 -->
<g id="node5" class="node">
<title>Node57</title>
<g id="a_node5"><a xlink:href="packet_8h.html" target="_top" xlink:title=" ">
<polygon fill="white" stroke="red" points="169.5,-0.5 169.5,-19.5 233.5,-19.5 233.5,-0.5 169.5,-0.5"/>
<text text-anchor="middle" x="201.5" y="-7.5" font-family="Helvetica,sans-Serif" font-size="10.00">./packet.h</text>
</a>
</g>
</g>
<!-- Node2&#45;&gt;Node57 -->
<g id="edge4" class="edge">
<title>Node2&#45;&gt;Node57</title>
<path fill="none" stroke="midnightblue" d="M166.44,-56.08C172.43,-48.38 181.25,-37.03 188.55,-27.65"/>
<polygon fill="midnightblue" stroke="midnightblue" points="191.32,-29.79 194.69,-19.75 185.79,-25.5 191.32,-29.79"/>
</g>
<!-- Node61 -->
<g id="node6" class="node">
<title>Node61</title>
<g id="a_node6"><a xlink:href="streams_8h.html" target="_top" xlink:title=" ">
<polygon fill="white" stroke="red" points="252,-0.5 252,-19.5 323,-19.5 323,-0.5 252,-0.5"/>
<text text-anchor="middle" x="287.5" y="-7.5" font-family="Helvetica,sans-Serif" font-size="10.00">./streams.h</text>
</a>
</g>
</g>
<!-- Node2&#45;&gt;Node61 -->
<g id="edge5" class="edge">
<title>Node2&#45;&gt;Node61</title>
<path fill="none" stroke="midnightblue" d="M179.78,-56.44C200.85,-47.56 234.02,-33.56 257.99,-23.45"/>
<polygon fill="midnightblue" stroke="midnightblue" points="259.46,-26.63 267.31,-19.52 256.74,-20.18 259.46,-26.63"/>
</g>
</g>
</svg>
