<?xml version="1.0" encoding="UTF-8" standalone="no"?>
<!DOCTYPE svg PUBLIC "-//W3C//DTD SVG 1.1//EN"
 "http://www.w3.org/Graphics/SVG/1.1/DTD/svg11.dtd">
<!-- Generated by graphviz version 2.43.0 (0)
 -->
<!-- Title: include/emlabcpp/protocol/endpoint.hpp Pages: 1 -->
<svg width="379pt" height="151pt"
 viewBox="0.00 0.00 379.00 151.00" xmlns="http://www.w3.org/2000/svg" xmlns:xlink="http://www.w3.org/1999/xlink">
<g id="graph0" class="graph" transform="scale(1 1) rotate(0) translate(4 147)">
<title>include/emlabcpp/protocol/endpoint.hpp</title>
<polygon fill="white" stroke="transparent" points="-4,4 -4,-147 375,-147 375,4 -4,4"/>
<!-- Node1 -->
<g id="node1" class="node">
<title>Node1</title>
<g id="a_node1"><a xlink:title=" ">
<polygon fill="#bfbfbf" stroke="black" points="110.5,-112.5 110.5,-142.5 256.5,-142.5 256.5,-112.5 110.5,-112.5"/>
<text text-anchor="start" x="118.5" y="-130.5" font-family="Helvetica,sans-Serif" font-size="10.00">include/emlabcpp/protocol</text>
<text text-anchor="middle" x="183.5" y="-119.5" font-family="Helvetica,sans-Serif" font-size="10.00">/endpoint.hpp</text>
</a>
</g>
</g>
<!-- Node2 -->
<g id="node2" class="node">
<title>Node2</title>
<g id="a_node2"><a xlink:href="packet__handler_8hpp.html" target="_top" xlink:title=" ">
<polygon fill="white" stroke="black" points="125,-56.5 125,-75.5 242,-75.5 242,-56.5 125,-56.5"/>
<text text-anchor="middle" x="183.5" y="-63.5" font-family="Helvetica,sans-Serif" font-size="10.00">./packet_handler.hpp</text>
</a>
</g>
</g>
<!-- Node1&#45;&gt;Node2 -->
<g id="edge1" class="edge">
<title>Node1&#45;&gt;Node2</title>
<path fill="none" stroke="midnightblue" d="M183.5,-112.4C183.5,-104.47 183.5,-94.46 183.5,-85.86"/>
<polygon fill="midnightblue" stroke="midnightblue" points="187,-85.66 183.5,-75.66 180,-85.66 187,-85.66"/>
</g>
<!-- Node3 -->
<g id="node3" class="node">
<title>Node3</title>
<g id="a_node3"><a xlink:href="match_8hpp.html" target="_top" xlink:title=" ">
<polygon fill="white" stroke="red" points="0,-0.5 0,-19.5 77,-19.5 77,-0.5 0,-0.5"/>
<text text-anchor="middle" x="38.5" y="-7.5" font-family="Helvetica,sans-Serif" font-size="10.00">../match.hpp</text>
</a>
</g>
</g>
<!-- Node2&#45;&gt;Node3 -->
<g id="edge2" class="edge">
<title>Node2&#45;&gt;Node3</title>
<path fill="none" stroke="midnightblue" d="M160.52,-56.44C136.34,-47.44 98.08,-33.19 70.85,-23.05"/>
<polygon fill="midnightblue" stroke="midnightblue" points="71.96,-19.73 61.37,-19.52 69.52,-26.29 71.96,-19.73"/>
</g>
<!-- Node19 -->
<g id="node4" class="node">
<title>Node19</title>
<g id="a_node4"><a xlink:href="protocol_2handler_8hpp.html" target="_top" xlink:title=" ">
<polygon fill="white" stroke="red" points="95.5,-0.5 95.5,-19.5 175.5,-19.5 175.5,-0.5 95.5,-0.5"/>
<text text-anchor="middle" x="135.5" y="-7.5" font-family="Helvetica,sans-Serif" font-size="10.00">./handler.hpp</text>
</a>
</g>
</g>
<!-- Node2&#45;&gt;Node19 -->
<g id="edge3" class="edge">
<title>Node2&#45;&gt;Node19</title>
<path fill="none" stroke="midnightblue" d="M175.57,-56.08C168.65,-48.3 158.43,-36.8 150.05,-27.37"/>
<polygon fill="midnightblue" stroke="midnightblue" points="152.54,-24.9 143.28,-19.75 147.31,-29.55 152.54,-24.9"/>
</g>
<!-- Node57 -->
<g id="node5" class="node">
<title>Node57</title>
<g id="a_node5"><a xlink:href="packet_8hpp.html" target="_top" xlink:title=" ">
<polygon fill="white" stroke="red" points="193.5,-0.5 193.5,-19.5 269.5,-19.5 269.5,-0.5 193.5,-0.5"/>
<text text-anchor="middle" x="231.5" y="-7.5" font-family="Helvetica,sans-Serif" font-size="10.00">./packet.hpp</text>
</a>
</g>
</g>
<!-- Node2&#45;&gt;Node57 -->
<g id="edge4" class="edge">
<title>Node2&#45;&gt;Node57</title>
<path fill="none" stroke="midnightblue" d="M191.43,-56.08C198.35,-48.3 208.57,-36.8 216.95,-27.37"/>
<polygon fill="midnightblue" stroke="midnightblue" points="219.69,-29.55 223.72,-19.75 214.46,-24.9 219.69,-29.55"/>
</g>
<!-- Node62 -->
<g id="node6" class="node">
<title>Node62</title>
<g id="a_node6"><a xlink:href="streams_8hpp.html" target="_top" xlink:title=" ">
<polygon fill="white" stroke="red" points="288,-0.5 288,-19.5 371,-19.5 371,-0.5 288,-0.5"/>
<text text-anchor="middle" x="329.5" y="-7.5" font-family="Helvetica,sans-Serif" font-size="10.00">./streams.hpp</text>
</a>
</g>
</g>
<!-- Node2&#45;&gt;Node62 -->
<g id="edge5" class="edge">
<title>Node2&#45;&gt;Node62</title>
<path fill="none" stroke="midnightblue" d="M206.63,-56.44C230.98,-47.44 269.51,-33.19 296.92,-23.05"/>
<polygon fill="midnightblue" stroke="midnightblue" points="298.31,-26.27 306.47,-19.52 295.88,-19.7 298.31,-26.27"/>
</g>
</g>
</svg>
