<?xml version="1.0" encoding="UTF-8" standalone="no"?>
<!DOCTYPE svg PUBLIC "-//W3C//DTD SVG 1.1//EN"
 "http://www.w3.org/Graphics/SVG/1.1/DTD/svg11.dtd">
<!-- Generated by graphviz version 2.43.0 (0)
 -->
<!-- Title: include/emlabcpp/protocol/endpoint.h Pages: 1 -->
<svg width="662pt" height="173pt"
 viewBox="0.00 0.00 662.00 173.00" xmlns="http://www.w3.org/2000/svg" xmlns:xlink="http://www.w3.org/1999/xlink">
<g id="graph0" class="graph" transform="scale(1 1) rotate(0) translate(4 169)">
<title>include/emlabcpp/protocol/endpoint.h</title>
<polygon fill="white" stroke="transparent" points="-4,4 -4,-169 658,-169 658,4 -4,4"/>
<!-- Node1 -->
<g id="node1" class="node">
<title>Node1</title>
<g id="a_node1"><a xlink:title=" ">
<polygon fill="#bfbfbf" stroke="black" points="241.5,-134.5 241.5,-164.5 387.5,-164.5 387.5,-134.5 241.5,-134.5"/>
<text text-anchor="start" x="249.5" y="-152.5" font-family="Helvetica,sans-Serif" font-size="10.00">include/emlabcpp/protocol</text>
<text text-anchor="middle" x="314.5" y="-141.5" font-family="Helvetica,sans-Serif" font-size="10.00">/endpoint.h</text>
</a>
</g>
</g>
<!-- Node2 -->
<g id="node2" class="node">
<title>Node2</title>
<g id="a_node2"><a xlink:href="packet__handler_8h.html" target="_top" xlink:title=" ">
<polygon fill="white" stroke="black" points="243,-67.5 243,-97.5 386,-97.5 386,-67.5 243,-67.5"/>
<text text-anchor="start" x="251" y="-85.5" font-family="Helvetica,sans-Serif" font-size="10.00">emlabcpp/protocol/packet</text>
<text text-anchor="middle" x="314.5" y="-74.5" font-family="Helvetica,sans-Serif" font-size="10.00">_handler.h</text>
</a>
</g>
</g>
<!-- Node1&#45;&gt;Node2 -->
<g id="edge1" class="edge">
<title>Node1&#45;&gt;Node2</title>
<path fill="none" stroke="midnightblue" d="M314.5,-134.4C314.5,-126.64 314.5,-116.81 314.5,-107.86"/>
<polygon fill="midnightblue" stroke="midnightblue" points="318,-107.58 314.5,-97.58 311,-107.58 318,-107.58"/>
</g>
<!-- Node3 -->
<g id="node3" class="node">
<title>Node3</title>
<g id="a_node3"><a xlink:href="logging_8h.html" target="_top" xlink:title=" ">
<polygon fill="white" stroke="red" points="0,-0.5 0,-30.5 133,-30.5 133,-0.5 0,-0.5"/>
<text text-anchor="start" x="8" y="-18.5" font-family="Helvetica,sans-Serif" font-size="10.00">emlabcpp/experimental</text>
<text text-anchor="middle" x="66.5" y="-7.5" font-family="Helvetica,sans-Serif" font-size="10.00">/logging.h</text>
</a>
</g>
</g>
<!-- Node2&#45;&gt;Node3 -->
<g id="edge2" class="edge">
<title>Node2&#45;&gt;Node3</title>
<path fill="none" stroke="midnightblue" d="M260.99,-67.48C222.58,-57.41 170.66,-43.8 130.12,-33.17"/>
<polygon fill="midnightblue" stroke="midnightblue" points="130.9,-29.76 120.34,-30.61 129.12,-36.53 130.9,-29.76"/>
</g>
<!-- Node37 -->
<g id="node4" class="node">
<title>Node37</title>
<g id="a_node4"><a xlink:href="protocol_2handler_8h.html" target="_top" xlink:title=" ">
<polygon fill="white" stroke="red" points="151,-6 151,-25 306,-25 306,-6 151,-6"/>
<text text-anchor="middle" x="228.5" y="-13" font-family="Helvetica,sans-Serif" font-size="10.00">emlabcpp/protocol/handler.h</text>
</a>
</g>
</g>
<!-- Node2&#45;&gt;Node37 -->
<g id="edge3" class="edge">
<title>Node2&#45;&gt;Node37</title>
<path fill="none" stroke="midnightblue" d="M295.84,-67.4C281.77,-56.76 262.51,-42.2 248.19,-31.38"/>
<polygon fill="midnightblue" stroke="midnightblue" points="250.09,-28.43 240,-25.19 245.87,-34.02 250.09,-28.43"/>
</g>
<!-- Node65 -->
<g id="node5" class="node">
<title>Node65</title>
<g id="a_node5"><a xlink:href="packet_8h.html" target="_top" xlink:title=" ">
<polygon fill="white" stroke="red" points="324.5,-6 324.5,-25 476.5,-25 476.5,-6 324.5,-6"/>
<text text-anchor="middle" x="400.5" y="-13" font-family="Helvetica,sans-Serif" font-size="10.00">emlabcpp/protocol/packet.h</text>
</a>
</g>
</g>
<!-- Node2&#45;&gt;Node65 -->
<g id="edge4" class="edge">
<title>Node2&#45;&gt;Node65</title>
<path fill="none" stroke="midnightblue" d="M333.16,-67.4C347.23,-56.76 366.49,-42.2 380.81,-31.38"/>
<polygon fill="midnightblue" stroke="midnightblue" points="383.13,-34.02 389,-25.19 378.91,-28.43 383.13,-34.02"/>
</g>
<!-- Node69 -->
<g id="node6" class="node">
<title>Node69</title>
<g id="a_node6"><a xlink:href="streams_8h.html" target="_top" xlink:title=" ">
<polygon fill="white" stroke="red" points="495,-6 495,-25 654,-25 654,-6 495,-6"/>
<text text-anchor="middle" x="574.5" y="-13" font-family="Helvetica,sans-Serif" font-size="10.00">emlabcpp/protocol/streams.h</text>
</a>
</g>
</g>
<!-- Node2&#45;&gt;Node69 -->
<g id="edge5" class="edge">
<title>Node2&#45;&gt;Node69</title>
<path fill="none" stroke="midnightblue" d="M370.6,-67.48C418.52,-55.5 486.5,-38.5 530.55,-27.49"/>
<polygon fill="midnightblue" stroke="midnightblue" points="531.53,-30.85 540.39,-25.03 529.84,-24.06 531.53,-30.85"/>
</g>
</g>
</svg>
