<?xml version="1.0" encoding="UTF-8" standalone="no"?>
<!DOCTYPE svg PUBLIC "-//W3C//DTD SVG 1.1//EN"
 "http://www.w3.org/Graphics/SVG/1.1/DTD/svg11.dtd">
<!-- Generated by graphviz version 2.43.0 (0)
 -->
<!-- Title: include/emlabcpp/enumerate.h Pages: 1 -->
<svg width="327pt" height="196pt"
 viewBox="0.00 0.00 326.50 196.00" xmlns="http://www.w3.org/2000/svg" xmlns:xlink="http://www.w3.org/1999/xlink">
<g id="graph0" class="graph" transform="scale(1 1) rotate(0) translate(4 192)">
<title>include/emlabcpp/enumerate.h</title>
<polygon fill="white" stroke="transparent" points="-4,4 -4,-192 322.5,-192 322.5,4 -4,4"/>
<!-- Node1 -->
<g id="node1" class="node">
<title>Node1</title>
<g id="a_node1"><a xlink:title=" ">
<polygon fill="#bfbfbf" stroke="black" points="87,-168.5 87,-187.5 255,-187.5 255,-168.5 87,-168.5"/>
<text text-anchor="middle" x="171" y="-175.5" font-family="Helvetica,sans-Serif" font-size="10.00">include/emlabcpp/enumerate.h</text>
</a>
</g>
</g>
<!-- Node2 -->
<g id="node2" class="node">
<title>Node2</title>
<g id="a_node2"><a xlink:href="zip_8h.html" target="_top" xlink:title=" ">
<polygon fill="white" stroke="black" points="125.5,-112.5 125.5,-131.5 216.5,-131.5 216.5,-112.5 125.5,-112.5"/>
<text text-anchor="middle" x="171" y="-119.5" font-family="Helvetica,sans-Serif" font-size="10.00">emlabcpp/zip.h</text>
</a>
</g>
</g>
<!-- Node1&#45;&gt;Node2 -->
<g id="edge1" class="edge">
<title>Node1&#45;&gt;Node2</title>
<path fill="none" stroke="midnightblue" d="M171,-168.08C171,-161.01 171,-150.86 171,-141.99"/>
<polygon fill="midnightblue" stroke="midnightblue" points="174.5,-141.75 171,-131.75 167.5,-141.75 174.5,-141.75"/>
</g>
<!-- Node3 -->
<g id="node3" class="node">
<title>Node3</title>
<g id="a_node3"><a xlink:href="range_8h.html" target="_top" xlink:title=" ">
<polygon fill="white" stroke="red" points="0,-56.5 0,-75.5 104,-75.5 104,-56.5 0,-56.5"/>
<text text-anchor="middle" x="52" y="-63.5" font-family="Helvetica,sans-Serif" font-size="10.00">emlabcpp/range.h</text>
</a>
</g>
</g>
<!-- Node2&#45;&gt;Node3 -->
<g id="edge2" class="edge">
<title>Node2&#45;&gt;Node3</title>
<path fill="none" stroke="midnightblue" d="M152.14,-112.44C132.73,-103.64 102.27,-89.81 80.04,-79.72"/>
<polygon fill="midnightblue" stroke="midnightblue" points="81.32,-76.46 70.77,-75.52 78.43,-82.84 81.32,-76.46"/>
</g>
<!-- Node7 -->
<g id="node4" class="node">
<title>Node7</title>
<g id="a_node4"><a xlink:href="types_8h.html" target="_top" xlink:title=" ">
<polygon fill="white" stroke="red" points="119,-0.5 119,-19.5 223,-19.5 223,-0.5 119,-0.5"/>
<text text-anchor="middle" x="171" y="-7.5" font-family="Helvetica,sans-Serif" font-size="10.00">emlabcpp/types.h</text>
</a>
</g>
</g>
<!-- Node2&#45;&gt;Node7 -->
<g id="edge3" class="edge">
<title>Node2&#45;&gt;Node7</title>
<path fill="none" stroke="midnightblue" d="M166.12,-112.37C161.44,-103.55 154.69,-89.3 152,-76 148.72,-59.82 154.76,-41.82 160.88,-28.88"/>
<polygon fill="midnightblue" stroke="midnightblue" points="164.14,-30.2 165.63,-19.71 157.92,-26.98 164.14,-30.2"/>
</g>
<!-- Node6 -->
<g id="node5" class="node">
<title>Node6</title>
<g id="a_node5"><a xlink:href="view_8h.html" target="_top" xlink:title=" ">
<polygon fill="white" stroke="red" points="160.5,-56.5 160.5,-75.5 259.5,-75.5 259.5,-56.5 160.5,-56.5"/>
<text text-anchor="middle" x="210" y="-63.5" font-family="Helvetica,sans-Serif" font-size="10.00">emlabcpp/view.h</text>
</a>
</g>
</g>
<!-- Node2&#45;&gt;Node6 -->
<g id="edge4" class="edge">
<title>Node2&#45;&gt;Node6</title>
<path fill="none" stroke="midnightblue" d="M177.44,-112.08C182.95,-104.46 191.03,-93.26 197.76,-83.94"/>
<polygon fill="midnightblue" stroke="midnightblue" points="200.66,-85.91 203.68,-75.75 194.99,-81.81 200.66,-85.91"/>
</g>
<!-- Node13 -->
<g id="node6" class="node">
<title>Node13</title>
<g id="a_node6"><a xlink:title=" ">
<polygon fill="white" stroke="#bfbfbf" points="277.5,-56.5 277.5,-75.5 318.5,-75.5 318.5,-56.5 277.5,-56.5"/>
<text text-anchor="middle" x="298" y="-63.5" font-family="Helvetica,sans-Serif" font-size="10.00">tuple</text>
</a>
</g>
</g>
<!-- Node2&#45;&gt;Node13 -->
<g id="edge6" class="edge">
<title>Node2&#45;&gt;Node13</title>
<path fill="none" stroke="midnightblue" d="M191.12,-112.44C212.02,-103.56 244.93,-89.56 268.72,-79.45"/>
<polygon fill="midnightblue" stroke="midnightblue" points="270.14,-82.65 277.97,-75.52 267.4,-76.21 270.14,-82.65"/>
</g>
<!-- Node6&#45;&gt;Node7 -->
<g id="edge5" class="edge">
<title>Node6&#45;&gt;Node7</title>
<path fill="none" stroke="midnightblue" d="M203.56,-56.08C198.05,-48.46 189.97,-37.26 183.24,-27.94"/>
<polygon fill="midnightblue" stroke="midnightblue" points="186.01,-25.81 177.32,-19.75 180.34,-29.91 186.01,-25.81"/>
</g>
</g>
</svg>
