<?xml version="1.0" encoding="UTF-8" standalone="no"?>
<!DOCTYPE svg PUBLIC "-//W3C//DTD SVG 1.1//EN"
 "http://www.w3.org/Graphics/SVG/1.1/DTD/svg11.dtd">
<!-- Generated by graphviz version 2.43.0 (0)
 -->
<!-- Title: include/emlabcpp/error_code.h Pages: 1 -->
<svg width="224pt" height="95pt"
 viewBox="0.00 0.00 223.50 95.00" xmlns="http://www.w3.org/2000/svg" xmlns:xlink="http://www.w3.org/1999/xlink">
<g id="graph0" class="graph" transform="scale(1 1) rotate(0) translate(4 91)">
<title>include/emlabcpp/error_code.h</title>
<polygon fill="white" stroke="transparent" points="-4,4 -4,-91 219.5,-91 219.5,4 -4,4"/>
<!-- Node1 -->
<g id="node1" class="node">
<title>Node1</title>
<g id="a_node1"><a xlink:title=" ">
<polygon fill="#bfbfbf" stroke="black" points="38.5,-56.5 38.5,-86.5 167.5,-86.5 167.5,-56.5 38.5,-56.5"/>
<text text-anchor="start" x="46.5" y="-74.5" font-family="Helvetica,sans-Serif" font-size="10.00">include/emlabcpp/error</text>
<text text-anchor="middle" x="103" y="-63.5" font-family="Helvetica,sans-Serif" font-size="10.00">_code.h</text>
</a>
</g>
</g>
<!-- Node2 -->
<g id="node2" class="node">
<title>Node2</title>
<g id="a_node2"><a xlink:title=" ">
<polygon fill="white" stroke="#bfbfbf" points="0,-0.5 0,-19.5 60,-19.5 60,-0.5 0,-0.5"/>
<text text-anchor="middle" x="30" y="-7.5" font-family="Helvetica,sans-Serif" font-size="10.00">concepts</text>
</a>
</g>
</g>
<!-- Node1&#45;&gt;Node2 -->
<g id="edge1" class="edge">
<title>Node1&#45;&gt;Node2</title>
<path fill="none" stroke="midnightblue" d="M85.7,-56.4C74.55,-47.31 60.05,-35.49 48.64,-26.19"/>
<polygon fill="midnightblue" stroke="midnightblue" points="50.58,-23.26 40.62,-19.66 46.16,-28.69 50.58,-23.26"/>
</g>
<!-- Node3 -->
<g id="node3" class="node">
<title>Node3</title>
<g id="a_node3"><a xlink:title=" ">
<polygon fill="white" stroke="#bfbfbf" points="78,-0.5 78,-19.5 128,-19.5 128,-0.5 78,-0.5"/>
<text text-anchor="middle" x="103" y="-7.5" font-family="Helvetica,sans-Serif" font-size="10.00">cstdint</text>
</a>
</g>
</g>
<!-- Node1&#45;&gt;Node3 -->
<g id="edge2" class="edge">
<title>Node1&#45;&gt;Node3</title>
<path fill="none" stroke="midnightblue" d="M103,-56.4C103,-48.47 103,-38.46 103,-29.86"/>
<polygon fill="midnightblue" stroke="midnightblue" points="106.5,-29.66 103,-19.66 99.5,-29.66 106.5,-29.66"/>
</g>
<!-- Node4 -->
<g id="node4" class="node">
<title>Node4</title>
<g id="a_node4"><a xlink:title=" ">
<polygon fill="white" stroke="#bfbfbf" points="146.5,-0.5 146.5,-19.5 215.5,-19.5 215.5,-0.5 146.5,-0.5"/>
<text text-anchor="middle" x="181" y="-7.5" font-family="Helvetica,sans-Serif" font-size="10.00">type_traits</text>
</a>
</g>
</g>
<!-- Node1&#45;&gt;Node4 -->
<g id="edge3" class="edge">
<title>Node1&#45;&gt;Node4</title>
<path fill="none" stroke="midnightblue" d="M121.48,-56.4C133.52,-47.22 149.2,-35.26 161.44,-25.92"/>
<polygon fill="midnightblue" stroke="midnightblue" points="163.82,-28.51 169.65,-19.66 159.58,-22.94 163.82,-28.51"/>
</g>
</g>
</svg>
