<?xml version="1.0" encoding="UTF-8" standalone="no"?>
<!DOCTYPE svg PUBLIC "-//W3C//DTD SVG 1.1//EN"
 "http://www.w3.org/Graphics/SVG/1.1/DTD/svg11.dtd">
<!-- Generated by graphviz version 2.43.0 (0)
 -->
<!-- Title: include/emlabcpp/experimental/testing/executor.h Pages: 1 -->
<svg width="1025pt" height="363pt"
 viewBox="0.00 0.00 1025.00 363.00" xmlns="http://www.w3.org/2000/svg" xmlns:xlink="http://www.w3.org/1999/xlink">
<g id="graph0" class="graph" transform="scale(1 1) rotate(0) translate(4 359)">
<title>include/emlabcpp/experimental/testing/executor.h</title>
<polygon fill="white" stroke="transparent" points="-4,4 -4,-359 1021,-359 1021,4 -4,4"/>
<!-- Node1 -->
<g id="node1" class="node">
<title>Node1</title>
<g id="a_node1"><a xlink:title=" ">
<polygon fill="#bfbfbf" stroke="black" points="464.5,-324.5 464.5,-354.5 635.5,-354.5 635.5,-324.5 464.5,-324.5"/>
<text text-anchor="start" x="472.5" y="-342.5" font-family="Helvetica,sans-Serif" font-size="10.00">include/emlabcpp/experimental</text>
<text text-anchor="middle" x="550" y="-331.5" font-family="Helvetica,sans-Serif" font-size="10.00">/testing/executor.h</text>
</a>
</g>
</g>
<!-- Node2 -->
<g id="node2" class="node">
<title>Node2</title>
<g id="a_node2"><a xlink:href="experimental_2testing_2base_8h.html" target="_top" xlink:title=" ">
<polygon fill="white" stroke="black" points="379.5,-123.5 379.5,-153.5 512.5,-153.5 512.5,-123.5 379.5,-123.5"/>
<text text-anchor="start" x="387.5" y="-141.5" font-family="Helvetica,sans-Serif" font-size="10.00">emlabcpp/experimental</text>
<text text-anchor="middle" x="446" y="-130.5" font-family="Helvetica,sans-Serif" font-size="10.00">/testing/base.h</text>
</a>
</g>
</g>
<!-- Node1&#45;&gt;Node2 -->
<g id="edge1" class="edge">
<title>Node1&#45;&gt;Node2</title>
<path fill="none" stroke="midnightblue" d="M530.86,-324.38C505.78,-304.56 462.99,-265.83 446,-221 439.05,-202.66 439.63,-180.28 441.62,-163.62"/>
<polygon fill="midnightblue" stroke="midnightblue" points="445.1,-163.99 443.06,-153.59 438.17,-162.99 445.1,-163.99"/>
</g>
<!-- Node65 -->
<g id="node11" class="node">
<title>Node65</title>
<g id="a_node11"><a xlink:href="interface_8h.html" target="_top" xlink:title=" ">
<polygon fill="white" stroke="black" points="625.5,-257.5 625.5,-287.5 758.5,-287.5 758.5,-257.5 625.5,-257.5"/>
<text text-anchor="start" x="633.5" y="-275.5" font-family="Helvetica,sans-Serif" font-size="10.00">emlabcpp/experimental</text>
<text text-anchor="middle" x="692" y="-264.5" font-family="Helvetica,sans-Serif" font-size="10.00">/testing/interface.h</text>
</a>
</g>
</g>
<!-- Node1&#45;&gt;Node65 -->
<g id="edge12" class="edge">
<title>Node1&#45;&gt;Node65</title>
<path fill="none" stroke="midnightblue" d="M580.81,-324.4C601.65,-314.86 629.38,-302.16 651.93,-291.84"/>
<polygon fill="midnightblue" stroke="midnightblue" points="653.61,-294.92 661.25,-287.58 650.7,-288.56 653.61,-294.92"/>
</g>
<!-- Node3 -->
<g id="node3" class="node">
<title>Node3</title>
<g id="a_node3"><a xlink:href="algorithm_8h.html" target="_top" xlink:title=" ">
<polygon fill="white" stroke="red" points="0,-62 0,-81 124,-81 124,-62 0,-62"/>
<text text-anchor="middle" x="62" y="-69" font-family="Helvetica,sans-Serif" font-size="10.00">emlabcpp/algorithm.h</text>
</a>
</g>
</g>
<!-- Node2&#45;&gt;Node3 -->
<g id="edge2" class="edge">
<title>Node2&#45;&gt;Node3</title>
<path fill="none" stroke="midnightblue" d="M379.31,-127.56C315.85,-117.91 217.74,-102.48 133,-87 126.35,-85.78 119.36,-84.44 112.47,-83.08"/>
<polygon fill="midnightblue" stroke="midnightblue" points="112.99,-79.61 102.49,-81.07 111.61,-86.47 112.99,-79.61"/>
</g>
<!-- Node42 -->
<g id="node4" class="node">
<title>Node42</title>
<g id="a_node4"><a xlink:href="tree_8h.html" target="_top" xlink:title=" ">
<polygon fill="white" stroke="red" points="142.5,-56.5 142.5,-86.5 275.5,-86.5 275.5,-56.5 142.5,-56.5"/>
<text text-anchor="start" x="150.5" y="-74.5" font-family="Helvetica,sans-Serif" font-size="10.00">emlabcpp/experimental</text>
<text text-anchor="middle" x="209" y="-63.5" font-family="Helvetica,sans-Serif" font-size="10.00">/contiguous_tree/tree.h</text>
</a>
</g>
</g>
<!-- Node2&#45;&gt;Node42 -->
<g id="edge3" class="edge">
<title>Node2&#45;&gt;Node42</title>
<path fill="none" stroke="midnightblue" d="M394.87,-123.48C358.39,-113.47 309.16,-99.97 270.54,-89.38"/>
<polygon fill="midnightblue" stroke="midnightblue" points="271.02,-85.88 260.45,-86.61 269.17,-92.63 271.02,-85.88"/>
</g>
<!-- Node34 -->
<g id="node5" class="node">
<title>Node34</title>
<g id="a_node5"><a xlink:title=" ">
<polygon fill="white" stroke="#bfbfbf" points="238,-0.5 238,-19.5 276,-19.5 276,-0.5 238,-0.5"/>
<text text-anchor="middle" x="257" y="-7.5" font-family="Helvetica,sans-Serif" font-size="10.00">map</text>
</a>
</g>
</g>
<!-- Node2&#45;&gt;Node34 -->
<g id="edge9" class="edge">
<title>Node2&#45;&gt;Node34</title>
<path fill="none" stroke="midnightblue" d="M397.5,-123.46C373.7,-115.16 345.41,-103.09 323,-87 300.24,-70.66 280.11,-44.98 268.23,-28.07"/>
<polygon fill="midnightblue" stroke="midnightblue" points="271.04,-25.98 262.52,-19.69 265.26,-29.92 271.04,-25.98"/>
</g>
<!-- Node60 -->
<g id="node6" class="node">
<title>Node60</title>
<g id="a_node6"><a xlink:href="string__buffer_8h.html" target="_top" xlink:title=" ">
<polygon fill="white" stroke="red" points="332.5,-56.5 332.5,-86.5 465.5,-86.5 465.5,-56.5 332.5,-56.5"/>
<text text-anchor="start" x="340.5" y="-74.5" font-family="Helvetica,sans-Serif" font-size="10.00">emlabcpp/experimental</text>
<text text-anchor="middle" x="399" y="-63.5" font-family="Helvetica,sans-Serif" font-size="10.00">/string_buffer.h</text>
</a>
</g>
</g>
<!-- Node2&#45;&gt;Node60 -->
<g id="edge5" class="edge">
<title>Node2&#45;&gt;Node60</title>
<path fill="none" stroke="midnightblue" d="M435.8,-123.4C429.77,-115.05 421.98,-104.29 415.13,-94.81"/>
<polygon fill="midnightblue" stroke="midnightblue" points="417.87,-92.63 409.18,-86.58 412.2,-96.73 417.87,-92.63"/>
</g>
<!-- Node61 -->
<g id="node7" class="node">
<title>Node61</title>
<g id="a_node7"><a xlink:title=" ">
<polygon fill="white" stroke="#bfbfbf" points="414,-0.5 414,-19.5 478,-19.5 478,-0.5 414,-0.5"/>
<text text-anchor="middle" x="446" y="-7.5" font-family="Helvetica,sans-Serif" font-size="10.00">algorithm</text>
</a>
</g>
</g>
<!-- Node2&#45;&gt;Node61 -->
<g id="edge8" class="edge">
<title>Node2&#45;&gt;Node61</title>
<path fill="none" stroke="midnightblue" d="M456.44,-123.31C462.9,-113.63 470.59,-100.2 474,-87 477.45,-73.66 477.79,-69.25 474,-56 471.1,-45.84 465.17,-35.75 459.51,-27.7"/>
<polygon fill="midnightblue" stroke="midnightblue" points="462.22,-25.48 453.41,-19.59 456.62,-29.69 462.22,-25.48"/>
</g>
<!-- Node63 -->
<g id="node8" class="node">
<title>Node63</title>
<g id="a_node8"><a xlink:href="static__function_8h.html" target="_top" xlink:title=" ">
<polygon fill="white" stroke="red" points="521.5,-62 521.5,-81 670.5,-81 670.5,-62 521.5,-62"/>
<text text-anchor="middle" x="596" y="-69" font-family="Helvetica,sans-Serif" font-size="10.00">emlabcpp/static_function.h</text>
</a>
</g>
</g>
<!-- Node2&#45;&gt;Node63 -->
<g id="edge7" class="edge">
<title>Node2&#45;&gt;Node63</title>
<path fill="none" stroke="midnightblue" d="M478.55,-123.4C504.87,-111.99 541.59,-96.08 566.93,-85.1"/>
<polygon fill="midnightblue" stroke="midnightblue" points="568.58,-88.19 576.37,-81.01 565.8,-81.77 568.58,-88.19"/>
</g>
<!-- Node64 -->
<g id="node9" class="node">
<title>Node64</title>
<g id="a_node9"><a xlink:title=" ">
<polygon fill="white" stroke="#bfbfbf" points="688.5,-62 688.5,-81 793.5,-81 793.5,-62 688.5,-62"/>
<text text-anchor="middle" x="741" y="-69" font-family="Helvetica,sans-Serif" font-size="10.00">memory_resource</text>
</a>
</g>
</g>
<!-- Node2&#45;&gt;Node64 -->
<g id="edge10" class="edge">
<title>Node2&#45;&gt;Node64</title>
<path fill="none" stroke="midnightblue" d="M512.65,-123.5C559.52,-113.56 623.66,-99.77 680,-87 685.05,-85.86 690.32,-84.64 695.57,-83.41"/>
<polygon fill="midnightblue" stroke="midnightblue" points="696.62,-86.76 705.55,-81.06 695.01,-79.94 696.62,-86.76"/>
</g>
<!-- Node16 -->
<g id="node10" class="node">
<title>Node16</title>
<g id="a_node10"><a xlink:title=" ">
<polygon fill="white" stroke="#bfbfbf" points="811.5,-62 811.5,-81 862.5,-81 862.5,-62 811.5,-62"/>
<text text-anchor="middle" x="837" y="-69" font-family="Helvetica,sans-Serif" font-size="10.00">variant</text>
</a>
</g>
</g>
<!-- Node2&#45;&gt;Node16 -->
<g id="edge11" class="edge">
<title>Node2&#45;&gt;Node16</title>
<path fill="none" stroke="midnightblue" d="M512.53,-133.33C585.05,-127.57 703.96,-114.6 803,-87 805.29,-86.36 807.64,-85.6 809.97,-84.77"/>
<polygon fill="midnightblue" stroke="midnightblue" points="811.3,-88.01 819.32,-81.08 808.73,-81.5 811.3,-88.01"/>
</g>
<!-- Node42&#45;&gt;Node34 -->
<g id="edge4" class="edge">
<title>Node42&#45;&gt;Node34</title>
<path fill="none" stroke="midnightblue" d="M220.38,-56.4C227.35,-47.75 236.31,-36.64 243.63,-27.58"/>
<polygon fill="midnightblue" stroke="midnightblue" points="246.46,-29.64 250.02,-19.66 241.01,-25.24 246.46,-29.64"/>
</g>
<!-- Node60&#45;&gt;Node61 -->
<g id="edge6" class="edge">
<title>Node60&#45;&gt;Node61</title>
<path fill="none" stroke="midnightblue" d="M410.14,-56.4C416.97,-47.75 425.74,-36.64 432.91,-27.58"/>
<polygon fill="midnightblue" stroke="midnightblue" points="435.71,-29.67 439.16,-19.66 430.22,-25.34 435.71,-29.67"/>
</g>
<!-- Node65&#45;&gt;Node2 -->
<g id="edge14" class="edge">
<title>Node65&#45;&gt;Node2</title>
<path fill="none" stroke="midnightblue" d="M625.39,-264.54C566.78,-257.06 487.38,-243.15 465,-221 450.05,-206.2 445.93,-182.08 445.18,-163.91"/>
<polygon fill="midnightblue" stroke="midnightblue" points="448.68,-163.72 445.07,-153.75 441.68,-163.79 448.68,-163.72"/>
</g>
<!-- Node66 -->
<g id="node12" class="node">
<title>Node66</title>
<g id="a_node12"><a xlink:href="linked__list_8h.html" target="_top" xlink:title=" ">
<polygon fill="white" stroke="red" points="474.5,-190.5 474.5,-220.5 607.5,-220.5 607.5,-190.5 474.5,-190.5"/>
<text text-anchor="start" x="482.5" y="-208.5" font-family="Helvetica,sans-Serif" font-size="10.00">emlabcpp/experimental</text>
<text text-anchor="middle" x="541" y="-197.5" font-family="Helvetica,sans-Serif" font-size="10.00">/linked_list.h</text>
</a>
</g>
</g>
<!-- Node65&#45;&gt;Node66 -->
<g id="edge13" class="edge">
<title>Node65&#45;&gt;Node66</title>
<path fill="none" stroke="midnightblue" d="M659.24,-257.4C636.88,-247.77 607.06,-234.94 582.96,-224.56"/>
<polygon fill="midnightblue" stroke="midnightblue" points="584.27,-221.32 573.7,-220.58 581.5,-227.75 584.27,-221.32"/>
</g>
<!-- Node67 -->
<g id="node13" class="node">
<title>Node67</title>
<g id="a_node13"><a xlink:href="coroutine_8h.html" target="_top" xlink:title=" ">
<polygon fill="white" stroke="red" points="672.5,-123.5 672.5,-153.5 805.5,-153.5 805.5,-123.5 672.5,-123.5"/>
<text text-anchor="start" x="680.5" y="-141.5" font-family="Helvetica,sans-Serif" font-size="10.00">emlabcpp/experimental</text>
<text text-anchor="middle" x="739" y="-130.5" font-family="Helvetica,sans-Serif" font-size="10.00">/testing/coroutine.h</text>
</a>
</g>
</g>
<!-- Node65&#45;&gt;Node67 -->
<g id="edge15" class="edge">
<title>Node65&#45;&gt;Node67</title>
<path fill="none" stroke="midnightblue" d="M727.14,-257.45C742.61,-249.29 759.24,-237.34 768,-221 778.12,-202.13 767.97,-178.99 756.99,-162.2"/>
<polygon fill="midnightblue" stroke="midnightblue" points="759.55,-159.75 750.93,-153.59 753.82,-163.78 759.55,-159.75"/>
</g>
<!-- Node99 -->
<g id="node14" class="node">
<title>Node99</title>
<g id="a_node14"><a xlink:href="record_8h.html" target="_top" xlink:title=" ">
<polygon fill="white" stroke="red" points="625.5,-190.5 625.5,-220.5 758.5,-220.5 758.5,-190.5 625.5,-190.5"/>
<text text-anchor="start" x="633.5" y="-208.5" font-family="Helvetica,sans-Serif" font-size="10.00">emlabcpp/experimental</text>
<text text-anchor="middle" x="692" y="-197.5" font-family="Helvetica,sans-Serif" font-size="10.00">/testing/record.h</text>
</a>
</g>
</g>
<!-- Node65&#45;&gt;Node99 -->
<g id="edge16" class="edge">
<title>Node65&#45;&gt;Node99</title>
<path fill="none" stroke="midnightblue" d="M692,-257.4C692,-249.64 692,-239.81 692,-230.86"/>
<polygon fill="midnightblue" stroke="midnightblue" points="695.5,-230.58 692,-220.58 688.5,-230.58 695.5,-230.58"/>
</g>
<!-- Node76 -->
<g id="node15" class="node">
<title>Node76</title>
<g id="a_node15"><a xlink:href="packet__handler_8h.html" target="_top" xlink:title=" ">
<polygon fill="white" stroke="red" points="815.5,-190.5 815.5,-220.5 958.5,-220.5 958.5,-190.5 815.5,-190.5"/>
<text text-anchor="start" x="823.5" y="-208.5" font-family="Helvetica,sans-Serif" font-size="10.00">emlabcpp/protocol/packet</text>
<text text-anchor="middle" x="887" y="-197.5" font-family="Helvetica,sans-Serif" font-size="10.00">_handler.h</text>
</a>
</g>
</g>
<!-- Node65&#45;&gt;Node76 -->
<g id="edge19" class="edge">
<title>Node65&#45;&gt;Node76</title>
<path fill="none" stroke="midnightblue" d="M734.31,-257.4C763.95,-247.52 803.74,-234.25 835.27,-223.74"/>
<polygon fill="midnightblue" stroke="midnightblue" points="836.39,-227.06 844.77,-220.58 834.18,-220.42 836.39,-227.06"/>
</g>
<!-- Node29 -->
<g id="node16" class="node">
<title>Node29</title>
<g id="a_node16"><a xlink:title=" ">
<polygon fill="white" stroke="#bfbfbf" points="977,-196 977,-215 1017,-215 1017,-196 977,-196"/>
<text text-anchor="middle" x="997" y="-203" font-family="Helvetica,sans-Serif" font-size="10.00">span</text>
</a>
</g>
</g>
<!-- Node65&#45;&gt;Node29 -->
<g id="edge20" class="edge">
<title>Node65&#45;&gt;Node29</title>
<path fill="none" stroke="midnightblue" d="M758.56,-264.67C815.3,-257.59 898.46,-244.22 968,-221 969.62,-220.46 971.25,-219.85 972.89,-219.18"/>
<polygon fill="midnightblue" stroke="midnightblue" points="974.36,-222.36 981.99,-215.01 971.45,-215.99 974.36,-222.36"/>
</g>
<!-- Node99&#45;&gt;Node2 -->
<g id="edge17" class="edge">
<title>Node99&#45;&gt;Node2</title>
<path fill="none" stroke="midnightblue" d="M638.92,-190.48C600.82,-180.41 549.32,-166.8 509.11,-156.17"/>
<polygon fill="midnightblue" stroke="midnightblue" points="509.97,-152.78 499.4,-153.61 508.18,-159.55 509.97,-152.78"/>
</g>
<!-- Node99&#45;&gt;Node67 -->
<g id="edge18" class="edge">
<title>Node99&#45;&gt;Node67</title>
<path fill="none" stroke="midnightblue" d="M702.2,-190.4C708.23,-182.05 716.02,-171.29 722.87,-161.81"/>
<polygon fill="midnightblue" stroke="midnightblue" points="725.8,-163.73 728.82,-153.58 720.13,-159.63 725.8,-163.73"/>
</g>
</g>
</svg>
