<?xml version="1.0" encoding="UTF-8" standalone="no"?>
<!DOCTYPE svg PUBLIC "-//W3C//DTD SVG 1.1//EN"
 "http://www.w3.org/Graphics/SVG/1.1/DTD/svg11.dtd">
<!-- Generated by graphviz version 2.43.0 (0)
 -->
<!-- Title: include/emlabcpp/experimental/testing/executor.h Pages: 1 -->
<svg width="1070pt" height="296pt"
 viewBox="0.00 0.00 1069.50 296.00" xmlns="http://www.w3.org/2000/svg" xmlns:xlink="http://www.w3.org/1999/xlink">
<g id="graph0" class="graph" transform="scale(1 1) rotate(0) translate(4 292)">
<title>include/emlabcpp/experimental/testing/executor.h</title>
<polygon fill="white" stroke="transparent" points="-4,4 -4,-292 1065.5,-292 1065.5,4 -4,4"/>
<!-- Node1 -->
<g id="node1" class="node">
<title>Node1</title>
<g id="a_node1"><a xlink:title=" ">
<polygon fill="#bfbfbf" stroke="black" points="417,-257.5 417,-287.5 588,-287.5 588,-257.5 417,-257.5"/>
<text text-anchor="start" x="425" y="-275.5" font-family="Helvetica,sans-Serif" font-size="10.00">include/emlabcpp/experimental</text>
<text text-anchor="middle" x="502.5" y="-264.5" font-family="Helvetica,sans-Serif" font-size="10.00">/testing/executor.h</text>
</a>
</g>
</g>
<!-- Node2 -->
<g id="node2" class="node">
<title>Node2</title>
<g id="a_node2"><a xlink:href="experimental_2testing_2base_8h.html" target="_top" xlink:title=" ">
<polygon fill="white" stroke="black" points="285,-123.5 285,-153.5 418,-153.5 418,-123.5 285,-123.5"/>
<text text-anchor="start" x="293" y="-141.5" font-family="Helvetica,sans-Serif" font-size="10.00">emlabcpp/experimental</text>
<text text-anchor="middle" x="351.5" y="-130.5" font-family="Helvetica,sans-Serif" font-size="10.00">/testing/base.h</text>
</a>
</g>
</g>
<!-- Node1&#45;&gt;Node2 -->
<g id="edge1" class="edge">
<title>Node1&#45;&gt;Node2</title>
<path fill="none" stroke="midnightblue" d="M486.34,-257.37C459.66,-234.05 406.28,-187.38 375.28,-160.29"/>
<polygon fill="midnightblue" stroke="midnightblue" points="377.38,-157.47 367.54,-153.52 372.77,-162.74 377.38,-157.47"/>
</g>
<!-- Node66 -->
<g id="node11" class="node">
<title>Node66</title>
<g id="a_node11"><a xlink:href="interface_8h.html" target="_top" xlink:title=" ">
<polygon fill="white" stroke="black" points="587,-190.5 587,-220.5 720,-220.5 720,-190.5 587,-190.5"/>
<text text-anchor="start" x="595" y="-208.5" font-family="Helvetica,sans-Serif" font-size="10.00">emlabcpp/experimental</text>
<text text-anchor="middle" x="653.5" y="-197.5" font-family="Helvetica,sans-Serif" font-size="10.00">/testing/interface.h</text>
</a>
</g>
</g>
<!-- Node1&#45;&gt;Node66 -->
<g id="edge12" class="edge">
<title>Node1&#45;&gt;Node66</title>
<path fill="none" stroke="midnightblue" d="M535.26,-257.4C557.62,-247.77 587.44,-234.94 611.54,-224.56"/>
<polygon fill="midnightblue" stroke="midnightblue" points="613,-227.75 620.8,-220.58 610.23,-221.32 613,-227.75"/>
</g>
<!-- Node3 -->
<g id="node3" class="node">
<title>Node3</title>
<g id="a_node3"><a xlink:href="algorithm_8h.html" target="_top" xlink:title=" ">
<polygon fill="white" stroke="red" points="814.5,-62 814.5,-81 938.5,-81 938.5,-62 814.5,-62"/>
<text text-anchor="middle" x="876.5" y="-69" font-family="Helvetica,sans-Serif" font-size="10.00">emlabcpp/algorithm.h</text>
</a>
</g>
</g>
<!-- Node2&#45;&gt;Node3 -->
<g id="edge2" class="edge">
<title>Node2&#45;&gt;Node3</title>
<path fill="none" stroke="midnightblue" d="M418.18,-124.48C421.33,-123.96 424.45,-123.46 427.5,-123 498.22,-112.29 696.04,-91.21 803.98,-79.97"/>
<polygon fill="midnightblue" stroke="midnightblue" points="804.56,-83.43 814.14,-78.92 803.83,-76.47 804.56,-83.43"/>
</g>
<!-- Node41 -->
<g id="node4" class="node">
<title>Node41</title>
<g id="a_node4"><a xlink:href="tree_8h.html" target="_top" xlink:title=" ">
<polygon fill="white" stroke="red" points="0,-56.5 0,-86.5 133,-86.5 133,-56.5 0,-56.5"/>
<text text-anchor="start" x="8" y="-74.5" font-family="Helvetica,sans-Serif" font-size="10.00">emlabcpp/experimental</text>
<text text-anchor="middle" x="66.5" y="-63.5" font-family="Helvetica,sans-Serif" font-size="10.00">/contiguous_tree/tree.h</text>
</a>
</g>
</g>
<!-- Node2&#45;&gt;Node41 -->
<g id="edge3" class="edge">
<title>Node2&#45;&gt;Node41</title>
<path fill="none" stroke="midnightblue" d="M290.01,-123.48C245.4,-113.3 184.93,-99.51 138.14,-88.84"/>
<polygon fill="midnightblue" stroke="midnightblue" points="138.9,-85.42 128.37,-86.61 137.34,-92.25 138.9,-85.42"/>
</g>
<!-- Node35 -->
<g id="node5" class="node">
<title>Node35</title>
<g id="a_node5"><a xlink:title=" ">
<polygon fill="white" stroke="#bfbfbf" points="95.5,-0.5 95.5,-19.5 133.5,-19.5 133.5,-0.5 95.5,-0.5"/>
<text text-anchor="middle" x="114.5" y="-7.5" font-family="Helvetica,sans-Serif" font-size="10.00">map</text>
</a>
</g>
</g>
<!-- Node2&#45;&gt;Node35 -->
<g id="edge9" class="edge">
<title>Node2&#45;&gt;Node35</title>
<path fill="none" stroke="midnightblue" d="M284.86,-126.99C251.6,-119.54 211.87,-107.17 180.5,-87 156.81,-71.77 136.79,-45.6 125.21,-28.29"/>
<polygon fill="midnightblue" stroke="midnightblue" points="128.04,-26.22 119.67,-19.72 122.16,-30.02 128.04,-26.22"/>
</g>
<!-- Node60 -->
<g id="node6" class="node">
<title>Node60</title>
<g id="a_node6"><a xlink:href="string__buffer_8h.html" target="_top" xlink:title=" ">
<polygon fill="white" stroke="red" points="190,-56.5 190,-86.5 323,-86.5 323,-56.5 190,-56.5"/>
<text text-anchor="start" x="198" y="-74.5" font-family="Helvetica,sans-Serif" font-size="10.00">emlabcpp/experimental</text>
<text text-anchor="middle" x="256.5" y="-63.5" font-family="Helvetica,sans-Serif" font-size="10.00">/string_buffer.h</text>
</a>
</g>
</g>
<!-- Node2&#45;&gt;Node60 -->
<g id="edge5" class="edge">
<title>Node2&#45;&gt;Node60</title>
<path fill="none" stroke="midnightblue" d="M330.89,-123.4C317.57,-114.28 300.04,-102.29 285.34,-92.24"/>
<polygon fill="midnightblue" stroke="midnightblue" points="287.3,-89.33 277.07,-86.58 283.35,-95.11 287.3,-89.33"/>
</g>
<!-- Node61 -->
<g id="node7" class="node">
<title>Node61</title>
<g id="a_node7"><a xlink:title=" ">
<polygon fill="white" stroke="#bfbfbf" points="271.5,-0.5 271.5,-19.5 335.5,-19.5 335.5,-0.5 271.5,-0.5"/>
<text text-anchor="middle" x="303.5" y="-7.5" font-family="Helvetica,sans-Serif" font-size="10.00">algorithm</text>
</a>
</g>
</g>
<!-- Node2&#45;&gt;Node61 -->
<g id="edge8" class="edge">
<title>Node2&#45;&gt;Node61</title>
<path fill="none" stroke="midnightblue" d="M349.73,-123.49C347.29,-106.88 342.08,-78.61 332.5,-56 328.34,-46.18 322.08,-36.11 316.44,-28"/>
<polygon fill="midnightblue" stroke="midnightblue" points="319.18,-25.83 310.48,-19.79 313.52,-29.94 319.18,-25.83"/>
</g>
<!-- Node64 -->
<g id="node8" class="node">
<title>Node64</title>
<g id="a_node8"><a xlink:href="static__function_8h.html" target="_top" xlink:title=" ">
<polygon fill="white" stroke="red" points="379,-62 379,-81 528,-81 528,-62 379,-62"/>
<text text-anchor="middle" x="453.5" y="-69" font-family="Helvetica,sans-Serif" font-size="10.00">emlabcpp/static_function.h</text>
</a>
</g>
</g>
<!-- Node2&#45;&gt;Node64 -->
<g id="edge7" class="edge">
<title>Node2&#45;&gt;Node64</title>
<path fill="none" stroke="midnightblue" d="M373.63,-123.4C390.74,-112.5 414.3,-97.48 431.4,-86.58"/>
<polygon fill="midnightblue" stroke="midnightblue" points="433.6,-89.33 440.15,-81.01 429.84,-83.43 433.6,-89.33"/>
</g>
<!-- Node65 -->
<g id="node9" class="node">
<title>Node65</title>
<g id="a_node9"><a xlink:title=" ">
<polygon fill="white" stroke="#bfbfbf" points="546,-62 546,-81 651,-81 651,-62 546,-62"/>
<text text-anchor="middle" x="598.5" y="-69" font-family="Helvetica,sans-Serif" font-size="10.00">memory_resource</text>
</a>
</g>
</g>
<!-- Node2&#45;&gt;Node65 -->
<g id="edge10" class="edge">
<title>Node2&#45;&gt;Node65</title>
<path fill="none" stroke="midnightblue" d="M404.79,-123.48C450.12,-111.55 514.35,-94.64 556.22,-83.63"/>
<polygon fill="midnightblue" stroke="midnightblue" points="557.31,-86.96 566.09,-81.03 555.53,-80.19 557.31,-86.96"/>
</g>
<!-- Node16 -->
<g id="node10" class="node">
<title>Node16</title>
<g id="a_node10"><a xlink:title=" ">
<polygon fill="white" stroke="#bfbfbf" points="669,-62 669,-81 720,-81 720,-62 669,-62"/>
<text text-anchor="middle" x="694.5" y="-69" font-family="Helvetica,sans-Serif" font-size="10.00">variant</text>
</a>
</g>
</g>
<!-- Node2&#45;&gt;Node16 -->
<g id="edge11" class="edge">
<title>Node2&#45;&gt;Node16</title>
<path fill="none" stroke="midnightblue" d="M418.2,-124.64C421.34,-124.07 424.46,-123.53 427.5,-123 530.76,-105.18 559.74,-115.78 660.5,-87 662.79,-86.35 665.13,-85.58 667.46,-84.74"/>
<polygon fill="midnightblue" stroke="midnightblue" points="668.8,-87.97 676.81,-81.03 666.22,-81.47 668.8,-87.97"/>
</g>
<!-- Node41&#45;&gt;Node35 -->
<g id="edge4" class="edge">
<title>Node41&#45;&gt;Node35</title>
<path fill="none" stroke="midnightblue" d="M77.88,-56.4C84.85,-47.75 93.81,-36.64 101.13,-27.58"/>
<polygon fill="midnightblue" stroke="midnightblue" points="103.96,-29.64 107.52,-19.66 98.51,-25.24 103.96,-29.64"/>
</g>
<!-- Node60&#45;&gt;Node61 -->
<g id="edge6" class="edge">
<title>Node60&#45;&gt;Node61</title>
<path fill="none" stroke="midnightblue" d="M267.64,-56.4C274.47,-47.75 283.24,-36.64 290.41,-27.58"/>
<polygon fill="midnightblue" stroke="midnightblue" points="293.21,-29.67 296.66,-19.66 287.72,-25.34 293.21,-29.67"/>
</g>
<!-- Node66&#45;&gt;Node2 -->
<g id="edge14" class="edge">
<title>Node66&#45;&gt;Node2</title>
<path fill="none" stroke="midnightblue" d="M588.34,-190.48C540.89,-180.26 476.51,-166.41 426.85,-155.72"/>
<polygon fill="midnightblue" stroke="midnightblue" points="427.31,-152.24 416.8,-153.55 425.84,-159.08 427.31,-152.24"/>
</g>
<!-- Node67 -->
<g id="node12" class="node">
<title>Node67</title>
<g id="a_node12"><a xlink:href="linked__list_8h.html" target="_top" xlink:title=" ">
<polygon fill="white" stroke="red" points="436,-123.5 436,-153.5 569,-153.5 569,-123.5 436,-123.5"/>
<text text-anchor="start" x="444" y="-141.5" font-family="Helvetica,sans-Serif" font-size="10.00">emlabcpp/experimental</text>
<text text-anchor="middle" x="502.5" y="-130.5" font-family="Helvetica,sans-Serif" font-size="10.00">/linked_list.h</text>
</a>
</g>
</g>
<!-- Node66&#45;&gt;Node67 -->
<g id="edge13" class="edge">
<title>Node66&#45;&gt;Node67</title>
<path fill="none" stroke="midnightblue" d="M620.74,-190.4C598.38,-180.77 568.56,-167.94 544.46,-157.56"/>
<polygon fill="midnightblue" stroke="midnightblue" points="545.77,-154.32 535.2,-153.58 543,-160.75 545.77,-154.32"/>
</g>
<!-- Node68 -->
<g id="node13" class="node">
<title>Node68</title>
<g id="a_node13"><a xlink:href="coroutine_8h.html" target="_top" xlink:title=" ">
<polygon fill="white" stroke="red" points="587,-123.5 587,-153.5 720,-153.5 720,-123.5 587,-123.5"/>
<text text-anchor="start" x="595" y="-141.5" font-family="Helvetica,sans-Serif" font-size="10.00">emlabcpp/experimental</text>
<text text-anchor="middle" x="653.5" y="-130.5" font-family="Helvetica,sans-Serif" font-size="10.00">/testing/coroutine.h</text>
</a>
</g>
</g>
<!-- Node66&#45;&gt;Node68 -->
<g id="edge15" class="edge">
<title>Node66&#45;&gt;Node68</title>
<path fill="none" stroke="midnightblue" d="M653.5,-190.4C653.5,-182.64 653.5,-172.81 653.5,-163.86"/>
<polygon fill="midnightblue" stroke="midnightblue" points="657,-163.58 653.5,-153.58 650,-163.58 657,-163.58"/>
</g>
<!-- Node73 -->
<g id="node14" class="node">
<title>Node73</title>
<g id="a_node14"><a xlink:href="packet__handler_8h.html" target="_top" xlink:title=" ">
<polygon fill="white" stroke="red" points="738,-123.5 738,-153.5 881,-153.5 881,-123.5 738,-123.5"/>
<text text-anchor="start" x="746" y="-141.5" font-family="Helvetica,sans-Serif" font-size="10.00">emlabcpp/protocol/packet</text>
<text text-anchor="middle" x="809.5" y="-130.5" font-family="Helvetica,sans-Serif" font-size="10.00">_handler.h</text>
</a>
</g>
</g>
<!-- Node66&#45;&gt;Node73 -->
<g id="edge16" class="edge">
<title>Node66&#45;&gt;Node73</title>
<path fill="none" stroke="midnightblue" d="M687.35,-190.4C710.55,-180.73 741.53,-167.82 766.48,-157.43"/>
<polygon fill="midnightblue" stroke="midnightblue" points="767.83,-160.65 775.72,-153.58 765.14,-154.19 767.83,-160.65"/>
</g>
<!-- Node52 -->
<g id="node15" class="node">
<title>Node52</title>
<g id="a_node15"><a xlink:href="result_8h.html" target="_top" xlink:title=" ">
<polygon fill="white" stroke="red" points="899.5,-129 899.5,-148 1003.5,-148 1003.5,-129 899.5,-129"/>
<text text-anchor="middle" x="951.5" y="-136" font-family="Helvetica,sans-Serif" font-size="10.00">emlabcpp/result.h</text>
</a>
</g>
</g>
<!-- Node66&#45;&gt;Node52 -->
<g id="edge17" class="edge">
<title>Node66&#45;&gt;Node52</title>
<path fill="none" stroke="midnightblue" d="M720.25,-190.71C767.78,-180.79 833.15,-166.93 890.5,-154 895.55,-152.86 900.82,-151.65 906.07,-150.42"/>
<polygon fill="midnightblue" stroke="midnightblue" points="907.12,-153.77 916.05,-148.07 905.52,-146.96 907.12,-153.77"/>
</g>
<!-- Node30 -->
<g id="node16" class="node">
<title>Node30</title>
<g id="a_node16"><a xlink:title=" ">
<polygon fill="white" stroke="#bfbfbf" points="1021.5,-129 1021.5,-148 1061.5,-148 1061.5,-129 1021.5,-129"/>
<text text-anchor="middle" x="1041.5" y="-136" font-family="Helvetica,sans-Serif" font-size="10.00">span</text>
</a>
</g>
</g>
<!-- Node66&#45;&gt;Node30 -->
<g id="edge19" class="edge">
<title>Node66&#45;&gt;Node30</title>
<path fill="none" stroke="midnightblue" d="M720.08,-201.57C793.23,-196.88 913.49,-184.81 1012.5,-154 1014.13,-153.49 1015.77,-152.91 1017.41,-152.26"/>
<polygon fill="midnightblue" stroke="midnightblue" points="1018.86,-155.44 1026.54,-148.14 1015.98,-149.07 1018.86,-155.44"/>
</g>
<!-- Node52&#45;&gt;Node3 -->
<g id="edge18" class="edge">
<title>Node52&#45;&gt;Node3</title>
<path fill="none" stroke="midnightblue" d="M941.39,-128.73C929.35,-118.31 909.05,-100.71 894.35,-87.97"/>
<polygon fill="midnightblue" stroke="midnightblue" points="896.3,-85.03 886.45,-81.13 891.72,-90.32 896.3,-85.03"/>
</g>
</g>
</svg>
