<?xml version="1.0" encoding="UTF-8" standalone="no"?>
<!DOCTYPE svg PUBLIC "-//W3C//DTD SVG 1.1//EN"
 "http://www.w3.org/Graphics/SVG/1.1/DTD/svg11.dtd">
<!-- Generated by graphviz version 2.43.0 (0)
 -->
<!-- Title: include/emlabcpp/experimental/testing/executor.h Pages: 1 -->
<svg width="923pt" height="363pt"
 viewBox="0.00 0.00 922.50 363.00" xmlns="http://www.w3.org/2000/svg" xmlns:xlink="http://www.w3.org/1999/xlink">
<g id="graph0" class="graph" transform="scale(1 1) rotate(0) translate(4 359)">
<title>include/emlabcpp/experimental/testing/executor.h</title>
<polygon fill="white" stroke="transparent" points="-4,4 -4,-359 918.5,-359 918.5,4 -4,4"/>
<!-- Node1 -->
<g id="node1" class="node">
<title>Node1</title>
<g id="a_node1"><a xlink:title=" ">
<polygon fill="#bfbfbf" stroke="black" points="324,-324.5 324,-354.5 495,-354.5 495,-324.5 324,-324.5"/>
<text text-anchor="start" x="332" y="-342.5" font-family="Helvetica,sans-Serif" font-size="10.00">include/emlabcpp/experimental</text>
<text text-anchor="middle" x="409.5" y="-331.5" font-family="Helvetica,sans-Serif" font-size="10.00">/testing/executor.h</text>
</a>
</g>
</g>
<!-- Node2 -->
<g id="node2" class="node">
<title>Node2</title>
<g id="a_node2"><a xlink:href="experimental_2testing_2base_8h.html" target="_top" xlink:title=" ">
<polygon fill="white" stroke="black" points="285,-123.5 285,-153.5 418,-153.5 418,-123.5 285,-123.5"/>
<text text-anchor="start" x="293" y="-141.5" font-family="Helvetica,sans-Serif" font-size="10.00">emlabcpp/experimental</text>
<text text-anchor="middle" x="351.5" y="-130.5" font-family="Helvetica,sans-Serif" font-size="10.00">/testing/base.h</text>
</a>
</g>
</g>
<!-- Node1&#45;&gt;Node2 -->
<g id="edge1" class="edge">
<title>Node1&#45;&gt;Node2</title>
<path fill="none" stroke="midnightblue" d="M392.37,-324.34C369.47,-304.19 329.98,-264.77 314.5,-221 309.91,-208.01 310.22,-203.09 314.5,-190 317.9,-179.62 324.33,-169.6 330.89,-161.27"/>
<polygon fill="midnightblue" stroke="midnightblue" points="333.63,-163.45 337.39,-153.54 328.27,-158.95 333.63,-163.45"/>
</g>
<!-- Node67 -->
<g id="node11" class="node">
<title>Node67</title>
<g id="a_node11"><a xlink:href="interface_8h.html" target="_top" xlink:title=" ">
<polygon fill="white" stroke="black" points="532,-257.5 532,-287.5 665,-287.5 665,-257.5 532,-257.5"/>
<text text-anchor="start" x="540" y="-275.5" font-family="Helvetica,sans-Serif" font-size="10.00">emlabcpp/experimental</text>
<text text-anchor="middle" x="598.5" y="-264.5" font-family="Helvetica,sans-Serif" font-size="10.00">/testing/interface.h</text>
</a>
</g>
</g>
<!-- Node1&#45;&gt;Node67 -->
<g id="edge12" class="edge">
<title>Node1&#45;&gt;Node67</title>
<path fill="none" stroke="midnightblue" d="M450.51,-324.4C479.12,-314.56 517.47,-301.37 547.97,-290.88"/>
<polygon fill="midnightblue" stroke="midnightblue" points="549.25,-294.14 557.57,-287.58 546.98,-287.52 549.25,-294.14"/>
</g>
<!-- Node3 -->
<g id="node3" class="node">
<title>Node3</title>
<g id="a_node3"><a xlink:href="algorithm_8h.html" target="_top" xlink:title=" ">
<polygon fill="white" stroke="red" points="761.5,-62 761.5,-81 885.5,-81 885.5,-62 761.5,-62"/>
<text text-anchor="middle" x="823.5" y="-69" font-family="Helvetica,sans-Serif" font-size="10.00">emlabcpp/algorithm.h</text>
</a>
</g>
</g>
<!-- Node2&#45;&gt;Node3 -->
<g id="edge2" class="edge">
<title>Node2&#45;&gt;Node3</title>
<path fill="none" stroke="midnightblue" d="M418.13,-129.01C493.69,-119.29 620.55,-102.68 729.5,-87 739.18,-85.61 749.42,-84.08 759.44,-82.56"/>
<polygon fill="midnightblue" stroke="midnightblue" points="759.99,-86.02 769.35,-81.04 758.93,-79.1 759.99,-86.02"/>
</g>
<!-- Node43 -->
<g id="node4" class="node">
<title>Node43</title>
<g id="a_node4"><a xlink:href="tree_8h.html" target="_top" xlink:title=" ">
<polygon fill="white" stroke="red" points="0,-56.5 0,-86.5 133,-86.5 133,-56.5 0,-56.5"/>
<text text-anchor="start" x="8" y="-74.5" font-family="Helvetica,sans-Serif" font-size="10.00">emlabcpp/experimental</text>
<text text-anchor="middle" x="66.5" y="-63.5" font-family="Helvetica,sans-Serif" font-size="10.00">/contiguous_tree/tree.h</text>
</a>
</g>
</g>
<!-- Node2&#45;&gt;Node43 -->
<g id="edge3" class="edge">
<title>Node2&#45;&gt;Node43</title>
<path fill="none" stroke="midnightblue" d="M290.01,-123.48C245.4,-113.3 184.93,-99.51 138.14,-88.84"/>
<polygon fill="midnightblue" stroke="midnightblue" points="138.9,-85.42 128.37,-86.61 137.34,-92.25 138.9,-85.42"/>
</g>
<!-- Node37 -->
<g id="node5" class="node">
<title>Node37</title>
<g id="a_node5"><a xlink:title=" ">
<polygon fill="white" stroke="#bfbfbf" points="95.5,-0.5 95.5,-19.5 133.5,-19.5 133.5,-0.5 95.5,-0.5"/>
<text text-anchor="middle" x="114.5" y="-7.5" font-family="Helvetica,sans-Serif" font-size="10.00">map</text>
</a>
</g>
</g>
<!-- Node2&#45;&gt;Node37 -->
<g id="edge9" class="edge">
<title>Node2&#45;&gt;Node37</title>
<path fill="none" stroke="midnightblue" d="M284.86,-126.99C251.6,-119.54 211.87,-107.17 180.5,-87 156.81,-71.77 136.79,-45.6 125.21,-28.29"/>
<polygon fill="midnightblue" stroke="midnightblue" points="128.04,-26.22 119.67,-19.72 122.16,-30.02 128.04,-26.22"/>
</g>
<!-- Node62 -->
<g id="node6" class="node">
<title>Node62</title>
<g id="a_node6"><a xlink:href="string__buffer_8h.html" target="_top" xlink:title=" ">
<polygon fill="white" stroke="red" points="190,-56.5 190,-86.5 323,-86.5 323,-56.5 190,-56.5"/>
<text text-anchor="start" x="198" y="-74.5" font-family="Helvetica,sans-Serif" font-size="10.00">emlabcpp/experimental</text>
<text text-anchor="middle" x="256.5" y="-63.5" font-family="Helvetica,sans-Serif" font-size="10.00">/string_buffer.h</text>
</a>
</g>
</g>
<!-- Node2&#45;&gt;Node62 -->
<g id="edge5" class="edge">
<title>Node2&#45;&gt;Node62</title>
<path fill="none" stroke="midnightblue" d="M330.89,-123.4C317.57,-114.28 300.04,-102.29 285.34,-92.24"/>
<polygon fill="midnightblue" stroke="midnightblue" points="287.3,-89.33 277.07,-86.58 283.35,-95.11 287.3,-89.33"/>
</g>
<!-- Node63 -->
<g id="node7" class="node">
<title>Node63</title>
<g id="a_node7"><a xlink:title=" ">
<polygon fill="white" stroke="#bfbfbf" points="271.5,-0.5 271.5,-19.5 335.5,-19.5 335.5,-0.5 271.5,-0.5"/>
<text text-anchor="middle" x="303.5" y="-7.5" font-family="Helvetica,sans-Serif" font-size="10.00">algorithm</text>
</a>
</g>
</g>
<!-- Node2&#45;&gt;Node63 -->
<g id="edge8" class="edge">
<title>Node2&#45;&gt;Node63</title>
<path fill="none" stroke="midnightblue" d="M349.73,-123.49C347.29,-106.88 342.08,-78.61 332.5,-56 328.34,-46.18 322.08,-36.11 316.44,-28"/>
<polygon fill="midnightblue" stroke="midnightblue" points="319.18,-25.83 310.48,-19.79 313.52,-29.94 319.18,-25.83"/>
</g>
<!-- Node65 -->
<g id="node8" class="node">
<title>Node65</title>
<g id="a_node8"><a xlink:href="static__function_8h.html" target="_top" xlink:title=" ">
<polygon fill="white" stroke="red" points="379,-62 379,-81 528,-81 528,-62 379,-62"/>
<text text-anchor="middle" x="453.5" y="-69" font-family="Helvetica,sans-Serif" font-size="10.00">emlabcpp/static_function.h</text>
</a>
</g>
</g>
<!-- Node2&#45;&gt;Node65 -->
<g id="edge7" class="edge">
<title>Node2&#45;&gt;Node65</title>
<path fill="none" stroke="midnightblue" d="M373.63,-123.4C390.74,-112.5 414.3,-97.48 431.4,-86.58"/>
<polygon fill="midnightblue" stroke="midnightblue" points="433.6,-89.33 440.15,-81.01 429.84,-83.43 433.6,-89.33"/>
</g>
<!-- Node66 -->
<g id="node9" class="node">
<title>Node66</title>
<g id="a_node9"><a xlink:title=" ">
<polygon fill="white" stroke="#bfbfbf" points="546,-62 546,-81 651,-81 651,-62 546,-62"/>
<text text-anchor="middle" x="598.5" y="-69" font-family="Helvetica,sans-Serif" font-size="10.00">memory_resource</text>
</a>
</g>
</g>
<!-- Node2&#45;&gt;Node66 -->
<g id="edge10" class="edge">
<title>Node2&#45;&gt;Node66</title>
<path fill="none" stroke="midnightblue" d="M404.79,-123.48C450.12,-111.55 514.35,-94.64 556.22,-83.63"/>
<polygon fill="midnightblue" stroke="midnightblue" points="557.31,-86.96 566.09,-81.03 555.53,-80.19 557.31,-86.96"/>
</g>
<!-- Node16 -->
<g id="node10" class="node">
<title>Node16</title>
<g id="a_node10"><a xlink:title=" ">
<polygon fill="white" stroke="#bfbfbf" points="669,-62 669,-81 720,-81 720,-62 669,-62"/>
<text text-anchor="middle" x="694.5" y="-69" font-family="Helvetica,sans-Serif" font-size="10.00">variant</text>
</a>
</g>
</g>
<!-- Node2&#45;&gt;Node16 -->
<g id="edge11" class="edge">
<title>Node2&#45;&gt;Node16</title>
<path fill="none" stroke="midnightblue" d="M418.23,-131.29C481.51,-124.31 578.8,-110.72 660.5,-87 662.79,-86.34 665.13,-85.56 667.46,-84.72"/>
<polygon fill="midnightblue" stroke="midnightblue" points="668.8,-87.95 676.8,-81 666.21,-81.44 668.8,-87.95"/>
</g>
<!-- Node43&#45;&gt;Node37 -->
<g id="edge4" class="edge">
<title>Node43&#45;&gt;Node37</title>
<path fill="none" stroke="midnightblue" d="M77.88,-56.4C84.85,-47.75 93.81,-36.64 101.13,-27.58"/>
<polygon fill="midnightblue" stroke="midnightblue" points="103.96,-29.64 107.52,-19.66 98.51,-25.24 103.96,-29.64"/>
</g>
<!-- Node62&#45;&gt;Node63 -->
<g id="edge6" class="edge">
<title>Node62&#45;&gt;Node63</title>
<path fill="none" stroke="midnightblue" d="M267.64,-56.4C274.47,-47.75 283.24,-36.64 290.41,-27.58"/>
<polygon fill="midnightblue" stroke="midnightblue" points="293.21,-29.67 296.66,-19.66 287.72,-25.34 293.21,-29.67"/>
</g>
<!-- Node67&#45;&gt;Node2 -->
<g id="edge14" class="edge">
<title>Node67&#45;&gt;Node2</title>
<path fill="none" stroke="midnightblue" d="M531.79,-268.65C459.57,-264 351.24,-251.94 325.5,-221 311.59,-204.28 322.11,-180.01 333.65,-162.31"/>
<polygon fill="midnightblue" stroke="midnightblue" points="336.8,-163.92 339.66,-153.72 331.06,-159.91 336.8,-163.92"/>
</g>
<!-- Node68 -->
<g id="node12" class="node">
<title>Node68</title>
<g id="a_node12"><a xlink:href="linked__list_8h.html" target="_top" xlink:title=" ">
<polygon fill="white" stroke="red" points="334,-190.5 334,-220.5 467,-220.5 467,-190.5 334,-190.5"/>
<text text-anchor="start" x="342" y="-208.5" font-family="Helvetica,sans-Serif" font-size="10.00">emlabcpp/experimental</text>
<text text-anchor="middle" x="400.5" y="-197.5" font-family="Helvetica,sans-Serif" font-size="10.00">/linked_list.h</text>
</a>
</g>
</g>
<!-- Node67&#45;&gt;Node68 -->
<g id="edge13" class="edge">
<title>Node67&#45;&gt;Node68</title>
<path fill="none" stroke="midnightblue" d="M555.54,-257.4C525.44,-247.52 485.04,-234.25 453.02,-223.74"/>
<polygon fill="midnightblue" stroke="midnightblue" points="453.97,-220.37 443.38,-220.58 451.79,-227.02 453.97,-220.37"/>
</g>
<!-- Node69 -->
<g id="node13" class="node">
<title>Node69</title>
<g id="a_node13"><a xlink:href="coroutine_8h.html" target="_top" xlink:title=" ">
<polygon fill="white" stroke="red" points="532,-123.5 532,-153.5 665,-153.5 665,-123.5 532,-123.5"/>
<text text-anchor="start" x="540" y="-141.5" font-family="Helvetica,sans-Serif" font-size="10.00">emlabcpp/experimental</text>
<text text-anchor="middle" x="598.5" y="-130.5" font-family="Helvetica,sans-Serif" font-size="10.00">/testing/coroutine.h</text>
</a>
</g>
</g>
<!-- Node67&#45;&gt;Node69 -->
<g id="edge15" class="edge">
<title>Node67&#45;&gt;Node69</title>
<path fill="none" stroke="midnightblue" d="M609.31,-257.37C615.99,-247.71 623.96,-234.29 627.5,-221 631.05,-207.69 631.05,-203.31 627.5,-190 624.9,-180.24 619.91,-170.41 614.8,-162.05"/>
<polygon fill="midnightblue" stroke="midnightblue" points="617.7,-160.09 609.31,-153.63 611.84,-163.92 617.7,-160.09"/>
</g>
<!-- Node101 -->
<g id="node14" class="node">
<title>Node101</title>
<g id="a_node14"><a xlink:href="record_8h.html" target="_top" xlink:title=" ">
<polygon fill="white" stroke="red" points="485,-190.5 485,-220.5 618,-220.5 618,-190.5 485,-190.5"/>
<text text-anchor="start" x="493" y="-208.5" font-family="Helvetica,sans-Serif" font-size="10.00">emlabcpp/experimental</text>
<text text-anchor="middle" x="551.5" y="-197.5" font-family="Helvetica,sans-Serif" font-size="10.00">/testing/record.h</text>
</a>
</g>
</g>
<!-- Node67&#45;&gt;Node101 -->
<g id="edge16" class="edge">
<title>Node67&#45;&gt;Node101</title>
<path fill="none" stroke="midnightblue" d="M588.3,-257.4C582.27,-249.05 574.48,-238.29 567.63,-228.81"/>
<polygon fill="midnightblue" stroke="midnightblue" points="570.37,-226.63 561.68,-220.58 564.7,-230.73 570.37,-226.63"/>
</g>
<!-- Node79 -->
<g id="node15" class="node">
<title>Node79</title>
<g id="a_node15"><a xlink:href="packet__handler_8h.html" target="_top" xlink:title=" ">
<polygon fill="white" stroke="red" points="675,-190.5 675,-220.5 818,-220.5 818,-190.5 675,-190.5"/>
<text text-anchor="start" x="683" y="-208.5" font-family="Helvetica,sans-Serif" font-size="10.00">emlabcpp/protocol/packet</text>
<text text-anchor="middle" x="746.5" y="-197.5" font-family="Helvetica,sans-Serif" font-size="10.00">_handler.h</text>
</a>
</g>
</g>
<!-- Node67&#45;&gt;Node79 -->
<g id="edge19" class="edge">
<title>Node67&#45;&gt;Node79</title>
<path fill="none" stroke="midnightblue" d="M630.61,-257.4C652.43,-247.81 681.49,-235.05 705.06,-224.7"/>
<polygon fill="midnightblue" stroke="midnightblue" points="706.7,-227.8 714.45,-220.58 703.89,-221.39 706.7,-227.8"/>
</g>
<!-- Node54 -->
<g id="node16" class="node">
<title>Node54</title>
<g id="a_node16"><a xlink:href="result_8h.html" target="_top" xlink:title=" ">
<polygon fill="white" stroke="red" points="782.5,-129 782.5,-148 886.5,-148 886.5,-129 782.5,-129"/>
<text text-anchor="middle" x="834.5" y="-136" font-family="Helvetica,sans-Serif" font-size="10.00">emlabcpp/result.h</text>
</a>
</g>
</g>
<!-- Node67&#45;&gt;Node54 -->
<g id="edge20" class="edge">
<title>Node67&#45;&gt;Node54</title>
<path fill="none" stroke="midnightblue" d="M665.02,-265.5C724.82,-258.62 806.4,-245.07 827.5,-221 842.38,-204.02 841.48,-176.69 838.66,-158.42"/>
<polygon fill="midnightblue" stroke="midnightblue" points="842.06,-157.57 836.78,-148.39 835.18,-158.86 842.06,-157.57"/>
</g>
<!-- Node32 -->
<g id="node17" class="node">
<title>Node32</title>
<g id="a_node17"><a xlink:title=" ">
<polygon fill="white" stroke="#bfbfbf" points="874.5,-196 874.5,-215 914.5,-215 914.5,-196 874.5,-196"/>
<text text-anchor="middle" x="894.5" y="-203" font-family="Helvetica,sans-Serif" font-size="10.00">span</text>
</a>
</g>
</g>
<!-- Node67&#45;&gt;Node32 -->
<g id="edge22" class="edge">
<title>Node67&#45;&gt;Node32</title>
<path fill="none" stroke="midnightblue" d="M665.13,-262.66C718.66,-254.61 795.38,-240.91 860.5,-221 862.64,-220.34 864.84,-219.6 867.02,-218.8"/>
<polygon fill="midnightblue" stroke="midnightblue" points="868.42,-222.01 876.41,-215.06 865.83,-215.5 868.42,-222.01"/>
</g>
<!-- Node101&#45;&gt;Node2 -->
<g id="edge17" class="edge">
<title>Node101&#45;&gt;Node2</title>
<path fill="none" stroke="midnightblue" d="M508.1,-190.4C477.7,-180.52 436.89,-167.25 404.56,-156.74"/>
<polygon fill="midnightblue" stroke="midnightblue" points="405.4,-153.34 394.81,-153.58 403.24,-160 405.4,-153.34"/>
</g>
<!-- Node101&#45;&gt;Node69 -->
<g id="edge18" class="edge">
<title>Node101&#45;&gt;Node69</title>
<path fill="none" stroke="midnightblue" d="M561.7,-190.4C567.73,-182.05 575.52,-171.29 582.37,-161.81"/>
<polygon fill="midnightblue" stroke="midnightblue" points="585.3,-163.73 588.32,-153.58 579.63,-159.63 585.3,-163.73"/>
</g>
<!-- Node54&#45;&gt;Node3 -->
<g id="edge21" class="edge">
<title>Node54&#45;&gt;Node3</title>
<path fill="none" stroke="midnightblue" d="M833.02,-128.73C831.4,-119.18 828.77,-103.62 826.68,-91.28"/>
<polygon fill="midnightblue" stroke="midnightblue" points="830.08,-90.4 824.96,-81.13 823.18,-91.57 830.08,-90.4"/>
</g>
</g>
</svg>
