<?xml version="1.0" encoding="UTF-8" standalone="no"?>
<!DOCTYPE svg PUBLIC "-//W3C//DTD SVG 1.1//EN"
 "http://www.w3.org/Graphics/SVG/1.1/DTD/svg11.dtd">
<!-- Generated by graphviz version 2.43.0 (0)
 -->
<!-- Title: include/emlabcpp/experimental/testing/executor.h Pages: 1 -->
<svg width="973pt" height="363pt"
 viewBox="0.00 0.00 972.78 363.00" xmlns="http://www.w3.org/2000/svg" xmlns:xlink="http://www.w3.org/1999/xlink">
<g id="graph0" class="graph" transform="scale(1 1) rotate(0) translate(4 359)">
<title>include/emlabcpp/experimental/testing/executor.h</title>
<polygon fill="white" stroke="transparent" points="-4,4 -4,-359 968.78,-359 968.78,4 -4,4"/>
<!-- Node1 -->
<g id="node1" class="node">
<title>Node1</title>
<g id="a_node1"><a xlink:title=" ">
<polygon fill="#bfbfbf" stroke="black" points="384,-324.5 384,-354.5 555,-354.5 555,-324.5 384,-324.5"/>
<text text-anchor="start" x="392" y="-342.5" font-family="Helvetica,sans-Serif" font-size="10.00">include/emlabcpp/experimental</text>
<text text-anchor="middle" x="469.5" y="-331.5" font-family="Helvetica,sans-Serif" font-size="10.00">/testing/executor.h</text>
</a>
</g>
</g>
<!-- Node2 -->
<g id="node2" class="node">
<title>Node2</title>
<g id="a_node2"><a xlink:href="experimental_2testing_2base_8h.html" target="_top" xlink:title=" ">
<polygon fill="white" stroke="black" points="544,-123.5 544,-153.5 677,-153.5 677,-123.5 544,-123.5"/>
<text text-anchor="start" x="552" y="-141.5" font-family="Helvetica,sans-Serif" font-size="10.00">emlabcpp/experimental</text>
<text text-anchor="middle" x="610.5" y="-130.5" font-family="Helvetica,sans-Serif" font-size="10.00">/testing/base.h</text>
</a>
</g>
</g>
<!-- Node1&#45;&gt;Node2 -->
<g id="edge1" class="edge">
<title>Node1&#45;&gt;Node2</title>
<path fill="none" stroke="midnightblue" d="M496.99,-324.42C530.03,-305.79 583.97,-269.57 607.5,-221 616.11,-203.23 616.23,-180.64 614.55,-163.75"/>
<polygon fill="midnightblue" stroke="midnightblue" points="617.99,-163.06 613.26,-153.58 611.05,-163.94 617.99,-163.06"/>
</g>
<!-- Node59 -->
<g id="node11" class="node">
<title>Node59</title>
<g id="a_node11"><a xlink:href="interface_8h.html" target="_top" xlink:title=" ">
<polygon fill="white" stroke="black" points="324,-257.5 324,-287.5 457,-287.5 457,-257.5 324,-257.5"/>
<text text-anchor="start" x="332" y="-275.5" font-family="Helvetica,sans-Serif" font-size="10.00">emlabcpp/experimental</text>
<text text-anchor="middle" x="390.5" y="-264.5" font-family="Helvetica,sans-Serif" font-size="10.00">/testing/interface.h</text>
</a>
</g>
</g>
<!-- Node1&#45;&gt;Node59 -->
<g id="edge12" class="edge">
<title>Node1&#45;&gt;Node59</title>
<path fill="none" stroke="midnightblue" d="M452.36,-324.4C441.59,-315.54 427.52,-303.96 415.52,-294.09"/>
<polygon fill="midnightblue" stroke="midnightblue" points="417.55,-291.23 407.61,-287.58 413.11,-296.63 417.55,-291.23"/>
</g>
<!-- Node3 -->
<g id="node3" class="node">
<title>Node3</title>
<g id="a_node3"><a xlink:href="algorithm_8h.html" target="_top" xlink:title=" ">
<polygon fill="white" stroke="red" points="189.5,-62 189.5,-81 313.5,-81 313.5,-62 189.5,-62"/>
<text text-anchor="middle" x="251.5" y="-69" font-family="Helvetica,sans-Serif" font-size="10.00">emlabcpp/algorithm.h</text>
</a>
</g>
</g>
<!-- Node2&#45;&gt;Node3 -->
<g id="edge2" class="edge">
<title>Node2&#45;&gt;Node3</title>
<path fill="none" stroke="midnightblue" d="M543.84,-125.84C486.47,-115.74 401.49,-100.66 327.5,-87 320.42,-85.69 312.97,-84.3 305.61,-82.91"/>
<polygon fill="midnightblue" stroke="midnightblue" points="306.17,-79.45 295.69,-81.02 304.86,-86.33 306.17,-79.45"/>
</g>
<!-- Node34 -->
<g id="node4" class="node">
<title>Node34</title>
<g id="a_node4"><a xlink:href="tree_8h.html" target="_top" xlink:title=" ">
<polygon fill="white" stroke="red" points="370,-56.5 370,-86.5 503,-86.5 503,-56.5 370,-56.5"/>
<text text-anchor="start" x="378" y="-74.5" font-family="Helvetica,sans-Serif" font-size="10.00">emlabcpp/experimental</text>
<text text-anchor="middle" x="436.5" y="-63.5" font-family="Helvetica,sans-Serif" font-size="10.00">/contiguous_tree/tree.h</text>
</a>
</g>
</g>
<!-- Node2&#45;&gt;Node34 -->
<g id="edge3" class="edge">
<title>Node2&#45;&gt;Node34</title>
<path fill="none" stroke="midnightblue" d="M572.74,-123.4C546.64,-113.64 511.71,-100.59 483.75,-90.15"/>
<polygon fill="midnightblue" stroke="midnightblue" points="484.77,-86.8 474.18,-86.58 482.32,-93.35 484.77,-86.8"/>
</g>
<!-- Node37 -->
<g id="node5" class="node">
<title>Node37</title>
<g id="a_node5"><a xlink:href="static__vector_8h.html" target="_top" xlink:title=" ">
<polygon fill="white" stroke="red" points="272,-0.5 272,-19.5 411,-19.5 411,-0.5 272,-0.5"/>
<text text-anchor="middle" x="341.5" y="-7.5" font-family="Helvetica,sans-Serif" font-size="10.00">emlabcpp/static_vector.h</text>
</a>
</g>
</g>
<!-- Node2&#45;&gt;Node37 -->
<g id="edge7" class="edge">
<title>Node2&#45;&gt;Node37</title>
<path fill="none" stroke="midnightblue" d="M543.72,-132C478.8,-125.29 386.31,-111.66 360.5,-87 345.09,-72.28 341.43,-47.11 340.9,-29.8"/>
<polygon fill="midnightblue" stroke="midnightblue" points="344.4,-29.75 340.92,-19.74 337.4,-29.73 344.4,-29.75"/>
</g>
<!-- Node49 -->
<g id="node6" class="node">
<title>Node49</title>
<g id="a_node6"><a xlink:title=" ">
<polygon fill="white" stroke="#bfbfbf" points="691.5,-0.5 691.5,-19.5 729.5,-19.5 729.5,-0.5 691.5,-0.5"/>
<text text-anchor="middle" x="710.5" y="-7.5" font-family="Helvetica,sans-Serif" font-size="10.00">map</text>
</a>
</g>
</g>
<!-- Node2&#45;&gt;Node49 -->
<g id="edge9" class="edge">
<title>Node2&#45;&gt;Node49</title>
<path fill="none" stroke="midnightblue" d="M677.25,-137.58C766.77,-136.1 918.54,-127.49 953.5,-87 1013.39,-17.65 816.94,-10.78 740.03,-10.68"/>
<polygon fill="midnightblue" stroke="midnightblue" points="739.59,-7.18 729.6,-10.7 739.61,-14.18 739.59,-7.18"/>
</g>
<!-- Node56 -->
<g id="node7" class="node">
<title>Node56</title>
<g id="a_node7"><a xlink:href="static__function_8h.html" target="_top" xlink:title=" ">
<polygon fill="white" stroke="red" points="521,-62 521,-81 670,-81 670,-62 521,-62"/>
<text text-anchor="middle" x="595.5" y="-69" font-family="Helvetica,sans-Serif" font-size="10.00">emlabcpp/static_function.h</text>
</a>
</g>
</g>
<!-- Node2&#45;&gt;Node56 -->
<g id="edge6" class="edge">
<title>Node2&#45;&gt;Node56</title>
<path fill="none" stroke="midnightblue" d="M607.25,-123.4C605.07,-113.96 602.18,-101.45 599.81,-91.19"/>
<polygon fill="midnightblue" stroke="midnightblue" points="603.17,-90.15 597.51,-81.19 596.34,-91.73 603.17,-90.15"/>
</g>
<!-- Node57 -->
<g id="node8" class="node">
<title>Node57</title>
<g id="a_node8"><a xlink:title=" ">
<polygon fill="white" stroke="#bfbfbf" points="687.5,-62 687.5,-81 751.5,-81 751.5,-62 687.5,-62"/>
<text text-anchor="middle" x="719.5" y="-69" font-family="Helvetica,sans-Serif" font-size="10.00">algorithm</text>
</a>
</g>
</g>
<!-- Node2&#45;&gt;Node57 -->
<g id="edge8" class="edge">
<title>Node2&#45;&gt;Node57</title>
<path fill="none" stroke="midnightblue" d="M634.15,-123.4C652.68,-112.34 678.31,-97.06 696.64,-86.13"/>
<polygon fill="midnightblue" stroke="midnightblue" points="698.44,-89.13 705.23,-81.01 694.85,-83.12 698.44,-89.13"/>
</g>
<!-- Node58 -->
<g id="node9" class="node">
<title>Node58</title>
<g id="a_node9"><a xlink:title=" ">
<polygon fill="white" stroke="#bfbfbf" points="770,-62 770,-81 875,-81 875,-62 770,-62"/>
<text text-anchor="middle" x="822.5" y="-69" font-family="Helvetica,sans-Serif" font-size="10.00">memory_resource</text>
</a>
</g>
</g>
<!-- Node2&#45;&gt;Node58 -->
<g id="edge10" class="edge">
<title>Node2&#45;&gt;Node58</title>
<path fill="none" stroke="midnightblue" d="M656.24,-123.48C694.74,-111.67 749.11,-95 785.06,-83.98"/>
<polygon fill="midnightblue" stroke="midnightblue" points="786.15,-87.31 794.68,-81.03 784.1,-80.61 786.15,-87.31"/>
</g>
<!-- Node16 -->
<g id="node10" class="node">
<title>Node16</title>
<g id="a_node10"><a xlink:title=" ">
<polygon fill="white" stroke="#bfbfbf" points="893,-62 893,-81 944,-81 944,-62 893,-62"/>
<text text-anchor="middle" x="918.5" y="-69" font-family="Helvetica,sans-Serif" font-size="10.00">variant</text>
</a>
</g>
</g>
<!-- Node2&#45;&gt;Node16 -->
<g id="edge11" class="edge">
<title>Node2&#45;&gt;Node16</title>
<path fill="none" stroke="midnightblue" d="M677.08,-129.42C733.17,-121.63 815.15,-107.9 884.5,-87 886.65,-86.35 888.84,-85.61 891.03,-84.82"/>
<polygon fill="midnightblue" stroke="midnightblue" points="892.42,-88.03 900.42,-81.08 889.84,-81.52 892.42,-88.03"/>
</g>
<!-- Node34&#45;&gt;Node37 -->
<g id="edge4" class="edge">
<title>Node34&#45;&gt;Node37</title>
<path fill="none" stroke="midnightblue" d="M413.99,-56.4C398.9,-46.95 379.11,-34.56 364.03,-25.11"/>
<polygon fill="midnightblue" stroke="midnightblue" points="365.66,-22 355.32,-19.66 361.94,-27.93 365.66,-22"/>
</g>
<!-- Node34&#45;&gt;Node49 -->
<g id="edge5" class="edge">
<title>Node34&#45;&gt;Node49</title>
<path fill="none" stroke="midnightblue" d="M501.09,-56.47C558.12,-44.09 638.64,-26.6 681.31,-17.34"/>
<polygon fill="midnightblue" stroke="midnightblue" points="682.28,-20.71 691.31,-15.17 680.79,-13.87 682.28,-20.71"/>
</g>
<!-- Node60 -->
<g id="node12" class="node">
<title>Node60</title>
<g id="a_node12"><a xlink:href="linked__list_8h.html" target="_top" xlink:title=" ">
<polygon fill="white" stroke="red" points="246,-190.5 246,-220.5 379,-220.5 379,-190.5 246,-190.5"/>
<text text-anchor="start" x="254" y="-208.5" font-family="Helvetica,sans-Serif" font-size="10.00">emlabcpp/experimental</text>
<text text-anchor="middle" x="312.5" y="-197.5" font-family="Helvetica,sans-Serif" font-size="10.00">/linked_list.h</text>
</a>
</g>
</g>
<!-- Node59&#45;&gt;Node60 -->
<g id="edge13" class="edge">
<title>Node59&#45;&gt;Node60</title>
<path fill="none" stroke="midnightblue" d="M373.58,-257.4C362.95,-248.54 349.05,-236.96 337.2,-227.09"/>
<polygon fill="midnightblue" stroke="midnightblue" points="339.31,-224.29 329.39,-220.58 334.83,-229.67 339.31,-224.29"/>
</g>
<!-- Node61 -->
<g id="node13" class="node">
<title>Node61</title>
<g id="a_node13"><a xlink:href="coroutine_8h.html" target="_top" xlink:title=" ">
<polygon fill="white" stroke="red" points="0,-123.5 0,-153.5 133,-153.5 133,-123.5 0,-123.5"/>
<text text-anchor="start" x="8" y="-141.5" font-family="Helvetica,sans-Serif" font-size="10.00">emlabcpp/experimental</text>
<text text-anchor="middle" x="66.5" y="-130.5" font-family="Helvetica,sans-Serif" font-size="10.00">/testing/coroutine.h</text>
</a>
</g>
</g>
<!-- Node59&#45;&gt;Node61 -->
<g id="edge14" class="edge">
<title>Node59&#45;&gt;Node61</title>
<path fill="none" stroke="midnightblue" d="M323.72,-268.91C244.55,-264.44 119.08,-252.47 85.5,-221 70.06,-206.54 66.04,-182.16 65.44,-163.83"/>
<polygon fill="midnightblue" stroke="midnightblue" points="68.94,-163.59 65.43,-153.59 61.94,-163.6 68.94,-163.59"/>
</g>
<!-- Node96 -->
<g id="node14" class="node">
<title>Node96</title>
<g id="a_node14"><a xlink:href="record_8h.html" target="_top" xlink:title=" ">
<polygon fill="white" stroke="red" points="95,-190.5 95,-220.5 228,-220.5 228,-190.5 95,-190.5"/>
<text text-anchor="start" x="103" y="-208.5" font-family="Helvetica,sans-Serif" font-size="10.00">emlabcpp/experimental</text>
<text text-anchor="middle" x="161.5" y="-197.5" font-family="Helvetica,sans-Serif" font-size="10.00">/testing/record.h</text>
</a>
</g>
</g>
<!-- Node59&#45;&gt;Node96 -->
<g id="edge15" class="edge">
<title>Node59&#45;&gt;Node96</title>
<path fill="none" stroke="midnightblue" d="M341.09,-257.48C305.85,-247.47 258.28,-233.97 220.96,-223.38"/>
<polygon fill="midnightblue" stroke="midnightblue" points="221.79,-219.97 211.21,-220.61 219.88,-226.71 221.79,-219.97"/>
</g>
<!-- Node70 -->
<g id="node15" class="node">
<title>Node70</title>
<g id="a_node15"><a xlink:href="packet__handler_8h.html" target="_top" xlink:title=" ">
<polygon fill="white" stroke="red" points="397,-190.5 397,-220.5 540,-220.5 540,-190.5 397,-190.5"/>
<text text-anchor="start" x="405" y="-208.5" font-family="Helvetica,sans-Serif" font-size="10.00">emlabcpp/protocol/packet</text>
<text text-anchor="middle" x="468.5" y="-197.5" font-family="Helvetica,sans-Serif" font-size="10.00">_handler.h</text>
</a>
</g>
</g>
<!-- Node59&#45;&gt;Node70 -->
<g id="edge19" class="edge">
<title>Node59&#45;&gt;Node70</title>
<path fill="none" stroke="midnightblue" d="M407.42,-257.4C418.05,-248.54 431.95,-236.96 443.8,-227.09"/>
<polygon fill="midnightblue" stroke="midnightblue" points="446.17,-229.67 451.61,-220.58 441.69,-224.29 446.17,-229.67"/>
</g>
<!-- Node30 -->
<g id="node16" class="node">
<title>Node30</title>
<g id="a_node16"><a xlink:title=" ">
<polygon fill="white" stroke="#bfbfbf" points="558.5,-196 558.5,-215 598.5,-215 598.5,-196 558.5,-196"/>
<text text-anchor="middle" x="578.5" y="-203" font-family="Helvetica,sans-Serif" font-size="10.00">span</text>
</a>
</g>
</g>
<!-- Node59&#45;&gt;Node30 -->
<g id="edge20" class="edge">
<title>Node59&#45;&gt;Node30</title>
<path fill="none" stroke="midnightblue" d="M440.59,-257.46C471.98,-248.18 513.06,-235.15 548.5,-221 549.88,-220.45 551.28,-219.87 552.69,-219.26"/>
<polygon fill="midnightblue" stroke="midnightblue" points="554.23,-222.4 561.87,-215.05 551.32,-216.03 554.23,-222.4"/>
</g>
<!-- Node96&#45;&gt;Node2 -->
<g id="edge16" class="edge">
<title>Node96&#45;&gt;Node2</title>
<path fill="none" stroke="midnightblue" d="M228.12,-191.42C230.95,-190.93 233.75,-190.45 236.5,-190 339.06,-173.18 458.12,-157.81 533.85,-148.56"/>
<polygon fill="midnightblue" stroke="midnightblue" points="534.28,-152.03 543.78,-147.35 533.43,-145.08 534.28,-152.03"/>
</g>
<!-- Node96&#45;&gt;Node37 -->
<g id="edge18" class="edge">
<title>Node96&#45;&gt;Node37</title>
<path fill="none" stroke="midnightblue" d="M158.65,-190.2C153.75,-161.11 147.19,-94.54 180.5,-56 200.79,-32.52 232.21,-20.81 261.93,-15.12"/>
<polygon fill="midnightblue" stroke="midnightblue" points="262.66,-18.55 271.93,-13.42 261.48,-11.65 262.66,-18.55"/>
</g>
<!-- Node96&#45;&gt;Node61 -->
<g id="edge17" class="edge">
<title>Node96&#45;&gt;Node61</title>
<path fill="none" stroke="midnightblue" d="M140.89,-190.4C127.57,-181.28 110.04,-169.29 95.34,-159.24"/>
<polygon fill="midnightblue" stroke="midnightblue" points="97.3,-156.33 87.07,-153.58 93.35,-162.11 97.3,-156.33"/>
</g>
</g>
</svg>
