<?xml version="1.0" encoding="UTF-8" standalone="no"?>
<!DOCTYPE svg PUBLIC "-//W3C//DTD SVG 1.1//EN"
 "http://www.w3.org/Graphics/SVG/1.1/DTD/svg11.dtd">
<!-- Generated by graphviz version 2.43.0 (0)
 -->
<!-- Title: include/emlabcpp/experimental/logging/util.h Pages: 1 -->
<svg width="271pt" height="229pt"
 viewBox="0.00 0.00 271.00 229.00" xmlns="http://www.w3.org/2000/svg" xmlns:xlink="http://www.w3.org/1999/xlink">
<g id="graph0" class="graph" transform="scale(1 1) rotate(0) translate(4 225)">
<title>include/emlabcpp/experimental/logging/util.h</title>
<polygon fill="white" stroke="transparent" points="-4,4 -4,-225 267,-225 267,4 -4,4"/>
<!-- Node1 -->
<g id="node1" class="node">
<title>Node1</title>
<g id="a_node1"><a xlink:title=" ">
<polygon fill="#bfbfbf" stroke="black" points="76,-190.5 76,-220.5 247,-220.5 247,-190.5 76,-190.5"/>
<text text-anchor="start" x="84" y="-208.5" font-family="Helvetica,sans-Serif" font-size="10.00">include/emlabcpp/experimental</text>
<text text-anchor="middle" x="161.5" y="-197.5" font-family="Helvetica,sans-Serif" font-size="10.00">/logging/util.h</text>
</a>
</g>
</g>
<!-- Node2 -->
<g id="node2" class="node">
<title>Node2</title>
<g id="a_node2"><a xlink:href="logging_8h.html" target="_top" xlink:title=" ">
<polygon fill="white" stroke="black" points="95,-123.5 95,-153.5 228,-153.5 228,-123.5 95,-123.5"/>
<text text-anchor="start" x="103" y="-141.5" font-family="Helvetica,sans-Serif" font-size="10.00">emlabcpp/experimental</text>
<text text-anchor="middle" x="161.5" y="-130.5" font-family="Helvetica,sans-Serif" font-size="10.00">/logging.h</text>
</a>
</g>
</g>
<!-- Node1&#45;&gt;Node2 -->
<g id="edge1" class="edge">
<title>Node1&#45;&gt;Node2</title>
<path fill="none" stroke="midnightblue" d="M161.5,-190.4C161.5,-182.64 161.5,-172.81 161.5,-163.86"/>
<polygon fill="midnightblue" stroke="midnightblue" points="165,-163.58 161.5,-153.58 158,-163.58 165,-163.58"/>
</g>
<!-- Node3 -->
<g id="node3" class="node">
<title>Node3</title>
<g id="a_node3"><a xlink:href="pretty__printer_8h.html" target="_top" xlink:title=" ">
<polygon fill="white" stroke="red" points="0,-56.5 0,-86.5 133,-86.5 133,-56.5 0,-56.5"/>
<text text-anchor="start" x="8" y="-74.5" font-family="Helvetica,sans-Serif" font-size="10.00">emlabcpp/experimental</text>
<text text-anchor="middle" x="66.5" y="-63.5" font-family="Helvetica,sans-Serif" font-size="10.00">/pretty_printer.h</text>
</a>
</g>
</g>
<!-- Node2&#45;&gt;Node3 -->
<g id="edge2" class="edge">
<title>Node2&#45;&gt;Node3</title>
<path fill="none" stroke="midnightblue" d="M140.89,-123.4C127.57,-114.28 110.04,-102.29 95.34,-92.24"/>
<polygon fill="midnightblue" stroke="midnightblue" points="97.3,-89.33 87.07,-86.58 93.35,-95.11 97.3,-89.33"/>
</g>
<!-- Node17 -->
<g id="node4" class="node">
<title>Node17</title>
<g id="a_node4"><a xlink:href="match_8h.html" target="_top" xlink:title=" ">
<polygon fill="white" stroke="red" points="60,-0.5 60,-19.5 167,-19.5 167,-0.5 60,-0.5"/>
<text text-anchor="middle" x="113.5" y="-7.5" font-family="Helvetica,sans-Serif" font-size="10.00">emlabcpp/match.h</text>
</a>
</g>
</g>
<!-- Node2&#45;&gt;Node17 -->
<g id="edge4" class="edge">
<title>Node2&#45;&gt;Node17</title>
<path fill="none" stroke="midnightblue" d="M159.73,-123.49C157.29,-106.88 152.08,-78.61 142.5,-56 138.34,-46.18 132.08,-36.11 126.44,-28"/>
<polygon fill="midnightblue" stroke="midnightblue" points="129.18,-25.83 120.48,-19.79 123.52,-29.94 129.18,-25.83"/>
</g>
<!-- Node27 -->
<g id="node5" class="node">
<title>Node27</title>
<g id="a_node5"><a xlink:title=" ">
<polygon fill="white" stroke="#bfbfbf" points="190,-62 190,-81 263,-81 263,-62 190,-62"/>
<text text-anchor="middle" x="226.5" y="-69" font-family="Helvetica,sans-Serif" font-size="10.00">string_view</text>
</a>
</g>
</g>
<!-- Node2&#45;&gt;Node27 -->
<g id="edge5" class="edge">
<title>Node2&#45;&gt;Node27</title>
<path fill="none" stroke="midnightblue" d="M175.6,-123.4C185.94,-113.06 199.98,-99.02 210.69,-88.31"/>
<polygon fill="midnightblue" stroke="midnightblue" points="213.21,-90.74 217.81,-81.19 208.26,-85.79 213.21,-90.74"/>
</g>
<!-- Node3&#45;&gt;Node17 -->
<g id="edge3" class="edge">
<title>Node3&#45;&gt;Node17</title>
<path fill="none" stroke="midnightblue" d="M77.64,-56.4C84.47,-47.75 93.24,-36.64 100.41,-27.58"/>
<polygon fill="midnightblue" stroke="midnightblue" points="103.21,-29.67 106.66,-19.66 97.72,-25.34 103.21,-29.67"/>
</g>
</g>
</svg>
