<?xml version="1.0" encoding="UTF-8" standalone="no"?>
<!DOCTYPE svg PUBLIC "-//W3C//DTD SVG 1.1//EN"
 "http://www.w3.org/Graphics/SVG/1.1/DTD/svg11.dtd">
<!-- Generated by graphviz version 2.43.0 (0)
 -->
<!-- Title: include/emlabcpp/experimental/cfg2/handler.h Pages: 1 -->
<svg width="684pt" height="207pt"
 viewBox="0.00 0.00 683.59 207.00" xmlns="http://www.w3.org/2000/svg" xmlns:xlink="http://www.w3.org/1999/xlink">
<g id="graph0" class="graph" transform="scale(1 1) rotate(0) translate(4 203)">
<title>include/emlabcpp/experimental/cfg2/handler.h</title>
<polygon fill="white" stroke="transparent" points="-4,4 -4,-203 679.59,-203 679.59,4 -4,4"/>
<!-- Node1 -->
<g id="node1" class="node">
<title>Node1</title>
<g id="a_node1"><a xlink:title=" ">
<polygon fill="#bfbfbf" stroke="black" points="244.09,-168.5 244.09,-198.5 415.09,-198.5 415.09,-168.5 244.09,-168.5"/>
<text text-anchor="start" x="252.09" y="-186.5" font-family="Helvetica,sans-Serif" font-size="10.00">include/emlabcpp/experimental</text>
<text text-anchor="middle" x="329.59" y="-175.5" font-family="Helvetica,sans-Serif" font-size="10.00">/cfg2/handler.h</text>
</a>
</g>
</g>
<!-- Node2 -->
<g id="node2" class="node">
<title>Node2</title>
<g id="a_node2"><a xlink:href="assert_8h.html" target="_top" xlink:title=" ">
<polygon fill="white" stroke="black" points="12.59,-56.5 12.59,-75.5 86.59,-75.5 86.59,-56.5 12.59,-56.5"/>
<text text-anchor="middle" x="49.59" y="-63.5" font-family="Helvetica,sans-Serif" font-size="10.00">../../assert.h</text>
</a>
</g>
</g>
<!-- Node1&#45;&gt;Node2 -->
<g id="edge1" class="edge">
<title>Node1&#45;&gt;Node2</title>
<path fill="none" stroke="midnightblue" d="M243.81,-171.89C185.02,-163.26 113.37,-149.63 88.59,-132 72.55,-120.58 61.93,-100.3 55.88,-85.41"/>
<polygon fill="midnightblue" stroke="midnightblue" points="59.05,-83.88 52.27,-75.74 52.49,-86.33 59.05,-83.88"/>
</g>
<!-- Node4 -->
<g id="node4" class="node">
<title>Node4</title>
<g id="a_node4"><a xlink:href="match_8h.html" target="_top" xlink:title=" ">
<polygon fill="white" stroke="black" points="97.59,-112.5 97.59,-131.5 171.59,-131.5 171.59,-112.5 97.59,-112.5"/>
<text text-anchor="middle" x="134.59" y="-119.5" font-family="Helvetica,sans-Serif" font-size="10.00">../../match.h</text>
</a>
</g>
</g>
<!-- Node1&#45;&gt;Node4 -->
<g id="edge3" class="edge">
<title>Node1&#45;&gt;Node4</title>
<path fill="none" stroke="midnightblue" d="M283.38,-168.4C249.54,-158.07 204.17,-144.23 172.47,-134.56"/>
<polygon fill="midnightblue" stroke="midnightblue" points="173.27,-131.14 162.68,-131.57 171.23,-137.84 173.27,-131.14"/>
</g>
<!-- Node20 -->
<g id="node6" class="node">
<title>Node20</title>
<g id="a_node6"><a xlink:href="converter_8h.html" target="_top" xlink:title=" ">
<polygon fill="white" stroke="black" points="196.59,-112.5 196.59,-131.5 328.59,-131.5 328.59,-112.5 196.59,-112.5"/>
<text text-anchor="middle" x="262.59" y="-119.5" font-family="Helvetica,sans-Serif" font-size="10.00">../../protocol/converter.h</text>
</a>
</g>
</g>
<!-- Node1&#45;&gt;Node20 -->
<g id="edge5" class="edge">
<title>Node1&#45;&gt;Node20</title>
<path fill="none" stroke="midnightblue" d="M313.72,-168.4C303.58,-159.4 290.43,-147.72 280.01,-138.47"/>
<polygon fill="midnightblue" stroke="midnightblue" points="282.14,-135.68 272.34,-131.66 277.5,-140.92 282.14,-135.68"/>
</g>
<!-- Node30 -->
<g id="node9" class="node">
<title>Node30</title>
<g id="a_node9"><a xlink:title=" ">
<polygon fill="white" stroke="#bfbfbf" points="426.59,-0.5 426.59,-19.5 466.59,-19.5 466.59,-0.5 426.59,-0.5"/>
<text text-anchor="middle" x="446.59" y="-7.5" font-family="Helvetica,sans-Serif" font-size="10.00">span</text>
</a>
</g>
</g>
<!-- Node1&#45;&gt;Node30 -->
<g id="edge20" class="edge">
<title>Node1&#45;&gt;Node30</title>
<path fill="none" stroke="midnightblue" d="M415.29,-173.13C475.15,-161.43 550.28,-135.13 584.59,-76 609.43,-33.2 524.48,-18.25 476.78,-13.3"/>
<polygon fill="midnightblue" stroke="midnightblue" points="476.95,-9.8 466.67,-12.34 476.29,-16.77 476.95,-9.8"/>
</g>
<!-- Node23 -->
<g id="node11" class="node">
<title>Node23</title>
<g id="a_node11"><a xlink:title=" ">
<polygon fill="white" stroke="#bfbfbf" points="135.59,-0.5 135.59,-19.5 191.59,-19.5 191.59,-0.5 135.59,-0.5"/>
<text text-anchor="middle" x="163.59" y="-7.5" font-family="Helvetica,sans-Serif" font-size="10.00">optional</text>
</a>
</g>
</g>
<!-- Node1&#45;&gt;Node23 -->
<g id="edge19" class="edge">
<title>Node1&#45;&gt;Node23</title>
<path fill="none" stroke="midnightblue" d="M243.9,-177.64C190.62,-171.87 121.95,-159.3 66.59,-132 33,-115.43 18.94,-110.18 3.59,-76 -0.05,-67.89 -1.77,-63.09 3.59,-56 18.28,-36.61 83.02,-23.24 125.52,-16.37"/>
<polygon fill="midnightblue" stroke="midnightblue" points="126.19,-19.81 135.53,-14.81 125.11,-12.89 126.19,-19.81"/>
</g>
<!-- Node55 -->
<g id="node12" class="node">
<title>Node55</title>
<g id="a_node12"><a xlink:href="result_8h.html" target="_top" xlink:title=" ">
<polygon fill="white" stroke="black" points="376.09,-112.5 376.09,-131.5 447.09,-131.5 447.09,-112.5 376.09,-112.5"/>
<text text-anchor="middle" x="411.59" y="-119.5" font-family="Helvetica,sans-Serif" font-size="10.00">../../result.h</text>
</a>
</g>
</g>
<!-- Node1&#45;&gt;Node55 -->
<g id="edge13" class="edge">
<title>Node1&#45;&gt;Node55</title>
<path fill="none" stroke="midnightblue" d="M349.03,-168.4C361.8,-159.13 378.48,-147.03 391.41,-137.65"/>
<polygon fill="midnightblue" stroke="midnightblue" points="393.62,-140.36 399.66,-131.66 389.51,-134.7 393.62,-140.36"/>
</g>
<!-- Node11 -->
<g id="node14" class="node">
<title>Node11</title>
<g id="a_node14"><a xlink:title=" ">
<polygon fill="white" stroke="#bfbfbf" points="525.59,-56.5 525.59,-75.5 575.59,-75.5 575.59,-56.5 525.59,-56.5"/>
<text text-anchor="middle" x="550.59" y="-63.5" font-family="Helvetica,sans-Serif" font-size="10.00">cstdint</text>
</a>
</g>
</g>
<!-- Node1&#45;&gt;Node11 -->
<g id="edge17" class="edge">
<title>Node1&#45;&gt;Node11</title>
<path fill="none" stroke="midnightblue" d="M371.84,-168.43C397.08,-159.36 429.4,-146.56 456.59,-132 484.1,-117.27 513.29,-96.11 531.71,-81.97"/>
<polygon fill="midnightblue" stroke="midnightblue" points="534.08,-84.56 539.83,-75.66 529.79,-79.03 534.08,-84.56"/>
</g>
<!-- Node46 -->
<g id="node15" class="node">
<title>Node46</title>
<g id="a_node15"><a xlink:title=" ">
<polygon fill="white" stroke="#bfbfbf" points="631.59,-112.5 631.59,-131.5 675.59,-131.5 675.59,-112.5 631.59,-112.5"/>
<text text-anchor="middle" x="653.59" y="-119.5" font-family="Helvetica,sans-Serif" font-size="10.00">limits</text>
</a>
</g>
</g>
<!-- Node1&#45;&gt;Node46 -->
<g id="edge18" class="edge">
<title>Node1&#45;&gt;Node46</title>
<path fill="none" stroke="midnightblue" d="M415.28,-169.12C472.72,-159.75 549.94,-146.37 617.59,-132 618.87,-131.73 620.17,-131.44 621.48,-131.15"/>
<polygon fill="midnightblue" stroke="midnightblue" points="622.64,-134.47 631.57,-128.77 621.03,-127.66 622.64,-134.47"/>
</g>
<!-- Node3 -->
<g id="node3" class="node">
<title>Node3</title>
<g id="a_node3"><a xlink:title=" ">
<polygon fill="white" stroke="#bfbfbf" points="23.59,-0.5 23.59,-19.5 75.59,-19.5 75.59,-0.5 23.59,-0.5"/>
<text text-anchor="middle" x="49.59" y="-7.5" font-family="Helvetica,sans-Serif" font-size="10.00">cassert</text>
</a>
</g>
</g>
<!-- Node2&#45;&gt;Node3 -->
<g id="edge2" class="edge">
<title>Node2&#45;&gt;Node3</title>
<path fill="none" stroke="midnightblue" d="M49.59,-56.08C49.59,-49.01 49.59,-38.86 49.59,-29.99"/>
<polygon fill="midnightblue" stroke="midnightblue" points="53.09,-29.75 49.59,-19.75 46.09,-29.75 53.09,-29.75"/>
</g>
<!-- Node5 -->
<g id="node5" class="node">
<title>Node5</title>
<g id="a_node5"><a xlink:href="visit_8h.html" target="_top" xlink:title=" ">
<polygon fill="white" stroke="red" points="105.09,-56.5 105.09,-75.5 158.09,-75.5 158.09,-56.5 105.09,-56.5"/>
<text text-anchor="middle" x="131.59" y="-63.5" font-family="Helvetica,sans-Serif" font-size="10.00">./visit.h</text>
</a>
</g>
</g>
<!-- Node4&#45;&gt;Node5 -->
<g id="edge4" class="edge">
<title>Node4&#45;&gt;Node5</title>
<path fill="none" stroke="midnightblue" d="M134.1,-112.08C133.71,-105.01 133.14,-94.86 132.65,-85.99"/>
<polygon fill="midnightblue" stroke="midnightblue" points="136.13,-85.54 132.08,-75.75 129.14,-85.93 136.13,-85.54"/>
</g>
<!-- Node20&#45;&gt;Node2 -->
<g id="edge7" class="edge">
<title>Node20&#45;&gt;Node2</title>
<path fill="none" stroke="midnightblue" d="M228.84,-112.44C192.08,-103.12 133.15,-88.18 92.97,-78"/>
<polygon fill="midnightblue" stroke="midnightblue" points="93.74,-74.58 83.19,-75.52 92.02,-81.37 93.74,-74.58"/>
</g>
<!-- Node20&#45;&gt;Node5 -->
<g id="edge8" class="edge">
<title>Node20&#45;&gt;Node5</title>
<path fill="none" stroke="midnightblue" d="M241.84,-112.44C220.28,-103.56 186.33,-89.56 161.8,-79.45"/>
<polygon fill="midnightblue" stroke="midnightblue" points="162.83,-76.09 152.25,-75.52 160.17,-82.56 162.83,-76.09"/>
</g>
<!-- Node21 -->
<g id="node7" class="node">
<title>Node21</title>
<g id="a_node7"><a xlink:href="algorithm_8h.html" target="_top" xlink:title=" ">
<polygon fill="white" stroke="red" points="345.59,-56.5 345.59,-75.5 427.59,-75.5 427.59,-56.5 345.59,-56.5"/>
<text text-anchor="middle" x="386.59" y="-63.5" font-family="Helvetica,sans-Serif" font-size="10.00">../algorithm.h</text>
</a>
</g>
</g>
<!-- Node20&#45;&gt;Node21 -->
<g id="edge6" class="edge">
<title>Node20&#45;&gt;Node21</title>
<path fill="none" stroke="midnightblue" d="M282.24,-112.44C302.56,-103.6 334.5,-89.69 357.69,-79.59"/>
<polygon fill="midnightblue" stroke="midnightblue" points="359.27,-82.72 367.04,-75.52 356.47,-76.3 359.27,-82.72"/>
</g>
<!-- Node33 -->
<g id="node8" class="node">
<title>Node33</title>
<g id="a_node8"><a xlink:href="serializer_8h.html" target="_top" xlink:title=" ">
<polygon fill="white" stroke="red" points="251.59,-56.5 251.59,-75.5 327.59,-75.5 327.59,-56.5 251.59,-56.5"/>
<text text-anchor="middle" x="289.59" y="-63.5" font-family="Helvetica,sans-Serif" font-size="10.00">./serializer.h</text>
</a>
</g>
</g>
<!-- Node20&#45;&gt;Node33 -->
<g id="edge9" class="edge">
<title>Node20&#45;&gt;Node33</title>
<path fill="none" stroke="midnightblue" d="M267.05,-112.08C270.75,-104.69 276.12,-93.95 280.69,-84.81"/>
<polygon fill="midnightblue" stroke="midnightblue" points="283.88,-86.26 285.22,-75.75 277.62,-83.13 283.88,-86.26"/>
</g>
<!-- Node43 -->
<g id="node10" class="node">
<title>Node43</title>
<g id="a_node10"><a xlink:href="traits_8h.html" target="_top" xlink:title=" ">
<polygon fill="white" stroke="red" points="176.09,-56.5 176.09,-75.5 233.09,-75.5 233.09,-56.5 176.09,-56.5"/>
<text text-anchor="middle" x="204.59" y="-63.5" font-family="Helvetica,sans-Serif" font-size="10.00">./traits.h</text>
</a>
</g>
</g>
<!-- Node20&#45;&gt;Node43 -->
<g id="edge11" class="edge">
<title>Node20&#45;&gt;Node43</title>
<path fill="none" stroke="midnightblue" d="M253.28,-112.32C244.7,-104.34 231.78,-92.31 221.41,-82.65"/>
<polygon fill="midnightblue" stroke="midnightblue" points="223.79,-80.09 214.08,-75.83 219.02,-85.21 223.79,-80.09"/>
</g>
<!-- Node33&#45;&gt;Node30 -->
<g id="edge10" class="edge">
<title>Node33&#45;&gt;Node30</title>
<path fill="none" stroke="midnightblue" d="M314.47,-56.44C342.16,-46.92 386.9,-31.53 416.53,-21.34"/>
<polygon fill="midnightblue" stroke="midnightblue" points="418.01,-24.53 426.33,-17.97 415.73,-17.91 418.01,-24.53"/>
</g>
<!-- Node43&#45;&gt;Node23 -->
<g id="edge12" class="edge">
<title>Node43&#45;&gt;Node23</title>
<path fill="none" stroke="midnightblue" d="M197.82,-56.08C192.03,-48.46 183.54,-37.26 176.46,-27.94"/>
<polygon fill="midnightblue" stroke="midnightblue" points="179.07,-25.6 170.24,-19.75 173.5,-29.83 179.07,-25.6"/>
</g>
<!-- Node55&#45;&gt;Node21 -->
<g id="edge14" class="edge">
<title>Node55&#45;&gt;Node21</title>
<path fill="none" stroke="midnightblue" d="M407.47,-112.08C404.08,-104.77 399.18,-94.18 394.98,-85.1"/>
<polygon fill="midnightblue" stroke="midnightblue" points="398.02,-83.36 390.65,-75.75 391.67,-86.3 398.02,-83.36"/>
</g>
<!-- Node56 -->
<g id="node13" class="node">
<title>Node56</title>
<g id="a_node13"><a xlink:href="status_8h.html" target="_top" xlink:title=" ">
<polygon fill="white" stroke="red" points="445.59,-56.5 445.59,-75.5 507.59,-75.5 507.59,-56.5 445.59,-56.5"/>
<text text-anchor="middle" x="476.59" y="-63.5" font-family="Helvetica,sans-Serif" font-size="10.00">./status.h</text>
</a>
</g>
</g>
<!-- Node55&#45;&gt;Node56 -->
<g id="edge15" class="edge">
<title>Node55&#45;&gt;Node56</title>
<path fill="none" stroke="midnightblue" d="M422.04,-112.32C431.74,-104.26 446.41,-92.08 458.09,-82.37"/>
<polygon fill="midnightblue" stroke="midnightblue" points="460.51,-84.92 465.96,-75.83 456.03,-79.53 460.51,-84.92"/>
</g>
<!-- Node55&#45;&gt;Node11 -->
<g id="edge16" class="edge">
<title>Node55&#45;&gt;Node11</title>
<path fill="none" stroke="midnightblue" d="M433.62,-112.44C456.7,-103.48 493.16,-89.31 519.23,-79.18"/>
<polygon fill="midnightblue" stroke="midnightblue" points="520.62,-82.4 528.67,-75.52 518.08,-75.88 520.62,-82.4"/>
</g>
</g>
</svg>
