<?xml version="1.0" encoding="UTF-8" standalone="no"?>
<!DOCTYPE svg PUBLIC "-//W3C//DTD SVG 1.1//EN"
 "http://www.w3.org/Graphics/SVG/1.1/DTD/svg11.dtd">
<!-- Generated by graphviz version 2.43.0 (0)
 -->
<!-- Title: include/emlabcpp/experimental/logging/util.h Pages: 1 -->
<svg width="443pt" height="229pt"
 viewBox="0.00 0.00 443.00 229.00" xmlns="http://www.w3.org/2000/svg" xmlns:xlink="http://www.w3.org/1999/xlink">
<g id="graph0" class="graph" transform="scale(1 1) rotate(0) translate(4 225)">
<title>include/emlabcpp/experimental/logging/util.h</title>
<polygon fill="white" stroke="transparent" points="-4,4 -4,-225 439,-225 439,4 -4,4"/>
<!-- Node1 -->
<g id="node1" class="node">
<title>Node1</title>
<g id="a_node1"><a xlink:title=" ">
<polygon fill="#bfbfbf" stroke="black" points="139,-190.5 139,-220.5 310,-220.5 310,-190.5 139,-190.5"/>
<text text-anchor="start" x="147" y="-208.5" font-family="Helvetica,sans-Serif" font-size="10.00">include/emlabcpp/experimental</text>
<text text-anchor="middle" x="224.5" y="-197.5" font-family="Helvetica,sans-Serif" font-size="10.00">/logging/util.h</text>
</a>
</g>
</g>
<!-- Node2 -->
<g id="node2" class="node">
<title>Node2</title>
<g id="a_node2"><a xlink:href="logging_8h.html" target="_top" xlink:title=" ">
<polygon fill="white" stroke="black" points="158,-123.5 158,-153.5 291,-153.5 291,-123.5 158,-123.5"/>
<text text-anchor="start" x="166" y="-141.5" font-family="Helvetica,sans-Serif" font-size="10.00">emlabcpp/experimental</text>
<text text-anchor="middle" x="224.5" y="-130.5" font-family="Helvetica,sans-Serif" font-size="10.00">/logging.h</text>
</a>
</g>
</g>
<!-- Node1&#45;&gt;Node2 -->
<g id="edge1" class="edge">
<title>Node1&#45;&gt;Node2</title>
<path fill="none" stroke="midnightblue" d="M224.5,-190.4C224.5,-182.64 224.5,-172.81 224.5,-163.86"/>
<polygon fill="midnightblue" stroke="midnightblue" points="228,-163.58 224.5,-153.58 221,-163.58 228,-163.58"/>
</g>
<!-- Node3 -->
<g id="node3" class="node">
<title>Node3</title>
<g id="a_node3"><a xlink:href="pretty__printer_8h.html" target="_top" xlink:title=" ">
<polygon fill="white" stroke="red" points="36,-56.5 36,-86.5 169,-86.5 169,-56.5 36,-56.5"/>
<text text-anchor="start" x="44" y="-74.5" font-family="Helvetica,sans-Serif" font-size="10.00">emlabcpp/experimental</text>
<text text-anchor="middle" x="102.5" y="-63.5" font-family="Helvetica,sans-Serif" font-size="10.00">/pretty_printer.h</text>
</a>
</g>
</g>
<!-- Node2&#45;&gt;Node3 -->
<g id="edge2" class="edge">
<title>Node2&#45;&gt;Node3</title>
<path fill="none" stroke="midnightblue" d="M198.03,-123.4C180.44,-114.03 157.15,-101.62 137.96,-91.39"/>
<polygon fill="midnightblue" stroke="midnightblue" points="139.39,-88.19 128.92,-86.58 136.1,-94.37 139.39,-88.19"/>
</g>
<!-- Node17 -->
<g id="node4" class="node">
<title>Node17</title>
<g id="a_node4"><a xlink:href="match_8h.html" target="_top" xlink:title=" ">
<polygon fill="white" stroke="red" points="0,-0.5 0,-19.5 107,-19.5 107,-0.5 0,-0.5"/>
<text text-anchor="middle" x="53.5" y="-7.5" font-family="Helvetica,sans-Serif" font-size="10.00">emlabcpp/match.h</text>
</a>
</g>
</g>
<!-- Node2&#45;&gt;Node17 -->
<g id="edge5" class="edge">
<title>Node2&#45;&gt;Node17</title>
<path fill="none" stroke="midnightblue" d="M157.89,-129.31C106.91,-121.51 42.69,-107.84 26.5,-87 12.87,-69.46 26.5,-44.48 38.84,-28.01"/>
<polygon fill="midnightblue" stroke="midnightblue" points="41.86,-29.83 45.38,-19.84 36.4,-25.46 41.86,-29.83"/>
</g>
<!-- Node14 -->
<g id="node5" class="node">
<title>Node14</title>
<g id="a_node5"><a xlink:title=" ">
<polygon fill="white" stroke="#bfbfbf" points="148,-0.5 148,-19.5 199,-19.5 199,-0.5 148,-0.5"/>
<text text-anchor="middle" x="173.5" y="-7.5" font-family="Helvetica,sans-Serif" font-size="10.00">variant</text>
</a>
</g>
</g>
<!-- Node2&#45;&gt;Node14 -->
<g id="edge8" class="edge">
<title>Node2&#45;&gt;Node14</title>
<path fill="none" stroke="midnightblue" d="M218.85,-123.48C209.59,-100.51 191.19,-54.89 180.91,-29.37"/>
<polygon fill="midnightblue" stroke="midnightblue" points="184.03,-27.75 177.04,-19.79 177.54,-30.37 184.03,-27.75"/>
</g>
<!-- Node34 -->
<g id="node6" class="node">
<title>Node34</title>
<g id="a_node6"><a xlink:title=" ">
<polygon fill="white" stroke="#bfbfbf" points="226,-62 226,-81 279,-81 279,-62 226,-62"/>
<text text-anchor="middle" x="252.5" y="-69" font-family="Helvetica,sans-Serif" font-size="10.00">cstddef</text>
</a>
</g>
</g>
<!-- Node2&#45;&gt;Node34 -->
<g id="edge6" class="edge">
<title>Node2&#45;&gt;Node34</title>
<path fill="none" stroke="midnightblue" d="M230.58,-123.4C234.73,-113.76 240.26,-100.91 244.73,-90.54"/>
<polygon fill="midnightblue" stroke="midnightblue" points="248.01,-91.76 248.75,-81.19 241.58,-88.99 248.01,-91.76"/>
</g>
<!-- Node35 -->
<g id="node7" class="node">
<title>Node35</title>
<g id="a_node7"><a xlink:title=" ">
<polygon fill="white" stroke="#bfbfbf" points="297,-62 297,-81 370,-81 370,-62 297,-62"/>
<text text-anchor="middle" x="333.5" y="-69" font-family="Helvetica,sans-Serif" font-size="10.00">string_view</text>
</a>
</g>
</g>
<!-- Node2&#45;&gt;Node35 -->
<g id="edge7" class="edge">
<title>Node2&#45;&gt;Node35</title>
<path fill="none" stroke="midnightblue" d="M248.15,-123.4C266.68,-112.34 292.31,-97.06 310.64,-86.13"/>
<polygon fill="midnightblue" stroke="midnightblue" points="312.44,-89.13 319.23,-81.01 308.85,-83.12 312.44,-89.13"/>
</g>
<!-- Node11 -->
<g id="node8" class="node">
<title>Node11</title>
<g id="a_node8"><a xlink:title=" ">
<polygon fill="white" stroke="#bfbfbf" points="388,-62 388,-81 435,-81 435,-62 388,-62"/>
<text text-anchor="middle" x="411.5" y="-69" font-family="Helvetica,sans-Serif" font-size="10.00">vector</text>
</a>
</g>
</g>
<!-- Node2&#45;&gt;Node11 -->
<g id="edge9" class="edge">
<title>Node2&#45;&gt;Node11</title>
<path fill="none" stroke="midnightblue" d="M272.12,-123.48C303.03,-114.01 344.01,-100.77 379.5,-87 380.92,-86.45 382.37,-85.87 383.83,-85.26"/>
<polygon fill="midnightblue" stroke="midnightblue" points="385.59,-88.32 393.37,-81.13 382.8,-81.89 385.59,-88.32"/>
</g>
<!-- Node3&#45;&gt;Node17 -->
<g id="edge3" class="edge">
<title>Node3&#45;&gt;Node17</title>
<path fill="none" stroke="midnightblue" d="M90.89,-56.4C83.77,-47.75 74.62,-36.64 67.15,-27.58"/>
<polygon fill="midnightblue" stroke="midnightblue" points="69.69,-25.15 60.63,-19.66 64.29,-29.6 69.69,-25.15"/>
</g>
<!-- Node3&#45;&gt;Node14 -->
<g id="edge4" class="edge">
<title>Node3&#45;&gt;Node14</title>
<path fill="none" stroke="midnightblue" d="M119.33,-56.4C130.17,-47.31 144.28,-35.49 155.37,-26.19"/>
<polygon fill="midnightblue" stroke="midnightblue" points="157.75,-28.76 163.17,-19.66 153.26,-23.4 157.75,-28.76"/>
</g>
</g>
</svg>
