<?xml version="1.0" encoding="UTF-8" standalone="no"?>
<!DOCTYPE svg PUBLIC "-//W3C//DTD SVG 1.1//EN"
 "http://www.w3.org/Graphics/SVG/1.1/DTD/svg11.dtd">
<!-- Generated by graphviz version 2.43.0 (0)
 -->
<!-- Title: include/emlabcpp/experimental/cfg/handler.h Pages: 1 -->
<svg width="1010pt" height="319pt"
 viewBox="0.00 0.00 1009.50 319.00" xmlns="http://www.w3.org/2000/svg" xmlns:xlink="http://www.w3.org/1999/xlink">
<g id="graph0" class="graph" transform="scale(1 1) rotate(0) translate(4 315)">
<title>include/emlabcpp/experimental/cfg/handler.h</title>
<polygon fill="white" stroke="transparent" points="-4,4 -4,-315 1005.5,-315 1005.5,4 -4,4"/>
<!-- Node1 -->
<g id="node1" class="node">
<title>Node1</title>
<g id="a_node1"><a xlink:title=" ">
<polygon fill="#bfbfbf" stroke="black" points="713,-280.5 713,-310.5 884,-310.5 884,-280.5 713,-280.5"/>
<text text-anchor="start" x="721" y="-298.5" font-family="Helvetica,sans-Serif" font-size="10.00">include/emlabcpp/experimental</text>
<text text-anchor="middle" x="798.5" y="-287.5" font-family="Helvetica,sans-Serif" font-size="10.00">/cfg/handler.h</text>
</a>
</g>
</g>
<!-- Node2 -->
<g id="node2" class="node">
<title>Node2</title>
<g id="a_node2"><a xlink:href="algorithm_8h.html" target="_top" xlink:title=" ">
<polygon fill="white" stroke="black" points="258,-168.5 258,-187.5 349,-187.5 349,-168.5 258,-168.5"/>
<text text-anchor="middle" x="303.5" y="-175.5" font-family="Helvetica,sans-Serif" font-size="10.00">../../algorithm.h</text>
</a>
</g>
</g>
<!-- Node1&#45;&gt;Node2 -->
<g id="edge1" class="edge">
<title>Node1&#45;&gt;Node2</title>
<path fill="none" stroke="midnightblue" d="M712.68,-288.92C640.73,-282.64 535.87,-269.74 447.5,-244 403.68,-231.24 356,-207.61 327.98,-192.63"/>
<polygon fill="midnightblue" stroke="midnightblue" points="329.38,-189.41 318.92,-187.72 326.05,-195.56 329.38,-189.41"/>
</g>
<!-- Node18 -->
<g id="node7" class="node">
<title>Node18</title>
<g id="a_node7"><a xlink:title=" ">
<polygon fill="white" stroke="#bfbfbf" points="791.5,-56.5 791.5,-75.5 847.5,-75.5 847.5,-56.5 791.5,-56.5"/>
<text text-anchor="middle" x="819.5" y="-63.5" font-family="Helvetica,sans-Serif" font-size="10.00">optional</text>
</a>
</g>
</g>
<!-- Node1&#45;&gt;Node18 -->
<g id="edge39" class="edge">
<title>Node1&#45;&gt;Node18</title>
<path fill="none" stroke="midnightblue" d="M836.86,-280.48C873.54,-264.58 925.93,-234.64 944.5,-188 964.55,-137.65 895.09,-98.44 851.74,-79.49"/>
<polygon fill="midnightblue" stroke="midnightblue" points="852.98,-76.21 842.4,-75.54 850.25,-82.66 852.98,-76.21"/>
</g>
<!-- Node25 -->
<g id="node12" class="node">
<title>Node25</title>
<g id="a_node12"><a xlink:title=" ">
<polygon fill="white" stroke="#bfbfbf" points="571.5,-0.5 571.5,-19.5 611.5,-19.5 611.5,-0.5 571.5,-0.5"/>
<text text-anchor="middle" x="591.5" y="-7.5" font-family="Helvetica,sans-Serif" font-size="10.00">span</text>
</a>
</g>
</g>
<!-- Node1&#45;&gt;Node25 -->
<g id="edge40" class="edge">
<title>Node1&#45;&gt;Node25</title>
<path fill="none" stroke="midnightblue" d="M883.41,-280.44C939.04,-265.82 1001.5,-236.58 1001.5,-179 1001.5,-179 1001.5,-179 1001.5,-121 1001.5,-42.32 716.28,-18.37 621.62,-12.58"/>
<polygon fill="midnightblue" stroke="midnightblue" points="621.74,-9.08 611.55,-11.99 621.33,-16.07 621.74,-9.08"/>
</g>
<!-- Node28 -->
<g id="node15" class="node">
<title>Node28</title>
<g id="a_node15"><a xlink:href="error__code_8h.html" target="_top" xlink:title=" ">
<polygon fill="white" stroke="black" points="675,-224.5 675,-243.5 770,-243.5 770,-224.5 675,-224.5"/>
<text text-anchor="middle" x="722.5" y="-231.5" font-family="Helvetica,sans-Serif" font-size="10.00">../../error_code.h</text>
</a>
</g>
</g>
<!-- Node1&#45;&gt;Node28 -->
<g id="edge18" class="edge">
<title>Node1&#45;&gt;Node28</title>
<path fill="none" stroke="midnightblue" d="M780.49,-280.4C768.76,-271.22 753.48,-259.26 741.56,-249.92"/>
<polygon fill="midnightblue" stroke="midnightblue" points="743.59,-247.07 733.56,-243.66 739.28,-252.58 743.59,-247.07"/>
</g>
<!-- Node8 -->
<g id="node17" class="node">
<title>Node8</title>
<g id="a_node17"><a xlink:title=" ">
<polygon fill="white" stroke="#bfbfbf" points="773.5,-168.5 773.5,-187.5 823.5,-187.5 823.5,-168.5 773.5,-168.5"/>
<text text-anchor="middle" x="798.5" y="-175.5" font-family="Helvetica,sans-Serif" font-size="10.00">cstdint</text>
</a>
</g>
</g>
<!-- Node1&#45;&gt;Node8 -->
<g id="edge38" class="edge">
<title>Node1&#45;&gt;Node8</title>
<path fill="none" stroke="midnightblue" d="M798.5,-280.34C798.5,-259.62 798.5,-221.02 798.5,-197.9"/>
<polygon fill="midnightblue" stroke="midnightblue" points="802,-197.67 798.5,-187.67 795,-197.67 802,-197.67"/>
</g>
<!-- Node29 -->
<g id="node18" class="node">
<title>Node29</title>
<g id="a_node18"><a xlink:href="converter_8h.html" target="_top" xlink:title=" ">
<polygon fill="white" stroke="black" points="456.5,-224.5 456.5,-243.5 588.5,-243.5 588.5,-224.5 456.5,-224.5"/>
<text text-anchor="middle" x="522.5" y="-231.5" font-family="Helvetica,sans-Serif" font-size="10.00">../../protocol/converter.h</text>
</a>
</g>
</g>
<!-- Node1&#45;&gt;Node29 -->
<g id="edge22" class="edge">
<title>Node1&#45;&gt;Node29</title>
<path fill="none" stroke="midnightblue" d="M733.44,-280.47C683.95,-269.81 616.91,-255.35 571.8,-245.63"/>
<polygon fill="midnightblue" stroke="midnightblue" points="572.47,-242.19 561.96,-243.51 571,-249.04 572.47,-242.19"/>
</g>
<!-- Node55 -->
<g id="node23" class="node">
<title>Node55</title>
<g id="a_node23"><a xlink:href="page_8h.html" target="_top" xlink:title=" ">
<polygon fill="white" stroke="black" points="826.5,-224.5 826.5,-243.5 882.5,-243.5 882.5,-224.5 826.5,-224.5"/>
<text text-anchor="middle" x="854.5" y="-231.5" font-family="Helvetica,sans-Serif" font-size="10.00">./page.h</text>
</a>
</g>
</g>
<!-- Node1&#45;&gt;Node55 -->
<g id="edge34" class="edge">
<title>Node1&#45;&gt;Node55</title>
<path fill="none" stroke="midnightblue" d="M811.77,-280.4C820.08,-271.58 830.8,-260.18 839.42,-251.02"/>
<polygon fill="midnightblue" stroke="midnightblue" points="842.05,-253.34 846.35,-243.66 836.95,-248.54 842.05,-253.34"/>
</g>
<!-- Node3 -->
<g id="node3" class="node">
<title>Node3</title>
<g id="a_node3"><a xlink:href="impl_8h.html" target="_top" xlink:title=" ">
<polygon fill="white" stroke="black" points="343.5,-112.5 343.5,-131.5 447.5,-131.5 447.5,-112.5 343.5,-112.5"/>
<text text-anchor="middle" x="395.5" y="-119.5" font-family="Helvetica,sans-Serif" font-size="10.00">./algorithm/impl.h</text>
</a>
</g>
</g>
<!-- Node2&#45;&gt;Node3 -->
<g id="edge2" class="edge">
<title>Node2&#45;&gt;Node3</title>
<path fill="none" stroke="midnightblue" d="M318.28,-168.32C332.77,-159.82 355.07,-146.73 371.99,-136.8"/>
<polygon fill="midnightblue" stroke="midnightblue" points="373.9,-139.74 380.76,-131.65 370.36,-133.7 373.9,-139.74"/>
</g>
<!-- Node4 -->
<g id="node4" class="node">
<title>Node4</title>
<g id="a_node4"><a xlink:href="types_8h.html" target="_top" xlink:title=" ">
<polygon fill="white" stroke="red" points="428.5,-0.5 428.5,-19.5 490.5,-19.5 490.5,-0.5 428.5,-0.5"/>
<text text-anchor="middle" x="459.5" y="-7.5" font-family="Helvetica,sans-Serif" font-size="10.00">../types.h</text>
</a>
</g>
</g>
<!-- Node2&#45;&gt;Node4 -->
<g id="edge13" class="edge">
<title>Node2&#45;&gt;Node4</title>
<path fill="none" stroke="midnightblue" d="M257.75,-176.1C193.95,-173.1 89.78,-160.84 124.5,-112 158.97,-63.51 336.81,-30.1 418.44,-17.07"/>
<polygon fill="midnightblue" stroke="midnightblue" points="419.04,-20.52 428.37,-15.51 417.95,-13.61 419.04,-20.52"/>
</g>
<!-- Node10 -->
<g id="node5" class="node">
<title>Node10</title>
<g id="a_node5"><a xlink:title=" ">
<polygon fill="white" stroke="#bfbfbf" points="295,-56.5 295,-75.5 336,-75.5 336,-56.5 295,-56.5"/>
<text text-anchor="middle" x="315.5" y="-63.5" font-family="Helvetica,sans-Serif" font-size="10.00">tuple</text>
</a>
</g>
</g>
<!-- Node2&#45;&gt;Node10 -->
<g id="edge17" class="edge">
<title>Node2&#45;&gt;Node10</title>
<path fill="none" stroke="midnightblue" d="M278.64,-168.39C251.34,-157.48 213.27,-137.02 228.5,-112 240.7,-91.96 265.01,-80.45 284.84,-74.1"/>
<polygon fill="midnightblue" stroke="midnightblue" points="286.09,-77.38 294.72,-71.23 284.14,-70.66 286.09,-77.38"/>
</g>
<!-- Node17 -->
<g id="node6" class="node">
<title>Node17</title>
<g id="a_node6"><a xlink:href="bounded_8h.html" target="_top" xlink:title=" ">
<polygon fill="white" stroke="red" points="733.5,-112.5 733.5,-131.5 807.5,-131.5 807.5,-112.5 733.5,-112.5"/>
<text text-anchor="middle" x="770.5" y="-119.5" font-family="Helvetica,sans-Serif" font-size="10.00">./bounded.h</text>
</a>
</g>
</g>
<!-- Node2&#45;&gt;Node17 -->
<g id="edge5" class="edge">
<title>Node2&#45;&gt;Node17</title>
<path fill="none" stroke="midnightblue" d="M349.09,-169.35C352.27,-168.87 355.43,-168.42 358.5,-168 393.92,-163.17 622.6,-138.72 723.17,-128.03"/>
<polygon fill="midnightblue" stroke="midnightblue" points="723.77,-131.48 733.35,-126.94 723.03,-124.52 723.77,-131.48"/>
</g>
<!-- Node19 -->
<g id="node9" class="node">
<title>Node19</title>
<g id="a_node9"><a xlink:href="min__max_8h.html" target="_top" xlink:title=" ">
<polygon fill="white" stroke="red" points="0,-112.5 0,-131.5 77,-131.5 77,-112.5 0,-112.5"/>
<text text-anchor="middle" x="38.5" y="-119.5" font-family="Helvetica,sans-Serif" font-size="10.00">./min_max.h</text>
</a>
</g>
</g>
<!-- Node2&#45;&gt;Node19 -->
<g id="edge8" class="edge">
<title>Node2&#45;&gt;Node19</title>
<path fill="none" stroke="midnightblue" d="M261.51,-168.44C214.13,-158.79 137.18,-143.11 87.2,-132.92"/>
<polygon fill="midnightblue" stroke="midnightblue" points="87.77,-129.47 77.28,-130.9 86.38,-136.33 87.77,-129.47"/>
</g>
<!-- Node21 -->
<g id="node10" class="node">
<title>Node21</title>
<g id="a_node10"><a xlink:href="range_8h.html" target="_top" xlink:title=" ">
<polygon fill="white" stroke="red" points="504,-112.5 504,-131.5 563,-131.5 563,-112.5 504,-112.5"/>
<text text-anchor="middle" x="533.5" y="-119.5" font-family="Helvetica,sans-Serif" font-size="10.00">./range.h</text>
</a>
</g>
</g>
<!-- Node2&#45;&gt;Node21 -->
<g id="edge9" class="edge">
<title>Node2&#45;&gt;Node21</title>
<path fill="none" stroke="midnightblue" d="M339.94,-168.44C381.93,-158.59 450.66,-142.45 493.92,-132.29"/>
<polygon fill="midnightblue" stroke="midnightblue" points="494.87,-135.66 503.81,-129.97 493.27,-128.85 494.87,-135.66"/>
</g>
<!-- Node24 -->
<g id="node11" class="node">
<title>Node24</title>
<g id="a_node11"><a xlink:href="view_8h.html" target="_top" xlink:title=" ">
<polygon fill="white" stroke="black" points="477.5,-56.5 477.5,-75.5 531.5,-75.5 531.5,-56.5 477.5,-56.5"/>
<text text-anchor="middle" x="504.5" y="-63.5" font-family="Helvetica,sans-Serif" font-size="10.00">./view.h</text>
</a>
</g>
</g>
<!-- Node2&#45;&gt;Node24 -->
<g id="edge14" class="edge">
<title>Node2&#45;&gt;Node24</title>
<path fill="none" stroke="midnightblue" d="M342.8,-168.45C381.74,-159.46 438.12,-144.85 456.5,-132 473.87,-119.85 487.46,-99.39 495.68,-84.67"/>
<polygon fill="midnightblue" stroke="midnightblue" points="498.91,-86.04 500.49,-75.57 492.72,-82.77 498.91,-86.04"/>
</g>
<!-- Node26 -->
<g id="node13" class="node">
<title>Node26</title>
<g id="a_node13"><a xlink:title=" ">
<polygon fill="white" stroke="#bfbfbf" points="134,-112.5 134,-131.5 181,-131.5 181,-112.5 134,-112.5"/>
<text text-anchor="middle" x="157.5" y="-119.5" font-family="Helvetica,sans-Serif" font-size="10.00">cmath</text>
</a>
</g>
</g>
<!-- Node2&#45;&gt;Node26 -->
<g id="edge15" class="edge">
<title>Node2&#45;&gt;Node26</title>
<path fill="none" stroke="midnightblue" d="M280.37,-168.44C256.02,-159.44 217.49,-145.19 190.08,-135.05"/>
<polygon fill="midnightblue" stroke="midnightblue" points="191.12,-131.7 180.53,-131.52 188.69,-138.27 191.12,-131.7"/>
</g>
<!-- Node27 -->
<g id="node14" class="node">
<title>Node27</title>
<g id="a_node14"><a xlink:title=" ">
<polygon fill="white" stroke="#bfbfbf" points="238,-112.5 238,-131.5 287,-131.5 287,-112.5 238,-112.5"/>
<text text-anchor="middle" x="262.5" y="-119.5" font-family="Helvetica,sans-Serif" font-size="10.00">cstdlib</text>
</a>
</g>
</g>
<!-- Node2&#45;&gt;Node27 -->
<g id="edge16" class="edge">
<title>Node2&#45;&gt;Node27</title>
<path fill="none" stroke="midnightblue" d="M296.73,-168.08C290.94,-160.46 282.44,-149.26 275.36,-139.94"/>
<polygon fill="midnightblue" stroke="midnightblue" points="277.98,-137.6 269.14,-131.75 272.4,-141.83 277.98,-137.6"/>
</g>
<!-- Node3&#45;&gt;Node4 -->
<g id="edge3" class="edge">
<title>Node3&#45;&gt;Node4</title>
<path fill="none" stroke="midnightblue" d="M400.52,-112.37C411.04,-94.3 435.54,-52.18 449.43,-28.31"/>
<polygon fill="midnightblue" stroke="midnightblue" points="452.5,-30 454.5,-19.59 446.45,-26.47 452.5,-30"/>
</g>
<!-- Node3&#45;&gt;Node10 -->
<g id="edge4" class="edge">
<title>Node3&#45;&gt;Node10</title>
<path fill="none" stroke="midnightblue" d="M382.65,-112.32C370.28,-103.98 351.37,-91.21 336.76,-81.35"/>
<polygon fill="midnightblue" stroke="midnightblue" points="338.57,-78.35 328.32,-75.65 334.65,-84.15 338.57,-78.35"/>
</g>
<!-- Node17&#45;&gt;Node18 -->
<g id="edge6" class="edge">
<title>Node17&#45;&gt;Node18</title>
<path fill="none" stroke="midnightblue" d="M778.59,-112.08C785.66,-104.3 796.09,-92.8 804.65,-83.37"/>
<polygon fill="midnightblue" stroke="midnightblue" points="807.43,-85.51 811.56,-75.75 802.25,-80.8 807.43,-85.51"/>
</g>
<!-- Node11 -->
<g id="node8" class="node">
<title>Node11</title>
<g id="a_node8"><a xlink:title=" ">
<polygon fill="white" stroke="#bfbfbf" points="677,-56.5 677,-75.5 746,-75.5 746,-56.5 677,-56.5"/>
<text text-anchor="middle" x="711.5" y="-63.5" font-family="Helvetica,sans-Serif" font-size="10.00">type_traits</text>
</a>
</g>
</g>
<!-- Node17&#45;&gt;Node11 -->
<g id="edge7" class="edge">
<title>Node17&#45;&gt;Node11</title>
<path fill="none" stroke="midnightblue" d="M761.02,-112.32C752.3,-104.34 739.16,-92.31 728.6,-82.65"/>
<polygon fill="midnightblue" stroke="midnightblue" points="730.89,-80 721.15,-75.83 726.17,-85.17 730.89,-80"/>
</g>
<!-- Node21&#45;&gt;Node24 -->
<g id="edge10" class="edge">
<title>Node21&#45;&gt;Node24</title>
<path fill="none" stroke="midnightblue" d="M528.71,-112.08C524.74,-104.69 518.97,-93.95 514.07,-84.81"/>
<polygon fill="midnightblue" stroke="midnightblue" points="517.01,-82.91 509.2,-75.75 510.85,-86.22 517.01,-82.91"/>
</g>
<!-- Node24&#45;&gt;Node4 -->
<g id="edge11" class="edge">
<title>Node24&#45;&gt;Node4</title>
<path fill="none" stroke="midnightblue" d="M497.07,-56.08C490.65,-48.38 481.19,-37.03 473.38,-27.65"/>
<polygon fill="midnightblue" stroke="midnightblue" points="475.88,-25.19 466.79,-19.75 470.51,-29.67 475.88,-25.19"/>
</g>
<!-- Node24&#45;&gt;Node25 -->
<g id="edge12" class="edge">
<title>Node24&#45;&gt;Node25</title>
<path fill="none" stroke="midnightblue" d="M518.48,-56.32C532.05,-47.9 552.88,-34.97 568.82,-25.07"/>
<polygon fill="midnightblue" stroke="midnightblue" points="570.91,-27.9 577.56,-19.65 567.21,-21.95 570.91,-27.9"/>
</g>
<!-- Node28&#45;&gt;Node11 -->
<g id="edge21" class="edge">
<title>Node28&#45;&gt;Node11</title>
<path fill="none" stroke="midnightblue" d="M712.34,-224.19C703.59,-215.87 691.6,-202.54 686.5,-188 679.92,-169.24 695.97,-114.23 705.33,-85.29"/>
<polygon fill="midnightblue" stroke="midnightblue" points="708.72,-86.19 708.53,-75.6 702.07,-84 708.72,-86.19"/>
</g>
<!-- Node13 -->
<g id="node16" class="node">
<title>Node13</title>
<g id="a_node16"><a xlink:title=" ">
<polygon fill="white" stroke="#bfbfbf" points="695.5,-168.5 695.5,-187.5 755.5,-187.5 755.5,-168.5 695.5,-168.5"/>
<text text-anchor="middle" x="725.5" y="-175.5" font-family="Helvetica,sans-Serif" font-size="10.00">concepts</text>
</a>
</g>
</g>
<!-- Node28&#45;&gt;Node13 -->
<g id="edge19" class="edge">
<title>Node28&#45;&gt;Node13</title>
<path fill="none" stroke="midnightblue" d="M723,-224.08C723.39,-217.01 723.95,-206.86 724.45,-197.99"/>
<polygon fill="midnightblue" stroke="midnightblue" points="727.95,-197.93 725.01,-187.75 720.96,-197.54 727.95,-197.93"/>
</g>
<!-- Node28&#45;&gt;Node8 -->
<g id="edge20" class="edge">
<title>Node28&#45;&gt;Node8</title>
<path fill="none" stroke="midnightblue" d="M734.71,-224.32C746.28,-216.11 763.88,-203.6 777.66,-193.81"/>
<polygon fill="midnightblue" stroke="midnightblue" points="779.94,-196.48 786.07,-187.83 775.89,-190.77 779.94,-196.48"/>
</g>
<!-- Node29&#45;&gt;Node2 -->
<g id="edge23" class="edge">
<title>Node29&#45;&gt;Node2</title>
<path fill="none" stroke="midnightblue" d="M487.8,-224.44C449.92,-215.1 389.15,-200.12 347.84,-189.93"/>
<polygon fill="midnightblue" stroke="midnightblue" points="348.59,-186.51 338.04,-187.52 346.91,-193.31 348.59,-186.51"/>
</g>
<!-- Node30 -->
<g id="node19" class="node">
<title>Node30</title>
<g id="a_node19"><a xlink:href="assert_8h.html" target="_top" xlink:title=" ">
<polygon fill="white" stroke="red" points="442,-168.5 442,-187.5 507,-187.5 507,-168.5 442,-168.5"/>
<text text-anchor="middle" x="474.5" y="-175.5" font-family="Helvetica,sans-Serif" font-size="10.00">../assert.h</text>
</a>
</g>
</g>
<!-- Node29&#45;&gt;Node30 -->
<g id="edge24" class="edge">
<title>Node29&#45;&gt;Node30</title>
<path fill="none" stroke="midnightblue" d="M514.57,-224.08C507.65,-216.3 497.43,-204.8 489.05,-195.37"/>
<polygon fill="midnightblue" stroke="midnightblue" points="491.54,-192.9 482.28,-187.75 486.31,-197.55 491.54,-192.9"/>
</g>
<!-- Node32 -->
<g id="node20" class="node">
<title>Node32</title>
<g id="a_node20"><a xlink:href="visit_8h.html" target="_top" xlink:title=" ">
<polygon fill="white" stroke="red" points="367.5,-168.5 367.5,-187.5 423.5,-187.5 423.5,-168.5 367.5,-168.5"/>
<text text-anchor="middle" x="395.5" y="-175.5" font-family="Helvetica,sans-Serif" font-size="10.00">../visit.h</text>
</a>
</g>
</g>
<!-- Node29&#45;&gt;Node32 -->
<g id="edge25" class="edge">
<title>Node29&#45;&gt;Node32</title>
<path fill="none" stroke="midnightblue" d="M502.38,-224.44C481.48,-215.56 448.57,-201.56 424.78,-191.45"/>
<polygon fill="midnightblue" stroke="midnightblue" points="426.1,-188.21 415.53,-187.52 423.36,-194.65 426.1,-188.21"/>
</g>
<!-- Node33 -->
<g id="node21" class="node">
<title>Node33</title>
<g id="a_node21"><a xlink:href="serializer_8h.html" target="_top" xlink:title=" ">
<polygon fill="white" stroke="red" points="525.5,-168.5 525.5,-187.5 601.5,-187.5 601.5,-168.5 525.5,-168.5"/>
<text text-anchor="middle" x="563.5" y="-175.5" font-family="Helvetica,sans-Serif" font-size="10.00">./serializer.h</text>
</a>
</g>
</g>
<!-- Node29&#45;&gt;Node33 -->
<g id="edge28" class="edge">
<title>Node29&#45;&gt;Node33</title>
<path fill="none" stroke="midnightblue" d="M529.27,-224.08C535.06,-216.46 543.56,-205.26 550.64,-195.94"/>
<polygon fill="midnightblue" stroke="midnightblue" points="553.6,-197.83 556.86,-187.75 548.02,-193.6 553.6,-197.83"/>
</g>
<!-- Node43 -->
<g id="node22" class="node">
<title>Node43</title>
<g id="a_node22"><a xlink:href="traits_8h.html" target="_top" xlink:title=" ">
<polygon fill="white" stroke="red" points="620,-112.5 620,-131.5 677,-131.5 677,-112.5 620,-112.5"/>
<text text-anchor="middle" x="648.5" y="-119.5" font-family="Helvetica,sans-Serif" font-size="10.00">./traits.h</text>
</a>
</g>
</g>
<!-- Node29&#45;&gt;Node43 -->
<g id="edge31" class="edge">
<title>Node29&#45;&gt;Node43</title>
<path fill="none" stroke="midnightblue" d="M547.98,-224.44C566.94,-217.09 592.54,-204.97 610.5,-188 624.57,-174.71 635.07,-155.05 641.43,-140.83"/>
<polygon fill="midnightblue" stroke="midnightblue" points="644.66,-142.19 645.32,-131.61 638.21,-139.47 644.66,-142.19"/>
</g>
<!-- Node32&#45;&gt;Node3 -->
<g id="edge26" class="edge">
<title>Node32&#45;&gt;Node3</title>
<path fill="none" stroke="midnightblue" d="M395.5,-168.08C395.5,-161.01 395.5,-150.86 395.5,-141.99"/>
<polygon fill="midnightblue" stroke="midnightblue" points="399,-141.75 395.5,-131.75 392,-141.75 399,-141.75"/>
</g>
<!-- Node32&#45;&gt;Node10 -->
<g id="edge27" class="edge">
<title>Node32&#45;&gt;Node10</title>
<path fill="none" stroke="midnightblue" d="M378.32,-168.41C364.55,-160.68 345.73,-148.07 334.5,-132 324.93,-118.3 320.13,-99.76 317.75,-85.99"/>
<polygon fill="midnightblue" stroke="midnightblue" points="321.17,-85.15 316.27,-75.76 314.24,-86.15 321.17,-85.15"/>
</g>
<!-- Node33&#45;&gt;Node21 -->
<g id="edge29" class="edge">
<title>Node33&#45;&gt;Node21</title>
<path fill="none" stroke="midnightblue" d="M558.55,-168.08C554.4,-160.61 548.35,-149.72 543.23,-140.52"/>
<polygon fill="midnightblue" stroke="midnightblue" points="546.28,-138.79 538.36,-131.75 540.16,-142.19 546.28,-138.79"/>
</g>
<!-- Node33&#45;&gt;Node25 -->
<g id="edge30" class="edge">
<title>Node33&#45;&gt;Node25</title>
<path fill="none" stroke="midnightblue" d="M565.06,-168.38C566.7,-159.32 569.33,-144.67 571.5,-132 577.72,-95.75 584.65,-53.33 588.5,-29.57"/>
<polygon fill="midnightblue" stroke="midnightblue" points="591.99,-29.95 590.13,-19.51 585.08,-28.83 591.99,-29.95"/>
</g>
<!-- Node43&#45;&gt;Node4 -->
<g id="edge32" class="edge">
<title>Node43&#45;&gt;Node4</title>
<path fill="none" stroke="midnightblue" d="M634.61,-112.43C614.14,-99.85 574.6,-75.72 540.5,-56 521.76,-45.16 500.34,-33.28 484.23,-24.45"/>
<polygon fill="midnightblue" stroke="midnightblue" points="485.88,-21.36 475.42,-19.63 482.52,-27.5 485.88,-21.36"/>
</g>
<!-- Node43&#45;&gt;Node18 -->
<g id="edge33" class="edge">
<title>Node43&#45;&gt;Node18</title>
<path fill="none" stroke="midnightblue" d="M675.6,-112.44C704.49,-103.32 750.42,-88.81 782.61,-78.65"/>
<polygon fill="midnightblue" stroke="midnightblue" points="784.05,-81.87 792.53,-75.52 781.94,-75.19 784.05,-81.87"/>
</g>
<!-- Node55&#45;&gt;Node18 -->
<g id="edge37" class="edge">
<title>Node55&#45;&gt;Node18</title>
<path fill="none" stroke="midnightblue" d="M852.62,-224.08C847.11,-197.95 830.93,-121.21 823.42,-85.58"/>
<polygon fill="midnightblue" stroke="midnightblue" points="826.79,-84.63 821.31,-75.57 819.94,-86.08 826.79,-84.63"/>
</g>
<!-- Node55&#45;&gt;Node8 -->
<g id="edge36" class="edge">
<title>Node55&#45;&gt;Node8</title>
<path fill="none" stroke="midnightblue" d="M845.5,-224.32C837.31,-216.42 824.99,-204.55 815.03,-194.94"/>
<polygon fill="midnightblue" stroke="midnightblue" points="817.29,-192.26 807.66,-187.83 812.43,-197.29 817.29,-192.26"/>
</g>
<!-- Node56 -->
<g id="node24" class="node">
<title>Node56</title>
<g id="a_node24"><a xlink:href="experimental_2cfg_2base_8h.html" target="_top" xlink:title=" ">
<polygon fill="white" stroke="black" points="880,-168.5 880,-187.5 935,-187.5 935,-168.5 880,-168.5"/>
<text text-anchor="middle" x="907.5" y="-175.5" font-family="Helvetica,sans-Serif" font-size="10.00">./base.h</text>
</a>
</g>
</g>
<!-- Node55&#45;&gt;Node56 -->
<g id="edge35" class="edge">
<title>Node55&#45;&gt;Node56</title>
<path fill="none" stroke="midnightblue" d="M863.25,-224.08C870.97,-216.22 882.4,-204.57 891.72,-195.08"/>
<polygon fill="midnightblue" stroke="midnightblue" points="894.4,-197.34 898.91,-187.75 889.41,-192.44 894.4,-197.34"/>
</g>
</g>
</svg>
