<?xml version="1.0" encoding="UTF-8" standalone="no"?>
<!DOCTYPE svg PUBLIC "-//W3C//DTD SVG 1.1//EN"
 "http://www.w3.org/Graphics/SVG/1.1/DTD/svg11.dtd">
<!-- Generated by graphviz version 2.43.0 (0)
 -->
<!-- Title: include/emlabcpp/experimental/contiguous_tree/base.h Pages: 1 -->
<svg width="553pt" height="151pt"
 viewBox="0.00 0.00 553.00 151.00" xmlns="http://www.w3.org/2000/svg" xmlns:xlink="http://www.w3.org/1999/xlink">
<g id="graph0" class="graph" transform="scale(1 1) rotate(0) translate(4 147)">
<title>include/emlabcpp/experimental/contiguous_tree/base.h</title>
<polygon fill="white" stroke="transparent" points="-4,4 -4,-147 549,-147 549,4 -4,4"/>
<!-- Node1 -->
<g id="node1" class="node">
<title>Node1</title>
<g id="a_node1"><a xlink:title=" ">
<polygon fill="#bfbfbf" stroke="black" points="350,-112.5 350,-142.5 521,-142.5 521,-112.5 350,-112.5"/>
<text text-anchor="start" x="358" y="-130.5" font-family="Helvetica,sans-Serif" font-size="10.00">include/emlabcpp/experimental</text>
<text text-anchor="middle" x="435.5" y="-119.5" font-family="Helvetica,sans-Serif" font-size="10.00">/contiguous_tree/base.h</text>
</a>
</g>
</g>
<!-- Node2 -->
<g id="node2" class="node">
<title>Node2</title>
<g id="a_node2"><a xlink:href="either_8h.html" target="_top" xlink:title=" ">
<polygon fill="white" stroke="black" points="288.5,-56.5 288.5,-75.5 392.5,-75.5 392.5,-56.5 288.5,-56.5"/>
<text text-anchor="middle" x="340.5" y="-63.5" font-family="Helvetica,sans-Serif" font-size="10.00">emlabcpp/either.h</text>
</a>
</g>
</g>
<!-- Node1&#45;&gt;Node2 -->
<g id="edge1" class="edge">
<title>Node1&#45;&gt;Node2</title>
<path fill="none" stroke="midnightblue" d="M412.99,-112.4C397.9,-102.95 378.11,-90.56 363.03,-81.11"/>
<polygon fill="midnightblue" stroke="midnightblue" points="364.66,-78 354.32,-75.66 360.94,-83.93 364.66,-78"/>
</g>
<!-- Node7 -->
<g id="node9" class="node">
<title>Node7</title>
<g id="a_node9"><a xlink:title=" ">
<polygon fill="white" stroke="#bfbfbf" points="410.5,-56.5 410.5,-75.5 460.5,-75.5 460.5,-56.5 410.5,-56.5"/>
<text text-anchor="middle" x="435.5" y="-63.5" font-family="Helvetica,sans-Serif" font-size="10.00">cstdint</text>
</a>
</g>
</g>
<!-- Node1&#45;&gt;Node7 -->
<g id="edge8" class="edge">
<title>Node1&#45;&gt;Node7</title>
<path fill="none" stroke="midnightblue" d="M435.5,-112.4C435.5,-104.47 435.5,-94.46 435.5,-85.86"/>
<polygon fill="midnightblue" stroke="midnightblue" points="439,-85.66 435.5,-75.66 432,-85.66 439,-85.66"/>
</g>
<!-- Node39 -->
<g id="node10" class="node">
<title>Node39</title>
<g id="a_node10"><a xlink:title=" ">
<polygon fill="white" stroke="#bfbfbf" points="479,-56.5 479,-75.5 544,-75.5 544,-56.5 479,-56.5"/>
<text text-anchor="middle" x="511.5" y="-63.5" font-family="Helvetica,sans-Serif" font-size="10.00">functional</text>
</a>
</g>
</g>
<!-- Node1&#45;&gt;Node39 -->
<g id="edge9" class="edge">
<title>Node1&#45;&gt;Node39</title>
<path fill="none" stroke="midnightblue" d="M453.51,-112.4C465.24,-103.22 480.52,-91.26 492.44,-81.92"/>
<polygon fill="midnightblue" stroke="midnightblue" points="494.72,-84.58 500.44,-75.66 490.41,-79.07 494.72,-84.58"/>
</g>
<!-- Node3 -->
<g id="node3" class="node">
<title>Node3</title>
<g id="a_node3"><a xlink:href="static__vector_8h.html" target="_top" xlink:title=" ">
<polygon fill="white" stroke="red" points="0,-0.5 0,-19.5 139,-19.5 139,-0.5 0,-0.5"/>
<text text-anchor="middle" x="69.5" y="-7.5" font-family="Helvetica,sans-Serif" font-size="10.00">emlabcpp/static_vector.h</text>
</a>
</g>
</g>
<!-- Node2&#45;&gt;Node3 -->
<g id="edge2" class="edge">
<title>Node2&#45;&gt;Node3</title>
<path fill="none" stroke="midnightblue" d="M297.56,-56.44C249.99,-46.96 173.26,-31.67 122.11,-21.48"/>
<polygon fill="midnightblue" stroke="midnightblue" points="122.73,-18.04 112.24,-19.52 121.36,-24.9 122.73,-18.04"/>
</g>
<!-- Node24 -->
<g id="node4" class="node">
<title>Node24</title>
<g id="a_node4"><a xlink:href="types_8h.html" target="_top" xlink:title=" ">
<polygon fill="white" stroke="red" points="157.5,-0.5 157.5,-19.5 261.5,-19.5 261.5,-0.5 157.5,-0.5"/>
<text text-anchor="middle" x="209.5" y="-7.5" font-family="Helvetica,sans-Serif" font-size="10.00">emlabcpp/types.h</text>
</a>
</g>
</g>
<!-- Node2&#45;&gt;Node24 -->
<g id="edge3" class="edge">
<title>Node2&#45;&gt;Node24</title>
<path fill="none" stroke="midnightblue" d="M319.74,-56.44C298.18,-47.56 264.24,-33.56 239.71,-23.45"/>
<polygon fill="midnightblue" stroke="midnightblue" points="240.74,-20.09 230.16,-19.52 238.07,-26.56 240.74,-20.09"/>
</g>
<!-- Node31 -->
<g id="node5" class="node">
<title>Node31</title>
<g id="a_node5"><a xlink:title=" ">
<polygon fill="white" stroke="#bfbfbf" points="279.5,-0.5 279.5,-19.5 335.5,-19.5 335.5,-0.5 279.5,-0.5"/>
<text text-anchor="middle" x="307.5" y="-7.5" font-family="Helvetica,sans-Serif" font-size="10.00">optional</text>
</a>
</g>
</g>
<!-- Node2&#45;&gt;Node31 -->
<g id="edge4" class="edge">
<title>Node2&#45;&gt;Node31</title>
<path fill="none" stroke="midnightblue" d="M335.05,-56.08C330.49,-48.61 323.83,-37.72 318.21,-28.52"/>
<polygon fill="midnightblue" stroke="midnightblue" points="321.05,-26.46 312.85,-19.75 315.08,-30.11 321.05,-26.46"/>
</g>
<!-- Node9 -->
<g id="node6" class="node">
<title>Node9</title>
<g id="a_node6"><a xlink:title=" ">
<polygon fill="white" stroke="#bfbfbf" points="354,-0.5 354,-19.5 395,-19.5 395,-0.5 354,-0.5"/>
<text text-anchor="middle" x="374.5" y="-7.5" font-family="Helvetica,sans-Serif" font-size="10.00">tuple</text>
</a>
</g>
</g>
<!-- Node2&#45;&gt;Node9 -->
<g id="edge5" class="edge">
<title>Node2&#45;&gt;Node9</title>
<path fill="none" stroke="midnightblue" d="M346.11,-56.08C350.87,-48.53 357.82,-37.49 363.65,-28.23"/>
<polygon fill="midnightblue" stroke="midnightblue" points="366.62,-30.08 368.99,-19.75 360.7,-26.35 366.62,-30.08"/>
</g>
<!-- Node10 -->
<g id="node7" class="node">
<title>Node10</title>
<g id="a_node7"><a xlink:title=" ">
<polygon fill="white" stroke="#bfbfbf" points="413,-0.5 413,-19.5 482,-19.5 482,-0.5 413,-0.5"/>
<text text-anchor="middle" x="447.5" y="-7.5" font-family="Helvetica,sans-Serif" font-size="10.00">type_traits</text>
</a>
</g>
</g>
<!-- Node2&#45;&gt;Node10 -->
<g id="edge6" class="edge">
<title>Node2&#45;&gt;Node10</title>
<path fill="none" stroke="midnightblue" d="M357.69,-56.32C374.85,-47.66 401.45,-34.24 421.25,-24.25"/>
<polygon fill="midnightblue" stroke="midnightblue" points="423,-27.28 430.35,-19.65 419.85,-21.04 423,-27.28"/>
</g>
<!-- Node38 -->
<g id="node8" class="node">
<title>Node38</title>
<g id="a_node8"><a xlink:title=" ">
<polygon fill="white" stroke="#bfbfbf" points="500,-0.5 500,-19.5 545,-19.5 545,-0.5 500,-0.5"/>
<text text-anchor="middle" x="522.5" y="-7.5" font-family="Helvetica,sans-Serif" font-size="10.00">utility</text>
</a>
</g>
</g>
<!-- Node2&#45;&gt;Node38 -->
<g id="edge7" class="edge">
<title>Node2&#45;&gt;Node38</title>
<path fill="none" stroke="midnightblue" d="M369.34,-56.44C402.13,-46.71 455.55,-30.86 489.85,-20.69"/>
<polygon fill="midnightblue" stroke="midnightblue" points="491.24,-23.93 499.83,-17.73 489.25,-17.21 491.24,-23.93"/>
</g>
</g>
</svg>
