<?xml version="1.0" encoding="UTF-8" standalone="no"?>
<!DOCTYPE svg PUBLIC "-//W3C//DTD SVG 1.1//EN"
 "http://www.w3.org/Graphics/SVG/1.1/DTD/svg11.dtd">
<!-- Generated by graphviz version 2.43.0 (0)
 -->
<!-- Title: include/emlabcpp/experimental/cfg/handler.h Pages: 1 -->
<svg width="452pt" height="173pt"
 viewBox="0.00 0.00 452.00 173.00" xmlns="http://www.w3.org/2000/svg" xmlns:xlink="http://www.w3.org/1999/xlink">
<g id="graph0" class="graph" transform="scale(1 1) rotate(0) translate(4 169)">
<title>include/emlabcpp/experimental/cfg/handler.h</title>
<polygon fill="white" stroke="transparent" points="-4,4 -4,-169 448,-169 448,4 -4,4"/>
<!-- Node1 -->
<g id="node1" class="node">
<title>Node1</title>
<g id="a_node1"><a xlink:title=" ">
<polygon fill="#bfbfbf" stroke="black" points="56,-134.5 56,-164.5 227,-164.5 227,-134.5 56,-134.5"/>
<text text-anchor="start" x="64" y="-152.5" font-family="Helvetica,sans-Serif" font-size="10.00">include/emlabcpp/experimental</text>
<text text-anchor="middle" x="141.5" y="-141.5" font-family="Helvetica,sans-Serif" font-size="10.00">/cfg/handler.h</text>
</a>
</g>
</g>
<!-- Node2 -->
<g id="node2" class="node">
<title>Node2</title>
<g id="a_node2"><a xlink:href="load_8h.html" target="_top" xlink:title=" ">
<polygon fill="white" stroke="black" points="0,-67.5 0,-97.5 133,-97.5 133,-67.5 0,-67.5"/>
<text text-anchor="start" x="8" y="-85.5" font-family="Helvetica,sans-Serif" font-size="10.00">emlabcpp/experimental</text>
<text text-anchor="middle" x="66.5" y="-74.5" font-family="Helvetica,sans-Serif" font-size="10.00">/cfg/load.h</text>
</a>
</g>
</g>
<!-- Node1&#45;&gt;Node2 -->
<g id="edge1" class="edge">
<title>Node1&#45;&gt;Node2</title>
<path fill="none" stroke="midnightblue" d="M125.23,-134.4C115.1,-125.62 101.9,-114.18 90.58,-104.37"/>
<polygon fill="midnightblue" stroke="midnightblue" points="92.59,-101.48 82.74,-97.58 88.01,-106.77 92.59,-101.48"/>
</g>
<!-- Node64 -->
<g id="node7" class="node">
<title>Node64</title>
<g id="a_node7"><a xlink:href="store_8h.html" target="_top" xlink:title=" ">
<polygon fill="white" stroke="black" points="151,-67.5 151,-97.5 284,-97.5 284,-67.5 151,-67.5"/>
<text text-anchor="start" x="159" y="-85.5" font-family="Helvetica,sans-Serif" font-size="10.00">emlabcpp/experimental</text>
<text text-anchor="middle" x="217.5" y="-74.5" font-family="Helvetica,sans-Serif" font-size="10.00">/cfg/store.h</text>
</a>
</g>
</g>
<!-- Node1&#45;&gt;Node64 -->
<g id="edge6" class="edge">
<title>Node1&#45;&gt;Node64</title>
<path fill="none" stroke="midnightblue" d="M157.99,-134.4C168.35,-125.54 181.88,-113.96 193.43,-104.09"/>
<polygon fill="midnightblue" stroke="midnightblue" points="195.72,-106.74 201.04,-97.58 191.17,-101.42 195.72,-106.74"/>
</g>
<!-- Node3 -->
<g id="node3" class="node">
<title>Node3</title>
<g id="a_node3"><a xlink:href="experimental_2cfg_2base_8h.html" target="_top" xlink:title=" ">
<polygon fill="white" stroke="red" points="128,-0.5 128,-30.5 261,-30.5 261,-0.5 128,-0.5"/>
<text text-anchor="start" x="136" y="-18.5" font-family="Helvetica,sans-Serif" font-size="10.00">emlabcpp/experimental</text>
<text text-anchor="middle" x="194.5" y="-7.5" font-family="Helvetica,sans-Serif" font-size="10.00">/cfg/base.h</text>
</a>
</g>
</g>
<!-- Node2&#45;&gt;Node3 -->
<g id="edge2" class="edge">
<title>Node2&#45;&gt;Node3</title>
<path fill="none" stroke="midnightblue" d="M94.27,-67.4C112.89,-57.94 137.61,-45.39 157.84,-35.12"/>
<polygon fill="midnightblue" stroke="midnightblue" points="159.45,-38.23 166.78,-30.58 156.28,-31.98 159.45,-38.23"/>
</g>
<!-- Node5 -->
<g id="node4" class="node">
<title>Node5</title>
<g id="a_node4"><a xlink:href="converter_8h.html" target="_top" xlink:title=" ">
<polygon fill="white" stroke="red" points="279,-6 279,-25 444,-25 444,-6 279,-6"/>
<text text-anchor="middle" x="361.5" y="-13" font-family="Helvetica,sans-Serif" font-size="10.00">emlabcpp/protocol/converter.h</text>
</a>
</g>
</g>
<!-- Node2&#45;&gt;Node5 -->
<g id="edge3" class="edge">
<title>Node2&#45;&gt;Node5</title>
<path fill="none" stroke="midnightblue" d="M130.15,-67.48C184.98,-55.4 262.95,-38.21 312.89,-27.21"/>
<polygon fill="midnightblue" stroke="midnightblue" points="313.78,-30.6 322.79,-25.03 312.27,-23.76 313.78,-30.6"/>
</g>
<!-- Node32 -->
<g id="node5" class="node">
<title>Node32</title>
<g id="a_node5"><a xlink:title=" ">
<polygon fill="white" stroke="#bfbfbf" points="10.5,-6 10.5,-25 50.5,-25 50.5,-6 10.5,-6"/>
<text text-anchor="middle" x="30.5" y="-13" font-family="Helvetica,sans-Serif" font-size="10.00">span</text>
</a>
</g>
</g>
<!-- Node2&#45;&gt;Node32 -->
<g id="edge4" class="edge">
<title>Node2&#45;&gt;Node32</title>
<path fill="none" stroke="midnightblue" d="M58.69,-67.4C53.3,-57.66 46.09,-44.65 40.31,-34.21"/>
<polygon fill="midnightblue" stroke="midnightblue" points="43.22,-32.25 35.32,-25.19 37.1,-35.64 43.22,-32.25"/>
</g>
<!-- Node13 -->
<g id="node6" class="node">
<title>Node13</title>
<g id="a_node6"><a xlink:title=" ">
<polygon fill="white" stroke="#bfbfbf" points="69,-6 69,-25 110,-25 110,-6 69,-6"/>
<text text-anchor="middle" x="89.5" y="-13" font-family="Helvetica,sans-Serif" font-size="10.00">tuple</text>
</a>
</g>
</g>
<!-- Node2&#45;&gt;Node13 -->
<g id="edge5" class="edge">
<title>Node2&#45;&gt;Node13</title>
<path fill="none" stroke="midnightblue" d="M71.49,-67.4C74.86,-57.86 79.35,-45.18 83,-34.86"/>
<polygon fill="midnightblue" stroke="midnightblue" points="86.39,-35.79 86.42,-25.19 79.79,-33.45 86.39,-35.79"/>
</g>
<!-- Node64&#45;&gt;Node3 -->
<g id="edge7" class="edge">
<title>Node64&#45;&gt;Node3</title>
<path fill="none" stroke="midnightblue" d="M212.51,-67.4C209.71,-59.47 206.13,-49.38 202.91,-40.27"/>
<polygon fill="midnightblue" stroke="midnightblue" points="206.12,-38.84 199.48,-30.58 199.52,-41.17 206.12,-38.84"/>
</g>
<!-- Node64&#45;&gt;Node5 -->
<g id="edge8" class="edge">
<title>Node64&#45;&gt;Node5</title>
<path fill="none" stroke="midnightblue" d="M248.75,-67.4C273.9,-56.04 308.95,-40.22 333.27,-29.24"/>
<polygon fill="midnightblue" stroke="midnightblue" points="334.98,-32.31 342.65,-25.01 332.1,-25.93 334.98,-32.31"/>
</g>
<!-- Node64&#45;&gt;Node32 -->
<g id="edge9" class="edge">
<title>Node64&#45;&gt;Node32</title>
<path fill="none" stroke="midnightblue" d="M167.73,-67.42C136.54,-58.13 95.72,-45.1 60.5,-31 59.12,-30.45 57.72,-29.86 56.31,-29.26"/>
<polygon fill="midnightblue" stroke="midnightblue" points="57.68,-26.03 47.13,-25.05 54.77,-32.4 57.68,-26.03"/>
</g>
<!-- Node64&#45;&gt;Node13 -->
<g id="edge10" class="edge">
<title>Node64&#45;&gt;Node13</title>
<path fill="none" stroke="midnightblue" d="M189.73,-67.4C167.56,-56.14 136.76,-40.5 115.17,-29.54"/>
<polygon fill="midnightblue" stroke="midnightblue" points="116.75,-26.41 106.25,-25.01 113.58,-32.66 116.75,-26.41"/>
</g>
</g>
</svg>
