<?xml version="1.0" encoding="UTF-8" standalone="no"?>
<!DOCTYPE svg PUBLIC "-//W3C//DTD SVG 1.1//EN"
 "http://www.w3.org/Graphics/SVG/1.1/DTD/svg11.dtd">
<!-- Generated by graphviz version 2.43.0 (0)
 -->
<!-- Title: include/emlabcpp/experimental/cfg/handler.h Pages: 1 -->
<svg width="829pt" height="319pt"
 viewBox="0.00 0.00 829.14 319.00" xmlns="http://www.w3.org/2000/svg" xmlns:xlink="http://www.w3.org/1999/xlink">
<g id="graph0" class="graph" transform="scale(1 1) rotate(0) translate(4 315)">
<title>include/emlabcpp/experimental/cfg/handler.h</title>
<polygon fill="white" stroke="transparent" points="-4,4 -4,-315 825.14,-315 825.14,4 -4,4"/>
<!-- Node1 -->
<g id="node1" class="node">
<title>Node1</title>
<g id="a_node1"><a xlink:title=" ">
<polygon fill="#bfbfbf" stroke="black" points="115.5,-280.5 115.5,-310.5 286.5,-310.5 286.5,-280.5 115.5,-280.5"/>
<text text-anchor="start" x="123.5" y="-298.5" font-family="Helvetica,sans-Serif" font-size="10.00">include/emlabcpp/experimental</text>
<text text-anchor="middle" x="201" y="-287.5" font-family="Helvetica,sans-Serif" font-size="10.00">/cfg/handler.h</text>
</a>
</g>
</g>
<!-- Node2 -->
<g id="node2" class="node">
<title>Node2</title>
<g id="a_node2"><a xlink:href="algorithm_8h.html" target="_top" xlink:title=" ">
<polygon fill="white" stroke="black" points="494.5,-168.5 494.5,-187.5 585.5,-187.5 585.5,-168.5 494.5,-168.5"/>
<text text-anchor="middle" x="540" y="-175.5" font-family="Helvetica,sans-Serif" font-size="10.00">../../algorithm.h</text>
</a>
</g>
</g>
<!-- Node1&#45;&gt;Node2 -->
<g id="edge1" class="edge">
<title>Node1&#45;&gt;Node2</title>
<path fill="none" stroke="midnightblue" d="M286.71,-291.55C342.72,-286.6 415.97,-274.23 474,-244 496.18,-232.45 515.76,-210.95 527.72,-195.85"/>
<polygon fill="midnightblue" stroke="midnightblue" points="530.56,-197.9 533.84,-187.82 525,-193.65 530.56,-197.9"/>
</g>
<!-- Node18 -->
<g id="node7" class="node">
<title>Node18</title>
<g id="a_node7"><a xlink:title=" ">
<polygon fill="white" stroke="#bfbfbf" points="123,-56.5 123,-75.5 179,-75.5 179,-56.5 123,-56.5"/>
<text text-anchor="middle" x="151" y="-63.5" font-family="Helvetica,sans-Serif" font-size="10.00">optional</text>
</a>
</g>
</g>
<!-- Node1&#45;&gt;Node18 -->
<g id="edge36" class="edge">
<title>Node1&#45;&gt;Node18</title>
<path fill="none" stroke="midnightblue" d="M224.47,-280.32C236.63,-271.54 250.3,-259.07 257,-244 260.61,-235.88 258.85,-232.69 257,-224 251.32,-197.34 251.79,-186.74 232,-168 199.52,-137.23 163.35,-168.86 138,-132 128.45,-118.11 134.08,-98.84 140.65,-84.89"/>
<polygon fill="midnightblue" stroke="midnightblue" points="143.86,-86.31 145.39,-75.83 137.66,-83.06 143.86,-86.31"/>
</g>
<!-- Node25 -->
<g id="node11" class="node">
<title>Node25</title>
<g id="a_node11"><a xlink:title=" ">
<polygon fill="white" stroke="#bfbfbf" points="18,-0.5 18,-19.5 58,-19.5 58,-0.5 18,-0.5"/>
<text text-anchor="middle" x="38" y="-7.5" font-family="Helvetica,sans-Serif" font-size="10.00">span</text>
</a>
</g>
</g>
<!-- Node1&#45;&gt;Node25 -->
<g id="edge37" class="edge">
<title>Node1&#45;&gt;Node25</title>
<path fill="none" stroke="midnightblue" d="M115.27,-283.12C86.29,-275.8 55.38,-263.77 32,-244 7.41,-223.21 0,-211.2 0,-179 0,-179 0,-179 0,-121 0,-86.81 16.6,-49.76 27.86,-28.57"/>
<polygon fill="midnightblue" stroke="midnightblue" points="30.95,-30.22 32.72,-19.77 24.82,-26.83 30.95,-30.22"/>
</g>
<!-- Node28 -->
<g id="node14" class="node">
<title>Node28</title>
<g id="a_node14"><a xlink:href="error__code_8h.html" target="_top" xlink:title=" ">
<polygon fill="white" stroke="black" points="153.5,-224.5 153.5,-243.5 248.5,-243.5 248.5,-224.5 153.5,-224.5"/>
<text text-anchor="middle" x="201" y="-231.5" font-family="Helvetica,sans-Serif" font-size="10.00">../../error_code.h</text>
</a>
</g>
</g>
<!-- Node1&#45;&gt;Node28 -->
<g id="edge17" class="edge">
<title>Node1&#45;&gt;Node28</title>
<path fill="none" stroke="midnightblue" d="M201,-280.4C201,-272.47 201,-262.46 201,-253.86"/>
<polygon fill="midnightblue" stroke="midnightblue" points="204.5,-253.66 201,-243.66 197.5,-253.66 204.5,-253.66"/>
</g>
<!-- Node8 -->
<g id="node15" class="node">
<title>Node8</title>
<g id="a_node15"><a xlink:title=" ">
<polygon fill="white" stroke="#bfbfbf" points="173,-168.5 173,-187.5 223,-187.5 223,-168.5 173,-168.5"/>
<text text-anchor="middle" x="198" y="-175.5" font-family="Helvetica,sans-Serif" font-size="10.00">cstdint</text>
</a>
</g>
</g>
<!-- Node1&#45;&gt;Node8 -->
<g id="edge35" class="edge">
<title>Node1&#45;&gt;Node8</title>
<path fill="none" stroke="midnightblue" d="M177.12,-280.41C164.75,-271.66 150.84,-259.19 144,-244 135,-224 154.93,-205.18 173.08,-193"/>
<polygon fill="midnightblue" stroke="midnightblue" points="175.1,-195.86 181.7,-187.57 171.38,-189.93 175.1,-195.86"/>
</g>
<!-- Node29 -->
<g id="node16" class="node">
<title>Node29</title>
<g id="a_node16"><a xlink:href="converter_8h.html" target="_top" xlink:title=" ">
<polygon fill="white" stroke="black" points="333,-224.5 333,-243.5 465,-243.5 465,-224.5 333,-224.5"/>
<text text-anchor="middle" x="399" y="-231.5" font-family="Helvetica,sans-Serif" font-size="10.00">../../protocol/converter.h</text>
</a>
</g>
</g>
<!-- Node1&#45;&gt;Node29 -->
<g id="edge19" class="edge">
<title>Node1&#45;&gt;Node29</title>
<path fill="none" stroke="midnightblue" d="M247.67,-280.47C282.13,-270.12 328.46,-256.2 360.74,-246.5"/>
<polygon fill="midnightblue" stroke="midnightblue" points="362.12,-249.74 370.69,-243.51 360.11,-243.03 362.12,-249.74"/>
</g>
<!-- Node55 -->
<g id="node21" class="node">
<title>Node55</title>
<g id="a_node21"><a xlink:href="page_8h.html" target="_top" xlink:title=" ">
<polygon fill="white" stroke="black" points="41,-224.5 41,-243.5 97,-243.5 97,-224.5 41,-224.5"/>
<text text-anchor="middle" x="69" y="-231.5" font-family="Helvetica,sans-Serif" font-size="10.00">./page.h</text>
</a>
</g>
</g>
<!-- Node1&#45;&gt;Node55 -->
<g id="edge31" class="edge">
<title>Node1&#45;&gt;Node55</title>
<path fill="none" stroke="midnightblue" d="M169.72,-280.4C147.77,-270.51 118.66,-257.38 97.38,-247.79"/>
<polygon fill="midnightblue" stroke="midnightblue" points="98.76,-244.58 88.21,-243.66 95.89,-250.96 98.76,-244.58"/>
</g>
<!-- Node3 -->
<g id="node3" class="node">
<title>Node3</title>
<g id="a_node3"><a xlink:href="impl_8h.html" target="_top" xlink:title=" ">
<polygon fill="white" stroke="black" points="696,-112.5 696,-131.5 800,-131.5 800,-112.5 696,-112.5"/>
<text text-anchor="middle" x="748" y="-119.5" font-family="Helvetica,sans-Serif" font-size="10.00">./algorithm/impl.h</text>
</a>
</g>
</g>
<!-- Node2&#45;&gt;Node3 -->
<g id="edge2" class="edge">
<title>Node2&#45;&gt;Node3</title>
<path fill="none" stroke="midnightblue" d="M572.96,-168.44C608.79,-159.14 666.16,-144.25 705.39,-134.06"/>
<polygon fill="midnightblue" stroke="midnightblue" points="706.4,-137.42 715.2,-131.52 704.64,-130.64 706.4,-137.42"/>
</g>
<!-- Node4 -->
<g id="node4" class="node">
<title>Node4</title>
<g id="a_node4"><a xlink:href="types_8h.html" target="_top" xlink:title=" ">
<polygon fill="white" stroke="red" points="544,-0.5 544,-19.5 606,-19.5 606,-0.5 544,-0.5"/>
<text text-anchor="middle" x="575" y="-7.5" font-family="Helvetica,sans-Serif" font-size="10.00">../types.h</text>
</a>
</g>
</g>
<!-- Node2&#45;&gt;Node4 -->
<g id="edge12" class="edge">
<title>Node2&#45;&gt;Node4</title>
<path fill="none" stroke="midnightblue" d="M585.75,-176.19C654.89,-173.9 780.93,-165.16 809,-132 867.17,-63.29 697.55,-28.71 616.04,-16.39"/>
<polygon fill="midnightblue" stroke="midnightblue" points="616.5,-12.92 606.09,-14.93 615.48,-19.85 616.5,-12.92"/>
</g>
<!-- Node10 -->
<g id="node5" class="node">
<title>Node10</title>
<g id="a_node5"><a xlink:title=" ">
<polygon fill="white" stroke="#bfbfbf" points="678.5,-56.5 678.5,-75.5 719.5,-75.5 719.5,-56.5 678.5,-56.5"/>
<text text-anchor="middle" x="699" y="-63.5" font-family="Helvetica,sans-Serif" font-size="10.00">tuple</text>
</a>
</g>
</g>
<!-- Node2&#45;&gt;Node10 -->
<g id="edge16" class="edge">
<title>Node2&#45;&gt;Node10</title>
<path fill="none" stroke="midnightblue" d="M572.84,-168.39C595.78,-161.25 626.24,-149.42 649,-132 665.9,-119.06 680.11,-99.07 689.01,-84.67"/>
<polygon fill="midnightblue" stroke="midnightblue" points="692.21,-86.14 694.3,-75.75 686.19,-82.58 692.21,-86.14"/>
</g>
<!-- Node17 -->
<g id="node6" class="node">
<title>Node17</title>
<g id="a_node6"><a xlink:href="bounded_8h.html" target="_top" xlink:title=" ">
<polygon fill="white" stroke="red" points="147,-112.5 147,-131.5 221,-131.5 221,-112.5 147,-112.5"/>
<text text-anchor="middle" x="184" y="-119.5" font-family="Helvetica,sans-Serif" font-size="10.00">./bounded.h</text>
</a>
</g>
</g>
<!-- Node2&#45;&gt;Node17 -->
<g id="edge5" class="edge">
<title>Node2&#45;&gt;Node17</title>
<path fill="none" stroke="midnightblue" d="M494.35,-169.31C491.52,-168.86 488.72,-168.42 486,-168 375.65,-151.05 345.03,-151.02 231.29,-132.14"/>
<polygon fill="midnightblue" stroke="midnightblue" points="231.57,-128.64 221.13,-130.44 230.41,-135.54 231.57,-128.64"/>
</g>
<!-- Node19 -->
<g id="node8" class="node">
<title>Node19</title>
<g id="a_node8"><a xlink:href="min__max_8h.html" target="_top" xlink:title=" ">
<polygon fill="white" stroke="red" points="430.5,-112.5 430.5,-131.5 507.5,-131.5 507.5,-112.5 430.5,-112.5"/>
<text text-anchor="middle" x="469" y="-119.5" font-family="Helvetica,sans-Serif" font-size="10.00">./min_max.h</text>
</a>
</g>
</g>
<!-- Node2&#45;&gt;Node19 -->
<g id="edge7" class="edge">
<title>Node2&#45;&gt;Node19</title>
<path fill="none" stroke="midnightblue" d="M528.59,-168.32C517.89,-160.18 501.66,-147.84 488.84,-138.09"/>
<polygon fill="midnightblue" stroke="midnightblue" points="490.69,-135.1 480.61,-131.83 486.46,-140.67 490.69,-135.1"/>
</g>
<!-- Node21 -->
<g id="node9" class="node">
<title>Node21</title>
<g id="a_node9"><a xlink:href="range_8h.html" target="_top" xlink:title=" ">
<polygon fill="white" stroke="red" points="314.5,-112.5 314.5,-131.5 373.5,-131.5 373.5,-112.5 314.5,-112.5"/>
<text text-anchor="middle" x="344" y="-119.5" font-family="Helvetica,sans-Serif" font-size="10.00">./range.h</text>
</a>
</g>
</g>
<!-- Node2&#45;&gt;Node21 -->
<g id="edge8" class="edge">
<title>Node2&#45;&gt;Node21</title>
<path fill="none" stroke="midnightblue" d="M508.94,-168.44C475,-159.09 420.54,-144.09 383.56,-133.9"/>
<polygon fill="midnightblue" stroke="midnightblue" points="384.2,-130.44 373.63,-131.16 382.34,-137.19 384.2,-130.44"/>
</g>
<!-- Node24 -->
<g id="node10" class="node">
<title>Node24</title>
<g id="a_node10"><a xlink:href="view_8h.html" target="_top" xlink:title=" ">
<polygon fill="white" stroke="black" points="346,-56.5 346,-75.5 400,-75.5 400,-56.5 346,-56.5"/>
<text text-anchor="middle" x="373" y="-63.5" font-family="Helvetica,sans-Serif" font-size="10.00">./view.h</text>
</a>
</g>
</g>
<!-- Node2&#45;&gt;Node24 -->
<g id="edge13" class="edge">
<title>Node2&#45;&gt;Node24</title>
<path fill="none" stroke="midnightblue" d="M502.51,-168.49C477.88,-161.58 445.92,-149.98 422,-132 405.11,-119.31 391.24,-99.27 382.62,-84.8"/>
<polygon fill="midnightblue" stroke="midnightblue" points="385.5,-82.79 377.52,-75.82 379.42,-86.25 385.5,-82.79"/>
</g>
<!-- Node26 -->
<g id="node12" class="node">
<title>Node26</title>
<g id="a_node12"><a xlink:title=" ">
<polygon fill="white" stroke="#bfbfbf" points="525.5,-112.5 525.5,-131.5 572.5,-131.5 572.5,-112.5 525.5,-112.5"/>
<text text-anchor="middle" x="549" y="-119.5" font-family="Helvetica,sans-Serif" font-size="10.00">cmath</text>
</a>
</g>
</g>
<!-- Node2&#45;&gt;Node26 -->
<g id="edge14" class="edge">
<title>Node2&#45;&gt;Node26</title>
<path fill="none" stroke="midnightblue" d="M541.49,-168.08C542.68,-160.93 544.39,-150.64 545.88,-141.69"/>
<polygon fill="midnightblue" stroke="midnightblue" points="549.35,-142.19 547.54,-131.75 542.45,-141.04 549.35,-142.19"/>
</g>
<!-- Node27 -->
<g id="node13" class="node">
<title>Node27</title>
<g id="a_node13"><a xlink:title=" ">
<polygon fill="white" stroke="#bfbfbf" points="590.5,-112.5 590.5,-131.5 639.5,-131.5 639.5,-112.5 590.5,-112.5"/>
<text text-anchor="middle" x="615" y="-119.5" font-family="Helvetica,sans-Serif" font-size="10.00">cstdlib</text>
</a>
</g>
</g>
<!-- Node2&#45;&gt;Node27 -->
<g id="edge15" class="edge">
<title>Node2&#45;&gt;Node27</title>
<path fill="none" stroke="midnightblue" d="M552.05,-168.32C563.46,-160.11 580.83,-147.6 594.43,-137.81"/>
<polygon fill="midnightblue" stroke="midnightblue" points="596.66,-140.52 602.73,-131.83 592.57,-134.84 596.66,-140.52"/>
</g>
<!-- Node3&#45;&gt;Node4 -->
<g id="edge3" class="edge">
<title>Node3&#45;&gt;Node4</title>
<path fill="none" stroke="midnightblue" d="M747.97,-112.1C747.42,-98.18 744.3,-71.3 729,-56 699.28,-26.28 651.09,-15.96 616.53,-12.5"/>
<polygon fill="midnightblue" stroke="midnightblue" points="616.54,-8.99 606.28,-11.63 615.95,-15.96 616.54,-8.99"/>
</g>
<!-- Node3&#45;&gt;Node10 -->
<g id="edge4" class="edge">
<title>Node3&#45;&gt;Node10</title>
<path fill="none" stroke="midnightblue" d="M739.91,-112.08C732.84,-104.3 722.41,-92.8 713.85,-83.37"/>
<polygon fill="midnightblue" stroke="midnightblue" points="716.25,-80.8 706.94,-75.75 711.07,-85.51 716.25,-80.8"/>
</g>
<!-- Node17&#45;&gt;Node18 -->
<g id="edge6" class="edge">
<title>Node17&#45;&gt;Node18</title>
<path fill="none" stroke="midnightblue" d="M178.55,-112.08C173.99,-104.61 167.33,-93.72 161.71,-84.52"/>
<polygon fill="midnightblue" stroke="midnightblue" points="164.55,-82.46 156.35,-75.75 158.58,-86.11 164.55,-82.46"/>
</g>
<!-- Node21&#45;&gt;Node24 -->
<g id="edge9" class="edge">
<title>Node21&#45;&gt;Node24</title>
<path fill="none" stroke="midnightblue" d="M348.79,-112.08C352.76,-104.69 358.53,-93.95 363.43,-84.81"/>
<polygon fill="midnightblue" stroke="midnightblue" points="366.65,-86.22 368.3,-75.75 360.49,-82.91 366.65,-86.22"/>
</g>
<!-- Node24&#45;&gt;Node4 -->
<g id="edge10" class="edge">
<title>Node24&#45;&gt;Node4</title>
<path fill="none" stroke="midnightblue" d="M400.24,-57.72C434.69,-48.51 494.31,-32.57 534.2,-21.91"/>
<polygon fill="midnightblue" stroke="midnightblue" points="535.14,-25.28 543.89,-19.32 533.33,-18.52 535.14,-25.28"/>
</g>
<!-- Node24&#45;&gt;Node25 -->
<g id="edge11" class="edge">
<title>Node24&#45;&gt;Node25</title>
<path fill="none" stroke="midnightblue" d="M345.87,-60.63C284.05,-50.66 133.06,-26.32 68.31,-15.89"/>
<polygon fill="midnightblue" stroke="midnightblue" points="68.75,-12.41 58.32,-14.28 67.64,-19.32 68.75,-12.41"/>
</g>
<!-- Node28&#45;&gt;Node8 -->
<g id="edge18" class="edge">
<title>Node28&#45;&gt;Node8</title>
<path fill="none" stroke="midnightblue" d="M200.5,-224.08C200.11,-217.01 199.55,-206.86 199.05,-197.99"/>
<polygon fill="midnightblue" stroke="midnightblue" points="202.54,-197.54 198.49,-187.75 195.55,-197.93 202.54,-197.54"/>
</g>
<!-- Node29&#45;&gt;Node2 -->
<g id="edge20" class="edge">
<title>Node29&#45;&gt;Node2</title>
<path fill="none" stroke="midnightblue" d="M421.34,-224.44C444.75,-215.48 481.74,-201.31 508.19,-191.18"/>
<polygon fill="midnightblue" stroke="midnightblue" points="509.68,-194.36 517.76,-187.52 507.17,-187.82 509.68,-194.36"/>
</g>
<!-- Node30 -->
<g id="node17" class="node">
<title>Node30</title>
<g id="a_node17"><a xlink:href="assert_8h.html" target="_top" xlink:title=" ">
<polygon fill="white" stroke="red" points="411.5,-168.5 411.5,-187.5 476.5,-187.5 476.5,-168.5 411.5,-168.5"/>
<text text-anchor="middle" x="444" y="-175.5" font-family="Helvetica,sans-Serif" font-size="10.00">../assert.h</text>
</a>
</g>
</g>
<!-- Node29&#45;&gt;Node30 -->
<g id="edge21" class="edge">
<title>Node29&#45;&gt;Node30</title>
<path fill="none" stroke="midnightblue" d="M406.43,-224.08C412.85,-216.38 422.31,-205.03 430.12,-195.65"/>
<polygon fill="midnightblue" stroke="midnightblue" points="432.99,-197.67 436.71,-187.75 427.62,-193.19 432.99,-197.67"/>
</g>
<!-- Node32 -->
<g id="node18" class="node">
<title>Node32</title>
<g id="a_node18"><a xlink:href="visit_8h.html" target="_top" xlink:title=" ">
<polygon fill="white" stroke="red" points="720,-168.5 720,-187.5 776,-187.5 776,-168.5 720,-168.5"/>
<text text-anchor="middle" x="748" y="-175.5" font-family="Helvetica,sans-Serif" font-size="10.00">../visit.h</text>
</a>
</g>
</g>
<!-- Node29&#45;&gt;Node32 -->
<g id="edge22" class="edge">
<title>Node29&#45;&gt;Node32</title>
<path fill="none" stroke="midnightblue" d="M454.3,-224.44C525.52,-213.42 647.5,-194.55 709.45,-184.96"/>
<polygon fill="midnightblue" stroke="midnightblue" points="710.23,-188.39 719.58,-183.4 709.16,-181.47 710.23,-188.39"/>
</g>
<!-- Node33 -->
<g id="node19" class="node">
<title>Node33</title>
<g id="a_node19"><a xlink:href="serializer_8h.html" target="_top" xlink:title=" ">
<polygon fill="white" stroke="red" points="279,-168.5 279,-187.5 355,-187.5 355,-168.5 279,-168.5"/>
<text text-anchor="middle" x="317" y="-175.5" font-family="Helvetica,sans-Serif" font-size="10.00">./serializer.h</text>
</a>
</g>
</g>
<!-- Node29&#45;&gt;Node33 -->
<g id="edge25" class="edge">
<title>Node29&#45;&gt;Node33</title>
<path fill="none" stroke="midnightblue" d="M385.83,-224.32C373.15,-215.98 353.77,-203.21 338.79,-193.35"/>
<polygon fill="midnightblue" stroke="midnightblue" points="340.42,-190.23 330.14,-187.65 336.57,-196.08 340.42,-190.23"/>
</g>
<!-- Node43 -->
<g id="node20" class="node">
<title>Node43</title>
<g id="a_node20"><a xlink:href="traits_8h.html" target="_top" xlink:title=" ">
<polygon fill="white" stroke="red" points="239.5,-112.5 239.5,-131.5 296.5,-131.5 296.5,-112.5 239.5,-112.5"/>
<text text-anchor="middle" x="268" y="-119.5" font-family="Helvetica,sans-Serif" font-size="10.00">./traits.h</text>
</a>
</g>
</g>
<!-- Node29&#45;&gt;Node43 -->
<g id="edge28" class="edge">
<title>Node29&#45;&gt;Node43</title>
<path fill="none" stroke="midnightblue" d="M396.32,-224.31C391.72,-210.69 381.13,-184.21 364,-168 347.83,-152.7 325.52,-141.82 306.47,-134.59"/>
<polygon fill="midnightblue" stroke="midnightblue" points="307.45,-131.22 296.86,-131.14 305.09,-137.81 307.45,-131.22"/>
</g>
<!-- Node32&#45;&gt;Node3 -->
<g id="edge23" class="edge">
<title>Node32&#45;&gt;Node3</title>
<path fill="none" stroke="midnightblue" d="M748,-168.08C748,-161.01 748,-150.86 748,-141.99"/>
<polygon fill="midnightblue" stroke="midnightblue" points="751.5,-141.75 748,-131.75 744.5,-141.75 751.5,-141.75"/>
</g>
<!-- Node32&#45;&gt;Node10 -->
<g id="edge24" class="edge">
<title>Node32&#45;&gt;Node10</title>
<path fill="none" stroke="midnightblue" d="M766.99,-168.35C790.05,-156.6 824.1,-134.49 809,-112 791.51,-85.95 755.99,-74.97 730.03,-70.35"/>
<polygon fill="midnightblue" stroke="midnightblue" points="730.34,-66.85 719.92,-68.78 729.26,-73.77 730.34,-66.85"/>
</g>
<!-- Node33&#45;&gt;Node21 -->
<g id="edge26" class="edge">
<title>Node33&#45;&gt;Node21</title>
<path fill="none" stroke="midnightblue" d="M321.46,-168.08C325.15,-160.69 330.52,-149.95 335.09,-140.81"/>
<polygon fill="midnightblue" stroke="midnightblue" points="338.28,-142.26 339.62,-131.75 332.02,-139.13 338.28,-142.26"/>
</g>
<!-- Node33&#45;&gt;Node25 -->
<g id="edge27" class="edge">
<title>Node33&#45;&gt;Node25</title>
<path fill="none" stroke="midnightblue" d="M278.65,-174.31C240.43,-170.11 181.35,-159.37 138,-132 95.91,-105.42 62.97,-55.17 47.55,-28.56"/>
<polygon fill="midnightblue" stroke="midnightblue" points="50.48,-26.61 42.52,-19.61 44.38,-30.05 50.48,-26.61"/>
</g>
<!-- Node43&#45;&gt;Node4 -->
<g id="edge29" class="edge">
<title>Node43&#45;&gt;Node4</title>
<path fill="none" stroke="midnightblue" d="M274.54,-112.19C285.66,-97.91 309.73,-69.9 337,-56 400.53,-23.63 484.31,-14.4 533.65,-11.86"/>
<polygon fill="midnightblue" stroke="midnightblue" points="534.1,-15.34 543.93,-11.4 533.79,-8.35 534.1,-15.34"/>
</g>
<!-- Node43&#45;&gt;Node18 -->
<g id="edge30" class="edge">
<title>Node43&#45;&gt;Node18</title>
<path fill="none" stroke="midnightblue" d="M249.46,-112.44C230.38,-103.64 200.43,-89.81 178.56,-79.72"/>
<polygon fill="midnightblue" stroke="midnightblue" points="180,-76.53 169.45,-75.52 177.07,-82.88 180,-76.53"/>
</g>
<!-- Node55&#45;&gt;Node18 -->
<g id="edge34" class="edge">
<title>Node55&#45;&gt;Node18</title>
<path fill="none" stroke="midnightblue" d="M70.04,-224.49C72.85,-203.86 82.02,-150.1 105,-112 111.8,-100.72 122.1,-90.29 131.22,-82.31"/>
<polygon fill="midnightblue" stroke="midnightblue" points="133.69,-84.81 139.14,-75.72 129.22,-79.43 133.69,-84.81"/>
</g>
<!-- Node55&#45;&gt;Node8 -->
<g id="edge33" class="edge">
<title>Node55&#45;&gt;Node8</title>
<path fill="none" stroke="midnightblue" d="M89.44,-224.44C110.67,-215.56 144.1,-201.56 168.25,-191.45"/>
<polygon fill="midnightblue" stroke="midnightblue" points="169.78,-194.61 177.66,-187.52 167.08,-188.15 169.78,-194.61"/>
</g>
<!-- Node56 -->
<g id="node22" class="node">
<title>Node56</title>
<g id="a_node22"><a xlink:href="experimental_2cfg_2base_8h.html" target="_top" xlink:title=" ">
<polygon fill="white" stroke="black" points="99.5,-168.5 99.5,-187.5 154.5,-187.5 154.5,-168.5 99.5,-168.5"/>
<text text-anchor="middle" x="127" y="-175.5" font-family="Helvetica,sans-Serif" font-size="10.00">./base.h</text>
</a>
</g>
</g>
<!-- Node55&#45;&gt;Node56 -->
<g id="edge32" class="edge">
<title>Node55&#45;&gt;Node56</title>
<path fill="none" stroke="midnightblue" d="M78.32,-224.32C86.89,-216.34 99.81,-204.31 110.19,-194.65"/>
<polygon fill="midnightblue" stroke="midnightblue" points="112.58,-197.21 117.51,-187.83 107.81,-192.09 112.58,-197.21"/>
</g>
</g>
</svg>
