<?xml version="1.0" encoding="UTF-8" standalone="no"?>
<!DOCTYPE svg PUBLIC "-//W3C//DTD SVG 1.1//EN"
 "http://www.w3.org/Graphics/SVG/1.1/DTD/svg11.dtd">
<!-- Generated by graphviz version 2.43.0 (0)
 -->
<!-- Title: include/emlabcpp/experimental/cfg/handler.h Pages: 1 -->
<svg width="332pt" height="151pt"
 viewBox="0.00 0.00 331.50 151.00" xmlns="http://www.w3.org/2000/svg" xmlns:xlink="http://www.w3.org/1999/xlink">
<g id="graph0" class="graph" transform="scale(1 1) rotate(0) translate(4 147)">
<title>include/emlabcpp/experimental/cfg/handler.h</title>
<polygon fill="white" stroke="transparent" points="-4,4 -4,-147 327.5,-147 327.5,4 -4,4"/>
<!-- Node1 -->
<g id="node1" class="node">
<title>Node1</title>
<g id="a_node1"><a xlink:title=" ">
<polygon fill="#bfbfbf" stroke="black" points="45.5,-112.5 45.5,-142.5 216.5,-142.5 216.5,-112.5 45.5,-112.5"/>
<text text-anchor="start" x="53.5" y="-130.5" font-family="Helvetica,sans-Serif" font-size="10.00">include/emlabcpp/experimental</text>
<text text-anchor="middle" x="131" y="-119.5" font-family="Helvetica,sans-Serif" font-size="10.00">/cfg/handler.h</text>
</a>
</g>
</g>
<!-- Node2 -->
<g id="node2" class="node">
<title>Node2</title>
<g id="a_node2"><a xlink:href="load_8h.html" target="_top" xlink:title=" ">
<polygon fill="white" stroke="black" points="68.5,-56.5 68.5,-75.5 121.5,-75.5 121.5,-56.5 68.5,-56.5"/>
<text text-anchor="middle" x="95" y="-63.5" font-family="Helvetica,sans-Serif" font-size="10.00">./load.h</text>
</a>
</g>
</g>
<!-- Node1&#45;&gt;Node2 -->
<g id="edge1" class="edge">
<title>Node1&#45;&gt;Node2</title>
<path fill="none" stroke="midnightblue" d="M122.47,-112.4C117.4,-104.02 110.93,-93.33 105.54,-84.42"/>
<polygon fill="midnightblue" stroke="midnightblue" points="108.41,-82.4 100.24,-75.66 102.42,-86.03 108.41,-82.4"/>
</g>
<!-- Node56 -->
<g id="node7" class="node">
<title>Node56</title>
<g id="a_node7"><a xlink:href="store_8h.html" target="_top" xlink:title=" ">
<polygon fill="white" stroke="black" points="140,-56.5 140,-75.5 196,-75.5 196,-56.5 140,-56.5"/>
<text text-anchor="middle" x="168" y="-63.5" font-family="Helvetica,sans-Serif" font-size="10.00">./store.h</text>
</a>
</g>
</g>
<!-- Node1&#45;&gt;Node56 -->
<g id="edge6" class="edge">
<title>Node1&#45;&gt;Node56</title>
<path fill="none" stroke="midnightblue" d="M139.77,-112.4C144.98,-104.02 151.63,-93.33 157.17,-84.42"/>
<polygon fill="midnightblue" stroke="midnightblue" points="160.31,-86 162.62,-75.66 154.36,-82.3 160.31,-86"/>
</g>
<!-- Node3 -->
<g id="node3" class="node">
<title>Node3</title>
<g id="a_node3"><a xlink:href="converter_8h.html" target="_top" xlink:title=" ">
<polygon fill="white" stroke="red" points="118,-0.5 118,-19.5 250,-19.5 250,-0.5 118,-0.5"/>
<text text-anchor="middle" x="184" y="-7.5" font-family="Helvetica,sans-Serif" font-size="10.00">../../protocol/converter.h</text>
</a>
</g>
</g>
<!-- Node2&#45;&gt;Node3 -->
<g id="edge2" class="edge">
<title>Node2&#45;&gt;Node3</title>
<path fill="none" stroke="midnightblue" d="M109.3,-56.32C123.18,-47.9 144.49,-34.97 160.8,-25.07"/>
<polygon fill="midnightblue" stroke="midnightblue" points="163,-27.83 169.74,-19.65 159.37,-21.85 163,-27.83"/>
</g>
<!-- Node55 -->
<g id="node4" class="node">
<title>Node55</title>
<g id="a_node4"><a xlink:href="experimental_2cfg_2base_8h.html" target="_top" xlink:title=" ">
<polygon fill="white" stroke="red" points="268.5,-0.5 268.5,-19.5 323.5,-19.5 323.5,-0.5 268.5,-0.5"/>
<text text-anchor="middle" x="296" y="-7.5" font-family="Helvetica,sans-Serif" font-size="10.00">./base.h</text>
</a>
</g>
</g>
<!-- Node2&#45;&gt;Node55 -->
<g id="edge3" class="edge">
<title>Node2&#45;&gt;Node55</title>
<path fill="none" stroke="midnightblue" d="M121.69,-57.83C156.76,-48.41 218.56,-31.81 258.37,-21.11"/>
<polygon fill="midnightblue" stroke="midnightblue" points="259.48,-24.44 268.23,-18.46 257.66,-17.68 259.48,-24.44"/>
</g>
<!-- Node27 -->
<g id="node5" class="node">
<title>Node27</title>
<g id="a_node5"><a xlink:title=" ">
<polygon fill="white" stroke="#bfbfbf" points="0,-0.5 0,-19.5 40,-19.5 40,-0.5 0,-0.5"/>
<text text-anchor="middle" x="20" y="-7.5" font-family="Helvetica,sans-Serif" font-size="10.00">span</text>
</a>
</g>
</g>
<!-- Node2&#45;&gt;Node27 -->
<g id="edge4" class="edge">
<title>Node2&#45;&gt;Node27</title>
<path fill="none" stroke="midnightblue" d="M82.95,-56.32C71.54,-48.11 54.17,-35.6 40.57,-25.81"/>
<polygon fill="midnightblue" stroke="midnightblue" points="42.43,-22.84 32.27,-19.83 38.34,-28.52 42.43,-22.84"/>
</g>
<!-- Node12 -->
<g id="node6" class="node">
<title>Node12</title>
<g id="a_node6"><a xlink:title=" ">
<polygon fill="white" stroke="#bfbfbf" points="58.5,-0.5 58.5,-19.5 99.5,-19.5 99.5,-0.5 58.5,-0.5"/>
<text text-anchor="middle" x="79" y="-7.5" font-family="Helvetica,sans-Serif" font-size="10.00">tuple</text>
</a>
</g>
</g>
<!-- Node2&#45;&gt;Node12 -->
<g id="edge5" class="edge">
<title>Node2&#45;&gt;Node12</title>
<path fill="none" stroke="midnightblue" d="M92.36,-56.08C90.21,-48.85 87.12,-38.41 84.45,-29.4"/>
<polygon fill="midnightblue" stroke="midnightblue" points="87.79,-28.34 81.59,-19.75 81.08,-30.33 87.79,-28.34"/>
</g>
<!-- Node56&#45;&gt;Node3 -->
<g id="edge7" class="edge">
<title>Node56&#45;&gt;Node3</title>
<path fill="none" stroke="midnightblue" d="M170.64,-56.08C172.79,-48.85 175.88,-38.41 178.55,-29.4"/>
<polygon fill="midnightblue" stroke="midnightblue" points="181.92,-30.33 181.41,-19.75 175.21,-28.34 181.92,-30.33"/>
</g>
<!-- Node56&#45;&gt;Node55 -->
<g id="edge8" class="edge">
<title>Node56&#45;&gt;Node55</title>
<path fill="none" stroke="midnightblue" d="M188.28,-56.44C209.35,-47.56 242.52,-33.56 266.49,-23.45"/>
<polygon fill="midnightblue" stroke="midnightblue" points="267.96,-26.63 275.81,-19.52 265.24,-20.18 267.96,-26.63"/>
</g>
<!-- Node56&#45;&gt;Node27 -->
<g id="edge9" class="edge">
<title>Node56&#45;&gt;Node27</title>
<path fill="none" stroke="midnightblue" d="M144.55,-56.44C118.85,-47.07 77.57,-32.01 49.65,-21.82"/>
<polygon fill="midnightblue" stroke="midnightblue" points="50.61,-18.44 40.02,-18.3 48.21,-25.02 50.61,-18.44"/>
</g>
<!-- Node56&#45;&gt;Node12 -->
<g id="edge10" class="edge">
<title>Node56&#45;&gt;Node12</title>
<path fill="none" stroke="midnightblue" d="M153.7,-56.32C139.82,-47.9 118.51,-34.97 102.2,-25.07"/>
<polygon fill="midnightblue" stroke="midnightblue" points="103.63,-21.85 93.26,-19.65 100,-27.83 103.63,-21.85"/>
</g>
</g>
</svg>
