<?xml version="1.0" encoding="UTF-8" standalone="no"?>
<!DOCTYPE svg PUBLIC "-//W3C//DTD SVG 1.1//EN"
 "http://www.w3.org/Graphics/SVG/1.1/DTD/svg11.dtd">
<!-- Generated by graphviz version 2.43.0 (0)
 -->
<!-- Title: include/emlabcpp/experimental/cfg2/handler.h Pages: 1 -->
<svg width="887pt" height="319pt"
 viewBox="0.00 0.00 886.97 319.00" xmlns="http://www.w3.org/2000/svg" xmlns:xlink="http://www.w3.org/1999/xlink">
<g id="graph0" class="graph" transform="scale(1 1) rotate(0) translate(4 315)">
<title>include/emlabcpp/experimental/cfg2/handler.h</title>
<polygon fill="white" stroke="transparent" points="-4,4 -4,-315 882.97,-315 882.97,4 -4,4"/>
<!-- Node1 -->
<g id="node1" class="node">
<title>Node1</title>
<g id="a_node1"><a xlink:title=" ">
<polygon fill="#bfbfbf" stroke="black" points="442.5,-280.5 442.5,-310.5 613.5,-310.5 613.5,-280.5 442.5,-280.5"/>
<text text-anchor="start" x="450.5" y="-298.5" font-family="Helvetica,sans-Serif" font-size="10.00">include/emlabcpp/experimental</text>
<text text-anchor="middle" x="528" y="-287.5" font-family="Helvetica,sans-Serif" font-size="10.00">/cfg2/handler.h</text>
</a>
</g>
</g>
<!-- Node2 -->
<g id="node2" class="node">
<title>Node2</title>
<g id="a_node2"><a xlink:href="algorithm_8h.html" target="_top" xlink:title=" ">
<polygon fill="white" stroke="black" points="414.5,-168.5 414.5,-187.5 505.5,-187.5 505.5,-168.5 414.5,-168.5"/>
<text text-anchor="middle" x="460" y="-175.5" font-family="Helvetica,sans-Serif" font-size="10.00">../../algorithm.h</text>
</a>
</g>
</g>
<!-- Node1&#45;&gt;Node2 -->
<g id="edge1" class="edge">
<title>Node1&#45;&gt;Node2</title>
<path fill="none" stroke="midnightblue" d="M526.54,-280.34C524.49,-265.41 519.72,-241.66 509,-224 501.95,-212.39 491.05,-201.96 481.31,-194.06"/>
<polygon fill="midnightblue" stroke="midnightblue" points="483.24,-191.13 473.18,-187.82 478.98,-196.68 483.24,-191.13"/>
</g>
<!-- Node18 -->
<g id="node7" class="node">
<title>Node18</title>
<g id="a_node7"><a xlink:title=" ">
<polygon fill="white" stroke="#bfbfbf" points="800,-56.5 800,-75.5 856,-75.5 856,-56.5 800,-56.5"/>
<text text-anchor="middle" x="828" y="-63.5" font-family="Helvetica,sans-Serif" font-size="10.00">optional</text>
</a>
</g>
</g>
<!-- Node1&#45;&gt;Node18 -->
<g id="edge39" class="edge">
<title>Node1&#45;&gt;Node18</title>
<path fill="none" stroke="midnightblue" d="M530.55,-280.27C536.19,-253.4 552.4,-195.42 591,-168 694.37,-94.57 790.19,-227.14 874,-132 888.21,-115.86 868.17,-95.34 850.26,-81.72"/>
<polygon fill="midnightblue" stroke="midnightblue" points="851.95,-78.63 841.79,-75.63 847.87,-84.31 851.95,-78.63"/>
</g>
<!-- Node25 -->
<g id="node11" class="node">
<title>Node25</title>
<g id="a_node11"><a xlink:title=" ">
<polygon fill="white" stroke="#bfbfbf" points="88,-0.5 88,-19.5 128,-19.5 128,-0.5 88,-0.5"/>
<text text-anchor="middle" x="108" y="-7.5" font-family="Helvetica,sans-Serif" font-size="10.00">span</text>
</a>
</g>
</g>
<!-- Node1&#45;&gt;Node25 -->
<g id="edge40" class="edge">
<title>Node1&#45;&gt;Node25</title>
<path fill="none" stroke="midnightblue" d="M442.29,-293.25C292.76,-288.72 0,-268.44 0,-179 0,-179 0,-179 0,-121 0,-75.21 48.25,-41.49 80.25,-24.16"/>
<polygon fill="midnightblue" stroke="midnightblue" points="81.93,-27.23 89.19,-19.51 78.7,-21.02 81.93,-27.23"/>
</g>
<!-- Node28 -->
<g id="node14" class="node">
<title>Node28</title>
<g id="a_node14"><a xlink:href="assert_8h.html" target="_top" xlink:title=" ">
<polygon fill="white" stroke="black" points="120,-168.5 120,-187.5 194,-187.5 194,-168.5 120,-168.5"/>
<text text-anchor="middle" x="157" y="-175.5" font-family="Helvetica,sans-Serif" font-size="10.00">../../assert.h</text>
</a>
</g>
</g>
<!-- Node1&#45;&gt;Node28 -->
<g id="edge17" class="edge">
<title>Node1&#45;&gt;Node28</title>
<path fill="none" stroke="midnightblue" d="M442.22,-285.43C390.3,-278.11 323.43,-265.39 267,-244 233.24,-231.2 197.95,-208.4 176.72,-193.5"/>
<polygon fill="midnightblue" stroke="midnightblue" points="178.69,-190.61 168.52,-187.64 174.62,-196.3 178.69,-190.61"/>
</g>
<!-- Node30 -->
<g id="node16" class="node">
<title>Node30</title>
<g id="a_node16"><a xlink:href="match_8h.html" target="_top" xlink:title=" ">
<polygon fill="white" stroke="black" points="426,-224.5 426,-243.5 500,-243.5 500,-224.5 426,-224.5"/>
<text text-anchor="middle" x="463" y="-231.5" font-family="Helvetica,sans-Serif" font-size="10.00">../../match.h</text>
</a>
</g>
</g>
<!-- Node1&#45;&gt;Node30 -->
<g id="edge19" class="edge">
<title>Node1&#45;&gt;Node30</title>
<path fill="none" stroke="midnightblue" d="M512.6,-280.4C502.76,-271.4 490.01,-259.72 479.89,-250.47"/>
<polygon fill="midnightblue" stroke="midnightblue" points="482.2,-247.83 472.46,-243.66 477.47,-252.99 482.2,-247.83"/>
</g>
<!-- Node32 -->
<g id="node18" class="node">
<title>Node32</title>
<g id="a_node18"><a xlink:href="converter_8h.html" target="_top" xlink:title=" ">
<polygon fill="white" stroke="black" points="276,-224.5 276,-243.5 408,-243.5 408,-224.5 276,-224.5"/>
<text text-anchor="middle" x="342" y="-231.5" font-family="Helvetica,sans-Serif" font-size="10.00">../../protocol/converter.h</text>
</a>
</g>
</g>
<!-- Node1&#45;&gt;Node32 -->
<g id="edge23" class="edge">
<title>Node1&#45;&gt;Node32</title>
<path fill="none" stroke="midnightblue" d="M483.92,-280.4C451.78,-270.12 408.74,-256.35 378.52,-246.68"/>
<polygon fill="midnightblue" stroke="midnightblue" points="379.38,-243.28 368.79,-243.57 377.25,-249.95 379.38,-243.28"/>
</g>
<!-- Node55 -->
<g id="node21" class="node">
<title>Node55</title>
<g id="a_node21"><a xlink:href="result_8h.html" target="_top" xlink:title=" ">
<polygon fill="white" stroke="black" points="597.5,-224.5 597.5,-243.5 668.5,-243.5 668.5,-224.5 597.5,-224.5"/>
<text text-anchor="middle" x="633" y="-231.5" font-family="Helvetica,sans-Serif" font-size="10.00">../../result.h</text>
</a>
</g>
</g>
<!-- Node1&#45;&gt;Node55 -->
<g id="edge33" class="edge">
<title>Node1&#45;&gt;Node55</title>
<path fill="none" stroke="midnightblue" d="M552.88,-280.4C569.71,-270.86 591.84,-258.32 608.57,-248.84"/>
<polygon fill="midnightblue" stroke="midnightblue" points="610.75,-251.63 617.72,-243.66 607.3,-245.54 610.75,-251.63"/>
</g>
<!-- Node8 -->
<g id="node23" class="node">
<title>Node8</title>
<g id="a_node23"><a xlink:title=" ">
<polygon fill="white" stroke="#bfbfbf" points="680,-168.5 680,-187.5 730,-187.5 730,-168.5 680,-168.5"/>
<text text-anchor="middle" x="705" y="-175.5" font-family="Helvetica,sans-Serif" font-size="10.00">cstdint</text>
</a>
</g>
</g>
<!-- Node1&#45;&gt;Node8 -->
<g id="edge37" class="edge">
<title>Node1&#45;&gt;Node8</title>
<path fill="none" stroke="midnightblue" d="M609.88,-280.48C634.15,-272.99 659.22,-261.53 678,-244 691.1,-231.78 698.05,-212.23 701.6,-197.76"/>
<polygon fill="midnightblue" stroke="midnightblue" points="705.04,-198.4 703.69,-187.89 698.19,-196.95 705.04,-198.4"/>
</g>
<!-- Node46 -->
<g id="node24" class="node">
<title>Node46</title>
<g id="a_node24"><a xlink:title=" ">
<polygon fill="white" stroke="#bfbfbf" points="725,-224.5 725,-243.5 769,-243.5 769,-224.5 725,-224.5"/>
<text text-anchor="middle" x="747" y="-231.5" font-family="Helvetica,sans-Serif" font-size="10.00">limits</text>
</a>
</g>
</g>
<!-- Node1&#45;&gt;Node46 -->
<g id="edge38" class="edge">
<title>Node1&#45;&gt;Node46</title>
<path fill="none" stroke="midnightblue" d="M579.62,-280.47C621.63,-269.06 679.59,-253.31 715.12,-243.66"/>
<polygon fill="midnightblue" stroke="midnightblue" points="716.21,-246.99 724.95,-240.99 714.38,-240.24 716.21,-246.99"/>
</g>
<!-- Node3 -->
<g id="node3" class="node">
<title>Node3</title>
<g id="a_node3"><a xlink:href="impl_8h.html" target="_top" xlink:title=" ">
<polygon fill="white" stroke="black" points="290,-112.5 290,-131.5 394,-131.5 394,-112.5 290,-112.5"/>
<text text-anchor="middle" x="342" y="-119.5" font-family="Helvetica,sans-Serif" font-size="10.00">./algorithm/impl.h</text>
</a>
</g>
</g>
<!-- Node2&#45;&gt;Node3 -->
<g id="edge2" class="edge">
<title>Node2&#45;&gt;Node3</title>
<path fill="none" stroke="midnightblue" d="M441.3,-168.44C422.06,-159.64 391.85,-145.81 369.8,-135.72"/>
<polygon fill="midnightblue" stroke="midnightblue" points="371.16,-132.5 360.61,-131.52 368.25,-138.86 371.16,-132.5"/>
</g>
<!-- Node4 -->
<g id="node4" class="node">
<title>Node4</title>
<g id="a_node4"><a xlink:href="types_8h.html" target="_top" xlink:title=" ">
<polygon fill="white" stroke="red" points="390,-0.5 390,-19.5 452,-19.5 452,-0.5 390,-0.5"/>
<text text-anchor="middle" x="421" y="-7.5" font-family="Helvetica,sans-Serif" font-size="10.00">../types.h</text>
</a>
</g>
</g>
<!-- Node2&#45;&gt;Node4 -->
<g id="edge12" class="edge">
<title>Node2&#45;&gt;Node4</title>
<path fill="none" stroke="midnightblue" d="M457.9,-168.08C451.76,-141.95 433.74,-65.21 425.36,-29.58"/>
<polygon fill="midnightblue" stroke="midnightblue" points="428.71,-28.5 423.01,-19.57 421.89,-30.1 428.71,-28.5"/>
</g>
<!-- Node10 -->
<g id="node5" class="node">
<title>Node10</title>
<g id="a_node5"><a xlink:title=" ">
<polygon fill="white" stroke="#bfbfbf" points="163.5,-56.5 163.5,-75.5 204.5,-75.5 204.5,-56.5 163.5,-56.5"/>
<text text-anchor="middle" x="184" y="-63.5" font-family="Helvetica,sans-Serif" font-size="10.00">tuple</text>
</a>
</g>
</g>
<!-- Node2&#45;&gt;Node10 -->
<g id="edge16" class="edge">
<title>Node2&#45;&gt;Node10</title>
<path fill="none" stroke="midnightblue" d="M414.42,-171.66C344.84,-163.11 218.55,-145.91 203,-132 190.01,-120.38 185.7,-100.43 184.36,-85.68"/>
<polygon fill="midnightblue" stroke="midnightblue" points="187.85,-85.45 183.83,-75.65 180.86,-85.82 187.85,-85.45"/>
</g>
<!-- Node17 -->
<g id="node6" class="node">
<title>Node17</title>
<g id="a_node6"><a xlink:href="bounded_8h.html" target="_top" xlink:title=" ">
<polygon fill="white" stroke="red" points="791,-112.5 791,-131.5 865,-131.5 865,-112.5 791,-112.5"/>
<text text-anchor="middle" x="828" y="-119.5" font-family="Helvetica,sans-Serif" font-size="10.00">./bounded.h</text>
</a>
</g>
</g>
<!-- Node2&#45;&gt;Node17 -->
<g id="edge5" class="edge">
<title>Node2&#45;&gt;Node17</title>
<path fill="none" stroke="midnightblue" d="M505.71,-171.41C566.29,-163.82 676.71,-149.38 780.82,-132.12"/>
<polygon fill="midnightblue" stroke="midnightblue" points="781.59,-135.54 790.87,-130.44 780.43,-128.64 781.59,-135.54"/>
</g>
<!-- Node19 -->
<g id="node8" class="node">
<title>Node19</title>
<g id="a_node8"><a xlink:href="min__max_8h.html" target="_top" xlink:title=" ">
<polygon fill="white" stroke="red" points="488.5,-112.5 488.5,-131.5 565.5,-131.5 565.5,-112.5 488.5,-112.5"/>
<text text-anchor="middle" x="527" y="-119.5" font-family="Helvetica,sans-Serif" font-size="10.00">./min_max.h</text>
</a>
</g>
</g>
<!-- Node2&#45;&gt;Node19 -->
<g id="edge7" class="edge">
<title>Node2&#45;&gt;Node19</title>
<path fill="none" stroke="midnightblue" d="M470.76,-168.32C480.77,-160.26 495.89,-148.08 507.93,-138.37"/>
<polygon fill="midnightblue" stroke="midnightblue" points="510.45,-140.83 516.04,-131.83 506.06,-135.38 510.45,-140.83"/>
</g>
<!-- Node21 -->
<g id="node9" class="node">
<title>Node21</title>
<g id="a_node9"><a xlink:href="range_8h.html" target="_top" xlink:title=" ">
<polygon fill="white" stroke="red" points="212.5,-112.5 212.5,-131.5 271.5,-131.5 271.5,-112.5 212.5,-112.5"/>
<text text-anchor="middle" x="242" y="-119.5" font-family="Helvetica,sans-Serif" font-size="10.00">./range.h</text>
</a>
</g>
</g>
<!-- Node2&#45;&gt;Node21 -->
<g id="edge8" class="edge">
<title>Node2&#45;&gt;Node21</title>
<path fill="none" stroke="midnightblue" d="M425.46,-168.44C386.39,-158.77 322.87,-143.03 281.77,-132.85"/>
<polygon fill="midnightblue" stroke="midnightblue" points="282.38,-129.4 271.83,-130.39 280.69,-136.19 282.38,-129.4"/>
</g>
<!-- Node24 -->
<g id="node10" class="node">
<title>Node24</title>
<g id="a_node10"><a xlink:href="view_8h.html" target="_top" xlink:title=" ">
<polygon fill="white" stroke="black" points="282,-56.5 282,-75.5 336,-75.5 336,-56.5 282,-56.5"/>
<text text-anchor="middle" x="309" y="-63.5" font-family="Helvetica,sans-Serif" font-size="10.00">./view.h</text>
</a>
</g>
</g>
<!-- Node2&#45;&gt;Node24 -->
<g id="edge13" class="edge">
<title>Node2&#45;&gt;Node24</title>
<path fill="none" stroke="midnightblue" d="M454.23,-168.43C444.83,-154.96 425.01,-128.68 403,-112 384.83,-98.22 361.77,-87.11 343.03,-79.37"/>
<polygon fill="midnightblue" stroke="midnightblue" points="344.27,-76.09 333.68,-75.63 341.67,-82.59 344.27,-76.09"/>
</g>
<!-- Node26 -->
<g id="node12" class="node">
<title>Node26</title>
<g id="a_node12"><a xlink:title=" ">
<polygon fill="white" stroke="#bfbfbf" points="583.5,-112.5 583.5,-131.5 630.5,-131.5 630.5,-112.5 583.5,-112.5"/>
<text text-anchor="middle" x="607" y="-119.5" font-family="Helvetica,sans-Serif" font-size="10.00">cmath</text>
</a>
</g>
</g>
<!-- Node2&#45;&gt;Node26 -->
<g id="edge14" class="edge">
<title>Node2&#45;&gt;Node26</title>
<path fill="none" stroke="midnightblue" d="M483.29,-168.44C507.81,-159.44 546.6,-145.19 574.2,-135.05"/>
<polygon fill="midnightblue" stroke="midnightblue" points="575.64,-138.25 583.82,-131.52 573.22,-131.68 575.64,-138.25"/>
</g>
<!-- Node27 -->
<g id="node13" class="node">
<title>Node27</title>
<g id="a_node13"><a xlink:title=" ">
<polygon fill="white" stroke="#bfbfbf" points="648.5,-112.5 648.5,-131.5 697.5,-131.5 697.5,-112.5 648.5,-112.5"/>
<text text-anchor="middle" x="673" y="-119.5" font-family="Helvetica,sans-Serif" font-size="10.00">cstdlib</text>
</a>
</g>
</g>
<!-- Node2&#45;&gt;Node27 -->
<g id="edge15" class="edge">
<title>Node2&#45;&gt;Node27</title>
<path fill="none" stroke="midnightblue" d="M495.24,-168.43C529.51,-160.03 583.29,-146.73 638.24,-132.42"/>
<polygon fill="midnightblue" stroke="midnightblue" points="639.36,-135.75 648.15,-129.84 637.59,-128.98 639.36,-135.75"/>
</g>
<!-- Node3&#45;&gt;Node4 -->
<g id="edge3" class="edge">
<title>Node3&#45;&gt;Node4</title>
<path fill="none" stroke="midnightblue" d="M348.2,-112.37C361.24,-94.22 391.7,-51.8 408.8,-27.99"/>
<polygon fill="midnightblue" stroke="midnightblue" points="411.84,-29.76 414.83,-19.59 406.15,-25.67 411.84,-29.76"/>
</g>
<!-- Node3&#45;&gt;Node10 -->
<g id="edge4" class="edge">
<title>Node3&#45;&gt;Node10</title>
<path fill="none" stroke="midnightblue" d="M316.96,-112.44C289.13,-102.93 244.19,-87.57 214.37,-77.38"/>
<polygon fill="midnightblue" stroke="midnightblue" points="215.48,-74.06 204.88,-74.14 213.21,-80.68 215.48,-74.06"/>
</g>
<!-- Node17&#45;&gt;Node18 -->
<g id="edge6" class="edge">
<title>Node17&#45;&gt;Node18</title>
<path fill="none" stroke="midnightblue" d="M828,-112.08C828,-105.01 828,-94.86 828,-85.99"/>
<polygon fill="midnightblue" stroke="midnightblue" points="831.5,-85.75 828,-75.75 824.5,-85.75 831.5,-85.75"/>
</g>
<!-- Node21&#45;&gt;Node24 -->
<g id="edge9" class="edge">
<title>Node21&#45;&gt;Node24</title>
<path fill="none" stroke="midnightblue" d="M252.76,-112.32C262.77,-104.26 277.89,-92.08 289.93,-82.37"/>
<polygon fill="midnightblue" stroke="midnightblue" points="292.45,-84.83 298.04,-75.83 288.06,-79.38 292.45,-84.83"/>
</g>
<!-- Node24&#45;&gt;Node4 -->
<g id="edge10" class="edge">
<title>Node24&#45;&gt;Node4</title>
<path fill="none" stroke="midnightblue" d="M326.99,-56.32C345.04,-47.62 373.05,-34.12 393.8,-24.11"/>
<polygon fill="midnightblue" stroke="midnightblue" points="395.56,-27.15 403.05,-19.65 392.52,-20.84 395.56,-27.15"/>
</g>
<!-- Node24&#45;&gt;Node25 -->
<g id="edge11" class="edge">
<title>Node24&#45;&gt;Node25</title>
<path fill="none" stroke="midnightblue" d="M281.89,-57.72C244.32,-47.62 176.64,-29.44 137.72,-18.99"/>
<polygon fill="midnightblue" stroke="midnightblue" points="138.59,-15.59 128.02,-16.38 136.77,-22.35 138.59,-15.59"/>
</g>
<!-- Node29 -->
<g id="node15" class="node">
<title>Node29</title>
<g id="a_node15"><a xlink:title=" ">
<polygon fill="white" stroke="#bfbfbf" points="28,-112.5 28,-131.5 80,-131.5 80,-112.5 28,-112.5"/>
<text text-anchor="middle" x="54" y="-119.5" font-family="Helvetica,sans-Serif" font-size="10.00">cassert</text>
</a>
</g>
</g>
<!-- Node28&#45;&gt;Node29 -->
<g id="edge18" class="edge">
<title>Node28&#45;&gt;Node29</title>
<path fill="none" stroke="midnightblue" d="M140.45,-168.32C124.01,-159.7 98.57,-146.36 79.53,-136.39"/>
<polygon fill="midnightblue" stroke="midnightblue" points="80.99,-133.2 70.51,-131.65 77.74,-139.4 80.99,-133.2"/>
</g>
<!-- Node31 -->
<g id="node17" class="node">
<title>Node31</title>
<g id="a_node17"><a xlink:href="visit_8h.html" target="_top" xlink:title=" ">
<polygon fill="white" stroke="red" points="315.5,-168.5 315.5,-187.5 368.5,-187.5 368.5,-168.5 315.5,-168.5"/>
<text text-anchor="middle" x="342" y="-175.5" font-family="Helvetica,sans-Serif" font-size="10.00">./visit.h</text>
</a>
</g>
</g>
<!-- Node30&#45;&gt;Node31 -->
<g id="edge20" class="edge">
<title>Node30&#45;&gt;Node31</title>
<path fill="none" stroke="midnightblue" d="M443.83,-224.44C424.09,-215.64 393.11,-201.81 370.51,-191.72"/>
<polygon fill="midnightblue" stroke="midnightblue" points="371.64,-188.4 361.08,-187.52 368.79,-194.79 371.64,-188.4"/>
</g>
<!-- Node31&#45;&gt;Node3 -->
<g id="edge21" class="edge">
<title>Node31&#45;&gt;Node3</title>
<path fill="none" stroke="midnightblue" d="M342,-168.08C342,-161.01 342,-150.86 342,-141.99"/>
<polygon fill="midnightblue" stroke="midnightblue" points="345.5,-141.75 342,-131.75 338.5,-141.75 345.5,-141.75"/>
</g>
<!-- Node31&#45;&gt;Node10 -->
<g id="edge22" class="edge">
<title>Node31&#45;&gt;Node10</title>
<path fill="none" stroke="midnightblue" d="M315.24,-170.9C268.03,-160.01 174.5,-137.83 170,-132 159.45,-118.34 166,-98.47 173.27,-84.3"/>
<polygon fill="midnightblue" stroke="midnightblue" points="176.35,-85.97 178.22,-75.54 170.25,-82.53 176.35,-85.97"/>
</g>
<!-- Node32&#45;&gt;Node2 -->
<g id="edge24" class="edge">
<title>Node32&#45;&gt;Node2</title>
<path fill="none" stroke="midnightblue" d="M360.7,-224.44C379.94,-215.64 410.15,-201.81 432.2,-191.72"/>
<polygon fill="midnightblue" stroke="midnightblue" points="433.75,-194.86 441.39,-187.52 430.84,-188.5 433.75,-194.86"/>
</g>
<!-- Node32&#45;&gt;Node28 -->
<g id="edge25" class="edge">
<title>Node32&#45;&gt;Node28</title>
<path fill="none" stroke="midnightblue" d="M312.69,-224.44C281.16,-215.24 230.87,-200.56 196.01,-190.39"/>
<polygon fill="midnightblue" stroke="midnightblue" points="196.76,-186.96 186.18,-187.52 194.8,-193.68 196.76,-186.96"/>
</g>
<!-- Node32&#45;&gt;Node31 -->
<g id="edge26" class="edge">
<title>Node32&#45;&gt;Node31</title>
<path fill="none" stroke="midnightblue" d="M342,-224.08C342,-217.01 342,-206.86 342,-197.99"/>
<polygon fill="midnightblue" stroke="midnightblue" points="345.5,-197.75 342,-187.75 338.5,-197.75 345.5,-197.75"/>
</g>
<!-- Node33 -->
<g id="node19" class="node">
<title>Node33</title>
<g id="a_node19"><a xlink:href="serializer_8h.html" target="_top" xlink:title=" ">
<polygon fill="white" stroke="red" points="212,-168.5 212,-187.5 288,-187.5 288,-168.5 212,-168.5"/>
<text text-anchor="middle" x="250" y="-175.5" font-family="Helvetica,sans-Serif" font-size="10.00">./serializer.h</text>
</a>
</g>
</g>
<!-- Node32&#45;&gt;Node33 -->
<g id="edge27" class="edge">
<title>Node32&#45;&gt;Node33</title>
<path fill="none" stroke="midnightblue" d="M327.22,-224.32C312.73,-215.82 290.43,-202.73 273.51,-192.8"/>
<polygon fill="midnightblue" stroke="midnightblue" points="275.14,-189.7 264.74,-187.65 271.6,-195.74 275.14,-189.7"/>
</g>
<!-- Node43 -->
<g id="node20" class="node">
<title>Node43</title>
<g id="a_node20"><a xlink:href="traits_8h.html" target="_top" xlink:title=" ">
<polygon fill="white" stroke="red" points="715.5,-112.5 715.5,-131.5 772.5,-131.5 772.5,-112.5 715.5,-112.5"/>
<text text-anchor="middle" x="744" y="-119.5" font-family="Helvetica,sans-Serif" font-size="10.00">./traits.h</text>
</a>
</g>
</g>
<!-- Node32&#45;&gt;Node43 -->
<g id="edge30" class="edge">
<title>Node32&#45;&gt;Node43</title>
<path fill="none" stroke="midnightblue" d="M382.55,-224.45C417.79,-216.54 469.93,-203.65 514,-188 534.24,-180.81 537.69,-175 558,-168 619.39,-146.85 638.97,-147.89 705.2,-132.39"/>
<polygon fill="midnightblue" stroke="midnightblue" points="706.4,-135.7 715.32,-129.98 704.78,-128.89 706.4,-135.7"/>
</g>
<!-- Node33&#45;&gt;Node21 -->
<g id="edge28" class="edge">
<title>Node33&#45;&gt;Node21</title>
<path fill="none" stroke="midnightblue" d="M248.68,-168.08C247.62,-160.93 246.09,-150.64 244.77,-141.69"/>
<polygon fill="midnightblue" stroke="midnightblue" points="248.22,-141.13 243.3,-131.75 241.3,-142.16 248.22,-141.13"/>
</g>
<!-- Node33&#45;&gt;Node25 -->
<g id="edge29" class="edge">
<title>Node33&#45;&gt;Node25</title>
<path fill="none" stroke="midnightblue" d="M221.59,-168.35C202.36,-161.25 177.54,-149.48 161,-132 132.99,-102.4 118.33,-55.59 111.98,-29.72"/>
<polygon fill="midnightblue" stroke="midnightblue" points="115.34,-28.71 109.69,-19.74 108.51,-30.27 115.34,-28.71"/>
</g>
<!-- Node43&#45;&gt;Node4 -->
<g id="edge31" class="edge">
<title>Node43&#45;&gt;Node4</title>
<path fill="none" stroke="midnightblue" d="M718.92,-112.46C661.68,-92.97 521.3,-45.16 455.76,-22.84"/>
<polygon fill="midnightblue" stroke="midnightblue" points="456.88,-19.52 446.28,-19.61 454.62,-26.15 456.88,-19.52"/>
</g>
<!-- Node43&#45;&gt;Node18 -->
<g id="edge32" class="edge">
<title>Node43&#45;&gt;Node18</title>
<path fill="none" stroke="midnightblue" d="M757.5,-112.32C770.6,-103.9 790.71,-90.97 806.11,-81.07"/>
<polygon fill="midnightblue" stroke="midnightblue" points="808.02,-84.01 814.54,-75.65 804.23,-78.12 808.02,-84.01"/>
</g>
<!-- Node55&#45;&gt;Node2 -->
<g id="edge34" class="edge">
<title>Node55&#45;&gt;Node2</title>
<path fill="none" stroke="midnightblue" d="M605.59,-224.44C576.23,-215.28 529.48,-200.69 496.9,-190.52"/>
<polygon fill="midnightblue" stroke="midnightblue" points="497.87,-187.16 487.28,-187.52 495.79,-193.84 497.87,-187.16"/>
</g>
<!-- Node56 -->
<g id="node22" class="node">
<title>Node56</title>
<g id="a_node22"><a xlink:href="status_8h.html" target="_top" xlink:title=" ">
<polygon fill="white" stroke="red" points="600,-168.5 600,-187.5 662,-187.5 662,-168.5 600,-168.5"/>
<text text-anchor="middle" x="631" y="-175.5" font-family="Helvetica,sans-Serif" font-size="10.00">./status.h</text>
</a>
</g>
</g>
<!-- Node55&#45;&gt;Node56 -->
<g id="edge35" class="edge">
<title>Node55&#45;&gt;Node56</title>
<path fill="none" stroke="midnightblue" d="M632.67,-224.08C632.41,-217.01 632.03,-206.86 631.7,-197.99"/>
<polygon fill="midnightblue" stroke="midnightblue" points="635.19,-197.61 631.32,-187.75 628.2,-197.87 635.19,-197.61"/>
</g>
<!-- Node55&#45;&gt;Node8 -->
<g id="edge36" class="edge">
<title>Node55&#45;&gt;Node8</title>
<path fill="none" stroke="midnightblue" d="M644.57,-224.32C655.42,-216.18 671.88,-203.84 684.88,-194.09"/>
<polygon fill="midnightblue" stroke="midnightblue" points="687.32,-196.63 693.22,-187.83 683.12,-191.03 687.32,-196.63"/>
</g>
</g>
</svg>
