<?xml version="1.0" encoding="UTF-8" standalone="no"?>
<!DOCTYPE svg PUBLIC "-//W3C//DTD SVG 1.1//EN"
 "http://www.w3.org/Graphics/SVG/1.1/DTD/svg11.dtd">
<!-- Generated by graphviz version 2.43.0 (0)
 -->
<!-- Title: include/emlabcpp/experimental/cfg/handler.h Pages: 1 -->
<svg width="1162pt" height="375pt"
 viewBox="0.00 0.00 1162.00 375.00" xmlns="http://www.w3.org/2000/svg" xmlns:xlink="http://www.w3.org/1999/xlink">
<g id="graph0" class="graph" transform="scale(1 1) rotate(0) translate(4 371)">
<title>include/emlabcpp/experimental/cfg/handler.h</title>
<polygon fill="white" stroke="transparent" points="-4,4 -4,-371 1158,-371 1158,4 -4,4"/>
<!-- Node1 -->
<g id="node1" class="node">
<title>Node1</title>
<g id="a_node1"><a xlink:title=" ">
<polygon fill="#bfbfbf" stroke="black" points="642.5,-336.5 642.5,-366.5 813.5,-366.5 813.5,-336.5 642.5,-336.5"/>
<text text-anchor="start" x="650.5" y="-354.5" font-family="Helvetica,sans-Serif" font-size="10.00">include/emlabcpp/experimental</text>
<text text-anchor="middle" x="728" y="-343.5" font-family="Helvetica,sans-Serif" font-size="10.00">/cfg/handler.h</text>
</a>
</g>
</g>
<!-- Node2 -->
<g id="node2" class="node">
<title>Node2</title>
<g id="a_node2"><a xlink:href="algorithm_8h.html" target="_top" xlink:title=" ">
<polygon fill="white" stroke="black" points="475.5,-168.5 475.5,-187.5 566.5,-187.5 566.5,-168.5 475.5,-168.5"/>
<text text-anchor="middle" x="521" y="-175.5" font-family="Helvetica,sans-Serif" font-size="10.00">../../algorithm.h</text>
</a>
</g>
</g>
<!-- Node1&#45;&gt;Node2 -->
<g id="edge1" class="edge">
<title>Node1&#45;&gt;Node2</title>
<path fill="none" stroke="midnightblue" d="M711.06,-336.47C672.64,-304.63 579.14,-227.17 539.38,-194.23"/>
<polygon fill="midnightblue" stroke="midnightblue" points="541.27,-191.24 531.33,-187.56 536.8,-196.63 541.27,-191.24"/>
</g>
<!-- Node18 -->
<g id="node7" class="node">
<title>Node18</title>
<g id="a_node7"><a xlink:title=" ">
<polygon fill="white" stroke="#bfbfbf" points="833,-56.5 833,-75.5 889,-75.5 889,-56.5 833,-56.5"/>
<text text-anchor="middle" x="861" y="-63.5" font-family="Helvetica,sans-Serif" font-size="10.00">optional</text>
</a>
</g>
</g>
<!-- Node1&#45;&gt;Node18 -->
<g id="edge44" class="edge">
<title>Node1&#45;&gt;Node18</title>
<path fill="none" stroke="midnightblue" d="M733.32,-336.48C746.03,-304.19 780.71,-223.11 828,-168 845.14,-148.03 863.35,-155.59 875,-132 882.33,-117.15 877.05,-98.54 870.99,-85.04"/>
<polygon fill="midnightblue" stroke="midnightblue" points="874,-83.24 866.4,-75.86 867.74,-86.37 874,-83.24"/>
</g>
<!-- Node25 -->
<g id="node11" class="node">
<title>Node25</title>
<g id="a_node11"><a xlink:title=" ">
<polygon fill="white" stroke="#bfbfbf" points="88,-0.5 88,-19.5 128,-19.5 128,-0.5 88,-0.5"/>
<text text-anchor="middle" x="108" y="-7.5" font-family="Helvetica,sans-Serif" font-size="10.00">span</text>
</a>
</g>
</g>
<!-- Node1&#45;&gt;Node25 -->
<g id="edge45" class="edge">
<title>Node1&#45;&gt;Node25</title>
<path fill="none" stroke="midnightblue" d="M642.35,-345.75C449.91,-333.92 0,-299.38 0,-235 0,-235 0,-235 0,-121 0,-75.21 48.25,-41.49 80.25,-24.16"/>
<polygon fill="midnightblue" stroke="midnightblue" points="81.93,-27.23 89.19,-19.51 78.7,-21.02 81.93,-27.23"/>
</g>
<!-- Node28 -->
<g id="node14" class="node">
<title>Node28</title>
<g id="a_node14"><a xlink:href="assert_8h.html" target="_top" xlink:title=" ">
<polygon fill="white" stroke="black" points="120,-168.5 120,-187.5 194,-187.5 194,-168.5 120,-168.5"/>
<text text-anchor="middle" x="157" y="-175.5" font-family="Helvetica,sans-Serif" font-size="10.00">../../assert.h</text>
</a>
</g>
</g>
<!-- Node1&#45;&gt;Node28 -->
<g id="edge17" class="edge">
<title>Node1&#45;&gt;Node28</title>
<path fill="none" stroke="midnightblue" d="M642.36,-340.55C584.92,-332.62 507.99,-319.56 442,-300 342.71,-270.57 231.45,-216.91 182.47,-192.15"/>
<polygon fill="midnightblue" stroke="midnightblue" points="184.03,-189.02 173.53,-187.6 180.86,-195.26 184.03,-189.02"/>
</g>
<!-- Node30 -->
<g id="node16" class="node">
<title>Node30</title>
<g id="a_node16"><a xlink:href="match_8h.html" target="_top" xlink:title=" ">
<polygon fill="white" stroke="black" points="483,-280.5 483,-299.5 557,-299.5 557,-280.5 483,-280.5"/>
<text text-anchor="middle" x="520" y="-287.5" font-family="Helvetica,sans-Serif" font-size="10.00">../../match.h</text>
</a>
</g>
</g>
<!-- Node1&#45;&gt;Node30 -->
<g id="edge19" class="edge">
<title>Node1&#45;&gt;Node30</title>
<path fill="none" stroke="midnightblue" d="M678.97,-336.47C642.62,-326.08 593.69,-312.08 559.75,-302.37"/>
<polygon fill="midnightblue" stroke="midnightblue" points="560.31,-298.89 549.74,-299.51 558.39,-305.62 560.31,-298.89"/>
</g>
<!-- Node32 -->
<g id="node18" class="node">
<title>Node32</title>
<g id="a_node18"><a xlink:href="converter_8h.html" target="_top" xlink:title=" ">
<polygon fill="white" stroke="black" points="339,-224.5 339,-243.5 471,-243.5 471,-224.5 339,-224.5"/>
<text text-anchor="middle" x="405" y="-231.5" font-family="Helvetica,sans-Serif" font-size="10.00">../../protocol/converter.h</text>
</a>
</g>
</g>
<!-- Node1&#45;&gt;Node32 -->
<g id="edge23" class="edge">
<title>Node1&#45;&gt;Node32</title>
<path fill="none" stroke="midnightblue" d="M642.32,-345.37C591.14,-339.48 526.15,-326.88 474,-300 451.25,-288.28 430.69,-266.82 418.04,-251.77"/>
<polygon fill="midnightblue" stroke="midnightblue" points="420.57,-249.34 411.55,-243.78 415.14,-253.75 420.57,-249.34"/>
</g>
<!-- Node55 -->
<g id="node21" class="node">
<title>Node55</title>
<g id="a_node21"><a xlink:href="result_8h.html" target="_top" xlink:title=" ">
<polygon fill="white" stroke="black" points="832.5,-224.5 832.5,-243.5 903.5,-243.5 903.5,-224.5 832.5,-224.5"/>
<text text-anchor="middle" x="868" y="-231.5" font-family="Helvetica,sans-Serif" font-size="10.00">../../result.h</text>
</a>
</g>
</g>
<!-- Node1&#45;&gt;Node55 -->
<g id="edge33" class="edge">
<title>Node1&#45;&gt;Node55</title>
<path fill="none" stroke="midnightblue" d="M760.42,-336.29C778.51,-327.43 800.79,-314.89 818,-300 833.92,-286.23 848.13,-266.68 857.3,-252.62"/>
<polygon fill="midnightblue" stroke="midnightblue" points="860.42,-254.23 862.79,-243.9 854.5,-250.5 860.42,-254.23"/>
</g>
<!-- Node8 -->
<g id="node23" class="node">
<title>Node8</title>
<g id="a_node23"><a xlink:title=" ">
<polygon fill="white" stroke="#bfbfbf" points="1019,-168.5 1019,-187.5 1069,-187.5 1069,-168.5 1019,-168.5"/>
<text text-anchor="middle" x="1044" y="-175.5" font-family="Helvetica,sans-Serif" font-size="10.00">cstdint</text>
</a>
</g>
</g>
<!-- Node1&#45;&gt;Node8 -->
<g id="edge42" class="edge">
<title>Node1&#45;&gt;Node8</title>
<path fill="none" stroke="midnightblue" d="M813.63,-341.76C860.99,-334.69 920,-322.11 969,-300 1006.92,-282.89 1025.36,-281.19 1044,-244 1051.19,-229.66 1050.39,-211.19 1048.26,-197.61"/>
<polygon fill="midnightblue" stroke="midnightblue" points="1051.65,-196.7 1046.31,-187.55 1044.78,-198.04 1051.65,-196.7"/>
</g>
<!-- Node57 -->
<g id="node24" class="node">
<title>Node57</title>
<g id="a_node24"><a xlink:href="page_8h.html" target="_top" xlink:title=" ">
<polygon fill="white" stroke="black" points="904,-280.5 904,-299.5 960,-299.5 960,-280.5 904,-280.5"/>
<text text-anchor="middle" x="932" y="-287.5" font-family="Helvetica,sans-Serif" font-size="10.00">./page.h</text>
</a>
</g>
</g>
<!-- Node1&#45;&gt;Node57 -->
<g id="edge37" class="edge">
<title>Node1&#45;&gt;Node57</title>
<path fill="none" stroke="midnightblue" d="M776.09,-336.47C812.06,-325.98 860.59,-311.83 893.9,-302.11"/>
<polygon fill="midnightblue" stroke="midnightblue" points="895.1,-305.41 903.72,-299.25 893.14,-298.69 895.1,-305.41"/>
</g>
<!-- Node46 -->
<g id="node26" class="node">
<title>Node46</title>
<g id="a_node26"><a xlink:title=" ">
<polygon fill="white" stroke="#bfbfbf" points="1110,-280.5 1110,-299.5 1154,-299.5 1154,-280.5 1110,-280.5"/>
<text text-anchor="middle" x="1132" y="-287.5" font-family="Helvetica,sans-Serif" font-size="10.00">limits</text>
</a>
</g>
</g>
<!-- Node1&#45;&gt;Node46 -->
<g id="edge43" class="edge">
<title>Node1&#45;&gt;Node46</title>
<path fill="none" stroke="midnightblue" d="M813.57,-341.42C888.43,-332.85 999.91,-318.55 1096,-300 1097.28,-299.75 1098.58,-299.49 1099.9,-299.21"/>
<polygon fill="midnightblue" stroke="midnightblue" points="1101.03,-302.54 1110,-296.9 1099.47,-295.72 1101.03,-302.54"/>
</g>
<!-- Node3 -->
<g id="node3" class="node">
<title>Node3</title>
<g id="a_node3"><a xlink:href="impl_8h.html" target="_top" xlink:title=" ">
<polygon fill="white" stroke="black" points="290,-112.5 290,-131.5 394,-131.5 394,-112.5 290,-112.5"/>
<text text-anchor="middle" x="342" y="-119.5" font-family="Helvetica,sans-Serif" font-size="10.00">./algorithm/impl.h</text>
</a>
</g>
</g>
<!-- Node2&#45;&gt;Node3 -->
<g id="edge2" class="edge">
<title>Node2&#45;&gt;Node3</title>
<path fill="none" stroke="midnightblue" d="M492.64,-168.44C462.26,-159.28 413.89,-144.69 380.18,-134.52"/>
<polygon fill="midnightblue" stroke="midnightblue" points="380.82,-131.05 370.23,-131.52 378.79,-137.76 380.82,-131.05"/>
</g>
<!-- Node4 -->
<g id="node4" class="node">
<title>Node4</title>
<g id="a_node4"><a xlink:href="types_8h.html" target="_top" xlink:title=" ">
<polygon fill="white" stroke="red" points="522,-0.5 522,-19.5 584,-19.5 584,-0.5 522,-0.5"/>
<text text-anchor="middle" x="553" y="-7.5" font-family="Helvetica,sans-Serif" font-size="10.00">../types.h</text>
</a>
</g>
</g>
<!-- Node2&#45;&gt;Node4 -->
<g id="edge12" class="edge">
<title>Node2&#45;&gt;Node4</title>
<path fill="none" stroke="midnightblue" d="M556.85,-168.46C598.43,-158.2 662.16,-141.22 669,-132 701.04,-88.76 626.26,-44.85 582.27,-23.8"/>
<polygon fill="midnightblue" stroke="midnightblue" points="583.68,-20.6 573.13,-19.55 580.72,-26.94 583.68,-20.6"/>
</g>
<!-- Node10 -->
<g id="node5" class="node">
<title>Node10</title>
<g id="a_node5"><a xlink:title=" ">
<polygon fill="white" stroke="#bfbfbf" points="163.5,-56.5 163.5,-75.5 204.5,-75.5 204.5,-56.5 163.5,-56.5"/>
<text text-anchor="middle" x="184" y="-63.5" font-family="Helvetica,sans-Serif" font-size="10.00">tuple</text>
</a>
</g>
</g>
<!-- Node2&#45;&gt;Node10 -->
<g id="edge16" class="edge">
<title>Node2&#45;&gt;Node10</title>
<path fill="none" stroke="midnightblue" d="M475.43,-173.28C392.43,-166.11 223.26,-149.54 203,-132 189.82,-120.6 185.54,-100.61 184.26,-85.8"/>
<polygon fill="midnightblue" stroke="midnightblue" points="187.75,-85.53 183.78,-75.71 180.76,-85.87 187.75,-85.53"/>
</g>
<!-- Node17 -->
<g id="node6" class="node">
<title>Node17</title>
<g id="a_node6"><a xlink:href="bounded_8h.html" target="_top" xlink:title=" ">
<polygon fill="white" stroke="red" points="792,-112.5 792,-131.5 866,-131.5 866,-112.5 792,-112.5"/>
<text text-anchor="middle" x="829" y="-119.5" font-family="Helvetica,sans-Serif" font-size="10.00">./bounded.h</text>
</a>
</g>
</g>
<!-- Node2&#45;&gt;Node17 -->
<g id="edge5" class="edge">
<title>Node2&#45;&gt;Node17</title>
<path fill="none" stroke="midnightblue" d="M566.97,-169.44C617.28,-161.08 700.59,-147.03 781.95,-132.16"/>
<polygon fill="midnightblue" stroke="midnightblue" points="782.65,-135.59 791.86,-130.34 781.39,-128.71 782.65,-135.59"/>
</g>
<!-- Node19 -->
<g id="node8" class="node">
<title>Node19</title>
<g id="a_node8"><a xlink:href="min__max_8h.html" target="_top" xlink:title=" ">
<polygon fill="white" stroke="red" points="582.5,-112.5 582.5,-131.5 659.5,-131.5 659.5,-112.5 582.5,-112.5"/>
<text text-anchor="middle" x="621" y="-119.5" font-family="Helvetica,sans-Serif" font-size="10.00">./min_max.h</text>
</a>
</g>
</g>
<!-- Node2&#45;&gt;Node19 -->
<g id="edge7" class="edge">
<title>Node2&#45;&gt;Node19</title>
<path fill="none" stroke="midnightblue" d="M537.07,-168.32C552.96,-159.74 577.51,-146.49 595.96,-136.52"/>
<polygon fill="midnightblue" stroke="midnightblue" points="597.84,-139.49 604.97,-131.65 594.51,-133.33 597.84,-139.49"/>
</g>
<!-- Node21 -->
<g id="node9" class="node">
<title>Node21</title>
<g id="a_node9"><a xlink:href="range_8h.html" target="_top" xlink:title=" ">
<polygon fill="white" stroke="red" points="212.5,-112.5 212.5,-131.5 271.5,-131.5 271.5,-112.5 212.5,-112.5"/>
<text text-anchor="middle" x="242" y="-119.5" font-family="Helvetica,sans-Serif" font-size="10.00">./range.h</text>
</a>
</g>
</g>
<!-- Node2&#45;&gt;Node21 -->
<g id="edge8" class="edge">
<title>Node2&#45;&gt;Node21</title>
<path fill="none" stroke="midnightblue" d="M475.33,-169.02C429.04,-160.8 355.12,-147.32 281.67,-132.07"/>
<polygon fill="midnightblue" stroke="midnightblue" points="282.29,-128.62 271.78,-130.01 280.86,-135.48 282.29,-128.62"/>
</g>
<!-- Node24 -->
<g id="node10" class="node">
<title>Node24</title>
<g id="a_node10"><a xlink:href="view_8h.html" target="_top" xlink:title=" ">
<polygon fill="white" stroke="black" points="318,-56.5 318,-75.5 372,-75.5 372,-56.5 318,-56.5"/>
<text text-anchor="middle" x="345" y="-63.5" font-family="Helvetica,sans-Serif" font-size="10.00">./view.h</text>
</a>
</g>
</g>
<!-- Node2&#45;&gt;Node24 -->
<g id="edge13" class="edge">
<title>Node2&#45;&gt;Node24</title>
<path fill="none" stroke="midnightblue" d="M505.06,-168.37C488.97,-159.54 463.48,-145.29 442,-132 415.21,-115.43 385.21,-95.02 365.76,-81.55"/>
<polygon fill="midnightblue" stroke="midnightblue" points="367.57,-78.55 357.37,-75.71 363.58,-84.29 367.57,-78.55"/>
</g>
<!-- Node26 -->
<g id="node12" class="node">
<title>Node26</title>
<g id="a_node12"><a xlink:title=" ">
<polygon fill="white" stroke="#bfbfbf" points="450.5,-112.5 450.5,-131.5 497.5,-131.5 497.5,-112.5 450.5,-112.5"/>
<text text-anchor="middle" x="474" y="-119.5" font-family="Helvetica,sans-Serif" font-size="10.00">cmath</text>
</a>
</g>
</g>
<!-- Node2&#45;&gt;Node26 -->
<g id="edge14" class="edge">
<title>Node2&#45;&gt;Node26</title>
<path fill="none" stroke="midnightblue" d="M513.24,-168.08C506.46,-160.3 496.46,-148.8 488.24,-139.37"/>
<polygon fill="midnightblue" stroke="midnightblue" points="490.82,-137 481.62,-131.75 485.54,-141.59 490.82,-137"/>
</g>
<!-- Node27 -->
<g id="node13" class="node">
<title>Node27</title>
<g id="a_node13"><a xlink:title=" ">
<polygon fill="white" stroke="#bfbfbf" points="515.5,-112.5 515.5,-131.5 564.5,-131.5 564.5,-112.5 515.5,-112.5"/>
<text text-anchor="middle" x="540" y="-119.5" font-family="Helvetica,sans-Serif" font-size="10.00">cstdlib</text>
</a>
</g>
</g>
<!-- Node2&#45;&gt;Node27 -->
<g id="edge15" class="edge">
<title>Node2&#45;&gt;Node27</title>
<path fill="none" stroke="midnightblue" d="M524.14,-168.08C526.68,-160.85 530.36,-150.41 533.53,-141.4"/>
<polygon fill="midnightblue" stroke="midnightblue" points="536.9,-142.35 536.92,-131.75 530.3,-140.02 536.9,-142.35"/>
</g>
<!-- Node3&#45;&gt;Node4 -->
<g id="edge3" class="edge">
<title>Node3&#45;&gt;Node4</title>
<path fill="none" stroke="midnightblue" d="M358.56,-112.37C395.3,-93.21 483.88,-47.04 527.65,-24.22"/>
<polygon fill="midnightblue" stroke="midnightblue" points="529.27,-27.32 536.52,-19.59 526.03,-21.11 529.27,-27.32"/>
</g>
<!-- Node3&#45;&gt;Node10 -->
<g id="edge4" class="edge">
<title>Node3&#45;&gt;Node10</title>
<path fill="none" stroke="midnightblue" d="M316.96,-112.44C289.13,-102.93 244.19,-87.57 214.37,-77.38"/>
<polygon fill="midnightblue" stroke="midnightblue" points="215.48,-74.06 204.88,-74.14 213.21,-80.68 215.48,-74.06"/>
</g>
<!-- Node17&#45;&gt;Node18 -->
<g id="edge6" class="edge">
<title>Node17&#45;&gt;Node18</title>
<path fill="none" stroke="midnightblue" d="M834.28,-112.08C838.71,-104.61 845.16,-93.72 850.62,-84.52"/>
<polygon fill="midnightblue" stroke="midnightblue" points="853.73,-86.14 855.81,-75.75 847.71,-82.57 853.73,-86.14"/>
</g>
<!-- Node21&#45;&gt;Node24 -->
<g id="edge9" class="edge">
<title>Node21&#45;&gt;Node24</title>
<path fill="none" stroke="midnightblue" d="M258.55,-112.32C274.99,-103.7 300.43,-90.36 319.47,-80.39"/>
<polygon fill="midnightblue" stroke="midnightblue" points="321.26,-83.4 328.49,-75.65 318.01,-77.2 321.26,-83.4"/>
</g>
<!-- Node24&#45;&gt;Node4 -->
<g id="edge10" class="edge">
<title>Node24&#45;&gt;Node4</title>
<path fill="none" stroke="midnightblue" d="M372.19,-57.94C407.8,-48.7 470.54,-32.41 511.95,-21.66"/>
<polygon fill="midnightblue" stroke="midnightblue" points="512.93,-25.02 521.73,-19.12 511.17,-18.24 512.93,-25.02"/>
</g>
<!-- Node24&#45;&gt;Node25 -->
<g id="edge11" class="edge">
<title>Node24&#45;&gt;Node25</title>
<path fill="none" stroke="midnightblue" d="M317.81,-58.81C273.05,-48.61 184.18,-28.36 137.78,-17.78"/>
<polygon fill="midnightblue" stroke="midnightblue" points="138.54,-14.37 128.01,-15.56 136.99,-21.19 138.54,-14.37"/>
</g>
<!-- Node29 -->
<g id="node15" class="node">
<title>Node29</title>
<g id="a_node15"><a xlink:title=" ">
<polygon fill="white" stroke="#bfbfbf" points="28,-112.5 28,-131.5 80,-131.5 80,-112.5 28,-112.5"/>
<text text-anchor="middle" x="54" y="-119.5" font-family="Helvetica,sans-Serif" font-size="10.00">cassert</text>
</a>
</g>
</g>
<!-- Node28&#45;&gt;Node29 -->
<g id="edge18" class="edge">
<title>Node28&#45;&gt;Node29</title>
<path fill="none" stroke="midnightblue" d="M140.45,-168.32C124.01,-159.7 98.57,-146.36 79.53,-136.39"/>
<polygon fill="midnightblue" stroke="midnightblue" points="80.99,-133.2 70.51,-131.65 77.74,-139.4 80.99,-133.2"/>
</g>
<!-- Node31 -->
<g id="node17" class="node">
<title>Node31</title>
<g id="a_node17"><a xlink:href="visit_8h.html" target="_top" xlink:title=" ">
<polygon fill="white" stroke="red" points="336.5,-168.5 336.5,-187.5 389.5,-187.5 389.5,-168.5 336.5,-168.5"/>
<text text-anchor="middle" x="363" y="-175.5" font-family="Helvetica,sans-Serif" font-size="10.00">./visit.h</text>
</a>
</g>
</g>
<!-- Node30&#45;&gt;Node31 -->
<g id="edge20" class="edge">
<title>Node30&#45;&gt;Node31</title>
<path fill="none" stroke="midnightblue" d="M516.74,-280.16C511.21,-266.34 498.75,-239.58 480,-224 456.75,-204.69 424.3,-193.09 399.47,-186.51"/>
<polygon fill="midnightblue" stroke="midnightblue" points="400.23,-183.1 389.68,-184.08 398.54,-189.89 400.23,-183.1"/>
</g>
<!-- Node31&#45;&gt;Node3 -->
<g id="edge21" class="edge">
<title>Node31&#45;&gt;Node3</title>
<path fill="none" stroke="midnightblue" d="M359.53,-168.08C356.69,-160.77 352.57,-150.18 349.04,-141.1"/>
<polygon fill="midnightblue" stroke="midnightblue" points="352.29,-139.8 345.4,-131.75 345.77,-142.34 352.29,-139.8"/>
</g>
<!-- Node31&#45;&gt;Node10 -->
<g id="edge22" class="edge">
<title>Node31&#45;&gt;Node10</title>
<path fill="none" stroke="midnightblue" d="M336.35,-172.66C285.86,-164.17 180.37,-145.07 170,-132 159.27,-118.48 165.85,-98.59 173.18,-84.37"/>
<polygon fill="midnightblue" stroke="midnightblue" points="176.27,-86.01 178.17,-75.58 170.18,-82.55 176.27,-86.01"/>
</g>
<!-- Node32&#45;&gt;Node2 -->
<g id="edge24" class="edge">
<title>Node32&#45;&gt;Node2</title>
<path fill="none" stroke="midnightblue" d="M423.38,-224.44C442.22,-215.68 471.73,-201.94 493.38,-191.86"/>
<polygon fill="midnightblue" stroke="midnightblue" points="495.12,-194.91 502.71,-187.52 492.16,-188.56 495.12,-194.91"/>
</g>
<!-- Node32&#45;&gt;Node28 -->
<g id="edge25" class="edge">
<title>Node32&#45;&gt;Node28</title>
<path fill="none" stroke="midnightblue" d="M365.7,-224.44C321.8,-214.88 250.77,-199.42 203.98,-189.23"/>
<polygon fill="midnightblue" stroke="midnightblue" points="204.6,-185.78 194.09,-187.08 203.11,-192.62 204.6,-185.78"/>
</g>
<!-- Node32&#45;&gt;Node31 -->
<g id="edge26" class="edge">
<title>Node32&#45;&gt;Node31</title>
<path fill="none" stroke="midnightblue" d="M398.06,-224.08C392.07,-216.38 383.25,-205.03 375.95,-195.65"/>
<polygon fill="midnightblue" stroke="midnightblue" points="378.71,-193.5 369.81,-187.75 373.18,-197.79 378.71,-193.5"/>
</g>
<!-- Node33 -->
<g id="node19" class="node">
<title>Node33</title>
<g id="a_node19"><a xlink:href="serializer_8h.html" target="_top" xlink:title=" ">
<polygon fill="white" stroke="red" points="212,-168.5 212,-187.5 288,-187.5 288,-168.5 212,-168.5"/>
<text text-anchor="middle" x="250" y="-175.5" font-family="Helvetica,sans-Serif" font-size="10.00">./serializer.h</text>
</a>
</g>
</g>
<!-- Node32&#45;&gt;Node33 -->
<g id="edge27" class="edge">
<title>Node32&#45;&gt;Node33</title>
<path fill="none" stroke="midnightblue" d="M380.44,-224.44C354.48,-215.4 313.33,-201.06 284.2,-190.92"/>
<polygon fill="midnightblue" stroke="midnightblue" points="285.04,-187.5 274.45,-187.52 282.74,-194.11 285.04,-187.5"/>
</g>
<!-- Node43 -->
<g id="node20" class="node">
<title>Node43</title>
<g id="a_node20"><a xlink:href="traits_8h.html" target="_top" xlink:title=" ">
<polygon fill="white" stroke="red" points="716.5,-112.5 716.5,-131.5 773.5,-131.5 773.5,-112.5 716.5,-112.5"/>
<text text-anchor="middle" x="745" y="-119.5" font-family="Helvetica,sans-Serif" font-size="10.00">./traits.h</text>
</a>
</g>
</g>
<!-- Node32&#45;&gt;Node43 -->
<g id="edge30" class="edge">
<title>Node32&#45;&gt;Node43</title>
<path fill="none" stroke="midnightblue" d="M442.03,-224.5C476.9,-216.2 530.43,-202.71 576,-188 625.61,-171.98 681.87,-149.44 715.34,-135.55"/>
<polygon fill="midnightblue" stroke="midnightblue" points="717.09,-138.61 724.97,-131.53 714.39,-132.15 717.09,-138.61"/>
</g>
<!-- Node33&#45;&gt;Node21 -->
<g id="edge28" class="edge">
<title>Node33&#45;&gt;Node21</title>
<path fill="none" stroke="midnightblue" d="M248.68,-168.08C247.62,-160.93 246.09,-150.64 244.77,-141.69"/>
<polygon fill="midnightblue" stroke="midnightblue" points="248.22,-141.13 243.3,-131.75 241.3,-142.16 248.22,-141.13"/>
</g>
<!-- Node33&#45;&gt;Node25 -->
<g id="edge29" class="edge">
<title>Node33&#45;&gt;Node25</title>
<path fill="none" stroke="midnightblue" d="M221.59,-168.35C202.36,-161.25 177.54,-149.48 161,-132 132.99,-102.4 118.33,-55.59 111.98,-29.72"/>
<polygon fill="midnightblue" stroke="midnightblue" points="115.34,-28.71 109.69,-19.74 108.51,-30.27 115.34,-28.71"/>
</g>
<!-- Node43&#45;&gt;Node4 -->
<g id="edge31" class="edge">
<title>Node43&#45;&gt;Node4</title>
<path fill="none" stroke="midnightblue" d="M741.64,-112.45C735.74,-98.53 722.19,-71.03 702,-56 670.21,-32.34 625.96,-21.02 593.94,-15.67"/>
<polygon fill="midnightblue" stroke="midnightblue" points="594.43,-12.2 584.01,-14.13 593.36,-19.12 594.43,-12.2"/>
</g>
<!-- Node43&#45;&gt;Node18 -->
<g id="edge32" class="edge">
<title>Node43&#45;&gt;Node18</title>
<path fill="none" stroke="midnightblue" d="M763.38,-112.44C782.22,-103.68 811.73,-89.94 833.38,-79.86"/>
<polygon fill="midnightblue" stroke="midnightblue" points="835.12,-82.91 842.71,-75.52 832.16,-76.56 835.12,-82.91"/>
</g>
<!-- Node55&#45;&gt;Node2 -->
<g id="edge34" class="edge">
<title>Node55&#45;&gt;Node2</title>
<path fill="none" stroke="midnightblue" d="M832.5,-227.47C772.07,-218.07 648.82,-198.89 576.79,-187.68"/>
<polygon fill="midnightblue" stroke="midnightblue" points="576.97,-184.17 566.55,-186.09 575.89,-191.08 576.97,-184.17"/>
</g>
<!-- Node56 -->
<g id="node22" class="node">
<title>Node56</title>
<g id="a_node22"><a xlink:href="status_8h.html" target="_top" xlink:title=" ">
<polygon fill="white" stroke="red" points="837,-168.5 837,-187.5 899,-187.5 899,-168.5 837,-168.5"/>
<text text-anchor="middle" x="868" y="-175.5" font-family="Helvetica,sans-Serif" font-size="10.00">./status.h</text>
</a>
</g>
</g>
<!-- Node55&#45;&gt;Node56 -->
<g id="edge35" class="edge">
<title>Node55&#45;&gt;Node56</title>
<path fill="none" stroke="midnightblue" d="M868,-224.08C868,-217.01 868,-206.86 868,-197.99"/>
<polygon fill="midnightblue" stroke="midnightblue" points="871.5,-197.75 868,-187.75 864.5,-197.75 871.5,-197.75"/>
</g>
<!-- Node55&#45;&gt;Node8 -->
<g id="edge36" class="edge">
<title>Node55&#45;&gt;Node8</title>
<path fill="none" stroke="midnightblue" d="M895.89,-224.44C926.54,-215.04 975.84,-199.91 1009.06,-189.72"/>
<polygon fill="midnightblue" stroke="midnightblue" points="1010.28,-193.01 1018.81,-186.73 1008.22,-186.32 1010.28,-193.01"/>
</g>
<!-- Node57&#45;&gt;Node18 -->
<g id="edge41" class="edge">
<title>Node57&#45;&gt;Node18</title>
<path fill="none" stroke="midnightblue" d="M932.76,-280.3C934.71,-253.52 937.83,-170.59 908,-112 901.97,-100.17 891.57,-89.71 882.08,-81.86"/>
<polygon fill="midnightblue" stroke="midnightblue" points="884.15,-79.04 874.11,-75.67 879.86,-84.57 884.15,-79.04"/>
</g>
<!-- Node57&#45;&gt;Node55 -->
<g id="edge38" class="edge">
<title>Node57&#45;&gt;Node55</title>
<path fill="none" stroke="midnightblue" d="M921.72,-280.32C912.16,-272.26 897.72,-260.08 886.22,-250.37"/>
<polygon fill="midnightblue" stroke="midnightblue" points="888.37,-247.61 878.47,-243.83 883.86,-252.96 888.37,-247.61"/>
</g>
<!-- Node57&#45;&gt;Node8 -->
<g id="edge40" class="edge">
<title>Node57&#45;&gt;Node8</title>
<path fill="none" stroke="midnightblue" d="M960.25,-282.02C980.98,-275.49 1008.32,-263.72 1025,-244 1036.03,-230.97 1040.66,-211.81 1042.6,-197.67"/>
<polygon fill="midnightblue" stroke="midnightblue" points="1046.09,-197.92 1043.65,-187.61 1039.13,-197.19 1046.09,-197.92"/>
</g>
<!-- Node58 -->
<g id="node25" class="node">
<title>Node58</title>
<g id="a_node25"><a xlink:href="experimental_2cfg_2base_8h.html" target="_top" xlink:title=" ">
<polygon fill="white" stroke="black" points="960.5,-224.5 960.5,-243.5 1015.5,-243.5 1015.5,-224.5 960.5,-224.5"/>
<text text-anchor="middle" x="988" y="-231.5" font-family="Helvetica,sans-Serif" font-size="10.00">./base.h</text>
</a>
</g>
</g>
<!-- Node57&#45;&gt;Node58 -->
<g id="edge39" class="edge">
<title>Node57&#45;&gt;Node58</title>
<path fill="none" stroke="midnightblue" d="M941,-280.32C949.19,-272.42 961.51,-260.55 971.47,-250.94"/>
<polygon fill="midnightblue" stroke="midnightblue" points="974.07,-253.29 978.84,-243.83 969.21,-248.26 974.07,-253.29"/>
</g>
</g>
</svg>
