<?xml version="1.0" encoding="UTF-8" standalone="no"?>
<!DOCTYPE svg PUBLIC "-//W3C//DTD SVG 1.1//EN"
 "http://www.w3.org/Graphics/SVG/1.1/DTD/svg11.dtd">
<!-- Generated by graphviz version 2.43.0 (0)
 -->
<!-- Title: include/emlabcpp/experimental/testing/gtest.h Pages: 1 -->
<svg width="972pt" height="240pt"
 viewBox="0.00 0.00 971.50 240.00" xmlns="http://www.w3.org/2000/svg" xmlns:xlink="http://www.w3.org/1999/xlink">
<g id="graph0" class="graph" transform="scale(1 1) rotate(0) translate(4 236)">
<title>include/emlabcpp/experimental/testing/gtest.h</title>
<polygon fill="white" stroke="transparent" points="-4,4 -4,-236 967.5,-236 967.5,4 -4,4"/>
<!-- Node1 -->
<g id="node1" class="node">
<title>Node1</title>
<g id="a_node1"><a xlink:title=" ">
<polygon fill="#bfbfbf" stroke="black" points="606.5,-201.5 606.5,-231.5 777.5,-231.5 777.5,-201.5 606.5,-201.5"/>
<text text-anchor="start" x="614.5" y="-219.5" font-family="Helvetica,sans-Serif" font-size="10.00">include/emlabcpp/experimental</text>
<text text-anchor="middle" x="692" y="-208.5" font-family="Helvetica,sans-Serif" font-size="10.00">/testing/gtest.h</text>
</a>
</g>
</g>
<!-- Node2 -->
<g id="node2" class="node">
<title>Node2</title>
<g id="a_node2"><a xlink:href="controller_8h.html" target="_top" xlink:title=" ">
<polygon fill="white" stroke="black" points="322.5,-134.5 322.5,-164.5 455.5,-164.5 455.5,-134.5 322.5,-134.5"/>
<text text-anchor="start" x="330.5" y="-152.5" font-family="Helvetica,sans-Serif" font-size="10.00">emlabcpp/experimental</text>
<text text-anchor="middle" x="389" y="-141.5" font-family="Helvetica,sans-Serif" font-size="10.00">/testing/controller.h</text>
</a>
</g>
</g>
<!-- Node1&#45;&gt;Node2 -->
<g id="edge1" class="edge">
<title>Node1&#45;&gt;Node2</title>
<path fill="none" stroke="midnightblue" d="M626.63,-201.48C579.02,-191.26 514.42,-177.41 464.59,-166.72"/>
<polygon fill="midnightblue" stroke="midnightblue" points="465.03,-163.23 454.52,-164.55 463.56,-170.07 465.03,-163.23"/>
</g>
<!-- Node103 -->
<g id="node7" class="node">
<title>Node103</title>
<g id="a_node7"><a xlink:href="experimental_2testing_2json_8h.html" target="_top" xlink:title=" ">
<polygon fill="white" stroke="black" points="625.5,-134.5 625.5,-164.5 758.5,-164.5 758.5,-134.5 625.5,-134.5"/>
<text text-anchor="start" x="633.5" y="-152.5" font-family="Helvetica,sans-Serif" font-size="10.00">emlabcpp/experimental</text>
<text text-anchor="middle" x="692" y="-141.5" font-family="Helvetica,sans-Serif" font-size="10.00">/testing/json.h</text>
</a>
</g>
</g>
<!-- Node1&#45;&gt;Node103 -->
<g id="edge6" class="edge">
<title>Node1&#45;&gt;Node103</title>
<path fill="none" stroke="midnightblue" d="M692,-201.4C692,-193.64 692,-183.81 692,-174.86"/>
<polygon fill="midnightblue" stroke="midnightblue" points="695.5,-174.58 692,-164.58 688.5,-174.58 695.5,-174.58"/>
</g>
<!-- Node104 -->
<g id="node12" class="node">
<title>Node104</title>
<g id="a_node12"><a xlink:href="new__delete__resource_8h.html" target="_top" xlink:title=" ">
<polygon fill="white" stroke="black" points="801,-134.5 801,-164.5 947,-164.5 947,-134.5 801,-134.5"/>
<text text-anchor="start" x="809" y="-152.5" font-family="Helvetica,sans-Serif" font-size="10.00">emlabcpp/pmr/new_delete</text>
<text text-anchor="middle" x="874" y="-141.5" font-family="Helvetica,sans-Serif" font-size="10.00">_resource.h</text>
</a>
</g>
</g>
<!-- Node1&#45;&gt;Node104 -->
<g id="edge12" class="edge">
<title>Node1&#45;&gt;Node104</title>
<path fill="none" stroke="midnightblue" d="M731.49,-201.4C758.92,-191.6 795.65,-178.48 824.96,-168.02"/>
<polygon fill="midnightblue" stroke="midnightblue" points="826.35,-171.24 834.59,-164.58 823.99,-164.64 826.35,-171.24"/>
</g>
<!-- Node3 -->
<g id="node3" class="node">
<title>Node3</title>
<g id="a_node3"><a xlink:href="controller__interface__adapter_8h.html" target="_top" xlink:title=" ">
<polygon fill="white" stroke="red" points="0,-56.5 0,-97.5 152,-97.5 152,-56.5 0,-56.5"/>
<text text-anchor="start" x="8" y="-85.5" font-family="Helvetica,sans-Serif" font-size="10.00">emlabcpp/experimental</text>
<text text-anchor="start" x="8" y="-74.5" font-family="Helvetica,sans-Serif" font-size="10.00">/testing/controller_interface</text>
<text text-anchor="middle" x="76" y="-63.5" font-family="Helvetica,sans-Serif" font-size="10.00">_adapter.h</text>
</a>
</g>
</g>
<!-- Node2&#45;&gt;Node3 -->
<g id="edge2" class="edge">
<title>Node2&#45;&gt;Node3</title>
<path fill="none" stroke="midnightblue" d="M324.58,-134.47C281.3,-124.98 222.71,-112.04 162.51,-98.33"/>
<polygon fill="midnightblue" stroke="midnightblue" points="162.97,-94.85 152.44,-96.04 161.42,-101.67 162.97,-94.85"/>
</g>
<!-- Node96 -->
<g id="node4" class="node">
<title>Node96</title>
<g id="a_node4"><a xlink:href="coroutine_8h.html" target="_top" xlink:title=" ">
<polygon fill="white" stroke="red" points="170.5,-62 170.5,-92 303.5,-92 303.5,-62 170.5,-62"/>
<text text-anchor="start" x="178.5" y="-80" font-family="Helvetica,sans-Serif" font-size="10.00">emlabcpp/experimental</text>
<text text-anchor="middle" x="237" y="-69" font-family="Helvetica,sans-Serif" font-size="10.00">/testing/coroutine.h</text>
</a>
</g>
</g>
<!-- Node2&#45;&gt;Node96 -->
<g id="edge3" class="edge">
<title>Node2&#45;&gt;Node96</title>
<path fill="none" stroke="midnightblue" d="M358.61,-134.4C334.99,-123.45 302.07,-108.18 276.43,-96.29"/>
<polygon fill="midnightblue" stroke="midnightblue" points="277.89,-93.11 267.34,-92.07 274.94,-99.46 277.89,-93.11"/>
</g>
<!-- Node85 -->
<g id="node5" class="node">
<title>Node85</title>
<g id="a_node5"><a xlink:href="aliases_8h.html" target="_top" xlink:title=" ">
<polygon fill="white" stroke="red" points="322,-67.5 322,-86.5 456,-86.5 456,-67.5 322,-67.5"/>
<text text-anchor="middle" x="389" y="-74.5" font-family="Helvetica,sans-Serif" font-size="10.00">emlabcpp/pmr/aliases.h</text>
</a>
</g>
</g>
<!-- Node2&#45;&gt;Node85 -->
<g id="edge4" class="edge">
<title>Node2&#45;&gt;Node85</title>
<path fill="none" stroke="midnightblue" d="M389,-134.23C389,-123.5 389,-108.69 389,-96.96"/>
<polygon fill="midnightblue" stroke="midnightblue" points="392.5,-96.89 389,-86.89 385.5,-96.89 392.5,-96.89"/>
</g>
<!-- Node56 -->
<g id="node6" class="node">
<title>Node56</title>
<g id="a_node6"><a xlink:href="result_8h.html" target="_top" xlink:title=" ">
<polygon fill="white" stroke="red" points="591,-0.5 591,-19.5 695,-19.5 695,-0.5 591,-0.5"/>
<text text-anchor="middle" x="643" y="-7.5" font-family="Helvetica,sans-Serif" font-size="10.00">emlabcpp/result.h</text>
</a>
</g>
</g>
<!-- Node2&#45;&gt;Node56 -->
<g id="edge5" class="edge">
<title>Node2&#45;&gt;Node56</title>
<path fill="none" stroke="midnightblue" d="M413.37,-134.46C428.85,-125.04 448.91,-111.85 465,-98 484.08,-81.57 481.85,-69.65 503,-56 528.2,-39.73 559.76,-28.92 586.53,-21.98"/>
<polygon fill="midnightblue" stroke="midnightblue" points="587.67,-25.3 596.53,-19.51 585.99,-18.51 587.67,-25.3"/>
</g>
<!-- Node83 -->
<g id="node8" class="node">
<title>Node83</title>
<g id="a_node8"><a xlink:href="experimental_2testing_2base_8h.html" target="_top" xlink:title=" ">
<polygon fill="white" stroke="red" points="512.5,-62 512.5,-92 645.5,-92 645.5,-62 512.5,-62"/>
<text text-anchor="start" x="520.5" y="-80" font-family="Helvetica,sans-Serif" font-size="10.00">emlabcpp/experimental</text>
<text text-anchor="middle" x="579" y="-69" font-family="Helvetica,sans-Serif" font-size="10.00">/testing/base.h</text>
</a>
</g>
</g>
<!-- Node103&#45;&gt;Node83 -->
<g id="edge7" class="edge">
<title>Node103&#45;&gt;Node83</title>
<path fill="none" stroke="midnightblue" d="M669.4,-134.4C652.39,-123.79 628.87,-109.11 610.08,-97.39"/>
<polygon fill="midnightblue" stroke="midnightblue" points="611.89,-94.4 601.56,-92.07 608.19,-100.34 611.89,-94.4"/>
</g>
<!-- Node87 -->
<g id="node9" class="node">
<title>Node87</title>
<g id="a_node9"><a xlink:href="memory__resource_8h.html" target="_top" xlink:title=" ">
<polygon fill="white" stroke="black" points="738.5,-62 738.5,-92 869.5,-92 869.5,-62 738.5,-62"/>
<text text-anchor="start" x="746.5" y="-80" font-family="Helvetica,sans-Serif" font-size="10.00">emlabcpp/pmr/memory</text>
<text text-anchor="middle" x="804" y="-69" font-family="Helvetica,sans-Serif" font-size="10.00">_resource.h</text>
</a>
</g>
</g>
<!-- Node103&#45;&gt;Node87 -->
<g id="edge8" class="edge">
<title>Node103&#45;&gt;Node87</title>
<path fill="none" stroke="midnightblue" d="M714.4,-134.4C731.18,-123.84 754.36,-109.24 772.94,-97.55"/>
<polygon fill="midnightblue" stroke="midnightblue" points="775.04,-100.36 781.64,-92.07 771.32,-94.44 775.04,-100.36"/>
</g>
<!-- Node42 -->
<g id="node11" class="node">
<title>Node42</title>
<g id="a_node11"><a xlink:title=" ">
<polygon fill="white" stroke="#bfbfbf" points="664,-67.5 664,-86.5 720,-86.5 720,-67.5 664,-67.5"/>
<text text-anchor="middle" x="692" y="-74.5" font-family="Helvetica,sans-Serif" font-size="10.00">optional</text>
</a>
</g>
</g>
<!-- Node103&#45;&gt;Node42 -->
<g id="edge11" class="edge">
<title>Node103&#45;&gt;Node42</title>
<path fill="none" stroke="midnightblue" d="M692,-134.23C692,-123.5 692,-108.69 692,-96.96"/>
<polygon fill="midnightblue" stroke="midnightblue" points="695.5,-96.89 692,-86.89 688.5,-96.89 695.5,-96.89"/>
</g>
<!-- Node87&#45;&gt;Node56 -->
<g id="edge9" class="edge">
<title>Node87&#45;&gt;Node56</title>
<path fill="none" stroke="midnightblue" d="M769.07,-61.9C740.57,-50.39 700.71,-34.3 673.48,-23.31"/>
<polygon fill="midnightblue" stroke="midnightblue" points="674.65,-20.01 664.07,-19.51 672.03,-26.5 674.65,-20.01"/>
</g>
<!-- Node51 -->
<g id="node10" class="node">
<title>Node51</title>
<g id="a_node10"><a xlink:title=" ">
<polygon fill="white" stroke="#bfbfbf" points="824.5,-0.5 824.5,-19.5 877.5,-19.5 877.5,-0.5 824.5,-0.5"/>
<text text-anchor="middle" x="851" y="-7.5" font-family="Helvetica,sans-Serif" font-size="10.00">cstddef</text>
</a>
</g>
</g>
<!-- Node87&#45;&gt;Node51 -->
<g id="edge10" class="edge">
<title>Node87&#45;&gt;Node51</title>
<path fill="none" stroke="midnightblue" d="M814.2,-61.9C821.38,-51.96 831.04,-38.61 838.66,-28.07"/>
<polygon fill="midnightblue" stroke="midnightblue" points="841.69,-29.85 844.71,-19.69 836.02,-25.75 841.69,-29.85"/>
</g>
<!-- Node104&#45;&gt;Node87 -->
<g id="edge13" class="edge">
<title>Node104&#45;&gt;Node87</title>
<path fill="none" stroke="midnightblue" d="M859.83,-134.23C849.97,-124.3 836.63,-110.86 825.46,-99.61"/>
<polygon fill="midnightblue" stroke="midnightblue" points="827.67,-96.88 818.14,-92.25 822.71,-101.81 827.67,-96.88"/>
</g>
<!-- Node104&#45;&gt;Node51 -->
<g id="edge14" class="edge">
<title>Node104&#45;&gt;Node51</title>
<path fill="none" stroke="midnightblue" d="M877.58,-134.39C881.62,-115.97 886.69,-82.91 879,-56 876.1,-45.84 870.17,-35.75 864.51,-27.7"/>
<polygon fill="midnightblue" stroke="midnightblue" points="867.22,-25.48 858.41,-19.59 861.62,-29.69 867.22,-25.48"/>
</g>
<!-- Node89 -->
<g id="node13" class="node">
<title>Node89</title>
<g id="a_node13"><a xlink:title=" ">
<polygon fill="white" stroke="#bfbfbf" points="926.5,-67.5 926.5,-86.5 963.5,-86.5 963.5,-67.5 926.5,-67.5"/>
<text text-anchor="middle" x="945" y="-74.5" font-family="Helvetica,sans-Serif" font-size="10.00">new</text>
</a>
</g>
</g>
<!-- Node104&#45;&gt;Node89 -->
<g id="edge15" class="edge">
<title>Node104&#45;&gt;Node89</title>
<path fill="none" stroke="midnightblue" d="M888.37,-134.23C900.07,-122.62 916.58,-106.22 928.76,-94.12"/>
<polygon fill="midnightblue" stroke="midnightblue" points="931.41,-96.42 936.04,-86.89 926.48,-91.46 931.41,-96.42"/>
</g>
</g>
</svg>
