<?xml version="1.0" encoding="UTF-8" standalone="no"?>
<!DOCTYPE svg PUBLIC "-//W3C//DTD SVG 1.1//EN"
 "http://www.w3.org/Graphics/SVG/1.1/DTD/svg11.dtd">
<!-- Generated by graphviz version 2.43.0 (0)
 -->
<!-- Title: include/emlabcpp/experimental/testing/gtest.h Pages: 1 -->
<svg width="592pt" height="240pt"
 viewBox="0.00 0.00 592.38 240.00" xmlns="http://www.w3.org/2000/svg" xmlns:xlink="http://www.w3.org/1999/xlink">
<g id="graph0" class="graph" transform="scale(1 1) rotate(0) translate(4 236)">
<title>include/emlabcpp/experimental/testing/gtest.h</title>
<polygon fill="white" stroke="transparent" points="-4,4 -4,-236 588.38,-236 588.38,4 -4,4"/>
<!-- Node1 -->
<g id="node1" class="node">
<title>Node1</title>
<g id="a_node1"><a xlink:title=" ">
<polygon fill="#bfbfbf" stroke="black" points="243.38,-201.5 243.38,-231.5 414.38,-231.5 414.38,-201.5 243.38,-201.5"/>
<text text-anchor="start" x="251.38" y="-219.5" font-family="Helvetica,sans-Serif" font-size="10.00">include/emlabcpp/experimental</text>
<text text-anchor="middle" x="328.88" y="-208.5" font-family="Helvetica,sans-Serif" font-size="10.00">/testing/gtest.h</text>
</a>
</g>
</g>
<!-- Node2 -->
<g id="node2" class="node">
<title>Node2</title>
<g id="a_node2"><a xlink:href="controller_8h.html" target="_top" xlink:title=" ">
<polygon fill="white" stroke="black" points="187.38,-134.5 187.38,-164.5 320.38,-164.5 320.38,-134.5 187.38,-134.5"/>
<text text-anchor="start" x="195.38" y="-152.5" font-family="Helvetica,sans-Serif" font-size="10.00">emlabcpp/experimental</text>
<text text-anchor="middle" x="253.88" y="-141.5" font-family="Helvetica,sans-Serif" font-size="10.00">/testing/controller.h</text>
</a>
</g>
</g>
<!-- Node1&#45;&gt;Node2 -->
<g id="edge1" class="edge">
<title>Node1&#45;&gt;Node2</title>
<path fill="none" stroke="midnightblue" d="M312.61,-201.4C302.49,-192.62 289.29,-181.18 277.97,-171.37"/>
<polygon fill="midnightblue" stroke="midnightblue" points="279.97,-168.48 270.13,-164.58 275.39,-173.77 279.97,-168.48"/>
</g>
<!-- Node83 -->
<g id="node7" class="node">
<title>Node83</title>
<g id="a_node7"><a xlink:href="experimental_2testing_2json_8h.html" target="_top" xlink:title=" ">
<polygon fill="white" stroke="black" points="394.38,-134.5 394.38,-164.5 527.38,-164.5 527.38,-134.5 394.38,-134.5"/>
<text text-anchor="start" x="402.38" y="-152.5" font-family="Helvetica,sans-Serif" font-size="10.00">emlabcpp/experimental</text>
<text text-anchor="middle" x="460.88" y="-141.5" font-family="Helvetica,sans-Serif" font-size="10.00">/testing/json.h</text>
</a>
</g>
</g>
<!-- Node1&#45;&gt;Node83 -->
<g id="edge6" class="edge">
<title>Node1&#45;&gt;Node83</title>
<path fill="none" stroke="midnightblue" d="M357.53,-201.4C376.73,-191.94 402.22,-179.39 423.08,-169.12"/>
<polygon fill="midnightblue" stroke="midnightblue" points="424.87,-172.13 432.3,-164.58 421.78,-165.85 424.87,-172.13"/>
</g>
<!-- Node3 -->
<g id="node3" class="node">
<title>Node3</title>
<g id="a_node3"><a xlink:href="pool_8h.html" target="_top" xlink:title=" ">
<polygon fill="white" stroke="red" points="199.88,-0.5 199.88,-30.5 309.88,-30.5 309.88,-0.5 199.88,-0.5"/>
<text text-anchor="start" x="207.88" y="-18.5" font-family="Helvetica,sans-Serif" font-size="10.00">emlabcpp/allocator</text>
<text text-anchor="middle" x="254.88" y="-7.5" font-family="Helvetica,sans-Serif" font-size="10.00">/pool.h</text>
</a>
</g>
</g>
<!-- Node2&#45;&gt;Node3 -->
<g id="edge2" class="edge">
<title>Node2&#45;&gt;Node3</title>
<path fill="none" stroke="midnightblue" d="M187.14,-147.56C99.05,-143.96 -39.34,-128.68 10.88,-67 33.05,-39.78 125.2,-26.77 189.68,-20.9"/>
<polygon fill="midnightblue" stroke="midnightblue" points="190.11,-24.38 199.77,-20.02 189.5,-17.4 190.11,-24.38"/>
</g>
<!-- Node43 -->
<g id="node4" class="node">
<title>Node43</title>
<g id="a_node4"><a xlink:href="controller__interface_8h.html" target="_top" xlink:title=" ">
<polygon fill="white" stroke="red" points="20.38,-67.5 20.38,-97.5 181.38,-97.5 181.38,-67.5 20.38,-67.5"/>
<text text-anchor="start" x="28.38" y="-85.5" font-family="Helvetica,sans-Serif" font-size="10.00">emlabcpp/experimental</text>
<text text-anchor="middle" x="100.88" y="-74.5" font-family="Helvetica,sans-Serif" font-size="10.00">/testing/controller_interface.h</text>
</a>
</g>
</g>
<!-- Node2&#45;&gt;Node43 -->
<g id="edge3" class="edge">
<title>Node2&#45;&gt;Node43</title>
<path fill="none" stroke="midnightblue" d="M220.68,-134.4C198.03,-124.77 167.82,-111.94 143.4,-101.56"/>
<polygon fill="midnightblue" stroke="midnightblue" points="144.59,-98.27 134.02,-97.58 141.85,-104.71 144.59,-98.27"/>
</g>
<!-- Node82 -->
<g id="node5" class="node">
<title>Node82</title>
<g id="a_node5"><a xlink:href="iterators_2convert_8h.html" target="_top" xlink:title=" ">
<polygon fill="white" stroke="red" points="199.38,-67.5 199.38,-97.5 308.38,-97.5 308.38,-67.5 199.38,-67.5"/>
<text text-anchor="start" x="207.38" y="-85.5" font-family="Helvetica,sans-Serif" font-size="10.00">emlabcpp/iterators</text>
<text text-anchor="middle" x="253.88" y="-74.5" font-family="Helvetica,sans-Serif" font-size="10.00">/convert.h</text>
</a>
</g>
</g>
<!-- Node2&#45;&gt;Node82 -->
<g id="edge4" class="edge">
<title>Node2&#45;&gt;Node82</title>
<path fill="none" stroke="midnightblue" d="M253.88,-134.4C253.88,-126.64 253.88,-116.81 253.88,-107.86"/>
<polygon fill="midnightblue" stroke="midnightblue" points="257.38,-107.58 253.88,-97.58 250.38,-107.58 257.38,-107.58"/>
</g>
<!-- Node30 -->
<g id="node6" class="node">
<title>Node30</title>
<g id="a_node6"><a xlink:href="match_8h.html" target="_top" xlink:title=" ">
<polygon fill="white" stroke="red" points="326.38,-73 326.38,-92 433.38,-92 433.38,-73 326.38,-73"/>
<text text-anchor="middle" x="379.88" y="-80" font-family="Helvetica,sans-Serif" font-size="10.00">emlabcpp/match.h</text>
</a>
</g>
</g>
<!-- Node2&#45;&gt;Node30 -->
<g id="edge5" class="edge">
<title>Node2&#45;&gt;Node30</title>
<path fill="none" stroke="midnightblue" d="M281.22,-134.4C302.94,-123.19 333.09,-107.64 354.32,-96.69"/>
<polygon fill="midnightblue" stroke="midnightblue" points="356.11,-99.7 363.39,-92.01 352.9,-93.48 356.11,-99.7"/>
</g>
<!-- Node52 -->
<g id="node8" class="node">
<title>Node52</title>
<g id="a_node8"><a xlink:href="experimental_2testing_2base_8h.html" target="_top" xlink:title=" ">
<polygon fill="white" stroke="red" points="451.38,-67.5 451.38,-97.5 584.38,-97.5 584.38,-67.5 451.38,-67.5"/>
<text text-anchor="start" x="459.38" y="-85.5" font-family="Helvetica,sans-Serif" font-size="10.00">emlabcpp/experimental</text>
<text text-anchor="middle" x="517.88" y="-74.5" font-family="Helvetica,sans-Serif" font-size="10.00">/testing/base.h</text>
</a>
</g>
</g>
<!-- Node83&#45;&gt;Node52 -->
<g id="edge7" class="edge">
<title>Node83&#45;&gt;Node52</title>
<path fill="none" stroke="midnightblue" d="M473.25,-134.4C480.72,-125.88 490.39,-114.85 498.83,-105.23"/>
<polygon fill="midnightblue" stroke="midnightblue" points="501.58,-107.4 505.54,-97.58 496.31,-102.79 501.58,-107.4"/>
</g>
<!-- Node52&#45;&gt;Node3 -->
<g id="edge8" class="edge">
<title>Node52&#45;&gt;Node3</title>
<path fill="none" stroke="midnightblue" d="M461.14,-67.48C419.67,-57.23 363.35,-43.31 320.04,-32.6"/>
<polygon fill="midnightblue" stroke="midnightblue" points="320.72,-29.17 310.17,-30.16 319.04,-35.96 320.72,-29.17"/>
</g>
</g>
</svg>
