<?xml version="1.0" encoding="UTF-8" standalone="no"?>
<!DOCTYPE svg PUBLIC "-//W3C//DTD SVG 1.1//EN"
 "http://www.w3.org/Graphics/SVG/1.1/DTD/svg11.dtd">
<!-- Generated by graphviz version 2.43.0 (0)
 -->
<!-- Title: include/emlabcpp/experimental/testing/gtest.h Pages: 1 -->
<svg width="847pt" height="184pt"
 viewBox="0.00 0.00 847.00 184.00" xmlns="http://www.w3.org/2000/svg" xmlns:xlink="http://www.w3.org/1999/xlink">
<g id="graph0" class="graph" transform="scale(1 1) rotate(0) translate(4 180)">
<title>include/emlabcpp/experimental/testing/gtest.h</title>
<polygon fill="white" stroke="transparent" points="-4,4 -4,-180 843,-180 843,4 -4,4"/>
<!-- Node1 -->
<g id="node1" class="node">
<title>Node1</title>
<g id="a_node1"><a xlink:title=" ">
<polygon fill="#bfbfbf" stroke="black" points="522.5,-145.5 522.5,-175.5 693.5,-175.5 693.5,-145.5 522.5,-145.5"/>
<text text-anchor="start" x="530.5" y="-163.5" font-family="Helvetica,sans-Serif" font-size="10.00">include/emlabcpp/experimental</text>
<text text-anchor="middle" x="608" y="-152.5" font-family="Helvetica,sans-Serif" font-size="10.00">/testing/gtest.h</text>
</a>
</g>
</g>
<!-- Node2 -->
<g id="node2" class="node">
<title>Node2</title>
<g id="a_node2"><a xlink:href="controller_8h.html" target="_top" xlink:title=" ">
<polygon fill="white" stroke="black" points="246.5,-78.5 246.5,-108.5 379.5,-108.5 379.5,-78.5 246.5,-78.5"/>
<text text-anchor="start" x="254.5" y="-96.5" font-family="Helvetica,sans-Serif" font-size="10.00">emlabcpp/experimental</text>
<text text-anchor="middle" x="313" y="-85.5" font-family="Helvetica,sans-Serif" font-size="10.00">/testing/controller.h</text>
</a>
</g>
</g>
<!-- Node1&#45;&gt;Node2 -->
<g id="edge1" class="edge">
<title>Node1&#45;&gt;Node2</title>
<path fill="none" stroke="midnightblue" d="M544.35,-145.48C498,-135.26 435.11,-121.41 386.6,-110.72"/>
<polygon fill="midnightblue" stroke="midnightblue" points="387.31,-107.29 376.79,-108.55 385.8,-114.12 387.31,-107.29"/>
</g>
<!-- Node101 -->
<g id="node6" class="node">
<title>Node101</title>
<g id="a_node6"><a xlink:href="experimental_2testing_2json_8h.html" target="_top" xlink:title=" ">
<polygon fill="white" stroke="black" points="541.5,-78.5 541.5,-108.5 674.5,-108.5 674.5,-78.5 541.5,-78.5"/>
<text text-anchor="start" x="549.5" y="-96.5" font-family="Helvetica,sans-Serif" font-size="10.00">emlabcpp/experimental</text>
<text text-anchor="middle" x="608" y="-85.5" font-family="Helvetica,sans-Serif" font-size="10.00">/testing/json.h</text>
</a>
</g>
</g>
<!-- Node1&#45;&gt;Node101 -->
<g id="edge5" class="edge">
<title>Node1&#45;&gt;Node101</title>
<path fill="none" stroke="midnightblue" d="M608,-145.4C608,-137.64 608,-127.81 608,-118.86"/>
<polygon fill="midnightblue" stroke="midnightblue" points="611.5,-118.58 608,-108.58 604.5,-118.58 611.5,-118.58"/>
</g>
<!-- Node102 -->
<g id="node10" class="node">
<title>Node102</title>
<g id="a_node10"><a xlink:href="new__delete__resource_8h.html" target="_top" xlink:title=" ">
<polygon fill="white" stroke="black" points="693,-78.5 693,-108.5 839,-108.5 839,-78.5 693,-78.5"/>
<text text-anchor="start" x="701" y="-96.5" font-family="Helvetica,sans-Serif" font-size="10.00">emlabcpp/pmr/new_delete</text>
<text text-anchor="middle" x="766" y="-85.5" font-family="Helvetica,sans-Serif" font-size="10.00">_resource.h</text>
</a>
</g>
</g>
<!-- Node1&#45;&gt;Node102 -->
<g id="edge9" class="edge">
<title>Node1&#45;&gt;Node102</title>
<path fill="none" stroke="midnightblue" d="M642.28,-145.4C665.78,-135.73 697.15,-122.82 722.43,-112.43"/>
<polygon fill="midnightblue" stroke="midnightblue" points="723.87,-115.62 731.78,-108.58 721.2,-109.14 723.87,-115.62"/>
</g>
<!-- Node3 -->
<g id="node3" class="node">
<title>Node3</title>
<g id="a_node3"><a xlink:href="controller__interface__adapter_8h.html" target="_top" xlink:title=" ">
<polygon fill="white" stroke="red" points="0,-0.5 0,-41.5 152,-41.5 152,-0.5 0,-0.5"/>
<text text-anchor="start" x="8" y="-29.5" font-family="Helvetica,sans-Serif" font-size="10.00">emlabcpp/experimental</text>
<text text-anchor="start" x="8" y="-18.5" font-family="Helvetica,sans-Serif" font-size="10.00">/testing/controller_interface</text>
<text text-anchor="middle" x="76" y="-7.5" font-family="Helvetica,sans-Serif" font-size="10.00">_adapter.h</text>
</a>
</g>
</g>
<!-- Node2&#45;&gt;Node3 -->
<g id="edge2" class="edge">
<title>Node2&#45;&gt;Node3</title>
<path fill="none" stroke="midnightblue" d="M265.89,-78.49C233.3,-68.79 189.23,-55.68 151.74,-44.53"/>
<polygon fill="midnightblue" stroke="midnightblue" points="152.45,-41.09 141.86,-41.59 150.45,-47.8 152.45,-41.09"/>
</g>
<!-- Node94 -->
<g id="node4" class="node">
<title>Node94</title>
<g id="a_node4"><a xlink:href="coroutine_8h.html" target="_top" xlink:title=" ">
<polygon fill="white" stroke="red" points="170.5,-6 170.5,-36 303.5,-36 303.5,-6 170.5,-6"/>
<text text-anchor="start" x="178.5" y="-24" font-family="Helvetica,sans-Serif" font-size="10.00">emlabcpp/experimental</text>
<text text-anchor="middle" x="237" y="-13" font-family="Helvetica,sans-Serif" font-size="10.00">/testing/coroutine.h</text>
</a>
</g>
</g>
<!-- Node2&#45;&gt;Node94 -->
<g id="edge3" class="edge">
<title>Node2&#45;&gt;Node94</title>
<path fill="none" stroke="midnightblue" d="M297.62,-78.23C286.73,-68.13 271.95,-54.42 259.71,-43.07"/>
<polygon fill="midnightblue" stroke="midnightblue" points="261.81,-40.24 252.1,-36 257.05,-45.37 261.81,-40.24"/>
</g>
<!-- Node83 -->
<g id="node5" class="node">
<title>Node83</title>
<g id="a_node5"><a xlink:href="aliases_8h.html" target="_top" xlink:title=" ">
<polygon fill="white" stroke="red" points="322,-11.5 322,-30.5 456,-30.5 456,-11.5 322,-11.5"/>
<text text-anchor="middle" x="389" y="-18.5" font-family="Helvetica,sans-Serif" font-size="10.00">emlabcpp/pmr/aliases.h</text>
</a>
</g>
</g>
<!-- Node2&#45;&gt;Node83 -->
<g id="edge4" class="edge">
<title>Node2&#45;&gt;Node83</title>
<path fill="none" stroke="midnightblue" d="M328.38,-78.23C341.02,-66.5 358.92,-49.9 371.99,-37.78"/>
<polygon fill="midnightblue" stroke="midnightblue" points="374.46,-40.26 379.41,-30.89 369.7,-35.13 374.46,-40.26"/>
</g>
<!-- Node81 -->
<g id="node7" class="node">
<title>Node81</title>
<g id="a_node7"><a xlink:href="experimental_2testing_2base_8h.html" target="_top" xlink:title=" ">
<polygon fill="white" stroke="red" points="474.5,-6 474.5,-36 607.5,-36 607.5,-6 474.5,-6"/>
<text text-anchor="start" x="482.5" y="-24" font-family="Helvetica,sans-Serif" font-size="10.00">emlabcpp/experimental</text>
<text text-anchor="middle" x="541" y="-13" font-family="Helvetica,sans-Serif" font-size="10.00">/testing/base.h</text>
</a>
</g>
</g>
<!-- Node101&#45;&gt;Node81 -->
<g id="edge6" class="edge">
<title>Node101&#45;&gt;Node81</title>
<path fill="none" stroke="midnightblue" d="M594.44,-78.23C585,-68.3 572.23,-54.86 561.54,-43.61"/>
<polygon fill="midnightblue" stroke="midnightblue" points="563.96,-41.08 554.54,-36.25 558.89,-45.91 563.96,-41.08"/>
</g>
<!-- Node85 -->
<g id="node8" class="node">
<title>Node85</title>
<g id="a_node8"><a xlink:href="memory__resource_8h.html" target="_top" xlink:title=" ">
<polygon fill="white" stroke="red" points="700.5,-6 700.5,-36 831.5,-36 831.5,-6 700.5,-6"/>
<text text-anchor="start" x="708.5" y="-24" font-family="Helvetica,sans-Serif" font-size="10.00">emlabcpp/pmr/memory</text>
<text text-anchor="middle" x="766" y="-13" font-family="Helvetica,sans-Serif" font-size="10.00">_resource.h</text>
</a>
</g>
</g>
<!-- Node101&#45;&gt;Node85 -->
<g id="edge7" class="edge">
<title>Node101&#45;&gt;Node85</title>
<path fill="none" stroke="midnightblue" d="M639.59,-78.4C664.14,-67.45 698.37,-52.18 725.02,-40.29"/>
<polygon fill="midnightblue" stroke="midnightblue" points="726.75,-43.34 734.46,-36.07 723.9,-36.95 726.75,-43.34"/>
</g>
<!-- Node42 -->
<g id="node9" class="node">
<title>Node42</title>
<g id="a_node9"><a xlink:title=" ">
<polygon fill="white" stroke="#bfbfbf" points="626,-11.5 626,-30.5 682,-30.5 682,-11.5 626,-11.5"/>
<text text-anchor="middle" x="654" y="-18.5" font-family="Helvetica,sans-Serif" font-size="10.00">optional</text>
</a>
</g>
</g>
<!-- Node101&#45;&gt;Node42 -->
<g id="edge8" class="edge">
<title>Node101&#45;&gt;Node42</title>
<path fill="none" stroke="midnightblue" d="M617.31,-78.23C624.6,-67.06 634.78,-51.46 642.57,-39.52"/>
<polygon fill="midnightblue" stroke="midnightblue" points="645.66,-41.18 648.2,-30.89 639.8,-37.36 645.66,-41.18"/>
</g>
<!-- Node102&#45;&gt;Node85 -->
<g id="edge10" class="edge">
<title>Node102&#45;&gt;Node85</title>
<path fill="none" stroke="midnightblue" d="M766,-78.23C766,-69.16 766,-57.16 766,-46.58"/>
<polygon fill="midnightblue" stroke="midnightblue" points="769.5,-46.25 766,-36.25 762.5,-46.25 769.5,-46.25"/>
</g>
</g>
</svg>
