<?xml version="1.0" encoding="UTF-8" standalone="no"?>
<!DOCTYPE svg PUBLIC "-//W3C//DTD SVG 1.1//EN"
 "http://www.w3.org/Graphics/SVG/1.1/DTD/svg11.dtd">
<!-- Generated by graphviz version 2.43.0 (0)
 -->
<!-- Title: include/emlabcpp/experimental/testing/gtest.h Pages: 1 -->
<svg width="1149pt" height="363pt"
 viewBox="0.00 0.00 1149.00 363.00" xmlns="http://www.w3.org/2000/svg" xmlns:xlink="http://www.w3.org/1999/xlink">
<g id="graph0" class="graph" transform="scale(1 1) rotate(0) translate(4 359)">
<title>include/emlabcpp/experimental/testing/gtest.h</title>
<polygon fill="white" stroke="transparent" points="-4,4 -4,-359 1145,-359 1145,4 -4,4"/>
<!-- Node1 -->
<g id="node1" class="node">
<title>Node1</title>
<g id="a_node1"><a xlink:title=" ">
<polygon fill="#bfbfbf" stroke="black" points="666,-324.5 666,-354.5 837,-354.5 837,-324.5 666,-324.5"/>
<text text-anchor="start" x="674" y="-342.5" font-family="Helvetica,sans-Serif" font-size="10.00">include/emlabcpp/experimental</text>
<text text-anchor="middle" x="751.5" y="-331.5" font-family="Helvetica,sans-Serif" font-size="10.00">/testing/gtest.h</text>
</a>
</g>
</g>
<!-- Node2 -->
<g id="node2" class="node">
<title>Node2</title>
<g id="a_node2"><a xlink:href="experimental_2testing_2base_8h.html" target="_top" xlink:title=" ">
<polygon fill="white" stroke="black" points="596,-185 596,-215 729,-215 729,-185 596,-185"/>
<text text-anchor="start" x="604" y="-203" font-family="Helvetica,sans-Serif" font-size="10.00">emlabcpp/experimental</text>
<text text-anchor="middle" x="662.5" y="-192" font-family="Helvetica,sans-Serif" font-size="10.00">/testing/base.h</text>
</a>
</g>
</g>
<!-- Node1&#45;&gt;Node2 -->
<g id="edge1" class="edge">
<title>Node1&#45;&gt;Node2</title>
<path fill="none" stroke="midnightblue" d="M738.95,-324.44C730.44,-314.59 719.21,-300.92 710.5,-288 696.51,-267.24 682.95,-242.06 673.84,-224.14"/>
<polygon fill="midnightblue" stroke="midnightblue" points="676.87,-222.38 669.26,-215.01 670.61,-225.51 676.87,-222.38"/>
</g>
<!-- Node58 -->
<g id="node12" class="node">
<title>Node58</title>
<g id="a_node12"><a xlink:href="controller_8h.html" target="_top" xlink:title=" ">
<polygon fill="white" stroke="black" points="429,-257.5 429,-287.5 562,-287.5 562,-257.5 429,-257.5"/>
<text text-anchor="start" x="437" y="-275.5" font-family="Helvetica,sans-Serif" font-size="10.00">emlabcpp/experimental</text>
<text text-anchor="middle" x="495.5" y="-264.5" font-family="Helvetica,sans-Serif" font-size="10.00">/testing/controller.h</text>
</a>
</g>
</g>
<!-- Node1&#45;&gt;Node58 -->
<g id="edge14" class="edge">
<title>Node1&#45;&gt;Node58</title>
<path fill="none" stroke="midnightblue" d="M696.27,-324.48C656.53,-314.39 602.79,-300.74 560.91,-290.11"/>
<polygon fill="midnightblue" stroke="midnightblue" points="561.63,-286.68 551.08,-287.61 559.91,-293.46 561.63,-286.68"/>
</g>
<!-- Node96 -->
<g id="node16" class="node">
<title>Node96</title>
<g id="a_node16"><a xlink:href="testing_2json_8h.html" target="_top" xlink:title=" ">
<polygon fill="white" stroke="black" points="719,-257.5 719,-287.5 852,-287.5 852,-257.5 719,-257.5"/>
<text text-anchor="start" x="727" y="-275.5" font-family="Helvetica,sans-Serif" font-size="10.00">emlabcpp/experimental</text>
<text text-anchor="middle" x="785.5" y="-264.5" font-family="Helvetica,sans-Serif" font-size="10.00">/testing/json.h</text>
</a>
</g>
</g>
<!-- Node1&#45;&gt;Node96 -->
<g id="edge22" class="edge">
<title>Node1&#45;&gt;Node96</title>
<path fill="none" stroke="midnightblue" d="M758.88,-324.4C763.11,-316.3 768.53,-305.94 773.37,-296.69"/>
<polygon fill="midnightblue" stroke="midnightblue" points="776.6,-298.06 778.14,-287.58 770.4,-294.82 776.6,-298.06"/>
</g>
<!-- Node97 -->
<g id="node20" class="node">
<title>Node97</title>
<g id="a_node20"><a xlink:href="new__delete__resource_8h.html" target="_top" xlink:title=" ">
<polygon fill="white" stroke="black" points="943.5,-257.5 943.5,-287.5 1089.5,-287.5 1089.5,-257.5 943.5,-257.5"/>
<text text-anchor="start" x="951.5" y="-275.5" font-family="Helvetica,sans-Serif" font-size="10.00">emlabcpp/pmr/new_delete</text>
<text text-anchor="middle" x="1016.5" y="-264.5" font-family="Helvetica,sans-Serif" font-size="10.00">_resource.h</text>
</a>
</g>
</g>
<!-- Node1&#45;&gt;Node97 -->
<g id="edge28" class="edge">
<title>Node1&#45;&gt;Node97</title>
<path fill="none" stroke="midnightblue" d="M808.67,-324.48C849.89,-314.37 905.67,-300.68 949.07,-290.04"/>
<polygon fill="midnightblue" stroke="midnightblue" points="950.09,-293.39 958.97,-287.61 948.42,-286.59 950.09,-293.39"/>
</g>
<!-- Node3 -->
<g id="node3" class="node">
<title>Node3</title>
<g id="a_node3"><a xlink:href="algorithm_8h.html" target="_top" xlink:title=" ">
<polygon fill="white" stroke="red" points="941.5,-56.5 941.5,-75.5 1065.5,-75.5 1065.5,-56.5 941.5,-56.5"/>
<text text-anchor="middle" x="1003.5" y="-63.5" font-family="Helvetica,sans-Serif" font-size="10.00">emlabcpp/algorithm.h</text>
</a>
</g>
</g>
<!-- Node2&#45;&gt;Node3 -->
<g id="edge2" class="edge">
<title>Node2&#45;&gt;Node3</title>
<path fill="none" stroke="midnightblue" d="M718.22,-184.98C726.68,-182.93 735.31,-180.88 743.5,-179 818.78,-161.74 844.13,-176.94 913.5,-143 929.63,-135.11 965.96,-102.3 987.21,-82.46"/>
<polygon fill="midnightblue" stroke="midnightblue" points="989.65,-84.97 994.53,-75.57 984.85,-79.87 989.65,-84.97"/>
</g>
<!-- Node29 -->
<g id="node4" class="node">
<title>Node29</title>
<g id="a_node4"><a xlink:href="tree_8h.html" target="_top" xlink:title=" ">
<polygon fill="white" stroke="red" points="356,-112.5 356,-142.5 489,-142.5 489,-112.5 356,-112.5"/>
<text text-anchor="start" x="364" y="-130.5" font-family="Helvetica,sans-Serif" font-size="10.00">emlabcpp/experimental</text>
<text text-anchor="middle" x="422.5" y="-119.5" font-family="Helvetica,sans-Serif" font-size="10.00">/contiguous_tree/tree.h</text>
</a>
</g>
</g>
<!-- Node2&#45;&gt;Node29 -->
<g id="edge3" class="edge">
<title>Node2&#45;&gt;Node29</title>
<path fill="none" stroke="midnightblue" d="M614.8,-184.99C576.07,-173.61 521.33,-157.53 480.15,-145.43"/>
<polygon fill="midnightblue" stroke="midnightblue" points="481.1,-142.07 470.52,-142.61 479.13,-148.78 481.1,-142.07"/>
</g>
<!-- Node47 -->
<g id="node6" class="node">
<title>Node47</title>
<g id="a_node6"><a xlink:title=" ">
<polygon fill="white" stroke="#bfbfbf" points="450.5,-0.5 450.5,-19.5 488.5,-19.5 488.5,-0.5 450.5,-0.5"/>
<text text-anchor="middle" x="469.5" y="-7.5" font-family="Helvetica,sans-Serif" font-size="10.00">map</text>
</a>
</g>
</g>
<!-- Node2&#45;&gt;Node47 -->
<g id="edge11" class="edge">
<title>Node2&#45;&gt;Node47</title>
<path fill="none" stroke="midnightblue" d="M712.41,-184.93C719.81,-182.91 727.35,-180.87 734.5,-179 803.56,-160.9 921.34,-170.56 880.5,-112 836.12,-48.35 585.19,-20.98 498.76,-13.35"/>
<polygon fill="midnightblue" stroke="midnightblue" points="498.86,-9.84 488.6,-12.48 498.26,-16.82 498.86,-9.84"/>
</g>
<!-- Node52 -->
<g id="node7" class="node">
<title>Node52</title>
<g id="a_node7"><a xlink:href="string__buffer_8h.html" target="_top" xlink:title=" ">
<polygon fill="white" stroke="red" points="669,-112.5 669,-142.5 802,-142.5 802,-112.5 669,-112.5"/>
<text text-anchor="start" x="677" y="-130.5" font-family="Helvetica,sans-Serif" font-size="10.00">emlabcpp/experimental</text>
<text text-anchor="middle" x="735.5" y="-119.5" font-family="Helvetica,sans-Serif" font-size="10.00">/string_buffer.h</text>
</a>
</g>
</g>
<!-- Node2&#45;&gt;Node52 -->
<g id="edge7" class="edge">
<title>Node2&#45;&gt;Node52</title>
<path fill="none" stroke="midnightblue" d="M677.27,-184.73C687.66,-174.7 701.74,-161.1 713.46,-149.79"/>
<polygon fill="midnightblue" stroke="midnightblue" points="715.99,-152.21 720.75,-142.75 711.12,-147.17 715.99,-152.21"/>
</g>
<!-- Node53 -->
<g id="node8" class="node">
<title>Node53</title>
<g id="a_node8"><a xlink:title=" ">
<polygon fill="white" stroke="#bfbfbf" points="655.5,-56.5 655.5,-75.5 719.5,-75.5 719.5,-56.5 655.5,-56.5"/>
<text text-anchor="middle" x="687.5" y="-63.5" font-family="Helvetica,sans-Serif" font-size="10.00">algorithm</text>
</a>
</g>
</g>
<!-- Node2&#45;&gt;Node53 -->
<g id="edge10" class="edge">
<title>Node2&#45;&gt;Node53</title>
<path fill="none" stroke="midnightblue" d="M659.7,-184.83C656.81,-167.35 653.6,-136.9 660.5,-112 663.29,-101.92 669.01,-91.83 674.47,-83.77"/>
<polygon fill="midnightblue" stroke="midnightblue" points="677.32,-85.79 680.35,-75.64 671.65,-81.69 677.32,-85.79"/>
</g>
<!-- Node56 -->
<g id="node9" class="node">
<title>Node56</title>
<g id="a_node9"><a xlink:href="static__function_8h.html" target="_top" xlink:title=" ">
<polygon fill="white" stroke="red" points="189,-118 189,-137 338,-137 338,-118 189,-118"/>
<text text-anchor="middle" x="263.5" y="-125" font-family="Helvetica,sans-Serif" font-size="10.00">emlabcpp/static_function.h</text>
</a>
</g>
</g>
<!-- Node2&#45;&gt;Node56 -->
<g id="edge9" class="edge">
<title>Node2&#45;&gt;Node56</title>
<path fill="none" stroke="midnightblue" d="M595.72,-187.2C519.02,-173.65 394.41,-151.63 321.58,-138.76"/>
<polygon fill="midnightblue" stroke="midnightblue" points="322.11,-135.3 311.66,-137.01 320.9,-142.2 322.11,-135.3"/>
</g>
<!-- Node57 -->
<g id="node10" class="node">
<title>Node57</title>
<g id="a_node10"><a xlink:title=" ">
<polygon fill="white" stroke="#bfbfbf" points="507,-118 507,-137 612,-137 612,-118 507,-118"/>
<text text-anchor="middle" x="559.5" y="-125" font-family="Helvetica,sans-Serif" font-size="10.00">memory_resource</text>
</a>
</g>
</g>
<!-- Node2&#45;&gt;Node57 -->
<g id="edge12" class="edge">
<title>Node2&#45;&gt;Node57</title>
<path fill="none" stroke="midnightblue" d="M641.66,-184.73C623.94,-172.6 598.6,-155.26 580.76,-143.05"/>
<polygon fill="midnightblue" stroke="midnightblue" points="582.43,-139.95 572.2,-137.19 578.47,-145.73 582.43,-139.95"/>
</g>
<!-- Node16 -->
<g id="node11" class="node">
<title>Node16</title>
<g id="a_node11"><a xlink:title=" ">
<polygon fill="white" stroke="#bfbfbf" points="820,-118 820,-137 871,-137 871,-118 820,-118"/>
<text text-anchor="middle" x="845.5" y="-125" font-family="Helvetica,sans-Serif" font-size="10.00">variant</text>
</a>
</g>
</g>
<!-- Node2&#45;&gt;Node16 -->
<g id="edge13" class="edge">
<title>Node2&#45;&gt;Node16</title>
<path fill="none" stroke="midnightblue" d="M701.27,-184.96C731.45,-173.9 774.31,-157.91 811.5,-143 813.1,-142.36 814.73,-141.69 816.38,-141.02"/>
<polygon fill="midnightblue" stroke="midnightblue" points="817.91,-144.17 825.78,-137.08 815.21,-137.71 817.91,-144.17"/>
</g>
<!-- Node39 -->
<g id="node5" class="node">
<title>Node39</title>
<g id="a_node5"><a xlink:href="aliases_8h.html" target="_top" xlink:title=" ">
<polygon fill="white" stroke="red" points="307.5,-56.5 307.5,-75.5 441.5,-75.5 441.5,-56.5 307.5,-56.5"/>
<text text-anchor="middle" x="374.5" y="-63.5" font-family="Helvetica,sans-Serif" font-size="10.00">emlabcpp/pmr/aliases.h</text>
</a>
</g>
</g>
<!-- Node29&#45;&gt;Node39 -->
<g id="edge4" class="edge">
<title>Node29&#45;&gt;Node39</title>
<path fill="none" stroke="midnightblue" d="M411.12,-112.4C404.15,-103.75 395.19,-92.64 387.87,-83.58"/>
<polygon fill="midnightblue" stroke="midnightblue" points="390.49,-81.24 381.48,-75.66 385.04,-85.64 390.49,-81.24"/>
</g>
<!-- Node29&#45;&gt;Node47 -->
<g id="edge6" class="edge">
<title>Node29&#45;&gt;Node47</title>
<path fill="none" stroke="midnightblue" d="M431.47,-112.34C437.45,-102.44 445.17,-88.77 450.5,-76 456.87,-60.74 461.97,-42.63 465.28,-29.41"/>
<polygon fill="midnightblue" stroke="midnightblue" points="468.7,-30.16 467.63,-19.62 461.89,-28.53 468.7,-30.16"/>
</g>
<!-- Node39&#45;&gt;Node47 -->
<g id="edge5" class="edge">
<title>Node39&#45;&gt;Node47</title>
<path fill="none" stroke="midnightblue" d="M389.76,-56.32C404.72,-47.82 427.75,-34.73 445.23,-24.8"/>
<polygon fill="midnightblue" stroke="midnightblue" points="447.31,-27.64 454.27,-19.65 443.85,-21.55 447.31,-27.64"/>
</g>
<!-- Node52&#45;&gt;Node53 -->
<g id="edge8" class="edge">
<title>Node52&#45;&gt;Node53</title>
<path fill="none" stroke="midnightblue" d="M724.12,-112.4C717.15,-103.75 708.19,-92.64 700.87,-83.58"/>
<polygon fill="midnightblue" stroke="midnightblue" points="703.49,-81.24 694.48,-75.66 698.04,-85.64 703.49,-81.24"/>
</g>
<!-- Node58&#45;&gt;Node2 -->
<g id="edge15" class="edge">
<title>Node58&#45;&gt;Node2</title>
<path fill="none" stroke="midnightblue" d="M528.89,-257.4C555.06,-246.36 591.65,-230.91 619.92,-218.97"/>
<polygon fill="midnightblue" stroke="midnightblue" points="621.31,-222.19 629.16,-215.07 618.59,-215.74 621.31,-222.19"/>
</g>
<!-- Node58&#45;&gt;Node39 -->
<g id="edge19" class="edge">
<title>Node58&#45;&gt;Node39</title>
<path fill="none" stroke="midnightblue" d="M428.93,-267.36C351.82,-258.45 229.03,-230.48 179.5,-143 151.36,-93.3 231.29,-75.98 297.19,-70.01"/>
<polygon fill="midnightblue" stroke="midnightblue" points="297.53,-73.5 307.21,-69.18 296.95,-66.52 297.53,-73.5"/>
</g>
<!-- Node59 -->
<g id="node13" class="node">
<title>Node59</title>
<g id="a_node13"><a xlink:href="controller__interface__adapter_8h.html" target="_top" xlink:title=" ">
<polygon fill="white" stroke="red" points="318.5,-179.5 318.5,-220.5 470.5,-220.5 470.5,-179.5 318.5,-179.5"/>
<text text-anchor="start" x="326.5" y="-208.5" font-family="Helvetica,sans-Serif" font-size="10.00">emlabcpp/experimental</text>
<text text-anchor="start" x="326.5" y="-197.5" font-family="Helvetica,sans-Serif" font-size="10.00">/testing/controller_interface</text>
<text text-anchor="middle" x="394.5" y="-186.5" font-family="Helvetica,sans-Serif" font-size="10.00">_adapter.h</text>
</a>
</g>
</g>
<!-- Node58&#45;&gt;Node59 -->
<g id="edge16" class="edge">
<title>Node58&#45;&gt;Node59</title>
<path fill="none" stroke="midnightblue" d="M475.06,-257.23C462.44,-248.42 445.87,-236.86 431.05,-226.51"/>
<polygon fill="midnightblue" stroke="midnightblue" points="432.77,-223.44 422.56,-220.59 428.76,-229.18 432.77,-223.44"/>
</g>
<!-- Node91 -->
<g id="node14" class="node">
<title>Node91</title>
<g id="a_node14"><a xlink:href="coroutine_8h.html" target="_top" xlink:title=" ">
<polygon fill="white" stroke="red" points="0,-185 0,-215 133,-215 133,-185 0,-185"/>
<text text-anchor="start" x="8" y="-203" font-family="Helvetica,sans-Serif" font-size="10.00">emlabcpp/experimental</text>
<text text-anchor="middle" x="66.5" y="-192" font-family="Helvetica,sans-Serif" font-size="10.00">/testing/coroutine.h</text>
</a>
</g>
</g>
<!-- Node58&#45;&gt;Node91 -->
<g id="edge18" class="edge">
<title>Node58&#45;&gt;Node91</title>
<path fill="none" stroke="midnightblue" d="M428.78,-263.79C358.49,-255.21 244.71,-240.01 147.5,-221 141.85,-219.9 136.01,-218.65 130.17,-217.34"/>
<polygon fill="midnightblue" stroke="midnightblue" points="130.89,-213.92 120.36,-215.08 129.32,-220.74 130.89,-213.92"/>
</g>
<!-- Node42 -->
<g id="node15" class="node">
<title>Node42</title>
<g id="a_node15"><a xlink:href="result_8h.html" target="_top" xlink:title=" ">
<polygon fill="white" stroke="red" points="965.5,-118 965.5,-137 1069.5,-137 1069.5,-118 965.5,-118"/>
<text text-anchor="middle" x="1017.5" y="-125" font-family="Helvetica,sans-Serif" font-size="10.00">emlabcpp/result.h</text>
</a>
</g>
</g>
<!-- Node58&#45;&gt;Node42 -->
<g id="edge20" class="edge">
<title>Node58&#45;&gt;Node42</title>
<path fill="none" stroke="midnightblue" d="M562.09,-268.79C613.28,-264.17 684.19,-252.11 738.5,-221 760.34,-208.49 754.67,-191.53 776.5,-179 778.58,-177.81 895.82,-153.54 965.99,-139.09"/>
<polygon fill="midnightblue" stroke="midnightblue" points="966.89,-142.48 975.98,-137.03 965.48,-135.62 966.89,-142.48"/>
</g>
<!-- Node59&#45;&gt;Node56 -->
<g id="edge17" class="edge">
<title>Node59&#45;&gt;Node56</title>
<path fill="none" stroke="midnightblue" d="M358.01,-179.36C335.89,-167.46 308.24,-152.58 288.57,-141.99"/>
<polygon fill="midnightblue" stroke="midnightblue" points="290.08,-138.83 279.62,-137.17 286.76,-144.99 290.08,-138.83"/>
</g>
<!-- Node42&#45;&gt;Node3 -->
<g id="edge21" class="edge">
<title>Node42&#45;&gt;Node3</title>
<path fill="none" stroke="midnightblue" d="M1015.49,-117.98C1013.5,-109.49 1010.37,-96.2 1007.81,-85.32"/>
<polygon fill="midnightblue" stroke="midnightblue" points="1011.2,-84.44 1005.5,-75.51 1004.39,-86.04 1011.2,-84.44"/>
</g>
<!-- Node96&#45;&gt;Node2 -->
<g id="edge23" class="edge">
<title>Node96&#45;&gt;Node2</title>
<path fill="none" stroke="midnightblue" d="M760.9,-257.4C742.22,-246.69 716.32,-231.85 695.78,-220.07"/>
<polygon fill="midnightblue" stroke="midnightblue" points="697.47,-217.01 687.05,-215.07 693.99,-223.08 697.47,-217.01"/>
</g>
<!-- Node41 -->
<g id="node17" class="node">
<title>Node41</title>
<g id="a_node17"><a xlink:href="memory__resource_8h.html" target="_top" xlink:title=" ">
<polygon fill="white" stroke="black" points="900,-185 900,-215 1031,-215 1031,-185 900,-185"/>
<text text-anchor="start" x="908" y="-203" font-family="Helvetica,sans-Serif" font-size="10.00">emlabcpp/pmr/memory</text>
<text text-anchor="middle" x="965.5" y="-192" font-family="Helvetica,sans-Serif" font-size="10.00">_resource.h</text>
</a>
</g>
</g>
<!-- Node96&#45;&gt;Node41 -->
<g id="edge24" class="edge">
<title>Node96&#45;&gt;Node41</title>
<path fill="none" stroke="midnightblue" d="M821.49,-257.4C849.82,-246.31 889.48,-230.78 920,-218.82"/>
<polygon fill="midnightblue" stroke="midnightblue" points="921.53,-221.98 929.57,-215.07 918.98,-215.46 921.53,-221.98"/>
</g>
<!-- Node19 -->
<g id="node19" class="node">
<title>Node19</title>
<g id="a_node19"><a xlink:title=" ">
<polygon fill="white" stroke="#bfbfbf" points="785.5,-190.5 785.5,-209.5 841.5,-209.5 841.5,-190.5 785.5,-190.5"/>
<text text-anchor="middle" x="813.5" y="-197.5" font-family="Helvetica,sans-Serif" font-size="10.00">optional</text>
</a>
</g>
</g>
<!-- Node96&#45;&gt;Node19 -->
<g id="edge27" class="edge">
<title>Node96&#45;&gt;Node19</title>
<path fill="none" stroke="midnightblue" d="M791.17,-257.23C795.52,-246.28 801.56,-231.07 806.26,-219.24"/>
<polygon fill="midnightblue" stroke="midnightblue" points="809.53,-220.48 809.97,-209.89 803.02,-217.9 809.53,-220.48"/>
</g>
<!-- Node41&#45;&gt;Node42 -->
<g id="edge25" class="edge">
<title>Node41&#45;&gt;Node42</title>
<path fill="none" stroke="midnightblue" d="M976.02,-184.73C984.35,-173.45 996,-157.65 1004.83,-145.67"/>
<polygon fill="midnightblue" stroke="midnightblue" points="1007.82,-147.52 1010.94,-137.39 1002.19,-143.36 1007.82,-147.52"/>
</g>
<!-- Node34 -->
<g id="node18" class="node">
<title>Node34</title>
<g id="a_node18"><a xlink:title=" ">
<polygon fill="white" stroke="#bfbfbf" points="1088,-118 1088,-137 1141,-137 1141,-118 1088,-118"/>
<text text-anchor="middle" x="1114.5" y="-125" font-family="Helvetica,sans-Serif" font-size="10.00">cstddef</text>
</a>
</g>
</g>
<!-- Node41&#45;&gt;Node34 -->
<g id="edge26" class="edge">
<title>Node41&#45;&gt;Node34</title>
<path fill="none" stroke="midnightblue" d="M995.29,-184.9C1022.1,-172.22 1061.17,-153.73 1087.18,-141.42"/>
<polygon fill="midnightblue" stroke="midnightblue" points="1088.92,-144.47 1096.46,-137.03 1085.93,-138.15 1088.92,-144.47"/>
</g>
<!-- Node97&#45;&gt;Node41 -->
<g id="edge29" class="edge">
<title>Node97&#45;&gt;Node41</title>
<path fill="none" stroke="midnightblue" d="M1006.18,-257.23C999.2,-247.58 989.83,-234.63 981.84,-223.59"/>
<polygon fill="midnightblue" stroke="midnightblue" points="984.5,-221.3 975.81,-215.25 978.83,-225.4 984.5,-221.3"/>
</g>
<!-- Node97&#45;&gt;Node34 -->
<g id="edge30" class="edge">
<title>Node97&#45;&gt;Node34</title>
<path fill="none" stroke="midnightblue" d="M1050.73,-257.31C1066.68,-249 1084.53,-236.96 1095.5,-221 1110.64,-198.98 1114.2,-167.5 1114.79,-147.53"/>
<polygon fill="midnightblue" stroke="midnightblue" points="1118.3,-147.29 1114.86,-137.27 1111.3,-147.24 1118.3,-147.29"/>
</g>
<!-- Node44 -->
<g id="node21" class="node">
<title>Node44</title>
<g id="a_node21"><a xlink:title=" ">
<polygon fill="white" stroke="#bfbfbf" points="1049,-190.5 1049,-209.5 1086,-209.5 1086,-190.5 1049,-190.5"/>
<text text-anchor="middle" x="1067.5" y="-197.5" font-family="Helvetica,sans-Serif" font-size="10.00">new</text>
</a>
</g>
</g>
<!-- Node97&#45;&gt;Node44 -->
<g id="edge31" class="edge">
<title>Node97&#45;&gt;Node44</title>
<path fill="none" stroke="midnightblue" d="M1026.82,-257.23C1034.98,-245.95 1046.41,-230.15 1055.08,-218.17"/>
<polygon fill="midnightblue" stroke="midnightblue" points="1058.04,-220.05 1061.07,-209.89 1052.37,-215.94 1058.04,-220.05"/>
</g>
</g>
</svg>
