<?xml version="1.0" encoding="UTF-8" standalone="no"?>
<!DOCTYPE svg PUBLIC "-//W3C//DTD SVG 1.1//EN"
 "http://www.w3.org/Graphics/SVG/1.1/DTD/svg11.dtd">
<!-- Generated by graphviz version 2.43.0 (0)
 -->
<!-- Title: include/emlabcpp/protocol/handler.h Pages: 1 -->
<svg width="927pt" height="274pt"
 viewBox="0.00 0.00 927.00 274.00" xmlns="http://www.w3.org/2000/svg" xmlns:xlink="http://www.w3.org/1999/xlink">
<g id="graph0" class="graph" transform="scale(1 1) rotate(0) translate(4 270)">
<title>include/emlabcpp/protocol/handler.h</title>
<polygon fill="white" stroke="transparent" points="-4,4 -4,-270 923,-270 923,4 -4,4"/>
<!-- Node1 -->
<g id="node1" class="node">
<title>Node1</title>
<g id="a_node1"><a xlink:title=" ">
<polygon fill="#bfbfbf" stroke="black" points="400,-235.5 400,-265.5 546,-265.5 546,-235.5 400,-235.5"/>
<text text-anchor="start" x="408" y="-253.5" font-family="Helvetica,sans-Serif" font-size="10.00">include/emlabcpp/protocol</text>
<text text-anchor="middle" x="473" y="-242.5" font-family="Helvetica,sans-Serif" font-size="10.00">/handler.h</text>
</a>
</g>
</g>
<!-- Node2 -->
<g id="node2" class="node">
<title>Node2</title>
<g id="a_node2"><a xlink:href="either_8h.html" target="_top" xlink:title=" ">
<polygon fill="white" stroke="black" points="0,-123.5 0,-142.5 104,-142.5 104,-123.5 0,-123.5"/>
<text text-anchor="middle" x="52" y="-130.5" font-family="Helvetica,sans-Serif" font-size="10.00">emlabcpp/either.h</text>
</a>
</g>
</g>
<!-- Node1&#45;&gt;Node2 -->
<g id="edge1" class="edge">
<title>Node1&#45;&gt;Node2</title>
<path fill="none" stroke="midnightblue" d="M421.8,-235.45C337.28,-212.27 170.26,-166.44 92.99,-145.24"/>
<polygon fill="midnightblue" stroke="midnightblue" points="93.71,-141.81 83.14,-142.54 91.85,-148.56 93.71,-141.81"/>
</g>
<!-- Node20 -->
<g id="node6" class="node">
<title>Node20</title>
<g id="a_node6"><a xlink:href="types_8h.html" target="_top" xlink:title=" ">
<polygon fill="white" stroke="red" points="406,-62 406,-81 510,-81 510,-62 406,-62"/>
<text text-anchor="middle" x="458" y="-69" font-family="Helvetica,sans-Serif" font-size="10.00">emlabcpp/types.h</text>
</a>
</g>
</g>
<!-- Node1&#45;&gt;Node20 -->
<g id="edge24" class="edge">
<title>Node1&#45;&gt;Node20</title>
<path fill="none" stroke="midnightblue" d="M535.45,-235.49C607.93,-216.33 712.33,-177.93 669,-123 650.72,-99.82 575.72,-86.1 520.31,-78.94"/>
<polygon fill="midnightblue" stroke="midnightblue" points="520.57,-75.44 510.22,-77.67 519.7,-82.39 520.57,-75.44"/>
</g>
<!-- Node30 -->
<g id="node9" class="node">
<title>Node30</title>
<g id="a_node9"><a xlink:href="converter_8h.html" target="_top" xlink:title=" ">
<polygon fill="white" stroke="black" points="390.5,-179.5 390.5,-198.5 555.5,-198.5 555.5,-179.5 390.5,-179.5"/>
<text text-anchor="middle" x="473" y="-186.5" font-family="Helvetica,sans-Serif" font-size="10.00">emlabcpp/protocol/converter.h</text>
</a>
</g>
</g>
<!-- Node1&#45;&gt;Node30 -->
<g id="edge10" class="edge">
<title>Node1&#45;&gt;Node30</title>
<path fill="none" stroke="midnightblue" d="M473,-235.4C473,-227.47 473,-217.46 473,-208.86"/>
<polygon fill="midnightblue" stroke="midnightblue" points="476.5,-208.66 473,-198.66 469.5,-208.66 476.5,-208.66"/>
</g>
<!-- Node3 -->
<g id="node3" class="node">
<title>Node3</title>
<g id="a_node3"><a xlink:href="static__vector_8h.html" target="_top" xlink:title=" ">
<polygon fill="white" stroke="red" points="99.5,-62 99.5,-81 238.5,-81 238.5,-62 99.5,-62"/>
<text text-anchor="middle" x="169" y="-69" font-family="Helvetica,sans-Serif" font-size="10.00">emlabcpp/static_vector.h</text>
</a>
</g>
</g>
<!-- Node2&#45;&gt;Node3 -->
<g id="edge2" class="edge">
<title>Node2&#45;&gt;Node3</title>
<path fill="none" stroke="midnightblue" d="M68.76,-123.48C88.22,-113.58 120.55,-97.14 143.21,-85.62"/>
<polygon fill="midnightblue" stroke="midnightblue" points="144.94,-88.66 152.27,-81.01 141.77,-82.42 144.94,-88.66"/>
</g>
<!-- Node10 -->
<g id="node4" class="node">
<title>Node10</title>
<g id="a_node4"><a xlink:title=" ">
<polygon fill="white" stroke="#bfbfbf" points="28.5,-0.5 28.5,-19.5 97.5,-19.5 97.5,-0.5 28.5,-0.5"/>
<text text-anchor="middle" x="63" y="-7.5" font-family="Helvetica,sans-Serif" font-size="10.00">type_traits</text>
</a>
</g>
</g>
<!-- Node2&#45;&gt;Node10 -->
<g id="edge8" class="edge">
<title>Node2&#45;&gt;Node10</title>
<path fill="none" stroke="midnightblue" d="M52.39,-123.09C53.06,-108.88 54.59,-80.21 57,-56 57.86,-47.36 59.09,-37.83 60.21,-29.77"/>
<polygon fill="midnightblue" stroke="midnightblue" points="63.71,-30 61.68,-19.61 56.79,-29 63.71,-30"/>
</g>
<!-- Node29 -->
<g id="node5" class="node">
<title>Node29</title>
<g id="a_node5"><a xlink:title=" ">
<polygon fill="white" stroke="#bfbfbf" points="130.5,-0.5 130.5,-19.5 175.5,-19.5 175.5,-0.5 130.5,-0.5"/>
<text text-anchor="middle" x="153" y="-7.5" font-family="Helvetica,sans-Serif" font-size="10.00">utility</text>
</a>
</g>
</g>
<!-- Node2&#45;&gt;Node29 -->
<g id="edge9" class="edge">
<title>Node2&#45;&gt;Node29</title>
<path fill="none" stroke="midnightblue" d="M54.81,-123.22C59.94,-108.19 71.98,-77.08 90,-56 100.68,-43.5 115.54,-32.67 128.14,-24.77"/>
<polygon fill="midnightblue" stroke="midnightblue" points="130.06,-27.7 136.83,-19.56 126.45,-21.7 130.06,-27.7"/>
</g>
<!-- Node2&#45;&gt;Node20 -->
<g id="edge5" class="edge">
<title>Node2&#45;&gt;Node20</title>
<path fill="none" stroke="midnightblue" d="M104.23,-124.23C107.2,-123.81 110.14,-123.4 113,-123 236.85,-105.87 268.82,-108.43 392,-87 398.37,-85.89 405.06,-84.59 411.63,-83.22"/>
<polygon fill="midnightblue" stroke="midnightblue" points="412.75,-86.56 421.8,-81.05 411.29,-79.72 412.75,-86.56"/>
</g>
<!-- Node24 -->
<g id="node7" class="node">
<title>Node24</title>
<g id="a_node7"><a xlink:title=" ">
<polygon fill="white" stroke="#bfbfbf" points="261,-62 261,-81 317,-81 317,-62 261,-62"/>
<text text-anchor="middle" x="289" y="-69" font-family="Helvetica,sans-Serif" font-size="10.00">optional</text>
</a>
</g>
</g>
<!-- Node2&#45;&gt;Node24 -->
<g id="edge6" class="edge">
<title>Node2&#45;&gt;Node24</title>
<path fill="none" stroke="midnightblue" d="M94.94,-123.45C134.67,-115.22 195.24,-101.86 247,-87 249.94,-86.15 252.99,-85.22 256.03,-84.25"/>
<polygon fill="midnightblue" stroke="midnightblue" points="257.21,-87.55 265.59,-81.07 255,-80.9 257.21,-87.55"/>
</g>
<!-- Node9 -->
<g id="node8" class="node">
<title>Node9</title>
<g id="a_node8"><a xlink:title=" ">
<polygon fill="white" stroke="#bfbfbf" points="342.5,-62 342.5,-81 383.5,-81 383.5,-62 342.5,-62"/>
<text text-anchor="middle" x="363" y="-69" font-family="Helvetica,sans-Serif" font-size="10.00">tuple</text>
</a>
</g>
</g>
<!-- Node2&#45;&gt;Node9 -->
<g id="edge7" class="edge">
<title>Node2&#45;&gt;Node9</title>
<path fill="none" stroke="midnightblue" d="M104.27,-124.02C177.77,-112.72 305.05,-92.76 326,-87 328.59,-86.29 331.25,-85.46 333.9,-84.56"/>
<polygon fill="midnightblue" stroke="midnightblue" points="335.11,-87.84 343.29,-81.11 332.7,-81.27 335.11,-87.84"/>
</g>
<!-- Node3&#45;&gt;Node10 -->
<g id="edge3" class="edge">
<title>Node3&#45;&gt;Node10</title>
<path fill="none" stroke="midnightblue" d="M153.81,-61.98C136.34,-52.17 107.42,-35.93 86.92,-24.42"/>
<polygon fill="midnightblue" stroke="midnightblue" points="88.59,-21.35 78.16,-19.51 85.17,-27.46 88.59,-21.35"/>
</g>
<!-- Node3&#45;&gt;Node29 -->
<g id="edge4" class="edge">
<title>Node3&#45;&gt;Node29</title>
<path fill="none" stroke="midnightblue" d="M166.71,-61.98C164.43,-53.49 160.85,-40.2 157.93,-29.32"/>
<polygon fill="midnightblue" stroke="midnightblue" points="161.26,-28.26 155.29,-19.51 154.51,-30.07 161.26,-28.26"/>
</g>
<!-- Node30&#45;&gt;Node2 -->
<g id="edge15" class="edge">
<title>Node30&#45;&gt;Node2</title>
<path fill="none" stroke="midnightblue" d="M400.88,-179.46C330.43,-171.01 219.87,-157.46 114.42,-143.17"/>
<polygon fill="midnightblue" stroke="midnightblue" points="114.61,-139.66 104.23,-141.78 113.67,-146.6 114.61,-139.66"/>
</g>
<!-- Node31 -->
<g id="node10" class="node">
<title>Node31</title>
<g id="a_node10"><a xlink:href="algorithm_8h.html" target="_top" xlink:title=" ">
<polygon fill="white" stroke="red" points="411,-123.5 411,-142.5 535,-142.5 535,-123.5 411,-123.5"/>
<text text-anchor="middle" x="473" y="-130.5" font-family="Helvetica,sans-Serif" font-size="10.00">emlabcpp/algorithm.h</text>
</a>
</g>
</g>
<!-- Node30&#45;&gt;Node31 -->
<g id="edge11" class="edge">
<title>Node30&#45;&gt;Node31</title>
<path fill="none" stroke="midnightblue" d="M473,-179.08C473,-172.01 473,-161.86 473,-152.99"/>
<polygon fill="midnightblue" stroke="midnightblue" points="476.5,-152.75 473,-142.75 469.5,-152.75 476.5,-152.75"/>
</g>
<!-- Node38 -->
<g id="node11" class="node">
<title>Node38</title>
<g id="a_node11"><a xlink:href="assert_8h.html" target="_top" xlink:title=" ">
<polygon fill="white" stroke="red" points="553.5,-123.5 553.5,-142.5 660.5,-142.5 660.5,-123.5 553.5,-123.5"/>
<text text-anchor="middle" x="607" y="-130.5" font-family="Helvetica,sans-Serif" font-size="10.00">emlabcpp/assert.h</text>
</a>
</g>
</g>
<!-- Node30&#45;&gt;Node38 -->
<g id="edge14" class="edge">
<title>Node30&#45;&gt;Node38</title>
<path fill="none" stroke="midnightblue" d="M494.23,-179.44C516.38,-170.52 551.32,-156.44 576.44,-146.32"/>
<polygon fill="midnightblue" stroke="midnightblue" points="577.9,-149.5 585.87,-142.52 575.28,-143.01 577.9,-149.5"/>
</g>
<!-- Node40 -->
<g id="node12" class="node">
<title>Node40</title>
<g id="a_node12"><a xlink:href="numeric_8h.html" target="_top" xlink:title=" ">
<polygon fill="white" stroke="red" points="708.5,-56.5 708.5,-86.5 817.5,-86.5 817.5,-56.5 708.5,-56.5"/>
<text text-anchor="start" x="716.5" y="-74.5" font-family="Helvetica,sans-Serif" font-size="10.00">emlabcpp/iterators</text>
<text text-anchor="middle" x="763" y="-63.5" font-family="Helvetica,sans-Serif" font-size="10.00">/numeric.h</text>
</a>
</g>
</g>
<!-- Node30&#45;&gt;Node40 -->
<g id="edge16" class="edge">
<title>Node30&#45;&gt;Node40</title>
<path fill="none" stroke="midnightblue" d="M541.51,-179.46C580.23,-172.89 628.78,-161.67 669,-143 695.96,-130.49 722.68,-109.38 740.7,-93.52"/>
<polygon fill="midnightblue" stroke="midnightblue" points="743.24,-95.94 748.33,-86.65 738.56,-90.74 743.24,-95.94"/>
</g>
<!-- Node18 -->
<g id="node13" class="node">
<title>Node18</title>
<g id="a_node13"><a xlink:href="match_8h.html" target="_top" xlink:title=" ">
<polygon fill="white" stroke="red" points="122.5,-123.5 122.5,-142.5 229.5,-142.5 229.5,-123.5 122.5,-123.5"/>
<text text-anchor="middle" x="176" y="-130.5" font-family="Helvetica,sans-Serif" font-size="10.00">emlabcpp/match.h</text>
</a>
</g>
</g>
<!-- Node30&#45;&gt;Node18 -->
<g id="edge17" class="edge">
<title>Node30&#45;&gt;Node18</title>
<path fill="none" stroke="midnightblue" d="M425.94,-179.44C373.59,-169.92 289.01,-154.55 232.96,-144.36"/>
<polygon fill="midnightblue" stroke="midnightblue" points="233.31,-140.86 222.84,-142.52 232.05,-147.75 233.31,-140.86"/>
</g>
<!-- Node41 -->
<g id="node14" class="node">
<title>Node41</title>
<g id="a_node14"><a xlink:href="serializer_8h.html" target="_top" xlink:title=" ">
<polygon fill="white" stroke="red" points="755,-123.5 755,-142.5 919,-142.5 919,-123.5 755,-123.5"/>
<text text-anchor="middle" x="837" y="-130.5" font-family="Helvetica,sans-Serif" font-size="10.00">emlabcpp/protocol/serializer.h</text>
</a>
</g>
</g>
<!-- Node30&#45;&gt;Node41 -->
<g id="edge18" class="edge">
<title>Node30&#45;&gt;Node41</title>
<path fill="none" stroke="midnightblue" d="M530.68,-179.44C595.51,-169.83 700.65,-154.23 769.32,-144.04"/>
<polygon fill="midnightblue" stroke="midnightblue" points="770.21,-147.45 779.59,-142.52 769.19,-140.52 770.21,-147.45"/>
</g>
<!-- Node49 -->
<g id="node15" class="node">
<title>Node49</title>
<g id="a_node15"><a xlink:href="traits_8h.html" target="_top" xlink:title=" ">
<polygon fill="white" stroke="red" points="247.5,-123.5 247.5,-142.5 392.5,-142.5 392.5,-123.5 247.5,-123.5"/>
<text text-anchor="middle" x="320" y="-130.5" font-family="Helvetica,sans-Serif" font-size="10.00">emlabcpp/protocol/traits.h</text>
</a>
</g>
</g>
<!-- Node30&#45;&gt;Node49 -->
<g id="edge20" class="edge">
<title>Node30&#45;&gt;Node49</title>
<path fill="none" stroke="midnightblue" d="M448.76,-179.44C423.13,-170.4 382.51,-156.06 353.76,-145.92"/>
<polygon fill="midnightblue" stroke="midnightblue" points="354.72,-142.54 344.13,-142.52 352.39,-149.15 354.72,-142.54"/>
</g>
<!-- Node31&#45;&gt;Node20 -->
<g id="edge12" class="edge">
<title>Node31&#45;&gt;Node20</title>
<path fill="none" stroke="midnightblue" d="M470.85,-123.48C468.71,-114.99 465.36,-101.7 462.62,-90.82"/>
<polygon fill="midnightblue" stroke="midnightblue" points="465.98,-89.85 460.15,-81.01 459.2,-91.56 465.98,-89.85"/>
</g>
<!-- Node31&#45;&gt;Node9 -->
<g id="edge13" class="edge">
<title>Node31&#45;&gt;Node9</title>
<path fill="none" stroke="midnightblue" d="M457.24,-123.48C439.02,-113.62 408.83,-97.29 387.53,-85.77"/>
<polygon fill="midnightblue" stroke="midnightblue" points="389.19,-82.69 378.73,-81.01 385.86,-88.85 389.19,-82.69"/>
</g>
<!-- Node41&#45;&gt;Node40 -->
<g id="edge19" class="edge">
<title>Node41&#45;&gt;Node40</title>
<path fill="none" stroke="midnightblue" d="M826.4,-123.48C816.56,-115.57 801.54,-103.48 788.58,-93.07"/>
<polygon fill="midnightblue" stroke="midnightblue" points="790.43,-90.06 780.44,-86.52 786.04,-95.52 790.43,-90.06"/>
</g>
<!-- Node49&#45;&gt;Node3 -->
<g id="edge21" class="edge">
<title>Node49&#45;&gt;Node3</title>
<path fill="none" stroke="midnightblue" d="M298.37,-123.48C272.58,-113.31 229.29,-96.26 199.96,-84.7"/>
<polygon fill="midnightblue" stroke="midnightblue" points="201.18,-81.42 190.59,-81.01 198.62,-87.93 201.18,-81.42"/>
</g>
<!-- Node49&#45;&gt;Node20 -->
<g id="edge22" class="edge">
<title>Node49&#45;&gt;Node20</title>
<path fill="none" stroke="midnightblue" d="M339.77,-123.48C363.14,-113.4 402.21,-96.55 429,-85"/>
<polygon fill="midnightblue" stroke="midnightblue" points="430.47,-88.18 438.26,-81.01 427.7,-81.75 430.47,-88.18"/>
</g>
<!-- Node49&#45;&gt;Node24 -->
<g id="edge23" class="edge">
<title>Node49&#45;&gt;Node24</title>
<path fill="none" stroke="midnightblue" d="M315.56,-123.48C311.05,-114.82 303.93,-101.15 298.19,-90.15"/>
<polygon fill="midnightblue" stroke="midnightblue" points="301.16,-88.26 293.43,-81.01 294.95,-91.49 301.16,-88.26"/>
</g>
</g>
</svg>
