<?xml version="1.0" encoding="UTF-8" standalone="no"?>
<!DOCTYPE svg PUBLIC "-//W3C//DTD SVG 1.1//EN"
 "http://www.w3.org/Graphics/SVG/1.1/DTD/svg11.dtd">
<!-- Generated by graphviz version 2.43.0 (0)
 -->
<!-- Title: include/emlabcpp/protocol/handler.h Pages: 1 -->
<svg width="1464pt" height="565pt"
 viewBox="0.00 0.00 1464.11 565.00" xmlns="http://www.w3.org/2000/svg" xmlns:xlink="http://www.w3.org/1999/xlink">
<g id="graph0" class="graph" transform="scale(1 1) rotate(0) translate(4 561)">
<title>include/emlabcpp/protocol/handler.h</title>
<polygon fill="white" stroke="transparent" points="-4,4 -4,-561 1460.11,-561 1460.11,4 -4,4"/>
<!-- Node1 -->
<g id="node1" class="node">
<title>Node1</title>
<g id="a_node1"><a xlink:title=" ">
<polygon fill="#bfbfbf" stroke="black" points="900,-526.5 900,-556.5 1046,-556.5 1046,-526.5 900,-526.5"/>
<text text-anchor="start" x="908" y="-544.5" font-family="Helvetica,sans-Serif" font-size="10.00">include/emlabcpp/protocol</text>
<text text-anchor="middle" x="973" y="-533.5" font-family="Helvetica,sans-Serif" font-size="10.00">/handler.h</text>
</a>
</g>
</g>
<!-- Node2 -->
<g id="node2" class="node">
<title>Node2</title>
<g id="a_node2"><a xlink:href="either_8h.html" target="_top" xlink:title=" ">
<polygon fill="white" stroke="black" points="1202,-414.5 1202,-433.5 1306,-433.5 1306,-414.5 1202,-414.5"/>
<text text-anchor="middle" x="1254" y="-421.5" font-family="Helvetica,sans-Serif" font-size="10.00">emlabcpp/either.h</text>
</a>
</g>
</g>
<!-- Node1&#45;&gt;Node2 -->
<g id="edge1" class="edge">
<title>Node1&#45;&gt;Node2</title>
<path fill="none" stroke="midnightblue" d="M1007.18,-526.45C1062.55,-503.69 1170.99,-459.12 1223.74,-437.44"/>
<polygon fill="midnightblue" stroke="midnightblue" points="1225.3,-440.58 1233.22,-433.54 1222.64,-434.11 1225.3,-440.58"/>
</g>
<!-- Node21 -->
<g id="node21" class="node">
<title>Node21</title>
<g id="a_node21"><a xlink:href="def_8h.html" target="_top" xlink:title=" ">
<polygon fill="white" stroke="black" points="859,-470.5 859,-489.5 993,-489.5 993,-470.5 859,-470.5"/>
<text text-anchor="middle" x="926" y="-477.5" font-family="Helvetica,sans-Serif" font-size="10.00">emlabcpp/protocol/def.h</text>
</a>
</g>
</g>
<!-- Node1&#45;&gt;Node21 -->
<g id="edge27" class="edge">
<title>Node1&#45;&gt;Node21</title>
<path fill="none" stroke="midnightblue" d="M961.86,-526.4C955.03,-517.75 946.26,-506.64 939.09,-497.58"/>
<polygon fill="midnightblue" stroke="midnightblue" points="941.78,-495.34 932.84,-489.66 936.29,-499.67 941.78,-495.34"/>
</g>
<!-- Node3 -->
<g id="node3" class="node">
<title>Node3</title>
<g id="a_node3"><a xlink:href="static__vector_8h.html" target="_top" xlink:title=" ">
<polygon fill="white" stroke="black" points="822.5,-353 822.5,-372 961.5,-372 961.5,-353 822.5,-353"/>
<text text-anchor="middle" x="892" y="-360" font-family="Helvetica,sans-Serif" font-size="10.00">emlabcpp/static_vector.h</text>
</a>
</g>
</g>
<!-- Node2&#45;&gt;Node3 -->
<g id="edge2" class="edge">
<title>Node2&#45;&gt;Node3</title>
<path fill="none" stroke="midnightblue" d="M1202.13,-414.48C1136.54,-403.69 1023.75,-385.15 953.77,-373.65"/>
<polygon fill="midnightblue" stroke="midnightblue" points="954.2,-370.18 943.77,-372.01 953.07,-377.08 954.2,-370.18"/>
</g>
<!-- Node9 -->
<g id="node9" class="node">
<title>Node9</title>
<g id="a_node9"><a xlink:title=" ">
<polygon fill="white" stroke="#bfbfbf" points="1299.5,-0.5 1299.5,-19.5 1340.5,-19.5 1340.5,-0.5 1299.5,-0.5"/>
<text text-anchor="middle" x="1320" y="-7.5" font-family="Helvetica,sans-Serif" font-size="10.00">tuple</text>
</a>
</g>
</g>
<!-- Node2&#45;&gt;Node9 -->
<g id="edge24" class="edge">
<title>Node2&#45;&gt;Node9</title>
<path fill="none" stroke="midnightblue" d="M1306.01,-422.87C1345.38,-420.01 1398.26,-409.83 1432,-378 1457.77,-353.69 1456,-337.42 1456,-302 1456,-302 1456,-302 1456,-121 1456,-66.97 1390.31,-34.91 1350.24,-20.38"/>
<polygon fill="midnightblue" stroke="midnightblue" points="1351.25,-17.02 1340.66,-17.06 1348.96,-23.64 1351.25,-17.02"/>
</g>
<!-- Node10 -->
<g id="node10" class="node">
<title>Node10</title>
<g id="a_node10"><a xlink:title=" ">
<polygon fill="white" stroke="#bfbfbf" points="654.5,-0.5 654.5,-19.5 723.5,-19.5 723.5,-0.5 654.5,-0.5"/>
<text text-anchor="middle" x="689" y="-7.5" font-family="Helvetica,sans-Serif" font-size="10.00">type_traits</text>
</a>
</g>
</g>
<!-- Node2&#45;&gt;Node10 -->
<g id="edge25" class="edge">
<title>Node2&#45;&gt;Node10</title>
<path fill="none" stroke="midnightblue" d="M1287.98,-414.42C1336.02,-400.01 1418,-366.04 1418,-302 1418,-302 1418,-302 1418,-177 1418,-137.08 1391.81,-129.65 1356,-112 1221.28,-45.61 1166.67,-108.3 1020,-76 992.96,-70.04 987.86,-62.73 961,-56 882.05,-36.23 787.98,-22.87 733.7,-16.13"/>
<polygon fill="midnightblue" stroke="midnightblue" points="734.07,-12.64 723.72,-14.9 733.22,-19.59 734.07,-12.64"/>
</g>
<!-- Node15 -->
<g id="node15" class="node">
<title>Node15</title>
<g id="a_node15"><a xlink:href="types_8h.html" target="_top" xlink:title=" ">
<polygon fill="white" stroke="black" points="993,-168.5 993,-187.5 1097,-187.5 1097,-168.5 993,-168.5"/>
<text text-anchor="middle" x="1045" y="-175.5" font-family="Helvetica,sans-Serif" font-size="10.00">emlabcpp/types.h</text>
</a>
</g>
</g>
<!-- Node2&#45;&gt;Node15 -->
<g id="edge22" class="edge">
<title>Node2&#45;&gt;Node15</title>
<path fill="none" stroke="midnightblue" d="M1259.57,-414.2C1278,-383.83 1333.23,-282.12 1285,-224 1262.85,-197.31 1170.95,-186.35 1107.53,-181.92"/>
<polygon fill="midnightblue" stroke="midnightblue" points="1107.42,-178.41 1097.22,-181.24 1106.96,-185.39 1107.42,-178.41"/>
</g>
<!-- Node19 -->
<g id="node19" class="node">
<title>Node19</title>
<g id="a_node19"><a xlink:title=" ">
<polygon fill="white" stroke="#bfbfbf" points="993.5,-291.5 993.5,-310.5 1038.5,-310.5 1038.5,-291.5 993.5,-291.5"/>
<text text-anchor="middle" x="1016" y="-298.5" font-family="Helvetica,sans-Serif" font-size="10.00">utility</text>
</a>
</g>
</g>
<!-- Node2&#45;&gt;Node19 -->
<g id="edge26" class="edge">
<title>Node2&#45;&gt;Node19</title>
<path fill="none" stroke="midnightblue" d="M1220.07,-414.43C1192.72,-406.83 1153.73,-394.38 1122,-378 1101.07,-367.19 1098.14,-360.74 1079,-347 1064.76,-336.78 1048.69,-325.3 1036.34,-316.5"/>
<polygon fill="midnightblue" stroke="midnightblue" points="1038.26,-313.57 1028.09,-310.61 1034.2,-319.27 1038.26,-313.57"/>
</g>
<!-- Node20 -->
<g id="node20" class="node">
<title>Node20</title>
<g id="a_node20"><a xlink:title=" ">
<polygon fill="white" stroke="#bfbfbf" points="748,-168.5 748,-187.5 804,-187.5 804,-168.5 748,-168.5"/>
<text text-anchor="middle" x="776" y="-175.5" font-family="Helvetica,sans-Serif" font-size="10.00">optional</text>
</a>
</g>
</g>
<!-- Node2&#45;&gt;Node20 -->
<g id="edge23" class="edge">
<title>Node2&#45;&gt;Node20</title>
<path fill="none" stroke="midnightblue" d="M1242.91,-414.46C1202.96,-384.07 1061.82,-280.07 930,-224 891.72,-207.72 845.7,-195.12 813.99,-187.45"/>
<polygon fill="midnightblue" stroke="midnightblue" points="814.76,-184.03 804.23,-185.13 813.15,-190.84 814.76,-184.03"/>
</g>
<!-- Node4 -->
<g id="node4" class="node">
<title>Node4</title>
<g id="a_node4"><a xlink:href="concepts_8h.html" target="_top" xlink:title=" ">
<polygon fill="white" stroke="black" points="862,-112.5 862,-131.5 982,-131.5 982,-112.5 862,-112.5"/>
<text text-anchor="middle" x="922" y="-119.5" font-family="Helvetica,sans-Serif" font-size="10.00">emlabcpp/concepts.h</text>
</a>
</g>
</g>
<!-- Node3&#45;&gt;Node4 -->
<g id="edge3" class="edge">
<title>Node3&#45;&gt;Node4</title>
<path fill="none" stroke="midnightblue" d="M896.2,-352.94C904.65,-335.2 923.44,-292.91 930,-255 936.92,-215 930.46,-167.28 925.81,-141.59"/>
<polygon fill="midnightblue" stroke="midnightblue" points="929.24,-140.88 923.91,-131.73 922.36,-142.21 929.24,-140.88"/>
</g>
<!-- Node3&#45;&gt;Node10 -->
<g id="edge20" class="edge">
<title>Node3&#45;&gt;Node10</title>
<path fill="none" stroke="midnightblue" d="M848.21,-352.93C836.77,-350.84 824.45,-348.71 813,-347 744.41,-336.73 549.12,-362.79 503,-311 497.09,-304.36 500,-299.37 503,-291 535.53,-200.1 600.74,-214.43 651,-132 671.09,-99.05 681.48,-54.51 686.04,-29.69"/>
<polygon fill="midnightblue" stroke="midnightblue" points="689.54,-29.95 687.78,-19.5 682.64,-28.77 689.54,-29.95"/>
</g>
<!-- Node13 -->
<g id="node13" class="node">
<title>Node13</title>
<g id="a_node13"><a xlink:href="iterator_8h.html" target="_top" xlink:title=" ">
<polygon fill="white" stroke="black" points="732,-291.5 732,-310.5 844,-310.5 844,-291.5 732,-291.5"/>
<text text-anchor="middle" x="788" y="-298.5" font-family="Helvetica,sans-Serif" font-size="10.00">emlabcpp/iterator.h</text>
</a>
</g>
</g>
<!-- Node3&#45;&gt;Node13 -->
<g id="edge12" class="edge">
<title>Node3&#45;&gt;Node13</title>
<path fill="none" stroke="midnightblue" d="M877.1,-352.98C860.03,-343.21 831.84,-327.08 811.74,-315.58"/>
<polygon fill="midnightblue" stroke="midnightblue" points="813.29,-312.44 802.87,-310.51 809.81,-318.51 813.29,-312.44"/>
</g>
<!-- Node18 -->
<g id="node18" class="node">
<title>Node18</title>
<g id="a_node18"><a xlink:title=" ">
<polygon fill="white" stroke="#bfbfbf" points="938.5,-291.5 938.5,-310.5 975.5,-310.5 975.5,-291.5 938.5,-291.5"/>
<text text-anchor="middle" x="957" y="-298.5" font-family="Helvetica,sans-Serif" font-size="10.00">new</text>
</a>
</g>
</g>
<!-- Node3&#45;&gt;Node18 -->
<g id="edge19" class="edge">
<title>Node3&#45;&gt;Node18</title>
<path fill="none" stroke="midnightblue" d="M901.31,-352.98C911.45,-343.7 927.86,-328.67 940.25,-317.33"/>
<polygon fill="midnightblue" stroke="midnightblue" points="942.69,-319.84 947.7,-310.51 937.96,-314.68 942.69,-319.84"/>
</g>
<!-- Node3&#45;&gt;Node19 -->
<g id="edge21" class="edge">
<title>Node3&#45;&gt;Node19</title>
<path fill="none" stroke="midnightblue" d="M909.77,-352.98C930.48,-343.03 964.95,-326.49 988.99,-314.96"/>
<polygon fill="midnightblue" stroke="midnightblue" points="990.77,-317.99 998.27,-310.51 987.74,-311.68 990.77,-317.99"/>
</g>
<!-- Node5 -->
<g id="node5" class="node">
<title>Node5</title>
<g id="a_node5"><a xlink:href="types_2base_8h.html" target="_top" xlink:title=" ">
<polygon fill="white" stroke="black" points="1029,-56.5 1029,-75.5 1159,-75.5 1159,-56.5 1029,-56.5"/>
<text text-anchor="middle" x="1094" y="-63.5" font-family="Helvetica,sans-Serif" font-size="10.00">emlabcpp/types/base.h</text>
</a>
</g>
</g>
<!-- Node4&#45;&gt;Node5 -->
<g id="edge4" class="edge">
<title>Node4&#45;&gt;Node5</title>
<path fill="none" stroke="midnightblue" d="M949.25,-112.44C978.44,-103.28 1024.92,-88.69 1057.31,-78.52"/>
<polygon fill="midnightblue" stroke="midnightblue" points="1058.38,-81.85 1066.87,-75.52 1056.28,-75.17 1058.38,-81.85"/>
</g>
<!-- Node12 -->
<g id="node12" class="node">
<title>Node12</title>
<g id="a_node12"><a xlink:title=" ">
<polygon fill="white" stroke="#bfbfbf" points="892,-56.5 892,-75.5 952,-75.5 952,-56.5 892,-56.5"/>
<text text-anchor="middle" x="922" y="-63.5" font-family="Helvetica,sans-Serif" font-size="10.00">concepts</text>
</a>
</g>
</g>
<!-- Node4&#45;&gt;Node12 -->
<g id="edge11" class="edge">
<title>Node4&#45;&gt;Node12</title>
<path fill="none" stroke="midnightblue" d="M922,-112.08C922,-105.01 922,-94.86 922,-85.99"/>
<polygon fill="midnightblue" stroke="midnightblue" points="925.5,-85.75 922,-75.75 918.5,-85.75 925.5,-85.75"/>
</g>
<!-- Node6 -->
<g id="node6" class="node">
<title>Node6</title>
<g id="a_node6"><a xlink:title=" ">
<polygon fill="white" stroke="#bfbfbf" points="308,-0.5 308,-19.5 350,-19.5 350,-0.5 308,-0.5"/>
<text text-anchor="middle" x="329" y="-7.5" font-family="Helvetica,sans-Serif" font-size="10.00">array</text>
</a>
</g>
</g>
<!-- Node5&#45;&gt;Node6 -->
<g id="edge5" class="edge">
<title>Node5&#45;&gt;Node6</title>
<path fill="none" stroke="midnightblue" d="M1028.78,-60.4C871.26,-49.28 474.67,-21.28 360.31,-13.21"/>
<polygon fill="midnightblue" stroke="midnightblue" points="360.37,-9.71 350.15,-12.49 359.87,-16.69 360.37,-9.71"/>
</g>
<!-- Node7 -->
<g id="node7" class="node">
<title>Node7</title>
<g id="a_node7"><a xlink:title=" ">
<polygon fill="white" stroke="#bfbfbf" points="1069,-0.5 1069,-19.5 1119,-19.5 1119,-0.5 1069,-0.5"/>
<text text-anchor="middle" x="1094" y="-7.5" font-family="Helvetica,sans-Serif" font-size="10.00">cstdint</text>
</a>
</g>
</g>
<!-- Node5&#45;&gt;Node7 -->
<g id="edge6" class="edge">
<title>Node5&#45;&gt;Node7</title>
<path fill="none" stroke="midnightblue" d="M1094,-56.08C1094,-49.01 1094,-38.86 1094,-29.99"/>
<polygon fill="midnightblue" stroke="midnightblue" points="1097.5,-29.75 1094,-19.75 1090.5,-29.75 1097.5,-29.75"/>
</g>
<!-- Node8 -->
<g id="node8" class="node">
<title>Node8</title>
<g id="a_node8"><a xlink:title=" ">
<polygon fill="white" stroke="#bfbfbf" points="1137,-0.5 1137,-19.5 1187,-19.5 1187,-0.5 1137,-0.5"/>
<text text-anchor="middle" x="1162" y="-7.5" font-family="Helvetica,sans-Serif" font-size="10.00">ranges</text>
</a>
</g>
</g>
<!-- Node5&#45;&gt;Node8 -->
<g id="edge7" class="edge">
<title>Node5&#45;&gt;Node8</title>
<path fill="none" stroke="midnightblue" d="M1104.93,-56.32C1115.17,-48.18 1130.72,-35.84 1143,-26.09"/>
<polygon fill="midnightblue" stroke="midnightblue" points="1145.22,-28.79 1150.88,-19.83 1140.87,-23.31 1145.22,-28.79"/>
</g>
<!-- Node5&#45;&gt;Node9 -->
<g id="edge8" class="edge">
<title>Node5&#45;&gt;Node9</title>
<path fill="none" stroke="midnightblue" d="M1129.81,-56.44C1173.87,-45.92 1247.92,-28.22 1289.43,-18.3"/>
<polygon fill="midnightblue" stroke="midnightblue" points="1290.33,-21.69 1299.24,-15.96 1288.7,-14.88 1290.33,-21.69"/>
</g>
<!-- Node5&#45;&gt;Node10 -->
<g id="edge9" class="edge">
<title>Node5&#45;&gt;Node10</title>
<path fill="none" stroke="midnightblue" d="M1029.83,-56.44C947.13,-45.42 805.47,-26.53 733.62,-16.95"/>
<polygon fill="midnightblue" stroke="midnightblue" points="733.91,-13.46 723.54,-15.6 732.99,-20.4 733.91,-13.46"/>
</g>
<!-- Node11 -->
<g id="node11" class="node">
<title>Node11</title>
<g id="a_node11"><a xlink:title=" ">
<polygon fill="white" stroke="#bfbfbf" points="1003.5,-0.5 1003.5,-19.5 1050.5,-19.5 1050.5,-0.5 1003.5,-0.5"/>
<text text-anchor="middle" x="1027" y="-7.5" font-family="Helvetica,sans-Serif" font-size="10.00">vector</text>
</a>
</g>
</g>
<!-- Node5&#45;&gt;Node11 -->
<g id="edge10" class="edge">
<title>Node5&#45;&gt;Node11</title>
<path fill="none" stroke="midnightblue" d="M1083.24,-56.32C1073.23,-48.26 1058.11,-36.08 1046.07,-26.37"/>
<polygon fill="midnightblue" stroke="midnightblue" points="1047.94,-23.38 1037.96,-19.83 1043.55,-28.83 1047.94,-23.38"/>
</g>
<!-- Node14 -->
<g id="node14" class="node">
<title>Node14</title>
<g id="a_node14"><a xlink:href="view_8h.html" target="_top" xlink:title=" ">
<polygon fill="white" stroke="black" points="822.5,-230 822.5,-249 921.5,-249 921.5,-230 822.5,-230"/>
<text text-anchor="middle" x="872" y="-237" font-family="Helvetica,sans-Serif" font-size="10.00">emlabcpp/view.h</text>
</a>
</g>
</g>
<!-- Node13&#45;&gt;Node14 -->
<g id="edge13" class="edge">
<title>Node13&#45;&gt;Node14</title>
<path fill="none" stroke="midnightblue" d="M800.04,-291.48C813.51,-281.93 835.57,-266.31 851.72,-254.87"/>
<polygon fill="midnightblue" stroke="midnightblue" points="853.85,-257.65 859.99,-249.01 849.8,-251.93 853.85,-257.65"/>
</g>
<!-- Node17 -->
<g id="node17" class="node">
<title>Node17</title>
<g id="a_node17"><a xlink:title=" ">
<polygon fill="white" stroke="#bfbfbf" points="751.5,-230 751.5,-249 804.5,-249 804.5,-230 751.5,-230"/>
<text text-anchor="middle" x="778" y="-237" font-family="Helvetica,sans-Serif" font-size="10.00">iterator</text>
</a>
</g>
</g>
<!-- Node13&#45;&gt;Node17 -->
<g id="edge18" class="edge">
<title>Node13&#45;&gt;Node17</title>
<path fill="none" stroke="midnightblue" d="M786.57,-291.48C785.16,-283.08 782.95,-269.98 781.14,-259.16"/>
<polygon fill="midnightblue" stroke="midnightblue" points="784.54,-258.29 779.43,-249.01 777.64,-259.45 784.54,-258.29"/>
</g>
<!-- Node14&#45;&gt;Node15 -->
<g id="edge14" class="edge">
<title>Node14&#45;&gt;Node15</title>
<path fill="none" stroke="midnightblue" d="M896.79,-229.98C926.59,-219.72 976.79,-202.46 1010.4,-190.9"/>
<polygon fill="midnightblue" stroke="midnightblue" points="1011.94,-194.07 1020.26,-187.51 1009.66,-187.45 1011.94,-194.07"/>
</g>
<!-- Node15&#45;&gt;Node4 -->
<g id="edge15" class="edge">
<title>Node15&#45;&gt;Node4</title>
<path fill="none" stroke="midnightblue" d="M1025.51,-168.44C1005.36,-159.6 973.68,-145.69 950.67,-135.59"/>
<polygon fill="midnightblue" stroke="midnightblue" points="951.96,-132.33 941.4,-131.52 949.15,-138.74 951.96,-132.33"/>
</g>
<!-- Node15&#45;&gt;Node5 -->
<g id="edge16" class="edge">
<title>Node15&#45;&gt;Node5</title>
<path fill="none" stroke="midnightblue" d="M1048.84,-168.37C1056.82,-150.46 1075.33,-108.92 1086,-84.95"/>
<polygon fill="midnightblue" stroke="midnightblue" points="1089.3,-86.15 1090.17,-75.59 1082.91,-83.3 1089.3,-86.15"/>
</g>
<!-- Node16 -->
<g id="node16" class="node">
<title>Node16</title>
<g id="a_node16"><a xlink:title=" ">
<polygon fill="white" stroke="#bfbfbf" points="598,-112.5 598,-131.5 642,-131.5 642,-112.5 598,-112.5"/>
<text text-anchor="middle" x="620" y="-119.5" font-family="Helvetica,sans-Serif" font-size="10.00">string</text>
</a>
</g>
</g>
<!-- Node15&#45;&gt;Node16 -->
<g id="edge17" class="edge">
<title>Node15&#45;&gt;Node16</title>
<path fill="none" stroke="midnightblue" d="M992.89,-170.38C903.94,-159.08 725.38,-136.39 652.3,-127.1"/>
<polygon fill="midnightblue" stroke="midnightblue" points="652.67,-123.62 642.31,-125.83 651.79,-130.57 652.67,-123.62"/>
</g>
<!-- Node21&#45;&gt;Node2 -->
<g id="edge46" class="edge">
<title>Node21&#45;&gt;Node2</title>
<path fill="none" stroke="midnightblue" d="M977.97,-470.44C1036.15,-460.87 1130.36,-445.36 1192.25,-435.17"/>
<polygon fill="midnightblue" stroke="midnightblue" points="1192.97,-438.59 1202.27,-433.52 1191.83,-431.69 1192.97,-438.59"/>
</g>
<!-- Node22 -->
<g id="node22" class="node">
<title>Node22</title>
<g id="a_node22"><a xlink:href="algorithm_8h.html" target="_top" xlink:title=" ">
<polygon fill="white" stroke="black" points="1133,-291.5 1133,-310.5 1257,-310.5 1257,-291.5 1133,-291.5"/>
<text text-anchor="middle" x="1195" y="-298.5" font-family="Helvetica,sans-Serif" font-size="10.00">emlabcpp/algorithm.h</text>
</a>
</g>
</g>
<!-- Node21&#45;&gt;Node22 -->
<g id="edge28" class="edge">
<title>Node21&#45;&gt;Node22</title>
<path fill="none" stroke="midnightblue" d="M949.93,-470.43C971.15,-462.37 1002.63,-449.28 1028,-434 1087.35,-398.25 1149.35,-344.06 1178.27,-317.62"/>
<polygon fill="midnightblue" stroke="midnightblue" points="1180.86,-319.99 1185.84,-310.64 1176.11,-314.85 1180.86,-319.99"/>
</g>
<!-- Node27 -->
<g id="node27" class="node">
<title>Node27</title>
<g id="a_node27"><a xlink:href="assert_8h.html" target="_top" xlink:title=" ">
<polygon fill="white" stroke="black" points="912.5,-414.5 912.5,-433.5 1019.5,-433.5 1019.5,-414.5 912.5,-414.5"/>
<text text-anchor="middle" x="966" y="-421.5" font-family="Helvetica,sans-Serif" font-size="10.00">emlabcpp/assert.h</text>
</a>
</g>
</g>
<!-- Node21&#45;&gt;Node27 -->
<g id="edge41" class="edge">
<title>Node21&#45;&gt;Node27</title>
<path fill="none" stroke="midnightblue" d="M932.61,-470.08C938.26,-462.46 946.54,-451.26 953.45,-441.94"/>
<polygon fill="midnightblue" stroke="midnightblue" points="956.38,-443.87 959.52,-433.75 950.75,-439.7 956.38,-443.87"/>
</g>
<!-- Node29 -->
<g id="node29" class="node">
<title>Node29</title>
<g id="a_node29"><a xlink:href="bounded__view_8h.html" target="_top" xlink:title=" ">
<polygon fill="white" stroke="black" points="658,-353 658,-372 804,-372 804,-353 658,-353"/>
<text text-anchor="middle" x="731" y="-360" font-family="Helvetica,sans-Serif" font-size="10.00">emlabcpp/bounded_view.h</text>
</a>
</g>
</g>
<!-- Node21&#45;&gt;Node29 -->
<g id="edge43" class="edge">
<title>Node21&#45;&gt;Node29</title>
<path fill="none" stroke="midnightblue" d="M911.34,-470.32C877.73,-450.41 794.89,-401.34 754.25,-377.27"/>
<polygon fill="midnightblue" stroke="midnightblue" points="755.95,-374.21 745.56,-372.12 752.38,-380.23 755.95,-374.21"/>
</g>
<!-- Node30 -->
<g id="node30" class="node">
<title>Node30</title>
<g id="a_node30"><a xlink:href="numeric_8h.html" target="_top" xlink:title=" ">
<polygon fill="white" stroke="black" points="530.5,-347.5 530.5,-377.5 639.5,-377.5 639.5,-347.5 530.5,-347.5"/>
<text text-anchor="start" x="538.5" y="-365.5" font-family="Helvetica,sans-Serif" font-size="10.00">emlabcpp/iterators</text>
<text text-anchor="middle" x="585" y="-354.5" font-family="Helvetica,sans-Serif" font-size="10.00">/numeric.h</text>
</a>
</g>
</g>
<!-- Node21&#45;&gt;Node30 -->
<g id="edge47" class="edge">
<title>Node21&#45;&gt;Node30</title>
<path fill="none" stroke="midnightblue" d="M900.65,-470.41C844.81,-451.5 710.3,-405.94 636.16,-380.83"/>
<polygon fill="midnightblue" stroke="midnightblue" points="637.15,-377.47 626.56,-377.58 634.9,-384.1 637.15,-377.47"/>
</g>
<!-- Node31 -->
<g id="node31" class="node">
<title>Node31</title>
<g id="a_node31"><a xlink:href="decl_8h.html" target="_top" xlink:title=" ">
<polygon fill="white" stroke="black" points="432,-414.5 432,-433.5 572,-433.5 572,-414.5 432,-414.5"/>
<text text-anchor="middle" x="502" y="-421.5" font-family="Helvetica,sans-Serif" font-size="10.00">emlabcpp/protocol/decl.h</text>
</a>
</g>
</g>
<!-- Node21&#45;&gt;Node31 -->
<g id="edge49" class="edge">
<title>Node21&#45;&gt;Node31</title>
<path fill="none" stroke="midnightblue" d="M858.82,-470.44C782.68,-460.75 658.81,-444.97 578.88,-434.79"/>
<polygon fill="midnightblue" stroke="midnightblue" points="579.23,-431.31 568.87,-433.52 578.35,-438.25 579.23,-431.31"/>
</g>
<!-- Node43 -->
<g id="node43" class="node">
<title>Node43</title>
<g id="a_node43"><a xlink:href="serializer_8h.html" target="_top" xlink:title=" ">
<polygon fill="white" stroke="black" points="250,-414.5 250,-433.5 414,-433.5 414,-414.5 250,-414.5"/>
<text text-anchor="middle" x="332" y="-421.5" font-family="Helvetica,sans-Serif" font-size="10.00">emlabcpp/protocol/serializer.h</text>
</a>
</g>
</g>
<!-- Node21&#45;&gt;Node43 -->
<g id="edge76" class="edge">
<title>Node21&#45;&gt;Node43</title>
<path fill="none" stroke="midnightblue" d="M858.86,-473.19C764.38,-464.98 586.51,-449.35 424.49,-434.13"/>
<polygon fill="midnightblue" stroke="midnightblue" points="424.62,-430.63 414.34,-433.18 423.96,-437.6 424.62,-430.63"/>
</g>
<!-- Node22&#45;&gt;Node9 -->
<g id="edge40" class="edge">
<title>Node22&#45;&gt;Node9</title>
<path fill="none" stroke="midnightblue" d="M1238.84,-291.5C1293.55,-278.04 1380,-246.16 1380,-179 1380,-179 1380,-179 1380,-121 1380,-83.88 1353.35,-47.38 1335.57,-27.16"/>
<polygon fill="midnightblue" stroke="midnightblue" points="1337.93,-24.55 1328.6,-19.53 1332.76,-29.28 1337.93,-24.55"/>
</g>
<!-- Node22&#45;&gt;Node14 -->
<g id="edge37" class="edge">
<title>Node22&#45;&gt;Node14</title>
<path fill="none" stroke="midnightblue" d="M1148.72,-291.48C1090.56,-280.76 990.79,-262.38 928.27,-250.87"/>
<polygon fill="midnightblue" stroke="midnightblue" points="928.66,-247.38 918.19,-249.01 927.39,-254.26 928.66,-247.38"/>
</g>
<!-- Node22&#45;&gt;Node15 -->
<g id="edge36" class="edge">
<title>Node22&#45;&gt;Node15</title>
<path fill="none" stroke="midnightblue" d="M1186.18,-291.1C1171.44,-276.41 1140.57,-246.46 1112,-224 1097.77,-212.81 1080.84,-201.45 1067.56,-192.95"/>
<polygon fill="midnightblue" stroke="midnightblue" points="1069.35,-189.94 1059.03,-187.55 1065.61,-195.86 1069.35,-189.94"/>
</g>
<!-- Node23 -->
<g id="node23" class="node">
<title>Node23</title>
<g id="a_node23"><a xlink:href="impl_8h.html" target="_top" xlink:title=" ">
<polygon fill="white" stroke="black" points="1160.5,-224.5 1160.5,-254.5 1275.5,-254.5 1275.5,-224.5 1160.5,-224.5"/>
<text text-anchor="start" x="1168.5" y="-242.5" font-family="Helvetica,sans-Serif" font-size="10.00">emlabcpp/algorithm</text>
<text text-anchor="middle" x="1218" y="-231.5" font-family="Helvetica,sans-Serif" font-size="10.00">/impl.h</text>
</a>
</g>
</g>
<!-- Node22&#45;&gt;Node23 -->
<g id="edge29" class="edge">
<title>Node22&#45;&gt;Node23</title>
<path fill="none" stroke="midnightblue" d="M1198.3,-291.48C1201.06,-284.32 1205.15,-273.75 1208.88,-264.08"/>
<polygon fill="midnightblue" stroke="midnightblue" points="1212.24,-265.11 1212.58,-254.52 1205.71,-262.59 1212.24,-265.11"/>
</g>
<!-- Node24 -->
<g id="node24" class="node">
<title>Node24</title>
<g id="a_node24"><a xlink:href="bounded_8h.html" target="_top" xlink:title=" ">
<polygon fill="white" stroke="black" points="575.5,-230 575.5,-249 694.5,-249 694.5,-230 575.5,-230"/>
<text text-anchor="middle" x="635" y="-237" font-family="Helvetica,sans-Serif" font-size="10.00">emlabcpp/bounded.h</text>
</a>
</g>
</g>
<!-- Node22&#45;&gt;Node24 -->
<g id="edge32" class="edge">
<title>Node22&#45;&gt;Node24</title>
<path fill="none" stroke="midnightblue" d="M1132.64,-294.51C1045.22,-286.66 881.33,-271.36 742,-255 730,-253.59 717.26,-251.97 704.91,-250.34"/>
<polygon fill="midnightblue" stroke="midnightblue" points="705.03,-246.82 694.66,-248.97 704.11,-253.76 705.03,-246.82"/>
</g>
<!-- Node25 -->
<g id="node25" class="node">
<title>Node25</title>
<g id="a_node25"><a xlink:title=" ">
<polygon fill="white" stroke="#bfbfbf" points="1299.5,-112.5 1299.5,-131.5 1346.5,-131.5 1346.5,-112.5 1299.5,-112.5"/>
<text text-anchor="middle" x="1323" y="-119.5" font-family="Helvetica,sans-Serif" font-size="10.00">cmath</text>
</a>
</g>
</g>
<!-- Node22&#45;&gt;Node25 -->
<g id="edge38" class="edge">
<title>Node22&#45;&gt;Node25</title>
<path fill="none" stroke="midnightblue" d="M1226.21,-291.5C1245.72,-284.66 1269.92,-273.13 1285,-255 1312.48,-221.95 1320.1,-170 1322.21,-142.15"/>
<polygon fill="midnightblue" stroke="midnightblue" points="1325.72,-142 1322.81,-131.82 1318.73,-141.59 1325.72,-142"/>
</g>
<!-- Node26 -->
<g id="node26" class="node">
<title>Node26</title>
<g id="a_node26"><a xlink:title=" ">
<polygon fill="white" stroke="#bfbfbf" points="1054.5,-230 1054.5,-249 1103.5,-249 1103.5,-230 1054.5,-230"/>
<text text-anchor="middle" x="1079" y="-237" font-family="Helvetica,sans-Serif" font-size="10.00">cstdlib</text>
</a>
</g>
</g>
<!-- Node22&#45;&gt;Node26 -->
<g id="edge39" class="edge">
<title>Node22&#45;&gt;Node26</title>
<path fill="none" stroke="midnightblue" d="M1178.38,-291.48C1159.08,-281.58 1127.04,-265.14 1104.57,-253.62"/>
<polygon fill="midnightblue" stroke="midnightblue" points="1106.08,-250.46 1095.59,-249.01 1102.89,-256.69 1106.08,-250.46"/>
</g>
<!-- Node23&#45;&gt;Node9 -->
<g id="edge31" class="edge">
<title>Node23&#45;&gt;Node9</title>
<path fill="none" stroke="midnightblue" d="M1224.38,-224.27C1242.15,-184.64 1292.17,-73.08 1311.87,-29.12"/>
<polygon fill="midnightblue" stroke="midnightblue" points="1315.1,-30.48 1316,-19.93 1308.71,-27.62 1315.1,-30.48"/>
</g>
<!-- Node23&#45;&gt;Node15 -->
<g id="edge30" class="edge">
<title>Node23&#45;&gt;Node15</title>
<path fill="none" stroke="midnightblue" d="M1177,-224.4C1147.37,-214.21 1107.77,-200.59 1079.7,-190.93"/>
<polygon fill="midnightblue" stroke="midnightblue" points="1080.52,-187.51 1069.92,-187.57 1078.24,-194.13 1080.52,-187.51"/>
</g>
<!-- Node24&#45;&gt;Node4 -->
<g id="edge33" class="edge">
<title>Node24&#45;&gt;Node4</title>
<path fill="none" stroke="midnightblue" d="M644.9,-229.98C662.6,-215.19 701.33,-184.75 739,-168 775.87,-151.61 819.68,-140.56 855.2,-133.52"/>
<polygon fill="midnightblue" stroke="midnightblue" points="856.3,-136.87 865.46,-131.55 854.98,-130 856.3,-136.87"/>
</g>
<!-- Node24&#45;&gt;Node10 -->
<g id="edge35" class="edge">
<title>Node24&#45;&gt;Node10</title>
<path fill="none" stroke="midnightblue" d="M640.44,-229.81C651.14,-212.18 674.71,-170.59 684,-132 692.5,-96.69 691.81,-53.94 690.46,-29.87"/>
<polygon fill="midnightblue" stroke="midnightblue" points="693.93,-29.41 689.78,-19.67 686.95,-29.88 693.93,-29.41"/>
</g>
<!-- Node24&#45;&gt;Node20 -->
<g id="edge34" class="edge">
<title>Node24&#45;&gt;Node20</title>
<path fill="none" stroke="midnightblue" d="M655.2,-229.98C679.07,-219.9 719,-203.05 746.37,-191.5"/>
<polygon fill="midnightblue" stroke="midnightblue" points="747.98,-194.62 755.84,-187.51 745.26,-188.17 747.98,-194.62"/>
</g>
<!-- Node28 -->
<g id="node28" class="node">
<title>Node28</title>
<g id="a_node28"><a xlink:title=" ">
<polygon fill="white" stroke="#bfbfbf" points="1018,-353 1018,-372 1070,-372 1070,-353 1018,-353"/>
<text text-anchor="middle" x="1044" y="-360" font-family="Helvetica,sans-Serif" font-size="10.00">cassert</text>
</a>
</g>
</g>
<!-- Node27&#45;&gt;Node28 -->
<g id="edge42" class="edge">
<title>Node27&#45;&gt;Node28</title>
<path fill="none" stroke="midnightblue" d="M977.18,-414.48C989.57,-405.02 1009.79,-389.6 1024.75,-378.19"/>
<polygon fill="midnightblue" stroke="midnightblue" points="1027.02,-380.86 1032.85,-372.01 1022.77,-375.29 1027.02,-380.86"/>
</g>
<!-- Node29&#45;&gt;Node14 -->
<g id="edge45" class="edge">
<title>Node29&#45;&gt;Node14</title>
<path fill="none" stroke="midnightblue" d="M776.88,-352.95C802.66,-345.87 833.48,-333.22 853,-311 865.52,-296.75 869.9,-275.06 871.37,-259.51"/>
<polygon fill="midnightblue" stroke="midnightblue" points="874.87,-259.66 872.01,-249.46 867.88,-259.22 874.87,-259.66"/>
</g>
<!-- Node29&#45;&gt;Node24 -->
<g id="edge44" class="edge">
<title>Node29&#45;&gt;Node24</title>
<path fill="none" stroke="midnightblue" d="M726.14,-352.87C718.27,-339.19 701.89,-311.92 685,-291 674.97,-278.58 662.3,-265.81 652.23,-256.22"/>
<polygon fill="midnightblue" stroke="midnightblue" points="654.5,-253.55 644.81,-249.28 649.72,-258.67 654.5,-253.55"/>
</g>
<!-- Node30&#45;&gt;Node13 -->
<g id="edge48" class="edge">
<title>Node30&#45;&gt;Node13</title>
<path fill="none" stroke="midnightblue" d="M632.85,-347.47C668.33,-337.08 716.09,-323.08 749.2,-313.37"/>
<polygon fill="midnightblue" stroke="midnightblue" points="750.37,-316.68 758.98,-310.51 748.4,-309.96 750.37,-316.68"/>
</g>
<!-- Node31&#45;&gt;Node3 -->
<g id="edge73" class="edge">
<title>Node31&#45;&gt;Node3</title>
<path fill="none" stroke="midnightblue" d="M565.84,-414.48C628.79,-405.91 727.67,-392 813,-378 820.92,-376.7 829.28,-375.25 837.47,-373.79"/>
<polygon fill="midnightblue" stroke="midnightblue" points="838.13,-377.22 847.35,-372 836.88,-370.34 838.13,-377.22"/>
</g>
<!-- Node31&#45;&gt;Node15 -->
<g id="edge74" class="edge">
<title>Node31&#45;&gt;Node15</title>
<path fill="none" stroke="midnightblue" d="M572.2,-421.47C684.81,-418.15 900.26,-407.98 970,-378 975.21,-375.76 1044.65,-316.16 1047,-311 1050.68,-302.91 1047.25,-299.89 1047,-291 1046.56,-274.98 1045.44,-271.02 1045,-255 1044.46,-235.66 1044.54,-213.54 1044.71,-198.17"/>
<polygon fill="midnightblue" stroke="midnightblue" points="1048.21,-197.94 1044.84,-187.89 1041.21,-197.85 1048.21,-197.94"/>
</g>
<!-- Node32 -->
<g id="node32" class="node">
<title>Node32</title>
<g id="a_node32"><a xlink:href="protocol_2base_8h.html" target="_top" xlink:title=" ">
<polygon fill="white" stroke="black" points="236.5,-353 236.5,-372 379.5,-372 379.5,-353 236.5,-353"/>
<text text-anchor="middle" x="308" y="-360" font-family="Helvetica,sans-Serif" font-size="10.00">emlabcpp/protocol/base.h</text>
</a>
</g>
</g>
<!-- Node31&#45;&gt;Node32 -->
<g id="edge50" class="edge">
<title>Node31&#45;&gt;Node32</title>
<path fill="none" stroke="midnightblue" d="M474.2,-414.48C440.35,-404.09 383.03,-386.51 345.35,-374.95"/>
<polygon fill="midnightblue" stroke="midnightblue" points="346.33,-371.6 335.74,-372.01 344.28,-378.29 346.33,-371.6"/>
</g>
<!-- Node33 -->
<g id="node33" class="node">
<title>Node33</title>
<g id="a_node33"><a xlink:href="protocol_2error_8h.html" target="_top" xlink:title=" ">
<polygon fill="white" stroke="black" points="0,-291.5 0,-310.5 142,-310.5 142,-291.5 0,-291.5"/>
<text text-anchor="middle" x="71" y="-298.5" font-family="Helvetica,sans-Serif" font-size="10.00">emlabcpp/protocol/error.h</text>
</a>
</g>
</g>
<!-- Node31&#45;&gt;Node33 -->
<g id="edge59" class="edge">
<title>Node31&#45;&gt;Node33</title>
<path fill="none" stroke="midnightblue" d="M439.39,-414.5C364.27,-404.02 246.02,-386.57 227,-378 207.13,-369.05 207.87,-357.91 189,-347 164.42,-332.79 134.51,-321.44 110.96,-313.69"/>
<polygon fill="midnightblue" stroke="midnightblue" points="111.88,-310.31 101.29,-310.6 109.74,-316.98 111.88,-310.31"/>
</g>
<!-- Node37 -->
<g id="node37" class="node">
<title>Node37</title>
<g id="a_node37"><a xlink:title=" ">
<polygon fill="white" stroke="#bfbfbf" points="366.5,-291.5 366.5,-310.5 417.5,-310.5 417.5,-291.5 366.5,-291.5"/>
<text text-anchor="middle" x="392" y="-298.5" font-family="Helvetica,sans-Serif" font-size="10.00">variant</text>
</a>
</g>
</g>
<!-- Node31&#45;&gt;Node37 -->
<g id="edge75" class="edge">
<title>Node31&#45;&gt;Node37</title>
<path fill="none" stroke="midnightblue" d="M483.47,-414.46C468.16,-406.68 446.64,-393.97 432,-378 416.46,-361.05 405.13,-336.94 398.57,-320.45"/>
<polygon fill="midnightblue" stroke="midnightblue" points="401.76,-318.99 394.96,-310.86 395.21,-321.46 401.76,-318.99"/>
</g>
<!-- Node38 -->
<g id="node38" class="node">
<title>Node38</title>
<g id="a_node38"><a xlink:href="message_8h.html" target="_top" xlink:title=" ">
<polygon fill="white" stroke="black" points="512,-291.5 512,-310.5 676,-310.5 676,-291.5 512,-291.5"/>
<text text-anchor="middle" x="594" y="-298.5" font-family="Helvetica,sans-Serif" font-size="10.00">emlabcpp/protocol/message.h</text>
</a>
</g>
</g>
<!-- Node31&#45;&gt;Node38 -->
<g id="edge60" class="edge">
<title>Node31&#45;&gt;Node38</title>
<path fill="none" stroke="midnightblue" d="M502.11,-414.13C502.73,-398.95 505.9,-367.64 521,-347 531.31,-332.91 547.5,-322.28 562.02,-314.9"/>
<polygon fill="midnightblue" stroke="midnightblue" points="563.71,-317.97 571.24,-310.52 560.7,-311.65 563.71,-317.97"/>
</g>
<!-- Node39 -->
<g id="node39" class="node">
<title>Node39</title>
<g id="a_node39"><a xlink:href="quantity_8h.html" target="_top" xlink:title=" ">
<polygon fill="white" stroke="black" points="462,-168.5 462,-187.5 578,-187.5 578,-168.5 462,-168.5"/>
<text text-anchor="middle" x="520" y="-175.5" font-family="Helvetica,sans-Serif" font-size="10.00">emlabcpp/quantity.h</text>
</a>
</g>
</g>
<!-- Node31&#45;&gt;Node39 -->
<g id="edge65" class="edge">
<title>Node31&#45;&gt;Node39</title>
<path fill="none" stroke="midnightblue" d="M497.86,-414.5C488.23,-393.73 465.42,-338.65 470,-291 472.9,-260.81 470.08,-251.45 483,-224 488.04,-213.29 496.2,-202.97 503.58,-194.92"/>
<polygon fill="midnightblue" stroke="midnightblue" points="506.12,-197.33 510.55,-187.7 501.09,-192.47 506.12,-197.33"/>
</g>
<!-- Node32&#45;&gt;Node10 -->
<g id="edge57" class="edge">
<title>Node32&#45;&gt;Node10</title>
<path fill="none" stroke="midnightblue" d="M306.45,-352.87C300.69,-317.86 284.01,-184.83 348,-112 424.04,-25.46 570.37,-11.42 644.14,-10.16"/>
<polygon fill="midnightblue" stroke="midnightblue" points="644.52,-13.66 654.48,-10.06 644.45,-6.66 644.52,-13.66"/>
</g>
<!-- Node32&#45;&gt;Node24 -->
<g id="edge51" class="edge">
<title>Node32&#45;&gt;Node24</title>
<path fill="none" stroke="midnightblue" d="M311.34,-352.91C317.73,-337.73 333.18,-306.32 357,-291 390.67,-269.34 494.42,-254.77 565.19,-247.06"/>
<polygon fill="midnightblue" stroke="midnightblue" points="565.81,-250.51 575.38,-245.97 565.07,-243.55 565.81,-250.51"/>
</g>
<!-- Node32&#45;&gt;Node33 -->
<g id="edge52" class="edge">
<title>Node32&#45;&gt;Node33</title>
<path fill="none" stroke="midnightblue" d="M274.04,-352.98C232.16,-342.46 160.87,-324.56 114.87,-313.01"/>
<polygon fill="midnightblue" stroke="midnightblue" points="115.44,-309.55 104.89,-310.51 113.74,-316.34 115.44,-309.55"/>
</g>
<!-- Node35 -->
<g id="node35" class="node">
<title>Node35</title>
<g id="a_node35"><a xlink:title=" ">
<polygon fill="white" stroke="#bfbfbf" points="228,-291.5 228,-310.5 272,-310.5 272,-291.5 228,-291.5"/>
<text text-anchor="middle" x="250" y="-298.5" font-family="Helvetica,sans-Serif" font-size="10.00">bitset</text>
</a>
</g>
</g>
<!-- Node32&#45;&gt;Node35 -->
<g id="edge55" class="edge">
<title>Node32&#45;&gt;Node35</title>
<path fill="none" stroke="midnightblue" d="M299.69,-352.98C290.82,-343.87 276.55,-329.24 265.58,-317.98"/>
<polygon fill="midnightblue" stroke="midnightblue" points="267.78,-315.23 258.29,-310.51 262.77,-320.11 267.78,-315.23"/>
</g>
<!-- Node36 -->
<g id="node36" class="node">
<title>Node36</title>
<g id="a_node36"><a xlink:title=" ">
<polygon fill="white" stroke="#bfbfbf" points="160,-291.5 160,-310.5 210,-310.5 210,-291.5 160,-291.5"/>
<text text-anchor="middle" x="185" y="-298.5" font-family="Helvetica,sans-Serif" font-size="10.00">cstring</text>
</a>
</g>
</g>
<!-- Node32&#45;&gt;Node36 -->
<g id="edge56" class="edge">
<title>Node32&#45;&gt;Node36</title>
<path fill="none" stroke="midnightblue" d="M290.38,-352.98C269.83,-343.03 235.64,-326.49 211.79,-314.96"/>
<polygon fill="midnightblue" stroke="midnightblue" points="213.12,-311.71 202.59,-310.51 210.07,-318.01 213.12,-311.71"/>
</g>
<!-- Node32&#45;&gt;Node37 -->
<g id="edge58" class="edge">
<title>Node32&#45;&gt;Node37</title>
<path fill="none" stroke="midnightblue" d="M320.04,-352.98C333.51,-343.43 355.57,-327.81 371.72,-316.37"/>
<polygon fill="midnightblue" stroke="midnightblue" points="373.85,-319.15 379.99,-310.51 369.8,-313.43 373.85,-319.15"/>
</g>
<!-- Node33&#45;&gt;Node6 -->
<g id="edge54" class="edge">
<title>Node33&#45;&gt;Node6</title>
<path fill="none" stroke="midnightblue" d="M71,-291.49C71,-271.74 71,-221.22 71,-179 71,-179 71,-179 71,-121 71,-23.48 228.92,-11.22 297.66,-10.5"/>
<polygon fill="midnightblue" stroke="midnightblue" points="297.9,-14 307.89,-10.48 297.88,-7 297.9,-14"/>
</g>
<!-- Node34 -->
<g id="node34" class="node">
<title>Node34</title>
<g id="a_node34"><a xlink:title=" ">
<polygon fill="white" stroke="#bfbfbf" points="99,-230 99,-249 163,-249 163,-230 99,-230"/>
<text text-anchor="middle" x="131" y="-237" font-family="Helvetica,sans-Serif" font-size="10.00">algorithm</text>
</a>
</g>
</g>
<!-- Node33&#45;&gt;Node34 -->
<g id="edge53" class="edge">
<title>Node33&#45;&gt;Node34</title>
<path fill="none" stroke="midnightblue" d="M79.6,-291.48C88.86,-282.28 103.82,-267.46 115.21,-256.16"/>
<polygon fill="midnightblue" stroke="midnightblue" points="117.78,-258.54 122.42,-249.01 112.85,-253.57 117.78,-258.54"/>
</g>
<!-- Node38&#45;&gt;Node4 -->
<g id="edge61" class="edge">
<title>Node38&#45;&gt;Node4</title>
<path fill="none" stroke="midnightblue" d="M586.03,-291.42C573.33,-276.69 551.38,-246.02 566,-224 583.74,-197.28 668.35,-177.44 699,-168 749.78,-152.36 808.76,-140.73 853.31,-133.22"/>
<polygon fill="midnightblue" stroke="midnightblue" points="854.16,-136.62 863.45,-131.53 853.01,-129.72 854.16,-136.62"/>
</g>
<!-- Node38&#45;&gt;Node6 -->
<g id="edge63" class="edge">
<title>Node38&#45;&gt;Node6</title>
<path fill="none" stroke="midnightblue" d="M511.97,-296.06C434.14,-287.38 329,-260.55 329,-179 329,-179 329,-179 329,-121 329,-88.95 329,-51.64 329,-29.75"/>
<polygon fill="midnightblue" stroke="midnightblue" points="332.5,-29.56 329,-19.56 325.5,-29.56 332.5,-29.56"/>
</g>
<!-- Node38&#45;&gt;Node14 -->
<g id="edge62" class="edge">
<title>Node38&#45;&gt;Node14</title>
<path fill="none" stroke="midnightblue" d="M638.15,-291.44C682.46,-282.74 752.61,-268.62 813,-255 818.02,-253.87 823.26,-252.64 828.47,-251.4"/>
<polygon fill="midnightblue" stroke="midnightblue" points="829.46,-254.76 838.36,-249 827.81,-247.96 829.46,-254.76"/>
</g>
<!-- Node38&#45;&gt;Node20 -->
<g id="edge64" class="edge">
<title>Node38&#45;&gt;Node20</title>
<path fill="none" stroke="midnightblue" d="M623.87,-291.39C646.76,-283.94 678.47,-271.73 703,-255 727.23,-238.47 749.74,-212.84 763.18,-195.99"/>
<polygon fill="midnightblue" stroke="midnightblue" points="766.3,-197.69 769.67,-187.64 760.77,-193.39 766.3,-197.69"/>
</g>
<!-- Node39&#45;&gt;Node4 -->
<g id="edge66" class="edge">
<title>Node39&#45;&gt;Node4</title>
<path fill="none" stroke="midnightblue" d="M578.02,-169.21C650.34,-159.49 773.84,-142.9 851.52,-132.47"/>
<polygon fill="midnightblue" stroke="midnightblue" points="852.25,-135.9 861.69,-131.1 851.32,-128.96 852.25,-135.9"/>
</g>
<!-- Node39&#45;&gt;Node10 -->
<g id="edge72" class="edge">
<title>Node39&#45;&gt;Node10</title>
<path fill="none" stroke="midnightblue" d="M529.09,-168.08C556.38,-141.27 637.9,-61.19 672.83,-26.89"/>
<polygon fill="midnightblue" stroke="midnightblue" points="675.6,-29.07 680.28,-19.57 670.69,-24.08 675.6,-29.07"/>
</g>
<!-- Node39&#45;&gt;Node16 -->
<g id="edge71" class="edge">
<title>Node39&#45;&gt;Node16</title>
<path fill="none" stroke="midnightblue" d="M536.07,-168.32C551.96,-159.74 576.51,-146.49 594.96,-136.52"/>
<polygon fill="midnightblue" stroke="midnightblue" points="596.84,-139.49 603.97,-131.65 593.51,-133.33 596.84,-139.49"/>
</g>
<!-- Node39&#45;&gt;Node25 -->
<g id="edge67" class="edge">
<title>Node39&#45;&gt;Node25</title>
<path fill="none" stroke="midnightblue" d="M578.07,-173.09C735.25,-162.53 1165.45,-133.59 1289.26,-125.27"/>
<polygon fill="midnightblue" stroke="midnightblue" points="1289.54,-128.76 1299.29,-124.59 1289.07,-121.77 1289.54,-128.76"/>
</g>
<!-- Node40 -->
<g id="node40" class="node">
<title>Node40</title>
<g id="a_node40"><a xlink:title=" ">
<polygon fill="white" stroke="#bfbfbf" points="414.5,-112.5 414.5,-131.5 479.5,-131.5 479.5,-112.5 414.5,-112.5"/>
<text text-anchor="middle" x="447" y="-119.5" font-family="Helvetica,sans-Serif" font-size="10.00">functional</text>
</a>
</g>
</g>
<!-- Node39&#45;&gt;Node40 -->
<g id="edge68" class="edge">
<title>Node39&#45;&gt;Node40</title>
<path fill="none" stroke="midnightblue" d="M508.27,-168.32C497.16,-160.11 480.26,-147.6 467.02,-137.81"/>
<polygon fill="midnightblue" stroke="midnightblue" points="469.06,-134.97 458.94,-131.83 464.9,-140.59 469.06,-134.97"/>
</g>
<!-- Node41 -->
<g id="node41" class="node">
<title>Node41</title>
<g id="a_node41"><a xlink:title=" ">
<polygon fill="white" stroke="#bfbfbf" points="498,-112.5 498,-131.5 542,-131.5 542,-112.5 498,-112.5"/>
<text text-anchor="middle" x="520" y="-119.5" font-family="Helvetica,sans-Serif" font-size="10.00">limits</text>
</a>
</g>
</g>
<!-- Node39&#45;&gt;Node41 -->
<g id="edge69" class="edge">
<title>Node39&#45;&gt;Node41</title>
<path fill="none" stroke="midnightblue" d="M520,-168.08C520,-161.01 520,-150.86 520,-141.99"/>
<polygon fill="midnightblue" stroke="midnightblue" points="523.5,-141.75 520,-131.75 516.5,-141.75 523.5,-141.75"/>
</g>
<!-- Node42 -->
<g id="node42" class="node">
<title>Node42</title>
<g id="a_node42"><a xlink:title=" ">
<polygon fill="white" stroke="#bfbfbf" points="357.5,-112.5 357.5,-131.5 396.5,-131.5 396.5,-112.5 357.5,-112.5"/>
<text text-anchor="middle" x="377" y="-119.5" font-family="Helvetica,sans-Serif" font-size="10.00">ratio</text>
</a>
</g>
</g>
<!-- Node39&#45;&gt;Node42 -->
<g id="edge70" class="edge">
<title>Node39&#45;&gt;Node42</title>
<path fill="none" stroke="midnightblue" d="M497.34,-168.44C472.76,-159.16 433.43,-144.31 406.46,-134.13"/>
<polygon fill="midnightblue" stroke="midnightblue" points="407.38,-130.73 396.79,-130.47 404.91,-137.28 407.38,-130.73"/>
</g>
<!-- Node43&#45;&gt;Node29 -->
<g id="edge77" class="edge">
<title>Node43&#45;&gt;Node29</title>
<path fill="none" stroke="midnightblue" d="M395.94,-414.5C459.84,-405.86 560.84,-391.82 648,-378 656.31,-376.68 665.07,-375.23 673.66,-373.76"/>
<polygon fill="midnightblue" stroke="midnightblue" points="674.38,-377.19 683.64,-372.04 673.19,-370.29 674.38,-377.19"/>
</g>
<!-- Node43&#45;&gt;Node30 -->
<g id="edge78" class="edge">
<title>Node43&#45;&gt;Node30</title>
<path fill="none" stroke="midnightblue" d="M368.25,-414.48C407.88,-405.16 472.16,-390.04 520.45,-378.68"/>
<polygon fill="midnightblue" stroke="midnightblue" points="521.25,-382.09 530.19,-376.39 519.65,-375.27 521.25,-382.09"/>
</g>
<!-- Node43&#45;&gt;Node32 -->
<g id="edge79" class="edge">
<title>Node43&#45;&gt;Node32</title>
<path fill="none" stroke="midnightblue" d="M328.56,-414.48C325.1,-405.9 319.67,-392.43 315.25,-381.48"/>
<polygon fill="midnightblue" stroke="midnightblue" points="318.42,-379.97 311.43,-372.01 311.93,-382.59 318.42,-379.97"/>
</g>
<!-- Node44 -->
<g id="node44" class="node">
<title>Node44</title>
<g id="a_node44"><a xlink:title=" ">
<polygon fill="white" stroke="#bfbfbf" points="140,-353 140,-372 180,-372 180,-353 140,-353"/>
<text text-anchor="middle" x="160" y="-360" font-family="Helvetica,sans-Serif" font-size="10.00">span</text>
</a>
</g>
</g>
<!-- Node43&#45;&gt;Node44 -->
<g id="edge80" class="edge">
<title>Node43&#45;&gt;Node44</title>
<path fill="none" stroke="midnightblue" d="M303.47,-414.5C275.38,-405.94 231.39,-392.04 194,-378 192.35,-377.38 190.66,-376.73 188.96,-376.05"/>
<polygon fill="midnightblue" stroke="midnightblue" points="189.88,-372.65 179.3,-372.08 187.22,-379.12 189.88,-372.65"/>
</g>
</g>
</svg>
