<?xml version="1.0" encoding="UTF-8" standalone="no"?>
<!DOCTYPE svg PUBLIC "-//W3C//DTD SVG 1.1//EN"
 "http://www.w3.org/Graphics/SVG/1.1/DTD/svg11.dtd">
<!-- Generated by graphviz version 2.43.0 (0)
 -->
<!-- Title: include/emlabcpp/protocol/handler.h Pages: 1 -->
<svg width="981pt" height="274pt"
 viewBox="0.00 0.00 981.40 274.00" xmlns="http://www.w3.org/2000/svg" xmlns:xlink="http://www.w3.org/1999/xlink">
<g id="graph0" class="graph" transform="scale(1 1) rotate(0) translate(4 270)">
<title>include/emlabcpp/protocol/handler.h</title>
<polygon fill="white" stroke="transparent" points="-4,4 -4,-270 977.4,-270 977.4,4 -4,4"/>
<!-- Node1 -->
<g id="node1" class="node">
<title>Node1</title>
<g id="a_node1"><a xlink:title=" ">
<polygon fill="#bfbfbf" stroke="black" points="453.5,-235.5 453.5,-265.5 599.5,-265.5 599.5,-235.5 453.5,-235.5"/>
<text text-anchor="start" x="461.5" y="-253.5" font-family="Helvetica,sans-Serif" font-size="10.00">include/emlabcpp/protocol</text>
<text text-anchor="middle" x="526.5" y="-242.5" font-family="Helvetica,sans-Serif" font-size="10.00">/handler.h</text>
</a>
</g>
</g>
<!-- Node2 -->
<g id="node2" class="node">
<title>Node2</title>
<g id="a_node2"><a xlink:href="either_8h.html" target="_top" xlink:title=" ">
<polygon fill="white" stroke="black" points="419.5,-123.5 419.5,-142.5 523.5,-142.5 523.5,-123.5 419.5,-123.5"/>
<text text-anchor="middle" x="471.5" y="-130.5" font-family="Helvetica,sans-Serif" font-size="10.00">emlabcpp/either.h</text>
</a>
</g>
</g>
<!-- Node1&#45;&gt;Node2 -->
<g id="edge1" class="edge">
<title>Node1&#45;&gt;Node2</title>
<path fill="none" stroke="midnightblue" d="M524.45,-235.37C521.92,-220.68 516.78,-197.32 507.5,-179 502.2,-168.53 494.2,-158.21 487.09,-150.1"/>
<polygon fill="midnightblue" stroke="midnightblue" points="489.49,-147.54 480.15,-142.54 484.33,-152.27 489.49,-147.54"/>
</g>
<!-- Node25 -->
<g id="node6" class="node">
<title>Node25</title>
<g id="a_node6"><a xlink:href="types_8h.html" target="_top" xlink:title=" ">
<polygon fill="white" stroke="red" points="717.5,-62 717.5,-81 821.5,-81 821.5,-62 717.5,-62"/>
<text text-anchor="middle" x="769.5" y="-69" font-family="Helvetica,sans-Serif" font-size="10.00">emlabcpp/types.h</text>
</a>
</g>
</g>
<!-- Node1&#45;&gt;Node25 -->
<g id="edge26" class="edge">
<title>Node1&#45;&gt;Node25</title>
<path fill="none" stroke="midnightblue" d="M599.93,-242.45C712.64,-229.94 919.95,-199.68 964.5,-143 1002.61,-94.51 902.38,-79.35 831.9,-74.62"/>
<polygon fill="midnightblue" stroke="midnightblue" points="831.93,-71.12 821.74,-74 831.5,-78.1 831.93,-71.12"/>
</g>
<!-- Node29 -->
<g id="node9" class="node">
<title>Node29</title>
<g id="a_node9"><a xlink:href="converter_8h.html" target="_top" xlink:title=" ">
<polygon fill="white" stroke="black" points="333,-179.5 333,-198.5 498,-198.5 498,-179.5 333,-179.5"/>
<text text-anchor="middle" x="415.5" y="-186.5" font-family="Helvetica,sans-Serif" font-size="10.00">emlabcpp/protocol/converter.h</text>
</a>
</g>
</g>
<!-- Node1&#45;&gt;Node29 -->
<g id="edge10" class="edge">
<title>Node1&#45;&gt;Node29</title>
<path fill="none" stroke="midnightblue" d="M500.19,-235.4C482.24,-225.77 458.58,-213.09 440.83,-203.58"/>
<polygon fill="midnightblue" stroke="midnightblue" points="442.12,-200.3 431.65,-198.66 438.81,-206.47 442.12,-200.3"/>
</g>
<!-- Node3 -->
<g id="node3" class="node">
<title>Node3</title>
<g id="a_node3"><a xlink:href="static__vector_8h.html" target="_top" xlink:title=" ">
<polygon fill="white" stroke="red" points="426,-62 426,-81 565,-81 565,-62 426,-62"/>
<text text-anchor="middle" x="495.5" y="-69" font-family="Helvetica,sans-Serif" font-size="10.00">emlabcpp/static_vector.h</text>
</a>
</g>
</g>
<!-- Node2&#45;&gt;Node3 -->
<g id="edge2" class="edge">
<title>Node2&#45;&gt;Node3</title>
<path fill="none" stroke="midnightblue" d="M474.94,-123.48C478.4,-114.9 483.83,-101.43 488.25,-90.48"/>
<polygon fill="midnightblue" stroke="midnightblue" points="491.57,-91.59 492.07,-81.01 485.08,-88.97 491.57,-91.59"/>
</g>
<!-- Node10 -->
<g id="node4" class="node">
<title>Node10</title>
<g id="a_node4"><a xlink:title=" ">
<polygon fill="white" stroke="#bfbfbf" points="355,-0.5 355,-19.5 424,-19.5 424,-0.5 355,-0.5"/>
<text text-anchor="middle" x="389.5" y="-7.5" font-family="Helvetica,sans-Serif" font-size="10.00">type_traits</text>
</a>
</g>
</g>
<!-- Node2&#45;&gt;Node10 -->
<g id="edge8" class="edge">
<title>Node2&#45;&gt;Node10</title>
<path fill="none" stroke="midnightblue" d="M453.01,-123.36C438.74,-115.75 419.62,-103.33 408.5,-87 396.81,-69.83 392.3,-46.09 390.57,-29.74"/>
<polygon fill="midnightblue" stroke="midnightblue" points="394.06,-29.45 389.76,-19.76 387.08,-30.01 394.06,-29.45"/>
</g>
<!-- Node28 -->
<g id="node5" class="node">
<title>Node28</title>
<g id="a_node5"><a xlink:title=" ">
<polygon fill="white" stroke="#bfbfbf" points="457,-0.5 457,-19.5 502,-19.5 502,-0.5 457,-0.5"/>
<text text-anchor="middle" x="479.5" y="-7.5" font-family="Helvetica,sans-Serif" font-size="10.00">utility</text>
</a>
</g>
</g>
<!-- Node2&#45;&gt;Node28 -->
<g id="edge9" class="edge">
<title>Node2&#45;&gt;Node28</title>
<path fill="none" stroke="midnightblue" d="M454.87,-123.46C442.01,-115.84 425.16,-103.36 417.5,-87 411.66,-74.52 411.24,-68.27 417.5,-56 424.5,-42.27 437.87,-31.75 450.4,-24.35"/>
<polygon fill="midnightblue" stroke="midnightblue" points="452.17,-27.37 459.28,-19.51 448.82,-21.22 452.17,-27.37"/>
</g>
<!-- Node2&#45;&gt;Node25 -->
<g id="edge5" class="edge">
<title>Node2&#45;&gt;Node25</title>
<path fill="none" stroke="midnightblue" d="M520.2,-123.43C568.2,-114.82 643.58,-100.87 708.5,-87 713.82,-85.86 719.39,-84.62 724.91,-83.35"/>
<polygon fill="midnightblue" stroke="midnightblue" points="725.78,-86.74 734.72,-81.06 724.19,-79.92 725.78,-86.74"/>
</g>
<!-- Node21 -->
<g id="node7" class="node">
<title>Node21</title>
<g id="a_node7"><a xlink:title=" ">
<polygon fill="white" stroke="#bfbfbf" points="583.5,-62 583.5,-81 639.5,-81 639.5,-62 583.5,-62"/>
<text text-anchor="middle" x="611.5" y="-69" font-family="Helvetica,sans-Serif" font-size="10.00">optional</text>
</a>
</g>
</g>
<!-- Node2&#45;&gt;Node21 -->
<g id="edge6" class="edge">
<title>Node2&#45;&gt;Node21</title>
<path fill="none" stroke="midnightblue" d="M491.56,-123.48C515.26,-113.4 554.91,-96.55 582.08,-85"/>
<polygon fill="midnightblue" stroke="midnightblue" points="583.64,-88.14 591.48,-81.01 580.91,-81.7 583.64,-88.14"/>
</g>
<!-- Node9 -->
<g id="node8" class="node">
<title>Node9</title>
<g id="a_node8"><a xlink:title=" ">
<polygon fill="white" stroke="#bfbfbf" points="658,-62 658,-81 699,-81 699,-62 658,-62"/>
<text text-anchor="middle" x="678.5" y="-69" font-family="Helvetica,sans-Serif" font-size="10.00">tuple</text>
</a>
</g>
</g>
<!-- Node2&#45;&gt;Node9 -->
<g id="edge7" class="edge">
<title>Node2&#45;&gt;Node9</title>
<path fill="none" stroke="midnightblue" d="M515.15,-123.47C551.44,-115.77 604.11,-103.18 648.5,-87 649.93,-86.48 651.38,-85.91 652.83,-85.32"/>
<polygon fill="midnightblue" stroke="midnightblue" points="654.56,-88.38 662.25,-81.09 651.7,-81.99 654.56,-88.38"/>
</g>
<!-- Node3&#45;&gt;Node10 -->
<g id="edge3" class="edge">
<title>Node3&#45;&gt;Node10</title>
<path fill="none" stroke="midnightblue" d="M480.31,-61.98C462.84,-52.17 433.92,-35.93 413.42,-24.42"/>
<polygon fill="midnightblue" stroke="midnightblue" points="415.09,-21.35 404.66,-19.51 411.67,-27.46 415.09,-21.35"/>
</g>
<!-- Node3&#45;&gt;Node28 -->
<g id="edge4" class="edge">
<title>Node3&#45;&gt;Node28</title>
<path fill="none" stroke="midnightblue" d="M493.21,-61.98C490.93,-53.49 487.35,-40.2 484.43,-29.32"/>
<polygon fill="midnightblue" stroke="midnightblue" points="487.76,-28.26 481.79,-19.51 481.01,-30.07 487.76,-28.26"/>
</g>
<!-- Node29&#45;&gt;Node2 -->
<g id="edge15" class="edge">
<title>Node29&#45;&gt;Node2</title>
<path fill="none" stroke="midnightblue" d="M424.5,-179.32C432.69,-171.42 445.01,-159.55 454.97,-149.94"/>
<polygon fill="midnightblue" stroke="midnightblue" points="457.57,-152.29 462.34,-142.83 452.71,-147.26 457.57,-152.29"/>
</g>
<!-- Node30 -->
<g id="node10" class="node">
<title>Node30</title>
<g id="a_node10"><a xlink:href="algorithm_8h.html" target="_top" xlink:title=" ">
<polygon fill="white" stroke="red" points="705.5,-123.5 705.5,-142.5 829.5,-142.5 829.5,-123.5 705.5,-123.5"/>
<text text-anchor="middle" x="767.5" y="-130.5" font-family="Helvetica,sans-Serif" font-size="10.00">emlabcpp/algorithm.h</text>
</a>
</g>
</g>
<!-- Node29&#45;&gt;Node30 -->
<g id="edge11" class="edge">
<title>Node29&#45;&gt;Node30</title>
<path fill="none" stroke="midnightblue" d="M471.28,-179.44C533.97,-169.83 635.65,-154.23 702.05,-144.04"/>
<polygon fill="midnightblue" stroke="midnightblue" points="702.63,-147.49 711.99,-142.52 701.57,-140.57 702.63,-147.49"/>
</g>
<!-- Node36 -->
<g id="node11" class="node">
<title>Node36</title>
<g id="a_node11"><a xlink:href="assert_8h.html" target="_top" xlink:title=" ">
<polygon fill="white" stroke="red" points="848,-123.5 848,-142.5 955,-142.5 955,-123.5 848,-123.5"/>
<text text-anchor="middle" x="901.5" y="-130.5" font-family="Helvetica,sans-Serif" font-size="10.00">emlabcpp/assert.h</text>
</a>
</g>
</g>
<!-- Node29&#45;&gt;Node36 -->
<g id="edge14" class="edge">
<title>Node29&#45;&gt;Node36</title>
<path fill="none" stroke="midnightblue" d="M498.28,-180.08C581.37,-171.93 713.33,-158.43 837.81,-143.04"/>
<polygon fill="midnightblue" stroke="midnightblue" points="838.41,-146.5 847.9,-141.79 837.55,-139.55 838.41,-146.5"/>
</g>
<!-- Node38 -->
<g id="node12" class="node">
<title>Node38</title>
<g id="a_node12"><a xlink:href="bounded__view_8h.html" target="_top" xlink:title=" ">
<polygon fill="white" stroke="red" points="0,-56.5 0,-86.5 133,-86.5 133,-56.5 0,-56.5"/>
<text text-anchor="start" x="8" y="-74.5" font-family="Helvetica,sans-Serif" font-size="10.00">emlabcpp/experimental</text>
<text text-anchor="middle" x="66.5" y="-63.5" font-family="Helvetica,sans-Serif" font-size="10.00">/bounded_view.h</text>
</a>
</g>
</g>
<!-- Node29&#45;&gt;Node38 -->
<g id="edge16" class="edge">
<title>Node29&#45;&gt;Node38</title>
<path fill="none" stroke="midnightblue" d="M332.99,-183.08C234.84,-176.37 81.98,-162.86 64.5,-143 53.52,-130.53 54.75,-111.47 58.32,-96.31"/>
<polygon fill="midnightblue" stroke="midnightblue" points="61.72,-97.15 61.04,-86.57 54.98,-95.26 61.72,-97.15"/>
</g>
<!-- Node39 -->
<g id="node13" class="node">
<title>Node39</title>
<g id="a_node13"><a xlink:href="numeric_8h.html" target="_top" xlink:title=" ">
<polygon fill="white" stroke="red" points="191,-56.5 191,-86.5 300,-86.5 300,-56.5 191,-56.5"/>
<text text-anchor="start" x="199" y="-74.5" font-family="Helvetica,sans-Serif" font-size="10.00">emlabcpp/iterators</text>
<text text-anchor="middle" x="245.5" y="-63.5" font-family="Helvetica,sans-Serif" font-size="10.00">/numeric.h</text>
</a>
</g>
</g>
<!-- Node29&#45;&gt;Node39 -->
<g id="edge17" class="edge">
<title>Node29&#45;&gt;Node39</title>
<path fill="none" stroke="midnightblue" d="M365.3,-179.48C339.23,-173 308.17,-161.87 285.5,-143 270.68,-130.67 260.27,-111.35 253.79,-96.05"/>
<polygon fill="midnightblue" stroke="midnightblue" points="257.02,-94.7 250.09,-86.69 250.51,-97.27 257.02,-94.7"/>
</g>
<!-- Node18 -->
<g id="node14" class="node">
<title>Node18</title>
<g id="a_node14"><a xlink:href="match_8h.html" target="_top" xlink:title=" ">
<polygon fill="white" stroke="red" points="294,-123.5 294,-142.5 401,-142.5 401,-123.5 294,-123.5"/>
<text text-anchor="middle" x="347.5" y="-130.5" font-family="Helvetica,sans-Serif" font-size="10.00">emlabcpp/match.h</text>
</a>
</g>
</g>
<!-- Node29&#45;&gt;Node18 -->
<g id="edge18" class="edge">
<title>Node29&#45;&gt;Node18</title>
<path fill="none" stroke="midnightblue" d="M404.57,-179.32C394.33,-171.18 378.78,-158.84 366.5,-149.09"/>
<polygon fill="midnightblue" stroke="midnightblue" points="368.63,-146.31 358.62,-142.83 364.28,-151.79 368.63,-146.31"/>
</g>
<!-- Node40 -->
<g id="node15" class="node">
<title>Node40</title>
<g id="a_node15"><a xlink:href="serializer_8h.html" target="_top" xlink:title=" ">
<polygon fill="white" stroke="red" points="73.5,-123.5 73.5,-142.5 237.5,-142.5 237.5,-123.5 73.5,-123.5"/>
<text text-anchor="middle" x="155.5" y="-130.5" font-family="Helvetica,sans-Serif" font-size="10.00">emlabcpp/protocol/serializer.h</text>
</a>
</g>
</g>
<!-- Node29&#45;&gt;Node40 -->
<g id="edge19" class="edge">
<title>Node29&#45;&gt;Node40</title>
<path fill="none" stroke="midnightblue" d="M374.3,-179.44C328.85,-170 255.66,-154.8 206.59,-144.61"/>
<polygon fill="midnightblue" stroke="midnightblue" points="207.01,-141.12 196.51,-142.52 205.58,-147.98 207.01,-141.12"/>
</g>
<!-- Node48 -->
<g id="node16" class="node">
<title>Node48</title>
<g id="a_node16"><a xlink:href="traits_8h.html" target="_top" xlink:title=" ">
<polygon fill="white" stroke="red" points="542,-123.5 542,-142.5 687,-142.5 687,-123.5 542,-123.5"/>
<text text-anchor="middle" x="614.5" y="-130.5" font-family="Helvetica,sans-Serif" font-size="10.00">emlabcpp/protocol/traits.h</text>
</a>
</g>
</g>
<!-- Node29&#45;&gt;Node48 -->
<g id="edge22" class="edge">
<title>Node29&#45;&gt;Node48</title>
<path fill="none" stroke="midnightblue" d="M447.03,-179.44C481.09,-170.2 535.51,-155.44 573.02,-145.26"/>
<polygon fill="midnightblue" stroke="midnightblue" points="574.38,-148.51 583.12,-142.52 572.55,-141.76 574.38,-148.51"/>
</g>
<!-- Node30&#45;&gt;Node25 -->
<g id="edge12" class="edge">
<title>Node30&#45;&gt;Node25</title>
<path fill="none" stroke="midnightblue" d="M767.79,-123.48C768.07,-115.08 768.51,-101.98 768.87,-91.16"/>
<polygon fill="midnightblue" stroke="midnightblue" points="772.38,-91.12 769.21,-81.01 765.38,-90.89 772.38,-91.12"/>
</g>
<!-- Node30&#45;&gt;Node9 -->
<g id="edge13" class="edge">
<title>Node30&#45;&gt;Node9</title>
<path fill="none" stroke="midnightblue" d="M754.75,-123.48C740.47,-113.93 717.1,-98.31 699.99,-86.87"/>
<polygon fill="midnightblue" stroke="midnightblue" points="701.49,-83.66 691.23,-81.01 697.6,-89.48 701.49,-83.66"/>
</g>
<!-- Node40&#45;&gt;Node38 -->
<g id="edge20" class="edge">
<title>Node40&#45;&gt;Node38</title>
<path fill="none" stroke="midnightblue" d="M142.75,-123.48C130.58,-115.34 111.81,-102.79 95.94,-92.18"/>
<polygon fill="midnightblue" stroke="midnightblue" points="97.73,-89.17 87.48,-86.52 93.84,-94.99 97.73,-89.17"/>
</g>
<!-- Node40&#45;&gt;Node39 -->
<g id="edge21" class="edge">
<title>Node40&#45;&gt;Node39</title>
<path fill="none" stroke="midnightblue" d="M168.39,-123.48C180.7,-115.34 199.68,-102.79 215.73,-92.18"/>
<polygon fill="midnightblue" stroke="midnightblue" points="217.88,-94.96 224.29,-86.52 214.02,-89.12 217.88,-94.96"/>
</g>
<!-- Node48&#45;&gt;Node3 -->
<g id="edge23" class="edge">
<title>Node48&#45;&gt;Node3</title>
<path fill="none" stroke="midnightblue" d="M597.45,-123.48C577.66,-113.58 544.78,-97.14 521.73,-85.62"/>
<polygon fill="midnightblue" stroke="midnightblue" points="523.03,-82.35 512.52,-81.01 519.9,-88.61 523.03,-82.35"/>
</g>
<!-- Node48&#45;&gt;Node25 -->
<g id="edge24" class="edge">
<title>Node48&#45;&gt;Node25</title>
<path fill="none" stroke="midnightblue" d="M636.71,-123.48C663.18,-113.31 707.61,-96.26 737.72,-84.7"/>
<polygon fill="midnightblue" stroke="midnightblue" points="739.25,-87.86 747.33,-81.01 736.74,-81.33 739.25,-87.86"/>
</g>
<!-- Node48&#45;&gt;Node21 -->
<g id="edge25" class="edge">
<title>Node48&#45;&gt;Node21</title>
<path fill="none" stroke="midnightblue" d="M614.07,-123.48C613.65,-115.08 612.99,-101.98 612.44,-91.16"/>
<polygon fill="midnightblue" stroke="midnightblue" points="615.93,-90.82 611.93,-81.01 608.94,-91.17 615.93,-90.82"/>
</g>
</g>
</svg>
