<?xml version="1.0" encoding="UTF-8" standalone="no"?>
<!DOCTYPE svg PUBLIC "-//W3C//DTD SVG 1.1//EN"
 "http://www.w3.org/Graphics/SVG/1.1/DTD/svg11.dtd">
<!-- Generated by graphviz version 2.43.0 (0)
 -->
<!-- Title: include/emlabcpp/protocol/handler.h Pages: 1 -->
<svg width="1095pt" height="218pt"
 viewBox="0.00 0.00 1094.77 218.00" xmlns="http://www.w3.org/2000/svg" xmlns:xlink="http://www.w3.org/1999/xlink">
<g id="graph0" class="graph" transform="scale(1 1) rotate(0) translate(4 214)">
<title>include/emlabcpp/protocol/handler.h</title>
<polygon fill="white" stroke="transparent" points="-4,4 -4,-214 1090.77,-214 1090.77,4 -4,4"/>
<!-- Node1 -->
<g id="node1" class="node">
<title>Node1</title>
<g id="a_node1"><a xlink:title=" ">
<polygon fill="#bfbfbf" stroke="black" points="490.5,-179.5 490.5,-209.5 636.5,-209.5 636.5,-179.5 490.5,-179.5"/>
<text text-anchor="start" x="498.5" y="-197.5" font-family="Helvetica,sans-Serif" font-size="10.00">include/emlabcpp/protocol</text>
<text text-anchor="middle" x="563.5" y="-186.5" font-family="Helvetica,sans-Serif" font-size="10.00">/handler.h</text>
</a>
</g>
</g>
<!-- Node2 -->
<g id="node2" class="node">
<title>Node2</title>
<g id="a_node2"><a xlink:href="either_8h.html" target="_top" xlink:title=" ">
<polygon fill="white" stroke="black" points="98.5,-62 98.5,-81 202.5,-81 202.5,-62 98.5,-62"/>
<text text-anchor="middle" x="150.5" y="-69" font-family="Helvetica,sans-Serif" font-size="10.00">emlabcpp/either.h</text>
</a>
</g>
</g>
<!-- Node1&#45;&gt;Node2 -->
<g id="edge1" class="edge">
<title>Node1&#45;&gt;Node2</title>
<path fill="none" stroke="midnightblue" d="M515.32,-179.38C432.54,-155.13 264.93,-106.03 189.2,-83.84"/>
<polygon fill="midnightblue" stroke="midnightblue" points="190.15,-80.47 179.57,-81.02 188.18,-87.19 190.15,-80.47"/>
</g>
<!-- Node24 -->
<g id="node4" class="node">
<title>Node24</title>
<g id="a_node4"><a xlink:href="types_8h.html" target="_top" xlink:title=" ">
<polygon fill="white" stroke="red" points="794.5,-0.5 794.5,-19.5 898.5,-19.5 898.5,-0.5 794.5,-0.5"/>
<text text-anchor="middle" x="846.5" y="-7.5" font-family="Helvetica,sans-Serif" font-size="10.00">emlabcpp/types.h</text>
</a>
</g>
</g>
<!-- Node1&#45;&gt;Node24 -->
<g id="edge21" class="edge">
<title>Node1&#45;&gt;Node24</title>
<path fill="none" stroke="midnightblue" d="M636.58,-189.33C764.78,-180.33 1021.85,-154.16 1076.5,-87 1124.08,-28.52 992.23,-14.68 908.92,-11.63"/>
<polygon fill="midnightblue" stroke="midnightblue" points="908.87,-8.13 898.77,-11.3 908.65,-15.12 908.87,-8.13"/>
</g>
<!-- Node39 -->
<g id="node9" class="node">
<title>Node39</title>
<g id="a_node9"><a xlink:href="converter_8h.html" target="_top" xlink:title=" ">
<polygon fill="white" stroke="black" points="481,-123.5 481,-142.5 646,-142.5 646,-123.5 481,-123.5"/>
<text text-anchor="middle" x="563.5" y="-130.5" font-family="Helvetica,sans-Serif" font-size="10.00">emlabcpp/protocol/converter.h</text>
</a>
</g>
</g>
<!-- Node1&#45;&gt;Node39 -->
<g id="edge8" class="edge">
<title>Node1&#45;&gt;Node39</title>
<path fill="none" stroke="midnightblue" d="M563.5,-179.4C563.5,-171.47 563.5,-161.46 563.5,-152.86"/>
<polygon fill="midnightblue" stroke="midnightblue" points="567,-152.66 563.5,-142.66 560,-152.66 567,-152.66"/>
</g>
<!-- Node3 -->
<g id="node3" class="node">
<title>Node3</title>
<g id="a_node3"><a xlink:href="static__vector_8h.html" target="_top" xlink:title=" ">
<polygon fill="white" stroke="red" points="150,-0.5 150,-19.5 289,-19.5 289,-0.5 150,-0.5"/>
<text text-anchor="middle" x="219.5" y="-7.5" font-family="Helvetica,sans-Serif" font-size="10.00">emlabcpp/static_vector.h</text>
</a>
</g>
</g>
<!-- Node2&#45;&gt;Node3 -->
<g id="edge2" class="edge">
<title>Node2&#45;&gt;Node3</title>
<path fill="none" stroke="midnightblue" d="M160.39,-61.98C171.15,-52.7 188.57,-37.67 201.72,-26.33"/>
<polygon fill="midnightblue" stroke="midnightblue" points="204.34,-28.69 209.63,-19.51 199.77,-23.39 204.34,-28.69"/>
</g>
<!-- Node2&#45;&gt;Node24 -->
<g id="edge3" class="edge">
<title>Node2&#45;&gt;Node24</title>
<path fill="none" stroke="midnightblue" d="M181.97,-61.99C191.4,-59.72 201.82,-57.48 211.5,-56 320.63,-39.28 646.2,-21.25 783.9,-14.14"/>
<polygon fill="midnightblue" stroke="midnightblue" points="784.46,-17.61 794.27,-13.6 784.1,-10.62 784.46,-17.61"/>
</g>
<!-- Node31 -->
<g id="node5" class="node">
<title>Node31</title>
<g id="a_node5"><a xlink:title=" ">
<polygon fill="white" stroke="#bfbfbf" points="307.5,-0.5 307.5,-19.5 363.5,-19.5 363.5,-0.5 307.5,-0.5"/>
<text text-anchor="middle" x="335.5" y="-7.5" font-family="Helvetica,sans-Serif" font-size="10.00">optional</text>
</a>
</g>
</g>
<!-- Node2&#45;&gt;Node31 -->
<g id="edge4" class="edge">
<title>Node2&#45;&gt;Node31</title>
<path fill="none" stroke="midnightblue" d="M177.01,-61.98C209.15,-51.64 263.49,-34.16 299.43,-22.6"/>
<polygon fill="midnightblue" stroke="midnightblue" points="300.6,-25.9 309.04,-19.51 298.45,-19.24 300.6,-25.9"/>
</g>
<!-- Node9 -->
<g id="node6" class="node">
<title>Node9</title>
<g id="a_node6"><a xlink:title=" ">
<polygon fill="white" stroke="#bfbfbf" points="617,-0.5 617,-19.5 658,-19.5 658,-0.5 617,-0.5"/>
<text text-anchor="middle" x="637.5" y="-7.5" font-family="Helvetica,sans-Serif" font-size="10.00">tuple</text>
</a>
</g>
</g>
<!-- Node2&#45;&gt;Node9 -->
<g id="edge5" class="edge">
<title>Node2&#45;&gt;Node9</title>
<path fill="none" stroke="midnightblue" d="M182.95,-61.97C192.13,-59.78 202.17,-57.6 211.5,-56 358.32,-30.9 536.16,-17.53 606.61,-12.9"/>
<polygon fill="midnightblue" stroke="midnightblue" points="607.22,-16.37 616.98,-12.23 606.77,-9.38 607.22,-16.37"/>
</g>
<!-- Node10 -->
<g id="node7" class="node">
<title>Node10</title>
<g id="a_node7"><a xlink:title=" ">
<polygon fill="white" stroke="#bfbfbf" points="0,-0.5 0,-19.5 69,-19.5 69,-0.5 0,-0.5"/>
<text text-anchor="middle" x="34.5" y="-7.5" font-family="Helvetica,sans-Serif" font-size="10.00">type_traits</text>
</a>
</g>
</g>
<!-- Node2&#45;&gt;Node10 -->
<g id="edge6" class="edge">
<title>Node2&#45;&gt;Node10</title>
<path fill="none" stroke="midnightblue" d="M133.88,-61.98C114.58,-52.08 82.54,-35.64 60.07,-24.12"/>
<polygon fill="midnightblue" stroke="midnightblue" points="61.58,-20.96 51.09,-19.51 58.39,-27.19 61.58,-20.96"/>
</g>
<!-- Node38 -->
<g id="node8" class="node">
<title>Node38</title>
<g id="a_node8"><a xlink:title=" ">
<polygon fill="white" stroke="#bfbfbf" points="87,-0.5 87,-19.5 132,-19.5 132,-0.5 87,-0.5"/>
<text text-anchor="middle" x="109.5" y="-7.5" font-family="Helvetica,sans-Serif" font-size="10.00">utility</text>
</a>
</g>
</g>
<!-- Node2&#45;&gt;Node38 -->
<g id="edge7" class="edge">
<title>Node2&#45;&gt;Node38</title>
<path fill="none" stroke="midnightblue" d="M144.63,-61.98C138.54,-53.14 128.86,-39.09 121.2,-27.98"/>
<polygon fill="midnightblue" stroke="midnightblue" points="123.92,-25.76 115.36,-19.51 118.16,-29.73 123.92,-25.76"/>
</g>
<!-- Node39&#45;&gt;Node2 -->
<g id="edge13" class="edge">
<title>Node39&#45;&gt;Node2</title>
<path fill="none" stroke="midnightblue" d="M480.97,-123.95C409.39,-116.38 303.17,-103.71 211.5,-87 205.67,-85.94 199.56,-84.67 193.55,-83.33"/>
<polygon fill="midnightblue" stroke="midnightblue" points="194.14,-79.88 183.61,-81.05 192.57,-86.7 194.14,-79.88"/>
</g>
<!-- Node40 -->
<g id="node10" class="node">
<title>Node40</title>
<g id="a_node10"><a xlink:href="algorithm_8h.html" target="_top" xlink:title=" ">
<polygon fill="white" stroke="red" points="943.5,-62 943.5,-81 1067.5,-81 1067.5,-62 943.5,-62"/>
<text text-anchor="middle" x="1005.5" y="-69" font-family="Helvetica,sans-Serif" font-size="10.00">emlabcpp/algorithm.h</text>
</a>
</g>
</g>
<!-- Node39&#45;&gt;Node40 -->
<g id="edge9" class="edge">
<title>Node39&#45;&gt;Node40</title>
<path fill="none" stroke="midnightblue" d="M646.29,-123.89C721.65,-116.05 835.88,-103.03 934.5,-87 941.67,-85.83 949.22,-84.46 956.61,-83.02"/>
<polygon fill="midnightblue" stroke="midnightblue" points="957.42,-86.43 966.54,-81.05 956.05,-79.57 957.42,-86.43"/>
</g>
<!-- Node47 -->
<g id="node11" class="node">
<title>Node47</title>
<g id="a_node11"><a xlink:href="assert_8h.html" target="_top" xlink:title=" ">
<polygon fill="white" stroke="red" points="384,-62 384,-81 491,-81 491,-62 384,-62"/>
<text text-anchor="middle" x="437.5" y="-69" font-family="Helvetica,sans-Serif" font-size="10.00">emlabcpp/assert.h</text>
</a>
</g>
</g>
<!-- Node39&#45;&gt;Node47 -->
<g id="edge12" class="edge">
<title>Node39&#45;&gt;Node47</title>
<path fill="none" stroke="midnightblue" d="M545.45,-123.48C524.3,-113.49 489.06,-96.85 464.62,-85.31"/>
<polygon fill="midnightblue" stroke="midnightblue" points="466.06,-82.11 455.52,-81.01 463.07,-88.44 466.06,-82.11"/>
</g>
<!-- Node21 -->
<g id="node12" class="node">
<title>Node21</title>
<g id="a_node12"><a xlink:href="numeric_8h.html" target="_top" xlink:title=" ">
<polygon fill="white" stroke="red" points="509,-56.5 509,-86.5 618,-86.5 618,-56.5 509,-56.5"/>
<text text-anchor="start" x="517" y="-74.5" font-family="Helvetica,sans-Serif" font-size="10.00">emlabcpp/iterators</text>
<text text-anchor="middle" x="563.5" y="-63.5" font-family="Helvetica,sans-Serif" font-size="10.00">/numeric.h</text>
</a>
</g>
</g>
<!-- Node39&#45;&gt;Node21 -->
<g id="edge14" class="edge">
<title>Node39&#45;&gt;Node21</title>
<path fill="none" stroke="midnightblue" d="M563.5,-123.48C563.5,-116.47 563.5,-106.19 563.5,-96.7"/>
<polygon fill="midnightblue" stroke="midnightblue" points="567,-96.52 563.5,-86.52 560,-96.52 567,-96.52"/>
</g>
<!-- Node18 -->
<g id="node13" class="node">
<title>Node18</title>
<g id="a_node13"><a xlink:href="match_8h.html" target="_top" xlink:title=" ">
<polygon fill="white" stroke="red" points="636,-62 636,-81 743,-81 743,-62 636,-62"/>
<text text-anchor="middle" x="689.5" y="-69" font-family="Helvetica,sans-Serif" font-size="10.00">emlabcpp/match.h</text>
</a>
</g>
</g>
<!-- Node39&#45;&gt;Node18 -->
<g id="edge15" class="edge">
<title>Node39&#45;&gt;Node18</title>
<path fill="none" stroke="midnightblue" d="M581.55,-123.48C602.7,-113.49 637.94,-96.85 662.38,-85.31"/>
<polygon fill="midnightblue" stroke="midnightblue" points="663.93,-88.44 671.48,-81.01 660.94,-82.11 663.93,-88.44"/>
</g>
<!-- Node49 -->
<g id="node14" class="node">
<title>Node49</title>
<g id="a_node14"><a xlink:href="serializer_8h.html" target="_top" xlink:title=" ">
<polygon fill="white" stroke="red" points="761.5,-62 761.5,-81 925.5,-81 925.5,-62 761.5,-62"/>
<text text-anchor="middle" x="843.5" y="-69" font-family="Helvetica,sans-Serif" font-size="10.00">emlabcpp/protocol/serializer.h</text>
</a>
</g>
</g>
<!-- Node39&#45;&gt;Node49 -->
<g id="edge16" class="edge">
<title>Node39&#45;&gt;Node49</title>
<path fill="none" stroke="midnightblue" d="M603.62,-123.48C653.62,-112.85 739.1,-94.68 793.37,-83.15"/>
<polygon fill="midnightblue" stroke="midnightblue" points="794.4,-86.51 803.46,-81.01 792.95,-79.66 794.4,-86.51"/>
</g>
<!-- Node56 -->
<g id="node15" class="node">
<title>Node56</title>
<g id="a_node15"><a xlink:href="traits_8h.html" target="_top" xlink:title=" ">
<polygon fill="white" stroke="red" points="221,-62 221,-81 366,-81 366,-62 221,-62"/>
<text text-anchor="middle" x="293.5" y="-69" font-family="Helvetica,sans-Serif" font-size="10.00">emlabcpp/protocol/traits.h</text>
</a>
</g>
</g>
<!-- Node39&#45;&gt;Node56 -->
<g id="edge17" class="edge">
<title>Node39&#45;&gt;Node56</title>
<path fill="none" stroke="midnightblue" d="M524.82,-123.48C476.7,-112.87 394.51,-94.76 342.17,-83.22"/>
<polygon fill="midnightblue" stroke="midnightblue" points="342.63,-79.74 332.11,-81.01 341.13,-86.58 342.63,-79.74"/>
</g>
<!-- Node40&#45;&gt;Node24 -->
<g id="edge10" class="edge">
<title>Node40&#45;&gt;Node24</title>
<path fill="none" stroke="midnightblue" d="M982.72,-61.98C955.45,-51.77 909.59,-34.61 878.7,-23.05"/>
<polygon fill="midnightblue" stroke="midnightblue" points="879.83,-19.74 869.24,-19.51 877.38,-26.29 879.83,-19.74"/>
</g>
<!-- Node40&#45;&gt;Node9 -->
<g id="edge11" class="edge">
<title>Node40&#45;&gt;Node9</title>
<path fill="none" stroke="midnightblue" d="M965.39,-61.94C955.33,-59.89 944.53,-57.78 934.5,-56 837.5,-38.76 721.94,-22.46 668.02,-15.1"/>
<polygon fill="midnightblue" stroke="midnightblue" points="668.46,-11.63 658.08,-13.75 667.52,-18.56 668.46,-11.63"/>
</g>
<!-- Node56&#45;&gt;Node3 -->
<g id="edge18" class="edge">
<title>Node56&#45;&gt;Node3</title>
<path fill="none" stroke="midnightblue" d="M282.9,-61.98C271.25,-52.61 252.31,-37.38 238.17,-26.01"/>
<polygon fill="midnightblue" stroke="midnightblue" points="240.07,-23.05 230.08,-19.51 235.68,-28.5 240.07,-23.05"/>
</g>
<!-- Node56&#45;&gt;Node24 -->
<g id="edge19" class="edge">
<title>Node56&#45;&gt;Node24</title>
<path fill="none" stroke="midnightblue" d="M338.08,-61.95C350.19,-59.81 363.32,-57.66 375.5,-56 521.47,-36.15 694.07,-22.03 784.35,-15.35"/>
<polygon fill="midnightblue" stroke="midnightblue" points="784.7,-18.83 794.42,-14.61 784.19,-11.85 784.7,-18.83"/>
</g>
<!-- Node56&#45;&gt;Node31 -->
<g id="edge20" class="edge">
<title>Node56&#45;&gt;Node31</title>
<path fill="none" stroke="midnightblue" d="M299.52,-61.98C305.76,-53.14 315.67,-39.09 323.52,-27.98"/>
<polygon fill="midnightblue" stroke="midnightblue" points="326.59,-29.7 329.49,-19.51 320.87,-25.66 326.59,-29.7"/>
</g>
</g>
</svg>
