<?xml version="1.0" encoding="UTF-8" standalone="no"?>
<!DOCTYPE svg PUBLIC "-//W3C//DTD SVG 1.1//EN"
 "http://www.w3.org/Graphics/SVG/1.1/DTD/svg11.dtd">
<!-- Generated by graphviz version 2.43.0 (0)
 -->
<!-- Title: Graphical Class Hierarchy Pages: 1 -->
<svg width="232pt" height="50pt"
 viewBox="0.00 0.00 232.00 50.00" xmlns="http://www.w3.org/2000/svg" xmlns:xlink="http://www.w3.org/1999/xlink">
<g id="graph0" class="graph" transform="scale(1 1) rotate(0) translate(4 46)">
<title>Graphical Class Hierarchy</title>
<polygon fill="white" stroke="transparent" points="-4,4 -4,-46 228,-46 228,4 -4,4"/>
<!-- Node146 -->
<g id="node1" class="node">
<title>Node146</title>
<g id="a_node1"><a xlink:title=" ">
<polygon fill="white" stroke="#bfbfbf" points="0,-11.5 0,-30.5 70,-30.5 70,-11.5 0,-11.5"/>
<text text-anchor="middle" x="35" y="-18.5" font-family="Helvetica,sans-Serif" font-size="10.00">disjunction</text>
</a>
</g>
</g>
<!-- Node0 -->
<g id="node2" class="node">
<title>Node0</title>
<g id="a_node2"><a xlink:href="structemlabcpp_1_1tuple__has__type_3_01T_00_01std_1_1tuple_3_01Us_8_8_8_01_4_01_4.html" target="_top" xlink:title=" ">
<polygon fill="white" stroke="black" points="106,-0.5 106,-41.5 224,-41.5 224,-0.5 106,-0.5"/>
<text text-anchor="start" x="114" y="-29.5" font-family="Helvetica,sans-Serif" font-size="10.00">emlabcpp::tuple_has</text>
<text text-anchor="start" x="114" y="-18.5" font-family="Helvetica,sans-Serif" font-size="10.00">_type&lt; T, std::tuple</text>
<text text-anchor="middle" x="165" y="-7.5" font-family="Helvetica,sans-Serif" font-size="10.00">&lt; Us... &gt; &gt;</text>
</a>
</g>
</g>
<!-- Node146&#45;&gt;Node0 -->
<g id="edge1" class="edge">
<title>Node146&#45;&gt;Node0</title>
<path fill="none" stroke="midnightblue" d="M80.41,-21C88.63,-21 97.33,-21 105.88,-21"/>
<polygon fill="midnightblue" stroke="midnightblue" points="80.3,-17.5 70.3,-21 80.3,-24.5 80.3,-17.5"/>
</g>
</g>
</svg>
