<?xml version="1.0" encoding="UTF-8" standalone="no"?>
<!DOCTYPE svg PUBLIC "-//W3C//DTD SVG 1.1//EN"
 "http://www.w3.org/Graphics/SVG/1.1/DTD/svg11.dtd">
<!-- Generated by graphviz version 2.43.0 (0)
 -->
<!-- Title: Graphical Class Hierarchy Pages: 1 -->
<svg width="243pt" height="307pt"
 viewBox="0.00 0.00 243.00 306.50" xmlns="http://www.w3.org/2000/svg" xmlns:xlink="http://www.w3.org/1999/xlink">
<g id="graph0" class="graph" transform="scale(1 1) rotate(0) translate(4 302.5)">
<title>Graphical Class Hierarchy</title>
<polygon fill="white" stroke="transparent" points="-4,4 -4,-302.5 239,-302.5 239,4 -4,4"/>
<!-- Node5 -->
<g id="node1" class="node">
<title>Node5</title>
<g id="a_node1"><a xlink:title=" ">
<polygon fill="white" stroke="#bfbfbf" points="0,-140 0,-159 63,-159 63,-140 0,-140"/>
<text text-anchor="middle" x="31.5" y="-147" font-family="Helvetica,sans-Serif" font-size="10.00">true_type</text>
</a>
</g>
</g>
<!-- Node0 -->
<g id="node2" class="node">
<title>Node0</title>
<g id="a_node2"><a xlink:href="structemlabcpp_1_1are__same_3_4.html" target="_top" xlink:title=" ">
<polygon fill="white" stroke="black" points="99.5,-279 99.5,-298 234.5,-298 234.5,-279 99.5,-279"/>
<text text-anchor="middle" x="167" y="-286" font-family="Helvetica,sans-Serif" font-size="10.00">emlabcpp::are_same&lt;&gt;</text>
</a>
</g>
</g>
<!-- Node5&#45;&gt;Node0 -->
<g id="edge1" class="edge">
<title>Node5&#45;&gt;Node0</title>
<path fill="none" stroke="midnightblue" d="M38.07,-169C46.71,-195.68 65.87,-243.22 99,-269.5 103.93,-273.41 109.61,-276.51 115.55,-278.98"/>
<polygon fill="midnightblue" stroke="midnightblue" points="41.37,-167.81 35.1,-159.27 34.68,-169.86 41.37,-167.81"/>
</g>
<!-- Node7 -->
<g id="node3" class="node">
<title>Node7</title>
<g id="a_node3"><a xlink:href="structemlabcpp_1_1impl_1_1is__std__array_3_01std_1_1array_3_01T_00_01N_01_4_01_4.html" target="_top" xlink:title=" ">
<polygon fill="white" stroke="black" points="104.5,-219 104.5,-260 229.5,-260 229.5,-219 104.5,-219"/>
<text text-anchor="start" x="112.5" y="-248" font-family="Helvetica,sans-Serif" font-size="10.00">emlabcpp::impl::is</text>
<text text-anchor="start" x="112.5" y="-237" font-family="Helvetica,sans-Serif" font-size="10.00">_std_array&lt; std::array</text>
<text text-anchor="middle" x="167" y="-226" font-family="Helvetica,sans-Serif" font-size="10.00">&lt; T, N &gt; &gt;</text>
</a>
</g>
</g>
<!-- Node5&#45;&gt;Node7 -->
<g id="edge2" class="edge">
<title>Node5&#45;&gt;Node7</title>
<path fill="none" stroke="midnightblue" d="M48.31,-166.42C61.09,-179.39 80.01,-197.13 99,-209.5 104.13,-212.84 109.68,-215.98 115.33,-218.88"/>
<polygon fill="midnightblue" stroke="midnightblue" points="50.66,-163.81 41.21,-159.04 45.62,-168.67 50.66,-163.81"/>
</g>
<!-- Node8 -->
<g id="node4" class="node">
<title>Node8</title>
<g id="a_node4"><a xlink:href="structemlabcpp_1_1impl_1_1is__std__tuple_3_01std_1_1tuple_3_01T_8_8_8_01_4_01_4.html" target="_top" xlink:title=" ">
<polygon fill="white" stroke="black" points="105,-159 105,-200 229,-200 229,-159 105,-159"/>
<text text-anchor="start" x="113" y="-188" font-family="Helvetica,sans-Serif" font-size="10.00">emlabcpp::impl::is</text>
<text text-anchor="start" x="113" y="-177" font-family="Helvetica,sans-Serif" font-size="10.00">_std_tuple&lt; std::tuple</text>
<text text-anchor="middle" x="167" y="-166" font-family="Helvetica,sans-Serif" font-size="10.00">&lt; T... &gt; &gt;</text>
</a>
</g>
</g>
<!-- Node5&#45;&gt;Node8 -->
<g id="edge3" class="edge">
<title>Node5&#45;&gt;Node8</title>
<path fill="none" stroke="midnightblue" d="M72.89,-158.58C83.01,-160.85 94.1,-163.34 104.99,-165.79"/>
<polygon fill="midnightblue" stroke="midnightblue" points="73.65,-155.16 63.13,-156.38 72.12,-161.99 73.65,-155.16"/>
</g>
<!-- Node9 -->
<g id="node5" class="node">
<title>Node9</title>
<g id="a_node5"><a xlink:href="structemlabcpp_1_1impl_1_1is__std__vector_3_01std_1_1vector_3_01T_01_4_01_4.html" target="_top" xlink:title=" ">
<polygon fill="white" stroke="black" points="99,-99 99,-140 235,-140 235,-99 99,-99"/>
<text text-anchor="start" x="107" y="-128" font-family="Helvetica,sans-Serif" font-size="10.00">emlabcpp::impl::is</text>
<text text-anchor="start" x="107" y="-117" font-family="Helvetica,sans-Serif" font-size="10.00">_std_vector&lt; std::vector</text>
<text text-anchor="middle" x="167" y="-106" font-family="Helvetica,sans-Serif" font-size="10.00">&lt; T &gt; &gt;</text>
</a>
</g>
</g>
<!-- Node5&#45;&gt;Node9 -->
<g id="edge4" class="edge">
<title>Node5&#45;&gt;Node9</title>
<path fill="none" stroke="midnightblue" d="M73.08,-140.38C81.24,-138.55 90.01,-136.58 98.79,-134.6"/>
<polygon fill="midnightblue" stroke="midnightblue" points="72.12,-137.01 63.13,-142.62 73.65,-143.84 72.12,-137.01"/>
</g>
<!-- Node10 -->
<g id="node6" class="node">
<title>Node10</title>
<g id="a_node6"><a xlink:href="structemlabcpp_1_1impl_1_1is__view_3_01T_01_4.html" target="_top" xlink:title=" ">
<polygon fill="white" stroke="black" points="113.5,-49.5 113.5,-79.5 220.5,-79.5 220.5,-49.5 113.5,-49.5"/>
<text text-anchor="start" x="121.5" y="-67.5" font-family="Helvetica,sans-Serif" font-size="10.00">emlabcpp::impl::is</text>
<text text-anchor="middle" x="167" y="-56.5" font-family="Helvetica,sans-Serif" font-size="10.00">_view&lt; T &gt;</text>
</a>
</g>
</g>
<!-- Node5&#45;&gt;Node10 -->
<g id="edge5" class="edge">
<title>Node5&#45;&gt;Node10</title>
<path fill="none" stroke="midnightblue" d="M48.1,-132.24C60.76,-119.08 79.63,-101.26 99,-89.5 105.16,-85.76 111.96,-82.44 118.81,-79.53"/>
<polygon fill="midnightblue" stroke="midnightblue" points="45.35,-130.05 41.07,-139.74 50.46,-134.84 45.35,-130.05"/>
</g>
<!-- Node11 -->
<g id="node7" class="node">
<title>Node11</title>
<g id="a_node7"><a xlink:href="structemlabcpp_1_1impl_1_1is__view_3_01view_3_01Iter_01_4_01_4.html" target="_top" xlink:title=" ">
<polygon fill="white" stroke="black" points="102,-0.5 102,-30.5 232,-30.5 232,-0.5 102,-0.5"/>
<text text-anchor="start" x="110" y="-18.5" font-family="Helvetica,sans-Serif" font-size="10.00">emlabcpp::impl::is</text>
<text text-anchor="middle" x="167" y="-7.5" font-family="Helvetica,sans-Serif" font-size="10.00">_view&lt; view&lt; Iter &gt; &gt;</text>
</a>
</g>
</g>
<!-- Node5&#45;&gt;Node11 -->
<g id="edge6" class="edge">
<title>Node5&#45;&gt;Node11</title>
<path fill="none" stroke="midnightblue" d="M39.55,-130.4C49.37,-106.27 69.37,-64.96 99,-40.5 103.69,-36.63 109.04,-33.32 114.63,-30.51"/>
<polygon fill="midnightblue" stroke="midnightblue" points="36.23,-129.28 35.86,-139.87 42.75,-131.82 36.23,-129.28"/>
</g>
</g>
</svg>
