<?xml version="1.0" encoding="UTF-8" standalone="no"?>
<!DOCTYPE svg PUBLIC "-//W3C//DTD SVG 1.1//EN"
 "http://www.w3.org/Graphics/SVG/1.1/DTD/svg11.dtd">
<!-- Generated by graphviz version 2.43.0 (0)
 -->
<!-- Title: Graphical Class Hierarchy Pages: 1 -->
<svg width="332pt" height="78pt"
 viewBox="0.00 0.00 332.00 77.50" xmlns="http://www.w3.org/2000/svg" xmlns:xlink="http://www.w3.org/1999/xlink">
<g id="graph0" class="graph" transform="scale(1 1) rotate(0) translate(4 73.5)">
<title>Graphical Class Hierarchy</title>
<polygon fill="white" stroke="transparent" points="-4,4 -4,-73.5 328,-73.5 328,4 -4,4"/>
<!-- Node110 -->
<g id="node1" class="node">
<title>Node110</title>
<g id="a_node1"><a xlink:href="structemlabcpp_1_1pool__base.html" target="_top" xlink:title=" ">
<polygon fill="white" stroke="black" points="12,-39 12,-69 132,-69 132,-39 12,-39"/>
<text text-anchor="start" x="20" y="-57" font-family="Helvetica,sans-Serif" font-size="10.00">emlabcpp::pool_base</text>
<text text-anchor="middle" x="72" y="-46" font-family="Helvetica,sans-Serif" font-size="10.00">&lt; 48, 32 &gt;</text>
</a>
</g>
</g>
<!-- Node1 -->
<g id="node2" class="node">
<title>Node1</title>
<g id="a_node2"><a xlink:href="classemlabcpp_1_1testing__default__reactor.html" target="_top" xlink:title=" ">
<polygon fill="white" stroke="black" points="180,-17 180,-47 324,-47 324,-17 180,-17"/>
<text text-anchor="start" x="188" y="-35" font-family="Helvetica,sans-Serif" font-size="10.00">emlabcpp::testing_default</text>
<text text-anchor="middle" x="252" y="-24" font-family="Helvetica,sans-Serif" font-size="10.00">_reactor</text>
</a>
</g>
</g>
<!-- Node110&#45;&gt;Node1 -->
<g id="edge1" class="edge">
<title>Node110&#45;&gt;Node1</title>
<path fill="none" stroke="#8b1a1a" d="M142.46,-45.42C154.76,-43.89 167.59,-42.31 179.94,-40.78"/>
<polygon fill="#8b1a1a" stroke="#8b1a1a" points="141.77,-41.97 132.27,-46.67 142.63,-48.92 141.77,-41.97"/>
</g>
<!-- Node0 -->
<g id="node3" class="node">
<title>Node0</title>
<g id="a_node3"><a xlink:href="classemlabcpp_1_1testing__reactor.html" target="_top" xlink:title=" ">
<polygon fill="white" stroke="black" points="0,-0.5 0,-19.5 144,-19.5 144,-0.5 0,-0.5"/>
<text text-anchor="middle" x="72" y="-7.5" font-family="Helvetica,sans-Serif" font-size="10.00">emlabcpp::testing_reactor</text>
</a>
</g>
</g>
<!-- Node0&#45;&gt;Node1 -->
<g id="edge2" class="edge">
<title>Node0&#45;&gt;Node1</title>
<path fill="none" stroke="midnightblue" d="M154.17,-20.03C162.79,-21.1 171.51,-22.17 180,-23.22"/>
<polygon fill="midnightblue" stroke="midnightblue" points="154.47,-16.54 144.12,-18.79 153.61,-23.49 154.47,-16.54"/>
</g>
</g>
</svg>
