<?xml version="1.0" encoding="UTF-8" standalone="no"?>
<!DOCTYPE svg PUBLIC "-//W3C//DTD SVG 1.1//EN"
 "http://www.w3.org/Graphics/SVG/1.1/DTD/svg11.dtd">
<!-- Generated by graphviz version 2.43.0 (0)
 -->
<!-- Title: include/emlabcpp/experimental/testing/interface.h Pages: 1 -->
<svg width="801pt" height="441pt"
 viewBox="0.00 0.00 801.00 441.00" xmlns="http://www.w3.org/2000/svg" xmlns:xlink="http://www.w3.org/1999/xlink">
<g id="graph0" class="graph" transform="scale(1 1) rotate(0) translate(4 437)">
<title>include/emlabcpp/experimental/testing/interface.h</title>
<polygon fill="white" stroke="transparent" points="-4,4 -4,-437 797,-437 797,4 -4,4"/>
<!-- Node1 -->
<g id="node1" class="node">
<title>Node1</title>
<g id="a_node1"><a xlink:title=" ">
<polygon fill="#bfbfbf" stroke="black" points="421.5,-402.5 421.5,-432.5 592.5,-432.5 592.5,-402.5 421.5,-402.5"/>
<text text-anchor="start" x="429.5" y="-420.5" font-family="Helvetica,sans-Serif" font-size="10.00">include/emlabcpp/experimental</text>
<text text-anchor="middle" x="507" y="-409.5" font-family="Helvetica,sans-Serif" font-size="10.00">/testing/interface.h</text>
</a>
</g>
</g>
<!-- Node2 -->
<g id="node2" class="node">
<title>Node2</title>
<g id="a_node2"><a xlink:href="binding__linked__list_8h.html" target="_top" xlink:title=" ">
<polygon fill="white" stroke="black" points="12.5,-56.5 12.5,-86.5 145.5,-86.5 145.5,-56.5 12.5,-56.5"/>
<text text-anchor="start" x="20.5" y="-74.5" font-family="Helvetica,sans-Serif" font-size="10.00">emlabcpp/experimental</text>
<text text-anchor="middle" x="79" y="-63.5" font-family="Helvetica,sans-Serif" font-size="10.00">/binding_linked_list.h</text>
</a>
</g>
</g>
<!-- Node1&#45;&gt;Node2 -->
<g id="edge1" class="edge">
<title>Node1&#45;&gt;Node2</title>
<path fill="none" stroke="midnightblue" d="M421.28,-411.79C276.71,-401.48 0,-370.51 0,-284.5 0,-284.5 0,-284.5 0,-210 0,-164.04 33.59,-119.55 56.97,-94.16"/>
<polygon fill="midnightblue" stroke="midnightblue" points="59.79,-96.27 64.14,-86.61 54.72,-91.45 59.79,-96.27"/>
</g>
<!-- Node4 -->
<g id="node4" class="node">
<title>Node4</title>
<g id="a_node4"><a xlink:href="coroutine_8h.html" target="_top" xlink:title=" ">
<polygon fill="white" stroke="black" points="289.5,-268.5 289.5,-298.5 422.5,-298.5 422.5,-268.5 289.5,-268.5"/>
<text text-anchor="start" x="297.5" y="-286.5" font-family="Helvetica,sans-Serif" font-size="10.00">emlabcpp/experimental</text>
<text text-anchor="middle" x="356" y="-275.5" font-family="Helvetica,sans-Serif" font-size="10.00">/testing/coroutine.h</text>
</a>
</g>
</g>
<!-- Node1&#45;&gt;Node4 -->
<g id="edge3" class="edge">
<title>Node1&#45;&gt;Node4</title>
<path fill="none" stroke="midnightblue" d="M482.67,-402.42C467.21,-392.97 447.14,-379.78 431,-366 409.64,-347.76 388.23,-323.8 373.79,-306.58"/>
<polygon fill="midnightblue" stroke="midnightblue" points="376.36,-304.2 367.29,-298.73 370.97,-308.66 376.36,-304.2"/>
</g>
<!-- Node88 -->
<g id="node12" class="node">
<title>Node88</title>
<g id="a_node12"><a xlink:href="record_8h.html" target="_top" xlink:title=" ">
<polygon fill="white" stroke="black" points="440.5,-335.5 440.5,-365.5 573.5,-365.5 573.5,-335.5 440.5,-335.5"/>
<text text-anchor="start" x="448.5" y="-353.5" font-family="Helvetica,sans-Serif" font-size="10.00">emlabcpp/experimental</text>
<text text-anchor="middle" x="507" y="-342.5" font-family="Helvetica,sans-Serif" font-size="10.00">/testing/record.h</text>
</a>
</g>
</g>
<!-- Node1&#45;&gt;Node88 -->
<g id="edge14" class="edge">
<title>Node1&#45;&gt;Node88</title>
<path fill="none" stroke="midnightblue" d="M507,-402.4C507,-394.64 507,-384.81 507,-375.86"/>
<polygon fill="midnightblue" stroke="midnightblue" points="510.5,-375.58 507,-365.58 503.5,-375.58 510.5,-375.58"/>
</g>
<!-- Node75 -->
<g id="node15" class="node">
<title>Node75</title>
<g id="a_node15"><a xlink:href="packet__handler_8h.html" target="_top" xlink:title=" ">
<polygon fill="white" stroke="red" points="591.5,-335.5 591.5,-365.5 734.5,-365.5 734.5,-335.5 591.5,-335.5"/>
<text text-anchor="start" x="599.5" y="-353.5" font-family="Helvetica,sans-Serif" font-size="10.00">emlabcpp/protocol/packet</text>
<text text-anchor="middle" x="663" y="-342.5" font-family="Helvetica,sans-Serif" font-size="10.00">_handler.h</text>
</a>
</g>
</g>
<!-- Node1&#45;&gt;Node75 -->
<g id="edge21" class="edge">
<title>Node1&#45;&gt;Node75</title>
<path fill="none" stroke="midnightblue" d="M540.85,-402.4C564.05,-392.73 595.03,-379.82 619.98,-369.43"/>
<polygon fill="midnightblue" stroke="midnightblue" points="621.33,-372.65 629.22,-365.58 618.64,-366.19 621.33,-372.65"/>
</g>
<!-- Node39 -->
<g id="node16" class="node">
<title>Node39</title>
<g id="a_node16"><a xlink:title=" ">
<polygon fill="white" stroke="#bfbfbf" points="753,-341 753,-360 793,-360 793,-341 753,-341"/>
<text text-anchor="middle" x="773" y="-348" font-family="Helvetica,sans-Serif" font-size="10.00">span</text>
</a>
</g>
</g>
<!-- Node1&#45;&gt;Node39 -->
<g id="edge22" class="edge">
<title>Node1&#45;&gt;Node39</title>
<path fill="none" stroke="midnightblue" d="M592.62,-403.67C638.31,-395.48 695.06,-383.13 744,-366 745.43,-365.5 746.88,-364.95 748.32,-364.35"/>
<polygon fill="midnightblue" stroke="midnightblue" points="750.03,-367.42 757.66,-360.07 747.11,-361.06 750.03,-367.42"/>
</g>
<!-- Node3 -->
<g id="node3" class="node">
<title>Node3</title>
<g id="a_node3"><a xlink:title=" ">
<polygon fill="white" stroke="#bfbfbf" points="230.5,-0.5 230.5,-19.5 275.5,-19.5 275.5,-0.5 230.5,-0.5"/>
<text text-anchor="middle" x="253" y="-7.5" font-family="Helvetica,sans-Serif" font-size="10.00">utility</text>
</a>
</g>
</g>
<!-- Node2&#45;&gt;Node3 -->
<g id="edge2" class="edge">
<title>Node2&#45;&gt;Node3</title>
<path fill="none" stroke="midnightblue" d="M120.24,-56.4C150.85,-45.93 192.02,-31.85 220.36,-22.16"/>
<polygon fill="midnightblue" stroke="midnightblue" points="221.85,-25.35 230.18,-18.8 219.58,-18.73 221.85,-25.35"/>
</g>
<!-- Node5 -->
<g id="node5" class="node">
<title>Node5</title>
<g id="a_node5"><a xlink:href="owning__coroutine__handle_8h.html" target="_top" xlink:title=" ">
<polygon fill="white" stroke="black" points="186.5,-190.5 186.5,-231.5 319.5,-231.5 319.5,-190.5 186.5,-190.5"/>
<text text-anchor="start" x="194.5" y="-219.5" font-family="Helvetica,sans-Serif" font-size="10.00">emlabcpp/experimental</text>
<text text-anchor="start" x="194.5" y="-208.5" font-family="Helvetica,sans-Serif" font-size="10.00">/coro/owning_coroutine</text>
<text text-anchor="middle" x="253" y="-197.5" font-family="Helvetica,sans-Serif" font-size="10.00">_handle.h</text>
</a>
</g>
</g>
<!-- Node4&#45;&gt;Node5 -->
<g id="edge4" class="edge">
<title>Node4&#45;&gt;Node5</title>
<path fill="none" stroke="midnightblue" d="M335.16,-268.23C322.28,-259.42 305.39,-247.86 290.27,-237.51"/>
<polygon fill="midnightblue" stroke="midnightblue" points="291.85,-234.35 281.62,-231.59 287.89,-240.12 291.85,-234.35"/>
</g>
<!-- Node6 -->
<g id="node6" class="node">
<title>Node6</title>
<g id="a_node6"><a xlink:title=" ">
<polygon fill="white" stroke="#bfbfbf" points="299,-129 299,-148 361,-148 361,-129 299,-129"/>
<text text-anchor="middle" x="330" y="-136" font-family="Helvetica,sans-Serif" font-size="10.00">coroutine</text>
</a>
</g>
</g>
<!-- Node4&#45;&gt;Node6 -->
<g id="edge13" class="edge">
<title>Node4&#45;&gt;Node6</title>
<path fill="none" stroke="midnightblue" d="M353.41,-268.27C348.69,-242.32 338.7,-187.35 333.42,-158.34"/>
<polygon fill="midnightblue" stroke="midnightblue" points="336.83,-157.5 331.6,-148.28 329.94,-158.75 336.83,-157.5"/>
</g>
<!-- Node7 -->
<g id="node7" class="node">
<title>Node7</title>
<g id="a_node7"><a xlink:href="pool__promise_8h.html" target="_top" xlink:title=" ">
<polygon fill="white" stroke="red" points="376.5,-196 376.5,-226 509.5,-226 509.5,-196 376.5,-196"/>
<text text-anchor="start" x="384.5" y="-214" font-family="Helvetica,sans-Serif" font-size="10.00">emlabcpp/experimental</text>
<text text-anchor="middle" x="443" y="-203" font-family="Helvetica,sans-Serif" font-size="10.00">/coro/pool_promise.h</text>
</a>
</g>
</g>
<!-- Node4&#45;&gt;Node7 -->
<g id="edge7" class="edge">
<title>Node4&#45;&gt;Node7</title>
<path fill="none" stroke="midnightblue" d="M373.61,-268.23C386.31,-257.94 403.64,-243.9 417.8,-232.42"/>
<polygon fill="midnightblue" stroke="midnightblue" points="420.15,-235.02 425.72,-226 415.74,-229.58 420.15,-235.02"/>
</g>
<!-- Node47 -->
<g id="node8" class="node">
<title>Node47</title>
<g id="a_node8"><a xlink:href="experimental_2testing_2convert_8h.html" target="_top" xlink:title=" ">
<polygon fill="white" stroke="black" points="527.5,-196 527.5,-226 660.5,-226 660.5,-196 527.5,-196"/>
<text text-anchor="start" x="535.5" y="-214" font-family="Helvetica,sans-Serif" font-size="10.00">emlabcpp/experimental</text>
<text text-anchor="middle" x="594" y="-203" font-family="Helvetica,sans-Serif" font-size="10.00">/testing/convert.h</text>
</a>
</g>
</g>
<!-- Node4&#45;&gt;Node47 -->
<g id="edge8" class="edge">
<title>Node4&#45;&gt;Node47</title>
<path fill="none" stroke="midnightblue" d="M403.31,-268.49C441.63,-257.14 495.77,-241.1 536.57,-229.01"/>
<polygon fill="midnightblue" stroke="midnightblue" points="537.78,-232.3 546.38,-226.11 535.79,-225.59 537.78,-232.3"/>
</g>
<!-- Node57 -->
<g id="node11" class="node">
<title>Node57</title>
<g id="a_node11"><a xlink:href="reactor__interface__adapter_8h.html" target="_top" xlink:title=" ">
<polygon fill="white" stroke="red" points="28,-190.5 28,-231.5 168,-231.5 168,-190.5 28,-190.5"/>
<text text-anchor="start" x="36" y="-219.5" font-family="Helvetica,sans-Serif" font-size="10.00">emlabcpp/experimental</text>
<text text-anchor="start" x="36" y="-208.5" font-family="Helvetica,sans-Serif" font-size="10.00">/testing/reactor_interface</text>
<text text-anchor="middle" x="98" y="-197.5" font-family="Helvetica,sans-Serif" font-size="10.00">_adapter.h</text>
</a>
</g>
</g>
<!-- Node4&#45;&gt;Node57 -->
<g id="edge12" class="edge">
<title>Node4&#45;&gt;Node57</title>
<path fill="none" stroke="midnightblue" d="M304.72,-268.49C268.53,-258.6 219.33,-245.15 178.01,-233.86"/>
<polygon fill="midnightblue" stroke="midnightblue" points="178.8,-230.45 168.23,-231.19 176.96,-237.2 178.8,-230.45"/>
</g>
<!-- Node5&#45;&gt;Node3 -->
<g id="edge6" class="edge">
<title>Node5&#45;&gt;Node3</title>
<path fill="none" stroke="midnightblue" d="M253,-190.19C253,-151.7 253,-67.3 253,-29.71"/>
<polygon fill="midnightblue" stroke="midnightblue" points="256.5,-29.65 253,-19.65 249.5,-29.65 256.5,-29.65"/>
</g>
<!-- Node5&#45;&gt;Node6 -->
<g id="edge5" class="edge">
<title>Node5&#45;&gt;Node6</title>
<path fill="none" stroke="midnightblue" d="M274.45,-190.36C286.62,-179.21 301.65,-165.46 313,-155.06"/>
<polygon fill="midnightblue" stroke="midnightblue" points="315.51,-157.51 320.53,-148.17 310.79,-152.34 315.51,-157.51"/>
</g>
<!-- Node48 -->
<g id="node9" class="node">
<title>Node48</title>
<g id="a_node9"><a xlink:href="experimental_2testing_2base_8h.html" target="_top" xlink:title=" ">
<polygon fill="white" stroke="red" points="603.5,-123.5 603.5,-153.5 736.5,-153.5 736.5,-123.5 603.5,-123.5"/>
<text text-anchor="start" x="611.5" y="-141.5" font-family="Helvetica,sans-Serif" font-size="10.00">emlabcpp/experimental</text>
<text text-anchor="middle" x="670" y="-130.5" font-family="Helvetica,sans-Serif" font-size="10.00">/testing/base.h</text>
</a>
</g>
</g>
<!-- Node47&#45;&gt;Node48 -->
<g id="edge9" class="edge">
<title>Node47&#45;&gt;Node48</title>
<path fill="none" stroke="midnightblue" d="M609.38,-195.73C620.27,-185.63 635.05,-171.92 647.29,-160.57"/>
<polygon fill="midnightblue" stroke="midnightblue" points="649.95,-162.87 654.9,-153.5 645.19,-157.74 649.95,-162.87"/>
</g>
<!-- Node31 -->
<g id="node10" class="node">
<title>Node31</title>
<g id="a_node10"><a xlink:href="static__vector_8h.html" target="_top" xlink:title=" ">
<polygon fill="white" stroke="red" points="600.5,-62 600.5,-81 739.5,-81 739.5,-62 600.5,-62"/>
<text text-anchor="middle" x="670" y="-69" font-family="Helvetica,sans-Serif" font-size="10.00">emlabcpp/static_vector.h</text>
</a>
</g>
</g>
<!-- Node48&#45;&gt;Node31 -->
<g id="edge10" class="edge">
<title>Node48&#45;&gt;Node31</title>
<path fill="none" stroke="midnightblue" d="M670,-123.4C670,-114.06 670,-101.71 670,-91.52"/>
<polygon fill="midnightblue" stroke="midnightblue" points="673.5,-91.19 670,-81.19 666.5,-91.19 673.5,-91.19"/>
</g>
<!-- Node31&#45;&gt;Node3 -->
<g id="edge11" class="edge">
<title>Node31&#45;&gt;Node3</title>
<path fill="none" stroke="midnightblue" d="M610.25,-61.98C520.93,-49.23 355.6,-25.64 285.63,-15.66"/>
<polygon fill="midnightblue" stroke="midnightblue" points="286.03,-12.18 275.63,-14.23 285.04,-19.11 286.03,-12.18"/>
</g>
<!-- Node88&#45;&gt;Node4 -->
<g id="edge16" class="edge">
<title>Node88&#45;&gt;Node4</title>
<path fill="none" stroke="midnightblue" d="M474.24,-335.4C451.88,-325.77 422.06,-312.94 397.96,-302.56"/>
<polygon fill="midnightblue" stroke="midnightblue" points="399.27,-299.32 388.7,-298.58 396.5,-305.75 399.27,-299.32"/>
</g>
<!-- Node88&#45;&gt;Node48 -->
<g id="edge15" class="edge">
<title>Node88&#45;&gt;Node48</title>
<path fill="none" stroke="midnightblue" d="M570.62,-335.49C627.85,-322.58 703.62,-304.61 708,-299 739.68,-258.37 707.57,-195.47 686.04,-162.1"/>
<polygon fill="midnightblue" stroke="midnightblue" points="688.77,-159.88 680.31,-153.51 682.95,-163.77 688.77,-159.88"/>
</g>
<!-- Node88&#45;&gt;Node31 -->
<g id="edge20" class="edge">
<title>Node88&#45;&gt;Node31</title>
<path fill="none" stroke="midnightblue" d="M573.52,-336.23C636.65,-323.34 722.69,-304.88 728,-299 780.72,-240.66 783.15,-192.3 746,-123 736.8,-105.84 718.92,-93.52 702.82,-85.35"/>
<polygon fill="midnightblue" stroke="midnightblue" points="704.15,-82.11 693.62,-81.01 701.17,-88.44 704.15,-82.11"/>
</g>
<!-- Node59 -->
<g id="node13" class="node">
<title>Node59</title>
<g id="a_node13"><a xlink:href="experimental_2testing_2protocol_8h.html" target="_top" xlink:title=" ">
<polygon fill="white" stroke="red" points="440.5,-268.5 440.5,-298.5 573.5,-298.5 573.5,-268.5 440.5,-268.5"/>
<text text-anchor="start" x="448.5" y="-286.5" font-family="Helvetica,sans-Serif" font-size="10.00">emlabcpp/experimental</text>
<text text-anchor="middle" x="507" y="-275.5" font-family="Helvetica,sans-Serif" font-size="10.00">/testing/protocol.h</text>
</a>
</g>
</g>
<!-- Node88&#45;&gt;Node59 -->
<g id="edge17" class="edge">
<title>Node88&#45;&gt;Node59</title>
<path fill="none" stroke="midnightblue" d="M507,-335.4C507,-327.64 507,-317.81 507,-308.86"/>
<polygon fill="midnightblue" stroke="midnightblue" points="510.5,-308.58 507,-298.58 503.5,-308.58 510.5,-308.58"/>
</g>
<!-- Node35 -->
<g id="node14" class="node">
<title>Node35</title>
<g id="a_node14"><a xlink:href="match_8h.html" target="_top" xlink:title=" ">
<polygon fill="white" stroke="red" points="591.5,-274 591.5,-293 698.5,-293 698.5,-274 591.5,-274"/>
<text text-anchor="middle" x="645" y="-281" font-family="Helvetica,sans-Serif" font-size="10.00">emlabcpp/match.h</text>
</a>
</g>
</g>
<!-- Node88&#45;&gt;Node35 -->
<g id="edge19" class="edge">
<title>Node88&#45;&gt;Node35</title>
<path fill="none" stroke="midnightblue" d="M536.94,-335.4C560.94,-324.09 594.34,-308.36 617.63,-297.39"/>
<polygon fill="midnightblue" stroke="midnightblue" points="619.38,-300.43 626.94,-293.01 616.4,-294.1 619.38,-300.43"/>
</g>
<!-- Node59&#45;&gt;Node48 -->
<g id="edge18" class="edge">
<title>Node59&#45;&gt;Node48</title>
<path fill="none" stroke="midnightblue" d="M563.86,-268.41C608.21,-256.85 663.39,-240.97 670,-232 684.44,-212.41 681.78,-183.59 677.21,-163.33"/>
<polygon fill="midnightblue" stroke="midnightblue" points="680.59,-162.44 674.72,-153.62 673.81,-164.18 680.59,-162.44"/>
</g>
</g>
</svg>
