<?xml version="1.0" encoding="UTF-8" standalone="no"?>
<!DOCTYPE svg PUBLIC "-//W3C//DTD SVG 1.1//EN"
 "http://www.w3.org/Graphics/SVG/1.1/DTD/svg11.dtd">
<!-- Generated by graphviz version 2.43.0 (0)
 -->
<!-- Title: include/emlabcpp/experimental/testing/interface.h Pages: 1 -->
<svg width="1265pt" height="519pt"
 viewBox="0.00 0.00 1265.13 519.00" xmlns="http://www.w3.org/2000/svg" xmlns:xlink="http://www.w3.org/1999/xlink">
<g id="graph0" class="graph" transform="scale(1 1) rotate(0) translate(4 515)">
<title>include/emlabcpp/experimental/testing/interface.h</title>
<polygon fill="white" stroke="transparent" points="-4,4 -4,-515 1261.13,-515 1261.13,4 -4,4"/>
<!-- Node1 -->
<g id="node1" class="node">
<title>Node1</title>
<g id="a_node1"><a xlink:title=" ">
<polygon fill="#bfbfbf" stroke="black" points="857.63,-480.5 857.63,-510.5 1028.63,-510.5 1028.63,-480.5 857.63,-480.5"/>
<text text-anchor="start" x="865.63" y="-498.5" font-family="Helvetica,sans-Serif" font-size="10.00">include/emlabcpp/experimental</text>
<text text-anchor="middle" x="943.13" y="-487.5" font-family="Helvetica,sans-Serif" font-size="10.00">/testing/interface.h</text>
</a>
</g>
</g>
<!-- Node2 -->
<g id="node2" class="node">
<title>Node2</title>
<g id="a_node2"><a xlink:href="linked__list_8h.html" target="_top" xlink:title=" ">
<polygon fill="white" stroke="black" points="530.63,-346.5 530.63,-376.5 663.63,-376.5 663.63,-346.5 530.63,-346.5"/>
<text text-anchor="start" x="538.63" y="-364.5" font-family="Helvetica,sans-Serif" font-size="10.00">emlabcpp/experimental</text>
<text text-anchor="middle" x="597.13" y="-353.5" font-family="Helvetica,sans-Serif" font-size="10.00">/linked_list.h</text>
</a>
</g>
</g>
<!-- Node1&#45;&gt;Node2 -->
<g id="edge1" class="edge">
<title>Node1&#45;&gt;Node2</title>
<path fill="none" stroke="midnightblue" d="M906.43,-480.5C842.98,-456.29 712.91,-406.67 643.38,-380.14"/>
<polygon fill="midnightblue" stroke="midnightblue" points="644.57,-376.85 633.98,-376.56 642.07,-383.39 644.57,-376.85"/>
</g>
<!-- Node4 -->
<g id="node4" class="node">
<title>Node4</title>
<g id="a_node4"><a xlink:href="experimental_2testing_2base_8h.html" target="_top" xlink:title=" ">
<polygon fill="white" stroke="black" points="573.63,-123.5 573.63,-153.5 706.63,-153.5 706.63,-123.5 573.63,-123.5"/>
<text text-anchor="start" x="581.63" y="-141.5" font-family="Helvetica,sans-Serif" font-size="10.00">emlabcpp/experimental</text>
<text text-anchor="middle" x="640.13" y="-130.5" font-family="Helvetica,sans-Serif" font-size="10.00">/testing/base.h</text>
</a>
</g>
</g>
<!-- Node1&#45;&gt;Node4 -->
<g id="edge3" class="edge">
<title>Node1&#45;&gt;Node4</title>
<path fill="none" stroke="midnightblue" d="M960.13,-480.18C984.68,-457.8 1027.13,-411.94 1027.13,-362.5 1027.13,-362.5 1027.13,-362.5 1027.13,-288 1027.13,-222.16 829.42,-174.57 716.63,-152.78"/>
<polygon fill="midnightblue" stroke="midnightblue" points="717.14,-149.32 706.66,-150.88 715.83,-156.19 717.14,-149.32"/>
</g>
<!-- Node63 -->
<g id="node14" class="node">
<title>Node63</title>
<g id="a_node14"><a xlink:href="coroutine_8h.html" target="_top" xlink:title=" ">
<polygon fill="white" stroke="black" points="309.63,-346.5 309.63,-376.5 442.63,-376.5 442.63,-346.5 309.63,-346.5"/>
<text text-anchor="start" x="317.63" y="-364.5" font-family="Helvetica,sans-Serif" font-size="10.00">emlabcpp/experimental</text>
<text text-anchor="middle" x="376.13" y="-353.5" font-family="Helvetica,sans-Serif" font-size="10.00">/testing/coroutine.h</text>
</a>
</g>
</g>
<!-- Node1&#45;&gt;Node63 -->
<g id="edge15" class="edge">
<title>Node1&#45;&gt;Node63</title>
<path fill="none" stroke="midnightblue" d="M882.99,-480.5C777.31,-455.9 558.85,-405.04 446.4,-378.86"/>
<polygon fill="midnightblue" stroke="midnightblue" points="447.05,-375.42 436.51,-376.56 445.46,-382.23 447.05,-375.42"/>
</g>
<!-- Node96 -->
<g id="node22" class="node">
<title>Node96</title>
<g id="a_node22"><a xlink:href="record_8h.html" target="_top" xlink:title=" ">
<polygon fill="white" stroke="black" points="819.63,-413.5 819.63,-443.5 952.63,-443.5 952.63,-413.5 819.63,-413.5"/>
<text text-anchor="start" x="827.63" y="-431.5" font-family="Helvetica,sans-Serif" font-size="10.00">emlabcpp/experimental</text>
<text text-anchor="middle" x="886.13" y="-420.5" font-family="Helvetica,sans-Serif" font-size="10.00">/testing/record.h</text>
</a>
</g>
</g>
<!-- Node1&#45;&gt;Node96 -->
<g id="edge35" class="edge">
<title>Node1&#45;&gt;Node96</title>
<path fill="none" stroke="midnightblue" d="M930.77,-480.4C923.3,-471.88 913.62,-460.85 905.19,-451.23"/>
<polygon fill="midnightblue" stroke="midnightblue" points="907.7,-448.79 898.48,-443.58 902.44,-453.4 907.7,-448.79"/>
</g>
<!-- Node72 -->
<g id="node23" class="node">
<title>Node72</title>
<g id="a_node23"><a xlink:href="packet__handler_8h.html" target="_top" xlink:title=" ">
<polygon fill="white" stroke="red" points="1055.63,-413.5 1055.63,-443.5 1198.63,-443.5 1198.63,-413.5 1055.63,-413.5"/>
<text text-anchor="start" x="1063.63" y="-431.5" font-family="Helvetica,sans-Serif" font-size="10.00">emlabcpp/protocol/packet</text>
<text text-anchor="middle" x="1127.13" y="-420.5" font-family="Helvetica,sans-Serif" font-size="10.00">_handler.h</text>
</a>
</g>
</g>
<!-- Node1&#45;&gt;Node72 -->
<g id="edge41" class="edge">
<title>Node1&#45;&gt;Node72</title>
<path fill="none" stroke="midnightblue" d="M983.06,-480.4C1010.79,-470.6 1047.93,-457.48 1077.55,-447.02"/>
<polygon fill="midnightblue" stroke="midnightblue" points="1079.02,-450.21 1087.29,-443.58 1076.69,-443.61 1079.02,-450.21"/>
</g>
<!-- Node38 -->
<g id="node24" class="node">
<title>Node38</title>
<g id="a_node24"><a xlink:title=" ">
<polygon fill="white" stroke="#bfbfbf" points="1217.13,-419 1217.13,-438 1257.13,-438 1257.13,-419 1217.13,-419"/>
<text text-anchor="middle" x="1237.13" y="-426" font-family="Helvetica,sans-Serif" font-size="10.00">span</text>
</a>
</g>
</g>
<!-- Node1&#45;&gt;Node38 -->
<g id="edge42" class="edge">
<title>Node1&#45;&gt;Node38</title>
<path fill="none" stroke="midnightblue" d="M1028.8,-484.28C1081.46,-476.51 1149.79,-463.72 1208.13,-444 1209.57,-443.52 1211.02,-442.97 1212.47,-442.39"/>
<polygon fill="midnightblue" stroke="midnightblue" points="1214.17,-445.46 1221.82,-438.14 1211.27,-439.09 1214.17,-445.46"/>
</g>
<!-- Node3 -->
<g id="node3" class="node">
<title>Node3</title>
<g id="a_node3"><a xlink:title=" ">
<polygon fill="white" stroke="#bfbfbf" points="351.63,-129 351.63,-148 396.63,-148 396.63,-129 351.63,-129"/>
<text text-anchor="middle" x="374.13" y="-136" font-family="Helvetica,sans-Serif" font-size="10.00">utility</text>
</a>
</g>
</g>
<!-- Node2&#45;&gt;Node3 -->
<g id="edge2" class="edge">
<title>Node2&#45;&gt;Node3</title>
<path fill="none" stroke="midnightblue" d="M530.45,-352.28C478.11,-344.38 411.17,-330.58 393.13,-310 355.57,-267.13 363.55,-193.08 369.97,-158.42"/>
<polygon fill="midnightblue" stroke="midnightblue" points="373.47,-158.77 372.02,-148.28 366.61,-157.38 373.47,-158.77"/>
</g>
<!-- Node5 -->
<g id="node5" class="node">
<title>Node5</title>
<g id="a_node5"><a xlink:href="algorithm_8h.html" target="_top" xlink:title=" ">
<polygon fill="white" stroke="red" points="366.13,-62 366.13,-81 490.13,-81 490.13,-62 366.13,-62"/>
<text text-anchor="middle" x="428.13" y="-69" font-family="Helvetica,sans-Serif" font-size="10.00">emlabcpp/algorithm.h</text>
</a>
</g>
</g>
<!-- Node4&#45;&gt;Node5 -->
<g id="edge4" class="edge">
<title>Node4&#45;&gt;Node5</title>
<path fill="none" stroke="midnightblue" d="M594.39,-123.48C555.9,-111.67 501.52,-95 465.57,-83.98"/>
<polygon fill="midnightblue" stroke="midnightblue" points="466.54,-80.61 455.95,-81.03 464.49,-87.31 466.54,-80.61"/>
</g>
<!-- Node44 -->
<g id="node6" class="node">
<title>Node44</title>
<g id="a_node6"><a xlink:href="tree_8h.html" target="_top" xlink:title=" ">
<polygon fill="white" stroke="red" points="669.63,-56.5 669.63,-86.5 802.63,-86.5 802.63,-56.5 669.63,-56.5"/>
<text text-anchor="start" x="677.63" y="-74.5" font-family="Helvetica,sans-Serif" font-size="10.00">emlabcpp/experimental</text>
<text text-anchor="middle" x="736.13" y="-63.5" font-family="Helvetica,sans-Serif" font-size="10.00">/contiguous_tree/tree.h</text>
</a>
</g>
</g>
<!-- Node4&#45;&gt;Node44 -->
<g id="edge5" class="edge">
<title>Node4&#45;&gt;Node44</title>
<path fill="none" stroke="midnightblue" d="M660.96,-123.4C674.43,-114.28 692.14,-102.29 706.99,-92.24"/>
<polygon fill="midnightblue" stroke="midnightblue" points="709.03,-95.08 715.34,-86.58 705.1,-89.28 709.03,-95.08"/>
</g>
<!-- Node47 -->
<g id="node8" class="node">
<title>Node47</title>
<g id="a_node8"><a xlink:href="static__vector_8h.html" target="_top" xlink:title=" ">
<polygon fill="white" stroke="red" points="761.63,-0.5 761.63,-19.5 900.63,-19.5 900.63,-0.5 761.63,-0.5"/>
<text text-anchor="middle" x="831.13" y="-7.5" font-family="Helvetica,sans-Serif" font-size="10.00">emlabcpp/static_vector.h</text>
</a>
</g>
</g>
<!-- Node4&#45;&gt;Node47 -->
<g id="edge10" class="edge">
<title>Node4&#45;&gt;Node47</title>
<path fill="none" stroke="midnightblue" d="M706.71,-133.61C742.55,-128.06 784.87,-115.4 812.13,-87 826.75,-71.78 830.63,-47.08 831.42,-29.99"/>
<polygon fill="midnightblue" stroke="midnightblue" points="834.92,-29.63 831.56,-19.59 827.92,-29.54 834.92,-29.63"/>
</g>
<!-- Node35 -->
<g id="node9" class="node">
<title>Node35</title>
<g id="a_node9"><a xlink:title=" ">
<polygon fill="white" stroke="#bfbfbf" points="602.13,-0.5 602.13,-19.5 640.13,-19.5 640.13,-0.5 602.13,-0.5"/>
<text text-anchor="middle" x="621.13" y="-7.5" font-family="Helvetica,sans-Serif" font-size="10.00">map</text>
</a>
</g>
</g>
<!-- Node4&#45;&gt;Node35 -->
<g id="edge12" class="edge">
<title>Node4&#45;&gt;Node35</title>
<path fill="none" stroke="midnightblue" d="M585.1,-123.49C566.6,-115.87 547.93,-104.32 537.13,-87 529.85,-75.31 530.06,-67.82 537.13,-56 549,-36.18 572.92,-24.59 592.21,-18.15"/>
<polygon fill="midnightblue" stroke="midnightblue" points="593.24,-21.5 601.79,-15.24 591.2,-14.8 593.24,-21.5"/>
</g>
<!-- Node60 -->
<g id="node10" class="node">
<title>Node60</title>
<g id="a_node10"><a xlink:href="static__function_8h.html" target="_top" xlink:title=" ">
<polygon fill="white" stroke="red" points="129.63,-62 129.63,-81 278.63,-81 278.63,-62 129.63,-62"/>
<text text-anchor="middle" x="204.13" y="-69" font-family="Helvetica,sans-Serif" font-size="10.00">emlabcpp/static_function.h</text>
</a>
</g>
</g>
<!-- Node4&#45;&gt;Node60 -->
<g id="edge9" class="edge">
<title>Node4&#45;&gt;Node60</title>
<path fill="none" stroke="midnightblue" d="M573.35,-128.57C502.3,-118.93 386.64,-102.81 287.13,-87 278.83,-85.68 270.06,-84.22 261.47,-82.75"/>
<polygon fill="midnightblue" stroke="midnightblue" points="261.94,-79.28 251.5,-81.03 260.76,-86.18 261.94,-79.28"/>
</g>
<!-- Node61 -->
<g id="node11" class="node">
<title>Node61</title>
<g id="a_node11"><a xlink:title=" ">
<polygon fill="white" stroke="#bfbfbf" points="859.13,-62 859.13,-81 923.13,-81 923.13,-62 859.13,-62"/>
<text text-anchor="middle" x="891.13" y="-69" font-family="Helvetica,sans-Serif" font-size="10.00">algorithm</text>
</a>
</g>
</g>
<!-- Node4&#45;&gt;Node61 -->
<g id="edge11" class="edge">
<title>Node4&#45;&gt;Node61</title>
<path fill="none" stroke="midnightblue" d="M701.4,-123.49C742.28,-113.87 797.14,-100.46 845.13,-87 848.46,-86.07 851.91,-85.06 855.35,-84.02"/>
<polygon fill="midnightblue" stroke="midnightblue" points="856.42,-87.36 864.95,-81.07 854.36,-80.67 856.42,-87.36"/>
</g>
<!-- Node62 -->
<g id="node12" class="node">
<title>Node62</title>
<g id="a_node12"><a xlink:title=" ">
<polygon fill="white" stroke="#bfbfbf" points="546.63,-62 546.63,-81 651.63,-81 651.63,-62 546.63,-62"/>
<text text-anchor="middle" x="599.13" y="-69" font-family="Helvetica,sans-Serif" font-size="10.00">memory_resource</text>
</a>
</g>
</g>
<!-- Node4&#45;&gt;Node62 -->
<g id="edge13" class="edge">
<title>Node4&#45;&gt;Node62</title>
<path fill="none" stroke="midnightblue" d="M631.24,-123.4C625.03,-113.56 616.72,-100.38 610.1,-89.89"/>
<polygon fill="midnightblue" stroke="midnightblue" points="612.91,-87.79 604.62,-81.19 606.99,-91.52 612.91,-87.79"/>
</g>
<!-- Node18 -->
<g id="node13" class="node">
<title>Node18</title>
<g id="a_node13"><a xlink:title=" ">
<polygon fill="white" stroke="#bfbfbf" points="296.63,-62 296.63,-81 347.63,-81 347.63,-62 296.63,-62"/>
<text text-anchor="middle" x="322.13" y="-69" font-family="Helvetica,sans-Serif" font-size="10.00">variant</text>
</a>
</g>
</g>
<!-- Node4&#45;&gt;Node18 -->
<g id="edge14" class="edge">
<title>Node4&#45;&gt;Node18</title>
<path fill="none" stroke="midnightblue" d="M573.44,-129.74C515.49,-122.02 429.7,-108.23 357.13,-87 354.84,-86.33 352.5,-85.56 350.16,-84.73"/>
<polygon fill="midnightblue" stroke="midnightblue" points="351.35,-81.43 340.76,-81.09 348.82,-87.96 351.35,-81.43"/>
</g>
<!-- Node25 -->
<g id="node7" class="node">
<title>Node25</title>
<g id="a_node7"><a xlink:href="match_8h.html" target="_top" xlink:title=" ">
<polygon fill="white" stroke="red" points="926.63,-0.5 926.63,-19.5 1033.63,-19.5 1033.63,-0.5 926.63,-0.5"/>
<text text-anchor="middle" x="980.13" y="-7.5" font-family="Helvetica,sans-Serif" font-size="10.00">emlabcpp/match.h</text>
</a>
</g>
</g>
<!-- Node44&#45;&gt;Node25 -->
<g id="edge6" class="edge">
<title>Node44&#45;&gt;Node25</title>
<path fill="none" stroke="midnightblue" d="M793.65,-56.47C836.94,-45.92 895.43,-31.66 935.29,-21.94"/>
<polygon fill="midnightblue" stroke="midnightblue" points="936.36,-25.28 945.25,-19.51 934.71,-18.48 936.36,-25.28"/>
</g>
<!-- Node44&#45;&gt;Node47 -->
<g id="edge7" class="edge">
<title>Node44&#45;&gt;Node47</title>
<path fill="none" stroke="midnightblue" d="M758.65,-56.4C773.73,-46.95 793.52,-34.56 808.61,-25.11"/>
<polygon fill="midnightblue" stroke="midnightblue" points="810.69,-27.93 817.31,-19.66 806.98,-22 810.69,-27.93"/>
</g>
<!-- Node44&#45;&gt;Node35 -->
<g id="edge8" class="edge">
<title>Node44&#45;&gt;Node35</title>
<path fill="none" stroke="midnightblue" d="M708.88,-56.4C690.1,-46.68 665.31,-33.86 646.87,-24.31"/>
<polygon fill="midnightblue" stroke="midnightblue" points="648.36,-21.14 637.87,-19.66 645.14,-27.36 648.36,-21.14"/>
</g>
<!-- Node64 -->
<g id="node15" class="node">
<title>Node64</title>
<g id="a_node15"><a xlink:href="memory__promise_8h.html" target="_top" xlink:title=" ">
<polygon fill="white" stroke="red" points="16.63,-196 16.63,-226 155.63,-226 155.63,-196 16.63,-196"/>
<text text-anchor="start" x="24.63" y="-214" font-family="Helvetica,sans-Serif" font-size="10.00">emlabcpp/experimental</text>
<text text-anchor="middle" x="86.13" y="-203" font-family="Helvetica,sans-Serif" font-size="10.00">/coro/memory_promise.h</text>
</a>
</g>
</g>
<!-- Node63&#45;&gt;Node64 -->
<g id="edge16" class="edge">
<title>Node63&#45;&gt;Node64</title>
<path fill="none" stroke="midnightblue" d="M309.58,-356.21C239.75,-350.31 136.27,-337.18 108.13,-310 88.52,-291.05 84.66,-258.68 84.63,-236.35"/>
<polygon fill="midnightblue" stroke="midnightblue" points="88.13,-236.38 84.86,-226.3 81.13,-236.22 88.13,-236.38"/>
</g>
<!-- Node65 -->
<g id="node16" class="node">
<title>Node65</title>
<g id="a_node16"><a xlink:href="owning__coroutine__handle_8h.html" target="_top" xlink:title=" ">
<polygon fill="white" stroke="black" points="212.63,-190.5 212.63,-231.5 345.63,-231.5 345.63,-190.5 212.63,-190.5"/>
<text text-anchor="start" x="220.63" y="-219.5" font-family="Helvetica,sans-Serif" font-size="10.00">emlabcpp/experimental</text>
<text text-anchor="start" x="220.63" y="-208.5" font-family="Helvetica,sans-Serif" font-size="10.00">/coro/owning_coroutine</text>
<text text-anchor="middle" x="279.13" y="-197.5" font-family="Helvetica,sans-Serif" font-size="10.00">_handle.h</text>
</a>
</g>
</g>
<!-- Node63&#45;&gt;Node65 -->
<g id="edge17" class="edge">
<title>Node63&#45;&gt;Node65</title>
<path fill="none" stroke="midnightblue" d="M366.83,-346.26C350.88,-321.84 318.04,-271.56 297.38,-239.93"/>
<polygon fill="midnightblue" stroke="midnightblue" points="300.3,-238.01 291.9,-231.55 294.44,-241.83 300.3,-238.01"/>
</g>
<!-- Node66 -->
<g id="node17" class="node">
<title>Node66</title>
<g id="a_node17"><a xlink:title=" ">
<polygon fill="white" stroke="#bfbfbf" points="153.13,-129 153.13,-148 215.13,-148 215.13,-129 153.13,-129"/>
<text text-anchor="middle" x="184.13" y="-136" font-family="Helvetica,sans-Serif" font-size="10.00">coroutine</text>
</a>
</g>
</g>
<!-- Node63&#45;&gt;Node66 -->
<g id="edge34" class="edge">
<title>Node63&#45;&gt;Node66</title>
<path fill="none" stroke="midnightblue" d="M309.54,-360.41C247.84,-357.76 155.15,-347.11 84.13,-310 40.96,-287.44 25.63,-277.06 7.13,-232 0.05,-214.73 -4.11,-204.9 7.13,-190 23.5,-168.32 96.2,-153.16 143.19,-145.42"/>
<polygon fill="midnightblue" stroke="midnightblue" points="143.76,-148.88 153.08,-143.84 142.66,-141.96 143.76,-148.88"/>
</g>
<!-- Node67 -->
<g id="node18" class="node">
<title>Node67</title>
<g id="a_node18"><a xlink:href="recursive_8h.html" target="_top" xlink:title=" ">
<polygon fill="white" stroke="black" points="117.63,-274 117.63,-304 250.63,-304 250.63,-274 117.63,-274"/>
<text text-anchor="start" x="125.63" y="-292" font-family="Helvetica,sans-Serif" font-size="10.00">emlabcpp/experimental</text>
<text text-anchor="middle" x="184.13" y="-281" font-family="Helvetica,sans-Serif" font-size="10.00">/coro/recursive.h</text>
</a>
</g>
</g>
<!-- Node63&#45;&gt;Node67 -->
<g id="edge20" class="edge">
<title>Node63&#45;&gt;Node67</title>
<path fill="none" stroke="midnightblue" d="M337.74,-346.4C307.39,-335.26 264.86,-319.64 232.24,-307.66"/>
<polygon fill="midnightblue" stroke="midnightblue" points="233.05,-304.23 222.46,-304.07 230.64,-310.81 233.05,-304.23"/>
</g>
<!-- Node68 -->
<g id="node19" class="node">
<title>Node68</title>
<g id="a_node19"><a xlink:href="experimental_2testing_2convert_8h.html" target="_top" xlink:title=" ">
<polygon fill="white" stroke="black" points="566.63,-274 566.63,-304 699.63,-304 699.63,-274 566.63,-274"/>
<text text-anchor="start" x="574.63" y="-292" font-family="Helvetica,sans-Serif" font-size="10.00">emlabcpp/experimental</text>
<text text-anchor="middle" x="633.13" y="-281" font-family="Helvetica,sans-Serif" font-size="10.00">/testing/convert.h</text>
</a>
</g>
</g>
<!-- Node63&#45;&gt;Node68 -->
<g id="edge24" class="edge">
<title>Node63&#45;&gt;Node68</title>
<path fill="none" stroke="midnightblue" d="M427.22,-346.49C468.86,-335.06 527.8,-318.9 571.96,-306.78"/>
<polygon fill="midnightblue" stroke="midnightblue" points="572.99,-310.13 581.71,-304.11 571.14,-303.38 572.99,-310.13"/>
</g>
<!-- Node69 -->
<g id="node20" class="node">
<title>Node69</title>
<g id="a_node20"><a xlink:href="reactor__interface__adapter_8h.html" target="_top" xlink:title=" ">
<polygon fill="white" stroke="red" points="402.13,-268.5 402.13,-309.5 542.13,-309.5 542.13,-268.5 402.13,-268.5"/>
<text text-anchor="start" x="410.13" y="-297.5" font-family="Helvetica,sans-Serif" font-size="10.00">emlabcpp/experimental</text>
<text text-anchor="start" x="410.13" y="-286.5" font-family="Helvetica,sans-Serif" font-size="10.00">/testing/reactor_interface</text>
<text text-anchor="middle" x="472.13" y="-275.5" font-family="Helvetica,sans-Serif" font-size="10.00">_adapter.h</text>
</a>
</g>
</g>
<!-- Node63&#45;&gt;Node69 -->
<g id="edge26" class="edge">
<title>Node63&#45;&gt;Node69</title>
<path fill="none" stroke="midnightblue" d="M395.56,-346.23C407.56,-337.42 423.31,-325.86 437.4,-315.51"/>
<polygon fill="midnightblue" stroke="midnightblue" points="439.47,-318.33 445.46,-309.59 435.33,-312.69 439.47,-318.33"/>
</g>
<!-- Node65&#45;&gt;Node3 -->
<g id="edge19" class="edge">
<title>Node65&#45;&gt;Node3</title>
<path fill="none" stroke="midnightblue" d="M305.6,-190.36C321.06,-178.89 340.24,-164.65 354.38,-154.16"/>
<polygon fill="midnightblue" stroke="midnightblue" points="356.5,-156.94 362.45,-148.17 352.33,-151.32 356.5,-156.94"/>
</g>
<!-- Node65&#45;&gt;Node66 -->
<g id="edge18" class="edge">
<title>Node65&#45;&gt;Node66</title>
<path fill="none" stroke="midnightblue" d="M252.67,-190.36C237.21,-178.89 218.03,-164.65 203.89,-154.16"/>
<polygon fill="midnightblue" stroke="midnightblue" points="205.94,-151.32 195.82,-148.17 201.77,-156.94 205.94,-151.32"/>
</g>
<!-- Node67&#45;&gt;Node64 -->
<g id="edge21" class="edge">
<title>Node67&#45;&gt;Node64</title>
<path fill="none" stroke="midnightblue" d="M165.7,-273.7C150.78,-262.13 129.57,-245.68 112.79,-232.67"/>
<polygon fill="midnightblue" stroke="midnightblue" points="114.53,-229.59 104.48,-226.23 110.24,-235.12 114.53,-229.59"/>
</g>
<!-- Node67&#45;&gt;Node65 -->
<g id="edge22" class="edge">
<title>Node67&#45;&gt;Node65</title>
<path fill="none" stroke="midnightblue" d="M202,-273.7C214.52,-263.69 231.61,-250.02 246.52,-238.09"/>
<polygon fill="midnightblue" stroke="midnightblue" points="248.91,-240.66 254.53,-231.68 244.54,-235.19 248.91,-240.66"/>
</g>
<!-- Node67&#45;&gt;Node66 -->
<g id="edge23" class="edge">
<title>Node67&#45;&gt;Node66</title>
<path fill="none" stroke="midnightblue" d="M184.13,-273.76C184.13,-246.85 184.13,-188.54 184.13,-158.4"/>
<polygon fill="midnightblue" stroke="midnightblue" points="187.63,-158.35 184.13,-148.35 180.63,-158.35 187.63,-158.35"/>
</g>
<!-- Node68&#45;&gt;Node4 -->
<g id="edge25" class="edge">
<title>Node68&#45;&gt;Node4</title>
<path fill="none" stroke="midnightblue" d="M633.81,-273.76C635,-248.44 637.5,-195.29 638.98,-163.99"/>
<polygon fill="midnightblue" stroke="midnightblue" points="642.48,-164.07 639.45,-153.91 635.49,-163.74 642.48,-164.07"/>
</g>
<!-- Node69&#45;&gt;Node3 -->
<g id="edge33" class="edge">
<title>Node69&#45;&gt;Node3</title>
<path fill="none" stroke="midnightblue" d="M459.12,-268.28C439.84,-239.06 403.99,-184.74 385.62,-156.91"/>
<polygon fill="midnightblue" stroke="midnightblue" points="388.34,-154.68 379.91,-148.26 382.5,-158.53 388.34,-154.68"/>
</g>
<!-- Node69&#45;&gt;Node60 -->
<g id="edge32" class="edge">
<title>Node69&#45;&gt;Node60</title>
<path fill="none" stroke="midnightblue" d="M470.09,-268.23C465.37,-233.21 450.37,-160.47 405.13,-123 393.59,-113.44 311.92,-94.93 256.3,-83.17"/>
<polygon fill="midnightblue" stroke="midnightblue" points="256.75,-79.69 246.24,-81.06 255.31,-86.54 256.75,-79.69"/>
</g>
<!-- Node95 -->
<g id="node21" class="node">
<title>Node95</title>
<g id="a_node21"><a xlink:href="experimental_2testing_2protocol_8h.html" target="_top" xlink:title=" ">
<polygon fill="white" stroke="red" points="478.63,-196 478.63,-226 611.63,-226 611.63,-196 478.63,-196"/>
<text text-anchor="start" x="486.63" y="-214" font-family="Helvetica,sans-Serif" font-size="10.00">emlabcpp/experimental</text>
<text text-anchor="middle" x="545.13" y="-203" font-family="Helvetica,sans-Serif" font-size="10.00">/testing/protocol.h</text>
</a>
</g>
</g>
<!-- Node69&#45;&gt;Node95 -->
<g id="edge27" class="edge">
<title>Node69&#45;&gt;Node95</title>
<path fill="none" stroke="midnightblue" d="M490.93,-268.43C501.13,-257.81 513.76,-244.66 524.26,-233.73"/>
<polygon fill="midnightblue" stroke="midnightblue" points="527.07,-235.86 531.47,-226.23 522.02,-231.01 527.07,-235.86"/>
</g>
<!-- Node95&#45;&gt;Node4 -->
<g id="edge29" class="edge">
<title>Node95&#45;&gt;Node4</title>
<path fill="none" stroke="midnightblue" d="M564.36,-195.73C578.36,-185.35 597.51,-171.13 613.05,-159.6"/>
<polygon fill="midnightblue" stroke="midnightblue" points="615.32,-162.27 621.26,-153.5 611.15,-156.65 615.32,-162.27"/>
</g>
<!-- Node95&#45;&gt;Node5 -->
<g id="edge28" class="edge">
<title>Node95&#45;&gt;Node5</title>
<path fill="none" stroke="midnightblue" d="M544.57,-195.83C543.14,-177.24 538.19,-144.47 521.13,-123 507.06,-105.28 484.99,-92.92 465.89,-84.86"/>
<polygon fill="midnightblue" stroke="midnightblue" points="467.1,-81.58 456.51,-81.14 464.52,-88.08 467.1,-81.58"/>
</g>
<!-- Node95&#45;&gt;Node60 -->
<g id="edge30" class="edge">
<title>Node95&#45;&gt;Node60</title>
<path fill="none" stroke="midnightblue" d="M529.17,-195.74C502.19,-171.69 450,-125.42 445.13,-123 428.79,-114.88 327.05,-95.13 261.09,-82.87"/>
<polygon fill="midnightblue" stroke="midnightblue" points="261.7,-79.43 251.23,-81.05 260.43,-86.31 261.7,-79.43"/>
</g>
<!-- Node95&#45;&gt;Node18 -->
<g id="edge31" class="edge">
<title>Node95&#45;&gt;Node18</title>
<path fill="none" stroke="midnightblue" d="M538.88,-196C529.54,-176.67 510.1,-142.05 483.13,-123 435.56,-89.4 412.13,-106.18 357.13,-87 355.22,-86.33 353.27,-85.62 351.3,-84.88"/>
<polygon fill="midnightblue" stroke="midnightblue" points="352.19,-81.46 341.6,-81.03 349.61,-87.97 352.19,-81.46"/>
</g>
<!-- Node96&#45;&gt;Node4 -->
<g id="edge36" class="edge">
<title>Node96&#45;&gt;Node4</title>
<path fill="none" stroke="midnightblue" d="M876.14,-413.37C864.34,-396.89 843.95,-368.97 825.13,-346 768.12,-276.43 695.77,-198.4 660.85,-161.32"/>
<polygon fill="midnightblue" stroke="midnightblue" points="663,-158.51 653.59,-153.64 657.91,-163.31 663,-158.51"/>
</g>
<!-- Node96&#45;&gt;Node25 -->
<g id="edge39" class="edge">
<title>Node96&#45;&gt;Node25</title>
<path fill="none" stroke="midnightblue" d="M906.98,-413.28C937.07,-390.88 989.13,-344.28 989.13,-290 989.13,-290 989.13,-290 989.13,-137.5 989.13,-99.11 984.96,-54.32 982.3,-29.67"/>
<polygon fill="midnightblue" stroke="midnightblue" points="985.76,-29.12 981.17,-19.57 978.8,-29.9 985.76,-29.12"/>
</g>
<!-- Node96&#45;&gt;Node47 -->
<g id="edge40" class="edge">
<title>Node96&#45;&gt;Node47</title>
<path fill="none" stroke="midnightblue" d="M898.06,-413.3C916.82,-389.44 951.13,-339.11 951.13,-290 951.13,-290 951.13,-290 951.13,-137.5 951.13,-100.31 955.82,-84.68 932.13,-56 918.97,-40.06 899,-29.56 880.28,-22.76"/>
<polygon fill="midnightblue" stroke="midnightblue" points="881.24,-19.39 870.65,-19.52 879.02,-26.02 881.24,-19.39"/>
</g>
<!-- Node96&#45;&gt;Node63 -->
<g id="edge37" class="edge">
<title>Node96&#45;&gt;Node63</title>
<path fill="none" stroke="midnightblue" d="M819.46,-419C724.96,-406.96 552.51,-384.98 452.83,-372.28"/>
<polygon fill="midnightblue" stroke="midnightblue" points="453.19,-368.79 442.82,-371 452.3,-375.74 453.19,-368.79"/>
</g>
<!-- Node96&#45;&gt;Node95 -->
<g id="edge38" class="edge">
<title>Node96&#45;&gt;Node95</title>
<path fill="none" stroke="midnightblue" d="M869.2,-413.3C857.33,-403.27 841.14,-389.45 827.13,-377 773.78,-329.56 770.47,-304.55 709.13,-268 680.22,-250.77 645.25,-237.9 615.04,-228.88"/>
<polygon fill="midnightblue" stroke="midnightblue" points="615.99,-225.51 605.41,-226.08 614.04,-232.23 615.99,-225.51"/>
</g>
</g>
</svg>
