<?xml version="1.0" encoding="UTF-8" standalone="no"?>
<!DOCTYPE svg PUBLIC "-//W3C//DTD SVG 1.1//EN"
 "http://www.w3.org/Graphics/SVG/1.1/DTD/svg11.dtd">
<!-- Generated by graphviz version 2.43.0 (0)
 -->
<!-- Title: include/emlabcpp/experimental/testing/interface.h Pages: 1 -->
<svg width="1374pt" height="575pt"
 viewBox="0.00 0.00 1373.63 575.00" xmlns="http://www.w3.org/2000/svg" xmlns:xlink="http://www.w3.org/1999/xlink">
<g id="graph0" class="graph" transform="scale(1 1) rotate(0) translate(4 571)">
<title>include/emlabcpp/experimental/testing/interface.h</title>
<polygon fill="white" stroke="transparent" points="-4,4 -4,-571 1369.63,-571 1369.63,4 -4,4"/>
<!-- Node1 -->
<g id="node1" class="node">
<title>Node1</title>
<g id="a_node1"><a xlink:title=" ">
<polygon fill="#bfbfbf" stroke="black" points="395,-536.5 395,-566.5 566,-566.5 566,-536.5 395,-536.5"/>
<text text-anchor="start" x="403" y="-554.5" font-family="Helvetica,sans-Serif" font-size="10.00">include/emlabcpp/experimental</text>
<text text-anchor="middle" x="480.5" y="-543.5" font-family="Helvetica,sans-Serif" font-size="10.00">/testing/interface.h</text>
</a>
</g>
</g>
<!-- Node2 -->
<g id="node2" class="node">
<title>Node2</title>
<g id="a_node2"><a xlink:href="linked__list_8h.html" target="_top" xlink:title=" ">
<polygon fill="white" stroke="black" points="0,-402.5 0,-432.5 133,-432.5 133,-402.5 0,-402.5"/>
<text text-anchor="start" x="8" y="-420.5" font-family="Helvetica,sans-Serif" font-size="10.00">emlabcpp/experimental</text>
<text text-anchor="middle" x="66.5" y="-409.5" font-family="Helvetica,sans-Serif" font-size="10.00">/linked_list.h</text>
</a>
</g>
</g>
<!-- Node1&#45;&gt;Node2 -->
<g id="edge1" class="edge">
<title>Node1&#45;&gt;Node2</title>
<path fill="none" stroke="midnightblue" d="M394.89,-545.59C334.53,-539.82 252.8,-527.27 185.5,-500 149.12,-485.26 112.68,-458.01 89.89,-439.1"/>
<polygon fill="midnightblue" stroke="midnightblue" points="92.03,-436.33 82.13,-432.55 87.51,-441.68 92.03,-436.33"/>
</g>
<!-- Node4 -->
<g id="node4" class="node">
<title>Node4</title>
<g id="a_node4"><a xlink:href="experimental_2testing_2base_8h.html" target="_top" xlink:title=" ">
<polygon fill="white" stroke="black" points="516,-179.5 516,-209.5 649,-209.5 649,-179.5 516,-179.5"/>
<text text-anchor="start" x="524" y="-197.5" font-family="Helvetica,sans-Serif" font-size="10.00">emlabcpp/experimental</text>
<text text-anchor="middle" x="582.5" y="-186.5" font-family="Helvetica,sans-Serif" font-size="10.00">/testing/base.h</text>
</a>
</g>
</g>
<!-- Node1&#45;&gt;Node4 -->
<g id="edge3" class="edge">
<title>Node1&#45;&gt;Node4</title>
<path fill="none" stroke="midnightblue" d="M394.66,-545.5C312.03,-535.48 199.5,-505.82 199.5,-418.5 199.5,-418.5 199.5,-418.5 199.5,-344 199.5,-278.93 394.13,-231.17 505.9,-209.1"/>
<polygon fill="midnightblue" stroke="midnightblue" points="506.64,-212.53 515.79,-207.18 505.3,-205.66 506.64,-212.53"/>
</g>
<!-- Node62 -->
<g id="node14" class="node">
<title>Node62</title>
<g id="a_node14"><a xlink:href="coroutine_8h.html" target="_top" xlink:title=" ">
<polygon fill="white" stroke="black" points="952,-402.5 952,-432.5 1085,-432.5 1085,-402.5 952,-402.5"/>
<text text-anchor="start" x="960" y="-420.5" font-family="Helvetica,sans-Serif" font-size="10.00">emlabcpp/experimental</text>
<text text-anchor="middle" x="1018.5" y="-409.5" font-family="Helvetica,sans-Serif" font-size="10.00">/testing/coroutine.h</text>
</a>
</g>
</g>
<!-- Node1&#45;&gt;Node62 -->
<g id="edge16" class="edge">
<title>Node1&#45;&gt;Node62</title>
<path fill="none" stroke="midnightblue" d="M487.71,-536.4C498.24,-517.46 519.74,-484.39 548.5,-469 614.7,-433.58 826.38,-423 941.75,-419.84"/>
<polygon fill="midnightblue" stroke="midnightblue" points="942.02,-423.33 951.93,-419.57 941.84,-416.33 942.02,-423.33"/>
</g>
<!-- Node95 -->
<g id="node22" class="node">
<title>Node95</title>
<g id="a_node22"><a xlink:href="record_8h.html" target="_top" xlink:title=" ">
<polygon fill="white" stroke="black" points="367,-469.5 367,-499.5 500,-499.5 500,-469.5 367,-469.5"/>
<text text-anchor="start" x="375" y="-487.5" font-family="Helvetica,sans-Serif" font-size="10.00">emlabcpp/experimental</text>
<text text-anchor="middle" x="433.5" y="-476.5" font-family="Helvetica,sans-Serif" font-size="10.00">/testing/record.h</text>
</a>
</g>
</g>
<!-- Node1&#45;&gt;Node95 -->
<g id="edge36" class="edge">
<title>Node1&#45;&gt;Node95</title>
<path fill="none" stroke="midnightblue" d="M470.3,-536.4C464.27,-528.05 456.48,-517.29 449.63,-507.81"/>
<polygon fill="midnightblue" stroke="midnightblue" points="452.37,-505.63 443.68,-499.58 446.7,-509.73 452.37,-505.63"/>
</g>
<!-- Node71 -->
<g id="node23" class="node">
<title>Node71</title>
<g id="a_node23"><a xlink:href="packet__handler_8h.html" target="_top" xlink:title=" ">
<polygon fill="white" stroke="red" points="557,-469.5 557,-499.5 700,-499.5 700,-469.5 557,-469.5"/>
<text text-anchor="start" x="565" y="-487.5" font-family="Helvetica,sans-Serif" font-size="10.00">emlabcpp/protocol/packet</text>
<text text-anchor="middle" x="628.5" y="-476.5" font-family="Helvetica,sans-Serif" font-size="10.00">_handler.h</text>
</a>
</g>
</g>
<!-- Node1&#45;&gt;Node71 -->
<g id="edge42" class="edge">
<title>Node1&#45;&gt;Node71</title>
<path fill="none" stroke="midnightblue" d="M512.61,-536.4C534.43,-526.81 563.49,-514.05 587.06,-503.7"/>
<polygon fill="midnightblue" stroke="midnightblue" points="588.7,-506.8 596.45,-499.58 585.89,-500.39 588.7,-506.8"/>
</g>
<!-- Node38 -->
<g id="node24" class="node">
<title>Node38</title>
<g id="a_node24"><a xlink:title=" ">
<polygon fill="white" stroke="#bfbfbf" points="718.5,-475 718.5,-494 758.5,-494 758.5,-475 718.5,-475"/>
<text text-anchor="middle" x="738.5" y="-482" font-family="Helvetica,sans-Serif" font-size="10.00">span</text>
</a>
</g>
</g>
<!-- Node1&#45;&gt;Node38 -->
<g id="edge43" class="edge">
<title>Node1&#45;&gt;Node38</title>
<path fill="none" stroke="midnightblue" d="M566.19,-536.8C609.81,-528.52 663.26,-516.38 709.5,-500 710.93,-499.5 712.37,-498.94 713.82,-498.34"/>
<polygon fill="midnightblue" stroke="midnightblue" points="715.53,-501.41 723.16,-494.05 712.61,-495.05 715.53,-501.41"/>
</g>
<!-- Node3 -->
<g id="node3" class="node">
<title>Node3</title>
<g id="a_node3"><a xlink:title=" ">
<polygon fill="white" stroke="#bfbfbf" points="724,-0.5 724,-19.5 769,-19.5 769,-0.5 724,-0.5"/>
<text text-anchor="middle" x="746.5" y="-7.5" font-family="Helvetica,sans-Serif" font-size="10.00">utility</text>
</a>
</g>
</g>
<!-- Node2&#45;&gt;Node3 -->
<g id="edge2" class="edge">
<title>Node2&#45;&gt;Node3</title>
<path fill="none" stroke="midnightblue" d="M71,-402.33C78.91,-376.11 94.5,-318.11 94.5,-268 94.5,-268 94.5,-268 94.5,-126.5 94.5,-78.1 132.76,-74.47 177.5,-56 275.57,-15.51 607.72,-11.27 713.71,-10.97"/>
<polygon fill="midnightblue" stroke="midnightblue" points="713.82,-14.47 723.81,-10.95 713.8,-7.47 713.82,-14.47"/>
</g>
<!-- Node5 -->
<g id="node5" class="node">
<title>Node5</title>
<g id="a_node5"><a xlink:href="algorithm_8h.html" target="_top" xlink:title=" ">
<polygon fill="white" stroke="red" points="731.5,-118 731.5,-137 855.5,-137 855.5,-118 731.5,-118"/>
<text text-anchor="middle" x="793.5" y="-125" font-family="Helvetica,sans-Serif" font-size="10.00">emlabcpp/algorithm.h</text>
</a>
</g>
</g>
<!-- Node4&#45;&gt;Node5 -->
<g id="edge4" class="edge">
<title>Node4&#45;&gt;Node5</title>
<path fill="none" stroke="midnightblue" d="M628.02,-179.48C666.34,-167.67 720.46,-151 756.24,-139.98"/>
<polygon fill="midnightblue" stroke="midnightblue" points="757.29,-143.32 765.81,-137.03 755.23,-136.63 757.29,-143.32"/>
</g>
<!-- Node44 -->
<g id="node6" class="node">
<title>Node44</title>
<g id="a_node6"><a xlink:href="tree_8h.html" target="_top" xlink:title=" ">
<polygon fill="white" stroke="red" points="390,-112.5 390,-142.5 523,-142.5 523,-112.5 390,-112.5"/>
<text text-anchor="start" x="398" y="-130.5" font-family="Helvetica,sans-Serif" font-size="10.00">emlabcpp/experimental</text>
<text text-anchor="middle" x="456.5" y="-119.5" font-family="Helvetica,sans-Serif" font-size="10.00">/contiguous_tree/tree.h</text>
</a>
</g>
</g>
<!-- Node4&#45;&gt;Node44 -->
<g id="edge5" class="edge">
<title>Node4&#45;&gt;Node44</title>
<path fill="none" stroke="midnightblue" d="M555.16,-179.4C536.91,-169.98 512.72,-157.5 492.86,-147.26"/>
<polygon fill="midnightblue" stroke="midnightblue" points="494.28,-144.05 483.79,-142.58 491.07,-150.27 494.28,-144.05"/>
</g>
<!-- Node47 -->
<g id="node8" class="node">
<title>Node47</title>
<g id="a_node8"><a xlink:href="static__vector_8h.html" target="_top" xlink:title=" ">
<polygon fill="white" stroke="red" points="333,-56.5 333,-75.5 472,-75.5 472,-56.5 333,-56.5"/>
<text text-anchor="middle" x="402.5" y="-63.5" font-family="Helvetica,sans-Serif" font-size="10.00">emlabcpp/static_vector.h</text>
</a>
</g>
</g>
<!-- Node4&#45;&gt;Node47 -->
<g id="edge11" class="edge">
<title>Node4&#45;&gt;Node47</title>
<path fill="none" stroke="midnightblue" d="M515.93,-185.6C464.03,-177.91 398.07,-164.24 381.5,-143 368.27,-126.04 379.2,-101.26 389.61,-84.65"/>
<polygon fill="midnightblue" stroke="midnightblue" points="392.8,-86.19 395.49,-75.94 386.99,-82.27 392.8,-86.19"/>
</g>
<!-- Node35 -->
<g id="node9" class="node">
<title>Node35</title>
<g id="a_node9"><a xlink:title=" ">
<polygon fill="white" stroke="#bfbfbf" points="572.5,-56.5 572.5,-75.5 610.5,-75.5 610.5,-56.5 572.5,-56.5"/>
<text text-anchor="middle" x="591.5" y="-63.5" font-family="Helvetica,sans-Serif" font-size="10.00">map</text>
</a>
</g>
</g>
<!-- Node4&#45;&gt;Node35 -->
<g id="edge13" class="edge">
<title>Node4&#45;&gt;Node35</title>
<path fill="none" stroke="midnightblue" d="M594.74,-179.12C602.04,-169.57 610.62,-156.36 614.5,-143 618.34,-129.77 617.72,-125.4 614.5,-112 612.19,-102.42 607.48,-92.58 602.92,-84.56"/>
<polygon fill="midnightblue" stroke="midnightblue" points="605.79,-82.54 597.6,-75.81 599.81,-86.17 605.79,-82.54"/>
</g>
<!-- Node59 -->
<g id="node10" class="node">
<title>Node59</title>
<g id="a_node10"><a xlink:href="static__function_8h.html" target="_top" xlink:title=" ">
<polygon fill="white" stroke="red" points="874,-118 874,-137 1023,-137 1023,-118 874,-118"/>
<text text-anchor="middle" x="948.5" y="-125" font-family="Helvetica,sans-Serif" font-size="10.00">emlabcpp/static_function.h</text>
</a>
</g>
</g>
<!-- Node4&#45;&gt;Node59 -->
<g id="edge10" class="edge">
<title>Node4&#45;&gt;Node59</title>
<path fill="none" stroke="midnightblue" d="M649.2,-181.65C718.19,-169.4 824.84,-150.46 890.45,-138.81"/>
<polygon fill="midnightblue" stroke="midnightblue" points="891.39,-142.2 900.62,-137 890.16,-135.31 891.39,-142.2"/>
</g>
<!-- Node60 -->
<g id="node11" class="node">
<title>Node60</title>
<g id="a_node11"><a xlink:title=" ">
<polygon fill="white" stroke="#bfbfbf" points="541.5,-118 541.5,-137 605.5,-137 605.5,-118 541.5,-118"/>
<text text-anchor="middle" x="573.5" y="-125" font-family="Helvetica,sans-Serif" font-size="10.00">algorithm</text>
</a>
</g>
</g>
<!-- Node4&#45;&gt;Node60 -->
<g id="edge12" class="edge">
<title>Node4&#45;&gt;Node60</title>
<path fill="none" stroke="midnightblue" d="M580.55,-179.4C579.24,-169.96 577.51,-157.45 576.09,-147.19"/>
<polygon fill="midnightblue" stroke="midnightblue" points="579.54,-146.62 574.7,-137.19 572.61,-147.58 579.54,-146.62"/>
</g>
<!-- Node61 -->
<g id="node12" class="node">
<title>Node61</title>
<g id="a_node12"><a xlink:title=" ">
<polygon fill="white" stroke="#bfbfbf" points="228,-118 228,-137 333,-137 333,-118 228,-118"/>
<text text-anchor="middle" x="280.5" y="-125" font-family="Helvetica,sans-Serif" font-size="10.00">memory_resource</text>
</a>
</g>
</g>
<!-- Node4&#45;&gt;Node61 -->
<g id="edge14" class="edge">
<title>Node4&#45;&gt;Node61</title>
<path fill="none" stroke="midnightblue" d="M517.16,-179.48C470,-169.36 404.81,-155.36 347.5,-143 341.76,-141.76 335.75,-140.46 329.78,-139.17"/>
<polygon fill="midnightblue" stroke="midnightblue" points="330.34,-135.71 319.82,-137.02 328.86,-142.56 330.34,-135.71"/>
</g>
<!-- Node18 -->
<g id="node13" class="node">
<title>Node18</title>
<g id="a_node13"><a xlink:title=" ">
<polygon fill="white" stroke="#bfbfbf" points="662,-118 662,-137 713,-137 713,-118 662,-118"/>
<text text-anchor="middle" x="687.5" y="-125" font-family="Helvetica,sans-Serif" font-size="10.00">variant</text>
</a>
</g>
</g>
<!-- Node4&#45;&gt;Node18 -->
<g id="edge15" class="edge">
<title>Node4&#45;&gt;Node18</title>
<path fill="none" stroke="midnightblue" d="M605.28,-179.4C623.05,-168.39 647.6,-153.2 665.24,-142.28"/>
<polygon fill="midnightblue" stroke="midnightblue" points="667.1,-145.25 673.76,-137.01 663.41,-139.29 667.1,-145.25"/>
</g>
<!-- Node25 -->
<g id="node7" class="node">
<title>Node25</title>
<g id="a_node7"><a xlink:href="match_8h.html" target="_top" xlink:title=" ">
<polygon fill="white" stroke="red" points="186,-56.5 186,-75.5 293,-75.5 293,-56.5 186,-56.5"/>
<text text-anchor="middle" x="239.5" y="-63.5" font-family="Helvetica,sans-Serif" font-size="10.00">emlabcpp/match.h</text>
</a>
</g>
</g>
<!-- Node44&#45;&gt;Node25 -->
<g id="edge6" class="edge">
<title>Node44&#45;&gt;Node25</title>
<path fill="none" stroke="midnightblue" d="M405.35,-112.47C367.26,-102.03 315.93,-87.96 280.52,-78.25"/>
<polygon fill="midnightblue" stroke="midnightblue" points="281.09,-74.78 270.52,-75.51 279.24,-81.53 281.09,-74.78"/>
</g>
<!-- Node44&#45;&gt;Node47 -->
<g id="edge7" class="edge">
<title>Node44&#45;&gt;Node47</title>
<path fill="none" stroke="midnightblue" d="M443.7,-112.4C435.78,-103.66 425.56,-92.41 417.29,-83.3"/>
<polygon fill="midnightblue" stroke="midnightblue" points="419.67,-80.71 410.36,-75.66 414.49,-85.42 419.67,-80.71"/>
</g>
<!-- Node44&#45;&gt;Node35 -->
<g id="edge9" class="edge">
<title>Node44&#45;&gt;Node35</title>
<path fill="none" stroke="midnightblue" d="M488.49,-112.4C511.08,-102.45 541.07,-89.23 562.87,-79.62"/>
<polygon fill="midnightblue" stroke="midnightblue" points="564.51,-82.72 572.25,-75.48 561.69,-76.31 564.51,-82.72"/>
</g>
<!-- Node47&#45;&gt;Node3 -->
<g id="edge8" class="edge">
<title>Node47&#45;&gt;Node3</title>
<path fill="none" stroke="midnightblue" d="M457.01,-56.44C529.39,-45.08 654.95,-25.37 714.01,-16.1"/>
<polygon fill="midnightblue" stroke="midnightblue" points="714.57,-19.56 723.91,-14.55 713.49,-12.64 714.57,-19.56"/>
</g>
<!-- Node63 -->
<g id="node15" class="node">
<title>Node63</title>
<g id="a_node15"><a xlink:href="memory__promise_8h.html" target="_top" xlink:title=" ">
<polygon fill="white" stroke="red" points="1210,-252 1210,-282 1349,-282 1349,-252 1210,-252"/>
<text text-anchor="start" x="1218" y="-270" font-family="Helvetica,sans-Serif" font-size="10.00">emlabcpp/experimental</text>
<text text-anchor="middle" x="1279.5" y="-259" font-family="Helvetica,sans-Serif" font-size="10.00">/coro/memory_promise.h</text>
</a>
</g>
</g>
<!-- Node62&#45;&gt;Node63 -->
<g id="edge17" class="edge">
<title>Node62&#45;&gt;Node63</title>
<path fill="none" stroke="midnightblue" d="M1085.1,-410.45C1147.12,-403.43 1233.51,-389.69 1257.5,-366 1276.91,-346.84 1280.81,-314.51 1280.91,-292.26"/>
<polygon fill="midnightblue" stroke="midnightblue" points="1284.41,-292.17 1280.71,-282.24 1277.41,-292.31 1284.41,-292.17"/>
</g>
<!-- Node64 -->
<g id="node16" class="node">
<title>Node64</title>
<g id="a_node16"><a xlink:href="owning__coroutine__handle_8h.html" target="_top" xlink:title=" ">
<polygon fill="white" stroke="black" points="1020,-246.5 1020,-287.5 1153,-287.5 1153,-246.5 1020,-246.5"/>
<text text-anchor="start" x="1028" y="-275.5" font-family="Helvetica,sans-Serif" font-size="10.00">emlabcpp/experimental</text>
<text text-anchor="start" x="1028" y="-264.5" font-family="Helvetica,sans-Serif" font-size="10.00">/coro/owning_coroutine</text>
<text text-anchor="middle" x="1086.5" y="-253.5" font-family="Helvetica,sans-Serif" font-size="10.00">_handle.h</text>
</a>
</g>
</g>
<!-- Node62&#45;&gt;Node64 -->
<g id="edge18" class="edge">
<title>Node62&#45;&gt;Node64</title>
<path fill="none" stroke="midnightblue" d="M1025.02,-402.26C1036.11,-378.05 1058.83,-328.42 1073.34,-296.75"/>
<polygon fill="midnightblue" stroke="midnightblue" points="1076.57,-298.1 1077.55,-287.55 1070.2,-295.18 1076.57,-298.1"/>
</g>
<!-- Node65 -->
<g id="node17" class="node">
<title>Node65</title>
<g id="a_node17"><a xlink:title=" ">
<polygon fill="white" stroke="#bfbfbf" points="1150.5,-185 1150.5,-204 1212.5,-204 1212.5,-185 1150.5,-185"/>
<text text-anchor="middle" x="1181.5" y="-192" font-family="Helvetica,sans-Serif" font-size="10.00">coroutine</text>
</a>
</g>
</g>
<!-- Node62&#45;&gt;Node65 -->
<g id="edge35" class="edge">
<title>Node62&#45;&gt;Node65</title>
<path fill="none" stroke="midnightblue" d="M1085.07,-414.58C1140.53,-410.52 1220.09,-398.81 1281.5,-366 1324.46,-343.04 1340,-333.06 1358.5,-288 1365.59,-270.73 1369.74,-260.9 1358.5,-246 1342.14,-224.32 1269.43,-209.16 1222.45,-201.42"/>
<polygon fill="midnightblue" stroke="midnightblue" points="1222.98,-197.96 1212.55,-199.84 1221.87,-204.88 1222.98,-197.96"/>
</g>
<!-- Node66 -->
<g id="node18" class="node">
<title>Node66</title>
<g id="a_node18"><a xlink:href="recursive_8h.html" target="_top" xlink:title=" ">
<polygon fill="white" stroke="black" points="1115,-330 1115,-360 1248,-360 1248,-330 1115,-330"/>
<text text-anchor="start" x="1123" y="-348" font-family="Helvetica,sans-Serif" font-size="10.00">emlabcpp/experimental</text>
<text text-anchor="middle" x="1181.5" y="-337" font-family="Helvetica,sans-Serif" font-size="10.00">/coro/recursive.h</text>
</a>
</g>
</g>
<!-- Node62&#45;&gt;Node66 -->
<g id="edge21" class="edge">
<title>Node62&#45;&gt;Node66</title>
<path fill="none" stroke="midnightblue" d="M1051.09,-402.4C1076.52,-391.4 1112.04,-376.04 1139.58,-364.13"/>
<polygon fill="midnightblue" stroke="midnightblue" points="1141.17,-367.26 1148.96,-360.07 1138.4,-360.83 1141.17,-367.26"/>
</g>
<!-- Node67 -->
<g id="node19" class="node">
<title>Node67</title>
<g id="a_node19"><a xlink:href="experimental_2testing_2convert_8h.html" target="_top" xlink:title=" ">
<polygon fill="white" stroke="black" points="711,-330 711,-360 844,-360 844,-330 711,-330"/>
<text text-anchor="start" x="719" y="-348" font-family="Helvetica,sans-Serif" font-size="10.00">emlabcpp/experimental</text>
<text text-anchor="middle" x="777.5" y="-337" font-family="Helvetica,sans-Serif" font-size="10.00">/testing/convert.h</text>
</a>
</g>
</g>
<!-- Node62&#45;&gt;Node67 -->
<g id="edge25" class="edge">
<title>Node62&#45;&gt;Node67</title>
<path fill="none" stroke="midnightblue" d="M970.6,-402.49C931.71,-391.11 876.74,-375.03 835.39,-362.93"/>
<polygon fill="midnightblue" stroke="midnightblue" points="836.3,-359.56 825.72,-360.11 834.34,-366.27 836.3,-359.56"/>
</g>
<!-- Node68 -->
<g id="node20" class="node">
<title>Node68</title>
<g id="a_node20"><a xlink:href="reactor__interface__adapter_8h.html" target="_top" xlink:title=" ">
<polygon fill="white" stroke="red" points="892.5,-324.5 892.5,-365.5 1032.5,-365.5 1032.5,-324.5 892.5,-324.5"/>
<text text-anchor="start" x="900.5" y="-353.5" font-family="Helvetica,sans-Serif" font-size="10.00">emlabcpp/experimental</text>
<text text-anchor="start" x="900.5" y="-342.5" font-family="Helvetica,sans-Serif" font-size="10.00">/testing/reactor_interface</text>
<text text-anchor="middle" x="962.5" y="-331.5" font-family="Helvetica,sans-Serif" font-size="10.00">_adapter.h</text>
</a>
</g>
</g>
<!-- Node62&#45;&gt;Node68 -->
<g id="edge27" class="edge">
<title>Node62&#45;&gt;Node68</title>
<path fill="none" stroke="midnightblue" d="M1007.17,-402.23C1000.63,-394 992.18,-383.36 984.39,-373.56"/>
<polygon fill="midnightblue" stroke="midnightblue" points="987.02,-371.24 978.06,-365.59 981.54,-375.6 987.02,-371.24"/>
</g>
<!-- Node64&#45;&gt;Node3 -->
<g id="edge20" class="edge">
<title>Node64&#45;&gt;Node3</title>
<path fill="none" stroke="midnightblue" d="M1091.45,-246.28C1100.56,-204.81 1114.76,-108.11 1064.5,-56 1025.67,-15.74 852.38,-10.94 779.24,-10.75"/>
<polygon fill="midnightblue" stroke="midnightblue" points="779.2,-7.25 769.2,-10.76 779.21,-14.25 779.2,-7.25"/>
</g>
<!-- Node64&#45;&gt;Node65 -->
<g id="edge19" class="edge">
<title>Node64&#45;&gt;Node65</title>
<path fill="none" stroke="midnightblue" d="M1112.96,-246.36C1128.42,-234.89 1147.6,-220.65 1161.74,-210.16"/>
<polygon fill="midnightblue" stroke="midnightblue" points="1163.87,-212.94 1169.81,-204.17 1159.7,-207.32 1163.87,-212.94"/>
</g>
<!-- Node66&#45;&gt;Node63 -->
<g id="edge22" class="edge">
<title>Node66&#45;&gt;Node63</title>
<path fill="none" stroke="midnightblue" d="M1199.93,-329.7C1214.85,-318.13 1236.07,-301.68 1252.84,-288.67"/>
<polygon fill="midnightblue" stroke="midnightblue" points="1255.39,-291.12 1261.15,-282.23 1251.1,-285.59 1255.39,-291.12"/>
</g>
<!-- Node66&#45;&gt;Node64 -->
<g id="edge23" class="edge">
<title>Node66&#45;&gt;Node64</title>
<path fill="none" stroke="midnightblue" d="M1163.63,-329.7C1151.11,-319.69 1134.03,-306.02 1119.12,-294.09"/>
<polygon fill="midnightblue" stroke="midnightblue" points="1121.1,-291.19 1111.1,-287.68 1116.72,-296.66 1121.1,-291.19"/>
</g>
<!-- Node66&#45;&gt;Node65 -->
<g id="edge24" class="edge">
<title>Node66&#45;&gt;Node65</title>
<path fill="none" stroke="midnightblue" d="M1181.5,-329.76C1181.5,-302.85 1181.5,-244.54 1181.5,-214.4"/>
<polygon fill="midnightblue" stroke="midnightblue" points="1185,-214.35 1181.5,-204.35 1178,-214.35 1185,-214.35"/>
</g>
<!-- Node67&#45;&gt;Node4 -->
<g id="edge26" class="edge">
<title>Node67&#45;&gt;Node4</title>
<path fill="none" stroke="midnightblue" d="M734.37,-329.94C709.69,-320.55 679.04,-306.51 655.5,-288 630.68,-268.48 609.25,-238.87 596.15,-218.43"/>
<polygon fill="midnightblue" stroke="midnightblue" points="599,-216.39 590.73,-209.76 593.06,-220.09 599,-216.39"/>
</g>
<!-- Node68&#45;&gt;Node3 -->
<g id="edge34" class="edge">
<title>Node68&#45;&gt;Node3</title>
<path fill="none" stroke="midnightblue" d="M972.69,-324.24C997.53,-274.8 1057.4,-147.21 1032.5,-112 973.83,-29.07 841.17,-13.77 779.35,-11.27"/>
<polygon fill="midnightblue" stroke="midnightblue" points="779.12,-7.76 769.02,-10.94 778.9,-14.76 779.12,-7.76"/>
</g>
<!-- Node68&#45;&gt;Node59 -->
<g id="edge33" class="edge">
<title>Node68&#45;&gt;Node59</title>
<path fill="none" stroke="midnightblue" d="M961.23,-324.5C958.56,-283.29 952.36,-187.85 949.72,-147.29"/>
<polygon fill="midnightblue" stroke="midnightblue" points="953.21,-146.94 949.06,-137.19 946.22,-147.39 953.21,-146.94"/>
</g>
<!-- Node94 -->
<g id="node21" class="node">
<title>Node94</title>
<g id="a_node21"><a xlink:href="experimental_2testing_2protocol_8h.html" target="_top" xlink:title=" ">
<polygon fill="white" stroke="red" points="664,-252 664,-282 797,-282 797,-252 664,-252"/>
<text text-anchor="start" x="672" y="-270" font-family="Helvetica,sans-Serif" font-size="10.00">emlabcpp/experimental</text>
<text text-anchor="middle" x="730.5" y="-259" font-family="Helvetica,sans-Serif" font-size="10.00">/testing/protocol.h</text>
</a>
</g>
</g>
<!-- Node68&#45;&gt;Node94 -->
<g id="edge28" class="edge">
<title>Node68&#45;&gt;Node94</title>
<path fill="none" stroke="midnightblue" d="M902.75,-324.43C865.82,-312.33 818.84,-296.94 783.27,-285.29"/>
<polygon fill="midnightblue" stroke="midnightblue" points="784.15,-281.89 773.56,-282.11 781.98,-288.55 784.15,-281.89"/>
</g>
<!-- Node94&#45;&gt;Node4 -->
<g id="edge30" class="edge">
<title>Node94&#45;&gt;Node4</title>
<path fill="none" stroke="midnightblue" d="M700.91,-251.9C678.02,-241 646.13,-225.81 621.22,-213.94"/>
<polygon fill="midnightblue" stroke="midnightblue" points="622.58,-210.71 612.04,-209.57 619.57,-217.03 622.58,-210.71"/>
</g>
<!-- Node94&#45;&gt;Node5 -->
<g id="edge29" class="edge">
<title>Node94&#45;&gt;Node5</title>
<path fill="none" stroke="midnightblue" d="M737,-251.8C748.55,-226.61 772.58,-174.16 785.26,-146.48"/>
<polygon fill="midnightblue" stroke="midnightblue" points="788.53,-147.75 789.51,-137.2 782.17,-144.83 788.53,-147.75"/>
</g>
<!-- Node94&#45;&gt;Node59 -->
<g id="edge31" class="edge">
<title>Node94&#45;&gt;Node59</title>
<path fill="none" stroke="midnightblue" d="M753.01,-251.8C794.98,-225.33 884.71,-168.74 926.38,-142.45"/>
<polygon fill="midnightblue" stroke="midnightblue" points="928.38,-145.33 934.97,-137.03 924.64,-139.41 928.38,-145.33"/>
</g>
<!-- Node94&#45;&gt;Node18 -->
<g id="edge32" class="edge">
<title>Node94&#45;&gt;Node18</title>
<path fill="none" stroke="midnightblue" d="M726.06,-251.8C718.22,-226.73 701.92,-174.62 693.24,-146.85"/>
<polygon fill="midnightblue" stroke="midnightblue" points="696.55,-145.7 690.22,-137.2 689.87,-147.79 696.55,-145.7"/>
</g>
<!-- Node95&#45;&gt;Node4 -->
<g id="edge37" class="edge">
<title>Node95&#45;&gt;Node4</title>
<path fill="none" stroke="midnightblue" d="M440.89,-469.22C464.92,-422.76 541.04,-275.64 570.6,-218.5"/>
<polygon fill="midnightblue" stroke="midnightblue" points="573.76,-220.02 575.24,-209.53 567.54,-216.8 573.76,-220.02"/>
</g>
<!-- Node95&#45;&gt;Node25 -->
<g id="edge40" class="edge">
<title>Node95&#45;&gt;Node25</title>
<path fill="none" stroke="midnightblue" d="M366.96,-478.47C286.44,-468.33 161.5,-437.8 161.5,-346 161.5,-346 161.5,-346 161.5,-193.5 161.5,-147.8 198.84,-104.78 221.85,-82.61"/>
<polygon fill="midnightblue" stroke="midnightblue" points="224.37,-85.05 229.3,-75.67 219.6,-79.92 224.37,-85.05"/>
</g>
<!-- Node95&#45;&gt;Node47 -->
<g id="edge41" class="edge">
<title>Node95&#45;&gt;Node47</title>
<path fill="none" stroke="midnightblue" d="M420.28,-469.4C380.1,-425.45 259.69,-285.38 218.5,-143 214.67,-129.76 209.99,-122.84 218.5,-112 231.73,-95.14 279.19,-83.78 322.59,-76.7"/>
<polygon fill="midnightblue" stroke="midnightblue" points="323.31,-80.13 332.64,-75.12 322.22,-73.21 323.31,-80.13"/>
</g>
<!-- Node95&#45;&gt;Node62 -->
<g id="edge38" class="edge">
<title>Node95&#45;&gt;Node62</title>
<path fill="none" stroke="midnightblue" d="M500.18,-471.14C505.02,-470.37 509.83,-469.65 514.5,-469 665.28,-447.98 842.62,-432.3 941.64,-424.34"/>
<polygon fill="midnightblue" stroke="midnightblue" points="942.17,-427.81 951.86,-423.53 941.61,-420.83 942.17,-427.81"/>
</g>
<!-- Node95&#45;&gt;Node94 -->
<g id="edge39" class="edge">
<title>Node95&#45;&gt;Node94</title>
<path fill="none" stroke="midnightblue" d="M462.78,-469.34C481.51,-459.87 506.03,-446.67 526.5,-433 596.06,-386.55 670.78,-321.85 707.48,-288.98"/>
<polygon fill="midnightblue" stroke="midnightblue" points="710.04,-291.38 715.13,-282.08 705.36,-286.17 710.04,-291.38"/>
</g>
</g>
</svg>
