<?xml version="1.0" encoding="UTF-8" standalone="no"?>
<!DOCTYPE svg PUBLIC "-//W3C//DTD SVG 1.1//EN"
 "http://www.w3.org/Graphics/SVG/1.1/DTD/svg11.dtd">
<!-- Generated by graphviz version 2.43.0 (0)
 -->
<!-- Title: include/emlabcpp/experimental/testing/interface.h Pages: 1 -->
<svg width="1943pt" height="251pt"
 viewBox="0.00 0.00 1943.12 251.00" xmlns="http://www.w3.org/2000/svg" xmlns:xlink="http://www.w3.org/1999/xlink">
<g id="graph0" class="graph" transform="scale(1 1) rotate(0) translate(4 247)">
<title>include/emlabcpp/experimental/testing/interface.h</title>
<polygon fill="white" stroke="transparent" points="-4,4 -4,-247 1939.12,-247 1939.12,4 -4,4"/>
<!-- Node1 -->
<g id="node1" class="node">
<title>Node1</title>
<g id="a_node1"><a xlink:title=" ">
<polygon fill="#bfbfbf" stroke="black" points="1032.12,-212.5 1032.12,-242.5 1203.12,-242.5 1203.12,-212.5 1032.12,-212.5"/>
<text text-anchor="start" x="1040.12" y="-230.5" font-family="Helvetica,sans-Serif" font-size="10.00">include/emlabcpp/experimental</text>
<text text-anchor="middle" x="1117.62" y="-219.5" font-family="Helvetica,sans-Serif" font-size="10.00">/testing/interface.h</text>
</a>
</g>
</g>
<!-- Node2 -->
<g id="node2" class="node">
<title>Node2</title>
<g id="a_node2"><a xlink:href="linked__list_8h.html" target="_top" xlink:title=" ">
<polygon fill="white" stroke="black" points="16.12,-145.5 16.12,-175.5 149.12,-175.5 149.12,-145.5 16.12,-145.5"/>
<text text-anchor="start" x="24.12" y="-163.5" font-family="Helvetica,sans-Serif" font-size="10.00">emlabcpp/experimental</text>
<text text-anchor="middle" x="82.62" y="-152.5" font-family="Helvetica,sans-Serif" font-size="10.00">/linked_list.h</text>
</a>
</g>
</g>
<!-- Node1&#45;&gt;Node2 -->
<g id="edge1" class="edge">
<title>Node1&#45;&gt;Node2</title>
<path fill="none" stroke="midnightblue" d="M1031.93,-222.26C876.53,-214.4 537.88,-196.49 252.62,-176 222.09,-173.81 188.51,-171.02 159.32,-168.48"/>
<polygon fill="midnightblue" stroke="midnightblue" points="159.46,-164.98 149.19,-167.59 158.85,-171.95 159.46,-164.98"/>
</g>
<!-- Node4 -->
<g id="node4" class="node">
<title>Node4</title>
<g id="a_node4"><a xlink:href="experimental_2testing_2base_8h.html" target="_top" xlink:title=" ">
<polygon fill="white" stroke="black" points="908.12,-145.5 908.12,-175.5 1041.12,-175.5 1041.12,-145.5 908.12,-145.5"/>
<text text-anchor="start" x="916.12" y="-163.5" font-family="Helvetica,sans-Serif" font-size="10.00">emlabcpp/experimental</text>
<text text-anchor="middle" x="974.62" y="-152.5" font-family="Helvetica,sans-Serif" font-size="10.00">/testing/base.h</text>
</a>
</g>
</g>
<!-- Node1&#45;&gt;Node4 -->
<g id="edge3" class="edge">
<title>Node1&#45;&gt;Node4</title>
<path fill="none" stroke="midnightblue" d="M1086.59,-212.4C1065.6,-202.86 1037.67,-190.16 1014.96,-179.84"/>
<polygon fill="midnightblue" stroke="midnightblue" points="1016.14,-176.53 1005.58,-175.58 1013.24,-182.9 1016.14,-176.53"/>
</g>
<!-- Node68 -->
<g id="node14" class="node">
<title>Node68</title>
<g id="a_node14"><a xlink:href="coroutine_8h.html" target="_top" xlink:title=" ">
<polygon fill="white" stroke="black" points="262.12,-145.5 262.12,-175.5 395.12,-175.5 395.12,-145.5 262.12,-145.5"/>
<text text-anchor="start" x="270.12" y="-163.5" font-family="Helvetica,sans-Serif" font-size="10.00">emlabcpp/experimental</text>
<text text-anchor="middle" x="328.62" y="-152.5" font-family="Helvetica,sans-Serif" font-size="10.00">/testing/coroutine.h</text>
</a>
</g>
</g>
<!-- Node1&#45;&gt;Node68 -->
<g id="edge15" class="edge">
<title>Node1&#45;&gt;Node68</title>
<path fill="none" stroke="midnightblue" d="M1032.05,-219.45C877.39,-206.71 553.62,-180.04 405.52,-167.84"/>
<polygon fill="midnightblue" stroke="midnightblue" points="405.42,-164.32 395.17,-166.98 404.85,-171.29 405.42,-164.32"/>
</g>
<!-- Node73 -->
<g id="node19" class="node">
<title>Node73</title>
<g id="a_node19"><a xlink:href="packet__handler_8h.html" target="_top" xlink:title=" ">
<polygon fill="white" stroke="black" points="1385.12,-145.5 1385.12,-175.5 1528.12,-175.5 1528.12,-145.5 1385.12,-145.5"/>
<text text-anchor="start" x="1393.12" y="-163.5" font-family="Helvetica,sans-Serif" font-size="10.00">emlabcpp/protocol/packet</text>
<text text-anchor="middle" x="1456.62" y="-152.5" font-family="Helvetica,sans-Serif" font-size="10.00">_handler.h</text>
</a>
</g>
</g>
<!-- Node1&#45;&gt;Node73 -->
<g id="edge24" class="edge">
<title>Node1&#45;&gt;Node73</title>
<path fill="none" stroke="midnightblue" d="M1190.76,-212.48C1245.01,-202.07 1319,-187.89 1375.15,-177.12"/>
<polygon fill="midnightblue" stroke="midnightblue" points="1375.9,-180.54 1385.06,-175.22 1374.58,-173.67 1375.9,-180.54"/>
</g>
<!-- Node55 -->
<g id="node23" class="node">
<title>Node55</title>
<g id="a_node23"><a xlink:href="result_8h.html" target="_top" xlink:title=" ">
<polygon fill="white" stroke="red" points="1190.62,-151 1190.62,-170 1294.62,-170 1294.62,-151 1190.62,-151"/>
<text text-anchor="middle" x="1242.62" y="-158" font-family="Helvetica,sans-Serif" font-size="10.00">emlabcpp/result.h</text>
</a>
</g>
</g>
<!-- Node1&#45;&gt;Node55 -->
<g id="edge29" class="edge">
<title>Node1&#45;&gt;Node55</title>
<path fill="none" stroke="midnightblue" d="M1144.74,-212.4C1166.28,-201.19 1196.19,-185.64 1217.26,-174.69"/>
<polygon fill="midnightblue" stroke="midnightblue" points="1219,-177.73 1226.26,-170.01 1215.77,-171.52 1219,-177.73"/>
</g>
<!-- Node34 -->
<g id="node24" class="node">
<title>Node34</title>
<g id="a_node24"><a xlink:title=" ">
<polygon fill="white" stroke="#bfbfbf" points="1546.62,-151 1546.62,-170 1586.62,-170 1586.62,-151 1546.62,-151"/>
<text text-anchor="middle" x="1566.62" y="-158" font-family="Helvetica,sans-Serif" font-size="10.00">span</text>
</a>
</g>
</g>
<!-- Node1&#45;&gt;Node34 -->
<g id="edge31" class="edge">
<title>Node1&#45;&gt;Node34</title>
<path fill="none" stroke="midnightblue" d="M1203.43,-224.76C1289.57,-221.03 1425.25,-209.73 1537.62,-176 1539.28,-175.5 1540.97,-174.91 1542.65,-174.25"/>
<polygon fill="midnightblue" stroke="midnightblue" points="1544.3,-177.35 1551.97,-170.05 1541.41,-170.97 1544.3,-177.35"/>
</g>
<!-- Node3 -->
<g id="node3" class="node">
<title>Node3</title>
<g id="a_node3"><a xlink:title=" ">
<polygon fill="white" stroke="#bfbfbf" points="60.12,-6 60.12,-25 105.12,-25 105.12,-6 60.12,-6"/>
<text text-anchor="middle" x="82.62" y="-13" font-family="Helvetica,sans-Serif" font-size="10.00">utility</text>
</a>
</g>
</g>
<!-- Node2&#45;&gt;Node3 -->
<g id="edge2" class="edge">
<title>Node2&#45;&gt;Node3</title>
<path fill="none" stroke="midnightblue" d="M47.48,-145.45C32,-137.29 15.37,-125.34 6.62,-109 -2.21,-92.55 -2.21,-83.45 6.62,-67 16,-49.49 34.43,-37.02 50.78,-28.85"/>
<polygon fill="midnightblue" stroke="midnightblue" points="52.49,-31.92 60.09,-24.53 49.55,-25.57 52.49,-31.92"/>
</g>
<!-- Node5 -->
<g id="node5" class="node">
<title>Node5</title>
<g id="a_node5"><a xlink:href="algorithm_8h.html" target="_top" xlink:title=" ">
<polygon fill="white" stroke="red" points="1251.62,-78.5 1251.62,-97.5 1375.62,-97.5 1375.62,-78.5 1251.62,-78.5"/>
<text text-anchor="middle" x="1313.62" y="-85.5" font-family="Helvetica,sans-Serif" font-size="10.00">emlabcpp/algorithm.h</text>
</a>
</g>
</g>
<!-- Node4&#45;&gt;Node5 -->
<g id="edge4" class="edge">
<title>Node4&#45;&gt;Node5</title>
<path fill="none" stroke="midnightblue" d="M1041.32,-148.62C1095.75,-139.33 1174.51,-124.98 1242.62,-109 1253.39,-106.47 1264.97,-103.37 1275.6,-100.38"/>
<polygon fill="midnightblue" stroke="midnightblue" points="1276.79,-103.68 1285.43,-97.56 1274.86,-96.95 1276.79,-103.68"/>
</g>
<!-- Node45 -->
<g id="node6" class="node">
<title>Node45</title>
<g id="a_node6"><a xlink:href="tree_8h.html" target="_top" xlink:title=" ">
<polygon fill="white" stroke="red" points="908.12,-73 908.12,-103 1041.12,-103 1041.12,-73 908.12,-73"/>
<text text-anchor="start" x="916.12" y="-91" font-family="Helvetica,sans-Serif" font-size="10.00">emlabcpp/experimental</text>
<text text-anchor="middle" x="974.62" y="-80" font-family="Helvetica,sans-Serif" font-size="10.00">/contiguous_tree/tree.h</text>
</a>
</g>
</g>
<!-- Node4&#45;&gt;Node45 -->
<g id="edge5" class="edge">
<title>Node4&#45;&gt;Node45</title>
<path fill="none" stroke="midnightblue" d="M974.62,-145.23C974.62,-136.16 974.62,-124.16 974.62,-113.58"/>
<polygon fill="midnightblue" stroke="midnightblue" points="978.12,-113.25 974.62,-103.25 971.12,-113.25 978.12,-113.25"/>
</g>
<!-- Node39 -->
<g id="node8" class="node">
<title>Node39</title>
<g id="a_node8"><a xlink:title=" ">
<polygon fill="white" stroke="#bfbfbf" points="860.62,-6 860.62,-25 898.62,-25 898.62,-6 860.62,-6"/>
<text text-anchor="middle" x="879.62" y="-13" font-family="Helvetica,sans-Serif" font-size="10.00">map</text>
</a>
</g>
</g>
<!-- Node4&#45;&gt;Node39 -->
<g id="edge12" class="edge">
<title>Node4&#45;&gt;Node39</title>
<path fill="none" stroke="midnightblue" d="M942.93,-145.3C927.61,-136.87 910.27,-124.72 899.62,-109 884.59,-86.83 880.59,-55.39 879.67,-35.47"/>
<polygon fill="midnightblue" stroke="midnightblue" points="883.16,-35.15 879.42,-25.24 876.16,-35.32 883.16,-35.15"/>
</g>
<!-- Node63 -->
<g id="node9" class="node">
<title>Node63</title>
<g id="a_node9"><a xlink:href="string__buffer_8h.html" target="_top" xlink:title=" ">
<polygon fill="white" stroke="red" points="395.12,-73 395.12,-103 528.12,-103 528.12,-73 395.12,-73"/>
<text text-anchor="start" x="403.12" y="-91" font-family="Helvetica,sans-Serif" font-size="10.00">emlabcpp/experimental</text>
<text text-anchor="middle" x="461.62" y="-80" font-family="Helvetica,sans-Serif" font-size="10.00">/string_buffer.h</text>
</a>
</g>
</g>
<!-- Node4&#45;&gt;Node63 -->
<g id="edge8" class="edge">
<title>Node4&#45;&gt;Node63</title>
<path fill="none" stroke="midnightblue" d="M907.91,-154.76C821.82,-147.96 667.64,-133.49 537.62,-109 532.17,-107.97 526.54,-106.77 520.92,-105.47"/>
<polygon fill="midnightblue" stroke="midnightblue" points="521.39,-101.99 510.85,-103.05 519.75,-108.79 521.39,-101.99"/>
</g>
<!-- Node64 -->
<g id="node10" class="node">
<title>Node64</title>
<g id="a_node10"><a xlink:title=" ">
<polygon fill="white" stroke="#bfbfbf" points="381.62,-6 381.62,-25 445.62,-25 445.62,-6 381.62,-6"/>
<text text-anchor="middle" x="413.62" y="-13" font-family="Helvetica,sans-Serif" font-size="10.00">algorithm</text>
</a>
</g>
</g>
<!-- Node4&#45;&gt;Node64 -->
<g id="edge11" class="edge">
<title>Node4&#45;&gt;Node64</title>
<path fill="none" stroke="midnightblue" d="M908.04,-158.73C761.51,-156.36 421.3,-146.79 386.62,-109 367.2,-87.85 385.95,-53.49 400.42,-33.13"/>
<polygon fill="midnightblue" stroke="midnightblue" points="403.24,-35.21 406.42,-25.11 397.63,-31.02 403.24,-35.21"/>
</g>
<!-- Node66 -->
<g id="node11" class="node">
<title>Node66</title>
<g id="a_node11"><a xlink:href="static__function_8h.html" target="_top" xlink:title=" ">
<polygon fill="white" stroke="red" points="703.12,-78.5 703.12,-97.5 852.12,-97.5 852.12,-78.5 703.12,-78.5"/>
<text text-anchor="middle" x="777.62" y="-85.5" font-family="Helvetica,sans-Serif" font-size="10.00">emlabcpp/static_function.h</text>
</a>
</g>
</g>
<!-- Node4&#45;&gt;Node66 -->
<g id="edge10" class="edge">
<title>Node4&#45;&gt;Node66</title>
<path fill="none" stroke="midnightblue" d="M935.22,-145.4C898.84,-132.38 845.39,-113.25 811.04,-100.96"/>
<polygon fill="midnightblue" stroke="midnightblue" points="812.06,-97.61 801.46,-97.53 809.7,-104.2 812.06,-97.61"/>
</g>
<!-- Node67 -->
<g id="node12" class="node">
<title>Node67</title>
<g id="a_node12"><a xlink:title=" ">
<polygon fill="white" stroke="#bfbfbf" points="1059.12,-78.5 1059.12,-97.5 1164.12,-97.5 1164.12,-78.5 1059.12,-78.5"/>
<text text-anchor="middle" x="1111.62" y="-85.5" font-family="Helvetica,sans-Serif" font-size="10.00">memory_resource</text>
</a>
</g>
</g>
<!-- Node4&#45;&gt;Node67 -->
<g id="edge13" class="edge">
<title>Node4&#45;&gt;Node67</title>
<path fill="none" stroke="midnightblue" d="M1002.01,-145.4C1026.44,-132.83 1061.95,-114.56 1085.87,-102.25"/>
<polygon fill="midnightblue" stroke="midnightblue" points="1087.74,-105.22 1095.03,-97.53 1084.54,-99 1087.74,-105.22"/>
</g>
<!-- Node18 -->
<g id="node13" class="node">
<title>Node18</title>
<g id="a_node13"><a xlink:title=" ">
<polygon fill="white" stroke="#bfbfbf" points="1182.12,-78.5 1182.12,-97.5 1233.12,-97.5 1233.12,-78.5 1182.12,-78.5"/>
<text text-anchor="middle" x="1207.62" y="-85.5" font-family="Helvetica,sans-Serif" font-size="10.00">variant</text>
</a>
</g>
</g>
<!-- Node4&#45;&gt;Node18 -->
<g id="edge14" class="edge">
<title>Node4&#45;&gt;Node18</title>
<path fill="none" stroke="midnightblue" d="M1041.55,-147.46C1080.89,-139.17 1131.09,-126.49 1173.62,-109 1177.75,-107.3 1181.98,-105.17 1186,-102.93"/>
<polygon fill="midnightblue" stroke="midnightblue" points="1188.01,-105.81 1194.82,-97.69 1184.44,-99.79 1188.01,-105.81"/>
</g>
<!-- Node21 -->
<g id="node7" class="node">
<title>Node21</title>
<g id="a_node7"><a xlink:href="logging_8h.html" target="_top" xlink:title=" ">
<polygon fill="white" stroke="red" points="917.12,-0.5 917.12,-30.5 1050.12,-30.5 1050.12,-0.5 917.12,-0.5"/>
<text text-anchor="start" x="925.12" y="-18.5" font-family="Helvetica,sans-Serif" font-size="10.00">emlabcpp/experimental</text>
<text text-anchor="middle" x="983.62" y="-7.5" font-family="Helvetica,sans-Serif" font-size="10.00">/logging.h</text>
</a>
</g>
</g>
<!-- Node45&#45;&gt;Node21 -->
<g id="edge6" class="edge">
<title>Node45&#45;&gt;Node21</title>
<path fill="none" stroke="midnightblue" d="M976.44,-72.73C977.61,-63.56 979.16,-51.41 980.52,-40.74"/>
<polygon fill="midnightblue" stroke="midnightblue" points="984,-41.11 981.8,-30.75 977.06,-40.22 984,-41.11"/>
</g>
<!-- Node45&#45;&gt;Node39 -->
<g id="edge7" class="edge">
<title>Node45&#45;&gt;Node39</title>
<path fill="none" stroke="midnightblue" d="M955.39,-72.73C939.2,-60.72 916.11,-43.58 899.68,-31.39"/>
<polygon fill="midnightblue" stroke="midnightblue" points="901.44,-28.34 891.33,-25.19 897.27,-33.96 901.44,-28.34"/>
</g>
<!-- Node63&#45;&gt;Node64 -->
<g id="edge9" class="edge">
<title>Node63&#45;&gt;Node64</title>
<path fill="none" stroke="midnightblue" d="M451.9,-72.73C444.22,-61.45 433.46,-45.65 425.31,-33.67"/>
<polygon fill="midnightblue" stroke="midnightblue" points="428.19,-31.69 419.67,-25.39 422.41,-35.63 428.19,-31.69"/>
</g>
<!-- Node69 -->
<g id="node15" class="node">
<title>Node69</title>
<g id="a_node15"><a xlink:href="data__promise_8h.html" target="_top" xlink:title=" ">
<polygon fill="white" stroke="black" points="16.12,-73 16.12,-103 149.12,-103 149.12,-73 16.12,-73"/>
<text text-anchor="start" x="24.12" y="-91" font-family="Helvetica,sans-Serif" font-size="10.00">emlabcpp/experimental</text>
<text text-anchor="middle" x="82.62" y="-80" font-family="Helvetica,sans-Serif" font-size="10.00">/coro/data_promise.h</text>
</a>
</g>
</g>
<!-- Node68&#45;&gt;Node69 -->
<g id="edge16" class="edge">
<title>Node68&#45;&gt;Node69</title>
<path fill="none" stroke="midnightblue" d="M279.72,-145.49C240.03,-134.11 183.92,-118.03 141.71,-105.93"/>
<polygon fill="midnightblue" stroke="midnightblue" points="142.42,-102.5 131.84,-103.11 140.49,-109.23 142.42,-102.5"/>
</g>
<!-- Node70 -->
<g id="node16" class="node">
<title>Node70</title>
<g id="a_node16"><a xlink:href="memory__promise_8h.html" target="_top" xlink:title=" ">
<polygon fill="white" stroke="red" points="546.12,-73 546.12,-103 685.12,-103 685.12,-73 546.12,-73"/>
<text text-anchor="start" x="554.12" y="-91" font-family="Helvetica,sans-Serif" font-size="10.00">emlabcpp/experimental</text>
<text text-anchor="middle" x="615.62" y="-80" font-family="Helvetica,sans-Serif" font-size="10.00">/coro/memory_promise.h</text>
</a>
</g>
</g>
<!-- Node68&#45;&gt;Node70 -->
<g id="edge18" class="edge">
<title>Node68&#45;&gt;Node70</title>
<path fill="none" stroke="midnightblue" d="M387.68,-145.46C429.56,-135.45 487.08,-121.58 537.62,-109 542.01,-107.91 546.54,-106.77 551.1,-105.62"/>
<polygon fill="midnightblue" stroke="midnightblue" points="552.26,-108.93 561.09,-103.08 550.54,-102.15 552.26,-108.93"/>
</g>
<!-- Node71 -->
<g id="node17" class="node">
<title>Node71</title>
<g id="a_node17"><a xlink:href="owning__coroutine__handle_8h.html" target="_top" xlink:title=" ">
<polygon fill="white" stroke="black" points="167.12,-67.5 167.12,-108.5 300.12,-108.5 300.12,-67.5 167.12,-67.5"/>
<text text-anchor="start" x="175.12" y="-96.5" font-family="Helvetica,sans-Serif" font-size="10.00">emlabcpp/experimental</text>
<text text-anchor="start" x="175.12" y="-85.5" font-family="Helvetica,sans-Serif" font-size="10.00">/coro/owning_coroutine</text>
<text text-anchor="middle" x="233.62" y="-74.5" font-family="Helvetica,sans-Serif" font-size="10.00">_handle.h</text>
</a>
</g>
</g>
<!-- Node68&#45;&gt;Node71 -->
<g id="edge20" class="edge">
<title>Node68&#45;&gt;Node71</title>
<path fill="none" stroke="midnightblue" d="M309.39,-145.23C297.63,-136.5 282.23,-125.07 268.38,-114.8"/>
<polygon fill="midnightblue" stroke="midnightblue" points="270.13,-111.74 260.01,-108.59 265.96,-117.36 270.13,-111.74"/>
</g>
<!-- Node72 -->
<g id="node18" class="node">
<title>Node72</title>
<g id="a_node18"><a xlink:title=" ">
<polygon fill="white" stroke="#bfbfbf" points="249.62,-6 249.62,-25 311.62,-25 311.62,-6 249.62,-6"/>
<text text-anchor="middle" x="280.62" y="-13" font-family="Helvetica,sans-Serif" font-size="10.00">coroutine</text>
</a>
</g>
</g>
<!-- Node68&#45;&gt;Node72 -->
<g id="edge23" class="edge">
<title>Node68&#45;&gt;Node72</title>
<path fill="none" stroke="midnightblue" d="M327.12,-145.32C324.86,-126.82 319.72,-93.68 309.62,-67 305.16,-55.23 298.18,-42.96 292.18,-33.47"/>
<polygon fill="midnightblue" stroke="midnightblue" points="295.05,-31.46 286.64,-25.02 289.2,-35.3 295.05,-31.46"/>
</g>
<!-- Node69&#45;&gt;Node3 -->
<g id="edge17" class="edge">
<title>Node69&#45;&gt;Node3</title>
<path fill="none" stroke="midnightblue" d="M82.62,-72.73C82.62,-62 82.62,-47.19 82.62,-35.46"/>
<polygon fill="midnightblue" stroke="midnightblue" points="86.12,-35.39 82.62,-25.39 79.12,-35.39 86.12,-35.39"/>
</g>
<!-- Node70&#45;&gt;Node21 -->
<g id="edge19" class="edge">
<title>Node70&#45;&gt;Node21</title>
<path fill="none" stroke="midnightblue" d="M668.6,-72.96C677.26,-70.85 686.17,-68.78 694.62,-67 785.44,-47.86 811.42,-47.97 906.82,-31.11"/>
<polygon fill="midnightblue" stroke="midnightblue" points="907.67,-34.51 916.9,-29.31 906.44,-27.62 907.67,-34.51"/>
</g>
<!-- Node71&#45;&gt;Node3 -->
<g id="edge22" class="edge">
<title>Node71&#45;&gt;Node3</title>
<path fill="none" stroke="midnightblue" d="M191.55,-67.36C165.59,-55.24 133.02,-40.03 110.29,-29.42"/>
<polygon fill="midnightblue" stroke="midnightblue" points="111.73,-26.23 101.19,-25.17 108.77,-32.58 111.73,-26.23"/>
</g>
<!-- Node71&#45;&gt;Node72 -->
<g id="edge21" class="edge">
<title>Node71&#45;&gt;Node72</title>
<path fill="none" stroke="midnightblue" d="M246.71,-67.36C253.78,-56.76 262.42,-43.79 269.22,-33.6"/>
<polygon fill="midnightblue" stroke="midnightblue" points="272.2,-35.44 274.83,-25.17 266.37,-31.55 272.2,-35.44"/>
</g>
<!-- Node73&#45;&gt;Node21 -->
<g id="edge25" class="edge">
<title>Node73&#45;&gt;Node21</title>
<path fill="none" stroke="midnightblue" d="M1447.59,-145.39C1432.28,-121.91 1401.24,-76.46 1384.62,-67 1330.89,-36.43 1161.16,-24.02 1060.56,-19.25"/>
<polygon fill="midnightblue" stroke="midnightblue" points="1060.59,-15.75 1050.44,-18.79 1060.27,-22.74 1060.59,-15.75"/>
</g>
<!-- Node74 -->
<g id="node20" class="node">
<title>Node74</title>
<g id="a_node20"><a xlink:href="protocol_2handler_8h.html" target="_top" xlink:title=" ">
<polygon fill="white" stroke="red" points="1432.12,-78.5 1432.12,-97.5 1587.12,-97.5 1587.12,-78.5 1432.12,-78.5"/>
<text text-anchor="middle" x="1509.62" y="-85.5" font-family="Helvetica,sans-Serif" font-size="10.00">emlabcpp/protocol/handler.h</text>
</a>
</g>
</g>
<!-- Node73&#45;&gt;Node74 -->
<g id="edge26" class="edge">
<title>Node73&#45;&gt;Node74</title>
<path fill="none" stroke="midnightblue" d="M1467.34,-145.23C1475.83,-133.95 1487.7,-118.15 1496.71,-106.17"/>
<polygon fill="midnightblue" stroke="midnightblue" points="1499.72,-107.99 1502.93,-97.89 1494.12,-103.78 1499.72,-107.99"/>
</g>
<!-- Node87 -->
<g id="node21" class="node">
<title>Node87</title>
<g id="a_node21"><a xlink:href="packet_8h.html" target="_top" xlink:title=" ">
<polygon fill="white" stroke="red" points="1605.62,-78.5 1605.62,-97.5 1757.62,-97.5 1757.62,-78.5 1605.62,-78.5"/>
<text text-anchor="middle" x="1681.62" y="-85.5" font-family="Helvetica,sans-Serif" font-size="10.00">emlabcpp/protocol/packet.h</text>
</a>
</g>
</g>
<!-- Node73&#45;&gt;Node87 -->
<g id="edge27" class="edge">
<title>Node73&#45;&gt;Node87</title>
<path fill="none" stroke="midnightblue" d="M1501.34,-145.49C1543.31,-132.34 1605.34,-112.9 1644.61,-100.6"/>
<polygon fill="midnightblue" stroke="midnightblue" points="1645.82,-103.88 1654.31,-97.55 1643.72,-97.21 1645.82,-103.88"/>
</g>
<!-- Node91 -->
<g id="node22" class="node">
<title>Node91</title>
<g id="a_node22"><a xlink:href="streams_8h.html" target="_top" xlink:title=" ">
<polygon fill="white" stroke="red" points="1776.12,-78.5 1776.12,-97.5 1935.12,-97.5 1935.12,-78.5 1776.12,-78.5"/>
<text text-anchor="middle" x="1855.62" y="-85.5" font-family="Helvetica,sans-Serif" font-size="10.00">emlabcpp/protocol/streams.h</text>
</a>
</g>
</g>
<!-- Node73&#45;&gt;Node91 -->
<g id="edge28" class="edge">
<title>Node73&#45;&gt;Node91</title>
<path fill="none" stroke="midnightblue" d="M1528.15,-146.61C1531.35,-146.06 1534.52,-145.52 1537.62,-145 1639.22,-127.92 1665.41,-128.3 1766.62,-109 1780.89,-106.28 1796.36,-102.94 1810.34,-99.77"/>
<polygon fill="midnightblue" stroke="midnightblue" points="1811.25,-103.16 1820.21,-97.51 1809.68,-96.33 1811.25,-103.16"/>
</g>
<!-- Node55&#45;&gt;Node5 -->
<g id="edge30" class="edge">
<title>Node55&#45;&gt;Node5</title>
<path fill="none" stroke="midnightblue" d="M1251.32,-150.86C1262.82,-139.44 1283.28,-119.12 1297.61,-104.9"/>
<polygon fill="midnightblue" stroke="midnightblue" points="1300.21,-107.25 1304.84,-97.72 1295.28,-102.28 1300.21,-107.25"/>
</g>
</g>
</svg>
