<?xml version="1.0" encoding="UTF-8" standalone="no"?>
<!DOCTYPE svg PUBLIC "-//W3C//DTD SVG 1.1//EN"
 "http://www.w3.org/Graphics/SVG/1.1/DTD/svg11.dtd">
<!-- Generated by graphviz version 2.43.0 (0)
 -->
<!-- Title: include/emlabcpp/experimental/testing/interface.h Pages: 1 -->
<svg width="895pt" height="296pt"
 viewBox="0.00 0.00 895.00 296.00" xmlns="http://www.w3.org/2000/svg" xmlns:xlink="http://www.w3.org/1999/xlink">
<g id="graph0" class="graph" transform="scale(1 1) rotate(0) translate(4 292)">
<title>include/emlabcpp/experimental/testing/interface.h</title>
<polygon fill="white" stroke="transparent" points="-4,4 -4,-292 891,-292 891,4 -4,4"/>
<!-- Node1 -->
<g id="node1" class="node">
<title>Node1</title>
<g id="a_node1"><a xlink:title=" ">
<polygon fill="#bfbfbf" stroke="black" points="385,-257.5 385,-287.5 556,-287.5 556,-257.5 385,-257.5"/>
<text text-anchor="start" x="393" y="-275.5" font-family="Helvetica,sans-Serif" font-size="10.00">include/emlabcpp/experimental</text>
<text text-anchor="middle" x="470.5" y="-264.5" font-family="Helvetica,sans-Serif" font-size="10.00">/testing/interface.h</text>
</a>
</g>
</g>
<!-- Node2 -->
<g id="node2" class="node">
<title>Node2</title>
<g id="a_node2"><a xlink:href="record_8h.html" target="_top" xlink:title=" ">
<polygon fill="white" stroke="black" points="89,-190.5 89,-220.5 222,-220.5 222,-190.5 89,-190.5"/>
<text text-anchor="start" x="97" y="-208.5" font-family="Helvetica,sans-Serif" font-size="10.00">emlabcpp/experimental</text>
<text text-anchor="middle" x="155.5" y="-197.5" font-family="Helvetica,sans-Serif" font-size="10.00">/testing/record.h</text>
</a>
</g>
</g>
<!-- Node1&#45;&gt;Node2 -->
<g id="edge1" class="edge">
<title>Node1&#45;&gt;Node2</title>
<path fill="none" stroke="midnightblue" d="M402.54,-257.48C352.41,-247.13 284.17,-233.05 232.11,-222.31"/>
<polygon fill="midnightblue" stroke="midnightblue" points="232.76,-218.87 222.26,-220.28 231.35,-225.72 232.76,-218.87"/>
</g>
<!-- Node71 -->
<g id="node8" class="node">
<title>Node71</title>
<g id="a_node8"><a xlink:href="packet__handler_8h.html" target="_top" xlink:title=" ">
<polygon fill="white" stroke="black" points="399,-190.5 399,-220.5 542,-220.5 542,-190.5 399,-190.5"/>
<text text-anchor="start" x="407" y="-208.5" font-family="Helvetica,sans-Serif" font-size="10.00">emlabcpp/protocol/packet</text>
<text text-anchor="middle" x="470.5" y="-197.5" font-family="Helvetica,sans-Serif" font-size="10.00">_handler.h</text>
</a>
</g>
</g>
<!-- Node1&#45;&gt;Node71 -->
<g id="edge9" class="edge">
<title>Node1&#45;&gt;Node71</title>
<path fill="none" stroke="midnightblue" d="M470.5,-257.4C470.5,-249.64 470.5,-239.81 470.5,-230.86"/>
<polygon fill="midnightblue" stroke="midnightblue" points="474,-230.58 470.5,-220.58 467,-230.58 474,-230.58"/>
</g>
<!-- Node70 -->
<g id="node12" class="node">
<title>Node70</title>
<g id="a_node12"><a xlink:title=" ">
<polygon fill="white" stroke="#bfbfbf" points="560.5,-196 560.5,-215 600.5,-215 600.5,-196 560.5,-196"/>
<text text-anchor="middle" x="580.5" y="-203" font-family="Helvetica,sans-Serif" font-size="10.00">span</text>
</a>
</g>
</g>
<!-- Node1&#45;&gt;Node70 -->
<g id="edge14" class="edge">
<title>Node1&#45;&gt;Node70</title>
<path fill="none" stroke="midnightblue" d="M494.37,-257.4C513.07,-246.34 538.94,-231.06 557.43,-220.13"/>
<polygon fill="midnightblue" stroke="midnightblue" points="559.27,-223.11 566.1,-215.01 555.71,-217.08 559.27,-223.11"/>
</g>
<!-- Node3 -->
<g id="node3" class="node">
<title>Node3</title>
<g id="a_node3"><a xlink:href="experimental_2testing_2base_8h.html" target="_top" xlink:title=" ">
<polygon fill="white" stroke="red" points="51,-56.5 51,-86.5 184,-86.5 184,-56.5 51,-56.5"/>
<text text-anchor="start" x="59" y="-74.5" font-family="Helvetica,sans-Serif" font-size="10.00">emlabcpp/experimental</text>
<text text-anchor="middle" x="117.5" y="-63.5" font-family="Helvetica,sans-Serif" font-size="10.00">/testing/base.h</text>
</a>
</g>
</g>
<!-- Node2&#45;&gt;Node3 -->
<g id="edge2" class="edge">
<title>Node2&#45;&gt;Node3</title>
<path fill="none" stroke="midnightblue" d="M120.36,-190.45C104.89,-182.29 88.26,-170.34 79.5,-154 68.85,-134.14 82.3,-110.76 96.05,-94.14"/>
<polygon fill="midnightblue" stroke="midnightblue" points="98.73,-96.39 102.72,-86.58 93.48,-91.76 98.73,-96.39"/>
</g>
<!-- Node32 -->
<g id="node4" class="node">
<title>Node32</title>
<g id="a_node4"><a xlink:href="static__vector_8h.html" target="_top" xlink:title=" ">
<polygon fill="white" stroke="red" points="0,-0.5 0,-19.5 139,-19.5 139,-0.5 0,-0.5"/>
<text text-anchor="middle" x="69.5" y="-7.5" font-family="Helvetica,sans-Serif" font-size="10.00">emlabcpp/static_vector.h</text>
</a>
</g>
</g>
<!-- Node2&#45;&gt;Node32 -->
<g id="edge8" class="edge">
<title>Node2&#45;&gt;Node32</title>
<path fill="none" stroke="midnightblue" d="M122.76,-190.3C106.02,-181.74 86.32,-169.48 72.5,-154 50.65,-129.52 48.55,-119.04 41.5,-87 38.54,-73.54 37.71,-69.25 41.5,-56 44.4,-45.84 50.33,-35.75 55.99,-27.7"/>
<polygon fill="midnightblue" stroke="midnightblue" points="58.88,-29.69 62.09,-19.59 53.28,-25.48 58.88,-29.69"/>
</g>
<!-- Node49 -->
<g id="node5" class="node">
<title>Node49</title>
<g id="a_node5"><a xlink:href="experimental_2testing_2protocol_8h.html" target="_top" xlink:title=" ">
<polygon fill="white" stroke="red" points="89,-123.5 89,-153.5 222,-153.5 222,-123.5 89,-123.5"/>
<text text-anchor="start" x="97" y="-141.5" font-family="Helvetica,sans-Serif" font-size="10.00">emlabcpp/experimental</text>
<text text-anchor="middle" x="155.5" y="-130.5" font-family="Helvetica,sans-Serif" font-size="10.00">/testing/protocol.h</text>
</a>
</g>
</g>
<!-- Node2&#45;&gt;Node49 -->
<g id="edge4" class="edge">
<title>Node2&#45;&gt;Node49</title>
<path fill="none" stroke="midnightblue" d="M155.5,-190.4C155.5,-182.64 155.5,-172.81 155.5,-163.86"/>
<polygon fill="midnightblue" stroke="midnightblue" points="159,-163.58 155.5,-153.58 152,-163.58 159,-163.58"/>
</g>
<!-- Node35 -->
<g id="node7" class="node">
<title>Node35</title>
<g id="a_node7"><a xlink:href="match_8h.html" target="_top" xlink:title=" ">
<polygon fill="white" stroke="red" points="240,-129 240,-148 347,-148 347,-129 240,-129"/>
<text text-anchor="middle" x="293.5" y="-136" font-family="Helvetica,sans-Serif" font-size="10.00">emlabcpp/match.h</text>
</a>
</g>
</g>
<!-- Node2&#45;&gt;Node35 -->
<g id="edge7" class="edge">
<title>Node2&#45;&gt;Node35</title>
<path fill="none" stroke="midnightblue" d="M185.44,-190.4C209.44,-179.09 242.84,-163.36 266.13,-152.39"/>
<polygon fill="midnightblue" stroke="midnightblue" points="267.88,-155.43 275.44,-148.01 264.9,-149.1 267.88,-155.43"/>
</g>
<!-- Node3&#45;&gt;Node32 -->
<g id="edge3" class="edge">
<title>Node3&#45;&gt;Node32</title>
<path fill="none" stroke="midnightblue" d="M106.12,-56.4C99.15,-47.75 90.19,-36.64 82.87,-27.58"/>
<polygon fill="midnightblue" stroke="midnightblue" points="85.49,-25.24 76.48,-19.66 80.04,-29.64 85.49,-25.24"/>
</g>
<!-- Node49&#45;&gt;Node3 -->
<g id="edge5" class="edge">
<title>Node49&#45;&gt;Node3</title>
<path fill="none" stroke="midnightblue" d="M147.25,-123.4C142.47,-115.22 136.34,-104.73 130.88,-95.39"/>
<polygon fill="midnightblue" stroke="midnightblue" points="133.8,-93.44 125.73,-86.58 127.75,-96.98 133.8,-93.44"/>
</g>
<!-- Node63 -->
<g id="node6" class="node">
<title>Node63</title>
<g id="a_node6"><a xlink:href="packet_8h.html" target="_top" xlink:title=" ">
<polygon fill="white" stroke="red" points="250.5,-62 250.5,-81 402.5,-81 402.5,-62 250.5,-62"/>
<text text-anchor="middle" x="326.5" y="-69" font-family="Helvetica,sans-Serif" font-size="10.00">emlabcpp/protocol/packet.h</text>
</a>
</g>
</g>
<!-- Node49&#45;&gt;Node63 -->
<g id="edge6" class="edge">
<title>Node49&#45;&gt;Node63</title>
<path fill="none" stroke="midnightblue" d="M192.6,-123.4C223.01,-111.84 265.58,-95.66 294.5,-84.66"/>
<polygon fill="midnightblue" stroke="midnightblue" points="296.02,-87.83 304.12,-81.01 293.53,-81.29 296.02,-87.83"/>
</g>
<!-- Node71&#45;&gt;Node63 -->
<g id="edge12" class="edge">
<title>Node71&#45;&gt;Node63</title>
<path fill="none" stroke="midnightblue" d="M445.59,-190.47C430.09,-181.15 410.19,-168.07 394.5,-154 372.39,-134.17 351.17,-107.01 338.48,-89.61"/>
<polygon fill="midnightblue" stroke="midnightblue" points="341.02,-87.15 332.36,-81.05 335.33,-91.22 341.02,-87.15"/>
</g>
<!-- Node20 -->
<g id="node9" class="node">
<title>Node20</title>
<g id="a_node9"><a xlink:href="logging_8h.html" target="_top" xlink:title=" ">
<polygon fill="white" stroke="black" points="404,-123.5 404,-153.5 537,-153.5 537,-123.5 404,-123.5"/>
<text text-anchor="start" x="412" y="-141.5" font-family="Helvetica,sans-Serif" font-size="10.00">emlabcpp/experimental</text>
<text text-anchor="middle" x="470.5" y="-130.5" font-family="Helvetica,sans-Serif" font-size="10.00">/logging.h</text>
</a>
</g>
</g>
<!-- Node71&#45;&gt;Node20 -->
<g id="edge10" class="edge">
<title>Node71&#45;&gt;Node20</title>
<path fill="none" stroke="midnightblue" d="M470.5,-190.4C470.5,-182.64 470.5,-172.81 470.5,-163.86"/>
<polygon fill="midnightblue" stroke="midnightblue" points="474,-163.58 470.5,-153.58 467,-163.58 474,-163.58"/>
</g>
<!-- Node72 -->
<g id="node10" class="node">
<title>Node72</title>
<g id="a_node10"><a xlink:href="handler_8h.html" target="_top" xlink:title=" ">
<polygon fill="white" stroke="red" points="555,-129 555,-148 710,-148 710,-129 555,-129"/>
<text text-anchor="middle" x="632.5" y="-136" font-family="Helvetica,sans-Serif" font-size="10.00">emlabcpp/protocol/handler.h</text>
</a>
</g>
</g>
<!-- Node71&#45;&gt;Node72 -->
<g id="edge11" class="edge">
<title>Node71&#45;&gt;Node72</title>
<path fill="none" stroke="midnightblue" d="M505.65,-190.4C534.33,-178.89 574.44,-162.8 601.83,-151.81"/>
<polygon fill="midnightblue" stroke="midnightblue" points="603.32,-154.98 611.3,-148.01 600.71,-148.48 603.32,-154.98"/>
</g>
<!-- Node74 -->
<g id="node11" class="node">
<title>Node74</title>
<g id="a_node11"><a xlink:href="streams_8h.html" target="_top" xlink:title=" ">
<polygon fill="white" stroke="red" points="728,-129 728,-148 887,-148 887,-129 728,-129"/>
<text text-anchor="middle" x="807.5" y="-136" font-family="Helvetica,sans-Serif" font-size="10.00">emlabcpp/protocol/streams.h</text>
</a>
</g>
</g>
<!-- Node71&#45;&gt;Node74 -->
<g id="edge13" class="edge">
<title>Node71&#45;&gt;Node74</title>
<path fill="none" stroke="midnightblue" d="M542.38,-190.64C605.48,-178.47 695.87,-161.03 753.12,-149.99"/>
<polygon fill="midnightblue" stroke="midnightblue" points="753.9,-153.4 763.06,-148.07 752.58,-146.53 753.9,-153.4"/>
</g>
</g>
</svg>
