<?xml version="1.0" encoding="UTF-8" standalone="no"?>
<!DOCTYPE svg PUBLIC "-//W3C//DTD SVG 1.1//EN"
 "http://www.w3.org/Graphics/SVG/1.1/DTD/svg11.dtd">
<!-- Generated by graphviz version 2.43.0 (0)
 -->
<!-- Title: include/emlabcpp/experimental/testing/interface.h Pages: 1 -->
<svg width="506pt" height="296pt"
 viewBox="0.00 0.00 506.00 296.00" xmlns="http://www.w3.org/2000/svg" xmlns:xlink="http://www.w3.org/1999/xlink">
<g id="graph0" class="graph" transform="scale(1 1) rotate(0) translate(4 292)">
<title>include/emlabcpp/experimental/testing/interface.h</title>
<polygon fill="white" stroke="transparent" points="-4,4 -4,-292 502,-292 502,4 -4,4"/>
<!-- Node1 -->
<g id="node1" class="node">
<title>Node1</title>
<g id="a_node1"><a xlink:title=" ">
<polygon fill="#bfbfbf" stroke="black" points="226,-257.5 226,-287.5 397,-287.5 397,-257.5 226,-257.5"/>
<text text-anchor="start" x="234" y="-275.5" font-family="Helvetica,sans-Serif" font-size="10.00">include/emlabcpp/experimental</text>
<text text-anchor="middle" x="311.5" y="-264.5" font-family="Helvetica,sans-Serif" font-size="10.00">/testing/interface.h</text>
</a>
</g>
</g>
<!-- Node2 -->
<g id="node2" class="node">
<title>Node2</title>
<g id="a_node2"><a xlink:href="record_8h.html" target="_top" xlink:title=" ">
<polygon fill="white" stroke="black" points="89,-190.5 89,-220.5 222,-220.5 222,-190.5 89,-190.5"/>
<text text-anchor="start" x="97" y="-208.5" font-family="Helvetica,sans-Serif" font-size="10.00">emlabcpp/experimental</text>
<text text-anchor="middle" x="155.5" y="-197.5" font-family="Helvetica,sans-Serif" font-size="10.00">/testing/record.h</text>
</a>
</g>
</g>
<!-- Node1&#45;&gt;Node2 -->
<g id="edge1" class="edge">
<title>Node1&#45;&gt;Node2</title>
<path fill="none" stroke="midnightblue" d="M277.65,-257.4C254.45,-247.73 223.47,-234.82 198.52,-224.43"/>
<polygon fill="midnightblue" stroke="midnightblue" points="199.86,-221.19 189.28,-220.58 197.17,-227.65 199.86,-221.19"/>
</g>
<!-- Node69 -->
<g id="node8" class="node">
<title>Node69</title>
<g id="a_node8"><a xlink:href="packet__handler_8h.html" target="_top" xlink:title=" ">
<polygon fill="white" stroke="red" points="240,-190.5 240,-220.5 383,-220.5 383,-190.5 240,-190.5"/>
<text text-anchor="start" x="248" y="-208.5" font-family="Helvetica,sans-Serif" font-size="10.00">emlabcpp/protocol/packet</text>
<text text-anchor="middle" x="311.5" y="-197.5" font-family="Helvetica,sans-Serif" font-size="10.00">_handler.h</text>
</a>
</g>
</g>
<!-- Node1&#45;&gt;Node69 -->
<g id="edge9" class="edge">
<title>Node1&#45;&gt;Node69</title>
<path fill="none" stroke="midnightblue" d="M311.5,-257.4C311.5,-249.64 311.5,-239.81 311.5,-230.86"/>
<polygon fill="midnightblue" stroke="midnightblue" points="315,-230.58 311.5,-220.58 308,-230.58 315,-230.58"/>
</g>
<!-- Node39 -->
<g id="node9" class="node">
<title>Node39</title>
<g id="a_node9"><a xlink:title=" ">
<polygon fill="white" stroke="#bfbfbf" points="401.5,-196 401.5,-215 441.5,-215 441.5,-196 401.5,-196"/>
<text text-anchor="middle" x="421.5" y="-203" font-family="Helvetica,sans-Serif" font-size="10.00">span</text>
</a>
</g>
</g>
<!-- Node1&#45;&gt;Node39 -->
<g id="edge10" class="edge">
<title>Node1&#45;&gt;Node39</title>
<path fill="none" stroke="midnightblue" d="M335.37,-257.4C354.07,-246.34 379.94,-231.06 398.43,-220.13"/>
<polygon fill="midnightblue" stroke="midnightblue" points="400.27,-223.11 407.1,-215.01 396.71,-217.08 400.27,-223.11"/>
</g>
<!-- Node3 -->
<g id="node3" class="node">
<title>Node3</title>
<g id="a_node3"><a xlink:href="experimental_2testing_2base_8h.html" target="_top" xlink:title=" ">
<polygon fill="white" stroke="red" points="51,-56.5 51,-86.5 184,-86.5 184,-56.5 51,-56.5"/>
<text text-anchor="start" x="59" y="-74.5" font-family="Helvetica,sans-Serif" font-size="10.00">emlabcpp/experimental</text>
<text text-anchor="middle" x="117.5" y="-63.5" font-family="Helvetica,sans-Serif" font-size="10.00">/testing/base.h</text>
</a>
</g>
</g>
<!-- Node2&#45;&gt;Node3 -->
<g id="edge2" class="edge">
<title>Node2&#45;&gt;Node3</title>
<path fill="none" stroke="midnightblue" d="M120.81,-190.34C105.54,-182.15 89.13,-170.21 80.5,-154 70.06,-134.38 82.84,-111.23 96.15,-94.63"/>
<polygon fill="midnightblue" stroke="midnightblue" points="99.19,-96.47 103.04,-86.6 93.87,-91.91 99.19,-96.47"/>
</g>
<!-- Node33 -->
<g id="node4" class="node">
<title>Node33</title>
<g id="a_node4"><a xlink:href="static__vector_8h.html" target="_top" xlink:title=" ">
<polygon fill="white" stroke="red" points="0,-0.5 0,-19.5 139,-19.5 139,-0.5 0,-0.5"/>
<text text-anchor="middle" x="69.5" y="-7.5" font-family="Helvetica,sans-Serif" font-size="10.00">emlabcpp/static_vector.h</text>
</a>
</g>
</g>
<!-- Node2&#45;&gt;Node33 -->
<g id="edge8" class="edge">
<title>Node2&#45;&gt;Node33</title>
<path fill="none" stroke="midnightblue" d="M122.68,-190.37C105.92,-181.83 86.22,-169.56 72.5,-154 42.38,-119.83 30.34,-99.9 42.5,-56 45.29,-45.92 51.01,-35.83 56.47,-27.77"/>
<polygon fill="midnightblue" stroke="midnightblue" points="59.32,-29.79 62.35,-19.64 53.65,-25.69 59.32,-29.79"/>
</g>
<!-- Node51 -->
<g id="node5" class="node">
<title>Node51</title>
<g id="a_node5"><a xlink:href="experimental_2testing_2convert_8h.html" target="_top" xlink:title=" ">
<polygon fill="white" stroke="black" points="89,-123.5 89,-153.5 222,-153.5 222,-123.5 89,-123.5"/>
<text text-anchor="start" x="97" y="-141.5" font-family="Helvetica,sans-Serif" font-size="10.00">emlabcpp/experimental</text>
<text text-anchor="middle" x="155.5" y="-130.5" font-family="Helvetica,sans-Serif" font-size="10.00">/testing/convert.h</text>
</a>
</g>
</g>
<!-- Node2&#45;&gt;Node51 -->
<g id="edge4" class="edge">
<title>Node2&#45;&gt;Node51</title>
<path fill="none" stroke="midnightblue" d="M155.5,-190.4C155.5,-182.64 155.5,-172.81 155.5,-163.86"/>
<polygon fill="midnightblue" stroke="midnightblue" points="159,-163.58 155.5,-153.58 152,-163.58 159,-163.58"/>
</g>
<!-- Node52 -->
<g id="node6" class="node">
<title>Node52</title>
<g id="a_node6"><a xlink:href="experimental_2testing_2protocol_8h.html" target="_top" xlink:title=" ">
<polygon fill="white" stroke="red" points="240,-123.5 240,-153.5 373,-153.5 373,-123.5 240,-123.5"/>
<text text-anchor="start" x="248" y="-141.5" font-family="Helvetica,sans-Serif" font-size="10.00">emlabcpp/experimental</text>
<text text-anchor="middle" x="306.5" y="-130.5" font-family="Helvetica,sans-Serif" font-size="10.00">/testing/protocol.h</text>
</a>
</g>
</g>
<!-- Node2&#45;&gt;Node52 -->
<g id="edge5" class="edge">
<title>Node2&#45;&gt;Node52</title>
<path fill="none" stroke="midnightblue" d="M188.26,-190.4C210.62,-180.77 240.44,-167.94 264.54,-157.56"/>
<polygon fill="midnightblue" stroke="midnightblue" points="266,-160.75 273.8,-153.58 263.23,-154.32 266,-160.75"/>
</g>
<!-- Node37 -->
<g id="node7" class="node">
<title>Node37</title>
<g id="a_node7"><a xlink:href="match_8h.html" target="_top" xlink:title=" ">
<polygon fill="white" stroke="red" points="391,-129 391,-148 498,-148 498,-129 391,-129"/>
<text text-anchor="middle" x="444.5" y="-136" font-family="Helvetica,sans-Serif" font-size="10.00">emlabcpp/match.h</text>
</a>
</g>
</g>
<!-- Node2&#45;&gt;Node37 -->
<g id="edge7" class="edge">
<title>Node2&#45;&gt;Node37</title>
<path fill="none" stroke="midnightblue" d="M219.63,-190.43C265.12,-180.4 327.59,-166.53 382.5,-154 387.62,-152.83 392.98,-151.6 398.31,-150.36"/>
<polygon fill="midnightblue" stroke="midnightblue" points="399.51,-153.68 408.45,-148 397.92,-146.86 399.51,-153.68"/>
</g>
<!-- Node3&#45;&gt;Node33 -->
<g id="edge3" class="edge">
<title>Node3&#45;&gt;Node33</title>
<path fill="none" stroke="midnightblue" d="M106.12,-56.4C99.15,-47.75 90.19,-36.64 82.87,-27.58"/>
<polygon fill="midnightblue" stroke="midnightblue" points="85.49,-25.24 76.48,-19.66 80.04,-29.64 85.49,-25.24"/>
</g>
<!-- Node52&#45;&gt;Node3 -->
<g id="edge6" class="edge">
<title>Node52&#45;&gt;Node3</title>
<path fill="none" stroke="midnightblue" d="M265.49,-123.4C236.88,-113.56 198.53,-100.37 168.03,-89.88"/>
<polygon fill="midnightblue" stroke="midnightblue" points="169.02,-86.52 158.43,-86.58 166.75,-93.14 169.02,-86.52"/>
</g>
</g>
</svg>
