<?xml version="1.0" encoding="UTF-8" standalone="no"?>
<!DOCTYPE svg PUBLIC "-//W3C//DTD SVG 1.1//EN"
 "http://www.w3.org/Graphics/SVG/1.1/DTD/svg11.dtd">
<!-- Generated by graphviz version 2.43.0 (0)
 -->
<!-- Title: include/emlabcpp/experimental/testing/interface.h Pages: 1 -->
<svg width="536pt" height="296pt"
 viewBox="0.00 0.00 536.06 296.00" xmlns="http://www.w3.org/2000/svg" xmlns:xlink="http://www.w3.org/1999/xlink">
<g id="graph0" class="graph" transform="scale(1 1) rotate(0) translate(4 292)">
<title>include/emlabcpp/experimental/testing/interface.h</title>
<polygon fill="white" stroke="transparent" points="-4,4 -4,-292 532.06,-292 532.06,4 -4,4"/>
<!-- Node1 -->
<g id="node1" class="node">
<title>Node1</title>
<g id="a_node1"><a xlink:title=" ">
<polygon fill="#bfbfbf" stroke="black" points="259.06,-257.5 259.06,-287.5 430.06,-287.5 430.06,-257.5 259.06,-257.5"/>
<text text-anchor="start" x="267.06" y="-275.5" font-family="Helvetica,sans-Serif" font-size="10.00">include/emlabcpp/experimental</text>
<text text-anchor="middle" x="344.56" y="-264.5" font-family="Helvetica,sans-Serif" font-size="10.00">/testing/interface.h</text>
</a>
</g>
</g>
<!-- Node2 -->
<g id="node2" class="node">
<title>Node2</title>
<g id="a_node2"><a xlink:href="record_8h.html" target="_top" xlink:title=" ">
<polygon fill="white" stroke="black" points="88.06,-190.5 88.06,-220.5 221.06,-220.5 221.06,-190.5 88.06,-190.5"/>
<text text-anchor="start" x="96.06" y="-208.5" font-family="Helvetica,sans-Serif" font-size="10.00">emlabcpp/experimental</text>
<text text-anchor="middle" x="154.56" y="-197.5" font-family="Helvetica,sans-Serif" font-size="10.00">/testing/record.h</text>
</a>
</g>
</g>
<!-- Node1&#45;&gt;Node2 -->
<g id="edge1" class="edge">
<title>Node1&#45;&gt;Node2</title>
<path fill="none" stroke="midnightblue" d="M303.33,-257.4C274.58,-247.56 236.02,-234.37 205.36,-223.88"/>
<polygon fill="midnightblue" stroke="midnightblue" points="206.3,-220.5 195.71,-220.58 204.04,-227.13 206.3,-220.5"/>
</g>
<!-- Node57 -->
<g id="node8" class="node">
<title>Node57</title>
<g id="a_node8"><a xlink:href="packet__handler_8h.html" target="_top" xlink:title=" ">
<polygon fill="white" stroke="black" points="273.06,-190.5 273.06,-220.5 416.06,-220.5 416.06,-190.5 273.06,-190.5"/>
<text text-anchor="start" x="281.06" y="-208.5" font-family="Helvetica,sans-Serif" font-size="10.00">emlabcpp/protocol/packet</text>
<text text-anchor="middle" x="344.56" y="-197.5" font-family="Helvetica,sans-Serif" font-size="10.00">_handler.h</text>
</a>
</g>
</g>
<!-- Node1&#45;&gt;Node57 -->
<g id="edge9" class="edge">
<title>Node1&#45;&gt;Node57</title>
<path fill="none" stroke="midnightblue" d="M344.56,-257.4C344.56,-249.64 344.56,-239.81 344.56,-230.86"/>
<polygon fill="midnightblue" stroke="midnightblue" points="348.06,-230.58 344.56,-220.58 341.06,-230.58 348.06,-230.58"/>
</g>
<!-- Node54 -->
<g id="node10" class="node">
<title>Node54</title>
<g id="a_node10"><a xlink:title=" ">
<polygon fill="white" stroke="#bfbfbf" points="434.56,-196 434.56,-215 474.56,-215 474.56,-196 434.56,-196"/>
<text text-anchor="middle" x="454.56" y="-203" font-family="Helvetica,sans-Serif" font-size="10.00">span</text>
</a>
</g>
</g>
<!-- Node1&#45;&gt;Node54 -->
<g id="edge12" class="edge">
<title>Node1&#45;&gt;Node54</title>
<path fill="none" stroke="midnightblue" d="M368.43,-257.4C387.13,-246.34 413,-231.06 431.49,-220.13"/>
<polygon fill="midnightblue" stroke="midnightblue" points="433.33,-223.11 440.16,-215.01 429.77,-217.08 433.33,-223.11"/>
</g>
<!-- Node3 -->
<g id="node3" class="node">
<title>Node3</title>
<g id="a_node3"><a xlink:href="experimental_2testing_2base_8h.html" target="_top" xlink:title=" ">
<polygon fill="white" stroke="red" points="88.06,-56.5 88.06,-86.5 221.06,-86.5 221.06,-56.5 88.06,-56.5"/>
<text text-anchor="start" x="96.06" y="-74.5" font-family="Helvetica,sans-Serif" font-size="10.00">emlabcpp/experimental</text>
<text text-anchor="middle" x="154.56" y="-63.5" font-family="Helvetica,sans-Serif" font-size="10.00">/testing/base.h</text>
</a>
</g>
</g>
<!-- Node2&#45;&gt;Node3 -->
<g id="edge2" class="edge">
<title>Node2&#45;&gt;Node3</title>
<path fill="none" stroke="midnightblue" d="M154.56,-190.37C154.56,-168.04 154.56,-124.31 154.56,-96.85"/>
<polygon fill="midnightblue" stroke="midnightblue" points="158.06,-96.52 154.56,-86.52 151.06,-96.52 158.06,-96.52"/>
</g>
<!-- Node4 -->
<g id="node4" class="node">
<title>Node4</title>
<g id="a_node4"><a xlink:href="static__vector_8h.html" target="_top" xlink:title=" ">
<polygon fill="white" stroke="red" points="3.06,-0.5 3.06,-19.5 142.06,-19.5 142.06,-0.5 3.06,-0.5"/>
<text text-anchor="middle" x="72.56" y="-7.5" font-family="Helvetica,sans-Serif" font-size="10.00">emlabcpp/static_vector.h</text>
</a>
</g>
</g>
<!-- Node2&#45;&gt;Node4 -->
<g id="edge8" class="edge">
<title>Node2&#45;&gt;Node4</title>
<path fill="none" stroke="midnightblue" d="M87.97,-198.32C58.92,-191.94 27.47,-179.21 9.56,-154 -20.05,-112.34 28.05,-54.55 55.51,-26.93"/>
<polygon fill="midnightblue" stroke="midnightblue" points="58.23,-29.17 62.94,-19.68 53.34,-24.16 58.23,-29.17"/>
</g>
<!-- Node24 -->
<g id="node5" class="node">
<title>Node24</title>
<g id="a_node5"><a xlink:href="experimental_2testing_2protocol_8h.html" target="_top" xlink:title=" ">
<polygon fill="white" stroke="red" points="183.06,-123.5 183.06,-153.5 316.06,-153.5 316.06,-123.5 183.06,-123.5"/>
<text text-anchor="start" x="191.06" y="-141.5" font-family="Helvetica,sans-Serif" font-size="10.00">emlabcpp/experimental</text>
<text text-anchor="middle" x="249.56" y="-130.5" font-family="Helvetica,sans-Serif" font-size="10.00">/testing/protocol.h</text>
</a>
</g>
</g>
<!-- Node2&#45;&gt;Node24 -->
<g id="edge4" class="edge">
<title>Node2&#45;&gt;Node24</title>
<path fill="none" stroke="midnightblue" d="M175.17,-190.4C188.49,-181.28 206.02,-169.29 220.72,-159.24"/>
<polygon fill="midnightblue" stroke="midnightblue" points="222.71,-162.11 228.99,-153.58 218.76,-156.33 222.71,-162.11"/>
</g>
<!-- Node55 -->
<g id="node7" class="node">
<title>Node55</title>
<g id="a_node7"><a xlink:href="match_8h.html" target="_top" xlink:title=" ">
<polygon fill="white" stroke="red" points="19.06,-129 19.06,-148 126.06,-148 126.06,-129 19.06,-129"/>
<text text-anchor="middle" x="72.56" y="-136" font-family="Helvetica,sans-Serif" font-size="10.00">emlabcpp/match.h</text>
</a>
</g>
</g>
<!-- Node2&#45;&gt;Node55 -->
<g id="edge7" class="edge">
<title>Node2&#45;&gt;Node55</title>
<path fill="none" stroke="midnightblue" d="M136.77,-190.4C123.48,-179.86 105.33,-165.48 91.72,-154.69"/>
<polygon fill="midnightblue" stroke="midnightblue" points="93.54,-151.66 83.53,-148.19 89.19,-157.15 93.54,-151.66"/>
</g>
<!-- Node3&#45;&gt;Node4 -->
<g id="edge3" class="edge">
<title>Node3&#45;&gt;Node4</title>
<path fill="none" stroke="midnightblue" d="M135.13,-56.4C122.35,-47.13 105.67,-35.03 92.75,-25.65"/>
<polygon fill="midnightblue" stroke="midnightblue" points="94.64,-22.7 84.49,-19.66 90.53,-28.36 94.64,-22.7"/>
</g>
<!-- Node24&#45;&gt;Node3 -->
<g id="edge5" class="edge">
<title>Node24&#45;&gt;Node3</title>
<path fill="none" stroke="midnightblue" d="M228.95,-123.4C215.63,-114.28 198.1,-102.29 183.41,-92.24"/>
<polygon fill="midnightblue" stroke="midnightblue" points="185.36,-89.33 175.13,-86.58 181.41,-95.11 185.36,-89.33"/>
</g>
<!-- Node47 -->
<g id="node6" class="node">
<title>Node47</title>
<g id="a_node6"><a xlink:href="packet_8h.html" target="_top" xlink:title=" ">
<polygon fill="white" stroke="red" points="253.56,-62 253.56,-81 405.56,-81 405.56,-62 253.56,-62"/>
<text text-anchor="middle" x="329.56" y="-69" font-family="Helvetica,sans-Serif" font-size="10.00">emlabcpp/protocol/packet.h</text>
</a>
</g>
</g>
<!-- Node24&#45;&gt;Node47 -->
<g id="edge6" class="edge">
<title>Node24&#45;&gt;Node47</title>
<path fill="none" stroke="midnightblue" d="M266.92,-123.4C279.89,-112.86 297.59,-98.48 310.87,-87.69"/>
<polygon fill="midnightblue" stroke="midnightblue" points="313.31,-90.22 318.86,-81.19 308.89,-84.78 313.31,-90.22"/>
</g>
<!-- Node57&#45;&gt;Node47 -->
<g id="edge11" class="edge">
<title>Node57&#45;&gt;Node47</title>
<path fill="none" stroke="midnightblue" d="M342.95,-190.37C340.23,-166.4 334.7,-117.75 331.67,-91.06"/>
<polygon fill="midnightblue" stroke="midnightblue" points="335.14,-90.64 330.54,-81.1 328.19,-91.43 335.14,-90.64"/>
</g>
<!-- Node58 -->
<g id="node9" class="node">
<title>Node58</title>
<g id="a_node9"><a xlink:href="handler_8h.html" target="_top" xlink:title=" ">
<polygon fill="white" stroke="red" points="373.06,-129 373.06,-148 528.06,-148 528.06,-129 373.06,-129"/>
<text text-anchor="middle" x="450.56" y="-136" font-family="Helvetica,sans-Serif" font-size="10.00">emlabcpp/protocol/handler.h</text>
</a>
</g>
</g>
<!-- Node57&#45;&gt;Node58 -->
<g id="edge10" class="edge">
<title>Node57&#45;&gt;Node58</title>
<path fill="none" stroke="midnightblue" d="M367.56,-190.4C385.5,-179.39 410.28,-164.2 428.09,-153.28"/>
<polygon fill="midnightblue" stroke="midnightblue" points="429.99,-156.22 436.69,-148.01 426.33,-150.25 429.99,-156.22"/>
</g>
</g>
</svg>
