<?xml version="1.0" encoding="UTF-8" standalone="no"?>
<!DOCTYPE svg PUBLIC "-//W3C//DTD SVG 1.1//EN"
 "http://www.w3.org/Graphics/SVG/1.1/DTD/svg11.dtd">
<!-- Generated by graphviz version 2.43.0 (0)
 -->
<!-- Title: include/emlabcpp/iterator.h Pages: 1 -->
<svg width="182pt" height="140pt"
 viewBox="0.00 0.00 182.00 140.00" xmlns="http://www.w3.org/2000/svg" xmlns:xlink="http://www.w3.org/1999/xlink">
<g id="graph0" class="graph" transform="scale(1 1) rotate(0) translate(4 136)">
<title>include/emlabcpp/iterator.h</title>
<polygon fill="white" stroke="transparent" points="-4,4 -4,-136 178,-136 178,4 -4,4"/>
<!-- Node1 -->
<g id="node1" class="node">
<title>Node1</title>
<g id="a_node1"><a xlink:title=" ">
<polygon fill="#bfbfbf" stroke="black" points="24,-112.5 24,-131.5 174,-131.5 174,-112.5 24,-112.5"/>
<text text-anchor="middle" x="99" y="-119.5" font-family="Helvetica,sans-Serif" font-size="10.00">include/emlabcpp/iterator.h</text>
</a>
</g>
</g>
<!-- Node2 -->
<g id="node2" class="node">
<title>Node2</title>
<g id="a_node2"><a xlink:href="view_8h.html" target="_top" xlink:title=" ">
<polygon fill="white" stroke="black" points="2.5,-56.5 2.5,-75.5 101.5,-75.5 101.5,-56.5 2.5,-56.5"/>
<text text-anchor="middle" x="52" y="-63.5" font-family="Helvetica,sans-Serif" font-size="10.00">emlabcpp/view.h</text>
</a>
</g>
</g>
<!-- Node1&#45;&gt;Node2 -->
<g id="edge1" class="edge">
<title>Node1&#45;&gt;Node2</title>
<path fill="none" stroke="midnightblue" d="M91.24,-112.08C84.46,-104.3 74.46,-92.8 66.24,-83.37"/>
<polygon fill="midnightblue" stroke="midnightblue" points="68.82,-81 59.62,-75.75 63.54,-85.59 68.82,-81"/>
</g>
<!-- Node13 -->
<g id="node4" class="node">
<title>Node13</title>
<g id="a_node4"><a xlink:title=" ">
<polygon fill="white" stroke="#bfbfbf" points="119.5,-56.5 119.5,-75.5 172.5,-75.5 172.5,-56.5 119.5,-56.5"/>
<text text-anchor="middle" x="146" y="-63.5" font-family="Helvetica,sans-Serif" font-size="10.00">iterator</text>
</a>
</g>
</g>
<!-- Node1&#45;&gt;Node13 -->
<g id="edge3" class="edge">
<title>Node1&#45;&gt;Node13</title>
<path fill="none" stroke="midnightblue" d="M106.76,-112.08C113.54,-104.3 123.54,-92.8 131.76,-83.37"/>
<polygon fill="midnightblue" stroke="midnightblue" points="134.46,-85.59 138.38,-75.75 129.18,-81 134.46,-85.59"/>
</g>
<!-- Node3 -->
<g id="node3" class="node">
<title>Node3</title>
<g id="a_node3"><a xlink:href="types_8h.html" target="_top" xlink:title=" ">
<polygon fill="white" stroke="red" points="0,-0.5 0,-19.5 104,-19.5 104,-0.5 0,-0.5"/>
<text text-anchor="middle" x="52" y="-7.5" font-family="Helvetica,sans-Serif" font-size="10.00">emlabcpp/types.h</text>
</a>
</g>
</g>
<!-- Node2&#45;&gt;Node3 -->
<g id="edge2" class="edge">
<title>Node2&#45;&gt;Node3</title>
<path fill="none" stroke="midnightblue" d="M52,-56.08C52,-49.01 52,-38.86 52,-29.99"/>
<polygon fill="midnightblue" stroke="midnightblue" points="55.5,-29.75 52,-19.75 48.5,-29.75 55.5,-29.75"/>
</g>
</g>
</svg>
