<?xml version="1.0" encoding="UTF-8" standalone="no"?>
<!DOCTYPE svg PUBLIC "-//W3C//DTD SVG 1.1//EN"
 "http://www.w3.org/Graphics/SVG/1.1/DTD/svg11.dtd">
<!-- Generated by graphviz version 2.43.0 (0)
 -->
<!-- Title: include/emlabcpp/experimental/geom/line.h Pages: 1 -->
<svg width="255pt" height="296pt"
 viewBox="0.00 0.00 255.00 296.00" xmlns="http://www.w3.org/2000/svg" xmlns:xlink="http://www.w3.org/1999/xlink">
<g id="graph0" class="graph" transform="scale(1 1) rotate(0) translate(4 292)">
<title>include/emlabcpp/experimental/geom/line.h</title>
<polygon fill="white" stroke="transparent" points="-4,4 -4,-292 251,-292 251,4 -4,4"/>
<!-- Node1 -->
<g id="node1" class="node">
<title>Node1</title>
<g id="a_node1"><a xlink:title=" ">
<polygon fill="#bfbfbf" stroke="black" points="76,-257.5 76,-287.5 247,-287.5 247,-257.5 76,-257.5"/>
<text text-anchor="start" x="84" y="-275.5" font-family="Helvetica,sans-Serif" font-size="10.00">include/emlabcpp/experimental</text>
<text text-anchor="middle" x="161.5" y="-264.5" font-family="Helvetica,sans-Serif" font-size="10.00">/geom/line.h</text>
</a>
</g>
</g>
<!-- Node2 -->
<g id="node2" class="node">
<title>Node2</title>
<g id="a_node2"><a xlink:href="point_8h.html" target="_top" xlink:title=" ">
<polygon fill="white" stroke="black" points="0,-190.5 0,-220.5 133,-220.5 133,-190.5 0,-190.5"/>
<text text-anchor="start" x="8" y="-208.5" font-family="Helvetica,sans-Serif" font-size="10.00">emlabcpp/experimental</text>
<text text-anchor="middle" x="66.5" y="-197.5" font-family="Helvetica,sans-Serif" font-size="10.00">/geom/point.h</text>
</a>
</g>
</g>
<!-- Node1&#45;&gt;Node2 -->
<g id="edge1" class="edge">
<title>Node1&#45;&gt;Node2</title>
<path fill="none" stroke="midnightblue" d="M140.89,-257.4C127.57,-248.28 110.04,-236.29 95.34,-226.24"/>
<polygon fill="midnightblue" stroke="midnightblue" points="97.3,-223.33 87.07,-220.58 93.35,-229.11 97.3,-223.33"/>
</g>
<!-- Node48 -->
<g id="node5" class="node">
<title>Node48</title>
<g id="a_node5"><a xlink:href="vector_8h.html" target="_top" xlink:title=" ">
<polygon fill="white" stroke="black" points="95,-123.5 95,-153.5 228,-153.5 228,-123.5 95,-123.5"/>
<text text-anchor="start" x="103" y="-141.5" font-family="Helvetica,sans-Serif" font-size="10.00">emlabcpp/experimental</text>
<text text-anchor="middle" x="161.5" y="-130.5" font-family="Helvetica,sans-Serif" font-size="10.00">/geom/vector.h</text>
</a>
</g>
</g>
<!-- Node1&#45;&gt;Node48 -->
<g id="edge7" class="edge">
<title>Node1&#45;&gt;Node48</title>
<path fill="none" stroke="midnightblue" d="M161.5,-257.37C161.5,-235.04 161.5,-191.31 161.5,-163.85"/>
<polygon fill="midnightblue" stroke="midnightblue" points="165,-163.52 161.5,-153.52 158,-163.52 165,-163.52"/>
</g>
<!-- Node9 -->
<g id="node6" class="node">
<title>Node9</title>
<g id="a_node6"><a xlink:title=" ">
<polygon fill="white" stroke="#bfbfbf" points="189.5,-196 189.5,-215 231.5,-215 231.5,-196 189.5,-196"/>
<text text-anchor="middle" x="210.5" y="-203" font-family="Helvetica,sans-Serif" font-size="10.00">array</text>
</a>
</g>
</g>
<!-- Node1&#45;&gt;Node9 -->
<g id="edge8" class="edge">
<title>Node1&#45;&gt;Node9</title>
<path fill="none" stroke="midnightblue" d="M172.13,-257.4C179.7,-247.36 189.89,-233.84 197.87,-223.25"/>
<polygon fill="midnightblue" stroke="midnightblue" points="200.72,-225.29 203.95,-215.19 195.13,-221.07 200.72,-225.29"/>
</g>
<!-- Node3 -->
<g id="node3" class="node">
<title>Node3</title>
<g id="a_node3"><a xlink:href="vec__point__base_8h.html" target="_top" xlink:title=" ">
<polygon fill="white" stroke="red" points="57,-56.5 57,-86.5 192,-86.5 192,-56.5 57,-56.5"/>
<text text-anchor="start" x="65" y="-74.5" font-family="Helvetica,sans-Serif" font-size="10.00">emlabcpp/experimental</text>
<text text-anchor="middle" x="124.5" y="-63.5" font-family="Helvetica,sans-Serif" font-size="10.00">/geom/vec_point_base.h</text>
</a>
</g>
</g>
<!-- Node2&#45;&gt;Node3 -->
<g id="edge2" class="edge">
<title>Node2&#45;&gt;Node3</title>
<path fill="none" stroke="midnightblue" d="M67.94,-190.34C70.06,-173.59 74.97,-145.18 85.5,-123 90.28,-112.94 97.31,-103 104.1,-94.63"/>
<polygon fill="midnightblue" stroke="midnightblue" points="106.91,-96.73 110.71,-86.84 101.57,-92.2 106.91,-96.73"/>
</g>
<!-- Node29 -->
<g id="node4" class="node">
<title>Node29</title>
<g id="a_node4"><a xlink:href="range_8h.html" target="_top" xlink:title=" ">
<polygon fill="white" stroke="red" points="24.5,-0.5 24.5,-19.5 128.5,-19.5 128.5,-0.5 24.5,-0.5"/>
<text text-anchor="middle" x="76.5" y="-7.5" font-family="Helvetica,sans-Serif" font-size="10.00">emlabcpp/range.h</text>
</a>
</g>
</g>
<!-- Node2&#45;&gt;Node29 -->
<g id="edge6" class="edge">
<title>Node2&#45;&gt;Node29</title>
<path fill="none" stroke="midnightblue" d="M60.89,-190.27C51.14,-163.47 33.41,-103.87 47.5,-56 50.51,-45.76 56.65,-35.66 62.51,-27.63"/>
<polygon fill="midnightblue" stroke="midnightblue" points="65.43,-29.58 68.83,-19.54 59.91,-25.27 65.43,-29.58"/>
</g>
<!-- Node2&#45;&gt;Node48 -->
<g id="edge4" class="edge">
<title>Node2&#45;&gt;Node48</title>
<path fill="none" stroke="midnightblue" d="M87.11,-190.4C100.43,-181.28 117.96,-169.29 132.66,-159.24"/>
<polygon fill="midnightblue" stroke="midnightblue" points="134.65,-162.11 140.93,-153.58 130.7,-156.33 134.65,-162.11"/>
</g>
<!-- Node3&#45;&gt;Node29 -->
<g id="edge3" class="edge">
<title>Node3&#45;&gt;Node29</title>
<path fill="none" stroke="midnightblue" d="M113.12,-56.4C106.15,-47.75 97.19,-36.64 89.87,-27.58"/>
<polygon fill="midnightblue" stroke="midnightblue" points="92.49,-25.24 83.48,-19.66 87.04,-29.64 92.49,-25.24"/>
</g>
<!-- Node48&#45;&gt;Node3 -->
<g id="edge5" class="edge">
<title>Node48&#45;&gt;Node3</title>
<path fill="none" stroke="midnightblue" d="M153.47,-123.4C148.82,-115.22 142.84,-104.73 137.53,-95.39"/>
<polygon fill="midnightblue" stroke="midnightblue" points="140.5,-93.54 132.51,-86.58 134.42,-97 140.5,-93.54"/>
</g>
</g>
</svg>
