<?xml version="1.0" encoding="UTF-8" standalone="no"?>
<!DOCTYPE svg PUBLIC "-//W3C//DTD SVG 1.1//EN"
 "http://www.w3.org/Graphics/SVG/1.1/DTD/svg11.dtd">
<!-- Generated by graphviz version 2.43.0 (0)
 -->
<!-- Title: include/emlabcpp/experimental/logging.h Pages: 1 -->
<svg width="1509pt" height="341pt"
 viewBox="0.00 0.00 1508.50 341.00" xmlns="http://www.w3.org/2000/svg" xmlns:xlink="http://www.w3.org/1999/xlink">
<g id="graph0" class="graph" transform="scale(1 1) rotate(0) translate(4 337)">
<title>include/emlabcpp/experimental/logging.h</title>
<polygon fill="white" stroke="transparent" points="-4,4 -4,-337 1504.5,-337 1504.5,4 -4,4"/>
<!-- Node1 -->
<g id="node1" class="node">
<title>Node1</title>
<g id="a_node1"><a xlink:title=" ">
<polygon fill="#bfbfbf" stroke="black" points="1204.5,-302.5 1204.5,-332.5 1375.5,-332.5 1375.5,-302.5 1204.5,-302.5"/>
<text text-anchor="start" x="1212.5" y="-320.5" font-family="Helvetica,sans-Serif" font-size="10.00">include/emlabcpp/experimental</text>
<text text-anchor="middle" x="1290" y="-309.5" font-family="Helvetica,sans-Serif" font-size="10.00">/logging.h</text>
</a>
</g>
</g>
<!-- Node2 -->
<g id="node2" class="node">
<title>Node2</title>
<g id="a_node2"><a xlink:href="pretty__printer_8h.html" target="_top" xlink:title=" ">
<polygon fill="white" stroke="black" points="653.5,-235.5 653.5,-265.5 786.5,-265.5 786.5,-235.5 653.5,-235.5"/>
<text text-anchor="start" x="661.5" y="-253.5" font-family="Helvetica,sans-Serif" font-size="10.00">emlabcpp/experimental</text>
<text text-anchor="middle" x="720" y="-242.5" font-family="Helvetica,sans-Serif" font-size="10.00">/pretty_printer.h</text>
</a>
</g>
</g>
<!-- Node1&#45;&gt;Node2 -->
<g id="edge1" class="edge">
<title>Node1&#45;&gt;Node2</title>
<path fill="none" stroke="midnightblue" d="M1204.36,-306.73C1093.71,-294.12 902.75,-272.34 796.67,-260.24"/>
<polygon fill="midnightblue" stroke="midnightblue" points="797,-256.76 786.67,-259.1 796.21,-263.71 797,-256.76"/>
</g>
<!-- Node13 -->
<g id="node4" class="node">
<title>Node13</title>
<g id="a_node4"><a xlink:title=" ">
<polygon fill="white" stroke="#bfbfbf" points="1073.5,-0.5 1073.5,-19.5 1124.5,-19.5 1124.5,-0.5 1073.5,-0.5"/>
<text text-anchor="middle" x="1099" y="-7.5" font-family="Helvetica,sans-Serif" font-size="10.00">variant</text>
</a>
</g>
</g>
<!-- Node1&#45;&gt;Node13 -->
<g id="edge26" class="edge">
<title>Node1&#45;&gt;Node13</title>
<path fill="none" stroke="midnightblue" d="M1285.17,-302.43C1277.41,-278.51 1263,-228.24 1263,-184.5 1263,-184.5 1263,-184.5 1263,-121 1263,-59.55 1182.6,-30.22 1134.38,-18.16"/>
<polygon fill="midnightblue" stroke="midnightblue" points="1135.16,-14.75 1124.62,-15.85 1133.55,-21.56 1135.16,-14.75"/>
</g>
<!-- Node16 -->
<g id="node8" class="node">
<title>Node16</title>
<g id="a_node8"><a xlink:href="match_8h.html" target="_top" xlink:title=" ">
<polygon fill="white" stroke="red" points="1127.5,-174 1127.5,-193 1234.5,-193 1234.5,-174 1127.5,-174"/>
<text text-anchor="middle" x="1181" y="-181" font-family="Helvetica,sans-Serif" font-size="10.00">emlabcpp/match.h</text>
</a>
</g>
</g>
<!-- Node1&#45;&gt;Node16 -->
<g id="edge23" class="edge">
<title>Node1&#45;&gt;Node16</title>
<path fill="none" stroke="midnightblue" d="M1278.34,-302.37C1258.01,-277.76 1216.2,-227.12 1194.59,-200.96"/>
<polygon fill="midnightblue" stroke="midnightblue" points="1197.17,-198.58 1188.1,-193.1 1191.77,-203.04 1197.17,-198.58"/>
</g>
<!-- Node29 -->
<g id="node19" class="node">
<title>Node29</title>
<g id="a_node19"><a xlink:title=" ">
<polygon fill="white" stroke="#bfbfbf" points="1291.5,-241 1291.5,-260 1344.5,-260 1344.5,-241 1291.5,-241"/>
<text text-anchor="middle" x="1318" y="-248" font-family="Helvetica,sans-Serif" font-size="10.00">cstddef</text>
</a>
</g>
</g>
<!-- Node1&#45;&gt;Node29 -->
<g id="edge24" class="edge">
<title>Node1&#45;&gt;Node29</title>
<path fill="none" stroke="midnightblue" d="M1296.08,-302.4C1300.23,-292.76 1305.76,-279.91 1310.23,-269.54"/>
<polygon fill="midnightblue" stroke="midnightblue" points="1313.51,-270.76 1314.25,-260.19 1307.08,-267.99 1313.51,-270.76"/>
</g>
<!-- Node30 -->
<g id="node20" class="node">
<title>Node30</title>
<g id="a_node20"><a xlink:title=" ">
<polygon fill="white" stroke="#bfbfbf" points="1362.5,-241 1362.5,-260 1435.5,-260 1435.5,-241 1362.5,-241"/>
<text text-anchor="middle" x="1399" y="-248" font-family="Helvetica,sans-Serif" font-size="10.00">string_view</text>
</a>
</g>
</g>
<!-- Node1&#45;&gt;Node30 -->
<g id="edge25" class="edge">
<title>Node1&#45;&gt;Node30</title>
<path fill="none" stroke="midnightblue" d="M1313.65,-302.4C1332.18,-291.34 1357.81,-276.06 1376.14,-265.13"/>
<polygon fill="midnightblue" stroke="midnightblue" points="1377.94,-268.13 1384.73,-260.01 1374.35,-262.12 1377.94,-268.13"/>
</g>
<!-- Node10 -->
<g id="node21" class="node">
<title>Node10</title>
<g id="a_node21"><a xlink:title=" ">
<polygon fill="white" stroke="#bfbfbf" points="1453.5,-241 1453.5,-260 1500.5,-260 1500.5,-241 1453.5,-241"/>
<text text-anchor="middle" x="1477" y="-248" font-family="Helvetica,sans-Serif" font-size="10.00">vector</text>
</a>
</g>
</g>
<!-- Node1&#45;&gt;Node10 -->
<g id="edge27" class="edge">
<title>Node1&#45;&gt;Node10</title>
<path fill="none" stroke="midnightblue" d="M1337.62,-302.48C1368.53,-293.01 1409.51,-279.77 1445,-266 1446.42,-265.45 1447.87,-264.87 1449.33,-264.26"/>
<polygon fill="midnightblue" stroke="midnightblue" points="1451.09,-267.32 1458.87,-260.13 1448.3,-260.89 1451.09,-267.32"/>
</g>
<!-- Node3 -->
<g id="node3" class="node">
<title>Node3</title>
<g id="a_node3"><a xlink:href="concepts_8h.html" target="_top" xlink:title=" ">
<polygon fill="white" stroke="red" points="646,-56.5 646,-75.5 766,-75.5 766,-56.5 646,-56.5"/>
<text text-anchor="middle" x="706" y="-63.5" font-family="Helvetica,sans-Serif" font-size="10.00">emlabcpp/concepts.h</text>
</a>
</g>
</g>
<!-- Node2&#45;&gt;Node3 -->
<g id="edge2" class="edge">
<title>Node2&#45;&gt;Node3</title>
<path fill="none" stroke="midnightblue" d="M786.8,-248.79C871.09,-246.31 1008.97,-236.47 1041,-199 1118.27,-108.63 895.78,-79.68 776.32,-70.77"/>
<polygon fill="midnightblue" stroke="midnightblue" points="776.37,-67.26 766.15,-70.04 775.87,-74.24 776.37,-67.26"/>
</g>
<!-- Node2&#45;&gt;Node13 -->
<g id="edge22" class="edge">
<title>Node2&#45;&gt;Node13</title>
<path fill="none" stroke="midnightblue" d="M786.84,-248.57C875.29,-245.88 1024.53,-235.85 1063,-199 1109.98,-154 1106.16,-67.9 1101.76,-29.86"/>
<polygon fill="midnightblue" stroke="midnightblue" points="1105.2,-29.16 1100.43,-19.7 1098.26,-30.07 1105.2,-29.16"/>
</g>
<!-- Node14 -->
<g id="node5" class="node">
<title>Node14</title>
<g id="a_node5"><a xlink:href="enum_8h.html" target="_top" xlink:title=" ">
<polygon fill="white" stroke="red" points="0,-174 0,-193 104,-193 104,-174 0,-174"/>
<text text-anchor="middle" x="52" y="-181" font-family="Helvetica,sans-Serif" font-size="10.00">emlabcpp/enum.h</text>
</a>
</g>
</g>
<!-- Node2&#45;&gt;Node14 -->
<g id="edge4" class="edge">
<title>Node2&#45;&gt;Node14</title>
<path fill="none" stroke="midnightblue" d="M653.14,-247.22C540.9,-242.67 307.75,-230.07 113,-199 106.72,-198 100.13,-196.7 93.7,-195.29"/>
<polygon fill="midnightblue" stroke="midnightblue" points="94.32,-191.84 83.79,-193.01 92.76,-198.66 94.32,-191.84"/>
</g>
<!-- Node15 -->
<g id="node6" class="node">
<title>Node15</title>
<g id="a_node6"><a xlink:href="decompose_8h.html" target="_top" xlink:title=" ">
<polygon fill="white" stroke="black" points="122.5,-168.5 122.5,-198.5 255.5,-198.5 255.5,-168.5 122.5,-168.5"/>
<text text-anchor="start" x="130.5" y="-186.5" font-family="Helvetica,sans-Serif" font-size="10.00">emlabcpp/experimental</text>
<text text-anchor="middle" x="189" y="-175.5" font-family="Helvetica,sans-Serif" font-size="10.00">/decompose.h</text>
</a>
</g>
</g>
<!-- Node2&#45;&gt;Node15 -->
<g id="edge5" class="edge">
<title>Node2&#45;&gt;Node15</title>
<path fill="none" stroke="midnightblue" d="M653.49,-243.41C565.52,-235.04 405.76,-218.75 270,-199 268.54,-198.79 267.07,-198.57 265.59,-198.35"/>
<polygon fill="midnightblue" stroke="midnightblue" points="266.11,-194.88 255.69,-196.79 265.03,-201.8 266.11,-194.88"/>
</g>
<!-- Node8 -->
<g id="node7" class="node">
<title>Node8</title>
<g id="a_node7"><a xlink:title=" ">
<polygon fill="white" stroke="#bfbfbf" points="240.5,-112.5 240.5,-131.5 281.5,-131.5 281.5,-112.5 240.5,-112.5"/>
<text text-anchor="middle" x="261" y="-119.5" font-family="Helvetica,sans-Serif" font-size="10.00">tuple</text>
</a>
</g>
</g>
<!-- Node2&#45;&gt;Node8 -->
<g id="edge20" class="edge">
<title>Node2&#45;&gt;Node8</title>
<path fill="none" stroke="midnightblue" d="M653.29,-246.24C557.53,-240.66 386.61,-227.04 332,-199 305.74,-185.51 284.06,-158.25 271.82,-140.31"/>
<polygon fill="midnightblue" stroke="midnightblue" points="274.72,-138.35 266.31,-131.91 268.87,-142.19 274.72,-138.35"/>
</g>
<!-- Node2&#45;&gt;Node16 -->
<g id="edge8" class="edge">
<title>Node2&#45;&gt;Node16</title>
<path fill="none" stroke="midnightblue" d="M786.65,-242.63C865.03,-234.15 998.91,-218.46 1113,-199 1119.72,-197.85 1126.78,-196.51 1133.7,-195.11"/>
<polygon fill="midnightblue" stroke="midnightblue" points="1134.62,-198.49 1143.7,-193.03 1133.19,-191.64 1134.62,-198.49"/>
</g>
<!-- Node18 -->
<g id="node9" class="node">
<title>Node18</title>
<g id="a_node9"><a xlink:href="types_8h.html" target="_top" xlink:title=" ">
<polygon fill="white" stroke="red" points="348,-112.5 348,-131.5 452,-131.5 452,-112.5 348,-112.5"/>
<text text-anchor="middle" x="400" y="-119.5" font-family="Helvetica,sans-Serif" font-size="10.00">emlabcpp/types.h</text>
</a>
</g>
</g>
<!-- Node2&#45;&gt;Node18 -->
<g id="edge9" class="edge">
<title>Node2&#45;&gt;Node18</title>
<path fill="none" stroke="midnightblue" d="M653.38,-245.33C550.14,-238.18 361.22,-222.1 341,-199 331.92,-188.63 334.89,-180.35 341,-168 347.6,-154.66 360.26,-144.19 372.17,-136.73"/>
<polygon fill="midnightblue" stroke="midnightblue" points="374.12,-139.64 381.02,-131.6 370.61,-133.59 374.12,-139.64"/>
</g>
<!-- Node20 -->
<g id="node10" class="node">
<title>Node20</title>
<g id="a_node10"><a xlink:href="view_8h.html" target="_top" xlink:title=" ">
<polygon fill="white" stroke="black" points="350.5,-174 350.5,-193 449.5,-193 449.5,-174 350.5,-174"/>
<text text-anchor="middle" x="400" y="-181" font-family="Helvetica,sans-Serif" font-size="10.00">emlabcpp/view.h</text>
</a>
</g>
</g>
<!-- Node2&#45;&gt;Node20 -->
<g id="edge11" class="edge">
<title>Node2&#45;&gt;Node20</title>
<path fill="none" stroke="midnightblue" d="M653.3,-237.68C600.23,-228.03 524.15,-213.63 458,-199 453,-197.89 447.77,-196.67 442.59,-195.43"/>
<polygon fill="midnightblue" stroke="midnightblue" points="443.29,-192 432.75,-193.02 441.63,-198.8 443.29,-192"/>
</g>
<!-- Node21 -->
<g id="node11" class="node">
<title>Node21</title>
<g id="a_node11"><a xlink:title=" ">
<polygon fill="white" stroke="#bfbfbf" points="467.5,-174 467.5,-193 528.5,-193 528.5,-174 467.5,-174"/>
<text text-anchor="middle" x="498" y="-181" font-family="Helvetica,sans-Serif" font-size="10.00">charconv</text>
</a>
</g>
</g>
<!-- Node2&#45;&gt;Node21 -->
<g id="edge13" class="edge">
<title>Node2&#45;&gt;Node21</title>
<path fill="none" stroke="midnightblue" d="M665.12,-235.45C628.83,-225.88 580.32,-212.52 538,-199 535.45,-198.19 532.82,-197.31 530.18,-196.41"/>
<polygon fill="midnightblue" stroke="midnightblue" points="531.34,-193.1 520.74,-193.09 529.01,-199.71 531.34,-193.1"/>
</g>
<!-- Node22 -->
<g id="node12" class="node">
<title>Node22</title>
<g id="a_node12"><a xlink:title=" ">
<polygon fill="white" stroke="#bfbfbf" points="547,-174 547,-193 597,-193 597,-174 547,-174"/>
<text text-anchor="middle" x="572" y="-181" font-family="Helvetica,sans-Serif" font-size="10.00">chrono</text>
</a>
</g>
</g>
<!-- Node2&#45;&gt;Node22 -->
<g id="edge14" class="edge">
<title>Node2&#45;&gt;Node22</title>
<path fill="none" stroke="midnightblue" d="M687.89,-235.4C661.92,-223.99 625.69,-208.08 600.68,-197.1"/>
<polygon fill="midnightblue" stroke="midnightblue" points="601.93,-193.82 591.37,-193.01 599.12,-200.23 601.93,-193.82"/>
</g>
<!-- Node23 -->
<g id="node13" class="node">
<title>Node23</title>
<g id="a_node13"><a xlink:title=" ">
<polygon fill="white" stroke="#bfbfbf" points="615,-174 615,-193 683,-193 683,-174 615,-174"/>
<text text-anchor="middle" x="649" y="-181" font-family="Helvetica,sans-Serif" font-size="10.00">filesystem</text>
</a>
</g>
</g>
<!-- Node2&#45;&gt;Node23 -->
<g id="edge15" class="edge">
<title>Node2&#45;&gt;Node23</title>
<path fill="none" stroke="midnightblue" d="M704.59,-235.4C693.19,-224.96 677.67,-210.75 665.93,-200"/>
<polygon fill="midnightblue" stroke="midnightblue" points="668.24,-197.37 658.5,-193.19 663.51,-202.53 668.24,-197.37"/>
</g>
<!-- Node24 -->
<g id="node14" class="node">
<title>Node24</title>
<g id="a_node14"><a xlink:title=" ">
<polygon fill="white" stroke="#bfbfbf" points="701,-174 701,-193 739,-193 739,-174 701,-174"/>
<text text-anchor="middle" x="720" y="-181" font-family="Helvetica,sans-Serif" font-size="10.00">map</text>
</a>
</g>
</g>
<!-- Node2&#45;&gt;Node24 -->
<g id="edge16" class="edge">
<title>Node2&#45;&gt;Node24</title>
<path fill="none" stroke="midnightblue" d="M720,-235.4C720,-226.06 720,-213.71 720,-203.52"/>
<polygon fill="midnightblue" stroke="midnightblue" points="723.5,-203.19 720,-193.19 716.5,-203.19 723.5,-203.19"/>
</g>
<!-- Node25 -->
<g id="node15" class="node">
<title>Node25</title>
<g id="a_node15"><a xlink:title=" ">
<polygon fill="white" stroke="#bfbfbf" points="757,-174 757,-193 813,-193 813,-174 757,-174"/>
<text text-anchor="middle" x="785" y="-181" font-family="Helvetica,sans-Serif" font-size="10.00">optional</text>
</a>
</g>
</g>
<!-- Node2&#45;&gt;Node25 -->
<g id="edge17" class="edge">
<title>Node2&#45;&gt;Node25</title>
<path fill="none" stroke="midnightblue" d="M734.1,-235.4C744.44,-225.06 758.48,-211.02 769.19,-200.31"/>
<polygon fill="midnightblue" stroke="midnightblue" points="771.71,-202.74 776.31,-193.19 766.76,-197.79 771.71,-202.74"/>
</g>
<!-- Node26 -->
<g id="node16" class="node">
<title>Node26</title>
<g id="a_node16"><a xlink:title=" ">
<polygon fill="white" stroke="#bfbfbf" points="831,-174 831,-193 863,-193 863,-174 831,-174"/>
<text text-anchor="middle" x="847" y="-181" font-family="Helvetica,sans-Serif" font-size="10.00">set</text>
</a>
</g>
</g>
<!-- Node2&#45;&gt;Node26 -->
<g id="edge18" class="edge">
<title>Node2&#45;&gt;Node26</title>
<path fill="none" stroke="midnightblue" d="M749.72,-235.42C770.21,-225.56 797.97,-211.9 822,-199 822.54,-198.71 823.08,-198.42 823.63,-198.12"/>
<polygon fill="midnightblue" stroke="midnightblue" points="825.55,-201.05 832.55,-193.1 822.12,-194.95 825.55,-201.05"/>
</g>
<!-- Node27 -->
<g id="node17" class="node">
<title>Node27</title>
<g id="a_node17"><a xlink:title=" ">
<polygon fill="white" stroke="#bfbfbf" points="881,-174 881,-193 921,-193 921,-174 881,-174"/>
<text text-anchor="middle" x="901" y="-181" font-family="Helvetica,sans-Serif" font-size="10.00">span</text>
</a>
</g>
</g>
<!-- Node2&#45;&gt;Node27 -->
<g id="edge19" class="edge">
<title>Node2&#45;&gt;Node27</title>
<path fill="none" stroke="midnightblue" d="M768.22,-235.41C798.43,-226.12 837.95,-213.08 872,-199 873.2,-198.5 874.42,-197.98 875.64,-197.44"/>
<polygon fill="midnightblue" stroke="midnightblue" points="877.39,-200.48 884.93,-193.04 874.39,-194.15 877.39,-200.48"/>
</g>
<!-- Node28 -->
<g id="node18" class="node">
<title>Node28</title>
<g id="a_node18"><a xlink:title=" ">
<polygon fill="white" stroke="#bfbfbf" points="939.5,-174 939.5,-193 1032.5,-193 1032.5,-174 939.5,-174"/>
<text text-anchor="middle" x="986" y="-181" font-family="Helvetica,sans-Serif" font-size="10.00">unordered_map</text>
</a>
</g>
</g>
<!-- Node2&#45;&gt;Node28 -->
<g id="edge21" class="edge">
<title>Node2&#45;&gt;Node28</title>
<path fill="none" stroke="midnightblue" d="M779.81,-235.41C821.87,-225.43 879.43,-211.63 930,-199 934.39,-197.9 938.98,-196.74 943.55,-195.57"/>
<polygon fill="midnightblue" stroke="midnightblue" points="944.64,-198.91 953.45,-193.03 942.89,-192.13 944.64,-198.91"/>
</g>
<!-- Node3&#45;&gt;Node13 -->
<g id="edge3" class="edge">
<title>Node3&#45;&gt;Node13</title>
<path fill="none" stroke="midnightblue" d="M766.12,-56.74C848.98,-45.35 995.7,-25.19 1063.2,-15.92"/>
<polygon fill="midnightblue" stroke="midnightblue" points="1063.9,-19.36 1073.33,-14.53 1062.95,-12.42 1063.9,-19.36"/>
</g>
<!-- Node15&#45;&gt;Node3 -->
<g id="edge6" class="edge">
<title>Node15&#45;&gt;Node3</title>
<path fill="none" stroke="midnightblue" d="M193.1,-168.36C198.73,-151.79 210.53,-124.95 231,-112 296.49,-70.58 519.98,-65.67 635.54,-66.02"/>
<polygon fill="midnightblue" stroke="midnightblue" points="635.68,-69.52 645.7,-66.07 635.71,-62.52 635.68,-69.52"/>
</g>
<!-- Node15&#45;&gt;Node8 -->
<g id="edge7" class="edge">
<title>Node15&#45;&gt;Node8</title>
<path fill="none" stroke="midnightblue" d="M206.06,-168.4C217.06,-159.31 231.37,-147.49 242.62,-138.19"/>
<polygon fill="midnightblue" stroke="midnightblue" points="245.04,-140.73 250.52,-131.66 240.59,-135.33 245.04,-140.73"/>
</g>
<!-- Node18&#45;&gt;Node3 -->
<g id="edge10" class="edge">
<title>Node18&#45;&gt;Node3</title>
<path fill="none" stroke="midnightblue" d="M448.49,-112.44C502.54,-102.9 589.93,-87.48 647.67,-77.29"/>
<polygon fill="midnightblue" stroke="midnightblue" points="648.5,-80.7 657.74,-75.52 647.28,-73.81 648.5,-80.7"/>
</g>
<!-- Node20&#45;&gt;Node18 -->
<g id="edge12" class="edge">
<title>Node20&#45;&gt;Node18</title>
<path fill="none" stroke="midnightblue" d="M400,-173.98C400,-165.58 400,-152.48 400,-141.66"/>
<polygon fill="midnightblue" stroke="midnightblue" points="403.5,-141.51 400,-131.51 396.5,-141.51 403.5,-141.51"/>
</g>
</g>
</svg>
