<?xml version="1.0" encoding="UTF-8" standalone="no"?>
<!DOCTYPE svg PUBLIC "-//W3C//DTD SVG 1.1//EN"
 "http://www.w3.org/Graphics/SVG/1.1/DTD/svg11.dtd">
<!-- Generated by graphviz version 2.43.0 (0)
 -->
<!-- Title: include/emlabcpp/experimental/logging.h Pages: 1 -->
<svg width="1674pt" height="341pt"
 viewBox="0.00 0.00 1673.50 341.00" xmlns="http://www.w3.org/2000/svg" xmlns:xlink="http://www.w3.org/1999/xlink">
<g id="graph0" class="graph" transform="scale(1 1) rotate(0) translate(4 337)">
<title>include/emlabcpp/experimental/logging.h</title>
<polygon fill="white" stroke="transparent" points="-4,4 -4,-337 1669.5,-337 1669.5,4 -4,4"/>
<!-- Node1 -->
<g id="node1" class="node">
<title>Node1</title>
<g id="a_node1"><a xlink:title=" ">
<polygon fill="#bfbfbf" stroke="black" points="1369.5,-302.5 1369.5,-332.5 1540.5,-332.5 1540.5,-302.5 1369.5,-302.5"/>
<text text-anchor="start" x="1377.5" y="-320.5" font-family="Helvetica,sans-Serif" font-size="10.00">include/emlabcpp/experimental</text>
<text text-anchor="middle" x="1455" y="-309.5" font-family="Helvetica,sans-Serif" font-size="10.00">/logging.h</text>
</a>
</g>
</g>
<!-- Node2 -->
<g id="node2" class="node">
<title>Node2</title>
<g id="a_node2"><a xlink:href="pretty__printer_8h.html" target="_top" xlink:title=" ">
<polygon fill="white" stroke="black" points="728.5,-235.5 728.5,-265.5 861.5,-265.5 861.5,-235.5 728.5,-235.5"/>
<text text-anchor="start" x="736.5" y="-253.5" font-family="Helvetica,sans-Serif" font-size="10.00">emlabcpp/experimental</text>
<text text-anchor="middle" x="795" y="-242.5" font-family="Helvetica,sans-Serif" font-size="10.00">/pretty_printer.h</text>
</a>
</g>
</g>
<!-- Node1&#45;&gt;Node2 -->
<g id="edge1" class="edge">
<title>Node1&#45;&gt;Node2</title>
<path fill="none" stroke="midnightblue" d="M1369.39,-308.07C1239.8,-295.31 995.8,-271.28 871.69,-259.05"/>
<polygon fill="midnightblue" stroke="midnightblue" points="871.81,-255.55 861.52,-258.05 871.13,-262.51 871.81,-255.55"/>
</g>
<!-- Node13 -->
<g id="node4" class="node">
<title>Node13</title>
<g id="a_node4"><a xlink:title=" ">
<polygon fill="white" stroke="#bfbfbf" points="1238.5,-0.5 1238.5,-19.5 1289.5,-19.5 1289.5,-0.5 1238.5,-0.5"/>
<text text-anchor="middle" x="1264" y="-7.5" font-family="Helvetica,sans-Serif" font-size="10.00">variant</text>
</a>
</g>
</g>
<!-- Node1&#45;&gt;Node13 -->
<g id="edge29" class="edge">
<title>Node1&#45;&gt;Node13</title>
<path fill="none" stroke="midnightblue" d="M1450.17,-302.43C1442.41,-278.51 1428,-228.24 1428,-184.5 1428,-184.5 1428,-184.5 1428,-121 1428,-59.55 1347.6,-30.22 1299.38,-18.16"/>
<polygon fill="midnightblue" stroke="midnightblue" points="1300.16,-14.75 1289.62,-15.85 1298.55,-21.56 1300.16,-14.75"/>
</g>
<!-- Node16 -->
<g id="node8" class="node">
<title>Node16</title>
<g id="a_node8"><a xlink:href="match_8h.html" target="_top" xlink:title=" ">
<polygon fill="white" stroke="red" points="1292.5,-174 1292.5,-193 1399.5,-193 1399.5,-174 1292.5,-174"/>
<text text-anchor="middle" x="1346" y="-181" font-family="Helvetica,sans-Serif" font-size="10.00">emlabcpp/match.h</text>
</a>
</g>
</g>
<!-- Node1&#45;&gt;Node16 -->
<g id="edge26" class="edge">
<title>Node1&#45;&gt;Node16</title>
<path fill="none" stroke="midnightblue" d="M1443.34,-302.37C1423.01,-277.76 1381.2,-227.12 1359.59,-200.96"/>
<polygon fill="midnightblue" stroke="midnightblue" points="1362.17,-198.58 1353.1,-193.1 1356.77,-203.04 1362.17,-198.58"/>
</g>
<!-- Node33 -->
<g id="node21" class="node">
<title>Node33</title>
<g id="a_node21"><a xlink:title=" ">
<polygon fill="white" stroke="#bfbfbf" points="1456.5,-241 1456.5,-260 1509.5,-260 1509.5,-241 1456.5,-241"/>
<text text-anchor="middle" x="1483" y="-248" font-family="Helvetica,sans-Serif" font-size="10.00">cstddef</text>
</a>
</g>
</g>
<!-- Node1&#45;&gt;Node33 -->
<g id="edge27" class="edge">
<title>Node1&#45;&gt;Node33</title>
<path fill="none" stroke="midnightblue" d="M1461.08,-302.4C1465.23,-292.76 1470.76,-279.91 1475.23,-269.54"/>
<polygon fill="midnightblue" stroke="midnightblue" points="1478.51,-270.76 1479.25,-260.19 1472.08,-267.99 1478.51,-270.76"/>
</g>
<!-- Node34 -->
<g id="node22" class="node">
<title>Node34</title>
<g id="a_node22"><a xlink:title=" ">
<polygon fill="white" stroke="#bfbfbf" points="1527.5,-241 1527.5,-260 1600.5,-260 1600.5,-241 1527.5,-241"/>
<text text-anchor="middle" x="1564" y="-248" font-family="Helvetica,sans-Serif" font-size="10.00">string_view</text>
</a>
</g>
</g>
<!-- Node1&#45;&gt;Node34 -->
<g id="edge28" class="edge">
<title>Node1&#45;&gt;Node34</title>
<path fill="none" stroke="midnightblue" d="M1478.65,-302.4C1497.18,-291.34 1522.81,-276.06 1541.14,-265.13"/>
<polygon fill="midnightblue" stroke="midnightblue" points="1542.94,-268.13 1549.73,-260.01 1539.35,-262.12 1542.94,-268.13"/>
</g>
<!-- Node10 -->
<g id="node23" class="node">
<title>Node10</title>
<g id="a_node23"><a xlink:title=" ">
<polygon fill="white" stroke="#bfbfbf" points="1618.5,-241 1618.5,-260 1665.5,-260 1665.5,-241 1618.5,-241"/>
<text text-anchor="middle" x="1642" y="-248" font-family="Helvetica,sans-Serif" font-size="10.00">vector</text>
</a>
</g>
</g>
<!-- Node1&#45;&gt;Node10 -->
<g id="edge30" class="edge">
<title>Node1&#45;&gt;Node10</title>
<path fill="none" stroke="midnightblue" d="M1501.91,-302.42C1532.64,-292.88 1573.52,-279.57 1609,-266 1610.61,-265.39 1612.25,-264.73 1613.9,-264.06"/>
<polygon fill="midnightblue" stroke="midnightblue" points="1615.43,-267.22 1623.28,-260.1 1612.71,-260.77 1615.43,-267.22"/>
</g>
<!-- Node3 -->
<g id="node3" class="node">
<title>Node3</title>
<g id="a_node3"><a xlink:href="concepts_8h.html" target="_top" xlink:title=" ">
<polygon fill="white" stroke="red" points="783,-56.5 783,-75.5 903,-75.5 903,-56.5 783,-56.5"/>
<text text-anchor="middle" x="843" y="-63.5" font-family="Helvetica,sans-Serif" font-size="10.00">emlabcpp/concepts.h</text>
</a>
</g>
</g>
<!-- Node2&#45;&gt;Node3 -->
<g id="edge2" class="edge">
<title>Node2&#45;&gt;Node3</title>
<path fill="none" stroke="midnightblue" d="M861.85,-246.06C972.45,-239.68 1183.61,-224.31 1206,-199 1291.87,-101.93 1041.2,-76.19 913.18,-69.41"/>
<polygon fill="midnightblue" stroke="midnightblue" points="913.22,-65.91 903.06,-68.9 912.87,-72.9 913.22,-65.91"/>
</g>
<!-- Node2&#45;&gt;Node13 -->
<g id="edge25" class="edge">
<title>Node2&#45;&gt;Node13</title>
<path fill="none" stroke="midnightblue" d="M861.87,-246.04C976.95,-239.46 1202.7,-223.56 1229,-199 1276.49,-154.64 1271.82,-68.2 1266.99,-29.97"/>
<polygon fill="midnightblue" stroke="midnightblue" points="1270.41,-29.16 1265.54,-19.75 1263.48,-30.14 1270.41,-29.16"/>
</g>
<!-- Node14 -->
<g id="node5" class="node">
<title>Node14</title>
<g id="a_node5"><a xlink:href="enum_8h.html" target="_top" xlink:title=" ">
<polygon fill="white" stroke="red" points="0,-174 0,-193 104,-193 104,-174 0,-174"/>
<text text-anchor="middle" x="52" y="-181" font-family="Helvetica,sans-Serif" font-size="10.00">emlabcpp/enum.h</text>
</a>
</g>
</g>
<!-- Node2&#45;&gt;Node14 -->
<g id="edge4" class="edge">
<title>Node2&#45;&gt;Node14</title>
<path fill="none" stroke="midnightblue" d="M728.29,-248.09C605.73,-244.71 336.8,-233.66 113,-199 106.72,-198.03 100.13,-196.74 93.69,-195.34"/>
<polygon fill="midnightblue" stroke="midnightblue" points="94.32,-191.89 83.79,-193.07 92.75,-198.72 94.32,-191.89"/>
</g>
<!-- Node15 -->
<g id="node6" class="node">
<title>Node15</title>
<g id="a_node6"><a xlink:href="decompose_8h.html" target="_top" xlink:title=" ">
<polygon fill="white" stroke="black" points="122.5,-168.5 122.5,-198.5 255.5,-198.5 255.5,-168.5 122.5,-168.5"/>
<text text-anchor="start" x="130.5" y="-186.5" font-family="Helvetica,sans-Serif" font-size="10.00">emlabcpp/experimental</text>
<text text-anchor="middle" x="189" y="-175.5" font-family="Helvetica,sans-Serif" font-size="10.00">/decompose.h</text>
</a>
</g>
</g>
<!-- Node2&#45;&gt;Node15 -->
<g id="edge5" class="edge">
<title>Node2&#45;&gt;Node15</title>
<path fill="none" stroke="midnightblue" d="M728.5,-244.84C628.65,-237.46 434.19,-221.56 270,-199 268.54,-198.8 267.07,-198.59 265.58,-198.38"/>
<polygon fill="midnightblue" stroke="midnightblue" points="266.09,-194.91 255.68,-196.88 265.04,-201.84 266.09,-194.91"/>
</g>
<!-- Node8 -->
<g id="node7" class="node">
<title>Node8</title>
<g id="a_node7"><a xlink:title=" ">
<polygon fill="white" stroke="#bfbfbf" points="240.5,-112.5 240.5,-131.5 281.5,-131.5 281.5,-112.5 240.5,-112.5"/>
<text text-anchor="middle" x="261" y="-119.5" font-family="Helvetica,sans-Serif" font-size="10.00">tuple</text>
</a>
</g>
</g>
<!-- Node2&#45;&gt;Node8 -->
<g id="edge23" class="edge">
<title>Node2&#45;&gt;Node8</title>
<path fill="none" stroke="midnightblue" d="M728.26,-250.13C610.36,-250.04 371.23,-244.1 303,-199 282.91,-185.72 271.54,-159.42 265.83,-141.52"/>
<polygon fill="midnightblue" stroke="midnightblue" points="269.18,-140.51 263.04,-131.88 262.46,-142.46 269.18,-140.51"/>
</g>
<!-- Node2&#45;&gt;Node16 -->
<g id="edge8" class="edge">
<title>Node2&#45;&gt;Node16</title>
<path fill="none" stroke="midnightblue" d="M861.7,-244.77C955.15,-237.64 1130.19,-222.42 1278,-199 1284.89,-197.91 1292.13,-196.57 1299.22,-195.15"/>
<polygon fill="midnightblue" stroke="midnightblue" points="1300.35,-198.5 1309.43,-193.04 1298.93,-191.64 1300.35,-198.5"/>
</g>
<!-- Node18 -->
<g id="node9" class="node">
<title>Node18</title>
<g id="a_node9"><a xlink:href="range_8h.html" target="_top" xlink:title=" ">
<polygon fill="white" stroke="red" points="312,-174 312,-193 416,-193 416,-174 312,-174"/>
<text text-anchor="middle" x="364" y="-181" font-family="Helvetica,sans-Serif" font-size="10.00">emlabcpp/range.h</text>
</a>
</g>
</g>
<!-- Node2&#45;&gt;Node18 -->
<g id="edge9" class="edge">
<title>Node2&#45;&gt;Node18</title>
<path fill="none" stroke="midnightblue" d="M728.48,-241.89C655.13,-233.14 533.75,-217.54 430,-199 423.71,-197.88 417.11,-196.57 410.61,-195.22"/>
<polygon fill="midnightblue" stroke="midnightblue" points="411.06,-191.74 400.55,-193.07 409.6,-198.58 411.06,-191.74"/>
</g>
<!-- Node22 -->
<g id="node10" class="node">
<title>Node22</title>
<g id="a_node10"><a xlink:href="types_8h.html" target="_top" xlink:title=" ">
<polygon fill="white" stroke="red" points="458,-112.5 458,-131.5 562,-131.5 562,-112.5 458,-112.5"/>
<text text-anchor="middle" x="510" y="-119.5" font-family="Helvetica,sans-Serif" font-size="10.00">emlabcpp/types.h</text>
</a>
</g>
</g>
<!-- Node2&#45;&gt;Node22 -->
<g id="edge10" class="edge">
<title>Node2&#45;&gt;Node22</title>
<path fill="none" stroke="midnightblue" d="M728.17,-249.2C641.23,-247.21 496.49,-237.97 463,-199 446.37,-179.65 470.52,-153.78 489.9,-137.77"/>
<polygon fill="midnightblue" stroke="midnightblue" points="492.1,-140.49 497.79,-131.56 487.77,-135 492.1,-140.49"/>
</g>
<!-- Node21 -->
<g id="node11" class="node">
<title>Node21</title>
<g id="a_node11"><a xlink:href="view_8h.html" target="_top" xlink:title=" ">
<polygon fill="white" stroke="black" points="472.5,-174 472.5,-193 571.5,-193 571.5,-174 472.5,-174"/>
<text text-anchor="middle" x="522" y="-181" font-family="Helvetica,sans-Serif" font-size="10.00">emlabcpp/view.h</text>
</a>
</g>
</g>
<!-- Node2&#45;&gt;Node21 -->
<g id="edge12" class="edge">
<title>Node2&#45;&gt;Node21</title>
<path fill="none" stroke="midnightblue" d="M736.1,-235.48C685.57,-223.45 613.8,-206.36 567.57,-195.35"/>
<polygon fill="midnightblue" stroke="midnightblue" points="568.36,-191.94 557.82,-193.03 566.74,-198.75 568.36,-191.94"/>
</g>
<!-- Node24 -->
<g id="node12" class="node">
<title>Node24</title>
<g id="a_node12"><a xlink:title=" ">
<polygon fill="white" stroke="#bfbfbf" points="580,-112.5 580,-131.5 620,-131.5 620,-112.5 580,-112.5"/>
<text text-anchor="middle" x="600" y="-119.5" font-family="Helvetica,sans-Serif" font-size="10.00">span</text>
</a>
</g>
</g>
<!-- Node2&#45;&gt;Node24 -->
<g id="edge22" class="edge">
<title>Node2&#45;&gt;Node24</title>
<path fill="none" stroke="midnightblue" d="M728.2,-246.2C691.27,-240.89 647.27,-228.26 619,-199 604.33,-183.82 600.47,-159.12 599.7,-142.01"/>
<polygon fill="midnightblue" stroke="midnightblue" points="603.19,-141.55 599.56,-131.6 596.19,-141.64 603.19,-141.55"/>
</g>
<!-- Node25 -->
<g id="node13" class="node">
<title>Node25</title>
<g id="a_node13"><a xlink:title=" ">
<polygon fill="white" stroke="#bfbfbf" points="628,-174 628,-193 672,-193 672,-174 628,-174"/>
<text text-anchor="middle" x="650" y="-181" font-family="Helvetica,sans-Serif" font-size="10.00">bitset</text>
</a>
</g>
</g>
<!-- Node2&#45;&gt;Node25 -->
<g id="edge15" class="edge">
<title>Node2&#45;&gt;Node25</title>
<path fill="none" stroke="midnightblue" d="M762.49,-235.31C739.64,-225.28 708.38,-211.47 681,-199 679.84,-198.47 678.67,-197.93 677.48,-197.39"/>
<polygon fill="midnightblue" stroke="midnightblue" points="678.88,-194.18 668.33,-193.15 675.93,-200.53 678.88,-194.18"/>
</g>
<!-- Node26 -->
<g id="node14" class="node">
<title>Node26</title>
<g id="a_node14"><a xlink:title=" ">
<polygon fill="white" stroke="#bfbfbf" points="690.5,-174 690.5,-193 751.5,-193 751.5,-174 690.5,-174"/>
<text text-anchor="middle" x="721" y="-181" font-family="Helvetica,sans-Serif" font-size="10.00">charconv</text>
</a>
</g>
</g>
<!-- Node2&#45;&gt;Node26 -->
<g id="edge16" class="edge">
<title>Node2&#45;&gt;Node26</title>
<path fill="none" stroke="midnightblue" d="M778.94,-235.4C767.06,-224.96 750.89,-210.75 738.64,-200"/>
<polygon fill="midnightblue" stroke="midnightblue" points="740.72,-197.16 730.9,-193.19 736.1,-202.42 740.72,-197.16"/>
</g>
<!-- Node27 -->
<g id="node15" class="node">
<title>Node27</title>
<g id="a_node15"><a xlink:title=" ">
<polygon fill="white" stroke="#bfbfbf" points="770,-174 770,-193 820,-193 820,-174 770,-174"/>
<text text-anchor="middle" x="795" y="-181" font-family="Helvetica,sans-Serif" font-size="10.00">chrono</text>
</a>
</g>
</g>
<!-- Node2&#45;&gt;Node27 -->
<g id="edge17" class="edge">
<title>Node2&#45;&gt;Node27</title>
<path fill="none" stroke="midnightblue" d="M795,-235.4C795,-226.06 795,-213.71 795,-203.52"/>
<polygon fill="midnightblue" stroke="midnightblue" points="798.5,-203.19 795,-193.19 791.5,-203.19 798.5,-203.19"/>
</g>
<!-- Node28 -->
<g id="node16" class="node">
<title>Node28</title>
<g id="a_node16"><a xlink:title=" ">
<polygon fill="white" stroke="#bfbfbf" points="838,-174 838,-193 906,-193 906,-174 838,-174"/>
<text text-anchor="middle" x="872" y="-181" font-family="Helvetica,sans-Serif" font-size="10.00">filesystem</text>
</a>
</g>
</g>
<!-- Node2&#45;&gt;Node28 -->
<g id="edge18" class="edge">
<title>Node2&#45;&gt;Node28</title>
<path fill="none" stroke="midnightblue" d="M811.71,-235.4C824.19,-224.86 841.23,-210.48 854.01,-199.69"/>
<polygon fill="midnightblue" stroke="midnightblue" points="856.32,-202.32 861.7,-193.19 851.8,-196.97 856.32,-202.32"/>
</g>
<!-- Node29 -->
<g id="node17" class="node">
<title>Node29</title>
<g id="a_node17"><a xlink:title=" ">
<polygon fill="white" stroke="#bfbfbf" points="924,-174 924,-193 962,-193 962,-174 924,-174"/>
<text text-anchor="middle" x="943" y="-181" font-family="Helvetica,sans-Serif" font-size="10.00">map</text>
</a>
</g>
</g>
<!-- Node2&#45;&gt;Node29 -->
<g id="edge19" class="edge">
<title>Node2&#45;&gt;Node29</title>
<path fill="none" stroke="midnightblue" d="M830.5,-235.42C854.56,-225.68 886.96,-212.14 915,-199 915.99,-198.54 917,-198.06 918.01,-197.56"/>
<polygon fill="midnightblue" stroke="midnightblue" points="919.74,-200.61 927.12,-193 916.61,-194.35 919.74,-200.61"/>
</g>
<!-- Node30 -->
<g id="node18" class="node">
<title>Node30</title>
<g id="a_node18"><a xlink:title=" ">
<polygon fill="white" stroke="#bfbfbf" points="980,-174 980,-193 1036,-193 1036,-174 980,-174"/>
<text text-anchor="middle" x="1008" y="-181" font-family="Helvetica,sans-Serif" font-size="10.00">optional</text>
</a>
</g>
</g>
<!-- Node2&#45;&gt;Node30 -->
<g id="edge20" class="edge">
<title>Node2&#45;&gt;Node30</title>
<path fill="none" stroke="midnightblue" d="M848.94,-235.44C883.98,-225.95 930.5,-212.71 971,-199 973.12,-198.28 975.3,-197.51 977.49,-196.71"/>
<polygon fill="midnightblue" stroke="midnightblue" points="978.88,-199.93 986.99,-193.13 976.4,-193.38 978.88,-199.93"/>
</g>
<!-- Node31 -->
<g id="node19" class="node">
<title>Node31</title>
<g id="a_node19"><a xlink:title=" ">
<polygon fill="white" stroke="#bfbfbf" points="1054,-174 1054,-193 1086,-193 1086,-174 1054,-174"/>
<text text-anchor="middle" x="1070" y="-181" font-family="Helvetica,sans-Serif" font-size="10.00">set</text>
</a>
</g>
</g>
<!-- Node2&#45;&gt;Node31 -->
<g id="edge21" class="edge">
<title>Node2&#45;&gt;Node31</title>
<path fill="none" stroke="midnightblue" d="M861.65,-242.05C912.98,-234.9 985.07,-221.73 1045,-199 1046.03,-198.61 1047.07,-198.18 1048.11,-197.72"/>
<polygon fill="midnightblue" stroke="midnightblue" points="1049.9,-200.73 1057.17,-193.02 1046.68,-194.52 1049.9,-200.73"/>
</g>
<!-- Node32 -->
<g id="node20" class="node">
<title>Node32</title>
<g id="a_node20"><a xlink:title=" ">
<polygon fill="white" stroke="#bfbfbf" points="1104.5,-174 1104.5,-193 1197.5,-193 1197.5,-174 1104.5,-174"/>
<text text-anchor="middle" x="1151" y="-181" font-family="Helvetica,sans-Serif" font-size="10.00">unordered_map</text>
</a>
</g>
</g>
<!-- Node2&#45;&gt;Node32 -->
<g id="edge24" class="edge">
<title>Node2&#45;&gt;Node32</title>
<path fill="none" stroke="midnightblue" d="M861.74,-239.96C922.75,-230.84 1015.32,-215.99 1095,-199 1099.97,-197.94 1105.16,-196.73 1110.29,-195.48"/>
<polygon fill="midnightblue" stroke="midnightblue" points="1111.17,-198.87 1120.01,-193.03 1109.46,-192.08 1111.17,-198.87"/>
</g>
<!-- Node3&#45;&gt;Node13 -->
<g id="edge3" class="edge">
<title>Node3&#45;&gt;Node13</title>
<path fill="none" stroke="midnightblue" d="M903.32,-57.26C992.39,-45.84 1156.3,-24.81 1228.39,-15.57"/>
<polygon fill="midnightblue" stroke="midnightblue" points="1228.87,-19.04 1238.34,-14.29 1227.98,-12.09 1228.87,-19.04"/>
</g>
<!-- Node15&#45;&gt;Node3 -->
<g id="edge6" class="edge">
<title>Node15&#45;&gt;Node3</title>
<path fill="none" stroke="midnightblue" d="M193.06,-168.29C198.64,-151.64 210.4,-124.73 231,-112 276.16,-84.1 621.91,-72.37 772.87,-68.54"/>
<polygon fill="midnightblue" stroke="midnightblue" points="773.05,-72.04 782.96,-68.29 772.88,-65.04 773.05,-72.04"/>
</g>
<!-- Node15&#45;&gt;Node8 -->
<g id="edge7" class="edge">
<title>Node15&#45;&gt;Node8</title>
<path fill="none" stroke="midnightblue" d="M206.06,-168.4C217.06,-159.31 231.37,-147.49 242.62,-138.19"/>
<polygon fill="midnightblue" stroke="midnightblue" points="245.04,-140.73 250.52,-131.66 240.59,-135.33 245.04,-140.73"/>
</g>
<!-- Node22&#45;&gt;Node3 -->
<g id="edge11" class="edge">
<title>Node22&#45;&gt;Node3</title>
<path fill="none" stroke="midnightblue" d="M562.03,-112.56C621.03,-102.99 717.2,-87.4 780.29,-77.17"/>
<polygon fill="midnightblue" stroke="midnightblue" points="781.2,-80.57 790.51,-75.51 780.08,-73.66 781.2,-80.57"/>
</g>
<!-- Node21&#45;&gt;Node22 -->
<g id="edge13" class="edge">
<title>Node21&#45;&gt;Node22</title>
<path fill="none" stroke="midnightblue" d="M520.28,-173.98C518.57,-165.49 515.89,-152.2 513.7,-141.32"/>
<polygon fill="midnightblue" stroke="midnightblue" points="517.12,-140.62 511.72,-131.51 510.26,-142 517.12,-140.62"/>
</g>
<!-- Node21&#45;&gt;Node24 -->
<g id="edge14" class="edge">
<title>Node21&#45;&gt;Node24</title>
<path fill="none" stroke="midnightblue" d="M533.18,-173.98C545.57,-164.52 565.79,-149.1 580.75,-137.69"/>
<polygon fill="midnightblue" stroke="midnightblue" points="583.02,-140.36 588.85,-131.51 578.77,-134.79 583.02,-140.36"/>
</g>
</g>
</svg>
