<?xml version="1.0" encoding="UTF-8" standalone="no"?>
<!DOCTYPE svg PUBLIC "-//W3C//DTD SVG 1.1//EN"
 "http://www.w3.org/Graphics/SVG/1.1/DTD/svg11.dtd">
<!-- Generated by graphviz version 2.43.0 (0)
 -->
<!-- Title: include/emlabcpp/experimental/logging.h Pages: 1 -->
<svg width="934pt" height="341pt"
 viewBox="0.00 0.00 934.27 341.00" xmlns="http://www.w3.org/2000/svg" xmlns:xlink="http://www.w3.org/1999/xlink">
<g id="graph0" class="graph" transform="scale(1 1) rotate(0) translate(4 337)">
<title>include/emlabcpp/experimental/logging.h</title>
<polygon fill="white" stroke="transparent" points="-4,4 -4,-337 930.27,-337 930.27,4 -4,4"/>
<!-- Node1 -->
<g id="node1" class="node">
<title>Node1</title>
<g id="a_node1"><a xlink:title=" ">
<polygon fill="#bfbfbf" stroke="black" points="400,-302.5 400,-332.5 571,-332.5 571,-302.5 400,-302.5"/>
<text text-anchor="start" x="408" y="-320.5" font-family="Helvetica,sans-Serif" font-size="10.00">include/emlabcpp/experimental</text>
<text text-anchor="middle" x="485.5" y="-309.5" font-family="Helvetica,sans-Serif" font-size="10.00">/logging.h</text>
</a>
</g>
</g>
<!-- Node2 -->
<g id="node2" class="node">
<title>Node2</title>
<g id="a_node2"><a xlink:href="pretty__printer_8h.html" target="_top" xlink:title=" ">
<polygon fill="white" stroke="black" points="419,-235.5 419,-265.5 552,-265.5 552,-235.5 419,-235.5"/>
<text text-anchor="start" x="427" y="-253.5" font-family="Helvetica,sans-Serif" font-size="10.00">emlabcpp/experimental</text>
<text text-anchor="middle" x="485.5" y="-242.5" font-family="Helvetica,sans-Serif" font-size="10.00">/pretty_printer.h</text>
</a>
</g>
</g>
<!-- Node1&#45;&gt;Node2 -->
<g id="edge1" class="edge">
<title>Node1&#45;&gt;Node2</title>
<path fill="none" stroke="midnightblue" d="M485.5,-302.4C485.5,-294.64 485.5,-284.81 485.5,-275.86"/>
<polygon fill="midnightblue" stroke="midnightblue" points="489,-275.58 485.5,-265.58 482,-275.58 489,-275.58"/>
</g>
<!-- Node16 -->
<g id="node8" class="node">
<title>Node16</title>
<g id="a_node8"><a xlink:href="match_8h.html" target="_top" xlink:title=" ">
<polygon fill="white" stroke="red" points="0,-174 0,-193 107,-193 107,-174 0,-174"/>
<text text-anchor="middle" x="53.5" y="-181" font-family="Helvetica,sans-Serif" font-size="10.00">emlabcpp/match.h</text>
</a>
</g>
</g>
<!-- Node1&#45;&gt;Node16 -->
<g id="edge19" class="edge">
<title>Node1&#45;&gt;Node16</title>
<path fill="none" stroke="midnightblue" d="M439.68,-302.5C353.95,-276.3 170.84,-220.35 91.48,-196.1"/>
<polygon fill="midnightblue" stroke="midnightblue" points="92.02,-192.61 81.44,-193.04 89.98,-199.31 92.02,-192.61"/>
</g>
<!-- Node25 -->
<g id="node15" class="node">
<title>Node25</title>
<g id="a_node15"><a xlink:title=" ">
<polygon fill="white" stroke="#bfbfbf" points="570,-241 570,-260 643,-260 643,-241 570,-241"/>
<text text-anchor="middle" x="606.5" y="-248" font-family="Helvetica,sans-Serif" font-size="10.00">string_view</text>
</a>
</g>
</g>
<!-- Node1&#45;&gt;Node25 -->
<g id="edge20" class="edge">
<title>Node1&#45;&gt;Node25</title>
<path fill="none" stroke="midnightblue" d="M511.76,-302.4C532.52,-291.24 561.3,-275.78 581.68,-264.83"/>
<polygon fill="midnightblue" stroke="midnightblue" points="583.51,-267.82 590.66,-260.01 580.2,-261.66 583.51,-267.82"/>
</g>
<!-- Node3 -->
<g id="node3" class="node">
<title>Node3</title>
<g id="a_node3"><a xlink:href="concepts_8h.html" target="_top" xlink:title=" ">
<polygon fill="white" stroke="red" points="362.5,-56.5 362.5,-75.5 482.5,-75.5 482.5,-56.5 362.5,-56.5"/>
<text text-anchor="middle" x="422.5" y="-63.5" font-family="Helvetica,sans-Serif" font-size="10.00">emlabcpp/concepts.h</text>
</a>
</g>
</g>
<!-- Node2&#45;&gt;Node3 -->
<g id="edge2" class="edge">
<title>Node2&#45;&gt;Node3</title>
<path fill="none" stroke="midnightblue" d="M552.17,-236.43C555.32,-235.93 558.44,-235.44 561.5,-235 640.62,-223.5 865.86,-258.3 919.5,-199 928.74,-188.78 928.22,-178.67 919.5,-168 866.39,-103.01 616.76,-78.81 492.76,-70.68"/>
<polygon fill="midnightblue" stroke="midnightblue" points="492.81,-67.18 482.61,-70.03 492.36,-74.16 492.81,-67.18"/>
</g>
<!-- Node13 -->
<g id="node4" class="node">
<title>Node13</title>
<g id="a_node4"><a xlink:title=" ">
<polygon fill="white" stroke="#bfbfbf" points="218,-0.5 218,-19.5 269,-19.5 269,-0.5 218,-0.5"/>
<text text-anchor="middle" x="243.5" y="-7.5" font-family="Helvetica,sans-Serif" font-size="10.00">variant</text>
</a>
</g>
</g>
<!-- Node2&#45;&gt;Node13 -->
<g id="edge18" class="edge">
<title>Node2&#45;&gt;Node13</title>
<path fill="none" stroke="midnightblue" d="M418.66,-243.93C326.96,-235.61 171.47,-218.76 154.5,-199 107.69,-144.5 187.39,-61.16 225.24,-26.73"/>
<polygon fill="midnightblue" stroke="midnightblue" points="227.89,-29.05 233.03,-19.79 223.24,-23.82 227.89,-29.05"/>
</g>
<!-- Node14 -->
<g id="node5" class="node">
<title>Node14</title>
<g id="a_node5"><a xlink:href="enum_8h.html" target="_top" xlink:title=" ">
<polygon fill="white" stroke="red" points="163.5,-174 163.5,-193 267.5,-193 267.5,-174 163.5,-174"/>
<text text-anchor="middle" x="215.5" y="-181" font-family="Helvetica,sans-Serif" font-size="10.00">emlabcpp/enum.h</text>
</a>
</g>
</g>
<!-- Node2&#45;&gt;Node14 -->
<g id="edge4" class="edge">
<title>Node2&#45;&gt;Node14</title>
<path fill="none" stroke="midnightblue" d="M427.25,-235.48C377.38,-223.47 306.59,-206.43 260.85,-195.42"/>
<polygon fill="midnightblue" stroke="midnightblue" points="261.47,-191.97 250.93,-193.03 259.83,-198.77 261.47,-191.97"/>
</g>
<!-- Node15 -->
<g id="node6" class="node">
<title>Node15</title>
<g id="a_node6"><a xlink:href="decompose_8h.html" target="_top" xlink:title=" ">
<polygon fill="white" stroke="black" points="286,-168.5 286,-198.5 419,-198.5 419,-168.5 286,-168.5"/>
<text text-anchor="start" x="294" y="-186.5" font-family="Helvetica,sans-Serif" font-size="10.00">emlabcpp/experimental</text>
<text text-anchor="middle" x="352.5" y="-175.5" font-family="Helvetica,sans-Serif" font-size="10.00">/decompose.h</text>
</a>
</g>
</g>
<!-- Node2&#45;&gt;Node15 -->
<g id="edge5" class="edge">
<title>Node2&#45;&gt;Node15</title>
<path fill="none" stroke="midnightblue" d="M456.64,-235.4C437.21,-225.9 411.38,-213.28 390.31,-202.98"/>
<polygon fill="midnightblue" stroke="midnightblue" points="391.82,-199.82 381.3,-198.58 388.75,-206.11 391.82,-199.82"/>
</g>
<!-- Node8 -->
<g id="node7" class="node">
<title>Node8</title>
<g id="a_node7"><a xlink:title=" ">
<polygon fill="white" stroke="#bfbfbf" points="381,-112.5 381,-131.5 422,-131.5 422,-112.5 381,-112.5"/>
<text text-anchor="middle" x="401.5" y="-119.5" font-family="Helvetica,sans-Serif" font-size="10.00">tuple</text>
</a>
</g>
</g>
<!-- Node2&#45;&gt;Node8 -->
<g id="edge17" class="edge">
<title>Node2&#45;&gt;Node8</title>
<path fill="none" stroke="midnightblue" d="M476.19,-235.48C460.74,-212.21 429.83,-165.66 413.02,-140.36"/>
<polygon fill="midnightblue" stroke="midnightblue" points="415.78,-138.18 407.34,-131.79 409.95,-142.06 415.78,-138.18"/>
</g>
<!-- Node2&#45;&gt;Node16 -->
<g id="edge8" class="edge">
<title>Node2&#45;&gt;Node16</title>
<path fill="none" stroke="midnightblue" d="M418.85,-241.72C345.69,-232.84 224.87,-217.17 121.5,-199 114.87,-197.83 107.9,-196.49 101.06,-195.1"/>
<polygon fill="midnightblue" stroke="midnightblue" points="101.68,-191.65 91.17,-193.04 100.25,-198.5 101.68,-191.65"/>
</g>
<!-- Node18 -->
<g id="node9" class="node">
<title>Node18</title>
<g id="a_node9"><a xlink:href="types_8h.html" target="_top" xlink:title=" ">
<polygon fill="white" stroke="red" points="440.5,-112.5 440.5,-131.5 544.5,-131.5 544.5,-112.5 440.5,-112.5"/>
<text text-anchor="middle" x="492.5" y="-119.5" font-family="Helvetica,sans-Serif" font-size="10.00">emlabcpp/types.h</text>
</a>
</g>
</g>
<!-- Node2&#45;&gt;Node18 -->
<g id="edge9" class="edge">
<title>Node2&#45;&gt;Node18</title>
<path fill="none" stroke="midnightblue" d="M486.28,-235.48C487.54,-212.72 490.03,-167.7 491.45,-142.06"/>
<polygon fill="midnightblue" stroke="midnightblue" points="494.96,-141.97 492.01,-131.79 487.97,-141.58 494.96,-141.97"/>
</g>
<!-- Node20 -->
<g id="node10" class="node">
<title>Node20</title>
<g id="a_node10"><a xlink:href="view_8h.html" target="_top" xlink:title=" ">
<polygon fill="white" stroke="black" points="514,-174 514,-193 613,-193 613,-174 514,-174"/>
<text text-anchor="middle" x="563.5" y="-181" font-family="Helvetica,sans-Serif" font-size="10.00">emlabcpp/view.h</text>
</a>
</g>
</g>
<!-- Node2&#45;&gt;Node20 -->
<g id="edge11" class="edge">
<title>Node2&#45;&gt;Node20</title>
<path fill="none" stroke="midnightblue" d="M502.42,-235.4C515.07,-224.86 532.33,-210.48 545.27,-199.69"/>
<polygon fill="midnightblue" stroke="midnightblue" points="547.62,-202.29 553.07,-193.19 543.14,-196.91 547.62,-202.29"/>
</g>
<!-- Node21 -->
<g id="node11" class="node">
<title>Node21</title>
<g id="a_node11"><a xlink:title=" ">
<polygon fill="white" stroke="#bfbfbf" points="631,-174 631,-193 692,-193 692,-174 631,-174"/>
<text text-anchor="middle" x="661.5" y="-181" font-family="Helvetica,sans-Serif" font-size="10.00">charconv</text>
</a>
</g>
</g>
<!-- Node2&#45;&gt;Node21 -->
<g id="edge13" class="edge">
<title>Node2&#45;&gt;Node21</title>
<path fill="none" stroke="midnightblue" d="M523.6,-235.49C551.1,-225.37 589.1,-211.36 622.5,-199 624.59,-198.23 626.75,-197.43 628.92,-196.62"/>
<polygon fill="midnightblue" stroke="midnightblue" points="630.25,-199.86 638.41,-193.1 627.81,-193.3 630.25,-199.86"/>
</g>
<!-- Node22 -->
<g id="node12" class="node">
<title>Node22</title>
<g id="a_node12"><a xlink:title=" ">
<polygon fill="white" stroke="#bfbfbf" points="710.5,-174 710.5,-193 778.5,-193 778.5,-174 710.5,-174"/>
<text text-anchor="middle" x="744.5" y="-181" font-family="Helvetica,sans-Serif" font-size="10.00">filesystem</text>
</a>
</g>
</g>
<!-- Node2&#45;&gt;Node22 -->
<g id="edge14" class="edge">
<title>Node2&#45;&gt;Node22</title>
<path fill="none" stroke="midnightblue" d="M552.1,-235.65C595.01,-226.31 651.87,-213.13 701.5,-199 704.51,-198.14 707.62,-197.2 710.73,-196.23"/>
<polygon fill="midnightblue" stroke="midnightblue" points="712.1,-199.46 720.52,-193.04 709.93,-192.81 712.1,-199.46"/>
</g>
<!-- Node23 -->
<g id="node13" class="node">
<title>Node23</title>
<g id="a_node13"><a xlink:title=" ">
<polygon fill="white" stroke="#bfbfbf" points="796.5,-174 796.5,-193 852.5,-193 852.5,-174 796.5,-174"/>
<text text-anchor="middle" x="824.5" y="-181" font-family="Helvetica,sans-Serif" font-size="10.00">optional</text>
</a>
</g>
</g>
<!-- Node2&#45;&gt;Node23 -->
<g id="edge15" class="edge">
<title>Node2&#45;&gt;Node23</title>
<path fill="none" stroke="midnightblue" d="M552.21,-236.65C555.35,-236.09 558.46,-235.53 561.5,-235 661.69,-217.47 689.36,-225.71 787.5,-199 790.09,-198.29 792.76,-197.47 795.4,-196.57"/>
<polygon fill="midnightblue" stroke="midnightblue" points="796.61,-199.86 804.8,-193.13 794.2,-193.29 796.61,-199.86"/>
</g>
<!-- Node24 -->
<g id="node14" class="node">
<title>Node24</title>
<g id="a_node14"><a xlink:title=" ">
<polygon fill="white" stroke="#bfbfbf" points="870.5,-174 870.5,-193 910.5,-193 910.5,-174 870.5,-174"/>
<text text-anchor="middle" x="890.5" y="-181" font-family="Helvetica,sans-Serif" font-size="10.00">span</text>
</a>
</g>
</g>
<!-- Node2&#45;&gt;Node24 -->
<g id="edge16" class="edge">
<title>Node2&#45;&gt;Node24</title>
<path fill="none" stroke="midnightblue" d="M552.18,-236.51C555.33,-235.98 558.45,-235.47 561.5,-235 694.2,-214.4 732.88,-237.6 861.5,-199 863.17,-198.5 864.86,-197.91 866.54,-197.26"/>
<polygon fill="midnightblue" stroke="midnightblue" points="868.18,-200.35 875.85,-193.05 865.3,-193.97 868.18,-200.35"/>
</g>
<!-- Node3&#45;&gt;Node13 -->
<g id="edge3" class="edge">
<title>Node3&#45;&gt;Node13</title>
<path fill="none" stroke="midnightblue" d="M394.14,-56.44C362.96,-47.04 312.82,-31.91 279.04,-21.72"/>
<polygon fill="midnightblue" stroke="midnightblue" points="279.71,-18.27 269.12,-18.73 277.68,-24.97 279.71,-18.27"/>
</g>
<!-- Node15&#45;&gt;Node3 -->
<g id="edge6" class="edge">
<title>Node15&#45;&gt;Node3</title>
<path fill="none" stroke="midnightblue" d="M354.16,-168.32C356.42,-153.37 361.53,-129.6 372.5,-112 379.76,-100.35 390.9,-89.91 400.82,-82.02"/>
<polygon fill="midnightblue" stroke="midnightblue" points="403.22,-84.6 409.1,-75.79 399,-79.01 403.22,-84.6"/>
</g>
<!-- Node15&#45;&gt;Node8 -->
<g id="edge7" class="edge">
<title>Node15&#45;&gt;Node8</title>
<path fill="none" stroke="midnightblue" d="M364.11,-168.4C371.23,-159.75 380.38,-148.64 387.85,-139.58"/>
<polygon fill="midnightblue" stroke="midnightblue" points="390.71,-141.6 394.37,-131.66 385.31,-137.15 390.71,-141.6"/>
</g>
<!-- Node18&#45;&gt;Node3 -->
<g id="edge10" class="edge">
<title>Node18&#45;&gt;Node3</title>
<path fill="none" stroke="midnightblue" d="M481.25,-112.32C470.7,-104.18 454.7,-91.84 442.06,-82.09"/>
<polygon fill="midnightblue" stroke="midnightblue" points="444.01,-79.17 433.95,-75.83 439.73,-84.71 444.01,-79.17"/>
</g>
<!-- Node20&#45;&gt;Node18 -->
<g id="edge12" class="edge">
<title>Node20&#45;&gt;Node18</title>
<path fill="none" stroke="midnightblue" d="M553.33,-173.98C542.15,-164.61 523.98,-149.38 510.41,-138.01"/>
<polygon fill="midnightblue" stroke="midnightblue" points="512.57,-135.25 502.65,-131.51 508.07,-140.61 512.57,-135.25"/>
</g>
</g>
</svg>
