<?xml version="1.0" encoding="UTF-8" standalone="no"?>
<!DOCTYPE svg PUBLIC "-//W3C//DTD SVG 1.1//EN"
 "http://www.w3.org/Graphics/SVG/1.1/DTD/svg11.dtd">
<!-- Generated by graphviz version 2.43.0 (0)
 -->
<!-- Title: include/emlabcpp/experimental/matrix.h Pages: 1 -->
<svg width="635pt" height="207pt"
 viewBox="0.00 0.00 635.38 207.00" xmlns="http://www.w3.org/2000/svg" xmlns:xlink="http://www.w3.org/1999/xlink">
<g id="graph0" class="graph" transform="scale(1 1) rotate(0) translate(4 203)">
<title>include/emlabcpp/experimental/matrix.h</title>
<polygon fill="white" stroke="transparent" points="-4,4 -4,-203 631.38,-203 631.38,4 -4,4"/>
<!-- Node1 -->
<g id="node1" class="node">
<title>Node1</title>
<g id="a_node1"><a xlink:title=" ">
<polygon fill="#bfbfbf" stroke="black" points="334.38,-168.5 334.38,-198.5 505.38,-198.5 505.38,-168.5 334.38,-168.5"/>
<text text-anchor="start" x="342.38" y="-186.5" font-family="Helvetica,sans-Serif" font-size="10.00">include/emlabcpp/experimental</text>
<text text-anchor="middle" x="419.88" y="-175.5" font-family="Helvetica,sans-Serif" font-size="10.00">/matrix.h</text>
</a>
</g>
</g>
<!-- Node2 -->
<g id="node2" class="node">
<title>Node2</title>
<g id="a_node2"><a xlink:href="algorithm_8h.html" target="_top" xlink:title=" ">
<polygon fill="white" stroke="black" points="344.88,-112.5 344.88,-131.5 426.88,-131.5 426.88,-112.5 344.88,-112.5"/>
<text text-anchor="middle" x="385.88" y="-119.5" font-family="Helvetica,sans-Serif" font-size="10.00">../algorithm.h</text>
</a>
</g>
</g>
<!-- Node1&#45;&gt;Node2 -->
<g id="edge1" class="edge">
<title>Node1&#45;&gt;Node2</title>
<path fill="none" stroke="midnightblue" d="M411.83,-168.4C407.04,-160.02 400.93,-149.33 395.84,-140.42"/>
<polygon fill="midnightblue" stroke="midnightblue" points="398.83,-138.6 390.83,-131.66 392.75,-142.08 398.83,-138.6"/>
</g>
<!-- Node21 -->
<g id="node8" class="node">
<title>Node21</title>
<g id="a_node8"><a xlink:href="range_8h.html" target="_top" xlink:title=" ">
<polygon fill="white" stroke="red" points="568.38,-56.5 568.38,-75.5 627.38,-75.5 627.38,-56.5 568.38,-56.5"/>
<text text-anchor="middle" x="597.88" y="-63.5" font-family="Helvetica,sans-Serif" font-size="10.00">./range.h</text>
</a>
</g>
</g>
<!-- Node1&#45;&gt;Node21 -->
<g id="edge14" class="edge">
<title>Node1&#45;&gt;Node21</title>
<path fill="none" stroke="midnightblue" d="M441.71,-168.34C475.82,-146.2 541.41,-103.64 575.73,-81.38"/>
<polygon fill="midnightblue" stroke="midnightblue" points="578.04,-84.05 584.52,-75.67 574.23,-78.18 578.04,-84.05"/>
</g>
<!-- Node3 -->
<g id="node3" class="node">
<title>Node3</title>
<g id="a_node3"><a xlink:href="impl_8h.html" target="_top" xlink:title=" ">
<polygon fill="white" stroke="black" points="14.88,-56.5 14.88,-75.5 118.88,-75.5 118.88,-56.5 14.88,-56.5"/>
<text text-anchor="middle" x="66.88" y="-63.5" font-family="Helvetica,sans-Serif" font-size="10.00">./algorithm/impl.h</text>
</a>
</g>
</g>
<!-- Node2&#45;&gt;Node3 -->
<g id="edge2" class="edge">
<title>Node2&#45;&gt;Node3</title>
<path fill="none" stroke="midnightblue" d="M344.83,-114.05C289.57,-104.7 190.83,-87.98 127.14,-77.2"/>
<polygon fill="midnightblue" stroke="midnightblue" points="127.67,-73.74 117.23,-75.52 126.5,-80.64 127.67,-73.74"/>
</g>
<!-- Node4 -->
<g id="node4" class="node">
<title>Node4</title>
<g id="a_node4"><a xlink:href="types_8h.html" target="_top" xlink:title=" ">
<polygon fill="white" stroke="red" points="320.88,-0.5 320.88,-19.5 382.88,-19.5 382.88,-0.5 320.88,-0.5"/>
<text text-anchor="middle" x="351.88" y="-7.5" font-family="Helvetica,sans-Serif" font-size="10.00">../types.h</text>
</a>
</g>
</g>
<!-- Node2&#45;&gt;Node4 -->
<g id="edge8" class="edge">
<title>Node2&#45;&gt;Node4</title>
<path fill="none" stroke="midnightblue" d="M427.05,-116.31C476.19,-109.02 548.47,-91.89 520.88,-56 505.39,-35.84 437.86,-22.8 392.99,-16.19"/>
<polygon fill="midnightblue" stroke="midnightblue" points="393.35,-12.71 382.95,-14.76 392.36,-19.64 393.35,-12.71"/>
</g>
<!-- Node10 -->
<g id="node5" class="node">
<title>Node10</title>
<g id="a_node5"><a xlink:title=" ">
<polygon fill="white" stroke="#bfbfbf" points="6.38,-0.5 6.38,-19.5 47.38,-19.5 47.38,-0.5 6.38,-0.5"/>
<text text-anchor="middle" x="26.88" y="-7.5" font-family="Helvetica,sans-Serif" font-size="10.00">tuple</text>
</a>
</g>
</g>
<!-- Node2&#45;&gt;Node10 -->
<g id="edge13" class="edge">
<title>Node2&#45;&gt;Node10</title>
<path fill="none" stroke="midnightblue" d="M344.57,-119.15C250.77,-114.53 28.11,-101.02 5.88,-76 -6.01,-62.62 3.42,-42.42 13.17,-28.1"/>
<polygon fill="midnightblue" stroke="midnightblue" points="16.27,-29.79 19.39,-19.66 10.64,-25.63 16.27,-29.79"/>
</g>
<!-- Node17 -->
<g id="node6" class="node">
<title>Node17</title>
<g id="a_node6"><a xlink:href="bounded_8h.html" target="_top" xlink:title=" ">
<polygon fill="white" stroke="red" points="136.88,-56.5 136.88,-75.5 210.88,-75.5 210.88,-56.5 136.88,-56.5"/>
<text text-anchor="middle" x="173.88" y="-63.5" font-family="Helvetica,sans-Serif" font-size="10.00">./bounded.h</text>
</a>
</g>
</g>
<!-- Node2&#45;&gt;Node17 -->
<g id="edge5" class="edge">
<title>Node2&#45;&gt;Node17</title>
<path fill="none" stroke="midnightblue" d="M352.29,-112.44C315.7,-103.12 257.05,-88.18 217.06,-78"/>
<polygon fill="midnightblue" stroke="midnightblue" points="217.87,-74.59 207.32,-75.52 216.14,-81.38 217.87,-74.59"/>
</g>
<!-- Node19 -->
<g id="node7" class="node">
<title>Node19</title>
<g id="a_node7"><a xlink:href="min__max_8h.html" target="_top" xlink:title=" ">
<polygon fill="white" stroke="red" points="229.38,-56.5 229.38,-75.5 306.38,-75.5 306.38,-56.5 229.38,-56.5"/>
<text text-anchor="middle" x="267.88" y="-63.5" font-family="Helvetica,sans-Serif" font-size="10.00">./min_max.h</text>
</a>
</g>
</g>
<!-- Node2&#45;&gt;Node19 -->
<g id="edge6" class="edge">
<title>Node2&#45;&gt;Node19</title>
<path fill="none" stroke="midnightblue" d="M367.19,-112.44C347.94,-103.64 317.73,-89.81 295.68,-79.72"/>
<polygon fill="midnightblue" stroke="midnightblue" points="297.04,-76.5 286.49,-75.52 294.13,-82.86 297.04,-76.5"/>
</g>
<!-- Node2&#45;&gt;Node21 -->
<g id="edge7" class="edge">
<title>Node2&#45;&gt;Node21</title>
<path fill="none" stroke="midnightblue" d="M419.48,-112.44C457.17,-102.84 518.28,-87.28 558.28,-77.09"/>
<polygon fill="midnightblue" stroke="midnightblue" points="559.38,-80.42 568.21,-74.56 557.66,-73.63 559.38,-80.42"/>
</g>
<!-- Node24 -->
<g id="node9" class="node">
<title>Node24</title>
<g id="a_node9"><a xlink:href="view_8h.html" target="_top" xlink:title=" ">
<polygon fill="white" stroke="red" points="324.88,-56.5 324.88,-75.5 378.88,-75.5 378.88,-56.5 324.88,-56.5"/>
<text text-anchor="middle" x="351.88" y="-63.5" font-family="Helvetica,sans-Serif" font-size="10.00">./view.h</text>
</a>
</g>
</g>
<!-- Node2&#45;&gt;Node24 -->
<g id="edge9" class="edge">
<title>Node2&#45;&gt;Node24</title>
<path fill="none" stroke="midnightblue" d="M380.27,-112.08C375.52,-104.53 368.57,-93.49 362.73,-84.23"/>
<polygon fill="midnightblue" stroke="midnightblue" points="365.68,-82.35 357.39,-75.75 359.76,-86.08 365.68,-82.35"/>
</g>
<!-- Node26 -->
<g id="node10" class="node">
<title>Node26</title>
<g id="a_node10"><a xlink:title=" ">
<polygon fill="white" stroke="#bfbfbf" points="397.38,-56.5 397.38,-75.5 444.38,-75.5 444.38,-56.5 397.38,-56.5"/>
<text text-anchor="middle" x="420.88" y="-63.5" font-family="Helvetica,sans-Serif" font-size="10.00">cmath</text>
</a>
</g>
</g>
<!-- Node2&#45;&gt;Node26 -->
<g id="edge11" class="edge">
<title>Node2&#45;&gt;Node26</title>
<path fill="none" stroke="midnightblue" d="M391.66,-112.08C396.56,-104.53 403.71,-93.49 409.72,-84.23"/>
<polygon fill="midnightblue" stroke="midnightblue" points="412.71,-86.05 415.21,-75.75 406.84,-82.24 412.71,-86.05"/>
</g>
<!-- Node27 -->
<g id="node11" class="node">
<title>Node27</title>
<g id="a_node11"><a xlink:title=" ">
<polygon fill="white" stroke="#bfbfbf" points="462.38,-56.5 462.38,-75.5 511.38,-75.5 511.38,-56.5 462.38,-56.5"/>
<text text-anchor="middle" x="486.88" y="-63.5" font-family="Helvetica,sans-Serif" font-size="10.00">cstdlib</text>
</a>
</g>
</g>
<!-- Node2&#45;&gt;Node27 -->
<g id="edge12" class="edge">
<title>Node2&#45;&gt;Node27</title>
<path fill="none" stroke="midnightblue" d="M402.11,-112.32C418.23,-103.7 443.18,-90.36 461.85,-80.39"/>
<polygon fill="midnightblue" stroke="midnightblue" points="463.53,-83.46 470.7,-75.65 460.23,-77.28 463.53,-83.46"/>
</g>
<!-- Node3&#45;&gt;Node4 -->
<g id="edge3" class="edge">
<title>Node3&#45;&gt;Node4</title>
<path fill="none" stroke="midnightblue" d="M112.04,-56.44C166.63,-46.1 257.74,-28.84 310.55,-18.83"/>
<polygon fill="midnightblue" stroke="midnightblue" points="311.41,-22.23 320.58,-16.93 310.11,-15.35 311.41,-22.23"/>
</g>
<!-- Node3&#45;&gt;Node10 -->
<g id="edge4" class="edge">
<title>Node3&#45;&gt;Node10</title>
<path fill="none" stroke="midnightblue" d="M60.28,-56.08C54.63,-48.46 46.34,-37.26 39.43,-27.94"/>
<polygon fill="midnightblue" stroke="midnightblue" points="42.13,-25.7 33.37,-19.75 36.51,-29.87 42.13,-25.7"/>
</g>
<!-- Node24&#45;&gt;Node4 -->
<g id="edge10" class="edge">
<title>Node24&#45;&gt;Node4</title>
<path fill="none" stroke="midnightblue" d="M351.88,-56.08C351.88,-49.01 351.88,-38.86 351.88,-29.99"/>
<polygon fill="midnightblue" stroke="midnightblue" points="355.38,-29.75 351.88,-19.75 348.38,-29.75 355.38,-29.75"/>
</g>
</g>
</svg>
