<?xml version="1.0" encoding="UTF-8" standalone="no"?>
<!DOCTYPE svg PUBLIC "-//W3C//DTD SVG 1.1//EN"
 "http://www.w3.org/Graphics/SVG/1.1/DTD/svg11.dtd">
<!-- Generated by graphviz version 2.43.0 (0)
 -->
<!-- Title: include/emlabcpp/experimental/matrix.hpp Pages: 1 -->
<svg width="672pt" height="263pt"
 viewBox="0.00 0.00 671.50 263.00" xmlns="http://www.w3.org/2000/svg" xmlns:xlink="http://www.w3.org/1999/xlink">
<g id="graph0" class="graph" transform="scale(1 1) rotate(0) translate(4 259)">
<title>include/emlabcpp/experimental/matrix.hpp</title>
<polygon fill="white" stroke="transparent" points="-4,4 -4,-259 667.5,-259 667.5,4 -4,4"/>
<!-- Node1 -->
<g id="node1" class="node">
<title>Node1</title>
<g id="a_node1"><a xlink:title=" ">
<polygon fill="#bfbfbf" stroke="black" points="346.5,-224.5 346.5,-254.5 517.5,-254.5 517.5,-224.5 346.5,-224.5"/>
<text text-anchor="start" x="354.5" y="-242.5" font-family="Helvetica,sans-Serif" font-size="10.00">include/emlabcpp/experimental</text>
<text text-anchor="middle" x="432" y="-231.5" font-family="Helvetica,sans-Serif" font-size="10.00">/matrix.hpp</text>
</a>
</g>
</g>
<!-- Node2 -->
<g id="node2" class="node">
<title>Node2</title>
<g id="a_node2"><a xlink:href="algorithm_8hpp.html" target="_top" xlink:title=" ">
<polygon fill="white" stroke="black" points="348,-168.5 348,-187.5 442,-187.5 442,-168.5 348,-168.5"/>
<text text-anchor="middle" x="395" y="-175.5" font-family="Helvetica,sans-Serif" font-size="10.00">../algorithm.hpp</text>
</a>
</g>
</g>
<!-- Node1&#45;&gt;Node2 -->
<g id="edge1" class="edge">
<title>Node1&#45;&gt;Node2</title>
<path fill="none" stroke="midnightblue" d="M423.23,-224.4C418.02,-216.02 411.37,-205.33 405.83,-196.42"/>
<polygon fill="midnightblue" stroke="midnightblue" points="408.64,-194.3 400.38,-187.66 402.69,-198 408.64,-194.3"/>
</g>
<!-- Node21 -->
<g id="node8" class="node">
<title>Node21</title>
<g id="a_node8"><a xlink:href="range_8hpp.html" target="_top" xlink:title=" ">
<polygon fill="white" stroke="red" points="592.5,-112.5 592.5,-131.5 663.5,-131.5 663.5,-112.5 592.5,-112.5"/>
<text text-anchor="middle" x="628" y="-119.5" font-family="Helvetica,sans-Serif" font-size="10.00">./range.hpp</text>
</a>
</g>
</g>
<!-- Node1&#45;&gt;Node21 -->
<g id="edge15" class="edge">
<title>Node1&#45;&gt;Node21</title>
<path fill="none" stroke="midnightblue" d="M456.03,-224.34C493.92,-202.01 567.05,-158.91 604.56,-136.81"/>
<polygon fill="midnightblue" stroke="midnightblue" points="606.45,-139.76 613.29,-131.67 602.9,-133.73 606.45,-139.76"/>
</g>
<!-- Node3 -->
<g id="node3" class="node">
<title>Node3</title>
<g id="a_node3"><a xlink:href="impl_8hpp.html" target="_top" xlink:title=" ">
<polygon fill="white" stroke="black" points="0,-112.5 0,-131.5 116,-131.5 116,-112.5 0,-112.5"/>
<text text-anchor="middle" x="58" y="-119.5" font-family="Helvetica,sans-Serif" font-size="10.00">./algorithm/impl.hpp</text>
</a>
</g>
</g>
<!-- Node2&#45;&gt;Node3 -->
<g id="edge2" class="edge">
<title>Node2&#45;&gt;Node3</title>
<path fill="none" stroke="midnightblue" d="M347.79,-169.43C288.72,-159.97 187.36,-143.73 121.53,-133.18"/>
<polygon fill="midnightblue" stroke="midnightblue" points="121.71,-129.66 111.28,-131.54 120.6,-136.58 121.71,-129.66"/>
</g>
<!-- Node4 -->
<g id="node4" class="node">
<title>Node4</title>
<g id="a_node4"><a xlink:href="types_8hpp.html" target="_top" xlink:title=" ">
<polygon fill="white" stroke="red" points="145,-0.5 145,-19.5 219,-19.5 219,-0.5 145,-0.5"/>
<text text-anchor="middle" x="182" y="-7.5" font-family="Helvetica,sans-Serif" font-size="10.00">../types.hpp</text>
</a>
</g>
</g>
<!-- Node2&#45;&gt;Node4 -->
<g id="edge10" class="edge">
<title>Node2&#45;&gt;Node4</title>
<path fill="none" stroke="midnightblue" d="M347.63,-172.07C296.77,-165.77 220.61,-153.07 201,-132 175.14,-104.2 176.11,-56.31 179.06,-29.88"/>
<polygon fill="midnightblue" stroke="midnightblue" points="182.57,-30.07 180.43,-19.69 175.63,-29.14 182.57,-30.07"/>
</g>
<!-- Node10 -->
<g id="node5" class="node">
<title>Node10</title>
<g id="a_node5"><a xlink:title=" ">
<polygon fill="white" stroke="#bfbfbf" points="106.5,-56.5 106.5,-75.5 147.5,-75.5 147.5,-56.5 106.5,-56.5"/>
<text text-anchor="middle" x="127" y="-63.5" font-family="Helvetica,sans-Serif" font-size="10.00">tuple</text>
</a>
</g>
</g>
<!-- Node2&#45;&gt;Node10 -->
<g id="edge14" class="edge">
<title>Node2&#45;&gt;Node10</title>
<path fill="none" stroke="midnightblue" d="M347.92,-172.08C290.24,-165.31 196.65,-151.68 168,-132 151.54,-120.69 140.31,-100.39 133.82,-85.47"/>
<polygon fill="midnightblue" stroke="midnightblue" points="136.9,-83.75 129.93,-75.77 130.41,-86.35 136.9,-83.75"/>
</g>
<!-- Node17 -->
<g id="node6" class="node">
<title>Node17</title>
<g id="a_node6"><a xlink:href="bounded_8hpp.html" target="_top" xlink:title=" ">
<polygon fill="white" stroke="red" points="210,-112.5 210,-131.5 296,-131.5 296,-112.5 210,-112.5"/>
<text text-anchor="middle" x="253" y="-119.5" font-family="Helvetica,sans-Serif" font-size="10.00">./bounded.hpp</text>
</a>
</g>
</g>
<!-- Node2&#45;&gt;Node17 -->
<g id="edge5" class="edge">
<title>Node2&#45;&gt;Node17</title>
<path fill="none" stroke="midnightblue" d="M372.5,-168.44C348.92,-159.48 311.68,-145.31 285.04,-135.18"/>
<polygon fill="midnightblue" stroke="midnightblue" points="285.99,-131.8 275.4,-131.52 283.5,-138.34 285.99,-131.8"/>
</g>
<!-- Node19 -->
<g id="node7" class="node">
<title>Node19</title>
<g id="a_node7"><a xlink:href="min__max_8hpp.html" target="_top" xlink:title=" ">
<polygon fill="white" stroke="red" points="314.5,-112.5 314.5,-131.5 403.5,-131.5 403.5,-112.5 314.5,-112.5"/>
<text text-anchor="middle" x="359" y="-119.5" font-family="Helvetica,sans-Serif" font-size="10.00">./min_max.hpp</text>
</a>
</g>
</g>
<!-- Node2&#45;&gt;Node19 -->
<g id="edge6" class="edge">
<title>Node2&#45;&gt;Node19</title>
<path fill="none" stroke="midnightblue" d="M389.06,-168.08C384.02,-160.53 376.66,-149.49 370.49,-140.23"/>
<polygon fill="midnightblue" stroke="midnightblue" points="373.29,-138.13 364.83,-131.75 367.47,-142.01 373.29,-138.13"/>
</g>
<!-- Node2&#45;&gt;Node21 -->
<g id="edge7" class="edge">
<title>Node2&#45;&gt;Node21</title>
<path fill="none" stroke="midnightblue" d="M431.92,-168.44C472.75,-158.98 538.57,-143.73 582.54,-133.54"/>
<polygon fill="midnightblue" stroke="midnightblue" points="583.45,-136.92 592.4,-131.25 581.87,-130.1 583.45,-136.92"/>
</g>
<!-- Node24 -->
<g id="node9" class="node">
<title>Node24</title>
<g id="a_node9"><a xlink:href="view_8hpp.html" target="_top" xlink:title=" ">
<polygon fill="white" stroke="red" points="399,-56.5 399,-75.5 465,-75.5 465,-56.5 399,-56.5"/>
<text text-anchor="middle" x="432" y="-63.5" font-family="Helvetica,sans-Serif" font-size="10.00">./view.hpp</text>
</a>
</g>
</g>
<!-- Node2&#45;&gt;Node24 -->
<g id="edge11" class="edge">
<title>Node2&#45;&gt;Node24</title>
<path fill="none" stroke="midnightblue" d="M398.7,-168.47C402.52,-159.48 408.55,-144.88 413,-132 418.34,-116.55 423.48,-98.7 427.07,-85.62"/>
<polygon fill="midnightblue" stroke="midnightblue" points="430.46,-86.48 429.69,-75.92 423.7,-84.66 430.46,-86.48"/>
</g>
<!-- Node26 -->
<g id="node10" class="node">
<title>Node26</title>
<g id="a_node10"><a xlink:title=" ">
<polygon fill="white" stroke="#bfbfbf" points="460.5,-112.5 460.5,-131.5 507.5,-131.5 507.5,-112.5 460.5,-112.5"/>
<text text-anchor="middle" x="484" y="-119.5" font-family="Helvetica,sans-Serif" font-size="10.00">cmath</text>
</a>
</g>
</g>
<!-- Node2&#45;&gt;Node26 -->
<g id="edge12" class="edge">
<title>Node2&#45;&gt;Node26</title>
<path fill="none" stroke="midnightblue" d="M409.3,-168.32C423.18,-159.9 444.49,-146.97 460.8,-137.07"/>
<polygon fill="midnightblue" stroke="midnightblue" points="463,-139.83 469.74,-131.65 459.37,-133.85 463,-139.83"/>
</g>
<!-- Node27 -->
<g id="node11" class="node">
<title>Node27</title>
<g id="a_node11"><a xlink:title=" ">
<polygon fill="white" stroke="#bfbfbf" points="525.5,-112.5 525.5,-131.5 574.5,-131.5 574.5,-112.5 525.5,-112.5"/>
<text text-anchor="middle" x="550" y="-119.5" font-family="Helvetica,sans-Serif" font-size="10.00">cstdlib</text>
</a>
</g>
</g>
<!-- Node2&#45;&gt;Node27 -->
<g id="edge13" class="edge">
<title>Node2&#45;&gt;Node27</title>
<path fill="none" stroke="midnightblue" d="M419.56,-168.44C445.52,-159.4 486.67,-145.06 515.8,-134.92"/>
<polygon fill="midnightblue" stroke="midnightblue" points="517.26,-138.11 525.55,-131.52 514.96,-131.5 517.26,-138.11"/>
</g>
<!-- Node3&#45;&gt;Node4 -->
<g id="edge3" class="edge">
<title>Node3&#45;&gt;Node4</title>
<path fill="none" stroke="midnightblue" d="M61.35,-112.42C66.97,-98.95 79.43,-72.66 97,-56 111.69,-42.08 131.52,-31.25 148.34,-23.71"/>
<polygon fill="midnightblue" stroke="midnightblue" points="150.01,-26.8 157.83,-19.65 147.26,-20.36 150.01,-26.8"/>
</g>
<!-- Node3&#45;&gt;Node10 -->
<g id="edge4" class="edge">
<title>Node3&#45;&gt;Node10</title>
<path fill="none" stroke="midnightblue" d="M69.09,-112.32C79.49,-104.18 95.26,-91.84 107.72,-82.09"/>
<polygon fill="midnightblue" stroke="midnightblue" points="109.99,-84.75 115.71,-75.83 105.68,-79.24 109.99,-84.75"/>
</g>
<!-- Node21&#45;&gt;Node24 -->
<g id="edge8" class="edge">
<title>Node21&#45;&gt;Node24</title>
<path fill="none" stroke="midnightblue" d="M596.94,-112.44C563.4,-103.2 509.8,-88.44 472.86,-78.26"/>
<polygon fill="midnightblue" stroke="midnightblue" points="473.48,-74.8 462.91,-75.52 471.62,-81.55 473.48,-74.8"/>
</g>
<!-- Node24&#45;&gt;Node4 -->
<g id="edge9" class="edge">
<title>Node24&#45;&gt;Node4</title>
<path fill="none" stroke="midnightblue" d="M398.8,-57.83C355.19,-48.41 278.34,-31.81 228.82,-21.11"/>
<polygon fill="midnightblue" stroke="midnightblue" points="229.51,-17.68 219,-18.99 228.04,-24.52 229.51,-17.68"/>
</g>
</g>
</svg>
