<?xml version="1.0" encoding="UTF-8" standalone="no"?>
<!DOCTYPE svg PUBLIC "-//W3C//DTD SVG 1.1//EN"
 "http://www.w3.org/Graphics/SVG/1.1/DTD/svg11.dtd">
<!-- Generated by graphviz version 2.43.0 (0)
 -->
<!-- Title: include/emlabcpp/experimental/matrix.h Pages: 1 -->
<svg width="827pt" height="218pt"
 viewBox="0.00 0.00 827.10 218.00" xmlns="http://www.w3.org/2000/svg" xmlns:xlink="http://www.w3.org/1999/xlink">
<g id="graph0" class="graph" transform="scale(1 1) rotate(0) translate(4 214)">
<title>include/emlabcpp/experimental/matrix.h</title>
<polygon fill="white" stroke="transparent" points="-4,4 -4,-214 823.1,-214 823.1,4 -4,4"/>
<!-- Node1 -->
<g id="node1" class="node">
<title>Node1</title>
<g id="a_node1"><a xlink:title=" ">
<polygon fill="#bfbfbf" stroke="black" points="481.6,-179.5 481.6,-209.5 652.6,-209.5 652.6,-179.5 481.6,-179.5"/>
<text text-anchor="start" x="489.6" y="-197.5" font-family="Helvetica,sans-Serif" font-size="10.00">include/emlabcpp/experimental</text>
<text text-anchor="middle" x="567.1" y="-186.5" font-family="Helvetica,sans-Serif" font-size="10.00">/matrix.h</text>
</a>
</g>
</g>
<!-- Node2 -->
<g id="node2" class="node">
<title>Node2</title>
<g id="a_node2"><a xlink:href="algorithm_8h.html" target="_top" xlink:title=" ">
<polygon fill="white" stroke="black" points="460.1,-123.5 460.1,-142.5 584.1,-142.5 584.1,-123.5 460.1,-123.5"/>
<text text-anchor="middle" x="522.1" y="-130.5" font-family="Helvetica,sans-Serif" font-size="10.00">emlabcpp/algorithm.h</text>
</a>
</g>
</g>
<!-- Node1&#45;&gt;Node2 -->
<g id="edge1" class="edge">
<title>Node1&#45;&gt;Node2</title>
<path fill="none" stroke="midnightblue" d="M556.43,-179.4C549.96,-170.84 541.67,-159.87 534.85,-150.86"/>
<polygon fill="midnightblue" stroke="midnightblue" points="537.47,-148.52 528.65,-142.66 531.89,-152.74 537.47,-148.52"/>
</g>
<!-- Node21 -->
<g id="node8" class="node">
<title>Node21</title>
<g id="a_node8"><a xlink:href="range_8h.html" target="_top" xlink:title=" ">
<polygon fill="white" stroke="red" points="715.1,-62 715.1,-81 819.1,-81 819.1,-62 715.1,-62"/>
<text text-anchor="middle" x="767.1" y="-69" font-family="Helvetica,sans-Serif" font-size="10.00">emlabcpp/range.h</text>
</a>
</g>
</g>
<!-- Node1&#45;&gt;Node21 -->
<g id="edge14" class="edge">
<title>Node1&#45;&gt;Node21</title>
<path fill="none" stroke="midnightblue" d="M590.43,-179.38C629,-156.05 705.59,-109.71 744,-86.47"/>
<polygon fill="midnightblue" stroke="midnightblue" points="746.15,-89.26 752.9,-81.09 742.53,-83.27 746.15,-89.26"/>
</g>
<!-- Node3 -->
<g id="node3" class="node">
<title>Node3</title>
<g id="a_node3"><a xlink:href="impl_8h.html" target="_top" xlink:title=" ">
<polygon fill="white" stroke="black" points="16.6,-56.5 16.6,-86.5 131.6,-86.5 131.6,-56.5 16.6,-56.5"/>
<text text-anchor="start" x="24.6" y="-74.5" font-family="Helvetica,sans-Serif" font-size="10.00">emlabcpp/algorithm</text>
<text text-anchor="middle" x="74.1" y="-63.5" font-family="Helvetica,sans-Serif" font-size="10.00">/impl.h</text>
</a>
</g>
</g>
<!-- Node2&#45;&gt;Node3 -->
<g id="edge2" class="edge">
<title>Node2&#45;&gt;Node3</title>
<path fill="none" stroke="midnightblue" d="M459.97,-126.59C386.23,-119.74 259.39,-106.61 141.54,-87.15"/>
<polygon fill="midnightblue" stroke="midnightblue" points="142.07,-83.69 131.63,-85.49 140.91,-90.59 142.07,-83.69"/>
</g>
<!-- Node4 -->
<g id="node4" class="node">
<title>Node4</title>
<g id="a_node4"><a xlink:href="types_8h.html" target="_top" xlink:title=" ">
<polygon fill="white" stroke="red" points="425.1,-0.5 425.1,-19.5 529.1,-19.5 529.1,-0.5 425.1,-0.5"/>
<text text-anchor="middle" x="477.1" y="-7.5" font-family="Helvetica,sans-Serif" font-size="10.00">emlabcpp/types.h</text>
</a>
</g>
</g>
<!-- Node2&#45;&gt;Node4 -->
<g id="edge8" class="edge">
<title>Node2&#45;&gt;Node4</title>
<path fill="none" stroke="midnightblue" d="M578.32,-123.46C630.74,-113.09 696.84,-92.29 668.1,-56 652.17,-35.88 588.87,-23.86 539.45,-17.37"/>
<polygon fill="midnightblue" stroke="midnightblue" points="539.81,-13.89 529.45,-16.11 538.94,-20.84 539.81,-13.89"/>
</g>
<!-- Node10 -->
<g id="node5" class="node">
<title>Node10</title>
<g id="a_node5"><a xlink:title=" ">
<polygon fill="white" stroke="#bfbfbf" points="10.6,-0.5 10.6,-19.5 51.6,-19.5 51.6,-0.5 10.6,-0.5"/>
<text text-anchor="middle" x="31.1" y="-7.5" font-family="Helvetica,sans-Serif" font-size="10.00">tuple</text>
</a>
</g>
</g>
<!-- Node2&#45;&gt;Node10 -->
<g id="edge13" class="edge">
<title>Node2&#45;&gt;Node10</title>
<path fill="none" stroke="midnightblue" d="M459.89,-131.17C329.51,-128.78 37.15,-119.79 7.1,-87 -7.89,-70.65 5.31,-44.97 17.27,-28.06"/>
<polygon fill="midnightblue" stroke="midnightblue" points="20.36,-29.77 23.59,-19.69 14.77,-25.55 20.36,-29.77"/>
</g>
<!-- Node17 -->
<g id="node6" class="node">
<title>Node17</title>
<g id="a_node6"><a xlink:href="bounded_8h.html" target="_top" xlink:title=" ">
<polygon fill="white" stroke="red" points="149.6,-62 149.6,-81 268.6,-81 268.6,-62 149.6,-62"/>
<text text-anchor="middle" x="209.1" y="-69" font-family="Helvetica,sans-Serif" font-size="10.00">emlabcpp/bounded.h</text>
</a>
</g>
</g>
<!-- Node2&#45;&gt;Node17 -->
<g id="edge5" class="edge">
<title>Node2&#45;&gt;Node17</title>
<path fill="none" stroke="midnightblue" d="M473.88,-123.47C424.62,-114.67 345.93,-100.38 278.1,-87 271.87,-85.77 265.34,-84.45 258.88,-83.11"/>
<polygon fill="midnightblue" stroke="midnightblue" points="259.34,-79.63 248.84,-81.03 257.91,-86.49 259.34,-79.63"/>
</g>
<!-- Node19 -->
<g id="node7" class="node">
<title>Node19</title>
<g id="a_node7"><a xlink:href="min__max_8h.html" target="_top" xlink:title=" ">
<polygon fill="white" stroke="red" points="287.1,-62 287.1,-81 409.1,-81 409.1,-62 287.1,-62"/>
<text text-anchor="middle" x="348.1" y="-69" font-family="Helvetica,sans-Serif" font-size="10.00">emlabcpp/min_max.h</text>
</a>
</g>
</g>
<!-- Node2&#45;&gt;Node19 -->
<g id="edge6" class="edge">
<title>Node2&#45;&gt;Node19</title>
<path fill="none" stroke="midnightblue" d="M497.17,-123.48C467.06,-113.18 416.27,-95.81 382.46,-84.25"/>
<polygon fill="midnightblue" stroke="midnightblue" points="383.58,-80.93 372.98,-81.01 381.31,-87.56 383.58,-80.93"/>
</g>
<!-- Node2&#45;&gt;Node21 -->
<g id="edge7" class="edge">
<title>Node2&#45;&gt;Node21</title>
<path fill="none" stroke="midnightblue" d="M557.2,-123.48C600.59,-112.94 674.51,-94.99 722.05,-83.44"/>
<polygon fill="midnightblue" stroke="midnightblue" points="723.17,-86.77 732.06,-81.01 721.52,-79.97 723.17,-86.77"/>
</g>
<!-- Node24 -->
<g id="node9" class="node">
<title>Node24</title>
<g id="a_node9"><a xlink:href="view_8h.html" target="_top" xlink:title=" ">
<polygon fill="white" stroke="red" points="427.6,-62 427.6,-81 526.6,-81 526.6,-62 427.6,-62"/>
<text text-anchor="middle" x="477.1" y="-69" font-family="Helvetica,sans-Serif" font-size="10.00">emlabcpp/view.h</text>
</a>
</g>
</g>
<!-- Node2&#45;&gt;Node24 -->
<g id="edge9" class="edge">
<title>Node2&#45;&gt;Node24</title>
<path fill="none" stroke="midnightblue" d="M515.65,-123.48C508.9,-114.55 498.13,-100.31 489.69,-89.14"/>
<polygon fill="midnightblue" stroke="midnightblue" points="492.36,-86.87 483.53,-81.01 486.78,-91.1 492.36,-86.87"/>
</g>
<!-- Node26 -->
<g id="node10" class="node">
<title>Node26</title>
<g id="a_node10"><a xlink:title=" ">
<polygon fill="white" stroke="#bfbfbf" points="544.6,-62 544.6,-81 591.6,-81 591.6,-62 544.6,-62"/>
<text text-anchor="middle" x="568.1" y="-69" font-family="Helvetica,sans-Serif" font-size="10.00">cmath</text>
</a>
</g>
</g>
<!-- Node2&#45;&gt;Node26 -->
<g id="edge11" class="edge">
<title>Node2&#45;&gt;Node26</title>
<path fill="none" stroke="midnightblue" d="M528.69,-123.48C535.59,-114.55 546.6,-100.31 555.23,-89.14"/>
<polygon fill="midnightblue" stroke="midnightblue" points="558.17,-91.06 561.52,-81.01 552.64,-86.78 558.17,-91.06"/>
</g>
<!-- Node27 -->
<g id="node11" class="node">
<title>Node27</title>
<g id="a_node11"><a xlink:title=" ">
<polygon fill="white" stroke="#bfbfbf" points="609.6,-62 609.6,-81 658.6,-81 658.6,-62 609.6,-62"/>
<text text-anchor="middle" x="634.1" y="-69" font-family="Helvetica,sans-Serif" font-size="10.00">cstdlib</text>
</a>
</g>
</g>
<!-- Node2&#45;&gt;Node27 -->
<g id="edge12" class="edge">
<title>Node2&#45;&gt;Node27</title>
<path fill="none" stroke="midnightblue" d="M538.15,-123.48C556.69,-113.62 587.44,-97.29 609.12,-85.77"/>
<polygon fill="midnightblue" stroke="midnightblue" points="610.89,-88.79 618.08,-81.01 607.61,-82.61 610.89,-88.79"/>
</g>
<!-- Node3&#45;&gt;Node4 -->
<g id="edge3" class="edge">
<title>Node3&#45;&gt;Node4</title>
<path fill="none" stroke="midnightblue" d="M131.64,-57.56C134.49,-57.01 137.33,-56.49 140.1,-56 235.48,-39.19 347.03,-25.44 414.84,-17.74"/>
<polygon fill="midnightblue" stroke="midnightblue" points="415.39,-21.2 424.93,-16.6 414.6,-14.24 415.39,-21.2"/>
</g>
<!-- Node3&#45;&gt;Node10 -->
<g id="edge4" class="edge">
<title>Node3&#45;&gt;Node10</title>
<path fill="none" stroke="midnightblue" d="M63.91,-56.4C57.72,-47.84 49.8,-36.87 43.28,-27.86"/>
<polygon fill="midnightblue" stroke="midnightblue" points="46.05,-25.71 37.36,-19.66 40.38,-29.81 46.05,-25.71"/>
</g>
<!-- Node24&#45;&gt;Node4 -->
<g id="edge10" class="edge">
<title>Node24&#45;&gt;Node4</title>
<path fill="none" stroke="midnightblue" d="M477.1,-61.98C477.1,-53.58 477.1,-40.48 477.1,-29.66"/>
<polygon fill="midnightblue" stroke="midnightblue" points="480.6,-29.51 477.1,-19.51 473.6,-29.51 480.6,-29.51"/>
</g>
</g>
</svg>
