<?xml version="1.0" encoding="UTF-8" standalone="no"?>
<!DOCTYPE svg PUBLIC "-//W3C//DTD SVG 1.1//EN"
 "http://www.w3.org/Graphics/SVG/1.1/DTD/svg11.dtd">
<!-- Generated by graphviz version 2.43.0 (0)
 -->
<!-- Title: include/emlabcpp/experimental/matrix.h Pages: 1 -->
<svg width="563pt" height="285pt"
 viewBox="0.00 0.00 563.42 285.00" xmlns="http://www.w3.org/2000/svg" xmlns:xlink="http://www.w3.org/1999/xlink">
<g id="graph0" class="graph" transform="scale(1 1) rotate(0) translate(4 281)">
<title>include/emlabcpp/experimental/matrix.h</title>
<polygon fill="white" stroke="transparent" points="-4,4 -4,-281 559.42,-281 559.42,4 -4,4"/>
<!-- Node1 -->
<g id="node1" class="node">
<title>Node1</title>
<g id="a_node1"><a xlink:title=" ">
<polygon fill="#bfbfbf" stroke="black" points="320.42,-246.5 320.42,-276.5 491.42,-276.5 491.42,-246.5 320.42,-246.5"/>
<text text-anchor="start" x="328.42" y="-264.5" font-family="Helvetica,sans-Serif" font-size="10.00">include/emlabcpp/experimental</text>
<text text-anchor="middle" x="405.92" y="-253.5" font-family="Helvetica,sans-Serif" font-size="10.00">/matrix.h</text>
</a>
</g>
</g>
<!-- Node2 -->
<g id="node2" class="node">
<title>Node2</title>
<g id="a_node2"><a xlink:href="algorithm_8h.html" target="_top" xlink:title=" ">
<polygon fill="white" stroke="black" points="276.92,-123.5 276.92,-142.5 400.92,-142.5 400.92,-123.5 276.92,-123.5"/>
<text text-anchor="middle" x="338.92" y="-130.5" font-family="Helvetica,sans-Serif" font-size="10.00">emlabcpp/algorithm.h</text>
</a>
</g>
</g>
<!-- Node1&#45;&gt;Node2 -->
<g id="edge1" class="edge">
<title>Node1&#45;&gt;Node2</title>
<path fill="none" stroke="midnightblue" d="M398.49,-246.48C386.22,-223.31 361.73,-177.07 348.29,-151.69"/>
<polygon fill="midnightblue" stroke="midnightblue" points="351.35,-149.99 343.57,-142.79 345.16,-153.26 351.35,-149.99"/>
</g>
<!-- Node24 -->
<g id="node10" class="node">
<title>Node24</title>
<g id="a_node10"><a xlink:href="numeric_8h.html" target="_top" xlink:title=" ">
<polygon fill="white" stroke="black" points="406.42,-179.5 406.42,-209.5 515.42,-209.5 515.42,-179.5 406.42,-179.5"/>
<text text-anchor="start" x="414.42" y="-197.5" font-family="Helvetica,sans-Serif" font-size="10.00">emlabcpp/iterators</text>
<text text-anchor="middle" x="460.92" y="-186.5" font-family="Helvetica,sans-Serif" font-size="10.00">/numeric.h</text>
</a>
</g>
</g>
<!-- Node1&#45;&gt;Node24 -->
<g id="edge12" class="edge">
<title>Node1&#45;&gt;Node24</title>
<path fill="none" stroke="midnightblue" d="M417.85,-246.4C425.06,-237.88 434.39,-226.85 442.53,-217.23"/>
<polygon fill="midnightblue" stroke="midnightblue" points="445.22,-219.47 449.01,-209.58 439.88,-214.95 445.22,-219.47"/>
</g>
<!-- Node3 -->
<g id="node3" class="node">
<title>Node3</title>
<g id="a_node3"><a xlink:href="impl_8h.html" target="_top" xlink:title=" ">
<polygon fill="white" stroke="black" points="15.42,-56.5 15.42,-86.5 130.42,-86.5 130.42,-56.5 15.42,-56.5"/>
<text text-anchor="start" x="23.42" y="-74.5" font-family="Helvetica,sans-Serif" font-size="10.00">emlabcpp/algorithm</text>
<text text-anchor="middle" x="72.92" y="-63.5" font-family="Helvetica,sans-Serif" font-size="10.00">/impl.h</text>
</a>
</g>
</g>
<!-- Node2&#45;&gt;Node3 -->
<g id="edge2" class="edge">
<title>Node2&#45;&gt;Node3</title>
<path fill="none" stroke="midnightblue" d="M300.81,-123.48C259.06,-114.14 191.28,-98.98 140.47,-87.61"/>
<polygon fill="midnightblue" stroke="midnightblue" points="141.07,-84.16 130.55,-85.39 139.54,-90.99 141.07,-84.16"/>
</g>
<!-- Node4 -->
<g id="node4" class="node">
<title>Node4</title>
<g id="a_node4"><a xlink:href="types_8h.html" target="_top" xlink:title=" ">
<polygon fill="white" stroke="red" points="375.92,-0.5 375.92,-19.5 479.92,-19.5 479.92,-0.5 375.92,-0.5"/>
<text text-anchor="middle" x="427.92" y="-7.5" font-family="Helvetica,sans-Serif" font-size="10.00">emlabcpp/types.h</text>
</a>
</g>
</g>
<!-- Node2&#45;&gt;Node4 -->
<g id="edge6" class="edge">
<title>Node2&#45;&gt;Node4</title>
<path fill="none" stroke="midnightblue" d="M360.43,-123.4C376.16,-116.03 396.79,-103.91 408.92,-87 421.03,-70.12 425.45,-46.32 427.05,-29.88"/>
<polygon fill="midnightblue" stroke="midnightblue" points="430.54,-30.06 427.76,-19.84 423.56,-29.57 430.54,-30.06"/>
</g>
<!-- Node10 -->
<g id="node5" class="node">
<title>Node10</title>
<g id="a_node5"><a xlink:title=" ">
<polygon fill="white" stroke="#bfbfbf" points="9.42,-0.5 9.42,-19.5 50.42,-19.5 50.42,-0.5 9.42,-0.5"/>
<text text-anchor="middle" x="29.92" y="-7.5" font-family="Helvetica,sans-Serif" font-size="10.00">tuple</text>
</a>
</g>
</g>
<!-- Node2&#45;&gt;Node10 -->
<g id="edge11" class="edge">
<title>Node2&#45;&gt;Node10</title>
<path fill="none" stroke="midnightblue" d="M276.9,-132.88C190.67,-132.62 41.26,-126.31 6.92,-87 -7.62,-70.36 5.07,-44.75 16.59,-27.94"/>
<polygon fill="midnightblue" stroke="midnightblue" points="19.6,-29.75 22.68,-19.62 13.95,-25.62 19.6,-29.75"/>
</g>
<!-- Node17 -->
<g id="node6" class="node">
<title>Node17</title>
<g id="a_node6"><a xlink:href="bounded_8h.html" target="_top" xlink:title=" ">
<polygon fill="white" stroke="red" points="148.42,-62 148.42,-81 267.42,-81 267.42,-62 148.42,-62"/>
<text text-anchor="middle" x="207.92" y="-69" font-family="Helvetica,sans-Serif" font-size="10.00">emlabcpp/bounded.h</text>
</a>
</g>
</g>
<!-- Node2&#45;&gt;Node17 -->
<g id="edge5" class="edge">
<title>Node2&#45;&gt;Node17</title>
<path fill="none" stroke="midnightblue" d="M320.15,-123.48C298.07,-113.45 261.2,-96.7 235.78,-85.15"/>
<polygon fill="midnightblue" stroke="midnightblue" points="237.2,-81.96 226.65,-81.01 234.31,-88.33 237.2,-81.96"/>
</g>
<!-- Node21 -->
<g id="node7" class="node">
<title>Node21</title>
<g id="a_node7"><a xlink:href="view_8h.html" target="_top" xlink:title=" ">
<polygon fill="white" stroke="black" points="456.42,-62 456.42,-81 555.42,-81 555.42,-62 456.42,-62"/>
<text text-anchor="middle" x="505.92" y="-69" font-family="Helvetica,sans-Serif" font-size="10.00">emlabcpp/view.h</text>
</a>
</g>
</g>
<!-- Node2&#45;&gt;Node21 -->
<g id="edge7" class="edge">
<title>Node2&#45;&gt;Node21</title>
<path fill="none" stroke="midnightblue" d="M362.84,-123.48C391.62,-113.22 440.07,-95.96 472.52,-84.4"/>
<polygon fill="midnightblue" stroke="midnightblue" points="473.79,-87.66 482.04,-81.01 471.44,-81.07 473.79,-87.66"/>
</g>
<!-- Node22 -->
<g id="node8" class="node">
<title>Node22</title>
<g id="a_node8"><a xlink:title=" ">
<polygon fill="white" stroke="#bfbfbf" points="285.42,-62 285.42,-81 332.42,-81 332.42,-62 285.42,-62"/>
<text text-anchor="middle" x="308.92" y="-69" font-family="Helvetica,sans-Serif" font-size="10.00">cmath</text>
</a>
</g>
</g>
<!-- Node2&#45;&gt;Node22 -->
<g id="edge9" class="edge">
<title>Node2&#45;&gt;Node22</title>
<path fill="none" stroke="midnightblue" d="M334.62,-123.48C330.25,-114.82 323.36,-101.15 317.81,-90.15"/>
<polygon fill="midnightblue" stroke="midnightblue" points="320.84,-88.36 313.21,-81.01 314.59,-91.51 320.84,-88.36"/>
</g>
<!-- Node23 -->
<g id="node9" class="node">
<title>Node23</title>
<g id="a_node9"><a xlink:title=" ">
<polygon fill="white" stroke="#bfbfbf" points="350.42,-62 350.42,-81 399.42,-81 399.42,-62 350.42,-62"/>
<text text-anchor="middle" x="374.92" y="-69" font-family="Helvetica,sans-Serif" font-size="10.00">cstdlib</text>
</a>
</g>
</g>
<!-- Node2&#45;&gt;Node23 -->
<g id="edge10" class="edge">
<title>Node2&#45;&gt;Node23</title>
<path fill="none" stroke="midnightblue" d="M344.08,-123.48C349.37,-114.73 357.75,-100.87 364.45,-89.81"/>
<polygon fill="midnightblue" stroke="midnightblue" points="367.59,-91.38 369.77,-81.01 361.6,-87.75 367.59,-91.38"/>
</g>
<!-- Node3&#45;&gt;Node4 -->
<g id="edge3" class="edge">
<title>Node3&#45;&gt;Node4</title>
<path fill="none" stroke="midnightblue" d="M130.62,-57.79C133.76,-57.17 136.88,-56.57 139.92,-56 217.36,-41.58 307.1,-28.06 365.55,-19.68"/>
<polygon fill="midnightblue" stroke="midnightblue" points="366.33,-23.1 375.73,-18.22 365.34,-16.17 366.33,-23.1"/>
</g>
<!-- Node3&#45;&gt;Node10 -->
<g id="edge4" class="edge">
<title>Node3&#45;&gt;Node10</title>
<path fill="none" stroke="midnightblue" d="M62.73,-56.4C56.54,-47.84 48.61,-36.87 42.1,-27.86"/>
<polygon fill="midnightblue" stroke="midnightblue" points="44.87,-25.71 36.17,-19.66 39.2,-29.81 44.87,-25.71"/>
</g>
<!-- Node21&#45;&gt;Node4 -->
<g id="edge8" class="edge">
<title>Node21&#45;&gt;Node4</title>
<path fill="none" stroke="midnightblue" d="M494.74,-61.98C482.35,-52.52 462.13,-37.1 447.17,-25.69"/>
<polygon fill="midnightblue" stroke="midnightblue" points="449.15,-22.79 439.07,-19.51 444.9,-28.36 449.15,-22.79"/>
</g>
<!-- Node25 -->
<g id="node11" class="node">
<title>Node25</title>
<g id="a_node11"><a xlink:href="iterator_8h.html" target="_top" xlink:title=" ">
<polygon fill="white" stroke="red" points="433.92,-123.5 433.92,-142.5 545.92,-142.5 545.92,-123.5 433.92,-123.5"/>
<text text-anchor="middle" x="489.92" y="-130.5" font-family="Helvetica,sans-Serif" font-size="10.00">emlabcpp/iterator.h</text>
</a>
</g>
</g>
<!-- Node24&#45;&gt;Node25 -->
<g id="edge13" class="edge">
<title>Node24&#45;&gt;Node25</title>
<path fill="none" stroke="midnightblue" d="M467.79,-179.4C471.83,-171.11 476.98,-160.55 481.29,-151.71"/>
<polygon fill="midnightblue" stroke="midnightblue" points="484.46,-153.18 485.7,-142.66 478.17,-150.11 484.46,-153.18"/>
</g>
<!-- Node25&#45;&gt;Node21 -->
<g id="edge14" class="edge">
<title>Node25&#45;&gt;Node21</title>
<path fill="none" stroke="midnightblue" d="M492.21,-123.48C494.49,-114.99 498.06,-101.7 500.99,-90.82"/>
<polygon fill="midnightblue" stroke="midnightblue" points="504.41,-91.57 503.63,-81.01 497.65,-89.76 504.41,-91.57"/>
</g>
</g>
</svg>
