<?xml version="1.0" encoding="UTF-8" standalone="no"?>
<!DOCTYPE svg PUBLIC "-//W3C//DTD SVG 1.1//EN"
 "http://www.w3.org/Graphics/SVG/1.1/DTD/svg11.dtd">
<!-- Generated by graphviz version 2.43.0 (0)
 -->
<!-- Title: include/emlabcpp/experimental/matrix.h Pages: 1 -->
<svg width="691pt" height="218pt"
 viewBox="0.00 0.00 691.43 218.00" xmlns="http://www.w3.org/2000/svg" xmlns:xlink="http://www.w3.org/1999/xlink">
<g id="graph0" class="graph" transform="scale(1 1) rotate(0) translate(4 214)">
<title>include/emlabcpp/experimental/matrix.h</title>
<polygon fill="white" stroke="transparent" points="-4,4 -4,-214 687.43,-214 687.43,4 -4,4"/>
<!-- Node1 -->
<g id="node1" class="node">
<title>Node1</title>
<g id="a_node1"><a xlink:title=" ">
<polygon fill="#bfbfbf" stroke="black" points="361.43,-179.5 361.43,-209.5 532.43,-209.5 532.43,-179.5 361.43,-179.5"/>
<text text-anchor="start" x="369.43" y="-197.5" font-family="Helvetica,sans-Serif" font-size="10.00">include/emlabcpp/experimental</text>
<text text-anchor="middle" x="446.93" y="-186.5" font-family="Helvetica,sans-Serif" font-size="10.00">/matrix.h</text>
</a>
</g>
</g>
<!-- Node2 -->
<g id="node2" class="node">
<title>Node2</title>
<g id="a_node2"><a xlink:href="algorithm_8h.html" target="_top" xlink:title=" ">
<polygon fill="white" stroke="black" points="318.93,-123.5 318.93,-142.5 442.93,-142.5 442.93,-123.5 318.93,-123.5"/>
<text text-anchor="middle" x="380.93" y="-130.5" font-family="Helvetica,sans-Serif" font-size="10.00">emlabcpp/algorithm.h</text>
</a>
</g>
</g>
<!-- Node1&#45;&gt;Node2 -->
<g id="edge1" class="edge">
<title>Node1&#45;&gt;Node2</title>
<path fill="none" stroke="midnightblue" d="M431.29,-179.4C421.3,-170.4 408.35,-158.72 398.08,-149.47"/>
<polygon fill="midnightblue" stroke="midnightblue" points="400.3,-146.75 390.53,-142.66 395.61,-151.95 400.3,-146.75"/>
</g>
<!-- Node32 -->
<g id="node10" class="node">
<title>Node32</title>
<g id="a_node10"><a xlink:href="range_8h.html" target="_top" xlink:title=" ">
<polygon fill="white" stroke="black" points="518.93,-123.5 518.93,-142.5 622.93,-142.5 622.93,-123.5 518.93,-123.5"/>
<text text-anchor="middle" x="570.93" y="-130.5" font-family="Helvetica,sans-Serif" font-size="10.00">emlabcpp/range.h</text>
</a>
</g>
</g>
<!-- Node1&#45;&gt;Node32 -->
<g id="edge12" class="edge">
<title>Node1&#45;&gt;Node32</title>
<path fill="none" stroke="midnightblue" d="M476.31,-179.4C496.75,-169.59 523.79,-156.62 543.73,-147.05"/>
<polygon fill="midnightblue" stroke="midnightblue" points="545.38,-150.14 552.88,-142.66 542.35,-143.83 545.38,-150.14"/>
</g>
<!-- Node3 -->
<g id="node3" class="node">
<title>Node3</title>
<g id="a_node3"><a xlink:href="impl_8h.html" target="_top" xlink:title=" ">
<polygon fill="white" stroke="black" points="16.43,-56.5 16.43,-86.5 131.43,-86.5 131.43,-56.5 16.43,-56.5"/>
<text text-anchor="start" x="24.43" y="-74.5" font-family="Helvetica,sans-Serif" font-size="10.00">emlabcpp/algorithm</text>
<text text-anchor="middle" x="73.93" y="-63.5" font-family="Helvetica,sans-Serif" font-size="10.00">/impl.h</text>
</a>
</g>
</g>
<!-- Node2&#45;&gt;Node3 -->
<g id="edge2" class="edge">
<title>Node2&#45;&gt;Node3</title>
<path fill="none" stroke="midnightblue" d="M332.83,-123.48C286.31,-115.14 213.57,-101.82 141.64,-87.31"/>
<polygon fill="midnightblue" stroke="midnightblue" points="141.99,-83.82 131.5,-85.26 140.6,-90.68 141.99,-83.82"/>
</g>
<!-- Node4 -->
<g id="node4" class="node">
<title>Node4</title>
<g id="a_node4"><a xlink:href="types_8h.html" target="_top" xlink:title=" ">
<polygon fill="white" stroke="red" points="283.93,-0.5 283.93,-19.5 387.93,-19.5 387.93,-0.5 283.93,-0.5"/>
<text text-anchor="middle" x="335.93" y="-7.5" font-family="Helvetica,sans-Serif" font-size="10.00">emlabcpp/types.h</text>
</a>
</g>
</g>
<!-- Node2&#45;&gt;Node4 -->
<g id="edge6" class="edge">
<title>Node2&#45;&gt;Node4</title>
<path fill="none" stroke="midnightblue" d="M437.15,-123.46C489.56,-113.09 555.66,-92.29 526.93,-56 511,-35.88 447.69,-23.86 398.28,-17.37"/>
<polygon fill="midnightblue" stroke="midnightblue" points="398.64,-13.89 388.28,-16.11 397.76,-20.84 398.64,-13.89"/>
</g>
<!-- Node10 -->
<g id="node5" class="node">
<title>Node10</title>
<g id="a_node5"><a xlink:title=" ">
<polygon fill="white" stroke="#bfbfbf" points="10.43,-0.5 10.43,-19.5 51.43,-19.5 51.43,-0.5 10.43,-0.5"/>
<text text-anchor="middle" x="30.93" y="-7.5" font-family="Helvetica,sans-Serif" font-size="10.00">tuple</text>
</a>
</g>
</g>
<!-- Node2&#45;&gt;Node10 -->
<g id="edge11" class="edge">
<title>Node2&#45;&gt;Node10</title>
<path fill="none" stroke="midnightblue" d="M318.89,-128.96C217.93,-123.38 27.24,-109.9 6.93,-87 -7.79,-70.4 5.33,-44.79 17.2,-27.96"/>
<polygon fill="midnightblue" stroke="midnightblue" points="20.26,-29.72 23.48,-19.63 14.67,-25.51 20.26,-29.72"/>
</g>
<!-- Node17 -->
<g id="node6" class="node">
<title>Node17</title>
<g id="a_node6"><a xlink:href="bounded_8h.html" target="_top" xlink:title=" ">
<polygon fill="white" stroke="red" points="149.43,-62 149.43,-81 268.43,-81 268.43,-62 149.43,-62"/>
<text text-anchor="middle" x="208.93" y="-69" font-family="Helvetica,sans-Serif" font-size="10.00">emlabcpp/bounded.h</text>
</a>
</g>
</g>
<!-- Node2&#45;&gt;Node17 -->
<g id="edge5" class="edge">
<title>Node2&#45;&gt;Node17</title>
<path fill="none" stroke="midnightblue" d="M356.28,-123.48C326.65,-113.22 276.74,-95.96 243.32,-84.4"/>
<polygon fill="midnightblue" stroke="midnightblue" points="244.12,-80.97 233.52,-81.01 241.83,-87.59 244.12,-80.97"/>
</g>
<!-- Node24 -->
<g id="node7" class="node">
<title>Node24</title>
<g id="a_node7"><a xlink:href="view_8h.html" target="_top" xlink:title=" ">
<polygon fill="white" stroke="black" points="286.43,-62 286.43,-81 385.43,-81 385.43,-62 286.43,-62"/>
<text text-anchor="middle" x="335.93" y="-69" font-family="Helvetica,sans-Serif" font-size="10.00">emlabcpp/view.h</text>
</a>
</g>
</g>
<!-- Node2&#45;&gt;Node24 -->
<g id="edge7" class="edge">
<title>Node2&#45;&gt;Node24</title>
<path fill="none" stroke="midnightblue" d="M374.48,-123.48C367.73,-114.55 356.96,-100.31 348.51,-89.14"/>
<polygon fill="midnightblue" stroke="midnightblue" points="351.19,-86.87 342.36,-81.01 345.6,-91.1 351.19,-86.87"/>
</g>
<!-- Node30 -->
<g id="node8" class="node">
<title>Node30</title>
<g id="a_node8"><a xlink:title=" ">
<polygon fill="white" stroke="#bfbfbf" points="403.43,-62 403.43,-81 450.43,-81 450.43,-62 403.43,-62"/>
<text text-anchor="middle" x="426.93" y="-69" font-family="Helvetica,sans-Serif" font-size="10.00">cmath</text>
</a>
</g>
</g>
<!-- Node2&#45;&gt;Node30 -->
<g id="edge9" class="edge">
<title>Node2&#45;&gt;Node30</title>
<path fill="none" stroke="midnightblue" d="M387.52,-123.48C394.42,-114.55 405.43,-100.31 414.06,-89.14"/>
<polygon fill="midnightblue" stroke="midnightblue" points="417,-91.06 420.35,-81.01 411.46,-86.78 417,-91.06"/>
</g>
<!-- Node31 -->
<g id="node9" class="node">
<title>Node31</title>
<g id="a_node9"><a xlink:title=" ">
<polygon fill="white" stroke="#bfbfbf" points="468.43,-62 468.43,-81 517.43,-81 517.43,-62 468.43,-62"/>
<text text-anchor="middle" x="492.93" y="-69" font-family="Helvetica,sans-Serif" font-size="10.00">cstdlib</text>
</a>
</g>
</g>
<!-- Node2&#45;&gt;Node31 -->
<g id="edge10" class="edge">
<title>Node2&#45;&gt;Node31</title>
<path fill="none" stroke="midnightblue" d="M396.97,-123.48C415.52,-113.62 446.27,-97.29 467.95,-85.77"/>
<polygon fill="midnightblue" stroke="midnightblue" points="469.72,-88.79 476.91,-81.01 466.44,-82.61 469.72,-88.79"/>
</g>
<!-- Node3&#45;&gt;Node4 -->
<g id="edge3" class="edge">
<title>Node3&#45;&gt;Node4</title>
<path fill="none" stroke="midnightblue" d="M131.75,-57.37C178.86,-46.67 244.57,-31.75 288.6,-21.75"/>
<polygon fill="midnightblue" stroke="midnightblue" points="289.49,-25.13 298.47,-19.51 287.94,-18.31 289.49,-25.13"/>
</g>
<!-- Node3&#45;&gt;Node10 -->
<g id="edge4" class="edge">
<title>Node3&#45;&gt;Node10</title>
<path fill="none" stroke="midnightblue" d="M63.74,-56.4C57.55,-47.84 49.62,-36.87 43.11,-27.86"/>
<polygon fill="midnightblue" stroke="midnightblue" points="45.88,-25.71 37.18,-19.66 40.2,-29.81 45.88,-25.71"/>
</g>
<!-- Node24&#45;&gt;Node4 -->
<g id="edge8" class="edge">
<title>Node24&#45;&gt;Node4</title>
<path fill="none" stroke="midnightblue" d="M335.93,-61.98C335.93,-53.58 335.93,-40.48 335.93,-29.66"/>
<polygon fill="midnightblue" stroke="midnightblue" points="339.43,-29.51 335.93,-19.51 332.43,-29.51 339.43,-29.51"/>
</g>
<!-- Node33 -->
<g id="node11" class="node">
<title>Node33</title>
<g id="a_node11"><a xlink:href="numeric_8h.html" target="_top" xlink:title=" ">
<polygon fill="white" stroke="red" points="574.43,-56.5 574.43,-86.5 683.43,-86.5 683.43,-56.5 574.43,-56.5"/>
<text text-anchor="start" x="582.43" y="-74.5" font-family="Helvetica,sans-Serif" font-size="10.00">emlabcpp/iterators</text>
<text text-anchor="middle" x="628.93" y="-63.5" font-family="Helvetica,sans-Serif" font-size="10.00">/numeric.h</text>
</a>
</g>
</g>
<!-- Node32&#45;&gt;Node33 -->
<g id="edge13" class="edge">
<title>Node32&#45;&gt;Node33</title>
<path fill="none" stroke="midnightblue" d="M579.24,-123.48C586.72,-115.79 598.05,-104.17 608,-93.96"/>
<polygon fill="midnightblue" stroke="midnightblue" points="610.78,-96.13 615.26,-86.52 605.77,-91.24 610.78,-96.13"/>
</g>
</g>
</svg>
