<?xml version="1.0" encoding="UTF-8" standalone="no"?>
<!DOCTYPE svg PUBLIC "-//W3C//DTD SVG 1.1//EN"
 "http://www.w3.org/Graphics/SVG/1.1/DTD/svg11.dtd">
<!-- Generated by graphviz version 2.43.0 (0)
 -->
<!-- Title: include/emlabcpp/experimental/coro/memory_promise.h Pages: 1 -->
<svg width="522pt" height="229pt"
 viewBox="0.00 0.00 521.50 229.00" xmlns="http://www.w3.org/2000/svg" xmlns:xlink="http://www.w3.org/1999/xlink">
<g id="graph0" class="graph" transform="scale(1 1) rotate(0) translate(4 225)">
<title>include/emlabcpp/experimental/coro/memory_promise.h</title>
<polygon fill="white" stroke="transparent" points="-4,4 -4,-225 517.5,-225 517.5,4 -4,4"/>
<!-- Node1 -->
<g id="node1" class="node">
<title>Node1</title>
<g id="a_node1"><a xlink:title=" ">
<polygon fill="#bfbfbf" stroke="black" points="226,-190.5 226,-220.5 397,-220.5 397,-190.5 226,-190.5"/>
<text text-anchor="start" x="234" y="-208.5" font-family="Helvetica,sans-Serif" font-size="10.00">include/emlabcpp/experimental</text>
<text text-anchor="middle" x="311.5" y="-197.5" font-family="Helvetica,sans-Serif" font-size="10.00">/coro/memory_promise.h</text>
</a>
</g>
</g>
<!-- Node2 -->
<g id="node2" class="node">
<title>Node2</title>
<g id="a_node2"><a xlink:href="logging_8h.html" target="_top" xlink:title=" ">
<polygon fill="white" stroke="black" points="95,-123.5 95,-153.5 228,-153.5 228,-123.5 95,-123.5"/>
<text text-anchor="start" x="103" y="-141.5" font-family="Helvetica,sans-Serif" font-size="10.00">emlabcpp/experimental</text>
<text text-anchor="middle" x="161.5" y="-130.5" font-family="Helvetica,sans-Serif" font-size="10.00">/logging.h</text>
</a>
</g>
</g>
<!-- Node1&#45;&gt;Node2 -->
<g id="edge1" class="edge">
<title>Node1&#45;&gt;Node2</title>
<path fill="none" stroke="midnightblue" d="M278.95,-190.4C256.74,-180.77 227.12,-167.94 203.19,-157.56"/>
<polygon fill="midnightblue" stroke="midnightblue" points="204.55,-154.34 193.98,-153.58 201.77,-160.76 204.55,-154.34"/>
</g>
<!-- Node31 -->
<g id="node6" class="node">
<title>Node31</title>
<g id="a_node6"><a xlink:href="memory__resource_8h.html" target="_top" xlink:title=" ">
<polygon fill="white" stroke="black" points="246,-123.5 246,-153.5 377,-153.5 377,-123.5 246,-123.5"/>
<text text-anchor="start" x="254" y="-141.5" font-family="Helvetica,sans-Serif" font-size="10.00">emlabcpp/pmr/memory</text>
<text text-anchor="middle" x="311.5" y="-130.5" font-family="Helvetica,sans-Serif" font-size="10.00">_resource.h</text>
</a>
</g>
</g>
<!-- Node1&#45;&gt;Node31 -->
<g id="edge6" class="edge">
<title>Node1&#45;&gt;Node31</title>
<path fill="none" stroke="midnightblue" d="M311.5,-190.4C311.5,-182.64 311.5,-172.81 311.5,-163.86"/>
<polygon fill="midnightblue" stroke="midnightblue" points="315,-163.58 311.5,-153.58 308,-163.58 315,-163.58"/>
</g>
<!-- Node33 -->
<g id="node8" class="node">
<title>Node33</title>
<g id="a_node8"><a xlink:href="throw__bad__alloc_8h.html" target="_top" xlink:title=" ">
<polygon fill="white" stroke="black" points="395.5,-123.5 395.5,-153.5 513.5,-153.5 513.5,-123.5 395.5,-123.5"/>
<text text-anchor="start" x="403.5" y="-141.5" font-family="Helvetica,sans-Serif" font-size="10.00">emlabcpp/pmr/throw</text>
<text text-anchor="middle" x="454.5" y="-130.5" font-family="Helvetica,sans-Serif" font-size="10.00">_bad_alloc.h</text>
</a>
</g>
</g>
<!-- Node1&#45;&gt;Node33 -->
<g id="edge8" class="edge">
<title>Node1&#45;&gt;Node33</title>
<path fill="none" stroke="midnightblue" d="M342.53,-190.4C363.52,-180.86 391.44,-168.16 414.15,-157.84"/>
<polygon fill="midnightblue" stroke="midnightblue" points="415.88,-160.9 423.53,-153.58 412.98,-154.53 415.88,-160.9"/>
</g>
<!-- Node3 -->
<g id="node3" class="node">
<title>Node3</title>
<g id="a_node3"><a xlink:href="pretty__printer_8h.html" target="_top" xlink:title=" ">
<polygon fill="white" stroke="red" points="0,-56.5 0,-86.5 133,-86.5 133,-56.5 0,-56.5"/>
<text text-anchor="start" x="8" y="-74.5" font-family="Helvetica,sans-Serif" font-size="10.00">emlabcpp/experimental</text>
<text text-anchor="middle" x="66.5" y="-63.5" font-family="Helvetica,sans-Serif" font-size="10.00">/pretty_printer.h</text>
</a>
</g>
</g>
<!-- Node2&#45;&gt;Node3 -->
<g id="edge2" class="edge">
<title>Node2&#45;&gt;Node3</title>
<path fill="none" stroke="midnightblue" d="M140.89,-123.4C127.57,-114.28 110.04,-102.29 95.34,-92.24"/>
<polygon fill="midnightblue" stroke="midnightblue" points="97.3,-89.33 87.07,-86.58 93.35,-95.11 97.3,-89.33"/>
</g>
<!-- Node17 -->
<g id="node4" class="node">
<title>Node17</title>
<g id="a_node4"><a xlink:href="match_8h.html" target="_top" xlink:title=" ">
<polygon fill="white" stroke="red" points="60,-0.5 60,-19.5 167,-19.5 167,-0.5 60,-0.5"/>
<text text-anchor="middle" x="113.5" y="-7.5" font-family="Helvetica,sans-Serif" font-size="10.00">emlabcpp/match.h</text>
</a>
</g>
</g>
<!-- Node2&#45;&gt;Node17 -->
<g id="edge4" class="edge">
<title>Node2&#45;&gt;Node17</title>
<path fill="none" stroke="midnightblue" d="M159.4,-123.23C156.64,-106.61 151,-78.56 141.5,-56 137.35,-46.14 131.19,-35.96 125.71,-27.78"/>
<polygon fill="midnightblue" stroke="midnightblue" points="128.54,-25.71 119.95,-19.51 122.8,-29.72 128.54,-25.71"/>
</g>
<!-- Node30 -->
<g id="node5" class="node">
<title>Node30</title>
<g id="a_node5"><a xlink:title=" ">
<polygon fill="white" stroke="#bfbfbf" points="190,-62 190,-81 263,-81 263,-62 190,-62"/>
<text text-anchor="middle" x="226.5" y="-69" font-family="Helvetica,sans-Serif" font-size="10.00">string_view</text>
</a>
</g>
</g>
<!-- Node2&#45;&gt;Node30 -->
<g id="edge5" class="edge">
<title>Node2&#45;&gt;Node30</title>
<path fill="none" stroke="midnightblue" d="M175.6,-123.4C185.94,-113.06 199.98,-99.02 210.69,-88.31"/>
<polygon fill="midnightblue" stroke="midnightblue" points="213.21,-90.74 217.81,-81.19 208.26,-85.79 213.21,-90.74"/>
</g>
<!-- Node3&#45;&gt;Node17 -->
<g id="edge3" class="edge">
<title>Node3&#45;&gt;Node17</title>
<path fill="none" stroke="midnightblue" d="M77.64,-56.4C84.47,-47.75 93.24,-36.64 100.41,-27.58"/>
<polygon fill="midnightblue" stroke="midnightblue" points="103.21,-29.67 106.66,-19.66 97.72,-25.34 103.21,-29.67"/>
</g>
<!-- Node32 -->
<g id="node7" class="node">
<title>Node32</title>
<g id="a_node7"><a xlink:title=" ">
<polygon fill="white" stroke="#bfbfbf" points="285,-62 285,-81 338,-81 338,-62 285,-62"/>
<text text-anchor="middle" x="311.5" y="-69" font-family="Helvetica,sans-Serif" font-size="10.00">cstddef</text>
</a>
</g>
</g>
<!-- Node31&#45;&gt;Node32 -->
<g id="edge7" class="edge">
<title>Node31&#45;&gt;Node32</title>
<path fill="none" stroke="midnightblue" d="M311.5,-123.4C311.5,-114.06 311.5,-101.71 311.5,-91.52"/>
<polygon fill="midnightblue" stroke="midnightblue" points="315,-91.19 311.5,-81.19 308,-91.19 315,-91.19"/>
</g>
<!-- Node34 -->
<g id="node9" class="node">
<title>Node34</title>
<g id="a_node9"><a xlink:title=" ">
<polygon fill="white" stroke="#bfbfbf" points="400,-62 400,-81 449,-81 449,-62 400,-62"/>
<text text-anchor="middle" x="424.5" y="-69" font-family="Helvetica,sans-Serif" font-size="10.00">cstdlib</text>
</a>
</g>
</g>
<!-- Node33&#45;&gt;Node34 -->
<g id="edge9" class="edge">
<title>Node33&#45;&gt;Node34</title>
<path fill="none" stroke="midnightblue" d="M447.99,-123.4C443.54,-113.76 437.61,-100.91 432.82,-90.54"/>
<polygon fill="midnightblue" stroke="midnightblue" points="435.88,-88.81 428.51,-81.19 429.53,-91.74 435.88,-88.81"/>
</g>
<!-- Node35 -->
<g id="node10" class="node">
<title>Node35</title>
<g id="a_node10"><a xlink:title=" ">
<polygon fill="white" stroke="#bfbfbf" points="467,-62 467,-81 504,-81 504,-62 467,-62"/>
<text text-anchor="middle" x="485.5" y="-69" font-family="Helvetica,sans-Serif" font-size="10.00">new</text>
</a>
</g>
</g>
<!-- Node33&#45;&gt;Node35 -->
<g id="edge10" class="edge">
<title>Node33&#45;&gt;Node35</title>
<path fill="none" stroke="midnightblue" d="M461.23,-123.4C465.82,-113.76 471.95,-100.91 476.9,-90.54"/>
<polygon fill="midnightblue" stroke="midnightblue" points="480.21,-91.73 481.35,-81.19 473.89,-88.71 480.21,-91.73"/>
</g>
</g>
</svg>
