<?xml version="1.0" encoding="UTF-8" standalone="no"?>
<!DOCTYPE svg PUBLIC "-//W3C//DTD SVG 1.1//EN"
 "http://www.w3.org/Graphics/SVG/1.1/DTD/svg11.dtd">
<!-- Generated by graphviz version 2.43.0 (0)
 -->
<!-- Title: include/emlabcpp/experimental/coro/memory_promise.h Pages: 1 -->
<svg width="427pt" height="162pt"
 viewBox="0.00 0.00 427.00 162.00" xmlns="http://www.w3.org/2000/svg" xmlns:xlink="http://www.w3.org/1999/xlink">
<g id="graph0" class="graph" transform="scale(1 1) rotate(0) translate(4 158)">
<title>include/emlabcpp/experimental/coro/memory_promise.h</title>
<polygon fill="white" stroke="transparent" points="-4,4 -4,-158 423,-158 423,4 -4,4"/>
<!-- Node1 -->
<g id="node1" class="node">
<title>Node1</title>
<g id="a_node1"><a xlink:title=" ">
<polygon fill="#bfbfbf" stroke="black" points="123,-123.5 123,-153.5 294,-153.5 294,-123.5 123,-123.5"/>
<text text-anchor="start" x="131" y="-141.5" font-family="Helvetica,sans-Serif" font-size="10.00">include/emlabcpp/experimental</text>
<text text-anchor="middle" x="208.5" y="-130.5" font-family="Helvetica,sans-Serif" font-size="10.00">/coro/memory_promise.h</text>
</a>
</g>
</g>
<!-- Node2 -->
<g id="node2" class="node">
<title>Node2</title>
<g id="a_node2"><a xlink:href="memory__resource_8h.html" target="_top" xlink:title=" ">
<polygon fill="white" stroke="black" points="0,-56.5 0,-86.5 131,-86.5 131,-56.5 0,-56.5"/>
<text text-anchor="start" x="8" y="-74.5" font-family="Helvetica,sans-Serif" font-size="10.00">emlabcpp/pmr/memory</text>
<text text-anchor="middle" x="65.5" y="-63.5" font-family="Helvetica,sans-Serif" font-size="10.00">_resource.h</text>
</a>
</g>
</g>
<!-- Node1&#45;&gt;Node2 -->
<g id="edge1" class="edge">
<title>Node1&#45;&gt;Node2</title>
<path fill="none" stroke="midnightblue" d="M177.47,-123.4C156.48,-113.86 128.56,-101.16 105.85,-90.84"/>
<polygon fill="midnightblue" stroke="midnightblue" points="107.02,-87.53 96.47,-86.58 104.12,-93.9 107.02,-87.53"/>
</g>
<!-- Node4 -->
<g id="node4" class="node">
<title>Node4</title>
<g id="a_node4"><a xlink:href="throw__bad__alloc_8h.html" target="_top" xlink:title=" ">
<polygon fill="white" stroke="black" points="149.5,-56.5 149.5,-86.5 267.5,-86.5 267.5,-56.5 149.5,-56.5"/>
<text text-anchor="start" x="157.5" y="-74.5" font-family="Helvetica,sans-Serif" font-size="10.00">emlabcpp/pmr/throw</text>
<text text-anchor="middle" x="208.5" y="-63.5" font-family="Helvetica,sans-Serif" font-size="10.00">_bad_alloc.h</text>
</a>
</g>
</g>
<!-- Node1&#45;&gt;Node4 -->
<g id="edge3" class="edge">
<title>Node1&#45;&gt;Node4</title>
<path fill="none" stroke="midnightblue" d="M208.5,-123.4C208.5,-115.64 208.5,-105.81 208.5,-96.86"/>
<polygon fill="midnightblue" stroke="midnightblue" points="212,-96.58 208.5,-86.58 205,-96.58 212,-96.58"/>
</g>
<!-- Node7 -->
<g id="node7" class="node">
<title>Node7</title>
<g id="a_node7"><a xlink:href="logging_8h.html" target="_top" xlink:title=" ">
<polygon fill="white" stroke="black" points="286,-56.5 286,-86.5 419,-86.5 419,-56.5 286,-56.5"/>
<text text-anchor="start" x="294" y="-74.5" font-family="Helvetica,sans-Serif" font-size="10.00">emlabcpp/experimental</text>
<text text-anchor="middle" x="352.5" y="-63.5" font-family="Helvetica,sans-Serif" font-size="10.00">/logging.h</text>
</a>
</g>
</g>
<!-- Node1&#45;&gt;Node7 -->
<g id="edge6" class="edge">
<title>Node1&#45;&gt;Node7</title>
<path fill="none" stroke="midnightblue" d="M239.75,-123.4C260.97,-113.81 289.25,-101.05 312.18,-90.7"/>
<polygon fill="midnightblue" stroke="midnightblue" points="313.64,-93.88 321.32,-86.58 310.76,-87.5 313.64,-93.88"/>
</g>
<!-- Node3 -->
<g id="node3" class="node">
<title>Node3</title>
<g id="a_node3"><a xlink:title=" ">
<polygon fill="white" stroke="#bfbfbf" points="39,-0.5 39,-19.5 92,-19.5 92,-0.5 39,-0.5"/>
<text text-anchor="middle" x="65.5" y="-7.5" font-family="Helvetica,sans-Serif" font-size="10.00">cstddef</text>
</a>
</g>
</g>
<!-- Node2&#45;&gt;Node3 -->
<g id="edge2" class="edge">
<title>Node2&#45;&gt;Node3</title>
<path fill="none" stroke="midnightblue" d="M65.5,-56.4C65.5,-48.47 65.5,-38.46 65.5,-29.86"/>
<polygon fill="midnightblue" stroke="midnightblue" points="69,-29.66 65.5,-19.66 62,-29.66 69,-29.66"/>
</g>
<!-- Node5 -->
<g id="node5" class="node">
<title>Node5</title>
<g id="a_node5"><a xlink:title=" ">
<polygon fill="white" stroke="#bfbfbf" points="153,-0.5 153,-19.5 202,-19.5 202,-0.5 153,-0.5"/>
<text text-anchor="middle" x="177.5" y="-7.5" font-family="Helvetica,sans-Serif" font-size="10.00">cstdlib</text>
</a>
</g>
</g>
<!-- Node4&#45;&gt;Node5 -->
<g id="edge4" class="edge">
<title>Node4&#45;&gt;Node5</title>
<path fill="none" stroke="midnightblue" d="M201.15,-56.4C196.83,-48.11 191.33,-37.55 186.73,-28.71"/>
<polygon fill="midnightblue" stroke="midnightblue" points="189.74,-26.91 182.01,-19.66 183.53,-30.14 189.74,-26.91"/>
</g>
<!-- Node6 -->
<g id="node6" class="node">
<title>Node6</title>
<g id="a_node6"><a xlink:title=" ">
<polygon fill="white" stroke="#bfbfbf" points="220,-0.5 220,-19.5 257,-19.5 257,-0.5 220,-0.5"/>
<text text-anchor="middle" x="238.5" y="-7.5" font-family="Helvetica,sans-Serif" font-size="10.00">new</text>
</a>
</g>
</g>
<!-- Node4&#45;&gt;Node6 -->
<g id="edge5" class="edge">
<title>Node4&#45;&gt;Node6</title>
<path fill="none" stroke="midnightblue" d="M215.61,-56.4C219.79,-48.11 225.11,-37.55 229.57,-28.71"/>
<polygon fill="midnightblue" stroke="midnightblue" points="232.76,-30.16 234.13,-19.66 226.51,-27.01 232.76,-30.16"/>
</g>
<!-- Node8 -->
<g id="node8" class="node">
<title>Node8</title>
<g id="a_node8"><a xlink:title=" ">
<polygon fill="white" stroke="#bfbfbf" points="316,-0.5 316,-19.5 389,-19.5 389,-0.5 316,-0.5"/>
<text text-anchor="middle" x="352.5" y="-7.5" font-family="Helvetica,sans-Serif" font-size="10.00">string_view</text>
</a>
</g>
</g>
<!-- Node7&#45;&gt;Node8 -->
<g id="edge7" class="edge">
<title>Node7&#45;&gt;Node8</title>
<path fill="none" stroke="midnightblue" d="M352.5,-56.4C352.5,-48.47 352.5,-38.46 352.5,-29.86"/>
<polygon fill="midnightblue" stroke="midnightblue" points="356,-29.66 352.5,-19.66 349,-29.66 356,-29.66"/>
</g>
</g>
</svg>
