<?xml version="1.0" encoding="UTF-8" standalone="no"?>
<!DOCTYPE svg PUBLIC "-//W3C//DTD SVG 1.1//EN"
 "http://www.w3.org/Graphics/SVG/1.1/DTD/svg11.dtd">
<!-- Generated by graphviz version 2.43.0 (0)
 -->
<!-- Title: include/emlabcpp/experimental/coro/memory_promise.h Pages: 1 -->
<svg width="343pt" height="162pt"
 viewBox="0.00 0.00 342.50 162.00" xmlns="http://www.w3.org/2000/svg" xmlns:xlink="http://www.w3.org/1999/xlink">
<g id="graph0" class="graph" transform="scale(1 1) rotate(0) translate(4 158)">
<title>include/emlabcpp/experimental/coro/memory_promise.h</title>
<polygon fill="white" stroke="transparent" points="-4,4 -4,-158 338.5,-158 338.5,4 -4,4"/>
<!-- Node1 -->
<g id="node1" class="node">
<title>Node1</title>
<g id="a_node1"><a xlink:title=" ">
<polygon fill="#bfbfbf" stroke="black" points="115.5,-123.5 115.5,-153.5 286.5,-153.5 286.5,-123.5 115.5,-123.5"/>
<text text-anchor="start" x="123.5" y="-141.5" font-family="Helvetica,sans-Serif" font-size="10.00">include/emlabcpp/experimental</text>
<text text-anchor="middle" x="201" y="-130.5" font-family="Helvetica,sans-Serif" font-size="10.00">/coro/memory_promise.h</text>
</a>
</g>
</g>
<!-- Node2 -->
<g id="node2" class="node">
<title>Node2</title>
<g id="a_node2"><a xlink:href="memory__resource_8h.html" target="_top" xlink:title=" ">
<polygon fill="white" stroke="black" points="64.5,-56.5 64.5,-86.5 195.5,-86.5 195.5,-56.5 64.5,-56.5"/>
<text text-anchor="start" x="72.5" y="-74.5" font-family="Helvetica,sans-Serif" font-size="10.00">emlabcpp/pmr/memory</text>
<text text-anchor="middle" x="130" y="-63.5" font-family="Helvetica,sans-Serif" font-size="10.00">_resource.h</text>
</a>
</g>
</g>
<!-- Node1&#45;&gt;Node2 -->
<g id="edge1" class="edge">
<title>Node1&#45;&gt;Node2</title>
<path fill="none" stroke="midnightblue" d="M185.59,-123.4C176.01,-114.62 163.51,-103.18 152.8,-93.37"/>
<polygon fill="midnightblue" stroke="midnightblue" points="155.12,-90.75 145.38,-86.58 150.39,-95.91 155.12,-90.75"/>
</g>
<!-- Node43 -->
<g id="node5" class="node">
<title>Node43</title>
<g id="a_node5"><a xlink:href="throw__bad__alloc_8h.html" target="_top" xlink:title=" ">
<polygon fill="white" stroke="black" points="214,-56.5 214,-86.5 332,-86.5 332,-56.5 214,-56.5"/>
<text text-anchor="start" x="222" y="-74.5" font-family="Helvetica,sans-Serif" font-size="10.00">emlabcpp/pmr/throw</text>
<text text-anchor="middle" x="273" y="-63.5" font-family="Helvetica,sans-Serif" font-size="10.00">_bad_alloc.h</text>
</a>
</g>
</g>
<!-- Node1&#45;&gt;Node43 -->
<g id="edge4" class="edge">
<title>Node1&#45;&gt;Node43</title>
<path fill="none" stroke="midnightblue" d="M216.62,-123.4C226.34,-114.62 239.01,-103.18 249.88,-93.37"/>
<polygon fill="midnightblue" stroke="midnightblue" points="252.33,-95.88 257.41,-86.58 247.64,-90.68 252.33,-95.88"/>
</g>
<!-- Node3 -->
<g id="node3" class="node">
<title>Node3</title>
<g id="a_node3"><a xlink:href="result_8h.html" target="_top" xlink:title=" ">
<polygon fill="white" stroke="red" points="0,-0.5 0,-19.5 104,-19.5 104,-0.5 0,-0.5"/>
<text text-anchor="middle" x="52" y="-7.5" font-family="Helvetica,sans-Serif" font-size="10.00">emlabcpp/result.h</text>
</a>
</g>
</g>
<!-- Node2&#45;&gt;Node3 -->
<g id="edge2" class="edge">
<title>Node2&#45;&gt;Node3</title>
<path fill="none" stroke="midnightblue" d="M111.52,-56.4C99.48,-47.22 83.8,-35.26 71.56,-25.92"/>
<polygon fill="midnightblue" stroke="midnightblue" points="73.42,-22.94 63.35,-19.66 69.18,-28.51 73.42,-22.94"/>
</g>
<!-- Node42 -->
<g id="node4" class="node">
<title>Node42</title>
<g id="a_node4"><a xlink:title=" ">
<polygon fill="white" stroke="#bfbfbf" points="122.5,-0.5 122.5,-19.5 175.5,-19.5 175.5,-0.5 122.5,-0.5"/>
<text text-anchor="middle" x="149" y="-7.5" font-family="Helvetica,sans-Serif" font-size="10.00">cstddef</text>
</a>
</g>
</g>
<!-- Node2&#45;&gt;Node42 -->
<g id="edge3" class="edge">
<title>Node2&#45;&gt;Node42</title>
<path fill="none" stroke="midnightblue" d="M134.5,-56.4C137.09,-48.29 140.38,-38.01 143.16,-29.28"/>
<polygon fill="midnightblue" stroke="midnightblue" points="146.53,-30.25 146.24,-19.66 139.86,-28.12 146.53,-30.25"/>
</g>
<!-- Node41 -->
<g id="node6" class="node">
<title>Node41</title>
<g id="a_node6"><a xlink:title=" ">
<polygon fill="white" stroke="#bfbfbf" points="230.5,-0.5 230.5,-19.5 279.5,-19.5 279.5,-0.5 230.5,-0.5"/>
<text text-anchor="middle" x="255" y="-7.5" font-family="Helvetica,sans-Serif" font-size="10.00">cstdlib</text>
</a>
</g>
</g>
<!-- Node43&#45;&gt;Node41 -->
<g id="edge5" class="edge">
<title>Node43&#45;&gt;Node41</title>
<path fill="none" stroke="midnightblue" d="M268.73,-56.4C266.28,-48.29 263.17,-38.01 260.53,-29.28"/>
<polygon fill="midnightblue" stroke="midnightblue" points="263.86,-28.22 257.62,-19.66 257.16,-30.24 263.86,-28.22"/>
</g>
<!-- Node44 -->
<g id="node7" class="node">
<title>Node44</title>
<g id="a_node7"><a xlink:title=" ">
<polygon fill="white" stroke="#bfbfbf" points="297.5,-0.5 297.5,-19.5 334.5,-19.5 334.5,-0.5 297.5,-0.5"/>
<text text-anchor="middle" x="316" y="-7.5" font-family="Helvetica,sans-Serif" font-size="10.00">new</text>
</a>
</g>
</g>
<!-- Node43&#45;&gt;Node44 -->
<g id="edge6" class="edge">
<title>Node43&#45;&gt;Node44</title>
<path fill="none" stroke="midnightblue" d="M283.19,-56.4C289.37,-47.84 297.3,-36.87 303.82,-27.86"/>
<polygon fill="midnightblue" stroke="midnightblue" points="306.72,-29.81 309.74,-19.66 301.05,-25.71 306.72,-29.81"/>
</g>
</g>
</svg>
