<?xml version="1.0" encoding="UTF-8" standalone="no"?>
<!DOCTYPE svg PUBLIC "-//W3C//DTD SVG 1.1//EN"
 "http://www.w3.org/Graphics/SVG/1.1/DTD/svg11.dtd">
<!-- Generated by graphviz version 2.43.0 (0)
 -->
<!-- Title: include/emlabcpp/pmr/memory_resource.h Pages: 1 -->
<svg width="238pt" height="151pt"
 viewBox="0.00 0.00 238.00 151.00" xmlns="http://www.w3.org/2000/svg" xmlns:xlink="http://www.w3.org/1999/xlink">
<g id="graph0" class="graph" transform="scale(1 1) rotate(0) translate(4 147)">
<title>include/emlabcpp/pmr/memory_resource.h</title>
<polygon fill="white" stroke="transparent" points="-4,4 -4,-147 234,-147 234,4 -4,4"/>
<!-- Node1 -->
<g id="node1" class="node">
<title>Node1</title>
<g id="a_node1"><a xlink:title=" ">
<polygon fill="#bfbfbf" stroke="black" points="103,-112.5 103,-142.5 228,-142.5 228,-112.5 103,-112.5"/>
<text text-anchor="start" x="111" y="-130.5" font-family="Helvetica,sans-Serif" font-size="10.00">include/emlabcpp/pmr</text>
<text text-anchor="middle" x="165.5" y="-119.5" font-family="Helvetica,sans-Serif" font-size="10.00">/memory_resource.h</text>
</a>
</g>
</g>
<!-- Node2 -->
<g id="node2" class="node">
<title>Node2</title>
<g id="a_node2"><a xlink:href="result_8h.html" target="_top" xlink:title=" ">
<polygon fill="white" stroke="black" points="96.5,-56.5 96.5,-75.5 158.5,-75.5 158.5,-56.5 96.5,-56.5"/>
<text text-anchor="middle" x="127.5" y="-63.5" font-family="Helvetica,sans-Serif" font-size="10.00">../result.h</text>
</a>
</g>
</g>
<!-- Node1&#45;&gt;Node2 -->
<g id="edge1" class="edge">
<title>Node1&#45;&gt;Node2</title>
<path fill="none" stroke="midnightblue" d="M156.49,-112.4C151.09,-103.93 144.17,-93.1 138.45,-84.14"/>
<polygon fill="midnightblue" stroke="midnightblue" points="141.36,-82.2 133.03,-75.66 135.46,-85.97 141.36,-82.2"/>
</g>
<!-- Node30 -->
<g id="node6" class="node">
<title>Node30</title>
<g id="a_node6"><a xlink:title=" ">
<polygon fill="white" stroke="#bfbfbf" points="177,-56.5 177,-75.5 230,-75.5 230,-56.5 177,-56.5"/>
<text text-anchor="middle" x="203.5" y="-63.5" font-family="Helvetica,sans-Serif" font-size="10.00">cstddef</text>
</a>
</g>
</g>
<!-- Node1&#45;&gt;Node30 -->
<g id="edge5" class="edge">
<title>Node1&#45;&gt;Node30</title>
<path fill="none" stroke="midnightblue" d="M174.51,-112.4C179.91,-103.93 186.83,-93.1 192.55,-84.14"/>
<polygon fill="midnightblue" stroke="midnightblue" points="195.54,-85.97 197.97,-75.66 189.64,-82.2 195.54,-85.97"/>
</g>
<!-- Node3 -->
<g id="node3" class="node">
<title>Node3</title>
<g id="a_node3"><a xlink:href="algorithm_8h.html" target="_top" xlink:title=" ">
<polygon fill="white" stroke="red" points="0,-0.5 0,-19.5 79,-19.5 79,-0.5 0,-0.5"/>
<text text-anchor="middle" x="39.5" y="-7.5" font-family="Helvetica,sans-Serif" font-size="10.00">./algorithm.h</text>
</a>
</g>
</g>
<!-- Node2&#45;&gt;Node3 -->
<g id="edge2" class="edge">
<title>Node2&#45;&gt;Node3</title>
<path fill="none" stroke="midnightblue" d="M113.36,-56.32C99.63,-47.9 78.56,-34.97 62.44,-25.07"/>
<polygon fill="midnightblue" stroke="midnightblue" points="63.96,-21.9 53.6,-19.65 60.3,-27.87 63.96,-21.9"/>
</g>
<!-- Node29 -->
<g id="node4" class="node">
<title>Node29</title>
<g id="a_node4"><a xlink:href="status_8h.html" target="_top" xlink:title=" ">
<polygon fill="white" stroke="red" points="96.5,-0.5 96.5,-19.5 158.5,-19.5 158.5,-0.5 96.5,-0.5"/>
<text text-anchor="middle" x="127.5" y="-7.5" font-family="Helvetica,sans-Serif" font-size="10.00">./status.h</text>
</a>
</g>
</g>
<!-- Node2&#45;&gt;Node29 -->
<g id="edge3" class="edge">
<title>Node2&#45;&gt;Node29</title>
<path fill="none" stroke="midnightblue" d="M127.5,-56.08C127.5,-49.01 127.5,-38.86 127.5,-29.99"/>
<polygon fill="midnightblue" stroke="midnightblue" points="131,-29.75 127.5,-19.75 124,-29.75 131,-29.75"/>
</g>
<!-- Node9 -->
<g id="node5" class="node">
<title>Node9</title>
<g id="a_node5"><a xlink:title=" ">
<polygon fill="white" stroke="#bfbfbf" points="176.5,-0.5 176.5,-19.5 226.5,-19.5 226.5,-0.5 176.5,-0.5"/>
<text text-anchor="middle" x="201.5" y="-7.5" font-family="Helvetica,sans-Serif" font-size="10.00">cstdint</text>
</a>
</g>
</g>
<!-- Node2&#45;&gt;Node9 -->
<g id="edge4" class="edge">
<title>Node2&#45;&gt;Node9</title>
<path fill="none" stroke="midnightblue" d="M139.39,-56.32C150.65,-48.11 167.79,-35.6 181.21,-25.81"/>
<polygon fill="midnightblue" stroke="midnightblue" points="183.38,-28.56 189.39,-19.83 179.25,-22.9 183.38,-28.56"/>
</g>
</g>
</svg>
