<?xml version="1.0" encoding="UTF-8" standalone="no"?>
<!DOCTYPE svg PUBLIC "-//W3C//DTD SVG 1.1//EN"
 "http://www.w3.org/Graphics/SVG/1.1/DTD/svg11.dtd">
<!-- Generated by graphviz version 2.43.0 (0)
 -->
<!-- Title: include/emlabcpp/experimental/coro/memory_promise.h Pages: 1 -->
<svg width="290pt" height="162pt"
 viewBox="0.00 0.00 289.50 162.00" xmlns="http://www.w3.org/2000/svg" xmlns:xlink="http://www.w3.org/1999/xlink">
<g id="graph0" class="graph" transform="scale(1 1) rotate(0) translate(4 158)">
<title>include/emlabcpp/experimental/coro/memory_promise.h</title>
<polygon fill="white" stroke="transparent" points="-4,4 -4,-158 285.5,-158 285.5,4 -4,4"/>
<!-- Node1 -->
<g id="node1" class="node">
<title>Node1</title>
<g id="a_node1"><a xlink:title=" ">
<polygon fill="#bfbfbf" stroke="black" points="67,-123.5 67,-153.5 238,-153.5 238,-123.5 67,-123.5"/>
<text text-anchor="start" x="75" y="-141.5" font-family="Helvetica,sans-Serif" font-size="10.00">include/emlabcpp/experimental</text>
<text text-anchor="middle" x="152.5" y="-130.5" font-family="Helvetica,sans-Serif" font-size="10.00">/coro/memory_promise.h</text>
</a>
</g>
</g>
<!-- Node2 -->
<g id="node2" class="node">
<title>Node2</title>
<g id="a_node2"><a xlink:href="memory__resource_8h.html" target="_top" xlink:title=" ">
<polygon fill="white" stroke="black" points="0,-62 0,-81 155,-81 155,-62 0,-62"/>
<text text-anchor="middle" x="77.5" y="-69" font-family="Helvetica,sans-Serif" font-size="10.00">../../pmr/memory_resource.h</text>
</a>
</g>
</g>
<!-- Node1&#45;&gt;Node2 -->
<g id="edge1" class="edge">
<title>Node1&#45;&gt;Node2</title>
<path fill="none" stroke="midnightblue" d="M136.23,-123.4C124.18,-112.96 107.79,-98.75 95.38,-88"/>
<polygon fill="midnightblue" stroke="midnightblue" points="97.38,-85.1 87.53,-81.19 92.8,-90.39 97.38,-85.1"/>
</g>
<!-- Node4 -->
<g id="node4" class="node">
<title>Node4</title>
<g id="a_node4"><a xlink:href="throw__bad__alloc_8h.html" target="_top" xlink:title=" ">
<polygon fill="white" stroke="black" points="173.5,-56.5 173.5,-86.5 281.5,-86.5 281.5,-56.5 173.5,-56.5"/>
<text text-anchor="start" x="181.5" y="-74.5" font-family="Helvetica,sans-Serif" font-size="10.00">../../pmr/throw_bad</text>
<text text-anchor="middle" x="227.5" y="-63.5" font-family="Helvetica,sans-Serif" font-size="10.00">_alloc.h</text>
</a>
</g>
</g>
<!-- Node1&#45;&gt;Node4 -->
<g id="edge3" class="edge">
<title>Node1&#45;&gt;Node4</title>
<path fill="none" stroke="midnightblue" d="M168.77,-123.4C178.9,-114.62 192.1,-103.18 203.42,-93.37"/>
<polygon fill="midnightblue" stroke="midnightblue" points="205.99,-95.77 211.26,-86.58 201.41,-90.48 205.99,-95.77"/>
</g>
<!-- Node3 -->
<g id="node3" class="node">
<title>Node3</title>
<g id="a_node3"><a xlink:title=" ">
<polygon fill="white" stroke="#bfbfbf" points="51,-0.5 51,-19.5 104,-19.5 104,-0.5 51,-0.5"/>
<text text-anchor="middle" x="77.5" y="-7.5" font-family="Helvetica,sans-Serif" font-size="10.00">cstddef</text>
</a>
</g>
</g>
<!-- Node2&#45;&gt;Node3 -->
<g id="edge2" class="edge">
<title>Node2&#45;&gt;Node3</title>
<path fill="none" stroke="midnightblue" d="M77.5,-61.98C77.5,-53.58 77.5,-40.48 77.5,-29.66"/>
<polygon fill="midnightblue" stroke="midnightblue" points="81,-29.51 77.5,-19.51 74,-29.51 81,-29.51"/>
</g>
<!-- Node5 -->
<g id="node5" class="node">
<title>Node5</title>
<g id="a_node5"><a xlink:title=" ">
<polygon fill="white" stroke="#bfbfbf" points="172,-0.5 172,-19.5 221,-19.5 221,-0.5 172,-0.5"/>
<text text-anchor="middle" x="196.5" y="-7.5" font-family="Helvetica,sans-Serif" font-size="10.00">cstdlib</text>
</a>
</g>
</g>
<!-- Node4&#45;&gt;Node5 -->
<g id="edge4" class="edge">
<title>Node4&#45;&gt;Node5</title>
<path fill="none" stroke="midnightblue" d="M220.15,-56.4C215.83,-48.11 210.33,-37.55 205.73,-28.71"/>
<polygon fill="midnightblue" stroke="midnightblue" points="208.74,-26.91 201.01,-19.66 202.53,-30.14 208.74,-26.91"/>
</g>
<!-- Node6 -->
<g id="node6" class="node">
<title>Node6</title>
<g id="a_node6"><a xlink:title=" ">
<polygon fill="white" stroke="#bfbfbf" points="239,-0.5 239,-19.5 276,-19.5 276,-0.5 239,-0.5"/>
<text text-anchor="middle" x="257.5" y="-7.5" font-family="Helvetica,sans-Serif" font-size="10.00">new</text>
</a>
</g>
</g>
<!-- Node4&#45;&gt;Node6 -->
<g id="edge5" class="edge">
<title>Node4&#45;&gt;Node6</title>
<path fill="none" stroke="midnightblue" d="M234.61,-56.4C238.79,-48.11 244.11,-37.55 248.57,-28.71"/>
<polygon fill="midnightblue" stroke="midnightblue" points="251.76,-30.16 253.13,-19.66 245.51,-27.01 251.76,-30.16"/>
</g>
</g>
</svg>
