<?xml version="1.0" encoding="UTF-8" standalone="no"?>
<!DOCTYPE svg PUBLIC "-//W3C//DTD SVG 1.1//EN"
 "http://www.w3.org/Graphics/SVG/1.1/DTD/svg11.dtd">
<!-- Generated by graphviz version 2.43.0 (0)
 -->
<!-- Title: include/emlabcpp/pmr/memory_resource.h Pages: 1 -->
<svg width="246pt" height="151pt"
 viewBox="0.00 0.00 245.50 151.00" xmlns="http://www.w3.org/2000/svg" xmlns:xlink="http://www.w3.org/1999/xlink">
<g id="graph0" class="graph" transform="scale(1 1) rotate(0) translate(4 147)">
<title>include/emlabcpp/pmr/memory_resource.h</title>
<polygon fill="white" stroke="transparent" points="-4,4 -4,-147 241.5,-147 241.5,4 -4,4"/>
<!-- Node1 -->
<g id="node1" class="node">
<title>Node1</title>
<g id="a_node1"><a xlink:title=" ">
<polygon fill="#bfbfbf" stroke="black" points="99.5,-112.5 99.5,-142.5 224.5,-142.5 224.5,-112.5 99.5,-112.5"/>
<text text-anchor="start" x="107.5" y="-130.5" font-family="Helvetica,sans-Serif" font-size="10.00">include/emlabcpp/pmr</text>
<text text-anchor="middle" x="162" y="-119.5" font-family="Helvetica,sans-Serif" font-size="10.00">/memory_resource.h</text>
</a>
</g>
</g>
<!-- Node2 -->
<g id="node2" class="node">
<title>Node2</title>
<g id="a_node2"><a xlink:href="result_8h.html" target="_top" xlink:title=" ">
<polygon fill="white" stroke="black" points="62,-56.5 62,-75.5 166,-75.5 166,-56.5 62,-56.5"/>
<text text-anchor="middle" x="114" y="-63.5" font-family="Helvetica,sans-Serif" font-size="10.00">emlabcpp/result.h</text>
</a>
</g>
</g>
<!-- Node1&#45;&gt;Node2 -->
<g id="edge1" class="edge">
<title>Node1&#45;&gt;Node2</title>
<path fill="none" stroke="midnightblue" d="M150.62,-112.4C143.65,-103.75 134.69,-92.64 127.37,-83.58"/>
<polygon fill="midnightblue" stroke="midnightblue" points="129.99,-81.24 120.98,-75.66 124.54,-85.64 129.99,-81.24"/>
</g>
<!-- Node29 -->
<g id="node5" class="node">
<title>Node29</title>
<g id="a_node5"><a xlink:title=" ">
<polygon fill="white" stroke="#bfbfbf" points="184.5,-56.5 184.5,-75.5 237.5,-75.5 237.5,-56.5 184.5,-56.5"/>
<text text-anchor="middle" x="211" y="-63.5" font-family="Helvetica,sans-Serif" font-size="10.00">cstddef</text>
</a>
</g>
</g>
<!-- Node1&#45;&gt;Node29 -->
<g id="edge4" class="edge">
<title>Node1&#45;&gt;Node29</title>
<path fill="none" stroke="midnightblue" d="M173.61,-112.4C180.73,-103.75 189.88,-92.64 197.35,-83.58"/>
<polygon fill="midnightblue" stroke="midnightblue" points="200.21,-85.6 203.87,-75.66 194.81,-81.15 200.21,-85.6"/>
</g>
<!-- Node3 -->
<g id="node3" class="node">
<title>Node3</title>
<g id="a_node3"><a xlink:href="algorithm_8h.html" target="_top" xlink:title=" ">
<polygon fill="white" stroke="red" points="0,-0.5 0,-19.5 124,-19.5 124,-0.5 0,-0.5"/>
<text text-anchor="middle" x="62" y="-7.5" font-family="Helvetica,sans-Serif" font-size="10.00">emlabcpp/algorithm.h</text>
</a>
</g>
</g>
<!-- Node2&#45;&gt;Node3 -->
<g id="edge2" class="edge">
<title>Node2&#45;&gt;Node3</title>
<path fill="none" stroke="midnightblue" d="M105.41,-56.08C97.84,-48.22 86.62,-36.57 77.49,-27.08"/>
<polygon fill="midnightblue" stroke="midnightblue" points="79.88,-24.53 70.43,-19.75 74.84,-29.38 79.88,-24.53"/>
</g>
<!-- Node9 -->
<g id="node4" class="node">
<title>Node9</title>
<g id="a_node4"><a xlink:title=" ">
<polygon fill="white" stroke="#bfbfbf" points="142,-0.5 142,-19.5 192,-19.5 192,-0.5 142,-0.5"/>
<text text-anchor="middle" x="167" y="-7.5" font-family="Helvetica,sans-Serif" font-size="10.00">cstdint</text>
</a>
</g>
</g>
<!-- Node2&#45;&gt;Node9 -->
<g id="edge3" class="edge">
<title>Node2&#45;&gt;Node9</title>
<path fill="none" stroke="midnightblue" d="M122.75,-56.08C130.47,-48.22 141.9,-36.57 151.22,-27.08"/>
<polygon fill="midnightblue" stroke="midnightblue" points="153.9,-29.34 158.41,-19.75 148.91,-24.44 153.9,-29.34"/>
</g>
</g>
</svg>
