<?xml version="1.0" encoding="UTF-8" standalone="no"?>
<!DOCTYPE svg PUBLIC "-//W3C//DTD SVG 1.1//EN"
 "http://www.w3.org/Graphics/SVG/1.1/DTD/svg11.dtd">
<!-- Generated by graphviz version 2.43.0 (0)
 -->
<!-- Title: include/emlabcpp/protocol/message.h Pages: 1 -->
<svg width="702pt" height="341pt"
 viewBox="0.00 0.00 702.00 341.00" xmlns="http://www.w3.org/2000/svg" xmlns:xlink="http://www.w3.org/1999/xlink">
<g id="graph0" class="graph" transform="scale(1 1) rotate(0) translate(4 337)">
<title>include/emlabcpp/protocol/message.h</title>
<polygon fill="white" stroke="transparent" points="-4,4 -4,-337 698,-337 698,4 -4,4"/>
<!-- Node1 -->
<g id="node1" class="node">
<title>Node1</title>
<g id="a_node1"><a xlink:title=" ">
<polygon fill="#bfbfbf" stroke="black" points="318,-302.5 318,-332.5 464,-332.5 464,-302.5 318,-302.5"/>
<text text-anchor="start" x="326" y="-320.5" font-family="Helvetica,sans-Serif" font-size="10.00">include/emlabcpp/protocol</text>
<text text-anchor="middle" x="391" y="-309.5" font-family="Helvetica,sans-Serif" font-size="10.00">/message.h</text>
</a>
</g>
</g>
<!-- Node2 -->
<g id="node2" class="node">
<title>Node2</title>
<g id="a_node2"><a xlink:href="concepts_8h.html" target="_top" xlink:title=" ">
<polygon fill="white" stroke="black" points="122,-112.5 122,-131.5 242,-131.5 242,-112.5 122,-112.5"/>
<text text-anchor="middle" x="182" y="-119.5" font-family="Helvetica,sans-Serif" font-size="10.00">emlabcpp/concepts.h</text>
</a>
</g>
</g>
<!-- Node1&#45;&gt;Node2 -->
<g id="edge1" class="edge">
<title>Node1&#45;&gt;Node2</title>
<path fill="none" stroke="midnightblue" d="M317.73,-312.3C244.94,-303.58 138.15,-277.33 95,-199 88.35,-186.93 87.84,-179.77 95,-168 104.46,-152.46 121.21,-142.05 137.5,-135.19"/>
<polygon fill="midnightblue" stroke="midnightblue" points="138.9,-138.4 146.99,-131.55 136.4,-131.87 138.9,-138.4"/>
</g>
<!-- Node4 -->
<g id="node4" class="node">
<title>Node4</title>
<g id="a_node4"><a xlink:title=" ">
<polygon fill="white" stroke="#bfbfbf" points="32,-0.5 32,-19.5 74,-19.5 74,-0.5 32,-0.5"/>
<text text-anchor="middle" x="53" y="-7.5" font-family="Helvetica,sans-Serif" font-size="10.00">array</text>
</a>
</g>
</g>
<!-- Node1&#45;&gt;Node4 -->
<g id="edge22" class="edge">
<title>Node1&#45;&gt;Node4</title>
<path fill="none" stroke="midnightblue" d="M317.96,-310.94C262.3,-304.8 184.65,-292.08 121,-266 61,-241.42 0,-249.34 0,-184.5 0,-184.5 0,-184.5 0,-121 0,-84.99 23.33,-48.34 39.04,-27.75"/>
<polygon fill="midnightblue" stroke="midnightblue" points="41.93,-29.73 45.41,-19.72 36.45,-25.38 41.93,-29.73"/>
</g>
<!-- Node13 -->
<g id="node9" class="node">
<title>Node13</title>
<g id="a_node9"><a xlink:href="logging_8h.html" target="_top" xlink:title=" ">
<polygon fill="white" stroke="black" points="210.5,-235.5 210.5,-265.5 343.5,-265.5 343.5,-235.5 210.5,-235.5"/>
<text text-anchor="start" x="218.5" y="-253.5" font-family="Helvetica,sans-Serif" font-size="10.00">emlabcpp/experimental</text>
<text text-anchor="middle" x="277" y="-242.5" font-family="Helvetica,sans-Serif" font-size="10.00">/logging.h</text>
</a>
</g>
</g>
<!-- Node1&#45;&gt;Node13 -->
<g id="edge8" class="edge">
<title>Node1&#45;&gt;Node13</title>
<path fill="none" stroke="midnightblue" d="M366.26,-302.4C349.98,-293.11 328.46,-280.84 310.63,-270.67"/>
<polygon fill="midnightblue" stroke="midnightblue" points="312.11,-267.49 301.69,-265.58 308.64,-273.57 312.11,-267.49"/>
</g>
<!-- Node22 -->
<g id="node12" class="node">
<title>Node22</title>
<g id="a_node12"><a xlink:href="view_8h.html" target="_top" xlink:title=" ">
<polygon fill="white" stroke="red" points="462.5,-112.5 462.5,-131.5 561.5,-131.5 561.5,-112.5 462.5,-112.5"/>
<text text-anchor="middle" x="512" y="-119.5" font-family="Helvetica,sans-Serif" font-size="10.00">emlabcpp/view.h</text>
</a>
</g>
</g>
<!-- Node1&#45;&gt;Node22 -->
<g id="edge21" class="edge">
<title>Node1&#45;&gt;Node22</title>
<path fill="none" stroke="midnightblue" d="M407.21,-302.23C429.6,-281.64 469.73,-241.39 492,-199 501.5,-180.92 506.72,-158 509.43,-142.09"/>
<polygon fill="midnightblue" stroke="midnightblue" points="512.94,-142.31 510.98,-131.9 506.02,-141.26 512.94,-142.31"/>
</g>
<!-- Node30 -->
<g id="node13" class="node">
<title>Node30</title>
<g id="a_node13"><a xlink:title=" ">
<polygon fill="white" stroke="#bfbfbf" points="580,-112.5 580,-131.5 636,-131.5 636,-112.5 580,-112.5"/>
<text text-anchor="middle" x="608" y="-119.5" font-family="Helvetica,sans-Serif" font-size="10.00">optional</text>
</a>
</g>
</g>
<!-- Node1&#45;&gt;Node30 -->
<g id="edge23" class="edge">
<title>Node1&#45;&gt;Node30</title>
<path fill="none" stroke="midnightblue" d="M416.22,-302.44C432.27,-293.01 453.12,-279.82 470,-266 519.87,-225.18 570.43,-167.8 594.13,-139.76"/>
<polygon fill="midnightblue" stroke="midnightblue" points="597.1,-141.65 600.84,-131.74 591.74,-137.16 597.1,-141.65"/>
</g>
<!-- Node32 -->
<g id="node14" class="node">
<title>Node32</title>
<g id="a_node14"><a xlink:title=" ">
<polygon fill="white" stroke="#bfbfbf" points="654,-112.5 654,-131.5 694,-131.5 694,-112.5 654,-112.5"/>
<text text-anchor="middle" x="674" y="-119.5" font-family="Helvetica,sans-Serif" font-size="10.00">span</text>
</a>
</g>
</g>
<!-- Node1&#45;&gt;Node32 -->
<g id="edge24" class="edge">
<title>Node1&#45;&gt;Node32</title>
<path fill="none" stroke="midnightblue" d="M428.26,-302.47C450.43,-293.42 478.69,-280.63 502,-266 564.54,-226.76 629.06,-166.93 658.12,-138.74"/>
<polygon fill="midnightblue" stroke="midnightblue" points="660.64,-141.16 665.34,-131.67 655.75,-136.16 660.64,-141.16"/>
</g>
<!-- Node3 -->
<g id="node3" class="node">
<title>Node3</title>
<g id="a_node3"><a xlink:href="types_2base_8h.html" target="_top" xlink:title=" ">
<polygon fill="white" stroke="red" points="104,-56.5 104,-75.5 234,-75.5 234,-56.5 104,-56.5"/>
<text text-anchor="middle" x="169" y="-63.5" font-family="Helvetica,sans-Serif" font-size="10.00">emlabcpp/types/base.h</text>
</a>
</g>
</g>
<!-- Node2&#45;&gt;Node3 -->
<g id="edge2" class="edge">
<title>Node2&#45;&gt;Node3</title>
<path fill="none" stroke="midnightblue" d="M179.85,-112.08C178.13,-104.93 175.65,-94.64 173.5,-85.69"/>
<polygon fill="midnightblue" stroke="midnightblue" points="176.85,-84.65 171.11,-75.75 170.04,-86.29 176.85,-84.65"/>
</g>
<!-- Node10 -->
<g id="node6" class="node">
<title>Node10</title>
<g id="a_node6"><a xlink:title=" ">
<polygon fill="white" stroke="#bfbfbf" points="324,-56.5 324,-75.5 384,-75.5 384,-56.5 324,-56.5"/>
<text text-anchor="middle" x="354" y="-63.5" font-family="Helvetica,sans-Serif" font-size="10.00">concepts</text>
</a>
</g>
</g>
<!-- Node2&#45;&gt;Node10 -->
<g id="edge5" class="edge">
<title>Node2&#45;&gt;Node10</title>
<path fill="none" stroke="midnightblue" d="M209.25,-112.44C238.44,-103.28 284.92,-88.69 317.31,-78.52"/>
<polygon fill="midnightblue" stroke="midnightblue" points="318.38,-81.85 326.87,-75.52 316.28,-75.17 318.38,-81.85"/>
</g>
<!-- Node11 -->
<g id="node7" class="node">
<title>Node11</title>
<g id="a_node7"><a xlink:title=" ">
<polygon fill="white" stroke="#bfbfbf" points="252.5,-56.5 252.5,-75.5 305.5,-75.5 305.5,-56.5 252.5,-56.5"/>
<text text-anchor="middle" x="279" y="-63.5" font-family="Helvetica,sans-Serif" font-size="10.00">iterator</text>
</a>
</g>
</g>
<!-- Node2&#45;&gt;Node11 -->
<g id="edge6" class="edge">
<title>Node2&#45;&gt;Node11</title>
<path fill="none" stroke="midnightblue" d="M197.58,-112.32C213,-103.74 236.81,-90.49 254.71,-80.52"/>
<polygon fill="midnightblue" stroke="midnightblue" points="256.42,-83.58 263.45,-75.65 253.01,-77.46 256.42,-83.58"/>
</g>
<!-- Node12 -->
<g id="node8" class="node">
<title>Node12</title>
<g id="a_node8"><a xlink:title=" ">
<polygon fill="white" stroke="#bfbfbf" points="402.5,-56.5 402.5,-75.5 453.5,-75.5 453.5,-56.5 402.5,-56.5"/>
<text text-anchor="middle" x="428" y="-63.5" font-family="Helvetica,sans-Serif" font-size="10.00">variant</text>
</a>
</g>
</g>
<!-- Node2&#45;&gt;Node12 -->
<g id="edge7" class="edge">
<title>Node2&#45;&gt;Node12</title>
<path fill="none" stroke="midnightblue" d="M224.55,-112.47C265.16,-104.2 328.3,-91.04 392.52,-76.03"/>
<polygon fill="midnightblue" stroke="midnightblue" points="393.48,-79.4 402.42,-73.71 391.88,-72.59 393.48,-79.4"/>
</g>
<!-- Node3&#45;&gt;Node4 -->
<g id="edge3" class="edge">
<title>Node3&#45;&gt;Node4</title>
<path fill="none" stroke="midnightblue" d="M150.62,-56.44C131.78,-47.68 102.27,-33.94 80.62,-23.86"/>
<polygon fill="midnightblue" stroke="midnightblue" points="81.84,-20.56 71.29,-19.52 78.88,-26.91 81.84,-20.56"/>
</g>
<!-- Node9 -->
<g id="node5" class="node">
<title>Node9</title>
<g id="a_node5"><a xlink:title=" ">
<polygon fill="white" stroke="#bfbfbf" points="98.5,-0.5 98.5,-19.5 145.5,-19.5 145.5,-0.5 98.5,-0.5"/>
<text text-anchor="middle" x="122" y="-7.5" font-family="Helvetica,sans-Serif" font-size="10.00">vector</text>
</a>
</g>
</g>
<!-- Node3&#45;&gt;Node9 -->
<g id="edge4" class="edge">
<title>Node3&#45;&gt;Node9</title>
<path fill="none" stroke="midnightblue" d="M161.24,-56.08C154.46,-48.3 144.46,-36.8 136.24,-27.37"/>
<polygon fill="midnightblue" stroke="midnightblue" points="138.82,-25 129.62,-19.75 133.54,-29.59 138.82,-25"/>
</g>
<!-- Node13&#45;&gt;Node9 -->
<g id="edge20" class="edge">
<title>Node13&#45;&gt;Node9</title>
<path fill="none" stroke="midnightblue" d="M210.22,-239.58C164.32,-231.23 109.19,-217.66 95,-199 56.53,-148.41 78.03,-117.25 95,-56 97.79,-45.92 103.51,-35.83 108.97,-27.77"/>
<polygon fill="midnightblue" stroke="midnightblue" points="111.82,-29.79 114.85,-19.64 106.15,-25.69 111.82,-29.79"/>
</g>
<!-- Node13&#45;&gt;Node12 -->
<g id="edge19" class="edge">
<title>Node13&#45;&gt;Node12</title>
<path fill="none" stroke="midnightblue" d="M273.59,-235.19C268,-207.96 260.2,-148.18 289,-112 295.63,-103.67 353.42,-86.89 392.36,-76.34"/>
<polygon fill="midnightblue" stroke="midnightblue" points="393.55,-79.65 402.3,-73.68 391.74,-72.89 393.55,-79.65"/>
</g>
<!-- Node14 -->
<g id="node10" class="node">
<title>Node14</title>
<g id="a_node10"><a xlink:href="pretty__printer_8h.html" target="_top" xlink:title=" ">
<polygon fill="white" stroke="red" points="350.5,-168.5 350.5,-198.5 483.5,-198.5 483.5,-168.5 350.5,-168.5"/>
<text text-anchor="start" x="358.5" y="-186.5" font-family="Helvetica,sans-Serif" font-size="10.00">emlabcpp/experimental</text>
<text text-anchor="middle" x="417" y="-175.5" font-family="Helvetica,sans-Serif" font-size="10.00">/pretty_printer.h</text>
</a>
</g>
</g>
<!-- Node13&#45;&gt;Node14 -->
<g id="edge9" class="edge">
<title>Node13&#45;&gt;Node14</title>
<path fill="none" stroke="midnightblue" d="M307.38,-235.4C327.93,-225.86 355.26,-213.16 377.5,-202.84"/>
<polygon fill="midnightblue" stroke="midnightblue" points="379.09,-205.96 386.68,-198.58 376.14,-199.61 379.09,-205.96"/>
</g>
<!-- Node17 -->
<g id="node11" class="node">
<title>Node17</title>
<g id="a_node11"><a xlink:href="match_8h.html" target="_top" xlink:title=" ">
<polygon fill="white" stroke="red" points="298.5,-112.5 298.5,-131.5 405.5,-131.5 405.5,-112.5 298.5,-112.5"/>
<text text-anchor="middle" x="352" y="-119.5" font-family="Helvetica,sans-Serif" font-size="10.00">emlabcpp/match.h</text>
</a>
</g>
</g>
<!-- Node13&#45;&gt;Node17 -->
<g id="edge16" class="edge">
<title>Node13&#45;&gt;Node17</title>
<path fill="none" stroke="midnightblue" d="M285.31,-235.48C299.05,-212.31 326.46,-166.07 341.51,-140.69"/>
<polygon fill="midnightblue" stroke="midnightblue" points="344.7,-142.18 346.79,-131.79 338.68,-138.61 344.7,-142.18"/>
</g>
<!-- Node34 -->
<g id="node15" class="node">
<title>Node34</title>
<g id="a_node15"><a xlink:title=" ">
<polygon fill="white" stroke="#bfbfbf" points="104.5,-174 104.5,-193 157.5,-193 157.5,-174 104.5,-174"/>
<text text-anchor="middle" x="131" y="-181" font-family="Helvetica,sans-Serif" font-size="10.00">cstddef</text>
</a>
</g>
</g>
<!-- Node13&#45;&gt;Node34 -->
<g id="edge17" class="edge">
<title>Node13&#45;&gt;Node34</title>
<path fill="none" stroke="midnightblue" d="M245.32,-235.4C219.7,-223.99 183.96,-208.08 159.3,-197.1"/>
<polygon fill="midnightblue" stroke="midnightblue" points="160.67,-193.88 150.11,-193.01 157.82,-200.27 160.67,-193.88"/>
</g>
<!-- Node35 -->
<g id="node16" class="node">
<title>Node35</title>
<g id="a_node16"><a xlink:title=" ">
<polygon fill="white" stroke="#bfbfbf" points="175.5,-174 175.5,-193 248.5,-193 248.5,-174 175.5,-174"/>
<text text-anchor="middle" x="212" y="-181" font-family="Helvetica,sans-Serif" font-size="10.00">string_view</text>
</a>
</g>
</g>
<!-- Node13&#45;&gt;Node35 -->
<g id="edge18" class="edge">
<title>Node13&#45;&gt;Node35</title>
<path fill="none" stroke="midnightblue" d="M262.9,-235.4C252.56,-225.06 238.52,-211.02 227.81,-200.31"/>
<polygon fill="midnightblue" stroke="midnightblue" points="230.24,-197.79 220.69,-193.19 225.29,-202.74 230.24,-197.79"/>
</g>
<!-- Node14&#45;&gt;Node2 -->
<g id="edge10" class="edge">
<title>Node14&#45;&gt;Node2</title>
<path fill="none" stroke="midnightblue" d="M361.61,-168.47C320,-157.94 263.82,-143.72 225.44,-134"/>
<polygon fill="midnightblue" stroke="midnightblue" points="226.15,-130.57 215.6,-131.51 224.43,-137.35 226.15,-130.57"/>
</g>
<!-- Node14&#45;&gt;Node12 -->
<g id="edge15" class="edge">
<title>Node14&#45;&gt;Node12</title>
<path fill="none" stroke="midnightblue" d="M418.35,-168.34C420.32,-147.62 424,-109.02 426.2,-85.9"/>
<polygon fill="midnightblue" stroke="midnightblue" points="429.71,-85.96 427.17,-75.67 422.74,-85.29 429.71,-85.96"/>
</g>
<!-- Node14&#45;&gt;Node17 -->
<g id="edge11" class="edge">
<title>Node14&#45;&gt;Node17</title>
<path fill="none" stroke="midnightblue" d="M401.6,-168.4C391.76,-159.4 379.01,-147.72 368.89,-138.47"/>
<polygon fill="midnightblue" stroke="midnightblue" points="371.2,-135.83 361.46,-131.66 366.47,-140.99 371.2,-135.83"/>
</g>
<!-- Node14&#45;&gt;Node22 -->
<g id="edge12" class="edge">
<title>Node14&#45;&gt;Node22</title>
<path fill="none" stroke="midnightblue" d="M439.51,-168.4C454.6,-158.95 474.39,-146.56 489.47,-137.11"/>
<polygon fill="midnightblue" stroke="midnightblue" points="491.56,-139.93 498.18,-131.66 487.84,-134 491.56,-139.93"/>
</g>
<!-- Node14&#45;&gt;Node30 -->
<g id="edge13" class="edge">
<title>Node14&#45;&gt;Node30</title>
<path fill="none" stroke="midnightblue" d="M462.26,-168.4C495.41,-158.07 539.85,-144.23 570.9,-134.56"/>
<polygon fill="midnightblue" stroke="midnightblue" points="571.98,-137.89 580.49,-131.57 569.9,-131.2 571.98,-137.89"/>
</g>
<!-- Node14&#45;&gt;Node32 -->
<g id="edge14" class="edge">
<title>Node14&#45;&gt;Node32</title>
<path fill="none" stroke="midnightblue" d="M483.7,-169.25C526.94,-160.31 584.65,-147.71 643.88,-132.14"/>
<polygon fill="midnightblue" stroke="midnightblue" points="645.01,-135.46 653.78,-129.51 643.22,-128.69 645.01,-135.46"/>
</g>
</g>
</svg>
