<?xml version="1.0" encoding="UTF-8" standalone="no"?>
<!DOCTYPE svg PUBLIC "-//W3C//DTD SVG 1.1//EN"
 "http://www.w3.org/Graphics/SVG/1.1/DTD/svg11.dtd">
<!-- Generated by graphviz version 2.43.0 (0)
 -->
<!-- Title: include/emlabcpp/protocol/message.h Pages: 1 -->
<svg width="470pt" height="319pt"
 viewBox="0.00 0.00 470.00 319.00" xmlns="http://www.w3.org/2000/svg" xmlns:xlink="http://www.w3.org/1999/xlink">
<g id="graph0" class="graph" transform="scale(1 1) rotate(0) translate(4 315)">
<title>include/emlabcpp/protocol/message.h</title>
<polygon fill="white" stroke="transparent" points="-4,4 -4,-315 466,-315 466,4 -4,4"/>
<!-- Node1 -->
<g id="node1" class="node">
<title>Node1</title>
<g id="a_node1"><a xlink:title=" ">
<polygon fill="#bfbfbf" stroke="black" points="286,-280.5 286,-310.5 432,-310.5 432,-280.5 286,-280.5"/>
<text text-anchor="start" x="294" y="-298.5" font-family="Helvetica,sans-Serif" font-size="10.00">include/emlabcpp/protocol</text>
<text text-anchor="middle" x="359" y="-287.5" font-family="Helvetica,sans-Serif" font-size="10.00">/message.h</text>
</a>
</g>
</g>
<!-- Node2 -->
<g id="node2" class="node">
<title>Node2</title>
<g id="a_node2"><a xlink:href="concepts_8h.html" target="_top" xlink:title=" ">
<polygon fill="white" stroke="black" points="188,-112.5 188,-131.5 308,-131.5 308,-112.5 188,-112.5"/>
<text text-anchor="middle" x="248" y="-119.5" font-family="Helvetica,sans-Serif" font-size="10.00">emlabcpp/concepts.h</text>
</a>
</g>
</g>
<!-- Node1&#45;&gt;Node2 -->
<g id="edge1" class="edge">
<title>Node1&#45;&gt;Node2</title>
<path fill="none" stroke="midnightblue" d="M356.11,-280.31C350.5,-255.47 336.22,-203.37 309,-168 299.34,-155.45 285.29,-144.76 273.1,-136.95"/>
<polygon fill="midnightblue" stroke="midnightblue" points="274.61,-133.77 264.25,-131.55 270.97,-139.74 274.61,-133.77"/>
</g>
<!-- Node4 -->
<g id="node4" class="node">
<title>Node4</title>
<g id="a_node4"><a xlink:title=" ">
<polygon fill="white" stroke="#bfbfbf" points="200,-0.5 200,-19.5 242,-19.5 242,-0.5 200,-0.5"/>
<text text-anchor="middle" x="221" y="-7.5" font-family="Helvetica,sans-Serif" font-size="10.00">array</text>
</a>
</g>
</g>
<!-- Node1&#45;&gt;Node4 -->
<g id="edge11" class="edge">
<title>Node1&#45;&gt;Node4</title>
<path fill="none" stroke="midnightblue" d="M362.84,-280.4C368.4,-258.76 378,-215.99 378,-179 378,-179 378,-179 378,-121 378,-90.77 379.17,-77.57 358,-56 329.92,-27.39 283.37,-16.96 252.44,-13.17"/>
<polygon fill="midnightblue" stroke="midnightblue" points="252.52,-9.66 242.21,-12.08 251.78,-16.62 252.52,-9.66"/>
</g>
<!-- Node13 -->
<g id="node8" class="node">
<title>Node13</title>
<g id="a_node8"><a xlink:href="view_8h.html" target="_top" xlink:title=" ">
<polygon fill="white" stroke="black" points="205.5,-224.5 205.5,-243.5 304.5,-243.5 304.5,-224.5 205.5,-224.5"/>
<text text-anchor="middle" x="255" y="-231.5" font-family="Helvetica,sans-Serif" font-size="10.00">emlabcpp/view.h</text>
</a>
</g>
</g>
<!-- Node1&#45;&gt;Node13 -->
<g id="edge7" class="edge">
<title>Node1&#45;&gt;Node13</title>
<path fill="none" stroke="midnightblue" d="M334.35,-280.4C317.68,-270.86 295.77,-258.32 279.19,-248.84"/>
<polygon fill="midnightblue" stroke="midnightblue" points="280.55,-245.59 270.13,-243.66 277.07,-251.66 280.55,-245.59"/>
</g>
<!-- Node16 -->
<g id="node10" class="node">
<title>Node16</title>
<g id="a_node10"><a xlink:title=" ">
<polygon fill="white" stroke="#bfbfbf" points="406,-224.5 406,-243.5 462,-243.5 462,-224.5 406,-224.5"/>
<text text-anchor="middle" x="434" y="-231.5" font-family="Helvetica,sans-Serif" font-size="10.00">optional</text>
</a>
</g>
</g>
<!-- Node1&#45;&gt;Node16 -->
<g id="edge12" class="edge">
<title>Node1&#45;&gt;Node16</title>
<path fill="none" stroke="midnightblue" d="M376.77,-280.4C388.35,-271.22 403.42,-259.26 415.2,-249.92"/>
<polygon fill="midnightblue" stroke="midnightblue" points="417.43,-252.61 423.09,-243.66 413.08,-247.13 417.43,-252.61"/>
</g>
<!-- Node3 -->
<g id="node3" class="node">
<title>Node3</title>
<g id="a_node3"><a xlink:href="types_2base_8h.html" target="_top" xlink:title=" ">
<polygon fill="white" stroke="red" points="0,-56.5 0,-75.5 130,-75.5 130,-56.5 0,-56.5"/>
<text text-anchor="middle" x="65" y="-63.5" font-family="Helvetica,sans-Serif" font-size="10.00">emlabcpp/types/base.h</text>
</a>
</g>
</g>
<!-- Node2&#45;&gt;Node3 -->
<g id="edge2" class="edge">
<title>Node2&#45;&gt;Node3</title>
<path fill="none" stroke="midnightblue" d="M219,-112.44C187.82,-103.24 138.07,-88.56 103.59,-78.39"/>
<polygon fill="midnightblue" stroke="midnightblue" points="104.44,-74.99 93.86,-75.52 102.46,-81.7 104.44,-74.99"/>
</g>
<!-- Node10 -->
<g id="node5" class="node">
<title>Node10</title>
<g id="a_node5"><a xlink:title=" ">
<polygon fill="white" stroke="#bfbfbf" points="218,-56.5 218,-75.5 278,-75.5 278,-56.5 218,-56.5"/>
<text text-anchor="middle" x="248" y="-63.5" font-family="Helvetica,sans-Serif" font-size="10.00">concepts</text>
</a>
</g>
</g>
<!-- Node2&#45;&gt;Node10 -->
<g id="edge4" class="edge">
<title>Node2&#45;&gt;Node10</title>
<path fill="none" stroke="midnightblue" d="M248,-112.08C248,-105.01 248,-94.86 248,-85.99"/>
<polygon fill="midnightblue" stroke="midnightblue" points="251.5,-85.75 248,-75.75 244.5,-85.75 251.5,-85.75"/>
</g>
<!-- Node11 -->
<g id="node6" class="node">
<title>Node11</title>
<g id="a_node6"><a xlink:title=" ">
<polygon fill="white" stroke="#bfbfbf" points="296.5,-56.5 296.5,-75.5 349.5,-75.5 349.5,-56.5 296.5,-56.5"/>
<text text-anchor="middle" x="323" y="-63.5" font-family="Helvetica,sans-Serif" font-size="10.00">iterator</text>
</a>
</g>
</g>
<!-- Node2&#45;&gt;Node11 -->
<g id="edge5" class="edge">
<title>Node2&#45;&gt;Node11</title>
<path fill="none" stroke="midnightblue" d="M260.05,-112.32C271.46,-104.11 288.83,-91.6 302.43,-81.81"/>
<polygon fill="midnightblue" stroke="midnightblue" points="304.66,-84.52 310.73,-75.83 300.57,-78.84 304.66,-84.52"/>
</g>
<!-- Node12 -->
<g id="node7" class="node">
<title>Node12</title>
<g id="a_node7"><a xlink:title=" ">
<polygon fill="white" stroke="#bfbfbf" points="148.5,-56.5 148.5,-75.5 199.5,-75.5 199.5,-56.5 148.5,-56.5"/>
<text text-anchor="middle" x="174" y="-63.5" font-family="Helvetica,sans-Serif" font-size="10.00">variant</text>
</a>
</g>
</g>
<!-- Node2&#45;&gt;Node12 -->
<g id="edge6" class="edge">
<title>Node2&#45;&gt;Node12</title>
<path fill="none" stroke="midnightblue" d="M236.11,-112.32C224.85,-104.11 207.71,-91.6 194.29,-81.81"/>
<polygon fill="midnightblue" stroke="midnightblue" points="196.25,-78.9 186.11,-75.83 192.12,-84.56 196.25,-78.9"/>
</g>
<!-- Node3&#45;&gt;Node4 -->
<g id="edge3" class="edge">
<title>Node3&#45;&gt;Node4</title>
<path fill="none" stroke="midnightblue" d="M89.72,-56.44C116.92,-47.03 160.7,-31.87 190.13,-21.68"/>
<polygon fill="midnightblue" stroke="midnightblue" points="191.59,-24.88 199.9,-18.3 189.3,-18.27 191.59,-24.88"/>
</g>
<!-- Node14 -->
<g id="node9" class="node">
<title>Node14</title>
<g id="a_node9"><a xlink:href="types_8h.html" target="_top" xlink:title=" ">
<polygon fill="white" stroke="red" points="196,-168.5 196,-187.5 300,-187.5 300,-168.5 196,-168.5"/>
<text text-anchor="middle" x="248" y="-175.5" font-family="Helvetica,sans-Serif" font-size="10.00">emlabcpp/types.h</text>
</a>
</g>
</g>
<!-- Node13&#45;&gt;Node14 -->
<g id="edge8" class="edge">
<title>Node13&#45;&gt;Node14</title>
<path fill="none" stroke="midnightblue" d="M253.84,-224.08C252.92,-216.93 251.58,-206.64 250.42,-197.69"/>
<polygon fill="midnightblue" stroke="midnightblue" points="253.89,-197.22 249.13,-187.75 246.95,-198.12 253.89,-197.22"/>
</g>
<!-- Node14&#45;&gt;Node2 -->
<g id="edge9" class="edge">
<title>Node14&#45;&gt;Node2</title>
<path fill="none" stroke="midnightblue" d="M248,-168.08C248,-161.01 248,-150.86 248,-141.99"/>
<polygon fill="midnightblue" stroke="midnightblue" points="251.5,-141.75 248,-131.75 244.5,-141.75 251.5,-141.75"/>
</g>
<!-- Node14&#45;&gt;Node3 -->
<g id="edge10" class="edge">
<title>Node14&#45;&gt;Node3</title>
<path fill="none" stroke="midnightblue" d="M233.64,-168.37C202.1,-149.41 126.56,-104 88.2,-80.94"/>
<polygon fill="midnightblue" stroke="midnightblue" points="89.67,-77.74 79.29,-75.59 86.06,-83.74 89.67,-77.74"/>
</g>
</g>
</svg>
