<?xml version="1.0" encoding="UTF-8" standalone="no"?>
<!DOCTYPE svg PUBLIC "-//W3C//DTD SVG 1.1//EN"
 "http://www.w3.org/Graphics/SVG/1.1/DTD/svg11.dtd">
<!-- Generated by graphviz version 2.43.0 (0)
 -->
<!-- Title: include/emlabcpp/protocol/message.h Pages: 1 -->
<svg width="528pt" height="319pt"
 viewBox="0.00 0.00 528.00 319.00" xmlns="http://www.w3.org/2000/svg" xmlns:xlink="http://www.w3.org/1999/xlink">
<g id="graph0" class="graph" transform="scale(1 1) rotate(0) translate(4 315)">
<title>include/emlabcpp/protocol/message.h</title>
<polygon fill="white" stroke="transparent" points="-4,4 -4,-315 524,-315 524,4 -4,4"/>
<!-- Node1 -->
<g id="node1" class="node">
<title>Node1</title>
<g id="a_node1"><a xlink:title=" ">
<polygon fill="#bfbfbf" stroke="black" points="305,-280.5 305,-310.5 451,-310.5 451,-280.5 305,-280.5"/>
<text text-anchor="start" x="313" y="-298.5" font-family="Helvetica,sans-Serif" font-size="10.00">include/emlabcpp/protocol</text>
<text text-anchor="middle" x="378" y="-287.5" font-family="Helvetica,sans-Serif" font-size="10.00">/message.h</text>
</a>
</g>
</g>
<!-- Node2 -->
<g id="node2" class="node">
<title>Node2</title>
<g id="a_node2"><a xlink:href="concepts_8h.html" target="_top" xlink:title=" ">
<polygon fill="white" stroke="black" points="188,-112.5 188,-131.5 308,-131.5 308,-112.5 188,-112.5"/>
<text text-anchor="middle" x="248" y="-119.5" font-family="Helvetica,sans-Serif" font-size="10.00">emlabcpp/concepts.h</text>
</a>
</g>
</g>
<!-- Node1&#45;&gt;Node2 -->
<g id="edge1" class="edge">
<title>Node1&#45;&gt;Node2</title>
<path fill="none" stroke="midnightblue" d="M372.68,-280.36C362.88,-255.6 340.08,-203.63 309,-168 298.45,-155.91 284.12,-145.13 271.99,-137.15"/>
<polygon fill="midnightblue" stroke="midnightblue" points="273.57,-134.01 263.25,-131.62 269.83,-139.93 273.57,-134.01"/>
</g>
<!-- Node4 -->
<g id="node4" class="node">
<title>Node4</title>
<g id="a_node4"><a xlink:title=" ">
<polygon fill="white" stroke="#bfbfbf" points="200,-0.5 200,-19.5 242,-19.5 242,-0.5 200,-0.5"/>
<text text-anchor="middle" x="221" y="-7.5" font-family="Helvetica,sans-Serif" font-size="10.00">array</text>
</a>
</g>
</g>
<!-- Node1&#45;&gt;Node4 -->
<g id="edge11" class="edge">
<title>Node1&#45;&gt;Node4</title>
<path fill="none" stroke="midnightblue" d="M378,-280.28C378,-258.48 378,-215.49 378,-179 378,-179 378,-179 378,-121 378,-90.77 379.17,-77.57 358,-56 329.92,-27.39 283.37,-16.96 252.44,-13.17"/>
<polygon fill="midnightblue" stroke="midnightblue" points="252.52,-9.66 242.21,-12.08 251.78,-16.62 252.52,-9.66"/>
</g>
<!-- Node13 -->
<g id="node8" class="node">
<title>Node13</title>
<g id="a_node8"><a xlink:href="view_8h.html" target="_top" xlink:title=" ">
<polygon fill="white" stroke="black" points="202.5,-224.5 202.5,-243.5 301.5,-243.5 301.5,-224.5 202.5,-224.5"/>
<text text-anchor="middle" x="252" y="-231.5" font-family="Helvetica,sans-Serif" font-size="10.00">emlabcpp/view.h</text>
</a>
</g>
</g>
<!-- Node1&#45;&gt;Node13 -->
<g id="edge7" class="edge">
<title>Node1&#45;&gt;Node13</title>
<path fill="none" stroke="midnightblue" d="M348.14,-280.4C327.38,-270.59 299.9,-257.62 279.64,-248.05"/>
<polygon fill="midnightblue" stroke="midnightblue" points="280.87,-244.76 270.33,-243.66 277.88,-251.09 280.87,-244.76"/>
</g>
<!-- Node16 -->
<g id="node10" class="node">
<title>Node16</title>
<g id="a_node10"><a xlink:title=" ">
<polygon fill="white" stroke="#bfbfbf" points="406,-224.5 406,-243.5 462,-243.5 462,-224.5 406,-224.5"/>
<text text-anchor="middle" x="434" y="-231.5" font-family="Helvetica,sans-Serif" font-size="10.00">optional</text>
</a>
</g>
</g>
<!-- Node1&#45;&gt;Node16 -->
<g id="edge12" class="edge">
<title>Node1&#45;&gt;Node16</title>
<path fill="none" stroke="midnightblue" d="M391.27,-280.4C399.58,-271.58 410.3,-260.18 418.92,-251.02"/>
<polygon fill="midnightblue" stroke="midnightblue" points="421.55,-253.34 425.85,-243.66 416.45,-248.54 421.55,-253.34"/>
</g>
<!-- Node17 -->
<g id="node11" class="node">
<title>Node17</title>
<g id="a_node11"><a xlink:title=" ">
<polygon fill="white" stroke="#bfbfbf" points="480,-224.5 480,-243.5 520,-243.5 520,-224.5 480,-224.5"/>
<text text-anchor="middle" x="500" y="-231.5" font-family="Helvetica,sans-Serif" font-size="10.00">span</text>
</a>
</g>
</g>
<!-- Node1&#45;&gt;Node17 -->
<g id="edge13" class="edge">
<title>Node1&#45;&gt;Node17</title>
<path fill="none" stroke="midnightblue" d="M406.91,-280.4C427.02,-270.59 453.62,-257.62 473.24,-248.05"/>
<polygon fill="midnightblue" stroke="midnightblue" points="474.79,-251.19 482.25,-243.66 471.73,-244.9 474.79,-251.19"/>
</g>
<!-- Node3 -->
<g id="node3" class="node">
<title>Node3</title>
<g id="a_node3"><a xlink:href="types_2base_8h.html" target="_top" xlink:title=" ">
<polygon fill="white" stroke="red" points="0,-56.5 0,-75.5 130,-75.5 130,-56.5 0,-56.5"/>
<text text-anchor="middle" x="65" y="-63.5" font-family="Helvetica,sans-Serif" font-size="10.00">emlabcpp/types/base.h</text>
</a>
</g>
</g>
<!-- Node2&#45;&gt;Node3 -->
<g id="edge2" class="edge">
<title>Node2&#45;&gt;Node3</title>
<path fill="none" stroke="midnightblue" d="M219,-112.44C187.82,-103.24 138.07,-88.56 103.59,-78.39"/>
<polygon fill="midnightblue" stroke="midnightblue" points="104.44,-74.99 93.86,-75.52 102.46,-81.7 104.44,-74.99"/>
</g>
<!-- Node10 -->
<g id="node5" class="node">
<title>Node10</title>
<g id="a_node5"><a xlink:title=" ">
<polygon fill="white" stroke="#bfbfbf" points="218,-56.5 218,-75.5 278,-75.5 278,-56.5 218,-56.5"/>
<text text-anchor="middle" x="248" y="-63.5" font-family="Helvetica,sans-Serif" font-size="10.00">concepts</text>
</a>
</g>
</g>
<!-- Node2&#45;&gt;Node10 -->
<g id="edge4" class="edge">
<title>Node2&#45;&gt;Node10</title>
<path fill="none" stroke="midnightblue" d="M248,-112.08C248,-105.01 248,-94.86 248,-85.99"/>
<polygon fill="midnightblue" stroke="midnightblue" points="251.5,-85.75 248,-75.75 244.5,-85.75 251.5,-85.75"/>
</g>
<!-- Node11 -->
<g id="node6" class="node">
<title>Node11</title>
<g id="a_node6"><a xlink:title=" ">
<polygon fill="white" stroke="#bfbfbf" points="296.5,-56.5 296.5,-75.5 349.5,-75.5 349.5,-56.5 296.5,-56.5"/>
<text text-anchor="middle" x="323" y="-63.5" font-family="Helvetica,sans-Serif" font-size="10.00">iterator</text>
</a>
</g>
</g>
<!-- Node2&#45;&gt;Node11 -->
<g id="edge5" class="edge">
<title>Node2&#45;&gt;Node11</title>
<path fill="none" stroke="midnightblue" d="M260.05,-112.32C271.46,-104.11 288.83,-91.6 302.43,-81.81"/>
<polygon fill="midnightblue" stroke="midnightblue" points="304.66,-84.52 310.73,-75.83 300.57,-78.84 304.66,-84.52"/>
</g>
<!-- Node12 -->
<g id="node7" class="node">
<title>Node12</title>
<g id="a_node7"><a xlink:title=" ">
<polygon fill="white" stroke="#bfbfbf" points="148.5,-56.5 148.5,-75.5 199.5,-75.5 199.5,-56.5 148.5,-56.5"/>
<text text-anchor="middle" x="174" y="-63.5" font-family="Helvetica,sans-Serif" font-size="10.00">variant</text>
</a>
</g>
</g>
<!-- Node2&#45;&gt;Node12 -->
<g id="edge6" class="edge">
<title>Node2&#45;&gt;Node12</title>
<path fill="none" stroke="midnightblue" d="M236.11,-112.32C224.85,-104.11 207.71,-91.6 194.29,-81.81"/>
<polygon fill="midnightblue" stroke="midnightblue" points="196.25,-78.9 186.11,-75.83 192.12,-84.56 196.25,-78.9"/>
</g>
<!-- Node3&#45;&gt;Node4 -->
<g id="edge3" class="edge">
<title>Node3&#45;&gt;Node4</title>
<path fill="none" stroke="midnightblue" d="M89.72,-56.44C116.92,-47.03 160.7,-31.87 190.13,-21.68"/>
<polygon fill="midnightblue" stroke="midnightblue" points="191.59,-24.88 199.9,-18.3 189.3,-18.27 191.59,-24.88"/>
</g>
<!-- Node14 -->
<g id="node9" class="node">
<title>Node14</title>
<g id="a_node9"><a xlink:href="types_8h.html" target="_top" xlink:title=" ">
<polygon fill="white" stroke="red" points="196,-168.5 196,-187.5 300,-187.5 300,-168.5 196,-168.5"/>
<text text-anchor="middle" x="248" y="-175.5" font-family="Helvetica,sans-Serif" font-size="10.00">emlabcpp/types.h</text>
</a>
</g>
</g>
<!-- Node13&#45;&gt;Node14 -->
<g id="edge8" class="edge">
<title>Node13&#45;&gt;Node14</title>
<path fill="none" stroke="midnightblue" d="M251.34,-224.08C250.82,-217.01 250.06,-206.86 249.41,-197.99"/>
<polygon fill="midnightblue" stroke="midnightblue" points="252.88,-197.47 248.65,-187.75 245.9,-197.98 252.88,-197.47"/>
</g>
<!-- Node14&#45;&gt;Node2 -->
<g id="edge9" class="edge">
<title>Node14&#45;&gt;Node2</title>
<path fill="none" stroke="midnightblue" d="M248,-168.08C248,-161.01 248,-150.86 248,-141.99"/>
<polygon fill="midnightblue" stroke="midnightblue" points="251.5,-141.75 248,-131.75 244.5,-141.75 251.5,-141.75"/>
</g>
<!-- Node14&#45;&gt;Node3 -->
<g id="edge10" class="edge">
<title>Node14&#45;&gt;Node3</title>
<path fill="none" stroke="midnightblue" d="M233.64,-168.37C202.1,-149.41 126.56,-104 88.2,-80.94"/>
<polygon fill="midnightblue" stroke="midnightblue" points="89.67,-77.74 79.29,-75.59 86.06,-83.74 89.67,-77.74"/>
</g>
</g>
</svg>
