<?xml version="1.0" encoding="UTF-8" standalone="no"?>
<!DOCTYPE svg PUBLIC "-//W3C//DTD SVG 1.1//EN"
 "http://www.w3.org/Graphics/SVG/1.1/DTD/svg11.dtd">
<!-- Generated by graphviz version 2.43.0 (0)
 -->
<!-- Title: include/emlabcpp/protocol/message.h Pages: 1 -->
<svg width="330pt" height="319pt"
 viewBox="0.00 0.00 330.00 319.00" xmlns="http://www.w3.org/2000/svg" xmlns:xlink="http://www.w3.org/1999/xlink">
<g id="graph0" class="graph" transform="scale(1 1) rotate(0) translate(4 315)">
<title>include/emlabcpp/protocol/message.h</title>
<polygon fill="white" stroke="transparent" points="-4,4 -4,-315 326,-315 326,4 -4,4"/>
<!-- Node1 -->
<g id="node1" class="node">
<title>Node1</title>
<g id="a_node1"><a xlink:title=" ">
<polygon fill="#bfbfbf" stroke="black" points="146,-280.5 146,-310.5 292,-310.5 292,-280.5 146,-280.5"/>
<text text-anchor="start" x="154" y="-298.5" font-family="Helvetica,sans-Serif" font-size="10.00">include/emlabcpp/protocol</text>
<text text-anchor="middle" x="219" y="-287.5" font-family="Helvetica,sans-Serif" font-size="10.00">/message.h</text>
</a>
</g>
</g>
<!-- Node2 -->
<g id="node2" class="node">
<title>Node2</title>
<g id="a_node2"><a xlink:href="concepts_8h.html" target="_top" xlink:title=" ">
<polygon fill="white" stroke="black" points="90,-112.5 90,-131.5 210,-131.5 210,-112.5 90,-112.5"/>
<text text-anchor="middle" x="150" y="-119.5" font-family="Helvetica,sans-Serif" font-size="10.00">emlabcpp/concepts.h</text>
</a>
</g>
</g>
<!-- Node1&#45;&gt;Node2 -->
<g id="edge1" class="edge">
<title>Node1&#45;&gt;Node2</title>
<path fill="none" stroke="midnightblue" d="M216.25,-280.31C211.28,-256.34 199.56,-206.66 181,-168 176.24,-158.08 169.42,-147.9 163.4,-139.75"/>
<polygon fill="midnightblue" stroke="midnightblue" points="166.16,-137.6 157.3,-131.79 160.61,-141.86 166.16,-137.6"/>
</g>
<!-- Node4 -->
<g id="node4" class="node">
<title>Node4</title>
<g id="a_node4"><a xlink:title=" ">
<polygon fill="white" stroke="#bfbfbf" points="129,-0.5 129,-19.5 171,-19.5 171,-0.5 129,-0.5"/>
<text text-anchor="middle" x="150" y="-7.5" font-family="Helvetica,sans-Serif" font-size="10.00">array</text>
</a>
</g>
</g>
<!-- Node1&#45;&gt;Node4 -->
<g id="edge9" class="edge">
<title>Node1&#45;&gt;Node4</title>
<path fill="none" stroke="midnightblue" d="M222.84,-280.4C228.4,-258.76 238,-215.99 238,-179 238,-179 238,-179 238,-121 238,-90.64 235.27,-80.24 217,-56 206.93,-42.64 191.67,-31.95 178.26,-24.35"/>
<polygon fill="midnightblue" stroke="midnightblue" points="179.82,-21.21 169.35,-19.58 176.52,-27.39 179.82,-21.21"/>
</g>
<!-- Node11 -->
<g id="node6" class="node">
<title>Node11</title>
<g id="a_node6"><a xlink:href="view_8h.html" target="_top" xlink:title=" ">
<polygon fill="white" stroke="black" points="71.5,-224.5 71.5,-243.5 170.5,-243.5 170.5,-224.5 71.5,-224.5"/>
<text text-anchor="middle" x="121" y="-231.5" font-family="Helvetica,sans-Serif" font-size="10.00">emlabcpp/view.h</text>
</a>
</g>
</g>
<!-- Node1&#45;&gt;Node11 -->
<g id="edge5" class="edge">
<title>Node1&#45;&gt;Node11</title>
<path fill="none" stroke="midnightblue" d="M195.78,-280.4C180.21,-270.95 159.8,-258.56 144.24,-249.11"/>
<polygon fill="midnightblue" stroke="midnightblue" points="145.62,-245.86 135.26,-243.66 141.99,-251.84 145.62,-245.86"/>
</g>
<!-- Node14 -->
<g id="node8" class="node">
<title>Node14</title>
<g id="a_node8"><a xlink:title=" ">
<polygon fill="white" stroke="#bfbfbf" points="266,-224.5 266,-243.5 322,-243.5 322,-224.5 266,-224.5"/>
<text text-anchor="middle" x="294" y="-231.5" font-family="Helvetica,sans-Serif" font-size="10.00">optional</text>
</a>
</g>
</g>
<!-- Node1&#45;&gt;Node14 -->
<g id="edge10" class="edge">
<title>Node1&#45;&gt;Node14</title>
<path fill="none" stroke="midnightblue" d="M236.77,-280.4C248.35,-271.22 263.42,-259.26 275.2,-249.92"/>
<polygon fill="midnightblue" stroke="midnightblue" points="277.43,-252.61 283.09,-243.66 273.08,-247.13 277.43,-252.61"/>
</g>
<!-- Node3 -->
<g id="node3" class="node">
<title>Node3</title>
<g id="a_node3"><a xlink:href="types_2base_8h.html" target="_top" xlink:title=" ">
<polygon fill="white" stroke="red" points="0,-56.5 0,-75.5 130,-75.5 130,-56.5 0,-56.5"/>
<text text-anchor="middle" x="65" y="-63.5" font-family="Helvetica,sans-Serif" font-size="10.00">emlabcpp/types/base.h</text>
</a>
</g>
</g>
<!-- Node2&#45;&gt;Node3 -->
<g id="edge2" class="edge">
<title>Node2&#45;&gt;Node3</title>
<path fill="none" stroke="midnightblue" d="M136.34,-112.32C123.08,-103.9 102.73,-90.97 87.15,-81.07"/>
<polygon fill="midnightblue" stroke="midnightblue" points="88.94,-78.06 78.62,-75.65 85.19,-83.97 88.94,-78.06"/>
</g>
<!-- Node10 -->
<g id="node5" class="node">
<title>Node10</title>
<g id="a_node5"><a xlink:title=" ">
<polygon fill="white" stroke="#bfbfbf" points="148,-56.5 148,-75.5 208,-75.5 208,-56.5 148,-56.5"/>
<text text-anchor="middle" x="178" y="-63.5" font-family="Helvetica,sans-Serif" font-size="10.00">concepts</text>
</a>
</g>
</g>
<!-- Node2&#45;&gt;Node10 -->
<g id="edge4" class="edge">
<title>Node2&#45;&gt;Node10</title>
<path fill="none" stroke="midnightblue" d="M154.62,-112.08C158.46,-104.69 164.02,-93.95 168.76,-84.81"/>
<polygon fill="midnightblue" stroke="midnightblue" points="171.97,-86.24 173.46,-75.75 165.75,-83.02 171.97,-86.24"/>
</g>
<!-- Node3&#45;&gt;Node4 -->
<g id="edge3" class="edge">
<title>Node3&#45;&gt;Node4</title>
<path fill="none" stroke="midnightblue" d="M78.66,-56.32C91.92,-47.9 112.27,-34.97 127.85,-25.07"/>
<polygon fill="midnightblue" stroke="midnightblue" points="129.81,-27.97 136.38,-19.65 126.06,-22.06 129.81,-27.97"/>
</g>
<!-- Node12 -->
<g id="node7" class="node">
<title>Node12</title>
<g id="a_node7"><a xlink:href="types_8h.html" target="_top" xlink:title=" ">
<polygon fill="white" stroke="red" points="68,-168.5 68,-187.5 172,-187.5 172,-168.5 68,-168.5"/>
<text text-anchor="middle" x="120" y="-175.5" font-family="Helvetica,sans-Serif" font-size="10.00">emlabcpp/types.h</text>
</a>
</g>
</g>
<!-- Node11&#45;&gt;Node12 -->
<g id="edge6" class="edge">
<title>Node11&#45;&gt;Node12</title>
<path fill="none" stroke="midnightblue" d="M120.83,-224.08C120.7,-217.01 120.52,-206.86 120.35,-197.99"/>
<polygon fill="midnightblue" stroke="midnightblue" points="123.85,-197.68 120.16,-187.75 116.85,-197.81 123.85,-197.68"/>
</g>
<!-- Node12&#45;&gt;Node2 -->
<g id="edge7" class="edge">
<title>Node12&#45;&gt;Node2</title>
<path fill="none" stroke="midnightblue" d="M124.95,-168.08C129.1,-160.61 135.15,-149.72 140.27,-140.52"/>
<polygon fill="midnightblue" stroke="midnightblue" points="143.34,-142.19 145.14,-131.75 137.22,-138.79 143.34,-142.19"/>
</g>
<!-- Node12&#45;&gt;Node3 -->
<g id="edge8" class="edge">
<title>Node12&#45;&gt;Node3</title>
<path fill="none" stroke="midnightblue" d="M110.19,-168.32C101.28,-159.9 88.41,-146.32 81,-132 73.49,-117.49 69.4,-99.3 67.24,-85.86"/>
<polygon fill="midnightblue" stroke="midnightblue" points="70.7,-85.29 65.85,-75.87 63.76,-86.26 70.7,-85.29"/>
</g>
</g>
</svg>
