<?xml version="1.0" encoding="UTF-8" standalone="no"?>
<!DOCTYPE svg PUBLIC "-//W3C//DTD SVG 1.1//EN"
 "http://www.w3.org/Graphics/SVG/1.1/DTD/svg11.dtd">
<!-- Generated by graphviz version 2.43.0 (0)
 -->
<!-- Title: include/emlabcpp/protocol/message.h Pages: 1 -->
<svg width="357pt" height="263pt"
 viewBox="0.00 0.00 357.00 263.00" xmlns="http://www.w3.org/2000/svg" xmlns:xlink="http://www.w3.org/1999/xlink">
<g id="graph0" class="graph" transform="scale(1 1) rotate(0) translate(4 259)">
<title>include/emlabcpp/protocol/message.h</title>
<polygon fill="white" stroke="transparent" points="-4,4 -4,-259 353,-259 353,4 -4,4"/>
<!-- Node1 -->
<g id="node1" class="node">
<title>Node1</title>
<g id="a_node1"><a xlink:title=" ">
<polygon fill="#bfbfbf" stroke="black" points="141,-224.5 141,-254.5 287,-254.5 287,-224.5 141,-224.5"/>
<text text-anchor="start" x="149" y="-242.5" font-family="Helvetica,sans-Serif" font-size="10.00">include/emlabcpp/protocol</text>
<text text-anchor="middle" x="214" y="-231.5" font-family="Helvetica,sans-Serif" font-size="10.00">/message.h</text>
</a>
</g>
</g>
<!-- Node2 -->
<g id="node2" class="node">
<title>Node2</title>
<g id="a_node2"><a xlink:href="concepts_8h.html" target="_top" xlink:title=" ">
<polygon fill="white" stroke="black" points="115,-56.5 115,-75.5 235,-75.5 235,-56.5 115,-56.5"/>
<text text-anchor="middle" x="175" y="-63.5" font-family="Helvetica,sans-Serif" font-size="10.00">emlabcpp/concepts.h</text>
</a>
</g>
</g>
<!-- Node1&#45;&gt;Node2 -->
<g id="edge1" class="edge">
<title>Node1&#45;&gt;Node2</title>
<path fill="none" stroke="midnightblue" d="M207.74,-224.16C203.61,-214.19 198.35,-200.49 195,-188 185.48,-152.47 179.7,-109.8 176.95,-85.8"/>
<polygon fill="midnightblue" stroke="midnightblue" points="180.4,-85.19 175.84,-75.63 173.45,-85.95 180.4,-85.19"/>
</g>
<!-- Node13 -->
<g id="node7" class="node">
<title>Node13</title>
<g id="a_node7"><a xlink:href="view_8h.html" target="_top" xlink:title=" ">
<polygon fill="white" stroke="black" points="204.5,-168.5 204.5,-187.5 303.5,-187.5 303.5,-168.5 204.5,-168.5"/>
<text text-anchor="middle" x="254" y="-175.5" font-family="Helvetica,sans-Serif" font-size="10.00">emlabcpp/view.h</text>
</a>
</g>
</g>
<!-- Node1&#45;&gt;Node13 -->
<g id="edge6" class="edge">
<title>Node1&#45;&gt;Node13</title>
<path fill="none" stroke="midnightblue" d="M223.48,-224.4C229.17,-215.93 236.45,-205.1 242.48,-196.14"/>
<polygon fill="midnightblue" stroke="midnightblue" points="245.51,-197.91 248.18,-187.66 239.7,-194 245.51,-197.91"/>
</g>
<!-- Node3 -->
<g id="node3" class="node">
<title>Node3</title>
<g id="a_node3"><a xlink:href="types_2base_8h.html" target="_top" xlink:title=" ">
<polygon fill="white" stroke="red" points="219,-0.5 219,-19.5 349,-19.5 349,-0.5 219,-0.5"/>
<text text-anchor="middle" x="284" y="-7.5" font-family="Helvetica,sans-Serif" font-size="10.00">emlabcpp/types/base.h</text>
</a>
</g>
</g>
<!-- Node2&#45;&gt;Node3 -->
<g id="edge2" class="edge">
<title>Node2&#45;&gt;Node3</title>
<path fill="none" stroke="midnightblue" d="M192.51,-56.32C210.07,-47.62 237.33,-34.12 257.53,-24.11"/>
<polygon fill="midnightblue" stroke="midnightblue" points="259.12,-27.23 266.53,-19.65 256.02,-20.96 259.12,-27.23"/>
</g>
<!-- Node10 -->
<g id="node4" class="node">
<title>Node10</title>
<g id="a_node4"><a xlink:title=" ">
<polygon fill="white" stroke="#bfbfbf" points="0,-0.5 0,-19.5 60,-19.5 60,-0.5 0,-0.5"/>
<text text-anchor="middle" x="30" y="-7.5" font-family="Helvetica,sans-Serif" font-size="10.00">concepts</text>
</a>
</g>
</g>
<!-- Node2&#45;&gt;Node10 -->
<g id="edge3" class="edge">
<title>Node2&#45;&gt;Node10</title>
<path fill="none" stroke="midnightblue" d="M152.02,-56.44C127.84,-47.44 89.58,-33.19 62.35,-23.05"/>
<polygon fill="midnightblue" stroke="midnightblue" points="63.46,-19.73 52.87,-19.52 61.02,-26.29 63.46,-19.73"/>
</g>
<!-- Node11 -->
<g id="node5" class="node">
<title>Node11</title>
<g id="a_node5"><a xlink:title=" ">
<polygon fill="white" stroke="#bfbfbf" points="78.5,-0.5 78.5,-19.5 131.5,-19.5 131.5,-0.5 78.5,-0.5"/>
<text text-anchor="middle" x="105" y="-7.5" font-family="Helvetica,sans-Serif" font-size="10.00">iterator</text>
</a>
</g>
</g>
<!-- Node2&#45;&gt;Node11 -->
<g id="edge4" class="edge">
<title>Node2&#45;&gt;Node11</title>
<path fill="none" stroke="midnightblue" d="M163.75,-56.32C153.2,-48.18 137.2,-35.84 124.56,-26.09"/>
<polygon fill="midnightblue" stroke="midnightblue" points="126.51,-23.17 116.45,-19.83 122.23,-28.71 126.51,-23.17"/>
</g>
<!-- Node12 -->
<g id="node6" class="node">
<title>Node12</title>
<g id="a_node6"><a xlink:title=" ">
<polygon fill="white" stroke="#bfbfbf" points="149.5,-0.5 149.5,-19.5 200.5,-19.5 200.5,-0.5 149.5,-0.5"/>
<text text-anchor="middle" x="175" y="-7.5" font-family="Helvetica,sans-Serif" font-size="10.00">variant</text>
</a>
</g>
</g>
<!-- Node2&#45;&gt;Node12 -->
<g id="edge5" class="edge">
<title>Node2&#45;&gt;Node12</title>
<path fill="none" stroke="midnightblue" d="M175,-56.08C175,-49.01 175,-38.86 175,-29.99"/>
<polygon fill="midnightblue" stroke="midnightblue" points="178.5,-29.75 175,-19.75 171.5,-29.75 178.5,-29.75"/>
</g>
<!-- Node14 -->
<g id="node8" class="node">
<title>Node14</title>
<g id="a_node8"><a xlink:href="types_8h.html" target="_top" xlink:title=" ">
<polygon fill="white" stroke="red" points="203,-112.5 203,-131.5 307,-131.5 307,-112.5 203,-112.5"/>
<text text-anchor="middle" x="255" y="-119.5" font-family="Helvetica,sans-Serif" font-size="10.00">emlabcpp/types.h</text>
</a>
</g>
</g>
<!-- Node13&#45;&gt;Node14 -->
<g id="edge7" class="edge">
<title>Node13&#45;&gt;Node14</title>
<path fill="none" stroke="midnightblue" d="M254.17,-168.08C254.3,-161.01 254.48,-150.86 254.65,-141.99"/>
<polygon fill="midnightblue" stroke="midnightblue" points="258.15,-141.81 254.84,-131.75 251.15,-141.68 258.15,-141.81"/>
</g>
<!-- Node14&#45;&gt;Node2 -->
<g id="edge8" class="edge">
<title>Node14&#45;&gt;Node2</title>
<path fill="none" stroke="midnightblue" d="M242.15,-112.32C229.78,-103.98 210.87,-91.21 196.26,-81.35"/>
<polygon fill="midnightblue" stroke="midnightblue" points="198.07,-78.35 187.82,-75.65 194.15,-84.15 198.07,-78.35"/>
</g>
<!-- Node14&#45;&gt;Node3 -->
<g id="edge9" class="edge">
<title>Node14&#45;&gt;Node3</title>
<path fill="none" stroke="midnightblue" d="M257.28,-112.37C261.98,-94.54 272.85,-53.3 279.18,-29.27"/>
<polygon fill="midnightblue" stroke="midnightblue" points="282.57,-30.15 281.73,-19.59 275.8,-28.37 282.57,-30.15"/>
</g>
</g>
</svg>
