<?xml version="1.0" encoding="UTF-8" standalone="no"?>
<!DOCTYPE svg PUBLIC "-//W3C//DTD SVG 1.1//EN"
 "http://www.w3.org/Graphics/SVG/1.1/DTD/svg11.dtd">
<!-- Generated by graphviz version 2.43.0 (0)
 -->
<!-- Title: include/emlabcpp/experimental/multiplexer.h Pages: 1 -->
<svg width="461pt" height="207pt"
 viewBox="0.00 0.00 461.00 207.00" xmlns="http://www.w3.org/2000/svg" xmlns:xlink="http://www.w3.org/1999/xlink">
<g id="graph0" class="graph" transform="scale(1 1) rotate(0) translate(4 203)">
<title>include/emlabcpp/experimental/multiplexer.h</title>
<polygon fill="white" stroke="transparent" points="-4,4 -4,-203 457,-203 457,4 -4,4"/>
<!-- Node1 -->
<g id="node1" class="node">
<title>Node1</title>
<g id="a_node1"><a xlink:title=" ">
<polygon fill="#bfbfbf" stroke="black" points="168,-168.5 168,-198.5 339,-198.5 339,-168.5 168,-168.5"/>
<text text-anchor="start" x="176" y="-186.5" font-family="Helvetica,sans-Serif" font-size="10.00">include/emlabcpp/experimental</text>
<text text-anchor="middle" x="253.5" y="-175.5" font-family="Helvetica,sans-Serif" font-size="10.00">/multiplexer.h</text>
</a>
</g>
</g>
<!-- Node2 -->
<g id="node2" class="node">
<title>Node2</title>
<g id="a_node2"><a xlink:href="outcome_8h.html" target="_top" xlink:title=" ">
<polygon fill="white" stroke="black" points="10,-112.5 10,-131.5 87,-131.5 87,-112.5 10,-112.5"/>
<text text-anchor="middle" x="48.5" y="-119.5" font-family="Helvetica,sans-Serif" font-size="10.00">../outcome.h</text>
</a>
</g>
</g>
<!-- Node1&#45;&gt;Node2 -->
<g id="edge1" class="edge">
<title>Node1&#45;&gt;Node2</title>
<path fill="none" stroke="midnightblue" d="M205.18,-168.47C169.35,-158.08 121.12,-144.08 87.68,-134.37"/>
<polygon fill="midnightblue" stroke="midnightblue" points="88.39,-130.93 77.81,-131.51 86.44,-137.66 88.39,-130.93"/>
</g>
<!-- Node31 -->
<g id="node5" class="node">
<title>Node31</title>
<g id="a_node5"><a xlink:href="endpoint_8h.html" target="_top" xlink:title=" ">
<polygon fill="white" stroke="black" points="105.5,-112.5 105.5,-131.5 225.5,-131.5 225.5,-112.5 105.5,-112.5"/>
<text text-anchor="middle" x="165.5" y="-119.5" font-family="Helvetica,sans-Serif" font-size="10.00">../protocol/endpoint.h</text>
</a>
</g>
</g>
<!-- Node1&#45;&gt;Node31 -->
<g id="edge5" class="edge">
<title>Node1&#45;&gt;Node31</title>
<path fill="none" stroke="midnightblue" d="M232.65,-168.4C218.8,-159.04 200.69,-146.79 186.76,-137.38"/>
<polygon fill="midnightblue" stroke="midnightblue" points="188.55,-134.36 178.3,-131.66 184.63,-140.16 188.55,-134.36"/>
</g>
<!-- Node35 -->
<g id="node7" class="node">
<title>Node35</title>
<g id="a_node7"><a xlink:href="protocol_2handler_8h.html" target="_top" xlink:title=" ">
<polygon fill="white" stroke="red" points="149.5,-0.5 149.5,-19.5 217.5,-19.5 217.5,-0.5 149.5,-0.5"/>
<text text-anchor="middle" x="183.5" y="-7.5" font-family="Helvetica,sans-Serif" font-size="10.00">./handler.h</text>
</a>
</g>
</g>
<!-- Node1&#45;&gt;Node35 -->
<g id="edge8" class="edge">
<title>Node1&#45;&gt;Node35</title>
<path fill="none" stroke="midnightblue" d="M253.88,-168.27C253.94,-143.81 251.4,-92.88 231.5,-56 225.12,-44.18 214.48,-33.73 204.83,-25.88"/>
<polygon fill="midnightblue" stroke="midnightblue" points="206.81,-22.99 196.75,-19.68 202.55,-28.54 206.81,-22.99"/>
</g>
<!-- Node64 -->
<g id="node8" class="node">
<title>Node64</title>
<g id="a_node8"><a xlink:href="tuple_8h.html" target="_top" xlink:title=" ">
<polygon fill="white" stroke="red" points="281.5,-112.5 281.5,-131.5 337.5,-131.5 337.5,-112.5 281.5,-112.5"/>
<text text-anchor="middle" x="309.5" y="-119.5" font-family="Helvetica,sans-Serif" font-size="10.00">./tuple.h</text>
</a>
</g>
</g>
<!-- Node1&#45;&gt;Node64 -->
<g id="edge9" class="edge">
<title>Node1&#45;&gt;Node64</title>
<path fill="none" stroke="midnightblue" d="M266.77,-168.4C275.08,-159.58 285.8,-148.18 294.42,-139.02"/>
<polygon fill="midnightblue" stroke="midnightblue" points="297.05,-141.34 301.35,-131.66 291.95,-136.54 297.05,-141.34"/>
</g>
<!-- Node54 -->
<g id="node9" class="node">
<title>Node54</title>
<g id="a_node9"><a xlink:href="static__vector_8h.html" target="_top" xlink:title=" ">
<polygon fill="white" stroke="red" points="356,-112.5 356,-131.5 453,-131.5 453,-112.5 356,-112.5"/>
<text text-anchor="middle" x="404.5" y="-119.5" font-family="Helvetica,sans-Serif" font-size="10.00">../static_vector.h</text>
</a>
</g>
</g>
<!-- Node1&#45;&gt;Node54 -->
<g id="edge10" class="edge">
<title>Node1&#45;&gt;Node54</title>
<path fill="none" stroke="midnightblue" d="M289.28,-168.4C314.73,-158.37 348.6,-145.03 373.02,-135.4"/>
<polygon fill="midnightblue" stroke="midnightblue" points="374.51,-138.58 382.53,-131.66 371.94,-132.07 374.51,-138.58"/>
</g>
<!-- Node3 -->
<g id="node3" class="node">
<title>Node3</title>
<g id="a_node3"><a xlink:href="result_8h.html" target="_top" xlink:title=" ">
<polygon fill="white" stroke="red" points="0,-56.5 0,-75.5 59,-75.5 59,-56.5 0,-56.5"/>
<text text-anchor="middle" x="29.5" y="-63.5" font-family="Helvetica,sans-Serif" font-size="10.00">./result.h</text>
</a>
</g>
</g>
<!-- Node2&#45;&gt;Node3 -->
<g id="edge2" class="edge">
<title>Node2&#45;&gt;Node3</title>
<path fill="none" stroke="midnightblue" d="M45.36,-112.08C42.82,-104.85 39.14,-94.41 35.97,-85.4"/>
<polygon fill="midnightblue" stroke="midnightblue" points="39.2,-84.02 32.58,-75.75 32.6,-86.35 39.2,-84.02"/>
</g>
<!-- Node30 -->
<g id="node4" class="node">
<title>Node30</title>
<g id="a_node4"><a xlink:href="status_8h.html" target="_top" xlink:title=" ">
<polygon fill="white" stroke="red" points="41.5,-0.5 41.5,-19.5 103.5,-19.5 103.5,-0.5 41.5,-0.5"/>
<text text-anchor="middle" x="72.5" y="-7.5" font-family="Helvetica,sans-Serif" font-size="10.00">./status.h</text>
</a>
</g>
</g>
<!-- Node2&#45;&gt;Node30 -->
<g id="edge4" class="edge">
<title>Node2&#45;&gt;Node30</title>
<path fill="none" stroke="midnightblue" d="M53.16,-112.32C57.68,-103.47 64.3,-89.19 67.5,-76 71.22,-60.69 72.37,-42.81 72.65,-29.68"/>
<polygon fill="midnightblue" stroke="midnightblue" points="76.15,-29.57 72.71,-19.55 69.15,-29.53 76.15,-29.57"/>
</g>
<!-- Node3&#45;&gt;Node30 -->
<g id="edge3" class="edge">
<title>Node3&#45;&gt;Node30</title>
<path fill="none" stroke="midnightblue" d="M36.6,-56.08C42.74,-48.38 51.77,-37.03 59.24,-27.65"/>
<polygon fill="midnightblue" stroke="midnightblue" points="62.04,-29.75 65.53,-19.75 56.56,-25.39 62.04,-29.75"/>
</g>
<!-- Node32 -->
<g id="node6" class="node">
<title>Node32</title>
<g id="a_node6"><a xlink:href="packet__handler_8h.html" target="_top" xlink:title=" ">
<polygon fill="white" stroke="red" points="117,-56.5 117,-75.5 222,-75.5 222,-56.5 117,-56.5"/>
<text text-anchor="middle" x="169.5" y="-63.5" font-family="Helvetica,sans-Serif" font-size="10.00">./packet_handler.h</text>
</a>
</g>
</g>
<!-- Node31&#45;&gt;Node32 -->
<g id="edge6" class="edge">
<title>Node31&#45;&gt;Node32</title>
<path fill="none" stroke="midnightblue" d="M166.16,-112.08C166.68,-105.01 167.44,-94.86 168.09,-85.99"/>
<polygon fill="midnightblue" stroke="midnightblue" points="171.6,-85.98 168.85,-75.75 164.62,-85.47 171.6,-85.98"/>
</g>
<!-- Node32&#45;&gt;Node35 -->
<g id="edge7" class="edge">
<title>Node32&#45;&gt;Node35</title>
<path fill="none" stroke="midnightblue" d="M171.81,-56.08C173.67,-48.93 176.34,-38.64 178.65,-29.69"/>
<polygon fill="midnightblue" stroke="midnightblue" points="182.11,-30.31 181.23,-19.75 175.33,-28.55 182.11,-30.31"/>
</g>
</g>
</svg>
