<?xml version="1.0" encoding="UTF-8" standalone="no"?>
<!DOCTYPE svg PUBLIC "-//W3C//DTD SVG 1.1//EN"
 "http://www.w3.org/Graphics/SVG/1.1/DTD/svg11.dtd">
<!-- Generated by graphviz version 2.43.0 (0)
 -->
<!-- Title: include/emlabcpp/experimental/multiplexer.h Pages: 1 -->
<svg width="451pt" height="207pt"
 viewBox="0.00 0.00 451.00 207.00" xmlns="http://www.w3.org/2000/svg" xmlns:xlink="http://www.w3.org/1999/xlink">
<g id="graph0" class="graph" transform="scale(1 1) rotate(0) translate(4 203)">
<title>include/emlabcpp/experimental/multiplexer.h</title>
<polygon fill="white" stroke="transparent" points="-4,4 -4,-203 447,-203 447,4 -4,4"/>
<!-- Node1 -->
<g id="node1" class="node">
<title>Node1</title>
<g id="a_node1"><a xlink:title=" ">
<polygon fill="#bfbfbf" stroke="black" points="158,-168.5 158,-198.5 329,-198.5 329,-168.5 158,-168.5"/>
<text text-anchor="start" x="166" y="-186.5" font-family="Helvetica,sans-Serif" font-size="10.00">include/emlabcpp/experimental</text>
<text text-anchor="middle" x="243.5" y="-175.5" font-family="Helvetica,sans-Serif" font-size="10.00">/multiplexer.h</text>
</a>
</g>
</g>
<!-- Node2 -->
<g id="node2" class="node">
<title>Node2</title>
<g id="a_node2"><a xlink:href="outcome_8h.html" target="_top" xlink:title=" ">
<polygon fill="white" stroke="black" points="0,-112.5 0,-131.5 77,-131.5 77,-112.5 0,-112.5"/>
<text text-anchor="middle" x="38.5" y="-119.5" font-family="Helvetica,sans-Serif" font-size="10.00">../outcome.h</text>
</a>
</g>
</g>
<!-- Node1&#45;&gt;Node2 -->
<g id="edge1" class="edge">
<title>Node1&#45;&gt;Node2</title>
<path fill="none" stroke="midnightblue" d="M195.18,-168.47C159.35,-158.08 111.12,-144.08 77.68,-134.37"/>
<polygon fill="midnightblue" stroke="midnightblue" points="78.39,-130.93 67.81,-131.51 76.44,-137.66 78.39,-130.93"/>
</g>
<!-- Node30 -->
<g id="node4" class="node">
<title>Node30</title>
<g id="a_node4"><a xlink:href="endpoint_8h.html" target="_top" xlink:title=" ">
<polygon fill="white" stroke="black" points="95.5,-112.5 95.5,-131.5 215.5,-131.5 215.5,-112.5 95.5,-112.5"/>
<text text-anchor="middle" x="155.5" y="-119.5" font-family="Helvetica,sans-Serif" font-size="10.00">../protocol/endpoint.h</text>
</a>
</g>
</g>
<!-- Node1&#45;&gt;Node30 -->
<g id="edge3" class="edge">
<title>Node1&#45;&gt;Node30</title>
<path fill="none" stroke="midnightblue" d="M222.65,-168.4C208.8,-159.04 190.69,-146.79 176.76,-137.38"/>
<polygon fill="midnightblue" stroke="midnightblue" points="178.55,-134.36 168.3,-131.66 174.63,-140.16 178.55,-134.36"/>
</g>
<!-- Node34 -->
<g id="node6" class="node">
<title>Node34</title>
<g id="a_node6"><a xlink:href="protocol_2handler_8h.html" target="_top" xlink:title=" ">
<polygon fill="white" stroke="red" points="168.5,-0.5 168.5,-19.5 236.5,-19.5 236.5,-0.5 168.5,-0.5"/>
<text text-anchor="middle" x="202.5" y="-7.5" font-family="Helvetica,sans-Serif" font-size="10.00">./handler.h</text>
</a>
</g>
</g>
<!-- Node1&#45;&gt;Node34 -->
<g id="edge6" class="edge">
<title>Node1&#45;&gt;Node34</title>
<path fill="none" stroke="midnightblue" d="M241.86,-168.25C238.92,-144.6 231.98,-95.9 220.5,-56 217.88,-46.9 214.09,-37.11 210.66,-28.99"/>
<polygon fill="midnightblue" stroke="midnightblue" points="213.84,-27.54 206.62,-19.78 207.43,-30.34 213.84,-27.54"/>
</g>
<!-- Node63 -->
<g id="node7" class="node">
<title>Node63</title>
<g id="a_node7"><a xlink:href="tuple_8h.html" target="_top" xlink:title=" ">
<polygon fill="white" stroke="red" points="271.5,-112.5 271.5,-131.5 327.5,-131.5 327.5,-112.5 271.5,-112.5"/>
<text text-anchor="middle" x="299.5" y="-119.5" font-family="Helvetica,sans-Serif" font-size="10.00">./tuple.h</text>
</a>
</g>
</g>
<!-- Node1&#45;&gt;Node63 -->
<g id="edge7" class="edge">
<title>Node1&#45;&gt;Node63</title>
<path fill="none" stroke="midnightblue" d="M256.77,-168.4C265.08,-159.58 275.8,-148.18 284.42,-139.02"/>
<polygon fill="midnightblue" stroke="midnightblue" points="287.05,-141.34 291.35,-131.66 281.95,-136.54 287.05,-141.34"/>
</g>
<!-- Node53 -->
<g id="node8" class="node">
<title>Node53</title>
<g id="a_node8"><a xlink:href="static__vector_8h.html" target="_top" xlink:title=" ">
<polygon fill="white" stroke="red" points="346,-112.5 346,-131.5 443,-131.5 443,-112.5 346,-112.5"/>
<text text-anchor="middle" x="394.5" y="-119.5" font-family="Helvetica,sans-Serif" font-size="10.00">../static_vector.h</text>
</a>
</g>
</g>
<!-- Node1&#45;&gt;Node53 -->
<g id="edge8" class="edge">
<title>Node1&#45;&gt;Node53</title>
<path fill="none" stroke="midnightblue" d="M279.28,-168.4C304.73,-158.37 338.6,-145.03 363.02,-135.4"/>
<polygon fill="midnightblue" stroke="midnightblue" points="364.51,-138.58 372.53,-131.66 361.94,-132.07 364.51,-138.58"/>
</g>
<!-- Node3 -->
<g id="node3" class="node">
<title>Node3</title>
<g id="a_node3"><a xlink:href="result_8h.html" target="_top" xlink:title=" ">
<polygon fill="white" stroke="red" points="9,-56.5 9,-75.5 68,-75.5 68,-56.5 9,-56.5"/>
<text text-anchor="middle" x="38.5" y="-63.5" font-family="Helvetica,sans-Serif" font-size="10.00">./result.h</text>
</a>
</g>
</g>
<!-- Node2&#45;&gt;Node3 -->
<g id="edge2" class="edge">
<title>Node2&#45;&gt;Node3</title>
<path fill="none" stroke="midnightblue" d="M38.5,-112.08C38.5,-105.01 38.5,-94.86 38.5,-85.99"/>
<polygon fill="midnightblue" stroke="midnightblue" points="42,-85.75 38.5,-75.75 35,-85.75 42,-85.75"/>
</g>
<!-- Node31 -->
<g id="node5" class="node">
<title>Node31</title>
<g id="a_node5"><a xlink:href="packet__handler_8h.html" target="_top" xlink:title=" ">
<polygon fill="white" stroke="red" points="106,-56.5 106,-75.5 211,-75.5 211,-56.5 106,-56.5"/>
<text text-anchor="middle" x="158.5" y="-63.5" font-family="Helvetica,sans-Serif" font-size="10.00">./packet_handler.h</text>
</a>
</g>
</g>
<!-- Node30&#45;&gt;Node31 -->
<g id="edge4" class="edge">
<title>Node30&#45;&gt;Node31</title>
<path fill="none" stroke="midnightblue" d="M156,-112.08C156.39,-105.01 156.95,-94.86 157.45,-85.99"/>
<polygon fill="midnightblue" stroke="midnightblue" points="160.95,-85.93 158.01,-75.75 153.96,-85.54 160.95,-85.93"/>
</g>
<!-- Node31&#45;&gt;Node34 -->
<g id="edge5" class="edge">
<title>Node31&#45;&gt;Node34</title>
<path fill="none" stroke="midnightblue" d="M165.77,-56.08C172.04,-48.38 181.29,-37.03 188.93,-27.65"/>
<polygon fill="midnightblue" stroke="midnightblue" points="191.77,-29.71 195.37,-19.75 186.34,-25.29 191.77,-29.71"/>
</g>
</g>
</svg>
