<?xml version="1.0" encoding="UTF-8" standalone="no"?>
<!DOCTYPE svg PUBLIC "-//W3C//DTD SVG 1.1//EN"
 "http://www.w3.org/Graphics/SVG/1.1/DTD/svg11.dtd">
<!-- Generated by graphviz version 2.43.0 (0)
 -->
<!-- Title: include/emlabcpp/experimental/multiplexer.h Pages: 1 -->
<svg width="399pt" height="263pt"
 viewBox="0.00 0.00 399.21 263.00" xmlns="http://www.w3.org/2000/svg" xmlns:xlink="http://www.w3.org/1999/xlink">
<g id="graph0" class="graph" transform="scale(1 1) rotate(0) translate(4 259)">
<title>include/emlabcpp/experimental/multiplexer.h</title>
<polygon fill="white" stroke="transparent" points="-4,4 -4,-259 395.21,-259 395.21,4 -4,4"/>
<!-- Node1 -->
<g id="node1" class="node">
<title>Node1</title>
<g id="a_node1"><a xlink:title=" ">
<polygon fill="#bfbfbf" stroke="black" points="0.21,-224.5 0.21,-254.5 171.21,-254.5 171.21,-224.5 0.21,-224.5"/>
<text text-anchor="start" x="8.21" y="-242.5" font-family="Helvetica,sans-Serif" font-size="10.00">include/emlabcpp/experimental</text>
<text text-anchor="middle" x="85.71" y="-231.5" font-family="Helvetica,sans-Serif" font-size="10.00">/multiplexer.h</text>
</a>
</g>
</g>
<!-- Node2 -->
<g id="node2" class="node">
<title>Node2</title>
<g id="a_node2"><a xlink:href="handler_8h.html" target="_top" xlink:title=" ">
<polygon fill="white" stroke="black" points="236.21,-168.5 236.21,-187.5 391.21,-187.5 391.21,-168.5 236.21,-168.5"/>
<text text-anchor="middle" x="313.71" y="-175.5" font-family="Helvetica,sans-Serif" font-size="10.00">emlabcpp/protocol/handler.h</text>
</a>
</g>
</g>
<!-- Node1&#45;&gt;Node2 -->
<g id="edge1" class="edge">
<title>Node1&#45;&gt;Node2</title>
<path fill="none" stroke="midnightblue" d="M139.45,-224.47C179.64,-213.99 233.86,-199.84 271.09,-190.12"/>
<polygon fill="midnightblue" stroke="midnightblue" points="272.32,-193.42 281.11,-187.51 270.55,-186.64 272.32,-193.42"/>
</g>
<!-- Node4 -->
<g id="node4" class="node">
<title>Node4</title>
<g id="a_node4"><a xlink:href="static__vector_8h.html" target="_top" xlink:title=" ">
<polygon fill="white" stroke="red" points="80.21,-0.5 80.21,-19.5 219.21,-19.5 219.21,-0.5 80.21,-0.5"/>
<text text-anchor="middle" x="149.71" y="-7.5" font-family="Helvetica,sans-Serif" font-size="10.00">emlabcpp/static_vector.h</text>
</a>
</g>
</g>
<!-- Node1&#45;&gt;Node4 -->
<g id="edge13" class="edge">
<title>Node1&#45;&gt;Node4</title>
<path fill="none" stroke="midnightblue" d="M65.42,-224.5C35.49,-201.97 -14.95,-155.77 4.71,-112 25.15,-66.47 78.18,-38.01 114.11,-23.32"/>
<polygon fill="midnightblue" stroke="midnightblue" points="115.72,-26.45 123.76,-19.54 113.17,-19.93 115.72,-26.45"/>
</g>
<!-- Node57 -->
<g id="node8" class="node">
<title>Node57</title>
<g id="a_node8"><a xlink:href="tuple_8h.html" target="_top" xlink:title=" ">
<polygon fill="white" stroke="black" points="13.71,-112.5 13.71,-131.5 157.71,-131.5 157.71,-112.5 13.71,-112.5"/>
<text text-anchor="middle" x="85.71" y="-119.5" font-family="Helvetica,sans-Serif" font-size="10.00">emlabcpp/protocol/tuple.h</text>
</a>
</g>
</g>
<!-- Node1&#45;&gt;Node57 -->
<g id="edge11" class="edge">
<title>Node1&#45;&gt;Node57</title>
<path fill="none" stroke="midnightblue" d="M85.71,-224.34C85.71,-203.62 85.71,-165.02 85.71,-141.9"/>
<polygon fill="midnightblue" stroke="midnightblue" points="89.21,-141.67 85.71,-131.67 82.21,-141.67 89.21,-141.67"/>
</g>
<!-- Node3 -->
<g id="node3" class="node">
<title>Node3</title>
<g id="a_node3"><a xlink:href="either_8h.html" target="_top" xlink:title=" ">
<polygon fill="white" stroke="red" points="240.71,-56.5 240.71,-75.5 344.71,-75.5 344.71,-56.5 240.71,-56.5"/>
<text text-anchor="middle" x="292.71" y="-63.5" font-family="Helvetica,sans-Serif" font-size="10.00">emlabcpp/either.h</text>
</a>
</g>
</g>
<!-- Node2&#45;&gt;Node3 -->
<g id="edge2" class="edge">
<title>Node2&#45;&gt;Node3</title>
<path fill="none" stroke="midnightblue" d="M324.75,-168.36C339.01,-156.07 360.87,-132.76 350.71,-112 344.18,-98.68 331.61,-88.18 319.83,-80.68"/>
<polygon fill="midnightblue" stroke="midnightblue" points="321.49,-77.59 311.1,-75.53 317.94,-83.62 321.49,-77.59"/>
</g>
<!-- Node21 -->
<g id="node5" class="node">
<title>Node21</title>
<g id="a_node5"><a xlink:href="types_8h.html" target="_top" xlink:title=" ">
<polygon fill="white" stroke="red" points="240.71,-0.5 240.71,-19.5 344.71,-19.5 344.71,-0.5 240.71,-0.5"/>
<text text-anchor="middle" x="292.71" y="-7.5" font-family="Helvetica,sans-Serif" font-size="10.00">emlabcpp/types.h</text>
</a>
</g>
</g>
<!-- Node2&#45;&gt;Node21 -->
<g id="edge10" class="edge">
<title>Node2&#45;&gt;Node21</title>
<path fill="none" stroke="midnightblue" d="M329.49,-168.47C341.91,-160.77 358.31,-148.18 365.71,-132 369.4,-123.92 366.64,-120.84 365.71,-112 363.02,-86.69 367.51,-77.39 353.71,-56 345.29,-42.96 331.68,-32.38 319.45,-24.77"/>
<polygon fill="midnightblue" stroke="midnightblue" points="320.88,-21.55 310.48,-19.53 317.35,-27.6 320.88,-21.55"/>
</g>
<!-- Node31 -->
<g id="node6" class="node">
<title>Node31</title>
<g id="a_node6"><a xlink:href="converter_8h.html" target="_top" xlink:title=" ">
<polygon fill="white" stroke="red" points="176.21,-112.5 176.21,-131.5 341.21,-131.5 341.21,-112.5 176.21,-112.5"/>
<text text-anchor="middle" x="258.71" y="-119.5" font-family="Helvetica,sans-Serif" font-size="10.00">emlabcpp/protocol/converter.h</text>
</a>
</g>
</g>
<!-- Node2&#45;&gt;Node31 -->
<g id="edge5" class="edge">
<title>Node2&#45;&gt;Node31</title>
<path fill="none" stroke="midnightblue" d="M304.62,-168.08C296.53,-160.14 284.51,-148.34 274.8,-138.8"/>
<polygon fill="midnightblue" stroke="midnightblue" points="277.21,-136.26 267.62,-131.75 272.3,-141.25 277.21,-136.26"/>
</g>
<!-- Node3&#45;&gt;Node4 -->
<g id="edge3" class="edge">
<title>Node3&#45;&gt;Node4</title>
<path fill="none" stroke="midnightblue" d="M270.05,-56.44C246.3,-47.48 208.8,-33.31 181.97,-23.18"/>
<polygon fill="midnightblue" stroke="midnightblue" points="182.85,-19.77 172.26,-19.52 180.38,-26.32 182.85,-19.77"/>
</g>
<!-- Node3&#45;&gt;Node21 -->
<g id="edge4" class="edge">
<title>Node3&#45;&gt;Node21</title>
<path fill="none" stroke="midnightblue" d="M292.71,-56.08C292.71,-49.01 292.71,-38.86 292.71,-29.99"/>
<polygon fill="midnightblue" stroke="midnightblue" points="296.21,-29.75 292.71,-19.75 289.21,-29.75 296.21,-29.75"/>
</g>
<!-- Node31&#45;&gt;Node3 -->
<g id="edge6" class="edge">
<title>Node31&#45;&gt;Node3</title>
<path fill="none" stroke="midnightblue" d="M264.32,-112.08C269.07,-104.53 276.02,-93.49 281.86,-84.23"/>
<polygon fill="midnightblue" stroke="midnightblue" points="284.83,-86.08 287.2,-75.75 278.91,-82.35 284.83,-86.08"/>
</g>
<!-- Node51 -->
<g id="node7" class="node">
<title>Node51</title>
<g id="a_node7"><a xlink:href="traits_8h.html" target="_top" xlink:title=" ">
<polygon fill="white" stroke="red" points="77.21,-56.5 77.21,-75.5 222.21,-75.5 222.21,-56.5 77.21,-56.5"/>
<text text-anchor="middle" x="149.71" y="-63.5" font-family="Helvetica,sans-Serif" font-size="10.00">emlabcpp/protocol/traits.h</text>
</a>
</g>
</g>
<!-- Node31&#45;&gt;Node51 -->
<g id="edge7" class="edge">
<title>Node31&#45;&gt;Node51</title>
<path fill="none" stroke="midnightblue" d="M241.19,-112.32C223.63,-103.62 196.37,-90.12 176.17,-80.11"/>
<polygon fill="midnightblue" stroke="midnightblue" points="177.69,-76.96 167.18,-75.65 174.58,-83.23 177.69,-76.96"/>
</g>
<!-- Node51&#45;&gt;Node4 -->
<g id="edge8" class="edge">
<title>Node51&#45;&gt;Node4</title>
<path fill="none" stroke="midnightblue" d="M149.71,-56.08C149.71,-49.01 149.71,-38.86 149.71,-29.99"/>
<polygon fill="midnightblue" stroke="midnightblue" points="153.21,-29.75 149.71,-19.75 146.21,-29.75 153.21,-29.75"/>
</g>
<!-- Node51&#45;&gt;Node21 -->
<g id="edge9" class="edge">
<title>Node51&#45;&gt;Node21</title>
<path fill="none" stroke="midnightblue" d="M172.36,-56.44C196.11,-47.48 233.61,-33.31 260.44,-23.18"/>
<polygon fill="midnightblue" stroke="midnightblue" points="262.03,-26.32 270.15,-19.52 259.56,-19.77 262.03,-26.32"/>
</g>
<!-- Node57&#45;&gt;Node51 -->
<g id="edge12" class="edge">
<title>Node57&#45;&gt;Node51</title>
<path fill="none" stroke="midnightblue" d="M95.99,-112.32C105.54,-104.26 119.99,-92.08 131.49,-82.37"/>
<polygon fill="midnightblue" stroke="midnightblue" points="133.85,-84.96 139.24,-75.83 129.34,-79.61 133.85,-84.96"/>
</g>
</g>
</svg>
