<?xml version="1.0" encoding="UTF-8" standalone="no"?>
<!DOCTYPE svg PUBLIC "-//W3C//DTD SVG 1.1//EN"
 "http://www.w3.org/Graphics/SVG/1.1/DTD/svg11.dtd">
<!-- Generated by graphviz version 2.43.0 (0)
 -->
<!-- Title: include/emlabcpp/pmr/new_delete_resource.h Pages: 1 -->
<svg width="140pt" height="162pt"
 viewBox="0.00 0.00 140.00 162.00" xmlns="http://www.w3.org/2000/svg" xmlns:xlink="http://www.w3.org/1999/xlink">
<g id="graph0" class="graph" transform="scale(1 1) rotate(0) translate(4 158)">
<title>include/emlabcpp/pmr/new_delete_resource.h</title>
<polygon fill="white" stroke="transparent" points="-4,4 -4,-158 136,-158 136,4 -4,4"/>
<!-- Node1 -->
<g id="node1" class="node">
<title>Node1</title>
<g id="a_node1"><a xlink:title=" ">
<polygon fill="#bfbfbf" stroke="black" points="0,-123.5 0,-153.5 132,-153.5 132,-123.5 0,-123.5"/>
<text text-anchor="start" x="8" y="-141.5" font-family="Helvetica,sans-Serif" font-size="10.00">include/emlabcpp/pmr</text>
<text text-anchor="middle" x="66" y="-130.5" font-family="Helvetica,sans-Serif" font-size="10.00">/new_delete_resource.h</text>
</a>
</g>
</g>
<!-- Node2 -->
<g id="node2" class="node">
<title>Node2</title>
<g id="a_node2"><a xlink:href="memory__resource_8h.html" target="_top" xlink:title=" ">
<polygon fill="white" stroke="black" points="0.5,-56.5 0.5,-86.5 131.5,-86.5 131.5,-56.5 0.5,-56.5"/>
<text text-anchor="start" x="8.5" y="-74.5" font-family="Helvetica,sans-Serif" font-size="10.00">emlabcpp/pmr/memory</text>
<text text-anchor="middle" x="66" y="-63.5" font-family="Helvetica,sans-Serif" font-size="10.00">_resource.h</text>
</a>
</g>
</g>
<!-- Node1&#45;&gt;Node2 -->
<g id="edge1" class="edge">
<title>Node1&#45;&gt;Node2</title>
<path fill="none" stroke="midnightblue" d="M66,-123.4C66,-115.64 66,-105.81 66,-96.86"/>
<polygon fill="midnightblue" stroke="midnightblue" points="69.5,-96.58 66,-86.58 62.5,-96.58 69.5,-96.58"/>
</g>
<!-- Node3 -->
<g id="node3" class="node">
<title>Node3</title>
<g id="a_node3"><a xlink:title=" ">
<polygon fill="white" stroke="#bfbfbf" points="39.5,-0.5 39.5,-19.5 92.5,-19.5 92.5,-0.5 39.5,-0.5"/>
<text text-anchor="middle" x="66" y="-7.5" font-family="Helvetica,sans-Serif" font-size="10.00">cstddef</text>
</a>
</g>
</g>
<!-- Node2&#45;&gt;Node3 -->
<g id="edge2" class="edge">
<title>Node2&#45;&gt;Node3</title>
<path fill="none" stroke="midnightblue" d="M66,-56.4C66,-48.47 66,-38.46 66,-29.86"/>
<polygon fill="midnightblue" stroke="midnightblue" points="69.5,-29.66 66,-19.66 62.5,-29.66 69.5,-29.66"/>
</g>
</g>
</svg>
