<?xml version="1.0" encoding="UTF-8" standalone="no"?>
<!DOCTYPE svg PUBLIC "-//W3C//DTD SVG 1.1//EN"
 "http://www.w3.org/Graphics/SVG/1.1/DTD/svg11.dtd">
<!-- Generated by graphviz version 2.43.0 (0)
 -->
<!-- Title: include/emlabcpp/pmr/new_delete_resource.h Pages: 1 -->
<svg width="234pt" height="162pt"
 viewBox="0.00 0.00 233.50 162.00" xmlns="http://www.w3.org/2000/svg" xmlns:xlink="http://www.w3.org/1999/xlink">
<g id="graph0" class="graph" transform="scale(1 1) rotate(0) translate(4 158)">
<title>include/emlabcpp/pmr/new_delete_resource.h</title>
<polygon fill="white" stroke="transparent" points="-4,4 -4,-158 229.5,-158 229.5,4 -4,4"/>
<!-- Node1 -->
<g id="node1" class="node">
<title>Node1</title>
<g id="a_node1"><a xlink:title=" ">
<polygon fill="#bfbfbf" stroke="black" points="93.5,-123.5 93.5,-153.5 225.5,-153.5 225.5,-123.5 93.5,-123.5"/>
<text text-anchor="start" x="101.5" y="-141.5" font-family="Helvetica,sans-Serif" font-size="10.00">include/emlabcpp/pmr</text>
<text text-anchor="middle" x="159.5" y="-130.5" font-family="Helvetica,sans-Serif" font-size="10.00">/new_delete_resource.h</text>
</a>
</g>
</g>
<!-- Node2 -->
<g id="node2" class="node">
<title>Node2</title>
<g id="a_node2"><a xlink:href="memory__resource_8h.html" target="_top" xlink:title=" ">
<polygon fill="white" stroke="black" points="0,-56.5 0,-86.5 131,-86.5 131,-56.5 0,-56.5"/>
<text text-anchor="start" x="8" y="-74.5" font-family="Helvetica,sans-Serif" font-size="10.00">emlabcpp/pmr/memory</text>
<text text-anchor="middle" x="65.5" y="-63.5" font-family="Helvetica,sans-Serif" font-size="10.00">_resource.h</text>
</a>
</g>
</g>
<!-- Node1&#45;&gt;Node2 -->
<g id="edge1" class="edge">
<title>Node1&#45;&gt;Node2</title>
<path fill="none" stroke="midnightblue" d="M139.1,-123.4C126.05,-114.37 108.9,-102.51 94.45,-92.52"/>
<polygon fill="midnightblue" stroke="midnightblue" points="96.07,-89.39 85.86,-86.58 92.09,-95.14 96.07,-89.39"/>
</g>
<!-- Node44 -->
<g id="node4" class="node">
<title>Node44</title>
<g id="a_node4"><a xlink:title=" ">
<polygon fill="white" stroke="#bfbfbf" points="133,-0.5 133,-19.5 186,-19.5 186,-0.5 133,-0.5"/>
<text text-anchor="middle" x="159.5" y="-7.5" font-family="Helvetica,sans-Serif" font-size="10.00">cstddef</text>
</a>
</g>
</g>
<!-- Node1&#45;&gt;Node44 -->
<g id="edge4" class="edge">
<title>Node1&#45;&gt;Node44</title>
<path fill="none" stroke="midnightblue" d="M159.5,-123.48C159.5,-100.72 159.5,-55.7 159.5,-30.06"/>
<polygon fill="midnightblue" stroke="midnightblue" points="163,-29.79 159.5,-19.79 156,-29.79 163,-29.79"/>
</g>
<!-- Node45 -->
<g id="node5" class="node">
<title>Node45</title>
<g id="a_node5"><a xlink:title=" ">
<polygon fill="white" stroke="#bfbfbf" points="188,-62 188,-81 225,-81 225,-62 188,-62"/>
<text text-anchor="middle" x="206.5" y="-69" font-family="Helvetica,sans-Serif" font-size="10.00">new</text>
</a>
</g>
</g>
<!-- Node1&#45;&gt;Node45 -->
<g id="edge5" class="edge">
<title>Node1&#45;&gt;Node45</title>
<path fill="none" stroke="midnightblue" d="M169.7,-123.4C176.88,-113.46 186.54,-100.11 194.16,-89.57"/>
<polygon fill="midnightblue" stroke="midnightblue" points="197.19,-91.35 200.21,-81.19 191.52,-87.25 197.19,-91.35"/>
</g>
<!-- Node3 -->
<g id="node3" class="node">
<title>Node3</title>
<g id="a_node3"><a xlink:href="result_8h.html" target="_top" xlink:title=" ">
<polygon fill="white" stroke="red" points="10.5,-0.5 10.5,-19.5 114.5,-19.5 114.5,-0.5 10.5,-0.5"/>
<text text-anchor="middle" x="62.5" y="-7.5" font-family="Helvetica,sans-Serif" font-size="10.00">emlabcpp/result.h</text>
</a>
</g>
</g>
<!-- Node2&#45;&gt;Node3 -->
<g id="edge2" class="edge">
<title>Node2&#45;&gt;Node3</title>
<path fill="none" stroke="midnightblue" d="M64.79,-56.4C64.39,-48.47 63.88,-38.46 63.45,-29.86"/>
<polygon fill="midnightblue" stroke="midnightblue" points="66.94,-29.47 62.94,-19.66 59.94,-29.82 66.94,-29.47"/>
</g>
<!-- Node2&#45;&gt;Node44 -->
<g id="edge3" class="edge">
<title>Node2&#45;&gt;Node44</title>
<path fill="none" stroke="midnightblue" d="M87.78,-56.4C102.7,-46.95 122.28,-34.56 137.21,-25.11"/>
<polygon fill="midnightblue" stroke="midnightblue" points="139.24,-27.96 145.82,-19.66 135.5,-22.05 139.24,-27.96"/>
</g>
</g>
</svg>
