<?xml version="1.0" encoding="UTF-8" standalone="no"?>
<!DOCTYPE svg PUBLIC "-//W3C//DTD SVG 1.1//EN"
 "http://www.w3.org/Graphics/SVG/1.1/DTD/svg11.dtd">
<!-- Generated by graphviz version 2.43.0 (0)
 -->
<!-- Title: include/emlabcpp/experimental/logging/noneabi_logger.h Pages: 1 -->
<svg width="1511pt" height="341pt"
 viewBox="0.00 0.00 1511.45 341.00" xmlns="http://www.w3.org/2000/svg" xmlns:xlink="http://www.w3.org/1999/xlink">
<g id="graph0" class="graph" transform="scale(1 1) rotate(0) translate(4 337)">
<title>include/emlabcpp/experimental/logging/noneabi_logger.h</title>
<polygon fill="white" stroke="transparent" points="-4,4 -4,-337 1507.45,-337 1507.45,4 -4,4"/>
<!-- Node1 -->
<g id="node1" class="node">
<title>Node1</title>
<g id="a_node1"><a xlink:title=" ">
<polygon fill="#bfbfbf" stroke="black" points="802.45,-302.5 802.45,-332.5 973.45,-332.5 973.45,-302.5 802.45,-302.5"/>
<text text-anchor="start" x="810.45" y="-320.5" font-family="Helvetica,sans-Serif" font-size="10.00">include/emlabcpp/experimental</text>
<text text-anchor="middle" x="887.95" y="-309.5" font-family="Helvetica,sans-Serif" font-size="10.00">/logging/noneabi_logger.h</text>
</a>
</g>
</g>
<!-- Node2 -->
<g id="node2" class="node">
<title>Node2</title>
<g id="a_node2"><a xlink:href="pretty__printer_8h.html" target="_top" xlink:title=" ">
<polygon fill="white" stroke="black" points="761.45,-235.5 761.45,-265.5 894.45,-265.5 894.45,-235.5 761.45,-235.5"/>
<text text-anchor="start" x="769.45" y="-253.5" font-family="Helvetica,sans-Serif" font-size="10.00">emlabcpp/experimental</text>
<text text-anchor="middle" x="827.95" y="-242.5" font-family="Helvetica,sans-Serif" font-size="10.00">/pretty_printer.h</text>
</a>
</g>
</g>
<!-- Node1&#45;&gt;Node2 -->
<g id="edge1" class="edge">
<title>Node1&#45;&gt;Node2</title>
<path fill="none" stroke="midnightblue" d="M874.93,-302.4C866.99,-293.79 856.68,-282.63 847.74,-272.94"/>
<polygon fill="midnightblue" stroke="midnightblue" points="850.29,-270.55 840.94,-265.58 845.15,-275.3 850.29,-270.55"/>
</g>
<!-- Node36 -->
<g id="node22" class="node">
<title>Node36</title>
<g id="a_node22"><a xlink:title=" ">
<polygon fill="white" stroke="#bfbfbf" points="912.45,-241 912.45,-260 985.45,-260 985.45,-241 912.45,-241"/>
<text text-anchor="middle" x="948.95" y="-248" font-family="Helvetica,sans-Serif" font-size="10.00">string_view</text>
</a>
</g>
</g>
<!-- Node1&#45;&gt;Node36 -->
<g id="edge27" class="edge">
<title>Node1&#45;&gt;Node36</title>
<path fill="none" stroke="midnightblue" d="M901.18,-302.4C910.79,-292.16 923.8,-278.3 933.82,-267.62"/>
<polygon fill="midnightblue" stroke="midnightblue" points="936.5,-269.88 940.79,-260.19 931.39,-265.09 936.5,-269.88"/>
</g>
<!-- Node3 -->
<g id="node3" class="node">
<title>Node3</title>
<g id="a_node3"><a xlink:href="concepts_8h.html" target="_top" xlink:title=" ">
<polygon fill="white" stroke="red" points="89.95,-56.5 89.95,-75.5 209.95,-75.5 209.95,-56.5 89.95,-56.5"/>
<text text-anchor="middle" x="149.95" y="-63.5" font-family="Helvetica,sans-Serif" font-size="10.00">emlabcpp/concepts.h</text>
</a>
</g>
</g>
<!-- Node2&#45;&gt;Node3 -->
<g id="edge2" class="edge">
<title>Node2&#45;&gt;Node3</title>
<path fill="none" stroke="midnightblue" d="M761.41,-247.74C574.35,-242.46 55.81,-225.49 30.95,-199 -9.26,-156.17 76.15,-104.04 122.58,-80.13"/>
<polygon fill="midnightblue" stroke="midnightblue" points="124.21,-83.23 131.56,-75.6 121.06,-76.98 124.21,-83.23"/>
</g>
<!-- Node13 -->
<g id="node4" class="node">
<title>Node13</title>
<g id="a_node4"><a xlink:title=" ">
<polygon fill="white" stroke="#bfbfbf" points="51.45,-0.5 51.45,-19.5 102.45,-19.5 102.45,-0.5 51.45,-0.5"/>
<text text-anchor="middle" x="76.95" y="-7.5" font-family="Helvetica,sans-Serif" font-size="10.00">variant</text>
</a>
</g>
</g>
<!-- Node2&#45;&gt;Node13 -->
<g id="edge26" class="edge">
<title>Node2&#45;&gt;Node13</title>
<path fill="none" stroke="midnightblue" d="M761.26,-247.81C571.79,-242.68 42.3,-225.99 16.95,-199 -29.75,-149.3 32.44,-63.24 62.42,-27.4"/>
<polygon fill="midnightblue" stroke="midnightblue" points="65.09,-29.66 68.94,-19.79 59.78,-25.11 65.09,-29.66"/>
</g>
<!-- Node14 -->
<g id="node5" class="node">
<title>Node14</title>
<g id="a_node5"><a xlink:href="enum_8h.html" target="_top" xlink:title=" ">
<polygon fill="white" stroke="red" points="39.95,-174 39.95,-193 143.95,-193 143.95,-174 39.95,-174"/>
<text text-anchor="middle" x="91.95" y="-181" font-family="Helvetica,sans-Serif" font-size="10.00">emlabcpp/enum.h</text>
</a>
</g>
</g>
<!-- Node2&#45;&gt;Node14 -->
<g id="edge4" class="edge">
<title>Node2&#45;&gt;Node14</title>
<path fill="none" stroke="midnightblue" d="M761.44,-248.02C639.92,-244.54 374.16,-233.34 152.95,-199 146.66,-198.02 140.07,-196.74 133.64,-195.34"/>
<polygon fill="midnightblue" stroke="midnightblue" points="134.26,-191.89 123.73,-193.06 132.7,-198.71 134.26,-191.89"/>
</g>
<!-- Node15 -->
<g id="node6" class="node">
<title>Node15</title>
<g id="a_node6"><a xlink:href="decompose_8h.html" target="_top" xlink:title=" ">
<polygon fill="white" stroke="black" points="162.45,-168.5 162.45,-198.5 295.45,-198.5 295.45,-168.5 162.45,-168.5"/>
<text text-anchor="start" x="170.45" y="-186.5" font-family="Helvetica,sans-Serif" font-size="10.00">emlabcpp/experimental</text>
<text text-anchor="middle" x="228.95" y="-175.5" font-family="Helvetica,sans-Serif" font-size="10.00">/decompose.h</text>
</a>
</g>
</g>
<!-- Node2&#45;&gt;Node15 -->
<g id="edge5" class="edge">
<title>Node2&#45;&gt;Node15</title>
<path fill="none" stroke="midnightblue" d="M761.1,-244.7C662.23,-237.21 471.28,-221.27 309.95,-199 308.49,-198.8 307.01,-198.59 305.53,-198.37"/>
<polygon fill="midnightblue" stroke="midnightblue" points="306.04,-194.91 295.62,-196.87 304.99,-201.83 306.04,-194.91"/>
</g>
<!-- Node8 -->
<g id="node7" class="node">
<title>Node8</title>
<g id="a_node7"><a xlink:title=" ">
<polygon fill="white" stroke="#bfbfbf" points="255.45,-112.5 255.45,-131.5 296.45,-131.5 296.45,-112.5 255.45,-112.5"/>
<text text-anchor="middle" x="275.95" y="-119.5" font-family="Helvetica,sans-Serif" font-size="10.00">tuple</text>
</a>
</g>
</g>
<!-- Node2&#45;&gt;Node8 -->
<g id="edge24" class="edge">
<title>Node2&#45;&gt;Node8</title>
<path fill="none" stroke="midnightblue" d="M761.2,-248.49C645.74,-245.77 414.24,-235.76 342.95,-199 317.62,-185.94 297.52,-158.98 286.17,-140.93"/>
<polygon fill="midnightblue" stroke="midnightblue" points="288.93,-138.74 280.79,-131.97 282.93,-142.35 288.93,-138.74"/>
</g>
<!-- Node16 -->
<g id="node8" class="node">
<title>Node16</title>
<g id="a_node8"><a xlink:href="match_8h.html" target="_top" xlink:title=" ">
<polygon fill="white" stroke="red" points="352.45,-174 352.45,-193 459.45,-193 459.45,-174 352.45,-174"/>
<text text-anchor="middle" x="405.95" y="-181" font-family="Helvetica,sans-Serif" font-size="10.00">emlabcpp/match.h</text>
</a>
</g>
</g>
<!-- Node2&#45;&gt;Node16 -->
<g id="edge8" class="edge">
<title>Node2&#45;&gt;Node16</title>
<path fill="none" stroke="midnightblue" d="M761.17,-241.86C688.87,-233.18 570.29,-217.75 468.95,-199 463.01,-197.9 456.78,-196.62 450.65,-195.29"/>
<polygon fill="midnightblue" stroke="midnightblue" points="451.02,-191.79 440.49,-193.02 449.49,-198.62 451.02,-191.79"/>
</g>
<!-- Node21 -->
<g id="node9" class="node">
<title>Node21</title>
<g id="a_node9"><a xlink:href="min__max_8h.html" target="_top" xlink:title=" ">
<polygon fill="white" stroke="red" points="477.95,-174 477.95,-193 599.95,-193 599.95,-174 477.95,-174"/>
<text text-anchor="middle" x="538.95" y="-181" font-family="Helvetica,sans-Serif" font-size="10.00">emlabcpp/min_max.h</text>
</a>
</g>
</g>
<!-- Node2&#45;&gt;Node21 -->
<g id="edge9" class="edge">
<title>Node2&#45;&gt;Node21</title>
<path fill="none" stroke="midnightblue" d="M765.59,-235.48C711.99,-223.42 635.81,-206.29 586.88,-195.28"/>
<polygon fill="midnightblue" stroke="midnightblue" points="587.39,-191.81 576.87,-193.03 585.85,-198.64 587.39,-191.81"/>
</g>
<!-- Node23 -->
<g id="node10" class="node">
<title>Node23</title>
<g id="a_node10"><a xlink:href="range_8h.html" target="_top" xlink:title=" ">
<polygon fill="white" stroke="red" points="617.95,-174 617.95,-193 721.95,-193 721.95,-174 617.95,-174"/>
<text text-anchor="middle" x="669.95" y="-181" font-family="Helvetica,sans-Serif" font-size="10.00">emlabcpp/range.h</text>
</a>
</g>
</g>
<!-- Node2&#45;&gt;Node23 -->
<g id="edge10" class="edge">
<title>Node2&#45;&gt;Node23</title>
<path fill="none" stroke="midnightblue" d="M793.66,-235.4C765.82,-223.94 726.92,-207.94 700.21,-196.95"/>
<polygon fill="midnightblue" stroke="midnightblue" points="701.2,-193.57 690.62,-193.01 698.54,-200.05 701.2,-193.57"/>
</g>
<!-- Node19 -->
<g id="node11" class="node">
<title>Node19</title>
<g id="a_node11"><a xlink:href="types_8h.html" target="_top" xlink:title=" ">
<polygon fill="white" stroke="red" points="697.95,-112.5 697.95,-131.5 801.95,-131.5 801.95,-112.5 697.95,-112.5"/>
<text text-anchor="middle" x="749.95" y="-119.5" font-family="Helvetica,sans-Serif" font-size="10.00">emlabcpp/types.h</text>
</a>
</g>
</g>
<!-- Node2&#45;&gt;Node19 -->
<g id="edge11" class="edge">
<title>Node2&#45;&gt;Node19</title>
<path fill="none" stroke="midnightblue" d="M805.55,-235.47C793,-226.5 778.09,-213.79 768.95,-199 758.12,-181.5 753.46,-158.14 751.45,-141.96"/>
<polygon fill="midnightblue" stroke="midnightblue" points="754.89,-141.23 750.41,-131.64 747.93,-141.94 754.89,-141.23"/>
</g>
<!-- Node26 -->
<g id="node12" class="node">
<title>Node26</title>
<g id="a_node12"><a xlink:href="view_8h.html" target="_top" xlink:title=" ">
<polygon fill="white" stroke="black" points="778.45,-174 778.45,-193 877.45,-193 877.45,-174 778.45,-174"/>
<text text-anchor="middle" x="827.95" y="-181" font-family="Helvetica,sans-Serif" font-size="10.00">emlabcpp/view.h</text>
</a>
</g>
</g>
<!-- Node2&#45;&gt;Node26 -->
<g id="edge13" class="edge">
<title>Node2&#45;&gt;Node26</title>
<path fill="none" stroke="midnightblue" d="M827.95,-235.4C827.95,-226.06 827.95,-213.71 827.95,-203.52"/>
<polygon fill="midnightblue" stroke="midnightblue" points="831.45,-203.19 827.95,-193.19 824.45,-203.19 831.45,-203.19"/>
</g>
<!-- Node27 -->
<g id="node13" class="node">
<title>Node27</title>
<g id="a_node13"><a xlink:title=" ">
<polygon fill="white" stroke="#bfbfbf" points="852.95,-112.5 852.95,-131.5 892.95,-131.5 892.95,-112.5 852.95,-112.5"/>
<text text-anchor="middle" x="872.95" y="-119.5" font-family="Helvetica,sans-Serif" font-size="10.00">span</text>
</a>
</g>
</g>
<!-- Node2&#45;&gt;Node27 -->
<g id="edge23" class="edge">
<title>Node2&#45;&gt;Node27</title>
<path fill="none" stroke="midnightblue" d="M852.95,-235.39C865.67,-226.71 879.9,-214.31 886.95,-199 895.51,-180.41 888.89,-156.98 882.15,-141.09"/>
<polygon fill="midnightblue" stroke="midnightblue" points="885.24,-139.45 877.85,-131.86 878.9,-142.4 885.24,-139.45"/>
</g>
<!-- Node28 -->
<g id="node14" class="node">
<title>Node28</title>
<g id="a_node14"><a xlink:title=" ">
<polygon fill="white" stroke="#bfbfbf" points="933.95,-174 933.95,-193 977.95,-193 977.95,-174 933.95,-174"/>
<text text-anchor="middle" x="955.95" y="-181" font-family="Helvetica,sans-Serif" font-size="10.00">bitset</text>
</a>
</g>
</g>
<!-- Node2&#45;&gt;Node28 -->
<g id="edge16" class="edge">
<title>Node2&#45;&gt;Node28</title>
<path fill="none" stroke="midnightblue" d="M855.72,-235.4C877.88,-224.14 908.68,-208.5 930.27,-197.54"/>
<polygon fill="midnightblue" stroke="midnightblue" points="931.86,-200.66 939.19,-193.01 928.69,-194.41 931.86,-200.66"/>
</g>
<!-- Node29 -->
<g id="node15" class="node">
<title>Node29</title>
<g id="a_node15"><a xlink:title=" ">
<polygon fill="white" stroke="#bfbfbf" points="996.45,-174 996.45,-193 1057.45,-193 1057.45,-174 996.45,-174"/>
<text text-anchor="middle" x="1026.95" y="-181" font-family="Helvetica,sans-Serif" font-size="10.00">charconv</text>
</a>
</g>
</g>
<!-- Node2&#45;&gt;Node29 -->
<g id="edge17" class="edge">
<title>Node2&#45;&gt;Node29</title>
<path fill="none" stroke="midnightblue" d="M874.03,-235.4C905.86,-225.53 949.1,-211.86 986.95,-199 989.33,-198.19 991.79,-197.34 994.27,-196.47"/>
<polygon fill="midnightblue" stroke="midnightblue" points="995.49,-199.75 1003.73,-193.09 993.14,-193.15 995.49,-199.75"/>
</g>
<!-- Node30 -->
<g id="node16" class="node">
<title>Node30</title>
<g id="a_node16"><a xlink:title=" ">
<polygon fill="white" stroke="#bfbfbf" points="1075.95,-174 1075.95,-193 1125.95,-193 1125.95,-174 1075.95,-174"/>
<text text-anchor="middle" x="1100.95" y="-181" font-family="Helvetica,sans-Serif" font-size="10.00">chrono</text>
</a>
</g>
</g>
<!-- Node2&#45;&gt;Node30 -->
<g id="edge18" class="edge">
<title>Node2&#45;&gt;Node30</title>
<path fill="none" stroke="midnightblue" d="M894.63,-236.1C959.49,-222.96 1050.59,-204.16 1066.95,-199 1068.87,-198.39 1070.84,-197.71 1072.81,-196.99"/>
<polygon fill="midnightblue" stroke="midnightblue" points="1074.49,-200.09 1082.49,-193.14 1071.9,-193.59 1074.49,-200.09"/>
</g>
<!-- Node31 -->
<g id="node17" class="node">
<title>Node31</title>
<g id="a_node17"><a xlink:title=" ">
<polygon fill="white" stroke="#bfbfbf" points="1143.95,-174 1143.95,-193 1211.95,-193 1211.95,-174 1143.95,-174"/>
<text text-anchor="middle" x="1177.95" y="-181" font-family="Helvetica,sans-Serif" font-size="10.00">filesystem</text>
</a>
</g>
</g>
<!-- Node2&#45;&gt;Node31 -->
<g id="edge19" class="edge">
<title>Node2&#45;&gt;Node31</title>
<path fill="none" stroke="midnightblue" d="M894.65,-236.64C897.79,-236.08 900.9,-235.53 903.95,-235 1006.33,-217.26 1034.02,-223.69 1134.95,-199 1138.34,-198.17 1141.85,-197.19 1145.33,-196.14"/>
<polygon fill="midnightblue" stroke="midnightblue" points="1146.49,-199.44 1154.95,-193.06 1144.36,-192.78 1146.49,-199.44"/>
</g>
<!-- Node32 -->
<g id="node18" class="node">
<title>Node32</title>
<g id="a_node18"><a xlink:title=" ">
<polygon fill="white" stroke="#bfbfbf" points="1229.95,-174 1229.95,-193 1267.95,-193 1267.95,-174 1229.95,-174"/>
<text text-anchor="middle" x="1248.95" y="-181" font-family="Helvetica,sans-Serif" font-size="10.00">map</text>
</a>
</g>
</g>
<!-- Node2&#45;&gt;Node32 -->
<g id="edge20" class="edge">
<title>Node2&#45;&gt;Node32</title>
<path fill="none" stroke="midnightblue" d="M894.62,-236.48C897.77,-235.96 900.89,-235.46 903.95,-235 1044.13,-213.7 1085.3,-240.29 1220.95,-199 1222.42,-198.55 1223.91,-198.03 1225.39,-197.45"/>
<polygon fill="midnightblue" stroke="midnightblue" points="1227.23,-200.45 1234.84,-193.07 1224.29,-194.1 1227.23,-200.45"/>
</g>
<!-- Node33 -->
<g id="node19" class="node">
<title>Node33</title>
<g id="a_node19"><a xlink:title=" ">
<polygon fill="white" stroke="#bfbfbf" points="1285.95,-174 1285.95,-193 1341.95,-193 1341.95,-174 1285.95,-174"/>
<text text-anchor="middle" x="1313.95" y="-181" font-family="Helvetica,sans-Serif" font-size="10.00">optional</text>
</a>
</g>
</g>
<!-- Node2&#45;&gt;Node33 -->
<g id="edge21" class="edge">
<title>Node2&#45;&gt;Node33</title>
<path fill="none" stroke="midnightblue" d="M894.62,-236.42C897.77,-235.92 900.89,-235.44 903.95,-235 1068.81,-211.37 1114.97,-237.76 1276.95,-199 1279.78,-198.32 1282.68,-197.47 1285.55,-196.53"/>
<polygon fill="midnightblue" stroke="midnightblue" points="1286.87,-199.78 1295.07,-193.06 1284.47,-193.2 1286.87,-199.78"/>
</g>
<!-- Node34 -->
<g id="node20" class="node">
<title>Node34</title>
<g id="a_node20"><a xlink:title=" ">
<polygon fill="white" stroke="#bfbfbf" points="1359.95,-174 1359.95,-193 1391.95,-193 1391.95,-174 1359.95,-174"/>
<text text-anchor="middle" x="1375.95" y="-181" font-family="Helvetica,sans-Serif" font-size="10.00">set</text>
</a>
</g>
</g>
<!-- Node2&#45;&gt;Node34 -->
<g id="edge22" class="edge">
<title>Node2&#45;&gt;Node34</title>
<path fill="none" stroke="midnightblue" d="M894.61,-236.36C897.76,-235.87 900.88,-235.41 903.95,-235 1101.46,-208.28 1160.71,-258.47 1350.95,-199 1352.18,-198.61 1353.43,-198.16 1354.66,-197.65"/>
<polygon fill="midnightblue" stroke="midnightblue" points="1356.41,-200.69 1363.74,-193.03 1353.24,-194.45 1356.41,-200.69"/>
</g>
<!-- Node35 -->
<g id="node21" class="node">
<title>Node35</title>
<g id="a_node21"><a xlink:title=" ">
<polygon fill="white" stroke="#bfbfbf" points="1410.45,-174 1410.45,-193 1503.45,-193 1503.45,-174 1410.45,-174"/>
<text text-anchor="middle" x="1456.95" y="-181" font-family="Helvetica,sans-Serif" font-size="10.00">unordered_map</text>
</a>
</g>
</g>
<!-- Node2&#45;&gt;Node35 -->
<g id="edge25" class="edge">
<title>Node2&#45;&gt;Node35</title>
<path fill="none" stroke="midnightblue" d="M894.6,-236.33C897.76,-235.85 900.88,-235.4 903.95,-235 1123.53,-206.2 1182.41,-234.9 1400.95,-199 1406.52,-198.08 1412.35,-196.87 1418.05,-195.53"/>
<polygon fill="midnightblue" stroke="midnightblue" points="1419.23,-198.85 1428.09,-193.04 1417.54,-192.05 1419.23,-198.85"/>
</g>
<!-- Node3&#45;&gt;Node13 -->
<g id="edge3" class="edge">
<title>Node3&#45;&gt;Node13</title>
<path fill="none" stroke="midnightblue" d="M138.22,-56.32C127.11,-48.11 110.2,-35.6 96.96,-25.81"/>
<polygon fill="midnightblue" stroke="midnightblue" points="99.01,-22.97 88.89,-19.83 94.85,-28.59 99.01,-22.97"/>
</g>
<!-- Node15&#45;&gt;Node3 -->
<g id="edge6" class="edge">
<title>Node15&#45;&gt;Node3</title>
<path fill="none" stroke="midnightblue" d="M219.26,-168.34C204.7,-147.05 177.23,-106.89 161.6,-84.03"/>
<polygon fill="midnightblue" stroke="midnightblue" points="164.41,-81.95 155.88,-75.67 158.63,-85.9 164.41,-81.95"/>
</g>
<!-- Node15&#45;&gt;Node8 -->
<g id="edge7" class="edge">
<title>Node15&#45;&gt;Node8</title>
<path fill="none" stroke="midnightblue" d="M240.08,-168.4C246.91,-159.75 255.69,-148.64 262.85,-139.58"/>
<polygon fill="midnightblue" stroke="midnightblue" points="265.65,-141.67 269.11,-131.66 260.16,-137.34 265.65,-141.67"/>
</g>
<!-- Node19&#45;&gt;Node3 -->
<g id="edge12" class="edge">
<title>Node19&#45;&gt;Node3</title>
<path fill="none" stroke="midnightblue" d="M697.75,-116.3C589.87,-106.59 342.28,-84.31 220.38,-73.34"/>
<polygon fill="midnightblue" stroke="midnightblue" points="220.67,-69.85 210.4,-72.44 220.04,-76.82 220.67,-69.85"/>
</g>
<!-- Node26&#45;&gt;Node19 -->
<g id="edge14" class="edge">
<title>Node26&#45;&gt;Node19</title>
<path fill="none" stroke="midnightblue" d="M816.77,-173.98C804.37,-164.52 784.16,-149.1 769.2,-137.69"/>
<polygon fill="midnightblue" stroke="midnightblue" points="771.17,-134.79 761.1,-131.51 766.93,-140.36 771.17,-134.79"/>
</g>
<!-- Node26&#45;&gt;Node27 -->
<g id="edge15" class="edge">
<title>Node26&#45;&gt;Node27</title>
<path fill="none" stroke="midnightblue" d="M834.39,-173.98C841.14,-165.05 851.91,-150.81 860.36,-139.64"/>
<polygon fill="midnightblue" stroke="midnightblue" points="863.27,-141.6 866.51,-131.51 857.69,-137.37 863.27,-141.6"/>
</g>
</g>
</svg>
