<?xml version="1.0" encoding="UTF-8" standalone="no"?>
<!DOCTYPE svg PUBLIC "-//W3C//DTD SVG 1.1//EN"
 "http://www.w3.org/Graphics/SVG/1.1/DTD/svg11.dtd">
<!-- Generated by graphviz version 2.43.0 (0)
 -->
<!-- Title: include/emlabcpp/experimental/logging/noneabi_logger.h Pages: 1 -->
<svg width="1371pt" height="341pt"
 viewBox="0.00 0.00 1371.34 341.00" xmlns="http://www.w3.org/2000/svg" xmlns:xlink="http://www.w3.org/1999/xlink">
<g id="graph0" class="graph" transform="scale(1 1) rotate(0) translate(4 337)">
<title>include/emlabcpp/experimental/logging/noneabi_logger.h</title>
<polygon fill="white" stroke="transparent" points="-4,4 -4,-337 1367.34,-337 1367.34,4 -4,4"/>
<!-- Node1 -->
<g id="node1" class="node">
<title>Node1</title>
<g id="a_node1"><a xlink:title=" ">
<polygon fill="#bfbfbf" stroke="black" points="701.34,-302.5 701.34,-332.5 872.34,-332.5 872.34,-302.5 701.34,-302.5"/>
<text text-anchor="start" x="709.34" y="-320.5" font-family="Helvetica,sans-Serif" font-size="10.00">include/emlabcpp/experimental</text>
<text text-anchor="middle" x="786.84" y="-309.5" font-family="Helvetica,sans-Serif" font-size="10.00">/logging/noneabi_logger.h</text>
</a>
</g>
</g>
<!-- Node2 -->
<g id="node2" class="node">
<title>Node2</title>
<g id="a_node2"><a xlink:href="pretty__printer_8h.html" target="_top" xlink:title=" ">
<polygon fill="white" stroke="black" points="660.34,-235.5 660.34,-265.5 793.34,-265.5 793.34,-235.5 660.34,-235.5"/>
<text text-anchor="start" x="668.34" y="-253.5" font-family="Helvetica,sans-Serif" font-size="10.00">emlabcpp/experimental</text>
<text text-anchor="middle" x="726.84" y="-242.5" font-family="Helvetica,sans-Serif" font-size="10.00">/pretty_printer.h</text>
</a>
</g>
</g>
<!-- Node1&#45;&gt;Node2 -->
<g id="edge1" class="edge">
<title>Node1&#45;&gt;Node2</title>
<path fill="none" stroke="midnightblue" d="M773.83,-302.4C765.88,-293.79 755.58,-282.63 746.64,-272.94"/>
<polygon fill="midnightblue" stroke="midnightblue" points="749.19,-270.55 739.84,-265.58 744.05,-275.3 749.19,-270.55"/>
</g>
<!-- Node33 -->
<g id="node21" class="node">
<title>Node33</title>
<g id="a_node21"><a xlink:title=" ">
<polygon fill="white" stroke="#bfbfbf" points="811.34,-241 811.34,-260 884.34,-260 884.34,-241 811.34,-241"/>
<text text-anchor="middle" x="847.84" y="-248" font-family="Helvetica,sans-Serif" font-size="10.00">string_view</text>
</a>
</g>
</g>
<!-- Node1&#45;&gt;Node33 -->
<g id="edge26" class="edge">
<title>Node1&#45;&gt;Node33</title>
<path fill="none" stroke="midnightblue" d="M800.08,-302.4C809.69,-292.16 822.7,-278.3 832.71,-267.62"/>
<polygon fill="midnightblue" stroke="midnightblue" points="835.39,-269.88 839.69,-260.19 830.29,-265.09 835.39,-269.88"/>
</g>
<!-- Node3 -->
<g id="node3" class="node">
<title>Node3</title>
<g id="a_node3"><a xlink:href="concepts_8h.html" target="_top" xlink:title=" ">
<polygon fill="white" stroke="red" points="89.84,-56.5 89.84,-75.5 209.84,-75.5 209.84,-56.5 89.84,-56.5"/>
<text text-anchor="middle" x="149.84" y="-63.5" font-family="Helvetica,sans-Serif" font-size="10.00">emlabcpp/concepts.h</text>
</a>
</g>
</g>
<!-- Node2&#45;&gt;Node3 -->
<g id="edge2" class="edge">
<title>Node2&#45;&gt;Node3</title>
<path fill="none" stroke="midnightblue" d="M660.32,-249.7C494.52,-249.5 73.16,-244.49 30.84,-199 -9.16,-155.99 76.15,-103.94 122.51,-80.09"/>
<polygon fill="midnightblue" stroke="midnightblue" points="124.13,-83.2 131.49,-75.58 120.98,-76.95 124.13,-83.2"/>
</g>
<!-- Node13 -->
<g id="node4" class="node">
<title>Node13</title>
<g id="a_node4"><a xlink:title=" ">
<polygon fill="white" stroke="#bfbfbf" points="51.34,-0.5 51.34,-19.5 102.34,-19.5 102.34,-0.5 51.34,-0.5"/>
<text text-anchor="middle" x="76.84" y="-7.5" font-family="Helvetica,sans-Serif" font-size="10.00">variant</text>
</a>
</g>
</g>
<!-- Node2&#45;&gt;Node13 -->
<g id="edge25" class="edge">
<title>Node2&#45;&gt;Node13</title>
<path fill="none" stroke="midnightblue" d="M660.22,-249.8C491.95,-249.88 60.14,-245.49 16.84,-199 -29.44,-149.31 31.91,-63.87 61.97,-27.82"/>
<polygon fill="midnightblue" stroke="midnightblue" points="65.02,-29.65 68.86,-19.77 59.7,-25.1 65.02,-29.65"/>
</g>
<!-- Node14 -->
<g id="node5" class="node">
<title>Node14</title>
<g id="a_node5"><a xlink:href="enum_8h.html" target="_top" xlink:title=" ">
<polygon fill="white" stroke="red" points="39.84,-174 39.84,-193 143.84,-193 143.84,-174 39.84,-174"/>
<text text-anchor="middle" x="91.84" y="-181" font-family="Helvetica,sans-Serif" font-size="10.00">emlabcpp/enum.h</text>
</a>
</g>
</g>
<!-- Node2&#45;&gt;Node14 -->
<g id="edge4" class="edge">
<title>Node2&#45;&gt;Node14</title>
<path fill="none" stroke="midnightblue" d="M660.17,-246.79C552.76,-241.71 335.04,-228.51 152.84,-199 146.64,-197.99 140.13,-196.71 133.77,-195.31"/>
<polygon fill="midnightblue" stroke="midnightblue" points="134.49,-191.89 123.96,-193.06 132.92,-198.71 134.49,-191.89"/>
</g>
<!-- Node15 -->
<g id="node6" class="node">
<title>Node15</title>
<g id="a_node6"><a xlink:href="decompose_8h.html" target="_top" xlink:title=" ">
<polygon fill="white" stroke="black" points="162.34,-168.5 162.34,-198.5 295.34,-198.5 295.34,-168.5 162.34,-168.5"/>
<text text-anchor="start" x="170.34" y="-186.5" font-family="Helvetica,sans-Serif" font-size="10.00">emlabcpp/experimental</text>
<text text-anchor="middle" x="228.84" y="-175.5" font-family="Helvetica,sans-Serif" font-size="10.00">/decompose.h</text>
</a>
</g>
</g>
<!-- Node2&#45;&gt;Node15 -->
<g id="edge5" class="edge">
<title>Node2&#45;&gt;Node15</title>
<path fill="none" stroke="midnightblue" d="M660.24,-242.61C577.8,-233.81 433.17,-217.49 309.84,-199 308.39,-198.78 306.92,-198.56 305.44,-198.33"/>
<polygon fill="midnightblue" stroke="midnightblue" points="305.97,-194.87 295.54,-196.75 304.86,-201.78 305.97,-194.87"/>
</g>
<!-- Node8 -->
<g id="node7" class="node">
<title>Node8</title>
<g id="a_node7"><a xlink:title=" ">
<polygon fill="white" stroke="#bfbfbf" points="255.34,-112.5 255.34,-131.5 296.34,-131.5 296.34,-112.5 255.34,-112.5"/>
<text text-anchor="middle" x="275.84" y="-119.5" font-family="Helvetica,sans-Serif" font-size="10.00">tuple</text>
</a>
</g>
</g>
<!-- Node2&#45;&gt;Node8 -->
<g id="edge23" class="edge">
<title>Node2&#45;&gt;Node8</title>
<path fill="none" stroke="midnightblue" d="M660.32,-246.36C565.34,-240.94 396.4,-227.53 342.84,-199 317.7,-185.6 297.55,-158.73 286.14,-140.8"/>
<polygon fill="midnightblue" stroke="midnightblue" points="288.91,-138.62 280.72,-131.9 282.93,-142.26 288.91,-138.62"/>
</g>
<!-- Node16 -->
<g id="node8" class="node">
<title>Node16</title>
<g id="a_node8"><a xlink:href="match_8h.html" target="_top" xlink:title=" ">
<polygon fill="white" stroke="red" points="352.34,-174 352.34,-193 459.34,-193 459.34,-174 352.34,-174"/>
<text text-anchor="middle" x="405.84" y="-181" font-family="Helvetica,sans-Serif" font-size="10.00">emlabcpp/match.h</text>
</a>
</g>
</g>
<!-- Node2&#45;&gt;Node16 -->
<g id="edge8" class="edge">
<title>Node2&#45;&gt;Node16</title>
<path fill="none" stroke="midnightblue" d="M660.17,-237.07C608,-227.2 533.69,-212.8 468.84,-199 463.42,-197.85 457.75,-196.6 452.13,-195.33"/>
<polygon fill="midnightblue" stroke="midnightblue" points="452.64,-191.86 442.11,-193.06 451.09,-198.69 452.64,-191.86"/>
</g>
<!-- Node18 -->
<g id="node9" class="node">
<title>Node18</title>
<g id="a_node9"><a xlink:href="range_8h.html" target="_top" xlink:title=" ">
<polygon fill="white" stroke="red" points="477.84,-174 477.84,-193 581.84,-193 581.84,-174 477.84,-174"/>
<text text-anchor="middle" x="529.84" y="-181" font-family="Helvetica,sans-Serif" font-size="10.00">emlabcpp/range.h</text>
</a>
</g>
</g>
<!-- Node2&#45;&gt;Node18 -->
<g id="edge9" class="edge">
<title>Node2&#45;&gt;Node18</title>
<path fill="none" stroke="midnightblue" d="M684.1,-235.4C648.62,-223.69 598.74,-207.23 565.41,-196.23"/>
<polygon fill="midnightblue" stroke="midnightblue" points="566.22,-192.82 555.63,-193.01 564.03,-199.46 566.22,-192.82"/>
</g>
<!-- Node22 -->
<g id="node10" class="node">
<title>Node22</title>
<g id="a_node10"><a xlink:href="types_8h.html" target="_top" xlink:title=" ">
<polygon fill="white" stroke="red" points="557.84,-112.5 557.84,-131.5 661.84,-131.5 661.84,-112.5 557.84,-112.5"/>
<text text-anchor="middle" x="609.84" y="-119.5" font-family="Helvetica,sans-Serif" font-size="10.00">emlabcpp/types.h</text>
</a>
</g>
</g>
<!-- Node2&#45;&gt;Node22 -->
<g id="edge10" class="edge">
<title>Node2&#45;&gt;Node22</title>
<path fill="none" stroke="midnightblue" d="M681.34,-235.49C662.58,-227.57 642.16,-215.8 628.84,-199 615.81,-182.54 611.58,-158.3 610.29,-141.64"/>
<polygon fill="midnightblue" stroke="midnightblue" points="613.78,-141.32 609.78,-131.51 606.78,-141.67 613.78,-141.32"/>
</g>
<!-- Node21 -->
<g id="node11" class="node">
<title>Node21</title>
<g id="a_node11"><a xlink:href="view_8h.html" target="_top" xlink:title=" ">
<polygon fill="white" stroke="black" points="638.34,-174 638.34,-193 737.34,-193 737.34,-174 638.34,-174"/>
<text text-anchor="middle" x="687.84" y="-181" font-family="Helvetica,sans-Serif" font-size="10.00">emlabcpp/view.h</text>
</a>
</g>
</g>
<!-- Node2&#45;&gt;Node21 -->
<g id="edge12" class="edge">
<title>Node2&#45;&gt;Node21</title>
<path fill="none" stroke="midnightblue" d="M718.38,-235.4C712.48,-225.56 704.57,-212.38 698.28,-201.89"/>
<polygon fill="midnightblue" stroke="midnightblue" points="701.21,-199.97 693.06,-193.19 695.21,-203.57 701.21,-199.97"/>
</g>
<!-- Node24 -->
<g id="node12" class="node">
<title>Node24</title>
<g id="a_node12"><a xlink:title=" ">
<polygon fill="white" stroke="#bfbfbf" points="712.84,-112.5 712.84,-131.5 752.84,-131.5 752.84,-112.5 712.84,-112.5"/>
<text text-anchor="middle" x="732.84" y="-119.5" font-family="Helvetica,sans-Serif" font-size="10.00">span</text>
</a>
</g>
</g>
<!-- Node2&#45;&gt;Node24 -->
<g id="edge22" class="edge">
<title>Node2&#45;&gt;Node24</title>
<path fill="none" stroke="midnightblue" d="M734.12,-235.35C738.78,-225.46 744.41,-211.78 746.84,-199 749.43,-185.47 748.91,-181.62 746.84,-168 745.48,-159 742.65,-149.33 739.9,-141.26"/>
<polygon fill="midnightblue" stroke="midnightblue" points="743.16,-139.98 736.44,-131.78 736.58,-142.37 743.16,-139.98"/>
</g>
<!-- Node25 -->
<g id="node13" class="node">
<title>Node25</title>
<g id="a_node13"><a xlink:title=" ">
<polygon fill="white" stroke="#bfbfbf" points="793.84,-174 793.84,-193 837.84,-193 837.84,-174 793.84,-174"/>
<text text-anchor="middle" x="815.84" y="-181" font-family="Helvetica,sans-Serif" font-size="10.00">bitset</text>
</a>
</g>
</g>
<!-- Node2&#45;&gt;Node25 -->
<g id="edge15" class="edge">
<title>Node2&#45;&gt;Node25</title>
<path fill="none" stroke="midnightblue" d="M746.16,-235.4C760.81,-224.7 780.88,-210.03 795.73,-199.19"/>
<polygon fill="midnightblue" stroke="midnightblue" points="798.19,-201.73 804.2,-193.01 794.06,-196.08 798.19,-201.73"/>
</g>
<!-- Node26 -->
<g id="node14" class="node">
<title>Node26</title>
<g id="a_node14"><a xlink:title=" ">
<polygon fill="white" stroke="#bfbfbf" points="856.34,-174 856.34,-193 917.34,-193 917.34,-174 856.34,-174"/>
<text text-anchor="middle" x="886.84" y="-181" font-family="Helvetica,sans-Serif" font-size="10.00">charconv</text>
</a>
</g>
</g>
<!-- Node2&#45;&gt;Node26 -->
<g id="edge16" class="edge">
<title>Node2&#45;&gt;Node26</title>
<path fill="none" stroke="midnightblue" d="M761.56,-235.4C789.88,-223.89 829.5,-207.8 856.55,-196.81"/>
<polygon fill="midnightblue" stroke="midnightblue" points="857.96,-200.01 865.9,-193.01 855.32,-193.53 857.96,-200.01"/>
</g>
<!-- Node27 -->
<g id="node15" class="node">
<title>Node27</title>
<g id="a_node15"><a xlink:title=" ">
<polygon fill="white" stroke="#bfbfbf" points="935.84,-174 935.84,-193 985.84,-193 985.84,-174 935.84,-174"/>
<text text-anchor="middle" x="960.84" y="-181" font-family="Helvetica,sans-Serif" font-size="10.00">chrono</text>
</a>
</g>
</g>
<!-- Node2&#45;&gt;Node27 -->
<g id="edge17" class="edge">
<title>Node2&#45;&gt;Node27</title>
<path fill="none" stroke="midnightblue" d="M793.35,-235.44C832.63,-226.47 883.07,-213.76 926.84,-199 928.76,-198.35 930.72,-197.65 932.68,-196.91"/>
<polygon fill="midnightblue" stroke="midnightblue" points="934.38,-200 942.34,-193.01 931.76,-193.5 934.38,-200"/>
</g>
<!-- Node28 -->
<g id="node16" class="node">
<title>Node28</title>
<g id="a_node16"><a xlink:title=" ">
<polygon fill="white" stroke="#bfbfbf" points="1003.84,-174 1003.84,-193 1071.84,-193 1071.84,-174 1003.84,-174"/>
<text text-anchor="middle" x="1037.84" y="-181" font-family="Helvetica,sans-Serif" font-size="10.00">filesystem</text>
</a>
</g>
</g>
<!-- Node2&#45;&gt;Node28 -->
<g id="edge18" class="edge">
<title>Node2&#45;&gt;Node28</title>
<path fill="none" stroke="midnightblue" d="M793.57,-236.76C796.71,-236.16 799.81,-235.57 802.84,-235 888.15,-218.86 910.84,-220.92 994.84,-199 998.05,-198.16 1001.35,-197.21 1004.65,-196.21"/>
<polygon fill="midnightblue" stroke="midnightblue" points="1005.92,-199.47 1014.37,-193.08 1003.78,-192.81 1005.92,-199.47"/>
</g>
<!-- Node29 -->
<g id="node17" class="node">
<title>Node29</title>
<g id="a_node17"><a xlink:title=" ">
<polygon fill="white" stroke="#bfbfbf" points="1089.84,-174 1089.84,-193 1127.84,-193 1127.84,-174 1089.84,-174"/>
<text text-anchor="middle" x="1108.84" y="-181" font-family="Helvetica,sans-Serif" font-size="10.00">map</text>
</a>
</g>
</g>
<!-- Node2&#45;&gt;Node29 -->
<g id="edge19" class="edge">
<title>Node2&#45;&gt;Node29</title>
<path fill="none" stroke="midnightblue" d="M793.53,-236.54C796.68,-236.01 799.79,-235.49 802.84,-235 925.87,-215.32 961.94,-236.21 1080.84,-199 1082.31,-198.54 1083.8,-198.01 1085.28,-197.42"/>
<polygon fill="midnightblue" stroke="midnightblue" points="1087.13,-200.42 1094.72,-193.03 1084.18,-194.07 1087.13,-200.42"/>
</g>
<!-- Node30 -->
<g id="node18" class="node">
<title>Node30</title>
<g id="a_node18"><a xlink:title=" ">
<polygon fill="white" stroke="#bfbfbf" points="1145.84,-174 1145.84,-193 1201.84,-193 1201.84,-174 1145.84,-174"/>
<text text-anchor="middle" x="1173.84" y="-181" font-family="Helvetica,sans-Serif" font-size="10.00">optional</text>
</a>
</g>
</g>
<!-- Node2&#45;&gt;Node30 -->
<g id="edge20" class="edge">
<title>Node2&#45;&gt;Node30</title>
<path fill="none" stroke="midnightblue" d="M793.52,-236.46C796.67,-235.95 799.79,-235.46 802.84,-235 950.52,-212.99 991.84,-234.55 1136.84,-199 1139.67,-198.31 1142.57,-197.45 1145.44,-196.5"/>
<polygon fill="midnightblue" stroke="midnightblue" points="1146.77,-199.74 1154.96,-193.02 1144.36,-193.17 1146.77,-199.74"/>
</g>
<!-- Node31 -->
<g id="node19" class="node">
<title>Node31</title>
<g id="a_node19"><a xlink:title=" ">
<polygon fill="white" stroke="#bfbfbf" points="1219.84,-174 1219.84,-193 1251.84,-193 1251.84,-174 1219.84,-174"/>
<text text-anchor="middle" x="1235.84" y="-181" font-family="Helvetica,sans-Serif" font-size="10.00">set</text>
</a>
</g>
</g>
<!-- Node2&#45;&gt;Node31 -->
<g id="edge21" class="edge">
<title>Node2&#45;&gt;Node31</title>
<path fill="none" stroke="midnightblue" d="M793.51,-236.39C796.66,-235.89 799.78,-235.43 802.84,-235 983.15,-209.91 1037.31,-253.98 1210.84,-199 1212.08,-198.61 1213.33,-198.15 1214.56,-197.64"/>
<polygon fill="midnightblue" stroke="midnightblue" points="1216.31,-200.67 1223.63,-193.01 1213.13,-194.44 1216.31,-200.67"/>
</g>
<!-- Node32 -->
<g id="node20" class="node">
<title>Node32</title>
<g id="a_node20"><a xlink:title=" ">
<polygon fill="white" stroke="#bfbfbf" points="1270.34,-174 1270.34,-193 1363.34,-193 1363.34,-174 1270.34,-174"/>
<text text-anchor="middle" x="1316.84" y="-181" font-family="Helvetica,sans-Serif" font-size="10.00">unordered_map</text>
</a>
</g>
</g>
<!-- Node2&#45;&gt;Node32 -->
<g id="edge24" class="edge">
<title>Node2&#45;&gt;Node32</title>
<path fill="none" stroke="midnightblue" d="M793.51,-236.35C796.66,-235.87 799.78,-235.41 802.84,-235 1005.21,-207.83 1059.46,-232.72 1260.84,-199 1266.42,-198.07 1272.24,-196.84 1277.94,-195.5"/>
<polygon fill="midnightblue" stroke="midnightblue" points="1279.13,-198.82 1287.99,-193 1277.44,-192.02 1279.13,-198.82"/>
</g>
<!-- Node3&#45;&gt;Node13 -->
<g id="edge3" class="edge">
<title>Node3&#45;&gt;Node13</title>
<path fill="none" stroke="midnightblue" d="M138.12,-56.32C127.01,-48.11 110.1,-35.6 96.86,-25.81"/>
<polygon fill="midnightblue" stroke="midnightblue" points="98.91,-22.97 88.79,-19.83 94.74,-28.59 98.91,-22.97"/>
</g>
<!-- Node15&#45;&gt;Node3 -->
<g id="edge6" class="edge">
<title>Node15&#45;&gt;Node3</title>
<path fill="none" stroke="midnightblue" d="M219.16,-168.34C204.6,-147.05 177.13,-106.89 161.5,-84.03"/>
<polygon fill="midnightblue" stroke="midnightblue" points="164.31,-81.95 155.77,-75.67 158.53,-85.9 164.31,-81.95"/>
</g>
<!-- Node15&#45;&gt;Node8 -->
<g id="edge7" class="edge">
<title>Node15&#45;&gt;Node8</title>
<path fill="none" stroke="midnightblue" d="M239.98,-168.4C246.81,-159.75 255.59,-148.64 262.75,-139.58"/>
<polygon fill="midnightblue" stroke="midnightblue" points="265.55,-141.67 269.01,-131.66 260.06,-137.34 265.55,-141.67"/>
</g>
<!-- Node22&#45;&gt;Node3 -->
<g id="edge11" class="edge">
<title>Node22&#45;&gt;Node3</title>
<path fill="none" stroke="midnightblue" d="M557.52,-114.86C474.68,-105.13 313.2,-86.18 220.26,-75.27"/>
<polygon fill="midnightblue" stroke="midnightblue" points="220.45,-71.76 210.11,-74.07 219.63,-78.72 220.45,-71.76"/>
</g>
<!-- Node21&#45;&gt;Node22 -->
<g id="edge13" class="edge">
<title>Node21&#45;&gt;Node22</title>
<path fill="none" stroke="midnightblue" d="M676.67,-173.98C664.27,-164.52 644.05,-149.1 629.1,-137.69"/>
<polygon fill="midnightblue" stroke="midnightblue" points="631.07,-134.79 621,-131.51 626.83,-140.36 631.07,-134.79"/>
</g>
<!-- Node21&#45;&gt;Node24 -->
<g id="edge14" class="edge">
<title>Node21&#45;&gt;Node24</title>
<path fill="none" stroke="midnightblue" d="M694.29,-173.98C701.04,-165.05 711.81,-150.81 720.26,-139.64"/>
<polygon fill="midnightblue" stroke="midnightblue" points="723.17,-141.6 726.41,-131.51 717.59,-137.37 723.17,-141.6"/>
</g>
</g>
</svg>
