<?xml version="1.0" encoding="UTF-8" standalone="no"?>
<!DOCTYPE svg PUBLIC "-//W3C//DTD SVG 1.1//EN"
 "http://www.w3.org/Graphics/SVG/1.1/DTD/svg11.dtd">
<!-- Generated by graphviz version 2.43.0 (0)
 -->
<!-- Title: include/emlabcpp/iterators/numeric.h Pages: 1 -->
<svg width="403pt" height="375pt"
 viewBox="0.00 0.00 403.00 375.00" xmlns="http://www.w3.org/2000/svg" xmlns:xlink="http://www.w3.org/1999/xlink">
<g id="graph0" class="graph" transform="scale(1 1) rotate(0) translate(4 371)">
<title>include/emlabcpp/iterators/numeric.h</title>
<polygon fill="white" stroke="transparent" points="-4,4 -4,-371 399,-371 399,4 -4,4"/>
<!-- Node1 -->
<g id="node1" class="node">
<title>Node1</title>
<g id="a_node1"><a xlink:title=" ">
<polygon fill="#bfbfbf" stroke="black" points="246.5,-336.5 246.5,-366.5 393.5,-366.5 393.5,-336.5 246.5,-336.5"/>
<text text-anchor="start" x="254.5" y="-354.5" font-family="Helvetica,sans-Serif" font-size="10.00">include/emlabcpp/iterators</text>
<text text-anchor="middle" x="320" y="-343.5" font-family="Helvetica,sans-Serif" font-size="10.00">/numeric.h</text>
</a>
</g>
</g>
<!-- Node2 -->
<g id="node2" class="node">
<title>Node2</title>
<g id="a_node2"><a xlink:href="iterator_8h.html" target="_top" xlink:title=" ">
<polygon fill="white" stroke="black" points="264,-280.5 264,-299.5 376,-299.5 376,-280.5 264,-280.5"/>
<text text-anchor="middle" x="320" y="-287.5" font-family="Helvetica,sans-Serif" font-size="10.00">emlabcpp/iterator.h</text>
</a>
</g>
</g>
<!-- Node1&#45;&gt;Node2 -->
<g id="edge1" class="edge">
<title>Node1&#45;&gt;Node2</title>
<path fill="none" stroke="midnightblue" d="M320,-336.4C320,-328.47 320,-318.46 320,-309.86"/>
<polygon fill="midnightblue" stroke="midnightblue" points="323.5,-309.66 320,-299.66 316.5,-309.66 323.5,-309.66"/>
</g>
<!-- Node3 -->
<g id="node3" class="node">
<title>Node3</title>
<g id="a_node3"><a xlink:href="view_8h.html" target="_top" xlink:title=" ">
<polygon fill="white" stroke="black" points="223.5,-224.5 223.5,-243.5 322.5,-243.5 322.5,-224.5 223.5,-224.5"/>
<text text-anchor="middle" x="273" y="-231.5" font-family="Helvetica,sans-Serif" font-size="10.00">emlabcpp/view.h</text>
</a>
</g>
</g>
<!-- Node2&#45;&gt;Node3 -->
<g id="edge2" class="edge">
<title>Node2&#45;&gt;Node3</title>
<path fill="none" stroke="midnightblue" d="M312.24,-280.08C305.46,-272.3 295.46,-260.8 287.24,-251.37"/>
<polygon fill="midnightblue" stroke="midnightblue" points="289.82,-249 280.62,-243.75 284.54,-253.59 289.82,-249"/>
</g>
<!-- Node15 -->
<g id="node15" class="node">
<title>Node15</title>
<g id="a_node15"><a xlink:title=" ">
<polygon fill="white" stroke="#bfbfbf" points="340.5,-224.5 340.5,-243.5 393.5,-243.5 393.5,-224.5 340.5,-224.5"/>
<text text-anchor="middle" x="367" y="-231.5" font-family="Helvetica,sans-Serif" font-size="10.00">iterator</text>
</a>
</g>
</g>
<!-- Node2&#45;&gt;Node15 -->
<g id="edge15" class="edge">
<title>Node2&#45;&gt;Node15</title>
<path fill="none" stroke="midnightblue" d="M327.76,-280.08C334.54,-272.3 344.54,-260.8 352.76,-251.37"/>
<polygon fill="midnightblue" stroke="midnightblue" points="355.46,-253.59 359.38,-243.75 350.18,-249 355.46,-253.59"/>
</g>
<!-- Node4 -->
<g id="node4" class="node">
<title>Node4</title>
<g id="a_node4"><a xlink:href="types_8h.html" target="_top" xlink:title=" ">
<polygon fill="white" stroke="black" points="221,-168.5 221,-187.5 325,-187.5 325,-168.5 221,-168.5"/>
<text text-anchor="middle" x="273" y="-175.5" font-family="Helvetica,sans-Serif" font-size="10.00">emlabcpp/types.h</text>
</a>
</g>
</g>
<!-- Node3&#45;&gt;Node4 -->
<g id="edge3" class="edge">
<title>Node3&#45;&gt;Node4</title>
<path fill="none" stroke="midnightblue" d="M273,-224.08C273,-217.01 273,-206.86 273,-197.99"/>
<polygon fill="midnightblue" stroke="midnightblue" points="276.5,-197.75 273,-187.75 269.5,-197.75 276.5,-197.75"/>
</g>
<!-- Node5 -->
<g id="node5" class="node">
<title>Node5</title>
<g id="a_node5"><a xlink:href="concepts_8h.html" target="_top" xlink:title=" ">
<polygon fill="white" stroke="black" points="213,-112.5 213,-131.5 333,-131.5 333,-112.5 213,-112.5"/>
<text text-anchor="middle" x="273" y="-119.5" font-family="Helvetica,sans-Serif" font-size="10.00">emlabcpp/concepts.h</text>
</a>
</g>
</g>
<!-- Node4&#45;&gt;Node5 -->
<g id="edge4" class="edge">
<title>Node4&#45;&gt;Node5</title>
<path fill="none" stroke="midnightblue" d="M273,-168.08C273,-161.01 273,-150.86 273,-141.99"/>
<polygon fill="midnightblue" stroke="midnightblue" points="276.5,-141.75 273,-131.75 269.5,-141.75 276.5,-141.75"/>
</g>
<!-- Node6 -->
<g id="node6" class="node">
<title>Node6</title>
<g id="a_node6"><a xlink:href="types_2base_8h.html" target="_top" xlink:title=" ">
<polygon fill="white" stroke="black" points="120,-56.5 120,-75.5 250,-75.5 250,-56.5 120,-56.5"/>
<text text-anchor="middle" x="185" y="-63.5" font-family="Helvetica,sans-Serif" font-size="10.00">emlabcpp/types/base.h</text>
</a>
</g>
</g>
<!-- Node4&#45;&gt;Node6 -->
<g id="edge13" class="edge">
<title>Node4&#45;&gt;Node6</title>
<path fill="none" stroke="midnightblue" d="M252.3,-168.35C236.86,-160.88 216.36,-148.65 204,-132 194.03,-118.58 189.28,-100.01 187.02,-86.16"/>
<polygon fill="midnightblue" stroke="midnightblue" points="190.43,-85.3 185.65,-75.85 183.5,-86.22 190.43,-85.3"/>
</g>
<!-- Node14 -->
<g id="node14" class="node">
<title>Node14</title>
<g id="a_node14"><a xlink:title=" ">
<polygon fill="white" stroke="#bfbfbf" points="351,-112.5 351,-131.5 395,-131.5 395,-112.5 351,-112.5"/>
<text text-anchor="middle" x="373" y="-119.5" font-family="Helvetica,sans-Serif" font-size="10.00">string</text>
</a>
</g>
</g>
<!-- Node4&#45;&gt;Node14 -->
<g id="edge14" class="edge">
<title>Node4&#45;&gt;Node14</title>
<path fill="none" stroke="midnightblue" d="M289.07,-168.32C304.96,-159.74 329.51,-146.49 347.96,-136.52"/>
<polygon fill="midnightblue" stroke="midnightblue" points="349.84,-139.49 356.97,-131.65 346.51,-133.33 349.84,-139.49"/>
</g>
<!-- Node5&#45;&gt;Node6 -->
<g id="edge5" class="edge">
<title>Node5&#45;&gt;Node6</title>
<path fill="none" stroke="midnightblue" d="M258.86,-112.32C245.13,-103.9 224.06,-90.97 207.94,-81.07"/>
<polygon fill="midnightblue" stroke="midnightblue" points="209.46,-77.9 199.1,-75.65 205.8,-83.87 209.46,-77.9"/>
</g>
<!-- Node13 -->
<g id="node13" class="node">
<title>Node13</title>
<g id="a_node13"><a xlink:title=" ">
<polygon fill="white" stroke="#bfbfbf" points="268,-56.5 268,-75.5 328,-75.5 328,-56.5 268,-56.5"/>
<text text-anchor="middle" x="298" y="-63.5" font-family="Helvetica,sans-Serif" font-size="10.00">concepts</text>
</a>
</g>
</g>
<!-- Node5&#45;&gt;Node13 -->
<g id="edge12" class="edge">
<title>Node5&#45;&gt;Node13</title>
<path fill="none" stroke="midnightblue" d="M277.13,-112.08C280.51,-104.77 285.42,-94.18 289.62,-85.1"/>
<polygon fill="midnightblue" stroke="midnightblue" points="292.92,-86.3 293.95,-75.75 286.57,-83.36 292.92,-86.3"/>
</g>
<!-- Node7 -->
<g id="node7" class="node">
<title>Node7</title>
<g id="a_node7"><a xlink:title=" ">
<polygon fill="white" stroke="#bfbfbf" points="0,-0.5 0,-19.5 42,-19.5 42,-0.5 0,-0.5"/>
<text text-anchor="middle" x="21" y="-7.5" font-family="Helvetica,sans-Serif" font-size="10.00">array</text>
</a>
</g>
</g>
<!-- Node6&#45;&gt;Node7 -->
<g id="edge6" class="edge">
<title>Node6&#45;&gt;Node7</title>
<path fill="none" stroke="midnightblue" d="M159.01,-56.44C129.96,-46.88 82.95,-31.4 52,-21.21"/>
<polygon fill="midnightblue" stroke="midnightblue" points="52.76,-17.77 42.17,-17.97 50.57,-24.42 52.76,-17.77"/>
</g>
<!-- Node8 -->
<g id="node8" class="node">
<title>Node8</title>
<g id="a_node8"><a xlink:title=" ">
<polygon fill="white" stroke="#bfbfbf" points="60,-0.5 60,-19.5 110,-19.5 110,-0.5 60,-0.5"/>
<text text-anchor="middle" x="85" y="-7.5" font-family="Helvetica,sans-Serif" font-size="10.00">cstdint</text>
</a>
</g>
</g>
<!-- Node6&#45;&gt;Node8 -->
<g id="edge7" class="edge">
<title>Node6&#45;&gt;Node8</title>
<path fill="none" stroke="midnightblue" d="M168.93,-56.32C153.04,-47.74 128.49,-34.49 110.04,-24.52"/>
<polygon fill="midnightblue" stroke="midnightblue" points="111.49,-21.33 101.03,-19.65 108.16,-27.49 111.49,-21.33"/>
</g>
<!-- Node9 -->
<g id="node9" class="node">
<title>Node9</title>
<g id="a_node9"><a xlink:title=" ">
<polygon fill="white" stroke="#bfbfbf" points="128,-0.5 128,-19.5 178,-19.5 178,-0.5 128,-0.5"/>
<text text-anchor="middle" x="153" y="-7.5" font-family="Helvetica,sans-Serif" font-size="10.00">ranges</text>
</a>
</g>
</g>
<!-- Node6&#45;&gt;Node9 -->
<g id="edge8" class="edge">
<title>Node6&#45;&gt;Node9</title>
<path fill="none" stroke="midnightblue" d="M179.72,-56.08C175.29,-48.61 168.84,-37.72 163.38,-28.52"/>
<polygon fill="midnightblue" stroke="midnightblue" points="166.29,-26.57 158.19,-19.75 160.27,-30.14 166.29,-26.57"/>
</g>
<!-- Node10 -->
<g id="node10" class="node">
<title>Node10</title>
<g id="a_node10"><a xlink:title=" ">
<polygon fill="white" stroke="#bfbfbf" points="196.5,-0.5 196.5,-19.5 237.5,-19.5 237.5,-0.5 196.5,-0.5"/>
<text text-anchor="middle" x="217" y="-7.5" font-family="Helvetica,sans-Serif" font-size="10.00">tuple</text>
</a>
</g>
</g>
<!-- Node6&#45;&gt;Node10 -->
<g id="edge9" class="edge">
<title>Node6&#45;&gt;Node10</title>
<path fill="none" stroke="midnightblue" d="M190.28,-56.08C194.71,-48.61 201.16,-37.72 206.62,-28.52"/>
<polygon fill="midnightblue" stroke="midnightblue" points="209.73,-30.14 211.81,-19.75 203.71,-26.57 209.73,-30.14"/>
</g>
<!-- Node11 -->
<g id="node11" class="node">
<title>Node11</title>
<g id="a_node11"><a xlink:title=" ">
<polygon fill="white" stroke="#bfbfbf" points="255.5,-0.5 255.5,-19.5 324.5,-19.5 324.5,-0.5 255.5,-0.5"/>
<text text-anchor="middle" x="290" y="-7.5" font-family="Helvetica,sans-Serif" font-size="10.00">type_traits</text>
</a>
</g>
</g>
<!-- Node6&#45;&gt;Node11 -->
<g id="edge10" class="edge">
<title>Node6&#45;&gt;Node11</title>
<path fill="none" stroke="midnightblue" d="M201.87,-56.32C218.71,-47.66 244.81,-34.24 264.24,-24.25"/>
<polygon fill="midnightblue" stroke="midnightblue" points="265.88,-27.34 273.17,-19.65 262.68,-21.12 265.88,-27.34"/>
</g>
<!-- Node12 -->
<g id="node12" class="node">
<title>Node12</title>
<g id="a_node12"><a xlink:title=" ">
<polygon fill="white" stroke="#bfbfbf" points="342.5,-0.5 342.5,-19.5 389.5,-19.5 389.5,-0.5 342.5,-0.5"/>
<text text-anchor="middle" x="366" y="-7.5" font-family="Helvetica,sans-Serif" font-size="10.00">vector</text>
</a>
</g>
</g>
<!-- Node6&#45;&gt;Node12 -->
<g id="edge11" class="edge">
<title>Node6&#45;&gt;Node12</title>
<path fill="none" stroke="midnightblue" d="M213.68,-56.44C245.93,-46.82 298.24,-31.21 332.39,-21.03"/>
<polygon fill="midnightblue" stroke="midnightblue" points="333.78,-24.27 342.36,-18.05 331.77,-17.56 333.78,-24.27"/>
</g>
</g>
</svg>
