<?xml version="1.0" encoding="UTF-8" standalone="no"?>
<!DOCTYPE svg PUBLIC "-//W3C//DTD SVG 1.1//EN"
 "http://www.w3.org/Graphics/SVG/1.1/DTD/svg11.dtd">
<!-- Generated by graphviz version 2.43.0 (0)
 -->
<!-- Title: include/emlabcpp/outcome.h Pages: 1 -->
<svg width="201pt" height="140pt"
 viewBox="0.00 0.00 201.00 140.00" xmlns="http://www.w3.org/2000/svg" xmlns:xlink="http://www.w3.org/1999/xlink">
<g id="graph0" class="graph" transform="scale(1 1) rotate(0) translate(4 136)">
<title>include/emlabcpp/outcome.h</title>
<polygon fill="white" stroke="transparent" points="-4,4 -4,-136 197,-136 197,4 -4,4"/>
<!-- Node1 -->
<g id="node1" class="node">
<title>Node1</title>
<g id="a_node1"><a xlink:title=" ">
<polygon fill="#bfbfbf" stroke="black" points="35,-112.5 35,-131.5 193,-131.5 193,-112.5 35,-112.5"/>
<text text-anchor="middle" x="114" y="-119.5" font-family="Helvetica,sans-Serif" font-size="10.00">include/emlabcpp/outcome.h</text>
</a>
</g>
</g>
<!-- Node2 -->
<g id="node2" class="node">
<title>Node2</title>
<g id="a_node2"><a xlink:href="result_8h.html" target="_top" xlink:title=" ">
<polygon fill="white" stroke="black" points="62,-56.5 62,-75.5 166,-75.5 166,-56.5 62,-56.5"/>
<text text-anchor="middle" x="114" y="-63.5" font-family="Helvetica,sans-Serif" font-size="10.00">emlabcpp/result.h</text>
</a>
</g>
</g>
<!-- Node1&#45;&gt;Node2 -->
<g id="edge1" class="edge">
<title>Node1&#45;&gt;Node2</title>
<path fill="none" stroke="midnightblue" d="M114,-112.08C114,-105.01 114,-94.86 114,-85.99"/>
<polygon fill="midnightblue" stroke="midnightblue" points="117.5,-85.75 114,-75.75 110.5,-85.75 117.5,-85.75"/>
</g>
<!-- Node3 -->
<g id="node3" class="node">
<title>Node3</title>
<g id="a_node3"><a xlink:href="algorithm_8h.html" target="_top" xlink:title=" ">
<polygon fill="white" stroke="red" points="0,-0.5 0,-19.5 124,-19.5 124,-0.5 0,-0.5"/>
<text text-anchor="middle" x="62" y="-7.5" font-family="Helvetica,sans-Serif" font-size="10.00">emlabcpp/algorithm.h</text>
</a>
</g>
</g>
<!-- Node2&#45;&gt;Node3 -->
<g id="edge2" class="edge">
<title>Node2&#45;&gt;Node3</title>
<path fill="none" stroke="midnightblue" d="M105.41,-56.08C97.84,-48.22 86.62,-36.57 77.49,-27.08"/>
<polygon fill="midnightblue" stroke="midnightblue" points="79.88,-24.53 70.43,-19.75 74.84,-29.38 79.88,-24.53"/>
</g>
<!-- Node9 -->
<g id="node4" class="node">
<title>Node9</title>
<g id="a_node4"><a xlink:title=" ">
<polygon fill="white" stroke="#bfbfbf" points="142,-0.5 142,-19.5 192,-19.5 192,-0.5 142,-0.5"/>
<text text-anchor="middle" x="167" y="-7.5" font-family="Helvetica,sans-Serif" font-size="10.00">cstdint</text>
</a>
</g>
</g>
<!-- Node2&#45;&gt;Node9 -->
<g id="edge3" class="edge">
<title>Node2&#45;&gt;Node9</title>
<path fill="none" stroke="midnightblue" d="M122.75,-56.08C130.47,-48.22 141.9,-36.57 151.22,-27.08"/>
<polygon fill="midnightblue" stroke="midnightblue" points="153.9,-29.34 158.41,-19.75 148.91,-24.44 153.9,-29.34"/>
</g>
</g>
</svg>
