<?xml version="1.0" encoding="UTF-8" standalone="no"?>
<!DOCTYPE svg PUBLIC "-//W3C//DTD SVG 1.1//EN"
 "http://www.w3.org/Graphics/SVG/1.1/DTD/svg11.dtd">
<!-- Generated by graphviz version 2.43.0 (0)
 -->
<!-- Title: include/emlabcpp/protocol/packet.h Pages: 1 -->
<svg width="1046pt" height="218pt"
 viewBox="0.00 0.00 1045.50 218.00" xmlns="http://www.w3.org/2000/svg" xmlns:xlink="http://www.w3.org/1999/xlink">
<g id="graph0" class="graph" transform="scale(1 1) rotate(0) translate(4 214)">
<title>include/emlabcpp/protocol/packet.h</title>
<polygon fill="white" stroke="transparent" points="-4,4 -4,-214 1041.5,-214 1041.5,4 -4,4"/>
<!-- Node1 -->
<g id="node1" class="node">
<title>Node1</title>
<g id="a_node1"><a xlink:title=" ">
<polygon fill="#bfbfbf" stroke="black" points="690.5,-179.5 690.5,-209.5 836.5,-209.5 836.5,-179.5 690.5,-179.5"/>
<text text-anchor="start" x="698.5" y="-197.5" font-family="Helvetica,sans-Serif" font-size="10.00">include/emlabcpp/protocol</text>
<text text-anchor="middle" x="763.5" y="-186.5" font-family="Helvetica,sans-Serif" font-size="10.00">/packet.h</text>
</a>
</g>
</g>
<!-- Node2 -->
<g id="node2" class="node">
<title>Node2</title>
<g id="a_node2"><a xlink:href="sequencer_8h.html" target="_top" xlink:title=" ">
<polygon fill="white" stroke="black" points="231,-123.5 231,-142.5 400,-142.5 400,-123.5 231,-123.5"/>
<text text-anchor="middle" x="315.5" y="-130.5" font-family="Helvetica,sans-Serif" font-size="10.00">emlabcpp/protocol/sequencer.h</text>
</a>
</g>
</g>
<!-- Node1&#45;&gt;Node2 -->
<g id="edge1" class="edge">
<title>Node1&#45;&gt;Node2</title>
<path fill="none" stroke="midnightblue" d="M690.27,-183.77C607.4,-172.77 473.12,-154.93 389.8,-143.87"/>
<polygon fill="midnightblue" stroke="midnightblue" points="390.02,-140.37 379.65,-142.52 389.1,-147.31 390.02,-140.37"/>
</g>
<!-- Node32 -->
<g id="node7" class="node">
<title>Node32</title>
<g id="a_node7"><a xlink:href="serializer_8h.html" target="_top" xlink:title=" ">
<polygon fill="white" stroke="black" points="681.5,-123.5 681.5,-142.5 845.5,-142.5 845.5,-123.5 681.5,-123.5"/>
<text text-anchor="middle" x="763.5" y="-130.5" font-family="Helvetica,sans-Serif" font-size="10.00">emlabcpp/protocol/serializer.h</text>
</a>
</g>
</g>
<!-- Node1&#45;&gt;Node32 -->
<g id="edge6" class="edge">
<title>Node1&#45;&gt;Node32</title>
<path fill="none" stroke="midnightblue" d="M763.5,-179.4C763.5,-171.47 763.5,-161.46 763.5,-152.86"/>
<polygon fill="midnightblue" stroke="midnightblue" points="767,-152.66 763.5,-142.66 760,-152.66 767,-152.66"/>
</g>
<!-- Node43 -->
<g id="node13" class="node">
<title>Node43</title>
<g id="a_node13"><a xlink:href="tuple_8h.html" target="_top" xlink:title=" ">
<polygon fill="white" stroke="black" points="879.5,-123.5 879.5,-142.5 1023.5,-142.5 1023.5,-123.5 879.5,-123.5"/>
<text text-anchor="middle" x="951.5" y="-130.5" font-family="Helvetica,sans-Serif" font-size="10.00">emlabcpp/protocol/tuple.h</text>
</a>
</g>
</g>
<!-- Node1&#45;&gt;Node43 -->
<g id="edge12" class="edge">
<title>Node1&#45;&gt;Node43</title>
<path fill="none" stroke="midnightblue" d="M808.05,-179.4C840.54,-169.12 884.04,-155.35 914.59,-145.68"/>
<polygon fill="midnightblue" stroke="midnightblue" points="915.94,-148.93 924.42,-142.57 913.83,-142.25 915.94,-148.93"/>
</g>
<!-- Node3 -->
<g id="node3" class="node">
<title>Node3</title>
<g id="a_node3"><a xlink:href="assert_8h.html" target="_top" xlink:title=" ">
<polygon fill="white" stroke="red" points="0,-62 0,-81 107,-81 107,-62 0,-62"/>
<text text-anchor="middle" x="53.5" y="-69" font-family="Helvetica,sans-Serif" font-size="10.00">emlabcpp/assert.h</text>
</a>
</g>
</g>
<!-- Node2&#45;&gt;Node3 -->
<g id="edge2" class="edge">
<title>Node2&#45;&gt;Node3</title>
<path fill="none" stroke="midnightblue" d="M277.71,-123.5C237.67,-114.48 172.62,-99.8 116.5,-87 111.23,-85.8 105.72,-84.54 100.24,-83.28"/>
<polygon fill="midnightblue" stroke="midnightblue" points="101,-79.86 90.47,-81.03 99.43,-86.68 101,-79.86"/>
</g>
<!-- Node5 -->
<g id="node4" class="node">
<title>Node5</title>
<g id="a_node4"><a xlink:href="either_8h.html" target="_top" xlink:title=" ">
<polygon fill="white" stroke="red" points="125.5,-62 125.5,-81 229.5,-81 229.5,-62 125.5,-62"/>
<text text-anchor="middle" x="177.5" y="-69" font-family="Helvetica,sans-Serif" font-size="10.00">emlabcpp/either.h</text>
</a>
</g>
</g>
<!-- Node2&#45;&gt;Node5 -->
<g id="edge3" class="edge">
<title>Node2&#45;&gt;Node5</title>
<path fill="none" stroke="midnightblue" d="M295.73,-123.48C272.36,-113.4 233.29,-96.55 206.5,-85"/>
<polygon fill="midnightblue" stroke="midnightblue" points="207.8,-81.75 197.24,-81.01 205.03,-88.18 207.8,-81.75"/>
</g>
<!-- Node30 -->
<g id="node5" class="node">
<title>Node30</title>
<g id="a_node5"><a xlink:href="static__circular__buffer_8h.html" target="_top" xlink:title=" ">
<polygon fill="white" stroke="red" points="247.5,-56.5 247.5,-86.5 383.5,-86.5 383.5,-56.5 247.5,-56.5"/>
<text text-anchor="start" x="255.5" y="-74.5" font-family="Helvetica,sans-Serif" font-size="10.00">emlabcpp/static_circular</text>
<text text-anchor="middle" x="315.5" y="-63.5" font-family="Helvetica,sans-Serif" font-size="10.00">_buffer.h</text>
</a>
</g>
</g>
<!-- Node2&#45;&gt;Node30 -->
<g id="edge4" class="edge">
<title>Node2&#45;&gt;Node30</title>
<path fill="none" stroke="midnightblue" d="M315.5,-123.48C315.5,-116.47 315.5,-106.19 315.5,-96.7"/>
<polygon fill="midnightblue" stroke="midnightblue" points="319,-96.52 315.5,-86.52 312,-96.52 319,-96.52"/>
</g>
<!-- Node9 -->
<g id="node6" class="node">
<title>Node9</title>
<g id="a_node6"><a xlink:title=" ">
<polygon fill="white" stroke="#bfbfbf" points="401.5,-62 401.5,-81 443.5,-81 443.5,-62 401.5,-62"/>
<text text-anchor="middle" x="422.5" y="-69" font-family="Helvetica,sans-Serif" font-size="10.00">array</text>
</a>
</g>
</g>
<!-- Node2&#45;&gt;Node9 -->
<g id="edge5" class="edge">
<title>Node2&#45;&gt;Node9</title>
<path fill="none" stroke="midnightblue" d="M330.83,-123.48C348.47,-113.67 377.66,-97.43 398.36,-85.92"/>
<polygon fill="midnightblue" stroke="midnightblue" points="400.16,-88.93 407.2,-81.01 396.76,-82.81 400.16,-88.93"/>
</g>
<!-- Node33 -->
<g id="node8" class="node">
<title>Node33</title>
<g id="a_node8"><a xlink:href="bounded__view_8h.html" target="_top" xlink:title=" ">
<polygon fill="white" stroke="red" points="461.5,-62 461.5,-81 607.5,-81 607.5,-62 461.5,-62"/>
<text text-anchor="middle" x="534.5" y="-69" font-family="Helvetica,sans-Serif" font-size="10.00">emlabcpp/bounded_view.h</text>
</a>
</g>
</g>
<!-- Node32&#45;&gt;Node33 -->
<g id="edge7" class="edge">
<title>Node32&#45;&gt;Node33</title>
<path fill="none" stroke="midnightblue" d="M730.69,-123.48C690.3,-112.98 621.62,-95.14 577.17,-83.59"/>
<polygon fill="midnightblue" stroke="midnightblue" points="577.81,-80.14 567.25,-81.01 576.05,-86.91 577.81,-80.14"/>
</g>
<!-- Node35 -->
<g id="node9" class="node">
<title>Node35</title>
<g id="a_node9"><a xlink:href="numeric_8h.html" target="_top" xlink:title=" ">
<polygon fill="white" stroke="red" points="626,-56.5 626,-86.5 735,-86.5 735,-56.5 626,-56.5"/>
<text text-anchor="start" x="634" y="-74.5" font-family="Helvetica,sans-Serif" font-size="10.00">emlabcpp/iterators</text>
<text text-anchor="middle" x="680.5" y="-63.5" font-family="Helvetica,sans-Serif" font-size="10.00">/numeric.h</text>
</a>
</g>
</g>
<!-- Node32&#45;&gt;Node35 -->
<g id="edge8" class="edge">
<title>Node32&#45;&gt;Node35</title>
<path fill="none" stroke="midnightblue" d="M751.61,-123.48C740.37,-115.42 723.08,-103.02 708.36,-92.47"/>
<polygon fill="midnightblue" stroke="midnightblue" points="710.23,-89.5 700.06,-86.52 706.15,-95.19 710.23,-89.5"/>
</g>
<!-- Node36 -->
<g id="node10" class="node">
<title>Node36</title>
<g id="a_node10"><a xlink:href="protocol_2base_8h.html" target="_top" xlink:title=" ">
<polygon fill="white" stroke="red" points="794,-0.5 794,-19.5 937,-19.5 937,-0.5 794,-0.5"/>
<text text-anchor="middle" x="865.5" y="-7.5" font-family="Helvetica,sans-Serif" font-size="10.00">emlabcpp/protocol/base.h</text>
</a>
</g>
</g>
<!-- Node32&#45;&gt;Node36 -->
<g id="edge9" class="edge">
<title>Node32&#45;&gt;Node36</title>
<path fill="none" stroke="midnightblue" d="M763.49,-123.04C763.93,-107.72 766.83,-76.21 782.5,-56 794,-41.16 811.82,-30.6 828.01,-23.45"/>
<polygon fill="midnightblue" stroke="midnightblue" points="829.37,-26.67 837.29,-19.63 826.71,-20.2 829.37,-26.67"/>
</g>
<!-- Node41 -->
<g id="node11" class="node">
<title>Node41</title>
<g id="a_node11"><a xlink:title=" ">
<polygon fill="white" stroke="#bfbfbf" points="792,-62 792,-81 821,-81 821,-62 792,-62"/>
<text text-anchor="middle" x="806.5" y="-69" font-family="Helvetica,sans-Serif" font-size="10.00">bit</text>
</a>
</g>
</g>
<!-- Node32&#45;&gt;Node41 -->
<g id="edge10" class="edge">
<title>Node32&#45;&gt;Node41</title>
<path fill="none" stroke="midnightblue" d="M769.66,-123.48C776.11,-114.55 786.4,-100.31 794.47,-89.14"/>
<polygon fill="midnightblue" stroke="midnightblue" points="797.33,-91.16 800.35,-81.01 791.66,-87.06 797.33,-91.16"/>
</g>
<!-- Node42 -->
<g id="node12" class="node">
<title>Node42</title>
<g id="a_node12"><a xlink:title=" ">
<polygon fill="white" stroke="#bfbfbf" points="839.5,-62 839.5,-81 879.5,-81 879.5,-62 839.5,-62"/>
<text text-anchor="middle" x="859.5" y="-69" font-family="Helvetica,sans-Serif" font-size="10.00">span</text>
</a>
</g>
</g>
<!-- Node32&#45;&gt;Node42 -->
<g id="edge11" class="edge">
<title>Node32&#45;&gt;Node42</title>
<path fill="none" stroke="midnightblue" d="M777.25,-123.48C792.87,-113.8 818.56,-97.87 837.08,-86.39"/>
<polygon fill="midnightblue" stroke="midnightblue" points="839.12,-89.25 845.77,-81.01 835.43,-83.3 839.12,-89.25"/>
</g>
<!-- Node44 -->
<g id="node14" class="node">
<title>Node44</title>
<g id="a_node14"><a xlink:href="decl_8h.html" target="_top" xlink:title=" ">
<polygon fill="white" stroke="red" points="897.5,-62 897.5,-81 1037.5,-81 1037.5,-62 897.5,-62"/>
<text text-anchor="middle" x="967.5" y="-69" font-family="Helvetica,sans-Serif" font-size="10.00">emlabcpp/protocol/decl.h</text>
</a>
</g>
</g>
<!-- Node43&#45;&gt;Node44 -->
<g id="edge13" class="edge">
<title>Node43&#45;&gt;Node44</title>
<path fill="none" stroke="midnightblue" d="M953.79,-123.48C956.07,-114.99 959.65,-101.7 962.57,-90.82"/>
<polygon fill="midnightblue" stroke="midnightblue" points="965.99,-91.57 965.21,-81.01 959.24,-89.76 965.99,-91.57"/>
</g>
<!-- Node44&#45;&gt;Node36 -->
<g id="edge14" class="edge">
<title>Node44&#45;&gt;Node36</title>
<path fill="none" stroke="midnightblue" d="M952.89,-61.98C936.15,-52.21 908.5,-36.08 888.78,-24.58"/>
<polygon fill="midnightblue" stroke="midnightblue" points="890.49,-21.52 880.09,-19.51 886.96,-27.57 890.49,-21.52"/>
</g>
</g>
</svg>
