<?xml version="1.0" encoding="UTF-8" standalone="no"?>
<!DOCTYPE svg PUBLIC "-//W3C//DTD SVG 1.1//EN"
 "http://www.w3.org/Graphics/SVG/1.1/DTD/svg11.dtd">
<!-- Generated by graphviz version 2.43.0 (0)
 -->
<!-- Title: include/emlabcpp/protocol/packet.h Pages: 1 -->
<svg width="1002pt" height="285pt"
 viewBox="0.00 0.00 1001.50 285.00" xmlns="http://www.w3.org/2000/svg" xmlns:xlink="http://www.w3.org/1999/xlink">
<g id="graph0" class="graph" transform="scale(1 1) rotate(0) translate(4 281)">
<title>include/emlabcpp/protocol/packet.h</title>
<polygon fill="white" stroke="transparent" points="-4,4 -4,-281 997.5,-281 997.5,4 -4,4"/>
<!-- Node1 -->
<g id="node1" class="node">
<title>Node1</title>
<g id="a_node1"><a xlink:title=" ">
<polygon fill="#bfbfbf" stroke="black" points="499.5,-246.5 499.5,-276.5 645.5,-276.5 645.5,-246.5 499.5,-246.5"/>
<text text-anchor="start" x="507.5" y="-264.5" font-family="Helvetica,sans-Serif" font-size="10.00">include/emlabcpp/protocol</text>
<text text-anchor="middle" x="572.5" y="-253.5" font-family="Helvetica,sans-Serif" font-size="10.00">/packet.h</text>
</a>
</g>
</g>
<!-- Node2 -->
<g id="node2" class="node">
<title>Node2</title>
<g id="a_node2"><a xlink:href="sequencer_8h.html" target="_top" xlink:title=" ">
<polygon fill="white" stroke="black" points="221,-190.5 221,-209.5 390,-209.5 390,-190.5 221,-190.5"/>
<text text-anchor="middle" x="305.5" y="-197.5" font-family="Helvetica,sans-Serif" font-size="10.00">emlabcpp/protocol/sequencer.h</text>
</a>
</g>
</g>
<!-- Node1&#45;&gt;Node2 -->
<g id="edge1" class="edge">
<title>Node1&#45;&gt;Node2</title>
<path fill="none" stroke="midnightblue" d="M509.56,-246.47C461.79,-235.83 397.1,-221.41 353.47,-211.69"/>
<polygon fill="midnightblue" stroke="midnightblue" points="354.19,-208.27 343.67,-209.51 352.67,-215.1 354.19,-208.27"/>
</g>
<!-- Node37 -->
<g id="node8" class="node">
<title>Node37</title>
<g id="a_node8"><a xlink:href="serializer_8h.html" target="_top" xlink:title=" ">
<polygon fill="white" stroke="black" points="702.5,-129 702.5,-148 866.5,-148 866.5,-129 702.5,-129"/>
<text text-anchor="middle" x="784.5" y="-136" font-family="Helvetica,sans-Serif" font-size="10.00">emlabcpp/protocol/serializer.h</text>
</a>
</g>
</g>
<!-- Node1&#45;&gt;Node37 -->
<g id="edge7" class="edge">
<title>Node1&#45;&gt;Node37</title>
<path fill="none" stroke="midnightblue" d="M597.23,-246.38C638.29,-222.95 719.99,-176.32 760.53,-153.18"/>
<polygon fill="midnightblue" stroke="midnightblue" points="762.5,-156.09 769.45,-148.09 759.03,-150.01 762.5,-156.09"/>
</g>
<!-- Node50 -->
<g id="node14" class="node">
<title>Node50</title>
<g id="a_node14"><a xlink:href="tuple_8h.html" target="_top" xlink:title=" ">
<polygon fill="white" stroke="black" points="500.5,-190.5 500.5,-209.5 644.5,-209.5 644.5,-190.5 500.5,-190.5"/>
<text text-anchor="middle" x="572.5" y="-197.5" font-family="Helvetica,sans-Serif" font-size="10.00">emlabcpp/protocol/tuple.h</text>
</a>
</g>
</g>
<!-- Node1&#45;&gt;Node50 -->
<g id="edge14" class="edge">
<title>Node1&#45;&gt;Node50</title>
<path fill="none" stroke="midnightblue" d="M572.5,-246.4C572.5,-238.47 572.5,-228.46 572.5,-219.86"/>
<polygon fill="midnightblue" stroke="midnightblue" points="576,-219.66 572.5,-209.66 569,-219.66 576,-219.66"/>
</g>
<!-- Node3 -->
<g id="node3" class="node">
<title>Node3</title>
<g id="a_node3"><a xlink:href="assert_8h.html" target="_top" xlink:title=" ">
<polygon fill="white" stroke="red" points="0,-129 0,-148 107,-148 107,-129 0,-129"/>
<text text-anchor="middle" x="53.5" y="-136" font-family="Helvetica,sans-Serif" font-size="10.00">emlabcpp/assert.h</text>
</a>
</g>
</g>
<!-- Node2&#45;&gt;Node3 -->
<g id="edge2" class="edge">
<title>Node2&#45;&gt;Node3</title>
<path fill="none" stroke="midnightblue" d="M269.39,-190.48C224.67,-179.92 148.42,-161.91 99.53,-150.37"/>
<polygon fill="midnightblue" stroke="midnightblue" points="100.08,-146.9 89.54,-148.01 98.47,-153.71 100.08,-146.9"/>
</g>
<!-- Node5 -->
<g id="node4" class="node">
<title>Node5</title>
<g id="a_node4"><a xlink:href="either_8h.html" target="_top" xlink:title=" ">
<polygon fill="white" stroke="red" points="125.5,-129 125.5,-148 229.5,-148 229.5,-129 125.5,-129"/>
<text text-anchor="middle" x="177.5" y="-136" font-family="Helvetica,sans-Serif" font-size="10.00">emlabcpp/either.h</text>
</a>
</g>
</g>
<!-- Node2&#45;&gt;Node5 -->
<g id="edge3" class="edge">
<title>Node2&#45;&gt;Node5</title>
<path fill="none" stroke="midnightblue" d="M287.16,-190.48C265.68,-180.49 229.88,-163.85 205.05,-152.31"/>
<polygon fill="midnightblue" stroke="midnightblue" points="206.35,-149.05 195.81,-148.01 203.4,-155.4 206.35,-149.05"/>
</g>
<!-- Node31 -->
<g id="node5" class="node">
<title>Node31</title>
<g id="a_node5"><a xlink:href="quantity_8h.html" target="_top" xlink:title=" ">
<polygon fill="white" stroke="red" points="302.5,-62 302.5,-81 418.5,-81 418.5,-62 302.5,-62"/>
<text text-anchor="middle" x="360.5" y="-69" font-family="Helvetica,sans-Serif" font-size="10.00">emlabcpp/quantity.h</text>
</a>
</g>
</g>
<!-- Node2&#45;&gt;Node31 -->
<g id="edge4" class="edge">
<title>Node2&#45;&gt;Node31</title>
<path fill="none" stroke="midnightblue" d="M297.28,-190.19C284.74,-175.62 263.57,-145.86 276.5,-123 286.54,-105.25 305.58,-93.06 323,-85.1"/>
<polygon fill="midnightblue" stroke="midnightblue" points="324.59,-88.23 332.44,-81.11 321.87,-81.78 324.59,-88.23"/>
</g>
<!-- Node36 -->
<g id="node6" class="node">
<title>Node36</title>
<g id="a_node6"><a xlink:href="static__circular__buffer_8h.html" target="_top" xlink:title=" ">
<polygon fill="white" stroke="red" points="285.5,-123.5 285.5,-153.5 421.5,-153.5 421.5,-123.5 285.5,-123.5"/>
<text text-anchor="start" x="293.5" y="-141.5" font-family="Helvetica,sans-Serif" font-size="10.00">emlabcpp/static_circular</text>
<text text-anchor="middle" x="353.5" y="-130.5" font-family="Helvetica,sans-Serif" font-size="10.00">_buffer.h</text>
</a>
</g>
</g>
<!-- Node2&#45;&gt;Node36 -->
<g id="edge5" class="edge">
<title>Node2&#45;&gt;Node36</title>
<path fill="none" stroke="midnightblue" d="M312.38,-190.48C318.45,-182.94 327.58,-171.63 335.7,-161.57"/>
<polygon fill="midnightblue" stroke="midnightblue" points="338.63,-163.5 342.19,-153.52 333.18,-159.11 338.63,-163.5"/>
</g>
<!-- Node9 -->
<g id="node7" class="node">
<title>Node9</title>
<g id="a_node7"><a xlink:title=" ">
<polygon fill="white" stroke="#bfbfbf" points="439.5,-129 439.5,-148 481.5,-148 481.5,-129 439.5,-129"/>
<text text-anchor="middle" x="460.5" y="-136" font-family="Helvetica,sans-Serif" font-size="10.00">array</text>
</a>
</g>
</g>
<!-- Node2&#45;&gt;Node9 -->
<g id="edge6" class="edge">
<title>Node2&#45;&gt;Node9</title>
<path fill="none" stroke="midnightblue" d="M331.66,-190.47C357.16,-181.95 396.9,-168.12 430.5,-154 431.7,-153.5 432.92,-152.97 434.15,-152.42"/>
<polygon fill="midnightblue" stroke="midnightblue" points="435.9,-155.47 443.51,-148.09 432.96,-149.12 435.9,-155.47"/>
</g>
<!-- Node38 -->
<g id="node9" class="node">
<title>Node38</title>
<g id="a_node9"><a xlink:href="bounded__view_8h.html" target="_top" xlink:title=" ">
<polygon fill="white" stroke="red" points="642,-56.5 642,-86.5 775,-86.5 775,-56.5 642,-56.5"/>
<text text-anchor="start" x="650" y="-74.5" font-family="Helvetica,sans-Serif" font-size="10.00">emlabcpp/experimental</text>
<text text-anchor="middle" x="708.5" y="-63.5" font-family="Helvetica,sans-Serif" font-size="10.00">/bounded_view.h</text>
</a>
</g>
</g>
<!-- Node37&#45;&gt;Node38 -->
<g id="edge8" class="edge">
<title>Node37&#45;&gt;Node38</title>
<path fill="none" stroke="midnightblue" d="M774.25,-128.73C763.68,-119.7 746.82,-105.27 732.82,-93.3"/>
<polygon fill="midnightblue" stroke="midnightblue" points="734.85,-90.43 724.97,-86.59 730.3,-95.75 734.85,-90.43"/>
</g>
<!-- Node42 -->
<g id="node10" class="node">
<title>Node42</title>
<g id="a_node10"><a xlink:href="protocol_2base_8h.html" target="_top" xlink:title=" ">
<polygon fill="white" stroke="red" points="481,-62 481,-81 624,-81 624,-62 481,-62"/>
<text text-anchor="middle" x="552.5" y="-69" font-family="Helvetica,sans-Serif" font-size="10.00">emlabcpp/protocol/base.h</text>
</a>
</g>
</g>
<!-- Node37&#45;&gt;Node42 -->
<g id="edge9" class="edge">
<title>Node37&#45;&gt;Node42</title>
<path fill="none" stroke="midnightblue" d="M753.69,-128.87C712.32,-117.28 638.74,-96.66 592.95,-83.83"/>
<polygon fill="midnightblue" stroke="midnightblue" points="593.64,-80.39 583.07,-81.06 591.75,-87.13 593.64,-80.39"/>
</g>
<!-- Node45 -->
<g id="node11" class="node">
<title>Node45</title>
<g id="a_node11"><a xlink:title=" ">
<polygon fill="white" stroke="#bfbfbf" points="663,-0.5 663,-19.5 692,-19.5 692,-0.5 663,-0.5"/>
<text text-anchor="middle" x="677.5" y="-7.5" font-family="Helvetica,sans-Serif" font-size="10.00">bit</text>
</a>
</g>
</g>
<!-- Node37&#45;&gt;Node45 -->
<g id="edge12" class="edge">
<title>Node37&#45;&gt;Node45</title>
<path fill="none" stroke="midnightblue" d="M787.39,-128.76C792.09,-112.8 799.45,-78.51 784.5,-56 766.25,-28.53 727.62,-17.79 702.11,-13.62"/>
<polygon fill="midnightblue" stroke="midnightblue" points="702.48,-10.14 692.08,-12.2 701.5,-17.07 702.48,-10.14"/>
</g>
<!-- Node48 -->
<g id="node12" class="node">
<title>Node48</title>
<g id="a_node12"><a xlink:href="range_8h.html" target="_top" xlink:title=" ">
<polygon fill="white" stroke="red" points="831.5,-62 831.5,-81 935.5,-81 935.5,-62 831.5,-62"/>
<text text-anchor="middle" x="883.5" y="-69" font-family="Helvetica,sans-Serif" font-size="10.00">emlabcpp/range.h</text>
</a>
</g>
</g>
<!-- Node37&#45;&gt;Node48 -->
<g id="edge11" class="edge">
<title>Node37&#45;&gt;Node48</title>
<path fill="none" stroke="midnightblue" d="M797.85,-128.73C814.25,-117.96 842.3,-99.55 861.81,-86.74"/>
<polygon fill="midnightblue" stroke="midnightblue" points="863.92,-89.54 870.36,-81.13 860.08,-83.69 863.92,-89.54"/>
</g>
<!-- Node27 -->
<g id="node13" class="node">
<title>Node27</title>
<g id="a_node13"><a xlink:title=" ">
<polygon fill="white" stroke="#bfbfbf" points="953.5,-62 953.5,-81 993.5,-81 993.5,-62 953.5,-62"/>
<text text-anchor="middle" x="973.5" y="-69" font-family="Helvetica,sans-Serif" font-size="10.00">span</text>
</a>
</g>
</g>
<!-- Node37&#45;&gt;Node27 -->
<g id="edge13" class="edge">
<title>Node37&#45;&gt;Node27</title>
<path fill="none" stroke="midnightblue" d="M816.59,-128.98C849.28,-119.94 901.17,-104.54 944.5,-87 945.7,-86.51 946.93,-86 948.15,-85.46"/>
<polygon fill="midnightblue" stroke="midnightblue" points="949.89,-88.51 957.45,-81.09 946.91,-82.17 949.89,-88.51"/>
</g>
<!-- Node42&#45;&gt;Node45 -->
<g id="edge10" class="edge">
<title>Node42&#45;&gt;Node45</title>
<path fill="none" stroke="midnightblue" d="M570.41,-61.98C592.24,-51.58 629.23,-33.98 653.51,-22.42"/>
<polygon fill="midnightblue" stroke="midnightblue" points="655.22,-25.48 662.75,-18.02 652.21,-19.16 655.22,-25.48"/>
</g>
<!-- Node51 -->
<g id="node15" class="node">
<title>Node51</title>
<g id="a_node15"><a xlink:href="traits_8h.html" target="_top" xlink:title=" ">
<polygon fill="white" stroke="red" points="500,-129 500,-148 645,-148 645,-129 500,-129"/>
<text text-anchor="middle" x="572.5" y="-136" font-family="Helvetica,sans-Serif" font-size="10.00">emlabcpp/protocol/traits.h</text>
</a>
</g>
</g>
<!-- Node50&#45;&gt;Node51 -->
<g id="edge15" class="edge">
<title>Node50&#45;&gt;Node51</title>
<path fill="none" stroke="midnightblue" d="M572.5,-190.48C572.5,-182.08 572.5,-168.98 572.5,-158.16"/>
<polygon fill="midnightblue" stroke="midnightblue" points="576,-158.01 572.5,-148.01 569,-158.01 576,-158.01"/>
</g>
<!-- Node51&#45;&gt;Node31 -->
<g id="edge17" class="edge">
<title>Node51&#45;&gt;Node31</title>
<path fill="none" stroke="midnightblue" d="M544.35,-128.87C506.71,-117.33 439.87,-96.84 397.99,-84"/>
<polygon fill="midnightblue" stroke="midnightblue" points="399.02,-80.65 388.43,-81.06 396.97,-87.34 399.02,-80.65"/>
</g>
<!-- Node51&#45;&gt;Node42 -->
<g id="edge16" class="edge">
<title>Node51&#45;&gt;Node42</title>
<path fill="none" stroke="midnightblue" d="M569.8,-128.73C566.83,-119.09 561.98,-103.3 558.16,-90.91"/>
<polygon fill="midnightblue" stroke="midnightblue" points="561.44,-89.66 555.15,-81.13 554.75,-91.71 561.44,-89.66"/>
</g>
</g>
</svg>
