<?xml version="1.0" encoding="UTF-8" standalone="no"?>
<!DOCTYPE svg PUBLIC "-//W3C//DTD SVG 1.1//EN"
 "http://www.w3.org/Graphics/SVG/1.1/DTD/svg11.dtd">
<!-- Generated by graphviz version 2.43.0 (0)
 -->
<!-- Title: include/emlabcpp/protocol/packet.h Pages: 1 -->
<svg width="996pt" height="285pt"
 viewBox="0.00 0.00 995.50 285.00" xmlns="http://www.w3.org/2000/svg" xmlns:xlink="http://www.w3.org/1999/xlink">
<g id="graph0" class="graph" transform="scale(1 1) rotate(0) translate(4 281)">
<title>include/emlabcpp/protocol/packet.h</title>
<polygon fill="white" stroke="transparent" points="-4,4 -4,-281 991.5,-281 991.5,4 -4,4"/>
<!-- Node1 -->
<g id="node1" class="node">
<title>Node1</title>
<g id="a_node1"><a xlink:title=" ">
<polygon fill="#bfbfbf" stroke="black" points="499.5,-246.5 499.5,-276.5 645.5,-276.5 645.5,-246.5 499.5,-246.5"/>
<text text-anchor="start" x="507.5" y="-264.5" font-family="Helvetica,sans-Serif" font-size="10.00">include/emlabcpp/protocol</text>
<text text-anchor="middle" x="572.5" y="-253.5" font-family="Helvetica,sans-Serif" font-size="10.00">/packet.h</text>
</a>
</g>
</g>
<!-- Node2 -->
<g id="node2" class="node">
<title>Node2</title>
<g id="a_node2"><a xlink:href="sequencer_8h.html" target="_top" xlink:title=" ">
<polygon fill="white" stroke="black" points="221,-190.5 221,-209.5 390,-209.5 390,-190.5 221,-190.5"/>
<text text-anchor="middle" x="305.5" y="-197.5" font-family="Helvetica,sans-Serif" font-size="10.00">emlabcpp/protocol/sequencer.h</text>
</a>
</g>
</g>
<!-- Node1&#45;&gt;Node2 -->
<g id="edge1" class="edge">
<title>Node1&#45;&gt;Node2</title>
<path fill="none" stroke="midnightblue" d="M509.56,-246.47C461.79,-235.83 397.1,-221.41 353.47,-211.69"/>
<polygon fill="midnightblue" stroke="midnightblue" points="354.19,-208.27 343.67,-209.51 352.67,-215.1 354.19,-208.27"/>
</g>
<!-- Node39 -->
<g id="node8" class="node">
<title>Node39</title>
<g id="a_node8"><a xlink:href="serializer_8h.html" target="_top" xlink:title=" ">
<polygon fill="white" stroke="black" points="724.5,-129 724.5,-148 888.5,-148 888.5,-129 724.5,-129"/>
<text text-anchor="middle" x="806.5" y="-136" font-family="Helvetica,sans-Serif" font-size="10.00">emlabcpp/protocol/serializer.h</text>
</a>
</g>
</g>
<!-- Node1&#45;&gt;Node39 -->
<g id="edge7" class="edge">
<title>Node1&#45;&gt;Node39</title>
<path fill="none" stroke="midnightblue" d="M599.8,-246.38C645.4,-222.8 736.44,-175.73 780.89,-152.74"/>
<polygon fill="midnightblue" stroke="midnightblue" points="782.61,-155.79 789.88,-148.09 779.39,-149.58 782.61,-155.79"/>
</g>
<!-- Node51 -->
<g id="node14" class="node">
<title>Node51</title>
<g id="a_node14"><a xlink:href="tuple_8h.html" target="_top" xlink:title=" ">
<polygon fill="white" stroke="black" points="500.5,-190.5 500.5,-209.5 644.5,-209.5 644.5,-190.5 500.5,-190.5"/>
<text text-anchor="middle" x="572.5" y="-197.5" font-family="Helvetica,sans-Serif" font-size="10.00">emlabcpp/protocol/tuple.h</text>
</a>
</g>
</g>
<!-- Node1&#45;&gt;Node51 -->
<g id="edge14" class="edge">
<title>Node1&#45;&gt;Node51</title>
<path fill="none" stroke="midnightblue" d="M572.5,-246.4C572.5,-238.47 572.5,-228.46 572.5,-219.86"/>
<polygon fill="midnightblue" stroke="midnightblue" points="576,-219.66 572.5,-209.66 569,-219.66 576,-219.66"/>
</g>
<!-- Node3 -->
<g id="node3" class="node">
<title>Node3</title>
<g id="a_node3"><a xlink:href="assert_8h.html" target="_top" xlink:title=" ">
<polygon fill="white" stroke="red" points="0,-129 0,-148 107,-148 107,-129 0,-129"/>
<text text-anchor="middle" x="53.5" y="-136" font-family="Helvetica,sans-Serif" font-size="10.00">emlabcpp/assert.h</text>
</a>
</g>
</g>
<!-- Node2&#45;&gt;Node3 -->
<g id="edge2" class="edge">
<title>Node2&#45;&gt;Node3</title>
<path fill="none" stroke="midnightblue" d="M269.39,-190.48C224.67,-179.92 148.42,-161.91 99.53,-150.37"/>
<polygon fill="midnightblue" stroke="midnightblue" points="100.08,-146.9 89.54,-148.01 98.47,-153.71 100.08,-146.9"/>
</g>
<!-- Node5 -->
<g id="node4" class="node">
<title>Node5</title>
<g id="a_node4"><a xlink:href="either_8h.html" target="_top" xlink:title=" ">
<polygon fill="white" stroke="red" points="125.5,-129 125.5,-148 229.5,-148 229.5,-129 125.5,-129"/>
<text text-anchor="middle" x="177.5" y="-136" font-family="Helvetica,sans-Serif" font-size="10.00">emlabcpp/either.h</text>
</a>
</g>
</g>
<!-- Node2&#45;&gt;Node5 -->
<g id="edge3" class="edge">
<title>Node2&#45;&gt;Node5</title>
<path fill="none" stroke="midnightblue" d="M287.16,-190.48C265.68,-180.49 229.88,-163.85 205.05,-152.31"/>
<polygon fill="midnightblue" stroke="midnightblue" points="206.35,-149.05 195.81,-148.01 203.4,-155.4 206.35,-149.05"/>
</g>
<!-- Node33 -->
<g id="node5" class="node">
<title>Node33</title>
<g id="a_node5"><a xlink:href="quantity_8h.html" target="_top" xlink:title=" ">
<polygon fill="white" stroke="red" points="313.5,-62 313.5,-81 429.5,-81 429.5,-62 313.5,-62"/>
<text text-anchor="middle" x="371.5" y="-69" font-family="Helvetica,sans-Serif" font-size="10.00">emlabcpp/quantity.h</text>
</a>
</g>
</g>
<!-- Node2&#45;&gt;Node33 -->
<g id="edge4" class="edge">
<title>Node2&#45;&gt;Node33</title>
<path fill="none" stroke="midnightblue" d="M297.15,-190.11C284.41,-175.43 262.97,-145.52 276.5,-123 287.69,-104.37 308.33,-92.25 327.52,-84.56"/>
<polygon fill="midnightblue" stroke="midnightblue" points="328.9,-87.78 337.07,-81.03 326.48,-81.21 328.9,-87.78"/>
</g>
<!-- Node38 -->
<g id="node6" class="node">
<title>Node38</title>
<g id="a_node6"><a xlink:href="static__circular__buffer_8h.html" target="_top" xlink:title=" ">
<polygon fill="white" stroke="red" points="285.5,-123.5 285.5,-153.5 421.5,-153.5 421.5,-123.5 285.5,-123.5"/>
<text text-anchor="start" x="293.5" y="-141.5" font-family="Helvetica,sans-Serif" font-size="10.00">emlabcpp/static_circular</text>
<text text-anchor="middle" x="353.5" y="-130.5" font-family="Helvetica,sans-Serif" font-size="10.00">_buffer.h</text>
</a>
</g>
</g>
<!-- Node2&#45;&gt;Node38 -->
<g id="edge5" class="edge">
<title>Node2&#45;&gt;Node38</title>
<path fill="none" stroke="midnightblue" d="M312.38,-190.48C318.45,-182.94 327.58,-171.63 335.7,-161.57"/>
<polygon fill="midnightblue" stroke="midnightblue" points="338.63,-163.5 342.19,-153.52 333.18,-159.11 338.63,-163.5"/>
</g>
<!-- Node9 -->
<g id="node7" class="node">
<title>Node9</title>
<g id="a_node7"><a xlink:title=" ">
<polygon fill="white" stroke="#bfbfbf" points="439.5,-129 439.5,-148 481.5,-148 481.5,-129 439.5,-129"/>
<text text-anchor="middle" x="460.5" y="-136" font-family="Helvetica,sans-Serif" font-size="10.00">array</text>
</a>
</g>
</g>
<!-- Node2&#45;&gt;Node9 -->
<g id="edge6" class="edge">
<title>Node2&#45;&gt;Node9</title>
<path fill="none" stroke="midnightblue" d="M331.66,-190.47C357.16,-181.95 396.9,-168.12 430.5,-154 431.7,-153.5 432.92,-152.97 434.15,-152.42"/>
<polygon fill="midnightblue" stroke="midnightblue" points="435.9,-155.47 443.51,-148.09 432.96,-149.12 435.9,-155.47"/>
</g>
<!-- Node40 -->
<g id="node9" class="node">
<title>Node40</title>
<g id="a_node9"><a xlink:href="bounded__view_8h.html" target="_top" xlink:title=" ">
<polygon fill="white" stroke="red" points="631,-56.5 631,-86.5 764,-86.5 764,-56.5 631,-56.5"/>
<text text-anchor="start" x="639" y="-74.5" font-family="Helvetica,sans-Serif" font-size="10.00">emlabcpp/experimental</text>
<text text-anchor="middle" x="697.5" y="-63.5" font-family="Helvetica,sans-Serif" font-size="10.00">/bounded_view.h</text>
</a>
</g>
</g>
<!-- Node39&#45;&gt;Node40 -->
<g id="edge8" class="edge">
<title>Node39&#45;&gt;Node40</title>
<path fill="none" stroke="midnightblue" d="M791.8,-128.73C776.01,-119.32 750.41,-104.05 729.87,-91.8"/>
<polygon fill="midnightblue" stroke="midnightblue" points="731.51,-88.7 721.13,-86.59 727.92,-94.72 731.51,-88.7"/>
</g>
<!-- Node44 -->
<g id="node10" class="node">
<title>Node44</title>
<g id="a_node10"><a xlink:href="numeric_8h.html" target="_top" xlink:title=" ">
<polygon fill="white" stroke="red" points="782,-56.5 782,-86.5 891,-86.5 891,-56.5 782,-56.5"/>
<text text-anchor="start" x="790" y="-74.5" font-family="Helvetica,sans-Serif" font-size="10.00">emlabcpp/iterators</text>
<text text-anchor="middle" x="836.5" y="-63.5" font-family="Helvetica,sans-Serif" font-size="10.00">/numeric.h</text>
</a>
</g>
</g>
<!-- Node39&#45;&gt;Node44 -->
<g id="edge9" class="edge">
<title>Node39&#45;&gt;Node44</title>
<path fill="none" stroke="midnightblue" d="M810.55,-128.73C814.44,-120.29 820.51,-107.14 825.8,-95.68"/>
<polygon fill="midnightblue" stroke="midnightblue" points="828.98,-97.14 830,-86.59 822.63,-94.2 828.98,-97.14"/>
</g>
<!-- Node45 -->
<g id="node11" class="node">
<title>Node45</title>
<g id="a_node11"><a xlink:href="protocol_2base_8h.html" target="_top" xlink:title=" ">
<polygon fill="white" stroke="red" points="470,-62 470,-81 613,-81 613,-62 470,-62"/>
<text text-anchor="middle" x="541.5" y="-69" font-family="Helvetica,sans-Serif" font-size="10.00">emlabcpp/protocol/base.h</text>
</a>
</g>
</g>
<!-- Node39&#45;&gt;Node45 -->
<g id="edge10" class="edge">
<title>Node39&#45;&gt;Node45</title>
<path fill="none" stroke="midnightblue" d="M771.58,-128.94C724.02,-117.27 638.8,-96.37 586.5,-83.54"/>
<polygon fill="midnightblue" stroke="midnightblue" points="587.04,-80.07 576.49,-81.08 585.37,-86.86 587.04,-80.07"/>
</g>
<!-- Node48 -->
<g id="node12" class="node">
<title>Node48</title>
<g id="a_node12"><a xlink:title=" ">
<polygon fill="white" stroke="#bfbfbf" points="716,-0.5 716,-19.5 745,-19.5 745,-0.5 716,-0.5"/>
<text text-anchor="middle" x="730.5" y="-7.5" font-family="Helvetica,sans-Serif" font-size="10.00">bit</text>
</a>
</g>
</g>
<!-- Node39&#45;&gt;Node48 -->
<g id="edge12" class="edge">
<title>Node39&#45;&gt;Node48</title>
<path fill="none" stroke="midnightblue" d="M840.58,-128.87C861.85,-121.52 887.57,-108.62 900.5,-87 907.57,-75.17 908.9,-66.92 900.5,-56 882.85,-33.08 798.18,-19.43 755.38,-13.89"/>
<polygon fill="midnightblue" stroke="midnightblue" points="755.58,-10.39 745.23,-12.63 754.72,-17.34 755.58,-10.39"/>
</g>
<!-- Node28 -->
<g id="node13" class="node">
<title>Node28</title>
<g id="a_node13"><a xlink:title=" ">
<polygon fill="white" stroke="#bfbfbf" points="947.5,-62 947.5,-81 987.5,-81 987.5,-62 947.5,-62"/>
<text text-anchor="middle" x="967.5" y="-69" font-family="Helvetica,sans-Serif" font-size="10.00">span</text>
</a>
</g>
</g>
<!-- Node39&#45;&gt;Node28 -->
<g id="edge13" class="edge">
<title>Node39&#45;&gt;Node28</title>
<path fill="none" stroke="midnightblue" d="M828.59,-128.91C853.98,-118.99 896.86,-102.09 933.5,-87 935.09,-86.34 936.72,-85.67 938.37,-84.98"/>
<polygon fill="midnightblue" stroke="midnightblue" points="939.91,-88.13 947.76,-81.02 937.18,-81.68 939.91,-88.13"/>
</g>
<!-- Node45&#45;&gt;Node48 -->
<g id="edge11" class="edge">
<title>Node45&#45;&gt;Node48</title>
<path fill="none" stroke="midnightblue" d="M568.58,-61.98C605.37,-50.39 670.6,-29.86 706,-18.71"/>
<polygon fill="midnightblue" stroke="midnightblue" points="707.07,-22.05 715.56,-15.7 704.97,-15.37 707.07,-22.05"/>
</g>
<!-- Node52 -->
<g id="node15" class="node">
<title>Node52</title>
<g id="a_node15"><a xlink:href="traits_8h.html" target="_top" xlink:title=" ">
<polygon fill="white" stroke="red" points="500,-129 500,-148 645,-148 645,-129 500,-129"/>
<text text-anchor="middle" x="572.5" y="-136" font-family="Helvetica,sans-Serif" font-size="10.00">emlabcpp/protocol/traits.h</text>
</a>
</g>
</g>
<!-- Node51&#45;&gt;Node52 -->
<g id="edge15" class="edge">
<title>Node51&#45;&gt;Node52</title>
<path fill="none" stroke="midnightblue" d="M572.5,-190.48C572.5,-182.08 572.5,-168.98 572.5,-158.16"/>
<polygon fill="midnightblue" stroke="midnightblue" points="576,-158.01 572.5,-148.01 569,-158.01 576,-158.01"/>
</g>
<!-- Node52&#45;&gt;Node33 -->
<g id="edge17" class="edge">
<title>Node52&#45;&gt;Node33</title>
<path fill="none" stroke="midnightblue" d="M545.81,-128.87C510.27,-117.38 447.29,-97.01 407.55,-84.16"/>
<polygon fill="midnightblue" stroke="midnightblue" points="408.57,-80.81 397.98,-81.06 406.42,-87.47 408.57,-80.81"/>
</g>
<!-- Node52&#45;&gt;Node45 -->
<g id="edge16" class="edge">
<title>Node52&#45;&gt;Node45</title>
<path fill="none" stroke="midnightblue" d="M568.32,-128.73C563.62,-118.89 555.88,-102.66 549.92,-90.16"/>
<polygon fill="midnightblue" stroke="midnightblue" points="553.08,-88.65 545.61,-81.13 546.76,-91.66 553.08,-88.65"/>
</g>
</g>
</svg>
