<?xml version="1.0" encoding="UTF-8" standalone="no"?>
<!DOCTYPE svg PUBLIC "-//W3C//DTD SVG 1.1//EN"
 "http://www.w3.org/Graphics/SVG/1.1/DTD/svg11.dtd">
<!-- Generated by graphviz version 2.43.0 (0)
 -->
<!-- Title: include/emlabcpp/protocol/packet_handler.h Pages: 1 -->
<svg width="1209pt" height="341pt"
 viewBox="0.00 0.00 1208.50 341.00" xmlns="http://www.w3.org/2000/svg" xmlns:xlink="http://www.w3.org/1999/xlink">
<g id="graph0" class="graph" transform="scale(1 1) rotate(0) translate(4 337)">
<title>include/emlabcpp/protocol/packet_handler.h</title>
<polygon fill="white" stroke="transparent" points="-4,4 -4,-337 1204.5,-337 1204.5,4 -4,4"/>
<!-- Node1 -->
<g id="node1" class="node">
<title>Node1</title>
<g id="a_node1"><a xlink:title=" ">
<polygon fill="#bfbfbf" stroke="black" points="508.5,-302.5 508.5,-332.5 654.5,-332.5 654.5,-302.5 508.5,-302.5"/>
<text text-anchor="start" x="516.5" y="-320.5" font-family="Helvetica,sans-Serif" font-size="10.00">include/emlabcpp/protocol</text>
<text text-anchor="middle" x="581.5" y="-309.5" font-family="Helvetica,sans-Serif" font-size="10.00">/packet_handler.h</text>
</a>
</g>
</g>
<!-- Node2 -->
<g id="node2" class="node">
<title>Node2</title>
<g id="a_node2"><a xlink:href="logging_8h.html" target="_top" xlink:title=" ">
<polygon fill="white" stroke="black" points="171,-179.5 171,-209.5 304,-209.5 304,-179.5 171,-179.5"/>
<text text-anchor="start" x="179" y="-197.5" font-family="Helvetica,sans-Serif" font-size="10.00">emlabcpp/experimental</text>
<text text-anchor="middle" x="237.5" y="-186.5" font-family="Helvetica,sans-Serif" font-size="10.00">/logging.h</text>
</a>
</g>
</g>
<!-- Node1&#45;&gt;Node2 -->
<g id="edge1" class="edge">
<title>Node1&#45;&gt;Node2</title>
<path fill="none" stroke="midnightblue" d="M516.63,-302.46C479.01,-293.58 431.01,-280.95 389.5,-266 348.45,-251.21 303.33,-229.55 272.99,-214.15"/>
<polygon fill="midnightblue" stroke="midnightblue" points="274.57,-211.03 264.08,-209.59 271.38,-217.26 274.57,-211.03"/>
</g>
<!-- Node36 -->
<g id="node12" class="node">
<title>Node36</title>
<g id="a_node12"><a xlink:href="handler_8h.html" target="_top" xlink:title=" ">
<polygon fill="white" stroke="black" points="399,-246.5 399,-265.5 554,-265.5 554,-246.5 399,-246.5"/>
<text text-anchor="middle" x="476.5" y="-253.5" font-family="Helvetica,sans-Serif" font-size="10.00">emlabcpp/protocol/handler.h</text>
</a>
</g>
</g>
<!-- Node1&#45;&gt;Node36 -->
<g id="edge13" class="edge">
<title>Node1&#45;&gt;Node36</title>
<path fill="none" stroke="midnightblue" d="M556.62,-302.4C539.79,-292.86 517.66,-280.32 500.93,-270.84"/>
<polygon fill="midnightblue" stroke="midnightblue" points="502.2,-267.54 491.78,-265.66 498.75,-273.63 502.2,-267.54"/>
</g>
<!-- Node62 -->
<g id="node17" class="node">
<title>Node62</title>
<g id="a_node17"><a xlink:href="packet_8h.html" target="_top" xlink:title=" ">
<polygon fill="white" stroke="black" points="664.5,-246.5 664.5,-265.5 816.5,-265.5 816.5,-246.5 664.5,-246.5"/>
<text text-anchor="middle" x="740.5" y="-253.5" font-family="Helvetica,sans-Serif" font-size="10.00">emlabcpp/protocol/packet.h</text>
</a>
</g>
</g>
<!-- Node1&#45;&gt;Node62 -->
<g id="edge24" class="edge">
<title>Node1&#45;&gt;Node62</title>
<path fill="none" stroke="midnightblue" d="M619.18,-302.4C646.1,-292.33 681.95,-278.91 707.69,-269.28"/>
<polygon fill="midnightblue" stroke="midnightblue" points="709.23,-272.44 717.36,-265.66 706.77,-265.88 709.23,-272.44"/>
</g>
<!-- Node66 -->
<g id="node20" class="node">
<title>Node66</title>
<g id="a_node20"><a xlink:href="streams_8h.html" target="_top" xlink:title=" ">
<polygon fill="white" stroke="black" points="983,-185 983,-204 1142,-204 1142,-185 983,-185"/>
<text text-anchor="middle" x="1062.5" y="-192" font-family="Helvetica,sans-Serif" font-size="10.00">emlabcpp/protocol/streams.h</text>
</a>
</g>
</g>
<!-- Node1&#45;&gt;Node66 -->
<g id="edge29" class="edge">
<title>Node1&#45;&gt;Node66</title>
<path fill="none" stroke="midnightblue" d="M654.74,-303.03C703.39,-293.67 768.55,-280.34 825.5,-266 897.64,-247.84 980.71,-221.96 1026.85,-207.14"/>
<polygon fill="midnightblue" stroke="midnightblue" points="1027.96,-210.46 1036.4,-204.06 1025.81,-203.8 1027.96,-210.46"/>
</g>
<!-- Node3 -->
<g id="node3" class="node">
<title>Node3</title>
<g id="a_node3"><a xlink:href="pretty__printer_8h.html" target="_top" xlink:title=" ">
<polygon fill="white" stroke="red" points="342,-112.5 342,-142.5 475,-142.5 475,-112.5 342,-112.5"/>
<text text-anchor="start" x="350" y="-130.5" font-family="Helvetica,sans-Serif" font-size="10.00">emlabcpp/experimental</text>
<text text-anchor="middle" x="408.5" y="-119.5" font-family="Helvetica,sans-Serif" font-size="10.00">/pretty_printer.h</text>
</a>
</g>
</g>
<!-- Node2&#45;&gt;Node3 -->
<g id="edge2" class="edge">
<title>Node2&#45;&gt;Node3</title>
<path fill="none" stroke="midnightblue" d="M274.6,-179.4C300.26,-169.64 334.59,-156.59 362.06,-146.15"/>
<polygon fill="midnightblue" stroke="midnightblue" points="363.36,-149.4 371.47,-142.58 360.88,-142.86 363.36,-149.4"/>
</g>
<!-- Node17 -->
<g id="node5" class="node">
<title>Node17</title>
<g id="a_node5"><a xlink:href="match_8h.html" target="_top" xlink:title=" ">
<polygon fill="white" stroke="red" points="266,-56.5 266,-75.5 373,-75.5 373,-56.5 266,-56.5"/>
<text text-anchor="middle" x="319.5" y="-63.5" font-family="Helvetica,sans-Serif" font-size="10.00">emlabcpp/match.h</text>
</a>
</g>
</g>
<!-- Node2&#45;&gt;Node17 -->
<g id="edge8" class="edge">
<title>Node2&#45;&gt;Node17</title>
<path fill="none" stroke="midnightblue" d="M246.59,-179.48C261.67,-156.21 291.84,-109.66 308.25,-84.36"/>
<polygon fill="midnightblue" stroke="midnightblue" points="311.3,-86.08 313.8,-75.79 305.43,-82.28 311.3,-86.08"/>
</g>
<!-- Node14 -->
<g id="node8" class="node">
<title>Node14</title>
<g id="a_node8"><a xlink:title=" ">
<polygon fill="white" stroke="#bfbfbf" points="383,-0.5 383,-19.5 434,-19.5 434,-0.5 383,-0.5"/>
<text text-anchor="middle" x="408.5" y="-7.5" font-family="Helvetica,sans-Serif" font-size="10.00">variant</text>
</a>
</g>
</g>
<!-- Node2&#45;&gt;Node14 -->
<g id="edge11" class="edge">
<title>Node2&#45;&gt;Node14</title>
<path fill="none" stroke="midnightblue" d="M234.94,-179.45C230.83,-152.13 226.02,-91.45 256.5,-56 285.2,-22.62 337.37,-13.39 372.49,-11.15"/>
<polygon fill="midnightblue" stroke="midnightblue" points="372.97,-14.64 382.79,-10.67 372.64,-7.64 372.97,-14.64"/>
</g>
<!-- Node34 -->
<g id="node9" class="node">
<title>Node34</title>
<g id="a_node9"><a xlink:title=" ">
<polygon fill="white" stroke="#bfbfbf" points="0,-118 0,-137 53,-137 53,-118 0,-118"/>
<text text-anchor="middle" x="26.5" y="-125" font-family="Helvetica,sans-Serif" font-size="10.00">cstddef</text>
</a>
</g>
</g>
<!-- Node2&#45;&gt;Node34 -->
<g id="edge9" class="edge">
<title>Node2&#45;&gt;Node34</title>
<path fill="none" stroke="midnightblue" d="M182.69,-179.49C147.7,-170.13 101.56,-157 61.5,-143 59.59,-142.33 57.64,-141.62 55.67,-140.87"/>
<polygon fill="midnightblue" stroke="midnightblue" points="56.56,-137.46 45.97,-137.02 53.98,-143.97 56.56,-137.46"/>
</g>
<!-- Node35 -->
<g id="node10" class="node">
<title>Node35</title>
<g id="a_node10"><a xlink:title=" ">
<polygon fill="white" stroke="#bfbfbf" points="71,-118 71,-137 144,-137 144,-118 71,-118"/>
<text text-anchor="middle" x="107.5" y="-125" font-family="Helvetica,sans-Serif" font-size="10.00">string_view</text>
</a>
</g>
</g>
<!-- Node2&#45;&gt;Node35 -->
<g id="edge10" class="edge">
<title>Node2&#45;&gt;Node35</title>
<path fill="none" stroke="midnightblue" d="M209.29,-179.4C186.78,-168.14 155.5,-152.5 133.58,-141.54"/>
<polygon fill="midnightblue" stroke="midnightblue" points="135.02,-138.35 124.51,-137.01 131.89,-144.61 135.02,-138.35"/>
</g>
<!-- Node11 -->
<g id="node11" class="node">
<title>Node11</title>
<g id="a_node11"><a xlink:title=" ">
<polygon fill="white" stroke="#bfbfbf" points="162,-118 162,-137 209,-137 209,-118 162,-118"/>
<text text-anchor="middle" x="185.5" y="-125" font-family="Helvetica,sans-Serif" font-size="10.00">vector</text>
</a>
</g>
</g>
<!-- Node2&#45;&gt;Node11 -->
<g id="edge12" class="edge">
<title>Node2&#45;&gt;Node11</title>
<path fill="none" stroke="midnightblue" d="M226.22,-179.4C218.19,-169.36 207.37,-155.84 198.9,-145.25"/>
<polygon fill="midnightblue" stroke="midnightblue" points="201.44,-142.82 192.46,-137.19 195.97,-147.19 201.44,-142.82"/>
</g>
<!-- Node15 -->
<g id="node4" class="node">
<title>Node15</title>
<g id="a_node4"><a xlink:href="enum_8h.html" target="_top" xlink:title=" ">
<polygon fill="white" stroke="red" points="584.5,-56.5 584.5,-75.5 688.5,-75.5 688.5,-56.5 584.5,-56.5"/>
<text text-anchor="middle" x="636.5" y="-63.5" font-family="Helvetica,sans-Serif" font-size="10.00">emlabcpp/enum.h</text>
</a>
</g>
</g>
<!-- Node3&#45;&gt;Node15 -->
<g id="edge3" class="edge">
<title>Node3&#45;&gt;Node15</title>
<path fill="none" stroke="midnightblue" d="M462.24,-112.47C502.44,-101.99 556.65,-87.84 593.88,-78.12"/>
<polygon fill="midnightblue" stroke="midnightblue" points="595.11,-81.42 603.9,-75.51 593.34,-74.64 595.11,-81.42"/>
</g>
<!-- Node3&#45;&gt;Node17 -->
<g id="edge4" class="edge">
<title>Node3&#45;&gt;Node17</title>
<path fill="none" stroke="midnightblue" d="M387.41,-112.4C373.41,-103.04 355.09,-90.79 341.01,-81.38"/>
<polygon fill="midnightblue" stroke="midnightblue" points="342.71,-78.31 332.45,-75.66 338.82,-84.13 342.71,-78.31"/>
</g>
<!-- Node19 -->
<g id="node6" class="node">
<title>Node19</title>
<g id="a_node6"><a xlink:href="range_8h.html" target="_top" xlink:title=" ">
<polygon fill="white" stroke="red" points="712.5,-56.5 712.5,-75.5 816.5,-75.5 816.5,-56.5 712.5,-56.5"/>
<text text-anchor="middle" x="764.5" y="-63.5" font-family="Helvetica,sans-Serif" font-size="10.00">emlabcpp/range.h</text>
</a>
</g>
</g>
<!-- Node3&#45;&gt;Node19 -->
<g id="edge5" class="edge">
<title>Node3&#45;&gt;Node19</title>
<path fill="none" stroke="midnightblue" d="M475.04,-115.38C540.66,-104.41 640.09,-87.79 703.66,-77.17"/>
<polygon fill="midnightblue" stroke="midnightblue" points="704.26,-80.62 713.55,-75.52 703.11,-73.71 704.26,-80.62"/>
</g>
<!-- Node23 -->
<g id="node7" class="node">
<title>Node23</title>
<g id="a_node7"><a xlink:href="types_8h.html" target="_top" xlink:title=" ">
<polygon fill="white" stroke="red" points="451.5,-56.5 451.5,-75.5 555.5,-75.5 555.5,-56.5 451.5,-56.5"/>
<text text-anchor="middle" x="503.5" y="-63.5" font-family="Helvetica,sans-Serif" font-size="10.00">emlabcpp/types.h</text>
</a>
</g>
</g>
<!-- Node3&#45;&gt;Node23 -->
<g id="edge6" class="edge">
<title>Node3&#45;&gt;Node23</title>
<path fill="none" stroke="midnightblue" d="M431.01,-112.4C446.1,-102.95 465.89,-90.56 480.97,-81.11"/>
<polygon fill="midnightblue" stroke="midnightblue" points="483.06,-83.93 489.68,-75.66 479.34,-78 483.06,-83.93"/>
</g>
<!-- Node3&#45;&gt;Node14 -->
<g id="edge7" class="edge">
<title>Node3&#45;&gt;Node14</title>
<path fill="none" stroke="midnightblue" d="M408.5,-112.34C408.5,-91.62 408.5,-53.02 408.5,-29.9"/>
<polygon fill="midnightblue" stroke="midnightblue" points="412,-29.67 408.5,-19.67 405,-29.67 412,-29.67"/>
</g>
<!-- Node36&#45;&gt;Node23 -->
<g id="edge23" class="edge">
<title>Node36&#45;&gt;Node23</title>
<path fill="none" stroke="midnightblue" d="M422.42,-246.47C400.98,-240.15 378.4,-229.14 365.5,-210 357.8,-198.57 357.3,-190.07 365.5,-179 398.13,-134.93 445.49,-182.52 483.5,-143 498.18,-127.74 502.41,-103.05 503.47,-85.98"/>
<polygon fill="midnightblue" stroke="midnightblue" points="506.98,-85.68 503.78,-75.58 499.98,-85.47 506.98,-85.68"/>
</g>
<!-- Node37 -->
<g id="node13" class="node">
<title>Node37</title>
<g id="a_node13"><a xlink:href="either_8h.html" target="_top" xlink:title=" ">
<polygon fill="white" stroke="red" points="531.5,-118 531.5,-137 635.5,-137 635.5,-118 531.5,-118"/>
<text text-anchor="middle" x="583.5" y="-125" font-family="Helvetica,sans-Serif" font-size="10.00">emlabcpp/either.h</text>
</a>
</g>
</g>
<!-- Node36&#45;&gt;Node37 -->
<g id="edge14" class="edge">
<title>Node36&#45;&gt;Node37</title>
<path fill="none" stroke="midnightblue" d="M496.87,-246.42C512.75,-238.84 534.39,-226.45 548.5,-210 564.44,-191.41 574.08,-164.48 579.1,-146.73"/>
<polygon fill="midnightblue" stroke="midnightblue" points="582.49,-147.59 581.64,-137.03 575.72,-145.81 582.49,-147.59"/>
</g>
<!-- Node41 -->
<g id="node14" class="node">
<title>Node41</title>
<g id="a_node14"><a xlink:href="converter_8h.html" target="_top" xlink:title=" ">
<polygon fill="white" stroke="red" points="375,-185 375,-204 540,-204 540,-185 375,-185"/>
<text text-anchor="middle" x="457.5" y="-192" font-family="Helvetica,sans-Serif" font-size="10.00">emlabcpp/protocol/converter.h</text>
</a>
</g>
</g>
<!-- Node36&#45;&gt;Node41 -->
<g id="edge16" class="edge">
<title>Node36&#45;&gt;Node41</title>
<path fill="none" stroke="midnightblue" d="M473.78,-246.48C471.07,-237.99 466.83,-224.7 463.35,-213.82"/>
<polygon fill="midnightblue" stroke="midnightblue" points="466.59,-212.47 460.22,-204.01 459.93,-214.6 466.59,-212.47"/>
</g>
<!-- Node37&#45;&gt;Node23 -->
<g id="edge15" class="edge">
<title>Node37&#45;&gt;Node23</title>
<path fill="none" stroke="midnightblue" d="M572.04,-117.98C559.33,-108.52 538.59,-93.1 523.25,-81.69"/>
<polygon fill="midnightblue" stroke="midnightblue" points="525.05,-78.67 514.94,-75.51 520.88,-84.29 525.05,-78.67"/>
</g>
<!-- Node41&#45;&gt;Node17 -->
<g id="edge18" class="edge">
<title>Node41&#45;&gt;Node17</title>
<path fill="none" stroke="midnightblue" d="M405.96,-184.92C380.12,-177.95 350.56,-165.42 332.5,-143 319.54,-126.91 317.48,-102.59 317.89,-85.81"/>
<polygon fill="midnightblue" stroke="midnightblue" points="321.4,-85.78 318.47,-75.6 314.41,-85.39 321.4,-85.78"/>
</g>
<!-- Node41&#45;&gt;Node37 -->
<g id="edge17" class="edge">
<title>Node41&#45;&gt;Node37</title>
<path fill="none" stroke="midnightblue" d="M474.23,-184.87C495.6,-173.84 532.8,-154.66 557.78,-141.77"/>
<polygon fill="midnightblue" stroke="midnightblue" points="559.42,-144.86 566.7,-137.17 556.21,-138.64 559.42,-144.86"/>
</g>
<!-- Node49 -->
<g id="node15" class="node">
<title>Node49</title>
<g id="a_node15"><a xlink:href="serializer_8h.html" target="_top" xlink:title=" ">
<polygon fill="white" stroke="red" points="682.5,-118 682.5,-137 846.5,-137 846.5,-118 682.5,-118"/>
<text text-anchor="middle" x="764.5" y="-125" font-family="Helvetica,sans-Serif" font-size="10.00">emlabcpp/protocol/serializer.h</text>
</a>
</g>
</g>
<!-- Node41&#45;&gt;Node49 -->
<g id="edge19" class="edge">
<title>Node41&#45;&gt;Node49</title>
<path fill="none" stroke="midnightblue" d="M497.95,-184.94C553.51,-173.17 653.42,-152.02 713.88,-139.22"/>
<polygon fill="midnightblue" stroke="midnightblue" points="714.9,-142.58 723.96,-137.08 713.45,-135.73 714.9,-142.58"/>
</g>
<!-- Node49&#45;&gt;Node19 -->
<g id="edge22" class="edge">
<title>Node49&#45;&gt;Node19</title>
<path fill="none" stroke="midnightblue" d="M764.5,-117.98C764.5,-109.58 764.5,-96.48 764.5,-85.66"/>
<polygon fill="midnightblue" stroke="midnightblue" points="768,-85.51 764.5,-75.51 761,-85.51 768,-85.51"/>
</g>
<!-- Node51 -->
<g id="node16" class="node">
<title>Node51</title>
<g id="a_node16"><a xlink:href="protocol_2base_8h.html" target="_top" xlink:title=" ">
<polygon fill="white" stroke="red" points="857,-56.5 857,-75.5 1000,-75.5 1000,-56.5 857,-56.5"/>
<text text-anchor="middle" x="928.5" y="-63.5" font-family="Helvetica,sans-Serif" font-size="10.00">emlabcpp/protocol/base.h</text>
</a>
</g>
</g>
<!-- Node49&#45;&gt;Node51 -->
<g id="edge20" class="edge">
<title>Node49&#45;&gt;Node51</title>
<path fill="none" stroke="midnightblue" d="M788,-117.98C816.13,-107.77 863.43,-90.61 895.29,-79.05"/>
<polygon fill="midnightblue" stroke="midnightblue" points="896.84,-82.21 905.05,-75.51 894.45,-75.63 896.84,-82.21"/>
</g>
<!-- Node51&#45;&gt;Node14 -->
<g id="edge21" class="edge">
<title>Node51&#45;&gt;Node14</title>
<path fill="none" stroke="midnightblue" d="M856.74,-57.55C743.86,-45.83 528.93,-23.51 444.16,-14.7"/>
<polygon fill="midnightblue" stroke="midnightblue" points="444.32,-11.2 434.01,-13.65 443.6,-18.16 444.32,-11.2"/>
</g>
<!-- Node62&#45;&gt;Node49 -->
<g id="edge27" class="edge">
<title>Node62&#45;&gt;Node49</title>
<path fill="none" stroke="midnightblue" d="M816.69,-247.25C865.1,-240.57 921.41,-228.95 936.5,-210 945.08,-199.22 944.76,-190.03 936.5,-179 923.18,-161.2 871.15,-147.54 827.77,-138.94"/>
<polygon fill="midnightblue" stroke="midnightblue" points="828.3,-135.48 817.82,-137.03 826.98,-142.35 828.3,-135.48"/>
</g>
<!-- Node63 -->
<g id="node18" class="node">
<title>Node63</title>
<g id="a_node18"><a xlink:href="sequencer_8h.html" target="_top" xlink:title=" ">
<polygon fill="white" stroke="red" points="759,-185 759,-204 928,-204 928,-185 759,-185"/>
<text text-anchor="middle" x="843.5" y="-192" font-family="Helvetica,sans-Serif" font-size="10.00">emlabcpp/protocol/sequencer.h</text>
</a>
</g>
</g>
<!-- Node62&#45;&gt;Node63 -->
<g id="edge25" class="edge">
<title>Node62&#45;&gt;Node63</title>
<path fill="none" stroke="midnightblue" d="M755.26,-246.48C772.16,-236.71 800.08,-220.58 819.99,-209.08"/>
<polygon fill="midnightblue" stroke="midnightblue" points="821.86,-212.04 828.77,-204.01 818.36,-205.98 821.86,-212.04"/>
</g>
<!-- Node65 -->
<g id="node19" class="node">
<title>Node65</title>
<g id="a_node19"><a xlink:href="tuple_8h.html" target="_top" xlink:title=" ">
<polygon fill="white" stroke="red" points="596.5,-185 596.5,-204 740.5,-204 740.5,-185 596.5,-185"/>
<text text-anchor="middle" x="668.5" y="-192" font-family="Helvetica,sans-Serif" font-size="10.00">emlabcpp/protocol/tuple.h</text>
</a>
</g>
</g>
<!-- Node62&#45;&gt;Node65 -->
<g id="edge28" class="edge">
<title>Node62&#45;&gt;Node65</title>
<path fill="none" stroke="midnightblue" d="M730.18,-246.48C718.85,-237.11 700.43,-221.88 686.66,-210.51"/>
<polygon fill="midnightblue" stroke="midnightblue" points="688.73,-207.68 678.8,-204.01 684.28,-213.08 688.73,-207.68"/>
</g>
<!-- Node63&#45;&gt;Node37 -->
<g id="edge26" class="edge">
<title>Node63&#45;&gt;Node37</title>
<path fill="none" stroke="midnightblue" d="M809.24,-184.94C762.57,-173.27 678.97,-152.37 627.65,-139.54"/>
<polygon fill="midnightblue" stroke="midnightblue" points="628.38,-136.11 617.83,-137.08 626.69,-142.9 628.38,-136.11"/>
</g>
<!-- Node66&#45;&gt;Node15 -->
<g id="edge30" class="edge">
<title>Node66&#45;&gt;Node15</title>
<path fill="none" stroke="midnightblue" d="M1010.1,-184.99C974.17,-177.59 926.34,-164.58 888.5,-143 871.02,-133.03 873.36,-121.26 855.5,-112 828.66,-98.08 753.37,-84.44 698.55,-75.89"/>
<polygon fill="midnightblue" stroke="midnightblue" points="698.98,-72.41 688.57,-74.35 697.92,-79.33 698.98,-72.41"/>
</g>
<!-- Node66&#45;&gt;Node19 -->
<g id="edge34" class="edge">
<title>Node66&#45;&gt;Node19</title>
<path fill="none" stroke="midnightblue" d="M1040.45,-184.84C1016.52,-175.27 977.33,-159.06 944.5,-143 918.95,-130.5 914.4,-123.78 888.5,-112 860.1,-99.08 826.81,-87.17 801.88,-78.85"/>
<polygon fill="midnightblue" stroke="midnightblue" points="802.68,-75.43 792.09,-75.62 800.49,-82.08 802.68,-75.43"/>
</g>
<!-- Node66&#45;&gt;Node51 -->
<g id="edge31" class="edge">
<title>Node66&#45;&gt;Node51</title>
<path fill="none" stroke="midnightblue" d="M1038.29,-184.9C1017.93,-176.68 989.09,-162.64 969.5,-143 953,-126.45 941.39,-101.89 934.84,-85.19"/>
<polygon fill="midnightblue" stroke="midnightblue" points="938.01,-83.69 931.26,-75.53 931.45,-86.12 938.01,-83.69"/>
</g>
<!-- Node67 -->
<g id="node21" class="node">
<title>Node67</title>
<g id="a_node21"><a xlink:href="register__map_8h.html" target="_top" xlink:title=" ">
<polygon fill="white" stroke="red" points="978.5,-112.5 978.5,-142.5 1126.5,-142.5 1126.5,-112.5 978.5,-112.5"/>
<text text-anchor="start" x="986.5" y="-130.5" font-family="Helvetica,sans-Serif" font-size="10.00">emlabcpp/protocol/register</text>
<text text-anchor="middle" x="1052.5" y="-119.5" font-family="Helvetica,sans-Serif" font-size="10.00">_map.h</text>
</a>
</g>
</g>
<!-- Node66&#45;&gt;Node67 -->
<g id="edge32" class="edge">
<title>Node66&#45;&gt;Node67</title>
<path fill="none" stroke="midnightblue" d="M1061.15,-184.73C1059.89,-176.54 1057.95,-163.92 1056.23,-152.71"/>
<polygon fill="midnightblue" stroke="midnightblue" points="1059.65,-151.94 1054.67,-142.59 1052.73,-153 1059.65,-151.94"/>
</g>
<!-- Node68 -->
<g id="node22" class="node">
<title>Node68</title>
<g id="a_node22"><a xlink:title=" ">
<polygon fill="white" stroke="#bfbfbf" points="1144.5,-118 1144.5,-137 1200.5,-137 1200.5,-118 1144.5,-118"/>
<text text-anchor="middle" x="1172.5" y="-125" font-family="Helvetica,sans-Serif" font-size="10.00">iomanip</text>
</a>
</g>
</g>
<!-- Node66&#45;&gt;Node68 -->
<g id="edge35" class="edge">
<title>Node66&#45;&gt;Node68</title>
<path fill="none" stroke="midnightblue" d="M1077.34,-184.73C1095.81,-173.82 1127.57,-155.05 1149.28,-142.22"/>
<polygon fill="midnightblue" stroke="midnightblue" points="1151.07,-145.23 1157.9,-137.13 1147.51,-139.2 1151.07,-145.23"/>
</g>
<!-- Node67&#45;&gt;Node51 -->
<g id="edge33" class="edge">
<title>Node67&#45;&gt;Node51</title>
<path fill="none" stroke="midnightblue" d="M1023.11,-112.4C1002.68,-102.59 975.64,-89.62 955.7,-80.05"/>
<polygon fill="midnightblue" stroke="midnightblue" points="957.07,-76.83 946.54,-75.66 954.04,-83.14 957.07,-76.83"/>
</g>
</g>
</svg>
