<?xml version="1.0" encoding="UTF-8" standalone="no"?>
<!DOCTYPE svg PUBLIC "-//W3C//DTD SVG 1.1//EN"
 "http://www.w3.org/Graphics/SVG/1.1/DTD/svg11.dtd">
<!-- Generated by graphviz version 2.43.0 (0)
 -->
<!-- Title: include/emlabcpp/protocol/packet_handler.h Pages: 1 -->
<svg width="888pt" height="296pt"
 viewBox="0.00 0.00 887.60 296.00" xmlns="http://www.w3.org/2000/svg" xmlns:xlink="http://www.w3.org/1999/xlink">
<g id="graph0" class="graph" transform="scale(1 1) rotate(0) translate(4 292)">
<title>include/emlabcpp/protocol/packet_handler.h</title>
<polygon fill="white" stroke="transparent" points="-4,4 -4,-292 883.6,-292 883.6,4 -4,4"/>
<!-- Node1 -->
<g id="node1" class="node">
<title>Node1</title>
<g id="a_node1"><a xlink:title=" ">
<polygon fill="#bfbfbf" stroke="black" points="243.6,-257.5 243.6,-287.5 389.6,-287.5 389.6,-257.5 243.6,-257.5"/>
<text text-anchor="start" x="251.6" y="-275.5" font-family="Helvetica,sans-Serif" font-size="10.00">include/emlabcpp/protocol</text>
<text text-anchor="middle" x="316.6" y="-264.5" font-family="Helvetica,sans-Serif" font-size="10.00">/packet_handler.h</text>
</a>
</g>
</g>
<!-- Node2 -->
<g id="node2" class="node">
<title>Node2</title>
<g id="a_node2"><a xlink:href="logging_8h.html" target="_top" xlink:title=" ">
<polygon fill="white" stroke="black" points="2.1,-190.5 2.1,-220.5 135.1,-220.5 135.1,-190.5 2.1,-190.5"/>
<text text-anchor="start" x="10.1" y="-208.5" font-family="Helvetica,sans-Serif" font-size="10.00">emlabcpp/experimental</text>
<text text-anchor="middle" x="68.6" y="-197.5" font-family="Helvetica,sans-Serif" font-size="10.00">/logging.h</text>
</a>
</g>
</g>
<!-- Node1&#45;&gt;Node2 -->
<g id="edge1" class="edge">
<title>Node1&#45;&gt;Node2</title>
<path fill="none" stroke="midnightblue" d="M263.09,-257.48C224.68,-247.41 172.75,-233.8 132.22,-223.17"/>
<polygon fill="midnightblue" stroke="midnightblue" points="133,-219.76 122.44,-220.61 131.22,-226.53 133,-219.76"/>
</g>
<!-- Node3 -->
<g id="node3" class="node">
<title>Node3</title>
<g id="a_node3"><a xlink:href="handler_8h.html" target="_top" xlink:title=" ">
<polygon fill="white" stroke="black" points="153.1,-196 153.1,-215 308.1,-215 308.1,-196 153.1,-196"/>
<text text-anchor="middle" x="230.6" y="-203" font-family="Helvetica,sans-Serif" font-size="10.00">emlabcpp/protocol/handler.h</text>
</a>
</g>
</g>
<!-- Node1&#45;&gt;Node3 -->
<g id="edge2" class="edge">
<title>Node1&#45;&gt;Node3</title>
<path fill="none" stroke="midnightblue" d="M297.94,-257.4C283.86,-246.76 264.6,-232.2 250.29,-221.38"/>
<polygon fill="midnightblue" stroke="midnightblue" points="252.19,-218.43 242.1,-215.19 247.97,-224.02 252.19,-218.43"/>
</g>
<!-- Node52 -->
<g id="node9" class="node">
<title>Node52</title>
<g id="a_node9"><a xlink:href="packet_8h.html" target="_top" xlink:title=" ">
<polygon fill="white" stroke="black" points="326.6,-196 326.6,-215 478.6,-215 478.6,-196 326.6,-196"/>
<text text-anchor="middle" x="402.6" y="-203" font-family="Helvetica,sans-Serif" font-size="10.00">emlabcpp/protocol/packet.h</text>
</a>
</g>
</g>
<!-- Node1&#45;&gt;Node52 -->
<g id="edge10" class="edge">
<title>Node1&#45;&gt;Node52</title>
<path fill="none" stroke="midnightblue" d="M335.26,-257.4C349.33,-246.76 368.59,-232.2 382.91,-221.38"/>
<polygon fill="midnightblue" stroke="midnightblue" points="385.23,-224.02 391.09,-215.19 381,-218.43 385.23,-224.02"/>
</g>
<!-- Node56 -->
<g id="node12" class="node">
<title>Node56</title>
<g id="a_node12"><a xlink:href="streams_8h.html" target="_top" xlink:title=" ">
<polygon fill="white" stroke="black" points="564.1,-134.5 564.1,-153.5 723.1,-153.5 723.1,-134.5 564.1,-134.5"/>
<text text-anchor="middle" x="643.6" y="-141.5" font-family="Helvetica,sans-Serif" font-size="10.00">emlabcpp/protocol/streams.h</text>
</a>
</g>
</g>
<!-- Node1&#45;&gt;Node56 -->
<g id="edge15" class="edge">
<title>Node1&#45;&gt;Node56</title>
<path fill="none" stroke="midnightblue" d="M372.83,-257.42C406.57,-248.36 450.08,-235.56 487.6,-221 535.49,-202.41 588.81,-174.86 619.06,-158.54"/>
<polygon fill="midnightblue" stroke="midnightblue" points="620.93,-161.51 628.04,-153.66 617.58,-155.36 620.93,-161.51"/>
</g>
<!-- Node4 -->
<g id="node4" class="node">
<title>Node4</title>
<g id="a_node4"><a xlink:href="either_8h.html" target="_top" xlink:title=" ">
<polygon fill="white" stroke="red" points="47.6,-73 47.6,-92 151.6,-92 151.6,-73 47.6,-73"/>
<text text-anchor="middle" x="99.6" y="-80" font-family="Helvetica,sans-Serif" font-size="10.00">emlabcpp/either.h</text>
</a>
</g>
</g>
<!-- Node3&#45;&gt;Node4 -->
<g id="edge3" class="edge">
<title>Node3&#45;&gt;Node4</title>
<path fill="none" stroke="midnightblue" d="M185.96,-195.96C122,-183.51 11.27,-161.09 5.6,-154 -14.59,-128.78 26.17,-107.78 60.2,-95.44"/>
<polygon fill="midnightblue" stroke="midnightblue" points="61.71,-98.62 70.01,-92.04 59.42,-92 61.71,-98.62"/>
</g>
<!-- Node29 -->
<g id="node5" class="node">
<title>Node29</title>
<g id="a_node5"><a xlink:href="def_8h.html" target="_top" xlink:title=" ">
<polygon fill="white" stroke="red" points="202.6,-134.5 202.6,-153.5 336.6,-153.5 336.6,-134.5 202.6,-134.5"/>
<text text-anchor="middle" x="269.6" y="-141.5" font-family="Helvetica,sans-Serif" font-size="10.00">emlabcpp/protocol/def.h</text>
</a>
</g>
</g>
<!-- Node3&#45;&gt;Node29 -->
<g id="edge4" class="edge">
<title>Node3&#45;&gt;Node29</title>
<path fill="none" stroke="midnightblue" d="M236.18,-195.98C241.98,-187.14 251.19,-173.09 258.47,-161.98"/>
<polygon fill="midnightblue" stroke="midnightblue" points="261.46,-163.79 264.02,-153.51 255.61,-159.95 261.46,-163.79"/>
</g>
<!-- Node29&#45;&gt;Node4 -->
<g id="edge5" class="edge">
<title>Node29&#45;&gt;Node4</title>
<path fill="none" stroke="midnightblue" d="M245.24,-134.48C215.95,-124.22 166.62,-106.96 133.59,-95.4"/>
<polygon fill="midnightblue" stroke="midnightblue" points="134.5,-92.01 123.91,-92.01 132.19,-98.62 134.5,-92.01"/>
</g>
<!-- Node38 -->
<g id="node6" class="node">
<title>Node38</title>
<g id="a_node6"><a xlink:href="numeric_8h.html" target="_top" xlink:title=" ">
<polygon fill="white" stroke="red" points="305.1,-0.5 305.1,-30.5 414.1,-30.5 414.1,-0.5 305.1,-0.5"/>
<text text-anchor="start" x="313.1" y="-18.5" font-family="Helvetica,sans-Serif" font-size="10.00">emlabcpp/iterators</text>
<text text-anchor="middle" x="359.6" y="-7.5" font-family="Helvetica,sans-Serif" font-size="10.00">/numeric.h</text>
</a>
</g>
</g>
<!-- Node29&#45;&gt;Node38 -->
<g id="edge6" class="edge">
<title>Node29&#45;&gt;Node38</title>
<path fill="none" stroke="midnightblue" d="M266.76,-134.29C262.45,-119.34 256.01,-88.38 268.6,-67 276.79,-53.08 290.36,-42.72 304.56,-35.14"/>
<polygon fill="midnightblue" stroke="midnightblue" points="306.49,-38.09 313.92,-30.54 303.4,-31.8 306.49,-38.09"/>
</g>
<!-- Node50 -->
<g id="node7" class="node">
<title>Node50</title>
<g id="a_node7"><a xlink:href="serializer_8h.html" target="_top" xlink:title=" ">
<polygon fill="white" stroke="red" points="277.6,-73 277.6,-92 441.6,-92 441.6,-73 277.6,-73"/>
<text text-anchor="middle" x="359.6" y="-80" font-family="Helvetica,sans-Serif" font-size="10.00">emlabcpp/protocol/serializer.h</text>
</a>
</g>
</g>
<!-- Node29&#45;&gt;Node50 -->
<g id="edge7" class="edge">
<title>Node29&#45;&gt;Node50</title>
<path fill="none" stroke="midnightblue" d="M282.49,-134.48C297.06,-124.84 321,-109.02 338.34,-97.55"/>
<polygon fill="midnightblue" stroke="midnightblue" points="340.31,-100.44 346.73,-92.01 336.45,-94.6 340.31,-100.44"/>
</g>
<!-- Node50&#45;&gt;Node38 -->
<g id="edge8" class="edge">
<title>Node50&#45;&gt;Node38</title>
<path fill="none" stroke="midnightblue" d="M359.6,-72.73C359.6,-64.54 359.6,-51.92 359.6,-40.71"/>
<polygon fill="midnightblue" stroke="midnightblue" points="363.1,-40.59 359.6,-30.59 356.1,-40.59 363.1,-40.59"/>
</g>
<!-- Node40 -->
<g id="node8" class="node">
<title>Node40</title>
<g id="a_node8"><a xlink:href="protocol_2base_8h.html" target="_top" xlink:title=" ">
<polygon fill="white" stroke="red" points="632.1,-6 632.1,-25 775.1,-25 775.1,-6 632.1,-6"/>
<text text-anchor="middle" x="703.6" y="-13" font-family="Helvetica,sans-Serif" font-size="10.00">emlabcpp/protocol/base.h</text>
</a>
</g>
</g>
<!-- Node50&#45;&gt;Node40 -->
<g id="edge9" class="edge">
<title>Node50&#45;&gt;Node40</title>
<path fill="none" stroke="midnightblue" d="M404.92,-72.94C467.66,-61.08 580.84,-39.7 648.41,-26.93"/>
<polygon fill="midnightblue" stroke="midnightblue" points="649.27,-30.33 658.44,-25.03 647.97,-23.45 649.27,-30.33"/>
</g>
<!-- Node52&#45;&gt;Node50 -->
<g id="edge13" class="edge">
<title>Node52&#45;&gt;Node50</title>
<path fill="none" stroke="midnightblue" d="M399.29,-195.95C395.43,-185.93 388.9,-168.82 383.6,-154 377.27,-136.35 370.41,-116.07 365.65,-101.81"/>
<polygon fill="midnightblue" stroke="midnightblue" points="368.94,-100.6 362.46,-92.21 362.3,-102.81 368.94,-100.6"/>
</g>
<!-- Node53 -->
<g id="node10" class="node">
<title>Node53</title>
<g id="a_node10"><a xlink:href="sequencer_8h.html" target="_top" xlink:title=" ">
<polygon fill="white" stroke="red" points="15.1,-134.5 15.1,-153.5 184.1,-153.5 184.1,-134.5 15.1,-134.5"/>
<text text-anchor="middle" x="99.6" y="-141.5" font-family="Helvetica,sans-Serif" font-size="10.00">emlabcpp/protocol/sequencer.h</text>
</a>
</g>
</g>
<!-- Node52&#45;&gt;Node53 -->
<g id="edge11" class="edge">
<title>Node52&#45;&gt;Node53</title>
<path fill="none" stroke="midnightblue" d="M359.18,-195.98C304.73,-185.28 211.42,-166.96 152.75,-155.44"/>
<polygon fill="midnightblue" stroke="midnightblue" points="153.42,-152 142.93,-153.51 152.07,-158.87 153.42,-152"/>
</g>
<!-- Node55 -->
<g id="node11" class="node">
<title>Node55</title>
<g id="a_node11"><a xlink:href="tuple_8h.html" target="_top" xlink:title=" ">
<polygon fill="white" stroke="red" points="392.6,-134.5 392.6,-153.5 536.6,-153.5 536.6,-134.5 392.6,-134.5"/>
<text text-anchor="middle" x="464.6" y="-141.5" font-family="Helvetica,sans-Serif" font-size="10.00">emlabcpp/protocol/tuple.h</text>
</a>
</g>
</g>
<!-- Node52&#45;&gt;Node55 -->
<g id="edge14" class="edge">
<title>Node52&#45;&gt;Node55</title>
<path fill="none" stroke="midnightblue" d="M411.48,-195.98C421.06,-186.78 436.51,-171.96 448.28,-160.66"/>
<polygon fill="midnightblue" stroke="midnightblue" points="450.94,-162.96 455.73,-153.51 446.09,-157.91 450.94,-162.96"/>
</g>
<!-- Node53&#45;&gt;Node4 -->
<g id="edge12" class="edge">
<title>Node53&#45;&gt;Node4</title>
<path fill="none" stroke="midnightblue" d="M99.6,-134.48C99.6,-126.08 99.6,-112.98 99.6,-102.16"/>
<polygon fill="midnightblue" stroke="midnightblue" points="103.1,-102.01 99.6,-92.01 96.1,-102.01 103.1,-102.01"/>
</g>
<!-- Node56&#45;&gt;Node38 -->
<g id="edge17" class="edge">
<title>Node56&#45;&gt;Node38</title>
<path fill="none" stroke="midnightblue" d="M596.29,-134.44C564.59,-127.48 522.59,-115.84 488.6,-98 469.3,-87.87 468.64,-79.23 450.6,-67 433.56,-55.46 413.67,-44.19 396.83,-35.23"/>
<polygon fill="midnightblue" stroke="midnightblue" points="398.31,-32.06 387.83,-30.51 395.06,-38.26 398.31,-32.06"/>
</g>
<!-- Node56&#45;&gt;Node40 -->
<g id="edge18" class="edge">
<title>Node56&#45;&gt;Node40</title>
<path fill="none" stroke="midnightblue" d="M653.97,-134.45C663.38,-126.11 676.92,-112.59 684.6,-98 695.03,-78.15 699.79,-52.6 701.93,-35.45"/>
<polygon fill="midnightblue" stroke="midnightblue" points="705.45,-35.4 703.02,-25.09 698.49,-34.66 705.45,-35.4"/>
</g>
<!-- Node17 -->
<g id="node13" class="node">
<title>Node17</title>
<g id="a_node13"><a xlink:href="enum_8h.html" target="_top" xlink:title=" ">
<polygon fill="white" stroke="black" points="497.6,-73 497.6,-92 601.6,-92 601.6,-73 497.6,-73"/>
<text text-anchor="middle" x="549.6" y="-80" font-family="Helvetica,sans-Serif" font-size="10.00">emlabcpp/enum.h</text>
</a>
</g>
</g>
<!-- Node56&#45;&gt;Node17 -->
<g id="edge16" class="edge">
<title>Node56&#45;&gt;Node17</title>
<path fill="none" stroke="midnightblue" d="M630.13,-134.48C614.91,-124.84 589.91,-109.02 571.8,-97.55"/>
<polygon fill="midnightblue" stroke="midnightblue" points="573.36,-94.4 563.04,-92.01 569.62,-100.31 573.36,-94.4"/>
</g>
<!-- Node57 -->
<g id="node14" class="node">
<title>Node57</title>
<g id="a_node14"><a xlink:href="register__map_8h.html" target="_top" xlink:title=" ">
<polygon fill="white" stroke="red" points="731.6,-67.5 731.6,-97.5 879.6,-97.5 879.6,-67.5 731.6,-67.5"/>
<text text-anchor="start" x="739.6" y="-85.5" font-family="Helvetica,sans-Serif" font-size="10.00">emlabcpp/protocol/register</text>
<text text-anchor="middle" x="805.6" y="-74.5" font-family="Helvetica,sans-Serif" font-size="10.00">_map.h</text>
</a>
</g>
</g>
<!-- Node56&#45;&gt;Node57 -->
<g id="edge19" class="edge">
<title>Node56&#45;&gt;Node57</title>
<path fill="none" stroke="midnightblue" d="M666.81,-134.48C690.49,-125.78 727.93,-112.03 757.95,-101"/>
<polygon fill="midnightblue" stroke="midnightblue" points="759.24,-104.26 767.42,-97.52 756.82,-97.69 759.24,-104.26"/>
</g>
<!-- Node58 -->
<g id="node15" class="node">
<title>Node58</title>
<g id="a_node15"><a xlink:title=" ">
<polygon fill="white" stroke="#bfbfbf" points="619.6,-73 619.6,-92 675.6,-92 675.6,-73 619.6,-73"/>
<text text-anchor="middle" x="647.6" y="-80" font-family="Helvetica,sans-Serif" font-size="10.00">iomanip</text>
</a>
</g>
</g>
<!-- Node56&#45;&gt;Node58 -->
<g id="edge21" class="edge">
<title>Node56&#45;&gt;Node58</title>
<path fill="none" stroke="midnightblue" d="M644.17,-134.48C644.73,-126.08 645.61,-112.98 646.34,-102.16"/>
<polygon fill="midnightblue" stroke="midnightblue" points="649.85,-102.22 647.02,-92.01 642.86,-101.75 649.85,-102.22"/>
</g>
<!-- Node57&#45;&gt;Node40 -->
<g id="edge20" class="edge">
<title>Node57&#45;&gt;Node40</title>
<path fill="none" stroke="midnightblue" d="M783.46,-67.4C766.36,-56.5 742.79,-41.48 725.7,-30.58"/>
<polygon fill="midnightblue" stroke="midnightblue" points="727.26,-27.43 716.95,-25.01 723.5,-33.33 727.26,-27.43"/>
</g>
</g>
</svg>
