<?xml version="1.0" encoding="UTF-8" standalone="no"?>
<!DOCTYPE svg PUBLIC "-//W3C//DTD SVG 1.1//EN"
 "http://www.w3.org/Graphics/SVG/1.1/DTD/svg11.dtd">
<!-- Generated by graphviz version 2.43.0 (0)
 -->
<!-- Title: include/emlabcpp/protocol/packet_handler.h Pages: 1 -->
<svg width="998pt" height="296pt"
 viewBox="0.00 0.00 998.00 296.00" xmlns="http://www.w3.org/2000/svg" xmlns:xlink="http://www.w3.org/1999/xlink">
<g id="graph0" class="graph" transform="scale(1 1) rotate(0) translate(4 292)">
<title>include/emlabcpp/protocol/packet_handler.h</title>
<polygon fill="white" stroke="transparent" points="-4,4 -4,-292 994,-292 994,4 -4,4"/>
<!-- Node1 -->
<g id="node1" class="node">
<title>Node1</title>
<g id="a_node1"><a xlink:title=" ">
<polygon fill="#bfbfbf" stroke="black" points="342,-257.5 342,-287.5 488,-287.5 488,-257.5 342,-257.5"/>
<text text-anchor="start" x="350" y="-275.5" font-family="Helvetica,sans-Serif" font-size="10.00">include/emlabcpp/protocol</text>
<text text-anchor="middle" x="415" y="-264.5" font-family="Helvetica,sans-Serif" font-size="10.00">/packet_handler.h</text>
</a>
</g>
</g>
<!-- Node2 -->
<g id="node2" class="node">
<title>Node2</title>
<g id="a_node2"><a xlink:href="logging_8h.html" target="_top" xlink:title=" ">
<polygon fill="white" stroke="black" points="100.5,-190.5 100.5,-220.5 233.5,-220.5 233.5,-190.5 100.5,-190.5"/>
<text text-anchor="start" x="108.5" y="-208.5" font-family="Helvetica,sans-Serif" font-size="10.00">emlabcpp/experimental</text>
<text text-anchor="middle" x="167" y="-197.5" font-family="Helvetica,sans-Serif" font-size="10.00">/logging.h</text>
</a>
</g>
</g>
<!-- Node1&#45;&gt;Node2 -->
<g id="edge1" class="edge">
<title>Node1&#45;&gt;Node2</title>
<path fill="none" stroke="midnightblue" d="M361.49,-257.48C323.08,-247.41 271.16,-233.8 230.62,-223.17"/>
<polygon fill="midnightblue" stroke="midnightblue" points="231.4,-219.76 220.84,-220.61 229.62,-226.53 231.4,-219.76"/>
</g>
<!-- Node3 -->
<g id="node3" class="node">
<title>Node3</title>
<g id="a_node3"><a xlink:href="handler_8h.html" target="_top" xlink:title=" ">
<polygon fill="white" stroke="black" points="251.5,-196 251.5,-215 406.5,-215 406.5,-196 251.5,-196"/>
<text text-anchor="middle" x="329" y="-203" font-family="Helvetica,sans-Serif" font-size="10.00">emlabcpp/protocol/handler.h</text>
</a>
</g>
</g>
<!-- Node1&#45;&gt;Node3 -->
<g id="edge2" class="edge">
<title>Node1&#45;&gt;Node3</title>
<path fill="none" stroke="midnightblue" d="M396.34,-257.4C382.27,-246.76 363.01,-232.2 348.69,-221.38"/>
<polygon fill="midnightblue" stroke="midnightblue" points="350.59,-218.43 340.5,-215.19 346.37,-224.02 350.59,-218.43"/>
</g>
<!-- Node55 -->
<g id="node10" class="node">
<title>Node55</title>
<g id="a_node10"><a xlink:href="packet_8h.html" target="_top" xlink:title=" ">
<polygon fill="white" stroke="black" points="425,-196 425,-215 577,-215 577,-196 425,-196"/>
<text text-anchor="middle" x="501" y="-203" font-family="Helvetica,sans-Serif" font-size="10.00">emlabcpp/protocol/packet.h</text>
</a>
</g>
</g>
<!-- Node1&#45;&gt;Node55 -->
<g id="edge12" class="edge">
<title>Node1&#45;&gt;Node55</title>
<path fill="none" stroke="midnightblue" d="M433.66,-257.4C447.73,-246.76 466.99,-232.2 481.31,-221.38"/>
<polygon fill="midnightblue" stroke="midnightblue" points="483.63,-224.02 489.5,-215.19 479.41,-218.43 483.63,-224.02"/>
</g>
<!-- Node59 -->
<g id="node13" class="node">
<title>Node59</title>
<g id="a_node13"><a xlink:href="streams_8h.html" target="_top" xlink:title=" ">
<polygon fill="white" stroke="black" points="629.5,-134.5 629.5,-153.5 788.5,-153.5 788.5,-134.5 629.5,-134.5"/>
<text text-anchor="middle" x="709" y="-141.5" font-family="Helvetica,sans-Serif" font-size="10.00">emlabcpp/protocol/streams.h</text>
</a>
</g>
</g>
<!-- Node1&#45;&gt;Node59 -->
<g id="edge17" class="edge">
<title>Node1&#45;&gt;Node59</title>
<path fill="none" stroke="midnightblue" d="M476.96,-257.46C510.07,-248.9 551.1,-236.6 586,-221 624.61,-203.74 665.67,-176.28 689.24,-159.52"/>
<polygon fill="midnightblue" stroke="midnightblue" points="691.3,-162.35 697.37,-153.67 687.21,-156.67 691.3,-162.35"/>
</g>
<!-- Node4 -->
<g id="node4" class="node">
<title>Node4</title>
<g id="a_node4"><a xlink:href="either_8h.html" target="_top" xlink:title=" ">
<polygon fill="white" stroke="red" points="57,-73 57,-92 161,-92 161,-73 57,-73"/>
<text text-anchor="middle" x="109" y="-80" font-family="Helvetica,sans-Serif" font-size="10.00">emlabcpp/either.h</text>
</a>
</g>
</g>
<!-- Node3&#45;&gt;Node4 -->
<g id="edge3" class="edge">
<title>Node3&#45;&gt;Node4</title>
<path fill="none" stroke="midnightblue" d="M279.52,-195.95C199.86,-182.14 51.84,-156.21 50,-154 33.56,-134.32 61,-111.57 83.71,-97.36"/>
<polygon fill="midnightblue" stroke="midnightblue" points="85.6,-100.31 92.39,-92.18 82.01,-94.3 85.6,-100.31"/>
</g>
<!-- Node22 -->
<g id="node5" class="node">
<title>Node22</title>
<g id="a_node5"><a xlink:href="types_8h.html" target="_top" xlink:title=" ">
<polygon fill="white" stroke="red" points="0,-6 0,-25 104,-25 104,-6 0,-6"/>
<text text-anchor="middle" x="52" y="-13" font-family="Helvetica,sans-Serif" font-size="10.00">emlabcpp/types.h</text>
</a>
</g>
</g>
<!-- Node3&#45;&gt;Node22 -->
<g id="edge11" class="edge">
<title>Node3&#45;&gt;Node22</title>
<path fill="none" stroke="midnightblue" d="M279.21,-195.94C197.29,-181.84 42.96,-155.14 42,-154 13.49,-120.04 31.48,-63.23 43.6,-34.42"/>
<polygon fill="midnightblue" stroke="midnightblue" points="46.85,-35.73 47.7,-25.17 40.45,-32.89 46.85,-35.73"/>
</g>
<!-- Node31 -->
<g id="node6" class="node">
<title>Node31</title>
<g id="a_node6"><a xlink:href="converter_8h.html" target="_top" xlink:title=" ">
<polygon fill="white" stroke="red" points="246.5,-134.5 246.5,-153.5 411.5,-153.5 411.5,-134.5 246.5,-134.5"/>
<text text-anchor="middle" x="329" y="-141.5" font-family="Helvetica,sans-Serif" font-size="10.00">emlabcpp/protocol/converter.h</text>
</a>
</g>
</g>
<!-- Node3&#45;&gt;Node31 -->
<g id="edge5" class="edge">
<title>Node3&#45;&gt;Node31</title>
<path fill="none" stroke="midnightblue" d="M329,-195.98C329,-187.58 329,-174.48 329,-163.66"/>
<polygon fill="midnightblue" stroke="midnightblue" points="332.5,-163.51 329,-153.51 325.5,-163.51 332.5,-163.51"/>
</g>
<!-- Node4&#45;&gt;Node22 -->
<g id="edge4" class="edge">
<title>Node4&#45;&gt;Node22</title>
<path fill="none" stroke="midnightblue" d="M101.31,-72.73C92.34,-62.5 77.31,-45.36 66.2,-32.69"/>
<polygon fill="midnightblue" stroke="midnightblue" points="68.79,-30.34 59.57,-25.13 63.53,-34.95 68.79,-30.34"/>
</g>
<!-- Node31&#45;&gt;Node4 -->
<g id="edge6" class="edge">
<title>Node31&#45;&gt;Node4</title>
<path fill="none" stroke="midnightblue" d="M297.48,-134.48C258.76,-124 192.98,-106.21 150.26,-94.66"/>
<polygon fill="midnightblue" stroke="midnightblue" points="151.03,-91.24 140.46,-92.01 149.2,-98 151.03,-91.24"/>
</g>
<!-- Node40 -->
<g id="node7" class="node">
<title>Node40</title>
<g id="a_node7"><a xlink:href="numeric_8h.html" target="_top" xlink:title=" ">
<polygon fill="white" stroke="red" points="415.5,-0.5 415.5,-30.5 524.5,-30.5 524.5,-0.5 415.5,-0.5"/>
<text text-anchor="start" x="423.5" y="-18.5" font-family="Helvetica,sans-Serif" font-size="10.00">emlabcpp/iterators</text>
<text text-anchor="middle" x="470" y="-7.5" font-family="Helvetica,sans-Serif" font-size="10.00">/numeric.h</text>
</a>
</g>
</g>
<!-- Node31&#45;&gt;Node40 -->
<g id="edge7" class="edge">
<title>Node31&#45;&gt;Node40</title>
<path fill="none" stroke="midnightblue" d="M333.1,-134.04C340.47,-118.71 357.23,-87.19 379,-67 392.84,-54.16 410.55,-43.39 426.65,-35.14"/>
<polygon fill="midnightblue" stroke="midnightblue" points="428.49,-38.13 435.91,-30.57 425.39,-31.86 428.49,-38.13"/>
</g>
<!-- Node41 -->
<g id="node8" class="node">
<title>Node41</title>
<g id="a_node8"><a xlink:href="serializer_8h.html" target="_top" xlink:title=" ">
<polygon fill="white" stroke="red" points="388,-73 388,-92 552,-92 552,-73 388,-73"/>
<text text-anchor="middle" x="470" y="-80" font-family="Helvetica,sans-Serif" font-size="10.00">emlabcpp/protocol/serializer.h</text>
</a>
</g>
</g>
<!-- Node31&#45;&gt;Node41 -->
<g id="edge8" class="edge">
<title>Node31&#45;&gt;Node41</title>
<path fill="none" stroke="midnightblue" d="M349.2,-134.48C373.07,-124.4 413,-107.55 440.37,-96"/>
<polygon fill="midnightblue" stroke="midnightblue" points="441.98,-99.12 449.84,-92.01 439.26,-92.67 441.98,-99.12"/>
</g>
<!-- Node41&#45;&gt;Node40 -->
<g id="edge9" class="edge">
<title>Node41&#45;&gt;Node40</title>
<path fill="none" stroke="midnightblue" d="M470,-72.73C470,-64.54 470,-51.92 470,-40.71"/>
<polygon fill="midnightblue" stroke="midnightblue" points="473.5,-40.59 470,-30.59 466.5,-40.59 473.5,-40.59"/>
</g>
<!-- Node42 -->
<g id="node9" class="node">
<title>Node42</title>
<g id="a_node9"><a xlink:href="protocol_2base_8h.html" target="_top" xlink:title=" ">
<polygon fill="white" stroke="red" points="546.5,-6 546.5,-25 689.5,-25 689.5,-6 546.5,-6"/>
<text text-anchor="middle" x="618" y="-13" font-family="Helvetica,sans-Serif" font-size="10.00">emlabcpp/protocol/base.h</text>
</a>
</g>
</g>
<!-- Node41&#45;&gt;Node42 -->
<g id="edge10" class="edge">
<title>Node41&#45;&gt;Node42</title>
<path fill="none" stroke="midnightblue" d="M489.65,-72.87C515.09,-61.7 559.6,-42.15 588.95,-29.26"/>
<polygon fill="midnightblue" stroke="midnightblue" points="590.52,-32.39 598.27,-25.17 587.7,-25.98 590.52,-32.39"/>
</g>
<!-- Node55&#45;&gt;Node41 -->
<g id="edge15" class="edge">
<title>Node55&#45;&gt;Node41</title>
<path fill="none" stroke="midnightblue" d="M526.06,-195.97C556.25,-184.26 600.82,-161.49 583,-134 570.38,-114.53 548.3,-102.51 527,-95.1"/>
<polygon fill="midnightblue" stroke="midnightblue" points="527.89,-91.71 517.3,-92.02 525.76,-98.38 527.89,-91.71"/>
</g>
<!-- Node56 -->
<g id="node11" class="node">
<title>Node56</title>
<g id="a_node11"><a xlink:href="sequencer_8h.html" target="_top" xlink:title=" ">
<polygon fill="white" stroke="red" points="59.5,-134.5 59.5,-153.5 228.5,-153.5 228.5,-134.5 59.5,-134.5"/>
<text text-anchor="middle" x="144" y="-141.5" font-family="Helvetica,sans-Serif" font-size="10.00">emlabcpp/protocol/sequencer.h</text>
</a>
</g>
</g>
<!-- Node55&#45;&gt;Node56 -->
<g id="edge13" class="edge">
<title>Node55&#45;&gt;Node56</title>
<path fill="none" stroke="midnightblue" d="M451.12,-195.95C439.59,-193.98 427.37,-191.91 416,-190 343.9,-177.89 261.01,-164.21 205.87,-155.14"/>
<polygon fill="midnightblue" stroke="midnightblue" points="206.34,-151.68 195.9,-153.51 205.2,-158.58 206.34,-151.68"/>
</g>
<!-- Node58 -->
<g id="node12" class="node">
<title>Node58</title>
<g id="a_node12"><a xlink:href="tuple_8h.html" target="_top" xlink:title=" ">
<polygon fill="white" stroke="red" points="430,-134.5 430,-153.5 574,-153.5 574,-134.5 430,-134.5"/>
<text text-anchor="middle" x="502" y="-141.5" font-family="Helvetica,sans-Serif" font-size="10.00">emlabcpp/protocol/tuple.h</text>
</a>
</g>
</g>
<!-- Node55&#45;&gt;Node58 -->
<g id="edge16" class="edge">
<title>Node55&#45;&gt;Node58</title>
<path fill="none" stroke="midnightblue" d="M501.14,-195.98C501.28,-187.58 501.5,-174.48 501.69,-163.66"/>
<polygon fill="midnightblue" stroke="midnightblue" points="505.19,-163.57 501.86,-153.51 498.19,-163.45 505.19,-163.57"/>
</g>
<!-- Node56&#45;&gt;Node4 -->
<g id="edge14" class="edge">
<title>Node56&#45;&gt;Node4</title>
<path fill="none" stroke="midnightblue" d="M138.99,-134.48C133.84,-125.73 125.69,-111.87 119.18,-100.81"/>
<polygon fill="midnightblue" stroke="midnightblue" points="122.09,-98.85 114.01,-92.01 116.06,-102.4 122.09,-98.85"/>
</g>
<!-- Node59&#45;&gt;Node40 -->
<g id="edge19" class="edge">
<title>Node59&#45;&gt;Node40</title>
<path fill="none" stroke="midnightblue" d="M691.31,-134.4C673.09,-125.48 643.92,-111.04 619,-98 579.23,-77.19 534.06,-52.3 503.98,-35.55"/>
<polygon fill="midnightblue" stroke="midnightblue" points="505.59,-32.44 495.16,-30.63 502.18,-38.56 505.59,-32.44"/>
</g>
<!-- Node59&#45;&gt;Node42 -->
<g id="edge20" class="edge">
<title>Node59&#45;&gt;Node42</title>
<path fill="none" stroke="midnightblue" d="M686.46,-134.46C670.29,-127.18 649.26,-115.15 637,-98 623.76,-79.48 619.61,-53.1 618.38,-35.42"/>
<polygon fill="midnightblue" stroke="midnightblue" points="621.87,-35.06 617.93,-25.23 614.88,-35.37 621.87,-35.06"/>
</g>
<!-- Node18 -->
<g id="node14" class="node">
<title>Node18</title>
<g id="a_node14"><a xlink:href="enum_8h.html" target="_top" xlink:title=" ">
<polygon fill="white" stroke="black" points="646,-73 646,-92 750,-92 750,-73 646,-73"/>
<text text-anchor="middle" x="698" y="-80" font-family="Helvetica,sans-Serif" font-size="10.00">emlabcpp/enum.h</text>
</a>
</g>
</g>
<!-- Node59&#45;&gt;Node18 -->
<g id="edge18" class="edge">
<title>Node59&#45;&gt;Node18</title>
<path fill="none" stroke="midnightblue" d="M707.42,-134.48C705.87,-126.08 703.45,-112.98 701.45,-102.16"/>
<polygon fill="midnightblue" stroke="midnightblue" points="704.83,-101.21 699.57,-92.01 697.95,-102.48 704.83,-101.21"/>
</g>
<!-- Node60 -->
<g id="node15" class="node">
<title>Node60</title>
<g id="a_node15"><a xlink:href="register__map_8h.html" target="_top" xlink:title=" ">
<polygon fill="white" stroke="red" points="842,-67.5 842,-97.5 990,-97.5 990,-67.5 842,-67.5"/>
<text text-anchor="start" x="850" y="-85.5" font-family="Helvetica,sans-Serif" font-size="10.00">emlabcpp/protocol/register</text>
<text text-anchor="middle" x="916" y="-74.5" font-family="Helvetica,sans-Serif" font-size="10.00">_map.h</text>
</a>
</g>
</g>
<!-- Node59&#45;&gt;Node60 -->
<g id="edge21" class="edge">
<title>Node59&#45;&gt;Node60</title>
<path fill="none" stroke="midnightblue" d="M738.66,-134.48C769.58,-125.59 818.84,-111.43 857.6,-100.29"/>
<polygon fill="midnightblue" stroke="midnightblue" points="858.57,-103.65 867.21,-97.52 856.64,-96.92 858.57,-103.65"/>
</g>
<!-- Node61 -->
<g id="node16" class="node">
<title>Node61</title>
<g id="a_node16"><a xlink:title=" ">
<polygon fill="white" stroke="#bfbfbf" points="768,-73 768,-92 824,-92 824,-73 768,-73"/>
<text text-anchor="middle" x="796" y="-80" font-family="Helvetica,sans-Serif" font-size="10.00">iomanip</text>
</a>
</g>
</g>
<!-- Node59&#45;&gt;Node61 -->
<g id="edge23" class="edge">
<title>Node59&#45;&gt;Node61</title>
<path fill="none" stroke="midnightblue" d="M721.46,-134.48C735.42,-124.93 758.26,-109.31 774.99,-97.87"/>
<polygon fill="midnightblue" stroke="midnightblue" points="777.28,-100.54 783.56,-92.01 773.33,-94.77 777.28,-100.54"/>
</g>
<!-- Node60&#45;&gt;Node42 -->
<g id="edge22" class="edge">
<title>Node60&#45;&gt;Node42</title>
<path fill="none" stroke="midnightblue" d="M851.71,-67.48C796.32,-55.4 717.55,-38.21 667.11,-27.21"/>
<polygon fill="midnightblue" stroke="midnightblue" points="667.62,-23.74 657.1,-25.03 666.12,-30.58 667.62,-23.74"/>
</g>
</g>
</svg>
