<?xml version="1.0" encoding="UTF-8" standalone="no"?>
<!DOCTYPE svg PUBLIC "-//W3C//DTD SVG 1.1//EN"
 "http://www.w3.org/Graphics/SVG/1.1/DTD/svg11.dtd">
<!-- Generated by graphviz version 2.43.0 (0)
 -->
<!-- Title: include/emlabcpp/protocol/packet.h Pages: 1 -->
<svg width="998pt" height="218pt"
 viewBox="0.00 0.00 997.50 218.00" xmlns="http://www.w3.org/2000/svg" xmlns:xlink="http://www.w3.org/1999/xlink">
<g id="graph0" class="graph" transform="scale(1 1) rotate(0) translate(4 214)">
<title>include/emlabcpp/protocol/packet.h</title>
<polygon fill="white" stroke="transparent" points="-4,4 -4,-214 993.5,-214 993.5,4 -4,4"/>
<!-- Node1 -->
<g id="node1" class="node">
<title>Node1</title>
<g id="a_node1"><a xlink:title=" ">
<polygon fill="#bfbfbf" stroke="black" points="624.5,-179.5 624.5,-209.5 770.5,-209.5 770.5,-179.5 624.5,-179.5"/>
<text text-anchor="start" x="632.5" y="-197.5" font-family="Helvetica,sans-Serif" font-size="10.00">include/emlabcpp/protocol</text>
<text text-anchor="middle" x="697.5" y="-186.5" font-family="Helvetica,sans-Serif" font-size="10.00">/packet.h</text>
</a>
</g>
</g>
<!-- Node2 -->
<g id="node2" class="node">
<title>Node2</title>
<g id="a_node2"><a xlink:href="sequencer_8h.html" target="_top" xlink:title=" ">
<polygon fill="white" stroke="black" points="231,-123.5 231,-142.5 400,-142.5 400,-123.5 231,-123.5"/>
<text text-anchor="middle" x="315.5" y="-130.5" font-family="Helvetica,sans-Serif" font-size="10.00">emlabcpp/protocol/sequencer.h</text>
</a>
</g>
</g>
<!-- Node1&#45;&gt;Node2 -->
<g id="edge1" class="edge">
<title>Node1&#45;&gt;Node2</title>
<path fill="none" stroke="midnightblue" d="M624.3,-182.1C553.72,-171.11 447.94,-154.63 380.33,-144.1"/>
<polygon fill="midnightblue" stroke="midnightblue" points="380.65,-140.6 370.23,-142.52 379.57,-147.52 380.65,-140.6"/>
</g>
<!-- Node32 -->
<g id="node7" class="node">
<title>Node32</title>
<g id="a_node7"><a xlink:href="serializer_8h.html" target="_top" xlink:title=" ">
<polygon fill="white" stroke="black" points="615.5,-123.5 615.5,-142.5 779.5,-142.5 779.5,-123.5 615.5,-123.5"/>
<text text-anchor="middle" x="697.5" y="-130.5" font-family="Helvetica,sans-Serif" font-size="10.00">emlabcpp/protocol/serializer.h</text>
</a>
</g>
</g>
<!-- Node1&#45;&gt;Node32 -->
<g id="edge6" class="edge">
<title>Node1&#45;&gt;Node32</title>
<path fill="none" stroke="midnightblue" d="M697.5,-179.4C697.5,-171.47 697.5,-161.46 697.5,-152.86"/>
<polygon fill="midnightblue" stroke="midnightblue" points="701,-152.66 697.5,-142.66 694,-152.66 701,-152.66"/>
</g>
<!-- Node42 -->
<g id="node12" class="node">
<title>Node42</title>
<g id="a_node12"><a xlink:href="tuple_8h.html" target="_top" xlink:title=" ">
<polygon fill="white" stroke="black" points="830.5,-123.5 830.5,-142.5 974.5,-142.5 974.5,-123.5 830.5,-123.5"/>
<text text-anchor="middle" x="902.5" y="-130.5" font-family="Helvetica,sans-Serif" font-size="10.00">emlabcpp/protocol/tuple.h</text>
</a>
</g>
</g>
<!-- Node1&#45;&gt;Node42 -->
<g id="edge11" class="edge">
<title>Node1&#45;&gt;Node42</title>
<path fill="none" stroke="midnightblue" d="M745.82,-179.47C781.65,-169.08 829.88,-155.08 863.32,-145.37"/>
<polygon fill="midnightblue" stroke="midnightblue" points="864.56,-148.66 873.19,-142.51 862.61,-141.93 864.56,-148.66"/>
</g>
<!-- Node3 -->
<g id="node3" class="node">
<title>Node3</title>
<g id="a_node3"><a xlink:href="assert_8h.html" target="_top" xlink:title=" ">
<polygon fill="white" stroke="red" points="0,-62 0,-81 107,-81 107,-62 0,-62"/>
<text text-anchor="middle" x="53.5" y="-69" font-family="Helvetica,sans-Serif" font-size="10.00">emlabcpp/assert.h</text>
</a>
</g>
</g>
<!-- Node2&#45;&gt;Node3 -->
<g id="edge2" class="edge">
<title>Node2&#45;&gt;Node3</title>
<path fill="none" stroke="midnightblue" d="M277.71,-123.5C237.67,-114.48 172.62,-99.8 116.5,-87 111.23,-85.8 105.72,-84.54 100.24,-83.28"/>
<polygon fill="midnightblue" stroke="midnightblue" points="101,-79.86 90.47,-81.03 99.43,-86.68 101,-79.86"/>
</g>
<!-- Node5 -->
<g id="node4" class="node">
<title>Node5</title>
<g id="a_node4"><a xlink:href="either_8h.html" target="_top" xlink:title=" ">
<polygon fill="white" stroke="red" points="125.5,-62 125.5,-81 229.5,-81 229.5,-62 125.5,-62"/>
<text text-anchor="middle" x="177.5" y="-69" font-family="Helvetica,sans-Serif" font-size="10.00">emlabcpp/either.h</text>
</a>
</g>
</g>
<!-- Node2&#45;&gt;Node5 -->
<g id="edge3" class="edge">
<title>Node2&#45;&gt;Node5</title>
<path fill="none" stroke="midnightblue" d="M295.73,-123.48C272.36,-113.4 233.29,-96.55 206.5,-85"/>
<polygon fill="midnightblue" stroke="midnightblue" points="207.8,-81.75 197.24,-81.01 205.03,-88.18 207.8,-81.75"/>
</g>
<!-- Node30 -->
<g id="node5" class="node">
<title>Node30</title>
<g id="a_node5"><a xlink:href="static__circular__buffer_8h.html" target="_top" xlink:title=" ">
<polygon fill="white" stroke="red" points="247.5,-56.5 247.5,-86.5 383.5,-86.5 383.5,-56.5 247.5,-56.5"/>
<text text-anchor="start" x="255.5" y="-74.5" font-family="Helvetica,sans-Serif" font-size="10.00">emlabcpp/static_circular</text>
<text text-anchor="middle" x="315.5" y="-63.5" font-family="Helvetica,sans-Serif" font-size="10.00">_buffer.h</text>
</a>
</g>
</g>
<!-- Node2&#45;&gt;Node30 -->
<g id="edge4" class="edge">
<title>Node2&#45;&gt;Node30</title>
<path fill="none" stroke="midnightblue" d="M315.5,-123.48C315.5,-116.47 315.5,-106.19 315.5,-96.7"/>
<polygon fill="midnightblue" stroke="midnightblue" points="319,-96.52 315.5,-86.52 312,-96.52 319,-96.52"/>
</g>
<!-- Node9 -->
<g id="node6" class="node">
<title>Node9</title>
<g id="a_node6"><a xlink:title=" ">
<polygon fill="white" stroke="#bfbfbf" points="401.5,-62 401.5,-81 443.5,-81 443.5,-62 401.5,-62"/>
<text text-anchor="middle" x="422.5" y="-69" font-family="Helvetica,sans-Serif" font-size="10.00">array</text>
</a>
</g>
</g>
<!-- Node2&#45;&gt;Node9 -->
<g id="edge5" class="edge">
<title>Node2&#45;&gt;Node9</title>
<path fill="none" stroke="midnightblue" d="M330.83,-123.48C348.47,-113.67 377.66,-97.43 398.36,-85.92"/>
<polygon fill="midnightblue" stroke="midnightblue" points="400.16,-88.93 407.2,-81.01 396.76,-82.81 400.16,-88.93"/>
</g>
<!-- Node33 -->
<g id="node8" class="node">
<title>Node33</title>
<g id="a_node8"><a xlink:href="bounded__view_8h.html" target="_top" xlink:title=" ">
<polygon fill="white" stroke="red" points="461.5,-62 461.5,-81 607.5,-81 607.5,-62 461.5,-62"/>
<text text-anchor="middle" x="534.5" y="-69" font-family="Helvetica,sans-Serif" font-size="10.00">emlabcpp/bounded_view.h</text>
</a>
</g>
</g>
<!-- Node32&#45;&gt;Node33 -->
<g id="edge7" class="edge">
<title>Node32&#45;&gt;Node33</title>
<path fill="none" stroke="midnightblue" d="M674.15,-123.48C646.19,-113.27 599.17,-96.11 567.51,-84.55"/>
<polygon fill="midnightblue" stroke="midnightblue" points="568.4,-81.15 557.81,-81.01 566,-87.73 568.4,-81.15"/>
</g>
<!-- Node35 -->
<g id="node9" class="node">
<title>Node35</title>
<g id="a_node9"><a xlink:href="numeric_8h.html" target="_top" xlink:title=" ">
<polygon fill="white" stroke="red" points="626,-56.5 626,-86.5 735,-86.5 735,-56.5 626,-56.5"/>
<text text-anchor="start" x="634" y="-74.5" font-family="Helvetica,sans-Serif" font-size="10.00">emlabcpp/iterators</text>
<text text-anchor="middle" x="680.5" y="-63.5" font-family="Helvetica,sans-Serif" font-size="10.00">/numeric.h</text>
</a>
</g>
</g>
<!-- Node32&#45;&gt;Node35 -->
<g id="edge8" class="edge">
<title>Node32&#45;&gt;Node35</title>
<path fill="none" stroke="midnightblue" d="M695.06,-123.48C693.04,-116.4 690.06,-105.97 687.33,-96.39"/>
<polygon fill="midnightblue" stroke="midnightblue" points="690.62,-95.18 684.51,-86.52 683.89,-97.1 690.62,-95.18"/>
</g>
<!-- Node36 -->
<g id="node10" class="node">
<title>Node36</title>
<g id="a_node10"><a xlink:href="protocol_2base_8h.html" target="_top" xlink:title=" ">
<polygon fill="white" stroke="red" points="770,-0.5 770,-19.5 913,-19.5 913,-0.5 770,-0.5"/>
<text text-anchor="middle" x="841.5" y="-7.5" font-family="Helvetica,sans-Serif" font-size="10.00">emlabcpp/protocol/base.h</text>
</a>
</g>
</g>
<!-- Node32&#45;&gt;Node36 -->
<g id="edge9" class="edge">
<title>Node32&#45;&gt;Node36</title>
<path fill="none" stroke="midnightblue" d="M706.72,-123.32C722.11,-108.95 754.12,-79.45 782.5,-56 795.16,-45.54 809.85,-34.33 821.4,-25.72"/>
<polygon fill="midnightblue" stroke="midnightblue" points="823.58,-28.46 829.54,-19.7 819.42,-22.84 823.58,-28.46"/>
</g>
<!-- Node41 -->
<g id="node11" class="node">
<title>Node41</title>
<g id="a_node11"><a xlink:title=" ">
<polygon fill="white" stroke="#bfbfbf" points="791.5,-62 791.5,-81 831.5,-81 831.5,-62 791.5,-62"/>
<text text-anchor="middle" x="811.5" y="-69" font-family="Helvetica,sans-Serif" font-size="10.00">span</text>
</a>
</g>
</g>
<!-- Node32&#45;&gt;Node41 -->
<g id="edge10" class="edge">
<title>Node32&#45;&gt;Node41</title>
<path fill="none" stroke="midnightblue" d="M713.83,-123.48C732.71,-113.62 764.01,-97.29 786.08,-85.77"/>
<polygon fill="midnightblue" stroke="midnightblue" points="787.95,-88.74 795.2,-81.01 784.71,-82.53 787.95,-88.74"/>
</g>
<!-- Node43 -->
<g id="node13" class="node">
<title>Node43</title>
<g id="a_node13"><a xlink:href="decl_8h.html" target="_top" xlink:title=" ">
<polygon fill="white" stroke="red" points="849.5,-62 849.5,-81 989.5,-81 989.5,-62 849.5,-62"/>
<text text-anchor="middle" x="919.5" y="-69" font-family="Helvetica,sans-Serif" font-size="10.00">emlabcpp/protocol/decl.h</text>
</a>
</g>
</g>
<!-- Node42&#45;&gt;Node43 -->
<g id="edge12" class="edge">
<title>Node42&#45;&gt;Node43</title>
<path fill="none" stroke="midnightblue" d="M904.94,-123.48C907.36,-114.99 911.16,-101.7 914.27,-90.82"/>
<polygon fill="midnightblue" stroke="midnightblue" points="917.69,-91.59 917.07,-81.01 910.96,-89.66 917.69,-91.59"/>
</g>
<!-- Node43&#45;&gt;Node36 -->
<g id="edge13" class="edge">
<title>Node43&#45;&gt;Node36</title>
<path fill="none" stroke="midnightblue" d="M908.32,-61.98C895.93,-52.52 875.71,-37.1 860.75,-25.69"/>
<polygon fill="midnightblue" stroke="midnightblue" points="862.73,-22.79 852.65,-19.51 858.48,-28.36 862.73,-22.79"/>
</g>
</g>
</svg>
