<?xml version="1.0" encoding="UTF-8" standalone="no"?>
<!DOCTYPE svg PUBLIC "-//W3C//DTD SVG 1.1//EN"
 "http://www.w3.org/Graphics/SVG/1.1/DTD/svg11.dtd">
<!-- Generated by graphviz version 2.43.0 (0)
 -->
<!-- Title: include/emlabcpp/protocol/packet_handler.h Pages: 1 -->
<svg width="989pt" height="296pt"
 viewBox="0.00 0.00 989.00 296.00" xmlns="http://www.w3.org/2000/svg" xmlns:xlink="http://www.w3.org/1999/xlink">
<g id="graph0" class="graph" transform="scale(1 1) rotate(0) translate(4 292)">
<title>include/emlabcpp/protocol/packet_handler.h</title>
<polygon fill="white" stroke="transparent" points="-4,4 -4,-292 985,-292 985,4 -4,4"/>
<!-- Node1 -->
<g id="node1" class="node">
<title>Node1</title>
<g id="a_node1"><a xlink:title=" ">
<polygon fill="#bfbfbf" stroke="black" points="330,-257.5 330,-287.5 476,-287.5 476,-257.5 330,-257.5"/>
<text text-anchor="start" x="338" y="-275.5" font-family="Helvetica,sans-Serif" font-size="10.00">include/emlabcpp/protocol</text>
<text text-anchor="middle" x="403" y="-264.5" font-family="Helvetica,sans-Serif" font-size="10.00">/packet_handler.h</text>
</a>
</g>
</g>
<!-- Node2 -->
<g id="node2" class="node">
<title>Node2</title>
<g id="a_node2"><a xlink:href="logging_8h.html" target="_top" xlink:title=" ">
<polygon fill="white" stroke="black" points="88.5,-190.5 88.5,-220.5 221.5,-220.5 221.5,-190.5 88.5,-190.5"/>
<text text-anchor="start" x="96.5" y="-208.5" font-family="Helvetica,sans-Serif" font-size="10.00">emlabcpp/experimental</text>
<text text-anchor="middle" x="155" y="-197.5" font-family="Helvetica,sans-Serif" font-size="10.00">/logging.h</text>
</a>
</g>
</g>
<!-- Node1&#45;&gt;Node2 -->
<g id="edge1" class="edge">
<title>Node1&#45;&gt;Node2</title>
<path fill="none" stroke="midnightblue" d="M349.49,-257.48C311.08,-247.41 259.16,-233.8 218.62,-223.17"/>
<polygon fill="midnightblue" stroke="midnightblue" points="219.4,-219.76 208.84,-220.61 217.62,-226.53 219.4,-219.76"/>
</g>
<!-- Node3 -->
<g id="node3" class="node">
<title>Node3</title>
<g id="a_node3"><a xlink:href="handler_8h.html" target="_top" xlink:title=" ">
<polygon fill="white" stroke="black" points="239.5,-196 239.5,-215 394.5,-215 394.5,-196 239.5,-196"/>
<text text-anchor="middle" x="317" y="-203" font-family="Helvetica,sans-Serif" font-size="10.00">emlabcpp/protocol/handler.h</text>
</a>
</g>
</g>
<!-- Node1&#45;&gt;Node3 -->
<g id="edge2" class="edge">
<title>Node1&#45;&gt;Node3</title>
<path fill="none" stroke="midnightblue" d="M384.34,-257.4C370.27,-246.76 351.01,-232.2 336.69,-221.38"/>
<polygon fill="midnightblue" stroke="midnightblue" points="338.59,-218.43 328.5,-215.19 334.37,-224.02 338.59,-218.43"/>
</g>
<!-- Node53 -->
<g id="node10" class="node">
<title>Node53</title>
<g id="a_node10"><a xlink:href="packet_8h.html" target="_top" xlink:title=" ">
<polygon fill="white" stroke="black" points="413,-196 413,-215 565,-215 565,-196 413,-196"/>
<text text-anchor="middle" x="489" y="-203" font-family="Helvetica,sans-Serif" font-size="10.00">emlabcpp/protocol/packet.h</text>
</a>
</g>
</g>
<!-- Node1&#45;&gt;Node53 -->
<g id="edge12" class="edge">
<title>Node1&#45;&gt;Node53</title>
<path fill="none" stroke="midnightblue" d="M421.66,-257.4C435.73,-246.76 454.99,-232.2 469.31,-221.38"/>
<polygon fill="midnightblue" stroke="midnightblue" points="471.63,-224.02 477.5,-215.19 467.41,-218.43 471.63,-224.02"/>
</g>
<!-- Node57 -->
<g id="node13" class="node">
<title>Node57</title>
<g id="a_node13"><a xlink:href="streams_8h.html" target="_top" xlink:title=" ">
<polygon fill="white" stroke="black" points="616.5,-134.5 616.5,-153.5 775.5,-153.5 775.5,-134.5 616.5,-134.5"/>
<text text-anchor="middle" x="696" y="-141.5" font-family="Helvetica,sans-Serif" font-size="10.00">emlabcpp/protocol/streams.h</text>
</a>
</g>
</g>
<!-- Node1&#45;&gt;Node57 -->
<g id="edge17" class="edge">
<title>Node1&#45;&gt;Node57</title>
<path fill="none" stroke="midnightblue" d="M465.38,-257.4C498.44,-248.87 539.27,-236.6 574,-221 612.18,-203.85 652.7,-176.55 676.11,-159.76"/>
<polygon fill="midnightblue" stroke="midnightblue" points="678.45,-162.39 684.48,-153.68 674.33,-156.72 678.45,-162.39"/>
</g>
<!-- Node4 -->
<g id="node4" class="node">
<title>Node4</title>
<g id="a_node4"><a xlink:href="either_8h.html" target="_top" xlink:title=" ">
<polygon fill="white" stroke="red" points="75,-73 75,-92 179,-92 179,-73 75,-73"/>
<text text-anchor="middle" x="127" y="-80" font-family="Helvetica,sans-Serif" font-size="10.00">emlabcpp/either.h</text>
</a>
</g>
</g>
<!-- Node3&#45;&gt;Node4 -->
<g id="edge3" class="edge">
<title>Node3&#45;&gt;Node4</title>
<path fill="none" stroke="midnightblue" d="M266.74,-195.97C195.84,-183.71 74.31,-161.72 68,-154 51.77,-134.15 79.15,-111.44 101.8,-97.29"/>
<polygon fill="midnightblue" stroke="midnightblue" points="103.65,-100.26 110.45,-92.13 100.07,-94.24 103.65,-100.26"/>
</g>
<!-- Node25 -->
<g id="node5" class="node">
<title>Node25</title>
<g id="a_node5"><a xlink:href="types_8h.html" target="_top" xlink:title=" ">
<polygon fill="white" stroke="red" points="0,-6 0,-25 104,-25 104,-6 0,-6"/>
<text text-anchor="middle" x="52" y="-13" font-family="Helvetica,sans-Serif" font-size="10.00">emlabcpp/types.h</text>
</a>
</g>
</g>
<!-- Node3&#45;&gt;Node25 -->
<g id="edge11" class="edge">
<title>Node3&#45;&gt;Node25</title>
<path fill="none" stroke="midnightblue" d="M269.75,-195.97C196.49,-182.64 63.46,-157.97 60,-154 31,-120.77 39.64,-64.05 46.73,-34.94"/>
<polygon fill="midnightblue" stroke="midnightblue" points="50.12,-35.8 49.29,-25.24 43.35,-34.01 50.12,-35.8"/>
</g>
<!-- Node29 -->
<g id="node6" class="node">
<title>Node29</title>
<g id="a_node6"><a xlink:href="def_8h.html" target="_top" xlink:title=" ">
<polygon fill="white" stroke="red" points="265,-134.5 265,-153.5 399,-153.5 399,-134.5 265,-134.5"/>
<text text-anchor="middle" x="332" y="-141.5" font-family="Helvetica,sans-Serif" font-size="10.00">emlabcpp/protocol/def.h</text>
</a>
</g>
</g>
<!-- Node3&#45;&gt;Node29 -->
<g id="edge5" class="edge">
<title>Node3&#45;&gt;Node29</title>
<path fill="none" stroke="midnightblue" d="M319.15,-195.98C321.29,-187.49 324.64,-174.2 327.38,-163.32"/>
<polygon fill="midnightblue" stroke="midnightblue" points="330.8,-164.06 329.85,-153.51 324.02,-162.35 330.8,-164.06"/>
</g>
<!-- Node4&#45;&gt;Node25 -->
<g id="edge4" class="edge">
<title>Node4&#45;&gt;Node25</title>
<path fill="none" stroke="midnightblue" d="M116.89,-72.73C104.85,-62.31 84.55,-44.71 69.85,-31.97"/>
<polygon fill="midnightblue" stroke="midnightblue" points="71.8,-29.03 61.95,-25.13 67.22,-34.32 71.8,-29.03"/>
</g>
<!-- Node29&#45;&gt;Node4 -->
<g id="edge6" class="edge">
<title>Node29&#45;&gt;Node4</title>
<path fill="none" stroke="midnightblue" d="M302.63,-134.48C266.7,-124.05 205.77,-106.36 165.96,-94.81"/>
<polygon fill="midnightblue" stroke="midnightblue" points="166.9,-91.44 156.32,-92.01 164.95,-98.16 166.9,-91.44"/>
</g>
<!-- Node38 -->
<g id="node7" class="node">
<title>Node38</title>
<g id="a_node7"><a xlink:href="numeric_8h.html" target="_top" xlink:title=" ">
<polygon fill="white" stroke="red" points="406.5,-0.5 406.5,-30.5 515.5,-30.5 515.5,-0.5 406.5,-0.5"/>
<text text-anchor="start" x="414.5" y="-18.5" font-family="Helvetica,sans-Serif" font-size="10.00">emlabcpp/iterators</text>
<text text-anchor="middle" x="461" y="-7.5" font-family="Helvetica,sans-Serif" font-size="10.00">/numeric.h</text>
</a>
</g>
</g>
<!-- Node29&#45;&gt;Node38 -->
<g id="edge7" class="edge">
<title>Node29&#45;&gt;Node38</title>
<path fill="none" stroke="midnightblue" d="M334.41,-134.49C339.07,-119.3 350.61,-87.24 370,-67 382.64,-53.8 399.5,-43.15 415.27,-35.09"/>
<polygon fill="midnightblue" stroke="midnightblue" points="416.93,-38.18 424.39,-30.65 413.87,-31.88 416.93,-38.18"/>
</g>
<!-- Node50 -->
<g id="node8" class="node">
<title>Node50</title>
<g id="a_node8"><a xlink:href="serializer_8h.html" target="_top" xlink:title=" ">
<polygon fill="white" stroke="red" points="379,-73 379,-92 543,-92 543,-73 379,-73"/>
<text text-anchor="middle" x="461" y="-80" font-family="Helvetica,sans-Serif" font-size="10.00">emlabcpp/protocol/serializer.h</text>
</a>
</g>
</g>
<!-- Node29&#45;&gt;Node50 -->
<g id="edge8" class="edge">
<title>Node29&#45;&gt;Node50</title>
<path fill="none" stroke="midnightblue" d="M350.48,-134.48C372.13,-124.49 408.21,-107.85 433.23,-96.31"/>
<polygon fill="midnightblue" stroke="midnightblue" points="434.94,-99.38 442.55,-92.01 432.01,-93.02 434.94,-99.38"/>
</g>
<!-- Node50&#45;&gt;Node38 -->
<g id="edge9" class="edge">
<title>Node50&#45;&gt;Node38</title>
<path fill="none" stroke="midnightblue" d="M461,-72.73C461,-64.54 461,-51.92 461,-40.71"/>
<polygon fill="midnightblue" stroke="midnightblue" points="464.5,-40.59 461,-30.59 457.5,-40.59 464.5,-40.59"/>
</g>
<!-- Node40 -->
<g id="node9" class="node">
<title>Node40</title>
<g id="a_node9"><a xlink:href="protocol_2base_8h.html" target="_top" xlink:title=" ">
<polygon fill="white" stroke="red" points="537.5,-6 537.5,-25 680.5,-25 680.5,-6 537.5,-6"/>
<text text-anchor="middle" x="609" y="-13" font-family="Helvetica,sans-Serif" font-size="10.00">emlabcpp/protocol/base.h</text>
</a>
</g>
</g>
<!-- Node50&#45;&gt;Node40 -->
<g id="edge10" class="edge">
<title>Node50&#45;&gt;Node40</title>
<path fill="none" stroke="midnightblue" d="M480.65,-72.87C506.09,-61.7 550.6,-42.15 579.95,-29.26"/>
<polygon fill="midnightblue" stroke="midnightblue" points="581.52,-32.39 589.27,-25.17 578.7,-25.98 581.52,-32.39"/>
</g>
<!-- Node53&#45;&gt;Node50 -->
<g id="edge15" class="edge">
<title>Node53&#45;&gt;Node50</title>
<path fill="none" stroke="midnightblue" d="M513.73,-195.95C543.52,-184.21 587.51,-161.42 570,-134 557.63,-114.64 535.74,-102.59 514.79,-95.15"/>
<polygon fill="midnightblue" stroke="midnightblue" points="515.87,-91.82 505.28,-92.04 513.7,-98.47 515.87,-91.82"/>
</g>
<!-- Node54 -->
<g id="node11" class="node">
<title>Node54</title>
<g id="a_node11"><a xlink:href="sequencer_8h.html" target="_top" xlink:title=" ">
<polygon fill="white" stroke="red" points="77.5,-134.5 77.5,-153.5 246.5,-153.5 246.5,-134.5 77.5,-134.5"/>
<text text-anchor="middle" x="162" y="-141.5" font-family="Helvetica,sans-Serif" font-size="10.00">emlabcpp/protocol/sequencer.h</text>
</a>
</g>
</g>
<!-- Node53&#45;&gt;Node54 -->
<g id="edge13" class="edge">
<title>Node53&#45;&gt;Node54</title>
<path fill="none" stroke="midnightblue" d="M442.15,-195.98C383.26,-185.26 282.26,-166.88 218.97,-155.37"/>
<polygon fill="midnightblue" stroke="midnightblue" points="219.23,-151.86 208.76,-153.51 217.98,-158.74 219.23,-151.86"/>
</g>
<!-- Node56 -->
<g id="node12" class="node">
<title>Node56</title>
<g id="a_node12"><a xlink:href="tuple_8h.html" target="_top" xlink:title=" ">
<polygon fill="white" stroke="red" points="417,-134.5 417,-153.5 561,-153.5 561,-134.5 417,-134.5"/>
<text text-anchor="middle" x="489" y="-141.5" font-family="Helvetica,sans-Serif" font-size="10.00">emlabcpp/protocol/tuple.h</text>
</a>
</g>
</g>
<!-- Node53&#45;&gt;Node56 -->
<g id="edge16" class="edge">
<title>Node53&#45;&gt;Node56</title>
<path fill="none" stroke="midnightblue" d="M489,-195.98C489,-187.58 489,-174.48 489,-163.66"/>
<polygon fill="midnightblue" stroke="midnightblue" points="492.5,-163.51 489,-153.51 485.5,-163.51 492.5,-163.51"/>
</g>
<!-- Node54&#45;&gt;Node4 -->
<g id="edge14" class="edge">
<title>Node54&#45;&gt;Node4</title>
<path fill="none" stroke="midnightblue" d="M156.99,-134.48C151.84,-125.73 143.69,-111.87 137.18,-100.81"/>
<polygon fill="midnightblue" stroke="midnightblue" points="140.09,-98.85 132.01,-92.01 134.06,-102.4 140.09,-98.85"/>
</g>
<!-- Node57&#45;&gt;Node38 -->
<g id="edge19" class="edge">
<title>Node57&#45;&gt;Node38</title>
<path fill="none" stroke="midnightblue" d="M679.68,-134.43C662.54,-125.41 634.84,-110.79 611,-98 571.35,-76.74 525.99,-52.03 495.62,-35.45"/>
<polygon fill="midnightblue" stroke="midnightblue" points="497.15,-32.3 486.7,-30.57 493.8,-38.44 497.15,-32.3"/>
</g>
<!-- Node57&#45;&gt;Node40 -->
<g id="edge20" class="edge">
<title>Node57&#45;&gt;Node40</title>
<path fill="none" stroke="midnightblue" d="M675.34,-134.46C659.98,-127.05 639.72,-114.85 628,-98 615,-79.31 610.8,-52.97 609.49,-35.34"/>
<polygon fill="midnightblue" stroke="midnightblue" points="612.98,-35 608.99,-25.19 605.99,-35.35 612.98,-35"/>
</g>
<!-- Node18 -->
<g id="node14" class="node">
<title>Node18</title>
<g id="a_node14"><a xlink:href="enum_8h.html" target="_top" xlink:title=" ">
<polygon fill="white" stroke="black" points="637,-73 637,-92 741,-92 741,-73 637,-73"/>
<text text-anchor="middle" x="689" y="-80" font-family="Helvetica,sans-Serif" font-size="10.00">emlabcpp/enum.h</text>
</a>
</g>
</g>
<!-- Node57&#45;&gt;Node18 -->
<g id="edge18" class="edge">
<title>Node57&#45;&gt;Node18</title>
<path fill="none" stroke="midnightblue" d="M695,-134.48C694.01,-126.08 692.47,-112.98 691.2,-102.16"/>
<polygon fill="midnightblue" stroke="midnightblue" points="694.65,-101.53 690,-92.01 687.69,-102.35 694.65,-101.53"/>
</g>
<!-- Node58 -->
<g id="node15" class="node">
<title>Node58</title>
<g id="a_node15"><a xlink:href="register__map_8h.html" target="_top" xlink:title=" ">
<polygon fill="white" stroke="red" points="833,-67.5 833,-97.5 981,-97.5 981,-67.5 833,-67.5"/>
<text text-anchor="start" x="841" y="-85.5" font-family="Helvetica,sans-Serif" font-size="10.00">emlabcpp/protocol/register</text>
<text text-anchor="middle" x="907" y="-74.5" font-family="Helvetica,sans-Serif" font-size="10.00">_map.h</text>
</a>
</g>
</g>
<!-- Node57&#45;&gt;Node58 -->
<g id="edge21" class="edge">
<title>Node57&#45;&gt;Node58</title>
<path fill="none" stroke="midnightblue" d="M726.23,-134.48C757.75,-125.59 807.96,-111.43 847.47,-100.29"/>
<polygon fill="midnightblue" stroke="midnightblue" points="848.6,-103.61 857.27,-97.52 846.7,-96.87 848.6,-103.61"/>
</g>
<!-- Node59 -->
<g id="node16" class="node">
<title>Node59</title>
<g id="a_node16"><a xlink:title=" ">
<polygon fill="white" stroke="#bfbfbf" points="759,-73 759,-92 815,-92 815,-73 759,-73"/>
<text text-anchor="middle" x="787" y="-80" font-family="Helvetica,sans-Serif" font-size="10.00">iomanip</text>
</a>
</g>
</g>
<!-- Node57&#45;&gt;Node59 -->
<g id="edge23" class="edge">
<title>Node57&#45;&gt;Node59</title>
<path fill="none" stroke="midnightblue" d="M709.04,-134.48C723.77,-124.84 747.97,-109.02 765.51,-97.55"/>
<polygon fill="midnightblue" stroke="midnightblue" points="767.53,-100.41 773.99,-92.01 763.7,-94.55 767.53,-100.41"/>
</g>
<!-- Node58&#45;&gt;Node40 -->
<g id="edge22" class="edge">
<title>Node58&#45;&gt;Node40</title>
<path fill="none" stroke="midnightblue" d="M842.71,-67.48C787.32,-55.4 708.55,-38.21 658.11,-27.21"/>
<polygon fill="midnightblue" stroke="midnightblue" points="658.62,-23.74 648.1,-25.03 657.12,-30.58 658.62,-23.74"/>
</g>
</g>
</svg>
