<?xml version="1.0" encoding="UTF-8" standalone="no"?>
<!DOCTYPE svg PUBLIC "-//W3C//DTD SVG 1.1//EN"
 "http://www.w3.org/Graphics/SVG/1.1/DTD/svg11.dtd">
<!-- Generated by graphviz version 2.43.0 (0)
 -->
<!-- Title: include/emlabcpp/protocol/packet_handler.h Pages: 1 -->
<svg width="951pt" height="274pt"
 viewBox="0.00 0.00 950.62 274.00" xmlns="http://www.w3.org/2000/svg" xmlns:xlink="http://www.w3.org/1999/xlink">
<g id="graph0" class="graph" transform="scale(1 1) rotate(0) translate(4 270)">
<title>include/emlabcpp/protocol/packet_handler.h</title>
<polygon fill="white" stroke="transparent" points="-4,4 -4,-270 946.62,-270 946.62,4 -4,4"/>
<!-- Node1 -->
<g id="node1" class="node">
<title>Node1</title>
<g id="a_node1"><a xlink:title=" ">
<polygon fill="#bfbfbf" stroke="black" points="436,-235.5 436,-265.5 582,-265.5 582,-235.5 436,-235.5"/>
<text text-anchor="start" x="444" y="-253.5" font-family="Helvetica,sans-Serif" font-size="10.00">include/emlabcpp/protocol</text>
<text text-anchor="middle" x="509" y="-242.5" font-family="Helvetica,sans-Serif" font-size="10.00">/packet_handler.h</text>
</a>
</g>
</g>
<!-- Node2 -->
<g id="node2" class="node">
<title>Node2</title>
<g id="a_node2"><a xlink:href="protocol_2handler_8h.html" target="_top" xlink:title=" ">
<polygon fill="white" stroke="black" points="28.5,-179.5 28.5,-198.5 183.5,-198.5 183.5,-179.5 28.5,-179.5"/>
<text text-anchor="middle" x="106" y="-186.5" font-family="Helvetica,sans-Serif" font-size="10.00">emlabcpp/protocol/handler.h</text>
</a>
</g>
</g>
<!-- Node1&#45;&gt;Node2 -->
<g id="edge1" class="edge">
<title>Node1&#45;&gt;Node2</title>
<path fill="none" stroke="midnightblue" d="M435.55,-238.66C360.85,-227.63 246.07,-210.68 173.56,-199.98"/>
<polygon fill="midnightblue" stroke="midnightblue" points="174.03,-196.51 163.62,-198.51 173,-203.43 174.03,-196.51"/>
</g>
<!-- Node64 -->
<g id="node9" class="node">
<title>Node64</title>
<g id="a_node9"><a xlink:href="packet_8h.html" target="_top" xlink:title=" ">
<polygon fill="white" stroke="black" points="433,-179.5 433,-198.5 585,-198.5 585,-179.5 433,-179.5"/>
<text text-anchor="middle" x="509" y="-186.5" font-family="Helvetica,sans-Serif" font-size="10.00">emlabcpp/protocol/packet.h</text>
</a>
</g>
</g>
<!-- Node1&#45;&gt;Node64 -->
<g id="edge9" class="edge">
<title>Node1&#45;&gt;Node64</title>
<path fill="none" stroke="midnightblue" d="M509,-235.4C509,-227.47 509,-217.46 509,-208.86"/>
<polygon fill="midnightblue" stroke="midnightblue" points="512.5,-208.66 509,-198.66 505.5,-208.66 512.5,-208.66"/>
</g>
<!-- Node68 -->
<g id="node12" class="node">
<title>Node68</title>
<g id="a_node12"><a xlink:href="streams_8h.html" target="_top" xlink:title=" ">
<polygon fill="white" stroke="black" points="648.5,-123.5 648.5,-142.5 807.5,-142.5 807.5,-123.5 648.5,-123.5"/>
<text text-anchor="middle" x="728" y="-130.5" font-family="Helvetica,sans-Serif" font-size="10.00">emlabcpp/protocol/streams.h</text>
</a>
</g>
</g>
<!-- Node1&#45;&gt;Node68 -->
<g id="edge14" class="edge">
<title>Node1&#45;&gt;Node68</title>
<path fill="none" stroke="midnightblue" d="M535.85,-235.34C578.56,-212.82 661.35,-169.15 702.92,-147.23"/>
<polygon fill="midnightblue" stroke="midnightblue" points="704.63,-150.28 711.84,-142.52 701.36,-144.09 704.63,-150.28"/>
</g>
<!-- Node3 -->
<g id="node3" class="node">
<title>Node3</title>
<g id="a_node3"><a xlink:href="either_8h.html" target="_top" xlink:title=" ">
<polygon fill="white" stroke="red" points="40,-62 40,-81 144,-81 144,-62 40,-62"/>
<text text-anchor="middle" x="92" y="-69" font-family="Helvetica,sans-Serif" font-size="10.00">emlabcpp/either.h</text>
</a>
</g>
</g>
<!-- Node2&#45;&gt;Node3 -->
<g id="edge2" class="edge">
<title>Node2&#45;&gt;Node3</title>
<path fill="none" stroke="midnightblue" d="M95.56,-179.24C86.58,-170.97 74.25,-157.66 69,-143 62.58,-125.08 71.25,-104.34 79.72,-90.01"/>
<polygon fill="midnightblue" stroke="midnightblue" points="82.9,-91.54 85.36,-81.24 77.01,-87.76 82.9,-91.54"/>
</g>
<!-- Node22 -->
<g id="node4" class="node">
<title>Node22</title>
<g id="a_node4"><a xlink:href="types_8h.html" target="_top" xlink:title=" ">
<polygon fill="white" stroke="red" points="0,-0.5 0,-19.5 104,-19.5 104,-0.5 0,-0.5"/>
<text text-anchor="middle" x="52" y="-7.5" font-family="Helvetica,sans-Serif" font-size="10.00">emlabcpp/types.h</text>
</a>
</g>
</g>
<!-- Node2&#45;&gt;Node22 -->
<g id="edge8" class="edge">
<title>Node2&#45;&gt;Node22</title>
<path fill="none" stroke="midnightblue" d="M95.74,-179.32C77.81,-163.32 41.65,-127.11 31,-87 27.46,-73.68 28.02,-69.45 31,-56 33.12,-46.43 37.51,-36.48 41.72,-28.37"/>
<polygon fill="midnightblue" stroke="midnightblue" points="44.82,-30 46.62,-19.56 38.7,-26.6 44.82,-30"/>
</g>
<!-- Node43 -->
<g id="node5" class="node">
<title>Node43</title>
<g id="a_node5"><a xlink:href="converter_8h.html" target="_top" xlink:title=" ">
<polygon fill="white" stroke="red" points="78.5,-123.5 78.5,-142.5 243.5,-142.5 243.5,-123.5 78.5,-123.5"/>
<text text-anchor="middle" x="161" y="-130.5" font-family="Helvetica,sans-Serif" font-size="10.00">emlabcpp/protocol/converter.h</text>
</a>
</g>
</g>
<!-- Node2&#45;&gt;Node43 -->
<g id="edge4" class="edge">
<title>Node2&#45;&gt;Node43</title>
<path fill="none" stroke="midnightblue" d="M115.08,-179.08C123.17,-171.14 135.2,-159.34 144.91,-149.8"/>
<polygon fill="midnightblue" stroke="midnightblue" points="147.4,-152.25 152.09,-142.75 142.5,-147.26 147.4,-152.25"/>
</g>
<!-- Node3&#45;&gt;Node22 -->
<g id="edge3" class="edge">
<title>Node3&#45;&gt;Node22</title>
<path fill="none" stroke="midnightblue" d="M86.27,-61.98C80.33,-53.14 70.88,-39.09 63.41,-27.98"/>
<polygon fill="midnightblue" stroke="midnightblue" points="66.2,-25.86 57.72,-19.51 60.39,-29.76 66.2,-25.86"/>
</g>
<!-- Node50 -->
<g id="node6" class="node">
<title>Node50</title>
<g id="a_node6"><a xlink:href="serializer_8h.html" target="_top" xlink:title=" ">
<polygon fill="white" stroke="red" points="360,-62 360,-81 524,-81 524,-62 360,-62"/>
<text text-anchor="middle" x="442" y="-69" font-family="Helvetica,sans-Serif" font-size="10.00">emlabcpp/protocol/serializer.h</text>
</a>
</g>
</g>
<!-- Node43&#45;&gt;Node50 -->
<g id="edge5" class="edge">
<title>Node43&#45;&gt;Node50</title>
<path fill="none" stroke="midnightblue" d="M201.26,-123.48C251.44,-112.85 337.23,-94.68 391.69,-83.15"/>
<polygon fill="midnightblue" stroke="midnightblue" points="392.76,-86.5 401.81,-81.01 391.31,-79.66 392.76,-86.5"/>
</g>
<!-- Node52 -->
<g id="node7" class="node">
<title>Node52</title>
<g id="a_node7"><a xlink:href="protocol_2base_8h.html" target="_top" xlink:title=" ">
<polygon fill="white" stroke="red" points="656.5,-0.5 656.5,-19.5 799.5,-19.5 799.5,-0.5 656.5,-0.5"/>
<text text-anchor="middle" x="728" y="-7.5" font-family="Helvetica,sans-Serif" font-size="10.00">emlabcpp/protocol/base.h</text>
</a>
</g>
</g>
<!-- Node50&#45;&gt;Node52 -->
<g id="edge6" class="edge">
<title>Node50&#45;&gt;Node52</title>
<path fill="none" stroke="midnightblue" d="M482.98,-61.98C534.16,-51.33 621.73,-33.11 677.14,-21.58"/>
<polygon fill="midnightblue" stroke="midnightblue" points="678.02,-24.97 687.1,-19.51 676.6,-18.12 678.02,-24.97"/>
</g>
<!-- Node26 -->
<g id="node8" class="node">
<title>Node26</title>
<g id="a_node8"><a xlink:href="range_8h.html" target="_top" xlink:title=" ">
<polygon fill="white" stroke="red" points="462,-0.5 462,-19.5 566,-19.5 566,-0.5 462,-0.5"/>
<text text-anchor="middle" x="514" y="-7.5" font-family="Helvetica,sans-Serif" font-size="10.00">emlabcpp/range.h</text>
</a>
</g>
</g>
<!-- Node50&#45;&gt;Node26 -->
<g id="edge7" class="edge">
<title>Node50&#45;&gt;Node26</title>
<path fill="none" stroke="midnightblue" d="M452.32,-61.98C463.65,-52.61 482.07,-37.38 495.84,-26.01"/>
<polygon fill="midnightblue" stroke="midnightblue" points="498.22,-28.58 503.7,-19.51 493.77,-23.18 498.22,-28.58"/>
</g>
<!-- Node64&#45;&gt;Node50 -->
<g id="edge12" class="edge">
<title>Node64&#45;&gt;Node50</title>
<path fill="none" stroke="midnightblue" d="M542.6,-179.48C576.91,-169.11 622.55,-149.63 603,-123 590.43,-105.88 540.42,-91.95 499.43,-83.09"/>
<polygon fill="midnightblue" stroke="midnightblue" points="500.01,-79.63 489.5,-81 498.57,-86.48 500.01,-79.63"/>
</g>
<!-- Node65 -->
<g id="node10" class="node">
<title>Node65</title>
<g id="a_node10"><a xlink:href="sequencer_8h.html" target="_top" xlink:title=" ">
<polygon fill="white" stroke="red" points="424.5,-123.5 424.5,-142.5 593.5,-142.5 593.5,-123.5 424.5,-123.5"/>
<text text-anchor="middle" x="509" y="-130.5" font-family="Helvetica,sans-Serif" font-size="10.00">emlabcpp/protocol/sequencer.h</text>
</a>
</g>
</g>
<!-- Node64&#45;&gt;Node65 -->
<g id="edge10" class="edge">
<title>Node64&#45;&gt;Node65</title>
<path fill="none" stroke="midnightblue" d="M509,-179.08C509,-172.01 509,-161.86 509,-152.99"/>
<polygon fill="midnightblue" stroke="midnightblue" points="512.5,-152.75 509,-142.75 505.5,-152.75 512.5,-152.75"/>
</g>
<!-- Node67 -->
<g id="node11" class="node">
<title>Node67</title>
<g id="a_node11"><a xlink:href="tuple_8h.html" target="_top" xlink:title=" ">
<polygon fill="white" stroke="red" points="262,-123.5 262,-142.5 406,-142.5 406,-123.5 262,-123.5"/>
<text text-anchor="middle" x="334" y="-130.5" font-family="Helvetica,sans-Serif" font-size="10.00">emlabcpp/protocol/tuple.h</text>
</a>
</g>
</g>
<!-- Node64&#45;&gt;Node67 -->
<g id="edge13" class="edge">
<title>Node64&#45;&gt;Node67</title>
<path fill="none" stroke="midnightblue" d="M481.27,-179.44C451.57,-170.28 404.28,-155.69 371.33,-145.52"/>
<polygon fill="midnightblue" stroke="midnightblue" points="372.19,-142.12 361.6,-142.52 370.12,-148.81 372.19,-142.12"/>
</g>
<!-- Node65&#45;&gt;Node3 -->
<g id="edge11" class="edge">
<title>Node65&#45;&gt;Node3</title>
<path fill="none" stroke="midnightblue" d="M449.25,-123.48C370.91,-112.3 234.1,-92.78 154.44,-81.41"/>
<polygon fill="midnightblue" stroke="midnightblue" points="154.46,-77.88 144.07,-79.93 153.47,-84.81 154.46,-77.88"/>
</g>
<!-- Node68&#45;&gt;Node52 -->
<g id="edge16" class="edge">
<title>Node68&#45;&gt;Node52</title>
<path fill="none" stroke="midnightblue" d="M807.65,-124.72C858.27,-118.26 917.16,-106.7 933,-87 970.94,-39.82 882.03,-21.93 809.6,-15.15"/>
<polygon fill="midnightblue" stroke="midnightblue" points="809.78,-11.65 799.51,-14.26 809.16,-18.62 809.78,-11.65"/>
</g>
<!-- Node68&#45;&gt;Node26 -->
<g id="edge19" class="edge">
<title>Node68&#45;&gt;Node26</title>
<path fill="none" stroke="midnightblue" d="M709.95,-123.44C692.75,-115.01 666.38,-101.33 645,-87 626.9,-74.86 625.38,-67.72 607,-56 587.04,-43.27 562.94,-31.71 544.27,-23.49"/>
<polygon fill="midnightblue" stroke="midnightblue" points="545.63,-20.26 535.06,-19.51 542.85,-26.69 545.63,-20.26"/>
</g>
<!-- Node17 -->
<g id="node13" class="node">
<title>Node17</title>
<g id="a_node13"><a xlink:href="enum_8h.html" target="_top" xlink:title=" ">
<polygon fill="white" stroke="red" points="820,-62 820,-81 924,-81 924,-62 820,-62"/>
<text text-anchor="middle" x="872" y="-69" font-family="Helvetica,sans-Serif" font-size="10.00">emlabcpp/enum.h</text>
</a>
</g>
</g>
<!-- Node68&#45;&gt;Node17 -->
<g id="edge15" class="edge">
<title>Node68&#45;&gt;Node17</title>
<path fill="none" stroke="midnightblue" d="M748.63,-123.48C773.12,-113.36 814.15,-96.4 842.11,-84.85"/>
<polygon fill="midnightblue" stroke="midnightblue" points="843.5,-88.06 851.41,-81.01 840.83,-81.59 843.5,-88.06"/>
</g>
<!-- Node69 -->
<g id="node14" class="node">
<title>Node69</title>
<g id="a_node14"><a xlink:href="register__map_8h.html" target="_top" xlink:title=" ">
<polygon fill="white" stroke="red" points="654,-56.5 654,-86.5 802,-86.5 802,-56.5 654,-56.5"/>
<text text-anchor="start" x="662" y="-74.5" font-family="Helvetica,sans-Serif" font-size="10.00">emlabcpp/protocol/register</text>
<text text-anchor="middle" x="728" y="-63.5" font-family="Helvetica,sans-Serif" font-size="10.00">_map.h</text>
</a>
</g>
</g>
<!-- Node68&#45;&gt;Node69 -->
<g id="edge17" class="edge">
<title>Node68&#45;&gt;Node69</title>
<path fill="none" stroke="midnightblue" d="M728,-123.48C728,-116.47 728,-106.19 728,-96.7"/>
<polygon fill="midnightblue" stroke="midnightblue" points="731.5,-96.52 728,-86.52 724.5,-96.52 731.5,-96.52"/>
</g>
<!-- Node70 -->
<g id="node15" class="node">
<title>Node70</title>
<g id="a_node15"><a xlink:title=" ">
<polygon fill="white" stroke="#bfbfbf" points="542,-62 542,-81 598,-81 598,-62 542,-62"/>
<text text-anchor="middle" x="570" y="-69" font-family="Helvetica,sans-Serif" font-size="10.00">iomanip</text>
</a>
</g>
</g>
<!-- Node68&#45;&gt;Node70 -->
<g id="edge20" class="edge">
<title>Node68&#45;&gt;Node70</title>
<path fill="none" stroke="midnightblue" d="M705.36,-123.48C678.26,-113.27 632.69,-96.11 602,-84.55"/>
<polygon fill="midnightblue" stroke="midnightblue" points="603.19,-81.26 592.6,-81.01 600.72,-87.81 603.19,-81.26"/>
</g>
<!-- Node69&#45;&gt;Node52 -->
<g id="edge18" class="edge">
<title>Node69&#45;&gt;Node52</title>
<path fill="none" stroke="midnightblue" d="M728,-56.4C728,-48.47 728,-38.46 728,-29.86"/>
<polygon fill="midnightblue" stroke="midnightblue" points="731.5,-29.66 728,-19.66 724.5,-29.66 731.5,-29.66"/>
</g>
</g>
</svg>
