<?xml version="1.0" encoding="UTF-8" standalone="no"?>
<!DOCTYPE svg PUBLIC "-//W3C//DTD SVG 1.1//EN"
 "http://www.w3.org/Graphics/SVG/1.1/DTD/svg11.dtd">
<!-- Generated by graphviz version 2.43.0 (0)
 -->
<!-- Title: include/emlabcpp/experimental/cfg2/page.h Pages: 1 -->
<svg width="292pt" height="151pt"
 viewBox="0.00 0.00 292.00 151.00" xmlns="http://www.w3.org/2000/svg" xmlns:xlink="http://www.w3.org/1999/xlink">
<g id="graph0" class="graph" transform="scale(1 1) rotate(0) translate(4 147)">
<title>include/emlabcpp/experimental/cfg2/page.h</title>
<polygon fill="white" stroke="transparent" points="-4,4 -4,-147 288,-147 288,4 -4,4"/>
<!-- Node1 -->
<g id="node1" class="node">
<title>Node1</title>
<g id="a_node1"><a xlink:title=" ">
<polygon fill="#bfbfbf" stroke="black" points="113,-112.5 113,-142.5 284,-142.5 284,-112.5 113,-112.5"/>
<text text-anchor="start" x="121" y="-130.5" font-family="Helvetica,sans-Serif" font-size="10.00">include/emlabcpp/experimental</text>
<text text-anchor="middle" x="198.5" y="-119.5" font-family="Helvetica,sans-Serif" font-size="10.00">/cfg2/page.h</text>
</a>
</g>
</g>
<!-- Node2 -->
<g id="node2" class="node">
<title>Node2</title>
<g id="a_node2"><a xlink:href="result_8h.html" target="_top" xlink:title=" ">
<polygon fill="white" stroke="black" points="97,-56.5 97,-75.5 168,-75.5 168,-56.5 97,-56.5"/>
<text text-anchor="middle" x="132.5" y="-63.5" font-family="Helvetica,sans-Serif" font-size="10.00">../../result.h</text>
</a>
</g>
</g>
<!-- Node1&#45;&gt;Node2 -->
<g id="edge1" class="edge">
<title>Node1&#45;&gt;Node2</title>
<path fill="none" stroke="midnightblue" d="M182.86,-112.4C172.87,-103.4 159.92,-91.72 149.65,-82.47"/>
<polygon fill="midnightblue" stroke="midnightblue" points="151.87,-79.75 142.1,-75.66 147.19,-84.95 151.87,-79.75"/>
</g>
<!-- Node9 -->
<g id="node5" class="node">
<title>Node9</title>
<g id="a_node5"><a xlink:title=" ">
<polygon fill="white" stroke="#bfbfbf" points="176.5,-0.5 176.5,-19.5 226.5,-19.5 226.5,-0.5 176.5,-0.5"/>
<text text-anchor="middle" x="201.5" y="-7.5" font-family="Helvetica,sans-Serif" font-size="10.00">cstdint</text>
</a>
</g>
</g>
<!-- Node1&#45;&gt;Node9 -->
<g id="edge5" class="edge">
<title>Node1&#45;&gt;Node9</title>
<path fill="none" stroke="midnightblue" d="M198.87,-112.34C199.41,-91.62 200.41,-53.02 201.01,-29.9"/>
<polygon fill="midnightblue" stroke="midnightblue" points="204.51,-29.76 201.27,-19.67 197.52,-29.58 204.51,-29.76"/>
</g>
<!-- Node19 -->
<g id="node6" class="node">
<title>Node19</title>
<g id="a_node6"><a xlink:title=" ">
<polygon fill="white" stroke="#bfbfbf" points="226.5,-56.5 226.5,-75.5 282.5,-75.5 282.5,-56.5 226.5,-56.5"/>
<text text-anchor="middle" x="254.5" y="-63.5" font-family="Helvetica,sans-Serif" font-size="10.00">optional</text>
</a>
</g>
</g>
<!-- Node1&#45;&gt;Node19 -->
<g id="edge6" class="edge">
<title>Node1&#45;&gt;Node19</title>
<path fill="none" stroke="midnightblue" d="M211.77,-112.4C220.08,-103.58 230.8,-92.18 239.42,-83.02"/>
<polygon fill="midnightblue" stroke="midnightblue" points="242.05,-85.34 246.35,-75.66 236.95,-80.54 242.05,-85.34"/>
</g>
<!-- Node3 -->
<g id="node3" class="node">
<title>Node3</title>
<g id="a_node3"><a xlink:href="algorithm_8h.html" target="_top" xlink:title=" ">
<polygon fill="white" stroke="red" points="0,-0.5 0,-19.5 79,-19.5 79,-0.5 0,-0.5"/>
<text text-anchor="middle" x="39.5" y="-7.5" font-family="Helvetica,sans-Serif" font-size="10.00">./algorithm.h</text>
</a>
</g>
</g>
<!-- Node2&#45;&gt;Node3 -->
<g id="edge2" class="edge">
<title>Node2&#45;&gt;Node3</title>
<path fill="none" stroke="midnightblue" d="M117.56,-56.32C102.91,-47.82 80.37,-34.73 63.26,-24.8"/>
<polygon fill="midnightblue" stroke="midnightblue" points="64.81,-21.65 54.4,-19.65 61.3,-27.7 64.81,-21.65"/>
</g>
<!-- Node29 -->
<g id="node4" class="node">
<title>Node29</title>
<g id="a_node4"><a xlink:href="status_8h.html" target="_top" xlink:title=" ">
<polygon fill="white" stroke="red" points="96.5,-0.5 96.5,-19.5 158.5,-19.5 158.5,-0.5 96.5,-0.5"/>
<text text-anchor="middle" x="127.5" y="-7.5" font-family="Helvetica,sans-Serif" font-size="10.00">./status.h</text>
</a>
</g>
</g>
<!-- Node2&#45;&gt;Node29 -->
<g id="edge3" class="edge">
<title>Node2&#45;&gt;Node29</title>
<path fill="none" stroke="midnightblue" d="M131.67,-56.08C131.02,-49.01 130.08,-38.86 129.26,-29.99"/>
<polygon fill="midnightblue" stroke="midnightblue" points="132.72,-29.39 128.31,-19.75 125.75,-30.03 132.72,-29.39"/>
</g>
<!-- Node2&#45;&gt;Node9 -->
<g id="edge4" class="edge">
<title>Node2&#45;&gt;Node9</title>
<path fill="none" stroke="midnightblue" d="M143.59,-56.32C153.99,-48.18 169.76,-35.84 182.22,-26.09"/>
<polygon fill="midnightblue" stroke="midnightblue" points="184.49,-28.75 190.21,-19.83 180.18,-23.24 184.49,-28.75"/>
</g>
</g>
</svg>
