<?xml version="1.0" encoding="UTF-8" standalone="no"?>
<!DOCTYPE svg PUBLIC "-//W3C//DTD SVG 1.1//EN"
 "http://www.w3.org/Graphics/SVG/1.1/DTD/svg11.dtd">
<!-- Generated by graphviz version 2.43.0 (0)
 -->
<!-- Title: include/emlabcpp/experimental/testing/parameters.h Pages: 1 -->
<svg width="1693pt" height="632pt"
 viewBox="0.00 0.00 1692.50 632.00" xmlns="http://www.w3.org/2000/svg" xmlns:xlink="http://www.w3.org/1999/xlink">
<g id="graph0" class="graph" transform="scale(1 1) rotate(0) translate(4 628)">
<title>include/emlabcpp/experimental/testing/parameters.h</title>
<polygon fill="white" stroke="transparent" points="-4,4 -4,-628 1688.5,-628 1688.5,4 -4,4"/>
<!-- Node1 -->
<g id="node1" class="node">
<title>Node1</title>
<g id="a_node1"><a xlink:title=" ">
<polygon fill="#bfbfbf" stroke="black" points="684,-593.5 684,-623.5 855,-623.5 855,-593.5 684,-593.5"/>
<text text-anchor="start" x="692" y="-611.5" font-family="Helvetica,sans-Serif" font-size="10.00">include/emlabcpp/experimental</text>
<text text-anchor="middle" x="769.5" y="-600.5" font-family="Helvetica,sans-Serif" font-size="10.00">/testing/parameters.h</text>
</a>
</g>
</g>
<!-- Node2 -->
<g id="node2" class="node">
<title>Node2</title>
<g id="a_node2"><a xlink:href="protocol_2handler_8h.html" target="_top" xlink:title=" ">
<polygon fill="white" stroke="black" points="1480.5,-414.5 1480.5,-433.5 1602.5,-433.5 1602.5,-414.5 1480.5,-414.5"/>
<text text-anchor="middle" x="1541.5" y="-421.5" font-family="Helvetica,sans-Serif" font-size="10.00">../../protocol/handler.h</text>
</a>
</g>
</g>
<!-- Node1&#45;&gt;Node2 -->
<g id="edge1" class="edge">
<title>Node1&#45;&gt;Node2</title>
<path fill="none" stroke="midnightblue" d="M855.06,-602.49C1051.77,-590.07 1522.86,-554.96 1568.5,-501 1582.98,-483.88 1568.79,-458.45 1556.12,-441.8"/>
<polygon fill="midnightblue" stroke="midnightblue" points="1558.81,-439.56 1549.8,-433.98 1553.37,-443.96 1558.81,-439.56"/>
</g>
<!-- Node55 -->
<g id="node18" class="node">
<title>Node55</title>
<g id="a_node18"><a xlink:href="static__function_8h.html" target="_top" xlink:title=" ">
<polygon fill="white" stroke="black" points="681.5,-291.5 681.5,-310.5 797.5,-310.5 797.5,-291.5 681.5,-291.5"/>
<text text-anchor="middle" x="739.5" y="-298.5" font-family="Helvetica,sans-Serif" font-size="10.00">../../static_function.h</text>
</a>
</g>
</g>
<!-- Node1&#45;&gt;Node55 -->
<g id="edge26" class="edge">
<title>Node1&#45;&gt;Node55</title>
<path fill="none" stroke="midnightblue" d="M761.99,-593.42C750.92,-571.31 731.5,-526.79 731.5,-486.5 731.5,-486.5 731.5,-486.5 731.5,-423 731.5,-386.82 735.11,-344.68 737.48,-320.89"/>
<polygon fill="midnightblue" stroke="midnightblue" points="740.97,-321.1 738.52,-310.79 734.01,-320.38 740.97,-321.1"/>
</g>
<!-- Node57 -->
<g id="node22" class="node">
<title>Node57</title>
<g id="a_node22"><a xlink:href="request__adapter_8h.html" target="_top" xlink:title=" ">
<polygon fill="white" stroke="black" points="901,-347.5 901,-377.5 1008,-377.5 1008,-347.5 901,-347.5"/>
<text text-anchor="start" x="909" y="-365.5" font-family="Helvetica,sans-Serif" font-size="10.00">../contiguous_tree</text>
<text text-anchor="middle" x="954.5" y="-354.5" font-family="Helvetica,sans-Serif" font-size="10.00">/request_adapter.h</text>
</a>
</g>
</g>
<!-- Node1&#45;&gt;Node57 -->
<g id="edge31" class="edge">
<title>Node1&#45;&gt;Node57</title>
<path fill="none" stroke="midnightblue" d="M780.25,-593.33C811.09,-552.64 900.09,-435.26 937.56,-385.85"/>
<polygon fill="midnightblue" stroke="midnightblue" points="940.47,-387.8 943.72,-377.71 934.89,-383.57 940.47,-387.8"/>
</g>
<!-- Node59 -->
<g id="node24" class="node">
<title>Node59</title>
<g id="a_node24"><a xlink:href="function__view_8h.html" target="_top" xlink:title=" ">
<polygon fill="white" stroke="black" points="1568.5,-118 1568.5,-137 1670.5,-137 1670.5,-118 1568.5,-118"/>
<text text-anchor="middle" x="1619.5" y="-125" font-family="Helvetica,sans-Serif" font-size="10.00">../function_view.h</text>
</a>
</g>
</g>
<!-- Node1&#45;&gt;Node59 -->
<g id="edge36" class="edge">
<title>Node1&#45;&gt;Node59</title>
<path fill="none" stroke="midnightblue" d="M855.17,-605.08C1082.63,-597.52 1684.5,-569.67 1684.5,-486.5 1684.5,-486.5 1684.5,-486.5 1684.5,-244 1684.5,-204.19 1654.81,-165.43 1635.56,-144.49"/>
<polygon fill="midnightblue" stroke="midnightblue" points="1637.97,-141.95 1628.54,-137.13 1632.91,-146.78 1637.97,-141.95"/>
</g>
<!-- Node60 -->
<g id="node25" class="node">
<title>Node60</title>
<g id="a_node25"><a xlink:href="experimental_2testing_2convert_8h.html" target="_top" xlink:title=" ">
<polygon fill="white" stroke="black" points="589.5,-414.5 589.5,-433.5 657.5,-433.5 657.5,-414.5 589.5,-414.5"/>
<text text-anchor="middle" x="623.5" y="-421.5" font-family="Helvetica,sans-Serif" font-size="10.00">./convert.h</text>
</a>
</g>
</g>
<!-- Node1&#45;&gt;Node60 -->
<g id="edge38" class="edge">
<title>Node1&#45;&gt;Node60</title>
<path fill="none" stroke="midnightblue" d="M753.28,-593.17C742.63,-583.43 728.65,-569.99 717.5,-557 684.35,-518.39 651.11,-468.44 634.47,-442.45"/>
<polygon fill="midnightblue" stroke="midnightblue" points="637.25,-440.3 628.93,-433.74 631.34,-444.05 637.25,-440.3"/>
</g>
<!-- Node77 -->
<g id="node27" class="node">
<title>Node77</title>
<g id="a_node27"><a xlink:href="coroutine_8h.html" target="_top" xlink:title=" ">
<polygon fill="white" stroke="black" points="226,-537.5 226,-556.5 303,-556.5 303,-537.5 226,-537.5"/>
<text text-anchor="middle" x="264.5" y="-544.5" font-family="Helvetica,sans-Serif" font-size="10.00">./coroutine.h</text>
</a>
</g>
</g>
<!-- Node1&#45;&gt;Node77 -->
<g id="edge46" class="edge">
<title>Node1&#45;&gt;Node77</title>
<path fill="none" stroke="midnightblue" d="M683.83,-597.41C577.16,-584.84 398.57,-563.8 313.04,-553.72"/>
<polygon fill="midnightblue" stroke="midnightblue" points="313.42,-550.24 303.08,-552.55 312.6,-557.19 313.42,-550.24"/>
</g>
<!-- Node82 -->
<g id="node32" class="node">
<title>Node82</title>
<g id="a_node32"><a xlink:href="experimental_2testing_2protocol_8h.html" target="_top" xlink:title=" ">
<polygon fill="white" stroke="black" points="1155,-537.5 1155,-556.5 1226,-556.5 1226,-537.5 1155,-537.5"/>
<text text-anchor="middle" x="1190.5" y="-544.5" font-family="Helvetica,sans-Serif" font-size="10.00">./protocol.h</text>
</a>
</g>
</g>
<!-- Node1&#45;&gt;Node82 -->
<g id="edge52" class="edge">
<title>Node1&#45;&gt;Node82</title>
<path fill="none" stroke="midnightblue" d="M855.2,-595.39C942.79,-583.01 1075.48,-564.26 1144.76,-554.47"/>
<polygon fill="midnightblue" stroke="midnightblue" points="1145.5,-557.9 1154.91,-553.03 1144.52,-550.96 1145.5,-557.9"/>
</g>
<!-- Node3 -->
<g id="node3" class="node">
<title>Node3</title>
<g id="a_node3"><a xlink:href="types_8h.html" target="_top" xlink:title=" ">
<polygon fill="white" stroke="red" points="1424.5,-118 1424.5,-137 1486.5,-137 1486.5,-118 1424.5,-118"/>
<text text-anchor="middle" x="1455.5" y="-125" font-family="Helvetica,sans-Serif" font-size="10.00">../types.h</text>
</a>
</g>
</g>
<!-- Node2&#45;&gt;Node3 -->
<g id="edge2" class="edge">
<title>Node2&#45;&gt;Node3</title>
<path fill="none" stroke="midnightblue" d="M1547.96,-414.42C1561.68,-395.32 1592.5,-347.37 1592.5,-302 1592.5,-302 1592.5,-302 1592.5,-244 1592.5,-190.86 1531.51,-157.22 1490.92,-140.71"/>
<polygon fill="midnightblue" stroke="midnightblue" points="1492.18,-137.44 1481.59,-137.06 1489.63,-143.96 1492.18,-137.44"/>
</g>
<!-- Node16 -->
<g id="node6" class="node">
<title>Node16</title>
<g id="a_node6"><a xlink:href="converter_8h.html" target="_top" xlink:title=" ">
<polygon fill="white" stroke="red" points="1376,-353 1376,-372 1453,-372 1453,-353 1376,-353"/>
<text text-anchor="middle" x="1414.5" y="-360" font-family="Helvetica,sans-Serif" font-size="10.00">./converter.h</text>
</a>
</g>
</g>
<!-- Node2&#45;&gt;Node16 -->
<g id="edge5" class="edge">
<title>Node2&#45;&gt;Node16</title>
<path fill="none" stroke="midnightblue" d="M1523.3,-414.48C1501.99,-404.49 1466.47,-387.85 1441.84,-376.31"/>
<polygon fill="midnightblue" stroke="midnightblue" points="1443.2,-373.08 1432.66,-372.01 1440.23,-379.42 1443.2,-373.08"/>
</g>
<!-- Node4 -->
<g id="node4" class="node">
<title>Node4</title>
<g id="a_node4"><a xlink:href="concepts_8h.html" target="_top" xlink:title=" ">
<polygon fill="white" stroke="red" points="1387,-56.5 1387,-75.5 1462,-75.5 1462,-56.5 1387,-56.5"/>
<text text-anchor="middle" x="1424.5" y="-63.5" font-family="Helvetica,sans-Serif" font-size="10.00">./concepts.h</text>
</a>
</g>
</g>
<!-- Node3&#45;&gt;Node4 -->
<g id="edge3" class="edge">
<title>Node3&#45;&gt;Node4</title>
<path fill="none" stroke="midnightblue" d="M1451.06,-117.98C1446.55,-109.32 1439.43,-95.65 1433.69,-84.65"/>
<polygon fill="midnightblue" stroke="midnightblue" points="1436.66,-82.76 1428.93,-75.51 1430.45,-85.99 1436.66,-82.76"/>
</g>
<!-- Node14 -->
<g id="node5" class="node">
<title>Node14</title>
<g id="a_node5"><a xlink:title=" ">
<polygon fill="white" stroke="#bfbfbf" points="884,-0.5 884,-19.5 935,-19.5 935,-0.5 884,-0.5"/>
<text text-anchor="middle" x="909.5" y="-7.5" font-family="Helvetica,sans-Serif" font-size="10.00">variant</text>
</a>
</g>
</g>
<!-- Node4&#45;&gt;Node14 -->
<g id="edge4" class="edge">
<title>Node4&#45;&gt;Node14</title>
<path fill="none" stroke="midnightblue" d="M1386.63,-61.03C1290.68,-50.97 1038.98,-24.58 945.3,-14.75"/>
<polygon fill="midnightblue" stroke="midnightblue" points="945.5,-11.26 935.19,-13.69 944.77,-18.22 945.5,-11.26"/>
</g>
<!-- Node17 -->
<g id="node7" class="node">
<title>Node17</title>
<g id="a_node7"><a xlink:href="algorithm_8h.html" target="_top" xlink:title=" ">
<polygon fill="white" stroke="red" points="1373.5,-291.5 1373.5,-310.5 1455.5,-310.5 1455.5,-291.5 1373.5,-291.5"/>
<text text-anchor="middle" x="1414.5" y="-298.5" font-family="Helvetica,sans-Serif" font-size="10.00">../algorithm.h</text>
</a>
</g>
</g>
<!-- Node16&#45;&gt;Node17 -->
<g id="edge6" class="edge">
<title>Node16&#45;&gt;Node17</title>
<path fill="none" stroke="midnightblue" d="M1414.5,-352.98C1414.5,-344.58 1414.5,-331.48 1414.5,-320.66"/>
<polygon fill="midnightblue" stroke="midnightblue" points="1418,-320.51 1414.5,-310.51 1411,-320.51 1418,-320.51"/>
</g>
<!-- Node43 -->
<g id="node9" class="node">
<title>Node43</title>
<g id="a_node9"><a xlink:href="traits_8h.html" target="_top" xlink:title=" ">
<polygon fill="white" stroke="red" points="1219,-291.5 1219,-310.5 1276,-310.5 1276,-291.5 1219,-291.5"/>
<text text-anchor="middle" x="1247.5" y="-298.5" font-family="Helvetica,sans-Serif" font-size="10.00">./traits.h</text>
</a>
</g>
</g>
<!-- Node16&#45;&gt;Node43 -->
<g id="edge10" class="edge">
<title>Node16&#45;&gt;Node43</title>
<path fill="none" stroke="midnightblue" d="M1390.57,-352.98C1361.8,-342.72 1313.34,-325.46 1280.9,-313.9"/>
<polygon fill="midnightblue" stroke="midnightblue" points="1281.98,-310.57 1271.38,-310.51 1279.63,-317.16 1281.98,-310.57"/>
</g>
<!-- Node17&#45;&gt;Node3 -->
<g id="edge7" class="edge">
<title>Node17&#45;&gt;Node3</title>
<path fill="none" stroke="midnightblue" d="M1419.72,-291.37C1424.8,-282.54 1432.36,-268.28 1436.5,-255 1448.01,-218.02 1452.66,-172.73 1454.45,-147.6"/>
<polygon fill="midnightblue" stroke="midnightblue" points="1457.96,-147.49 1455.1,-137.29 1450.98,-147.05 1457.96,-147.49"/>
</g>
<!-- Node26 -->
<g id="node8" class="node">
<title>Node26</title>
<g id="a_node8"><a xlink:href="view_8h.html" target="_top" xlink:title=" ">
<polygon fill="white" stroke="red" points="1483.5,-179.5 1483.5,-198.5 1537.5,-198.5 1537.5,-179.5 1483.5,-179.5"/>
<text text-anchor="middle" x="1510.5" y="-186.5" font-family="Helvetica,sans-Serif" font-size="10.00">./view.h</text>
</a>
</g>
</g>
<!-- Node17&#45;&gt;Node26 -->
<g id="edge8" class="edge">
<title>Node17&#45;&gt;Node26</title>
<path fill="none" stroke="midnightblue" d="M1427.29,-291.37C1439.12,-282.98 1456.75,-269.42 1469.5,-255 1482.44,-240.36 1493.99,-221.2 1501.51,-207.48"/>
<polygon fill="midnightblue" stroke="midnightblue" points="1504.63,-209.07 1506.23,-198.59 1498.45,-205.78 1504.63,-209.07"/>
</g>
<!-- Node26&#45;&gt;Node3 -->
<g id="edge9" class="edge">
<title>Node26&#45;&gt;Node3</title>
<path fill="none" stroke="midnightblue" d="M1502.62,-179.48C1494.21,-170.37 1480.68,-155.74 1470.27,-144.48"/>
<polygon fill="midnightblue" stroke="midnightblue" points="1472.72,-141.98 1463.37,-137.01 1467.58,-146.73 1472.72,-141.98"/>
</g>
<!-- Node43&#45;&gt;Node3 -->
<g id="edge11" class="edge">
<title>Node43&#45;&gt;Node3</title>
<path fill="none" stroke="midnightblue" d="M1257.81,-291.5C1290.94,-264.18 1394.95,-178.43 1437.29,-143.51"/>
<polygon fill="midnightblue" stroke="midnightblue" points="1439.63,-146.12 1445.12,-137.06 1435.18,-140.72 1439.63,-146.12"/>
</g>
<!-- Node43&#45;&gt;Node14 -->
<g id="edge25" class="edge">
<title>Node43&#45;&gt;Node14</title>
<path fill="none" stroke="midnightblue" d="M1252.78,-291.23C1263.23,-273.04 1285.5,-229.6 1285.5,-190 1285.5,-190 1285.5,-190 1285.5,-126.5 1285.5,-77.76 1245.89,-76.12 1201.5,-56 1115.48,-17.01 1002.14,-10.83 945.28,-10.43"/>
<polygon fill="midnightblue" stroke="midnightblue" points="945.02,-6.93 935.01,-10.42 945.01,-13.93 945.02,-6.93"/>
</g>
<!-- Node35 -->
<g id="node10" class="node">
<title>Node35</title>
<g id="a_node10"><a xlink:href="protocol_2base_8h.html" target="_top" xlink:title=" ">
<polygon fill="white" stroke="red" points="1088,-235.5 1088,-254.5 1143,-254.5 1143,-235.5 1088,-235.5"/>
<text text-anchor="middle" x="1115.5" y="-242.5" font-family="Helvetica,sans-Serif" font-size="10.00">./base.h</text>
</a>
</g>
</g>
<!-- Node43&#45;&gt;Node35 -->
<g id="edge12" class="edge">
<title>Node43&#45;&gt;Node35</title>
<path fill="none" stroke="midnightblue" d="M1226.58,-291.44C1204.76,-282.52 1170.35,-268.44 1145.61,-258.32"/>
<polygon fill="midnightblue" stroke="midnightblue" points="1146.9,-255.06 1136.32,-254.52 1144.25,-261.54 1146.9,-255.06"/>
</g>
<!-- Node36 -->
<g id="node11" class="node">
<title>Node36</title>
<g id="a_node11"><a xlink:href="protocol_2error_8h.html" target="_top" xlink:title=" ">
<polygon fill="white" stroke="red" points="1127.5,-179.5 1127.5,-198.5 1181.5,-198.5 1181.5,-179.5 1127.5,-179.5"/>
<text text-anchor="middle" x="1154.5" y="-186.5" font-family="Helvetica,sans-Serif" font-size="10.00">./error.h</text>
</a>
</g>
</g>
<!-- Node43&#45;&gt;Node36 -->
<g id="edge20" class="edge">
<title>Node43&#45;&gt;Node36</title>
<path fill="none" stroke="midnightblue" d="M1240.2,-291.37C1224.72,-273.05 1188.36,-230.05 1168.33,-206.36"/>
<polygon fill="midnightblue" stroke="midnightblue" points="1170.89,-203.97 1161.76,-198.59 1165.55,-208.49 1170.89,-203.97"/>
</g>
<!-- Node53 -->
<g id="node16" class="node">
<title>Node53</title>
<g id="a_node16"><a xlink:href="message_8h.html" target="_top" xlink:title=" ">
<polygon fill="white" stroke="black" points="1351.5,-235.5 1351.5,-254.5 1427.5,-254.5 1427.5,-235.5 1351.5,-235.5"/>
<text text-anchor="middle" x="1389.5" y="-242.5" font-family="Helvetica,sans-Serif" font-size="10.00">./message.h</text>
</a>
</g>
</g>
<!-- Node43&#45;&gt;Node53 -->
<g id="edge21" class="edge">
<title>Node43&#45;&gt;Node53</title>
<path fill="none" stroke="midnightblue" d="M1270,-291.44C1293.58,-282.48 1330.82,-268.31 1357.46,-258.18"/>
<polygon fill="midnightblue" stroke="midnightblue" points="1359,-261.34 1367.1,-254.52 1356.51,-254.8 1359,-261.34"/>
</g>
<!-- Node20 -->
<g id="node17" class="node">
<title>Node20</title>
<g id="a_node17"><a xlink:title=" ">
<polygon fill="white" stroke="#bfbfbf" points="975.5,-235.5 975.5,-254.5 1031.5,-254.5 1031.5,-235.5 975.5,-235.5"/>
<text text-anchor="middle" x="1003.5" y="-242.5" font-family="Helvetica,sans-Serif" font-size="10.00">optional</text>
</a>
</g>
</g>
<!-- Node43&#45;&gt;Node20 -->
<g id="edge24" class="edge">
<title>Node43&#45;&gt;Node20</title>
<path fill="none" stroke="midnightblue" d="M1218.55,-293.59C1174.47,-283.84 1090.5,-265.25 1041.55,-254.42"/>
<polygon fill="midnightblue" stroke="midnightblue" points="1042.18,-250.98 1031.66,-252.23 1040.66,-257.81 1042.18,-250.98"/>
</g>
<!-- Node35&#45;&gt;Node14 -->
<g id="edge19" class="edge">
<title>Node35&#45;&gt;Node14</title>
<path fill="none" stroke="midnightblue" d="M1112.1,-235.47C1106.41,-222.07 1093.86,-195.88 1076.5,-179 1053.1,-156.25 1037.24,-164.28 1012.5,-143 972.07,-108.23 936.69,-55.5 919.88,-28.41"/>
<polygon fill="midnightblue" stroke="midnightblue" points="922.75,-26.39 914.56,-19.67 916.77,-30.03 922.75,-26.39"/>
</g>
<!-- Node35&#45;&gt;Node36 -->
<g id="edge13" class="edge">
<title>Node35&#45;&gt;Node36</title>
<path fill="none" stroke="midnightblue" d="M1121.94,-235.08C1127.45,-227.46 1135.53,-216.26 1142.26,-206.94"/>
<polygon fill="midnightblue" stroke="midnightblue" points="1145.16,-208.91 1148.18,-198.75 1139.49,-204.81 1145.16,-208.91"/>
</g>
<!-- Node41 -->
<g id="node14" class="node">
<title>Node41</title>
<g id="a_node14"><a xlink:title=" ">
<polygon fill="white" stroke="#bfbfbf" points="1038,-179.5 1038,-198.5 1067,-198.5 1067,-179.5 1038,-179.5"/>
<text text-anchor="middle" x="1052.5" y="-186.5" font-family="Helvetica,sans-Serif" font-size="10.00">bit</text>
</a>
</g>
</g>
<!-- Node35&#45;&gt;Node41 -->
<g id="edge17" class="edge">
<title>Node35&#45;&gt;Node41</title>
<path fill="none" stroke="midnightblue" d="M1105.38,-235.32C1095.97,-227.26 1081.76,-215.08 1070.43,-205.37"/>
<polygon fill="midnightblue" stroke="midnightblue" points="1072.68,-202.68 1062.81,-198.83 1068.12,-208 1072.68,-202.68"/>
</g>
<!-- Node42 -->
<g id="node15" class="node">
<title>Node42</title>
<g id="a_node15"><a xlink:title=" ">
<polygon fill="white" stroke="#bfbfbf" points="975.5,-179.5 975.5,-198.5 1019.5,-198.5 1019.5,-179.5 975.5,-179.5"/>
<text text-anchor="middle" x="997.5" y="-186.5" font-family="Helvetica,sans-Serif" font-size="10.00">bitset</text>
</a>
</g>
</g>
<!-- Node35&#45;&gt;Node42 -->
<g id="edge18" class="edge">
<title>Node35&#45;&gt;Node42</title>
<path fill="none" stroke="midnightblue" d="M1096.8,-235.44C1077.56,-226.64 1047.35,-212.81 1025.3,-202.72"/>
<polygon fill="midnightblue" stroke="midnightblue" points="1026.66,-199.5 1016.11,-198.52 1023.75,-205.86 1026.66,-199.5"/>
</g>
<!-- Node37 -->
<g id="node12" class="node">
<title>Node37</title>
<g id="a_node12"><a xlink:href="string__buffer_8h.html" target="_top" xlink:title=" ">
<polygon fill="white" stroke="red" points="1021.5,-112.5 1021.5,-142.5 1143.5,-142.5 1143.5,-112.5 1021.5,-112.5"/>
<text text-anchor="start" x="1029.5" y="-130.5" font-family="Helvetica,sans-Serif" font-size="10.00">../experimental/string</text>
<text text-anchor="middle" x="1082.5" y="-119.5" font-family="Helvetica,sans-Serif" font-size="10.00">_buffer.h</text>
</a>
</g>
</g>
<!-- Node36&#45;&gt;Node37 -->
<g id="edge14" class="edge">
<title>Node36&#45;&gt;Node37</title>
<path fill="none" stroke="midnightblue" d="M1144.18,-179.48C1134.62,-171.57 1119.99,-159.48 1107.39,-149.07"/>
<polygon fill="midnightblue" stroke="midnightblue" points="1109.41,-146.2 1099.47,-142.52 1104.95,-151.59 1109.41,-146.2"/>
</g>
<!-- Node6 -->
<g id="node13" class="node">
<title>Node6</title>
<g id="a_node13"><a xlink:title=" ">
<polygon fill="white" stroke="#bfbfbf" points="1150.5,-56.5 1150.5,-75.5 1192.5,-75.5 1192.5,-56.5 1150.5,-56.5"/>
<text text-anchor="middle" x="1171.5" y="-63.5" font-family="Helvetica,sans-Serif" font-size="10.00">array</text>
</a>
</g>
</g>
<!-- Node36&#45;&gt;Node6 -->
<g id="edge16" class="edge">
<title>Node36&#45;&gt;Node6</title>
<path fill="none" stroke="midnightblue" d="M1155.72,-179.3C1158.47,-159.76 1165.17,-112.06 1168.89,-85.55"/>
<polygon fill="midnightblue" stroke="midnightblue" points="1172.36,-86.01 1170.29,-75.62 1165.43,-85.04 1172.36,-86.01"/>
</g>
<!-- Node37&#45;&gt;Node6 -->
<g id="edge15" class="edge">
<title>Node37&#45;&gt;Node6</title>
<path fill="none" stroke="midnightblue" d="M1103.59,-112.4C1117.59,-103.04 1135.91,-90.79 1149.99,-81.38"/>
<polygon fill="midnightblue" stroke="midnightblue" points="1152.18,-84.13 1158.55,-75.66 1148.29,-78.31 1152.18,-84.13"/>
</g>
<!-- Node53&#45;&gt;Node4 -->
<g id="edge22" class="edge">
<title>Node53&#45;&gt;Node4</title>
<path fill="none" stroke="midnightblue" d="M1391.19,-235.35C1395.33,-214.26 1406.27,-158.51 1415.5,-112 1417.23,-103.3 1419.16,-93.65 1420.78,-85.53"/>
<polygon fill="midnightblue" stroke="midnightblue" points="1424.23,-86.12 1422.77,-75.63 1417.37,-84.74 1424.23,-86.12"/>
</g>
<!-- Node53&#45;&gt;Node26 -->
<g id="edge23" class="edge">
<title>Node53&#45;&gt;Node26</title>
<path fill="none" stroke="midnightblue" d="M1408.67,-235.44C1428.41,-226.64 1459.39,-212.81 1481.99,-202.72"/>
<polygon fill="midnightblue" stroke="midnightblue" points="1483.71,-205.79 1491.42,-198.52 1480.86,-199.4 1483.71,-205.79"/>
</g>
<!-- Node56 -->
<g id="node19" class="node">
<title>Node56</title>
<g id="a_node19"><a xlink:href="util_8h.html" target="_top" xlink:title=" ">
<polygon fill="white" stroke="red" points="727.5,-235.5 727.5,-254.5 797.5,-254.5 797.5,-235.5 727.5,-235.5"/>
<text text-anchor="middle" x="762.5" y="-242.5" font-family="Helvetica,sans-Serif" font-size="10.00">./pmr/util.h</text>
</a>
</g>
</g>
<!-- Node55&#45;&gt;Node56 -->
<g id="edge27" class="edge">
<title>Node55&#45;&gt;Node56</title>
<path fill="none" stroke="midnightblue" d="M743.3,-291.08C746.41,-283.77 750.92,-273.18 754.79,-264.1"/>
<polygon fill="midnightblue" stroke="midnightblue" points="758.07,-265.32 758.77,-254.75 751.63,-262.58 758.07,-265.32"/>
</g>
<!-- Node22 -->
<g id="node20" class="node">
<title>Node22</title>
<g id="a_node20"><a xlink:title=" ">
<polygon fill="white" stroke="#bfbfbf" points="854,-235.5 854,-254.5 919,-254.5 919,-235.5 854,-235.5"/>
<text text-anchor="middle" x="886.5" y="-242.5" font-family="Helvetica,sans-Serif" font-size="10.00">functional</text>
</a>
</g>
</g>
<!-- Node55&#45;&gt;Node22 -->
<g id="edge29" class="edge">
<title>Node55&#45;&gt;Node22</title>
<path fill="none" stroke="midnightblue" d="M762.79,-291.44C787.31,-282.44 826.1,-268.19 853.7,-258.05"/>
<polygon fill="midnightblue" stroke="midnightblue" points="855.14,-261.25 863.32,-254.52 852.72,-254.68 855.14,-261.25"/>
</g>
<!-- Node51 -->
<g id="node21" class="node">
<title>Node51</title>
<g id="a_node21"><a xlink:title=" ">
<polygon fill="white" stroke="#bfbfbf" points="651.5,-235.5 651.5,-254.5 709.5,-254.5 709.5,-235.5 651.5,-235.5"/>
<text text-anchor="middle" x="680.5" y="-242.5" font-family="Helvetica,sans-Serif" font-size="10.00">memory</text>
</a>
</g>
</g>
<!-- Node55&#45;&gt;Node51 -->
<g id="edge30" class="edge">
<title>Node55&#45;&gt;Node51</title>
<path fill="none" stroke="midnightblue" d="M730.02,-291.32C721.3,-283.34 708.16,-271.31 697.6,-261.65"/>
<polygon fill="midnightblue" stroke="midnightblue" points="699.89,-259 690.15,-254.83 695.17,-264.17 699.89,-259"/>
</g>
<!-- Node56&#45;&gt;Node41 -->
<g id="edge28" class="edge">
<title>Node56&#45;&gt;Node41</title>
<path fill="none" stroke="midnightblue" d="M797.82,-240.21C847.35,-234.41 940.29,-221.82 1028.07,-198.63"/>
<polygon fill="midnightblue" stroke="midnightblue" points="1029.18,-201.95 1037.92,-195.97 1027.36,-195.2 1029.18,-201.95"/>
</g>
<!-- Node57&#45;&gt;Node14 -->
<g id="edge35" class="edge">
<title>Node57&#45;&gt;Node14</title>
<path fill="none" stroke="midnightblue" d="M918.22,-347.37C880.07,-329.85 825.5,-296.05 825.5,-246 825.5,-246 825.5,-246 825.5,-126.5 825.5,-83.47 864.1,-45.7 888.97,-25.84"/>
<polygon fill="midnightblue" stroke="midnightblue" points="891.31,-28.45 897.11,-19.58 887.05,-22.9 891.31,-28.45"/>
</g>
<!-- Node57&#45;&gt;Node20 -->
<g id="edge34" class="edge">
<title>Node57&#45;&gt;Node20</title>
<path fill="none" stroke="midnightblue" d="M971.29,-347.4C981.06,-338.14 992.57,-325.16 998.5,-311 1004.59,-296.47 1005.53,-278.52 1005.13,-265.17"/>
<polygon fill="midnightblue" stroke="midnightblue" points="1008.6,-264.59 1004.52,-254.82 1001.61,-265 1008.6,-264.59"/>
</g>
<!-- Node58 -->
<g id="node23" class="node">
<title>Node58</title>
<g id="a_node23"><a xlink:href="experimental_2contiguous__tree_2base_8h.html" target="_top" xlink:title=" ">
<polygon fill="white" stroke="red" points="934,-291.5 934,-310.5 989,-310.5 989,-291.5 934,-291.5"/>
<text text-anchor="middle" x="961.5" y="-298.5" font-family="Helvetica,sans-Serif" font-size="10.00">./base.h</text>
</a>
</g>
</g>
<!-- Node57&#45;&gt;Node58 -->
<g id="edge32" class="edge">
<title>Node57&#45;&gt;Node58</title>
<path fill="none" stroke="midnightblue" d="M956.16,-347.4C957.09,-339.47 958.27,-329.46 959.28,-320.86"/>
<polygon fill="midnightblue" stroke="midnightblue" points="962.79,-321 960.48,-310.66 955.84,-320.18 962.79,-321"/>
</g>
<!-- Node58&#45;&gt;Node22 -->
<g id="edge33" class="edge">
<title>Node58&#45;&gt;Node22</title>
<path fill="none" stroke="midnightblue" d="M949.45,-291.32C938.04,-283.11 920.67,-270.6 907.07,-260.81"/>
<polygon fill="midnightblue" stroke="midnightblue" points="908.93,-257.84 898.77,-254.83 904.84,-263.52 908.93,-257.84"/>
</g>
<!-- Node59&#45;&gt;Node4 -->
<g id="edge37" class="edge">
<title>Node59&#45;&gt;Node4</title>
<path fill="none" stroke="midnightblue" d="M1591.56,-117.98C1557.53,-107.59 1499.92,-90.01 1462.04,-78.45"/>
<polygon fill="midnightblue" stroke="midnightblue" points="1462.97,-75.08 1452.39,-75.51 1460.93,-81.78 1462.97,-75.08"/>
</g>
<!-- Node60&#45;&gt;Node37 -->
<g id="edge39" class="edge">
<title>Node60&#45;&gt;Node37</title>
<path fill="none" stroke="midnightblue" d="M613.25,-414.47C592.51,-396.18 547.5,-350.87 547.5,-302 547.5,-302 547.5,-302 547.5,-244 547.5,-150.22 865.56,-132.39 1011.21,-129.14"/>
<polygon fill="midnightblue" stroke="midnightblue" points="1011.46,-132.64 1021.39,-128.93 1011.32,-125.64 1011.46,-132.64"/>
</g>
<!-- Node60&#45;&gt;Node42 -->
<g id="edge45" class="edge">
<title>Node60&#45;&gt;Node42</title>
<path fill="none" stroke="midnightblue" d="M621.12,-414.38C613.52,-384.69 593.03,-285.74 642.5,-235 664.88,-212.04 882.04,-196.85 965.27,-191.82"/>
<polygon fill="midnightblue" stroke="midnightblue" points="965.64,-195.31 975.41,-191.22 965.22,-188.32 965.64,-195.31"/>
</g>
<!-- Node61 -->
<g id="node26" class="node">
<title>Node61</title>
<g id="a_node26"><a xlink:href="experimental_2testing_2base_8h.html" target="_top" xlink:title=" ">
<polygon fill="white" stroke="red" points="828,-353 828,-372 883,-372 883,-353 828,-353"/>
<text text-anchor="middle" x="855.5" y="-360" font-family="Helvetica,sans-Serif" font-size="10.00">./base.h</text>
</a>
</g>
</g>
<!-- Node60&#45;&gt;Node61 -->
<g id="edge40" class="edge">
<title>Node60&#45;&gt;Node61</title>
<path fill="none" stroke="midnightblue" d="M656.74,-414.48C699.4,-403.53 773.22,-384.6 817.89,-373.15"/>
<polygon fill="midnightblue" stroke="midnightblue" points="818.95,-376.49 827.77,-370.61 817.21,-369.71 818.95,-376.49"/>
</g>
<!-- Node61&#45;&gt;Node14 -->
<g id="edge44" class="edge">
<title>Node61&#45;&gt;Node14</title>
<path fill="none" stroke="midnightblue" d="M827.98,-360.32C766.52,-356.06 623.5,-336.44 623.5,-246 623.5,-246 623.5,-246 623.5,-126.5 623.5,-73.12 796.97,-32.83 873.71,-17.62"/>
<polygon fill="midnightblue" stroke="midnightblue" points="874.72,-20.99 883.87,-15.64 873.38,-14.12 874.72,-20.99"/>
</g>
<!-- Node61&#45;&gt;Node17 -->
<g id="edge41" class="edge">
<title>Node61&#45;&gt;Node17</title>
<path fill="none" stroke="midnightblue" d="M874.37,-352.9C880.09,-350.63 886.45,-348.41 892.5,-347 937.52,-336.47 1240.31,-314.28 1363.01,-305.59"/>
<polygon fill="midnightblue" stroke="midnightblue" points="1363.54,-309.07 1373.27,-304.87 1363.05,-302.08 1363.54,-309.07"/>
</g>
<!-- Node61&#45;&gt;Node37 -->
<g id="edge43" class="edge">
<title>Node61&#45;&gt;Node37</title>
<path fill="none" stroke="midnightblue" d="M861.98,-352.93C875.26,-335.17 906.2,-292.86 928.5,-255 947.67,-222.46 939.1,-204.99 966.5,-179 981.63,-164.65 1001.5,-154 1020.51,-146.27"/>
<polygon fill="midnightblue" stroke="midnightblue" points="1021.96,-149.46 1030.04,-142.6 1019.45,-142.93 1021.96,-149.46"/>
</g>
<!-- Node61&#45;&gt;Node55 -->
<g id="edge42" class="edge">
<title>Node61&#45;&gt;Node55</title>
<path fill="none" stroke="midnightblue" d="M838.88,-352.98C819.58,-343.08 787.54,-326.64 765.07,-315.12"/>
<polygon fill="midnightblue" stroke="midnightblue" points="766.58,-311.96 756.09,-310.51 763.39,-318.19 766.58,-311.96"/>
</g>
<!-- Node78 -->
<g id="node28" class="node">
<title>Node78</title>
<g id="a_node28"><a xlink:href="data__promise_8h.html" target="_top" xlink:title=" ">
<polygon fill="white" stroke="red" points="202,-476 202,-495 327,-495 327,-476 202,-476"/>
<text text-anchor="middle" x="264.5" y="-483" font-family="Helvetica,sans-Serif" font-size="10.00">../coro/data_promise.h</text>
</a>
</g>
</g>
<!-- Node77&#45;&gt;Node78 -->
<g id="edge47" class="edge">
<title>Node77&#45;&gt;Node78</title>
<path fill="none" stroke="midnightblue" d="M264.5,-537.48C264.5,-529.08 264.5,-515.98 264.5,-505.16"/>
<polygon fill="midnightblue" stroke="midnightblue" points="268,-505.01 264.5,-495.01 261,-505.01 268,-505.01"/>
</g>
<!-- Node79 -->
<g id="node29" class="node">
<title>Node79</title>
<g id="a_node29"><a xlink:href="memory__promise_8h.html" target="_top" xlink:title=" ">
<polygon fill="white" stroke="red" points="0,-476 0,-495 145,-495 145,-476 0,-476"/>
<text text-anchor="middle" x="72.5" y="-483" font-family="Helvetica,sans-Serif" font-size="10.00">../coro/memory_promise.h</text>
</a>
</g>
</g>
<!-- Node77&#45;&gt;Node79 -->
<g id="edge48" class="edge">
<title>Node77&#45;&gt;Node79</title>
<path fill="none" stroke="midnightblue" d="M236.99,-537.48C203.63,-527.14 147.24,-509.66 109.94,-498.1"/>
<polygon fill="midnightblue" stroke="midnightblue" points="110.55,-494.63 99.96,-495.01 108.47,-501.31 110.55,-494.63"/>
</g>
<!-- Node80 -->
<g id="node30" class="node">
<title>Node80</title>
<g id="a_node30"><a xlink:href="owning__coroutine__handle_8h.html" target="_top" xlink:title=" ">
<polygon fill="white" stroke="red" points="345.5,-470.5 345.5,-500.5 481.5,-500.5 481.5,-470.5 345.5,-470.5"/>
<text text-anchor="start" x="353.5" y="-488.5" font-family="Helvetica,sans-Serif" font-size="10.00">../coro/owning_coroutine</text>
<text text-anchor="middle" x="413.5" y="-477.5" font-family="Helvetica,sans-Serif" font-size="10.00">_handle.h</text>
</a>
</g>
</g>
<!-- Node77&#45;&gt;Node80 -->
<g id="edge49" class="edge">
<title>Node77&#45;&gt;Node80</title>
<path fill="none" stroke="midnightblue" d="M285.85,-537.48C307.44,-528.85 341.47,-515.26 368.96,-504.29"/>
<polygon fill="midnightblue" stroke="midnightblue" points="370.39,-507.48 378.38,-500.52 367.8,-500.98 370.39,-507.48"/>
</g>
<!-- Node81 -->
<g id="node31" class="node">
<title>Node81</title>
<g id="a_node31"><a xlink:title=" ">
<polygon fill="white" stroke="#bfbfbf" points="262.5,-414.5 262.5,-433.5 324.5,-433.5 324.5,-414.5 262.5,-414.5"/>
<text text-anchor="middle" x="293.5" y="-421.5" font-family="Helvetica,sans-Serif" font-size="10.00">coroutine</text>
</a>
</g>
</g>
<!-- Node77&#45;&gt;Node81 -->
<g id="edge51" class="edge">
<title>Node77&#45;&gt;Node81</title>
<path fill="none" stroke="midnightblue" d="M239.34,-537.38C223.08,-530.34 203.21,-518.65 193.5,-501 186.86,-488.93 186.02,-481.57 193.5,-470 206.53,-449.85 230.97,-438.63 252.42,-432.44"/>
<polygon fill="midnightblue" stroke="midnightblue" points="253.54,-435.76 262.34,-429.86 251.78,-428.99 253.54,-435.76"/>
</g>
<!-- Node80&#45;&gt;Node81 -->
<g id="edge50" class="edge">
<title>Node80&#45;&gt;Node81</title>
<path fill="none" stroke="midnightblue" d="M385.06,-470.4C365.38,-460.64 339.36,-447.74 320.09,-438.18"/>
<polygon fill="midnightblue" stroke="midnightblue" points="321.48,-434.96 310.96,-433.66 318.37,-441.24 321.48,-434.96"/>
</g>
<!-- Node82&#45;&gt;Node2 -->
<g id="edge57" class="edge">
<title>Node82&#45;&gt;Node2</title>
<path fill="none" stroke="midnightblue" d="M1226.17,-544.19C1313.07,-539.42 1530.15,-525.17 1551.5,-501 1565.36,-485.3 1558.41,-460.19 1550.99,-443.17"/>
<polygon fill="midnightblue" stroke="midnightblue" points="1553.96,-441.28 1546.49,-433.77 1547.65,-444.3 1553.96,-441.28"/>
</g>
<!-- Node82&#45;&gt;Node14 -->
<g id="edge70" class="edge">
<title>Node82&#45;&gt;Node14</title>
<path fill="none" stroke="midnightblue" d="M1154.85,-543.48C1014.72,-533.13 509.5,-491.19 509.5,-425 509.5,-425 509.5,-425 509.5,-126.5 509.5,-51.01 775.82,-21.81 873.85,-13.62"/>
<polygon fill="midnightblue" stroke="midnightblue" points="874.19,-17.11 883.87,-12.81 873.62,-10.13 874.19,-17.11"/>
</g>
<!-- Node82&#45;&gt;Node17 -->
<g id="edge53" class="edge">
<title>Node82&#45;&gt;Node17</title>
<path fill="none" stroke="midnightblue" d="M1218.1,-537.44C1237.51,-530.26 1263.04,-518.38 1280.5,-501 1311.21,-470.43 1302.99,-451.62 1324.5,-414 1342.06,-383.28 1345.01,-374.31 1367.5,-347 1376.28,-336.34 1387.38,-325.61 1396.6,-317.29"/>
<polygon fill="midnightblue" stroke="midnightblue" points="1398.91,-319.92 1404.1,-310.68 1394.28,-314.67 1398.91,-319.92"/>
</g>
<!-- Node82&#45;&gt;Node26 -->
<g id="edge62" class="edge">
<title>Node82&#45;&gt;Node26</title>
<path fill="none" stroke="midnightblue" d="M1226,-545.57C1308.78,-543.98 1511.85,-536.46 1568.5,-501 1605.06,-478.11 1620.57,-456.17 1611.5,-414 1593.88,-332.07 1543.83,-243.98 1521.49,-207.43"/>
<polygon fill="midnightblue" stroke="midnightblue" points="1524.46,-205.56 1516.21,-198.9 1518.51,-209.25 1524.46,-205.56"/>
</g>
<!-- Node82&#45;&gt;Node43 -->
<g id="edge60" class="edge">
<title>Node82&#45;&gt;Node43</title>
<path fill="none" stroke="midnightblue" d="M1193.41,-537.44C1196.42,-528.43 1201.13,-513.82 1204.5,-501 1221.78,-435.3 1237.35,-356.08 1244.04,-320.68"/>
<polygon fill="midnightblue" stroke="midnightblue" points="1247.49,-321.27 1245.89,-310.79 1240.61,-319.98 1247.49,-321.27"/>
</g>
<!-- Node82&#45;&gt;Node35 -->
<g id="edge54" class="edge">
<title>Node82&#45;&gt;Node35</title>
<path fill="none" stroke="midnightblue" d="M1176.66,-537.26C1164.93,-529.18 1148.47,-516.16 1138.5,-501 1119.04,-471.4 1114.5,-460.42 1114.5,-425 1114.5,-425 1114.5,-425 1114.5,-361.5 1114.5,-327.36 1114.94,-287.55 1115.24,-264.71"/>
<polygon fill="midnightblue" stroke="midnightblue" points="1118.74,-264.74 1115.37,-254.69 1111.74,-264.65 1118.74,-264.74"/>
</g>
<!-- Node82&#45;&gt;Node36 -->
<g id="edge56" class="edge">
<title>Node82&#45;&gt;Node36</title>
<path fill="none" stroke="midnightblue" d="M1185.84,-537.48C1175.69,-518.12 1152.5,-469.04 1152.5,-425 1152.5,-425 1152.5,-425 1152.5,-361.5 1152.5,-306.05 1153.56,-240.53 1154.14,-208.93"/>
<polygon fill="midnightblue" stroke="midnightblue" points="1157.64,-208.63 1154.33,-198.57 1150.64,-208.5 1157.64,-208.63"/>
</g>
<!-- Node82&#45;&gt;Node6 -->
<g id="edge68" class="edge">
<title>Node82&#45;&gt;Node6</title>
<path fill="none" stroke="midnightblue" d="M1190.5,-537.49C1190.5,-517.74 1190.5,-467.22 1190.5,-425 1190.5,-425 1190.5,-425 1190.5,-361.5 1190.5,-280.39 1197.31,-259.82 1190.5,-179 1187.71,-145.86 1180.35,-107.79 1175.66,-85.66"/>
<polygon fill="midnightblue" stroke="midnightblue" points="1179.02,-84.68 1173.48,-75.65 1172.18,-86.17 1179.02,-84.68"/>
</g>
<!-- Node82&#45;&gt;Node41 -->
<g id="edge69" class="edge">
<title>Node82&#45;&gt;Node41</title>
<path fill="none" stroke="midnightblue" d="M1166.51,-537.41C1149.92,-530.22 1128.71,-518.33 1116.5,-501 1050.39,-407.15 1049.49,-260.19 1051.45,-208.63"/>
<polygon fill="midnightblue" stroke="midnightblue" points="1054.95,-208.78 1051.92,-198.63 1047.95,-208.46 1054.95,-208.78"/>
</g>
<!-- Node82&#45;&gt;Node53 -->
<g id="edge58" class="edge">
<title>Node82&#45;&gt;Node53</title>
<path fill="none" stroke="midnightblue" d="M1196.5,-537.41C1202.78,-528.38 1212.91,-513.75 1221.5,-501 1281.41,-412.08 1351.51,-304.5 1378.31,-263.25"/>
<polygon fill="midnightblue" stroke="midnightblue" points="1381.25,-265.15 1383.76,-254.85 1375.38,-261.33 1381.25,-265.15"/>
</g>
<!-- Node82&#45;&gt;Node55 -->
<g id="edge61" class="edge">
<title>Node82&#45;&gt;Node55</title>
<path fill="none" stroke="midnightblue" d="M1154.73,-543.86C1109.97,-540.03 1031.86,-529.53 971.5,-501 874.26,-455.05 785.58,-357.13 752.85,-318.33"/>
<polygon fill="midnightblue" stroke="midnightblue" points="755.49,-316.03 746.4,-310.59 750.11,-320.51 755.49,-316.03"/>
</g>
<!-- Node82&#45;&gt;Node58 -->
<g id="edge63" class="edge">
<title>Node82&#45;&gt;Node58</title>
<path fill="none" stroke="midnightblue" d="M1154.72,-542.66C1125.46,-538.06 1085.05,-527.09 1060.5,-501 1011.81,-449.24 1056.63,-406.32 1017.5,-347 1009.32,-334.59 996.62,-323.99 985.39,-316.2"/>
<polygon fill="midnightblue" stroke="midnightblue" points="987.08,-313.12 976.8,-310.57 983.24,-318.98 987.08,-313.12"/>
</g>
<!-- Node82&#45;&gt;Node61 -->
<g id="edge67" class="edge">
<title>Node82&#45;&gt;Node61</title>
<path fill="none" stroke="midnightblue" d="M1154.81,-540.98C1119.66,-535.01 1065.19,-522.97 1022.5,-501 958.98,-468.31 897.65,-408.28 870.33,-379.59"/>
<polygon fill="midnightblue" stroke="midnightblue" points="872.66,-376.96 863.26,-372.07 867.56,-381.76 872.66,-376.96"/>
</g>
<!-- Node83 -->
<g id="node33" class="node">
<title>Node83</title>
<g id="a_node33"><a xlink:href="endpoint_8h.html" target="_top" xlink:title=" ">
<polygon fill="white" stroke="red" points="1333,-414.5 1333,-433.5 1462,-433.5 1462,-414.5 1333,-414.5"/>
<text text-anchor="middle" x="1397.5" y="-421.5" font-family="Helvetica,sans-Serif" font-size="10.00">../../protocol/endpoint.h</text>
</a>
</g>
</g>
<!-- Node82&#45;&gt;Node83 -->
<g id="edge55" class="edge">
<title>Node82&#45;&gt;Node83</title>
<path fill="none" stroke="midnightblue" d="M1226.26,-537.84C1252.99,-530.72 1289.72,-518.73 1318.5,-501 1344.72,-484.85 1369.35,-458.76 1383.93,-441.74"/>
<polygon fill="midnightblue" stroke="midnightblue" points="1386.87,-443.69 1390.59,-433.77 1381.5,-439.2 1386.87,-443.69"/>
</g>
<!-- Node85 -->
<g id="node34" class="node">
<title>Node85</title>
<g id="a_node34"><a xlink:href="packet_8h.html" target="_top" xlink:title=" ">
<polygon fill="white" stroke="red" points="1478.5,-476 1478.5,-495 1542.5,-495 1542.5,-476 1478.5,-476"/>
<text text-anchor="middle" x="1510.5" y="-483" font-family="Helvetica,sans-Serif" font-size="10.00">./packet.h</text>
</a>
</g>
</g>
<!-- Node82&#45;&gt;Node85 -->
<g id="edge59" class="edge">
<title>Node82&#45;&gt;Node85</title>
<path fill="none" stroke="midnightblue" d="M1226.15,-542.33C1279.61,-536.36 1383.45,-522.96 1469.5,-501 1472.55,-500.22 1475.69,-499.31 1478.81,-498.34"/>
<polygon fill="midnightblue" stroke="midnightblue" points="1480.22,-501.56 1488.6,-495.07 1478,-494.92 1480.22,-501.56"/>
</g>
<!-- Node93 -->
<g id="node35" class="node">
<title>Node93</title>
<g id="a_node35"><a xlink:href="multiplexer_8h.html" target="_top" xlink:title=" ">
<polygon fill="white" stroke="red" points="1371,-476 1371,-495 1460,-495 1460,-476 1371,-476"/>
<text text-anchor="middle" x="1415.5" y="-483" font-family="Helvetica,sans-Serif" font-size="10.00">../multiplexer.h</text>
</a>
</g>
</g>
<!-- Node82&#45;&gt;Node93 -->
<g id="edge64" class="edge">
<title>Node82&#45;&gt;Node93</title>
<path fill="none" stroke="midnightblue" d="M1222.74,-537.48C1262.42,-526.98 1329.9,-509.14 1373.57,-497.59"/>
<polygon fill="midnightblue" stroke="midnightblue" points="1374.55,-500.95 1383.32,-495.01 1372.76,-494.18 1374.55,-500.95"/>
</g>
<!-- Node93&#45;&gt;Node2 -->
<g id="edge66" class="edge">
<title>Node93&#45;&gt;Node2</title>
<path fill="none" stroke="midnightblue" d="M1433.55,-475.98C1454.7,-465.99 1489.94,-449.35 1514.38,-437.81"/>
<polygon fill="midnightblue" stroke="midnightblue" points="1515.93,-440.94 1523.48,-433.51 1512.94,-434.61 1515.93,-440.94"/>
</g>
<!-- Node93&#45;&gt;Node83 -->
<g id="edge65" class="edge">
<title>Node93&#45;&gt;Node83</title>
<path fill="none" stroke="midnightblue" d="M1412.92,-475.98C1410.35,-467.49 1406.33,-454.2 1403.04,-443.32"/>
<polygon fill="midnightblue" stroke="midnightblue" points="1406.32,-442.07 1400.07,-433.51 1399.62,-444.09 1406.32,-442.07"/>
</g>
</g>
</svg>
