<?xml version="1.0" encoding="UTF-8" standalone="no"?>
<!DOCTYPE svg PUBLIC "-//W3C//DTD SVG 1.1//EN"
 "http://www.w3.org/Graphics/SVG/1.1/DTD/svg11.dtd">
<!-- Generated by graphviz version 2.43.0 (0)
 -->
<!-- Title: include/emlabcpp/experimental/testing/parameters.h Pages: 1 -->
<svg width="1679pt" height="576pt"
 viewBox="0.00 0.00 1678.50 576.00" xmlns="http://www.w3.org/2000/svg" xmlns:xlink="http://www.w3.org/1999/xlink">
<g id="graph0" class="graph" transform="scale(1 1) rotate(0) translate(4 572)">
<title>include/emlabcpp/experimental/testing/parameters.h</title>
<polygon fill="white" stroke="transparent" points="-4,4 -4,-572 1674.5,-572 1674.5,4 -4,4"/>
<!-- Node1 -->
<g id="node1" class="node">
<title>Node1</title>
<g id="a_node1"><a xlink:title=" ">
<polygon fill="#bfbfbf" stroke="black" points="883.5,-537.5 883.5,-567.5 1054.5,-567.5 1054.5,-537.5 883.5,-537.5"/>
<text text-anchor="start" x="891.5" y="-555.5" font-family="Helvetica,sans-Serif" font-size="10.00">include/emlabcpp/experimental</text>
<text text-anchor="middle" x="969" y="-544.5" font-family="Helvetica,sans-Serif" font-size="10.00">/testing/parameters.h</text>
</a>
</g>
</g>
<!-- Node2 -->
<g id="node2" class="node">
<title>Node2</title>
<g id="a_node2"><a xlink:href="protocol_2handler_8h.html" target="_top" xlink:title=" ">
<polygon fill="white" stroke="black" points="842,-358.5 842,-377.5 964,-377.5 964,-358.5 842,-358.5"/>
<text text-anchor="middle" x="903" y="-365.5" font-family="Helvetica,sans-Serif" font-size="10.00">../../protocol/handler.h</text>
</a>
</g>
</g>
<!-- Node1&#45;&gt;Node2 -->
<g id="edge1" class="edge">
<title>Node1&#45;&gt;Node2</title>
<path fill="none" stroke="midnightblue" d="M975.55,-537.47C986.75,-511.23 1006.26,-453.77 983,-414 974.14,-398.85 958.09,-388.41 942.69,-381.42"/>
<polygon fill="midnightblue" stroke="midnightblue" points="943.83,-378.11 933.25,-377.51 941.15,-384.57 943.83,-378.11"/>
</g>
<!-- Node55 -->
<g id="node17" class="node">
<title>Node55</title>
<g id="a_node17"><a xlink:href="static__function_8h.html" target="_top" xlink:title=" ">
<polygon fill="white" stroke="black" points="201,-235.5 201,-254.5 317,-254.5 317,-235.5 201,-235.5"/>
<text text-anchor="middle" x="259" y="-242.5" font-family="Helvetica,sans-Serif" font-size="10.00">../../static_function.h</text>
</a>
</g>
</g>
<!-- Node1&#45;&gt;Node55 -->
<g id="edge23" class="edge">
<title>Node1&#45;&gt;Node55</title>
<path fill="none" stroke="midnightblue" d="M883.38,-547.3C678.33,-536.11 176,-501.44 176,-430.5 176,-430.5 176,-430.5 176,-367 176,-322.34 214.93,-282.1 239.47,-261.17"/>
<polygon fill="midnightblue" stroke="midnightblue" points="241.96,-263.65 247.46,-254.6 237.51,-258.25 241.96,-263.65"/>
</g>
<!-- Node57 -->
<g id="node21" class="node">
<title>Node57</title>
<g id="a_node21"><a xlink:href="request__adapter_8h.html" target="_top" xlink:title=" ">
<polygon fill="white" stroke="black" points="634.5,-291.5 634.5,-321.5 741.5,-321.5 741.5,-291.5 634.5,-291.5"/>
<text text-anchor="start" x="642.5" y="-309.5" font-family="Helvetica,sans-Serif" font-size="10.00">../contiguous_tree</text>
<text text-anchor="middle" x="688" y="-298.5" font-family="Helvetica,sans-Serif" font-size="10.00">/request_adapter.h</text>
</a>
</g>
</g>
<!-- Node1&#45;&gt;Node57 -->
<g id="edge28" class="edge">
<title>Node1&#45;&gt;Node57</title>
<path fill="none" stroke="midnightblue" d="M956.79,-537.46C934.05,-511.68 883.17,-455.63 835,-414 796.8,-380.99 748.85,-347.59 718.31,-327.22"/>
<polygon fill="midnightblue" stroke="midnightblue" points="720.07,-324.18 709.8,-321.58 716.2,-330.02 720.07,-324.18"/>
</g>
<!-- Node59 -->
<g id="node23" class="node">
<title>Node59</title>
<g id="a_node23"><a xlink:href="function__view_8h.html" target="_top" xlink:title=" ">
<polygon fill="white" stroke="black" points="1082,-481.5 1082,-500.5 1184,-500.5 1184,-481.5 1082,-481.5"/>
<text text-anchor="middle" x="1133" y="-488.5" font-family="Helvetica,sans-Serif" font-size="10.00">../function_view.h</text>
</a>
</g>
</g>
<!-- Node1&#45;&gt;Node59 -->
<g id="edge33" class="edge">
<title>Node1&#45;&gt;Node59</title>
<path fill="none" stroke="midnightblue" d="M1007.87,-537.4C1035.75,-527.28 1072.94,-513.79 1099.51,-504.15"/>
<polygon fill="midnightblue" stroke="midnightblue" points="1100.93,-507.36 1109.14,-500.66 1098.54,-500.78 1100.93,-507.36"/>
</g>
<!-- Node60 -->
<g id="node25" class="node">
<title>Node60</title>
<g id="a_node25"><a xlink:href="experimental_2testing_2convert_8h.html" target="_top" xlink:title=" ">
<polygon fill="white" stroke="black" points="42,-358.5 42,-377.5 110,-377.5 110,-358.5 42,-358.5"/>
<text text-anchor="middle" x="76" y="-365.5" font-family="Helvetica,sans-Serif" font-size="10.00">./convert.h</text>
</a>
</g>
</g>
<!-- Node1&#45;&gt;Node60 -->
<g id="edge35" class="edge">
<title>Node1&#45;&gt;Node60</title>
<path fill="none" stroke="midnightblue" d="M883.15,-550.45C687.98,-547.45 223.09,-536.62 162,-501 118.02,-475.35 92.53,-417.22 81.89,-387.39"/>
<polygon fill="midnightblue" stroke="midnightblue" points="85.17,-386.15 78.64,-377.8 78.54,-388.4 85.17,-386.15"/>
</g>
<!-- Node77 -->
<g id="node27" class="node">
<title>Node77</title>
<g id="a_node27"><a xlink:href="coroutine_8h.html" target="_top" xlink:title=" ">
<polygon fill="white" stroke="black" points="1382.5,-481.5 1382.5,-500.5 1459.5,-500.5 1459.5,-481.5 1382.5,-481.5"/>
<text text-anchor="middle" x="1421" y="-488.5" font-family="Helvetica,sans-Serif" font-size="10.00">./coroutine.h</text>
</a>
</g>
</g>
<!-- Node1&#45;&gt;Node77 -->
<g id="edge43" class="edge">
<title>Node1&#45;&gt;Node77</title>
<path fill="none" stroke="midnightblue" d="M1054.55,-540.24C1148.54,-527.87 1296.22,-508.43 1372.22,-498.42"/>
<polygon fill="midnightblue" stroke="midnightblue" points="1372.99,-501.85 1382.45,-497.07 1372.08,-494.91 1372.99,-501.85"/>
</g>
<!-- Node82 -->
<g id="node32" class="node">
<title>Node82</title>
<g id="a_node32"><a xlink:href="experimental_2testing_2protocol_8h.html" target="_top" xlink:title=" ">
<polygon fill="white" stroke="black" points="613.5,-481.5 613.5,-500.5 684.5,-500.5 684.5,-481.5 613.5,-481.5"/>
<text text-anchor="middle" x="649" y="-488.5" font-family="Helvetica,sans-Serif" font-size="10.00">./protocol.h</text>
</a>
</g>
</g>
<!-- Node1&#45;&gt;Node82 -->
<g id="edge49" class="edge">
<title>Node1&#45;&gt;Node82</title>
<path fill="none" stroke="midnightblue" d="M893.57,-537.47C831.73,-525.98 746.23,-510.08 694.43,-500.45"/>
<polygon fill="midnightblue" stroke="midnightblue" points="695.01,-496.99 684.54,-498.61 693.73,-503.88 695.01,-496.99"/>
</g>
<!-- Node3 -->
<g id="node3" class="node">
<title>Node3</title>
<g id="a_node3"><a xlink:href="types_8h.html" target="_top" xlink:title=" ">
<polygon fill="white" stroke="red" points="915,-62 915,-81 977,-81 977,-62 915,-62"/>
<text text-anchor="middle" x="946" y="-69" font-family="Helvetica,sans-Serif" font-size="10.00">../types.h</text>
</a>
</g>
</g>
<!-- Node2&#45;&gt;Node3 -->
<g id="edge2" class="edge">
<title>Node2&#45;&gt;Node3</title>
<path fill="none" stroke="midnightblue" d="M919.33,-358.26C947.41,-342.18 1003.94,-304.93 1026,-255 1053.2,-193.45 992.88,-120.07 962.33,-88.37"/>
<polygon fill="midnightblue" stroke="midnightblue" points="964.8,-85.89 955.28,-81.25 959.83,-90.82 964.8,-85.89"/>
</g>
<!-- Node16 -->
<g id="node4" class="node">
<title>Node16</title>
<g id="a_node4"><a xlink:href="converter_8h.html" target="_top" xlink:title=" ">
<polygon fill="white" stroke="red" points="848.5,-297 848.5,-316 925.5,-316 925.5,-297 848.5,-297"/>
<text text-anchor="middle" x="887" y="-304" font-family="Helvetica,sans-Serif" font-size="10.00">./converter.h</text>
</a>
</g>
</g>
<!-- Node2&#45;&gt;Node16 -->
<g id="edge3" class="edge">
<title>Node2&#45;&gt;Node16</title>
<path fill="none" stroke="midnightblue" d="M900.71,-358.48C898.43,-349.99 894.85,-336.7 891.93,-325.82"/>
<polygon fill="midnightblue" stroke="midnightblue" points="895.26,-324.76 889.29,-316.01 888.51,-326.57 895.26,-324.76"/>
</g>
<!-- Node17 -->
<g id="node5" class="node">
<title>Node17</title>
<g id="a_node5"><a xlink:href="algorithm_8h.html" target="_top" xlink:title=" ">
<polygon fill="white" stroke="red" points="935,-235.5 935,-254.5 1017,-254.5 1017,-235.5 935,-235.5"/>
<text text-anchor="middle" x="976" y="-242.5" font-family="Helvetica,sans-Serif" font-size="10.00">../algorithm.h</text>
</a>
</g>
</g>
<!-- Node16&#45;&gt;Node17 -->
<g id="edge4" class="edge">
<title>Node16&#45;&gt;Node17</title>
<path fill="none" stroke="midnightblue" d="M899.75,-296.98C914.03,-287.43 937.4,-271.81 954.51,-260.37"/>
<polygon fill="midnightblue" stroke="midnightblue" points="956.9,-262.98 963.27,-254.51 953.01,-257.16 956.9,-262.98"/>
</g>
<!-- Node43 -->
<g id="node7" class="node">
<title>Node43</title>
<g id="a_node7"><a xlink:href="traits_8h.html" target="_top" xlink:title=" ">
<polygon fill="white" stroke="red" points="578.5,-235.5 578.5,-254.5 635.5,-254.5 635.5,-235.5 578.5,-235.5"/>
<text text-anchor="middle" x="607" y="-242.5" font-family="Helvetica,sans-Serif" font-size="10.00">./traits.h</text>
</a>
</g>
</g>
<!-- Node16&#45;&gt;Node43 -->
<g id="edge8" class="edge">
<title>Node16&#45;&gt;Node43</title>
<path fill="none" stroke="midnightblue" d="M848.36,-297.29C795.06,-285.96 699.5,-265.66 646,-254.29"/>
<polygon fill="midnightblue" stroke="midnightblue" points="646.4,-250.79 635.89,-252.14 644.94,-257.64 646.4,-250.79"/>
</g>
<!-- Node17&#45;&gt;Node3 -->
<g id="edge5" class="edge">
<title>Node17&#45;&gt;Node3</title>
<path fill="none" stroke="midnightblue" d="M974.47,-235.26C969.82,-208.65 955.75,-128.21 949.3,-91.34"/>
<polygon fill="midnightblue" stroke="midnightblue" points="952.66,-90.27 947.49,-81.02 945.77,-91.47 952.66,-90.27"/>
</g>
<!-- Node26 -->
<g id="node6" class="node">
<title>Node26</title>
<g id="a_node6"><a xlink:href="view_8h.html" target="_top" xlink:title=" ">
<polygon fill="white" stroke="red" points="891,-123.5 891,-142.5 945,-142.5 945,-123.5 891,-123.5"/>
<text text-anchor="middle" x="918" y="-130.5" font-family="Helvetica,sans-Serif" font-size="10.00">./view.h</text>
</a>
</g>
</g>
<!-- Node17&#45;&gt;Node26 -->
<g id="edge6" class="edge">
<title>Node17&#45;&gt;Node26</title>
<path fill="none" stroke="midnightblue" d="M971.45,-235.37C961.96,-217.38 939.91,-175.55 927.29,-151.63"/>
<polygon fill="midnightblue" stroke="midnightblue" points="930.29,-149.8 922.53,-142.59 924.1,-153.07 930.29,-149.8"/>
</g>
<!-- Node26&#45;&gt;Node3 -->
<g id="edge7" class="edge">
<title>Node26&#45;&gt;Node3</title>
<path fill="none" stroke="midnightblue" d="M922.01,-123.48C926.09,-114.82 932.52,-101.15 937.7,-90.15"/>
<polygon fill="midnightblue" stroke="midnightblue" points="940.9,-91.55 942,-81.01 934.57,-88.57 940.9,-91.55"/>
</g>
<!-- Node43&#45;&gt;Node3 -->
<g id="edge9" class="edge">
<title>Node43&#45;&gt;Node3</title>
<path fill="none" stroke="midnightblue" d="M601.96,-235.41C589.92,-213.66 562.53,-155.81 591,-123 631.25,-76.62 820.27,-71.73 904.88,-71.93"/>
<polygon fill="midnightblue" stroke="midnightblue" points="904.88,-75.43 914.9,-71.98 904.92,-68.43 904.88,-75.43"/>
</g>
<!-- Node35 -->
<g id="node8" class="node">
<title>Node35</title>
<g id="a_node8"><a xlink:href="protocol_2base_8h.html" target="_top" xlink:title=" ">
<polygon fill="white" stroke="red" points="306.5,-179.5 306.5,-198.5 361.5,-198.5 361.5,-179.5 306.5,-179.5"/>
<text text-anchor="middle" x="334" y="-186.5" font-family="Helvetica,sans-Serif" font-size="10.00">./base.h</text>
</a>
</g>
</g>
<!-- Node43&#45;&gt;Node35 -->
<g id="edge10" class="edge">
<title>Node43&#45;&gt;Node35</title>
<path fill="none" stroke="midnightblue" d="M578.3,-238.32C528.66,-228.5 426.79,-208.35 371.57,-197.43"/>
<polygon fill="midnightblue" stroke="midnightblue" points="371.99,-193.95 361.5,-195.44 370.63,-200.81 371.99,-193.95"/>
</g>
<!-- Node36 -->
<g id="node9" class="node">
<title>Node36</title>
<g id="a_node9"><a xlink:href="protocol_2error_8h.html" target="_top" xlink:title=" ">
<polygon fill="white" stroke="red" points="335,-123.5 335,-142.5 389,-142.5 389,-123.5 335,-123.5"/>
<text text-anchor="middle" x="362" y="-130.5" font-family="Helvetica,sans-Serif" font-size="10.00">./error.h</text>
</a>
</g>
</g>
<!-- Node43&#45;&gt;Node36 -->
<g id="edge18" class="edge">
<title>Node43&#45;&gt;Node36</title>
<path fill="none" stroke="midnightblue" d="M593.61,-235.37C572.58,-222.06 530.26,-196.26 492,-179 461.4,-165.19 425.22,-152.98 398.81,-144.78"/>
<polygon fill="midnightblue" stroke="midnightblue" points="399.78,-141.42 389.19,-141.84 397.73,-148.11 399.78,-141.42"/>
</g>
<!-- Node14 -->
<g id="node14" class="node">
<title>Node14</title>
<g id="a_node14"><a xlink:title=" ">
<polygon fill="white" stroke="#bfbfbf" points="600.5,-123.5 600.5,-142.5 651.5,-142.5 651.5,-123.5 600.5,-123.5"/>
<text text-anchor="middle" x="626" y="-130.5" font-family="Helvetica,sans-Serif" font-size="10.00">variant</text>
</a>
</g>
</g>
<!-- Node43&#45;&gt;Node14 -->
<g id="edge22" class="edge">
<title>Node43&#45;&gt;Node14</title>
<path fill="none" stroke="midnightblue" d="M608.49,-235.37C611.56,-217.62 618.63,-176.67 622.79,-152.6"/>
<polygon fill="midnightblue" stroke="midnightblue" points="626.26,-153.04 624.52,-142.59 619.36,-151.85 626.26,-153.04"/>
</g>
<!-- Node53 -->
<g id="node15" class="node">
<title>Node53</title>
<g id="a_node15"><a xlink:href="message_8h.html" target="_top" xlink:title=" ">
<polygon fill="white" stroke="red" points="804,-179.5 804,-198.5 880,-198.5 880,-179.5 804,-179.5"/>
<text text-anchor="middle" x="842" y="-186.5" font-family="Helvetica,sans-Serif" font-size="10.00">./message.h</text>
</a>
</g>
</g>
<!-- Node43&#45;&gt;Node53 -->
<g id="edge19" class="edge">
<title>Node43&#45;&gt;Node53</title>
<path fill="none" stroke="midnightblue" d="M635.82,-237.38C675.52,-228.25 747.53,-211.71 795.06,-200.79"/>
<polygon fill="midnightblue" stroke="midnightblue" points="795.85,-204.2 804.81,-198.55 794.28,-197.37 795.85,-204.2"/>
</g>
<!-- Node20 -->
<g id="node16" class="node">
<title>Node20</title>
<g id="a_node16"><a xlink:title=" ">
<polygon fill="white" stroke="#bfbfbf" points="654,-179.5 654,-198.5 710,-198.5 710,-179.5 654,-179.5"/>
<text text-anchor="middle" x="682" y="-186.5" font-family="Helvetica,sans-Serif" font-size="10.00">optional</text>
</a>
</g>
</g>
<!-- Node43&#45;&gt;Node20 -->
<g id="edge21" class="edge">
<title>Node43&#45;&gt;Node20</title>
<path fill="none" stroke="midnightblue" d="M619.05,-235.32C630.46,-227.11 647.83,-214.6 661.43,-204.81"/>
<polygon fill="midnightblue" stroke="midnightblue" points="663.66,-207.52 669.73,-198.83 659.57,-201.84 663.66,-207.52"/>
</g>
<!-- Node35&#45;&gt;Node36 -->
<g id="edge11" class="edge">
<title>Node35&#45;&gt;Node36</title>
<path fill="none" stroke="midnightblue" d="M338.62,-179.08C342.46,-171.69 348.02,-160.95 352.76,-151.81"/>
<polygon fill="midnightblue" stroke="midnightblue" points="355.97,-153.24 357.46,-142.75 349.75,-150.02 355.97,-153.24"/>
</g>
<!-- Node41 -->
<g id="node12" class="node">
<title>Node41</title>
<g id="a_node12"><a xlink:title=" ">
<polygon fill="white" stroke="#bfbfbf" points="162.5,-123.5 162.5,-142.5 191.5,-142.5 191.5,-123.5 162.5,-123.5"/>
<text text-anchor="middle" x="177" y="-130.5" font-family="Helvetica,sans-Serif" font-size="10.00">bit</text>
</a>
</g>
</g>
<!-- Node35&#45;&gt;Node41 -->
<g id="edge15" class="edge">
<title>Node35&#45;&gt;Node41</title>
<path fill="none" stroke="midnightblue" d="M309.12,-179.44C279.58,-169.28 230.62,-152.44 201.32,-142.36"/>
<polygon fill="midnightblue" stroke="midnightblue" points="202.43,-139.05 191.84,-139.1 200.16,-145.67 202.43,-139.05"/>
</g>
<!-- Node42 -->
<g id="node13" class="node">
<title>Node42</title>
<g id="a_node13"><a xlink:title=" ">
<polygon fill="white" stroke="#bfbfbf" points="83,-123.5 83,-142.5 127,-142.5 127,-123.5 83,-123.5"/>
<text text-anchor="middle" x="105" y="-130.5" font-family="Helvetica,sans-Serif" font-size="10.00">bitset</text>
</a>
</g>
</g>
<!-- Node35&#45;&gt;Node42 -->
<g id="edge16" class="edge">
<title>Node35&#45;&gt;Node42</title>
<path fill="none" stroke="midnightblue" d="M306.13,-181.19C303.05,-180.45 299.96,-179.71 297,-179 240.84,-165.59 175.35,-150.32 137.19,-141.46"/>
<polygon fill="midnightblue" stroke="midnightblue" points="137.72,-137.99 127.19,-139.14 136.14,-144.81 137.72,-137.99"/>
</g>
<!-- Node35&#45;&gt;Node14 -->
<g id="edge17" class="edge">
<title>Node35&#45;&gt;Node14</title>
<path fill="none" stroke="midnightblue" d="M361.73,-182.87C414.92,-173.04 531.18,-151.54 590.15,-140.63"/>
<polygon fill="midnightblue" stroke="midnightblue" points="590.94,-144.04 600.13,-138.78 589.66,-137.16 590.94,-144.04"/>
</g>
<!-- Node37 -->
<g id="node10" class="node">
<title>Node37</title>
<g id="a_node10"><a xlink:href="string__buffer_8h.html" target="_top" xlink:title=" ">
<polygon fill="white" stroke="red" points="109,-56.5 109,-86.5 231,-86.5 231,-56.5 109,-56.5"/>
<text text-anchor="start" x="117" y="-74.5" font-family="Helvetica,sans-Serif" font-size="10.00">../experimental/string</text>
<text text-anchor="middle" x="170" y="-63.5" font-family="Helvetica,sans-Serif" font-size="10.00">_buffer.h</text>
</a>
</g>
</g>
<!-- Node36&#45;&gt;Node37 -->
<g id="edge12" class="edge">
<title>Node36&#45;&gt;Node37</title>
<path fill="none" stroke="midnightblue" d="M334.9,-123.6C306.55,-114.82 261.27,-100.78 225.32,-89.64"/>
<polygon fill="midnightblue" stroke="midnightblue" points="226.04,-86.2 215.45,-86.59 223.97,-92.89 226.04,-86.2"/>
</g>
<!-- Node6 -->
<g id="node11" class="node">
<title>Node6</title>
<g id="a_node11"><a xlink:title=" ">
<polygon fill="white" stroke="#bfbfbf" points="341,-0.5 341,-19.5 383,-19.5 383,-0.5 341,-0.5"/>
<text text-anchor="middle" x="362" y="-7.5" font-family="Helvetica,sans-Serif" font-size="10.00">array</text>
</a>
</g>
</g>
<!-- Node36&#45;&gt;Node6 -->
<g id="edge14" class="edge">
<title>Node36&#45;&gt;Node6</title>
<path fill="none" stroke="midnightblue" d="M362,-123.3C362,-103.85 362,-56.49 362,-29.9"/>
<polygon fill="midnightblue" stroke="midnightblue" points="365.5,-29.62 362,-19.62 358.5,-29.62 365.5,-29.62"/>
</g>
<!-- Node37&#45;&gt;Node6 -->
<g id="edge13" class="edge">
<title>Node37&#45;&gt;Node6</title>
<path fill="none" stroke="midnightblue" d="M215.5,-56.4C251.17,-45.35 299.84,-30.26 331.1,-20.58"/>
<polygon fill="midnightblue" stroke="midnightblue" points="332.47,-23.82 340.99,-17.51 330.4,-17.13 332.47,-23.82"/>
</g>
<!-- Node53&#45;&gt;Node26 -->
<g id="edge20" class="edge">
<title>Node53&#45;&gt;Node26</title>
<path fill="none" stroke="midnightblue" d="M854.21,-179.32C865.78,-171.11 883.38,-158.6 897.16,-148.81"/>
<polygon fill="midnightblue" stroke="midnightblue" points="899.44,-151.48 905.57,-142.83 895.39,-145.77 899.44,-151.48"/>
</g>
<!-- Node56 -->
<g id="node18" class="node">
<title>Node56</title>
<g id="a_node18"><a xlink:href="util_8h.html" target="_top" xlink:title=" ">
<polygon fill="white" stroke="red" points="142,-179.5 142,-198.5 212,-198.5 212,-179.5 142,-179.5"/>
<text text-anchor="middle" x="177" y="-186.5" font-family="Helvetica,sans-Serif" font-size="10.00">./pmr/util.h</text>
</a>
</g>
</g>
<!-- Node55&#45;&gt;Node56 -->
<g id="edge24" class="edge">
<title>Node55&#45;&gt;Node56</title>
<path fill="none" stroke="midnightblue" d="M245.83,-235.32C233.15,-226.98 213.77,-214.21 198.79,-204.35"/>
<polygon fill="midnightblue" stroke="midnightblue" points="200.42,-201.23 190.14,-198.65 196.57,-207.08 200.42,-201.23"/>
</g>
<!-- Node22 -->
<g id="node19" class="node">
<title>Node22</title>
<g id="a_node19"><a xlink:title=" ">
<polygon fill="white" stroke="#bfbfbf" points="418.5,-179.5 418.5,-198.5 483.5,-198.5 483.5,-179.5 418.5,-179.5"/>
<text text-anchor="middle" x="451" y="-186.5" font-family="Helvetica,sans-Serif" font-size="10.00">functional</text>
</a>
</g>
</g>
<!-- Node55&#45;&gt;Node22 -->
<g id="edge26" class="edge">
<title>Node55&#45;&gt;Node22</title>
<path fill="none" stroke="midnightblue" d="M289.42,-235.44C322.28,-226.2 374.78,-211.44 410.97,-201.26"/>
<polygon fill="midnightblue" stroke="midnightblue" points="412.04,-204.59 420.72,-198.52 410.15,-197.85 412.04,-204.59"/>
</g>
<!-- Node51 -->
<g id="node20" class="node">
<title>Node51</title>
<g id="a_node20"><a xlink:title=" ">
<polygon fill="white" stroke="#bfbfbf" points="230,-179.5 230,-198.5 288,-198.5 288,-179.5 230,-179.5"/>
<text text-anchor="middle" x="259" y="-186.5" font-family="Helvetica,sans-Serif" font-size="10.00">memory</text>
</a>
</g>
</g>
<!-- Node55&#45;&gt;Node51 -->
<g id="edge27" class="edge">
<title>Node55&#45;&gt;Node51</title>
<path fill="none" stroke="midnightblue" d="M259,-235.08C259,-228.01 259,-217.86 259,-208.99"/>
<polygon fill="midnightblue" stroke="midnightblue" points="262.5,-208.75 259,-198.75 255.5,-208.75 262.5,-208.75"/>
</g>
<!-- Node56&#45;&gt;Node41 -->
<g id="edge25" class="edge">
<title>Node56&#45;&gt;Node41</title>
<path fill="none" stroke="midnightblue" d="M177,-179.08C177,-172.01 177,-161.86 177,-152.99"/>
<polygon fill="midnightblue" stroke="midnightblue" points="180.5,-152.75 177,-142.75 173.5,-152.75 180.5,-152.75"/>
</g>
<!-- Node57&#45;&gt;Node14 -->
<g id="edge32" class="edge">
<title>Node57&#45;&gt;Node14</title>
<path fill="none" stroke="midnightblue" d="M697.92,-291.48C713.99,-266.9 741.7,-215.21 719,-179 706.39,-158.89 681.96,-147.54 661.31,-141.28"/>
<polygon fill="midnightblue" stroke="midnightblue" points="662.11,-137.87 651.54,-138.59 660.25,-144.62 662.11,-137.87"/>
</g>
<!-- Node57&#45;&gt;Node20 -->
<g id="edge31" class="edge">
<title>Node57&#45;&gt;Node20</title>
<path fill="none" stroke="midnightblue" d="M687.26,-291.34C686.19,-270.62 684.18,-232.02 682.98,-208.9"/>
<polygon fill="midnightblue" stroke="midnightblue" points="686.46,-208.47 682.45,-198.67 679.47,-208.84 686.46,-208.47"/>
</g>
<!-- Node58 -->
<g id="node22" class="node">
<title>Node58</title>
<g id="a_node22"><a xlink:href="experimental_2contiguous__tree_2base_8h.html" target="_top" xlink:title=" ">
<polygon fill="white" stroke="red" points="485.5,-235.5 485.5,-254.5 540.5,-254.5 540.5,-235.5 485.5,-235.5"/>
<text text-anchor="middle" x="513" y="-242.5" font-family="Helvetica,sans-Serif" font-size="10.00">./base.h</text>
</a>
</g>
</g>
<!-- Node57&#45;&gt;Node58 -->
<g id="edge29" class="edge">
<title>Node57&#45;&gt;Node58</title>
<path fill="none" stroke="midnightblue" d="M646.53,-291.4C616.42,-281.16 576.15,-267.47 547.73,-257.81"/>
<polygon fill="midnightblue" stroke="midnightblue" points="548.8,-254.48 538.21,-254.57 546.55,-261.1 548.8,-254.48"/>
</g>
<!-- Node58&#45;&gt;Node22 -->
<g id="edge30" class="edge">
<title>Node58&#45;&gt;Node22</title>
<path fill="none" stroke="midnightblue" d="M503.04,-235.32C493.87,-227.34 480.06,-215.31 468.97,-205.65"/>
<polygon fill="midnightblue" stroke="midnightblue" points="470.98,-202.76 461.14,-198.83 466.38,-208.04 470.98,-202.76"/>
</g>
<!-- Node12 -->
<g id="node24" class="node">
<title>Node12</title>
<g id="a_node24"><a xlink:title=" ">
<polygon fill="white" stroke="#bfbfbf" points="1111,-420 1111,-439 1171,-439 1171,-420 1111,-420"/>
<text text-anchor="middle" x="1141" y="-427" font-family="Helvetica,sans-Serif" font-size="10.00">concepts</text>
</a>
</g>
</g>
<!-- Node59&#45;&gt;Node12 -->
<g id="edge34" class="edge">
<title>Node59&#45;&gt;Node12</title>
<path fill="none" stroke="midnightblue" d="M1134.15,-481.48C1135.27,-473.08 1137.04,-459.98 1138.49,-449.16"/>
<polygon fill="midnightblue" stroke="midnightblue" points="1141.99,-449.39 1139.86,-439.01 1135.05,-448.45 1141.99,-449.39"/>
</g>
<!-- Node60&#45;&gt;Node37 -->
<g id="edge36" class="edge">
<title>Node60&#45;&gt;Node37</title>
<path fill="none" stroke="midnightblue" d="M65.75,-358.47C45.01,-340.18 0,-294.87 0,-246 0,-246 0,-246 0,-188 0,-136.43 54.19,-106.27 101.39,-89.79"/>
<polygon fill="midnightblue" stroke="midnightblue" points="102.64,-93.06 111.02,-86.57 100.43,-86.42 102.64,-93.06"/>
</g>
<!-- Node60&#45;&gt;Node42 -->
<g id="edge42" class="edge">
<title>Node60&#45;&gt;Node42</title>
<path fill="none" stroke="midnightblue" d="M77.07,-358.43C81.26,-324.75 96.66,-200.99 102.62,-153.1"/>
<polygon fill="midnightblue" stroke="midnightblue" points="106.13,-153.25 103.89,-142.9 99.18,-152.39 106.13,-153.25"/>
</g>
<!-- Node61 -->
<g id="node26" class="node">
<title>Node61</title>
<g id="a_node26"><a xlink:href="experimental_2testing_2base_8h.html" target="_top" xlink:title=" ">
<polygon fill="white" stroke="red" points="288.5,-297 288.5,-316 343.5,-316 343.5,-297 288.5,-297"/>
<text text-anchor="middle" x="316" y="-304" font-family="Helvetica,sans-Serif" font-size="10.00">./base.h</text>
</a>
</g>
</g>
<!-- Node60&#45;&gt;Node61 -->
<g id="edge37" class="edge">
<title>Node60&#45;&gt;Node61</title>
<path fill="none" stroke="midnightblue" d="M110.13,-358.54C154.65,-347.5 232.27,-328.26 278.42,-316.82"/>
<polygon fill="midnightblue" stroke="midnightblue" points="279.46,-320.16 288.33,-314.36 277.78,-313.37 279.46,-320.16"/>
</g>
<!-- Node61&#45;&gt;Node17 -->
<g id="edge38" class="edge">
<title>Node61&#45;&gt;Node17</title>
<path fill="none" stroke="midnightblue" d="M343.52,-303.02C444,-293.96 792.07,-262.58 924.4,-250.65"/>
<polygon fill="midnightblue" stroke="midnightblue" points="925.02,-254.11 934.67,-249.73 924.39,-247.14 925.02,-254.11"/>
</g>
<!-- Node61&#45;&gt;Node37 -->
<g id="edge40" class="edge">
<title>Node61&#45;&gt;Node37</title>
<path fill="none" stroke="midnightblue" d="M288.38,-297.79C233.59,-280.74 113.05,-233.9 74,-143 63.86,-119.39 86.17,-102.1 111.83,-90.54"/>
<polygon fill="midnightblue" stroke="midnightblue" points="113.5,-93.64 121.38,-86.55 110.8,-87.18 113.5,-93.64"/>
</g>
<!-- Node61&#45;&gt;Node14 -->
<g id="edge41" class="edge">
<title>Node61&#45;&gt;Node14</title>
<path fill="none" stroke="midnightblue" d="M331.37,-297C381.47,-269.28 540.31,-181.41 601.57,-147.51"/>
<polygon fill="midnightblue" stroke="midnightblue" points="603.48,-150.46 610.53,-142.56 600.09,-144.33 603.48,-150.46"/>
</g>
<!-- Node61&#45;&gt;Node55 -->
<g id="edge39" class="edge">
<title>Node61&#45;&gt;Node55</title>
<path fill="none" stroke="midnightblue" d="M307.83,-296.98C299.11,-287.87 285.1,-273.24 274.31,-261.98"/>
<polygon fill="midnightblue" stroke="midnightblue" points="276.6,-259.31 267.15,-254.51 271.54,-264.15 276.6,-259.31"/>
</g>
<!-- Node78 -->
<g id="node28" class="node">
<title>Node78</title>
<g id="a_node28"><a xlink:href="data__promise_8h.html" target="_top" xlink:title=" ">
<polygon fill="white" stroke="red" points="1545.5,-420 1545.5,-439 1670.5,-439 1670.5,-420 1545.5,-420"/>
<text text-anchor="middle" x="1608" y="-427" font-family="Helvetica,sans-Serif" font-size="10.00">../coro/data_promise.h</text>
</a>
</g>
</g>
<!-- Node77&#45;&gt;Node78 -->
<g id="edge44" class="edge">
<title>Node77&#45;&gt;Node78</title>
<path fill="none" stroke="midnightblue" d="M1447.79,-481.48C1480.29,-471.14 1535.21,-453.66 1571.54,-442.1"/>
<polygon fill="midnightblue" stroke="midnightblue" points="1572.79,-445.38 1581.26,-439.01 1570.67,-438.71 1572.79,-445.38"/>
</g>
<!-- Node79 -->
<g id="node29" class="node">
<title>Node79</title>
<g id="a_node29"><a xlink:href="memory__promise_8h.html" target="_top" xlink:title=" ">
<polygon fill="white" stroke="red" points="1189.5,-420 1189.5,-439 1334.5,-439 1334.5,-420 1189.5,-420"/>
<text text-anchor="middle" x="1262" y="-427" font-family="Helvetica,sans-Serif" font-size="10.00">../coro/memory_promise.h</text>
</a>
</g>
</g>
<!-- Node77&#45;&gt;Node79 -->
<g id="edge45" class="edge">
<title>Node77&#45;&gt;Node79</title>
<path fill="none" stroke="midnightblue" d="M1398.22,-481.48C1370.95,-471.27 1325.09,-454.11 1294.2,-442.55"/>
<polygon fill="midnightblue" stroke="midnightblue" points="1295.33,-439.24 1284.74,-439.01 1292.88,-445.79 1295.33,-439.24"/>
</g>
<!-- Node80 -->
<g id="node30" class="node">
<title>Node80</title>
<g id="a_node30"><a xlink:href="owning__coroutine__handle_8h.html" target="_top" xlink:title=" ">
<polygon fill="white" stroke="red" points="1353,-414.5 1353,-444.5 1489,-444.5 1489,-414.5 1353,-414.5"/>
<text text-anchor="start" x="1361" y="-432.5" font-family="Helvetica,sans-Serif" font-size="10.00">../coro/owning_coroutine</text>
<text text-anchor="middle" x="1421" y="-421.5" font-family="Helvetica,sans-Serif" font-size="10.00">_handle.h</text>
</a>
</g>
</g>
<!-- Node77&#45;&gt;Node80 -->
<g id="edge46" class="edge">
<title>Node77&#45;&gt;Node80</title>
<path fill="none" stroke="midnightblue" d="M1421,-481.48C1421,-474.47 1421,-464.19 1421,-454.7"/>
<polygon fill="midnightblue" stroke="midnightblue" points="1424.5,-454.52 1421,-444.52 1417.5,-454.52 1424.5,-454.52"/>
</g>
<!-- Node81 -->
<g id="node31" class="node">
<title>Node81</title>
<g id="a_node31"><a xlink:title=" ">
<polygon fill="white" stroke="#bfbfbf" points="1438,-358.5 1438,-377.5 1500,-377.5 1500,-358.5 1438,-358.5"/>
<text text-anchor="middle" x="1469" y="-365.5" font-family="Helvetica,sans-Serif" font-size="10.00">coroutine</text>
</a>
</g>
</g>
<!-- Node77&#45;&gt;Node81 -->
<g id="edge48" class="edge">
<title>Node77&#45;&gt;Node81</title>
<path fill="none" stroke="midnightblue" d="M1449.37,-481.49C1466.75,-474.65 1487.6,-463.13 1498,-445 1509.03,-425.78 1495.64,-401.56 1483.62,-385.7"/>
<polygon fill="midnightblue" stroke="midnightblue" points="1486.26,-383.4 1477.25,-377.83 1480.82,-387.8 1486.26,-383.4"/>
</g>
<!-- Node80&#45;&gt;Node81 -->
<g id="edge47" class="edge">
<title>Node80&#45;&gt;Node81</title>
<path fill="none" stroke="midnightblue" d="M1432.38,-414.4C1439.35,-405.75 1448.31,-394.64 1455.63,-385.58"/>
<polygon fill="midnightblue" stroke="midnightblue" points="1458.46,-387.64 1462.02,-377.66 1453.01,-383.24 1458.46,-387.64"/>
</g>
<!-- Node82&#45;&gt;Node2 -->
<g id="edge54" class="edge">
<title>Node82&#45;&gt;Node2</title>
<path fill="none" stroke="midnightblue" d="M684.78,-486.65C739.61,-480.87 841.02,-467.44 869,-445 886.76,-430.76 895.54,-405.27 899.66,-387.77"/>
<polygon fill="midnightblue" stroke="midnightblue" points="903.16,-388.12 901.75,-377.62 896.31,-386.71 903.16,-388.12"/>
</g>
<!-- Node82&#45;&gt;Node17 -->
<g id="edge50" class="edge">
<title>Node82&#45;&gt;Node17</title>
<path fill="none" stroke="midnightblue" d="M684.59,-487.57C753.1,-482.4 900.49,-468.83 945,-445 980.5,-425.99 991.46,-415.56 1006,-378 1021.28,-338.53 1000.21,-289.27 986.38,-263.52"/>
<polygon fill="midnightblue" stroke="midnightblue" points="989.31,-261.59 981.35,-254.59 983.21,-265.02 989.31,-261.59"/>
</g>
<!-- Node82&#45;&gt;Node26 -->
<g id="edge59" class="edge">
<title>Node82&#45;&gt;Node26</title>
<path fill="none" stroke="midnightblue" d="M684.83,-489.15C734.19,-486.74 824.83,-477.78 894,-445 914.8,-435.14 963.33,-398.89 973,-378 988.96,-343.53 950.02,-350.23 926,-255 917.11,-219.74 916.57,-176.97 917.17,-152.88"/>
<polygon fill="midnightblue" stroke="midnightblue" points="920.67,-152.79 917.52,-142.67 913.68,-152.55 920.67,-152.79"/>
</g>
<!-- Node82&#45;&gt;Node43 -->
<g id="edge57" class="edge">
<title>Node82&#45;&gt;Node43</title>
<path fill="none" stroke="midnightblue" d="M637.48,-481.41C626.91,-473.05 611.34,-459.51 601,-445 582.06,-418.43 577.82,-409.91 571,-378 562.14,-336.55 583.12,-288.76 596.65,-263.6"/>
<polygon fill="midnightblue" stroke="midnightblue" points="599.87,-265 601.71,-254.57 593.77,-261.58 599.87,-265"/>
</g>
<!-- Node82&#45;&gt;Node35 -->
<g id="edge51" class="edge">
<title>Node82&#45;&gt;Node35</title>
<path fill="none" stroke="midnightblue" d="M613.48,-490.15C538.94,-488.4 373,-472.85 373,-369 373,-369 373,-369 373,-305.5 373,-269.16 355.46,-229.61 343.9,-207.5"/>
<polygon fill="midnightblue" stroke="midnightblue" points="346.94,-205.77 339.1,-198.65 340.79,-209.11 346.94,-205.77"/>
</g>
<!-- Node82&#45;&gt;Node36 -->
<g id="edge53" class="edge">
<title>Node82&#45;&gt;Node36</title>
<path fill="none" stroke="midnightblue" d="M613.23,-484.43C556.94,-473.4 454,-443.11 454,-369 454,-369 454,-369 454,-305.5 454,-272 398.81,-187.51 373.92,-151.11"/>
<polygon fill="midnightblue" stroke="midnightblue" points="376.59,-148.83 368.04,-142.58 370.83,-152.8 376.59,-148.83"/>
</g>
<!-- Node82&#45;&gt;Node6 -->
<g id="edge65" class="edge">
<title>Node82&#45;&gt;Node6</title>
<path fill="none" stroke="midnightblue" d="M684.77,-490.84C747.12,-491.07 878.7,-486.1 980,-445 1032.72,-423.61 1083,-425.89 1083,-369 1083,-369 1083,-369 1083,-132 1083,-77.23 1037.1,-75.72 986,-56 876.04,-13.57 504.06,-10.74 393.34,-10.86"/>
<polygon fill="midnightblue" stroke="midnightblue" points="393.16,-7.36 383.17,-10.88 393.18,-14.36 393.16,-7.36"/>
</g>
<!-- Node82&#45;&gt;Node41 -->
<g id="edge66" class="edge">
<title>Node82&#45;&gt;Node41</title>
<path fill="none" stroke="midnightblue" d="M613.49,-489.04C535.66,-486.38 352.87,-476.81 301,-445 188.14,-375.79 172.07,-325.5 133,-199 130.38,-190.51 129.64,-187.23 133,-179 137.8,-167.23 147.33,-156.86 156.29,-149.05"/>
<polygon fill="midnightblue" stroke="midnightblue" points="158.65,-151.64 164.22,-142.63 154.25,-146.2 158.65,-151.64"/>
</g>
<!-- Node82&#45;&gt;Node14 -->
<g id="edge67" class="edge">
<title>Node82&#45;&gt;Node14</title>
<path fill="none" stroke="midnightblue" d="M657.66,-481.45C666.32,-472.68 679.78,-458.47 690,-445 733.56,-387.57 776,-379.58 776,-307.5 776,-307.5 776,-307.5 776,-244 776,-187.53 706,-156.88 661.64,-143.12"/>
<polygon fill="midnightblue" stroke="midnightblue" points="662.37,-139.69 651.79,-140.21 660.38,-146.4 662.37,-139.69"/>
</g>
<!-- Node82&#45;&gt;Node53 -->
<g id="edge55" class="edge">
<title>Node82&#45;&gt;Node53</title>
<path fill="none" stroke="midnightblue" d="M684.78,-486.53C733.47,-480.99 816.66,-468.3 835,-445 837.96,-441.23 833.02,-378.58 833,-378 831.28,-316.06 837.05,-242.72 840.15,-208.86"/>
<polygon fill="midnightblue" stroke="midnightblue" points="843.66,-208.9 841.12,-198.62 836.7,-208.24 843.66,-208.9"/>
</g>
<!-- Node82&#45;&gt;Node55 -->
<g id="edge58" class="edge">
<title>Node82&#45;&gt;Node55</title>
<path fill="none" stroke="midnightblue" d="M613.46,-489.24C540.19,-486.99 375.56,-478.29 332,-445 273.86,-400.57 262,-305.11 259.6,-264.69"/>
<polygon fill="midnightblue" stroke="midnightblue" points="263.09,-264.46 259.13,-254.63 256.1,-264.78 263.09,-264.46"/>
</g>
<!-- Node82&#45;&gt;Node58 -->
<g id="edge60" class="edge">
<title>Node82&#45;&gt;Node58</title>
<path fill="none" stroke="midnightblue" d="M627.86,-481.38C612.04,-473.92 590.99,-461.71 578,-445 534.33,-388.83 519.44,-302.21 514.85,-264.55"/>
<polygon fill="midnightblue" stroke="midnightblue" points="518.32,-264.07 513.74,-254.52 511.36,-264.84 518.32,-264.07"/>
</g>
<!-- Node82&#45;&gt;Node61 -->
<g id="edge64" class="edge">
<title>Node82&#45;&gt;Node61</title>
<path fill="none" stroke="midnightblue" d="M613.33,-489.05C544.44,-486.51 396.55,-477.33 359,-445 324.03,-414.89 317.13,-356.76 316.01,-326.64"/>
<polygon fill="midnightblue" stroke="midnightblue" points="319.5,-326.19 315.81,-316.25 312.5,-326.32 319.5,-326.19"/>
</g>
<!-- Node83 -->
<g id="node33" class="node">
<title>Node83</title>
<g id="a_node33"><a xlink:href="endpoint_8h.html" target="_top" xlink:title=" ">
<polygon fill="white" stroke="red" points="580.5,-358.5 580.5,-377.5 709.5,-377.5 709.5,-358.5 580.5,-358.5"/>
<text text-anchor="middle" x="645" y="-365.5" font-family="Helvetica,sans-Serif" font-size="10.00">../../protocol/endpoint.h</text>
</a>
</g>
</g>
<!-- Node82&#45;&gt;Node83 -->
<g id="edge52" class="edge">
<title>Node82&#45;&gt;Node83</title>
<path fill="none" stroke="midnightblue" d="M637.46,-481.49C627.52,-473.38 613.88,-460.18 608,-445 603.02,-432.15 603.35,-426.97 608,-414 611.94,-403 619.86,-392.77 627.36,-384.85"/>
<polygon fill="midnightblue" stroke="midnightblue" points="629.89,-387.27 634.56,-377.76 624.98,-382.28 629.89,-387.27"/>
</g>
<!-- Node85 -->
<g id="node34" class="node">
<title>Node85</title>
<g id="a_node34"><a xlink:href="packet_8h.html" target="_top" xlink:title=" ">
<polygon fill="white" stroke="red" points="617,-420 617,-439 681,-439 681,-420 617,-420"/>
<text text-anchor="middle" x="649" y="-427" font-family="Helvetica,sans-Serif" font-size="10.00">./packet.h</text>
</a>
</g>
</g>
<!-- Node82&#45;&gt;Node85 -->
<g id="edge56" class="edge">
<title>Node82&#45;&gt;Node85</title>
<path fill="none" stroke="midnightblue" d="M649,-481.48C649,-473.08 649,-459.98 649,-449.16"/>
<polygon fill="midnightblue" stroke="midnightblue" points="652.5,-449.01 649,-439.01 645.5,-449.01 652.5,-449.01"/>
</g>
<!-- Node93 -->
<g id="node35" class="node">
<title>Node93</title>
<g id="a_node35"><a xlink:href="multiplexer_8h.html" target="_top" xlink:title=" ">
<polygon fill="white" stroke="red" points="737.5,-420 737.5,-439 826.5,-439 826.5,-420 737.5,-420"/>
<text text-anchor="middle" x="782" y="-427" font-family="Helvetica,sans-Serif" font-size="10.00">../multiplexer.h</text>
</a>
</g>
</g>
<!-- Node82&#45;&gt;Node93 -->
<g id="edge61" class="edge">
<title>Node82&#45;&gt;Node93</title>
<path fill="none" stroke="midnightblue" d="M668.06,-481.48C690.47,-471.45 727.91,-454.7 753.71,-443.15"/>
<polygon fill="midnightblue" stroke="midnightblue" points="755.28,-446.29 762.98,-439.01 752.42,-439.9 755.28,-446.29"/>
</g>
<!-- Node93&#45;&gt;Node2 -->
<g id="edge63" class="edge">
<title>Node93&#45;&gt;Node2</title>
<path fill="none" stroke="midnightblue" d="M799.34,-419.98C819.55,-410.03 853.19,-393.49 876.64,-381.96"/>
<polygon fill="midnightblue" stroke="midnightblue" points="878.27,-385.06 885.7,-377.51 875.18,-378.78 878.27,-385.06"/>
</g>
<!-- Node93&#45;&gt;Node83 -->
<g id="edge62" class="edge">
<title>Node93&#45;&gt;Node83</title>
<path fill="none" stroke="midnightblue" d="M762.37,-419.98C739.18,-409.9 700.38,-393.05 673.79,-381.5"/>
<polygon fill="midnightblue" stroke="midnightblue" points="675.16,-378.28 664.59,-377.51 672.37,-384.7 675.16,-378.28"/>
</g>
</g>
</svg>
