<?xml version="1.0" encoding="UTF-8" standalone="no"?>
<!DOCTYPE svg PUBLIC "-//W3C//DTD SVG 1.1//EN"
 "http://www.w3.org/Graphics/SVG/1.1/DTD/svg11.dtd">
<!-- Generated by graphviz version 2.43.0 (0)
 -->
<!-- Title: include/emlabcpp/experimental/testing/parameters.h Pages: 1 -->
<svg width="1688pt" height="632pt"
 viewBox="0.00 0.00 1688.00 632.00" xmlns="http://www.w3.org/2000/svg" xmlns:xlink="http://www.w3.org/1999/xlink">
<g id="graph0" class="graph" transform="scale(1 1) rotate(0) translate(4 628)">
<title>include/emlabcpp/experimental/testing/parameters.h</title>
<polygon fill="white" stroke="transparent" points="-4,4 -4,-628 1684,-628 1684,4 -4,4"/>
<!-- Node1 -->
<g id="node1" class="node">
<title>Node1</title>
<g id="a_node1"><a xlink:title=" ">
<polygon fill="#bfbfbf" stroke="black" points="813.5,-593.5 813.5,-623.5 984.5,-623.5 984.5,-593.5 813.5,-593.5"/>
<text text-anchor="start" x="821.5" y="-611.5" font-family="Helvetica,sans-Serif" font-size="10.00">include/emlabcpp/experimental</text>
<text text-anchor="middle" x="899" y="-600.5" font-family="Helvetica,sans-Serif" font-size="10.00">/testing/parameters.h</text>
</a>
</g>
</g>
<!-- Node2 -->
<g id="node2" class="node">
<title>Node2</title>
<g id="a_node2"><a xlink:href="protocol_2handler_8h.html" target="_top" xlink:title=" ">
<polygon fill="white" stroke="black" points="117,-403.5 117,-422.5 239,-422.5 239,-403.5 117,-403.5"/>
<text text-anchor="middle" x="178" y="-410.5" font-family="Helvetica,sans-Serif" font-size="10.00">../../protocol/handler.h</text>
</a>
</g>
</g>
<!-- Node1&#45;&gt;Node2 -->
<g id="edge1" class="edge">
<title>Node1&#45;&gt;Node2</title>
<path fill="none" stroke="midnightblue" d="M813.3,-607.25C638.19,-604.7 249.05,-587.88 169,-490 155.76,-473.82 162.2,-448.82 169.12,-431.95"/>
<polygon fill="midnightblue" stroke="midnightblue" points="172.4,-433.21 173.33,-422.65 166.02,-430.32 172.4,-433.21"/>
</g>
<!-- Node55 -->
<g id="node17" class="node">
<title>Node55</title>
<g id="a_node17"><a xlink:href="static__function_8h.html" target="_top" xlink:title=" ">
<polygon fill="white" stroke="black" points="837,-291.5 837,-310.5 953,-310.5 953,-291.5 837,-291.5"/>
<text text-anchor="middle" x="895" y="-298.5" font-family="Helvetica,sans-Serif" font-size="10.00">../../static_function.h</text>
</a>
</g>
</g>
<!-- Node1&#45;&gt;Node55 -->
<g id="edge25" class="edge">
<title>Node1&#45;&gt;Node55</title>
<path fill="none" stroke="midnightblue" d="M899,-593.24C899,-569.03 899,-518.35 899,-475.5 899,-475.5 899,-475.5 899,-412 899,-379.93 897.28,-342.63 896.1,-320.74"/>
<polygon fill="midnightblue" stroke="midnightblue" points="899.58,-320.34 895.52,-310.55 892.59,-320.73 899.58,-320.34"/>
</g>
<!-- Node57 -->
<g id="node21" class="node">
<title>Node57</title>
<g id="a_node21"><a xlink:href="request__adapter_8h.html" target="_top" xlink:title=" ">
<polygon fill="white" stroke="black" points="927.5,-526.5 927.5,-556.5 1034.5,-556.5 1034.5,-526.5 927.5,-526.5"/>
<text text-anchor="start" x="935.5" y="-544.5" font-family="Helvetica,sans-Serif" font-size="10.00">../contiguous_tree</text>
<text text-anchor="middle" x="981" y="-533.5" font-family="Helvetica,sans-Serif" font-size="10.00">/request_adapter.h</text>
</a>
</g>
</g>
<!-- Node1&#45;&gt;Node57 -->
<g id="edge30" class="edge">
<title>Node1&#45;&gt;Node57</title>
<path fill="none" stroke="midnightblue" d="M916.79,-593.4C928.08,-584.45 942.85,-572.74 955.39,-562.8"/>
<polygon fill="midnightblue" stroke="midnightblue" points="957.58,-565.53 963.24,-556.58 953.23,-560.05 957.58,-565.53"/>
</g>
<!-- Node59 -->
<g id="node23" class="node">
<title>Node59</title>
<g id="a_node23"><a xlink:href="function__view_8h.html" target="_top" xlink:title=" ">
<polygon fill="white" stroke="black" points="0,-347.5 0,-366.5 102,-366.5 102,-347.5 0,-347.5"/>
<text text-anchor="middle" x="51" y="-354.5" font-family="Helvetica,sans-Serif" font-size="10.00">../function_view.h</text>
</a>
</g>
</g>
<!-- Node1&#45;&gt;Node59 -->
<g id="edge34" class="edge">
<title>Node1&#45;&gt;Node59</title>
<path fill="none" stroke="midnightblue" d="M813.37,-606.42C656.13,-603.56 327.59,-593.31 220,-557 168.26,-539.54 153.37,-530.74 117,-490 86.1,-455.4 65.9,-403.71 56.71,-376.42"/>
<polygon fill="midnightblue" stroke="midnightblue" points="59.96,-375.07 53.55,-366.63 53.3,-377.23 59.96,-375.07"/>
</g>
<!-- Node60 -->
<g id="node24" class="node">
<title>Node60</title>
<g id="a_node24"><a xlink:href="experimental_2testing_2convert_8h.html" target="_top" xlink:title=" ">
<polygon fill="white" stroke="black" points="1021,-403.5 1021,-422.5 1089,-422.5 1089,-403.5 1021,-403.5"/>
<text text-anchor="middle" x="1055" y="-410.5" font-family="Helvetica,sans-Serif" font-size="10.00">./convert.h</text>
</a>
</g>
</g>
<!-- Node1&#45;&gt;Node60 -->
<g id="edge36" class="edge">
<title>Node1&#45;&gt;Node60</title>
<path fill="none" stroke="midnightblue" d="M984.84,-594.75C1007.01,-587.3 1028.65,-575.54 1043,-557 1071.26,-520.49 1064.89,-461.9 1059.22,-432.33"/>
<polygon fill="midnightblue" stroke="midnightblue" points="1062.64,-431.59 1057.16,-422.53 1055.79,-433.03 1062.64,-431.59"/>
</g>
<!-- Node76 -->
<g id="node26" class="node">
<title>Node76</title>
<g id="a_node26"><a xlink:href="coroutine_8h.html" target="_top" xlink:title=" ">
<polygon fill="white" stroke="black" points="1261.5,-532 1261.5,-551 1338.5,-551 1338.5,-532 1261.5,-532"/>
<text text-anchor="middle" x="1300" y="-539" font-family="Helvetica,sans-Serif" font-size="10.00">./coroutine.h</text>
</a>
</g>
</g>
<!-- Node1&#45;&gt;Node76 -->
<g id="edge44" class="edge">
<title>Node1&#45;&gt;Node76</title>
<path fill="none" stroke="midnightblue" d="M984.53,-593.64C1065.75,-580.47 1184.99,-561.14 1251.18,-550.41"/>
<polygon fill="midnightblue" stroke="midnightblue" points="1252.02,-553.82 1261.33,-548.77 1250.9,-546.91 1252.02,-553.82"/>
</g>
<!-- Node81 -->
<g id="node31" class="node">
<title>Node81</title>
<g id="a_node31"><a xlink:href="experimental_2testing_2protocol_8h.html" target="_top" xlink:title=" ">
<polygon fill="white" stroke="black" points="509.5,-532 509.5,-551 580.5,-551 580.5,-532 509.5,-532"/>
<text text-anchor="middle" x="545" y="-539" font-family="Helvetica,sans-Serif" font-size="10.00">./protocol.h</text>
</a>
</g>
</g>
<!-- Node1&#45;&gt;Node81 -->
<g id="edge50" class="edge">
<title>Node1&#45;&gt;Node81</title>
<path fill="none" stroke="midnightblue" d="M822.62,-593.48C752.06,-580.52 649.55,-561.7 590.86,-550.92"/>
<polygon fill="midnightblue" stroke="midnightblue" points="591.25,-547.43 580.78,-549.07 589.98,-554.32 591.25,-547.43"/>
</g>
<!-- Node3 -->
<g id="node3" class="node">
<title>Node3</title>
<g id="a_node3"><a xlink:href="types_8h.html" target="_top" xlink:title=" ">
<polygon fill="white" stroke="red" points="268,-118 268,-137 330,-137 330,-118 268,-118"/>
<text text-anchor="middle" x="299" y="-125" font-family="Helvetica,sans-Serif" font-size="10.00">../types.h</text>
</a>
</g>
</g>
<!-- Node2&#45;&gt;Node3 -->
<g id="edge2" class="edge">
<title>Node2&#45;&gt;Node3</title>
<path fill="none" stroke="midnightblue" d="M171.33,-403.44C158.14,-385.62 130,-342.84 130,-302 130,-302 130,-302 130,-244 130,-182.33 207.67,-151.19 257.7,-137.53"/>
<polygon fill="midnightblue" stroke="midnightblue" points="258.81,-140.86 267.61,-134.96 257.05,-134.09 258.81,-140.86"/>
</g>
<!-- Node16 -->
<g id="node6" class="node">
<title>Node16</title>
<g id="a_node6"><a xlink:href="converter_8h.html" target="_top" xlink:title=" ">
<polygon fill="white" stroke="red" points="209.5,-347.5 209.5,-366.5 286.5,-366.5 286.5,-347.5 209.5,-347.5"/>
<text text-anchor="middle" x="248" y="-354.5" font-family="Helvetica,sans-Serif" font-size="10.00">./converter.h</text>
</a>
</g>
</g>
<!-- Node2&#45;&gt;Node16 -->
<g id="edge5" class="edge">
<title>Node2&#45;&gt;Node16</title>
<path fill="none" stroke="midnightblue" d="M189.25,-403.32C199.8,-395.18 215.8,-382.84 228.44,-373.09"/>
<polygon fill="midnightblue" stroke="midnightblue" points="230.77,-375.71 236.55,-366.83 226.49,-370.17 230.77,-375.71"/>
</g>
<!-- Node4 -->
<g id="node4" class="node">
<title>Node4</title>
<g id="a_node4"><a xlink:href="concepts_8h.html" target="_top" xlink:title=" ">
<polygon fill="white" stroke="red" points="313.5,-56.5 313.5,-75.5 388.5,-75.5 388.5,-56.5 313.5,-56.5"/>
<text text-anchor="middle" x="351" y="-63.5" font-family="Helvetica,sans-Serif" font-size="10.00">./concepts.h</text>
</a>
</g>
</g>
<!-- Node3&#45;&gt;Node4 -->
<g id="edge3" class="edge">
<title>Node3&#45;&gt;Node4</title>
<path fill="none" stroke="midnightblue" d="M306.45,-117.98C314.33,-108.96 326.94,-94.52 336.74,-83.31"/>
<polygon fill="midnightblue" stroke="midnightblue" points="339.62,-85.34 343.56,-75.51 334.35,-80.74 339.62,-85.34"/>
</g>
<!-- Node14 -->
<g id="node5" class="node">
<title>Node14</title>
<g id="a_node5"><a xlink:title=" ">
<polygon fill="white" stroke="#bfbfbf" points="883.5,-0.5 883.5,-19.5 934.5,-19.5 934.5,-0.5 883.5,-0.5"/>
<text text-anchor="middle" x="909" y="-7.5" font-family="Helvetica,sans-Serif" font-size="10.00">variant</text>
</a>
</g>
</g>
<!-- Node4&#45;&gt;Node14 -->
<g id="edge4" class="edge">
<title>Node4&#45;&gt;Node14</title>
<path fill="none" stroke="midnightblue" d="M388.91,-61.33C491.39,-51.41 772.91,-24.17 873.05,-14.48"/>
<polygon fill="midnightblue" stroke="midnightblue" points="873.64,-17.94 883.26,-13.49 872.97,-10.97 873.64,-17.94"/>
</g>
<!-- Node17 -->
<g id="node7" class="node">
<title>Node17</title>
<g id="a_node7"><a xlink:href="algorithm_8h.html" target="_top" xlink:title=" ">
<polygon fill="white" stroke="red" points="207,-291.5 207,-310.5 289,-310.5 289,-291.5 207,-291.5"/>
<text text-anchor="middle" x="248" y="-298.5" font-family="Helvetica,sans-Serif" font-size="10.00">../algorithm.h</text>
</a>
</g>
</g>
<!-- Node16&#45;&gt;Node17 -->
<g id="edge6" class="edge">
<title>Node16&#45;&gt;Node17</title>
<path fill="none" stroke="midnightblue" d="M248,-347.08C248,-340.01 248,-329.86 248,-320.99"/>
<polygon fill="midnightblue" stroke="midnightblue" points="251.5,-320.75 248,-310.75 244.5,-320.75 251.5,-320.75"/>
</g>
<!-- Node43 -->
<g id="node9" class="node">
<title>Node43</title>
<g id="a_node9"><a xlink:href="traits_8h.html" target="_top" xlink:title=" ">
<polygon fill="white" stroke="red" points="459.5,-291.5 459.5,-310.5 516.5,-310.5 516.5,-291.5 459.5,-291.5"/>
<text text-anchor="middle" x="488" y="-298.5" font-family="Helvetica,sans-Serif" font-size="10.00">./traits.h</text>
</a>
</g>
</g>
<!-- Node16&#45;&gt;Node43 -->
<g id="edge10" class="edge">
<title>Node16&#45;&gt;Node43</title>
<path fill="none" stroke="midnightblue" d="M286.03,-347.44C330.66,-337.4 404.28,-320.84 449.23,-310.72"/>
<polygon fill="midnightblue" stroke="midnightblue" points="450.2,-314.09 459.19,-308.48 448.66,-307.26 450.2,-314.09"/>
</g>
<!-- Node17&#45;&gt;Node3 -->
<g id="edge7" class="edge">
<title>Node17&#45;&gt;Node3</title>
<path fill="none" stroke="midnightblue" d="M247.65,-291.44C247.12,-271.15 247.48,-218.84 263,-179 267.91,-166.4 276.66,-154.01 284.31,-144.66"/>
<polygon fill="midnightblue" stroke="midnightblue" points="287.02,-146.87 290.88,-137 281.71,-142.31 287.02,-146.87"/>
</g>
<!-- Node26 -->
<g id="node8" class="node">
<title>Node26</title>
<g id="a_node8"><a xlink:href="view_8h.html" target="_top" xlink:title=" ">
<polygon fill="white" stroke="red" points="272,-179.5 272,-198.5 326,-198.5 326,-179.5 272,-179.5"/>
<text text-anchor="middle" x="299" y="-186.5" font-family="Helvetica,sans-Serif" font-size="10.00">./view.h</text>
</a>
</g>
</g>
<!-- Node17&#45;&gt;Node26 -->
<g id="edge8" class="edge">
<title>Node17&#45;&gt;Node26</title>
<path fill="none" stroke="midnightblue" d="M252,-291.37C260.31,-273.46 279.56,-231.92 290.68,-207.95"/>
<polygon fill="midnightblue" stroke="midnightblue" points="293.99,-209.14 295.02,-198.59 287.64,-206.19 293.99,-209.14"/>
</g>
<!-- Node26&#45;&gt;Node3 -->
<g id="edge9" class="edge">
<title>Node26&#45;&gt;Node3</title>
<path fill="none" stroke="midnightblue" d="M299,-179.48C299,-171.08 299,-157.98 299,-147.16"/>
<polygon fill="midnightblue" stroke="midnightblue" points="302.5,-147.01 299,-137.01 295.5,-147.01 302.5,-147.01"/>
</g>
<!-- Node43&#45;&gt;Node3 -->
<g id="edge11" class="edge">
<title>Node43&#45;&gt;Node3</title>
<path fill="none" stroke="midnightblue" d="M478.63,-291.5C448.71,-264.35 355.2,-179.5 316.27,-144.17"/>
<polygon fill="midnightblue" stroke="midnightblue" points="318.19,-141.18 308.43,-137.06 313.48,-146.37 318.19,-141.18"/>
</g>
<!-- Node43&#45;&gt;Node14 -->
<g id="edge24" class="edge">
<title>Node43&#45;&gt;Node14</title>
<path fill="none" stroke="midnightblue" d="M485.44,-291.25C480.25,-272.74 469,-228.18 469,-190 469,-190 469,-190 469,-126.5 469,-89.09 483.17,-75.66 515,-56 574.48,-19.27 787.5,-12.5 873.06,-11.27"/>
<polygon fill="midnightblue" stroke="midnightblue" points="873.36,-14.76 883.31,-11.14 873.27,-7.76 873.36,-14.76"/>
</g>
<!-- Node35 -->
<g id="node10" class="node">
<title>Node35</title>
<g id="a_node10"><a xlink:href="protocol_2base_8h.html" target="_top" xlink:title=" ">
<polygon fill="white" stroke="red" points="611.5,-235.5 611.5,-254.5 666.5,-254.5 666.5,-235.5 611.5,-235.5"/>
<text text-anchor="middle" x="639" y="-242.5" font-family="Helvetica,sans-Serif" font-size="10.00">./base.h</text>
</a>
</g>
</g>
<!-- Node43&#45;&gt;Node35 -->
<g id="edge12" class="edge">
<title>Node43&#45;&gt;Node35</title>
<path fill="none" stroke="midnightblue" d="M511.93,-291.44C537.22,-282.4 577.3,-268.06 605.68,-257.92"/>
<polygon fill="midnightblue" stroke="midnightblue" points="606.95,-261.18 615.19,-254.52 604.59,-254.59 606.95,-261.18"/>
</g>
<!-- Node36 -->
<g id="node11" class="node">
<title>Node36</title>
<g id="a_node11"><a xlink:href="protocol_2error_8h.html" target="_top" xlink:title=" ">
<polygon fill="white" stroke="red" points="556,-179.5 556,-198.5 610,-198.5 610,-179.5 556,-179.5"/>
<text text-anchor="middle" x="583" y="-186.5" font-family="Helvetica,sans-Serif" font-size="10.00">./error.h</text>
</a>
</g>
</g>
<!-- Node43&#45;&gt;Node36 -->
<g id="edge20" class="edge">
<title>Node43&#45;&gt;Node36</title>
<path fill="none" stroke="midnightblue" d="M495.45,-291.37C511.27,-273.05 548.41,-230.05 568.87,-206.36"/>
<polygon fill="midnightblue" stroke="midnightblue" points="571.69,-208.45 575.58,-198.59 566.4,-203.87 571.69,-208.45"/>
</g>
<!-- Node53 -->
<g id="node16" class="node">
<title>Node53</title>
<g id="a_node16"><a xlink:href="message_8h.html" target="_top" xlink:title=" ">
<polygon fill="white" stroke="black" points="327,-235.5 327,-254.5 403,-254.5 403,-235.5 327,-235.5"/>
<text text-anchor="middle" x="365" y="-242.5" font-family="Helvetica,sans-Serif" font-size="10.00">./message.h</text>
</a>
</g>
</g>
<!-- Node43&#45;&gt;Node53 -->
<g id="edge21" class="edge">
<title>Node43&#45;&gt;Node53</title>
<path fill="none" stroke="midnightblue" d="M468.51,-291.44C448.36,-282.6 416.68,-268.69 393.67,-258.59"/>
<polygon fill="midnightblue" stroke="midnightblue" points="394.96,-255.33 384.4,-254.52 392.15,-261.74 394.96,-255.33"/>
</g>
<!-- Node35&#45;&gt;Node14 -->
<g id="edge19" class="edge">
<title>Node35&#45;&gt;Node14</title>
<path fill="none" stroke="midnightblue" d="M644.97,-235.48C654.24,-222.55 673.03,-197.5 692,-179 757.51,-115.12 846.85,-52.54 887.4,-25.26"/>
<polygon fill="midnightblue" stroke="midnightblue" points="889.58,-28.01 895.95,-19.54 885.7,-22.19 889.58,-28.01"/>
</g>
<!-- Node35&#45;&gt;Node36 -->
<g id="edge13" class="edge">
<title>Node35&#45;&gt;Node36</title>
<path fill="none" stroke="midnightblue" d="M630,-235.32C621.81,-227.42 609.49,-215.55 599.53,-205.94"/>
<polygon fill="midnightblue" stroke="midnightblue" points="601.79,-203.26 592.16,-198.83 596.93,-208.29 601.79,-203.26"/>
</g>
<!-- Node41 -->
<g id="node14" class="node">
<title>Node41</title>
<g id="a_node14"><a xlink:title=" ">
<polygon fill="white" stroke="#bfbfbf" points="701.5,-179.5 701.5,-198.5 730.5,-198.5 730.5,-179.5 701.5,-179.5"/>
<text text-anchor="middle" x="716" y="-186.5" font-family="Helvetica,sans-Serif" font-size="10.00">bit</text>
</a>
</g>
</g>
<!-- Node35&#45;&gt;Node41 -->
<g id="edge17" class="edge">
<title>Node35&#45;&gt;Node41</title>
<path fill="none" stroke="midnightblue" d="M651.37,-235.32C663.16,-227.06 681.13,-214.45 695.14,-204.63"/>
<polygon fill="midnightblue" stroke="midnightblue" points="697.48,-207.26 703.66,-198.65 693.46,-201.53 697.48,-207.26"/>
</g>
<!-- Node42 -->
<g id="node15" class="node">
<title>Node42</title>
<g id="a_node15"><a xlink:title=" ">
<polygon fill="white" stroke="#bfbfbf" points="749,-179.5 749,-198.5 793,-198.5 793,-179.5 749,-179.5"/>
<text text-anchor="middle" x="771" y="-186.5" font-family="Helvetica,sans-Serif" font-size="10.00">bitset</text>
</a>
</g>
</g>
<!-- Node35&#45;&gt;Node42 -->
<g id="edge18" class="edge">
<title>Node35&#45;&gt;Node42</title>
<path fill="none" stroke="midnightblue" d="M659.92,-235.44C681.74,-226.52 716.15,-212.44 740.89,-202.32"/>
<polygon fill="midnightblue" stroke="midnightblue" points="742.25,-205.54 750.18,-198.52 739.6,-199.06 742.25,-205.54"/>
</g>
<!-- Node37 -->
<g id="node12" class="node">
<title>Node37</title>
<g id="a_node12"><a xlink:href="string__buffer_8h.html" target="_top" xlink:title=" ">
<polygon fill="white" stroke="red" points="573,-112.5 573,-142.5 695,-142.5 695,-112.5 573,-112.5"/>
<text text-anchor="start" x="581" y="-130.5" font-family="Helvetica,sans-Serif" font-size="10.00">../experimental/string</text>
<text text-anchor="middle" x="634" y="-119.5" font-family="Helvetica,sans-Serif" font-size="10.00">_buffer.h</text>
</a>
</g>
</g>
<!-- Node36&#45;&gt;Node37 -->
<g id="edge14" class="edge">
<title>Node36&#45;&gt;Node37</title>
<path fill="none" stroke="midnightblue" d="M590.31,-179.48C596.83,-171.87 606.66,-160.4 615.34,-150.26"/>
<polygon fill="midnightblue" stroke="midnightblue" points="618.13,-152.39 621.98,-142.52 612.81,-147.84 618.13,-152.39"/>
</g>
<!-- Node6 -->
<g id="node13" class="node">
<title>Node6</title>
<g id="a_node13"><a xlink:title=" ">
<polygon fill="white" stroke="#bfbfbf" points="524,-56.5 524,-75.5 566,-75.5 566,-56.5 524,-56.5"/>
<text text-anchor="middle" x="545" y="-63.5" font-family="Helvetica,sans-Serif" font-size="10.00">array</text>
</a>
</g>
</g>
<!-- Node36&#45;&gt;Node6 -->
<g id="edge16" class="edge">
<title>Node36&#45;&gt;Node6</title>
<path fill="none" stroke="midnightblue" d="M578.8,-179.19C574.64,-170.23 568.3,-155.87 564,-143 557.55,-123.69 552.15,-100.98 548.77,-85.45"/>
<polygon fill="midnightblue" stroke="midnightblue" points="552.18,-84.62 546.69,-75.56 545.33,-86.06 552.18,-84.62"/>
</g>
<!-- Node37&#45;&gt;Node6 -->
<g id="edge15" class="edge">
<title>Node37&#45;&gt;Node6</title>
<path fill="none" stroke="midnightblue" d="M612.91,-112.4C598.91,-103.04 580.59,-90.79 566.51,-81.38"/>
<polygon fill="midnightblue" stroke="midnightblue" points="568.21,-78.31 557.95,-75.66 564.32,-84.13 568.21,-78.31"/>
</g>
<!-- Node53&#45;&gt;Node4 -->
<g id="edge22" class="edge">
<title>Node53&#45;&gt;Node4</title>
<path fill="none" stroke="midnightblue" d="M364.32,-235.46C362.19,-208.43 355.53,-124.24 352.51,-86.11"/>
<polygon fill="midnightblue" stroke="midnightblue" points="355.98,-85.56 351.7,-75.87 349,-86.11 355.98,-85.56"/>
</g>
<!-- Node53&#45;&gt;Node26 -->
<g id="edge23" class="edge">
<title>Node53&#45;&gt;Node26</title>
<path fill="none" stroke="midnightblue" d="M354.4,-235.32C344.54,-227.26 329.65,-215.08 317.78,-205.37"/>
<polygon fill="midnightblue" stroke="midnightblue" points="319.75,-202.46 309.8,-198.83 315.32,-207.88 319.75,-202.46"/>
</g>
<!-- Node56 -->
<g id="node18" class="node">
<title>Node56</title>
<g id="a_node18"><a xlink:href="util_8h.html" target="_top" xlink:title=" ">
<polygon fill="white" stroke="red" points="723,-235.5 723,-254.5 793,-254.5 793,-235.5 723,-235.5"/>
<text text-anchor="middle" x="758" y="-242.5" font-family="Helvetica,sans-Serif" font-size="10.00">./pmr/util.h</text>
</a>
</g>
</g>
<!-- Node55&#45;&gt;Node56 -->
<g id="edge26" class="edge">
<title>Node55&#45;&gt;Node56</title>
<path fill="none" stroke="midnightblue" d="M873.29,-291.44C850.65,-282.52 814.93,-268.44 789.25,-258.32"/>
<polygon fill="midnightblue" stroke="midnightblue" points="790.19,-254.93 779.61,-254.52 787.63,-261.44 790.19,-254.93"/>
</g>
<!-- Node22 -->
<g id="node19" class="node">
<title>Node22</title>
<g id="a_node19"><a xlink:title=" ">
<polygon fill="white" stroke="#bfbfbf" points="925.5,-235.5 925.5,-254.5 990.5,-254.5 990.5,-235.5 925.5,-235.5"/>
<text text-anchor="middle" x="958" y="-242.5" font-family="Helvetica,sans-Serif" font-size="10.00">functional</text>
</a>
</g>
</g>
<!-- Node55&#45;&gt;Node22 -->
<g id="edge28" class="edge">
<title>Node55&#45;&gt;Node22</title>
<path fill="none" stroke="midnightblue" d="M905.12,-291.32C914.53,-283.26 928.74,-271.08 940.07,-261.37"/>
<polygon fill="midnightblue" stroke="midnightblue" points="942.38,-264 947.69,-254.83 937.82,-258.68 942.38,-264"/>
</g>
<!-- Node51 -->
<g id="node20" class="node">
<title>Node51</title>
<g id="a_node20"><a xlink:title=" ">
<polygon fill="white" stroke="#bfbfbf" points="849,-235.5 849,-254.5 907,-254.5 907,-235.5 849,-235.5"/>
<text text-anchor="middle" x="878" y="-242.5" font-family="Helvetica,sans-Serif" font-size="10.00">memory</text>
</a>
</g>
</g>
<!-- Node55&#45;&gt;Node51 -->
<g id="edge29" class="edge">
<title>Node55&#45;&gt;Node51</title>
<path fill="none" stroke="midnightblue" d="M892.19,-291.08C889.92,-283.85 886.63,-273.41 883.79,-264.4"/>
<polygon fill="midnightblue" stroke="midnightblue" points="887.1,-263.24 880.75,-254.75 880.42,-265.34 887.1,-263.24"/>
</g>
<!-- Node56&#45;&gt;Node41 -->
<g id="edge27" class="edge">
<title>Node56&#45;&gt;Node41</title>
<path fill="none" stroke="midnightblue" d="M751.06,-235.08C745.07,-227.38 736.25,-216.03 728.95,-206.65"/>
<polygon fill="midnightblue" stroke="midnightblue" points="731.71,-204.5 722.81,-198.75 726.18,-208.79 731.71,-204.5"/>
</g>
<!-- Node57&#45;&gt;Node14 -->
<g id="edge33" class="edge">
<title>Node57&#45;&gt;Node14</title>
<path fill="none" stroke="midnightblue" d="M1034.68,-529.05C1090.87,-513.54 1171,-479.88 1171,-414 1171,-414 1171,-414 1171,-126.5 1171,-93.4 1172,-77.69 1147,-56 1117.26,-30.19 1003.69,-18.06 944.84,-13.41"/>
<polygon fill="midnightblue" stroke="midnightblue" points="945.09,-9.92 934.86,-12.65 944.56,-16.9 945.09,-9.92"/>
</g>
<!-- Node58 -->
<g id="node22" class="node">
<title>Node58</title>
<g id="a_node22"><a xlink:href="experimental_2contiguous__tree_2base_8h.html" target="_top" xlink:title=" ">
<polygon fill="white" stroke="red" points="972.5,-465 972.5,-484 1027.5,-484 1027.5,-465 972.5,-465"/>
<text text-anchor="middle" x="1000" y="-472" font-family="Helvetica,sans-Serif" font-size="10.00">./base.h</text>
</a>
</g>
</g>
<!-- Node57&#45;&gt;Node58 -->
<g id="edge31" class="edge">
<title>Node57&#45;&gt;Node58</title>
<path fill="none" stroke="midnightblue" d="M985.12,-526.4C987.91,-516.86 991.62,-504.18 994.63,-493.86"/>
<polygon fill="midnightblue" stroke="midnightblue" points="998.01,-494.77 997.46,-484.19 991.29,-492.81 998.01,-494.77"/>
</g>
<!-- Node58&#45;&gt;Node22 -->
<g id="edge32" class="edge">
<title>Node58&#45;&gt;Node22</title>
<path fill="none" stroke="midnightblue" d="M998.4,-464.86C992.26,-431.57 970.03,-311.15 961.43,-264.57"/>
<polygon fill="midnightblue" stroke="midnightblue" points="964.85,-263.85 959.6,-254.65 957.97,-265.12 964.85,-263.85"/>
</g>
<!-- Node59&#45;&gt;Node4 -->
<g id="edge35" class="edge">
<title>Node59&#45;&gt;Node4</title>
<path fill="none" stroke="midnightblue" d="M53.83,-347.27C59.56,-328.79 72,-284.3 72,-246 72,-246 72,-246 72,-188 72,-88.46 223.32,-69.91 303.08,-67.04"/>
<polygon fill="midnightblue" stroke="midnightblue" points="303.48,-70.53 313.37,-66.74 303.28,-63.54 303.48,-70.53"/>
</g>
<!-- Node60&#45;&gt;Node37 -->
<g id="edge37" class="edge">
<title>Node60&#45;&gt;Node37</title>
<path fill="none" stroke="midnightblue" d="M1054.91,-403.21C1054.14,-374.69 1047.77,-283.77 999,-235 920.44,-156.44 787.42,-135.15 705.5,-129.77"/>
<polygon fill="midnightblue" stroke="midnightblue" points="705.47,-126.27 695.28,-129.17 705.05,-133.25 705.47,-126.27"/>
</g>
<!-- Node60&#45;&gt;Node42 -->
<g id="edge43" class="edge">
<title>Node60&#45;&gt;Node42</title>
<path fill="none" stroke="midnightblue" d="M1055.13,-403.39C1055.04,-374.64 1050.65,-281.19 999,-235 970.46,-209.48 858.95,-197.07 803.16,-192.35"/>
<polygon fill="midnightblue" stroke="midnightblue" points="803.35,-188.86 793.1,-191.54 802.78,-195.83 803.35,-188.86"/>
</g>
<!-- Node61 -->
<g id="node25" class="node">
<title>Node61</title>
<g id="a_node25"><a xlink:href="experimental_2testing_2base_8h.html" target="_top" xlink:title=" ">
<polygon fill="white" stroke="red" points="777.5,-347.5 777.5,-366.5 832.5,-366.5 832.5,-347.5 777.5,-347.5"/>
<text text-anchor="middle" x="805" y="-354.5" font-family="Helvetica,sans-Serif" font-size="10.00">./base.h</text>
</a>
</g>
</g>
<!-- Node60&#45;&gt;Node61 -->
<g id="edge38" class="edge">
<title>Node60&#45;&gt;Node61</title>
<path fill="none" stroke="midnightblue" d="M1020.76,-404.6C974.17,-394.54 891.07,-376.59 842.73,-366.15"/>
<polygon fill="midnightblue" stroke="midnightblue" points="843.19,-362.67 832.67,-363.98 841.71,-369.51 843.19,-362.67"/>
</g>
<!-- Node61&#45;&gt;Node14 -->
<g id="edge42" class="edge">
<title>Node61&#45;&gt;Node14</title>
<path fill="none" stroke="midnightblue" d="M832.54,-353.31C904.93,-344.59 1095,-310.23 1095,-190 1095,-190 1095,-190 1095,-126.5 1095,-56.51 998.77,-27.45 944.75,-16.65"/>
<polygon fill="midnightblue" stroke="midnightblue" points="945.34,-13.2 934.86,-14.78 944.04,-20.08 945.34,-13.2"/>
</g>
<!-- Node61&#45;&gt;Node17 -->
<g id="edge39" class="edge">
<title>Node61&#45;&gt;Node17</title>
<path fill="none" stroke="midnightblue" d="M777.38,-353.32C689.36,-344.79 414.51,-318.14 299.46,-306.99"/>
<polygon fill="midnightblue" stroke="midnightblue" points="299.45,-303.47 289.16,-305.99 298.78,-310.44 299.45,-303.47"/>
</g>
<!-- Node61&#45;&gt;Node37 -->
<g id="edge41" class="edge">
<title>Node61&#45;&gt;Node37</title>
<path fill="none" stroke="midnightblue" d="M808.12,-347.11C817.35,-319.07 841.51,-231.2 802,-179 779.58,-149.38 740.4,-136.52 705.5,-131.18"/>
<polygon fill="midnightblue" stroke="midnightblue" points="705.7,-127.67 695.32,-129.8 704.76,-134.61 705.7,-127.67"/>
</g>
<!-- Node61&#45;&gt;Node55 -->
<g id="edge40" class="edge">
<title>Node61&#45;&gt;Node55</title>
<path fill="none" stroke="midnightblue" d="M819.46,-347.32C833.5,-338.9 855.05,-325.97 871.54,-316.07"/>
<polygon fill="midnightblue" stroke="midnightblue" points="873.8,-318.8 880.58,-310.65 870.2,-312.8 873.8,-318.8"/>
</g>
<!-- Node77 -->
<g id="node27" class="node">
<title>Node77</title>
<g id="a_node27"><a xlink:href="data__promise_8h.html" target="_top" xlink:title=" ">
<polygon fill="white" stroke="red" points="1237.5,-465 1237.5,-484 1362.5,-484 1362.5,-465 1237.5,-465"/>
<text text-anchor="middle" x="1300" y="-472" font-family="Helvetica,sans-Serif" font-size="10.00">../coro/data_promise.h</text>
</a>
</g>
</g>
<!-- Node76&#45;&gt;Node77 -->
<g id="edge45" class="edge">
<title>Node76&#45;&gt;Node77</title>
<path fill="none" stroke="midnightblue" d="M1300,-531.73C1300,-522.18 1300,-506.62 1300,-494.28"/>
<polygon fill="midnightblue" stroke="midnightblue" points="1303.5,-494.13 1300,-484.13 1296.5,-494.13 1303.5,-494.13"/>
</g>
<!-- Node78 -->
<g id="node28" class="node">
<title>Node78</title>
<g id="a_node28"><a xlink:href="memory__promise_8h.html" target="_top" xlink:title=" ">
<polygon fill="white" stroke="red" points="1380.5,-465 1380.5,-484 1525.5,-484 1525.5,-465 1380.5,-465"/>
<text text-anchor="middle" x="1453" y="-472" font-family="Helvetica,sans-Serif" font-size="10.00">../coro/memory_promise.h</text>
</a>
</g>
</g>
<!-- Node76&#45;&gt;Node78 -->
<g id="edge46" class="edge">
<title>Node76&#45;&gt;Node78</title>
<path fill="none" stroke="midnightblue" d="M1320.32,-531.87C1346.72,-520.65 1393.03,-500.98 1423.36,-488.09"/>
<polygon fill="midnightblue" stroke="midnightblue" points="1424.76,-491.3 1432.6,-484.17 1422.03,-484.86 1424.76,-491.3"/>
</g>
<!-- Node79 -->
<g id="node29" class="node">
<title>Node79</title>
<g id="a_node29"><a xlink:href="owning__coroutine__handle_8h.html" target="_top" xlink:title=" ">
<polygon fill="white" stroke="red" points="1544,-459.5 1544,-489.5 1680,-489.5 1680,-459.5 1544,-459.5"/>
<text text-anchor="start" x="1552" y="-477.5" font-family="Helvetica,sans-Serif" font-size="10.00">../coro/owning_coroutine</text>
<text text-anchor="middle" x="1612" y="-466.5" font-family="Helvetica,sans-Serif" font-size="10.00">_handle.h</text>
</a>
</g>
</g>
<!-- Node76&#45;&gt;Node79 -->
<g id="edge47" class="edge">
<title>Node76&#45;&gt;Node79</title>
<path fill="none" stroke="midnightblue" d="M1338.57,-532.46C1387.32,-522.31 1472.38,-504.59 1534.72,-491.6"/>
<polygon fill="midnightblue" stroke="midnightblue" points="1535.44,-495.02 1544.52,-489.56 1534.02,-488.17 1535.44,-495.02"/>
</g>
<!-- Node80 -->
<g id="node30" class="node">
<title>Node80</title>
<g id="a_node30"><a xlink:title=" ">
<polygon fill="white" stroke="#bfbfbf" points="1390,-403.5 1390,-422.5 1452,-422.5 1452,-403.5 1390,-403.5"/>
<text text-anchor="middle" x="1421" y="-410.5" font-family="Helvetica,sans-Serif" font-size="10.00">coroutine</text>
</a>
</g>
</g>
<!-- Node76&#45;&gt;Node80 -->
<g id="edge49" class="edge">
<title>Node76&#45;&gt;Node80</title>
<path fill="none" stroke="midnightblue" d="M1282.56,-531.92C1255.13,-517.31 1207.2,-486.5 1229,-459 1247.45,-435.72 1329.12,-423.32 1379.82,-417.75"/>
<polygon fill="midnightblue" stroke="midnightblue" points="1380.25,-421.23 1389.82,-416.7 1379.51,-414.27 1380.25,-421.23"/>
</g>
<!-- Node79&#45;&gt;Node80 -->
<g id="edge48" class="edge">
<title>Node79&#45;&gt;Node80</title>
<path fill="none" stroke="midnightblue" d="M1566.74,-459.4C1533.59,-449.07 1489.15,-435.23 1458.1,-425.56"/>
<polygon fill="midnightblue" stroke="midnightblue" points="1459.1,-422.2 1448.51,-422.57 1457.02,-428.89 1459.1,-422.2"/>
</g>
<!-- Node81&#45;&gt;Node2 -->
<g id="edge55" class="edge">
<title>Node81&#45;&gt;Node2</title>
<path fill="none" stroke="midnightblue" d="M509.44,-540.92C427.25,-541.07 227.82,-536.54 184,-490 169.78,-474.9 170.72,-449.82 173.59,-432.62"/>
<polygon fill="midnightblue" stroke="midnightblue" points="177.05,-433.15 175.61,-422.65 170.19,-431.76 177.05,-433.15"/>
</g>
<!-- Node81&#45;&gt;Node14 -->
<g id="edge68" class="edge">
<title>Node81&#45;&gt;Node14</title>
<path fill="none" stroke="midnightblue" d="M580.69,-533.96C700.01,-511.96 1078.64,-441.01 1098,-423 1138.99,-384.87 1133,-357.98 1133,-302 1133,-302 1133,-302 1133,-126.5 1133,-42.95 1008.37,-19.78 945.04,-13.4"/>
<polygon fill="midnightblue" stroke="midnightblue" points="944.97,-9.88 934.7,-12.45 944.33,-16.85 944.97,-9.88"/>
</g>
<!-- Node81&#45;&gt;Node17 -->
<g id="edge51" class="edge">
<title>Node81&#45;&gt;Node17</title>
<path fill="none" stroke="midnightblue" d="M509.43,-538.81C427.47,-534.44 227.84,-520.85 169,-490 127.18,-468.07 86.49,-445.04 108,-403 130.43,-359.17 181.72,-330 215.6,-314.72"/>
<polygon fill="midnightblue" stroke="midnightblue" points="217.3,-317.8 225.08,-310.61 214.51,-311.38 217.3,-317.8"/>
</g>
<!-- Node81&#45;&gt;Node26 -->
<g id="edge60" class="edge">
<title>Node81&#45;&gt;Node26</title>
<path fill="none" stroke="midnightblue" d="M534.73,-531.67C523.67,-521.95 505.8,-505.62 492,-490 405.97,-392.59 375.8,-371.4 318,-255 310.65,-240.19 305.64,-222.04 302.62,-208.68"/>
<polygon fill="midnightblue" stroke="midnightblue" points="306.02,-207.84 300.54,-198.77 299.17,-209.28 306.02,-207.84"/>
</g>
<!-- Node81&#45;&gt;Node43 -->
<g id="edge58" class="edge">
<title>Node81&#45;&gt;Node43</title>
<path fill="none" stroke="midnightblue" d="M542.5,-531.95C539.61,-521.94 534.75,-504.82 531,-490 515.37,-428.17 499.19,-354.28 491.94,-320.5"/>
<polygon fill="midnightblue" stroke="midnightblue" points="495.35,-319.7 489.83,-310.65 488.5,-321.16 495.35,-319.7"/>
</g>
<!-- Node81&#45;&gt;Node35 -->
<g id="edge52" class="edge">
<title>Node81&#45;&gt;Node35</title>
<path fill="none" stroke="midnightblue" d="M556.46,-531.75C579.66,-512.94 630,-466.12 630,-414 630,-414 630,-414 630,-356 630,-323.84 633.87,-286.57 636.53,-264.71"/>
<polygon fill="midnightblue" stroke="midnightblue" points="640.04,-264.9 637.82,-254.54 633.09,-264.02 640.04,-264.9"/>
</g>
<!-- Node81&#45;&gt;Node36 -->
<g id="edge54" class="edge">
<title>Node81&#45;&gt;Node36</title>
<path fill="none" stroke="midnightblue" d="M549.51,-531.87C559.57,-511.79 583,-460.09 583,-414 583,-414 583,-414 583,-300 583,-267.95 583,-230.64 583,-208.75"/>
<polygon fill="midnightblue" stroke="midnightblue" points="586.5,-208.56 583,-198.56 579.5,-208.56 586.5,-208.56"/>
</g>
<!-- Node81&#45;&gt;Node6 -->
<g id="edge66" class="edge">
<title>Node81&#45;&gt;Node6</title>
<path fill="none" stroke="midnightblue" d="M545,-531.91C545,-511.48 545,-458.36 545,-414 545,-414 545,-414 545,-356 545,-254 545,-131.74 545,-85.73"/>
<polygon fill="midnightblue" stroke="midnightblue" points="548.5,-85.51 545,-75.51 541.5,-85.51 548.5,-85.51"/>
</g>
<!-- Node81&#45;&gt;Node41 -->
<g id="edge67" class="edge">
<title>Node81&#45;&gt;Node41</title>
<path fill="none" stroke="midnightblue" d="M571.47,-531.9C614.53,-516.04 695,-477.87 695,-414 695,-414 695,-414 695,-300 695,-267.38 704.02,-230.28 710.23,-208.57"/>
<polygon fill="midnightblue" stroke="midnightblue" points="713.67,-209.32 713.17,-198.73 706.96,-207.32 713.67,-209.32"/>
</g>
<!-- Node81&#45;&gt;Node53 -->
<g id="edge56" class="edge">
<title>Node81&#45;&gt;Node53</title>
<path fill="none" stroke="midnightblue" d="M539.61,-531.69C514.62,-490.79 409.7,-319.14 375.69,-263.49"/>
<polygon fill="midnightblue" stroke="midnightblue" points="378.57,-261.49 370.37,-254.78 372.59,-265.14 378.57,-261.49"/>
</g>
<!-- Node81&#45;&gt;Node55 -->
<g id="edge59" class="edge">
<title>Node81&#45;&gt;Node55</title>
<path fill="none" stroke="midnightblue" d="M580.72,-537.89C621.96,-533.46 690.45,-521.57 740,-490 810.43,-445.12 864.42,-357.64 885.43,-319.97"/>
<polygon fill="midnightblue" stroke="midnightblue" points="888.75,-321.19 890.47,-310.74 882.61,-317.84 888.75,-321.19"/>
</g>
<!-- Node81&#45;&gt;Node58 -->
<g id="edge61" class="edge">
<title>Node81&#45;&gt;Node58</title>
<path fill="none" stroke="midnightblue" d="M580.52,-538.68C652.54,-534.44 820.58,-521.75 958,-490 961.41,-489.21 964.93,-488.25 968.42,-487.19"/>
<polygon fill="midnightblue" stroke="midnightblue" points="969.6,-490.49 978.02,-484.06 967.43,-483.84 969.6,-490.49"/>
</g>
<!-- Node81&#45;&gt;Node61 -->
<g id="edge65" class="edge">
<title>Node81&#45;&gt;Node61</title>
<path fill="none" stroke="midnightblue" d="M580.53,-536.21C615.85,-530.51 670.22,-517.71 709,-490 751.71,-459.48 782.88,-404.01 796.84,-375.68"/>
<polygon fill="midnightblue" stroke="midnightblue" points="800.04,-377.1 801.2,-366.57 793.73,-374.08 800.04,-377.1"/>
</g>
<!-- Node82 -->
<g id="node32" class="node">
<title>Node82</title>
<g id="a_node32"><a xlink:href="endpoint_8h.html" target="_top" xlink:title=" ">
<polygon fill="white" stroke="red" points="261.5,-403.5 261.5,-422.5 390.5,-422.5 390.5,-403.5 261.5,-403.5"/>
<text text-anchor="middle" x="326" y="-410.5" font-family="Helvetica,sans-Serif" font-size="10.00">../../protocol/endpoint.h</text>
</a>
</g>
</g>
<!-- Node81&#45;&gt;Node82 -->
<g id="edge53" class="edge">
<title>Node81&#45;&gt;Node82</title>
<path fill="none" stroke="midnightblue" d="M515.82,-531.95C489.05,-523.43 448.84,-508.9 417,-490 388.1,-472.84 359.05,-446.65 341.79,-429.93"/>
<polygon fill="midnightblue" stroke="midnightblue" points="343.9,-427.1 334.32,-422.57 338.98,-432.08 343.9,-427.1"/>
</g>
<!-- Node84 -->
<g id="node33" class="node">
<title>Node84</title>
<g id="a_node33"><a xlink:href="packet_8h.html" target="_top" xlink:title=" ">
<polygon fill="white" stroke="red" points="193,-465 193,-484 257,-484 257,-465 193,-465"/>
<text text-anchor="middle" x="225" y="-472" font-family="Helvetica,sans-Serif" font-size="10.00">./packet.h</text>
</a>
</g>
</g>
<!-- Node81&#45;&gt;Node84 -->
<g id="edge57" class="edge">
<title>Node81&#45;&gt;Node84</title>
<path fill="none" stroke="midnightblue" d="M509.36,-535.92C455.93,-528.64 352.11,-512.86 266,-490 263.03,-489.21 259.97,-488.31 256.92,-487.34"/>
<polygon fill="midnightblue" stroke="midnightblue" points="257.95,-484 247.35,-484.14 255.72,-490.63 257.95,-484"/>
</g>
<!-- Node92 -->
<g id="node34" class="node">
<title>Node92</title>
<g id="a_node34"><a xlink:href="multiplexer_8h.html" target="_top" xlink:title=" ">
<polygon fill="white" stroke="red" points="275.5,-465 275.5,-484 364.5,-484 364.5,-465 275.5,-465"/>
<text text-anchor="middle" x="320" y="-472" font-family="Helvetica,sans-Serif" font-size="10.00">../multiplexer.h</text>
</a>
</g>
</g>
<!-- Node81&#45;&gt;Node92 -->
<g id="edge62" class="edge">
<title>Node81&#45;&gt;Node92</title>
<path fill="none" stroke="midnightblue" d="M515.12,-531.87C475.09,-520.3 403.94,-499.75 359.51,-486.91"/>
<polygon fill="midnightblue" stroke="midnightblue" points="360.22,-483.48 349.64,-484.06 358.28,-490.2 360.22,-483.48"/>
</g>
<!-- Node92&#45;&gt;Node2 -->
<g id="edge64" class="edge">
<title>Node92&#45;&gt;Node2</title>
<path fill="none" stroke="midnightblue" d="M299.65,-464.98C275.61,-454.9 235.4,-438.05 207.84,-426.5"/>
<polygon fill="midnightblue" stroke="midnightblue" points="208.88,-423.15 198.31,-422.51 206.18,-429.6 208.88,-423.15"/>
</g>
<!-- Node92&#45;&gt;Node82 -->
<g id="edge63" class="edge">
<title>Node92&#45;&gt;Node82</title>
<path fill="none" stroke="midnightblue" d="M320.86,-464.98C321.71,-456.58 323.03,-443.48 324.12,-432.66"/>
<polygon fill="midnightblue" stroke="midnightblue" points="327.62,-432.81 325.14,-422.51 320.66,-432.11 327.62,-432.81"/>
</g>
</g>
</svg>
