<?xml version="1.0" encoding="UTF-8" standalone="no"?>
<!DOCTYPE svg PUBLIC "-//W3C//DTD SVG 1.1//EN"
 "http://www.w3.org/Graphics/SVG/1.1/DTD/svg11.dtd">
<!-- Generated by graphviz version 2.43.0 (0)
 -->
<!-- Title: include/emlabcpp/experimental/testing/parameters.h Pages: 1 -->
<svg width="1945pt" height="430pt"
 viewBox="0.00 0.00 1944.69 430.00" xmlns="http://www.w3.org/2000/svg" xmlns:xlink="http://www.w3.org/1999/xlink">
<g id="graph0" class="graph" transform="scale(1 1) rotate(0) translate(4 426)">
<title>include/emlabcpp/experimental/testing/parameters.h</title>
<polygon fill="white" stroke="transparent" points="-4,4 -4,-426 1940.69,-426 1940.69,4 -4,4"/>
<!-- Node1 -->
<g id="node1" class="node">
<title>Node1</title>
<g id="a_node1"><a xlink:title=" ">
<polygon fill="#bfbfbf" stroke="black" points="844.69,-391.5 844.69,-421.5 1015.69,-421.5 1015.69,-391.5 844.69,-391.5"/>
<text text-anchor="start" x="852.69" y="-409.5" font-family="Helvetica,sans-Serif" font-size="10.00">include/emlabcpp/experimental</text>
<text text-anchor="middle" x="930.19" y="-398.5" font-family="Helvetica,sans-Serif" font-size="10.00">/testing/parameters.h</text>
</a>
</g>
</g>
<!-- Node2 -->
<g id="node2" class="node">
<title>Node2</title>
<g id="a_node2"><a xlink:href="request__adapter_8h.html" target="_top" xlink:title=" ">
<polygon fill="white" stroke="black" points="464.69,-313.5 464.69,-354.5 601.69,-354.5 601.69,-313.5 464.69,-313.5"/>
<text text-anchor="start" x="472.69" y="-342.5" font-family="Helvetica,sans-Serif" font-size="10.00">emlabcpp/experimental</text>
<text text-anchor="start" x="472.69" y="-331.5" font-family="Helvetica,sans-Serif" font-size="10.00">/contiguous_tree/request</text>
<text text-anchor="middle" x="533.19" y="-320.5" font-family="Helvetica,sans-Serif" font-size="10.00">_adapter.h</text>
</a>
</g>
</g>
<!-- Node1&#45;&gt;Node2 -->
<g id="edge1" class="edge">
<title>Node1&#45;&gt;Node2</title>
<path fill="none" stroke="midnightblue" d="M851.28,-391.49C781.88,-379.16 681.39,-361.32 612.01,-349"/>
<polygon fill="midnightblue" stroke="midnightblue" points="612.47,-345.52 602.01,-347.22 611.25,-352.42 612.47,-345.52"/>
</g>
<!-- Node27 -->
<g id="node4" class="node">
<title>Node27</title>
<g id="a_node4"><a xlink:href="function__view_8h.html" target="_top" xlink:title=" ">
<polygon fill="white" stroke="black" points="52.69,-319 52.69,-349 185.69,-349 185.69,-319 52.69,-319"/>
<text text-anchor="start" x="60.69" y="-337" font-family="Helvetica,sans-Serif" font-size="10.00">emlabcpp/experimental</text>
<text text-anchor="middle" x="119.19" y="-326" font-family="Helvetica,sans-Serif" font-size="10.00">/function_view.h</text>
</a>
</g>
</g>
<!-- Node1&#45;&gt;Node27 -->
<g id="edge3" class="edge">
<title>Node1&#45;&gt;Node27</title>
<path fill="none" stroke="midnightblue" d="M844.55,-398.06C685.74,-384.25 347.94,-354.89 196.02,-341.68"/>
<polygon fill="midnightblue" stroke="midnightblue" points="196.12,-338.17 185.85,-340.79 195.51,-345.15 196.12,-338.17"/>
</g>
<!-- Node28 -->
<g id="node7" class="node">
<title>Node28</title>
<g id="a_node7"><a xlink:href="experimental_2testing_2convert_8h.html" target="_top" xlink:title=" ">
<polygon fill="white" stroke="black" points="1316.69,-319 1316.69,-349 1449.69,-349 1449.69,-319 1316.69,-319"/>
<text text-anchor="start" x="1324.69" y="-337" font-family="Helvetica,sans-Serif" font-size="10.00">emlabcpp/experimental</text>
<text text-anchor="middle" x="1383.19" y="-326" font-family="Helvetica,sans-Serif" font-size="10.00">/testing/convert.h</text>
</a>
</g>
</g>
<!-- Node1&#45;&gt;Node28 -->
<g id="edge6" class="edge">
<title>Node1&#45;&gt;Node28</title>
<path fill="none" stroke="midnightblue" d="M1015.69,-396.42C1091.15,-387.8 1203.95,-373.42 1301.19,-355 1307,-353.9 1313.02,-352.65 1319.03,-351.32"/>
<polygon fill="midnightblue" stroke="midnightblue" points="1320.14,-354.66 1329.11,-349.03 1318.58,-347.83 1320.14,-354.66"/>
</g>
<!-- Node59 -->
<g id="node13" class="node">
<title>Node59</title>
<g id="a_node13"><a xlink:href="static__function_8h.html" target="_top" xlink:title=" ">
<polygon fill="white" stroke="red" points="1213.69,-179.5 1213.69,-198.5 1362.69,-198.5 1362.69,-179.5 1213.69,-179.5"/>
<text text-anchor="middle" x="1288.19" y="-186.5" font-family="Helvetica,sans-Serif" font-size="10.00">emlabcpp/static_function.h</text>
</a>
</g>
</g>
<!-- Node1&#45;&gt;Node59 -->
<g id="edge54" class="edge">
<title>Node1&#45;&gt;Node59</title>
<path fill="none" stroke="midnightblue" d="M1015.72,-392.86C1089.66,-377.62 1194.55,-345 1259.19,-277 1277.07,-258.19 1283.94,-228.06 1286.57,-208.65"/>
<polygon fill="midnightblue" stroke="midnightblue" points="1290.06,-208.96 1287.68,-198.63 1283.1,-208.19 1290.06,-208.96"/>
</g>
<!-- Node62 -->
<g id="node15" class="node">
<title>Node62</title>
<g id="a_node15"><a xlink:href="coroutine_8h.html" target="_top" xlink:title=" ">
<polygon fill="white" stroke="black" points="1613.69,-319 1613.69,-349 1746.69,-349 1746.69,-319 1613.69,-319"/>
<text text-anchor="start" x="1621.69" y="-337" font-family="Helvetica,sans-Serif" font-size="10.00">emlabcpp/experimental</text>
<text text-anchor="middle" x="1680.19" y="-326" font-family="Helvetica,sans-Serif" font-size="10.00">/testing/coroutine.h</text>
</a>
</g>
</g>
<!-- Node1&#45;&gt;Node62 -->
<g id="edge16" class="edge">
<title>Node1&#45;&gt;Node62</title>
<path fill="none" stroke="midnightblue" d="M1015.86,-397.45C1163.22,-383.6 1462.41,-355.47 1603.41,-342.22"/>
<polygon fill="midnightblue" stroke="midnightblue" points="1604.06,-345.67 1613.69,-341.25 1603.41,-338.7 1604.06,-345.67"/>
</g>
<!-- Node67 -->
<g id="node20" class="node">
<title>Node67</title>
<g id="a_node20"><a xlink:href="experimental_2testing_2protocol_8h.html" target="_top" xlink:title=" ">
<polygon fill="white" stroke="black" points="749.69,-319 749.69,-349 882.69,-349 882.69,-319 749.69,-319"/>
<text text-anchor="start" x="757.69" y="-337" font-family="Helvetica,sans-Serif" font-size="10.00">emlabcpp/experimental</text>
<text text-anchor="middle" x="816.19" y="-326" font-family="Helvetica,sans-Serif" font-size="10.00">/testing/protocol.h</text>
</a>
</g>
</g>
<!-- Node1&#45;&gt;Node67 -->
<g id="edge22" class="edge">
<title>Node1&#45;&gt;Node67</title>
<path fill="none" stroke="midnightblue" d="M907.4,-391.4C890.23,-380.79 866.5,-366.11 847.55,-354.39"/>
<polygon fill="midnightblue" stroke="midnightblue" points="849.29,-351.36 838.95,-349.07 845.61,-357.31 849.29,-351.36"/>
</g>
<!-- Node72 -->
<g id="node23" class="node">
<title>Node72</title>
<g id="a_node23"><a xlink:href="protocol_2handler_8h.html" target="_top" xlink:title=" ">
<polygon fill="white" stroke="red" points="670.69,-179.5 670.69,-198.5 825.69,-198.5 825.69,-179.5 670.69,-179.5"/>
<text text-anchor="middle" x="748.19" y="-186.5" font-family="Helvetica,sans-Serif" font-size="10.00">emlabcpp/protocol/handler.h</text>
</a>
</g>
</g>
<!-- Node1&#45;&gt;Node72 -->
<g id="edge53" class="edge">
<title>Node1&#45;&gt;Node72</title>
<path fill="none" stroke="midnightblue" d="M925.94,-391.26C919.92,-372.42 907.79,-338.58 891.19,-313 865.34,-273.17 854.66,-265.4 818.19,-235 804.13,-223.27 786.83,-212.13 772.95,-203.86"/>
<polygon fill="midnightblue" stroke="midnightblue" points="774.37,-200.64 763.97,-198.63 770.84,-206.69 774.37,-200.64"/>
</g>
<!-- Node3 -->
<g id="node3" class="node">
<title>Node3</title>
<g id="a_node3"><a xlink:href="experimental_2contiguous__tree_2base_8h.html" target="_top" xlink:title=" ">
<polygon fill="white" stroke="red" points="16.69,-241 16.69,-271 149.69,-271 149.69,-241 16.69,-241"/>
<text text-anchor="start" x="24.69" y="-259" font-family="Helvetica,sans-Serif" font-size="10.00">emlabcpp/experimental</text>
<text text-anchor="middle" x="83.19" y="-248" font-family="Helvetica,sans-Serif" font-size="10.00">/contiguous_tree/base.h</text>
</a>
</g>
</g>
<!-- Node2&#45;&gt;Node3 -->
<g id="edge2" class="edge">
<title>Node2&#45;&gt;Node3</title>
<path fill="none" stroke="midnightblue" d="M464.52,-324.49C390.17,-314.83 268.26,-297.7 164.19,-277 158.55,-275.88 152.71,-274.62 146.86,-273.3"/>
<polygon fill="midnightblue" stroke="midnightblue" points="147.6,-269.88 137.06,-271.03 146.02,-276.7 147.6,-269.88"/>
</g>
<!-- Node6 -->
<g id="node5" class="node">
<title>Node6</title>
<g id="a_node5"><a xlink:href="concepts_8h.html" target="_top" xlink:title=" ">
<polygon fill="white" stroke="red" points="119.19,-123.5 119.19,-142.5 239.19,-142.5 239.19,-123.5 119.19,-123.5"/>
<text text-anchor="middle" x="179.19" y="-130.5" font-family="Helvetica,sans-Serif" font-size="10.00">emlabcpp/concepts.h</text>
</a>
</g>
</g>
<!-- Node27&#45;&gt;Node6 -->
<g id="edge4" class="edge">
<title>Node27&#45;&gt;Node6</title>
<path fill="none" stroke="midnightblue" d="M63.72,-318.98C42.21,-310.54 19.76,-297.34 7.19,-277 -2.62,-261.12 -2.08,-251.2 7.19,-235 34.75,-186.87 95.14,-159.43 136.51,-145.63"/>
<polygon fill="midnightblue" stroke="midnightblue" points="137.6,-148.95 146.06,-142.57 135.47,-142.29 137.6,-148.95"/>
</g>
<!-- Node16 -->
<g id="node6" class="node">
<title>Node16</title>
<g id="a_node6"><a xlink:title=" ">
<polygon fill="white" stroke="#bfbfbf" points="153.69,-62 153.69,-81 204.69,-81 204.69,-62 153.69,-62"/>
<text text-anchor="middle" x="179.19" y="-69" font-family="Helvetica,sans-Serif" font-size="10.00">variant</text>
</a>
</g>
</g>
<!-- Node6&#45;&gt;Node16 -->
<g id="edge5" class="edge">
<title>Node6&#45;&gt;Node16</title>
<path fill="none" stroke="midnightblue" d="M179.19,-123.48C179.19,-115.08 179.19,-101.98 179.19,-91.16"/>
<polygon fill="midnightblue" stroke="midnightblue" points="182.69,-91.01 179.19,-81.01 175.69,-91.01 182.69,-91.01"/>
</g>
<!-- Node29 -->
<g id="node8" class="node">
<title>Node29</title>
<g id="a_node8"><a xlink:href="string__buffer_8h.html" target="_top" xlink:title=" ">
<polygon fill="white" stroke="red" points="1038.69,-56.5 1038.69,-86.5 1171.69,-86.5 1171.69,-56.5 1038.69,-56.5"/>
<text text-anchor="start" x="1046.69" y="-74.5" font-family="Helvetica,sans-Serif" font-size="10.00">emlabcpp/experimental</text>
<text text-anchor="middle" x="1105.19" y="-63.5" font-family="Helvetica,sans-Serif" font-size="10.00">/string_buffer.h</text>
</a>
</g>
</g>
<!-- Node28&#45;&gt;Node29 -->
<g id="edge7" class="edge">
<title>Node28&#45;&gt;Node29</title>
<path fill="none" stroke="midnightblue" d="M1390.2,-318.67C1395.21,-307.59 1401.52,-291.71 1404.19,-277 1407.52,-258.63 1406.47,-253.53 1404.19,-235 1397.13,-177.66 1388.39,-151.6 1338.19,-123 1290.35,-95.74 1229.31,-83.17 1181.7,-77.39"/>
<polygon fill="midnightblue" stroke="midnightblue" points="1182.09,-73.91 1171.76,-76.26 1181.3,-80.87 1182.09,-73.91"/>
</g>
<!-- Node33 -->
<g id="node10" class="node">
<title>Node33</title>
<g id="a_node10"><a xlink:href="experimental_2testing_2base_8h.html" target="_top" xlink:title=" ">
<polygon fill="white" stroke="red" points="1082.69,-241 1082.69,-271 1215.69,-271 1215.69,-241 1082.69,-241"/>
<text text-anchor="start" x="1090.69" y="-259" font-family="Helvetica,sans-Serif" font-size="10.00">emlabcpp/experimental</text>
<text text-anchor="middle" x="1149.19" y="-248" font-family="Helvetica,sans-Serif" font-size="10.00">/testing/base.h</text>
</a>
</g>
</g>
<!-- Node28&#45;&gt;Node33 -->
<g id="edge9" class="edge">
<title>Node28&#45;&gt;Node33</title>
<path fill="none" stroke="midnightblue" d="M1340,-318.97C1301.12,-306.35 1243.87,-287.75 1202.22,-274.22"/>
<polygon fill="midnightblue" stroke="midnightblue" points="1203.12,-270.84 1192.53,-271.07 1200.96,-277.49 1203.12,-270.84"/>
</g>
<!-- Node61 -->
<g id="node14" class="node">
<title>Node61</title>
<g id="a_node14"><a xlink:title=" ">
<polygon fill="white" stroke="#bfbfbf" points="1285.19,-123.5 1285.19,-142.5 1329.19,-142.5 1329.19,-123.5 1285.19,-123.5"/>
<text text-anchor="middle" x="1307.19" y="-130.5" font-family="Helvetica,sans-Serif" font-size="10.00">bitset</text>
</a>
</g>
</g>
<!-- Node28&#45;&gt;Node61 -->
<g id="edge15" class="edge">
<title>Node28&#45;&gt;Node61</title>
<path fill="none" stroke="midnightblue" d="M1385.88,-318.67C1390.49,-290.01 1397.08,-224.44 1371.19,-179 1363.4,-165.32 1349.55,-154.81 1336.72,-147.4"/>
<polygon fill="midnightblue" stroke="midnightblue" points="1338.13,-144.18 1327.66,-142.54 1334.83,-150.35 1338.13,-144.18"/>
</g>
<!-- Node8 -->
<g id="node9" class="node">
<title>Node8</title>
<g id="a_node9"><a xlink:title=" ">
<polygon fill="white" stroke="#bfbfbf" points="909.19,-0.5 909.19,-19.5 951.19,-19.5 951.19,-0.5 909.19,-0.5"/>
<text text-anchor="middle" x="930.19" y="-7.5" font-family="Helvetica,sans-Serif" font-size="10.00">array</text>
</a>
</g>
</g>
<!-- Node29&#45;&gt;Node8 -->
<g id="edge8" class="edge">
<title>Node29&#45;&gt;Node8</title>
<path fill="none" stroke="midnightblue" d="M1063.72,-56.4C1032.21,-45.69 989.58,-31.19 961.04,-21.49"/>
<polygon fill="midnightblue" stroke="midnightblue" points="961.81,-18.05 951.21,-18.15 959.55,-24.68 961.81,-18.05"/>
</g>
<!-- Node33&#45;&gt;Node16 -->
<g id="edge14" class="edge">
<title>Node33&#45;&gt;Node16</title>
<path fill="none" stroke="midnightblue" d="M1147.94,-240.87C1145.99,-224.84 1141.12,-198.42 1129.19,-179 1109.59,-147.08 1100.82,-137.3 1066.19,-123 986.66,-90.15 371.85,-76.2 215.34,-73.16"/>
<polygon fill="midnightblue" stroke="midnightblue" points="214.94,-69.65 204.88,-72.96 214.81,-76.65 214.94,-69.65"/>
</g>
<!-- Node33&#45;&gt;Node29 -->
<g id="edge12" class="edge">
<title>Node33&#45;&gt;Node29</title>
<path fill="none" stroke="midnightblue" d="M1155.07,-240.76C1164.46,-215.72 1180.05,-162.69 1162.19,-123 1156.85,-111.13 1147.19,-100.92 1137.32,-92.85"/>
<polygon fill="midnightblue" stroke="midnightblue" points="1139.15,-89.85 1129.07,-86.59 1134.92,-95.43 1139.15,-89.85"/>
</g>
<!-- Node34 -->
<g id="node11" class="node">
<title>Node34</title>
<g id="a_node11"><a xlink:href="algorithm_8h.html" target="_top" xlink:title=" ">
<polygon fill="white" stroke="red" points="996.19,-179.5 996.19,-198.5 1120.19,-198.5 1120.19,-179.5 996.19,-179.5"/>
<text text-anchor="middle" x="1058.19" y="-186.5" font-family="Helvetica,sans-Serif" font-size="10.00">emlabcpp/algorithm.h</text>
</a>
</g>
</g>
<!-- Node33&#45;&gt;Node34 -->
<g id="edge10" class="edge">
<title>Node33&#45;&gt;Node34</title>
<path fill="none" stroke="midnightblue" d="M1129.45,-240.9C1114.33,-230.1 1093.55,-215.26 1078.33,-204.39"/>
<polygon fill="midnightblue" stroke="midnightblue" points="1080.27,-201.47 1070.1,-198.51 1076.2,-207.17 1080.27,-201.47"/>
</g>
<!-- Node33&#45;&gt;Node59 -->
<g id="edge13" class="edge">
<title>Node33&#45;&gt;Node59</title>
<path fill="none" stroke="midnightblue" d="M1179.35,-240.9C1203.63,-229.54 1237.47,-213.72 1260.94,-202.74"/>
<polygon fill="midnightblue" stroke="midnightblue" points="1262.42,-205.91 1270,-198.51 1259.46,-199.57 1262.42,-205.91"/>
</g>
<!-- Node21 -->
<g id="node12" class="node">
<title>Node21</title>
<g id="a_node12"><a xlink:href="view_8h.html" target="_top" xlink:title=" ">
<polygon fill="white" stroke="red" points="958.69,-123.5 958.69,-142.5 1057.69,-142.5 1057.69,-123.5 958.69,-123.5"/>
<text text-anchor="middle" x="1008.19" y="-130.5" font-family="Helvetica,sans-Serif" font-size="10.00">emlabcpp/view.h</text>
</a>
</g>
</g>
<!-- Node34&#45;&gt;Node21 -->
<g id="edge11" class="edge">
<title>Node34&#45;&gt;Node21</title>
<path fill="none" stroke="midnightblue" d="M1049.94,-179.08C1042.73,-171.3 1032.08,-159.8 1023.35,-150.37"/>
<polygon fill="midnightblue" stroke="midnightblue" points="1025.66,-147.71 1016.29,-142.75 1020.52,-152.47 1025.66,-147.71"/>
</g>
<!-- Node63 -->
<g id="node16" class="node">
<title>Node63</title>
<g id="a_node16"><a xlink:href="data__promise_8h.html" target="_top" xlink:title=" ">
<polygon fill="white" stroke="red" points="1803.69,-241 1803.69,-271 1936.69,-271 1936.69,-241 1803.69,-241"/>
<text text-anchor="start" x="1811.69" y="-259" font-family="Helvetica,sans-Serif" font-size="10.00">emlabcpp/experimental</text>
<text text-anchor="middle" x="1870.19" y="-248" font-family="Helvetica,sans-Serif" font-size="10.00">/coro/data_promise.h</text>
</a>
</g>
</g>
<!-- Node62&#45;&gt;Node63 -->
<g id="edge17" class="edge">
<title>Node62&#45;&gt;Node63</title>
<path fill="none" stroke="midnightblue" d="M1715.48,-318.88C1746.54,-306.46 1791.93,-288.31 1825.51,-274.87"/>
<polygon fill="midnightblue" stroke="midnightblue" points="1827.1,-278 1835.09,-271.04 1824.5,-271.51 1827.1,-278"/>
</g>
<!-- Node64 -->
<g id="node17" class="node">
<title>Node64</title>
<g id="a_node17"><a xlink:href="memory__promise_8h.html" target="_top" xlink:title=" ">
<polygon fill="white" stroke="red" points="1456.69,-241 1456.69,-271 1595.69,-271 1595.69,-241 1456.69,-241"/>
<text text-anchor="start" x="1464.69" y="-259" font-family="Helvetica,sans-Serif" font-size="10.00">emlabcpp/experimental</text>
<text text-anchor="middle" x="1526.19" y="-248" font-family="Helvetica,sans-Serif" font-size="10.00">/coro/memory_promise.h</text>
</a>
</g>
</g>
<!-- Node62&#45;&gt;Node64 -->
<g id="edge18" class="edge">
<title>Node62&#45;&gt;Node64</title>
<path fill="none" stroke="midnightblue" d="M1651.59,-318.88C1626.84,-306.67 1590.89,-288.93 1563.82,-275.57"/>
<polygon fill="midnightblue" stroke="midnightblue" points="1565.16,-272.33 1554.64,-271.04 1562.06,-278.61 1565.16,-272.33"/>
</g>
<!-- Node65 -->
<g id="node18" class="node">
<title>Node65</title>
<g id="a_node18"><a xlink:href="owning__coroutine__handle_8h.html" target="_top" xlink:title=" ">
<polygon fill="white" stroke="red" points="1613.69,-235.5 1613.69,-276.5 1746.69,-276.5 1746.69,-235.5 1613.69,-235.5"/>
<text text-anchor="start" x="1621.69" y="-264.5" font-family="Helvetica,sans-Serif" font-size="10.00">emlabcpp/experimental</text>
<text text-anchor="start" x="1621.69" y="-253.5" font-family="Helvetica,sans-Serif" font-size="10.00">/coro/owning_coroutine</text>
<text text-anchor="middle" x="1680.19" y="-242.5" font-family="Helvetica,sans-Serif" font-size="10.00">_handle.h</text>
</a>
</g>
</g>
<!-- Node62&#45;&gt;Node65 -->
<g id="edge19" class="edge">
<title>Node62&#45;&gt;Node65</title>
<path fill="none" stroke="midnightblue" d="M1680.19,-318.7C1680.19,-309.71 1680.19,-297.77 1680.19,-286.79"/>
<polygon fill="midnightblue" stroke="midnightblue" points="1683.69,-286.68 1680.19,-276.68 1676.69,-286.68 1683.69,-286.68"/>
</g>
<!-- Node66 -->
<g id="node19" class="node">
<title>Node66</title>
<g id="a_node19"><a xlink:title=" ">
<polygon fill="white" stroke="#bfbfbf" points="1696.19,-179.5 1696.19,-198.5 1758.19,-198.5 1758.19,-179.5 1696.19,-179.5"/>
<text text-anchor="middle" x="1727.19" y="-186.5" font-family="Helvetica,sans-Serif" font-size="10.00">coroutine</text>
</a>
</g>
</g>
<!-- Node62&#45;&gt;Node66 -->
<g id="edge21" class="edge">
<title>Node62&#45;&gt;Node66</title>
<path fill="none" stroke="midnightblue" d="M1711.49,-318.82C1728.03,-309.5 1746.8,-295.58 1756.19,-277 1764.61,-260.34 1761.46,-252.91 1756.19,-235 1753.18,-224.76 1747.04,-214.66 1741.18,-206.63"/>
<polygon fill="midnightblue" stroke="midnightblue" points="1743.78,-204.27 1734.86,-198.54 1738.26,-208.58 1743.78,-204.27"/>
</g>
<!-- Node65&#45;&gt;Node66 -->
<g id="edge20" class="edge">
<title>Node65&#45;&gt;Node66</title>
<path fill="none" stroke="midnightblue" d="M1694.29,-235.5C1700.88,-226.39 1708.64,-215.66 1714.97,-206.91"/>
<polygon fill="midnightblue" stroke="midnightblue" points="1717.91,-208.81 1720.94,-198.65 1712.24,-204.71 1717.91,-208.81"/>
</g>
<!-- Node67&#45;&gt;Node3 -->
<g id="edge24" class="edge">
<title>Node67&#45;&gt;Node3</title>
<path fill="none" stroke="midnightblue" d="M749.42,-326.24C709.11,-322.23 656.72,-317.14 610.19,-313 412.11,-295.39 360.48,-308.94 164.19,-277 157.91,-275.98 151.39,-274.72 144.91,-273.33"/>
<polygon fill="midnightblue" stroke="midnightblue" points="145.31,-269.83 134.79,-271.06 143.78,-276.66 145.31,-269.83"/>
</g>
<!-- Node67&#45;&gt;Node16 -->
<g id="edge52" class="edge">
<title>Node67&#45;&gt;Node16</title>
<path fill="none" stroke="midnightblue" d="M749.41,-326.35C709.1,-322.38 656.71,-317.29 610.19,-313 518.45,-304.55 279.96,-317.46 197.19,-277 174.31,-265.81 177.21,-251.95 158.19,-235 138.02,-217.02 123.28,-222.06 109.19,-199 96.05,-177.49 102.2,-168.13 100.19,-143 99.48,-134.14 95.92,-130.8 100.19,-123 109.67,-105.69 127.88,-93.46 144.43,-85.36"/>
<polygon fill="midnightblue" stroke="midnightblue" points="146.24,-88.39 153.91,-81.07 143.36,-82.01 146.24,-88.39"/>
</g>
<!-- Node67&#45;&gt;Node8 -->
<g id="edge50" class="edge">
<title>Node67&#45;&gt;Node8</title>
<path fill="none" stroke="midnightblue" d="M836.59,-318.84C849.77,-308.66 866.25,-293.8 876.19,-277 924.97,-194.54 930.33,-75.29 930.47,-29.69"/>
<polygon fill="midnightblue" stroke="midnightblue" points="933.97,-29.51 930.41,-19.53 926.97,-29.55 933.97,-29.51"/>
</g>
<!-- Node67&#45;&gt;Node33 -->
<g id="edge28" class="edge">
<title>Node67&#45;&gt;Node33</title>
<path fill="none" stroke="midnightblue" d="M879.17,-318.94C929.32,-307.71 1001.29,-291.5 1064.19,-277 1069.23,-275.84 1074.44,-274.63 1079.68,-273.41"/>
<polygon fill="midnightblue" stroke="midnightblue" points="1080.82,-276.74 1089.76,-271.06 1079.23,-269.92 1080.82,-276.74"/>
</g>
<!-- Node67&#45;&gt;Node34 -->
<g id="edge23" class="edge">
<title>Node67&#45;&gt;Node34</title>
<path fill="none" stroke="midnightblue" d="M882.79,-329.29C926.4,-323.65 982.15,-309.93 1020.19,-277 1040.71,-259.24 1050.55,-228.35 1054.96,-208.56"/>
<polygon fill="midnightblue" stroke="midnightblue" points="1058.42,-209.1 1056.93,-198.61 1051.56,-207.74 1058.42,-209.1"/>
</g>
<!-- Node67&#45;&gt;Node21 -->
<g id="edge49" class="edge">
<title>Node67&#45;&gt;Node21</title>
<path fill="none" stroke="midnightblue" d="M882.82,-328.05C918.16,-321.7 958.96,-307.67 982.19,-277 1008.52,-242.23 976.66,-221.32 987.19,-179 989.56,-169.48 993.97,-159.54 998.14,-151.43"/>
<polygon fill="midnightblue" stroke="midnightblue" points="1001.24,-153.05 1002.95,-142.59 995.09,-149.7 1001.24,-153.05"/>
</g>
<!-- Node67&#45;&gt;Node59 -->
<g id="edge48" class="edge">
<title>Node67&#45;&gt;Node59</title>
<path fill="none" stroke="midnightblue" d="M883.08,-330.09C983.63,-324.69 1167.96,-310.44 1224.19,-277 1251.35,-260.85 1270.49,-228.26 1280.39,-207.87"/>
<polygon fill="midnightblue" stroke="midnightblue" points="1283.6,-209.27 1284.62,-198.72 1277.25,-206.34 1283.6,-209.27"/>
</g>
<!-- Node68 -->
<g id="node21" class="node">
<title>Node68</title>
<g id="a_node21"><a xlink:href="multiplexer_8h.html" target="_top" xlink:title=" ">
<polygon fill="white" stroke="red" points="654.69,-241 654.69,-271 787.69,-271 787.69,-241 654.69,-241"/>
<text text-anchor="start" x="662.69" y="-259" font-family="Helvetica,sans-Serif" font-size="10.00">emlabcpp/experimental</text>
<text text-anchor="middle" x="721.19" y="-248" font-family="Helvetica,sans-Serif" font-size="10.00">/multiplexer.h</text>
</a>
</g>
</g>
<!-- Node67&#45;&gt;Node68 -->
<g id="edge25" class="edge">
<title>Node67&#45;&gt;Node68</title>
<path fill="none" stroke="midnightblue" d="M798.32,-318.7C783.86,-307.13 763.29,-290.68 747.03,-277.67"/>
<polygon fill="midnightblue" stroke="midnightblue" points="748.98,-274.74 738.98,-271.23 744.6,-280.21 748.98,-274.74"/>
</g>
<!-- Node70 -->
<g id="node22" class="node">
<title>Node70</title>
<g id="a_node22"><a xlink:href="endpoint_8h.html" target="_top" xlink:title=" ">
<polygon fill="white" stroke="red" points="490.19,-179.5 490.19,-198.5 652.19,-198.5 652.19,-179.5 490.19,-179.5"/>
<text text-anchor="middle" x="571.19" y="-186.5" font-family="Helvetica,sans-Serif" font-size="10.00">emlabcpp/protocol/endpoint.h</text>
</a>
</g>
</g>
<!-- Node67&#45;&gt;Node70 -->
<g id="edge36" class="edge">
<title>Node67&#45;&gt;Node70</title>
<path fill="none" stroke="midnightblue" d="M749.67,-326.69C655.5,-317.07 492.74,-297.66 475.19,-277 463.11,-262.77 465.18,-250.75 475.19,-235 485.36,-219.01 502.87,-208.6 520.17,-201.87"/>
<polygon fill="midnightblue" stroke="midnightblue" points="521.46,-205.13 529.72,-198.5 519.13,-198.53 521.46,-205.13"/>
</g>
<!-- Node67&#45;&gt;Node72 -->
<g id="edge38" class="edge">
<title>Node67&#45;&gt;Node72</title>
<path fill="none" stroke="midnightblue" d="M815.95,-318.77C815.05,-298.82 811.27,-261.98 796.19,-235 789.64,-223.28 778.99,-212.83 769.37,-204.96"/>
<polygon fill="midnightblue" stroke="midnightblue" points="771.38,-202.09 761.33,-198.74 767.1,-207.63 771.38,-202.09"/>
</g>
<!-- Node78 -->
<g id="node24" class="node">
<title>Node78</title>
<g id="a_node24"><a xlink:href="protocol_2base_8h.html" target="_top" xlink:title=" ">
<polygon fill="white" stroke="red" points="328.69,-179.5 328.69,-198.5 471.69,-198.5 471.69,-179.5 328.69,-179.5"/>
<text text-anchor="middle" x="400.19" y="-186.5" font-family="Helvetica,sans-Serif" font-size="10.00">emlabcpp/protocol/base.h</text>
</a>
</g>
</g>
<!-- Node67&#45;&gt;Node78 -->
<g id="edge29" class="edge">
<title>Node67&#45;&gt;Node78</title>
<path fill="none" stroke="midnightblue" d="M749.61,-325.23C654.13,-313.66 487.15,-291.71 463.19,-277 436.41,-260.55 417.59,-228.06 407.85,-207.77"/>
<polygon fill="midnightblue" stroke="midnightblue" points="411.03,-206.32 403.7,-198.67 404.67,-209.22 411.03,-206.32"/>
</g>
<!-- Node79 -->
<g id="node25" class="node">
<title>Node79</title>
<g id="a_node25"><a xlink:href="protocol_2error_8h.html" target="_top" xlink:title=" ">
<polygon fill="white" stroke="red" points="712.19,-123.5 712.19,-142.5 854.19,-142.5 854.19,-123.5 712.19,-123.5"/>
<text text-anchor="middle" x="783.19" y="-130.5" font-family="Helvetica,sans-Serif" font-size="10.00">emlabcpp/protocol/error.h</text>
</a>
</g>
</g>
<!-- Node67&#45;&gt;Node79 -->
<g id="edge37" class="edge">
<title>Node67&#45;&gt;Node79</title>
<path fill="none" stroke="midnightblue" d="M822.63,-318.65C834.26,-290.49 855.67,-226.6 834.19,-179 828.58,-166.56 817.63,-156.17 807.31,-148.53"/>
<polygon fill="midnightblue" stroke="midnightblue" points="809.15,-145.54 798.93,-142.76 805.19,-151.31 809.15,-145.54"/>
</g>
<!-- Node58 -->
<g id="node26" class="node">
<title>Node58</title>
<g id="a_node26"><a xlink:title=" ">
<polygon fill="white" stroke="#bfbfbf" points="872.69,-123.5 872.69,-142.5 901.69,-142.5 901.69,-123.5 872.69,-123.5"/>
<text text-anchor="middle" x="887.19" y="-130.5" font-family="Helvetica,sans-Serif" font-size="10.00">bit</text>
</a>
</g>
</g>
<!-- Node67&#45;&gt;Node58 -->
<g id="edge51" class="edge">
<title>Node67&#45;&gt;Node58</title>
<path fill="none" stroke="midnightblue" d="M828.12,-318.67C836.56,-307.85 847.52,-292.29 854.19,-277 872.64,-234.72 881.5,-180.72 885.11,-152.72"/>
<polygon fill="midnightblue" stroke="midnightblue" points="888.59,-153.08 886.31,-142.73 881.64,-152.24 888.59,-153.08"/>
</g>
<!-- Node82 -->
<g id="node27" class="node">
<title>Node82</title>
<g id="a_node27"><a xlink:href="message_8h.html" target="_top" xlink:title=" ">
<polygon fill="white" stroke="black" points="146.19,-179.5 146.19,-198.5 310.19,-198.5 310.19,-179.5 146.19,-179.5"/>
<text text-anchor="middle" x="228.19" y="-186.5" font-family="Helvetica,sans-Serif" font-size="10.00">emlabcpp/protocol/message.h</text>
</a>
</g>
</g>
<!-- Node67&#45;&gt;Node82 -->
<g id="edge39" class="edge">
<title>Node67&#45;&gt;Node82</title>
<path fill="none" stroke="midnightblue" d="M749.59,-327.37C652.88,-318.55 478.73,-300.08 420.19,-277 389.91,-265.06 389.22,-249.73 360.19,-235 331.76,-220.57 297.66,-209.08 271.23,-201.32"/>
<polygon fill="midnightblue" stroke="midnightblue" points="272.09,-197.93 261.51,-198.53 270.16,-204.65 272.09,-197.93"/>
</g>
<!-- Node87 -->
<g id="node28" class="node">
<title>Node87</title>
<g id="a_node28"><a xlink:href="packet_8h.html" target="_top" xlink:title=" ">
<polygon fill="white" stroke="red" points="484.19,-246.5 484.19,-265.5 636.19,-265.5 636.19,-246.5 484.19,-246.5"/>
<text text-anchor="middle" x="560.19" y="-253.5" font-family="Helvetica,sans-Serif" font-size="10.00">emlabcpp/protocol/packet.h</text>
</a>
</g>
</g>
<!-- Node67&#45;&gt;Node87 -->
<g id="edge42" class="edge">
<title>Node67&#45;&gt;Node87</title>
<path fill="none" stroke="midnightblue" d="M768.94,-318.97C719.91,-304.42 644.18,-281.93 598.67,-268.42"/>
<polygon fill="midnightblue" stroke="midnightblue" points="599.48,-265.01 588.89,-265.52 597.48,-271.72 599.48,-265.01"/>
</g>
<!-- Node80 -->
<g id="node29" class="node">
<title>Node80</title>
<g id="a_node29"><a xlink:href="traits_8h.html" target="_top" xlink:title=" ">
<polygon fill="white" stroke="red" points="206.69,-246.5 206.69,-265.5 351.69,-265.5 351.69,-246.5 206.69,-246.5"/>
<text text-anchor="middle" x="279.19" y="-253.5" font-family="Helvetica,sans-Serif" font-size="10.00">emlabcpp/protocol/traits.h</text>
</a>
</g>
</g>
<!-- Node67&#45;&gt;Node80 -->
<g id="edge43" class="edge">
<title>Node67&#45;&gt;Node80</title>
<path fill="none" stroke="midnightblue" d="M749.54,-326.85C661.41,-318.24 501.48,-300.9 366.19,-277 351.95,-274.48 336.52,-271.14 322.67,-267.91"/>
<polygon fill="midnightblue" stroke="midnightblue" points="323.44,-264.5 312.91,-265.6 321.83,-271.31 323.44,-264.5"/>
</g>
<!-- Node68&#45;&gt;Node70 -->
<g id="edge26" class="edge">
<title>Node68&#45;&gt;Node70</title>
<path fill="none" stroke="midnightblue" d="M688.64,-240.9C662.32,-229.49 625.61,-213.58 600.26,-202.6"/>
<polygon fill="midnightblue" stroke="midnightblue" points="601.39,-199.27 590.82,-198.51 598.61,-205.69 601.39,-199.27"/>
</g>
<!-- Node68&#45;&gt;Node72 -->
<g id="edge27" class="edge">
<title>Node68&#45;&gt;Node72</title>
<path fill="none" stroke="midnightblue" d="M727.05,-240.9C731.05,-231.26 736.39,-218.41 740.7,-208.04"/>
<polygon fill="midnightblue" stroke="midnightblue" points="743.98,-209.27 744.58,-198.69 737.51,-206.59 743.98,-209.27"/>
</g>
<!-- Node78&#45;&gt;Node16 -->
<g id="edge35" class="edge">
<title>Node78&#45;&gt;Node16</title>
<path fill="none" stroke="midnightblue" d="M383.58,-179.32C345.25,-159.29 250.41,-109.72 204.67,-85.82"/>
<polygon fill="midnightblue" stroke="midnightblue" points="206.18,-82.65 195.69,-81.12 202.94,-88.86 206.18,-82.65"/>
</g>
<!-- Node78&#45;&gt;Node61 -->
<g id="edge34" class="edge">
<title>Node78&#45;&gt;Node61</title>
<path fill="none" stroke="midnightblue" d="M471.72,-179.83C474.92,-179.54 478.09,-179.26 481.19,-179 789.73,-153.47 1164.35,-139.03 1274.98,-135.1"/>
<polygon fill="midnightblue" stroke="midnightblue" points="1275.27,-138.59 1285.14,-134.75 1275.03,-131.6 1275.27,-138.59"/>
</g>
<!-- Node78&#45;&gt;Node79 -->
<g id="edge30" class="edge">
<title>Node78&#45;&gt;Node79</title>
<path fill="none" stroke="midnightblue" d="M460.88,-179.44C529.37,-169.79 640.64,-154.1 712.86,-143.92"/>
<polygon fill="midnightblue" stroke="midnightblue" points="713.37,-147.38 722.79,-142.52 712.4,-140.45 713.37,-147.38"/>
</g>
<!-- Node78&#45;&gt;Node58 -->
<g id="edge33" class="edge">
<title>Node78&#45;&gt;Node58</title>
<path fill="none" stroke="midnightblue" d="M471.74,-179.98C474.93,-179.65 478.1,-179.32 481.19,-179 647.6,-161.92 695.21,-180.54 862.76,-142.43"/>
<polygon fill="midnightblue" stroke="midnightblue" points="863.7,-145.81 872.66,-140.15 862.13,-138.99 863.7,-145.81"/>
</g>
<!-- Node79&#45;&gt;Node29 -->
<g id="edge31" class="edge">
<title>Node79&#45;&gt;Node29</title>
<path fill="none" stroke="midnightblue" d="M829.33,-123.48C881.22,-113.89 966.32,-98.16 1028.3,-86.71"/>
<polygon fill="midnightblue" stroke="midnightblue" points="1029.23,-90.1 1038.43,-84.84 1027.96,-83.21 1029.23,-90.1"/>
</g>
<!-- Node79&#45;&gt;Node8 -->
<g id="edge32" class="edge">
<title>Node79&#45;&gt;Node8</title>
<path fill="none" stroke="midnightblue" d="M793.76,-123.3C818.56,-102.89 880.69,-51.75 911.81,-26.13"/>
<polygon fill="midnightblue" stroke="midnightblue" points="914.22,-28.68 919.72,-19.62 909.77,-23.28 914.22,-28.68"/>
</g>
<!-- Node82&#45;&gt;Node6 -->
<g id="edge40" class="edge">
<title>Node82&#45;&gt;Node6</title>
<path fill="none" stroke="midnightblue" d="M220.1,-179.08C213.04,-171.3 202.6,-159.8 194.04,-150.37"/>
<polygon fill="midnightblue" stroke="midnightblue" points="196.44,-147.8 187.13,-142.75 191.26,-152.51 196.44,-147.8"/>
</g>
<!-- Node82&#45;&gt;Node21 -->
<g id="edge41" class="edge">
<title>Node82&#45;&gt;Node21</title>
<path fill="none" stroke="midnightblue" d="M310.52,-179.72C313.45,-179.47 316.34,-179.23 319.19,-179 581.51,-158.05 647.8,-163.04 910.19,-143 922.63,-142.05 935.94,-140.91 948.61,-139.77"/>
<polygon fill="midnightblue" stroke="midnightblue" points="948.97,-143.25 958.61,-138.85 948.34,-136.28 948.97,-143.25"/>
</g>
<!-- Node80&#45;&gt;Node16 -->
<g id="edge47" class="edge">
<title>Node80&#45;&gt;Node16</title>
<path fill="none" stroke="midnightblue" d="M246.72,-246.41C207.83,-235.54 145.84,-216.16 129.19,-199 104.95,-174.01 94.44,-154.05 110.19,-123 118.53,-106.56 135.03,-94.18 149.8,-85.8"/>
<polygon fill="midnightblue" stroke="midnightblue" points="151.48,-88.86 158.68,-81.09 148.2,-82.68 151.48,-88.86"/>
</g>
<!-- Node80&#45;&gt;Node78 -->
<g id="edge44" class="edge">
<title>Node80&#45;&gt;Node78</title>
<path fill="none" stroke="midnightblue" d="M295.51,-246.23C316.01,-235.22 351.4,-216.21 375.29,-203.38"/>
<polygon fill="midnightblue" stroke="midnightblue" points="376.98,-206.44 384.13,-198.63 373.67,-200.28 376.98,-206.44"/>
</g>
<!-- Node80&#45;&gt;Node79 -->
<g id="edge45" class="edge">
<title>Node80&#45;&gt;Node79</title>
<path fill="none" stroke="midnightblue" d="M245.84,-246.5C207.98,-236.1 149.83,-217.57 137.19,-199 132.19,-191.65 131.13,-185.5 137.19,-179 174.96,-138.51 537.15,-133.69 702.09,-133.62"/>
<polygon fill="midnightblue" stroke="midnightblue" points="702.18,-137.12 712.18,-133.62 702.18,-130.12 702.18,-137.12"/>
</g>
<!-- Node80&#45;&gt;Node82 -->
<g id="edge46" class="edge">
<title>Node80&#45;&gt;Node82</title>
<path fill="none" stroke="midnightblue" d="M272.31,-246.23C264.36,-236.1 251.09,-219.19 241.18,-206.56"/>
<polygon fill="midnightblue" stroke="midnightblue" points="243.89,-204.33 234.96,-198.63 238.38,-208.66 243.89,-204.33"/>
</g>
</g>
</svg>
