<?xml version="1.0" encoding="UTF-8" standalone="no"?>
<!DOCTYPE svg PUBLIC "-//W3C//DTD SVG 1.1//EN"
 "http://www.w3.org/Graphics/SVG/1.1/DTD/svg11.dtd">
<!-- Generated by graphviz version 2.43.0 (0)
 -->
<!-- Title: include/emlabcpp/experimental/testing/parameters.h Pages: 1 -->
<svg width="1007pt" height="329pt"
 viewBox="0.00 0.00 1006.50 329.00" xmlns="http://www.w3.org/2000/svg" xmlns:xlink="http://www.w3.org/1999/xlink">
<g id="graph0" class="graph" transform="scale(1 1) rotate(0) translate(4 325)">
<title>include/emlabcpp/experimental/testing/parameters.h</title>
<polygon fill="white" stroke="transparent" points="-4,4 -4,-325 1002.5,-325 1002.5,4 -4,4"/>
<!-- Node1 -->
<g id="node1" class="node">
<title>Node1</title>
<g id="a_node1"><a xlink:title=" ">
<polygon fill="#bfbfbf" stroke="black" points="603.5,-290.5 603.5,-320.5 774.5,-320.5 774.5,-290.5 603.5,-290.5"/>
<text text-anchor="start" x="611.5" y="-308.5" font-family="Helvetica,sans-Serif" font-size="10.00">include/emlabcpp/experimental</text>
<text text-anchor="middle" x="689" y="-297.5" font-family="Helvetica,sans-Serif" font-size="10.00">/testing/parameters.h</text>
</a>
</g>
</g>
<!-- Node2 -->
<g id="node2" class="node">
<title>Node2</title>
<g id="a_node2"><a xlink:href="request__adapter_8h.html" target="_top" xlink:title=" ">
<polygon fill="white" stroke="black" points="523.5,-67.5 523.5,-108.5 660.5,-108.5 660.5,-67.5 523.5,-67.5"/>
<text text-anchor="start" x="531.5" y="-96.5" font-family="Helvetica,sans-Serif" font-size="10.00">emlabcpp/experimental</text>
<text text-anchor="start" x="531.5" y="-85.5" font-family="Helvetica,sans-Serif" font-size="10.00">/contiguous_tree/request</text>
<text text-anchor="middle" x="592" y="-74.5" font-family="Helvetica,sans-Serif" font-size="10.00">_adapter.h</text>
</a>
</g>
</g>
<!-- Node1&#45;&gt;Node2 -->
<g id="edge1" class="edge">
<title>Node1&#45;&gt;Node2</title>
<path fill="none" stroke="midnightblue" d="M676.66,-290.42C658.97,-269.42 626.69,-227.98 610,-187 601.09,-165.14 596.57,-138.73 594.28,-118.84"/>
<polygon fill="midnightblue" stroke="midnightblue" points="597.76,-118.41 593.26,-108.81 590.79,-119.12 597.76,-118.41"/>
</g>
<!-- Node44 -->
<g id="node5" class="node">
<title>Node44</title>
<g id="a_node5"><a xlink:href="function__view_8h.html" target="_top" xlink:title=" ">
<polygon fill="white" stroke="black" points="104.5,-223.5 104.5,-253.5 237.5,-253.5 237.5,-223.5 104.5,-223.5"/>
<text text-anchor="start" x="112.5" y="-241.5" font-family="Helvetica,sans-Serif" font-size="10.00">emlabcpp/experimental</text>
<text text-anchor="middle" x="171" y="-230.5" font-family="Helvetica,sans-Serif" font-size="10.00">/function_view.h</text>
</a>
</g>
</g>
<!-- Node1&#45;&gt;Node44 -->
<g id="edge4" class="edge">
<title>Node1&#45;&gt;Node44</title>
<path fill="none" stroke="midnightblue" d="M603.46,-293.77C504.48,-281.35 342.95,-261.08 247.83,-249.14"/>
<polygon fill="midnightblue" stroke="midnightblue" points="248.06,-245.64 237.7,-247.87 247.19,-252.59 248.06,-245.64"/>
</g>
<!-- Node45 -->
<g id="node7" class="node">
<title>Node45</title>
<g id="a_node7"><a xlink:href="coroutine_8h.html" target="_top" xlink:title=" ">
<polygon fill="white" stroke="black" points="367.5,-223.5 367.5,-253.5 500.5,-253.5 500.5,-223.5 367.5,-223.5"/>
<text text-anchor="start" x="375.5" y="-241.5" font-family="Helvetica,sans-Serif" font-size="10.00">emlabcpp/experimental</text>
<text text-anchor="middle" x="434" y="-230.5" font-family="Helvetica,sans-Serif" font-size="10.00">/testing/coroutine.h</text>
</a>
</g>
</g>
<!-- Node1&#45;&gt;Node45 -->
<g id="edge6" class="edge">
<title>Node1&#45;&gt;Node45</title>
<path fill="none" stroke="midnightblue" d="M633.98,-290.48C594.4,-280.39 540.87,-266.74 499.15,-256.11"/>
<polygon fill="midnightblue" stroke="midnightblue" points="499.91,-252.69 489.36,-253.61 498.18,-259.47 499.91,-252.69"/>
</g>
<!-- Node98 -->
<g id="node14" class="node">
<title>Node98</title>
<g id="a_node14"><a xlink:href="experimental_2testing_2protocol_8h.html" target="_top" xlink:title=" ">
<polygon fill="white" stroke="red" points="717.5,-73 717.5,-103 850.5,-103 850.5,-73 717.5,-73"/>
<text text-anchor="start" x="725.5" y="-91" font-family="Helvetica,sans-Serif" font-size="10.00">emlabcpp/experimental</text>
<text text-anchor="middle" x="784" y="-80" font-family="Helvetica,sans-Serif" font-size="10.00">/testing/protocol.h</text>
</a>
</g>
</g>
<!-- Node1&#45;&gt;Node98 -->
<g id="edge23" class="edge">
<title>Node1&#45;&gt;Node98</title>
<path fill="none" stroke="midnightblue" d="M701.45,-290.46C719.28,-269.52 751.72,-228.14 768,-187 777.47,-163.06 781.34,-133.7 782.92,-113.39"/>
<polygon fill="midnightblue" stroke="midnightblue" points="786.43,-113.34 783.58,-103.13 779.44,-112.89 786.43,-113.34"/>
</g>
<!-- Node76 -->
<g id="node15" class="node">
<title>Node76</title>
<g id="a_node15"><a xlink:href="protocol_2handler_8h.html" target="_top" xlink:title=" ">
<polygon fill="white" stroke="red" points="843.5,-6 843.5,-25 998.5,-25 998.5,-6 843.5,-6"/>
<text text-anchor="middle" x="921" y="-13" font-family="Helvetica,sans-Serif" font-size="10.00">emlabcpp/protocol/handler.h</text>
</a>
</g>
</g>
<!-- Node1&#45;&gt;Node76 -->
<g id="edge24" class="edge">
<title>Node1&#45;&gt;Node76</title>
<path fill="none" stroke="midnightblue" d="M721.89,-290.46C741,-281.49 764.97,-268.78 784,-254 815.8,-229.3 822.97,-220.71 845,-187 878.47,-135.8 903.9,-67.41 914.95,-35.02"/>
<polygon fill="midnightblue" stroke="midnightblue" points="918.4,-35.74 918.25,-25.15 911.76,-33.52 918.4,-35.74"/>
</g>
<!-- Node70 -->
<g id="node16" class="node">
<title>Node70</title>
<g id="a_node16"><a xlink:href="static__function_8h.html" target="_top" xlink:title=" ">
<polygon fill="white" stroke="red" points="676.5,-6 676.5,-25 825.5,-25 825.5,-6 676.5,-6"/>
<text text-anchor="middle" x="751" y="-13" font-family="Helvetica,sans-Serif" font-size="10.00">emlabcpp/static_function.h</text>
</a>
</g>
</g>
<!-- Node1&#45;&gt;Node70 -->
<g id="edge25" class="edge">
<title>Node1&#45;&gt;Node70</title>
<path fill="none" stroke="midnightblue" d="M709.12,-290.5C748.12,-261.88 832.59,-192.31 860,-109 865.83,-91.27 870.05,-82.73 860,-67 847.63,-47.64 825.74,-35.59 804.79,-28.15"/>
<polygon fill="midnightblue" stroke="midnightblue" points="805.87,-24.82 795.28,-25.04 803.7,-31.47 805.87,-24.82"/>
</g>
<!-- Node3 -->
<g id="node3" class="node">
<title>Node3</title>
<g id="a_node3"><a xlink:href="experimental_2contiguous__tree_2base_8h.html" target="_top" xlink:title=" ">
<polygon fill="white" stroke="red" points="525.5,-0.5 525.5,-30.5 658.5,-30.5 658.5,-0.5 525.5,-0.5"/>
<text text-anchor="start" x="533.5" y="-18.5" font-family="Helvetica,sans-Serif" font-size="10.00">emlabcpp/experimental</text>
<text text-anchor="middle" x="592" y="-7.5" font-family="Helvetica,sans-Serif" font-size="10.00">/contiguous_tree/base.h</text>
</a>
</g>
</g>
<!-- Node2&#45;&gt;Node3 -->
<g id="edge2" class="edge">
<title>Node2&#45;&gt;Node3</title>
<path fill="none" stroke="midnightblue" d="M592,-67.36C592,-59.23 592,-49.7 592,-41.11"/>
<polygon fill="midnightblue" stroke="midnightblue" points="595.5,-40.89 592,-30.89 588.5,-40.89 595.5,-40.89"/>
</g>
<!-- Node42 -->
<g id="node4" class="node">
<title>Node42</title>
<g id="a_node4"><a xlink:href="logging_8h.html" target="_top" xlink:title=" ">
<polygon fill="white" stroke="red" points="371.5,-0.5 371.5,-30.5 504.5,-30.5 504.5,-0.5 371.5,-0.5"/>
<text text-anchor="start" x="379.5" y="-18.5" font-family="Helvetica,sans-Serif" font-size="10.00">emlabcpp/experimental</text>
<text text-anchor="middle" x="438" y="-7.5" font-family="Helvetica,sans-Serif" font-size="10.00">/logging.h</text>
</a>
</g>
</g>
<!-- Node2&#45;&gt;Node42 -->
<g id="edge3" class="edge">
<title>Node2&#45;&gt;Node42</title>
<path fill="none" stroke="midnightblue" d="M549.1,-67.36C526.93,-57.21 500.03,-44.9 478.25,-34.93"/>
<polygon fill="midnightblue" stroke="midnightblue" points="479.5,-31.65 468.95,-30.67 476.59,-38.01 479.5,-31.65"/>
</g>
<!-- Node6 -->
<g id="node6" class="node">
<title>Node6</title>
<g id="a_node6"><a xlink:href="concepts_8h.html" target="_top" xlink:title=" ">
<polygon fill="white" stroke="red" points="0,-156.5 0,-175.5 120,-175.5 120,-156.5 0,-156.5"/>
<text text-anchor="middle" x="60" y="-163.5" font-family="Helvetica,sans-Serif" font-size="10.00">emlabcpp/concepts.h</text>
</a>
</g>
</g>
<!-- Node44&#45;&gt;Node6 -->
<g id="edge5" class="edge">
<title>Node44&#45;&gt;Node6</title>
<path fill="none" stroke="midnightblue" d="M148.8,-223.4C129.36,-211.05 101.26,-193.21 81.91,-180.91"/>
<polygon fill="midnightblue" stroke="midnightblue" points="83.75,-177.94 73.44,-175.53 80,-183.85 83.75,-177.94"/>
</g>
<!-- Node46 -->
<g id="node8" class="node">
<title>Node46</title>
<g id="a_node8"><a xlink:href="memory__promise_8h.html" target="_top" xlink:title=" ">
<polygon fill="white" stroke="red" points="366.5,-73 366.5,-103 505.5,-103 505.5,-73 366.5,-73"/>
<text text-anchor="start" x="374.5" y="-91" font-family="Helvetica,sans-Serif" font-size="10.00">emlabcpp/experimental</text>
<text text-anchor="middle" x="436" y="-80" font-family="Helvetica,sans-Serif" font-size="10.00">/coro/memory_promise.h</text>
</a>
</g>
</g>
<!-- Node45&#45;&gt;Node46 -->
<g id="edge7" class="edge">
<title>Node45&#45;&gt;Node46</title>
<path fill="none" stroke="midnightblue" d="M469.14,-223.45C484.61,-215.29 501.24,-203.34 510,-187 518.82,-170.55 518.31,-161.71 510,-145 502.47,-129.85 488.66,-117.71 475,-108.66"/>
<polygon fill="midnightblue" stroke="midnightblue" points="476.46,-105.44 466.11,-103.15 472.77,-111.39 476.46,-105.44"/>
</g>
<!-- Node51 -->
<g id="node9" class="node">
<title>Node51</title>
<g id="a_node9"><a xlink:href="owning__coroutine__handle_8h.html" target="_top" xlink:title=" ">
<polygon fill="white" stroke="red" points="176.5,-67.5 176.5,-108.5 309.5,-108.5 309.5,-67.5 176.5,-67.5"/>
<text text-anchor="start" x="184.5" y="-96.5" font-family="Helvetica,sans-Serif" font-size="10.00">emlabcpp/experimental</text>
<text text-anchor="start" x="184.5" y="-85.5" font-family="Helvetica,sans-Serif" font-size="10.00">/coro/owning_coroutine</text>
<text text-anchor="middle" x="243" y="-74.5" font-family="Helvetica,sans-Serif" font-size="10.00">_handle.h</text>
</a>
</g>
</g>
<!-- Node45&#45;&gt;Node51 -->
<g id="edge9" class="edge">
<title>Node45&#45;&gt;Node51</title>
<path fill="none" stroke="midnightblue" d="M367.31,-231.78C307.71,-225.12 226.83,-211.72 207,-187 190.55,-166.49 204.29,-137.77 219.3,-116.72"/>
<polygon fill="midnightblue" stroke="midnightblue" points="222.27,-118.59 225.49,-108.5 216.68,-114.38 222.27,-118.59"/>
</g>
<!-- Node52 -->
<g id="node10" class="node">
<title>Node52</title>
<g id="a_node10"><a xlink:title=" ">
<polygon fill="white" stroke="#bfbfbf" points="212,-6 212,-25 274,-25 274,-6 212,-6"/>
<text text-anchor="middle" x="243" y="-13" font-family="Helvetica,sans-Serif" font-size="10.00">coroutine</text>
</a>
</g>
</g>
<!-- Node45&#45;&gt;Node52 -->
<g id="edge22" class="edge">
<title>Node45&#45;&gt;Node52</title>
<path fill="none" stroke="midnightblue" d="M367.47,-230.58C306.27,-222.97 221.3,-208.84 196,-187 154.46,-151.15 141.07,-115.36 167,-67 176.2,-49.84 194.08,-37.52 210.18,-29.35"/>
<polygon fill="midnightblue" stroke="midnightblue" points="211.83,-32.44 219.38,-25.01 208.85,-26.11 211.83,-32.44"/>
</g>
<!-- Node53 -->
<g id="node11" class="node">
<title>Node53</title>
<g id="a_node11"><a xlink:href="recursive_8h.html" target="_top" xlink:title=" ">
<polygon fill="white" stroke="black" points="367.5,-151 367.5,-181 500.5,-181 500.5,-151 367.5,-151"/>
<text text-anchor="start" x="375.5" y="-169" font-family="Helvetica,sans-Serif" font-size="10.00">emlabcpp/experimental</text>
<text text-anchor="middle" x="434" y="-158" font-family="Helvetica,sans-Serif" font-size="10.00">/coro/recursive.h</text>
</a>
</g>
</g>
<!-- Node45&#45;&gt;Node53 -->
<g id="edge11" class="edge">
<title>Node45&#45;&gt;Node53</title>
<path fill="none" stroke="midnightblue" d="M434,-223.23C434,-214.16 434,-202.16 434,-191.58"/>
<polygon fill="midnightblue" stroke="midnightblue" points="437.5,-191.25 434,-181.25 430.5,-191.25 437.5,-191.25"/>
</g>
<!-- Node54 -->
<g id="node12" class="node">
<title>Node54</title>
<g id="a_node12"><a xlink:href="experimental_2testing_2convert_8h.html" target="_top" xlink:title=" ">
<polygon fill="white" stroke="red" points="216.5,-151 216.5,-181 349.5,-181 349.5,-151 216.5,-151"/>
<text text-anchor="start" x="224.5" y="-169" font-family="Helvetica,sans-Serif" font-size="10.00">emlabcpp/experimental</text>
<text text-anchor="middle" x="283" y="-158" font-family="Helvetica,sans-Serif" font-size="10.00">/testing/convert.h</text>
</a>
</g>
</g>
<!-- Node45&#45;&gt;Node54 -->
<g id="edge15" class="edge">
<title>Node45&#45;&gt;Node54</title>
<path fill="none" stroke="midnightblue" d="M403.81,-223.4C380.45,-212.5 347.92,-197.31 322.5,-185.44"/>
<polygon fill="midnightblue" stroke="midnightblue" points="323.68,-182.13 313.14,-181.07 320.72,-188.47 323.68,-182.13"/>
</g>
<!-- Node72 -->
<g id="node13" class="node">
<title>Node72</title>
<g id="a_node13"><a xlink:href="reactor__interface__adapter_8h.html" target="_top" xlink:title=" ">
<polygon fill="white" stroke="red" points="619,-145.5 619,-186.5 759,-186.5 759,-145.5 619,-145.5"/>
<text text-anchor="start" x="627" y="-174.5" font-family="Helvetica,sans-Serif" font-size="10.00">emlabcpp/experimental</text>
<text text-anchor="start" x="627" y="-163.5" font-family="Helvetica,sans-Serif" font-size="10.00">/testing/reactor_interface</text>
<text text-anchor="middle" x="689" y="-152.5" font-family="Helvetica,sans-Serif" font-size="10.00">_adapter.h</text>
</a>
</g>
</g>
<!-- Node45&#45;&gt;Node72 -->
<g id="edge16" class="edge">
<title>Node45&#45;&gt;Node72</title>
<path fill="none" stroke="midnightblue" d="M484.68,-223.49C520.11,-213.69 568.15,-200.41 608.74,-189.19"/>
<polygon fill="midnightblue" stroke="midnightblue" points="609.91,-192.5 618.62,-186.46 608.05,-185.75 609.91,-192.5"/>
</g>
<!-- Node46&#45;&gt;Node42 -->
<g id="edge8" class="edge">
<title>Node46&#45;&gt;Node42</title>
<path fill="none" stroke="midnightblue" d="M436.4,-72.73C436.66,-63.56 437.01,-51.41 437.31,-40.74"/>
<polygon fill="midnightblue" stroke="midnightblue" points="440.81,-40.84 437.6,-30.75 433.81,-40.64 440.81,-40.84"/>
</g>
<!-- Node51&#45;&gt;Node52 -->
<g id="edge10" class="edge">
<title>Node51&#45;&gt;Node52</title>
<path fill="none" stroke="midnightblue" d="M243,-67.36C243,-57.3 243,-45.1 243,-35.18"/>
<polygon fill="midnightblue" stroke="midnightblue" points="246.5,-35.17 243,-25.17 239.5,-35.17 246.5,-35.17"/>
</g>
<!-- Node53&#45;&gt;Node46 -->
<g id="edge12" class="edge">
<title>Node53&#45;&gt;Node46</title>
<path fill="none" stroke="midnightblue" d="M434.38,-150.7C434.65,-140.2 435.04,-125.66 435.36,-113.33"/>
<polygon fill="midnightblue" stroke="midnightblue" points="438.86,-113.32 435.63,-103.23 431.86,-113.14 438.86,-113.32"/>
</g>
<!-- Node53&#45;&gt;Node51 -->
<g id="edge13" class="edge">
<title>Node53&#45;&gt;Node51</title>
<path fill="none" stroke="midnightblue" d="M398.52,-150.88C371.44,-140.11 333.53,-125.02 301.92,-112.44"/>
<polygon fill="midnightblue" stroke="midnightblue" points="302.91,-109.07 292.33,-108.63 300.33,-115.58 302.91,-109.07"/>
</g>
<!-- Node53&#45;&gt;Node52 -->
<g id="edge14" class="edge">
<title>Node53&#45;&gt;Node52</title>
<path fill="none" stroke="midnightblue" d="M412.93,-150.96C397.24,-140.15 375.58,-124.5 358,-109 338.66,-91.96 337.7,-83.63 318,-67 301.81,-53.33 281.84,-40.04 266.58,-30.52"/>
<polygon fill="midnightblue" stroke="midnightblue" points="268.12,-27.36 257.76,-25.12 264.46,-33.33 268.12,-27.36"/>
</g>
<!-- Node72&#45;&gt;Node98 -->
<g id="edge17" class="edge">
<title>Node72&#45;&gt;Node98</title>
<path fill="none" stroke="midnightblue" d="M713.46,-145.43C727.12,-134.5 744.13,-120.89 758.03,-109.78"/>
<polygon fill="midnightblue" stroke="midnightblue" points="760.6,-112.21 766.22,-103.23 756.22,-106.74 760.6,-112.21"/>
</g>
<!-- Node72&#45;&gt;Node70 -->
<g id="edge21" class="edge">
<title>Node72&#45;&gt;Node70</title>
<path fill="none" stroke="midnightblue" d="M690.19,-145.32C692.05,-124.87 696.83,-92.36 709,-67 715.18,-54.12 725.37,-41.75 734.17,-32.48"/>
<polygon fill="midnightblue" stroke="midnightblue" points="736.84,-34.75 741.4,-25.19 731.87,-29.82 736.84,-34.75"/>
</g>
<!-- Node98&#45;&gt;Node3 -->
<g id="edge18" class="edge">
<title>Node98&#45;&gt;Node3</title>
<path fill="none" stroke="midnightblue" d="M745.61,-72.9C715.26,-61.76 672.72,-46.14 640.11,-34.16"/>
<polygon fill="midnightblue" stroke="midnightblue" points="640.92,-30.73 630.33,-30.57 638.51,-37.31 640.92,-30.73"/>
</g>
<!-- Node98&#45;&gt;Node76 -->
<g id="edge19" class="edge">
<title>Node98&#45;&gt;Node76</title>
<path fill="none" stroke="midnightblue" d="M811.39,-72.9C835.83,-60.33 871.33,-42.06 895.25,-29.75"/>
<polygon fill="midnightblue" stroke="midnightblue" points="897.13,-32.72 904.42,-25.03 893.92,-26.5 897.13,-32.72"/>
</g>
<!-- Node98&#45;&gt;Node70 -->
<g id="edge20" class="edge">
<title>Node98&#45;&gt;Node70</title>
<path fill="none" stroke="midnightblue" d="M777.32,-72.73C772.19,-61.78 765.08,-46.57 759.54,-34.74"/>
<polygon fill="midnightblue" stroke="midnightblue" points="762.57,-32.97 755.16,-25.39 756.23,-35.93 762.57,-32.97"/>
</g>
</g>
</svg>
