<?xml version="1.0" encoding="UTF-8" standalone="no"?>
<!DOCTYPE svg PUBLIC "-//W3C//DTD SVG 1.1//EN"
 "http://www.w3.org/Graphics/SVG/1.1/DTD/svg11.dtd">
<!-- Generated by graphviz version 2.43.0 (0)
 -->
<!-- Title: include/emlabcpp/experimental/testing/parameters.h Pages: 1 -->
<svg width="1971pt" height="430pt"
 viewBox="0.00 0.00 1971.00 430.00" xmlns="http://www.w3.org/2000/svg" xmlns:xlink="http://www.w3.org/1999/xlink">
<g id="graph0" class="graph" transform="scale(1 1) rotate(0) translate(4 426)">
<title>include/emlabcpp/experimental/testing/parameters.h</title>
<polygon fill="white" stroke="transparent" points="-4,4 -4,-426 1967,-426 1967,4 -4,4"/>
<!-- Node1 -->
<g id="node1" class="node">
<title>Node1</title>
<g id="a_node1"><a xlink:title=" ">
<polygon fill="#bfbfbf" stroke="black" points="370,-391.5 370,-421.5 541,-421.5 541,-391.5 370,-391.5"/>
<text text-anchor="start" x="378" y="-409.5" font-family="Helvetica,sans-Serif" font-size="10.00">include/emlabcpp/experimental</text>
<text text-anchor="middle" x="455.5" y="-398.5" font-family="Helvetica,sans-Serif" font-size="10.00">/testing/parameters.h</text>
</a>
</g>
</g>
<!-- Node2 -->
<g id="node2" class="node">
<title>Node2</title>
<g id="a_node2"><a xlink:href="request__adapter_8h.html" target="_top" xlink:title=" ">
<polygon fill="white" stroke="black" points="387,-313.5 387,-354.5 524,-354.5 524,-313.5 387,-313.5"/>
<text text-anchor="start" x="395" y="-342.5" font-family="Helvetica,sans-Serif" font-size="10.00">emlabcpp/experimental</text>
<text text-anchor="start" x="395" y="-331.5" font-family="Helvetica,sans-Serif" font-size="10.00">/contiguous_tree/request</text>
<text text-anchor="middle" x="455.5" y="-320.5" font-family="Helvetica,sans-Serif" font-size="10.00">_adapter.h</text>
</a>
</g>
</g>
<!-- Node1&#45;&gt;Node2 -->
<g id="edge1" class="edge">
<title>Node1&#45;&gt;Node2</title>
<path fill="none" stroke="midnightblue" d="M455.5,-391.23C455.5,-383.57 455.5,-373.84 455.5,-364.63"/>
<polygon fill="midnightblue" stroke="midnightblue" points="459,-364.59 455.5,-354.59 452,-364.59 459,-364.59"/>
</g>
<!-- Node44 -->
<g id="node4" class="node">
<title>Node44</title>
<g id="a_node4"><a xlink:href="function__view_8h.html" target="_top" xlink:title=" ">
<polygon fill="white" stroke="black" points="0,-319 0,-349 133,-349 133,-319 0,-319"/>
<text text-anchor="start" x="8" y="-337" font-family="Helvetica,sans-Serif" font-size="10.00">emlabcpp/experimental</text>
<text text-anchor="middle" x="66.5" y="-326" font-family="Helvetica,sans-Serif" font-size="10.00">/function_view.h</text>
</a>
</g>
</g>
<!-- Node1&#45;&gt;Node44 -->
<g id="edge3" class="edge">
<title>Node1&#45;&gt;Node44</title>
<path fill="none" stroke="midnightblue" d="M369.77,-394.1C306.41,-385.1 218.18,-371.35 141.5,-355 136.52,-353.94 131.38,-352.75 126.23,-351.51"/>
<polygon fill="midnightblue" stroke="midnightblue" points="126.91,-348.07 116.36,-349.05 125.21,-354.86 126.91,-348.07"/>
</g>
<!-- Node45 -->
<g id="node7" class="node">
<title>Node45</title>
<g id="a_node7"><a xlink:href="experimental_2testing_2convert_8h.html" target="_top" xlink:title=" ">
<polygon fill="white" stroke="black" points="151,-319 151,-349 284,-349 284,-319 151,-319"/>
<text text-anchor="start" x="159" y="-337" font-family="Helvetica,sans-Serif" font-size="10.00">emlabcpp/experimental</text>
<text text-anchor="middle" x="217.5" y="-326" font-family="Helvetica,sans-Serif" font-size="10.00">/testing/convert.h</text>
</a>
</g>
</g>
<!-- Node1&#45;&gt;Node45 -->
<g id="edge6" class="edge">
<title>Node1&#45;&gt;Node45</title>
<path fill="none" stroke="midnightblue" d="M408.19,-391.49C369.87,-380.14 315.73,-364.1 274.93,-352.01"/>
<polygon fill="midnightblue" stroke="midnightblue" points="275.71,-348.59 265.12,-349.11 273.72,-355.3 275.71,-348.59"/>
</g>
<!-- Node67 -->
<g id="node13" class="node">
<title>Node67</title>
<g id="a_node13"><a xlink:href="static__function_8h.html" target="_top" xlink:title=" ">
<polygon fill="white" stroke="red" points="199,-179.5 199,-198.5 348,-198.5 348,-179.5 199,-179.5"/>
<text text-anchor="middle" x="273.5" y="-186.5" font-family="Helvetica,sans-Serif" font-size="10.00">emlabcpp/static_function.h</text>
</a>
</g>
</g>
<!-- Node1&#45;&gt;Node67 -->
<g id="edge52" class="edge">
<title>Node1&#45;&gt;Node67</title>
<path fill="none" stroke="midnightblue" d="M430.66,-391.37C398.72,-373.2 341.51,-340.69 292.5,-313 264.09,-296.95 244.98,-305.17 228.5,-277 219.08,-260.89 221.36,-252.25 228.5,-235 233.42,-223.12 243.17,-212.74 252.33,-204.96"/>
<polygon fill="midnightblue" stroke="midnightblue" points="254.75,-207.51 260.44,-198.56 250.42,-202.01 254.75,-207.51"/>
</g>
<!-- Node69 -->
<g id="node14" class="node">
<title>Node69</title>
<g id="a_node14"><a xlink:href="coroutine_8h.html" target="_top" xlink:title=" ">
<polygon fill="white" stroke="black" points="1637,-319 1637,-349 1770,-349 1770,-319 1637,-319"/>
<text text-anchor="start" x="1645" y="-337" font-family="Helvetica,sans-Serif" font-size="10.00">emlabcpp/experimental</text>
<text text-anchor="middle" x="1703.5" y="-326" font-family="Helvetica,sans-Serif" font-size="10.00">/testing/coroutine.h</text>
</a>
</g>
</g>
<!-- Node1&#45;&gt;Node69 -->
<g id="edge15" class="edge">
<title>Node1&#45;&gt;Node69</title>
<path fill="none" stroke="midnightblue" d="M541.28,-402.24C715.91,-395.38 1125.25,-378.15 1468.5,-355 1521.39,-351.43 1580.88,-346.36 1626.78,-342.21"/>
<polygon fill="midnightblue" stroke="midnightblue" points="1627.3,-345.68 1636.95,-341.29 1626.67,-338.71 1627.3,-345.68"/>
</g>
<!-- Node74 -->
<g id="node19" class="node">
<title>Node74</title>
<g id="a_node19"><a xlink:href="experimental_2testing_2protocol_8h.html" target="_top" xlink:title=" ">
<polygon fill="white" stroke="black" points="740,-319 740,-349 873,-349 873,-319 740,-319"/>
<text text-anchor="start" x="748" y="-337" font-family="Helvetica,sans-Serif" font-size="10.00">emlabcpp/experimental</text>
<text text-anchor="middle" x="806.5" y="-326" font-family="Helvetica,sans-Serif" font-size="10.00">/testing/protocol.h</text>
</a>
</g>
</g>
<!-- Node1&#45;&gt;Node74 -->
<g id="edge21" class="edge">
<title>Node1&#45;&gt;Node74</title>
<path fill="none" stroke="midnightblue" d="M525.27,-391.49C584.35,-379.62 668.93,-362.63 729.89,-350.39"/>
<polygon fill="midnightblue" stroke="midnightblue" points="730.73,-353.79 739.84,-348.39 729.35,-346.93 730.73,-353.79"/>
</g>
<!-- Node79 -->
<g id="node22" class="node">
<title>Node79</title>
<g id="a_node22"><a xlink:href="protocol_2handler_8h.html" target="_top" xlink:title=" ">
<polygon fill="white" stroke="red" points="1397,-179.5 1397,-198.5 1552,-198.5 1552,-179.5 1397,-179.5"/>
<text text-anchor="middle" x="1474.5" y="-186.5" font-family="Helvetica,sans-Serif" font-size="10.00">emlabcpp/protocol/handler.h</text>
</a>
</g>
</g>
<!-- Node1&#45;&gt;Node79 -->
<g id="edge51" class="edge">
<title>Node1&#45;&gt;Node79</title>
<path fill="none" stroke="midnightblue" d="M541.3,-404.42C752.38,-400.19 1290,-379.37 1431.5,-277 1454.19,-260.58 1465.54,-228.81 1470.72,-208.54"/>
<polygon fill="midnightblue" stroke="midnightblue" points="1474.16,-209.16 1472.99,-198.63 1467.34,-207.6 1474.16,-209.16"/>
</g>
<!-- Node3 -->
<g id="node3" class="node">
<title>Node3</title>
<g id="a_node3"><a xlink:href="experimental_2contiguous__tree_2base_8h.html" target="_top" xlink:title=" ">
<polygon fill="white" stroke="red" points="389,-241 389,-271 522,-271 522,-241 389,-241"/>
<text text-anchor="start" x="397" y="-259" font-family="Helvetica,sans-Serif" font-size="10.00">emlabcpp/experimental</text>
<text text-anchor="middle" x="455.5" y="-248" font-family="Helvetica,sans-Serif" font-size="10.00">/contiguous_tree/base.h</text>
</a>
</g>
</g>
<!-- Node2&#45;&gt;Node3 -->
<g id="edge2" class="edge">
<title>Node2&#45;&gt;Node3</title>
<path fill="none" stroke="midnightblue" d="M455.5,-313.43C455.5,-303.64 455.5,-291.69 455.5,-281.31"/>
<polygon fill="midnightblue" stroke="midnightblue" points="459,-281.23 455.5,-271.23 452,-281.23 459,-281.23"/>
</g>
<!-- Node6 -->
<g id="node5" class="node">
<title>Node6</title>
<g id="a_node5"><a xlink:href="concepts_8h.html" target="_top" xlink:title=" ">
<polygon fill="white" stroke="red" points="524.5,-123.5 524.5,-142.5 644.5,-142.5 644.5,-123.5 524.5,-123.5"/>
<text text-anchor="middle" x="584.5" y="-130.5" font-family="Helvetica,sans-Serif" font-size="10.00">emlabcpp/concepts.h</text>
</a>
</g>
</g>
<!-- Node44&#45;&gt;Node6 -->
<g id="edge4" class="edge">
<title>Node44&#45;&gt;Node6</title>
<path fill="none" stroke="midnightblue" d="M72.99,-318.87C88.23,-287.48 129.61,-212.12 189.5,-179 243.68,-149.04 415.91,-138.97 514.12,-135.63"/>
<polygon fill="midnightblue" stroke="midnightblue" points="514.38,-139.12 524.26,-135.3 514.15,-132.13 514.38,-139.12"/>
</g>
<!-- Node16 -->
<g id="node6" class="node">
<title>Node16</title>
<g id="a_node6"><a xlink:title=" ">
<polygon fill="white" stroke="#bfbfbf" points="925,-62 925,-81 976,-81 976,-62 925,-62"/>
<text text-anchor="middle" x="950.5" y="-69" font-family="Helvetica,sans-Serif" font-size="10.00">variant</text>
</a>
</g>
</g>
<!-- Node6&#45;&gt;Node16 -->
<g id="edge5" class="edge">
<title>Node6&#45;&gt;Node16</title>
<path fill="none" stroke="midnightblue" d="M636.94,-123.48C712.4,-111.21 849.65,-88.9 914.6,-78.34"/>
<polygon fill="midnightblue" stroke="midnightblue" points="915.44,-81.75 924.75,-76.69 914.32,-74.84 915.44,-81.75"/>
</g>
<!-- Node46 -->
<g id="node8" class="node">
<title>Node46</title>
<g id="a_node8"><a xlink:href="string__buffer_8h.html" target="_top" xlink:title=" ">
<polygon fill="white" stroke="red" points="275,-56.5 275,-86.5 408,-86.5 408,-56.5 275,-56.5"/>
<text text-anchor="start" x="283" y="-74.5" font-family="Helvetica,sans-Serif" font-size="10.00">emlabcpp/experimental</text>
<text text-anchor="middle" x="341.5" y="-63.5" font-family="Helvetica,sans-Serif" font-size="10.00">/string_buffer.h</text>
</a>
</g>
</g>
<!-- Node45&#45;&gt;Node46 -->
<g id="edge7" class="edge">
<title>Node45&#45;&gt;Node46</title>
<path fill="none" stroke="midnightblue" d="M209.32,-318.94C194.09,-290.75 165.04,-226.01 189.5,-179 211.48,-136.76 258.74,-107.79 294.77,-90.86"/>
<polygon fill="midnightblue" stroke="midnightblue" points="296.48,-93.92 304.13,-86.6 293.58,-87.55 296.48,-93.92"/>
</g>
<!-- Node50 -->
<g id="node10" class="node">
<title>Node50</title>
<g id="a_node10"><a xlink:href="experimental_2testing_2base_8h.html" target="_top" xlink:title=" ">
<polygon fill="white" stroke="red" points="238,-241 238,-271 371,-271 371,-241 238,-241"/>
<text text-anchor="start" x="246" y="-259" font-family="Helvetica,sans-Serif" font-size="10.00">emlabcpp/experimental</text>
<text text-anchor="middle" x="304.5" y="-248" font-family="Helvetica,sans-Serif" font-size="10.00">/testing/base.h</text>
</a>
</g>
</g>
<!-- Node45&#45;&gt;Node50 -->
<g id="edge9" class="edge">
<title>Node45&#45;&gt;Node50</title>
<path fill="none" stroke="midnightblue" d="M233.86,-318.7C246.99,-307.24 265.6,-290.98 280.42,-278.03"/>
<polygon fill="midnightblue" stroke="midnightblue" points="282.98,-280.45 288.21,-271.23 278.38,-275.17 282.98,-280.45"/>
</g>
<!-- Node8 -->
<g id="node9" class="node">
<title>Node8</title>
<g id="a_node9"><a xlink:title=" ">
<polygon fill="white" stroke="#bfbfbf" points="415.5,-0.5 415.5,-19.5 457.5,-19.5 457.5,-0.5 415.5,-0.5"/>
<text text-anchor="middle" x="436.5" y="-7.5" font-family="Helvetica,sans-Serif" font-size="10.00">array</text>
</a>
</g>
</g>
<!-- Node46&#45;&gt;Node8 -->
<g id="edge8" class="edge">
<title>Node46&#45;&gt;Node8</title>
<path fill="none" stroke="midnightblue" d="M364.01,-56.4C379.1,-46.95 398.89,-34.56 413.97,-25.11"/>
<polygon fill="midnightblue" stroke="midnightblue" points="416.06,-27.93 422.68,-19.66 412.34,-22 416.06,-27.93"/>
</g>
<!-- Node50&#45;&gt;Node16 -->
<g id="edge14" class="edge">
<title>Node50&#45;&gt;Node16</title>
<path fill="none" stroke="midnightblue" d="M321.19,-240.84C355.18,-212.88 435.99,-150.88 515.5,-123 589.17,-97.16 824.59,-80.28 914.83,-74.61"/>
<polygon fill="midnightblue" stroke="midnightblue" points="915.08,-78.1 924.85,-73.99 914.65,-71.12 915.08,-78.1"/>
</g>
<!-- Node50&#45;&gt;Node46 -->
<g id="edge12" class="edge">
<title>Node50&#45;&gt;Node46</title>
<path fill="none" stroke="midnightblue" d="M323.46,-240.92C335.43,-230.77 349.86,-215.92 356.5,-199 369.85,-165.02 359.74,-122.26 350.88,-96.17"/>
<polygon fill="midnightblue" stroke="midnightblue" points="354.16,-94.95 347.48,-86.73 347.57,-97.32 354.16,-94.95"/>
</g>
<!-- Node51 -->
<g id="node11" class="node">
<title>Node51</title>
<g id="a_node11"><a xlink:href="algorithm_8h.html" target="_top" xlink:title=" ">
<polygon fill="white" stroke="red" points="502.5,-179.5 502.5,-198.5 626.5,-198.5 626.5,-179.5 502.5,-179.5"/>
<text text-anchor="middle" x="564.5" y="-186.5" font-family="Helvetica,sans-Serif" font-size="10.00">emlabcpp/algorithm.h</text>
</a>
</g>
</g>
<!-- Node50&#45;&gt;Node51 -->
<g id="edge10" class="edge">
<title>Node50&#45;&gt;Node51</title>
<path fill="none" stroke="midnightblue" d="M356.51,-240.97C364.21,-238.94 372.06,-236.9 379.5,-235 426.64,-222.98 480.72,-209.91 518.18,-200.97"/>
<polygon fill="midnightblue" stroke="midnightblue" points="519.37,-204.28 528.28,-198.56 517.74,-197.47 519.37,-204.28"/>
</g>
<!-- Node50&#45;&gt;Node67 -->
<g id="edge13" class="edge">
<title>Node50&#45;&gt;Node67</title>
<path fill="none" stroke="midnightblue" d="M297.77,-240.9C293.18,-231.26 287.05,-218.41 282.1,-208.04"/>
<polygon fill="midnightblue" stroke="midnightblue" points="285.11,-206.21 277.65,-198.69 278.79,-209.23 285.11,-206.21"/>
</g>
<!-- Node30 -->
<g id="node12" class="node">
<title>Node30</title>
<g id="a_node12"><a xlink:href="view_8h.html" target="_top" xlink:title=" ">
<polygon fill="white" stroke="red" points="663,-123.5 663,-142.5 762,-142.5 762,-123.5 663,-123.5"/>
<text text-anchor="middle" x="712.5" y="-130.5" font-family="Helvetica,sans-Serif" font-size="10.00">emlabcpp/view.h</text>
</a>
</g>
</g>
<!-- Node51&#45;&gt;Node30 -->
<g id="edge11" class="edge">
<title>Node51&#45;&gt;Node30</title>
<path fill="none" stroke="midnightblue" d="M587.95,-179.44C612.63,-170.44 651.69,-156.19 679.48,-146.05"/>
<polygon fill="midnightblue" stroke="midnightblue" points="680.96,-149.23 689.16,-142.52 678.56,-142.66 680.96,-149.23"/>
</g>
<!-- Node70 -->
<g id="node15" class="node">
<title>Node70</title>
<g id="a_node15"><a xlink:href="data__promise_8h.html" target="_top" xlink:title=" ">
<polygon fill="white" stroke="red" points="1483,-241 1483,-271 1616,-271 1616,-241 1483,-241"/>
<text text-anchor="start" x="1491" y="-259" font-family="Helvetica,sans-Serif" font-size="10.00">emlabcpp/experimental</text>
<text text-anchor="middle" x="1549.5" y="-248" font-family="Helvetica,sans-Serif" font-size="10.00">/coro/data_promise.h</text>
</a>
</g>
</g>
<!-- Node69&#45;&gt;Node70 -->
<g id="edge16" class="edge">
<title>Node69&#45;&gt;Node70</title>
<path fill="none" stroke="midnightblue" d="M1674.89,-318.88C1650.15,-306.67 1614.2,-288.93 1587.12,-275.57"/>
<polygon fill="midnightblue" stroke="midnightblue" points="1588.47,-272.33 1577.95,-271.04 1585.37,-278.61 1588.47,-272.33"/>
</g>
<!-- Node71 -->
<g id="node16" class="node">
<title>Node71</title>
<g id="a_node16"><a xlink:href="memory__promise_8h.html" target="_top" xlink:title=" ">
<polygon fill="white" stroke="red" points="1634,-241 1634,-271 1773,-271 1773,-241 1634,-241"/>
<text text-anchor="start" x="1642" y="-259" font-family="Helvetica,sans-Serif" font-size="10.00">emlabcpp/experimental</text>
<text text-anchor="middle" x="1703.5" y="-248" font-family="Helvetica,sans-Serif" font-size="10.00">/coro/memory_promise.h</text>
</a>
</g>
</g>
<!-- Node69&#45;&gt;Node71 -->
<g id="edge17" class="edge">
<title>Node69&#45;&gt;Node71</title>
<path fill="none" stroke="midnightblue" d="M1703.5,-318.7C1703.5,-308.2 1703.5,-293.66 1703.5,-281.33"/>
<polygon fill="midnightblue" stroke="midnightblue" points="1707,-281.23 1703.5,-271.23 1700,-281.23 1707,-281.23"/>
</g>
<!-- Node72 -->
<g id="node17" class="node">
<title>Node72</title>
<g id="a_node17"><a xlink:href="owning__coroutine__handle_8h.html" target="_top" xlink:title=" ">
<polygon fill="white" stroke="red" points="1830,-235.5 1830,-276.5 1963,-276.5 1963,-235.5 1830,-235.5"/>
<text text-anchor="start" x="1838" y="-264.5" font-family="Helvetica,sans-Serif" font-size="10.00">emlabcpp/experimental</text>
<text text-anchor="start" x="1838" y="-253.5" font-family="Helvetica,sans-Serif" font-size="10.00">/coro/owning_coroutine</text>
<text text-anchor="middle" x="1896.5" y="-242.5" font-family="Helvetica,sans-Serif" font-size="10.00">_handle.h</text>
</a>
</g>
</g>
<!-- Node69&#45;&gt;Node72 -->
<g id="edge18" class="edge">
<title>Node69&#45;&gt;Node72</title>
<path fill="none" stroke="midnightblue" d="M1739.35,-318.88C1766.71,-308.11 1805.02,-293.02 1836.97,-280.44"/>
<polygon fill="midnightblue" stroke="midnightblue" points="1838.63,-283.55 1846.66,-276.63 1836.07,-277.04 1838.63,-283.55"/>
</g>
<!-- Node73 -->
<g id="node18" class="node">
<title>Node73</title>
<g id="a_node18"><a xlink:title=" ">
<polygon fill="white" stroke="#bfbfbf" points="1817.5,-179.5 1817.5,-198.5 1879.5,-198.5 1879.5,-179.5 1817.5,-179.5"/>
<text text-anchor="middle" x="1848.5" y="-186.5" font-family="Helvetica,sans-Serif" font-size="10.00">coroutine</text>
</a>
</g>
</g>
<!-- Node69&#45;&gt;Node73 -->
<g id="edge20" class="edge">
<title>Node69&#45;&gt;Node73</title>
<path fill="none" stroke="midnightblue" d="M1726.7,-318.92C1742.97,-308.45 1764.72,-293.22 1781.5,-277 1803.91,-255.33 1825.02,-225.85 1837.36,-207.38"/>
<polygon fill="midnightblue" stroke="midnightblue" points="1840.41,-209.11 1842.96,-198.82 1834.56,-205.27 1840.41,-209.11"/>
</g>
<!-- Node72&#45;&gt;Node73 -->
<g id="edge19" class="edge">
<title>Node72&#45;&gt;Node73</title>
<path fill="none" stroke="midnightblue" d="M1882.1,-235.5C1875.38,-226.39 1867.45,-215.66 1860.99,-206.91"/>
<polygon fill="midnightblue" stroke="midnightblue" points="1863.65,-204.62 1854.89,-198.65 1858.01,-208.78 1863.65,-204.62"/>
</g>
<!-- Node74&#45;&gt;Node3 -->
<g id="edge23" class="edge">
<title>Node74&#45;&gt;Node3</title>
<path fill="none" stroke="midnightblue" d="M739.77,-319.89C685.04,-308.95 605.59,-292.69 536.5,-277 531.51,-275.87 526.35,-274.66 521.17,-273.43"/>
<polygon fill="midnightblue" stroke="midnightblue" points="521.75,-269.98 511.21,-271.05 520.12,-276.78 521.75,-269.98"/>
</g>
<!-- Node74&#45;&gt;Node16 -->
<g id="edge50" class="edge">
<title>Node74&#45;&gt;Node16</title>
<path fill="none" stroke="midnightblue" d="M873.12,-330.69C958.59,-326.25 1100.07,-313.46 1135.5,-277 1183.25,-227.87 1186.24,-175.73 1142.5,-123 1122.73,-99.16 1036.09,-83.91 986.22,-76.93"/>
<polygon fill="midnightblue" stroke="midnightblue" points="986.55,-73.44 976.17,-75.57 985.61,-80.38 986.55,-73.44"/>
</g>
<!-- Node74&#45;&gt;Node8 -->
<g id="edge48" class="edge">
<title>Node74&#45;&gt;Node8</title>
<path fill="none" stroke="midnightblue" d="M739.69,-320.1C702.33,-311.23 655.73,-297.32 617.5,-277 591.57,-263.22 591.17,-250.93 566.5,-235 536.11,-215.37 516.9,-226.59 493.5,-199 450.7,-148.54 440.03,-66.59 437.38,-29.86"/>
<polygon fill="midnightblue" stroke="midnightblue" points="440.86,-29.39 436.77,-19.62 433.87,-29.81 440.86,-29.39"/>
</g>
<!-- Node74&#45;&gt;Node50 -->
<g id="edge27" class="edge">
<title>Node74&#45;&gt;Node50</title>
<path fill="none" stroke="midnightblue" d="M739.86,-326.97C655.47,-318.72 505.83,-302.02 379.5,-277 374.21,-275.95 368.75,-274.74 363.29,-273.45"/>
<polygon fill="midnightblue" stroke="midnightblue" points="364.05,-270.04 353.5,-271.05 362.38,-276.83 364.05,-270.04"/>
</g>
<!-- Node74&#45;&gt;Node51 -->
<g id="edge22" class="edge">
<title>Node74&#45;&gt;Node51</title>
<path fill="none" stroke="midnightblue" d="M768.09,-318.99C742.03,-308.82 707.24,-293.92 678.5,-277 641.76,-255.37 603.15,-223.74 581.62,-205.17"/>
<polygon fill="midnightblue" stroke="midnightblue" points="583.83,-202.46 574,-198.52 579.23,-207.73 583.83,-202.46"/>
</g>
<!-- Node74&#45;&gt;Node30 -->
<g id="edge47" class="edge">
<title>Node74&#45;&gt;Node30</title>
<path fill="none" stroke="midnightblue" d="M843.14,-318.86C861.17,-309.81 881.19,-296.14 891.5,-277 900.35,-260.57 899.81,-251.71 891.5,-235 866.68,-185.1 805.52,-158.49 761.6,-145.33"/>
<polygon fill="midnightblue" stroke="midnightblue" points="762.53,-141.96 751.95,-142.57 760.6,-148.69 762.53,-141.96"/>
</g>
<!-- Node74&#45;&gt;Node67 -->
<g id="edge46" class="edge">
<title>Node74&#45;&gt;Node67</title>
<path fill="none" stroke="midnightblue" d="M739.93,-326.3C691.65,-319.28 626.06,-305.13 574.5,-277 550.77,-264.05 554.63,-247.19 530.5,-235 477.15,-208.05 410.52,-196.93 358.47,-192.48"/>
<polygon fill="midnightblue" stroke="midnightblue" points="358.51,-188.97 348.26,-191.67 357.96,-195.95 358.51,-188.97"/>
</g>
<!-- Node75 -->
<g id="node20" class="node">
<title>Node75</title>
<g id="a_node20"><a xlink:href="multiplexer_8h.html" target="_top" xlink:title=" ">
<polygon fill="white" stroke="red" points="1255,-241 1255,-271 1388,-271 1388,-241 1255,-241"/>
<text text-anchor="start" x="1263" y="-259" font-family="Helvetica,sans-Serif" font-size="10.00">emlabcpp/experimental</text>
<text text-anchor="middle" x="1321.5" y="-248" font-family="Helvetica,sans-Serif" font-size="10.00">/multiplexer.h</text>
</a>
</g>
</g>
<!-- Node74&#45;&gt;Node75 -->
<g id="edge24" class="edge">
<title>Node74&#45;&gt;Node75</title>
<path fill="none" stroke="midnightblue" d="M873.04,-326.79C958.53,-318.27 1111.32,-301.2 1240.5,-277 1246.25,-275.92 1252.19,-274.69 1258.14,-273.37"/>
<polygon fill="midnightblue" stroke="midnightblue" points="1259.13,-276.74 1268.1,-271.1 1257.57,-269.91 1259.13,-276.74"/>
</g>
<!-- Node77 -->
<g id="node21" class="node">
<title>Node77</title>
<g id="a_node21"><a xlink:href="endpoint_8h.html" target="_top" xlink:title=" ">
<polygon fill="white" stroke="red" points="1216.5,-179.5 1216.5,-198.5 1378.5,-198.5 1378.5,-179.5 1216.5,-179.5"/>
<text text-anchor="middle" x="1297.5" y="-186.5" font-family="Helvetica,sans-Serif" font-size="10.00">emlabcpp/protocol/endpoint.h</text>
</a>
</g>
</g>
<!-- Node74&#45;&gt;Node77 -->
<g id="edge34" class="edge">
<title>Node74&#45;&gt;Node77</title>
<path fill="none" stroke="midnightblue" d="M873.23,-328.6C970.54,-321.33 1145.96,-304.81 1202.5,-277 1226.47,-265.21 1225.84,-253.08 1245.5,-235 1256.49,-224.9 1269.14,-213.93 1279.22,-205.36"/>
<polygon fill="midnightblue" stroke="midnightblue" points="1281.61,-207.92 1286.98,-198.78 1277.09,-202.57 1281.61,-207.92"/>
</g>
<!-- Node74&#45;&gt;Node79 -->
<g id="edge36" class="edge">
<title>Node74&#45;&gt;Node79</title>
<path fill="none" stroke="midnightblue" d="M873.19,-332.7C1007.69,-331.14 1306.36,-322.48 1396.5,-277 1412.65,-268.85 1444.15,-229.84 1461.78,-206.92"/>
<polygon fill="midnightblue" stroke="midnightblue" points="1464.72,-208.82 1467.99,-198.75 1459.15,-204.58 1464.72,-208.82"/>
</g>
<!-- Node85 -->
<g id="node23" class="node">
<title>Node85</title>
<g id="a_node23"><a xlink:href="protocol_2base_8h.html" target="_top" xlink:title=" ">
<polygon fill="white" stroke="red" points="979,-179.5 979,-198.5 1122,-198.5 1122,-179.5 979,-179.5"/>
<text text-anchor="middle" x="1050.5" y="-186.5" font-family="Helvetica,sans-Serif" font-size="10.00">emlabcpp/protocol/base.h</text>
</a>
</g>
</g>
<!-- Node74&#45;&gt;Node85 -->
<g id="edge28" class="edge">
<title>Node74&#45;&gt;Node85</title>
<path fill="none" stroke="midnightblue" d="M873.06,-329.48C948.7,-323.92 1065.25,-310.11 1092.5,-277 1104.36,-262.59 1099.35,-252.37 1092.5,-235 1087.99,-223.55 1079.03,-213.29 1070.55,-205.47"/>
<polygon fill="midnightblue" stroke="midnightblue" points="1072.59,-202.61 1062.71,-198.76 1068.03,-207.93 1072.59,-202.61"/>
</g>
<!-- Node86 -->
<g id="node24" class="node">
<title>Node86</title>
<g id="a_node24"><a xlink:href="protocol_2error_8h.html" target="_top" xlink:title=" ">
<polygon fill="white" stroke="red" points="780.5,-123.5 780.5,-142.5 922.5,-142.5 922.5,-123.5 780.5,-123.5"/>
<text text-anchor="middle" x="851.5" y="-130.5" font-family="Helvetica,sans-Serif" font-size="10.00">emlabcpp/protocol/error.h</text>
</a>
</g>
</g>
<!-- Node74&#45;&gt;Node86 -->
<g id="edge35" class="edge">
<title>Node74&#45;&gt;Node86</title>
<path fill="none" stroke="midnightblue" d="M769.86,-318.86C751.83,-309.81 731.81,-296.14 721.5,-277 712.65,-260.57 710.87,-250.34 721.5,-235 747.46,-197.55 783.36,-229.18 817.5,-199 831.49,-186.63 840.61,-167.11 845.85,-152.68"/>
<polygon fill="midnightblue" stroke="midnightblue" points="849.28,-153.44 849.11,-142.85 842.64,-151.24 849.28,-153.44"/>
</g>
<!-- Node66 -->
<g id="node25" class="node">
<title>Node66</title>
<g id="a_node25"><a xlink:title=" ">
<polygon fill="white" stroke="#bfbfbf" points="1105,-123.5 1105,-142.5 1134,-142.5 1134,-123.5 1105,-123.5"/>
<text text-anchor="middle" x="1119.5" y="-130.5" font-family="Helvetica,sans-Serif" font-size="10.00">bit</text>
</a>
</g>
</g>
<!-- Node74&#45;&gt;Node66 -->
<g id="edge49" class="edge">
<title>Node74&#45;&gt;Node66</title>
<path fill="none" stroke="midnightblue" d="M873,-328.99C951.86,-322.86 1076.86,-308.4 1110.5,-277 1144.51,-245.25 1133.63,-183.57 1125.3,-152.63"/>
<polygon fill="midnightblue" stroke="midnightblue" points="1128.58,-151.37 1122.43,-142.74 1121.85,-153.32 1128.58,-151.37"/>
</g>
<!-- Node88 -->
<g id="node26" class="node">
<title>Node88</title>
<g id="a_node26"><a xlink:href="message_8h.html" target="_top" xlink:title=" ">
<polygon fill="white" stroke="black" points="644.5,-179.5 644.5,-198.5 808.5,-198.5 808.5,-179.5 644.5,-179.5"/>
<text text-anchor="middle" x="726.5" y="-186.5" font-family="Helvetica,sans-Serif" font-size="10.00">emlabcpp/protocol/message.h</text>
</a>
</g>
</g>
<!-- Node74&#45;&gt;Node88 -->
<g id="edge37" class="edge">
<title>Node74&#45;&gt;Node88</title>
<path fill="none" stroke="midnightblue" d="M745.98,-318.9C724,-310.53 701.41,-297.41 688.5,-277 678.52,-261.22 682.09,-252.53 688.5,-235 692.56,-223.91 700.69,-213.67 708.39,-205.76"/>
<polygon fill="midnightblue" stroke="midnightblue" points="710.97,-208.14 715.79,-198.7 706.14,-203.07 710.97,-208.14"/>
</g>
<!-- Node92 -->
<g id="node27" class="node">
<title>Node92</title>
<g id="a_node27"><a xlink:href="packet_8h.html" target="_top" xlink:title=" ">
<polygon fill="white" stroke="red" points="730.5,-246.5 730.5,-265.5 882.5,-265.5 882.5,-246.5 730.5,-246.5"/>
<text text-anchor="middle" x="806.5" y="-253.5" font-family="Helvetica,sans-Serif" font-size="10.00">emlabcpp/protocol/packet.h</text>
</a>
</g>
</g>
<!-- Node74&#45;&gt;Node92 -->
<g id="edge40" class="edge">
<title>Node74&#45;&gt;Node92</title>
<path fill="none" stroke="midnightblue" d="M806.5,-318.7C806.5,-306.6 806.5,-289.15 806.5,-275.89"/>
<polygon fill="midnightblue" stroke="midnightblue" points="810,-275.56 806.5,-265.56 803,-275.56 810,-275.56"/>
</g>
<!-- Node87 -->
<g id="node28" class="node">
<title>Node87</title>
<g id="a_node28"><a xlink:href="traits_8h.html" target="_top" xlink:title=" ">
<polygon fill="white" stroke="red" points="939,-246.5 939,-265.5 1084,-265.5 1084,-246.5 939,-246.5"/>
<text text-anchor="middle" x="1011.5" y="-253.5" font-family="Helvetica,sans-Serif" font-size="10.00">emlabcpp/protocol/traits.h</text>
</a>
</g>
</g>
<!-- Node74&#45;&gt;Node87 -->
<g id="edge41" class="edge">
<title>Node74&#45;&gt;Node87</title>
<path fill="none" stroke="midnightblue" d="M844.58,-318.88C883.1,-304.6 942.05,-282.75 978.6,-269.2"/>
<polygon fill="midnightblue" stroke="midnightblue" points="980.13,-272.36 988.29,-265.61 977.69,-265.8 980.13,-272.36"/>
</g>
<!-- Node75&#45;&gt;Node77 -->
<g id="edge25" class="edge">
<title>Node75&#45;&gt;Node77</title>
<path fill="none" stroke="midnightblue" d="M1316.29,-240.9C1312.77,-231.36 1308.09,-218.68 1304.28,-208.36"/>
<polygon fill="midnightblue" stroke="midnightblue" points="1307.46,-206.86 1300.71,-198.69 1300.89,-209.29 1307.46,-206.86"/>
</g>
<!-- Node75&#45;&gt;Node79 -->
<g id="edge26" class="edge">
<title>Node75&#45;&gt;Node79</title>
<path fill="none" stroke="midnightblue" d="M1354.7,-240.9C1381.66,-229.44 1419.33,-213.44 1445.19,-202.45"/>
<polygon fill="midnightblue" stroke="midnightblue" points="1446.64,-205.64 1454.48,-198.51 1443.9,-199.2 1446.64,-205.64"/>
</g>
<!-- Node85&#45;&gt;Node16 -->
<g id="edge33" class="edge">
<title>Node85&#45;&gt;Node16</title>
<path fill="none" stroke="midnightblue" d="M1042.98,-179.32C1026.41,-160.17 986.47,-114.04 964.9,-89.13"/>
<polygon fill="midnightblue" stroke="midnightblue" points="967.3,-86.55 958.1,-81.28 962,-91.13 967.3,-86.55"/>
</g>
<!-- Node85&#45;&gt;Node86 -->
<g id="edge29" class="edge">
<title>Node85&#45;&gt;Node86</title>
<path fill="none" stroke="midnightblue" d="M1018.97,-179.44C984.91,-170.2 930.49,-155.44 892.98,-145.26"/>
<polygon fill="midnightblue" stroke="midnightblue" points="893.45,-141.76 882.88,-142.52 891.62,-148.51 893.45,-141.76"/>
</g>
<!-- Node85&#45;&gt;Node66 -->
<g id="edge32" class="edge">
<title>Node85&#45;&gt;Node66</title>
<path fill="none" stroke="midnightblue" d="M1061.59,-179.32C1071.99,-171.18 1087.76,-158.84 1100.22,-149.09"/>
<polygon fill="midnightblue" stroke="midnightblue" points="1102.49,-151.75 1108.21,-142.83 1098.18,-146.24 1102.49,-151.75"/>
</g>
<!-- Node86&#45;&gt;Node46 -->
<g id="edge30" class="edge">
<title>Node86&#45;&gt;Node46</title>
<path fill="none" stroke="midnightblue" d="M780.32,-123.7C684.95,-112.57 516.36,-92.9 418.23,-81.45"/>
<polygon fill="midnightblue" stroke="midnightblue" points="418.43,-77.95 408.09,-80.27 417.61,-84.9 418.43,-77.95"/>
</g>
<!-- Node86&#45;&gt;Node8 -->
<g id="edge31" class="edge">
<title>Node86&#45;&gt;Node8</title>
<path fill="none" stroke="midnightblue" d="M822.32,-123.49C746.75,-101.46 545.16,-42.68 467.55,-20.05"/>
<polygon fill="midnightblue" stroke="midnightblue" points="468.45,-16.67 457.87,-17.23 466.49,-23.39 468.45,-16.67"/>
</g>
<!-- Node88&#45;&gt;Node6 -->
<g id="edge38" class="edge">
<title>Node88&#45;&gt;Node6</title>
<path fill="none" stroke="midnightblue" d="M704,-179.44C680.42,-170.48 643.18,-156.31 616.54,-146.18"/>
<polygon fill="midnightblue" stroke="midnightblue" points="617.49,-142.8 606.9,-142.52 615,-149.34 617.49,-142.8"/>
</g>
<!-- Node88&#45;&gt;Node30 -->
<g id="edge39" class="edge">
<title>Node88&#45;&gt;Node30</title>
<path fill="none" stroke="midnightblue" d="M724.19,-179.08C722.33,-171.93 719.66,-161.64 717.35,-152.69"/>
<polygon fill="midnightblue" stroke="midnightblue" points="720.67,-151.55 714.77,-142.75 713.89,-153.31 720.67,-151.55"/>
</g>
<!-- Node87&#45;&gt;Node16 -->
<g id="edge45" class="edge">
<title>Node87&#45;&gt;Node16</title>
<path fill="none" stroke="midnightblue" d="M1002.82,-246.37C993.01,-236.07 977.38,-217.83 969.5,-199 954.41,-162.93 951.09,-116.65 950.49,-91.26"/>
<polygon fill="midnightblue" stroke="midnightblue" points="953.99,-91.13 950.37,-81.17 946.99,-91.21 953.99,-91.13"/>
</g>
<!-- Node87&#45;&gt;Node85 -->
<g id="edge42" class="edge">
<title>Node87&#45;&gt;Node85</title>
<path fill="none" stroke="midnightblue" d="M1016.76,-246.23C1022.72,-236.29 1032.6,-219.84 1040.13,-207.29"/>
<polygon fill="midnightblue" stroke="midnightblue" points="1043.18,-209 1045.32,-198.63 1037.18,-205.4 1043.18,-209"/>
</g>
<!-- Node87&#45;&gt;Node86 -->
<g id="edge43" class="edge">
<title>Node87&#45;&gt;Node86</title>
<path fill="none" stroke="midnightblue" d="M999.78,-246.31C984.99,-235.34 958.8,-215.85 936.5,-199 913.91,-181.93 888.08,-162.14 870.89,-148.93"/>
<polygon fill="midnightblue" stroke="midnightblue" points="872.8,-145.98 862.74,-142.66 868.54,-151.53 872.8,-145.98"/>
</g>
<!-- Node87&#45;&gt;Node88 -->
<g id="edge44" class="edge">
<title>Node87&#45;&gt;Node88</title>
<path fill="none" stroke="midnightblue" d="M973.95,-246.44C922.58,-234.72 830.38,-213.69 774.19,-200.88"/>
<polygon fill="midnightblue" stroke="midnightblue" points="774.66,-197.39 764.14,-198.58 773.11,-204.22 774.66,-197.39"/>
</g>
</g>
</svg>
