<?xml version="1.0" encoding="UTF-8" standalone="no"?>
<!DOCTYPE svg PUBLIC "-//W3C//DTD SVG 1.1//EN"
 "http://www.w3.org/Graphics/SVG/1.1/DTD/svg11.dtd">
<!-- Generated by graphviz version 2.43.0 (0)
 -->
<!-- Title: include/emlabcpp/experimental/testing/parameters.h Pages: 1 -->
<svg width="2085pt" height="441pt"
 viewBox="0.00 0.00 2085.49 441.00" xmlns="http://www.w3.org/2000/svg" xmlns:xlink="http://www.w3.org/1999/xlink">
<g id="graph0" class="graph" transform="scale(1 1) rotate(0) translate(4 437)">
<title>include/emlabcpp/experimental/testing/parameters.h</title>
<polygon fill="white" stroke="transparent" points="-4,4 -4,-437 2081.49,-437 2081.49,4 -4,4"/>
<!-- Node1 -->
<g id="node1" class="node">
<title>Node1</title>
<g id="a_node1"><a xlink:title=" ">
<polygon fill="#bfbfbf" stroke="black" points="1071,-402.5 1071,-432.5 1242,-432.5 1242,-402.5 1071,-402.5"/>
<text text-anchor="start" x="1079" y="-420.5" font-family="Helvetica,sans-Serif" font-size="10.00">include/emlabcpp/experimental</text>
<text text-anchor="middle" x="1156.5" y="-409.5" font-family="Helvetica,sans-Serif" font-size="10.00">/testing/parameters.h</text>
</a>
</g>
</g>
<!-- Node2 -->
<g id="node2" class="node">
<title>Node2</title>
<g id="a_node2"><a xlink:href="request__adapter_8h.html" target="_top" xlink:title=" ">
<polygon fill="white" stroke="black" points="593,-324.5 593,-365.5 730,-365.5 730,-324.5 593,-324.5"/>
<text text-anchor="start" x="601" y="-353.5" font-family="Helvetica,sans-Serif" font-size="10.00">emlabcpp/experimental</text>
<text text-anchor="start" x="601" y="-342.5" font-family="Helvetica,sans-Serif" font-size="10.00">/contiguous_tree/request</text>
<text text-anchor="middle" x="661.5" y="-331.5" font-family="Helvetica,sans-Serif" font-size="10.00">_adapter.h</text>
</a>
</g>
</g>
<!-- Node1&#45;&gt;Node2 -->
<g id="edge1" class="edge">
<title>Node1&#45;&gt;Node2</title>
<path fill="none" stroke="midnightblue" d="M1070.84,-404.3C977.85,-391.06 830.59,-370.08 740.36,-357.23"/>
<polygon fill="midnightblue" stroke="midnightblue" points="740.58,-353.73 730.18,-355.78 739.59,-360.66 740.58,-353.73"/>
</g>
<!-- Node46 -->
<g id="node5" class="node">
<title>Node46</title>
<g id="a_node5"><a xlink:href="function__view_8h.html" target="_top" xlink:title=" ">
<polygon fill="white" stroke="black" points="442,-330 442,-360 575,-360 575,-330 442,-330"/>
<text text-anchor="start" x="450" y="-348" font-family="Helvetica,sans-Serif" font-size="10.00">emlabcpp/experimental</text>
<text text-anchor="middle" x="508.5" y="-337" font-family="Helvetica,sans-Serif" font-size="10.00">/function_view.h</text>
</a>
</g>
</g>
<!-- Node1&#45;&gt;Node46 -->
<g id="edge4" class="edge">
<title>Node1&#45;&gt;Node46</title>
<path fill="none" stroke="midnightblue" d="M1070.63,-413.45C958.22,-408.42 755.38,-395.81 584.5,-366 578.73,-364.99 572.76,-363.76 566.82,-362.41"/>
<polygon fill="midnightblue" stroke="midnightblue" points="567.42,-358.96 556.88,-360.04 565.8,-365.77 567.42,-358.96"/>
</g>
<!-- Node47 -->
<g id="node8" class="node">
<title>Node47</title>
<g id="a_node8"><a xlink:href="experimental_2testing_2convert_8h.html" target="_top" xlink:title=" ">
<polygon fill="white" stroke="black" points="1827,-330 1827,-360 1960,-360 1960,-330 1827,-330"/>
<text text-anchor="start" x="1835" y="-348" font-family="Helvetica,sans-Serif" font-size="10.00">emlabcpp/experimental</text>
<text text-anchor="middle" x="1893.5" y="-337" font-family="Helvetica,sans-Serif" font-size="10.00">/testing/convert.h</text>
</a>
</g>
</g>
<!-- Node1&#45;&gt;Node47 -->
<g id="edge7" class="edge">
<title>Node1&#45;&gt;Node47</title>
<path fill="none" stroke="midnightblue" d="M1242.12,-408.31C1387,-394.45 1678.21,-366.59 1816.81,-353.34"/>
<polygon fill="midnightblue" stroke="midnightblue" points="1817.3,-356.81 1826.92,-352.37 1816.63,-349.84 1817.3,-356.81"/>
</g>
<!-- Node68 -->
<g id="node14" class="node">
<title>Node68</title>
<g id="a_node14"><a xlink:href="static__function_8h.html" target="_top" xlink:title=" ">
<polygon fill="white" stroke="red" points="1908,-185 1908,-204 2057,-204 2057,-185 1908,-185"/>
<text text-anchor="middle" x="1982.5" y="-192" font-family="Helvetica,sans-Serif" font-size="10.00">emlabcpp/static_function.h</text>
</a>
</g>
</g>
<!-- Node1&#45;&gt;Node68 -->
<g id="edge54" class="edge">
<title>Node1&#45;&gt;Node68</title>
<path fill="none" stroke="midnightblue" d="M1242.34,-416.69C1439.86,-416.36 1913.92,-410.85 1969.5,-366 2014.51,-329.68 1998.54,-249.88 1988.34,-213.82"/>
<polygon fill="midnightblue" stroke="midnightblue" points="1991.66,-212.71 1985.43,-204.13 1984.95,-214.72 1991.66,-212.71"/>
</g>
<!-- Node70 -->
<g id="node15" class="node">
<title>Node70</title>
<g id="a_node15"><a xlink:href="coroutine_8h.html" target="_top" xlink:title=" ">
<polygon fill="white" stroke="black" points="246,-330 246,-360 379,-360 379,-330 246,-330"/>
<text text-anchor="start" x="254" y="-348" font-family="Helvetica,sans-Serif" font-size="10.00">emlabcpp/experimental</text>
<text text-anchor="middle" x="312.5" y="-337" font-family="Helvetica,sans-Serif" font-size="10.00">/testing/coroutine.h</text>
</a>
</g>
</g>
<!-- Node1&#45;&gt;Node70 -->
<g id="edge16" class="edge">
<title>Node1&#45;&gt;Node70</title>
<path fill="none" stroke="midnightblue" d="M1070.84,-413.13C935.23,-407.2 662.98,-392.92 433.5,-366 419.15,-364.32 403.91,-362.12 389.26,-359.8"/>
<polygon fill="midnightblue" stroke="midnightblue" points="389.66,-356.32 379.23,-358.18 388.54,-363.23 389.66,-356.32"/>
</g>
<!-- Node75 -->
<g id="node20" class="node">
<title>Node75</title>
<g id="a_node20"><a xlink:href="experimental_2testing_2protocol_8h.html" target="_top" xlink:title=" ">
<polygon fill="white" stroke="black" points="1216,-330 1216,-360 1349,-360 1349,-330 1216,-330"/>
<text text-anchor="start" x="1224" y="-348" font-family="Helvetica,sans-Serif" font-size="10.00">emlabcpp/experimental</text>
<text text-anchor="middle" x="1282.5" y="-337" font-family="Helvetica,sans-Serif" font-size="10.00">/testing/protocol.h</text>
</a>
</g>
</g>
<!-- Node1&#45;&gt;Node75 -->
<g id="edge23" class="edge">
<title>Node1&#45;&gt;Node75</title>
<path fill="none" stroke="midnightblue" d="M1181.7,-402.4C1200.84,-391.69 1227.37,-376.85 1248.41,-365.07"/>
<polygon fill="midnightblue" stroke="midnightblue" points="1250.33,-368.01 1257.35,-360.07 1246.91,-361.9 1250.33,-368.01"/>
</g>
<!-- Node80 -->
<g id="node23" class="node">
<title>Node80</title>
<g id="a_node23"><a xlink:href="protocol_2handler_8h.html" target="_top" xlink:title=" ">
<polygon fill="white" stroke="red" points="1261,-185 1261,-204 1416,-204 1416,-185 1261,-185"/>
<text text-anchor="middle" x="1338.5" y="-192" font-family="Helvetica,sans-Serif" font-size="10.00">emlabcpp/protocol/handler.h</text>
</a>
</g>
</g>
<!-- Node1&#45;&gt;Node80 -->
<g id="edge53" class="edge">
<title>Node1&#45;&gt;Node80</title>
<path fill="none" stroke="midnightblue" d="M1162.79,-402.28C1171.46,-383.46 1188.22,-349.65 1207.5,-324 1236.96,-284.81 1250.42,-280.25 1285.5,-246 1297.68,-234.11 1311.61,-220.85 1322.14,-210.9"/>
<polygon fill="midnightblue" stroke="midnightblue" points="1324.56,-213.42 1329.43,-204.01 1319.76,-208.33 1324.56,-213.42"/>
</g>
<!-- Node3 -->
<g id="node3" class="node">
<title>Node3</title>
<g id="a_node3"><a xlink:href="experimental_2contiguous__tree_2base_8h.html" target="_top" xlink:title=" ">
<polygon fill="white" stroke="red" points="575,-252 575,-282 708,-282 708,-252 575,-252"/>
<text text-anchor="start" x="583" y="-270" font-family="Helvetica,sans-Serif" font-size="10.00">emlabcpp/experimental</text>
<text text-anchor="middle" x="641.5" y="-259" font-family="Helvetica,sans-Serif" font-size="10.00">/contiguous_tree/base.h</text>
</a>
</g>
</g>
<!-- Node2&#45;&gt;Node3 -->
<g id="edge2" class="edge">
<title>Node2&#45;&gt;Node3</title>
<path fill="none" stroke="midnightblue" d="M656.35,-324.43C653.75,-314.53 650.56,-302.44 647.81,-291.99"/>
<polygon fill="midnightblue" stroke="midnightblue" points="651.17,-291.01 645.24,-282.23 644.4,-292.79 651.17,-291.01"/>
</g>
<!-- Node44 -->
<g id="node4" class="node">
<title>Node44</title>
<g id="a_node4"><a xlink:href="logging_8h.html" target="_top" xlink:title=" ">
<polygon fill="white" stroke="red" points="537,-179.5 537,-209.5 670,-209.5 670,-179.5 537,-179.5"/>
<text text-anchor="start" x="545" y="-197.5" font-family="Helvetica,sans-Serif" font-size="10.00">emlabcpp/experimental</text>
<text text-anchor="middle" x="603.5" y="-186.5" font-family="Helvetica,sans-Serif" font-size="10.00">/logging.h</text>
</a>
</g>
</g>
<!-- Node2&#45;&gt;Node44 -->
<g id="edge3" class="edge">
<title>Node2&#45;&gt;Node44</title>
<path fill="none" stroke="midnightblue" d="M607.24,-324.42C591.26,-315.82 575.62,-303.96 566.5,-288 557.24,-271.79 560.7,-263.74 566.5,-246 569.9,-235.62 576.33,-225.6 582.89,-217.27"/>
<polygon fill="midnightblue" stroke="midnightblue" points="585.63,-219.45 589.39,-209.54 580.27,-214.95 585.63,-219.45"/>
</g>
<!-- Node6 -->
<g id="node6" class="node">
<title>Node6</title>
<g id="a_node6"><a xlink:href="concepts_8h.html" target="_top" xlink:title=" ">
<polygon fill="white" stroke="red" points="774.5,-123.5 774.5,-142.5 894.5,-142.5 894.5,-123.5 774.5,-123.5"/>
<text text-anchor="middle" x="834.5" y="-130.5" font-family="Helvetica,sans-Serif" font-size="10.00">emlabcpp/concepts.h</text>
</a>
</g>
</g>
<!-- Node46&#45;&gt;Node6 -->
<g id="edge5" class="edge">
<title>Node46&#45;&gt;Node6</title>
<path fill="none" stroke="midnightblue" d="M505.17,-329.7C498.67,-297.79 488.21,-220.32 528.5,-179 560.27,-146.42 684.12,-137.25 764.18,-134.78"/>
<polygon fill="midnightblue" stroke="midnightblue" points="764.31,-138.28 774.2,-134.5 764.11,-131.28 764.31,-138.28"/>
</g>
<!-- Node16 -->
<g id="node7" class="node">
<title>Node16</title>
<g id="a_node7"><a xlink:title=" ">
<polygon fill="white" stroke="#bfbfbf" points="1107,-62 1107,-81 1158,-81 1158,-62 1107,-62"/>
<text text-anchor="middle" x="1132.5" y="-69" font-family="Helvetica,sans-Serif" font-size="10.00">variant</text>
</a>
</g>
</g>
<!-- Node6&#45;&gt;Node16 -->
<g id="edge6" class="edge">
<title>Node6&#45;&gt;Node16</title>
<path fill="none" stroke="midnightblue" d="M877.2,-123.48C936.16,-111.7 1041.47,-90.68 1096.6,-79.67"/>
<polygon fill="midnightblue" stroke="midnightblue" points="1097.49,-83.06 1106.61,-77.67 1096.12,-76.19 1097.49,-83.06"/>
</g>
<!-- Node48 -->
<g id="node9" class="node">
<title>Node48</title>
<g id="a_node9"><a xlink:href="string__buffer_8h.html" target="_top" xlink:title=" ">
<polygon fill="white" stroke="red" points="1495,-56.5 1495,-86.5 1628,-86.5 1628,-56.5 1495,-56.5"/>
<text text-anchor="start" x="1503" y="-74.5" font-family="Helvetica,sans-Serif" font-size="10.00">emlabcpp/experimental</text>
<text text-anchor="middle" x="1561.5" y="-63.5" font-family="Helvetica,sans-Serif" font-size="10.00">/string_buffer.h</text>
</a>
</g>
</g>
<!-- Node47&#45;&gt;Node48 -->
<g id="edge8" class="edge">
<title>Node47&#45;&gt;Node48</title>
<path fill="none" stroke="midnightblue" d="M1929.97,-329.98C1993.66,-303.42 2114.05,-242.69 2066.5,-179 2016.07,-111.46 1766.97,-85.67 1638.48,-76.74"/>
<polygon fill="midnightblue" stroke="midnightblue" points="1638.53,-73.24 1628.31,-76.06 1638.05,-80.22 1638.53,-73.24"/>
</g>
<!-- Node51 -->
<g id="node11" class="node">
<title>Node51</title>
<g id="a_node11"><a xlink:href="experimental_2testing_2base_8h.html" target="_top" xlink:title=" ">
<polygon fill="white" stroke="red" points="1827,-252 1827,-282 1960,-282 1960,-252 1827,-252"/>
<text text-anchor="start" x="1835" y="-270" font-family="Helvetica,sans-Serif" font-size="10.00">emlabcpp/experimental</text>
<text text-anchor="middle" x="1893.5" y="-259" font-family="Helvetica,sans-Serif" font-size="10.00">/testing/base.h</text>
</a>
</g>
</g>
<!-- Node47&#45;&gt;Node51 -->
<g id="edge10" class="edge">
<title>Node47&#45;&gt;Node51</title>
<path fill="none" stroke="midnightblue" d="M1893.5,-329.7C1893.5,-319.2 1893.5,-304.66 1893.5,-292.33"/>
<polygon fill="midnightblue" stroke="midnightblue" points="1897,-292.23 1893.5,-282.23 1890,-292.23 1897,-292.23"/>
</g>
<!-- Node8 -->
<g id="node10" class="node">
<title>Node8</title>
<g id="a_node10"><a xlink:title=" ">
<polygon fill="white" stroke="#bfbfbf" points="962.5,-0.5 962.5,-19.5 1004.5,-19.5 1004.5,-0.5 962.5,-0.5"/>
<text text-anchor="middle" x="983.5" y="-7.5" font-family="Helvetica,sans-Serif" font-size="10.00">array</text>
</a>
</g>
</g>
<!-- Node48&#45;&gt;Node8 -->
<g id="edge9" class="edge">
<title>Node48&#45;&gt;Node8</title>
<path fill="none" stroke="midnightblue" d="M1494.91,-63.65C1370.12,-50.8 1105.46,-23.55 1014.76,-14.22"/>
<polygon fill="midnightblue" stroke="midnightblue" points="1014.89,-10.71 1004.58,-13.17 1014.17,-17.68 1014.89,-10.71"/>
</g>
<!-- Node51&#45;&gt;Node16 -->
<g id="edge15" class="edge">
<title>Node51&#45;&gt;Node16</title>
<path fill="none" stroke="midnightblue" d="M1890.84,-251.99C1884.4,-222.34 1864.91,-153.45 1818.5,-123 1791.1,-105.02 1306.12,-80.74 1168.59,-74.19"/>
<polygon fill="midnightblue" stroke="midnightblue" points="1168.35,-70.67 1158.19,-73.69 1168.02,-77.66 1168.35,-70.67"/>
</g>
<!-- Node51&#45;&gt;Node48 -->
<g id="edge13" class="edge">
<title>Node51&#45;&gt;Node48</title>
<path fill="none" stroke="midnightblue" d="M1894.45,-251.72C1895.53,-222.77 1893.5,-157.02 1856.5,-123 1825.39,-94.39 1714.67,-81.75 1638.1,-76.33"/>
<polygon fill="midnightblue" stroke="midnightblue" points="1638.22,-72.83 1628,-75.65 1637.74,-79.82 1638.22,-72.83"/>
</g>
<!-- Node52 -->
<g id="node12" class="node">
<title>Node52</title>
<g id="a_node12"><a xlink:href="algorithm_8h.html" target="_top" xlink:title=" ">
<polygon fill="white" stroke="red" points="1614.5,-185 1614.5,-204 1738.5,-204 1738.5,-185 1614.5,-185"/>
<text text-anchor="middle" x="1676.5" y="-192" font-family="Helvetica,sans-Serif" font-size="10.00">emlabcpp/algorithm.h</text>
</a>
</g>
</g>
<!-- Node51&#45;&gt;Node52 -->
<g id="edge11" class="edge">
<title>Node51&#45;&gt;Node52</title>
<path fill="none" stroke="midnightblue" d="M1850.37,-251.99C1809.98,-238.86 1750.31,-219.48 1712.44,-207.17"/>
<polygon fill="midnightblue" stroke="midnightblue" points="1713.42,-203.82 1702.83,-204.05 1711.26,-210.47 1713.42,-203.82"/>
</g>
<!-- Node51&#45;&gt;Node68 -->
<g id="edge14" class="edge">
<title>Node51&#45;&gt;Node68</title>
<path fill="none" stroke="midnightblue" d="M1911.51,-251.73C1926.46,-239.89 1947.67,-223.09 1963.01,-210.94"/>
<polygon fill="midnightblue" stroke="midnightblue" points="1965.61,-213.35 1971.27,-204.39 1961.26,-207.86 1965.61,-213.35"/>
</g>
<!-- Node30 -->
<g id="node13" class="node">
<title>Node30</title>
<g id="a_node13"><a xlink:href="view_8h.html" target="_top" xlink:title=" ">
<polygon fill="white" stroke="red" points="1183,-123.5 1183,-142.5 1282,-142.5 1282,-123.5 1183,-123.5"/>
<text text-anchor="middle" x="1232.5" y="-130.5" font-family="Helvetica,sans-Serif" font-size="10.00">emlabcpp/view.h</text>
</a>
</g>
</g>
<!-- Node52&#45;&gt;Node30 -->
<g id="edge12" class="edge">
<title>Node52&#45;&gt;Node30</title>
<path fill="none" stroke="midnightblue" d="M1637.54,-184.95C1627.16,-182.83 1615.93,-180.69 1605.5,-179 1495.43,-161.15 1366.02,-147.07 1292.2,-139.69"/>
<polygon fill="midnightblue" stroke="midnightblue" points="1292.45,-136.2 1282.16,-138.69 1291.76,-143.16 1292.45,-136.2"/>
</g>
<!-- Node71 -->
<g id="node16" class="node">
<title>Node71</title>
<g id="a_node16"><a xlink:href="data__promise_8h.html" target="_top" xlink:title=" ">
<polygon fill="white" stroke="red" points="151,-252 151,-282 284,-282 284,-252 151,-252"/>
<text text-anchor="start" x="159" y="-270" font-family="Helvetica,sans-Serif" font-size="10.00">emlabcpp/experimental</text>
<text text-anchor="middle" x="217.5" y="-259" font-family="Helvetica,sans-Serif" font-size="10.00">/coro/data_promise.h</text>
</a>
</g>
</g>
<!-- Node70&#45;&gt;Node71 -->
<g id="edge17" class="edge">
<title>Node70&#45;&gt;Node71</title>
<path fill="none" stroke="midnightblue" d="M294.63,-329.7C280.17,-318.13 259.6,-301.68 243.34,-288.67"/>
<polygon fill="midnightblue" stroke="midnightblue" points="245.28,-285.74 235.29,-282.23 240.91,-291.21 245.28,-285.74"/>
</g>
<!-- Node72 -->
<g id="node17" class="node">
<title>Node72</title>
<g id="a_node17"><a xlink:href="memory__promise_8h.html" target="_top" xlink:title=" ">
<polygon fill="white" stroke="red" points="341,-252 341,-282 480,-282 480,-252 341,-252"/>
<text text-anchor="start" x="349" y="-270" font-family="Helvetica,sans-Serif" font-size="10.00">emlabcpp/experimental</text>
<text text-anchor="middle" x="410.5" y="-259" font-family="Helvetica,sans-Serif" font-size="10.00">/coro/memory_promise.h</text>
</a>
</g>
</g>
<!-- Node70&#45;&gt;Node72 -->
<g id="edge18" class="edge">
<title>Node70&#45;&gt;Node72</title>
<path fill="none" stroke="midnightblue" d="M330.93,-329.7C345.85,-318.13 367.07,-301.68 383.84,-288.67"/>
<polygon fill="midnightblue" stroke="midnightblue" points="386.39,-291.12 392.15,-282.23 382.1,-285.59 386.39,-291.12"/>
</g>
<!-- Node73 -->
<g id="node18" class="node">
<title>Node73</title>
<g id="a_node18"><a xlink:href="owning__coroutine__handle_8h.html" target="_top" xlink:title=" ">
<polygon fill="white" stroke="red" points="0,-246.5 0,-287.5 133,-287.5 133,-246.5 0,-246.5"/>
<text text-anchor="start" x="8" y="-275.5" font-family="Helvetica,sans-Serif" font-size="10.00">emlabcpp/experimental</text>
<text text-anchor="start" x="8" y="-264.5" font-family="Helvetica,sans-Serif" font-size="10.00">/coro/owning_coroutine</text>
<text text-anchor="middle" x="66.5" y="-253.5" font-family="Helvetica,sans-Serif" font-size="10.00">_handle.h</text>
</a>
</g>
</g>
<!-- Node70&#45;&gt;Node73 -->
<g id="edge20" class="edge">
<title>Node70&#45;&gt;Node73</title>
<path fill="none" stroke="midnightblue" d="M267.09,-329.97C231.36,-318.93 180.87,-303.33 139.48,-290.55"/>
<polygon fill="midnightblue" stroke="midnightblue" points="140.3,-287.14 129.72,-287.53 138.24,-293.83 140.3,-287.14"/>
</g>
<!-- Node74 -->
<g id="node19" class="node">
<title>Node74</title>
<g id="a_node19"><a xlink:title=" ">
<polygon fill="white" stroke="#bfbfbf" points="158.5,-185 158.5,-204 220.5,-204 220.5,-185 158.5,-185"/>
<text text-anchor="middle" x="189.5" y="-192" font-family="Helvetica,sans-Serif" font-size="10.00">coroutine</text>
</a>
</g>
</g>
<!-- Node70&#45;&gt;Node74 -->
<g id="edge22" class="edge">
<title>Node70&#45;&gt;Node74</title>
<path fill="none" stroke="midnightblue" d="M313.31,-329.75C313.74,-309.13 311.62,-270.73 292.5,-246 277.18,-226.19 252.06,-213.66 230.47,-206.03"/>
<polygon fill="midnightblue" stroke="midnightblue" points="231.43,-202.66 220.84,-202.86 229.24,-209.31 231.43,-202.66"/>
</g>
<!-- Node72&#45;&gt;Node44 -->
<g id="edge19" class="edge">
<title>Node72&#45;&gt;Node44</title>
<path fill="none" stroke="midnightblue" d="M449.09,-251.9C479.73,-240.71 522.72,-225.01 555.57,-213.01"/>
<polygon fill="midnightblue" stroke="midnightblue" points="556.78,-216.29 564.97,-209.57 554.38,-209.72 556.78,-216.29"/>
</g>
<!-- Node73&#45;&gt;Node74 -->
<g id="edge21" class="edge">
<title>Node73&#45;&gt;Node74</title>
<path fill="none" stroke="midnightblue" d="M100.76,-246.36C121.34,-234.57 147.02,-219.85 165.46,-209.28"/>
<polygon fill="midnightblue" stroke="midnightblue" points="167.43,-212.18 174.37,-204.17 163.95,-206.11 167.43,-212.18"/>
</g>
<!-- Node75&#45;&gt;Node3 -->
<g id="edge25" class="edge">
<title>Node75&#45;&gt;Node3</title>
<path fill="none" stroke="midnightblue" d="M1215.71,-340.41C1110.3,-334.04 899.18,-318.49 722.5,-288 716.32,-286.93 709.91,-285.65 703.53,-284.27"/>
<polygon fill="midnightblue" stroke="midnightblue" points="704.08,-280.8 693.56,-282.01 702.54,-287.63 704.08,-280.8"/>
</g>
<!-- Node75&#45;&gt;Node16 -->
<g id="edge52" class="edge">
<title>Node75&#45;&gt;Node16</title>
<path fill="none" stroke="midnightblue" d="M1349.4,-341.33C1478.39,-335.49 1751.33,-319.52 1779.5,-288 1791.94,-274.08 1781.42,-264.57 1779.5,-246 1776.37,-215.74 1786.32,-201.18 1765.5,-179 1683.23,-91.36 1290.07,-75.8 1168.44,-73.07"/>
<polygon fill="midnightblue" stroke="midnightblue" points="1168.26,-69.57 1158.19,-72.86 1168.11,-76.56 1168.26,-69.57"/>
</g>
<!-- Node75&#45;&gt;Node8 -->
<g id="edge50" class="edge">
<title>Node75&#45;&gt;Node8</title>
<path fill="none" stroke="midnightblue" d="M1215.92,-341.93C1103.89,-337.49 883.26,-324.28 815.5,-288 767.84,-262.48 736.5,-249.56 736.5,-195.5 736.5,-195.5 736.5,-195.5 736.5,-132 736.5,-37.01 885.64,-16.58 952.14,-12.2"/>
<polygon fill="midnightblue" stroke="midnightblue" points="952.66,-15.67 962.44,-11.6 952.26,-8.68 952.66,-15.67"/>
</g>
<!-- Node75&#45;&gt;Node51 -->
<g id="edge29" class="edge">
<title>Node75&#45;&gt;Node51</title>
<path fill="none" stroke="midnightblue" d="M1349.01,-339.91C1449.82,-333.04 1647.09,-317.02 1812.5,-288 1818.59,-286.93 1824.89,-285.67 1831.18,-284.29"/>
<polygon fill="midnightblue" stroke="midnightblue" points="1832.02,-287.69 1841,-282.07 1830.47,-280.87 1832.02,-287.69"/>
</g>
<!-- Node75&#45;&gt;Node52 -->
<g id="edge24" class="edge">
<title>Node75&#45;&gt;Node52</title>
<path fill="none" stroke="midnightblue" d="M1343.95,-330C1384.46,-320.03 1438.34,-305.36 1484.5,-288 1517.25,-275.68 1606.4,-231.08 1650.74,-208.62"/>
<polygon fill="midnightblue" stroke="midnightblue" points="1652.41,-211.7 1659.74,-204.05 1649.24,-205.46 1652.41,-211.7"/>
</g>
<!-- Node75&#45;&gt;Node30 -->
<g id="edge49" class="edge">
<title>Node75&#45;&gt;Node30</title>
<path fill="none" stroke="midnightblue" d="M1279.14,-329.9C1270.36,-293 1246.7,-193.64 1236.87,-152.36"/>
<polygon fill="midnightblue" stroke="midnightblue" points="1240.26,-151.49 1234.54,-142.57 1233.45,-153.11 1240.26,-151.49"/>
</g>
<!-- Node75&#45;&gt;Node68 -->
<g id="edge48" class="edge">
<title>Node75&#45;&gt;Node68</title>
<path fill="none" stroke="midnightblue" d="M1349.02,-343.21C1512.7,-340.64 1924.97,-330.01 1969.5,-288 1989.3,-269.32 1988.72,-235.38 1985.98,-214.21"/>
<polygon fill="midnightblue" stroke="midnightblue" points="1989.42,-213.53 1984.4,-204.2 1982.5,-214.62 1989.42,-213.53"/>
</g>
<!-- Node76 -->
<g id="node21" class="node">
<title>Node76</title>
<g id="a_node21"><a xlink:href="multiplexer_8h.html" target="_top" xlink:title=" ">
<polygon fill="white" stroke="red" points="1311,-252 1311,-282 1444,-282 1444,-252 1311,-252"/>
<text text-anchor="start" x="1319" y="-270" font-family="Helvetica,sans-Serif" font-size="10.00">emlabcpp/experimental</text>
<text text-anchor="middle" x="1377.5" y="-259" font-family="Helvetica,sans-Serif" font-size="10.00">/multiplexer.h</text>
</a>
</g>
</g>
<!-- Node75&#45;&gt;Node76 -->
<g id="edge26" class="edge">
<title>Node75&#45;&gt;Node76</title>
<path fill="none" stroke="midnightblue" d="M1300.37,-329.7C1314.83,-318.13 1335.4,-301.68 1351.66,-288.67"/>
<polygon fill="midnightblue" stroke="midnightblue" points="1354.09,-291.21 1359.71,-282.23 1349.72,-285.74 1354.09,-291.21"/>
</g>
<!-- Node78 -->
<g id="node22" class="node">
<title>Node78</title>
<g id="a_node22"><a xlink:href="endpoint_8h.html" target="_top" xlink:title=" ">
<polygon fill="white" stroke="red" points="1434.5,-185 1434.5,-204 1596.5,-204 1596.5,-185 1434.5,-185"/>
<text text-anchor="middle" x="1515.5" y="-192" font-family="Helvetica,sans-Serif" font-size="10.00">emlabcpp/protocol/endpoint.h</text>
</a>
</g>
</g>
<!-- Node75&#45;&gt;Node78 -->
<g id="edge36" class="edge">
<title>Node75&#45;&gt;Node78</title>
<path fill="none" stroke="midnightblue" d="M1349.04,-332.95C1382.86,-324.81 1423.12,-311.02 1453.5,-288 1479.6,-268.22 1498.3,-234.12 1507.97,-213.31"/>
<polygon fill="midnightblue" stroke="midnightblue" points="1511.23,-214.59 1512.09,-204.03 1504.84,-211.75 1511.23,-214.59"/>
</g>
<!-- Node75&#45;&gt;Node80 -->
<g id="edge38" class="edge">
<title>Node75&#45;&gt;Node80</title>
<path fill="none" stroke="midnightblue" d="M1283.54,-329.81C1285.37,-310.24 1290.24,-274.18 1302.5,-246 1307.89,-233.6 1316.66,-221.22 1324.19,-211.82"/>
<polygon fill="midnightblue" stroke="midnightblue" points="1326.9,-214.02 1330.62,-204.1 1321.53,-209.54 1326.9,-214.02"/>
</g>
<!-- Node86 -->
<g id="node24" class="node">
<title>Node86</title>
<g id="a_node24"><a xlink:href="protocol_2base_8h.html" target="_top" xlink:title=" ">
<polygon fill="white" stroke="red" points="1061,-185 1061,-204 1204,-204 1204,-185 1061,-185"/>
<text text-anchor="middle" x="1132.5" y="-192" font-family="Helvetica,sans-Serif" font-size="10.00">emlabcpp/protocol/base.h</text>
</a>
</g>
</g>
<!-- Node75&#45;&gt;Node86 -->
<g id="edge30" class="edge">
<title>Node75&#45;&gt;Node86</title>
<path fill="none" stroke="midnightblue" d="M1265.5,-329.95C1252.36,-318.89 1233.86,-302.91 1218.5,-288 1192.16,-262.44 1163.5,-230.77 1146.82,-211.9"/>
<polygon fill="midnightblue" stroke="midnightblue" points="1149.28,-209.39 1140.04,-204.19 1144.02,-214.02 1149.28,-209.39"/>
</g>
<!-- Node87 -->
<g id="node25" class="node">
<title>Node87</title>
<g id="a_node25"><a xlink:href="protocol_2error_8h.html" target="_top" xlink:title=" ">
<polygon fill="white" stroke="red" points="912.5,-123.5 912.5,-142.5 1054.5,-142.5 1054.5,-123.5 912.5,-123.5"/>
<text text-anchor="middle" x="983.5" y="-130.5" font-family="Helvetica,sans-Serif" font-size="10.00">emlabcpp/protocol/error.h</text>
</a>
</g>
</g>
<!-- Node75&#45;&gt;Node87 -->
<g id="edge37" class="edge">
<title>Node75&#45;&gt;Node87</title>
<path fill="none" stroke="midnightblue" d="M1215.97,-343.12C1138.95,-340.07 1009.48,-328.65 906.5,-288 849.74,-265.59 821.86,-264.04 793.5,-210 787.1,-197.8 784.95,-189.81 793.5,-179 801.75,-168.57 871.25,-154.02 923.82,-144.32"/>
<polygon fill="midnightblue" stroke="midnightblue" points="924.55,-147.75 933.76,-142.51 923.29,-140.86 924.55,-147.75"/>
</g>
<!-- Node67 -->
<g id="node26" class="node">
<title>Node67</title>
<g id="a_node26"><a xlink:title=" ">
<polygon fill="white" stroke="#bfbfbf" points="1524,-123.5 1524,-142.5 1553,-142.5 1553,-123.5 1524,-123.5"/>
<text text-anchor="middle" x="1538.5" y="-130.5" font-family="Helvetica,sans-Serif" font-size="10.00">bit</text>
</a>
</g>
</g>
<!-- Node75&#45;&gt;Node67 -->
<g id="edge51" class="edge">
<title>Node75&#45;&gt;Node67</title>
<path fill="none" stroke="midnightblue" d="M1349.26,-335.94C1402.69,-327.99 1478.78,-313.28 1541.5,-288 1574.45,-274.72 1576.84,-259.97 1609.5,-246 1667.78,-221.07 1708.75,-260.16 1747.5,-210 1796.48,-146.6 1628.76,-136.05 1563.44,-134.32"/>
<polygon fill="midnightblue" stroke="midnightblue" points="1563.27,-130.82 1553.19,-134.1 1563.12,-137.82 1563.27,-130.82"/>
</g>
<!-- Node89 -->
<g id="node27" class="node">
<title>Node89</title>
<g id="a_node27"><a xlink:href="message_8h.html" target="_top" xlink:title=" ">
<polygon fill="white" stroke="black" points="802.5,-185 802.5,-204 966.5,-204 966.5,-185 802.5,-185"/>
<text text-anchor="middle" x="884.5" y="-192" font-family="Helvetica,sans-Serif" font-size="10.00">emlabcpp/protocol/message.h</text>
</a>
</g>
</g>
<!-- Node75&#45;&gt;Node89 -->
<g id="edge39" class="edge">
<title>Node75&#45;&gt;Node89</title>
<path fill="none" stroke="midnightblue" d="M1215.99,-338.71C1132.4,-331.06 994.64,-314.79 951.5,-288 922.69,-270.11 902.47,-234.84 892.22,-213.4"/>
<polygon fill="midnightblue" stroke="midnightblue" points="895.33,-211.77 888,-204.12 888.96,-214.67 895.33,-211.77"/>
</g>
<!-- Node93 -->
<g id="node28" class="node">
<title>Node93</title>
<g id="a_node28"><a xlink:href="packet_8h.html" target="_top" xlink:title=" ">
<polygon fill="white" stroke="red" points="1618.5,-257.5 1618.5,-276.5 1770.5,-276.5 1770.5,-257.5 1618.5,-257.5"/>
<text text-anchor="middle" x="1694.5" y="-264.5" font-family="Helvetica,sans-Serif" font-size="10.00">emlabcpp/protocol/packet.h</text>
</a>
</g>
</g>
<!-- Node75&#45;&gt;Node93 -->
<g id="edge42" class="edge">
<title>Node75&#45;&gt;Node93</title>
<path fill="none" stroke="midnightblue" d="M1349.27,-333.32C1414.51,-322.66 1516.55,-305.41 1604.5,-288 1618.65,-285.2 1633.99,-281.89 1647.93,-278.78"/>
<polygon fill="midnightblue" stroke="midnightblue" points="1648.81,-282.17 1657.8,-276.56 1647.27,-275.34 1648.81,-282.17"/>
</g>
<!-- Node88 -->
<g id="node29" class="node">
<title>Node88</title>
<g id="a_node29"><a xlink:href="traits_8h.html" target="_top" xlink:title=" ">
<polygon fill="white" stroke="red" points="960,-257.5 960,-276.5 1105,-276.5 1105,-257.5 960,-257.5"/>
<text text-anchor="middle" x="1032.5" y="-264.5" font-family="Helvetica,sans-Serif" font-size="10.00">emlabcpp/protocol/traits.h</text>
</a>
</g>
</g>
<!-- Node75&#45;&gt;Node88 -->
<g id="edge43" class="edge">
<title>Node75&#45;&gt;Node88</title>
<path fill="none" stroke="midnightblue" d="M1236.35,-329.97C1188.58,-315.45 1114.83,-293.03 1070.36,-279.51"/>
<polygon fill="midnightblue" stroke="midnightblue" points="1071.11,-276.08 1060.53,-276.52 1069.08,-282.78 1071.11,-276.08"/>
</g>
<!-- Node76&#45;&gt;Node78 -->
<g id="edge27" class="edge">
<title>Node76&#45;&gt;Node78</title>
<path fill="none" stroke="midnightblue" d="M1405.09,-251.9C1429.81,-239.27 1465.79,-220.9 1489.88,-208.59"/>
<polygon fill="midnightblue" stroke="midnightblue" points="1491.48,-211.7 1498.8,-204.03 1488.3,-205.47 1491.48,-211.7"/>
</g>
<!-- Node76&#45;&gt;Node80 -->
<g id="edge28" class="edge">
<title>Node76&#45;&gt;Node80</title>
<path fill="none" stroke="midnightblue" d="M1369.61,-251.73C1363.49,-240.67 1354.97,-225.27 1348.39,-213.38"/>
<polygon fill="midnightblue" stroke="midnightblue" points="1351.32,-211.45 1343.42,-204.39 1345.2,-214.84 1351.32,-211.45"/>
</g>
<!-- Node86&#45;&gt;Node16 -->
<g id="edge35" class="edge">
<title>Node86&#45;&gt;Node16</title>
<path fill="none" stroke="midnightblue" d="M1132.5,-184.8C1132.5,-165.35 1132.5,-117.99 1132.5,-91.4"/>
<polygon fill="midnightblue" stroke="midnightblue" points="1136,-91.12 1132.5,-81.12 1129,-91.12 1136,-91.12"/>
</g>
<!-- Node86&#45;&gt;Node87 -->
<g id="edge31" class="edge">
<title>Node86&#45;&gt;Node87</title>
<path fill="none" stroke="midnightblue" d="M1111.15,-184.98C1085.81,-174.86 1043.36,-157.9 1014.43,-146.35"/>
<polygon fill="midnightblue" stroke="midnightblue" points="1015.39,-142.97 1004.81,-142.51 1012.8,-149.47 1015.39,-142.97"/>
</g>
<!-- Node86&#45;&gt;Node67 -->
<g id="edge34" class="edge">
<title>Node86&#45;&gt;Node67</title>
<path fill="none" stroke="midnightblue" d="M1190.67,-184.98C1280.65,-171.79 1449.83,-146.99 1513.46,-137.67"/>
<polygon fill="midnightblue" stroke="midnightblue" points="1514.35,-141.08 1523.74,-136.16 1513.34,-134.15 1514.35,-141.08"/>
</g>
<!-- Node87&#45;&gt;Node48 -->
<g id="edge32" class="edge">
<title>Node87&#45;&gt;Node48</title>
<path fill="none" stroke="midnightblue" d="M1054.66,-124.67C1163.81,-113.44 1371.7,-92.04 1484.34,-80.44"/>
<polygon fill="midnightblue" stroke="midnightblue" points="1485.01,-83.89 1494.6,-79.39 1484.3,-76.93 1485.01,-83.89"/>
</g>
<!-- Node87&#45;&gt;Node8 -->
<g id="edge33" class="edge">
<title>Node87&#45;&gt;Node8</title>
<path fill="none" stroke="midnightblue" d="M983.5,-123.3C983.5,-103.85 983.5,-56.49 983.5,-29.9"/>
<polygon fill="midnightblue" stroke="midnightblue" points="987,-29.62 983.5,-19.62 980,-29.62 987,-29.62"/>
</g>
<!-- Node89&#45;&gt;Node6 -->
<g id="edge40" class="edge">
<title>Node89&#45;&gt;Node6</title>
<path fill="none" stroke="midnightblue" d="M877.34,-184.98C869.76,-175.96 857.63,-161.52 848.21,-150.31"/>
<polygon fill="midnightblue" stroke="midnightblue" points="850.76,-147.91 841.65,-142.51 845.4,-152.42 850.76,-147.91"/>
</g>
<!-- Node89&#45;&gt;Node30 -->
<g id="edge41" class="edge">
<title>Node89&#45;&gt;Node30</title>
<path fill="none" stroke="midnightblue" d="M934.36,-184.98C997.28,-174.22 1105.4,-155.73 1172.7,-144.22"/>
<polygon fill="midnightblue" stroke="midnightblue" points="1173.47,-147.64 1182.73,-142.51 1172.29,-140.74 1173.47,-147.64"/>
</g>
<!-- Node88&#45;&gt;Node16 -->
<g id="edge47" class="edge">
<title>Node88&#45;&gt;Node16</title>
<path fill="none" stroke="midnightblue" d="M1033.27,-257.47C1034.98,-241.43 1039.96,-205.98 1052.5,-179 1069.05,-143.4 1098.82,-108.19 1117.01,-88.5"/>
<polygon fill="midnightblue" stroke="midnightblue" points="1119.71,-90.73 1124.02,-81.06 1114.62,-85.93 1119.71,-90.73"/>
</g>
<!-- Node88&#45;&gt;Node86 -->
<g id="edge44" class="edge">
<title>Node88&#45;&gt;Node86</title>
<path fill="none" stroke="midnightblue" d="M1044.76,-257.36C1061.48,-245.57 1091.66,-224.29 1111.89,-210.03"/>
<polygon fill="midnightblue" stroke="midnightblue" points="1113.98,-212.84 1120.14,-204.22 1109.95,-207.12 1113.98,-212.84"/>
</g>
<!-- Node88&#45;&gt;Node87 -->
<g id="edge45" class="edge">
<title>Node88&#45;&gt;Node87</title>
<path fill="none" stroke="midnightblue" d="M1029.28,-257.34C1021.39,-236.08 1000.93,-180.96 990.24,-152.15"/>
<polygon fill="midnightblue" stroke="midnightblue" points="993.42,-150.68 986.66,-142.52 986.86,-153.11 993.42,-150.68"/>
</g>
<!-- Node88&#45;&gt;Node89 -->
<g id="edge46" class="edge">
<title>Node88&#45;&gt;Node89</title>
<path fill="none" stroke="midnightblue" d="M1014.65,-257.5C988.98,-245.27 941.45,-222.63 911.48,-208.35"/>
<polygon fill="midnightblue" stroke="midnightblue" points="912.95,-205.17 902.42,-204.03 909.94,-211.49 912.95,-205.17"/>
</g>
</g>
</svg>
