<?xml version="1.0" encoding="UTF-8" standalone="no"?>
<!DOCTYPE svg PUBLIC "-//W3C//DTD SVG 1.1//EN"
 "http://www.w3.org/Graphics/SVG/1.1/DTD/svg11.dtd">
<!-- Generated by graphviz version 2.43.0 (0)
 -->
<!-- Title: include/emlabcpp/experimental/testing/parameters.h Pages: 1 -->
<svg width="1122pt" height="318pt"
 viewBox="0.00 0.00 1122.00 318.00" xmlns="http://www.w3.org/2000/svg" xmlns:xlink="http://www.w3.org/1999/xlink">
<g id="graph0" class="graph" transform="scale(1 1) rotate(0) translate(4 314)">
<title>include/emlabcpp/experimental/testing/parameters.h</title>
<polygon fill="white" stroke="transparent" points="-4,4 -4,-314 1118,-314 1118,4 -4,4"/>
<!-- Node1 -->
<g id="node1" class="node">
<title>Node1</title>
<g id="a_node1"><a xlink:title=" ">
<polygon fill="#bfbfbf" stroke="black" points="748,-279.5 748,-309.5 919,-309.5 919,-279.5 748,-279.5"/>
<text text-anchor="start" x="756" y="-297.5" font-family="Helvetica,sans-Serif" font-size="10.00">include/emlabcpp/experimental</text>
<text text-anchor="middle" x="833.5" y="-286.5" font-family="Helvetica,sans-Serif" font-size="10.00">/testing/parameters.h</text>
</a>
</g>
</g>
<!-- Node2 -->
<g id="node2" class="node">
<title>Node2</title>
<g id="a_node2"><a xlink:href="request__adapter_8h.html" target="_top" xlink:title=" ">
<polygon fill="white" stroke="black" points="0,-134.5 0,-175.5 137,-175.5 137,-134.5 0,-134.5"/>
<text text-anchor="start" x="8" y="-163.5" font-family="Helvetica,sans-Serif" font-size="10.00">emlabcpp/experimental</text>
<text text-anchor="start" x="8" y="-152.5" font-family="Helvetica,sans-Serif" font-size="10.00">/contiguous_tree/request</text>
<text text-anchor="middle" x="68.5" y="-141.5" font-family="Helvetica,sans-Serif" font-size="10.00">_adapter.h</text>
</a>
</g>
</g>
<!-- Node1&#45;&gt;Node2 -->
<g id="edge1" class="edge">
<title>Node1&#45;&gt;Node2</title>
<path fill="none" stroke="midnightblue" d="M747.83,-289.19C652.15,-283.26 493.05,-270.09 358.5,-243 279.34,-227.06 190.76,-198.93 132.57,-178.97"/>
<polygon fill="midnightblue" stroke="midnightblue" points="133.38,-175.55 122.79,-175.59 131.1,-182.16 133.38,-175.55"/>
</g>
<!-- Node40 -->
<g id="node5" class="node">
<title>Node40</title>
<g id="a_node5"><a xlink:href="function__view_8h.html" target="_top" xlink:title=" ">
<polygon fill="white" stroke="black" points="368,-212.5 368,-242.5 501,-242.5 501,-212.5 368,-212.5"/>
<text text-anchor="start" x="376" y="-230.5" font-family="Helvetica,sans-Serif" font-size="10.00">emlabcpp/experimental</text>
<text text-anchor="middle" x="434.5" y="-219.5" font-family="Helvetica,sans-Serif" font-size="10.00">/function_view.h</text>
</a>
</g>
</g>
<!-- Node1&#45;&gt;Node40 -->
<g id="edge4" class="edge">
<title>Node1&#45;&gt;Node40</title>
<path fill="none" stroke="midnightblue" d="M747.9,-279.56C677.66,-268.11 579.09,-252.05 511.35,-241.02"/>
<polygon fill="midnightblue" stroke="midnightblue" points="511.6,-237.51 501.17,-239.36 510.48,-244.42 511.6,-237.51"/>
</g>
<!-- Node41 -->
<g id="node7" class="node">
<title>Node41</title>
<g id="a_node7"><a xlink:href="coroutine_8h.html" target="_top" xlink:title=" ">
<polygon fill="white" stroke="black" points="593,-212.5 593,-242.5 726,-242.5 726,-212.5 593,-212.5"/>
<text text-anchor="start" x="601" y="-230.5" font-family="Helvetica,sans-Serif" font-size="10.00">emlabcpp/experimental</text>
<text text-anchor="middle" x="659.5" y="-219.5" font-family="Helvetica,sans-Serif" font-size="10.00">/testing/coroutine.h</text>
</a>
</g>
</g>
<!-- Node1&#45;&gt;Node41 -->
<g id="edge6" class="edge">
<title>Node1&#45;&gt;Node41</title>
<path fill="none" stroke="midnightblue" d="M795.74,-279.4C769.64,-269.64 734.71,-256.59 706.75,-246.15"/>
<polygon fill="midnightblue" stroke="midnightblue" points="707.77,-242.8 697.18,-242.58 705.32,-249.35 707.77,-242.8"/>
</g>
<!-- Node94 -->
<g id="node13" class="node">
<title>Node94</title>
<g id="a_node13"><a xlink:href="experimental_2testing_2protocol_8h.html" target="_top" xlink:title=" ">
<polygon fill="white" stroke="red" points="837,-67.5 837,-97.5 970,-97.5 970,-67.5 837,-67.5"/>
<text text-anchor="start" x="845" y="-85.5" font-family="Helvetica,sans-Serif" font-size="10.00">emlabcpp/experimental</text>
<text text-anchor="middle" x="903.5" y="-74.5" font-family="Helvetica,sans-Serif" font-size="10.00">/testing/protocol.h</text>
</a>
</g>
</g>
<!-- Node1&#45;&gt;Node94 -->
<g id="edge19" class="edge">
<title>Node1&#45;&gt;Node94</title>
<path fill="none" stroke="midnightblue" d="M853.81,-279.22C879.89,-259.5 923.89,-221.18 941.5,-176 948.28,-158.61 947.42,-151.7 941.5,-134 938.06,-123.7 931.59,-113.81 924.96,-105.56"/>
<polygon fill="midnightblue" stroke="midnightblue" points="927.55,-103.2 918.38,-97.9 922.24,-107.76 927.55,-103.2"/>
</g>
<!-- Node71 -->
<g id="node14" class="node">
<title>Node71</title>
<g id="a_node14"><a xlink:href="handler_8h.html" target="_top" xlink:title=" ">
<polygon fill="white" stroke="red" points="959,-6 959,-25 1114,-25 1114,-6 959,-6"/>
<text text-anchor="middle" x="1036.5" y="-13" font-family="Helvetica,sans-Serif" font-size="10.00">emlabcpp/protocol/handler.h</text>
</a>
</g>
</g>
<!-- Node1&#45;&gt;Node71 -->
<g id="edge20" class="edge">
<title>Node1&#45;&gt;Node71</title>
<path fill="none" stroke="midnightblue" d="M883.68,-279.4C905.24,-271.41 929.56,-259.63 947.5,-243 1009.8,-185.27 1029.14,-78.53 1034.57,-35.36"/>
<polygon fill="midnightblue" stroke="midnightblue" points="1038.05,-35.72 1035.71,-25.39 1031.1,-34.92 1038.05,-35.72"/>
</g>
<!-- Node64 -->
<g id="node15" class="node">
<title>Node64</title>
<g id="a_node15"><a xlink:href="static__function_8h.html" target="_top" xlink:title=" ">
<polygon fill="white" stroke="red" points="792,-6 792,-25 941,-25 941,-6 792,-6"/>
<text text-anchor="middle" x="866.5" y="-13" font-family="Helvetica,sans-Serif" font-size="10.00">emlabcpp/static_function.h</text>
</a>
</g>
</g>
<!-- Node1&#45;&gt;Node64 -->
<g id="edge21" class="edge">
<title>Node1&#45;&gt;Node64</title>
<path fill="none" stroke="midnightblue" d="M867.85,-279.35C885.49,-270.8 906.4,-258.53 921.5,-243 969.89,-193.24 969.99,-166.75 979.5,-98 981.39,-84.35 987,-78.56 979.5,-67 966.88,-47.53 944.8,-35.51 923.5,-28.1"/>
<polygon fill="midnightblue" stroke="midnightblue" points="924.39,-24.71 913.8,-25.02 922.26,-31.38 924.39,-24.71"/>
</g>
<!-- Node3 -->
<g id="node3" class="node">
<title>Node3</title>
<g id="a_node3"><a xlink:href="experimental_2contiguous__tree_2base_8h.html" target="_top" xlink:title=" ">
<polygon fill="white" stroke="red" points="347,-0.5 347,-30.5 480,-30.5 480,-0.5 347,-0.5"/>
<text text-anchor="start" x="355" y="-18.5" font-family="Helvetica,sans-Serif" font-size="10.00">emlabcpp/experimental</text>
<text text-anchor="middle" x="413.5" y="-7.5" font-family="Helvetica,sans-Serif" font-size="10.00">/contiguous_tree/base.h</text>
</a>
</g>
</g>
<!-- Node2&#45;&gt;Node3 -->
<g id="edge2" class="edge">
<title>Node2&#45;&gt;Node3</title>
<path fill="none" stroke="midnightblue" d="M89.58,-134.35C112.12,-114.41 149.74,-84.12 187.5,-67 234.82,-45.55 291.95,-32.89 336.94,-25.61"/>
<polygon fill="midnightblue" stroke="midnightblue" points="337.59,-29.05 346.93,-24.05 336.5,-22.13 337.59,-29.05"/>
</g>
<!-- Node37 -->
<g id="node4" class="node">
<title>Node37</title>
<g id="a_node4"><a xlink:href="logging_8h.html" target="_top" xlink:title=" ">
<polygon fill="white" stroke="red" points="197,-67.5 197,-97.5 330,-97.5 330,-67.5 197,-67.5"/>
<text text-anchor="start" x="205" y="-85.5" font-family="Helvetica,sans-Serif" font-size="10.00">emlabcpp/experimental</text>
<text text-anchor="middle" x="263.5" y="-74.5" font-family="Helvetica,sans-Serif" font-size="10.00">/logging.h</text>
</a>
</g>
</g>
<!-- Node2&#45;&gt;Node37 -->
<g id="edge3" class="edge">
<title>Node2&#45;&gt;Node37</title>
<path fill="none" stroke="midnightblue" d="M122.56,-134.46C151.5,-123.99 186.85,-111.21 214.91,-101.07"/>
<polygon fill="midnightblue" stroke="midnightblue" points="216.29,-104.29 224.51,-97.6 213.91,-97.71 216.29,-104.29"/>
</g>
<!-- Node6 -->
<g id="node6" class="node">
<title>Node6</title>
<g id="a_node6"><a xlink:href="concepts_8h.html" target="_top" xlink:title=" ">
<polygon fill="white" stroke="red" points="155.5,-145.5 155.5,-164.5 275.5,-164.5 275.5,-145.5 155.5,-145.5"/>
<text text-anchor="middle" x="215.5" y="-152.5" font-family="Helvetica,sans-Serif" font-size="10.00">emlabcpp/concepts.h</text>
</a>
</g>
</g>
<!-- Node40&#45;&gt;Node6 -->
<g id="edge5" class="edge">
<title>Node40&#45;&gt;Node6</title>
<path fill="none" stroke="midnightblue" d="M390.97,-212.49C350.21,-199.36 289.99,-179.98 251.77,-167.67"/>
<polygon fill="midnightblue" stroke="midnightblue" points="252.67,-164.29 242.08,-164.55 250.52,-170.95 252.67,-164.29"/>
</g>
<!-- Node42 -->
<g id="node8" class="node">
<title>Node42</title>
<g id="a_node8"><a xlink:href="memory__promise_8h.html" target="_top" xlink:title=" ">
<polygon fill="white" stroke="red" points="294,-140 294,-170 433,-170 433,-140 294,-140"/>
<text text-anchor="start" x="302" y="-158" font-family="Helvetica,sans-Serif" font-size="10.00">emlabcpp/experimental</text>
<text text-anchor="middle" x="363.5" y="-147" font-family="Helvetica,sans-Serif" font-size="10.00">/coro/memory_promise.h</text>
</a>
</g>
</g>
<!-- Node41&#45;&gt;Node42 -->
<g id="edge7" class="edge">
<title>Node41&#45;&gt;Node42</title>
<path fill="none" stroke="midnightblue" d="M596.92,-212.41C553.29,-202.49 493.77,-188.75 441.5,-176 436.9,-174.88 432.16,-173.7 427.39,-172.51"/>
<polygon fill="midnightblue" stroke="midnightblue" points="428.14,-169.09 417.59,-170.04 426.43,-175.88 428.14,-169.09"/>
</g>
<!-- Node46 -->
<g id="node9" class="node">
<title>Node46</title>
<g id="a_node9"><a xlink:href="owning__coroutine__handle_8h.html" target="_top" xlink:title=" ">
<polygon fill="white" stroke="red" points="451,-134.5 451,-175.5 584,-175.5 584,-134.5 451,-134.5"/>
<text text-anchor="start" x="459" y="-163.5" font-family="Helvetica,sans-Serif" font-size="10.00">emlabcpp/experimental</text>
<text text-anchor="start" x="459" y="-152.5" font-family="Helvetica,sans-Serif" font-size="10.00">/coro/owning_coroutine</text>
<text text-anchor="middle" x="517.5" y="-141.5" font-family="Helvetica,sans-Serif" font-size="10.00">_handle.h</text>
</a>
</g>
</g>
<!-- Node41&#45;&gt;Node46 -->
<g id="edge9" class="edge">
<title>Node41&#45;&gt;Node46</title>
<path fill="none" stroke="midnightblue" d="M631.11,-212.4C612.48,-203.16 587.65,-190.83 565.95,-180.05"/>
<polygon fill="midnightblue" stroke="midnightblue" points="567.38,-176.86 556.87,-175.55 564.27,-183.13 567.38,-176.86"/>
</g>
<!-- Node47 -->
<g id="node10" class="node">
<title>Node47</title>
<g id="a_node10"><a xlink:title=" ">
<polygon fill="white" stroke="#bfbfbf" points="534.5,-73 534.5,-92 596.5,-92 596.5,-73 534.5,-73"/>
<text text-anchor="middle" x="565.5" y="-80" font-family="Helvetica,sans-Serif" font-size="10.00">coroutine</text>
</a>
</g>
</g>
<!-- Node41&#45;&gt;Node47 -->
<g id="edge18" class="edge">
<title>Node41&#45;&gt;Node47</title>
<path fill="none" stroke="midnightblue" d="M650.14,-212.27C632.79,-185.86 595.67,-129.39 576.89,-100.82"/>
<polygon fill="midnightblue" stroke="midnightblue" points="579.69,-98.72 571.27,-92.28 573.84,-102.56 579.69,-98.72"/>
</g>
<!-- Node48 -->
<g id="node11" class="node">
<title>Node48</title>
<g id="a_node11"><a xlink:href="experimental_2testing_2convert_8h.html" target="_top" xlink:title=" ">
<polygon fill="white" stroke="red" points="641,-140 641,-170 774,-170 774,-140 641,-140"/>
<text text-anchor="start" x="649" y="-158" font-family="Helvetica,sans-Serif" font-size="10.00">emlabcpp/experimental</text>
<text text-anchor="middle" x="707.5" y="-147" font-family="Helvetica,sans-Serif" font-size="10.00">/testing/convert.h</text>
</a>
</g>
</g>
<!-- Node41&#45;&gt;Node48 -->
<g id="edge11" class="edge">
<title>Node41&#45;&gt;Node48</title>
<path fill="none" stroke="midnightblue" d="M669.21,-212.23C675.78,-202.58 684.6,-189.63 692.12,-178.59"/>
<polygon fill="midnightblue" stroke="midnightblue" points="695.07,-180.48 697.8,-170.25 689.28,-176.54 695.07,-180.48"/>
</g>
<!-- Node67 -->
<g id="node12" class="node">
<title>Node67</title>
<g id="a_node12"><a xlink:href="reactor__interface__adapter_8h.html" target="_top" xlink:title=" ">
<polygon fill="white" stroke="red" points="792.5,-134.5 792.5,-175.5 932.5,-175.5 932.5,-134.5 792.5,-134.5"/>
<text text-anchor="start" x="800.5" y="-163.5" font-family="Helvetica,sans-Serif" font-size="10.00">emlabcpp/experimental</text>
<text text-anchor="start" x="800.5" y="-152.5" font-family="Helvetica,sans-Serif" font-size="10.00">/testing/reactor_interface</text>
<text text-anchor="middle" x="862.5" y="-141.5" font-family="Helvetica,sans-Serif" font-size="10.00">_adapter.h</text>
</a>
</g>
</g>
<!-- Node41&#45;&gt;Node67 -->
<g id="edge12" class="edge">
<title>Node41&#45;&gt;Node67</title>
<path fill="none" stroke="midnightblue" d="M700.09,-212.4C727.67,-202.83 764.77,-189.94 796.54,-178.91"/>
<polygon fill="midnightblue" stroke="midnightblue" points="797.92,-182.13 806.22,-175.55 795.62,-175.52 797.92,-182.13"/>
</g>
<!-- Node42&#45;&gt;Node37 -->
<g id="edge8" class="edge">
<title>Node42&#45;&gt;Node37</title>
<path fill="none" stroke="midnightblue" d="M343.26,-139.73C328.39,-129.25 308,-114.87 291.55,-103.28"/>
<polygon fill="midnightblue" stroke="midnightblue" points="293.55,-100.41 283.37,-97.5 289.52,-106.13 293.55,-100.41"/>
</g>
<!-- Node46&#45;&gt;Node47 -->
<g id="edge10" class="edge">
<title>Node46&#45;&gt;Node47</title>
<path fill="none" stroke="midnightblue" d="M530.87,-134.36C538.09,-123.76 546.92,-110.79 553.86,-100.6"/>
<polygon fill="midnightblue" stroke="midnightblue" points="556.86,-102.41 559.59,-92.17 551.07,-98.47 556.86,-102.41"/>
</g>
<!-- Node67&#45;&gt;Node94 -->
<g id="edge13" class="edge">
<title>Node67&#45;&gt;Node94</title>
<path fill="none" stroke="midnightblue" d="M873.92,-134.36C878.92,-125.77 884.81,-115.64 890.02,-106.68"/>
<polygon fill="midnightblue" stroke="midnightblue" points="893.13,-108.3 895.13,-97.89 887.08,-104.78 893.13,-108.3"/>
</g>
<!-- Node67&#45;&gt;Node64 -->
<g id="edge17" class="edge">
<title>Node67&#45;&gt;Node64</title>
<path fill="none" stroke="midnightblue" d="M846.36,-134.17C834.14,-116.67 820.69,-90.38 828.5,-67 832.81,-54.09 841.87,-41.84 850.06,-32.63"/>
<polygon fill="midnightblue" stroke="midnightblue" points="852.84,-34.78 857.17,-25.11 847.76,-29.97 852.84,-34.78"/>
</g>
<!-- Node94&#45;&gt;Node3 -->
<g id="edge14" class="edge">
<title>Node94&#45;&gt;Node3</title>
<path fill="none" stroke="midnightblue" d="M836.91,-72.67C746.65,-60.69 585.83,-39.36 490.49,-26.71"/>
<polygon fill="midnightblue" stroke="midnightblue" points="490.71,-23.21 480.34,-25.37 489.79,-30.15 490.71,-23.21"/>
</g>
<!-- Node94&#45;&gt;Node71 -->
<g id="edge15" class="edge">
<title>Node94&#45;&gt;Node71</title>
<path fill="none" stroke="midnightblue" d="M932.36,-67.4C955.39,-56.14 987.39,-40.5 1009.82,-29.54"/>
<polygon fill="midnightblue" stroke="midnightblue" points="1011.65,-32.54 1019.09,-25.01 1008.57,-26.25 1011.65,-32.54"/>
</g>
<!-- Node94&#45;&gt;Node64 -->
<g id="edge16" class="edge">
<title>Node94&#45;&gt;Node64</title>
<path fill="none" stroke="midnightblue" d="M895.47,-67.4C889.87,-57.56 882.37,-44.38 876.4,-33.89"/>
<polygon fill="midnightblue" stroke="midnightblue" points="879.44,-32.15 871.45,-25.19 873.35,-35.62 879.44,-32.15"/>
</g>
</g>
</svg>
