<?xml version="1.0" encoding="UTF-8" standalone="no"?>
<!DOCTYPE svg PUBLIC "-//W3C//DTD SVG 1.1//EN"
 "http://www.w3.org/Graphics/SVG/1.1/DTD/svg11.dtd">
<!-- Generated by graphviz version 2.43.0 (0)
 -->
<!-- Title: include/emlabcpp/physical_quantity.h Pages: 1 -->
<svg width="1017pt" height="274pt"
 viewBox="0.00 0.00 1017.00 274.00" xmlns="http://www.w3.org/2000/svg" xmlns:xlink="http://www.w3.org/1999/xlink">
<g id="graph0" class="graph" transform="scale(1 1) rotate(0) translate(4 270)">
<title>include/emlabcpp/physical_quantity.h</title>
<polygon fill="white" stroke="transparent" points="-4,4 -4,-270 1013,-270 1013,4 -4,4"/>
<!-- Node1 -->
<g id="node1" class="node">
<title>Node1</title>
<g id="a_node1"><a xlink:title=" ">
<polygon fill="#bfbfbf" stroke="black" points="324.5,-235.5 324.5,-265.5 470.5,-265.5 470.5,-235.5 324.5,-235.5"/>
<text text-anchor="start" x="332.5" y="-253.5" font-family="Helvetica,sans-Serif" font-size="10.00">include/emlabcpp/physical</text>
<text text-anchor="middle" x="397.5" y="-242.5" font-family="Helvetica,sans-Serif" font-size="10.00">_quantity.h</text>
</a>
</g>
</g>
<!-- Node2 -->
<g id="node2" class="node">
<title>Node2</title>
<g id="a_node2"><a xlink:href="algorithm_8h.html" target="_top" xlink:title=" ">
<polygon fill="white" stroke="black" points="335.5,-179.5 335.5,-198.5 459.5,-198.5 459.5,-179.5 335.5,-179.5"/>
<text text-anchor="middle" x="397.5" y="-186.5" font-family="Helvetica,sans-Serif" font-size="10.00">emlabcpp/algorithm.h</text>
</a>
</g>
</g>
<!-- Node1&#45;&gt;Node2 -->
<g id="edge1" class="edge">
<title>Node1&#45;&gt;Node2</title>
<path fill="none" stroke="midnightblue" d="M397.5,-235.4C397.5,-227.47 397.5,-217.46 397.5,-208.86"/>
<polygon fill="midnightblue" stroke="midnightblue" points="401,-208.66 397.5,-198.66 394,-208.66 401,-208.66"/>
</g>
<!-- Node16 -->
<g id="node6" class="node">
<title>Node16</title>
<g id="a_node6"><a xlink:title=" ">
<polygon fill="white" stroke="#bfbfbf" points="258.5,-0.5 258.5,-19.5 302.5,-19.5 302.5,-0.5 258.5,-0.5"/>
<text text-anchor="middle" x="280.5" y="-7.5" font-family="Helvetica,sans-Serif" font-size="10.00">string</text>
</a>
</g>
</g>
<!-- Node1&#45;&gt;Node16 -->
<g id="edge27" class="edge">
<title>Node1&#45;&gt;Node16</title>
<path fill="none" stroke="midnightblue" d="M324.25,-247.1C251.22,-240.33 142.51,-217.42 89.5,-143 43.22,-78.02 182.65,-34.62 248.31,-18.27"/>
<polygon fill="midnightblue" stroke="midnightblue" points="249.28,-21.63 258.18,-15.88 247.63,-14.83 249.28,-21.63"/>
</g>
<!-- Node28 -->
<g id="node16" class="node">
<title>Node28</title>
<g id="a_node16"><a xlink:href="quantity_8h.html" target="_top" xlink:title=" ">
<polygon fill="white" stroke="black" points="755.5,-118 755.5,-137 871.5,-137 871.5,-118 755.5,-118"/>
<text text-anchor="middle" x="813.5" y="-125" font-family="Helvetica,sans-Serif" font-size="10.00">emlabcpp/quantity.h</text>
</a>
</g>
</g>
<!-- Node1&#45;&gt;Node28 -->
<g id="edge19" class="edge">
<title>Node1&#45;&gt;Node28</title>
<path fill="none" stroke="midnightblue" d="M446.03,-235.38C529.42,-211.13 698.24,-162.03 774.52,-139.84"/>
<polygon fill="midnightblue" stroke="midnightblue" points="775.6,-143.17 784.22,-137.02 773.64,-136.45 775.6,-143.17"/>
</g>
<!-- Node3 -->
<g id="node3" class="node">
<title>Node3</title>
<g id="a_node3"><a xlink:href="impl_8h.html" target="_top" xlink:title=" ">
<polygon fill="white" stroke="black" points="98,-112.5 98,-142.5 213,-142.5 213,-112.5 98,-112.5"/>
<text text-anchor="start" x="106" y="-130.5" font-family="Helvetica,sans-Serif" font-size="10.00">emlabcpp/algorithm</text>
<text text-anchor="middle" x="155.5" y="-119.5" font-family="Helvetica,sans-Serif" font-size="10.00">/impl.h</text>
</a>
</g>
</g>
<!-- Node2&#45;&gt;Node3 -->
<g id="edge2" class="edge">
<title>Node2&#45;&gt;Node3</title>
<path fill="none" stroke="midnightblue" d="M362.83,-179.48C326.3,-170.49 267.87,-156.13 222.34,-144.93"/>
<polygon fill="midnightblue" stroke="midnightblue" points="223.08,-141.51 212.53,-142.52 221.41,-148.31 223.08,-141.51"/>
</g>
<!-- Node4 -->
<g id="node4" class="node">
<title>Node4</title>
<g id="a_node4"><a xlink:href="types_8h.html" target="_top" xlink:title=" ">
<polygon fill="white" stroke="red" points="228.5,-56.5 228.5,-75.5 332.5,-75.5 332.5,-56.5 228.5,-56.5"/>
<text text-anchor="middle" x="280.5" y="-63.5" font-family="Helvetica,sans-Serif" font-size="10.00">emlabcpp/types.h</text>
</a>
</g>
</g>
<!-- Node2&#45;&gt;Node4 -->
<g id="edge13" class="edge">
<title>Node2&#45;&gt;Node4</title>
<path fill="none" stroke="midnightblue" d="M335.48,-183.4C308.16,-177.92 278.47,-166.49 261.5,-143 248.98,-125.67 258.99,-100.98 268.59,-84.49"/>
<polygon fill="midnightblue" stroke="midnightblue" points="271.66,-86.18 274.02,-75.85 265.74,-82.46 271.66,-86.18"/>
</g>
<!-- Node10 -->
<g id="node7" class="node">
<title>Node10</title>
<g id="a_node7"><a xlink:title=" ">
<polygon fill="white" stroke="#bfbfbf" points="0,-56.5 0,-75.5 41,-75.5 41,-56.5 0,-56.5"/>
<text text-anchor="middle" x="20.5" y="-63.5" font-family="Helvetica,sans-Serif" font-size="10.00">tuple</text>
</a>
</g>
</g>
<!-- Node2&#45;&gt;Node10 -->
<g id="edge18" class="edge">
<title>Node2&#45;&gt;Node10</title>
<path fill="none" stroke="midnightblue" d="M335.38,-183.88C258.01,-177.91 130.94,-165.07 89.5,-143 64.02,-129.43 43.16,-102.6 31.27,-84.73"/>
<polygon fill="midnightblue" stroke="midnightblue" points="33.94,-82.41 25.62,-75.86 28.04,-86.17 33.94,-82.41"/>
</g>
<!-- Node17 -->
<g id="node8" class="node">
<title>Node17</title>
<g id="a_node8"><a xlink:href="bounded_8h.html" target="_top" xlink:title=" ">
<polygon fill="white" stroke="red" points="890,-118 890,-137 1009,-137 1009,-118 890,-118"/>
<text text-anchor="middle" x="949.5" y="-125" font-family="Helvetica,sans-Serif" font-size="10.00">emlabcpp/bounded.h</text>
</a>
</g>
</g>
<!-- Node2&#45;&gt;Node17 -->
<g id="edge7" class="edge">
<title>Node2&#45;&gt;Node17</title>
<path fill="none" stroke="midnightblue" d="M459.53,-184.49C551.73,-178.77 730.2,-165.72 880.5,-143 887.74,-141.91 895.36,-140.53 902.79,-139.07"/>
<polygon fill="midnightblue" stroke="midnightblue" points="903.66,-142.46 912.76,-137.03 902.26,-135.6 903.66,-142.46"/>
</g>
<!-- Node19 -->
<g id="node10" class="node">
<title>Node19</title>
<g id="a_node10"><a xlink:href="min__max_8h.html" target="_top" xlink:title=" ">
<polygon fill="white" stroke="red" points="425.5,-118 425.5,-137 547.5,-137 547.5,-118 425.5,-118"/>
<text text-anchor="middle" x="486.5" y="-125" font-family="Helvetica,sans-Serif" font-size="10.00">emlabcpp/min_max.h</text>
</a>
</g>
</g>
<!-- Node2&#45;&gt;Node19 -->
<g id="edge10" class="edge">
<title>Node2&#45;&gt;Node19</title>
<path fill="none" stroke="midnightblue" d="M410.25,-179.48C424.53,-169.93 447.9,-154.31 465.01,-142.87"/>
<polygon fill="midnightblue" stroke="midnightblue" points="467.4,-145.48 473.77,-137.01 463.51,-139.66 467.4,-145.48"/>
</g>
<!-- Node21 -->
<g id="node12" class="node">
<title>Node21</title>
<g id="a_node12"><a xlink:href="range_8h.html" target="_top" xlink:title=" ">
<polygon fill="white" stroke="red" points="565.5,-118 565.5,-137 669.5,-137 669.5,-118 565.5,-118"/>
<text text-anchor="middle" x="617.5" y="-125" font-family="Helvetica,sans-Serif" font-size="10.00">emlabcpp/range.h</text>
</a>
</g>
</g>
<!-- Node2&#45;&gt;Node21 -->
<g id="edge12" class="edge">
<title>Node2&#45;&gt;Node21</title>
<path fill="none" stroke="midnightblue" d="M429.02,-179.48C467.74,-169 533.52,-151.21 576.24,-139.66"/>
<polygon fill="midnightblue" stroke="midnightblue" points="577.3,-143 586.04,-137.01 575.47,-136.24 577.3,-143"/>
</g>
<!-- Node24 -->
<g id="node13" class="node">
<title>Node24</title>
<g id="a_node13"><a xlink:href="view_8h.html" target="_top" xlink:title=" ">
<polygon fill="white" stroke="red" points="270,-118 270,-137 369,-137 369,-118 270,-118"/>
<text text-anchor="middle" x="319.5" y="-125" font-family="Helvetica,sans-Serif" font-size="10.00">emlabcpp/view.h</text>
</a>
</g>
</g>
<!-- Node2&#45;&gt;Node24 -->
<g id="edge14" class="edge">
<title>Node2&#45;&gt;Node24</title>
<path fill="none" stroke="midnightblue" d="M386.32,-179.48C373.93,-170.02 353.71,-154.6 338.75,-143.19"/>
<polygon fill="midnightblue" stroke="midnightblue" points="340.73,-140.29 330.65,-137.01 336.48,-145.86 340.73,-140.29"/>
</g>
<!-- Node26 -->
<g id="node14" class="node">
<title>Node26</title>
<g id="a_node14"><a xlink:title=" ">
<polygon fill="white" stroke="#bfbfbf" points="405,-56.5 405,-75.5 452,-75.5 452,-56.5 405,-56.5"/>
<text text-anchor="middle" x="428.5" y="-63.5" font-family="Helvetica,sans-Serif" font-size="10.00">cmath</text>
</a>
</g>
</g>
<!-- Node2&#45;&gt;Node26 -->
<g id="edge16" class="edge">
<title>Node2&#45;&gt;Node26</title>
<path fill="none" stroke="midnightblue" d="M399.68,-179.1C403.16,-164.89 410.24,-136.23 416.5,-112 418.75,-103.28 421.32,-93.63 423.49,-85.51"/>
<polygon fill="midnightblue" stroke="midnightblue" points="426.94,-86.18 426.16,-75.62 420.18,-84.36 426.94,-86.18"/>
</g>
<!-- Node27 -->
<g id="node15" class="node">
<title>Node27</title>
<g id="a_node15"><a xlink:title=" ">
<polygon fill="white" stroke="#bfbfbf" points="688,-118 688,-137 737,-137 737,-118 688,-118"/>
<text text-anchor="middle" x="712.5" y="-125" font-family="Helvetica,sans-Serif" font-size="10.00">cstdlib</text>
</a>
</g>
</g>
<!-- Node2&#45;&gt;Node27 -->
<g id="edge17" class="edge">
<title>Node2&#45;&gt;Node27</title>
<path fill="none" stroke="midnightblue" d="M459.57,-182.46C517.15,-176.29 604.8,-164.27 678.5,-143 680.79,-142.34 683.13,-141.57 685.46,-140.73"/>
<polygon fill="midnightblue" stroke="midnightblue" points="686.8,-143.96 694.8,-137.01 684.21,-137.45 686.8,-143.96"/>
</g>
<!-- Node3&#45;&gt;Node4 -->
<g id="edge3" class="edge">
<title>Node3&#45;&gt;Node4</title>
<path fill="none" stroke="midnightblue" d="M185.12,-112.4C205.72,-102.59 232.98,-89.62 253.08,-80.05"/>
<polygon fill="midnightblue" stroke="midnightblue" points="254.79,-83.12 262.31,-75.66 251.78,-76.8 254.79,-83.12"/>
</g>
<!-- Node3&#45;&gt;Node10 -->
<g id="edge6" class="edge">
<title>Node3&#45;&gt;Node10</title>
<path fill="none" stroke="midnightblue" d="M123.51,-112.4C101.06,-102.51 71.29,-89.38 49.52,-79.79"/>
<polygon fill="midnightblue" stroke="midnightblue" points="50.71,-76.49 40.14,-75.66 47.88,-82.89 50.71,-76.49"/>
</g>
<!-- Node5 -->
<g id="node5" class="node">
<title>Node5</title>
<g id="a_node5"><a xlink:href="concepts_8h.html" target="_top" xlink:title=" ">
<polygon fill="white" stroke="red" points="703.5,-0.5 703.5,-19.5 823.5,-19.5 823.5,-0.5 703.5,-0.5"/>
<text text-anchor="middle" x="763.5" y="-7.5" font-family="Helvetica,sans-Serif" font-size="10.00">emlabcpp/concepts.h</text>
</a>
</g>
</g>
<!-- Node4&#45;&gt;Node5 -->
<g id="edge4" class="edge">
<title>Node4&#45;&gt;Node5</title>
<path fill="none" stroke="midnightblue" d="M332.65,-59.17C419.82,-49.42 595.19,-29.82 693.18,-18.86"/>
<polygon fill="midnightblue" stroke="midnightblue" points="693.74,-22.32 703.29,-17.73 692.96,-15.36 693.74,-22.32"/>
</g>
<!-- Node4&#45;&gt;Node16 -->
<g id="edge5" class="edge">
<title>Node4&#45;&gt;Node16</title>
<path fill="none" stroke="midnightblue" d="M280.5,-56.08C280.5,-49.01 280.5,-38.86 280.5,-29.99"/>
<polygon fill="midnightblue" stroke="midnightblue" points="284,-29.75 280.5,-19.75 277,-29.75 284,-29.75"/>
</g>
<!-- Node17&#45;&gt;Node5 -->
<g id="edge8" class="edge">
<title>Node17&#45;&gt;Node5</title>
<path fill="none" stroke="midnightblue" d="M950.04,-117.8C950.45,-103.02 949.04,-72.93 932.5,-56 906.82,-29.71 867.64,-18.22 833.47,-13.41"/>
<polygon fill="midnightblue" stroke="midnightblue" points="833.87,-9.93 823.51,-12.17 833,-16.88 833.87,-9.93"/>
</g>
<!-- Node11 -->
<g id="node9" class="node">
<title>Node11</title>
<g id="a_node9"><a xlink:title=" ">
<polygon fill="white" stroke="#bfbfbf" points="854,-56.5 854,-75.5 923,-75.5 923,-56.5 854,-56.5"/>
<text text-anchor="middle" x="888.5" y="-63.5" font-family="Helvetica,sans-Serif" font-size="10.00">type_traits</text>
</a>
</g>
</g>
<!-- Node17&#45;&gt;Node11 -->
<g id="edge9" class="edge">
<title>Node17&#45;&gt;Node11</title>
<path fill="none" stroke="midnightblue" d="M940.76,-117.98C931.34,-108.78 916.14,-93.96 904.55,-82.66"/>
<polygon fill="midnightblue" stroke="midnightblue" points="906.83,-79.99 897.22,-75.51 901.94,-85 906.83,-79.99"/>
</g>
<!-- Node20 -->
<g id="node11" class="node">
<title>Node20</title>
<g id="a_node11"><a xlink:title=" ">
<polygon fill="white" stroke="#bfbfbf" points="529,-56.5 529,-75.5 594,-75.5 594,-56.5 529,-56.5"/>
<text text-anchor="middle" x="561.5" y="-63.5" font-family="Helvetica,sans-Serif" font-size="10.00">functional</text>
</a>
</g>
</g>
<!-- Node19&#45;&gt;Node20 -->
<g id="edge11" class="edge">
<title>Node19&#45;&gt;Node20</title>
<path fill="none" stroke="midnightblue" d="M497.25,-117.98C509.05,-108.61 528.24,-93.38 542.58,-82.01"/>
<polygon fill="midnightblue" stroke="midnightblue" points="545.12,-84.47 550.77,-75.51 540.76,-78.98 545.12,-84.47"/>
</g>
<!-- Node24&#45;&gt;Node4 -->
<g id="edge15" class="edge">
<title>Node24&#45;&gt;Node4</title>
<path fill="none" stroke="midnightblue" d="M313.91,-117.98C308.12,-109.14 298.91,-95.09 291.63,-83.98"/>
<polygon fill="midnightblue" stroke="midnightblue" points="294.49,-81.95 286.08,-75.51 288.63,-85.79 294.49,-81.95"/>
</g>
<!-- Node28&#45;&gt;Node5 -->
<g id="edge20" class="edge">
<title>Node28&#45;&gt;Node5</title>
<path fill="none" stroke="midnightblue" d="M807.27,-117.95C800.4,-108.21 789.42,-91.61 782.5,-76 775.8,-60.89 770.72,-42.76 767.51,-29.5"/>
<polygon fill="midnightblue" stroke="midnightblue" points="770.91,-28.63 765.26,-19.67 764.08,-30.2 770.91,-28.63"/>
</g>
<!-- Node28&#45;&gt;Node16 -->
<g id="edge25" class="edge">
<title>Node28&#45;&gt;Node16</title>
<path fill="none" stroke="midnightblue" d="M792.42,-117.96C755,-103.14 674.25,-72.65 603.5,-56 498.7,-31.33 371.37,-18.48 312.81,-13.5"/>
<polygon fill="midnightblue" stroke="midnightblue" points="312.95,-10 302.69,-12.66 312.37,-16.98 312.95,-10"/>
</g>
<!-- Node28&#45;&gt;Node11 -->
<g id="edge26" class="edge">
<title>Node28&#45;&gt;Node11</title>
<path fill="none" stroke="midnightblue" d="M824.25,-117.98C836.05,-108.61 855.24,-93.38 869.58,-82.01"/>
<polygon fill="midnightblue" stroke="midnightblue" points="872.12,-84.47 877.77,-75.51 867.76,-78.98 872.12,-84.47"/>
</g>
<!-- Node28&#45;&gt;Node20 -->
<g id="edge22" class="edge">
<title>Node28&#45;&gt;Node20</title>
<path fill="none" stroke="midnightblue" d="M777.39,-117.98C731.65,-107.18 652.93,-88.59 604.24,-77.09"/>
<polygon fill="midnightblue" stroke="midnightblue" points="604.87,-73.64 594.33,-74.75 603.26,-80.46 604.87,-73.64"/>
</g>
<!-- Node28&#45;&gt;Node26 -->
<g id="edge21" class="edge">
<title>Node28&#45;&gt;Node26</title>
<path fill="none" stroke="midnightblue" d="M776.38,-117.97C766.69,-115.87 756.22,-113.74 746.5,-112 643.41,-93.58 520.43,-77.97 462.22,-70.96"/>
<polygon fill="midnightblue" stroke="midnightblue" points="462.48,-67.46 452.13,-69.75 461.64,-74.41 462.48,-67.46"/>
</g>
<!-- Node29 -->
<g id="node17" class="node">
<title>Node29</title>
<g id="a_node17"><a xlink:title=" ">
<polygon fill="white" stroke="#bfbfbf" points="791.5,-56.5 791.5,-75.5 835.5,-75.5 835.5,-56.5 791.5,-56.5"/>
<text text-anchor="middle" x="813.5" y="-63.5" font-family="Helvetica,sans-Serif" font-size="10.00">limits</text>
</a>
</g>
</g>
<!-- Node28&#45;&gt;Node29 -->
<g id="edge23" class="edge">
<title>Node28&#45;&gt;Node29</title>
<path fill="none" stroke="midnightblue" d="M813.5,-117.98C813.5,-109.58 813.5,-96.48 813.5,-85.66"/>
<polygon fill="midnightblue" stroke="midnightblue" points="817,-85.51 813.5,-75.51 810,-85.51 817,-85.51"/>
</g>
<!-- Node30 -->
<g id="node18" class="node">
<title>Node30</title>
<g id="a_node18"><a xlink:title=" ">
<polygon fill="white" stroke="#bfbfbf" points="696,-56.5 696,-75.5 735,-75.5 735,-56.5 696,-56.5"/>
<text text-anchor="middle" x="715.5" y="-63.5" font-family="Helvetica,sans-Serif" font-size="10.00">ratio</text>
</a>
</g>
</g>
<!-- Node28&#45;&gt;Node30 -->
<g id="edge24" class="edge">
<title>Node28&#45;&gt;Node30</title>
<path fill="none" stroke="midnightblue" d="M799.46,-117.98C783.45,-108.25 757.05,-92.23 738.13,-80.74"/>
<polygon fill="midnightblue" stroke="midnightblue" points="739.88,-77.71 729.51,-75.51 736.25,-83.69 739.88,-77.71"/>
</g>
</g>
</svg>
