<?xml version="1.0" encoding="UTF-8" standalone="no"?>
<!DOCTYPE svg PUBLIC "-//W3C//DTD SVG 1.1//EN"
 "http://www.w3.org/Graphics/SVG/1.1/DTD/svg11.dtd">
<!-- Generated by graphviz version 2.43.0 (0)
 -->
<!-- Title: include/emlabcpp/pid.h Pages: 1 -->
<svg width="142pt" height="140pt"
 viewBox="0.00 0.00 141.50 140.00" xmlns="http://www.w3.org/2000/svg" xmlns:xlink="http://www.w3.org/1999/xlink">
<g id="graph0" class="graph" transform="scale(1 1) rotate(0) translate(4 136)">
<title>include/emlabcpp/pid.h</title>
<polygon fill="white" stroke="transparent" points="-4,4 -4,-136 137.5,-136 137.5,4 -4,4"/>
<!-- Node1 -->
<g id="node1" class="node">
<title>Node1</title>
<g id="a_node1"><a xlink:title=" ">
<polygon fill="#bfbfbf" stroke="black" points="0,-112.5 0,-131.5 130,-131.5 130,-112.5 0,-112.5"/>
<text text-anchor="middle" x="65" y="-119.5" font-family="Helvetica,sans-Serif" font-size="10.00">include/emlabcpp/pid.h</text>
</a>
</g>
</g>
<!-- Node2 -->
<g id="node2" class="node">
<title>Node2</title>
<g id="a_node2"><a xlink:href="min__max_8h.html" target="_top" xlink:title=" ">
<polygon fill="white" stroke="black" points="4,-56.5 4,-75.5 126,-75.5 126,-56.5 4,-56.5"/>
<text text-anchor="middle" x="65" y="-63.5" font-family="Helvetica,sans-Serif" font-size="10.00">emlabcpp/min_max.h</text>
</a>
</g>
</g>
<!-- Node1&#45;&gt;Node2 -->
<g id="edge1" class="edge">
<title>Node1&#45;&gt;Node2</title>
<path fill="none" stroke="midnightblue" d="M65,-112.08C65,-105.01 65,-94.86 65,-85.99"/>
<polygon fill="midnightblue" stroke="midnightblue" points="68.5,-85.75 65,-75.75 61.5,-85.75 68.5,-85.75"/>
</g>
<!-- Node3 -->
<g id="node3" class="node">
<title>Node3</title>
<g id="a_node3"><a xlink:title=" ">
<polygon fill="white" stroke="#bfbfbf" points="8,-0.5 8,-19.5 50,-19.5 50,-0.5 8,-0.5"/>
<text text-anchor="middle" x="29" y="-7.5" font-family="Helvetica,sans-Serif" font-size="10.00">array</text>
</a>
</g>
</g>
<!-- Node2&#45;&gt;Node3 -->
<g id="edge2" class="edge">
<title>Node2&#45;&gt;Node3</title>
<path fill="none" stroke="midnightblue" d="M59.06,-56.08C54.02,-48.53 46.66,-37.49 40.49,-28.23"/>
<polygon fill="midnightblue" stroke="midnightblue" points="43.29,-26.13 34.83,-19.75 37.47,-30.01 43.29,-26.13"/>
</g>
<!-- Node4 -->
<g id="node4" class="node">
<title>Node4</title>
<g id="a_node4"><a xlink:title=" ">
<polygon fill="white" stroke="#bfbfbf" points="68.5,-0.5 68.5,-19.5 133.5,-19.5 133.5,-0.5 68.5,-0.5"/>
<text text-anchor="middle" x="101" y="-7.5" font-family="Helvetica,sans-Serif" font-size="10.00">functional</text>
</a>
</g>
</g>
<!-- Node2&#45;&gt;Node4 -->
<g id="edge3" class="edge">
<title>Node2&#45;&gt;Node4</title>
<path fill="none" stroke="midnightblue" d="M70.94,-56.08C75.98,-48.53 83.34,-37.49 89.51,-28.23"/>
<polygon fill="midnightblue" stroke="midnightblue" points="92.53,-30.01 95.17,-19.75 86.71,-26.13 92.53,-30.01"/>
</g>
</g>
</svg>
