<?xml version="1.0" encoding="UTF-8" standalone="no"?>
<!DOCTYPE svg PUBLIC "-//W3C//DTD SVG 1.1//EN"
 "http://www.w3.org/Graphics/SVG/1.1/DTD/svg11.dtd">
<!-- Generated by graphviz version 2.43.0 (0)
 -->
<!-- Title: include/emlabcpp/pid.h Pages: 1 -->
<svg width="587pt" height="207pt"
 viewBox="0.00 0.00 587.00 207.00" xmlns="http://www.w3.org/2000/svg" xmlns:xlink="http://www.w3.org/1999/xlink">
<g id="graph0" class="graph" transform="scale(1 1) rotate(0) translate(4 203)">
<title>include/emlabcpp/pid.h</title>
<polygon fill="white" stroke="transparent" points="-4,4 -4,-203 583,-203 583,4 -4,4"/>
<!-- Node1 -->
<g id="node1" class="node">
<title>Node1</title>
<g id="a_node1"><a xlink:title=" ">
<polygon fill="#bfbfbf" stroke="black" points="283.5,-179.5 283.5,-198.5 413.5,-198.5 413.5,-179.5 283.5,-179.5"/>
<text text-anchor="middle" x="348.5" y="-186.5" font-family="Helvetica,sans-Serif" font-size="10.00">include/emlabcpp/pid.h</text>
</a>
</g>
</g>
<!-- Node2 -->
<g id="node2" class="node">
<title>Node2</title>
<g id="a_node2"><a xlink:href="algorithm_8h.html" target="_top" xlink:title=" ">
<polygon fill="white" stroke="black" points="286.5,-123.5 286.5,-142.5 410.5,-142.5 410.5,-123.5 286.5,-123.5"/>
<text text-anchor="middle" x="348.5" y="-130.5" font-family="Helvetica,sans-Serif" font-size="10.00">emlabcpp/algorithm.h</text>
</a>
</g>
</g>
<!-- Node1&#45;&gt;Node2 -->
<g id="edge1" class="edge">
<title>Node1&#45;&gt;Node2</title>
<path fill="none" stroke="midnightblue" d="M348.5,-179.08C348.5,-172.01 348.5,-161.86 348.5,-152.99"/>
<polygon fill="midnightblue" stroke="midnightblue" points="352,-152.75 348.5,-142.75 345,-152.75 352,-152.75"/>
</g>
<!-- Node3 -->
<g id="node3" class="node">
<title>Node3</title>
<g id="a_node3"><a xlink:href="impl_8h.html" target="_top" xlink:title=" ">
<polygon fill="white" stroke="black" points="156,-56.5 156,-86.5 271,-86.5 271,-56.5 156,-56.5"/>
<text text-anchor="start" x="164" y="-74.5" font-family="Helvetica,sans-Serif" font-size="10.00">emlabcpp/algorithm</text>
<text text-anchor="middle" x="213.5" y="-63.5" font-family="Helvetica,sans-Serif" font-size="10.00">/impl.h</text>
</a>
</g>
</g>
<!-- Node2&#45;&gt;Node3 -->
<g id="edge2" class="edge">
<title>Node2&#45;&gt;Node3</title>
<path fill="none" stroke="midnightblue" d="M329.16,-123.48C309.76,-114.93 279.3,-101.5 254.51,-90.57"/>
<polygon fill="midnightblue" stroke="midnightblue" points="255.88,-87.35 245.32,-86.52 253.06,-93.76 255.88,-87.35"/>
</g>
<!-- Node4 -->
<g id="node4" class="node">
<title>Node4</title>
<g id="a_node4"><a xlink:href="types_8h.html" target="_top" xlink:title=" ">
<polygon fill="white" stroke="red" points="75.5,-0.5 75.5,-19.5 179.5,-19.5 179.5,-0.5 75.5,-0.5"/>
<text text-anchor="middle" x="127.5" y="-7.5" font-family="Helvetica,sans-Serif" font-size="10.00">emlabcpp/types.h</text>
</a>
</g>
</g>
<!-- Node2&#45;&gt;Node4 -->
<g id="edge6" class="edge">
<title>Node2&#45;&gt;Node4</title>
<path fill="none" stroke="midnightblue" d="M286.27,-125.32C234.49,-118.51 166.18,-106.18 146.5,-87 131.24,-72.13 127.54,-46.99 126.97,-29.73"/>
<polygon fill="midnightblue" stroke="midnightblue" points="130.47,-29.7 126.95,-19.7 123.47,-29.71 130.47,-29.7"/>
</g>
<!-- Node10 -->
<g id="node5" class="node">
<title>Node10</title>
<g id="a_node5"><a xlink:title=" ">
<polygon fill="white" stroke="#bfbfbf" points="307,-0.5 307,-19.5 348,-19.5 348,-0.5 307,-0.5"/>
<text text-anchor="middle" x="327.5" y="-7.5" font-family="Helvetica,sans-Serif" font-size="10.00">tuple</text>
</a>
</g>
</g>
<!-- Node2&#45;&gt;Node10 -->
<g id="edge11" class="edge">
<title>Node2&#45;&gt;Node10</title>
<path fill="none" stroke="midnightblue" d="M372.29,-123.5C388.22,-116.41 407.96,-104.61 417.5,-87 424.06,-74.89 424.74,-67.72 417.5,-56 404.56,-35.06 378.59,-23.53 357.86,-17.41"/>
<polygon fill="midnightblue" stroke="midnightblue" points="358.75,-14.02 348.18,-14.82 356.93,-20.78 358.75,-14.02"/>
</g>
<!-- Node17 -->
<g id="node6" class="node">
<title>Node17</title>
<g id="a_node6"><a xlink:href="bounded_8h.html" target="_top" xlink:title=" ">
<polygon fill="white" stroke="red" points="289,-62 289,-81 408,-81 408,-62 289,-62"/>
<text text-anchor="middle" x="348.5" y="-69" font-family="Helvetica,sans-Serif" font-size="10.00">emlabcpp/bounded.h</text>
</a>
</g>
</g>
<!-- Node2&#45;&gt;Node17 -->
<g id="edge5" class="edge">
<title>Node2&#45;&gt;Node17</title>
<path fill="none" stroke="midnightblue" d="M348.5,-123.48C348.5,-115.08 348.5,-101.98 348.5,-91.16"/>
<polygon fill="midnightblue" stroke="midnightblue" points="352,-91.01 348.5,-81.01 345,-91.01 352,-91.01"/>
</g>
<!-- Node19 -->
<g id="node7" class="node">
<title>Node19</title>
<g id="a_node7"><a xlink:href="view_8h.html" target="_top" xlink:title=" ">
<polygon fill="white" stroke="black" points="0,-62 0,-81 99,-81 99,-62 0,-62"/>
<text text-anchor="middle" x="49.5" y="-69" font-family="Helvetica,sans-Serif" font-size="10.00">emlabcpp/view.h</text>
</a>
</g>
</g>
<!-- Node2&#45;&gt;Node19 -->
<g id="edge7" class="edge">
<title>Node2&#45;&gt;Node19</title>
<path fill="none" stroke="midnightblue" d="M301.59,-123.5C254.09,-114.77 178.56,-100.59 113.5,-87 107.99,-85.85 102.23,-84.6 96.51,-83.34"/>
<polygon fill="midnightblue" stroke="midnightblue" points="96.87,-79.83 86.34,-81.07 95.34,-86.67 96.87,-79.83"/>
</g>
<!-- Node20 -->
<g id="node8" class="node">
<title>Node20</title>
<g id="a_node8"><a xlink:title=" ">
<polygon fill="white" stroke="#bfbfbf" points="465,-62 465,-81 512,-81 512,-62 465,-62"/>
<text text-anchor="middle" x="488.5" y="-69" font-family="Helvetica,sans-Serif" font-size="10.00">cmath</text>
</a>
</g>
</g>
<!-- Node2&#45;&gt;Node20 -->
<g id="edge9" class="edge">
<title>Node2&#45;&gt;Node20</title>
<path fill="none" stroke="midnightblue" d="M368.56,-123.48C392.26,-113.4 431.91,-96.55 459.08,-85"/>
<polygon fill="midnightblue" stroke="midnightblue" points="460.64,-88.14 468.48,-81.01 457.91,-81.7 460.64,-88.14"/>
</g>
<!-- Node21 -->
<g id="node9" class="node">
<title>Node21</title>
<g id="a_node9"><a xlink:title=" ">
<polygon fill="white" stroke="#bfbfbf" points="530,-62 530,-81 579,-81 579,-62 530,-62"/>
<text text-anchor="middle" x="554.5" y="-69" font-family="Helvetica,sans-Serif" font-size="10.00">cstdlib</text>
</a>
</g>
</g>
<!-- Node2&#45;&gt;Node21 -->
<g id="edge10" class="edge">
<title>Node2&#45;&gt;Node21</title>
<path fill="none" stroke="midnightblue" d="M388.54,-123.49C423.96,-115.52 476.79,-102.53 521.5,-87 523.36,-86.35 525.27,-85.65 527.17,-84.9"/>
<polygon fill="midnightblue" stroke="midnightblue" points="528.66,-88.08 536.55,-81.01 525.97,-81.61 528.66,-88.08"/>
</g>
<!-- Node3&#45;&gt;Node4 -->
<g id="edge3" class="edge">
<title>Node3&#45;&gt;Node4</title>
<path fill="none" stroke="midnightblue" d="M193.12,-56.4C179.59,-47.04 161.89,-34.79 148.28,-25.38"/>
<polygon fill="midnightblue" stroke="midnightblue" points="150.23,-22.47 140.01,-19.66 146.25,-28.23 150.23,-22.47"/>
</g>
<!-- Node3&#45;&gt;Node10 -->
<g id="edge4" class="edge">
<title>Node3&#45;&gt;Node10</title>
<path fill="none" stroke="midnightblue" d="M240.52,-56.4C259.13,-46.68 283.71,-33.86 301.99,-24.31"/>
<polygon fill="midnightblue" stroke="midnightblue" points="303.67,-27.39 310.91,-19.66 300.43,-21.18 303.67,-27.39"/>
</g>
<!-- Node19&#45;&gt;Node4 -->
<g id="edge8" class="edge">
<title>Node19&#45;&gt;Node4</title>
<path fill="none" stroke="midnightblue" d="M60.68,-61.98C73.07,-52.52 93.29,-37.1 108.25,-25.69"/>
<polygon fill="midnightblue" stroke="midnightblue" points="110.52,-28.36 116.35,-19.51 106.27,-22.79 110.52,-28.36"/>
</g>
</g>
</svg>
