<?xml version="1.0" encoding="UTF-8" standalone="no"?>
<!DOCTYPE svg PUBLIC "-//W3C//DTD SVG 1.1//EN"
 "http://www.w3.org/Graphics/SVG/1.1/DTD/svg11.dtd">
<!-- Generated by graphviz version 2.43.0 (0)
 -->
<!-- Title: include/emlabcpp/pid.h Pages: 1 -->
<svg width="620pt" height="375pt"
 viewBox="0.00 0.00 619.50 375.00" xmlns="http://www.w3.org/2000/svg" xmlns:xlink="http://www.w3.org/1999/xlink">
<g id="graph0" class="graph" transform="scale(1 1) rotate(0) translate(4 371)">
<title>include/emlabcpp/pid.h</title>
<polygon fill="white" stroke="transparent" points="-4,4 -4,-371 615.5,-371 615.5,4 -4,4"/>
<!-- Node1 -->
<g id="node1" class="node">
<title>Node1</title>
<g id="a_node1"><a xlink:title=" ">
<polygon fill="#bfbfbf" stroke="black" points="318,-347.5 318,-366.5 448,-366.5 448,-347.5 318,-347.5"/>
<text text-anchor="middle" x="383" y="-354.5" font-family="Helvetica,sans-Serif" font-size="10.00">include/emlabcpp/pid.h</text>
</a>
</g>
</g>
<!-- Node2 -->
<g id="node2" class="node">
<title>Node2</title>
<g id="a_node2"><a xlink:href="algorithm_8h.html" target="_top" xlink:title=" ">
<polygon fill="white" stroke="black" points="321,-291.5 321,-310.5 445,-310.5 445,-291.5 321,-291.5"/>
<text text-anchor="middle" x="383" y="-298.5" font-family="Helvetica,sans-Serif" font-size="10.00">emlabcpp/algorithm.h</text>
</a>
</g>
</g>
<!-- Node1&#45;&gt;Node2 -->
<g id="edge1" class="edge">
<title>Node1&#45;&gt;Node2</title>
<path fill="none" stroke="midnightblue" d="M383,-347.08C383,-340.01 383,-329.86 383,-320.99"/>
<polygon fill="midnightblue" stroke="midnightblue" points="386.5,-320.75 383,-310.75 379.5,-320.75 386.5,-320.75"/>
</g>
<!-- Node3 -->
<g id="node3" class="node">
<title>Node3</title>
<g id="a_node3"><a xlink:href="impl_8h.html" target="_top" xlink:title=" ">
<polygon fill="white" stroke="black" points="325.5,-224.5 325.5,-254.5 440.5,-254.5 440.5,-224.5 325.5,-224.5"/>
<text text-anchor="start" x="333.5" y="-242.5" font-family="Helvetica,sans-Serif" font-size="10.00">emlabcpp/algorithm</text>
<text text-anchor="middle" x="383" y="-231.5" font-family="Helvetica,sans-Serif" font-size="10.00">/impl.h</text>
</a>
</g>
</g>
<!-- Node2&#45;&gt;Node3 -->
<g id="edge2" class="edge">
<title>Node2&#45;&gt;Node3</title>
<path fill="none" stroke="midnightblue" d="M383,-291.48C383,-284.47 383,-274.19 383,-264.7"/>
<polygon fill="midnightblue" stroke="midnightblue" points="386.5,-264.52 383,-254.52 379.5,-264.52 386.5,-264.52"/>
</g>
<!-- Node4 -->
<g id="node4" class="node">
<title>Node4</title>
<g id="a_node4"><a xlink:href="types_8h.html" target="_top" xlink:title=" ">
<polygon fill="white" stroke="black" points="133,-168.5 133,-187.5 237,-187.5 237,-168.5 133,-168.5"/>
<text text-anchor="middle" x="185" y="-175.5" font-family="Helvetica,sans-Serif" font-size="10.00">emlabcpp/types.h</text>
</a>
</g>
</g>
<!-- Node2&#45;&gt;Node4 -->
<g id="edge20" class="edge">
<title>Node2&#45;&gt;Node4</title>
<path fill="none" stroke="midnightblue" d="M367.87,-291.35C352.28,-282.39 327.32,-267.92 306,-255 271.16,-233.89 231.24,-208.59 207.08,-193.16"/>
<polygon fill="midnightblue" stroke="midnightblue" points="208.65,-190.02 198.34,-187.58 204.88,-195.91 208.65,-190.02"/>
</g>
<!-- Node10 -->
<g id="node10" class="node">
<title>Node10</title>
<g id="a_node10"><a xlink:title=" ">
<polygon fill="white" stroke="#bfbfbf" points="409.5,-0.5 409.5,-19.5 450.5,-19.5 450.5,-0.5 409.5,-0.5"/>
<text text-anchor="middle" x="430" y="-7.5" font-family="Helvetica,sans-Serif" font-size="10.00">tuple</text>
</a>
</g>
</g>
<!-- Node2&#45;&gt;Node10 -->
<g id="edge25" class="edge">
<title>Node2&#45;&gt;Node10</title>
<path fill="none" stroke="midnightblue" d="M402.97,-291.49C418.11,-284.02 438.24,-271.74 450,-255 470.01,-226.51 469,-213.82 469,-179 469,-179 469,-179 469,-121 469,-86.72 451.96,-49.7 440.41,-28.54"/>
<polygon fill="midnightblue" stroke="midnightblue" points="443.4,-26.72 435.42,-19.75 437.31,-30.17 443.4,-26.72"/>
</g>
<!-- Node15 -->
<g id="node15" class="node">
<title>Node15</title>
<g id="a_node15"><a xlink:href="bounded_8h.html" target="_top" xlink:title=" ">
<polygon fill="white" stroke="black" points="257.5,-168.5 257.5,-187.5 376.5,-187.5 376.5,-168.5 257.5,-168.5"/>
<text text-anchor="middle" x="317" y="-175.5" font-family="Helvetica,sans-Serif" font-size="10.00">emlabcpp/bounded.h</text>
</a>
</g>
</g>
<!-- Node2&#45;&gt;Node15 -->
<g id="edge16" class="edge">
<title>Node2&#45;&gt;Node15</title>
<path fill="none" stroke="midnightblue" d="M360.54,-291.38C345.23,-284.18 326.14,-272.29 317,-255 307.58,-237.18 309.4,-213.57 312.4,-197.42"/>
<polygon fill="midnightblue" stroke="midnightblue" points="315.84,-198.11 314.55,-187.6 309,-196.62 315.84,-198.11"/>
</g>
<!-- Node17 -->
<g id="node17" class="node">
<title>Node17</title>
<g id="a_node17"><a xlink:href="view_8h.html" target="_top" xlink:title=" ">
<polygon fill="white" stroke="black" points="131.5,-230 131.5,-249 230.5,-249 230.5,-230 131.5,-230"/>
<text text-anchor="middle" x="181" y="-237" font-family="Helvetica,sans-Serif" font-size="10.00">emlabcpp/view.h</text>
</a>
</g>
</g>
<!-- Node2&#45;&gt;Node17 -->
<g id="edge21" class="edge">
<title>Node2&#45;&gt;Node17</title>
<path fill="none" stroke="midnightblue" d="M354.06,-291.48C318.73,-281.07 258.87,-263.44 219.64,-251.88"/>
<polygon fill="midnightblue" stroke="midnightblue" points="220.47,-248.48 209.89,-249.01 218.49,-255.19 220.47,-248.48"/>
</g>
<!-- Node18 -->
<g id="node18" class="node">
<title>Node18</title>
<g id="a_node18"><a xlink:title=" ">
<polygon fill="white" stroke="#bfbfbf" points="497.5,-230 497.5,-249 544.5,-249 544.5,-230 497.5,-230"/>
<text text-anchor="middle" x="521" y="-237" font-family="Helvetica,sans-Serif" font-size="10.00">cmath</text>
</a>
</g>
</g>
<!-- Node2&#45;&gt;Node18 -->
<g id="edge23" class="edge">
<title>Node2&#45;&gt;Node18</title>
<path fill="none" stroke="midnightblue" d="M402.77,-291.48C426.14,-281.4 465.21,-264.55 492,-253"/>
<polygon fill="midnightblue" stroke="midnightblue" points="493.47,-256.18 501.26,-249.01 490.7,-249.75 493.47,-256.18"/>
</g>
<!-- Node19 -->
<g id="node19" class="node">
<title>Node19</title>
<g id="a_node19"><a xlink:title=" ">
<polygon fill="white" stroke="#bfbfbf" points="562.5,-230 562.5,-249 611.5,-249 611.5,-230 562.5,-230"/>
<text text-anchor="middle" x="587" y="-237" font-family="Helvetica,sans-Serif" font-size="10.00">cstdlib</text>
</a>
</g>
</g>
<!-- Node2&#45;&gt;Node19 -->
<g id="edge24" class="edge">
<title>Node2&#45;&gt;Node19</title>
<path fill="none" stroke="midnightblue" d="M422.58,-291.44C457.58,-283.44 509.8,-270.42 554,-255 555.67,-254.42 557.36,-253.79 559.07,-253.13"/>
<polygon fill="midnightblue" stroke="midnightblue" points="560.8,-256.2 568.7,-249.15 558.12,-249.73 560.8,-256.2"/>
</g>
<!-- Node3&#45;&gt;Node4 -->
<g id="edge3" class="edge">
<title>Node3&#45;&gt;Node4</title>
<path fill="none" stroke="midnightblue" d="M336.33,-224.47C301.87,-214.12 255.54,-200.2 223.26,-190.5"/>
<polygon fill="midnightblue" stroke="midnightblue" points="223.89,-187.03 213.31,-187.51 221.88,-193.74 223.89,-187.03"/>
</g>
<!-- Node3&#45;&gt;Node10 -->
<g id="edge15" class="edge">
<title>Node3&#45;&gt;Node10</title>
<path fill="none" stroke="midnightblue" d="M387.17,-224.48C393.09,-204.22 403.99,-165.49 411,-132 418.53,-96.05 424.55,-53.52 427.67,-29.67"/>
<polygon fill="midnightblue" stroke="midnightblue" points="431.16,-29.93 428.96,-19.56 424.22,-29.04 431.16,-29.93"/>
</g>
<!-- Node5 -->
<g id="node5" class="node">
<title>Node5</title>
<g id="a_node5"><a xlink:href="concepts_8h.html" target="_top" xlink:title=" ">
<polygon fill="white" stroke="black" points="170,-112.5 170,-131.5 290,-131.5 290,-112.5 170,-112.5"/>
<text text-anchor="middle" x="230" y="-119.5" font-family="Helvetica,sans-Serif" font-size="10.00">emlabcpp/concepts.h</text>
</a>
</g>
</g>
<!-- Node4&#45;&gt;Node5 -->
<g id="edge4" class="edge">
<title>Node4&#45;&gt;Node5</title>
<path fill="none" stroke="midnightblue" d="M192.43,-168.08C198.85,-160.38 208.31,-149.03 216.12,-139.65"/>
<polygon fill="midnightblue" stroke="midnightblue" points="218.99,-141.67 222.71,-131.75 213.62,-137.19 218.99,-141.67"/>
</g>
<!-- Node6 -->
<g id="node6" class="node">
<title>Node6</title>
<g id="a_node6"><a xlink:href="types_2base_8h.html" target="_top" xlink:title=" ">
<polygon fill="white" stroke="black" points="82,-56.5 82,-75.5 212,-75.5 212,-56.5 82,-56.5"/>
<text text-anchor="middle" x="147" y="-63.5" font-family="Helvetica,sans-Serif" font-size="10.00">emlabcpp/types/base.h</text>
</a>
</g>
</g>
<!-- Node4&#45;&gt;Node6 -->
<g id="edge13" class="edge">
<title>Node4&#45;&gt;Node6</title>
<path fill="none" stroke="midnightblue" d="M179.46,-168.37C174.03,-159.56 165.87,-145.3 161,-132 155.47,-116.91 151.82,-99.01 149.63,-85.82"/>
<polygon fill="midnightblue" stroke="midnightblue" points="153.05,-84.99 148.08,-75.63 146.13,-86.04 153.05,-84.99"/>
</g>
<!-- Node14 -->
<g id="node14" class="node">
<title>Node14</title>
<g id="a_node14"><a xlink:title=" ">
<polygon fill="white" stroke="#bfbfbf" points="70,-112.5 70,-131.5 114,-131.5 114,-112.5 70,-112.5"/>
<text text-anchor="middle" x="92" y="-119.5" font-family="Helvetica,sans-Serif" font-size="10.00">string</text>
</a>
</g>
</g>
<!-- Node4&#45;&gt;Node14 -->
<g id="edge14" class="edge">
<title>Node4&#45;&gt;Node14</title>
<path fill="none" stroke="midnightblue" d="M170.06,-168.32C155.41,-159.82 132.87,-146.73 115.76,-136.8"/>
<polygon fill="midnightblue" stroke="midnightblue" points="117.31,-133.65 106.9,-131.65 113.8,-139.7 117.31,-133.65"/>
</g>
<!-- Node5&#45;&gt;Node6 -->
<g id="edge5" class="edge">
<title>Node5&#45;&gt;Node6</title>
<path fill="none" stroke="midnightblue" d="M216.66,-112.32C203.84,-103.98 184.22,-91.21 169.06,-81.35"/>
<polygon fill="midnightblue" stroke="midnightblue" points="170.59,-78.17 160.3,-75.65 166.78,-84.04 170.59,-78.17"/>
</g>
<!-- Node13 -->
<g id="node13" class="node">
<title>Node13</title>
<g id="a_node13"><a xlink:title=" ">
<polygon fill="white" stroke="#bfbfbf" points="230,-56.5 230,-75.5 290,-75.5 290,-56.5 230,-56.5"/>
<text text-anchor="middle" x="260" y="-63.5" font-family="Helvetica,sans-Serif" font-size="10.00">concepts</text>
</a>
</g>
</g>
<!-- Node5&#45;&gt;Node13 -->
<g id="edge12" class="edge">
<title>Node5&#45;&gt;Node13</title>
<path fill="none" stroke="midnightblue" d="M234.95,-112.08C239.1,-104.61 245.15,-93.72 250.27,-84.52"/>
<polygon fill="midnightblue" stroke="midnightblue" points="253.34,-86.19 255.14,-75.75 247.22,-82.79 253.34,-86.19"/>
</g>
<!-- Node7 -->
<g id="node7" class="node">
<title>Node7</title>
<g id="a_node7"><a xlink:title=" ">
<polygon fill="white" stroke="#bfbfbf" points="134,-0.5 134,-19.5 176,-19.5 176,-0.5 134,-0.5"/>
<text text-anchor="middle" x="155" y="-7.5" font-family="Helvetica,sans-Serif" font-size="10.00">array</text>
</a>
</g>
</g>
<!-- Node6&#45;&gt;Node7 -->
<g id="edge6" class="edge">
<title>Node6&#45;&gt;Node7</title>
<path fill="none" stroke="midnightblue" d="M148.32,-56.08C149.38,-48.93 150.91,-38.64 152.23,-29.69"/>
<polygon fill="midnightblue" stroke="midnightblue" points="155.7,-30.16 153.7,-19.75 148.78,-29.13 155.7,-30.16"/>
</g>
<!-- Node8 -->
<g id="node8" class="node">
<title>Node8</title>
<g id="a_node8"><a xlink:title=" ">
<polygon fill="white" stroke="#bfbfbf" points="194,-0.5 194,-19.5 244,-19.5 244,-0.5 194,-0.5"/>
<text text-anchor="middle" x="219" y="-7.5" font-family="Helvetica,sans-Serif" font-size="10.00">cstdint</text>
</a>
</g>
</g>
<!-- Node6&#45;&gt;Node8 -->
<g id="edge7" class="edge">
<title>Node6&#45;&gt;Node8</title>
<path fill="none" stroke="midnightblue" d="M158.57,-56.32C169.42,-48.18 185.88,-35.84 198.88,-26.09"/>
<polygon fill="midnightblue" stroke="midnightblue" points="201.32,-28.63 207.22,-19.83 197.12,-23.03 201.32,-28.63"/>
</g>
<!-- Node9 -->
<g id="node9" class="node">
<title>Node9</title>
<g id="a_node9"><a xlink:title=" ">
<polygon fill="white" stroke="#bfbfbf" points="0,-0.5 0,-19.5 50,-19.5 50,-0.5 0,-0.5"/>
<text text-anchor="middle" x="25" y="-7.5" font-family="Helvetica,sans-Serif" font-size="10.00">ranges</text>
</a>
</g>
</g>
<!-- Node6&#45;&gt;Node9 -->
<g id="edge8" class="edge">
<title>Node6&#45;&gt;Node9</title>
<path fill="none" stroke="midnightblue" d="M127.67,-56.44C107.68,-47.6 76.26,-33.69 53.44,-23.59"/>
<polygon fill="midnightblue" stroke="midnightblue" points="54.8,-20.36 44.24,-19.52 51.97,-26.76 54.8,-20.36"/>
</g>
<!-- Node6&#45;&gt;Node10 -->
<g id="edge9" class="edge">
<title>Node6&#45;&gt;Node10</title>
<path fill="none" stroke="midnightblue" d="M191.84,-56.44C249.9,-45.37 349.54,-26.35 399.53,-16.81"/>
<polygon fill="midnightblue" stroke="midnightblue" points="400.24,-20.24 409.41,-14.93 398.93,-13.37 400.24,-20.24"/>
</g>
<!-- Node11 -->
<g id="node11" class="node">
<title>Node11</title>
<g id="a_node11"><a xlink:title=" ">
<polygon fill="white" stroke="#bfbfbf" points="276.5,-0.5 276.5,-19.5 345.5,-19.5 345.5,-0.5 276.5,-0.5"/>
<text text-anchor="middle" x="311" y="-7.5" font-family="Helvetica,sans-Serif" font-size="10.00">type_traits</text>
</a>
</g>
</g>
<!-- Node6&#45;&gt;Node11 -->
<g id="edge10" class="edge">
<title>Node6&#45;&gt;Node11</title>
<path fill="none" stroke="midnightblue" d="M172.99,-56.44C200.7,-47.32 244.75,-32.81 275.62,-22.65"/>
<polygon fill="midnightblue" stroke="midnightblue" points="276.73,-25.97 285.14,-19.52 274.54,-19.32 276.73,-25.97"/>
</g>
<!-- Node12 -->
<g id="node12" class="node">
<title>Node12</title>
<g id="a_node12"><a xlink:title=" ">
<polygon fill="white" stroke="#bfbfbf" points="68.5,-0.5 68.5,-19.5 115.5,-19.5 115.5,-0.5 68.5,-0.5"/>
<text text-anchor="middle" x="92" y="-7.5" font-family="Helvetica,sans-Serif" font-size="10.00">vector</text>
</a>
</g>
</g>
<!-- Node6&#45;&gt;Node12 -->
<g id="edge11" class="edge">
<title>Node6&#45;&gt;Node12</title>
<path fill="none" stroke="midnightblue" d="M137.92,-56.08C129.83,-48.14 117.8,-36.34 108.09,-26.8"/>
<polygon fill="midnightblue" stroke="midnightblue" points="110.5,-24.26 100.91,-19.75 105.6,-29.25 110.5,-24.26"/>
</g>
<!-- Node15&#45;&gt;Node5 -->
<g id="edge17" class="edge">
<title>Node15&#45;&gt;Node5</title>
<path fill="none" stroke="midnightblue" d="M303.02,-168.32C289.45,-159.9 268.62,-146.97 252.68,-137.07"/>
<polygon fill="midnightblue" stroke="midnightblue" points="254.29,-133.95 243.94,-131.65 250.59,-139.9 254.29,-133.95"/>
</g>
<!-- Node15&#45;&gt;Node11 -->
<g id="edge19" class="edge">
<title>Node15&#45;&gt;Node11</title>
<path fill="none" stroke="midnightblue" d="M316.68,-168.08C315.73,-141.95 312.96,-65.21 311.67,-29.58"/>
<polygon fill="midnightblue" stroke="midnightblue" points="315.17,-29.44 311.31,-19.57 308.17,-29.69 315.17,-29.44"/>
</g>
<!-- Node16 -->
<g id="node16" class="node">
<title>Node16</title>
<g id="a_node16"><a xlink:title=" ">
<polygon fill="white" stroke="#bfbfbf" points="346,-112.5 346,-131.5 402,-131.5 402,-112.5 346,-112.5"/>
<text text-anchor="middle" x="374" y="-119.5" font-family="Helvetica,sans-Serif" font-size="10.00">optional</text>
</a>
</g>
</g>
<!-- Node15&#45;&gt;Node16 -->
<g id="edge18" class="edge">
<title>Node15&#45;&gt;Node16</title>
<path fill="none" stroke="midnightblue" d="M326.16,-168.32C334.5,-160.42 347.03,-148.55 357.18,-138.94"/>
<polygon fill="midnightblue" stroke="midnightblue" points="359.82,-141.25 364.68,-131.83 355.01,-136.17 359.82,-141.25"/>
</g>
<!-- Node17&#45;&gt;Node4 -->
<g id="edge22" class="edge">
<title>Node17&#45;&gt;Node4</title>
<path fill="none" stroke="midnightblue" d="M181.57,-229.98C182.14,-221.58 183.02,-208.48 183.75,-197.66"/>
<polygon fill="midnightblue" stroke="midnightblue" points="187.25,-197.72 184.43,-187.51 180.26,-197.25 187.25,-197.72"/>
</g>
</g>
</svg>
