<?xml version="1.0" encoding="UTF-8" standalone="no"?>
<!DOCTYPE svg PUBLIC "-//W3C//DTD SVG 1.1//EN"
 "http://www.w3.org/Graphics/SVG/1.1/DTD/svg11.dtd">
<!-- Generated by graphviz version 2.43.0 (0)
 -->
<!-- Title: include/emlabcpp/experimental/geom/point.h Pages: 1 -->
<svg width="328pt" height="285pt"
 viewBox="0.00 0.00 328.00 285.00" xmlns="http://www.w3.org/2000/svg" xmlns:xlink="http://www.w3.org/1999/xlink">
<g id="graph0" class="graph" transform="scale(1 1) rotate(0) translate(4 281)">
<title>include/emlabcpp/experimental/geom/point.h</title>
<polygon fill="white" stroke="transparent" points="-4,4 -4,-281 324,-281 324,4 -4,4"/>
<!-- Node1 -->
<g id="node1" class="node">
<title>Node1</title>
<g id="a_node1"><a xlink:title=" ">
<polygon fill="#bfbfbf" stroke="black" points="87.5,-246.5 87.5,-276.5 258.5,-276.5 258.5,-246.5 87.5,-246.5"/>
<text text-anchor="start" x="95.5" y="-264.5" font-family="Helvetica,sans-Serif" font-size="10.00">include/emlabcpp/experimental</text>
<text text-anchor="middle" x="173" y="-253.5" font-family="Helvetica,sans-Serif" font-size="10.00">/geom/point.h</text>
</a>
</g>
</g>
<!-- Node2 -->
<g id="node2" class="node">
<title>Node2</title>
<g id="a_node2"><a xlink:href="vec__point__base_8h.html" target="_top" xlink:title=" ">
<polygon fill="white" stroke="black" points="49.5,-112.5 49.5,-142.5 184.5,-142.5 184.5,-112.5 49.5,-112.5"/>
<text text-anchor="start" x="57.5" y="-130.5" font-family="Helvetica,sans-Serif" font-size="10.00">emlabcpp/experimental</text>
<text text-anchor="middle" x="117" y="-119.5" font-family="Helvetica,sans-Serif" font-size="10.00">/geom/vec_point_base.h</text>
</a>
</g>
</g>
<!-- Node1&#45;&gt;Node2 -->
<g id="edge1" class="edge">
<title>Node1&#45;&gt;Node2</title>
<path fill="none" stroke="midnightblue" d="M137.86,-246.45C122.39,-238.29 105.76,-226.34 97,-210 87.22,-191.75 94.46,-168.65 102.84,-151.71"/>
<polygon fill="midnightblue" stroke="midnightblue" points="106.12,-152.99 107.78,-142.52 99.96,-149.67 106.12,-152.99"/>
</g>
<!-- Node26 -->
<g id="node5" class="node">
<title>Node26</title>
<g id="a_node5"><a xlink:href="range_8h.html" target="_top" xlink:title=" ">
<polygon fill="white" stroke="red" points="216,-56.5 216,-75.5 320,-75.5 320,-56.5 216,-56.5"/>
<text text-anchor="middle" x="268" y="-63.5" font-family="Helvetica,sans-Serif" font-size="10.00">emlabcpp/range.h</text>
</a>
</g>
</g>
<!-- Node1&#45;&gt;Node26 -->
<g id="edge8" class="edge">
<title>Node1&#45;&gt;Node26</title>
<path fill="none" stroke="midnightblue" d="M206.42,-246.33C221.89,-238.03 239.01,-225.99 249,-210 273.25,-171.17 272.55,-114.87 270.18,-85.86"/>
<polygon fill="midnightblue" stroke="midnightblue" points="273.62,-85.14 269.16,-75.54 266.66,-85.83 273.62,-85.14"/>
</g>
<!-- Node45 -->
<g id="node6" class="node">
<title>Node45</title>
<g id="a_node6"><a xlink:href="vector_8h.html" target="_top" xlink:title=" ">
<polygon fill="white" stroke="black" points="106.5,-179.5 106.5,-209.5 239.5,-209.5 239.5,-179.5 106.5,-179.5"/>
<text text-anchor="start" x="114.5" y="-197.5" font-family="Helvetica,sans-Serif" font-size="10.00">emlabcpp/experimental</text>
<text text-anchor="middle" x="173" y="-186.5" font-family="Helvetica,sans-Serif" font-size="10.00">/geom/vector.h</text>
</a>
</g>
</g>
<!-- Node1&#45;&gt;Node45 -->
<g id="edge6" class="edge">
<title>Node1&#45;&gt;Node45</title>
<path fill="none" stroke="midnightblue" d="M173,-246.4C173,-238.64 173,-228.81 173,-219.86"/>
<polygon fill="midnightblue" stroke="midnightblue" points="176.5,-219.58 173,-209.58 169.5,-219.58 176.5,-219.58"/>
</g>
<!-- Node3 -->
<g id="node3" class="node">
<title>Node3</title>
<g id="a_node3"><a xlink:href="algorithm_8h.html" target="_top" xlink:title=" ">
<polygon fill="white" stroke="red" points="0,-0.5 0,-19.5 124,-19.5 124,-0.5 0,-0.5"/>
<text text-anchor="middle" x="62" y="-7.5" font-family="Helvetica,sans-Serif" font-size="10.00">emlabcpp/algorithm.h</text>
</a>
</g>
</g>
<!-- Node2&#45;&gt;Node3 -->
<g id="edge2" class="edge">
<title>Node2&#45;&gt;Node3</title>
<path fill="none" stroke="midnightblue" d="M71.82,-112.34C54.65,-104.51 36.87,-92.85 27,-76 17.26,-59.36 31.06,-39.82 44.09,-26.55"/>
<polygon fill="midnightblue" stroke="midnightblue" points="46.65,-28.94 51.5,-19.52 41.83,-23.87 46.65,-28.94"/>
</g>
<!-- Node41 -->
<g id="node4" class="node">
<title>Node41</title>
<g id="a_node4"><a xlink:href="physical__quantity_8h.html" target="_top" xlink:title=" ">
<polygon fill="white" stroke="red" points="36.5,-56.5 36.5,-75.5 197.5,-75.5 197.5,-56.5 36.5,-56.5"/>
<text text-anchor="middle" x="117" y="-63.5" font-family="Helvetica,sans-Serif" font-size="10.00">emlabcpp/physical_quantity.h</text>
</a>
</g>
</g>
<!-- Node2&#45;&gt;Node41 -->
<g id="edge3" class="edge">
<title>Node2&#45;&gt;Node41</title>
<path fill="none" stroke="midnightblue" d="M117,-112.4C117,-104.47 117,-94.46 117,-85.86"/>
<polygon fill="midnightblue" stroke="midnightblue" points="120.5,-85.66 117,-75.66 113.5,-85.66 120.5,-85.66"/>
</g>
<!-- Node2&#45;&gt;Node26 -->
<g id="edge5" class="edge">
<title>Node2&#45;&gt;Node26</title>
<path fill="none" stroke="midnightblue" d="M152.78,-112.4C178.23,-102.37 212.1,-89.03 236.52,-79.4"/>
<polygon fill="midnightblue" stroke="midnightblue" points="238.01,-82.58 246.03,-75.66 235.44,-76.07 238.01,-82.58"/>
</g>
<!-- Node41&#45;&gt;Node3 -->
<g id="edge4" class="edge">
<title>Node41&#45;&gt;Node3</title>
<path fill="none" stroke="midnightblue" d="M107.92,-56.08C99.83,-48.14 87.8,-36.34 78.09,-26.8"/>
<polygon fill="midnightblue" stroke="midnightblue" points="80.5,-24.26 70.91,-19.75 75.6,-29.25 80.5,-24.26"/>
</g>
<!-- Node45&#45;&gt;Node2 -->
<g id="edge7" class="edge">
<title>Node45&#45;&gt;Node2</title>
<path fill="none" stroke="midnightblue" d="M160.85,-179.4C153.51,-170.88 144.01,-159.85 135.72,-150.23"/>
<polygon fill="midnightblue" stroke="midnightblue" points="138.31,-147.87 129.13,-142.58 133,-152.44 138.31,-147.87"/>
</g>
</g>
</svg>
