<?xml version="1.0" encoding="UTF-8" standalone="no"?>
<!DOCTYPE svg PUBLIC "-//W3C//DTD SVG 1.1//EN"
 "http://www.w3.org/Graphics/SVG/1.1/DTD/svg11.dtd">
<!-- Generated by graphviz version 2.43.0 (0)
 -->
<!-- Title: include/emlabcpp/experimental/geom/point.h Pages: 1 -->
<svg width="292pt" height="375pt"
 viewBox="0.00 0.00 292.00 375.00" xmlns="http://www.w3.org/2000/svg" xmlns:xlink="http://www.w3.org/1999/xlink">
<g id="graph0" class="graph" transform="scale(1 1) rotate(0) translate(4 371)">
<title>include/emlabcpp/experimental/geom/point.h</title>
<polygon fill="white" stroke="transparent" points="-4,4 -4,-371 288,-371 288,4 -4,4"/>
<!-- Node1 -->
<g id="node1" class="node">
<title>Node1</title>
<g id="a_node1"><a xlink:title=" ">
<polygon fill="#bfbfbf" stroke="black" points="0.5,-336.5 0.5,-366.5 171.5,-366.5 171.5,-336.5 0.5,-336.5"/>
<text text-anchor="start" x="8.5" y="-354.5" font-family="Helvetica,sans-Serif" font-size="10.00">include/emlabcpp/experimental</text>
<text text-anchor="middle" x="86" y="-343.5" font-family="Helvetica,sans-Serif" font-size="10.00">/geom/point.h</text>
</a>
</g>
</g>
<!-- Node2 -->
<g id="node2" class="node">
<title>Node2</title>
<g id="a_node2"><a xlink:href="range_8h.html" target="_top" xlink:title=" ">
<polygon fill="white" stroke="black" points="51.5,-56.5 51.5,-75.5 122.5,-75.5 122.5,-56.5 51.5,-56.5"/>
<text text-anchor="middle" x="87" y="-63.5" font-family="Helvetica,sans-Serif" font-size="10.00">../../range.h</text>
</a>
</g>
</g>
<!-- Node1&#45;&gt;Node2 -->
<g id="edge1" class="edge">
<title>Node1&#45;&gt;Node2</title>
<path fill="none" stroke="midnightblue" d="M78.13,-336.41C67,-315.13 48,-273.21 48,-235 48,-235 48,-235 48,-177 48,-142.72 65.04,-105.7 76.59,-84.54"/>
<polygon fill="midnightblue" stroke="midnightblue" points="79.69,-86.17 81.58,-75.75 73.6,-82.72 79.69,-86.17"/>
</g>
<!-- Node20 -->
<g id="node5" class="node">
<title>Node20</title>
<g id="a_node5"><a xlink:href="vec__point__base_8h.html" target="_top" xlink:title=" ">
<polygon fill="white" stroke="black" points="76.5,-224.5 76.5,-243.5 183.5,-243.5 183.5,-224.5 76.5,-224.5"/>
<text text-anchor="middle" x="130" y="-231.5" font-family="Helvetica,sans-Serif" font-size="10.00">./vec_point_base.h</text>
</a>
</g>
</g>
<!-- Node1&#45;&gt;Node20 -->
<g id="edge4" class="edge">
<title>Node1&#45;&gt;Node20</title>
<path fill="none" stroke="midnightblue" d="M88.74,-336.39C91.79,-321.92 97.33,-298.91 105,-280 108.86,-270.48 114.3,-260.43 119.12,-252.25"/>
<polygon fill="midnightblue" stroke="midnightblue" points="122.14,-254.01 124.36,-243.65 116.16,-250.37 122.14,-254.01"/>
</g>
<!-- Node33 -->
<g id="node8" class="node">
<title>Node33</title>
<g id="a_node8"><a xlink:href="vector_8h.html" target="_top" xlink:title=" ">
<polygon fill="white" stroke="black" points="114,-280.5 114,-299.5 176,-299.5 176,-280.5 114,-280.5"/>
<text text-anchor="middle" x="145" y="-287.5" font-family="Helvetica,sans-Serif" font-size="10.00">./vector.h</text>
</a>
</g>
</g>
<!-- Node1&#45;&gt;Node33 -->
<g id="edge11" class="edge">
<title>Node1&#45;&gt;Node33</title>
<path fill="none" stroke="midnightblue" d="M99.98,-336.4C108.73,-327.58 120.03,-316.18 129.12,-307.02"/>
<polygon fill="midnightblue" stroke="midnightblue" points="131.86,-309.22 136.41,-299.66 126.89,-304.29 131.86,-309.22"/>
</g>
<!-- Node3 -->
<g id="node3" class="node">
<title>Node3</title>
<g id="a_node3"><a xlink:href="numeric_8h.html" target="_top" xlink:title=" ">
<polygon fill="white" stroke="red" points="0,-0.5 0,-19.5 116,-19.5 116,-0.5 0,-0.5"/>
<text text-anchor="middle" x="58" y="-7.5" font-family="Helvetica,sans-Serif" font-size="10.00">./iterators/numeric.h</text>
</a>
</g>
</g>
<!-- Node2&#45;&gt;Node3 -->
<g id="edge2" class="edge">
<title>Node2&#45;&gt;Node3</title>
<path fill="none" stroke="midnightblue" d="M82.21,-56.08C78.24,-48.69 72.47,-37.95 67.57,-28.81"/>
<polygon fill="midnightblue" stroke="midnightblue" points="70.51,-26.91 62.7,-19.75 64.35,-30.22 70.51,-26.91"/>
</g>
<!-- Node6 -->
<g id="node4" class="node">
<title>Node6</title>
<g id="a_node4"><a xlink:href="view_8h.html" target="_top" xlink:title=" ">
<polygon fill="white" stroke="red" points="134,-0.5 134,-19.5 188,-19.5 188,-0.5 134,-0.5"/>
<text text-anchor="middle" x="161" y="-7.5" font-family="Helvetica,sans-Serif" font-size="10.00">./view.h</text>
</a>
</g>
</g>
<!-- Node2&#45;&gt;Node6 -->
<g id="edge3" class="edge">
<title>Node2&#45;&gt;Node6</title>
<path fill="none" stroke="midnightblue" d="M98.89,-56.32C110.15,-48.11 127.29,-35.6 140.71,-25.81"/>
<polygon fill="midnightblue" stroke="midnightblue" points="142.88,-28.56 148.89,-19.83 138.75,-22.9 142.88,-28.56"/>
</g>
<!-- Node20&#45;&gt;Node2 -->
<g id="edge10" class="edge">
<title>Node20&#45;&gt;Node2</title>
<path fill="none" stroke="midnightblue" d="M127.69,-224.08C120.92,-197.95 101.04,-121.21 91.81,-85.58"/>
<polygon fill="midnightblue" stroke="midnightblue" points="95.12,-84.37 89.22,-75.57 88.34,-86.13 95.12,-84.37"/>
</g>
<!-- Node21 -->
<g id="node6" class="node">
<title>Node21</title>
<g id="a_node6"><a xlink:href="algorithm_8h.html" target="_top" xlink:title=" ">
<polygon fill="white" stroke="red" points="115.5,-112.5 115.5,-131.5 206.5,-131.5 206.5,-112.5 115.5,-112.5"/>
<text text-anchor="middle" x="161" y="-119.5" font-family="Helvetica,sans-Serif" font-size="10.00">../../algorithm.h</text>
</a>
</g>
</g>
<!-- Node20&#45;&gt;Node21 -->
<g id="edge5" class="edge">
<title>Node20&#45;&gt;Node21</title>
<path fill="none" stroke="midnightblue" d="M132.18,-224.13C135.3,-211.59 141.29,-187.96 147,-168 149.54,-159.14 152.55,-149.36 155.13,-141.19"/>
<polygon fill="midnightblue" stroke="midnightblue" points="158.49,-142.18 158.2,-131.59 151.82,-140.05 158.49,-142.18"/>
</g>
<!-- Node29 -->
<g id="node7" class="node">
<title>Node29</title>
<g id="a_node7"><a xlink:href="physical__quantity_8h.html" target="_top" xlink:title=" ">
<polygon fill="white" stroke="red" points="156,-168.5 156,-187.5 284,-187.5 284,-168.5 156,-168.5"/>
<text text-anchor="middle" x="220" y="-175.5" font-family="Helvetica,sans-Serif" font-size="10.00">../../physical_quantity.h</text>
</a>
</g>
</g>
<!-- Node20&#45;&gt;Node29 -->
<g id="edge8" class="edge">
<title>Node20&#45;&gt;Node29</title>
<path fill="none" stroke="midnightblue" d="M144.46,-224.32C158.5,-215.9 180.05,-202.97 196.54,-193.07"/>
<polygon fill="midnightblue" stroke="midnightblue" points="198.8,-195.8 205.58,-187.65 195.2,-189.8 198.8,-195.8"/>
</g>
<!-- Node21&#45;&gt;Node2 -->
<g id="edge6" class="edge">
<title>Node21&#45;&gt;Node2</title>
<path fill="none" stroke="midnightblue" d="M149.11,-112.32C137.85,-104.11 120.71,-91.6 107.29,-81.81"/>
<polygon fill="midnightblue" stroke="midnightblue" points="109.25,-78.9 99.11,-75.83 105.12,-84.56 109.25,-78.9"/>
</g>
<!-- Node21&#45;&gt;Node6 -->
<g id="edge7" class="edge">
<title>Node21&#45;&gt;Node6</title>
<path fill="none" stroke="midnightblue" d="M161,-112.37C161,-94.62 161,-53.67 161,-29.6"/>
<polygon fill="midnightblue" stroke="midnightblue" points="164.5,-29.59 161,-19.59 157.5,-29.59 164.5,-29.59"/>
</g>
<!-- Node29&#45;&gt;Node21 -->
<g id="edge9" class="edge">
<title>Node29&#45;&gt;Node21</title>
<path fill="none" stroke="midnightblue" d="M210.52,-168.32C201.8,-160.34 188.66,-148.31 178.1,-138.65"/>
<polygon fill="midnightblue" stroke="midnightblue" points="180.39,-136 170.65,-131.83 175.67,-141.17 180.39,-136"/>
</g>
<!-- Node33&#45;&gt;Node20 -->
<g id="edge12" class="edge">
<title>Node33&#45;&gt;Node20</title>
<path fill="none" stroke="midnightblue" d="M142.52,-280.08C140.51,-272.85 137.61,-262.41 135.11,-253.4"/>
<polygon fill="midnightblue" stroke="midnightblue" points="138.48,-252.45 132.43,-243.75 131.74,-254.32 138.48,-252.45"/>
</g>
</g>
</svg>
