<?xml version="1.0" encoding="UTF-8" standalone="no"?>
<!DOCTYPE svg PUBLIC "-//W3C//DTD SVG 1.1//EN"
 "http://www.w3.org/Graphics/SVG/1.1/DTD/svg11.dtd">
<!-- Generated by graphviz version 2.43.0 (0)
 -->
<!-- Title: include/emlabcpp/experimental/geom/point.h Pages: 1 -->
<svg width="292pt" height="375pt"
 viewBox="0.00 0.00 291.50 375.00" xmlns="http://www.w3.org/2000/svg" xmlns:xlink="http://www.w3.org/1999/xlink">
<g id="graph0" class="graph" transform="scale(1 1) rotate(0) translate(4 371)">
<title>include/emlabcpp/experimental/geom/point.h</title>
<polygon fill="white" stroke="transparent" points="-4,4 -4,-371 287.5,-371 287.5,4 -4,4"/>
<!-- Node1 -->
<g id="node1" class="node">
<title>Node1</title>
<g id="a_node1"><a xlink:title=" ">
<polygon fill="#bfbfbf" stroke="black" points="0,-336.5 0,-366.5 171,-366.5 171,-336.5 0,-336.5"/>
<text text-anchor="start" x="8" y="-354.5" font-family="Helvetica,sans-Serif" font-size="10.00">include/emlabcpp/experimental</text>
<text text-anchor="middle" x="85.5" y="-343.5" font-family="Helvetica,sans-Serif" font-size="10.00">/geom/point.h</text>
</a>
</g>
</g>
<!-- Node2 -->
<g id="node2" class="node">
<title>Node2</title>
<g id="a_node2"><a xlink:href="range_8h.html" target="_top" xlink:title=" ">
<polygon fill="white" stroke="black" points="51,-56.5 51,-75.5 122,-75.5 122,-56.5 51,-56.5"/>
<text text-anchor="middle" x="86.5" y="-63.5" font-family="Helvetica,sans-Serif" font-size="10.00">../../range.h</text>
</a>
</g>
</g>
<!-- Node1&#45;&gt;Node2 -->
<g id="edge1" class="edge">
<title>Node1&#45;&gt;Node2</title>
<path fill="none" stroke="midnightblue" d="M77.63,-336.41C66.5,-315.13 47.5,-273.21 47.5,-235 47.5,-235 47.5,-235 47.5,-177 47.5,-142.72 64.54,-105.7 76.09,-84.54"/>
<polygon fill="midnightblue" stroke="midnightblue" points="79.19,-86.17 81.08,-75.75 73.1,-82.72 79.19,-86.17"/>
</g>
<!-- Node20 -->
<g id="node4" class="node">
<title>Node20</title>
<g id="a_node4"><a xlink:href="vec__point__base_8h.html" target="_top" xlink:title=" ">
<polygon fill="white" stroke="black" points="76,-224.5 76,-243.5 183,-243.5 183,-224.5 76,-224.5"/>
<text text-anchor="middle" x="129.5" y="-231.5" font-family="Helvetica,sans-Serif" font-size="10.00">./vec_point_base.h</text>
</a>
</g>
</g>
<!-- Node1&#45;&gt;Node20 -->
<g id="edge3" class="edge">
<title>Node1&#45;&gt;Node20</title>
<path fill="none" stroke="midnightblue" d="M88.24,-336.39C91.29,-321.92 96.83,-298.91 104.5,-280 108.36,-270.48 113.8,-260.43 118.62,-252.25"/>
<polygon fill="midnightblue" stroke="midnightblue" points="121.64,-254.01 123.86,-243.65 115.66,-250.37 121.64,-254.01"/>
</g>
<!-- Node33 -->
<g id="node7" class="node">
<title>Node33</title>
<g id="a_node7"><a xlink:href="vector_8h.html" target="_top" xlink:title=" ">
<polygon fill="white" stroke="black" points="113.5,-280.5 113.5,-299.5 175.5,-299.5 175.5,-280.5 113.5,-280.5"/>
<text text-anchor="middle" x="144.5" y="-287.5" font-family="Helvetica,sans-Serif" font-size="10.00">./vector.h</text>
</a>
</g>
</g>
<!-- Node1&#45;&gt;Node33 -->
<g id="edge9" class="edge">
<title>Node1&#45;&gt;Node33</title>
<path fill="none" stroke="midnightblue" d="M99.48,-336.4C108.23,-327.58 119.53,-316.18 128.62,-307.02"/>
<polygon fill="midnightblue" stroke="midnightblue" points="131.36,-309.22 135.91,-299.66 126.39,-304.29 131.36,-309.22"/>
</g>
<!-- Node3 -->
<g id="node3" class="node">
<title>Node3</title>
<g id="a_node3"><a xlink:href="numeric_8h.html" target="_top" xlink:title=" ">
<polygon fill="white" stroke="red" points="28.5,-0.5 28.5,-19.5 144.5,-19.5 144.5,-0.5 28.5,-0.5"/>
<text text-anchor="middle" x="86.5" y="-7.5" font-family="Helvetica,sans-Serif" font-size="10.00">./iterators/numeric.h</text>
</a>
</g>
</g>
<!-- Node2&#45;&gt;Node3 -->
<g id="edge2" class="edge">
<title>Node2&#45;&gt;Node3</title>
<path fill="none" stroke="midnightblue" d="M86.5,-56.08C86.5,-49.01 86.5,-38.86 86.5,-29.99"/>
<polygon fill="midnightblue" stroke="midnightblue" points="90,-29.75 86.5,-19.75 83,-29.75 90,-29.75"/>
</g>
<!-- Node20&#45;&gt;Node2 -->
<g id="edge8" class="edge">
<title>Node20&#45;&gt;Node2</title>
<path fill="none" stroke="midnightblue" d="M127.19,-224.08C120.42,-197.95 100.54,-121.21 91.31,-85.58"/>
<polygon fill="midnightblue" stroke="midnightblue" points="94.62,-84.37 88.72,-75.57 87.84,-86.13 94.62,-84.37"/>
</g>
<!-- Node21 -->
<g id="node5" class="node">
<title>Node21</title>
<g id="a_node5"><a xlink:href="algorithm_8h.html" target="_top" xlink:title=" ">
<polygon fill="white" stroke="red" points="115,-112.5 115,-131.5 206,-131.5 206,-112.5 115,-112.5"/>
<text text-anchor="middle" x="160.5" y="-119.5" font-family="Helvetica,sans-Serif" font-size="10.00">../../algorithm.h</text>
</a>
</g>
</g>
<!-- Node20&#45;&gt;Node21 -->
<g id="edge4" class="edge">
<title>Node20&#45;&gt;Node21</title>
<path fill="none" stroke="midnightblue" d="M131.68,-224.13C134.8,-211.59 140.79,-187.96 146.5,-168 149.04,-159.14 152.05,-149.36 154.63,-141.19"/>
<polygon fill="midnightblue" stroke="midnightblue" points="157.99,-142.18 157.7,-131.59 151.32,-140.05 157.99,-142.18"/>
</g>
<!-- Node29 -->
<g id="node6" class="node">
<title>Node29</title>
<g id="a_node6"><a xlink:href="physical__quantity_8h.html" target="_top" xlink:title=" ">
<polygon fill="white" stroke="red" points="155.5,-168.5 155.5,-187.5 283.5,-187.5 283.5,-168.5 155.5,-168.5"/>
<text text-anchor="middle" x="219.5" y="-175.5" font-family="Helvetica,sans-Serif" font-size="10.00">../../physical_quantity.h</text>
</a>
</g>
</g>
<!-- Node20&#45;&gt;Node29 -->
<g id="edge6" class="edge">
<title>Node20&#45;&gt;Node29</title>
<path fill="none" stroke="midnightblue" d="M143.96,-224.32C158,-215.9 179.55,-202.97 196.04,-193.07"/>
<polygon fill="midnightblue" stroke="midnightblue" points="198.3,-195.8 205.08,-187.65 194.7,-189.8 198.3,-195.8"/>
</g>
<!-- Node21&#45;&gt;Node2 -->
<g id="edge5" class="edge">
<title>Node21&#45;&gt;Node2</title>
<path fill="none" stroke="midnightblue" d="M148.61,-112.32C137.35,-104.11 120.21,-91.6 106.79,-81.81"/>
<polygon fill="midnightblue" stroke="midnightblue" points="108.75,-78.9 98.61,-75.83 104.62,-84.56 108.75,-78.9"/>
</g>
<!-- Node29&#45;&gt;Node21 -->
<g id="edge7" class="edge">
<title>Node29&#45;&gt;Node21</title>
<path fill="none" stroke="midnightblue" d="M210.02,-168.32C201.3,-160.34 188.16,-148.31 177.6,-138.65"/>
<polygon fill="midnightblue" stroke="midnightblue" points="179.89,-136 170.15,-131.83 175.17,-141.17 179.89,-136"/>
</g>
<!-- Node33&#45;&gt;Node20 -->
<g id="edge10" class="edge">
<title>Node33&#45;&gt;Node20</title>
<path fill="none" stroke="midnightblue" d="M142.02,-280.08C140.01,-272.85 137.11,-262.41 134.61,-253.4"/>
<polygon fill="midnightblue" stroke="midnightblue" points="137.98,-252.45 131.93,-243.75 131.24,-254.32 137.98,-252.45"/>
</g>
</g>
</svg>
