<?xml version="1.0" encoding="UTF-8" standalone="no"?>
<!DOCTYPE svg PUBLIC "-//W3C//DTD SVG 1.1//EN"
 "http://www.w3.org/Graphics/SVG/1.1/DTD/svg11.dtd">
<!-- Generated by graphviz version 2.43.0 (0)
 -->
<!-- Title: include/emlabcpp/pmr/pool_resource.h Pages: 1 -->
<svg width="722pt" height="352pt"
 viewBox="0.00 0.00 721.59 352.00" xmlns="http://www.w3.org/2000/svg" xmlns:xlink="http://www.w3.org/1999/xlink">
<g id="graph0" class="graph" transform="scale(1 1) rotate(0) translate(4 348)">
<title>include/emlabcpp/pmr/pool_resource.h</title>
<polygon fill="white" stroke="transparent" points="-4,4 -4,-348 717.59,-348 717.59,4 -4,4"/>
<!-- Node1 -->
<g id="node1" class="node">
<title>Node1</title>
<g id="a_node1"><a xlink:title=" ">
<polygon fill="#bfbfbf" stroke="black" points="187,-313.5 187,-343.5 312,-343.5 312,-313.5 187,-313.5"/>
<text text-anchor="start" x="195" y="-331.5" font-family="Helvetica,sans-Serif" font-size="10.00">include/emlabcpp/pmr</text>
<text text-anchor="middle" x="249.5" y="-320.5" font-family="Helvetica,sans-Serif" font-size="10.00">/pool_resource.h</text>
</a>
</g>
</g>
<!-- Node2 -->
<g id="node2" class="node">
<title>Node2</title>
<g id="a_node2"><a xlink:href="memory__resource_8h.html" target="_top" xlink:title=" ">
<polygon fill="white" stroke="black" points="0,-246.5 0,-276.5 131,-276.5 131,-246.5 0,-246.5"/>
<text text-anchor="start" x="8" y="-264.5" font-family="Helvetica,sans-Serif" font-size="10.00">emlabcpp/pmr/memory</text>
<text text-anchor="middle" x="65.5" y="-253.5" font-family="Helvetica,sans-Serif" font-size="10.00">_resource.h</text>
</a>
</g>
</g>
<!-- Node1&#45;&gt;Node2 -->
<g id="edge1" class="edge">
<title>Node1&#45;&gt;Node2</title>
<path fill="none" stroke="midnightblue" d="M209.57,-313.4C181.85,-303.6 144.71,-290.48 115.08,-280.02"/>
<polygon fill="midnightblue" stroke="midnightblue" points="115.94,-276.61 105.35,-276.58 113.61,-283.21 115.94,-276.61"/>
</g>
<!-- Node4 -->
<g id="node4" class="node">
<title>Node4</title>
<g id="a_node4"><a xlink:href="pmr_2util_8h.html" target="_top" xlink:title=" ">
<polygon fill="white" stroke="black" points="149,-252 149,-271 264,-271 264,-252 149,-252"/>
<text text-anchor="middle" x="206.5" y="-259" font-family="Helvetica,sans-Serif" font-size="10.00">emlabcpp/pmr/util.h</text>
</a>
</g>
</g>
<!-- Node1&#45;&gt;Node4 -->
<g id="edge3" class="edge">
<title>Node1&#45;&gt;Node4</title>
<path fill="none" stroke="midnightblue" d="M240.17,-313.4C233.6,-303.46 224.76,-290.11 217.79,-279.57"/>
<polygon fill="midnightblue" stroke="midnightblue" points="220.69,-277.6 212.25,-271.19 214.85,-281.47 220.69,-277.6"/>
</g>
<!-- Node6 -->
<g id="node6" class="node">
<title>Node6</title>
<g id="a_node6"><a xlink:href="range_8h.html" target="_top" xlink:title=" ">
<polygon fill="white" stroke="black" points="455.5,-123.5 455.5,-142.5 559.5,-142.5 559.5,-123.5 455.5,-123.5"/>
<text text-anchor="middle" x="507.5" y="-130.5" font-family="Helvetica,sans-Serif" font-size="10.00">emlabcpp/range.h</text>
</a>
</g>
</g>
<!-- Node1&#45;&gt;Node6 -->
<g id="edge6" class="edge">
<title>Node1&#45;&gt;Node6</title>
<path fill="none" stroke="midnightblue" d="M256.13,-313.43C260.83,-303.35 267.21,-289.41 272.5,-277 290.89,-233.88 275.92,-209.52 311.5,-179 331.46,-161.88 395.78,-149.33 445.36,-141.9"/>
<polygon fill="midnightblue" stroke="midnightblue" points="445.98,-145.34 455.37,-140.43 444.97,-138.42 445.98,-145.34"/>
</g>
<!-- Node22 -->
<g id="node9" class="node">
<title>Node22</title>
<g id="a_node9"><a xlink:href="static__vector_8h.html" target="_top" xlink:title=" ">
<polygon fill="white" stroke="black" points="416,-252 416,-271 555,-271 555,-252 416,-252"/>
<text text-anchor="middle" x="485.5" y="-259" font-family="Helvetica,sans-Serif" font-size="10.00">emlabcpp/static_vector.h</text>
</a>
</g>
</g>
<!-- Node1&#45;&gt;Node22 -->
<g id="edge9" class="edge">
<title>Node1&#45;&gt;Node22</title>
<path fill="none" stroke="midnightblue" d="M300.42,-313.48C343.64,-301.57 404.84,-284.72 444.84,-273.7"/>
<polygon fill="midnightblue" stroke="midnightblue" points="445.82,-277.06 454.53,-271.03 443.96,-270.31 445.82,-277.06"/>
</g>
<!-- Node3 -->
<g id="node3" class="node">
<title>Node3</title>
<g id="a_node3"><a xlink:title=" ">
<polygon fill="white" stroke="#bfbfbf" points="75,-185 75,-204 128,-204 128,-185 75,-185"/>
<text text-anchor="middle" x="101.5" y="-192" font-family="Helvetica,sans-Serif" font-size="10.00">cstddef</text>
</a>
</g>
</g>
<!-- Node2&#45;&gt;Node3 -->
<g id="edge2" class="edge">
<title>Node2&#45;&gt;Node3</title>
<path fill="none" stroke="midnightblue" d="M73.31,-246.4C78.7,-236.66 85.91,-223.65 91.69,-213.21"/>
<polygon fill="midnightblue" stroke="midnightblue" points="94.9,-214.64 96.68,-204.19 88.78,-211.25 94.9,-214.64"/>
</g>
<!-- Node4&#45;&gt;Node3 -->
<g id="edge4" class="edge">
<title>Node4&#45;&gt;Node3</title>
<path fill="none" stroke="midnightblue" d="M192.34,-251.73C174.79,-240.87 144.66,-222.22 123.94,-209.39"/>
<polygon fill="midnightblue" stroke="midnightblue" points="125.78,-206.41 115.44,-204.13 122.1,-212.37 125.78,-206.41"/>
</g>
<!-- Node5 -->
<g id="node5" class="node">
<title>Node5</title>
<g id="a_node5"><a xlink:title=" ">
<polygon fill="white" stroke="#bfbfbf" points="181.5,-185 181.5,-204 231.5,-204 231.5,-185 181.5,-185"/>
<text text-anchor="middle" x="206.5" y="-192" font-family="Helvetica,sans-Serif" font-size="10.00">cstdint</text>
</a>
</g>
</g>
<!-- Node4&#45;&gt;Node5 -->
<g id="edge5" class="edge">
<title>Node4&#45;&gt;Node5</title>
<path fill="none" stroke="midnightblue" d="M206.5,-251.73C206.5,-242.18 206.5,-226.62 206.5,-214.28"/>
<polygon fill="midnightblue" stroke="midnightblue" points="210,-214.13 206.5,-204.13 203,-214.13 210,-214.13"/>
</g>
<!-- Node7 -->
<g id="node7" class="node">
<title>Node7</title>
<g id="a_node7"><a xlink:href="numeric_8h.html" target="_top" xlink:title=" ">
<polygon fill="white" stroke="black" points="521,-56.5 521,-86.5 630,-86.5 630,-56.5 521,-56.5"/>
<text text-anchor="start" x="529" y="-74.5" font-family="Helvetica,sans-Serif" font-size="10.00">emlabcpp/iterators</text>
<text text-anchor="middle" x="575.5" y="-63.5" font-family="Helvetica,sans-Serif" font-size="10.00">/numeric.h</text>
</a>
</g>
</g>
<!-- Node6&#45;&gt;Node7 -->
<g id="edge7" class="edge">
<title>Node6&#45;&gt;Node7</title>
<path fill="none" stroke="midnightblue" d="M517.24,-123.48C526.19,-115.64 539.83,-103.71 551.65,-93.37"/>
<polygon fill="midnightblue" stroke="midnightblue" points="554.25,-95.74 559.47,-86.52 549.64,-90.47 554.25,-95.74"/>
</g>
<!-- Node8 -->
<g id="node8" class="node">
<title>Node8</title>
<g id="a_node8"><a xlink:href="iterator_8h.html" target="_top" xlink:title=" ">
<polygon fill="white" stroke="red" points="560.5,-0.5 560.5,-19.5 672.5,-19.5 672.5,-0.5 560.5,-0.5"/>
<text text-anchor="middle" x="616.5" y="-7.5" font-family="Helvetica,sans-Serif" font-size="10.00">emlabcpp/iterator.h</text>
</a>
</g>
</g>
<!-- Node7&#45;&gt;Node8 -->
<g id="edge8" class="edge">
<title>Node7&#45;&gt;Node8</title>
<path fill="none" stroke="midnightblue" d="M585.22,-56.4C591.05,-47.93 598.52,-37.1 604.69,-28.14"/>
<polygon fill="midnightblue" stroke="midnightblue" points="607.74,-29.88 610.53,-19.66 601.98,-25.91 607.74,-29.88"/>
</g>
<!-- Node22&#45;&gt;Node8 -->
<g id="edge14" class="edge">
<title>Node22&#45;&gt;Node8</title>
<path fill="none" stroke="midnightblue" d="M555.17,-259.13C597.49,-254.72 649.85,-242.35 684.5,-210 713.65,-182.78 719.74,-160.62 706.5,-123 692.33,-82.73 656.88,-46.25 634.94,-26.49"/>
<polygon fill="midnightblue" stroke="midnightblue" points="637.09,-23.72 627.26,-19.76 632.48,-28.98 637.09,-23.72"/>
</g>
<!-- Node11 -->
<g id="node10" class="node">
<title>Node11</title>
<g id="a_node10"><a xlink:href="concepts_8h.html" target="_top" xlink:title=" ">
<polygon fill="white" stroke="red" points="577.5,-123.5 577.5,-142.5 697.5,-142.5 697.5,-123.5 577.5,-123.5"/>
<text text-anchor="middle" x="637.5" y="-130.5" font-family="Helvetica,sans-Serif" font-size="10.00">emlabcpp/concepts.h</text>
</a>
</g>
</g>
<!-- Node22&#45;&gt;Node11 -->
<g id="edge10" class="edge">
<title>Node22&#45;&gt;Node11</title>
<path fill="none" stroke="midnightblue" d="M545,-251.97C592.47,-243.81 653.43,-229.8 668.5,-210 682.32,-191.85 666.73,-166.68 653.11,-150.37"/>
<polygon fill="midnightblue" stroke="midnightblue" points="655.59,-147.88 646.34,-142.73 650.35,-152.53 655.59,-147.88"/>
</g>
<!-- Node23 -->
<g id="node11" class="node">
<title>Node23</title>
<g id="a_node11"><a xlink:href="pretty__printer_8h.html" target="_top" xlink:title=" ">
<polygon fill="white" stroke="red" points="526,-179.5 526,-209.5 659,-209.5 659,-179.5 526,-179.5"/>
<text text-anchor="start" x="534" y="-197.5" font-family="Helvetica,sans-Serif" font-size="10.00">emlabcpp/experimental</text>
<text text-anchor="middle" x="592.5" y="-186.5" font-family="Helvetica,sans-Serif" font-size="10.00">/pretty_printer.h</text>
</a>
</g>
</g>
<!-- Node22&#45;&gt;Node23 -->
<g id="edge11" class="edge">
<title>Node22&#45;&gt;Node23</title>
<path fill="none" stroke="midnightblue" d="M499.93,-251.73C515.43,-242.32 540.56,-227.05 560.73,-214.8"/>
<polygon fill="midnightblue" stroke="midnightblue" points="562.58,-217.77 569.31,-209.59 558.94,-211.79 562.58,-217.77"/>
</g>
<!-- Node37 -->
<g id="node12" class="node">
<title>Node37</title>
<g id="a_node12"><a xlink:title=" ">
<polygon fill="white" stroke="#bfbfbf" points="321,-185 321,-204 358,-204 358,-185 321,-185"/>
<text text-anchor="middle" x="339.5" y="-192" font-family="Helvetica,sans-Serif" font-size="10.00">new</text>
</a>
</g>
</g>
<!-- Node22&#45;&gt;Node37 -->
<g id="edge15" class="edge">
<title>Node22&#45;&gt;Node37</title>
<path fill="none" stroke="midnightblue" d="M463.74,-251.96C439.67,-242.36 399.89,-226.01 366.5,-210 365.66,-209.6 364.81,-209.18 363.95,-208.76"/>
<polygon fill="midnightblue" stroke="midnightblue" points="365.29,-205.51 354.8,-204.03 362.07,-211.73 365.29,-205.51"/>
</g>
<!-- Node16 -->
<g id="node13" class="node">
<title>Node16</title>
<g id="a_node13"><a xlink:title=" ">
<polygon fill="white" stroke="#bfbfbf" points="376,-185 376,-204 445,-204 445,-185 376,-185"/>
<text text-anchor="middle" x="410.5" y="-192" font-family="Helvetica,sans-Serif" font-size="10.00">type_traits</text>
</a>
</g>
</g>
<!-- Node22&#45;&gt;Node16 -->
<g id="edge16" class="edge">
<title>Node22&#45;&gt;Node16</title>
<path fill="none" stroke="midnightblue" d="M475.39,-251.73C463.35,-241.31 443.05,-223.71 428.35,-210.97"/>
<polygon fill="midnightblue" stroke="midnightblue" points="430.3,-208.03 420.45,-204.13 425.72,-213.32 430.3,-208.03"/>
</g>
<!-- Node38 -->
<g id="node14" class="node">
<title>Node38</title>
<g id="a_node14"><a xlink:title=" ">
<polygon fill="white" stroke="#bfbfbf" points="463,-185 463,-204 508,-204 508,-185 463,-185"/>
<text text-anchor="middle" x="485.5" y="-192" font-family="Helvetica,sans-Serif" font-size="10.00">utility</text>
</a>
</g>
</g>
<!-- Node22&#45;&gt;Node38 -->
<g id="edge17" class="edge">
<title>Node22&#45;&gt;Node38</title>
<path fill="none" stroke="midnightblue" d="M485.5,-251.73C485.5,-242.18 485.5,-226.62 485.5,-214.28"/>
<polygon fill="midnightblue" stroke="midnightblue" points="489,-214.13 485.5,-204.13 482,-214.13 489,-214.13"/>
</g>
<!-- Node23&#45;&gt;Node6 -->
<g id="edge13" class="edge">
<title>Node23&#45;&gt;Node6</title>
<path fill="none" stroke="midnightblue" d="M572.36,-179.4C559.11,-170.13 541.82,-158.03 528.42,-148.65"/>
<polygon fill="midnightblue" stroke="midnightblue" points="530.07,-145.53 519.87,-142.66 526.05,-151.26 530.07,-145.53"/>
</g>
<!-- Node23&#45;&gt;Node11 -->
<g id="edge12" class="edge">
<title>Node23&#45;&gt;Node11</title>
<path fill="none" stroke="midnightblue" d="M603.16,-179.4C609.64,-170.84 617.93,-159.87 624.75,-150.86"/>
<polygon fill="midnightblue" stroke="midnightblue" points="627.71,-152.74 630.95,-142.66 622.13,-148.52 627.71,-152.74"/>
</g>
</g>
</svg>
