<?xml version="1.0" encoding="UTF-8" standalone="no"?>
<!DOCTYPE svg PUBLIC "-//W3C//DTD SVG 1.1//EN"
 "http://www.w3.org/Graphics/SVG/1.1/DTD/svg11.dtd">
<!-- Generated by graphviz version 2.43.0 (0)
 -->
<!-- Title: include/emlabcpp/pmr/pool_resource.h Pages: 1 -->
<svg width="815pt" height="229pt"
 viewBox="0.00 0.00 815.00 229.00" xmlns="http://www.w3.org/2000/svg" xmlns:xlink="http://www.w3.org/1999/xlink">
<g id="graph0" class="graph" transform="scale(1 1) rotate(0) translate(4 225)">
<title>include/emlabcpp/pmr/pool_resource.h</title>
<polygon fill="white" stroke="transparent" points="-4,4 -4,-225 811,-225 811,4 -4,4"/>
<!-- Node1 -->
<g id="node1" class="node">
<title>Node1</title>
<g id="a_node1"><a xlink:title=" ">
<polygon fill="#bfbfbf" stroke="black" points="208,-190.5 208,-220.5 333,-220.5 333,-190.5 208,-190.5"/>
<text text-anchor="start" x="216" y="-208.5" font-family="Helvetica,sans-Serif" font-size="10.00">include/emlabcpp/pmr</text>
<text text-anchor="middle" x="270.5" y="-197.5" font-family="Helvetica,sans-Serif" font-size="10.00">/pool_resource.h</text>
</a>
</g>
</g>
<!-- Node2 -->
<g id="node2" class="node">
<title>Node2</title>
<g id="a_node2"><a xlink:href="memory__resource_8h.html" target="_top" xlink:title=" ">
<polygon fill="white" stroke="black" points="0,-123.5 0,-153.5 131,-153.5 131,-123.5 0,-123.5"/>
<text text-anchor="start" x="8" y="-141.5" font-family="Helvetica,sans-Serif" font-size="10.00">emlabcpp/pmr/memory</text>
<text text-anchor="middle" x="65.5" y="-130.5" font-family="Helvetica,sans-Serif" font-size="10.00">_resource.h</text>
</a>
</g>
</g>
<!-- Node1&#45;&gt;Node2 -->
<g id="edge1" class="edge">
<title>Node1&#45;&gt;Node2</title>
<path fill="none" stroke="midnightblue" d="M226.27,-190.48C194.99,-180.56 152.86,-167.2 119.58,-156.65"/>
<polygon fill="midnightblue" stroke="midnightblue" points="120.59,-153.3 110,-153.61 118.48,-159.97 120.59,-153.3"/>
</g>
<!-- Node4 -->
<g id="node4" class="node">
<title>Node4</title>
<g id="a_node4"><a xlink:href="util_8h.html" target="_top" xlink:title=" ">
<polygon fill="white" stroke="black" points="149,-129 149,-148 264,-148 264,-129 149,-129"/>
<text text-anchor="middle" x="206.5" y="-136" font-family="Helvetica,sans-Serif" font-size="10.00">emlabcpp/pmr/util.h</text>
</a>
</g>
</g>
<!-- Node1&#45;&gt;Node4 -->
<g id="edge3" class="edge">
<title>Node1&#45;&gt;Node4</title>
<path fill="none" stroke="midnightblue" d="M256.61,-190.4C246.54,-180.16 232.88,-166.3 222.37,-155.62"/>
<polygon fill="midnightblue" stroke="midnightblue" points="224.57,-152.86 215.06,-148.19 219.58,-157.78 224.57,-152.86"/>
</g>
<!-- Node6 -->
<g id="node6" class="node">
<title>Node6</title>
<g id="a_node6"><a xlink:href="range_8h.html" target="_top" xlink:title=" ">
<polygon fill="white" stroke="black" points="282.5,-129 282.5,-148 386.5,-148 386.5,-129 282.5,-129"/>
<text text-anchor="middle" x="334.5" y="-136" font-family="Helvetica,sans-Serif" font-size="10.00">emlabcpp/range.h</text>
</a>
</g>
</g>
<!-- Node1&#45;&gt;Node6 -->
<g id="edge6" class="edge">
<title>Node1&#45;&gt;Node6</title>
<path fill="none" stroke="midnightblue" d="M284.39,-190.4C294.46,-180.16 308.12,-166.3 318.63,-155.62"/>
<polygon fill="midnightblue" stroke="midnightblue" points="321.42,-157.78 325.94,-148.19 316.43,-152.86 321.42,-157.78"/>
</g>
<!-- Node22 -->
<g id="node9" class="node">
<title>Node22</title>
<g id="a_node9"><a xlink:href="static__vector_8h.html" target="_top" xlink:title=" ">
<polygon fill="white" stroke="black" points="466,-129 466,-148 605,-148 605,-129 466,-129"/>
<text text-anchor="middle" x="535.5" y="-136" font-family="Helvetica,sans-Serif" font-size="10.00">emlabcpp/static_vector.h</text>
</a>
</g>
</g>
<!-- Node1&#45;&gt;Node22 -->
<g id="edge9" class="edge">
<title>Node1&#45;&gt;Node22</title>
<path fill="none" stroke="midnightblue" d="M327.67,-190.48C376.62,-178.47 446.1,-161.43 490.99,-150.42"/>
<polygon fill="midnightblue" stroke="midnightblue" points="491.85,-153.81 500.73,-148.03 490.18,-147.01 491.85,-153.81"/>
</g>
<!-- Node3 -->
<g id="node3" class="node">
<title>Node3</title>
<g id="a_node3"><a xlink:title=" ">
<polygon fill="white" stroke="#bfbfbf" points="75,-62 75,-81 128,-81 128,-62 75,-62"/>
<text text-anchor="middle" x="101.5" y="-69" font-family="Helvetica,sans-Serif" font-size="10.00">cstddef</text>
</a>
</g>
</g>
<!-- Node2&#45;&gt;Node3 -->
<g id="edge2" class="edge">
<title>Node2&#45;&gt;Node3</title>
<path fill="none" stroke="midnightblue" d="M73.31,-123.4C78.7,-113.66 85.91,-100.65 91.69,-90.21"/>
<polygon fill="midnightblue" stroke="midnightblue" points="94.9,-91.64 96.68,-81.19 88.78,-88.25 94.9,-91.64"/>
</g>
<!-- Node4&#45;&gt;Node3 -->
<g id="edge4" class="edge">
<title>Node4&#45;&gt;Node3</title>
<path fill="none" stroke="midnightblue" d="M192.34,-128.73C174.79,-117.87 144.66,-99.22 123.94,-86.39"/>
<polygon fill="midnightblue" stroke="midnightblue" points="125.78,-83.41 115.44,-81.13 122.1,-89.37 125.78,-83.41"/>
</g>
<!-- Node5 -->
<g id="node5" class="node">
<title>Node5</title>
<g id="a_node5"><a xlink:title=" ">
<polygon fill="white" stroke="#bfbfbf" points="181.5,-62 181.5,-81 231.5,-81 231.5,-62 181.5,-62"/>
<text text-anchor="middle" x="206.5" y="-69" font-family="Helvetica,sans-Serif" font-size="10.00">cstdint</text>
</a>
</g>
</g>
<!-- Node4&#45;&gt;Node5 -->
<g id="edge5" class="edge">
<title>Node4&#45;&gt;Node5</title>
<path fill="none" stroke="midnightblue" d="M206.5,-128.73C206.5,-119.18 206.5,-103.62 206.5,-91.28"/>
<polygon fill="midnightblue" stroke="midnightblue" points="210,-91.13 206.5,-81.13 203,-91.13 210,-91.13"/>
</g>
<!-- Node7 -->
<g id="node7" class="node">
<title>Node7</title>
<g id="a_node7"><a xlink:href="numeric_8h.html" target="_top" xlink:title=" ">
<polygon fill="white" stroke="black" points="265,-56.5 265,-86.5 374,-86.5 374,-56.5 265,-56.5"/>
<text text-anchor="start" x="273" y="-74.5" font-family="Helvetica,sans-Serif" font-size="10.00">emlabcpp/iterators</text>
<text text-anchor="middle" x="319.5" y="-63.5" font-family="Helvetica,sans-Serif" font-size="10.00">/numeric.h</text>
</a>
</g>
</g>
<!-- Node6&#45;&gt;Node7 -->
<g id="edge7" class="edge">
<title>Node6&#45;&gt;Node7</title>
<path fill="none" stroke="midnightblue" d="M332.48,-128.73C330.57,-120.46 327.61,-107.66 325.01,-96.37"/>
<polygon fill="midnightblue" stroke="midnightblue" points="328.41,-95.55 322.75,-86.59 321.59,-97.12 328.41,-95.55"/>
</g>
<!-- Node8 -->
<g id="node8" class="node">
<title>Node8</title>
<g id="a_node8"><a xlink:href="iterator_8h.html" target="_top" xlink:title=" ">
<polygon fill="white" stroke="red" points="304.5,-0.5 304.5,-19.5 416.5,-19.5 416.5,-0.5 304.5,-0.5"/>
<text text-anchor="middle" x="360.5" y="-7.5" font-family="Helvetica,sans-Serif" font-size="10.00">emlabcpp/iterator.h</text>
</a>
</g>
</g>
<!-- Node7&#45;&gt;Node8 -->
<g id="edge8" class="edge">
<title>Node7&#45;&gt;Node8</title>
<path fill="none" stroke="midnightblue" d="M329.22,-56.4C335.05,-47.93 342.52,-37.1 348.69,-28.14"/>
<polygon fill="midnightblue" stroke="midnightblue" points="351.74,-29.88 354.53,-19.66 345.98,-25.91 351.74,-29.88"/>
</g>
<!-- Node22&#45;&gt;Node8 -->
<g id="edge13" class="edge">
<title>Node22&#45;&gt;Node8</title>
<path fill="none" stroke="midnightblue" d="M519.56,-128.89C502.31,-119.36 474.24,-103.18 451.5,-87 424.55,-67.82 395.58,-42.77 377.74,-26.78"/>
<polygon fill="midnightblue" stroke="midnightblue" points="379.7,-23.83 369.93,-19.72 375,-29.03 379.7,-23.83"/>
</g>
<!-- Node11 -->
<g id="node10" class="node">
<title>Node11</title>
<g id="a_node10"><a xlink:href="concepts_8h.html" target="_top" xlink:title=" ">
<polygon fill="white" stroke="red" points="454.5,-0.5 454.5,-19.5 574.5,-19.5 574.5,-0.5 454.5,-0.5"/>
<text text-anchor="middle" x="514.5" y="-7.5" font-family="Helvetica,sans-Serif" font-size="10.00">emlabcpp/concepts.h</text>
</a>
</g>
</g>
<!-- Node22&#45;&gt;Node11 -->
<g id="edge10" class="edge">
<title>Node22&#45;&gt;Node11</title>
<path fill="none" stroke="midnightblue" d="M511.88,-128.99C493.93,-121.13 470.5,-107.52 459.5,-87 452.99,-74.86 453.6,-68.45 459.5,-56 465.63,-43.07 477.49,-32.62 488.64,-25.05"/>
<polygon fill="midnightblue" stroke="midnightblue" points="490.69,-27.9 497.3,-19.61 486.97,-21.97 490.69,-27.9"/>
</g>
<!-- Node23 -->
<g id="node11" class="node">
<title>Node23</title>
<g id="a_node11"><a xlink:href="pretty__printer_8h.html" target="_top" xlink:title=" ">
<polygon fill="white" stroke="red" points="469,-56.5 469,-86.5 602,-86.5 602,-56.5 469,-56.5"/>
<text text-anchor="start" x="477" y="-74.5" font-family="Helvetica,sans-Serif" font-size="10.00">emlabcpp/experimental</text>
<text text-anchor="middle" x="535.5" y="-63.5" font-family="Helvetica,sans-Serif" font-size="10.00">/pretty_printer.h</text>
</a>
</g>
</g>
<!-- Node22&#45;&gt;Node23 -->
<g id="edge11" class="edge">
<title>Node22&#45;&gt;Node23</title>
<path fill="none" stroke="midnightblue" d="M535.5,-128.73C535.5,-120.54 535.5,-107.92 535.5,-96.71"/>
<polygon fill="midnightblue" stroke="midnightblue" points="539,-96.59 535.5,-86.59 532,-96.59 539,-96.59"/>
</g>
<!-- Node32 -->
<g id="node12" class="node">
<title>Node32</title>
<g id="a_node12"><a xlink:title=" ">
<polygon fill="white" stroke="#bfbfbf" points="620,-62 620,-81 657,-81 657,-62 620,-62"/>
<text text-anchor="middle" x="638.5" y="-69" font-family="Helvetica,sans-Serif" font-size="10.00">new</text>
</a>
</g>
</g>
<!-- Node22&#45;&gt;Node32 -->
<g id="edge14" class="edge">
<title>Node22&#45;&gt;Node32</title>
<path fill="none" stroke="midnightblue" d="M549.39,-128.73C566.53,-117.92 595.9,-99.38 616.21,-86.57"/>
<polygon fill="midnightblue" stroke="midnightblue" points="618.24,-89.42 624.83,-81.13 614.5,-83.5 618.24,-89.42"/>
</g>
<!-- Node16 -->
<g id="node13" class="node">
<title>Node16</title>
<g id="a_node13"><a xlink:title=" ">
<polygon fill="white" stroke="#bfbfbf" points="675,-62 675,-81 744,-81 744,-62 675,-62"/>
<text text-anchor="middle" x="709.5" y="-69" font-family="Helvetica,sans-Serif" font-size="10.00">type_traits</text>
</a>
</g>
</g>
<!-- Node22&#45;&gt;Node16 -->
<g id="edge15" class="edge">
<title>Node22&#45;&gt;Node16</title>
<path fill="none" stroke="midnightblue" d="M558.61,-128.87C588.98,-117.52 642.51,-97.52 676.97,-84.65"/>
<polygon fill="midnightblue" stroke="midnightblue" points="678.43,-87.84 686.58,-81.06 675.98,-81.28 678.43,-87.84"/>
</g>
<!-- Node33 -->
<g id="node14" class="node">
<title>Node33</title>
<g id="a_node14"><a xlink:title=" ">
<polygon fill="white" stroke="#bfbfbf" points="762,-62 762,-81 807,-81 807,-62 762,-62"/>
<text text-anchor="middle" x="784.5" y="-69" font-family="Helvetica,sans-Serif" font-size="10.00">utility</text>
</a>
</g>
</g>
<!-- Node22&#45;&gt;Node33 -->
<g id="edge16" class="edge">
<title>Node22&#45;&gt;Node33</title>
<path fill="none" stroke="midnightblue" d="M585.69,-128.98C630.42,-120.65 697.32,-106.41 753.5,-87 755.12,-86.44 756.77,-85.82 758.42,-85.17"/>
<polygon fill="midnightblue" stroke="midnightblue" points="759.93,-88.33 767.71,-81.13 757.14,-81.91 759.93,-88.33"/>
</g>
<!-- Node23&#45;&gt;Node11 -->
<g id="edge12" class="edge">
<title>Node23&#45;&gt;Node11</title>
<path fill="none" stroke="midnightblue" d="M530.52,-56.4C527.66,-48.29 524.03,-38.01 520.95,-29.28"/>
<polygon fill="midnightblue" stroke="midnightblue" points="524.18,-27.92 517.56,-19.66 517.58,-30.25 524.18,-27.92"/>
</g>
</g>
</svg>
