<?xml version="1.0" encoding="UTF-8" standalone="no"?>
<!DOCTYPE svg PUBLIC "-//W3C//DTD SVG 1.1//EN"
 "http://www.w3.org/Graphics/SVG/1.1/DTD/svg11.dtd">
<!-- Generated by graphviz version 2.43.0 (0)
 -->
<!-- Title: include/emlabcpp/pmr/pool_resource.h Pages: 1 -->
<svg width="780pt" height="229pt"
 viewBox="0.00 0.00 780.00 229.00" xmlns="http://www.w3.org/2000/svg" xmlns:xlink="http://www.w3.org/1999/xlink">
<g id="graph0" class="graph" transform="scale(1 1) rotate(0) translate(4 225)">
<title>include/emlabcpp/pmr/pool_resource.h</title>
<polygon fill="white" stroke="transparent" points="-4,4 -4,-225 776,-225 776,4 -4,4"/>
<!-- Node1 -->
<g id="node1" class="node">
<title>Node1</title>
<g id="a_node1"><a xlink:title=" ">
<polygon fill="#bfbfbf" stroke="black" points="209,-190.5 209,-220.5 334,-220.5 334,-190.5 209,-190.5"/>
<text text-anchor="start" x="217" y="-208.5" font-family="Helvetica,sans-Serif" font-size="10.00">include/emlabcpp/pmr</text>
<text text-anchor="middle" x="271.5" y="-197.5" font-family="Helvetica,sans-Serif" font-size="10.00">/pool_resource.h</text>
</a>
</g>
</g>
<!-- Node2 -->
<g id="node2" class="node">
<title>Node2</title>
<g id="a_node2"><a xlink:href="numeric_8h.html" target="_top" xlink:title=" ">
<polygon fill="white" stroke="black" points="282,-123.5 282,-153.5 391,-153.5 391,-123.5 282,-123.5"/>
<text text-anchor="start" x="290" y="-141.5" font-family="Helvetica,sans-Serif" font-size="10.00">emlabcpp/iterators</text>
<text text-anchor="middle" x="336.5" y="-130.5" font-family="Helvetica,sans-Serif" font-size="10.00">/numeric.h</text>
</a>
</g>
</g>
<!-- Node1&#45;&gt;Node2 -->
<g id="edge1" class="edge">
<title>Node1&#45;&gt;Node2</title>
<path fill="none" stroke="midnightblue" d="M285.6,-190.4C294.29,-181.71 305.6,-170.4 315.34,-160.66"/>
<polygon fill="midnightblue" stroke="midnightblue" points="317.83,-163.12 322.42,-153.58 312.88,-158.17 317.83,-163.12"/>
</g>
<!-- Node18 -->
<g id="node4" class="node">
<title>Node18</title>
<g id="a_node4"><a xlink:href="memory__resource_8h.html" target="_top" xlink:title=" ">
<polygon fill="white" stroke="black" points="0,-123.5 0,-153.5 131,-153.5 131,-123.5 0,-123.5"/>
<text text-anchor="start" x="8" y="-141.5" font-family="Helvetica,sans-Serif" font-size="10.00">emlabcpp/pmr/memory</text>
<text text-anchor="middle" x="65.5" y="-130.5" font-family="Helvetica,sans-Serif" font-size="10.00">_resource.h</text>
</a>
</g>
</g>
<!-- Node1&#45;&gt;Node18 -->
<g id="edge3" class="edge">
<title>Node1&#45;&gt;Node18</title>
<path fill="none" stroke="midnightblue" d="M227.05,-190.48C195.62,-180.56 153.29,-167.2 119.85,-156.65"/>
<polygon fill="midnightblue" stroke="midnightblue" points="120.81,-153.28 110.22,-153.61 118.7,-159.96 120.81,-153.28"/>
</g>
<!-- Node20 -->
<g id="node6" class="node">
<title>Node20</title>
<g id="a_node6"><a xlink:href="util_8h.html" target="_top" xlink:title=" ">
<polygon fill="white" stroke="black" points="149,-129 149,-148 264,-148 264,-129 149,-129"/>
<text text-anchor="middle" x="206.5" y="-136" font-family="Helvetica,sans-Serif" font-size="10.00">emlabcpp/pmr/util.h</text>
</a>
</g>
</g>
<!-- Node1&#45;&gt;Node20 -->
<g id="edge5" class="edge">
<title>Node1&#45;&gt;Node20</title>
<path fill="none" stroke="midnightblue" d="M257.4,-190.4C247.06,-180.06 233.02,-166.02 222.31,-155.31"/>
<polygon fill="midnightblue" stroke="midnightblue" points="224.74,-152.79 215.19,-148.19 219.79,-157.74 224.74,-152.79"/>
</g>
<!-- Node21 -->
<g id="node8" class="node">
<title>Node21</title>
<g id="a_node8"><a xlink:href="static__vector_8h.html" target="_top" xlink:title=" ">
<polygon fill="white" stroke="black" points="435,-129 435,-148 574,-148 574,-129 435,-129"/>
<text text-anchor="middle" x="504.5" y="-136" font-family="Helvetica,sans-Serif" font-size="10.00">emlabcpp/static_vector.h</text>
</a>
</g>
</g>
<!-- Node1&#45;&gt;Node21 -->
<g id="edge8" class="edge">
<title>Node1&#45;&gt;Node21</title>
<path fill="none" stroke="midnightblue" d="M321.77,-190.48C364.35,-178.6 424.61,-161.79 464.11,-150.77"/>
<polygon fill="midnightblue" stroke="midnightblue" points="465.24,-154.09 473.93,-148.03 463.36,-147.34 465.24,-154.09"/>
</g>
<!-- Node3 -->
<g id="node3" class="node">
<title>Node3</title>
<g id="a_node3"><a xlink:href="iterator_8h.html" target="_top" xlink:title=" ">
<polygon fill="white" stroke="red" points="264.5,-62 264.5,-81 376.5,-81 376.5,-62 264.5,-62"/>
<text text-anchor="middle" x="320.5" y="-69" font-family="Helvetica,sans-Serif" font-size="10.00">emlabcpp/iterator.h</text>
</a>
</g>
</g>
<!-- Node2&#45;&gt;Node3 -->
<g id="edge2" class="edge">
<title>Node2&#45;&gt;Node3</title>
<path fill="none" stroke="midnightblue" d="M333.03,-123.4C330.71,-113.96 327.63,-101.45 325.1,-91.19"/>
<polygon fill="midnightblue" stroke="midnightblue" points="328.43,-90.07 322.64,-81.19 321.63,-91.74 328.43,-90.07"/>
</g>
<!-- Node19 -->
<g id="node5" class="node">
<title>Node19</title>
<g id="a_node5"><a xlink:title=" ">
<polygon fill="white" stroke="#bfbfbf" points="75,-62 75,-81 128,-81 128,-62 75,-62"/>
<text text-anchor="middle" x="101.5" y="-69" font-family="Helvetica,sans-Serif" font-size="10.00">cstddef</text>
</a>
</g>
</g>
<!-- Node18&#45;&gt;Node19 -->
<g id="edge4" class="edge">
<title>Node18&#45;&gt;Node19</title>
<path fill="none" stroke="midnightblue" d="M73.31,-123.4C78.7,-113.66 85.91,-100.65 91.69,-90.21"/>
<polygon fill="midnightblue" stroke="midnightblue" points="94.9,-91.64 96.68,-81.19 88.78,-88.25 94.9,-91.64"/>
</g>
<!-- Node20&#45;&gt;Node19 -->
<g id="edge6" class="edge">
<title>Node20&#45;&gt;Node19</title>
<path fill="none" stroke="midnightblue" d="M192.34,-128.73C174.79,-117.87 144.66,-99.22 123.94,-86.39"/>
<polygon fill="midnightblue" stroke="midnightblue" points="125.78,-83.41 115.44,-81.13 122.1,-89.37 125.78,-83.41"/>
</g>
<!-- Node9 -->
<g id="node7" class="node">
<title>Node9</title>
<g id="a_node7"><a xlink:title=" ">
<polygon fill="white" stroke="#bfbfbf" points="181.5,-62 181.5,-81 231.5,-81 231.5,-62 181.5,-62"/>
<text text-anchor="middle" x="206.5" y="-69" font-family="Helvetica,sans-Serif" font-size="10.00">cstdint</text>
</a>
</g>
</g>
<!-- Node20&#45;&gt;Node9 -->
<g id="edge7" class="edge">
<title>Node20&#45;&gt;Node9</title>
<path fill="none" stroke="midnightblue" d="M206.5,-128.73C206.5,-119.18 206.5,-103.62 206.5,-91.28"/>
<polygon fill="midnightblue" stroke="midnightblue" points="210,-91.13 206.5,-81.13 203,-91.13 210,-91.13"/>
</g>
<!-- Node21&#45;&gt;Node3 -->
<g id="edge12" class="edge">
<title>Node21&#45;&gt;Node3</title>
<path fill="none" stroke="midnightblue" d="M480.07,-128.87C447.81,-117.47 390.85,-97.35 354.43,-84.49"/>
<polygon fill="midnightblue" stroke="midnightblue" points="355.34,-81.09 344.74,-81.06 353,-87.69 355.34,-81.09"/>
</g>
<!-- Node6 -->
<g id="node9" class="node">
<title>Node6</title>
<g id="a_node9"><a xlink:href="concepts_8h.html" target="_top" xlink:title=" ">
<polygon fill="white" stroke="red" points="542.5,-0.5 542.5,-19.5 662.5,-19.5 662.5,-0.5 542.5,-0.5"/>
<text text-anchor="middle" x="602.5" y="-7.5" font-family="Helvetica,sans-Serif" font-size="10.00">emlabcpp/concepts.h</text>
</a>
</g>
</g>
<!-- Node21&#45;&gt;Node6 -->
<g id="edge9" class="edge">
<title>Node21&#45;&gt;Node6</title>
<path fill="none" stroke="midnightblue" d="M511.24,-128.81C527.32,-108.04 568.2,-55.27 589.36,-27.96"/>
<polygon fill="midnightblue" stroke="midnightblue" points="592.36,-29.8 595.72,-19.76 586.83,-25.52 592.36,-29.8"/>
</g>
<!-- Node22 -->
<g id="node10" class="node">
<title>Node22</title>
<g id="a_node10"><a xlink:href="pretty__printer_8h.html" target="_top" xlink:title=" ">
<polygon fill="white" stroke="red" points="584,-56.5 584,-86.5 717,-86.5 717,-56.5 584,-56.5"/>
<text text-anchor="start" x="592" y="-74.5" font-family="Helvetica,sans-Serif" font-size="10.00">emlabcpp/experimental</text>
<text text-anchor="middle" x="650.5" y="-63.5" font-family="Helvetica,sans-Serif" font-size="10.00">/pretty_printer.h</text>
</a>
</g>
</g>
<!-- Node21&#45;&gt;Node22 -->
<g id="edge10" class="edge">
<title>Node21&#45;&gt;Node22</title>
<path fill="none" stroke="midnightblue" d="M523.89,-128.87C545.7,-119.16 581.75,-103.11 609.81,-90.61"/>
<polygon fill="midnightblue" stroke="midnightblue" points="611.28,-93.79 618.99,-86.53 608.43,-87.4 611.28,-93.79"/>
</g>
<!-- Node31 -->
<g id="node11" class="node">
<title>Node31</title>
<g id="a_node11"><a xlink:title=" ">
<polygon fill="white" stroke="#bfbfbf" points="735,-62 735,-81 772,-81 772,-62 735,-62"/>
<text text-anchor="middle" x="753.5" y="-69" font-family="Helvetica,sans-Serif" font-size="10.00">new</text>
</a>
</g>
</g>
<!-- Node21&#45;&gt;Node31 -->
<g id="edge13" class="edge">
<title>Node21&#45;&gt;Node31</title>
<path fill="none" stroke="midnightblue" d="M560.91,-128.99C606.52,-121.09 671.9,-107.44 726.5,-87 727.71,-86.55 728.92,-86.05 730.14,-85.53"/>
<polygon fill="midnightblue" stroke="midnightblue" points="731.82,-88.6 739.26,-81.07 728.74,-82.31 731.82,-88.6"/>
</g>
<!-- Node12 -->
<g id="node12" class="node">
<title>Node12</title>
<g id="a_node12"><a xlink:title=" ">
<polygon fill="white" stroke="#bfbfbf" points="395,-62 395,-81 464,-81 464,-62 395,-62"/>
<text text-anchor="middle" x="429.5" y="-69" font-family="Helvetica,sans-Serif" font-size="10.00">type_traits</text>
</a>
</g>
</g>
<!-- Node21&#45;&gt;Node12 -->
<g id="edge14" class="edge">
<title>Node21&#45;&gt;Node12</title>
<path fill="none" stroke="midnightblue" d="M494.39,-128.73C482.35,-118.31 462.05,-100.71 447.35,-87.97"/>
<polygon fill="midnightblue" stroke="midnightblue" points="449.3,-85.03 439.45,-81.13 444.72,-90.32 449.3,-85.03"/>
</g>
<!-- Node32 -->
<g id="node13" class="node">
<title>Node32</title>
<g id="a_node13"><a xlink:title=" ">
<polygon fill="white" stroke="#bfbfbf" points="482,-62 482,-81 527,-81 527,-62 482,-62"/>
<text text-anchor="middle" x="504.5" y="-69" font-family="Helvetica,sans-Serif" font-size="10.00">utility</text>
</a>
</g>
</g>
<!-- Node21&#45;&gt;Node32 -->
<g id="edge15" class="edge">
<title>Node21&#45;&gt;Node32</title>
<path fill="none" stroke="midnightblue" d="M504.5,-128.73C504.5,-119.18 504.5,-103.62 504.5,-91.28"/>
<polygon fill="midnightblue" stroke="midnightblue" points="508,-91.13 504.5,-81.13 501,-91.13 508,-91.13"/>
</g>
<!-- Node22&#45;&gt;Node6 -->
<g id="edge11" class="edge">
<title>Node22&#45;&gt;Node6</title>
<path fill="none" stroke="midnightblue" d="M639.12,-56.4C632.15,-47.75 623.19,-36.64 615.87,-27.58"/>
<polygon fill="midnightblue" stroke="midnightblue" points="618.49,-25.24 609.48,-19.66 613.04,-29.64 618.49,-25.24"/>
</g>
</g>
</svg>
