<?xml version="1.0" encoding="UTF-8" standalone="no"?>
<!DOCTYPE svg PUBLIC "-//W3C//DTD SVG 1.1//EN"
 "http://www.w3.org/Graphics/SVG/1.1/DTD/svg11.dtd">
<!-- Generated by graphviz version 2.43.0 (0)
 -->
<!-- Title: include/emlabcpp/pmr/pool_resource.h Pages: 1 -->
<svg width="601pt" height="207pt"
 viewBox="0.00 0.00 601.00 207.00" xmlns="http://www.w3.org/2000/svg" xmlns:xlink="http://www.w3.org/1999/xlink">
<g id="graph0" class="graph" transform="scale(1 1) rotate(0) translate(4 203)">
<title>include/emlabcpp/pmr/pool_resource.h</title>
<polygon fill="white" stroke="transparent" points="-4,4 -4,-203 597,-203 597,4 -4,4"/>
<!-- Node1 -->
<g id="node1" class="node">
<title>Node1</title>
<g id="a_node1"><a xlink:title=" ">
<polygon fill="#bfbfbf" stroke="black" points="270.5,-168.5 270.5,-198.5 395.5,-198.5 395.5,-168.5 270.5,-168.5"/>
<text text-anchor="start" x="278.5" y="-186.5" font-family="Helvetica,sans-Serif" font-size="10.00">include/emlabcpp/pmr</text>
<text text-anchor="middle" x="333" y="-175.5" font-family="Helvetica,sans-Serif" font-size="10.00">/pool_resource.h</text>
</a>
</g>
</g>
<!-- Node2 -->
<g id="node2" class="node">
<title>Node2</title>
<g id="a_node2"><a xlink:href="range_8h.html" target="_top" xlink:title=" ">
<polygon fill="white" stroke="black" points="130,-112.5 130,-131.5 192,-131.5 192,-112.5 130,-112.5"/>
<text text-anchor="middle" x="161" y="-119.5" font-family="Helvetica,sans-Serif" font-size="10.00">../range.h</text>
</a>
</g>
</g>
<!-- Node1&#45;&gt;Node2 -->
<g id="edge1" class="edge">
<title>Node1&#45;&gt;Node2</title>
<path fill="none" stroke="midnightblue" d="M292.24,-168.4C262.78,-158.21 223.41,-144.59 195.5,-134.93"/>
<polygon fill="midnightblue" stroke="midnightblue" points="196.37,-131.53 185.78,-131.57 194.08,-138.15 196.37,-131.53"/>
</g>
<!-- Node20 -->
<g id="node5" class="node">
<title>Node20</title>
<g id="a_node5"><a xlink:href="static__vector_8h.html" target="_top" xlink:title=" ">
<polygon fill="white" stroke="black" points="221.5,-112.5 221.5,-131.5 318.5,-131.5 318.5,-112.5 221.5,-112.5"/>
<text text-anchor="middle" x="270" y="-119.5" font-family="Helvetica,sans-Serif" font-size="10.00">../static_vector.h</text>
</a>
</g>
</g>
<!-- Node1&#45;&gt;Node20 -->
<g id="edge4" class="edge">
<title>Node1&#45;&gt;Node20</title>
<path fill="none" stroke="midnightblue" d="M318.07,-168.4C308.63,-159.49 296.42,-147.95 286.67,-138.74"/>
<polygon fill="midnightblue" stroke="midnightblue" points="288.84,-135.98 279.17,-131.66 284.03,-141.07 288.84,-135.98"/>
</g>
<!-- Node26 -->
<g id="node9" class="node">
<title>Node26</title>
<g id="a_node9"><a xlink:href="memory__resource_8h.html" target="_top" xlink:title=" ">
<polygon fill="white" stroke="black" points="342,-112.5 342,-131.5 462,-131.5 462,-112.5 342,-112.5"/>
<text text-anchor="middle" x="402" y="-119.5" font-family="Helvetica,sans-Serif" font-size="10.00">./memory_resource.h</text>
</a>
</g>
</g>
<!-- Node1&#45;&gt;Node26 -->
<g id="edge9" class="edge">
<title>Node1&#45;&gt;Node26</title>
<path fill="none" stroke="midnightblue" d="M349.35,-168.4C359.9,-159.31 373.6,-147.49 384.38,-138.19"/>
<polygon fill="midnightblue" stroke="midnightblue" points="386.67,-140.84 391.96,-131.66 382.1,-135.54 386.67,-140.84"/>
</g>
<!-- Node27 -->
<g id="node10" class="node">
<title>Node27</title>
<g id="a_node10"><a xlink:href="util_8h.html" target="_top" xlink:title=" ">
<polygon fill="white" stroke="black" points="483.5,-112.5 483.5,-131.5 530.5,-131.5 530.5,-112.5 483.5,-112.5"/>
<text text-anchor="middle" x="507" y="-119.5" font-family="Helvetica,sans-Serif" font-size="10.00">./util.h</text>
</a>
</g>
</g>
<!-- Node1&#45;&gt;Node27 -->
<g id="edge11" class="edge">
<title>Node1&#45;&gt;Node27</title>
<path fill="none" stroke="midnightblue" d="M374.24,-168.4C404.49,-158.05 445.06,-144.18 473.36,-134.5"/>
<polygon fill="midnightblue" stroke="midnightblue" points="474.86,-137.69 483.19,-131.14 472.6,-131.07 474.86,-137.69"/>
</g>
<!-- Node3 -->
<g id="node3" class="node">
<title>Node3</title>
<g id="a_node3"><a xlink:href="numeric_8h.html" target="_top" xlink:title=" ">
<polygon fill="white" stroke="red" points="0,-56.5 0,-75.5 116,-75.5 116,-56.5 0,-56.5"/>
<text text-anchor="middle" x="58" y="-63.5" font-family="Helvetica,sans-Serif" font-size="10.00">./iterators/numeric.h</text>
</a>
</g>
</g>
<!-- Node2&#45;&gt;Node3 -->
<g id="edge2" class="edge">
<title>Node2&#45;&gt;Node3</title>
<path fill="none" stroke="midnightblue" d="M144.45,-112.32C128.01,-103.7 102.57,-90.36 83.53,-80.39"/>
<polygon fill="midnightblue" stroke="midnightblue" points="84.99,-77.2 74.51,-75.65 81.74,-83.4 84.99,-77.2"/>
</g>
<!-- Node6 -->
<g id="node4" class="node">
<title>Node6</title>
<g id="a_node4"><a xlink:href="view_8h.html" target="_top" xlink:title=" ">
<polygon fill="white" stroke="red" points="134,-56.5 134,-75.5 188,-75.5 188,-56.5 134,-56.5"/>
<text text-anchor="middle" x="161" y="-63.5" font-family="Helvetica,sans-Serif" font-size="10.00">./view.h</text>
</a>
</g>
</g>
<!-- Node2&#45;&gt;Node6 -->
<g id="edge3" class="edge">
<title>Node2&#45;&gt;Node6</title>
<path fill="none" stroke="midnightblue" d="M161,-112.08C161,-105.01 161,-94.86 161,-85.99"/>
<polygon fill="midnightblue" stroke="midnightblue" points="164.5,-85.75 161,-75.75 157.5,-85.75 164.5,-85.75"/>
</g>
<!-- Node20&#45;&gt;Node6 -->
<g id="edge8" class="edge">
<title>Node20&#45;&gt;Node6</title>
<path fill="none" stroke="midnightblue" d="M252.49,-112.32C234.93,-103.62 207.67,-90.12 187.47,-80.11"/>
<polygon fill="midnightblue" stroke="midnightblue" points="188.98,-76.96 178.47,-75.65 185.88,-83.23 188.98,-76.96"/>
</g>
<!-- Node8 -->
<g id="node6" class="node">
<title>Node8</title>
<g id="a_node6"><a xlink:href="concepts_8h.html" target="_top" xlink:title=" ">
<polygon fill="white" stroke="red" points="206.5,-56.5 206.5,-75.5 281.5,-75.5 281.5,-56.5 206.5,-56.5"/>
<text text-anchor="middle" x="244" y="-63.5" font-family="Helvetica,sans-Serif" font-size="10.00">./concepts.h</text>
</a>
</g>
</g>
<!-- Node20&#45;&gt;Node8 -->
<g id="edge5" class="edge">
<title>Node20&#45;&gt;Node8</title>
<path fill="none" stroke="midnightblue" d="M265.71,-112.08C262.15,-104.69 256.98,-93.95 252.58,-84.81"/>
<polygon fill="midnightblue" stroke="midnightblue" points="255.71,-83.24 248.21,-75.75 249.4,-86.28 255.71,-83.24"/>
</g>
<!-- Node21 -->
<g id="node7" class="node">
<title>Node21</title>
<g id="a_node7"><a xlink:href="static__storage_8h.html" target="_top" xlink:title=" ">
<polygon fill="white" stroke="red" points="299.5,-56.5 299.5,-75.5 400.5,-75.5 400.5,-56.5 299.5,-56.5"/>
<text text-anchor="middle" x="350" y="-63.5" font-family="Helvetica,sans-Serif" font-size="10.00">./static_storage.h</text>
</a>
</g>
</g>
<!-- Node20&#45;&gt;Node21 -->
<g id="edge6" class="edge">
<title>Node20&#45;&gt;Node21</title>
<path fill="none" stroke="midnightblue" d="M282.85,-112.32C295.22,-103.98 314.13,-91.21 328.74,-81.35"/>
<polygon fill="midnightblue" stroke="midnightblue" points="330.85,-84.15 337.18,-75.65 326.93,-78.35 330.85,-84.15"/>
</g>
<!-- Node22 -->
<g id="node8" class="node">
<title>Node22</title>
<g id="a_node8"><a xlink:title=" ">
<polygon fill="white" stroke="#bfbfbf" points="402.5,-0.5 402.5,-19.5 455.5,-19.5 455.5,-0.5 402.5,-0.5"/>
<text text-anchor="middle" x="429" y="-7.5" font-family="Helvetica,sans-Serif" font-size="10.00">cstddef</text>
</a>
</g>
</g>
<!-- Node21&#45;&gt;Node22 -->
<g id="edge7" class="edge">
<title>Node21&#45;&gt;Node22</title>
<path fill="none" stroke="midnightblue" d="M362.69,-56.32C374.9,-47.98 393.58,-35.21 408,-25.35"/>
<polygon fill="midnightblue" stroke="midnightblue" points="410.06,-28.19 416.34,-19.65 406.11,-22.41 410.06,-28.19"/>
</g>
<!-- Node26&#45;&gt;Node22 -->
<g id="edge10" class="edge">
<title>Node26&#45;&gt;Node22</title>
<path fill="none" stroke="midnightblue" d="M404.12,-112.37C408.48,-94.62 418.53,-53.67 424.44,-29.6"/>
<polygon fill="midnightblue" stroke="midnightblue" points="427.91,-30.14 426.89,-19.59 421.11,-28.47 427.91,-30.14"/>
</g>
<!-- Node27&#45;&gt;Node22 -->
<g id="edge13" class="edge">
<title>Node27&#45;&gt;Node22</title>
<path fill="none" stroke="midnightblue" d="M500.88,-112.37C488.01,-94.22 457.93,-51.8 441.05,-27.99"/>
<polygon fill="midnightblue" stroke="midnightblue" points="443.73,-25.72 435.09,-19.59 438.02,-29.77 443.73,-25.72"/>
</g>
<!-- Node28 -->
<g id="node11" class="node">
<title>Node28</title>
<g id="a_node11"><a xlink:title=" ">
<polygon fill="white" stroke="#bfbfbf" points="495.5,-56.5 495.5,-75.5 524.5,-75.5 524.5,-56.5 495.5,-56.5"/>
<text text-anchor="middle" x="510" y="-63.5" font-family="Helvetica,sans-Serif" font-size="10.00">bit</text>
</a>
</g>
</g>
<!-- Node27&#45;&gt;Node28 -->
<g id="edge12" class="edge">
<title>Node27&#45;&gt;Node28</title>
<path fill="none" stroke="midnightblue" d="M507.5,-112.08C507.89,-105.01 508.45,-94.86 508.95,-85.99"/>
<polygon fill="midnightblue" stroke="midnightblue" points="512.45,-85.93 509.51,-75.75 505.46,-85.54 512.45,-85.93"/>
</g>
<!-- Node11 -->
<g id="node12" class="node">
<title>Node11</title>
<g id="a_node12"><a xlink:title=" ">
<polygon fill="white" stroke="#bfbfbf" points="543,-56.5 543,-75.5 593,-75.5 593,-56.5 543,-56.5"/>
<text text-anchor="middle" x="568" y="-63.5" font-family="Helvetica,sans-Serif" font-size="10.00">cstdint</text>
</a>
</g>
</g>
<!-- Node27&#45;&gt;Node11 -->
<g id="edge14" class="edge">
<title>Node27&#45;&gt;Node11</title>
<path fill="none" stroke="midnightblue" d="M516.8,-112.32C525.82,-104.34 539.41,-92.31 550.32,-82.65"/>
<polygon fill="midnightblue" stroke="midnightblue" points="552.85,-85.08 558.02,-75.83 548.21,-79.84 552.85,-85.08"/>
</g>
</g>
</svg>
