<?xml version="1.0" encoding="UTF-8" standalone="no"?>
<!DOCTYPE svg PUBLIC "-//W3C//DTD SVG 1.1//EN"
 "http://www.w3.org/Graphics/SVG/1.1/DTD/svg11.dtd">
<!-- Generated by graphviz version 2.43.0 (0)
 -->
<!-- Title: include/emlabcpp/allocator/pool.h Pages: 1 -->
<svg width="964pt" height="453pt"
 viewBox="0.00 0.00 964.00 453.00" xmlns="http://www.w3.org/2000/svg" xmlns:xlink="http://www.w3.org/1999/xlink">
<g id="graph0" class="graph" transform="scale(1 1) rotate(0) translate(4 449)">
<title>include/emlabcpp/allocator/pool.h</title>
<polygon fill="white" stroke="transparent" points="-4,4 -4,-449 960,-449 960,4 -4,4"/>
<!-- Node1 -->
<g id="node1" class="node">
<title>Node1</title>
<g id="a_node1"><a xlink:title=" ">
<polygon fill="#bfbfbf" stroke="black" points="577.5,-414.5 577.5,-444.5 726.5,-444.5 726.5,-414.5 577.5,-414.5"/>
<text text-anchor="start" x="585.5" y="-432.5" font-family="Helvetica,sans-Serif" font-size="10.00">include/emlabcpp/allocator</text>
<text text-anchor="middle" x="652" y="-421.5" font-family="Helvetica,sans-Serif" font-size="10.00">/pool.h</text>
</a>
</g>
</g>
<!-- Node2 -->
<g id="node2" class="node">
<title>Node2</title>
<g id="a_node2"><a xlink:href="util_8h.html" target="_top" xlink:title=" ">
<polygon fill="white" stroke="black" points="0,-168.5 0,-198.5 110,-198.5 110,-168.5 0,-168.5"/>
<text text-anchor="start" x="8" y="-186.5" font-family="Helvetica,sans-Serif" font-size="10.00">emlabcpp/allocator</text>
<text text-anchor="middle" x="55" y="-175.5" font-family="Helvetica,sans-Serif" font-size="10.00">/util.h</text>
</a>
</g>
</g>
<!-- Node1&#45;&gt;Node2 -->
<g id="edge1" class="edge">
<title>Node1&#45;&gt;Node2</title>
<path fill="none" stroke="midnightblue" d="M577.08,-427.87C462.68,-425.67 250.98,-416.37 187,-378 120.47,-338.1 79.79,-250.21 63.38,-208.02"/>
<polygon fill="midnightblue" stroke="midnightblue" points="66.62,-206.68 59.82,-198.56 60.07,-209.15 66.62,-206.68"/>
</g>
<!-- Node4 -->
<g id="node4" class="node">
<title>Node4</title>
<g id="a_node4"><a xlink:href="assert_8h.html" target="_top" xlink:title=" ">
<polygon fill="white" stroke="black" points="551.5,-353 551.5,-372 658.5,-372 658.5,-353 551.5,-353"/>
<text text-anchor="middle" x="605" y="-360" font-family="Helvetica,sans-Serif" font-size="10.00">emlabcpp/assert.h</text>
</a>
</g>
</g>
<!-- Node1&#45;&gt;Node4 -->
<g id="edge3" class="edge">
<title>Node1&#45;&gt;Node4</title>
<path fill="none" stroke="midnightblue" d="M641.8,-414.4C634.62,-404.46 624.96,-391.11 617.34,-380.57"/>
<polygon fill="midnightblue" stroke="midnightblue" points="619.98,-378.25 611.29,-372.19 614.31,-382.35 619.98,-378.25"/>
</g>
<!-- Node6 -->
<g id="node6" class="node">
<title>Node6</title>
<g id="a_node6"><a xlink:href="numeric_8h.html" target="_top" xlink:title=" ">
<polygon fill="white" stroke="black" points="196.5,-347.5 196.5,-377.5 305.5,-377.5 305.5,-347.5 196.5,-347.5"/>
<text text-anchor="start" x="204.5" y="-365.5" font-family="Helvetica,sans-Serif" font-size="10.00">emlabcpp/iterators</text>
<text text-anchor="middle" x="251" y="-354.5" font-family="Helvetica,sans-Serif" font-size="10.00">/numeric.h</text>
</a>
</g>
</g>
<!-- Node1&#45;&gt;Node6 -->
<g id="edge5" class="edge">
<title>Node1&#45;&gt;Node6</title>
<path fill="none" stroke="midnightblue" d="M577.21,-418.24C510,-408.75 408.68,-393.76 321,-378 319.28,-377.69 317.53,-377.37 315.78,-377.04"/>
<polygon fill="midnightblue" stroke="midnightblue" points="316.07,-373.54 305.59,-375.1 314.76,-380.41 316.07,-373.54"/>
</g>
<!-- Node16 -->
<g id="node16" class="node">
<title>Node16</title>
<g id="a_node16"><a xlink:title=" ">
<polygon fill="white" stroke="#bfbfbf" points="450.5,-0.5 450.5,-19.5 497.5,-19.5 497.5,-0.5 450.5,-0.5"/>
<text text-anchor="middle" x="474" y="-7.5" font-family="Helvetica,sans-Serif" font-size="10.00">vector</text>
</a>
</g>
</g>
<!-- Node1&#45;&gt;Node16 -->
<g id="edge32" class="edge">
<title>Node1&#45;&gt;Node16</title>
<path fill="none" stroke="midnightblue" d="M598.77,-414.48C578.72,-406.74 557.33,-395.11 543,-378 520.58,-351.22 523,-336.93 523,-302 523,-302 523,-302 523,-121 523,-85.47 501.4,-48.63 486.88,-27.88"/>
<polygon fill="midnightblue" stroke="midnightblue" points="489.53,-25.57 480.81,-19.54 483.87,-29.69 489.53,-25.57"/>
</g>
<!-- Node20 -->
<g id="node20" class="node">
<title>Node20</title>
<g id="a_node20"><a xlink:href="static__vector_8h.html" target="_top" xlink:title=" ">
<polygon fill="white" stroke="black" points="330.5,-353 330.5,-372 469.5,-372 469.5,-353 330.5,-353"/>
<text text-anchor="middle" x="400" y="-360" font-family="Helvetica,sans-Serif" font-size="10.00">emlabcpp/static_vector.h</text>
</a>
</g>
</g>
<!-- Node1&#45;&gt;Node20 -->
<g id="edge21" class="edge">
<title>Node1&#45;&gt;Node20</title>
<path fill="none" stroke="midnightblue" d="M597.63,-414.48C551.28,-402.52 485.57,-385.57 442.87,-374.56"/>
<polygon fill="midnightblue" stroke="midnightblue" points="443.62,-371.14 433.06,-372.03 441.87,-377.92 443.62,-371.14"/>
</g>
<!-- Node23 -->
<g id="node23" class="node">
<title>Node23</title>
<g id="a_node23"><a xlink:title=" ">
<polygon fill="white" stroke="#bfbfbf" points="676.5,-353 676.5,-372 723.5,-372 723.5,-353 676.5,-353"/>
<text text-anchor="middle" x="700" y="-360" font-family="Helvetica,sans-Serif" font-size="10.00">deque</text>
</a>
</g>
</g>
<!-- Node1&#45;&gt;Node23 -->
<g id="edge27" class="edge">
<title>Node1&#45;&gt;Node23</title>
<path fill="none" stroke="midnightblue" d="M662.42,-414.4C669.83,-404.36 679.81,-390.84 687.63,-380.25"/>
<polygon fill="midnightblue" stroke="midnightblue" points="690.45,-382.32 693.58,-372.19 684.82,-378.16 690.45,-382.32"/>
</g>
<!-- Node24 -->
<g id="node24" class="node">
<title>Node24</title>
<g id="a_node24"><a xlink:title=" ">
<polygon fill="white" stroke="#bfbfbf" points="742,-353 742,-372 774,-372 774,-353 742,-353"/>
<text text-anchor="middle" x="758" y="-360" font-family="Helvetica,sans-Serif" font-size="10.00">list</text>
</a>
</g>
</g>
<!-- Node1&#45;&gt;Node24 -->
<g id="edge28" class="edge">
<title>Node1&#45;&gt;Node24</title>
<path fill="none" stroke="midnightblue" d="M675,-414.4C692.94,-403.39 717.72,-388.2 735.52,-377.28"/>
<polygon fill="midnightblue" stroke="midnightblue" points="737.43,-380.22 744.13,-372.01 733.77,-374.25 737.43,-380.22"/>
</g>
<!-- Node25 -->
<g id="node25" class="node">
<title>Node25</title>
<g id="a_node25"><a xlink:title=" ">
<polygon fill="white" stroke="#bfbfbf" points="792,-353 792,-372 830,-372 830,-353 792,-353"/>
<text text-anchor="middle" x="811" y="-360" font-family="Helvetica,sans-Serif" font-size="10.00">map</text>
</a>
</g>
</g>
<!-- Node1&#45;&gt;Node25 -->
<g id="edge29" class="edge">
<title>Node1&#45;&gt;Node25</title>
<path fill="none" stroke="midnightblue" d="M691.73,-414.48C717.95,-404.91 752.88,-391.55 783,-378 784,-377.55 785.01,-377.08 786.03,-376.6"/>
<polygon fill="midnightblue" stroke="midnightblue" points="787.75,-379.66 795.16,-372.09 784.64,-373.39 787.75,-379.66"/>
</g>
<!-- Node26 -->
<g id="node26" class="node">
<title>Node26</title>
<g id="a_node26"><a xlink:title=" ">
<polygon fill="white" stroke="#bfbfbf" points="848,-353 848,-372 906,-372 906,-353 848,-353"/>
<text text-anchor="middle" x="877" y="-360" font-family="Helvetica,sans-Serif" font-size="10.00">memory</text>
</a>
</g>
</g>
<!-- Node1&#45;&gt;Node26 -->
<g id="edge30" class="edge">
<title>Node1&#45;&gt;Node26</title>
<path fill="none" stroke="midnightblue" d="M710.15,-414.41C747.28,-405.01 796.3,-391.87 839,-378 841.41,-377.22 843.89,-376.37 846.37,-375.49"/>
<polygon fill="midnightblue" stroke="midnightblue" points="847.65,-378.75 855.83,-372.01 845.24,-372.18 847.65,-378.75"/>
</g>
<!-- Node27 -->
<g id="node27" class="node">
<title>Node27</title>
<g id="a_node27"><a xlink:title=" ">
<polygon fill="white" stroke="#bfbfbf" points="924,-353 924,-372 956,-372 956,-353 924,-353"/>
<text text-anchor="middle" x="940" y="-360" font-family="Helvetica,sans-Serif" font-size="10.00">set</text>
</a>
</g>
</g>
<!-- Node1&#45;&gt;Node27 -->
<g id="edge31" class="edge">
<title>Node1&#45;&gt;Node27</title>
<path fill="none" stroke="midnightblue" d="M726.65,-420.94C780.31,-413.89 853.7,-400.91 915,-378 916.03,-377.61 917.07,-377.19 918.11,-376.73"/>
<polygon fill="midnightblue" stroke="midnightblue" points="919.9,-379.74 927.18,-372.04 916.68,-373.53 919.9,-379.74"/>
</g>
<!-- Node3 -->
<g id="node3" class="node">
<title>Node3</title>
<g id="a_node3"><a xlink:title=" ">
<polygon fill="white" stroke="#bfbfbf" points="39,-0.5 39,-19.5 89,-19.5 89,-0.5 39,-0.5"/>
<text text-anchor="middle" x="64" y="-7.5" font-family="Helvetica,sans-Serif" font-size="10.00">cstdint</text>
</a>
</g>
</g>
<!-- Node2&#45;&gt;Node3 -->
<g id="edge2" class="edge">
<title>Node2&#45;&gt;Node3</title>
<path fill="none" stroke="midnightblue" d="M55.74,-168.47C57.35,-137.7 61.2,-64.33 63.02,-29.7"/>
<polygon fill="midnightblue" stroke="midnightblue" points="66.52,-29.73 63.55,-19.56 59.53,-29.36 66.52,-29.73"/>
</g>
<!-- Node5 -->
<g id="node5" class="node">
<title>Node5</title>
<g id="a_node5"><a xlink:title=" ">
<polygon fill="white" stroke="#bfbfbf" points="579,-291.5 579,-310.5 631,-310.5 631,-291.5 579,-291.5"/>
<text text-anchor="middle" x="605" y="-298.5" font-family="Helvetica,sans-Serif" font-size="10.00">cassert</text>
</a>
</g>
</g>
<!-- Node4&#45;&gt;Node5 -->
<g id="edge4" class="edge">
<title>Node4&#45;&gt;Node5</title>
<path fill="none" stroke="midnightblue" d="M605,-352.98C605,-344.58 605,-331.48 605,-320.66"/>
<polygon fill="midnightblue" stroke="midnightblue" points="608.5,-320.51 605,-310.51 601.5,-320.51 608.5,-320.51"/>
</g>
<!-- Node7 -->
<g id="node7" class="node">
<title>Node7</title>
<g id="a_node7"><a xlink:href="iterator_8h.html" target="_top" xlink:title=" ">
<polygon fill="white" stroke="black" points="188,-291.5 188,-310.5 300,-310.5 300,-291.5 188,-291.5"/>
<text text-anchor="middle" x="244" y="-298.5" font-family="Helvetica,sans-Serif" font-size="10.00">emlabcpp/iterator.h</text>
</a>
</g>
</g>
<!-- Node6&#45;&gt;Node7 -->
<g id="edge6" class="edge">
<title>Node6&#45;&gt;Node7</title>
<path fill="none" stroke="midnightblue" d="M249.34,-347.4C248.41,-339.47 247.23,-329.46 246.22,-320.86"/>
<polygon fill="midnightblue" stroke="midnightblue" points="249.66,-320.18 245.02,-310.66 242.71,-321 249.66,-320.18"/>
</g>
<!-- Node8 -->
<g id="node8" class="node">
<title>Node8</title>
<g id="a_node8"><a xlink:href="view_8h.html" target="_top" xlink:title=" ">
<polygon fill="white" stroke="black" points="129.5,-235.5 129.5,-254.5 228.5,-254.5 228.5,-235.5 129.5,-235.5"/>
<text text-anchor="middle" x="179" y="-242.5" font-family="Helvetica,sans-Serif" font-size="10.00">emlabcpp/view.h</text>
</a>
</g>
</g>
<!-- Node7&#45;&gt;Node8 -->
<g id="edge7" class="edge">
<title>Node7&#45;&gt;Node8</title>
<path fill="none" stroke="midnightblue" d="M233.56,-291.32C223.85,-283.26 209.18,-271.08 197.5,-261.37"/>
<polygon fill="midnightblue" stroke="midnightblue" points="199.56,-258.53 189.63,-254.83 195.09,-263.92 199.56,-258.53"/>
</g>
<!-- Node19 -->
<g id="node19" class="node">
<title>Node19</title>
<g id="a_node19"><a xlink:title=" ">
<polygon fill="white" stroke="#bfbfbf" points="246.5,-235.5 246.5,-254.5 299.5,-254.5 299.5,-235.5 246.5,-235.5"/>
<text text-anchor="middle" x="273" y="-242.5" font-family="Helvetica,sans-Serif" font-size="10.00">iterator</text>
</a>
</g>
</g>
<!-- Node7&#45;&gt;Node19 -->
<g id="edge20" class="edge">
<title>Node7&#45;&gt;Node19</title>
<path fill="none" stroke="midnightblue" d="M248.79,-291.08C252.76,-283.69 258.53,-272.95 263.43,-263.81"/>
<polygon fill="midnightblue" stroke="midnightblue" points="266.65,-265.22 268.3,-254.75 260.49,-261.91 266.65,-265.22"/>
</g>
<!-- Node9 -->
<g id="node9" class="node">
<title>Node9</title>
<g id="a_node9"><a xlink:href="types_8h.html" target="_top" xlink:title=" ">
<polygon fill="white" stroke="black" points="128,-174 128,-193 232,-193 232,-174 128,-174"/>
<text text-anchor="middle" x="180" y="-181" font-family="Helvetica,sans-Serif" font-size="10.00">emlabcpp/types.h</text>
</a>
</g>
</g>
<!-- Node8&#45;&gt;Node9 -->
<g id="edge8" class="edge">
<title>Node8&#45;&gt;Node9</title>
<path fill="none" stroke="midnightblue" d="M179.14,-235.48C179.28,-227.08 179.5,-213.98 179.69,-203.16"/>
<polygon fill="midnightblue" stroke="midnightblue" points="183.19,-203.07 179.86,-193.01 176.19,-202.95 183.19,-203.07"/>
</g>
<!-- Node10 -->
<g id="node10" class="node">
<title>Node10</title>
<g id="a_node10"><a xlink:href="concepts_8h.html" target="_top" xlink:title=" ">
<polygon fill="white" stroke="black" points="218,-112.5 218,-131.5 338,-131.5 338,-112.5 218,-112.5"/>
<text text-anchor="middle" x="278" y="-119.5" font-family="Helvetica,sans-Serif" font-size="10.00">emlabcpp/concepts.h</text>
</a>
</g>
</g>
<!-- Node9&#45;&gt;Node10 -->
<g id="edge9" class="edge">
<title>Node9&#45;&gt;Node10</title>
<path fill="none" stroke="midnightblue" d="M194.04,-173.98C210.05,-164.25 236.45,-148.23 255.37,-136.74"/>
<polygon fill="midnightblue" stroke="midnightblue" points="257.25,-139.69 263.99,-131.51 253.62,-133.71 257.25,-139.69"/>
</g>
<!-- Node11 -->
<g id="node11" class="node">
<title>Node11</title>
<g id="a_node11"><a xlink:href="types_2base_8h.html" target="_top" xlink:title=" ">
<polygon fill="white" stroke="black" points="128,-56.5 128,-75.5 258,-75.5 258,-56.5 128,-56.5"/>
<text text-anchor="middle" x="193" y="-63.5" font-family="Helvetica,sans-Serif" font-size="10.00">emlabcpp/types/base.h</text>
</a>
</g>
</g>
<!-- Node9&#45;&gt;Node11 -->
<g id="edge18" class="edge">
<title>Node9&#45;&gt;Node11</title>
<path fill="none" stroke="midnightblue" d="M170.93,-173.92C158.17,-160.74 137.46,-134.67 147,-112 152.03,-100.05 161.94,-89.69 171.29,-81.93"/>
<polygon fill="midnightblue" stroke="midnightblue" points="173.44,-84.69 179.21,-75.81 169.16,-79.15 173.44,-84.69"/>
</g>
<!-- Node18 -->
<g id="node18" class="node">
<title>Node18</title>
<g id="a_node18"><a xlink:title=" ">
<polygon fill="white" stroke="#bfbfbf" points="156,-112.5 156,-131.5 200,-131.5 200,-112.5 156,-112.5"/>
<text text-anchor="middle" x="178" y="-119.5" font-family="Helvetica,sans-Serif" font-size="10.00">string</text>
</a>
</g>
</g>
<!-- Node9&#45;&gt;Node18 -->
<g id="edge19" class="edge">
<title>Node9&#45;&gt;Node18</title>
<path fill="none" stroke="midnightblue" d="M179.71,-173.98C179.43,-165.58 178.99,-152.48 178.63,-141.66"/>
<polygon fill="midnightblue" stroke="midnightblue" points="182.12,-141.39 178.29,-131.51 175.12,-141.62 182.12,-141.39"/>
</g>
<!-- Node10&#45;&gt;Node11 -->
<g id="edge10" class="edge">
<title>Node10&#45;&gt;Node11</title>
<path fill="none" stroke="midnightblue" d="M264.34,-112.32C251.08,-103.9 230.73,-90.97 215.15,-81.07"/>
<polygon fill="midnightblue" stroke="midnightblue" points="216.94,-78.06 206.62,-75.65 213.19,-83.97 216.94,-78.06"/>
</g>
<!-- Node17 -->
<g id="node17" class="node">
<title>Node17</title>
<g id="a_node17"><a xlink:title=" ">
<polygon fill="white" stroke="#bfbfbf" points="276,-56.5 276,-75.5 336,-75.5 336,-56.5 276,-56.5"/>
<text text-anchor="middle" x="306" y="-63.5" font-family="Helvetica,sans-Serif" font-size="10.00">concepts</text>
</a>
</g>
</g>
<!-- Node10&#45;&gt;Node17 -->
<g id="edge17" class="edge">
<title>Node10&#45;&gt;Node17</title>
<path fill="none" stroke="midnightblue" d="M282.62,-112.08C286.46,-104.69 292.02,-93.95 296.76,-84.81"/>
<polygon fill="midnightblue" stroke="midnightblue" points="299.97,-86.24 301.46,-75.75 293.75,-83.02 299.97,-86.24"/>
</g>
<!-- Node11&#45;&gt;Node3 -->
<g id="edge12" class="edge">
<title>Node11&#45;&gt;Node3</title>
<path fill="none" stroke="midnightblue" d="M172.56,-56.44C151.33,-47.56 117.9,-33.56 93.75,-23.45"/>
<polygon fill="midnightblue" stroke="midnightblue" points="94.92,-20.15 84.34,-19.52 92.22,-26.61 94.92,-20.15"/>
</g>
<!-- Node12 -->
<g id="node12" class="node">
<title>Node12</title>
<g id="a_node12"><a xlink:title=" ">
<polygon fill="white" stroke="#bfbfbf" points="108,-0.5 108,-19.5 150,-19.5 150,-0.5 108,-0.5"/>
<text text-anchor="middle" x="129" y="-7.5" font-family="Helvetica,sans-Serif" font-size="10.00">array</text>
</a>
</g>
</g>
<!-- Node11&#45;&gt;Node12 -->
<g id="edge11" class="edge">
<title>Node11&#45;&gt;Node12</title>
<path fill="none" stroke="midnightblue" d="M182.72,-56.32C173.16,-48.26 158.72,-36.08 147.22,-26.37"/>
<polygon fill="midnightblue" stroke="midnightblue" points="149.37,-23.61 139.47,-19.83 144.86,-28.96 149.37,-23.61"/>
</g>
<!-- Node13 -->
<g id="node13" class="node">
<title>Node13</title>
<g id="a_node13"><a xlink:title=" ">
<polygon fill="white" stroke="#bfbfbf" points="168,-0.5 168,-19.5 218,-19.5 218,-0.5 168,-0.5"/>
<text text-anchor="middle" x="193" y="-7.5" font-family="Helvetica,sans-Serif" font-size="10.00">ranges</text>
</a>
</g>
</g>
<!-- Node11&#45;&gt;Node13 -->
<g id="edge13" class="edge">
<title>Node11&#45;&gt;Node13</title>
<path fill="none" stroke="midnightblue" d="M193,-56.08C193,-49.01 193,-38.86 193,-29.99"/>
<polygon fill="midnightblue" stroke="midnightblue" points="196.5,-29.75 193,-19.75 189.5,-29.75 196.5,-29.75"/>
</g>
<!-- Node14 -->
<g id="node14" class="node">
<title>Node14</title>
<g id="a_node14"><a xlink:title=" ">
<polygon fill="white" stroke="#bfbfbf" points="236.5,-0.5 236.5,-19.5 277.5,-19.5 277.5,-0.5 236.5,-0.5"/>
<text text-anchor="middle" x="257" y="-7.5" font-family="Helvetica,sans-Serif" font-size="10.00">tuple</text>
</a>
</g>
</g>
<!-- Node11&#45;&gt;Node14 -->
<g id="edge14" class="edge">
<title>Node11&#45;&gt;Node14</title>
<path fill="none" stroke="midnightblue" d="M203.28,-56.32C212.84,-48.26 227.28,-36.08 238.78,-26.37"/>
<polygon fill="midnightblue" stroke="midnightblue" points="241.14,-28.96 246.53,-19.83 236.63,-23.61 241.14,-28.96"/>
</g>
<!-- Node15 -->
<g id="node15" class="node">
<title>Node15</title>
<g id="a_node15"><a xlink:title=" ">
<polygon fill="white" stroke="#bfbfbf" points="313.5,-0.5 313.5,-19.5 382.5,-19.5 382.5,-0.5 313.5,-0.5"/>
<text text-anchor="middle" x="348" y="-7.5" font-family="Helvetica,sans-Serif" font-size="10.00">type_traits</text>
</a>
</g>
</g>
<!-- Node11&#45;&gt;Node15 -->
<g id="edge15" class="edge">
<title>Node11&#45;&gt;Node15</title>
<path fill="none" stroke="midnightblue" d="M217.56,-56.44C243.52,-47.4 284.67,-33.06 313.8,-22.92"/>
<polygon fill="midnightblue" stroke="midnightblue" points="315.26,-26.11 323.55,-19.52 312.96,-19.5 315.26,-26.11"/>
</g>
<!-- Node11&#45;&gt;Node16 -->
<g id="edge16" class="edge">
<title>Node11&#45;&gt;Node16</title>
<path fill="none" stroke="midnightblue" d="M237.53,-56.44C293.87,-45.62 389.67,-27.21 440.31,-17.47"/>
<polygon fill="midnightblue" stroke="midnightblue" points="441.24,-20.86 450.4,-15.54 439.92,-13.99 441.24,-20.86"/>
</g>
<!-- Node20&#45;&gt;Node7 -->
<g id="edge23" class="edge">
<title>Node20&#45;&gt;Node7</title>
<path fill="none" stroke="midnightblue" d="M377.65,-352.98C351.01,-342.81 306.29,-325.76 275.99,-314.2"/>
<polygon fill="midnightblue" stroke="midnightblue" points="276.9,-310.8 266.31,-310.51 274.41,-317.34 276.9,-310.8"/>
</g>
<!-- Node20&#45;&gt;Node10 -->
<g id="edge22" class="edge">
<title>Node20&#45;&gt;Node10</title>
<path fill="none" stroke="midnightblue" d="M389.6,-352.76C378.96,-343.36 362.53,-327.52 352,-311 315.76,-254.15 292.23,-176.69 282.75,-141.62"/>
<polygon fill="midnightblue" stroke="midnightblue" points="286.09,-140.58 280.16,-131.8 279.32,-142.36 286.09,-140.58"/>
</g>
<!-- Node20&#45;&gt;Node15 -->
<g id="edge25" class="edge">
<title>Node20&#45;&gt;Node15</title>
<path fill="none" stroke="midnightblue" d="M395.56,-352.77C386.34,-333.85 366,-287.39 366,-246 366,-246 366,-246 366,-121 366,-88.54 358.27,-51.38 352.94,-29.63"/>
<polygon fill="midnightblue" stroke="midnightblue" points="356.29,-28.59 350.43,-19.76 349.51,-30.32 356.29,-28.59"/>
</g>
<!-- Node21 -->
<g id="node21" class="node">
<title>Node21</title>
<g id="a_node21"><a xlink:title=" ">
<polygon fill="white" stroke="#bfbfbf" points="394.5,-291.5 394.5,-310.5 431.5,-310.5 431.5,-291.5 394.5,-291.5"/>
<text text-anchor="middle" x="413" y="-298.5" font-family="Helvetica,sans-Serif" font-size="10.00">new</text>
</a>
</g>
</g>
<!-- Node20&#45;&gt;Node21 -->
<g id="edge24" class="edge">
<title>Node20&#45;&gt;Node21</title>
<path fill="none" stroke="midnightblue" d="M401.86,-352.98C403.72,-344.49 406.62,-331.2 409,-320.32"/>
<polygon fill="midnightblue" stroke="midnightblue" points="412.43,-321.03 411.14,-310.51 405.59,-319.53 412.43,-321.03"/>
</g>
<!-- Node22 -->
<g id="node22" class="node">
<title>Node22</title>
<g id="a_node22"><a xlink:title=" ">
<polygon fill="white" stroke="#bfbfbf" points="449.5,-291.5 449.5,-310.5 494.5,-310.5 494.5,-291.5 449.5,-291.5"/>
<text text-anchor="middle" x="472" y="-298.5" font-family="Helvetica,sans-Serif" font-size="10.00">utility</text>
</a>
</g>
</g>
<!-- Node20&#45;&gt;Node22 -->
<g id="edge26" class="edge">
<title>Node20&#45;&gt;Node22</title>
<path fill="none" stroke="midnightblue" d="M410.32,-352.98C421.65,-343.61 440.07,-328.38 453.84,-317.01"/>
<polygon fill="midnightblue" stroke="midnightblue" points="456.22,-319.58 461.7,-310.51 451.77,-314.18 456.22,-319.58"/>
</g>
</g>
</svg>
