<?xml version="1.0" encoding="UTF-8" standalone="no"?>
<!DOCTYPE svg PUBLIC "-//W3C//DTD SVG 1.1//EN"
 "http://www.w3.org/Graphics/SVG/1.1/DTD/svg11.dtd">
<!-- Generated by graphviz version 2.43.0 (0)
 -->
<!-- Title: include/emlabcpp/experimental/coro/pool_promise.h Pages: 1 -->
<svg width="1042pt" height="173pt"
 viewBox="0.00 0.00 1041.50 173.00" xmlns="http://www.w3.org/2000/svg" xmlns:xlink="http://www.w3.org/1999/xlink">
<g id="graph0" class="graph" transform="scale(1 1) rotate(0) translate(4 169)">
<title>include/emlabcpp/experimental/coro/pool_promise.h</title>
<polygon fill="white" stroke="transparent" points="-4,4 -4,-169 1037.5,-169 1037.5,4 -4,4"/>
<!-- Node1 -->
<g id="node1" class="node">
<title>Node1</title>
<g id="a_node1"><a xlink:title=" ">
<polygon fill="#bfbfbf" stroke="black" points="626.5,-134.5 626.5,-164.5 797.5,-164.5 797.5,-134.5 626.5,-134.5"/>
<text text-anchor="start" x="634.5" y="-152.5" font-family="Helvetica,sans-Serif" font-size="10.00">include/emlabcpp/experimental</text>
<text text-anchor="middle" x="712" y="-141.5" font-family="Helvetica,sans-Serif" font-size="10.00">/coro/pool_promise.h</text>
</a>
</g>
</g>
<!-- Node2 -->
<g id="node2" class="node">
<title>Node2</title>
<g id="a_node2"><a xlink:href="pool_8h.html" target="_top" xlink:title=" ">
<polygon fill="white" stroke="black" points="657,-67.5 657,-97.5 767,-97.5 767,-67.5 657,-67.5"/>
<text text-anchor="start" x="665" y="-85.5" font-family="Helvetica,sans-Serif" font-size="10.00">emlabcpp/allocator</text>
<text text-anchor="middle" x="712" y="-74.5" font-family="Helvetica,sans-Serif" font-size="10.00">/pool.h</text>
</a>
</g>
</g>
<!-- Node1&#45;&gt;Node2 -->
<g id="edge1" class="edge">
<title>Node1&#45;&gt;Node2</title>
<path fill="none" stroke="midnightblue" d="M712,-134.4C712,-126.64 712,-116.81 712,-107.86"/>
<polygon fill="midnightblue" stroke="midnightblue" points="715.5,-107.58 712,-97.58 708.5,-107.58 715.5,-107.58"/>
</g>
<!-- Node3 -->
<g id="node3" class="node">
<title>Node3</title>
<g id="a_node3"><a xlink:href="util_8h.html" target="_top" xlink:title=" ">
<polygon fill="white" stroke="red" points="0,-0.5 0,-30.5 110,-30.5 110,-0.5 0,-0.5"/>
<text text-anchor="start" x="8" y="-18.5" font-family="Helvetica,sans-Serif" font-size="10.00">emlabcpp/allocator</text>
<text text-anchor="middle" x="55" y="-7.5" font-family="Helvetica,sans-Serif" font-size="10.00">/util.h</text>
</a>
</g>
</g>
<!-- Node2&#45;&gt;Node3 -->
<g id="edge2" class="edge">
<title>Node2&#45;&gt;Node3</title>
<path fill="none" stroke="midnightblue" d="M656.92,-79.35C553.5,-74.75 323.13,-61.91 120.02,-31.01"/>
<polygon fill="midnightblue" stroke="midnightblue" points="120.48,-27.54 110.07,-29.48 119.42,-34.46 120.48,-27.54"/>
</g>
<!-- Node6 -->
<g id="node4" class="node">
<title>Node6</title>
<g id="a_node4"><a xlink:href="assert_8h.html" target="_top" xlink:title=" ">
<polygon fill="white" stroke="red" points="128.5,-6 128.5,-25 235.5,-25 235.5,-6 128.5,-6"/>
<text text-anchor="middle" x="182" y="-13" font-family="Helvetica,sans-Serif" font-size="10.00">emlabcpp/assert.h</text>
</a>
</g>
</g>
<!-- Node2&#45;&gt;Node6 -->
<g id="edge3" class="edge">
<title>Node2&#45;&gt;Node6</title>
<path fill="none" stroke="midnightblue" d="M656.94,-77.75C569.15,-71.28 392.24,-56.23 244,-31 237.78,-29.94 231.25,-28.63 224.86,-27.24"/>
<polygon fill="midnightblue" stroke="midnightblue" points="225.52,-23.8 214.99,-25 223.97,-30.63 225.52,-23.8"/>
</g>
<!-- Node8 -->
<g id="node5" class="node">
<title>Node8</title>
<g id="a_node5"><a xlink:href="logging_8h.html" target="_top" xlink:title=" ">
<polygon fill="white" stroke="red" points="253.5,-0.5 253.5,-30.5 386.5,-30.5 386.5,-0.5 253.5,-0.5"/>
<text text-anchor="start" x="261.5" y="-18.5" font-family="Helvetica,sans-Serif" font-size="10.00">emlabcpp/experimental</text>
<text text-anchor="middle" x="320" y="-7.5" font-family="Helvetica,sans-Serif" font-size="10.00">/logging.h</text>
</a>
</g>
</g>
<!-- Node2&#45;&gt;Node8 -->
<g id="edge4" class="edge">
<title>Node2&#45;&gt;Node8</title>
<path fill="none" stroke="midnightblue" d="M656.93,-73.29C595.73,-64.04 493.71,-48.25 396.62,-31.26"/>
<polygon fill="midnightblue" stroke="midnightblue" points="397.09,-27.79 386.64,-29.5 395.88,-34.68 397.09,-27.79"/>
</g>
<!-- Node10 -->
<g id="node6" class="node">
<title>Node10</title>
<g id="a_node6"><a xlink:href="numeric_8h.html" target="_top" xlink:title=" ">
<polygon fill="white" stroke="red" points="404.5,-0.5 404.5,-30.5 513.5,-30.5 513.5,-0.5 404.5,-0.5"/>
<text text-anchor="start" x="412.5" y="-18.5" font-family="Helvetica,sans-Serif" font-size="10.00">emlabcpp/iterators</text>
<text text-anchor="middle" x="459" y="-7.5" font-family="Helvetica,sans-Serif" font-size="10.00">/numeric.h</text>
</a>
</g>
</g>
<!-- Node2&#45;&gt;Node10 -->
<g id="edge5" class="edge">
<title>Node2&#45;&gt;Node10</title>
<path fill="none" stroke="midnightblue" d="M657.41,-67.48C618.15,-57.39 565.03,-43.74 523.64,-33.11"/>
<polygon fill="midnightblue" stroke="midnightblue" points="524.48,-29.71 513.92,-30.61 522.74,-36.49 524.48,-29.71"/>
</g>
<!-- Node25 -->
<g id="node7" class="node">
<title>Node25</title>
<g id="a_node7"><a xlink:href="static__vector_8h.html" target="_top" xlink:title=" ">
<polygon fill="white" stroke="red" points="531.5,-6 531.5,-25 670.5,-25 670.5,-6 531.5,-6"/>
<text text-anchor="middle" x="601" y="-13" font-family="Helvetica,sans-Serif" font-size="10.00">emlabcpp/static_vector.h</text>
</a>
</g>
</g>
<!-- Node2&#45;&gt;Node25 -->
<g id="edge6" class="edge">
<title>Node2&#45;&gt;Node25</title>
<path fill="none" stroke="midnightblue" d="M687.91,-67.4C669.04,-56.34 642.94,-41.06 624.28,-30.13"/>
<polygon fill="midnightblue" stroke="midnightblue" points="625.93,-27.04 615.53,-25.01 622.39,-33.08 625.93,-27.04"/>
</g>
<!-- Node37 -->
<g id="node8" class="node">
<title>Node37</title>
<g id="a_node8"><a xlink:title=" ">
<polygon fill="white" stroke="#bfbfbf" points="688.5,-6 688.5,-25 735.5,-25 735.5,-6 688.5,-6"/>
<text text-anchor="middle" x="712" y="-13" font-family="Helvetica,sans-Serif" font-size="10.00">deque</text>
</a>
</g>
</g>
<!-- Node2&#45;&gt;Node37 -->
<g id="edge7" class="edge">
<title>Node2&#45;&gt;Node37</title>
<path fill="none" stroke="midnightblue" d="M712,-67.4C712,-58.06 712,-45.71 712,-35.52"/>
<polygon fill="midnightblue" stroke="midnightblue" points="715.5,-35.19 712,-25.19 708.5,-35.19 715.5,-35.19"/>
</g>
<!-- Node38 -->
<g id="node9" class="node">
<title>Node38</title>
<g id="a_node9"><a xlink:title=" ">
<polygon fill="white" stroke="#bfbfbf" points="754,-6 754,-25 786,-25 786,-6 754,-6"/>
<text text-anchor="middle" x="770" y="-13" font-family="Helvetica,sans-Serif" font-size="10.00">list</text>
</a>
</g>
</g>
<!-- Node2&#45;&gt;Node38 -->
<g id="edge8" class="edge">
<title>Node2&#45;&gt;Node38</title>
<path fill="none" stroke="midnightblue" d="M724.59,-67.4C733.63,-57.26 745.85,-43.57 755.33,-32.94"/>
<polygon fill="midnightblue" stroke="midnightblue" points="758.2,-34.99 762.24,-25.19 752.97,-30.33 758.2,-34.99"/>
</g>
<!-- Node39 -->
<g id="node10" class="node">
<title>Node39</title>
<g id="a_node10"><a xlink:title=" ">
<polygon fill="white" stroke="#bfbfbf" points="804,-6 804,-25 842,-25 842,-6 804,-6"/>
<text text-anchor="middle" x="823" y="-13" font-family="Helvetica,sans-Serif" font-size="10.00">map</text>
</a>
</g>
</g>
<!-- Node2&#45;&gt;Node39 -->
<g id="edge9" class="edge">
<title>Node2&#45;&gt;Node39</title>
<path fill="none" stroke="midnightblue" d="M736.09,-67.4C754.96,-56.34 781.06,-41.06 799.72,-30.13"/>
<polygon fill="midnightblue" stroke="midnightblue" points="801.61,-33.08 808.47,-25.01 798.07,-27.04 801.61,-33.08"/>
</g>
<!-- Node40 -->
<g id="node11" class="node">
<title>Node40</title>
<g id="a_node11"><a xlink:title=" ">
<polygon fill="white" stroke="#bfbfbf" points="860,-6 860,-25 918,-25 918,-6 860,-6"/>
<text text-anchor="middle" x="889" y="-13" font-family="Helvetica,sans-Serif" font-size="10.00">memory</text>
</a>
</g>
</g>
<!-- Node2&#45;&gt;Node40 -->
<g id="edge10" class="edge">
<title>Node2&#45;&gt;Node40</title>
<path fill="none" stroke="midnightblue" d="M751.31,-67.41C779.18,-57.37 817.44,-43.5 851,-31 852.89,-30.3 854.82,-29.57 856.78,-28.84"/>
<polygon fill="midnightblue" stroke="midnightblue" points="858.41,-31.96 866.52,-25.15 855.93,-25.42 858.41,-31.96"/>
</g>
<!-- Node41 -->
<g id="node12" class="node">
<title>Node41</title>
<g id="a_node12"><a xlink:title=" ">
<polygon fill="white" stroke="#bfbfbf" points="936,-6 936,-25 968,-25 968,-6 936,-6"/>
<text text-anchor="middle" x="952" y="-13" font-family="Helvetica,sans-Serif" font-size="10.00">set</text>
</a>
</g>
</g>
<!-- Node2&#45;&gt;Node41 -->
<g id="edge11" class="edge">
<title>Node2&#45;&gt;Node41</title>
<path fill="none" stroke="midnightblue" d="M767.25,-73.15C811.5,-65.37 874.62,-51.81 927,-31 927.88,-30.65 928.76,-30.28 929.64,-29.88"/>
<polygon fill="midnightblue" stroke="midnightblue" points="931.61,-32.8 938.87,-25.08 928.39,-26.59 931.61,-32.8"/>
</g>
<!-- Node20 -->
<g id="node13" class="node">
<title>Node20</title>
<g id="a_node13"><a xlink:title=" ">
<polygon fill="white" stroke="#bfbfbf" points="986.5,-6 986.5,-25 1033.5,-25 1033.5,-6 986.5,-6"/>
<text text-anchor="middle" x="1010" y="-13" font-family="Helvetica,sans-Serif" font-size="10.00">vector</text>
</a>
</g>
</g>
<!-- Node2&#45;&gt;Node20 -->
<g id="edge12" class="edge">
<title>Node2&#45;&gt;Node20</title>
<path fill="none" stroke="midnightblue" d="M767.19,-74.69C821.42,-67.13 906.11,-53.02 977,-31 978.93,-30.4 980.89,-29.72 982.86,-29"/>
<polygon fill="midnightblue" stroke="midnightblue" points="984.53,-32.09 992.47,-25.08 981.89,-25.61 984.53,-32.09"/>
</g>
</g>
</svg>
