<?xml version="1.0" encoding="UTF-8" standalone="no"?>
<!DOCTYPE svg PUBLIC "-//W3C//DTD SVG 1.1//EN"
 "http://www.w3.org/Graphics/SVG/1.1/DTD/svg11.dtd">
<!-- Generated by graphviz version 2.43.0 (0)
 -->
<!-- Title: include/emlabcpp/pmr/pool_resource.h Pages: 1 -->
<svg width="703pt" height="218pt"
 viewBox="0.00 0.00 703.00 218.00" xmlns="http://www.w3.org/2000/svg" xmlns:xlink="http://www.w3.org/1999/xlink">
<g id="graph0" class="graph" transform="scale(1 1) rotate(0) translate(4 214)">
<title>include/emlabcpp/pmr/pool_resource.h</title>
<polygon fill="white" stroke="transparent" points="-4,4 -4,-214 699,-214 699,4 -4,4"/>
<!-- Node1 -->
<g id="node1" class="node">
<title>Node1</title>
<g id="a_node1"><a xlink:title=" ">
<polygon fill="#bfbfbf" stroke="black" points="253,-179.5 253,-209.5 378,-209.5 378,-179.5 253,-179.5"/>
<text text-anchor="start" x="261" y="-197.5" font-family="Helvetica,sans-Serif" font-size="10.00">include/emlabcpp/pmr</text>
<text text-anchor="middle" x="315.5" y="-186.5" font-family="Helvetica,sans-Serif" font-size="10.00">/pool_resource.h</text>
</a>
</g>
</g>
<!-- Node2 -->
<g id="node2" class="node">
<title>Node2</title>
<g id="a_node2"><a xlink:href="memory__resource_8h.html" target="_top" xlink:title=" ">
<polygon fill="white" stroke="black" points="174,-112.5 174,-142.5 305,-142.5 305,-112.5 174,-112.5"/>
<text text-anchor="start" x="182" y="-130.5" font-family="Helvetica,sans-Serif" font-size="10.00">emlabcpp/pmr/memory</text>
<text text-anchor="middle" x="239.5" y="-119.5" font-family="Helvetica,sans-Serif" font-size="10.00">_resource.h</text>
</a>
</g>
</g>
<!-- Node1&#45;&gt;Node2 -->
<g id="edge1" class="edge">
<title>Node1&#45;&gt;Node2</title>
<path fill="none" stroke="midnightblue" d="M299.01,-179.4C288.65,-170.54 275.12,-158.96 263.57,-149.09"/>
<polygon fill="midnightblue" stroke="midnightblue" points="265.83,-146.42 255.96,-142.58 261.28,-151.74 265.83,-146.42"/>
</g>
<!-- Node31 -->
<g id="node6" class="node">
<title>Node31</title>
<g id="a_node6"><a xlink:href="util_8h.html" target="_top" xlink:title=" ">
<polygon fill="white" stroke="black" points="0,-56.5 0,-75.5 115,-75.5 115,-56.5 0,-56.5"/>
<text text-anchor="middle" x="57.5" y="-63.5" font-family="Helvetica,sans-Serif" font-size="10.00">emlabcpp/pmr/util.h</text>
</a>
</g>
</g>
<!-- Node1&#45;&gt;Node31 -->
<g id="edge5" class="edge">
<title>Node1&#45;&gt;Node31</title>
<path fill="none" stroke="midnightblue" d="M260.83,-179.45C231.44,-170.86 195.06,-158.53 164.5,-143 130.73,-125.84 95.7,-98.91 75.28,-82.15"/>
<polygon fill="midnightblue" stroke="midnightblue" points="77.4,-79.35 67.47,-75.64 72.91,-84.73 77.4,-79.35"/>
</g>
<!-- Node23 -->
<g id="node8" class="node">
<title>Node23</title>
<g id="a_node8"><a xlink:href="range_8h.html" target="_top" xlink:title=" ">
<polygon fill="white" stroke="red" points="480.5,-118 480.5,-137 584.5,-137 584.5,-118 480.5,-118"/>
<text text-anchor="middle" x="532.5" y="-125" font-family="Helvetica,sans-Serif" font-size="10.00">emlabcpp/range.h</text>
</a>
</g>
</g>
<!-- Node1&#45;&gt;Node23 -->
<g id="edge9" class="edge">
<title>Node1&#45;&gt;Node23</title>
<path fill="none" stroke="midnightblue" d="M362.32,-179.48C401.72,-167.67 457.38,-151 494.18,-139.98"/>
<polygon fill="midnightblue" stroke="midnightblue" points="495.45,-143.25 504.03,-137.03 493.44,-136.55 495.45,-143.25"/>
</g>
<!-- Node33 -->
<g id="node9" class="node">
<title>Node33</title>
<g id="a_node9"><a xlink:href="static__vector_8h.html" target="_top" xlink:title=" ">
<polygon fill="white" stroke="black" points="323,-118 323,-137 462,-137 462,-118 323,-118"/>
<text text-anchor="middle" x="392.5" y="-125" font-family="Helvetica,sans-Serif" font-size="10.00">emlabcpp/static_vector.h</text>
</a>
</g>
</g>
<!-- Node1&#45;&gt;Node33 -->
<g id="edge10" class="edge">
<title>Node1&#45;&gt;Node33</title>
<path fill="none" stroke="midnightblue" d="M332.21,-179.4C344.69,-168.86 361.73,-154.48 374.51,-143.69"/>
<polygon fill="midnightblue" stroke="midnightblue" points="376.82,-146.32 382.2,-137.19 372.3,-140.97 376.82,-146.32"/>
</g>
<!-- Node3 -->
<g id="node3" class="node">
<title>Node3</title>
<g id="a_node3"><a xlink:href="result_8h.html" target="_top" xlink:title=" ">
<polygon fill="white" stroke="red" points="133.5,-56.5 133.5,-75.5 237.5,-75.5 237.5,-56.5 133.5,-56.5"/>
<text text-anchor="middle" x="185.5" y="-63.5" font-family="Helvetica,sans-Serif" font-size="10.00">emlabcpp/result.h</text>
</a>
</g>
</g>
<!-- Node2&#45;&gt;Node3 -->
<g id="edge2" class="edge">
<title>Node2&#45;&gt;Node3</title>
<path fill="none" stroke="midnightblue" d="M226.7,-112.4C218.78,-103.66 208.56,-92.41 200.29,-83.3"/>
<polygon fill="midnightblue" stroke="midnightblue" points="202.67,-80.71 193.36,-75.66 197.49,-85.42 202.67,-80.71"/>
</g>
<!-- Node30 -->
<g id="node5" class="node">
<title>Node30</title>
<g id="a_node5"><a xlink:title=" ">
<polygon fill="white" stroke="#bfbfbf" points="239,-0.5 239,-19.5 292,-19.5 292,-0.5 239,-0.5"/>
<text text-anchor="middle" x="265.5" y="-7.5" font-family="Helvetica,sans-Serif" font-size="10.00">cstddef</text>
</a>
</g>
</g>
<!-- Node2&#45;&gt;Node30 -->
<g id="edge4" class="edge">
<title>Node2&#45;&gt;Node30</title>
<path fill="none" stroke="midnightblue" d="M242.69,-112.34C247.37,-91.53 256.12,-52.66 261.32,-29.58"/>
<polygon fill="midnightblue" stroke="midnightblue" points="264.77,-30.19 263.55,-19.67 257.94,-28.66 264.77,-30.19"/>
</g>
<!-- Node10 -->
<g id="node4" class="node">
<title>Node10</title>
<g id="a_node4"><a xlink:title=" ">
<polygon fill="white" stroke="#bfbfbf" points="125.5,-0.5 125.5,-19.5 175.5,-19.5 175.5,-0.5 125.5,-0.5"/>
<text text-anchor="middle" x="150.5" y="-7.5" font-family="Helvetica,sans-Serif" font-size="10.00">cstdint</text>
</a>
</g>
</g>
<!-- Node3&#45;&gt;Node10 -->
<g id="edge3" class="edge">
<title>Node3&#45;&gt;Node10</title>
<path fill="none" stroke="midnightblue" d="M179.72,-56.08C174.83,-48.53 167.67,-37.49 161.67,-28.23"/>
<polygon fill="midnightblue" stroke="midnightblue" points="164.55,-26.24 156.17,-19.75 158.67,-30.05 164.55,-26.24"/>
</g>
<!-- Node31&#45;&gt;Node10 -->
<g id="edge8" class="edge">
<title>Node31&#45;&gt;Node10</title>
<path fill="none" stroke="midnightblue" d="M72.44,-56.32C87.09,-47.82 109.63,-34.73 126.74,-24.8"/>
<polygon fill="midnightblue" stroke="midnightblue" points="128.7,-27.7 135.6,-19.65 125.19,-21.65 128.7,-27.7"/>
</g>
<!-- Node31&#45;&gt;Node30 -->
<g id="edge7" class="edge">
<title>Node31&#45;&gt;Node30</title>
<path fill="none" stroke="midnightblue" d="M90.46,-56.44C128.21,-46.64 189.88,-30.63 229.04,-20.47"/>
<polygon fill="midnightblue" stroke="midnightblue" points="230.17,-23.79 238.97,-17.89 228.41,-17.01 230.17,-23.79"/>
</g>
<!-- Node32 -->
<g id="node7" class="node">
<title>Node32</title>
<g id="a_node7"><a xlink:title=" ">
<polygon fill="white" stroke="#bfbfbf" points="43,-0.5 43,-19.5 72,-19.5 72,-0.5 43,-0.5"/>
<text text-anchor="middle" x="57.5" y="-7.5" font-family="Helvetica,sans-Serif" font-size="10.00">bit</text>
</a>
</g>
</g>
<!-- Node31&#45;&gt;Node32 -->
<g id="edge6" class="edge">
<title>Node31&#45;&gt;Node32</title>
<path fill="none" stroke="midnightblue" d="M57.5,-56.08C57.5,-49.01 57.5,-38.86 57.5,-29.99"/>
<polygon fill="midnightblue" stroke="midnightblue" points="61,-29.75 57.5,-19.75 54,-29.75 61,-29.75"/>
</g>
<!-- Node7 -->
<g id="node10" class="node">
<title>Node7</title>
<g id="a_node10"><a xlink:href="concepts_8h.html" target="_top" xlink:title=" ">
<polygon fill="white" stroke="red" points="457.5,-56.5 457.5,-75.5 577.5,-75.5 577.5,-56.5 457.5,-56.5"/>
<text text-anchor="middle" x="517.5" y="-63.5" font-family="Helvetica,sans-Serif" font-size="10.00">emlabcpp/concepts.h</text>
</a>
</g>
</g>
<!-- Node33&#45;&gt;Node7 -->
<g id="edge11" class="edge">
<title>Node33&#45;&gt;Node7</title>
<path fill="none" stroke="midnightblue" d="M410.41,-117.98C431.39,-107.99 466.35,-91.35 490.59,-79.81"/>
<polygon fill="midnightblue" stroke="midnightblue" points="492.1,-82.97 499.62,-75.51 489.09,-76.65 492.1,-82.97"/>
</g>
<!-- Node34 -->
<g id="node11" class="node">
<title>Node34</title>
<g id="a_node11"><a xlink:href="static__storage_8h.html" target="_top" xlink:title=" ">
<polygon fill="white" stroke="red" points="293.5,-56.5 293.5,-75.5 439.5,-75.5 439.5,-56.5 293.5,-56.5"/>
<text text-anchor="middle" x="366.5" y="-63.5" font-family="Helvetica,sans-Serif" font-size="10.00">emlabcpp/static_storage.h</text>
</a>
</g>
</g>
<!-- Node33&#45;&gt;Node34 -->
<g id="edge12" class="edge">
<title>Node33&#45;&gt;Node34</title>
<path fill="none" stroke="midnightblue" d="M388.77,-117.98C385.03,-109.4 379.14,-95.93 374.36,-84.98"/>
<polygon fill="midnightblue" stroke="midnightblue" points="377.43,-83.27 370.22,-75.51 371.02,-86.07 377.43,-83.27"/>
</g>
<!-- Node26 -->
<g id="node12" class="node">
<title>Node26</title>
<g id="a_node12"><a xlink:href="view_8h.html" target="_top" xlink:title=" ">
<polygon fill="white" stroke="red" points="596,-56.5 596,-75.5 695,-75.5 695,-56.5 596,-56.5"/>
<text text-anchor="middle" x="645.5" y="-63.5" font-family="Helvetica,sans-Serif" font-size="10.00">emlabcpp/view.h</text>
</a>
</g>
</g>
<!-- Node33&#45;&gt;Node26 -->
<g id="edge14" class="edge">
<title>Node33&#45;&gt;Node26</title>
<path fill="none" stroke="midnightblue" d="M428.75,-117.98C473.65,-107.42 550.21,-89.41 599.28,-77.87"/>
<polygon fill="midnightblue" stroke="midnightblue" points="600.39,-81.21 609.32,-75.51 598.78,-74.39 600.39,-81.21"/>
</g>
<!-- Node34&#45;&gt;Node30 -->
<g id="edge13" class="edge">
<title>Node34&#45;&gt;Node30</title>
<path fill="none" stroke="midnightblue" d="M350.27,-56.32C334.15,-47.7 309.2,-34.36 290.54,-24.39"/>
<polygon fill="midnightblue" stroke="midnightblue" points="292.16,-21.28 281.69,-19.65 288.86,-27.46 292.16,-21.28"/>
</g>
</g>
</svg>
