<?xml version="1.0" encoding="UTF-8" standalone="no"?>
<!DOCTYPE svg PUBLIC "-//W3C//DTD SVG 1.1//EN"
 "http://www.w3.org/Graphics/SVG/1.1/DTD/svg11.dtd">
<!-- Generated by graphviz version 2.43.0 (0)
 -->
<!-- Title: include/emlabcpp/allocator/pool.h Pages: 1 -->
<svg width="903pt" height="162pt"
 viewBox="0.00 0.00 902.50 162.00" xmlns="http://www.w3.org/2000/svg" xmlns:xlink="http://www.w3.org/1999/xlink">
<g id="graph0" class="graph" transform="scale(1 1) rotate(0) translate(4 158)">
<title>include/emlabcpp/allocator/pool.h</title>
<polygon fill="white" stroke="transparent" points="-4,4 -4,-158 898.5,-158 898.5,4 -4,4"/>
<!-- Node1 -->
<g id="node1" class="node">
<title>Node1</title>
<g id="a_node1"><a xlink:title=" ">
<polygon fill="#bfbfbf" stroke="black" points="527.5,-123.5 527.5,-153.5 676.5,-153.5 676.5,-123.5 527.5,-123.5"/>
<text text-anchor="start" x="535.5" y="-141.5" font-family="Helvetica,sans-Serif" font-size="10.00">include/emlabcpp/allocator</text>
<text text-anchor="middle" x="602" y="-130.5" font-family="Helvetica,sans-Serif" font-size="10.00">/pool.h</text>
</a>
</g>
</g>
<!-- Node2 -->
<g id="node2" class="node">
<title>Node2</title>
<g id="a_node2"><a xlink:href="util_8h.html" target="_top" xlink:title=" ">
<polygon fill="white" stroke="black" points="12,-56.5 12,-86.5 122,-86.5 122,-56.5 12,-56.5"/>
<text text-anchor="start" x="20" y="-74.5" font-family="Helvetica,sans-Serif" font-size="10.00">emlabcpp/allocator</text>
<text text-anchor="middle" x="67" y="-63.5" font-family="Helvetica,sans-Serif" font-size="10.00">/util.h</text>
</a>
</g>
</g>
<!-- Node1&#45;&gt;Node2 -->
<g id="edge1" class="edge">
<title>Node1&#45;&gt;Node2</title>
<path fill="none" stroke="midnightblue" d="M527.4,-132.19C436.32,-125.1 277.47,-110.8 132.08,-87.06"/>
<polygon fill="midnightblue" stroke="midnightblue" points="132.51,-83.58 122.08,-85.4 131.37,-90.49 132.51,-83.58"/>
</g>
<!-- Node5 -->
<g id="node5" class="node">
<title>Node5</title>
<g id="a_node5"><a xlink:href="assert_8h.html" target="_top" xlink:title=" ">
<polygon fill="white" stroke="black" points="140.5,-62 140.5,-81 247.5,-81 247.5,-62 140.5,-62"/>
<text text-anchor="middle" x="194" y="-69" font-family="Helvetica,sans-Serif" font-size="10.00">emlabcpp/assert.h</text>
</a>
</g>
</g>
<!-- Node1&#45;&gt;Node5 -->
<g id="edge4" class="edge">
<title>Node1&#45;&gt;Node5</title>
<path fill="none" stroke="midnightblue" d="M527.45,-128.48C457.17,-119.53 349.04,-104.64 256,-87 250.23,-85.91 244.17,-84.64 238.21,-83.32"/>
<polygon fill="midnightblue" stroke="midnightblue" points="238.85,-79.88 228.32,-81.07 237.3,-86.7 238.85,-79.88"/>
</g>
<!-- Node7 -->
<g id="node7" class="node">
<title>Node7</title>
<g id="a_node7"><a xlink:href="numeric_8h.html" target="_top" xlink:title=" ">
<polygon fill="white" stroke="black" points="265.5,-56.5 265.5,-86.5 374.5,-86.5 374.5,-56.5 265.5,-56.5"/>
<text text-anchor="start" x="273.5" y="-74.5" font-family="Helvetica,sans-Serif" font-size="10.00">emlabcpp/iterators</text>
<text text-anchor="middle" x="320" y="-63.5" font-family="Helvetica,sans-Serif" font-size="10.00">/numeric.h</text>
</a>
</g>
</g>
<!-- Node1&#45;&gt;Node7 -->
<g id="edge6" class="edge">
<title>Node1&#45;&gt;Node7</title>
<path fill="none" stroke="midnightblue" d="M541.16,-123.48C494.9,-112.81 431.41,-98.18 384.32,-87.33"/>
<polygon fill="midnightblue" stroke="midnightblue" points="385.06,-83.91 374.53,-85.07 383.49,-90.73 385.06,-83.91"/>
</g>
<!-- Node21 -->
<g id="node9" class="node">
<title>Node21</title>
<g id="a_node9"><a xlink:href="static__vector_8h.html" target="_top" xlink:title=" ">
<polygon fill="white" stroke="black" points="392.5,-62 392.5,-81 531.5,-81 531.5,-62 392.5,-62"/>
<text text-anchor="middle" x="462" y="-69" font-family="Helvetica,sans-Serif" font-size="10.00">emlabcpp/static_vector.h</text>
</a>
</g>
</g>
<!-- Node1&#45;&gt;Node21 -->
<g id="edge8" class="edge">
<title>Node1&#45;&gt;Node21</title>
<path fill="none" stroke="midnightblue" d="M571.62,-123.4C547.17,-112.04 513.09,-96.22 489.45,-85.24"/>
<polygon fill="midnightblue" stroke="midnightblue" points="490.87,-82.04 480.32,-81.01 487.92,-88.39 490.87,-82.04"/>
</g>
<!-- Node24 -->
<g id="node14" class="node">
<title>Node24</title>
<g id="a_node14"><a xlink:title=" ">
<polygon fill="white" stroke="#bfbfbf" points="549.5,-62 549.5,-81 596.5,-81 596.5,-62 549.5,-62"/>
<text text-anchor="middle" x="573" y="-69" font-family="Helvetica,sans-Serif" font-size="10.00">deque</text>
</a>
</g>
</g>
<!-- Node1&#45;&gt;Node24 -->
<g id="edge14" class="edge">
<title>Node1&#45;&gt;Node24</title>
<path fill="none" stroke="midnightblue" d="M595.71,-123.4C591.41,-113.76 585.68,-100.91 581.05,-90.54"/>
<polygon fill="midnightblue" stroke="midnightblue" points="584.15,-88.9 576.88,-81.19 577.76,-91.75 584.15,-88.9"/>
</g>
<!-- Node25 -->
<g id="node15" class="node">
<title>Node25</title>
<g id="a_node15"><a xlink:title=" ">
<polygon fill="white" stroke="#bfbfbf" points="615,-62 615,-81 647,-81 647,-62 615,-62"/>
<text text-anchor="middle" x="631" y="-69" font-family="Helvetica,sans-Serif" font-size="10.00">list</text>
</a>
</g>
</g>
<!-- Node1&#45;&gt;Node25 -->
<g id="edge15" class="edge">
<title>Node1&#45;&gt;Node25</title>
<path fill="none" stroke="midnightblue" d="M608.29,-123.4C612.59,-113.76 618.32,-100.91 622.95,-90.54"/>
<polygon fill="midnightblue" stroke="midnightblue" points="626.24,-91.75 627.12,-81.19 619.85,-88.9 626.24,-91.75"/>
</g>
<!-- Node26 -->
<g id="node16" class="node">
<title>Node26</title>
<g id="a_node16"><a xlink:title=" ">
<polygon fill="white" stroke="#bfbfbf" points="665,-62 665,-81 703,-81 703,-62 665,-62"/>
<text text-anchor="middle" x="684" y="-69" font-family="Helvetica,sans-Serif" font-size="10.00">map</text>
</a>
</g>
</g>
<!-- Node1&#45;&gt;Node26 -->
<g id="edge16" class="edge">
<title>Node1&#45;&gt;Node26</title>
<path fill="none" stroke="midnightblue" d="M619.79,-123.4C633.08,-112.86 651.23,-98.48 664.84,-87.69"/>
<polygon fill="midnightblue" stroke="midnightblue" points="667.37,-90.15 673.03,-81.19 663.02,-84.66 667.37,-90.15"/>
</g>
<!-- Node27 -->
<g id="node17" class="node">
<title>Node27</title>
<g id="a_node17"><a xlink:title=" ">
<polygon fill="white" stroke="#bfbfbf" points="721,-62 721,-81 779,-81 779,-62 721,-62"/>
<text text-anchor="middle" x="750" y="-69" font-family="Helvetica,sans-Serif" font-size="10.00">memory</text>
</a>
</g>
</g>
<!-- Node1&#45;&gt;Node27 -->
<g id="edge17" class="edge">
<title>Node1&#45;&gt;Node27</title>
<path fill="none" stroke="midnightblue" d="M634.11,-123.4C660.08,-111.99 696.31,-96.08 721.32,-85.1"/>
<polygon fill="midnightblue" stroke="midnightblue" points="722.88,-88.23 730.63,-81.01 720.07,-81.82 722.88,-88.23"/>
</g>
<!-- Node28 -->
<g id="node18" class="node">
<title>Node28</title>
<g id="a_node18"><a xlink:title=" ">
<polygon fill="white" stroke="#bfbfbf" points="797,-62 797,-81 829,-81 829,-62 797,-62"/>
<text text-anchor="middle" x="813" y="-69" font-family="Helvetica,sans-Serif" font-size="10.00">set</text>
</a>
</g>
</g>
<!-- Node1&#45;&gt;Node28 -->
<g id="edge18" class="edge">
<title>Node1&#45;&gt;Node28</title>
<path fill="none" stroke="midnightblue" d="M670.57,-123.4C706.32,-114.93 750.33,-102.72 788,-87 788.85,-86.64 789.71,-86.27 790.57,-85.87"/>
<polygon fill="midnightblue" stroke="midnightblue" points="792.35,-88.89 799.58,-81.14 789.09,-82.69 792.35,-88.89"/>
</g>
<!-- Node17 -->
<g id="node19" class="node">
<title>Node17</title>
<g id="a_node19"><a xlink:title=" ">
<polygon fill="white" stroke="#bfbfbf" points="847.5,-62 847.5,-81 894.5,-81 894.5,-62 847.5,-62"/>
<text text-anchor="middle" x="871" y="-69" font-family="Helvetica,sans-Serif" font-size="10.00">vector</text>
</a>
</g>
</g>
<!-- Node1&#45;&gt;Node17 -->
<g id="edge19" class="edge">
<title>Node1&#45;&gt;Node17</title>
<path fill="none" stroke="midnightblue" d="M676.63,-125.54C723.57,-117.04 785.07,-104.1 838,-87 839.92,-86.38 841.88,-85.69 843.84,-84.95"/>
<polygon fill="midnightblue" stroke="midnightblue" points="845.52,-88.04 853.45,-81 842.87,-81.56 845.52,-88.04"/>
</g>
<!-- Node3 -->
<g id="node3" class="node">
<title>Node3</title>
<g id="a_node3"><a xlink:title=" ">
<polygon fill="white" stroke="#bfbfbf" points="0,-0.5 0,-19.5 50,-19.5 50,-0.5 0,-0.5"/>
<text text-anchor="middle" x="25" y="-7.5" font-family="Helvetica,sans-Serif" font-size="10.00">cstdint</text>
</a>
</g>
</g>
<!-- Node2&#45;&gt;Node3 -->
<g id="edge2" class="edge">
<title>Node2&#45;&gt;Node3</title>
<path fill="none" stroke="midnightblue" d="M57.05,-56.4C51.01,-47.84 43.26,-36.87 36.9,-27.86"/>
<polygon fill="midnightblue" stroke="midnightblue" points="39.74,-25.81 31.11,-19.66 34.02,-29.85 39.74,-25.81"/>
</g>
<!-- Node4 -->
<g id="node4" class="node">
<title>Node4</title>
<g id="a_node4"><a xlink:title=" ">
<polygon fill="white" stroke="#bfbfbf" points="68.5,-0.5 68.5,-19.5 121.5,-19.5 121.5,-0.5 68.5,-0.5"/>
<text text-anchor="middle" x="95" y="-7.5" font-family="Helvetica,sans-Serif" font-size="10.00">cstddef</text>
</a>
</g>
</g>
<!-- Node2&#45;&gt;Node4 -->
<g id="edge3" class="edge">
<title>Node2&#45;&gt;Node4</title>
<path fill="none" stroke="midnightblue" d="M73.64,-56.4C77.54,-48.11 82.5,-37.55 86.67,-28.71"/>
<polygon fill="midnightblue" stroke="midnightblue" points="89.83,-30.2 90.93,-19.66 83.5,-27.22 89.83,-30.2"/>
</g>
<!-- Node6 -->
<g id="node6" class="node">
<title>Node6</title>
<g id="a_node6"><a xlink:title=" ">
<polygon fill="white" stroke="#bfbfbf" points="168,-0.5 168,-19.5 220,-19.5 220,-0.5 168,-0.5"/>
<text text-anchor="middle" x="194" y="-7.5" font-family="Helvetica,sans-Serif" font-size="10.00">cassert</text>
</a>
</g>
</g>
<!-- Node5&#45;&gt;Node6 -->
<g id="edge5" class="edge">
<title>Node5&#45;&gt;Node6</title>
<path fill="none" stroke="midnightblue" d="M194,-61.98C194,-53.58 194,-40.48 194,-29.66"/>
<polygon fill="midnightblue" stroke="midnightblue" points="197.5,-29.51 194,-19.51 190.5,-29.51 197.5,-29.51"/>
</g>
<!-- Node8 -->
<g id="node8" class="node">
<title>Node8</title>
<g id="a_node8"><a xlink:href="iterator_8h.html" target="_top" xlink:title=" ">
<polygon fill="white" stroke="red" points="251,-0.5 251,-19.5 363,-19.5 363,-0.5 251,-0.5"/>
<text text-anchor="middle" x="307" y="-7.5" font-family="Helvetica,sans-Serif" font-size="10.00">emlabcpp/iterator.h</text>
</a>
</g>
</g>
<!-- Node7&#45;&gt;Node8 -->
<g id="edge7" class="edge">
<title>Node7&#45;&gt;Node8</title>
<path fill="none" stroke="midnightblue" d="M316.92,-56.4C315.17,-48.38 312.95,-38.23 311.06,-29.57"/>
<polygon fill="midnightblue" stroke="midnightblue" points="314.45,-28.68 308.89,-19.66 307.61,-30.17 314.45,-28.68"/>
</g>
<!-- Node21&#45;&gt;Node8 -->
<g id="edge10" class="edge">
<title>Node21&#45;&gt;Node8</title>
<path fill="none" stroke="midnightblue" d="M439.79,-61.98C413.32,-51.81 368.89,-34.76 338.78,-23.2"/>
<polygon fill="midnightblue" stroke="midnightblue" points="339.76,-19.83 329.17,-19.51 337.25,-26.36 339.76,-19.83"/>
</g>
<!-- Node11 -->
<g id="node10" class="node">
<title>Node11</title>
<g id="a_node10"><a xlink:href="concepts_8h.html" target="_top" xlink:title=" ">
<polygon fill="white" stroke="red" points="381,-0.5 381,-19.5 501,-19.5 501,-0.5 381,-0.5"/>
<text text-anchor="middle" x="441" y="-7.5" font-family="Helvetica,sans-Serif" font-size="10.00">emlabcpp/concepts.h</text>
</a>
</g>
</g>
<!-- Node21&#45;&gt;Node11 -->
<g id="edge9" class="edge">
<title>Node21&#45;&gt;Node11</title>
<path fill="none" stroke="midnightblue" d="M458.99,-61.98C455.97,-53.4 451.21,-39.93 447.35,-28.98"/>
<polygon fill="midnightblue" stroke="midnightblue" points="450.63,-27.77 444,-19.51 444.03,-30.1 450.63,-27.77"/>
</g>
<!-- Node22 -->
<g id="node11" class="node">
<title>Node22</title>
<g id="a_node11"><a xlink:title=" ">
<polygon fill="white" stroke="#bfbfbf" points="519.5,-0.5 519.5,-19.5 556.5,-19.5 556.5,-0.5 519.5,-0.5"/>
<text text-anchor="middle" x="538" y="-7.5" font-family="Helvetica,sans-Serif" font-size="10.00">new</text>
</a>
</g>
</g>
<!-- Node21&#45;&gt;Node22 -->
<g id="edge11" class="edge">
<title>Node21&#45;&gt;Node22</title>
<path fill="none" stroke="midnightblue" d="M472.89,-61.98C484.97,-52.52 504.67,-37.1 519.24,-25.69"/>
<polygon fill="midnightblue" stroke="midnightblue" points="521.41,-28.43 527.13,-19.51 517.1,-22.92 521.41,-28.43"/>
</g>
<!-- Node16 -->
<g id="node12" class="node">
<title>Node16</title>
<g id="a_node12"><a xlink:title=" ">
<polygon fill="white" stroke="#bfbfbf" points="574.5,-0.5 574.5,-19.5 643.5,-19.5 643.5,-0.5 574.5,-0.5"/>
<text text-anchor="middle" x="609" y="-7.5" font-family="Helvetica,sans-Serif" font-size="10.00">type_traits</text>
</a>
</g>
</g>
<!-- Node21&#45;&gt;Node16 -->
<g id="edge12" class="edge">
<title>Node21&#45;&gt;Node16</title>
<path fill="none" stroke="midnightblue" d="M483.06,-61.98C508.06,-51.86 549.94,-34.9 578.49,-23.35"/>
<polygon fill="midnightblue" stroke="midnightblue" points="580.02,-26.51 587.98,-19.51 577.39,-20.02 580.02,-26.51"/>
</g>
<!-- Node23 -->
<g id="node13" class="node">
<title>Node23</title>
<g id="a_node13"><a xlink:title=" ">
<polygon fill="white" stroke="#bfbfbf" points="661.5,-0.5 661.5,-19.5 706.5,-19.5 706.5,-0.5 661.5,-0.5"/>
<text text-anchor="middle" x="684" y="-7.5" font-family="Helvetica,sans-Serif" font-size="10.00">utility</text>
</a>
</g>
</g>
<!-- Node21&#45;&gt;Node23 -->
<g id="edge13" class="edge">
<title>Node21&#45;&gt;Node23</title>
<path fill="none" stroke="midnightblue" d="M495.19,-61.98C531.4,-52.63 591.32,-37 651.65,-20.33"/>
<polygon fill="midnightblue" stroke="midnightblue" points="652.63,-23.69 661.33,-17.65 650.76,-16.95 652.63,-23.69"/>
</g>
</g>
</svg>
