<?xml version="1.0" encoding="UTF-8" standalone="no"?>
<!DOCTYPE svg PUBLIC "-//W3C//DTD SVG 1.1//EN"
 "http://www.w3.org/Graphics/SVG/1.1/DTD/svg11.dtd">
<!-- Generated by graphviz version 2.43.0 (0)
 -->
<!-- Title: include/emlabcpp/allocator/pool.h Pages: 1 -->
<svg width="1054pt" height="229pt"
 viewBox="0.00 0.00 1054.00 229.00" xmlns="http://www.w3.org/2000/svg" xmlns:xlink="http://www.w3.org/1999/xlink">
<g id="graph0" class="graph" transform="scale(1 1) rotate(0) translate(4 225)">
<title>include/emlabcpp/allocator/pool.h</title>
<polygon fill="white" stroke="transparent" points="-4,4 -4,-225 1050,-225 1050,4 -4,4"/>
<!-- Node1 -->
<g id="node1" class="node">
<title>Node1</title>
<g id="a_node1"><a xlink:title=" ">
<polygon fill="#bfbfbf" stroke="black" points="650,-190.5 650,-220.5 799,-220.5 799,-190.5 650,-190.5"/>
<text text-anchor="start" x="658" y="-208.5" font-family="Helvetica,sans-Serif" font-size="10.00">include/emlabcpp/allocator</text>
<text text-anchor="middle" x="724.5" y="-197.5" font-family="Helvetica,sans-Serif" font-size="10.00">/pool.h</text>
</a>
</g>
</g>
<!-- Node2 -->
<g id="node2" class="node">
<title>Node2</title>
<g id="a_node2"><a xlink:href="util_8h.html" target="_top" xlink:title=" ">
<polygon fill="white" stroke="black" points="12.5,-123.5 12.5,-153.5 122.5,-153.5 122.5,-123.5 12.5,-123.5"/>
<text text-anchor="start" x="20.5" y="-141.5" font-family="Helvetica,sans-Serif" font-size="10.00">emlabcpp/allocator</text>
<text text-anchor="middle" x="67.5" y="-130.5" font-family="Helvetica,sans-Serif" font-size="10.00">/util.h</text>
</a>
</g>
</g>
<!-- Node1&#45;&gt;Node2 -->
<g id="edge1" class="edge">
<title>Node1&#45;&gt;Node2</title>
<path fill="none" stroke="midnightblue" d="M649.68,-201.44C538.76,-196.17 324.06,-183.16 132.53,-154.02"/>
<polygon fill="midnightblue" stroke="midnightblue" points="132.98,-150.54 122.57,-152.48 131.92,-157.46 132.98,-150.54"/>
</g>
<!-- Node5 -->
<g id="node5" class="node">
<title>Node5</title>
<g id="a_node5"><a xlink:href="assert_8h.html" target="_top" xlink:title=" ">
<polygon fill="white" stroke="black" points="141,-129 141,-148 248,-148 248,-129 141,-129"/>
<text text-anchor="middle" x="194.5" y="-136" font-family="Helvetica,sans-Serif" font-size="10.00">emlabcpp/assert.h</text>
</a>
</g>
</g>
<!-- Node1&#45;&gt;Node5 -->
<g id="edge4" class="edge">
<title>Node1&#45;&gt;Node5</title>
<path fill="none" stroke="midnightblue" d="M649.95,-199.28C557.27,-192.15 394.46,-177.49 256.5,-154 250.28,-152.94 243.75,-151.63 237.36,-150.24"/>
<polygon fill="midnightblue" stroke="midnightblue" points="238.02,-146.8 227.49,-148 236.47,-153.63 238.02,-146.8"/>
</g>
<!-- Node7 -->
<g id="node7" class="node">
<title>Node7</title>
<g id="a_node7"><a xlink:href="logging_8h.html" target="_top" xlink:title=" ">
<polygon fill="white" stroke="black" points="266,-123.5 266,-153.5 399,-153.5 399,-123.5 266,-123.5"/>
<text text-anchor="start" x="274" y="-141.5" font-family="Helvetica,sans-Serif" font-size="10.00">emlabcpp/experimental</text>
<text text-anchor="middle" x="332.5" y="-130.5" font-family="Helvetica,sans-Serif" font-size="10.00">/logging.h</text>
</a>
</g>
</g>
<!-- Node1&#45;&gt;Node7 -->
<g id="edge6" class="edge">
<title>Node1&#45;&gt;Node7</title>
<path fill="none" stroke="midnightblue" d="M649.77,-193.31C587.78,-183.86 497.08,-169.66 409.02,-154.24"/>
<polygon fill="midnightblue" stroke="midnightblue" points="409.59,-150.79 399.14,-152.5 408.38,-157.68 409.59,-150.79"/>
</g>
<!-- Node9 -->
<g id="node9" class="node">
<title>Node9</title>
<g id="a_node9"><a xlink:href="numeric_8h.html" target="_top" xlink:title=" ">
<polygon fill="white" stroke="black" points="417,-123.5 417,-153.5 526,-153.5 526,-123.5 417,-123.5"/>
<text text-anchor="start" x="425" y="-141.5" font-family="Helvetica,sans-Serif" font-size="10.00">emlabcpp/iterators</text>
<text text-anchor="middle" x="471.5" y="-130.5" font-family="Helvetica,sans-Serif" font-size="10.00">/numeric.h</text>
</a>
</g>
</g>
<!-- Node1&#45;&gt;Node9 -->
<g id="edge8" class="edge">
<title>Node1&#45;&gt;Node9</title>
<path fill="none" stroke="midnightblue" d="M669.91,-190.48C630.65,-180.39 577.53,-166.74 536.14,-156.11"/>
<polygon fill="midnightblue" stroke="midnightblue" points="536.98,-152.71 526.42,-153.61 535.24,-159.49 536.98,-152.71"/>
</g>
<!-- Node24 -->
<g id="node11" class="node">
<title>Node24</title>
<g id="a_node11"><a xlink:href="static__vector_8h.html" target="_top" xlink:title=" ">
<polygon fill="white" stroke="black" points="544,-129 544,-148 683,-148 683,-129 544,-129"/>
<text text-anchor="middle" x="613.5" y="-136" font-family="Helvetica,sans-Serif" font-size="10.00">emlabcpp/static_vector.h</text>
</a>
</g>
</g>
<!-- Node1&#45;&gt;Node24 -->
<g id="edge10" class="edge">
<title>Node1&#45;&gt;Node24</title>
<path fill="none" stroke="midnightblue" d="M700.41,-190.4C681.54,-179.34 655.44,-164.06 636.78,-153.13"/>
<polygon fill="midnightblue" stroke="midnightblue" points="638.43,-150.04 628.03,-148.01 634.89,-156.08 638.43,-150.04"/>
</g>
<!-- Node36 -->
<g id="node17" class="node">
<title>Node36</title>
<g id="a_node17"><a xlink:title=" ">
<polygon fill="white" stroke="#bfbfbf" points="701,-129 701,-148 748,-148 748,-129 701,-129"/>
<text text-anchor="middle" x="724.5" y="-136" font-family="Helvetica,sans-Serif" font-size="10.00">deque</text>
</a>
</g>
</g>
<!-- Node1&#45;&gt;Node36 -->
<g id="edge18" class="edge">
<title>Node1&#45;&gt;Node36</title>
<path fill="none" stroke="midnightblue" d="M724.5,-190.4C724.5,-181.06 724.5,-168.71 724.5,-158.52"/>
<polygon fill="midnightblue" stroke="midnightblue" points="728,-158.19 724.5,-148.19 721,-158.19 728,-158.19"/>
</g>
<!-- Node37 -->
<g id="node18" class="node">
<title>Node37</title>
<g id="a_node18"><a xlink:title=" ">
<polygon fill="white" stroke="#bfbfbf" points="766.5,-129 766.5,-148 798.5,-148 798.5,-129 766.5,-129"/>
<text text-anchor="middle" x="782.5" y="-136" font-family="Helvetica,sans-Serif" font-size="10.00">list</text>
</a>
</g>
</g>
<!-- Node1&#45;&gt;Node37 -->
<g id="edge19" class="edge">
<title>Node1&#45;&gt;Node37</title>
<path fill="none" stroke="midnightblue" d="M737.09,-190.4C746.13,-180.26 758.35,-166.57 767.83,-155.94"/>
<polygon fill="midnightblue" stroke="midnightblue" points="770.7,-157.99 774.74,-148.19 765.47,-153.33 770.7,-157.99"/>
</g>
<!-- Node38 -->
<g id="node19" class="node">
<title>Node38</title>
<g id="a_node19"><a xlink:title=" ">
<polygon fill="white" stroke="#bfbfbf" points="816.5,-129 816.5,-148 854.5,-148 854.5,-129 816.5,-129"/>
<text text-anchor="middle" x="835.5" y="-136" font-family="Helvetica,sans-Serif" font-size="10.00">map</text>
</a>
</g>
</g>
<!-- Node1&#45;&gt;Node38 -->
<g id="edge20" class="edge">
<title>Node1&#45;&gt;Node38</title>
<path fill="none" stroke="midnightblue" d="M748.59,-190.4C767.46,-179.34 793.56,-164.06 812.22,-153.13"/>
<polygon fill="midnightblue" stroke="midnightblue" points="814.11,-156.08 820.97,-148.01 810.57,-150.04 814.11,-156.08"/>
</g>
<!-- Node39 -->
<g id="node20" class="node">
<title>Node39</title>
<g id="a_node20"><a xlink:title=" ">
<polygon fill="white" stroke="#bfbfbf" points="872.5,-129 872.5,-148 930.5,-148 930.5,-129 872.5,-129"/>
<text text-anchor="middle" x="901.5" y="-136" font-family="Helvetica,sans-Serif" font-size="10.00">memory</text>
</a>
</g>
</g>
<!-- Node1&#45;&gt;Node39 -->
<g id="edge21" class="edge">
<title>Node1&#45;&gt;Node39</title>
<path fill="none" stroke="midnightblue" d="M763.81,-190.41C791.68,-180.37 829.94,-166.5 863.5,-154 865.39,-153.3 867.32,-152.57 869.28,-151.84"/>
<polygon fill="midnightblue" stroke="midnightblue" points="870.91,-154.96 879.02,-148.15 868.43,-148.42 870.91,-154.96"/>
</g>
<!-- Node40 -->
<g id="node21" class="node">
<title>Node40</title>
<g id="a_node21"><a xlink:title=" ">
<polygon fill="white" stroke="#bfbfbf" points="948.5,-129 948.5,-148 980.5,-148 980.5,-129 948.5,-129"/>
<text text-anchor="middle" x="964.5" y="-136" font-family="Helvetica,sans-Serif" font-size="10.00">set</text>
</a>
</g>
</g>
<!-- Node1&#45;&gt;Node40 -->
<g id="edge22" class="edge">
<title>Node1&#45;&gt;Node40</title>
<path fill="none" stroke="midnightblue" d="M799.29,-192.55C841.4,-184.45 894.42,-171.91 939.5,-154 940.38,-153.65 941.26,-153.28 942.14,-152.88"/>
<polygon fill="midnightblue" stroke="midnightblue" points="944.11,-155.8 951.37,-148.08 940.89,-149.59 944.11,-155.8"/>
</g>
<!-- Node19 -->
<g id="node22" class="node">
<title>Node19</title>
<g id="a_node22"><a xlink:title=" ">
<polygon fill="white" stroke="#bfbfbf" points="999,-129 999,-148 1046,-148 1046,-129 999,-129"/>
<text text-anchor="middle" x="1022.5" y="-136" font-family="Helvetica,sans-Serif" font-size="10.00">vector</text>
</a>
</g>
</g>
<!-- Node1&#45;&gt;Node19 -->
<g id="edge23" class="edge">
<title>Node1&#45;&gt;Node19</title>
<path fill="none" stroke="midnightblue" d="M799.28,-194.86C852.97,-186.82 926.66,-173.52 989.5,-154 991.43,-153.4 993.39,-152.72 995.36,-152"/>
<polygon fill="midnightblue" stroke="midnightblue" points="997.03,-155.09 1004.97,-148.08 994.39,-148.61 997.03,-155.09"/>
</g>
<!-- Node3 -->
<g id="node3" class="node">
<title>Node3</title>
<g id="a_node3"><a xlink:title=" ">
<polygon fill="white" stroke="#bfbfbf" points="0,-62 0,-81 53,-81 53,-62 0,-62"/>
<text text-anchor="middle" x="26.5" y="-69" font-family="Helvetica,sans-Serif" font-size="10.00">cstddef</text>
</a>
</g>
</g>
<!-- Node2&#45;&gt;Node3 -->
<g id="edge2" class="edge">
<title>Node2&#45;&gt;Node3</title>
<path fill="none" stroke="midnightblue" d="M58.6,-123.4C52.4,-113.56 44.08,-100.38 37.47,-89.89"/>
<polygon fill="midnightblue" stroke="midnightblue" points="40.28,-87.79 31.98,-81.19 34.36,-91.52 40.28,-87.79"/>
</g>
<!-- Node4 -->
<g id="node4" class="node">
<title>Node4</title>
<g id="a_node4"><a xlink:title=" ">
<polygon fill="white" stroke="#bfbfbf" points="71.5,-62 71.5,-81 121.5,-81 121.5,-62 71.5,-62"/>
<text text-anchor="middle" x="96.5" y="-69" font-family="Helvetica,sans-Serif" font-size="10.00">cstdint</text>
</a>
</g>
</g>
<!-- Node2&#45;&gt;Node4 -->
<g id="edge3" class="edge">
<title>Node2&#45;&gt;Node4</title>
<path fill="none" stroke="midnightblue" d="M73.79,-123.4C78.09,-113.76 83.82,-100.91 88.45,-90.54"/>
<polygon fill="midnightblue" stroke="midnightblue" points="91.74,-91.75 92.62,-81.19 85.35,-88.9 91.74,-91.75"/>
</g>
<!-- Node6 -->
<g id="node6" class="node">
<title>Node6</title>
<g id="a_node6"><a xlink:title=" ">
<polygon fill="white" stroke="#bfbfbf" points="168.5,-62 168.5,-81 220.5,-81 220.5,-62 168.5,-62"/>
<text text-anchor="middle" x="194.5" y="-69" font-family="Helvetica,sans-Serif" font-size="10.00">cassert</text>
</a>
</g>
</g>
<!-- Node5&#45;&gt;Node6 -->
<g id="edge5" class="edge">
<title>Node5&#45;&gt;Node6</title>
<path fill="none" stroke="midnightblue" d="M194.5,-128.73C194.5,-119.18 194.5,-103.62 194.5,-91.28"/>
<polygon fill="midnightblue" stroke="midnightblue" points="198,-91.13 194.5,-81.13 191,-91.13 198,-91.13"/>
</g>
<!-- Node8 -->
<g id="node8" class="node">
<title>Node8</title>
<g id="a_node8"><a xlink:title=" ">
<polygon fill="white" stroke="#bfbfbf" points="291,-62 291,-81 364,-81 364,-62 291,-62"/>
<text text-anchor="middle" x="327.5" y="-69" font-family="Helvetica,sans-Serif" font-size="10.00">string_view</text>
</a>
</g>
</g>
<!-- Node7&#45;&gt;Node8 -->
<g id="edge7" class="edge">
<title>Node7&#45;&gt;Node8</title>
<path fill="none" stroke="midnightblue" d="M331.42,-123.4C330.69,-113.96 329.73,-101.45 328.94,-91.19"/>
<polygon fill="midnightblue" stroke="midnightblue" points="332.43,-90.9 328.17,-81.19 325.45,-91.43 332.43,-90.9"/>
</g>
<!-- Node10 -->
<g id="node10" class="node">
<title>Node10</title>
<g id="a_node10"><a xlink:href="iterator_8h.html" target="_top" xlink:title=" ">
<polygon fill="white" stroke="red" points="382.5,-62 382.5,-81 494.5,-81 494.5,-62 382.5,-62"/>
<text text-anchor="middle" x="438.5" y="-69" font-family="Helvetica,sans-Serif" font-size="10.00">emlabcpp/iterator.h</text>
</a>
</g>
</g>
<!-- Node9&#45;&gt;Node10 -->
<g id="edge9" class="edge">
<title>Node9&#45;&gt;Node10</title>
<path fill="none" stroke="midnightblue" d="M464.34,-123.4C459.4,-113.66 452.79,-100.65 447.49,-90.21"/>
<polygon fill="midnightblue" stroke="midnightblue" points="450.56,-88.53 442.91,-81.19 444.32,-91.7 450.56,-88.53"/>
</g>
<!-- Node24&#45;&gt;Node10 -->
<g id="edge14" class="edge">
<title>Node24&#45;&gt;Node10</title>
<path fill="none" stroke="midnightblue" d="M590.26,-128.87C559.71,-117.52 505.87,-97.52 471.22,-84.65"/>
<polygon fill="midnightblue" stroke="midnightblue" points="472.15,-81.26 461.56,-81.06 469.71,-87.83 472.15,-81.26"/>
</g>
<!-- Node13 -->
<g id="node12" class="node">
<title>Node13</title>
<g id="a_node12"><a xlink:href="concepts_8h.html" target="_top" xlink:title=" ">
<polygon fill="white" stroke="red" points="509.5,-0.5 509.5,-19.5 629.5,-19.5 629.5,-0.5 509.5,-0.5"/>
<text text-anchor="middle" x="569.5" y="-7.5" font-family="Helvetica,sans-Serif" font-size="10.00">emlabcpp/concepts.h</text>
</a>
</g>
</g>
<!-- Node24&#45;&gt;Node13 -->
<g id="edge11" class="edge">
<title>Node24&#45;&gt;Node13</title>
<path fill="none" stroke="midnightblue" d="M591.78,-128.99C574.67,-120.98 552,-107.18 541.5,-87 531.41,-67.6 543.91,-43.73 555.27,-27.98"/>
<polygon fill="midnightblue" stroke="midnightblue" points="558.3,-29.78 561.66,-19.73 552.77,-25.5 558.3,-29.78"/>
</g>
<!-- Node25 -->
<g id="node13" class="node">
<title>Node25</title>
<g id="a_node13"><a xlink:href="pretty__printer_8h.html" target="_top" xlink:title=" ">
<polygon fill="white" stroke="red" points="551,-56.5 551,-86.5 684,-86.5 684,-56.5 551,-56.5"/>
<text text-anchor="start" x="559" y="-74.5" font-family="Helvetica,sans-Serif" font-size="10.00">emlabcpp/experimental</text>
<text text-anchor="middle" x="617.5" y="-63.5" font-family="Helvetica,sans-Serif" font-size="10.00">/pretty_printer.h</text>
</a>
</g>
</g>
<!-- Node24&#45;&gt;Node25 -->
<g id="edge12" class="edge">
<title>Node24&#45;&gt;Node25</title>
<path fill="none" stroke="midnightblue" d="M614.04,-128.73C614.54,-120.54 615.32,-107.92 616.01,-96.71"/>
<polygon fill="midnightblue" stroke="midnightblue" points="619.51,-96.79 616.63,-86.59 612.53,-96.36 619.51,-96.79"/>
</g>
<!-- Node34 -->
<g id="node14" class="node">
<title>Node34</title>
<g id="a_node14"><a xlink:title=" ">
<polygon fill="white" stroke="#bfbfbf" points="702,-62 702,-81 739,-81 739,-62 702,-62"/>
<text text-anchor="middle" x="720.5" y="-69" font-family="Helvetica,sans-Serif" font-size="10.00">new</text>
</a>
</g>
</g>
<!-- Node24&#45;&gt;Node34 -->
<g id="edge15" class="edge">
<title>Node24&#45;&gt;Node34</title>
<path fill="none" stroke="midnightblue" d="M627.93,-128.73C645.82,-117.87 676.52,-99.22 697.63,-86.39"/>
<polygon fill="midnightblue" stroke="midnightblue" points="699.57,-89.31 706.3,-81.13 695.93,-83.33 699.57,-89.31"/>
</g>
<!-- Node18 -->
<g id="node15" class="node">
<title>Node18</title>
<g id="a_node15"><a xlink:title=" ">
<polygon fill="white" stroke="#bfbfbf" points="757,-62 757,-81 826,-81 826,-62 757,-62"/>
<text text-anchor="middle" x="791.5" y="-69" font-family="Helvetica,sans-Serif" font-size="10.00">type_traits</text>
</a>
</g>
</g>
<!-- Node24&#45;&gt;Node18 -->
<g id="edge16" class="edge">
<title>Node24&#45;&gt;Node18</title>
<path fill="none" stroke="midnightblue" d="M637.14,-128.87C668.21,-117.52 722.97,-97.52 758.22,-84.65"/>
<polygon fill="midnightblue" stroke="midnightblue" points="759.86,-87.78 768.05,-81.06 757.45,-81.21 759.86,-87.78"/>
</g>
<!-- Node35 -->
<g id="node16" class="node">
<title>Node35</title>
<g id="a_node16"><a xlink:title=" ">
<polygon fill="white" stroke="#bfbfbf" points="844,-62 844,-81 889,-81 889,-62 844,-62"/>
<text text-anchor="middle" x="866.5" y="-69" font-family="Helvetica,sans-Serif" font-size="10.00">utility</text>
</a>
</g>
</g>
<!-- Node24&#45;&gt;Node35 -->
<g id="edge17" class="edge">
<title>Node24&#45;&gt;Node35</title>
<path fill="none" stroke="midnightblue" d="M655.82,-129C710.53,-117.81 802.69,-98.26 835.5,-87 837.12,-86.44 838.77,-85.83 840.43,-85.17"/>
<polygon fill="midnightblue" stroke="midnightblue" points="841.93,-88.34 849.72,-81.15 839.15,-81.91 841.93,-88.34"/>
</g>
<!-- Node25&#45;&gt;Node13 -->
<g id="edge13" class="edge">
<title>Node25&#45;&gt;Node13</title>
<path fill="none" stroke="midnightblue" d="M606.12,-56.4C599.15,-47.75 590.19,-36.64 582.87,-27.58"/>
<polygon fill="midnightblue" stroke="midnightblue" points="585.49,-25.24 576.48,-19.66 580.04,-29.64 585.49,-25.24"/>
</g>
</g>
</svg>
