<?xml version="1.0" encoding="UTF-8" standalone="no"?>
<!DOCTYPE svg PUBLIC "-//W3C//DTD SVG 1.1//EN"
 "http://www.w3.org/Graphics/SVG/1.1/DTD/svg11.dtd">
<!-- Generated by graphviz version 2.43.0 (0)
 -->
<!-- Title: include/emlabcpp/pmr/pool_resource.h Pages: 1 -->
<svg width="611pt" height="296pt"
 viewBox="0.00 0.00 611.00 296.00" xmlns="http://www.w3.org/2000/svg" xmlns:xlink="http://www.w3.org/1999/xlink">
<g id="graph0" class="graph" transform="scale(1 1) rotate(0) translate(4 292)">
<title>include/emlabcpp/pmr/pool_resource.h</title>
<polygon fill="white" stroke="transparent" points="-4,4 -4,-292 607,-292 607,4 -4,4"/>
<!-- Node1 -->
<g id="node1" class="node">
<title>Node1</title>
<g id="a_node1"><a xlink:title=" ">
<polygon fill="#bfbfbf" stroke="black" points="227,-257.5 227,-287.5 352,-287.5 352,-257.5 227,-257.5"/>
<text text-anchor="start" x="235" y="-275.5" font-family="Helvetica,sans-Serif" font-size="10.00">include/emlabcpp/pmr</text>
<text text-anchor="middle" x="289.5" y="-264.5" font-family="Helvetica,sans-Serif" font-size="10.00">/pool_resource.h</text>
</a>
</g>
</g>
<!-- Node2 -->
<g id="node2" class="node">
<title>Node2</title>
<g id="a_node2"><a xlink:href="memory__resource_8h.html" target="_top" xlink:title=" ">
<polygon fill="white" stroke="black" points="0,-190.5 0,-220.5 131,-220.5 131,-190.5 0,-190.5"/>
<text text-anchor="start" x="8" y="-208.5" font-family="Helvetica,sans-Serif" font-size="10.00">emlabcpp/pmr/memory</text>
<text text-anchor="middle" x="65.5" y="-197.5" font-family="Helvetica,sans-Serif" font-size="10.00">_resource.h</text>
</a>
</g>
</g>
<!-- Node1&#45;&gt;Node2 -->
<g id="edge1" class="edge">
<title>Node1&#45;&gt;Node2</title>
<path fill="none" stroke="midnightblue" d="M241.17,-257.48C206.84,-247.51 160.57,-234.09 124.13,-223.51"/>
<polygon fill="midnightblue" stroke="midnightblue" points="124.71,-220.04 114.13,-220.61 122.76,-226.76 124.71,-220.04"/>
</g>
<!-- Node4 -->
<g id="node4" class="node">
<title>Node4</title>
<g id="a_node4"><a xlink:href="pmr_2util_8h.html" target="_top" xlink:title=" ">
<polygon fill="white" stroke="black" points="149,-196 149,-215 264,-215 264,-196 149,-196"/>
<text text-anchor="middle" x="206.5" y="-203" font-family="Helvetica,sans-Serif" font-size="10.00">emlabcpp/pmr/util.h</text>
</a>
</g>
</g>
<!-- Node1&#45;&gt;Node4 -->
<g id="edge3" class="edge">
<title>Node1&#45;&gt;Node4</title>
<path fill="none" stroke="midnightblue" d="M271.49,-257.4C257.91,-246.76 239.32,-232.2 225.5,-221.38"/>
<polygon fill="midnightblue" stroke="midnightblue" points="227.63,-218.6 217.6,-215.19 223.32,-224.12 227.63,-218.6"/>
</g>
<!-- Node6 -->
<g id="node6" class="node">
<title>Node6</title>
<g id="a_node6"><a xlink:href="range_8h.html" target="_top" xlink:title=" ">
<polygon fill="white" stroke="black" points="496.5,-67.5 496.5,-86.5 600.5,-86.5 600.5,-67.5 496.5,-67.5"/>
<text text-anchor="middle" x="548.5" y="-74.5" font-family="Helvetica,sans-Serif" font-size="10.00">emlabcpp/range.h</text>
</a>
</g>
</g>
<!-- Node1&#45;&gt;Node6 -->
<g id="edge6" class="edge">
<title>Node1&#45;&gt;Node6</title>
<path fill="none" stroke="midnightblue" d="M352.01,-263.16C413.97,-251.1 505.16,-222.19 544.5,-154 554.59,-136.52 554.06,-112.84 552,-96.59"/>
<polygon fill="midnightblue" stroke="midnightblue" points="555.45,-96.02 550.43,-86.68 548.53,-97.11 555.45,-96.02"/>
</g>
<!-- Node22 -->
<g id="node8" class="node">
<title>Node22</title>
<g id="a_node8"><a xlink:href="static__vector_8h.html" target="_top" xlink:title=" ">
<polygon fill="white" stroke="black" points="293,-196 293,-215 432,-215 432,-196 293,-196"/>
<text text-anchor="middle" x="362.5" y="-203" font-family="Helvetica,sans-Serif" font-size="10.00">emlabcpp/static_vector.h</text>
</a>
</g>
</g>
<!-- Node1&#45;&gt;Node22 -->
<g id="edge8" class="edge">
<title>Node1&#45;&gt;Node22</title>
<path fill="none" stroke="midnightblue" d="M305.34,-257.4C317.06,-246.96 333.02,-232.75 345.09,-222"/>
<polygon fill="midnightblue" stroke="midnightblue" points="347.59,-224.46 352.74,-215.19 342.94,-219.23 347.59,-224.46"/>
</g>
<!-- Node3 -->
<g id="node3" class="node">
<title>Node3</title>
<g id="a_node3"><a xlink:title=" ">
<polygon fill="white" stroke="#bfbfbf" points="77,-67.5 77,-86.5 130,-86.5 130,-67.5 77,-67.5"/>
<text text-anchor="middle" x="103.5" y="-74.5" font-family="Helvetica,sans-Serif" font-size="10.00">cstddef</text>
</a>
</g>
</g>
<!-- Node2&#45;&gt;Node3 -->
<g id="edge2" class="edge">
<title>Node2&#45;&gt;Node3</title>
<path fill="none" stroke="midnightblue" d="M69.6,-190.35C74.32,-174.07 82.36,-146.58 89.5,-123 92.17,-114.18 95.2,-104.41 97.76,-96.23"/>
<polygon fill="midnightblue" stroke="midnightblue" points="101.12,-97.2 100.78,-86.61 94.44,-95.11 101.12,-97.2"/>
</g>
<!-- Node4&#45;&gt;Node3 -->
<g id="edge4" class="edge">
<title>Node4&#45;&gt;Node3</title>
<path fill="none" stroke="midnightblue" d="M182.26,-195.93C163.22,-187.96 137.48,-174.24 122.5,-154 110.14,-137.3 105.76,-113.47 104.25,-96.97"/>
<polygon fill="midnightblue" stroke="midnightblue" points="107.73,-96.64 103.59,-86.89 100.75,-97.09 107.73,-96.64"/>
</g>
<!-- Node5 -->
<g id="node5" class="node">
<title>Node5</title>
<g id="a_node5"><a xlink:title=" ">
<polygon fill="white" stroke="#bfbfbf" points="131.5,-129 131.5,-148 181.5,-148 181.5,-129 131.5,-129"/>
<text text-anchor="middle" x="156.5" y="-136" font-family="Helvetica,sans-Serif" font-size="10.00">cstdint</text>
</a>
</g>
</g>
<!-- Node4&#45;&gt;Node5 -->
<g id="edge5" class="edge">
<title>Node4&#45;&gt;Node5</title>
<path fill="none" stroke="midnightblue" d="M199.76,-195.73C191.96,-185.6 178.95,-168.69 169.24,-156.06"/>
<polygon fill="midnightblue" stroke="midnightblue" points="172.01,-153.92 163.14,-148.13 166.46,-158.19 172.01,-153.92"/>
</g>
<!-- Node7 -->
<g id="node7" class="node">
<title>Node7</title>
<g id="a_node7"><a xlink:href="numeric_8h.html" target="_top" xlink:title=" ">
<polygon fill="white" stroke="red" points="494,-0.5 494,-30.5 603,-30.5 603,-0.5 494,-0.5"/>
<text text-anchor="start" x="502" y="-18.5" font-family="Helvetica,sans-Serif" font-size="10.00">emlabcpp/iterators</text>
<text text-anchor="middle" x="548.5" y="-7.5" font-family="Helvetica,sans-Serif" font-size="10.00">/numeric.h</text>
</a>
</g>
</g>
<!-- Node6&#45;&gt;Node7 -->
<g id="edge7" class="edge">
<title>Node6&#45;&gt;Node7</title>
<path fill="none" stroke="midnightblue" d="M548.5,-67.48C548.5,-60.47 548.5,-50.19 548.5,-40.7"/>
<polygon fill="midnightblue" stroke="midnightblue" points="552,-40.52 548.5,-30.52 545,-40.52 552,-40.52"/>
</g>
<!-- Node11 -->
<g id="node9" class="node">
<title>Node11</title>
<g id="a_node9"><a xlink:href="concepts_8h.html" target="_top" xlink:title=" ">
<polygon fill="white" stroke="red" points="328.5,-67.5 328.5,-86.5 448.5,-86.5 448.5,-67.5 328.5,-67.5"/>
<text text-anchor="middle" x="388.5" y="-74.5" font-family="Helvetica,sans-Serif" font-size="10.00">emlabcpp/concepts.h</text>
</a>
</g>
</g>
<!-- Node22&#45;&gt;Node11 -->
<g id="edge9" class="edge">
<title>Node22&#45;&gt;Node11</title>
<path fill="none" stroke="midnightblue" d="M364.29,-195.81C368.46,-175.49 378.93,-124.55 384.64,-96.78"/>
<polygon fill="midnightblue" stroke="midnightblue" points="388.12,-97.26 386.7,-86.76 381.26,-95.85 388.12,-97.26"/>
</g>
<!-- Node23 -->
<g id="node10" class="node">
<title>Node23</title>
<g id="a_node10"><a xlink:href="pretty__printer_8h.html" target="_top" xlink:title=" ">
<polygon fill="white" stroke="red" points="402,-123.5 402,-153.5 535,-153.5 535,-123.5 402,-123.5"/>
<text text-anchor="start" x="410" y="-141.5" font-family="Helvetica,sans-Serif" font-size="10.00">emlabcpp/experimental</text>
<text text-anchor="middle" x="468.5" y="-130.5" font-family="Helvetica,sans-Serif" font-size="10.00">/pretty_printer.h</text>
</a>
</g>
</g>
<!-- Node22&#45;&gt;Node23 -->
<g id="edge10" class="edge">
<title>Node22&#45;&gt;Node23</title>
<path fill="none" stroke="midnightblue" d="M376.8,-195.73C392.09,-186.36 416.82,-171.19 436.76,-158.97"/>
<polygon fill="midnightblue" stroke="midnightblue" points="438.83,-161.8 445.52,-153.59 435.17,-155.83 438.83,-161.8"/>
</g>
<!-- Node37 -->
<g id="node11" class="node">
<title>Node37</title>
<g id="a_node11"><a xlink:href="static__storage_8h.html" target="_top" xlink:title=" ">
<polygon fill="white" stroke="red" points="199.5,-129 199.5,-148 345.5,-148 345.5,-129 199.5,-129"/>
<text text-anchor="middle" x="272.5" y="-136" font-family="Helvetica,sans-Serif" font-size="10.00">emlabcpp/static_storage.h</text>
</a>
</g>
</g>
<!-- Node22&#45;&gt;Node37 -->
<g id="edge13" class="edge">
<title>Node22&#45;&gt;Node37</title>
<path fill="none" stroke="midnightblue" d="M350.36,-195.73C335.65,-185.11 310.64,-167.05 292.94,-154.26"/>
<polygon fill="midnightblue" stroke="midnightblue" points="294.6,-151.14 284.45,-148.13 290.5,-156.82 294.6,-151.14"/>
</g>
<!-- Node23&#45;&gt;Node6 -->
<g id="edge12" class="edge">
<title>Node23&#45;&gt;Node6</title>
<path fill="none" stroke="midnightblue" d="M487.46,-123.4C499.92,-114.13 516.2,-102.03 528.81,-92.65"/>
<polygon fill="midnightblue" stroke="midnightblue" points="530.92,-95.43 536.86,-86.66 526.75,-89.82 530.92,-95.43"/>
</g>
<!-- Node23&#45;&gt;Node11 -->
<g id="edge11" class="edge">
<title>Node23&#45;&gt;Node11</title>
<path fill="none" stroke="midnightblue" d="M449.54,-123.4C437.08,-114.13 420.8,-102.03 408.19,-92.65"/>
<polygon fill="midnightblue" stroke="midnightblue" points="410.25,-89.82 400.14,-86.66 406.08,-95.43 410.25,-89.82"/>
</g>
<!-- Node37&#45;&gt;Node3 -->
<g id="edge14" class="edge">
<title>Node37&#45;&gt;Node3</title>
<path fill="none" stroke="midnightblue" d="M248.29,-128.98C219.17,-118.72 170.13,-101.46 137.3,-89.9"/>
<polygon fill="midnightblue" stroke="midnightblue" points="138.26,-86.53 127.67,-86.51 135.94,-93.13 138.26,-86.53"/>
</g>
</g>
</svg>
