<?xml version="1.0" encoding="UTF-8" standalone="no"?>
<!DOCTYPE svg PUBLIC "-//W3C//DTD SVG 1.1//EN"
 "http://www.w3.org/Graphics/SVG/1.1/DTD/svg11.dtd">
<!-- Generated by graphviz version 2.43.0 (0)
 -->
<!-- Title: include/emlabcpp/pmr/pool_resource.h Pages: 1 -->
<svg width="811pt" height="296pt"
 viewBox="0.00 0.00 811.00 296.00" xmlns="http://www.w3.org/2000/svg" xmlns:xlink="http://www.w3.org/1999/xlink">
<g id="graph0" class="graph" transform="scale(1 1) rotate(0) translate(4 292)">
<title>include/emlabcpp/pmr/pool_resource.h</title>
<polygon fill="white" stroke="transparent" points="-4,4 -4,-292 807,-292 807,4 -4,4"/>
<!-- Node1 -->
<g id="node1" class="node">
<title>Node1</title>
<g id="a_node1"><a xlink:title=" ">
<polygon fill="#bfbfbf" stroke="black" points="295,-257.5 295,-287.5 420,-287.5 420,-257.5 295,-257.5"/>
<text text-anchor="start" x="303" y="-275.5" font-family="Helvetica,sans-Serif" font-size="10.00">include/emlabcpp/pmr</text>
<text text-anchor="middle" x="357.5" y="-264.5" font-family="Helvetica,sans-Serif" font-size="10.00">/pool_resource.h</text>
</a>
</g>
</g>
<!-- Node2 -->
<g id="node2" class="node">
<title>Node2</title>
<g id="a_node2"><a xlink:href="logging_8h.html" target="_top" xlink:title=" ">
<polygon fill="white" stroke="black" points="0,-190.5 0,-220.5 133,-220.5 133,-190.5 0,-190.5"/>
<text text-anchor="start" x="8" y="-208.5" font-family="Helvetica,sans-Serif" font-size="10.00">emlabcpp/experimental</text>
<text text-anchor="middle" x="66.5" y="-197.5" font-family="Helvetica,sans-Serif" font-size="10.00">/logging.h</text>
</a>
</g>
</g>
<!-- Node1&#45;&gt;Node2 -->
<g id="edge1" class="edge">
<title>Node1&#45;&gt;Node2</title>
<path fill="none" stroke="midnightblue" d="M294.72,-257.48C249.09,-247.28 187.21,-233.46 139.4,-222.78"/>
<polygon fill="midnightblue" stroke="midnightblue" points="139.95,-219.32 129.42,-220.55 138.42,-226.15 139.95,-219.32"/>
</g>
<!-- Node4 -->
<g id="node4" class="node">
<title>Node4</title>
<g id="a_node4"><a xlink:href="memory__resource_8h.html" target="_top" xlink:title=" ">
<polygon fill="white" stroke="black" points="151,-190.5 151,-220.5 282,-220.5 282,-190.5 151,-190.5"/>
<text text-anchor="start" x="159" y="-208.5" font-family="Helvetica,sans-Serif" font-size="10.00">emlabcpp/pmr/memory</text>
<text text-anchor="middle" x="216.5" y="-197.5" font-family="Helvetica,sans-Serif" font-size="10.00">_resource.h</text>
</a>
</g>
</g>
<!-- Node1&#45;&gt;Node4 -->
<g id="edge3" class="edge">
<title>Node1&#45;&gt;Node4</title>
<path fill="none" stroke="midnightblue" d="M326.91,-257.4C306.21,-247.86 278.68,-235.16 256.28,-224.84"/>
<polygon fill="midnightblue" stroke="midnightblue" points="257.58,-221.58 247.04,-220.58 254.65,-227.94 257.58,-221.58"/>
</g>
<!-- Node6 -->
<g id="node6" class="node">
<title>Node6</title>
<g id="a_node6"><a xlink:href="pmr_2util_8h.html" target="_top" xlink:title=" ">
<polygon fill="white" stroke="black" points="300,-196 300,-215 415,-215 415,-196 300,-196"/>
<text text-anchor="middle" x="357.5" y="-203" font-family="Helvetica,sans-Serif" font-size="10.00">emlabcpp/pmr/util.h</text>
</a>
</g>
</g>
<!-- Node1&#45;&gt;Node6 -->
<g id="edge5" class="edge">
<title>Node1&#45;&gt;Node6</title>
<path fill="none" stroke="midnightblue" d="M357.5,-257.4C357.5,-248.06 357.5,-235.71 357.5,-225.52"/>
<polygon fill="midnightblue" stroke="midnightblue" points="361,-225.19 357.5,-215.19 354,-225.19 361,-225.19"/>
</g>
<!-- Node9 -->
<g id="node9" class="node">
<title>Node9</title>
<g id="a_node9"><a xlink:href="range_8h.html" target="_top" xlink:title=" ">
<polygon fill="white" stroke="black" points="696.5,-67.5 696.5,-86.5 800.5,-86.5 800.5,-67.5 696.5,-67.5"/>
<text text-anchor="middle" x="748.5" y="-74.5" font-family="Helvetica,sans-Serif" font-size="10.00">emlabcpp/range.h</text>
</a>
</g>
</g>
<!-- Node1&#45;&gt;Node9 -->
<g id="edge9" class="edge">
<title>Node1&#45;&gt;Node9</title>
<path fill="none" stroke="midnightblue" d="M420.05,-264.59C473.58,-257.45 552.12,-244.03 617.5,-221 677.69,-199.8 710.12,-207.76 744.5,-154 755.37,-137 754.7,-113.23 752.38,-96.82"/>
<polygon fill="midnightblue" stroke="midnightblue" points="755.8,-96.06 750.64,-86.81 748.9,-97.26 755.8,-96.06"/>
</g>
<!-- Node26 -->
<g id="node11" class="node">
<title>Node26</title>
<g id="a_node11"><a xlink:href="static__vector_8h.html" target="_top" xlink:title=" ">
<polygon fill="white" stroke="black" points="469,-196 469,-215 608,-215 608,-196 469,-196"/>
<text text-anchor="middle" x="538.5" y="-203" font-family="Helvetica,sans-Serif" font-size="10.00">emlabcpp/static_vector.h</text>
</a>
</g>
</g>
<!-- Node1&#45;&gt;Node26 -->
<g id="edge11" class="edge">
<title>Node1&#45;&gt;Node26</title>
<path fill="none" stroke="midnightblue" d="M396.77,-257.4C429.09,-245.79 474.41,-229.51 505.03,-218.52"/>
<polygon fill="midnightblue" stroke="midnightblue" points="506.58,-221.68 514.81,-215.01 504.22,-215.09 506.58,-221.68"/>
</g>
<!-- Node3 -->
<g id="node3" class="node">
<title>Node3</title>
<g id="a_node3"><a xlink:title=" ">
<polygon fill="white" stroke="#bfbfbf" points="30,-129 30,-148 103,-148 103,-129 30,-129"/>
<text text-anchor="middle" x="66.5" y="-136" font-family="Helvetica,sans-Serif" font-size="10.00">string_view</text>
</a>
</g>
</g>
<!-- Node2&#45;&gt;Node3 -->
<g id="edge2" class="edge">
<title>Node2&#45;&gt;Node3</title>
<path fill="none" stroke="midnightblue" d="M66.5,-190.4C66.5,-181.06 66.5,-168.71 66.5,-158.52"/>
<polygon fill="midnightblue" stroke="midnightblue" points="70,-158.19 66.5,-148.19 63,-158.19 70,-158.19"/>
</g>
<!-- Node5 -->
<g id="node5" class="node">
<title>Node5</title>
<g id="a_node5"><a xlink:title=" ">
<polygon fill="white" stroke="#bfbfbf" points="229,-67.5 229,-86.5 282,-86.5 282,-67.5 229,-67.5"/>
<text text-anchor="middle" x="255.5" y="-74.5" font-family="Helvetica,sans-Serif" font-size="10.00">cstddef</text>
</a>
</g>
</g>
<!-- Node4&#45;&gt;Node5 -->
<g id="edge4" class="edge">
<title>Node4&#45;&gt;Node5</title>
<path fill="none" stroke="midnightblue" d="M220.82,-190.36C225.79,-174.1 234.2,-146.61 241.5,-123 244.22,-114.19 247.26,-104.43 249.81,-96.25"/>
<polygon fill="midnightblue" stroke="midnightblue" points="253.17,-97.21 252.81,-86.62 246.49,-95.13 253.17,-97.21"/>
</g>
<!-- Node6&#45;&gt;Node5 -->
<g id="edge7" class="edge">
<title>Node6&#45;&gt;Node5</title>
<path fill="none" stroke="midnightblue" d="M333.55,-195.85C314.73,-187.84 289.3,-174.1 274.5,-154 262.18,-137.27 257.8,-113.45 256.27,-96.95"/>
<polygon fill="midnightblue" stroke="midnightblue" points="259.75,-96.63 255.6,-86.88 252.77,-97.09 259.75,-96.63"/>
</g>
<!-- Node7 -->
<g id="node7" class="node">
<title>Node7</title>
<g id="a_node7"><a xlink:title=" ">
<polygon fill="white" stroke="#bfbfbf" points="284,-129 284,-148 313,-148 313,-129 284,-129"/>
<text text-anchor="middle" x="298.5" y="-136" font-family="Helvetica,sans-Serif" font-size="10.00">bit</text>
</a>
</g>
</g>
<!-- Node6&#45;&gt;Node7 -->
<g id="edge6" class="edge">
<title>Node6&#45;&gt;Node7</title>
<path fill="none" stroke="midnightblue" d="M349.54,-195.73C340.25,-185.5 324.7,-168.36 313.2,-155.69"/>
<polygon fill="midnightblue" stroke="midnightblue" points="315.64,-153.18 306.33,-148.13 310.46,-157.88 315.64,-153.18"/>
</g>
<!-- Node8 -->
<g id="node8" class="node">
<title>Node8</title>
<g id="a_node8"><a xlink:title=" ">
<polygon fill="white" stroke="#bfbfbf" points="331.5,-129 331.5,-148 381.5,-148 381.5,-129 331.5,-129"/>
<text text-anchor="middle" x="356.5" y="-136" font-family="Helvetica,sans-Serif" font-size="10.00">cstdint</text>
</a>
</g>
</g>
<!-- Node6&#45;&gt;Node8 -->
<g id="edge8" class="edge">
<title>Node6&#45;&gt;Node8</title>
<path fill="none" stroke="midnightblue" d="M357.37,-195.73C357.22,-186.18 356.98,-170.62 356.79,-158.28"/>
<polygon fill="midnightblue" stroke="midnightblue" points="360.29,-158.07 356.63,-148.13 353.29,-158.18 360.29,-158.07"/>
</g>
<!-- Node10 -->
<g id="node10" class="node">
<title>Node10</title>
<g id="a_node10"><a xlink:href="numeric_8h.html" target="_top" xlink:title=" ">
<polygon fill="white" stroke="red" points="694,-0.5 694,-30.5 803,-30.5 803,-0.5 694,-0.5"/>
<text text-anchor="start" x="702" y="-18.5" font-family="Helvetica,sans-Serif" font-size="10.00">emlabcpp/iterators</text>
<text text-anchor="middle" x="748.5" y="-7.5" font-family="Helvetica,sans-Serif" font-size="10.00">/numeric.h</text>
</a>
</g>
</g>
<!-- Node9&#45;&gt;Node10 -->
<g id="edge10" class="edge">
<title>Node9&#45;&gt;Node10</title>
<path fill="none" stroke="midnightblue" d="M748.5,-67.48C748.5,-60.47 748.5,-50.19 748.5,-40.7"/>
<polygon fill="midnightblue" stroke="midnightblue" points="752,-40.52 748.5,-30.52 745,-40.52 752,-40.52"/>
</g>
<!-- Node14 -->
<g id="node12" class="node">
<title>Node14</title>
<g id="a_node12"><a xlink:href="concepts_8h.html" target="_top" xlink:title=" ">
<polygon fill="white" stroke="red" points="528.5,-67.5 528.5,-86.5 648.5,-86.5 648.5,-67.5 528.5,-67.5"/>
<text text-anchor="middle" x="588.5" y="-74.5" font-family="Helvetica,sans-Serif" font-size="10.00">emlabcpp/concepts.h</text>
</a>
</g>
</g>
<!-- Node26&#45;&gt;Node14 -->
<g id="edge12" class="edge">
<title>Node26&#45;&gt;Node14</title>
<path fill="none" stroke="midnightblue" d="M541.94,-195.81C550,-175.4 570.28,-124.1 581.22,-96.41"/>
<polygon fill="midnightblue" stroke="midnightblue" points="584.62,-97.34 585.04,-86.76 578.11,-94.77 584.62,-97.34"/>
</g>
<!-- Node27 -->
<g id="node13" class="node">
<title>Node27</title>
<g id="a_node13"><a xlink:href="pretty__printer_8h.html" target="_top" xlink:title=" ">
<polygon fill="white" stroke="red" points="602,-123.5 602,-153.5 735,-153.5 735,-123.5 602,-123.5"/>
<text text-anchor="start" x="610" y="-141.5" font-family="Helvetica,sans-Serif" font-size="10.00">emlabcpp/experimental</text>
<text text-anchor="middle" x="668.5" y="-130.5" font-family="Helvetica,sans-Serif" font-size="10.00">/pretty_printer.h</text>
</a>
</g>
</g>
<!-- Node26&#45;&gt;Node27 -->
<g id="edge13" class="edge">
<title>Node26&#45;&gt;Node27</title>
<path fill="none" stroke="midnightblue" d="M555.76,-195.87C574.87,-186.31 606.25,-170.63 631.05,-158.22"/>
<polygon fill="midnightblue" stroke="midnightblue" points="632.82,-161.25 640.2,-153.65 629.69,-154.99 632.82,-161.25"/>
</g>
<!-- Node42 -->
<g id="node14" class="node">
<title>Node42</title>
<g id="a_node14"><a xlink:href="static__storage_8h.html" target="_top" xlink:title=" ">
<polygon fill="white" stroke="red" points="399.5,-129 399.5,-148 545.5,-148 545.5,-129 399.5,-129"/>
<text text-anchor="middle" x="472.5" y="-136" font-family="Helvetica,sans-Serif" font-size="10.00">emlabcpp/static_storage.h</text>
</a>
</g>
</g>
<!-- Node26&#45;&gt;Node42 -->
<g id="edge16" class="edge">
<title>Node26&#45;&gt;Node42</title>
<path fill="none" stroke="midnightblue" d="M529.6,-195.73C519.11,-185.4 501.48,-168.04 488.58,-155.33"/>
<polygon fill="midnightblue" stroke="midnightblue" points="490.84,-152.65 481.26,-148.13 485.93,-157.64 490.84,-152.65"/>
</g>
<!-- Node27&#45;&gt;Node9 -->
<g id="edge15" class="edge">
<title>Node27&#45;&gt;Node9</title>
<path fill="none" stroke="midnightblue" d="M687.46,-123.4C699.92,-114.13 716.2,-102.03 728.81,-92.65"/>
<polygon fill="midnightblue" stroke="midnightblue" points="730.92,-95.43 736.86,-86.66 726.75,-89.82 730.92,-95.43"/>
</g>
<!-- Node27&#45;&gt;Node14 -->
<g id="edge14" class="edge">
<title>Node27&#45;&gt;Node14</title>
<path fill="none" stroke="midnightblue" d="M649.54,-123.4C637.08,-114.13 620.8,-102.03 608.19,-92.65"/>
<polygon fill="midnightblue" stroke="midnightblue" points="610.25,-89.82 600.14,-86.66 606.08,-95.43 610.25,-89.82"/>
</g>
<!-- Node42&#45;&gt;Node5 -->
<g id="edge17" class="edge">
<title>Node42&#45;&gt;Node5</title>
<path fill="none" stroke="midnightblue" d="M441.41,-128.98C401.89,-118.14 333.79,-99.47 291.89,-87.98"/>
<polygon fill="midnightblue" stroke="midnightblue" points="292.67,-84.56 282.1,-85.29 290.82,-91.31 292.67,-84.56"/>
</g>
</g>
</svg>
