<?xml version="1.0" encoding="UTF-8" standalone="no"?>
<!DOCTYPE svg PUBLIC "-//W3C//DTD SVG 1.1//EN"
 "http://www.w3.org/Graphics/SVG/1.1/DTD/svg11.dtd">
<!-- Generated by graphviz version 2.43.0 (0)
 -->
<!-- Title: include/emlabcpp/experimental/geom/pose.hpp Pages: 1 -->
<svg width="205pt" height="319pt"
 viewBox="0.00 0.00 205.00 319.00" xmlns="http://www.w3.org/2000/svg" xmlns:xlink="http://www.w3.org/1999/xlink">
<g id="graph0" class="graph" transform="scale(1 1) rotate(0) translate(4 315)">
<title>include/emlabcpp/experimental/geom/pose.hpp</title>
<polygon fill="white" stroke="transparent" points="-4,4 -4,-315 201,-315 201,4 -4,4"/>
<!-- Node1 -->
<g id="node1" class="node">
<title>Node1</title>
<g id="a_node1"><a xlink:title=" ">
<polygon fill="#bfbfbf" stroke="black" points="0,-280.5 0,-310.5 171,-310.5 171,-280.5 0,-280.5"/>
<text text-anchor="start" x="8" y="-298.5" font-family="Helvetica,sans-Serif" font-size="10.00">include/emlabcpp/experimental</text>
<text text-anchor="middle" x="85.5" y="-287.5" font-family="Helvetica,sans-Serif" font-size="10.00">/geom/pose.hpp</text>
</a>
</g>
</g>
<!-- Node2 -->
<g id="node2" class="node">
<title>Node2</title>
<g id="a_node2"><a xlink:href="point_8hpp.html" target="_top" xlink:title=" ">
<polygon fill="white" stroke="black" points="13.5,-168.5 13.5,-187.5 81.5,-187.5 81.5,-168.5 13.5,-168.5"/>
<text text-anchor="middle" x="47.5" y="-175.5" font-family="Helvetica,sans-Serif" font-size="10.00">./point.hpp</text>
</a>
</g>
</g>
<!-- Node1&#45;&gt;Node2 -->
<g id="edge1" class="edge">
<title>Node1&#45;&gt;Node2</title>
<path fill="none" stroke="midnightblue" d="M61.62,-280.41C49.25,-271.66 35.34,-259.19 28.5,-244 21.51,-228.47 28.51,-209.71 35.91,-196.34"/>
<polygon fill="midnightblue" stroke="midnightblue" points="38.97,-198.05 41.17,-187.68 32.99,-194.41 38.97,-198.05"/>
</g>
<!-- Node37 -->
<g id="node6" class="node">
<title>Node37</title>
<g id="a_node6"><a xlink:href="quaternion_8hpp.html" target="_top" xlink:title=" ">
<polygon fill="white" stroke="black" points="37.5,-224.5 37.5,-243.5 133.5,-243.5 133.5,-224.5 37.5,-224.5"/>
<text text-anchor="middle" x="85.5" y="-231.5" font-family="Helvetica,sans-Serif" font-size="10.00">./quaternion.hpp</text>
</a>
</g>
</g>
<!-- Node1&#45;&gt;Node37 -->
<g id="edge7" class="edge">
<title>Node1&#45;&gt;Node37</title>
<path fill="none" stroke="midnightblue" d="M85.5,-280.4C85.5,-272.47 85.5,-262.46 85.5,-253.86"/>
<polygon fill="midnightblue" stroke="midnightblue" points="89,-253.66 85.5,-243.66 82,-253.66 89,-253.66"/>
</g>
<!-- Node38 -->
<g id="node7" class="node">
<title>Node38</title>
<g id="a_node7"><a xlink:title=" ">
<polygon fill="white" stroke="#bfbfbf" points="152,-224.5 152,-243.5 197,-243.5 197,-224.5 152,-224.5"/>
<text text-anchor="middle" x="174.5" y="-231.5" font-family="Helvetica,sans-Serif" font-size="10.00">utility</text>
</a>
</g>
</g>
<!-- Node1&#45;&gt;Node38 -->
<g id="edge9" class="edge">
<title>Node1&#45;&gt;Node38</title>
<path fill="none" stroke="midnightblue" d="M106.59,-280.4C120.59,-271.04 138.91,-258.79 152.99,-249.38"/>
<polygon fill="midnightblue" stroke="midnightblue" points="155.18,-252.13 161.55,-243.66 151.29,-246.31 155.18,-252.13"/>
</g>
<!-- Node3 -->
<g id="node3" class="node">
<title>Node3</title>
<g id="a_node3"><a xlink:href="range_8hpp.html" target="_top" xlink:title=" ">
<polygon fill="white" stroke="red" points="12,-0.5 12,-19.5 95,-19.5 95,-0.5 12,-0.5"/>
<text text-anchor="middle" x="53.5" y="-7.5" font-family="Helvetica,sans-Serif" font-size="10.00">../../range.hpp</text>
</a>
</g>
</g>
<!-- Node2&#45;&gt;Node3 -->
<g id="edge2" class="edge">
<title>Node2&#45;&gt;Node3</title>
<path fill="none" stroke="midnightblue" d="M43.76,-168.37C35.61,-148.37 17.78,-97.37 28.5,-56 31.05,-46.18 36.25,-36.21 41.26,-28.17"/>
<polygon fill="midnightblue" stroke="midnightblue" points="44.25,-29.99 46.87,-19.73 38.42,-26.11 44.25,-29.99"/>
</g>
<!-- Node21 -->
<g id="node4" class="node">
<title>Node21</title>
<g id="a_node4"><a xlink:href="vec__point__base_8hpp.html" target="_top" xlink:title=" ">
<polygon fill="white" stroke="red" points="38,-56.5 38,-75.5 157,-75.5 157,-56.5 38,-56.5"/>
<text text-anchor="middle" x="97.5" y="-63.5" font-family="Helvetica,sans-Serif" font-size="10.00">./vec_point_base.hpp</text>
</a>
</g>
</g>
<!-- Node2&#45;&gt;Node21 -->
<g id="edge3" class="edge">
<title>Node2&#45;&gt;Node21</title>
<path fill="none" stroke="midnightblue" d="M49.13,-168.27C51.71,-155.48 57.41,-131.11 66.5,-112 71.23,-102.06 78.04,-91.88 84.07,-83.73"/>
<polygon fill="midnightblue" stroke="midnightblue" points="86.86,-85.85 90.18,-75.78 81.31,-81.58 86.86,-85.85"/>
</g>
<!-- Node36 -->
<g id="node5" class="node">
<title>Node36</title>
<g id="a_node5"><a xlink:href="vector_8hpp.html" target="_top" xlink:title=" ">
<polygon fill="white" stroke="black" points="75.5,-112.5 75.5,-131.5 149.5,-131.5 149.5,-112.5 75.5,-112.5"/>
<text text-anchor="middle" x="112.5" y="-119.5" font-family="Helvetica,sans-Serif" font-size="10.00">./vector.hpp</text>
</a>
</g>
</g>
<!-- Node2&#45;&gt;Node36 -->
<g id="edge5" class="edge">
<title>Node2&#45;&gt;Node36</title>
<path fill="none" stroke="midnightblue" d="M57.94,-168.32C67.65,-160.26 82.32,-148.08 94,-138.37"/>
<polygon fill="midnightblue" stroke="midnightblue" points="96.41,-140.92 101.87,-131.83 91.94,-135.53 96.41,-140.92"/>
</g>
<!-- Node21&#45;&gt;Node3 -->
<g id="edge4" class="edge">
<title>Node21&#45;&gt;Node3</title>
<path fill="none" stroke="midnightblue" d="M90.23,-56.08C83.96,-48.38 74.71,-37.03 67.07,-27.65"/>
<polygon fill="midnightblue" stroke="midnightblue" points="69.66,-25.29 60.63,-19.75 64.23,-29.71 69.66,-25.29"/>
</g>
<!-- Node36&#45;&gt;Node21 -->
<g id="edge6" class="edge">
<title>Node36&#45;&gt;Node21</title>
<path fill="none" stroke="midnightblue" d="M110.02,-112.08C108.01,-104.85 105.11,-94.41 102.61,-85.4"/>
<polygon fill="midnightblue" stroke="midnightblue" points="105.98,-84.45 99.93,-75.75 99.24,-86.32 105.98,-84.45"/>
</g>
<!-- Node37&#45;&gt;Node2 -->
<g id="edge8" class="edge">
<title>Node37&#45;&gt;Node2</title>
<path fill="none" stroke="midnightblue" d="M79.23,-224.08C73.86,-216.46 65.98,-205.26 59.42,-195.94"/>
<polygon fill="midnightblue" stroke="midnightblue" points="62.28,-193.91 53.66,-187.75 56.55,-197.94 62.28,-193.91"/>
</g>
</g>
</svg>
