<?xml version="1.0" encoding="UTF-8" standalone="no"?>
<!DOCTYPE svg PUBLIC "-//W3C//DTD SVG 1.1//EN"
 "http://www.w3.org/Graphics/SVG/1.1/DTD/svg11.dtd">
<!-- Generated by graphviz version 2.43.0 (0)
 -->
<!-- Title: include/emlabcpp/experimental/geom/pose.h Pages: 1 -->
<svg width="199pt" height="319pt"
 viewBox="0.00 0.00 199.00 319.00" xmlns="http://www.w3.org/2000/svg" xmlns:xlink="http://www.w3.org/1999/xlink">
<g id="graph0" class="graph" transform="scale(1 1) rotate(0) translate(4 315)">
<title>include/emlabcpp/experimental/geom/pose.h</title>
<polygon fill="white" stroke="transparent" points="-4,4 -4,-315 195,-315 195,4 -4,4"/>
<!-- Node1 -->
<g id="node1" class="node">
<title>Node1</title>
<g id="a_node1"><a xlink:title=" ">
<polygon fill="#bfbfbf" stroke="black" points="0,-280.5 0,-310.5 171,-310.5 171,-280.5 0,-280.5"/>
<text text-anchor="start" x="8" y="-298.5" font-family="Helvetica,sans-Serif" font-size="10.00">include/emlabcpp/experimental</text>
<text text-anchor="middle" x="85.5" y="-287.5" font-family="Helvetica,sans-Serif" font-size="10.00">/geom/pose.h</text>
</a>
</g>
</g>
<!-- Node2 -->
<g id="node2" class="node">
<title>Node2</title>
<g id="a_node2"><a xlink:href="point_8h.html" target="_top" xlink:title=" ">
<polygon fill="white" stroke="black" points="22.5,-168.5 22.5,-187.5 78.5,-187.5 78.5,-168.5 22.5,-168.5"/>
<text text-anchor="middle" x="50.5" y="-175.5" font-family="Helvetica,sans-Serif" font-size="10.00">./point.h</text>
</a>
</g>
</g>
<!-- Node1&#45;&gt;Node2 -->
<g id="edge1" class="edge">
<title>Node1&#45;&gt;Node2</title>
<path fill="none" stroke="midnightblue" d="M64.87,-280.5C53.59,-271.54 40.69,-258.84 34.5,-244 28.08,-228.61 33.88,-210.06 40.22,-196.73"/>
<polygon fill="midnightblue" stroke="midnightblue" points="43.42,-198.16 44.98,-187.68 37.22,-194.9 43.42,-198.16"/>
</g>
<!-- Node35 -->
<g id="node6" class="node">
<title>Node35</title>
<g id="a_node6"><a xlink:href="quaternion_8h.html" target="_top" xlink:title=" ">
<polygon fill="white" stroke="black" points="43.5,-224.5 43.5,-243.5 127.5,-243.5 127.5,-224.5 43.5,-224.5"/>
<text text-anchor="middle" x="85.5" y="-231.5" font-family="Helvetica,sans-Serif" font-size="10.00">./quaternion.h</text>
</a>
</g>
</g>
<!-- Node1&#45;&gt;Node35 -->
<g id="edge7" class="edge">
<title>Node1&#45;&gt;Node35</title>
<path fill="none" stroke="midnightblue" d="M85.5,-280.4C85.5,-272.47 85.5,-262.46 85.5,-253.86"/>
<polygon fill="midnightblue" stroke="midnightblue" points="89,-253.66 85.5,-243.66 82,-253.66 89,-253.66"/>
</g>
<!-- Node36 -->
<g id="node7" class="node">
<title>Node36</title>
<g id="a_node7"><a xlink:title=" ">
<polygon fill="white" stroke="#bfbfbf" points="146,-224.5 146,-243.5 191,-243.5 191,-224.5 146,-224.5"/>
<text text-anchor="middle" x="168.5" y="-231.5" font-family="Helvetica,sans-Serif" font-size="10.00">utility</text>
</a>
</g>
</g>
<!-- Node1&#45;&gt;Node36 -->
<g id="edge9" class="edge">
<title>Node1&#45;&gt;Node36</title>
<path fill="none" stroke="midnightblue" d="M105.17,-280.4C118.1,-271.13 134.99,-259.03 148.07,-249.65"/>
<polygon fill="midnightblue" stroke="midnightblue" points="150.33,-252.33 156.42,-243.66 146.26,-246.64 150.33,-252.33"/>
</g>
<!-- Node3 -->
<g id="node3" class="node">
<title>Node3</title>
<g id="a_node3"><a xlink:href="range_8h.html" target="_top" xlink:title=" ">
<polygon fill="white" stroke="red" points="18,-0.5 18,-19.5 89,-19.5 89,-0.5 18,-0.5"/>
<text text-anchor="middle" x="53.5" y="-7.5" font-family="Helvetica,sans-Serif" font-size="10.00">../../range.h</text>
</a>
</g>
</g>
<!-- Node2&#45;&gt;Node3 -->
<g id="edge2" class="edge">
<title>Node2&#45;&gt;Node3</title>
<path fill="none" stroke="midnightblue" d="M46.91,-168.41C39.07,-148.49 21.87,-97.64 31.5,-56 33.73,-46.36 38.32,-36.41 42.74,-28.31"/>
<polygon fill="midnightblue" stroke="midnightblue" points="45.85,-29.92 47.86,-19.52 39.8,-26.4 45.85,-29.92"/>
</g>
<!-- Node21 -->
<g id="node4" class="node">
<title>Node21</title>
<g id="a_node4"><a xlink:href="vec__point__base_8h.html" target="_top" xlink:title=" ">
<polygon fill="white" stroke="red" points="41,-56.5 41,-75.5 148,-75.5 148,-56.5 41,-56.5"/>
<text text-anchor="middle" x="94.5" y="-63.5" font-family="Helvetica,sans-Serif" font-size="10.00">./vec_point_base.h</text>
</a>
</g>
</g>
<!-- Node2&#45;&gt;Node21 -->
<g id="edge3" class="edge">
<title>Node2&#45;&gt;Node21</title>
<path fill="none" stroke="midnightblue" d="M52.37,-168.38C55.26,-155.73 61.34,-131.53 69.5,-112 73.46,-102.52 78.91,-92.47 83.71,-84.29"/>
<polygon fill="midnightblue" stroke="midnightblue" points="86.74,-86.04 88.92,-75.67 80.75,-82.42 86.74,-86.04"/>
</g>
<!-- Node34 -->
<g id="node5" class="node">
<title>Node34</title>
<g id="a_node5"><a xlink:href="vector_8h.html" target="_top" xlink:title=" ">
<polygon fill="white" stroke="black" points="78.5,-112.5 78.5,-131.5 140.5,-131.5 140.5,-112.5 78.5,-112.5"/>
<text text-anchor="middle" x="109.5" y="-119.5" font-family="Helvetica,sans-Serif" font-size="10.00">./vector.h</text>
</a>
</g>
</g>
<!-- Node2&#45;&gt;Node34 -->
<g id="edge5" class="edge">
<title>Node2&#45;&gt;Node34</title>
<path fill="none" stroke="midnightblue" d="M59.98,-168.32C68.7,-160.34 81.84,-148.31 92.4,-138.65"/>
<polygon fill="midnightblue" stroke="midnightblue" points="94.83,-141.17 99.85,-131.83 90.11,-136 94.83,-141.17"/>
</g>
<!-- Node21&#45;&gt;Node3 -->
<g id="edge4" class="edge">
<title>Node21&#45;&gt;Node3</title>
<path fill="none" stroke="midnightblue" d="M87.73,-56.08C81.94,-48.46 73.44,-37.26 66.36,-27.94"/>
<polygon fill="midnightblue" stroke="midnightblue" points="68.98,-25.6 60.14,-19.75 63.4,-29.83 68.98,-25.6"/>
</g>
<!-- Node34&#45;&gt;Node21 -->
<g id="edge6" class="edge">
<title>Node34&#45;&gt;Node21</title>
<path fill="none" stroke="midnightblue" d="M107.02,-112.08C105.01,-104.85 102.11,-94.41 99.61,-85.4"/>
<polygon fill="midnightblue" stroke="midnightblue" points="102.98,-84.45 96.93,-75.75 96.24,-86.32 102.98,-84.45"/>
</g>
<!-- Node35&#45;&gt;Node2 -->
<g id="edge8" class="edge">
<title>Node35&#45;&gt;Node2</title>
<path fill="none" stroke="midnightblue" d="M79.72,-224.08C74.83,-216.53 67.67,-205.49 61.67,-196.23"/>
<polygon fill="midnightblue" stroke="midnightblue" points="64.55,-194.24 56.17,-187.75 58.67,-198.05 64.55,-194.24"/>
</g>
</g>
</svg>
