<?xml version="1.0" encoding="UTF-8" standalone="no"?>
<!DOCTYPE svg PUBLIC "-//W3C//DTD SVG 1.1//EN"
 "http://www.w3.org/Graphics/SVG/1.1/DTD/svg11.dtd">
<!-- Generated by graphviz version 2.43.0 (0)
 -->
<!-- Title: include/emlabcpp/experimental/pretty_printer.h Pages: 1 -->
<svg width="1333pt" height="330pt"
 viewBox="0.00 0.00 1332.50 330.00" xmlns="http://www.w3.org/2000/svg" xmlns:xlink="http://www.w3.org/1999/xlink">
<g id="graph0" class="graph" transform="scale(1 1) rotate(0) translate(4 326)">
<title>include/emlabcpp/experimental/pretty_printer.h</title>
<polygon fill="white" stroke="transparent" points="-4,4 -4,-326 1328.5,-326 1328.5,4 -4,4"/>
<!-- Node1 -->
<g id="node1" class="node">
<title>Node1</title>
<g id="a_node1"><a xlink:title=" ">
<polygon fill="#bfbfbf" stroke="black" points="587.5,-291.5 587.5,-321.5 758.5,-321.5 758.5,-291.5 587.5,-291.5"/>
<text text-anchor="start" x="595.5" y="-309.5" font-family="Helvetica,sans-Serif" font-size="10.00">include/emlabcpp/experimental</text>
<text text-anchor="middle" x="673" y="-298.5" font-family="Helvetica,sans-Serif" font-size="10.00">/pretty_printer.h</text>
</a>
</g>
</g>
<!-- Node2 -->
<g id="node2" class="node">
<title>Node2</title>
<g id="a_node2"><a xlink:href="concepts_8h.html" target="_top" xlink:title=" ">
<polygon fill="white" stroke="black" points="311,-112.5 311,-131.5 431,-131.5 431,-112.5 311,-112.5"/>
<text text-anchor="middle" x="371" y="-119.5" font-family="Helvetica,sans-Serif" font-size="10.00">emlabcpp/concepts.h</text>
</a>
</g>
</g>
<!-- Node1&#45;&gt;Node2 -->
<g id="edge1" class="edge">
<title>Node1&#45;&gt;Node2</title>
<path fill="none" stroke="midnightblue" d="M587.18,-299.7C517.73,-293.22 427.29,-280.15 401,-255 369.95,-225.3 367.95,-170.71 369.34,-141.92"/>
<polygon fill="midnightblue" stroke="midnightblue" points="372.85,-141.83 370.04,-131.62 365.87,-141.36 372.85,-141.83"/>
</g>
<!-- Node7 -->
<g id="node4" class="node">
<title>Node7</title>
<g id="a_node4"><a xlink:title=" ">
<polygon fill="white" stroke="#bfbfbf" points="103.5,-0.5 103.5,-19.5 144.5,-19.5 144.5,-0.5 103.5,-0.5"/>
<text text-anchor="middle" x="124" y="-7.5" font-family="Helvetica,sans-Serif" font-size="10.00">tuple</text>
</a>
</g>
</g>
<!-- Node1&#45;&gt;Node7 -->
<g id="edge32" class="edge">
<title>Node1&#45;&gt;Node7</title>
<path fill="none" stroke="midnightblue" d="M587.16,-301.21C492.17,-295.32 334.94,-282.21 202,-255 108.84,-235.93 0,-279.59 0,-184.5 0,-184.5 0,-184.5 0,-121 0,-70.94 57.26,-38.12 93.95,-22.23"/>
<polygon fill="midnightblue" stroke="midnightblue" points="95.35,-25.44 103.25,-18.37 92.67,-18.97 95.35,-25.44"/>
</g>
<!-- Node12 -->
<g id="node8" class="node">
<title>Node12</title>
<g id="a_node8"><a xlink:title=" ">
<polygon fill="white" stroke="#bfbfbf" points="190.5,-56.5 190.5,-75.5 241.5,-75.5 241.5,-56.5 190.5,-56.5"/>
<text text-anchor="middle" x="216" y="-63.5" font-family="Helvetica,sans-Serif" font-size="10.00">variant</text>
</a>
</g>
</g>
<!-- Node1&#45;&gt;Node12 -->
<g id="edge34" class="edge">
<title>Node1&#45;&gt;Node12</title>
<path fill="none" stroke="midnightblue" d="M587.23,-296.88C514.7,-288.45 417.26,-274.09 383,-255 343.92,-233.22 260.37,-125.81 228.61,-83.84"/>
<polygon fill="midnightblue" stroke="midnightblue" points="231.3,-81.6 222.49,-75.72 225.71,-85.81 231.3,-81.6"/>
</g>
<!-- Node13 -->
<g id="node9" class="node">
<title>Node13</title>
<g id="a_node9"><a xlink:href="enum_8h.html" target="_top" xlink:title=" ">
<polygon fill="white" stroke="black" points="497,-112.5 497,-131.5 601,-131.5 601,-112.5 497,-112.5"/>
<text text-anchor="middle" x="549" y="-119.5" font-family="Helvetica,sans-Serif" font-size="10.00">emlabcpp/enum.h</text>
</a>
</g>
</g>
<!-- Node1&#45;&gt;Node13 -->
<g id="edge8" class="edge">
<title>Node1&#45;&gt;Node13</title>
<path fill="none" stroke="midnightblue" d="M617.64,-291.39C598.39,-283.74 578.51,-272.19 566,-255 541.5,-221.32 543.07,-169.63 546.15,-141.99"/>
<polygon fill="midnightblue" stroke="midnightblue" points="549.66,-142.1 547.49,-131.73 542.72,-141.2 549.66,-142.1"/>
</g>
<!-- Node14 -->
<g id="node10" class="node">
<title>Node14</title>
<g id="a_node10"><a xlink:href="decompose_8h.html" target="_top" xlink:title=" ">
<polygon fill="white" stroke="black" points="153.5,-168.5 153.5,-198.5 286.5,-198.5 286.5,-168.5 153.5,-168.5"/>
<text text-anchor="start" x="161.5" y="-186.5" font-family="Helvetica,sans-Serif" font-size="10.00">emlabcpp/experimental</text>
<text text-anchor="middle" x="220" y="-175.5" font-family="Helvetica,sans-Serif" font-size="10.00">/decompose.h</text>
</a>
</g>
</g>
<!-- Node1&#45;&gt;Node14 -->
<g id="edge10" class="edge">
<title>Node1&#45;&gt;Node14</title>
<path fill="none" stroke="midnightblue" d="M587.35,-299.58C493.77,-292.11 350.57,-277.47 301,-255 276.19,-243.76 253.32,-222.39 238.25,-206.11"/>
<polygon fill="midnightblue" stroke="midnightblue" points="240.79,-203.7 231.51,-198.59 235.58,-208.37 240.79,-203.7"/>
</g>
<!-- Node15 -->
<g id="node11" class="node">
<title>Node15</title>
<g id="a_node11"><a xlink:href="match_8h.html" target="_top" xlink:title=" ">
<polygon fill="white" stroke="black" points="28.5,-174 28.5,-193 135.5,-193 135.5,-174 28.5,-174"/>
<text text-anchor="middle" x="82" y="-181" font-family="Helvetica,sans-Serif" font-size="10.00">emlabcpp/match.h</text>
</a>
</g>
</g>
<!-- Node1&#45;&gt;Node15 -->
<g id="edge13" class="edge">
<title>Node1&#45;&gt;Node15</title>
<path fill="none" stroke="midnightblue" d="M587.37,-300.76C504.65,-294.79 376.32,-281.87 268,-255 209.94,-240.6 145.3,-213.41 109.56,-197.33"/>
<polygon fill="midnightblue" stroke="midnightblue" points="110.83,-194.06 100.27,-193.11 107.93,-200.43 110.83,-194.06"/>
</g>
<!-- Node17 -->
<g id="node13" class="node">
<title>Node17</title>
<g id="a_node13"><a xlink:href="range_8h.html" target="_top" xlink:title=" ">
<polygon fill="white" stroke="black" points="575,-235.5 575,-254.5 679,-254.5 679,-235.5 575,-235.5"/>
<text text-anchor="middle" x="627" y="-242.5" font-family="Helvetica,sans-Serif" font-size="10.00">emlabcpp/range.h</text>
</a>
</g>
</g>
<!-- Node1&#45;&gt;Node17 -->
<g id="edge17" class="edge">
<title>Node1&#45;&gt;Node17</title>
<path fill="none" stroke="midnightblue" d="M662.1,-291.4C655.41,-282.75 646.82,-271.64 639.82,-262.58"/>
<polygon fill="midnightblue" stroke="midnightblue" points="642.58,-260.43 633.69,-254.66 637.04,-264.71 642.58,-260.43"/>
</g>
<!-- Node21 -->
<g id="node15" class="node">
<title>Node21</title>
<g id="a_node15"><a xlink:href="types_8h.html" target="_top" xlink:title=" ">
<polygon fill="white" stroke="red" points="397,-174 397,-193 501,-193 501,-174 397,-174"/>
<text text-anchor="middle" x="449" y="-181" font-family="Helvetica,sans-Serif" font-size="10.00">emlabcpp/types.h</text>
</a>
</g>
</g>
<!-- Node1&#45;&gt;Node21 -->
<g id="edge19" class="edge">
<title>Node1&#45;&gt;Node21</title>
<path fill="none" stroke="midnightblue" d="M587.17,-300.58C519.26,-294.68 432.28,-281.97 410,-255 395.84,-237.86 414.31,-214.82 430.34,-199.81"/>
<polygon fill="midnightblue" stroke="midnightblue" points="432.69,-202.41 437.86,-193.16 428.05,-197.16 432.69,-202.41"/>
</g>
<!-- Node20 -->
<g id="node16" class="node">
<title>Node20</title>
<g id="a_node16"><a xlink:href="view_8h.html" target="_top" xlink:title=" ">
<polygon fill="white" stroke="black" points="419.5,-235.5 419.5,-254.5 518.5,-254.5 518.5,-235.5 419.5,-235.5"/>
<text text-anchor="middle" x="469" y="-242.5" font-family="Helvetica,sans-Serif" font-size="10.00">emlabcpp/view.h</text>
</a>
</g>
</g>
<!-- Node1&#45;&gt;Node20 -->
<g id="edge22" class="edge">
<title>Node1&#45;&gt;Node20</title>
<path fill="none" stroke="midnightblue" d="M624.91,-291.47C589.26,-281.08 541.27,-267.08 507.99,-257.37"/>
<polygon fill="midnightblue" stroke="midnightblue" points="508.74,-253.95 498.16,-254.51 506.78,-260.67 508.74,-253.95"/>
</g>
<!-- Node23 -->
<g id="node17" class="node">
<title>Node23</title>
<g id="a_node17"><a xlink:title=" ">
<polygon fill="white" stroke="#bfbfbf" points="697,-235.5 697,-254.5 741,-254.5 741,-235.5 697,-235.5"/>
<text text-anchor="middle" x="719" y="-242.5" font-family="Helvetica,sans-Serif" font-size="10.00">bitset</text>
</a>
</g>
</g>
<!-- Node1&#45;&gt;Node23 -->
<g id="edge24" class="edge">
<title>Node1&#45;&gt;Node23</title>
<path fill="none" stroke="midnightblue" d="M683.9,-291.4C690.59,-282.75 699.18,-271.64 706.18,-262.58"/>
<polygon fill="midnightblue" stroke="midnightblue" points="708.96,-264.71 712.31,-254.66 703.42,-260.43 708.96,-264.71"/>
</g>
<!-- Node24 -->
<g id="node18" class="node">
<title>Node24</title>
<g id="a_node18"><a xlink:title=" ">
<polygon fill="white" stroke="#bfbfbf" points="759.5,-235.5 759.5,-254.5 820.5,-254.5 820.5,-235.5 759.5,-235.5"/>
<text text-anchor="middle" x="790" y="-242.5" font-family="Helvetica,sans-Serif" font-size="10.00">charconv</text>
</a>
</g>
</g>
<!-- Node1&#45;&gt;Node24 -->
<g id="edge25" class="edge">
<title>Node1&#45;&gt;Node24</title>
<path fill="none" stroke="midnightblue" d="M700.73,-291.4C719.83,-281.68 745.06,-268.86 763.82,-259.31"/>
<polygon fill="midnightblue" stroke="midnightblue" points="765.65,-262.31 772.98,-254.66 762.48,-256.07 765.65,-262.31"/>
</g>
<!-- Node25 -->
<g id="node19" class="node">
<title>Node25</title>
<g id="a_node19"><a xlink:title=" ">
<polygon fill="white" stroke="#bfbfbf" points="839,-235.5 839,-254.5 889,-254.5 889,-235.5 839,-235.5"/>
<text text-anchor="middle" x="864" y="-242.5" font-family="Helvetica,sans-Serif" font-size="10.00">chrono</text>
</a>
</g>
</g>
<!-- Node1&#45;&gt;Node25 -->
<g id="edge26" class="edge">
<title>Node1&#45;&gt;Node25</title>
<path fill="none" stroke="midnightblue" d="M718.26,-291.4C752.31,-280.79 798.26,-266.48 829.39,-256.78"/>
<polygon fill="midnightblue" stroke="midnightblue" points="830.44,-260.12 838.95,-253.8 828.36,-253.44 830.44,-260.12"/>
</g>
<!-- Node26 -->
<g id="node20" class="node">
<title>Node26</title>
<g id="a_node20"><a xlink:title=" ">
<polygon fill="white" stroke="#bfbfbf" points="907,-235.5 907,-254.5 975,-254.5 975,-235.5 907,-235.5"/>
<text text-anchor="middle" x="941" y="-242.5" font-family="Helvetica,sans-Serif" font-size="10.00">filesystem</text>
</a>
</g>
</g>
<!-- Node1&#45;&gt;Node26 -->
<g id="edge27" class="edge">
<title>Node1&#45;&gt;Node26</title>
<path fill="none" stroke="midnightblue" d="M736.17,-291.47C785.7,-280.48 853.35,-265.46 897.11,-255.74"/>
<polygon fill="midnightblue" stroke="midnightblue" points="897.88,-259.16 906.88,-253.57 896.36,-252.33 897.88,-259.16"/>
</g>
<!-- Node27 -->
<g id="node21" class="node">
<title>Node27</title>
<g id="a_node21"><a xlink:title=" ">
<polygon fill="white" stroke="#bfbfbf" points="993,-235.5 993,-254.5 1031,-254.5 1031,-235.5 993,-235.5"/>
<text text-anchor="middle" x="1012" y="-242.5" font-family="Helvetica,sans-Serif" font-size="10.00">map</text>
</a>
</g>
</g>
<!-- Node1&#45;&gt;Node27 -->
<g id="edge28" class="edge">
<title>Node1&#45;&gt;Node27</title>
<path fill="none" stroke="midnightblue" d="M758.83,-295.09C819.21,-286.95 901.98,-274.15 982.96,-254.95"/>
<polygon fill="midnightblue" stroke="midnightblue" points="983.92,-258.32 992.83,-252.58 982.29,-251.52 983.92,-258.32"/>
</g>
<!-- Node28 -->
<g id="node22" class="node">
<title>Node28</title>
<g id="a_node22"><a xlink:title=" ">
<polygon fill="white" stroke="#bfbfbf" points="1049,-235.5 1049,-254.5 1105,-254.5 1105,-235.5 1049,-235.5"/>
<text text-anchor="middle" x="1077" y="-242.5" font-family="Helvetica,sans-Serif" font-size="10.00">optional</text>
</a>
</g>
</g>
<!-- Node1&#45;&gt;Node28 -->
<g id="edge29" class="edge">
<title>Node1&#45;&gt;Node28</title>
<path fill="none" stroke="midnightblue" d="M758.68,-296.21C830.91,-287.81 937.16,-274.1 1038.66,-255.09"/>
<polygon fill="midnightblue" stroke="midnightblue" points="1039.61,-258.48 1048.78,-253.18 1038.31,-251.6 1039.61,-258.48"/>
</g>
<!-- Node29 -->
<g id="node23" class="node">
<title>Node29</title>
<g id="a_node23"><a xlink:title=" ">
<polygon fill="white" stroke="#bfbfbf" points="1123,-235.5 1123,-254.5 1155,-254.5 1155,-235.5 1123,-235.5"/>
<text text-anchor="middle" x="1139" y="-242.5" font-family="Helvetica,sans-Serif" font-size="10.00">set</text>
</a>
</g>
</g>
<!-- Node1&#45;&gt;Node29 -->
<g id="edge30" class="edge">
<title>Node1&#45;&gt;Node29</title>
<path fill="none" stroke="midnightblue" d="M758.54,-301.58C845.86,-296.24 985.15,-284.07 1112.8,-254.78"/>
<polygon fill="midnightblue" stroke="midnightblue" points="1113.82,-258.14 1122.76,-252.46 1112.22,-251.32 1113.82,-258.14"/>
</g>
<!-- Node30 -->
<g id="node24" class="node">
<title>Node30</title>
<g id="a_node24"><a xlink:title=" ">
<polygon fill="white" stroke="#bfbfbf" points="1173,-235.5 1173,-254.5 1213,-254.5 1213,-235.5 1173,-235.5"/>
<text text-anchor="middle" x="1193" y="-242.5" font-family="Helvetica,sans-Serif" font-size="10.00">span</text>
</a>
</g>
</g>
<!-- Node1&#45;&gt;Node30 -->
<g id="edge31" class="edge">
<title>Node1&#45;&gt;Node30</title>
<path fill="none" stroke="midnightblue" d="M758.93,-301.83C855.35,-296.55 1016.36,-284.24 1162.78,-254.87"/>
<polygon fill="midnightblue" stroke="midnightblue" points="1163.75,-258.24 1172.85,-252.81 1162.35,-251.38 1163.75,-258.24"/>
</g>
<!-- Node31 -->
<g id="node25" class="node">
<title>Node31</title>
<g id="a_node25"><a xlink:title=" ">
<polygon fill="white" stroke="#bfbfbf" points="1231.5,-235.5 1231.5,-254.5 1324.5,-254.5 1324.5,-235.5 1231.5,-235.5"/>
<text text-anchor="middle" x="1278" y="-242.5" font-family="Helvetica,sans-Serif" font-size="10.00">unordered_map</text>
</a>
</g>
</g>
<!-- Node1&#45;&gt;Node31 -->
<g id="edge33" class="edge">
<title>Node1&#45;&gt;Node31</title>
<path fill="none" stroke="midnightblue" d="M758.78,-299.41C864.87,-291.48 1051.21,-276.22 1221.15,-255.02"/>
<polygon fill="midnightblue" stroke="midnightblue" points="1221.8,-258.47 1231.28,-253.75 1220.92,-251.52 1221.8,-258.47"/>
</g>
<!-- Node3 -->
<g id="node3" class="node">
<title>Node3</title>
<g id="a_node3"><a xlink:href="types_2base_8h.html" target="_top" xlink:title=" ">
<polygon fill="white" stroke="red" points="409,-56.5 409,-75.5 539,-75.5 539,-56.5 409,-56.5"/>
<text text-anchor="middle" x="474" y="-63.5" font-family="Helvetica,sans-Serif" font-size="10.00">emlabcpp/types/base.h</text>
</a>
</g>
</g>
<!-- Node2&#45;&gt;Node3 -->
<g id="edge2" class="edge">
<title>Node2&#45;&gt;Node3</title>
<path fill="none" stroke="midnightblue" d="M387.55,-112.32C403.99,-103.7 429.43,-90.36 448.47,-80.39"/>
<polygon fill="midnightblue" stroke="midnightblue" points="450.26,-83.4 457.49,-75.65 447.01,-77.2 450.26,-83.4"/>
</g>
<!-- Node10 -->
<g id="node6" class="node">
<title>Node10</title>
<g id="a_node6"><a xlink:title=" ">
<polygon fill="white" stroke="#bfbfbf" points="331,-56.5 331,-75.5 391,-75.5 391,-56.5 331,-56.5"/>
<text text-anchor="middle" x="361" y="-63.5" font-family="Helvetica,sans-Serif" font-size="10.00">concepts</text>
</a>
</g>
</g>
<!-- Node2&#45;&gt;Node10 -->
<g id="edge5" class="edge">
<title>Node2&#45;&gt;Node10</title>
<path fill="none" stroke="midnightblue" d="M369.35,-112.08C368.02,-104.93 366.12,-94.64 364.46,-85.69"/>
<polygon fill="midnightblue" stroke="midnightblue" points="367.88,-84.95 362.62,-75.75 361,-86.22 367.88,-84.95"/>
</g>
<!-- Node11 -->
<g id="node7" class="node">
<title>Node11</title>
<g id="a_node7"><a xlink:title=" ">
<polygon fill="white" stroke="#bfbfbf" points="259.5,-56.5 259.5,-75.5 312.5,-75.5 312.5,-56.5 259.5,-56.5"/>
<text text-anchor="middle" x="286" y="-63.5" font-family="Helvetica,sans-Serif" font-size="10.00">iterator</text>
</a>
</g>
</g>
<!-- Node2&#45;&gt;Node11 -->
<g id="edge6" class="edge">
<title>Node2&#45;&gt;Node11</title>
<path fill="none" stroke="midnightblue" d="M357.34,-112.32C344.08,-103.9 323.73,-90.97 308.15,-81.07"/>
<polygon fill="midnightblue" stroke="midnightblue" points="309.94,-78.06 299.62,-75.65 306.19,-83.97 309.94,-78.06"/>
</g>
<!-- Node2&#45;&gt;Node12 -->
<g id="edge7" class="edge">
<title>Node2&#45;&gt;Node12</title>
<path fill="none" stroke="midnightblue" d="M346.44,-112.44C320.48,-103.4 279.33,-89.06 250.2,-78.92"/>
<polygon fill="midnightblue" stroke="midnightblue" points="251.04,-75.5 240.45,-75.52 248.74,-82.11 251.04,-75.5"/>
</g>
<!-- Node3&#45;&gt;Node7 -->
<g id="edge3" class="edge">
<title>Node3&#45;&gt;Node7</title>
<path fill="none" stroke="midnightblue" d="M418.54,-56.44C343.96,-44.94 213.89,-24.87 154.79,-15.75"/>
<polygon fill="midnightblue" stroke="midnightblue" points="155.03,-12.25 144.61,-14.18 153.96,-19.16 155.03,-12.25"/>
</g>
<!-- Node8 -->
<g id="node5" class="node">
<title>Node8</title>
<g id="a_node5"><a xlink:title=" ">
<polygon fill="white" stroke="#bfbfbf" points="485.5,-0.5 485.5,-19.5 554.5,-19.5 554.5,-0.5 485.5,-0.5"/>
<text text-anchor="middle" x="520" y="-7.5" font-family="Helvetica,sans-Serif" font-size="10.00">type_traits</text>
</a>
</g>
</g>
<!-- Node3&#45;&gt;Node8 -->
<g id="edge4" class="edge">
<title>Node3&#45;&gt;Node8</title>
<path fill="none" stroke="midnightblue" d="M481.6,-56.08C488.23,-48.3 498.02,-36.8 506.06,-27.37"/>
<polygon fill="midnightblue" stroke="midnightblue" points="508.73,-29.63 512.55,-19.75 503.4,-25.09 508.73,-29.63"/>
</g>
<!-- Node13&#45;&gt;Node8 -->
<g id="edge9" class="edge">
<title>Node13&#45;&gt;Node8</title>
<path fill="none" stroke="midnightblue" d="M550.3,-112.37C551.9,-99.71 553.73,-75.49 548,-56 545.02,-45.87 539.08,-35.77 533.44,-27.72"/>
<polygon fill="midnightblue" stroke="midnightblue" points="536.16,-25.51 527.37,-19.6 530.55,-29.71 536.16,-25.51"/>
</g>
<!-- Node14&#45;&gt;Node2 -->
<g id="edge11" class="edge">
<title>Node14&#45;&gt;Node2</title>
<path fill="none" stroke="midnightblue" d="M255.78,-168.4C281.23,-158.37 315.1,-145.03 339.52,-135.4"/>
<polygon fill="midnightblue" stroke="midnightblue" points="341.01,-138.58 349.03,-131.66 338.44,-132.07 341.01,-138.58"/>
</g>
<!-- Node14&#45;&gt;Node7 -->
<g id="edge12" class="edge">
<title>Node14&#45;&gt;Node7</title>
<path fill="none" stroke="midnightblue" d="M212.14,-168.47C194.7,-137.3 152.78,-62.41 133.72,-28.37"/>
<polygon fill="midnightblue" stroke="midnightblue" points="136.73,-26.58 128.79,-19.56 130.62,-30 136.73,-26.58"/>
</g>
<!-- Node16 -->
<g id="node12" class="node">
<title>Node16</title>
<g id="a_node12"><a xlink:href="visit_8h.html" target="_top" xlink:title=" ">
<polygon fill="white" stroke="black" points="36,-112.5 36,-131.5 134,-131.5 134,-112.5 36,-112.5"/>
<text text-anchor="middle" x="85" y="-119.5" font-family="Helvetica,sans-Serif" font-size="10.00">emlabcpp/visit.h</text>
</a>
</g>
</g>
<!-- Node15&#45;&gt;Node16 -->
<g id="edge14" class="edge">
<title>Node15&#45;&gt;Node16</title>
<path fill="none" stroke="midnightblue" d="M82.43,-173.98C82.85,-165.58 83.51,-152.48 84.06,-141.66"/>
<polygon fill="midnightblue" stroke="midnightblue" points="87.56,-141.67 84.57,-131.51 80.57,-141.32 87.56,-141.67"/>
</g>
<!-- Node16&#45;&gt;Node7 -->
<g id="edge15" class="edge">
<title>Node16&#45;&gt;Node7</title>
<path fill="none" stroke="midnightblue" d="M88.06,-112.37C94.38,-94.54 109,-53.3 117.52,-29.27"/>
<polygon fill="midnightblue" stroke="midnightblue" points="120.91,-30.19 120.95,-19.59 114.31,-27.85 120.91,-30.19"/>
</g>
<!-- Node16&#45;&gt;Node12 -->
<g id="edge16" class="edge">
<title>Node16&#45;&gt;Node12</title>
<path fill="none" stroke="midnightblue" d="M105.76,-112.44C127.32,-103.56 161.26,-89.56 185.79,-79.45"/>
<polygon fill="midnightblue" stroke="midnightblue" points="187.43,-82.56 195.34,-75.52 184.76,-76.09 187.43,-82.56"/>
</g>
<!-- Node18 -->
<g id="node14" class="node">
<title>Node18</title>
<g id="a_node14"><a xlink:href="numeric_8h.html" target="_top" xlink:title=" ">
<polygon fill="white" stroke="red" points="575.5,-168.5 575.5,-198.5 684.5,-198.5 684.5,-168.5 575.5,-168.5"/>
<text text-anchor="start" x="583.5" y="-186.5" font-family="Helvetica,sans-Serif" font-size="10.00">emlabcpp/iterators</text>
<text text-anchor="middle" x="630" y="-175.5" font-family="Helvetica,sans-Serif" font-size="10.00">/numeric.h</text>
</a>
</g>
</g>
<!-- Node17&#45;&gt;Node18 -->
<g id="edge18" class="edge">
<title>Node17&#45;&gt;Node18</title>
<path fill="none" stroke="midnightblue" d="M627.43,-235.48C627.78,-228.47 628.3,-218.19 628.78,-208.7"/>
<polygon fill="midnightblue" stroke="midnightblue" points="632.28,-208.69 629.29,-198.52 625.29,-208.33 632.28,-208.69"/>
</g>
<!-- Node21&#45;&gt;Node2 -->
<g id="edge20" class="edge">
<title>Node21&#45;&gt;Node2</title>
<path fill="none" stroke="midnightblue" d="M437.82,-173.98C425.43,-164.52 405.21,-149.1 390.25,-137.69"/>
<polygon fill="midnightblue" stroke="midnightblue" points="392.23,-134.79 382.15,-131.51 387.98,-140.36 392.23,-134.79"/>
</g>
<!-- Node21&#45;&gt;Node3 -->
<g id="edge21" class="edge">
<title>Node21&#45;&gt;Node3</title>
<path fill="none" stroke="midnightblue" d="M450.88,-173.82C454.91,-155.17 464.49,-110.94 469.97,-85.63"/>
<polygon fill="midnightblue" stroke="midnightblue" points="473.4,-86.3 472.1,-75.78 466.56,-84.82 473.4,-86.3"/>
</g>
<!-- Node20&#45;&gt;Node21 -->
<g id="edge23" class="edge">
<title>Node20&#45;&gt;Node21</title>
<path fill="none" stroke="midnightblue" d="M466.13,-235.48C463.28,-226.99 458.82,-213.7 455.16,-202.82"/>
<polygon fill="midnightblue" stroke="midnightblue" points="458.36,-201.37 451.86,-193.01 451.73,-203.6 458.36,-201.37"/>
</g>
</g>
</svg>
