<?xml version="1.0" encoding="UTF-8" standalone="no"?>
<!DOCTYPE svg PUBLIC "-//W3C//DTD SVG 1.1//EN"
 "http://www.w3.org/Graphics/SVG/1.1/DTD/svg11.dtd">
<!-- Generated by graphviz version 2.43.0 (0)
 -->
<!-- Title: include/emlabcpp/experimental/pretty_printer.h Pages: 1 -->
<svg width="806pt" height="330pt"
 viewBox="0.00 0.00 806.00 330.00" xmlns="http://www.w3.org/2000/svg" xmlns:xlink="http://www.w3.org/1999/xlink">
<g id="graph0" class="graph" transform="scale(1 1) rotate(0) translate(4 326)">
<title>include/emlabcpp/experimental/pretty_printer.h</title>
<polygon fill="white" stroke="transparent" points="-4,4 -4,-326 802,-326 802,4 -4,4"/>
<!-- Node1 -->
<g id="node1" class="node">
<title>Node1</title>
<g id="a_node1"><a xlink:title=" ">
<polygon fill="#bfbfbf" stroke="black" points="353.5,-291.5 353.5,-321.5 524.5,-321.5 524.5,-291.5 353.5,-291.5"/>
<text text-anchor="start" x="361.5" y="-309.5" font-family="Helvetica,sans-Serif" font-size="10.00">include/emlabcpp/experimental</text>
<text text-anchor="middle" x="439" y="-298.5" font-family="Helvetica,sans-Serif" font-size="10.00">/pretty_printer.h</text>
</a>
</g>
</g>
<!-- Node2 -->
<g id="node2" class="node">
<title>Node2</title>
<g id="a_node2"><a xlink:href="concepts_8h.html" target="_top" xlink:title=" ">
<polygon fill="white" stroke="black" points="219,-112.5 219,-131.5 339,-131.5 339,-112.5 219,-112.5"/>
<text text-anchor="middle" x="279" y="-119.5" font-family="Helvetica,sans-Serif" font-size="10.00">emlabcpp/concepts.h</text>
</a>
</g>
</g>
<!-- Node1&#45;&gt;Node2 -->
<g id="edge1" class="edge">
<title>Node1&#45;&gt;Node2</title>
<path fill="none" stroke="midnightblue" d="M369.82,-291.48C348.28,-283.96 326.22,-272.48 311,-255 282.83,-222.65 278.54,-169.61 278.41,-141.63"/>
<polygon fill="midnightblue" stroke="midnightblue" points="281.91,-141.66 278.55,-131.61 274.91,-141.56 281.91,-141.66"/>
</g>
<!-- Node7 -->
<g id="node4" class="node">
<title>Node7</title>
<g id="a_node4"><a xlink:title=" ">
<polygon fill="white" stroke="#bfbfbf" points="464.5,-0.5 464.5,-19.5 505.5,-19.5 505.5,-0.5 464.5,-0.5"/>
<text text-anchor="middle" x="485" y="-7.5" font-family="Helvetica,sans-Serif" font-size="10.00">tuple</text>
</a>
</g>
</g>
<!-- Node1&#45;&gt;Node7 -->
<g id="edge27" class="edge">
<title>Node1&#45;&gt;Node7</title>
<path fill="none" stroke="midnightblue" d="M450.81,-291.44C464.71,-275.7 489.18,-250.39 515,-235 557.73,-209.52 592.02,-239.44 621,-199 667.82,-133.65 558.98,-55.93 508.73,-24.85"/>
<polygon fill="midnightblue" stroke="midnightblue" points="510.44,-21.79 500.08,-19.6 506.81,-27.78 510.44,-21.79"/>
</g>
<!-- Node12 -->
<g id="node8" class="node">
<title>Node12</title>
<g id="a_node8"><a xlink:title=" ">
<polygon fill="white" stroke="#bfbfbf" points="367.5,-56.5 367.5,-75.5 418.5,-75.5 418.5,-56.5 367.5,-56.5"/>
<text text-anchor="middle" x="393" y="-63.5" font-family="Helvetica,sans-Serif" font-size="10.00">variant</text>
</a>
</g>
</g>
<!-- Node1&#45;&gt;Node12 -->
<g id="edge28" class="edge">
<title>Node1&#45;&gt;Node12</title>
<path fill="none" stroke="midnightblue" d="M420.13,-291.44C397.28,-273.11 360,-238.68 345,-199 329.4,-157.76 359.78,-108.93 378.97,-83.81"/>
<polygon fill="midnightblue" stroke="midnightblue" points="381.95,-85.68 385.43,-75.68 376.47,-81.33 381.95,-85.68"/>
</g>
<!-- Node13 -->
<g id="node9" class="node">
<title>Node13</title>
<g id="a_node9"><a xlink:href="enum_8h.html" target="_top" xlink:title=" ">
<polygon fill="white" stroke="black" points="0,-174 0,-193 104,-193 104,-174 0,-174"/>
<text text-anchor="middle" x="52" y="-181" font-family="Helvetica,sans-Serif" font-size="10.00">emlabcpp/enum.h</text>
</a>
</g>
</g>
<!-- Node1&#45;&gt;Node13 -->
<g id="edge8" class="edge">
<title>Node1&#45;&gt;Node13</title>
<path fill="none" stroke="midnightblue" d="M353.23,-299.05C270.56,-291.62 152.24,-277.48 112,-255 89.71,-242.55 71.99,-218.41 61.74,-201.88"/>
<polygon fill="midnightblue" stroke="midnightblue" points="64.69,-200 56.59,-193.17 58.67,-203.56 64.69,-200"/>
</g>
<!-- Node14 -->
<g id="node10" class="node">
<title>Node14</title>
<g id="a_node10"><a xlink:href="decompose_8h.html" target="_top" xlink:title=" ">
<polygon fill="white" stroke="black" points="353.5,-168.5 353.5,-198.5 486.5,-198.5 486.5,-168.5 353.5,-168.5"/>
<text text-anchor="start" x="361.5" y="-186.5" font-family="Helvetica,sans-Serif" font-size="10.00">emlabcpp/experimental</text>
<text text-anchor="middle" x="420" y="-175.5" font-family="Helvetica,sans-Serif" font-size="10.00">/decompose.h</text>
</a>
</g>
</g>
<!-- Node1&#45;&gt;Node14 -->
<g id="edge10" class="edge">
<title>Node1&#45;&gt;Node14</title>
<path fill="none" stroke="midnightblue" d="M436.75,-291.14C433.56,-270.86 427.7,-233.53 423.83,-208.86"/>
<polygon fill="midnightblue" stroke="midnightblue" points="427.26,-208.17 422.25,-198.84 420.34,-209.26 427.26,-208.17"/>
</g>
<!-- Node15 -->
<g id="node11" class="node">
<title>Node15</title>
<g id="a_node11"><a xlink:href="match_8h.html" target="_top" xlink:title=" ">
<polygon fill="white" stroke="black" points="504.5,-174 504.5,-193 611.5,-193 611.5,-174 504.5,-174"/>
<text text-anchor="middle" x="558" y="-181" font-family="Helvetica,sans-Serif" font-size="10.00">emlabcpp/match.h</text>
</a>
</g>
</g>
<!-- Node1&#45;&gt;Node15 -->
<g id="edge13" class="edge">
<title>Node1&#45;&gt;Node15</title>
<path fill="none" stroke="midnightblue" d="M445.35,-291.29C452.64,-276.11 465.7,-251.94 482,-235 496.37,-220.06 515.9,-207.2 531.57,-198.2"/>
<polygon fill="midnightblue" stroke="midnightblue" points="533.7,-201.02 540.74,-193.11 530.3,-194.9 533.7,-201.02"/>
</g>
<!-- Node17 -->
<g id="node13" class="node">
<title>Node17</title>
<g id="a_node13"><a xlink:href="types_8h.html" target="_top" xlink:title=" ">
<polygon fill="white" stroke="black" points="127,-174 127,-193 231,-193 231,-174 127,-174"/>
<text text-anchor="middle" x="179" y="-181" font-family="Helvetica,sans-Serif" font-size="10.00">emlabcpp/types.h</text>
</a>
</g>
</g>
<!-- Node1&#45;&gt;Node17 -->
<g id="edge17" class="edge">
<title>Node1&#45;&gt;Node17</title>
<path fill="none" stroke="midnightblue" d="M374.33,-291.42C342.77,-283.17 304.84,-271.15 273,-255 243.61,-240.09 213.87,-215.92 195.94,-200.12"/>
<polygon fill="midnightblue" stroke="midnightblue" points="197.91,-197.19 188.13,-193.11 193.24,-202.39 197.91,-197.19"/>
</g>
<!-- Node19 -->
<g id="node15" class="node">
<title>Node19</title>
<g id="a_node15"><a xlink:href="view_8h.html" target="_top" xlink:title=" ">
<polygon fill="white" stroke="black" points="121.5,-235.5 121.5,-254.5 220.5,-254.5 220.5,-235.5 121.5,-235.5"/>
<text text-anchor="middle" x="171" y="-242.5" font-family="Helvetica,sans-Serif" font-size="10.00">emlabcpp/view.h</text>
</a>
</g>
</g>
<!-- Node1&#45;&gt;Node19 -->
<g id="edge21" class="edge">
<title>Node1&#45;&gt;Node19</title>
<path fill="none" stroke="midnightblue" d="M375.83,-291.47C327.88,-280.83 262.94,-266.41 219.15,-256.69"/>
<polygon fill="midnightblue" stroke="midnightblue" points="219.84,-253.26 209.31,-254.51 218.32,-260.09 219.84,-253.26"/>
</g>
<!-- Node20 -->
<g id="node16" class="node">
<title>Node20</title>
<g id="a_node16"><a xlink:title=" ">
<polygon fill="white" stroke="#bfbfbf" points="524,-235.5 524,-254.5 592,-254.5 592,-235.5 524,-235.5"/>
<text text-anchor="middle" x="558" y="-242.5" font-family="Helvetica,sans-Serif" font-size="10.00">filesystem</text>
</a>
</g>
</g>
<!-- Node1&#45;&gt;Node20 -->
<g id="edge23" class="edge">
<title>Node1&#45;&gt;Node20</title>
<path fill="none" stroke="midnightblue" d="M467.2,-291.4C486.72,-281.64 512.53,-268.74 531.63,-259.18"/>
<polygon fill="midnightblue" stroke="midnightblue" points="533.31,-262.26 540.68,-254.66 530.17,-256 533.31,-262.26"/>
</g>
<!-- Node21 -->
<g id="node17" class="node">
<title>Node21</title>
<g id="a_node17"><a xlink:title=" ">
<polygon fill="white" stroke="#bfbfbf" points="610,-235.5 610,-254.5 666,-254.5 666,-235.5 610,-235.5"/>
<text text-anchor="middle" x="638" y="-242.5" font-family="Helvetica,sans-Serif" font-size="10.00">optional</text>
</a>
</g>
</g>
<!-- Node1&#45;&gt;Node21 -->
<g id="edge24" class="edge">
<title>Node1&#45;&gt;Node21</title>
<path fill="none" stroke="midnightblue" d="M485.91,-291.47C520.79,-281.04 567.78,-266.99 600.26,-257.29"/>
<polygon fill="midnightblue" stroke="midnightblue" points="601.26,-260.64 609.84,-254.42 599.26,-253.93 601.26,-260.64"/>
</g>
<!-- Node22 -->
<g id="node18" class="node">
<title>Node22</title>
<g id="a_node18"><a xlink:title=" ">
<polygon fill="white" stroke="#bfbfbf" points="684,-235.5 684,-254.5 724,-254.5 724,-235.5 684,-235.5"/>
<text text-anchor="middle" x="704" y="-242.5" font-family="Helvetica,sans-Serif" font-size="10.00">span</text>
</a>
</g>
</g>
<!-- Node1&#45;&gt;Node22 -->
<g id="edge25" class="edge">
<title>Node1&#45;&gt;Node22</title>
<path fill="none" stroke="midnightblue" d="M512.75,-291.5C557.03,-282.67 614.63,-270.47 673.88,-255.12"/>
<polygon fill="midnightblue" stroke="midnightblue" points="675,-258.45 683.79,-252.53 673.23,-251.67 675,-258.45"/>
</g>
<!-- Node23 -->
<g id="node19" class="node">
<title>Node23</title>
<g id="a_node19"><a xlink:title=" ">
<polygon fill="white" stroke="#bfbfbf" points="742,-235.5 742,-254.5 798,-254.5 798,-235.5 742,-235.5"/>
<text text-anchor="middle" x="770" y="-242.5" font-family="Helvetica,sans-Serif" font-size="10.00">sstream</text>
</a>
</g>
</g>
<!-- Node1&#45;&gt;Node23 -->
<g id="edge26" class="edge">
<title>Node1&#45;&gt;Node23</title>
<path fill="none" stroke="midnightblue" d="M524.52,-292.4C580.81,-283.4 656.33,-270.63 731.62,-255.18"/>
<polygon fill="midnightblue" stroke="midnightblue" points="732.68,-258.53 741.76,-253.08 731.26,-251.68 732.68,-258.53"/>
</g>
<!-- Node3 -->
<g id="node3" class="node">
<title>Node3</title>
<g id="a_node3"><a xlink:href="types_2base_8h.html" target="_top" xlink:title=" ">
<polygon fill="white" stroke="red" points="70,-56.5 70,-75.5 200,-75.5 200,-56.5 70,-56.5"/>
<text text-anchor="middle" x="135" y="-63.5" font-family="Helvetica,sans-Serif" font-size="10.00">emlabcpp/types/base.h</text>
</a>
</g>
</g>
<!-- Node2&#45;&gt;Node3 -->
<g id="edge2" class="edge">
<title>Node2&#45;&gt;Node3</title>
<path fill="none" stroke="midnightblue" d="M256.18,-112.44C232.17,-103.44 194.17,-89.19 167.13,-79.05"/>
<polygon fill="midnightblue" stroke="midnightblue" points="168.3,-75.75 157.71,-75.52 165.84,-82.3 168.3,-75.75"/>
</g>
<!-- Node10 -->
<g id="node6" class="node">
<title>Node10</title>
<g id="a_node6"><a xlink:title=" ">
<polygon fill="white" stroke="#bfbfbf" points="218,-56.5 218,-75.5 278,-75.5 278,-56.5 218,-56.5"/>
<text text-anchor="middle" x="248" y="-63.5" font-family="Helvetica,sans-Serif" font-size="10.00">concepts</text>
</a>
</g>
</g>
<!-- Node2&#45;&gt;Node10 -->
<g id="edge5" class="edge">
<title>Node2&#45;&gt;Node10</title>
<path fill="none" stroke="midnightblue" d="M273.88,-112.08C269.59,-104.61 263.34,-93.72 258.06,-84.52"/>
<polygon fill="midnightblue" stroke="midnightblue" points="261.04,-82.68 253.02,-75.75 254.97,-86.17 261.04,-82.68"/>
</g>
<!-- Node11 -->
<g id="node7" class="node">
<title>Node11</title>
<g id="a_node7"><a xlink:title=" ">
<polygon fill="white" stroke="#bfbfbf" points="296.5,-56.5 296.5,-75.5 349.5,-75.5 349.5,-56.5 296.5,-56.5"/>
<text text-anchor="middle" x="323" y="-63.5" font-family="Helvetica,sans-Serif" font-size="10.00">iterator</text>
</a>
</g>
</g>
<!-- Node2&#45;&gt;Node11 -->
<g id="edge6" class="edge">
<title>Node2&#45;&gt;Node11</title>
<path fill="none" stroke="midnightblue" d="M286.27,-112.08C292.54,-104.38 301.79,-93.03 309.43,-83.65"/>
<polygon fill="midnightblue" stroke="midnightblue" points="312.27,-85.71 315.87,-75.75 306.84,-81.29 312.27,-85.71"/>
</g>
<!-- Node2&#45;&gt;Node12 -->
<g id="edge7" class="edge">
<title>Node2&#45;&gt;Node12</title>
<path fill="none" stroke="midnightblue" d="M297.06,-112.44C315.57,-103.68 344.58,-89.94 365.86,-79.86"/>
<polygon fill="midnightblue" stroke="midnightblue" points="367.48,-82.96 375.02,-75.52 364.49,-76.63 367.48,-82.96"/>
</g>
<!-- Node3&#45;&gt;Node7 -->
<g id="edge3" class="edge">
<title>Node3&#45;&gt;Node7</title>
<path fill="none" stroke="midnightblue" d="M190.46,-56.44C265.04,-44.94 395.11,-24.87 454.21,-15.75"/>
<polygon fill="midnightblue" stroke="midnightblue" points="455.04,-19.16 464.39,-14.18 453.97,-12.25 455.04,-19.16"/>
</g>
<!-- Node8 -->
<g id="node5" class="node">
<title>Node8</title>
<g id="a_node5"><a xlink:title=" ">
<polygon fill="white" stroke="#bfbfbf" points="54.5,-0.5 54.5,-19.5 123.5,-19.5 123.5,-0.5 54.5,-0.5"/>
<text text-anchor="middle" x="89" y="-7.5" font-family="Helvetica,sans-Serif" font-size="10.00">type_traits</text>
</a>
</g>
</g>
<!-- Node3&#45;&gt;Node8 -->
<g id="edge4" class="edge">
<title>Node3&#45;&gt;Node8</title>
<path fill="none" stroke="midnightblue" d="M127.4,-56.08C120.77,-48.3 110.98,-36.8 102.94,-27.37"/>
<polygon fill="midnightblue" stroke="midnightblue" points="105.6,-25.09 96.45,-19.75 100.27,-29.63 105.6,-25.09"/>
</g>
<!-- Node13&#45;&gt;Node8 -->
<g id="edge9" class="edge">
<title>Node13&#45;&gt;Node8</title>
<path fill="none" stroke="midnightblue" d="M51.22,-173.95C49.63,-153.15 47.2,-98.51 61,-56 64.26,-45.95 70.23,-35.87 75.82,-27.8"/>
<polygon fill="midnightblue" stroke="midnightblue" points="78.7,-29.79 81.8,-19.66 73.06,-25.64 78.7,-29.79"/>
</g>
<!-- Node14&#45;&gt;Node2 -->
<g id="edge11" class="edge">
<title>Node14&#45;&gt;Node2</title>
<path fill="none" stroke="midnightblue" d="M386.58,-168.4C363.03,-158.46 331.76,-145.26 309.01,-135.66"/>
<polygon fill="midnightblue" stroke="midnightblue" points="310.09,-132.32 299.52,-131.66 307.37,-138.77 310.09,-132.32"/>
</g>
<!-- Node14&#45;&gt;Node7 -->
<g id="edge12" class="edge">
<title>Node14&#45;&gt;Node7</title>
<path fill="none" stroke="midnightblue" d="M425.32,-168.47C437.03,-137.57 465.03,-63.69 478.08,-29.25"/>
<polygon fill="midnightblue" stroke="midnightblue" points="481.48,-30.15 481.76,-19.56 474.94,-27.67 481.48,-30.15"/>
</g>
<!-- Node16 -->
<g id="node12" class="node">
<title>Node16</title>
<g id="a_node12"><a xlink:href="visit_8h.html" target="_top" xlink:title=" ">
<polygon fill="white" stroke="black" points="475,-112.5 475,-131.5 573,-131.5 573,-112.5 475,-112.5"/>
<text text-anchor="middle" x="524" y="-119.5" font-family="Helvetica,sans-Serif" font-size="10.00">emlabcpp/visit.h</text>
</a>
</g>
</g>
<!-- Node15&#45;&gt;Node16 -->
<g id="edge14" class="edge">
<title>Node15&#45;&gt;Node16</title>
<path fill="none" stroke="midnightblue" d="M553.13,-173.98C548.13,-165.23 540.21,-151.37 533.89,-140.31"/>
<polygon fill="midnightblue" stroke="midnightblue" points="536.86,-138.46 528.86,-131.51 530.78,-141.93 536.86,-138.46"/>
</g>
<!-- Node16&#45;&gt;Node7 -->
<g id="edge15" class="edge">
<title>Node16&#45;&gt;Node7</title>
<path fill="none" stroke="midnightblue" d="M520.94,-112.37C514.62,-94.54 500,-53.3 491.48,-29.27"/>
<polygon fill="midnightblue" stroke="midnightblue" points="494.69,-27.85 488.05,-19.59 488.09,-30.19 494.69,-27.85"/>
</g>
<!-- Node16&#45;&gt;Node12 -->
<g id="edge16" class="edge">
<title>Node16&#45;&gt;Node12</title>
<path fill="none" stroke="midnightblue" d="M503.24,-112.44C481.68,-103.56 447.74,-89.56 423.21,-79.45"/>
<polygon fill="midnightblue" stroke="midnightblue" points="424.24,-76.09 413.66,-75.52 421.57,-82.56 424.24,-76.09"/>
</g>
<!-- Node17&#45;&gt;Node2 -->
<g id="edge18" class="edge">
<title>Node17&#45;&gt;Node2</title>
<path fill="none" stroke="midnightblue" d="M193.33,-173.98C209.66,-164.25 236.6,-148.23 255.91,-136.74"/>
<polygon fill="midnightblue" stroke="midnightblue" points="257.89,-139.63 264.7,-131.51 254.32,-133.61 257.89,-139.63"/>
</g>
<!-- Node17&#45;&gt;Node3 -->
<g id="edge19" class="edge">
<title>Node17&#45;&gt;Node3</title>
<path fill="none" stroke="midnightblue" d="M172.25,-173.71C165.15,-164.01 154.16,-147.71 148,-132 142.15,-117.09 138.82,-99.17 136.99,-85.93"/>
<polygon fill="midnightblue" stroke="midnightblue" points="140.43,-85.19 135.76,-75.69 133.48,-86.03 140.43,-85.19"/>
</g>
<!-- Node18 -->
<g id="node14" class="node">
<title>Node18</title>
<g id="a_node14"><a xlink:title=" ">
<polygon fill="white" stroke="#bfbfbf" points="157,-112.5 157,-131.5 201,-131.5 201,-112.5 157,-112.5"/>
<text text-anchor="middle" x="179" y="-119.5" font-family="Helvetica,sans-Serif" font-size="10.00">string</text>
</a>
</g>
</g>
<!-- Node17&#45;&gt;Node18 -->
<g id="edge20" class="edge">
<title>Node17&#45;&gt;Node18</title>
<path fill="none" stroke="midnightblue" d="M179,-173.98C179,-165.58 179,-152.48 179,-141.66"/>
<polygon fill="midnightblue" stroke="midnightblue" points="182.5,-141.51 179,-131.51 175.5,-141.51 182.5,-141.51"/>
</g>
<!-- Node19&#45;&gt;Node17 -->
<g id="edge22" class="edge">
<title>Node19&#45;&gt;Node17</title>
<path fill="none" stroke="midnightblue" d="M172.15,-235.48C173.27,-227.08 175.04,-213.98 176.49,-203.16"/>
<polygon fill="midnightblue" stroke="midnightblue" points="179.99,-203.39 177.86,-193.01 173.05,-202.45 179.99,-203.39"/>
</g>
</g>
</svg>
