<?xml version="1.0" encoding="UTF-8" standalone="no"?>
<!DOCTYPE svg PUBLIC "-//W3C//DTD SVG 1.1//EN"
 "http://www.w3.org/Graphics/SVG/1.1/DTD/svg11.dtd">
<!-- Generated by graphviz version 2.43.0 (0)
 -->
<!-- Title: include/emlabcpp/experimental/pretty_printer.h Pages: 1 -->
<svg width="828pt" height="330pt"
 viewBox="0.00 0.00 828.00 330.00" xmlns="http://www.w3.org/2000/svg" xmlns:xlink="http://www.w3.org/1999/xlink">
<g id="graph0" class="graph" transform="scale(1 1) rotate(0) translate(4 326)">
<title>include/emlabcpp/experimental/pretty_printer.h</title>
<polygon fill="white" stroke="transparent" points="-4,4 -4,-326 824,-326 824,4 -4,4"/>
<!-- Node1 -->
<g id="node1" class="node">
<title>Node1</title>
<g id="a_node1"><a xlink:title=" ">
<polygon fill="#bfbfbf" stroke="black" points="291.5,-291.5 291.5,-321.5 462.5,-321.5 462.5,-291.5 291.5,-291.5"/>
<text text-anchor="start" x="299.5" y="-309.5" font-family="Helvetica,sans-Serif" font-size="10.00">include/emlabcpp/experimental</text>
<text text-anchor="middle" x="377" y="-298.5" font-family="Helvetica,sans-Serif" font-size="10.00">/pretty_printer.h</text>
</a>
</g>
</g>
<!-- Node2 -->
<g id="node2" class="node">
<title>Node2</title>
<g id="a_node2"><a xlink:href="concepts_8h.html" target="_top" xlink:title=" ">
<polygon fill="white" stroke="black" points="298,-112.5 298,-131.5 418,-131.5 418,-112.5 298,-112.5"/>
<text text-anchor="middle" x="358" y="-119.5" font-family="Helvetica,sans-Serif" font-size="10.00">emlabcpp/concepts.h</text>
</a>
</g>
</g>
<!-- Node1&#45;&gt;Node2 -->
<g id="edge1" class="edge">
<title>Node1&#45;&gt;Node2</title>
<path fill="none" stroke="midnightblue" d="M375.54,-291.48C372.17,-259.1 363.83,-179.04 359.99,-142.16"/>
<polygon fill="midnightblue" stroke="midnightblue" points="363.43,-141.4 358.92,-131.82 356.47,-142.13 363.43,-141.4"/>
</g>
<!-- Node7 -->
<g id="node4" class="node">
<title>Node7</title>
<g id="a_node4"><a xlink:title=" ">
<polygon fill="white" stroke="#bfbfbf" points="124.5,-0.5 124.5,-19.5 165.5,-19.5 165.5,-0.5 124.5,-0.5"/>
<text text-anchor="middle" x="145" y="-7.5" font-family="Helvetica,sans-Serif" font-size="10.00">tuple</text>
</a>
</g>
</g>
<!-- Node1&#45;&gt;Node7 -->
<g id="edge25" class="edge">
<title>Node1&#45;&gt;Node7</title>
<path fill="none" stroke="midnightblue" d="M291.45,-295.42C180.22,-279.89 0,-245.33 0,-184.5 0,-184.5 0,-184.5 0,-121 0,-63.96 72.11,-32.66 114.62,-19.17"/>
<polygon fill="midnightblue" stroke="midnightblue" points="115.67,-22.51 124.23,-16.27 113.64,-15.81 115.67,-22.51"/>
</g>
<!-- Node12 -->
<g id="node7" class="node">
<title>Node12</title>
<g id="a_node7"><a xlink:title=" ">
<polygon fill="white" stroke="#bfbfbf" points="92.5,-56.5 92.5,-75.5 143.5,-75.5 143.5,-56.5 92.5,-56.5"/>
<text text-anchor="middle" x="118" y="-63.5" font-family="Helvetica,sans-Serif" font-size="10.00">variant</text>
</a>
</g>
</g>
<!-- Node1&#45;&gt;Node12 -->
<g id="edge26" class="edge">
<title>Node1&#45;&gt;Node12</title>
<path fill="none" stroke="midnightblue" d="M291.35,-292.82C263.98,-285.4 235.09,-273.63 213,-255 209.39,-251.96 149.85,-131.62 126.91,-85.1"/>
<polygon fill="midnightblue" stroke="midnightblue" points="129.94,-83.32 122.38,-75.89 123.66,-86.41 129.94,-83.32"/>
</g>
<!-- Node13 -->
<g id="node8" class="node">
<title>Node13</title>
<g id="a_node8"><a xlink:href="enum_8h.html" target="_top" xlink:title=" ">
<polygon fill="white" stroke="black" points="424,-235.5 424,-254.5 528,-254.5 528,-235.5 424,-235.5"/>
<text text-anchor="middle" x="476" y="-242.5" font-family="Helvetica,sans-Serif" font-size="10.00">emlabcpp/enum.h</text>
</a>
</g>
</g>
<!-- Node1&#45;&gt;Node13 -->
<g id="edge7" class="edge">
<title>Node1&#45;&gt;Node13</title>
<path fill="none" stroke="midnightblue" d="M400.46,-291.4C416.33,-281.86 437.19,-269.32 452.97,-259.84"/>
<polygon fill="midnightblue" stroke="midnightblue" points="454.83,-262.81 461.59,-254.66 451.22,-256.81 454.83,-262.81"/>
</g>
<!-- Node14 -->
<g id="node9" class="node">
<title>Node14</title>
<g id="a_node9"><a xlink:href="decompose_8h.html" target="_top" xlink:title=" ">
<polygon fill="white" stroke="black" points="386.5,-168.5 386.5,-198.5 519.5,-198.5 519.5,-168.5 386.5,-168.5"/>
<text text-anchor="start" x="394.5" y="-186.5" font-family="Helvetica,sans-Serif" font-size="10.00">emlabcpp/experimental</text>
<text text-anchor="middle" x="453" y="-175.5" font-family="Helvetica,sans-Serif" font-size="10.00">/decompose.h</text>
</a>
</g>
</g>
<!-- Node1&#45;&gt;Node14 -->
<g id="edge8" class="edge">
<title>Node1&#45;&gt;Node14</title>
<path fill="none" stroke="midnightblue" d="M383.83,-291.37C391.01,-276.87 402.93,-253.85 415,-235 421.13,-225.44 428.51,-215.35 435.13,-206.73"/>
<polygon fill="midnightblue" stroke="midnightblue" points="438.03,-208.71 441.43,-198.67 432.51,-204.4 438.03,-208.71"/>
</g>
<!-- Node15 -->
<g id="node10" class="node">
<title>Node15</title>
<g id="a_node10"><a xlink:href="match_8h.html" target="_top" xlink:title=" ">
<polygon fill="white" stroke="black" points="28.5,-174 28.5,-193 135.5,-193 135.5,-174 28.5,-174"/>
<text text-anchor="middle" x="82" y="-181" font-family="Helvetica,sans-Serif" font-size="10.00">emlabcpp/match.h</text>
</a>
</g>
</g>
<!-- Node1&#45;&gt;Node15 -->
<g id="edge11" class="edge">
<title>Node1&#45;&gt;Node15</title>
<path fill="none" stroke="midnightblue" d="M291.38,-298.36C246.97,-291.8 193.14,-279.19 150,-255 126.47,-241.8 105.99,-217.89 93.82,-201.61"/>
<polygon fill="midnightblue" stroke="midnightblue" points="96.63,-199.53 87.94,-193.47 90.96,-203.63 96.63,-199.53"/>
</g>
<!-- Node17 -->
<g id="node12" class="node">
<title>Node17</title>
<g id="a_node12"><a xlink:href="types_8h.html" target="_top" xlink:title=" ">
<polygon fill="white" stroke="black" points="206,-174 206,-193 310,-193 310,-174 206,-174"/>
<text text-anchor="middle" x="258" y="-181" font-family="Helvetica,sans-Serif" font-size="10.00">emlabcpp/types.h</text>
</a>
</g>
</g>
<!-- Node1&#45;&gt;Node17 -->
<g id="edge15" class="edge">
<title>Node1&#45;&gt;Node17</title>
<path fill="none" stroke="midnightblue" d="M291.37,-297.19C264.83,-290.11 238.29,-277.45 222,-255 209.35,-237.57 225.67,-215.07 240.24,-200.23"/>
<polygon fill="midnightblue" stroke="midnightblue" points="242.74,-202.68 247.53,-193.24 237.89,-197.63 242.74,-202.68"/>
</g>
<!-- Node19 -->
<g id="node14" class="node">
<title>Node19</title>
<g id="a_node14"><a xlink:href="view_8h.html" target="_top" xlink:title=" ">
<polygon fill="white" stroke="black" points="230.5,-235.5 230.5,-254.5 329.5,-254.5 329.5,-235.5 230.5,-235.5"/>
<text text-anchor="middle" x="280" y="-242.5" font-family="Helvetica,sans-Serif" font-size="10.00">emlabcpp/view.h</text>
</a>
</g>
</g>
<!-- Node1&#45;&gt;Node19 -->
<g id="edge19" class="edge">
<title>Node1&#45;&gt;Node19</title>
<path fill="none" stroke="midnightblue" d="M354.01,-291.4C338.61,-281.95 318.41,-269.56 303,-260.11"/>
<polygon fill="midnightblue" stroke="midnightblue" points="304.47,-256.9 294.11,-254.66 300.81,-262.87 304.47,-256.9"/>
</g>
<!-- Node20 -->
<g id="node15" class="node">
<title>Node20</title>
<g id="a_node15"><a xlink:title=" ">
<polygon fill="white" stroke="#bfbfbf" points="546,-235.5 546,-254.5 586,-254.5 586,-235.5 546,-235.5"/>
<text text-anchor="middle" x="566" y="-242.5" font-family="Helvetica,sans-Serif" font-size="10.00">span</text>
</a>
</g>
</g>
<!-- Node1&#45;&gt;Node20 -->
<g id="edge21" class="edge">
<title>Node1&#45;&gt;Node20</title>
<path fill="none" stroke="midnightblue" d="M421.79,-291.4C457.1,-280.28 505.34,-265.1 536.09,-255.41"/>
<polygon fill="midnightblue" stroke="midnightblue" points="537.32,-258.7 545.81,-252.36 535.22,-252.02 537.32,-258.7"/>
</g>
<!-- Node21 -->
<g id="node16" class="node">
<title>Node21</title>
<g id="a_node16"><a xlink:title=" ">
<polygon fill="white" stroke="#bfbfbf" points="604,-235.5 604,-254.5 672,-254.5 672,-235.5 604,-235.5"/>
<text text-anchor="middle" x="638" y="-242.5" font-family="Helvetica,sans-Serif" font-size="10.00">filesystem</text>
</a>
</g>
</g>
<!-- Node1&#45;&gt;Node21 -->
<g id="edge22" class="edge">
<title>Node1&#45;&gt;Node21</title>
<path fill="none" stroke="midnightblue" d="M438.52,-291.47C486.24,-280.6 551.22,-265.78 593.87,-256.06"/>
<polygon fill="midnightblue" stroke="midnightblue" points="594.7,-259.46 603.68,-253.82 593.15,-252.63 594.7,-259.46"/>
</g>
<!-- Node22 -->
<g id="node17" class="node">
<title>Node22</title>
<g id="a_node17"><a xlink:title=" ">
<polygon fill="white" stroke="#bfbfbf" points="690,-235.5 690,-254.5 746,-254.5 746,-235.5 690,-235.5"/>
<text text-anchor="middle" x="718" y="-242.5" font-family="Helvetica,sans-Serif" font-size="10.00">optional</text>
</a>
</g>
</g>
<!-- Node1&#45;&gt;Node22 -->
<g id="edge23" class="edge">
<title>Node1&#45;&gt;Node22</title>
<path fill="none" stroke="midnightblue" d="M462.81,-292.98C521.37,-284.03 600.91,-271.09 679.67,-255.16"/>
<polygon fill="midnightblue" stroke="midnightblue" points="680.67,-258.52 689.77,-253.1 679.27,-251.66 680.67,-258.52"/>
</g>
<!-- Node23 -->
<g id="node18" class="node">
<title>Node23</title>
<g id="a_node18"><a xlink:title=" ">
<polygon fill="white" stroke="#bfbfbf" points="764,-235.5 764,-254.5 820,-254.5 820,-235.5 764,-235.5"/>
<text text-anchor="middle" x="792" y="-242.5" font-family="Helvetica,sans-Serif" font-size="10.00">sstream</text>
</a>
</g>
</g>
<!-- Node1&#45;&gt;Node23 -->
<g id="edge24" class="edge">
<title>Node1&#45;&gt;Node23</title>
<path fill="none" stroke="midnightblue" d="M462.61,-296.68C537.16,-288.39 648.31,-274.6 753.91,-255.04"/>
<polygon fill="midnightblue" stroke="midnightblue" points="754.6,-258.47 763.78,-253.19 753.31,-251.59 754.6,-258.47"/>
</g>
<!-- Node3 -->
<g id="node3" class="node">
<title>Node3</title>
<g id="a_node3"><a xlink:href="types_2base_8h.html" target="_top" xlink:title=" ">
<polygon fill="white" stroke="red" points="162,-56.5 162,-75.5 292,-75.5 292,-56.5 162,-56.5"/>
<text text-anchor="middle" x="227" y="-63.5" font-family="Helvetica,sans-Serif" font-size="10.00">emlabcpp/types/base.h</text>
</a>
</g>
</g>
<!-- Node2&#45;&gt;Node3 -->
<g id="edge2" class="edge">
<title>Node2&#45;&gt;Node3</title>
<path fill="none" stroke="midnightblue" d="M337.24,-112.44C315.68,-103.56 281.74,-89.56 257.21,-79.45"/>
<polygon fill="midnightblue" stroke="midnightblue" points="258.24,-76.09 247.66,-75.52 255.57,-82.56 258.24,-76.09"/>
</g>
<!-- Node10 -->
<g id="node5" class="node">
<title>Node10</title>
<g id="a_node5"><a xlink:title=" ">
<polygon fill="white" stroke="#bfbfbf" points="310,-56.5 310,-75.5 370,-75.5 370,-56.5 310,-56.5"/>
<text text-anchor="middle" x="340" y="-63.5" font-family="Helvetica,sans-Serif" font-size="10.00">concepts</text>
</a>
</g>
</g>
<!-- Node2&#45;&gt;Node10 -->
<g id="edge4" class="edge">
<title>Node2&#45;&gt;Node10</title>
<path fill="none" stroke="midnightblue" d="M355.03,-112.08C352.62,-104.85 349.14,-94.41 346.13,-85.4"/>
<polygon fill="midnightblue" stroke="midnightblue" points="349.4,-84.13 342.92,-75.75 342.76,-86.34 349.4,-84.13"/>
</g>
<!-- Node11 -->
<g id="node6" class="node">
<title>Node11</title>
<g id="a_node6"><a xlink:title=" ">
<polygon fill="white" stroke="#bfbfbf" points="388.5,-56.5 388.5,-75.5 441.5,-75.5 441.5,-56.5 388.5,-56.5"/>
<text text-anchor="middle" x="415" y="-63.5" font-family="Helvetica,sans-Serif" font-size="10.00">iterator</text>
</a>
</g>
</g>
<!-- Node2&#45;&gt;Node11 -->
<g id="edge5" class="edge">
<title>Node2&#45;&gt;Node11</title>
<path fill="none" stroke="midnightblue" d="M367.16,-112.32C375.5,-104.42 388.03,-92.55 398.18,-82.94"/>
<polygon fill="midnightblue" stroke="midnightblue" points="400.82,-85.25 405.68,-75.83 396.01,-80.17 400.82,-85.25"/>
</g>
<!-- Node2&#45;&gt;Node12 -->
<g id="edge6" class="edge">
<title>Node2&#45;&gt;Node12</title>
<path fill="none" stroke="midnightblue" d="M317.06,-112.46C277.72,-104.16 216.34,-90.94 153.66,-76.09"/>
<polygon fill="midnightblue" stroke="midnightblue" points="154.13,-72.6 143.59,-73.69 152.51,-79.41 154.13,-72.6"/>
</g>
<!-- Node3&#45;&gt;Node7 -->
<g id="edge3" class="edge">
<title>Node3&#45;&gt;Node7</title>
<path fill="none" stroke="midnightblue" d="M213.83,-56.32C201.15,-47.98 181.77,-35.21 166.79,-25.35"/>
<polygon fill="midnightblue" stroke="midnightblue" points="168.42,-22.23 158.14,-19.65 164.57,-28.08 168.42,-22.23"/>
</g>
<!-- Node14&#45;&gt;Node2 -->
<g id="edge9" class="edge">
<title>Node14&#45;&gt;Node2</title>
<path fill="none" stroke="midnightblue" d="M430.49,-168.4C415.4,-158.95 395.61,-146.56 380.53,-137.11"/>
<polygon fill="midnightblue" stroke="midnightblue" points="382.16,-134 371.82,-131.66 378.44,-139.93 382.16,-134"/>
</g>
<!-- Node14&#45;&gt;Node7 -->
<g id="edge10" class="edge">
<title>Node14&#45;&gt;Node7</title>
<path fill="none" stroke="midnightblue" d="M458.03,-168.27C466.17,-142.43 478.67,-87.53 451,-56 415.29,-15.31 245.98,-10.8 175.69,-10.72"/>
<polygon fill="midnightblue" stroke="midnightblue" points="175.68,-7.22 165.68,-10.74 175.69,-14.22 175.68,-7.22"/>
</g>
<!-- Node16 -->
<g id="node11" class="node">
<title>Node16</title>
<g id="a_node11"><a xlink:href="visit_8h.html" target="_top" xlink:title=" ">
<polygon fill="white" stroke="black" points="33,-112.5 33,-131.5 131,-131.5 131,-112.5 33,-112.5"/>
<text text-anchor="middle" x="82" y="-119.5" font-family="Helvetica,sans-Serif" font-size="10.00">emlabcpp/visit.h</text>
</a>
</g>
</g>
<!-- Node15&#45;&gt;Node16 -->
<g id="edge12" class="edge">
<title>Node15&#45;&gt;Node16</title>
<path fill="none" stroke="midnightblue" d="M82,-173.98C82,-165.58 82,-152.48 82,-141.66"/>
<polygon fill="midnightblue" stroke="midnightblue" points="85.5,-141.51 82,-131.51 78.5,-141.51 85.5,-141.51"/>
</g>
<!-- Node16&#45;&gt;Node7 -->
<g id="edge13" class="edge">
<title>Node16&#45;&gt;Node7</title>
<path fill="none" stroke="midnightblue" d="M79.83,-112.42C77.02,-99.39 73.53,-74.23 83,-56 90.11,-42.32 103.48,-31.81 115.99,-24.4"/>
<polygon fill="midnightblue" stroke="midnightblue" points="117.76,-27.42 124.85,-19.54 114.4,-21.28 117.76,-27.42"/>
</g>
<!-- Node16&#45;&gt;Node12 -->
<g id="edge14" class="edge">
<title>Node16&#45;&gt;Node12</title>
<path fill="none" stroke="midnightblue" d="M87.94,-112.08C92.98,-104.53 100.34,-93.49 106.51,-84.23"/>
<polygon fill="midnightblue" stroke="midnightblue" points="109.53,-86.01 112.17,-75.75 103.71,-82.13 109.53,-86.01"/>
</g>
<!-- Node17&#45;&gt;Node2 -->
<g id="edge16" class="edge">
<title>Node17&#45;&gt;Node2</title>
<path fill="none" stroke="midnightblue" d="M272.33,-173.98C288.66,-164.25 315.6,-148.23 334.91,-136.74"/>
<polygon fill="midnightblue" stroke="midnightblue" points="336.89,-139.63 343.7,-131.51 333.32,-133.61 336.89,-139.63"/>
</g>
<!-- Node17&#45;&gt;Node3 -->
<g id="edge17" class="edge">
<title>Node17&#45;&gt;Node3</title>
<path fill="none" stroke="midnightblue" d="M250.64,-173.91C243.02,-164.4 231.59,-148.24 227,-132 222.73,-116.88 223.1,-98.98 224.33,-85.8"/>
<polygon fill="midnightblue" stroke="midnightblue" points="227.84,-85.96 225.54,-75.62 220.89,-85.14 227.84,-85.96"/>
</g>
<!-- Node18 -->
<g id="node13" class="node">
<title>Node18</title>
<g id="a_node13"><a xlink:title=" ">
<polygon fill="white" stroke="#bfbfbf" points="236,-112.5 236,-131.5 280,-131.5 280,-112.5 236,-112.5"/>
<text text-anchor="middle" x="258" y="-119.5" font-family="Helvetica,sans-Serif" font-size="10.00">string</text>
</a>
</g>
</g>
<!-- Node17&#45;&gt;Node18 -->
<g id="edge18" class="edge">
<title>Node17&#45;&gt;Node18</title>
<path fill="none" stroke="midnightblue" d="M258,-173.98C258,-165.58 258,-152.48 258,-141.66"/>
<polygon fill="midnightblue" stroke="midnightblue" points="261.5,-141.51 258,-131.51 254.5,-141.51 261.5,-141.51"/>
</g>
<!-- Node19&#45;&gt;Node17 -->
<g id="edge20" class="edge">
<title>Node19&#45;&gt;Node17</title>
<path fill="none" stroke="midnightblue" d="M276.85,-235.48C273.68,-226.9 268.7,-213.43 264.65,-202.48"/>
<polygon fill="midnightblue" stroke="midnightblue" points="267.9,-201.17 261.15,-193.01 261.33,-203.6 267.9,-201.17"/>
</g>
</g>
</svg>
