<?xml version="1.0" encoding="UTF-8" standalone="no"?>
<!DOCTYPE svg PUBLIC "-//W3C//DTD SVG 1.1//EN"
 "http://www.w3.org/Graphics/SVG/1.1/DTD/svg11.dtd">
<!-- Generated by graphviz version 2.43.0 (0)
 -->
<!-- Title: include/emlabcpp/experimental/pretty_printer.h Pages: 1 -->
<svg width="763pt" height="207pt"
 viewBox="0.00 0.00 762.53 207.00" xmlns="http://www.w3.org/2000/svg" xmlns:xlink="http://www.w3.org/1999/xlink">
<g id="graph0" class="graph" transform="scale(1 1) rotate(0) translate(4 203)">
<title>include/emlabcpp/experimental/pretty_printer.h</title>
<polygon fill="white" stroke="transparent" points="-4,4 -4,-203 758.53,-203 758.53,4 -4,4"/>
<!-- Node1 -->
<g id="node1" class="node">
<title>Node1</title>
<g id="a_node1"><a xlink:title=" ">
<polygon fill="#bfbfbf" stroke="black" points="389.03,-168.5 389.03,-198.5 560.03,-198.5 560.03,-168.5 389.03,-168.5"/>
<text text-anchor="start" x="397.03" y="-186.5" font-family="Helvetica,sans-Serif" font-size="10.00">include/emlabcpp/experimental</text>
<text text-anchor="middle" x="474.53" y="-175.5" font-family="Helvetica,sans-Serif" font-size="10.00">/pretty_printer.h</text>
</a>
</g>
</g>
<!-- Node2 -->
<g id="node2" class="node">
<title>Node2</title>
<g id="a_node2"><a xlink:href="concepts_8h.html" target="_top" xlink:title=" ">
<polygon fill="white" stroke="black" points="321.53,-112.5 321.53,-131.5 441.53,-131.5 441.53,-112.5 321.53,-112.5"/>
<text text-anchor="middle" x="381.53" y="-119.5" font-family="Helvetica,sans-Serif" font-size="10.00">emlabcpp/concepts.h</text>
</a>
</g>
</g>
<!-- Node1&#45;&gt;Node2 -->
<g id="edge1" class="edge">
<title>Node1&#45;&gt;Node2</title>
<path fill="none" stroke="midnightblue" d="M452.49,-168.4C437.73,-158.95 418.36,-146.56 403.59,-137.11"/>
<polygon fill="midnightblue" stroke="midnightblue" points="405.38,-134.1 395.07,-131.66 401.6,-140 405.38,-134.1"/>
</g>
<!-- Node7 -->
<g id="node4" class="node">
<title>Node7</title>
<g id="a_node4"><a xlink:title=" ">
<polygon fill="white" stroke="#bfbfbf" points="41.03,-0.5 41.03,-19.5 82.03,-19.5 82.03,-0.5 41.03,-0.5"/>
<text text-anchor="middle" x="61.53" y="-7.5" font-family="Helvetica,sans-Serif" font-size="10.00">tuple</text>
</a>
</g>
</g>
<!-- Node1&#45;&gt;Node7 -->
<g id="edge14" class="edge">
<title>Node1&#45;&gt;Node7</title>
<path fill="none" stroke="midnightblue" d="M388.91,-180.95C310.75,-177.25 193.06,-165.86 96.53,-132 51.01,-116.03 27.27,-118 3.53,-76 -7.74,-56.04 14.66,-36.93 34.82,-24.66"/>
<polygon fill="midnightblue" stroke="midnightblue" points="36.57,-27.69 43.51,-19.68 33.09,-21.62 36.57,-27.69"/>
</g>
<!-- Node12 -->
<g id="node7" class="node">
<title>Node12</title>
<g id="a_node7"><a xlink:title=" ">
<polygon fill="white" stroke="#bfbfbf" points="411.03,-0.5 411.03,-19.5 462.03,-19.5 462.03,-0.5 411.03,-0.5"/>
<text text-anchor="middle" x="436.53" y="-7.5" font-family="Helvetica,sans-Serif" font-size="10.00">variant</text>
</a>
</g>
</g>
<!-- Node1&#45;&gt;Node12 -->
<g id="edge15" class="edge">
<title>Node1&#45;&gt;Node12</title>
<path fill="none" stroke="midnightblue" d="M471.42,-168.47C464.61,-137.7 448.35,-64.33 440.68,-29.7"/>
<polygon fill="midnightblue" stroke="midnightblue" points="444.01,-28.57 438.43,-19.56 437.18,-30.08 444.01,-28.57"/>
</g>
<!-- Node13 -->
<g id="node8" class="node">
<title>Node13</title>
<g id="a_node8"><a xlink:href="enum_8h.html" target="_top" xlink:title=" ">
<polygon fill="white" stroke="black" points="502.53,-112.5 502.53,-131.5 606.53,-131.5 606.53,-112.5 502.53,-112.5"/>
<text text-anchor="middle" x="554.53" y="-119.5" font-family="Helvetica,sans-Serif" font-size="10.00">emlabcpp/enum.h</text>
</a>
</g>
</g>
<!-- Node1&#45;&gt;Node13 -->
<g id="edge7" class="edge">
<title>Node1&#45;&gt;Node13</title>
<path fill="none" stroke="midnightblue" d="M493.49,-168.4C505.96,-159.13 522.23,-147.03 534.84,-137.65"/>
<polygon fill="midnightblue" stroke="midnightblue" points="536.96,-140.43 542.89,-131.66 532.78,-134.82 536.96,-140.43"/>
</g>
<!-- Node14 -->
<g id="node9" class="node">
<title>Node14</title>
<g id="a_node9"><a xlink:href="match_8h.html" target="_top" xlink:title=" ">
<polygon fill="white" stroke="black" points="105.03,-112.5 105.03,-131.5 212.03,-131.5 212.03,-112.5 105.03,-112.5"/>
<text text-anchor="middle" x="158.53" y="-119.5" font-family="Helvetica,sans-Serif" font-size="10.00">emlabcpp/match.h</text>
</a>
</g>
</g>
<!-- Node1&#45;&gt;Node14 -->
<g id="edge8" class="edge">
<title>Node1&#45;&gt;Node14</title>
<path fill="none" stroke="midnightblue" d="M400.05,-168.47C342.91,-157.72 265.33,-143.11 213.68,-133.38"/>
<polygon fill="midnightblue" stroke="midnightblue" points="214.19,-129.92 203.71,-131.51 212.89,-136.8 214.19,-129.92"/>
</g>
<!-- Node16 -->
<g id="node11" class="node">
<title>Node16</title>
<g id="a_node11"><a xlink:title=" ">
<polygon fill="white" stroke="#bfbfbf" points="624.53,-112.5 624.53,-131.5 680.53,-131.5 680.53,-112.5 624.53,-112.5"/>
<text text-anchor="middle" x="652.53" y="-119.5" font-family="Helvetica,sans-Serif" font-size="10.00">optional</text>
</a>
</g>
</g>
<!-- Node1&#45;&gt;Node16 -->
<g id="edge12" class="edge">
<title>Node1&#45;&gt;Node16</title>
<path fill="none" stroke="midnightblue" d="M516.72,-168.4C547.34,-158.16 588.3,-144.47 617.21,-134.81"/>
<polygon fill="midnightblue" stroke="midnightblue" points="618.52,-138.06 626.89,-131.57 616.3,-131.42 618.52,-138.06"/>
</g>
<!-- Node17 -->
<g id="node12" class="node">
<title>Node17</title>
<g id="a_node12"><a xlink:title=" ">
<polygon fill="white" stroke="#bfbfbf" points="698.53,-112.5 698.53,-131.5 754.53,-131.5 754.53,-112.5 698.53,-112.5"/>
<text text-anchor="middle" x="726.53" y="-119.5" font-family="Helvetica,sans-Serif" font-size="10.00">sstream</text>
</a>
</g>
</g>
<!-- Node1&#45;&gt;Node17 -->
<g id="edge13" class="edge">
<title>Node1&#45;&gt;Node17</title>
<path fill="none" stroke="midnightblue" d="M534.8,-168.48C575.56,-158.96 630.88,-145.99 688.28,-132.29"/>
<polygon fill="midnightblue" stroke="midnightblue" points="689.35,-135.63 698.26,-129.9 687.72,-128.82 689.35,-135.63"/>
</g>
<!-- Node3 -->
<g id="node3" class="node">
<title>Node3</title>
<g id="a_node3"><a xlink:href="types_2base_8h.html" target="_top" xlink:title=" ">
<polygon fill="white" stroke="red" points="128.53,-56.5 128.53,-75.5 258.53,-75.5 258.53,-56.5 128.53,-56.5"/>
<text text-anchor="middle" x="193.53" y="-63.5" font-family="Helvetica,sans-Serif" font-size="10.00">emlabcpp/types/base.h</text>
</a>
</g>
</g>
<!-- Node2&#45;&gt;Node3 -->
<g id="edge2" class="edge">
<title>Node2&#45;&gt;Node3</title>
<path fill="none" stroke="midnightblue" d="M351.74,-112.44C319.7,-103.24 268.6,-88.56 233.18,-78.39"/>
<polygon fill="midnightblue" stroke="midnightblue" points="233.76,-74.91 223.18,-75.52 231.83,-81.64 233.76,-74.91"/>
</g>
<!-- Node10 -->
<g id="node5" class="node">
<title>Node10</title>
<g id="a_node5"><a xlink:title=" ">
<polygon fill="white" stroke="#bfbfbf" points="276.53,-56.5 276.53,-75.5 336.53,-75.5 336.53,-56.5 276.53,-56.5"/>
<text text-anchor="middle" x="306.53" y="-63.5" font-family="Helvetica,sans-Serif" font-size="10.00">concepts</text>
</a>
</g>
</g>
<!-- Node2&#45;&gt;Node10 -->
<g id="edge4" class="edge">
<title>Node2&#45;&gt;Node10</title>
<path fill="none" stroke="midnightblue" d="M369.48,-112.32C358.07,-104.11 340.7,-91.6 327.1,-81.81"/>
<polygon fill="midnightblue" stroke="midnightblue" points="328.96,-78.84 318.8,-75.83 324.87,-84.52 328.96,-78.84"/>
</g>
<!-- Node11 -->
<g id="node6" class="node">
<title>Node11</title>
<g id="a_node6"><a xlink:title=" ">
<polygon fill="white" stroke="#bfbfbf" points="355.03,-56.5 355.03,-75.5 408.03,-75.5 408.03,-56.5 355.03,-56.5"/>
<text text-anchor="middle" x="381.53" y="-63.5" font-family="Helvetica,sans-Serif" font-size="10.00">iterator</text>
</a>
</g>
</g>
<!-- Node2&#45;&gt;Node11 -->
<g id="edge5" class="edge">
<title>Node2&#45;&gt;Node11</title>
<path fill="none" stroke="midnightblue" d="M381.53,-112.08C381.53,-105.01 381.53,-94.86 381.53,-85.99"/>
<polygon fill="midnightblue" stroke="midnightblue" points="385.03,-85.75 381.53,-75.75 378.03,-85.75 385.03,-85.75"/>
</g>
<!-- Node2&#45;&gt;Node12 -->
<g id="edge6" class="edge">
<title>Node2&#45;&gt;Node12</title>
<path fill="none" stroke="midnightblue" d="M390.12,-112.43C398.24,-103.88 410.24,-90.02 417.53,-76 425.16,-61.33 430.14,-43.16 433.08,-29.77"/>
<polygon fill="midnightblue" stroke="midnightblue" points="436.54,-30.31 435.09,-19.82 429.68,-28.93 436.54,-30.31"/>
</g>
<!-- Node3&#45;&gt;Node7 -->
<g id="edge3" class="edge">
<title>Node3&#45;&gt;Node7</title>
<path fill="none" stroke="midnightblue" d="M172.62,-56.44C150.8,-47.52 116.38,-33.44 91.64,-23.32"/>
<polygon fill="midnightblue" stroke="midnightblue" points="92.93,-20.06 82.35,-19.52 90.28,-26.54 92.93,-20.06"/>
</g>
<!-- Node15 -->
<g id="node10" class="node">
<title>Node15</title>
<g id="a_node10"><a xlink:href="visit_8h.html" target="_top" xlink:title=" ">
<polygon fill="white" stroke="black" points="12.53,-56.5 12.53,-75.5 110.53,-75.5 110.53,-56.5 12.53,-56.5"/>
<text text-anchor="middle" x="61.53" y="-63.5" font-family="Helvetica,sans-Serif" font-size="10.00">emlabcpp/visit.h</text>
</a>
</g>
</g>
<!-- Node14&#45;&gt;Node15 -->
<g id="edge9" class="edge">
<title>Node14&#45;&gt;Node15</title>
<path fill="none" stroke="midnightblue" d="M142.95,-112.32C127.53,-103.74 103.72,-90.49 85.82,-80.52"/>
<polygon fill="midnightblue" stroke="midnightblue" points="87.52,-77.46 77.08,-75.65 84.11,-83.58 87.52,-77.46"/>
</g>
<!-- Node15&#45;&gt;Node7 -->
<g id="edge10" class="edge">
<title>Node15&#45;&gt;Node7</title>
<path fill="none" stroke="midnightblue" d="M61.53,-56.08C61.53,-49.01 61.53,-38.86 61.53,-29.99"/>
<polygon fill="midnightblue" stroke="midnightblue" points="65.03,-29.75 61.53,-19.75 58.03,-29.75 65.03,-29.75"/>
</g>
<!-- Node15&#45;&gt;Node12 -->
<g id="edge11" class="edge">
<title>Node15&#45;&gt;Node12</title>
<path fill="none" stroke="midnightblue" d="M110.57,-57.34C113.61,-56.89 116.61,-56.43 119.53,-56 221.25,-40.89 341.49,-24.12 400.37,-15.98"/>
<polygon fill="midnightblue" stroke="midnightblue" points="401.2,-19.4 410.63,-14.56 400.25,-12.46 401.2,-19.4"/>
</g>
</g>
</svg>
