<?xml version="1.0" encoding="UTF-8" standalone="no"?>
<!DOCTYPE svg PUBLIC "-//W3C//DTD SVG 1.1//EN"
 "http://www.w3.org/Graphics/SVG/1.1/DTD/svg11.dtd">
<!-- Generated by graphviz version 2.43.0 (0)
 -->
<!-- Title: include/emlabcpp/experimental/pretty_printer.h Pages: 1 -->
<svg width="1098pt" height="330pt"
 viewBox="0.00 0.00 1097.50 330.00" xmlns="http://www.w3.org/2000/svg" xmlns:xlink="http://www.w3.org/1999/xlink">
<g id="graph0" class="graph" transform="scale(1 1) rotate(0) translate(4 326)">
<title>include/emlabcpp/experimental/pretty_printer.h</title>
<polygon fill="white" stroke="transparent" points="-4,4 -4,-326 1093.5,-326 1093.5,4 -4,4"/>
<!-- Node1 -->
<g id="node1" class="node">
<title>Node1</title>
<g id="a_node1"><a xlink:title=" ">
<polygon fill="#bfbfbf" stroke="black" points="439.5,-291.5 439.5,-321.5 610.5,-321.5 610.5,-291.5 439.5,-291.5"/>
<text text-anchor="start" x="447.5" y="-309.5" font-family="Helvetica,sans-Serif" font-size="10.00">include/emlabcpp/experimental</text>
<text text-anchor="middle" x="525" y="-298.5" font-family="Helvetica,sans-Serif" font-size="10.00">/pretty_printer.h</text>
</a>
</g>
</g>
<!-- Node2 -->
<g id="node2" class="node">
<title>Node2</title>
<g id="a_node2"><a xlink:href="concepts_8h.html" target="_top" xlink:title=" ">
<polygon fill="white" stroke="black" points="219,-112.5 219,-131.5 339,-131.5 339,-112.5 219,-112.5"/>
<text text-anchor="middle" x="279" y="-119.5" font-family="Helvetica,sans-Serif" font-size="10.00">emlabcpp/concepts.h</text>
</a>
</g>
</g>
<!-- Node1&#45;&gt;Node2 -->
<g id="edge1" class="edge">
<title>Node1&#45;&gt;Node2</title>
<path fill="none" stroke="midnightblue" d="M439.3,-294.54C388,-286.26 329.31,-273.2 311,-255 280.43,-224.61 277.2,-170.31 277.85,-141.75"/>
<polygon fill="midnightblue" stroke="midnightblue" points="281.36,-141.67 278.28,-131.53 274.37,-141.38 281.36,-141.67"/>
</g>
<!-- Node7 -->
<g id="node4" class="node">
<title>Node7</title>
<g id="a_node4"><a xlink:title=" ">
<polygon fill="white" stroke="#bfbfbf" points="464.5,-0.5 464.5,-19.5 505.5,-19.5 505.5,-0.5 464.5,-0.5"/>
<text text-anchor="middle" x="485" y="-7.5" font-family="Helvetica,sans-Serif" font-size="10.00">tuple</text>
</a>
</g>
</g>
<!-- Node1&#45;&gt;Node7 -->
<g id="edge30" class="edge">
<title>Node1&#45;&gt;Node7</title>
<path fill="none" stroke="midnightblue" d="M517.91,-291.39C511.33,-276.07 504.17,-251.57 516,-235 544.67,-194.86 592.33,-239.14 621,-199 629.01,-187.79 625.13,-181.15 621,-168 600.97,-104.2 538.6,-50.45 505.74,-25.67"/>
<polygon fill="midnightblue" stroke="midnightblue" points="507.81,-22.85 497.69,-19.73 503.66,-28.48 507.81,-22.85"/>
</g>
<!-- Node12 -->
<g id="node8" class="node">
<title>Node12</title>
<g id="a_node8"><a xlink:title=" ">
<polygon fill="white" stroke="#bfbfbf" points="367.5,-56.5 367.5,-75.5 418.5,-75.5 418.5,-56.5 367.5,-56.5"/>
<text text-anchor="middle" x="393" y="-63.5" font-family="Helvetica,sans-Serif" font-size="10.00">variant</text>
</a>
</g>
</g>
<!-- Node1&#45;&gt;Node12 -->
<g id="edge32" class="edge">
<title>Node1&#45;&gt;Node12</title>
<path fill="none" stroke="midnightblue" d="M475.24,-291.39C432.21,-276.25 372.7,-247.57 345,-199 338.17,-187.03 341.97,-181.44 345,-168 352.05,-136.73 369.97,-103.78 381.81,-84.33"/>
<polygon fill="midnightblue" stroke="midnightblue" points="384.87,-86.03 387.21,-75.7 378.94,-82.32 384.87,-86.03"/>
</g>
<!-- Node13 -->
<g id="node9" class="node">
<title>Node13</title>
<g id="a_node9"><a xlink:href="enum_8h.html" target="_top" xlink:title=" ">
<polygon fill="white" stroke="black" points="0,-174 0,-193 104,-193 104,-174 0,-174"/>
<text text-anchor="middle" x="52" y="-181" font-family="Helvetica,sans-Serif" font-size="10.00">emlabcpp/enum.h</text>
</a>
</g>
</g>
<!-- Node1&#45;&gt;Node13 -->
<g id="edge8" class="edge">
<title>Node1&#45;&gt;Node13</title>
<path fill="none" stroke="midnightblue" d="M439.36,-302.31C335.31,-297.19 166.86,-284.52 112,-255 89.52,-242.9 71.84,-218.68 61.66,-202.03"/>
<polygon fill="midnightblue" stroke="midnightblue" points="64.6,-200.14 56.55,-193.26 58.55,-203.66 64.6,-200.14"/>
</g>
<!-- Node14 -->
<g id="node10" class="node">
<title>Node14</title>
<g id="a_node10"><a xlink:href="decompose_8h.html" target="_top" xlink:title=" ">
<polygon fill="white" stroke="black" points="353.5,-168.5 353.5,-198.5 486.5,-198.5 486.5,-168.5 353.5,-168.5"/>
<text text-anchor="start" x="361.5" y="-186.5" font-family="Helvetica,sans-Serif" font-size="10.00">emlabcpp/experimental</text>
<text text-anchor="middle" x="420" y="-175.5" font-family="Helvetica,sans-Serif" font-size="10.00">/decompose.h</text>
</a>
</g>
</g>
<!-- Node1&#45;&gt;Node14 -->
<g id="edge10" class="edge">
<title>Node1&#45;&gt;Node14</title>
<path fill="none" stroke="midnightblue" d="M509.73,-291.43C499.3,-281.57 485.36,-267.91 474,-255 460.42,-239.57 446.33,-221.09 435.96,-206.92"/>
<polygon fill="midnightblue" stroke="midnightblue" points="438.72,-204.77 430.01,-198.72 433.05,-208.87 438.72,-204.77"/>
</g>
<!-- Node15 -->
<g id="node11" class="node">
<title>Node15</title>
<g id="a_node11"><a xlink:href="match_8h.html" target="_top" xlink:title=" ">
<polygon fill="white" stroke="black" points="504.5,-174 504.5,-193 611.5,-193 611.5,-174 504.5,-174"/>
<text text-anchor="middle" x="558" y="-181" font-family="Helvetica,sans-Serif" font-size="10.00">emlabcpp/match.h</text>
</a>
</g>
</g>
<!-- Node1&#45;&gt;Node15 -->
<g id="edge13" class="edge">
<title>Node1&#45;&gt;Node15</title>
<path fill="none" stroke="midnightblue" d="M506.52,-291.46C490.42,-277.42 471.23,-255.09 482,-235 491.2,-217.84 509.08,-205.52 525.18,-197.35"/>
<polygon fill="midnightblue" stroke="midnightblue" points="526.83,-200.44 534.38,-193.01 523.85,-194.11 526.83,-200.44"/>
</g>
<!-- Node17 -->
<g id="node13" class="node">
<title>Node17</title>
<g id="a_node13"><a xlink:href="types_8h.html" target="_top" xlink:title=" ">
<polygon fill="white" stroke="black" points="127,-174 127,-193 231,-193 231,-174 127,-174"/>
<text text-anchor="middle" x="179" y="-181" font-family="Helvetica,sans-Serif" font-size="10.00">emlabcpp/types.h</text>
</a>
</g>
</g>
<!-- Node1&#45;&gt;Node17 -->
<g id="edge17" class="edge">
<title>Node1&#45;&gt;Node17</title>
<path fill="none" stroke="midnightblue" d="M439.27,-297.9C389.12,-291.14 325.54,-278.5 273,-255 242.92,-241.54 213.36,-216.99 195.66,-200.71"/>
<polygon fill="midnightblue" stroke="midnightblue" points="197.64,-197.77 187.96,-193.47 192.84,-202.87 197.64,-197.77"/>
</g>
<!-- Node19 -->
<g id="node15" class="node">
<title>Node19</title>
<g id="a_node15"><a xlink:href="view_8h.html" target="_top" xlink:title=" ">
<polygon fill="white" stroke="black" points="121.5,-235.5 121.5,-254.5 220.5,-254.5 220.5,-235.5 121.5,-235.5"/>
<text text-anchor="middle" x="171" y="-242.5" font-family="Helvetica,sans-Serif" font-size="10.00">emlabcpp/view.h</text>
</a>
</g>
</g>
<!-- Node1&#45;&gt;Node19 -->
<g id="edge21" class="edge">
<title>Node1&#45;&gt;Node19</title>
<path fill="none" stroke="midnightblue" d="M441.56,-291.47C376.76,-280.58 288.5,-265.75 230.66,-256.03"/>
<polygon fill="midnightblue" stroke="midnightblue" points="231.03,-252.54 220.58,-254.33 229.86,-259.44 231.03,-252.54"/>
</g>
<!-- Node20 -->
<g id="node16" class="node">
<title>Node20</title>
<g id="a_node16"><a xlink:title=" ">
<polygon fill="white" stroke="#bfbfbf" points="524.5,-235.5 524.5,-254.5 585.5,-254.5 585.5,-235.5 524.5,-235.5"/>
<text text-anchor="middle" x="555" y="-242.5" font-family="Helvetica,sans-Serif" font-size="10.00">charconv</text>
</a>
</g>
</g>
<!-- Node1&#45;&gt;Node20 -->
<g id="edge23" class="edge">
<title>Node1&#45;&gt;Node20</title>
<path fill="none" stroke="midnightblue" d="M532.11,-291.4C536.29,-283.11 541.61,-272.55 546.07,-263.71"/>
<polygon fill="midnightblue" stroke="midnightblue" points="549.26,-265.16 550.63,-254.66 543.01,-262.01 549.26,-265.16"/>
</g>
<!-- Node21 -->
<g id="node17" class="node">
<title>Node21</title>
<g id="a_node17"><a xlink:title=" ">
<polygon fill="white" stroke="#bfbfbf" points="604,-235.5 604,-254.5 654,-254.5 654,-235.5 604,-235.5"/>
<text text-anchor="middle" x="629" y="-242.5" font-family="Helvetica,sans-Serif" font-size="10.00">chrono</text>
</a>
</g>
</g>
<!-- Node1&#45;&gt;Node21 -->
<g id="edge24" class="edge">
<title>Node1&#45;&gt;Node21</title>
<path fill="none" stroke="midnightblue" d="M549.65,-291.4C566.32,-281.86 588.23,-269.32 604.81,-259.84"/>
<polygon fill="midnightblue" stroke="midnightblue" points="606.93,-262.66 613.87,-254.66 603.45,-256.59 606.93,-262.66"/>
</g>
<!-- Node22 -->
<g id="node18" class="node">
<title>Node22</title>
<g id="a_node18"><a xlink:title=" ">
<polygon fill="white" stroke="#bfbfbf" points="672,-235.5 672,-254.5 740,-254.5 740,-235.5 672,-235.5"/>
<text text-anchor="middle" x="706" y="-242.5" font-family="Helvetica,sans-Serif" font-size="10.00">filesystem</text>
</a>
</g>
</g>
<!-- Node1&#45;&gt;Node22 -->
<g id="edge25" class="edge">
<title>Node1&#45;&gt;Node22</title>
<path fill="none" stroke="midnightblue" d="M567.89,-291.4C599.03,-281.16 640.69,-267.47 670.08,-257.81"/>
<polygon fill="midnightblue" stroke="midnightblue" points="671.52,-261.02 679.93,-254.57 669.33,-254.37 671.52,-261.02"/>
</g>
<!-- Node23 -->
<g id="node19" class="node">
<title>Node23</title>
<g id="a_node19"><a xlink:title=" ">
<polygon fill="white" stroke="#bfbfbf" points="758,-235.5 758,-254.5 796,-254.5 796,-235.5 758,-235.5"/>
<text text-anchor="middle" x="777" y="-242.5" font-family="Helvetica,sans-Serif" font-size="10.00">map</text>
</a>
</g>
</g>
<!-- Node1&#45;&gt;Node23 -->
<g id="edge26" class="edge">
<title>Node1&#45;&gt;Node23</title>
<path fill="none" stroke="midnightblue" d="M594.52,-291.5C636.52,-282.65 691.28,-270.43 747.94,-255.11"/>
<polygon fill="midnightblue" stroke="midnightblue" points="749.06,-258.44 757.79,-252.42 747.22,-251.68 749.06,-258.44"/>
</g>
<!-- Node24 -->
<g id="node20" class="node">
<title>Node24</title>
<g id="a_node20"><a xlink:title=" ">
<polygon fill="white" stroke="#bfbfbf" points="814,-235.5 814,-254.5 870,-254.5 870,-235.5 814,-235.5"/>
<text text-anchor="middle" x="842" y="-242.5" font-family="Helvetica,sans-Serif" font-size="10.00">optional</text>
</a>
</g>
</g>
<!-- Node1&#45;&gt;Node24 -->
<g id="edge27" class="edge">
<title>Node1&#45;&gt;Node24</title>
<path fill="none" stroke="midnightblue" d="M610.42,-291.47C663.52,-282.42 733.39,-269.94 803.82,-255.16"/>
<polygon fill="midnightblue" stroke="midnightblue" points="804.7,-258.55 813.76,-253.05 803.25,-251.7 804.7,-258.55"/>
</g>
<!-- Node25 -->
<g id="node21" class="node">
<title>Node25</title>
<g id="a_node21"><a xlink:title=" ">
<polygon fill="white" stroke="#bfbfbf" points="888,-235.5 888,-254.5 920,-254.5 920,-235.5 888,-235.5"/>
<text text-anchor="middle" x="904" y="-242.5" font-family="Helvetica,sans-Serif" font-size="10.00">set</text>
</a>
</g>
</g>
<!-- Node1&#45;&gt;Node25 -->
<g id="edge28" class="edge">
<title>Node1&#45;&gt;Node25</title>
<path fill="none" stroke="midnightblue" d="M610.7,-298.21C680.58,-291.14 781.79,-278.31 877.86,-254.85"/>
<polygon fill="midnightblue" stroke="midnightblue" points="878.88,-258.2 887.74,-252.39 877.19,-251.41 878.88,-258.2"/>
</g>
<!-- Node26 -->
<g id="node22" class="node">
<title>Node26</title>
<g id="a_node22"><a xlink:title=" ">
<polygon fill="white" stroke="#bfbfbf" points="938,-235.5 938,-254.5 978,-254.5 978,-235.5 938,-235.5"/>
<text text-anchor="middle" x="958" y="-242.5" font-family="Helvetica,sans-Serif" font-size="10.00">span</text>
</a>
</g>
</g>
<!-- Node1&#45;&gt;Node26 -->
<g id="edge29" class="edge">
<title>Node1&#45;&gt;Node26</title>
<path fill="none" stroke="midnightblue" d="M610.86,-299.19C690.82,-292.31 813.35,-279.19 927.85,-254.91"/>
<polygon fill="midnightblue" stroke="midnightblue" points="928.8,-258.28 937.84,-252.76 927.33,-251.44 928.8,-258.28"/>
</g>
<!-- Node27 -->
<g id="node23" class="node">
<title>Node27</title>
<g id="a_node23"><a xlink:title=" ">
<polygon fill="white" stroke="#bfbfbf" points="996.5,-235.5 996.5,-254.5 1089.5,-254.5 1089.5,-235.5 996.5,-235.5"/>
<text text-anchor="middle" x="1043" y="-242.5" font-family="Helvetica,sans-Serif" font-size="10.00">unordered_map</text>
</a>
</g>
</g>
<!-- Node1&#45;&gt;Node27 -->
<g id="edge31" class="edge">
<title>Node1&#45;&gt;Node27</title>
<path fill="none" stroke="midnightblue" d="M610.73,-297.44C701.34,-288.62 848.65,-273.43 985.98,-255.07"/>
<polygon fill="midnightblue" stroke="midnightblue" points="986.83,-258.49 996.28,-253.69 985.9,-251.55 986.83,-258.49"/>
</g>
<!-- Node3 -->
<g id="node3" class="node">
<title>Node3</title>
<g id="a_node3"><a xlink:href="types_2base_8h.html" target="_top" xlink:title=" ">
<polygon fill="white" stroke="red" points="70,-56.5 70,-75.5 200,-75.5 200,-56.5 70,-56.5"/>
<text text-anchor="middle" x="135" y="-63.5" font-family="Helvetica,sans-Serif" font-size="10.00">emlabcpp/types/base.h</text>
</a>
</g>
</g>
<!-- Node2&#45;&gt;Node3 -->
<g id="edge2" class="edge">
<title>Node2&#45;&gt;Node3</title>
<path fill="none" stroke="midnightblue" d="M256.18,-112.44C232.17,-103.44 194.17,-89.19 167.13,-79.05"/>
<polygon fill="midnightblue" stroke="midnightblue" points="168.3,-75.75 157.71,-75.52 165.84,-82.3 168.3,-75.75"/>
</g>
<!-- Node10 -->
<g id="node6" class="node">
<title>Node10</title>
<g id="a_node6"><a xlink:title=" ">
<polygon fill="white" stroke="#bfbfbf" points="218,-56.5 218,-75.5 278,-75.5 278,-56.5 218,-56.5"/>
<text text-anchor="middle" x="248" y="-63.5" font-family="Helvetica,sans-Serif" font-size="10.00">concepts</text>
</a>
</g>
</g>
<!-- Node2&#45;&gt;Node10 -->
<g id="edge5" class="edge">
<title>Node2&#45;&gt;Node10</title>
<path fill="none" stroke="midnightblue" d="M273.88,-112.08C269.59,-104.61 263.34,-93.72 258.06,-84.52"/>
<polygon fill="midnightblue" stroke="midnightblue" points="261.04,-82.68 253.02,-75.75 254.97,-86.17 261.04,-82.68"/>
</g>
<!-- Node11 -->
<g id="node7" class="node">
<title>Node11</title>
<g id="a_node7"><a xlink:title=" ">
<polygon fill="white" stroke="#bfbfbf" points="296.5,-56.5 296.5,-75.5 349.5,-75.5 349.5,-56.5 296.5,-56.5"/>
<text text-anchor="middle" x="323" y="-63.5" font-family="Helvetica,sans-Serif" font-size="10.00">iterator</text>
</a>
</g>
</g>
<!-- Node2&#45;&gt;Node11 -->
<g id="edge6" class="edge">
<title>Node2&#45;&gt;Node11</title>
<path fill="none" stroke="midnightblue" d="M286.27,-112.08C292.54,-104.38 301.79,-93.03 309.43,-83.65"/>
<polygon fill="midnightblue" stroke="midnightblue" points="312.27,-85.71 315.87,-75.75 306.84,-81.29 312.27,-85.71"/>
</g>
<!-- Node2&#45;&gt;Node12 -->
<g id="edge7" class="edge">
<title>Node2&#45;&gt;Node12</title>
<path fill="none" stroke="midnightblue" d="M297.06,-112.44C315.57,-103.68 344.58,-89.94 365.86,-79.86"/>
<polygon fill="midnightblue" stroke="midnightblue" points="367.48,-82.96 375.02,-75.52 364.49,-76.63 367.48,-82.96"/>
</g>
<!-- Node3&#45;&gt;Node7 -->
<g id="edge3" class="edge">
<title>Node3&#45;&gt;Node7</title>
<path fill="none" stroke="midnightblue" d="M190.46,-56.44C265.04,-44.94 395.11,-24.87 454.21,-15.75"/>
<polygon fill="midnightblue" stroke="midnightblue" points="455.04,-19.16 464.39,-14.18 453.97,-12.25 455.04,-19.16"/>
</g>
<!-- Node8 -->
<g id="node5" class="node">
<title>Node8</title>
<g id="a_node5"><a xlink:title=" ">
<polygon fill="white" stroke="#bfbfbf" points="54.5,-0.5 54.5,-19.5 123.5,-19.5 123.5,-0.5 54.5,-0.5"/>
<text text-anchor="middle" x="89" y="-7.5" font-family="Helvetica,sans-Serif" font-size="10.00">type_traits</text>
</a>
</g>
</g>
<!-- Node3&#45;&gt;Node8 -->
<g id="edge4" class="edge">
<title>Node3&#45;&gt;Node8</title>
<path fill="none" stroke="midnightblue" d="M127.4,-56.08C120.77,-48.3 110.98,-36.8 102.94,-27.37"/>
<polygon fill="midnightblue" stroke="midnightblue" points="105.6,-25.09 96.45,-19.75 100.27,-29.63 105.6,-25.09"/>
</g>
<!-- Node13&#45;&gt;Node8 -->
<g id="edge9" class="edge">
<title>Node13&#45;&gt;Node8</title>
<path fill="none" stroke="midnightblue" d="M51.22,-173.95C49.63,-153.15 47.2,-98.51 61,-56 64.26,-45.95 70.23,-35.87 75.82,-27.8"/>
<polygon fill="midnightblue" stroke="midnightblue" points="78.7,-29.79 81.8,-19.66 73.06,-25.64 78.7,-29.79"/>
</g>
<!-- Node14&#45;&gt;Node2 -->
<g id="edge11" class="edge">
<title>Node14&#45;&gt;Node2</title>
<path fill="none" stroke="midnightblue" d="M386.58,-168.4C363.03,-158.46 331.76,-145.26 309.01,-135.66"/>
<polygon fill="midnightblue" stroke="midnightblue" points="310.09,-132.32 299.52,-131.66 307.37,-138.77 310.09,-132.32"/>
</g>
<!-- Node14&#45;&gt;Node7 -->
<g id="edge12" class="edge">
<title>Node14&#45;&gt;Node7</title>
<path fill="none" stroke="midnightblue" d="M425.32,-168.47C437.03,-137.57 465.03,-63.69 478.08,-29.25"/>
<polygon fill="midnightblue" stroke="midnightblue" points="481.48,-30.15 481.76,-19.56 474.94,-27.67 481.48,-30.15"/>
</g>
<!-- Node16 -->
<g id="node12" class="node">
<title>Node16</title>
<g id="a_node12"><a xlink:href="visit_8h.html" target="_top" xlink:title=" ">
<polygon fill="white" stroke="black" points="475,-112.5 475,-131.5 573,-131.5 573,-112.5 475,-112.5"/>
<text text-anchor="middle" x="524" y="-119.5" font-family="Helvetica,sans-Serif" font-size="10.00">emlabcpp/visit.h</text>
</a>
</g>
</g>
<!-- Node15&#45;&gt;Node16 -->
<g id="edge14" class="edge">
<title>Node15&#45;&gt;Node16</title>
<path fill="none" stroke="midnightblue" d="M553.13,-173.98C548.13,-165.23 540.21,-151.37 533.89,-140.31"/>
<polygon fill="midnightblue" stroke="midnightblue" points="536.86,-138.46 528.86,-131.51 530.78,-141.93 536.86,-138.46"/>
</g>
<!-- Node16&#45;&gt;Node7 -->
<g id="edge15" class="edge">
<title>Node16&#45;&gt;Node7</title>
<path fill="none" stroke="midnightblue" d="M520.94,-112.37C514.62,-94.54 500,-53.3 491.48,-29.27"/>
<polygon fill="midnightblue" stroke="midnightblue" points="494.69,-27.85 488.05,-19.59 488.09,-30.19 494.69,-27.85"/>
</g>
<!-- Node16&#45;&gt;Node12 -->
<g id="edge16" class="edge">
<title>Node16&#45;&gt;Node12</title>
<path fill="none" stroke="midnightblue" d="M503.24,-112.44C481.68,-103.56 447.74,-89.56 423.21,-79.45"/>
<polygon fill="midnightblue" stroke="midnightblue" points="424.24,-76.09 413.66,-75.52 421.57,-82.56 424.24,-76.09"/>
</g>
<!-- Node17&#45;&gt;Node2 -->
<g id="edge18" class="edge">
<title>Node17&#45;&gt;Node2</title>
<path fill="none" stroke="midnightblue" d="M193.33,-173.98C209.66,-164.25 236.6,-148.23 255.91,-136.74"/>
<polygon fill="midnightblue" stroke="midnightblue" points="257.89,-139.63 264.7,-131.51 254.32,-133.61 257.89,-139.63"/>
</g>
<!-- Node17&#45;&gt;Node3 -->
<g id="edge19" class="edge">
<title>Node17&#45;&gt;Node3</title>
<path fill="none" stroke="midnightblue" d="M172.25,-173.71C165.15,-164.01 154.16,-147.71 148,-132 142.15,-117.09 138.82,-99.17 136.99,-85.93"/>
<polygon fill="midnightblue" stroke="midnightblue" points="140.43,-85.19 135.76,-75.69 133.48,-86.03 140.43,-85.19"/>
</g>
<!-- Node18 -->
<g id="node14" class="node">
<title>Node18</title>
<g id="a_node14"><a xlink:title=" ">
<polygon fill="white" stroke="#bfbfbf" points="157,-112.5 157,-131.5 201,-131.5 201,-112.5 157,-112.5"/>
<text text-anchor="middle" x="179" y="-119.5" font-family="Helvetica,sans-Serif" font-size="10.00">string</text>
</a>
</g>
</g>
<!-- Node17&#45;&gt;Node18 -->
<g id="edge20" class="edge">
<title>Node17&#45;&gt;Node18</title>
<path fill="none" stroke="midnightblue" d="M179,-173.98C179,-165.58 179,-152.48 179,-141.66"/>
<polygon fill="midnightblue" stroke="midnightblue" points="182.5,-141.51 179,-131.51 175.5,-141.51 182.5,-141.51"/>
</g>
<!-- Node19&#45;&gt;Node17 -->
<g id="edge22" class="edge">
<title>Node19&#45;&gt;Node17</title>
<path fill="none" stroke="midnightblue" d="M172.15,-235.48C173.27,-227.08 175.04,-213.98 176.49,-203.16"/>
<polygon fill="midnightblue" stroke="midnightblue" points="179.99,-203.39 177.86,-193.01 173.05,-202.45 179.99,-203.39"/>
</g>
</g>
</svg>
