<?xml version="1.0" encoding="UTF-8" standalone="no"?>
<!DOCTYPE svg PUBLIC "-//W3C//DTD SVG 1.1//EN"
 "http://www.w3.org/Graphics/SVG/1.1/DTD/svg11.dtd">
<!-- Generated by graphviz version 2.43.0 (0)
 -->
<!-- Title: include/emlabcpp/experimental/pretty_printer.h Pages: 1 -->
<svg width="1430pt" height="330pt"
 viewBox="0.00 0.00 1429.50 330.00" xmlns="http://www.w3.org/2000/svg" xmlns:xlink="http://www.w3.org/1999/xlink">
<g id="graph0" class="graph" transform="scale(1 1) rotate(0) translate(4 326)">
<title>include/emlabcpp/experimental/pretty_printer.h</title>
<polygon fill="white" stroke="transparent" points="-4,4 -4,-326 1425.5,-326 1425.5,4 -4,4"/>
<!-- Node1 -->
<g id="node1" class="node">
<title>Node1</title>
<g id="a_node1"><a xlink:title=" ">
<polygon fill="#bfbfbf" stroke="black" points="565.5,-291.5 565.5,-321.5 736.5,-321.5 736.5,-291.5 565.5,-291.5"/>
<text text-anchor="start" x="573.5" y="-309.5" font-family="Helvetica,sans-Serif" font-size="10.00">include/emlabcpp/experimental</text>
<text text-anchor="middle" x="651" y="-298.5" font-family="Helvetica,sans-Serif" font-size="10.00">/pretty_printer.h</text>
</a>
</g>
</g>
<!-- Node2 -->
<g id="node2" class="node">
<title>Node2</title>
<g id="a_node2"><a xlink:href="concepts_8h.html" target="_top" xlink:title=" ">
<polygon fill="white" stroke="black" points="195,-112.5 195,-131.5 315,-131.5 315,-112.5 195,-112.5"/>
<text text-anchor="middle" x="255" y="-119.5" font-family="Helvetica,sans-Serif" font-size="10.00">emlabcpp/concepts.h</text>
</a>
</g>
</g>
<!-- Node1&#45;&gt;Node2 -->
<g id="edge1" class="edge">
<title>Node1&#45;&gt;Node2</title>
<path fill="none" stroke="midnightblue" d="M565.45,-297.81C451.02,-285.41 258.16,-256.37 221,-199 208.55,-179.78 224.52,-155.25 238.51,-139.34"/>
<polygon fill="midnightblue" stroke="midnightblue" points="241.21,-141.57 245.49,-131.88 236.1,-136.79 241.21,-141.57"/>
</g>
<!-- Node7 -->
<g id="node5" class="node">
<title>Node7</title>
<g id="a_node5"><a xlink:title=" ">
<polygon fill="white" stroke="#bfbfbf" points="194.5,-0.5 194.5,-19.5 235.5,-19.5 235.5,-0.5 194.5,-0.5"/>
<text text-anchor="middle" x="215" y="-7.5" font-family="Helvetica,sans-Serif" font-size="10.00">tuple</text>
</a>
</g>
</g>
<!-- Node1&#45;&gt;Node7 -->
<g id="edge37" class="edge">
<title>Node1&#45;&gt;Node7</title>
<path fill="none" stroke="midnightblue" d="M565.49,-301.75C436.63,-295.35 199.13,-280.51 118,-255 59.72,-236.68 0,-245.59 0,-184.5 0,-184.5 0,-184.5 0,-121 0,-39.29 124.58,-18.24 184.08,-12.84"/>
<polygon fill="midnightblue" stroke="midnightblue" points="184.7,-16.31 194.38,-12.01 184.13,-9.33 184.7,-16.31"/>
</g>
<!-- Node12 -->
<g id="node9" class="node">
<title>Node12</title>
<g id="a_node9"><a xlink:title=" ">
<polygon fill="white" stroke="#bfbfbf" points="114.5,-56.5 114.5,-75.5 165.5,-75.5 165.5,-56.5 114.5,-56.5"/>
<text text-anchor="middle" x="140" y="-63.5" font-family="Helvetica,sans-Serif" font-size="10.00">variant</text>
</a>
</g>
</g>
<!-- Node1&#45;&gt;Node12 -->
<g id="edge39" class="edge">
<title>Node1&#45;&gt;Node12</title>
<path fill="none" stroke="midnightblue" d="M565.17,-300.45C469.15,-293.7 320.44,-279.63 270,-255 198.79,-220.24 159.57,-125.31 145.77,-85.24"/>
<polygon fill="midnightblue" stroke="midnightblue" points="149.07,-84.08 142.6,-75.69 142.42,-86.28 149.07,-84.08"/>
</g>
<!-- Node13 -->
<g id="node10" class="node">
<title>Node13</title>
<g id="a_node10"><a xlink:href="enum_8h.html" target="_top" xlink:title=" ">
<polygon fill="white" stroke="black" points="477,-112.5 477,-131.5 581,-131.5 581,-112.5 477,-112.5"/>
<text text-anchor="middle" x="529" y="-119.5" font-family="Helvetica,sans-Serif" font-size="10.00">emlabcpp/enum.h</text>
</a>
</g>
</g>
<!-- Node1&#45;&gt;Node13 -->
<g id="edge9" class="edge">
<title>Node1&#45;&gt;Node13</title>
<path fill="none" stroke="midnightblue" d="M623.77,-291.47C609.23,-282.74 592.1,-270.27 581,-255 557.11,-222.14 568.84,-205.4 553,-168 549.07,-158.73 543.9,-148.81 539.36,-140.65"/>
<polygon fill="midnightblue" stroke="midnightblue" points="542.26,-138.68 534.26,-131.74 536.18,-142.15 542.26,-138.68"/>
</g>
<!-- Node14 -->
<g id="node11" class="node">
<title>Node14</title>
<g id="a_node11"><a xlink:href="decompose_8h.html" target="_top" xlink:title=" ">
<polygon fill="white" stroke="black" points="230.5,-168.5 230.5,-198.5 363.5,-198.5 363.5,-168.5 230.5,-168.5"/>
<text text-anchor="start" x="238.5" y="-186.5" font-family="Helvetica,sans-Serif" font-size="10.00">emlabcpp/experimental</text>
<text text-anchor="middle" x="297" y="-175.5" font-family="Helvetica,sans-Serif" font-size="10.00">/decompose.h</text>
</a>
</g>
</g>
<!-- Node1&#45;&gt;Node14 -->
<g id="edge11" class="edge">
<title>Node1&#45;&gt;Node14</title>
<path fill="none" stroke="midnightblue" d="M565.33,-301.1C509.92,-295.53 437.47,-283.02 379,-255 354.41,-243.22 331.33,-222.11 315.96,-206.06"/>
<polygon fill="midnightblue" stroke="midnightblue" points="318.43,-203.58 309.06,-198.64 313.31,-208.35 318.43,-203.58"/>
</g>
<!-- Node15 -->
<g id="node12" class="node">
<title>Node15</title>
<g id="a_node12"><a xlink:href="match_8h.html" target="_top" xlink:title=" ">
<polygon fill="white" stroke="black" points="28.5,-174 28.5,-193 135.5,-193 135.5,-174 28.5,-174"/>
<text text-anchor="middle" x="82" y="-181" font-family="Helvetica,sans-Serif" font-size="10.00">emlabcpp/match.h</text>
</a>
</g>
</g>
<!-- Node1&#45;&gt;Node15 -->
<g id="edge14" class="edge">
<title>Node1&#45;&gt;Node15</title>
<path fill="none" stroke="midnightblue" d="M565.26,-303.93C441.84,-300.47 221.12,-289.53 150,-255 125.48,-243.09 105,-218.45 93.12,-201.7"/>
<polygon fill="midnightblue" stroke="midnightblue" points="95.95,-199.63 87.43,-193.33 90.16,-203.57 95.95,-199.63"/>
</g>
<!-- Node20 -->
<g id="node14" class="node">
<title>Node20</title>
<g id="a_node14"><a xlink:href="min__max_8h.html" target="_top" xlink:title=" ">
<polygon fill="white" stroke="black" points="590,-235.5 590,-254.5 712,-254.5 712,-235.5 590,-235.5"/>
<text text-anchor="middle" x="651" y="-242.5" font-family="Helvetica,sans-Serif" font-size="10.00">emlabcpp/min_max.h</text>
</a>
</g>
</g>
<!-- Node1&#45;&gt;Node20 -->
<g id="edge18" class="edge">
<title>Node1&#45;&gt;Node20</title>
<path fill="none" stroke="midnightblue" d="M651,-291.4C651,-283.47 651,-273.46 651,-264.86"/>
<polygon fill="midnightblue" stroke="midnightblue" points="654.5,-264.66 651,-254.66 647.5,-264.66 654.5,-264.66"/>
</g>
<!-- Node22 -->
<g id="node16" class="node">
<title>Node22</title>
<g id="a_node16"><a xlink:href="range_8h.html" target="_top" xlink:title=" ">
<polygon fill="white" stroke="black" points="730,-235.5 730,-254.5 834,-254.5 834,-235.5 730,-235.5"/>
<text text-anchor="middle" x="782" y="-242.5" font-family="Helvetica,sans-Serif" font-size="10.00">emlabcpp/range.h</text>
</a>
</g>
</g>
<!-- Node1&#45;&gt;Node22 -->
<g id="edge21" class="edge">
<title>Node1&#45;&gt;Node22</title>
<path fill="none" stroke="midnightblue" d="M682.05,-291.4C703.73,-281.55 732.46,-268.5 753.55,-258.92"/>
<polygon fill="midnightblue" stroke="midnightblue" points="755.28,-261.98 762.94,-254.66 752.39,-255.61 755.28,-261.98"/>
</g>
<!-- Node18 -->
<g id="node18" class="node">
<title>Node18</title>
<g id="a_node18"><a xlink:href="types_8h.html" target="_top" xlink:title=" ">
<polygon fill="white" stroke="red" points="382,-174 382,-193 486,-193 486,-174 382,-174"/>
<text text-anchor="middle" x="434" y="-181" font-family="Helvetica,sans-Serif" font-size="10.00">emlabcpp/types.h</text>
</a>
</g>
</g>
<!-- Node1&#45;&gt;Node18 -->
<g id="edge23" class="edge">
<title>Node1&#45;&gt;Node18</title>
<path fill="none" stroke="midnightblue" d="M565.19,-300.66C496.98,-294.8 409.41,-282.11 387,-255 372.04,-236.91 393.99,-213.98 412.65,-199.28"/>
<polygon fill="midnightblue" stroke="midnightblue" points="414.93,-201.94 420.84,-193.14 410.74,-196.33 414.93,-201.94"/>
</g>
<!-- Node25 -->
<g id="node19" class="node">
<title>Node25</title>
<g id="a_node19"><a xlink:href="view_8h.html" target="_top" xlink:title=" ">
<polygon fill="white" stroke="black" points="396.5,-235.5 396.5,-254.5 495.5,-254.5 495.5,-235.5 396.5,-235.5"/>
<text text-anchor="middle" x="446" y="-242.5" font-family="Helvetica,sans-Serif" font-size="10.00">emlabcpp/view.h</text>
</a>
</g>
</g>
<!-- Node1&#45;&gt;Node25 -->
<g id="edge26" class="edge">
<title>Node1&#45;&gt;Node25</title>
<path fill="none" stroke="midnightblue" d="M602.68,-291.47C566.85,-281.08 518.62,-267.08 485.18,-257.37"/>
<polygon fill="midnightblue" stroke="midnightblue" points="485.89,-253.93 475.31,-254.51 483.94,-260.66 485.89,-253.93"/>
</g>
<!-- Node26 -->
<g id="node20" class="node">
<title>Node26</title>
<g id="a_node20"><a xlink:title=" ">
<polygon fill="white" stroke="#bfbfbf" points="504,-174 504,-193 544,-193 544,-174 504,-174"/>
<text text-anchor="middle" x="524" y="-181" font-family="Helvetica,sans-Serif" font-size="10.00">span</text>
</a>
</g>
</g>
<!-- Node1&#45;&gt;Node26 -->
<g id="edge36" class="edge">
<title>Node1&#45;&gt;Node26</title>
<path fill="none" stroke="midnightblue" d="M603.88,-291.44C584.29,-283.51 562.73,-271.75 548,-255 535.22,-240.47 529.18,-218.83 526.37,-203.36"/>
<polygon fill="midnightblue" stroke="midnightblue" points="529.81,-202.74 524.84,-193.38 522.89,-203.8 529.81,-202.74"/>
</g>
<!-- Node27 -->
<g id="node21" class="node">
<title>Node27</title>
<g id="a_node21"><a xlink:title=" ">
<polygon fill="white" stroke="#bfbfbf" points="852,-235.5 852,-254.5 896,-254.5 896,-235.5 852,-235.5"/>
<text text-anchor="middle" x="874" y="-242.5" font-family="Helvetica,sans-Serif" font-size="10.00">bitset</text>
</a>
</g>
</g>
<!-- Node1&#45;&gt;Node27 -->
<g id="edge29" class="edge">
<title>Node1&#45;&gt;Node27</title>
<path fill="none" stroke="midnightblue" d="M706.14,-291.39C742.24,-282.07 790.69,-269.38 841.76,-255.3"/>
<polygon fill="midnightblue" stroke="midnightblue" points="842.96,-258.6 851.67,-252.56 841.1,-251.85 842.96,-258.6"/>
</g>
<!-- Node28 -->
<g id="node22" class="node">
<title>Node28</title>
<g id="a_node22"><a xlink:title=" ">
<polygon fill="white" stroke="#bfbfbf" points="914.5,-235.5 914.5,-254.5 975.5,-254.5 975.5,-235.5 914.5,-235.5"/>
<text text-anchor="middle" x="945" y="-242.5" font-family="Helvetica,sans-Serif" font-size="10.00">charconv</text>
</a>
</g>
</g>
<!-- Node1&#45;&gt;Node28 -->
<g id="edge30" class="edge">
<title>Node1&#45;&gt;Node28</title>
<path fill="none" stroke="midnightblue" d="M724.18,-291.45C772.6,-282.04 837.74,-269.16 904.57,-255.05"/>
<polygon fill="midnightblue" stroke="midnightblue" points="905.38,-258.45 914.44,-252.96 903.93,-251.61 905.38,-258.45"/>
</g>
<!-- Node29 -->
<g id="node23" class="node">
<title>Node29</title>
<g id="a_node23"><a xlink:title=" ">
<polygon fill="white" stroke="#bfbfbf" points="994,-235.5 994,-254.5 1044,-254.5 1044,-235.5 994,-235.5"/>
<text text-anchor="middle" x="1019" y="-242.5" font-family="Helvetica,sans-Serif" font-size="10.00">chrono</text>
</a>
</g>
</g>
<!-- Node1&#45;&gt;Node29 -->
<g id="edge31" class="edge">
<title>Node1&#45;&gt;Node29</title>
<path fill="none" stroke="midnightblue" d="M736.57,-295.17C801.87,-286.68 894.2,-273.38 983.76,-255.07"/>
<polygon fill="midnightblue" stroke="midnightblue" points="984.74,-258.44 993.82,-252.99 983.32,-251.59 984.74,-258.44"/>
</g>
<!-- Node30 -->
<g id="node24" class="node">
<title>Node30</title>
<g id="a_node24"><a xlink:title=" ">
<polygon fill="white" stroke="#bfbfbf" points="1062,-235.5 1062,-254.5 1130,-254.5 1130,-235.5 1062,-235.5"/>
<text text-anchor="middle" x="1096" y="-242.5" font-family="Helvetica,sans-Serif" font-size="10.00">filesystem</text>
</a>
</g>
</g>
<!-- Node1&#45;&gt;Node30 -->
<g id="edge32" class="edge">
<title>Node1&#45;&gt;Node30</title>
<path fill="none" stroke="midnightblue" d="M736.77,-296.77C816.05,-288.23 937.32,-273.99 1051.79,-255.09"/>
<polygon fill="midnightblue" stroke="midnightblue" points="1052.49,-258.52 1061.78,-253.42 1051.34,-251.62 1052.49,-258.52"/>
</g>
<!-- Node31 -->
<g id="node25" class="node">
<title>Node31</title>
<g id="a_node25"><a xlink:title=" ">
<polygon fill="white" stroke="#bfbfbf" points="1148,-235.5 1148,-254.5 1186,-254.5 1186,-235.5 1148,-235.5"/>
<text text-anchor="middle" x="1167" y="-242.5" font-family="Helvetica,sans-Serif" font-size="10.00">map</text>
</a>
</g>
</g>
<!-- Node1&#45;&gt;Node31 -->
<g id="edge33" class="edge">
<title>Node1&#45;&gt;Node31</title>
<path fill="none" stroke="midnightblue" d="M736.9,-302.01C832.83,-296.9 992.63,-284.76 1137.87,-254.82"/>
<polygon fill="midnightblue" stroke="midnightblue" points="1138.79,-258.21 1147.86,-252.73 1137.36,-251.36 1138.79,-258.21"/>
</g>
<!-- Node32 -->
<g id="node26" class="node">
<title>Node32</title>
<g id="a_node26"><a xlink:title=" ">
<polygon fill="white" stroke="#bfbfbf" points="1204,-235.5 1204,-254.5 1260,-254.5 1260,-235.5 1204,-235.5"/>
<text text-anchor="middle" x="1232" y="-242.5" font-family="Helvetica,sans-Serif" font-size="10.00">optional</text>
</a>
</g>
</g>
<!-- Node1&#45;&gt;Node32 -->
<g id="edge34" class="edge">
<title>Node1&#45;&gt;Node32</title>
<path fill="none" stroke="midnightblue" d="M736.77,-301.42C842.28,-295.52 1026.93,-282.38 1193.85,-254.96"/>
<polygon fill="midnightblue" stroke="midnightblue" points="1194.52,-258.4 1203.81,-253.31 1193.37,-251.5 1194.52,-258.4"/>
</g>
<!-- Node33 -->
<g id="node27" class="node">
<title>Node33</title>
<g id="a_node27"><a xlink:title=" ">
<polygon fill="white" stroke="#bfbfbf" points="1278,-235.5 1278,-254.5 1310,-254.5 1310,-235.5 1278,-235.5"/>
<text text-anchor="middle" x="1294" y="-242.5" font-family="Helvetica,sans-Serif" font-size="10.00">set</text>
</a>
</g>
</g>
<!-- Node1&#45;&gt;Node33 -->
<g id="edge35" class="edge">
<title>Node1&#45;&gt;Node33</title>
<path fill="none" stroke="midnightblue" d="M736.51,-305.6C854.75,-304.16 1074.55,-295.83 1268,-254.65"/>
<polygon fill="midnightblue" stroke="midnightblue" points="1268.74,-258.07 1277.78,-252.54 1267.26,-251.23 1268.74,-258.07"/>
</g>
<!-- Node34 -->
<g id="node28" class="node">
<title>Node34</title>
<g id="a_node28"><a xlink:title=" ">
<polygon fill="white" stroke="#bfbfbf" points="1328.5,-235.5 1328.5,-254.5 1421.5,-254.5 1421.5,-235.5 1328.5,-235.5"/>
<text text-anchor="middle" x="1375" y="-242.5" font-family="Helvetica,sans-Serif" font-size="10.00">unordered_map</text>
</a>
</g>
</g>
<!-- Node1&#45;&gt;Node34 -->
<g id="edge38" class="edge">
<title>Node1&#45;&gt;Node34</title>
<path fill="none" stroke="midnightblue" d="M736.63,-301.33C861.95,-294.71 1102.84,-280.06 1318.06,-255.01"/>
<polygon fill="midnightblue" stroke="midnightblue" points="1318.77,-258.45 1328.29,-253.81 1317.95,-251.5 1318.77,-258.45"/>
</g>
<!-- Node3 -->
<g id="node3" class="node">
<title>Node3</title>
<g id="a_node3"><a xlink:href="types_2base_8h.html" target="_top" xlink:title=" ">
<polygon fill="white" stroke="red" points="371,-56.5 371,-75.5 501,-75.5 501,-56.5 371,-56.5"/>
<text text-anchor="middle" x="436" y="-63.5" font-family="Helvetica,sans-Serif" font-size="10.00">emlabcpp/types/base.h</text>
</a>
</g>
</g>
<!-- Node2&#45;&gt;Node3 -->
<g id="edge2" class="edge">
<title>Node2&#45;&gt;Node3</title>
<path fill="none" stroke="midnightblue" d="M283.68,-112.44C314.53,-103.24 363.73,-88.56 397.83,-78.39"/>
<polygon fill="midnightblue" stroke="midnightblue" points="398.87,-81.73 407.45,-75.52 396.87,-75.02 398.87,-81.73"/>
</g>
<!-- Node10 -->
<g id="node7" class="node">
<title>Node10</title>
<g id="a_node7"><a xlink:title=" ">
<polygon fill="white" stroke="#bfbfbf" points="255,-56.5 255,-75.5 315,-75.5 315,-56.5 255,-56.5"/>
<text text-anchor="middle" x="285" y="-63.5" font-family="Helvetica,sans-Serif" font-size="10.00">concepts</text>
</a>
</g>
</g>
<!-- Node2&#45;&gt;Node10 -->
<g id="edge6" class="edge">
<title>Node2&#45;&gt;Node10</title>
<path fill="none" stroke="midnightblue" d="M259.95,-112.08C264.1,-104.61 270.15,-93.72 275.27,-84.52"/>
<polygon fill="midnightblue" stroke="midnightblue" points="278.34,-86.19 280.14,-75.75 272.22,-82.79 278.34,-86.19"/>
</g>
<!-- Node11 -->
<g id="node8" class="node">
<title>Node11</title>
<g id="a_node8"><a xlink:title=" ">
<polygon fill="white" stroke="#bfbfbf" points="183.5,-56.5 183.5,-75.5 236.5,-75.5 236.5,-56.5 183.5,-56.5"/>
<text text-anchor="middle" x="210" y="-63.5" font-family="Helvetica,sans-Serif" font-size="10.00">iterator</text>
</a>
</g>
</g>
<!-- Node2&#45;&gt;Node11 -->
<g id="edge7" class="edge">
<title>Node2&#45;&gt;Node11</title>
<path fill="none" stroke="midnightblue" d="M247.57,-112.08C241.15,-104.38 231.69,-93.03 223.88,-83.65"/>
<polygon fill="midnightblue" stroke="midnightblue" points="226.38,-81.19 217.29,-75.75 221.01,-85.67 226.38,-81.19"/>
</g>
<!-- Node2&#45;&gt;Node12 -->
<g id="edge8" class="edge">
<title>Node2&#45;&gt;Node12</title>
<path fill="none" stroke="midnightblue" d="M236.78,-112.44C218.1,-103.68 188.84,-89.94 167.38,-79.86"/>
<polygon fill="midnightblue" stroke="midnightblue" points="168.68,-76.6 158.14,-75.52 165.7,-82.93 168.68,-76.6"/>
</g>
<!-- Node4 -->
<g id="node4" class="node">
<title>Node4</title>
<g id="a_node4"><a xlink:title=" ">
<polygon fill="white" stroke="#bfbfbf" points="564,-0.5 564,-19.5 606,-19.5 606,-0.5 564,-0.5"/>
<text text-anchor="middle" x="585" y="-7.5" font-family="Helvetica,sans-Serif" font-size="10.00">array</text>
</a>
</g>
</g>
<!-- Node3&#45;&gt;Node4 -->
<g id="edge3" class="edge">
<title>Node3&#45;&gt;Node4</title>
<path fill="none" stroke="midnightblue" d="M459.61,-56.44C485.19,-47.17 526.1,-32.35 554.19,-22.17"/>
<polygon fill="midnightblue" stroke="midnightblue" points="555.7,-25.34 563.91,-18.64 553.32,-18.76 555.7,-25.34"/>
</g>
<!-- Node3&#45;&gt;Node7 -->
<g id="edge4" class="edge">
<title>Node3&#45;&gt;Node7</title>
<path fill="none" stroke="midnightblue" d="M400.98,-56.44C358.1,-45.97 286.17,-28.39 245.47,-18.45"/>
<polygon fill="midnightblue" stroke="midnightblue" points="246.14,-15.01 235.59,-16.03 244.48,-21.81 246.14,-15.01"/>
</g>
<!-- Node8 -->
<g id="node6" class="node">
<title>Node8</title>
<g id="a_node6"><a xlink:title=" ">
<polygon fill="white" stroke="#bfbfbf" points="426.5,-0.5 426.5,-19.5 495.5,-19.5 495.5,-0.5 426.5,-0.5"/>
<text text-anchor="middle" x="461" y="-7.5" font-family="Helvetica,sans-Serif" font-size="10.00">type_traits</text>
</a>
</g>
</g>
<!-- Node3&#45;&gt;Node8 -->
<g id="edge5" class="edge">
<title>Node3&#45;&gt;Node8</title>
<path fill="none" stroke="midnightblue" d="M440.13,-56.08C443.51,-48.77 448.42,-38.18 452.62,-29.1"/>
<polygon fill="midnightblue" stroke="midnightblue" points="455.92,-30.3 456.95,-19.75 449.57,-27.36 455.92,-30.3"/>
</g>
<!-- Node13&#45;&gt;Node8 -->
<g id="edge10" class="edge">
<title>Node13&#45;&gt;Node8</title>
<path fill="none" stroke="midnightblue" d="M527.99,-112.4C526.13,-99.36 521.3,-74.17 510,-56 502.74,-44.32 491.63,-33.76 481.82,-25.82"/>
<polygon fill="midnightblue" stroke="midnightblue" points="483.73,-22.87 473.67,-19.54 479.46,-28.42 483.73,-22.87"/>
</g>
<!-- Node14&#45;&gt;Node2 -->
<g id="edge12" class="edge">
<title>Node14&#45;&gt;Node2</title>
<path fill="none" stroke="midnightblue" d="M287.05,-168.4C281.01,-159.84 273.26,-148.87 266.9,-139.86"/>
<polygon fill="midnightblue" stroke="midnightblue" points="269.74,-137.81 261.11,-131.66 264.02,-141.85 269.74,-137.81"/>
</g>
<!-- Node14&#45;&gt;Node7 -->
<g id="edge13" class="edge">
<title>Node14&#45;&gt;Node7</title>
<path fill="none" stroke="midnightblue" d="M306.43,-168.29C321.64,-143.41 347.6,-91.28 324,-56 306.69,-30.13 271.49,-19.11 245.76,-14.44"/>
<polygon fill="midnightblue" stroke="midnightblue" points="246.16,-10.96 235.73,-12.84 245.06,-17.87 246.16,-10.96"/>
</g>
<!-- Node16 -->
<g id="node13" class="node">
<title>Node16</title>
<g id="a_node13"><a xlink:href="visit_8h.html" target="_top" xlink:title=" ">
<polygon fill="white" stroke="red" points="37,-112.5 37,-131.5 135,-131.5 135,-112.5 37,-112.5"/>
<text text-anchor="middle" x="86" y="-119.5" font-family="Helvetica,sans-Serif" font-size="10.00">emlabcpp/visit.h</text>
</a>
</g>
</g>
<!-- Node15&#45;&gt;Node16 -->
<g id="edge15" class="edge">
<title>Node15&#45;&gt;Node16</title>
<path fill="none" stroke="midnightblue" d="M82.57,-173.98C83.14,-165.58 84.02,-152.48 84.75,-141.66"/>
<polygon fill="midnightblue" stroke="midnightblue" points="88.25,-141.72 85.43,-131.51 81.26,-141.25 88.25,-141.72"/>
</g>
<!-- Node16&#45;&gt;Node7 -->
<g id="edge16" class="edge">
<title>Node16&#45;&gt;Node7</title>
<path fill="none" stroke="midnightblue" d="M86.23,-112.28C87.04,-98.62 90.52,-72.07 105,-56 125.67,-33.07 159.75,-21.57 184.51,-15.97"/>
<polygon fill="midnightblue" stroke="midnightblue" points="185.39,-19.36 194.48,-13.92 183.98,-12.51 185.39,-19.36"/>
</g>
<!-- Node16&#45;&gt;Node12 -->
<g id="edge17" class="edge">
<title>Node16&#45;&gt;Node12</title>
<path fill="none" stroke="midnightblue" d="M94.92,-112.08C102.78,-104.22 114.43,-92.57 123.92,-83.08"/>
<polygon fill="midnightblue" stroke="midnightblue" points="126.65,-85.3 131.25,-75.75 121.7,-80.35 126.65,-85.3"/>
</g>
<!-- Node20&#45;&gt;Node4 -->
<g id="edge19" class="edge">
<title>Node20&#45;&gt;Node4</title>
<path fill="none" stroke="midnightblue" d="M646.27,-235.26C641.61,-226.35 634.55,-212.02 630,-199 608.94,-138.65 594.31,-64.03 588.2,-29.79"/>
<polygon fill="midnightblue" stroke="midnightblue" points="591.62,-29.05 586.45,-19.8 584.72,-30.25 591.62,-29.05"/>
</g>
<!-- Node21 -->
<g id="node15" class="node">
<title>Node21</title>
<g id="a_node15"><a xlink:title=" ">
<polygon fill="white" stroke="#bfbfbf" points="638.5,-174 638.5,-193 703.5,-193 703.5,-174 638.5,-174"/>
<text text-anchor="middle" x="671" y="-181" font-family="Helvetica,sans-Serif" font-size="10.00">functional</text>
</a>
</g>
</g>
<!-- Node20&#45;&gt;Node21 -->
<g id="edge20" class="edge">
<title>Node20&#45;&gt;Node21</title>
<path fill="none" stroke="midnightblue" d="M653.87,-235.48C656.72,-226.99 661.18,-213.7 664.84,-202.82"/>
<polygon fill="midnightblue" stroke="midnightblue" points="668.27,-203.6 668.14,-193.01 661.64,-201.37 668.27,-203.6"/>
</g>
<!-- Node23 -->
<g id="node17" class="node">
<title>Node23</title>
<g id="a_node17"><a xlink:href="numeric_8h.html" target="_top" xlink:title=" ">
<polygon fill="white" stroke="red" points="727.5,-168.5 727.5,-198.5 836.5,-198.5 836.5,-168.5 727.5,-168.5"/>
<text text-anchor="start" x="735.5" y="-186.5" font-family="Helvetica,sans-Serif" font-size="10.00">emlabcpp/iterators</text>
<text text-anchor="middle" x="782" y="-175.5" font-family="Helvetica,sans-Serif" font-size="10.00">/numeric.h</text>
</a>
</g>
</g>
<!-- Node22&#45;&gt;Node23 -->
<g id="edge22" class="edge">
<title>Node22&#45;&gt;Node23</title>
<path fill="none" stroke="midnightblue" d="M782,-235.48C782,-228.47 782,-218.19 782,-208.7"/>
<polygon fill="midnightblue" stroke="midnightblue" points="785.5,-208.52 782,-198.52 778.5,-208.52 785.5,-208.52"/>
</g>
<!-- Node18&#45;&gt;Node2 -->
<g id="edge24" class="edge">
<title>Node18&#45;&gt;Node2</title>
<path fill="none" stroke="midnightblue" d="M408.35,-173.98C377.38,-163.68 325.13,-146.31 290.35,-134.75"/>
<polygon fill="midnightblue" stroke="midnightblue" points="291.19,-131.34 280.6,-131.51 288.98,-137.98 291.19,-131.34"/>
</g>
<!-- Node18&#45;&gt;Node3 -->
<g id="edge25" class="edge">
<title>Node18&#45;&gt;Node3</title>
<path fill="none" stroke="midnightblue" d="M434.15,-173.82C434.47,-155.26 435.23,-111.34 435.67,-85.97"/>
<polygon fill="midnightblue" stroke="midnightblue" points="439.17,-85.84 435.85,-75.78 432.18,-85.72 439.17,-85.84"/>
</g>
<!-- Node25&#45;&gt;Node18 -->
<g id="edge27" class="edge">
<title>Node25&#45;&gt;Node18</title>
<path fill="none" stroke="midnightblue" d="M444.28,-235.48C442.57,-226.99 439.89,-213.7 437.7,-202.82"/>
<polygon fill="midnightblue" stroke="midnightblue" points="441.12,-202.12 435.72,-193.01 434.26,-203.5 441.12,-202.12"/>
</g>
<!-- Node25&#45;&gt;Node26 -->
<g id="edge28" class="edge">
<title>Node25&#45;&gt;Node26</title>
<path fill="none" stroke="midnightblue" d="M457.18,-235.48C469.57,-226.02 489.79,-210.6 504.75,-199.19"/>
<polygon fill="midnightblue" stroke="midnightblue" points="507.02,-201.86 512.85,-193.01 502.77,-196.29 507.02,-201.86"/>
</g>
</g>
</svg>
