<?xml version="1.0" encoding="UTF-8" standalone="no"?>
<!DOCTYPE svg PUBLIC "-//W3C//DTD SVG 1.1//EN"
 "http://www.w3.org/Graphics/SVG/1.1/DTD/svg11.dtd">
<!-- Generated by graphviz version 2.43.0 (0)
 -->
<!-- Title: include/emlabcpp/experimental/pretty_printer.h Pages: 1 -->
<svg width="637pt" height="274pt"
 viewBox="0.00 0.00 636.93 274.00" xmlns="http://www.w3.org/2000/svg" xmlns:xlink="http://www.w3.org/1999/xlink">
<g id="graph0" class="graph" transform="scale(1 1) rotate(0) translate(4 270)">
<title>include/emlabcpp/experimental/pretty_printer.h</title>
<polygon fill="white" stroke="transparent" points="-4,4 -4,-270 632.93,-270 632.93,4 -4,4"/>
<!-- Node1 -->
<g id="node1" class="node">
<title>Node1</title>
<g id="a_node1"><a xlink:title=" ">
<polygon fill="#bfbfbf" stroke="black" points="215.43,-235.5 215.43,-265.5 386.43,-265.5 386.43,-235.5 215.43,-235.5"/>
<text text-anchor="start" x="223.43" y="-253.5" font-family="Helvetica,sans-Serif" font-size="10.00">include/emlabcpp/experimental</text>
<text text-anchor="middle" x="300.93" y="-242.5" font-family="Helvetica,sans-Serif" font-size="10.00">/pretty_printer.h</text>
</a>
</g>
</g>
<!-- Node2 -->
<g id="node2" class="node">
<title>Node2</title>
<g id="a_node2"><a xlink:href="concepts_8h.html" target="_top" xlink:title=" ">
<polygon fill="white" stroke="black" points="258.93,-112.5 258.93,-131.5 378.93,-131.5 378.93,-112.5 258.93,-112.5"/>
<text text-anchor="middle" x="318.93" y="-119.5" font-family="Helvetica,sans-Serif" font-size="10.00">emlabcpp/concepts.h</text>
</a>
</g>
</g>
<!-- Node1&#45;&gt;Node2 -->
<g id="edge1" class="edge">
<title>Node1&#45;&gt;Node2</title>
<path fill="none" stroke="midnightblue" d="M311.74,-235.37C318.43,-225.71 326.39,-212.29 329.93,-199 335.08,-179.72 330.44,-157.01 325.71,-141.46"/>
<polygon fill="midnightblue" stroke="midnightblue" points="328.89,-139.93 322.38,-131.57 322.25,-142.16 328.89,-139.93"/>
</g>
<!-- Node7 -->
<g id="node4" class="node">
<title>Node7</title>
<g id="a_node4"><a xlink:title=" ">
<polygon fill="white" stroke="#bfbfbf" points="121.43,-0.5 121.43,-19.5 162.43,-19.5 162.43,-0.5 121.43,-0.5"/>
<text text-anchor="middle" x="141.93" y="-7.5" font-family="Helvetica,sans-Serif" font-size="10.00">tuple</text>
</a>
</g>
</g>
<!-- Node1&#45;&gt;Node7 -->
<g id="edge17" class="edge">
<title>Node1&#45;&gt;Node7</title>
<path fill="none" stroke="midnightblue" d="M215.38,-246.24C140.33,-241.37 39.3,-229.22 13.93,-199 -36.97,-138.36 70.4,-57.37 119.33,-25.12"/>
<polygon fill="midnightblue" stroke="midnightblue" points="121.24,-28.05 127.74,-19.68 117.44,-22.17 121.24,-28.05"/>
</g>
<!-- Node12 -->
<g id="node7" class="node">
<title>Node12</title>
<g id="a_node7"><a xlink:title=" ">
<polygon fill="white" stroke="#bfbfbf" points="117.43,-56.5 117.43,-75.5 168.43,-75.5 168.43,-56.5 117.43,-56.5"/>
<text text-anchor="middle" x="142.93" y="-63.5" font-family="Helvetica,sans-Serif" font-size="10.00">variant</text>
</a>
</g>
</g>
<!-- Node1&#45;&gt;Node12 -->
<g id="edge18" class="edge">
<title>Node1&#45;&gt;Node12</title>
<path fill="none" stroke="midnightblue" d="M237.75,-235.48C216.46,-227.9 194.24,-216.37 178.93,-199 150.36,-166.58 144.22,-113.57 143.06,-85.61"/>
<polygon fill="midnightblue" stroke="midnightblue" points="146.55,-85.51 142.81,-75.6 139.56,-85.68 146.55,-85.51"/>
</g>
<!-- Node13 -->
<g id="node8" class="node">
<title>Node13</title>
<g id="a_node8"><a xlink:href="enum_8h.html" target="_top" xlink:title=" ">
<polygon fill="white" stroke="black" points="376.93,-174 376.93,-193 480.93,-193 480.93,-174 376.93,-174"/>
<text text-anchor="middle" x="428.93" y="-181" font-family="Helvetica,sans-Serif" font-size="10.00">emlabcpp/enum.h</text>
</a>
</g>
</g>
<!-- Node1&#45;&gt;Node13 -->
<g id="edge7" class="edge">
<title>Node1&#45;&gt;Node13</title>
<path fill="none" stroke="midnightblue" d="M328.71,-235.4C350.87,-224.14 381.67,-208.5 403.26,-197.54"/>
<polygon fill="midnightblue" stroke="midnightblue" points="404.85,-200.66 412.18,-193.01 401.68,-194.41 404.85,-200.66"/>
</g>
<!-- Node14 -->
<g id="node9" class="node">
<title>Node14</title>
<g id="a_node9"><a xlink:href="decompose_8h.html" target="_top" xlink:title=" ">
<polygon fill="white" stroke="black" points="187.43,-168.5 187.43,-198.5 320.43,-198.5 320.43,-168.5 187.43,-168.5"/>
<text text-anchor="start" x="195.43" y="-186.5" font-family="Helvetica,sans-Serif" font-size="10.00">emlabcpp/experimental</text>
<text text-anchor="middle" x="253.93" y="-175.5" font-family="Helvetica,sans-Serif" font-size="10.00">/decompose.h</text>
</a>
</g>
</g>
<!-- Node1&#45;&gt;Node14 -->
<g id="edge8" class="edge">
<title>Node1&#45;&gt;Node14</title>
<path fill="none" stroke="midnightblue" d="M290.74,-235.4C284.7,-227.05 276.92,-216.29 270.07,-206.81"/>
<polygon fill="midnightblue" stroke="midnightblue" points="272.81,-204.63 264.11,-198.58 267.14,-208.73 272.81,-204.63"/>
</g>
<!-- Node15 -->
<g id="node10" class="node">
<title>Node15</title>
<g id="a_node10"><a xlink:href="match_8h.html" target="_top" xlink:title=" ">
<polygon fill="white" stroke="black" points="23.43,-174 23.43,-193 130.43,-193 130.43,-174 23.43,-174"/>
<text text-anchor="middle" x="76.93" y="-181" font-family="Helvetica,sans-Serif" font-size="10.00">emlabcpp/match.h</text>
</a>
</g>
</g>
<!-- Node1&#45;&gt;Node15 -->
<g id="edge11" class="edge">
<title>Node1&#45;&gt;Node15</title>
<path fill="none" stroke="midnightblue" d="M252.6,-235.48C211.75,-223.62 153.98,-206.86 116.01,-195.84"/>
<polygon fill="midnightblue" stroke="midnightblue" points="116.9,-192.45 106.32,-193.03 114.95,-199.18 116.9,-192.45"/>
</g>
<!-- Node17 -->
<g id="node12" class="node">
<title>Node17</title>
<g id="a_node12"><a xlink:title=" ">
<polygon fill="white" stroke="#bfbfbf" points="498.93,-174 498.93,-193 554.93,-193 554.93,-174 498.93,-174"/>
<text text-anchor="middle" x="526.93" y="-181" font-family="Helvetica,sans-Serif" font-size="10.00">optional</text>
</a>
</g>
</g>
<!-- Node1&#45;&gt;Node17 -->
<g id="edge15" class="edge">
<title>Node1&#45;&gt;Node17</title>
<path fill="none" stroke="midnightblue" d="M360.18,-235.49C397.68,-226.17 447.02,-213.09 489.93,-199 492.2,-198.26 494.53,-197.45 496.87,-196.61"/>
<polygon fill="midnightblue" stroke="midnightblue" points="498.21,-199.84 506.34,-193.04 495.75,-193.29 498.21,-199.84"/>
</g>
<!-- Node18 -->
<g id="node13" class="node">
<title>Node18</title>
<g id="a_node13"><a xlink:title=" ">
<polygon fill="white" stroke="#bfbfbf" points="572.93,-174 572.93,-193 628.93,-193 628.93,-174 572.93,-174"/>
<text text-anchor="middle" x="600.93" y="-181" font-family="Helvetica,sans-Serif" font-size="10.00">sstream</text>
</a>
</g>
</g>
<!-- Node1&#45;&gt;Node18 -->
<g id="edge16" class="edge">
<title>Node1&#45;&gt;Node18</title>
<path fill="none" stroke="midnightblue" d="M386.56,-237.15C438.44,-228.65 505.65,-215.86 563.93,-199 566.52,-198.25 569.17,-197.4 571.81,-196.48"/>
<polygon fill="midnightblue" stroke="midnightblue" points="573.03,-199.76 581.2,-193.01 570.6,-193.2 573.03,-199.76"/>
</g>
<!-- Node3 -->
<g id="node3" class="node">
<title>Node3</title>
<g id="a_node3"><a xlink:href="types_2base_8h.html" target="_top" xlink:title=" ">
<polygon fill="white" stroke="red" points="224.93,-56.5 224.93,-75.5 354.93,-75.5 354.93,-56.5 224.93,-56.5"/>
<text text-anchor="middle" x="289.93" y="-63.5" font-family="Helvetica,sans-Serif" font-size="10.00">emlabcpp/types/base.h</text>
</a>
</g>
</g>
<!-- Node2&#45;&gt;Node3 -->
<g id="edge2" class="edge">
<title>Node2&#45;&gt;Node3</title>
<path fill="none" stroke="midnightblue" d="M314.14,-112.08C310.18,-104.69 304.41,-93.95 299.5,-84.81"/>
<polygon fill="midnightblue" stroke="midnightblue" points="302.45,-82.91 294.63,-75.75 296.28,-86.22 302.45,-82.91"/>
</g>
<!-- Node10 -->
<g id="node5" class="node">
<title>Node10</title>
<g id="a_node5"><a xlink:title=" ">
<polygon fill="white" stroke="#bfbfbf" points="372.93,-56.5 372.93,-75.5 432.93,-75.5 432.93,-56.5 372.93,-56.5"/>
<text text-anchor="middle" x="402.93" y="-63.5" font-family="Helvetica,sans-Serif" font-size="10.00">concepts</text>
</a>
</g>
</g>
<!-- Node2&#45;&gt;Node10 -->
<g id="edge4" class="edge">
<title>Node2&#45;&gt;Node10</title>
<path fill="none" stroke="midnightblue" d="M332.43,-112.32C345.53,-103.9 365.65,-90.97 381.04,-81.07"/>
<polygon fill="midnightblue" stroke="midnightblue" points="382.95,-84.01 389.47,-75.65 379.17,-78.12 382.95,-84.01"/>
</g>
<!-- Node11 -->
<g id="node6" class="node">
<title>Node11</title>
<g id="a_node6"><a xlink:title=" ">
<polygon fill="white" stroke="#bfbfbf" points="451.43,-56.5 451.43,-75.5 504.43,-75.5 504.43,-56.5 451.43,-56.5"/>
<text text-anchor="middle" x="477.93" y="-63.5" font-family="Helvetica,sans-Serif" font-size="10.00">iterator</text>
</a>
</g>
</g>
<!-- Node2&#45;&gt;Node11 -->
<g id="edge5" class="edge">
<title>Node2&#45;&gt;Node11</title>
<path fill="none" stroke="midnightblue" d="M344.13,-112.44C370.88,-103.36 413.34,-88.94 443.24,-78.78"/>
<polygon fill="midnightblue" stroke="midnightblue" points="444.51,-82.05 452.86,-75.52 442.26,-75.42 444.51,-82.05"/>
</g>
<!-- Node2&#45;&gt;Node12 -->
<g id="edge6" class="edge">
<title>Node2&#45;&gt;Node12</title>
<path fill="none" stroke="midnightblue" d="M291.05,-112.44C260.56,-103.09 211.65,-88.08 178.45,-77.9"/>
<polygon fill="midnightblue" stroke="midnightblue" points="179.27,-74.49 168.69,-74.9 177.22,-81.18 179.27,-74.49"/>
</g>
<!-- Node3&#45;&gt;Node7 -->
<g id="edge3" class="edge">
<title>Node3&#45;&gt;Node7</title>
<path fill="none" stroke="midnightblue" d="M266.48,-56.44C241.07,-47.17 200.44,-32.35 172.53,-22.17"/>
<polygon fill="midnightblue" stroke="midnightblue" points="173.48,-18.78 162.88,-18.64 171.08,-25.36 173.48,-18.78"/>
</g>
<!-- Node14&#45;&gt;Node2 -->
<g id="edge9" class="edge">
<title>Node14&#45;&gt;Node2</title>
<path fill="none" stroke="midnightblue" d="M269.34,-168.4C279.17,-159.4 291.93,-147.72 302.04,-138.47"/>
<polygon fill="midnightblue" stroke="midnightblue" points="304.46,-140.99 309.48,-131.66 299.74,-135.83 304.46,-140.99"/>
</g>
<!-- Node14&#45;&gt;Node7 -->
<g id="edge10" class="edge">
<title>Node14&#45;&gt;Node7</title>
<path fill="none" stroke="midnightblue" d="M245.9,-168.13C232.43,-144.3 204.09,-95.36 176.93,-56 170.26,-46.33 162.25,-35.94 155.57,-27.59"/>
<polygon fill="midnightblue" stroke="midnightblue" points="158.23,-25.31 149.21,-19.74 152.79,-29.71 158.23,-25.31"/>
</g>
<!-- Node16 -->
<g id="node11" class="node">
<title>Node16</title>
<g id="a_node11"><a xlink:href="visit_8h.html" target="_top" xlink:title=" ">
<polygon fill="white" stroke="black" points="32.93,-112.5 32.93,-131.5 130.93,-131.5 130.93,-112.5 32.93,-112.5"/>
<text text-anchor="middle" x="81.93" y="-119.5" font-family="Helvetica,sans-Serif" font-size="10.00">emlabcpp/visit.h</text>
</a>
</g>
</g>
<!-- Node15&#45;&gt;Node16 -->
<g id="edge12" class="edge">
<title>Node15&#45;&gt;Node16</title>
<path fill="none" stroke="midnightblue" d="M77.65,-173.98C78.36,-165.58 79.46,-152.48 80.37,-141.66"/>
<polygon fill="midnightblue" stroke="midnightblue" points="83.87,-141.77 81.22,-131.51 76.89,-141.18 83.87,-141.77"/>
</g>
<!-- Node16&#45;&gt;Node7 -->
<g id="edge13" class="edge">
<title>Node16&#45;&gt;Node7</title>
<path fill="none" stroke="midnightblue" d="M84.6,-112.25C88.7,-99.45 97.18,-75.05 107.93,-56 113.52,-46.11 121.02,-35.94 127.56,-27.77"/>
<polygon fill="midnightblue" stroke="midnightblue" points="130.47,-29.75 134.14,-19.81 125.08,-25.29 130.47,-29.75"/>
</g>
<!-- Node16&#45;&gt;Node12 -->
<g id="edge14" class="edge">
<title>Node16&#45;&gt;Node12</title>
<path fill="none" stroke="midnightblue" d="M91.73,-112.32C100.75,-104.34 114.34,-92.31 125.25,-82.65"/>
<polygon fill="midnightblue" stroke="midnightblue" points="127.79,-85.08 132.95,-75.83 123.15,-79.84 127.79,-85.08"/>
</g>
</g>
</svg>
