<?xml version="1.0" encoding="UTF-8" standalone="no"?>
<!DOCTYPE svg PUBLIC "-//W3C//DTD SVG 1.1//EN"
 "http://www.w3.org/Graphics/SVG/1.1/DTD/svg11.dtd">
<!-- Generated by graphviz version 2.43.0 (0)
 -->
<!-- Title: include/emlabcpp/experimental/pretty_printer.h Pages: 1 -->
<svg width="620pt" height="207pt"
 viewBox="0.00 0.00 620.00 207.00" xmlns="http://www.w3.org/2000/svg" xmlns:xlink="http://www.w3.org/1999/xlink">
<g id="graph0" class="graph" transform="scale(1 1) rotate(0) translate(4 203)">
<title>include/emlabcpp/experimental/pretty_printer.h</title>
<polygon fill="white" stroke="transparent" points="-4,4 -4,-203 616,-203 616,4 -4,4"/>
<!-- Node1 -->
<g id="node1" class="node">
<title>Node1</title>
<g id="a_node1"><a xlink:title=" ">
<polygon fill="#bfbfbf" stroke="black" points="288.5,-168.5 288.5,-198.5 459.5,-198.5 459.5,-168.5 288.5,-168.5"/>
<text text-anchor="start" x="296.5" y="-186.5" font-family="Helvetica,sans-Serif" font-size="10.00">include/emlabcpp/experimental</text>
<text text-anchor="middle" x="374" y="-175.5" font-family="Helvetica,sans-Serif" font-size="10.00">/pretty_printer.h</text>
</a>
</g>
</g>
<!-- Node2 -->
<g id="node2" class="node">
<title>Node2</title>
<g id="a_node2"><a xlink:href="concepts_8h.html" target="_top" xlink:title=" ">
<polygon fill="white" stroke="black" points="58,-112.5 58,-131.5 178,-131.5 178,-112.5 58,-112.5"/>
<text text-anchor="middle" x="118" y="-119.5" font-family="Helvetica,sans-Serif" font-size="10.00">emlabcpp/concepts.h</text>
</a>
</g>
</g>
<!-- Node1&#45;&gt;Node2 -->
<g id="edge1" class="edge">
<title>Node1&#45;&gt;Node2</title>
<path fill="none" stroke="midnightblue" d="M313.65,-168.47C268.04,-157.87 206.34,-143.53 164.52,-133.81"/>
<polygon fill="midnightblue" stroke="midnightblue" points="165.13,-130.36 154.6,-131.51 163.54,-137.18 165.13,-130.36"/>
</g>
<!-- Node7 -->
<g id="node4" class="node">
<title>Node7</title>
<g id="a_node4"><a xlink:title=" ">
<polygon fill="white" stroke="#bfbfbf" points="139.5,-0.5 139.5,-19.5 180.5,-19.5 180.5,-0.5 139.5,-0.5"/>
<text text-anchor="middle" x="160" y="-7.5" font-family="Helvetica,sans-Serif" font-size="10.00">tuple</text>
</a>
</g>
</g>
<!-- Node1&#45;&gt;Node7 -->
<g id="edge13" class="edge">
<title>Node1&#45;&gt;Node7</title>
<path fill="none" stroke="midnightblue" d="M288.4,-176.6C205.95,-169.62 88.15,-155.81 49,-132 16.21,-112.05 -14.97,-86.75 8,-56 35.83,-18.73 93.17,-11.06 128.92,-10.15"/>
<polygon fill="midnightblue" stroke="midnightblue" points="129.29,-13.64 139.26,-10.06 129.23,-6.64 129.29,-13.64"/>
</g>
<!-- Node11 -->
<g id="node6" class="node">
<title>Node11</title>
<g id="a_node6"><a xlink:title=" ">
<polygon fill="white" stroke="#bfbfbf" points="304.5,-0.5 304.5,-19.5 355.5,-19.5 355.5,-0.5 304.5,-0.5"/>
<text text-anchor="middle" x="330" y="-7.5" font-family="Helvetica,sans-Serif" font-size="10.00">variant</text>
</a>
</g>
</g>
<!-- Node1&#45;&gt;Node11 -->
<g id="edge14" class="edge">
<title>Node1&#45;&gt;Node11</title>
<path fill="none" stroke="midnightblue" d="M400.14,-168.37C413.2,-159.76 427.74,-147.43 435,-132 438.78,-123.96 438.04,-120.35 435,-112 420.6,-72.45 380.56,-41.65 354.3,-24.93"/>
<polygon fill="midnightblue" stroke="midnightblue" points="356,-21.86 345.65,-19.61 352.33,-27.83 356,-21.86"/>
</g>
<!-- Node12 -->
<g id="node7" class="node">
<title>Node12</title>
<g id="a_node7"><a xlink:href="enum_8h.html" target="_top" xlink:title=" ">
<polygon fill="white" stroke="black" points="322,-112.5 322,-131.5 426,-131.5 426,-112.5 322,-112.5"/>
<text text-anchor="middle" x="374" y="-119.5" font-family="Helvetica,sans-Serif" font-size="10.00">emlabcpp/enum.h</text>
</a>
</g>
</g>
<!-- Node1&#45;&gt;Node12 -->
<g id="edge6" class="edge">
<title>Node1&#45;&gt;Node12</title>
<path fill="none" stroke="midnightblue" d="M374,-168.4C374,-160.47 374,-150.46 374,-141.86"/>
<polygon fill="midnightblue" stroke="midnightblue" points="377.5,-141.66 374,-131.66 370.5,-141.66 377.5,-141.66"/>
</g>
<!-- Node13 -->
<g id="node8" class="node">
<title>Node13</title>
<g id="a_node8"><a xlink:href="match_8h.html" target="_top" xlink:title=" ">
<polygon fill="white" stroke="black" points="196.5,-112.5 196.5,-131.5 303.5,-131.5 303.5,-112.5 196.5,-112.5"/>
<text text-anchor="middle" x="250" y="-119.5" font-family="Helvetica,sans-Serif" font-size="10.00">emlabcpp/match.h</text>
</a>
</g>
</g>
<!-- Node1&#45;&gt;Node13 -->
<g id="edge7" class="edge">
<title>Node1&#45;&gt;Node13</title>
<path fill="none" stroke="midnightblue" d="M344.61,-168.4C324.18,-158.59 297.14,-145.62 277.2,-136.05"/>
<polygon fill="midnightblue" stroke="midnightblue" points="278.57,-132.83 268.04,-131.66 275.54,-139.14 278.57,-132.83"/>
</g>
<!-- Node15 -->
<g id="node10" class="node">
<title>Node15</title>
<g id="a_node10"><a xlink:title=" ">
<polygon fill="white" stroke="#bfbfbf" points="482,-112.5 482,-131.5 538,-131.5 538,-112.5 482,-112.5"/>
<text text-anchor="middle" x="510" y="-119.5" font-family="Helvetica,sans-Serif" font-size="10.00">optional</text>
</a>
</g>
</g>
<!-- Node1&#45;&gt;Node15 -->
<g id="edge11" class="edge">
<title>Node1&#45;&gt;Node15</title>
<path fill="none" stroke="midnightblue" d="M406.23,-168.4C428.84,-158.51 458.83,-145.38 480.76,-135.79"/>
<polygon fill="midnightblue" stroke="midnightblue" points="482.45,-138.87 490.21,-131.66 479.64,-132.46 482.45,-138.87"/>
</g>
<!-- Node16 -->
<g id="node11" class="node">
<title>Node16</title>
<g id="a_node11"><a xlink:title=" ">
<polygon fill="white" stroke="#bfbfbf" points="556,-112.5 556,-131.5 612,-131.5 612,-112.5 556,-112.5"/>
<text text-anchor="middle" x="584" y="-119.5" font-family="Helvetica,sans-Serif" font-size="10.00">sstream</text>
</a>
</g>
</g>
<!-- Node1&#45;&gt;Node16 -->
<g id="edge12" class="edge">
<title>Node1&#45;&gt;Node16</title>
<path fill="none" stroke="midnightblue" d="M423.5,-168.47C461.02,-157.84 511.82,-143.45 546.13,-133.73"/>
<polygon fill="midnightblue" stroke="midnightblue" points="547.12,-137.09 555.79,-130.99 545.21,-130.35 547.12,-137.09"/>
</g>
<!-- Node3 -->
<g id="node3" class="node">
<title>Node3</title>
<g id="a_node3"><a xlink:href="types_2base_8h.html" target="_top" xlink:title=" ">
<polygon fill="white" stroke="red" points="95,-56.5 95,-75.5 225,-75.5 225,-56.5 95,-56.5"/>
<text text-anchor="middle" x="160" y="-63.5" font-family="Helvetica,sans-Serif" font-size="10.00">emlabcpp/types/base.h</text>
</a>
</g>
</g>
<!-- Node2&#45;&gt;Node3 -->
<g id="edge2" class="edge">
<title>Node2&#45;&gt;Node3</title>
<path fill="none" stroke="midnightblue" d="M124.93,-112.08C130.93,-104.38 139.75,-93.03 147.04,-83.65"/>
<polygon fill="midnightblue" stroke="midnightblue" points="149.81,-85.79 153.19,-75.75 144.29,-81.5 149.81,-85.79"/>
</g>
<!-- Node10 -->
<g id="node5" class="node">
<title>Node10</title>
<g id="a_node5"><a xlink:title=" ">
<polygon fill="white" stroke="#bfbfbf" points="17,-56.5 17,-75.5 77,-75.5 77,-56.5 17,-56.5"/>
<text text-anchor="middle" x="47" y="-63.5" font-family="Helvetica,sans-Serif" font-size="10.00">concepts</text>
</a>
</g>
</g>
<!-- Node2&#45;&gt;Node10 -->
<g id="edge4" class="edge">
<title>Node2&#45;&gt;Node10</title>
<path fill="none" stroke="midnightblue" d="M106.59,-112.32C95.89,-104.18 79.66,-91.84 66.83,-82.09"/>
<polygon fill="midnightblue" stroke="midnightblue" points="68.69,-79.1 58.61,-75.83 64.45,-84.67 68.69,-79.1"/>
</g>
<!-- Node2&#45;&gt;Node11 -->
<g id="edge5" class="edge">
<title>Node2&#45;&gt;Node11</title>
<path fill="none" stroke="midnightblue" d="M145,-112.46C169,-104.42 204.72,-91.34 234,-76 262.16,-61.24 292.12,-39.95 310.94,-25.8"/>
<polygon fill="midnightblue" stroke="midnightblue" points="313.15,-28.51 318.99,-19.67 308.91,-22.94 313.15,-28.51"/>
</g>
<!-- Node3&#45;&gt;Node7 -->
<g id="edge3" class="edge">
<title>Node3&#45;&gt;Node7</title>
<path fill="none" stroke="midnightblue" d="M160,-56.08C160,-49.01 160,-38.86 160,-29.99"/>
<polygon fill="midnightblue" stroke="midnightblue" points="163.5,-29.75 160,-19.75 156.5,-29.75 163.5,-29.75"/>
</g>
<!-- Node14 -->
<g id="node9" class="node">
<title>Node14</title>
<g id="a_node9"><a xlink:href="visit_8h.html" target="_top" xlink:title=" ">
<polygon fill="white" stroke="black" points="281,-56.5 281,-75.5 379,-75.5 379,-56.5 281,-56.5"/>
<text text-anchor="middle" x="330" y="-63.5" font-family="Helvetica,sans-Serif" font-size="10.00">emlabcpp/visit.h</text>
</a>
</g>
</g>
<!-- Node13&#45;&gt;Node14 -->
<g id="edge8" class="edge">
<title>Node13&#45;&gt;Node14</title>
<path fill="none" stroke="midnightblue" d="M262.85,-112.32C275.21,-103.98 294.13,-91.21 308.73,-81.35"/>
<polygon fill="midnightblue" stroke="midnightblue" points="310.84,-84.15 317.17,-75.65 306.93,-78.35 310.84,-84.15"/>
</g>
<!-- Node14&#45;&gt;Node7 -->
<g id="edge9" class="edge">
<title>Node14&#45;&gt;Node7</title>
<path fill="none" stroke="midnightblue" d="M303.06,-56.44C272.39,-46.7 222.41,-30.83 190.38,-20.65"/>
<polygon fill="midnightblue" stroke="midnightblue" points="191.25,-17.25 180.66,-17.56 189.13,-23.93 191.25,-17.25"/>
</g>
<!-- Node14&#45;&gt;Node11 -->
<g id="edge10" class="edge">
<title>Node14&#45;&gt;Node11</title>
<path fill="none" stroke="midnightblue" d="M330,-56.08C330,-49.01 330,-38.86 330,-29.99"/>
<polygon fill="midnightblue" stroke="midnightblue" points="333.5,-29.75 330,-19.75 326.5,-29.75 333.5,-29.75"/>
</g>
</g>
</svg>
