<?xml version="1.0" encoding="UTF-8" standalone="no"?>
<!DOCTYPE svg PUBLIC "-//W3C//DTD SVG 1.1//EN"
 "http://www.w3.org/Graphics/SVG/1.1/DTD/svg11.dtd">
<!-- Generated by graphviz version 2.43.0 (0)
 -->
<!-- Title: include/emlabcpp/experimental/pretty_printer.h Pages: 1 -->
<svg width="1313pt" height="330pt"
 viewBox="0.00 0.00 1312.50 330.00" xmlns="http://www.w3.org/2000/svg" xmlns:xlink="http://www.w3.org/1999/xlink">
<g id="graph0" class="graph" transform="scale(1 1) rotate(0) translate(4 326)">
<title>include/emlabcpp/experimental/pretty_printer.h</title>
<polygon fill="white" stroke="transparent" points="-4,4 -4,-326 1308.5,-326 1308.5,4 -4,4"/>
<!-- Node1 -->
<g id="node1" class="node">
<title>Node1</title>
<g id="a_node1"><a xlink:title=" ">
<polygon fill="#bfbfbf" stroke="black" points="539.5,-291.5 539.5,-321.5 710.5,-321.5 710.5,-291.5 539.5,-291.5"/>
<text text-anchor="start" x="547.5" y="-309.5" font-family="Helvetica,sans-Serif" font-size="10.00">include/emlabcpp/experimental</text>
<text text-anchor="middle" x="625" y="-298.5" font-family="Helvetica,sans-Serif" font-size="10.00">/pretty_printer.h</text>
</a>
</g>
</g>
<!-- Node2 -->
<g id="node2" class="node">
<title>Node2</title>
<g id="a_node2"><a xlink:href="concepts_8h.html" target="_top" xlink:title=" ">
<polygon fill="white" stroke="black" points="340,-112.5 340,-131.5 460,-131.5 460,-112.5 340,-112.5"/>
<text text-anchor="middle" x="400" y="-119.5" font-family="Helvetica,sans-Serif" font-size="10.00">emlabcpp/concepts.h</text>
</a>
</g>
</g>
<!-- Node1&#45;&gt;Node2 -->
<g id="edge1" class="edge">
<title>Node1&#45;&gt;Node2</title>
<path fill="none" stroke="midnightblue" d="M539.37,-294.27C485.48,-285.7 422.24,-272.4 401,-255 369.88,-229.51 366.24,-207.03 376,-168 378.44,-158.25 383.44,-148.29 388.24,-140.23"/>
<polygon fill="midnightblue" stroke="midnightblue" points="391.21,-142.08 393.63,-131.77 385.31,-138.32 391.21,-142.08"/>
</g>
<!-- Node7 -->
<g id="node4" class="node">
<title>Node7</title>
<g id="a_node4"><a xlink:title=" ">
<polygon fill="white" stroke="#bfbfbf" points="147.5,-0.5 147.5,-19.5 188.5,-19.5 188.5,-0.5 147.5,-0.5"/>
<text text-anchor="middle" x="168" y="-7.5" font-family="Helvetica,sans-Serif" font-size="10.00">tuple</text>
</a>
</g>
</g>
<!-- Node1&#45;&gt;Node7 -->
<g id="edge33" class="edge">
<title>Node1&#45;&gt;Node7</title>
<path fill="none" stroke="midnightblue" d="M539.2,-299.76C453.22,-292.96 317.42,-279.35 202,-255 108.96,-235.37 0,-279.59 0,-184.5 0,-184.5 0,-184.5 0,-121 0,-56.04 89,-27.37 137.44,-16.57"/>
<polygon fill="midnightblue" stroke="midnightblue" points="138.33,-19.96 147.4,-14.48 136.89,-13.11 138.33,-19.96"/>
</g>
<!-- Node12 -->
<g id="node8" class="node">
<title>Node12</title>
<g id="a_node8"><a xlink:title=" ">
<polygon fill="white" stroke="#bfbfbf" points="215.5,-56.5 215.5,-75.5 266.5,-75.5 266.5,-56.5 215.5,-56.5"/>
<text text-anchor="middle" x="241" y="-63.5" font-family="Helvetica,sans-Serif" font-size="10.00">variant</text>
</a>
</g>
</g>
<!-- Node1&#45;&gt;Node12 -->
<g id="edge35" class="edge">
<title>Node1&#45;&gt;Node12</title>
<path fill="none" stroke="midnightblue" d="M539.32,-303.9C488.93,-299.27 426.08,-286.76 379,-255 315.74,-212.33 331.65,-171.59 284,-112 275.82,-101.77 265.74,-91.13 257.4,-82.77"/>
<polygon fill="midnightblue" stroke="midnightblue" points="259.63,-80.06 250.05,-75.54 254.72,-85.05 259.63,-80.06"/>
</g>
<!-- Node13 -->
<g id="node9" class="node">
<title>Node13</title>
<g id="a_node9"><a xlink:href="enum_8h.html" target="_top" xlink:title=" ">
<polygon fill="white" stroke="black" points="535,-112.5 535,-131.5 639,-131.5 639,-112.5 535,-112.5"/>
<text text-anchor="middle" x="587" y="-119.5" font-family="Helvetica,sans-Serif" font-size="10.00">emlabcpp/enum.h</text>
</a>
</g>
</g>
<!-- Node1&#45;&gt;Node13 -->
<g id="edge8" class="edge">
<title>Node1&#45;&gt;Node13</title>
<path fill="none" stroke="midnightblue" d="M617.88,-291.27C613.22,-281.35 607.38,-267.66 604,-255 593.5,-215.7 589.4,-168.03 587.87,-142.09"/>
<polygon fill="midnightblue" stroke="midnightblue" points="591.35,-141.61 587.33,-131.8 584.36,-141.97 591.35,-141.61"/>
</g>
<!-- Node14 -->
<g id="node10" class="node">
<title>Node14</title>
<g id="a_node10"><a xlink:href="decompose_8h.html" target="_top" xlink:title=" ">
<polygon fill="white" stroke="black" points="153.5,-168.5 153.5,-198.5 286.5,-198.5 286.5,-168.5 153.5,-168.5"/>
<text text-anchor="start" x="161.5" y="-186.5" font-family="Helvetica,sans-Serif" font-size="10.00">emlabcpp/experimental</text>
<text text-anchor="middle" x="220" y="-175.5" font-family="Helvetica,sans-Serif" font-size="10.00">/decompose.h</text>
</a>
</g>
</g>
<!-- Node1&#45;&gt;Node14 -->
<g id="edge10" class="edge">
<title>Node1&#45;&gt;Node14</title>
<path fill="none" stroke="midnightblue" d="M539.38,-304.99C471.8,-301.63 376.62,-290.18 301,-255 276.45,-243.58 253.69,-222.43 238.58,-206.26"/>
<polygon fill="midnightblue" stroke="midnightblue" points="241.12,-203.85 231.81,-198.79 235.93,-208.55 241.12,-203.85"/>
</g>
<!-- Node15 -->
<g id="node11" class="node">
<title>Node15</title>
<g id="a_node11"><a xlink:href="match_8h.html" target="_top" xlink:title=" ">
<polygon fill="white" stroke="black" points="28.5,-174 28.5,-193 135.5,-193 135.5,-174 28.5,-174"/>
<text text-anchor="middle" x="82" y="-181" font-family="Helvetica,sans-Serif" font-size="10.00">emlabcpp/match.h</text>
</a>
</g>
</g>
<!-- Node1&#45;&gt;Node15 -->
<g id="edge13" class="edge">
<title>Node1&#45;&gt;Node15</title>
<path fill="none" stroke="midnightblue" d="M539.21,-298.74C466.23,-291.73 359.09,-278.4 268,-255 210.06,-240.12 145.38,-213.1 109.6,-197.18"/>
<polygon fill="midnightblue" stroke="midnightblue" points="110.86,-193.91 100.3,-193 107.99,-200.3 110.86,-193.91"/>
</g>
<!-- Node17 -->
<g id="node13" class="node">
<title>Node17</title>
<g id="a_node13"><a xlink:href="range_8h.html" target="_top" xlink:title=" ">
<polygon fill="white" stroke="black" points="613,-235.5 613,-254.5 717,-254.5 717,-235.5 613,-235.5"/>
<text text-anchor="middle" x="665" y="-242.5" font-family="Helvetica,sans-Serif" font-size="10.00">emlabcpp/range.h</text>
</a>
</g>
</g>
<!-- Node1&#45;&gt;Node17 -->
<g id="edge17" class="edge">
<title>Node1&#45;&gt;Node17</title>
<path fill="none" stroke="midnightblue" d="M634.48,-291.4C640.17,-282.93 647.45,-272.1 653.48,-263.14"/>
<polygon fill="midnightblue" stroke="midnightblue" points="656.51,-264.91 659.18,-254.66 650.7,-261 656.51,-264.91"/>
</g>
<!-- Node21 -->
<g id="node15" class="node">
<title>Node21</title>
<g id="a_node15"><a xlink:href="types_8h.html" target="_top" xlink:title=" ">
<polygon fill="white" stroke="red" points="385,-174 385,-193 489,-193 489,-174 385,-174"/>
<text text-anchor="middle" x="437" y="-181" font-family="Helvetica,sans-Serif" font-size="10.00">emlabcpp/types.h</text>
</a>
</g>
</g>
<!-- Node1&#45;&gt;Node21 -->
<g id="edge19" class="edge">
<title>Node1&#45;&gt;Node21</title>
<path fill="none" stroke="midnightblue" d="M539.39,-296.25C486.74,-288.6 426.31,-275.59 410,-255 397.34,-239.03 410.02,-216.45 421.93,-201.18"/>
<polygon fill="midnightblue" stroke="midnightblue" points="424.92,-203.06 428.65,-193.14 419.55,-198.57 424.92,-203.06"/>
</g>
<!-- Node20 -->
<g id="node16" class="node">
<title>Node20</title>
<g id="a_node16"><a xlink:href="view_8h.html" target="_top" xlink:title=" ">
<polygon fill="white" stroke="black" points="419.5,-235.5 419.5,-254.5 518.5,-254.5 518.5,-235.5 419.5,-235.5"/>
<text text-anchor="middle" x="469" y="-242.5" font-family="Helvetica,sans-Serif" font-size="10.00">emlabcpp/view.h</text>
</a>
</g>
</g>
<!-- Node1&#45;&gt;Node20 -->
<g id="edge22" class="edge">
<title>Node1&#45;&gt;Node20</title>
<path fill="none" stroke="midnightblue" d="M588.03,-291.4C561.62,-281.33 526.44,-267.91 501.19,-258.28"/>
<polygon fill="midnightblue" stroke="midnightblue" points="502.29,-254.95 491.7,-254.66 499.8,-261.49 502.29,-254.95"/>
</g>
<!-- Node23 -->
<g id="node17" class="node">
<title>Node23</title>
<g id="a_node17"><a xlink:title=" ">
<polygon fill="white" stroke="#bfbfbf" points="514,-174 514,-193 554,-193 554,-174 514,-174"/>
<text text-anchor="middle" x="534" y="-181" font-family="Helvetica,sans-Serif" font-size="10.00">span</text>
</a>
</g>
</g>
<!-- Node1&#45;&gt;Node23 -->
<g id="edge32" class="edge">
<title>Node1&#45;&gt;Node23</title>
<path fill="none" stroke="midnightblue" d="M607,-291.35C595.73,-281.88 581.42,-268.68 571,-255 558.6,-238.72 548.16,-217.69 541.57,-202.85"/>
<polygon fill="midnightblue" stroke="midnightblue" points="544.63,-201.11 537.48,-193.29 538.2,-203.86 544.63,-201.11"/>
</g>
<!-- Node24 -->
<g id="node18" class="node">
<title>Node24</title>
<g id="a_node18"><a xlink:title=" ">
<polygon fill="white" stroke="#bfbfbf" points="735,-235.5 735,-254.5 779,-254.5 779,-235.5 735,-235.5"/>
<text text-anchor="middle" x="757" y="-242.5" font-family="Helvetica,sans-Serif" font-size="10.00">bitset</text>
</a>
</g>
</g>
<!-- Node1&#45;&gt;Node24 -->
<g id="edge25" class="edge">
<title>Node1&#45;&gt;Node24</title>
<path fill="none" stroke="midnightblue" d="M656.28,-291.4C678.23,-281.51 707.34,-268.38 728.62,-258.79"/>
<polygon fill="midnightblue" stroke="midnightblue" points="730.11,-261.96 737.79,-254.66 727.24,-255.58 730.11,-261.96"/>
</g>
<!-- Node25 -->
<g id="node19" class="node">
<title>Node25</title>
<g id="a_node19"><a xlink:title=" ">
<polygon fill="white" stroke="#bfbfbf" points="797.5,-235.5 797.5,-254.5 858.5,-254.5 858.5,-235.5 797.5,-235.5"/>
<text text-anchor="middle" x="828" y="-242.5" font-family="Helvetica,sans-Serif" font-size="10.00">charconv</text>
</a>
</g>
</g>
<!-- Node1&#45;&gt;Node25 -->
<g id="edge26" class="edge">
<title>Node1&#45;&gt;Node25</title>
<path fill="none" stroke="midnightblue" d="M672.85,-291.47C708.33,-281.08 756.09,-267.08 789.2,-257.37"/>
<polygon fill="midnightblue" stroke="midnightblue" points="790.37,-260.68 798.98,-254.51 788.4,-253.96 790.37,-260.68"/>
</g>
<!-- Node26 -->
<g id="node20" class="node">
<title>Node26</title>
<g id="a_node20"><a xlink:title=" ">
<polygon fill="white" stroke="#bfbfbf" points="877,-235.5 877,-254.5 927,-254.5 927,-235.5 877,-235.5"/>
<text text-anchor="middle" x="902" y="-242.5" font-family="Helvetica,sans-Serif" font-size="10.00">chrono</text>
</a>
</g>
</g>
<!-- Node1&#45;&gt;Node26 -->
<g id="edge27" class="edge">
<title>Node1&#45;&gt;Node26</title>
<path fill="none" stroke="midnightblue" d="M697.53,-291.49C743.49,-282.36 804.41,-269.82 866.77,-255.2"/>
<polygon fill="midnightblue" stroke="midnightblue" points="867.86,-258.54 876.79,-252.84 866.25,-251.73 867.86,-258.54"/>
</g>
<!-- Node27 -->
<g id="node21" class="node">
<title>Node27</title>
<g id="a_node21"><a xlink:title=" ">
<polygon fill="white" stroke="#bfbfbf" points="945,-235.5 945,-254.5 1013,-254.5 1013,-235.5 945,-235.5"/>
<text text-anchor="middle" x="979" y="-242.5" font-family="Helvetica,sans-Serif" font-size="10.00">filesystem</text>
</a>
</g>
</g>
<!-- Node1&#45;&gt;Node27 -->
<g id="edge28" class="edge">
<title>Node1&#45;&gt;Node27</title>
<path fill="none" stroke="midnightblue" d="M710.65,-292.66C770.77,-283.4 853.29,-270.19 934.82,-255.16"/>
<polygon fill="midnightblue" stroke="midnightblue" points="935.57,-258.58 944.76,-253.31 934.29,-251.69 935.57,-258.58"/>
</g>
<!-- Node28 -->
<g id="node22" class="node">
<title>Node28</title>
<g id="a_node22"><a xlink:title=" ">
<polygon fill="white" stroke="#bfbfbf" points="1031,-235.5 1031,-254.5 1069,-254.5 1069,-235.5 1031,-235.5"/>
<text text-anchor="middle" x="1050" y="-242.5" font-family="Helvetica,sans-Serif" font-size="10.00">map</text>
</a>
</g>
</g>
<!-- Node1&#45;&gt;Node28 -->
<g id="edge29" class="edge">
<title>Node1&#45;&gt;Node28</title>
<path fill="none" stroke="midnightblue" d="M710.58,-299.2C789.23,-292.37 909.01,-279.33 1021.07,-254.84"/>
<polygon fill="midnightblue" stroke="midnightblue" points="1021.84,-258.25 1030.85,-252.67 1020.33,-251.42 1021.84,-258.25"/>
</g>
<!-- Node29 -->
<g id="node23" class="node">
<title>Node29</title>
<g id="a_node23"><a xlink:title=" ">
<polygon fill="white" stroke="#bfbfbf" points="1087,-235.5 1087,-254.5 1143,-254.5 1143,-235.5 1087,-235.5"/>
<text text-anchor="middle" x="1115" y="-242.5" font-family="Helvetica,sans-Serif" font-size="10.00">optional</text>
</a>
</g>
</g>
<!-- Node1&#45;&gt;Node29 -->
<g id="edge30" class="edge">
<title>Node1&#45;&gt;Node29</title>
<path fill="none" stroke="midnightblue" d="M710.62,-299.23C799.83,-291.96 943.74,-278.13 1076.83,-255.01"/>
<polygon fill="midnightblue" stroke="midnightblue" points="1077.55,-258.43 1086.8,-253.25 1076.34,-251.54 1077.55,-258.43"/>
</g>
<!-- Node30 -->
<g id="node24" class="node">
<title>Node30</title>
<g id="a_node24"><a xlink:title=" ">
<polygon fill="white" stroke="#bfbfbf" points="1161,-235.5 1161,-254.5 1193,-254.5 1193,-235.5 1161,-235.5"/>
<text text-anchor="middle" x="1177" y="-242.5" font-family="Helvetica,sans-Serif" font-size="10.00">set</text>
</a>
</g>
</g>
<!-- Node1&#45;&gt;Node30 -->
<g id="edge31" class="edge">
<title>Node1&#45;&gt;Node30</title>
<path fill="none" stroke="midnightblue" d="M710.92,-303.84C813.94,-300.37 991.61,-289.73 1150.79,-254.73"/>
<polygon fill="midnightblue" stroke="midnightblue" points="1151.77,-258.1 1160.77,-252.5 1150.24,-251.27 1151.77,-258.1"/>
</g>
<!-- Node31 -->
<g id="node25" class="node">
<title>Node31</title>
<g id="a_node25"><a xlink:title=" ">
<polygon fill="white" stroke="#bfbfbf" points="1211.5,-235.5 1211.5,-254.5 1304.5,-254.5 1304.5,-235.5 1211.5,-235.5"/>
<text text-anchor="middle" x="1258" y="-242.5" font-family="Helvetica,sans-Serif" font-size="10.00">unordered_map</text>
</a>
</g>
</g>
<!-- Node1&#45;&gt;Node31 -->
<g id="edge34" class="edge">
<title>Node1&#45;&gt;Node31</title>
<path fill="none" stroke="midnightblue" d="M710.74,-299.93C821.58,-292.3 1020.75,-277.12 1201.34,-254.99"/>
<polygon fill="midnightblue" stroke="midnightblue" points="1201.79,-258.46 1211.28,-253.77 1200.93,-251.52 1201.79,-258.46"/>
</g>
<!-- Node3 -->
<g id="node3" class="node">
<title>Node3</title>
<g id="a_node3"><a xlink:href="types_2base_8h.html" target="_top" xlink:title=" ">
<polygon fill="white" stroke="red" points="434,-56.5 434,-75.5 564,-75.5 564,-56.5 434,-56.5"/>
<text text-anchor="middle" x="499" y="-63.5" font-family="Helvetica,sans-Serif" font-size="10.00">emlabcpp/types/base.h</text>
</a>
</g>
</g>
<!-- Node2&#45;&gt;Node3 -->
<g id="edge2" class="edge">
<title>Node2&#45;&gt;Node3</title>
<path fill="none" stroke="midnightblue" d="M415.91,-112.32C431.64,-103.74 455.94,-90.49 474.21,-80.52"/>
<polygon fill="midnightblue" stroke="midnightblue" points="476.03,-83.52 483.13,-75.65 472.68,-77.37 476.03,-83.52"/>
</g>
<!-- Node10 -->
<g id="node6" class="node">
<title>Node10</title>
<g id="a_node6"><a xlink:title=" ">
<polygon fill="white" stroke="#bfbfbf" points="356,-56.5 356,-75.5 416,-75.5 416,-56.5 356,-56.5"/>
<text text-anchor="middle" x="386" y="-63.5" font-family="Helvetica,sans-Serif" font-size="10.00">concepts</text>
</a>
</g>
</g>
<!-- Node2&#45;&gt;Node10 -->
<g id="edge5" class="edge">
<title>Node2&#45;&gt;Node10</title>
<path fill="none" stroke="midnightblue" d="M397.69,-112.08C395.83,-104.93 393.16,-94.64 390.85,-85.69"/>
<polygon fill="midnightblue" stroke="midnightblue" points="394.17,-84.55 388.27,-75.75 387.39,-86.31 394.17,-84.55"/>
</g>
<!-- Node11 -->
<g id="node7" class="node">
<title>Node11</title>
<g id="a_node7"><a xlink:title=" ">
<polygon fill="white" stroke="#bfbfbf" points="284.5,-56.5 284.5,-75.5 337.5,-75.5 337.5,-56.5 284.5,-56.5"/>
<text text-anchor="middle" x="311" y="-63.5" font-family="Helvetica,sans-Serif" font-size="10.00">iterator</text>
</a>
</g>
</g>
<!-- Node2&#45;&gt;Node11 -->
<g id="edge6" class="edge">
<title>Node2&#45;&gt;Node11</title>
<path fill="none" stroke="midnightblue" d="M385.7,-112.32C371.82,-103.9 350.51,-90.97 334.2,-81.07"/>
<polygon fill="midnightblue" stroke="midnightblue" points="335.63,-77.85 325.26,-75.65 332,-83.83 335.63,-77.85"/>
</g>
<!-- Node2&#45;&gt;Node12 -->
<g id="edge7" class="edge">
<title>Node2&#45;&gt;Node12</title>
<path fill="none" stroke="midnightblue" d="M374.81,-112.44C348.06,-103.36 305.6,-88.94 275.69,-78.78"/>
<polygon fill="midnightblue" stroke="midnightblue" points="276.67,-75.42 266.08,-75.52 274.42,-82.05 276.67,-75.42"/>
</g>
<!-- Node3&#45;&gt;Node7 -->
<g id="edge3" class="edge">
<title>Node3&#45;&gt;Node7</title>
<path fill="none" stroke="midnightblue" d="M446.55,-56.44C376.68,-45.04 255.31,-25.24 198.71,-16.01"/>
<polygon fill="midnightblue" stroke="midnightblue" points="199.04,-12.52 188.6,-14.36 197.91,-19.43 199.04,-12.52"/>
</g>
<!-- Node8 -->
<g id="node5" class="node">
<title>Node8</title>
<g id="a_node5"><a xlink:title=" ">
<polygon fill="white" stroke="#bfbfbf" points="510.5,-0.5 510.5,-19.5 579.5,-19.5 579.5,-0.5 510.5,-0.5"/>
<text text-anchor="middle" x="545" y="-7.5" font-family="Helvetica,sans-Serif" font-size="10.00">type_traits</text>
</a>
</g>
</g>
<!-- Node3&#45;&gt;Node8 -->
<g id="edge4" class="edge">
<title>Node3&#45;&gt;Node8</title>
<path fill="none" stroke="midnightblue" d="M506.6,-56.08C513.23,-48.3 523.02,-36.8 531.06,-27.37"/>
<polygon fill="midnightblue" stroke="midnightblue" points="533.73,-29.63 537.55,-19.75 528.4,-25.09 533.73,-29.63"/>
</g>
<!-- Node13&#45;&gt;Node8 -->
<g id="edge9" class="edge">
<title>Node13&#45;&gt;Node8</title>
<path fill="none" stroke="midnightblue" d="M586.09,-112.31C584.55,-99.57 580.79,-75.26 573,-56 569.04,-46.21 563,-36.15 557.54,-28.03"/>
<polygon fill="midnightblue" stroke="midnightblue" points="560.38,-25.98 551.77,-19.81 554.65,-30.01 560.38,-25.98"/>
</g>
<!-- Node14&#45;&gt;Node2 -->
<g id="edge11" class="edge">
<title>Node14&#45;&gt;Node2</title>
<path fill="none" stroke="midnightblue" d="M262.66,-168.4C293.63,-158.16 335.05,-144.47 364.28,-134.81"/>
<polygon fill="midnightblue" stroke="midnightblue" points="365.67,-138.03 374.07,-131.57 363.48,-131.39 365.67,-138.03"/>
</g>
<!-- Node14&#45;&gt;Node7 -->
<g id="edge12" class="edge">
<title>Node14&#45;&gt;Node7</title>
<path fill="none" stroke="midnightblue" d="M198.7,-168.38C187.27,-159.46 174.27,-146.84 168,-132 153.73,-98.26 158.9,-54.34 163.65,-29.77"/>
<polygon fill="midnightblue" stroke="midnightblue" points="167.14,-30.17 165.79,-19.66 160.29,-28.72 167.14,-30.17"/>
</g>
<!-- Node16 -->
<g id="node12" class="node">
<title>Node16</title>
<g id="a_node12"><a xlink:href="visit_8h.html" target="_top" xlink:title=" ">
<polygon fill="white" stroke="black" points="177,-112.5 177,-131.5 275,-131.5 275,-112.5 177,-112.5"/>
<text text-anchor="middle" x="226" y="-119.5" font-family="Helvetica,sans-Serif" font-size="10.00">emlabcpp/visit.h</text>
</a>
</g>
</g>
<!-- Node15&#45;&gt;Node16 -->
<g id="edge14" class="edge">
<title>Node15&#45;&gt;Node16</title>
<path fill="none" stroke="midnightblue" d="M102.63,-173.98C127.12,-163.86 168.15,-146.9 196.11,-135.35"/>
<polygon fill="midnightblue" stroke="midnightblue" points="197.5,-138.56 205.41,-131.51 194.83,-132.09 197.5,-138.56"/>
</g>
<!-- Node16&#45;&gt;Node7 -->
<g id="edge15" class="edge">
<title>Node16&#45;&gt;Node7</title>
<path fill="none" stroke="midnightblue" d="M221.45,-112.37C211.96,-94.38 189.91,-52.55 177.29,-28.63"/>
<polygon fill="midnightblue" stroke="midnightblue" points="180.29,-26.8 172.53,-19.59 174.1,-30.07 180.29,-26.8"/>
</g>
<!-- Node16&#45;&gt;Node12 -->
<g id="edge16" class="edge">
<title>Node16&#45;&gt;Node12</title>
<path fill="none" stroke="midnightblue" d="M228.48,-112.08C230.49,-104.85 233.39,-94.41 235.89,-85.4"/>
<polygon fill="midnightblue" stroke="midnightblue" points="239.26,-86.32 238.57,-75.75 232.52,-84.45 239.26,-86.32"/>
</g>
<!-- Node18 -->
<g id="node14" class="node">
<title>Node18</title>
<g id="a_node14"><a xlink:href="numeric_8h.html" target="_top" xlink:title=" ">
<polygon fill="white" stroke="red" points="613.5,-168.5 613.5,-198.5 722.5,-198.5 722.5,-168.5 613.5,-168.5"/>
<text text-anchor="start" x="621.5" y="-186.5" font-family="Helvetica,sans-Serif" font-size="10.00">emlabcpp/iterators</text>
<text text-anchor="middle" x="668" y="-175.5" font-family="Helvetica,sans-Serif" font-size="10.00">/numeric.h</text>
</a>
</g>
</g>
<!-- Node17&#45;&gt;Node18 -->
<g id="edge18" class="edge">
<title>Node17&#45;&gt;Node18</title>
<path fill="none" stroke="midnightblue" d="M665.43,-235.48C665.78,-228.47 666.3,-218.19 666.78,-208.7"/>
<polygon fill="midnightblue" stroke="midnightblue" points="670.28,-208.69 667.29,-198.52 663.29,-208.33 670.28,-208.69"/>
</g>
<!-- Node21&#45;&gt;Node2 -->
<g id="edge20" class="edge">
<title>Node21&#45;&gt;Node2</title>
<path fill="none" stroke="midnightblue" d="M431.7,-173.98C426.26,-165.23 417.64,-151.37 410.76,-140.31"/>
<polygon fill="midnightblue" stroke="midnightblue" points="413.54,-138.15 405.29,-131.51 407.6,-141.85 413.54,-138.15"/>
</g>
<!-- Node21&#45;&gt;Node3 -->
<g id="edge21" class="edge">
<title>Node21&#45;&gt;Node3</title>
<path fill="none" stroke="midnightblue" d="M443.03,-173.77C449.75,-163.87 460.76,-147.13 469,-132 477.44,-116.5 485.75,-98.19 491.48,-84.96"/>
<polygon fill="midnightblue" stroke="midnightblue" points="494.77,-86.16 495.47,-75.59 488.33,-83.42 494.77,-86.16"/>
</g>
<!-- Node20&#45;&gt;Node21 -->
<g id="edge23" class="edge">
<title>Node20&#45;&gt;Node21</title>
<path fill="none" stroke="midnightblue" d="M464.42,-235.48C459.76,-226.82 452.41,-213.15 446.49,-202.15"/>
<polygon fill="midnightblue" stroke="midnightblue" points="449.4,-200.16 441.58,-193.01 443.23,-203.47 449.4,-200.16"/>
</g>
<!-- Node20&#45;&gt;Node23 -->
<g id="edge24" class="edge">
<title>Node20&#45;&gt;Node23</title>
<path fill="none" stroke="midnightblue" d="M478.31,-235.48C488.45,-226.2 504.86,-211.17 517.25,-199.83"/>
<polygon fill="midnightblue" stroke="midnightblue" points="519.69,-202.34 524.7,-193.01 514.96,-197.18 519.69,-202.34"/>
</g>
</g>
</svg>
