<?xml version="1.0" encoding="UTF-8" standalone="no"?>
<!DOCTYPE svg PUBLIC "-//W3C//DTD SVG 1.1//EN"
 "http://www.w3.org/Graphics/SVG/1.1/DTD/svg11.dtd">
<!-- Generated by graphviz version 2.43.0 (0)
 -->
<!-- Title: include/emlabcpp/protocol/base.h Pages: 1 -->
<svg width="832pt" height="341pt"
 viewBox="0.00 0.00 831.50 341.00" xmlns="http://www.w3.org/2000/svg" xmlns:xlink="http://www.w3.org/1999/xlink">
<g id="graph0" class="graph" transform="scale(1 1) rotate(0) translate(4 337)">
<title>include/emlabcpp/protocol/base.h</title>
<polygon fill="white" stroke="transparent" points="-4,4 -4,-337 827.5,-337 827.5,4 -4,4"/>
<!-- Node1 -->
<g id="node1" class="node">
<title>Node1</title>
<g id="a_node1"><a xlink:title=" ">
<polygon fill="#bfbfbf" stroke="black" points="427,-302.5 427,-332.5 573,-332.5 573,-302.5 427,-302.5"/>
<text text-anchor="start" x="435" y="-320.5" font-family="Helvetica,sans-Serif" font-size="10.00">include/emlabcpp/protocol</text>
<text text-anchor="middle" x="500" y="-309.5" font-family="Helvetica,sans-Serif" font-size="10.00">/base.h</text>
</a>
</g>
</g>
<!-- Node2 -->
<g id="node2" class="node">
<title>Node2</title>
<g id="a_node2"><a xlink:href="bounded_8h.html" target="_top" xlink:title=" ">
<polygon fill="white" stroke="black" points="199.5,-185 199.5,-204 318.5,-204 318.5,-185 199.5,-185"/>
<text text-anchor="middle" x="259" y="-192" font-family="Helvetica,sans-Serif" font-size="10.00">emlabcpp/bounded.h</text>
</a>
</g>
</g>
<!-- Node1&#45;&gt;Node2 -->
<g id="edge1" class="edge">
<title>Node1&#45;&gt;Node2</title>
<path fill="none" stroke="midnightblue" d="M459.46,-302.45C434.12,-293.16 401.08,-280.13 373,-266 339.02,-248.9 301.95,-224.89 279.59,-209.77"/>
<polygon fill="midnightblue" stroke="midnightblue" points="281.47,-206.81 271.24,-204.07 277.52,-212.6 281.47,-206.81"/>
</g>
<!-- Node13 -->
<g id="node4" class="node">
<title>Node13</title>
<g id="a_node4"><a xlink:title=" ">
<polygon fill="white" stroke="#bfbfbf" points="286.5,-0.5 286.5,-19.5 337.5,-19.5 337.5,-0.5 286.5,-0.5"/>
<text text-anchor="middle" x="312" y="-7.5" font-family="Helvetica,sans-Serif" font-size="10.00">variant</text>
</a>
</g>
</g>
<!-- Node1&#45;&gt;Node13 -->
<g id="edge24" class="edge">
<title>Node1&#45;&gt;Node13</title>
<path fill="none" stroke="midnightblue" d="M426.76,-313.92C287.88,-307.01 0,-282.24 0,-195.5 0,-195.5 0,-195.5 0,-126.5 0,-68.12 194.53,-29.92 276.38,-16.43"/>
<polygon fill="midnightblue" stroke="midnightblue" points="277.15,-19.85 286.47,-14.8 276.04,-12.94 277.15,-19.85"/>
</g>
<!-- Node30 -->
<g id="node7" class="node">
<title>Node30</title>
<g id="a_node7"><a xlink:title=" ">
<polygon fill="white" stroke="#bfbfbf" points="460,-56.5 460,-75.5 504,-75.5 504,-56.5 460,-56.5"/>
<text text-anchor="middle" x="482" y="-63.5" font-family="Helvetica,sans-Serif" font-size="10.00">bitset</text>
</a>
</g>
</g>
<!-- Node1&#45;&gt;Node30 -->
<g id="edge21" class="edge">
<title>Node1&#45;&gt;Node30</title>
<path fill="none" stroke="midnightblue" d="M498.98,-302.37C495.93,-260.09 486.87,-134.49 483.39,-86.21"/>
<polygon fill="midnightblue" stroke="midnightblue" points="486.85,-85.65 482.64,-75.93 479.87,-86.16 486.85,-85.65"/>
</g>
<!-- Node9 -->
<g id="node9" class="node">
<title>Node9</title>
<g id="a_node9"><a xlink:title=" ">
<polygon fill="white" stroke="#bfbfbf" points="256.5,-118 256.5,-137 325.5,-137 325.5,-118 256.5,-118"/>
<text text-anchor="middle" x="291" y="-125" font-family="Helvetica,sans-Serif" font-size="10.00">type_traits</text>
</a>
</g>
</g>
<!-- Node1&#45;&gt;Node9 -->
<g id="edge23" class="edge">
<title>Node1&#45;&gt;Node9</title>
<path fill="none" stroke="midnightblue" d="M484.29,-302.37C446,-267.93 348.1,-179.86 308.26,-144.02"/>
<polygon fill="midnightblue" stroke="midnightblue" points="310.45,-141.29 300.68,-137.21 305.77,-146.5 310.45,-141.29"/>
</g>
<!-- Node38 -->
<g id="node10" class="node">
<title>Node38</title>
<g id="a_node10"><a xlink:href="protocol_2error_8h.html" target="_top" xlink:title=" ">
<polygon fill="white" stroke="black" points="545,-246.5 545,-265.5 687,-265.5 687,-246.5 545,-246.5"/>
<text text-anchor="middle" x="616" y="-253.5" font-family="Helvetica,sans-Serif" font-size="10.00">emlabcpp/protocol/error.h</text>
</a>
</g>
</g>
<!-- Node1&#45;&gt;Node38 -->
<g id="edge12" class="edge">
<title>Node1&#45;&gt;Node38</title>
<path fill="none" stroke="midnightblue" d="M527.49,-302.4C546.43,-292.68 571.44,-279.86 590.04,-270.31"/>
<polygon fill="midnightblue" stroke="midnightblue" points="591.82,-273.34 599.12,-265.66 588.63,-267.11 591.82,-273.34"/>
</g>
<!-- Node41 -->
<g id="node14" class="node">
<title>Node41</title>
<g id="a_node14"><a xlink:title=" ">
<polygon fill="white" stroke="#bfbfbf" points="737,-118 737,-137 787,-137 787,-118 737,-118"/>
<text text-anchor="middle" x="762" y="-125" font-family="Helvetica,sans-Serif" font-size="10.00">cstring</text>
</a>
</g>
</g>
<!-- Node1&#45;&gt;Node41 -->
<g id="edge22" class="edge">
<title>Node1&#45;&gt;Node41</title>
<path fill="none" stroke="midnightblue" d="M573.03,-312.07C612.96,-306.35 661.23,-293.69 696,-266 734.39,-235.43 751.78,-177.06 758.46,-147.16"/>
<polygon fill="midnightblue" stroke="midnightblue" points="761.92,-147.72 760.52,-137.22 755.07,-146.3 761.92,-147.72"/>
</g>
<!-- Node42 -->
<g id="node15" class="node">
<title>Node42</title>
<g id="a_node15"><a xlink:title=" ">
<polygon fill="white" stroke="#bfbfbf" points="794.5,-246.5 794.5,-265.5 823.5,-265.5 823.5,-246.5 794.5,-246.5"/>
<text text-anchor="middle" x="809" y="-253.5" font-family="Helvetica,sans-Serif" font-size="10.00">bit</text>
</a>
</g>
</g>
<!-- Node1&#45;&gt;Node42 -->
<g id="edge20" class="edge">
<title>Node1&#45;&gt;Node42</title>
<path fill="none" stroke="midnightblue" d="M573.03,-305.84C629.84,-296.95 710.42,-283 780,-266 781.47,-265.64 782.98,-265.25 784.5,-264.83"/>
<polygon fill="midnightblue" stroke="midnightblue" points="785.74,-268.12 794.34,-261.93 783.76,-261.4 785.74,-268.12"/>
</g>
<!-- Node3 -->
<g id="node3" class="node">
<title>Node3</title>
<g id="a_node3"><a xlink:href="concepts_8h.html" target="_top" xlink:title=" ">
<polygon fill="white" stroke="red" points="252,-56.5 252,-75.5 372,-75.5 372,-56.5 252,-56.5"/>
<text text-anchor="middle" x="312" y="-63.5" font-family="Helvetica,sans-Serif" font-size="10.00">emlabcpp/concepts.h</text>
</a>
</g>
</g>
<!-- Node2&#45;&gt;Node3 -->
<g id="edge2" class="edge">
<title>Node2&#45;&gt;Node3</title>
<path fill="none" stroke="midnightblue" d="M254.5,-184.84C247.11,-169.3 234.39,-136.07 247,-112 254.28,-98.11 268.01,-87.65 280.98,-80.33"/>
<polygon fill="midnightblue" stroke="midnightblue" points="282.93,-83.27 290.19,-75.55 279.7,-77.05 282.93,-83.27"/>
</g>
<!-- Node14 -->
<g id="node5" class="node">
<title>Node14</title>
<g id="a_node5"><a xlink:href="logging_8h.html" target="_top" xlink:title=" ">
<polygon fill="white" stroke="red" points="28.5,-112.5 28.5,-142.5 161.5,-142.5 161.5,-112.5 28.5,-112.5"/>
<text text-anchor="start" x="36.5" y="-130.5" font-family="Helvetica,sans-Serif" font-size="10.00">emlabcpp/experimental</text>
<text text-anchor="middle" x="95" y="-119.5" font-family="Helvetica,sans-Serif" font-size="10.00">/logging.h</text>
</a>
</g>
</g>
<!-- Node2&#45;&gt;Node14 -->
<g id="edge4" class="edge">
<title>Node2&#45;&gt;Node14</title>
<path fill="none" stroke="midnightblue" d="M237.22,-184.87C212.51,-175.07 171.52,-158.83 139.88,-146.29"/>
<polygon fill="midnightblue" stroke="midnightblue" points="140.98,-142.96 130.39,-142.53 138.4,-149.47 140.98,-142.96"/>
</g>
<!-- Node16 -->
<g id="node6" class="node">
<title>Node16</title>
<g id="a_node6"><a xlink:href="pretty__printer_8h.html" target="_top" xlink:title=" ">
<polygon fill="white" stroke="red" points="343.5,-112.5 343.5,-142.5 476.5,-142.5 476.5,-112.5 343.5,-112.5"/>
<text text-anchor="start" x="351.5" y="-130.5" font-family="Helvetica,sans-Serif" font-size="10.00">emlabcpp/experimental</text>
<text text-anchor="middle" x="410" y="-119.5" font-family="Helvetica,sans-Serif" font-size="10.00">/pretty_printer.h</text>
</a>
</g>
</g>
<!-- Node2&#45;&gt;Node16 -->
<g id="edge5" class="edge">
<title>Node2&#45;&gt;Node16</title>
<path fill="none" stroke="midnightblue" d="M279.05,-184.87C301.61,-175.16 338.89,-159.11 367.92,-146.61"/>
<polygon fill="midnightblue" stroke="midnightblue" points="369.61,-149.7 377.41,-142.53 366.84,-143.27 369.61,-149.7"/>
</g>
<!-- Node35 -->
<g id="node8" class="node">
<title>Node35</title>
<g id="a_node8"><a xlink:title=" ">
<polygon fill="white" stroke="#bfbfbf" points="165,-56.5 165,-75.5 221,-75.5 221,-56.5 165,-56.5"/>
<text text-anchor="middle" x="193" y="-63.5" font-family="Helvetica,sans-Serif" font-size="10.00">optional</text>
</a>
</g>
</g>
<!-- Node2&#45;&gt;Node35 -->
<g id="edge10" class="edge">
<title>Node2&#45;&gt;Node35</title>
<path fill="none" stroke="midnightblue" d="M254.46,-184.81C243.73,-164.22 216.58,-112.19 202.22,-84.68"/>
<polygon fill="midnightblue" stroke="midnightblue" points="205.3,-83 197.57,-75.76 199.09,-86.24 205.3,-83"/>
</g>
<!-- Node2&#45;&gt;Node9 -->
<g id="edge11" class="edge">
<title>Node2&#45;&gt;Node9</title>
<path fill="none" stroke="midnightblue" d="M263.32,-184.73C268.16,-174.89 276.15,-158.66 282.31,-146.16"/>
<polygon fill="midnightblue" stroke="midnightblue" points="285.48,-147.64 286.75,-137.13 279.2,-144.55 285.48,-147.64"/>
</g>
<!-- Node3&#45;&gt;Node13 -->
<g id="edge3" class="edge">
<title>Node3&#45;&gt;Node13</title>
<path fill="none" stroke="midnightblue" d="M312,-56.08C312,-49.01 312,-38.86 312,-29.99"/>
<polygon fill="midnightblue" stroke="midnightblue" points="315.5,-29.75 312,-19.75 308.5,-29.75 315.5,-29.75"/>
</g>
<!-- Node16&#45;&gt;Node3 -->
<g id="edge6" class="edge">
<title>Node16&#45;&gt;Node3</title>
<path fill="none" stroke="midnightblue" d="M386.78,-112.4C371.21,-102.95 350.8,-90.56 335.24,-81.11"/>
<polygon fill="midnightblue" stroke="midnightblue" points="336.62,-77.86 326.26,-75.66 332.99,-83.84 336.62,-77.86"/>
</g>
<!-- Node16&#45;&gt;Node13 -->
<g id="edge9" class="edge">
<title>Node16&#45;&gt;Node13</title>
<path fill="none" stroke="midnightblue" d="M406.89,-112.48C402.95,-97.25 394.93,-72.82 381,-56 370.03,-42.75 354.14,-32.02 340.38,-24.37"/>
<polygon fill="midnightblue" stroke="midnightblue" points="341.75,-21.13 331.27,-19.56 338.48,-27.33 341.75,-21.13"/>
</g>
<!-- Node16&#45;&gt;Node30 -->
<g id="edge7" class="edge">
<title>Node16&#45;&gt;Node30</title>
<path fill="none" stroke="midnightblue" d="M427.06,-112.4C438.06,-103.31 452.37,-91.49 463.62,-82.19"/>
<polygon fill="midnightblue" stroke="midnightblue" points="466.04,-84.73 471.52,-75.66 461.59,-79.33 466.04,-84.73"/>
</g>
<!-- Node16&#45;&gt;Node35 -->
<g id="edge8" class="edge">
<title>Node16&#45;&gt;Node35</title>
<path fill="none" stroke="midnightblue" d="M358.85,-112.47C319.73,-101.75 266.66,-87.2 231.19,-77.47"/>
<polygon fill="midnightblue" stroke="midnightblue" points="231.8,-74.01 221.23,-74.74 229.95,-80.76 231.8,-74.01"/>
</g>
<!-- Node39 -->
<g id="node11" class="node">
<title>Node39</title>
<g id="a_node11"><a xlink:href="string__buffer_8h.html" target="_top" xlink:title=" ">
<polygon fill="white" stroke="black" points="566.5,-179.5 566.5,-209.5 699.5,-209.5 699.5,-179.5 566.5,-179.5"/>
<text text-anchor="start" x="574.5" y="-197.5" font-family="Helvetica,sans-Serif" font-size="10.00">emlabcpp/experimental</text>
<text text-anchor="middle" x="633" y="-186.5" font-family="Helvetica,sans-Serif" font-size="10.00">/string_buffer.h</text>
</a>
</g>
</g>
<!-- Node38&#45;&gt;Node39 -->
<g id="edge13" class="edge">
<title>Node38&#45;&gt;Node39</title>
<path fill="none" stroke="midnightblue" d="M618.44,-246.48C620.46,-239.4 623.44,-228.97 626.17,-219.39"/>
<polygon fill="midnightblue" stroke="midnightblue" points="629.61,-220.1 628.99,-209.52 622.88,-218.18 629.61,-220.1"/>
</g>
<!-- Node40 -->
<g id="node12" class="node">
<title>Node40</title>
<g id="a_node12"><a xlink:title=" ">
<polygon fill="white" stroke="#bfbfbf" points="646,-118 646,-137 710,-137 710,-118 646,-118"/>
<text text-anchor="middle" x="678" y="-125" font-family="Helvetica,sans-Serif" font-size="10.00">algorithm</text>
</a>
</g>
</g>
<!-- Node38&#45;&gt;Node40 -->
<g id="edge18" class="edge">
<title>Node38&#45;&gt;Node40</title>
<path fill="none" stroke="midnightblue" d="M655.25,-246.48C675,-239.99 697.18,-228.84 709,-210 722.01,-189.25 706.19,-162.17 692.79,-145.06"/>
<polygon fill="midnightblue" stroke="midnightblue" points="695.25,-142.55 686.17,-137.1 689.87,-147.02 695.25,-142.55"/>
</g>
<!-- Node5 -->
<g id="node13" class="node">
<title>Node5</title>
<g id="a_node13"><a xlink:title=" ">
<polygon fill="white" stroke="#bfbfbf" points="568,-118 568,-137 610,-137 610,-118 568,-118"/>
<text text-anchor="middle" x="589" y="-125" font-family="Helvetica,sans-Serif" font-size="10.00">array</text>
</a>
</g>
</g>
<!-- Node38&#45;&gt;Node5 -->
<g id="edge19" class="edge">
<title>Node38&#45;&gt;Node5</title>
<path fill="none" stroke="midnightblue" d="M597.61,-246.47C583.9,-239 566.19,-226.71 558,-210 547.44,-188.43 561.87,-162.3 574.37,-145.54"/>
<polygon fill="midnightblue" stroke="midnightblue" points="577.46,-147.29 580.95,-137.29 571.98,-142.93 577.46,-147.29"/>
</g>
<!-- Node39&#45;&gt;Node16 -->
<g id="edge14" class="edge">
<title>Node39&#45;&gt;Node16</title>
<path fill="none" stroke="midnightblue" d="M584.89,-179.48C550.71,-169.51 504.64,-156.09 468.37,-145.51"/>
<polygon fill="midnightblue" stroke="midnightblue" points="468.99,-142.05 458.41,-142.61 467.03,-148.77 468.99,-142.05"/>
</g>
<!-- Node39&#45;&gt;Node40 -->
<g id="edge15" class="edge">
<title>Node39&#45;&gt;Node40</title>
<path fill="none" stroke="midnightblue" d="M642.76,-179.4C649.64,-169.46 658.89,-156.11 666.18,-145.57"/>
<polygon fill="midnightblue" stroke="midnightblue" points="669.17,-147.41 671.98,-137.19 663.41,-143.42 669.17,-147.41"/>
</g>
<!-- Node39&#45;&gt;Node5 -->
<g id="edge16" class="edge">
<title>Node39&#45;&gt;Node5</title>
<path fill="none" stroke="midnightblue" d="M623.45,-179.4C616.73,-169.46 607.69,-156.11 600.56,-145.57"/>
<polygon fill="midnightblue" stroke="midnightblue" points="603.39,-143.51 594.89,-137.19 597.59,-147.44 603.39,-143.51"/>
</g>
<!-- Node39&#45;&gt;Node41 -->
<g id="edge17" class="edge">
<title>Node39&#45;&gt;Node41</title>
<path fill="none" stroke="midnightblue" d="M660.99,-179.4C683.33,-168.14 714.37,-152.5 736.13,-141.54"/>
<polygon fill="midnightblue" stroke="midnightblue" points="737.76,-144.63 745.12,-137.01 734.61,-138.38 737.76,-144.63"/>
</g>
</g>
</svg>
