<?xml version="1.0" encoding="UTF-8" standalone="no"?>
<!DOCTYPE svg PUBLIC "-//W3C//DTD SVG 1.1//EN"
 "http://www.w3.org/Graphics/SVG/1.1/DTD/svg11.dtd">
<!-- Generated by graphviz version 2.43.0 (0)
 -->
<!-- Title: include/emlabcpp/protocol/json.h Pages: 1 -->
<svg width="995pt" height="274pt"
 viewBox="0.00 0.00 995.44 274.00" xmlns="http://www.w3.org/2000/svg" xmlns:xlink="http://www.w3.org/1999/xlink">
<g id="graph0" class="graph" transform="scale(1 1) rotate(0) translate(4 270)">
<title>include/emlabcpp/protocol/json.h</title>
<polygon fill="white" stroke="transparent" points="-4,4 -4,-270 991.44,-270 991.44,4 -4,4"/>
<!-- Node1 -->
<g id="node1" class="node">
<title>Node1</title>
<g id="a_node1"><a xlink:title=" ">
<polygon fill="#bfbfbf" stroke="black" points="596.5,-235.5 596.5,-265.5 742.5,-265.5 742.5,-235.5 596.5,-235.5"/>
<text text-anchor="start" x="604.5" y="-253.5" font-family="Helvetica,sans-Serif" font-size="10.00">include/emlabcpp/protocol</text>
<text text-anchor="middle" x="669.5" y="-242.5" font-family="Helvetica,sans-Serif" font-size="10.00">/json.h</text>
</a>
</g>
</g>
<!-- Node2 -->
<g id="node2" class="node">
<title>Node2</title>
<g id="a_node2"><a xlink:href="algorithm_8h.html" target="_top" xlink:title=" ">
<polygon fill="white" stroke="black" points="101.5,-123.5 101.5,-142.5 225.5,-142.5 225.5,-123.5 101.5,-123.5"/>
<text text-anchor="middle" x="163.5" y="-130.5" font-family="Helvetica,sans-Serif" font-size="10.00">emlabcpp/algorithm.h</text>
</a>
</g>
</g>
<!-- Node1&#45;&gt;Node2 -->
<g id="edge1" class="edge">
<title>Node1&#45;&gt;Node2</title>
<path fill="none" stroke="midnightblue" d="M607.96,-235.45C505.65,-212.1 302.76,-165.79 210.79,-144.79"/>
<polygon fill="midnightblue" stroke="midnightblue" points="211.45,-141.36 200.92,-142.54 209.89,-148.18 211.45,-141.36"/>
</g>
<!-- Node22 -->
<g id="node11" class="node">
<title>Node22</title>
<g id="a_node11"><a xlink:href="enum_8h.html" target="_top" xlink:title=" ">
<polygon fill="white" stroke="black" points="757.5,-179.5 757.5,-198.5 861.5,-198.5 861.5,-179.5 757.5,-179.5"/>
<text text-anchor="middle" x="809.5" y="-186.5" font-family="Helvetica,sans-Serif" font-size="10.00">emlabcpp/enum.h</text>
</a>
</g>
</g>
<!-- Node1&#45;&gt;Node22 -->
<g id="edge13" class="edge">
<title>Node1&#45;&gt;Node22</title>
<path fill="none" stroke="midnightblue" d="M702.68,-235.4C726.06,-225.46 757.11,-212.26 779.71,-202.66"/>
<polygon fill="midnightblue" stroke="midnightblue" points="781.29,-205.79 789.13,-198.66 778.56,-199.35 781.29,-205.79"/>
</g>
<!-- Node23 -->
<g id="node12" class="node">
<title>Node23</title>
<g id="a_node12"><a xlink:href="decl_8h.html" target="_top" xlink:title=" ">
<polygon fill="white" stroke="black" points="599.5,-179.5 599.5,-198.5 739.5,-198.5 739.5,-179.5 599.5,-179.5"/>
<text text-anchor="middle" x="669.5" y="-186.5" font-family="Helvetica,sans-Serif" font-size="10.00">emlabcpp/protocol/decl.h</text>
</a>
</g>
</g>
<!-- Node1&#45;&gt;Node23 -->
<g id="edge14" class="edge">
<title>Node1&#45;&gt;Node23</title>
<path fill="none" stroke="midnightblue" d="M669.5,-235.4C669.5,-227.47 669.5,-217.46 669.5,-208.86"/>
<polygon fill="midnightblue" stroke="midnightblue" points="673,-208.66 669.5,-198.66 666,-208.66 673,-208.66"/>
</g>
<!-- Node3 -->
<g id="node3" class="node">
<title>Node3</title>
<g id="a_node3"><a xlink:href="impl_8h.html" target="_top" xlink:title=" ">
<polygon fill="white" stroke="black" points="106,-56.5 106,-86.5 221,-86.5 221,-56.5 106,-56.5"/>
<text text-anchor="start" x="114" y="-74.5" font-family="Helvetica,sans-Serif" font-size="10.00">emlabcpp/algorithm</text>
<text text-anchor="middle" x="163.5" y="-63.5" font-family="Helvetica,sans-Serif" font-size="10.00">/impl.h</text>
</a>
</g>
</g>
<!-- Node2&#45;&gt;Node3 -->
<g id="edge2" class="edge">
<title>Node2&#45;&gt;Node3</title>
<path fill="none" stroke="midnightblue" d="M163.5,-123.48C163.5,-116.47 163.5,-106.19 163.5,-96.7"/>
<polygon fill="midnightblue" stroke="midnightblue" points="167,-96.52 163.5,-86.52 160,-96.52 167,-96.52"/>
</g>
<!-- Node4 -->
<g id="node4" class="node">
<title>Node4</title>
<g id="a_node4"><a xlink:href="types_8h.html" target="_top" xlink:title=" ">
<polygon fill="white" stroke="red" points="219.5,-0.5 219.5,-19.5 323.5,-19.5 323.5,-0.5 219.5,-0.5"/>
<text text-anchor="middle" x="271.5" y="-7.5" font-family="Helvetica,sans-Serif" font-size="10.00">emlabcpp/types.h</text>
</a>
</g>
</g>
<!-- Node2&#45;&gt;Node4 -->
<g id="edge7" class="edge">
<title>Node2&#45;&gt;Node4</title>
<path fill="none" stroke="midnightblue" d="M180.89,-123.41C195.52,-115.51 216.28,-102.67 230.5,-87 246.04,-69.88 257.74,-45.81 264.58,-29.37"/>
<polygon fill="midnightblue" stroke="midnightblue" points="267.93,-30.41 268.37,-19.82 261.43,-27.82 267.93,-30.41"/>
</g>
<!-- Node10 -->
<g id="node5" class="node">
<title>Node10</title>
<g id="a_node5"><a xlink:title=" ">
<polygon fill="white" stroke="#bfbfbf" points="120,-0.5 120,-19.5 161,-19.5 161,-0.5 120,-0.5"/>
<text text-anchor="middle" x="140.5" y="-7.5" font-family="Helvetica,sans-Serif" font-size="10.00">tuple</text>
</a>
</g>
</g>
<!-- Node2&#45;&gt;Node10 -->
<g id="edge12" class="edge">
<title>Node2&#45;&gt;Node10</title>
<path fill="none" stroke="midnightblue" d="M140.71,-123.47C125.17,-116.32 105.79,-104.44 96.5,-87 90.02,-74.84 91.3,-68.76 96.5,-56 101.3,-44.23 110.83,-33.86 119.79,-26.05"/>
<polygon fill="midnightblue" stroke="midnightblue" points="122.15,-28.64 127.72,-19.63 117.75,-23.2 122.15,-28.64"/>
</g>
<!-- Node17 -->
<g id="node6" class="node">
<title>Node17</title>
<g id="a_node6"><a xlink:href="bounded_8h.html" target="_top" xlink:title=" ">
<polygon fill="white" stroke="red" points="598,-62 598,-81 717,-81 717,-62 598,-62"/>
<text text-anchor="middle" x="657.5" y="-69" font-family="Helvetica,sans-Serif" font-size="10.00">emlabcpp/bounded.h</text>
</a>
</g>
</g>
<!-- Node2&#45;&gt;Node17 -->
<g id="edge5" class="edge">
<title>Node2&#45;&gt;Node17</title>
<path fill="none" stroke="midnightblue" d="M225.83,-124.07C228.76,-123.71 231.66,-123.35 234.5,-123 358.87,-107.69 503.91,-90.53 587.77,-80.67"/>
<polygon fill="midnightblue" stroke="midnightblue" points="588.42,-84.12 597.94,-79.47 587.6,-77.16 588.42,-84.12"/>
</g>
<!-- Node19 -->
<g id="node8" class="node">
<title>Node19</title>
<g id="a_node8"><a xlink:href="view_8h.html" target="_top" xlink:title=" ">
<polygon fill="white" stroke="black" points="343,-62 343,-81 442,-81 442,-62 343,-62"/>
<text text-anchor="middle" x="392.5" y="-69" font-family="Helvetica,sans-Serif" font-size="10.00">emlabcpp/view.h</text>
</a>
</g>
</g>
<!-- Node2&#45;&gt;Node19 -->
<g id="edge8" class="edge">
<title>Node2&#45;&gt;Node19</title>
<path fill="none" stroke="midnightblue" d="M196.31,-123.48C236.7,-112.98 305.38,-95.14 349.83,-83.59"/>
<polygon fill="midnightblue" stroke="midnightblue" points="350.95,-86.91 359.75,-81.01 349.19,-80.14 350.95,-86.91"/>
</g>
<!-- Node20 -->
<g id="node9" class="node">
<title>Node20</title>
<g id="a_node9"><a xlink:title=" ">
<polygon fill="white" stroke="#bfbfbf" points="278,-62 278,-81 325,-81 325,-62 278,-62"/>
<text text-anchor="middle" x="301.5" y="-69" font-family="Helvetica,sans-Serif" font-size="10.00">cmath</text>
</a>
</g>
</g>
<!-- Node2&#45;&gt;Node20 -->
<g id="edge10" class="edge">
<title>Node2&#45;&gt;Node20</title>
<path fill="none" stroke="midnightblue" d="M183.27,-123.48C206.64,-113.4 245.71,-96.55 272.5,-85"/>
<polygon fill="midnightblue" stroke="midnightblue" points="273.97,-88.18 281.76,-81.01 271.2,-81.75 273.97,-88.18"/>
</g>
<!-- Node21 -->
<g id="node10" class="node">
<title>Node21</title>
<g id="a_node10"><a xlink:title=" ">
<polygon fill="white" stroke="#bfbfbf" points="0,-62 0,-81 49,-81 49,-62 0,-62"/>
<text text-anchor="middle" x="24.5" y="-69" font-family="Helvetica,sans-Serif" font-size="10.00">cstdlib</text>
</a>
</g>
</g>
<!-- Node2&#45;&gt;Node21 -->
<g id="edge11" class="edge">
<title>Node2&#45;&gt;Node21</title>
<path fill="none" stroke="midnightblue" d="M143.58,-123.48C120.05,-113.4 80.69,-96.55 53.71,-85"/>
<polygon fill="midnightblue" stroke="midnightblue" points="54.95,-81.73 44.38,-81.01 52.19,-88.16 54.95,-81.73"/>
</g>
<!-- Node3&#45;&gt;Node4 -->
<g id="edge3" class="edge">
<title>Node3&#45;&gt;Node4</title>
<path fill="none" stroke="midnightblue" d="M189.09,-56.4C206.57,-46.77 229.59,-34.09 246.86,-24.58"/>
<polygon fill="midnightblue" stroke="midnightblue" points="248.72,-27.55 255.79,-19.66 245.34,-21.42 248.72,-27.55"/>
</g>
<!-- Node3&#45;&gt;Node10 -->
<g id="edge4" class="edge">
<title>Node3&#45;&gt;Node10</title>
<path fill="none" stroke="midnightblue" d="M158.05,-56.4C154.88,-48.2 150.85,-37.78 147.46,-28.99"/>
<polygon fill="midnightblue" stroke="midnightblue" points="150.72,-27.72 143.85,-19.66 144.19,-30.25 150.72,-27.72"/>
</g>
<!-- Node18 -->
<g id="node7" class="node">
<title>Node18</title>
<g id="a_node7"><a xlink:title=" ">
<polygon fill="white" stroke="#bfbfbf" points="629.5,-0.5 629.5,-19.5 685.5,-19.5 685.5,-0.5 629.5,-0.5"/>
<text text-anchor="middle" x="657.5" y="-7.5" font-family="Helvetica,sans-Serif" font-size="10.00">optional</text>
</a>
</g>
</g>
<!-- Node17&#45;&gt;Node18 -->
<g id="edge6" class="edge">
<title>Node17&#45;&gt;Node18</title>
<path fill="none" stroke="midnightblue" d="M657.5,-61.98C657.5,-53.58 657.5,-40.48 657.5,-29.66"/>
<polygon fill="midnightblue" stroke="midnightblue" points="661,-29.51 657.5,-19.51 654,-29.51 661,-29.51"/>
</g>
<!-- Node19&#45;&gt;Node4 -->
<g id="edge9" class="edge">
<title>Node19&#45;&gt;Node4</title>
<path fill="none" stroke="midnightblue" d="M375.16,-61.98C354.95,-52.03 321.31,-35.49 297.86,-23.96"/>
<polygon fill="midnightblue" stroke="midnightblue" points="299.32,-20.78 288.8,-19.51 296.23,-27.06 299.32,-20.78"/>
</g>
<!-- Node23&#45;&gt;Node4 -->
<g id="edge26" class="edge">
<title>Node23&#45;&gt;Node4</title>
<path fill="none" stroke="midnightblue" d="M653.73,-179.43C637.5,-170.55 611.54,-156.13 589.5,-143 527.22,-105.88 518.17,-84.48 451.5,-56 413.89,-39.93 369.31,-28.73 333.92,-21.53"/>
<polygon fill="midnightblue" stroke="midnightblue" points="334.22,-18.02 323.73,-19.51 332.86,-24.88 334.22,-18.02"/>
</g>
<!-- Node23&#45;&gt;Node18 -->
<g id="edge27" class="edge">
<title>Node23&#45;&gt;Node18</title>
<path fill="none" stroke="midnightblue" d="M738.99,-179.49C823.43,-168.84 955.69,-151.03 963.5,-143 990.55,-115.2 995.9,-85.32 970.5,-56 935.35,-15.43 771.26,-10.58 695.73,-10.56"/>
<polygon fill="midnightblue" stroke="midnightblue" points="695.68,-7.06 685.69,-10.58 695.69,-14.06 695.68,-7.06"/>
</g>
<!-- Node24 -->
<g id="node13" class="node">
<title>Node24</title>
<g id="a_node13"><a xlink:href="protocol_2base_8h.html" target="_top" xlink:title=" ">
<polygon fill="white" stroke="red" points="598,-123.5 598,-142.5 741,-142.5 741,-123.5 598,-123.5"/>
<text text-anchor="middle" x="669.5" y="-130.5" font-family="Helvetica,sans-Serif" font-size="10.00">emlabcpp/protocol/base.h</text>
</a>
</g>
</g>
<!-- Node23&#45;&gt;Node24 -->
<g id="edge15" class="edge">
<title>Node23&#45;&gt;Node24</title>
<path fill="none" stroke="midnightblue" d="M669.5,-179.08C669.5,-172.01 669.5,-161.86 669.5,-152.99"/>
<polygon fill="midnightblue" stroke="midnightblue" points="673,-152.75 669.5,-142.75 666,-152.75 673,-152.75"/>
</g>
<!-- Node25 -->
<g id="node14" class="node">
<title>Node25</title>
<g id="a_node14"><a xlink:href="protocol_2error_8h.html" target="_top" xlink:title=" ">
<polygon fill="white" stroke="red" points="735.5,-62 735.5,-81 877.5,-81 877.5,-62 735.5,-62"/>
<text text-anchor="middle" x="806.5" y="-69" font-family="Helvetica,sans-Serif" font-size="10.00">emlabcpp/protocol/error.h</text>
</a>
</g>
</g>
<!-- Node23&#45;&gt;Node25 -->
<g id="edge19" class="edge">
<title>Node23&#45;&gt;Node25</title>
<path fill="none" stroke="midnightblue" d="M689.85,-179.43C707.12,-171.54 731.97,-158.71 750.5,-143 768.86,-127.43 785.4,-105.07 795.66,-89.73"/>
<polygon fill="midnightblue" stroke="midnightblue" points="798.69,-91.51 801.2,-81.21 792.82,-87.69 798.69,-91.51"/>
</g>
<!-- Node15 -->
<g id="node15" class="node">
<title>Node15</title>
<g id="a_node15"><a xlink:title=" ">
<polygon fill="white" stroke="#bfbfbf" points="910,-62 910,-81 961,-81 961,-62 910,-62"/>
<text text-anchor="middle" x="935.5" y="-69" font-family="Helvetica,sans-Serif" font-size="10.00">variant</text>
</a>
</g>
</g>
<!-- Node23&#45;&gt;Node15 -->
<g id="edge28" class="edge">
<title>Node23&#45;&gt;Node15</title>
<path fill="none" stroke="midnightblue" d="M735.13,-179.5C814.85,-168.86 939.65,-151.05 946.5,-143 958.88,-128.45 952.35,-105.84 945.2,-90.17"/>
<polygon fill="midnightblue" stroke="midnightblue" points="948.23,-88.39 940.61,-81.03 941.97,-91.53 948.23,-88.39"/>
</g>
<!-- Node29 -->
<g id="node16" class="node">
<title>Node29</title>
<g id="a_node16"><a xlink:href="message_8h.html" target="_top" xlink:title=" ">
<polygon fill="white" stroke="red" points="377.5,-123.5 377.5,-142.5 541.5,-142.5 541.5,-123.5 377.5,-123.5"/>
<text text-anchor="middle" x="459.5" y="-130.5" font-family="Helvetica,sans-Serif" font-size="10.00">emlabcpp/protocol/message.h</text>
</a>
</g>
</g>
<!-- Node23&#45;&gt;Node29 -->
<g id="edge20" class="edge">
<title>Node23&#45;&gt;Node29</title>
<path fill="none" stroke="midnightblue" d="M636.22,-179.44C600.05,-170.14 542.12,-155.25 502.52,-145.06"/>
<polygon fill="midnightblue" stroke="midnightblue" points="503.18,-141.62 492.62,-142.52 501.43,-148.4 503.18,-141.62"/>
</g>
<!-- Node30 -->
<g id="node17" class="node">
<title>Node30</title>
<g id="a_node17"><a xlink:href="quantity_8h.html" target="_top" xlink:title=" ">
<polygon fill="white" stroke="red" points="243.5,-123.5 243.5,-142.5 359.5,-142.5 359.5,-123.5 243.5,-123.5"/>
<text text-anchor="middle" x="301.5" y="-130.5" font-family="Helvetica,sans-Serif" font-size="10.00">emlabcpp/quantity.h</text>
</a>
</g>
</g>
<!-- Node23&#45;&gt;Node30 -->
<g id="edge23" class="edge">
<title>Node23&#45;&gt;Node30</title>
<path fill="none" stroke="midnightblue" d="M611.19,-179.44C545.51,-169.81 438.91,-154.16 369.5,-143.98"/>
<polygon fill="midnightblue" stroke="midnightblue" points="369.94,-140.51 359.54,-142.52 368.92,-147.43 369.94,-140.51"/>
</g>
<!-- Node34 -->
<g id="node18" class="node">
<title>Node34</title>
<g id="a_node18"><a xlink:href="static__vector_8h.html" target="_top" xlink:title=" ">
<polygon fill="white" stroke="red" points="798,-123.5 798,-142.5 937,-142.5 937,-123.5 798,-123.5"/>
<text text-anchor="middle" x="867.5" y="-130.5" font-family="Helvetica,sans-Serif" font-size="10.00">emlabcpp/static_vector.h</text>
</a>
</g>
</g>
<!-- Node23&#45;&gt;Node34 -->
<g id="edge25" class="edge">
<title>Node23&#45;&gt;Node34</title>
<path fill="none" stroke="midnightblue" d="M700.87,-179.44C734.76,-170.2 788.9,-155.44 826.22,-145.26"/>
<polygon fill="midnightblue" stroke="midnightblue" points="827.55,-148.52 836.27,-142.52 825.7,-141.77 827.55,-148.52"/>
</g>
<!-- Node24&#45;&gt;Node17 -->
<g id="edge16" class="edge">
<title>Node24&#45;&gt;Node17</title>
<path fill="none" stroke="midnightblue" d="M667.78,-123.48C666.07,-114.99 663.39,-101.7 661.2,-90.82"/>
<polygon fill="midnightblue" stroke="midnightblue" points="664.62,-90.12 659.22,-81.01 657.76,-91.5 664.62,-90.12"/>
</g>
<!-- Node24&#45;&gt;Node25 -->
<g id="edge17" class="edge">
<title>Node24&#45;&gt;Node25</title>
<path fill="none" stroke="midnightblue" d="M689.13,-123.48C712.32,-113.4 751.12,-96.55 777.71,-85"/>
<polygon fill="midnightblue" stroke="midnightblue" points="779.13,-88.2 786.91,-81.01 776.34,-81.78 779.13,-88.2"/>
</g>
<!-- Node24&#45;&gt;Node15 -->
<g id="edge18" class="edge">
<title>Node24&#45;&gt;Node15</title>
<path fill="none" stroke="midnightblue" d="M716.32,-123.46C760.44,-115.13 828.29,-101.62 886.5,-87 890.93,-85.89 895.55,-84.64 900.12,-83.35"/>
<polygon fill="midnightblue" stroke="midnightblue" points="901.3,-86.65 909.93,-80.51 899.35,-79.93 901.3,-86.65"/>
</g>
<!-- Node29&#45;&gt;Node18 -->
<g id="edge22" class="edge">
<title>Node29&#45;&gt;Node18</title>
<path fill="none" stroke="midnightblue" d="M473.42,-123.49C507.14,-102.89 593.43,-50.15 634.76,-24.89"/>
<polygon fill="midnightblue" stroke="midnightblue" points="636.62,-27.86 643.33,-19.66 632.97,-21.89 636.62,-27.86"/>
</g>
<!-- Node29&#45;&gt;Node19 -->
<g id="edge21" class="edge">
<title>Node29&#45;&gt;Node19</title>
<path fill="none" stroke="midnightblue" d="M449.9,-123.48C439.45,-114.2 422.53,-99.17 409.76,-87.83"/>
<polygon fill="midnightblue" stroke="midnightblue" points="411.88,-85.03 402.08,-81.01 407.23,-90.27 411.88,-85.03"/>
</g>
<!-- Node30&#45;&gt;Node20 -->
<g id="edge24" class="edge">
<title>Node30&#45;&gt;Node20</title>
<path fill="none" stroke="midnightblue" d="M301.5,-123.48C301.5,-115.08 301.5,-101.98 301.5,-91.16"/>
<polygon fill="midnightblue" stroke="midnightblue" points="305,-91.01 301.5,-81.01 298,-91.01 305,-91.01"/>
</g>
</g>
</svg>
