<?xml version="1.0" encoding="UTF-8" standalone="no"?>
<!DOCTYPE svg PUBLIC "-//W3C//DTD SVG 1.1//EN"
 "http://www.w3.org/Graphics/SVG/1.1/DTD/svg11.dtd">
<!-- Generated by graphviz version 2.43.0 (0)
 -->
<!-- Title: include/emlabcpp/protocol.h Pages: 1 -->
<svg width="414pt" height="207pt"
 viewBox="0.00 0.00 413.50 207.00" xmlns="http://www.w3.org/2000/svg" xmlns:xlink="http://www.w3.org/1999/xlink">
<g id="graph0" class="graph" transform="scale(1 1) rotate(0) translate(4 203)">
<title>include/emlabcpp/protocol.h</title>
<polygon fill="white" stroke="transparent" points="-4,4 -4,-203 409.5,-203 409.5,4 -4,4"/>
<!-- Node1 -->
<g id="node1" class="node">
<title>Node1</title>
<g id="a_node1"><a xlink:title=" ">
<polygon fill="#bfbfbf" stroke="black" points="156,-179.5 156,-198.5 311,-198.5 311,-179.5 156,-179.5"/>
<text text-anchor="middle" x="233.5" y="-186.5" font-family="Helvetica,sans-Serif" font-size="10.00">include/emlabcpp/protocol.h</text>
</a>
</g>
</g>
<!-- Node2 -->
<g id="node2" class="node">
<title>Node2</title>
<g id="a_node2"><a xlink:href="command__group_8h.html" target="_top" xlink:title=" ">
<polygon fill="white" stroke="black" points="47,-112.5 47,-142.5 206,-142.5 206,-112.5 47,-112.5"/>
<text text-anchor="start" x="55" y="-130.5" font-family="Helvetica,sans-Serif" font-size="10.00">emlabcpp/protocol/command</text>
<text text-anchor="middle" x="126.5" y="-119.5" font-family="Helvetica,sans-Serif" font-size="10.00">_group.h</text>
</a>
</g>
</g>
<!-- Node1&#45;&gt;Node2 -->
<g id="edge1" class="edge">
<title>Node1&#45;&gt;Node2</title>
<path fill="none" stroke="midnightblue" d="M218.17,-179.48C203.2,-171.15 179.92,-158.21 160.57,-147.45"/>
<polygon fill="midnightblue" stroke="midnightblue" points="162.16,-144.32 151.72,-142.52 158.76,-150.44 162.16,-144.32"/>
</g>
<!-- Node5 -->
<g id="node4" class="node">
<title>Node5</title>
<g id="a_node4"><a xlink:href="decl_8h.html" target="_top" xlink:title=" ">
<polygon fill="white" stroke="red" points="163.5,-56.5 163.5,-75.5 303.5,-75.5 303.5,-56.5 163.5,-56.5"/>
<text text-anchor="middle" x="233.5" y="-63.5" font-family="Helvetica,sans-Serif" font-size="10.00">emlabcpp/protocol/decl.h</text>
</a>
</g>
</g>
<!-- Node1&#45;&gt;Node5 -->
<g id="edge6" class="edge">
<title>Node1&#45;&gt;Node5</title>
<path fill="none" stroke="midnightblue" d="M233.5,-179.3C233.5,-159.85 233.5,-112.49 233.5,-85.9"/>
<polygon fill="midnightblue" stroke="midnightblue" points="237,-85.62 233.5,-75.62 230,-85.62 237,-85.62"/>
</g>
<!-- Node42 -->
<g id="node6" class="node">
<title>Node42</title>
<g id="a_node6"><a xlink:href="tuple_8h.html" target="_top" xlink:title=" ">
<polygon fill="white" stroke="black" points="261.5,-118 261.5,-137 405.5,-137 405.5,-118 261.5,-118"/>
<text text-anchor="middle" x="333.5" y="-125" font-family="Helvetica,sans-Serif" font-size="10.00">emlabcpp/protocol/tuple.h</text>
</a>
</g>
</g>
<!-- Node1&#45;&gt;Node42 -->
<g id="edge7" class="edge">
<title>Node1&#45;&gt;Node42</title>
<path fill="none" stroke="midnightblue" d="M247.83,-179.48C264.16,-169.75 291.1,-153.73 310.41,-142.24"/>
<polygon fill="midnightblue" stroke="midnightblue" points="312.39,-145.13 319.2,-137.01 308.82,-139.11 312.39,-145.13"/>
</g>
<!-- Node3 -->
<g id="node3" class="node">
<title>Node3</title>
<g id="a_node3"><a xlink:href="assert_8h.html" target="_top" xlink:title=" ">
<polygon fill="white" stroke="red" points="0,-56.5 0,-75.5 107,-75.5 107,-56.5 0,-56.5"/>
<text text-anchor="middle" x="53.5" y="-63.5" font-family="Helvetica,sans-Serif" font-size="10.00">emlabcpp/assert.h</text>
</a>
</g>
</g>
<!-- Node2&#45;&gt;Node3 -->
<g id="edge2" class="edge">
<title>Node2&#45;&gt;Node3</title>
<path fill="none" stroke="midnightblue" d="M109.2,-112.4C98.05,-103.31 83.55,-91.49 72.14,-82.19"/>
<polygon fill="midnightblue" stroke="midnightblue" points="74.08,-79.26 64.12,-75.66 69.66,-84.69 74.08,-79.26"/>
</g>
<!-- Node2&#45;&gt;Node5 -->
<g id="edge3" class="edge">
<title>Node2&#45;&gt;Node5</title>
<path fill="none" stroke="midnightblue" d="M151.86,-112.4C169.17,-102.77 191.98,-90.09 209.08,-80.58"/>
<polygon fill="midnightblue" stroke="midnightblue" points="210.89,-83.58 217.93,-75.66 207.49,-77.46 210.89,-83.58"/>
</g>
<!-- Node26 -->
<g id="node5" class="node">
<title>Node26</title>
<g id="a_node5"><a xlink:href="types_8h.html" target="_top" xlink:title=" ">
<polygon fill="white" stroke="red" points="132.5,-0.5 132.5,-19.5 236.5,-19.5 236.5,-0.5 132.5,-0.5"/>
<text text-anchor="middle" x="184.5" y="-7.5" font-family="Helvetica,sans-Serif" font-size="10.00">emlabcpp/types.h</text>
</a>
</g>
</g>
<!-- Node2&#45;&gt;Node26 -->
<g id="edge5" class="edge">
<title>Node2&#45;&gt;Node26</title>
<path fill="none" stroke="midnightblue" d="M131.14,-112.34C136.12,-97.82 144.65,-74.78 154.5,-56 159.57,-46.33 166.22,-36.17 171.97,-27.95"/>
<polygon fill="midnightblue" stroke="midnightblue" points="174.96,-29.79 177.95,-19.63 169.27,-25.7 174.96,-29.79"/>
</g>
<!-- Node5&#45;&gt;Node26 -->
<g id="edge4" class="edge">
<title>Node5&#45;&gt;Node26</title>
<path fill="none" stroke="midnightblue" d="M225.41,-56.08C218.34,-48.3 207.91,-36.8 199.35,-27.37"/>
<polygon fill="midnightblue" stroke="midnightblue" points="201.75,-24.8 192.44,-19.75 196.57,-29.51 201.75,-24.8"/>
</g>
<!-- Node42&#45;&gt;Node5 -->
<g id="edge8" class="edge">
<title>Node42&#45;&gt;Node5</title>
<path fill="none" stroke="midnightblue" d="M319.17,-117.98C302.84,-108.25 275.9,-92.23 256.59,-80.74"/>
<polygon fill="midnightblue" stroke="midnightblue" points="258.18,-77.61 247.8,-75.51 254.61,-83.63 258.18,-77.61"/>
</g>
</g>
</svg>
