<?xml version="1.0" encoding="UTF-8" standalone="no"?>
<!DOCTYPE svg PUBLIC "-//W3C//DTD SVG 1.1//EN"
 "http://www.w3.org/Graphics/SVG/1.1/DTD/svg11.dtd">
<!-- Generated by graphviz version 2.43.0 (0)
 -->
<!-- Title: include/emlabcpp/protocol/base.hpp Pages: 1 -->
<svg width="640pt" height="218pt"
 viewBox="0.00 0.00 639.50 218.00" xmlns="http://www.w3.org/2000/svg" xmlns:xlink="http://www.w3.org/1999/xlink">
<g id="graph0" class="graph" transform="scale(1 1) rotate(0) translate(4 214)">
<title>include/emlabcpp/protocol/base.hpp</title>
<polygon fill="white" stroke="transparent" points="-4,4 -4,-214 635.5,-214 635.5,4 -4,4"/>
<!-- Node1 -->
<g id="node1" class="node">
<title>Node1</title>
<g id="a_node1"><a xlink:title=" ">
<polygon fill="#bfbfbf" stroke="black" points="260.5,-179.5 260.5,-209.5 406.5,-209.5 406.5,-179.5 260.5,-179.5"/>
<text text-anchor="start" x="268.5" y="-197.5" font-family="Helvetica,sans-Serif" font-size="10.00">include/emlabcpp/protocol</text>
<text text-anchor="middle" x="333.5" y="-186.5" font-family="Helvetica,sans-Serif" font-size="10.00">/base.hpp</text>
</a>
</g>
</g>
<!-- Node2 -->
<g id="node2" class="node">
<title>Node2</title>
<g id="a_node2"><a xlink:href="bounded_8hpp.html" target="_top" xlink:title=" ">
<polygon fill="white" stroke="black" points="121,-123.5 121,-142.5 210,-142.5 210,-123.5 121,-123.5"/>
<text text-anchor="middle" x="165.5" y="-130.5" font-family="Helvetica,sans-Serif" font-size="10.00">../bounded.hpp</text>
</a>
</g>
</g>
<!-- Node1&#45;&gt;Node2 -->
<g id="edge1" class="edge">
<title>Node1&#45;&gt;Node2</title>
<path fill="none" stroke="midnightblue" d="M293.69,-179.4C265,-169.24 226.69,-155.67 199.44,-146.02"/>
<polygon fill="midnightblue" stroke="midnightblue" points="200.54,-142.7 189.95,-142.66 198.2,-149.3 200.54,-142.7"/>
</g>
<!-- Node13 -->
<g id="node4" class="node">
<title>Node13</title>
<g id="a_node4"><a xlink:title=" ">
<polygon fill="white" stroke="#bfbfbf" points="0,-0.5 0,-19.5 51,-19.5 51,-0.5 0,-0.5"/>
<text text-anchor="middle" x="25.5" y="-7.5" font-family="Helvetica,sans-Serif" font-size="10.00">variant</text>
</a>
</g>
</g>
<!-- Node1&#45;&gt;Node13 -->
<g id="edge17" class="edge">
<title>Node1&#45;&gt;Node13</title>
<path fill="none" stroke="midnightblue" d="M260.3,-180.88C172.74,-163.98 34.63,-130.96 8.5,-87 -2.26,-68.91 6.36,-44.71 14.76,-28.53"/>
<polygon fill="midnightblue" stroke="midnightblue" points="17.92,-30.04 19.79,-19.61 11.83,-26.6 17.92,-30.04"/>
</g>
<!-- Node9 -->
<g id="node6" class="node">
<title>Node9</title>
<g id="a_node6"><a xlink:title=" ">
<polygon fill="white" stroke="#bfbfbf" points="198,-62 198,-81 267,-81 267,-62 198,-62"/>
<text text-anchor="middle" x="232.5" y="-69" font-family="Helvetica,sans-Serif" font-size="10.00">type_traits</text>
</a>
</g>
</g>
<!-- Node1&#45;&gt;Node9 -->
<g id="edge16" class="edge">
<title>Node1&#45;&gt;Node9</title>
<path fill="none" stroke="midnightblue" d="M321.52,-179.14C302.62,-156.51 266.02,-112.65 246.14,-88.84"/>
<polygon fill="midnightblue" stroke="midnightblue" points="248.73,-86.49 239.64,-81.05 243.36,-90.97 248.73,-86.49"/>
</g>
<!-- Node15 -->
<g id="node7" class="node">
<title>Node15</title>
<g id="a_node7"><a xlink:href="error_8hpp.html" target="_top" xlink:title=" ">
<polygon fill="white" stroke="black" points="300.5,-123.5 300.5,-142.5 366.5,-142.5 366.5,-123.5 300.5,-123.5"/>
<text text-anchor="middle" x="333.5" y="-130.5" font-family="Helvetica,sans-Serif" font-size="10.00">./error.hpp</text>
</a>
</g>
</g>
<!-- Node1&#45;&gt;Node15 -->
<g id="edge6" class="edge">
<title>Node1&#45;&gt;Node15</title>
<path fill="none" stroke="midnightblue" d="M333.5,-179.4C333.5,-171.47 333.5,-161.46 333.5,-152.86"/>
<polygon fill="midnightblue" stroke="midnightblue" points="337,-152.66 333.5,-142.66 330,-152.66 337,-152.66"/>
</g>
<!-- Node18 -->
<g id="node11" class="node">
<title>Node18</title>
<g id="a_node11"><a xlink:title=" ">
<polygon fill="white" stroke="#bfbfbf" points="472.5,-0.5 472.5,-19.5 522.5,-19.5 522.5,-0.5 472.5,-0.5"/>
<text text-anchor="middle" x="497.5" y="-7.5" font-family="Helvetica,sans-Serif" font-size="10.00">cstring</text>
</a>
</g>
</g>
<!-- Node1&#45;&gt;Node18 -->
<g id="edge15" class="edge">
<title>Node1&#45;&gt;Node18</title>
<path fill="none" stroke="midnightblue" d="M372.25,-179.38C410.12,-163.33 465.86,-133.19 492.5,-87 502.49,-69.67 502.42,-46.28 500.69,-30.05"/>
<polygon fill="midnightblue" stroke="midnightblue" points="504.09,-29.11 499.26,-19.68 497.16,-30.07 504.09,-29.11"/>
</g>
<!-- Node20 -->
<g id="node12" class="node">
<title>Node20</title>
<g id="a_node12"><a xlink:title=" ">
<polygon fill="white" stroke="#bfbfbf" points="540,-123.5 540,-142.5 569,-142.5 569,-123.5 540,-123.5"/>
<text text-anchor="middle" x="554.5" y="-130.5" font-family="Helvetica,sans-Serif" font-size="10.00">bit</text>
</a>
</g>
</g>
<!-- Node1&#45;&gt;Node20 -->
<g id="edge13" class="edge">
<title>Node1&#45;&gt;Node20</title>
<path fill="none" stroke="midnightblue" d="M389.55,-179.45C427.93,-169.65 479.94,-156.05 525.5,-143 526.96,-142.58 528.45,-142.15 529.96,-141.7"/>
<polygon fill="midnightblue" stroke="midnightblue" points="531.24,-144.97 539.78,-138.7 529.2,-138.27 531.24,-144.97"/>
</g>
<!-- Node21 -->
<g id="node13" class="node">
<title>Node21</title>
<g id="a_node13"><a xlink:title=" ">
<polygon fill="white" stroke="#bfbfbf" points="587.5,-123.5 587.5,-142.5 631.5,-142.5 631.5,-123.5 587.5,-123.5"/>
<text text-anchor="middle" x="609.5" y="-130.5" font-family="Helvetica,sans-Serif" font-size="10.00">bitset</text>
</a>
</g>
</g>
<!-- Node1&#45;&gt;Node21 -->
<g id="edge14" class="edge">
<title>Node1&#45;&gt;Node21</title>
<path fill="none" stroke="midnightblue" d="M406.74,-179.98C453.13,-171.05 514.56,-158.55 577.15,-143.19"/>
<polygon fill="midnightblue" stroke="midnightblue" points="578.34,-146.5 587.21,-140.7 576.66,-139.71 578.34,-146.5"/>
</g>
<!-- Node3 -->
<g id="node3" class="node">
<title>Node3</title>
<g id="a_node3"><a xlink:href="concepts_8hpp.html" target="_top" xlink:title=" ">
<polygon fill="white" stroke="red" points="18,-62 18,-81 105,-81 105,-62 18,-62"/>
<text text-anchor="middle" x="61.5" y="-69" font-family="Helvetica,sans-Serif" font-size="10.00">./concepts.hpp</text>
</a>
</g>
</g>
<!-- Node2&#45;&gt;Node3 -->
<g id="edge2" class="edge">
<title>Node2&#45;&gt;Node3</title>
<path fill="none" stroke="midnightblue" d="M150.6,-123.48C133.53,-113.71 105.34,-97.58 85.24,-86.08"/>
<polygon fill="midnightblue" stroke="midnightblue" points="86.79,-82.94 76.37,-81.01 83.31,-89.01 86.79,-82.94"/>
</g>
<!-- Node14 -->
<g id="node5" class="node">
<title>Node14</title>
<g id="a_node5"><a xlink:title=" ">
<polygon fill="white" stroke="#bfbfbf" points="123.5,-62 123.5,-81 179.5,-81 179.5,-62 123.5,-62"/>
<text text-anchor="middle" x="151.5" y="-69" font-family="Helvetica,sans-Serif" font-size="10.00">optional</text>
</a>
</g>
</g>
<!-- Node2&#45;&gt;Node14 -->
<g id="edge4" class="edge">
<title>Node2&#45;&gt;Node14</title>
<path fill="none" stroke="midnightblue" d="M163.49,-123.48C161.5,-114.99 158.37,-101.7 155.81,-90.82"/>
<polygon fill="midnightblue" stroke="midnightblue" points="159.2,-89.94 153.5,-81.01 152.39,-91.54 159.2,-89.94"/>
</g>
<!-- Node2&#45;&gt;Node9 -->
<g id="edge5" class="edge">
<title>Node2&#45;&gt;Node9</title>
<path fill="none" stroke="midnightblue" d="M175.1,-123.48C185.55,-114.2 202.47,-99.17 215.24,-87.83"/>
<polygon fill="midnightblue" stroke="midnightblue" points="217.77,-90.27 222.92,-81.01 213.12,-85.03 217.77,-90.27"/>
</g>
<!-- Node3&#45;&gt;Node13 -->
<g id="edge3" class="edge">
<title>Node3&#45;&gt;Node13</title>
<path fill="none" stroke="midnightblue" d="M56.34,-61.98C51.05,-53.23 42.66,-39.37 35.97,-28.31"/>
<polygon fill="midnightblue" stroke="midnightblue" points="38.82,-26.25 30.65,-19.51 32.83,-29.88 38.82,-26.25"/>
</g>
<!-- Node16 -->
<g id="node8" class="node">
<title>Node16</title>
<g id="a_node8"><a xlink:href="string__buffer_8hpp.html" target="_top" xlink:title=" ">
<polygon fill="white" stroke="red" points="361.5,-56.5 361.5,-86.5 483.5,-86.5 483.5,-56.5 361.5,-56.5"/>
<text text-anchor="start" x="369.5" y="-74.5" font-family="Helvetica,sans-Serif" font-size="10.00">../experimental/string</text>
<text text-anchor="middle" x="422.5" y="-63.5" font-family="Helvetica,sans-Serif" font-size="10.00">_buffer.hpp</text>
</a>
</g>
</g>
<!-- Node15&#45;&gt;Node16 -->
<g id="edge7" class="edge">
<title>Node15&#45;&gt;Node16</title>
<path fill="none" stroke="midnightblue" d="M346.25,-123.48C358.42,-115.34 377.19,-102.79 393.06,-92.18"/>
<polygon fill="midnightblue" stroke="midnightblue" points="395.16,-94.99 401.52,-86.52 391.27,-89.17 395.16,-94.99"/>
</g>
<!-- Node17 -->
<g id="node9" class="node">
<title>Node17</title>
<g id="a_node9"><a xlink:title=" ">
<polygon fill="white" stroke="#bfbfbf" points="276.5,-0.5 276.5,-19.5 340.5,-19.5 340.5,-0.5 276.5,-0.5"/>
<text text-anchor="middle" x="308.5" y="-7.5" font-family="Helvetica,sans-Serif" font-size="10.00">algorithm</text>
</a>
</g>
</g>
<!-- Node15&#45;&gt;Node17 -->
<g id="edge11" class="edge">
<title>Node15&#45;&gt;Node17</title>
<path fill="none" stroke="midnightblue" d="M330.41,-123.48C327.26,-114.51 322.43,-99.93 319.5,-87 315.14,-67.73 312.14,-45.3 310.39,-29.82"/>
<polygon fill="midnightblue" stroke="midnightblue" points="313.83,-29.09 309.29,-19.51 306.87,-29.83 313.83,-29.09"/>
</g>
<!-- Node5 -->
<g id="node10" class="node">
<title>Node5</title>
<g id="a_node10"><a xlink:title=" ">
<polygon fill="white" stroke="#bfbfbf" points="386.5,-0.5 386.5,-19.5 428.5,-19.5 428.5,-0.5 386.5,-0.5"/>
<text text-anchor="middle" x="407.5" y="-7.5" font-family="Helvetica,sans-Serif" font-size="10.00">array</text>
</a>
</g>
</g>
<!-- Node15&#45;&gt;Node5 -->
<g id="edge12" class="edge">
<title>Node15&#45;&gt;Node5</title>
<path fill="none" stroke="midnightblue" d="M333.91,-123.33C334.98,-108.46 338.81,-77.59 352.5,-56 360.37,-43.58 372.83,-32.98 383.9,-25.19"/>
<polygon fill="midnightblue" stroke="midnightblue" points="385.97,-28.01 392.37,-19.56 382.1,-22.18 385.97,-28.01"/>
</g>
<!-- Node16&#45;&gt;Node17 -->
<g id="edge8" class="edge">
<title>Node16&#45;&gt;Node17</title>
<path fill="none" stroke="midnightblue" d="M395.48,-56.4C376.87,-46.68 352.29,-33.86 334.01,-24.31"/>
<polygon fill="midnightblue" stroke="midnightblue" points="335.57,-21.18 325.09,-19.66 332.33,-27.39 335.57,-21.18"/>
</g>
<!-- Node16&#45;&gt;Node5 -->
<g id="edge9" class="edge">
<title>Node16&#45;&gt;Node5</title>
<path fill="none" stroke="midnightblue" d="M418.95,-56.4C416.92,-48.38 414.37,-38.23 412.18,-29.57"/>
<polygon fill="midnightblue" stroke="midnightblue" points="415.52,-28.5 409.68,-19.66 408.73,-30.21 415.52,-28.5"/>
</g>
<!-- Node16&#45;&gt;Node18 -->
<g id="edge10" class="edge">
<title>Node16&#45;&gt;Node18</title>
<path fill="none" stroke="midnightblue" d="M440.27,-56.4C451.85,-47.22 466.92,-35.26 478.7,-25.92"/>
<polygon fill="midnightblue" stroke="midnightblue" points="480.93,-28.61 486.59,-19.66 476.58,-23.13 480.93,-28.61"/>
</g>
</g>
</svg>
