<?xml version="1.0" encoding="UTF-8" standalone="no"?>
<!DOCTYPE svg PUBLIC "-//W3C//DTD SVG 1.1//EN"
 "http://www.w3.org/Graphics/SVG/1.1/DTD/svg11.dtd">
<!-- Generated by graphviz version 2.43.0 (0)
 -->
<!-- Title: include/emlabcpp/protocol/error.h Pages: 1 -->
<svg width="284pt" height="173pt"
 viewBox="0.00 0.00 284.00 173.00" xmlns="http://www.w3.org/2000/svg" xmlns:xlink="http://www.w3.org/1999/xlink">
<g id="graph0" class="graph" transform="scale(1 1) rotate(0) translate(4 169)">
<title>include/emlabcpp/protocol/error.h</title>
<polygon fill="white" stroke="transparent" points="-4,4 -4,-169 280,-169 280,4 -4,4"/>
<!-- Node1 -->
<g id="node1" class="node">
<title>Node1</title>
<g id="a_node1"><a xlink:title=" ">
<polygon fill="#bfbfbf" stroke="black" points="76,-134.5 76,-164.5 222,-164.5 222,-134.5 76,-134.5"/>
<text text-anchor="start" x="84" y="-152.5" font-family="Helvetica,sans-Serif" font-size="10.00">include/emlabcpp/protocol</text>
<text text-anchor="middle" x="149" y="-141.5" font-family="Helvetica,sans-Serif" font-size="10.00">/error.h</text>
</a>
</g>
</g>
<!-- Node2 -->
<g id="node2" class="node">
<title>Node2</title>
<g id="a_node2"><a xlink:href="string__buffer_8h.html" target="_top" xlink:title=" ">
<polygon fill="white" stroke="black" points="82.5,-67.5 82.5,-97.5 215.5,-97.5 215.5,-67.5 82.5,-67.5"/>
<text text-anchor="start" x="90.5" y="-85.5" font-family="Helvetica,sans-Serif" font-size="10.00">emlabcpp/experimental</text>
<text text-anchor="middle" x="149" y="-74.5" font-family="Helvetica,sans-Serif" font-size="10.00">/string_buffer.h</text>
</a>
</g>
</g>
<!-- Node1&#45;&gt;Node2 -->
<g id="edge1" class="edge">
<title>Node1&#45;&gt;Node2</title>
<path fill="none" stroke="midnightblue" d="M149,-134.4C149,-126.64 149,-116.81 149,-107.86"/>
<polygon fill="midnightblue" stroke="midnightblue" points="152.5,-107.58 149,-97.58 145.5,-107.58 152.5,-107.58"/>
</g>
<!-- Node34 -->
<g id="node4" class="node">
<title>Node34</title>
<g id="a_node4"><a xlink:title=" ">
<polygon fill="white" stroke="#bfbfbf" points="0,-6 0,-25 64,-25 64,-6 0,-6"/>
<text text-anchor="middle" x="32" y="-13" font-family="Helvetica,sans-Serif" font-size="10.00">algorithm</text>
</a>
</g>
</g>
<!-- Node1&#45;&gt;Node34 -->
<g id="edge5" class="edge">
<title>Node1&#45;&gt;Node34</title>
<path fill="none" stroke="midnightblue" d="M121.15,-134.3C105.81,-125.44 87.25,-112.9 74,-98 57.27,-79.19 45.18,-52.51 38.38,-34.87"/>
<polygon fill="midnightblue" stroke="midnightblue" points="41.57,-33.39 34.84,-25.2 34.99,-35.79 41.57,-33.39"/>
</g>
<!-- Node6 -->
<g id="node5" class="node">
<title>Node6</title>
<g id="a_node5"><a xlink:title=" ">
<polygon fill="white" stroke="#bfbfbf" points="234,-6 234,-25 276,-25 276,-6 234,-6"/>
<text text-anchor="middle" x="255" y="-13" font-family="Helvetica,sans-Serif" font-size="10.00">array</text>
</a>
</g>
</g>
<!-- Node1&#45;&gt;Node6 -->
<g id="edge6" class="edge">
<title>Node1&#45;&gt;Node6</title>
<path fill="none" stroke="midnightblue" d="M179.07,-134.36C194.61,-125.75 212.82,-113.42 225,-98 239.71,-79.37 247.67,-52.84 251.63,-35.16"/>
<polygon fill="midnightblue" stroke="midnightblue" points="255.08,-35.72 253.63,-25.22 248.22,-34.33 255.08,-35.72"/>
</g>
<!-- Node3 -->
<g id="node3" class="node">
<title>Node3</title>
<g id="a_node3"><a xlink:href="pretty__printer_8h.html" target="_top" xlink:title=" ">
<polygon fill="white" stroke="red" points="82.5,-0.5 82.5,-30.5 215.5,-30.5 215.5,-0.5 82.5,-0.5"/>
<text text-anchor="start" x="90.5" y="-18.5" font-family="Helvetica,sans-Serif" font-size="10.00">emlabcpp/experimental</text>
<text text-anchor="middle" x="149" y="-7.5" font-family="Helvetica,sans-Serif" font-size="10.00">/pretty_printer.h</text>
</a>
</g>
</g>
<!-- Node2&#45;&gt;Node3 -->
<g id="edge2" class="edge">
<title>Node2&#45;&gt;Node3</title>
<path fill="none" stroke="midnightblue" d="M149,-67.4C149,-59.64 149,-49.81 149,-40.86"/>
<polygon fill="midnightblue" stroke="midnightblue" points="152.5,-40.58 149,-30.58 145.5,-40.58 152.5,-40.58"/>
</g>
<!-- Node2&#45;&gt;Node34 -->
<g id="edge3" class="edge">
<title>Node2&#45;&gt;Node34</title>
<path fill="none" stroke="midnightblue" d="M123.61,-67.4C103.63,-56.29 75.96,-40.92 56.27,-29.98"/>
<polygon fill="midnightblue" stroke="midnightblue" points="57.75,-26.8 47.31,-25.01 54.35,-32.92 57.75,-26.8"/>
</g>
<!-- Node2&#45;&gt;Node6 -->
<g id="edge4" class="edge">
<title>Node2&#45;&gt;Node6</title>
<path fill="none" stroke="midnightblue" d="M172,-67.4C189.94,-56.39 214.72,-41.2 232.52,-30.28"/>
<polygon fill="midnightblue" stroke="midnightblue" points="234.43,-33.22 241.13,-25.01 230.77,-27.25 234.43,-33.22"/>
</g>
</g>
</svg>
