<?xml version="1.0" encoding="UTF-8" standalone="no"?>
<!DOCTYPE svg PUBLIC "-//W3C//DTD SVG 1.1//EN"
 "http://www.w3.org/Graphics/SVG/1.1/DTD/svg11.dtd">
<!-- Generated by graphviz version 2.43.0 (0)
 -->
<!-- Title: include/emlabcpp/protocol/base.h Pages: 1 -->
<svg width="818pt" height="218pt"
 viewBox="0.00 0.00 818.00 218.00" xmlns="http://www.w3.org/2000/svg" xmlns:xlink="http://www.w3.org/1999/xlink">
<g id="graph0" class="graph" transform="scale(1 1) rotate(0) translate(4 214)">
<title>include/emlabcpp/protocol/base.h</title>
<polygon fill="white" stroke="transparent" points="-4,4 -4,-214 814,-214 814,4 -4,4"/>
<!-- Node1 -->
<g id="node1" class="node">
<title>Node1</title>
<g id="a_node1"><a xlink:title=" ">
<polygon fill="#bfbfbf" stroke="black" points="488,-179.5 488,-209.5 634,-209.5 634,-179.5 488,-179.5"/>
<text text-anchor="start" x="496" y="-197.5" font-family="Helvetica,sans-Serif" font-size="10.00">include/emlabcpp/protocol</text>
<text text-anchor="middle" x="561" y="-186.5" font-family="Helvetica,sans-Serif" font-size="10.00">/base.h</text>
</a>
</g>
</g>
<!-- Node2 -->
<g id="node2" class="node">
<title>Node2</title>
<g id="a_node2"><a xlink:href="bounded_8h.html" target="_top" xlink:title=" ">
<polygon fill="white" stroke="black" points="258.5,-123.5 258.5,-142.5 377.5,-142.5 377.5,-123.5 258.5,-123.5"/>
<text text-anchor="middle" x="318" y="-130.5" font-family="Helvetica,sans-Serif" font-size="10.00">emlabcpp/bounded.h</text>
</a>
</g>
</g>
<!-- Node1&#45;&gt;Node2 -->
<g id="edge1" class="edge">
<title>Node1&#45;&gt;Node2</title>
<path fill="none" stroke="midnightblue" d="M503.72,-179.47C460.61,-168.92 402.36,-154.66 362.66,-144.94"/>
<polygon fill="midnightblue" stroke="midnightblue" points="363.29,-141.49 352.74,-142.51 361.62,-148.28 363.29,-141.49"/>
</g>
<!-- Node13 -->
<g id="node4" class="node">
<title>Node13</title>
<g id="a_node4"><a xlink:title=" ">
<polygon fill="white" stroke="#bfbfbf" points="179.5,-0.5 179.5,-19.5 230.5,-19.5 230.5,-0.5 179.5,-0.5"/>
<text text-anchor="middle" x="205" y="-7.5" font-family="Helvetica,sans-Serif" font-size="10.00">variant</text>
</a>
</g>
</g>
<!-- Node1&#45;&gt;Node13 -->
<g id="edge15" class="edge">
<title>Node1&#45;&gt;Node13</title>
<path fill="none" stroke="midnightblue" d="M529.77,-179.34C513.53,-170.71 494.35,-158.38 481,-143 453.23,-110.99 475.25,-82.26 442,-56 411.29,-31.75 299.13,-18.92 240.8,-13.77"/>
<polygon fill="midnightblue" stroke="midnightblue" points="240.82,-10.26 230.56,-12.89 240.23,-17.23 240.82,-10.26"/>
</g>
<!-- Node9 -->
<g id="node7" class="node">
<title>Node9</title>
<g id="a_node7"><a xlink:title=" ">
<polygon fill="white" stroke="#bfbfbf" points="364.5,-62 364.5,-81 433.5,-81 433.5,-62 364.5,-62"/>
<text text-anchor="middle" x="399" y="-69" font-family="Helvetica,sans-Serif" font-size="10.00">type_traits</text>
</a>
</g>
</g>
<!-- Node1&#45;&gt;Node9 -->
<g id="edge14" class="edge">
<title>Node1&#45;&gt;Node9</title>
<path fill="none" stroke="midnightblue" d="M514.91,-179.4C493.06,-171.17 467.53,-159.18 448,-143 430.49,-128.49 416.44,-106.23 407.96,-90.62"/>
<polygon fill="midnightblue" stroke="midnightblue" points="410.91,-88.72 403.2,-81.46 404.7,-91.95 410.91,-88.72"/>
</g>
<!-- Node37 -->
<g id="node8" class="node">
<title>Node37</title>
<g id="a_node8"><a xlink:href="protocol_2error_8h.html" target="_top" xlink:title=" ">
<polygon fill="white" stroke="black" points="490,-123.5 490,-142.5 632,-142.5 632,-123.5 490,-123.5"/>
<text text-anchor="middle" x="561" y="-130.5" font-family="Helvetica,sans-Serif" font-size="10.00">emlabcpp/protocol/error.h</text>
</a>
</g>
</g>
<!-- Node1&#45;&gt;Node37 -->
<g id="edge8" class="edge">
<title>Node1&#45;&gt;Node37</title>
<path fill="none" stroke="midnightblue" d="M561,-179.4C561,-171.47 561,-161.46 561,-152.86"/>
<polygon fill="midnightblue" stroke="midnightblue" points="564.5,-152.66 561,-142.66 557.5,-152.66 564.5,-152.66"/>
</g>
<!-- Node39 -->
<g id="node11" class="node">
<title>Node39</title>
<g id="a_node11"><a xlink:title=" ">
<polygon fill="white" stroke="#bfbfbf" points="650.5,-123.5 650.5,-142.5 679.5,-142.5 679.5,-123.5 650.5,-123.5"/>
<text text-anchor="middle" x="665" y="-130.5" font-family="Helvetica,sans-Serif" font-size="10.00">bit</text>
</a>
</g>
</g>
<!-- Node1&#45;&gt;Node39 -->
<g id="edge11" class="edge">
<title>Node1&#45;&gt;Node39</title>
<path fill="none" stroke="midnightblue" d="M585.65,-179.4C602.52,-169.75 624.76,-157.02 641.4,-147.5"/>
<polygon fill="midnightblue" stroke="midnightblue" points="643.53,-150.32 650.47,-142.31 640.05,-144.24 643.53,-150.32"/>
</g>
<!-- Node26 -->
<g id="node12" class="node">
<title>Node26</title>
<g id="a_node12"><a xlink:title=" ">
<polygon fill="white" stroke="#bfbfbf" points="698,-123.5 698,-142.5 742,-142.5 742,-123.5 698,-123.5"/>
<text text-anchor="middle" x="720" y="-130.5" font-family="Helvetica,sans-Serif" font-size="10.00">bitset</text>
</a>
</g>
</g>
<!-- Node1&#45;&gt;Node26 -->
<g id="edge12" class="edge">
<title>Node1&#45;&gt;Node26</title>
<path fill="none" stroke="midnightblue" d="M598.68,-179.4C625.92,-169.21 662.32,-155.59 688.12,-145.93"/>
<polygon fill="midnightblue" stroke="midnightblue" points="689.65,-149.1 697.79,-142.31 687.19,-142.54 689.65,-149.1"/>
</g>
<!-- Node40 -->
<g id="node13" class="node">
<title>Node40</title>
<g id="a_node13"><a xlink:title=" ">
<polygon fill="white" stroke="#bfbfbf" points="760,-123.5 760,-142.5 810,-142.5 810,-123.5 760,-123.5"/>
<text text-anchor="middle" x="785" y="-130.5" font-family="Helvetica,sans-Serif" font-size="10.00">cstring</text>
</a>
</g>
</g>
<!-- Node1&#45;&gt;Node40 -->
<g id="edge13" class="edge">
<title>Node1&#45;&gt;Node40</title>
<path fill="none" stroke="midnightblue" d="M613.8,-179.47C655.89,-168.29 713.63,-152.96 750.13,-143.26"/>
<polygon fill="midnightblue" stroke="midnightblue" points="751.06,-146.64 759.83,-140.69 749.27,-139.87 751.06,-146.64"/>
</g>
<!-- Node3 -->
<g id="node3" class="node">
<title>Node3</title>
<g id="a_node3"><a xlink:href="concepts_8h.html" target="_top" xlink:title=" ">
<polygon fill="white" stroke="red" points="0,-62 0,-81 120,-81 120,-62 0,-62"/>
<text text-anchor="middle" x="60" y="-69" font-family="Helvetica,sans-Serif" font-size="10.00">emlabcpp/concepts.h</text>
</a>
</g>
</g>
<!-- Node2&#45;&gt;Node3 -->
<g id="edge2" class="edge">
<title>Node2&#45;&gt;Node3</title>
<path fill="none" stroke="midnightblue" d="M281.03,-123.48C235.15,-112.89 156.85,-94.84 106.82,-83.3"/>
<polygon fill="midnightblue" stroke="midnightblue" points="107.43,-79.85 96.9,-81.01 105.85,-86.67 107.43,-79.85"/>
</g>
<!-- Node14 -->
<g id="node5" class="node">
<title>Node14</title>
<g id="a_node5"><a xlink:href="logging_8h.html" target="_top" xlink:title=" ">
<polygon fill="white" stroke="red" points="138.5,-56.5 138.5,-86.5 271.5,-86.5 271.5,-56.5 138.5,-56.5"/>
<text text-anchor="start" x="146.5" y="-74.5" font-family="Helvetica,sans-Serif" font-size="10.00">emlabcpp/experimental</text>
<text text-anchor="middle" x="205" y="-63.5" font-family="Helvetica,sans-Serif" font-size="10.00">/logging.h</text>
</a>
</g>
</g>
<!-- Node2&#45;&gt;Node14 -->
<g id="edge4" class="edge">
<title>Node2&#45;&gt;Node14</title>
<path fill="none" stroke="midnightblue" d="M301.81,-123.48C285.93,-115.12 261.2,-102.09 240.7,-91.3"/>
<polygon fill="midnightblue" stroke="midnightblue" points="242.11,-88.09 231.63,-86.52 238.85,-94.28 242.11,-88.09"/>
</g>
<!-- Node31 -->
<g id="node6" class="node">
<title>Node31</title>
<g id="a_node6"><a xlink:title=" ">
<polygon fill="white" stroke="#bfbfbf" points="290,-62 290,-81 346,-81 346,-62 290,-62"/>
<text text-anchor="middle" x="318" y="-69" font-family="Helvetica,sans-Serif" font-size="10.00">optional</text>
</a>
</g>
</g>
<!-- Node2&#45;&gt;Node31 -->
<g id="edge6" class="edge">
<title>Node2&#45;&gt;Node31</title>
<path fill="none" stroke="midnightblue" d="M318,-123.48C318,-115.08 318,-101.98 318,-91.16"/>
<polygon fill="midnightblue" stroke="midnightblue" points="321.5,-91.01 318,-81.01 314.5,-91.01 321.5,-91.01"/>
</g>
<!-- Node2&#45;&gt;Node9 -->
<g id="edge7" class="edge">
<title>Node2&#45;&gt;Node9</title>
<path fill="none" stroke="midnightblue" d="M329.61,-123.48C342.48,-114.02 363.47,-98.6 379.01,-87.19"/>
<polygon fill="midnightblue" stroke="midnightblue" points="381.43,-89.75 387.42,-81.01 377.28,-84.11 381.43,-89.75"/>
</g>
<!-- Node3&#45;&gt;Node13 -->
<g id="edge3" class="edge">
<title>Node3&#45;&gt;Node13</title>
<path fill="none" stroke="midnightblue" d="M80.77,-61.98C105.43,-51.86 146.75,-34.9 174.9,-23.35"/>
<polygon fill="midnightblue" stroke="midnightblue" points="176.34,-26.54 184.26,-19.51 173.68,-20.07 176.34,-26.54"/>
</g>
<!-- Node14&#45;&gt;Node13 -->
<g id="edge5" class="edge">
<title>Node14&#45;&gt;Node13</title>
<path fill="none" stroke="midnightblue" d="M205,-56.4C205,-48.47 205,-38.46 205,-29.86"/>
<polygon fill="midnightblue" stroke="midnightblue" points="208.5,-29.66 205,-19.66 201.5,-29.66 208.5,-29.66"/>
</g>
<!-- Node38 -->
<g id="node9" class="node">
<title>Node38</title>
<g id="a_node9"><a xlink:title=" ">
<polygon fill="white" stroke="#bfbfbf" points="510,-62 510,-81 574,-81 574,-62 510,-62"/>
<text text-anchor="middle" x="542" y="-69" font-family="Helvetica,sans-Serif" font-size="10.00">algorithm</text>
</a>
</g>
</g>
<!-- Node37&#45;&gt;Node38 -->
<g id="edge9" class="edge">
<title>Node37&#45;&gt;Node38</title>
<path fill="none" stroke="midnightblue" d="M558.28,-123.48C555.57,-114.99 551.33,-101.7 547.85,-90.82"/>
<polygon fill="midnightblue" stroke="midnightblue" points="551.09,-89.47 544.72,-81.01 544.43,-91.6 551.09,-89.47"/>
</g>
<!-- Node5 -->
<g id="node10" class="node">
<title>Node5</title>
<g id="a_node10"><a xlink:title=" ">
<polygon fill="white" stroke="#bfbfbf" points="592,-62 592,-81 634,-81 634,-62 592,-62"/>
<text text-anchor="middle" x="613" y="-69" font-family="Helvetica,sans-Serif" font-size="10.00">array</text>
</a>
</g>
</g>
<!-- Node37&#45;&gt;Node5 -->
<g id="edge10" class="edge">
<title>Node37&#45;&gt;Node5</title>
<path fill="none" stroke="midnightblue" d="M568.45,-123.48C576.33,-114.46 588.94,-100.02 598.74,-88.81"/>
<polygon fill="midnightblue" stroke="midnightblue" points="601.62,-90.84 605.56,-81.01 596.35,-86.24 601.62,-90.84"/>
</g>
</g>
</svg>
