<?xml version="1.0" encoding="UTF-8" standalone="no"?>
<!DOCTYPE svg PUBLIC "-//W3C//DTD SVG 1.1//EN"
 "http://www.w3.org/Graphics/SVG/1.1/DTD/svg11.dtd">
<!-- Generated by graphviz version 2.43.0 (0)
 -->
<!-- Title: include/emlabcpp/protocol/error.h Pages: 1 -->
<svg width="444pt" height="173pt"
 viewBox="0.00 0.00 444.00 173.00" xmlns="http://www.w3.org/2000/svg" xmlns:xlink="http://www.w3.org/1999/xlink">
<g id="graph0" class="graph" transform="scale(1 1) rotate(0) translate(4 169)">
<title>include/emlabcpp/protocol/error.h</title>
<polygon fill="white" stroke="transparent" points="-4,4 -4,-169 440,-169 440,4 -4,4"/>
<!-- Node1 -->
<g id="node1" class="node">
<title>Node1</title>
<g id="a_node1"><a xlink:title=" ">
<polygon fill="#bfbfbf" stroke="black" points="186,-134.5 186,-164.5 332,-164.5 332,-134.5 186,-134.5"/>
<text text-anchor="start" x="194" y="-152.5" font-family="Helvetica,sans-Serif" font-size="10.00">include/emlabcpp/protocol</text>
<text text-anchor="middle" x="259" y="-141.5" font-family="Helvetica,sans-Serif" font-size="10.00">/error.h</text>
</a>
</g>
</g>
<!-- Node2 -->
<g id="node2" class="node">
<title>Node2</title>
<g id="a_node2"><a xlink:href="string__buffer_8h.html" target="_top" xlink:title=" ">
<polygon fill="white" stroke="black" points="192.5,-67.5 192.5,-97.5 325.5,-97.5 325.5,-67.5 192.5,-67.5"/>
<text text-anchor="start" x="200.5" y="-85.5" font-family="Helvetica,sans-Serif" font-size="10.00">emlabcpp/experimental</text>
<text text-anchor="middle" x="259" y="-74.5" font-family="Helvetica,sans-Serif" font-size="10.00">/string_buffer.h</text>
</a>
</g>
</g>
<!-- Node1&#45;&gt;Node2 -->
<g id="edge1" class="edge">
<title>Node1&#45;&gt;Node2</title>
<path fill="none" stroke="midnightblue" d="M259,-134.4C259,-126.64 259,-116.81 259,-107.86"/>
<polygon fill="midnightblue" stroke="midnightblue" points="262.5,-107.58 259,-97.58 255.5,-107.58 262.5,-107.58"/>
</g>
<!-- Node37 -->
<g id="node4" class="node">
<title>Node37</title>
<g id="a_node4"><a xlink:title=" ">
<polygon fill="white" stroke="#bfbfbf" points="0,-6 0,-25 64,-25 64,-6 0,-6"/>
<text text-anchor="middle" x="32" y="-13" font-family="Helvetica,sans-Serif" font-size="10.00">algorithm</text>
</a>
</g>
</g>
<!-- Node1&#45;&gt;Node37 -->
<g id="edge7" class="edge">
<title>Node1&#45;&gt;Node37</title>
<path fill="none" stroke="midnightblue" d="M234.71,-134.37C190.81,-108.85 98.8,-55.35 55.49,-30.16"/>
<polygon fill="midnightblue" stroke="midnightblue" points="57.19,-27.1 46.78,-25.1 53.67,-33.15 57.19,-27.1"/>
</g>
<!-- Node6 -->
<g id="node5" class="node">
<title>Node6</title>
<g id="a_node5"><a xlink:title=" ">
<polygon fill="white" stroke="#bfbfbf" points="394,-6 394,-25 436,-25 436,-6 394,-6"/>
<text text-anchor="middle" x="415" y="-13" font-family="Helvetica,sans-Serif" font-size="10.00">array</text>
</a>
</g>
</g>
<!-- Node1&#45;&gt;Node6 -->
<g id="edge8" class="edge">
<title>Node1&#45;&gt;Node6</title>
<path fill="none" stroke="midnightblue" d="M282.84,-134.45C298.28,-124.92 318.51,-111.62 335,-98 359.96,-77.38 385.62,-49.91 400.94,-32.71"/>
<polygon fill="midnightblue" stroke="midnightblue" points="403.6,-34.99 407.58,-25.17 398.34,-30.36 403.6,-34.99"/>
</g>
<!-- Node3 -->
<g id="node3" class="node">
<title>Node3</title>
<g id="a_node3"><a xlink:href="pretty__printer_8h.html" target="_top" xlink:title=" ">
<polygon fill="white" stroke="red" points="82.5,-0.5 82.5,-30.5 215.5,-30.5 215.5,-0.5 82.5,-0.5"/>
<text text-anchor="start" x="90.5" y="-18.5" font-family="Helvetica,sans-Serif" font-size="10.00">emlabcpp/experimental</text>
<text text-anchor="middle" x="149" y="-7.5" font-family="Helvetica,sans-Serif" font-size="10.00">/pretty_printer.h</text>
</a>
</g>
</g>
<!-- Node2&#45;&gt;Node3 -->
<g id="edge2" class="edge">
<title>Node2&#45;&gt;Node3</title>
<path fill="none" stroke="midnightblue" d="M235.13,-67.4C219.42,-58.11 198.65,-45.84 181.45,-35.67"/>
<polygon fill="midnightblue" stroke="midnightblue" points="183.21,-32.65 172.82,-30.58 179.65,-38.68 183.21,-32.65"/>
</g>
<!-- Node2&#45;&gt;Node37 -->
<g id="edge3" class="edge">
<title>Node2&#45;&gt;Node37</title>
<path fill="none" stroke="midnightblue" d="M202.93,-67.45C165.85,-57.86 116.28,-44.51 73,-31 70.39,-30.18 67.69,-29.31 64.99,-28.41"/>
<polygon fill="midnightblue" stroke="midnightblue" points="65.91,-25.02 55.32,-25.09 63.64,-31.64 65.91,-25.02"/>
</g>
<!-- Node2&#45;&gt;Node6 -->
<g id="edge4" class="edge">
<title>Node2&#45;&gt;Node6</title>
<path fill="none" stroke="midnightblue" d="M295.94,-67.47C321.21,-57.68 355.36,-44.09 385,-31 386.16,-30.49 387.34,-29.96 388.53,-29.41"/>
<polygon fill="midnightblue" stroke="midnightblue" points="390.08,-32.56 397.64,-25.14 387.11,-26.22 390.08,-32.56"/>
</g>
<!-- Node38 -->
<g id="node6" class="node">
<title>Node38</title>
<g id="a_node6"><a xlink:title=" ">
<polygon fill="white" stroke="#bfbfbf" points="234,-6 234,-25 284,-25 284,-6 234,-6"/>
<text text-anchor="middle" x="259" y="-13" font-family="Helvetica,sans-Serif" font-size="10.00">cstring</text>
</a>
</g>
</g>
<!-- Node2&#45;&gt;Node38 -->
<g id="edge5" class="edge">
<title>Node2&#45;&gt;Node38</title>
<path fill="none" stroke="midnightblue" d="M259,-67.4C259,-58.06 259,-45.71 259,-35.52"/>
<polygon fill="midnightblue" stroke="midnightblue" points="262.5,-35.19 259,-25.19 255.5,-35.19 262.5,-35.19"/>
</g>
<!-- Node39 -->
<g id="node7" class="node">
<title>Node39</title>
<g id="a_node7"><a xlink:title=" ">
<polygon fill="white" stroke="#bfbfbf" points="302.5,-6 302.5,-25 375.5,-25 375.5,-6 302.5,-6"/>
<text text-anchor="middle" x="339" y="-13" font-family="Helvetica,sans-Serif" font-size="10.00">string_view</text>
</a>
</g>
</g>
<!-- Node2&#45;&gt;Node39 -->
<g id="edge6" class="edge">
<title>Node2&#45;&gt;Node39</title>
<path fill="none" stroke="midnightblue" d="M276.36,-67.4C289.33,-56.86 307.03,-42.48 320.31,-31.69"/>
<polygon fill="midnightblue" stroke="midnightblue" points="322.74,-34.22 328.3,-25.19 318.33,-28.78 322.74,-34.22"/>
</g>
</g>
</svg>
