<?xml version="1.0" encoding="UTF-8" standalone="no"?>
<!DOCTYPE svg PUBLIC "-//W3C//DTD SVG 1.1//EN"
 "http://www.w3.org/Graphics/SVG/1.1/DTD/svg11.dtd">
<!-- Generated by graphviz version 2.43.0 (0)
 -->
<!-- Title: include/emlabcpp/protocol.h Pages: 1 -->
<svg width="358pt" height="207pt"
 viewBox="0.00 0.00 357.50 207.00" xmlns="http://www.w3.org/2000/svg" xmlns:xlink="http://www.w3.org/1999/xlink">
<g id="graph0" class="graph" transform="scale(1 1) rotate(0) translate(4 203)">
<title>include/emlabcpp/protocol.h</title>
<polygon fill="white" stroke="transparent" points="-4,4 -4,-203 353.5,-203 353.5,4 -4,4"/>
<!-- Node1 -->
<g id="node1" class="node">
<title>Node1</title>
<g id="a_node1"><a xlink:title=" ">
<polygon fill="#bfbfbf" stroke="black" points="144.5,-179.5 144.5,-198.5 299.5,-198.5 299.5,-179.5 144.5,-179.5"/>
<text text-anchor="middle" x="222" y="-186.5" font-family="Helvetica,sans-Serif" font-size="10.00">include/emlabcpp/protocol.h</text>
</a>
</g>
</g>
<!-- Node2 -->
<g id="node2" class="node">
<title>Node2</title>
<g id="a_node2"><a xlink:href="command__group_8h.html" target="_top" xlink:title=" ">
<polygon fill="white" stroke="black" points="80,-112.5 80,-142.5 194,-142.5 194,-112.5 80,-112.5"/>
<text text-anchor="start" x="88" y="-130.5" font-family="Helvetica,sans-Serif" font-size="10.00">./protocol/command</text>
<text text-anchor="middle" x="137" y="-119.5" font-family="Helvetica,sans-Serif" font-size="10.00">_group.h</text>
</a>
</g>
</g>
<!-- Node1&#45;&gt;Node2 -->
<g id="edge1" class="edge">
<title>Node1&#45;&gt;Node2</title>
<path fill="none" stroke="midnightblue" d="M209.82,-179.48C198.31,-171.42 180.6,-159.02 165.53,-148.47"/>
<polygon fill="midnightblue" stroke="midnightblue" points="167.23,-145.39 157.03,-142.52 163.22,-151.12 167.23,-145.39"/>
</g>
<!-- Node31 -->
<g id="node6" class="node">
<title>Node31</title>
<g id="a_node6"><a xlink:href="traits_8h.html" target="_top" xlink:title=" ">
<polygon fill="white" stroke="red" points="221.5,-56.5 221.5,-75.5 278.5,-75.5 278.5,-56.5 221.5,-56.5"/>
<text text-anchor="middle" x="250" y="-63.5" font-family="Helvetica,sans-Serif" font-size="10.00">./traits.h</text>
</a>
</g>
</g>
<!-- Node1&#45;&gt;Node31 -->
<g id="edge8" class="edge">
<title>Node1&#45;&gt;Node31</title>
<path fill="none" stroke="midnightblue" d="M224.01,-179.3C228.53,-159.76 239.57,-112.06 245.71,-85.55"/>
<polygon fill="midnightblue" stroke="midnightblue" points="249.16,-86.15 248,-75.62 242.34,-84.58 249.16,-86.15"/>
</g>
<!-- Node51 -->
<g id="node7" class="node">
<title>Node51</title>
<g id="a_node7"><a xlink:href="tuple_8h.html" target="_top" xlink:title=" ">
<polygon fill="white" stroke="black" points="250.5,-118 250.5,-137 349.5,-137 349.5,-118 250.5,-118"/>
<text text-anchor="middle" x="300" y="-125" font-family="Helvetica,sans-Serif" font-size="10.00">./protocol/tuple.h</text>
</a>
</g>
</g>
<!-- Node1&#45;&gt;Node51 -->
<g id="edge9" class="edge">
<title>Node1&#45;&gt;Node51</title>
<path fill="none" stroke="midnightblue" d="M233.18,-179.48C245.57,-170.02 265.79,-154.6 280.75,-143.19"/>
<polygon fill="midnightblue" stroke="midnightblue" points="283.02,-145.86 288.85,-137.01 278.77,-140.29 283.02,-145.86"/>
</g>
<!-- Node3 -->
<g id="node3" class="node">
<title>Node3</title>
<g id="a_node3"><a xlink:href="algorithm_8h.html" target="_top" xlink:title=" ">
<polygon fill="white" stroke="red" points="0,-56.5 0,-75.5 82,-75.5 82,-56.5 0,-56.5"/>
<text text-anchor="middle" x="41" y="-63.5" font-family="Helvetica,sans-Serif" font-size="10.00">../algorithm.h</text>
</a>
</g>
</g>
<!-- Node2&#45;&gt;Node3 -->
<g id="edge2" class="edge">
<title>Node2&#45;&gt;Node3</title>
<path fill="none" stroke="midnightblue" d="M114.25,-112.4C99.01,-102.95 79.01,-90.56 63.76,-81.11"/>
<polygon fill="midnightblue" stroke="midnightblue" points="65.31,-77.95 54.97,-75.66 61.62,-83.9 65.31,-77.95"/>
</g>
<!-- Node5 -->
<g id="node4" class="node">
<title>Node5</title>
<g id="a_node4"><a xlink:href="types_8h.html" target="_top" xlink:title=" ">
<polygon fill="white" stroke="red" points="79,-0.5 79,-19.5 141,-19.5 141,-0.5 79,-0.5"/>
<text text-anchor="middle" x="110" y="-7.5" font-family="Helvetica,sans-Serif" font-size="10.00">../types.h</text>
</a>
</g>
</g>
<!-- Node2&#45;&gt;Node5 -->
<g id="edge5" class="edge">
<title>Node2&#45;&gt;Node5</title>
<path fill="none" stroke="midnightblue" d="M133.69,-112.34C128.82,-91.53 119.74,-52.66 114.34,-29.58"/>
<polygon fill="midnightblue" stroke="midnightblue" points="117.71,-28.61 112.03,-19.67 110.89,-30.2 117.71,-28.61"/>
</g>
<!-- Node29 -->
<g id="node5" class="node">
<title>Node29</title>
<g id="a_node5"><a xlink:href="assert_8h.html" target="_top" xlink:title=" ">
<polygon fill="white" stroke="red" points="138.5,-56.5 138.5,-75.5 203.5,-75.5 203.5,-56.5 138.5,-56.5"/>
<text text-anchor="middle" x="171" y="-63.5" font-family="Helvetica,sans-Serif" font-size="10.00">../assert.h</text>
</a>
</g>
</g>
<!-- Node2&#45;&gt;Node29 -->
<g id="edge4" class="edge">
<title>Node2&#45;&gt;Node29</title>
<path fill="none" stroke="midnightblue" d="M145.06,-112.4C149.85,-104.02 155.96,-93.33 161.04,-84.42"/>
<polygon fill="midnightblue" stroke="midnightblue" points="164.13,-86.08 166.05,-75.66 158.05,-82.6 164.13,-86.08"/>
</g>
<!-- Node2&#45;&gt;Node31 -->
<g id="edge6" class="edge">
<title>Node2&#45;&gt;Node31</title>
<path fill="none" stroke="midnightblue" d="M163.78,-112.4C182.06,-102.77 206.15,-90.09 224.21,-80.58"/>
<polygon fill="midnightblue" stroke="midnightblue" points="226.34,-83.41 233.56,-75.66 223.08,-77.22 226.34,-83.41"/>
</g>
<!-- Node3&#45;&gt;Node5 -->
<g id="edge3" class="edge">
<title>Node3&#45;&gt;Node5</title>
<path fill="none" stroke="midnightblue" d="M52.09,-56.32C62.49,-48.18 78.26,-35.84 90.72,-26.09"/>
<polygon fill="midnightblue" stroke="midnightblue" points="92.99,-28.75 98.71,-19.83 88.68,-23.24 92.99,-28.75"/>
</g>
<!-- Node31&#45;&gt;Node5 -->
<g id="edge7" class="edge">
<title>Node31&#45;&gt;Node5</title>
<path fill="none" stroke="midnightblue" d="M227.82,-56.44C204.57,-47.48 167.85,-33.31 141.58,-23.18"/>
<polygon fill="midnightblue" stroke="midnightblue" points="142.67,-19.85 132.08,-19.52 140.15,-26.38 142.67,-19.85"/>
</g>
<!-- Node51&#45;&gt;Node31 -->
<g id="edge10" class="edge">
<title>Node51&#45;&gt;Node31</title>
<path fill="none" stroke="midnightblue" d="M292.84,-117.98C285.26,-108.96 273.13,-94.52 263.71,-83.31"/>
<polygon fill="midnightblue" stroke="midnightblue" points="266.26,-80.91 257.15,-75.51 260.9,-85.42 266.26,-80.91"/>
</g>
</g>
</svg>
