<?xml version="1.0" encoding="UTF-8" standalone="no"?>
<!DOCTYPE svg PUBLIC "-//W3C//DTD SVG 1.1//EN"
 "http://www.w3.org/Graphics/SVG/1.1/DTD/svg11.dtd">
<!-- Generated by graphviz version 2.43.0 (0)
 -->
<!-- Title: include/emlabcpp/protocol/error.h Pages: 1 -->
<svg width="900pt" height="642pt"
 viewBox="0.00 0.00 900.01 642.00" xmlns="http://www.w3.org/2000/svg" xmlns:xlink="http://www.w3.org/1999/xlink">
<g id="graph0" class="graph" transform="scale(1 1) rotate(0) translate(4 638)">
<title>include/emlabcpp/protocol/error.h</title>
<polygon fill="white" stroke="transparent" points="-4,4 -4,-638 896.01,-638 896.01,4 -4,4"/>
<!-- Node1 -->
<g id="node1" class="node">
<title>Node1</title>
<g id="a_node1"><a xlink:title=" ">
<polygon fill="#bfbfbf" stroke="black" points="165.01,-603.5 165.01,-633.5 311.01,-633.5 311.01,-603.5 165.01,-603.5"/>
<text text-anchor="start" x="173.01" y="-621.5" font-family="Helvetica,sans-Serif" font-size="10.00">include/emlabcpp/protocol</text>
<text text-anchor="middle" x="238.01" y="-610.5" font-family="Helvetica,sans-Serif" font-size="10.00">/error.h</text>
</a>
</g>
</g>
<!-- Node2 -->
<g id="node2" class="node">
<title>Node2</title>
<g id="a_node2"><a xlink:href="protocol_2base_8h.html" target="_top" xlink:title=" ">
<polygon fill="white" stroke="black" points="115.01,-536.5 115.01,-566.5 261.01,-566.5 261.01,-536.5 115.01,-536.5"/>
<text text-anchor="start" x="123.01" y="-554.5" font-family="Helvetica,sans-Serif" font-size="10.00">include/emlabcpp/protocol</text>
<text text-anchor="middle" x="188.01" y="-543.5" font-family="Helvetica,sans-Serif" font-size="10.00">/base.h</text>
</a>
</g>
</g>
<!-- Node1&#45;&gt;Node2 -->
<g id="edge1" class="edge">
<title>Node1&#45;&gt;Node2</title>
<path fill="none" stroke="midnightblue" d="M221.05,-595.45C213.7,-585.9 205.32,-575 198.84,-566.58"/>
<polygon fill="midnightblue" stroke="midnightblue" points="218.29,-597.6 227.16,-603.4 223.84,-593.34 218.29,-597.6"/>
</g>
<!-- Node3 -->
<g id="node3" class="node">
<title>Node3</title>
<g id="a_node3"><a xlink:href="decl_8h.html" target="_top" xlink:title=" ">
<polygon fill="white" stroke="black" points="216.01,-469.5 216.01,-499.5 362.01,-499.5 362.01,-469.5 216.01,-469.5"/>
<text text-anchor="start" x="224.01" y="-487.5" font-family="Helvetica,sans-Serif" font-size="10.00">include/emlabcpp/protocol</text>
<text text-anchor="middle" x="289.01" y="-476.5" font-family="Helvetica,sans-Serif" font-size="10.00">/decl.h</text>
</a>
</g>
</g>
<!-- Node1&#45;&gt;Node3 -->
<g id="edge38" class="edge">
<title>Node1&#45;&gt;Node3</title>
<path fill="none" stroke="midnightblue" d="M254.73,-594.73C260.25,-586.35 266,-576.56 270.01,-567 279.45,-544.49 284.68,-516.42 287.16,-499.79"/>
<polygon fill="midnightblue" stroke="midnightblue" points="251.69,-592.97 248.92,-603.2 257.46,-596.93 251.69,-592.97"/>
</g>
<!-- Node2&#45;&gt;Node3 -->
<g id="edge2" class="edge">
<title>Node2&#45;&gt;Node3</title>
<path fill="none" stroke="midnightblue" d="M218.72,-530.73C234.35,-520.68 252.99,-508.68 267.14,-499.58"/>
<polygon fill="midnightblue" stroke="midnightblue" points="216.44,-528.04 209.93,-536.4 220.23,-533.93 216.44,-528.04"/>
</g>
<!-- Node20 -->
<g id="node20" class="node">
<title>Node20</title>
<g id="a_node20"><a xlink:href="register__map_8h.html" target="_top" xlink:title=" ">
<polygon fill="white" stroke="black" points="14.01,-402.5 14.01,-432.5 160.01,-432.5 160.01,-402.5 14.01,-402.5"/>
<text text-anchor="start" x="22.01" y="-420.5" font-family="Helvetica,sans-Serif" font-size="10.00">include/emlabcpp/protocol</text>
<text text-anchor="middle" x="87.01" y="-409.5" font-family="Helvetica,sans-Serif" font-size="10.00">/register_map.h</text>
</a>
</g>
</g>
<!-- Node2&#45;&gt;Node20 -->
<g id="edge33" class="edge">
<title>Node2&#45;&gt;Node20</title>
<path fill="none" stroke="midnightblue" d="M170.94,-528.19C150.03,-500.86 115.23,-455.38 97.74,-432.52"/>
<polygon fill="midnightblue" stroke="midnightblue" points="168.35,-530.56 177.2,-536.37 173.9,-526.3 168.35,-530.56"/>
</g>
<!-- Node21 -->
<g id="node21" class="node">
<title>Node21</title>
<g id="a_node21"><a xlink:href="streams_8h.html" target="_top" xlink:title=" ">
<polygon fill="white" stroke="black" points="14.01,-335.5 14.01,-365.5 160.01,-365.5 160.01,-335.5 14.01,-335.5"/>
<text text-anchor="start" x="22.01" y="-353.5" font-family="Helvetica,sans-Serif" font-size="10.00">include/emlabcpp/protocol</text>
<text text-anchor="middle" x="87.01" y="-342.5" font-family="Helvetica,sans-Serif" font-size="10.00">/streams.h</text>
</a>
</g>
</g>
<!-- Node2&#45;&gt;Node21 -->
<g id="edge37" class="edge">
<title>Node2&#45;&gt;Node21</title>
<path fill="none" stroke="midnightblue" d="M135.04,-532.8C91.41,-515.09 32.41,-483.16 5.01,-433 -1.59,-420.91 -1.71,-414.03 5.01,-402 14.31,-385.36 31.58,-373.53 47.89,-365.52"/>
<polygon fill="midnightblue" stroke="midnightblue" points="133.79,-536.07 144.38,-536.47 136.35,-529.56 133.79,-536.07"/>
</g>
<!-- Node24 -->
<g id="node24" class="node">
<title>Node24</title>
<g id="a_node24"><a xlink:href="serializer_8h.html" target="_top" xlink:title=" ">
<polygon fill="white" stroke="black" points="645.01,-469.5 645.01,-499.5 791.01,-499.5 791.01,-469.5 645.01,-469.5"/>
<text text-anchor="start" x="653.01" y="-487.5" font-family="Helvetica,sans-Serif" font-size="10.00">include/emlabcpp/protocol</text>
<text text-anchor="middle" x="718.01" y="-476.5" font-family="Helvetica,sans-Serif" font-size="10.00">/serializer.h</text>
</a>
</g>
</g>
<!-- Node2&#45;&gt;Node24 -->
<g id="edge34" class="edge">
<title>Node2&#45;&gt;Node24</title>
<path fill="none" stroke="midnightblue" d="M271.17,-540.3C373.85,-527.71 546.89,-506.49 644.77,-494.48"/>
<polygon fill="midnightblue" stroke="midnightblue" points="270.65,-536.84 261.15,-541.53 271.5,-543.79 270.65,-536.84"/>
</g>
<!-- Node4 -->
<g id="node4" class="node">
<title>Node4</title>
<g id="a_node4"><a xlink:href="command__group_8h.html" target="_top" xlink:title=" ">
<polygon fill="white" stroke="black" points="216.01,-402.5 216.01,-432.5 362.01,-432.5 362.01,-402.5 216.01,-402.5"/>
<text text-anchor="start" x="224.01" y="-420.5" font-family="Helvetica,sans-Serif" font-size="10.00">include/emlabcpp/protocol</text>
<text text-anchor="middle" x="289.01" y="-409.5" font-family="Helvetica,sans-Serif" font-size="10.00">/command_group.h</text>
</a>
</g>
</g>
<!-- Node3&#45;&gt;Node4 -->
<g id="edge3" class="edge">
<title>Node3&#45;&gt;Node4</title>
<path fill="none" stroke="midnightblue" d="M289.01,-459.11C289.01,-450.15 289.01,-440.32 289.01,-432.58"/>
<polygon fill="midnightblue" stroke="midnightblue" points="285.51,-459.4 289.01,-469.4 292.51,-459.4 285.51,-459.4"/>
</g>
<!-- Node5 -->
<g id="node5" class="node">
<title>Node5</title>
<g id="a_node5"><a xlink:href="protocol_8h.html" target="_top" xlink:title=" ">
<polygon fill="white" stroke="black" points="211.51,-341 211.51,-360 366.51,-360 366.51,-341 211.51,-341"/>
<text text-anchor="middle" x="289.01" y="-348" font-family="Helvetica,sans-Serif" font-size="10.00">include/emlabcpp/protocol.h</text>
</a>
</g>
</g>
<!-- Node3&#45;&gt;Node5 -->
<g id="edge32" class="edge">
<title>Node3&#45;&gt;Node5</title>
<path fill="none" stroke="midnightblue" d="M241.06,-464.79C227.63,-457.07 214.64,-446.65 207.01,-433 200.29,-420.97 200.29,-414.03 207.01,-402 218.67,-381.13 242.89,-367.82 262,-360.13"/>
<polygon fill="midnightblue" stroke="midnightblue" points="239.42,-467.88 249.89,-469.48 242.7,-461.7 239.42,-467.88"/>
</g>
<!-- Node15 -->
<g id="node15" class="node">
<title>Node15</title>
<g id="a_node15"><a xlink:href="def_8h.html" target="_top" xlink:title=" ">
<polygon fill="white" stroke="black" points="746.01,-402.5 746.01,-432.5 892.01,-432.5 892.01,-402.5 746.01,-402.5"/>
<text text-anchor="start" x="754.01" y="-420.5" font-family="Helvetica,sans-Serif" font-size="10.00">include/emlabcpp/protocol</text>
<text text-anchor="middle" x="819.01" y="-409.5" font-family="Helvetica,sans-Serif" font-size="10.00">/def.h</text>
</a>
</g>
</g>
<!-- Node3&#45;&gt;Node15 -->
<g id="edge17" class="edge">
<title>Node3&#45;&gt;Node15</title>
<path fill="none" stroke="midnightblue" d="M372.17,-473.3C474.85,-460.71 647.89,-439.49 745.77,-427.48"/>
<polygon fill="midnightblue" stroke="midnightblue" points="371.65,-469.84 362.15,-474.53 372.5,-476.79 371.65,-469.84"/>
</g>
<!-- Node19 -->
<g id="node19" class="node">
<title>Node19</title>
<g id="a_node19"><a xlink:href="json_8h.html" target="_top" xlink:title=" ">
<polygon fill="white" stroke="black" points="544.01,-402.5 544.01,-432.5 690.01,-432.5 690.01,-402.5 544.01,-402.5"/>
<text text-anchor="start" x="552.01" y="-420.5" font-family="Helvetica,sans-Serif" font-size="10.00">include/emlabcpp/protocol</text>
<text text-anchor="middle" x="617.01" y="-409.5" font-family="Helvetica,sans-Serif" font-size="10.00">/json.h</text>
</a>
</g>
</g>
<!-- Node3&#45;&gt;Node19 -->
<g id="edge23" class="edge">
<title>Node3&#45;&gt;Node19</title>
<path fill="none" stroke="midnightblue" d="M369.67,-467.52C423.71,-456.81 494.19,-442.84 546.09,-432.55"/>
<polygon fill="midnightblue" stroke="midnightblue" points="368.91,-464.1 359.78,-469.48 370.27,-470.97 368.91,-464.1"/>
</g>
<!-- Node3&#45;&gt;Node20 -->
<g id="edge24" class="edge">
<title>Node3&#45;&gt;Node20</title>
<path fill="none" stroke="midnightblue" d="M235.33,-466.23C202.66,-455.71 161.44,-442.45 130.76,-432.58"/>
<polygon fill="midnightblue" stroke="midnightblue" points="234.59,-469.66 245.18,-469.4 236.73,-463 234.59,-469.66"/>
</g>
<!-- Node22 -->
<g id="node22" class="node">
<title>Node22</title>
<g id="a_node22"><a xlink:href="tuple_8h.html" target="_top" xlink:title=" ">
<polygon fill="white" stroke="black" points="380.01,-402.5 380.01,-432.5 526.01,-432.5 526.01,-402.5 380.01,-402.5"/>
<text text-anchor="start" x="388.01" y="-420.5" font-family="Helvetica,sans-Serif" font-size="10.00">include/emlabcpp/protocol</text>
<text text-anchor="middle" x="453.01" y="-409.5" font-family="Helvetica,sans-Serif" font-size="10.00">/tuple.h</text>
</a>
</g>
</g>
<!-- Node3&#45;&gt;Node22 -->
<g id="edge27" class="edge">
<title>Node3&#45;&gt;Node22</title>
<path fill="none" stroke="midnightblue" d="M333.97,-465.68C360.27,-455.26 393.01,-442.28 417.49,-432.58"/>
<polygon fill="midnightblue" stroke="midnightblue" points="332.6,-462.46 324.6,-469.4 335.18,-468.97 332.6,-462.46"/>
</g>
<!-- Node4&#45;&gt;Node5 -->
<g id="edge4" class="edge">
<title>Node4&#45;&gt;Node5</title>
<path fill="none" stroke="midnightblue" d="M289.01,-392.25C289.01,-381.02 289.01,-368.38 289.01,-360.19"/>
<polygon fill="midnightblue" stroke="midnightblue" points="285.51,-392.4 289.01,-402.4 292.51,-392.4 285.51,-392.4"/>
</g>
<!-- Node6 -->
<g id="node6" class="node">
<title>Node6</title>
<g id="a_node6"><a xlink:href="experimental_2testing_2protocol_8h.html" target="_top" xlink:title=" ">
<polygon fill="white" stroke="black" points="203.51,-268.5 203.51,-298.5 374.51,-298.5 374.51,-268.5 203.51,-268.5"/>
<text text-anchor="start" x="211.51" y="-286.5" font-family="Helvetica,sans-Serif" font-size="10.00">include/emlabcpp/experimental</text>
<text text-anchor="middle" x="289.01" y="-275.5" font-family="Helvetica,sans-Serif" font-size="10.00">/testing/protocol.h</text>
</a>
</g>
</g>
<!-- Node5&#45;&gt;Node6 -->
<g id="edge5" class="edge">
<title>Node5&#45;&gt;Node6</title>
<path fill="none" stroke="midnightblue" d="M289.01,-330.41C289.01,-320.22 289.01,-307.9 289.01,-298.59"/>
<polygon fill="midnightblue" stroke="midnightblue" points="285.51,-330.73 289.01,-340.73 292.51,-330.73 285.51,-330.73"/>
</g>
<!-- Node7 -->
<g id="node7" class="node">
<title>Node7</title>
<g id="a_node7"><a xlink:href="controller__interface_8h.html" target="_top" xlink:title=" ">
<polygon fill="white" stroke="black" points="10.51,-134.5 10.51,-164.5 181.51,-164.5 181.51,-134.5 10.51,-134.5"/>
<text text-anchor="start" x="18.51" y="-152.5" font-family="Helvetica,sans-Serif" font-size="10.00">include/emlabcpp/experimental</text>
<text text-anchor="middle" x="96.01" y="-141.5" font-family="Helvetica,sans-Serif" font-size="10.00">/testing/controller_interface.h</text>
</a>
</g>
</g>
<!-- Node6&#45;&gt;Node7 -->
<g id="edge6" class="edge">
<title>Node6&#45;&gt;Node7</title>
<path fill="none" stroke="midnightblue" d="M266.18,-261.52C246.74,-244.19 217.63,-219.53 190.01,-201 169.4,-187.17 144.61,-173.98 125.66,-164.55"/>
<polygon fill="midnightblue" stroke="midnightblue" points="263.86,-264.14 273.64,-268.22 268.55,-258.94 263.86,-264.14"/>
</g>
<!-- Node10 -->
<g id="node10" class="node">
<title>Node10</title>
<g id="a_node10"><a xlink:href="experimental_2testing_2error_8h.html" target="_top" xlink:title=" ">
<polygon fill="white" stroke="black" points="10.51,-201.5 10.51,-231.5 181.51,-231.5 181.51,-201.5 10.51,-201.5"/>
<text text-anchor="start" x="18.51" y="-219.5" font-family="Helvetica,sans-Serif" font-size="10.00">include/emlabcpp/experimental</text>
<text text-anchor="middle" x="96.01" y="-208.5" font-family="Helvetica,sans-Serif" font-size="10.00">/testing/error.h</text>
</a>
</g>
</g>
<!-- Node6&#45;&gt;Node10 -->
<g id="edge9" class="edge">
<title>Node6&#45;&gt;Node10</title>
<path fill="none" stroke="midnightblue" d="M237.32,-265.09C206.17,-254.6 167,-241.41 137.81,-231.58"/>
<polygon fill="midnightblue" stroke="midnightblue" points="236.54,-268.52 247.13,-268.4 238.77,-261.89 236.54,-268.52"/>
</g>
<!-- Node11 -->
<g id="node11" class="node">
<title>Node11</title>
<g id="a_node11"><a xlink:href="reactor_8h.html" target="_top" xlink:title=" ">
<polygon fill="white" stroke="black" points="445.51,-67.5 445.51,-97.5 616.51,-97.5 616.51,-67.5 445.51,-67.5"/>
<text text-anchor="start" x="453.51" y="-85.5" font-family="Helvetica,sans-Serif" font-size="10.00">include/emlabcpp/experimental</text>
<text text-anchor="middle" x="531.01" y="-74.5" font-family="Helvetica,sans-Serif" font-size="10.00">/testing/reactor.h</text>
</a>
</g>
</g>
<!-- Node6&#45;&gt;Node11 -->
<g id="edge11" class="edge">
<title>Node6&#45;&gt;Node11</title>
<path fill="none" stroke="midnightblue" d="M384.69,-275.11C426.79,-268.44 475.35,-255.81 514.01,-232 546.81,-211.79 556.03,-201.27 569.01,-165 573.65,-152.03 573.38,-147.07 569.01,-134 564.42,-120.26 554.46,-107.27 545.89,-97.9"/>
<polygon fill="midnightblue" stroke="midnightblue" points="384.06,-271.67 374.69,-276.61 385.1,-278.59 384.06,-271.67"/>
</g>
<!-- Node12 -->
<g id="node12" class="node">
<title>Node12</title>
<g id="a_node12"><a xlink:href="reactor__interface_8h.html" target="_top" xlink:title=" ">
<polygon fill="white" stroke="black" points="199.51,-134.5 199.51,-164.5 370.51,-164.5 370.51,-134.5 199.51,-134.5"/>
<text text-anchor="start" x="207.51" y="-152.5" font-family="Helvetica,sans-Serif" font-size="10.00">include/emlabcpp/experimental</text>
<text text-anchor="middle" x="285.01" y="-141.5" font-family="Helvetica,sans-Serif" font-size="10.00">/testing/reactor_interface.h</text>
</a>
</g>
</g>
<!-- Node6&#45;&gt;Node12 -->
<g id="edge12" class="edge">
<title>Node6&#45;&gt;Node12</title>
<path fill="none" stroke="midnightblue" d="M288.27,-258.02C287.44,-230.51 286.11,-186.79 285.44,-164.52"/>
<polygon fill="midnightblue" stroke="midnightblue" points="284.78,-258.48 288.58,-268.37 291.78,-258.27 284.78,-258.48"/>
</g>
<!-- Node13 -->
<g id="node13" class="node">
<title>Node13</title>
<g id="a_node13"><a xlink:href="record_8h.html" target="_top" xlink:title=" ">
<polygon fill="white" stroke="black" points="333.51,-201.5 333.51,-231.5 504.51,-231.5 504.51,-201.5 333.51,-201.5"/>
<text text-anchor="start" x="341.51" y="-219.5" font-family="Helvetica,sans-Serif" font-size="10.00">include/emlabcpp/experimental</text>
<text text-anchor="middle" x="419.01" y="-208.5" font-family="Helvetica,sans-Serif" font-size="10.00">/testing/record.h</text>
</a>
</g>
</g>
<!-- Node6&#45;&gt;Node13 -->
<g id="edge14" class="edge">
<title>Node6&#45;&gt;Node13</title>
<path fill="none" stroke="midnightblue" d="M326.3,-263.85C346.86,-253.58 371.96,-241.03 390.86,-231.58"/>
<polygon fill="midnightblue" stroke="midnightblue" points="324.6,-260.79 317.22,-268.4 327.73,-267.05 324.6,-260.79"/>
</g>
<!-- Node8 -->
<g id="node8" class="node">
<title>Node8</title>
<g id="a_node8"><a xlink:href="controller_8h.html" target="_top" xlink:title=" ">
<polygon fill="white" stroke="black" points="10.51,-67.5 10.51,-97.5 181.51,-97.5 181.51,-67.5 10.51,-67.5"/>
<text text-anchor="start" x="18.51" y="-85.5" font-family="Helvetica,sans-Serif" font-size="10.00">include/emlabcpp/experimental</text>
<text text-anchor="middle" x="96.01" y="-74.5" font-family="Helvetica,sans-Serif" font-size="10.00">/testing/controller.h</text>
</a>
</g>
</g>
<!-- Node7&#45;&gt;Node8 -->
<g id="edge7" class="edge">
<title>Node7&#45;&gt;Node8</title>
<path fill="none" stroke="midnightblue" d="M96.01,-124.11C96.01,-115.15 96.01,-105.32 96.01,-97.58"/>
<polygon fill="midnightblue" stroke="midnightblue" points="92.51,-124.4 96.01,-134.4 99.51,-124.4 92.51,-124.4"/>
</g>
<!-- Node9 -->
<g id="node9" class="node">
<title>Node9</title>
<g id="a_node9"><a xlink:href="gtest_8h.html" target="_top" xlink:title=" ">
<polygon fill="white" stroke="black" points="10.51,-0.5 10.51,-30.5 181.51,-30.5 181.51,-0.5 10.51,-0.5"/>
<text text-anchor="start" x="18.51" y="-18.5" font-family="Helvetica,sans-Serif" font-size="10.00">include/emlabcpp/experimental</text>
<text text-anchor="middle" x="96.01" y="-7.5" font-family="Helvetica,sans-Serif" font-size="10.00">/testing/gtest.h</text>
</a>
</g>
</g>
<!-- Node8&#45;&gt;Node9 -->
<g id="edge8" class="edge">
<title>Node8&#45;&gt;Node9</title>
<path fill="none" stroke="midnightblue" d="M96.01,-57.11C96.01,-48.15 96.01,-38.32 96.01,-30.58"/>
<polygon fill="midnightblue" stroke="midnightblue" points="92.51,-57.4 96.01,-67.4 99.51,-57.4 92.51,-57.4"/>
</g>
<!-- Node10&#45;&gt;Node7 -->
<g id="edge10" class="edge">
<title>Node10&#45;&gt;Node7</title>
<path fill="none" stroke="midnightblue" d="M96.01,-191.11C96.01,-182.15 96.01,-172.32 96.01,-164.58"/>
<polygon fill="midnightblue" stroke="midnightblue" points="92.51,-191.4 96.01,-201.4 99.51,-191.4 92.51,-191.4"/>
</g>
<!-- Node12&#45;&gt;Node11 -->
<g id="edge13" class="edge">
<title>Node12&#45;&gt;Node11</title>
<path fill="none" stroke="midnightblue" d="M347.77,-131.92C387.92,-121.31 439.43,-107.7 477.61,-97.61"/>
<polygon fill="midnightblue" stroke="midnightblue" points="346.86,-128.54 338.09,-134.48 348.65,-135.31 346.86,-128.54"/>
</g>
<!-- Node14 -->
<g id="node14" class="node">
<title>Node14</title>
<g id="a_node14"><a xlink:href="interface_8h.html" target="_top" xlink:title=" ">
<polygon fill="white" stroke="black" points="388.51,-134.5 388.51,-164.5 559.51,-164.5 559.51,-134.5 388.51,-134.5"/>
<text text-anchor="start" x="396.51" y="-152.5" font-family="Helvetica,sans-Serif" font-size="10.00">include/emlabcpp/experimental</text>
<text text-anchor="middle" x="474.01" y="-141.5" font-family="Helvetica,sans-Serif" font-size="10.00">/testing/interface.h</text>
</a>
</g>
</g>
<!-- Node13&#45;&gt;Node14 -->
<g id="edge15" class="edge">
<title>Node13&#45;&gt;Node14</title>
<path fill="none" stroke="midnightblue" d="M437.43,-193.74C445.56,-184.12 454.9,-173.09 462.1,-164.58"/>
<polygon fill="midnightblue" stroke="midnightblue" points="434.73,-191.5 430.94,-201.4 440.08,-196.02 434.73,-191.5"/>
</g>
<!-- Node14&#45;&gt;Node11 -->
<g id="edge16" class="edge">
<title>Node14&#45;&gt;Node11</title>
<path fill="none" stroke="midnightblue" d="M493.1,-126.74C501.53,-117.12 511.2,-106.09 518.67,-97.58"/>
<polygon fill="midnightblue" stroke="midnightblue" points="490.34,-124.57 486.38,-134.4 495.6,-129.18 490.34,-124.57"/>
</g>
<!-- Node16 -->
<g id="node16" class="node">
<title>Node16</title>
<g id="a_node16"><a xlink:href="handler_8h.html" target="_top" xlink:title=" ">
<polygon fill="white" stroke="black" points="746.01,-335.5 746.01,-365.5 892.01,-365.5 892.01,-335.5 746.01,-335.5"/>
<text text-anchor="start" x="754.01" y="-353.5" font-family="Helvetica,sans-Serif" font-size="10.00">include/emlabcpp/protocol</text>
<text text-anchor="middle" x="819.01" y="-342.5" font-family="Helvetica,sans-Serif" font-size="10.00">/handler.h</text>
</a>
</g>
</g>
<!-- Node15&#45;&gt;Node16 -->
<g id="edge18" class="edge">
<title>Node15&#45;&gt;Node16</title>
<path fill="none" stroke="midnightblue" d="M819.01,-392.11C819.01,-383.15 819.01,-373.32 819.01,-365.58"/>
<polygon fill="midnightblue" stroke="midnightblue" points="815.51,-392.4 819.01,-402.4 822.51,-392.4 815.51,-392.4"/>
</g>
<!-- Node18 -->
<g id="node18" class="node">
<title>Node18</title>
<g id="a_node18"><a xlink:href="register__handler_8h.html" target="_top" xlink:title=" ">
<polygon fill="white" stroke="black" points="582.01,-335.5 582.01,-365.5 728.01,-365.5 728.01,-335.5 582.01,-335.5"/>
<text text-anchor="start" x="590.01" y="-353.5" font-family="Helvetica,sans-Serif" font-size="10.00">include/emlabcpp/protocol</text>
<text text-anchor="middle" x="655.01" y="-342.5" font-family="Helvetica,sans-Serif" font-size="10.00">/register_handler.h</text>
</a>
</g>
</g>
<!-- Node15&#45;&gt;Node18 -->
<g id="edge22" class="edge">
<title>Node15&#45;&gt;Node18</title>
<path fill="none" stroke="midnightblue" d="M774.05,-398.68C747.75,-388.26 715.01,-375.28 690.53,-365.58"/>
<polygon fill="midnightblue" stroke="midnightblue" points="772.84,-401.97 783.43,-402.4 775.42,-395.46 772.84,-401.97"/>
</g>
<!-- Node17 -->
<g id="node17" class="node">
<title>Node17</title>
<g id="a_node17"><a xlink:href="packet__handler_8h.html" target="_top" xlink:title=" ">
<polygon fill="white" stroke="black" points="511.01,-268.5 511.01,-298.5 657.01,-298.5 657.01,-268.5 511.01,-268.5"/>
<text text-anchor="start" x="519.01" y="-286.5" font-family="Helvetica,sans-Serif" font-size="10.00">include/emlabcpp/protocol</text>
<text text-anchor="middle" x="584.01" y="-275.5" font-family="Helvetica,sans-Serif" font-size="10.00">/packet_handler.h</text>
</a>
</g>
</g>
<!-- Node16&#45;&gt;Node17 -->
<g id="edge19" class="edge">
<title>Node16&#45;&gt;Node17</title>
<path fill="none" stroke="midnightblue" d="M758.33,-332.71C720.08,-322.14 671.27,-308.63 635.03,-298.61"/>
<polygon fill="midnightblue" stroke="midnightblue" points="757.74,-336.18 768.31,-335.48 759.6,-329.44 757.74,-336.18"/>
</g>
<!-- Node17&#45;&gt;Node11 -->
<g id="edge21" class="edge">
<title>Node17&#45;&gt;Node11</title>
<path fill="none" stroke="midnightblue" d="M594.68,-259.07C606.91,-228.51 622.76,-174.23 602.01,-134 593.76,-118 577.84,-105.97 563.16,-97.66"/>
<polygon fill="midnightblue" stroke="midnightblue" points="591.38,-257.89 590.73,-268.47 597.83,-260.61 591.38,-257.89"/>
</g>
<!-- Node17&#45;&gt;Node14 -->
<g id="edge20" class="edge">
<title>Node17&#45;&gt;Node14</title>
<path fill="none" stroke="midnightblue" d="M565.71,-260.54C542.97,-233.25 504.83,-187.48 485.7,-164.52"/>
<polygon fill="midnightblue" stroke="midnightblue" points="563.15,-262.93 572.24,-268.37 568.53,-258.45 563.15,-262.93"/>
</g>
<!-- Node20&#45;&gt;Node21 -->
<g id="edge25" class="edge">
<title>Node20&#45;&gt;Node21</title>
<path fill="none" stroke="midnightblue" d="M87.01,-392.11C87.01,-383.15 87.01,-373.32 87.01,-365.58"/>
<polygon fill="midnightblue" stroke="midnightblue" points="83.51,-392.4 87.01,-402.4 90.51,-392.4 83.51,-392.4"/>
</g>
<!-- Node21&#45;&gt;Node10 -->
<g id="edge26" class="edge">
<title>Node21&#45;&gt;Node10</title>
<path fill="none" stroke="midnightblue" d="M88.65,-325.39C90.53,-297.9 93.53,-253.89 95.05,-231.52"/>
<polygon fill="midnightblue" stroke="midnightblue" points="85.16,-325.16 87.97,-335.37 92.15,-325.63 85.16,-325.16"/>
</g>
<!-- Node22&#45;&gt;Node5 -->
<g id="edge31" class="edge">
<title>Node22&#45;&gt;Node5</title>
<path fill="none" stroke="midnightblue" d="M407.9,-398.62C376.16,-386.04 335.1,-369.77 310.47,-360.01"/>
<polygon fill="midnightblue" stroke="midnightblue" points="406.84,-401.97 417.43,-402.4 409.42,-395.46 406.84,-401.97"/>
</g>
<!-- Node23 -->
<g id="node23" class="node">
<title>Node23</title>
<g id="a_node23"><a xlink:href="packet_8h.html" target="_top" xlink:title=" ">
<polygon fill="white" stroke="black" points="402.01,-335.5 402.01,-365.5 548.01,-365.5 548.01,-335.5 402.01,-335.5"/>
<text text-anchor="start" x="410.01" y="-353.5" font-family="Helvetica,sans-Serif" font-size="10.00">include/emlabcpp/protocol</text>
<text text-anchor="middle" x="475.01" y="-342.5" font-family="Helvetica,sans-Serif" font-size="10.00">/packet.h</text>
</a>
</g>
</g>
<!-- Node22&#45;&gt;Node23 -->
<g id="edge28" class="edge">
<title>Node22&#45;&gt;Node23</title>
<path fill="none" stroke="midnightblue" d="M461.07,-392.7C464.15,-383.59 467.57,-373.49 470.25,-365.58"/>
<polygon fill="midnightblue" stroke="midnightblue" points="457.68,-391.8 457.78,-402.4 464.31,-394.05 457.68,-391.8"/>
</g>
<!-- Node23&#45;&gt;Node6 -->
<g id="edge29" class="edge">
<title>Node23&#45;&gt;Node6</title>
<path fill="none" stroke="midnightblue" d="M425.2,-332.09C395.17,-321.6 357.43,-308.41 329.29,-298.58"/>
<polygon fill="midnightblue" stroke="midnightblue" points="424.06,-335.4 434.65,-335.4 426.37,-328.79 424.06,-335.4"/>
</g>
<!-- Node23&#45;&gt;Node17 -->
<g id="edge30" class="edge">
<title>Node23&#45;&gt;Node17</title>
<path fill="none" stroke="midnightblue" d="M507.69,-330.02C524.65,-319.9 544.99,-307.77 560.41,-298.58"/>
<polygon fill="midnightblue" stroke="midnightblue" points="505.46,-327.27 498.66,-335.4 509.04,-333.28 505.46,-327.27"/>
</g>
<!-- Node24&#45;&gt;Node15 -->
<g id="edge35" class="edge">
<title>Node24&#45;&gt;Node15</title>
<path fill="none" stroke="midnightblue" d="M748.72,-463.73C764.35,-453.68 782.99,-441.68 797.14,-432.58"/>
<polygon fill="midnightblue" stroke="midnightblue" points="746.44,-461.04 739.93,-469.4 750.23,-466.93 746.44,-461.04"/>
</g>
<!-- Node24&#45;&gt;Node23 -->
<g id="edge36" class="edge">
<title>Node24&#45;&gt;Node23</title>
<path fill="none" stroke="midnightblue" d="M718.82,-459.11C718.06,-440.94 713.94,-416.82 699.01,-402 688.12,-391.19 609.27,-375.11 548.17,-364.01"/>
<polygon fill="midnightblue" stroke="midnightblue" points="715.32,-459.29 718.93,-469.25 722.32,-459.21 715.32,-459.29"/>
</g>
</g>
</svg>
