<?xml version="1.0" encoding="UTF-8" standalone="no"?>
<!DOCTYPE svg PUBLIC "-//W3C//DTD SVG 1.1//EN"
 "http://www.w3.org/Graphics/SVG/1.1/DTD/svg11.dtd">
<!-- Generated by graphviz version 2.43.0 (0)
 -->
<!-- Title: include/emlabcpp/protocol/base.h Pages: 1 -->
<svg width="833pt" height="218pt"
 viewBox="0.00 0.00 832.83 218.00" xmlns="http://www.w3.org/2000/svg" xmlns:xlink="http://www.w3.org/1999/xlink">
<g id="graph0" class="graph" transform="scale(1 1) rotate(0) translate(4 214)">
<title>include/emlabcpp/protocol/base.h</title>
<polygon fill="white" stroke="transparent" points="-4,4 -4,-214 828.83,-214 828.83,4 -4,4"/>
<!-- Node1 -->
<g id="node1" class="node">
<title>Node1</title>
<g id="a_node1"><a xlink:title=" ">
<polygon fill="#bfbfbf" stroke="black" points="443.83,-179.5 443.83,-209.5 589.83,-209.5 589.83,-179.5 443.83,-179.5"/>
<text text-anchor="start" x="451.83" y="-197.5" font-family="Helvetica,sans-Serif" font-size="10.00">include/emlabcpp/protocol</text>
<text text-anchor="middle" x="516.83" y="-186.5" font-family="Helvetica,sans-Serif" font-size="10.00">/base.h</text>
</a>
</g>
</g>
<!-- Node2 -->
<g id="node2" class="node">
<title>Node2</title>
<g id="a_node2"><a xlink:href="bounded_8h.html" target="_top" xlink:title=" ">
<polygon fill="white" stroke="black" points="270.33,-123.5 270.33,-142.5 389.33,-142.5 389.33,-123.5 270.33,-123.5"/>
<text text-anchor="middle" x="329.83" y="-130.5" font-family="Helvetica,sans-Serif" font-size="10.00">emlabcpp/bounded.h</text>
</a>
</g>
</g>
<!-- Node1&#45;&gt;Node2 -->
<g id="edge1" class="edge">
<title>Node1&#45;&gt;Node2</title>
<path fill="none" stroke="midnightblue" d="M472.51,-179.4C440.2,-169.12 396.93,-155.35 366.54,-145.68"/>
<polygon fill="midnightblue" stroke="midnightblue" points="367.36,-142.27 356.77,-142.57 365.23,-148.94 367.36,-142.27"/>
</g>
<!-- Node13 -->
<g id="node4" class="node">
<title>Node13</title>
<g id="a_node4"><a xlink:title=" ">
<polygon fill="white" stroke="#bfbfbf" points="49.33,-0.5 49.33,-19.5 100.33,-19.5 100.33,-0.5 49.33,-0.5"/>
<text text-anchor="middle" x="74.83" y="-7.5" font-family="Helvetica,sans-Serif" font-size="10.00">variant</text>
</a>
</g>
</g>
<!-- Node1&#45;&gt;Node13 -->
<g id="edge19" class="edge">
<title>Node1&#45;&gt;Node13</title>
<path fill="none" stroke="midnightblue" d="M443.71,-189.33C315.8,-180.33 59.85,-154.18 5.83,-87 -2.81,-76.26 -0.73,-68.11 5.83,-56 13.58,-41.7 28.06,-31.22 41.77,-23.99"/>
<polygon fill="midnightblue" stroke="midnightblue" points="43.57,-27.01 51.04,-19.5 40.51,-20.71 43.57,-27.01"/>
</g>
<!-- Node9 -->
<g id="node7" class="node">
<title>Node9</title>
<g id="a_node7"><a xlink:title=" ">
<polygon fill="white" stroke="#bfbfbf" points="379.33,-62 379.33,-81 448.33,-81 448.33,-62 379.33,-62"/>
<text text-anchor="middle" x="413.83" y="-69" font-family="Helvetica,sans-Serif" font-size="10.00">type_traits</text>
</a>
</g>
</g>
<!-- Node1&#45;&gt;Node9 -->
<g id="edge18" class="edge">
<title>Node1&#45;&gt;Node9</title>
<path fill="none" stroke="midnightblue" d="M484.14,-179.47C467.88,-171.02 449.14,-158.81 436.83,-143 425.11,-127.94 419.25,-106.69 416.39,-91.46"/>
<polygon fill="midnightblue" stroke="midnightblue" points="419.79,-90.51 414.75,-81.19 412.87,-91.62 419.79,-90.51"/>
</g>
<!-- Node37 -->
<g id="node8" class="node">
<title>Node37</title>
<g id="a_node8"><a xlink:href="protocol_2error_8h.html" target="_top" xlink:title=" ">
<polygon fill="white" stroke="black" points="445.83,-123.5 445.83,-142.5 587.83,-142.5 587.83,-123.5 445.83,-123.5"/>
<text text-anchor="middle" x="516.83" y="-130.5" font-family="Helvetica,sans-Serif" font-size="10.00">emlabcpp/protocol/error.h</text>
</a>
</g>
</g>
<!-- Node1&#45;&gt;Node37 -->
<g id="edge8" class="edge">
<title>Node1&#45;&gt;Node37</title>
<path fill="none" stroke="midnightblue" d="M516.83,-179.4C516.83,-171.47 516.83,-161.46 516.83,-152.86"/>
<polygon fill="midnightblue" stroke="midnightblue" points="520.33,-152.66 516.83,-142.66 513.33,-152.66 520.33,-152.66"/>
</g>
<!-- Node40 -->
<g id="node12" class="node">
<title>Node40</title>
<g id="a_node12"><a xlink:title=" ">
<polygon fill="white" stroke="#bfbfbf" points="663.83,-0.5 663.83,-19.5 713.83,-19.5 713.83,-0.5 663.83,-0.5"/>
<text text-anchor="middle" x="688.83" y="-7.5" font-family="Helvetica,sans-Serif" font-size="10.00">cstring</text>
</a>
</g>
</g>
<!-- Node1&#45;&gt;Node40 -->
<g id="edge17" class="edge">
<title>Node1&#45;&gt;Node40</title>
<path fill="none" stroke="midnightblue" d="M560.11,-179.49C600.46,-163.89 658.41,-134.44 685.83,-87 695.92,-69.54 695.04,-45.85 692.68,-29.59"/>
<polygon fill="midnightblue" stroke="midnightblue" points="696.12,-28.93 690.93,-19.69 689.23,-30.14 696.12,-28.93"/>
</g>
<!-- Node41 -->
<g id="node13" class="node">
<title>Node41</title>
<g id="a_node13"><a xlink:title=" ">
<polygon fill="white" stroke="#bfbfbf" points="733.33,-123.5 733.33,-142.5 762.33,-142.5 762.33,-123.5 733.33,-123.5"/>
<text text-anchor="middle" x="747.83" y="-130.5" font-family="Helvetica,sans-Serif" font-size="10.00">bit</text>
</a>
</g>
</g>
<!-- Node1&#45;&gt;Node41 -->
<g id="edge15" class="edge">
<title>Node1&#45;&gt;Node41</title>
<path fill="none" stroke="midnightblue" d="M576.72,-179.46C617.04,-169.78 671.31,-156.3 718.83,-143 720.29,-142.59 721.79,-142.16 723.29,-141.72"/>
<polygon fill="midnightblue" stroke="midnightblue" points="724.57,-144.99 733.12,-138.74 722.54,-138.29 724.57,-144.99"/>
</g>
<!-- Node27 -->
<g id="node14" class="node">
<title>Node27</title>
<g id="a_node14"><a xlink:title=" ">
<polygon fill="white" stroke="#bfbfbf" points="780.83,-123.5 780.83,-142.5 824.83,-142.5 824.83,-123.5 780.83,-123.5"/>
<text text-anchor="middle" x="802.83" y="-130.5" font-family="Helvetica,sans-Serif" font-size="10.00">bitset</text>
</a>
</g>
</g>
<!-- Node1&#45;&gt;Node27 -->
<g id="edge16" class="edge">
<title>Node1&#45;&gt;Node27</title>
<path fill="none" stroke="midnightblue" d="M590.02,-180.75C638.79,-171.85 704.49,-159.09 770.76,-143.1"/>
<polygon fill="midnightblue" stroke="midnightblue" points="771.65,-146.49 780.54,-140.72 770,-139.69 771.65,-146.49"/>
</g>
<!-- Node3 -->
<g id="node3" class="node">
<title>Node3</title>
<g id="a_node3"><a xlink:href="concepts_8h.html" target="_top" xlink:title=" ">
<polygon fill="white" stroke="red" points="14.83,-62 14.83,-81 134.83,-81 134.83,-62 14.83,-62"/>
<text text-anchor="middle" x="74.83" y="-69" font-family="Helvetica,sans-Serif" font-size="10.00">emlabcpp/concepts.h</text>
</a>
</g>
</g>
<!-- Node2&#45;&gt;Node3 -->
<g id="edge2" class="edge">
<title>Node2&#45;&gt;Node3</title>
<path fill="none" stroke="midnightblue" d="M293.29,-123.48C247.94,-112.89 170.55,-94.84 121.1,-83.3"/>
<polygon fill="midnightblue" stroke="midnightblue" points="121.83,-79.87 111.3,-81.01 120.24,-86.69 121.83,-79.87"/>
</g>
<!-- Node14 -->
<g id="node5" class="node">
<title>Node14</title>
<g id="a_node5"><a xlink:href="logging_8h.html" target="_top" xlink:title=" ">
<polygon fill="white" stroke="red" points="153.33,-56.5 153.33,-86.5 286.33,-86.5 286.33,-56.5 153.33,-56.5"/>
<text text-anchor="start" x="161.33" y="-74.5" font-family="Helvetica,sans-Serif" font-size="10.00">emlabcpp/experimental</text>
<text text-anchor="middle" x="219.83" y="-63.5" font-family="Helvetica,sans-Serif" font-size="10.00">/logging.h</text>
</a>
</g>
</g>
<!-- Node2&#45;&gt;Node14 -->
<g id="edge4" class="edge">
<title>Node2&#45;&gt;Node14</title>
<path fill="none" stroke="midnightblue" d="M314.07,-123.48C298.61,-115.12 274.53,-102.09 254.58,-91.3"/>
<polygon fill="midnightblue" stroke="midnightblue" points="256.21,-88.2 245.75,-86.52 252.88,-94.36 256.21,-88.2"/>
</g>
<!-- Node32 -->
<g id="node6" class="node">
<title>Node32</title>
<g id="a_node6"><a xlink:title=" ">
<polygon fill="white" stroke="#bfbfbf" points="304.83,-62 304.83,-81 360.83,-81 360.83,-62 304.83,-62"/>
<text text-anchor="middle" x="332.83" y="-69" font-family="Helvetica,sans-Serif" font-size="10.00">optional</text>
</a>
</g>
</g>
<!-- Node2&#45;&gt;Node32 -->
<g id="edge6" class="edge">
<title>Node2&#45;&gt;Node32</title>
<path fill="none" stroke="midnightblue" d="M330.26,-123.48C330.68,-115.08 331.34,-101.98 331.89,-91.16"/>
<polygon fill="midnightblue" stroke="midnightblue" points="335.39,-91.17 332.4,-81.01 328.4,-90.82 335.39,-91.17"/>
</g>
<!-- Node2&#45;&gt;Node9 -->
<g id="edge7" class="edge">
<title>Node2&#45;&gt;Node9</title>
<path fill="none" stroke="midnightblue" d="M341.86,-123.48C355.34,-113.93 377.39,-98.31 393.54,-86.87"/>
<polygon fill="midnightblue" stroke="midnightblue" points="395.68,-89.65 401.82,-81.01 391.63,-83.93 395.68,-89.65"/>
</g>
<!-- Node3&#45;&gt;Node13 -->
<g id="edge3" class="edge">
<title>Node3&#45;&gt;Node13</title>
<path fill="none" stroke="midnightblue" d="M74.83,-61.98C74.83,-53.58 74.83,-40.48 74.83,-29.66"/>
<polygon fill="midnightblue" stroke="midnightblue" points="78.33,-29.51 74.83,-19.51 71.33,-29.51 78.33,-29.51"/>
</g>
<!-- Node14&#45;&gt;Node13 -->
<g id="edge5" class="edge">
<title>Node14&#45;&gt;Node13</title>
<path fill="none" stroke="midnightblue" d="M185.47,-56.4C161.14,-46.42 128.8,-33.15 105.37,-23.53"/>
<polygon fill="midnightblue" stroke="midnightblue" points="106.51,-20.22 95.93,-19.66 103.85,-26.69 106.51,-20.22"/>
</g>
<!-- Node38 -->
<g id="node9" class="node">
<title>Node38</title>
<g id="a_node9"><a xlink:href="string__buffer_8h.html" target="_top" xlink:title=" ">
<polygon fill="white" stroke="red" points="543.33,-56.5 543.33,-86.5 676.33,-86.5 676.33,-56.5 543.33,-56.5"/>
<text text-anchor="start" x="551.33" y="-74.5" font-family="Helvetica,sans-Serif" font-size="10.00">emlabcpp/experimental</text>
<text text-anchor="middle" x="609.83" y="-63.5" font-family="Helvetica,sans-Serif" font-size="10.00">/string_buffer.h</text>
</a>
</g>
</g>
<!-- Node37&#45;&gt;Node38 -->
<g id="edge9" class="edge">
<title>Node37&#45;&gt;Node38</title>
<path fill="none" stroke="midnightblue" d="M530.15,-123.48C542.87,-115.34 562.48,-102.79 579.07,-92.18"/>
<polygon fill="midnightblue" stroke="midnightblue" points="581.37,-94.86 587.91,-86.52 577.6,-88.96 581.37,-94.86"/>
</g>
<!-- Node39 -->
<g id="node10" class="node">
<title>Node39</title>
<g id="a_node10"><a xlink:title=" ">
<polygon fill="white" stroke="#bfbfbf" points="459.83,-0.5 459.83,-19.5 523.83,-19.5 523.83,-0.5 459.83,-0.5"/>
<text text-anchor="middle" x="491.83" y="-7.5" font-family="Helvetica,sans-Serif" font-size="10.00">algorithm</text>
</a>
</g>
</g>
<!-- Node37&#45;&gt;Node39 -->
<g id="edge13" class="edge">
<title>Node37&#45;&gt;Node39</title>
<path fill="none" stroke="midnightblue" d="M513.04,-123.21C509.34,-114.27 503.85,-99.92 500.83,-87 496.34,-67.82 494.04,-45.38 492.89,-29.87"/>
<polygon fill="midnightblue" stroke="midnightblue" points="496.36,-29.29 492.22,-19.54 489.37,-29.75 496.36,-29.29"/>
</g>
<!-- Node5 -->
<g id="node11" class="node">
<title>Node5</title>
<g id="a_node11"><a xlink:title=" ">
<polygon fill="white" stroke="#bfbfbf" points="572.83,-0.5 572.83,-19.5 614.83,-19.5 614.83,-0.5 572.83,-0.5"/>
<text text-anchor="middle" x="593.83" y="-7.5" font-family="Helvetica,sans-Serif" font-size="10.00">array</text>
</a>
</g>
</g>
<!-- Node37&#45;&gt;Node5 -->
<g id="edge14" class="edge">
<title>Node37&#45;&gt;Node5</title>
<path fill="none" stroke="midnightblue" d="M516.87,-123.28C517.33,-108.33 520.03,-77.35 533.83,-56 542.16,-43.1 555.55,-32.54 567.57,-24.89"/>
<polygon fill="midnightblue" stroke="midnightblue" points="569.6,-27.76 576.39,-19.63 566.01,-21.75 569.6,-27.76"/>
</g>
<!-- Node38&#45;&gt;Node39 -->
<g id="edge10" class="edge">
<title>Node38&#45;&gt;Node39</title>
<path fill="none" stroke="midnightblue" d="M581.86,-56.4C562.51,-46.64 536.92,-33.74 517.97,-24.18"/>
<polygon fill="midnightblue" stroke="midnightblue" points="519.5,-21.04 509,-19.66 516.35,-27.29 519.5,-21.04"/>
</g>
<!-- Node38&#45;&gt;Node5 -->
<g id="edge11" class="edge">
<title>Node38&#45;&gt;Node5</title>
<path fill="none" stroke="midnightblue" d="M606.04,-56.4C603.88,-48.38 601.15,-38.23 598.82,-29.57"/>
<polygon fill="midnightblue" stroke="midnightblue" points="602.13,-28.41 596.16,-19.66 595.37,-30.22 602.13,-28.41"/>
</g>
<!-- Node38&#45;&gt;Node40 -->
<g id="edge12" class="edge">
<title>Node38&#45;&gt;Node40</title>
<path fill="none" stroke="midnightblue" d="M628.55,-56.4C640.74,-47.22 656.62,-35.26 669.02,-25.92"/>
<polygon fill="midnightblue" stroke="midnightblue" points="671.45,-28.47 677.33,-19.66 667.24,-22.88 671.45,-28.47"/>
</g>
</g>
</svg>
