<?xml version="1.0" encoding="UTF-8" standalone="no"?>
<!DOCTYPE svg PUBLIC "-//W3C//DTD SVG 1.1//EN"
 "http://www.w3.org/Graphics/SVG/1.1/DTD/svg11.dtd">
<!-- Generated by graphviz version 2.43.0 (0)
 -->
<!-- Title: include/emlabcpp/protocol/base.h Pages: 1 -->
<svg width="680pt" height="341pt"
 viewBox="0.00 0.00 679.53 341.00" xmlns="http://www.w3.org/2000/svg" xmlns:xlink="http://www.w3.org/1999/xlink">
<g id="graph0" class="graph" transform="scale(1 1) rotate(0) translate(4 337)">
<title>include/emlabcpp/protocol/base.h</title>
<polygon fill="white" stroke="transparent" points="-4,4 -4,-337 675.53,-337 675.53,4 -4,4"/>
<!-- Node1 -->
<g id="node1" class="node">
<title>Node1</title>
<g id="a_node1"><a xlink:title=" ">
<polygon fill="#bfbfbf" stroke="black" points="275.03,-302.5 275.03,-332.5 421.03,-332.5 421.03,-302.5 275.03,-302.5"/>
<text text-anchor="start" x="283.03" y="-320.5" font-family="Helvetica,sans-Serif" font-size="10.00">include/emlabcpp/protocol</text>
<text text-anchor="middle" x="348.03" y="-309.5" font-family="Helvetica,sans-Serif" font-size="10.00">/base.h</text>
</a>
</g>
</g>
<!-- Node2 -->
<g id="node2" class="node">
<title>Node2</title>
<g id="a_node2"><a xlink:href="bounded_8h.html" target="_top" xlink:title=" ">
<polygon fill="white" stroke="black" points="79.53,-185 79.53,-204 198.53,-204 198.53,-185 79.53,-185"/>
<text text-anchor="middle" x="139.03" y="-192" font-family="Helvetica,sans-Serif" font-size="10.00">emlabcpp/bounded.h</text>
</a>
</g>
</g>
<!-- Node1&#45;&gt;Node2 -->
<g id="edge1" class="edge">
<title>Node1&#45;&gt;Node2</title>
<path fill="none" stroke="midnightblue" d="M302.23,-302.43C277.28,-293.76 246.4,-281.36 221.03,-266 195.59,-250.6 170.24,-227.27 154.61,-211.72"/>
<polygon fill="midnightblue" stroke="midnightblue" points="156.88,-209.04 147.37,-204.37 151.9,-213.95 156.88,-209.04"/>
</g>
<!-- Node13 -->
<g id="node4" class="node">
<title>Node13</title>
<g id="a_node4"><a xlink:title=" ">
<polygon fill="white" stroke="#bfbfbf" points="142.53,-0.5 142.53,-19.5 193.53,-19.5 193.53,-0.5 142.53,-0.5"/>
<text text-anchor="middle" x="168.03" y="-7.5" font-family="Helvetica,sans-Serif" font-size="10.00">variant</text>
</a>
</g>
</g>
<!-- Node1&#45;&gt;Node13 -->
<g id="edge23" class="edge">
<title>Node1&#45;&gt;Node13</title>
<path fill="none" stroke="midnightblue" d="M274.65,-306.13C172.55,-289.6 0.03,-253.15 0.03,-195.5 0.03,-195.5 0.03,-195.5 0.03,-126.5 0.03,-93.54 -0.44,-79.14 23.03,-56 52.33,-27.12 99.82,-16.73 132.41,-13.01"/>
<polygon fill="midnightblue" stroke="midnightblue" points="132.82,-16.49 142.43,-12.03 132.13,-9.52 132.82,-16.49"/>
</g>
<!-- Node29 -->
<g id="node6" class="node">
<title>Node29</title>
<g id="a_node6"><a xlink:title=" ">
<polygon fill="white" stroke="#bfbfbf" points="308.03,-56.5 308.03,-75.5 352.03,-75.5 352.03,-56.5 308.03,-56.5"/>
<text text-anchor="middle" x="330.03" y="-63.5" font-family="Helvetica,sans-Serif" font-size="10.00">bitset</text>
</a>
</g>
</g>
<!-- Node1&#45;&gt;Node29 -->
<g id="edge20" class="edge">
<title>Node1&#45;&gt;Node29</title>
<path fill="none" stroke="midnightblue" d="M347.15,-302.11C345.07,-268.71 339.64,-183.31 334.03,-112 333.35,-103.39 332.52,-93.86 331.79,-85.8"/>
<polygon fill="midnightblue" stroke="midnightblue" points="335.25,-85.26 330.85,-75.62 328.28,-85.9 335.25,-85.26"/>
</g>
<!-- Node9 -->
<g id="node8" class="node">
<title>Node9</title>
<g id="a_node8"><a xlink:title=" ">
<polygon fill="white" stroke="#bfbfbf" points="104.53,-118 104.53,-137 173.53,-137 173.53,-118 104.53,-118"/>
<text text-anchor="middle" x="139.03" y="-125" font-family="Helvetica,sans-Serif" font-size="10.00">type_traits</text>
</a>
</g>
</g>
<!-- Node1&#45;&gt;Node9 -->
<g id="edge22" class="edge">
<title>Node1&#45;&gt;Node9</title>
<path fill="none" stroke="midnightblue" d="M334.61,-302.2C310.19,-276.47 256.47,-221.14 207.03,-179 191.88,-166.09 173.74,-152.71 160.01,-142.97"/>
<polygon fill="midnightblue" stroke="midnightblue" points="161.89,-140.02 151.7,-137.14 157.87,-145.75 161.89,-140.02"/>
</g>
<!-- Node37 -->
<g id="node9" class="node">
<title>Node37</title>
<g id="a_node9"><a xlink:href="protocol_2error_8h.html" target="_top" xlink:title=" ">
<polygon fill="white" stroke="black" points="393.03,-246.5 393.03,-265.5 535.03,-265.5 535.03,-246.5 393.03,-246.5"/>
<text text-anchor="middle" x="464.03" y="-253.5" font-family="Helvetica,sans-Serif" font-size="10.00">emlabcpp/protocol/error.h</text>
</a>
</g>
</g>
<!-- Node1&#45;&gt;Node37 -->
<g id="edge11" class="edge">
<title>Node1&#45;&gt;Node37</title>
<path fill="none" stroke="midnightblue" d="M375.52,-302.4C394.46,-292.68 419.47,-279.86 438.07,-270.31"/>
<polygon fill="midnightblue" stroke="midnightblue" points="439.85,-273.34 447.15,-265.66 436.66,-267.11 439.85,-273.34"/>
</g>
<!-- Node40 -->
<g id="node13" class="node">
<title>Node40</title>
<g id="a_node13"><a xlink:title=" ">
<polygon fill="white" stroke="#bfbfbf" points="585.03,-118 585.03,-137 635.03,-137 635.03,-118 585.03,-118"/>
<text text-anchor="middle" x="610.03" y="-125" font-family="Helvetica,sans-Serif" font-size="10.00">cstring</text>
</a>
</g>
</g>
<!-- Node1&#45;&gt;Node40 -->
<g id="edge21" class="edge">
<title>Node1&#45;&gt;Node40</title>
<path fill="none" stroke="midnightblue" d="M421.06,-312.07C460.99,-306.35 509.26,-293.69 544.03,-266 582.42,-235.43 599.81,-177.06 606.49,-147.16"/>
<polygon fill="midnightblue" stroke="midnightblue" points="609.95,-147.72 608.55,-137.22 603.1,-146.3 609.95,-147.72"/>
</g>
<!-- Node42 -->
<g id="node14" class="node">
<title>Node42</title>
<g id="a_node14"><a xlink:title=" ">
<polygon fill="white" stroke="#bfbfbf" points="642.53,-246.5 642.53,-265.5 671.53,-265.5 671.53,-246.5 642.53,-246.5"/>
<text text-anchor="middle" x="657.03" y="-253.5" font-family="Helvetica,sans-Serif" font-size="10.00">bit</text>
</a>
</g>
</g>
<!-- Node1&#45;&gt;Node42 -->
<g id="edge19" class="edge">
<title>Node1&#45;&gt;Node42</title>
<path fill="none" stroke="midnightblue" d="M421.06,-305.84C477.87,-296.95 558.45,-283 628.03,-266 629.5,-265.64 631.01,-265.25 632.53,-264.83"/>
<polygon fill="midnightblue" stroke="midnightblue" points="633.77,-268.12 642.37,-261.93 631.79,-261.4 633.77,-268.12"/>
</g>
<!-- Node3 -->
<g id="node3" class="node">
<title>Node3</title>
<g id="a_node3"><a xlink:href="concepts_8h.html" target="_top" xlink:title=" ">
<polygon fill="white" stroke="red" points="108.03,-56.5 108.03,-75.5 228.03,-75.5 228.03,-56.5 108.03,-56.5"/>
<text text-anchor="middle" x="168.03" y="-63.5" font-family="Helvetica,sans-Serif" font-size="10.00">emlabcpp/concepts.h</text>
</a>
</g>
</g>
<!-- Node2&#45;&gt;Node3 -->
<g id="edge2" class="edge">
<title>Node2&#45;&gt;Node3</title>
<path fill="none" stroke="midnightblue" d="M128.25,-184.89C110.93,-169.98 80.29,-138.39 95.03,-112 103.19,-97.39 118.25,-86.94 132.58,-79.8"/>
<polygon fill="midnightblue" stroke="midnightblue" points="134.18,-82.92 141.82,-75.59 131.27,-76.56 134.18,-82.92"/>
</g>
<!-- Node14 -->
<g id="node5" class="node">
<title>Node14</title>
<g id="a_node5"><a xlink:href="pretty__printer_8h.html" target="_top" xlink:title=" ">
<polygon fill="white" stroke="red" points="191.53,-112.5 191.53,-142.5 324.53,-142.5 324.53,-112.5 191.53,-112.5"/>
<text text-anchor="start" x="199.53" y="-130.5" font-family="Helvetica,sans-Serif" font-size="10.00">emlabcpp/experimental</text>
<text text-anchor="middle" x="258.03" y="-119.5" font-family="Helvetica,sans-Serif" font-size="10.00">/pretty_printer.h</text>
</a>
</g>
</g>
<!-- Node2&#45;&gt;Node14 -->
<g id="edge4" class="edge">
<title>Node2&#45;&gt;Node14</title>
<path fill="none" stroke="midnightblue" d="M155.08,-184.73C172.48,-175.23 200.77,-159.78 223.3,-147.47"/>
<polygon fill="midnightblue" stroke="midnightblue" points="225.14,-150.45 232.24,-142.59 221.78,-144.31 225.14,-150.45"/>
</g>
<!-- Node34 -->
<g id="node7" class="node">
<title>Node34</title>
<g id="a_node7"><a xlink:title=" ">
<polygon fill="white" stroke="#bfbfbf" points="32.03,-56.5 32.03,-75.5 88.03,-75.5 88.03,-56.5 32.03,-56.5"/>
<text text-anchor="middle" x="60.03" y="-63.5" font-family="Helvetica,sans-Serif" font-size="10.00">optional</text>
</a>
</g>
</g>
<!-- Node2&#45;&gt;Node34 -->
<g id="edge9" class="edge">
<title>Node2&#45;&gt;Node34</title>
<path fill="none" stroke="midnightblue" d="M127.87,-184.94C116.47,-175.69 98.95,-159.98 88.03,-143 76.41,-124.94 68.69,-101.37 64.35,-85.3"/>
<polygon fill="midnightblue" stroke="midnightblue" points="67.72,-84.37 61.88,-75.53 60.94,-86.09 67.72,-84.37"/>
</g>
<!-- Node2&#45;&gt;Node9 -->
<g id="edge10" class="edge">
<title>Node2&#45;&gt;Node9</title>
<path fill="none" stroke="midnightblue" d="M139.03,-184.73C139.03,-175.18 139.03,-159.62 139.03,-147.28"/>
<polygon fill="midnightblue" stroke="midnightblue" points="142.53,-147.13 139.03,-137.13 135.53,-147.13 142.53,-147.13"/>
</g>
<!-- Node3&#45;&gt;Node13 -->
<g id="edge3" class="edge">
<title>Node3&#45;&gt;Node13</title>
<path fill="none" stroke="midnightblue" d="M168.03,-56.08C168.03,-49.01 168.03,-38.86 168.03,-29.99"/>
<polygon fill="midnightblue" stroke="midnightblue" points="171.53,-29.75 168.03,-19.75 164.53,-29.75 171.53,-29.75"/>
</g>
<!-- Node14&#45;&gt;Node3 -->
<g id="edge5" class="edge">
<title>Node14&#45;&gt;Node3</title>
<path fill="none" stroke="midnightblue" d="M236.7,-112.4C222.54,-103.04 204.02,-90.79 189.78,-81.38"/>
<polygon fill="midnightblue" stroke="midnightblue" points="191.4,-78.25 181.13,-75.66 187.54,-84.09 191.4,-78.25"/>
</g>
<!-- Node14&#45;&gt;Node13 -->
<g id="edge8" class="edge">
<title>Node14&#45;&gt;Node13</title>
<path fill="none" stroke="midnightblue" d="M256.7,-112.23C254.65,-97 249.56,-72.78 237.03,-56 226.88,-42.4 211.32,-31.75 197.55,-24.22"/>
<polygon fill="midnightblue" stroke="midnightblue" points="198.88,-20.97 188.38,-19.52 195.68,-27.2 198.88,-20.97"/>
</g>
<!-- Node14&#45;&gt;Node29 -->
<g id="edge6" class="edge">
<title>Node14&#45;&gt;Node29</title>
<path fill="none" stroke="midnightblue" d="M275.09,-112.4C286.09,-103.31 300.39,-91.49 311.65,-82.19"/>
<polygon fill="midnightblue" stroke="midnightblue" points="314.07,-84.73 319.55,-75.66 309.61,-79.33 314.07,-84.73"/>
</g>
<!-- Node14&#45;&gt;Node34 -->
<g id="edge7" class="edge">
<title>Node14&#45;&gt;Node34</title>
<path fill="none" stroke="midnightblue" d="M211.36,-112.47C176.8,-102.09 130.3,-88.12 98,-78.41"/>
<polygon fill="midnightblue" stroke="midnightblue" points="98.63,-74.95 88.05,-75.42 96.62,-81.65 98.63,-74.95"/>
</g>
<!-- Node38 -->
<g id="node10" class="node">
<title>Node38</title>
<g id="a_node10"><a xlink:href="string__buffer_8h.html" target="_top" xlink:title=" ">
<polygon fill="white" stroke="red" points="414.53,-179.5 414.53,-209.5 547.53,-209.5 547.53,-179.5 414.53,-179.5"/>
<text text-anchor="start" x="422.53" y="-197.5" font-family="Helvetica,sans-Serif" font-size="10.00">emlabcpp/experimental</text>
<text text-anchor="middle" x="481.03" y="-186.5" font-family="Helvetica,sans-Serif" font-size="10.00">/string_buffer.h</text>
</a>
</g>
</g>
<!-- Node37&#45;&gt;Node38 -->
<g id="edge12" class="edge">
<title>Node37&#45;&gt;Node38</title>
<path fill="none" stroke="midnightblue" d="M466.47,-246.48C468.49,-239.4 471.47,-228.97 474.2,-219.39"/>
<polygon fill="midnightblue" stroke="midnightblue" points="477.64,-220.1 477.02,-209.52 470.91,-218.18 477.64,-220.1"/>
</g>
<!-- Node39 -->
<g id="node11" class="node">
<title>Node39</title>
<g id="a_node11"><a xlink:title=" ">
<polygon fill="white" stroke="#bfbfbf" points="494.03,-118 494.03,-137 558.03,-137 558.03,-118 494.03,-118"/>
<text text-anchor="middle" x="526.03" y="-125" font-family="Helvetica,sans-Serif" font-size="10.00">algorithm</text>
</a>
</g>
</g>
<!-- Node37&#45;&gt;Node39 -->
<g id="edge17" class="edge">
<title>Node37&#45;&gt;Node39</title>
<path fill="none" stroke="midnightblue" d="M503.28,-246.48C523.03,-239.99 545.21,-228.84 557.03,-210 570.04,-189.25 554.22,-162.17 540.82,-145.06"/>
<polygon fill="midnightblue" stroke="midnightblue" points="543.28,-142.55 534.2,-137.1 537.9,-147.02 543.28,-142.55"/>
</g>
<!-- Node5 -->
<g id="node12" class="node">
<title>Node5</title>
<g id="a_node12"><a xlink:title=" ">
<polygon fill="white" stroke="#bfbfbf" points="416.03,-118 416.03,-137 458.03,-137 458.03,-118 416.03,-118"/>
<text text-anchor="middle" x="437.03" y="-125" font-family="Helvetica,sans-Serif" font-size="10.00">array</text>
</a>
</g>
</g>
<!-- Node37&#45;&gt;Node5 -->
<g id="edge18" class="edge">
<title>Node37&#45;&gt;Node5</title>
<path fill="none" stroke="midnightblue" d="M445.64,-246.47C431.93,-239 414.21,-226.71 406.03,-210 395.47,-188.43 409.9,-162.3 422.4,-145.54"/>
<polygon fill="midnightblue" stroke="midnightblue" points="425.49,-147.29 428.98,-137.29 420.01,-142.93 425.49,-147.29"/>
</g>
<!-- Node38&#45;&gt;Node14 -->
<g id="edge13" class="edge">
<title>Node38&#45;&gt;Node14</title>
<path fill="none" stroke="midnightblue" d="M432.92,-179.48C398.74,-169.51 352.67,-156.09 316.39,-145.51"/>
<polygon fill="midnightblue" stroke="midnightblue" points="317.02,-142.05 306.44,-142.61 315.06,-148.77 317.02,-142.05"/>
</g>
<!-- Node38&#45;&gt;Node39 -->
<g id="edge14" class="edge">
<title>Node38&#45;&gt;Node39</title>
<path fill="none" stroke="midnightblue" d="M490.79,-179.4C497.67,-169.46 506.92,-156.11 514.21,-145.57"/>
<polygon fill="midnightblue" stroke="midnightblue" points="517.2,-147.41 520.01,-137.19 511.44,-143.42 517.2,-147.41"/>
</g>
<!-- Node38&#45;&gt;Node5 -->
<g id="edge15" class="edge">
<title>Node38&#45;&gt;Node5</title>
<path fill="none" stroke="midnightblue" d="M471.48,-179.4C464.76,-169.46 455.72,-156.11 448.59,-145.57"/>
<polygon fill="midnightblue" stroke="midnightblue" points="451.42,-143.51 442.92,-137.19 445.62,-147.44 451.42,-143.51"/>
</g>
<!-- Node38&#45;&gt;Node40 -->
<g id="edge16" class="edge">
<title>Node38&#45;&gt;Node40</title>
<path fill="none" stroke="midnightblue" d="M509.02,-179.4C531.35,-168.14 562.4,-152.5 584.16,-141.54"/>
<polygon fill="midnightblue" stroke="midnightblue" points="585.79,-144.63 593.15,-137.01 582.64,-138.38 585.79,-144.63"/>
</g>
</g>
</svg>
