<?xml version="1.0" encoding="UTF-8" standalone="no"?>
<!DOCTYPE svg PUBLIC "-//W3C//DTD SVG 1.1//EN"
 "http://www.w3.org/Graphics/SVG/1.1/DTD/svg11.dtd">
<!-- Generated by graphviz version 2.43.0 (0)
 -->
<!-- Title: include/emlabcpp/protocol/json.h Pages: 1 -->
<svg width="1143pt" height="285pt"
 viewBox="0.00 0.00 1142.60 285.00" xmlns="http://www.w3.org/2000/svg" xmlns:xlink="http://www.w3.org/1999/xlink">
<g id="graph0" class="graph" transform="scale(1 1) rotate(0) translate(4 281)">
<title>include/emlabcpp/protocol/json.h</title>
<polygon fill="white" stroke="transparent" points="-4,4 -4,-281 1138.6,-281 1138.6,4 -4,4"/>
<!-- Node1 -->
<g id="node1" class="node">
<title>Node1</title>
<g id="a_node1"><a xlink:title=" ">
<polygon fill="#bfbfbf" stroke="black" points="642.5,-246.5 642.5,-276.5 788.5,-276.5 788.5,-246.5 642.5,-246.5"/>
<text text-anchor="start" x="650.5" y="-264.5" font-family="Helvetica,sans-Serif" font-size="10.00">include/emlabcpp/protocol</text>
<text text-anchor="middle" x="715.5" y="-253.5" font-family="Helvetica,sans-Serif" font-size="10.00">/json.h</text>
</a>
</g>
</g>
<!-- Node2 -->
<g id="node2" class="node">
<title>Node2</title>
<g id="a_node2"><a xlink:href="algorithm_8h.html" target="_top" xlink:title=" ">
<polygon fill="white" stroke="black" points="209.5,-129 209.5,-148 333.5,-148 333.5,-129 209.5,-129"/>
<text text-anchor="middle" x="271.5" y="-136" font-family="Helvetica,sans-Serif" font-size="10.00">emlabcpp/algorithm.h</text>
</a>
</g>
</g>
<!-- Node1&#45;&gt;Node2 -->
<g id="edge1" class="edge">
<title>Node1&#45;&gt;Node2</title>
<path fill="none" stroke="midnightblue" d="M663.7,-246.38C574.52,-222.08 393.78,-172.82 312.6,-150.7"/>
<polygon fill="midnightblue" stroke="midnightblue" points="313.32,-147.27 302.75,-148.02 311.48,-154.02 313.32,-147.27"/>
</g>
<!-- Node24 -->
<g id="node12" class="node">
<title>Node24</title>
<g id="a_node12"><a xlink:href="enum_8h.html" target="_top" xlink:title=" ">
<polygon fill="white" stroke="black" points="951.5,-190.5 951.5,-209.5 1055.5,-209.5 1055.5,-190.5 951.5,-190.5"/>
<text text-anchor="middle" x="1003.5" y="-197.5" font-family="Helvetica,sans-Serif" font-size="10.00">emlabcpp/enum.h</text>
</a>
</g>
</g>
<!-- Node1&#45;&gt;Node24 -->
<g id="edge14" class="edge">
<title>Node1&#45;&gt;Node24</title>
<path fill="none" stroke="midnightblue" d="M783.39,-246.47C835.13,-235.78 905.28,-221.29 952.35,-211.57"/>
<polygon fill="midnightblue" stroke="midnightblue" points="953.24,-214.96 962.33,-209.51 951.82,-208.1 953.24,-214.96"/>
</g>
<!-- Node25 -->
<g id="node13" class="node">
<title>Node25</title>
<g id="a_node13"><a xlink:href="traits_8h.html" target="_top" xlink:title=" ">
<polygon fill="white" stroke="black" points="643,-190.5 643,-209.5 788,-209.5 788,-190.5 643,-190.5"/>
<text text-anchor="middle" x="715.5" y="-197.5" font-family="Helvetica,sans-Serif" font-size="10.00">emlabcpp/protocol/traits.h</text>
</a>
</g>
</g>
<!-- Node1&#45;&gt;Node25 -->
<g id="edge16" class="edge">
<title>Node1&#45;&gt;Node25</title>
<path fill="none" stroke="midnightblue" d="M715.5,-246.4C715.5,-238.47 715.5,-228.46 715.5,-219.86"/>
<polygon fill="midnightblue" stroke="midnightblue" points="719,-219.66 715.5,-209.66 712,-219.66 719,-219.66"/>
</g>
<!-- Node3 -->
<g id="node3" class="node">
<title>Node3</title>
<g id="a_node3"><a xlink:href="impl_8h.html" target="_top" xlink:title=" ">
<polygon fill="white" stroke="black" points="141,-56.5 141,-86.5 256,-86.5 256,-56.5 141,-56.5"/>
<text text-anchor="start" x="149" y="-74.5" font-family="Helvetica,sans-Serif" font-size="10.00">emlabcpp/algorithm</text>
<text text-anchor="middle" x="198.5" y="-63.5" font-family="Helvetica,sans-Serif" font-size="10.00">/impl.h</text>
</a>
</g>
</g>
<!-- Node2&#45;&gt;Node3 -->
<g id="edge2" class="edge">
<title>Node2&#45;&gt;Node3</title>
<path fill="none" stroke="midnightblue" d="M261.65,-128.73C251.5,-119.7 235.31,-105.27 221.86,-93.3"/>
<polygon fill="midnightblue" stroke="midnightblue" points="224.12,-90.63 214.32,-86.59 219.46,-95.85 224.12,-90.63"/>
</g>
<!-- Node4 -->
<g id="node4" class="node">
<title>Node4</title>
<g id="a_node4"><a xlink:href="types_8h.html" target="_top" xlink:title=" ">
<polygon fill="white" stroke="red" points="271.5,-0.5 271.5,-19.5 375.5,-19.5 375.5,-0.5 271.5,-0.5"/>
<text text-anchor="middle" x="323.5" y="-7.5" font-family="Helvetica,sans-Serif" font-size="10.00">emlabcpp/types.h</text>
</a>
</g>
</g>
<!-- Node2&#45;&gt;Node4 -->
<g id="edge8" class="edge">
<title>Node2&#45;&gt;Node4</title>
<path fill="none" stroke="midnightblue" d="M274.74,-128.88C280.38,-113.96 292.47,-82.36 303.5,-56 307.26,-47.02 311.63,-37.12 315.33,-28.9"/>
<polygon fill="midnightblue" stroke="midnightblue" points="318.61,-30.13 319.55,-19.58 312.24,-27.24 318.61,-30.13"/>
</g>
<!-- Node10 -->
<g id="node5" class="node">
<title>Node10</title>
<g id="a_node5"><a xlink:title=" ">
<polygon fill="white" stroke="#bfbfbf" points="25,-0.5 25,-19.5 66,-19.5 66,-0.5 25,-0.5"/>
<text text-anchor="middle" x="45.5" y="-7.5" font-family="Helvetica,sans-Serif" font-size="10.00">tuple</text>
</a>
</g>
</g>
<!-- Node2&#45;&gt;Node10 -->
<g id="edge13" class="edge">
<title>Node2&#45;&gt;Node10</title>
<path fill="none" stroke="midnightblue" d="M209.5,-129.52C156.19,-121.42 84.8,-107.18 64.5,-87 49.53,-72.12 45.73,-47.35 45.06,-30.15"/>
<polygon fill="midnightblue" stroke="midnightblue" points="48.55,-29.65 44.99,-19.67 41.55,-29.69 48.55,-29.65"/>
</g>
<!-- Node17 -->
<g id="node6" class="node">
<title>Node17</title>
<g id="a_node6"><a xlink:href="bounded_8h.html" target="_top" xlink:title=" ">
<polygon fill="white" stroke="red" points="610,-62 610,-81 729,-81 729,-62 610,-62"/>
<text text-anchor="middle" x="669.5" y="-69" font-family="Helvetica,sans-Serif" font-size="10.00">emlabcpp/bounded.h</text>
</a>
</g>
</g>
<!-- Node2&#45;&gt;Node17 -->
<g id="edge5" class="edge">
<title>Node2&#45;&gt;Node17</title>
<path fill="none" stroke="midnightblue" d="M311.61,-128.96C321.68,-126.91 332.47,-124.8 342.5,-123 431.11,-107.12 533.76,-91.76 600.07,-82.23"/>
<polygon fill="midnightblue" stroke="midnightblue" points="600.58,-85.69 609.99,-80.81 599.59,-78.76 600.58,-85.69"/>
</g>
<!-- Node21 -->
<g id="node9" class="node">
<title>Node21</title>
<g id="a_node9"><a xlink:href="view_8h.html" target="_top" xlink:title=" ">
<polygon fill="white" stroke="black" points="313,-62 313,-81 412,-81 412,-62 313,-62"/>
<text text-anchor="middle" x="362.5" y="-69" font-family="Helvetica,sans-Serif" font-size="10.00">emlabcpp/view.h</text>
</a>
</g>
</g>
<!-- Node2&#45;&gt;Node21 -->
<g id="edge9" class="edge">
<title>Node2&#45;&gt;Node21</title>
<path fill="none" stroke="midnightblue" d="M283.77,-128.73C298.65,-118.11 323.93,-100.05 341.83,-87.26"/>
<polygon fill="midnightblue" stroke="midnightblue" points="344.32,-89.79 350.42,-81.13 340.25,-84.09 344.32,-89.79"/>
</g>
<!-- Node22 -->
<g id="node10" class="node">
<title>Node22</title>
<g id="a_node10"><a xlink:title=" ">
<polygon fill="white" stroke="#bfbfbf" points="430,-62 430,-81 477,-81 477,-62 430,-62"/>
<text text-anchor="middle" x="453.5" y="-69" font-family="Helvetica,sans-Serif" font-size="10.00">cmath</text>
</a>
</g>
</g>
<!-- Node2&#45;&gt;Node22 -->
<g id="edge11" class="edge">
<title>Node2&#45;&gt;Node22</title>
<path fill="none" stroke="midnightblue" d="M298.95,-128.99C329.04,-119.48 378.62,-103.26 420.5,-87 422.1,-86.38 423.74,-85.72 425.39,-85.05"/>
<polygon fill="midnightblue" stroke="midnightblue" points="426.93,-88.19 434.77,-81.07 424.2,-81.75 426.93,-88.19"/>
</g>
<!-- Node23 -->
<g id="node11" class="node">
<title>Node23</title>
<g id="a_node11"><a xlink:title=" ">
<polygon fill="white" stroke="#bfbfbf" points="74,-62 74,-81 123,-81 123,-62 74,-62"/>
<text text-anchor="middle" x="98.5" y="-69" font-family="Helvetica,sans-Serif" font-size="10.00">cstdlib</text>
</a>
</g>
</g>
<!-- Node2&#45;&gt;Node23 -->
<g id="edge12" class="edge">
<title>Node2&#45;&gt;Node23</title>
<path fill="none" stroke="midnightblue" d="M246.27,-128.98C218.09,-119.32 171.21,-102.87 131.5,-87 129.9,-86.36 128.27,-85.69 126.62,-85.01"/>
<polygon fill="midnightblue" stroke="midnightblue" points="127.82,-81.72 117.25,-81 125.07,-88.15 127.82,-81.72"/>
</g>
<!-- Node3&#45;&gt;Node4 -->
<g id="edge3" class="edge">
<title>Node3&#45;&gt;Node4</title>
<path fill="none" stroke="midnightblue" d="M228.12,-56.4C248.72,-46.59 275.98,-33.62 296.08,-24.05"/>
<polygon fill="midnightblue" stroke="midnightblue" points="297.79,-27.12 305.31,-19.66 294.78,-20.8 297.79,-27.12"/>
</g>
<!-- Node3&#45;&gt;Node10 -->
<g id="edge4" class="edge">
<title>Node3&#45;&gt;Node10</title>
<path fill="none" stroke="midnightblue" d="M162.24,-56.4C135.83,-46.13 100.48,-32.38 75.63,-22.72"/>
<polygon fill="midnightblue" stroke="midnightblue" points="76.59,-19.33 66,-18.97 74.05,-25.86 76.59,-19.33"/>
</g>
<!-- Node20 -->
<g id="node7" class="node">
<title>Node20</title>
<g id="a_node7"><a xlink:title=" ">
<polygon fill="white" stroke="#bfbfbf" points="553.5,-0.5 553.5,-19.5 609.5,-19.5 609.5,-0.5 553.5,-0.5"/>
<text text-anchor="middle" x="581.5" y="-7.5" font-family="Helvetica,sans-Serif" font-size="10.00">optional</text>
</a>
</g>
</g>
<!-- Node17&#45;&gt;Node20 -->
<g id="edge6" class="edge">
<title>Node17&#45;&gt;Node20</title>
<path fill="none" stroke="midnightblue" d="M656.89,-61.98C642.78,-52.43 619.67,-36.81 602.75,-25.37"/>
<polygon fill="midnightblue" stroke="midnightblue" points="604.33,-22.21 594.08,-19.51 600.41,-28.01 604.33,-22.21"/>
</g>
<!-- Node11 -->
<g id="node8" class="node">
<title>Node11</title>
<g id="a_node8"><a xlink:title=" ">
<polygon fill="white" stroke="#bfbfbf" points="921,-0.5 921,-19.5 990,-19.5 990,-0.5 921,-0.5"/>
<text text-anchor="middle" x="955.5" y="-7.5" font-family="Helvetica,sans-Serif" font-size="10.00">type_traits</text>
</a>
</g>
</g>
<!-- Node17&#45;&gt;Node11 -->
<g id="edge7" class="edge">
<title>Node17&#45;&gt;Node11</title>
<path fill="none" stroke="midnightblue" d="M710.48,-61.98C763.59,-50.93 855.87,-31.73 910.76,-20.31"/>
<polygon fill="midnightblue" stroke="midnightblue" points="911.8,-23.67 920.88,-18.2 910.38,-16.81 911.8,-23.67"/>
</g>
<!-- Node21&#45;&gt;Node4 -->
<g id="edge10" class="edge">
<title>Node21&#45;&gt;Node4</title>
<path fill="none" stroke="midnightblue" d="M356.91,-61.98C351.12,-53.14 341.91,-39.09 334.63,-27.98"/>
<polygon fill="midnightblue" stroke="midnightblue" points="337.49,-25.95 329.08,-19.51 331.63,-29.79 337.49,-25.95"/>
</g>
<!-- Node24&#45;&gt;Node11 -->
<g id="edge15" class="edge">
<title>Node24&#45;&gt;Node11</title>
<path fill="none" stroke="midnightblue" d="M1055.58,-194.35C1082.34,-189.02 1112.77,-177.73 1129.5,-154 1137.44,-142.74 1134.72,-135.75 1129.5,-123 1107.08,-68.3 1041.59,-37.64 997.66,-22.72"/>
<polygon fill="midnightblue" stroke="midnightblue" points="998.69,-19.38 988.09,-19.6 996.52,-26.03 998.69,-19.38"/>
</g>
<!-- Node25&#45;&gt;Node4 -->
<g id="edge33" class="edge">
<title>Node25&#45;&gt;Node4</title>
<path fill="none" stroke="midnightblue" d="M656.61,-190.49C626.52,-184.05 590.47,-172.95 562.5,-154 516.64,-122.93 531.59,-86.72 485.5,-56 455.8,-36.21 417.52,-25.05 385.62,-18.81"/>
<polygon fill="midnightblue" stroke="midnightblue" points="385.98,-15.31 375.51,-16.94 384.71,-22.2 385.98,-15.31"/>
</g>
<!-- Node25&#45;&gt;Node20 -->
<g id="edge34" class="edge">
<title>Node25&#45;&gt;Node20</title>
<path fill="none" stroke="midnightblue" d="M715.79,-190.29C715.84,-174.81 713.7,-142.28 696.5,-123 666.16,-89 630.84,-121 600.5,-87 586.52,-71.33 582.49,-46.92 581.5,-30.01"/>
<polygon fill="midnightblue" stroke="midnightblue" points="584.99,-29.6 581.21,-19.71 577.99,-29.8 584.99,-29.6"/>
</g>
<!-- Node26 -->
<g id="node14" class="node">
<title>Node26</title>
<g id="a_node14"><a xlink:href="decompose_8h.html" target="_top" xlink:title=" ">
<polygon fill="white" stroke="red" points="0,-123.5 0,-153.5 133,-153.5 133,-123.5 0,-123.5"/>
<text text-anchor="start" x="8" y="-141.5" font-family="Helvetica,sans-Serif" font-size="10.00">emlabcpp/experimental</text>
<text text-anchor="middle" x="66.5" y="-130.5" font-family="Helvetica,sans-Serif" font-size="10.00">/decompose.h</text>
</a>
</g>
</g>
<!-- Node25&#45;&gt;Node26 -->
<g id="edge17" class="edge">
<title>Node25&#45;&gt;Node26</title>
<path fill="none" stroke="midnightblue" d="M642.96,-193.14C543.22,-184.97 358.16,-169.42 200.5,-154 181.94,-152.19 161.96,-150.1 143.23,-148.08"/>
<polygon fill="midnightblue" stroke="midnightblue" points="143.59,-144.6 133.27,-147 142.83,-151.56 143.59,-144.6"/>
</g>
<!-- Node27 -->
<g id="node15" class="node">
<title>Node27</title>
<g id="a_node15"><a xlink:href="protocol_2base_8h.html" target="_top" xlink:title=" ">
<polygon fill="white" stroke="red" points="782,-129 782,-148 925,-148 925,-129 782,-129"/>
<text text-anchor="middle" x="853.5" y="-136" font-family="Helvetica,sans-Serif" font-size="10.00">emlabcpp/protocol/base.h</text>
</a>
</g>
</g>
<!-- Node25&#45;&gt;Node27 -->
<g id="edge19" class="edge">
<title>Node25&#45;&gt;Node27</title>
<path fill="none" stroke="midnightblue" d="M735.27,-190.48C758.64,-180.4 797.71,-163.55 824.5,-152"/>
<polygon fill="midnightblue" stroke="midnightblue" points="825.97,-155.18 833.76,-148.01 823.2,-148.75 825.97,-155.18"/>
</g>
<!-- Node28 -->
<g id="node16" class="node">
<title>Node28</title>
<g id="a_node16"><a xlink:href="protocol_2error_8h.html" target="_top" xlink:title=" ">
<polygon fill="white" stroke="red" points="785.5,-62 785.5,-81 927.5,-81 927.5,-62 785.5,-62"/>
<text text-anchor="middle" x="856.5" y="-69" font-family="Helvetica,sans-Serif" font-size="10.00">emlabcpp/protocol/error.h</text>
</a>
</g>
</g>
<!-- Node25&#45;&gt;Node28 -->
<g id="edge24" class="edge">
<title>Node25&#45;&gt;Node28</title>
<path fill="none" stroke="midnightblue" d="M720.56,-190.16C729.53,-175.02 749.48,-143.78 772.5,-123 789.34,-107.8 811.42,-94.74 828.72,-85.71"/>
<polygon fill="midnightblue" stroke="midnightblue" points="830.43,-88.76 837.77,-81.12 827.27,-82.52 830.43,-88.76"/>
</g>
<!-- Node15 -->
<g id="node17" class="node">
<title>Node15</title>
<g id="a_node17"><a xlink:title=" ">
<polygon fill="white" stroke="#bfbfbf" points="984,-62 984,-81 1035,-81 1035,-62 984,-62"/>
<text text-anchor="middle" x="1009.5" y="-69" font-family="Helvetica,sans-Serif" font-size="10.00">variant</text>
</a>
</g>
</g>
<!-- Node25&#45;&gt;Node15 -->
<g id="edge35" class="edge">
<title>Node25&#45;&gt;Node15</title>
<path fill="none" stroke="midnightblue" d="M788.09,-195.14C832.46,-190.17 889.03,-178.99 933.5,-154 961.64,-138.19 985.37,-108.38 998.5,-89.53"/>
<polygon fill="midnightblue" stroke="midnightblue" points="1001.54,-91.28 1004.21,-81.03 995.73,-87.37 1001.54,-91.28"/>
</g>
<!-- Node33 -->
<g id="node18" class="node">
<title>Node33</title>
<g id="a_node18"><a xlink:href="message_8h.html" target="_top" xlink:title=" ">
<polygon fill="white" stroke="red" points="351.5,-129 351.5,-148 515.5,-148 515.5,-129 351.5,-129"/>
<text text-anchor="middle" x="433.5" y="-136" font-family="Helvetica,sans-Serif" font-size="10.00">emlabcpp/protocol/message.h</text>
</a>
</g>
</g>
<!-- Node25&#45;&gt;Node33 -->
<g id="edge25" class="edge">
<title>Node25&#45;&gt;Node33</title>
<path fill="none" stroke="midnightblue" d="M675.1,-190.48C624.63,-179.83 538.29,-161.61 483.65,-150.08"/>
<polygon fill="midnightblue" stroke="midnightblue" points="484.34,-146.65 473.83,-148.01 482.89,-153.5 484.34,-146.65"/>
</g>
<!-- Node35 -->
<g id="node19" class="node">
<title>Node35</title>
<g id="a_node19"><a xlink:href="quantity_8h.html" target="_top" xlink:title=" ">
<polygon fill="white" stroke="red" points="571.5,-129 571.5,-148 687.5,-148 687.5,-129 571.5,-129"/>
<text text-anchor="middle" x="629.5" y="-136" font-family="Helvetica,sans-Serif" font-size="10.00">emlabcpp/quantity.h</text>
</a>
</g>
</g>
<!-- Node25&#45;&gt;Node35 -->
<g id="edge28" class="edge">
<title>Node25&#45;&gt;Node35</title>
<path fill="none" stroke="midnightblue" d="M703.18,-190.48C689.38,-180.93 666.8,-165.31 650.27,-153.87"/>
<polygon fill="midnightblue" stroke="midnightblue" points="652.01,-150.82 641.8,-148.01 648.03,-156.58 652.01,-150.82"/>
</g>
<!-- Node39 -->
<g id="node20" class="node">
<title>Node39</title>
<g id="a_node20"><a xlink:href="static__vector_8h.html" target="_top" xlink:title=" ">
<polygon fill="white" stroke="red" points="982,-129 982,-148 1121,-148 1121,-129 982,-129"/>
<text text-anchor="middle" x="1051.5" y="-136" font-family="Helvetica,sans-Serif" font-size="10.00">emlabcpp/static_vector.h</text>
</a>
</g>
</g>
<!-- Node25&#45;&gt;Node39 -->
<g id="edge31" class="edge">
<title>Node25&#45;&gt;Node39</title>
<path fill="none" stroke="midnightblue" d="M763.64,-190.48C824.27,-179.74 928.36,-161.31 993.36,-149.79"/>
<polygon fill="midnightblue" stroke="midnightblue" points="994.21,-153.2 1003.45,-148.01 992.99,-146.31 994.21,-153.2"/>
</g>
<!-- Node26&#45;&gt;Node10 -->
<g id="edge18" class="edge">
<title>Node26&#45;&gt;Node10</title>
<path fill="none" stroke="midnightblue" d="M53.14,-123.32C45.16,-113.84 35.77,-100.64 31.5,-87 25.45,-67.65 31.42,-44.66 37.33,-29.07"/>
<polygon fill="midnightblue" stroke="midnightblue" points="40.66,-30.17 41.26,-19.6 34.2,-27.49 40.66,-30.17"/>
</g>
<!-- Node27&#45;&gt;Node17 -->
<g id="edge20" class="edge">
<title>Node27&#45;&gt;Node17</title>
<path fill="none" stroke="midnightblue" d="M829.07,-128.87C796.81,-117.47 739.85,-97.35 703.43,-84.49"/>
<polygon fill="midnightblue" stroke="midnightblue" points="704.34,-81.09 693.74,-81.06 702,-87.69 704.34,-81.09"/>
</g>
<!-- Node27&#45;&gt;Node11 -->
<g id="edge22" class="edge">
<title>Node27&#45;&gt;Node11</title>
<path fill="none" stroke="midnightblue" d="M877.45,-128.85C896.27,-120.84 921.7,-107.1 936.5,-87 948.82,-70.27 953.2,-46.45 954.73,-29.95"/>
<polygon fill="midnightblue" stroke="midnightblue" points="958.23,-30.09 955.4,-19.88 951.25,-29.63 958.23,-30.09"/>
</g>
<!-- Node27&#45;&gt;Node28 -->
<g id="edge21" class="edge">
<title>Node27&#45;&gt;Node28</title>
<path fill="none" stroke="midnightblue" d="M853.9,-128.73C854.35,-119.18 855.06,-103.62 855.63,-91.28"/>
<polygon fill="midnightblue" stroke="midnightblue" points="859.14,-91.28 856.1,-81.13 852.14,-90.96 859.14,-91.28"/>
</g>
<!-- Node27&#45;&gt;Node15 -->
<g id="edge23" class="edge">
<title>Node27&#45;&gt;Node15</title>
<path fill="none" stroke="midnightblue" d="M874.22,-128.87C901.14,-117.65 948.36,-97.98 979.28,-85.09"/>
<polygon fill="midnightblue" stroke="midnightblue" points="980.81,-88.24 988.7,-81.17 978.12,-81.78 980.81,-88.24"/>
</g>
<!-- Node33&#45;&gt;Node20 -->
<g id="edge27" class="edge">
<title>Node33&#45;&gt;Node20</title>
<path fill="none" stroke="midnightblue" d="M443.67,-128.81C468.39,-107.68 531.86,-53.43 563.3,-26.56"/>
<polygon fill="midnightblue" stroke="midnightblue" points="565.93,-28.91 571.26,-19.76 561.38,-23.59 565.93,-28.91"/>
</g>
<!-- Node33&#45;&gt;Node21 -->
<g id="edge26" class="edge">
<title>Node33&#45;&gt;Node21</title>
<path fill="none" stroke="midnightblue" d="M423.92,-128.73C412.53,-118.31 393.31,-100.71 379.4,-87.97"/>
<polygon fill="midnightblue" stroke="midnightblue" points="381.66,-85.3 371.92,-81.13 376.94,-90.46 381.66,-85.3"/>
</g>
<!-- Node35&#45;&gt;Node11 -->
<g id="edge30" class="edge">
<title>Node35&#45;&gt;Node11</title>
<path fill="none" stroke="midnightblue" d="M651.79,-128.88C674.2,-119.8 709.34,-104.44 737.5,-87 756.32,-75.34 756.65,-65.81 776.5,-56 819.43,-34.79 873.24,-23 910.6,-16.87"/>
<polygon fill="midnightblue" stroke="midnightblue" points="911.34,-20.3 920.68,-15.29 910.25,-13.38 911.34,-20.3"/>
</g>
<!-- Node35&#45;&gt;Node22 -->
<g id="edge29" class="edge">
<title>Node35&#45;&gt;Node22</title>
<path fill="none" stroke="midnightblue" d="M606.13,-128.87C575.41,-117.52 521.26,-97.52 486.4,-84.65"/>
<polygon fill="midnightblue" stroke="midnightblue" points="487.28,-81.24 476.69,-81.06 484.86,-87.81 487.28,-81.24"/>
</g>
<!-- Node39&#45;&gt;Node11 -->
<g id="edge32" class="edge">
<title>Node39&#45;&gt;Node11</title>
<path fill="none" stroke="midnightblue" d="M1053.13,-129C1055.68,-113.12 1058.87,-78.56 1043.5,-56 1033,-40.59 1015.56,-30.15 998.96,-23.24"/>
<polygon fill="midnightblue" stroke="midnightblue" points="999.93,-19.87 989.34,-19.57 997.44,-26.41 999.93,-19.87"/>
</g>
</g>
</svg>
