<?xml version="1.0" encoding="UTF-8" standalone="no"?>
<!DOCTYPE svg PUBLIC "-//W3C//DTD SVG 1.1//EN"
 "http://www.w3.org/Graphics/SVG/1.1/DTD/svg11.dtd">
<!-- Generated by graphviz version 2.43.0 (0)
 -->
<!-- Title: include/emlabcpp/protocol/json.h Pages: 1 -->
<svg width="1054pt" height="285pt"
 viewBox="0.00 0.00 1054.08 285.00" xmlns="http://www.w3.org/2000/svg" xmlns:xlink="http://www.w3.org/1999/xlink">
<g id="graph0" class="graph" transform="scale(1 1) rotate(0) translate(4 281)">
<title>include/emlabcpp/protocol/json.h</title>
<polygon fill="white" stroke="transparent" points="-4,4 -4,-281 1050.08,-281 1050.08,4 -4,4"/>
<!-- Node1 -->
<g id="node1" class="node">
<title>Node1</title>
<g id="a_node1"><a xlink:title=" ">
<polygon fill="#bfbfbf" stroke="black" points="576.5,-246.5 576.5,-276.5 722.5,-276.5 722.5,-246.5 576.5,-246.5"/>
<text text-anchor="start" x="584.5" y="-264.5" font-family="Helvetica,sans-Serif" font-size="10.00">include/emlabcpp/protocol</text>
<text text-anchor="middle" x="649.5" y="-253.5" font-family="Helvetica,sans-Serif" font-size="10.00">/json.h</text>
</a>
</g>
</g>
<!-- Node2 -->
<g id="node2" class="node">
<title>Node2</title>
<g id="a_node2"><a xlink:href="algorithm_8h.html" target="_top" xlink:title=" ">
<polygon fill="white" stroke="black" points="162.5,-129 162.5,-148 286.5,-148 286.5,-129 162.5,-129"/>
<text text-anchor="middle" x="224.5" y="-136" font-family="Helvetica,sans-Serif" font-size="10.00">emlabcpp/algorithm.h</text>
</a>
</g>
</g>
<!-- Node1&#45;&gt;Node2 -->
<g id="edge1" class="edge">
<title>Node1&#45;&gt;Node2</title>
<path fill="none" stroke="midnightblue" d="M599.92,-246.38C514.73,-222.13 342.25,-173.03 264.32,-150.84"/>
<polygon fill="midnightblue" stroke="midnightblue" points="264.99,-147.39 254.41,-148.02 263.07,-154.12 264.99,-147.39"/>
</g>
<!-- Node23 -->
<g id="node11" class="node">
<title>Node23</title>
<g id="a_node11"><a xlink:href="enum_8h.html" target="_top" xlink:title=" ">
<polygon fill="white" stroke="black" points="740.5,-190.5 740.5,-209.5 844.5,-209.5 844.5,-190.5 740.5,-190.5"/>
<text text-anchor="middle" x="792.5" y="-197.5" font-family="Helvetica,sans-Serif" font-size="10.00">emlabcpp/enum.h</text>
</a>
</g>
</g>
<!-- Node1&#45;&gt;Node23 -->
<g id="edge13" class="edge">
<title>Node1&#45;&gt;Node23</title>
<path fill="none" stroke="midnightblue" d="M683.39,-246.4C707.38,-236.42 739.27,-223.15 762.38,-213.53"/>
<polygon fill="midnightblue" stroke="midnightblue" points="763.8,-216.73 771.69,-209.66 761.11,-210.27 763.8,-216.73"/>
</g>
<!-- Node24 -->
<g id="node12" class="node">
<title>Node24</title>
<g id="a_node12"><a xlink:href="traits_8h.html" target="_top" xlink:title=" ">
<polygon fill="white" stroke="black" points="577,-190.5 577,-209.5 722,-209.5 722,-190.5 577,-190.5"/>
<text text-anchor="middle" x="649.5" y="-197.5" font-family="Helvetica,sans-Serif" font-size="10.00">emlabcpp/protocol/traits.h</text>
</a>
</g>
</g>
<!-- Node1&#45;&gt;Node24 -->
<g id="edge14" class="edge">
<title>Node1&#45;&gt;Node24</title>
<path fill="none" stroke="midnightblue" d="M649.5,-246.4C649.5,-238.47 649.5,-228.46 649.5,-219.86"/>
<polygon fill="midnightblue" stroke="midnightblue" points="653,-219.66 649.5,-209.66 646,-219.66 653,-219.66"/>
</g>
<!-- Node3 -->
<g id="node3" class="node">
<title>Node3</title>
<g id="a_node3"><a xlink:href="impl_8h.html" target="_top" xlink:title=" ">
<polygon fill="white" stroke="black" points="178,-56.5 178,-86.5 293,-86.5 293,-56.5 178,-56.5"/>
<text text-anchor="start" x="186" y="-74.5" font-family="Helvetica,sans-Serif" font-size="10.00">emlabcpp/algorithm</text>
<text text-anchor="middle" x="235.5" y="-63.5" font-family="Helvetica,sans-Serif" font-size="10.00">/impl.h</text>
</a>
</g>
</g>
<!-- Node2&#45;&gt;Node3 -->
<g id="edge2" class="edge">
<title>Node2&#45;&gt;Node3</title>
<path fill="none" stroke="midnightblue" d="M225.98,-128.73C227.37,-120.54 229.51,-107.92 231.4,-96.71"/>
<polygon fill="midnightblue" stroke="midnightblue" points="234.9,-97.03 233.12,-86.59 228,-95.86 234.9,-97.03"/>
</g>
<!-- Node4 -->
<g id="node4" class="node">
<title>Node4</title>
<g id="a_node4"><a xlink:href="types_8h.html" target="_top" xlink:title=" ">
<polygon fill="white" stroke="red" points="340.5,-0.5 340.5,-19.5 444.5,-19.5 444.5,-0.5 340.5,-0.5"/>
<text text-anchor="middle" x="392.5" y="-7.5" font-family="Helvetica,sans-Serif" font-size="10.00">emlabcpp/types.h</text>
</a>
</g>
</g>
<!-- Node2&#45;&gt;Node4 -->
<g id="edge7" class="edge">
<title>Node2&#45;&gt;Node4</title>
<path fill="none" stroke="midnightblue" d="M238.74,-128.85C254.45,-119.15 280.31,-102.71 301.5,-87 315.87,-76.34 352.67,-45.13 374.82,-26.18"/>
<polygon fill="midnightblue" stroke="midnightblue" points="377.2,-28.75 382.52,-19.59 372.65,-23.44 377.2,-28.75"/>
</g>
<!-- Node10 -->
<g id="node5" class="node">
<title>Node10</title>
<g id="a_node5"><a xlink:title=" ">
<polygon fill="white" stroke="#bfbfbf" points="62,-0.5 62,-19.5 103,-19.5 103,-0.5 62,-0.5"/>
<text text-anchor="middle" x="82.5" y="-7.5" font-family="Helvetica,sans-Serif" font-size="10.00">tuple</text>
</a>
</g>
</g>
<!-- Node2&#45;&gt;Node10 -->
<g id="edge12" class="edge">
<title>Node2&#45;&gt;Node10</title>
<path fill="none" stroke="midnightblue" d="M177.19,-128.93C151.34,-121.87 120.75,-109.26 101.5,-87 87.77,-71.12 83.69,-46.76 82.61,-29.91"/>
<polygon fill="midnightblue" stroke="midnightblue" points="86.1,-29.53 82.27,-19.65 79.1,-29.76 86.1,-29.53"/>
</g>
<!-- Node17 -->
<g id="node6" class="node">
<title>Node17</title>
<g id="a_node6"><a xlink:href="bounded_8h.html" target="_top" xlink:title=" ">
<polygon fill="white" stroke="red" points="672,-62 672,-81 791,-81 791,-62 672,-62"/>
<text text-anchor="middle" x="731.5" y="-69" font-family="Helvetica,sans-Serif" font-size="10.00">emlabcpp/bounded.h</text>
</a>
</g>
</g>
<!-- Node2&#45;&gt;Node17 -->
<g id="edge5" class="edge">
<title>Node2&#45;&gt;Node17</title>
<path fill="none" stroke="midnightblue" d="M263.08,-128.99C273.57,-126.85 284.94,-124.69 295.5,-123 424.03,-102.47 575.14,-86.86 661.48,-78.74"/>
<polygon fill="midnightblue" stroke="midnightblue" points="662.05,-82.2 671.69,-77.78 661.4,-75.23 662.05,-82.2"/>
</g>
<!-- Node20 -->
<g id="node8" class="node">
<title>Node20</title>
<g id="a_node8"><a xlink:href="view_8h.html" target="_top" xlink:title=" ">
<polygon fill="white" stroke="black" points="415,-62 415,-81 514,-81 514,-62 415,-62"/>
<text text-anchor="middle" x="464.5" y="-69" font-family="Helvetica,sans-Serif" font-size="10.00">emlabcpp/view.h</text>
</a>
</g>
</g>
<!-- Node2&#45;&gt;Node20 -->
<g id="edge8" class="edge">
<title>Node2&#45;&gt;Node20</title>
<path fill="none" stroke="midnightblue" d="M256.37,-128.87C299.25,-117.25 375.61,-96.58 422.95,-83.75"/>
<polygon fill="midnightblue" stroke="midnightblue" points="424.14,-87.06 432.88,-81.06 422.31,-80.3 424.14,-87.06"/>
</g>
<!-- Node21 -->
<g id="node9" class="node">
<title>Node21</title>
<g id="a_node9"><a xlink:title=" ">
<polygon fill="white" stroke="#bfbfbf" points="350,-62 350,-81 397,-81 397,-62 350,-62"/>
<text text-anchor="middle" x="373.5" y="-69" font-family="Helvetica,sans-Serif" font-size="10.00">cmath</text>
</a>
</g>
</g>
<!-- Node2&#45;&gt;Node21 -->
<g id="edge10" class="edge">
<title>Node2&#45;&gt;Node21</title>
<path fill="none" stroke="midnightblue" d="M244.29,-128.87C269.89,-117.7 314.71,-98.15 344.25,-85.26"/>
<polygon fill="midnightblue" stroke="midnightblue" points="345.87,-88.37 353.63,-81.17 343.07,-81.96 345.87,-88.37"/>
</g>
<!-- Node22 -->
<g id="node10" class="node">
<title>Node22</title>
<g id="a_node10"><a xlink:title=" ">
<polygon fill="white" stroke="#bfbfbf" points="111,-62 111,-81 160,-81 160,-62 111,-62"/>
<text text-anchor="middle" x="135.5" y="-69" font-family="Helvetica,sans-Serif" font-size="10.00">cstdlib</text>
</a>
</g>
</g>
<!-- Node2&#45;&gt;Node22 -->
<g id="edge11" class="edge">
<title>Node2&#45;&gt;Node22</title>
<path fill="none" stroke="midnightblue" d="M212.5,-128.73C197.95,-118.11 173.22,-100.05 155.72,-87.26"/>
<polygon fill="midnightblue" stroke="midnightblue" points="157.45,-84.2 147.31,-81.13 153.32,-89.85 157.45,-84.2"/>
</g>
<!-- Node3&#45;&gt;Node4 -->
<g id="edge3" class="edge">
<title>Node3&#45;&gt;Node4</title>
<path fill="none" stroke="midnightblue" d="M272.71,-56.4C299.28,-46.33 334.69,-32.91 360.11,-23.28"/>
<polygon fill="midnightblue" stroke="midnightblue" points="361.54,-26.47 369.66,-19.66 359.06,-19.93 361.54,-26.47"/>
</g>
<!-- Node3&#45;&gt;Node10 -->
<g id="edge4" class="edge">
<title>Node3&#45;&gt;Node10</title>
<path fill="none" stroke="midnightblue" d="M199.24,-56.4C172.83,-46.13 137.48,-32.38 112.63,-22.72"/>
<polygon fill="midnightblue" stroke="midnightblue" points="113.59,-19.33 103,-18.97 111.05,-25.86 113.59,-19.33"/>
</g>
<!-- Node19 -->
<g id="node7" class="node">
<title>Node19</title>
<g id="a_node7"><a xlink:title=" ">
<polygon fill="white" stroke="#bfbfbf" points="703.5,-0.5 703.5,-19.5 759.5,-19.5 759.5,-0.5 703.5,-0.5"/>
<text text-anchor="middle" x="731.5" y="-7.5" font-family="Helvetica,sans-Serif" font-size="10.00">optional</text>
</a>
</g>
</g>
<!-- Node17&#45;&gt;Node19 -->
<g id="edge6" class="edge">
<title>Node17&#45;&gt;Node19</title>
<path fill="none" stroke="midnightblue" d="M731.5,-61.98C731.5,-53.58 731.5,-40.48 731.5,-29.66"/>
<polygon fill="midnightblue" stroke="midnightblue" points="735,-29.51 731.5,-19.51 728,-29.51 735,-29.51"/>
</g>
<!-- Node20&#45;&gt;Node4 -->
<g id="edge9" class="edge">
<title>Node20&#45;&gt;Node4</title>
<path fill="none" stroke="midnightblue" d="M454.18,-61.98C442.85,-52.61 424.43,-37.38 410.66,-26.01"/>
<polygon fill="midnightblue" stroke="midnightblue" points="412.73,-23.18 402.8,-19.51 408.28,-28.58 412.73,-23.18"/>
</g>
<!-- Node24&#45;&gt;Node4 -->
<g id="edge28" class="edge">
<title>Node24&#45;&gt;Node4</title>
<path fill="none" stroke="midnightblue" d="M646.64,-190.27C641.42,-175.31 629.25,-144.31 611.5,-123 579.81,-84.96 566.2,-79.27 522.5,-56 495.14,-41.43 462.11,-30.07 436.2,-22.41"/>
<polygon fill="midnightblue" stroke="midnightblue" points="436.86,-18.96 426.28,-19.55 434.92,-25.68 436.86,-18.96"/>
</g>
<!-- Node24&#45;&gt;Node19 -->
<g id="edge29" class="edge">
<title>Node24&#45;&gt;Node19</title>
<path fill="none" stroke="midnightblue" d="M722.21,-190.82C830.72,-178.54 1022.69,-156.51 1025.5,-154 1048.36,-133.64 1037.92,-117.41 1041.5,-87 1043.11,-73.32 1050.52,-66.42 1041.5,-56 1006.82,-15.92 845.24,-10.79 770.1,-10.62"/>
<polygon fill="midnightblue" stroke="midnightblue" points="769.67,-7.12 759.67,-10.63 769.67,-14.12 769.67,-7.12"/>
</g>
<!-- Node25 -->
<g id="node13" class="node">
<title>Node25</title>
<g id="a_node13"><a xlink:href="decompose_8h.html" target="_top" xlink:title=" ">
<polygon fill="white" stroke="red" points="0,-123.5 0,-153.5 133,-153.5 133,-123.5 0,-123.5"/>
<text text-anchor="start" x="8" y="-141.5" font-family="Helvetica,sans-Serif" font-size="10.00">emlabcpp/experimental</text>
<text text-anchor="middle" x="66.5" y="-130.5" font-family="Helvetica,sans-Serif" font-size="10.00">/decompose.h</text>
</a>
</g>
</g>
<!-- Node24&#45;&gt;Node25 -->
<g id="edge15" class="edge">
<title>Node24&#45;&gt;Node25</title>
<path fill="none" stroke="midnightblue" d="M576.61,-194.1C479.75,-187.19 303.36,-173.26 153.5,-154 150.23,-153.58 146.9,-153.13 143.54,-152.65"/>
<polygon fill="midnightblue" stroke="midnightblue" points="143.8,-149.15 133.4,-151.17 142.78,-156.08 143.8,-149.15"/>
</g>
<!-- Node26 -->
<g id="node14" class="node">
<title>Node26</title>
<g id="a_node14"><a xlink:href="protocol_2base_8h.html" target="_top" xlink:title=" ">
<polygon fill="white" stroke="red" points="854,-129 854,-148 997,-148 997,-129 854,-129"/>
<text text-anchor="middle" x="925.5" y="-136" font-family="Helvetica,sans-Serif" font-size="10.00">emlabcpp/protocol/base.h</text>
</a>
</g>
</g>
<!-- Node24&#45;&gt;Node26 -->
<g id="edge17" class="edge">
<title>Node24&#45;&gt;Node26</title>
<path fill="none" stroke="midnightblue" d="M689.04,-190.48C738.33,-179.85 822.59,-161.68 876.09,-150.15"/>
<polygon fill="midnightblue" stroke="midnightblue" points="876.99,-153.54 886.03,-148.01 875.52,-146.7 876.99,-153.54"/>
</g>
<!-- Node27 -->
<g id="node15" class="node">
<title>Node27</title>
<g id="a_node15"><a xlink:href="protocol_2error_8h.html" target="_top" xlink:title=" ">
<polygon fill="white" stroke="red" points="813.5,-62 813.5,-81 955.5,-81 955.5,-62 813.5,-62"/>
<text text-anchor="middle" x="884.5" y="-69" font-family="Helvetica,sans-Serif" font-size="10.00">emlabcpp/protocol/error.h</text>
</a>
</g>
</g>
<!-- Node24&#45;&gt;Node27 -->
<g id="edge21" class="edge">
<title>Node24&#45;&gt;Node27</title>
<path fill="none" stroke="midnightblue" d="M651.3,-190.46C655.1,-174.64 665.46,-140.79 687.5,-123 708,-106.46 771.53,-92.04 820.97,-82.89"/>
<polygon fill="midnightblue" stroke="midnightblue" points="821.75,-86.31 830.97,-81.08 820.5,-79.42 821.75,-86.31"/>
</g>
<!-- Node15 -->
<g id="node16" class="node">
<title>Node15</title>
<g id="a_node16"><a xlink:title=" ">
<polygon fill="white" stroke="#bfbfbf" points="981,-62 981,-81 1032,-81 1032,-62 981,-62"/>
<text text-anchor="middle" x="1006.5" y="-69" font-family="Helvetica,sans-Serif" font-size="10.00">variant</text>
</a>
</g>
</g>
<!-- Node24&#45;&gt;Node15 -->
<g id="edge30" class="edge">
<title>Node24&#45;&gt;Node15</title>
<path fill="none" stroke="midnightblue" d="M722.01,-190.46C825.69,-178.17 1004.16,-156.66 1006.5,-154 1021.45,-137.05 1017.74,-109.52 1012.84,-91.21"/>
<polygon fill="midnightblue" stroke="midnightblue" points="1016.12,-89.97 1009.87,-81.41 1009.42,-92 1016.12,-89.97"/>
</g>
<!-- Node31 -->
<g id="node17" class="node">
<title>Node31</title>
<g id="a_node17"><a xlink:href="message_8h.html" target="_top" xlink:title=" ">
<polygon fill="white" stroke="red" points="438.5,-129 438.5,-148 602.5,-148 602.5,-129 438.5,-129"/>
<text text-anchor="middle" x="520.5" y="-136" font-family="Helvetica,sans-Serif" font-size="10.00">emlabcpp/protocol/message.h</text>
</a>
</g>
</g>
<!-- Node24&#45;&gt;Node31 -->
<g id="edge22" class="edge">
<title>Node24&#45;&gt;Node31</title>
<path fill="none" stroke="midnightblue" d="M631.02,-190.48C609.37,-180.49 573.29,-163.85 548.27,-152.31"/>
<polygon fill="midnightblue" stroke="midnightblue" points="549.49,-149.02 538.95,-148.01 546.56,-155.38 549.49,-149.02"/>
</g>
<!-- Node32 -->
<g id="node18" class="node">
<title>Node32</title>
<g id="a_node18"><a xlink:href="quantity_8h.html" target="_top" xlink:title=" ">
<polygon fill="white" stroke="red" points="304.5,-129 304.5,-148 420.5,-148 420.5,-129 304.5,-129"/>
<text text-anchor="middle" x="362.5" y="-136" font-family="Helvetica,sans-Serif" font-size="10.00">emlabcpp/quantity.h</text>
</a>
</g>
</g>
<!-- Node24&#45;&gt;Node32 -->
<g id="edge25" class="edge">
<title>Node24&#45;&gt;Node32</title>
<path fill="none" stroke="midnightblue" d="M606.88,-190.43C562.54,-181.48 491.11,-166.97 429.5,-154 423.68,-152.78 417.58,-151.48 411.53,-150.18"/>
<polygon fill="midnightblue" stroke="midnightblue" points="411.97,-146.69 401.46,-148.01 410.49,-153.54 411.97,-146.69"/>
</g>
<!-- Node36 -->
<g id="node19" class="node">
<title>Node36</title>
<g id="a_node19"><a xlink:href="static__vector_8h.html" target="_top" xlink:title=" ">
<polygon fill="white" stroke="red" points="697,-129 697,-148 836,-148 836,-129 697,-129"/>
<text text-anchor="middle" x="766.5" y="-136" font-family="Helvetica,sans-Serif" font-size="10.00">emlabcpp/static_vector.h</text>
</a>
</g>
</g>
<!-- Node24&#45;&gt;Node36 -->
<g id="edge27" class="edge">
<title>Node24&#45;&gt;Node36</title>
<path fill="none" stroke="midnightblue" d="M666.26,-190.48C685.72,-180.58 718.05,-164.14 740.71,-152.62"/>
<polygon fill="midnightblue" stroke="midnightblue" points="742.44,-155.66 749.77,-148.01 739.27,-149.42 742.44,-155.66"/>
</g>
<!-- Node25&#45;&gt;Node10 -->
<g id="edge16" class="edge">
<title>Node25&#45;&gt;Node10</title>
<path fill="none" stroke="midnightblue" d="M65.67,-123.25C64.98,-106.9 64.66,-79.32 68.5,-56 69.98,-47.02 72.82,-37.34 75.55,-29.28"/>
<polygon fill="midnightblue" stroke="midnightblue" points="78.87,-30.38 78.97,-19.79 72.29,-28.01 78.87,-30.38"/>
</g>
<!-- Node26&#45;&gt;Node17 -->
<g id="edge18" class="edge">
<title>Node26&#45;&gt;Node17</title>
<path fill="none" stroke="midnightblue" d="M899.74,-128.87C865.58,-117.42 805.16,-97.18 766.79,-84.32"/>
<polygon fill="midnightblue" stroke="midnightblue" points="767.65,-80.92 757.06,-81.06 765.43,-87.56 767.65,-80.92"/>
</g>
<!-- Node26&#45;&gt;Node27 -->
<g id="edge19" class="edge">
<title>Node26&#45;&gt;Node27</title>
<path fill="none" stroke="midnightblue" d="M919.97,-128.73C913.7,-118.79 903.32,-102.34 895.41,-89.79"/>
<polygon fill="midnightblue" stroke="midnightblue" points="898.24,-87.72 889.94,-81.13 892.32,-91.45 898.24,-87.72"/>
</g>
<!-- Node26&#45;&gt;Node15 -->
<g id="edge20" class="edge">
<title>Node26&#45;&gt;Node15</title>
<path fill="none" stroke="midnightblue" d="M936.42,-128.73C949.54,-118.21 971.76,-100.38 987.66,-87.62"/>
<polygon fill="midnightblue" stroke="midnightblue" points="990.14,-90.12 995.75,-81.13 985.76,-84.66 990.14,-90.12"/>
</g>
<!-- Node31&#45;&gt;Node19 -->
<g id="edge24" class="edge">
<title>Node31&#45;&gt;Node19</title>
<path fill="none" stroke="midnightblue" d="M535,-128.81C571,-107.22 664.68,-51.06 708.4,-24.85"/>
<polygon fill="midnightblue" stroke="midnightblue" points="710.4,-27.73 717.17,-19.59 706.8,-21.73 710.4,-27.73"/>
</g>
<!-- Node31&#45;&gt;Node20 -->
<g id="edge23" class="edge">
<title>Node31&#45;&gt;Node20</title>
<path fill="none" stroke="midnightblue" d="M512.95,-128.73C504.22,-118.6 489.65,-101.69 478.76,-89.06"/>
<polygon fill="midnightblue" stroke="midnightblue" points="481.11,-86.42 471.93,-81.13 475.81,-90.99 481.11,-86.42"/>
</g>
<!-- Node32&#45;&gt;Node21 -->
<g id="edge26" class="edge">
<title>Node32&#45;&gt;Node21</title>
<path fill="none" stroke="midnightblue" d="M363.98,-128.73C365.6,-119.18 368.23,-103.62 370.32,-91.28"/>
<polygon fill="midnightblue" stroke="midnightblue" points="373.82,-91.57 372.04,-81.13 366.92,-90.4 373.82,-91.57"/>
</g>
</g>
</svg>
