<?xml version="1.0" encoding="UTF-8" standalone="no"?>
<!DOCTYPE svg PUBLIC "-//W3C//DTD SVG 1.1//EN"
 "http://www.w3.org/Graphics/SVG/1.1/DTD/svg11.dtd">
<!-- Generated by graphviz version 2.43.0 (0)
 -->
<!-- Title: include/emlabcpp/protocol/base.h Pages: 1 -->
<svg width="1026pt" height="575pt"
 viewBox="0.00 0.00 1026.19 575.00" xmlns="http://www.w3.org/2000/svg" xmlns:xlink="http://www.w3.org/1999/xlink">
<g id="graph0" class="graph" transform="scale(1 1) rotate(0) translate(4 571)">
<title>include/emlabcpp/protocol/base.h</title>
<polygon fill="white" stroke="transparent" points="-4,4 -4,-571 1022.19,-571 1022.19,4 -4,4"/>
<!-- Node1 -->
<g id="node1" class="node">
<title>Node1</title>
<g id="a_node1"><a xlink:title=" ">
<polygon fill="#bfbfbf" stroke="black" points="725,-536.5 725,-566.5 871,-566.5 871,-536.5 725,-536.5"/>
<text text-anchor="start" x="733" y="-554.5" font-family="Helvetica,sans-Serif" font-size="10.00">include/emlabcpp/protocol</text>
<text text-anchor="middle" x="798" y="-543.5" font-family="Helvetica,sans-Serif" font-size="10.00">/base.h</text>
</a>
</g>
</g>
<!-- Node2 -->
<g id="node2" class="node">
<title>Node2</title>
<g id="a_node2"><a xlink:href="decl_8h.html" target="_top" xlink:title=" ">
<polygon fill="white" stroke="black" points="593,-469.5 593,-499.5 739,-499.5 739,-469.5 593,-469.5"/>
<text text-anchor="start" x="601" y="-487.5" font-family="Helvetica,sans-Serif" font-size="10.00">include/emlabcpp/protocol</text>
<text text-anchor="middle" x="666" y="-476.5" font-family="Helvetica,sans-Serif" font-size="10.00">/decl.h</text>
</a>
</g>
</g>
<!-- Node1&#45;&gt;Node2 -->
<g id="edge1" class="edge">
<title>Node1&#45;&gt;Node2</title>
<path fill="none" stroke="midnightblue" d="M760.13,-531.85C739.26,-521.58 713.77,-509.03 694.59,-499.58"/>
<polygon fill="midnightblue" stroke="midnightblue" points="758.84,-535.12 769.36,-536.4 761.93,-528.84 758.84,-535.12"/>
</g>
<!-- Node19 -->
<g id="node19" class="node">
<title>Node19</title>
<g id="a_node19"><a xlink:href="register__map_8h.html" target="_top" xlink:title=" ">
<polygon fill="white" stroke="black" points="858,-402.5 858,-432.5 1004,-432.5 1004,-402.5 858,-402.5"/>
<text text-anchor="start" x="866" y="-420.5" font-family="Helvetica,sans-Serif" font-size="10.00">include/emlabcpp/protocol</text>
<text text-anchor="middle" x="931" y="-409.5" font-family="Helvetica,sans-Serif" font-size="10.00">/register_map.h</text>
</a>
</g>
</g>
<!-- Node1&#45;&gt;Node19 -->
<g id="edge32" class="edge">
<title>Node1&#45;&gt;Node19</title>
<path fill="none" stroke="midnightblue" d="M819.42,-529.25C846.82,-502.04 893.54,-455.68 916.87,-432.52"/>
<polygon fill="midnightblue" stroke="midnightblue" points="816.87,-526.85 812.23,-536.37 821.8,-531.81 816.87,-526.85"/>
</g>
<!-- Node20 -->
<g id="node20" class="node">
<title>Node20</title>
<g id="a_node20"><a xlink:href="streams_8h.html" target="_top" xlink:title=" ">
<polygon fill="white" stroke="black" points="858,-335.5 858,-365.5 1004,-365.5 1004,-335.5 858,-335.5"/>
<text text-anchor="start" x="866" y="-353.5" font-family="Helvetica,sans-Serif" font-size="10.00">include/emlabcpp/protocol</text>
<text text-anchor="middle" x="931" y="-342.5" font-family="Helvetica,sans-Serif" font-size="10.00">/streams.h</text>
</a>
</g>
</g>
<!-- Node1&#45;&gt;Node20 -->
<g id="edge36" class="edge">
<title>Node1&#45;&gt;Node20</title>
<path fill="none" stroke="midnightblue" d="M866.31,-533.36C916.61,-516.76 981.51,-486.1 1013,-433 1020.03,-421.15 1019.72,-414.03 1013,-402 1003.71,-385.36 986.43,-373.53 970.12,-365.52"/>
<polygon fill="midnightblue" stroke="midnightblue" points="865.25,-530.02 856.78,-536.39 867.37,-536.69 865.25,-530.02"/>
</g>
<!-- Node23 -->
<g id="node23" class="node">
<title>Node23</title>
<g id="a_node23"><a xlink:href="serializer_8h.html" target="_top" xlink:title=" ">
<polygon fill="white" stroke="black" points="227,-469.5 227,-499.5 373,-499.5 373,-469.5 227,-469.5"/>
<text text-anchor="start" x="235" y="-487.5" font-family="Helvetica,sans-Serif" font-size="10.00">include/emlabcpp/protocol</text>
<text text-anchor="middle" x="300" y="-476.5" font-family="Helvetica,sans-Serif" font-size="10.00">/serializer.h</text>
</a>
</g>
</g>
<!-- Node1&#45;&gt;Node23 -->
<g id="edge33" class="edge">
<title>Node1&#45;&gt;Node23</title>
<path fill="none" stroke="midnightblue" d="M714.59,-539.61C619.05,-527.14 464.02,-506.91 373.06,-495.04"/>
<polygon fill="midnightblue" stroke="midnightblue" points="714.42,-543.12 724.79,-540.94 715.32,-536.18 714.42,-543.12"/>
</g>
<!-- Node3 -->
<g id="node3" class="node">
<title>Node3</title>
<g id="a_node3"><a xlink:href="command__group_8h.html" target="_top" xlink:title=" ">
<polygon fill="white" stroke="black" points="694,-402.5 694,-432.5 840,-432.5 840,-402.5 694,-402.5"/>
<text text-anchor="start" x="702" y="-420.5" font-family="Helvetica,sans-Serif" font-size="10.00">include/emlabcpp/protocol</text>
<text text-anchor="middle" x="767" y="-409.5" font-family="Helvetica,sans-Serif" font-size="10.00">/command_group.h</text>
</a>
</g>
</g>
<!-- Node2&#45;&gt;Node3 -->
<g id="edge2" class="edge">
<title>Node2&#45;&gt;Node3</title>
<path fill="none" stroke="midnightblue" d="M696.71,-463.73C712.34,-453.68 730.97,-441.68 745.13,-432.58"/>
<polygon fill="midnightblue" stroke="midnightblue" points="694.43,-461.04 687.92,-469.4 698.22,-466.93 694.43,-461.04"/>
</g>
<!-- Node4 -->
<g id="node4" class="node">
<title>Node4</title>
<g id="a_node4"><a xlink:href="protocol_8h.html" target="_top" xlink:title=" ">
<polygon fill="white" stroke="black" points="588.5,-341 588.5,-360 743.5,-360 743.5,-341 588.5,-341"/>
<text text-anchor="middle" x="666" y="-348" font-family="Helvetica,sans-Serif" font-size="10.00">include/emlabcpp/protocol.h</text>
</a>
</g>
</g>
<!-- Node2&#45;&gt;Node4 -->
<g id="edge31" class="edge">
<title>Node2&#45;&gt;Node4</title>
<path fill="none" stroke="midnightblue" d="M666,-459.32C666,-429.38 666,-379.91 666,-360.1"/>
<polygon fill="midnightblue" stroke="midnightblue" points="662.5,-459.37 666,-469.37 669.5,-459.37 662.5,-459.37"/>
</g>
<!-- Node14 -->
<g id="node14" class="node">
<title>Node14</title>
<g id="a_node14"><a xlink:href="def_8h.html" target="_top" xlink:title=" ">
<polygon fill="white" stroke="black" points="126,-402.5 126,-432.5 272,-432.5 272,-402.5 126,-402.5"/>
<text text-anchor="start" x="134" y="-420.5" font-family="Helvetica,sans-Serif" font-size="10.00">include/emlabcpp/protocol</text>
<text text-anchor="middle" x="199" y="-409.5" font-family="Helvetica,sans-Serif" font-size="10.00">/def.h</text>
</a>
</g>
</g>
<!-- Node2&#45;&gt;Node14 -->
<g id="edge16" class="edge">
<title>Node2&#45;&gt;Node14</title>
<path fill="none" stroke="midnightblue" d="M582.8,-471.92C494.51,-459.63 356.39,-440.41 272.14,-428.68"/>
<polygon fill="midnightblue" stroke="midnightblue" points="582.39,-475.4 592.77,-473.31 583.35,-468.46 582.39,-475.4"/>
</g>
<!-- Node18 -->
<g id="node18" class="node">
<title>Node18</title>
<g id="a_node18"><a xlink:href="json_8h.html" target="_top" xlink:title=" ">
<polygon fill="white" stroke="black" points="492,-402.5 492,-432.5 638,-432.5 638,-402.5 492,-402.5"/>
<text text-anchor="start" x="500" y="-420.5" font-family="Helvetica,sans-Serif" font-size="10.00">include/emlabcpp/protocol</text>
<text text-anchor="middle" x="565" y="-409.5" font-family="Helvetica,sans-Serif" font-size="10.00">/json.h</text>
</a>
</g>
</g>
<!-- Node2&#45;&gt;Node18 -->
<g id="edge22" class="edge">
<title>Node2&#45;&gt;Node18</title>
<path fill="none" stroke="midnightblue" d="M635.29,-463.73C619.66,-453.68 601.03,-441.68 586.87,-432.58"/>
<polygon fill="midnightblue" stroke="midnightblue" points="633.78,-466.93 644.08,-469.4 637.57,-461.04 633.78,-466.93"/>
</g>
<!-- Node2&#45;&gt;Node19 -->
<g id="edge23" class="edge">
<title>Node2&#45;&gt;Node19</title>
<path fill="none" stroke="midnightblue" d="M733.06,-467.05C776.38,-456.43 832.17,-442.74 873.47,-432.61"/>
<polygon fill="midnightblue" stroke="midnightblue" points="732.05,-463.69 723.17,-469.48 733.72,-470.49 732.05,-463.69"/>
</g>
<!-- Node21 -->
<g id="node21" class="node">
<title>Node21</title>
<g id="a_node21"><a xlink:href="tuple_8h.html" target="_top" xlink:title=" ">
<polygon fill="white" stroke="black" points="328,-402.5 328,-432.5 474,-432.5 474,-402.5 328,-402.5"/>
<text text-anchor="start" x="336" y="-420.5" font-family="Helvetica,sans-Serif" font-size="10.00">include/emlabcpp/protocol</text>
<text text-anchor="middle" x="401" y="-409.5" font-family="Helvetica,sans-Serif" font-size="10.00">/tuple.h</text>
</a>
</g>
</g>
<!-- Node2&#45;&gt;Node21 -->
<g id="edge26" class="edge">
<title>Node2&#45;&gt;Node21</title>
<path fill="none" stroke="midnightblue" d="M598.94,-467.05C555.62,-456.43 499.83,-442.74 458.53,-432.61"/>
<polygon fill="midnightblue" stroke="midnightblue" points="598.28,-470.49 608.83,-469.48 599.95,-463.69 598.28,-470.49"/>
</g>
<!-- Node3&#45;&gt;Node4 -->
<g id="edge3" class="edge">
<title>Node3&#45;&gt;Node4</title>
<path fill="none" stroke="midnightblue" d="M736.66,-396.97C717.51,-384.65 693.73,-369.35 679.22,-360.01"/>
<polygon fill="midnightblue" stroke="midnightblue" points="734.78,-399.93 745.08,-402.4 738.57,-394.04 734.78,-399.93"/>
</g>
<!-- Node5 -->
<g id="node5" class="node">
<title>Node5</title>
<g id="a_node5"><a xlink:href="experimental_2testing_2protocol_8h.html" target="_top" xlink:title=" ">
<polygon fill="white" stroke="black" points="580.5,-268.5 580.5,-298.5 751.5,-298.5 751.5,-268.5 580.5,-268.5"/>
<text text-anchor="start" x="588.5" y="-286.5" font-family="Helvetica,sans-Serif" font-size="10.00">include/emlabcpp/experimental</text>
<text text-anchor="middle" x="666" y="-275.5" font-family="Helvetica,sans-Serif" font-size="10.00">/testing/protocol.h</text>
</a>
</g>
</g>
<!-- Node4&#45;&gt;Node5 -->
<g id="edge4" class="edge">
<title>Node4&#45;&gt;Node5</title>
<path fill="none" stroke="midnightblue" d="M666,-330.41C666,-320.22 666,-307.9 666,-298.59"/>
<polygon fill="midnightblue" stroke="midnightblue" points="662.5,-330.73 666,-340.73 669.5,-330.73 662.5,-330.73"/>
</g>
<!-- Node6 -->
<g id="node6" class="node">
<title>Node6</title>
<g id="a_node6"><a xlink:href="controller__interface_8h.html" target="_top" xlink:title=" ">
<polygon fill="white" stroke="black" points="816.5,-134.5 816.5,-164.5 987.5,-164.5 987.5,-134.5 816.5,-134.5"/>
<text text-anchor="start" x="824.5" y="-152.5" font-family="Helvetica,sans-Serif" font-size="10.00">include/emlabcpp/experimental</text>
<text text-anchor="middle" x="902" y="-141.5" font-family="Helvetica,sans-Serif" font-size="10.00">/testing/controller_interface.h</text>
</a>
</g>
</g>
<!-- Node5&#45;&gt;Node6 -->
<g id="edge5" class="edge">
<title>Node5&#45;&gt;Node6</title>
<path fill="none" stroke="midnightblue" d="M698.79,-263.33C727.48,-246.65 770.33,-221.92 808,-201 830.51,-188.5 856.29,-174.68 875.15,-164.67"/>
<polygon fill="midnightblue" stroke="midnightblue" points="696.88,-260.39 690,-268.45 700.41,-266.44 696.88,-260.39"/>
</g>
<!-- Node9 -->
<g id="node9" class="node">
<title>Node9</title>
<g id="a_node9"><a xlink:href="experimental_2testing_2error_8h.html" target="_top" xlink:title=" ">
<polygon fill="white" stroke="black" points="816.5,-201.5 816.5,-231.5 987.5,-231.5 987.5,-201.5 816.5,-201.5"/>
<text text-anchor="start" x="824.5" y="-219.5" font-family="Helvetica,sans-Serif" font-size="10.00">include/emlabcpp/experimental</text>
<text text-anchor="middle" x="902" y="-208.5" font-family="Helvetica,sans-Serif" font-size="10.00">/testing/error.h</text>
</a>
</g>
</g>
<!-- Node5&#45;&gt;Node9 -->
<g id="edge8" class="edge">
<title>Node5&#45;&gt;Node9</title>
<path fill="none" stroke="midnightblue" d="M726.94,-265.71C765.35,-255.14 814.37,-241.63 850.77,-231.61"/>
<polygon fill="midnightblue" stroke="midnightblue" points="725.63,-262.45 716.92,-268.48 727.49,-269.19 725.63,-262.45"/>
</g>
<!-- Node10 -->
<g id="node10" class="node">
<title>Node10</title>
<g id="a_node10"><a xlink:href="reactor_8h.html" target="_top" xlink:title=" ">
<polygon fill="white" stroke="black" points="456.5,-67.5 456.5,-97.5 627.5,-97.5 627.5,-67.5 456.5,-67.5"/>
<text text-anchor="start" x="464.5" y="-85.5" font-family="Helvetica,sans-Serif" font-size="10.00">include/emlabcpp/experimental</text>
<text text-anchor="middle" x="542" y="-74.5" font-family="Helvetica,sans-Serif" font-size="10.00">/testing/reactor.h</text>
</a>
</g>
</g>
<!-- Node5&#45;&gt;Node10 -->
<g id="edge10" class="edge">
<title>Node5&#45;&gt;Node10</title>
<path fill="none" stroke="midnightblue" d="M653.58,-259.09C637.56,-229.38 608.38,-176.85 580,-134 571.64,-121.38 561.25,-107.69 553.45,-97.75"/>
<polygon fill="midnightblue" stroke="midnightblue" points="650.68,-261.08 658.49,-268.24 656.84,-257.77 650.68,-261.08"/>
</g>
<!-- Node11 -->
<g id="node11" class="node">
<title>Node11</title>
<g id="a_node11"><a xlink:href="reactor__interface_8h.html" target="_top" xlink:title=" ">
<polygon fill="white" stroke="black" points="627.5,-134.5 627.5,-164.5 798.5,-164.5 798.5,-134.5 627.5,-134.5"/>
<text text-anchor="start" x="635.5" y="-152.5" font-family="Helvetica,sans-Serif" font-size="10.00">include/emlabcpp/experimental</text>
<text text-anchor="middle" x="713" y="-141.5" font-family="Helvetica,sans-Serif" font-size="10.00">/testing/reactor_interface.h</text>
</a>
</g>
</g>
<!-- Node5&#45;&gt;Node11 -->
<g id="edge11" class="edge">
<title>Node5&#45;&gt;Node11</title>
<path fill="none" stroke="midnightblue" d="M674.46,-258.75C684.23,-231.29 700.01,-186.99 708.01,-164.52"/>
<polygon fill="midnightblue" stroke="midnightblue" points="671.09,-257.78 671.03,-268.37 677.68,-260.13 671.09,-257.78"/>
</g>
<!-- Node12 -->
<g id="node12" class="node">
<title>Node12</title>
<g id="a_node12"><a xlink:href="record_8h.html" target="_top" xlink:title=" ">
<polygon fill="white" stroke="black" points="399.5,-201.5 399.5,-231.5 570.5,-231.5 570.5,-201.5 399.5,-201.5"/>
<text text-anchor="start" x="407.5" y="-219.5" font-family="Helvetica,sans-Serif" font-size="10.00">include/emlabcpp/experimental</text>
<text text-anchor="middle" x="485" y="-208.5" font-family="Helvetica,sans-Serif" font-size="10.00">/testing/record.h</text>
</a>
</g>
</g>
<!-- Node5&#45;&gt;Node12 -->
<g id="edge13" class="edge">
<title>Node5&#45;&gt;Node12</title>
<path fill="none" stroke="midnightblue" d="M617.14,-264.96C587.99,-254.48 551.46,-241.37 524.2,-231.58"/>
<polygon fill="midnightblue" stroke="midnightblue" points="616.13,-268.31 626.73,-268.4 618.5,-261.72 616.13,-268.31"/>
</g>
<!-- Node7 -->
<g id="node7" class="node">
<title>Node7</title>
<g id="a_node7"><a xlink:href="controller_8h.html" target="_top" xlink:title=" ">
<polygon fill="white" stroke="black" points="816.5,-67.5 816.5,-97.5 987.5,-97.5 987.5,-67.5 816.5,-67.5"/>
<text text-anchor="start" x="824.5" y="-85.5" font-family="Helvetica,sans-Serif" font-size="10.00">include/emlabcpp/experimental</text>
<text text-anchor="middle" x="902" y="-74.5" font-family="Helvetica,sans-Serif" font-size="10.00">/testing/controller.h</text>
</a>
</g>
</g>
<!-- Node6&#45;&gt;Node7 -->
<g id="edge6" class="edge">
<title>Node6&#45;&gt;Node7</title>
<path fill="none" stroke="midnightblue" d="M902,-124.11C902,-115.15 902,-105.32 902,-97.58"/>
<polygon fill="midnightblue" stroke="midnightblue" points="898.5,-124.4 902,-134.4 905.5,-124.4 898.5,-124.4"/>
</g>
<!-- Node8 -->
<g id="node8" class="node">
<title>Node8</title>
<g id="a_node8"><a xlink:href="gtest_8h.html" target="_top" xlink:title=" ">
<polygon fill="white" stroke="black" points="816.5,-0.5 816.5,-30.5 987.5,-30.5 987.5,-0.5 816.5,-0.5"/>
<text text-anchor="start" x="824.5" y="-18.5" font-family="Helvetica,sans-Serif" font-size="10.00">include/emlabcpp/experimental</text>
<text text-anchor="middle" x="902" y="-7.5" font-family="Helvetica,sans-Serif" font-size="10.00">/testing/gtest.h</text>
</a>
</g>
</g>
<!-- Node7&#45;&gt;Node8 -->
<g id="edge7" class="edge">
<title>Node7&#45;&gt;Node8</title>
<path fill="none" stroke="midnightblue" d="M902,-57.11C902,-48.15 902,-38.32 902,-30.58"/>
<polygon fill="midnightblue" stroke="midnightblue" points="898.5,-57.4 902,-67.4 905.5,-57.4 898.5,-57.4"/>
</g>
<!-- Node9&#45;&gt;Node6 -->
<g id="edge9" class="edge">
<title>Node9&#45;&gt;Node6</title>
<path fill="none" stroke="midnightblue" d="M902,-191.11C902,-182.15 902,-172.32 902,-164.58"/>
<polygon fill="midnightblue" stroke="midnightblue" points="898.5,-191.4 902,-201.4 905.5,-191.4 898.5,-191.4"/>
</g>
<!-- Node11&#45;&gt;Node10 -->
<g id="edge12" class="edge">
<title>Node11&#45;&gt;Node10</title>
<path fill="none" stroke="midnightblue" d="M666.48,-130.82C639,-120.37 604.67,-107.32 579.03,-97.58"/>
<polygon fill="midnightblue" stroke="midnightblue" points="665.3,-134.11 675.9,-134.4 667.79,-127.57 665.3,-134.11"/>
</g>
<!-- Node13 -->
<g id="node13" class="node">
<title>Node13</title>
<g id="a_node13"><a xlink:href="interface_8h.html" target="_top" xlink:title=" ">
<polygon fill="white" stroke="black" points="399.5,-134.5 399.5,-164.5 570.5,-164.5 570.5,-134.5 399.5,-134.5"/>
<text text-anchor="start" x="407.5" y="-152.5" font-family="Helvetica,sans-Serif" font-size="10.00">include/emlabcpp/experimental</text>
<text text-anchor="middle" x="485" y="-141.5" font-family="Helvetica,sans-Serif" font-size="10.00">/testing/interface.h</text>
</a>
</g>
</g>
<!-- Node12&#45;&gt;Node13 -->
<g id="edge14" class="edge">
<title>Node12&#45;&gt;Node13</title>
<path fill="none" stroke="midnightblue" d="M485,-191.11C485,-182.15 485,-172.32 485,-164.58"/>
<polygon fill="midnightblue" stroke="midnightblue" points="481.5,-191.4 485,-201.4 488.5,-191.4 481.5,-191.4"/>
</g>
<!-- Node13&#45;&gt;Node10 -->
<g id="edge15" class="edge">
<title>Node13&#45;&gt;Node10</title>
<path fill="none" stroke="midnightblue" d="M504.09,-126.74C512.52,-117.12 522.19,-106.09 529.66,-97.58"/>
<polygon fill="midnightblue" stroke="midnightblue" points="501.33,-124.57 497.37,-134.4 506.59,-129.18 501.33,-124.57"/>
</g>
<!-- Node15 -->
<g id="node15" class="node">
<title>Node15</title>
<g id="a_node15"><a xlink:href="handler_8h.html" target="_top" xlink:title=" ">
<polygon fill="white" stroke="black" points="0,-335.5 0,-365.5 146,-365.5 146,-335.5 0,-335.5"/>
<text text-anchor="start" x="8" y="-353.5" font-family="Helvetica,sans-Serif" font-size="10.00">include/emlabcpp/protocol</text>
<text text-anchor="middle" x="73" y="-342.5" font-family="Helvetica,sans-Serif" font-size="10.00">/handler.h</text>
</a>
</g>
</g>
<!-- Node14&#45;&gt;Node15 -->
<g id="edge17" class="edge">
<title>Node14&#45;&gt;Node15</title>
<path fill="none" stroke="midnightblue" d="M162.58,-397.71C142.71,-387.46 118.52,-374.98 100.29,-365.58"/>
<polygon fill="midnightblue" stroke="midnightblue" points="161.17,-400.92 171.66,-402.4 164.38,-394.7 161.17,-400.92"/>
</g>
<!-- Node17 -->
<g id="node17" class="node">
<title>Node17</title>
<g id="a_node17"><a xlink:href="register__handler_8h.html" target="_top" xlink:title=" ">
<polygon fill="white" stroke="black" points="164,-335.5 164,-365.5 310,-365.5 310,-335.5 164,-335.5"/>
<text text-anchor="start" x="172" y="-353.5" font-family="Helvetica,sans-Serif" font-size="10.00">include/emlabcpp/protocol</text>
<text text-anchor="middle" x="237" y="-342.5" font-family="Helvetica,sans-Serif" font-size="10.00">/register_handler.h</text>
</a>
</g>
</g>
<!-- Node14&#45;&gt;Node17 -->
<g id="edge21" class="edge">
<title>Node14&#45;&gt;Node17</title>
<path fill="none" stroke="midnightblue" d="M212.4,-393.58C217.86,-384.24 223.99,-373.75 228.77,-365.58"/>
<polygon fill="midnightblue" stroke="midnightblue" points="209.27,-392 207.25,-402.4 215.31,-395.53 209.27,-392"/>
</g>
<!-- Node16 -->
<g id="node16" class="node">
<title>Node16</title>
<g id="a_node16"><a xlink:href="packet__handler_8h.html" target="_top" xlink:title=" ">
<polygon fill="white" stroke="black" points="279,-268.5 279,-298.5 425,-298.5 425,-268.5 279,-268.5"/>
<text text-anchor="start" x="287" y="-286.5" font-family="Helvetica,sans-Serif" font-size="10.00">include/emlabcpp/protocol</text>
<text text-anchor="middle" x="352" y="-275.5" font-family="Helvetica,sans-Serif" font-size="10.00">/packet_handler.h</text>
</a>
</g>
</g>
<!-- Node15&#45;&gt;Node16 -->
<g id="edge18" class="edge">
<title>Node15&#45;&gt;Node16</title>
<path fill="none" stroke="midnightblue" d="M143.03,-333.19C188.72,-322.54 247.77,-308.78 291.43,-298.61"/>
<polygon fill="midnightblue" stroke="midnightblue" points="142.14,-329.8 133.2,-335.48 143.73,-336.62 142.14,-329.8"/>
</g>
<!-- Node16&#45;&gt;Node10 -->
<g id="edge20" class="edge">
<title>Node16&#45;&gt;Node10</title>
<path fill="none" stroke="midnightblue" d="M351,-258.2C351.04,-225.3 356.31,-166.92 390,-134 408,-116.41 432.27,-104.95 456.13,-97.48"/>
<polygon fill="midnightblue" stroke="midnightblue" points="347.5,-258.36 351.15,-268.31 354.5,-258.26 347.5,-258.36"/>
</g>
<!-- Node16&#45;&gt;Node13 -->
<g id="edge19" class="edge">
<title>Node16&#45;&gt;Node13</title>
<path fill="none" stroke="midnightblue" d="M358.6,-258.63C364.47,-240.98 374.55,-217.28 390,-201 405.3,-184.88 426.9,-172.83 445.64,-164.56"/>
<polygon fill="midnightblue" stroke="midnightblue" points="355.24,-257.64 355.62,-268.23 361.93,-259.71 355.24,-257.64"/>
</g>
<!-- Node19&#45;&gt;Node20 -->
<g id="edge24" class="edge">
<title>Node19&#45;&gt;Node20</title>
<path fill="none" stroke="midnightblue" d="M931,-392.11C931,-383.15 931,-373.32 931,-365.58"/>
<polygon fill="midnightblue" stroke="midnightblue" points="927.5,-392.4 931,-402.4 934.5,-392.4 927.5,-392.4"/>
</g>
<!-- Node20&#45;&gt;Node9 -->
<g id="edge25" class="edge">
<title>Node20&#45;&gt;Node9</title>
<path fill="none" stroke="midnightblue" d="M925.7,-325.39C919.66,-297.9 909.99,-253.89 905.08,-231.52"/>
<polygon fill="midnightblue" stroke="midnightblue" points="922.33,-326.36 927.9,-335.37 929.17,-324.86 922.33,-326.36"/>
</g>
<!-- Node21&#45;&gt;Node4 -->
<g id="edge30" class="edge">
<title>Node21&#45;&gt;Node4</title>
<path fill="none" stroke="midnightblue" d="M467.99,-400.07C519.95,-387.32 589.89,-370.17 631.23,-360.03"/>
<polygon fill="midnightblue" stroke="midnightblue" points="467.05,-396.69 458.17,-402.48 468.72,-403.49 467.05,-396.69"/>
</g>
<!-- Node22 -->
<g id="node22" class="node">
<title>Node22</title>
<g id="a_node22"><a xlink:href="packet_8h.html" target="_top" xlink:title=" ">
<polygon fill="white" stroke="black" points="328,-335.5 328,-365.5 474,-365.5 474,-335.5 328,-335.5"/>
<text text-anchor="start" x="336" y="-353.5" font-family="Helvetica,sans-Serif" font-size="10.00">include/emlabcpp/protocol</text>
<text text-anchor="middle" x="401" y="-342.5" font-family="Helvetica,sans-Serif" font-size="10.00">/packet.h</text>
</a>
</g>
</g>
<!-- Node21&#45;&gt;Node22 -->
<g id="edge27" class="edge">
<title>Node21&#45;&gt;Node22</title>
<path fill="none" stroke="midnightblue" d="M401,-392.11C401,-383.15 401,-373.32 401,-365.58"/>
<polygon fill="midnightblue" stroke="midnightblue" points="397.5,-392.4 401,-402.4 404.5,-392.4 397.5,-392.4"/>
</g>
<!-- Node22&#45;&gt;Node5 -->
<g id="edge28" class="edge">
<title>Node22&#45;&gt;Node5</title>
<path fill="none" stroke="midnightblue" d="M468.06,-333.05C511.38,-322.43 567.17,-308.74 608.47,-298.61"/>
<polygon fill="midnightblue" stroke="midnightblue" points="467.05,-329.69 458.17,-335.48 468.72,-336.49 467.05,-329.69"/>
</g>
<!-- Node22&#45;&gt;Node16 -->
<g id="edge29" class="edge">
<title>Node22&#45;&gt;Node16</title>
<path fill="none" stroke="midnightblue" d="M384.16,-327.16C377.01,-317.68 368.9,-306.92 362.61,-298.58"/>
<polygon fill="midnightblue" stroke="midnightblue" points="381.55,-329.52 390.37,-335.4 387.14,-325.3 381.55,-329.52"/>
</g>
<!-- Node23&#45;&gt;Node14 -->
<g id="edge34" class="edge">
<title>Node23&#45;&gt;Node14</title>
<path fill="none" stroke="midnightblue" d="M269.29,-463.73C253.66,-453.68 235.03,-441.68 220.87,-432.58"/>
<polygon fill="midnightblue" stroke="midnightblue" points="267.78,-466.93 278.08,-469.4 271.57,-461.04 267.78,-466.93"/>
</g>
<!-- Node23&#45;&gt;Node22 -->
<g id="edge35" class="edge">
<title>Node23&#45;&gt;Node22</title>
<path fill="none" stroke="midnightblue" d="M300.81,-459.04C302.48,-441.69 307.02,-418.64 319,-402 330.62,-385.85 349.16,-373.81 365.67,-365.54"/>
<polygon fill="midnightblue" stroke="midnightblue" points="297.28,-459.27 300.08,-469.48 304.27,-459.75 297.28,-459.27"/>
</g>
</g>
</svg>
