<?xml version="1.0" encoding="UTF-8" standalone="no"?>
<!DOCTYPE svg PUBLIC "-//W3C//DTD SVG 1.1//EN"
 "http://www.w3.org/Graphics/SVG/1.1/DTD/svg11.dtd">
<!-- Generated by graphviz version 2.43.0 (0)
 -->
<!-- Title: include/emlabcpp/protocol/handler.h Pages: 1 -->
<svg width="818pt" height="207pt"
 viewBox="0.00 0.00 818.30 207.00" xmlns="http://www.w3.org/2000/svg" xmlns:xlink="http://www.w3.org/1999/xlink">
<g id="graph0" class="graph" transform="scale(1 1) rotate(0) translate(4 203)">
<title>include/emlabcpp/protocol/handler.h</title>
<polygon fill="white" stroke="transparent" points="-4,4 -4,-203 814.3,-203 814.3,4 -4,4"/>
<!-- Node1 -->
<g id="node1" class="node">
<title>Node1</title>
<g id="a_node1"><a xlink:title=" ">
<polygon fill="#bfbfbf" stroke="black" points="421.5,-168.5 421.5,-198.5 567.5,-198.5 567.5,-168.5 421.5,-168.5"/>
<text text-anchor="start" x="429.5" y="-186.5" font-family="Helvetica,sans-Serif" font-size="10.00">include/emlabcpp/protocol</text>
<text text-anchor="middle" x="494.5" y="-175.5" font-family="Helvetica,sans-Serif" font-size="10.00">/handler.h</text>
</a>
</g>
</g>
<!-- Node2 -->
<g id="node2" class="node">
<title>Node2</title>
<g id="a_node2"><a xlink:href="either_8h.html" target="_top" xlink:title=" ">
<polygon fill="white" stroke="black" points="78.5,-56.5 78.5,-75.5 182.5,-75.5 182.5,-56.5 78.5,-56.5"/>
<text text-anchor="middle" x="130.5" y="-63.5" font-family="Helvetica,sans-Serif" font-size="10.00">emlabcpp/either.h</text>
</a>
</g>
</g>
<!-- Node1&#45;&gt;Node2 -->
<g id="edge1" class="edge">
<title>Node1&#45;&gt;Node2</title>
<path fill="none" stroke="midnightblue" d="M450.23,-168.45C377.6,-145.41 234.51,-100 167.17,-78.64"/>
<polygon fill="midnightblue" stroke="midnightblue" points="168.01,-75.23 157.42,-75.54 165.89,-81.9 168.01,-75.23"/>
</g>
<!-- Node21 -->
<g id="node4" class="node">
<title>Node21</title>
<g id="a_node4"><a xlink:href="types_8h.html" target="_top" xlink:title=" ">
<polygon fill="white" stroke="red" points="621.5,-0.5 621.5,-19.5 725.5,-19.5 725.5,-0.5 621.5,-0.5"/>
<text text-anchor="middle" x="673.5" y="-7.5" font-family="Helvetica,sans-Serif" font-size="10.00">emlabcpp/types.h</text>
</a>
</g>
</g>
<!-- Node1&#45;&gt;Node21 -->
<g id="edge18" class="edge">
<title>Node1&#45;&gt;Node21</title>
<path fill="none" stroke="midnightblue" d="M567.53,-180.32C641.03,-173.75 750.94,-151.03 804.5,-76 826.26,-45.52 779.45,-28.58 735.86,-19.7"/>
<polygon fill="midnightblue" stroke="midnightblue" points="736.25,-16.21 725.77,-17.77 734.94,-23.09 736.25,-16.21"/>
</g>
<!-- Node42 -->
<g id="node9" class="node">
<title>Node42</title>
<g id="a_node9"><a xlink:href="converter_8h.html" target="_top" xlink:title=" ">
<polygon fill="white" stroke="black" points="412,-112.5 412,-131.5 577,-131.5 577,-112.5 412,-112.5"/>
<text text-anchor="middle" x="494.5" y="-119.5" font-family="Helvetica,sans-Serif" font-size="10.00">emlabcpp/protocol/converter.h</text>
</a>
</g>
</g>
<!-- Node1&#45;&gt;Node42 -->
<g id="edge8" class="edge">
<title>Node1&#45;&gt;Node42</title>
<path fill="none" stroke="midnightblue" d="M494.5,-168.4C494.5,-160.47 494.5,-150.46 494.5,-141.86"/>
<polygon fill="midnightblue" stroke="midnightblue" points="498,-141.66 494.5,-131.66 491,-141.66 498,-141.66"/>
</g>
<!-- Node3 -->
<g id="node3" class="node">
<title>Node3</title>
<g id="a_node3"><a xlink:href="static__vector_8h.html" target="_top" xlink:title=" ">
<polygon fill="white" stroke="red" points="225,-0.5 225,-19.5 364,-19.5 364,-0.5 225,-0.5"/>
<text text-anchor="middle" x="294.5" y="-7.5" font-family="Helvetica,sans-Serif" font-size="10.00">emlabcpp/static_vector.h</text>
</a>
</g>
</g>
<!-- Node2&#45;&gt;Node3 -->
<g id="edge2" class="edge">
<title>Node2&#45;&gt;Node3</title>
<path fill="none" stroke="midnightblue" d="M156.49,-56.44C184.2,-47.32 228.25,-32.81 259.12,-22.65"/>
<polygon fill="midnightblue" stroke="midnightblue" points="260.23,-25.97 268.64,-19.52 258.04,-19.32 260.23,-25.97"/>
</g>
<!-- Node2&#45;&gt;Node21 -->
<g id="edge3" class="edge">
<title>Node2&#45;&gt;Node21</title>
<path fill="none" stroke="midnightblue" d="M182.72,-57.11C185.69,-56.72 188.63,-56.35 191.5,-56 341.9,-37.9 519.45,-22.98 611.37,-15.73"/>
<polygon fill="midnightblue" stroke="midnightblue" points="611.64,-19.22 621.33,-14.95 611.09,-12.24 611.64,-19.22"/>
</g>
<!-- Node35 -->
<g id="node5" class="node">
<title>Node35</title>
<g id="a_node5"><a xlink:title=" ">
<polygon fill="white" stroke="#bfbfbf" points="150.5,-0.5 150.5,-19.5 206.5,-19.5 206.5,-0.5 150.5,-0.5"/>
<text text-anchor="middle" x="178.5" y="-7.5" font-family="Helvetica,sans-Serif" font-size="10.00">optional</text>
</a>
</g>
</g>
<!-- Node2&#45;&gt;Node35 -->
<g id="edge4" class="edge">
<title>Node2&#45;&gt;Node35</title>
<path fill="none" stroke="midnightblue" d="M138.43,-56.08C145.35,-48.3 155.57,-36.8 163.95,-27.37"/>
<polygon fill="midnightblue" stroke="midnightblue" points="166.69,-29.55 170.72,-19.75 161.46,-24.9 166.69,-29.55"/>
</g>
<!-- Node9 -->
<g id="node6" class="node">
<title>Node9</title>
<g id="a_node6"><a xlink:title=" ">
<polygon fill="white" stroke="#bfbfbf" points="502,-0.5 502,-19.5 543,-19.5 543,-0.5 502,-0.5"/>
<text text-anchor="middle" x="522.5" y="-7.5" font-family="Helvetica,sans-Serif" font-size="10.00">tuple</text>
</a>
</g>
</g>
<!-- Node2&#45;&gt;Node9 -->
<g id="edge5" class="edge">
<title>Node2&#45;&gt;Node9</title>
<path fill="none" stroke="midnightblue" d="M182.74,-57.25C185.7,-56.83 188.64,-56.41 191.5,-56 302.04,-40.33 433.52,-22.78 491.93,-15.04"/>
<polygon fill="midnightblue" stroke="midnightblue" points="492.51,-18.49 501.96,-13.71 491.59,-11.55 492.51,-18.49"/>
</g>
<!-- Node10 -->
<g id="node7" class="node">
<title>Node10</title>
<g id="a_node7"><a xlink:title=" ">
<polygon fill="white" stroke="#bfbfbf" points="0,-0.5 0,-19.5 69,-19.5 69,-0.5 0,-0.5"/>
<text text-anchor="middle" x="34.5" y="-7.5" font-family="Helvetica,sans-Serif" font-size="10.00">type_traits</text>
</a>
</g>
</g>
<!-- Node2&#45;&gt;Node10 -->
<g id="edge6" class="edge">
<title>Node2&#45;&gt;Node10</title>
<path fill="none" stroke="midnightblue" d="M115.08,-56.32C99.96,-47.82 76.68,-34.73 59.03,-24.8"/>
<polygon fill="midnightblue" stroke="midnightblue" points="60.32,-21.51 49.89,-19.65 56.89,-27.61 60.32,-21.51"/>
</g>
<!-- Node41 -->
<g id="node8" class="node">
<title>Node41</title>
<g id="a_node8"><a xlink:title=" ">
<polygon fill="white" stroke="#bfbfbf" points="87,-0.5 87,-19.5 132,-19.5 132,-0.5 87,-0.5"/>
<text text-anchor="middle" x="109.5" y="-7.5" font-family="Helvetica,sans-Serif" font-size="10.00">utility</text>
</a>
</g>
</g>
<!-- Node2&#45;&gt;Node41 -->
<g id="edge7" class="edge">
<title>Node2&#45;&gt;Node41</title>
<path fill="none" stroke="midnightblue" d="M127.03,-56.08C124.19,-48.77 120.07,-38.18 116.54,-29.1"/>
<polygon fill="midnightblue" stroke="midnightblue" points="119.79,-27.8 112.9,-19.75 113.27,-30.34 119.79,-27.8"/>
</g>
<!-- Node43 -->
<g id="node10" class="node">
<title>Node43</title>
<g id="a_node10"><a xlink:href="algorithm_8h.html" target="_top" xlink:title=" ">
<polygon fill="white" stroke="red" points="671.5,-56.5 671.5,-75.5 795.5,-75.5 795.5,-56.5 671.5,-56.5"/>
<text text-anchor="middle" x="733.5" y="-63.5" font-family="Helvetica,sans-Serif" font-size="10.00">emlabcpp/algorithm.h</text>
</a>
</g>
</g>
<!-- Node42&#45;&gt;Node43 -->
<g id="edge9" class="edge">
<title>Node42&#45;&gt;Node43</title>
<path fill="none" stroke="midnightblue" d="M532.37,-112.44C573.98,-103.04 640.87,-87.93 685.97,-77.74"/>
<polygon fill="midnightblue" stroke="midnightblue" points="686.82,-81.13 695.81,-75.52 685.28,-74.31 686.82,-81.13"/>
</g>
<!-- Node49 -->
<g id="node11" class="node">
<title>Node49</title>
<g id="a_node11"><a xlink:href="assert_8h.html" target="_top" xlink:title=" ">
<polygon fill="white" stroke="red" points="364,-56.5 364,-75.5 471,-75.5 471,-56.5 364,-56.5"/>
<text text-anchor="middle" x="417.5" y="-63.5" font-family="Helvetica,sans-Serif" font-size="10.00">emlabcpp/assert.h</text>
</a>
</g>
</g>
<!-- Node42&#45;&gt;Node49 -->
<g id="edge12" class="edge">
<title>Node42&#45;&gt;Node49</title>
<path fill="none" stroke="midnightblue" d="M482.13,-112.32C470.34,-104.06 452.37,-91.45 438.36,-81.63"/>
<polygon fill="midnightblue" stroke="midnightblue" points="440.04,-78.53 429.84,-75.65 436.02,-84.26 440.04,-78.53"/>
</g>
<!-- Node51 -->
<g id="node12" class="node">
<title>Node51</title>
<g id="a_node12"><a xlink:href="serializer_8h.html" target="_top" xlink:title=" ">
<polygon fill="white" stroke="red" points="489.5,-56.5 489.5,-75.5 653.5,-75.5 653.5,-56.5 489.5,-56.5"/>
<text text-anchor="middle" x="571.5" y="-63.5" font-family="Helvetica,sans-Serif" font-size="10.00">emlabcpp/protocol/serializer.h</text>
</a>
</g>
</g>
<!-- Node42&#45;&gt;Node51 -->
<g id="edge13" class="edge">
<title>Node42&#45;&gt;Node51</title>
<path fill="none" stroke="midnightblue" d="M506.87,-112.32C518.66,-104.06 536.63,-91.45 550.64,-81.63"/>
<polygon fill="midnightblue" stroke="midnightblue" points="552.98,-84.26 559.16,-75.65 548.96,-78.53 552.98,-84.26"/>
</g>
<!-- Node59 -->
<g id="node13" class="node">
<title>Node59</title>
<g id="a_node13"><a xlink:href="traits_8h.html" target="_top" xlink:title=" ">
<polygon fill="white" stroke="red" points="201,-56.5 201,-75.5 346,-75.5 346,-56.5 201,-56.5"/>
<text text-anchor="middle" x="273.5" y="-63.5" font-family="Helvetica,sans-Serif" font-size="10.00">emlabcpp/protocol/traits.h</text>
</a>
</g>
</g>
<!-- Node42&#45;&gt;Node59 -->
<g id="edge14" class="edge">
<title>Node42&#45;&gt;Node59</title>
<path fill="none" stroke="midnightblue" d="M459.48,-112.44C421.25,-103.1 359.93,-88.12 318.24,-77.93"/>
<polygon fill="midnightblue" stroke="midnightblue" points="318.9,-74.49 308.35,-75.52 317.24,-81.29 318.9,-74.49"/>
</g>
<!-- Node43&#45;&gt;Node21 -->
<g id="edge10" class="edge">
<title>Node43&#45;&gt;Node21</title>
<path fill="none" stroke="midnightblue" d="M723.86,-56.32C714.99,-48.34 701.63,-36.31 690.89,-26.65"/>
<polygon fill="midnightblue" stroke="midnightblue" points="693.09,-23.92 683.32,-19.83 688.41,-29.13 693.09,-23.92"/>
</g>
<!-- Node43&#45;&gt;Node9 -->
<g id="edge11" class="edge">
<title>Node43&#45;&gt;Node9</title>
<path fill="none" stroke="midnightblue" d="M700.07,-56.44C659.53,-46.07 591.81,-28.74 552.76,-18.74"/>
<polygon fill="midnightblue" stroke="midnightblue" points="553.57,-15.34 543.02,-16.25 551.84,-22.12 553.57,-15.34"/>
</g>
<!-- Node59&#45;&gt;Node3 -->
<g id="edge15" class="edge">
<title>Node59&#45;&gt;Node3</title>
<path fill="none" stroke="midnightblue" d="M276.97,-56.08C279.81,-48.77 283.93,-38.18 287.46,-29.1"/>
<polygon fill="midnightblue" stroke="midnightblue" points="290.73,-30.34 291.1,-19.75 284.21,-27.8 290.73,-30.34"/>
</g>
<!-- Node59&#45;&gt;Node21 -->
<g id="edge16" class="edge">
<title>Node59&#45;&gt;Node21</title>
<path fill="none" stroke="midnightblue" d="M336.88,-56.44C411.99,-46.3 536.35,-29.52 611.05,-19.43"/>
<polygon fill="midnightblue" stroke="midnightblue" points="611.81,-22.86 621.25,-18.05 610.87,-15.92 611.81,-22.86"/>
</g>
<!-- Node59&#45;&gt;Node35 -->
<g id="edge17" class="edge">
<title>Node59&#45;&gt;Node35</title>
<path fill="none" stroke="midnightblue" d="M258.24,-56.32C243.28,-47.82 220.25,-34.73 202.77,-24.8"/>
<polygon fill="midnightblue" stroke="midnightblue" points="204.15,-21.55 193.73,-19.65 200.69,-27.64 204.15,-21.55"/>
</g>
</g>
</svg>
