<?xml version="1.0" encoding="UTF-8" standalone="no"?>
<!DOCTYPE svg PUBLIC "-//W3C//DTD SVG 1.1//EN"
 "http://www.w3.org/Graphics/SVG/1.1/DTD/svg11.dtd">
<!-- Generated by graphviz version 2.43.0 (0)
 -->
<!-- Title: include/emlabcpp/protocol/json.h Pages: 1 -->
<svg width="1082pt" height="285pt"
 viewBox="0.00 0.00 1081.57 285.00" xmlns="http://www.w3.org/2000/svg" xmlns:xlink="http://www.w3.org/1999/xlink">
<g id="graph0" class="graph" transform="scale(1 1) rotate(0) translate(4 281)">
<title>include/emlabcpp/protocol/json.h</title>
<polygon fill="white" stroke="transparent" points="-4,4 -4,-281 1077.57,-281 1077.57,4 -4,4"/>
<!-- Node1 -->
<g id="node1" class="node">
<title>Node1</title>
<g id="a_node1"><a xlink:title=" ">
<polygon fill="#bfbfbf" stroke="black" points="592.19,-246.5 592.19,-276.5 738.19,-276.5 738.19,-246.5 592.19,-246.5"/>
<text text-anchor="start" x="600.19" y="-264.5" font-family="Helvetica,sans-Serif" font-size="10.00">include/emlabcpp/protocol</text>
<text text-anchor="middle" x="665.19" y="-253.5" font-family="Helvetica,sans-Serif" font-size="10.00">/json.h</text>
</a>
</g>
</g>
<!-- Node2 -->
<g id="node2" class="node">
<title>Node2</title>
<g id="a_node2"><a xlink:href="algorithm_8h.html" target="_top" xlink:title=" ">
<polygon fill="white" stroke="black" points="245.19,-129 245.19,-148 369.19,-148 369.19,-129 245.19,-129"/>
<text text-anchor="middle" x="307.19" y="-136" font-family="Helvetica,sans-Serif" font-size="10.00">emlabcpp/algorithm.h</text>
</a>
</g>
</g>
<!-- Node1&#45;&gt;Node2 -->
<g id="edge1" class="edge">
<title>Node1&#45;&gt;Node2</title>
<path fill="none" stroke="midnightblue" d="M623.42,-246.38C552.19,-222.31 408.51,-173.75 342.19,-151.33"/>
<polygon fill="midnightblue" stroke="midnightblue" points="343.2,-147.98 332.61,-148.09 340.96,-154.61 343.2,-147.98"/>
</g>
<!-- Node21 -->
<g id="node12" class="node">
<title>Node21</title>
<g id="a_node12"><a xlink:href="enum_8h.html" target="_top" xlink:title=" ">
<polygon fill="white" stroke="red" points="756.19,-190.5 756.19,-209.5 860.19,-209.5 860.19,-190.5 756.19,-190.5"/>
<text text-anchor="middle" x="808.19" y="-197.5" font-family="Helvetica,sans-Serif" font-size="10.00">emlabcpp/enum.h</text>
</a>
</g>
</g>
<!-- Node1&#45;&gt;Node21 -->
<g id="edge14" class="edge">
<title>Node1&#45;&gt;Node21</title>
<path fill="none" stroke="midnightblue" d="M699.08,-246.4C723.07,-236.42 754.96,-223.15 778.06,-213.53"/>
<polygon fill="midnightblue" stroke="midnightblue" points="779.49,-216.73 787.38,-209.66 776.8,-210.27 779.49,-216.73"/>
</g>
<!-- Node42 -->
<g id="node13" class="node">
<title>Node42</title>
<g id="a_node13"><a xlink:href="traits_8h.html" target="_top" xlink:title=" ">
<polygon fill="white" stroke="black" points="592.69,-190.5 592.69,-209.5 737.69,-209.5 737.69,-190.5 592.69,-190.5"/>
<text text-anchor="middle" x="665.19" y="-197.5" font-family="Helvetica,sans-Serif" font-size="10.00">emlabcpp/protocol/traits.h</text>
</a>
</g>
</g>
<!-- Node1&#45;&gt;Node42 -->
<g id="edge15" class="edge">
<title>Node1&#45;&gt;Node42</title>
<path fill="none" stroke="midnightblue" d="M665.19,-246.4C665.19,-238.47 665.19,-228.46 665.19,-219.86"/>
<polygon fill="midnightblue" stroke="midnightblue" points="668.69,-219.66 665.19,-209.66 661.69,-219.66 668.69,-219.66"/>
</g>
<!-- Node3 -->
<g id="node3" class="node">
<title>Node3</title>
<g id="a_node3"><a xlink:href="impl_8h.html" target="_top" xlink:title=" ">
<polygon fill="white" stroke="black" points="386.69,-56.5 386.69,-86.5 501.69,-86.5 501.69,-56.5 386.69,-56.5"/>
<text text-anchor="start" x="394.69" y="-74.5" font-family="Helvetica,sans-Serif" font-size="10.00">emlabcpp/algorithm</text>
<text text-anchor="middle" x="444.19" y="-63.5" font-family="Helvetica,sans-Serif" font-size="10.00">/impl.h</text>
</a>
</g>
</g>
<!-- Node2&#45;&gt;Node3 -->
<g id="edge2" class="edge">
<title>Node2&#45;&gt;Node3</title>
<path fill="none" stroke="midnightblue" d="M325.38,-128.87C345.67,-119.24 379.08,-103.39 405.32,-90.94"/>
<polygon fill="midnightblue" stroke="midnightblue" points="407.08,-93.98 414.62,-86.53 404.08,-87.65 407.08,-93.98"/>
</g>
<!-- Node4 -->
<g id="node4" class="node">
<title>Node4</title>
<g id="a_node4"><a xlink:href="types_8h.html" target="_top" xlink:title=" ">
<polygon fill="white" stroke="red" points="94.19,-0.5 94.19,-19.5 198.19,-19.5 198.19,-0.5 94.19,-0.5"/>
<text text-anchor="middle" x="146.19" y="-7.5" font-family="Helvetica,sans-Serif" font-size="10.00">emlabcpp/types.h</text>
</a>
</g>
</g>
<!-- Node2&#45;&gt;Node4 -->
<g id="edge8" class="edge">
<title>Node2&#45;&gt;Node4</title>
<path fill="none" stroke="midnightblue" d="M294.85,-129C280.72,-119.16 256.95,-102.35 237.19,-87 223.06,-76.03 186.17,-44.93 163.94,-26.08"/>
<polygon fill="midnightblue" stroke="midnightblue" points="166.1,-23.33 156.21,-19.53 161.58,-28.67 166.1,-23.33"/>
</g>
<!-- Node10 -->
<g id="node5" class="node">
<title>Node10</title>
<g id="a_node5"><a xlink:title=" ">
<polygon fill="white" stroke="#bfbfbf" points="509.69,-0.5 509.69,-19.5 550.69,-19.5 550.69,-0.5 509.69,-0.5"/>
<text text-anchor="middle" x="530.19" y="-7.5" font-family="Helvetica,sans-Serif" font-size="10.00">tuple</text>
</a>
</g>
</g>
<!-- Node2&#45;&gt;Node10 -->
<g id="edge13" class="edge">
<title>Node2&#45;&gt;Node10</title>
<path fill="none" stroke="midnightblue" d="M346.05,-128.96C403.57,-116.17 505.28,-92.89 511.19,-87 526.13,-72.09 529.94,-47.33 530.62,-30.14"/>
<polygon fill="midnightblue" stroke="midnightblue" points="534.12,-29.69 530.69,-19.66 527.12,-29.64 534.12,-29.69"/>
</g>
<!-- Node17 -->
<g id="node6" class="node">
<title>Node17</title>
<g id="a_node6"><a xlink:href="bounded_8h.html" target="_top" xlink:title=" ">
<polygon fill="white" stroke="red" points="700.69,-62 700.69,-81 819.69,-81 819.69,-62 700.69,-62"/>
<text text-anchor="middle" x="760.19" y="-69" font-family="Helvetica,sans-Serif" font-size="10.00">emlabcpp/bounded.h</text>
</a>
</g>
</g>
<!-- Node2&#45;&gt;Node17 -->
<g id="edge5" class="edge">
<title>Node2&#45;&gt;Node17</title>
<path fill="none" stroke="midnightblue" d="M346.53,-128.95C356.8,-126.86 367.89,-124.73 378.19,-123 486.78,-104.76 613.66,-89.09 690.41,-80.24"/>
<polygon fill="midnightblue" stroke="midnightblue" points="690.91,-83.7 700.44,-79.09 690.11,-76.75 690.91,-83.7"/>
</g>
<!-- Node25 -->
<g id="node8" class="node">
<title>Node25</title>
<g id="a_node8"><a xlink:href="min__max_8h.html" target="_top" xlink:title=" ">
<polygon fill="white" stroke="red" points="246.19,-62 246.19,-81 368.19,-81 368.19,-62 246.19,-62"/>
<text text-anchor="middle" x="307.19" y="-69" font-family="Helvetica,sans-Serif" font-size="10.00">emlabcpp/min_max.h</text>
</a>
</g>
</g>
<!-- Node2&#45;&gt;Node25 -->
<g id="edge7" class="edge">
<title>Node2&#45;&gt;Node25</title>
<path fill="none" stroke="midnightblue" d="M307.19,-128.73C307.19,-119.18 307.19,-103.62 307.19,-91.28"/>
<polygon fill="midnightblue" stroke="midnightblue" points="310.69,-91.13 307.19,-81.13 303.69,-91.13 310.69,-91.13"/>
</g>
<!-- Node30 -->
<g id="node9" class="node">
<title>Node30</title>
<g id="a_node9"><a xlink:href="view_8h.html" target="_top" xlink:title=" ">
<polygon fill="white" stroke="red" points="23.69,-62 23.69,-81 122.69,-81 122.69,-62 23.69,-62"/>
<text text-anchor="middle" x="73.19" y="-69" font-family="Helvetica,sans-Serif" font-size="10.00">emlabcpp/view.h</text>
</a>
</g>
</g>
<!-- Node2&#45;&gt;Node30 -->
<g id="edge9" class="edge">
<title>Node2&#45;&gt;Node30</title>
<path fill="none" stroke="midnightblue" d="M276.11,-128.87C234.3,-117.25 159.86,-96.58 113.7,-83.75"/>
<polygon fill="midnightblue" stroke="midnightblue" points="114.59,-80.37 104.02,-81.06 112.71,-87.11 114.59,-80.37"/>
</g>
<!-- Node40 -->
<g id="node10" class="node">
<title>Node40</title>
<g id="a_node10"><a xlink:title=" ">
<polygon fill="white" stroke="#bfbfbf" points="558.69,-62 558.69,-81 605.69,-81 605.69,-62 558.69,-62"/>
<text text-anchor="middle" x="582.19" y="-69" font-family="Helvetica,sans-Serif" font-size="10.00">cmath</text>
</a>
</g>
</g>
<!-- Node2&#45;&gt;Node40 -->
<g id="edge11" class="edge">
<title>Node2&#45;&gt;Node40</title>
<path fill="none" stroke="midnightblue" d="M348.99,-128.96C411.93,-116.04 525.68,-92.47 544.19,-87 546.76,-86.24 549.41,-85.38 552.06,-84.48"/>
<polygon fill="midnightblue" stroke="midnightblue" points="553.27,-87.76 561.48,-81.07 550.88,-81.18 553.27,-87.76"/>
</g>
<!-- Node41 -->
<g id="node11" class="node">
<title>Node41</title>
<g id="a_node11"><a xlink:title=" ">
<polygon fill="white" stroke="#bfbfbf" points="140.69,-62 140.69,-81 189.69,-81 189.69,-62 140.69,-62"/>
<text text-anchor="middle" x="165.19" y="-69" font-family="Helvetica,sans-Serif" font-size="10.00">cstdlib</text>
</a>
</g>
</g>
<!-- Node2&#45;&gt;Node41 -->
<g id="edge12" class="edge">
<title>Node2&#45;&gt;Node41</title>
<path fill="none" stroke="midnightblue" d="M288.33,-128.87C264.03,-117.75 221.59,-98.32 193.43,-85.43"/>
<polygon fill="midnightblue" stroke="midnightblue" points="194.67,-82.15 184.12,-81.17 191.76,-88.51 194.67,-82.15"/>
</g>
<!-- Node3&#45;&gt;Node4 -->
<g id="edge3" class="edge">
<title>Node3&#45;&gt;Node4</title>
<path fill="none" stroke="midnightblue" d="M386.46,-57.93C383.32,-57.27 380.22,-56.62 377.19,-56 317.16,-43.66 248.17,-30.33 201.33,-21.41"/>
<polygon fill="midnightblue" stroke="midnightblue" points="201.87,-17.95 191.39,-19.52 200.56,-24.83 201.87,-17.95"/>
</g>
<!-- Node3&#45;&gt;Node10 -->
<g id="edge4" class="edge">
<title>Node3&#45;&gt;Node10</title>
<path fill="none" stroke="midnightblue" d="M464.57,-56.4C478.09,-47.04 495.8,-34.79 509.41,-25.38"/>
<polygon fill="midnightblue" stroke="midnightblue" points="511.44,-28.23 517.67,-19.66 507.46,-22.47 511.44,-28.23"/>
</g>
<!-- Node37 -->
<g id="node7" class="node">
<title>Node37</title>
<g id="a_node7"><a xlink:title=" ">
<polygon fill="white" stroke="#bfbfbf" points="891.19,-0.5 891.19,-19.5 947.19,-19.5 947.19,-0.5 891.19,-0.5"/>
<text text-anchor="middle" x="919.19" y="-7.5" font-family="Helvetica,sans-Serif" font-size="10.00">optional</text>
</a>
</g>
</g>
<!-- Node17&#45;&gt;Node37 -->
<g id="edge6" class="edge">
<title>Node17&#45;&gt;Node37</title>
<path fill="none" stroke="midnightblue" d="M782.97,-61.98C810.24,-51.77 856.1,-34.61 886.99,-23.05"/>
<polygon fill="midnightblue" stroke="midnightblue" points="888.31,-26.29 896.45,-19.51 885.86,-19.74 888.31,-26.29"/>
</g>
<!-- Node30&#45;&gt;Node4 -->
<g id="edge10" class="edge">
<title>Node30&#45;&gt;Node4</title>
<path fill="none" stroke="midnightblue" d="M83.65,-61.98C95.14,-52.61 113.82,-37.38 127.77,-26.01"/>
<polygon fill="midnightblue" stroke="midnightblue" points="130.21,-28.54 135.75,-19.51 125.78,-23.11 130.21,-28.54"/>
</g>
<!-- Node42&#45;&gt;Node4 -->
<g id="edge28" class="edge">
<title>Node42&#45;&gt;Node4</title>
<path fill="none" stroke="midnightblue" d="M592.5,-198.4C435.81,-196.45 76.89,-188.25 34.19,-154 -0.49,-126.19 -11.68,-92.15 14.19,-56 30.24,-33.56 58.15,-22.19 84.19,-16.47"/>
<polygon fill="midnightblue" stroke="midnightblue" points="84.9,-19.89 94.05,-14.54 83.56,-13.02 84.9,-19.89"/>
</g>
<!-- Node42&#45;&gt;Node37 -->
<g id="edge29" class="edge">
<title>Node42&#45;&gt;Node37</title>
<path fill="none" stroke="midnightblue" d="M737.69,-190.8C845.89,-178.5 1037.33,-156.44 1040.19,-154 1073.92,-125.18 1085.32,-91.85 1059.19,-56 1036.12,-24.35 990.43,-14.47 957.51,-11.64"/>
<polygon fill="midnightblue" stroke="midnightblue" points="957.53,-8.13 947.31,-10.95 957.05,-15.12 957.53,-8.13"/>
</g>
<!-- Node22 -->
<g id="node14" class="node">
<title>Node22</title>
<g id="a_node14"><a xlink:href="decompose_8h.html" target="_top" xlink:title=" ">
<polygon fill="white" stroke="red" points="521.69,-123.5 521.69,-153.5 654.69,-153.5 654.69,-123.5 521.69,-123.5"/>
<text text-anchor="start" x="529.69" y="-141.5" font-family="Helvetica,sans-Serif" font-size="10.00">emlabcpp/experimental</text>
<text text-anchor="middle" x="588.19" y="-130.5" font-family="Helvetica,sans-Serif" font-size="10.00">/decompose.h</text>
</a>
</g>
</g>
<!-- Node42&#45;&gt;Node22 -->
<g id="edge16" class="edge">
<title>Node42&#45;&gt;Node22</title>
<path fill="none" stroke="midnightblue" d="M654.15,-190.48C643.82,-182.49 627.99,-170.25 614.42,-159.77"/>
<polygon fill="midnightblue" stroke="midnightblue" points="616.39,-156.87 606.33,-153.52 612.11,-162.41 616.39,-156.87"/>
</g>
<!-- Node43 -->
<g id="node15" class="node">
<title>Node43</title>
<g id="a_node15"><a xlink:href="protocol_2base_8h.html" target="_top" xlink:title=" ">
<polygon fill="white" stroke="red" points="868.69,-129 868.69,-148 1011.69,-148 1011.69,-129 868.69,-129"/>
<text text-anchor="middle" x="940.19" y="-136" font-family="Helvetica,sans-Serif" font-size="10.00">emlabcpp/protocol/base.h</text>
</a>
</g>
</g>
<!-- Node42&#45;&gt;Node43 -->
<g id="edge18" class="edge">
<title>Node42&#45;&gt;Node43</title>
<path fill="none" stroke="midnightblue" d="M704.59,-190.48C753.7,-179.85 837.65,-161.68 890.95,-150.15"/>
<polygon fill="midnightblue" stroke="midnightblue" points="891.82,-153.54 900.86,-148.01 890.34,-146.7 891.82,-153.54"/>
</g>
<!-- Node44 -->
<g id="node16" class="node">
<title>Node44</title>
<g id="a_node16"><a xlink:href="protocol_2error_8h.html" target="_top" xlink:title=" ">
<polygon fill="white" stroke="red" points="838.19,-62 838.19,-81 980.19,-81 980.19,-62 838.19,-62"/>
<text text-anchor="middle" x="909.19" y="-69" font-family="Helvetica,sans-Serif" font-size="10.00">emlabcpp/protocol/error.h</text>
</a>
</g>
</g>
<!-- Node42&#45;&gt;Node44 -->
<g id="edge22" class="edge">
<title>Node42&#45;&gt;Node44</title>
<path fill="none" stroke="midnightblue" d="M716.73,-190.43C748.32,-183.68 788.79,-172.29 821.19,-154 837.27,-144.92 873.3,-109.31 893.92,-88.28"/>
<polygon fill="midnightblue" stroke="midnightblue" points="896.52,-90.63 901,-81.02 891.51,-85.74 896.52,-90.63"/>
</g>
<!-- Node15 -->
<g id="node17" class="node">
<title>Node15</title>
<g id="a_node17"><a xlink:title=" ">
<polygon fill="white" stroke="#bfbfbf" points="998.69,-62 998.69,-81 1049.69,-81 1049.69,-62 998.69,-62"/>
<text text-anchor="middle" x="1024.19" y="-69" font-family="Helvetica,sans-Serif" font-size="10.00">variant</text>
</a>
</g>
</g>
<!-- Node42&#45;&gt;Node15 -->
<g id="edge30" class="edge">
<title>Node42&#45;&gt;Node15</title>
<path fill="none" stroke="midnightblue" d="M737.72,-191.01C840.44,-179.54 1016.43,-159.2 1021.19,-154 1036.53,-137.22 1033.81,-109.43 1029.64,-91.04"/>
<polygon fill="midnightblue" stroke="midnightblue" points="1032.99,-90.01 1027.08,-81.21 1026.22,-91.77 1032.99,-90.01"/>
</g>
<!-- Node49 -->
<g id="node18" class="node">
<title>Node49</title>
<g id="a_node18"><a xlink:href="message_8h.html" target="_top" xlink:title=" ">
<polygon fill="white" stroke="red" points="43.19,-129 43.19,-148 207.19,-148 207.19,-129 43.19,-129"/>
<text text-anchor="middle" x="125.19" y="-136" font-family="Helvetica,sans-Serif" font-size="10.00">emlabcpp/protocol/message.h</text>
</a>
</g>
</g>
<!-- Node42&#45;&gt;Node49 -->
<g id="edge23" class="edge">
<title>Node42&#45;&gt;Node49</title>
<path fill="none" stroke="midnightblue" d="M592.63,-191.96C507.28,-183.54 361.32,-168.73 236.19,-154 223.93,-152.56 210.92,-150.94 198.28,-149.32"/>
<polygon fill="midnightblue" stroke="midnightblue" points="198.62,-145.83 188.25,-148.02 197.72,-152.77 198.62,-145.83"/>
</g>
<!-- Node50 -->
<g id="node19" class="node">
<title>Node50</title>
<g id="a_node19"><a xlink:href="quantity_8h.html" target="_top" xlink:title=" ">
<polygon fill="white" stroke="red" points="387.19,-129 387.19,-148 503.19,-148 503.19,-129 387.19,-129"/>
<text text-anchor="middle" x="445.19" y="-136" font-family="Helvetica,sans-Serif" font-size="10.00">emlabcpp/quantity.h</text>
</a>
</g>
</g>
<!-- Node42&#45;&gt;Node50 -->
<g id="edge25" class="edge">
<title>Node42&#45;&gt;Node50</title>
<path fill="none" stroke="midnightblue" d="M633.67,-190.48C594.95,-180 529.16,-162.21 486.45,-150.66"/>
<polygon fill="midnightblue" stroke="midnightblue" points="487.22,-147.24 476.65,-148.01 485.39,-154 487.22,-147.24"/>
</g>
<!-- Node53 -->
<g id="node20" class="node">
<title>Node53</title>
<g id="a_node20"><a xlink:href="static__vector_8h.html" target="_top" xlink:title=" ">
<polygon fill="white" stroke="red" points="672.69,-129 672.69,-148 811.69,-148 811.69,-129 672.69,-129"/>
<text text-anchor="middle" x="742.19" y="-136" font-family="Helvetica,sans-Serif" font-size="10.00">emlabcpp/static_vector.h</text>
</a>
</g>
</g>
<!-- Node42&#45;&gt;Node53 -->
<g id="edge27" class="edge">
<title>Node42&#45;&gt;Node53</title>
<path fill="none" stroke="midnightblue" d="M676.22,-190.48C688.45,-181.02 708.41,-165.6 723.18,-154.19"/>
<polygon fill="midnightblue" stroke="midnightblue" points="725.4,-156.89 731.17,-148.01 721.12,-151.35 725.4,-156.89"/>
</g>
<!-- Node22&#45;&gt;Node10 -->
<g id="edge17" class="edge">
<title>Node22&#45;&gt;Node10</title>
<path fill="none" stroke="midnightblue" d="M599.71,-123.44C612.06,-106.53 628.26,-77.71 615.19,-56 603.38,-36.39 579.84,-24.88 560.52,-18.41"/>
<polygon fill="midnightblue" stroke="midnightblue" points="561.47,-15.04 550.89,-15.48 559.43,-21.74 561.47,-15.04"/>
</g>
<!-- Node43&#45;&gt;Node17 -->
<g id="edge19" class="edge">
<title>Node43&#45;&gt;Node17</title>
<path fill="none" stroke="midnightblue" d="M916.28,-128.87C884.73,-117.47 829.01,-97.35 793.38,-84.49"/>
<polygon fill="midnightblue" stroke="midnightblue" points="794.5,-81.17 783.9,-81.06 792.12,-87.75 794.5,-81.17"/>
</g>
<!-- Node43&#45;&gt;Node44 -->
<g id="edge20" class="edge">
<title>Node43&#45;&gt;Node44</title>
<path fill="none" stroke="midnightblue" d="M936.01,-128.73C931.31,-118.89 923.57,-102.66 917.61,-90.16"/>
<polygon fill="midnightblue" stroke="midnightblue" points="920.76,-88.65 913.3,-81.13 914.45,-91.66 920.76,-88.65"/>
</g>
<!-- Node43&#45;&gt;Node15 -->
<g id="edge21" class="edge">
<title>Node43&#45;&gt;Node15</title>
<path fill="none" stroke="midnightblue" d="M951.51,-128.73C965.24,-118.11 988.59,-100.05 1005.11,-87.26"/>
<polygon fill="midnightblue" stroke="midnightblue" points="1007.27,-90.02 1013.04,-81.13 1002.99,-84.48 1007.27,-90.02"/>
</g>
<!-- Node49&#45;&gt;Node30 -->
<g id="edge24" class="edge">
<title>Node49&#45;&gt;Node30</title>
<path fill="none" stroke="midnightblue" d="M118.17,-128.73C110.06,-118.6 96.54,-101.69 86.43,-89.06"/>
<polygon fill="midnightblue" stroke="midnightblue" points="89.07,-86.75 80.09,-81.13 83.6,-91.12 89.07,-86.75"/>
</g>
<!-- Node50&#45;&gt;Node40 -->
<g id="edge26" class="edge">
<title>Node50&#45;&gt;Node40</title>
<path fill="none" stroke="midnightblue" d="M463.38,-128.87C486.72,-117.8 527.42,-98.49 554.58,-85.6"/>
<polygon fill="midnightblue" stroke="midnightblue" points="556.38,-88.62 563.92,-81.17 553.38,-82.29 556.38,-88.62"/>
</g>
</g>
</svg>
