<?xml version="1.0" encoding="UTF-8" standalone="no"?>
<!DOCTYPE svg PUBLIC "-//W3C//DTD SVG 1.1//EN"
 "http://www.w3.org/Graphics/SVG/1.1/DTD/svg11.dtd">
<!-- Generated by graphviz version 2.43.0 (0)
 -->
<!-- Title: include/emlabcpp/protocol/base.h Pages: 1 -->
<svg width="770pt" height="218pt"
 viewBox="0.00 0.00 770.00 218.00" xmlns="http://www.w3.org/2000/svg" xmlns:xlink="http://www.w3.org/1999/xlink">
<g id="graph0" class="graph" transform="scale(1 1) rotate(0) translate(4 214)">
<title>include/emlabcpp/protocol/base.h</title>
<polygon fill="white" stroke="transparent" points="-4,4 -4,-214 766,-214 766,4 -4,4"/>
<!-- Node1 -->
<g id="node1" class="node">
<title>Node1</title>
<g id="a_node1"><a xlink:title=" ">
<polygon fill="#bfbfbf" stroke="black" points="438,-179.5 438,-209.5 584,-209.5 584,-179.5 438,-179.5"/>
<text text-anchor="start" x="446" y="-197.5" font-family="Helvetica,sans-Serif" font-size="10.00">include/emlabcpp/protocol</text>
<text text-anchor="middle" x="511" y="-186.5" font-family="Helvetica,sans-Serif" font-size="10.00">/base.h</text>
</a>
</g>
</g>
<!-- Node2 -->
<g id="node2" class="node">
<title>Node2</title>
<g id="a_node2"><a xlink:href="bounded_8h.html" target="_top" xlink:title=" ">
<polygon fill="white" stroke="black" points="258.5,-123.5 258.5,-142.5 377.5,-142.5 377.5,-123.5 258.5,-123.5"/>
<text text-anchor="middle" x="318" y="-130.5" font-family="Helvetica,sans-Serif" font-size="10.00">emlabcpp/bounded.h</text>
</a>
</g>
</g>
<!-- Node1&#45;&gt;Node2 -->
<g id="edge1" class="edge">
<title>Node1&#45;&gt;Node2</title>
<path fill="none" stroke="midnightblue" d="M465.26,-179.4C431.77,-169.07 386.87,-155.23 355.48,-145.56"/>
<polygon fill="midnightblue" stroke="midnightblue" points="356.39,-142.17 345.8,-142.57 354.33,-148.86 356.39,-142.17"/>
</g>
<!-- Node13 -->
<g id="node4" class="node">
<title>Node13</title>
<g id="a_node4"><a xlink:title=" ">
<polygon fill="white" stroke="#bfbfbf" points="235.5,-0.5 235.5,-19.5 286.5,-19.5 286.5,-0.5 235.5,-0.5"/>
<text text-anchor="middle" x="261" y="-7.5" font-family="Helvetica,sans-Serif" font-size="10.00">variant</text>
</a>
</g>
</g>
<!-- Node1&#45;&gt;Node13 -->
<g id="edge13" class="edge">
<title>Node1&#45;&gt;Node13</title>
<path fill="none" stroke="midnightblue" d="M501.89,-179.16C495.69,-169.19 487.48,-155.49 481,-143 461.48,-105.39 474.5,-83.19 442,-56 400.62,-21.39 336.43,-12.77 296.66,-10.97"/>
<polygon fill="midnightblue" stroke="midnightblue" points="296.72,-7.47 286.61,-10.64 296.49,-14.46 296.72,-7.47"/>
</g>
<!-- Node9 -->
<g id="node7" class="node">
<title>Node9</title>
<g id="a_node7"><a xlink:title=" ">
<polygon fill="white" stroke="#bfbfbf" points="364.5,-62 364.5,-81 433.5,-81 433.5,-62 364.5,-62"/>
<text text-anchor="middle" x="399" y="-69" font-family="Helvetica,sans-Serif" font-size="10.00">type_traits</text>
</a>
</g>
</g>
<!-- Node1&#45;&gt;Node9 -->
<g id="edge12" class="edge">
<title>Node1&#45;&gt;Node9</title>
<path fill="none" stroke="midnightblue" d="M490.45,-179.38C477.48,-169.92 460.82,-156.73 448,-143 432.64,-126.56 418.36,-105 409.23,-90.07"/>
<polygon fill="midnightblue" stroke="midnightblue" points="412.14,-88.12 404.01,-81.34 406.13,-91.72 412.14,-88.12"/>
</g>
<!-- Node16 -->
<g id="node8" class="node">
<title>Node16</title>
<g id="a_node8"><a xlink:href="protocol_2error_8h.html" target="_top" xlink:title=" ">
<polygon fill="white" stroke="black" points="490,-123.5 490,-142.5 632,-142.5 632,-123.5 490,-123.5"/>
<text text-anchor="middle" x="561" y="-130.5" font-family="Helvetica,sans-Serif" font-size="10.00">emlabcpp/protocol/error.h</text>
</a>
</g>
</g>
<!-- Node1&#45;&gt;Node16 -->
<g id="edge7" class="edge">
<title>Node1&#45;&gt;Node16</title>
<path fill="none" stroke="midnightblue" d="M522.85,-179.4C530.11,-170.75 539.45,-159.64 547.07,-150.58"/>
<polygon fill="midnightblue" stroke="midnightblue" points="549.97,-152.57 553.72,-142.66 544.61,-148.06 549.97,-152.57"/>
</g>
<!-- Node18 -->
<g id="node11" class="node">
<title>Node18</title>
<g id="a_node11"><a xlink:title=" ">
<polygon fill="white" stroke="#bfbfbf" points="650,-123.5 650,-142.5 694,-142.5 694,-123.5 650,-123.5"/>
<text text-anchor="middle" x="672" y="-130.5" font-family="Helvetica,sans-Serif" font-size="10.00">bitset</text>
</a>
</g>
</g>
<!-- Node1&#45;&gt;Node18 -->
<g id="edge10" class="edge">
<title>Node1&#45;&gt;Node18</title>
<path fill="none" stroke="midnightblue" d="M549.15,-179.4C577.02,-169.1 614.36,-155.3 640.53,-145.63"/>
<polygon fill="midnightblue" stroke="midnightblue" points="641.8,-148.89 649.97,-142.14 639.38,-142.33 641.8,-148.89"/>
</g>
<!-- Node19 -->
<g id="node12" class="node">
<title>Node19</title>
<g id="a_node12"><a xlink:title=" ">
<polygon fill="white" stroke="#bfbfbf" points="712,-123.5 712,-142.5 762,-142.5 762,-123.5 712,-123.5"/>
<text text-anchor="middle" x="737" y="-130.5" font-family="Helvetica,sans-Serif" font-size="10.00">cstring</text>
</a>
</g>
</g>
<!-- Node1&#45;&gt;Node19 -->
<g id="edge11" class="edge">
<title>Node1&#45;&gt;Node19</title>
<path fill="none" stroke="midnightblue" d="M564.39,-179.48C600.66,-169.95 649.99,-156.98 702.01,-143.26"/>
<polygon fill="midnightblue" stroke="midnightblue" points="702.97,-146.62 711.75,-140.69 701.19,-139.86 702.97,-146.62"/>
</g>
<!-- Node3 -->
<g id="node3" class="node">
<title>Node3</title>
<g id="a_node3"><a xlink:href="concepts_8h.html" target="_top" xlink:title=" ">
<polygon fill="white" stroke="red" points="0,-62 0,-81 120,-81 120,-62 0,-62"/>
<text text-anchor="middle" x="60" y="-69" font-family="Helvetica,sans-Serif" font-size="10.00">emlabcpp/concepts.h</text>
</a>
</g>
</g>
<!-- Node2&#45;&gt;Node3 -->
<g id="edge2" class="edge">
<title>Node2&#45;&gt;Node3</title>
<path fill="none" stroke="midnightblue" d="M281.03,-123.48C235.15,-112.89 156.85,-94.84 106.82,-83.3"/>
<polygon fill="midnightblue" stroke="midnightblue" points="107.43,-79.85 96.9,-81.01 105.85,-86.67 107.43,-79.85"/>
</g>
<!-- Node14 -->
<g id="node5" class="node">
<title>Node14</title>
<g id="a_node5"><a xlink:href="logging_8h.html" target="_top" xlink:title=" ">
<polygon fill="white" stroke="black" points="138.5,-56.5 138.5,-86.5 271.5,-86.5 271.5,-56.5 138.5,-56.5"/>
<text text-anchor="start" x="146.5" y="-74.5" font-family="Helvetica,sans-Serif" font-size="10.00">emlabcpp/experimental</text>
<text text-anchor="middle" x="205" y="-63.5" font-family="Helvetica,sans-Serif" font-size="10.00">/logging.h</text>
</a>
</g>
</g>
<!-- Node2&#45;&gt;Node14 -->
<g id="edge4" class="edge">
<title>Node2&#45;&gt;Node14</title>
<path fill="none" stroke="midnightblue" d="M301.81,-123.48C285.93,-115.12 261.2,-102.09 240.7,-91.3"/>
<polygon fill="midnightblue" stroke="midnightblue" points="242.11,-88.09 231.63,-86.52 238.85,-94.28 242.11,-88.09"/>
</g>
<!-- Node15 -->
<g id="node6" class="node">
<title>Node15</title>
<g id="a_node6"><a xlink:title=" ">
<polygon fill="white" stroke="#bfbfbf" points="290,-62 290,-81 346,-81 346,-62 290,-62"/>
<text text-anchor="middle" x="318" y="-69" font-family="Helvetica,sans-Serif" font-size="10.00">optional</text>
</a>
</g>
</g>
<!-- Node2&#45;&gt;Node15 -->
<g id="edge5" class="edge">
<title>Node2&#45;&gt;Node15</title>
<path fill="none" stroke="midnightblue" d="M318,-123.48C318,-115.08 318,-101.98 318,-91.16"/>
<polygon fill="midnightblue" stroke="midnightblue" points="321.5,-91.01 318,-81.01 314.5,-91.01 321.5,-91.01"/>
</g>
<!-- Node2&#45;&gt;Node9 -->
<g id="edge6" class="edge">
<title>Node2&#45;&gt;Node9</title>
<path fill="none" stroke="midnightblue" d="M329.61,-123.48C342.48,-114.02 363.47,-98.6 379.01,-87.19"/>
<polygon fill="midnightblue" stroke="midnightblue" points="381.43,-89.75 387.42,-81.01 377.28,-84.11 381.43,-89.75"/>
</g>
<!-- Node3&#45;&gt;Node13 -->
<g id="edge3" class="edge">
<title>Node3&#45;&gt;Node13</title>
<path fill="none" stroke="midnightblue" d="M88.8,-61.98C124.87,-51.3 186.66,-33.01 225.58,-21.48"/>
<polygon fill="midnightblue" stroke="midnightblue" points="226.84,-24.76 235.44,-18.57 224.86,-18.05 226.84,-24.76"/>
</g>
<!-- Node17 -->
<g id="node9" class="node">
<title>Node17</title>
<g id="a_node9"><a xlink:title=" ">
<polygon fill="white" stroke="#bfbfbf" points="510,-62 510,-81 574,-81 574,-62 510,-62"/>
<text text-anchor="middle" x="542" y="-69" font-family="Helvetica,sans-Serif" font-size="10.00">algorithm</text>
</a>
</g>
</g>
<!-- Node16&#45;&gt;Node17 -->
<g id="edge8" class="edge">
<title>Node16&#45;&gt;Node17</title>
<path fill="none" stroke="midnightblue" d="M558.28,-123.48C555.57,-114.99 551.33,-101.7 547.85,-90.82"/>
<polygon fill="midnightblue" stroke="midnightblue" points="551.09,-89.47 544.72,-81.01 544.43,-91.6 551.09,-89.47"/>
</g>
<!-- Node5 -->
<g id="node10" class="node">
<title>Node5</title>
<g id="a_node10"><a xlink:title=" ">
<polygon fill="white" stroke="#bfbfbf" points="592,-62 592,-81 634,-81 634,-62 592,-62"/>
<text text-anchor="middle" x="613" y="-69" font-family="Helvetica,sans-Serif" font-size="10.00">array</text>
</a>
</g>
</g>
<!-- Node16&#45;&gt;Node5 -->
<g id="edge9" class="edge">
<title>Node16&#45;&gt;Node5</title>
<path fill="none" stroke="midnightblue" d="M568.45,-123.48C576.33,-114.46 588.94,-100.02 598.74,-88.81"/>
<polygon fill="midnightblue" stroke="midnightblue" points="601.62,-90.84 605.56,-81.01 596.35,-86.24 601.62,-90.84"/>
</g>
</g>
</svg>
