<?xml version="1.0" encoding="UTF-8" standalone="no"?>
<!DOCTYPE svg PUBLIC "-//W3C//DTD SVG 1.1//EN"
 "http://www.w3.org/Graphics/SVG/1.1/DTD/svg11.dtd">
<!-- Generated by graphviz version 2.43.0 (0)
 -->
<!-- Title: include/emlabcpp/protocol/base.h Pages: 1 -->
<svg width="650pt" height="263pt"
 viewBox="0.00 0.00 649.50 263.00" xmlns="http://www.w3.org/2000/svg" xmlns:xlink="http://www.w3.org/1999/xlink">
<g id="graph0" class="graph" transform="scale(1 1) rotate(0) translate(4 259)">
<title>include/emlabcpp/protocol/base.h</title>
<polygon fill="white" stroke="transparent" points="-4,4 -4,-259 645.5,-259 645.5,4 -4,4"/>
<!-- Node1 -->
<g id="node1" class="node">
<title>Node1</title>
<g id="a_node1"><a xlink:title=" ">
<polygon fill="#bfbfbf" stroke="black" points="384,-224.5 384,-254.5 530,-254.5 530,-224.5 384,-224.5"/>
<text text-anchor="start" x="392" y="-242.5" font-family="Helvetica,sans-Serif" font-size="10.00">include/emlabcpp/protocol</text>
<text text-anchor="middle" x="457" y="-231.5" font-family="Helvetica,sans-Serif" font-size="10.00">/base.h</text>
</a>
</g>
</g>
<!-- Node2 -->
<g id="node2" class="node">
<title>Node2</title>
<g id="a_node2"><a xlink:href="bounded_8h.html" target="_top" xlink:title=" ">
<polygon fill="white" stroke="black" points="272.5,-168.5 272.5,-187.5 391.5,-187.5 391.5,-168.5 272.5,-168.5"/>
<text text-anchor="middle" x="332" y="-175.5" font-family="Helvetica,sans-Serif" font-size="10.00">emlabcpp/bounded.h</text>
</a>
</g>
</g>
<!-- Node1&#45;&gt;Node2 -->
<g id="edge1" class="edge">
<title>Node1&#45;&gt;Node2</title>
<path fill="none" stroke="midnightblue" d="M427.38,-224.4C406.78,-214.59 379.52,-201.62 359.42,-192.05"/>
<polygon fill="midnightblue" stroke="midnightblue" points="360.72,-188.8 350.19,-187.66 357.71,-195.12 360.72,-188.8"/>
</g>
<!-- Node9 -->
<g id="node9" class="node">
<title>Node9</title>
<g id="a_node9"><a xlink:title=" ">
<polygon fill="white" stroke="#bfbfbf" points="321.5,-0.5 321.5,-19.5 390.5,-19.5 390.5,-0.5 321.5,-0.5"/>
<text text-anchor="middle" x="356" y="-7.5" font-family="Helvetica,sans-Serif" font-size="10.00">type_traits</text>
</a>
</g>
</g>
<!-- Node1&#45;&gt;Node9 -->
<g id="edge18" class="edge">
<title>Node1&#45;&gt;Node9</title>
<path fill="none" stroke="midnightblue" d="M452.92,-224.14C445.96,-200.33 430.8,-151.41 413,-112 399.18,-81.41 379.19,-47.83 366.92,-28.12"/>
<polygon fill="midnightblue" stroke="midnightblue" points="369.87,-26.24 361.58,-19.64 363.95,-29.97 369.87,-26.24"/>
</g>
<!-- Node13 -->
<g id="node13" class="node">
<title>Node13</title>
<g id="a_node13"><a xlink:href="protocol_2error_8h.html" target="_top" xlink:title=" ">
<polygon fill="white" stroke="black" points="40,-168.5 40,-187.5 182,-187.5 182,-168.5 40,-168.5"/>
<text text-anchor="middle" x="111" y="-175.5" font-family="Helvetica,sans-Serif" font-size="10.00">emlabcpp/protocol/error.h</text>
</a>
</g>
</g>
<!-- Node1&#45;&gt;Node13 -->
<g id="edge13" class="edge">
<title>Node1&#45;&gt;Node13</title>
<path fill="none" stroke="midnightblue" d="M383.62,-225.88C320.15,-214.97 229.53,-199.38 170.49,-189.23"/>
<polygon fill="midnightblue" stroke="midnightblue" points="171.02,-185.77 160.57,-187.52 169.83,-192.67 171.02,-185.77"/>
</g>
<!-- Node15 -->
<g id="node15" class="node">
<title>Node15</title>
<g id="a_node15"><a xlink:title=" ">
<polygon fill="white" stroke="#bfbfbf" points="460,-168.5 460,-187.5 504,-187.5 504,-168.5 460,-168.5"/>
<text text-anchor="middle" x="482" y="-175.5" font-family="Helvetica,sans-Serif" font-size="10.00">bitset</text>
</a>
</g>
</g>
<!-- Node1&#45;&gt;Node15 -->
<g id="edge16" class="edge">
<title>Node1&#45;&gt;Node15</title>
<path fill="none" stroke="midnightblue" d="M462.92,-224.4C466.37,-216.2 470.75,-205.78 474.44,-196.99"/>
<polygon fill="midnightblue" stroke="midnightblue" points="477.72,-198.23 478.36,-187.66 471.26,-195.52 477.72,-198.23"/>
</g>
<!-- Node16 -->
<g id="node16" class="node">
<title>Node16</title>
<g id="a_node16"><a xlink:title=" ">
<polygon fill="white" stroke="#bfbfbf" points="522,-168.5 522,-187.5 572,-187.5 572,-168.5 522,-168.5"/>
<text text-anchor="middle" x="547" y="-175.5" font-family="Helvetica,sans-Serif" font-size="10.00">cstring</text>
</a>
</g>
</g>
<!-- Node1&#45;&gt;Node16 -->
<g id="edge17" class="edge">
<title>Node1&#45;&gt;Node16</title>
<path fill="none" stroke="midnightblue" d="M478.33,-224.4C492.49,-215.04 511.01,-202.79 525.25,-193.38"/>
<polygon fill="midnightblue" stroke="midnightblue" points="527.49,-196.09 533.9,-187.66 523.63,-190.25 527.49,-196.09"/>
</g>
<!-- Node17 -->
<g id="node17" class="node">
<title>Node17</title>
<g id="a_node17"><a xlink:title=" ">
<polygon fill="white" stroke="#bfbfbf" points="590.5,-168.5 590.5,-187.5 641.5,-187.5 641.5,-168.5 590.5,-168.5"/>
<text text-anchor="middle" x="616" y="-175.5" font-family="Helvetica,sans-Serif" font-size="10.00">variant</text>
</a>
</g>
</g>
<!-- Node1&#45;&gt;Node17 -->
<g id="edge19" class="edge">
<title>Node1&#45;&gt;Node17</title>
<path fill="none" stroke="midnightblue" d="M494.68,-224.4C521.6,-214.33 557.45,-200.91 583.19,-191.28"/>
<polygon fill="midnightblue" stroke="midnightblue" points="584.73,-194.44 592.86,-187.66 582.27,-187.88 584.73,-194.44"/>
</g>
<!-- Node3 -->
<g id="node3" class="node">
<title>Node3</title>
<g id="a_node3"><a xlink:href="concepts_8h.html" target="_top" xlink:title=" ">
<polygon fill="white" stroke="black" points="172,-112.5 172,-131.5 292,-131.5 292,-112.5 172,-112.5"/>
<text text-anchor="middle" x="232" y="-119.5" font-family="Helvetica,sans-Serif" font-size="10.00">emlabcpp/concepts.h</text>
</a>
</g>
</g>
<!-- Node2&#45;&gt;Node3 -->
<g id="edge2" class="edge">
<title>Node2&#45;&gt;Node3</title>
<path fill="none" stroke="midnightblue" d="M315.93,-168.32C300.04,-159.74 275.49,-146.49 257.04,-136.52"/>
<polygon fill="midnightblue" stroke="midnightblue" points="258.49,-133.33 248.03,-131.65 255.16,-139.49 258.49,-133.33"/>
</g>
<!-- Node2&#45;&gt;Node9 -->
<g id="edge12" class="edge">
<title>Node2&#45;&gt;Node9</title>
<path fill="none" stroke="midnightblue" d="M332.79,-168.15C333.93,-155.62 336.24,-132.01 339,-112 342.98,-83.15 348.82,-49.88 352.52,-29.65"/>
<polygon fill="midnightblue" stroke="midnightblue" points="356,-30.09 354.37,-19.62 349.11,-28.82 356,-30.09"/>
</g>
<!-- Node12 -->
<g id="node12" class="node">
<title>Node12</title>
<g id="a_node12"><a xlink:title=" ">
<polygon fill="white" stroke="#bfbfbf" points="348,-112.5 348,-131.5 404,-131.5 404,-112.5 348,-112.5"/>
<text text-anchor="middle" x="376" y="-119.5" font-family="Helvetica,sans-Serif" font-size="10.00">optional</text>
</a>
</g>
</g>
<!-- Node2&#45;&gt;Node12 -->
<g id="edge11" class="edge">
<title>Node2&#45;&gt;Node12</title>
<path fill="none" stroke="midnightblue" d="M339.27,-168.08C345.54,-160.38 354.79,-149.03 362.43,-139.65"/>
<polygon fill="midnightblue" stroke="midnightblue" points="365.27,-141.71 368.87,-131.75 359.84,-137.29 365.27,-141.71"/>
</g>
<!-- Node4 -->
<g id="node4" class="node">
<title>Node4</title>
<g id="a_node4"><a xlink:href="types_2base_8h.html" target="_top" xlink:title=" ">
<polygon fill="white" stroke="black" points="84,-56.5 84,-75.5 214,-75.5 214,-56.5 84,-56.5"/>
<text text-anchor="middle" x="149" y="-63.5" font-family="Helvetica,sans-Serif" font-size="10.00">emlabcpp/types/base.h</text>
</a>
</g>
</g>
<!-- Node3&#45;&gt;Node4 -->
<g id="edge3" class="edge">
<title>Node3&#45;&gt;Node4</title>
<path fill="none" stroke="midnightblue" d="M218.66,-112.32C205.84,-103.98 186.22,-91.21 171.06,-81.35"/>
<polygon fill="midnightblue" stroke="midnightblue" points="172.59,-78.17 162.3,-75.65 168.78,-84.04 172.59,-78.17"/>
</g>
<!-- Node11 -->
<g id="node11" class="node">
<title>Node11</title>
<g id="a_node11"><a xlink:title=" ">
<polygon fill="white" stroke="#bfbfbf" points="232,-56.5 232,-75.5 292,-75.5 292,-56.5 232,-56.5"/>
<text text-anchor="middle" x="262" y="-63.5" font-family="Helvetica,sans-Serif" font-size="10.00">concepts</text>
</a>
</g>
</g>
<!-- Node3&#45;&gt;Node11 -->
<g id="edge10" class="edge">
<title>Node3&#45;&gt;Node11</title>
<path fill="none" stroke="midnightblue" d="M236.95,-112.08C241.1,-104.61 247.15,-93.72 252.27,-84.52"/>
<polygon fill="midnightblue" stroke="midnightblue" points="255.34,-86.19 257.14,-75.75 249.22,-82.79 255.34,-86.19"/>
</g>
<!-- Node5 -->
<g id="node5" class="node">
<title>Node5</title>
<g id="a_node5"><a xlink:title=" ">
<polygon fill="white" stroke="#bfbfbf" points="0,-0.5 0,-19.5 42,-19.5 42,-0.5 0,-0.5"/>
<text text-anchor="middle" x="21" y="-7.5" font-family="Helvetica,sans-Serif" font-size="10.00">array</text>
</a>
</g>
</g>
<!-- Node4&#45;&gt;Node5 -->
<g id="edge4" class="edge">
<title>Node4&#45;&gt;Node5</title>
<path fill="none" stroke="midnightblue" d="M128.72,-56.44C107.65,-47.56 74.48,-33.56 50.51,-23.45"/>
<polygon fill="midnightblue" stroke="midnightblue" points="51.76,-20.18 41.19,-19.52 49.04,-26.63 51.76,-20.18"/>
</g>
<!-- Node6 -->
<g id="node6" class="node">
<title>Node6</title>
<g id="a_node6"><a xlink:title=" ">
<polygon fill="white" stroke="#bfbfbf" points="253,-0.5 253,-19.5 303,-19.5 303,-0.5 253,-0.5"/>
<text text-anchor="middle" x="278" y="-7.5" font-family="Helvetica,sans-Serif" font-size="10.00">cstdint</text>
</a>
</g>
</g>
<!-- Node4&#45;&gt;Node6 -->
<g id="edge5" class="edge">
<title>Node4&#45;&gt;Node6</title>
<path fill="none" stroke="midnightblue" d="M169.44,-56.44C190.67,-47.56 224.1,-33.56 248.25,-23.45"/>
<polygon fill="midnightblue" stroke="midnightblue" points="249.78,-26.61 257.66,-19.52 247.08,-20.15 249.78,-26.61"/>
</g>
<!-- Node7 -->
<g id="node7" class="node">
<title>Node7</title>
<g id="a_node7"><a xlink:title=" ">
<polygon fill="white" stroke="#bfbfbf" points="60,-0.5 60,-19.5 110,-19.5 110,-0.5 60,-0.5"/>
<text text-anchor="middle" x="85" y="-7.5" font-family="Helvetica,sans-Serif" font-size="10.00">ranges</text>
</a>
</g>
</g>
<!-- Node4&#45;&gt;Node7 -->
<g id="edge6" class="edge">
<title>Node4&#45;&gt;Node7</title>
<path fill="none" stroke="midnightblue" d="M138.72,-56.32C129.16,-48.26 114.72,-36.08 103.22,-26.37"/>
<polygon fill="midnightblue" stroke="midnightblue" points="105.37,-23.61 95.47,-19.83 100.86,-28.96 105.37,-23.61"/>
</g>
<!-- Node8 -->
<g id="node8" class="node">
<title>Node8</title>
<g id="a_node8"><a xlink:title=" ">
<polygon fill="white" stroke="#bfbfbf" points="128.5,-0.5 128.5,-19.5 169.5,-19.5 169.5,-0.5 128.5,-0.5"/>
<text text-anchor="middle" x="149" y="-7.5" font-family="Helvetica,sans-Serif" font-size="10.00">tuple</text>
</a>
</g>
</g>
<!-- Node4&#45;&gt;Node8 -->
<g id="edge7" class="edge">
<title>Node4&#45;&gt;Node8</title>
<path fill="none" stroke="midnightblue" d="M149,-56.08C149,-49.01 149,-38.86 149,-29.99"/>
<polygon fill="midnightblue" stroke="midnightblue" points="152.5,-29.75 149,-19.75 145.5,-29.75 152.5,-29.75"/>
</g>
<!-- Node4&#45;&gt;Node9 -->
<g id="edge8" class="edge">
<title>Node4&#45;&gt;Node9</title>
<path fill="none" stroke="midnightblue" d="M181.8,-56.44C217.38,-47.16 274.31,-32.31 313.35,-22.13"/>
<polygon fill="midnightblue" stroke="midnightblue" points="314.56,-25.43 323.35,-19.52 312.79,-18.65 314.56,-25.43"/>
</g>
<!-- Node10 -->
<g id="node10" class="node">
<title>Node10</title>
<g id="a_node10"><a xlink:title=" ">
<polygon fill="white" stroke="#bfbfbf" points="187.5,-0.5 187.5,-19.5 234.5,-19.5 234.5,-0.5 187.5,-0.5"/>
<text text-anchor="middle" x="211" y="-7.5" font-family="Helvetica,sans-Serif" font-size="10.00">vector</text>
</a>
</g>
</g>
<!-- Node4&#45;&gt;Node10 -->
<g id="edge9" class="edge">
<title>Node4&#45;&gt;Node10</title>
<path fill="none" stroke="midnightblue" d="M158.96,-56.32C168.13,-48.34 181.94,-36.31 193.03,-26.65"/>
<polygon fill="midnightblue" stroke="midnightblue" points="195.62,-29.04 200.86,-19.83 191.02,-23.76 195.62,-29.04"/>
</g>
<!-- Node13&#45;&gt;Node5 -->
<g id="edge15" class="edge">
<title>Node13&#45;&gt;Node5</title>
<path fill="none" stroke="midnightblue" d="M101.49,-168.48C92.43,-159.96 78.9,-146.13 70,-132 48.85,-98.4 33.7,-54.13 26.24,-29.52"/>
<polygon fill="midnightblue" stroke="midnightblue" points="29.54,-28.32 23.37,-19.71 22.82,-30.29 29.54,-28.32"/>
</g>
<!-- Node14 -->
<g id="node14" class="node">
<title>Node14</title>
<g id="a_node14"><a xlink:title=" ">
<polygon fill="white" stroke="#bfbfbf" points="79,-112.5 79,-131.5 143,-131.5 143,-112.5 79,-112.5"/>
<text text-anchor="middle" x="111" y="-119.5" font-family="Helvetica,sans-Serif" font-size="10.00">algorithm</text>
</a>
</g>
</g>
<!-- Node13&#45;&gt;Node14 -->
<g id="edge14" class="edge">
<title>Node13&#45;&gt;Node14</title>
<path fill="none" stroke="midnightblue" d="M111,-168.08C111,-161.01 111,-150.86 111,-141.99"/>
<polygon fill="midnightblue" stroke="midnightblue" points="114.5,-141.75 111,-131.75 107.5,-141.75 114.5,-141.75"/>
</g>
</g>
</svg>
