<?xml version="1.0" encoding="UTF-8" standalone="no"?>
<!DOCTYPE svg PUBLIC "-//W3C//DTD SVG 1.1//EN"
 "http://www.w3.org/Graphics/SVG/1.1/DTD/svg11.dtd">
<!-- Generated by graphviz version 2.43.0 (0)
 -->
<!-- Title: include/emlabcpp/protocol/error.h Pages: 1 -->
<svg width="352pt" height="173pt"
 viewBox="0.00 0.00 352.00 173.00" xmlns="http://www.w3.org/2000/svg" xmlns:xlink="http://www.w3.org/1999/xlink">
<g id="graph0" class="graph" transform="scale(1 1) rotate(0) translate(4 169)">
<title>include/emlabcpp/protocol/error.h</title>
<polygon fill="white" stroke="transparent" points="-4,4 -4,-169 348,-169 348,4 -4,4"/>
<!-- Node1 -->
<g id="node1" class="node">
<title>Node1</title>
<g id="a_node1"><a xlink:title=" ">
<polygon fill="#bfbfbf" stroke="black" points="96,-134.5 96,-164.5 242,-164.5 242,-134.5 96,-134.5"/>
<text text-anchor="start" x="104" y="-152.5" font-family="Helvetica,sans-Serif" font-size="10.00">include/emlabcpp/protocol</text>
<text text-anchor="middle" x="169" y="-141.5" font-family="Helvetica,sans-Serif" font-size="10.00">/error.h</text>
</a>
</g>
</g>
<!-- Node2 -->
<g id="node2" class="node">
<title>Node2</title>
<g id="a_node2"><a xlink:href="string__buffer_8h.html" target="_top" xlink:title=" ">
<polygon fill="white" stroke="black" points="102.5,-67.5 102.5,-97.5 235.5,-97.5 235.5,-67.5 102.5,-67.5"/>
<text text-anchor="start" x="110.5" y="-85.5" font-family="Helvetica,sans-Serif" font-size="10.00">emlabcpp/experimental</text>
<text text-anchor="middle" x="169" y="-74.5" font-family="Helvetica,sans-Serif" font-size="10.00">/string_buffer.h</text>
</a>
</g>
</g>
<!-- Node1&#45;&gt;Node2 -->
<g id="edge1" class="edge">
<title>Node1&#45;&gt;Node2</title>
<path fill="none" stroke="midnightblue" d="M169,-134.4C169,-126.64 169,-116.81 169,-107.86"/>
<polygon fill="midnightblue" stroke="midnightblue" points="172.5,-107.58 169,-97.58 165.5,-107.58 172.5,-107.58"/>
</g>
<!-- Node36 -->
<g id="node4" class="node">
<title>Node36</title>
<g id="a_node4"><a xlink:title=" ">
<polygon fill="white" stroke="#bfbfbf" points="0,-6 0,-25 64,-25 64,-6 0,-6"/>
<text text-anchor="middle" x="32" y="-13" font-family="Helvetica,sans-Serif" font-size="10.00">algorithm</text>
</a>
</g>
</g>
<!-- Node1&#45;&gt;Node36 -->
<g id="edge6" class="edge">
<title>Node1&#45;&gt;Node36</title>
<path fill="none" stroke="midnightblue" d="M143.12,-134.34C127.63,-125.15 108.08,-112.26 93,-98 72.3,-78.43 53.49,-51.2 42.39,-33.71"/>
<polygon fill="midnightblue" stroke="midnightblue" points="45.3,-31.76 37.06,-25.11 39.35,-35.45 45.3,-31.76"/>
</g>
<!-- Node6 -->
<g id="node5" class="node">
<title>Node6</title>
<g id="a_node5"><a xlink:title=" ">
<polygon fill="white" stroke="#bfbfbf" points="302,-6 302,-25 344,-25 344,-6 302,-6"/>
<text text-anchor="middle" x="323" y="-13" font-family="Helvetica,sans-Serif" font-size="10.00">array</text>
</a>
</g>
</g>
<!-- Node1&#45;&gt;Node6 -->
<g id="edge7" class="edge">
<title>Node1&#45;&gt;Node6</title>
<path fill="none" stroke="midnightblue" d="M193.24,-134.31C208.66,-124.82 228.72,-111.63 245,-98 269.3,-77.66 294.04,-50.48 308.96,-33.22"/>
<polygon fill="midnightblue" stroke="midnightblue" points="311.98,-35.07 315.81,-25.2 306.66,-30.53 311.98,-35.07"/>
</g>
<!-- Node3 -->
<g id="node3" class="node">
<title>Node3</title>
<g id="a_node3"><a xlink:href="pretty__printer_8h.html" target="_top" xlink:title=" ">
<polygon fill="white" stroke="red" points="82.5,-0.5 82.5,-30.5 215.5,-30.5 215.5,-0.5 82.5,-0.5"/>
<text text-anchor="start" x="90.5" y="-18.5" font-family="Helvetica,sans-Serif" font-size="10.00">emlabcpp/experimental</text>
<text text-anchor="middle" x="149" y="-7.5" font-family="Helvetica,sans-Serif" font-size="10.00">/pretty_printer.h</text>
</a>
</g>
</g>
<!-- Node2&#45;&gt;Node3 -->
<g id="edge2" class="edge">
<title>Node2&#45;&gt;Node3</title>
<path fill="none" stroke="midnightblue" d="M164.66,-67.4C162.22,-59.47 159.12,-49.38 156.31,-40.27"/>
<polygon fill="midnightblue" stroke="midnightblue" points="159.62,-39.1 153.33,-30.58 152.93,-41.16 159.62,-39.1"/>
</g>
<!-- Node2&#45;&gt;Node36 -->
<g id="edge3" class="edge">
<title>Node2&#45;&gt;Node36</title>
<path fill="none" stroke="midnightblue" d="M139.27,-67.4C115.45,-56.09 82.29,-40.36 59.17,-29.39"/>
<polygon fill="midnightblue" stroke="midnightblue" points="60.47,-26.13 49.93,-25.01 57.46,-32.46 60.47,-26.13"/>
</g>
<!-- Node2&#45;&gt;Node6 -->
<g id="edge4" class="edge">
<title>Node2&#45;&gt;Node6</title>
<path fill="none" stroke="midnightblue" d="M205.34,-67.4C230.19,-57.59 263.8,-43.99 293,-31 294.16,-30.48 295.34,-29.95 296.53,-29.41"/>
<polygon fill="midnightblue" stroke="midnightblue" points="298.08,-32.55 305.64,-25.12 295.1,-26.21 298.08,-32.55"/>
</g>
<!-- Node37 -->
<g id="node6" class="node">
<title>Node37</title>
<g id="a_node6"><a xlink:title=" ">
<polygon fill="white" stroke="#bfbfbf" points="234,-6 234,-25 284,-25 284,-6 234,-6"/>
<text text-anchor="middle" x="259" y="-13" font-family="Helvetica,sans-Serif" font-size="10.00">cstring</text>
</a>
</g>
</g>
<!-- Node2&#45;&gt;Node37 -->
<g id="edge5" class="edge">
<title>Node2&#45;&gt;Node37</title>
<path fill="none" stroke="midnightblue" d="M188.53,-67.4C203.48,-56.6 224.03,-41.76 239.08,-30.89"/>
<polygon fill="midnightblue" stroke="midnightblue" points="241.16,-33.7 247.22,-25.01 237.07,-28.02 241.16,-33.7"/>
</g>
</g>
</svg>
