<?xml version="1.0" encoding="UTF-8" standalone="no"?>
<!DOCTYPE svg PUBLIC "-//W3C//DTD SVG 1.1//EN"
 "http://www.w3.org/Graphics/SVG/1.1/DTD/svg11.dtd">
<!-- Generated by graphviz version 2.43.0 (0)
 -->
<!-- Title: include/emlabcpp/protocol/json.h Pages: 1 -->
<svg width="1117pt" height="285pt"
 viewBox="0.00 0.00 1117.34 285.00" xmlns="http://www.w3.org/2000/svg" xmlns:xlink="http://www.w3.org/1999/xlink">
<g id="graph0" class="graph" transform="scale(1 1) rotate(0) translate(4 281)">
<title>include/emlabcpp/protocol/json.h</title>
<polygon fill="white" stroke="transparent" points="-4,4 -4,-281 1113.34,-281 1113.34,4 -4,4"/>
<!-- Node1 -->
<g id="node1" class="node">
<title>Node1</title>
<g id="a_node1"><a xlink:title=" ">
<polygon fill="#bfbfbf" stroke="black" points="597.92,-246.5 597.92,-276.5 743.92,-276.5 743.92,-246.5 597.92,-246.5"/>
<text text-anchor="start" x="605.92" y="-264.5" font-family="Helvetica,sans-Serif" font-size="10.00">include/emlabcpp/protocol</text>
<text text-anchor="middle" x="670.92" y="-253.5" font-family="Helvetica,sans-Serif" font-size="10.00">/json.h</text>
</a>
</g>
</g>
<!-- Node2 -->
<g id="node2" class="node">
<title>Node2</title>
<g id="a_node2"><a xlink:href="algorithm_8h.html" target="_top" xlink:title=" ">
<polygon fill="white" stroke="black" points="211.92,-129 211.92,-148 335.92,-148 335.92,-129 211.92,-129"/>
<text text-anchor="middle" x="273.92" y="-136" font-family="Helvetica,sans-Serif" font-size="10.00">emlabcpp/algorithm.h</text>
</a>
</g>
</g>
<!-- Node1&#45;&gt;Node2 -->
<g id="edge1" class="edge">
<title>Node1&#45;&gt;Node2</title>
<path fill="none" stroke="midnightblue" d="M624.6,-246.38C545.29,-222.21 384.97,-173.35 311.84,-151.06"/>
<polygon fill="midnightblue" stroke="midnightblue" points="312.7,-147.66 302.11,-148.09 310.66,-154.36 312.7,-147.66"/>
</g>
<!-- Node21 -->
<g id="node12" class="node">
<title>Node21</title>
<g id="a_node12"><a xlink:href="enum_8h.html" target="_top" xlink:title=" ">
<polygon fill="white" stroke="red" points="761.92,-190.5 761.92,-209.5 865.92,-209.5 865.92,-190.5 761.92,-190.5"/>
<text text-anchor="middle" x="813.92" y="-197.5" font-family="Helvetica,sans-Serif" font-size="10.00">emlabcpp/enum.h</text>
</a>
</g>
</g>
<!-- Node1&#45;&gt;Node21 -->
<g id="edge14" class="edge">
<title>Node1&#45;&gt;Node21</title>
<path fill="none" stroke="midnightblue" d="M704.81,-246.4C728.8,-236.42 760.7,-223.15 783.8,-213.53"/>
<polygon fill="midnightblue" stroke="midnightblue" points="785.23,-216.73 793.11,-209.66 782.54,-210.27 785.23,-216.73"/>
</g>
<!-- Node42 -->
<g id="node13" class="node">
<title>Node42</title>
<g id="a_node13"><a xlink:href="traits_8h.html" target="_top" xlink:title=" ">
<polygon fill="white" stroke="black" points="598.42,-190.5 598.42,-209.5 743.42,-209.5 743.42,-190.5 598.42,-190.5"/>
<text text-anchor="middle" x="670.92" y="-197.5" font-family="Helvetica,sans-Serif" font-size="10.00">emlabcpp/protocol/traits.h</text>
</a>
</g>
</g>
<!-- Node1&#45;&gt;Node42 -->
<g id="edge15" class="edge">
<title>Node1&#45;&gt;Node42</title>
<path fill="none" stroke="midnightblue" d="M670.92,-246.4C670.92,-238.47 670.92,-228.46 670.92,-219.86"/>
<polygon fill="midnightblue" stroke="midnightblue" points="674.42,-219.66 670.92,-209.66 667.42,-219.66 674.42,-219.66"/>
</g>
<!-- Node3 -->
<g id="node3" class="node">
<title>Node3</title>
<g id="a_node3"><a xlink:href="impl_8h.html" target="_top" xlink:title=" ">
<polygon fill="white" stroke="black" points="393.42,-56.5 393.42,-86.5 508.42,-86.5 508.42,-56.5 393.42,-56.5"/>
<text text-anchor="start" x="401.42" y="-74.5" font-family="Helvetica,sans-Serif" font-size="10.00">emlabcpp/algorithm</text>
<text text-anchor="middle" x="450.92" y="-63.5" font-family="Helvetica,sans-Serif" font-size="10.00">/impl.h</text>
</a>
</g>
</g>
<!-- Node2&#45;&gt;Node3 -->
<g id="edge2" class="edge">
<title>Node2&#45;&gt;Node3</title>
<path fill="none" stroke="midnightblue" d="M297.43,-128.87C324.22,-119.03 368.71,-102.69 402.92,-90.13"/>
<polygon fill="midnightblue" stroke="midnightblue" points="404.54,-93.26 412.72,-86.53 402.13,-86.69 404.54,-93.26"/>
</g>
<!-- Node4 -->
<g id="node4" class="node">
<title>Node4</title>
<g id="a_node4"><a xlink:href="types_8h.html" target="_top" xlink:title=" ">
<polygon fill="white" stroke="red" points="100.92,-0.5 100.92,-19.5 204.92,-19.5 204.92,-0.5 100.92,-0.5"/>
<text text-anchor="middle" x="152.92" y="-7.5" font-family="Helvetica,sans-Serif" font-size="10.00">emlabcpp/types.h</text>
</a>
</g>
</g>
<!-- Node2&#45;&gt;Node4 -->
<g id="edge8" class="edge">
<title>Node2&#45;&gt;Node4</title>
<path fill="none" stroke="midnightblue" d="M267.61,-129C256.09,-113.71 230.57,-80.86 205.92,-56 195.43,-45.42 182.74,-34.58 172.4,-26.19"/>
<polygon fill="midnightblue" stroke="midnightblue" points="174.37,-23.29 164.37,-19.78 170,-28.76 174.37,-23.29"/>
</g>
<!-- Node10 -->
<g id="node5" class="node">
<title>Node10</title>
<g id="a_node5"><a xlink:title=" ">
<polygon fill="white" stroke="#bfbfbf" points="516.42,-0.5 516.42,-19.5 557.42,-19.5 557.42,-0.5 516.42,-0.5"/>
<text text-anchor="middle" x="536.92" y="-7.5" font-family="Helvetica,sans-Serif" font-size="10.00">tuple</text>
</a>
</g>
</g>
<!-- Node2&#45;&gt;Node10 -->
<g id="edge13" class="edge">
<title>Node2&#45;&gt;Node10</title>
<path fill="none" stroke="midnightblue" d="M315.49,-128.97C385.04,-114.68 517.46,-87.44 517.92,-87 533.29,-72.24 536.97,-47.08 537.5,-29.78"/>
<polygon fill="midnightblue" stroke="midnightblue" points="541,-29.73 537.49,-19.73 534,-29.73 541,-29.73"/>
</g>
<!-- Node17 -->
<g id="node6" class="node">
<title>Node17</title>
<g id="a_node6"><a xlink:href="bounded_8h.html" target="_top" xlink:title=" ">
<polygon fill="white" stroke="red" points="736.42,-62 736.42,-81 855.42,-81 855.42,-62 736.42,-62"/>
<text text-anchor="middle" x="795.92" y="-69" font-family="Helvetica,sans-Serif" font-size="10.00">emlabcpp/bounded.h</text>
</a>
</g>
</g>
<!-- Node2&#45;&gt;Node17 -->
<g id="edge5" class="edge">
<title>Node2&#45;&gt;Node17</title>
<path fill="none" stroke="midnightblue" d="M312.5,-128.96C322.98,-126.82 334.36,-124.67 344.92,-123 479.11,-101.83 637.13,-86.27 726.01,-78.36"/>
<polygon fill="midnightblue" stroke="midnightblue" points="726.58,-81.83 736.23,-77.46 725.96,-74.85 726.58,-81.83"/>
</g>
<!-- Node25 -->
<g id="node8" class="node">
<title>Node25</title>
<g id="a_node8"><a xlink:href="min__max_8h.html" target="_top" xlink:title=" ">
<polygon fill="white" stroke="red" points="252.92,-62 252.92,-81 374.92,-81 374.92,-62 252.92,-62"/>
<text text-anchor="middle" x="313.92" y="-69" font-family="Helvetica,sans-Serif" font-size="10.00">emlabcpp/min_max.h</text>
</a>
</g>
</g>
<!-- Node2&#45;&gt;Node25 -->
<g id="edge7" class="edge">
<title>Node2&#45;&gt;Node25</title>
<path fill="none" stroke="midnightblue" d="M279.32,-128.73C285.43,-118.79 295.56,-102.34 303.28,-89.79"/>
<polygon fill="midnightblue" stroke="midnightblue" points="306.35,-91.48 308.61,-81.13 300.39,-87.81 306.35,-91.48"/>
</g>
<!-- Node30 -->
<g id="node9" class="node">
<title>Node30</title>
<g id="a_node9"><a xlink:href="view_8h.html" target="_top" xlink:title=" ">
<polygon fill="white" stroke="red" points="30.42,-62 30.42,-81 129.42,-81 129.42,-62 30.42,-62"/>
<text text-anchor="middle" x="79.92" y="-69" font-family="Helvetica,sans-Serif" font-size="10.00">emlabcpp/view.h</text>
</a>
</g>
</g>
<!-- Node2&#45;&gt;Node30 -->
<g id="edge9" class="edge">
<title>Node2&#45;&gt;Node30</title>
<path fill="none" stroke="midnightblue" d="M248.16,-128.87C214,-117.42 153.58,-97.18 115.21,-84.32"/>
<polygon fill="midnightblue" stroke="midnightblue" points="116.07,-80.92 105.48,-81.06 113.85,-87.56 116.07,-80.92"/>
</g>
<!-- Node40 -->
<g id="node10" class="node">
<title>Node40</title>
<g id="a_node10"><a xlink:title=" ">
<polygon fill="white" stroke="#bfbfbf" points="565.42,-62 565.42,-81 612.42,-81 612.42,-62 565.42,-62"/>
<text text-anchor="middle" x="588.92" y="-69" font-family="Helvetica,sans-Serif" font-size="10.00">cmath</text>
</a>
</g>
</g>
<!-- Node2&#45;&gt;Node40 -->
<g id="edge11" class="edge">
<title>Node2&#45;&gt;Node40</title>
<path fill="none" stroke="midnightblue" d="M314.81,-128.94C324.66,-126.94 335.16,-124.85 344.92,-123 436.24,-105.7 461.32,-111.68 550.92,-87 553.57,-86.27 556.3,-85.43 559.02,-84.52"/>
<polygon fill="midnightblue" stroke="midnightblue" points="560.42,-87.73 568.65,-81.06 558.06,-81.14 560.42,-87.73"/>
</g>
<!-- Node41 -->
<g id="node11" class="node">
<title>Node41</title>
<g id="a_node11"><a xlink:title=" ">
<polygon fill="white" stroke="#bfbfbf" points="147.42,-62 147.42,-81 196.42,-81 196.42,-62 147.42,-62"/>
<text text-anchor="middle" x="171.92" y="-69" font-family="Helvetica,sans-Serif" font-size="10.00">cstdlib</text>
</a>
</g>
</g>
<!-- Node2&#45;&gt;Node41 -->
<g id="edge12" class="edge">
<title>Node2&#45;&gt;Node41</title>
<path fill="none" stroke="midnightblue" d="M260.17,-128.73C243.19,-117.92 214.11,-99.38 193.99,-86.57"/>
<polygon fill="midnightblue" stroke="midnightblue" points="195.77,-83.55 185.46,-81.13 192.01,-89.45 195.77,-83.55"/>
</g>
<!-- Node3&#45;&gt;Node4 -->
<g id="edge3" class="edge">
<title>Node3&#45;&gt;Node4</title>
<path fill="none" stroke="midnightblue" d="M393.19,-57.93C390.06,-57.27 386.95,-56.62 383.92,-56 323.89,-43.66 254.91,-30.33 208.07,-21.41"/>
<polygon fill="midnightblue" stroke="midnightblue" points="208.6,-17.95 198.13,-19.52 207.3,-24.83 208.6,-17.95"/>
</g>
<!-- Node3&#45;&gt;Node10 -->
<g id="edge4" class="edge">
<title>Node3&#45;&gt;Node10</title>
<path fill="none" stroke="midnightblue" d="M471.3,-56.4C484.83,-47.04 502.53,-34.79 516.14,-25.38"/>
<polygon fill="midnightblue" stroke="midnightblue" points="518.18,-28.23 524.41,-19.66 514.19,-22.47 518.18,-28.23"/>
</g>
<!-- Node37 -->
<g id="node7" class="node">
<title>Node37</title>
<g id="a_node7"><a xlink:title=" ">
<polygon fill="white" stroke="#bfbfbf" points="926.92,-0.5 926.92,-19.5 982.92,-19.5 982.92,-0.5 926.92,-0.5"/>
<text text-anchor="middle" x="954.92" y="-7.5" font-family="Helvetica,sans-Serif" font-size="10.00">optional</text>
</a>
</g>
</g>
<!-- Node17&#45;&gt;Node37 -->
<g id="edge6" class="edge">
<title>Node17&#45;&gt;Node37</title>
<path fill="none" stroke="midnightblue" d="M818.7,-61.98C845.98,-51.77 891.83,-34.61 922.72,-23.05"/>
<polygon fill="midnightblue" stroke="midnightblue" points="924.04,-26.29 932.18,-19.51 921.59,-19.74 924.04,-26.29"/>
</g>
<!-- Node30&#45;&gt;Node4 -->
<g id="edge10" class="edge">
<title>Node30&#45;&gt;Node4</title>
<path fill="none" stroke="midnightblue" d="M90.38,-61.98C101.87,-52.61 120.55,-37.38 134.51,-26.01"/>
<polygon fill="midnightblue" stroke="midnightblue" points="136.94,-28.54 142.48,-19.51 132.52,-23.11 136.94,-28.54"/>
</g>
<!-- Node42&#45;&gt;Node4 -->
<g id="edge28" class="edge">
<title>Node42&#45;&gt;Node4</title>
<path fill="none" stroke="midnightblue" d="M598.27,-199.42C436.88,-199.58 59.63,-195.48 20.92,-154 -8.79,-122.16 -4.43,-91.42 20.92,-56 36.98,-33.56 64.89,-22.19 90.92,-16.47"/>
<polygon fill="midnightblue" stroke="midnightblue" points="91.64,-19.89 100.78,-14.54 90.3,-13.02 91.64,-19.89"/>
</g>
<!-- Node42&#45;&gt;Node37 -->
<g id="edge30" class="edge">
<title>Node42&#45;&gt;Node37</title>
<path fill="none" stroke="midnightblue" d="M743.71,-190.98C860.18,-178.13 1075.53,-154.33 1075.92,-154 1109.78,-125.33 1121.06,-91.85 1094.92,-56 1071.85,-24.35 1026.16,-14.47 993.24,-11.64"/>
<polygon fill="midnightblue" stroke="midnightblue" points="993.26,-8.13 983.05,-10.95 992.79,-15.12 993.26,-8.13"/>
</g>
<!-- Node22 -->
<g id="node14" class="node">
<title>Node22</title>
<g id="a_node14"><a xlink:href="decompose_8h.html" target="_top" xlink:title=" ">
<polygon fill="white" stroke="red" points="714.42,-123.5 714.42,-153.5 847.42,-153.5 847.42,-123.5 714.42,-123.5"/>
<text text-anchor="start" x="722.42" y="-141.5" font-family="Helvetica,sans-Serif" font-size="10.00">emlabcpp/experimental</text>
<text text-anchor="middle" x="780.92" y="-130.5" font-family="Helvetica,sans-Serif" font-size="10.00">/decompose.h</text>
</a>
</g>
</g>
<!-- Node42&#45;&gt;Node22 -->
<g id="edge16" class="edge">
<title>Node42&#45;&gt;Node22</title>
<path fill="none" stroke="midnightblue" d="M686.68,-190.48C702.14,-182.12 726.22,-169.09 746.17,-158.3"/>
<polygon fill="midnightblue" stroke="midnightblue" points="747.87,-161.36 755,-153.52 744.54,-155.2 747.87,-161.36"/>
</g>
<!-- Node43 -->
<g id="node15" class="node">
<title>Node43</title>
<g id="a_node15"><a xlink:href="protocol_2base_8h.html" target="_top" xlink:title=" ">
<polygon fill="white" stroke="red" points="904.42,-129 904.42,-148 1047.42,-148 1047.42,-129 904.42,-129"/>
<text text-anchor="middle" x="975.92" y="-136" font-family="Helvetica,sans-Serif" font-size="10.00">emlabcpp/protocol/base.h</text>
</a>
</g>
</g>
<!-- Node42&#45;&gt;Node43 -->
<g id="edge18" class="edge">
<title>Node42&#45;&gt;Node43</title>
<path fill="none" stroke="midnightblue" d="M714.62,-190.48C769.43,-179.78 863.36,-161.46 922.42,-149.94"/>
<polygon fill="midnightblue" stroke="midnightblue" points="923.16,-153.36 932.3,-148.01 921.82,-146.49 923.16,-153.36"/>
</g>
<!-- Node44 -->
<g id="node16" class="node">
<title>Node44</title>
<g id="a_node16"><a xlink:href="protocol_2error_8h.html" target="_top" xlink:title=" ">
<polygon fill="white" stroke="red" points="873.92,-62 873.92,-81 1015.92,-81 1015.92,-62 873.92,-62"/>
<text text-anchor="middle" x="944.92" y="-69" font-family="Helvetica,sans-Serif" font-size="10.00">emlabcpp/protocol/error.h</text>
</a>
</g>
</g>
<!-- Node42&#45;&gt;Node44 -->
<g id="edge22" class="edge">
<title>Node42&#45;&gt;Node44</title>
<path fill="none" stroke="midnightblue" d="M742.43,-190.43C778.36,-184 821.64,-172.92 856.92,-154 873.19,-145.27 909.15,-109.53 929.71,-88.38"/>
<polygon fill="midnightblue" stroke="midnightblue" points="932.34,-90.7 936.77,-81.08 927.3,-85.84 932.34,-90.7"/>
</g>
<!-- Node15 -->
<g id="node17" class="node">
<title>Node15</title>
<g id="a_node17"><a xlink:title=" ">
<polygon fill="white" stroke="#bfbfbf" points="1034.42,-62 1034.42,-81 1085.42,-81 1085.42,-62 1034.42,-62"/>
<text text-anchor="middle" x="1059.92" y="-69" font-family="Helvetica,sans-Serif" font-size="10.00">variant</text>
</a>
</g>
</g>
<!-- Node42&#45;&gt;Node15 -->
<g id="edge31" class="edge">
<title>Node42&#45;&gt;Node15</title>
<path fill="none" stroke="midnightblue" d="M743.67,-190.82C855.15,-178.23 1055.6,-155.43 1056.92,-154 1072.35,-137.3 1069.6,-109.48 1065.41,-91.07"/>
<polygon fill="midnightblue" stroke="midnightblue" points="1068.76,-90.02 1062.83,-81.23 1061.98,-91.79 1068.76,-90.02"/>
</g>
<!-- Node49 -->
<g id="node18" class="node">
<title>Node49</title>
<g id="a_node18"><a xlink:href="message_8h.html" target="_top" xlink:title=" ">
<polygon fill="white" stroke="red" points="29.92,-129 29.92,-148 193.92,-148 193.92,-129 29.92,-129"/>
<text text-anchor="middle" x="111.92" y="-136" font-family="Helvetica,sans-Serif" font-size="10.00">emlabcpp/protocol/message.h</text>
</a>
</g>
</g>
<!-- Node42&#45;&gt;Node49 -->
<g id="edge23" class="edge">
<title>Node42&#45;&gt;Node49</title>
<path fill="none" stroke="midnightblue" d="M598.21,-193.42C506.05,-186.02 342.39,-171.8 202.92,-154 192.92,-152.72 182.34,-151.2 172.05,-149.62"/>
<polygon fill="midnightblue" stroke="midnightblue" points="172.33,-146.12 161.91,-148.04 171.25,-153.04 172.33,-146.12"/>
</g>
<!-- Node50 -->
<g id="node19" class="node">
<title>Node50</title>
<g id="a_node19"><a xlink:href="quantity_8h.html" target="_top" xlink:title=" ">
<polygon fill="white" stroke="red" points="353.92,-129 353.92,-148 469.92,-148 469.92,-129 353.92,-129"/>
<text text-anchor="middle" x="411.92" y="-136" font-family="Helvetica,sans-Serif" font-size="10.00">emlabcpp/quantity.h</text>
</a>
</g>
</g>
<!-- Node42&#45;&gt;Node50 -->
<g id="edge25" class="edge">
<title>Node42&#45;&gt;Node50</title>
<path fill="none" stroke="midnightblue" d="M633.81,-190.48C587.75,-179.89 509.15,-161.84 458.92,-150.3"/>
<polygon fill="midnightblue" stroke="midnightblue" points="459.49,-146.84 448.96,-148.01 457.92,-153.66 459.49,-146.84"/>
</g>
<!-- Node53 -->
<g id="node20" class="node">
<title>Node53</title>
<g id="a_node20"><a xlink:href="static__vector_8h.html" target="_top" xlink:title=" ">
<polygon fill="white" stroke="red" points="488.42,-129 488.42,-148 627.42,-148 627.42,-129 488.42,-129"/>
<text text-anchor="middle" x="557.92" y="-136" font-family="Helvetica,sans-Serif" font-size="10.00">emlabcpp/static_vector.h</text>
</a>
</g>
</g>
<!-- Node42&#45;&gt;Node53 -->
<g id="edge27" class="edge">
<title>Node42&#45;&gt;Node53</title>
<path fill="none" stroke="midnightblue" d="M654.73,-190.48C636.02,-180.62 605,-164.29 583.12,-152.77"/>
<polygon fill="midnightblue" stroke="midnightblue" points="584.56,-149.57 574.08,-148.01 581.3,-155.77 584.56,-149.57"/>
</g>
<!-- Node34 -->
<g id="node21" class="node">
<title>Node34</title>
<g id="a_node21"><a xlink:title=" ">
<polygon fill="white" stroke="#bfbfbf" points="645.92,-129 645.92,-148 695.92,-148 695.92,-129 645.92,-129"/>
<text text-anchor="middle" x="670.92" y="-136" font-family="Helvetica,sans-Serif" font-size="10.00">chrono</text>
</a>
</g>
</g>
<!-- Node42&#45;&gt;Node34 -->
<g id="edge29" class="edge">
<title>Node42&#45;&gt;Node34</title>
<path fill="none" stroke="midnightblue" d="M670.92,-190.48C670.92,-182.08 670.92,-168.98 670.92,-158.16"/>
<polygon fill="midnightblue" stroke="midnightblue" points="674.42,-158.01 670.92,-148.01 667.42,-158.01 674.42,-158.01"/>
</g>
<!-- Node22&#45;&gt;Node10 -->
<g id="edge17" class="edge">
<title>Node22&#45;&gt;Node10</title>
<path fill="none" stroke="midnightblue" d="M753.88,-123.48C706.5,-98.92 609.12,-48.43 562.67,-24.35"/>
<polygon fill="midnightblue" stroke="midnightblue" points="564.06,-21.13 553.57,-19.63 560.84,-27.34 564.06,-21.13"/>
</g>
<!-- Node43&#45;&gt;Node17 -->
<g id="edge19" class="edge">
<title>Node43&#45;&gt;Node17</title>
<path fill="none" stroke="midnightblue" d="M952.02,-128.87C920.46,-117.47 864.74,-97.35 829.12,-84.49"/>
<polygon fill="midnightblue" stroke="midnightblue" points="830.23,-81.17 819.64,-81.06 827.85,-87.75 830.23,-81.17"/>
</g>
<!-- Node43&#45;&gt;Node44 -->
<g id="edge20" class="edge">
<title>Node43&#45;&gt;Node44</title>
<path fill="none" stroke="midnightblue" d="M971.74,-128.73C967.05,-118.89 959.31,-102.66 953.34,-90.16"/>
<polygon fill="midnightblue" stroke="midnightblue" points="956.5,-88.65 949.04,-81.13 950.18,-91.66 956.5,-88.65"/>
</g>
<!-- Node43&#45;&gt;Node15 -->
<g id="edge21" class="edge">
<title>Node43&#45;&gt;Node15</title>
<path fill="none" stroke="midnightblue" d="M987.25,-128.73C1000.98,-118.11 1024.32,-100.05 1040.84,-87.26"/>
<polygon fill="midnightblue" stroke="midnightblue" points="1043.01,-90.02 1048.77,-81.13 1038.72,-84.48 1043.01,-90.02"/>
</g>
<!-- Node49&#45;&gt;Node30 -->
<g id="edge24" class="edge">
<title>Node49&#45;&gt;Node30</title>
<path fill="none" stroke="midnightblue" d="M107.61,-128.73C102.76,-118.89 94.77,-102.66 88.62,-90.16"/>
<polygon fill="midnightblue" stroke="midnightblue" points="91.73,-88.55 84.17,-81.13 85.45,-91.64 91.73,-88.55"/>
</g>
<!-- Node50&#45;&gt;Node40 -->
<g id="edge26" class="edge">
<title>Node50&#45;&gt;Node40</title>
<path fill="none" stroke="midnightblue" d="M435.82,-128.95C463.55,-119 510.62,-102.01 550.92,-87 552.81,-86.3 554.74,-85.57 556.7,-84.84"/>
<polygon fill="midnightblue" stroke="midnightblue" points="558.33,-87.96 566.44,-81.15 555.85,-81.42 558.33,-87.96"/>
</g>
</g>
</svg>
