<?xml version="1.0" encoding="UTF-8" standalone="no"?>
<!DOCTYPE svg PUBLIC "-//W3C//DTD SVG 1.1//EN"
 "http://www.w3.org/Graphics/SVG/1.1/DTD/svg11.dtd">
<!-- Generated by graphviz version 2.43.0 (0)
 -->
<!-- Title: include/emlabcpp/quantity.h Pages: 1 -->
<svg width="682pt" height="196pt"
 viewBox="0.00 0.00 681.50 196.00" xmlns="http://www.w3.org/2000/svg" xmlns:xlink="http://www.w3.org/1999/xlink">
<g id="graph0" class="graph" transform="scale(1 1) rotate(0) translate(4 192)">
<title>include/emlabcpp/quantity.h</title>
<polygon fill="white" stroke="transparent" points="-4,4 -4,-192 677.5,-192 677.5,4 -4,4"/>
<!-- Node1 -->
<g id="node1" class="node">
<title>Node1</title>
<g id="a_node1"><a xlink:title=" ">
<polygon fill="#bfbfbf" stroke="black" points="381.5,-168.5 381.5,-187.5 535.5,-187.5 535.5,-168.5 381.5,-168.5"/>
<text text-anchor="middle" x="458.5" y="-175.5" font-family="Helvetica,sans-Serif" font-size="10.00">include/emlabcpp/quantity.h</text>
</a>
</g>
</g>
<!-- Node2 -->
<g id="node2" class="node">
<title>Node2</title>
<g id="a_node2"><a xlink:href="concepts_8h.html" target="_top" xlink:title=" ">
<polygon fill="white" stroke="black" points="171,-112.5 171,-131.5 246,-131.5 246,-112.5 171,-112.5"/>
<text text-anchor="middle" x="208.5" y="-119.5" font-family="Helvetica,sans-Serif" font-size="10.00">./concepts.h</text>
</a>
</g>
</g>
<!-- Node1&#45;&gt;Node2 -->
<g id="edge1" class="edge">
<title>Node1&#45;&gt;Node2</title>
<path fill="none" stroke="midnightblue" d="M418.89,-168.44C374.76,-158.91 303.45,-143.51 256.27,-133.32"/>
<polygon fill="midnightblue" stroke="midnightblue" points="256.8,-129.85 246.29,-131.16 255.33,-136.7 256.8,-129.85"/>
</g>
<!-- Node8 -->
<g id="node4" class="node">
<title>Node8</title>
<g id="a_node4"><a xlink:title=" ">
<polygon fill="white" stroke="#bfbfbf" points="153,-0.5 153,-19.5 222,-19.5 222,-0.5 153,-0.5"/>
<text text-anchor="middle" x="187.5" y="-7.5" font-family="Helvetica,sans-Serif" font-size="10.00">type_traits</text>
</a>
</g>
</g>
<!-- Node1&#45;&gt;Node8 -->
<g id="edge12" class="edge">
<title>Node1&#45;&gt;Node8</title>
<path fill="none" stroke="midnightblue" d="M422.34,-168.43C400.03,-161.63 372.05,-150.17 352.5,-132 324.7,-106.15 342.05,-81.03 313.5,-56 290.68,-35.99 258.33,-24.69 232.13,-18.41"/>
<polygon fill="midnightblue" stroke="midnightblue" points="232.57,-14.92 222.05,-16.17 231.05,-21.76 232.57,-14.92"/>
</g>
<!-- Node13 -->
<g id="node8" class="node">
<title>Node13</title>
<g id="a_node8"><a xlink:title=" ">
<polygon fill="white" stroke="#bfbfbf" points="361,-112.5 361,-131.5 408,-131.5 408,-112.5 361,-112.5"/>
<text text-anchor="middle" x="384.5" y="-119.5" font-family="Helvetica,sans-Serif" font-size="10.00">cmath</text>
</a>
</g>
</g>
<!-- Node1&#45;&gt;Node13 -->
<g id="edge7" class="edge">
<title>Node1&#45;&gt;Node13</title>
<path fill="none" stroke="midnightblue" d="M446.61,-168.32C435.35,-160.11 418.21,-147.6 404.79,-137.81"/>
<polygon fill="midnightblue" stroke="midnightblue" points="406.75,-134.9 396.61,-131.83 402.62,-140.56 406.75,-134.9"/>
</g>
<!-- Node14 -->
<g id="node9" class="node">
<title>Node14</title>
<g id="a_node9"><a xlink:title=" ">
<polygon fill="white" stroke="#bfbfbf" points="426,-112.5 426,-131.5 491,-131.5 491,-112.5 426,-112.5"/>
<text text-anchor="middle" x="458.5" y="-119.5" font-family="Helvetica,sans-Serif" font-size="10.00">functional</text>
</a>
</g>
</g>
<!-- Node1&#45;&gt;Node14 -->
<g id="edge8" class="edge">
<title>Node1&#45;&gt;Node14</title>
<path fill="none" stroke="midnightblue" d="M458.5,-168.08C458.5,-161.01 458.5,-150.86 458.5,-141.99"/>
<polygon fill="midnightblue" stroke="midnightblue" points="462,-141.75 458.5,-131.75 455,-141.75 462,-141.75"/>
</g>
<!-- Node15 -->
<g id="node10" class="node">
<title>Node15</title>
<g id="a_node10"><a xlink:title=" ">
<polygon fill="white" stroke="#bfbfbf" points="509.5,-112.5 509.5,-131.5 553.5,-131.5 553.5,-112.5 509.5,-112.5"/>
<text text-anchor="middle" x="531.5" y="-119.5" font-family="Helvetica,sans-Serif" font-size="10.00">limits</text>
</a>
</g>
</g>
<!-- Node1&#45;&gt;Node15 -->
<g id="edge9" class="edge">
<title>Node1&#45;&gt;Node15</title>
<path fill="none" stroke="midnightblue" d="M470.23,-168.32C481.34,-160.11 498.24,-147.6 511.48,-137.81"/>
<polygon fill="midnightblue" stroke="midnightblue" points="513.6,-140.59 519.56,-131.83 509.44,-134.97 513.6,-140.59"/>
</g>
<!-- Node16 -->
<g id="node11" class="node">
<title>Node16</title>
<g id="a_node11"><a xlink:title=" ">
<polygon fill="white" stroke="#bfbfbf" points="572,-112.5 572,-131.5 611,-131.5 611,-112.5 572,-112.5"/>
<text text-anchor="middle" x="591.5" y="-119.5" font-family="Helvetica,sans-Serif" font-size="10.00">ratio</text>
</a>
</g>
</g>
<!-- Node1&#45;&gt;Node16 -->
<g id="edge10" class="edge">
<title>Node1&#45;&gt;Node16</title>
<path fill="none" stroke="midnightblue" d="M479.57,-168.44C501.95,-159.36 537.46,-144.94 562.47,-134.78"/>
<polygon fill="midnightblue" stroke="midnightblue" points="563.88,-137.99 571.83,-130.99 561.24,-131.51 563.88,-137.99"/>
</g>
<!-- Node17 -->
<g id="node12" class="node">
<title>Node17</title>
<g id="a_node12"><a xlink:title=" ">
<polygon fill="white" stroke="#bfbfbf" points="629.5,-112.5 629.5,-131.5 673.5,-131.5 673.5,-112.5 629.5,-112.5"/>
<text text-anchor="middle" x="651.5" y="-119.5" font-family="Helvetica,sans-Serif" font-size="10.00">string</text>
</a>
</g>
</g>
<!-- Node1&#45;&gt;Node17 -->
<g id="edge11" class="edge">
<title>Node1&#45;&gt;Node17</title>
<path fill="none" stroke="midnightblue" d="M489.59,-168.48C520.25,-160.05 568.69,-146.67 619.62,-132.23"/>
<polygon fill="midnightblue" stroke="midnightblue" points="620.83,-135.52 629.49,-129.42 618.92,-128.79 620.83,-135.52"/>
</g>
<!-- Node3 -->
<g id="node3" class="node">
<title>Node3</title>
<g id="a_node3"><a xlink:href="types_2base_8h.html" target="_top" xlink:title=" ">
<polygon fill="white" stroke="red" points="0,-56.5 0,-75.5 85,-75.5 85,-56.5 0,-56.5"/>
<text text-anchor="middle" x="42.5" y="-63.5" font-family="Helvetica,sans-Serif" font-size="10.00">./types/base.h</text>
</a>
</g>
</g>
<!-- Node2&#45;&gt;Node3 -->
<g id="edge2" class="edge">
<title>Node2&#45;&gt;Node3</title>
<path fill="none" stroke="midnightblue" d="M182.2,-112.44C154.15,-103.32 109.56,-88.81 78.32,-78.65"/>
<polygon fill="midnightblue" stroke="midnightblue" points="79.27,-75.28 68.68,-75.52 77.11,-81.94 79.27,-75.28"/>
</g>
<!-- Node10 -->
<g id="node5" class="node">
<title>Node10</title>
<g id="a_node5"><a xlink:title=" ">
<polygon fill="white" stroke="#bfbfbf" points="103.5,-56.5 103.5,-75.5 163.5,-75.5 163.5,-56.5 103.5,-56.5"/>
<text text-anchor="middle" x="133.5" y="-63.5" font-family="Helvetica,sans-Serif" font-size="10.00">concepts</text>
</a>
</g>
</g>
<!-- Node2&#45;&gt;Node10 -->
<g id="edge4" class="edge">
<title>Node2&#45;&gt;Node10</title>
<path fill="none" stroke="midnightblue" d="M196.45,-112.32C185.04,-104.11 167.67,-91.6 154.07,-81.81"/>
<polygon fill="midnightblue" stroke="midnightblue" points="155.93,-78.84 145.77,-75.83 151.84,-84.52 155.93,-78.84"/>
</g>
<!-- Node11 -->
<g id="node6" class="node">
<title>Node11</title>
<g id="a_node6"><a xlink:title=" ">
<polygon fill="white" stroke="#bfbfbf" points="182,-56.5 182,-75.5 235,-75.5 235,-56.5 182,-56.5"/>
<text text-anchor="middle" x="208.5" y="-63.5" font-family="Helvetica,sans-Serif" font-size="10.00">iterator</text>
</a>
</g>
</g>
<!-- Node2&#45;&gt;Node11 -->
<g id="edge5" class="edge">
<title>Node2&#45;&gt;Node11</title>
<path fill="none" stroke="midnightblue" d="M208.5,-112.08C208.5,-105.01 208.5,-94.86 208.5,-85.99"/>
<polygon fill="midnightblue" stroke="midnightblue" points="212,-85.75 208.5,-75.75 205,-85.75 212,-85.75"/>
</g>
<!-- Node12 -->
<g id="node7" class="node">
<title>Node12</title>
<g id="a_node7"><a xlink:title=" ">
<polygon fill="white" stroke="#bfbfbf" points="253,-56.5 253,-75.5 304,-75.5 304,-56.5 253,-56.5"/>
<text text-anchor="middle" x="278.5" y="-63.5" font-family="Helvetica,sans-Serif" font-size="10.00">variant</text>
</a>
</g>
</g>
<!-- Node2&#45;&gt;Node12 -->
<g id="edge6" class="edge">
<title>Node2&#45;&gt;Node12</title>
<path fill="none" stroke="midnightblue" d="M219.75,-112.32C230.3,-104.18 246.3,-91.84 258.94,-82.09"/>
<polygon fill="midnightblue" stroke="midnightblue" points="261.27,-84.71 267.05,-75.83 256.99,-79.17 261.27,-84.71"/>
</g>
<!-- Node3&#45;&gt;Node8 -->
<g id="edge3" class="edge">
<title>Node3&#45;&gt;Node8</title>
<path fill="none" stroke="midnightblue" d="M65.48,-56.44C89.66,-47.44 127.92,-33.19 155.15,-23.05"/>
<polygon fill="midnightblue" stroke="midnightblue" points="156.48,-26.29 164.63,-19.52 154.04,-19.73 156.48,-26.29"/>
</g>
</g>
</svg>
