<?xml version="1.0" encoding="UTF-8" standalone="no"?>
<!DOCTYPE svg PUBLIC "-//W3C//DTD SVG 1.1//EN"
 "http://www.w3.org/Graphics/SVG/1.1/DTD/svg11.dtd">
<!-- Generated by graphviz version 2.43.0 (0)
 -->
<!-- Title: include/emlabcpp/quantity.h Pages: 1 -->
<svg width="655pt" height="196pt"
 viewBox="0.00 0.00 655.00 196.00" xmlns="http://www.w3.org/2000/svg" xmlns:xlink="http://www.w3.org/1999/xlink">
<g id="graph0" class="graph" transform="scale(1 1) rotate(0) translate(4 192)">
<title>include/emlabcpp/quantity.h</title>
<polygon fill="white" stroke="transparent" points="-4,4 -4,-192 651,-192 651,4 -4,4"/>
<!-- Node1 -->
<g id="node1" class="node">
<title>Node1</title>
<g id="a_node1"><a xlink:title=" ">
<polygon fill="#bfbfbf" stroke="black" points="355,-168.5 355,-187.5 509,-187.5 509,-168.5 355,-168.5"/>
<text text-anchor="middle" x="432" y="-175.5" font-family="Helvetica,sans-Serif" font-size="10.00">include/emlabcpp/quantity.h</text>
</a>
</g>
</g>
<!-- Node2 -->
<g id="node2" class="node">
<title>Node2</title>
<g id="a_node2"><a xlink:href="concepts_8h.html" target="_top" xlink:title=" ">
<polygon fill="white" stroke="black" points="138,-112.5 138,-131.5 258,-131.5 258,-112.5 138,-112.5"/>
<text text-anchor="middle" x="198" y="-119.5" font-family="Helvetica,sans-Serif" font-size="10.00">emlabcpp/concepts.h</text>
</a>
</g>
</g>
<!-- Node1&#45;&gt;Node2 -->
<g id="edge1" class="edge">
<title>Node1&#45;&gt;Node2</title>
<path fill="none" stroke="midnightblue" d="M394.92,-168.44C354.27,-159.06 288.97,-143.99 244.82,-133.8"/>
<polygon fill="midnightblue" stroke="midnightblue" points="245.44,-130.35 234.9,-131.52 243.86,-137.18 245.44,-130.35"/>
</g>
<!-- Node8 -->
<g id="node4" class="node">
<title>Node8</title>
<g id="a_node4"><a xlink:title=" ">
<polygon fill="white" stroke="#bfbfbf" points="150.5,-0.5 150.5,-19.5 219.5,-19.5 219.5,-0.5 150.5,-0.5"/>
<text text-anchor="middle" x="185" y="-7.5" font-family="Helvetica,sans-Serif" font-size="10.00">type_traits</text>
</a>
</g>
</g>
<!-- Node1&#45;&gt;Node8 -->
<g id="edge11" class="edge">
<title>Node1&#45;&gt;Node8</title>
<path fill="none" stroke="midnightblue" d="M395.84,-168.43C373.53,-161.63 345.55,-150.17 326,-132 298.2,-106.15 314.62,-82.05 287,-56 270.74,-40.66 248.39,-30.01 228.76,-22.93"/>
<polygon fill="midnightblue" stroke="midnightblue" points="229.67,-19.54 219.08,-19.64 227.42,-26.17 229.67,-19.54"/>
</g>
<!-- Node12 -->
<g id="node7" class="node">
<title>Node12</title>
<g id="a_node7"><a xlink:title=" ">
<polygon fill="white" stroke="#bfbfbf" points="334.5,-112.5 334.5,-131.5 381.5,-131.5 381.5,-112.5 334.5,-112.5"/>
<text text-anchor="middle" x="358" y="-119.5" font-family="Helvetica,sans-Serif" font-size="10.00">cmath</text>
</a>
</g>
</g>
<!-- Node1&#45;&gt;Node12 -->
<g id="edge6" class="edge">
<title>Node1&#45;&gt;Node12</title>
<path fill="none" stroke="midnightblue" d="M420.11,-168.32C408.85,-160.11 391.71,-147.6 378.29,-137.81"/>
<polygon fill="midnightblue" stroke="midnightblue" points="380.25,-134.9 370.11,-131.83 376.12,-140.56 380.25,-134.9"/>
</g>
<!-- Node13 -->
<g id="node8" class="node">
<title>Node13</title>
<g id="a_node8"><a xlink:title=" ">
<polygon fill="white" stroke="#bfbfbf" points="399.5,-112.5 399.5,-131.5 464.5,-131.5 464.5,-112.5 399.5,-112.5"/>
<text text-anchor="middle" x="432" y="-119.5" font-family="Helvetica,sans-Serif" font-size="10.00">functional</text>
</a>
</g>
</g>
<!-- Node1&#45;&gt;Node13 -->
<g id="edge7" class="edge">
<title>Node1&#45;&gt;Node13</title>
<path fill="none" stroke="midnightblue" d="M432,-168.08C432,-161.01 432,-150.86 432,-141.99"/>
<polygon fill="midnightblue" stroke="midnightblue" points="435.5,-141.75 432,-131.75 428.5,-141.75 435.5,-141.75"/>
</g>
<!-- Node14 -->
<g id="node9" class="node">
<title>Node14</title>
<g id="a_node9"><a xlink:title=" ">
<polygon fill="white" stroke="#bfbfbf" points="483,-112.5 483,-131.5 527,-131.5 527,-112.5 483,-112.5"/>
<text text-anchor="middle" x="505" y="-119.5" font-family="Helvetica,sans-Serif" font-size="10.00">limits</text>
</a>
</g>
</g>
<!-- Node1&#45;&gt;Node14 -->
<g id="edge8" class="edge">
<title>Node1&#45;&gt;Node14</title>
<path fill="none" stroke="midnightblue" d="M443.73,-168.32C454.84,-160.11 471.74,-147.6 484.98,-137.81"/>
<polygon fill="midnightblue" stroke="midnightblue" points="487.1,-140.59 493.06,-131.83 482.94,-134.97 487.1,-140.59"/>
</g>
<!-- Node15 -->
<g id="node10" class="node">
<title>Node15</title>
<g id="a_node10"><a xlink:title=" ">
<polygon fill="white" stroke="#bfbfbf" points="545.5,-112.5 545.5,-131.5 584.5,-131.5 584.5,-112.5 545.5,-112.5"/>
<text text-anchor="middle" x="565" y="-119.5" font-family="Helvetica,sans-Serif" font-size="10.00">ratio</text>
</a>
</g>
</g>
<!-- Node1&#45;&gt;Node15 -->
<g id="edge9" class="edge">
<title>Node1&#45;&gt;Node15</title>
<path fill="none" stroke="midnightblue" d="M453.07,-168.44C475.45,-159.36 510.96,-144.94 535.97,-134.78"/>
<polygon fill="midnightblue" stroke="midnightblue" points="537.38,-137.99 545.33,-130.99 534.74,-131.51 537.38,-137.99"/>
</g>
<!-- Node16 -->
<g id="node11" class="node">
<title>Node16</title>
<g id="a_node11"><a xlink:title=" ">
<polygon fill="white" stroke="#bfbfbf" points="603,-112.5 603,-131.5 647,-131.5 647,-112.5 603,-112.5"/>
<text text-anchor="middle" x="625" y="-119.5" font-family="Helvetica,sans-Serif" font-size="10.00">string</text>
</a>
</g>
</g>
<!-- Node1&#45;&gt;Node16 -->
<g id="edge10" class="edge">
<title>Node1&#45;&gt;Node16</title>
<path fill="none" stroke="midnightblue" d="M463.09,-168.48C493.75,-160.05 542.19,-146.67 593.12,-132.23"/>
<polygon fill="midnightblue" stroke="midnightblue" points="594.33,-135.52 602.99,-129.42 592.42,-128.79 594.33,-135.52"/>
</g>
<!-- Node3 -->
<g id="node3" class="node">
<title>Node3</title>
<g id="a_node3"><a xlink:href="types_2base_8h.html" target="_top" xlink:title=" ">
<polygon fill="white" stroke="red" points="0,-56.5 0,-75.5 130,-75.5 130,-56.5 0,-56.5"/>
<text text-anchor="middle" x="65" y="-63.5" font-family="Helvetica,sans-Serif" font-size="10.00">emlabcpp/types/base.h</text>
</a>
</g>
</g>
<!-- Node2&#45;&gt;Node3 -->
<g id="edge2" class="edge">
<title>Node2&#45;&gt;Node3</title>
<path fill="none" stroke="midnightblue" d="M176.93,-112.44C154.94,-103.52 120.27,-89.44 95.34,-79.32"/>
<polygon fill="midnightblue" stroke="midnightblue" points="96.56,-76.04 85.98,-75.52 93.92,-82.52 96.56,-76.04"/>
</g>
<!-- Node10 -->
<g id="node5" class="node">
<title>Node10</title>
<g id="a_node5"><a xlink:title=" ">
<polygon fill="white" stroke="#bfbfbf" points="148,-56.5 148,-75.5 208,-75.5 208,-56.5 148,-56.5"/>
<text text-anchor="middle" x="178" y="-63.5" font-family="Helvetica,sans-Serif" font-size="10.00">concepts</text>
</a>
</g>
</g>
<!-- Node2&#45;&gt;Node10 -->
<g id="edge4" class="edge">
<title>Node2&#45;&gt;Node10</title>
<path fill="none" stroke="midnightblue" d="M194.7,-112.08C192.02,-104.85 188.15,-94.41 184.81,-85.4"/>
<polygon fill="midnightblue" stroke="midnightblue" points="188,-83.91 181.24,-75.75 181.43,-86.34 188,-83.91"/>
</g>
<!-- Node11 -->
<g id="node6" class="node">
<title>Node11</title>
<g id="a_node6"><a xlink:title=" ">
<polygon fill="white" stroke="#bfbfbf" points="226.5,-56.5 226.5,-75.5 277.5,-75.5 277.5,-56.5 226.5,-56.5"/>
<text text-anchor="middle" x="252" y="-63.5" font-family="Helvetica,sans-Serif" font-size="10.00">variant</text>
</a>
</g>
</g>
<!-- Node2&#45;&gt;Node11 -->
<g id="edge5" class="edge">
<title>Node2&#45;&gt;Node11</title>
<path fill="none" stroke="midnightblue" d="M206.92,-112.08C214.78,-104.22 226.43,-92.57 235.92,-83.08"/>
<polygon fill="midnightblue" stroke="midnightblue" points="238.65,-85.3 243.25,-75.75 233.7,-80.35 238.65,-85.3"/>
</g>
<!-- Node3&#45;&gt;Node8 -->
<g id="edge3" class="edge">
<title>Node3&#45;&gt;Node8</title>
<path fill="none" stroke="midnightblue" d="M84.01,-56.44C103.59,-47.64 134.31,-33.81 156.73,-23.72"/>
<polygon fill="midnightblue" stroke="midnightblue" points="158.39,-26.81 166.07,-19.52 155.52,-20.43 158.39,-26.81"/>
</g>
</g>
</svg>
