<?xml version="1.0" encoding="UTF-8" standalone="no"?>
<!DOCTYPE svg PUBLIC "-//W3C//DTD SVG 1.1//EN"
 "http://www.w3.org/Graphics/SVG/1.1/DTD/svg11.dtd">
<!-- Generated by graphviz version 2.43.0 (0)
 -->
<!-- Title: include/emlabcpp/experimental/testing/record.h Pages: 1 -->
<svg width="878pt" height="441pt"
 viewBox="0.00 0.00 878.23 441.00" xmlns="http://www.w3.org/2000/svg" xmlns:xlink="http://www.w3.org/1999/xlink">
<g id="graph0" class="graph" transform="scale(1 1) rotate(0) translate(4 437)">
<title>include/emlabcpp/experimental/testing/record.h</title>
<polygon fill="white" stroke="transparent" points="-4,4 -4,-437 874.23,-437 874.23,4 -4,4"/>
<!-- Node1 -->
<g id="node1" class="node">
<title>Node1</title>
<g id="a_node1"><a xlink:title=" ">
<polygon fill="#bfbfbf" stroke="black" points="202.73,-402.5 202.73,-432.5 373.73,-432.5 373.73,-402.5 202.73,-402.5"/>
<text text-anchor="start" x="210.73" y="-420.5" font-family="Helvetica,sans-Serif" font-size="10.00">include/emlabcpp/experimental</text>
<text text-anchor="middle" x="288.23" y="-409.5" font-family="Helvetica,sans-Serif" font-size="10.00">/testing/record.h</text>
</a>
</g>
</g>
<!-- Node2 -->
<g id="node2" class="node">
<title>Node2</title>
<g id="a_node2"><a xlink:href="experimental_2testing_2base_8h.html" target="_top" xlink:title=" ">
<polygon fill="white" stroke="black" points="316.73,-123.5 316.73,-153.5 449.73,-153.5 449.73,-123.5 316.73,-123.5"/>
<text text-anchor="start" x="324.73" y="-141.5" font-family="Helvetica,sans-Serif" font-size="10.00">emlabcpp/experimental</text>
<text text-anchor="middle" x="383.23" y="-130.5" font-family="Helvetica,sans-Serif" font-size="10.00">/testing/base.h</text>
</a>
</g>
</g>
<!-- Node1&#45;&gt;Node2 -->
<g id="edge1" class="edge">
<title>Node1&#45;&gt;Node2</title>
<path fill="none" stroke="midnightblue" d="M285.43,-402.24C278.82,-364.5 265.75,-260.14 307.23,-190 314.96,-176.93 327.56,-166.56 340.29,-158.71"/>
<polygon fill="midnightblue" stroke="midnightblue" points="342.14,-161.69 349.08,-153.68 338.66,-155.61 342.14,-161.69"/>
</g>
<!-- Node23 -->
<g id="node5" class="node">
<title>Node23</title>
<g id="a_node5"><a xlink:href="match_8h.html" target="_top" xlink:title=" ">
<polygon fill="white" stroke="red" points="715.73,-0.5 715.73,-19.5 822.73,-19.5 822.73,-0.5 715.73,-0.5"/>
<text text-anchor="middle" x="769.23" y="-7.5" font-family="Helvetica,sans-Serif" font-size="10.00">emlabcpp/match.h</text>
</a>
</g>
</g>
<!-- Node1&#45;&gt;Node23 -->
<g id="edge26" class="edge">
<title>Node1&#45;&gt;Node23</title>
<path fill="none" stroke="midnightblue" d="M373.79,-413.95C535.56,-406.78 870.23,-379.77 870.23,-279 870.23,-279 870.23,-279 870.23,-137.5 870.23,-97.72 858.61,-86.63 833.23,-56 822.69,-43.29 807.74,-32.51 794.94,-24.69"/>
<polygon fill="midnightblue" stroke="midnightblue" points="796.49,-21.54 786.09,-19.53 792.97,-27.59 796.49,-21.54"/>
</g>
<!-- Node34 -->
<g id="node6" class="node">
<title>Node34</title>
<g id="a_node6"><a xlink:href="static__vector_8h.html" target="_top" xlink:title=" ">
<polygon fill="white" stroke="red" points="387.73,-0.5 387.73,-19.5 526.73,-19.5 526.73,-0.5 387.73,-0.5"/>
<text text-anchor="middle" x="457.23" y="-7.5" font-family="Helvetica,sans-Serif" font-size="10.00">emlabcpp/static_vector.h</text>
</a>
</g>
</g>
<!-- Node1&#45;&gt;Node34 -->
<g id="edge27" class="edge">
<title>Node1&#45;&gt;Node34</title>
<path fill="none" stroke="midnightblue" d="M202.42,-410.8C118.17,-399.99 2.23,-368.8 2.23,-279 2.23,-279 2.23,-279 2.23,-137.5 2.23,-100.31 -6.68,-80.59 21.23,-56 47.34,-32.99 258.73,-19.89 377.3,-14.28"/>
<polygon fill="midnightblue" stroke="midnightblue" points="377.6,-17.77 387.42,-13.81 377.27,-10.78 377.6,-17.77"/>
</g>
<!-- Node56 -->
<g id="node12" class="node">
<title>Node56</title>
<g id="a_node12"><a xlink:href="coroutine_8h.html" target="_top" xlink:title=" ">
<polygon fill="white" stroke="black" points="434.73,-335.5 434.73,-365.5 567.73,-365.5 567.73,-335.5 434.73,-335.5"/>
<text text-anchor="start" x="442.73" y="-353.5" font-family="Helvetica,sans-Serif" font-size="10.00">emlabcpp/experimental</text>
<text text-anchor="middle" x="501.23" y="-342.5" font-family="Helvetica,sans-Serif" font-size="10.00">/testing/coroutine.h</text>
</a>
</g>
</g>
<!-- Node1&#45;&gt;Node56 -->
<g id="edge13" class="edge">
<title>Node1&#45;&gt;Node56</title>
<path fill="none" stroke="midnightblue" d="M334.18,-402.48C366.68,-392.56 410.45,-379.2 445.03,-368.65"/>
<polygon fill="midnightblue" stroke="midnightblue" points="446.44,-371.88 454.99,-365.61 444.4,-365.18 446.44,-371.88"/>
</g>
<!-- Node62 -->
<g id="node18" class="node">
<title>Node62</title>
<g id="a_node18"><a xlink:href="experimental_2testing_2protocol_8h.html" target="_top" xlink:title=" ">
<polygon fill="white" stroke="red" points="126.73,-190.5 126.73,-220.5 259.73,-220.5 259.73,-190.5 126.73,-190.5"/>
<text text-anchor="start" x="134.73" y="-208.5" font-family="Helvetica,sans-Serif" font-size="10.00">emlabcpp/experimental</text>
<text text-anchor="middle" x="193.23" y="-197.5" font-family="Helvetica,sans-Serif" font-size="10.00">/testing/protocol.h</text>
</a>
</g>
</g>
<!-- Node1&#45;&gt;Node62 -->
<g id="edge25" class="edge">
<title>Node1&#45;&gt;Node62</title>
<path fill="none" stroke="midnightblue" d="M281.85,-402.4C265.79,-366.9 223.59,-273.61 203.78,-229.82"/>
<polygon fill="midnightblue" stroke="midnightblue" points="206.89,-228.21 199.58,-220.54 200.51,-231.1 206.89,-228.21"/>
</g>
<!-- Node3 -->
<g id="node3" class="node">
<title>Node3</title>
<g id="a_node3"><a xlink:href="algorithm_8h.html" target="_top" xlink:title=" ">
<polygon fill="white" stroke="red" points="30.23,-62 30.23,-81 154.23,-81 154.23,-62 30.23,-62"/>
<text text-anchor="middle" x="92.23" y="-69" font-family="Helvetica,sans-Serif" font-size="10.00">emlabcpp/algorithm.h</text>
</a>
</g>
</g>
<!-- Node2&#45;&gt;Node3 -->
<g id="edge2" class="edge">
<title>Node2&#45;&gt;Node3</title>
<path fill="none" stroke="midnightblue" d="M320.44,-123.48C266.36,-111.4 189.44,-94.21 140.18,-83.21"/>
<polygon fill="midnightblue" stroke="midnightblue" points="140.93,-79.79 130.41,-81.03 139.41,-86.62 140.93,-79.79"/>
</g>
<!-- Node31 -->
<g id="node4" class="node">
<title>Node31</title>
<g id="a_node4"><a xlink:href="tree_8h.html" target="_top" xlink:title=" ">
<polygon fill="white" stroke="red" points="523.73,-56.5 523.73,-86.5 656.73,-86.5 656.73,-56.5 523.73,-56.5"/>
<text text-anchor="start" x="531.73" y="-74.5" font-family="Helvetica,sans-Serif" font-size="10.00">emlabcpp/experimental</text>
<text text-anchor="middle" x="590.23" y="-63.5" font-family="Helvetica,sans-Serif" font-size="10.00">/contiguous_tree/tree.h</text>
</a>
</g>
</g>
<!-- Node2&#45;&gt;Node31 -->
<g id="edge3" class="edge">
<title>Node2&#45;&gt;Node31</title>
<path fill="none" stroke="midnightblue" d="M427.89,-123.48C459.47,-113.56 502.01,-100.2 535.62,-89.65"/>
<polygon fill="midnightblue" stroke="midnightblue" points="536.8,-92.95 545.29,-86.61 534.7,-86.27 536.8,-92.95"/>
</g>
<!-- Node2&#45;&gt;Node34 -->
<g id="edge8" class="edge">
<title>Node2&#45;&gt;Node34</title>
<path fill="none" stroke="midnightblue" d="M403.82,-123.37C415.56,-114.28 429.61,-101.48 438.23,-87 448.74,-69.32 453.47,-45.99 455.57,-29.87"/>
<polygon fill="midnightblue" stroke="midnightblue" points="459.09,-29.91 456.68,-19.59 452.13,-29.15 459.09,-29.91"/>
</g>
<!-- Node46 -->
<g id="node7" class="node">
<title>Node46</title>
<g id="a_node7"><a xlink:title=" ">
<polygon fill="white" stroke="#bfbfbf" points="558.23,-0.5 558.23,-19.5 596.23,-19.5 596.23,-0.5 558.23,-0.5"/>
<text text-anchor="middle" x="577.23" y="-7.5" font-family="Helvetica,sans-Serif" font-size="10.00">map</text>
</a>
</g>
</g>
<!-- Node2&#45;&gt;Node46 -->
<g id="edge10" class="edge">
<title>Node2&#45;&gt;Node46</title>
<path fill="none" stroke="midnightblue" d="M404.73,-123.48C441.83,-99.28 517.51,-49.94 555.07,-25.45"/>
<polygon fill="midnightblue" stroke="midnightblue" points="557.28,-28.18 563.75,-19.79 553.46,-22.32 557.28,-28.18"/>
</g>
<!-- Node53 -->
<g id="node8" class="node">
<title>Node53</title>
<g id="a_node8"><a xlink:href="static__function_8h.html" target="_top" xlink:title=" ">
<polygon fill="white" stroke="red" points="674.73,-62 674.73,-81 823.73,-81 823.73,-62 674.73,-62"/>
<text text-anchor="middle" x="749.23" y="-69" font-family="Helvetica,sans-Serif" font-size="10.00">emlabcpp/static_function.h</text>
</a>
</g>
</g>
<!-- Node2&#45;&gt;Node53 -->
<g id="edge7" class="edge">
<title>Node2&#45;&gt;Node53</title>
<path fill="none" stroke="midnightblue" d="M449.93,-125.65C518.92,-113.4 625.56,-94.46 691.18,-82.81"/>
<polygon fill="midnightblue" stroke="midnightblue" points="692.11,-86.2 701.35,-81 690.89,-79.31 692.11,-86.2"/>
</g>
<!-- Node54 -->
<g id="node9" class="node">
<title>Node54</title>
<g id="a_node9"><a xlink:title=" ">
<polygon fill="white" stroke="#bfbfbf" points="172.23,-62 172.23,-81 236.23,-81 236.23,-62 172.23,-62"/>
<text text-anchor="middle" x="204.23" y="-69" font-family="Helvetica,sans-Serif" font-size="10.00">algorithm</text>
</a>
</g>
</g>
<!-- Node2&#45;&gt;Node54 -->
<g id="edge9" class="edge">
<title>Node2&#45;&gt;Node54</title>
<path fill="none" stroke="midnightblue" d="M344.39,-123.4C312.42,-111.79 267.61,-95.51 237.33,-84.52"/>
<polygon fill="midnightblue" stroke="midnightblue" points="238.25,-81.13 227.65,-81.01 235.86,-87.71 238.25,-81.13"/>
</g>
<!-- Node55 -->
<g id="node10" class="node">
<title>Node55</title>
<g id="a_node10"><a xlink:title=" ">
<polygon fill="white" stroke="#bfbfbf" points="254.73,-62 254.73,-81 359.73,-81 359.73,-62 254.73,-62"/>
<text text-anchor="middle" x="307.23" y="-69" font-family="Helvetica,sans-Serif" font-size="10.00">memory_resource</text>
</a>
</g>
</g>
<!-- Node2&#45;&gt;Node55 -->
<g id="edge11" class="edge">
<title>Node2&#45;&gt;Node55</title>
<path fill="none" stroke="midnightblue" d="M366.74,-123.4C354.53,-112.96 337.92,-98.75 325.35,-88"/>
<polygon fill="midnightblue" stroke="midnightblue" points="327.27,-85.03 317.39,-81.19 322.72,-90.35 327.27,-85.03"/>
</g>
<!-- Node16 -->
<g id="node11" class="node">
<title>Node16</title>
<g id="a_node11"><a xlink:title=" ">
<polygon fill="white" stroke="#bfbfbf" points="377.73,-62 377.73,-81 428.73,-81 428.73,-62 377.73,-62"/>
<text text-anchor="middle" x="403.23" y="-69" font-family="Helvetica,sans-Serif" font-size="10.00">variant</text>
</a>
</g>
</g>
<!-- Node2&#45;&gt;Node16 -->
<g id="edge12" class="edge">
<title>Node2&#45;&gt;Node16</title>
<path fill="none" stroke="midnightblue" d="M387.57,-123.4C390.5,-113.86 394.4,-101.18 397.58,-90.86"/>
<polygon fill="midnightblue" stroke="midnightblue" points="400.96,-91.78 400.55,-81.19 394.27,-89.72 400.96,-91.78"/>
</g>
<!-- Node31&#45;&gt;Node23 -->
<g id="edge4" class="edge">
<title>Node31&#45;&gt;Node23</title>
<path fill="none" stroke="midnightblue" d="M632.65,-56.4C663.44,-46.16 704.64,-32.47 733.7,-22.81"/>
<polygon fill="midnightblue" stroke="midnightblue" points="735.06,-26.05 743.44,-19.57 732.85,-19.4 735.06,-26.05"/>
</g>
<!-- Node31&#45;&gt;Node34 -->
<g id="edge5" class="edge">
<title>Node31&#45;&gt;Node34</title>
<path fill="none" stroke="midnightblue" d="M558.71,-56.4C536.59,-46.51 507.26,-33.38 485.82,-23.79"/>
<polygon fill="midnightblue" stroke="midnightblue" points="487.14,-20.55 476.58,-19.66 484.28,-26.94 487.14,-20.55"/>
</g>
<!-- Node31&#45;&gt;Node46 -->
<g id="edge6" class="edge">
<title>Node31&#45;&gt;Node46</title>
<path fill="none" stroke="midnightblue" d="M587.15,-56.4C585.39,-48.38 583.18,-38.23 581.28,-29.57"/>
<polygon fill="midnightblue" stroke="midnightblue" points="584.67,-28.68 579.12,-19.66 577.83,-30.17 584.67,-28.68"/>
</g>
<!-- Node57 -->
<g id="node13" class="node">
<title>Node57</title>
<g id="a_node13"><a xlink:href="memory__promise_8h.html" target="_top" xlink:title=" ">
<polygon fill="white" stroke="red" points="702.73,-263 702.73,-293 841.73,-293 841.73,-263 702.73,-263"/>
<text text-anchor="start" x="710.73" y="-281" font-family="Helvetica,sans-Serif" font-size="10.00">emlabcpp/experimental</text>
<text text-anchor="middle" x="772.23" y="-270" font-family="Helvetica,sans-Serif" font-size="10.00">/coro/memory_promise.h</text>
</a>
</g>
</g>
<!-- Node56&#45;&gt;Node57 -->
<g id="edge14" class="edge">
<title>Node56&#45;&gt;Node57</title>
<path fill="none" stroke="midnightblue" d="M555.09,-335.49C599.19,-324.02 661.68,-307.76 708.3,-295.63"/>
<polygon fill="midnightblue" stroke="midnightblue" points="709.2,-299.01 718,-293.11 707.44,-292.24 709.2,-299.01"/>
</g>
<!-- Node58 -->
<g id="node14" class="node">
<title>Node58</title>
<g id="a_node14"><a xlink:href="owning__coroutine__handle_8h.html" target="_top" xlink:title=" ">
<polygon fill="white" stroke="red" points="512.73,-257.5 512.73,-298.5 645.73,-298.5 645.73,-257.5 512.73,-257.5"/>
<text text-anchor="start" x="520.73" y="-286.5" font-family="Helvetica,sans-Serif" font-size="10.00">emlabcpp/experimental</text>
<text text-anchor="start" x="520.73" y="-275.5" font-family="Helvetica,sans-Serif" font-size="10.00">/coro/owning_coroutine</text>
<text text-anchor="middle" x="579.23" y="-264.5" font-family="Helvetica,sans-Serif" font-size="10.00">_handle.h</text>
</a>
</g>
</g>
<!-- Node56&#45;&gt;Node58 -->
<g id="edge15" class="edge">
<title>Node56&#45;&gt;Node58</title>
<path fill="none" stroke="midnightblue" d="M517.01,-335.23C526.49,-326.67 538.84,-315.5 550.04,-305.38"/>
<polygon fill="midnightblue" stroke="midnightblue" points="552.48,-307.89 557.55,-298.59 547.79,-302.7 552.48,-307.89"/>
</g>
<!-- Node59 -->
<g id="node15" class="node">
<title>Node59</title>
<g id="a_node15"><a xlink:title=" ">
<polygon fill="white" stroke="#bfbfbf" points="609.23,-196 609.23,-215 671.23,-215 671.23,-196 609.23,-196"/>
<text text-anchor="middle" x="640.23" y="-203" font-family="Helvetica,sans-Serif" font-size="10.00">coroutine</text>
</a>
</g>
</g>
<!-- Node56&#45;&gt;Node59 -->
<g id="edge24" class="edge">
<title>Node56&#45;&gt;Node59</title>
<path fill="none" stroke="midnightblue" d="M567.87,-345.18C599.76,-339.36 635.25,-326.57 655.23,-299 671.23,-276.91 659.84,-244.08 650.07,-224.05"/>
<polygon fill="midnightblue" stroke="midnightblue" points="653.13,-222.35 645.4,-215.11 646.92,-225.59 653.13,-222.35"/>
</g>
<!-- Node60 -->
<g id="node16" class="node">
<title>Node60</title>
<g id="a_node16"><a xlink:href="experimental_2testing_2convert_8h.html" target="_top" xlink:title=" ">
<polygon fill="white" stroke="black" points="316.73,-190.5 316.73,-220.5 449.73,-220.5 449.73,-190.5 316.73,-190.5"/>
<text text-anchor="start" x="324.73" y="-208.5" font-family="Helvetica,sans-Serif" font-size="10.00">emlabcpp/experimental</text>
<text text-anchor="middle" x="383.23" y="-197.5" font-family="Helvetica,sans-Serif" font-size="10.00">/testing/convert.h</text>
</a>
</g>
</g>
<!-- Node56&#45;&gt;Node60 -->
<g id="edge17" class="edge">
<title>Node56&#45;&gt;Node60</title>
<path fill="none" stroke="midnightblue" d="M434.54,-345.56C402.04,-339.87 365.66,-327.09 345.23,-299 329.5,-277.38 346.45,-248.3 362.45,-228.55"/>
<polygon fill="midnightblue" stroke="midnightblue" points="365.31,-230.59 369.15,-220.71 359.99,-226.04 365.31,-230.59"/>
</g>
<!-- Node61 -->
<g id="node17" class="node">
<title>Node61</title>
<g id="a_node17"><a xlink:href="reactor__interface__adapter_8h.html" target="_top" xlink:title=" ">
<polygon fill="white" stroke="black" points="354.23,-257.5 354.23,-298.5 494.23,-298.5 494.23,-257.5 354.23,-257.5"/>
<text text-anchor="start" x="362.23" y="-286.5" font-family="Helvetica,sans-Serif" font-size="10.00">emlabcpp/experimental</text>
<text text-anchor="start" x="362.23" y="-275.5" font-family="Helvetica,sans-Serif" font-size="10.00">/testing/reactor_interface</text>
<text text-anchor="middle" x="424.23" y="-264.5" font-family="Helvetica,sans-Serif" font-size="10.00">_adapter.h</text>
</a>
</g>
</g>
<!-- Node56&#45;&gt;Node61 -->
<g id="edge19" class="edge">
<title>Node56&#45;&gt;Node61</title>
<path fill="none" stroke="midnightblue" d="M485.64,-335.23C476.29,-326.67 464.1,-315.5 453.04,-305.38"/>
<polygon fill="midnightblue" stroke="midnightblue" points="455.36,-302.76 445.62,-298.59 450.63,-307.92 455.36,-302.76"/>
</g>
<!-- Node58&#45;&gt;Node59 -->
<g id="edge16" class="edge">
<title>Node58&#45;&gt;Node59</title>
<path fill="none" stroke="midnightblue" d="M596.22,-257.36C605.58,-246.54 617.08,-233.26 625.97,-222.98"/>
<polygon fill="midnightblue" stroke="midnightblue" points="628.83,-225.03 632.72,-215.17 623.53,-220.45 628.83,-225.03"/>
</g>
<!-- Node60&#45;&gt;Node2 -->
<g id="edge18" class="edge">
<title>Node60&#45;&gt;Node2</title>
<path fill="none" stroke="midnightblue" d="M383.23,-190.4C383.23,-182.64 383.23,-172.81 383.23,-163.86"/>
<polygon fill="midnightblue" stroke="midnightblue" points="386.73,-163.58 383.23,-153.58 379.73,-163.58 386.73,-163.58"/>
</g>
<!-- Node61&#45;&gt;Node53 -->
<g id="edge23" class="edge">
<title>Node61&#45;&gt;Node53</title>
<path fill="none" stroke="midnightblue" d="M455.39,-257.39C520.71,-216.29 670.58,-121.99 727.1,-86.42"/>
<polygon fill="midnightblue" stroke="midnightblue" points="729.05,-89.33 735.65,-81.04 725.32,-83.41 729.05,-89.33"/>
</g>
<!-- Node61&#45;&gt;Node62 -->
<g id="edge20" class="edge">
<title>Node61&#45;&gt;Node62</title>
<path fill="none" stroke="midnightblue" d="M360.19,-257.46C325.31,-246.81 282.56,-233.76 249.05,-223.54"/>
<polygon fill="midnightblue" stroke="midnightblue" points="250,-220.17 239.42,-220.6 247.96,-226.86 250,-220.17"/>
</g>
<!-- Node62&#45;&gt;Node2 -->
<g id="edge22" class="edge">
<title>Node62&#45;&gt;Node2</title>
<path fill="none" stroke="midnightblue" d="M234.45,-190.4C263.21,-180.56 301.77,-167.37 332.43,-156.88"/>
<polygon fill="midnightblue" stroke="midnightblue" points="333.75,-160.13 342.08,-153.58 331.49,-153.5 333.75,-160.13"/>
</g>
<!-- Node62&#45;&gt;Node3 -->
<g id="edge21" class="edge">
<title>Node62&#45;&gt;Node3</title>
<path fill="none" stroke="midnightblue" d="M182.42,-190.37C163.66,-165.86 125.18,-115.56 105.08,-89.3"/>
<polygon fill="midnightblue" stroke="midnightblue" points="107.66,-86.91 98.8,-81.1 102.1,-91.17 107.66,-86.91"/>
</g>
</g>
</svg>
