<?xml version="1.0" encoding="UTF-8" standalone="no"?>
<!DOCTYPE svg PUBLIC "-//W3C//DTD SVG 1.1//EN"
 "http://www.w3.org/Graphics/SVG/1.1/DTD/svg11.dtd">
<!-- Generated by graphviz version 2.43.0 (0)
 -->
<!-- Title: include/emlabcpp/experimental/testing/record.h Pages: 1 -->
<svg width="663pt" height="363pt"
 viewBox="0.00 0.00 663.00 363.00" xmlns="http://www.w3.org/2000/svg" xmlns:xlink="http://www.w3.org/1999/xlink">
<g id="graph0" class="graph" transform="scale(1 1) rotate(0) translate(4 359)">
<title>include/emlabcpp/experimental/testing/record.h</title>
<polygon fill="white" stroke="transparent" points="-4,4 -4,-359 659,-359 659,4 -4,4"/>
<!-- Node1 -->
<g id="node1" class="node">
<title>Node1</title>
<g id="a_node1"><a xlink:title=" ">
<polygon fill="#bfbfbf" stroke="black" points="123,-324.5 123,-354.5 294,-354.5 294,-324.5 123,-324.5"/>
<text text-anchor="start" x="131" y="-342.5" font-family="Helvetica,sans-Serif" font-size="10.00">include/emlabcpp/experimental</text>
<text text-anchor="middle" x="208.5" y="-331.5" font-family="Helvetica,sans-Serif" font-size="10.00">/testing/record.h</text>
</a>
</g>
</g>
<!-- Node2 -->
<g id="node2" class="node">
<title>Node2</title>
<g id="a_node2"><a xlink:href="experimental_2testing_2base_8h.html" target="_top" xlink:title=" ">
<polygon fill="white" stroke="black" points="95,-190.5 95,-220.5 228,-220.5 228,-190.5 95,-190.5"/>
<text text-anchor="start" x="103" y="-208.5" font-family="Helvetica,sans-Serif" font-size="10.00">emlabcpp/experimental</text>
<text text-anchor="middle" x="161.5" y="-197.5" font-family="Helvetica,sans-Serif" font-size="10.00">/testing/base.h</text>
</a>
</g>
</g>
<!-- Node1&#45;&gt;Node2 -->
<g id="edge1" class="edge">
<title>Node1&#45;&gt;Node2</title>
<path fill="none" stroke="midnightblue" d="M203.47,-324.37C195.45,-301.85 179.67,-257.53 169.91,-230.12"/>
<polygon fill="midnightblue" stroke="midnightblue" points="173.15,-228.77 166.49,-220.52 166.55,-231.12 173.15,-228.77"/>
</g>
<!-- Node30 -->
<g id="node5" class="node">
<title>Node30</title>
<g id="a_node5"><a xlink:href="static__vector_8h.html" target="_top" xlink:title=" ">
<polygon fill="white" stroke="red" points="0,-0.5 0,-19.5 139,-19.5 139,-0.5 0,-0.5"/>
<text text-anchor="middle" x="69.5" y="-7.5" font-family="Helvetica,sans-Serif" font-size="10.00">emlabcpp/static_vector.h</text>
</a>
</g>
</g>
<!-- Node1&#45;&gt;Node30 -->
<g id="edge22" class="edge">
<title>Node1&#45;&gt;Node30</title>
<path fill="none" stroke="midnightblue" d="M139.28,-324.49C79.11,-307.79 1.5,-273.31 1.5,-206.5 1.5,-206.5 1.5,-206.5 1.5,-137.5 1.5,-93.5 33.81,-50.06 53.88,-27.31"/>
<polygon fill="midnightblue" stroke="midnightblue" points="56.73,-29.39 60.89,-19.64 51.56,-24.66 56.73,-29.39"/>
</g>
<!-- Node33 -->
<g id="node9" class="node">
<title>Node33</title>
<g id="a_node9"><a xlink:href="match_8h.html" target="_top" xlink:title=" ">
<polygon fill="white" stroke="red" points="548,-62 548,-81 655,-81 655,-62 548,-62"/>
<text text-anchor="middle" x="601.5" y="-69" font-family="Helvetica,sans-Serif" font-size="10.00">emlabcpp/match.h</text>
</a>
</g>
</g>
<!-- Node1&#45;&gt;Node33 -->
<g id="edge21" class="edge">
<title>Node1&#45;&gt;Node33</title>
<path fill="none" stroke="midnightblue" d="M294.32,-324.51C397.26,-305.79 560.62,-269.29 597.5,-221 626.64,-182.85 615.52,-121.67 607.28,-91.12"/>
<polygon fill="midnightblue" stroke="midnightblue" points="610.59,-89.98 604.45,-81.35 603.87,-91.93 610.59,-89.98"/>
</g>
<!-- Node47 -->
<g id="node11" class="node">
<title>Node47</title>
<g id="a_node11"><a xlink:href="experimental_2testing_2protocol_8h.html" target="_top" xlink:title=" ">
<polygon fill="white" stroke="black" points="233,-257.5 233,-287.5 366,-287.5 366,-257.5 233,-257.5"/>
<text text-anchor="start" x="241" y="-275.5" font-family="Helvetica,sans-Serif" font-size="10.00">emlabcpp/experimental</text>
<text text-anchor="middle" x="299.5" y="-264.5" font-family="Helvetica,sans-Serif" font-size="10.00">/testing/protocol.h</text>
</a>
</g>
</g>
<!-- Node1&#45;&gt;Node47 -->
<g id="edge15" class="edge">
<title>Node1&#45;&gt;Node47</title>
<path fill="none" stroke="midnightblue" d="M228.25,-324.4C240.89,-315.37 257.48,-303.51 271.47,-293.52"/>
<polygon fill="midnightblue" stroke="midnightblue" points="273.69,-296.24 279.79,-287.58 269.62,-290.54 273.69,-296.24"/>
</g>
<!-- Node3 -->
<g id="node3" class="node">
<title>Node3</title>
<g id="a_node3"><a xlink:href="algorithm_8h.html" target="_top" xlink:title=" ">
<polygon fill="white" stroke="red" points="428.5,-129 428.5,-148 552.5,-148 552.5,-129 428.5,-129"/>
<text text-anchor="middle" x="490.5" y="-136" font-family="Helvetica,sans-Serif" font-size="10.00">emlabcpp/algorithm.h</text>
</a>
</g>
</g>
<!-- Node2&#45;&gt;Node3 -->
<g id="edge2" class="edge">
<title>Node2&#45;&gt;Node3</title>
<path fill="none" stroke="midnightblue" d="M228.08,-191.51C279.97,-181.36 353.83,-166.86 418.5,-154 424.82,-152.74 431.45,-151.42 438.02,-150.1"/>
<polygon fill="midnightblue" stroke="midnightblue" points="439.13,-153.45 448.25,-148.04 437.75,-146.58 439.13,-153.45"/>
</g>
<!-- Node23 -->
<g id="node4" class="node">
<title>Node23</title>
<g id="a_node4"><a xlink:href="pool_8h.html" target="_top" xlink:title=" ">
<polygon fill="white" stroke="red" points="67.5,-56.5 67.5,-86.5 177.5,-86.5 177.5,-56.5 67.5,-56.5"/>
<text text-anchor="start" x="75.5" y="-74.5" font-family="Helvetica,sans-Serif" font-size="10.00">emlabcpp/allocator</text>
<text text-anchor="middle" x="122.5" y="-63.5" font-family="Helvetica,sans-Serif" font-size="10.00">/pool.h</text>
</a>
</g>
</g>
<!-- Node2&#45;&gt;Node23 -->
<g id="edge3" class="edge">
<title>Node2&#45;&gt;Node23</title>
<path fill="none" stroke="midnightblue" d="M157.33,-190.37C150.67,-167.85 137.58,-123.53 129.48,-96.12"/>
<polygon fill="midnightblue" stroke="midnightblue" points="132.83,-95.12 126.64,-86.52 126.12,-97.11 132.83,-95.12"/>
</g>
<!-- Node2&#45;&gt;Node30 -->
<g id="edge12" class="edge">
<title>Node2&#45;&gt;Node30</title>
<path fill="none" stroke="midnightblue" d="M142.54,-190.34C117.69,-170.47 75.31,-131.69 58.5,-87 51.4,-68.14 56.52,-45.06 61.9,-29.32"/>
<polygon fill="midnightblue" stroke="midnightblue" points="65.26,-30.33 65.52,-19.73 58.72,-27.85 65.26,-30.33"/>
</g>
<!-- Node40 -->
<g id="node6" class="node">
<title>Node40</title>
<g id="a_node6"><a xlink:title=" ">
<polygon fill="white" stroke="#bfbfbf" points="186.5,-0.5 186.5,-19.5 224.5,-19.5 224.5,-0.5 186.5,-0.5"/>
<text text-anchor="middle" x="205.5" y="-7.5" font-family="Helvetica,sans-Serif" font-size="10.00">map</text>
</a>
</g>
</g>
<!-- Node2&#45;&gt;Node40 -->
<g id="edge13" class="edge">
<title>Node2&#45;&gt;Node40</title>
<path fill="none" stroke="midnightblue" d="M164.74,-190.27C172.57,-155.8 192.58,-67.81 201.32,-29.4"/>
<polygon fill="midnightblue" stroke="midnightblue" points="204.75,-30.1 203.55,-19.58 197.92,-28.55 204.75,-30.1"/>
</g>
<!-- Node43 -->
<g id="node7" class="node">
<title>Node43</title>
<g id="a_node7"><a xlink:href="tree_8h.html" target="_top" xlink:title=" ">
<polygon fill="white" stroke="red" points="208,-123.5 208,-153.5 341,-153.5 341,-123.5 208,-123.5"/>
<text text-anchor="start" x="216" y="-141.5" font-family="Helvetica,sans-Serif" font-size="10.00">emlabcpp/experimental</text>
<text text-anchor="middle" x="274.5" y="-130.5" font-family="Helvetica,sans-Serif" font-size="10.00">/contiguous_tree/tree.h</text>
</a>
</g>
</g>
<!-- Node2&#45;&gt;Node43 -->
<g id="edge6" class="edge">
<title>Node2&#45;&gt;Node43</title>
<path fill="none" stroke="midnightblue" d="M186.02,-190.4C202.16,-181.11 223.49,-168.84 241.17,-158.67"/>
<polygon fill="midnightblue" stroke="midnightblue" points="243.11,-161.6 250.03,-153.58 239.62,-155.53 243.11,-161.6"/>
</g>
<!-- Node16 -->
<g id="node10" class="node">
<title>Node16</title>
<g id="a_node10"><a xlink:title=" ">
<polygon fill="white" stroke="#bfbfbf" points="359,-129 359,-148 410,-148 410,-129 359,-129"/>
<text text-anchor="middle" x="384.5" y="-136" font-family="Helvetica,sans-Serif" font-size="10.00">variant</text>
</a>
</g>
</g>
<!-- Node2&#45;&gt;Node16 -->
<g id="edge14" class="edge">
<title>Node2&#45;&gt;Node16</title>
<path fill="none" stroke="midnightblue" d="M221.79,-190.43C258.97,-181.23 307.42,-168.3 349.5,-154 351.41,-153.35 353.37,-152.65 355.34,-151.91"/>
<polygon fill="midnightblue" stroke="midnightblue" points="357.03,-155.01 365.05,-148.08 354.46,-148.5 357.03,-155.01"/>
</g>
<!-- Node23&#45;&gt;Node30 -->
<g id="edge4" class="edge">
<title>Node23&#45;&gt;Node30</title>
<path fill="none" stroke="midnightblue" d="M109.94,-56.4C102.16,-47.66 92.14,-36.41 84.02,-27.3"/>
<polygon fill="midnightblue" stroke="midnightblue" points="86.48,-24.8 77.21,-19.66 81.25,-29.45 86.48,-24.8"/>
</g>
<!-- Node23&#45;&gt;Node40 -->
<g id="edge5" class="edge">
<title>Node23&#45;&gt;Node40</title>
<path fill="none" stroke="midnightblue" d="M142.17,-56.4C155.1,-47.13 171.99,-35.03 185.07,-25.65"/>
<polygon fill="midnightblue" stroke="midnightblue" points="187.33,-28.33 193.42,-19.66 183.26,-22.64 187.33,-28.33"/>
</g>
<!-- Node43&#45;&gt;Node23 -->
<g id="edge7" class="edge">
<title>Node43&#45;&gt;Node23</title>
<path fill="none" stroke="midnightblue" d="M241.52,-123.4C219.01,-113.77 189,-100.94 164.74,-90.56"/>
<polygon fill="midnightblue" stroke="midnightblue" points="165.99,-87.29 155.42,-86.58 163.24,-93.73 165.99,-87.29"/>
</g>
<!-- Node43&#45;&gt;Node30 -->
<g id="edge10" class="edge">
<title>Node43&#45;&gt;Node30</title>
<path fill="none" stroke="midnightblue" d="M262.39,-123.36C246.52,-105.57 217.08,-75.05 186.5,-56 162.98,-41.35 133.92,-30.14 110.64,-22.58"/>
<polygon fill="midnightblue" stroke="midnightblue" points="111.64,-19.22 101.06,-19.56 109.54,-25.9 111.64,-19.22"/>
</g>
<!-- Node43&#45;&gt;Node40 -->
<g id="edge11" class="edge">
<title>Node43&#45;&gt;Node40</title>
<path fill="none" stroke="midnightblue" d="M274.25,-123.26C273.36,-106.17 269.95,-77.18 257.5,-56 250.31,-43.78 238.61,-33.21 228.12,-25.4"/>
<polygon fill="midnightblue" stroke="midnightblue" points="229.91,-22.38 219.72,-19.5 225.89,-28.11 229.91,-22.38"/>
</g>
<!-- Node44 -->
<g id="node8" class="node">
<title>Node44</title>
<g id="a_node8"><a xlink:href="experimental_2contiguous__tree_2base_8h.html" target="_top" xlink:title=" ">
<polygon fill="white" stroke="black" points="368,-56.5 368,-86.5 501,-86.5 501,-56.5 368,-56.5"/>
<text text-anchor="start" x="376" y="-74.5" font-family="Helvetica,sans-Serif" font-size="10.00">emlabcpp/experimental</text>
<text text-anchor="middle" x="434.5" y="-63.5" font-family="Helvetica,sans-Serif" font-size="10.00">/contiguous_tree/base.h</text>
</a>
</g>
</g>
<!-- Node43&#45;&gt;Node44 -->
<g id="edge8" class="edge">
<title>Node43&#45;&gt;Node44</title>
<path fill="none" stroke="midnightblue" d="M309.22,-123.4C333.01,-113.73 364.78,-100.82 390.37,-90.43"/>
<polygon fill="midnightblue" stroke="midnightblue" points="391.9,-93.58 399.85,-86.58 389.27,-87.1 391.9,-93.58"/>
</g>
<!-- Node43&#45;&gt;Node33 -->
<g id="edge9" class="edge">
<title>Node43&#45;&gt;Node33</title>
<path fill="none" stroke="midnightblue" d="M341.07,-124.27C402.24,-112.11 491.76,-94.31 548.3,-83.08"/>
<polygon fill="midnightblue" stroke="midnightblue" points="549.33,-86.44 558.46,-81.06 547.97,-79.57 549.33,-86.44"/>
</g>
<!-- Node47&#45;&gt;Node2 -->
<g id="edge18" class="edge">
<title>Node47&#45;&gt;Node2</title>
<path fill="none" stroke="midnightblue" d="M269.56,-257.4C249.3,-247.86 222.35,-235.16 200.44,-224.84"/>
<polygon fill="midnightblue" stroke="midnightblue" points="201.92,-221.67 191.39,-220.58 198.94,-228 201.92,-221.67"/>
</g>
<!-- Node47&#45;&gt;Node3 -->
<g id="edge16" class="edge">
<title>Node47&#45;&gt;Node3</title>
<path fill="none" stroke="midnightblue" d="M288.35,-257.36C275.99,-239.84 259.74,-209.88 275.5,-190 280.63,-183.52 376.36,-162.87 438.33,-150.07"/>
<polygon fill="midnightblue" stroke="midnightblue" points="439.26,-153.45 448.35,-148.01 437.85,-146.59 439.26,-153.45"/>
</g>
<!-- Node47&#45;&gt;Node44 -->
<g id="edge17" class="edge">
<title>Node47&#45;&gt;Node44</title>
<path fill="none" stroke="midnightblue" d="M366.25,-269.01C440.29,-264.67 552.85,-252.88 579.5,-221 596.81,-200.29 572.65,-135.53 561.5,-123 548.07,-107.91 529.53,-97.28 510.76,-89.8"/>
<polygon fill="midnightblue" stroke="midnightblue" points="511.85,-86.47 501.26,-86.27 509.42,-93.03 511.85,-86.47"/>
</g>
<!-- Node48 -->
<g id="node12" class="node">
<title>Node48</title>
<g id="a_node12"><a xlink:href="protocol_8h.html" target="_top" xlink:title=" ">
<polygon fill="white" stroke="red" points="284.5,-196 284.5,-215 400.5,-215 400.5,-196 284.5,-196"/>
<text text-anchor="middle" x="342.5" y="-203" font-family="Helvetica,sans-Serif" font-size="10.00">emlabcpp/protocol.h</text>
</a>
</g>
</g>
<!-- Node47&#45;&gt;Node48 -->
<g id="edge19" class="edge">
<title>Node47&#45;&gt;Node48</title>
<path fill="none" stroke="midnightblue" d="M308.83,-257.4C315.4,-247.46 324.24,-234.11 331.21,-223.57"/>
<polygon fill="midnightblue" stroke="midnightblue" points="334.15,-225.47 336.75,-215.19 328.31,-221.6 334.15,-225.47"/>
</g>
<!-- Node61 -->
<g id="node13" class="node">
<title>Node61</title>
<g id="a_node13"><a xlink:href="packet_8h.html" target="_top" xlink:title=" ">
<polygon fill="white" stroke="red" points="418.5,-196 418.5,-215 570.5,-215 570.5,-196 418.5,-196"/>
<text text-anchor="middle" x="494.5" y="-203" font-family="Helvetica,sans-Serif" font-size="10.00">emlabcpp/protocol/packet.h</text>
</a>
</g>
</g>
<!-- Node47&#45;&gt;Node61 -->
<g id="edge20" class="edge">
<title>Node47&#45;&gt;Node61</title>
<path fill="none" stroke="midnightblue" d="M341.81,-257.4C376.94,-245.69 426.31,-229.23 459.3,-218.23"/>
<polygon fill="midnightblue" stroke="midnightblue" points="460.6,-221.49 468.98,-215.01 458.39,-214.85 460.6,-221.49"/>
</g>
</g>
</svg>
