<?xml version="1.0" encoding="UTF-8" standalone="no"?>
<!DOCTYPE svg PUBLIC "-//W3C//DTD SVG 1.1//EN"
 "http://www.w3.org/Graphics/SVG/1.1/DTD/svg11.dtd">
<!-- Generated by graphviz version 2.43.0 (0)
 -->
<!-- Title: include/emlabcpp/experimental/testing/record.h Pages: 1 -->
<svg width="662pt" height="296pt"
 viewBox="0.00 0.00 662.13 296.00" xmlns="http://www.w3.org/2000/svg" xmlns:xlink="http://www.w3.org/1999/xlink">
<g id="graph0" class="graph" transform="scale(1 1) rotate(0) translate(4 292)">
<title>include/emlabcpp/experimental/testing/record.h</title>
<polygon fill="white" stroke="transparent" points="-4,4 -4,-292 658.13,-292 658.13,4 -4,4"/>
<!-- Node1 -->
<g id="node1" class="node">
<title>Node1</title>
<g id="a_node1"><a xlink:title=" ">
<polygon fill="#bfbfbf" stroke="black" points="351.5,-257.5 351.5,-287.5 522.5,-287.5 522.5,-257.5 351.5,-257.5"/>
<text text-anchor="start" x="359.5" y="-275.5" font-family="Helvetica,sans-Serif" font-size="10.00">include/emlabcpp/experimental</text>
<text text-anchor="middle" x="437" y="-264.5" font-family="Helvetica,sans-Serif" font-size="10.00">/testing/record.h</text>
</a>
</g>
</g>
<!-- Node2 -->
<g id="node2" class="node">
<title>Node2</title>
<g id="a_node2"><a xlink:href="experimental_2testing_2base_8h.html" target="_top" xlink:title=" ">
<polygon fill="white" stroke="black" points="44.5,-123.5 44.5,-153.5 177.5,-153.5 177.5,-123.5 44.5,-123.5"/>
<text text-anchor="start" x="52.5" y="-141.5" font-family="Helvetica,sans-Serif" font-size="10.00">emlabcpp/experimental</text>
<text text-anchor="middle" x="111" y="-130.5" font-family="Helvetica,sans-Serif" font-size="10.00">/testing/base.h</text>
</a>
</g>
</g>
<!-- Node1&#45;&gt;Node2 -->
<g id="edge1" class="edge">
<title>Node1&#45;&gt;Node2</title>
<path fill="none" stroke="midnightblue" d="M351.5,-260.86C309.27,-253.42 258.42,-241.09 216,-221 183.78,-205.74 152.21,-179.22 132.24,-160.58"/>
<polygon fill="midnightblue" stroke="midnightblue" points="134.58,-157.98 124.92,-153.62 129.75,-163.05 134.58,-157.98"/>
</g>
<!-- Node30 -->
<g id="node5" class="node">
<title>Node30</title>
<g id="a_node5"><a xlink:href="static__vector_8h.html" target="_top" xlink:title=" ">
<polygon fill="white" stroke="red" points="85.5,-0.5 85.5,-19.5 224.5,-19.5 224.5,-0.5 85.5,-0.5"/>
<text text-anchor="middle" x="155" y="-7.5" font-family="Helvetica,sans-Serif" font-size="10.00">emlabcpp/static_vector.h</text>
</a>
</g>
</g>
<!-- Node1&#45;&gt;Node30 -->
<g id="edge17" class="edge">
<title>Node1&#45;&gt;Node30</title>
<path fill="none" stroke="midnightblue" d="M493.67,-257.48C568.89,-235.96 687.52,-190.08 645,-123 601.5,-54.38 362.04,-26.33 234.7,-16.13"/>
<polygon fill="midnightblue" stroke="midnightblue" points="234.85,-12.63 224.61,-15.34 234.31,-19.61 234.85,-12.63"/>
</g>
<!-- Node38 -->
<g id="node8" class="node">
<title>Node38</title>
<g id="a_node8"><a xlink:href="experimental_2testing_2protocol_8h.html" target="_top" xlink:title=" ">
<polygon fill="white" stroke="black" points="225.5,-190.5 225.5,-220.5 358.5,-220.5 358.5,-190.5 225.5,-190.5"/>
<text text-anchor="start" x="233.5" y="-208.5" font-family="Helvetica,sans-Serif" font-size="10.00">emlabcpp/experimental</text>
<text text-anchor="middle" x="292" y="-197.5" font-family="Helvetica,sans-Serif" font-size="10.00">/testing/protocol.h</text>
</a>
</g>
</g>
<!-- Node1&#45;&gt;Node38 -->
<g id="edge9" class="edge">
<title>Node1&#45;&gt;Node38</title>
<path fill="none" stroke="midnightblue" d="M405.54,-257.4C384.16,-247.81 355.69,-235.05 332.6,-224.7"/>
<polygon fill="midnightblue" stroke="midnightblue" points="333.96,-221.47 323.4,-220.58 331.09,-227.86 333.96,-221.47"/>
</g>
<!-- Node60 -->
<g id="node11" class="node">
<title>Node60</title>
<g id="a_node11"><a xlink:href="match_8h.html" target="_top" xlink:title=" ">
<polygon fill="white" stroke="black" points="456.5,-196 456.5,-215 563.5,-215 563.5,-196 456.5,-196"/>
<text text-anchor="middle" x="510" y="-203" font-family="Helvetica,sans-Serif" font-size="10.00">emlabcpp/match.h</text>
</a>
</g>
</g>
<!-- Node1&#45;&gt;Node60 -->
<g id="edge14" class="edge">
<title>Node1&#45;&gt;Node60</title>
<path fill="none" stroke="midnightblue" d="M452.84,-257.4C464.56,-246.96 480.52,-232.75 492.59,-222"/>
<polygon fill="midnightblue" stroke="midnightblue" points="495.09,-224.46 500.24,-215.19 490.44,-219.23 495.09,-224.46"/>
</g>
<!-- Node3 -->
<g id="node3" class="node">
<title>Node3</title>
<g id="a_node3"><a xlink:href="algorithm_8h.html" target="_top" xlink:title=" ">
<polygon fill="white" stroke="red" points="183,-62 183,-81 307,-81 307,-62 183,-62"/>
<text text-anchor="middle" x="245" y="-69" font-family="Helvetica,sans-Serif" font-size="10.00">emlabcpp/algorithm.h</text>
</a>
</g>
</g>
<!-- Node2&#45;&gt;Node3 -->
<g id="edge2" class="edge">
<title>Node2&#45;&gt;Node3</title>
<path fill="none" stroke="midnightblue" d="M140.08,-123.4C163.38,-112.09 195.81,-96.36 218.43,-85.39"/>
<polygon fill="midnightblue" stroke="midnightblue" points="219.99,-88.52 227.46,-81.01 216.94,-82.22 219.99,-88.52"/>
</g>
<!-- Node22 -->
<g id="node4" class="node">
<title>Node22</title>
<g id="a_node4"><a xlink:href="pool_8h.html" target="_top" xlink:title=" ">
<polygon fill="white" stroke="red" points="17,-56.5 17,-86.5 127,-86.5 127,-56.5 17,-56.5"/>
<text text-anchor="start" x="25" y="-74.5" font-family="Helvetica,sans-Serif" font-size="10.00">emlabcpp/allocator</text>
<text text-anchor="middle" x="72" y="-63.5" font-family="Helvetica,sans-Serif" font-size="10.00">/pool.h</text>
</a>
</g>
</g>
<!-- Node2&#45;&gt;Node22 -->
<g id="edge3" class="edge">
<title>Node2&#45;&gt;Node22</title>
<path fill="none" stroke="midnightblue" d="M102.54,-123.4C97.63,-115.22 91.34,-104.73 85.74,-95.39"/>
<polygon fill="midnightblue" stroke="midnightblue" points="88.59,-93.35 80.45,-86.58 82.59,-96.95 88.59,-93.35"/>
</g>
<!-- Node2&#45;&gt;Node30 -->
<g id="edge6" class="edge">
<title>Node2&#45;&gt;Node30</title>
<path fill="none" stroke="midnightblue" d="M119.07,-123.28C124.44,-113.36 131.34,-99.67 136,-87 143.02,-67.89 148.33,-45.15 151.53,-29.55"/>
<polygon fill="midnightblue" stroke="midnightblue" points="154.98,-30.1 153.47,-19.61 148.12,-28.75 154.98,-30.1"/>
</g>
<!-- Node35 -->
<g id="node6" class="node">
<title>Node35</title>
<g id="a_node6"><a xlink:title=" ">
<polygon fill="white" stroke="#bfbfbf" points="0,-0.5 0,-19.5 38,-19.5 38,-0.5 0,-0.5"/>
<text text-anchor="middle" x="19" y="-7.5" font-family="Helvetica,sans-Serif" font-size="10.00">map</text>
</a>
</g>
</g>
<!-- Node2&#45;&gt;Node35 -->
<g id="edge7" class="edge">
<title>Node2&#45;&gt;Node35</title>
<path fill="none" stroke="midnightblue" d="M55.96,-123.49C37.46,-115.87 18.8,-104.32 8,-87 -2.88,-69.55 3.34,-45.55 10.01,-29.21"/>
<polygon fill="midnightblue" stroke="midnightblue" points="13.36,-30.29 14.28,-19.74 6.98,-27.42 13.36,-30.29"/>
</g>
<!-- Node15 -->
<g id="node7" class="node">
<title>Node15</title>
<g id="a_node7"><a xlink:title=" ">
<polygon fill="white" stroke="#bfbfbf" points="443.5,-62 443.5,-81 494.5,-81 494.5,-62 443.5,-62"/>
<text text-anchor="middle" x="469" y="-69" font-family="Helvetica,sans-Serif" font-size="10.00">variant</text>
</a>
</g>
</g>
<!-- Node2&#45;&gt;Node15 -->
<g id="edge8" class="edge">
<title>Node2&#45;&gt;Node15</title>
<path fill="none" stroke="midnightblue" d="M177.92,-125.35C253.52,-111.62 373.76,-89.79 433.25,-78.99"/>
<polygon fill="midnightblue" stroke="midnightblue" points="434.07,-82.4 443.29,-77.17 432.82,-75.51 434.07,-82.4"/>
</g>
<!-- Node22&#45;&gt;Node30 -->
<g id="edge4" class="edge">
<title>Node22&#45;&gt;Node30</title>
<path fill="none" stroke="midnightblue" d="M91.67,-56.4C104.6,-47.13 121.49,-35.03 134.57,-25.65"/>
<polygon fill="midnightblue" stroke="midnightblue" points="136.83,-28.33 142.92,-19.66 132.76,-22.64 136.83,-28.33"/>
</g>
<!-- Node22&#45;&gt;Node35 -->
<g id="edge5" class="edge">
<title>Node22&#45;&gt;Node35</title>
<path fill="none" stroke="midnightblue" d="M59.44,-56.4C51.66,-47.66 41.64,-36.41 33.52,-27.3"/>
<polygon fill="midnightblue" stroke="midnightblue" points="35.98,-24.8 26.71,-19.66 30.75,-29.45 35.98,-24.8"/>
</g>
<!-- Node38&#45;&gt;Node2 -->
<g id="edge11" class="edge">
<title>Node38&#45;&gt;Node2</title>
<path fill="none" stroke="midnightblue" d="M252.73,-190.4C225.45,-180.6 188.92,-167.48 159.77,-157.02"/>
<polygon fill="midnightblue" stroke="midnightblue" points="160.79,-153.66 150.2,-153.58 158.43,-160.25 160.79,-153.66"/>
</g>
<!-- Node38&#45;&gt;Node3 -->
<g id="edge10" class="edge">
<title>Node38&#45;&gt;Node3</title>
<path fill="none" stroke="midnightblue" d="M262.31,-190.34C248.26,-181.92 232.86,-169.77 225,-154 214.68,-133.29 224.86,-106.91 234.08,-89.86"/>
<polygon fill="midnightblue" stroke="midnightblue" points="237.22,-91.42 239.23,-81.02 231.18,-87.9 237.22,-91.42"/>
</g>
<!-- Node39 -->
<g id="node9" class="node">
<title>Node39</title>
<g id="a_node9"><a xlink:href="protocol_8h.html" target="_top" xlink:title=" ">
<polygon fill="white" stroke="red" points="234,-129 234,-148 350,-148 350,-129 234,-129"/>
<text text-anchor="middle" x="292" y="-136" font-family="Helvetica,sans-Serif" font-size="10.00">emlabcpp/protocol.h</text>
</a>
</g>
</g>
<!-- Node38&#45;&gt;Node39 -->
<g id="edge12" class="edge">
<title>Node38&#45;&gt;Node39</title>
<path fill="none" stroke="midnightblue" d="M292,-190.4C292,-181.06 292,-168.71 292,-158.52"/>
<polygon fill="midnightblue" stroke="midnightblue" points="295.5,-158.19 292,-148.19 288.5,-158.19 295.5,-158.19"/>
</g>
<!-- Node53 -->
<g id="node10" class="node">
<title>Node53</title>
<g id="a_node10"><a xlink:href="packet_8h.html" target="_top" xlink:title=" ">
<polygon fill="white" stroke="red" points="368,-129 368,-148 520,-148 520,-129 368,-129"/>
<text text-anchor="middle" x="444" y="-136" font-family="Helvetica,sans-Serif" font-size="10.00">emlabcpp/protocol/packet.h</text>
</a>
</g>
</g>
<!-- Node38&#45;&gt;Node53 -->
<g id="edge13" class="edge">
<title>Node38&#45;&gt;Node53</title>
<path fill="none" stroke="midnightblue" d="M324.98,-190.4C351.77,-178.94 389.19,-162.94 414.88,-151.95"/>
<polygon fill="midnightblue" stroke="midnightblue" points="416.29,-155.16 424.11,-148.01 413.54,-148.72 416.29,-155.16"/>
</g>
<!-- Node61 -->
<g id="node12" class="node">
<title>Node61</title>
<g id="a_node12"><a xlink:href="visit_8h.html" target="_top" xlink:title=" ">
<polygon fill="white" stroke="red" points="538,-129 538,-148 636,-148 636,-129 538,-129"/>
<text text-anchor="middle" x="587" y="-136" font-family="Helvetica,sans-Serif" font-size="10.00">emlabcpp/visit.h</text>
</a>
</g>
</g>
<!-- Node60&#45;&gt;Node61 -->
<g id="edge15" class="edge">
<title>Node60&#45;&gt;Node61</title>
<path fill="none" stroke="midnightblue" d="M520.38,-195.73C532.85,-185.21 553.97,-167.38 569.09,-154.62"/>
<polygon fill="midnightblue" stroke="midnightblue" points="571.4,-157.25 576.78,-148.13 566.88,-151.9 571.4,-157.25"/>
</g>
<!-- Node61&#45;&gt;Node15 -->
<g id="edge16" class="edge">
<title>Node61&#45;&gt;Node15</title>
<path fill="none" stroke="midnightblue" d="M571.09,-128.73C551.18,-117.77 516.89,-98.88 493.6,-86.05"/>
<polygon fill="midnightblue" stroke="midnightblue" points="495.11,-82.89 484.66,-81.13 491.73,-89.02 495.11,-82.89"/>
</g>
</g>
</svg>
