<?xml version="1.0" encoding="UTF-8" standalone="no"?>
<!DOCTYPE svg PUBLIC "-//W3C//DTD SVG 1.1//EN"
 "http://www.w3.org/Graphics/SVG/1.1/DTD/svg11.dtd">
<!-- Generated by graphviz version 2.43.0 (0)
 -->
<!-- Title: include/emlabcpp/experimental/testing/record.h Pages: 1 -->
<svg width="1099pt" height="363pt"
 viewBox="0.00 0.00 1099.00 363.00" xmlns="http://www.w3.org/2000/svg" xmlns:xlink="http://www.w3.org/1999/xlink">
<g id="graph0" class="graph" transform="scale(1 1) rotate(0) translate(4 359)">
<title>include/emlabcpp/experimental/testing/record.h</title>
<polygon fill="white" stroke="transparent" points="-4,4 -4,-359 1095,-359 1095,4 -4,4"/>
<!-- Node1 -->
<g id="node1" class="node">
<title>Node1</title>
<g id="a_node1"><a xlink:title=" ">
<polygon fill="#bfbfbf" stroke="black" points="473,-324.5 473,-354.5 644,-354.5 644,-324.5 473,-324.5"/>
<text text-anchor="start" x="481" y="-342.5" font-family="Helvetica,sans-Serif" font-size="10.00">include/emlabcpp/experimental</text>
<text text-anchor="middle" x="558.5" y="-331.5" font-family="Helvetica,sans-Serif" font-size="10.00">/testing/record.h</text>
</a>
</g>
</g>
<!-- Node2 -->
<g id="node2" class="node">
<title>Node2</title>
<g id="a_node2"><a xlink:href="experimental_2testing_2base_8h.html" target="_top" xlink:title=" ">
<polygon fill="white" stroke="black" points="208,-190.5 208,-220.5 341,-220.5 341,-190.5 208,-190.5"/>
<text text-anchor="start" x="216" y="-208.5" font-family="Helvetica,sans-Serif" font-size="10.00">emlabcpp/experimental</text>
<text text-anchor="middle" x="274.5" y="-197.5" font-family="Helvetica,sans-Serif" font-size="10.00">/testing/base.h</text>
</a>
</g>
</g>
<!-- Node1&#45;&gt;Node2 -->
<g id="edge1" class="edge">
<title>Node1&#45;&gt;Node2</title>
<path fill="none" stroke="midnightblue" d="M528.38,-324.5C476.72,-300.49 371.27,-251.48 313.87,-224.8"/>
<polygon fill="midnightblue" stroke="midnightblue" points="315.29,-221.6 304.74,-220.56 312.34,-227.95 315.29,-221.6"/>
</g>
<!-- Node31 -->
<g id="node5" class="node">
<title>Node31</title>
<g id="a_node5"><a xlink:href="static__vector_8h.html" target="_top" xlink:title=" ">
<polygon fill="white" stroke="red" points="0,-0.5 0,-19.5 139,-19.5 139,-0.5 0,-0.5"/>
<text text-anchor="middle" x="69.5" y="-7.5" font-family="Helvetica,sans-Serif" font-size="10.00">emlabcpp/static_vector.h</text>
</a>
</g>
</g>
<!-- Node1&#45;&gt;Node31 -->
<g id="edge24" class="edge">
<title>Node1&#45;&gt;Node31</title>
<path fill="none" stroke="midnightblue" d="M472.99,-335.83C316.86,-328.62 1.5,-302.22 1.5,-206.5 1.5,-206.5 1.5,-206.5 1.5,-137.5 1.5,-93.5 33.81,-50.06 53.88,-27.31"/>
<polygon fill="midnightblue" stroke="midnightblue" points="56.73,-29.39 60.89,-19.64 51.56,-24.66 56.73,-29.39"/>
</g>
<!-- Node35 -->
<g id="node9" class="node">
<title>Node35</title>
<g id="a_node9"><a xlink:href="match_8h.html" target="_top" xlink:title=" ">
<polygon fill="white" stroke="red" points="715,-62 715,-81 822,-81 822,-62 715,-62"/>
<text text-anchor="middle" x="768.5" y="-69" font-family="Helvetica,sans-Serif" font-size="10.00">emlabcpp/match.h</text>
</a>
</g>
</g>
<!-- Node1&#45;&gt;Node35 -->
<g id="edge23" class="edge">
<title>Node1&#45;&gt;Node35</title>
<path fill="none" stroke="midnightblue" d="M644.06,-336.64C727.43,-329.7 850.15,-304.77 910.5,-221 950.54,-165.42 850.59,-109.66 798.16,-85.27"/>
<polygon fill="midnightblue" stroke="midnightblue" points="799.51,-82.04 788.96,-81.08 796.61,-88.41 799.51,-82.04"/>
</g>
<!-- Node48 -->
<g id="node11" class="node">
<title>Node48</title>
<g id="a_node11"><a xlink:href="experimental_2testing_2convert_8h.html" target="_top" xlink:title=" ">
<polygon fill="white" stroke="black" points="958,-257.5 958,-287.5 1091,-287.5 1091,-257.5 958,-257.5"/>
<text text-anchor="start" x="966" y="-275.5" font-family="Helvetica,sans-Serif" font-size="10.00">emlabcpp/experimental</text>
<text text-anchor="middle" x="1024.5" y="-264.5" font-family="Helvetica,sans-Serif" font-size="10.00">/testing/convert.h</text>
</a>
</g>
</g>
<!-- Node1&#45;&gt;Node48 -->
<g id="edge15" class="edge">
<title>Node1&#45;&gt;Node48</title>
<path fill="none" stroke="midnightblue" d="M644.29,-328.41C722.43,-318.95 840.91,-303.9 943.5,-288 944.96,-287.77 946.43,-287.54 947.91,-287.31"/>
<polygon fill="midnightblue" stroke="midnightblue" points="948.49,-290.76 957.8,-285.7 947.36,-283.85 948.49,-290.76"/>
</g>
<!-- Node49 -->
<g id="node12" class="node">
<title>Node49</title>
<g id="a_node12"><a xlink:href="experimental_2testing_2protocol_8h.html" target="_top" xlink:title=" ">
<polygon fill="white" stroke="black" points="492,-257.5 492,-287.5 625,-287.5 625,-257.5 492,-257.5"/>
<text text-anchor="start" x="500" y="-275.5" font-family="Helvetica,sans-Serif" font-size="10.00">emlabcpp/experimental</text>
<text text-anchor="middle" x="558.5" y="-264.5" font-family="Helvetica,sans-Serif" font-size="10.00">/testing/protocol.h</text>
</a>
</g>
</g>
<!-- Node1&#45;&gt;Node49 -->
<g id="edge16" class="edge">
<title>Node1&#45;&gt;Node49</title>
<path fill="none" stroke="midnightblue" d="M558.5,-324.4C558.5,-316.64 558.5,-306.81 558.5,-297.86"/>
<polygon fill="midnightblue" stroke="midnightblue" points="562,-297.58 558.5,-287.58 555,-297.58 562,-297.58"/>
</g>
<!-- Node3 -->
<g id="node3" class="node">
<title>Node3</title>
<g id="a_node3"><a xlink:href="algorithm_8h.html" target="_top" xlink:title=" ">
<polygon fill="white" stroke="red" points="428.5,-129 428.5,-148 552.5,-148 552.5,-129 428.5,-129"/>
<text text-anchor="middle" x="490.5" y="-136" font-family="Helvetica,sans-Serif" font-size="10.00">emlabcpp/algorithm.h</text>
</a>
</g>
</g>
<!-- Node2&#45;&gt;Node3 -->
<g id="edge2" class="edge">
<title>Node2&#45;&gt;Node3</title>
<path fill="none" stroke="midnightblue" d="M321.1,-190.48C360.33,-178.67 415.73,-162 452.35,-150.98"/>
<polygon fill="midnightblue" stroke="midnightblue" points="453.59,-154.26 462.16,-148.03 451.57,-147.56 453.59,-154.26"/>
</g>
<!-- Node24 -->
<g id="node4" class="node">
<title>Node24</title>
<g id="a_node4"><a xlink:href="pool_8h.html" target="_top" xlink:title=" ">
<polygon fill="white" stroke="red" points="67.5,-56.5 67.5,-86.5 177.5,-86.5 177.5,-56.5 67.5,-56.5"/>
<text text-anchor="start" x="75.5" y="-74.5" font-family="Helvetica,sans-Serif" font-size="10.00">emlabcpp/allocator</text>
<text text-anchor="middle" x="122.5" y="-63.5" font-family="Helvetica,sans-Serif" font-size="10.00">/pool.h</text>
</a>
</g>
</g>
<!-- Node2&#45;&gt;Node24 -->
<g id="edge3" class="edge">
<title>Node2&#45;&gt;Node24</title>
<path fill="none" stroke="midnightblue" d="M227.55,-190.45C206.65,-182.38 182.89,-170.52 165.5,-154 148.65,-137.99 137.07,-113.9 130.21,-96.06"/>
<polygon fill="midnightblue" stroke="midnightblue" points="133.5,-94.85 126.8,-86.64 126.91,-97.23 133.5,-94.85"/>
</g>
<!-- Node2&#45;&gt;Node31 -->
<g id="edge12" class="edge">
<title>Node2&#45;&gt;Node31</title>
<path fill="none" stroke="midnightblue" d="M207.83,-190.47C155.01,-175.22 85.72,-144.84 58.5,-87 49.84,-68.59 55.41,-45.13 61.32,-29.18"/>
<polygon fill="midnightblue" stroke="midnightblue" points="64.57,-30.49 65.11,-19.91 58.09,-27.84 64.57,-30.49"/>
</g>
<!-- Node43 -->
<g id="node6" class="node">
<title>Node43</title>
<g id="a_node6"><a xlink:title=" ">
<polygon fill="white" stroke="#bfbfbf" points="186.5,-0.5 186.5,-19.5 224.5,-19.5 224.5,-0.5 186.5,-0.5"/>
<text text-anchor="middle" x="205.5" y="-7.5" font-family="Helvetica,sans-Serif" font-size="10.00">map</text>
</a>
</g>
</g>
<!-- Node2&#45;&gt;Node43 -->
<g id="edge13" class="edge">
<title>Node2&#45;&gt;Node43</title>
<path fill="none" stroke="midnightblue" d="M239.36,-190.45C223.89,-182.29 207.26,-170.34 198.5,-154 176.94,-113.79 189.9,-57.73 198.96,-29.22"/>
<polygon fill="midnightblue" stroke="midnightblue" points="202.28,-30.32 202.16,-19.73 195.64,-28.08 202.28,-30.32"/>
</g>
<!-- Node46 -->
<g id="node7" class="node">
<title>Node46</title>
<g id="a_node7"><a xlink:href="tree_8h.html" target="_top" xlink:title=" ">
<polygon fill="white" stroke="red" points="208,-123.5 208,-153.5 341,-153.5 341,-123.5 208,-123.5"/>
<text text-anchor="start" x="216" y="-141.5" font-family="Helvetica,sans-Serif" font-size="10.00">emlabcpp/experimental</text>
<text text-anchor="middle" x="274.5" y="-130.5" font-family="Helvetica,sans-Serif" font-size="10.00">/contiguous_tree/tree.h</text>
</a>
</g>
</g>
<!-- Node2&#45;&gt;Node46 -->
<g id="edge6" class="edge">
<title>Node2&#45;&gt;Node46</title>
<path fill="none" stroke="midnightblue" d="M274.5,-190.4C274.5,-182.64 274.5,-172.81 274.5,-163.86"/>
<polygon fill="midnightblue" stroke="midnightblue" points="278,-163.58 274.5,-153.58 271,-163.58 278,-163.58"/>
</g>
<!-- Node16 -->
<g id="node10" class="node">
<title>Node16</title>
<g id="a_node10"><a xlink:title=" ">
<polygon fill="white" stroke="#bfbfbf" points="359,-129 359,-148 410,-148 410,-129 359,-129"/>
<text text-anchor="middle" x="384.5" y="-136" font-family="Helvetica,sans-Serif" font-size="10.00">variant</text>
</a>
</g>
</g>
<!-- Node2&#45;&gt;Node16 -->
<g id="edge14" class="edge">
<title>Node2&#45;&gt;Node16</title>
<path fill="none" stroke="midnightblue" d="M298.37,-190.4C317.07,-179.34 342.94,-164.06 361.43,-153.13"/>
<polygon fill="midnightblue" stroke="midnightblue" points="363.27,-156.11 370.1,-148.01 359.71,-150.08 363.27,-156.11"/>
</g>
<!-- Node24&#45;&gt;Node31 -->
<g id="edge4" class="edge">
<title>Node24&#45;&gt;Node31</title>
<path fill="none" stroke="midnightblue" d="M109.94,-56.4C102.16,-47.66 92.14,-36.41 84.02,-27.3"/>
<polygon fill="midnightblue" stroke="midnightblue" points="86.48,-24.8 77.21,-19.66 81.25,-29.45 86.48,-24.8"/>
</g>
<!-- Node24&#45;&gt;Node43 -->
<g id="edge5" class="edge">
<title>Node24&#45;&gt;Node43</title>
<path fill="none" stroke="midnightblue" d="M142.17,-56.4C155.1,-47.13 171.99,-35.03 185.07,-25.65"/>
<polygon fill="midnightblue" stroke="midnightblue" points="187.33,-28.33 193.42,-19.66 183.26,-22.64 187.33,-28.33"/>
</g>
<!-- Node46&#45;&gt;Node24 -->
<g id="edge7" class="edge">
<title>Node46&#45;&gt;Node24</title>
<path fill="none" stroke="midnightblue" d="M241.52,-123.4C219.01,-113.77 189,-100.94 164.74,-90.56"/>
<polygon fill="midnightblue" stroke="midnightblue" points="165.99,-87.29 155.42,-86.58 163.24,-93.73 165.99,-87.29"/>
</g>
<!-- Node46&#45;&gt;Node31 -->
<g id="edge10" class="edge">
<title>Node46&#45;&gt;Node31</title>
<path fill="none" stroke="midnightblue" d="M262.39,-123.36C246.52,-105.57 217.08,-75.05 186.5,-56 162.98,-41.35 133.92,-30.14 110.64,-22.58"/>
<polygon fill="midnightblue" stroke="midnightblue" points="111.64,-19.22 101.06,-19.56 109.54,-25.9 111.64,-19.22"/>
</g>
<!-- Node46&#45;&gt;Node43 -->
<g id="edge11" class="edge">
<title>Node46&#45;&gt;Node43</title>
<path fill="none" stroke="midnightblue" d="M274.25,-123.26C273.36,-106.17 269.95,-77.18 257.5,-56 250.31,-43.78 238.61,-33.21 228.12,-25.4"/>
<polygon fill="midnightblue" stroke="midnightblue" points="229.91,-22.38 219.72,-19.5 225.89,-28.11 229.91,-22.38"/>
</g>
<!-- Node47 -->
<g id="node8" class="node">
<title>Node47</title>
<g id="a_node8"><a xlink:href="experimental_2contiguous__tree_2base_8h.html" target="_top" xlink:title=" ">
<polygon fill="white" stroke="black" points="409,-56.5 409,-86.5 542,-86.5 542,-56.5 409,-56.5"/>
<text text-anchor="start" x="417" y="-74.5" font-family="Helvetica,sans-Serif" font-size="10.00">emlabcpp/experimental</text>
<text text-anchor="middle" x="475.5" y="-63.5" font-family="Helvetica,sans-Serif" font-size="10.00">/contiguous_tree/base.h</text>
</a>
</g>
</g>
<!-- Node46&#45;&gt;Node47 -->
<g id="edge8" class="edge">
<title>Node46&#45;&gt;Node47</title>
<path fill="none" stroke="midnightblue" d="M318.11,-123.4C348.67,-113.52 389.68,-100.25 422.18,-89.74"/>
<polygon fill="midnightblue" stroke="midnightblue" points="423.53,-92.98 431.97,-86.58 421.38,-86.32 423.53,-92.98"/>
</g>
<!-- Node46&#45;&gt;Node35 -->
<g id="edge9" class="edge">
<title>Node46&#45;&gt;Node35</title>
<path fill="none" stroke="midnightblue" d="M341.11,-124.37C343.94,-123.89 346.75,-123.43 349.5,-123 474.93,-103.34 622.52,-87.16 704.81,-78.75"/>
<polygon fill="midnightblue" stroke="midnightblue" points="705.16,-82.24 714.76,-77.74 704.45,-75.27 705.16,-82.24"/>
</g>
<!-- Node49&#45;&gt;Node2 -->
<g id="edge19" class="edge">
<title>Node49&#45;&gt;Node2</title>
<path fill="none" stroke="midnightblue" d="M497.23,-257.48C452.87,-247.32 392.77,-233.57 346.18,-222.91"/>
<polygon fill="midnightblue" stroke="midnightblue" points="346.68,-219.43 336.15,-220.61 345.12,-226.25 346.68,-219.43"/>
</g>
<!-- Node49&#45;&gt;Node3 -->
<g id="edge17" class="edge">
<title>Node49&#45;&gt;Node3</title>
<path fill="none" stroke="midnightblue" d="M552.46,-257.45C545.29,-241.04 532.75,-213.19 520.5,-190 514.57,-178.77 507.31,-166.52 501.42,-156.9"/>
<polygon fill="midnightblue" stroke="midnightblue" points="504.33,-154.94 496.08,-148.29 498.37,-158.63 504.33,-154.94"/>
</g>
<!-- Node49&#45;&gt;Node47 -->
<g id="edge18" class="edge">
<title>Node49&#45;&gt;Node47</title>
<path fill="none" stroke="midnightblue" d="M563.32,-257.23C571.82,-229.31 586.35,-166.42 561.5,-123 553.67,-109.32 540.53,-98.98 526.85,-91.34"/>
<polygon fill="midnightblue" stroke="midnightblue" points="528.32,-88.16 517.83,-86.7 525.12,-94.39 528.32,-88.16"/>
</g>
<!-- Node50 -->
<g id="node13" class="node">
<title>Node50</title>
<g id="a_node13"><a xlink:href="protocol_8h.html" target="_top" xlink:title=" ">
<polygon fill="white" stroke="red" points="605.5,-196 605.5,-215 721.5,-215 721.5,-196 605.5,-196"/>
<text text-anchor="middle" x="663.5" y="-203" font-family="Helvetica,sans-Serif" font-size="10.00">emlabcpp/protocol.h</text>
</a>
</g>
</g>
<!-- Node49&#45;&gt;Node50 -->
<g id="edge20" class="edge">
<title>Node49&#45;&gt;Node50</title>
<path fill="none" stroke="midnightblue" d="M581.28,-257.4C599.05,-246.39 623.6,-231.2 641.24,-220.28"/>
<polygon fill="midnightblue" stroke="midnightblue" points="643.1,-223.25 649.76,-215.01 639.41,-217.29 643.1,-223.25"/>
</g>
<!-- Node65 -->
<g id="node14" class="node">
<title>Node65</title>
<g id="a_node14"><a xlink:href="endpoint_8h.html" target="_top" xlink:title=" ">
<polygon fill="white" stroke="red" points="739.5,-196 739.5,-215 901.5,-215 901.5,-196 739.5,-196"/>
<text text-anchor="middle" x="820.5" y="-203" font-family="Helvetica,sans-Serif" font-size="10.00">emlabcpp/protocol/endpoint.h</text>
</a>
</g>
</g>
<!-- Node49&#45;&gt;Node65 -->
<g id="edge21" class="edge">
<title>Node49&#45;&gt;Node65</title>
<path fill="none" stroke="midnightblue" d="M615.03,-257.48C663.32,-245.5 731.82,-228.5 776.21,-217.49"/>
<polygon fill="midnightblue" stroke="midnightblue" points="777.26,-220.83 786.12,-215.03 775.57,-214.04 777.26,-220.83"/>
</g>
<!-- Node73 -->
<g id="node15" class="node">
<title>Node73</title>
<g id="a_node15"><a xlink:href="packet_8h.html" target="_top" xlink:title=" ">
<polygon fill="white" stroke="red" points="359.5,-196 359.5,-215 511.5,-215 511.5,-196 359.5,-196"/>
<text text-anchor="middle" x="435.5" y="-203" font-family="Helvetica,sans-Serif" font-size="10.00">emlabcpp/protocol/packet.h</text>
</a>
</g>
</g>
<!-- Node49&#45;&gt;Node73 -->
<g id="edge22" class="edge">
<title>Node49&#45;&gt;Node73</title>
<path fill="none" stroke="midnightblue" d="M531.81,-257.4C510.61,-246.19 481.18,-230.64 460.45,-219.69"/>
<polygon fill="midnightblue" stroke="midnightblue" points="462.07,-216.58 451.6,-215.01 458.8,-222.77 462.07,-216.58"/>
</g>
</g>
</svg>
