<?xml version="1.0" encoding="UTF-8" standalone="no"?>
<!DOCTYPE svg PUBLIC "-//W3C//DTD SVG 1.1//EN"
 "http://www.w3.org/Graphics/SVG/1.1/DTD/svg11.dtd">
<!-- Generated by graphviz version 2.43.0 (0)
 -->
<!-- Title: include/emlabcpp/experimental/testing/record.h Pages: 1 -->
<svg width="811pt" height="229pt"
 viewBox="0.00 0.00 810.50 229.00" xmlns="http://www.w3.org/2000/svg" xmlns:xlink="http://www.w3.org/1999/xlink">
<g id="graph0" class="graph" transform="scale(1 1) rotate(0) translate(4 225)">
<title>include/emlabcpp/experimental/testing/record.h</title>
<polygon fill="white" stroke="transparent" points="-4,4 -4,-225 806.5,-225 806.5,4 -4,4"/>
<!-- Node1 -->
<g id="node1" class="node">
<title>Node1</title>
<g id="a_node1"><a xlink:title=" ">
<polygon fill="#bfbfbf" stroke="black" points="187,-190.5 187,-220.5 358,-220.5 358,-190.5 187,-190.5"/>
<text text-anchor="start" x="195" y="-208.5" font-family="Helvetica,sans-Serif" font-size="10.00">include/emlabcpp/experimental</text>
<text text-anchor="middle" x="272.5" y="-197.5" font-family="Helvetica,sans-Serif" font-size="10.00">/testing/record.h</text>
</a>
</g>
</g>
<!-- Node2 -->
<g id="node2" class="node">
<title>Node2</title>
<g id="a_node2"><a xlink:href="experimental_2testing_2base_8h.html" target="_top" xlink:title=" ">
<polygon fill="white" stroke="black" points="107,-56.5 107,-86.5 240,-86.5 240,-56.5 107,-56.5"/>
<text text-anchor="start" x="115" y="-74.5" font-family="Helvetica,sans-Serif" font-size="10.00">emlabcpp/experimental</text>
<text text-anchor="middle" x="173.5" y="-63.5" font-family="Helvetica,sans-Serif" font-size="10.00">/testing/base.h</text>
</a>
</g>
</g>
<!-- Node1&#45;&gt;Node2 -->
<g id="edge1" class="edge">
<title>Node1&#45;&gt;Node2</title>
<path fill="none" stroke="midnightblue" d="M261.91,-190.37C244.71,-167.45 210.6,-121.97 190.14,-94.69"/>
<polygon fill="midnightblue" stroke="midnightblue" points="192.82,-92.42 184.02,-86.52 187.22,-96.62 192.82,-92.42"/>
</g>
<!-- Node3 -->
<g id="node3" class="node">
<title>Node3</title>
<g id="a_node3"><a xlink:href="static__vector_8h.html" target="_top" xlink:title=" ">
<polygon fill="white" stroke="red" points="0,-0.5 0,-19.5 139,-19.5 139,-0.5 0,-0.5"/>
<text text-anchor="middle" x="69.5" y="-7.5" font-family="Helvetica,sans-Serif" font-size="10.00">emlabcpp/static_vector.h</text>
</a>
</g>
</g>
<!-- Node1&#45;&gt;Node3 -->
<g id="edge14" class="edge">
<title>Node1&#45;&gt;Node3</title>
<path fill="none" stroke="midnightblue" d="M239.88,-190.35C200.88,-171.88 136.06,-136.05 97.5,-87 84.23,-70.11 76.82,-46.32 73.01,-29.88"/>
<polygon fill="midnightblue" stroke="midnightblue" points="76.39,-28.91 70.92,-19.84 69.53,-30.34 76.39,-28.91"/>
</g>
<!-- Node23 -->
<g id="node7" class="node">
<title>Node23</title>
<g id="a_node7"><a xlink:href="experimental_2testing_2protocol_8h.html" target="_top" xlink:title=" ">
<polygon fill="white" stroke="black" points="254,-123.5 254,-153.5 387,-153.5 387,-123.5 254,-123.5"/>
<text text-anchor="start" x="262" y="-141.5" font-family="Helvetica,sans-Serif" font-size="10.00">emlabcpp/experimental</text>
<text text-anchor="middle" x="320.5" y="-130.5" font-family="Helvetica,sans-Serif" font-size="10.00">/testing/protocol.h</text>
</a>
</g>
</g>
<!-- Node1&#45;&gt;Node23 -->
<g id="edge6" class="edge">
<title>Node1&#45;&gt;Node23</title>
<path fill="none" stroke="midnightblue" d="M282.92,-190.4C289.08,-182.05 297.03,-171.29 304.02,-161.81"/>
<polygon fill="midnightblue" stroke="midnightblue" points="306.98,-163.7 310.11,-153.58 301.35,-159.54 306.98,-163.7"/>
</g>
<!-- Node54 -->
<g id="node11" class="node">
<title>Node54</title>
<g id="a_node11"><a xlink:href="match_8h.html" target="_top" xlink:title=" ">
<polygon fill="white" stroke="black" points="552,-129 552,-148 659,-148 659,-129 552,-129"/>
<text text-anchor="middle" x="605.5" y="-136" font-family="Helvetica,sans-Serif" font-size="10.00">emlabcpp/match.h</text>
</a>
</g>
</g>
<!-- Node1&#45;&gt;Node54 -->
<g id="edge11" class="edge">
<title>Node1&#45;&gt;Node54</title>
<path fill="none" stroke="midnightblue" d="M344.35,-190.48C406.62,-178.32 495.36,-161 551.68,-150.01"/>
<polygon fill="midnightblue" stroke="midnightblue" points="552.66,-153.38 561.81,-148.03 551.32,-146.51 552.66,-153.38"/>
</g>
<!-- Node2&#45;&gt;Node3 -->
<g id="edge2" class="edge">
<title>Node2&#45;&gt;Node3</title>
<path fill="none" stroke="midnightblue" d="M148.85,-56.4C132.18,-46.86 110.27,-34.32 93.69,-24.84"/>
<polygon fill="midnightblue" stroke="midnightblue" points="95.05,-21.59 84.63,-19.66 91.57,-27.66 95.05,-21.59"/>
</g>
<!-- Node20 -->
<g id="node4" class="node">
<title>Node20</title>
<g id="a_node4"><a xlink:title=" ">
<polygon fill="white" stroke="#bfbfbf" points="157.5,-0.5 157.5,-19.5 195.5,-19.5 195.5,-0.5 157.5,-0.5"/>
<text text-anchor="middle" x="176.5" y="-7.5" font-family="Helvetica,sans-Serif" font-size="10.00">map</text>
</a>
</g>
</g>
<!-- Node2&#45;&gt;Node20 -->
<g id="edge3" class="edge">
<title>Node2&#45;&gt;Node20</title>
<path fill="none" stroke="midnightblue" d="M174.21,-56.4C174.61,-48.47 175.12,-38.46 175.55,-29.86"/>
<polygon fill="midnightblue" stroke="midnightblue" points="179.06,-29.82 176.06,-19.66 172.06,-29.47 179.06,-29.82"/>
</g>
<!-- Node21 -->
<g id="node5" class="node">
<title>Node21</title>
<g id="a_node5"><a xlink:title=" ">
<polygon fill="white" stroke="#bfbfbf" points="214,-0.5 214,-19.5 319,-19.5 319,-0.5 214,-0.5"/>
<text text-anchor="middle" x="266.5" y="-7.5" font-family="Helvetica,sans-Serif" font-size="10.00">memory_resource</text>
</a>
</g>
</g>
<!-- Node2&#45;&gt;Node21 -->
<g id="edge4" class="edge">
<title>Node2&#45;&gt;Node21</title>
<path fill="none" stroke="midnightblue" d="M195.54,-56.4C210.31,-46.95 229.68,-34.56 244.45,-25.11"/>
<polygon fill="midnightblue" stroke="midnightblue" points="246.43,-28 252.97,-19.66 242.66,-22.1 246.43,-28"/>
</g>
<!-- Node22 -->
<g id="node6" class="node">
<title>Node22</title>
<g id="a_node6"><a xlink:title=" ">
<polygon fill="white" stroke="#bfbfbf" points="531,-0.5 531,-19.5 582,-19.5 582,-0.5 531,-0.5"/>
<text text-anchor="middle" x="556.5" y="-7.5" font-family="Helvetica,sans-Serif" font-size="10.00">variant</text>
</a>
</g>
</g>
<!-- Node2&#45;&gt;Node22 -->
<g id="edge5" class="edge">
<title>Node2&#45;&gt;Node22</title>
<path fill="none" stroke="midnightblue" d="M240.2,-57.61C243.34,-57.05 246.45,-56.51 249.5,-56 347.51,-39.47 463.72,-23.39 520.98,-15.7"/>
<polygon fill="midnightblue" stroke="midnightblue" points="521.52,-19.16 530.97,-14.36 520.59,-12.22 521.52,-19.16"/>
</g>
<!-- Node23&#45;&gt;Node2 -->
<g id="edge8" class="edge">
<title>Node23&#45;&gt;Node2</title>
<path fill="none" stroke="midnightblue" d="M288.6,-123.4C266.93,-113.81 238.07,-101.05 214.66,-90.7"/>
<polygon fill="midnightblue" stroke="midnightblue" points="215.9,-87.42 205.33,-86.58 213.06,-93.82 215.9,-87.42"/>
</g>
<!-- Node24 -->
<g id="node8" class="node">
<title>Node24</title>
<g id="a_node8"><a xlink:href="algorithm_8h.html" target="_top" xlink:title=" ">
<polygon fill="white" stroke="red" points="258.5,-62 258.5,-81 382.5,-81 382.5,-62 258.5,-62"/>
<text text-anchor="middle" x="320.5" y="-69" font-family="Helvetica,sans-Serif" font-size="10.00">emlabcpp/algorithm.h</text>
</a>
</g>
</g>
<!-- Node23&#45;&gt;Node24 -->
<g id="edge7" class="edge">
<title>Node23&#45;&gt;Node24</title>
<path fill="none" stroke="midnightblue" d="M320.5,-123.4C320.5,-114.06 320.5,-101.71 320.5,-91.52"/>
<polygon fill="midnightblue" stroke="midnightblue" points="324,-91.19 320.5,-81.19 317,-91.19 324,-91.19"/>
</g>
<!-- Node30 -->
<g id="node9" class="node">
<title>Node30</title>
<g id="a_node9"><a xlink:href="protocol_8h.html" target="_top" xlink:title=" ">
<polygon fill="white" stroke="red" points="400.5,-62 400.5,-81 516.5,-81 516.5,-62 400.5,-62"/>
<text text-anchor="middle" x="458.5" y="-69" font-family="Helvetica,sans-Serif" font-size="10.00">emlabcpp/protocol.h</text>
</a>
</g>
</g>
<!-- Node23&#45;&gt;Node30 -->
<g id="edge9" class="edge">
<title>Node23&#45;&gt;Node30</title>
<path fill="none" stroke="midnightblue" d="M350.44,-123.4C374.44,-112.09 407.84,-96.36 431.13,-85.39"/>
<polygon fill="midnightblue" stroke="midnightblue" points="432.88,-88.43 440.44,-81.01 429.9,-82.1 432.88,-88.43"/>
</g>
<!-- Node46 -->
<g id="node10" class="node">
<title>Node46</title>
<g id="a_node10"><a xlink:href="packet_8h.html" target="_top" xlink:title=" ">
<polygon fill="white" stroke="red" points="534.5,-62 534.5,-81 686.5,-81 686.5,-62 534.5,-62"/>
<text text-anchor="middle" x="610.5" y="-69" font-family="Helvetica,sans-Serif" font-size="10.00">emlabcpp/protocol/packet.h</text>
</a>
</g>
</g>
<!-- Node23&#45;&gt;Node46 -->
<g id="edge10" class="edge">
<title>Node23&#45;&gt;Node46</title>
<path fill="none" stroke="midnightblue" d="M383.07,-123.48C436.85,-111.42 513.3,-94.29 562.4,-83.28"/>
<polygon fill="midnightblue" stroke="midnightblue" points="563.46,-86.63 572.45,-81.03 561.93,-79.8 563.46,-86.63"/>
</g>
<!-- Node55 -->
<g id="node12" class="node">
<title>Node55</title>
<g id="a_node12"><a xlink:href="visit_8h.html" target="_top" xlink:title=" ">
<polygon fill="white" stroke="red" points="704.5,-62 704.5,-81 802.5,-81 802.5,-62 704.5,-62"/>
<text text-anchor="middle" x="753.5" y="-69" font-family="Helvetica,sans-Serif" font-size="10.00">emlabcpp/visit.h</text>
</a>
</g>
</g>
<!-- Node54&#45;&gt;Node55 -->
<g id="edge12" class="edge">
<title>Node54&#45;&gt;Node55</title>
<path fill="none" stroke="midnightblue" d="M625.15,-128.87C650.59,-117.7 695.1,-98.15 724.45,-85.26"/>
<polygon fill="midnightblue" stroke="midnightblue" points="726.02,-88.39 733.77,-81.17 723.2,-81.98 726.02,-88.39"/>
</g>
<!-- Node55&#45;&gt;Node22 -->
<g id="edge13" class="edge">
<title>Node55&#45;&gt;Node22</title>
<path fill="none" stroke="midnightblue" d="M725.27,-61.98C690.12,-51.36 630.03,-33.21 591.85,-21.68"/>
<polygon fill="midnightblue" stroke="midnightblue" points="592.75,-18.29 582.17,-18.75 590.73,-24.99 592.75,-18.29"/>
</g>
</g>
</svg>
