<?xml version="1.0" encoding="UTF-8" standalone="no"?>
<!DOCTYPE svg PUBLIC "-//W3C//DTD SVG 1.1//EN"
 "http://www.w3.org/Graphics/SVG/1.1/DTD/svg11.dtd">
<!-- Generated by graphviz version 2.43.0 (0)
 -->
<!-- Title: include/emlabcpp/experimental/testing/record.h Pages: 1 -->
<svg width="861pt" height="441pt"
 viewBox="0.00 0.00 861.42 441.00" xmlns="http://www.w3.org/2000/svg" xmlns:xlink="http://www.w3.org/1999/xlink">
<g id="graph0" class="graph" transform="scale(1 1) rotate(0) translate(4 437)">
<title>include/emlabcpp/experimental/testing/record.h</title>
<polygon fill="white" stroke="transparent" points="-4,4 -4,-437 857.42,-437 857.42,4 -4,4"/>
<!-- Node1 -->
<g id="node1" class="node">
<title>Node1</title>
<g id="a_node1"><a xlink:title=" ">
<polygon fill="#bfbfbf" stroke="black" points="373.53,-402.5 373.53,-432.5 544.53,-432.5 544.53,-402.5 373.53,-402.5"/>
<text text-anchor="start" x="381.53" y="-420.5" font-family="Helvetica,sans-Serif" font-size="10.00">include/emlabcpp/experimental</text>
<text text-anchor="middle" x="459.03" y="-409.5" font-family="Helvetica,sans-Serif" font-size="10.00">/testing/record.h</text>
</a>
</g>
</g>
<!-- Node2 -->
<g id="node2" class="node">
<title>Node2</title>
<g id="a_node2"><a xlink:href="experimental_2testing_2base_8h.html" target="_top" xlink:title=" ">
<polygon fill="white" stroke="black" points="329.53,-123.5 329.53,-153.5 462.53,-153.5 462.53,-123.5 329.53,-123.5"/>
<text text-anchor="start" x="337.53" y="-141.5" font-family="Helvetica,sans-Serif" font-size="10.00">emlabcpp/experimental</text>
<text text-anchor="middle" x="396.03" y="-130.5" font-family="Helvetica,sans-Serif" font-size="10.00">/testing/base.h</text>
</a>
</g>
</g>
<!-- Node1&#45;&gt;Node2 -->
<g id="edge1" class="edge">
<title>Node1&#45;&gt;Node2</title>
<path fill="none" stroke="midnightblue" d="M423.27,-402.44C382.24,-384.5 315.77,-349.6 278.03,-299 256.42,-270.03 260.19,-256.77 255.03,-221 253.06,-207.36 247.09,-201.27 255.03,-190 270.02,-168.7 294.88,-156.33 319.59,-149.18"/>
<polygon fill="midnightblue" stroke="midnightblue" points="320.61,-152.52 329.39,-146.59 318.83,-145.76 320.61,-152.52"/>
</g>
<!-- Node23 -->
<g id="node5" class="node">
<title>Node23</title>
<g id="a_node5"><a xlink:href="match_8h.html" target="_top" xlink:title=" ">
<polygon fill="white" stroke="red" points="57.53,-0.5 57.53,-19.5 164.53,-19.5 164.53,-0.5 57.53,-0.5"/>
<text text-anchor="middle" x="111.03" y="-7.5" font-family="Helvetica,sans-Serif" font-size="10.00">emlabcpp/match.h</text>
</a>
</g>
</g>
<!-- Node1&#45;&gt;Node23 -->
<g id="edge28" class="edge">
<title>Node1&#45;&gt;Node23</title>
<path fill="none" stroke="midnightblue" d="M373.42,-408.42C240.86,-393.5 1.03,-355.9 1.03,-279 1.03,-279 1.03,-279 1.03,-137.5 1.03,-100.31 -3.08,-85.15 20.03,-56 32.22,-40.62 51.03,-30.1 68.39,-23.13"/>
<polygon fill="midnightblue" stroke="midnightblue" points="69.68,-26.38 77.83,-19.61 67.24,-19.82 69.68,-26.38"/>
</g>
<!-- Node41 -->
<g id="node6" class="node">
<title>Node41</title>
<g id="a_node6"><a xlink:href="static__vector_8h.html" target="_top" xlink:title=" ">
<polygon fill="white" stroke="red" points="364.53,-0.5 364.53,-19.5 503.53,-19.5 503.53,-0.5 364.53,-0.5"/>
<text text-anchor="middle" x="434.03" y="-7.5" font-family="Helvetica,sans-Serif" font-size="10.00">emlabcpp/static_vector.h</text>
</a>
</g>
</g>
<!-- Node1&#45;&gt;Node41 -->
<g id="edge29" class="edge">
<title>Node1&#45;&gt;Node41</title>
<path fill="none" stroke="midnightblue" d="M544.81,-413.81C605.03,-409.08 686.09,-396.86 751.03,-366 804.23,-340.71 851.03,-337.91 851.03,-279 851.03,-279 851.03,-279 851.03,-137.5 851.03,-100.4 860.6,-80.82 833.03,-56 809.79,-35.08 623.17,-21.38 513.58,-15.06"/>
<polygon fill="midnightblue" stroke="midnightblue" points="513.73,-11.56 503.55,-14.49 513.33,-18.55 513.73,-11.56"/>
</g>
<!-- Node60 -->
<g id="node12" class="node">
<title>Node60</title>
<g id="a_node12"><a xlink:href="coroutine_8h.html" target="_top" xlink:title=" ">
<polygon fill="white" stroke="black" points="392.53,-335.5 392.53,-365.5 525.53,-365.5 525.53,-335.5 392.53,-335.5"/>
<text text-anchor="start" x="400.53" y="-353.5" font-family="Helvetica,sans-Serif" font-size="10.00">emlabcpp/experimental</text>
<text text-anchor="middle" x="459.03" y="-342.5" font-family="Helvetica,sans-Serif" font-size="10.00">/testing/coroutine.h</text>
</a>
</g>
</g>
<!-- Node1&#45;&gt;Node60 -->
<g id="edge13" class="edge">
<title>Node1&#45;&gt;Node60</title>
<path fill="none" stroke="midnightblue" d="M459.03,-402.4C459.03,-394.64 459.03,-384.81 459.03,-375.86"/>
<polygon fill="midnightblue" stroke="midnightblue" points="462.53,-375.58 459.03,-365.58 455.53,-375.58 462.53,-375.58"/>
</g>
<!-- Node92 -->
<g id="node18" class="node">
<title>Node92</title>
<g id="a_node18"><a xlink:href="experimental_2testing_2protocol_8h.html" target="_top" xlink:title=" ">
<polygon fill="white" stroke="red" points="556.53,-190.5 556.53,-220.5 689.53,-220.5 689.53,-190.5 556.53,-190.5"/>
<text text-anchor="start" x="564.53" y="-208.5" font-family="Helvetica,sans-Serif" font-size="10.00">emlabcpp/experimental</text>
<text text-anchor="middle" x="623.03" y="-197.5" font-family="Helvetica,sans-Serif" font-size="10.00">/testing/protocol.h</text>
</a>
</g>
</g>
<!-- Node1&#45;&gt;Node92 -->
<g id="edge27" class="edge">
<title>Node1&#45;&gt;Node92</title>
<path fill="none" stroke="midnightblue" d="M544.71,-412.87C624.02,-404.41 737.88,-378.19 794.03,-299 804.82,-283.77 805.2,-271.95 794.03,-257 782.2,-241.17 739.63,-228.57 699.93,-219.91"/>
<polygon fill="midnightblue" stroke="midnightblue" points="700.43,-216.44 689.92,-217.8 698.98,-223.29 700.43,-216.44"/>
</g>
<!-- Node3 -->
<g id="node3" class="node">
<title>Node3</title>
<g id="a_node3"><a xlink:href="algorithm_8h.html" target="_top" xlink:title=" ">
<polygon fill="white" stroke="red" points="532.03,-62 532.03,-81 656.03,-81 656.03,-62 532.03,-62"/>
<text text-anchor="middle" x="594.03" y="-69" font-family="Helvetica,sans-Serif" font-size="10.00">emlabcpp/algorithm.h</text>
</a>
</g>
</g>
<!-- Node2&#45;&gt;Node3 -->
<g id="edge2" class="edge">
<title>Node2&#45;&gt;Node3</title>
<path fill="none" stroke="midnightblue" d="M438.99,-123.4C474.65,-111.69 524.78,-95.23 558.28,-84.23"/>
<polygon fill="midnightblue" stroke="midnightblue" points="559.7,-87.45 568.11,-81.01 557.52,-80.8 559.7,-87.45"/>
</g>
<!-- Node38 -->
<g id="node4" class="node">
<title>Node38</title>
<g id="a_node4"><a xlink:href="tree_8h.html" target="_top" xlink:title=" ">
<polygon fill="white" stroke="red" points="111.53,-56.5 111.53,-86.5 244.53,-86.5 244.53,-56.5 111.53,-56.5"/>
<text text-anchor="start" x="119.53" y="-74.5" font-family="Helvetica,sans-Serif" font-size="10.00">emlabcpp/experimental</text>
<text text-anchor="middle" x="178.03" y="-63.5" font-family="Helvetica,sans-Serif" font-size="10.00">/contiguous_tree/tree.h</text>
</a>
</g>
</g>
<!-- Node2&#45;&gt;Node38 -->
<g id="edge3" class="edge">
<title>Node2&#45;&gt;Node38</title>
<path fill="none" stroke="midnightblue" d="M348.99,-123.48C315.58,-113.51 270.55,-100.09 235.08,-89.51"/>
<polygon fill="midnightblue" stroke="midnightblue" points="235.94,-86.11 225.35,-86.61 233.94,-92.82 235.94,-86.11"/>
</g>
<!-- Node2&#45;&gt;Node41 -->
<g id="edge8" class="edge">
<title>Node2&#45;&gt;Node41</title>
<path fill="none" stroke="midnightblue" d="M400.24,-123.48C407.14,-100.51 420.84,-54.89 428.51,-29.37"/>
<polygon fill="midnightblue" stroke="midnightblue" points="431.86,-30.37 431.39,-19.79 425.16,-28.36 431.86,-30.37"/>
</g>
<!-- Node29 -->
<g id="node7" class="node">
<title>Node29</title>
<g id="a_node7"><a xlink:title=" ">
<polygon fill="white" stroke="#bfbfbf" points="226.03,-0.5 226.03,-19.5 264.03,-19.5 264.03,-0.5 226.03,-0.5"/>
<text text-anchor="middle" x="245.03" y="-7.5" font-family="Helvetica,sans-Serif" font-size="10.00">map</text>
</a>
</g>
</g>
<!-- Node2&#45;&gt;Node29 -->
<g id="edge10" class="edge">
<title>Node2&#45;&gt;Node29</title>
<path fill="none" stroke="midnightblue" d="M396.65,-123.23C396.64,-105.3 393.89,-74.63 377.03,-56 350.69,-26.9 304.78,-16.61 274.65,-12.98"/>
<polygon fill="midnightblue" stroke="midnightblue" points="274.63,-9.46 264.33,-11.92 273.92,-16.42 274.63,-9.46"/>
</g>
<!-- Node57 -->
<g id="node8" class="node">
<title>Node57</title>
<g id="a_node8"><a xlink:href="static__function_8h.html" target="_top" xlink:title=" ">
<polygon fill="white" stroke="red" points="674.53,-62 674.53,-81 823.53,-81 823.53,-62 674.53,-62"/>
<text text-anchor="middle" x="749.03" y="-69" font-family="Helvetica,sans-Serif" font-size="10.00">emlabcpp/static_function.h</text>
</a>
</g>
</g>
<!-- Node2&#45;&gt;Node57 -->
<g id="edge7" class="edge">
<title>Node2&#45;&gt;Node57</title>
<path fill="none" stroke="midnightblue" d="M462.84,-125.2C529.3,-112.96 630.13,-94.39 692.66,-82.88"/>
<polygon fill="midnightblue" stroke="midnightblue" points="693.54,-86.28 702.74,-81.02 692.27,-79.39 693.54,-86.28"/>
</g>
<!-- Node58 -->
<g id="node9" class="node">
<title>Node58</title>
<g id="a_node9"><a xlink:title=" ">
<polygon fill="white" stroke="#bfbfbf" points="29.03,-62 29.03,-81 93.03,-81 93.03,-62 29.03,-62"/>
<text text-anchor="middle" x="61.03" y="-69" font-family="Helvetica,sans-Serif" font-size="10.00">algorithm</text>
</a>
</g>
</g>
<!-- Node2&#45;&gt;Node58 -->
<g id="edge9" class="edge">
<title>Node2&#45;&gt;Node58</title>
<path fill="none" stroke="midnightblue" d="M329.37,-129.34C269.33,-121.22 178.95,-107.05 102.03,-87 98.98,-86.21 95.84,-85.29 92.72,-84.3"/>
<polygon fill="midnightblue" stroke="midnightblue" points="93.54,-80.89 82.94,-81.02 91.31,-87.52 93.54,-80.89"/>
</g>
<!-- Node59 -->
<g id="node10" class="node">
<title>Node59</title>
<g id="a_node10"><a xlink:title=" ">
<polygon fill="white" stroke="#bfbfbf" points="262.53,-62 262.53,-81 367.53,-81 367.53,-62 262.53,-62"/>
<text text-anchor="middle" x="315.03" y="-69" font-family="Helvetica,sans-Serif" font-size="10.00">memory_resource</text>
</a>
</g>
</g>
<!-- Node2&#45;&gt;Node59 -->
<g id="edge11" class="edge">
<title>Node2&#45;&gt;Node59</title>
<path fill="none" stroke="midnightblue" d="M378.45,-123.4C365.32,-112.86 347.4,-98.48 333.95,-87.69"/>
<polygon fill="midnightblue" stroke="midnightblue" points="335.85,-84.72 325.86,-81.19 331.47,-90.18 335.85,-84.72"/>
</g>
<!-- Node16 -->
<g id="node11" class="node">
<title>Node16</title>
<g id="a_node11"><a xlink:title=" ">
<polygon fill="white" stroke="#bfbfbf" points="462.53,-62 462.53,-81 513.53,-81 513.53,-62 462.53,-62"/>
<text text-anchor="middle" x="488.03" y="-69" font-family="Helvetica,sans-Serif" font-size="10.00">variant</text>
</a>
</g>
</g>
<!-- Node2&#45;&gt;Node16 -->
<g id="edge12" class="edge">
<title>Node2&#45;&gt;Node16</title>
<path fill="none" stroke="midnightblue" d="M415.99,-123.4C431.27,-112.6 452.28,-97.76 467.66,-86.89"/>
<polygon fill="midnightblue" stroke="midnightblue" points="469.84,-89.64 475.99,-81.01 465.8,-83.92 469.84,-89.64"/>
</g>
<!-- Node38&#45;&gt;Node23 -->
<g id="edge4" class="edge">
<title>Node38&#45;&gt;Node23</title>
<path fill="none" stroke="midnightblue" d="M162.15,-56.4C152.01,-47.4 138.86,-35.72 128.44,-26.47"/>
<polygon fill="midnightblue" stroke="midnightblue" points="130.58,-23.68 120.78,-19.66 125.93,-28.92 130.58,-23.68"/>
</g>
<!-- Node38&#45;&gt;Node41 -->
<g id="edge5" class="edge">
<title>Node38&#45;&gt;Node41</title>
<path fill="none" stroke="midnightblue" d="M238.37,-56.47C283.98,-45.87 345.68,-31.53 387.51,-21.81"/>
<polygon fill="midnightblue" stroke="midnightblue" points="388.48,-25.18 397.43,-19.51 386.89,-18.36 388.48,-25.18"/>
</g>
<!-- Node38&#45;&gt;Node29 -->
<g id="edge6" class="edge">
<title>Node38&#45;&gt;Node29</title>
<path fill="none" stroke="midnightblue" d="M193.9,-56.4C204.04,-47.4 217.19,-35.72 227.61,-26.47"/>
<polygon fill="midnightblue" stroke="midnightblue" points="230.12,-28.92 235.28,-19.66 225.48,-23.68 230.12,-28.92"/>
</g>
<!-- Node61 -->
<g id="node13" class="node">
<title>Node61</title>
<g id="a_node13"><a xlink:href="memory__promise_8h.html" target="_top" xlink:title=" ">
<polygon fill="white" stroke="red" points="487.53,-263 487.53,-293 626.53,-293 626.53,-263 487.53,-263"/>
<text text-anchor="start" x="495.53" y="-281" font-family="Helvetica,sans-Serif" font-size="10.00">emlabcpp/experimental</text>
<text text-anchor="middle" x="557.03" y="-270" font-family="Helvetica,sans-Serif" font-size="10.00">/coro/memory_promise.h</text>
</a>
</g>
</g>
<!-- Node60&#45;&gt;Node61 -->
<g id="edge14" class="edge">
<title>Node60&#45;&gt;Node61</title>
<path fill="none" stroke="midnightblue" d="M478.86,-335.23C493.3,-324.85 513.05,-310.63 529.09,-299.1"/>
<polygon fill="midnightblue" stroke="midnightblue" points="531.48,-301.69 537.56,-293 527.4,-296 531.48,-301.69"/>
</g>
<!-- Node62 -->
<g id="node14" class="node">
<title>Node62</title>
<g id="a_node14"><a xlink:href="owning__coroutine__handle_8h.html" target="_top" xlink:title=" ">
<polygon fill="white" stroke="red" points="297.53,-257.5 297.53,-298.5 430.53,-298.5 430.53,-257.5 297.53,-257.5"/>
<text text-anchor="start" x="305.53" y="-286.5" font-family="Helvetica,sans-Serif" font-size="10.00">emlabcpp/experimental</text>
<text text-anchor="start" x="305.53" y="-275.5" font-family="Helvetica,sans-Serif" font-size="10.00">/coro/owning_coroutine</text>
<text text-anchor="middle" x="364.03" y="-264.5" font-family="Helvetica,sans-Serif" font-size="10.00">_handle.h</text>
</a>
</g>
</g>
<!-- Node60&#45;&gt;Node62 -->
<g id="edge15" class="edge">
<title>Node60&#45;&gt;Node62</title>
<path fill="none" stroke="midnightblue" d="M439.8,-335.23C428.04,-326.5 412.64,-315.07 398.79,-304.8"/>
<polygon fill="midnightblue" stroke="midnightblue" points="400.54,-301.74 390.42,-298.59 396.37,-307.36 400.54,-301.74"/>
</g>
<!-- Node63 -->
<g id="node15" class="node">
<title>Node63</title>
<g id="a_node15"><a xlink:title=" ">
<polygon fill="white" stroke="#bfbfbf" points="420.03,-196 420.03,-215 482.03,-215 482.03,-196 420.03,-196"/>
<text text-anchor="middle" x="451.03" y="-203" font-family="Helvetica,sans-Serif" font-size="10.00">coroutine</text>
</a>
</g>
</g>
<!-- Node60&#45;&gt;Node63 -->
<g id="edge26" class="edge">
<title>Node60&#45;&gt;Node63</title>
<path fill="none" stroke="midnightblue" d="M458.23,-335.27C456.78,-309.32 453.7,-254.35 452.08,-225.34"/>
<polygon fill="midnightblue" stroke="midnightblue" points="455.57,-225.07 451.52,-215.28 448.58,-225.46 455.57,-225.07"/>
</g>
<!-- Node64 -->
<g id="node16" class="node">
<title>Node64</title>
<g id="a_node16"><a xlink:href="experimental_2testing_2convert_8h.html" target="_top" xlink:title=" ">
<polygon fill="white" stroke="black" points="264.53,-190.5 264.53,-220.5 397.53,-220.5 397.53,-190.5 264.53,-190.5"/>
<text text-anchor="start" x="272.53" y="-208.5" font-family="Helvetica,sans-Serif" font-size="10.00">emlabcpp/experimental</text>
<text text-anchor="middle" x="331.03" y="-197.5" font-family="Helvetica,sans-Serif" font-size="10.00">/testing/convert.h</text>
</a>
</g>
</g>
<!-- Node60&#45;&gt;Node64 -->
<g id="edge17" class="edge">
<title>Node60&#45;&gt;Node64</title>
<path fill="none" stroke="midnightblue" d="M392.13,-338.2C349.86,-329.54 300.86,-316.17 288.03,-299 271.55,-276.96 290.92,-247.6 308.68,-227.92"/>
<polygon fill="midnightblue" stroke="midnightblue" points="311.25,-230.31 315.59,-220.64 306.17,-225.49 311.25,-230.31"/>
</g>
<!-- Node65 -->
<g id="node17" class="node">
<title>Node65</title>
<g id="a_node17"><a xlink:href="reactor__interface__adapter_8h.html" target="_top" xlink:title=" ">
<polygon fill="white" stroke="red" points="645.03,-257.5 645.03,-298.5 785.03,-298.5 785.03,-257.5 645.03,-257.5"/>
<text text-anchor="start" x="653.03" y="-286.5" font-family="Helvetica,sans-Serif" font-size="10.00">emlabcpp/experimental</text>
<text text-anchor="start" x="653.03" y="-275.5" font-family="Helvetica,sans-Serif" font-size="10.00">/testing/reactor_interface</text>
<text text-anchor="middle" x="715.03" y="-264.5" font-family="Helvetica,sans-Serif" font-size="10.00">_adapter.h</text>
</a>
</g>
</g>
<!-- Node60&#45;&gt;Node65 -->
<g id="edge19" class="edge">
<title>Node60&#45;&gt;Node65</title>
<path fill="none" stroke="midnightblue" d="M509.91,-335.49C545.68,-325.64 594.27,-312.26 635.17,-300.99"/>
<polygon fill="midnightblue" stroke="midnightblue" points="636.14,-304.35 644.85,-298.33 634.28,-297.61 636.14,-304.35"/>
</g>
<!-- Node62&#45;&gt;Node63 -->
<g id="edge16" class="edge">
<title>Node62&#45;&gt;Node63</title>
<path fill="none" stroke="midnightblue" d="M388.26,-257.36C402.15,-246.11 419.32,-232.19 432.19,-221.76"/>
<polygon fill="midnightblue" stroke="midnightblue" points="434.76,-224.19 440.32,-215.17 430.35,-218.75 434.76,-224.19"/>
</g>
<!-- Node64&#45;&gt;Node2 -->
<g id="edge18" class="edge">
<title>Node64&#45;&gt;Node2</title>
<path fill="none" stroke="midnightblue" d="M345.13,-190.4C353.82,-181.71 365.12,-170.4 374.87,-160.66"/>
<polygon fill="midnightblue" stroke="midnightblue" points="377.35,-163.12 381.95,-153.58 372.4,-158.17 377.35,-163.12"/>
</g>
<!-- Node65&#45;&gt;Node57 -->
<g id="edge25" class="edge">
<title>Node65&#45;&gt;Node57</title>
<path fill="none" stroke="midnightblue" d="M718.29,-257.39C724.82,-218.07 739.46,-130.06 745.89,-91.36"/>
<polygon fill="midnightblue" stroke="midnightblue" points="749.42,-91.48 747.61,-81.04 742.51,-90.34 749.42,-91.48"/>
</g>
<!-- Node65&#45;&gt;Node92 -->
<g id="edge20" class="edge">
<title>Node65&#45;&gt;Node92</title>
<path fill="none" stroke="midnightblue" d="M689.4,-257.36C677.04,-247.89 662.23,-236.54 649.74,-226.97"/>
<polygon fill="midnightblue" stroke="midnightblue" points="651.58,-223.97 641.52,-220.67 647.33,-229.53 651.58,-223.97"/>
</g>
<!-- Node92&#45;&gt;Node2 -->
<g id="edge22" class="edge">
<title>Node92&#45;&gt;Node2</title>
<path fill="none" stroke="midnightblue" d="M574.05,-190.48C539.11,-180.47 491.96,-166.97 454.97,-156.38"/>
<polygon fill="midnightblue" stroke="midnightblue" points="455.88,-153 445.31,-153.61 453.96,-159.73 455.88,-153"/>
</g>
<!-- Node92&#45;&gt;Node3 -->
<g id="edge21" class="edge">
<title>Node92&#45;&gt;Node3</title>
<path fill="none" stroke="midnightblue" d="M619.92,-190.37C614.66,-166.4 603.97,-117.75 598.1,-91.06"/>
<polygon fill="midnightblue" stroke="midnightblue" points="601.48,-90.11 595.92,-81.1 594.64,-91.62 601.48,-90.11"/>
</g>
<!-- Node92&#45;&gt;Node57 -->
<g id="edge23" class="edge">
<title>Node92&#45;&gt;Node57</title>
<path fill="none" stroke="midnightblue" d="M636.51,-190.37C660.11,-165.65 708.76,-114.68 733.64,-88.62"/>
<polygon fill="midnightblue" stroke="midnightblue" points="736.45,-90.75 740.82,-81.1 731.38,-85.91 736.45,-90.75"/>
</g>
<!-- Node92&#45;&gt;Node16 -->
<g id="edge24" class="edge">
<title>Node92&#45;&gt;Node16</title>
<path fill="none" stroke="midnightblue" d="M608.58,-190.37C583.18,-165.54 530.72,-114.24 504.17,-88.28"/>
<polygon fill="midnightblue" stroke="midnightblue" points="506.42,-85.59 496.82,-81.1 501.52,-90.59 506.42,-85.59"/>
</g>
</g>
</svg>
