<?xml version="1.0" encoding="UTF-8" standalone="no"?>
<!DOCTYPE svg PUBLIC "-//W3C//DTD SVG 1.1//EN"
 "http://www.w3.org/Graphics/SVG/1.1/DTD/svg11.dtd">
<!-- Generated by graphviz version 2.43.0 (0)
 -->
<!-- Title: include/emlabcpp/experimental/testing/record.h Pages: 1 -->
<svg width="1150pt" height="452pt"
 viewBox="0.00 0.00 1149.64 452.00" xmlns="http://www.w3.org/2000/svg" xmlns:xlink="http://www.w3.org/1999/xlink">
<g id="graph0" class="graph" transform="scale(1 1) rotate(0) translate(4 448)">
<title>include/emlabcpp/experimental/testing/record.h</title>
<polygon fill="white" stroke="transparent" points="-4,4 -4,-448 1145.64,-448 1145.64,4 -4,4"/>
<!-- Node1 -->
<g id="node1" class="node">
<title>Node1</title>
<g id="a_node1"><a xlink:title=" ">
<polygon fill="#bfbfbf" stroke="black" points="481,-413.5 481,-443.5 652,-443.5 652,-413.5 481,-413.5"/>
<text text-anchor="start" x="489" y="-431.5" font-family="Helvetica,sans-Serif" font-size="10.00">include/emlabcpp/experimental</text>
<text text-anchor="middle" x="566.5" y="-420.5" font-family="Helvetica,sans-Serif" font-size="10.00">/testing/record.h</text>
</a>
</g>
</g>
<!-- Node2 -->
<g id="node2" class="node">
<title>Node2</title>
<g id="a_node2"><a xlink:href="experimental_2testing_2base_8h.html" target="_top" xlink:title=" ">
<polygon fill="white" stroke="black" points="493,-123.5 493,-153.5 626,-153.5 626,-123.5 493,-123.5"/>
<text text-anchor="start" x="501" y="-141.5" font-family="Helvetica,sans-Serif" font-size="10.00">emlabcpp/experimental</text>
<text text-anchor="middle" x="559.5" y="-130.5" font-family="Helvetica,sans-Serif" font-size="10.00">/testing/base.h</text>
</a>
</g>
</g>
<!-- Node1&#45;&gt;Node2 -->
<g id="edge1" class="edge">
<title>Node1&#45;&gt;Node2</title>
<path fill="none" stroke="midnightblue" d="M566.15,-413.22C565.03,-367.05 561.49,-221.46 560.09,-163.58"/>
<polygon fill="midnightblue" stroke="midnightblue" points="563.58,-163.44 559.84,-153.53 556.59,-163.61 563.58,-163.44"/>
</g>
<!-- Node24 -->
<g id="node5" class="node">
<title>Node24</title>
<g id="a_node5"><a xlink:href="match_8h.html" target="_top" xlink:title=" ">
<polygon fill="white" stroke="red" points="0,-0.5 0,-19.5 107,-19.5 107,-0.5 0,-0.5"/>
<text text-anchor="middle" x="53.5" y="-7.5" font-family="Helvetica,sans-Serif" font-size="10.00">emlabcpp/match.h</text>
</a>
</g>
</g>
<!-- Node1&#45;&gt;Node24 -->
<g id="edge34" class="edge">
<title>Node1&#45;&gt;Node24</title>
<path fill="none" stroke="midnightblue" d="M480.75,-424C374.43,-418.51 200.19,-405.42 142.5,-377 94.01,-353.11 57.5,-344.06 57.5,-290 57.5,-290 57.5,-290 57.5,-137.5 57.5,-99.18 55.64,-54.37 54.46,-29.69"/>
<polygon fill="midnightblue" stroke="midnightblue" points="57.95,-29.4 53.96,-19.59 50.96,-29.75 57.95,-29.4"/>
</g>
<!-- Node46 -->
<g id="node6" class="node">
<title>Node46</title>
<g id="a_node6"><a xlink:href="static__vector_8h.html" target="_top" xlink:title=" ">
<polygon fill="white" stroke="red" points="125,-0.5 125,-19.5 264,-19.5 264,-0.5 125,-0.5"/>
<text text-anchor="middle" x="194.5" y="-7.5" font-family="Helvetica,sans-Serif" font-size="10.00">emlabcpp/static_vector.h</text>
</a>
</g>
</g>
<!-- Node1&#45;&gt;Node46 -->
<g id="edge35" class="edge">
<title>Node1&#45;&gt;Node46</title>
<path fill="none" stroke="midnightblue" d="M480.75,-420.01C345.41,-405.79 97.5,-368.96 97.5,-290 97.5,-290 97.5,-290 97.5,-137.5 97.5,-100.31 94.34,-85.87 116.5,-56 127.3,-41.44 144.31,-30.84 159.7,-23.6"/>
<polygon fill="midnightblue" stroke="midnightblue" points="161.25,-26.74 169,-19.52 158.44,-20.33 161.25,-26.74"/>
</g>
<!-- Node67 -->
<g id="node13" class="node">
<title>Node67</title>
<g id="a_node13"><a xlink:href="coroutine_8h.html" target="_top" xlink:title=" ">
<polygon fill="white" stroke="black" points="800,-346.5 800,-376.5 933,-376.5 933,-346.5 800,-346.5"/>
<text text-anchor="start" x="808" y="-364.5" font-family="Helvetica,sans-Serif" font-size="10.00">emlabcpp/experimental</text>
<text text-anchor="middle" x="866.5" y="-353.5" font-family="Helvetica,sans-Serif" font-size="10.00">/testing/coroutine.h</text>
</a>
</g>
</g>
<!-- Node1&#45;&gt;Node67 -->
<g id="edge14" class="edge">
<title>Node1&#45;&gt;Node67</title>
<path fill="none" stroke="midnightblue" d="M631.23,-413.48C678.36,-403.26 742.32,-389.41 791.65,-378.72"/>
<polygon fill="midnightblue" stroke="midnightblue" points="792.6,-382.09 801.63,-376.55 791.12,-375.25 792.6,-382.09"/>
</g>
<!-- Node98 -->
<g id="node20" class="node">
<title>Node98</title>
<g id="a_node20"><a xlink:href="experimental_2testing_2protocol_8h.html" target="_top" xlink:title=" ">
<polygon fill="white" stroke="red" points="604,-196 604,-226 737,-226 737,-196 604,-196"/>
<text text-anchor="start" x="612" y="-214" font-family="Helvetica,sans-Serif" font-size="10.00">emlabcpp/experimental</text>
<text text-anchor="middle" x="670.5" y="-203" font-family="Helvetica,sans-Serif" font-size="10.00">/testing/protocol.h</text>
</a>
</g>
</g>
<!-- Node1&#45;&gt;Node98 -->
<g id="edge33" class="edge">
<title>Node1&#45;&gt;Node98</title>
<path fill="none" stroke="midnightblue" d="M573.32,-413.36C590.84,-377.06 637.55,-280.28 659.19,-235.43"/>
<polygon fill="midnightblue" stroke="midnightblue" points="662.46,-236.72 663.65,-226.19 656.15,-233.68 662.46,-236.72"/>
</g>
<!-- Node3 -->
<g id="node3" class="node">
<title>Node3</title>
<g id="a_node3"><a xlink:href="algorithm_8h.html" target="_top" xlink:title=" ">
<polygon fill="white" stroke="red" points="698.5,-62 698.5,-81 822.5,-81 822.5,-62 698.5,-62"/>
<text text-anchor="middle" x="760.5" y="-69" font-family="Helvetica,sans-Serif" font-size="10.00">emlabcpp/algorithm.h</text>
</a>
</g>
</g>
<!-- Node2&#45;&gt;Node3 -->
<g id="edge2" class="edge">
<title>Node2&#45;&gt;Node3</title>
<path fill="none" stroke="midnightblue" d="M603.11,-123.4C639.47,-111.64 690.65,-95.09 724.66,-84.09"/>
<polygon fill="midnightblue" stroke="midnightblue" points="725.76,-87.41 734.19,-81.01 723.6,-80.75 725.76,-87.41"/>
</g>
<!-- Node43 -->
<g id="node4" class="node">
<title>Node43</title>
<g id="a_node4"><a xlink:href="tree_8h.html" target="_top" xlink:title=" ">
<polygon fill="white" stroke="red" points="126,-56.5 126,-86.5 259,-86.5 259,-56.5 126,-56.5"/>
<text text-anchor="start" x="134" y="-74.5" font-family="Helvetica,sans-Serif" font-size="10.00">emlabcpp/experimental</text>
<text text-anchor="middle" x="192.5" y="-63.5" font-family="Helvetica,sans-Serif" font-size="10.00">/contiguous_tree/tree.h</text>
</a>
</g>
</g>
<!-- Node2&#45;&gt;Node43 -->
<g id="edge3" class="edge">
<title>Node2&#45;&gt;Node43</title>
<path fill="none" stroke="midnightblue" d="M492.99,-126.28C436.22,-116.63 352.13,-102.17 269.08,-87.09"/>
<polygon fill="midnightblue" stroke="midnightblue" points="269.68,-83.64 259.22,-85.29 268.43,-90.53 269.68,-83.64"/>
</g>
<!-- Node37 -->
<g id="node7" class="node">
<title>Node37</title>
<g id="a_node7"><a xlink:title=" ">
<polygon fill="white" stroke="#bfbfbf" points="349.5,-0.5 349.5,-19.5 387.5,-19.5 387.5,-0.5 349.5,-0.5"/>
<text text-anchor="middle" x="368.5" y="-7.5" font-family="Helvetica,sans-Serif" font-size="10.00">map</text>
</a>
</g>
</g>
<!-- Node2&#45;&gt;Node37 -->
<g id="edge11" class="edge">
<title>Node2&#45;&gt;Node37</title>
<path fill="none" stroke="midnightblue" d="M526.58,-123.45C506.29,-114.22 480.11,-101.23 458.5,-87 443.66,-77.22 407.49,-45.69 385.79,-26.45"/>
<polygon fill="midnightblue" stroke="midnightblue" points="388.05,-23.78 378.26,-19.75 383.4,-29.01 388.05,-23.78"/>
</g>
<!-- Node62 -->
<g id="node8" class="node">
<title>Node62</title>
<g id="a_node8"><a xlink:href="string__buffer_8h.html" target="_top" xlink:title=" ">
<polygon fill="white" stroke="red" points="277,-56.5 277,-86.5 410,-86.5 410,-56.5 277,-56.5"/>
<text text-anchor="start" x="285" y="-74.5" font-family="Helvetica,sans-Serif" font-size="10.00">emlabcpp/experimental</text>
<text text-anchor="middle" x="343.5" y="-63.5" font-family="Helvetica,sans-Serif" font-size="10.00">/string_buffer.h</text>
</a>
</g>
</g>
<!-- Node2&#45;&gt;Node62 -->
<g id="edge7" class="edge">
<title>Node2&#45;&gt;Node62</title>
<path fill="none" stroke="midnightblue" d="M512.9,-123.48C479.8,-113.51 435.17,-100.09 400.03,-89.51"/>
<polygon fill="midnightblue" stroke="midnightblue" points="400.98,-86.14 390.39,-86.61 398.96,-92.84 400.98,-86.14"/>
</g>
<!-- Node63 -->
<g id="node9" class="node">
<title>Node63</title>
<g id="a_node9"><a xlink:title=" ">
<polygon fill="white" stroke="#bfbfbf" points="485.5,-0.5 485.5,-19.5 549.5,-19.5 549.5,-0.5 485.5,-0.5"/>
<text text-anchor="middle" x="517.5" y="-7.5" font-family="Helvetica,sans-Serif" font-size="10.00">algorithm</text>
</a>
</g>
</g>
<!-- Node2&#45;&gt;Node63 -->
<g id="edge10" class="edge">
<title>Node2&#45;&gt;Node63</title>
<path fill="none" stroke="midnightblue" d="M569.35,-123.28C579.67,-106.46 592.92,-77.98 581.5,-56 574.35,-42.23 560.83,-31.78 548.05,-24.44"/>
<polygon fill="midnightblue" stroke="midnightblue" points="549.46,-21.23 538.98,-19.64 546.18,-27.41 549.46,-21.23"/>
</g>
<!-- Node65 -->
<g id="node10" class="node">
<title>Node65</title>
<g id="a_node10"><a xlink:href="static__function_8h.html" target="_top" xlink:title=" ">
<polygon fill="white" stroke="red" points="841,-62 841,-81 990,-81 990,-62 841,-62"/>
<text text-anchor="middle" x="915.5" y="-69" font-family="Helvetica,sans-Serif" font-size="10.00">emlabcpp/static_function.h</text>
</a>
</g>
</g>
<!-- Node2&#45;&gt;Node65 -->
<g id="edge9" class="edge">
<title>Node2&#45;&gt;Node65</title>
<path fill="none" stroke="midnightblue" d="M626.04,-125.35C693.05,-113.12 795.32,-94.44 858.65,-82.88"/>
<polygon fill="midnightblue" stroke="midnightblue" points="859.65,-86.26 868.85,-81.02 858.39,-79.37 859.65,-86.26"/>
</g>
<!-- Node66 -->
<g id="node11" class="node">
<title>Node66</title>
<g id="a_node11"><a xlink:title=" ">
<polygon fill="white" stroke="#bfbfbf" points="467,-62 467,-81 572,-81 572,-62 467,-62"/>
<text text-anchor="middle" x="519.5" y="-69" font-family="Helvetica,sans-Serif" font-size="10.00">memory_resource</text>
</a>
</g>
</g>
<!-- Node2&#45;&gt;Node66 -->
<g id="edge12" class="edge">
<title>Node2&#45;&gt;Node66</title>
<path fill="none" stroke="midnightblue" d="M550.82,-123.4C544.77,-113.56 536.66,-100.38 530.2,-89.89"/>
<polygon fill="midnightblue" stroke="midnightblue" points="533.07,-87.88 524.85,-81.19 527.11,-91.55 533.07,-87.88"/>
</g>
<!-- Node16 -->
<g id="node12" class="node">
<title>Node16</title>
<g id="a_node12"><a xlink:title=" ">
<polygon fill="white" stroke="#bfbfbf" points="629,-62 629,-81 680,-81 680,-62 629,-62"/>
<text text-anchor="middle" x="654.5" y="-69" font-family="Helvetica,sans-Serif" font-size="10.00">variant</text>
</a>
</g>
</g>
<!-- Node2&#45;&gt;Node16 -->
<g id="edge13" class="edge">
<title>Node2&#45;&gt;Node16</title>
<path fill="none" stroke="midnightblue" d="M580.11,-123.4C595.9,-112.6 617.59,-97.76 633.47,-86.89"/>
<polygon fill="midnightblue" stroke="midnightblue" points="635.79,-89.54 642.07,-81.01 631.84,-83.77 635.79,-89.54"/>
</g>
<!-- Node43&#45;&gt;Node24 -->
<g id="edge4" class="edge">
<title>Node43&#45;&gt;Node24</title>
<path fill="none" stroke="midnightblue" d="M159.56,-56.4C136.34,-46.46 105.51,-33.26 83.08,-23.66"/>
<polygon fill="midnightblue" stroke="midnightblue" points="84.3,-20.38 73.73,-19.66 81.54,-26.81 84.3,-20.38"/>
</g>
<!-- Node43&#45;&gt;Node46 -->
<g id="edge5" class="edge">
<title>Node43&#45;&gt;Node46</title>
<path fill="none" stroke="midnightblue" d="M192.97,-56.4C193.24,-48.47 193.58,-38.46 193.87,-29.86"/>
<polygon fill="midnightblue" stroke="midnightblue" points="197.37,-29.77 194.21,-19.66 190.37,-29.53 197.37,-29.77"/>
</g>
<!-- Node43&#45;&gt;Node37 -->
<g id="edge6" class="edge">
<title>Node43&#45;&gt;Node37</title>
<path fill="none" stroke="midnightblue" d="M234.21,-56.4C266.62,-45.44 310.74,-30.53 339.42,-20.83"/>
<polygon fill="midnightblue" stroke="midnightblue" points="340.89,-24.03 349.24,-17.51 338.64,-17.4 340.89,-24.03"/>
</g>
<!-- Node62&#45;&gt;Node63 -->
<g id="edge8" class="edge">
<title>Node62&#45;&gt;Node63</title>
<path fill="none" stroke="midnightblue" d="M384.74,-56.4C414.67,-46.16 454.71,-32.47 482.97,-22.81"/>
<polygon fill="midnightblue" stroke="midnightblue" points="484.11,-26.12 492.44,-19.57 481.84,-19.49 484.11,-26.12"/>
</g>
<!-- Node68 -->
<g id="node14" class="node">
<title>Node68</title>
<g id="a_node14"><a xlink:href="memory__promise_8h.html" target="_top" xlink:title=" ">
<polygon fill="white" stroke="red" points="797,-196 797,-226 936,-226 936,-196 797,-196"/>
<text text-anchor="start" x="805" y="-214" font-family="Helvetica,sans-Serif" font-size="10.00">emlabcpp/experimental</text>
<text text-anchor="middle" x="866.5" y="-203" font-family="Helvetica,sans-Serif" font-size="10.00">/coro/memory_promise.h</text>
</a>
</g>
</g>
<!-- Node67&#45;&gt;Node68 -->
<g id="edge15" class="edge">
<title>Node67&#45;&gt;Node68</title>
<path fill="none" stroke="midnightblue" d="M866.5,-346.26C866.5,-320.94 866.5,-267.79 866.5,-236.49"/>
<polygon fill="midnightblue" stroke="midnightblue" points="870,-236.41 866.5,-226.41 863,-236.41 870,-236.41"/>
</g>
<!-- Node69 -->
<g id="node15" class="node">
<title>Node69</title>
<g id="a_node15"><a xlink:href="owning__coroutine__handle_8h.html" target="_top" xlink:title=" ">
<polygon fill="white" stroke="red" points="993,-190.5 993,-231.5 1126,-231.5 1126,-190.5 993,-190.5"/>
<text text-anchor="start" x="1001" y="-219.5" font-family="Helvetica,sans-Serif" font-size="10.00">emlabcpp/experimental</text>
<text text-anchor="start" x="1001" y="-208.5" font-family="Helvetica,sans-Serif" font-size="10.00">/coro/owning_coroutine</text>
<text text-anchor="middle" x="1059.5" y="-197.5" font-family="Helvetica,sans-Serif" font-size="10.00">_handle.h</text>
</a>
</g>
</g>
<!-- Node67&#45;&gt;Node69 -->
<g id="edge16" class="edge">
<title>Node67&#45;&gt;Node69</title>
<path fill="none" stroke="midnightblue" d="M933.03,-357.02C969.07,-351.62 1011.61,-338.97 1038.5,-310 1055.41,-291.78 1059.99,-263.38 1060.73,-241.83"/>
<polygon fill="midnightblue" stroke="midnightblue" points="1064.23,-241.61 1060.82,-231.58 1057.23,-241.55 1064.23,-241.61"/>
</g>
<!-- Node70 -->
<g id="node16" class="node">
<title>Node70</title>
<g id="a_node16"><a xlink:title=" ">
<polygon fill="white" stroke="#bfbfbf" points="1028.5,-129 1028.5,-148 1090.5,-148 1090.5,-129 1028.5,-129"/>
<text text-anchor="middle" x="1059.5" y="-136" font-family="Helvetica,sans-Serif" font-size="10.00">coroutine</text>
</a>
</g>
</g>
<!-- Node67&#45;&gt;Node70 -->
<g id="edge32" class="edge">
<title>Node67&#45;&gt;Node70</title>
<path fill="none" stroke="midnightblue" d="M933.25,-353.24C1002.19,-341.5 1104,-310.96 1135.5,-232 1142.42,-214.66 1144.32,-206.45 1135.5,-190 1126.3,-172.84 1108.42,-160.52 1092.32,-152.35"/>
<polygon fill="midnightblue" stroke="midnightblue" points="1093.65,-149.11 1083.12,-148.01 1090.67,-155.44 1093.65,-149.11"/>
</g>
<!-- Node71 -->
<g id="node17" class="node">
<title>Node71</title>
<g id="a_node17"><a xlink:href="recursive_8h.html" target="_top" xlink:title=" ">
<polygon fill="white" stroke="black" points="896,-274 896,-304 1029,-304 1029,-274 896,-274"/>
<text text-anchor="start" x="904" y="-292" font-family="Helvetica,sans-Serif" font-size="10.00">emlabcpp/experimental</text>
<text text-anchor="middle" x="962.5" y="-281" font-family="Helvetica,sans-Serif" font-size="10.00">/coro/recursive.h</text>
</a>
</g>
</g>
<!-- Node67&#45;&gt;Node71 -->
<g id="edge18" class="edge">
<title>Node67&#45;&gt;Node71</title>
<path fill="none" stroke="midnightblue" d="M885.93,-346.23C900.07,-335.85 919.42,-321.63 935.13,-310.1"/>
<polygon fill="midnightblue" stroke="midnightblue" points="937.44,-312.75 943.43,-304 933.3,-307.1 937.44,-312.75"/>
</g>
<!-- Node72 -->
<g id="node18" class="node">
<title>Node72</title>
<g id="a_node18"><a xlink:href="experimental_2testing_2convert_8h.html" target="_top" xlink:title=" ">
<polygon fill="white" stroke="black" points="405,-196 405,-226 538,-226 538,-196 405,-196"/>
<text text-anchor="start" x="413" y="-214" font-family="Helvetica,sans-Serif" font-size="10.00">emlabcpp/experimental</text>
<text text-anchor="middle" x="471.5" y="-203" font-family="Helvetica,sans-Serif" font-size="10.00">/testing/convert.h</text>
</a>
</g>
</g>
<!-- Node67&#45;&gt;Node72 -->
<g id="edge22" class="edge">
<title>Node67&#45;&gt;Node72</title>
<path fill="none" stroke="midnightblue" d="M809.24,-346.41C774.25,-337.25 728.82,-324.36 689.5,-310 624.27,-286.18 551.17,-251.62 508.36,-230.55"/>
<polygon fill="midnightblue" stroke="midnightblue" points="509.7,-227.3 499.18,-226.01 506.59,-233.58 509.7,-227.3"/>
</g>
<!-- Node73 -->
<g id="node19" class="node">
<title>Node73</title>
<g id="a_node19"><a xlink:href="reactor__interface__adapter_8h.html" target="_top" xlink:title=" ">
<polygon fill="white" stroke="red" points="698.5,-268.5 698.5,-309.5 838.5,-309.5 838.5,-268.5 698.5,-268.5"/>
<text text-anchor="start" x="706.5" y="-297.5" font-family="Helvetica,sans-Serif" font-size="10.00">emlabcpp/experimental</text>
<text text-anchor="start" x="706.5" y="-286.5" font-family="Helvetica,sans-Serif" font-size="10.00">/testing/reactor_interface</text>
<text text-anchor="middle" x="768.5" y="-275.5" font-family="Helvetica,sans-Serif" font-size="10.00">_adapter.h</text>
</a>
</g>
</g>
<!-- Node67&#45;&gt;Node73 -->
<g id="edge25" class="edge">
<title>Node67&#45;&gt;Node73</title>
<path fill="none" stroke="midnightblue" d="M846.67,-346.23C834.42,-337.42 818.35,-325.86 803.96,-315.51"/>
<polygon fill="midnightblue" stroke="midnightblue" points="805.89,-312.59 795.73,-309.59 801.8,-318.27 805.89,-312.59"/>
</g>
<!-- Node69&#45;&gt;Node70 -->
<g id="edge17" class="edge">
<title>Node69&#45;&gt;Node70</title>
<path fill="none" stroke="midnightblue" d="M1059.5,-190.36C1059.5,-180.3 1059.5,-168.1 1059.5,-158.18"/>
<polygon fill="midnightblue" stroke="midnightblue" points="1063,-158.17 1059.5,-148.17 1056,-158.17 1063,-158.17"/>
</g>
<!-- Node71&#45;&gt;Node68 -->
<g id="edge19" class="edge">
<title>Node71&#45;&gt;Node68</title>
<path fill="none" stroke="midnightblue" d="M944.44,-273.7C929.83,-262.13 909.05,-245.68 892.62,-232.67"/>
<polygon fill="midnightblue" stroke="midnightblue" points="894.49,-229.69 884.48,-226.23 890.14,-235.18 894.49,-229.69"/>
</g>
<!-- Node71&#45;&gt;Node69 -->
<g id="edge20" class="edge">
<title>Node71&#45;&gt;Node69</title>
<path fill="none" stroke="midnightblue" d="M980.74,-273.7C993.53,-263.69 1010.97,-250.02 1026.2,-238.09"/>
<polygon fill="midnightblue" stroke="midnightblue" points="1028.67,-240.6 1034.38,-231.68 1024.35,-235.09 1028.67,-240.6"/>
</g>
<!-- Node71&#45;&gt;Node70 -->
<g id="edge21" class="edge">
<title>Node71&#45;&gt;Node70</title>
<path fill="none" stroke="midnightblue" d="M962.49,-273.73C963.15,-253.41 966.89,-215.77 984.5,-190 995.58,-173.79 1013.73,-161.37 1029.4,-152.9"/>
<polygon fill="midnightblue" stroke="midnightblue" points="1031.42,-155.8 1038.75,-148.14 1028.25,-149.56 1031.42,-155.8"/>
</g>
<!-- Node72&#45;&gt;Node2 -->
<g id="edge24" class="edge">
<title>Node72&#45;&gt;Node2</title>
<path fill="none" stroke="midnightblue" d="M489.31,-195.73C502.15,-185.44 519.69,-171.4 534.01,-159.92"/>
<polygon fill="midnightblue" stroke="midnightblue" points="536.4,-162.49 542.02,-153.5 532.03,-157.03 536.4,-162.49"/>
</g>
<!-- Node72&#45;&gt;Node62 -->
<g id="edge23" class="edge">
<title>Node72&#45;&gt;Node62</title>
<path fill="none" stroke="midnightblue" d="M458.28,-195.8C435.86,-171.72 390.24,-122.71 363.76,-94.26"/>
<polygon fill="midnightblue" stroke="midnightblue" points="366.21,-91.76 356.84,-86.83 361.09,-96.53 366.21,-91.76"/>
</g>
<!-- Node73&#45;&gt;Node65 -->
<g id="edge31" class="edge">
<title>Node73&#45;&gt;Node65</title>
<path fill="none" stroke="midnightblue" d="M769,-268.36C770.3,-247.65 774.61,-214.66 788.5,-190 814.16,-144.42 863.68,-106.48 892.73,-86.87"/>
<polygon fill="midnightblue" stroke="midnightblue" points="894.96,-89.59 901.38,-81.17 891.1,-83.75 894.96,-89.59"/>
</g>
<!-- Node73&#45;&gt;Node98 -->
<g id="edge26" class="edge">
<title>Node73&#45;&gt;Node98</title>
<path fill="none" stroke="midnightblue" d="M743.26,-268.43C729.04,-257.4 711.29,-243.64 696.89,-232.46"/>
<polygon fill="midnightblue" stroke="midnightblue" points="698.89,-229.59 688.84,-226.23 694.6,-235.12 698.89,-229.59"/>
</g>
<!-- Node98&#45;&gt;Node2 -->
<g id="edge28" class="edge">
<title>Node98&#45;&gt;Node2</title>
<path fill="none" stroke="midnightblue" d="M648.3,-195.9C631.67,-185.34 608.69,-170.74 590.28,-159.05"/>
<polygon fill="midnightblue" stroke="midnightblue" points="591.98,-155.98 581.66,-153.57 588.22,-161.89 591.98,-155.98"/>
</g>
<!-- Node98&#45;&gt;Node3 -->
<g id="edge27" class="edge">
<title>Node98&#45;&gt;Node3</title>
<path fill="none" stroke="midnightblue" d="M676.74,-195.87C684.82,-178.17 699.87,-147.23 716.5,-123 724.85,-110.84 735.72,-98.33 744.58,-88.81"/>
<polygon fill="midnightblue" stroke="midnightblue" points="747.37,-90.95 751.72,-81.29 742.29,-86.13 747.37,-90.95"/>
</g>
<!-- Node98&#45;&gt;Node65 -->
<g id="edge29" class="edge">
<title>Node98&#45;&gt;Node65</title>
<path fill="none" stroke="midnightblue" d="M682.49,-195.99C701.47,-174.1 737.98,-133.21 754.5,-123 785.87,-103.62 825.32,-91.09 857.31,-83.36"/>
<polygon fill="midnightblue" stroke="midnightblue" points="858.47,-86.68 867.42,-81.01 856.89,-79.86 858.47,-86.68"/>
</g>
<!-- Node98&#45;&gt;Node16 -->
<g id="edge30" class="edge">
<title>Node98&#45;&gt;Node16</title>
<path fill="none" stroke="midnightblue" d="M668.85,-195.8C665.94,-170.84 659.92,-119.08 656.68,-91.22"/>
<polygon fill="midnightblue" stroke="midnightblue" points="660.14,-90.73 655.51,-81.2 653.19,-91.54 660.14,-90.73"/>
</g>
</g>
</svg>
