<?xml version="1.0" encoding="UTF-8" standalone="no"?>
<!DOCTYPE svg PUBLIC "-//W3C//DTD SVG 1.1//EN"
 "http://www.w3.org/Graphics/SVG/1.1/DTD/svg11.dtd">
<!-- Generated by graphviz version 2.43.0 (0)
 -->
<!-- Title: include/emlabcpp/experimental/coro/recursive.h Pages: 1 -->
<svg width="467pt" height="173pt"
 viewBox="0.00 0.00 466.50 173.00" xmlns="http://www.w3.org/2000/svg" xmlns:xlink="http://www.w3.org/1999/xlink">
<g id="graph0" class="graph" transform="scale(1 1) rotate(0) translate(4 169)">
<title>include/emlabcpp/experimental/coro/recursive.h</title>
<polygon fill="white" stroke="transparent" points="-4,4 -4,-169 462.5,-169 462.5,4 -4,4"/>
<!-- Node1 -->
<g id="node1" class="node">
<title>Node1</title>
<g id="a_node1"><a xlink:title=" ">
<polygon fill="#bfbfbf" stroke="black" points="213,-134.5 213,-164.5 384,-164.5 384,-134.5 213,-134.5"/>
<text text-anchor="start" x="221" y="-152.5" font-family="Helvetica,sans-Serif" font-size="10.00">include/emlabcpp/experimental</text>
<text text-anchor="middle" x="298.5" y="-141.5" font-family="Helvetica,sans-Serif" font-size="10.00">/coro/recursive.h</text>
</a>
</g>
</g>
<!-- Node2 -->
<g id="node2" class="node">
<title>Node2</title>
<g id="a_node2"><a xlink:href="data__promise_8h.html" target="_top" xlink:title=" ">
<polygon fill="white" stroke="black" points="188.5,-73 188.5,-92 286.5,-92 286.5,-73 188.5,-73"/>
<text text-anchor="middle" x="237.5" y="-80" font-family="Helvetica,sans-Serif" font-size="10.00">./data_promise.h</text>
</a>
</g>
</g>
<!-- Node1&#45;&gt;Node2 -->
<g id="edge1" class="edge">
<title>Node1&#45;&gt;Node2</title>
<path fill="none" stroke="midnightblue" d="M285.26,-134.4C275.66,-124.16 262.65,-110.3 252.63,-99.62"/>
<polygon fill="midnightblue" stroke="midnightblue" points="255.05,-97.09 245.66,-92.19 249.95,-101.88 255.05,-97.09"/>
</g>
<!-- Node4 -->
<g id="node4" class="node">
<title>Node4</title>
<g id="a_node4"><a xlink:href="memory__promise_8h.html" target="_top" xlink:title=" ">
<polygon fill="white" stroke="black" points="52.5,-73 52.5,-92 170.5,-92 170.5,-73 52.5,-73"/>
<text text-anchor="middle" x="111.5" y="-80" font-family="Helvetica,sans-Serif" font-size="10.00">./memory_promise.h</text>
</a>
</g>
</g>
<!-- Node1&#45;&gt;Node4 -->
<g id="edge3" class="edge">
<title>Node1&#45;&gt;Node4</title>
<path fill="none" stroke="midnightblue" d="M257.92,-134.4C224.39,-122.74 177.3,-106.37 145.67,-95.38"/>
<polygon fill="midnightblue" stroke="midnightblue" points="146.57,-91.98 135.97,-92.01 144.27,-98.6 146.57,-91.98"/>
</g>
<!-- Node36 -->
<g id="node7" class="node">
<title>Node36</title>
<g id="a_node7"><a xlink:href="owning__coroutine__handle_8h.html" target="_top" xlink:title=" ">
<polygon fill="white" stroke="black" points="305,-67.5 305,-97.5 414,-97.5 414,-67.5 305,-67.5"/>
<text text-anchor="start" x="313" y="-85.5" font-family="Helvetica,sans-Serif" font-size="10.00">./owning_coroutine</text>
<text text-anchor="middle" x="359.5" y="-74.5" font-family="Helvetica,sans-Serif" font-size="10.00">_handle.h</text>
</a>
</g>
</g>
<!-- Node1&#45;&gt;Node36 -->
<g id="edge6" class="edge">
<title>Node1&#45;&gt;Node36</title>
<path fill="none" stroke="midnightblue" d="M311.74,-134.4C319.81,-125.79 330.29,-114.63 339.37,-104.94"/>
<polygon fill="midnightblue" stroke="midnightblue" points="342,-107.26 346.29,-97.58 336.89,-102.47 342,-107.26"/>
</g>
<!-- Node37 -->
<g id="node8" class="node">
<title>Node37</title>
<g id="a_node8"><a xlink:title=" ">
<polygon fill="white" stroke="#bfbfbf" points="396.5,-6 396.5,-25 458.5,-25 458.5,-6 396.5,-6"/>
<text text-anchor="middle" x="427.5" y="-13" font-family="Helvetica,sans-Serif" font-size="10.00">coroutine</text>
</a>
</g>
</g>
<!-- Node1&#45;&gt;Node37 -->
<g id="edge9" class="edge">
<title>Node1&#45;&gt;Node37</title>
<path fill="none" stroke="midnightblue" d="M370.29,-134.39C390.29,-126.9 409.96,-115.47 422.5,-98 435.58,-79.78 434.4,-52.94 431.59,-35.1"/>
<polygon fill="midnightblue" stroke="midnightblue" points="435,-34.26 429.7,-25.09 428.12,-35.57 435,-34.26"/>
</g>
<!-- Node3 -->
<g id="node3" class="node">
<title>Node3</title>
<g id="a_node3"><a xlink:title=" ">
<polygon fill="white" stroke="#bfbfbf" points="318,-6 318,-25 363,-25 363,-6 318,-6"/>
<text text-anchor="middle" x="340.5" y="-13" font-family="Helvetica,sans-Serif" font-size="10.00">utility</text>
</a>
</g>
</g>
<!-- Node2&#45;&gt;Node3 -->
<g id="edge2" class="edge">
<title>Node2&#45;&gt;Node3</title>
<path fill="none" stroke="midnightblue" d="M251.39,-72.73C268.53,-61.92 297.9,-43.38 318.21,-30.57"/>
<polygon fill="midnightblue" stroke="midnightblue" points="320.24,-33.42 326.83,-25.13 316.5,-27.5 320.24,-33.42"/>
</g>
<!-- Node5 -->
<g id="node5" class="node">
<title>Node5</title>
<g id="a_node5"><a xlink:href="memory__resource_8h.html" target="_top" xlink:title=" ">
<polygon fill="white" stroke="red" points="0,-6 0,-25 155,-25 155,-6 0,-6"/>
<text text-anchor="middle" x="77.5" y="-13" font-family="Helvetica,sans-Serif" font-size="10.00">../../pmr/memory_resource.h</text>
</a>
</g>
</g>
<!-- Node4&#45;&gt;Node5 -->
<g id="edge4" class="edge">
<title>Node4&#45;&gt;Node5</title>
<path fill="none" stroke="midnightblue" d="M106.91,-72.73C101.77,-62.89 93.28,-46.66 86.74,-34.16"/>
<polygon fill="midnightblue" stroke="midnightblue" points="89.75,-32.37 82.01,-25.13 83.55,-35.61 89.75,-32.37"/>
</g>
<!-- Node34 -->
<g id="node6" class="node">
<title>Node34</title>
<g id="a_node6"><a xlink:href="throw__bad__alloc_8h.html" target="_top" xlink:title=" ">
<polygon fill="white" stroke="red" points="173.5,-0.5 173.5,-30.5 281.5,-30.5 281.5,-0.5 173.5,-0.5"/>
<text text-anchor="start" x="181.5" y="-18.5" font-family="Helvetica,sans-Serif" font-size="10.00">../../pmr/throw_bad</text>
<text text-anchor="middle" x="227.5" y="-7.5" font-family="Helvetica,sans-Serif" font-size="10.00">_alloc.h</text>
</a>
</g>
</g>
<!-- Node4&#45;&gt;Node34 -->
<g id="edge5" class="edge">
<title>Node4&#45;&gt;Node34</title>
<path fill="none" stroke="midnightblue" d="M127.14,-72.73C144.03,-63.27 171.44,-47.91 193.35,-35.64"/>
<polygon fill="midnightblue" stroke="midnightblue" points="195.34,-38.53 202.36,-30.59 191.92,-32.42 195.34,-38.53"/>
</g>
<!-- Node36&#45;&gt;Node3 -->
<g id="edge8" class="edge">
<title>Node36&#45;&gt;Node3</title>
<path fill="none" stroke="midnightblue" d="M355.38,-67.4C352.59,-57.86 348.88,-45.18 345.87,-34.86"/>
<polygon fill="midnightblue" stroke="midnightblue" points="349.21,-33.81 343.04,-25.19 342.49,-35.77 349.21,-33.81"/>
</g>
<!-- Node36&#45;&gt;Node37 -->
<g id="edge7" class="edge">
<title>Node36&#45;&gt;Node37</title>
<path fill="none" stroke="midnightblue" d="M374.25,-67.4C385.07,-57.06 399.75,-43.02 410.96,-32.31"/>
<polygon fill="midnightblue" stroke="midnightblue" points="413.59,-34.63 418.4,-25.19 408.76,-29.57 413.59,-34.63"/>
</g>
</g>
</svg>
