<?xml version="1.0" encoding="UTF-8" standalone="no"?>
<!DOCTYPE svg PUBLIC "-//W3C//DTD SVG 1.1//EN"
 "http://www.w3.org/Graphics/SVG/1.1/DTD/svg11.dtd">
<!-- Generated by graphviz version 2.43.0 (0)
 -->
<!-- Title: include/emlabcpp/protocol/register_handler.h Pages: 1 -->
<svg width="950pt" height="274pt"
 viewBox="0.00 0.00 950.08 274.00" xmlns="http://www.w3.org/2000/svg" xmlns:xlink="http://www.w3.org/1999/xlink">
<g id="graph0" class="graph" transform="scale(1 1) rotate(0) translate(4 270)">
<title>include/emlabcpp/protocol/register_handler.h</title>
<polygon fill="white" stroke="transparent" points="-4,4 -4,-270 946.08,-270 946.08,4 -4,4"/>
<!-- Node1 -->
<g id="node1" class="node">
<title>Node1</title>
<g id="a_node1"><a xlink:title=" ">
<polygon fill="#bfbfbf" stroke="black" points="194.58,-235.5 194.58,-265.5 340.58,-265.5 340.58,-235.5 194.58,-235.5"/>
<text text-anchor="start" x="202.58" y="-253.5" font-family="Helvetica,sans-Serif" font-size="10.00">include/emlabcpp/protocol</text>
<text text-anchor="middle" x="267.58" y="-242.5" font-family="Helvetica,sans-Serif" font-size="10.00">/register_handler.h</text>
</a>
</g>
</g>
<!-- Node2 -->
<g id="node2" class="node">
<title>Node2</title>
<g id="a_node2"><a xlink:href="either_8h.html" target="_top" xlink:title=" ">
<polygon fill="white" stroke="black" points="22.58,-123.5 22.58,-142.5 126.58,-142.5 126.58,-123.5 22.58,-123.5"/>
<text text-anchor="middle" x="74.58" y="-130.5" font-family="Helvetica,sans-Serif" font-size="10.00">emlabcpp/either.h</text>
</a>
</g>
</g>
<!-- Node1&#45;&gt;Node2 -->
<g id="edge1" class="edge">
<title>Node1&#45;&gt;Node2</title>
<path fill="none" stroke="midnightblue" d="M243.92,-235.34C206.61,-213.01 134.6,-169.91 97.66,-147.81"/>
<polygon fill="midnightblue" stroke="midnightblue" points="99.45,-144.8 89.07,-142.67 95.85,-150.81 99.45,-144.8"/>
</g>
<!-- Node29 -->
<g id="node9" class="node">
<title>Node29</title>
<g id="a_node9"><a xlink:href="converter_8h.html" target="_top" xlink:title=" ">
<polygon fill="white" stroke="black" points="378.08,-179.5 378.08,-198.5 543.08,-198.5 543.08,-179.5 378.08,-179.5"/>
<text text-anchor="middle" x="460.58" y="-186.5" font-family="Helvetica,sans-Serif" font-size="10.00">emlabcpp/protocol/converter.h</text>
</a>
</g>
</g>
<!-- Node1&#45;&gt;Node29 -->
<g id="edge10" class="edge">
<title>Node1&#45;&gt;Node29</title>
<path fill="none" stroke="midnightblue" d="M313.32,-235.4C346.82,-225.07 391.72,-211.23 423.1,-201.56"/>
<polygon fill="midnightblue" stroke="midnightblue" points="424.26,-204.86 432.78,-198.57 422.19,-198.17 424.26,-204.86"/>
</g>
<!-- Node3 -->
<g id="node3" class="node">
<title>Node3</title>
<g id="a_node3"><a xlink:href="static__vector_8h.html" target="_top" xlink:title=" ">
<polygon fill="white" stroke="red" points="121.08,-62 121.08,-81 260.08,-81 260.08,-62 121.08,-62"/>
<text text-anchor="middle" x="190.58" y="-69" font-family="Helvetica,sans-Serif" font-size="10.00">emlabcpp/static_vector.h</text>
</a>
</g>
</g>
<!-- Node2&#45;&gt;Node3 -->
<g id="edge2" class="edge">
<title>Node2&#45;&gt;Node3</title>
<path fill="none" stroke="midnightblue" d="M91.2,-123.48C110.5,-113.58 142.54,-97.14 165.01,-85.62"/>
<polygon fill="midnightblue" stroke="midnightblue" points="166.69,-88.69 173.99,-81.01 163.5,-82.46 166.69,-88.69"/>
</g>
<!-- Node10 -->
<g id="node4" class="node">
<title>Node10</title>
<g id="a_node4"><a xlink:title=" ">
<polygon fill="white" stroke="#bfbfbf" points="13.08,-0.5 13.08,-19.5 82.08,-19.5 82.08,-0.5 13.08,-0.5"/>
<text text-anchor="middle" x="47.58" y="-7.5" font-family="Helvetica,sans-Serif" font-size="10.00">type_traits</text>
</a>
</g>
</g>
<!-- Node2&#45;&gt;Node10 -->
<g id="edge8" class="edge">
<title>Node2&#45;&gt;Node10</title>
<path fill="none" stroke="midnightblue" d="M50.11,-123.44C34.02,-116.38 14.21,-104.63 4.58,-87 -2.02,-74.91 -0.54,-68.79 4.58,-56 9.26,-44.33 18.57,-33.97 27.34,-26.14"/>
<polygon fill="midnightblue" stroke="midnightblue" points="29.63,-28.78 35.09,-19.7 25.16,-23.4 29.63,-28.78"/>
</g>
<!-- Node28 -->
<g id="node5" class="node">
<title>Node28</title>
<g id="a_node5"><a xlink:title=" ">
<polygon fill="white" stroke="#bfbfbf" points="134.08,-0.5 134.08,-19.5 179.08,-19.5 179.08,-0.5 134.08,-0.5"/>
<text text-anchor="middle" x="156.58" y="-7.5" font-family="Helvetica,sans-Serif" font-size="10.00">utility</text>
</a>
</g>
</g>
<!-- Node2&#45;&gt;Node28 -->
<g id="edge9" class="edge">
<title>Node2&#45;&gt;Node28</title>
<path fill="none" stroke="midnightblue" d="M64.57,-123.33C48.92,-108.72 21.98,-78.58 37.58,-56 56.84,-28.12 95.75,-17.5 123.84,-13.46"/>
<polygon fill="midnightblue" stroke="midnightblue" points="124.52,-16.9 134.02,-12.21 123.67,-9.95 124.52,-16.9"/>
</g>
<!-- Node20 -->
<g id="node6" class="node">
<title>Node20</title>
<g id="a_node6"><a xlink:href="types_8h.html" target="_top" xlink:title=" ">
<polygon fill="white" stroke="red" points="337.58,-62 337.58,-81 441.58,-81 441.58,-62 337.58,-62"/>
<text text-anchor="middle" x="389.58" y="-69" font-family="Helvetica,sans-Serif" font-size="10.00">emlabcpp/types.h</text>
</a>
</g>
</g>
<!-- Node2&#45;&gt;Node20 -->
<g id="edge5" class="edge">
<title>Node2&#45;&gt;Node20</title>
<path fill="none" stroke="midnightblue" d="M126.58,-123.59C177.84,-115.1 258.32,-101.25 327.58,-87 333.06,-85.87 338.8,-84.62 344.48,-83.35"/>
<polygon fill="midnightblue" stroke="midnightblue" points="345.61,-86.68 354.57,-81.03 344.04,-79.86 345.61,-86.68"/>
</g>
<!-- Node24 -->
<g id="node7" class="node">
<title>Node24</title>
<g id="a_node7"><a xlink:title=" ">
<polygon fill="white" stroke="#bfbfbf" points="46.58,-62 46.58,-81 102.58,-81 102.58,-62 46.58,-62"/>
<text text-anchor="middle" x="74.58" y="-69" font-family="Helvetica,sans-Serif" font-size="10.00">optional</text>
</a>
</g>
</g>
<!-- Node2&#45;&gt;Node24 -->
<g id="edge6" class="edge">
<title>Node2&#45;&gt;Node24</title>
<path fill="none" stroke="midnightblue" d="M74.58,-123.48C74.58,-115.08 74.58,-101.98 74.58,-91.16"/>
<polygon fill="midnightblue" stroke="midnightblue" points="78.08,-91.01 74.58,-81.01 71.08,-91.01 78.08,-91.01"/>
</g>
<!-- Node9 -->
<g id="node8" class="node">
<title>Node9</title>
<g id="a_node8"><a xlink:title=" ">
<polygon fill="white" stroke="#bfbfbf" points="278.08,-62 278.08,-81 319.08,-81 319.08,-62 278.08,-62"/>
<text text-anchor="middle" x="298.58" y="-69" font-family="Helvetica,sans-Serif" font-size="10.00">tuple</text>
</a>
</g>
</g>
<!-- Node2&#45;&gt;Node9 -->
<g id="edge7" class="edge">
<title>Node2&#45;&gt;Node9</title>
<path fill="none" stroke="midnightblue" d="M125.3,-123.44C164.96,-115.98 221.14,-103.73 268.58,-87 270.2,-86.43 271.84,-85.8 273.48,-85.13"/>
<polygon fill="midnightblue" stroke="midnightblue" points="274.98,-88.29 282.67,-81 272.12,-81.9 274.98,-88.29"/>
</g>
<!-- Node3&#45;&gt;Node10 -->
<g id="edge3" class="edge">
<title>Node3&#45;&gt;Node10</title>
<path fill="none" stroke="midnightblue" d="M170.09,-61.98C145.78,-51.86 105.03,-34.9 77.27,-23.35"/>
<polygon fill="midnightblue" stroke="midnightblue" points="78.61,-20.12 68.03,-19.51 75.92,-26.58 78.61,-20.12"/>
</g>
<!-- Node3&#45;&gt;Node28 -->
<g id="edge4" class="edge">
<title>Node3&#45;&gt;Node28</title>
<path fill="none" stroke="midnightblue" d="M185.71,-61.98C180.71,-53.23 172.79,-39.37 166.47,-28.31"/>
<polygon fill="midnightblue" stroke="midnightblue" points="169.45,-26.46 161.45,-19.51 163.37,-29.93 169.45,-26.46"/>
</g>
<!-- Node29&#45;&gt;Node2 -->
<g id="edge15" class="edge">
<title>Node29&#45;&gt;Node2</title>
<path fill="none" stroke="midnightblue" d="M397.95,-179.5C334.66,-170.86 233.77,-157 136.8,-143.16"/>
<polygon fill="midnightblue" stroke="midnightblue" points="137.22,-139.69 126.82,-141.74 136.23,-146.62 137.22,-139.69"/>
</g>
<!-- Node30 -->
<g id="node10" class="node">
<title>Node30</title>
<g id="a_node10"><a xlink:href="algorithm_8h.html" target="_top" xlink:title=" ">
<polygon fill="white" stroke="red" points="308.58,-123.5 308.58,-142.5 432.58,-142.5 432.58,-123.5 308.58,-123.5"/>
<text text-anchor="middle" x="370.58" y="-130.5" font-family="Helvetica,sans-Serif" font-size="10.00">emlabcpp/algorithm.h</text>
</a>
</g>
</g>
<!-- Node29&#45;&gt;Node30 -->
<g id="edge11" class="edge">
<title>Node29&#45;&gt;Node30</title>
<path fill="none" stroke="midnightblue" d="M446.12,-179.32C432.08,-170.9 410.53,-157.97 394.04,-148.07"/>
<polygon fill="midnightblue" stroke="midnightblue" points="395.38,-144.8 385.01,-142.65 391.78,-150.8 395.38,-144.8"/>
</g>
<!-- Node37 -->
<g id="node11" class="node">
<title>Node37</title>
<g id="a_node11"><a xlink:href="assert_8h.html" target="_top" xlink:title=" ">
<polygon fill="white" stroke="red" points="835.08,-123.5 835.08,-142.5 942.08,-142.5 942.08,-123.5 835.08,-123.5"/>
<text text-anchor="middle" x="888.58" y="-130.5" font-family="Helvetica,sans-Serif" font-size="10.00">emlabcpp/assert.h</text>
</a>
</g>
</g>
<!-- Node29&#45;&gt;Node37 -->
<g id="edge14" class="edge">
<title>Node29&#45;&gt;Node37</title>
<path fill="none" stroke="midnightblue" d="M529.95,-179.48C602.46,-170.54 719.54,-156 820.58,-143 821.88,-142.83 823.19,-142.66 824.51,-142.49"/>
<polygon fill="midnightblue" stroke="midnightblue" points="825.3,-145.92 834.77,-141.16 824.4,-138.98 825.3,-145.92"/>
</g>
<!-- Node39 -->
<g id="node12" class="node">
<title>Node39</title>
<g id="a_node12"><a xlink:href="bounded__view_8h.html" target="_top" xlink:title=" ">
<polygon fill="white" stroke="red" points="531.08,-56.5 531.08,-86.5 664.08,-86.5 664.08,-56.5 531.08,-56.5"/>
<text text-anchor="start" x="539.08" y="-74.5" font-family="Helvetica,sans-Serif" font-size="10.00">emlabcpp/experimental</text>
<text text-anchor="middle" x="597.58" y="-63.5" font-family="Helvetica,sans-Serif" font-size="10.00">/bounded_view.h</text>
</a>
</g>
</g>
<!-- Node29&#45;&gt;Node39 -->
<g id="edge16" class="edge">
<title>Node29&#45;&gt;Node39</title>
<path fill="none" stroke="midnightblue" d="M460.84,-179.31C461.69,-165.68 465.23,-139.19 479.58,-123 492.61,-108.3 510.66,-97.74 528.72,-90.21"/>
<polygon fill="midnightblue" stroke="midnightblue" points="530.09,-93.43 538.14,-86.54 527.55,-86.91 530.09,-93.43"/>
</g>
<!-- Node40 -->
<g id="node13" class="node">
<title>Node40</title>
<g id="a_node13"><a xlink:href="numeric_8h.html" target="_top" xlink:title=" ">
<polygon fill="white" stroke="red" points="697.08,-56.5 697.08,-86.5 806.08,-86.5 806.08,-56.5 697.08,-56.5"/>
<text text-anchor="start" x="705.08" y="-74.5" font-family="Helvetica,sans-Serif" font-size="10.00">emlabcpp/iterators</text>
<text text-anchor="middle" x="751.58" y="-63.5" font-family="Helvetica,sans-Serif" font-size="10.00">/numeric.h</text>
</a>
</g>
</g>
<!-- Node29&#45;&gt;Node40 -->
<g id="edge17" class="edge">
<title>Node29&#45;&gt;Node40</title>
<path fill="none" stroke="midnightblue" d="M543.39,-188.49C629.65,-187.03 756.52,-178.64 787.58,-143 800.2,-128.53 788.33,-108.87 774.95,-93.98"/>
<polygon fill="midnightblue" stroke="midnightblue" points="777.38,-91.47 767.93,-86.69 772.34,-96.32 777.38,-91.47"/>
</g>
<!-- Node18 -->
<g id="node14" class="node">
<title>Node18</title>
<g id="a_node14"><a xlink:href="match_8h.html" target="_top" xlink:title=" ">
<polygon fill="white" stroke="red" points="489.08,-123.5 489.08,-142.5 596.08,-142.5 596.08,-123.5 489.08,-123.5"/>
<text text-anchor="middle" x="542.58" y="-130.5" font-family="Helvetica,sans-Serif" font-size="10.00">emlabcpp/match.h</text>
</a>
</g>
</g>
<!-- Node29&#45;&gt;Node18 -->
<g id="edge18" class="edge">
<title>Node29&#45;&gt;Node18</title>
<path fill="none" stroke="midnightblue" d="M473.76,-179.32C486.43,-170.98 505.82,-158.21 520.79,-148.35"/>
<polygon fill="midnightblue" stroke="midnightblue" points="523.01,-151.08 529.44,-142.65 519.16,-145.23 523.01,-151.08"/>
</g>
<!-- Node41 -->
<g id="node15" class="node">
<title>Node41</title>
<g id="a_node15"><a xlink:href="serializer_8h.html" target="_top" xlink:title=" ">
<polygon fill="white" stroke="red" points="614.58,-123.5 614.58,-142.5 778.58,-142.5 778.58,-123.5 614.58,-123.5"/>
<text text-anchor="middle" x="696.58" y="-130.5" font-family="Helvetica,sans-Serif" font-size="10.00">emlabcpp/protocol/serializer.h</text>
</a>
</g>
</g>
<!-- Node29&#45;&gt;Node41 -->
<g id="edge19" class="edge">
<title>Node29&#45;&gt;Node41</title>
<path fill="none" stroke="midnightblue" d="M497.98,-179.44C538.97,-170.06 604.84,-154.99 649.37,-144.8"/>
<polygon fill="midnightblue" stroke="midnightblue" points="650.4,-148.16 659.36,-142.52 648.83,-141.34 650.4,-148.16"/>
</g>
<!-- Node49 -->
<g id="node16" class="node">
<title>Node49</title>
<g id="a_node16"><a xlink:href="traits_8h.html" target="_top" xlink:title=" ">
<polygon fill="white" stroke="red" points="145.08,-123.5 145.08,-142.5 290.08,-142.5 290.08,-123.5 145.08,-123.5"/>
<text text-anchor="middle" x="217.58" y="-130.5" font-family="Helvetica,sans-Serif" font-size="10.00">emlabcpp/protocol/traits.h</text>
</a>
</g>
</g>
<!-- Node29&#45;&gt;Node49 -->
<g id="edge22" class="edge">
<title>Node29&#45;&gt;Node49</title>
<path fill="none" stroke="midnightblue" d="M422.08,-179.44C379.78,-170.04 311.76,-154.93 265.91,-144.74"/>
<polygon fill="midnightblue" stroke="midnightblue" points="266.43,-141.27 255.91,-142.52 264.91,-148.1 266.43,-141.27"/>
</g>
<!-- Node30&#45;&gt;Node20 -->
<g id="edge12" class="edge">
<title>Node30&#45;&gt;Node20</title>
<path fill="none" stroke="midnightblue" d="M373.31,-123.48C376.01,-114.99 380.26,-101.7 383.73,-90.82"/>
<polygon fill="midnightblue" stroke="midnightblue" points="387.16,-91.6 386.87,-81.01 380.49,-89.47 387.16,-91.6"/>
</g>
<!-- Node30&#45;&gt;Node9 -->
<g id="edge13" class="edge">
<title>Node30&#45;&gt;Node9</title>
<path fill="none" stroke="midnightblue" d="M360.27,-123.48C348.93,-114.11 330.51,-98.88 316.74,-87.51"/>
<polygon fill="midnightblue" stroke="midnightblue" points="318.82,-84.68 308.88,-81.01 314.36,-90.08 318.82,-84.68"/>
</g>
<!-- Node41&#45;&gt;Node39 -->
<g id="edge20" class="edge">
<title>Node41&#45;&gt;Node39</title>
<path fill="none" stroke="midnightblue" d="M682.4,-123.48C668.74,-115.27 647.6,-102.56 629.84,-91.88"/>
<polygon fill="midnightblue" stroke="midnightblue" points="631.29,-88.67 620.92,-86.52 627.68,-94.67 631.29,-88.67"/>
</g>
<!-- Node41&#45;&gt;Node40 -->
<g id="edge21" class="edge">
<title>Node41&#45;&gt;Node40</title>
<path fill="none" stroke="midnightblue" d="M704.46,-123.48C711.56,-115.79 722.31,-104.17 731.74,-93.96"/>
<polygon fill="midnightblue" stroke="midnightblue" points="734.4,-96.24 738.62,-86.52 729.26,-91.49 734.4,-96.24"/>
</g>
<!-- Node49&#45;&gt;Node3 -->
<g id="edge23" class="edge">
<title>Node49&#45;&gt;Node3</title>
<path fill="none" stroke="midnightblue" d="M213.71,-123.48C209.78,-114.82 203.58,-101.15 198.59,-90.15"/>
<polygon fill="midnightblue" stroke="midnightblue" points="201.76,-88.67 194.44,-81.01 195.39,-91.56 201.76,-88.67"/>
</g>
<!-- Node49&#45;&gt;Node20 -->
<g id="edge24" class="edge">
<title>Node49&#45;&gt;Node20</title>
<path fill="none" stroke="midnightblue" d="M242.23,-123.48C271.86,-113.22 321.77,-95.96 355.18,-84.4"/>
<polygon fill="midnightblue" stroke="midnightblue" points="356.68,-87.59 364.99,-81.01 354.39,-80.97 356.68,-87.59"/>
</g>
<!-- Node49&#45;&gt;Node24 -->
<g id="edge25" class="edge">
<title>Node49&#45;&gt;Node24</title>
<path fill="none" stroke="midnightblue" d="M197.09,-123.48C172.78,-113.36 132.03,-96.4 104.27,-84.85"/>
<polygon fill="midnightblue" stroke="midnightblue" points="105.61,-81.62 95.03,-81.01 102.92,-88.08 105.61,-81.62"/>
</g>
</g>
</svg>
