<?xml version="1.0" encoding="UTF-8" standalone="no"?>
<!DOCTYPE svg PUBLIC "-//W3C//DTD SVG 1.1//EN"
 "http://www.w3.org/Graphics/SVG/1.1/DTD/svg11.dtd">
<!-- Generated by graphviz version 2.43.0 (0)
 -->
<!-- Title: include/emlabcpp/protocol/register_handler.h Pages: 1 -->
<svg width="996pt" height="207pt"
 viewBox="0.00 0.00 995.50 207.00" xmlns="http://www.w3.org/2000/svg" xmlns:xlink="http://www.w3.org/1999/xlink">
<g id="graph0" class="graph" transform="scale(1 1) rotate(0) translate(4 203)">
<title>include/emlabcpp/protocol/register_handler.h</title>
<polygon fill="white" stroke="transparent" points="-4,4 -4,-203 991.5,-203 991.5,4 -4,4"/>
<!-- Node1 -->
<g id="node1" class="node">
<title>Node1</title>
<g id="a_node1"><a xlink:title=" ">
<polygon fill="#bfbfbf" stroke="black" points="344.5,-168.5 344.5,-198.5 490.5,-198.5 490.5,-168.5 344.5,-168.5"/>
<text text-anchor="start" x="352.5" y="-186.5" font-family="Helvetica,sans-Serif" font-size="10.00">include/emlabcpp/protocol</text>
<text text-anchor="middle" x="417.5" y="-175.5" font-family="Helvetica,sans-Serif" font-size="10.00">/register_handler.h</text>
</a>
</g>
</g>
<!-- Node2 -->
<g id="node2" class="node">
<title>Node2</title>
<g id="a_node2"><a xlink:href="either_8h.html" target="_top" xlink:title=" ">
<polygon fill="white" stroke="black" points="153.5,-56.5 153.5,-75.5 257.5,-75.5 257.5,-56.5 153.5,-56.5"/>
<text text-anchor="middle" x="205.5" y="-63.5" font-family="Helvetica,sans-Serif" font-size="10.00">emlabcpp/either.h</text>
</a>
</g>
</g>
<!-- Node1&#45;&gt;Node2 -->
<g id="edge1" class="edge">
<title>Node1&#45;&gt;Node2</title>
<path fill="none" stroke="midnightblue" d="M391.5,-168.34C350.25,-145.86 270.35,-102.33 230.04,-80.37"/>
<polygon fill="midnightblue" stroke="midnightblue" points="231.6,-77.23 221.14,-75.52 228.25,-83.38 231.6,-77.23"/>
</g>
<!-- Node24 -->
<g id="node9" class="node">
<title>Node24</title>
<g id="a_node9"><a xlink:href="converter_8h.html" target="_top" xlink:title=" ">
<polygon fill="white" stroke="black" points="483,-112.5 483,-131.5 648,-131.5 648,-112.5 483,-112.5"/>
<text text-anchor="middle" x="565.5" y="-119.5" font-family="Helvetica,sans-Serif" font-size="10.00">emlabcpp/protocol/converter.h</text>
</a>
</g>
</g>
<!-- Node1&#45;&gt;Node24 -->
<g id="edge8" class="edge">
<title>Node1&#45;&gt;Node24</title>
<path fill="none" stroke="midnightblue" d="M452.57,-168.4C477.52,-158.37 510.71,-145.03 534.64,-135.4"/>
<polygon fill="midnightblue" stroke="midnightblue" points="535.99,-138.64 543.96,-131.66 533.38,-132.14 535.99,-138.64"/>
</g>
<!-- Node3 -->
<g id="node3" class="node">
<title>Node3</title>
<g id="a_node3"><a xlink:href="static__vector_8h.html" target="_top" xlink:title=" ">
<polygon fill="white" stroke="red" points="150,-0.5 150,-19.5 289,-19.5 289,-0.5 150,-0.5"/>
<text text-anchor="middle" x="219.5" y="-7.5" font-family="Helvetica,sans-Serif" font-size="10.00">emlabcpp/static_vector.h</text>
</a>
</g>
</g>
<!-- Node2&#45;&gt;Node3 -->
<g id="edge2" class="edge">
<title>Node2&#45;&gt;Node3</title>
<path fill="none" stroke="midnightblue" d="M207.81,-56.08C209.67,-48.93 212.34,-38.64 214.65,-29.69"/>
<polygon fill="midnightblue" stroke="midnightblue" points="218.11,-30.31 217.23,-19.75 211.33,-28.55 218.11,-30.31"/>
</g>
<!-- Node20 -->
<g id="node4" class="node">
<title>Node20</title>
<g id="a_node4"><a xlink:href="types_8h.html" target="_top" xlink:title=" ">
<polygon fill="white" stroke="red" points="381.5,-0.5 381.5,-19.5 485.5,-19.5 485.5,-0.5 381.5,-0.5"/>
<text text-anchor="middle" x="433.5" y="-7.5" font-family="Helvetica,sans-Serif" font-size="10.00">emlabcpp/types.h</text>
</a>
</g>
</g>
<!-- Node2&#45;&gt;Node20 -->
<g id="edge3" class="edge">
<title>Node2&#45;&gt;Node20</title>
<path fill="none" stroke="midnightblue" d="M241.63,-56.44C281.15,-47.08 344.6,-32.06 387.61,-21.87"/>
<polygon fill="midnightblue" stroke="midnightblue" points="388.62,-25.23 397.54,-19.52 387,-18.42 388.62,-25.23"/>
</g>
<!-- Node23 -->
<g id="node5" class="node">
<title>Node23</title>
<g id="a_node5"><a xlink:title=" ">
<polygon fill="white" stroke="#bfbfbf" points="307.5,-0.5 307.5,-19.5 363.5,-19.5 363.5,-0.5 307.5,-0.5"/>
<text text-anchor="middle" x="335.5" y="-7.5" font-family="Helvetica,sans-Serif" font-size="10.00">optional</text>
</a>
</g>
</g>
<!-- Node2&#45;&gt;Node23 -->
<g id="edge4" class="edge">
<title>Node2&#45;&gt;Node23</title>
<path fill="none" stroke="midnightblue" d="M226.1,-56.44C247.49,-47.56 281.18,-33.56 305.52,-23.45"/>
<polygon fill="midnightblue" stroke="midnightblue" points="307.11,-26.58 315,-19.52 304.42,-20.12 307.11,-26.58"/>
</g>
<!-- Node9 -->
<g id="node6" class="node">
<title>Node9</title>
<g id="a_node6"><a xlink:title=" ">
<polygon fill="white" stroke="#bfbfbf" points="504,-0.5 504,-19.5 545,-19.5 545,-0.5 504,-0.5"/>
<text text-anchor="middle" x="524.5" y="-7.5" font-family="Helvetica,sans-Serif" font-size="10.00">tuple</text>
</a>
</g>
</g>
<!-- Node2&#45;&gt;Node9 -->
<g id="edge5" class="edge">
<title>Node2&#45;&gt;Node9</title>
<path fill="none" stroke="midnightblue" d="M257.7,-57.27C328.34,-46.75 449.79,-28.45 494.03,-19.68"/>
<polygon fill="midnightblue" stroke="midnightblue" points="494.89,-23.08 503.94,-17.57 493.43,-16.23 494.89,-23.08"/>
</g>
<!-- Node10 -->
<g id="node7" class="node">
<title>Node10</title>
<g id="a_node7"><a xlink:title=" ">
<polygon fill="white" stroke="#bfbfbf" points="0,-0.5 0,-19.5 69,-19.5 69,-0.5 0,-0.5"/>
<text text-anchor="middle" x="34.5" y="-7.5" font-family="Helvetica,sans-Serif" font-size="10.00">type_traits</text>
</a>
</g>
</g>
<!-- Node2&#45;&gt;Node10 -->
<g id="edge6" class="edge">
<title>Node2&#45;&gt;Node10</title>
<path fill="none" stroke="midnightblue" d="M178.4,-56.44C149.51,-47.32 103.58,-32.81 71.39,-22.65"/>
<polygon fill="midnightblue" stroke="midnightblue" points="72.06,-19.19 61.47,-19.52 69.95,-25.87 72.06,-19.19"/>
</g>
<!-- Node18 -->
<g id="node8" class="node">
<title>Node18</title>
<g id="a_node8"><a xlink:title=" ">
<polygon fill="white" stroke="#bfbfbf" points="87,-0.5 87,-19.5 132,-19.5 132,-0.5 87,-0.5"/>
<text text-anchor="middle" x="109.5" y="-7.5" font-family="Helvetica,sans-Serif" font-size="10.00">utility</text>
</a>
</g>
</g>
<!-- Node2&#45;&gt;Node18 -->
<g id="edge7" class="edge">
<title>Node2&#45;&gt;Node18</title>
<path fill="none" stroke="midnightblue" d="M190.08,-56.32C174.96,-47.82 151.68,-34.73 134.03,-24.8"/>
<polygon fill="midnightblue" stroke="midnightblue" points="135.32,-21.51 124.89,-19.65 131.89,-27.61 135.32,-21.51"/>
</g>
<!-- Node25 -->
<g id="node10" class="node">
<title>Node25</title>
<g id="a_node10"><a xlink:href="algorithm_8h.html" target="_top" xlink:title=" ">
<polygon fill="white" stroke="red" points="439.5,-56.5 439.5,-75.5 563.5,-75.5 563.5,-56.5 439.5,-56.5"/>
<text text-anchor="middle" x="501.5" y="-63.5" font-family="Helvetica,sans-Serif" font-size="10.00">emlabcpp/algorithm.h</text>
</a>
</g>
</g>
<!-- Node24&#45;&gt;Node25 -->
<g id="edge9" class="edge">
<title>Node24&#45;&gt;Node25</title>
<path fill="none" stroke="midnightblue" d="M555.22,-112.32C545.66,-104.26 531.22,-92.08 519.72,-82.37"/>
<polygon fill="midnightblue" stroke="midnightblue" points="521.87,-79.61 511.97,-75.83 517.36,-84.96 521.87,-79.61"/>
</g>
<!-- Node35 -->
<g id="node11" class="node">
<title>Node35</title>
<g id="a_node11"><a xlink:href="assert_8h.html" target="_top" xlink:title=" ">
<polygon fill="white" stroke="red" points="698,-56.5 698,-75.5 805,-75.5 805,-56.5 698,-56.5"/>
<text text-anchor="middle" x="751.5" y="-63.5" font-family="Helvetica,sans-Serif" font-size="10.00">emlabcpp/assert.h</text>
</a>
</g>
</g>
<!-- Node24&#45;&gt;Node35 -->
<g id="edge12" class="edge">
<title>Node24&#45;&gt;Node35</title>
<path fill="none" stroke="midnightblue" d="M594.97,-112.44C626.67,-103.24 677.23,-88.56 712.27,-78.39"/>
<polygon fill="midnightblue" stroke="midnightblue" points="713.54,-81.67 722.17,-75.52 711.59,-74.94 713.54,-81.67"/>
</g>
<!-- Node37 -->
<g id="node12" class="node">
<title>Node37</title>
<g id="a_node12"><a xlink:href="serializer_8h.html" target="_top" xlink:title=" ">
<polygon fill="white" stroke="red" points="823.5,-56.5 823.5,-75.5 987.5,-75.5 987.5,-56.5 823.5,-56.5"/>
<text text-anchor="middle" x="905.5" y="-63.5" font-family="Helvetica,sans-Serif" font-size="10.00">emlabcpp/protocol/serializer.h</text>
</a>
</g>
</g>
<!-- Node24&#45;&gt;Node37 -->
<g id="edge13" class="edge">
<title>Node24&#45;&gt;Node37</title>
<path fill="none" stroke="midnightblue" d="M619.37,-112.44C679.81,-102.85 777.74,-87.29 841.88,-77.1"/>
<polygon fill="midnightblue" stroke="midnightblue" points="842.55,-80.54 851.88,-75.52 841.45,-73.63 842.55,-80.54"/>
</g>
<!-- Node47 -->
<g id="node13" class="node">
<title>Node47</title>
<g id="a_node13"><a xlink:href="traits_8h.html" target="_top" xlink:title=" ">
<polygon fill="white" stroke="red" points="276,-56.5 276,-75.5 421,-75.5 421,-56.5 276,-56.5"/>
<text text-anchor="middle" x="348.5" y="-63.5" font-family="Helvetica,sans-Serif" font-size="10.00">emlabcpp/protocol/traits.h</text>
</a>
</g>
</g>
<!-- Node24&#45;&gt;Node47 -->
<g id="edge14" class="edge">
<title>Node24&#45;&gt;Node47</title>
<path fill="none" stroke="midnightblue" d="M531.12,-112.44C493.58,-103.1 433.37,-88.12 392.43,-77.93"/>
<polygon fill="midnightblue" stroke="midnightblue" points="393.27,-74.53 382.72,-75.52 391.58,-81.33 393.27,-74.53"/>
</g>
<!-- Node54 -->
<g id="node14" class="node">
<title>Node54</title>
<g id="a_node14"><a xlink:href="visit_8h.html" target="_top" xlink:title=" ">
<polygon fill="white" stroke="red" points="581.5,-56.5 581.5,-75.5 679.5,-75.5 679.5,-56.5 581.5,-56.5"/>
<text text-anchor="middle" x="630.5" y="-63.5" font-family="Helvetica,sans-Serif" font-size="10.00">emlabcpp/visit.h</text>
</a>
</g>
</g>
<!-- Node24&#45;&gt;Node54 -->
<g id="edge18" class="edge">
<title>Node24&#45;&gt;Node54</title>
<path fill="none" stroke="midnightblue" d="M575.94,-112.32C585.65,-104.26 600.32,-92.08 612,-82.37"/>
<polygon fill="midnightblue" stroke="midnightblue" points="614.41,-84.92 619.87,-75.83 609.94,-79.53 614.41,-84.92"/>
</g>
<!-- Node25&#45;&gt;Node20 -->
<g id="edge10" class="edge">
<title>Node25&#45;&gt;Node20</title>
<path fill="none" stroke="midnightblue" d="M490.57,-56.32C480.33,-48.18 464.78,-35.84 452.5,-26.09"/>
<polygon fill="midnightblue" stroke="midnightblue" points="454.63,-23.31 444.62,-19.83 450.28,-28.79 454.63,-23.31"/>
</g>
<!-- Node25&#45;&gt;Node9 -->
<g id="edge11" class="edge">
<title>Node25&#45;&gt;Node9</title>
<path fill="none" stroke="midnightblue" d="M505.3,-56.08C508.41,-48.77 512.92,-38.18 516.79,-29.1"/>
<polygon fill="midnightblue" stroke="midnightblue" points="520.07,-30.32 520.77,-19.75 513.63,-27.58 520.07,-30.32"/>
</g>
<!-- Node47&#45;&gt;Node3 -->
<g id="edge15" class="edge">
<title>Node47&#45;&gt;Node3</title>
<path fill="none" stroke="midnightblue" d="M328.06,-56.44C306.83,-47.56 273.4,-33.56 249.25,-23.45"/>
<polygon fill="midnightblue" stroke="midnightblue" points="250.42,-20.15 239.84,-19.52 247.72,-26.61 250.42,-20.15"/>
</g>
<!-- Node47&#45;&gt;Node20 -->
<g id="edge16" class="edge">
<title>Node47&#45;&gt;Node20</title>
<path fill="none" stroke="midnightblue" d="M362.16,-56.32C375.42,-47.9 395.77,-34.97 411.35,-25.07"/>
<polygon fill="midnightblue" stroke="midnightblue" points="413.31,-27.97 419.88,-19.65 409.56,-22.06 413.31,-27.97"/>
</g>
<!-- Node47&#45;&gt;Node23 -->
<g id="edge17" class="edge">
<title>Node47&#45;&gt;Node23</title>
<path fill="none" stroke="midnightblue" d="M346.35,-56.08C344.63,-48.93 342.15,-38.64 340,-29.69"/>
<polygon fill="midnightblue" stroke="midnightblue" points="343.35,-28.65 337.61,-19.75 336.54,-30.29 343.35,-28.65"/>
</g>
<!-- Node54&#45;&gt;Node9 -->
<g id="edge19" class="edge">
<title>Node54&#45;&gt;Node9</title>
<path fill="none" stroke="midnightblue" d="M613.47,-56.32C596.47,-47.66 570.12,-34.24 550.51,-24.25"/>
<polygon fill="midnightblue" stroke="midnightblue" points="551.99,-21.08 541.49,-19.65 548.81,-27.31 551.99,-21.08"/>
</g>
</g>
</svg>
