<?xml version="1.0" encoding="UTF-8" standalone="no"?>
<!DOCTYPE svg PUBLIC "-//W3C//DTD SVG 1.1//EN"
 "http://www.w3.org/Graphics/SVG/1.1/DTD/svg11.dtd">
<!-- Generated by graphviz version 2.43.0 (0)
 -->
<!-- Title: include/emlabcpp/protocol/register_handler.h Pages: 1 -->
<svg width="978pt" height="274pt"
 viewBox="0.00 0.00 978.00 274.00" xmlns="http://www.w3.org/2000/svg" xmlns:xlink="http://www.w3.org/1999/xlink">
<g id="graph0" class="graph" transform="scale(1 1) rotate(0) translate(4 270)">
<title>include/emlabcpp/protocol/register_handler.h</title>
<polygon fill="white" stroke="transparent" points="-4,4 -4,-270 974,-270 974,4 -4,4"/>
<!-- Node1 -->
<g id="node1" class="node">
<title>Node1</title>
<g id="a_node1"><a xlink:title=" ">
<polygon fill="#bfbfbf" stroke="black" points="167,-235.5 167,-265.5 313,-265.5 313,-235.5 167,-235.5"/>
<text text-anchor="start" x="175" y="-253.5" font-family="Helvetica,sans-Serif" font-size="10.00">include/emlabcpp/protocol</text>
<text text-anchor="middle" x="240" y="-242.5" font-family="Helvetica,sans-Serif" font-size="10.00">/register_handler.h</text>
</a>
</g>
</g>
<!-- Node2 -->
<g id="node2" class="node">
<title>Node2</title>
<g id="a_node2"><a xlink:href="either_8h.html" target="_top" xlink:title=" ">
<polygon fill="white" stroke="black" points="0,-118 0,-137 104,-137 104,-118 0,-118"/>
<text text-anchor="middle" x="52" y="-125" font-family="Helvetica,sans-Serif" font-size="10.00">emlabcpp/either.h</text>
</a>
</g>
</g>
<!-- Node1&#45;&gt;Node2 -->
<g id="edge1" class="edge">
<title>Node1&#45;&gt;Node2</title>
<path fill="none" stroke="midnightblue" d="M218.07,-235.38C181.97,-212.15 110.43,-166.11 74.17,-142.77"/>
<polygon fill="midnightblue" stroke="midnightblue" points="75.65,-139.56 65.35,-137.09 71.86,-145.45 75.65,-139.56"/>
</g>
<!-- Node31 -->
<g id="node9" class="node">
<title>Node31</title>
<g id="a_node9"><a xlink:href="converter_8h.html" target="_top" xlink:title=" ">
<polygon fill="white" stroke="black" points="282.5,-179.5 282.5,-198.5 447.5,-198.5 447.5,-179.5 282.5,-179.5"/>
<text text-anchor="middle" x="365" y="-186.5" font-family="Helvetica,sans-Serif" font-size="10.00">emlabcpp/protocol/converter.h</text>
</a>
</g>
</g>
<!-- Node1&#45;&gt;Node31 -->
<g id="edge10" class="edge">
<title>Node1&#45;&gt;Node31</title>
<path fill="none" stroke="midnightblue" d="M269.62,-235.4C290.22,-225.59 317.48,-212.62 337.58,-203.05"/>
<polygon fill="midnightblue" stroke="midnightblue" points="339.29,-206.12 346.81,-198.66 336.28,-199.8 339.29,-206.12"/>
</g>
<!-- Node3 -->
<g id="node3" class="node">
<title>Node3</title>
<g id="a_node3"><a xlink:href="static__vector_8h.html" target="_top" xlink:title=" ">
<polygon fill="white" stroke="red" points="173.5,-56.5 173.5,-75.5 312.5,-75.5 312.5,-56.5 173.5,-56.5"/>
<text text-anchor="middle" x="243" y="-63.5" font-family="Helvetica,sans-Serif" font-size="10.00">emlabcpp/static_vector.h</text>
</a>
</g>
</g>
<!-- Node2&#45;&gt;Node3 -->
<g id="edge2" class="edge">
<title>Node2&#45;&gt;Node3</title>
<path fill="none" stroke="midnightblue" d="M79.37,-117.98C112.55,-107.64 168.65,-90.16 205.76,-78.6"/>
<polygon fill="midnightblue" stroke="midnightblue" points="207.18,-81.82 215.69,-75.51 205.1,-75.14 207.18,-81.82"/>
</g>
<!-- Node10 -->
<g id="node4" class="node">
<title>Node10</title>
<g id="a_node4"><a xlink:title=" ">
<polygon fill="white" stroke="#bfbfbf" points="174.5,-0.5 174.5,-19.5 243.5,-19.5 243.5,-0.5 174.5,-0.5"/>
<text text-anchor="middle" x="209" y="-7.5" font-family="Helvetica,sans-Serif" font-size="10.00">type_traits</text>
</a>
</g>
</g>
<!-- Node2&#45;&gt;Node10 -->
<g id="edge8" class="edge">
<title>Node2&#45;&gt;Node10</title>
<path fill="none" stroke="midnightblue" d="M54.46,-117.86C59.06,-103.17 70.33,-73.22 90,-56 111.04,-37.59 140.36,-26.38 164.63,-19.76"/>
<polygon fill="midnightblue" stroke="midnightblue" points="165.52,-23.14 174.34,-17.27 163.79,-16.36 165.52,-23.14"/>
</g>
<!-- Node30 -->
<g id="node5" class="node">
<title>Node30</title>
<g id="a_node5"><a xlink:title=" ">
<polygon fill="white" stroke="#bfbfbf" points="77.5,-0.5 77.5,-19.5 122.5,-19.5 122.5,-0.5 77.5,-0.5"/>
<text text-anchor="middle" x="100" y="-7.5" font-family="Helvetica,sans-Serif" font-size="10.00">utility</text>
</a>
</g>
</g>
<!-- Node2&#45;&gt;Node30 -->
<g id="edge9" class="edge">
<title>Node2&#45;&gt;Node30</title>
<path fill="none" stroke="midnightblue" d="M50.8,-117.81C49.28,-104.03 47.86,-76.65 57,-56 62.09,-44.5 71.44,-34.16 80.12,-26.29"/>
<polygon fill="midnightblue" stroke="midnightblue" points="82.41,-28.95 87.77,-19.81 77.88,-23.61 82.41,-28.95"/>
</g>
<!-- Node20 -->
<g id="node6" class="node">
<title>Node20</title>
<g id="a_node6"><a xlink:href="types_8h.html" target="_top" xlink:title=" ">
<polygon fill="white" stroke="red" points="703,-56.5 703,-75.5 807,-75.5 807,-56.5 703,-56.5"/>
<text text-anchor="middle" x="755" y="-63.5" font-family="Helvetica,sans-Serif" font-size="10.00">emlabcpp/types.h</text>
</a>
</g>
</g>
<!-- Node2&#45;&gt;Node20 -->
<g id="edge5" class="edge">
<title>Node2&#45;&gt;Node20</title>
<path fill="none" stroke="midnightblue" d="M83.47,-117.98C92.9,-115.71 103.32,-113.48 113,-112 223.58,-95.1 553.96,-77.11 692.63,-70.07"/>
<polygon fill="midnightblue" stroke="midnightblue" points="692.86,-73.56 702.68,-69.56 692.51,-66.57 692.86,-73.56"/>
</g>
<!-- Node26 -->
<g id="node7" class="node">
<title>Node26</title>
<g id="a_node7"><a xlink:title=" ">
<polygon fill="white" stroke="#bfbfbf" points="99,-56.5 99,-75.5 155,-75.5 155,-56.5 99,-56.5"/>
<text text-anchor="middle" x="127" y="-63.5" font-family="Helvetica,sans-Serif" font-size="10.00">optional</text>
</a>
</g>
</g>
<!-- Node2&#45;&gt;Node26 -->
<g id="edge6" class="edge">
<title>Node2&#45;&gt;Node26</title>
<path fill="none" stroke="midnightblue" d="M62.75,-117.98C74.55,-108.61 93.74,-93.38 108.08,-82.01"/>
<polygon fill="midnightblue" stroke="midnightblue" points="110.62,-84.47 116.27,-75.51 106.26,-78.98 110.62,-84.47"/>
</g>
<!-- Node9 -->
<g id="node8" class="node">
<title>Node9</title>
<g id="a_node8"><a xlink:title=" ">
<polygon fill="white" stroke="#bfbfbf" points="487.5,-56.5 487.5,-75.5 528.5,-75.5 528.5,-56.5 487.5,-56.5"/>
<text text-anchor="middle" x="508" y="-63.5" font-family="Helvetica,sans-Serif" font-size="10.00">tuple</text>
</a>
</g>
</g>
<!-- Node2&#45;&gt;Node9 -->
<g id="edge7" class="edge">
<title>Node2&#45;&gt;Node9</title>
<path fill="none" stroke="midnightblue" d="M84.77,-117.95C93.87,-115.78 103.78,-113.62 113,-112 247.6,-88.42 410.25,-74.4 477.07,-69.25"/>
<polygon fill="midnightblue" stroke="midnightblue" points="477.61,-72.72 487.31,-68.48 477.08,-65.74 477.61,-72.72"/>
</g>
<!-- Node3&#45;&gt;Node10 -->
<g id="edge3" class="edge">
<title>Node3&#45;&gt;Node10</title>
<path fill="none" stroke="midnightblue" d="M237.39,-56.08C232.63,-48.53 225.68,-37.49 219.85,-28.23"/>
<polygon fill="midnightblue" stroke="midnightblue" points="222.8,-26.35 214.51,-19.75 216.88,-30.08 222.8,-26.35"/>
</g>
<!-- Node3&#45;&gt;Node30 -->
<g id="edge4" class="edge">
<title>Node3&#45;&gt;Node30</title>
<path fill="none" stroke="midnightblue" d="M220.34,-56.44C196.6,-47.48 159.09,-33.31 132.26,-23.18"/>
<polygon fill="midnightblue" stroke="midnightblue" points="133.14,-19.77 122.55,-19.52 130.67,-26.32 133.14,-19.77"/>
</g>
<!-- Node31&#45;&gt;Node2 -->
<g id="edge15" class="edge">
<title>Node31&#45;&gt;Node2</title>
<path fill="none" stroke="midnightblue" d="M312.22,-179.47C261.12,-171 181.53,-157.25 113,-143 107.6,-141.88 101.96,-140.63 96.37,-139.36"/>
<polygon fill="midnightblue" stroke="midnightblue" points="96.98,-135.9 86.44,-137.05 95.39,-142.72 96.98,-135.9"/>
</g>
<!-- Node32 -->
<g id="node10" class="node">
<title>Node32</title>
<g id="a_node10"><a xlink:href="algorithm_8h.html" target="_top" xlink:title=" ">
<polygon fill="white" stroke="red" points="846,-118 846,-137 970,-137 970,-118 846,-118"/>
<text text-anchor="middle" x="908" y="-125" font-family="Helvetica,sans-Serif" font-size="10.00">emlabcpp/algorithm.h</text>
</a>
</g>
</g>
<!-- Node31&#45;&gt;Node32 -->
<g id="edge11" class="edge">
<title>Node31&#45;&gt;Node32</title>
<path fill="none" stroke="midnightblue" d="M447.6,-182.8C542.08,-176.23 701.24,-163.28 837,-143 844.53,-141.88 852.46,-140.47 860.19,-138.99"/>
<polygon fill="midnightblue" stroke="midnightblue" points="861.05,-142.38 870.18,-137 859.69,-135.52 861.05,-142.38"/>
</g>
<!-- Node39 -->
<g id="node11" class="node">
<title>Node39</title>
<g id="a_node11"><a xlink:href="assert_8h.html" target="_top" xlink:title=" ">
<polygon fill="white" stroke="red" points="122.5,-118 122.5,-137 229.5,-137 229.5,-118 122.5,-118"/>
<text text-anchor="middle" x="176" y="-125" font-family="Helvetica,sans-Serif" font-size="10.00">emlabcpp/assert.h</text>
</a>
</g>
</g>
<!-- Node31&#45;&gt;Node39 -->
<g id="edge14" class="edge">
<title>Node31&#45;&gt;Node39</title>
<path fill="none" stroke="midnightblue" d="M337.92,-179.48C305.08,-169.14 249.57,-151.66 212.85,-140.1"/>
<polygon fill="midnightblue" stroke="midnightblue" points="213.62,-136.67 203.03,-137.01 211.52,-143.35 213.62,-136.67"/>
</g>
<!-- Node41 -->
<g id="node12" class="node">
<title>Node41</title>
<g id="a_node12"><a xlink:href="numeric_8h.html" target="_top" xlink:title=" ">
<polygon fill="white" stroke="red" points="247.5,-112.5 247.5,-142.5 356.5,-142.5 356.5,-112.5 247.5,-112.5"/>
<text text-anchor="start" x="255.5" y="-130.5" font-family="Helvetica,sans-Serif" font-size="10.00">emlabcpp/iterators</text>
<text text-anchor="middle" x="302" y="-119.5" font-family="Helvetica,sans-Serif" font-size="10.00">/numeric.h</text>
</a>
</g>
</g>
<!-- Node31&#45;&gt;Node41 -->
<g id="edge16" class="edge">
<title>Node31&#45;&gt;Node41</title>
<path fill="none" stroke="midnightblue" d="M355.97,-179.48C347.76,-171.72 335.29,-159.94 324.41,-149.66"/>
<polygon fill="midnightblue" stroke="midnightblue" points="326.52,-146.84 316.85,-142.52 321.71,-151.93 326.52,-146.84"/>
</g>
<!-- Node18 -->
<g id="node13" class="node">
<title>Node18</title>
<g id="a_node13"><a xlink:href="match_8h.html" target="_top" xlink:title=" ">
<polygon fill="white" stroke="red" points="374.5,-118 374.5,-137 481.5,-137 481.5,-118 374.5,-118"/>
<text text-anchor="middle" x="428" y="-125" font-family="Helvetica,sans-Serif" font-size="10.00">emlabcpp/match.h</text>
</a>
</g>
</g>
<!-- Node31&#45;&gt;Node18 -->
<g id="edge17" class="edge">
<title>Node31&#45;&gt;Node18</title>
<path fill="none" stroke="midnightblue" d="M374.03,-179.48C383.76,-170.28 399.46,-155.46 411.42,-144.16"/>
<polygon fill="midnightblue" stroke="midnightblue" points="414.12,-146.42 418.99,-137.01 409.32,-141.33 414.12,-146.42"/>
</g>
<!-- Node42 -->
<g id="node14" class="node">
<title>Node42</title>
<g id="a_node14"><a xlink:href="serializer_8h.html" target="_top" xlink:title=" ">
<polygon fill="white" stroke="red" points="500,-118 500,-137 664,-137 664,-118 500,-118"/>
<text text-anchor="middle" x="582" y="-125" font-family="Helvetica,sans-Serif" font-size="10.00">emlabcpp/protocol/serializer.h</text>
</a>
</g>
</g>
<!-- Node31&#45;&gt;Node42 -->
<g id="edge18" class="edge">
<title>Node31&#45;&gt;Node42</title>
<path fill="none" stroke="midnightblue" d="M396.09,-179.48C434.28,-169 499.17,-151.21 541.3,-139.66"/>
<polygon fill="midnightblue" stroke="midnightblue" points="542.25,-143.03 550.97,-137.01 540.4,-136.28 542.25,-143.03"/>
</g>
<!-- Node51 -->
<g id="node15" class="node">
<title>Node51</title>
<g id="a_node15"><a xlink:href="traits_8h.html" target="_top" xlink:title=" ">
<polygon fill="white" stroke="red" points="682.5,-118 682.5,-137 827.5,-137 827.5,-118 682.5,-118"/>
<text text-anchor="middle" x="755" y="-125" font-family="Helvetica,sans-Serif" font-size="10.00">emlabcpp/protocol/traits.h</text>
</a>
</g>
</g>
<!-- Node31&#45;&gt;Node51 -->
<g id="edge19" class="edge">
<title>Node31&#45;&gt;Node51</title>
<path fill="none" stroke="midnightblue" d="M427.03,-179.49C489.29,-170.82 587.91,-156.74 673,-143 681.21,-141.68 689.86,-140.21 698.35,-138.74"/>
<polygon fill="midnightblue" stroke="midnightblue" points="698.96,-142.19 708.21,-137.02 697.76,-135.3 698.96,-142.19"/>
</g>
<!-- Node32&#45;&gt;Node20 -->
<g id="edge12" class="edge">
<title>Node32&#45;&gt;Node20</title>
<path fill="none" stroke="midnightblue" d="M886.08,-117.98C859.95,-107.81 816.09,-90.76 786.37,-79.2"/>
<polygon fill="midnightblue" stroke="midnightblue" points="787.47,-75.87 776.88,-75.51 784.93,-82.4 787.47,-75.87"/>
</g>
<!-- Node32&#45;&gt;Node9 -->
<g id="edge13" class="edge">
<title>Node32&#45;&gt;Node9</title>
<path fill="none" stroke="midnightblue" d="M868.65,-117.99C858.38,-115.89 847.29,-113.75 837,-112 727.86,-93.41 597.32,-77.39 538.9,-70.54"/>
<polygon fill="midnightblue" stroke="midnightblue" points="539.2,-67.05 528.86,-69.37 538.39,-74.01 539.2,-67.05"/>
</g>
<!-- Node51&#45;&gt;Node3 -->
<g id="edge20" class="edge">
<title>Node51&#45;&gt;Node3</title>
<path fill="none" stroke="midnightblue" d="M709.98,-117.95C697.99,-115.83 685.03,-113.69 673,-112 551.27,-94.89 409.32,-81.26 322.83,-73.65"/>
<polygon fill="midnightblue" stroke="midnightblue" points="323.09,-70.16 312.82,-72.78 322.48,-77.13 323.09,-70.16"/>
</g>
<!-- Node51&#45;&gt;Node20 -->
<g id="edge21" class="edge">
<title>Node51&#45;&gt;Node20</title>
<path fill="none" stroke="midnightblue" d="M755,-117.98C755,-109.58 755,-96.48 755,-85.66"/>
<polygon fill="midnightblue" stroke="midnightblue" points="758.5,-85.51 755,-75.51 751.5,-85.51 758.5,-85.51"/>
</g>
<!-- Node51&#45;&gt;Node26 -->
<g id="edge22" class="edge">
<title>Node51&#45;&gt;Node26</title>
<path fill="none" stroke="midnightblue" d="M711.72,-117.98C699.26,-115.76 685.63,-113.56 673,-112 451.22,-84.62 389.87,-110.15 165.31,-75.94"/>
<polygon fill="midnightblue" stroke="midnightblue" points="165.6,-72.44 155.18,-74.37 164.53,-79.36 165.6,-72.44"/>
</g>
</g>
</svg>
