<?xml version="1.0" encoding="UTF-8" standalone="no"?>
<!DOCTYPE svg PUBLIC "-//W3C//DTD SVG 1.1//EN"
 "http://www.w3.org/Graphics/SVG/1.1/DTD/svg11.dtd">
<!-- Generated by graphviz version 2.43.0 (0)
 -->
<!-- Title: include/emlabcpp/protocol/register_map.h Pages: 1 -->
<svg width="1322pt" height="285pt"
 viewBox="0.00 0.00 1321.50 285.00" xmlns="http://www.w3.org/2000/svg" xmlns:xlink="http://www.w3.org/1999/xlink">
<g id="graph0" class="graph" transform="scale(1 1) rotate(0) translate(4 281)">
<title>include/emlabcpp/protocol/register_map.h</title>
<polygon fill="white" stroke="transparent" points="-4,4 -4,-281 1317.5,-281 1317.5,4 -4,4"/>
<!-- Node1 -->
<g id="node1" class="node">
<title>Node1</title>
<g id="a_node1"><a xlink:title=" ">
<polygon fill="#bfbfbf" stroke="black" points="656.5,-246.5 656.5,-276.5 802.5,-276.5 802.5,-246.5 656.5,-246.5"/>
<text text-anchor="start" x="664.5" y="-264.5" font-family="Helvetica,sans-Serif" font-size="10.00">include/emlabcpp/protocol</text>
<text text-anchor="middle" x="729.5" y="-253.5" font-family="Helvetica,sans-Serif" font-size="10.00">/register_map.h</text>
</a>
</g>
</g>
<!-- Node2 -->
<g id="node2" class="node">
<title>Node2</title>
<g id="a_node2"><a xlink:href="algorithm_8h.html" target="_top" xlink:title=" ">
<polygon fill="white" stroke="black" points="151.5,-129 151.5,-148 275.5,-148 275.5,-129 151.5,-129"/>
<text text-anchor="middle" x="213.5" y="-136" font-family="Helvetica,sans-Serif" font-size="10.00">emlabcpp/algorithm.h</text>
</a>
</g>
</g>
<!-- Node1&#45;&gt;Node2 -->
<g id="edge1" class="edge">
<title>Node1&#45;&gt;Node2</title>
<path fill="none" stroke="midnightblue" d="M669.55,-246.44C565.39,-222.02 353.2,-172.26 259.61,-150.31"/>
<polygon fill="midnightblue" stroke="midnightblue" points="260.39,-146.9 249.86,-148.03 258.8,-153.72 260.39,-146.9"/>
</g>
<!-- Node41 -->
<g id="node12" class="node">
<title>Node41</title>
<g id="a_node12"><a xlink:href="protocol_2base_8h.html" target="_top" xlink:title=" ">
<polygon fill="white" stroke="black" points="955,-129 955,-148 1098,-148 1098,-129 955,-129"/>
<text text-anchor="middle" x="1026.5" y="-136" font-family="Helvetica,sans-Serif" font-size="10.00">emlabcpp/protocol/base.h</text>
</a>
</g>
</g>
<!-- Node1&#45;&gt;Node41 -->
<g id="edge14" class="edge">
<title>Node1&#45;&gt;Node41</title>
<path fill="none" stroke="midnightblue" d="M764.15,-246.38C822.76,-222.51 940.49,-174.54 996.09,-151.89"/>
<polygon fill="midnightblue" stroke="midnightblue" points="997.47,-155.11 1005.41,-148.09 994.83,-148.62 997.47,-155.11"/>
</g>
<!-- Node47 -->
<g id="node18" class="node">
<title>Node47</title>
<g id="a_node18"><a xlink:href="traits_8h.html" target="_top" xlink:title=" ">
<polygon fill="white" stroke="black" points="657,-190.5 657,-209.5 802,-209.5 802,-190.5 657,-190.5"/>
<text text-anchor="middle" x="729.5" y="-197.5" font-family="Helvetica,sans-Serif" font-size="10.00">emlabcpp/protocol/traits.h</text>
</a>
</g>
</g>
<!-- Node1&#45;&gt;Node47 -->
<g id="edge22" class="edge">
<title>Node1&#45;&gt;Node47</title>
<path fill="none" stroke="midnightblue" d="M729.5,-246.4C729.5,-238.47 729.5,-228.46 729.5,-219.86"/>
<polygon fill="midnightblue" stroke="midnightblue" points="733,-219.66 729.5,-209.66 726,-219.66 733,-219.66"/>
</g>
<!-- Node3 -->
<g id="node3" class="node">
<title>Node3</title>
<g id="a_node3"><a xlink:href="impl_8h.html" target="_top" xlink:title=" ">
<polygon fill="white" stroke="black" points="232,-56.5 232,-86.5 347,-86.5 347,-56.5 232,-56.5"/>
<text text-anchor="start" x="240" y="-74.5" font-family="Helvetica,sans-Serif" font-size="10.00">emlabcpp/algorithm</text>
<text text-anchor="middle" x="289.5" y="-63.5" font-family="Helvetica,sans-Serif" font-size="10.00">/impl.h</text>
</a>
</g>
</g>
<!-- Node2&#45;&gt;Node3 -->
<g id="edge2" class="edge">
<title>Node2&#45;&gt;Node3</title>
<path fill="none" stroke="midnightblue" d="M223.75,-128.73C234.32,-119.7 251.18,-105.27 265.18,-93.3"/>
<polygon fill="midnightblue" stroke="midnightblue" points="267.7,-95.75 273.03,-86.59 263.15,-90.43 267.7,-95.75"/>
</g>
<!-- Node4 -->
<g id="node4" class="node">
<title>Node4</title>
<g id="a_node4"><a xlink:href="types_8h.html" target="_top" xlink:title=" ">
<polygon fill="white" stroke="red" points="362.5,-0.5 362.5,-19.5 466.5,-19.5 466.5,-0.5 362.5,-0.5"/>
<text text-anchor="middle" x="414.5" y="-7.5" font-family="Helvetica,sans-Serif" font-size="10.00">emlabcpp/types.h</text>
</a>
</g>
</g>
<!-- Node2&#45;&gt;Node4 -->
<g id="edge8" class="edge">
<title>Node2&#45;&gt;Node4</title>
<path fill="none" stroke="midnightblue" d="M256.58,-128.93C286.42,-121.46 325.92,-108.39 355.5,-87 377.11,-71.37 394.71,-45.67 404.9,-28.55"/>
<polygon fill="midnightblue" stroke="midnightblue" points="408.1,-30.01 410.02,-19.59 402.02,-26.54 408.1,-30.01"/>
</g>
<!-- Node10 -->
<g id="node5" class="node">
<title>Node10</title>
<g id="a_node5"><a xlink:title=" ">
<polygon fill="white" stroke="#bfbfbf" points="183,-0.5 183,-19.5 224,-19.5 224,-0.5 183,-0.5"/>
<text text-anchor="middle" x="203.5" y="-7.5" font-family="Helvetica,sans-Serif" font-size="10.00">tuple</text>
</a>
</g>
</g>
<!-- Node2&#45;&gt;Node10 -->
<g id="edge13" class="edge">
<title>Node2&#45;&gt;Node10</title>
<path fill="none" stroke="midnightblue" d="M212.81,-128.81C211.21,-108.49 207.18,-57.55 204.98,-29.78"/>
<polygon fill="midnightblue" stroke="midnightblue" points="208.47,-29.45 204.19,-19.76 201.49,-30 208.47,-29.45"/>
</g>
<!-- Node17 -->
<g id="node6" class="node">
<title>Node17</title>
<g id="a_node6"><a xlink:href="bounded_8h.html" target="_top" xlink:title=" ">
<polygon fill="white" stroke="red" points="710,-62 710,-81 829,-81 829,-62 710,-62"/>
<text text-anchor="middle" x="769.5" y="-69" font-family="Helvetica,sans-Serif" font-size="10.00">emlabcpp/bounded.h</text>
</a>
</g>
</g>
<!-- Node2&#45;&gt;Node17 -->
<g id="edge5" class="edge">
<title>Node2&#45;&gt;Node17</title>
<path fill="none" stroke="midnightblue" d="M251.7,-128.99C262.28,-126.82 273.81,-124.64 284.5,-123 362.68,-110.98 585.13,-89.6 699.59,-78.93"/>
<polygon fill="midnightblue" stroke="midnightblue" points="700.01,-82.41 709.65,-77.99 699.37,-75.44 700.01,-82.41"/>
</g>
<!-- Node27 -->
<g id="node9" class="node">
<title>Node27</title>
<g id="a_node9"><a xlink:href="view_8h.html" target="_top" xlink:title=" ">
<polygon fill="white" stroke="red" points="404,-62 404,-81 503,-81 503,-62 404,-62"/>
<text text-anchor="middle" x="453.5" y="-69" font-family="Helvetica,sans-Serif" font-size="10.00">emlabcpp/view.h</text>
</a>
</g>
</g>
<!-- Node2&#45;&gt;Node27 -->
<g id="edge9" class="edge">
<title>Node2&#45;&gt;Node27</title>
<path fill="none" stroke="midnightblue" d="M245.37,-128.87C288.25,-117.25 364.61,-96.58 411.95,-83.75"/>
<polygon fill="midnightblue" stroke="midnightblue" points="413.14,-87.06 421.88,-81.06 411.31,-80.3 413.14,-87.06"/>
</g>
<!-- Node39 -->
<g id="node10" class="node">
<title>Node39</title>
<g id="a_node10"><a xlink:title=" ">
<polygon fill="white" stroke="#bfbfbf" points="550,-62 550,-81 597,-81 597,-62 550,-62"/>
<text text-anchor="middle" x="573.5" y="-69" font-family="Helvetica,sans-Serif" font-size="10.00">cmath</text>
</a>
</g>
</g>
<!-- Node2&#45;&gt;Node39 -->
<g id="edge11" class="edge">
<title>Node2&#45;&gt;Node39</title>
<path fill="none" stroke="midnightblue" d="M253.62,-128.99C263.68,-126.94 274.47,-124.82 284.5,-123 385.01,-104.78 411.26,-106.64 511.5,-87 520.72,-85.19 530.66,-82.99 539.81,-80.85"/>
<polygon fill="midnightblue" stroke="midnightblue" points="540.82,-84.2 549.74,-78.48 539.2,-77.39 540.82,-84.2"/>
</g>
<!-- Node40 -->
<g id="node11" class="node">
<title>Node40</title>
<g id="a_node11"><a xlink:title=" ">
<polygon fill="white" stroke="#bfbfbf" points="126,-62 126,-81 175,-81 175,-62 126,-62"/>
<text text-anchor="middle" x="150.5" y="-69" font-family="Helvetica,sans-Serif" font-size="10.00">cstdlib</text>
</a>
</g>
</g>
<!-- Node2&#45;&gt;Node40 -->
<g id="edge12" class="edge">
<title>Node2&#45;&gt;Node40</title>
<path fill="none" stroke="midnightblue" d="M205,-128.73C194.99,-118.4 178.16,-101.04 165.84,-88.33"/>
<polygon fill="midnightblue" stroke="midnightblue" points="168.33,-85.87 158.86,-81.13 163.31,-90.74 168.33,-85.87"/>
</g>
<!-- Node3&#45;&gt;Node4 -->
<g id="edge3" class="edge">
<title>Node3&#45;&gt;Node4</title>
<path fill="none" stroke="midnightblue" d="M319.12,-56.4C339.72,-46.59 366.98,-33.62 387.08,-24.05"/>
<polygon fill="midnightblue" stroke="midnightblue" points="388.79,-27.12 396.31,-19.66 385.78,-20.8 388.79,-27.12"/>
</g>
<!-- Node3&#45;&gt;Node10 -->
<g id="edge4" class="edge">
<title>Node3&#45;&gt;Node10</title>
<path fill="none" stroke="midnightblue" d="M269.12,-56.4C255.59,-47.04 237.89,-34.79 224.28,-25.38"/>
<polygon fill="midnightblue" stroke="midnightblue" points="226.23,-22.47 216.01,-19.66 222.25,-28.23 226.23,-22.47"/>
</g>
<!-- Node34 -->
<g id="node7" class="node">
<title>Node34</title>
<g id="a_node7"><a xlink:title=" ">
<polygon fill="white" stroke="#bfbfbf" points="697.5,-0.5 697.5,-19.5 753.5,-19.5 753.5,-0.5 697.5,-0.5"/>
<text text-anchor="middle" x="725.5" y="-7.5" font-family="Helvetica,sans-Serif" font-size="10.00">optional</text>
</a>
</g>
</g>
<!-- Node17&#45;&gt;Node34 -->
<g id="edge6" class="edge">
<title>Node17&#45;&gt;Node34</title>
<path fill="none" stroke="midnightblue" d="M763.2,-61.98C756.6,-53.05 746.06,-38.81 737.81,-27.64"/>
<polygon fill="midnightblue" stroke="midnightblue" points="740.55,-25.47 731.79,-19.51 734.92,-29.63 740.55,-25.47"/>
</g>
<!-- Node11 -->
<g id="node8" class="node">
<title>Node11</title>
<g id="a_node8"><a xlink:title=" ">
<polygon fill="white" stroke="#bfbfbf" points="823,-0.5 823,-19.5 892,-19.5 892,-0.5 823,-0.5"/>
<text text-anchor="middle" x="857.5" y="-7.5" font-family="Helvetica,sans-Serif" font-size="10.00">type_traits</text>
</a>
</g>
</g>
<!-- Node17&#45;&gt;Node11 -->
<g id="edge7" class="edge">
<title>Node17&#45;&gt;Node11</title>
<path fill="none" stroke="midnightblue" d="M782.11,-61.98C796.22,-52.43 819.33,-36.81 836.25,-25.37"/>
<polygon fill="midnightblue" stroke="midnightblue" points="838.59,-28.01 844.92,-19.51 834.67,-22.21 838.59,-28.01"/>
</g>
<!-- Node27&#45;&gt;Node4 -->
<g id="edge10" class="edge">
<title>Node27&#45;&gt;Node4</title>
<path fill="none" stroke="midnightblue" d="M447.91,-61.98C442.12,-53.14 432.91,-39.09 425.63,-27.98"/>
<polygon fill="midnightblue" stroke="midnightblue" points="428.49,-25.95 420.08,-19.51 422.63,-29.79 428.49,-25.95"/>
</g>
<!-- Node41&#45;&gt;Node17 -->
<g id="edge15" class="edge">
<title>Node41&#45;&gt;Node17</title>
<path fill="none" stroke="midnightblue" d="M992.64,-128.94C946.51,-117.27 863.87,-96.37 813.14,-83.54"/>
<polygon fill="midnightblue" stroke="midnightblue" points="813.99,-80.14 803.44,-81.08 812.27,-86.93 813.99,-80.14"/>
</g>
<!-- Node41&#45;&gt;Node11 -->
<g id="edge20" class="edge">
<title>Node41&#45;&gt;Node11</title>
<path fill="none" stroke="midnightblue" d="M1046.48,-128.9C1077.2,-114.5 1130.14,-84.3 1106.5,-56 1081.02,-25.5 967.18,-15.64 902.61,-12.47"/>
<polygon fill="midnightblue" stroke="midnightblue" points="902.45,-8.96 892.3,-12 902.13,-15.95 902.45,-8.96"/>
</g>
<!-- Node42 -->
<g id="node13" class="node">
<title>Node42</title>
<g id="a_node13"><a xlink:href="protocol_2error_8h.html" target="_top" xlink:title=" ">
<polygon fill="white" stroke="red" points="955.5,-62 955.5,-81 1097.5,-81 1097.5,-62 955.5,-62"/>
<text text-anchor="middle" x="1026.5" y="-69" font-family="Helvetica,sans-Serif" font-size="10.00">emlabcpp/protocol/error.h</text>
</a>
</g>
</g>
<!-- Node41&#45;&gt;Node42 -->
<g id="edge16" class="edge">
<title>Node41&#45;&gt;Node42</title>
<path fill="none" stroke="midnightblue" d="M1026.5,-128.73C1026.5,-119.18 1026.5,-103.62 1026.5,-91.28"/>
<polygon fill="midnightblue" stroke="midnightblue" points="1030,-91.13 1026.5,-81.13 1023,-91.13 1030,-91.13"/>
</g>
<!-- Node46 -->
<g id="node14" class="node">
<title>Node46</title>
<g id="a_node14"><a xlink:title=" ">
<polygon fill="white" stroke="#bfbfbf" points="1154,-62 1154,-81 1183,-81 1183,-62 1154,-62"/>
<text text-anchor="middle" x="1168.5" y="-69" font-family="Helvetica,sans-Serif" font-size="10.00">bit</text>
</a>
</g>
</g>
<!-- Node41&#45;&gt;Node46 -->
<g id="edge17" class="edge">
<title>Node41&#45;&gt;Node46</title>
<path fill="none" stroke="midnightblue" d="M1046.22,-129C1068.86,-119.16 1107.06,-102.35 1139.5,-87 1141.11,-86.24 1142.76,-85.44 1144.43,-84.64"/>
<polygon fill="midnightblue" stroke="midnightblue" points="1146.39,-87.57 1153.81,-80 1143.29,-81.29 1146.39,-87.57"/>
</g>
<!-- Node29 -->
<g id="node15" class="node">
<title>Node29</title>
<g id="a_node15"><a xlink:title=" ">
<polygon fill="white" stroke="#bfbfbf" points="1201.5,-62 1201.5,-81 1245.5,-81 1245.5,-62 1201.5,-62"/>
<text text-anchor="middle" x="1223.5" y="-69" font-family="Helvetica,sans-Serif" font-size="10.00">bitset</text>
</a>
</g>
</g>
<!-- Node41&#45;&gt;Node29 -->
<g id="edge18" class="edge">
<title>Node41&#45;&gt;Node29</title>
<path fill="none" stroke="midnightblue" d="M1059.41,-128.98C1093.24,-119.87 1147.22,-104.38 1192.5,-87 1193.92,-86.45 1195.37,-85.87 1196.82,-85.27"/>
<polygon fill="midnightblue" stroke="midnightblue" points="1198.58,-88.32 1206.31,-81.07 1195.75,-81.92 1198.58,-88.32"/>
</g>
<!-- Node45 -->
<g id="node16" class="node">
<title>Node45</title>
<g id="a_node16"><a xlink:title=" ">
<polygon fill="white" stroke="#bfbfbf" points="1263.5,-62 1263.5,-81 1313.5,-81 1313.5,-62 1263.5,-62"/>
<text text-anchor="middle" x="1288.5" y="-69" font-family="Helvetica,sans-Serif" font-size="10.00">cstring</text>
</a>
</g>
</g>
<!-- Node41&#45;&gt;Node45 -->
<g id="edge19" class="edge">
<title>Node41&#45;&gt;Node45</title>
<path fill="none" stroke="midnightblue" d="M1077.93,-128.92C1124.62,-120.48 1195.05,-106.08 1254.5,-87 1256.42,-86.38 1258.39,-85.7 1260.36,-84.97"/>
<polygon fill="midnightblue" stroke="midnightblue" points="1262.04,-88.07 1270.03,-81.11 1259.45,-81.57 1262.04,-88.07"/>
</g>
<!-- Node15 -->
<g id="node17" class="node">
<title>Node15</title>
<g id="a_node17"><a xlink:title=" ">
<polygon fill="white" stroke="#bfbfbf" points="886,-62 886,-81 937,-81 937,-62 886,-62"/>
<text text-anchor="middle" x="911.5" y="-69" font-family="Helvetica,sans-Serif" font-size="10.00">variant</text>
</a>
</g>
</g>
<!-- Node41&#45;&gt;Node15 -->
<g id="edge21" class="edge">
<title>Node41&#45;&gt;Node15</title>
<path fill="none" stroke="midnightblue" d="M1010.99,-128.73C991.59,-117.77 958.17,-98.88 935.47,-86.05"/>
<polygon fill="midnightblue" stroke="midnightblue" points="937.19,-83 926.76,-81.13 933.75,-89.09 937.19,-83"/>
</g>
<!-- Node47&#45;&gt;Node4 -->
<g id="edge33" class="edge">
<title>Node47&#45;&gt;Node4</title>
<path fill="none" stroke="midnightblue" d="M712.52,-190.45C697.95,-182.49 677.07,-169.54 662.5,-154 628.04,-117.24 645.98,-86 605.5,-56 568.36,-28.48 516.93,-17.49 476.8,-13.24"/>
<polygon fill="midnightblue" stroke="midnightblue" points="476.87,-9.73 466.59,-12.28 476.22,-16.7 476.87,-9.73"/>
</g>
<!-- Node47&#45;&gt;Node34 -->
<g id="edge34" class="edge">
<title>Node47&#45;&gt;Node34</title>
<path fill="none" stroke="midnightblue" d="M752.29,-190.47C767.83,-183.32 787.21,-171.44 796.5,-154 802.98,-141.84 804.33,-134.34 796.5,-123 770.85,-85.84 727.15,-124.16 701.5,-87 689.14,-69.11 701,-44.54 712,-28.24"/>
<polygon fill="midnightblue" stroke="midnightblue" points="715.15,-29.86 718.19,-19.71 709.49,-25.75 715.15,-29.86"/>
</g>
<!-- Node47&#45;&gt;Node41 -->
<g id="edge25" class="edge">
<title>Node47&#45;&gt;Node41</title>
<path fill="none" stroke="midnightblue" d="M772.05,-190.48C825.31,-179.8 916.52,-161.53 974.04,-150.01"/>
<polygon fill="midnightblue" stroke="midnightblue" points="974.91,-153.41 984.03,-148.01 973.53,-146.54 974.91,-153.41"/>
</g>
<!-- Node47&#45;&gt;Node42 -->
<g id="edge26" class="edge">
<title>Node47&#45;&gt;Node42</title>
<path fill="none" stroke="midnightblue" d="M757.96,-190.48C784.97,-182.12 826.51,-168.53 861.5,-154 912.57,-132.79 970.01,-103 1001.86,-85.93"/>
<polygon fill="midnightblue" stroke="midnightblue" points="1003.75,-88.89 1010.89,-81.07 1000.43,-82.73 1003.75,-88.89"/>
</g>
<!-- Node47&#45;&gt;Node15 -->
<g id="edge35" class="edge">
<title>Node47&#45;&gt;Node15</title>
<path fill="none" stroke="midnightblue" d="M755.06,-190.41C776.09,-182.68 806.13,-170.08 829.5,-154 856.78,-135.23 882.96,-106.8 898.13,-88.96"/>
<polygon fill="midnightblue" stroke="midnightblue" points="900.93,-91.06 904.64,-81.14 895.55,-86.58 900.93,-91.06"/>
</g>
<!-- Node21 -->
<g id="node19" class="node">
<title>Node21</title>
<g id="a_node19"><a xlink:href="decompose_8h.html" target="_top" xlink:title=" ">
<polygon fill="white" stroke="red" points="0,-123.5 0,-153.5 133,-153.5 133,-123.5 0,-123.5"/>
<text text-anchor="start" x="8" y="-141.5" font-family="Helvetica,sans-Serif" font-size="10.00">emlabcpp/experimental</text>
<text text-anchor="middle" x="66.5" y="-130.5" font-family="Helvetica,sans-Serif" font-size="10.00">/decompose.h</text>
</a>
</g>
</g>
<!-- Node47&#45;&gt;Node21 -->
<g id="edge23" class="edge">
<title>Node47&#45;&gt;Node21</title>
<path fill="none" stroke="midnightblue" d="M656.93,-196.05C547.69,-191.04 334.34,-179 143.11,-153.97"/>
<polygon fill="midnightblue" stroke="midnightblue" points="143.53,-150.5 133.16,-152.66 142.61,-157.44 143.53,-150.5"/>
</g>
<!-- Node48 -->
<g id="node20" class="node">
<title>Node48</title>
<g id="a_node20"><a xlink:href="message_8h.html" target="_top" xlink:title=" ">
<polygon fill="white" stroke="red" points="451.5,-129 451.5,-148 615.5,-148 615.5,-129 451.5,-129"/>
<text text-anchor="middle" x="533.5" y="-136" font-family="Helvetica,sans-Serif" font-size="10.00">emlabcpp/protocol/message.h</text>
</a>
</g>
</g>
<!-- Node47&#45;&gt;Node48 -->
<g id="edge27" class="edge">
<title>Node47&#45;&gt;Node48</title>
<path fill="none" stroke="midnightblue" d="M701.42,-190.48C667.21,-180.09 609.3,-162.51 571.23,-150.95"/>
<polygon fill="midnightblue" stroke="midnightblue" points="572.12,-147.56 561.53,-148.01 570.08,-154.26 572.12,-147.56"/>
</g>
<!-- Node49 -->
<g id="node21" class="node">
<title>Node49</title>
<g id="a_node21"><a xlink:href="quantity_8h.html" target="_top" xlink:title=" ">
<polygon fill="white" stroke="red" points="671.5,-129 671.5,-148 787.5,-148 787.5,-129 671.5,-129"/>
<text text-anchor="middle" x="729.5" y="-136" font-family="Helvetica,sans-Serif" font-size="10.00">emlabcpp/quantity.h</text>
</a>
</g>
</g>
<!-- Node47&#45;&gt;Node49 -->
<g id="edge29" class="edge">
<title>Node47&#45;&gt;Node49</title>
<path fill="none" stroke="midnightblue" d="M729.5,-190.48C729.5,-182.08 729.5,-168.98 729.5,-158.16"/>
<polygon fill="midnightblue" stroke="midnightblue" points="733,-158.01 729.5,-148.01 726,-158.01 733,-158.01"/>
</g>
<!-- Node53 -->
<g id="node22" class="node">
<title>Node53</title>
<g id="a_node22"><a xlink:href="static__vector_8h.html" target="_top" xlink:title=" ">
<polygon fill="white" stroke="red" points="294,-129 294,-148 433,-148 433,-129 294,-129"/>
<text text-anchor="middle" x="363.5" y="-136" font-family="Helvetica,sans-Serif" font-size="10.00">emlabcpp/static_vector.h</text>
</a>
</g>
</g>
<!-- Node47&#45;&gt;Node53 -->
<g id="edge32" class="edge">
<title>Node47&#45;&gt;Node53</title>
<path fill="none" stroke="midnightblue" d="M672.25,-190.47C614.27,-181.73 522.05,-167.54 442.5,-154 434.86,-152.7 426.82,-151.28 418.91,-149.86"/>
<polygon fill="midnightblue" stroke="midnightblue" points="419.46,-146.4 409,-148.06 418.21,-153.29 419.46,-146.4"/>
</g>
<!-- Node21&#45;&gt;Node10 -->
<g id="edge24" class="edge">
<title>Node21&#45;&gt;Node10</title>
<path fill="none" stroke="midnightblue" d="M72.36,-123.21C80.21,-105.55 95.59,-75.44 116.5,-56 132.89,-40.76 155.43,-29.3 173.46,-21.75"/>
<polygon fill="midnightblue" stroke="midnightblue" points="174.95,-24.93 182.94,-17.97 172.35,-18.42 174.95,-24.93"/>
</g>
<!-- Node48&#45;&gt;Node27 -->
<g id="edge28" class="edge">
<title>Node48&#45;&gt;Node27</title>
<path fill="none" stroke="midnightblue" d="M522.71,-128.73C509.76,-118.21 487.81,-100.38 472.11,-87.62"/>
<polygon fill="midnightblue" stroke="midnightblue" points="474.09,-84.72 464.12,-81.13 469.67,-90.15 474.09,-84.72"/>
</g>
<!-- Node49&#45;&gt;Node11 -->
<g id="edge31" class="edge">
<title>Node49&#45;&gt;Node11</title>
<path fill="none" stroke="midnightblue" d="M767.24,-128.94C791.01,-121.65 820.49,-108.78 838.5,-87 851.88,-70.82 856.03,-46.52 857.22,-29.77"/>
<polygon fill="midnightblue" stroke="midnightblue" points="860.73,-29.72 857.65,-19.58 853.73,-29.42 860.73,-29.72"/>
</g>
<!-- Node49&#45;&gt;Node39 -->
<g id="edge30" class="edge">
<title>Node49&#45;&gt;Node39</title>
<path fill="none" stroke="midnightblue" d="M708.78,-128.87C681.86,-117.65 634.64,-97.98 603.72,-85.09"/>
<polygon fill="midnightblue" stroke="midnightblue" points="604.88,-81.78 594.3,-81.17 602.19,-88.24 604.88,-81.78"/>
</g>
</g>
</svg>
