<?xml version="1.0" encoding="UTF-8" standalone="no"?>
<!DOCTYPE svg PUBLIC "-//W3C//DTD SVG 1.1//EN"
 "http://www.w3.org/Graphics/SVG/1.1/DTD/svg11.dtd">
<!-- Generated by graphviz version 2.43.0 (0)
 -->
<!-- Title: include/emlabcpp/protocol/register_map.h Pages: 1 -->
<svg width="1294pt" height="397pt"
 viewBox="0.00 0.00 1294.36 397.00" xmlns="http://www.w3.org/2000/svg" xmlns:xlink="http://www.w3.org/1999/xlink">
<g id="graph0" class="graph" transform="scale(1 1) rotate(0) translate(4 393)">
<title>include/emlabcpp/protocol/register_map.h</title>
<polygon fill="white" stroke="transparent" points="-4,4 -4,-393 1290.36,-393 1290.36,4 -4,4"/>
<!-- Node1 -->
<g id="node1" class="node">
<title>Node1</title>
<g id="a_node1"><a xlink:title=" ">
<polygon fill="#bfbfbf" stroke="black" points="579,-358.5 579,-388.5 725,-388.5 725,-358.5 579,-358.5"/>
<text text-anchor="start" x="587" y="-376.5" font-family="Helvetica,sans-Serif" font-size="10.00">include/emlabcpp/protocol</text>
<text text-anchor="middle" x="652" y="-365.5" font-family="Helvetica,sans-Serif" font-size="10.00">/register_map.h</text>
</a>
</g>
</g>
<!-- Node2 -->
<g id="node2" class="node">
<title>Node2</title>
<g id="a_node2"><a xlink:href="algorithm_8h.html" target="_top" xlink:title=" ">
<polygon fill="white" stroke="black" points="297,-246.5 297,-265.5 421,-265.5 421,-246.5 297,-246.5"/>
<text text-anchor="middle" x="359" y="-253.5" font-family="Helvetica,sans-Serif" font-size="10.00">emlabcpp/algorithm.h</text>
</a>
</g>
</g>
<!-- Node1&#45;&gt;Node2 -->
<g id="edge1" class="edge">
<title>Node1&#45;&gt;Node2</title>
<path fill="none" stroke="midnightblue" d="M615.54,-358.44C589.46,-348.35 553.54,-334.42 522,-322 475.88,-303.85 422.56,-282.52 389.81,-269.38"/>
<polygon fill="midnightblue" stroke="midnightblue" points="390.92,-266.06 380.34,-265.58 388.31,-272.55 390.92,-266.06"/>
</g>
<!-- Node18 -->
<g id="node7" class="node">
<title>Node18</title>
<g id="a_node7"><a xlink:href="pretty__printer_8h.html" target="_top" xlink:title=" ">
<polygon fill="white" stroke="red" points="582.5,-123.5 582.5,-153.5 715.5,-153.5 715.5,-123.5 582.5,-123.5"/>
<text text-anchor="start" x="590.5" y="-141.5" font-family="Helvetica,sans-Serif" font-size="10.00">emlabcpp/experimental</text>
<text text-anchor="middle" x="649" y="-130.5" font-family="Helvetica,sans-Serif" font-size="10.00">/pretty_printer.h</text>
</a>
</g>
</g>
<!-- Node1&#45;&gt;Node18 -->
<g id="edge26" class="edge">
<title>Node1&#45;&gt;Node18</title>
<path fill="none" stroke="midnightblue" d="M632.13,-358.26C608.53,-340 570.44,-305.88 555,-266 551.79,-257.71 549.85,-253.25 555,-246 583.07,-206.46 629.93,-249.54 658,-210 667.57,-196.51 664.65,-177.82 659.7,-163.07"/>
<polygon fill="midnightblue" stroke="midnightblue" points="662.92,-161.68 656.07,-153.6 656.38,-164.19 662.92,-161.68"/>
</g>
<!-- Node40 -->
<g id="node18" class="node">
<title>Node40</title>
<g id="a_node18"><a xlink:href="protocol_2base_8h.html" target="_top" xlink:title=" ">
<polygon fill="white" stroke="black" points="995.5,-246.5 995.5,-265.5 1138.5,-265.5 1138.5,-246.5 995.5,-246.5"/>
<text text-anchor="middle" x="1067" y="-253.5" font-family="Helvetica,sans-Serif" font-size="10.00">emlabcpp/protocol/base.h</text>
</a>
</g>
</g>
<!-- Node1&#45;&gt;Node40 -->
<g id="edge27" class="edge">
<title>Node1&#45;&gt;Node40</title>
<path fill="none" stroke="midnightblue" d="M709.78,-358.43C749.36,-348.63 802.99,-335.03 850,-322 913.51,-304.4 986.85,-281.99 1029.94,-268.61"/>
<polygon fill="midnightblue" stroke="midnightblue" points="1031.19,-271.89 1039.7,-265.57 1029.11,-265.2 1031.19,-271.89"/>
</g>
<!-- Node47 -->
<g id="node22" class="node">
<title>Node47</title>
<g id="a_node22"><a xlink:href="traits_8h.html" target="_top" xlink:title=" ">
<polygon fill="white" stroke="black" points="695.5,-302.5 695.5,-321.5 840.5,-321.5 840.5,-302.5 695.5,-302.5"/>
<text text-anchor="middle" x="768" y="-309.5" font-family="Helvetica,sans-Serif" font-size="10.00">emlabcpp/protocol/traits.h</text>
</a>
</g>
</g>
<!-- Node1&#45;&gt;Node47 -->
<g id="edge35" class="edge">
<title>Node1&#45;&gt;Node47</title>
<path fill="none" stroke="midnightblue" d="M679.49,-358.4C698.43,-348.68 723.44,-335.86 742.04,-326.31"/>
<polygon fill="midnightblue" stroke="midnightblue" points="743.82,-329.34 751.12,-321.66 740.63,-323.11 743.82,-329.34"/>
</g>
<!-- Node3 -->
<g id="node3" class="node">
<title>Node3</title>
<g id="a_node3"><a xlink:href="impl_8h.html" target="_top" xlink:title=" ">
<polygon fill="white" stroke="black" points="215.5,-56.5 215.5,-86.5 330.5,-86.5 330.5,-56.5 215.5,-56.5"/>
<text text-anchor="start" x="223.5" y="-74.5" font-family="Helvetica,sans-Serif" font-size="10.00">emlabcpp/algorithm</text>
<text text-anchor="middle" x="273" y="-63.5" font-family="Helvetica,sans-Serif" font-size="10.00">/impl.h</text>
</a>
</g>
</g>
<!-- Node2&#45;&gt;Node3 -->
<g id="edge2" class="edge">
<title>Node2&#45;&gt;Node3</title>
<path fill="none" stroke="midnightblue" d="M354.85,-246.2C342.11,-219.16 303.25,-136.7 284.02,-95.89"/>
<polygon fill="midnightblue" stroke="midnightblue" points="287.12,-94.25 279.69,-86.69 280.79,-97.23 287.12,-94.25"/>
</g>
<!-- Node4 -->
<g id="node4" class="node">
<title>Node4</title>
<g id="a_node4"><a xlink:href="types_8h.html" target="_top" xlink:title=" ">
<polygon fill="white" stroke="red" points="96,-0.5 96,-19.5 200,-19.5 200,-0.5 96,-0.5"/>
<text text-anchor="middle" x="148" y="-7.5" font-family="Helvetica,sans-Serif" font-size="10.00">emlabcpp/types.h</text>
</a>
</g>
</g>
<!-- Node2&#45;&gt;Node4 -->
<g id="edge21" class="edge">
<title>Node2&#45;&gt;Node4</title>
<path fill="none" stroke="midnightblue" d="M296.97,-254.21C225.7,-249.57 111.56,-229.84 57,-154 35.32,-123.86 85.68,-60.09 89,-56 98.91,-43.81 112.76,-33.03 124.55,-25.07"/>
<polygon fill="midnightblue" stroke="midnightblue" points="126.57,-27.93 133.07,-19.56 122.77,-22.05 126.57,-27.93"/>
</g>
<!-- Node10 -->
<g id="node5" class="node">
<title>Node10</title>
<g id="a_node5"><a xlink:title=" ">
<polygon fill="white" stroke="#bfbfbf" points="483.5,-0.5 483.5,-19.5 524.5,-19.5 524.5,-0.5 483.5,-0.5"/>
<text text-anchor="middle" x="504" y="-7.5" font-family="Helvetica,sans-Serif" font-size="10.00">tuple</text>
</a>
</g>
</g>
<!-- Node2&#45;&gt;Node10 -->
<g id="edge25" class="edge">
<title>Node2&#45;&gt;Node10</title>
<path fill="none" stroke="midnightblue" d="M356.87,-246.28C350.08,-216.16 331.95,-115.15 378,-56 400.62,-26.94 443.54,-16.62 472.95,-12.97"/>
<polygon fill="midnightblue" stroke="midnightblue" points="473.53,-16.42 483.11,-11.9 472.8,-9.46 473.53,-16.42"/>
</g>
<!-- Node17 -->
<g id="node6" class="node">
<title>Node17</title>
<g id="a_node6"><a xlink:href="bounded_8h.html" target="_top" xlink:title=" ">
<polygon fill="white" stroke="red" points="529.5,-190.5 529.5,-209.5 648.5,-209.5 648.5,-190.5 529.5,-190.5"/>
<text text-anchor="middle" x="589" y="-197.5" font-family="Helvetica,sans-Serif" font-size="10.00">emlabcpp/bounded.h</text>
</a>
</g>
</g>
<!-- Node2&#45;&gt;Node17 -->
<g id="edge5" class="edge">
<title>Node2&#45;&gt;Node17</title>
<path fill="none" stroke="midnightblue" d="M395.44,-246.44C435.4,-237.06 499.59,-221.99 542.98,-211.8"/>
<polygon fill="midnightblue" stroke="midnightblue" points="543.79,-215.21 552.73,-209.52 542.19,-208.39 543.79,-215.21"/>
</g>
<!-- Node23 -->
<g id="node9" class="node">
<title>Node23</title>
<g id="a_node9"><a xlink:href="min__max_8h.html" target="_top" xlink:title=" ">
<polygon fill="white" stroke="red" points="387,-62 387,-81 509,-81 509,-62 387,-62"/>
<text text-anchor="middle" x="448" y="-69" font-family="Helvetica,sans-Serif" font-size="10.00">emlabcpp/min_max.h</text>
</a>
</g>
</g>
<!-- Node2&#45;&gt;Node23 -->
<g id="edge20" class="edge">
<title>Node2&#45;&gt;Node23</title>
<path fill="none" stroke="midnightblue" d="M363.29,-246.2C377.07,-217.95 420.35,-129.2 439.14,-90.66"/>
<polygon fill="midnightblue" stroke="midnightblue" points="442.51,-91.74 443.75,-81.21 436.22,-88.67 442.51,-91.74"/>
</g>
<!-- Node28 -->
<g id="node10" class="node">
<title>Node28</title>
<g id="a_node10"><a xlink:href="view_8h.html" target="_top" xlink:title=" ">
<polygon fill="white" stroke="red" points="98.5,-62 98.5,-81 197.5,-81 197.5,-62 98.5,-62"/>
<text text-anchor="middle" x="148" y="-69" font-family="Helvetica,sans-Serif" font-size="10.00">emlabcpp/view.h</text>
</a>
</g>
</g>
<!-- Node2&#45;&gt;Node28 -->
<g id="edge22" class="edge">
<title>Node2&#45;&gt;Node28</title>
<path fill="none" stroke="midnightblue" d="M296.99,-247.87C273.26,-241.78 248.46,-230.57 234,-210 211.73,-178.31 258.65,-156.38 239,-123 228.23,-104.7 208.17,-92.56 189.62,-84.78"/>
<polygon fill="midnightblue" stroke="midnightblue" points="190.71,-81.45 180.12,-81.1 188.18,-87.98 190.71,-81.45"/>
</g>
<!-- Node38 -->
<g id="node16" class="node">
<title>Node38</title>
<g id="a_node16"><a xlink:title=" ">
<polygon fill="white" stroke="#bfbfbf" points="425.5,-190.5 425.5,-209.5 472.5,-209.5 472.5,-190.5 425.5,-190.5"/>
<text text-anchor="middle" x="449" y="-197.5" font-family="Helvetica,sans-Serif" font-size="10.00">cmath</text>
</a>
</g>
</g>
<!-- Node2&#45;&gt;Node38 -->
<g id="edge23" class="edge">
<title>Node2&#45;&gt;Node38</title>
<path fill="none" stroke="midnightblue" d="M373.46,-246.32C387.5,-237.9 409.05,-224.97 425.54,-215.07"/>
<polygon fill="midnightblue" stroke="midnightblue" points="427.8,-217.8 434.58,-209.65 424.2,-211.8 427.8,-217.8"/>
</g>
<!-- Node39 -->
<g id="node17" class="node">
<title>Node39</title>
<g id="a_node17"><a xlink:title=" ">
<polygon fill="white" stroke="#bfbfbf" points="243.5,-190.5 243.5,-209.5 292.5,-209.5 292.5,-190.5 243.5,-190.5"/>
<text text-anchor="middle" x="268" y="-197.5" font-family="Helvetica,sans-Serif" font-size="10.00">cstdlib</text>
</a>
</g>
</g>
<!-- Node2&#45;&gt;Node39 -->
<g id="edge24" class="edge">
<title>Node2&#45;&gt;Node39</title>
<path fill="none" stroke="midnightblue" d="M344.38,-246.32C330.05,-237.82 307.99,-224.73 291.25,-214.8"/>
<polygon fill="midnightblue" stroke="midnightblue" points="292.97,-211.75 282.58,-209.65 289.4,-217.77 292.97,-211.75"/>
</g>
<!-- Node3&#45;&gt;Node4 -->
<g id="edge3" class="edge">
<title>Node3&#45;&gt;Node4</title>
<path fill="none" stroke="midnightblue" d="M243.38,-56.4C222.78,-46.59 195.52,-33.62 175.42,-24.05"/>
<polygon fill="midnightblue" stroke="midnightblue" points="176.72,-20.8 166.19,-19.66 173.71,-27.12 176.72,-20.8"/>
</g>
<!-- Node3&#45;&gt;Node10 -->
<g id="edge4" class="edge">
<title>Node3&#45;&gt;Node10</title>
<path fill="none" stroke="midnightblue" d="M327.45,-56.47C373.05,-44.73 436.47,-28.4 473.58,-18.84"/>
<polygon fill="midnightblue" stroke="midnightblue" points="474.5,-22.21 483.31,-16.33 472.75,-15.43 474.5,-22.21"/>
</g>
<!-- Node17&#45;&gt;Node18 -->
<g id="edge6" class="edge">
<title>Node17&#45;&gt;Node18</title>
<path fill="none" stroke="midnightblue" d="M597.6,-190.48C605.42,-182.72 617.29,-170.94 627.66,-160.66"/>
<polygon fill="midnightblue" stroke="midnightblue" points="630.22,-163.05 634.86,-153.52 625.29,-158.08 630.22,-163.05"/>
</g>
<!-- Node35 -->
<g id="node13" class="node">
<title>Node35</title>
<g id="a_node13"><a xlink:title=" ">
<polygon fill="white" stroke="#bfbfbf" points="527,-62 527,-81 583,-81 583,-62 527,-62"/>
<text text-anchor="middle" x="555" y="-69" font-family="Helvetica,sans-Serif" font-size="10.00">optional</text>
</a>
</g>
</g>
<!-- Node17&#45;&gt;Node35 -->
<g id="edge18" class="edge">
<title>Node17&#45;&gt;Node35</title>
<path fill="none" stroke="midnightblue" d="M585.61,-190.48C582.13,-181.5 576.71,-166.91 573,-154 566.89,-132.72 561.67,-107.82 558.44,-91.2"/>
<polygon fill="midnightblue" stroke="midnightblue" points="561.84,-90.33 556.54,-81.15 554.96,-91.63 561.84,-90.33"/>
</g>
<!-- Node11 -->
<g id="node15" class="node">
<title>Node11</title>
<g id="a_node15"><a xlink:title=" ">
<polygon fill="white" stroke="#bfbfbf" points="733.5,-129 733.5,-148 802.5,-148 802.5,-129 733.5,-129"/>
<text text-anchor="middle" x="768" y="-136" font-family="Helvetica,sans-Serif" font-size="10.00">type_traits</text>
</a>
</g>
</g>
<!-- Node17&#45;&gt;Node11 -->
<g id="edge19" class="edge">
<title>Node17&#45;&gt;Node11</title>
<path fill="none" stroke="midnightblue" d="M615.09,-190.42C642.48,-181.39 686.79,-166.77 725,-154 727.57,-153.14 730.23,-152.25 732.91,-151.35"/>
<polygon fill="midnightblue" stroke="midnightblue" points="734.18,-154.62 742.54,-148.11 731.95,-147.98 734.18,-154.62"/>
</g>
<!-- Node18&#45;&gt;Node4 -->
<g id="edge10" class="edge">
<title>Node18&#45;&gt;Node4</title>
<path fill="none" stroke="midnightblue" d="M643.6,-123.43C635.52,-104.51 618.36,-71.47 592,-56 528.87,-18.95 317.04,-12.08 210.41,-11.02"/>
<polygon fill="midnightblue" stroke="midnightblue" points="210.15,-7.52 200.12,-10.93 210.09,-14.52 210.15,-7.52"/>
</g>
<!-- Node18&#45;&gt;Node10 -->
<g id="edge16" class="edge">
<title>Node18&#45;&gt;Node10</title>
<path fill="none" stroke="midnightblue" d="M648.56,-123.24C647.25,-105.32 642.4,-74.66 625,-56 601.38,-30.68 562.2,-19.53 534.85,-14.67"/>
<polygon fill="midnightblue" stroke="midnightblue" points="535.07,-11.16 524.64,-13.05 533.97,-18.08 535.07,-11.16"/>
</g>
<!-- Node20 -->
<g id="node8" class="node">
<title>Node20</title>
<g id="a_node8"><a xlink:href="decompose_8h.html" target="_top" xlink:title=" ">
<polygon fill="white" stroke="red" points="677.5,-56.5 677.5,-86.5 810.5,-86.5 810.5,-56.5 677.5,-56.5"/>
<text text-anchor="start" x="685.5" y="-74.5" font-family="Helvetica,sans-Serif" font-size="10.00">emlabcpp/experimental</text>
<text text-anchor="middle" x="744" y="-63.5" font-family="Helvetica,sans-Serif" font-size="10.00">/decompose.h</text>
</a>
</g>
</g>
<!-- Node18&#45;&gt;Node20 -->
<g id="edge7" class="edge">
<title>Node18&#45;&gt;Node20</title>
<path fill="none" stroke="midnightblue" d="M669.61,-123.4C682.93,-114.28 700.46,-102.29 715.16,-92.24"/>
<polygon fill="midnightblue" stroke="midnightblue" points="717.15,-95.11 723.43,-86.58 713.2,-89.33 717.15,-95.11"/>
</g>
<!-- Node18&#45;&gt;Node23 -->
<g id="edge9" class="edge">
<title>Node18&#45;&gt;Node23</title>
<path fill="none" stroke="midnightblue" d="M605.39,-123.4C569.03,-111.64 517.85,-95.09 483.84,-84.09"/>
<polygon fill="midnightblue" stroke="midnightblue" points="484.9,-80.75 474.31,-81.01 482.74,-87.41 484.9,-80.75"/>
</g>
<!-- Node18&#45;&gt;Node28 -->
<g id="edge11" class="edge">
<title>Node18&#45;&gt;Node28</title>
<path fill="none" stroke="midnightblue" d="M582.18,-132.64C495.11,-125.67 338.34,-110.98 206,-87 200.45,-85.99 194.64,-84.76 188.93,-83.44"/>
<polygon fill="midnightblue" stroke="midnightblue" points="189.38,-79.95 178.84,-81.01 187.74,-86.76 189.38,-79.95"/>
</g>
<!-- Node30 -->
<g id="node11" class="node">
<title>Node30</title>
<g id="a_node11"><a xlink:title=" ">
<polygon fill="white" stroke="#bfbfbf" points="990,-62 990,-81 1034,-81 1034,-62 990,-62"/>
<text text-anchor="middle" x="1012" y="-69" font-family="Helvetica,sans-Serif" font-size="10.00">bitset</text>
</a>
</g>
</g>
<!-- Node18&#45;&gt;Node30 -->
<g id="edge13" class="edge">
<title>Node18&#45;&gt;Node30</title>
<path fill="none" stroke="midnightblue" d="M715.72,-124.71C718.85,-124.13 721.96,-123.56 725,-123 817.18,-106.1 926.23,-87.22 979.47,-78.07"/>
<polygon fill="midnightblue" stroke="midnightblue" points="980.39,-81.46 989.65,-76.32 979.2,-74.56 980.39,-81.46"/>
</g>
<!-- Node32 -->
<g id="node12" class="node">
<title>Node32</title>
<g id="a_node12"><a xlink:title=" ">
<polygon fill="white" stroke="#bfbfbf" points="836,-62 836,-81 886,-81 886,-62 836,-62"/>
<text text-anchor="middle" x="861" y="-69" font-family="Helvetica,sans-Serif" font-size="10.00">chrono</text>
</a>
</g>
</g>
<!-- Node18&#45;&gt;Node32 -->
<g id="edge14" class="edge">
<title>Node18&#45;&gt;Node32</title>
<path fill="none" stroke="midnightblue" d="M698.97,-123.49C733.19,-113.72 779.51,-100.13 820,-87 822.45,-86.21 824.98,-85.36 827.51,-84.5"/>
<polygon fill="midnightblue" stroke="midnightblue" points="828.92,-87.72 837.22,-81.15 826.63,-81.11 828.92,-87.72"/>
</g>
<!-- Node18&#45;&gt;Node35 -->
<g id="edge15" class="edge">
<title>Node18&#45;&gt;Node35</title>
<path fill="none" stroke="midnightblue" d="M628.6,-123.4C612.99,-112.6 591.52,-97.76 575.81,-86.89"/>
<polygon fill="midnightblue" stroke="midnightblue" points="577.52,-83.82 567.3,-81.01 573.54,-89.57 577.52,-83.82"/>
</g>
<!-- Node15 -->
<g id="node14" class="node">
<title>Node15</title>
<g id="a_node14"><a xlink:title=" ">
<polygon fill="white" stroke="#bfbfbf" points="1185.5,-62 1185.5,-81 1236.5,-81 1236.5,-62 1185.5,-62"/>
<text text-anchor="middle" x="1211" y="-69" font-family="Helvetica,sans-Serif" font-size="10.00">variant</text>
</a>
</g>
</g>
<!-- Node18&#45;&gt;Node15 -->
<g id="edge17" class="edge">
<title>Node18&#45;&gt;Node15</title>
<path fill="none" stroke="midnightblue" d="M715.67,-124.45C718.82,-123.94 721.94,-123.45 725,-123 812.26,-110.17 1078.45,-84.86 1175.29,-75.81"/>
<polygon fill="midnightblue" stroke="midnightblue" points="1175.82,-79.28 1185.45,-74.87 1175.17,-72.31 1175.82,-79.28"/>
</g>
<!-- Node20&#45;&gt;Node10 -->
<g id="edge8" class="edge">
<title>Node20&#45;&gt;Node10</title>
<path fill="none" stroke="midnightblue" d="M687.43,-56.47C639.67,-44.64 573.11,-28.13 534.69,-18.61"/>
<polygon fill="midnightblue" stroke="midnightblue" points="535.18,-15.13 524.64,-16.12 533.5,-21.92 535.18,-15.13"/>
</g>
<!-- Node28&#45;&gt;Node4 -->
<g id="edge12" class="edge">
<title>Node28&#45;&gt;Node4</title>
<path fill="none" stroke="midnightblue" d="M148,-61.98C148,-53.58 148,-40.48 148,-29.66"/>
<polygon fill="midnightblue" stroke="midnightblue" points="151.5,-29.51 148,-19.51 144.5,-29.51 151.5,-29.51"/>
</g>
<!-- Node40&#45;&gt;Node17 -->
<g id="edge28" class="edge">
<title>Node40&#45;&gt;Node17</title>
<path fill="none" stroke="midnightblue" d="M995.44,-246.92C904.53,-236.65 748.68,-219.04 658.68,-208.87"/>
<polygon fill="midnightblue" stroke="midnightblue" points="658.9,-205.37 648.57,-207.73 658.12,-212.33 658.9,-205.37"/>
</g>
<!-- Node40&#45;&gt;Node30 -->
<g id="edge31" class="edge">
<title>Node40&#45;&gt;Node30</title>
<path fill="none" stroke="midnightblue" d="M1068.4,-246.45C1070.17,-233.9 1072.48,-209.81 1068,-190 1059.4,-151.98 1036.97,-111.86 1023.25,-89.72"/>
<polygon fill="midnightblue" stroke="midnightblue" points="1026.12,-87.71 1017.8,-81.14 1020.21,-91.46 1026.12,-87.71"/>
</g>
<!-- Node40&#45;&gt;Node15 -->
<g id="edge34" class="edge">
<title>Node40&#45;&gt;Node15</title>
<path fill="none" stroke="midnightblue" d="M1128.95,-246.49C1152.07,-240.18 1176.46,-229.17 1192,-210 1219.87,-175.63 1217.53,-119.82 1213.99,-91.01"/>
<polygon fill="midnightblue" stroke="midnightblue" points="1217.45,-90.49 1212.58,-81.08 1210.52,-91.48 1217.45,-90.49"/>
</g>
<!-- Node40&#45;&gt;Node11 -->
<g id="edge33" class="edge">
<title>Node40&#45;&gt;Node11</title>
<path fill="none" stroke="midnightblue" d="M1067.16,-246.36C1066.92,-232.31 1064.26,-204.62 1048,-190 1014.03,-159.45 882.93,-146.68 812.82,-141.95"/>
<polygon fill="midnightblue" stroke="midnightblue" points="812.74,-138.44 802.53,-141.28 812.28,-145.42 812.74,-138.44"/>
</g>
<!-- Node41 -->
<g id="node19" class="node">
<title>Node41</title>
<g id="a_node19"><a xlink:href="protocol_2error_8h.html" target="_top" xlink:title=" ">
<polygon fill="white" stroke="red" points="897,-190.5 897,-209.5 1039,-209.5 1039,-190.5 897,-190.5"/>
<text text-anchor="middle" x="968" y="-197.5" font-family="Helvetica,sans-Serif" font-size="10.00">emlabcpp/protocol/error.h</text>
</a>
</g>
</g>
<!-- Node40&#45;&gt;Node41 -->
<g id="edge29" class="edge">
<title>Node40&#45;&gt;Node41</title>
<path fill="none" stroke="midnightblue" d="M1051.09,-246.32C1035.36,-237.74 1011.06,-224.49 992.79,-214.52"/>
<polygon fill="midnightblue" stroke="midnightblue" points="994.32,-211.37 983.87,-209.65 990.97,-217.52 994.32,-211.37"/>
</g>
<!-- Node46 -->
<g id="node20" class="node">
<title>Node46</title>
<g id="a_node20"><a xlink:title=" ">
<polygon fill="white" stroke="#bfbfbf" points="1239.5,-190.5 1239.5,-209.5 1268.5,-209.5 1268.5,-190.5 1239.5,-190.5"/>
<text text-anchor="middle" x="1254" y="-197.5" font-family="Helvetica,sans-Serif" font-size="10.00">bit</text>
</a>
</g>
</g>
<!-- Node40&#45;&gt;Node46 -->
<g id="edge30" class="edge">
<title>Node40&#45;&gt;Node46</title>
<path fill="none" stroke="midnightblue" d="M1097.94,-246.42C1129.84,-237.52 1180.99,-223.1 1225,-210 1226.45,-209.57 1227.94,-209.12 1229.45,-208.66"/>
<polygon fill="midnightblue" stroke="midnightblue" points="1230.74,-211.93 1239.27,-205.65 1228.68,-205.24 1230.74,-211.93"/>
</g>
<!-- Node44 -->
<g id="node21" class="node">
<title>Node44</title>
<g id="a_node21"><a xlink:title=" ">
<polygon fill="white" stroke="#bfbfbf" points="1133,-190.5 1133,-209.5 1183,-209.5 1183,-190.5 1133,-190.5"/>
<text text-anchor="middle" x="1158" y="-197.5" font-family="Helvetica,sans-Serif" font-size="10.00">cstring</text>
</a>
</g>
</g>
<!-- Node40&#45;&gt;Node44 -->
<g id="edge32" class="edge">
<title>Node40&#45;&gt;Node44</title>
<path fill="none" stroke="midnightblue" d="M1081.62,-246.32C1095.95,-237.82 1118.01,-224.73 1134.75,-214.8"/>
<polygon fill="midnightblue" stroke="midnightblue" points="1136.6,-217.77 1143.42,-209.65 1133.03,-211.75 1136.6,-217.77"/>
</g>
<!-- Node47&#45;&gt;Node4 -->
<g id="edge46" class="edge">
<title>Node47&#45;&gt;Node4</title>
<path fill="none" stroke="midnightblue" d="M695.4,-308.16C503.96,-299.71 0,-270.83 0,-201 0,-201 0,-201 0,-137.5 0,-78.42 68.99,-41.05 112.76,-23.28"/>
<polygon fill="midnightblue" stroke="midnightblue" points="114.18,-26.48 122.22,-19.58 111.63,-19.96 114.18,-26.48"/>
</g>
<!-- Node47&#45;&gt;Node20 -->
<g id="edge36" class="edge">
<title>Node47&#45;&gt;Node20</title>
<path fill="none" stroke="midnightblue" d="M797.88,-302.39C815.54,-295.59 836.45,-284.15 847,-266 851.47,-258.31 848.23,-254.8 847,-246 839.15,-189.71 844.31,-169.76 812,-123 803.52,-110.73 791.1,-100.26 779.18,-92.09"/>
<polygon fill="midnightblue" stroke="midnightblue" points="780.94,-89.06 770.65,-86.55 777.13,-94.93 780.94,-89.06"/>
</g>
<!-- Node47&#45;&gt;Node32 -->
<g id="edge47" class="edge">
<title>Node47&#45;&gt;Node32</title>
<path fill="none" stroke="midnightblue" d="M808.15,-302.43C827.97,-295.95 850.14,-284.83 862,-266 896.89,-210.62 878.09,-127.45 867.12,-90.87"/>
<polygon fill="midnightblue" stroke="midnightblue" points="870.38,-89.58 864.03,-81.1 863.7,-91.69 870.38,-89.58"/>
</g>
<!-- Node47&#45;&gt;Node35 -->
<g id="edge48" class="edge">
<title>Node47&#45;&gt;Node35</title>
<path fill="none" stroke="midnightblue" d="M695.27,-309.68C651.24,-305.66 595.89,-294.59 555,-266 530.95,-249.18 528.09,-238.21 520,-210 507.72,-167.17 530.27,-116.21 544.56,-90"/>
<polygon fill="midnightblue" stroke="midnightblue" points="547.64,-91.66 549.54,-81.24 541.56,-88.2 547.64,-91.66"/>
</g>
<!-- Node47&#45;&gt;Node15 -->
<g id="edge49" class="edge">
<title>Node47&#45;&gt;Node15</title>
<path fill="none" stroke="midnightblue" d="M840.52,-308.71C969.7,-302.82 1230.58,-282.05 1278,-210 1305.24,-168.61 1257.18,-114.51 1229.12,-88.22"/>
<polygon fill="midnightblue" stroke="midnightblue" points="1231.24,-85.42 1221.48,-81.28 1226.53,-90.6 1231.24,-85.42"/>
</g>
<!-- Node47&#45;&gt;Node40 -->
<g id="edge37" class="edge">
<title>Node47&#45;&gt;Node40</title>
<path fill="none" stroke="midnightblue" d="M815.38,-302.44C868.08,-292.92 953.23,-277.55 1009.66,-267.36"/>
<polygon fill="midnightblue" stroke="midnightblue" points="1010.63,-270.74 1019.84,-265.52 1009.38,-263.85 1010.63,-270.74"/>
</g>
<!-- Node47&#45;&gt;Node41 -->
<g id="edge38" class="edge">
<title>Node47&#45;&gt;Node41</title>
<path fill="none" stroke="midnightblue" d="M825.46,-302.47C855.05,-296.01 890.57,-284.9 918,-266 935.72,-253.79 949.94,-233.35 958.62,-218.64"/>
<polygon fill="midnightblue" stroke="midnightblue" points="961.88,-219.99 963.72,-209.55 955.78,-216.56 961.88,-219.99"/>
</g>
<!-- Node48 -->
<g id="node23" class="node">
<title>Node48</title>
<g id="a_node23"><a xlink:href="message_8h.html" target="_top" xlink:title=" ">
<polygon fill="white" stroke="red" points="66,-129 66,-148 230,-148 230,-129 66,-129"/>
<text text-anchor="middle" x="148" y="-136" font-family="Helvetica,sans-Serif" font-size="10.00">emlabcpp/protocol/message.h</text>
</a>
</g>
</g>
<!-- Node47&#45;&gt;Node48 -->
<g id="edge39" class="edge">
<title>Node47&#45;&gt;Node48</title>
<path fill="none" stroke="midnightblue" d="M695.07,-309.62C579.31,-306.52 359.32,-296.67 288,-266 231.52,-241.71 182.6,-185.04 160.52,-156.53"/>
<polygon fill="midnightblue" stroke="midnightblue" points="163.15,-154.19 154.32,-148.33 157.56,-158.42 163.15,-154.19"/>
</g>
<!-- Node49 -->
<g id="node24" class="node">
<title>Node49</title>
<g id="a_node24"><a xlink:href="quantity_8h.html" target="_top" xlink:title=" ">
<polygon fill="white" stroke="red" points="564,-246.5 564,-265.5 680,-265.5 680,-246.5 564,-246.5"/>
<text text-anchor="middle" x="622" y="-253.5" font-family="Helvetica,sans-Serif" font-size="10.00">emlabcpp/quantity.h</text>
</a>
</g>
</g>
<!-- Node47&#45;&gt;Node49 -->
<g id="edge41" class="edge">
<title>Node47&#45;&gt;Node49</title>
<path fill="none" stroke="midnightblue" d="M744.87,-302.44C720.52,-293.44 681.99,-279.19 654.58,-269.05"/>
<polygon fill="midnightblue" stroke="midnightblue" points="655.62,-265.7 645.03,-265.52 653.19,-272.27 655.62,-265.7"/>
</g>
<!-- Node52 -->
<g id="node25" class="node">
<title>Node52</title>
<g id="a_node25"><a xlink:href="static__vector_8h.html" target="_top" xlink:title=" ">
<polygon fill="white" stroke="red" points="698.5,-246.5 698.5,-265.5 837.5,-265.5 837.5,-246.5 698.5,-246.5"/>
<text text-anchor="middle" x="768" y="-253.5" font-family="Helvetica,sans-Serif" font-size="10.00">emlabcpp/static_vector.h</text>
</a>
</g>
</g>
<!-- Node47&#45;&gt;Node52 -->
<g id="edge44" class="edge">
<title>Node47&#45;&gt;Node52</title>
<path fill="none" stroke="midnightblue" d="M768,-302.08C768,-295.01 768,-284.86 768,-275.99"/>
<polygon fill="midnightblue" stroke="midnightblue" points="771.5,-275.75 768,-265.75 764.5,-275.75 771.5,-275.75"/>
</g>
<!-- Node48&#45;&gt;Node28 -->
<g id="edge40" class="edge">
<title>Node48&#45;&gt;Node28</title>
<path fill="none" stroke="midnightblue" d="M148,-128.73C148,-119.18 148,-103.62 148,-91.28"/>
<polygon fill="midnightblue" stroke="midnightblue" points="151.5,-91.13 148,-81.13 144.5,-91.13 151.5,-91.13"/>
</g>
<!-- Node49&#45;&gt;Node11 -->
<g id="edge43" class="edge">
<title>Node49&#45;&gt;Node11</title>
<path fill="none" stroke="midnightblue" d="M636.74,-246.35C651.05,-237.74 673.14,-223.85 691,-210 713.24,-192.76 736.82,-170.5 751.94,-155.65"/>
<polygon fill="midnightblue" stroke="midnightblue" points="754.77,-157.77 759.41,-148.24 749.84,-152.8 754.77,-157.77"/>
</g>
<!-- Node49&#45;&gt;Node38 -->
<g id="edge42" class="edge">
<title>Node49&#45;&gt;Node38</title>
<path fill="none" stroke="midnightblue" d="M594.59,-246.44C564.11,-236.93 514.88,-221.56 482.23,-211.37"/>
<polygon fill="midnightblue" stroke="midnightblue" points="483.26,-208.03 472.67,-208.39 481.17,-214.71 483.26,-208.03"/>
</g>
<!-- Node52&#45;&gt;Node18 -->
<g id="edge45" class="edge">
<title>Node52&#45;&gt;Node18</title>
<path fill="none" stroke="midnightblue" d="M759.06,-246.32C740.46,-228.27 697.16,-186.25 670.76,-160.62"/>
<polygon fill="midnightblue" stroke="midnightblue" points="673.08,-158 663.47,-153.55 668.21,-163.02 673.08,-158"/>
</g>
</g>
</svg>
