<?xml version="1.0" encoding="UTF-8" standalone="no"?>
<!DOCTYPE svg PUBLIC "-//W3C//DTD SVG 1.1//EN"
 "http://www.w3.org/Graphics/SVG/1.1/DTD/svg11.dtd">
<!-- Generated by graphviz version 2.43.0 (0)
 -->
<!-- Title: include/emlabcpp/protocol/register_map.h Pages: 1 -->
<svg width="1144pt" height="263pt"
 viewBox="0.00 0.00 1144.34 263.00" xmlns="http://www.w3.org/2000/svg" xmlns:xlink="http://www.w3.org/1999/xlink">
<g id="graph0" class="graph" transform="scale(1 1) rotate(0) translate(4 259)">
<title>include/emlabcpp/protocol/register_map.h</title>
<polygon fill="white" stroke="transparent" points="-4,4 -4,-259 1140.34,-259 1140.34,4 -4,4"/>
<!-- Node1 -->
<g id="node1" class="node">
<title>Node1</title>
<g id="a_node1"><a xlink:title=" ">
<polygon fill="#bfbfbf" stroke="black" points="597.84,-224.5 597.84,-254.5 743.84,-254.5 743.84,-224.5 597.84,-224.5"/>
<text text-anchor="start" x="605.84" y="-242.5" font-family="Helvetica,sans-Serif" font-size="10.00">include/emlabcpp/protocol</text>
<text text-anchor="middle" x="670.84" y="-231.5" font-family="Helvetica,sans-Serif" font-size="10.00">/register_map.h</text>
</a>
</g>
</g>
<!-- Node2 -->
<g id="node2" class="node">
<title>Node2</title>
<g id="a_node2"><a xlink:href="algorithm_8h.html" target="_top" xlink:title=" ">
<polygon fill="white" stroke="black" points="280.84,-112.5 280.84,-131.5 362.84,-131.5 362.84,-112.5 280.84,-112.5"/>
<text text-anchor="middle" x="321.84" y="-119.5" font-family="Helvetica,sans-Serif" font-size="10.00">../algorithm.h</text>
</a>
</g>
</g>
<!-- Node1&#45;&gt;Node2 -->
<g id="edge1" class="edge">
<title>Node1&#45;&gt;Node2</title>
<path fill="none" stroke="midnightblue" d="M628.39,-224.45C558.9,-201.46 422.13,-156.19 357.4,-134.77"/>
<polygon fill="midnightblue" stroke="midnightblue" points="358.24,-131.36 347.65,-131.54 356.04,-138.01 358.24,-131.36"/>
</g>
<!-- Node28 -->
<g id="node14" class="node">
<title>Node28</title>
<g id="a_node14"><a xlink:href="protocol_2base_8h.html" target="_top" xlink:title=" ">
<polygon fill="white" stroke="black" points="903.34,-112.5 903.34,-131.5 958.34,-131.5 958.34,-112.5 903.34,-112.5"/>
<text text-anchor="middle" x="930.84" y="-119.5" font-family="Helvetica,sans-Serif" font-size="10.00">./base.h</text>
</a>
</g>
</g>
<!-- Node1&#45;&gt;Node28 -->
<g id="edge16" class="edge">
<title>Node1&#45;&gt;Node28</title>
<path fill="none" stroke="midnightblue" d="M702.46,-224.45C753.48,-201.79 853.2,-157.49 902.23,-135.71"/>
<polygon fill="midnightblue" stroke="midnightblue" points="903.89,-138.8 911.61,-131.54 901.05,-132.4 903.89,-138.8"/>
</g>
<!-- Node36 -->
<g id="node20" class="node">
<title>Node36</title>
<g id="a_node20"><a xlink:href="traits_8h.html" target="_top" xlink:title=" ">
<polygon fill="white" stroke="black" points="642.34,-168.5 642.34,-187.5 699.34,-187.5 699.34,-168.5 642.34,-168.5"/>
<text text-anchor="middle" x="670.84" y="-175.5" font-family="Helvetica,sans-Serif" font-size="10.00">./traits.h</text>
</a>
</g>
</g>
<!-- Node1&#45;&gt;Node36 -->
<g id="edge24" class="edge">
<title>Node1&#45;&gt;Node36</title>
<path fill="none" stroke="midnightblue" d="M670.84,-224.4C670.84,-216.47 670.84,-206.46 670.84,-197.86"/>
<polygon fill="midnightblue" stroke="midnightblue" points="674.34,-197.66 670.84,-187.66 667.34,-197.66 674.34,-197.66"/>
</g>
<!-- Node3 -->
<g id="node3" class="node">
<title>Node3</title>
<g id="a_node3"><a xlink:href="impl_8h.html" target="_top" xlink:title=" ">
<polygon fill="white" stroke="black" points="196.84,-56.5 196.84,-75.5 300.84,-75.5 300.84,-56.5 196.84,-56.5"/>
<text text-anchor="middle" x="248.84" y="-63.5" font-family="Helvetica,sans-Serif" font-size="10.00">./algorithm/impl.h</text>
</a>
</g>
</g>
<!-- Node2&#45;&gt;Node3 -->
<g id="edge2" class="edge">
<title>Node2&#45;&gt;Node3</title>
<path fill="none" stroke="midnightblue" d="M310.11,-112.32C299,-104.11 282.1,-91.6 268.85,-81.81"/>
<polygon fill="midnightblue" stroke="midnightblue" points="270.9,-78.97 260.78,-75.83 266.74,-84.59 270.9,-78.97"/>
</g>
<!-- Node4 -->
<g id="node4" class="node">
<title>Node4</title>
<g id="a_node4"><a xlink:href="types_8h.html" target="_top" xlink:title=" ">
<polygon fill="white" stroke="red" points="420.84,-0.5 420.84,-19.5 482.84,-19.5 482.84,-0.5 420.84,-0.5"/>
<text text-anchor="middle" x="451.84" y="-7.5" font-family="Helvetica,sans-Serif" font-size="10.00">../types.h</text>
</a>
</g>
</g>
<!-- Node2&#45;&gt;Node4 -->
<g id="edge10" class="edge">
<title>Node2&#45;&gt;Node4</title>
<path fill="none" stroke="midnightblue" d="M344.27,-112.38C362.28,-104.72 387.48,-92.21 405.84,-76 421.33,-62.32 434.42,-42.45 442.62,-28.29"/>
<polygon fill="midnightblue" stroke="midnightblue" points="445.69,-29.98 447.49,-19.54 439.57,-26.57 445.69,-29.98"/>
</g>
<!-- Node10 -->
<g id="node5" class="node">
<title>Node10</title>
<g id="a_node5"><a xlink:title=" ">
<polygon fill="white" stroke="#bfbfbf" points="148.34,-0.5 148.34,-19.5 189.34,-19.5 189.34,-0.5 148.34,-0.5"/>
<text text-anchor="middle" x="168.84" y="-7.5" font-family="Helvetica,sans-Serif" font-size="10.00">tuple</text>
</a>
</g>
</g>
<!-- Node2&#45;&gt;Node10 -->
<g id="edge15" class="edge">
<title>Node2&#45;&gt;Node10</title>
<path fill="none" stroke="midnightblue" d="M280.78,-117.23C251.12,-112.38 212.16,-101.3 187.84,-76 176.01,-63.69 171.49,-44.44 169.79,-30.08"/>
<polygon fill="midnightblue" stroke="midnightblue" points="173.25,-29.51 168.94,-19.83 166.28,-30.08 173.25,-29.51"/>
</g>
<!-- Node17 -->
<g id="node6" class="node">
<title>Node17</title>
<g id="a_node6"><a xlink:href="bounded_8h.html" target="_top" xlink:title=" ">
<polygon fill="white" stroke="red" points="666.84,-56.5 666.84,-75.5 740.84,-75.5 740.84,-56.5 666.84,-56.5"/>
<text text-anchor="middle" x="703.84" y="-63.5" font-family="Helvetica,sans-Serif" font-size="10.00">./bounded.h</text>
</a>
</g>
</g>
<!-- Node2&#45;&gt;Node17 -->
<g id="edge5" class="edge">
<title>Node2&#45;&gt;Node17</title>
<path fill="none" stroke="midnightblue" d="M363.01,-113.59C366.33,-113.04 369.64,-112.5 372.84,-112 473.52,-96.28 591.94,-80.94 656.3,-72.86"/>
<polygon fill="midnightblue" stroke="midnightblue" points="657.05,-76.3 666.54,-71.58 656.18,-69.35 657.05,-76.3"/>
</g>
<!-- Node19 -->
<g id="node9" class="node">
<title>Node19</title>
<g id="a_node9"><a xlink:href="min__max_8h.html" target="_top" xlink:title=" ">
<polygon fill="white" stroke="red" points="319.34,-56.5 319.34,-75.5 396.34,-75.5 396.34,-56.5 319.34,-56.5"/>
<text text-anchor="middle" x="357.84" y="-63.5" font-family="Helvetica,sans-Serif" font-size="10.00">./min_max.h</text>
</a>
</g>
</g>
<!-- Node2&#45;&gt;Node19 -->
<g id="edge8" class="edge">
<title>Node2&#45;&gt;Node19</title>
<path fill="none" stroke="midnightblue" d="M327.78,-112.08C332.82,-104.53 340.17,-93.49 346.35,-84.23"/>
<polygon fill="midnightblue" stroke="midnightblue" points="349.37,-86.01 352,-75.75 343.54,-82.13 349.37,-86.01"/>
</g>
<!-- Node21 -->
<g id="node10" class="node">
<title>Node21</title>
<g id="a_node10"><a xlink:href="range_8h.html" target="_top" xlink:title=" ">
<polygon fill="white" stroke="red" points="14.34,-56.5 14.34,-75.5 73.34,-75.5 73.34,-56.5 14.34,-56.5"/>
<text text-anchor="middle" x="43.84" y="-63.5" font-family="Helvetica,sans-Serif" font-size="10.00">./range.h</text>
</a>
</g>
</g>
<!-- Node2&#45;&gt;Node21 -->
<g id="edge9" class="edge">
<title>Node2&#45;&gt;Node21</title>
<path fill="none" stroke="midnightblue" d="M280.53,-113.87C234.67,-105.81 158.23,-91.98 83.7,-76.33"/>
<polygon fill="midnightblue" stroke="midnightblue" points="84.19,-72.85 73.68,-74.21 82.74,-79.7 84.19,-72.85"/>
</g>
<!-- Node24 -->
<g id="node11" class="node">
<title>Node24</title>
<g id="a_node11"><a xlink:href="view_8h.html" target="_top" xlink:title=" ">
<polygon fill="white" stroke="red" points="452.84,-56.5 452.84,-75.5 506.84,-75.5 506.84,-56.5 452.84,-56.5"/>
<text text-anchor="middle" x="479.84" y="-63.5" font-family="Helvetica,sans-Serif" font-size="10.00">./view.h</text>
</a>
</g>
</g>
<!-- Node2&#45;&gt;Node24 -->
<g id="edge11" class="edge">
<title>Node2&#45;&gt;Node24</title>
<path fill="none" stroke="midnightblue" d="M346.87,-112.44C373.45,-103.36 415.65,-88.94 445.36,-78.78"/>
<polygon fill="midnightblue" stroke="midnightblue" points="446.59,-82.06 454.92,-75.52 444.32,-75.44 446.59,-82.06"/>
</g>
<!-- Node26 -->
<g id="node12" class="node">
<title>Node26</title>
<g id="a_node12"><a xlink:title=" ">
<polygon fill="white" stroke="#bfbfbf" points="525.34,-56.5 525.34,-75.5 572.34,-75.5 572.34,-56.5 525.34,-56.5"/>
<text text-anchor="middle" x="548.84" y="-63.5" font-family="Helvetica,sans-Serif" font-size="10.00">cmath</text>
</a>
</g>
</g>
<!-- Node2&#45;&gt;Node26 -->
<g id="edge13" class="edge">
<title>Node2&#45;&gt;Node26</title>
<path fill="none" stroke="midnightblue" d="M360.59,-112.47C397.76,-104.19 455.68,-91.01 515.13,-76.1"/>
<polygon fill="midnightblue" stroke="midnightblue" points="516.23,-79.44 525.07,-73.6 514.52,-72.65 516.23,-79.44"/>
</g>
<!-- Node27 -->
<g id="node13" class="node">
<title>Node27</title>
<g id="a_node13"><a xlink:title=" ">
<polygon fill="white" stroke="#bfbfbf" points="91.34,-56.5 91.34,-75.5 140.34,-75.5 140.34,-56.5 91.34,-56.5"/>
<text text-anchor="middle" x="115.84" y="-63.5" font-family="Helvetica,sans-Serif" font-size="10.00">cstdlib</text>
</a>
</g>
</g>
<!-- Node2&#45;&gt;Node27 -->
<g id="edge14" class="edge">
<title>Node2&#45;&gt;Node27</title>
<path fill="none" stroke="midnightblue" d="M289.2,-112.44C251.29,-102.51 189.02,-86.18 150.34,-76.04"/>
<polygon fill="midnightblue" stroke="midnightblue" points="151.13,-72.63 140.57,-73.48 149.35,-79.4 151.13,-72.63"/>
</g>
<!-- Node3&#45;&gt;Node4 -->
<g id="edge3" class="edge">
<title>Node3&#45;&gt;Node4</title>
<path fill="none" stroke="midnightblue" d="M281,-56.44C316.2,-47.08 372.72,-32.05 411.02,-21.86"/>
<polygon fill="midnightblue" stroke="midnightblue" points="412.06,-25.2 420.82,-19.25 410.26,-18.44 412.06,-25.2"/>
</g>
<!-- Node3&#45;&gt;Node10 -->
<g id="edge4" class="edge">
<title>Node3&#45;&gt;Node10</title>
<path fill="none" stroke="midnightblue" d="M235.98,-56.32C223.62,-47.98 204.71,-35.21 190.1,-25.35"/>
<polygon fill="midnightblue" stroke="midnightblue" points="191.91,-22.35 181.66,-19.65 187.99,-28.15 191.91,-22.35"/>
</g>
<!-- Node18 -->
<g id="node7" class="node">
<title>Node18</title>
<g id="a_node7"><a xlink:title=" ">
<polygon fill="white" stroke="#bfbfbf" points="634.84,-0.5 634.84,-19.5 690.84,-19.5 690.84,-0.5 634.84,-0.5"/>
<text text-anchor="middle" x="662.84" y="-7.5" font-family="Helvetica,sans-Serif" font-size="10.00">optional</text>
</a>
</g>
</g>
<!-- Node17&#45;&gt;Node18 -->
<g id="edge6" class="edge">
<title>Node17&#45;&gt;Node18</title>
<path fill="none" stroke="midnightblue" d="M697.07,-56.08C691.28,-48.46 682.78,-37.26 675.7,-27.94"/>
<polygon fill="midnightblue" stroke="midnightblue" points="678.32,-25.6 669.48,-19.75 672.74,-29.83 678.32,-25.6"/>
</g>
<!-- Node11 -->
<g id="node8" class="node">
<title>Node11</title>
<g id="a_node8"><a xlink:title=" ">
<polygon fill="white" stroke="#bfbfbf" points="734.34,-0.5 734.34,-19.5 803.34,-19.5 803.34,-0.5 734.34,-0.5"/>
<text text-anchor="middle" x="768.84" y="-7.5" font-family="Helvetica,sans-Serif" font-size="10.00">type_traits</text>
</a>
</g>
</g>
<!-- Node17&#45;&gt;Node11 -->
<g id="edge7" class="edge">
<title>Node17&#45;&gt;Node11</title>
<path fill="none" stroke="midnightblue" d="M714.28,-56.32C723.98,-48.26 738.65,-36.08 750.34,-26.37"/>
<polygon fill="midnightblue" stroke="midnightblue" points="752.75,-28.92 758.2,-19.83 748.28,-23.53 752.75,-28.92"/>
</g>
<!-- Node24&#45;&gt;Node4 -->
<g id="edge12" class="edge">
<title>Node24&#45;&gt;Node4</title>
<path fill="none" stroke="midnightblue" d="M475.21,-56.08C471.38,-48.69 465.81,-37.95 461.07,-28.81"/>
<polygon fill="midnightblue" stroke="midnightblue" points="464.09,-27.02 456.38,-19.75 457.87,-30.24 464.09,-27.02"/>
</g>
<!-- Node28&#45;&gt;Node17 -->
<g id="edge17" class="edge">
<title>Node28&#45;&gt;Node17</title>
<path fill="none" stroke="midnightblue" d="M903,-114.38C864.81,-105.29 795.68,-88.85 749.76,-77.92"/>
<polygon fill="midnightblue" stroke="midnightblue" points="750.3,-74.45 739.76,-75.55 748.68,-81.26 750.3,-74.45"/>
</g>
<!-- Node28&#45;&gt;Node11 -->
<g id="edge22" class="edge">
<title>Node28&#45;&gt;Node11</title>
<path fill="none" stroke="midnightblue" d="M933.65,-112.37C937.49,-98.83 942.52,-72.45 929.84,-56 915.64,-37.58 856.1,-24.59 813.57,-17.44"/>
<polygon fill="midnightblue" stroke="midnightblue" points="813.87,-13.94 803.43,-15.8 812.74,-20.85 813.87,-13.94"/>
</g>
<!-- Node29 -->
<g id="node15" class="node">
<title>Node29</title>
<g id="a_node15"><a xlink:href="protocol_2error_8h.html" target="_top" xlink:title=" ">
<polygon fill="white" stroke="red" points="866.84,-56.5 866.84,-75.5 920.84,-75.5 920.84,-56.5 866.84,-56.5"/>
<text text-anchor="middle" x="893.84" y="-63.5" font-family="Helvetica,sans-Serif" font-size="10.00">./error.h</text>
</a>
</g>
</g>
<!-- Node28&#45;&gt;Node29 -->
<g id="edge18" class="edge">
<title>Node28&#45;&gt;Node29</title>
<path fill="none" stroke="midnightblue" d="M924.73,-112.08C919.56,-104.53 911.99,-93.49 905.64,-84.23"/>
<polygon fill="midnightblue" stroke="midnightblue" points="908.37,-82.02 899.83,-75.75 902.6,-85.98 908.37,-82.02"/>
</g>
<!-- Node34 -->
<g id="node16" class="node">
<title>Node34</title>
<g id="a_node16"><a xlink:title=" ">
<polygon fill="white" stroke="#bfbfbf" points="1107.34,-56.5 1107.34,-75.5 1136.34,-75.5 1136.34,-56.5 1107.34,-56.5"/>
<text text-anchor="middle" x="1121.84" y="-63.5" font-family="Helvetica,sans-Serif" font-size="10.00">bit</text>
</a>
</g>
</g>
<!-- Node28&#45;&gt;Node34 -->
<g id="edge19" class="edge">
<title>Node28&#45;&gt;Node34</title>
<path fill="none" stroke="midnightblue" d="M958.56,-114.39C989.99,-106.71 1042.95,-93.22 1097.38,-75.9"/>
<polygon fill="midnightblue" stroke="midnightblue" points="1098.75,-79.14 1107.19,-72.75 1096.6,-72.48 1098.75,-79.14"/>
</g>
<!-- Node35 -->
<g id="node17" class="node">
<title>Node35</title>
<g id="a_node17"><a xlink:title=" ">
<polygon fill="white" stroke="#bfbfbf" points="976.84,-56.5 976.84,-75.5 1020.84,-75.5 1020.84,-56.5 976.84,-56.5"/>
<text text-anchor="middle" x="998.84" y="-63.5" font-family="Helvetica,sans-Serif" font-size="10.00">bitset</text>
</a>
</g>
</g>
<!-- Node28&#45;&gt;Node35 -->
<g id="edge20" class="edge">
<title>Node28&#45;&gt;Node35</title>
<path fill="none" stroke="midnightblue" d="M941.76,-112.32C952.01,-104.18 967.56,-91.84 979.84,-82.09"/>
<polygon fill="midnightblue" stroke="midnightblue" points="982.06,-84.79 987.71,-75.83 977.71,-79.31 982.06,-84.79"/>
</g>
<!-- Node32 -->
<g id="node18" class="node">
<title>Node32</title>
<g id="a_node18"><a xlink:title=" ">
<polygon fill="white" stroke="#bfbfbf" points="1038.84,-56.5 1038.84,-75.5 1088.84,-75.5 1088.84,-56.5 1038.84,-56.5"/>
<text text-anchor="middle" x="1063.84" y="-63.5" font-family="Helvetica,sans-Serif" font-size="10.00">cstring</text>
</a>
</g>
</g>
<!-- Node28&#45;&gt;Node32 -->
<g id="edge21" class="edge">
<title>Node28&#45;&gt;Node32</title>
<path fill="none" stroke="midnightblue" d="M951.91,-112.44C973.9,-103.52 1008.57,-89.44 1033.5,-79.32"/>
<polygon fill="midnightblue" stroke="midnightblue" points="1034.91,-82.52 1042.86,-75.52 1032.28,-76.04 1034.91,-82.52"/>
</g>
<!-- Node15 -->
<g id="node19" class="node">
<title>Node15</title>
<g id="a_node19"><a xlink:title=" ">
<polygon fill="white" stroke="#bfbfbf" points="797.34,-56.5 797.34,-75.5 848.34,-75.5 848.34,-56.5 797.34,-56.5"/>
<text text-anchor="middle" x="822.84" y="-63.5" font-family="Helvetica,sans-Serif" font-size="10.00">variant</text>
</a>
</g>
</g>
<!-- Node28&#45;&gt;Node15 -->
<g id="edge23" class="edge">
<title>Node28&#45;&gt;Node15</title>
<path fill="none" stroke="midnightblue" d="M913.49,-112.32C896.17,-103.66 869.32,-90.24 849.34,-80.25"/>
<polygon fill="midnightblue" stroke="midnightblue" points="850.66,-77 840.15,-75.65 847.53,-83.26 850.66,-77"/>
</g>
<!-- Node36&#45;&gt;Node4 -->
<g id="edge32" class="edge">
<title>Node36&#45;&gt;Node4</title>
<path fill="none" stroke="midnightblue" d="M666.77,-168.28C656.06,-146.22 624.88,-87.71 581.84,-56 555.49,-36.59 520.12,-25.07 492.92,-18.55"/>
<polygon fill="midnightblue" stroke="midnightblue" points="493.46,-15.08 482.93,-16.29 491.91,-21.91 493.46,-15.08"/>
</g>
<!-- Node36&#45;&gt;Node18 -->
<g id="edge38" class="edge">
<title>Node36&#45;&gt;Node18</title>
<path fill="none" stroke="midnightblue" d="M667.49,-168.2C664.28,-159.24 659.66,-144.88 657.84,-132 652.75,-96.04 656.8,-53.52 659.98,-29.66"/>
<polygon fill="midnightblue" stroke="midnightblue" points="663.47,-29.96 661.42,-19.56 656.54,-28.96 663.47,-29.96"/>
</g>
<!-- Node36&#45;&gt;Node28 -->
<g id="edge33" class="edge">
<title>Node36&#45;&gt;Node28</title>
<path fill="none" stroke="midnightblue" d="M699.42,-171.17C741.09,-162.66 820.96,-146.28 888.84,-132 890.3,-131.69 891.79,-131.38 893.29,-131.06"/>
<polygon fill="midnightblue" stroke="midnightblue" points="894.23,-134.44 903.28,-128.94 892.77,-127.59 894.23,-134.44"/>
</g>
<!-- Node36&#45;&gt;Node29 -->
<g id="edge34" class="edge">
<title>Node36&#45;&gt;Node29</title>
<path fill="none" stroke="midnightblue" d="M699.41,-176.77C738.44,-175.08 808.92,-166.95 855.84,-132 871.53,-120.31 881.86,-100.07 887.74,-85.28"/>
<polygon fill="midnightblue" stroke="midnightblue" points="891.1,-86.26 891.24,-75.66 884.53,-83.86 891.1,-86.26"/>
</g>
<!-- Node36&#45;&gt;Node15 -->
<g id="edge39" class="edge">
<title>Node36&#45;&gt;Node15</title>
<path fill="none" stroke="midnightblue" d="M688.11,-168.5C704.55,-160.1 729.71,-146.45 749.84,-132 770.81,-116.94 792.64,-96.83 806.9,-82.98"/>
<polygon fill="midnightblue" stroke="midnightblue" points="809.68,-85.15 814.35,-75.64 804.77,-80.16 809.68,-85.15"/>
</g>
<!-- Node37 -->
<g id="node21" class="node">
<title>Node37</title>
<g id="a_node21"><a xlink:href="decompose_8h.html" target="_top" xlink:title=" ">
<polygon fill="white" stroke="red" points="5.34,-112.5 5.34,-131.5 164.34,-131.5 164.34,-112.5 5.34,-112.5"/>
<text text-anchor="middle" x="84.84" y="-119.5" font-family="Helvetica,sans-Serif" font-size="10.00">../experimental/decompose.h</text>
</a>
</g>
</g>
<!-- Node36&#45;&gt;Node37 -->
<g id="edge25" class="edge">
<title>Node36&#45;&gt;Node37</title>
<path fill="none" stroke="midnightblue" d="M642.18,-174.36C558.14,-166.61 309.79,-143.73 174.74,-131.28"/>
<polygon fill="midnightblue" stroke="midnightblue" points="174.7,-127.77 164.42,-130.33 174.06,-134.74 174.7,-127.77"/>
</g>
<!-- Node38 -->
<g id="node22" class="node">
<title>Node38</title>
<g id="a_node22"><a xlink:href="quantity_8h.html" target="_top" xlink:title=" ">
<polygon fill="white" stroke="red" points="666.84,-112.5 666.84,-131.5 740.84,-131.5 740.84,-112.5 666.84,-112.5"/>
<text text-anchor="middle" x="703.84" y="-119.5" font-family="Helvetica,sans-Serif" font-size="10.00">../quantity.h</text>
</a>
</g>
</g>
<!-- Node36&#45;&gt;Node38 -->
<g id="edge27" class="edge">
<title>Node36&#45;&gt;Node38</title>
<path fill="none" stroke="midnightblue" d="M676.29,-168.08C680.85,-160.61 687.51,-149.72 693.13,-140.52"/>
<polygon fill="midnightblue" stroke="midnightblue" points="696.26,-142.11 698.49,-131.75 690.29,-138.46 696.26,-142.11"/>
</g>
<!-- Node41 -->
<g id="node23" class="node">
<title>Node41</title>
<g id="a_node23"><a xlink:href="static__vector_8h.html" target="_top" xlink:title=" ">
<polygon fill="white" stroke="red" points="381.34,-112.5 381.34,-131.5 478.34,-131.5 478.34,-112.5 381.34,-112.5"/>
<text text-anchor="middle" x="429.84" y="-119.5" font-family="Helvetica,sans-Serif" font-size="10.00">../static_vector.h</text>
</a>
</g>
</g>
<!-- Node36&#45;&gt;Node41 -->
<g id="edge30" class="edge">
<title>Node36&#45;&gt;Node41</title>
<path fill="none" stroke="midnightblue" d="M642.25,-170.59C601.65,-161.5 526.8,-144.73 477.67,-133.72"/>
<polygon fill="midnightblue" stroke="midnightblue" points="478.42,-130.3 467.9,-131.53 476.89,-137.13 478.42,-130.3"/>
</g>
<!-- Node46 -->
<g id="node24" class="node">
<title>Node46</title>
<g id="a_node24"><a xlink:href="message_8h.html" target="_top" xlink:title=" ">
<polygon fill="white" stroke="red" points="496.84,-112.5 496.84,-131.5 572.84,-131.5 572.84,-112.5 496.84,-112.5"/>
<text text-anchor="middle" x="534.84" y="-119.5" font-family="Helvetica,sans-Serif" font-size="10.00">./message.h</text>
</a>
</g>
</g>
<!-- Node36&#45;&gt;Node46 -->
<g id="edge35" class="edge">
<title>Node36&#45;&gt;Node46</title>
<path fill="none" stroke="midnightblue" d="M649.29,-168.44C626.81,-159.52 591.35,-145.44 565.86,-135.32"/>
<polygon fill="midnightblue" stroke="midnightblue" points="566.87,-131.95 556.29,-131.52 564.29,-138.46 566.87,-131.95"/>
</g>
<!-- Node47 -->
<g id="node25" class="node">
<title>Node47</title>
<g id="a_node25"><a xlink:title=" ">
<polygon fill="white" stroke="#bfbfbf" points="796.84,-112.5 796.84,-131.5 846.84,-131.5 846.84,-112.5 796.84,-112.5"/>
<text text-anchor="middle" x="821.84" y="-119.5" font-family="Helvetica,sans-Serif" font-size="10.00">chrono</text>
</a>
</g>
</g>
<!-- Node36&#45;&gt;Node47 -->
<g id="edge37" class="edge">
<title>Node36&#45;&gt;Node47</title>
<path fill="none" stroke="midnightblue" d="M694.76,-168.44C720.06,-159.4 760.14,-145.06 788.52,-134.92"/>
<polygon fill="midnightblue" stroke="midnightblue" points="789.79,-138.18 798.02,-131.52 787.43,-131.59 789.79,-138.18"/>
</g>
<!-- Node37&#45;&gt;Node10 -->
<g id="edge26" class="edge">
<title>Node37&#45;&gt;Node10</title>
<path fill="none" stroke="midnightblue" d="M58.36,-112.41C28.46,-101.28 -13.77,-80.4 4.84,-56 20.93,-34.9 95.29,-21.24 138.15,-14.98"/>
<polygon fill="midnightblue" stroke="midnightblue" points="138.9,-18.41 148.31,-13.55 137.92,-11.48 138.9,-18.41"/>
</g>
<!-- Node38&#45;&gt;Node11 -->
<g id="edge29" class="edge">
<title>Node38&#45;&gt;Node11</title>
<path fill="none" stroke="midnightblue" d="M715.71,-112.29C726.14,-104.04 740.99,-90.75 749.84,-76 758.44,-61.67 763.35,-43.2 766.01,-29.62"/>
<polygon fill="midnightblue" stroke="midnightblue" points="769.5,-30 767.75,-19.55 762.6,-28.81 769.5,-30"/>
</g>
<!-- Node38&#45;&gt;Node26 -->
<g id="edge28" class="edge">
<title>Node38&#45;&gt;Node26</title>
<path fill="none" stroke="midnightblue" d="M679.28,-112.44C653.09,-103.32 611.44,-88.81 582.27,-78.65"/>
<polygon fill="midnightblue" stroke="midnightblue" points="583.12,-75.24 572.52,-75.25 580.81,-81.85 583.12,-75.24"/>
</g>
<!-- Node41&#45;&gt;Node24 -->
<g id="edge31" class="edge">
<title>Node41&#45;&gt;Node24</title>
<path fill="none" stroke="midnightblue" d="M438.09,-112.08C445.3,-104.3 455.95,-92.8 464.68,-83.37"/>
<polygon fill="midnightblue" stroke="midnightblue" points="467.51,-85.47 471.74,-75.75 462.37,-80.71 467.51,-85.47"/>
</g>
<!-- Node46&#45;&gt;Node24 -->
<g id="edge36" class="edge">
<title>Node46&#45;&gt;Node24</title>
<path fill="none" stroke="midnightblue" d="M525.76,-112.08C517.67,-104.14 505.64,-92.34 495.93,-82.8"/>
<polygon fill="midnightblue" stroke="midnightblue" points="498.34,-80.26 488.75,-75.75 493.43,-85.25 498.34,-80.26"/>
</g>
</g>
</svg>
