<?xml version="1.0" encoding="UTF-8" standalone="no"?>
<!DOCTYPE svg PUBLIC "-//W3C//DTD SVG 1.1//EN"
 "http://www.w3.org/Graphics/SVG/1.1/DTD/svg11.dtd">
<!-- Generated by graphviz version 2.43.0 (0)
 -->
<!-- Title: include/emlabcpp/protocol/register_handler.h Pages: 1 -->
<svg width="872pt" height="207pt"
 viewBox="0.00 0.00 871.50 207.00" xmlns="http://www.w3.org/2000/svg" xmlns:xlink="http://www.w3.org/1999/xlink">
<g id="graph0" class="graph" transform="scale(1 1) rotate(0) translate(4 203)">
<title>include/emlabcpp/protocol/register_handler.h</title>
<polygon fill="white" stroke="transparent" points="-4,4 -4,-203 867.5,-203 867.5,4 -4,4"/>
<!-- Node1 -->
<g id="node1" class="node">
<title>Node1</title>
<g id="a_node1"><a xlink:title=" ">
<polygon fill="#bfbfbf" stroke="black" points="272.5,-168.5 272.5,-198.5 418.5,-198.5 418.5,-168.5 272.5,-168.5"/>
<text text-anchor="start" x="280.5" y="-186.5" font-family="Helvetica,sans-Serif" font-size="10.00">include/emlabcpp/protocol</text>
<text text-anchor="middle" x="345.5" y="-175.5" font-family="Helvetica,sans-Serif" font-size="10.00">/register_handler.h</text>
</a>
</g>
</g>
<!-- Node2 -->
<g id="node2" class="node">
<title>Node2</title>
<g id="a_node2"><a xlink:href="either_8h.html" target="_top" xlink:title=" ">
<polygon fill="white" stroke="black" points="145.5,-56.5 145.5,-75.5 249.5,-75.5 249.5,-56.5 145.5,-56.5"/>
<text text-anchor="middle" x="197.5" y="-63.5" font-family="Helvetica,sans-Serif" font-size="10.00">emlabcpp/either.h</text>
</a>
</g>
</g>
<!-- Node1&#45;&gt;Node2 -->
<g id="edge1" class="edge">
<title>Node1&#45;&gt;Node2</title>
<path fill="none" stroke="midnightblue" d="M327.35,-168.34C299.23,-146.39 245.39,-104.37 216.66,-81.95"/>
<polygon fill="midnightblue" stroke="midnightblue" points="218.65,-79.06 208.61,-75.67 214.34,-84.58 218.65,-79.06"/>
</g>
<!-- Node42 -->
<g id="node9" class="node">
<title>Node42</title>
<g id="a_node9"><a xlink:href="converter_8h.html" target="_top" xlink:title=" ">
<polygon fill="white" stroke="black" points="411,-112.5 411,-131.5 576,-131.5 576,-112.5 411,-112.5"/>
<text text-anchor="middle" x="493.5" y="-119.5" font-family="Helvetica,sans-Serif" font-size="10.00">emlabcpp/protocol/converter.h</text>
</a>
</g>
</g>
<!-- Node1&#45;&gt;Node42 -->
<g id="edge8" class="edge">
<title>Node1&#45;&gt;Node42</title>
<path fill="none" stroke="midnightblue" d="M380.57,-168.4C405.52,-158.37 438.71,-145.03 462.64,-135.4"/>
<polygon fill="midnightblue" stroke="midnightblue" points="463.99,-138.64 471.96,-131.66 461.38,-132.14 463.99,-138.64"/>
</g>
<!-- Node3 -->
<g id="node3" class="node">
<title>Node3</title>
<g id="a_node3"><a xlink:href="static__vector_8h.html" target="_top" xlink:title=" ">
<polygon fill="white" stroke="red" points="150,-0.5 150,-19.5 289,-19.5 289,-0.5 150,-0.5"/>
<text text-anchor="middle" x="219.5" y="-7.5" font-family="Helvetica,sans-Serif" font-size="10.00">emlabcpp/static_vector.h</text>
</a>
</g>
</g>
<!-- Node2&#45;&gt;Node3 -->
<g id="edge2" class="edge">
<title>Node2&#45;&gt;Node3</title>
<path fill="none" stroke="midnightblue" d="M201.13,-56.08C204.11,-48.77 208.43,-38.18 212.12,-29.1"/>
<polygon fill="midnightblue" stroke="midnightblue" points="215.4,-30.33 215.93,-19.75 208.92,-27.69 215.4,-30.33"/>
</g>
<!-- Node21 -->
<g id="node4" class="node">
<title>Node21</title>
<g id="a_node4"><a xlink:href="types_8h.html" target="_top" xlink:title=" ">
<polygon fill="white" stroke="red" points="441.5,-0.5 441.5,-19.5 545.5,-19.5 545.5,-0.5 441.5,-0.5"/>
<text text-anchor="middle" x="493.5" y="-7.5" font-family="Helvetica,sans-Serif" font-size="10.00">emlabcpp/types.h</text>
</a>
</g>
</g>
<!-- Node2&#45;&gt;Node21 -->
<g id="edge3" class="edge">
<title>Node2&#45;&gt;Node21</title>
<path fill="none" stroke="midnightblue" d="M244.4,-56.44C296.58,-46.92 380.87,-31.55 436.73,-21.36"/>
<polygon fill="midnightblue" stroke="midnightblue" points="437.61,-24.75 446.82,-19.52 436.35,-17.87 437.61,-24.75"/>
</g>
<!-- Node35 -->
<g id="node5" class="node">
<title>Node35</title>
<g id="a_node5"><a xlink:title=" ">
<polygon fill="white" stroke="#bfbfbf" points="307.5,-0.5 307.5,-19.5 363.5,-19.5 363.5,-0.5 307.5,-0.5"/>
<text text-anchor="middle" x="335.5" y="-7.5" font-family="Helvetica,sans-Serif" font-size="10.00">optional</text>
</a>
</g>
</g>
<!-- Node2&#45;&gt;Node35 -->
<g id="edge4" class="edge">
<title>Node2&#45;&gt;Node35</title>
<path fill="none" stroke="midnightblue" d="M219.37,-56.44C242.28,-47.48 278.48,-33.31 304.37,-23.18"/>
<polygon fill="midnightblue" stroke="midnightblue" points="305.7,-26.42 313.74,-19.52 303.15,-19.9 305.7,-26.42"/>
</g>
<!-- Node9 -->
<g id="node6" class="node">
<title>Node9</title>
<g id="a_node6"><a xlink:title=" ">
<polygon fill="white" stroke="#bfbfbf" points="382,-0.5 382,-19.5 423,-19.5 423,-0.5 382,-0.5"/>
<text text-anchor="middle" x="402.5" y="-7.5" font-family="Helvetica,sans-Serif" font-size="10.00">tuple</text>
</a>
</g>
</g>
<!-- Node2&#45;&gt;Node9 -->
<g id="edge5" class="edge">
<title>Node2&#45;&gt;Node9</title>
<path fill="none" stroke="midnightblue" d="M232.47,-56.44C265.87,-48.17 317.84,-35.06 372.08,-20.03"/>
<polygon fill="midnightblue" stroke="midnightblue" points="373.18,-23.36 381.87,-17.31 371.3,-16.62 373.18,-23.36"/>
</g>
<!-- Node10 -->
<g id="node7" class="node">
<title>Node10</title>
<g id="a_node7"><a xlink:title=" ">
<polygon fill="white" stroke="#bfbfbf" points="0,-0.5 0,-19.5 69,-19.5 69,-0.5 0,-0.5"/>
<text text-anchor="middle" x="34.5" y="-7.5" font-family="Helvetica,sans-Serif" font-size="10.00">type_traits</text>
</a>
</g>
</g>
<!-- Node2&#45;&gt;Node10 -->
<g id="edge6" class="edge">
<title>Node2&#45;&gt;Node10</title>
<path fill="none" stroke="midnightblue" d="M171.67,-56.44C144.25,-47.36 100.72,-32.94 70.07,-22.78"/>
<polygon fill="midnightblue" stroke="midnightblue" points="70.8,-19.34 60.21,-19.52 68.6,-25.98 70.8,-19.34"/>
</g>
<!-- Node41 -->
<g id="node8" class="node">
<title>Node41</title>
<g id="a_node8"><a xlink:title=" ">
<polygon fill="white" stroke="#bfbfbf" points="87,-0.5 87,-19.5 132,-19.5 132,-0.5 87,-0.5"/>
<text text-anchor="middle" x="109.5" y="-7.5" font-family="Helvetica,sans-Serif" font-size="10.00">utility</text>
</a>
</g>
</g>
<!-- Node2&#45;&gt;Node41 -->
<g id="edge7" class="edge">
<title>Node2&#45;&gt;Node41</title>
<path fill="none" stroke="midnightblue" d="M183.36,-56.32C169.63,-47.9 148.56,-34.97 132.44,-25.07"/>
<polygon fill="midnightblue" stroke="midnightblue" points="133.96,-21.9 123.6,-19.65 130.3,-27.87 133.96,-21.9"/>
</g>
<!-- Node43 -->
<g id="node10" class="node">
<title>Node43</title>
<g id="a_node10"><a xlink:href="algorithm_8h.html" target="_top" xlink:title=" ">
<polygon fill="white" stroke="red" points="431.5,-56.5 431.5,-75.5 555.5,-75.5 555.5,-56.5 431.5,-56.5"/>
<text text-anchor="middle" x="493.5" y="-63.5" font-family="Helvetica,sans-Serif" font-size="10.00">emlabcpp/algorithm.h</text>
</a>
</g>
</g>
<!-- Node42&#45;&gt;Node43 -->
<g id="edge9" class="edge">
<title>Node42&#45;&gt;Node43</title>
<path fill="none" stroke="midnightblue" d="M493.5,-112.08C493.5,-105.01 493.5,-94.86 493.5,-85.99"/>
<polygon fill="midnightblue" stroke="midnightblue" points="497,-85.75 493.5,-75.75 490,-85.75 497,-85.75"/>
</g>
<!-- Node49 -->
<g id="node11" class="node">
<title>Node49</title>
<g id="a_node11"><a xlink:href="assert_8h.html" target="_top" xlink:title=" ">
<polygon fill="white" stroke="red" points="574,-56.5 574,-75.5 681,-75.5 681,-56.5 574,-56.5"/>
<text text-anchor="middle" x="627.5" y="-63.5" font-family="Helvetica,sans-Serif" font-size="10.00">emlabcpp/assert.h</text>
</a>
</g>
</g>
<!-- Node42&#45;&gt;Node49 -->
<g id="edge12" class="edge">
<title>Node42&#45;&gt;Node49</title>
<path fill="none" stroke="midnightblue" d="M514.73,-112.44C536.88,-103.52 571.82,-89.44 596.94,-79.32"/>
<polygon fill="midnightblue" stroke="midnightblue" points="598.4,-82.5 606.37,-75.52 595.78,-76.01 598.4,-82.5"/>
</g>
<!-- Node51 -->
<g id="node12" class="node">
<title>Node51</title>
<g id="a_node12"><a xlink:href="serializer_8h.html" target="_top" xlink:title=" ">
<polygon fill="white" stroke="red" points="699.5,-56.5 699.5,-75.5 863.5,-75.5 863.5,-56.5 699.5,-56.5"/>
<text text-anchor="middle" x="781.5" y="-63.5" font-family="Helvetica,sans-Serif" font-size="10.00">emlabcpp/protocol/serializer.h</text>
</a>
</g>
</g>
<!-- Node42&#45;&gt;Node51 -->
<g id="edge13" class="edge">
<title>Node42&#45;&gt;Node51</title>
<path fill="none" stroke="midnightblue" d="M539.13,-112.44C589.8,-102.94 671.57,-87.61 725.93,-77.42"/>
<polygon fill="midnightblue" stroke="midnightblue" points="726.9,-80.8 736.08,-75.52 725.61,-73.92 726.9,-80.8"/>
</g>
<!-- Node59 -->
<g id="node13" class="node">
<title>Node59</title>
<g id="a_node13"><a xlink:href="traits_8h.html" target="_top" xlink:title=" ">
<polygon fill="white" stroke="red" points="268,-56.5 268,-75.5 413,-75.5 413,-56.5 268,-56.5"/>
<text text-anchor="middle" x="340.5" y="-63.5" font-family="Helvetica,sans-Serif" font-size="10.00">emlabcpp/protocol/traits.h</text>
</a>
</g>
</g>
<!-- Node42&#45;&gt;Node59 -->
<g id="edge14" class="edge">
<title>Node42&#45;&gt;Node59</title>
<path fill="none" stroke="midnightblue" d="M469.26,-112.44C443.63,-103.4 403.01,-89.06 374.26,-78.92"/>
<polygon fill="midnightblue" stroke="midnightblue" points="375.22,-75.54 364.63,-75.52 372.89,-82.15 375.22,-75.54"/>
</g>
<!-- Node43&#45;&gt;Node21 -->
<g id="edge10" class="edge">
<title>Node43&#45;&gt;Node21</title>
<path fill="none" stroke="midnightblue" d="M493.5,-56.08C493.5,-49.01 493.5,-38.86 493.5,-29.99"/>
<polygon fill="midnightblue" stroke="midnightblue" points="497,-29.75 493.5,-19.75 490,-29.75 497,-29.75"/>
</g>
<!-- Node43&#45;&gt;Node9 -->
<g id="edge11" class="edge">
<title>Node43&#45;&gt;Node9</title>
<path fill="none" stroke="midnightblue" d="M478.88,-56.32C464.55,-47.82 442.49,-34.73 425.75,-24.8"/>
<polygon fill="midnightblue" stroke="midnightblue" points="427.47,-21.75 417.08,-19.65 423.9,-27.77 427.47,-21.75"/>
</g>
<!-- Node59&#45;&gt;Node3 -->
<g id="edge15" class="edge">
<title>Node59&#45;&gt;Node3</title>
<path fill="none" stroke="midnightblue" d="M321.33,-56.44C301.59,-47.64 270.61,-33.81 248.01,-23.72"/>
<polygon fill="midnightblue" stroke="midnightblue" points="249.14,-20.4 238.58,-19.52 246.29,-26.79 249.14,-20.4"/>
</g>
<!-- Node59&#45;&gt;Node21 -->
<g id="edge16" class="edge">
<title>Node59&#45;&gt;Node21</title>
<path fill="none" stroke="midnightblue" d="M364.74,-56.44C390.37,-47.4 430.99,-33.06 459.74,-22.92"/>
<polygon fill="midnightblue" stroke="midnightblue" points="461.11,-26.15 469.37,-19.52 458.78,-19.54 461.11,-26.15"/>
</g>
<!-- Node59&#45;&gt;Node35 -->
<g id="edge17" class="edge">
<title>Node59&#45;&gt;Node35</title>
<path fill="none" stroke="midnightblue" d="M339.67,-56.08C339.02,-49.01 338.08,-38.86 337.26,-29.99"/>
<polygon fill="midnightblue" stroke="midnightblue" points="340.72,-29.39 336.31,-19.75 333.75,-30.03 340.72,-29.39"/>
</g>
</g>
</svg>
