<?xml version="1.0" encoding="UTF-8" standalone="no"?>
<!DOCTYPE svg PUBLIC "-//W3C//DTD SVG 1.1//EN"
 "http://www.w3.org/Graphics/SVG/1.1/DTD/svg11.dtd">
<!-- Generated by graphviz version 2.43.0 (0)
 -->
<!-- Title: include/emlabcpp/protocol/register_map.h Pages: 1 -->
<svg width="1320pt" height="397pt"
 viewBox="0.00 0.00 1319.81 397.00" xmlns="http://www.w3.org/2000/svg" xmlns:xlink="http://www.w3.org/1999/xlink">
<g id="graph0" class="graph" transform="scale(1 1) rotate(0) translate(4 393)">
<title>include/emlabcpp/protocol/register_map.h</title>
<polygon fill="white" stroke="transparent" points="-4,4 -4,-393 1315.81,-393 1315.81,4 -4,4"/>
<!-- Node1 -->
<g id="node1" class="node">
<title>Node1</title>
<g id="a_node1"><a xlink:title=" ">
<polygon fill="#bfbfbf" stroke="black" points="545.81,-358.5 545.81,-388.5 691.81,-388.5 691.81,-358.5 545.81,-358.5"/>
<text text-anchor="start" x="553.81" y="-376.5" font-family="Helvetica,sans-Serif" font-size="10.00">include/emlabcpp/protocol</text>
<text text-anchor="middle" x="618.81" y="-365.5" font-family="Helvetica,sans-Serif" font-size="10.00">/register_map.h</text>
</a>
</g>
</g>
<!-- Node2 -->
<g id="node2" class="node">
<title>Node2</title>
<g id="a_node2"><a xlink:href="algorithm_8h.html" target="_top" xlink:title=" ">
<polygon fill="white" stroke="black" points="247.81,-246.5 247.81,-265.5 371.81,-265.5 371.81,-246.5 247.81,-246.5"/>
<text text-anchor="middle" x="309.81" y="-253.5" font-family="Helvetica,sans-Serif" font-size="10.00">emlabcpp/algorithm.h</text>
</a>
</g>
</g>
<!-- Node1&#45;&gt;Node2 -->
<g id="edge1" class="edge">
<title>Node1&#45;&gt;Node2</title>
<path fill="none" stroke="midnightblue" d="M572.34,-358.49C541.36,-348.87 499.87,-335.46 463.81,-322 419.16,-305.34 368.42,-283.3 337.78,-269.65"/>
<polygon fill="midnightblue" stroke="midnightblue" points="339.13,-266.42 328.57,-265.52 336.27,-272.8 339.13,-266.42"/>
</g>
<!-- Node20 -->
<g id="node7" class="node">
<title>Node20</title>
<g id="a_node7"><a xlink:href="pretty__printer_8h.html" target="_top" xlink:title=" ">
<polygon fill="white" stroke="red" points="558.31,-123.5 558.31,-153.5 691.31,-153.5 691.31,-123.5 558.31,-123.5"/>
<text text-anchor="start" x="566.31" y="-141.5" font-family="Helvetica,sans-Serif" font-size="10.00">emlabcpp/experimental</text>
<text text-anchor="middle" x="624.81" y="-130.5" font-family="Helvetica,sans-Serif" font-size="10.00">/pretty_printer.h</text>
</a>
</g>
</g>
<!-- Node1&#45;&gt;Node20 -->
<g id="edge25" class="edge">
<title>Node1&#45;&gt;Node20</title>
<path fill="none" stroke="midnightblue" d="M598.03,-358.2C568.58,-336.01 519.94,-291.09 535.81,-246 548.07,-211.18 577.52,-179.9 599.21,-160.39"/>
<polygon fill="midnightblue" stroke="midnightblue" points="601.57,-162.97 606.8,-153.75 596.96,-157.7 601.57,-162.97"/>
</g>
<!-- Node42 -->
<g id="node17" class="node">
<title>Node42</title>
<g id="a_node17"><a xlink:href="protocol_2base_8h.html" target="_top" xlink:title=" ">
<polygon fill="white" stroke="black" points="1010.31,-246.5 1010.31,-265.5 1153.31,-265.5 1153.31,-246.5 1010.31,-246.5"/>
<text text-anchor="middle" x="1081.81" y="-253.5" font-family="Helvetica,sans-Serif" font-size="10.00">emlabcpp/protocol/base.h</text>
</a>
</g>
</g>
<!-- Node1&#45;&gt;Node42 -->
<g id="edge26" class="edge">
<title>Node1&#45;&gt;Node42</title>
<path fill="none" stroke="midnightblue" d="M691.92,-361.27C745.68,-352.38 820.3,-338.69 884.81,-322 943.7,-306.76 1010.64,-283.34 1049.37,-269.16"/>
<polygon fill="midnightblue" stroke="midnightblue" points="1050.88,-272.34 1059.05,-265.59 1048.46,-265.77 1050.88,-272.34"/>
</g>
<!-- Node48 -->
<g id="node21" class="node">
<title>Node48</title>
<g id="a_node21"><a xlink:href="traits_8h.html" target="_top" xlink:title=" ">
<polygon fill="white" stroke="black" points="730.31,-302.5 730.31,-321.5 875.31,-321.5 875.31,-302.5 730.31,-302.5"/>
<text text-anchor="middle" x="802.81" y="-309.5" font-family="Helvetica,sans-Serif" font-size="10.00">emlabcpp/protocol/traits.h</text>
</a>
</g>
</g>
<!-- Node1&#45;&gt;Node48 -->
<g id="edge34" class="edge">
<title>Node1&#45;&gt;Node48</title>
<path fill="none" stroke="midnightblue" d="M662.41,-358.4C694.21,-348.12 736.78,-334.35 766.68,-324.68"/>
<polygon fill="midnightblue" stroke="midnightblue" points="767.87,-327.98 776.3,-321.57 765.71,-321.32 767.87,-327.98"/>
</g>
<!-- Node3 -->
<g id="node3" class="node">
<title>Node3</title>
<g id="a_node3"><a xlink:href="impl_8h.html" target="_top" xlink:title=" ">
<polygon fill="white" stroke="black" points="166.31,-56.5 166.31,-86.5 281.31,-86.5 281.31,-56.5 166.31,-56.5"/>
<text text-anchor="start" x="174.31" y="-74.5" font-family="Helvetica,sans-Serif" font-size="10.00">emlabcpp/algorithm</text>
<text text-anchor="middle" x="223.81" y="-63.5" font-family="Helvetica,sans-Serif" font-size="10.00">/impl.h</text>
</a>
</g>
</g>
<!-- Node2&#45;&gt;Node3 -->
<g id="edge2" class="edge">
<title>Node2&#45;&gt;Node3</title>
<path fill="none" stroke="midnightblue" d="M274.8,-246.45C255.88,-239.84 234.13,-228.59 222.81,-210 201.59,-175.13 209.16,-125.49 216.53,-96.38"/>
<polygon fill="midnightblue" stroke="midnightblue" points="219.93,-97.21 219.19,-86.64 213.18,-95.37 219.93,-97.21"/>
</g>
<!-- Node4 -->
<g id="node4" class="node">
<title>Node4</title>
<g id="a_node4"><a xlink:href="types_8h.html" target="_top" xlink:title=" ">
<polygon fill="white" stroke="red" points="475.81,-0.5 475.81,-19.5 579.81,-19.5 579.81,-0.5 475.81,-0.5"/>
<text text-anchor="middle" x="527.81" y="-7.5" font-family="Helvetica,sans-Serif" font-size="10.00">emlabcpp/types.h</text>
</a>
</g>
</g>
<!-- Node2&#45;&gt;Node4 -->
<g id="edge20" class="edge">
<title>Node2&#45;&gt;Node4</title>
<path fill="none" stroke="midnightblue" d="M307.53,-246.49C300,-216.21 279.05,-112.53 328.81,-56 346.69,-35.69 414.13,-23.59 465.59,-17.14"/>
<polygon fill="midnightblue" stroke="midnightblue" points="466.15,-20.6 475.65,-15.92 465.31,-13.65 466.15,-20.6"/>
</g>
<!-- Node10 -->
<g id="node5" class="node">
<title>Node10</title>
<g id="a_node5"><a xlink:title=" ">
<polygon fill="white" stroke="#bfbfbf" points="132.31,-0.5 132.31,-19.5 173.31,-19.5 173.31,-0.5 132.31,-0.5"/>
<text text-anchor="middle" x="152.81" y="-7.5" font-family="Helvetica,sans-Serif" font-size="10.00">tuple</text>
</a>
</g>
</g>
<!-- Node2&#45;&gt;Node10 -->
<g id="edge24" class="edge">
<title>Node2&#45;&gt;Node10</title>
<path fill="none" stroke="midnightblue" d="M268.51,-246.49C199.34,-229.74 62.11,-185.22 5.81,-87 -1.04,-75.05 -2.38,-67.08 5.81,-56 32.49,-19.93 87.52,-11.83 122.16,-10.51"/>
<polygon fill="midnightblue" stroke="midnightblue" points="122.28,-14.01 132.2,-10.3 122.13,-7.01 122.28,-14.01"/>
</g>
<!-- Node17 -->
<g id="node6" class="node">
<title>Node17</title>
<g id="a_node6"><a xlink:href="bounded_8h.html" target="_top" xlink:title=" ">
<polygon fill="white" stroke="red" points="660.31,-190.5 660.31,-209.5 779.31,-209.5 779.31,-190.5 660.31,-190.5"/>
<text text-anchor="middle" x="719.81" y="-197.5" font-family="Helvetica,sans-Serif" font-size="10.00">emlabcpp/bounded.h</text>
</a>
</g>
</g>
<!-- Node2&#45;&gt;Node17 -->
<g id="edge5" class="edge">
<title>Node2&#45;&gt;Node17</title>
<path fill="none" stroke="midnightblue" d="M371.91,-246.84C438.29,-238.12 546.94,-223.84 650.14,-210.22"/>
<polygon fill="midnightblue" stroke="midnightblue" points="650.65,-213.68 660.11,-208.9 649.73,-206.74 650.65,-213.68"/>
</g>
<!-- Node25 -->
<g id="node9" class="node">
<title>Node25</title>
<g id="a_node9"><a xlink:href="min__max_8h.html" target="_top" xlink:title=" ">
<polygon fill="white" stroke="red" points="337.81,-62 337.81,-81 459.81,-81 459.81,-62 337.81,-62"/>
<text text-anchor="middle" x="398.81" y="-69" font-family="Helvetica,sans-Serif" font-size="10.00">emlabcpp/min_max.h</text>
</a>
</g>
</g>
<!-- Node2&#45;&gt;Node25 -->
<g id="edge19" class="edge">
<title>Node2&#45;&gt;Node25</title>
<path fill="none" stroke="midnightblue" d="M278.53,-246.41C248.03,-236.27 208.23,-217.27 222.81,-190 252.38,-134.7 320.77,-100.9 363.06,-84.52"/>
<polygon fill="midnightblue" stroke="midnightblue" points="364.3,-87.79 372.44,-81.01 361.85,-81.24 364.3,-87.79"/>
</g>
<!-- Node30 -->
<g id="node10" class="node">
<title>Node30</title>
<g id="a_node10"><a xlink:href="view_8h.html" target="_top" xlink:title=" ">
<polygon fill="white" stroke="red" points="478.31,-62 478.31,-81 577.31,-81 577.31,-62 478.31,-62"/>
<text text-anchor="middle" x="527.81" y="-69" font-family="Helvetica,sans-Serif" font-size="10.00">emlabcpp/view.h</text>
</a>
</g>
</g>
<!-- Node2&#45;&gt;Node30 -->
<g id="edge21" class="edge">
<title>Node2&#45;&gt;Node30</title>
<path fill="none" stroke="midnightblue" d="M312.54,-246.21C320.96,-219.61 347.16,-140.72 366.81,-123 375.86,-114.84 441.18,-95.95 485.79,-83.73"/>
<polygon fill="midnightblue" stroke="midnightblue" points="486.79,-87.08 495.52,-81.08 484.95,-80.33 486.79,-87.08"/>
</g>
<!-- Node40 -->
<g id="node15" class="node">
<title>Node40</title>
<g id="a_node15"><a xlink:title=" ">
<polygon fill="white" stroke="#bfbfbf" points="595.31,-190.5 595.31,-209.5 642.31,-209.5 642.31,-190.5 595.31,-190.5"/>
<text text-anchor="middle" x="618.81" y="-197.5" font-family="Helvetica,sans-Serif" font-size="10.00">cmath</text>
</a>
</g>
</g>
<!-- Node2&#45;&gt;Node40 -->
<g id="edge22" class="edge">
<title>Node2&#45;&gt;Node40</title>
<path fill="none" stroke="midnightblue" d="M358.77,-246.44C422.08,-235.38 530.68,-216.4 585.32,-206.85"/>
<polygon fill="midnightblue" stroke="midnightblue" points="585.94,-210.3 595.19,-205.13 584.74,-203.4 585.94,-210.3"/>
</g>
<!-- Node41 -->
<g id="node16" class="node">
<title>Node41</title>
<g id="a_node16"><a xlink:title=" ">
<polygon fill="white" stroke="#bfbfbf" points="232.31,-190.5 232.31,-209.5 281.31,-209.5 281.31,-190.5 232.31,-190.5"/>
<text text-anchor="middle" x="256.81" y="-197.5" font-family="Helvetica,sans-Serif" font-size="10.00">cstdlib</text>
</a>
</g>
</g>
<!-- Node2&#45;&gt;Node41 -->
<g id="edge23" class="edge">
<title>Node2&#45;&gt;Node41</title>
<path fill="none" stroke="midnightblue" d="M301.06,-246.08C293.34,-238.22 281.9,-226.57 272.59,-217.08"/>
<polygon fill="midnightblue" stroke="midnightblue" points="274.9,-214.44 265.4,-209.75 269.91,-219.34 274.9,-214.44"/>
</g>
<!-- Node3&#45;&gt;Node4 -->
<g id="edge3" class="edge">
<title>Node3&#45;&gt;Node4</title>
<path fill="none" stroke="midnightblue" d="M281.57,-58.83C286.39,-57.87 291.18,-56.91 295.81,-56 356.56,-43.99 426.31,-30.5 473.34,-21.45"/>
<polygon fill="midnightblue" stroke="midnightblue" points="474.16,-24.86 483.32,-19.53 472.83,-17.98 474.16,-24.86"/>
</g>
<!-- Node3&#45;&gt;Node10 -->
<g id="edge4" class="edge">
<title>Node3&#45;&gt;Node10</title>
<path fill="none" stroke="midnightblue" d="M206.98,-56.4C196.13,-47.31 182.03,-35.49 170.94,-26.19"/>
<polygon fill="midnightblue" stroke="midnightblue" points="173.05,-23.4 163.14,-19.66 168.56,-28.76 173.05,-23.4"/>
</g>
<!-- Node17&#45;&gt;Node20 -->
<g id="edge6" class="edge">
<title>Node17&#45;&gt;Node20</title>
<path fill="none" stroke="midnightblue" d="M706.2,-190.48C693.09,-182.27 672.8,-169.56 655.76,-158.88"/>
<polygon fill="midnightblue" stroke="midnightblue" points="657.53,-155.86 647.2,-153.52 653.82,-161.8 657.53,-155.86"/>
</g>
<!-- Node37 -->
<g id="node12" class="node">
<title>Node37</title>
<g id="a_node12"><a xlink:title=" ">
<polygon fill="white" stroke="#bfbfbf" points="691.81,-62 691.81,-81 747.81,-81 747.81,-62 691.81,-62"/>
<text text-anchor="middle" x="719.81" y="-69" font-family="Helvetica,sans-Serif" font-size="10.00">optional</text>
</a>
</g>
</g>
<!-- Node17&#45;&gt;Node37 -->
<g id="edge17" class="edge">
<title>Node17&#45;&gt;Node37</title>
<path fill="none" stroke="midnightblue" d="M719.81,-190.31C719.81,-169.99 719.81,-119.05 719.81,-91.28"/>
<polygon fill="midnightblue" stroke="midnightblue" points="723.31,-91.26 719.81,-81.26 716.31,-91.26 723.31,-91.26"/>
</g>
<!-- Node11 -->
<g id="node14" class="node">
<title>Node11</title>
<g id="a_node14"><a xlink:title=" ">
<polygon fill="white" stroke="#bfbfbf" points="748.31,-129 748.31,-148 817.31,-148 817.31,-129 748.31,-129"/>
<text text-anchor="middle" x="782.81" y="-136" font-family="Helvetica,sans-Serif" font-size="10.00">type_traits</text>
</a>
</g>
</g>
<!-- Node17&#45;&gt;Node11 -->
<g id="edge18" class="edge">
<title>Node17&#45;&gt;Node11</title>
<path fill="none" stroke="midnightblue" d="M728.84,-190.48C738.57,-181.28 754.27,-166.46 766.23,-155.16"/>
<polygon fill="midnightblue" stroke="midnightblue" points="768.93,-157.42 773.8,-148.01 764.13,-152.33 768.93,-157.42"/>
</g>
<!-- Node20&#45;&gt;Node4 -->
<g id="edge10" class="edge">
<title>Node20&#45;&gt;Node4</title>
<path fill="none" stroke="midnightblue" d="M627.92,-123.48C630.95,-106.1 633.35,-76.28 619.81,-56 609.41,-40.42 592,-30.05 575.1,-23.23"/>
<polygon fill="midnightblue" stroke="midnightblue" points="575.86,-19.78 565.27,-19.61 573.44,-26.35 575.86,-19.78"/>
</g>
<!-- Node20&#45;&gt;Node10 -->
<g id="edge15" class="edge">
<title>Node20&#45;&gt;Node10</title>
<path fill="none" stroke="midnightblue" d="M622.55,-123.27C618.76,-104.48 609.19,-71.94 586.81,-56 522.03,-9.86 271.5,-9.14 183.55,-10.37"/>
<polygon fill="midnightblue" stroke="midnightblue" points="183.36,-6.87 173.42,-10.53 183.47,-13.87 183.36,-6.87"/>
</g>
<!-- Node22 -->
<g id="node8" class="node">
<title>Node22</title>
<g id="a_node8"><a xlink:href="decompose_8h.html" target="_top" xlink:title=" ">
<polygon fill="white" stroke="red" points="15.31,-56.5 15.31,-86.5 148.31,-86.5 148.31,-56.5 15.31,-56.5"/>
<text text-anchor="start" x="23.31" y="-74.5" font-family="Helvetica,sans-Serif" font-size="10.00">emlabcpp/experimental</text>
<text text-anchor="middle" x="81.81" y="-63.5" font-family="Helvetica,sans-Serif" font-size="10.00">/decompose.h</text>
</a>
</g>
</g>
<!-- Node20&#45;&gt;Node22 -->
<g id="edge7" class="edge">
<title>Node20&#45;&gt;Node22</title>
<path fill="none" stroke="midnightblue" d="M558.14,-124.4C554.99,-123.9 551.87,-123.43 548.81,-123 378.78,-99.03 331.76,-111.16 158.38,-87.13"/>
<polygon fill="midnightblue" stroke="midnightblue" points="158.8,-83.66 148.41,-85.73 157.82,-90.59 158.8,-83.66"/>
</g>
<!-- Node20&#45;&gt;Node25 -->
<g id="edge9" class="edge">
<title>Node20&#45;&gt;Node25</title>
<path fill="none" stroke="midnightblue" d="M576.05,-123.48C534.83,-111.62 476.55,-94.86 438.23,-83.84"/>
<polygon fill="midnightblue" stroke="midnightblue" points="439.04,-80.43 428.46,-81.03 437.11,-87.16 439.04,-80.43"/>
</g>
<!-- Node20&#45;&gt;Node30 -->
<g id="edge11" class="edge">
<title>Node20&#45;&gt;Node30</title>
<path fill="none" stroke="midnightblue" d="M603.76,-123.4C587.5,-112.5 565.09,-97.48 548.83,-86.58"/>
<polygon fill="midnightblue" stroke="midnightblue" points="550.76,-83.67 540.5,-81.01 546.86,-89.48 550.76,-83.67"/>
</g>
<!-- Node32 -->
<g id="node11" class="node">
<title>Node32</title>
<g id="a_node11"><a xlink:title=" ">
<polygon fill="white" stroke="#bfbfbf" points="1031.81,-62 1031.81,-81 1075.81,-81 1075.81,-62 1031.81,-62"/>
<text text-anchor="middle" x="1053.81" y="-69" font-family="Helvetica,sans-Serif" font-size="10.00">bitset</text>
</a>
</g>
</g>
<!-- Node20&#45;&gt;Node32 -->
<g id="edge13" class="edge">
<title>Node20&#45;&gt;Node32</title>
<path fill="none" stroke="midnightblue" d="M691.37,-127.42C784.94,-113.24 951.75,-87.96 1021.62,-77.38"/>
<polygon fill="midnightblue" stroke="midnightblue" points="1022.23,-80.82 1031.59,-75.87 1021.18,-73.9 1022.23,-80.82"/>
</g>
<!-- Node20&#45;&gt;Node37 -->
<g id="edge14" class="edge">
<title>Node20&#45;&gt;Node37</title>
<path fill="none" stroke="midnightblue" d="M645.42,-123.4C661.21,-112.6 682.9,-97.76 698.78,-86.89"/>
<polygon fill="midnightblue" stroke="midnightblue" points="701.1,-89.54 707.38,-81.01 697.15,-83.77 701.1,-89.54"/>
</g>
<!-- Node15 -->
<g id="node13" class="node">
<title>Node15</title>
<g id="a_node13"><a xlink:title=" ">
<polygon fill="white" stroke="#bfbfbf" points="858.31,-62 858.31,-81 909.31,-81 909.31,-62 858.31,-62"/>
<text text-anchor="middle" x="883.81" y="-69" font-family="Helvetica,sans-Serif" font-size="10.00">variant</text>
</a>
</g>
</g>
<!-- Node20&#45;&gt;Node15 -->
<g id="edge16" class="edge">
<title>Node20&#45;&gt;Node15</title>
<path fill="none" stroke="midnightblue" d="M680.69,-123.48C731.63,-110.69 805.32,-92.2 848.53,-81.35"/>
<polygon fill="midnightblue" stroke="midnightblue" points="849.45,-84.73 858.3,-78.9 847.75,-77.94 849.45,-84.73"/>
</g>
<!-- Node22&#45;&gt;Node10 -->
<g id="edge8" class="edge">
<title>Node22&#45;&gt;Node10</title>
<path fill="none" stroke="midnightblue" d="M98.64,-56.4C109.48,-47.31 123.59,-35.49 134.68,-26.19"/>
<polygon fill="midnightblue" stroke="midnightblue" points="137.06,-28.76 142.48,-19.66 132.57,-23.4 137.06,-28.76"/>
</g>
<!-- Node30&#45;&gt;Node4 -->
<g id="edge12" class="edge">
<title>Node30&#45;&gt;Node4</title>
<path fill="none" stroke="midnightblue" d="M527.81,-61.98C527.81,-53.58 527.81,-40.48 527.81,-29.66"/>
<polygon fill="midnightblue" stroke="midnightblue" points="531.31,-29.51 527.81,-19.51 524.31,-29.51 531.31,-29.51"/>
</g>
<!-- Node42&#45;&gt;Node17 -->
<g id="edge27" class="edge">
<title>Node42&#45;&gt;Node17</title>
<path fill="none" stroke="midnightblue" d="M1024.45,-246.44C959.98,-236.83 855.41,-221.23 787.12,-211.04"/>
<polygon fill="midnightblue" stroke="midnightblue" points="787.31,-207.53 776.9,-209.52 786.28,-214.45 787.31,-207.53"/>
</g>
<!-- Node42&#45;&gt;Node32 -->
<g id="edge30" class="edge">
<title>Node42&#45;&gt;Node32</title>
<path fill="none" stroke="midnightblue" d="M1097.59,-246.47C1110.01,-238.77 1126.41,-226.18 1133.81,-210 1149.88,-174.83 1152.48,-156.86 1133.81,-123 1123.51,-104.31 1103.05,-91.58 1085.41,-83.58"/>
<polygon fill="midnightblue" stroke="midnightblue" points="1086.55,-80.26 1075.97,-79.61 1083.83,-86.72 1086.55,-80.26"/>
</g>
<!-- Node42&#45;&gt;Node15 -->
<g id="edge33" class="edge">
<title>Node42&#45;&gt;Node15</title>
<path fill="none" stroke="midnightblue" d="M1084.56,-246.32C1088.19,-233.17 1092.99,-207.84 1082.81,-190 1047.69,-128.48 966.37,-95.93 919.27,-81.65"/>
<polygon fill="midnightblue" stroke="midnightblue" points="920.07,-78.24 909.49,-78.8 918.11,-84.96 920.07,-78.24"/>
</g>
<!-- Node42&#45;&gt;Node11 -->
<g id="edge32" class="edge">
<title>Node42&#45;&gt;Node11</title>
<path fill="none" stroke="midnightblue" d="M1081.97,-246.36C1081.73,-232.31 1079.07,-204.62 1062.81,-190 1028.84,-159.45 897.74,-146.68 827.63,-141.95"/>
<polygon fill="midnightblue" stroke="midnightblue" points="827.55,-138.44 817.34,-141.28 827.09,-145.42 827.55,-138.44"/>
</g>
<!-- Node43 -->
<g id="node18" class="node">
<title>Node43</title>
<g id="a_node18"><a xlink:href="protocol_2error_8h.html" target="_top" xlink:title=" ">
<polygon fill="white" stroke="red" points="911.81,-190.5 911.81,-209.5 1053.81,-209.5 1053.81,-190.5 911.81,-190.5"/>
<text text-anchor="middle" x="982.81" y="-197.5" font-family="Helvetica,sans-Serif" font-size="10.00">emlabcpp/protocol/error.h</text>
</a>
</g>
</g>
<!-- Node42&#45;&gt;Node43 -->
<g id="edge28" class="edge">
<title>Node42&#45;&gt;Node43</title>
<path fill="none" stroke="midnightblue" d="M1065.9,-246.32C1050.17,-237.74 1025.87,-224.49 1007.6,-214.52"/>
<polygon fill="midnightblue" stroke="midnightblue" points="1009.13,-211.37 998.68,-209.65 1005.78,-217.52 1009.13,-211.37"/>
</g>
<!-- Node47 -->
<g id="node19" class="node">
<title>Node47</title>
<g id="a_node19"><a xlink:title=" ">
<polygon fill="white" stroke="#bfbfbf" points="1186.31,-190.5 1186.31,-209.5 1215.31,-209.5 1215.31,-190.5 1186.31,-190.5"/>
<text text-anchor="middle" x="1200.81" y="-197.5" font-family="Helvetica,sans-Serif" font-size="10.00">bit</text>
</a>
</g>
</g>
<!-- Node42&#45;&gt;Node47 -->
<g id="edge29" class="edge">
<title>Node42&#45;&gt;Node47</title>
<path fill="none" stroke="midnightblue" d="M1100.67,-246.44C1121.33,-237.07 1154.53,-222 1176.98,-211.81"/>
<polygon fill="midnightblue" stroke="midnightblue" points="1178.51,-214.96 1186.17,-207.64 1175.62,-208.59 1178.51,-214.96"/>
</g>
<!-- Node46 -->
<g id="node20" class="node">
<title>Node46</title>
<g id="a_node20"><a xlink:title=" ">
<polygon fill="white" stroke="#bfbfbf" points="1233.81,-190.5 1233.81,-209.5 1283.81,-209.5 1283.81,-190.5 1233.81,-190.5"/>
<text text-anchor="middle" x="1258.81" y="-197.5" font-family="Helvetica,sans-Serif" font-size="10.00">cstring</text>
</a>
</g>
</g>
<!-- Node42&#45;&gt;Node46 -->
<g id="edge31" class="edge">
<title>Node42&#45;&gt;Node46</title>
<path fill="none" stroke="midnightblue" d="M1109.86,-246.44C1140.77,-237.01 1190.55,-221.82 1223.95,-211.63"/>
<polygon fill="midnightblue" stroke="midnightblue" points="1225.21,-214.91 1233.76,-208.64 1223.17,-208.21 1225.21,-214.91"/>
</g>
<!-- Node48&#45;&gt;Node4 -->
<g id="edge45" class="edge">
<title>Node48&#45;&gt;Node4</title>
<path fill="none" stroke="midnightblue" d="M875.47,-310.26C1016.1,-306.85 1311.81,-289.2 1311.81,-201 1311.81,-201 1311.81,-201 1311.81,-137.5 1311.81,-30.31 1189.59,-78.62 1084.81,-56 908.32,-17.89 694.06,-11.41 590.23,-10.71"/>
<polygon fill="midnightblue" stroke="midnightblue" points="589.94,-7.21 579.92,-10.66 589.91,-14.21 589.94,-7.21"/>
</g>
<!-- Node48&#45;&gt;Node22 -->
<g id="edge35" class="edge">
<title>Node48&#45;&gt;Node22</title>
<path fill="none" stroke="midnightblue" d="M730.04,-308.38C587.42,-302.79 281.27,-288.34 238.81,-266 165.47,-227.41 113.97,-138.21 92.7,-95.76"/>
<polygon fill="midnightblue" stroke="midnightblue" points="95.82,-94.18 88.28,-86.74 89.54,-97.26 95.82,-94.18"/>
</g>
<!-- Node48&#45;&gt;Node37 -->
<g id="edge46" class="edge">
<title>Node48&#45;&gt;Node37</title>
<path fill="none" stroke="midnightblue" d="M809.18,-302.23C815.07,-293.53 823.42,-279.57 826.81,-266 842.22,-204.34 860.83,-176.68 826.81,-123 811.8,-99.32 782.38,-86.53 758.18,-79.76"/>
<polygon fill="midnightblue" stroke="midnightblue" points="758.74,-76.29 748.18,-77.21 757.01,-83.07 758.74,-76.29"/>
</g>
<!-- Node48&#45;&gt;Node15 -->
<g id="edge47" class="edge">
<title>Node48&#45;&gt;Node15</title>
<path fill="none" stroke="midnightblue" d="M819.79,-302.41C833.03,-294.76 850.65,-282.26 859.81,-266 891.89,-209.05 889.23,-127.92 885.98,-91.49"/>
<polygon fill="midnightblue" stroke="midnightblue" points="889.44,-90.92 884.95,-81.32 882.48,-91.62 889.44,-90.92"/>
</g>
<!-- Node48&#45;&gt;Node42 -->
<g id="edge36" class="edge">
<title>Node48&#45;&gt;Node42</title>
<path fill="none" stroke="midnightblue" d="M847.02,-302.44C896.1,-292.94 975.32,-277.61 1027.97,-267.42"/>
<polygon fill="midnightblue" stroke="midnightblue" points="1028.66,-270.85 1037.81,-265.52 1027.33,-263.98 1028.66,-270.85"/>
</g>
<!-- Node48&#45;&gt;Node43 -->
<g id="edge37" class="edge">
<title>Node48&#45;&gt;Node43</title>
<path fill="none" stroke="midnightblue" d="M824.23,-302.39C843.93,-294.12 873.66,-280.73 897.81,-266 922.53,-250.93 948.65,-230.12 965.31,-216.14"/>
<polygon fill="midnightblue" stroke="midnightblue" points="967.74,-218.67 973.1,-209.52 963.21,-213.33 967.74,-218.67"/>
</g>
<!-- Node49 -->
<g id="node22" class="node">
<title>Node49</title>
<g id="a_node22"><a xlink:href="message_8h.html" target="_top" xlink:title=" ">
<polygon fill="white" stroke="red" points="375.81,-129 375.81,-148 539.81,-148 539.81,-129 375.81,-129"/>
<text text-anchor="middle" x="457.81" y="-136" font-family="Helvetica,sans-Serif" font-size="10.00">emlabcpp/protocol/message.h</text>
</a>
</g>
</g>
<!-- Node48&#45;&gt;Node49 -->
<g id="edge38" class="edge">
<title>Node48&#45;&gt;Node49</title>
<path fill="none" stroke="midnightblue" d="M730.21,-305.5C662.3,-299.18 566.81,-286.87 535.81,-266 496.51,-239.54 473.46,-185.95 463.56,-157.77"/>
<polygon fill="midnightblue" stroke="midnightblue" points="466.79,-156.39 460.31,-148.01 460.15,-158.61 466.79,-156.39"/>
</g>
<!-- Node50 -->
<g id="node23" class="node">
<title>Node50</title>
<g id="a_node23"><a xlink:href="quantity_8h.html" target="_top" xlink:title=" ">
<polygon fill="white" stroke="red" points="701.81,-246.5 701.81,-265.5 817.81,-265.5 817.81,-246.5 701.81,-246.5"/>
<text text-anchor="middle" x="759.81" y="-253.5" font-family="Helvetica,sans-Serif" font-size="10.00">emlabcpp/quantity.h</text>
</a>
</g>
</g>
<!-- Node48&#45;&gt;Node50 -->
<g id="edge40" class="edge">
<title>Node48&#45;&gt;Node50</title>
<path fill="none" stroke="midnightblue" d="M795.71,-302.08C789.57,-294.38 780.54,-283.03 773.07,-273.65"/>
<polygon fill="midnightblue" stroke="midnightblue" points="775.75,-271.39 766.78,-265.75 770.27,-275.75 775.75,-271.39"/>
</g>
<!-- Node53 -->
<g id="node24" class="node">
<title>Node53</title>
<g id="a_node24"><a xlink:href="static__vector_8h.html" target="_top" xlink:title=" ">
<polygon fill="white" stroke="red" points="544.31,-246.5 544.31,-265.5 683.31,-265.5 683.31,-246.5 544.31,-246.5"/>
<text text-anchor="middle" x="613.81" y="-253.5" font-family="Helvetica,sans-Serif" font-size="10.00">emlabcpp/static_vector.h</text>
</a>
</g>
</g>
<!-- Node48&#45;&gt;Node53 -->
<g id="edge43" class="edge">
<title>Node48&#45;&gt;Node53</title>
<path fill="none" stroke="midnightblue" d="M772.86,-302.44C740.65,-293.24 689.28,-278.56 653.67,-268.39"/>
<polygon fill="midnightblue" stroke="midnightblue" points="654.19,-264.9 643.62,-265.52 652.27,-271.63 654.19,-264.9"/>
</g>
<!-- Node49&#45;&gt;Node30 -->
<g id="edge39" class="edge">
<title>Node49&#45;&gt;Node30</title>
<path fill="none" stroke="midnightblue" d="M467.25,-128.73C478.48,-118.31 497.43,-100.71 511.15,-87.97"/>
<polygon fill="midnightblue" stroke="midnightblue" points="513.57,-90.5 518.52,-81.13 508.81,-85.37 513.57,-90.5"/>
</g>
<!-- Node50&#45;&gt;Node11 -->
<g id="edge42" class="edge">
<title>Node50&#45;&gt;Node11</title>
<path fill="none" stroke="midnightblue" d="M767.48,-246.46C774.59,-237.93 784.66,-224.09 788.81,-210 793.84,-192.91 791.24,-172.56 788.05,-158.12"/>
<polygon fill="midnightblue" stroke="midnightblue" points="791.44,-157.24 785.61,-148.39 784.65,-158.94 791.44,-157.24"/>
</g>
<!-- Node50&#45;&gt;Node40 -->
<g id="edge41" class="edge">
<title>Node50&#45;&gt;Node40</title>
<path fill="none" stroke="midnightblue" d="M737.47,-246.44C714.06,-237.48 677.07,-223.31 650.62,-213.18"/>
<polygon fill="midnightblue" stroke="midnightblue" points="651.64,-209.82 641.05,-209.52 649.13,-216.36 651.64,-209.82"/>
</g>
<!-- Node53&#45;&gt;Node20 -->
<g id="edge44" class="edge">
<title>Node53&#45;&gt;Node20</title>
<path fill="none" stroke="midnightblue" d="M605.9,-246.32C595.66,-234 579.92,-210.63 586.81,-190 590.25,-179.7 596.72,-169.81 603.35,-161.56"/>
<polygon fill="midnightblue" stroke="midnightblue" points="606.07,-163.76 609.93,-153.9 600.76,-159.2 606.07,-163.76"/>
</g>
</g>
</svg>
