<?xml version="1.0" encoding="UTF-8" standalone="no"?>
<!DOCTYPE svg PUBLIC "-//W3C//DTD SVG 1.1//EN"
 "http://www.w3.org/Graphics/SVG/1.1/DTD/svg11.dtd">
<!-- Generated by graphviz version 2.43.0 (0)
 -->
<!-- Title: include/emlabcpp/protocol/register_map.h Pages: 1 -->
<svg width="179pt" height="374pt"
 viewBox="0.00 0.00 179.00 374.00" xmlns="http://www.w3.org/2000/svg" xmlns:xlink="http://www.w3.org/1999/xlink">
<g id="graph0" class="graph" transform="scale(1 1) rotate(0) translate(4 370)">
<title>include/emlabcpp/protocol/register_map.h</title>
<polygon fill="white" stroke="transparent" points="-4,4 -4,-370 175,-370 175,4 -4,4"/>
<!-- Node1 -->
<g id="node1" class="node">
<title>Node1</title>
<g id="a_node1"><a xlink:title=" ">
<polygon fill="#bfbfbf" stroke="black" points="12.5,-335.5 12.5,-365.5 158.5,-365.5 158.5,-335.5 12.5,-335.5"/>
<text text-anchor="start" x="20.5" y="-353.5" font-family="Helvetica,sans-Serif" font-size="10.00">include/emlabcpp/protocol</text>
<text text-anchor="middle" x="85.5" y="-342.5" font-family="Helvetica,sans-Serif" font-size="10.00">/register_map.h</text>
</a>
</g>
</g>
<!-- Node2 -->
<g id="node2" class="node">
<title>Node2</title>
<g id="a_node2"><a xlink:href="streams_8h.html" target="_top" xlink:title=" ">
<polygon fill="white" stroke="black" points="12.5,-268.5 12.5,-298.5 158.5,-298.5 158.5,-268.5 12.5,-268.5"/>
<text text-anchor="start" x="20.5" y="-286.5" font-family="Helvetica,sans-Serif" font-size="10.00">include/emlabcpp/protocol</text>
<text text-anchor="middle" x="85.5" y="-275.5" font-family="Helvetica,sans-Serif" font-size="10.00">/streams.h</text>
</a>
</g>
</g>
<!-- Node1&#45;&gt;Node2 -->
<g id="edge1" class="edge">
<title>Node1&#45;&gt;Node2</title>
<path fill="none" stroke="midnightblue" d="M85.5,-325.11C85.5,-316.15 85.5,-306.32 85.5,-298.58"/>
<polygon fill="midnightblue" stroke="midnightblue" points="82,-325.4 85.5,-335.4 89,-325.4 82,-325.4"/>
</g>
<!-- Node3 -->
<g id="node3" class="node">
<title>Node3</title>
<g id="a_node3"><a xlink:href="experimental_2testing_2error_8h.html" target="_top" xlink:title=" ">
<polygon fill="white" stroke="black" points="0,-201.5 0,-231.5 171,-231.5 171,-201.5 0,-201.5"/>
<text text-anchor="start" x="8" y="-219.5" font-family="Helvetica,sans-Serif" font-size="10.00">include/emlabcpp/experimental</text>
<text text-anchor="middle" x="85.5" y="-208.5" font-family="Helvetica,sans-Serif" font-size="10.00">/testing/error.h</text>
</a>
</g>
</g>
<!-- Node2&#45;&gt;Node3 -->
<g id="edge2" class="edge">
<title>Node2&#45;&gt;Node3</title>
<path fill="none" stroke="midnightblue" d="M85.5,-258.11C85.5,-249.15 85.5,-239.32 85.5,-231.58"/>
<polygon fill="midnightblue" stroke="midnightblue" points="82,-258.4 85.5,-268.4 89,-258.4 82,-258.4"/>
</g>
<!-- Node4 -->
<g id="node4" class="node">
<title>Node4</title>
<g id="a_node4"><a xlink:href="controller__interface_8h.html" target="_top" xlink:title=" ">
<polygon fill="white" stroke="black" points="0,-134.5 0,-164.5 171,-164.5 171,-134.5 0,-134.5"/>
<text text-anchor="start" x="8" y="-152.5" font-family="Helvetica,sans-Serif" font-size="10.00">include/emlabcpp/experimental</text>
<text text-anchor="middle" x="85.5" y="-141.5" font-family="Helvetica,sans-Serif" font-size="10.00">/testing/controller_interface.h</text>
</a>
</g>
</g>
<!-- Node3&#45;&gt;Node4 -->
<g id="edge3" class="edge">
<title>Node3&#45;&gt;Node4</title>
<path fill="none" stroke="midnightblue" d="M85.5,-191.11C85.5,-182.15 85.5,-172.32 85.5,-164.58"/>
<polygon fill="midnightblue" stroke="midnightblue" points="82,-191.4 85.5,-201.4 89,-191.4 82,-191.4"/>
</g>
<!-- Node5 -->
<g id="node5" class="node">
<title>Node5</title>
<g id="a_node5"><a xlink:href="controller_8h.html" target="_top" xlink:title=" ">
<polygon fill="white" stroke="black" points="0,-67.5 0,-97.5 171,-97.5 171,-67.5 0,-67.5"/>
<text text-anchor="start" x="8" y="-85.5" font-family="Helvetica,sans-Serif" font-size="10.00">include/emlabcpp/experimental</text>
<text text-anchor="middle" x="85.5" y="-74.5" font-family="Helvetica,sans-Serif" font-size="10.00">/testing/controller.h</text>
</a>
</g>
</g>
<!-- Node4&#45;&gt;Node5 -->
<g id="edge4" class="edge">
<title>Node4&#45;&gt;Node5</title>
<path fill="none" stroke="midnightblue" d="M85.5,-124.11C85.5,-115.15 85.5,-105.32 85.5,-97.58"/>
<polygon fill="midnightblue" stroke="midnightblue" points="82,-124.4 85.5,-134.4 89,-124.4 82,-124.4"/>
</g>
<!-- Node6 -->
<g id="node6" class="node">
<title>Node6</title>
<g id="a_node6"><a xlink:href="gtest_8h.html" target="_top" xlink:title=" ">
<polygon fill="white" stroke="black" points="0,-0.5 0,-30.5 171,-30.5 171,-0.5 0,-0.5"/>
<text text-anchor="start" x="8" y="-18.5" font-family="Helvetica,sans-Serif" font-size="10.00">include/emlabcpp/experimental</text>
<text text-anchor="middle" x="85.5" y="-7.5" font-family="Helvetica,sans-Serif" font-size="10.00">/testing/gtest.h</text>
</a>
</g>
</g>
<!-- Node5&#45;&gt;Node6 -->
<g id="edge5" class="edge">
<title>Node5&#45;&gt;Node6</title>
<path fill="none" stroke="midnightblue" d="M85.5,-57.11C85.5,-48.15 85.5,-38.32 85.5,-30.58"/>
<polygon fill="midnightblue" stroke="midnightblue" points="82,-57.4 85.5,-67.4 89,-57.4 82,-57.4"/>
</g>
</g>
</svg>
