<?xml version="1.0" encoding="UTF-8" standalone="no"?>
<!DOCTYPE svg PUBLIC "-//W3C//DTD SVG 1.1//EN"
 "http://www.w3.org/Graphics/SVG/1.1/DTD/svg11.dtd">
<!-- Generated by graphviz version 2.43.0 (0)
 -->
<!-- Title: include/emlabcpp/protocol/register_map.h Pages: 1 -->
<svg width="1460pt" height="263pt"
 viewBox="0.00 0.00 1460.47 263.00" xmlns="http://www.w3.org/2000/svg" xmlns:xlink="http://www.w3.org/1999/xlink">
<g id="graph0" class="graph" transform="scale(1 1) rotate(0) translate(4 259)">
<title>include/emlabcpp/protocol/register_map.h</title>
<polygon fill="white" stroke="transparent" points="-4,4 -4,-259 1456.47,-259 1456.47,4 -4,4"/>
<!-- Node1 -->
<g id="node1" class="node">
<title>Node1</title>
<g id="a_node1"><a xlink:title=" ">
<polygon fill="#bfbfbf" stroke="black" points="969,-224.5 969,-254.5 1115,-254.5 1115,-224.5 969,-224.5"/>
<text text-anchor="start" x="977" y="-242.5" font-family="Helvetica,sans-Serif" font-size="10.00">include/emlabcpp/protocol</text>
<text text-anchor="middle" x="1042" y="-231.5" font-family="Helvetica,sans-Serif" font-size="10.00">/register_map.h</text>
</a>
</g>
</g>
<!-- Node2 -->
<g id="node2" class="node">
<title>Node2</title>
<g id="a_node2"><a xlink:href="algorithm_8h.html" target="_top" xlink:title=" ">
<polygon fill="white" stroke="black" points="410,-168.5 410,-187.5 492,-187.5 492,-168.5 410,-168.5"/>
<text text-anchor="middle" x="451" y="-175.5" font-family="Helvetica,sans-Serif" font-size="10.00">../algorithm.h</text>
</a>
</g>
</g>
<!-- Node1&#45;&gt;Node2 -->
<g id="edge1" class="edge">
<title>Node1&#45;&gt;Node2</title>
<path fill="none" stroke="midnightblue" d="M968.94,-231.14C847.59,-218.93 607.47,-194.75 502.33,-184.17"/>
<polygon fill="midnightblue" stroke="midnightblue" points="502.58,-180.68 492.28,-183.16 501.88,-187.64 502.58,-180.68"/>
</g>
<!-- Node28 -->
<g id="node14" class="node">
<title>Node28</title>
<g id="a_node14"><a xlink:href="protocol_2base_8h.html" target="_top" xlink:title=" ">
<polygon fill="white" stroke="black" points="1214.5,-112.5 1214.5,-131.5 1269.5,-131.5 1269.5,-112.5 1214.5,-112.5"/>
<text text-anchor="middle" x="1242" y="-119.5" font-family="Helvetica,sans-Serif" font-size="10.00">./base.h</text>
</a>
</g>
</g>
<!-- Node1&#45;&gt;Node28 -->
<g id="edge17" class="edge">
<title>Node1&#45;&gt;Node28</title>
<path fill="none" stroke="midnightblue" d="M1066.52,-224.34C1105.28,-201.96 1180.18,-158.7 1218.37,-136.65"/>
<polygon fill="midnightblue" stroke="midnightblue" points="1220.33,-139.55 1227.24,-131.52 1216.83,-133.49 1220.33,-139.55"/>
</g>
<!-- Node36 -->
<g id="node20" class="node">
<title>Node36</title>
<g id="a_node20"><a xlink:href="traits_8h.html" target="_top" xlink:title=" ">
<polygon fill="white" stroke="black" points="1013.5,-168.5 1013.5,-187.5 1070.5,-187.5 1070.5,-168.5 1013.5,-168.5"/>
<text text-anchor="middle" x="1042" y="-175.5" font-family="Helvetica,sans-Serif" font-size="10.00">./traits.h</text>
</a>
</g>
</g>
<!-- Node1&#45;&gt;Node36 -->
<g id="edge25" class="edge">
<title>Node1&#45;&gt;Node36</title>
<path fill="none" stroke="midnightblue" d="M1042,-224.4C1042,-216.47 1042,-206.46 1042,-197.86"/>
<polygon fill="midnightblue" stroke="midnightblue" points="1045.5,-197.66 1042,-187.66 1038.5,-197.66 1045.5,-197.66"/>
</g>
<!-- Node3 -->
<g id="node3" class="node">
<title>Node3</title>
<g id="a_node3"><a xlink:href="impl_8h.html" target="_top" xlink:title=" ">
<polygon fill="white" stroke="black" points="0,-112.5 0,-131.5 104,-131.5 104,-112.5 0,-112.5"/>
<text text-anchor="middle" x="52" y="-119.5" font-family="Helvetica,sans-Serif" font-size="10.00">./algorithm/impl.h</text>
</a>
</g>
</g>
<!-- Node2&#45;&gt;Node3 -->
<g id="edge2" class="edge">
<title>Node2&#45;&gt;Node3</title>
<path fill="none" stroke="midnightblue" d="M409.87,-171.71C348.08,-163.73 227.33,-147.97 114.44,-132.19"/>
<polygon fill="midnightblue" stroke="midnightblue" points="114.63,-128.68 104.24,-130.76 113.65,-135.61 114.63,-128.68"/>
</g>
<!-- Node4 -->
<g id="node4" class="node">
<title>Node4</title>
<g id="a_node4"><a xlink:href="types_8h.html" target="_top" xlink:title=" ">
<polygon fill="white" stroke="red" points="449,-0.5 449,-19.5 511,-19.5 511,-0.5 449,-0.5"/>
<text text-anchor="middle" x="480" y="-7.5" font-family="Helvetica,sans-Serif" font-size="10.00">../types.h</text>
</a>
</g>
</g>
<!-- Node2&#45;&gt;Node4 -->
<g id="edge12" class="edge">
<title>Node2&#45;&gt;Node4</title>
<path fill="none" stroke="midnightblue" d="M412.04,-168.48C378.6,-159.03 337.87,-141.14 352,-112 372.48,-69.76 420.14,-39.86 451.18,-24.04"/>
<polygon fill="midnightblue" stroke="midnightblue" points="452.8,-27.14 460.22,-19.58 449.71,-20.86 452.8,-27.14"/>
</g>
<!-- Node10 -->
<g id="node5" class="node">
<title>Node10</title>
<g id="a_node5"><a xlink:title=" ">
<polygon fill="white" stroke="#bfbfbf" points="179.5,-56.5 179.5,-75.5 220.5,-75.5 220.5,-56.5 179.5,-56.5"/>
<text text-anchor="middle" x="200" y="-63.5" font-family="Helvetica,sans-Serif" font-size="10.00">tuple</text>
</a>
</g>
</g>
<!-- Node2&#45;&gt;Node10 -->
<g id="edge16" class="edge">
<title>Node2&#45;&gt;Node10</title>
<path fill="none" stroke="midnightblue" d="M410,-174.12C351.06,-169.15 246.44,-157.01 219,-132 206.12,-120.26 201.79,-100.33 200.42,-85.62"/>
<polygon fill="midnightblue" stroke="midnightblue" points="203.91,-85.41 199.86,-75.62 196.92,-85.8 203.91,-85.41"/>
</g>
<!-- Node17 -->
<g id="node6" class="node">
<title>Node17</title>
<g id="a_node6"><a xlink:href="bounded_8h.html" target="_top" xlink:title=" ">
<polygon fill="white" stroke="red" points="1005,-56.5 1005,-75.5 1079,-75.5 1079,-56.5 1005,-56.5"/>
<text text-anchor="middle" x="1042" y="-63.5" font-family="Helvetica,sans-Serif" font-size="10.00">./bounded.h</text>
</a>
</g>
</g>
<!-- Node2&#45;&gt;Node17 -->
<g id="edge5" class="edge">
<title>Node2&#45;&gt;Node17</title>
<path fill="none" stroke="midnightblue" d="M492.36,-177.45C602.24,-178.04 898.93,-175.45 985,-132 1005.86,-121.47 1022.43,-99.71 1032.21,-84.27"/>
<polygon fill="midnightblue" stroke="midnightblue" points="1035.25,-86 1037.4,-75.63 1029.25,-82.4 1035.25,-86"/>
</g>
<!-- Node19 -->
<g id="node9" class="node">
<title>Node19</title>
<g id="a_node9"><a xlink:href="min__max_8h.html" target="_top" xlink:title=" ">
<polygon fill="white" stroke="red" points="228.5,-112.5 228.5,-131.5 305.5,-131.5 305.5,-112.5 228.5,-112.5"/>
<text text-anchor="middle" x="267" y="-119.5" font-family="Helvetica,sans-Serif" font-size="10.00">./min_max.h</text>
</a>
</g>
</g>
<!-- Node2&#45;&gt;Node19 -->
<g id="edge8" class="edge">
<title>Node2&#45;&gt;Node19</title>
<path fill="none" stroke="midnightblue" d="M421.84,-168.44C390.49,-159.24 340.47,-144.56 305.8,-134.39"/>
<polygon fill="midnightblue" stroke="midnightblue" points="306.6,-130.97 296.02,-131.52 304.63,-137.69 306.6,-130.97"/>
</g>
<!-- Node21 -->
<g id="node10" class="node">
<title>Node21</title>
<g id="a_node10"><a xlink:href="range_8h.html" target="_top" xlink:title=" ">
<polygon fill="white" stroke="red" points="538.5,-112.5 538.5,-131.5 597.5,-131.5 597.5,-112.5 538.5,-112.5"/>
<text text-anchor="middle" x="568" y="-119.5" font-family="Helvetica,sans-Serif" font-size="10.00">./range.h</text>
</a>
</g>
</g>
<!-- Node2&#45;&gt;Node21 -->
<g id="edge9" class="edge">
<title>Node2&#45;&gt;Node21</title>
<path fill="none" stroke="midnightblue" d="M469.54,-168.44C488.62,-159.64 518.57,-145.81 540.44,-135.72"/>
<polygon fill="midnightblue" stroke="midnightblue" points="541.93,-138.88 549.55,-131.52 539,-132.53 541.93,-138.88"/>
</g>
<!-- Node24 -->
<g id="node11" class="node">
<title>Node24</title>
<g id="a_node11"><a xlink:href="view_8h.html" target="_top" xlink:title=" ">
<polygon fill="white" stroke="red" points="599,-56.5 599,-75.5 653,-75.5 653,-56.5 599,-56.5"/>
<text text-anchor="middle" x="626" y="-63.5" font-family="Helvetica,sans-Serif" font-size="10.00">./view.h</text>
</a>
</g>
</g>
<!-- Node2&#45;&gt;Node24 -->
<g id="edge13" class="edge">
<title>Node2&#45;&gt;Node24</title>
<path fill="none" stroke="midnightblue" d="M492.29,-175.73C527.34,-172.44 576.65,-162.24 607,-132 619.09,-119.95 623.58,-100.66 625.2,-86.22"/>
<polygon fill="midnightblue" stroke="midnightblue" points="628.71,-86.14 625.97,-75.91 621.73,-85.62 628.71,-86.14"/>
</g>
<!-- Node26 -->
<g id="node12" class="node">
<title>Node26</title>
<g id="a_node12"><a xlink:title=" ">
<polygon fill="white" stroke="#bfbfbf" points="767.5,-56.5 767.5,-75.5 814.5,-75.5 814.5,-56.5 767.5,-56.5"/>
<text text-anchor="middle" x="791" y="-63.5" font-family="Helvetica,sans-Serif" font-size="10.00">cmath</text>
</a>
</g>
</g>
<!-- Node2&#45;&gt;Node26 -->
<g id="edge14" class="edge">
<title>Node2&#45;&gt;Node26</title>
<path fill="none" stroke="midnightblue" d="M490.21,-168.48C526.14,-160.32 580.65,-147.04 627,-132 652.71,-123.65 720.95,-95.91 760.84,-79.49"/>
<polygon fill="midnightblue" stroke="midnightblue" points="762.42,-82.62 770.33,-75.58 759.75,-76.15 762.42,-82.62"/>
</g>
<!-- Node27 -->
<g id="node13" class="node">
<title>Node27</title>
<g id="a_node13"><a xlink:title=" ">
<polygon fill="white" stroke="#bfbfbf" points="122.5,-112.5 122.5,-131.5 171.5,-131.5 171.5,-112.5 122.5,-112.5"/>
<text text-anchor="middle" x="147" y="-119.5" font-family="Helvetica,sans-Serif" font-size="10.00">cstdlib</text>
</a>
</g>
</g>
<!-- Node2&#45;&gt;Node27 -->
<g id="edge15" class="edge">
<title>Node2&#45;&gt;Node27</title>
<path fill="none" stroke="midnightblue" d="M409.55,-170.73C357.27,-162.65 264.7,-147.75 186,-132 184.55,-131.71 183.08,-131.41 181.59,-131.09"/>
<polygon fill="midnightblue" stroke="midnightblue" points="182.23,-127.65 171.71,-128.93 180.73,-134.49 182.23,-127.65"/>
</g>
<!-- Node3&#45;&gt;Node4 -->
<g id="edge3" class="edge">
<title>Node3&#45;&gt;Node4</title>
<path fill="none" stroke="midnightblue" d="M64.06,-112.41C84.69,-98.18 128.54,-69.92 170,-56 262.65,-24.9 377.99,-15.29 438.5,-12.32"/>
<polygon fill="midnightblue" stroke="midnightblue" points="438.96,-15.8 448.79,-11.86 438.64,-8.81 438.96,-15.8"/>
</g>
<!-- Node3&#45;&gt;Node10 -->
<g id="edge4" class="edge">
<title>Node3&#45;&gt;Node10</title>
<path fill="none" stroke="midnightblue" d="M75.45,-112.44C100.86,-103.17 141.49,-88.35 169.4,-78.17"/>
<polygon fill="midnightblue" stroke="midnightblue" points="170.86,-81.36 179.05,-74.64 168.46,-74.78 170.86,-81.36"/>
</g>
<!-- Node18 -->
<g id="node7" class="node">
<title>Node18</title>
<g id="a_node7"><a xlink:title=" ">
<polygon fill="white" stroke="#bfbfbf" points="1266,-0.5 1266,-19.5 1322,-19.5 1322,-0.5 1266,-0.5"/>
<text text-anchor="middle" x="1294" y="-7.5" font-family="Helvetica,sans-Serif" font-size="10.00">optional</text>
</a>
</g>
</g>
<!-- Node17&#45;&gt;Node18 -->
<g id="edge6" class="edge">
<title>Node17&#45;&gt;Node18</title>
<path fill="none" stroke="midnightblue" d="M1079.18,-57.03C1126.5,-46.89 1207.83,-29.46 1255.69,-19.21"/>
<polygon fill="midnightblue" stroke="midnightblue" points="1256.61,-22.59 1265.65,-17.07 1255.14,-15.75 1256.61,-22.59"/>
</g>
<!-- Node11 -->
<g id="node8" class="node">
<title>Node11</title>
<g id="a_node8"><a xlink:title=" ">
<polygon fill="white" stroke="#bfbfbf" points="1007.5,-0.5 1007.5,-19.5 1076.5,-19.5 1076.5,-0.5 1007.5,-0.5"/>
<text text-anchor="middle" x="1042" y="-7.5" font-family="Helvetica,sans-Serif" font-size="10.00">type_traits</text>
</a>
</g>
</g>
<!-- Node17&#45;&gt;Node11 -->
<g id="edge7" class="edge">
<title>Node17&#45;&gt;Node11</title>
<path fill="none" stroke="midnightblue" d="M1042,-56.08C1042,-49.01 1042,-38.86 1042,-29.99"/>
<polygon fill="midnightblue" stroke="midnightblue" points="1045.5,-29.75 1042,-19.75 1038.5,-29.75 1045.5,-29.75"/>
</g>
<!-- Node21&#45;&gt;Node24 -->
<g id="edge10" class="edge">
<title>Node21&#45;&gt;Node24</title>
<path fill="none" stroke="midnightblue" d="M577.32,-112.32C585.89,-104.34 598.81,-92.31 609.19,-82.65"/>
<polygon fill="midnightblue" stroke="midnightblue" points="611.58,-85.21 616.51,-75.83 606.81,-80.09 611.58,-85.21"/>
</g>
<!-- Node24&#45;&gt;Node4 -->
<g id="edge11" class="edge">
<title>Node24&#45;&gt;Node4</title>
<path fill="none" stroke="midnightblue" d="M602.87,-56.44C578.52,-47.44 539.99,-33.19 512.58,-23.05"/>
<polygon fill="midnightblue" stroke="midnightblue" points="513.62,-19.7 503.03,-19.52 511.19,-26.27 513.62,-19.7"/>
</g>
<!-- Node28&#45;&gt;Node17 -->
<g id="edge18" class="edge">
<title>Node28&#45;&gt;Node17</title>
<path fill="none" stroke="midnightblue" d="M1214.19,-113.49C1180.22,-104.32 1122.47,-88.73 1083.3,-78.15"/>
<polygon fill="midnightblue" stroke="midnightblue" points="1084.09,-74.74 1073.53,-75.51 1082.27,-81.5 1084.09,-74.74"/>
</g>
<!-- Node28&#45;&gt;Node11 -->
<g id="edge23" class="edge">
<title>Node28&#45;&gt;Node11</title>
<path fill="none" stroke="midnightblue" d="M1243.14,-112.1C1244.37,-98.19 1244.53,-71.32 1230,-56 1210.64,-35.6 1136.07,-22.63 1086.86,-16.1"/>
<polygon fill="midnightblue" stroke="midnightblue" points="1087.14,-12.6 1076.78,-14.8 1086.25,-19.55 1087.14,-12.6"/>
</g>
<!-- Node29 -->
<g id="node15" class="node">
<title>Node29</title>
<g id="a_node15"><a xlink:href="protocol_2error_8h.html" target="_top" xlink:title=" ">
<polygon fill="white" stroke="red" points="1097,-56.5 1097,-75.5 1151,-75.5 1151,-56.5 1097,-56.5"/>
<text text-anchor="middle" x="1124" y="-63.5" font-family="Helvetica,sans-Serif" font-size="10.00">./error.h</text>
</a>
</g>
</g>
<!-- Node28&#45;&gt;Node29 -->
<g id="edge19" class="edge">
<title>Node28&#45;&gt;Node29</title>
<path fill="none" stroke="midnightblue" d="M1223.3,-112.44C1204.06,-103.64 1173.85,-89.81 1151.8,-79.72"/>
<polygon fill="midnightblue" stroke="midnightblue" points="1153.16,-76.5 1142.61,-75.52 1150.25,-82.86 1153.16,-76.5"/>
</g>
<!-- Node34 -->
<g id="node16" class="node">
<title>Node34</title>
<g id="a_node16"><a xlink:title=" ">
<polygon fill="white" stroke="#bfbfbf" points="1345.5,-56.5 1345.5,-75.5 1374.5,-75.5 1374.5,-56.5 1345.5,-56.5"/>
<text text-anchor="middle" x="1360" y="-63.5" font-family="Helvetica,sans-Serif" font-size="10.00">bit</text>
</a>
</g>
</g>
<!-- Node28&#45;&gt;Node34 -->
<g id="edge20" class="edge">
<title>Node28&#45;&gt;Node34</title>
<path fill="none" stroke="midnightblue" d="M1260.7,-112.44C1281.19,-103.07 1314.11,-88 1336.37,-77.81"/>
<polygon fill="midnightblue" stroke="midnightblue" points="1337.85,-80.99 1345.48,-73.64 1334.93,-74.62 1337.85,-80.99"/>
</g>
<!-- Node35 -->
<g id="node17" class="node">
<title>Node35</title>
<g id="a_node17"><a xlink:title=" ">
<polygon fill="white" stroke="#bfbfbf" points="1393,-56.5 1393,-75.5 1437,-75.5 1437,-56.5 1393,-56.5"/>
<text text-anchor="middle" x="1415" y="-63.5" font-family="Helvetica,sans-Serif" font-size="10.00">bitset</text>
</a>
</g>
</g>
<!-- Node28&#45;&gt;Node35 -->
<g id="edge21" class="edge">
<title>Node28&#45;&gt;Node35</title>
<path fill="none" stroke="midnightblue" d="M1269.41,-112.44C1300.28,-102.81 1350.36,-87.18 1383,-76.99"/>
<polygon fill="midnightblue" stroke="midnightblue" points="1384.43,-80.21 1392.93,-73.89 1382.34,-73.53 1384.43,-80.21"/>
</g>
<!-- Node32 -->
<g id="node18" class="node">
<title>Node32</title>
<g id="a_node18"><a xlink:title=" ">
<polygon fill="white" stroke="#bfbfbf" points="1277,-56.5 1277,-75.5 1327,-75.5 1327,-56.5 1277,-56.5"/>
<text text-anchor="middle" x="1302" y="-63.5" font-family="Helvetica,sans-Serif" font-size="10.00">cstring</text>
</a>
</g>
</g>
<!-- Node28&#45;&gt;Node32 -->
<g id="edge22" class="edge">
<title>Node28&#45;&gt;Node32</title>
<path fill="none" stroke="midnightblue" d="M1251.64,-112.32C1260.51,-104.34 1273.87,-92.31 1284.61,-82.65"/>
<polygon fill="midnightblue" stroke="midnightblue" points="1287.09,-85.13 1292.18,-75.83 1282.41,-79.92 1287.09,-85.13"/>
</g>
<!-- Node15 -->
<g id="node19" class="node">
<title>Node15</title>
<g id="a_node19"><a xlink:title=" ">
<polygon fill="white" stroke="#bfbfbf" points="1169.5,-56.5 1169.5,-75.5 1220.5,-75.5 1220.5,-56.5 1169.5,-56.5"/>
<text text-anchor="middle" x="1195" y="-63.5" font-family="Helvetica,sans-Serif" font-size="10.00">variant</text>
</a>
</g>
</g>
<!-- Node28&#45;&gt;Node15 -->
<g id="edge24" class="edge">
<title>Node28&#45;&gt;Node15</title>
<path fill="none" stroke="midnightblue" d="M1234.24,-112.08C1227.46,-104.3 1217.46,-92.8 1209.24,-83.37"/>
<polygon fill="midnightblue" stroke="midnightblue" points="1211.82,-81 1202.62,-75.75 1206.54,-85.59 1211.82,-81"/>
</g>
<!-- Node36&#45;&gt;Node4 -->
<g id="edge33" class="edge">
<title>Node36&#45;&gt;Node4</title>
<path fill="none" stroke="midnightblue" d="M1036.45,-168.13C1027.33,-154.26 1007.9,-127.43 985,-112 922.17,-69.67 897.72,-73.45 824,-56 716.57,-30.57 586.62,-18.49 521.48,-13.67"/>
<polygon fill="midnightblue" stroke="midnightblue" points="521.45,-10.16 511.22,-12.94 520.94,-17.14 521.45,-10.16"/>
</g>
<!-- Node36&#45;&gt;Node18 -->
<g id="edge39" class="edge">
<title>Node36&#45;&gt;Node18</title>
<path fill="none" stroke="midnightblue" d="M1070.63,-174.5C1155.31,-166.45 1401.4,-137.99 1446,-76 1476.55,-33.54 1386.56,-18.59 1332.18,-13.5"/>
<polygon fill="midnightblue" stroke="midnightblue" points="1332.41,-10.01 1322.15,-12.64 1331.81,-16.98 1332.41,-10.01"/>
</g>
<!-- Node36&#45;&gt;Node28 -->
<g id="edge34" class="edge">
<title>Node36&#45;&gt;Node28</title>
<path fill="none" stroke="midnightblue" d="M1070.66,-169.26C1105.85,-159.76 1165.66,-143.61 1204.49,-133.13"/>
<polygon fill="midnightblue" stroke="midnightblue" points="1205.62,-136.45 1214.36,-130.46 1203.8,-129.69 1205.62,-136.45"/>
</g>
<!-- Node36&#45;&gt;Node29 -->
<g id="edge35" class="edge">
<title>Node36&#45;&gt;Node29</title>
<path fill="none" stroke="midnightblue" d="M1048.43,-168.37C1062.03,-150.14 1093.86,-107.43 1111.57,-83.68"/>
<polygon fill="midnightblue" stroke="midnightblue" points="1114.42,-85.7 1117.6,-75.59 1108.81,-81.52 1114.42,-85.7"/>
</g>
<!-- Node36&#45;&gt;Node15 -->
<g id="edge40" class="edge">
<title>Node36&#45;&gt;Node15</title>
<path fill="none" stroke="midnightblue" d="M1054.01,-168.37C1080.15,-149.57 1142.47,-104.77 1174.79,-81.53"/>
<polygon fill="midnightblue" stroke="midnightblue" points="1176.97,-84.27 1183.05,-75.59 1172.89,-78.59 1176.97,-84.27"/>
</g>
<!-- Node37 -->
<g id="node21" class="node">
<title>Node37</title>
<g id="a_node21"><a xlink:href="decompose_8h.html" target="_top" xlink:title=" ">
<polygon fill="white" stroke="red" points="361.5,-112.5 361.5,-131.5 520.5,-131.5 520.5,-112.5 361.5,-112.5"/>
<text text-anchor="middle" x="441" y="-119.5" font-family="Helvetica,sans-Serif" font-size="10.00">../experimental/decompose.h</text>
</a>
</g>
</g>
<!-- Node36&#45;&gt;Node37 -->
<g id="edge26" class="edge">
<title>Node36&#45;&gt;Node37</title>
<path fill="none" stroke="midnightblue" d="M1013.4,-174.62C937.05,-168.23 721.86,-150.05 530.8,-132.06"/>
<polygon fill="midnightblue" stroke="midnightblue" points="530.86,-128.55 520.57,-131.1 530.2,-135.52 530.86,-128.55"/>
</g>
<!-- Node38 -->
<g id="node22" class="node">
<title>Node38</title>
<g id="a_node22"><a xlink:href="quantity_8h.html" target="_top" xlink:title=" ">
<polygon fill="white" stroke="red" points="902,-112.5 902,-131.5 976,-131.5 976,-112.5 902,-112.5"/>
<text text-anchor="middle" x="939" y="-119.5" font-family="Helvetica,sans-Serif" font-size="10.00">../quantity.h</text>
</a>
</g>
</g>
<!-- Node36&#45;&gt;Node38 -->
<g id="edge28" class="edge">
<title>Node36&#45;&gt;Node38</title>
<path fill="none" stroke="midnightblue" d="M1025.45,-168.32C1009.01,-159.7 983.57,-146.36 964.53,-136.39"/>
<polygon fill="midnightblue" stroke="midnightblue" points="965.99,-133.2 955.51,-131.65 962.74,-139.4 965.99,-133.2"/>
</g>
<!-- Node41 -->
<g id="node23" class="node">
<title>Node41</title>
<g id="a_node23"><a xlink:href="static__vector_8h.html" target="_top" xlink:title=" ">
<polygon fill="white" stroke="red" points="786.5,-112.5 786.5,-131.5 883.5,-131.5 883.5,-112.5 786.5,-112.5"/>
<text text-anchor="middle" x="835" y="-119.5" font-family="Helvetica,sans-Serif" font-size="10.00">../static_vector.h</text>
</a>
</g>
</g>
<!-- Node36&#45;&gt;Node41 -->
<g id="edge31" class="edge">
<title>Node36&#45;&gt;Node41</title>
<path fill="none" stroke="midnightblue" d="M1013.22,-169.49C977.99,-160.3 918.03,-144.66 877.49,-134.08"/>
<polygon fill="midnightblue" stroke="midnightblue" points="878.19,-130.65 867.63,-131.51 876.42,-137.42 878.19,-130.65"/>
</g>
<!-- Node46 -->
<g id="node24" class="node">
<title>Node46</title>
<g id="a_node24"><a xlink:href="message_8h.html" target="_top" xlink:title=" ">
<polygon fill="white" stroke="red" points="692,-112.5 692,-131.5 768,-131.5 768,-112.5 692,-112.5"/>
<text text-anchor="middle" x="730" y="-119.5" font-family="Helvetica,sans-Serif" font-size="10.00">./message.h</text>
</a>
</g>
</g>
<!-- Node36&#45;&gt;Node46 -->
<g id="edge36" class="edge">
<title>Node36&#45;&gt;Node46</title>
<path fill="none" stroke="midnightblue" d="M1013.45,-172.29C966.71,-164.55 870.65,-148.5 778.32,-132.03"/>
<polygon fill="midnightblue" stroke="midnightblue" points="778.7,-128.54 768.24,-130.23 777.47,-135.43 778.7,-128.54"/>
</g>
<!-- Node47 -->
<g id="node25" class="node">
<title>Node47</title>
<g id="a_node25"><a xlink:title=" ">
<polygon fill="white" stroke="#bfbfbf" points="1146,-112.5 1146,-131.5 1196,-131.5 1196,-112.5 1146,-112.5"/>
<text text-anchor="middle" x="1171" y="-119.5" font-family="Helvetica,sans-Serif" font-size="10.00">chrono</text>
</a>
</g>
</g>
<!-- Node36&#45;&gt;Node47 -->
<g id="edge38" class="edge">
<title>Node36&#45;&gt;Node47</title>
<path fill="none" stroke="midnightblue" d="M1062.44,-168.44C1083.67,-159.56 1117.1,-145.56 1141.25,-135.45"/>
<polygon fill="midnightblue" stroke="midnightblue" points="1142.78,-138.61 1150.66,-131.52 1140.08,-132.15 1142.78,-138.61"/>
</g>
<!-- Node37&#45;&gt;Node10 -->
<g id="edge27" class="edge">
<title>Node37&#45;&gt;Node10</title>
<path fill="none" stroke="midnightblue" d="M402.81,-112.44C355.01,-101.73 274.12,-83.61 230.33,-73.8"/>
<polygon fill="midnightblue" stroke="midnightblue" points="231.07,-70.38 220.55,-71.6 229.54,-77.21 231.07,-70.38"/>
</g>
<!-- Node38&#45;&gt;Node11 -->
<g id="edge30" class="edge">
<title>Node38&#45;&gt;Node11</title>
<path fill="none" stroke="midnightblue" d="M946.18,-112.4C956.79,-99.78 977.42,-75.62 996,-56 1005.41,-46.06 1016.35,-35.33 1025.2,-26.84"/>
<polygon fill="midnightblue" stroke="midnightblue" points="1027.8,-29.19 1032.63,-19.76 1022.97,-24.12 1027.8,-29.19"/>
</g>
<!-- Node38&#45;&gt;Node26 -->
<g id="edge29" class="edge">
<title>Node38&#45;&gt;Node26</title>
<path fill="none" stroke="midnightblue" d="M915.55,-112.44C890.87,-103.44 851.81,-89.19 824.02,-79.05"/>
<polygon fill="midnightblue" stroke="midnightblue" points="824.94,-75.66 814.34,-75.52 822.54,-82.23 824.94,-75.66"/>
</g>
<!-- Node41&#45;&gt;Node24 -->
<g id="edge32" class="edge">
<title>Node41&#45;&gt;Node24</title>
<path fill="none" stroke="midnightblue" d="M801.88,-112.44C764.08,-102.68 702.41,-86.74 663.04,-76.57"/>
<polygon fill="midnightblue" stroke="midnightblue" points="663.86,-73.17 653.3,-74.05 662.11,-79.94 663.86,-73.17"/>
</g>
<!-- Node46&#45;&gt;Node24 -->
<g id="edge37" class="edge">
<title>Node46&#45;&gt;Node24</title>
<path fill="none" stroke="midnightblue" d="M713.29,-112.32C696.69,-103.7 671,-90.36 651.78,-80.39"/>
<polygon fill="midnightblue" stroke="midnightblue" points="653.16,-77.16 642.67,-75.65 649.93,-83.37 653.16,-77.16"/>
</g>
</g>
</svg>
