<?xml version="1.0" encoding="UTF-8" standalone="no"?>
<!DOCTYPE svg PUBLIC "-//W3C//DTD SVG 1.1//EN"
 "http://www.w3.org/Graphics/SVG/1.1/DTD/svg11.dtd">
<!-- Generated by graphviz version 2.43.0 (0)
 -->
<!-- Title: include/emlabcpp/experimental/coro/request_reply.h Pages: 1 -->
<svg width="617pt" height="184pt"
 viewBox="0.00 0.00 616.50 184.00" xmlns="http://www.w3.org/2000/svg" xmlns:xlink="http://www.w3.org/1999/xlink">
<g id="graph0" class="graph" transform="scale(1 1) rotate(0) translate(4 180)">
<title>include/emlabcpp/experimental/coro/request_reply.h</title>
<polygon fill="white" stroke="transparent" points="-4,4 -4,-180 612.5,-180 612.5,4 -4,4"/>
<!-- Node1 -->
<g id="node1" class="node">
<title>Node1</title>
<g id="a_node1"><a xlink:title=" ">
<polygon fill="#bfbfbf" stroke="black" points="287,-145.5 287,-175.5 458,-175.5 458,-145.5 287,-145.5"/>
<text text-anchor="start" x="295" y="-163.5" font-family="Helvetica,sans-Serif" font-size="10.00">include/emlabcpp/experimental</text>
<text text-anchor="middle" x="372.5" y="-152.5" font-family="Helvetica,sans-Serif" font-size="10.00">/coro/request_reply.h</text>
</a>
</g>
</g>
<!-- Node2 -->
<g id="node2" class="node">
<title>Node2</title>
<g id="a_node2"><a xlink:href="memory__promise_8h.html" target="_top" xlink:title=" ">
<polygon fill="white" stroke="black" points="176,-73 176,-103 315,-103 315,-73 176,-73"/>
<text text-anchor="start" x="184" y="-91" font-family="Helvetica,sans-Serif" font-size="10.00">emlabcpp/experimental</text>
<text text-anchor="middle" x="245.5" y="-80" font-family="Helvetica,sans-Serif" font-size="10.00">/coro/memory_promise.h</text>
</a>
</g>
</g>
<!-- Node1&#45;&gt;Node2 -->
<g id="edge1" class="edge">
<title>Node1&#45;&gt;Node2</title>
<path fill="none" stroke="midnightblue" d="M347.1,-145.4C327.81,-134.69 301.07,-119.85 279.86,-108.07"/>
<polygon fill="midnightblue" stroke="midnightblue" points="281.29,-104.87 270.85,-103.07 277.9,-110.99 281.29,-104.87"/>
</g>
<!-- Node3 -->
<g id="node3" class="node">
<title>Node3</title>
<g id="a_node3"><a xlink:href="logging_8h.html" target="_top" xlink:title=" ">
<polygon fill="white" stroke="red" points="0,-0.5 0,-30.5 133,-30.5 133,-0.5 0,-0.5"/>
<text text-anchor="start" x="8" y="-18.5" font-family="Helvetica,sans-Serif" font-size="10.00">emlabcpp/experimental</text>
<text text-anchor="middle" x="66.5" y="-7.5" font-family="Helvetica,sans-Serif" font-size="10.00">/logging.h</text>
</a>
</g>
</g>
<!-- Node1&#45;&gt;Node3 -->
<g id="edge8" class="edge">
<title>Node1&#45;&gt;Node3</title>
<path fill="none" stroke="midnightblue" d="M286.79,-148.48C248.36,-141.07 203.47,-128.88 166.5,-109 133.4,-91.2 102.86,-59.86 84.46,-38.64"/>
<polygon fill="midnightblue" stroke="midnightblue" points="86.93,-36.15 77.79,-30.79 81.59,-40.68 86.93,-36.15"/>
</g>
<!-- Node41 -->
<g id="node6" class="node">
<title>Node41</title>
<g id="a_node6"><a xlink:href="owning__coroutine__handle_8h.html" target="_top" xlink:title=" ">
<polygon fill="white" stroke="black" points="401,-67.5 401,-108.5 534,-108.5 534,-67.5 401,-67.5"/>
<text text-anchor="start" x="409" y="-96.5" font-family="Helvetica,sans-Serif" font-size="10.00">emlabcpp/experimental</text>
<text text-anchor="start" x="409" y="-85.5" font-family="Helvetica,sans-Serif" font-size="10.00">/coro/owning_coroutine</text>
<text text-anchor="middle" x="467.5" y="-74.5" font-family="Helvetica,sans-Serif" font-size="10.00">_handle.h</text>
</a>
</g>
</g>
<!-- Node1&#45;&gt;Node41 -->
<g id="edge5" class="edge">
<title>Node1&#45;&gt;Node41</title>
<path fill="none" stroke="midnightblue" d="M391.72,-145.23C403.49,-136.5 418.89,-125.07 432.73,-114.8"/>
<polygon fill="midnightblue" stroke="midnightblue" points="435.16,-117.36 441.1,-108.59 430.99,-111.74 435.16,-117.36"/>
</g>
<!-- Node42 -->
<g id="node7" class="node">
<title>Node42</title>
<g id="a_node7"><a xlink:title=" ">
<polygon fill="white" stroke="#bfbfbf" points="436.5,-6 436.5,-25 498.5,-25 498.5,-6 436.5,-6"/>
<text text-anchor="middle" x="467.5" y="-13" font-family="Helvetica,sans-Serif" font-size="10.00">coroutine</text>
</a>
</g>
</g>
<!-- Node1&#45;&gt;Node42 -->
<g id="edge9" class="edge">
<title>Node1&#45;&gt;Node42</title>
<path fill="none" stroke="midnightblue" d="M372.18,-145.38C372.4,-126.07 375.27,-91.06 391.5,-67 402.68,-50.42 421.31,-37.92 437.33,-29.49"/>
<polygon fill="midnightblue" stroke="midnightblue" points="438.98,-32.59 446.38,-25.01 435.87,-26.31 438.98,-32.59"/>
</g>
<!-- Node31 -->
<g id="node9" class="node">
<title>Node31</title>
<g id="a_node9"><a xlink:title=" ">
<polygon fill="white" stroke="#bfbfbf" points="552.5,-78.5 552.5,-97.5 608.5,-97.5 608.5,-78.5 552.5,-78.5"/>
<text text-anchor="middle" x="580.5" y="-85.5" font-family="Helvetica,sans-Serif" font-size="10.00">optional</text>
</a>
</g>
</g>
<!-- Node1&#45;&gt;Node31 -->
<g id="edge10" class="edge">
<title>Node1&#45;&gt;Node31</title>
<path fill="none" stroke="midnightblue" d="M430.92,-145.48C464.46,-136.64 507.02,-124.05 543.5,-109 548.15,-107.08 552.97,-104.75 557.55,-102.36"/>
<polygon fill="midnightblue" stroke="midnightblue" points="559.34,-105.37 566.43,-97.5 555.98,-99.23 559.34,-105.37"/>
</g>
<!-- Node2&#45;&gt;Node3 -->
<g id="edge2" class="edge">
<title>Node2&#45;&gt;Node3</title>
<path fill="none" stroke="midnightblue" d="M209.71,-72.9C181.54,-61.81 142.1,-46.28 111.74,-34.32"/>
<polygon fill="midnightblue" stroke="midnightblue" points="112.82,-30.98 102.23,-30.57 110.25,-37.49 112.82,-30.98"/>
</g>
<!-- Node37 -->
<g id="node4" class="node">
<title>Node37</title>
<g id="a_node4"><a xlink:href="memory__resource_8h.html" target="_top" xlink:title=" ">
<polygon fill="white" stroke="red" points="151,-0.5 151,-30.5 282,-30.5 282,-0.5 151,-0.5"/>
<text text-anchor="start" x="159" y="-18.5" font-family="Helvetica,sans-Serif" font-size="10.00">emlabcpp/pmr/memory</text>
<text text-anchor="middle" x="216.5" y="-7.5" font-family="Helvetica,sans-Serif" font-size="10.00">_resource.h</text>
</a>
</g>
</g>
<!-- Node2&#45;&gt;Node37 -->
<g id="edge3" class="edge">
<title>Node2&#45;&gt;Node37</title>
<path fill="none" stroke="midnightblue" d="M239.63,-72.73C235.78,-63.37 230.65,-50.9 226.2,-40.08"/>
<polygon fill="midnightblue" stroke="midnightblue" points="229.4,-38.66 222.36,-30.75 222.93,-41.33 229.4,-38.66"/>
</g>
<!-- Node38 -->
<g id="node5" class="node">
<title>Node38</title>
<g id="a_node5"><a xlink:href="throw__bad__alloc_8h.html" target="_top" xlink:title=" ">
<polygon fill="white" stroke="red" points="300.5,-0.5 300.5,-30.5 418.5,-30.5 418.5,-0.5 300.5,-0.5"/>
<text text-anchor="start" x="308.5" y="-18.5" font-family="Helvetica,sans-Serif" font-size="10.00">emlabcpp/pmr/throw</text>
<text text-anchor="middle" x="359.5" y="-7.5" font-family="Helvetica,sans-Serif" font-size="10.00">_bad_alloc.h</text>
</a>
</g>
</g>
<!-- Node2&#45;&gt;Node38 -->
<g id="edge4" class="edge">
<title>Node2&#45;&gt;Node38</title>
<path fill="none" stroke="midnightblue" d="M268.3,-72.9C285.46,-62.29 309.19,-47.61 328.14,-35.89"/>
<polygon fill="midnightblue" stroke="midnightblue" points="330.08,-38.81 336.74,-30.57 326.4,-32.86 330.08,-38.81"/>
</g>
<!-- Node41&#45;&gt;Node42 -->
<g id="edge6" class="edge">
<title>Node41&#45;&gt;Node42</title>
<path fill="none" stroke="midnightblue" d="M467.5,-67.36C467.5,-57.3 467.5,-45.1 467.5,-35.18"/>
<polygon fill="midnightblue" stroke="midnightblue" points="471,-35.17 467.5,-25.17 464,-35.17 471,-35.17"/>
</g>
<!-- Node43 -->
<g id="node8" class="node">
<title>Node43</title>
<g id="a_node8"><a xlink:title=" ">
<polygon fill="white" stroke="#bfbfbf" points="517,-6 517,-25 562,-25 562,-6 517,-6"/>
<text text-anchor="middle" x="539.5" y="-13" font-family="Helvetica,sans-Serif" font-size="10.00">utility</text>
</a>
</g>
</g>
<!-- Node41&#45;&gt;Node43 -->
<g id="edge7" class="edge">
<title>Node41&#45;&gt;Node43</title>
<path fill="none" stroke="midnightblue" d="M487.56,-67.36C498.83,-56.32 512.72,-42.72 523.3,-32.37"/>
<polygon fill="midnightblue" stroke="midnightblue" points="525.95,-34.67 530.64,-25.17 521.05,-29.67 525.95,-34.67"/>
</g>
</g>
</svg>
