<?xml version="1.0" encoding="UTF-8" standalone="no"?>
<!DOCTYPE svg PUBLIC "-//W3C//DTD SVG 1.1//EN"
 "http://www.w3.org/Graphics/SVG/1.1/DTD/svg11.dtd">
<!-- Generated by graphviz version 2.43.0 (0)
 -->
<!-- Title: include/emlabcpp/experimental/coro/request_reply.h Pages: 1 -->
<svg width="537pt" height="173pt"
 viewBox="0.00 0.00 536.50 173.00" xmlns="http://www.w3.org/2000/svg" xmlns:xlink="http://www.w3.org/1999/xlink">
<g id="graph0" class="graph" transform="scale(1 1) rotate(0) translate(4 169)">
<title>include/emlabcpp/experimental/coro/request_reply.h</title>
<polygon fill="white" stroke="transparent" points="-4,4 -4,-169 532.5,-169 532.5,4 -4,4"/>
<!-- Node1 -->
<g id="node1" class="node">
<title>Node1</title>
<g id="a_node1"><a xlink:title=" ">
<polygon fill="#bfbfbf" stroke="black" points="272,-134.5 272,-164.5 443,-164.5 443,-134.5 272,-134.5"/>
<text text-anchor="start" x="280" y="-152.5" font-family="Helvetica,sans-Serif" font-size="10.00">include/emlabcpp/experimental</text>
<text text-anchor="middle" x="357.5" y="-141.5" font-family="Helvetica,sans-Serif" font-size="10.00">/coro/request_reply.h</text>
</a>
</g>
</g>
<!-- Node2 -->
<g id="node2" class="node">
<title>Node2</title>
<g id="a_node2"><a xlink:href="memory__promise_8h.html" target="_top" xlink:title=" ">
<polygon fill="white" stroke="black" points="168.5,-73 168.5,-92 286.5,-92 286.5,-73 168.5,-73"/>
<text text-anchor="middle" x="227.5" y="-80" font-family="Helvetica,sans-Serif" font-size="10.00">./memory_promise.h</text>
</a>
</g>
</g>
<!-- Node1&#45;&gt;Node2 -->
<g id="edge1" class="edge">
<title>Node1&#45;&gt;Node2</title>
<path fill="none" stroke="midnightblue" d="M329.29,-134.4C306.78,-123.14 275.5,-107.5 253.58,-96.54"/>
<polygon fill="midnightblue" stroke="midnightblue" points="255.02,-93.35 244.51,-92.01 251.89,-99.61 255.02,-93.35"/>
</g>
<!-- Node34 -->
<g id="node5" class="node">
<title>Node34</title>
<g id="a_node5"><a xlink:href="owning__coroutine__handle_8h.html" target="_top" xlink:title=" ">
<polygon fill="white" stroke="black" points="345,-67.5 345,-97.5 454,-97.5 454,-67.5 345,-67.5"/>
<text text-anchor="start" x="353" y="-85.5" font-family="Helvetica,sans-Serif" font-size="10.00">./owning_coroutine</text>
<text text-anchor="middle" x="399.5" y="-74.5" font-family="Helvetica,sans-Serif" font-size="10.00">_handle.h</text>
</a>
</g>
</g>
<!-- Node1&#45;&gt;Node34 -->
<g id="edge4" class="edge">
<title>Node1&#45;&gt;Node34</title>
<path fill="none" stroke="midnightblue" d="M366.61,-134.4C371.95,-126.13 378.82,-115.51 384.9,-106.1"/>
<polygon fill="midnightblue" stroke="midnightblue" points="387.92,-107.88 390.4,-97.58 382.04,-104.08 387.92,-107.88"/>
</g>
<!-- Node35 -->
<g id="node6" class="node">
<title>Node35</title>
<g id="a_node6"><a xlink:title=" ">
<polygon fill="white" stroke="#bfbfbf" points="299.5,-6 299.5,-25 361.5,-25 361.5,-6 299.5,-6"/>
<text text-anchor="middle" x="330.5" y="-13" font-family="Helvetica,sans-Serif" font-size="10.00">coroutine</text>
</a>
</g>
</g>
<!-- Node1&#45;&gt;Node35 -->
<g id="edge7" class="edge">
<title>Node1&#45;&gt;Node35</title>
<path fill="none" stroke="midnightblue" d="M349.75,-134.38C344.74,-124.5 338.59,-110.83 335.5,-98 330.44,-76.95 329.63,-52 329.81,-35.3"/>
<polygon fill="midnightblue" stroke="midnightblue" points="333.31,-35.29 330.05,-25.21 326.32,-35.13 333.31,-35.29"/>
</g>
<!-- Node21 -->
<g id="node8" class="node">
<title>Node21</title>
<g id="a_node8"><a xlink:title=" ">
<polygon fill="white" stroke="#bfbfbf" points="472.5,-73 472.5,-92 528.5,-92 528.5,-73 472.5,-73"/>
<text text-anchor="middle" x="500.5" y="-80" font-family="Helvetica,sans-Serif" font-size="10.00">optional</text>
</a>
</g>
</g>
<!-- Node1&#45;&gt;Node21 -->
<g id="edge8" class="edge">
<title>Node1&#45;&gt;Node21</title>
<path fill="none" stroke="midnightblue" d="M388.53,-134.4C413.51,-123.04 448.32,-107.22 472.46,-96.24"/>
<polygon fill="midnightblue" stroke="midnightblue" points="474.13,-99.33 481.78,-92.01 471.23,-92.96 474.13,-99.33"/>
</g>
<!-- Node3 -->
<g id="node3" class="node">
<title>Node3</title>
<g id="a_node3"><a xlink:href="memory__resource_8h.html" target="_top" xlink:title=" ">
<polygon fill="white" stroke="red" points="0,-6 0,-25 155,-25 155,-6 0,-6"/>
<text text-anchor="middle" x="77.5" y="-13" font-family="Helvetica,sans-Serif" font-size="10.00">../../pmr/memory_resource.h</text>
</a>
</g>
</g>
<!-- Node2&#45;&gt;Node3 -->
<g id="edge2" class="edge">
<title>Node2&#45;&gt;Node3</title>
<path fill="none" stroke="midnightblue" d="M207.58,-72.87C181.81,-61.7 136.68,-42.15 106.95,-29.26"/>
<polygon fill="midnightblue" stroke="midnightblue" points="108.07,-25.93 97.5,-25.17 105.29,-32.35 108.07,-25.93"/>
</g>
<!-- Node32 -->
<g id="node4" class="node">
<title>Node32</title>
<g id="a_node4"><a xlink:href="throw__bad__alloc_8h.html" target="_top" xlink:title=" ">
<polygon fill="white" stroke="red" points="173.5,-0.5 173.5,-30.5 281.5,-30.5 281.5,-0.5 173.5,-0.5"/>
<text text-anchor="start" x="181.5" y="-18.5" font-family="Helvetica,sans-Serif" font-size="10.00">../../pmr/throw_bad</text>
<text text-anchor="middle" x="227.5" y="-7.5" font-family="Helvetica,sans-Serif" font-size="10.00">_alloc.h</text>
</a>
</g>
</g>
<!-- Node2&#45;&gt;Node32 -->
<g id="edge3" class="edge">
<title>Node2&#45;&gt;Node32</title>
<path fill="none" stroke="midnightblue" d="M227.5,-72.73C227.5,-64.54 227.5,-51.92 227.5,-40.71"/>
<polygon fill="midnightblue" stroke="midnightblue" points="231,-40.59 227.5,-30.59 224,-40.59 231,-40.59"/>
</g>
<!-- Node34&#45;&gt;Node35 -->
<g id="edge5" class="edge">
<title>Node34&#45;&gt;Node35</title>
<path fill="none" stroke="midnightblue" d="M384.53,-67.4C373.56,-57.06 358.66,-43.02 347.28,-32.31"/>
<polygon fill="midnightblue" stroke="midnightblue" points="349.41,-29.5 339.73,-25.19 344.61,-34.6 349.41,-29.5"/>
</g>
<!-- Node36 -->
<g id="node7" class="node">
<title>Node36</title>
<g id="a_node7"><a xlink:title=" ">
<polygon fill="white" stroke="#bfbfbf" points="380,-6 380,-25 425,-25 425,-6 380,-6"/>
<text text-anchor="middle" x="402.5" y="-13" font-family="Helvetica,sans-Serif" font-size="10.00">utility</text>
</a>
</g>
</g>
<!-- Node34&#45;&gt;Node36 -->
<g id="edge6" class="edge">
<title>Node34&#45;&gt;Node36</title>
<path fill="none" stroke="midnightblue" d="M400.15,-67.4C400.59,-57.96 401.16,-45.45 401.64,-35.19"/>
<polygon fill="midnightblue" stroke="midnightblue" points="405.13,-35.35 402.1,-25.19 398.14,-35.02 405.13,-35.35"/>
</g>
</g>
</svg>
