<?xml version="1.0" encoding="UTF-8" standalone="no"?>
<!DOCTYPE svg PUBLIC "-//W3C//DTD SVG 1.1//EN"
 "http://www.w3.org/Graphics/SVG/1.1/DTD/svg11.dtd">
<!-- Generated by graphviz version 2.43.0 (0)
 -->
<!-- Title: include/emlabcpp/experimental/contiguous_tree/request_adapter.h Pages: 1 -->
<svg width="720pt" height="240pt"
 viewBox="0.00 0.00 719.50 240.00" xmlns="http://www.w3.org/2000/svg" xmlns:xlink="http://www.w3.org/1999/xlink">
<g id="graph0" class="graph" transform="scale(1 1) rotate(0) translate(4 236)">
<title>include/emlabcpp/experimental/contiguous_tree/request_adapter.h</title>
<polygon fill="white" stroke="transparent" points="-4,4 -4,-236 715.5,-236 715.5,4 -4,4"/>
<!-- Node1 -->
<g id="node1" class="node">
<title>Node1</title>
<g id="a_node1"><a xlink:title=" ">
<polygon fill="#bfbfbf" stroke="black" points="224.5,-190.5 224.5,-231.5 395.5,-231.5 395.5,-190.5 224.5,-190.5"/>
<text text-anchor="start" x="232.5" y="-219.5" font-family="Helvetica,sans-Serif" font-size="10.00">include/emlabcpp/experimental</text>
<text text-anchor="start" x="232.5" y="-208.5" font-family="Helvetica,sans-Serif" font-size="10.00">/contiguous_tree/request</text>
<text text-anchor="middle" x="310" y="-197.5" font-family="Helvetica,sans-Serif" font-size="10.00">_adapter.h</text>
</a>
</g>
</g>
<!-- Node2 -->
<g id="node2" class="node">
<title>Node2</title>
<g id="a_node2"><a xlink:href="experimental_2contiguous__tree_2base_8h.html" target="_top" xlink:title=" ">
<polygon fill="white" stroke="black" points="118.5,-123.5 118.5,-153.5 251.5,-153.5 251.5,-123.5 118.5,-123.5"/>
<text text-anchor="start" x="126.5" y="-141.5" font-family="Helvetica,sans-Serif" font-size="10.00">emlabcpp/experimental</text>
<text text-anchor="middle" x="185" y="-130.5" font-family="Helvetica,sans-Serif" font-size="10.00">/contiguous_tree/base.h</text>
</a>
</g>
</g>
<!-- Node1&#45;&gt;Node2 -->
<g id="edge1" class="edge">
<title>Node1&#45;&gt;Node2</title>
<path fill="none" stroke="midnightblue" d="M275.18,-190.36C257.59,-180.44 236.33,-168.45 218.87,-158.6"/>
<polygon fill="midnightblue" stroke="midnightblue" points="220.55,-155.53 210.12,-153.67 217.11,-161.63 220.55,-155.53"/>
</g>
<!-- Node41 -->
<g id="node6" class="node">
<title>Node41</title>
<g id="a_node6"><a xlink:href="logging_8h.html" target="_top" xlink:title=" ">
<polygon fill="white" stroke="black" points="407.5,-123.5 407.5,-153.5 540.5,-153.5 540.5,-123.5 407.5,-123.5"/>
<text text-anchor="start" x="415.5" y="-141.5" font-family="Helvetica,sans-Serif" font-size="10.00">emlabcpp/experimental</text>
<text text-anchor="middle" x="474" y="-130.5" font-family="Helvetica,sans-Serif" font-size="10.00">/logging.h</text>
</a>
</g>
</g>
<!-- Node1&#45;&gt;Node41 -->
<g id="edge5" class="edge">
<title>Node1&#45;&gt;Node41</title>
<path fill="none" stroke="midnightblue" d="M355.68,-190.36C379.59,-180.08 408.66,-167.59 432,-157.55"/>
<polygon fill="midnightblue" stroke="midnightblue" points="433.49,-160.72 441.29,-153.56 430.72,-154.29 433.49,-160.72"/>
</g>
<!-- Node3 -->
<g id="node3" class="node">
<title>Node3</title>
<g id="a_node3"><a xlink:href="either_8h.html" target="_top" xlink:title=" ">
<polygon fill="white" stroke="red" points="0,-62 0,-81 104,-81 104,-62 0,-62"/>
<text text-anchor="middle" x="52" y="-69" font-family="Helvetica,sans-Serif" font-size="10.00">emlabcpp/either.h</text>
</a>
</g>
</g>
<!-- Node2&#45;&gt;Node3 -->
<g id="edge2" class="edge">
<title>Node2&#45;&gt;Node3</title>
<path fill="none" stroke="midnightblue" d="M156.14,-123.4C133.11,-112.14 101.11,-96.5 78.68,-85.54"/>
<polygon fill="midnightblue" stroke="midnightblue" points="79.93,-82.25 69.41,-81.01 76.85,-88.54 79.93,-82.25"/>
</g>
<!-- Node8 -->
<g id="node4" class="node">
<title>Node8</title>
<g id="a_node4"><a xlink:title=" ">
<polygon fill="white" stroke="#bfbfbf" points="122,-62 122,-81 172,-81 172,-62 122,-62"/>
<text text-anchor="middle" x="147" y="-69" font-family="Helvetica,sans-Serif" font-size="10.00">cstdint</text>
</a>
</g>
</g>
<!-- Node2&#45;&gt;Node8 -->
<g id="edge3" class="edge">
<title>Node2&#45;&gt;Node8</title>
<path fill="none" stroke="midnightblue" d="M176.75,-123.4C171.01,-113.56 163.3,-100.38 157.17,-89.89"/>
<polygon fill="midnightblue" stroke="midnightblue" points="160.15,-88.06 152.08,-81.19 154.11,-91.59 160.15,-88.06"/>
</g>
<!-- Node40 -->
<g id="node5" class="node">
<title>Node40</title>
<g id="a_node5"><a xlink:title=" ">
<polygon fill="white" stroke="#bfbfbf" points="190.5,-62 190.5,-81 255.5,-81 255.5,-62 190.5,-62"/>
<text text-anchor="middle" x="223" y="-69" font-family="Helvetica,sans-Serif" font-size="10.00">functional</text>
</a>
</g>
</g>
<!-- Node2&#45;&gt;Node40 -->
<g id="edge4" class="edge">
<title>Node2&#45;&gt;Node40</title>
<path fill="none" stroke="midnightblue" d="M193.25,-123.4C198.99,-113.56 206.7,-100.38 212.83,-89.89"/>
<polygon fill="midnightblue" stroke="midnightblue" points="215.89,-91.59 217.92,-81.19 209.85,-88.06 215.89,-91.59"/>
</g>
<!-- Node16 -->
<g id="node7" class="node">
<title>Node16</title>
<g id="a_node7"><a xlink:href="pretty__printer_8h.html" target="_top" xlink:title=" ">
<polygon fill="white" stroke="red" points="312.5,-56.5 312.5,-86.5 445.5,-86.5 445.5,-56.5 312.5,-56.5"/>
<text text-anchor="start" x="320.5" y="-74.5" font-family="Helvetica,sans-Serif" font-size="10.00">emlabcpp/experimental</text>
<text text-anchor="middle" x="379" y="-63.5" font-family="Helvetica,sans-Serif" font-size="10.00">/pretty_printer.h</text>
</a>
</g>
</g>
<!-- Node41&#45;&gt;Node16 -->
<g id="edge6" class="edge">
<title>Node41&#45;&gt;Node16</title>
<path fill="none" stroke="midnightblue" d="M453.39,-123.4C440.07,-114.28 422.54,-102.29 407.84,-92.24"/>
<polygon fill="midnightblue" stroke="midnightblue" points="409.8,-89.33 399.57,-86.58 405.85,-95.11 409.8,-89.33"/>
</g>
<!-- Node19 -->
<g id="node8" class="node">
<title>Node19</title>
<g id="a_node8"><a xlink:href="match_8h.html" target="_top" xlink:title=" ">
<polygon fill="white" stroke="red" points="276.5,-0.5 276.5,-19.5 383.5,-19.5 383.5,-0.5 276.5,-0.5"/>
<text text-anchor="middle" x="330" y="-7.5" font-family="Helvetica,sans-Serif" font-size="10.00">emlabcpp/match.h</text>
</a>
</g>
</g>
<!-- Node41&#45;&gt;Node19 -->
<g id="edge9" class="edge">
<title>Node41&#45;&gt;Node19</title>
<path fill="none" stroke="midnightblue" d="M407.11,-126.2C364.83,-117.54 315.83,-104.17 303,-87 289.7,-69.21 303.25,-44.29 315.48,-27.9"/>
<polygon fill="midnightblue" stroke="midnightblue" points="318.46,-29.78 321.96,-19.77 312.99,-25.41 318.46,-29.78"/>
</g>
<!-- Node15 -->
<g id="node9" class="node">
<title>Node15</title>
<g id="a_node9"><a xlink:title=" ">
<polygon fill="white" stroke="#bfbfbf" points="424.5,-0.5 424.5,-19.5 475.5,-19.5 475.5,-0.5 424.5,-0.5"/>
<text text-anchor="middle" x="450" y="-7.5" font-family="Helvetica,sans-Serif" font-size="10.00">variant</text>
</a>
</g>
</g>
<!-- Node41&#45;&gt;Node15 -->
<g id="edge12" class="edge">
<title>Node41&#45;&gt;Node15</title>
<path fill="none" stroke="midnightblue" d="M471.34,-123.48C467,-100.62 458.4,-55.3 453.55,-29.71"/>
<polygon fill="midnightblue" stroke="midnightblue" points="456.97,-28.96 451.67,-19.79 450.09,-30.27 456.97,-28.96"/>
</g>
<!-- Node37 -->
<g id="node10" class="node">
<title>Node37</title>
<g id="a_node10"><a xlink:title=" ">
<polygon fill="white" stroke="#bfbfbf" points="502.5,-62 502.5,-81 555.5,-81 555.5,-62 502.5,-62"/>
<text text-anchor="middle" x="529" y="-69" font-family="Helvetica,sans-Serif" font-size="10.00">cstddef</text>
</a>
</g>
</g>
<!-- Node41&#45;&gt;Node37 -->
<g id="edge10" class="edge">
<title>Node41&#45;&gt;Node37</title>
<path fill="none" stroke="midnightblue" d="M485.93,-123.4C494.51,-113.26 506.1,-99.57 515.09,-88.94"/>
<polygon fill="midnightblue" stroke="midnightblue" points="517.86,-91.09 521.64,-81.19 512.51,-86.57 517.86,-91.09"/>
</g>
<!-- Node42 -->
<g id="node11" class="node">
<title>Node42</title>
<g id="a_node11"><a xlink:title=" ">
<polygon fill="white" stroke="#bfbfbf" points="573.5,-62 573.5,-81 646.5,-81 646.5,-62 573.5,-62"/>
<text text-anchor="middle" x="610" y="-69" font-family="Helvetica,sans-Serif" font-size="10.00">string_view</text>
</a>
</g>
</g>
<!-- Node41&#45;&gt;Node42 -->
<g id="edge11" class="edge">
<title>Node41&#45;&gt;Node42</title>
<path fill="none" stroke="midnightblue" d="M503.51,-123.4C527.16,-112.09 560.08,-96.36 583.03,-85.39"/>
<polygon fill="midnightblue" stroke="midnightblue" points="584.69,-88.48 592.2,-81.01 581.67,-82.16 584.69,-88.48"/>
</g>
<!-- Node12 -->
<g id="node12" class="node">
<title>Node12</title>
<g id="a_node12"><a xlink:title=" ">
<polygon fill="white" stroke="#bfbfbf" points="664.5,-62 664.5,-81 711.5,-81 711.5,-62 664.5,-62"/>
<text text-anchor="middle" x="688" y="-69" font-family="Helvetica,sans-Serif" font-size="10.00">vector</text>
</a>
</g>
</g>
<!-- Node41&#45;&gt;Node12 -->
<g id="edge13" class="edge">
<title>Node41&#45;&gt;Node12</title>
<path fill="none" stroke="midnightblue" d="M533.75,-123.41C569.62,-114.33 615.93,-101.54 656,-87 657.62,-86.41 659.26,-85.78 660.92,-85.12"/>
<polygon fill="midnightblue" stroke="midnightblue" points="662.44,-88.27 670.26,-81.13 659.69,-81.84 662.44,-88.27"/>
</g>
<!-- Node16&#45;&gt;Node19 -->
<g id="edge7" class="edge">
<title>Node16&#45;&gt;Node19</title>
<path fill="none" stroke="midnightblue" d="M367.39,-56.4C360.27,-47.75 351.12,-36.64 343.65,-27.58"/>
<polygon fill="midnightblue" stroke="midnightblue" points="346.19,-25.15 337.13,-19.66 340.79,-29.6 346.19,-25.15"/>
</g>
<!-- Node16&#45;&gt;Node15 -->
<g id="edge8" class="edge">
<title>Node16&#45;&gt;Node15</title>
<path fill="none" stroke="midnightblue" d="M395.83,-56.4C406.67,-47.31 420.78,-35.49 431.87,-26.19"/>
<polygon fill="midnightblue" stroke="midnightblue" points="434.25,-28.76 439.67,-19.66 429.76,-23.4 434.25,-28.76"/>
</g>
</g>
</svg>
