<?xml version="1.0" encoding="UTF-8" standalone="no"?>
<!DOCTYPE svg PUBLIC "-//W3C//DTD SVG 1.1//EN"
 "http://www.w3.org/Graphics/SVG/1.1/DTD/svg11.dtd">
<!-- Generated by graphviz version 2.43.0 (0)
 -->
<!-- Title: include/emlabcpp/experimental/coro/request_reply.h Pages: 1 -->
<svg width="635pt" height="184pt"
 viewBox="0.00 0.00 634.50 184.00" xmlns="http://www.w3.org/2000/svg" xmlns:xlink="http://www.w3.org/1999/xlink">
<g id="graph0" class="graph" transform="scale(1 1) rotate(0) translate(4 180)">
<title>include/emlabcpp/experimental/coro/request_reply.h</title>
<polygon fill="white" stroke="transparent" points="-4,4 -4,-180 630.5,-180 630.5,4 -4,4"/>
<!-- Node1 -->
<g id="node1" class="node">
<title>Node1</title>
<g id="a_node1"><a xlink:title=" ">
<polygon fill="#bfbfbf" stroke="black" points="305,-145.5 305,-175.5 476,-175.5 476,-145.5 305,-145.5"/>
<text text-anchor="start" x="313" y="-163.5" font-family="Helvetica,sans-Serif" font-size="10.00">include/emlabcpp/experimental</text>
<text text-anchor="middle" x="390.5" y="-152.5" font-family="Helvetica,sans-Serif" font-size="10.00">/coro/request_reply.h</text>
</a>
</g>
</g>
<!-- Node2 -->
<g id="node2" class="node">
<title>Node2</title>
<g id="a_node2"><a xlink:href="memory__promise_8h.html" target="_top" xlink:title=" ">
<polygon fill="white" stroke="black" points="162,-73 162,-103 301,-103 301,-73 162,-73"/>
<text text-anchor="start" x="170" y="-91" font-family="Helvetica,sans-Serif" font-size="10.00">emlabcpp/experimental</text>
<text text-anchor="middle" x="231.5" y="-80" font-family="Helvetica,sans-Serif" font-size="10.00">/coro/memory_promise.h</text>
</a>
</g>
</g>
<!-- Node1&#45;&gt;Node2 -->
<g id="edge1" class="edge">
<title>Node1&#45;&gt;Node2</title>
<path fill="none" stroke="midnightblue" d="M358.71,-145.4C333.9,-134.4 299.26,-119.04 272.39,-107.13"/>
<polygon fill="midnightblue" stroke="midnightblue" points="273.8,-103.93 263.24,-103.07 270.96,-110.33 273.8,-103.93"/>
</g>
<!-- Node8 -->
<g id="node5" class="node">
<title>Node8</title>
<g id="a_node5"><a xlink:href="logging_8h.html" target="_top" xlink:title=" ">
<polygon fill="white" stroke="red" points="286,-0.5 286,-30.5 419,-30.5 419,-0.5 286,-0.5"/>
<text text-anchor="start" x="294" y="-18.5" font-family="Helvetica,sans-Serif" font-size="10.00">emlabcpp/experimental</text>
<text text-anchor="middle" x="352.5" y="-7.5" font-family="Helvetica,sans-Serif" font-size="10.00">/logging.h</text>
</a>
</g>
</g>
<!-- Node1&#45;&gt;Node8 -->
<g id="edge8" class="edge">
<title>Node1&#45;&gt;Node8</title>
<path fill="none" stroke="midnightblue" d="M386.51,-145.37C383.68,-135.25 379.8,-121.3 376.5,-109 370.25,-85.72 363.37,-59.07 358.58,-40.37"/>
<polygon fill="midnightblue" stroke="midnightblue" points="361.95,-39.45 356.09,-30.62 355.17,-41.18 361.95,-39.45"/>
</g>
<!-- Node10 -->
<g id="node6" class="node">
<title>Node10</title>
<g id="a_node6"><a xlink:href="owning__coroutine__handle_8h.html" target="_top" xlink:title=" ">
<polygon fill="white" stroke="black" points="419,-67.5 419,-108.5 552,-108.5 552,-67.5 419,-67.5"/>
<text text-anchor="start" x="427" y="-96.5" font-family="Helvetica,sans-Serif" font-size="10.00">emlabcpp/experimental</text>
<text text-anchor="start" x="427" y="-85.5" font-family="Helvetica,sans-Serif" font-size="10.00">/coro/owning_coroutine</text>
<text text-anchor="middle" x="485.5" y="-74.5" font-family="Helvetica,sans-Serif" font-size="10.00">_handle.h</text>
</a>
</g>
</g>
<!-- Node1&#45;&gt;Node10 -->
<g id="edge5" class="edge">
<title>Node1&#45;&gt;Node10</title>
<path fill="none" stroke="midnightblue" d="M409.72,-145.23C421.49,-136.5 436.89,-125.07 450.73,-114.8"/>
<polygon fill="midnightblue" stroke="midnightblue" points="453.16,-117.36 459.1,-108.59 448.99,-111.74 453.16,-117.36"/>
</g>
<!-- Node11 -->
<g id="node7" class="node">
<title>Node11</title>
<g id="a_node7"><a xlink:title=" ">
<polygon fill="white" stroke="#bfbfbf" points="437.5,-6 437.5,-25 499.5,-25 499.5,-6 437.5,-6"/>
<text text-anchor="middle" x="468.5" y="-13" font-family="Helvetica,sans-Serif" font-size="10.00">coroutine</text>
</a>
</g>
</g>
<!-- Node1&#45;&gt;Node11 -->
<g id="edge9" class="edge">
<title>Node1&#45;&gt;Node11</title>
<path fill="none" stroke="midnightblue" d="M390.61,-145.33C391.36,-126.26 394.85,-91.86 409.5,-67 418.15,-52.33 432.63,-39.84 445.08,-30.95"/>
<polygon fill="midnightblue" stroke="midnightblue" points="447.36,-33.64 453.68,-25.13 443.43,-27.84 447.36,-33.64"/>
</g>
<!-- Node13 -->
<g id="node9" class="node">
<title>Node13</title>
<g id="a_node9"><a xlink:title=" ">
<polygon fill="white" stroke="#bfbfbf" points="570.5,-78.5 570.5,-97.5 626.5,-97.5 626.5,-78.5 570.5,-78.5"/>
<text text-anchor="middle" x="598.5" y="-85.5" font-family="Helvetica,sans-Serif" font-size="10.00">optional</text>
</a>
</g>
</g>
<!-- Node1&#45;&gt;Node13 -->
<g id="edge10" class="edge">
<title>Node1&#45;&gt;Node13</title>
<path fill="none" stroke="midnightblue" d="M448.92,-145.48C482.46,-136.64 525.02,-124.05 561.5,-109 566.15,-107.08 570.97,-104.75 575.55,-102.36"/>
<polygon fill="midnightblue" stroke="midnightblue" points="577.34,-105.37 584.43,-97.5 573.98,-99.23 577.34,-105.37"/>
</g>
<!-- Node3 -->
<g id="node3" class="node">
<title>Node3</title>
<g id="a_node3"><a xlink:href="memory__resource_8h.html" target="_top" xlink:title=" ">
<polygon fill="white" stroke="red" points="0,-0.5 0,-30.5 131,-30.5 131,-0.5 0,-0.5"/>
<text text-anchor="start" x="8" y="-18.5" font-family="Helvetica,sans-Serif" font-size="10.00">emlabcpp/pmr/memory</text>
<text text-anchor="middle" x="65.5" y="-7.5" font-family="Helvetica,sans-Serif" font-size="10.00">_resource.h</text>
</a>
</g>
</g>
<!-- Node2&#45;&gt;Node3 -->
<g id="edge2" class="edge">
<title>Node2&#45;&gt;Node3</title>
<path fill="none" stroke="midnightblue" d="M198.31,-72.9C172.41,-61.9 136.24,-46.54 108.19,-34.63"/>
<polygon fill="midnightblue" stroke="midnightblue" points="109.21,-31.26 98.64,-30.57 106.47,-37.7 109.21,-31.26"/>
</g>
<!-- Node5 -->
<g id="node4" class="node">
<title>Node5</title>
<g id="a_node4"><a xlink:href="throw__bad__alloc_8h.html" target="_top" xlink:title=" ">
<polygon fill="white" stroke="red" points="149.5,-0.5 149.5,-30.5 267.5,-30.5 267.5,-0.5 149.5,-0.5"/>
<text text-anchor="start" x="157.5" y="-18.5" font-family="Helvetica,sans-Serif" font-size="10.00">emlabcpp/pmr/throw</text>
<text text-anchor="middle" x="208.5" y="-7.5" font-family="Helvetica,sans-Serif" font-size="10.00">_bad_alloc.h</text>
</a>
</g>
</g>
<!-- Node2&#45;&gt;Node5 -->
<g id="edge3" class="edge">
<title>Node2&#45;&gt;Node5</title>
<path fill="none" stroke="midnightblue" d="M226.85,-72.73C223.82,-63.46 219.8,-51.15 216.3,-40.41"/>
<polygon fill="midnightblue" stroke="midnightblue" points="219.58,-39.17 213.15,-30.75 212.92,-41.34 219.58,-39.17"/>
</g>
<!-- Node2&#45;&gt;Node8 -->
<g id="edge4" class="edge">
<title>Node2&#45;&gt;Node8</title>
<path fill="none" stroke="midnightblue" d="M255.7,-72.9C274,-62.24 299.33,-47.48 319.49,-35.73"/>
<polygon fill="midnightblue" stroke="midnightblue" points="321.47,-38.63 328.35,-30.57 317.94,-32.58 321.47,-38.63"/>
</g>
<!-- Node10&#45;&gt;Node11 -->
<g id="edge6" class="edge">
<title>Node10&#45;&gt;Node11</title>
<path fill="none" stroke="midnightblue" d="M480.76,-67.36C478.34,-57.3 475.4,-45.1 473,-35.18"/>
<polygon fill="midnightblue" stroke="midnightblue" points="476.34,-34.07 470.59,-25.17 469.53,-35.72 476.34,-34.07"/>
</g>
<!-- Node12 -->
<g id="node8" class="node">
<title>Node12</title>
<g id="a_node8"><a xlink:title=" ">
<polygon fill="white" stroke="#bfbfbf" points="518,-6 518,-25 563,-25 563,-6 518,-6"/>
<text text-anchor="middle" x="540.5" y="-13" font-family="Helvetica,sans-Serif" font-size="10.00">utility</text>
</a>
</g>
</g>
<!-- Node10&#45;&gt;Node12 -->
<g id="edge7" class="edge">
<title>Node10&#45;&gt;Node12</title>
<path fill="none" stroke="midnightblue" d="M500.82,-67.36C509.18,-56.65 519.42,-43.52 527.4,-33.29"/>
<polygon fill="midnightblue" stroke="midnightblue" points="530.34,-35.21 533.73,-25.17 524.82,-30.91 530.34,-35.21"/>
</g>
</g>
</svg>
