<?xml version="1.0" encoding="UTF-8" standalone="no"?>
<!DOCTYPE svg PUBLIC "-//W3C//DTD SVG 1.1//EN"
 "http://www.w3.org/Graphics/SVG/1.1/DTD/svg11.dtd">
<!-- Generated by graphviz version 2.43.0 (0)
 -->
<!-- Title: include/emlabcpp/experimental/coro/request_reply.hpp Pages: 1 -->
<svg width="552pt" height="173pt"
 viewBox="0.00 0.00 551.50 173.00" xmlns="http://www.w3.org/2000/svg" xmlns:xlink="http://www.w3.org/1999/xlink">
<g id="graph0" class="graph" transform="scale(1 1) rotate(0) translate(4 169)">
<title>include/emlabcpp/experimental/coro/request_reply.hpp</title>
<polygon fill="white" stroke="transparent" points="-4,4 -4,-169 547.5,-169 547.5,4 -4,4"/>
<!-- Node1 -->
<g id="node1" class="node">
<title>Node1</title>
<g id="a_node1"><a xlink:title=" ">
<polygon fill="#bfbfbf" stroke="black" points="287,-134.5 287,-164.5 458,-164.5 458,-134.5 287,-134.5"/>
<text text-anchor="start" x="295" y="-152.5" font-family="Helvetica,sans-Serif" font-size="10.00">include/emlabcpp/experimental</text>
<text text-anchor="middle" x="372.5" y="-141.5" font-family="Helvetica,sans-Serif" font-size="10.00">/coro/request_reply.hpp</text>
</a>
</g>
</g>
<!-- Node2 -->
<g id="node2" class="node">
<title>Node2</title>
<g id="a_node2"><a xlink:href="memory__promise_8hpp.html" target="_top" xlink:title=" ">
<polygon fill="white" stroke="black" points="173.5,-73 173.5,-92 303.5,-92 303.5,-73 173.5,-73"/>
<text text-anchor="middle" x="238.5" y="-80" font-family="Helvetica,sans-Serif" font-size="10.00">./memory_promise.hpp</text>
</a>
</g>
</g>
<!-- Node1&#45;&gt;Node2 -->
<g id="edge1" class="edge">
<title>Node1&#45;&gt;Node2</title>
<path fill="none" stroke="midnightblue" d="M343.42,-134.4C320.12,-123.09 287.69,-107.36 265.07,-96.39"/>
<polygon fill="midnightblue" stroke="midnightblue" points="266.56,-93.22 256.04,-92.01 263.51,-99.52 266.56,-93.22"/>
</g>
<!-- Node8 -->
<g id="node5" class="node">
<title>Node8</title>
<g id="a_node5"><a xlink:href="owning__coroutine__handle_8hpp.html" target="_top" xlink:title=" ">
<polygon fill="white" stroke="black" points="360,-67.5 360,-97.5 469,-97.5 469,-67.5 360,-67.5"/>
<text text-anchor="start" x="368" y="-85.5" font-family="Helvetica,sans-Serif" font-size="10.00">./owning_coroutine</text>
<text text-anchor="middle" x="414.5" y="-74.5" font-family="Helvetica,sans-Serif" font-size="10.00">_handle.hpp</text>
</a>
</g>
</g>
<!-- Node1&#45;&gt;Node8 -->
<g id="edge4" class="edge">
<title>Node1&#45;&gt;Node8</title>
<path fill="none" stroke="midnightblue" d="M381.61,-134.4C386.95,-126.13 393.82,-115.51 399.9,-106.1"/>
<polygon fill="midnightblue" stroke="midnightblue" points="402.92,-107.88 405.4,-97.58 397.04,-104.08 402.92,-107.88"/>
</g>
<!-- Node9 -->
<g id="node6" class="node">
<title>Node9</title>
<g id="a_node6"><a xlink:title=" ">
<polygon fill="white" stroke="#bfbfbf" points="311.5,-6 311.5,-25 373.5,-25 373.5,-6 311.5,-6"/>
<text text-anchor="middle" x="342.5" y="-13" font-family="Helvetica,sans-Serif" font-size="10.00">coroutine</text>
</a>
</g>
</g>
<!-- Node1&#45;&gt;Node9 -->
<g id="edge7" class="edge">
<title>Node1&#45;&gt;Node9</title>
<path fill="none" stroke="midnightblue" d="M364.9,-134.34C359.95,-124.45 353.82,-110.77 350.5,-98 345.04,-76.98 343.24,-52.03 342.69,-35.32"/>
<polygon fill="midnightblue" stroke="midnightblue" points="346.18,-35.14 342.47,-25.22 339.19,-35.29 346.18,-35.14"/>
</g>
<!-- Node11 -->
<g id="node8" class="node">
<title>Node11</title>
<g id="a_node8"><a xlink:title=" ">
<polygon fill="white" stroke="#bfbfbf" points="487.5,-73 487.5,-92 543.5,-92 543.5,-73 487.5,-73"/>
<text text-anchor="middle" x="515.5" y="-80" font-family="Helvetica,sans-Serif" font-size="10.00">optional</text>
</a>
</g>
</g>
<!-- Node1&#45;&gt;Node11 -->
<g id="edge8" class="edge">
<title>Node1&#45;&gt;Node11</title>
<path fill="none" stroke="midnightblue" d="M403.53,-134.4C428.51,-123.04 463.32,-107.22 487.46,-96.24"/>
<polygon fill="midnightblue" stroke="midnightblue" points="489.13,-99.33 496.78,-92.01 486.23,-92.96 489.13,-99.33"/>
</g>
<!-- Node3 -->
<g id="node3" class="node">
<title>Node3</title>
<g id="a_node3"><a xlink:href="memory__resource_8hpp.html" target="_top" xlink:title=" ">
<polygon fill="white" stroke="red" points="0,-6 0,-25 167,-25 167,-6 0,-6"/>
<text text-anchor="middle" x="83.5" y="-13" font-family="Helvetica,sans-Serif" font-size="10.00">../../pmr/memory_resource.hpp</text>
</a>
</g>
</g>
<!-- Node2&#45;&gt;Node3 -->
<g id="edge2" class="edge">
<title>Node2&#45;&gt;Node3</title>
<path fill="none" stroke="midnightblue" d="M217.92,-72.87C191.17,-61.65 144.25,-41.98 113.53,-29.09"/>
<polygon fill="midnightblue" stroke="midnightblue" points="114.74,-25.81 104.17,-25.17 112.04,-32.26 114.74,-25.81"/>
</g>
<!-- Node5 -->
<g id="node4" class="node">
<title>Node5</title>
<g id="a_node4"><a xlink:href="throw__bad__alloc_8hpp.html" target="_top" xlink:title=" ">
<polygon fill="white" stroke="red" points="185.5,-0.5 185.5,-30.5 293.5,-30.5 293.5,-0.5 185.5,-0.5"/>
<text text-anchor="start" x="193.5" y="-18.5" font-family="Helvetica,sans-Serif" font-size="10.00">../../pmr/throw_bad</text>
<text text-anchor="middle" x="239.5" y="-7.5" font-family="Helvetica,sans-Serif" font-size="10.00">_alloc.hpp</text>
</a>
</g>
</g>
<!-- Node2&#45;&gt;Node5 -->
<g id="edge3" class="edge">
<title>Node2&#45;&gt;Node5</title>
<path fill="none" stroke="midnightblue" d="M238.63,-72.73C238.76,-64.54 238.96,-51.92 239.13,-40.71"/>
<polygon fill="midnightblue" stroke="midnightblue" points="242.63,-40.64 239.28,-30.59 235.63,-40.53 242.63,-40.64"/>
</g>
<!-- Node8&#45;&gt;Node9 -->
<g id="edge5" class="edge">
<title>Node8&#45;&gt;Node9</title>
<path fill="none" stroke="midnightblue" d="M398.88,-67.4C387.32,-56.96 371.58,-42.75 359.67,-32"/>
<polygon fill="midnightblue" stroke="midnightblue" points="361.9,-29.3 352.13,-25.19 357.21,-34.49 361.9,-29.3"/>
</g>
<!-- Node10 -->
<g id="node7" class="node">
<title>Node10</title>
<g id="a_node7"><a xlink:title=" ">
<polygon fill="white" stroke="#bfbfbf" points="392,-6 392,-25 437,-25 437,-6 392,-6"/>
<text text-anchor="middle" x="414.5" y="-13" font-family="Helvetica,sans-Serif" font-size="10.00">utility</text>
</a>
</g>
</g>
<!-- Node8&#45;&gt;Node10 -->
<g id="edge6" class="edge">
<title>Node8&#45;&gt;Node10</title>
<path fill="none" stroke="midnightblue" d="M414.5,-67.4C414.5,-58.06 414.5,-45.71 414.5,-35.52"/>
<polygon fill="midnightblue" stroke="midnightblue" points="418,-35.19 414.5,-25.19 411,-35.19 418,-35.19"/>
</g>
</g>
</svg>
