<?xml version="1.0" encoding="UTF-8" standalone="no"?>
<!DOCTYPE svg PUBLIC "-//W3C//DTD SVG 1.1//EN"
 "http://www.w3.org/Graphics/SVG/1.1/DTD/svg11.dtd">
<!-- Generated by graphviz version 2.43.0 (0)
 -->
<!-- Title: include/emlabcpp/result.h Pages: 1 -->
<svg width="702pt" height="252pt"
 viewBox="0.00 0.00 702.00 252.00" xmlns="http://www.w3.org/2000/svg" xmlns:xlink="http://www.w3.org/1999/xlink">
<g id="graph0" class="graph" transform="scale(1 1) rotate(0) translate(4 248)">
<title>include/emlabcpp/result.h</title>
<polygon fill="white" stroke="transparent" points="-4,4 -4,-248 698,-248 698,4 -4,4"/>
<!-- Node1 -->
<g id="node1" class="node">
<title>Node1</title>
<g id="a_node1"><a xlink:title=" ">
<polygon fill="#bfbfbf" stroke="black" points="490.5,-224.5 490.5,-243.5 633.5,-243.5 633.5,-224.5 490.5,-224.5"/>
<text text-anchor="middle" x="562" y="-231.5" font-family="Helvetica,sans-Serif" font-size="10.00">include/emlabcpp/result.h</text>
</a>
</g>
</g>
<!-- Node2 -->
<g id="node2" class="node">
<title>Node2</title>
<g id="a_node2"><a xlink:href="algorithm_8h.html" target="_top" xlink:title=" ">
<polygon fill="white" stroke="black" points="332.5,-168.5 332.5,-187.5 411.5,-187.5 411.5,-168.5 332.5,-168.5"/>
<text text-anchor="middle" x="372" y="-175.5" font-family="Helvetica,sans-Serif" font-size="10.00">./algorithm.h</text>
</a>
</g>
</g>
<!-- Node1&#45;&gt;Node2 -->
<g id="edge1" class="edge">
<title>Node1&#45;&gt;Node2</title>
<path fill="none" stroke="midnightblue" d="M531.89,-224.44C499.37,-215.2 447.42,-200.44 411.61,-190.26"/>
<polygon fill="midnightblue" stroke="midnightblue" points="412.54,-186.88 401.97,-187.52 410.63,-193.62 412.54,-186.88"/>
</g>
<!-- Node28 -->
<g id="node12" class="node">
<title>Node28</title>
<g id="a_node12"><a xlink:href="status_8h.html" target="_top" xlink:title=" ">
<polygon fill="white" stroke="black" points="531,-168.5 531,-187.5 593,-187.5 593,-168.5 531,-168.5"/>
<text text-anchor="middle" x="562" y="-175.5" font-family="Helvetica,sans-Serif" font-size="10.00">./status.h</text>
</a>
</g>
</g>
<!-- Node1&#45;&gt;Node28 -->
<g id="edge15" class="edge">
<title>Node1&#45;&gt;Node28</title>
<path fill="none" stroke="midnightblue" d="M562,-224.08C562,-217.01 562,-206.86 562,-197.99"/>
<polygon fill="midnightblue" stroke="midnightblue" points="565.5,-197.75 562,-187.75 558.5,-197.75 565.5,-197.75"/>
</g>
<!-- Node8 -->
<g id="node14" class="node">
<title>Node8</title>
<g id="a_node14"><a xlink:title=" ">
<polygon fill="white" stroke="#bfbfbf" points="611,-168.5 611,-187.5 661,-187.5 661,-168.5 611,-168.5"/>
<text text-anchor="middle" x="636" y="-175.5" font-family="Helvetica,sans-Serif" font-size="10.00">cstdint</text>
</a>
</g>
</g>
<!-- Node1&#45;&gt;Node8 -->
<g id="edge17" class="edge">
<title>Node1&#45;&gt;Node8</title>
<path fill="none" stroke="midnightblue" d="M573.89,-224.32C585.15,-216.11 602.29,-203.6 615.71,-193.81"/>
<polygon fill="midnightblue" stroke="midnightblue" points="617.88,-196.56 623.89,-187.83 613.75,-190.9 617.88,-196.56"/>
</g>
<!-- Node3 -->
<g id="node3" class="node">
<title>Node3</title>
<g id="a_node3"><a xlink:href="impl_8h.html" target="_top" xlink:title=" ">
<polygon fill="white" stroke="black" points="0,-112.5 0,-131.5 104,-131.5 104,-112.5 0,-112.5"/>
<text text-anchor="middle" x="52" y="-119.5" font-family="Helvetica,sans-Serif" font-size="10.00">./algorithm/impl.h</text>
</a>
</g>
</g>
<!-- Node2&#45;&gt;Node3 -->
<g id="edge2" class="edge">
<title>Node2&#45;&gt;Node3</title>
<path fill="none" stroke="midnightblue" d="M332.44,-170.32C277.36,-161.03 177.09,-144.11 112.56,-133.22"/>
<polygon fill="midnightblue" stroke="midnightblue" points="112.97,-129.74 102.52,-131.53 111.8,-136.64 112.97,-129.74"/>
</g>
<!-- Node4 -->
<g id="node4" class="node">
<title>Node4</title>
<g id="a_node4"><a xlink:href="types_8h.html" target="_top" xlink:title=" ">
<polygon fill="white" stroke="red" points="139,-0.5 139,-19.5 201,-19.5 201,-0.5 139,-0.5"/>
<text text-anchor="middle" x="170" y="-7.5" font-family="Helvetica,sans-Serif" font-size="10.00">../types.h</text>
</a>
</g>
</g>
<!-- Node2&#45;&gt;Node4 -->
<g id="edge10" class="edge">
<title>Node2&#45;&gt;Node4</title>
<path fill="none" stroke="midnightblue" d="M332.38,-172.4C284.54,-165.99 208.08,-152.79 189,-132 163.32,-104.03 164.22,-56.2 167.12,-29.83"/>
<polygon fill="midnightblue" stroke="midnightblue" points="170.62,-30.04 168.45,-19.67 163.68,-29.13 170.62,-30.04"/>
</g>
<!-- Node10 -->
<g id="node5" class="node">
<title>Node10</title>
<g id="a_node5"><a xlink:title=" ">
<polygon fill="white" stroke="#bfbfbf" points="95.5,-56.5 95.5,-75.5 136.5,-75.5 136.5,-56.5 95.5,-56.5"/>
<text text-anchor="middle" x="116" y="-63.5" font-family="Helvetica,sans-Serif" font-size="10.00">tuple</text>
</a>
</g>
</g>
<!-- Node2&#45;&gt;Node10 -->
<g id="edge14" class="edge">
<title>Node2&#45;&gt;Node10</title>
<path fill="none" stroke="midnightblue" d="M332.47,-177.83C286.14,-176.9 208.98,-169.21 156,-132 139.77,-120.6 128.85,-100.31 122.57,-85.43"/>
<polygon fill="midnightblue" stroke="midnightblue" points="125.69,-83.8 118.81,-75.74 119.17,-86.33 125.69,-83.8"/>
</g>
<!-- Node17 -->
<g id="node6" class="node">
<title>Node17</title>
<g id="a_node6"><a xlink:href="bounded_8h.html" target="_top" xlink:title=" ">
<polygon fill="white" stroke="red" points="198,-112.5 198,-131.5 272,-131.5 272,-112.5 198,-112.5"/>
<text text-anchor="middle" x="235" y="-119.5" font-family="Helvetica,sans-Serif" font-size="10.00">./bounded.h</text>
</a>
</g>
</g>
<!-- Node2&#45;&gt;Node17 -->
<g id="edge5" class="edge">
<title>Node2&#45;&gt;Node17</title>
<path fill="none" stroke="midnightblue" d="M350.29,-168.44C327.65,-159.52 291.93,-145.44 266.25,-135.32"/>
<polygon fill="midnightblue" stroke="midnightblue" points="267.19,-131.93 256.61,-131.52 264.63,-138.44 267.19,-131.93"/>
</g>
<!-- Node19 -->
<g id="node7" class="node">
<title>Node19</title>
<g id="a_node7"><a xlink:href="min__max_8h.html" target="_top" xlink:title=" ">
<polygon fill="white" stroke="red" points="290.5,-112.5 290.5,-131.5 367.5,-131.5 367.5,-112.5 290.5,-112.5"/>
<text text-anchor="middle" x="329" y="-119.5" font-family="Helvetica,sans-Serif" font-size="10.00">./min_max.h</text>
</a>
</g>
</g>
<!-- Node2&#45;&gt;Node19 -->
<g id="edge6" class="edge">
<title>Node2&#45;&gt;Node19</title>
<path fill="none" stroke="midnightblue" d="M364.9,-168.08C358.76,-160.38 349.73,-149.03 342.26,-139.65"/>
<polygon fill="midnightblue" stroke="midnightblue" points="344.94,-137.39 335.97,-131.75 339.46,-141.75 344.94,-137.39"/>
</g>
<!-- Node21 -->
<g id="node8" class="node">
<title>Node21</title>
<g id="a_node8"><a xlink:href="range_8h.html" target="_top" xlink:title=" ">
<polygon fill="white" stroke="red" points="385.5,-112.5 385.5,-131.5 444.5,-131.5 444.5,-112.5 385.5,-112.5"/>
<text text-anchor="middle" x="415" y="-119.5" font-family="Helvetica,sans-Serif" font-size="10.00">./range.h</text>
</a>
</g>
</g>
<!-- Node2&#45;&gt;Node21 -->
<g id="edge7" class="edge">
<title>Node2&#45;&gt;Node21</title>
<path fill="none" stroke="midnightblue" d="M379.1,-168.08C385.24,-160.38 394.27,-149.03 401.74,-139.65"/>
<polygon fill="midnightblue" stroke="midnightblue" points="404.54,-141.75 408.03,-131.75 399.06,-137.39 404.54,-141.75"/>
</g>
<!-- Node24 -->
<g id="node9" class="node">
<title>Node24</title>
<g id="a_node9"><a xlink:href="view_8h.html" target="_top" xlink:title=" ">
<polygon fill="white" stroke="red" points="388,-56.5 388,-75.5 442,-75.5 442,-56.5 388,-56.5"/>
<text text-anchor="middle" x="415" y="-63.5" font-family="Helvetica,sans-Serif" font-size="10.00">./view.h</text>
</a>
</g>
</g>
<!-- Node2&#45;&gt;Node24 -->
<g id="edge11" class="edge">
<title>Node2&#45;&gt;Node24</title>
<path fill="none" stroke="midnightblue" d="M403.02,-168.44C421.03,-161.69 442.23,-150.3 453,-132 463.01,-114.98 447.98,-95.42 433.98,-82.24"/>
<polygon fill="midnightblue" stroke="midnightblue" points="436.29,-79.61 426.47,-75.63 431.66,-84.86 436.29,-79.61"/>
</g>
<!-- Node26 -->
<g id="node10" class="node">
<title>Node26</title>
<g id="a_node10"><a xlink:title=" ">
<polygon fill="white" stroke="#bfbfbf" points="501.5,-112.5 501.5,-131.5 548.5,-131.5 548.5,-112.5 501.5,-112.5"/>
<text text-anchor="middle" x="525" y="-119.5" font-family="Helvetica,sans-Serif" font-size="10.00">cmath</text>
</a>
</g>
</g>
<!-- Node2&#45;&gt;Node26 -->
<g id="edge12" class="edge">
<title>Node2&#45;&gt;Node26</title>
<path fill="none" stroke="midnightblue" d="M396.24,-168.44C422.02,-159.35 462.96,-144.9 491.74,-134.74"/>
<polygon fill="midnightblue" stroke="midnightblue" points="493.11,-137.97 501.37,-131.34 490.78,-131.37 493.11,-137.97"/>
</g>
<!-- Node27 -->
<g id="node11" class="node">
<title>Node27</title>
<g id="a_node11"><a xlink:title=" ">
<polygon fill="white" stroke="#bfbfbf" points="566.5,-112.5 566.5,-131.5 615.5,-131.5 615.5,-112.5 566.5,-112.5"/>
<text text-anchor="middle" x="591" y="-119.5" font-family="Helvetica,sans-Serif" font-size="10.00">cstdlib</text>
</a>
</g>
</g>
<!-- Node2&#45;&gt;Node27 -->
<g id="edge13" class="edge">
<title>Node2&#45;&gt;Node27</title>
<path fill="none" stroke="midnightblue" d="M408.78,-168.43C444.3,-160.08 499.86,-146.84 556.35,-132.38"/>
<polygon fill="midnightblue" stroke="midnightblue" points="557.34,-135.74 566.15,-129.86 555.6,-128.96 557.34,-135.74"/>
</g>
<!-- Node3&#45;&gt;Node4 -->
<g id="edge3" class="edge">
<title>Node3&#45;&gt;Node4</title>
<path fill="none" stroke="midnightblue" d="M54.64,-112.42C59.16,-98.95 69.51,-72.65 86,-56 100.01,-41.85 119.42,-31.06 136.05,-23.59"/>
<polygon fill="midnightblue" stroke="midnightblue" points="137.63,-26.72 145.46,-19.58 134.89,-20.28 137.63,-26.72"/>
</g>
<!-- Node3&#45;&gt;Node10 -->
<g id="edge4" class="edge">
<title>Node3&#45;&gt;Node10</title>
<path fill="none" stroke="midnightblue" d="M62.28,-112.32C71.84,-104.26 86.28,-92.08 97.78,-82.37"/>
<polygon fill="midnightblue" stroke="midnightblue" points="100.14,-84.96 105.53,-75.83 95.63,-79.61 100.14,-84.96"/>
</g>
<!-- Node21&#45;&gt;Node24 -->
<g id="edge8" class="edge">
<title>Node21&#45;&gt;Node24</title>
<path fill="none" stroke="midnightblue" d="M415,-112.08C415,-105.01 415,-94.86 415,-85.99"/>
<polygon fill="midnightblue" stroke="midnightblue" points="418.5,-85.75 415,-75.75 411.5,-85.75 418.5,-85.75"/>
</g>
<!-- Node24&#45;&gt;Node4 -->
<g id="edge9" class="edge">
<title>Node24&#45;&gt;Node4</title>
<path fill="none" stroke="midnightblue" d="M387.84,-59.01C344.95,-49.56 261.24,-31.11 211.01,-20.04"/>
<polygon fill="midnightblue" stroke="midnightblue" points="211.64,-16.59 201.12,-17.86 210.13,-23.43 211.64,-16.59"/>
</g>
<!-- Node13 -->
<g id="node13" class="node">
<title>Node13</title>
<g id="a_node13"><a xlink:title=" ">
<polygon fill="white" stroke="#bfbfbf" points="634,-112.5 634,-131.5 694,-131.5 694,-112.5 634,-112.5"/>
<text text-anchor="middle" x="664" y="-119.5" font-family="Helvetica,sans-Serif" font-size="10.00">concepts</text>
</a>
</g>
</g>
<!-- Node28&#45;&gt;Node13 -->
<g id="edge16" class="edge">
<title>Node28&#45;&gt;Node13</title>
<path fill="none" stroke="midnightblue" d="M578.39,-168.32C594.67,-159.7 619.87,-146.36 638.72,-136.39"/>
<polygon fill="midnightblue" stroke="midnightblue" points="640.45,-139.43 647.65,-131.65 637.18,-133.24 640.45,-139.43"/>
</g>
</g>
</svg>
