<?xml version="1.0" encoding="UTF-8" standalone="no"?>
<!DOCTYPE svg PUBLIC "-//W3C//DTD SVG 1.1//EN"
 "http://www.w3.org/Graphics/SVG/1.1/DTD/svg11.dtd">
<!-- Generated by graphviz version 2.43.0 (0)
 -->
<!-- Title: include/emlabcpp/result.h Pages: 1 -->
<svg width="713pt" height="196pt"
 viewBox="0.00 0.00 712.89 196.00" xmlns="http://www.w3.org/2000/svg" xmlns:xlink="http://www.w3.org/1999/xlink">
<g id="graph0" class="graph" transform="scale(1 1) rotate(0) translate(4 192)">
<title>include/emlabcpp/result.h</title>
<polygon fill="white" stroke="transparent" points="-4,4 -4,-192 708.89,-192 708.89,4 -4,4"/>
<!-- Node1 -->
<g id="node1" class="node">
<title>Node1</title>
<g id="a_node1"><a xlink:title=" ">
<polygon fill="#bfbfbf" stroke="black" points="505.39,-168.5 505.39,-187.5 648.39,-187.5 648.39,-168.5 505.39,-168.5"/>
<text text-anchor="middle" x="576.89" y="-175.5" font-family="Helvetica,sans-Serif" font-size="10.00">include/emlabcpp/result.h</text>
</a>
</g>
</g>
<!-- Node2 -->
<g id="node2" class="node">
<title>Node2</title>
<g id="a_node2"><a xlink:href="algorithm_8h.html" target="_top" xlink:title=" ">
<polygon fill="white" stroke="black" points="351.39,-112.5 351.39,-131.5 430.39,-131.5 430.39,-112.5 351.39,-112.5"/>
<text text-anchor="middle" x="390.89" y="-119.5" font-family="Helvetica,sans-Serif" font-size="10.00">./algorithm.h</text>
</a>
</g>
</g>
<!-- Node1&#45;&gt;Node2 -->
<g id="edge1" class="edge">
<title>Node1&#45;&gt;Node2</title>
<path fill="none" stroke="midnightblue" d="M547.42,-168.44C515.72,-159.24 465.16,-144.56 430.12,-134.39"/>
<polygon fill="midnightblue" stroke="midnightblue" points="430.8,-130.94 420.22,-131.52 428.85,-137.67 430.8,-130.94"/>
</g>
<!-- Node28 -->
<g id="node12" class="node">
<title>Node28</title>
<g id="a_node12"><a xlink:href="status_8h.html" target="_top" xlink:title=" ">
<polygon fill="white" stroke="black" points="545.89,-112.5 545.89,-131.5 607.89,-131.5 607.89,-112.5 545.89,-112.5"/>
<text text-anchor="middle" x="576.89" y="-119.5" font-family="Helvetica,sans-Serif" font-size="10.00">./status.h</text>
</a>
</g>
</g>
<!-- Node1&#45;&gt;Node28 -->
<g id="edge14" class="edge">
<title>Node1&#45;&gt;Node28</title>
<path fill="none" stroke="midnightblue" d="M576.89,-168.08C576.89,-161.01 576.89,-150.86 576.89,-141.99"/>
<polygon fill="midnightblue" stroke="midnightblue" points="580.39,-141.75 576.89,-131.75 573.39,-141.75 580.39,-141.75"/>
</g>
<!-- Node8 -->
<g id="node14" class="node">
<title>Node8</title>
<g id="a_node14"><a xlink:title=" ">
<polygon fill="white" stroke="#bfbfbf" points="625.89,-112.5 625.89,-131.5 675.89,-131.5 675.89,-112.5 625.89,-112.5"/>
<text text-anchor="middle" x="650.89" y="-119.5" font-family="Helvetica,sans-Serif" font-size="10.00">cstdint</text>
</a>
</g>
</g>
<!-- Node1&#45;&gt;Node8 -->
<g id="edge16" class="edge">
<title>Node1&#45;&gt;Node8</title>
<path fill="none" stroke="midnightblue" d="M588.78,-168.32C600.04,-160.11 617.18,-147.6 630.6,-137.81"/>
<polygon fill="midnightblue" stroke="midnightblue" points="632.77,-140.56 638.78,-131.83 628.64,-134.9 632.77,-140.56"/>
</g>
<!-- Node3 -->
<g id="node3" class="node">
<title>Node3</title>
<g id="a_node3"><a xlink:href="impl_8h.html" target="_top" xlink:title=" ">
<polygon fill="white" stroke="black" points="14.89,-56.5 14.89,-75.5 118.89,-75.5 118.89,-56.5 14.89,-56.5"/>
<text text-anchor="middle" x="66.89" y="-63.5" font-family="Helvetica,sans-Serif" font-size="10.00">./algorithm/impl.h</text>
</a>
</g>
</g>
<!-- Node2&#45;&gt;Node3 -->
<g id="edge2" class="edge">
<title>Node2&#45;&gt;Node3</title>
<path fill="none" stroke="midnightblue" d="M351.16,-114.38C295.5,-105.1 193.81,-88.15 128.34,-77.24"/>
<polygon fill="midnightblue" stroke="midnightblue" points="128.6,-73.74 118.16,-75.55 127.45,-80.64 128.6,-73.74"/>
</g>
<!-- Node4 -->
<g id="node4" class="node">
<title>Node4</title>
<g id="a_node4"><a xlink:href="types_8h.html" target="_top" xlink:title=" ">
<polygon fill="white" stroke="red" points="397.89,-0.5 397.89,-19.5 459.89,-19.5 459.89,-0.5 397.89,-0.5"/>
<text text-anchor="middle" x="428.89" y="-7.5" font-family="Helvetica,sans-Serif" font-size="10.00">../types.h</text>
</a>
</g>
</g>
<!-- Node2&#45;&gt;Node4 -->
<g id="edge8" class="edge">
<title>Node2&#45;&gt;Node4</title>
<path fill="none" stroke="midnightblue" d="M430.65,-118.15C484.78,-113.35 577.29,-101.56 597.89,-76 634.16,-31 531.15,-17.11 470.22,-12.86"/>
<polygon fill="midnightblue" stroke="midnightblue" points="470.31,-9.35 460.11,-12.21 469.86,-16.34 470.31,-9.35"/>
</g>
<!-- Node10 -->
<g id="node5" class="node">
<title>Node10</title>
<g id="a_node5"><a xlink:title=" ">
<polygon fill="white" stroke="#bfbfbf" points="6.39,-0.5 6.39,-19.5 47.39,-19.5 47.39,-0.5 6.39,-0.5"/>
<text text-anchor="middle" x="26.89" y="-7.5" font-family="Helvetica,sans-Serif" font-size="10.00">tuple</text>
</a>
</g>
</g>
<!-- Node2&#45;&gt;Node10 -->
<g id="edge13" class="edge">
<title>Node2&#45;&gt;Node10</title>
<path fill="none" stroke="midnightblue" d="M351.14,-119.29C257.38,-114.86 28.59,-101.51 5.89,-76 -6.01,-62.63 3.42,-42.43 13.17,-28.1"/>
<polygon fill="midnightblue" stroke="midnightblue" points="16.27,-29.79 19.4,-19.66 10.64,-25.63 16.27,-29.79"/>
</g>
<!-- Node17 -->
<g id="node6" class="node">
<title>Node17</title>
<g id="a_node6"><a xlink:href="bounded_8h.html" target="_top" xlink:title=" ">
<polygon fill="white" stroke="red" points="136.89,-56.5 136.89,-75.5 210.89,-75.5 210.89,-56.5 136.89,-56.5"/>
<text text-anchor="middle" x="173.89" y="-63.5" font-family="Helvetica,sans-Serif" font-size="10.00">./bounded.h</text>
</a>
</g>
</g>
<!-- Node2&#45;&gt;Node17 -->
<g id="edge5" class="edge">
<title>Node2&#45;&gt;Node17</title>
<path fill="none" stroke="midnightblue" d="M356.51,-112.44C318.97,-103.1 258.76,-88.12 217.82,-77.93"/>
<polygon fill="midnightblue" stroke="midnightblue" points="218.66,-74.53 208.11,-75.52 216.97,-81.33 218.66,-74.53"/>
</g>
<!-- Node19 -->
<g id="node7" class="node">
<title>Node19</title>
<g id="a_node7"><a xlink:href="min__max_8h.html" target="_top" xlink:title=" ">
<polygon fill="white" stroke="red" points="229.39,-56.5 229.39,-75.5 306.39,-75.5 306.39,-56.5 229.39,-56.5"/>
<text text-anchor="middle" x="267.89" y="-63.5" font-family="Helvetica,sans-Serif" font-size="10.00">./min_max.h</text>
</a>
</g>
</g>
<!-- Node2&#45;&gt;Node19 -->
<g id="edge6" class="edge">
<title>Node2&#45;&gt;Node19</title>
<path fill="none" stroke="midnightblue" d="M371.4,-112.44C351.25,-103.6 319.57,-89.69 296.56,-79.59"/>
<polygon fill="midnightblue" stroke="midnightblue" points="297.85,-76.33 287.29,-75.52 295.04,-82.74 297.85,-76.33"/>
</g>
<!-- Node21 -->
<g id="node8" class="node">
<title>Node21</title>
<g id="a_node8"><a xlink:href="range_8h.html" target="_top" xlink:title=" ">
<polygon fill="white" stroke="red" points="324.39,-56.5 324.39,-75.5 383.39,-75.5 383.39,-56.5 324.39,-56.5"/>
<text text-anchor="middle" x="353.89" y="-63.5" font-family="Helvetica,sans-Serif" font-size="10.00">./range.h</text>
</a>
</g>
</g>
<!-- Node2&#45;&gt;Node21 -->
<g id="edge7" class="edge">
<title>Node2&#45;&gt;Node21</title>
<path fill="none" stroke="midnightblue" d="M384.78,-112.08C379.61,-104.53 372.04,-93.49 365.7,-84.23"/>
<polygon fill="midnightblue" stroke="midnightblue" points="368.43,-82.02 359.89,-75.75 362.65,-85.98 368.43,-82.02"/>
</g>
<!-- Node24 -->
<g id="node9" class="node">
<title>Node24</title>
<g id="a_node9"><a xlink:href="view_8h.html" target="_top" xlink:title=" ">
<polygon fill="white" stroke="red" points="401.89,-56.5 401.89,-75.5 455.89,-75.5 455.89,-56.5 401.89,-56.5"/>
<text text-anchor="middle" x="428.89" y="-63.5" font-family="Helvetica,sans-Serif" font-size="10.00">./view.h</text>
</a>
</g>
</g>
<!-- Node2&#45;&gt;Node24 -->
<g id="edge9" class="edge">
<title>Node2&#45;&gt;Node24</title>
<path fill="none" stroke="midnightblue" d="M397.17,-112.08C402.53,-104.46 410.41,-93.26 416.97,-83.94"/>
<polygon fill="midnightblue" stroke="midnightblue" points="419.84,-85.94 422.73,-75.75 414.11,-81.91 419.84,-85.94"/>
</g>
<!-- Node26 -->
<g id="node10" class="node">
<title>Node26</title>
<g id="a_node10"><a xlink:title=" ">
<polygon fill="white" stroke="#bfbfbf" points="474.39,-56.5 474.39,-75.5 521.39,-75.5 521.39,-56.5 474.39,-56.5"/>
<text text-anchor="middle" x="497.89" y="-63.5" font-family="Helvetica,sans-Serif" font-size="10.00">cmath</text>
</a>
</g>
</g>
<!-- Node2&#45;&gt;Node26 -->
<g id="edge11" class="edge">
<title>Node2&#45;&gt;Node26</title>
<path fill="none" stroke="midnightblue" d="M408.08,-112.32C425.24,-103.66 451.84,-90.24 471.64,-80.25"/>
<polygon fill="midnightblue" stroke="midnightblue" points="473.39,-83.28 480.74,-75.65 470.24,-77.04 473.39,-83.28"/>
</g>
<!-- Node27 -->
<g id="node11" class="node">
<title>Node27</title>
<g id="a_node11"><a xlink:title=" ">
<polygon fill="white" stroke="#bfbfbf" points="539.39,-56.5 539.39,-75.5 588.39,-75.5 588.39,-56.5 539.39,-56.5"/>
<text text-anchor="middle" x="563.89" y="-63.5" font-family="Helvetica,sans-Serif" font-size="10.00">cstdlib</text>
</a>
</g>
</g>
<!-- Node2&#45;&gt;Node27 -->
<g id="edge12" class="edge">
<title>Node2&#45;&gt;Node27</title>
<path fill="none" stroke="midnightblue" d="M418.3,-112.44C448.44,-103.04 496.9,-87.91 529.54,-77.72"/>
<polygon fill="midnightblue" stroke="midnightblue" points="530.63,-81.05 539.13,-74.73 528.54,-74.37 530.63,-81.05"/>
</g>
<!-- Node3&#45;&gt;Node4 -->
<g id="edge3" class="edge">
<title>Node3&#45;&gt;Node4</title>
<path fill="none" stroke="midnightblue" d="M119.14,-57.21C191.63,-46.39 321.22,-27.06 387.45,-17.18"/>
<polygon fill="midnightblue" stroke="midnightblue" points="388.14,-20.62 397.52,-15.68 387.11,-13.69 388.14,-20.62"/>
</g>
<!-- Node3&#45;&gt;Node10 -->
<g id="edge4" class="edge">
<title>Node3&#45;&gt;Node10</title>
<path fill="none" stroke="midnightblue" d="M60.28,-56.08C54.63,-48.46 46.35,-37.26 39.44,-27.94"/>
<polygon fill="midnightblue" stroke="midnightblue" points="42.14,-25.7 33.37,-19.75 36.51,-29.87 42.14,-25.7"/>
</g>
<!-- Node24&#45;&gt;Node4 -->
<g id="edge10" class="edge">
<title>Node24&#45;&gt;Node4</title>
<path fill="none" stroke="midnightblue" d="M428.89,-56.08C428.89,-49.01 428.89,-38.86 428.89,-29.99"/>
<polygon fill="midnightblue" stroke="midnightblue" points="432.39,-29.75 428.89,-19.75 425.39,-29.75 432.39,-29.75"/>
</g>
<!-- Node13 -->
<g id="node13" class="node">
<title>Node13</title>
<g id="a_node13"><a xlink:title=" ">
<polygon fill="white" stroke="#bfbfbf" points="644.89,-56.5 644.89,-75.5 704.89,-75.5 704.89,-56.5 644.89,-56.5"/>
<text text-anchor="middle" x="674.89" y="-63.5" font-family="Helvetica,sans-Serif" font-size="10.00">concepts</text>
</a>
</g>
</g>
<!-- Node28&#45;&gt;Node13 -->
<g id="edge15" class="edge">
<title>Node28&#45;&gt;Node13</title>
<path fill="none" stroke="midnightblue" d="M592.64,-112.32C608.21,-103.74 632.27,-90.49 650.35,-80.52"/>
<polygon fill="midnightblue" stroke="midnightblue" points="652.11,-83.55 659.18,-75.65 648.74,-77.42 652.11,-83.55"/>
</g>
</g>
</svg>
