<?xml version="1.0" encoding="UTF-8" standalone="no"?>
<!DOCTYPE svg PUBLIC "-//W3C//DTD SVG 1.1//EN"
 "http://www.w3.org/Graphics/SVG/1.1/DTD/svg11.dtd">
<!-- Generated by graphviz version 2.43.0 (0)
 -->
<!-- Title: include/emlabcpp/result.h Pages: 1 -->
<svg width="703pt" height="207pt"
 viewBox="0.00 0.00 703.42 207.00" xmlns="http://www.w3.org/2000/svg" xmlns:xlink="http://www.w3.org/1999/xlink">
<g id="graph0" class="graph" transform="scale(1 1) rotate(0) translate(4 203)">
<title>include/emlabcpp/result.h</title>
<polygon fill="white" stroke="transparent" points="-4,4 -4,-203 699.42,-203 699.42,4 -4,4"/>
<!-- Node1 -->
<g id="node1" class="node">
<title>Node1</title>
<g id="a_node1"><a xlink:title=" ">
<polygon fill="#bfbfbf" stroke="black" points="374.42,-179.5 374.42,-198.5 517.42,-198.5 517.42,-179.5 374.42,-179.5"/>
<text text-anchor="middle" x="445.92" y="-186.5" font-family="Helvetica,sans-Serif" font-size="10.00">include/emlabcpp/result.h</text>
</a>
</g>
</g>
<!-- Node2 -->
<g id="node2" class="node">
<title>Node2</title>
<g id="a_node2"><a xlink:href="algorithm_8h.html" target="_top" xlink:title=" ">
<polygon fill="white" stroke="black" points="331.92,-123.5 331.92,-142.5 455.92,-142.5 455.92,-123.5 331.92,-123.5"/>
<text text-anchor="middle" x="393.92" y="-130.5" font-family="Helvetica,sans-Serif" font-size="10.00">emlabcpp/algorithm.h</text>
</a>
</g>
</g>
<!-- Node1&#45;&gt;Node2 -->
<g id="edge1" class="edge">
<title>Node1&#45;&gt;Node2</title>
<path fill="none" stroke="midnightblue" d="M437.33,-179.08C429.76,-171.22 418.54,-159.57 409.4,-150.08"/>
<polygon fill="midnightblue" stroke="midnightblue" points="411.8,-147.53 402.35,-142.75 406.76,-152.38 411.8,-147.53"/>
</g>
<!-- Node8 -->
<g id="node11" class="node">
<title>Node8</title>
<g id="a_node11"><a xlink:title=" ">
<polygon fill="white" stroke="#bfbfbf" points="473.92,-123.5 473.92,-142.5 523.92,-142.5 523.92,-123.5 473.92,-123.5"/>
<text text-anchor="middle" x="498.92" y="-130.5" font-family="Helvetica,sans-Serif" font-size="10.00">cstdint</text>
</a>
</g>
</g>
<!-- Node1&#45;&gt;Node8 -->
<g id="edge13" class="edge">
<title>Node1&#45;&gt;Node8</title>
<path fill="none" stroke="midnightblue" d="M454.67,-179.08C462.39,-171.22 473.82,-159.57 483.14,-150.08"/>
<polygon fill="midnightblue" stroke="midnightblue" points="485.82,-152.34 490.33,-142.75 480.83,-147.44 485.82,-152.34"/>
</g>
<!-- Node3 -->
<g id="node3" class="node">
<title>Node3</title>
<g id="a_node3"><a xlink:href="impl_8h.html" target="_top" xlink:title=" ">
<polygon fill="white" stroke="black" points="132.42,-56.5 132.42,-86.5 247.42,-86.5 247.42,-56.5 132.42,-56.5"/>
<text text-anchor="start" x="140.42" y="-74.5" font-family="Helvetica,sans-Serif" font-size="10.00">emlabcpp/algorithm</text>
<text text-anchor="middle" x="189.92" y="-63.5" font-family="Helvetica,sans-Serif" font-size="10.00">/impl.h</text>
</a>
</g>
</g>
<!-- Node2&#45;&gt;Node3 -->
<g id="edge2" class="edge">
<title>Node2&#45;&gt;Node3</title>
<path fill="none" stroke="midnightblue" d="M364.69,-123.48C334.35,-114.63 286.09,-100.55 247.96,-89.43"/>
<polygon fill="midnightblue" stroke="midnightblue" points="248.58,-85.96 238,-86.52 246.62,-92.68 248.58,-85.96"/>
</g>
<!-- Node4 -->
<g id="node4" class="node">
<title>Node4</title>
<g id="a_node4"><a xlink:href="types_8h.html" target="_top" xlink:title=" ">
<polygon fill="white" stroke="red" points="12.92,-0.5 12.92,-19.5 116.92,-19.5 116.92,-0.5 12.92,-0.5"/>
<text text-anchor="middle" x="64.92" y="-7.5" font-family="Helvetica,sans-Serif" font-size="10.00">emlabcpp/types.h</text>
</a>
</g>
</g>
<!-- Node2&#45;&gt;Node4 -->
<g id="edge7" class="edge">
<title>Node2&#45;&gt;Node4</title>
<path fill="none" stroke="midnightblue" d="M331.65,-129.24C227.49,-123.98 27.17,-110.86 5.92,-87 -3.24,-76.71 -0.19,-68.35 5.92,-56 12.52,-42.66 25.18,-32.19 37.09,-24.73"/>
<polygon fill="midnightblue" stroke="midnightblue" points="39.04,-27.64 45.94,-19.6 35.53,-21.59 39.04,-27.64"/>
</g>
<!-- Node10 -->
<g id="node5" class="node">
<title>Node10</title>
<g id="a_node5"><a xlink:title=" ">
<polygon fill="white" stroke="#bfbfbf" points="350.42,-0.5 350.42,-19.5 391.42,-19.5 391.42,-0.5 350.42,-0.5"/>
<text text-anchor="middle" x="370.92" y="-7.5" font-family="Helvetica,sans-Serif" font-size="10.00">tuple</text>
</a>
</g>
</g>
<!-- Node2&#45;&gt;Node10 -->
<g id="edge12" class="edge">
<title>Node2&#45;&gt;Node10</title>
<path fill="none" stroke="midnightblue" d="M446.27,-123.49C496.61,-113 561.31,-91.98 533.92,-56 517.98,-35.06 444.4,-21.38 401.75,-15.06"/>
<polygon fill="midnightblue" stroke="midnightblue" points="402.02,-11.56 391.63,-13.61 401.03,-18.49 402.02,-11.56"/>
</g>
<!-- Node17 -->
<g id="node6" class="node">
<title>Node17</title>
<g id="a_node6"><a xlink:href="bounded_8h.html" target="_top" xlink:title=" ">
<polygon fill="white" stroke="red" points="265.42,-62 265.42,-81 384.42,-81 384.42,-62 265.42,-62"/>
<text text-anchor="middle" x="324.92" y="-69" font-family="Helvetica,sans-Serif" font-size="10.00">emlabcpp/bounded.h</text>
</a>
</g>
</g>
<!-- Node2&#45;&gt;Node17 -->
<g id="edge5" class="edge">
<title>Node2&#45;&gt;Node17</title>
<path fill="none" stroke="midnightblue" d="M384.03,-123.48C373.27,-114.2 355.85,-99.17 342.7,-87.83"/>
<polygon fill="midnightblue" stroke="midnightblue" points="344.65,-84.89 334.79,-81.01 340.07,-90.19 344.65,-84.89"/>
</g>
<!-- Node25 -->
<g id="node7" class="node">
<title>Node25</title>
<g id="a_node7"><a xlink:href="min__max_8h.html" target="_top" xlink:title=" ">
<polygon fill="white" stroke="red" points="402.92,-62 402.92,-81 524.92,-81 524.92,-62 402.92,-62"/>
<text text-anchor="middle" x="463.92" y="-69" font-family="Helvetica,sans-Serif" font-size="10.00">emlabcpp/min_max.h</text>
</a>
</g>
</g>
<!-- Node2&#45;&gt;Node25 -->
<g id="edge6" class="edge">
<title>Node2&#45;&gt;Node25</title>
<path fill="none" stroke="midnightblue" d="M403.95,-123.48C414.97,-114.11 432.88,-98.88 446.26,-87.51"/>
<polygon fill="midnightblue" stroke="midnightblue" points="448.56,-90.15 453.91,-81.01 444.02,-84.82 448.56,-90.15"/>
</g>
<!-- Node30 -->
<g id="node8" class="node">
<title>Node30</title>
<g id="a_node8"><a xlink:href="view_8h.html" target="_top" xlink:title=" ">
<polygon fill="white" stroke="red" points="15.42,-62 15.42,-81 114.42,-81 114.42,-62 15.42,-62"/>
<text text-anchor="middle" x="64.92" y="-69" font-family="Helvetica,sans-Serif" font-size="10.00">emlabcpp/view.h</text>
</a>
</g>
</g>
<!-- Node2&#45;&gt;Node30 -->
<g id="edge8" class="edge">
<title>Node2&#45;&gt;Node30</title>
<path fill="none" stroke="midnightblue" d="M334.19,-123.49C279.11,-115.31 195.18,-102.01 122.92,-87 117.78,-85.93 112.41,-84.72 107.09,-83.46"/>
<polygon fill="midnightblue" stroke="midnightblue" points="107.57,-79.98 97.03,-81.02 105.92,-86.78 107.57,-79.98"/>
</g>
<!-- Node40 -->
<g id="node9" class="node">
<title>Node40</title>
<g id="a_node9"><a xlink:title=" ">
<polygon fill="white" stroke="#bfbfbf" points="581.42,-62 581.42,-81 628.42,-81 628.42,-62 581.42,-62"/>
<text text-anchor="middle" x="604.92" y="-69" font-family="Helvetica,sans-Serif" font-size="10.00">cmath</text>
</a>
</g>
</g>
<!-- Node2&#45;&gt;Node40 -->
<g id="edge10" class="edge">
<title>Node2&#45;&gt;Node40</title>
<path fill="none" stroke="midnightblue" d="M431.72,-123.44C467,-115.14 520.95,-101.7 566.92,-87 569.33,-86.23 571.81,-85.39 574.3,-84.51"/>
<polygon fill="midnightblue" stroke="midnightblue" points="575.58,-87.77 583.76,-81.05 573.17,-81.2 575.58,-87.77"/>
</g>
<!-- Node41 -->
<g id="node10" class="node">
<title>Node41</title>
<g id="a_node10"><a xlink:title=" ">
<polygon fill="white" stroke="#bfbfbf" points="646.42,-62 646.42,-81 695.42,-81 695.42,-62 646.42,-62"/>
<text text-anchor="middle" x="670.92" y="-69" font-family="Helvetica,sans-Serif" font-size="10.00">cstdlib</text>
</a>
</g>
</g>
<!-- Node2&#45;&gt;Node41 -->
<g id="edge11" class="edge">
<title>Node2&#45;&gt;Node41</title>
<path fill="none" stroke="midnightblue" d="M448.33,-123.47C509.06,-113.69 603.33,-97.63 637.92,-87 639.85,-86.41 641.82,-85.73 643.78,-85.01"/>
<polygon fill="midnightblue" stroke="midnightblue" points="645.45,-88.11 653.4,-81.1 642.81,-81.62 645.45,-88.11"/>
</g>
<!-- Node3&#45;&gt;Node4 -->
<g id="edge3" class="edge">
<title>Node3&#45;&gt;Node4</title>
<path fill="none" stroke="midnightblue" d="M160.3,-56.4C139.7,-46.59 112.44,-33.62 92.34,-24.05"/>
<polygon fill="midnightblue" stroke="midnightblue" points="93.64,-20.8 83.11,-19.66 90.63,-27.12 93.64,-20.8"/>
</g>
<!-- Node3&#45;&gt;Node10 -->
<g id="edge4" class="edge">
<title>Node3&#45;&gt;Node10</title>
<path fill="none" stroke="midnightblue" d="M232.81,-56.4C265.92,-45.52 310.9,-30.73 340.41,-21.03"/>
<polygon fill="midnightblue" stroke="midnightblue" points="341.75,-24.27 350.15,-17.83 339.56,-17.62 341.75,-24.27"/>
</g>
<!-- Node30&#45;&gt;Node4 -->
<g id="edge9" class="edge">
<title>Node30&#45;&gt;Node4</title>
<path fill="none" stroke="midnightblue" d="M64.92,-61.98C64.92,-53.58 64.92,-40.48 64.92,-29.66"/>
<polygon fill="midnightblue" stroke="midnightblue" points="68.42,-29.51 64.92,-19.51 61.42,-29.51 68.42,-29.51"/>
</g>
</g>
</svg>
