<?xml version="1.0" encoding="UTF-8" standalone="no"?>
<!DOCTYPE svg PUBLIC "-//W3C//DTD SVG 1.1//EN"
 "http://www.w3.org/Graphics/SVG/1.1/DTD/svg11.dtd">
<!-- Generated by graphviz version 2.43.0 (0)
 -->
<!-- Title: include/emlabcpp/result.h Pages: 1 -->
<svg width="658pt" height="196pt"
 viewBox="0.00 0.00 657.50 196.00" xmlns="http://www.w3.org/2000/svg" xmlns:xlink="http://www.w3.org/1999/xlink">
<g id="graph0" class="graph" transform="scale(1 1) rotate(0) translate(4 192)">
<title>include/emlabcpp/result.h</title>
<polygon fill="white" stroke="transparent" points="-4,4 -4,-192 653.5,-192 653.5,4 -4,4"/>
<!-- Node1 -->
<g id="node1" class="node">
<title>Node1</title>
<g id="a_node1"><a xlink:title=" ">
<polygon fill="#bfbfbf" stroke="black" points="332.5,-168.5 332.5,-187.5 475.5,-187.5 475.5,-168.5 332.5,-168.5"/>
<text text-anchor="middle" x="404" y="-175.5" font-family="Helvetica,sans-Serif" font-size="10.00">include/emlabcpp/result.h</text>
</a>
</g>
</g>
<!-- Node2 -->
<g id="node2" class="node">
<title>Node2</title>
<g id="a_node2"><a xlink:href="algorithm_8h.html" target="_top" xlink:title=" ">
<polygon fill="white" stroke="black" points="323.5,-112.5 323.5,-131.5 402.5,-131.5 402.5,-112.5 323.5,-112.5"/>
<text text-anchor="middle" x="363" y="-119.5" font-family="Helvetica,sans-Serif" font-size="10.00">./algorithm.h</text>
</a>
</g>
</g>
<!-- Node1&#45;&gt;Node2 -->
<g id="edge1" class="edge">
<title>Node1&#45;&gt;Node2</title>
<path fill="none" stroke="midnightblue" d="M397.23,-168.08C391.44,-160.46 382.94,-149.26 375.86,-139.94"/>
<polygon fill="midnightblue" stroke="midnightblue" points="378.48,-137.6 369.64,-131.75 372.9,-141.83 378.48,-137.6"/>
</g>
<!-- Node8 -->
<g id="node12" class="node">
<title>Node8</title>
<g id="a_node12"><a xlink:title=" ">
<polygon fill="white" stroke="#bfbfbf" points="421,-112.5 421,-131.5 471,-131.5 471,-112.5 421,-112.5"/>
<text text-anchor="middle" x="446" y="-119.5" font-family="Helvetica,sans-Serif" font-size="10.00">cstdint</text>
</a>
</g>
</g>
<!-- Node1&#45;&gt;Node8 -->
<g id="edge14" class="edge">
<title>Node1&#45;&gt;Node8</title>
<path fill="none" stroke="midnightblue" d="M410.94,-168.08C416.93,-160.38 425.75,-149.03 433.05,-139.65"/>
<polygon fill="midnightblue" stroke="midnightblue" points="435.82,-141.79 439.19,-131.75 430.29,-137.5 435.82,-141.79"/>
</g>
<!-- Node3 -->
<g id="node3" class="node">
<title>Node3</title>
<g id="a_node3"><a xlink:href="impl_8h.html" target="_top" xlink:title=" ">
<polygon fill="white" stroke="black" points="110,-56.5 110,-75.5 214,-75.5 214,-56.5 110,-56.5"/>
<text text-anchor="middle" x="162" y="-63.5" font-family="Helvetica,sans-Serif" font-size="10.00">./algorithm/impl.h</text>
</a>
</g>
</g>
<!-- Node2&#45;&gt;Node3 -->
<g id="edge2" class="edge">
<title>Node2&#45;&gt;Node3</title>
<path fill="none" stroke="midnightblue" d="M331.15,-112.44C296.6,-103.16 241.32,-88.31 203.42,-78.13"/>
<polygon fill="midnightblue" stroke="midnightblue" points="204.27,-74.73 193.7,-75.52 202.45,-81.49 204.27,-74.73"/>
</g>
<!-- Node4 -->
<g id="node4" class="node">
<title>Node4</title>
<g id="a_node4"><a xlink:href="types_8h.html" target="_top" xlink:title=" ">
<polygon fill="white" stroke="red" points="51,-0.5 51,-19.5 113,-19.5 113,-0.5 51,-0.5"/>
<text text-anchor="middle" x="82" y="-7.5" font-family="Helvetica,sans-Serif" font-size="10.00">../types.h</text>
</a>
</g>
</g>
<!-- Node2&#45;&gt;Node4 -->
<g id="edge8" class="edge">
<title>Node2&#45;&gt;Node4</title>
<path fill="none" stroke="midnightblue" d="M323.44,-119.23C258.49,-115.52 133.25,-104.76 101,-76 87.99,-64.4 83.68,-44.44 82.35,-29.7"/>
<polygon fill="midnightblue" stroke="midnightblue" points="85.84,-29.46 81.82,-19.66 78.85,-29.83 85.84,-29.46"/>
</g>
<!-- Node10 -->
<g id="node5" class="node">
<title>Node10</title>
<g id="a_node5"><a xlink:title=" ">
<polygon fill="white" stroke="#bfbfbf" points="313.5,-0.5 313.5,-19.5 354.5,-19.5 354.5,-0.5 313.5,-0.5"/>
<text text-anchor="middle" x="334" y="-7.5" font-family="Helvetica,sans-Serif" font-size="10.00">tuple</text>
</a>
</g>
</g>
<!-- Node2&#45;&gt;Node10 -->
<g id="edge13" class="edge">
<title>Node2&#45;&gt;Node10</title>
<path fill="none" stroke="midnightblue" d="M400.9,-112.42C433.78,-104.12 477.69,-90.67 488,-76 493.11,-68.73 493.33,-63.11 488,-56 473.21,-36.27 405.19,-22.3 364.66,-15.57"/>
<polygon fill="midnightblue" stroke="midnightblue" points="365.19,-12.11 354.76,-13.97 364.07,-19.02 365.19,-12.11"/>
</g>
<!-- Node17 -->
<g id="node6" class="node">
<title>Node17</title>
<g id="a_node6"><a xlink:href="bounded_8h.html" target="_top" xlink:title=" ">
<polygon fill="white" stroke="red" points="232,-56.5 232,-75.5 306,-75.5 306,-56.5 232,-56.5"/>
<text text-anchor="middle" x="269" y="-63.5" font-family="Helvetica,sans-Serif" font-size="10.00">./bounded.h</text>
</a>
</g>
</g>
<!-- Node2&#45;&gt;Node17 -->
<g id="edge5" class="edge">
<title>Node2&#45;&gt;Node17</title>
<path fill="none" stroke="midnightblue" d="M347.9,-112.32C333.1,-103.82 310.31,-90.73 293.02,-80.8"/>
<polygon fill="midnightblue" stroke="midnightblue" points="294.48,-77.6 284.07,-75.65 290.99,-83.67 294.48,-77.6"/>
</g>
<!-- Node19 -->
<g id="node7" class="node">
<title>Node19</title>
<g id="a_node7"><a xlink:href="min__max_8h.html" target="_top" xlink:title=" ">
<polygon fill="white" stroke="red" points="324.5,-56.5 324.5,-75.5 401.5,-75.5 401.5,-56.5 324.5,-56.5"/>
<text text-anchor="middle" x="363" y="-63.5" font-family="Helvetica,sans-Serif" font-size="10.00">./min_max.h</text>
</a>
</g>
</g>
<!-- Node2&#45;&gt;Node19 -->
<g id="edge6" class="edge">
<title>Node2&#45;&gt;Node19</title>
<path fill="none" stroke="midnightblue" d="M363,-112.08C363,-105.01 363,-94.86 363,-85.99"/>
<polygon fill="midnightblue" stroke="midnightblue" points="366.5,-85.75 363,-75.75 359.5,-85.75 366.5,-85.75"/>
</g>
<!-- Node21 -->
<g id="node8" class="node">
<title>Node21</title>
<g id="a_node8"><a xlink:href="range_8h.html" target="_top" xlink:title=" ">
<polygon fill="white" stroke="red" points="419.5,-56.5 419.5,-75.5 478.5,-75.5 478.5,-56.5 419.5,-56.5"/>
<text text-anchor="middle" x="449" y="-63.5" font-family="Helvetica,sans-Serif" font-size="10.00">./range.h</text>
</a>
</g>
</g>
<!-- Node2&#45;&gt;Node21 -->
<g id="edge7" class="edge">
<title>Node2&#45;&gt;Node21</title>
<path fill="none" stroke="midnightblue" d="M376.82,-112.32C390.23,-103.9 410.82,-90.97 426.59,-81.07"/>
<polygon fill="midnightblue" stroke="midnightblue" points="428.61,-83.94 435.22,-75.65 424.89,-78.01 428.61,-83.94"/>
</g>
<!-- Node24 -->
<g id="node9" class="node">
<title>Node24</title>
<g id="a_node9"><a xlink:href="view_8h.html" target="_top" xlink:title=" ">
<polygon fill="white" stroke="red" points="0,-56.5 0,-75.5 54,-75.5 54,-56.5 0,-56.5"/>
<text text-anchor="middle" x="27" y="-63.5" font-family="Helvetica,sans-Serif" font-size="10.00">./view.h</text>
</a>
</g>
</g>
<!-- Node2&#45;&gt;Node24 -->
<g id="edge9" class="edge">
<title>Node2&#45;&gt;Node24</title>
<path fill="none" stroke="midnightblue" d="M323.26,-115.77C266.47,-108.11 158.92,-92.9 68,-76 66.75,-75.77 65.48,-75.53 64.2,-75.28"/>
<polygon fill="midnightblue" stroke="midnightblue" points="64.8,-71.82 54.3,-73.25 63.39,-78.68 64.8,-71.82"/>
</g>
<!-- Node26 -->
<g id="node10" class="node">
<title>Node26</title>
<g id="a_node10"><a xlink:title=" ">
<polygon fill="white" stroke="#bfbfbf" points="535.5,-56.5 535.5,-75.5 582.5,-75.5 582.5,-56.5 535.5,-56.5"/>
<text text-anchor="middle" x="559" y="-63.5" font-family="Helvetica,sans-Serif" font-size="10.00">cmath</text>
</a>
</g>
</g>
<!-- Node2&#45;&gt;Node26 -->
<g id="edge11" class="edge">
<title>Node2&#45;&gt;Node26</title>
<path fill="none" stroke="midnightblue" d="M394.06,-112.44C429.97,-102.55 488.86,-86.32 525.7,-76.17"/>
<polygon fill="midnightblue" stroke="midnightblue" points="526.76,-79.51 535.47,-73.48 524.9,-72.76 526.76,-79.51"/>
</g>
<!-- Node27 -->
<g id="node11" class="node">
<title>Node27</title>
<g id="a_node11"><a xlink:title=" ">
<polygon fill="white" stroke="#bfbfbf" points="600.5,-56.5 600.5,-75.5 649.5,-75.5 649.5,-56.5 600.5,-56.5"/>
<text text-anchor="middle" x="625" y="-63.5" font-family="Helvetica,sans-Serif" font-size="10.00">cstdlib</text>
</a>
</g>
</g>
<!-- Node2&#45;&gt;Node27 -->
<g id="edge12" class="edge">
<title>Node2&#45;&gt;Node27</title>
<path fill="none" stroke="midnightblue" d="M402.64,-113.57C454.34,-103.82 542.98,-86.9 590.21,-76.27"/>
<polygon fill="midnightblue" stroke="midnightblue" points="591.22,-79.63 600.18,-73.97 589.65,-72.81 591.22,-79.63"/>
</g>
<!-- Node3&#45;&gt;Node4 -->
<g id="edge3" class="edge">
<title>Node3&#45;&gt;Node4</title>
<path fill="none" stroke="midnightblue" d="M149.15,-56.32C136.78,-47.98 117.87,-35.21 103.26,-25.35"/>
<polygon fill="midnightblue" stroke="midnightblue" points="105.07,-22.35 94.82,-19.65 101.15,-28.15 105.07,-22.35"/>
</g>
<!-- Node3&#45;&gt;Node10 -->
<g id="edge4" class="edge">
<title>Node3&#45;&gt;Node10</title>
<path fill="none" stroke="midnightblue" d="M189.25,-56.44C220.37,-46.68 271.13,-30.74 303.53,-20.57"/>
<polygon fill="midnightblue" stroke="midnightblue" points="304.86,-23.82 313.35,-17.48 302.76,-17.14 304.86,-23.82"/>
</g>
<!-- Node24&#45;&gt;Node4 -->
<g id="edge10" class="edge">
<title>Node24&#45;&gt;Node4</title>
<path fill="none" stroke="midnightblue" d="M36.08,-56.08C44.17,-48.14 56.2,-36.34 65.91,-26.8"/>
<polygon fill="midnightblue" stroke="midnightblue" points="68.4,-29.25 73.09,-19.75 63.5,-24.26 68.4,-29.25"/>
</g>
</g>
</svg>
