<?xml version="1.0" encoding="UTF-8" standalone="no"?>
<!DOCTYPE svg PUBLIC "-//W3C//DTD SVG 1.1//EN"
 "http://www.w3.org/Graphics/SVG/1.1/DTD/svg11.dtd">
<!-- Generated by graphviz version 2.43.0 (0)
 -->
<!-- Title: include/emlabcpp/experimental/coro/round_robin_executor.h Pages: 1 -->
<svg width="684pt" height="386pt"
 viewBox="0.00 0.00 684.41 386.00" xmlns="http://www.w3.org/2000/svg" xmlns:xlink="http://www.w3.org/1999/xlink">
<g id="graph0" class="graph" transform="scale(1 1) rotate(0) translate(4 382)">
<title>include/emlabcpp/experimental/coro/round_robin_executor.h</title>
<polygon fill="white" stroke="transparent" points="-4,4 -4,-382 680.41,-382 680.41,4 -4,4"/>
<!-- Node1 -->
<g id="node1" class="node">
<title>Node1</title>
<g id="a_node1"><a xlink:title=" ">
<polygon fill="#bfbfbf" stroke="black" points="286.81,-347.5 286.81,-377.5 457.81,-377.5 457.81,-347.5 286.81,-347.5"/>
<text text-anchor="start" x="294.81" y="-365.5" font-family="Helvetica,sans-Serif" font-size="10.00">include/emlabcpp/experimental</text>
<text text-anchor="middle" x="372.31" y="-354.5" font-family="Helvetica,sans-Serif" font-size="10.00">/coro/round_robin_executor.h</text>
</a>
</g>
</g>
<!-- Node2 -->
<g id="node2" class="node">
<title>Node2</title>
<g id="a_node2"><a xlink:href="algorithm_8h.html" target="_top" xlink:title=" ">
<polygon fill="white" stroke="black" points="357.31,-168.5 357.31,-187.5 481.31,-187.5 481.31,-168.5 357.31,-168.5"/>
<text text-anchor="middle" x="419.31" y="-175.5" font-family="Helvetica,sans-Serif" font-size="10.00">emlabcpp/algorithm.h</text>
</a>
</g>
</g>
<!-- Node1&#45;&gt;Node2 -->
<g id="edge1" class="edge">
<title>Node1&#45;&gt;Node2</title>
<path fill="none" stroke="midnightblue" d="M403.71,-347.3C418.87,-338.87 435.96,-326.72 446.31,-311 467.79,-278.34 473.2,-260.54 459.31,-224 454.97,-212.6 446.27,-202.24 438.1,-194.34"/>
<polygon fill="midnightblue" stroke="midnightblue" points="440.35,-191.66 430.57,-187.57 435.66,-196.86 440.35,-191.66"/>
</g>
<!-- Node28 -->
<g id="node12" class="node">
<title>Node28</title>
<g id="a_node12"><a xlink:href="memory__resource_8h.html" target="_top" xlink:title=" ">
<polygon fill="white" stroke="black" points="306.81,-280.5 306.81,-310.5 437.81,-310.5 437.81,-280.5 306.81,-280.5"/>
<text text-anchor="start" x="314.81" y="-298.5" font-family="Helvetica,sans-Serif" font-size="10.00">emlabcpp/pmr/memory</text>
<text text-anchor="middle" x="372.31" y="-287.5" font-family="Helvetica,sans-Serif" font-size="10.00">_resource.h</text>
</a>
</g>
</g>
<!-- Node1&#45;&gt;Node28 -->
<g id="edge15" class="edge">
<title>Node1&#45;&gt;Node28</title>
<path fill="none" stroke="midnightblue" d="M372.31,-347.4C372.31,-339.64 372.31,-329.81 372.31,-320.86"/>
<polygon fill="midnightblue" stroke="midnightblue" points="375.81,-320.58 372.31,-310.58 368.81,-320.58 375.81,-320.58"/>
</g>
<!-- Node32 -->
<g id="node15" class="node">
<title>Node32</title>
<g id="a_node15"><a xlink:href="static__circular__buffer_8h.html" target="_top" xlink:title=" ">
<polygon fill="white" stroke="black" points="127.31,-280.5 127.31,-310.5 263.31,-310.5 263.31,-280.5 127.31,-280.5"/>
<text text-anchor="start" x="135.31" y="-298.5" font-family="Helvetica,sans-Serif" font-size="10.00">emlabcpp/static_circular</text>
<text text-anchor="middle" x="195.31" y="-287.5" font-family="Helvetica,sans-Serif" font-size="10.00">_buffer.h</text>
</a>
</g>
</g>
<!-- Node1&#45;&gt;Node32 -->
<g id="edge19" class="edge">
<title>Node1&#45;&gt;Node32</title>
<path fill="none" stroke="midnightblue" d="M333.9,-347.4C307.34,-337.64 271.81,-324.59 243.37,-314.15"/>
<polygon fill="midnightblue" stroke="midnightblue" points="244.23,-310.74 233.64,-310.58 241.82,-317.31 244.23,-310.74"/>
</g>
<!-- Node3 -->
<g id="node3" class="node">
<title>Node3</title>
<g id="a_node3"><a xlink:href="impl_8h.html" target="_top" xlink:title=" ">
<polygon fill="white" stroke="black" points="554.31,-112.5 554.31,-131.5 658.31,-131.5 658.31,-112.5 554.31,-112.5"/>
<text text-anchor="middle" x="606.31" y="-119.5" font-family="Helvetica,sans-Serif" font-size="10.00">./algorithm/impl.h</text>
</a>
</g>
</g>
<!-- Node2&#45;&gt;Node3 -->
<g id="edge2" class="edge">
<title>Node2&#45;&gt;Node3</title>
<path fill="none" stroke="midnightblue" d="M448.94,-168.44C480.81,-159.24 531.64,-144.56 566.87,-134.39"/>
<polygon fill="midnightblue" stroke="midnightblue" points="568.18,-137.65 576.81,-131.52 566.23,-130.93 568.18,-137.65"/>
</g>
<!-- Node4 -->
<g id="node4" class="node">
<title>Node4</title>
<g id="a_node4"><a xlink:href="types_8h.html" target="_top" xlink:title=" ">
<polygon fill="white" stroke="red" points="575.31,-0.5 575.31,-19.5 637.31,-19.5 637.31,-0.5 575.31,-0.5"/>
<text text-anchor="middle" x="606.31" y="-7.5" font-family="Helvetica,sans-Serif" font-size="10.00">../types.h</text>
</a>
</g>
</g>
<!-- Node2&#45;&gt;Node4 -->
<g id="edge10" class="edge">
<title>Node2&#45;&gt;Node4</title>
<path fill="none" stroke="midnightblue" d="M481.37,-174.54C546.96,-170.49 644.06,-159.84 667.31,-132 695.04,-98.78 651.41,-50.82 624.66,-26.46"/>
<polygon fill="midnightblue" stroke="midnightblue" points="626.82,-23.69 617,-19.7 622.19,-28.94 626.82,-23.69"/>
</g>
<!-- Node10 -->
<g id="node5" class="node">
<title>Node10</title>
<g id="a_node5"><a xlink:title=" ">
<polygon fill="white" stroke="#bfbfbf" points="468.81,-56.5 468.81,-75.5 509.81,-75.5 509.81,-56.5 468.81,-56.5"/>
<text text-anchor="middle" x="489.31" y="-63.5" font-family="Helvetica,sans-Serif" font-size="10.00">tuple</text>
</a>
</g>
</g>
<!-- Node2&#45;&gt;Node10 -->
<g id="edge14" class="edge">
<title>Node2&#45;&gt;Node10</title>
<path fill="none" stroke="midnightblue" d="M415.31,-168.34C409.9,-155.21 402.02,-129.92 412.31,-112 422.36,-94.49 442.15,-83.14 459.15,-76.22"/>
<polygon fill="midnightblue" stroke="midnightblue" points="460.59,-79.42 468.74,-72.64 458.15,-72.86 460.59,-79.42"/>
</g>
<!-- Node17 -->
<g id="node6" class="node">
<title>Node17</title>
<g id="a_node6"><a xlink:href="bounded_8h.html" target="_top" xlink:title=" ">
<polygon fill="white" stroke="red" points="157.31,-112.5 157.31,-131.5 231.31,-131.5 231.31,-112.5 157.31,-112.5"/>
<text text-anchor="middle" x="194.31" y="-119.5" font-family="Helvetica,sans-Serif" font-size="10.00">./bounded.h</text>
</a>
</g>
</g>
<!-- Node2&#45;&gt;Node17 -->
<g id="edge5" class="edge">
<title>Node2&#45;&gt;Node17</title>
<path fill="none" stroke="midnightblue" d="M383.65,-168.44C344.65,-159.08 282.04,-144.06 239.59,-133.87"/>
<polygon fill="midnightblue" stroke="midnightblue" points="240.33,-130.45 229.79,-131.52 238.7,-137.25 240.33,-130.45"/>
</g>
<!-- Node19 -->
<g id="node7" class="node">
<title>Node19</title>
<g id="a_node7"><a xlink:href="min__max_8h.html" target="_top" xlink:title=" ">
<polygon fill="white" stroke="red" points="249.81,-112.5 249.81,-131.5 326.81,-131.5 326.81,-112.5 249.81,-112.5"/>
<text text-anchor="middle" x="288.31" y="-119.5" font-family="Helvetica,sans-Serif" font-size="10.00">./min_max.h</text>
</a>
</g>
</g>
<!-- Node2&#45;&gt;Node19 -->
<g id="edge6" class="edge">
<title>Node2&#45;&gt;Node19</title>
<path fill="none" stroke="midnightblue" d="M398.55,-168.44C376.99,-159.56 343.04,-145.56 318.51,-135.45"/>
<polygon fill="midnightblue" stroke="midnightblue" points="319.54,-132.09 308.97,-131.52 316.88,-138.56 319.54,-132.09"/>
</g>
<!-- Node21 -->
<g id="node8" class="node">
<title>Node21</title>
<g id="a_node8"><a xlink:href="range_8h.html" target="_top" xlink:title=" ">
<polygon fill="white" stroke="red" points="79.81,-112.5 79.81,-131.5 138.81,-131.5 138.81,-112.5 79.81,-112.5"/>
<text text-anchor="middle" x="109.31" y="-119.5" font-family="Helvetica,sans-Serif" font-size="10.00">./range.h</text>
</a>
</g>
</g>
<!-- Node2&#45;&gt;Node21 -->
<g id="edge7" class="edge">
<title>Node2&#45;&gt;Node21</title>
<path fill="none" stroke="midnightblue" d="M361.49,-168.47C308.75,-160.44 228.44,-147.62 149.23,-132.08"/>
<polygon fill="midnightblue" stroke="midnightblue" points="149.56,-128.58 139.07,-130.07 148.21,-135.44 149.56,-128.58"/>
</g>
<!-- Node24 -->
<g id="node9" class="node">
<title>Node24</title>
<g id="a_node9"><a xlink:href="view_8h.html" target="_top" xlink:title=" ">
<polygon fill="white" stroke="red" points="205.31,-56.5 205.31,-75.5 259.31,-75.5 259.31,-56.5 205.31,-56.5"/>
<text text-anchor="middle" x="232.31" y="-63.5" font-family="Helvetica,sans-Serif" font-size="10.00">./view.h</text>
</a>
</g>
</g>
<!-- Node2&#45;&gt;Node24 -->
<g id="edge11" class="edge">
<title>Node2&#45;&gt;Node24</title>
<path fill="none" stroke="midnightblue" d="M409.79,-168.36C394.78,-155.03 364.33,-129.21 335.31,-112 313.24,-98.91 286.67,-87.4 266.04,-79.29"/>
<polygon fill="midnightblue" stroke="midnightblue" points="267.03,-75.92 256.44,-75.6 264.51,-82.46 267.03,-75.92"/>
</g>
<!-- Node26 -->
<g id="node10" class="node">
<title>Node26</title>
<g id="a_node10"><a xlink:title=" ">
<polygon fill="white" stroke="#bfbfbf" points="421.81,-112.5 421.81,-131.5 468.81,-131.5 468.81,-112.5 421.81,-112.5"/>
<text text-anchor="middle" x="445.31" y="-119.5" font-family="Helvetica,sans-Serif" font-size="10.00">cmath</text>
</a>
</g>
</g>
<!-- Node2&#45;&gt;Node26 -->
<g id="edge12" class="edge">
<title>Node2&#45;&gt;Node26</title>
<path fill="none" stroke="midnightblue" d="M423.6,-168.08C427.16,-160.69 432.33,-149.95 436.73,-140.81"/>
<polygon fill="midnightblue" stroke="midnightblue" points="439.91,-142.28 441.09,-131.75 433.6,-139.24 439.91,-142.28"/>
</g>
<!-- Node27 -->
<g id="node11" class="node">
<title>Node27</title>
<g id="a_node11"><a xlink:title=" ">
<polygon fill="white" stroke="#bfbfbf" points="486.81,-112.5 486.81,-131.5 535.81,-131.5 535.81,-112.5 486.81,-112.5"/>
<text text-anchor="middle" x="511.31" y="-119.5" font-family="Helvetica,sans-Serif" font-size="10.00">cstdlib</text>
</a>
</g>
</g>
<!-- Node2&#45;&gt;Node27 -->
<g id="edge13" class="edge">
<title>Node2&#45;&gt;Node27</title>
<path fill="none" stroke="midnightblue" d="M434.09,-168.32C448.57,-159.82 470.88,-146.73 487.8,-136.8"/>
<polygon fill="midnightblue" stroke="midnightblue" points="489.71,-139.74 496.56,-131.65 486.16,-133.7 489.71,-139.74"/>
</g>
<!-- Node3&#45;&gt;Node4 -->
<g id="edge3" class="edge">
<title>Node3&#45;&gt;Node4</title>
<path fill="none" stroke="midnightblue" d="M606.31,-112.37C606.31,-94.62 606.31,-53.67 606.31,-29.6"/>
<polygon fill="midnightblue" stroke="midnightblue" points="609.81,-29.59 606.31,-19.59 602.81,-29.59 609.81,-29.59"/>
</g>
<!-- Node3&#45;&gt;Node10 -->
<g id="edge4" class="edge">
<title>Node3&#45;&gt;Node10</title>
<path fill="none" stroke="midnightblue" d="M587.77,-112.44C568.68,-103.64 538.73,-89.81 516.87,-79.72"/>
<polygon fill="midnightblue" stroke="midnightblue" points="518.3,-76.53 507.76,-75.52 515.37,-82.88 518.3,-76.53"/>
</g>
<!-- Node21&#45;&gt;Node24 -->
<g id="edge8" class="edge">
<title>Node21&#45;&gt;Node24</title>
<path fill="none" stroke="midnightblue" d="M128.8,-112.44C148.95,-103.6 180.63,-89.69 203.64,-79.59"/>
<polygon fill="midnightblue" stroke="midnightblue" points="205.16,-82.74 212.91,-75.52 202.34,-76.33 205.16,-82.74"/>
</g>
<!-- Node24&#45;&gt;Node4 -->
<g id="edge9" class="edge">
<title>Node24&#45;&gt;Node4</title>
<path fill="none" stroke="midnightblue" d="M259.5,-61.07C324.2,-51.73 487.61,-28.14 564.76,-17"/>
<polygon fill="midnightblue" stroke="midnightblue" points="565.66,-20.41 575.05,-15.51 564.66,-13.48 565.66,-20.41"/>
</g>
<!-- Node29 -->
<g id="node13" class="node">
<title>Node29</title>
<g id="a_node13"><a xlink:href="result_8h.html" target="_top" xlink:title=" ">
<polygon fill="white" stroke="red" points="388.31,-224.5 388.31,-243.5 450.31,-243.5 450.31,-224.5 388.31,-224.5"/>
<text text-anchor="middle" x="419.31" y="-231.5" font-family="Helvetica,sans-Serif" font-size="10.00">../result.h</text>
</a>
</g>
</g>
<!-- Node28&#45;&gt;Node29 -->
<g id="edge16" class="edge">
<title>Node28&#45;&gt;Node29</title>
<path fill="none" stroke="midnightblue" d="M383.44,-280.4C390.27,-271.75 399.05,-260.64 406.21,-251.58"/>
<polygon fill="midnightblue" stroke="midnightblue" points="409.01,-253.67 412.47,-243.66 403.52,-249.34 409.01,-253.67"/>
</g>
<!-- Node31 -->
<g id="node14" class="node">
<title>Node31</title>
<g id="a_node14"><a xlink:title=" ">
<polygon fill="white" stroke="#bfbfbf" points="160.81,-168.5 160.81,-187.5 213.81,-187.5 213.81,-168.5 160.81,-168.5"/>
<text text-anchor="middle" x="187.31" y="-175.5" font-family="Helvetica,sans-Serif" font-size="10.00">cstddef</text>
</a>
</g>
</g>
<!-- Node28&#45;&gt;Node31 -->
<g id="edge18" class="edge">
<title>Node28&#45;&gt;Node31</title>
<path fill="none" stroke="midnightblue" d="M369.82,-280.49C366.26,-264.55 358.19,-238.82 341.31,-224 308.49,-195.19 258.11,-184.79 223.98,-181.06"/>
<polygon fill="midnightblue" stroke="midnightblue" points="224.24,-177.57 213.95,-180.1 223.57,-184.53 224.24,-177.57"/>
</g>
<!-- Node29&#45;&gt;Node2 -->
<g id="edge17" class="edge">
<title>Node29&#45;&gt;Node2</title>
<path fill="none" stroke="midnightblue" d="M419.31,-224.08C419.31,-217.01 419.31,-206.86 419.31,-197.99"/>
<polygon fill="midnightblue" stroke="midnightblue" points="422.81,-197.75 419.31,-187.75 415.81,-197.75 422.81,-197.75"/>
</g>
<!-- Node32&#45;&gt;Node24 -->
<g id="edge23" class="edge">
<title>Node32&#45;&gt;Node24</title>
<path fill="none" stroke="midnightblue" d="M127.18,-285.45C78.34,-277.41 18.59,-263.82 3.31,-244 -2.12,-236.96 0.94,-232.57 3.31,-224 18.75,-168.09 24.18,-147.16 70.31,-112 106.81,-84.18 159.58,-73.56 194.87,-69.5"/>
<polygon fill="midnightblue" stroke="midnightblue" points="195.63,-72.94 205.22,-68.44 194.92,-65.98 195.63,-72.94"/>
</g>
<!-- Node23 -->
<g id="node16" class="node">
<title>Node23</title>
<g id="a_node16"><a xlink:href="iterator_8h.html" target="_top" xlink:title=" ">
<polygon fill="white" stroke="red" points="262.31,-224.5 262.31,-243.5 332.31,-243.5 332.31,-224.5 262.31,-224.5"/>
<text text-anchor="middle" x="297.31" y="-231.5" font-family="Helvetica,sans-Serif" font-size="10.00">../iterator.h</text>
</a>
</g>
</g>
<!-- Node32&#45;&gt;Node23 -->
<g id="edge20" class="edge">
<title>Node32&#45;&gt;Node23</title>
<path fill="none" stroke="midnightblue" d="M219.48,-280.4C235.83,-270.86 257.32,-258.32 273.58,-248.84"/>
<polygon fill="midnightblue" stroke="midnightblue" points="275.59,-251.72 282.46,-243.66 272.06,-245.67 275.59,-251.72"/>
</g>
<!-- Node33 -->
<g id="node17" class="node">
<title>Node33</title>
<g id="a_node17"><a xlink:href="static__storage_8h.html" target="_top" xlink:title=" ">
<polygon fill="white" stroke="red" points="12.81,-224.5 12.81,-243.5 113.81,-243.5 113.81,-224.5 12.81,-224.5"/>
<text text-anchor="middle" x="63.31" y="-231.5" font-family="Helvetica,sans-Serif" font-size="10.00">./static_storage.h</text>
</a>
</g>
</g>
<!-- Node32&#45;&gt;Node33 -->
<g id="edge21" class="edge">
<title>Node32&#45;&gt;Node33</title>
<path fill="none" stroke="midnightblue" d="M164.02,-280.4C142.07,-270.51 112.96,-257.38 91.68,-247.79"/>
<polygon fill="midnightblue" stroke="midnightblue" points="93.07,-244.58 82.51,-243.66 90.19,-250.96 93.07,-244.58"/>
</g>
<!-- Node36 -->
<g id="node18" class="node">
<title>Node36</title>
<g id="a_node18"><a xlink:title=" ">
<polygon fill="white" stroke="#bfbfbf" points="132.31,-224.5 132.31,-243.5 182.31,-243.5 182.31,-224.5 132.31,-224.5"/>
<text text-anchor="middle" x="157.31" y="-231.5" font-family="Helvetica,sans-Serif" font-size="10.00">atomic</text>
</a>
</g>
</g>
<!-- Node32&#45;&gt;Node36 -->
<g id="edge24" class="edge">
<title>Node32&#45;&gt;Node36</title>
<path fill="none" stroke="midnightblue" d="M186.3,-280.4C180.89,-271.93 173.97,-261.1 168.25,-252.14"/>
<polygon fill="midnightblue" stroke="midnightblue" points="171.17,-250.2 162.83,-243.66 165.27,-253.97 171.17,-250.2"/>
</g>
<!-- Node37 -->
<g id="node19" class="node">
<title>Node37</title>
<g id="a_node19"><a xlink:title=" ">
<polygon fill="white" stroke="#bfbfbf" points="200.31,-224.5 200.31,-243.5 244.31,-243.5 244.31,-224.5 200.31,-224.5"/>
<text text-anchor="middle" x="222.31" y="-231.5" font-family="Helvetica,sans-Serif" font-size="10.00">limits</text>
</a>
</g>
</g>
<!-- Node32&#45;&gt;Node37 -->
<g id="edge25" class="edge">
<title>Node32&#45;&gt;Node37</title>
<path fill="none" stroke="midnightblue" d="M201.7,-280.4C205.43,-272.2 210.15,-261.78 214.14,-252.99"/>
<polygon fill="midnightblue" stroke="midnightblue" points="217.43,-254.21 218.38,-243.66 211.06,-251.32 217.43,-254.21"/>
</g>
<!-- Node33&#45;&gt;Node31 -->
<g id="edge22" class="edge">
<title>Node33&#45;&gt;Node31</title>
<path fill="none" stroke="midnightblue" d="M82.95,-224.44C103.27,-215.6 135.21,-201.69 158.4,-191.59"/>
<polygon fill="midnightblue" stroke="midnightblue" points="159.98,-194.72 167.75,-187.52 157.18,-188.3 159.98,-194.72"/>
</g>
</g>
</svg>
