<?xml version="1.0" encoding="UTF-8" standalone="no"?>
<!DOCTYPE svg PUBLIC "-//W3C//DTD SVG 1.1//EN"
 "http://www.w3.org/Graphics/SVG/1.1/DTD/svg11.dtd">
<!-- Generated by graphviz version 2.43.0 (0)
 -->
<!-- Title: include/emlabcpp/experimental/coro/round_robin_executor.h Pages: 1 -->
<svg width="712pt" height="341pt"
 viewBox="0.00 0.00 711.88 341.00" xmlns="http://www.w3.org/2000/svg" xmlns:xlink="http://www.w3.org/1999/xlink">
<g id="graph0" class="graph" transform="scale(1 1) rotate(0) translate(4 337)">
<title>include/emlabcpp/experimental/coro/round_robin_executor.h</title>
<polygon fill="white" stroke="transparent" points="-4,4 -4,-337 707.88,-337 707.88,4 -4,4"/>
<!-- Node1 -->
<g id="node1" class="node">
<title>Node1</title>
<g id="a_node1"><a xlink:title=" ">
<polygon fill="#bfbfbf" stroke="black" points="302.38,-302.5 302.38,-332.5 473.38,-332.5 473.38,-302.5 302.38,-302.5"/>
<text text-anchor="start" x="310.38" y="-320.5" font-family="Helvetica,sans-Serif" font-size="10.00">include/emlabcpp/experimental</text>
<text text-anchor="middle" x="387.88" y="-309.5" font-family="Helvetica,sans-Serif" font-size="10.00">/coro/round_robin_executor.h</text>
</a>
</g>
</g>
<!-- Node2 -->
<g id="node2" class="node">
<title>Node2</title>
<g id="a_node2"><a xlink:href="algorithm_8h.html" target="_top" xlink:title=" ">
<polygon fill="white" stroke="black" points="294.88,-123.5 294.88,-142.5 418.88,-142.5 418.88,-123.5 294.88,-123.5"/>
<text text-anchor="middle" x="356.88" y="-130.5" font-family="Helvetica,sans-Serif" font-size="10.00">emlabcpp/algorithm.h</text>
</a>
</g>
</g>
<!-- Node1&#45;&gt;Node2 -->
<g id="edge1" class="edge">
<title>Node1&#45;&gt;Node2</title>
<path fill="none" stroke="midnightblue" d="M355.72,-302.34C340.55,-293.97 323.68,-281.89 313.88,-266 293.47,-232.92 288.72,-214.35 304.88,-179 310.66,-166.36 321.93,-155.91 332.51,-148.27"/>
<polygon fill="midnightblue" stroke="midnightblue" points="334.73,-151 341.1,-142.53 330.84,-145.18 334.73,-151"/>
</g>
<!-- Node40 -->
<g id="node11" class="node">
<title>Node40</title>
<g id="a_node11"><a xlink:href="memory__resource_8h.html" target="_top" xlink:title=" ">
<polygon fill="white" stroke="black" points="322.38,-235.5 322.38,-265.5 453.38,-265.5 453.38,-235.5 322.38,-235.5"/>
<text text-anchor="start" x="330.38" y="-253.5" font-family="Helvetica,sans-Serif" font-size="10.00">emlabcpp/pmr/memory</text>
<text text-anchor="middle" x="387.88" y="-242.5" font-family="Helvetica,sans-Serif" font-size="10.00">_resource.h</text>
</a>
</g>
</g>
<!-- Node1&#45;&gt;Node40 -->
<g id="edge13" class="edge">
<title>Node1&#45;&gt;Node40</title>
<path fill="none" stroke="midnightblue" d="M387.88,-302.4C387.88,-294.64 387.88,-284.81 387.88,-275.86"/>
<polygon fill="midnightblue" stroke="midnightblue" points="391.38,-275.58 387.88,-265.58 384.38,-275.58 391.38,-275.58"/>
</g>
<!-- Node43 -->
<g id="node14" class="node">
<title>Node43</title>
<g id="a_node14"><a xlink:href="static__circular__buffer_8h.html" target="_top" xlink:title=" ">
<polygon fill="white" stroke="black" points="478.88,-235.5 478.88,-265.5 614.88,-265.5 614.88,-235.5 478.88,-235.5"/>
<text text-anchor="start" x="486.88" y="-253.5" font-family="Helvetica,sans-Serif" font-size="10.00">emlabcpp/static_circular</text>
<text text-anchor="middle" x="546.88" y="-242.5" font-family="Helvetica,sans-Serif" font-size="10.00">_buffer.h</text>
</a>
</g>
</g>
<!-- Node1&#45;&gt;Node43 -->
<g id="edge17" class="edge">
<title>Node1&#45;&gt;Node43</title>
<path fill="none" stroke="midnightblue" d="M422.38,-302.4C446.03,-292.73 477.6,-279.82 503.03,-269.43"/>
<polygon fill="midnightblue" stroke="midnightblue" points="504.52,-272.6 512.45,-265.58 501.87,-266.12 504.52,-272.6"/>
</g>
<!-- Node3 -->
<g id="node3" class="node">
<title>Node3</title>
<g id="a_node3"><a xlink:href="impl_8h.html" target="_top" xlink:title=" ">
<polygon fill="white" stroke="black" points="16.38,-56.5 16.38,-86.5 131.38,-86.5 131.38,-56.5 16.38,-56.5"/>
<text text-anchor="start" x="24.38" y="-74.5" font-family="Helvetica,sans-Serif" font-size="10.00">emlabcpp/algorithm</text>
<text text-anchor="middle" x="73.88" y="-63.5" font-family="Helvetica,sans-Serif" font-size="10.00">/impl.h</text>
</a>
</g>
</g>
<!-- Node2&#45;&gt;Node3 -->
<g id="edge2" class="edge">
<title>Node2&#45;&gt;Node3</title>
<path fill="none" stroke="midnightblue" d="M315.45,-123.47C274,-114.91 208.12,-101.25 141.46,-87.11"/>
<polygon fill="midnightblue" stroke="midnightblue" points="142.13,-83.68 131.62,-85.03 140.68,-90.53 142.13,-83.68"/>
</g>
<!-- Node4 -->
<g id="node4" class="node">
<title>Node4</title>
<g id="a_node4"><a xlink:href="types_8h.html" target="_top" xlink:title=" ">
<polygon fill="white" stroke="red" points="517.88,-0.5 517.88,-19.5 621.88,-19.5 621.88,-0.5 517.88,-0.5"/>
<text text-anchor="middle" x="569.88" y="-7.5" font-family="Helvetica,sans-Serif" font-size="10.00">emlabcpp/types.h</text>
</a>
</g>
</g>
<!-- Node2&#45;&gt;Node4 -->
<g id="edge7" class="edge">
<title>Node2&#45;&gt;Node4</title>
<path fill="none" stroke="midnightblue" d="M419.12,-124.66C468.54,-117.59 532.33,-105.24 550.88,-87 566.08,-72.06 569.79,-46.94 570.38,-29.7"/>
<polygon fill="midnightblue" stroke="midnightblue" points="573.88,-29.7 570.41,-19.69 566.88,-29.68 573.88,-29.7"/>
</g>
<!-- Node10 -->
<g id="node5" class="node">
<title>Node10</title>
<g id="a_node5"><a xlink:title=" ">
<polygon fill="white" stroke="#bfbfbf" points="10.38,-0.5 10.38,-19.5 51.38,-19.5 51.38,-0.5 10.38,-0.5"/>
<text text-anchor="middle" x="30.88" y="-7.5" font-family="Helvetica,sans-Serif" font-size="10.00">tuple</text>
</a>
</g>
</g>
<!-- Node2&#45;&gt;Node10 -->
<g id="edge12" class="edge">
<title>Node2&#45;&gt;Node10</title>
<path fill="none" stroke="midnightblue" d="M294.59,-128.4C199.1,-122.23 25.55,-108.22 6.88,-87 -7.77,-70.34 5.34,-44.75 17.19,-27.94"/>
<polygon fill="midnightblue" stroke="midnightblue" points="20.24,-29.71 23.46,-19.61 14.65,-25.5 20.24,-29.71"/>
</g>
<!-- Node17 -->
<g id="node6" class="node">
<title>Node17</title>
<g id="a_node6"><a xlink:href="bounded_8h.html" target="_top" xlink:title=" ">
<polygon fill="white" stroke="red" points="149.38,-62 149.38,-81 268.38,-81 268.38,-62 149.38,-62"/>
<text text-anchor="middle" x="208.88" y="-69" font-family="Helvetica,sans-Serif" font-size="10.00">emlabcpp/bounded.h</text>
</a>
</g>
</g>
<!-- Node2&#45;&gt;Node17 -->
<g id="edge5" class="edge">
<title>Node2&#45;&gt;Node17</title>
<path fill="none" stroke="midnightblue" d="M335.68,-123.48C310.51,-113.36 268.34,-96.4 239.6,-84.85"/>
<polygon fill="midnightblue" stroke="midnightblue" points="240.63,-81.49 230.05,-81.01 238.02,-87.99 240.63,-81.49"/>
</g>
<!-- Node23 -->
<g id="node7" class="node">
<title>Node23</title>
<g id="a_node7"><a xlink:href="min__max_8h.html" target="_top" xlink:title=" ">
<polygon fill="white" stroke="red" points="286.88,-62 286.88,-81 408.88,-81 408.88,-62 286.88,-62"/>
<text text-anchor="middle" x="347.88" y="-69" font-family="Helvetica,sans-Serif" font-size="10.00">emlabcpp/min_max.h</text>
</a>
</g>
</g>
<!-- Node2&#45;&gt;Node23 -->
<g id="edge6" class="edge">
<title>Node2&#45;&gt;Node23</title>
<path fill="none" stroke="midnightblue" d="M355.59,-123.48C354.32,-115.08 352.34,-101.98 350.71,-91.16"/>
<polygon fill="midnightblue" stroke="midnightblue" points="354.13,-90.37 349.17,-81.01 347.2,-91.42 354.13,-90.37"/>
</g>
<!-- Node28 -->
<g id="node8" class="node">
<title>Node28</title>
<g id="a_node8"><a xlink:href="view_8h.html" target="_top" xlink:title=" ">
<polygon fill="white" stroke="red" points="598.38,-62 598.38,-81 697.38,-81 697.38,-62 598.38,-62"/>
<text text-anchor="middle" x="647.88" y="-69" font-family="Helvetica,sans-Serif" font-size="10.00">emlabcpp/view.h</text>
</a>
</g>
</g>
<!-- Node2&#45;&gt;Node28 -->
<g id="edge8" class="edge">
<title>Node2&#45;&gt;Node28</title>
<path fill="none" stroke="midnightblue" d="M401.75,-123.48C447.59,-114.68 520.81,-100.39 583.88,-87 589.38,-85.83 595.15,-84.57 600.86,-83.31"/>
<polygon fill="midnightblue" stroke="midnightblue" points="602.04,-86.63 611.03,-81.03 600.51,-79.8 602.04,-86.63"/>
</g>
<!-- Node38 -->
<g id="node9" class="node">
<title>Node38</title>
<g id="a_node9"><a xlink:title=" ">
<polygon fill="white" stroke="#bfbfbf" points="427.38,-62 427.38,-81 474.38,-81 474.38,-62 427.38,-62"/>
<text text-anchor="middle" x="450.88" y="-69" font-family="Helvetica,sans-Serif" font-size="10.00">cmath</text>
</a>
</g>
</g>
<!-- Node2&#45;&gt;Node38 -->
<g id="edge10" class="edge">
<title>Node2&#45;&gt;Node38</title>
<path fill="none" stroke="midnightblue" d="M370.35,-123.48C385.57,-113.84 410.57,-98.02 428.68,-86.55"/>
<polygon fill="midnightblue" stroke="midnightblue" points="430.86,-89.31 437.44,-81.01 427.12,-83.4 430.86,-89.31"/>
</g>
<!-- Node39 -->
<g id="node10" class="node">
<title>Node39</title>
<g id="a_node10"><a xlink:title=" ">
<polygon fill="white" stroke="#bfbfbf" points="492.38,-62 492.38,-81 541.38,-81 541.38,-62 492.38,-62"/>
<text text-anchor="middle" x="516.88" y="-69" font-family="Helvetica,sans-Serif" font-size="10.00">cstdlib</text>
</a>
</g>
</g>
<!-- Node2&#45;&gt;Node39 -->
<g id="edge11" class="edge">
<title>Node2&#45;&gt;Node39</title>
<path fill="none" stroke="midnightblue" d="M382.87,-123.42C408.69,-114.74 449.31,-100.7 483.88,-87 485.48,-86.37 487.12,-85.7 488.77,-85.02"/>
<polygon fill="midnightblue" stroke="midnightblue" points="490.31,-88.17 498.14,-81.02 487.56,-81.73 490.31,-88.17"/>
</g>
<!-- Node3&#45;&gt;Node4 -->
<g id="edge3" class="edge">
<title>Node3&#45;&gt;Node4</title>
<path fill="none" stroke="midnightblue" d="M131.55,-57.6C134.7,-57.03 137.83,-56.49 140.88,-56 270.61,-35.22 424,-21.79 507.7,-15.39"/>
<polygon fill="midnightblue" stroke="midnightblue" points="508.1,-18.87 517.8,-14.63 507.57,-11.89 508.1,-18.87"/>
</g>
<!-- Node3&#45;&gt;Node10 -->
<g id="edge4" class="edge">
<title>Node3&#45;&gt;Node10</title>
<path fill="none" stroke="midnightblue" d="M63.69,-56.4C57.51,-47.84 49.58,-36.87 43.06,-27.86"/>
<polygon fill="midnightblue" stroke="midnightblue" points="45.83,-25.71 37.14,-19.66 40.16,-29.81 45.83,-25.71"/>
</g>
<!-- Node28&#45;&gt;Node4 -->
<g id="edge9" class="edge">
<title>Node28&#45;&gt;Node4</title>
<path fill="none" stroke="midnightblue" d="M636.71,-61.98C624.31,-52.52 604.09,-37.1 589.14,-25.69"/>
<polygon fill="midnightblue" stroke="midnightblue" points="591.11,-22.79 581.04,-19.51 586.87,-28.36 591.11,-22.79"/>
</g>
<!-- Node41 -->
<g id="node12" class="node">
<title>Node41</title>
<g id="a_node12"><a xlink:href="result_8h.html" target="_top" xlink:title=" ">
<polygon fill="white" stroke="red" points="313.88,-179.5 313.88,-198.5 417.88,-198.5 417.88,-179.5 313.88,-179.5"/>
<text text-anchor="middle" x="365.88" y="-186.5" font-family="Helvetica,sans-Serif" font-size="10.00">emlabcpp/result.h</text>
</a>
</g>
</g>
<!-- Node40&#45;&gt;Node41 -->
<g id="edge14" class="edge">
<title>Node40&#45;&gt;Node41</title>
<path fill="none" stroke="midnightblue" d="M382.67,-235.4C379.67,-227.29 375.87,-217.01 372.64,-208.28"/>
<polygon fill="midnightblue" stroke="midnightblue" points="375.83,-206.82 369.08,-198.66 369.27,-209.25 375.83,-206.82"/>
</g>
<!-- Node42 -->
<g id="node13" class="node">
<title>Node42</title>
<g id="a_node13"><a xlink:title=" ">
<polygon fill="white" stroke="#bfbfbf" points="483.38,-123.5 483.38,-142.5 536.38,-142.5 536.38,-123.5 483.38,-123.5"/>
<text text-anchor="middle" x="509.88" y="-130.5" font-family="Helvetica,sans-Serif" font-size="10.00">cstddef</text>
</a>
</g>
</g>
<!-- Node40&#45;&gt;Node42 -->
<g id="edge16" class="edge">
<title>Node40&#45;&gt;Node42</title>
<path fill="none" stroke="midnightblue" d="M402.84,-235.34C425.72,-213.68 469.27,-172.45 493.16,-149.83"/>
<polygon fill="midnightblue" stroke="midnightblue" points="495.87,-152.09 500.73,-142.67 491.06,-147 495.87,-152.09"/>
</g>
<!-- Node41&#45;&gt;Node2 -->
<g id="edge15" class="edge">
<title>Node41&#45;&gt;Node2</title>
<path fill="none" stroke="midnightblue" d="M364.4,-179.08C363.2,-171.93 361.49,-161.64 360,-152.69"/>
<polygon fill="midnightblue" stroke="midnightblue" points="363.44,-152.04 358.34,-142.75 356.53,-153.19 363.44,-152.04"/>
</g>
<!-- Node27 -->
<g id="node15" class="node">
<title>Node27</title>
<g id="a_node15"><a xlink:href="iterator_8h.html" target="_top" xlink:title=" ">
<polygon fill="white" stroke="red" points="591.88,-123.5 591.88,-142.5 703.88,-142.5 703.88,-123.5 591.88,-123.5"/>
<text text-anchor="middle" x="647.88" y="-130.5" font-family="Helvetica,sans-Serif" font-size="10.00">emlabcpp/iterator.h</text>
</a>
</g>
</g>
<!-- Node43&#45;&gt;Node27 -->
<g id="edge18" class="edge">
<title>Node43&#45;&gt;Node27</title>
<path fill="none" stroke="midnightblue" d="M581.42,-235.39C597.94,-227.05 616.72,-214.95 628.88,-199 639.12,-185.58 643.85,-166.76 646.03,-152.82"/>
<polygon fill="midnightblue" stroke="midnightblue" points="649.51,-153.25 647.29,-142.89 642.56,-152.37 649.51,-153.25"/>
</g>
<!-- Node44 -->
<g id="node16" class="node">
<title>Node44</title>
<g id="a_node16"><a xlink:href="static__storage_8h.html" target="_top" xlink:title=" ">
<polygon fill="white" stroke="red" points="473.88,-179.5 473.88,-198.5 619.88,-198.5 619.88,-179.5 473.88,-179.5"/>
<text text-anchor="middle" x="546.88" y="-186.5" font-family="Helvetica,sans-Serif" font-size="10.00">emlabcpp/static_storage.h</text>
</a>
</g>
</g>
<!-- Node43&#45;&gt;Node44 -->
<g id="edge20" class="edge">
<title>Node43&#45;&gt;Node44</title>
<path fill="none" stroke="midnightblue" d="M546.88,-235.4C546.88,-227.47 546.88,-217.46 546.88,-208.86"/>
<polygon fill="midnightblue" stroke="midnightblue" points="550.38,-208.66 546.88,-198.66 543.38,-208.66 550.38,-208.66"/>
</g>
<!-- Node27&#45;&gt;Node28 -->
<g id="edge19" class="edge">
<title>Node27&#45;&gt;Node28</title>
<path fill="none" stroke="midnightblue" d="M647.88,-123.48C647.88,-115.08 647.88,-101.98 647.88,-91.16"/>
<polygon fill="midnightblue" stroke="midnightblue" points="651.38,-91.01 647.88,-81.01 644.38,-91.01 651.38,-91.01"/>
</g>
<!-- Node44&#45;&gt;Node42 -->
<g id="edge21" class="edge">
<title>Node44&#45;&gt;Node42</title>
<path fill="none" stroke="midnightblue" d="M540.77,-179.08C535.6,-171.53 528.04,-160.49 521.69,-151.23"/>
<polygon fill="midnightblue" stroke="midnightblue" points="524.42,-149.02 515.88,-142.75 518.64,-152.98 524.42,-149.02"/>
</g>
</g>
</svg>
