<?xml version="1.0" encoding="UTF-8" standalone="no"?>
<!DOCTYPE svg PUBLIC "-//W3C//DTD SVG 1.1//EN"
 "http://www.w3.org/Graphics/SVG/1.1/DTD/svg11.dtd">
<!-- Generated by graphviz version 2.43.0 (0)
 -->
<!-- Title: include/emlabcpp/experimental/coroutine/round_robin_executor.h Pages: 1 -->
<svg width="1589pt" height="352pt"
 viewBox="0.00 0.00 1588.76 352.00" xmlns="http://www.w3.org/2000/svg" xmlns:xlink="http://www.w3.org/1999/xlink">
<g id="graph0" class="graph" transform="scale(1 1) rotate(0) translate(4 348)">
<title>include/emlabcpp/experimental/coroutine/round_robin_executor.h</title>
<polygon fill="white" stroke="transparent" points="-4,4 -4,-348 1584.76,-348 1584.76,4 -4,4"/>
<!-- Node1 -->
<g id="node1" class="node">
<title>Node1</title>
<g id="a_node1"><a xlink:title=" ">
<polygon fill="#bfbfbf" stroke="black" points="943.76,-313.5 943.76,-343.5 1125.76,-343.5 1125.76,-313.5 943.76,-313.5"/>
<text text-anchor="start" x="951.76" y="-331.5" font-family="Helvetica,sans-Serif" font-size="10.00">include/emlabcpp/experimental</text>
<text text-anchor="middle" x="1034.76" y="-320.5" font-family="Helvetica,sans-Serif" font-size="10.00">/coroutine/round_robin_executor.h</text>
</a>
</g>
</g>
<!-- Node2 -->
<g id="node2" class="node">
<title>Node2</title>
<g id="a_node2"><a xlink:href="algorithm_8h.html" target="_top" xlink:title=" ">
<polygon fill="white" stroke="black" points="191.76,-252 191.76,-271 315.76,-271 315.76,-252 191.76,-252"/>
<text text-anchor="middle" x="253.76" y="-259" font-family="Helvetica,sans-Serif" font-size="10.00">emlabcpp/algorithm.h</text>
</a>
</g>
</g>
<!-- Node1&#45;&gt;Node2 -->
<g id="edge1" class="edge">
<title>Node1&#45;&gt;Node2</title>
<path fill="none" stroke="midnightblue" d="M943.64,-319.92C786.82,-306.86 468.99,-280.41 326.15,-268.52"/>
<polygon fill="midnightblue" stroke="midnightblue" points="326.02,-265 315.76,-267.66 325.44,-271.98 326.02,-265"/>
</g>
<!-- Node24 -->
<g id="node12" class="node">
<title>Node24</title>
<g id="a_node12"><a xlink:href="pool_8h.html" target="_top" xlink:title=" ">
<polygon fill="white" stroke="black" points="979.76,-246.5 979.76,-276.5 1089.76,-276.5 1089.76,-246.5 979.76,-246.5"/>
<text text-anchor="start" x="987.76" y="-264.5" font-family="Helvetica,sans-Serif" font-size="10.00">emlabcpp/allocator</text>
<text text-anchor="middle" x="1034.76" y="-253.5" font-family="Helvetica,sans-Serif" font-size="10.00">/pool.h</text>
</a>
</g>
</g>
<!-- Node1&#45;&gt;Node24 -->
<g id="edge14" class="edge">
<title>Node1&#45;&gt;Node24</title>
<path fill="none" stroke="midnightblue" d="M1034.76,-313.4C1034.76,-305.64 1034.76,-295.81 1034.76,-286.86"/>
<polygon fill="midnightblue" stroke="midnightblue" points="1038.26,-286.58 1034.76,-276.58 1031.26,-286.58 1038.26,-286.58"/>
</g>
<!-- Node47 -->
<g id="node27" class="node">
<title>Node47</title>
<g id="a_node27"><a xlink:href="static__circular__buffer_8h.html" target="_top" xlink:title=" ">
<polygon fill="white" stroke="black" points="1316.76,-179.5 1316.76,-209.5 1452.76,-209.5 1452.76,-179.5 1316.76,-179.5"/>
<text text-anchor="start" x="1324.76" y="-197.5" font-family="Helvetica,sans-Serif" font-size="10.00">emlabcpp/static_circular</text>
<text text-anchor="middle" x="1384.76" y="-186.5" font-family="Helvetica,sans-Serif" font-size="10.00">_buffer.h</text>
</a>
</g>
</g>
<!-- Node1&#45;&gt;Node47 -->
<g id="edge33" class="edge">
<title>Node1&#45;&gt;Node47</title>
<path fill="none" stroke="midnightblue" d="M1071.89,-313.5C1136.07,-289.29 1267.65,-239.67 1337.99,-213.14"/>
<polygon fill="midnightblue" stroke="midnightblue" points="1339.37,-216.36 1347.49,-209.56 1336.9,-209.81 1339.37,-216.36"/>
</g>
<!-- Node3 -->
<g id="node3" class="node">
<title>Node3</title>
<g id="a_node3"><a xlink:href="impl_8h.html" target="_top" xlink:title=" ">
<polygon fill="white" stroke="black" points="25.26,-179.5 25.26,-209.5 140.26,-209.5 140.26,-179.5 25.26,-179.5"/>
<text text-anchor="start" x="33.26" y="-197.5" font-family="Helvetica,sans-Serif" font-size="10.00">emlabcpp/algorithm</text>
<text text-anchor="middle" x="82.76" y="-186.5" font-family="Helvetica,sans-Serif" font-size="10.00">/impl.h</text>
</a>
</g>
</g>
<!-- Node2&#45;&gt;Node3 -->
<g id="edge2" class="edge">
<title>Node2&#45;&gt;Node3</title>
<path fill="none" stroke="midnightblue" d="M231.06,-251.87C205.17,-242.03 162.18,-225.69 129.14,-213.13"/>
<polygon fill="midnightblue" stroke="midnightblue" points="130.26,-209.81 119.67,-209.53 127.77,-216.35 130.26,-209.81"/>
</g>
<!-- Node4 -->
<g id="node4" class="node">
<title>Node4</title>
<g id="a_node4"><a xlink:href="types_8h.html" target="_top" xlink:title=" ">
<polygon fill="white" stroke="red" points="30.76,-0.5 30.76,-19.5 134.76,-19.5 134.76,-0.5 30.76,-0.5"/>
<text text-anchor="middle" x="82.76" y="-7.5" font-family="Helvetica,sans-Serif" font-size="10.00">emlabcpp/types.h</text>
</a>
</g>
</g>
<!-- Node2&#45;&gt;Node4 -->
<g id="edge8" class="edge">
<title>Node2&#45;&gt;Node4</title>
<path fill="none" stroke="midnightblue" d="M191.51,-255.99C128.55,-249.99 37.5,-236.83 15.76,-210 -30.12,-153.36 36.56,-63.78 67.94,-27.29"/>
<polygon fill="midnightblue" stroke="midnightblue" points="70.75,-29.39 74.74,-19.58 65.5,-24.77 70.75,-29.39"/>
</g>
<!-- Node10 -->
<g id="node5" class="node">
<title>Node10</title>
<g id="a_node5"><a xlink:title=" ">
<polygon fill="white" stroke="#bfbfbf" points="130.26,-118 130.26,-137 171.26,-137 171.26,-118 130.26,-118"/>
<text text-anchor="middle" x="150.76" y="-125" font-family="Helvetica,sans-Serif" font-size="10.00">tuple</text>
</a>
</g>
</g>
<!-- Node2&#45;&gt;Node10 -->
<g id="edge13" class="edge">
<title>Node2&#45;&gt;Node10</title>
<path fill="none" stroke="midnightblue" d="M238.67,-251.98C224.04,-243.09 202.04,-227.95 187.76,-210 172.46,-190.76 161.94,-164.19 156.14,-146.68"/>
<polygon fill="midnightblue" stroke="midnightblue" points="159.47,-145.6 153.13,-137.1 152.79,-147.69 159.47,-145.6"/>
</g>
<!-- Node17 -->
<g id="node6" class="node">
<title>Node17</title>
<g id="a_node6"><a xlink:href="bounded_8h.html" target="_top" xlink:title=" ">
<polygon fill="white" stroke="red" points="368.26,-185 368.26,-204 487.26,-204 487.26,-185 368.26,-185"/>
<text text-anchor="middle" x="427.76" y="-192" font-family="Helvetica,sans-Serif" font-size="10.00">emlabcpp/bounded.h</text>
</a>
</g>
</g>
<!-- Node2&#45;&gt;Node17 -->
<g id="edge5" class="edge">
<title>Node2&#45;&gt;Node17</title>
<path fill="none" stroke="midnightblue" d="M276.87,-251.87C307.24,-240.52 360.77,-220.52 395.23,-207.65"/>
<polygon fill="midnightblue" stroke="midnightblue" points="396.7,-210.84 404.84,-204.06 394.25,-204.28 396.7,-210.84"/>
</g>
<!-- Node21 -->
<g id="node9" class="node">
<title>Node21</title>
<g id="a_node9"><a xlink:href="view_8h.html" target="_top" xlink:title=" ">
<polygon fill="white" stroke="black" points="290.26,-56.5 290.26,-75.5 389.26,-75.5 389.26,-56.5 290.26,-56.5"/>
<text text-anchor="middle" x="339.76" y="-63.5" font-family="Helvetica,sans-Serif" font-size="10.00">emlabcpp/view.h</text>
</a>
</g>
</g>
<!-- Node2&#45;&gt;Node21 -->
<g id="edge9" class="edge">
<title>Node2&#45;&gt;Node21</title>
<path fill="none" stroke="midnightblue" d="M272.12,-251.9C287.79,-243.52 309.53,-229.25 320.76,-210 343.74,-170.65 343.65,-115.01 341.68,-86.1"/>
<polygon fill="midnightblue" stroke="midnightblue" points="345.14,-85.46 340.81,-75.79 338.16,-86.05 345.14,-85.46"/>
</g>
<!-- Node22 -->
<g id="node10" class="node">
<title>Node22</title>
<g id="a_node10"><a xlink:title=" ">
<polygon fill="white" stroke="#bfbfbf" points="197.26,-185 197.26,-204 244.26,-204 244.26,-185 197.26,-185"/>
<text text-anchor="middle" x="220.76" y="-192" font-family="Helvetica,sans-Serif" font-size="10.00">cmath</text>
</a>
</g>
</g>
<!-- Node2&#45;&gt;Node22 -->
<g id="edge11" class="edge">
<title>Node2&#45;&gt;Node22</title>
<path fill="none" stroke="midnightblue" d="M249.31,-251.73C244.31,-241.89 236.07,-225.66 229.73,-213.16"/>
<polygon fill="midnightblue" stroke="midnightblue" points="232.79,-211.46 225.14,-204.13 226.55,-214.63 232.79,-211.46"/>
</g>
<!-- Node23 -->
<g id="node11" class="node">
<title>Node23</title>
<g id="a_node11"><a xlink:title=" ">
<polygon fill="white" stroke="#bfbfbf" points="262.26,-185 262.26,-204 311.26,-204 311.26,-185 262.26,-185"/>
<text text-anchor="middle" x="286.76" y="-192" font-family="Helvetica,sans-Serif" font-size="10.00">cstdlib</text>
</a>
</g>
</g>
<!-- Node2&#45;&gt;Node23 -->
<g id="edge12" class="edge">
<title>Node2&#45;&gt;Node23</title>
<path fill="none" stroke="midnightblue" d="M258.21,-251.73C263.21,-241.89 271.45,-225.66 277.8,-213.16"/>
<polygon fill="midnightblue" stroke="midnightblue" points="280.98,-214.63 282.38,-204.13 274.74,-211.46 280.98,-214.63"/>
</g>
<!-- Node3&#45;&gt;Node4 -->
<g id="edge3" class="edge">
<title>Node3&#45;&gt;Node4</title>
<path fill="none" stroke="midnightblue" d="M82.76,-179.48C82.76,-147.1 82.76,-67.04 82.76,-30.16"/>
<polygon fill="midnightblue" stroke="midnightblue" points="86.26,-29.82 82.76,-19.82 79.26,-29.82 86.26,-29.82"/>
</g>
<!-- Node3&#45;&gt;Node10 -->
<g id="edge4" class="edge">
<title>Node3&#45;&gt;Node10</title>
<path fill="none" stroke="midnightblue" d="M97.52,-179.4C108.33,-169.06 123.02,-155.02 134.22,-144.31"/>
<polygon fill="midnightblue" stroke="midnightblue" points="136.86,-146.63 141.67,-137.19 132.02,-141.57 136.86,-146.63"/>
</g>
<!-- Node18 -->
<g id="node7" class="node">
<title>Node18</title>
<g id="a_node7"><a xlink:href="logging_8h.html" target="_top" xlink:title=" ">
<polygon fill="white" stroke="red" points="409.26,-112.5 409.26,-142.5 542.26,-142.5 542.26,-112.5 409.26,-112.5"/>
<text text-anchor="start" x="417.26" y="-130.5" font-family="Helvetica,sans-Serif" font-size="10.00">emlabcpp/experimental</text>
<text text-anchor="middle" x="475.76" y="-119.5" font-family="Helvetica,sans-Serif" font-size="10.00">/logging.h</text>
</a>
</g>
</g>
<!-- Node17&#45;&gt;Node18 -->
<g id="edge6" class="edge">
<title>Node17&#45;&gt;Node18</title>
<path fill="none" stroke="midnightblue" d="M434.24,-184.73C440.66,-176.03 450.77,-162.34 459.41,-150.65"/>
<polygon fill="midnightblue" stroke="midnightblue" points="462.23,-152.71 465.36,-142.59 456.6,-148.55 462.23,-152.71"/>
</g>
<!-- Node11 -->
<g id="node8" class="node">
<title>Node11</title>
<g id="a_node8"><a xlink:title=" ">
<polygon fill="white" stroke="#bfbfbf" points="787.26,-118 787.26,-137 856.26,-137 856.26,-118 787.26,-118"/>
<text text-anchor="middle" x="821.76" y="-125" font-family="Helvetica,sans-Serif" font-size="10.00">type_traits</text>
</a>
</g>
</g>
<!-- Node17&#45;&gt;Node11 -->
<g id="edge7" class="edge">
<title>Node17&#45;&gt;Node11</title>
<path fill="none" stroke="midnightblue" d="M479.68,-184.94C557.55,-172.09 703.3,-148.04 776.85,-135.91"/>
<polygon fill="midnightblue" stroke="midnightblue" points="777.87,-139.29 787.17,-134.21 776.73,-132.38 777.87,-139.29"/>
</g>
<!-- Node21&#45;&gt;Node4 -->
<g id="edge10" class="edge">
<title>Node21&#45;&gt;Node4</title>
<path fill="none" stroke="midnightblue" d="M299.04,-56.44C254.11,-47 181.77,-31.8 133.26,-21.61"/>
<polygon fill="midnightblue" stroke="midnightblue" points="133.8,-18.15 123.29,-19.52 132.36,-25 133.8,-18.15"/>
</g>
<!-- Node24&#45;&gt;Node18 -->
<g id="edge18" class="edge">
<title>Node24&#45;&gt;Node18</title>
<path fill="none" stroke="midnightblue" d="M979.34,-260.46C865.6,-259.5 610.26,-252.51 535.76,-210 512.66,-196.81 495.89,-170.71 486.05,-151.59"/>
<polygon fill="midnightblue" stroke="midnightblue" points="489.19,-150.04 481.66,-142.59 482.9,-153.11 489.19,-150.04"/>
</g>
<!-- Node25 -->
<g id="node13" class="node">
<title>Node25</title>
<g id="a_node13"><a xlink:href="util_8h.html" target="_top" xlink:title=" ">
<polygon fill="white" stroke="red" points="1470.76,-179.5 1470.76,-209.5 1580.76,-209.5 1580.76,-179.5 1470.76,-179.5"/>
<text text-anchor="start" x="1478.76" y="-197.5" font-family="Helvetica,sans-Serif" font-size="10.00">emlabcpp/allocator</text>
<text text-anchor="middle" x="1525.76" y="-186.5" font-family="Helvetica,sans-Serif" font-size="10.00">/util.h</text>
</a>
</g>
</g>
<!-- Node24&#45;&gt;Node25 -->
<g id="edge15" class="edge">
<title>Node24&#45;&gt;Node25</title>
<path fill="none" stroke="midnightblue" d="M1089.96,-255.84C1169.68,-248.7 1321.81,-233.53 1460.7,-210.07"/>
<polygon fill="midnightblue" stroke="midnightblue" points="1461.41,-213.5 1470.68,-208.37 1460.23,-206.6 1461.41,-213.5"/>
</g>
<!-- Node27 -->
<g id="node15" class="node">
<title>Node27</title>
<g id="a_node15"><a xlink:href="assert_8h.html" target="_top" xlink:title=" ">
<polygon fill="white" stroke="red" points="671.26,-185 671.26,-204 778.26,-204 778.26,-185 671.26,-185"/>
<text text-anchor="middle" x="724.76" y="-192" font-family="Helvetica,sans-Serif" font-size="10.00">emlabcpp/assert.h</text>
</a>
</g>
</g>
<!-- Node24&#45;&gt;Node27 -->
<g id="edge17" class="edge">
<title>Node24&#45;&gt;Node27</title>
<path fill="none" stroke="midnightblue" d="M979.74,-249.65C929.63,-239.68 853.63,-224.31 787.76,-210 782.35,-208.82 776.68,-207.56 771.05,-206.29"/>
<polygon fill="midnightblue" stroke="midnightblue" points="771.57,-202.82 761.04,-204.01 770.01,-209.64 771.57,-202.82"/>
</g>
<!-- Node29 -->
<g id="node16" class="node">
<title>Node29</title>
<g id="a_node16"><a xlink:href="numeric_8h.html" target="_top" xlink:title=" ">
<polygon fill="white" stroke="black" points="544.26,-179.5 544.26,-209.5 653.26,-209.5 653.26,-179.5 544.26,-179.5"/>
<text text-anchor="start" x="552.26" y="-197.5" font-family="Helvetica,sans-Serif" font-size="10.00">emlabcpp/iterators</text>
<text text-anchor="middle" x="598.76" y="-186.5" font-family="Helvetica,sans-Serif" font-size="10.00">/numeric.h</text>
</a>
</g>
</g>
<!-- Node24&#45;&gt;Node29 -->
<g id="edge19" class="edge">
<title>Node24&#45;&gt;Node29</title>
<path fill="none" stroke="midnightblue" d="M979.69,-254.56C908.86,-246.57 781.86,-231.11 663.47,-210.03"/>
<polygon fill="midnightblue" stroke="midnightblue" points="663.97,-206.56 653.51,-208.24 662.73,-213.45 663.97,-206.56"/>
</g>
<!-- Node31 -->
<g id="node18" class="node">
<title>Node31</title>
<g id="a_node18"><a xlink:href="static__vector_8h.html" target="_top" xlink:title=" ">
<polygon fill="white" stroke="red" points="861.26,-185 861.26,-204 1000.26,-204 1000.26,-185 861.26,-185"/>
<text text-anchor="middle" x="930.76" y="-192" font-family="Helvetica,sans-Serif" font-size="10.00">emlabcpp/static_vector.h</text>
</a>
</g>
</g>
<!-- Node24&#45;&gt;Node31 -->
<g id="edge22" class="edge">
<title>Node24&#45;&gt;Node31</title>
<path fill="none" stroke="midnightblue" d="M1012.2,-246.4C994.76,-235.5 970.73,-220.48 953.3,-209.58"/>
<polygon fill="midnightblue" stroke="midnightblue" points="954.71,-206.34 944.37,-204.01 951,-212.28 954.71,-206.34"/>
</g>
<!-- Node42 -->
<g id="node21" class="node">
<title>Node42</title>
<g id="a_node21"><a xlink:title=" ">
<polygon fill="white" stroke="#bfbfbf" points="796.26,-185 796.26,-204 843.26,-204 843.26,-185 796.26,-185"/>
<text text-anchor="middle" x="819.76" y="-192" font-family="Helvetica,sans-Serif" font-size="10.00">deque</text>
</a>
</g>
</g>
<!-- Node24&#45;&gt;Node42 -->
<g id="edge27" class="edge">
<title>Node24&#45;&gt;Node42</title>
<path fill="none" stroke="midnightblue" d="M979.57,-247.38C943.15,-238.19 894.62,-224.92 852.76,-210 851.1,-209.41 849.41,-208.77 847.7,-208.1"/>
<polygon fill="midnightblue" stroke="midnightblue" points="848.65,-204.71 838.08,-204.1 845.97,-211.17 848.65,-204.71"/>
</g>
<!-- Node43 -->
<g id="node22" class="node">
<title>Node43</title>
<g id="a_node22"><a xlink:title=" ">
<polygon fill="white" stroke="#bfbfbf" points="1018.76,-185 1018.76,-204 1050.76,-204 1050.76,-185 1018.76,-185"/>
<text text-anchor="middle" x="1034.76" y="-192" font-family="Helvetica,sans-Serif" font-size="10.00">list</text>
</a>
</g>
</g>
<!-- Node24&#45;&gt;Node43 -->
<g id="edge28" class="edge">
<title>Node24&#45;&gt;Node43</title>
<path fill="none" stroke="midnightblue" d="M1034.76,-246.4C1034.76,-237.06 1034.76,-224.71 1034.76,-214.52"/>
<polygon fill="midnightblue" stroke="midnightblue" points="1038.26,-214.19 1034.76,-204.19 1031.26,-214.19 1038.26,-214.19"/>
</g>
<!-- Node44 -->
<g id="node23" class="node">
<title>Node44</title>
<g id="a_node23"><a xlink:title=" ">
<polygon fill="white" stroke="#bfbfbf" points="1068.76,-185 1068.76,-204 1106.76,-204 1106.76,-185 1068.76,-185"/>
<text text-anchor="middle" x="1087.76" y="-192" font-family="Helvetica,sans-Serif" font-size="10.00">map</text>
</a>
</g>
</g>
<!-- Node24&#45;&gt;Node44 -->
<g id="edge29" class="edge">
<title>Node24&#45;&gt;Node44</title>
<path fill="none" stroke="midnightblue" d="M1046.26,-246.4C1054.45,-236.36 1065.47,-222.84 1074.1,-212.25"/>
<polygon fill="midnightblue" stroke="midnightblue" points="1077.07,-214.16 1080.67,-204.19 1071.64,-209.73 1077.07,-214.16"/>
</g>
<!-- Node45 -->
<g id="node24" class="node">
<title>Node45</title>
<g id="a_node24"><a xlink:title=" ">
<polygon fill="white" stroke="#bfbfbf" points="1124.76,-185 1124.76,-204 1182.76,-204 1182.76,-185 1124.76,-185"/>
<text text-anchor="middle" x="1153.76" y="-192" font-family="Helvetica,sans-Serif" font-size="10.00">memory</text>
</a>
</g>
</g>
<!-- Node24&#45;&gt;Node45 -->
<g id="edge30" class="edge">
<title>Node24&#45;&gt;Node45</title>
<path fill="none" stroke="midnightblue" d="M1060.58,-246.4C1081,-235.24 1109.31,-219.78 1129.35,-208.83"/>
<polygon fill="midnightblue" stroke="midnightblue" points="1131.09,-211.87 1138.19,-204.01 1127.73,-205.73 1131.09,-211.87"/>
</g>
<!-- Node46 -->
<g id="node25" class="node">
<title>Node46</title>
<g id="a_node25"><a xlink:title=" ">
<polygon fill="white" stroke="#bfbfbf" points="1200.76,-185 1200.76,-204 1232.76,-204 1232.76,-185 1200.76,-185"/>
<text text-anchor="middle" x="1216.76" y="-192" font-family="Helvetica,sans-Serif" font-size="10.00">set</text>
</a>
</g>
</g>
<!-- Node24&#45;&gt;Node46 -->
<g id="edge31" class="edge">
<title>Node24&#45;&gt;Node46</title>
<path fill="none" stroke="midnightblue" d="M1088.15,-246.42C1119.02,-237.52 1158.27,-224.89 1191.76,-210 1192.61,-209.63 1193.46,-209.23 1194.31,-208.82"/>
<polygon fill="midnightblue" stroke="midnightblue" points="1196.12,-211.82 1203.29,-204.02 1192.82,-205.65 1196.12,-211.82"/>
</g>
<!-- Node12 -->
<g id="node26" class="node">
<title>Node12</title>
<g id="a_node26"><a xlink:title=" ">
<polygon fill="white" stroke="#bfbfbf" points="1251.26,-185 1251.26,-204 1298.26,-204 1298.26,-185 1251.26,-185"/>
<text text-anchor="middle" x="1274.76" y="-192" font-family="Helvetica,sans-Serif" font-size="10.00">vector</text>
</a>
</g>
</g>
<!-- Node24&#45;&gt;Node12 -->
<g id="edge32" class="edge">
<title>Node24&#45;&gt;Node12</title>
<path fill="none" stroke="midnightblue" d="M1089.99,-249.77C1132.12,-240.93 1191.31,-227.09 1241.76,-210 1243.63,-209.37 1245.54,-208.67 1247.45,-207.94"/>
<polygon fill="midnightblue" stroke="midnightblue" points="1248.93,-211.11 1256.83,-204.06 1246.25,-204.64 1248.93,-211.11"/>
</g>
<!-- Node8 -->
<g id="node14" class="node">
<title>Node8</title>
<g id="a_node14"><a xlink:title=" ">
<polygon fill="white" stroke="#bfbfbf" points="1462.76,-118 1462.76,-137 1512.76,-137 1512.76,-118 1462.76,-118"/>
<text text-anchor="middle" x="1487.76" y="-125" font-family="Helvetica,sans-Serif" font-size="10.00">cstdint</text>
</a>
</g>
</g>
<!-- Node25&#45;&gt;Node8 -->
<g id="edge16" class="edge">
<title>Node25&#45;&gt;Node8</title>
<path fill="none" stroke="midnightblue" d="M1517.52,-179.4C1511.77,-169.56 1504.06,-156.38 1497.93,-145.89"/>
<polygon fill="midnightblue" stroke="midnightblue" points="1500.91,-144.06 1492.85,-137.19 1494.87,-147.59 1500.91,-144.06"/>
</g>
<!-- Node30 -->
<g id="node17" class="node">
<title>Node30</title>
<g id="a_node17"><a xlink:href="iterator_8h.html" target="_top" xlink:title=" ">
<polygon fill="white" stroke="red" points="874.76,-118 874.76,-137 986.76,-137 986.76,-118 874.76,-118"/>
<text text-anchor="middle" x="930.76" y="-125" font-family="Helvetica,sans-Serif" font-size="10.00">emlabcpp/iterator.h</text>
</a>
</g>
</g>
<!-- Node29&#45;&gt;Node30 -->
<g id="edge20" class="edge">
<title>Node29&#45;&gt;Node30</title>
<path fill="none" stroke="midnightblue" d="M653.54,-180.91C656.66,-180.25 659.75,-179.61 662.76,-179 752.58,-160.87 775.91,-160.98 865.76,-143 871.57,-141.84 877.66,-140.56 883.69,-139.26"/>
<polygon fill="midnightblue" stroke="midnightblue" points="884.68,-142.62 893.7,-137.06 883.18,-135.79 884.68,-142.62"/>
</g>
<!-- Node30&#45;&gt;Node21 -->
<g id="edge21" class="edge">
<title>Node30&#45;&gt;Node21</title>
<path fill="none" stroke="midnightblue" d="M896.52,-117.96C886.64,-115.74 875.82,-113.54 865.76,-112 697.77,-86.2 497.16,-74.16 399.33,-69.49"/>
<polygon fill="midnightblue" stroke="midnightblue" points="399.49,-65.99 389.34,-69.02 399.16,-72.99 399.49,-65.99"/>
</g>
<!-- Node31&#45;&gt;Node11 -->
<g id="edge25" class="edge">
<title>Node31&#45;&gt;Node11</title>
<path fill="none" stroke="midnightblue" d="M916.06,-184.73C897.84,-173.87 866.56,-155.22 845.06,-142.39"/>
<polygon fill="midnightblue" stroke="midnightblue" points="846.61,-139.24 836.23,-137.13 843.03,-145.26 846.61,-139.24"/>
</g>
<!-- Node31&#45;&gt;Node30 -->
<g id="edge23" class="edge">
<title>Node31&#45;&gt;Node30</title>
<path fill="none" stroke="midnightblue" d="M930.76,-184.73C930.76,-175.18 930.76,-159.62 930.76,-147.28"/>
<polygon fill="midnightblue" stroke="midnightblue" points="934.26,-147.13 930.76,-137.13 927.26,-147.13 934.26,-147.13"/>
</g>
<!-- Node40 -->
<g id="node19" class="node">
<title>Node40</title>
<g id="a_node19"><a xlink:title=" ">
<polygon fill="white" stroke="#bfbfbf" points="1247.26,-118 1247.26,-137 1284.26,-137 1284.26,-118 1247.26,-118"/>
<text text-anchor="middle" x="1265.76" y="-125" font-family="Helvetica,sans-Serif" font-size="10.00">new</text>
</a>
</g>
</g>
<!-- Node31&#45;&gt;Node40 -->
<g id="edge24" class="edge">
<title>Node31&#45;&gt;Node40</title>
<path fill="none" stroke="midnightblue" d="M974.9,-184.94C1044.65,-171.4 1178.43,-145.44 1237.05,-134.07"/>
<polygon fill="midnightblue" stroke="midnightblue" points="1237.94,-137.46 1247.09,-132.12 1236.61,-130.59 1237.94,-137.46"/>
</g>
<!-- Node41 -->
<g id="node20" class="node">
<title>Node41</title>
<g id="a_node20"><a xlink:title=" ">
<polygon fill="white" stroke="#bfbfbf" points="1065.26,-118 1065.26,-137 1110.26,-137 1110.26,-118 1065.26,-118"/>
<text text-anchor="middle" x="1087.76" y="-125" font-family="Helvetica,sans-Serif" font-size="10.00">utility</text>
</a>
</g>
</g>
<!-- Node31&#45;&gt;Node41 -->
<g id="edge26" class="edge">
<title>Node31&#45;&gt;Node41</title>
<path fill="none" stroke="midnightblue" d="M951.61,-184.87C978.71,-173.65 1026.23,-153.98 1057.35,-141.09"/>
<polygon fill="midnightblue" stroke="midnightblue" points="1058.93,-144.23 1066.83,-137.17 1056.25,-137.76 1058.93,-144.23"/>
</g>
<!-- Node47&#45;&gt;Node11 -->
<g id="edge38" class="edge">
<title>Node47&#45;&gt;Node11</title>
<path fill="none" stroke="midnightblue" d="M1316.39,-180.24C1313.48,-179.8 1310.59,-179.38 1307.76,-179 1112.43,-152.73 1058.94,-182.12 865.76,-143 861.88,-142.21 857.87,-141.19 853.91,-140.06"/>
<polygon fill="midnightblue" stroke="midnightblue" points="854.91,-136.7 844.32,-137.07 852.83,-143.39 854.91,-136.7"/>
</g>
<!-- Node47&#45;&gt;Node8 -->
<g id="edge35" class="edge">
<title>Node47&#45;&gt;Node8</title>
<path fill="none" stroke="midnightblue" d="M1407.11,-179.4C1424.39,-168.5 1448.18,-153.48 1465.45,-142.58"/>
<polygon fill="midnightblue" stroke="midnightblue" points="1467.69,-145.3 1474.28,-137.01 1463.96,-139.38 1467.69,-145.3"/>
</g>
<!-- Node47&#45;&gt;Node30 -->
<g id="edge34" class="edge">
<title>Node47&#45;&gt;Node30</title>
<path fill="none" stroke="midnightblue" d="M1316.36,-180.42C1313.46,-179.93 1310.58,-179.45 1307.76,-179 1199.26,-161.53 1072.51,-145.43 997.08,-136.31"/>
<polygon fill="midnightblue" stroke="midnightblue" points="997.14,-132.79 986.79,-135.06 996.3,-139.74 997.14,-132.79"/>
</g>
<!-- Node47&#45;&gt;Node40 -->
<g id="edge37" class="edge">
<title>Node47&#45;&gt;Node40</title>
<path fill="none" stroke="midnightblue" d="M1358.94,-179.4C1338.52,-168.24 1310.22,-152.78 1290.17,-141.83"/>
<polygon fill="midnightblue" stroke="midnightblue" points="1291.79,-138.73 1281.34,-137.01 1288.44,-144.87 1291.79,-138.73"/>
</g>
<!-- Node47&#45;&gt;Node41 -->
<g id="edge39" class="edge">
<title>Node47&#45;&gt;Node41</title>
<path fill="none" stroke="midnightblue" d="M1320.68,-179.48C1259.04,-165.99 1168.34,-146.13 1120.34,-135.63"/>
<polygon fill="midnightblue" stroke="midnightblue" points="1121.01,-132.19 1110.49,-133.47 1119.51,-139.03 1121.01,-132.19"/>
</g>
<!-- Node48 -->
<g id="node28" class="node">
<title>Node48</title>
<g id="a_node28"><a xlink:title=" ">
<polygon fill="white" stroke="#bfbfbf" points="1362.76,-118 1362.76,-137 1406.76,-137 1406.76,-118 1362.76,-118"/>
<text text-anchor="middle" x="1384.76" y="-125" font-family="Helvetica,sans-Serif" font-size="10.00">limits</text>
</a>
</g>
</g>
<!-- Node47&#45;&gt;Node48 -->
<g id="edge36" class="edge">
<title>Node47&#45;&gt;Node48</title>
<path fill="none" stroke="midnightblue" d="M1384.76,-179.4C1384.76,-170.06 1384.76,-157.71 1384.76,-147.52"/>
<polygon fill="midnightblue" stroke="midnightblue" points="1388.26,-147.19 1384.76,-137.19 1381.26,-147.19 1388.26,-147.19"/>
</g>
</g>
</svg>
