<?xml version="1.0" encoding="UTF-8" standalone="no"?>
<!DOCTYPE svg PUBLIC "-//W3C//DTD SVG 1.1//EN"
 "http://www.w3.org/Graphics/SVG/1.1/DTD/svg11.dtd">
<!-- Generated by graphviz version 2.43.0 (0)
 -->
<!-- Title: include/emlabcpp/experimental/coro/round_robin_executor.h Pages: 1 -->
<svg width="1080pt" height="274pt"
 viewBox="0.00 0.00 1079.69 274.00" xmlns="http://www.w3.org/2000/svg" xmlns:xlink="http://www.w3.org/1999/xlink">
<g id="graph0" class="graph" transform="scale(1 1) rotate(0) translate(4 270)">
<title>include/emlabcpp/experimental/coro/round_robin_executor.h</title>
<polygon fill="white" stroke="transparent" points="-4,4 -4,-270 1075.69,-270 1075.69,4 -4,4"/>
<!-- Node1 -->
<g id="node1" class="node">
<title>Node1</title>
<g id="a_node1"><a xlink:title=" ">
<polygon fill="#bfbfbf" stroke="black" points="191.69,-235.5 191.69,-265.5 362.69,-265.5 362.69,-235.5 191.69,-235.5"/>
<text text-anchor="start" x="199.69" y="-253.5" font-family="Helvetica,sans-Serif" font-size="10.00">include/emlabcpp/experimental</text>
<text text-anchor="middle" x="277.19" y="-242.5" font-family="Helvetica,sans-Serif" font-size="10.00">/coro/round_robin_executor.h</text>
</a>
</g>
</g>
<!-- Node2 -->
<g id="node2" class="node">
<title>Node2</title>
<g id="a_node2"><a xlink:href="algorithm_8h.html" target="_top" xlink:title=" ">
<polygon fill="white" stroke="black" points="633.19,-174 633.19,-193 757.19,-193 757.19,-174 633.19,-174"/>
<text text-anchor="middle" x="695.19" y="-181" font-family="Helvetica,sans-Serif" font-size="10.00">emlabcpp/algorithm.h</text>
</a>
</g>
</g>
<!-- Node1&#45;&gt;Node2 -->
<g id="edge1" class="edge">
<title>Node1&#45;&gt;Node2</title>
<path fill="none" stroke="midnightblue" d="M362.79,-236.19C442.01,-223.87 558.09,-205.82 630.03,-194.63"/>
<polygon fill="midnightblue" stroke="midnightblue" points="630.97,-198.03 640.31,-193.03 629.89,-191.11 630.97,-198.03"/>
</g>
<!-- Node28 -->
<g id="node12" class="node">
<title>Node28</title>
<g id="a_node12"><a xlink:href="memory__resource_8h.html" target="_top" xlink:title=" ">
<polygon fill="white" stroke="black" points="5.69,-168.5 5.69,-198.5 136.69,-198.5 136.69,-168.5 5.69,-168.5"/>
<text text-anchor="start" x="13.69" y="-186.5" font-family="Helvetica,sans-Serif" font-size="10.00">emlabcpp/pmr/memory</text>
<text text-anchor="middle" x="71.19" y="-175.5" font-family="Helvetica,sans-Serif" font-size="10.00">_resource.h</text>
</a>
</g>
</g>
<!-- Node1&#45;&gt;Node28 -->
<g id="edge15" class="edge">
<title>Node1&#45;&gt;Node28</title>
<path fill="none" stroke="midnightblue" d="M232.75,-235.48C201.31,-225.56 158.98,-212.2 125.54,-201.65"/>
<polygon fill="midnightblue" stroke="midnightblue" points="126.5,-198.28 115.91,-198.61 124.4,-204.96 126.5,-198.28"/>
</g>
<!-- Node30 -->
<g id="node14" class="node">
<title>Node30</title>
<g id="a_node14"><a xlink:href="static__circular__buffer_8h.html" target="_top" xlink:title=" ">
<polygon fill="white" stroke="black" points="209.19,-168.5 209.19,-198.5 345.19,-198.5 345.19,-168.5 209.19,-168.5"/>
<text text-anchor="start" x="217.19" y="-186.5" font-family="Helvetica,sans-Serif" font-size="10.00">emlabcpp/static_circular</text>
<text text-anchor="middle" x="277.19" y="-175.5" font-family="Helvetica,sans-Serif" font-size="10.00">_buffer.h</text>
</a>
</g>
</g>
<!-- Node1&#45;&gt;Node30 -->
<g id="edge17" class="edge">
<title>Node1&#45;&gt;Node30</title>
<path fill="none" stroke="midnightblue" d="M277.19,-235.4C277.19,-227.64 277.19,-217.81 277.19,-208.86"/>
<polygon fill="midnightblue" stroke="midnightblue" points="280.69,-208.58 277.19,-198.58 273.69,-208.58 280.69,-208.58"/>
</g>
<!-- Node3 -->
<g id="node3" class="node">
<title>Node3</title>
<g id="a_node3"><a xlink:href="impl_8h.html" target="_top" xlink:title=" ">
<polygon fill="white" stroke="black" points="742.19,-112.5 742.19,-131.5 846.19,-131.5 846.19,-112.5 742.19,-112.5"/>
<text text-anchor="middle" x="794.19" y="-119.5" font-family="Helvetica,sans-Serif" font-size="10.00">./algorithm/impl.h</text>
</a>
</g>
</g>
<!-- Node2&#45;&gt;Node3 -->
<g id="edge2" class="edge">
<title>Node2&#45;&gt;Node3</title>
<path fill="none" stroke="midnightblue" d="M709.38,-173.98C725.55,-164.25 752.22,-148.23 771.34,-136.74"/>
<polygon fill="midnightblue" stroke="midnightblue" points="773.27,-139.66 780.04,-131.51 769.66,-133.66 773.27,-139.66"/>
</g>
<!-- Node4 -->
<g id="node4" class="node">
<title>Node4</title>
<g id="a_node4"><a xlink:href="types_8h.html" target="_top" xlink:title=" ">
<polygon fill="white" stroke="red" points="683.19,-0.5 683.19,-19.5 745.19,-19.5 745.19,-0.5 683.19,-0.5"/>
<text text-anchor="middle" x="714.19" y="-7.5" font-family="Helvetica,sans-Serif" font-size="10.00">../types.h</text>
</a>
</g>
</g>
<!-- Node2&#45;&gt;Node4 -->
<g id="edge10" class="edge">
<title>Node2&#45;&gt;Node4</title>
<path fill="none" stroke="midnightblue" d="M696.16,-173.76C699.11,-147.15 708.02,-66.71 712.11,-29.84"/>
<polygon fill="midnightblue" stroke="midnightblue" points="715.63,-29.84 713.25,-19.52 708.67,-29.07 715.63,-29.84"/>
</g>
<!-- Node10 -->
<g id="node5" class="node">
<title>Node10</title>
<g id="a_node5"><a xlink:title=" ">
<polygon fill="white" stroke="#bfbfbf" points="827.69,-56.5 827.69,-75.5 868.69,-75.5 868.69,-56.5 827.69,-56.5"/>
<text text-anchor="middle" x="848.19" y="-63.5" font-family="Helvetica,sans-Serif" font-size="10.00">tuple</text>
</a>
</g>
</g>
<!-- Node2&#45;&gt;Node10 -->
<g id="edge14" class="edge">
<title>Node2&#45;&gt;Node10</title>
<path fill="none" stroke="midnightblue" d="M757.45,-179.98C792.21,-174.99 832.89,-162.42 855.19,-132 865.03,-118.58 861.3,-99.21 856.32,-85.11"/>
<polygon fill="midnightblue" stroke="midnightblue" points="859.45,-83.51 852.47,-75.54 852.96,-86.12 859.45,-83.51"/>
</g>
<!-- Node17 -->
<g id="node6" class="node">
<title>Node17</title>
<g id="a_node6"><a xlink:href="bounded_8h.html" target="_top" xlink:title=" ">
<polygon fill="white" stroke="red" points="902.19,-112.5 902.19,-131.5 976.19,-131.5 976.19,-112.5 902.19,-112.5"/>
<text text-anchor="middle" x="939.19" y="-119.5" font-family="Helvetica,sans-Serif" font-size="10.00">./bounded.h</text>
</a>
</g>
</g>
<!-- Node2&#45;&gt;Node17 -->
<g id="edge5" class="edge">
<title>Node2&#45;&gt;Node17</title>
<path fill="none" stroke="midnightblue" d="M730.15,-173.98C773.37,-163.44 846.98,-145.49 894.32,-133.94"/>
<polygon fill="midnightblue" stroke="midnightblue" points="895.41,-137.28 904.3,-131.51 893.75,-130.48 895.41,-137.28"/>
</g>
<!-- Node19 -->
<g id="node7" class="node">
<title>Node19</title>
<g id="a_node7"><a xlink:href="min__max_8h.html" target="_top" xlink:title=" ">
<polygon fill="white" stroke="red" points="994.69,-112.5 994.69,-131.5 1071.69,-131.5 1071.69,-112.5 994.69,-112.5"/>
<text text-anchor="middle" x="1033.19" y="-119.5" font-family="Helvetica,sans-Serif" font-size="10.00">./min_max.h</text>
</a>
</g>
</g>
<!-- Node2&#45;&gt;Node19 -->
<g id="edge6" class="edge">
<title>Node2&#45;&gt;Node19</title>
<path fill="none" stroke="midnightblue" d="M745.26,-173.98C801.06,-164.45 894.24,-148.39 984.8,-132.05"/>
<polygon fill="midnightblue" stroke="midnightblue" points="985.47,-135.49 994.69,-130.26 984.23,-128.6 985.47,-135.49"/>
</g>
<!-- Node21 -->
<g id="node8" class="node">
<title>Node21</title>
<g id="a_node8"><a xlink:href="range_8h.html" target="_top" xlink:title=" ">
<polygon fill="white" stroke="red" points="456.69,-112.5 456.69,-131.5 515.69,-131.5 515.69,-112.5 456.69,-112.5"/>
<text text-anchor="middle" x="486.19" y="-119.5" font-family="Helvetica,sans-Serif" font-size="10.00">./range.h</text>
</a>
</g>
</g>
<!-- Node2&#45;&gt;Node21 -->
<g id="edge7" class="edge">
<title>Node2&#45;&gt;Node21</title>
<path fill="none" stroke="midnightblue" d="M665.25,-173.98C628.52,-163.52 566.14,-145.76 525.56,-134.21"/>
<polygon fill="midnightblue" stroke="midnightblue" points="526.32,-130.78 515.74,-131.41 524.4,-137.52 526.32,-130.78"/>
</g>
<!-- Node24 -->
<g id="node9" class="node">
<title>Node24</title>
<g id="a_node9"><a xlink:href="view_8h.html" target="_top" xlink:title=" ">
<polygon fill="white" stroke="red" points="546.19,-56.5 546.19,-75.5 600.19,-75.5 600.19,-56.5 546.19,-56.5"/>
<text text-anchor="middle" x="573.19" y="-63.5" font-family="Helvetica,sans-Serif" font-size="10.00">./view.h</text>
</a>
</g>
</g>
<!-- Node2&#45;&gt;Node24 -->
<g id="edge11" class="edge">
<title>Node2&#45;&gt;Node24</title>
<path fill="none" stroke="midnightblue" d="M692.18,-173.68C686.88,-159.23 674.67,-130.32 656.19,-112 642.08,-98.01 622.73,-87.18 606.26,-79.65"/>
<polygon fill="midnightblue" stroke="midnightblue" points="607.52,-76.39 596.96,-75.61 604.73,-82.81 607.52,-76.39"/>
</g>
<!-- Node26 -->
<g id="node10" class="node">
<title>Node26</title>
<g id="a_node10"><a xlink:title=" ">
<polygon fill="white" stroke="#bfbfbf" points="533.69,-112.5 533.69,-131.5 580.69,-131.5 580.69,-112.5 533.69,-112.5"/>
<text text-anchor="middle" x="557.19" y="-119.5" font-family="Helvetica,sans-Serif" font-size="10.00">cmath</text>
</a>
</g>
</g>
<!-- Node2&#45;&gt;Node26 -->
<g id="edge12" class="edge">
<title>Node2&#45;&gt;Node26</title>
<path fill="none" stroke="midnightblue" d="M675.42,-173.98C652.06,-163.9 612.98,-147.05 586.19,-135.5"/>
<polygon fill="midnightblue" stroke="midnightblue" points="587.5,-132.25 576.93,-131.51 584.73,-138.68 587.5,-132.25"/>
</g>
<!-- Node27 -->
<g id="node11" class="node">
<title>Node27</title>
<g id="a_node11"><a xlink:title=" ">
<polygon fill="white" stroke="#bfbfbf" points="598.69,-112.5 598.69,-131.5 647.69,-131.5 647.69,-112.5 598.69,-112.5"/>
<text text-anchor="middle" x="623.19" y="-119.5" font-family="Helvetica,sans-Serif" font-size="10.00">cstdlib</text>
</a>
</g>
</g>
<!-- Node2&#45;&gt;Node27 -->
<g id="edge13" class="edge">
<title>Node2&#45;&gt;Node27</title>
<path fill="none" stroke="midnightblue" d="M684.88,-173.98C673.54,-164.61 655.12,-149.38 641.35,-138.01"/>
<polygon fill="midnightblue" stroke="midnightblue" points="643.43,-135.18 633.49,-131.51 638.97,-140.58 643.43,-135.18"/>
</g>
<!-- Node3&#45;&gt;Node4 -->
<g id="edge3" class="edge">
<title>Node3&#45;&gt;Node4</title>
<path fill="none" stroke="midnightblue" d="M787.92,-112.37C774.71,-94.22 743.87,-51.8 726.55,-27.99"/>
<polygon fill="midnightblue" stroke="midnightblue" points="729.15,-25.62 720.44,-19.59 723.49,-29.74 729.15,-25.62"/>
</g>
<!-- Node3&#45;&gt;Node10 -->
<g id="edge4" class="edge">
<title>Node3&#45;&gt;Node10</title>
<path fill="none" stroke="midnightblue" d="M803.11,-112.08C810.97,-104.22 822.62,-92.57 832.11,-83.08"/>
<polygon fill="midnightblue" stroke="midnightblue" points="834.85,-85.3 839.44,-75.75 829.9,-80.35 834.85,-85.3"/>
</g>
<!-- Node21&#45;&gt;Node24 -->
<g id="edge8" class="edge">
<title>Node21&#45;&gt;Node24</title>
<path fill="none" stroke="midnightblue" d="M500.17,-112.32C513.74,-103.9 534.57,-90.97 550.52,-81.07"/>
<polygon fill="midnightblue" stroke="midnightblue" points="552.6,-83.9 559.25,-75.65 548.91,-77.95 552.6,-83.9"/>
</g>
<!-- Node24&#45;&gt;Node4 -->
<g id="edge9" class="edge">
<title>Node24&#45;&gt;Node4</title>
<path fill="none" stroke="midnightblue" d="M595.53,-56.44C618.95,-47.48 655.93,-33.31 682.38,-23.18"/>
<polygon fill="midnightblue" stroke="midnightblue" points="683.87,-26.36 691.96,-19.52 681.37,-19.82 683.87,-26.36"/>
</g>
<!-- Node29 -->
<g id="node13" class="node">
<title>Node29</title>
<g id="a_node13"><a xlink:title=" ">
<polygon fill="white" stroke="#bfbfbf" points="41.69,-56.5 41.69,-75.5 94.69,-75.5 94.69,-56.5 41.69,-56.5"/>
<text text-anchor="middle" x="68.19" y="-63.5" font-family="Helvetica,sans-Serif" font-size="10.00">cstddef</text>
</a>
</g>
</g>
<!-- Node28&#45;&gt;Node29 -->
<g id="edge16" class="edge">
<title>Node28&#45;&gt;Node29</title>
<path fill="none" stroke="midnightblue" d="M41.08,-168.44C26.82,-160.05 11.19,-147.9 3.19,-132 -7.54,-110.67 16.48,-92.07 38.29,-80.29"/>
<polygon fill="midnightblue" stroke="midnightblue" points="40.06,-83.32 47.4,-75.68 36.9,-77.08 40.06,-83.32"/>
</g>
<!-- Node30&#45;&gt;Node24 -->
<g id="edge21" class="edge">
<title>Node30&#45;&gt;Node24</title>
<path fill="none" stroke="midnightblue" d="M317.56,-168.47C343.96,-158.95 379.01,-145.66 409.19,-132 426.58,-124.13 429.72,-119.67 447.19,-112 476.48,-99.14 510.72,-87.09 536.11,-78.71"/>
<polygon fill="midnightblue" stroke="midnightblue" points="537.3,-82 545.72,-75.57 535.13,-75.34 537.3,-82"/>
</g>
<!-- Node23 -->
<g id="node15" class="node">
<title>Node23</title>
<g id="a_node15"><a xlink:href="iterator_8h.html" target="_top" xlink:title=" ">
<polygon fill="white" stroke="red" points="12.19,-112.5 12.19,-131.5 82.19,-131.5 82.19,-112.5 12.19,-112.5"/>
<text text-anchor="middle" x="47.19" y="-119.5" font-family="Helvetica,sans-Serif" font-size="10.00">../iterator.h</text>
</a>
</g>
</g>
<!-- Node30&#45;&gt;Node23 -->
<g id="edge18" class="edge">
<title>Node30&#45;&gt;Node23</title>
<path fill="none" stroke="midnightblue" d="M222.98,-168.47C182.43,-157.99 127.74,-143.84 90.19,-134.12"/>
<polygon fill="midnightblue" stroke="midnightblue" points="90.63,-130.62 80.07,-131.51 88.88,-137.4 90.63,-130.62"/>
</g>
<!-- Node31 -->
<g id="node16" class="node">
<title>Node31</title>
<g id="a_node16"><a xlink:href="static__storage_8h.html" target="_top" xlink:title=" ">
<polygon fill="white" stroke="red" points="100.69,-112.5 100.69,-131.5 201.69,-131.5 201.69,-112.5 100.69,-112.5"/>
<text text-anchor="middle" x="151.19" y="-119.5" font-family="Helvetica,sans-Serif" font-size="10.00">./static_storage.h</text>
</a>
</g>
</g>
<!-- Node30&#45;&gt;Node31 -->
<g id="edge19" class="edge">
<title>Node30&#45;&gt;Node31</title>
<path fill="none" stroke="midnightblue" d="M247.33,-168.4C226.57,-158.59 199.09,-145.62 178.83,-136.05"/>
<polygon fill="midnightblue" stroke="midnightblue" points="180.06,-132.76 169.53,-131.66 177.08,-139.09 180.06,-132.76"/>
</g>
<!-- Node35 -->
<g id="node17" class="node">
<title>Node35</title>
<g id="a_node17"><a xlink:title=" ">
<polygon fill="white" stroke="#bfbfbf" points="220.19,-112.5 220.19,-131.5 270.19,-131.5 270.19,-112.5 220.19,-112.5"/>
<text text-anchor="middle" x="245.19" y="-119.5" font-family="Helvetica,sans-Serif" font-size="10.00">atomic</text>
</a>
</g>
</g>
<!-- Node30&#45;&gt;Node35 -->
<g id="edge22" class="edge">
<title>Node30&#45;&gt;Node35</title>
<path fill="none" stroke="midnightblue" d="M269.61,-168.4C265.15,-160.11 259.47,-149.55 254.72,-140.71"/>
<polygon fill="midnightblue" stroke="midnightblue" points="257.67,-138.81 249.85,-131.66 251.5,-142.12 257.67,-138.81"/>
</g>
<!-- Node36 -->
<g id="node18" class="node">
<title>Node36</title>
<g id="a_node18"><a xlink:title=" ">
<polygon fill="white" stroke="#bfbfbf" points="288.19,-112.5 288.19,-131.5 332.19,-131.5 332.19,-112.5 288.19,-112.5"/>
<text text-anchor="middle" x="310.19" y="-119.5" font-family="Helvetica,sans-Serif" font-size="10.00">limits</text>
</a>
</g>
</g>
<!-- Node30&#45;&gt;Node36 -->
<g id="edge23" class="edge">
<title>Node30&#45;&gt;Node36</title>
<path fill="none" stroke="midnightblue" d="M285.01,-168.4C289.66,-160.02 295.59,-149.33 300.53,-140.42"/>
<polygon fill="midnightblue" stroke="midnightblue" points="303.6,-142.1 305.39,-131.66 297.48,-138.71 303.6,-142.1"/>
</g>
<!-- Node9 -->
<g id="node19" class="node">
<title>Node9</title>
<g id="a_node19"><a xlink:title=" ">
<polygon fill="white" stroke="#bfbfbf" points="350.19,-112.5 350.19,-131.5 400.19,-131.5 400.19,-112.5 350.19,-112.5"/>
<text text-anchor="middle" x="375.19" y="-119.5" font-family="Helvetica,sans-Serif" font-size="10.00">ranges</text>
</a>
</g>
</g>
<!-- Node30&#45;&gt;Node9 -->
<g id="edge24" class="edge">
<title>Node30&#45;&gt;Node9</title>
<path fill="none" stroke="midnightblue" d="M300.42,-168.4C315.98,-158.95 336.39,-146.56 351.95,-137.11"/>
<polygon fill="midnightblue" stroke="midnightblue" points="354.2,-139.84 360.93,-131.66 350.57,-133.86 354.2,-139.84"/>
</g>
<!-- Node31&#45;&gt;Node29 -->
<g id="edge20" class="edge">
<title>Node31&#45;&gt;Node29</title>
<path fill="none" stroke="midnightblue" d="M137.86,-112.32C125.03,-103.98 105.41,-91.21 90.25,-81.35"/>
<polygon fill="midnightblue" stroke="midnightblue" points="91.79,-78.17 81.5,-75.65 87.97,-84.04 91.79,-78.17"/>
</g>
</g>
</svg>
