<?xml version="1.0" encoding="UTF-8" standalone="no"?>
<!DOCTYPE svg PUBLIC "-//W3C//DTD SVG 1.1//EN"
 "http://www.w3.org/Graphics/SVG/1.1/DTD/svg11.dtd">
<!-- Generated by graphviz version 2.43.0 (0)
 -->
<!-- Title: include/emlabcpp/experimental/coro/round_robin_executor.h Pages: 1 -->
<svg width="885pt" height="285pt"
 viewBox="0.00 0.00 885.49 285.00" xmlns="http://www.w3.org/2000/svg" xmlns:xlink="http://www.w3.org/1999/xlink">
<g id="graph0" class="graph" transform="scale(1 1) rotate(0) translate(4 281)">
<title>include/emlabcpp/experimental/coro/round_robin_executor.h</title>
<polygon fill="white" stroke="transparent" points="-4,4 -4,-281 881.49,-281 881.49,4 -4,4"/>
<!-- Node1 -->
<g id="node1" class="node">
<title>Node1</title>
<g id="a_node1"><a xlink:title=" ">
<polygon fill="#bfbfbf" stroke="black" points="526.49,-246.5 526.49,-276.5 697.49,-276.5 697.49,-246.5 526.49,-246.5"/>
<text text-anchor="start" x="534.49" y="-264.5" font-family="Helvetica,sans-Serif" font-size="10.00">include/emlabcpp/experimental</text>
<text text-anchor="middle" x="611.99" y="-253.5" font-family="Helvetica,sans-Serif" font-size="10.00">/coro/round_robin_executor.h</text>
</a>
</g>
</g>
<!-- Node2 -->
<g id="node2" class="node">
<title>Node2</title>
<g id="a_node2"><a xlink:href="algorithm_8h.html" target="_top" xlink:title=" ">
<polygon fill="white" stroke="black" points="325.99,-123.5 325.99,-142.5 449.99,-142.5 449.99,-123.5 325.99,-123.5"/>
<text text-anchor="middle" x="387.99" y="-130.5" font-family="Helvetica,sans-Serif" font-size="10.00">emlabcpp/algorithm.h</text>
</a>
</g>
</g>
<!-- Node1&#45;&gt;Node2 -->
<g id="edge1" class="edge">
<title>Node1&#45;&gt;Node2</title>
<path fill="none" stroke="midnightblue" d="M587.16,-246.48C543.85,-222.02 455.02,-171.85 412.17,-147.65"/>
<polygon fill="midnightblue" stroke="midnightblue" points="413.7,-144.5 403.27,-142.63 410.26,-150.6 413.7,-144.5"/>
</g>
<!-- Node42 -->
<g id="node11" class="node">
<title>Node42</title>
<g id="a_node11"><a xlink:href="memory__resource_8h.html" target="_top" xlink:title=" ">
<polygon fill="white" stroke="black" points="746.49,-179.5 746.49,-209.5 877.49,-209.5 877.49,-179.5 746.49,-179.5"/>
<text text-anchor="start" x="754.49" y="-197.5" font-family="Helvetica,sans-Serif" font-size="10.00">emlabcpp/pmr/memory</text>
<text text-anchor="middle" x="811.99" y="-186.5" font-family="Helvetica,sans-Serif" font-size="10.00">_resource.h</text>
</a>
</g>
</g>
<!-- Node1&#45;&gt;Node42 -->
<g id="edge13" class="edge">
<title>Node1&#45;&gt;Node42</title>
<path fill="none" stroke="midnightblue" d="M655.39,-246.4C685.79,-236.52 726.6,-223.25 758.94,-212.74"/>
<polygon fill="midnightblue" stroke="midnightblue" points="760.25,-216 768.68,-209.58 758.09,-209.34 760.25,-216"/>
</g>
<!-- Node44 -->
<g id="node13" class="node">
<title>Node44</title>
<g id="a_node13"><a xlink:href="static__circular__buffer_8h.html" target="_top" xlink:title=" ">
<polygon fill="white" stroke="black" points="543.99,-179.5 543.99,-209.5 679.99,-209.5 679.99,-179.5 543.99,-179.5"/>
<text text-anchor="start" x="551.99" y="-197.5" font-family="Helvetica,sans-Serif" font-size="10.00">emlabcpp/static_circular</text>
<text text-anchor="middle" x="611.99" y="-186.5" font-family="Helvetica,sans-Serif" font-size="10.00">_buffer.h</text>
</a>
</g>
</g>
<!-- Node1&#45;&gt;Node44 -->
<g id="edge15" class="edge">
<title>Node1&#45;&gt;Node44</title>
<path fill="none" stroke="midnightblue" d="M611.99,-246.4C611.99,-238.64 611.99,-228.81 611.99,-219.86"/>
<polygon fill="midnightblue" stroke="midnightblue" points="615.49,-219.58 611.99,-209.58 608.49,-219.58 615.49,-219.58"/>
</g>
<!-- Node3 -->
<g id="node3" class="node">
<title>Node3</title>
<g id="a_node3"><a xlink:href="impl_8h.html" target="_top" xlink:title=" ">
<polygon fill="white" stroke="black" points="430.49,-56.5 430.49,-86.5 545.49,-86.5 545.49,-56.5 430.49,-56.5"/>
<text text-anchor="start" x="438.49" y="-74.5" font-family="Helvetica,sans-Serif" font-size="10.00">emlabcpp/algorithm</text>
<text text-anchor="middle" x="487.99" y="-63.5" font-family="Helvetica,sans-Serif" font-size="10.00">/impl.h</text>
</a>
</g>
</g>
<!-- Node2&#45;&gt;Node3 -->
<g id="edge2" class="edge">
<title>Node2&#45;&gt;Node3</title>
<path fill="none" stroke="midnightblue" d="M402.32,-123.48C416.12,-115.27 437.47,-102.56 455.41,-91.88"/>
<polygon fill="midnightblue" stroke="midnightblue" points="457.62,-94.64 464.42,-86.52 454.04,-88.63 457.62,-94.64"/>
</g>
<!-- Node4 -->
<g id="node4" class="node">
<title>Node4</title>
<g id="a_node4"><a xlink:href="types_8h.html" target="_top" xlink:title=" ">
<polygon fill="white" stroke="red" points="521.99,-0.5 521.99,-19.5 625.99,-19.5 625.99,-0.5 521.99,-0.5"/>
<text text-anchor="middle" x="573.99" y="-7.5" font-family="Helvetica,sans-Serif" font-size="10.00">emlabcpp/types.h</text>
</a>
</g>
</g>
<!-- Node2&#45;&gt;Node4 -->
<g id="edge7" class="edge">
<title>Node2&#45;&gt;Node4</title>
<path fill="none" stroke="midnightblue" d="M450.07,-130.22C485.33,-125.94 527.75,-114.75 554.99,-87 569.78,-71.94 573.62,-47.21 574.35,-30.07"/>
<polygon fill="midnightblue" stroke="midnightblue" points="577.86,-29.66 574.46,-19.63 570.86,-29.59 577.86,-29.66"/>
</g>
<!-- Node10 -->
<g id="node5" class="node">
<title>Node10</title>
<g id="a_node5"><a xlink:title=" ">
<polygon fill="white" stroke="#bfbfbf" points="217.49,-0.5 217.49,-19.5 258.49,-19.5 258.49,-0.5 217.49,-0.5"/>
<text text-anchor="middle" x="237.99" y="-7.5" font-family="Helvetica,sans-Serif" font-size="10.00">tuple</text>
</a>
</g>
</g>
<!-- Node2&#45;&gt;Node10 -->
<g id="edge12" class="edge">
<title>Node2&#45;&gt;Node10</title>
<path fill="none" stroke="midnightblue" d="M325.87,-129.02C224.21,-123.51 31.51,-110.11 10.99,-87 -45.42,-23.46 133.05,-12.94 207.22,-11.27"/>
<polygon fill="midnightblue" stroke="midnightblue" points="207.43,-14.77 217.36,-11.09 207.3,-7.77 207.43,-14.77"/>
</g>
<!-- Node17 -->
<g id="node6" class="node">
<title>Node17</title>
<g id="a_node6"><a xlink:href="bounded_8h.html" target="_top" xlink:title=" ">
<polygon fill="white" stroke="red" points="20.49,-62 20.49,-81 139.49,-81 139.49,-62 20.49,-62"/>
<text text-anchor="middle" x="79.99" y="-69" font-family="Helvetica,sans-Serif" font-size="10.00">emlabcpp/bounded.h</text>
</a>
</g>
</g>
<!-- Node2&#45;&gt;Node17 -->
<g id="edge5" class="edge">
<title>Node2&#45;&gt;Node17</title>
<path fill="none" stroke="midnightblue" d="M341.22,-123.49C293,-114.65 215.66,-100.28 148.99,-87 142.77,-85.76 136.24,-84.43 129.77,-83.09"/>
<polygon fill="midnightblue" stroke="midnightblue" points="130.24,-79.61 119.73,-81 128.81,-86.47 130.24,-79.61"/>
</g>
<!-- Node25 -->
<g id="node7" class="node">
<title>Node25</title>
<g id="a_node7"><a xlink:href="min__max_8h.html" target="_top" xlink:title=" ">
<polygon fill="white" stroke="red" points="157.99,-62 157.99,-81 279.99,-81 279.99,-62 157.99,-62"/>
<text text-anchor="middle" x="218.99" y="-69" font-family="Helvetica,sans-Serif" font-size="10.00">emlabcpp/min_max.h</text>
</a>
</g>
</g>
<!-- Node2&#45;&gt;Node25 -->
<g id="edge6" class="edge">
<title>Node2&#45;&gt;Node25</title>
<path fill="none" stroke="midnightblue" d="M363.78,-123.48C334.66,-113.22 285.62,-95.96 252.79,-84.4"/>
<polygon fill="midnightblue" stroke="midnightblue" points="253.76,-81.03 243.16,-81.01 251.43,-87.63 253.76,-81.03"/>
</g>
<!-- Node30 -->
<g id="node8" class="node">
<title>Node30</title>
<g id="a_node8"><a xlink:href="view_8h.html" target="_top" xlink:title=" ">
<polygon fill="white" stroke="red" points="602.49,-62 602.49,-81 701.49,-81 701.49,-62 602.49,-62"/>
<text text-anchor="middle" x="651.99" y="-69" font-family="Helvetica,sans-Serif" font-size="10.00">emlabcpp/view.h</text>
</a>
</g>
</g>
<!-- Node2&#45;&gt;Node30 -->
<g id="edge8" class="edge">
<title>Node2&#45;&gt;Node30</title>
<path fill="none" stroke="midnightblue" d="M425.97,-123.47C466.2,-114.44 531.58,-99.74 587.99,-87 593.34,-85.79 598.94,-84.53 604.51,-83.27"/>
<polygon fill="midnightblue" stroke="midnightblue" points="605.45,-86.64 614.43,-81.02 603.9,-79.81 605.45,-86.64"/>
</g>
<!-- Node40 -->
<g id="node9" class="node">
<title>Node40</title>
<g id="a_node9"><a xlink:title=" ">
<polygon fill="white" stroke="#bfbfbf" points="298.49,-62 298.49,-81 345.49,-81 345.49,-62 298.49,-62"/>
<text text-anchor="middle" x="321.99" y="-69" font-family="Helvetica,sans-Serif" font-size="10.00">cmath</text>
</a>
</g>
</g>
<!-- Node2&#45;&gt;Node40 -->
<g id="edge10" class="edge">
<title>Node2&#45;&gt;Node40</title>
<path fill="none" stroke="midnightblue" d="M378.54,-123.48C368.24,-114.2 351.58,-99.17 339,-87.83"/>
<polygon fill="midnightblue" stroke="midnightblue" points="341.2,-85.11 331.43,-81.01 336.52,-90.3 341.2,-85.11"/>
</g>
<!-- Node41 -->
<g id="node10" class="node">
<title>Node41</title>
<g id="a_node10"><a xlink:title=" ">
<polygon fill="white" stroke="#bfbfbf" points="363.49,-62 363.49,-81 412.49,-81 412.49,-62 363.49,-62"/>
<text text-anchor="middle" x="387.99" y="-69" font-family="Helvetica,sans-Serif" font-size="10.00">cstdlib</text>
</a>
</g>
</g>
<!-- Node2&#45;&gt;Node41 -->
<g id="edge11" class="edge">
<title>Node2&#45;&gt;Node41</title>
<path fill="none" stroke="midnightblue" d="M387.99,-123.48C387.99,-115.08 387.99,-101.98 387.99,-91.16"/>
<polygon fill="midnightblue" stroke="midnightblue" points="391.49,-91.01 387.99,-81.01 384.49,-91.01 391.49,-91.01"/>
</g>
<!-- Node3&#45;&gt;Node4 -->
<g id="edge3" class="edge">
<title>Node3&#45;&gt;Node4</title>
<path fill="none" stroke="midnightblue" d="M508.37,-56.4C521.9,-47.04 539.6,-34.79 553.21,-25.38"/>
<polygon fill="midnightblue" stroke="midnightblue" points="555.25,-28.23 561.48,-19.66 551.26,-22.47 555.25,-28.23"/>
</g>
<!-- Node3&#45;&gt;Node10 -->
<g id="edge4" class="edge">
<title>Node3&#45;&gt;Node10</title>
<path fill="none" stroke="midnightblue" d="M430.32,-56.77C379.89,-44.77 308.61,-27.81 268.5,-18.26"/>
<polygon fill="midnightblue" stroke="midnightblue" points="269.07,-14.8 258.53,-15.89 267.45,-21.61 269.07,-14.8"/>
</g>
<!-- Node30&#45;&gt;Node4 -->
<g id="edge9" class="edge">
<title>Node30&#45;&gt;Node4</title>
<path fill="none" stroke="midnightblue" d="M640.82,-61.98C628.42,-52.52 608.2,-37.1 593.25,-25.69"/>
<polygon fill="midnightblue" stroke="midnightblue" points="595.22,-22.79 585.15,-19.51 590.98,-28.36 595.22,-22.79"/>
</g>
<!-- Node43 -->
<g id="node12" class="node">
<title>Node43</title>
<g id="a_node12"><a xlink:title=" ">
<polygon fill="white" stroke="#bfbfbf" points="764.49,-62 764.49,-81 817.49,-81 817.49,-62 764.49,-62"/>
<text text-anchor="middle" x="790.99" y="-69" font-family="Helvetica,sans-Serif" font-size="10.00">cstddef</text>
</a>
</g>
</g>
<!-- Node42&#45;&gt;Node43 -->
<g id="edge14" class="edge">
<title>Node42&#45;&gt;Node43</title>
<path fill="none" stroke="midnightblue" d="M815.53,-179.24C818.51,-164.85 821.62,-142.08 816.99,-123 814.17,-111.33 808.15,-99.35 802.62,-89.98"/>
<polygon fill="midnightblue" stroke="midnightblue" points="805.45,-87.91 797.18,-81.29 799.52,-91.62 805.45,-87.91"/>
</g>
<!-- Node29 -->
<g id="node14" class="node">
<title>Node29</title>
<g id="a_node14"><a xlink:href="iterator_8h.html" target="_top" xlink:title=" ">
<polygon fill="white" stroke="red" points="531.99,-123.5 531.99,-142.5 643.99,-142.5 643.99,-123.5 531.99,-123.5"/>
<text text-anchor="middle" x="587.99" y="-130.5" font-family="Helvetica,sans-Serif" font-size="10.00">emlabcpp/iterator.h</text>
</a>
</g>
</g>
<!-- Node44&#45;&gt;Node29 -->
<g id="edge16" class="edge">
<title>Node44&#45;&gt;Node29</title>
<path fill="none" stroke="midnightblue" d="M606.3,-179.4C603,-171.2 598.79,-160.78 595.25,-151.99"/>
<polygon fill="midnightblue" stroke="midnightblue" points="598.47,-150.62 591.48,-142.66 591.98,-153.24 598.47,-150.62"/>
</g>
<!-- Node45 -->
<g id="node15" class="node">
<title>Node45</title>
<g id="a_node15"><a xlink:href="static__storage_8h.html" target="_top" xlink:title=" ">
<polygon fill="white" stroke="red" points="661.99,-123.5 661.99,-142.5 807.99,-142.5 807.99,-123.5 661.99,-123.5"/>
<text text-anchor="middle" x="734.99" y="-130.5" font-family="Helvetica,sans-Serif" font-size="10.00">emlabcpp/static_storage.h</text>
</a>
</g>
</g>
<!-- Node44&#45;&gt;Node45 -->
<g id="edge18" class="edge">
<title>Node44&#45;&gt;Node45</title>
<path fill="none" stroke="midnightblue" d="M641.14,-179.4C661.41,-169.59 688.23,-156.62 708.01,-147.05"/>
<polygon fill="midnightblue" stroke="midnightblue" points="709.62,-150.16 717.1,-142.66 706.57,-143.86 709.62,-150.16"/>
</g>
<!-- Node29&#45;&gt;Node30 -->
<g id="edge17" class="edge">
<title>Node29&#45;&gt;Node30</title>
<path fill="none" stroke="midnightblue" d="M597.16,-123.48C607.14,-114.2 623.3,-99.17 635.5,-87.83"/>
<polygon fill="midnightblue" stroke="midnightblue" points="637.9,-90.38 642.84,-81.01 633.13,-85.25 637.9,-90.38"/>
</g>
<!-- Node45&#45;&gt;Node43 -->
<g id="edge19" class="edge">
<title>Node45&#45;&gt;Node43</title>
<path fill="none" stroke="midnightblue" d="M743.02,-123.48C751.58,-114.37 765.35,-99.74 775.95,-88.48"/>
<polygon fill="midnightblue" stroke="midnightblue" points="778.68,-90.69 782.98,-81.01 773.58,-85.89 778.68,-90.69"/>
</g>
</g>
</svg>
