<?xml version="1.0" encoding="UTF-8" standalone="no"?>
<!DOCTYPE svg PUBLIC "-//W3C//DTD SVG 1.1//EN"
 "http://www.w3.org/Graphics/SVG/1.1/DTD/svg11.dtd">
<!-- Generated by graphviz version 2.43.0 (0)
 -->
<!-- Title: include/emlabcpp/experimental/coro/round_robin_executor.h Pages: 1 -->
<svg width="753pt" height="386pt"
 viewBox="0.00 0.00 752.82 386.00" xmlns="http://www.w3.org/2000/svg" xmlns:xlink="http://www.w3.org/1999/xlink">
<g id="graph0" class="graph" transform="scale(1 1) rotate(0) translate(4 382)">
<title>include/emlabcpp/experimental/coro/round_robin_executor.h</title>
<polygon fill="white" stroke="transparent" points="-4,4 -4,-382 748.82,-382 748.82,4 -4,4"/>
<!-- Node1 -->
<g id="node1" class="node">
<title>Node1</title>
<g id="a_node1"><a xlink:title=" ">
<polygon fill="#bfbfbf" stroke="black" points="355.21,-347.5 355.21,-377.5 526.21,-377.5 526.21,-347.5 355.21,-347.5"/>
<text text-anchor="start" x="363.21" y="-365.5" font-family="Helvetica,sans-Serif" font-size="10.00">include/emlabcpp/experimental</text>
<text text-anchor="middle" x="440.71" y="-354.5" font-family="Helvetica,sans-Serif" font-size="10.00">/coro/round_robin_executor.h</text>
</a>
</g>
</g>
<!-- Node2 -->
<g id="node2" class="node">
<title>Node2</title>
<g id="a_node2"><a xlink:href="algorithm_8h.html" target="_top" xlink:title=" ">
<polygon fill="white" stroke="black" points="425.71,-168.5 425.71,-187.5 549.71,-187.5 549.71,-168.5 425.71,-168.5"/>
<text text-anchor="middle" x="487.71" y="-175.5" font-family="Helvetica,sans-Serif" font-size="10.00">emlabcpp/algorithm.h</text>
</a>
</g>
</g>
<!-- Node1&#45;&gt;Node2 -->
<g id="edge1" class="edge">
<title>Node1&#45;&gt;Node2</title>
<path fill="none" stroke="midnightblue" d="M472.12,-347.3C487.27,-338.87 504.37,-326.72 514.71,-311 536.2,-278.34 541.61,-260.54 527.71,-224 523.38,-212.6 514.68,-202.24 506.5,-194.34"/>
<polygon fill="midnightblue" stroke="midnightblue" points="508.75,-191.66 498.98,-187.57 504.07,-196.86 508.75,-191.66"/>
</g>
<!-- Node28 -->
<g id="node12" class="node">
<title>Node28</title>
<g id="a_node12"><a xlink:href="memory__resource_8h.html" target="_top" xlink:title=" ">
<polygon fill="white" stroke="black" points="375.21,-280.5 375.21,-310.5 506.21,-310.5 506.21,-280.5 375.21,-280.5"/>
<text text-anchor="start" x="383.21" y="-298.5" font-family="Helvetica,sans-Serif" font-size="10.00">emlabcpp/pmr/memory</text>
<text text-anchor="middle" x="440.71" y="-287.5" font-family="Helvetica,sans-Serif" font-size="10.00">_resource.h</text>
</a>
</g>
</g>
<!-- Node1&#45;&gt;Node28 -->
<g id="edge15" class="edge">
<title>Node1&#45;&gt;Node28</title>
<path fill="none" stroke="midnightblue" d="M440.71,-347.4C440.71,-339.64 440.71,-329.81 440.71,-320.86"/>
<polygon fill="midnightblue" stroke="midnightblue" points="444.21,-320.58 440.71,-310.58 437.21,-320.58 444.21,-320.58"/>
</g>
<!-- Node32 -->
<g id="node15" class="node">
<title>Node32</title>
<g id="a_node15"><a xlink:href="static__circular__buffer_8h.html" target="_top" xlink:title=" ">
<polygon fill="white" stroke="black" points="154.71,-280.5 154.71,-310.5 290.71,-310.5 290.71,-280.5 154.71,-280.5"/>
<text text-anchor="start" x="162.71" y="-298.5" font-family="Helvetica,sans-Serif" font-size="10.00">emlabcpp/static_circular</text>
<text text-anchor="middle" x="222.71" y="-287.5" font-family="Helvetica,sans-Serif" font-size="10.00">_buffer.h</text>
</a>
</g>
</g>
<!-- Node1&#45;&gt;Node32 -->
<g id="edge19" class="edge">
<title>Node1&#45;&gt;Node32</title>
<path fill="none" stroke="midnightblue" d="M393.68,-347.48C360.27,-337.51 315.23,-324.09 279.77,-313.51"/>
<polygon fill="midnightblue" stroke="midnightblue" points="280.62,-310.11 270.04,-310.61 278.62,-316.82 280.62,-310.11"/>
</g>
<!-- Node3 -->
<g id="node3" class="node">
<title>Node3</title>
<g id="a_node3"><a xlink:href="impl_8h.html" target="_top" xlink:title=" ">
<polygon fill="white" stroke="black" points="622.71,-112.5 622.71,-131.5 726.71,-131.5 726.71,-112.5 622.71,-112.5"/>
<text text-anchor="middle" x="674.71" y="-119.5" font-family="Helvetica,sans-Serif" font-size="10.00">./algorithm/impl.h</text>
</a>
</g>
</g>
<!-- Node2&#45;&gt;Node3 -->
<g id="edge2" class="edge">
<title>Node2&#45;&gt;Node3</title>
<path fill="none" stroke="midnightblue" d="M517.34,-168.44C549.21,-159.24 600.04,-144.56 635.28,-134.39"/>
<polygon fill="midnightblue" stroke="midnightblue" points="636.58,-137.65 645.22,-131.52 634.64,-130.93 636.58,-137.65"/>
</g>
<!-- Node4 -->
<g id="node4" class="node">
<title>Node4</title>
<g id="a_node4"><a xlink:href="types_8h.html" target="_top" xlink:title=" ">
<polygon fill="white" stroke="red" points="643.71,-0.5 643.71,-19.5 705.71,-19.5 705.71,-0.5 643.71,-0.5"/>
<text text-anchor="middle" x="674.71" y="-7.5" font-family="Helvetica,sans-Serif" font-size="10.00">../types.h</text>
</a>
</g>
</g>
<!-- Node2&#45;&gt;Node4 -->
<g id="edge10" class="edge">
<title>Node2&#45;&gt;Node4</title>
<path fill="none" stroke="midnightblue" d="M549.78,-174.54C615.36,-170.49 712.47,-159.84 735.71,-132 763.45,-98.78 719.82,-50.82 693.07,-26.46"/>
<polygon fill="midnightblue" stroke="midnightblue" points="695.22,-23.69 685.41,-19.7 690.59,-28.94 695.22,-23.69"/>
</g>
<!-- Node10 -->
<g id="node5" class="node">
<title>Node10</title>
<g id="a_node5"><a xlink:title=" ">
<polygon fill="white" stroke="#bfbfbf" points="537.21,-56.5 537.21,-75.5 578.21,-75.5 578.21,-56.5 537.21,-56.5"/>
<text text-anchor="middle" x="557.71" y="-63.5" font-family="Helvetica,sans-Serif" font-size="10.00">tuple</text>
</a>
</g>
</g>
<!-- Node2&#45;&gt;Node10 -->
<g id="edge14" class="edge">
<title>Node2&#45;&gt;Node10</title>
<path fill="none" stroke="midnightblue" d="M483.72,-168.34C478.31,-155.21 470.43,-129.92 480.71,-112 490.76,-94.49 510.55,-83.14 527.55,-76.22"/>
<polygon fill="midnightblue" stroke="midnightblue" points="529,-79.42 537.15,-72.64 526.55,-72.86 529,-79.42"/>
</g>
<!-- Node17 -->
<g id="node6" class="node">
<title>Node17</title>
<g id="a_node6"><a xlink:href="bounded_8h.html" target="_top" xlink:title=" ">
<polygon fill="white" stroke="red" points="225.71,-112.5 225.71,-131.5 299.71,-131.5 299.71,-112.5 225.71,-112.5"/>
<text text-anchor="middle" x="262.71" y="-119.5" font-family="Helvetica,sans-Serif" font-size="10.00">./bounded.h</text>
</a>
</g>
</g>
<!-- Node2&#45;&gt;Node17 -->
<g id="edge5" class="edge">
<title>Node2&#45;&gt;Node17</title>
<path fill="none" stroke="midnightblue" d="M452.06,-168.44C413.06,-159.08 350.45,-144.06 308,-133.87"/>
<polygon fill="midnightblue" stroke="midnightblue" points="308.74,-130.45 298.2,-131.52 307.1,-137.25 308.74,-130.45"/>
</g>
<!-- Node19 -->
<g id="node7" class="node">
<title>Node19</title>
<g id="a_node7"><a xlink:href="min__max_8h.html" target="_top" xlink:title=" ">
<polygon fill="white" stroke="red" points="318.21,-112.5 318.21,-131.5 395.21,-131.5 395.21,-112.5 318.21,-112.5"/>
<text text-anchor="middle" x="356.71" y="-119.5" font-family="Helvetica,sans-Serif" font-size="10.00">./min_max.h</text>
</a>
</g>
</g>
<!-- Node2&#45;&gt;Node19 -->
<g id="edge6" class="edge">
<title>Node2&#45;&gt;Node19</title>
<path fill="none" stroke="midnightblue" d="M466.95,-168.44C445.4,-159.56 411.45,-145.56 386.92,-135.45"/>
<polygon fill="midnightblue" stroke="midnightblue" points="387.95,-132.09 377.37,-131.52 385.28,-138.56 387.95,-132.09"/>
</g>
<!-- Node21 -->
<g id="node8" class="node">
<title>Node21</title>
<g id="a_node8"><a xlink:href="range_8h.html" target="_top" xlink:title=" ">
<polygon fill="white" stroke="red" points="148.21,-112.5 148.21,-131.5 207.21,-131.5 207.21,-112.5 148.21,-112.5"/>
<text text-anchor="middle" x="177.71" y="-119.5" font-family="Helvetica,sans-Serif" font-size="10.00">./range.h</text>
</a>
</g>
</g>
<!-- Node2&#45;&gt;Node21 -->
<g id="edge7" class="edge">
<title>Node2&#45;&gt;Node21</title>
<path fill="none" stroke="midnightblue" d="M429.9,-168.47C377.16,-160.44 296.85,-147.62 217.64,-132.08"/>
<polygon fill="midnightblue" stroke="midnightblue" points="217.97,-128.58 207.48,-130.07 216.61,-135.44 217.97,-128.58"/>
</g>
<!-- Node24 -->
<g id="node9" class="node">
<title>Node24</title>
<g id="a_node9"><a xlink:href="view_8h.html" target="_top" xlink:title=" ">
<polygon fill="white" stroke="red" points="273.71,-56.5 273.71,-75.5 327.71,-75.5 327.71,-56.5 273.71,-56.5"/>
<text text-anchor="middle" x="300.71" y="-63.5" font-family="Helvetica,sans-Serif" font-size="10.00">./view.h</text>
</a>
</g>
</g>
<!-- Node2&#45;&gt;Node24 -->
<g id="edge11" class="edge">
<title>Node2&#45;&gt;Node24</title>
<path fill="none" stroke="midnightblue" d="M478.2,-168.36C463.19,-155.03 432.74,-129.21 403.71,-112 381.64,-98.91 355.07,-87.4 334.45,-79.29"/>
<polygon fill="midnightblue" stroke="midnightblue" points="335.43,-75.92 324.84,-75.6 332.92,-82.46 335.43,-75.92"/>
</g>
<!-- Node26 -->
<g id="node10" class="node">
<title>Node26</title>
<g id="a_node10"><a xlink:title=" ">
<polygon fill="white" stroke="#bfbfbf" points="490.21,-112.5 490.21,-131.5 537.21,-131.5 537.21,-112.5 490.21,-112.5"/>
<text text-anchor="middle" x="513.71" y="-119.5" font-family="Helvetica,sans-Serif" font-size="10.00">cmath</text>
</a>
</g>
</g>
<!-- Node2&#45;&gt;Node26 -->
<g id="edge12" class="edge">
<title>Node2&#45;&gt;Node26</title>
<path fill="none" stroke="midnightblue" d="M492.01,-168.08C495.56,-160.69 500.73,-149.95 505.14,-140.81"/>
<polygon fill="midnightblue" stroke="midnightblue" points="508.31,-142.28 509.5,-131.75 502.01,-139.24 508.31,-142.28"/>
</g>
<!-- Node27 -->
<g id="node11" class="node">
<title>Node27</title>
<g id="a_node11"><a xlink:title=" ">
<polygon fill="white" stroke="#bfbfbf" points="555.21,-112.5 555.21,-131.5 604.21,-131.5 604.21,-112.5 555.21,-112.5"/>
<text text-anchor="middle" x="579.71" y="-119.5" font-family="Helvetica,sans-Serif" font-size="10.00">cstdlib</text>
</a>
</g>
</g>
<!-- Node2&#45;&gt;Node27 -->
<g id="edge13" class="edge">
<title>Node2&#45;&gt;Node27</title>
<path fill="none" stroke="midnightblue" d="M502.49,-168.32C516.98,-159.82 539.29,-146.73 556.21,-136.8"/>
<polygon fill="midnightblue" stroke="midnightblue" points="558.11,-139.74 564.97,-131.65 554.57,-133.7 558.11,-139.74"/>
</g>
<!-- Node3&#45;&gt;Node4 -->
<g id="edge3" class="edge">
<title>Node3&#45;&gt;Node4</title>
<path fill="none" stroke="midnightblue" d="M674.71,-112.37C674.71,-94.62 674.71,-53.67 674.71,-29.6"/>
<polygon fill="midnightblue" stroke="midnightblue" points="678.21,-29.59 674.71,-19.59 671.21,-29.59 678.21,-29.59"/>
</g>
<!-- Node3&#45;&gt;Node10 -->
<g id="edge4" class="edge">
<title>Node3&#45;&gt;Node10</title>
<path fill="none" stroke="midnightblue" d="M656.17,-112.44C637.09,-103.64 607.14,-89.81 585.28,-79.72"/>
<polygon fill="midnightblue" stroke="midnightblue" points="586.71,-76.53 576.16,-75.52 583.78,-82.88 586.71,-76.53"/>
</g>
<!-- Node21&#45;&gt;Node24 -->
<g id="edge8" class="edge">
<title>Node21&#45;&gt;Node24</title>
<path fill="none" stroke="midnightblue" d="M197.2,-112.44C217.35,-103.6 249.03,-89.69 272.04,-79.59"/>
<polygon fill="midnightblue" stroke="midnightblue" points="273.56,-82.74 281.31,-75.52 270.75,-76.33 273.56,-82.74"/>
</g>
<!-- Node24&#45;&gt;Node4 -->
<g id="edge9" class="edge">
<title>Node24&#45;&gt;Node4</title>
<path fill="none" stroke="midnightblue" d="M327.91,-61.07C392.61,-51.73 556.02,-28.14 633.17,-17"/>
<polygon fill="midnightblue" stroke="midnightblue" points="634.06,-20.41 643.46,-15.51 633.06,-13.48 634.06,-20.41"/>
</g>
<!-- Node29 -->
<g id="node13" class="node">
<title>Node29</title>
<g id="a_node13"><a xlink:href="result_8h.html" target="_top" xlink:title=" ">
<polygon fill="white" stroke="red" points="456.71,-224.5 456.71,-243.5 518.71,-243.5 518.71,-224.5 456.71,-224.5"/>
<text text-anchor="middle" x="487.71" y="-231.5" font-family="Helvetica,sans-Serif" font-size="10.00">../result.h</text>
</a>
</g>
</g>
<!-- Node28&#45;&gt;Node29 -->
<g id="edge16" class="edge">
<title>Node28&#45;&gt;Node29</title>
<path fill="none" stroke="midnightblue" d="M451.85,-280.4C458.68,-271.75 467.46,-260.64 474.62,-251.58"/>
<polygon fill="midnightblue" stroke="midnightblue" points="477.42,-253.67 480.87,-243.66 471.93,-249.34 477.42,-253.67"/>
</g>
<!-- Node31 -->
<g id="node14" class="node">
<title>Node31</title>
<g id="a_node14"><a xlink:title=" ">
<polygon fill="white" stroke="#bfbfbf" points="195.21,-168.5 195.21,-187.5 248.21,-187.5 248.21,-168.5 195.21,-168.5"/>
<text text-anchor="middle" x="221.71" y="-175.5" font-family="Helvetica,sans-Serif" font-size="10.00">cstddef</text>
</a>
</g>
</g>
<!-- Node28&#45;&gt;Node31 -->
<g id="edge18" class="edge">
<title>Node28&#45;&gt;Node31</title>
<path fill="none" stroke="midnightblue" d="M438.35,-280.34C434.92,-264.26 426.95,-238.4 409.71,-224 366.7,-188.08 299.82,-179.88 258.51,-178.51"/>
<polygon fill="midnightblue" stroke="midnightblue" points="258.4,-175.01 248.33,-178.3 258.25,-182.01 258.4,-175.01"/>
</g>
<!-- Node29&#45;&gt;Node2 -->
<g id="edge17" class="edge">
<title>Node29&#45;&gt;Node2</title>
<path fill="none" stroke="midnightblue" d="M487.71,-224.08C487.71,-217.01 487.71,-206.86 487.71,-197.99"/>
<polygon fill="midnightblue" stroke="midnightblue" points="491.21,-197.75 487.71,-187.75 484.21,-197.75 491.21,-197.75"/>
</g>
<!-- Node32&#45;&gt;Node24 -->
<g id="edge23" class="edge">
<title>Node32&#45;&gt;Node24</title>
<path fill="none" stroke="midnightblue" d="M154.47,-287.97C97.38,-280.92 22.36,-267.43 3.71,-244 -1.82,-237.04 -0.07,-232.05 3.71,-224 51.35,-122.57 194.78,-84.96 263.38,-72.5"/>
<polygon fill="midnightblue" stroke="midnightblue" points="264.07,-75.93 273.33,-70.78 262.88,-69.04 264.07,-75.93"/>
</g>
<!-- Node23 -->
<g id="node16" class="node">
<title>Node23</title>
<g id="a_node16"><a xlink:href="iterator_8h.html" target="_top" xlink:title=" ">
<polygon fill="white" stroke="red" points="330.71,-224.5 330.71,-243.5 400.71,-243.5 400.71,-224.5 330.71,-224.5"/>
<text text-anchor="middle" x="365.71" y="-231.5" font-family="Helvetica,sans-Serif" font-size="10.00">../iterator.h</text>
</a>
</g>
</g>
<!-- Node32&#45;&gt;Node23 -->
<g id="edge20" class="edge">
<title>Node32&#45;&gt;Node23</title>
<path fill="none" stroke="midnightblue" d="M256.6,-280.4C280.59,-270.42 312.49,-257.15 335.59,-247.53"/>
<polygon fill="midnightblue" stroke="midnightblue" points="337.02,-250.73 344.9,-243.66 334.33,-244.27 337.02,-250.73"/>
</g>
<!-- Node33 -->
<g id="node17" class="node">
<title>Node33</title>
<g id="a_node17"><a xlink:href="static__storage_8h.html" target="_top" xlink:title=" ">
<polygon fill="white" stroke="red" points="13.21,-224.5 13.21,-243.5 114.21,-243.5 114.21,-224.5 13.21,-224.5"/>
<text text-anchor="middle" x="63.71" y="-231.5" font-family="Helvetica,sans-Serif" font-size="10.00">./static_storage.h</text>
</a>
</g>
</g>
<!-- Node32&#45;&gt;Node33 -->
<g id="edge21" class="edge">
<title>Node32&#45;&gt;Node33</title>
<path fill="none" stroke="midnightblue" d="M185.03,-280.4C158.12,-270.33 122.26,-256.91 96.52,-247.28"/>
<polygon fill="midnightblue" stroke="midnightblue" points="97.44,-243.88 86.85,-243.66 94.99,-250.44 97.44,-243.88"/>
</g>
<!-- Node37 -->
<g id="node18" class="node">
<title>Node37</title>
<g id="a_node18"><a xlink:title=" ">
<polygon fill="white" stroke="#bfbfbf" points="132.71,-224.5 132.71,-243.5 182.71,-243.5 182.71,-224.5 132.71,-224.5"/>
<text text-anchor="middle" x="157.71" y="-231.5" font-family="Helvetica,sans-Serif" font-size="10.00">atomic</text>
</a>
</g>
</g>
<!-- Node32&#45;&gt;Node37 -->
<g id="edge24" class="edge">
<title>Node32&#45;&gt;Node37</title>
<path fill="none" stroke="midnightblue" d="M207.31,-280.4C197.47,-271.4 184.72,-259.72 174.61,-250.47"/>
<polygon fill="midnightblue" stroke="midnightblue" points="176.91,-247.83 167.17,-243.66 172.18,-252.99 176.91,-247.83"/>
</g>
<!-- Node38 -->
<g id="node19" class="node">
<title>Node38</title>
<g id="a_node19"><a xlink:title=" ">
<polygon fill="white" stroke="#bfbfbf" points="200.71,-224.5 200.71,-243.5 244.71,-243.5 244.71,-224.5 200.71,-224.5"/>
<text text-anchor="middle" x="222.71" y="-231.5" font-family="Helvetica,sans-Serif" font-size="10.00">limits</text>
</a>
</g>
</g>
<!-- Node32&#45;&gt;Node38 -->
<g id="edge25" class="edge">
<title>Node32&#45;&gt;Node38</title>
<path fill="none" stroke="midnightblue" d="M222.71,-280.4C222.71,-272.47 222.71,-262.46 222.71,-253.86"/>
<polygon fill="midnightblue" stroke="midnightblue" points="226.21,-253.66 222.71,-243.66 219.21,-253.66 226.21,-253.66"/>
</g>
<!-- Node9 -->
<g id="node20" class="node">
<title>Node9</title>
<g id="a_node20"><a xlink:title=" ">
<polygon fill="white" stroke="#bfbfbf" points="262.71,-224.5 262.71,-243.5 312.71,-243.5 312.71,-224.5 262.71,-224.5"/>
<text text-anchor="middle" x="287.71" y="-231.5" font-family="Helvetica,sans-Serif" font-size="10.00">ranges</text>
</a>
</g>
</g>
<!-- Node32&#45;&gt;Node9 -->
<g id="edge26" class="edge">
<title>Node32&#45;&gt;Node9</title>
<path fill="none" stroke="midnightblue" d="M238.12,-280.4C247.95,-271.4 260.71,-259.72 270.82,-250.47"/>
<polygon fill="midnightblue" stroke="midnightblue" points="273.24,-252.99 278.25,-243.66 268.51,-247.83 273.24,-252.99"/>
</g>
<!-- Node33&#45;&gt;Node31 -->
<g id="edge22" class="edge">
<title>Node33&#45;&gt;Node31</title>
<path fill="none" stroke="midnightblue" d="M88.75,-224.44C115.33,-215.36 157.52,-200.94 187.24,-190.78"/>
<polygon fill="midnightblue" stroke="midnightblue" points="188.46,-194.06 196.79,-187.52 186.2,-187.44 188.46,-194.06"/>
</g>
</g>
</svg>
