<?xml version="1.0" encoding="UTF-8" standalone="no"?>
<!DOCTYPE svg PUBLIC "-//W3C//DTD SVG 1.1//EN"
 "http://www.w3.org/Graphics/SVG/1.1/DTD/svg11.dtd">
<!-- Generated by graphviz version 2.43.0 (0)
 -->
<!-- Title: include/emlabcpp/experimental/coro/round_robin_executor.h Pages: 1 -->
<svg width="767pt" height="285pt"
 viewBox="0.00 0.00 766.79 285.00" xmlns="http://www.w3.org/2000/svg" xmlns:xlink="http://www.w3.org/1999/xlink">
<g id="graph0" class="graph" transform="scale(1 1) rotate(0) translate(4 281)">
<title>include/emlabcpp/experimental/coro/round_robin_executor.h</title>
<polygon fill="white" stroke="transparent" points="-4,4 -4,-281 762.79,-281 762.79,4 -4,4"/>
<!-- Node1 -->
<g id="node1" class="node">
<title>Node1</title>
<g id="a_node1"><a xlink:title=" ">
<polygon fill="#bfbfbf" stroke="black" points="407.79,-246.5 407.79,-276.5 578.79,-276.5 578.79,-246.5 407.79,-246.5"/>
<text text-anchor="start" x="415.79" y="-264.5" font-family="Helvetica,sans-Serif" font-size="10.00">include/emlabcpp/experimental</text>
<text text-anchor="middle" x="493.29" y="-253.5" font-family="Helvetica,sans-Serif" font-size="10.00">/coro/round_robin_executor.h</text>
</a>
</g>
</g>
<!-- Node2 -->
<g id="node2" class="node">
<title>Node2</title>
<g id="a_node2"><a xlink:href="algorithm_8h.html" target="_top" xlink:title=" ">
<polygon fill="white" stroke="black" points="232.29,-123.5 232.29,-142.5 356.29,-142.5 356.29,-123.5 232.29,-123.5"/>
<text text-anchor="middle" x="294.29" y="-130.5" font-family="Helvetica,sans-Serif" font-size="10.00">emlabcpp/algorithm.h</text>
</a>
</g>
</g>
<!-- Node1&#45;&gt;Node2 -->
<g id="edge1" class="edge">
<title>Node1&#45;&gt;Node2</title>
<path fill="none" stroke="midnightblue" d="M471.23,-246.48C433.17,-222.28 355.54,-172.94 317.02,-148.45"/>
<polygon fill="midnightblue" stroke="midnightblue" points="318.43,-145.2 308.11,-142.79 314.67,-151.11 318.43,-145.2"/>
</g>
<!-- Node41 -->
<g id="node10" class="node">
<title>Node41</title>
<g id="a_node10"><a xlink:href="memory__resource_8h.html" target="_top" xlink:title=" ">
<polygon fill="white" stroke="black" points="627.79,-179.5 627.79,-209.5 758.79,-209.5 758.79,-179.5 627.79,-179.5"/>
<text text-anchor="start" x="635.79" y="-197.5" font-family="Helvetica,sans-Serif" font-size="10.00">emlabcpp/pmr/memory</text>
<text text-anchor="middle" x="693.29" y="-186.5" font-family="Helvetica,sans-Serif" font-size="10.00">_resource.h</text>
</a>
</g>
</g>
<!-- Node1&#45;&gt;Node41 -->
<g id="edge12" class="edge">
<title>Node1&#45;&gt;Node41</title>
<path fill="none" stroke="midnightblue" d="M536.68,-246.4C567.09,-236.52 607.9,-223.25 640.23,-212.74"/>
<polygon fill="midnightblue" stroke="midnightblue" points="641.55,-216 649.98,-209.58 639.38,-209.34 641.55,-216"/>
</g>
<!-- Node42 -->
<g id="node12" class="node">
<title>Node42</title>
<g id="a_node12"><a xlink:href="static__circular__buffer_8h.html" target="_top" xlink:title=" ">
<polygon fill="white" stroke="black" points="425.29,-179.5 425.29,-209.5 561.29,-209.5 561.29,-179.5 425.29,-179.5"/>
<text text-anchor="start" x="433.29" y="-197.5" font-family="Helvetica,sans-Serif" font-size="10.00">emlabcpp/static_circular</text>
<text text-anchor="middle" x="493.29" y="-186.5" font-family="Helvetica,sans-Serif" font-size="10.00">_buffer.h</text>
</a>
</g>
</g>
<!-- Node1&#45;&gt;Node42 -->
<g id="edge14" class="edge">
<title>Node1&#45;&gt;Node42</title>
<path fill="none" stroke="midnightblue" d="M493.29,-246.4C493.29,-238.64 493.29,-228.81 493.29,-219.86"/>
<polygon fill="midnightblue" stroke="midnightblue" points="496.79,-219.58 493.29,-209.58 489.79,-219.58 496.79,-219.58"/>
</g>
<!-- Node3 -->
<g id="node3" class="node">
<title>Node3</title>
<g id="a_node3"><a xlink:href="impl_8h.html" target="_top" xlink:title=" ">
<polygon fill="white" stroke="black" points="286.79,-56.5 286.79,-86.5 401.79,-86.5 401.79,-56.5 286.79,-56.5"/>
<text text-anchor="start" x="294.79" y="-74.5" font-family="Helvetica,sans-Serif" font-size="10.00">emlabcpp/algorithm</text>
<text text-anchor="middle" x="344.29" y="-63.5" font-family="Helvetica,sans-Serif" font-size="10.00">/impl.h</text>
</a>
</g>
</g>
<!-- Node2&#45;&gt;Node3 -->
<g id="edge2" class="edge">
<title>Node2&#45;&gt;Node3</title>
<path fill="none" stroke="midnightblue" d="M301.45,-123.48C307.84,-115.87 317.48,-104.4 326,-94.26"/>
<polygon fill="midnightblue" stroke="midnightblue" points="328.75,-96.43 332.5,-86.52 323.39,-91.93 328.75,-96.43"/>
</g>
<!-- Node4 -->
<g id="node4" class="node">
<title>Node4</title>
<g id="a_node4"><a xlink:href="types_8h.html" target="_top" xlink:title=" ">
<polygon fill="white" stroke="red" points="378.29,-0.5 378.29,-19.5 482.29,-19.5 482.29,-0.5 378.29,-0.5"/>
<text text-anchor="middle" x="430.29" y="-7.5" font-family="Helvetica,sans-Serif" font-size="10.00">emlabcpp/types.h</text>
</a>
</g>
</g>
<!-- Node2&#45;&gt;Node4 -->
<g id="edge6" class="edge">
<title>Node2&#45;&gt;Node4</title>
<path fill="none" stroke="midnightblue" d="M345.39,-123.47C368.53,-117.11 394.42,-106.07 411.29,-87 425.2,-71.27 429.24,-46.88 430.26,-29.99"/>
<polygon fill="midnightblue" stroke="midnightblue" points="433.77,-29.79 430.56,-19.69 426.77,-29.58 433.77,-29.79"/>
</g>
<!-- Node10 -->
<g id="node5" class="node">
<title>Node10</title>
<g id="a_node5"><a xlink:title=" ">
<polygon fill="white" stroke="#bfbfbf" points="143.79,-0.5 143.79,-19.5 184.79,-19.5 184.79,-0.5 143.79,-0.5"/>
<text text-anchor="middle" x="164.29" y="-7.5" font-family="Helvetica,sans-Serif" font-size="10.00">tuple</text>
</a>
</g>
</g>
<!-- Node2&#45;&gt;Node10 -->
<g id="edge11" class="edge">
<title>Node2&#45;&gt;Node10</title>
<path fill="none" stroke="midnightblue" d="M232.17,-131.29C156.87,-128.95 36.5,-120 8.29,-87 -29.51,-42.79 78.42,-22.04 133.78,-14.51"/>
<polygon fill="midnightblue" stroke="midnightblue" points="134.31,-17.97 143.77,-13.21 133.41,-11.03 134.31,-17.97"/>
</g>
<!-- Node17 -->
<g id="node6" class="node">
<title>Node17</title>
<g id="a_node6"><a xlink:href="bounded_8h.html" target="_top" xlink:title=" ">
<polygon fill="white" stroke="red" points="17.79,-62 17.79,-81 136.79,-81 136.79,-62 17.79,-62"/>
<text text-anchor="middle" x="77.29" y="-69" font-family="Helvetica,sans-Serif" font-size="10.00">emlabcpp/bounded.h</text>
</a>
</g>
</g>
<!-- Node2&#45;&gt;Node17 -->
<g id="edge5" class="edge">
<title>Node2&#45;&gt;Node17</title>
<path fill="none" stroke="midnightblue" d="M263.2,-123.48C225.01,-113 160.12,-95.21 117.99,-83.66"/>
<polygon fill="midnightblue" stroke="midnightblue" points="118.89,-80.28 108.32,-81.01 117.04,-87.03 118.89,-80.28"/>
</g>
<!-- Node27 -->
<g id="node7" class="node">
<title>Node27</title>
<g id="a_node7"><a xlink:href="view_8h.html" target="_top" xlink:title=" ">
<polygon fill="white" stroke="red" points="458.79,-62 458.79,-81 557.79,-81 557.79,-62 458.79,-62"/>
<text text-anchor="middle" x="508.29" y="-69" font-family="Helvetica,sans-Serif" font-size="10.00">emlabcpp/view.h</text>
</a>
</g>
</g>
<!-- Node2&#45;&gt;Node27 -->
<g id="edge7" class="edge">
<title>Node2&#45;&gt;Node27</title>
<path fill="none" stroke="midnightblue" d="M324.95,-123.48C362.53,-113.03 426.33,-95.29 467.89,-83.73"/>
<polygon fill="midnightblue" stroke="midnightblue" points="468.99,-87.06 477.68,-81.01 467.11,-80.32 468.99,-87.06"/>
</g>
<!-- Node39 -->
<g id="node8" class="node">
<title>Node39</title>
<g id="a_node8"><a xlink:title=" ">
<polygon fill="white" stroke="#bfbfbf" points="154.79,-62 154.79,-81 201.79,-81 201.79,-62 154.79,-62"/>
<text text-anchor="middle" x="178.29" y="-69" font-family="Helvetica,sans-Serif" font-size="10.00">cmath</text>
</a>
</g>
</g>
<!-- Node2&#45;&gt;Node39 -->
<g id="edge9" class="edge">
<title>Node2&#45;&gt;Node39</title>
<path fill="none" stroke="midnightblue" d="M277.67,-123.48C258.37,-113.58 226.33,-97.14 203.86,-85.62"/>
<polygon fill="midnightblue" stroke="midnightblue" points="205.37,-82.46 194.88,-81.01 202.18,-88.69 205.37,-82.46"/>
</g>
<!-- Node40 -->
<g id="node9" class="node">
<title>Node40</title>
<g id="a_node9"><a xlink:title=" ">
<polygon fill="white" stroke="#bfbfbf" points="219.79,-62 219.79,-81 268.79,-81 268.79,-62 219.79,-62"/>
<text text-anchor="middle" x="244.29" y="-69" font-family="Helvetica,sans-Serif" font-size="10.00">cstdlib</text>
</a>
</g>
</g>
<!-- Node2&#45;&gt;Node40 -->
<g id="edge10" class="edge">
<title>Node2&#45;&gt;Node40</title>
<path fill="none" stroke="midnightblue" d="M287.12,-123.48C279.55,-114.46 267.42,-100.02 257.99,-88.81"/>
<polygon fill="midnightblue" stroke="midnightblue" points="260.55,-86.41 251.44,-81.01 255.19,-90.92 260.55,-86.41"/>
</g>
<!-- Node3&#45;&gt;Node4 -->
<g id="edge3" class="edge">
<title>Node3&#45;&gt;Node4</title>
<path fill="none" stroke="midnightblue" d="M364.67,-56.4C378.2,-47.04 395.9,-34.79 409.51,-25.38"/>
<polygon fill="midnightblue" stroke="midnightblue" points="411.54,-28.23 417.77,-19.66 407.56,-22.47 411.54,-28.23"/>
</g>
<!-- Node3&#45;&gt;Node10 -->
<g id="edge4" class="edge">
<title>Node3&#45;&gt;Node10</title>
<path fill="none" stroke="midnightblue" d="M301.63,-56.4C268.71,-45.52 223.97,-30.73 194.63,-21.03"/>
<polygon fill="midnightblue" stroke="midnightblue" points="195.53,-17.64 184.94,-17.83 193.33,-24.29 195.53,-17.64"/>
</g>
<!-- Node27&#45;&gt;Node4 -->
<g id="edge8" class="edge">
<title>Node27&#45;&gt;Node4</title>
<path fill="none" stroke="midnightblue" d="M497.11,-61.98C484.72,-52.52 464.5,-37.1 449.54,-25.69"/>
<polygon fill="midnightblue" stroke="midnightblue" points="451.52,-22.79 441.44,-19.51 447.27,-28.36 451.52,-22.79"/>
</g>
<!-- Node37 -->
<g id="node11" class="node">
<title>Node37</title>
<g id="a_node11"><a xlink:title=" ">
<polygon fill="white" stroke="#bfbfbf" points="640.79,-62 640.79,-81 693.79,-81 693.79,-62 640.79,-62"/>
<text text-anchor="middle" x="667.29" y="-69" font-family="Helvetica,sans-Serif" font-size="10.00">cstddef</text>
</a>
</g>
</g>
<!-- Node41&#45;&gt;Node37 -->
<g id="edge13" class="edge">
<title>Node41&#45;&gt;Node37</title>
<path fill="none" stroke="midnightblue" d="M697.06,-179.43C700.3,-164.99 703.66,-142.01 698.29,-123 694.81,-110.7 687.41,-98.44 680.7,-89.08"/>
<polygon fill="midnightblue" stroke="midnightblue" points="683.48,-86.94 674.64,-81.09 677.9,-91.17 683.48,-86.94"/>
</g>
<!-- Node26 -->
<g id="node13" class="node">
<title>Node26</title>
<g id="a_node13"><a xlink:href="iterator_8h.html" target="_top" xlink:title=" ">
<polygon fill="white" stroke="red" points="413.29,-123.5 413.29,-142.5 525.29,-142.5 525.29,-123.5 413.29,-123.5"/>
<text text-anchor="middle" x="469.29" y="-130.5" font-family="Helvetica,sans-Serif" font-size="10.00">emlabcpp/iterator.h</text>
</a>
</g>
</g>
<!-- Node42&#45;&gt;Node26 -->
<g id="edge15" class="edge">
<title>Node42&#45;&gt;Node26</title>
<path fill="none" stroke="midnightblue" d="M487.6,-179.4C484.29,-171.2 480.09,-160.78 476.55,-151.99"/>
<polygon fill="midnightblue" stroke="midnightblue" points="479.77,-150.62 472.78,-142.66 473.27,-153.24 479.77,-150.62"/>
</g>
<!-- Node43 -->
<g id="node14" class="node">
<title>Node43</title>
<g id="a_node14"><a xlink:href="static__storage_8h.html" target="_top" xlink:title=" ">
<polygon fill="white" stroke="red" points="543.29,-123.5 543.29,-142.5 689.29,-142.5 689.29,-123.5 543.29,-123.5"/>
<text text-anchor="middle" x="616.29" y="-130.5" font-family="Helvetica,sans-Serif" font-size="10.00">emlabcpp/static_storage.h</text>
</a>
</g>
</g>
<!-- Node42&#45;&gt;Node43 -->
<g id="edge17" class="edge">
<title>Node42&#45;&gt;Node43</title>
<path fill="none" stroke="midnightblue" d="M522.44,-179.4C542.71,-169.59 569.53,-156.62 589.31,-147.05"/>
<polygon fill="midnightblue" stroke="midnightblue" points="590.91,-150.16 598.39,-142.66 587.86,-143.86 590.91,-150.16"/>
</g>
<!-- Node26&#45;&gt;Node27 -->
<g id="edge16" class="edge">
<title>Node26&#45;&gt;Node27</title>
<path fill="none" stroke="midnightblue" d="M474.88,-123.48C480.67,-114.64 489.88,-100.59 497.16,-89.48"/>
<polygon fill="midnightblue" stroke="midnightblue" points="500.16,-91.29 502.71,-81.01 494.3,-87.45 500.16,-91.29"/>
</g>
<!-- Node43&#45;&gt;Node37 -->
<g id="edge18" class="edge">
<title>Node43&#45;&gt;Node37</title>
<path fill="none" stroke="midnightblue" d="M623.59,-123.48C631.32,-114.46 643.69,-100.02 653.31,-88.81"/>
<polygon fill="midnightblue" stroke="midnightblue" points="656.14,-90.88 659.99,-81.01 650.83,-86.32 656.14,-90.88"/>
</g>
</g>
</svg>
