<?xml version="1.0" encoding="UTF-8" standalone="no"?>
<!DOCTYPE svg PUBLIC "-//W3C//DTD SVG 1.1//EN"
 "http://www.w3.org/Graphics/SVG/1.1/DTD/svg11.dtd">
<!-- Generated by graphviz version 2.43.0 (0)
 -->
<!-- Title: include/emlabcpp/experimental/rpc.h Pages: 1 -->
<svg width="515pt" height="274pt"
 viewBox="0.00 0.00 514.95 274.00" xmlns="http://www.w3.org/2000/svg" xmlns:xlink="http://www.w3.org/1999/xlink">
<g id="graph0" class="graph" transform="scale(1 1) rotate(0) translate(4 270)">
<title>include/emlabcpp/experimental/rpc.h</title>
<polygon fill="white" stroke="transparent" points="-4,4 -4,-270 510.95,-270 510.95,4 -4,4"/>
<!-- Node1 -->
<g id="node1" class="node">
<title>Node1</title>
<g id="a_node1"><a xlink:title=" ">
<polygon fill="#bfbfbf" stroke="black" points="158.45,-235.5 158.45,-265.5 329.45,-265.5 329.45,-235.5 158.45,-235.5"/>
<text text-anchor="start" x="166.45" y="-253.5" font-family="Helvetica,sans-Serif" font-size="10.00">include/emlabcpp/experimental</text>
<text text-anchor="middle" x="243.95" y="-242.5" font-family="Helvetica,sans-Serif" font-size="10.00">/rpc.h</text>
</a>
</g>
</g>
<!-- Node2 -->
<g id="node2" class="node">
<title>Node2</title>
<g id="a_node2"><a xlink:href="handler_8h.html" target="_top" xlink:title=" ">
<polygon fill="white" stroke="black" points="81.45,-179.5 81.45,-198.5 236.45,-198.5 236.45,-179.5 81.45,-179.5"/>
<text text-anchor="middle" x="158.95" y="-186.5" font-family="Helvetica,sans-Serif" font-size="10.00">emlabcpp/protocol/handler.h</text>
</a>
</g>
</g>
<!-- Node1&#45;&gt;Node2 -->
<g id="edge1" class="edge">
<title>Node1&#45;&gt;Node2</title>
<path fill="none" stroke="midnightblue" d="M223.81,-235.4C210.56,-226.13 193.27,-214.03 179.87,-204.65"/>
<polygon fill="midnightblue" stroke="midnightblue" points="181.52,-201.53 171.32,-198.66 177.5,-207.26 181.52,-201.53"/>
</g>
<!-- Node56 -->
<g id="node6" class="node">
<title>Node56</title>
<g id="a_node6"><a xlink:href="static__function_8h.html" target="_top" xlink:title=" ">
<polygon fill="white" stroke="black" points="266.45,-179.5 266.45,-198.5 415.45,-198.5 415.45,-179.5 266.45,-179.5"/>
<text text-anchor="middle" x="340.95" y="-186.5" font-family="Helvetica,sans-Serif" font-size="10.00">emlabcpp/static_function.h</text>
</a>
</g>
</g>
<!-- Node1&#45;&gt;Node56 -->
<g id="edge7" class="edge">
<title>Node1&#45;&gt;Node56</title>
<path fill="none" stroke="midnightblue" d="M266.94,-235.4C282.34,-225.95 302.54,-213.56 317.95,-204.11"/>
<polygon fill="midnightblue" stroke="midnightblue" points="320.14,-206.87 326.84,-198.66 316.48,-200.9 320.14,-206.87"/>
</g>
<!-- Node3 -->
<g id="node3" class="node">
<title>Node3</title>
<g id="a_node3"><a xlink:href="either_8h.html" target="_top" xlink:title=" ">
<polygon fill="white" stroke="red" points="45.95,-56.5 45.95,-75.5 149.95,-75.5 149.95,-56.5 45.95,-56.5"/>
<text text-anchor="middle" x="97.95" y="-63.5" font-family="Helvetica,sans-Serif" font-size="10.00">emlabcpp/either.h</text>
</a>
</g>
</g>
<!-- Node2&#45;&gt;Node3 -->
<g id="edge2" class="edge">
<title>Node2&#45;&gt;Node3</title>
<path fill="none" stroke="midnightblue" d="M106.79,-179.49C67.44,-171.88 18.23,-159.4 5.95,-143 -2.3,-131.97 -1.34,-123.69 5.95,-112 15.71,-96.36 32.65,-86.01 49.35,-79.23"/>
<polygon fill="midnightblue" stroke="midnightblue" points="50.93,-82.38 59.11,-75.64 48.51,-75.81 50.93,-82.38"/>
</g>
<!-- Node21 -->
<g id="node4" class="node">
<title>Node21</title>
<g id="a_node4"><a xlink:href="types_8h.html" target="_top" xlink:title=" ">
<polygon fill="white" stroke="red" points="100.95,-0.5 100.95,-19.5 204.95,-19.5 204.95,-0.5 100.95,-0.5"/>
<text text-anchor="middle" x="152.95" y="-7.5" font-family="Helvetica,sans-Serif" font-size="10.00">emlabcpp/types.h</text>
</a>
</g>
</g>
<!-- Node2&#45;&gt;Node21 -->
<g id="edge6" class="edge">
<title>Node2&#45;&gt;Node21</title>
<path fill="none" stroke="midnightblue" d="M167.16,-179.18C174.49,-170.66 184.71,-157.02 188.95,-143 201.29,-102.26 178.71,-53.87 164.05,-28.51"/>
<polygon fill="midnightblue" stroke="midnightblue" points="166.9,-26.45 158.74,-19.7 160.91,-30.07 166.9,-26.45"/>
</g>
<!-- Node30 -->
<g id="node5" class="node">
<title>Node30</title>
<g id="a_node5"><a xlink:href="converter_8h.html" target="_top" xlink:title=" ">
<polygon fill="white" stroke="red" points="15.45,-118 15.45,-137 180.45,-137 180.45,-118 15.45,-118"/>
<text text-anchor="middle" x="97.95" y="-125" font-family="Helvetica,sans-Serif" font-size="10.00">emlabcpp/protocol/converter.h</text>
</a>
</g>
</g>
<!-- Node2&#45;&gt;Node30 -->
<g id="edge4" class="edge">
<title>Node2&#45;&gt;Node30</title>
<path fill="none" stroke="midnightblue" d="M150.21,-179.48C140.79,-170.28 125.59,-155.46 114,-144.16"/>
<polygon fill="midnightblue" stroke="midnightblue" points="116.28,-141.49 106.67,-137.01 111.39,-146.5 116.28,-141.49"/>
</g>
<!-- Node3&#45;&gt;Node21 -->
<g id="edge3" class="edge">
<title>Node3&#45;&gt;Node21</title>
<path fill="none" stroke="midnightblue" d="M107.03,-56.08C115.12,-48.14 127.15,-36.34 136.86,-26.8"/>
<polygon fill="midnightblue" stroke="midnightblue" points="139.35,-29.25 144.04,-19.75 134.45,-24.26 139.35,-29.25"/>
</g>
<!-- Node30&#45;&gt;Node3 -->
<g id="edge5" class="edge">
<title>Node30&#45;&gt;Node3</title>
<path fill="none" stroke="midnightblue" d="M97.95,-117.98C97.95,-109.58 97.95,-96.48 97.95,-85.66"/>
<polygon fill="midnightblue" stroke="midnightblue" points="101.45,-85.51 97.95,-75.51 94.45,-85.51 101.45,-85.51"/>
</g>
<!-- Node57 -->
<g id="node7" class="node">
<title>Node57</title>
<g id="a_node7"><a xlink:href="util_8h.html" target="_top" xlink:title=" ">
<polygon fill="white" stroke="red" points="236.95,-112.5 236.95,-142.5 346.95,-142.5 346.95,-112.5 236.95,-112.5"/>
<text text-anchor="start" x="244.95" y="-130.5" font-family="Helvetica,sans-Serif" font-size="10.00">emlabcpp/allocator</text>
<text text-anchor="middle" x="291.95" y="-119.5" font-family="Helvetica,sans-Serif" font-size="10.00">/util.h</text>
</a>
</g>
</g>
<!-- Node56&#45;&gt;Node57 -->
<g id="edge8" class="edge">
<title>Node56&#45;&gt;Node57</title>
<path fill="none" stroke="midnightblue" d="M333.93,-179.48C327.67,-171.87 318.22,-160.4 309.87,-150.26"/>
<polygon fill="midnightblue" stroke="midnightblue" points="312.56,-148.02 303.5,-142.52 307.15,-152.47 312.56,-148.02"/>
</g>
<!-- Node53 -->
<g id="node8" class="node">
<title>Node53</title>
<g id="a_node8"><a xlink:title=" ">
<polygon fill="white" stroke="#bfbfbf" points="365.45,-118 365.45,-137 430.45,-137 430.45,-118 365.45,-118"/>
<text text-anchor="middle" x="397.95" y="-125" font-family="Helvetica,sans-Serif" font-size="10.00">functional</text>
</a>
</g>
</g>
<!-- Node56&#45;&gt;Node53 -->
<g id="edge9" class="edge">
<title>Node56&#45;&gt;Node53</title>
<path fill="none" stroke="midnightblue" d="M349.12,-179.48C357.84,-170.37 371.85,-155.74 382.64,-144.48"/>
<polygon fill="midnightblue" stroke="midnightblue" points="385.41,-146.65 389.8,-137.01 380.35,-141.81 385.41,-146.65"/>
</g>
<!-- Node59 -->
<g id="node9" class="node">
<title>Node59</title>
<g id="a_node9"><a xlink:title=" ">
<polygon fill="white" stroke="#bfbfbf" points="448.95,-118 448.95,-137 506.95,-137 506.95,-118 448.95,-118"/>
<text text-anchor="middle" x="477.95" y="-125" font-family="Helvetica,sans-Serif" font-size="10.00">memory</text>
</a>
</g>
</g>
<!-- Node56&#45;&gt;Node59 -->
<g id="edge10" class="edge">
<title>Node56&#45;&gt;Node59</title>
<path fill="none" stroke="midnightblue" d="M360.58,-179.48C383.77,-169.4 422.57,-152.55 449.16,-141"/>
<polygon fill="midnightblue" stroke="midnightblue" points="450.58,-144.2 458.36,-137.01 447.79,-137.78 450.58,-144.2"/>
</g>
</g>
</svg>
