<?xml version="1.0" encoding="UTF-8" standalone="no"?>
<!DOCTYPE svg PUBLIC "-//W3C//DTD SVG 1.1//EN"
 "http://www.w3.org/Graphics/SVG/1.1/DTD/svg11.dtd">
<!-- Generated by graphviz version 2.43.0 (0)
 -->
<!-- Title: include/emlabcpp/experimental/rpc.h Pages: 1 -->
<svg width="211pt" height="263pt"
 viewBox="0.00 0.00 211.08 263.00" xmlns="http://www.w3.org/2000/svg" xmlns:xlink="http://www.w3.org/1999/xlink">
<g id="graph0" class="graph" transform="scale(1 1) rotate(0) translate(4 259)">
<title>include/emlabcpp/experimental/rpc.h</title>
<polygon fill="white" stroke="transparent" points="-4,4 -4,-259 207.08,-259 207.08,4 -4,4"/>
<!-- Node1 -->
<g id="node1" class="node">
<title>Node1</title>
<g id="a_node1"><a xlink:title=" ">
<polygon fill="#bfbfbf" stroke="black" points="10.58,-224.5 10.58,-254.5 181.58,-254.5 181.58,-224.5 10.58,-224.5"/>
<text text-anchor="start" x="18.58" y="-242.5" font-family="Helvetica,sans-Serif" font-size="10.00">include/emlabcpp/experimental</text>
<text text-anchor="middle" x="96.08" y="-231.5" font-family="Helvetica,sans-Serif" font-size="10.00">/rpc.h</text>
</a>
</g>
</g>
<!-- Node2 -->
<g id="node2" class="node">
<title>Node2</title>
<g id="a_node2"><a xlink:href="handler_8h.html" target="_top" xlink:title=" ">
<polygon fill="white" stroke="black" points="18.58,-168.5 18.58,-187.5 173.58,-187.5 173.58,-168.5 18.58,-168.5"/>
<text text-anchor="middle" x="96.08" y="-175.5" font-family="Helvetica,sans-Serif" font-size="10.00">emlabcpp/protocol/handler.h</text>
</a>
</g>
</g>
<!-- Node1&#45;&gt;Node2 -->
<g id="edge1" class="edge">
<title>Node1&#45;&gt;Node2</title>
<path fill="none" stroke="midnightblue" d="M96.08,-224.4C96.08,-216.47 96.08,-206.46 96.08,-197.86"/>
<polygon fill="midnightblue" stroke="midnightblue" points="99.58,-197.66 96.08,-187.66 92.58,-197.66 99.58,-197.66"/>
</g>
<!-- Node3 -->
<g id="node3" class="node">
<title>Node3</title>
<g id="a_node3"><a xlink:href="either_8h.html" target="_top" xlink:title=" ">
<polygon fill="white" stroke="red" points="44.08,-56.5 44.08,-75.5 148.08,-75.5 148.08,-56.5 44.08,-56.5"/>
<text text-anchor="middle" x="96.08" y="-63.5" font-family="Helvetica,sans-Serif" font-size="10.00">emlabcpp/either.h</text>
</a>
</g>
</g>
<!-- Node2&#45;&gt;Node3 -->
<g id="edge2" class="edge">
<title>Node2&#45;&gt;Node3</title>
<path fill="none" stroke="midnightblue" d="M57.23,-168.36C37.7,-161.85 15.75,-150.7 4.08,-132 -11.29,-107.37 22.09,-89.45 52.86,-78.74"/>
<polygon fill="midnightblue" stroke="midnightblue" points="54.28,-81.96 62.69,-75.52 52.1,-75.31 54.28,-81.96"/>
</g>
<!-- Node26 -->
<g id="node4" class="node">
<title>Node26</title>
<g id="a_node4"><a xlink:href="types_8h.html" target="_top" xlink:title=" ">
<polygon fill="white" stroke="red" points="99.08,-0.5 99.08,-19.5 203.08,-19.5 203.08,-0.5 99.08,-0.5"/>
<text text-anchor="middle" x="151.08" y="-7.5" font-family="Helvetica,sans-Serif" font-size="10.00">emlabcpp/types.h</text>
</a>
</g>
</g>
<!-- Node2&#45;&gt;Node26 -->
<g id="edge6" class="edge">
<title>Node2&#45;&gt;Node26</title>
<path fill="none" stroke="midnightblue" d="M134.92,-168.36C154.45,-161.85 176.4,-150.7 188.08,-132 209.01,-98.45 182.21,-52.26 164.46,-27.79"/>
<polygon fill="midnightblue" stroke="midnightblue" points="167.04,-25.41 158.21,-19.55 161.46,-29.63 167.04,-25.41"/>
</g>
<!-- Node30 -->
<g id="node5" class="node">
<title>Node30</title>
<g id="a_node5"><a xlink:href="converter_8h.html" target="_top" xlink:title=" ">
<polygon fill="white" stroke="red" points="13.58,-112.5 13.58,-131.5 178.58,-131.5 178.58,-112.5 13.58,-112.5"/>
<text text-anchor="middle" x="96.08" y="-119.5" font-family="Helvetica,sans-Serif" font-size="10.00">emlabcpp/protocol/converter.h</text>
</a>
</g>
</g>
<!-- Node2&#45;&gt;Node30 -->
<g id="edge4" class="edge">
<title>Node2&#45;&gt;Node30</title>
<path fill="none" stroke="midnightblue" d="M96.08,-168.08C96.08,-161.01 96.08,-150.86 96.08,-141.99"/>
<polygon fill="midnightblue" stroke="midnightblue" points="99.58,-141.75 96.08,-131.75 92.58,-141.75 99.58,-141.75"/>
</g>
<!-- Node3&#45;&gt;Node26 -->
<g id="edge3" class="edge">
<title>Node3&#45;&gt;Node26</title>
<path fill="none" stroke="midnightblue" d="M105.16,-56.08C113.25,-48.14 125.27,-36.34 134.99,-26.8"/>
<polygon fill="midnightblue" stroke="midnightblue" points="137.48,-29.25 142.16,-19.75 132.58,-24.26 137.48,-29.25"/>
</g>
<!-- Node30&#45;&gt;Node3 -->
<g id="edge5" class="edge">
<title>Node30&#45;&gt;Node3</title>
<path fill="none" stroke="midnightblue" d="M96.08,-112.08C96.08,-105.01 96.08,-94.86 96.08,-85.99"/>
<polygon fill="midnightblue" stroke="midnightblue" points="99.58,-85.75 96.08,-75.75 92.58,-85.75 99.58,-85.75"/>
</g>
</g>
</svg>
