<?xml version="1.0" encoding="UTF-8" standalone="no"?>
<!DOCTYPE svg PUBLIC "-//W3C//DTD SVG 1.1//EN"
 "http://www.w3.org/Graphics/SVG/1.1/DTD/svg11.dtd">
<!-- Generated by graphviz version 2.43.0 (0)
 -->
<!-- Title: include/emlabcpp/experimental/rpc.h Pages: 1 -->
<svg width="1042pt" height="274pt"
 viewBox="0.00 0.00 1041.93 274.00" xmlns="http://www.w3.org/2000/svg" xmlns:xlink="http://www.w3.org/1999/xlink">
<g id="graph0" class="graph" transform="scale(1 1) rotate(0) translate(4 270)">
<title>include/emlabcpp/experimental/rpc.h</title>
<polygon fill="white" stroke="transparent" points="-4,4 -4,-270 1037.93,-270 1037.93,4 -4,4"/>
<!-- Node1 -->
<g id="node1" class="node">
<title>Node1</title>
<g id="a_node1"><a xlink:title=" ">
<polygon fill="#bfbfbf" stroke="black" points="385.43,-235.5 385.43,-265.5 556.43,-265.5 556.43,-235.5 385.43,-235.5"/>
<text text-anchor="start" x="393.43" y="-253.5" font-family="Helvetica,sans-Serif" font-size="10.00">include/emlabcpp/experimental</text>
<text text-anchor="middle" x="470.93" y="-242.5" font-family="Helvetica,sans-Serif" font-size="10.00">/rpc.h</text>
</a>
</g>
</g>
<!-- Node2 -->
<g id="node2" class="node">
<title>Node2</title>
<g id="a_node2"><a xlink:href="handler_8h.html" target="_top" xlink:title=" ">
<polygon fill="white" stroke="black" points="76.43,-179.5 76.43,-198.5 231.43,-198.5 231.43,-179.5 76.43,-179.5"/>
<text text-anchor="middle" x="153.93" y="-186.5" font-family="Helvetica,sans-Serif" font-size="10.00">emlabcpp/protocol/handler.h</text>
</a>
</g>
</g>
<!-- Node1&#45;&gt;Node2 -->
<g id="edge1" class="edge">
<title>Node1&#45;&gt;Node2</title>
<path fill="none" stroke="midnightblue" d="M396.2,-235.47C338.89,-224.72 261.06,-210.11 209.25,-200.38"/>
<polygon fill="midnightblue" stroke="midnightblue" points="209.72,-196.91 199.25,-198.51 208.43,-203.79 209.72,-196.91"/>
</g>
<!-- Node62 -->
<g id="node6" class="node">
<title>Node62</title>
<g id="a_node6"><a xlink:href="streams_8h.html" target="_top" xlink:title=" ">
<polygon fill="white" stroke="black" points="391.43,-179.5 391.43,-198.5 550.43,-198.5 550.43,-179.5 391.43,-179.5"/>
<text text-anchor="middle" x="470.93" y="-186.5" font-family="Helvetica,sans-Serif" font-size="10.00">emlabcpp/protocol/streams.h</text>
</a>
</g>
</g>
<!-- Node1&#45;&gt;Node62 -->
<g id="edge7" class="edge">
<title>Node1&#45;&gt;Node62</title>
<path fill="none" stroke="midnightblue" d="M470.93,-235.4C470.93,-227.47 470.93,-217.46 470.93,-208.86"/>
<polygon fill="midnightblue" stroke="midnightblue" points="474.43,-208.66 470.93,-198.66 467.43,-208.66 474.43,-208.66"/>
</g>
<!-- Node65 -->
<g id="node12" class="node">
<title>Node65</title>
<g id="a_node12"><a xlink:href="static__function_8h.html" target="_top" xlink:title=" ">
<polygon fill="white" stroke="black" points="796.43,-179.5 796.43,-198.5 945.43,-198.5 945.43,-179.5 796.43,-179.5"/>
<text text-anchor="middle" x="870.93" y="-186.5" font-family="Helvetica,sans-Serif" font-size="10.00">emlabcpp/static_function.h</text>
</a>
</g>
</g>
<!-- Node1&#45;&gt;Node65 -->
<g id="edge14" class="edge">
<title>Node1&#45;&gt;Node65</title>
<path fill="none" stroke="midnightblue" d="M556.74,-236.74C630.54,-225.76 735.54,-210.14 803.45,-200.04"/>
<polygon fill="midnightblue" stroke="midnightblue" points="804.24,-203.46 813.61,-198.53 803.21,-196.53 804.24,-203.46"/>
</g>
<!-- Node3 -->
<g id="node3" class="node">
<title>Node3</title>
<g id="a_node3"><a xlink:href="either_8h.html" target="_top" xlink:title=" ">
<polygon fill="white" stroke="red" points="45.93,-56.5 45.93,-75.5 149.93,-75.5 149.93,-56.5 45.93,-56.5"/>
<text text-anchor="middle" x="97.93" y="-63.5" font-family="Helvetica,sans-Serif" font-size="10.00">emlabcpp/either.h</text>
</a>
</g>
</g>
<!-- Node2&#45;&gt;Node3 -->
<g id="edge2" class="edge">
<title>Node2&#45;&gt;Node3</title>
<path fill="none" stroke="midnightblue" d="M76.17,-182.81C49.57,-176.85 22.4,-165.22 5.93,-143 -2.28,-131.93 -1.37,-123.69 5.93,-112 15.68,-96.36 32.62,-86.01 49.33,-79.23"/>
<polygon fill="midnightblue" stroke="midnightblue" points="50.91,-82.38 59.08,-75.64 48.49,-75.81 50.91,-82.38"/>
</g>
<!-- Node25 -->
<g id="node4" class="node">
<title>Node25</title>
<g id="a_node4"><a xlink:href="types_8h.html" target="_top" xlink:title=" ">
<polygon fill="white" stroke="red" points="100.93,-0.5 100.93,-19.5 204.93,-19.5 204.93,-0.5 100.93,-0.5"/>
<text text-anchor="middle" x="152.93" y="-7.5" font-family="Helvetica,sans-Serif" font-size="10.00">emlabcpp/types.h</text>
</a>
</g>
</g>
<!-- Node2&#45;&gt;Node25 -->
<g id="edge6" class="edge">
<title>Node2&#45;&gt;Node25</title>
<path fill="none" stroke="midnightblue" d="M163.48,-179.45C172.01,-171.12 183.91,-157.6 188.93,-143 202.8,-102.56 179.37,-53.73 164.23,-28.3"/>
<polygon fill="midnightblue" stroke="midnightblue" points="167.18,-26.41 158.93,-19.77 161.23,-30.11 167.18,-26.41"/>
</g>
<!-- Node38 -->
<g id="node5" class="node">
<title>Node38</title>
<g id="a_node5"><a xlink:href="converter_8h.html" target="_top" xlink:title=" ">
<polygon fill="white" stroke="red" points="15.43,-118 15.43,-137 180.43,-137 180.43,-118 15.43,-118"/>
<text text-anchor="middle" x="97.93" y="-125" font-family="Helvetica,sans-Serif" font-size="10.00">emlabcpp/protocol/converter.h</text>
</a>
</g>
</g>
<!-- Node2&#45;&gt;Node38 -->
<g id="edge4" class="edge">
<title>Node2&#45;&gt;Node38</title>
<path fill="none" stroke="midnightblue" d="M145.9,-179.48C137.34,-170.37 123.56,-155.74 112.97,-144.48"/>
<polygon fill="midnightblue" stroke="midnightblue" points="115.34,-141.89 105.93,-137.01 110.24,-146.69 115.34,-141.89"/>
</g>
<!-- Node3&#45;&gt;Node25 -->
<g id="edge3" class="edge">
<title>Node3&#45;&gt;Node25</title>
<path fill="none" stroke="midnightblue" d="M107.01,-56.08C115.1,-48.14 127.12,-36.34 136.84,-26.8"/>
<polygon fill="midnightblue" stroke="midnightblue" points="139.33,-29.25 144.01,-19.75 134.42,-24.26 139.33,-29.25"/>
</g>
<!-- Node38&#45;&gt;Node3 -->
<g id="edge5" class="edge">
<title>Node38&#45;&gt;Node3</title>
<path fill="none" stroke="midnightblue" d="M97.93,-117.98C97.93,-109.58 97.93,-96.48 97.93,-85.66"/>
<polygon fill="midnightblue" stroke="midnightblue" points="101.43,-85.51 97.93,-75.51 94.43,-85.51 101.43,-85.51"/>
</g>
<!-- Node17 -->
<g id="node7" class="node">
<title>Node17</title>
<g id="a_node7"><a xlink:href="enum_8h.html" target="_top" xlink:title=" ">
<polygon fill="white" stroke="red" points="236.93,-118 236.93,-137 340.93,-137 340.93,-118 236.93,-118"/>
<text text-anchor="middle" x="288.93" y="-125" font-family="Helvetica,sans-Serif" font-size="10.00">emlabcpp/enum.h</text>
</a>
</g>
</g>
<!-- Node62&#45;&gt;Node17 -->
<g id="edge8" class="edge">
<title>Node62&#45;&gt;Node17</title>
<path fill="none" stroke="midnightblue" d="M444.85,-179.48C413.36,-169.18 360.23,-151.81 324.87,-140.25"/>
<polygon fill="midnightblue" stroke="midnightblue" points="325.55,-136.79 314.95,-137.01 323.37,-143.44 325.55,-136.79"/>
</g>
<!-- Node51 -->
<g id="node8" class="node">
<title>Node51</title>
<g id="a_node8"><a xlink:href="protocol_2base_8h.html" target="_top" xlink:title=" ">
<polygon fill="white" stroke="red" points="348.43,-56.5 348.43,-75.5 491.43,-75.5 491.43,-56.5 348.43,-56.5"/>
<text text-anchor="middle" x="419.93" y="-63.5" font-family="Helvetica,sans-Serif" font-size="10.00">emlabcpp/protocol/base.h</text>
</a>
</g>
</g>
<!-- Node62&#45;&gt;Node51 -->
<g id="edge9" class="edge">
<title>Node62&#45;&gt;Node51</title>
<path fill="none" stroke="midnightblue" d="M438.74,-179.49C420.39,-172.8 398.91,-161.45 387.93,-143 376.43,-123.69 391.06,-99.5 404.1,-83.66"/>
<polygon fill="midnightblue" stroke="midnightblue" points="407.03,-85.63 411,-75.81 401.77,-81.01 407.03,-85.63"/>
</g>
<!-- Node63 -->
<g id="node9" class="node">
<title>Node63</title>
<g id="a_node9"><a xlink:href="register__map_8h.html" target="_top" xlink:title=" ">
<polygon fill="white" stroke="red" points="396.93,-112.5 396.93,-142.5 544.93,-142.5 544.93,-112.5 396.93,-112.5"/>
<text text-anchor="start" x="404.93" y="-130.5" font-family="Helvetica,sans-Serif" font-size="10.00">emlabcpp/protocol/register</text>
<text text-anchor="middle" x="470.93" y="-119.5" font-family="Helvetica,sans-Serif" font-size="10.00">_map.h</text>
</a>
</g>
</g>
<!-- Node62&#45;&gt;Node63 -->
<g id="edge10" class="edge">
<title>Node62&#45;&gt;Node63</title>
<path fill="none" stroke="midnightblue" d="M470.93,-179.48C470.93,-172.47 470.93,-162.19 470.93,-152.7"/>
<polygon fill="midnightblue" stroke="midnightblue" points="474.43,-152.52 470.93,-142.52 467.43,-152.52 474.43,-152.52"/>
</g>
<!-- Node21 -->
<g id="node10" class="node">
<title>Node21</title>
<g id="a_node10"><a xlink:href="range_8h.html" target="_top" xlink:title=" ">
<polygon fill="white" stroke="red" points="562.93,-118 562.93,-137 666.93,-137 666.93,-118 562.93,-118"/>
<text text-anchor="middle" x="614.93" y="-125" font-family="Helvetica,sans-Serif" font-size="10.00">emlabcpp/range.h</text>
</a>
</g>
</g>
<!-- Node62&#45;&gt;Node21 -->
<g id="edge12" class="edge">
<title>Node62&#45;&gt;Node21</title>
<path fill="none" stroke="midnightblue" d="M491.56,-179.48C516.04,-169.36 557.07,-152.4 585.03,-140.85"/>
<polygon fill="midnightblue" stroke="midnightblue" points="586.43,-144.06 594.33,-137.01 583.75,-137.59 586.43,-144.06"/>
</g>
<!-- Node64 -->
<g id="node11" class="node">
<title>Node64</title>
<g id="a_node11"><a xlink:title=" ">
<polygon fill="white" stroke="#bfbfbf" points="684.93,-118 684.93,-137 740.93,-137 740.93,-118 684.93,-118"/>
<text text-anchor="middle" x="712.93" y="-125" font-family="Helvetica,sans-Serif" font-size="10.00">iomanip</text>
</a>
</g>
</g>
<!-- Node62&#45;&gt;Node64 -->
<g id="edge13" class="edge">
<title>Node62&#45;&gt;Node64</title>
<path fill="none" stroke="midnightblue" d="M519.94,-179.49C561.83,-171.68 623.45,-158.93 675.93,-143 678.35,-142.26 680.84,-141.44 683.33,-140.57"/>
<polygon fill="midnightblue" stroke="midnightblue" points="684.62,-143.82 692.77,-137.06 682.18,-137.26 684.62,-143.82"/>
</g>
<!-- Node63&#45;&gt;Node51 -->
<g id="edge11" class="edge">
<title>Node63&#45;&gt;Node51</title>
<path fill="none" stroke="midnightblue" d="M458.84,-112.4C451.35,-103.66 441.71,-92.41 433.89,-83.3"/>
<polygon fill="midnightblue" stroke="midnightblue" points="436.51,-80.97 427.35,-75.66 431.2,-85.53 436.51,-80.97"/>
</g>
<!-- Node66 -->
<g id="node13" class="node">
<title>Node66</title>
<g id="a_node13"><a xlink:href="pmr_2util_8h.html" target="_top" xlink:title=" ">
<polygon fill="white" stroke="red" points="759.43,-118 759.43,-137 874.43,-137 874.43,-118 759.43,-118"/>
<text text-anchor="middle" x="816.93" y="-125" font-family="Helvetica,sans-Serif" font-size="10.00">emlabcpp/pmr/util.h</text>
</a>
</g>
</g>
<!-- Node65&#45;&gt;Node66 -->
<g id="edge15" class="edge">
<title>Node65&#45;&gt;Node66</title>
<path fill="none" stroke="midnightblue" d="M863.19,-179.48C854.93,-170.37 841.65,-155.74 831.43,-144.48"/>
<polygon fill="midnightblue" stroke="midnightblue" points="833.96,-142.06 824.65,-137.01 828.78,-146.77 833.96,-142.06"/>
</g>
<!-- Node59 -->
<g id="node14" class="node">
<title>Node59</title>
<g id="a_node14"><a xlink:title=" ">
<polygon fill="white" stroke="#bfbfbf" points="892.43,-118 892.43,-137 957.43,-137 957.43,-118 892.43,-118"/>
<text text-anchor="middle" x="924.93" y="-125" font-family="Helvetica,sans-Serif" font-size="10.00">functional</text>
</a>
</g>
</g>
<!-- Node65&#45;&gt;Node59 -->
<g id="edge16" class="edge">
<title>Node65&#45;&gt;Node59</title>
<path fill="none" stroke="midnightblue" d="M878.66,-179.48C886.92,-170.37 900.2,-155.74 910.42,-144.48"/>
<polygon fill="midnightblue" stroke="midnightblue" points="913.07,-146.77 917.2,-137.01 907.89,-142.06 913.07,-146.77"/>
</g>
<!-- Node67 -->
<g id="node15" class="node">
<title>Node67</title>
<g id="a_node15"><a xlink:title=" ">
<polygon fill="white" stroke="#bfbfbf" points="975.93,-118 975.93,-137 1033.93,-137 1033.93,-118 975.93,-118"/>
<text text-anchor="middle" x="1004.93" y="-125" font-family="Helvetica,sans-Serif" font-size="10.00">memory</text>
</a>
</g>
</g>
<!-- Node65&#45;&gt;Node67 -->
<g id="edge17" class="edge">
<title>Node65&#45;&gt;Node67</title>
<path fill="none" stroke="midnightblue" d="M890.12,-179.48C912.71,-169.45 950.42,-152.7 976.43,-141.15"/>
<polygon fill="midnightblue" stroke="midnightblue" points="978.04,-144.27 985.76,-137.01 975.2,-137.87 978.04,-144.27"/>
</g>
</g>
</svg>
