<?xml version="1.0" encoding="UTF-8" standalone="no"?>
<!DOCTYPE svg PUBLIC "-//W3C//DTD SVG 1.1//EN"
 "http://www.w3.org/Graphics/SVG/1.1/DTD/svg11.dtd">
<!-- Generated by graphviz version 2.43.0 (0)
 -->
<!-- Title: include/emlabcpp/protocol/sequencer.h Pages: 1 -->
<svg width="865pt" height="218pt"
 viewBox="0.00 0.00 865.00 218.00" xmlns="http://www.w3.org/2000/svg" xmlns:xlink="http://www.w3.org/1999/xlink">
<g id="graph0" class="graph" transform="scale(1 1) rotate(0) translate(4 214)">
<title>include/emlabcpp/protocol/sequencer.h</title>
<polygon fill="white" stroke="transparent" points="-4,4 -4,-214 861,-214 861,4 -4,4"/>
<!-- Node1 -->
<g id="node1" class="node">
<title>Node1</title>
<g id="a_node1"><a xlink:title=" ">
<polygon fill="#bfbfbf" stroke="black" points="382.5,-179.5 382.5,-209.5 528.5,-209.5 528.5,-179.5 382.5,-179.5"/>
<text text-anchor="start" x="390.5" y="-197.5" font-family="Helvetica,sans-Serif" font-size="10.00">include/emlabcpp/protocol</text>
<text text-anchor="middle" x="455.5" y="-186.5" font-family="Helvetica,sans-Serif" font-size="10.00">/sequencer.h</text>
</a>
</g>
</g>
<!-- Node2 -->
<g id="node2" class="node">
<title>Node2</title>
<g id="a_node2"><a xlink:href="assert_8h.html" target="_top" xlink:title=" ">
<polygon fill="white" stroke="black" points="66,-123.5 66,-142.5 173,-142.5 173,-123.5 66,-123.5"/>
<text text-anchor="middle" x="119.5" y="-130.5" font-family="Helvetica,sans-Serif" font-size="10.00">emlabcpp/assert.h</text>
</a>
</g>
</g>
<!-- Node1&#45;&gt;Node2 -->
<g id="edge1" class="edge">
<title>Node1&#45;&gt;Node2</title>
<path fill="none" stroke="midnightblue" d="M382.18,-180.52C320.79,-169.65 234.36,-154.34 177.66,-144.3"/>
<polygon fill="midnightblue" stroke="midnightblue" points="178.24,-140.85 167.78,-142.55 177.01,-147.74 178.24,-140.85"/>
</g>
<!-- Node4 -->
<g id="node4" class="node">
<title>Node4</title>
<g id="a_node4"><a xlink:href="either_8h.html" target="_top" xlink:title=" ">
<polygon fill="white" stroke="black" points="403.5,-123.5 403.5,-142.5 507.5,-142.5 507.5,-123.5 403.5,-123.5"/>
<text text-anchor="middle" x="455.5" y="-130.5" font-family="Helvetica,sans-Serif" font-size="10.00">emlabcpp/either.h</text>
</a>
</g>
</g>
<!-- Node1&#45;&gt;Node4 -->
<g id="edge3" class="edge">
<title>Node1&#45;&gt;Node4</title>
<path fill="none" stroke="midnightblue" d="M455.5,-179.4C455.5,-171.47 455.5,-161.46 455.5,-152.86"/>
<polygon fill="midnightblue" stroke="midnightblue" points="459,-152.66 455.5,-142.66 452,-152.66 459,-152.66"/>
</g>
<!-- Node32 -->
<g id="node15" class="node">
<title>Node32</title>
<g id="a_node15"><a xlink:href="quantity_8h.html" target="_top" xlink:title=" ">
<polygon fill="white" stroke="black" points="104.5,-62 104.5,-81 220.5,-81 220.5,-62 104.5,-62"/>
<text text-anchor="middle" x="162.5" y="-69" font-family="Helvetica,sans-Serif" font-size="10.00">emlabcpp/quantity.h</text>
</a>
</g>
</g>
<!-- Node1&#45;&gt;Node32 -->
<g id="edge17" class="edge">
<title>Node1&#45;&gt;Node32</title>
<path fill="none" stroke="midnightblue" d="M421.32,-179.38C363.62,-155.56 247.83,-107.74 192.84,-85.03"/>
<polygon fill="midnightblue" stroke="midnightblue" points="193.88,-81.67 183.31,-81.09 191.21,-88.14 193.88,-81.67"/>
</g>
<!-- Node37 -->
<g id="node20" class="node">
<title>Node37</title>
<g id="a_node20"><a xlink:href="static__circular__buffer_8h.html" target="_top" xlink:title=" ">
<polygon fill="white" stroke="black" points="690.5,-56.5 690.5,-86.5 826.5,-86.5 826.5,-56.5 690.5,-56.5"/>
<text text-anchor="start" x="698.5" y="-74.5" font-family="Helvetica,sans-Serif" font-size="10.00">emlabcpp/static_circular</text>
<text text-anchor="middle" x="758.5" y="-63.5" font-family="Helvetica,sans-Serif" font-size="10.00">_buffer.h</text>
</a>
</g>
</g>
<!-- Node1&#45;&gt;Node37 -->
<g id="edge25" class="edge">
<title>Node1&#45;&gt;Node37</title>
<path fill="none" stroke="midnightblue" d="M471.13,-179.48C489.72,-163.54 522.29,-137.8 554.5,-123 576.94,-112.69 632.69,-99.16 680.25,-88.7"/>
<polygon fill="midnightblue" stroke="midnightblue" points="681.23,-92.07 690.26,-86.52 679.74,-85.23 681.23,-92.07"/>
</g>
<!-- Node8 -->
<g id="node22" class="node">
<title>Node8</title>
<g id="a_node22"><a xlink:title=" ">
<polygon fill="white" stroke="#bfbfbf" points="563.5,-123.5 563.5,-142.5 605.5,-142.5 605.5,-123.5 563.5,-123.5"/>
<text text-anchor="middle" x="584.5" y="-130.5" font-family="Helvetica,sans-Serif" font-size="10.00">array</text>
</a>
</g>
</g>
<!-- Node1&#45;&gt;Node8 -->
<g id="edge32" class="edge">
<title>Node1&#45;&gt;Node8</title>
<path fill="none" stroke="midnightblue" d="M486.07,-179.4C507.43,-169.55 535.72,-156.5 556.48,-146.92"/>
<polygon fill="midnightblue" stroke="midnightblue" points="558.11,-150.02 565.73,-142.66 555.18,-143.67 558.11,-150.02"/>
</g>
<!-- Node3 -->
<g id="node3" class="node">
<title>Node3</title>
<g id="a_node3"><a xlink:title=" ">
<polygon fill="white" stroke="#bfbfbf" points="34.5,-62 34.5,-81 86.5,-81 86.5,-62 34.5,-62"/>
<text text-anchor="middle" x="60.5" y="-69" font-family="Helvetica,sans-Serif" font-size="10.00">cassert</text>
</a>
</g>
</g>
<!-- Node2&#45;&gt;Node3 -->
<g id="edge2" class="edge">
<title>Node2&#45;&gt;Node3</title>
<path fill="none" stroke="midnightblue" d="M111.05,-123.48C101.93,-114.28 87.23,-99.46 76.02,-88.16"/>
<polygon fill="midnightblue" stroke="midnightblue" points="78.46,-85.65 68.94,-81.01 73.49,-90.57 78.46,-85.65"/>
</g>
<!-- Node5 -->
<g id="node5" class="node">
<title>Node5</title>
<g id="a_node5"><a xlink:href="static__vector_8h.html" target="_top" xlink:title=" ">
<polygon fill="white" stroke="red" points="533,-62 533,-81 672,-81 672,-62 533,-62"/>
<text text-anchor="middle" x="602.5" y="-69" font-family="Helvetica,sans-Serif" font-size="10.00">emlabcpp/static_vector.h</text>
</a>
</g>
</g>
<!-- Node4&#45;&gt;Node5 -->
<g id="edge4" class="edge">
<title>Node4&#45;&gt;Node5</title>
<path fill="none" stroke="midnightblue" d="M476.56,-123.48C501.56,-113.36 543.44,-96.4 571.99,-84.85"/>
<polygon fill="midnightblue" stroke="midnightblue" points="573.52,-88.01 581.48,-81.01 570.89,-81.52 573.52,-88.01"/>
</g>
<!-- Node12 -->
<g id="node9" class="node">
<title>Node12</title>
<g id="a_node9"><a xlink:title=" ">
<polygon fill="white" stroke="#bfbfbf" points="470,-0.5 470,-19.5 539,-19.5 539,-0.5 470,-0.5"/>
<text text-anchor="middle" x="504.5" y="-7.5" font-family="Helvetica,sans-Serif" font-size="10.00">type_traits</text>
</a>
</g>
</g>
<!-- Node4&#45;&gt;Node12 -->
<g id="edge15" class="edge">
<title>Node4&#45;&gt;Node12</title>
<path fill="none" stroke="midnightblue" d="M462.68,-123.23C469.48,-114.53 479.5,-100.57 485.5,-87 493.74,-68.38 498.84,-45.56 501.65,-29.81"/>
<polygon fill="midnightblue" stroke="midnightblue" points="505.14,-30.19 503.31,-19.75 498.23,-29.05 505.14,-30.19"/>
</g>
<!-- Node31 -->
<g id="node10" class="node">
<title>Node31</title>
<g id="a_node10"><a xlink:title=" ">
<polygon fill="white" stroke="#bfbfbf" points="812,-0.5 812,-19.5 857,-19.5 857,-0.5 812,-0.5"/>
<text text-anchor="middle" x="834.5" y="-7.5" font-family="Helvetica,sans-Serif" font-size="10.00">utility</text>
</a>
</g>
</g>
<!-- Node4&#45;&gt;Node31 -->
<g id="edge16" class="edge">
<title>Node4&#45;&gt;Node31</title>
<path fill="none" stroke="midnightblue" d="M507.84,-126.71C610.78,-116.17 830.1,-93.08 835.5,-87 849.23,-71.54 845.78,-46.54 841.04,-29.46"/>
<polygon fill="midnightblue" stroke="midnightblue" points="844.26,-28.04 837.9,-19.57 837.58,-30.16 844.26,-28.04"/>
</g>
<!-- Node22 -->
<g id="node11" class="node">
<title>Node22</title>
<g id="a_node11"><a xlink:href="types_8h.html" target="_top" xlink:title=" ">
<polygon fill="white" stroke="red" points="238.5,-62 238.5,-81 342.5,-81 342.5,-62 238.5,-62"/>
<text text-anchor="middle" x="290.5" y="-69" font-family="Helvetica,sans-Serif" font-size="10.00">emlabcpp/types.h</text>
</a>
</g>
</g>
<!-- Node4&#45;&gt;Node22 -->
<g id="edge10" class="edge">
<title>Node4&#45;&gt;Node22</title>
<path fill="none" stroke="midnightblue" d="M431.86,-123.48C403.56,-113.27 355.97,-96.11 323.91,-84.55"/>
<polygon fill="midnightblue" stroke="midnightblue" points="324.69,-81.11 314.1,-81.01 322.32,-87.69 324.69,-81.11"/>
</g>
<!-- Node27 -->
<g id="node13" class="node">
<title>Node27</title>
<g id="a_node13"><a xlink:title=" ">
<polygon fill="white" stroke="#bfbfbf" points="360.5,-62 360.5,-81 416.5,-81 416.5,-62 360.5,-62"/>
<text text-anchor="middle" x="388.5" y="-69" font-family="Helvetica,sans-Serif" font-size="10.00">optional</text>
</a>
</g>
</g>
<!-- Node4&#45;&gt;Node27 -->
<g id="edge13" class="edge">
<title>Node4&#45;&gt;Node27</title>
<path fill="none" stroke="midnightblue" d="M445.9,-123.48C435.45,-114.2 418.53,-99.17 405.76,-87.83"/>
<polygon fill="midnightblue" stroke="midnightblue" points="407.88,-85.03 398.08,-81.01 403.23,-90.27 407.88,-85.03"/>
</g>
<!-- Node11 -->
<g id="node14" class="node">
<title>Node11</title>
<g id="a_node14"><a xlink:title=" ">
<polygon fill="white" stroke="#bfbfbf" points="435,-62 435,-81 476,-81 476,-62 435,-62"/>
<text text-anchor="middle" x="455.5" y="-69" font-family="Helvetica,sans-Serif" font-size="10.00">tuple</text>
</a>
</g>
</g>
<!-- Node4&#45;&gt;Node11 -->
<g id="edge14" class="edge">
<title>Node4&#45;&gt;Node11</title>
<path fill="none" stroke="midnightblue" d="M455.5,-123.48C455.5,-115.08 455.5,-101.98 455.5,-91.16"/>
<polygon fill="midnightblue" stroke="midnightblue" points="459,-91.01 455.5,-81.01 452,-91.01 459,-91.01"/>
</g>
<!-- Node6 -->
<g id="node6" class="node">
<title>Node6</title>
<g id="a_node6"><a xlink:href="concepts_8h.html" target="_top" xlink:title=" ">
<polygon fill="white" stroke="red" points="267.5,-0.5 267.5,-19.5 387.5,-19.5 387.5,-0.5 267.5,-0.5"/>
<text text-anchor="middle" x="327.5" y="-7.5" font-family="Helvetica,sans-Serif" font-size="10.00">emlabcpp/concepts.h</text>
</a>
</g>
</g>
<!-- Node5&#45;&gt;Node6 -->
<g id="edge5" class="edge">
<title>Node5&#45;&gt;Node6</title>
<path fill="none" stroke="midnightblue" d="M563.1,-61.98C513.99,-51.35 430.03,-33.18 376.73,-21.65"/>
<polygon fill="midnightblue" stroke="midnightblue" points="377.34,-18.2 366.83,-19.51 375.86,-25.04 377.34,-18.2"/>
</g>
<!-- Node29 -->
<g id="node7" class="node">
<title>Node29</title>
<g id="a_node7"><a xlink:href="iterator_8h.html" target="_top" xlink:title=" ">
<polygon fill="white" stroke="red" points="557.5,-0.5 557.5,-19.5 669.5,-19.5 669.5,-0.5 557.5,-0.5"/>
<text text-anchor="middle" x="613.5" y="-7.5" font-family="Helvetica,sans-Serif" font-size="10.00">emlabcpp/iterator.h</text>
</a>
</g>
</g>
<!-- Node5&#45;&gt;Node29 -->
<g id="edge6" class="edge">
<title>Node5&#45;&gt;Node29</title>
<path fill="none" stroke="midnightblue" d="M604.08,-61.98C605.63,-53.58 608.05,-40.48 610.05,-29.66"/>
<polygon fill="midnightblue" stroke="midnightblue" points="613.55,-29.98 611.93,-19.51 606.67,-28.71 613.55,-29.98"/>
</g>
<!-- Node30 -->
<g id="node8" class="node">
<title>Node30</title>
<g id="a_node8"><a xlink:title=" ">
<polygon fill="white" stroke="#bfbfbf" points="688,-0.5 688,-19.5 725,-19.5 725,-0.5 688,-0.5"/>
<text text-anchor="middle" x="706.5" y="-7.5" font-family="Helvetica,sans-Serif" font-size="10.00">new</text>
</a>
</g>
</g>
<!-- Node5&#45;&gt;Node30 -->
<g id="edge7" class="edge">
<title>Node5&#45;&gt;Node30</title>
<path fill="none" stroke="midnightblue" d="M617.4,-61.98C634.47,-52.21 662.66,-36.08 682.76,-24.58"/>
<polygon fill="midnightblue" stroke="midnightblue" points="684.69,-27.51 691.63,-19.51 681.21,-21.44 684.69,-27.51"/>
</g>
<!-- Node5&#45;&gt;Node12 -->
<g id="edge8" class="edge">
<title>Node5&#45;&gt;Node12</title>
<path fill="none" stroke="midnightblue" d="M588.46,-61.98C572.45,-52.25 546.05,-36.23 527.13,-24.74"/>
<polygon fill="midnightblue" stroke="midnightblue" points="528.88,-21.71 518.51,-19.51 525.25,-27.69 528.88,-21.71"/>
</g>
<!-- Node5&#45;&gt;Node31 -->
<g id="edge9" class="edge">
<title>Node5&#45;&gt;Node31</title>
<path fill="none" stroke="midnightblue" d="M637.62,-61.94C675.66,-52.59 738.38,-36.99 801.99,-20.08"/>
<polygon fill="midnightblue" stroke="midnightblue" points="803.03,-23.43 811.8,-17.47 801.23,-16.66 803.03,-23.43"/>
</g>
<!-- Node22&#45;&gt;Node6 -->
<g id="edge11" class="edge">
<title>Node22&#45;&gt;Node6</title>
<path fill="none" stroke="midnightblue" d="M295.8,-61.98C301.24,-53.23 309.86,-39.37 316.74,-28.31"/>
<polygon fill="midnightblue" stroke="midnightblue" points="319.9,-29.85 322.21,-19.51 313.96,-26.15 319.9,-29.85"/>
</g>
<!-- Node23 -->
<g id="node12" class="node">
<title>Node23</title>
<g id="a_node12"><a xlink:title=" ">
<polygon fill="white" stroke="#bfbfbf" points="205.5,-0.5 205.5,-19.5 249.5,-19.5 249.5,-0.5 205.5,-0.5"/>
<text text-anchor="middle" x="227.5" y="-7.5" font-family="Helvetica,sans-Serif" font-size="10.00">string</text>
</a>
</g>
</g>
<!-- Node22&#45;&gt;Node23 -->
<g id="edge12" class="edge">
<title>Node22&#45;&gt;Node23</title>
<path fill="none" stroke="midnightblue" d="M281.47,-61.98C271.74,-52.78 256.04,-37.96 244.08,-26.66"/>
<polygon fill="midnightblue" stroke="midnightblue" points="246.18,-23.83 236.51,-19.51 241.38,-28.92 246.18,-23.83"/>
</g>
<!-- Node32&#45;&gt;Node6 -->
<g id="edge18" class="edge">
<title>Node32&#45;&gt;Node6</title>
<path fill="none" stroke="midnightblue" d="M186.14,-61.98C214.44,-51.77 262.03,-34.61 294.09,-23.05"/>
<polygon fill="midnightblue" stroke="midnightblue" points="295.68,-26.19 303.9,-19.51 293.31,-19.61 295.68,-26.19"/>
</g>
<!-- Node32&#45;&gt;Node12 -->
<g id="edge24" class="edge">
<title>Node32&#45;&gt;Node12</title>
<path fill="none" stroke="midnightblue" d="M199.98,-61.99C209.58,-59.92 219.91,-57.79 229.5,-56 331.22,-37.05 357.64,-38.15 459.5,-20 459.6,-19.98 459.71,-19.96 459.81,-19.94"/>
<polygon fill="midnightblue" stroke="midnightblue" points="460.45,-23.39 469.64,-18.12 459.17,-16.5 460.45,-23.39"/>
</g>
<!-- Node32&#45;&gt;Node23 -->
<g id="edge23" class="edge">
<title>Node32&#45;&gt;Node23</title>
<path fill="none" stroke="midnightblue" d="M171.81,-61.98C181.95,-52.7 198.36,-37.67 210.75,-26.33"/>
<polygon fill="midnightblue" stroke="midnightblue" points="213.19,-28.84 218.2,-19.51 208.46,-23.68 213.19,-28.84"/>
</g>
<!-- Node33 -->
<g id="node16" class="node">
<title>Node33</title>
<g id="a_node16"><a xlink:title=" ">
<polygon fill="white" stroke="#bfbfbf" points="140,-0.5 140,-19.5 187,-19.5 187,-0.5 140,-0.5"/>
<text text-anchor="middle" x="163.5" y="-7.5" font-family="Helvetica,sans-Serif" font-size="10.00">cmath</text>
</a>
</g>
</g>
<!-- Node32&#45;&gt;Node33 -->
<g id="edge19" class="edge">
<title>Node32&#45;&gt;Node33</title>
<path fill="none" stroke="midnightblue" d="M162.64,-61.98C162.78,-53.58 163,-40.48 163.19,-29.66"/>
<polygon fill="midnightblue" stroke="midnightblue" points="166.69,-29.57 163.36,-19.51 159.69,-29.45 166.69,-29.57"/>
</g>
<!-- Node34 -->
<g id="node17" class="node">
<title>Node34</title>
<g id="a_node17"><a xlink:title=" ">
<polygon fill="white" stroke="#bfbfbf" points="0,-0.5 0,-19.5 65,-19.5 65,-0.5 0,-0.5"/>
<text text-anchor="middle" x="32.5" y="-7.5" font-family="Helvetica,sans-Serif" font-size="10.00">functional</text>
</a>
</g>
</g>
<!-- Node32&#45;&gt;Node34 -->
<g id="edge20" class="edge">
<title>Node32&#45;&gt;Node34</title>
<path fill="none" stroke="midnightblue" d="M143.87,-61.98C122.06,-51.99 85.7,-35.35 60.48,-23.81"/>
<polygon fill="midnightblue" stroke="midnightblue" points="61.64,-20.49 51.09,-19.51 58.73,-26.85 61.64,-20.49"/>
</g>
<!-- Node35 -->
<g id="node18" class="node">
<title>Node35</title>
<g id="a_node18"><a xlink:title=" ">
<polygon fill="white" stroke="#bfbfbf" points="406.5,-0.5 406.5,-19.5 450.5,-19.5 450.5,-0.5 406.5,-0.5"/>
<text text-anchor="middle" x="428.5" y="-7.5" font-family="Helvetica,sans-Serif" font-size="10.00">limits</text>
</a>
</g>
</g>
<!-- Node32&#45;&gt;Node35 -->
<g id="edge21" class="edge">
<title>Node32&#45;&gt;Node35</title>
<path fill="none" stroke="midnightblue" d="M201.82,-61.98C210.91,-60.02 220.54,-57.93 229.5,-56 300.67,-40.63 321.15,-38.45 396.23,-19.94"/>
<polygon fill="midnightblue" stroke="midnightblue" points="397.3,-23.28 406.17,-17.47 395.62,-16.48 397.3,-23.28"/>
</g>
<!-- Node36 -->
<g id="node19" class="node">
<title>Node36</title>
<g id="a_node19"><a xlink:title=" ">
<polygon fill="white" stroke="#bfbfbf" points="83,-0.5 83,-19.5 122,-19.5 122,-0.5 83,-0.5"/>
<text text-anchor="middle" x="102.5" y="-7.5" font-family="Helvetica,sans-Serif" font-size="10.00">ratio</text>
</a>
</g>
</g>
<!-- Node32&#45;&gt;Node36 -->
<g id="edge22" class="edge">
<title>Node32&#45;&gt;Node36</title>
<path fill="none" stroke="midnightblue" d="M153.9,-61.98C144.64,-52.78 129.68,-37.96 118.29,-26.66"/>
<polygon fill="midnightblue" stroke="midnightblue" points="120.65,-24.07 111.08,-19.51 115.72,-29.04 120.65,-24.07"/>
</g>
<!-- Node37&#45;&gt;Node29 -->
<g id="edge26" class="edge">
<title>Node37&#45;&gt;Node29</title>
<path fill="none" stroke="midnightblue" d="M724.14,-56.4C699.81,-46.42 667.47,-33.15 644.04,-23.53"/>
<polygon fill="midnightblue" stroke="midnightblue" points="645.18,-20.22 634.6,-19.66 642.52,-26.69 645.18,-20.22"/>
</g>
<!-- Node37&#45;&gt;Node30 -->
<g id="edge29" class="edge">
<title>Node37&#45;&gt;Node30</title>
<path fill="none" stroke="midnightblue" d="M746.18,-56.4C738.54,-47.66 728.71,-36.41 720.74,-27.3"/>
<polygon fill="midnightblue" stroke="midnightblue" points="723.28,-24.88 714.07,-19.66 718.01,-29.49 723.28,-24.88"/>
</g>
<!-- Node37&#45;&gt;Node12 -->
<g id="edge30" class="edge">
<title>Node37&#45;&gt;Node12</title>
<path fill="none" stroke="midnightblue" d="M698.63,-56.47C652.83,-45.75 590.69,-31.19 549.17,-21.46"/>
<polygon fill="midnightblue" stroke="midnightblue" points="549.88,-18.04 539.35,-19.16 548.28,-24.85 549.88,-18.04"/>
</g>
<!-- Node37&#45;&gt;Node31 -->
<g id="edge31" class="edge">
<title>Node37&#45;&gt;Node31</title>
<path fill="none" stroke="midnightblue" d="M776.51,-56.4C788.24,-47.22 803.52,-35.26 815.44,-25.92"/>
<polygon fill="midnightblue" stroke="midnightblue" points="817.72,-28.58 823.44,-19.66 813.41,-23.07 817.72,-28.58"/>
</g>
<!-- Node37&#45;&gt;Node35 -->
<g id="edge28" class="edge">
<title>Node37&#45;&gt;Node35</title>
<path fill="none" stroke="midnightblue" d="M690.5,-57.6C687.46,-57.06 684.45,-56.52 681.5,-56 583.92,-38.83 558.31,-41.06 461.5,-20 461.17,-19.93 460.85,-19.86 460.52,-19.78"/>
<polygon fill="midnightblue" stroke="midnightblue" points="461.33,-16.38 450.79,-17.42 459.68,-23.18 461.33,-16.38"/>
</g>
<!-- Node9 -->
<g id="node21" class="node">
<title>Node9</title>
<g id="a_node21"><a xlink:title=" ">
<polygon fill="white" stroke="#bfbfbf" points="743.5,-0.5 743.5,-19.5 793.5,-19.5 793.5,-0.5 743.5,-0.5"/>
<text text-anchor="middle" x="768.5" y="-7.5" font-family="Helvetica,sans-Serif" font-size="10.00">cstdint</text>
</a>
</g>
</g>
<!-- Node37&#45;&gt;Node9 -->
<g id="edge27" class="edge">
<title>Node37&#45;&gt;Node9</title>
<path fill="none" stroke="midnightblue" d="M760.87,-56.4C762.22,-48.38 763.92,-38.23 765.38,-29.57"/>
<polygon fill="midnightblue" stroke="midnightblue" points="768.84,-30.1 767.04,-19.66 761.94,-28.94 768.84,-30.1"/>
</g>
</g>
</svg>
