<?xml version="1.0" encoding="UTF-8" standalone="no"?>
<!DOCTYPE svg PUBLIC "-//W3C//DTD SVG 1.1//EN"
 "http://www.w3.org/Graphics/SVG/1.1/DTD/svg11.dtd">
<!-- Generated by graphviz version 2.43.0 (0)
 -->
<!-- Title: include/emlabcpp/protocol/sequencer.h Pages: 1 -->
<svg width="848pt" height="162pt"
 viewBox="0.00 0.00 848.00 162.00" xmlns="http://www.w3.org/2000/svg" xmlns:xlink="http://www.w3.org/1999/xlink">
<g id="graph0" class="graph" transform="scale(1 1) rotate(0) translate(4 158)">
<title>include/emlabcpp/protocol/sequencer.h</title>
<polygon fill="white" stroke="transparent" points="-4,4 -4,-158 844,-158 844,4 -4,4"/>
<!-- Node1 -->
<g id="node1" class="node">
<title>Node1</title>
<g id="a_node1"><a xlink:title=" ">
<polygon fill="#bfbfbf" stroke="black" points="431,-123.5 431,-153.5 577,-153.5 577,-123.5 431,-123.5"/>
<text text-anchor="start" x="439" y="-141.5" font-family="Helvetica,sans-Serif" font-size="10.00">include/emlabcpp/protocol</text>
<text text-anchor="middle" x="504" y="-130.5" font-family="Helvetica,sans-Serif" font-size="10.00">/sequencer.h</text>
</a>
</g>
</g>
<!-- Node2 -->
<g id="node2" class="node">
<title>Node2</title>
<g id="a_node2"><a xlink:href="assert_8h.html" target="_top" xlink:title=" ">
<polygon fill="white" stroke="black" points="133.5,-62 133.5,-81 198.5,-81 198.5,-62 133.5,-62"/>
<text text-anchor="middle" x="166" y="-69" font-family="Helvetica,sans-Serif" font-size="10.00">../assert.h</text>
</a>
</g>
</g>
<!-- Node1&#45;&gt;Node2 -->
<g id="edge1" class="edge">
<title>Node1&#45;&gt;Node2</title>
<path fill="none" stroke="midnightblue" d="M431.08,-123.48C363.29,-110.44 264.64,-91.47 208.77,-80.73"/>
<polygon fill="midnightblue" stroke="midnightblue" points="209.34,-77.27 198.86,-78.82 208.02,-84.14 209.34,-77.27"/>
</g>
<!-- Node4 -->
<g id="node4" class="node">
<title>Node4</title>
<g id="a_node4"><a xlink:href="quantity_8h.html" target="_top" xlink:title=" ">
<polygon fill="white" stroke="black" points="327,-62 327,-81 401,-81 401,-62 327,-62"/>
<text text-anchor="middle" x="364" y="-69" font-family="Helvetica,sans-Serif" font-size="10.00">../quantity.h</text>
</a>
</g>
</g>
<!-- Node1&#45;&gt;Node4 -->
<g id="edge3" class="edge">
<title>Node1&#45;&gt;Node4</title>
<path fill="none" stroke="midnightblue" d="M473.62,-123.4C449.17,-112.04 415.09,-96.22 391.45,-85.24"/>
<polygon fill="midnightblue" stroke="midnightblue" points="392.87,-82.04 382.32,-81.01 389.92,-88.39 392.87,-82.04"/>
</g>
<!-- Node21 -->
<g id="node12" class="node">
<title>Node21</title>
<g id="a_node12"><a xlink:href="static__circular__buffer_8h.html" target="_top" xlink:title=" ">
<polygon fill="white" stroke="black" points="568,-56.5 568,-86.5 662,-86.5 662,-56.5 568,-56.5"/>
<text text-anchor="start" x="576" y="-74.5" font-family="Helvetica,sans-Serif" font-size="10.00">../static_circular</text>
<text text-anchor="middle" x="615" y="-63.5" font-family="Helvetica,sans-Serif" font-size="10.00">_buffer.h</text>
</a>
</g>
</g>
<!-- Node1&#45;&gt;Node21 -->
<g id="edge11" class="edge">
<title>Node1&#45;&gt;Node21</title>
<path fill="none" stroke="midnightblue" d="M528.09,-123.4C543.94,-114.11 564.89,-101.84 582.26,-91.67"/>
<polygon fill="midnightblue" stroke="midnightblue" points="584.1,-94.65 590.96,-86.58 580.56,-88.61 584.1,-94.65"/>
</g>
<!-- Node7 -->
<g id="node16" class="node">
<title>Node7</title>
<g id="a_node16"><a xlink:title=" ">
<polygon fill="white" stroke="#bfbfbf" points="680,-62 680,-81 722,-81 722,-62 680,-62"/>
<text text-anchor="middle" x="701" y="-69" font-family="Helvetica,sans-Serif" font-size="10.00">array</text>
</a>
</g>
</g>
<!-- Node1&#45;&gt;Node7 -->
<g id="edge15" class="edge">
<title>Node1&#45;&gt;Node7</title>
<path fill="none" stroke="midnightblue" d="M558.12,-123.45C591.17,-114.31 634.03,-101.42 671,-87 672.38,-86.46 673.79,-85.89 675.2,-85.28"/>
<polygon fill="midnightblue" stroke="midnightblue" points="676.74,-88.43 684.39,-81.1 673.84,-82.06 676.74,-88.43"/>
</g>
<!-- Node3 -->
<g id="node3" class="node">
<title>Node3</title>
<g id="a_node3"><a xlink:title=" ">
<polygon fill="white" stroke="#bfbfbf" points="0,-0.5 0,-19.5 52,-19.5 52,-0.5 0,-0.5"/>
<text text-anchor="middle" x="26" y="-7.5" font-family="Helvetica,sans-Serif" font-size="10.00">cassert</text>
</a>
</g>
</g>
<!-- Node2&#45;&gt;Node3 -->
<g id="edge2" class="edge">
<title>Node2&#45;&gt;Node3</title>
<path fill="none" stroke="midnightblue" d="M145.94,-61.98C122.24,-51.9 82.59,-35.05 55.42,-23.5"/>
<polygon fill="midnightblue" stroke="midnightblue" points="56.59,-20.2 46.02,-19.51 53.86,-26.64 56.59,-20.2"/>
</g>
<!-- Node5 -->
<g id="node5" class="node">
<title>Node5</title>
<g id="a_node5"><a xlink:href="concepts_8h.html" target="_top" xlink:title=" ">
<polygon fill="white" stroke="red" points="70.5,-0.5 70.5,-19.5 145.5,-19.5 145.5,-0.5 70.5,-0.5"/>
<text text-anchor="middle" x="108" y="-7.5" font-family="Helvetica,sans-Serif" font-size="10.00">./concepts.h</text>
</a>
</g>
</g>
<!-- Node4&#45;&gt;Node5 -->
<g id="edge4" class="edge">
<title>Node4&#45;&gt;Node5</title>
<path fill="none" stroke="midnightblue" d="M327.32,-61.98C281.79,-51.39 204.1,-33.34 154.45,-21.8"/>
<polygon fill="midnightblue" stroke="midnightblue" points="155.14,-18.36 144.61,-19.51 153.56,-25.18 155.14,-18.36"/>
</g>
<!-- Node16 -->
<g id="node6" class="node">
<title>Node16</title>
<g id="a_node6"><a xlink:title=" ">
<polygon fill="white" stroke="#bfbfbf" points="163.5,-0.5 163.5,-19.5 210.5,-19.5 210.5,-0.5 163.5,-0.5"/>
<text text-anchor="middle" x="187" y="-7.5" font-family="Helvetica,sans-Serif" font-size="10.00">cmath</text>
</a>
</g>
</g>
<!-- Node4&#45;&gt;Node16 -->
<g id="edge5" class="edge">
<title>Node4&#45;&gt;Node16</title>
<path fill="none" stroke="midnightblue" d="M338.64,-61.98C307.49,-51.5 254.58,-33.72 220.21,-22.16"/>
<polygon fill="midnightblue" stroke="midnightblue" points="221.21,-18.81 210.62,-18.94 218.98,-25.44 221.21,-18.81"/>
</g>
<!-- Node17 -->
<g id="node7" class="node">
<title>Node17</title>
<g id="a_node7"><a xlink:title=" ">
<polygon fill="white" stroke="#bfbfbf" points="228.5,-0.5 228.5,-19.5 293.5,-19.5 293.5,-0.5 228.5,-0.5"/>
<text text-anchor="middle" x="261" y="-7.5" font-family="Helvetica,sans-Serif" font-size="10.00">functional</text>
</a>
</g>
</g>
<!-- Node4&#45;&gt;Node17 -->
<g id="edge6" class="edge">
<title>Node4&#45;&gt;Node17</title>
<path fill="none" stroke="midnightblue" d="M349.24,-61.98C332.34,-52.21 304.42,-36.08 284.51,-24.58"/>
<polygon fill="midnightblue" stroke="midnightblue" points="286.14,-21.48 275.73,-19.51 282.64,-27.54 286.14,-21.48"/>
</g>
<!-- Node18 -->
<g id="node8" class="node">
<title>Node18</title>
<g id="a_node8"><a xlink:title=" ">
<polygon fill="white" stroke="#bfbfbf" points="312,-0.5 312,-19.5 356,-19.5 356,-0.5 312,-0.5"/>
<text text-anchor="middle" x="334" y="-7.5" font-family="Helvetica,sans-Serif" font-size="10.00">limits</text>
</a>
</g>
</g>
<!-- Node4&#45;&gt;Node18 -->
<g id="edge7" class="edge">
<title>Node4&#45;&gt;Node18</title>
<path fill="none" stroke="midnightblue" d="M359.7,-61.98C355.34,-53.32 348.44,-39.65 342.9,-28.65"/>
<polygon fill="midnightblue" stroke="midnightblue" points="345.92,-26.86 338.29,-19.51 339.67,-30.01 345.92,-26.86"/>
</g>
<!-- Node19 -->
<g id="node9" class="node">
<title>Node19</title>
<g id="a_node9"><a xlink:title=" ">
<polygon fill="white" stroke="#bfbfbf" points="374.5,-0.5 374.5,-19.5 413.5,-19.5 413.5,-0.5 374.5,-0.5"/>
<text text-anchor="middle" x="394" y="-7.5" font-family="Helvetica,sans-Serif" font-size="10.00">ratio</text>
</a>
</g>
</g>
<!-- Node4&#45;&gt;Node19 -->
<g id="edge8" class="edge">
<title>Node4&#45;&gt;Node19</title>
<path fill="none" stroke="midnightblue" d="M368.3,-61.98C372.66,-53.32 379.56,-39.65 385.1,-28.65"/>
<polygon fill="midnightblue" stroke="midnightblue" points="388.33,-30.01 389.71,-19.51 382.08,-26.86 388.33,-30.01"/>
</g>
<!-- Node20 -->
<g id="node10" class="node">
<title>Node20</title>
<g id="a_node10"><a xlink:title=" ">
<polygon fill="white" stroke="#bfbfbf" points="432,-0.5 432,-19.5 476,-19.5 476,-0.5 432,-0.5"/>
<text text-anchor="middle" x="454" y="-7.5" font-family="Helvetica,sans-Serif" font-size="10.00">string</text>
</a>
</g>
</g>
<!-- Node4&#45;&gt;Node20 -->
<g id="edge9" class="edge">
<title>Node4&#45;&gt;Node20</title>
<path fill="none" stroke="midnightblue" d="M376.89,-61.98C391.46,-52.34 415.4,-36.52 432.75,-25.05"/>
<polygon fill="midnightblue" stroke="midnightblue" points="434.72,-27.94 441.13,-19.51 430.86,-22.1 434.72,-27.94"/>
</g>
<!-- Node11 -->
<g id="node11" class="node">
<title>Node11</title>
<g id="a_node11"><a xlink:title=" ">
<polygon fill="white" stroke="#bfbfbf" points="494.5,-0.5 494.5,-19.5 563.5,-19.5 563.5,-0.5 494.5,-0.5"/>
<text text-anchor="middle" x="529" y="-7.5" font-family="Helvetica,sans-Serif" font-size="10.00">type_traits</text>
</a>
</g>
</g>
<!-- Node4&#45;&gt;Node11 -->
<g id="edge10" class="edge">
<title>Node4&#45;&gt;Node11</title>
<path fill="none" stroke="midnightblue" d="M387.64,-61.98C415.94,-51.77 463.53,-34.61 495.59,-23.05"/>
<polygon fill="midnightblue" stroke="midnightblue" points="497.18,-26.19 505.4,-19.51 494.81,-19.61 497.18,-26.19"/>
</g>
<!-- Node22 -->
<g id="node13" class="node">
<title>Node22</title>
<g id="a_node13"><a xlink:href="iterator_8h.html" target="_top" xlink:title=" ">
<polygon fill="white" stroke="red" points="581.5,-0.5 581.5,-19.5 648.5,-19.5 648.5,-0.5 581.5,-0.5"/>
<text text-anchor="middle" x="615" y="-7.5" font-family="Helvetica,sans-Serif" font-size="10.00">./iterator.h</text>
</a>
</g>
</g>
<!-- Node21&#45;&gt;Node22 -->
<g id="edge12" class="edge">
<title>Node21&#45;&gt;Node22</title>
<path fill="none" stroke="midnightblue" d="M615,-56.4C615,-48.47 615,-38.46 615,-29.86"/>
<polygon fill="midnightblue" stroke="midnightblue" points="618.5,-29.66 615,-19.66 611.5,-29.66 618.5,-29.66"/>
</g>
<!-- Node23 -->
<g id="node14" class="node">
<title>Node23</title>
<g id="a_node14"><a xlink:href="static__storage_8h.html" target="_top" xlink:title=" ">
<polygon fill="white" stroke="red" points="666.5,-0.5 666.5,-19.5 767.5,-19.5 767.5,-0.5 666.5,-0.5"/>
<text text-anchor="middle" x="717" y="-7.5" font-family="Helvetica,sans-Serif" font-size="10.00">./static_storage.h</text>
</a>
</g>
</g>
<!-- Node21&#45;&gt;Node23 -->
<g id="edge13" class="edge">
<title>Node21&#45;&gt;Node23</title>
<path fill="none" stroke="midnightblue" d="M639.17,-56.4C655.52,-46.86 677.01,-34.32 693.27,-24.84"/>
<polygon fill="midnightblue" stroke="midnightblue" points="695.28,-27.72 702.16,-19.66 691.76,-21.67 695.28,-27.72"/>
</g>
<!-- Node27 -->
<g id="node15" class="node">
<title>Node27</title>
<g id="a_node15"><a xlink:href="view_8h.html" target="_top" xlink:title=" ">
<polygon fill="white" stroke="red" points="786,-0.5 786,-19.5 840,-19.5 840,-0.5 786,-0.5"/>
<text text-anchor="middle" x="813" y="-7.5" font-family="Helvetica,sans-Serif" font-size="10.00">./view.h</text>
</a>
</g>
</g>
<!-- Node21&#45;&gt;Node27 -->
<g id="edge14" class="edge">
<title>Node21&#45;&gt;Node27</title>
<path fill="none" stroke="midnightblue" d="M661.67,-56.47C696.54,-46 743.57,-31.86 775.89,-22.15"/>
<polygon fill="midnightblue" stroke="midnightblue" points="777.27,-25.39 785.84,-19.16 775.25,-18.69 777.27,-25.39"/>
</g>
</g>
</svg>
