<?xml version="1.0" encoding="UTF-8" standalone="no"?>
<!DOCTYPE svg PUBLIC "-//W3C//DTD SVG 1.1//EN"
 "http://www.w3.org/Graphics/SVG/1.1/DTD/svg11.dtd">
<!-- Generated by graphviz version 2.43.0 (0)
 -->
<!-- Title: include/emlabcpp/protocol/sequencer.h Pages: 1 -->
<svg width="1114pt" height="274pt"
 viewBox="0.00 0.00 1114.00 274.00" xmlns="http://www.w3.org/2000/svg" xmlns:xlink="http://www.w3.org/1999/xlink">
<g id="graph0" class="graph" transform="scale(1 1) rotate(0) translate(4 270)">
<title>include/emlabcpp/protocol/sequencer.h</title>
<polygon fill="white" stroke="transparent" points="-4,4 -4,-270 1110,-270 1110,4 -4,4"/>
<!-- Node1 -->
<g id="node1" class="node">
<title>Node1</title>
<g id="a_node1"><a xlink:title=" ">
<polygon fill="#bfbfbf" stroke="black" points="656,-235.5 656,-265.5 802,-265.5 802,-235.5 656,-235.5"/>
<text text-anchor="start" x="664" y="-253.5" font-family="Helvetica,sans-Serif" font-size="10.00">include/emlabcpp/protocol</text>
<text text-anchor="middle" x="729" y="-242.5" font-family="Helvetica,sans-Serif" font-size="10.00">/sequencer.h</text>
</a>
</g>
</g>
<!-- Node2 -->
<g id="node2" class="node">
<title>Node2</title>
<g id="a_node2"><a xlink:href="assert_8h.html" target="_top" xlink:title=" ">
<polygon fill="white" stroke="black" points="36.5,-174 36.5,-193 143.5,-193 143.5,-174 36.5,-174"/>
<text text-anchor="middle" x="90" y="-181" font-family="Helvetica,sans-Serif" font-size="10.00">emlabcpp/assert.h</text>
</a>
</g>
</g>
<!-- Node1&#45;&gt;Node2 -->
<g id="edge1" class="edge">
<title>Node1&#45;&gt;Node2</title>
<path fill="none" stroke="midnightblue" d="M655.7,-242.04C529.4,-229.2 272.86,-203.1 153.6,-190.97"/>
<polygon fill="midnightblue" stroke="midnightblue" points="153.83,-187.48 143.53,-189.95 153.13,-194.44 153.83,-187.48"/>
</g>
<!-- Node4 -->
<g id="node4" class="node">
<title>Node4</title>
<g id="a_node4"><a xlink:href="either_8h.html" target="_top" xlink:title=" ">
<polygon fill="white" stroke="black" points="677,-174 677,-193 781,-193 781,-174 677,-174"/>
<text text-anchor="middle" x="729" y="-181" font-family="Helvetica,sans-Serif" font-size="10.00">emlabcpp/either.h</text>
</a>
</g>
</g>
<!-- Node1&#45;&gt;Node4 -->
<g id="edge3" class="edge">
<title>Node1&#45;&gt;Node4</title>
<path fill="none" stroke="midnightblue" d="M729,-235.4C729,-226.06 729,-213.71 729,-203.52"/>
<polygon fill="midnightblue" stroke="midnightblue" points="732.5,-203.19 729,-193.19 725.5,-203.19 732.5,-203.19"/>
</g>
<!-- Node41 -->
<g id="node14" class="node">
<title>Node41</title>
<g id="a_node14"><a xlink:href="quantity_8h.html" target="_top" xlink:title=" ">
<polygon fill="white" stroke="black" points="252,-174 252,-193 368,-193 368,-174 252,-174"/>
<text text-anchor="middle" x="310" y="-181" font-family="Helvetica,sans-Serif" font-size="10.00">emlabcpp/quantity.h</text>
</a>
</g>
</g>
<!-- Node1&#45;&gt;Node41 -->
<g id="edge15" class="edge">
<title>Node1&#45;&gt;Node41</title>
<path fill="none" stroke="midnightblue" d="M655.54,-238.1C576.13,-225.79 450.8,-206.34 374.9,-194.57"/>
<polygon fill="midnightblue" stroke="midnightblue" points="375.41,-191.1 364.99,-193.03 374.33,-198.02 375.41,-191.1"/>
</g>
<!-- Node46 -->
<g id="node19" class="node">
<title>Node46</title>
<g id="a_node19"><a xlink:href="static__circular__buffer_8h.html" target="_top" xlink:title=" ">
<polygon fill="white" stroke="black" points="865,-168.5 865,-198.5 1001,-198.5 1001,-168.5 865,-168.5"/>
<text text-anchor="start" x="873" y="-186.5" font-family="Helvetica,sans-Serif" font-size="10.00">emlabcpp/static_circular</text>
<text text-anchor="middle" x="933" y="-175.5" font-family="Helvetica,sans-Serif" font-size="10.00">_buffer.h</text>
</a>
</g>
</g>
<!-- Node1&#45;&gt;Node46 -->
<g id="edge23" class="edge">
<title>Node1&#45;&gt;Node46</title>
<path fill="none" stroke="midnightblue" d="M773.01,-235.48C804.14,-225.56 846.06,-212.2 879.18,-201.65"/>
<polygon fill="midnightblue" stroke="midnightblue" points="880.25,-204.98 888.71,-198.61 878.12,-198.31 880.25,-204.98"/>
</g>
<!-- Node8 -->
<g id="node21" class="node">
<title>Node8</title>
<g id="a_node21"><a xlink:title=" ">
<polygon fill="white" stroke="#bfbfbf" points="1019,-174 1019,-193 1061,-193 1061,-174 1019,-174"/>
<text text-anchor="middle" x="1040" y="-181" font-family="Helvetica,sans-Serif" font-size="10.00">array</text>
</a>
</g>
</g>
<!-- Node1&#45;&gt;Node8 -->
<g id="edge26" class="edge">
<title>Node1&#45;&gt;Node8</title>
<path fill="none" stroke="midnightblue" d="M802.23,-241.88C859.73,-234.59 941.29,-221.31 1010,-199 1011.66,-198.46 1013.35,-197.84 1015.04,-197.18"/>
<polygon fill="midnightblue" stroke="midnightblue" points="1016.73,-200.26 1024.45,-193.01 1013.89,-193.86 1016.73,-200.26"/>
</g>
<!-- Node3 -->
<g id="node3" class="node">
<title>Node3</title>
<g id="a_node3"><a xlink:title=" ">
<polygon fill="white" stroke="#bfbfbf" points="0,-112.5 0,-131.5 52,-131.5 52,-112.5 0,-112.5"/>
<text text-anchor="middle" x="26" y="-119.5" font-family="Helvetica,sans-Serif" font-size="10.00">cassert</text>
</a>
</g>
</g>
<!-- Node2&#45;&gt;Node3 -->
<g id="edge2" class="edge">
<title>Node2&#45;&gt;Node3</title>
<path fill="none" stroke="midnightblue" d="M80.83,-173.98C70.85,-164.7 54.69,-149.67 42.49,-138.33"/>
<polygon fill="midnightblue" stroke="midnightblue" points="44.86,-135.75 35.15,-131.51 40.09,-140.88 44.86,-135.75"/>
</g>
<!-- Node5 -->
<g id="node5" class="node">
<title>Node5</title>
<g id="a_node5"><a xlink:href="static__vector_8h.html" target="_top" xlink:title=" ">
<polygon fill="white" stroke="red" points="626.5,-112.5 626.5,-131.5 765.5,-131.5 765.5,-112.5 626.5,-112.5"/>
<text text-anchor="middle" x="696" y="-119.5" font-family="Helvetica,sans-Serif" font-size="10.00">emlabcpp/static_vector.h</text>
</a>
</g>
</g>
<!-- Node4&#45;&gt;Node5 -->
<g id="edge4" class="edge">
<title>Node4&#45;&gt;Node5</title>
<path fill="none" stroke="midnightblue" d="M724.27,-173.98C719.42,-165.23 711.73,-151.37 705.6,-140.31"/>
<polygon fill="midnightblue" stroke="midnightblue" points="708.63,-138.56 700.72,-131.51 702.51,-141.95 708.63,-138.56"/>
</g>
<!-- Node40 -->
<g id="node8" class="node">
<title>Node40</title>
<g id="a_node8"><a xlink:title=" ">
<polygon fill="white" stroke="#bfbfbf" points="854.5,-0.5 854.5,-19.5 899.5,-19.5 899.5,-0.5 854.5,-0.5"/>
<text text-anchor="middle" x="877" y="-7.5" font-family="Helvetica,sans-Serif" font-size="10.00">utility</text>
</a>
</g>
</g>
<!-- Node4&#45;&gt;Node40 -->
<g id="edge14" class="edge">
<title>Node4&#45;&gt;Node40</title>
<path fill="none" stroke="midnightblue" d="M781.21,-174.77C828.3,-166.61 892.47,-152.14 908,-132 928.63,-105.25 919.28,-88.18 909,-56 905.66,-45.54 898.9,-35.43 892.45,-27.45"/>
<polygon fill="midnightblue" stroke="midnightblue" points="894.94,-24.98 885.75,-19.71 889.65,-29.56 894.94,-24.98"/>
</g>
<!-- Node26 -->
<g id="node9" class="node">
<title>Node26</title>
<g id="a_node9"><a xlink:href="types_8h.html" target="_top" xlink:title=" ">
<polygon fill="white" stroke="red" points="504,-112.5 504,-131.5 608,-131.5 608,-112.5 504,-112.5"/>
<text text-anchor="middle" x="556" y="-119.5" font-family="Helvetica,sans-Serif" font-size="10.00">emlabcpp/types.h</text>
</a>
</g>
</g>
<!-- Node4&#45;&gt;Node26 -->
<g id="edge8" class="edge">
<title>Node4&#45;&gt;Node26</title>
<path fill="none" stroke="midnightblue" d="M704.21,-173.98C674.41,-163.72 624.21,-146.46 590.6,-134.9"/>
<polygon fill="midnightblue" stroke="midnightblue" points="591.34,-131.45 580.74,-131.51 589.06,-138.07 591.34,-131.45"/>
</g>
<!-- Node33 -->
<g id="node11" class="node">
<title>Node33</title>
<g id="a_node11"><a xlink:title=" ">
<polygon fill="white" stroke="#bfbfbf" points="784,-112.5 784,-131.5 840,-131.5 840,-112.5 784,-112.5"/>
<text text-anchor="middle" x="812" y="-119.5" font-family="Helvetica,sans-Serif" font-size="10.00">optional</text>
</a>
</g>
</g>
<!-- Node4&#45;&gt;Node33 -->
<g id="edge11" class="edge">
<title>Node4&#45;&gt;Node33</title>
<path fill="none" stroke="midnightblue" d="M740.89,-173.98C754.2,-164.43 776,-148.81 791.96,-137.37"/>
<polygon fill="midnightblue" stroke="midnightblue" points="794.04,-140.18 800.13,-131.51 789.96,-134.49 794.04,-140.18"/>
</g>
<!-- Node11 -->
<g id="node12" class="node">
<title>Node11</title>
<g id="a_node12"><a xlink:title=" ">
<polygon fill="white" stroke="#bfbfbf" points="858.5,-112.5 858.5,-131.5 899.5,-131.5 899.5,-112.5 858.5,-112.5"/>
<text text-anchor="middle" x="879" y="-119.5" font-family="Helvetica,sans-Serif" font-size="10.00">tuple</text>
</a>
</g>
</g>
<!-- Node4&#45;&gt;Node11 -->
<g id="edge12" class="edge">
<title>Node4&#45;&gt;Node11</title>
<path fill="none" stroke="midnightblue" d="M750.49,-173.98C776.14,-163.8 819.22,-146.71 848.36,-135.15"/>
<polygon fill="midnightblue" stroke="midnightblue" points="850.03,-138.26 858.03,-131.32 847.45,-131.75 850.03,-138.26"/>
</g>
<!-- Node12 -->
<g id="node13" class="node">
<title>Node12</title>
<g id="a_node13"><a xlink:title=" ">
<polygon fill="white" stroke="#bfbfbf" points="416.5,-112.5 416.5,-131.5 485.5,-131.5 485.5,-112.5 416.5,-112.5"/>
<text text-anchor="middle" x="451" y="-119.5" font-family="Helvetica,sans-Serif" font-size="10.00">type_traits</text>
</a>
</g>
</g>
<!-- Node4&#45;&gt;Node12 -->
<g id="edge13" class="edge">
<title>Node4&#45;&gt;Node12</title>
<path fill="none" stroke="midnightblue" d="M689.17,-173.98C637.97,-163.02 549.31,-144.04 495.81,-132.59"/>
<polygon fill="midnightblue" stroke="midnightblue" points="496.44,-129.15 485.93,-130.47 494.97,-135.99 496.44,-129.15"/>
</g>
<!-- Node6 -->
<g id="node6" class="node">
<title>Node6</title>
<g id="a_node6"><a xlink:href="concepts_8h.html" target="_top" xlink:title=" ">
<polygon fill="white" stroke="red" points="496,-56.5 496,-75.5 616,-75.5 616,-56.5 496,-56.5"/>
<text text-anchor="middle" x="556" y="-63.5" font-family="Helvetica,sans-Serif" font-size="10.00">emlabcpp/concepts.h</text>
</a>
</g>
</g>
<!-- Node5&#45;&gt;Node6 -->
<g id="edge5" class="edge">
<title>Node5&#45;&gt;Node6</title>
<path fill="none" stroke="midnightblue" d="M673.82,-112.44C650.57,-103.48 613.85,-89.31 587.58,-79.18"/>
<polygon fill="midnightblue" stroke="midnightblue" points="588.67,-75.85 578.08,-75.52 586.15,-82.38 588.67,-75.85"/>
</g>
<!-- Node37 -->
<g id="node7" class="node">
<title>Node37</title>
<g id="a_node7"><a xlink:href="static__storage_8h.html" target="_top" xlink:title=" ">
<polygon fill="white" stroke="red" points="754,-56.5 754,-75.5 900,-75.5 900,-56.5 754,-56.5"/>
<text text-anchor="middle" x="827" y="-63.5" font-family="Helvetica,sans-Serif" font-size="10.00">emlabcpp/static_storage.h</text>
</a>
</g>
</g>
<!-- Node5&#45;&gt;Node37 -->
<g id="edge6" class="edge">
<title>Node5&#45;&gt;Node37</title>
<path fill="none" stroke="midnightblue" d="M716.76,-112.44C738.32,-103.56 772.26,-89.56 796.79,-79.45"/>
<polygon fill="midnightblue" stroke="midnightblue" points="798.43,-82.56 806.34,-75.52 795.76,-76.09 798.43,-82.56"/>
</g>
<!-- Node37&#45;&gt;Node40 -->
<g id="edge7" class="edge">
<title>Node37&#45;&gt;Node40</title>
<path fill="none" stroke="midnightblue" d="M835.26,-56.08C842.46,-48.3 853.11,-36.8 861.85,-27.37"/>
<polygon fill="midnightblue" stroke="midnightblue" points="864.67,-29.47 868.9,-19.75 859.53,-24.71 864.67,-29.47"/>
</g>
<!-- Node26&#45;&gt;Node6 -->
<g id="edge9" class="edge">
<title>Node26&#45;&gt;Node6</title>
<path fill="none" stroke="midnightblue" d="M556,-112.08C556,-105.01 556,-94.86 556,-85.99"/>
<polygon fill="midnightblue" stroke="midnightblue" points="559.5,-85.75 556,-75.75 552.5,-85.75 559.5,-85.75"/>
</g>
<!-- Node27 -->
<g id="node10" class="node">
<title>Node27</title>
<g id="a_node10"><a xlink:title=" ">
<polygon fill="white" stroke="#bfbfbf" points="348,-56.5 348,-75.5 392,-75.5 392,-56.5 348,-56.5"/>
<text text-anchor="middle" x="370" y="-63.5" font-family="Helvetica,sans-Serif" font-size="10.00">string</text>
</a>
</g>
</g>
<!-- Node26&#45;&gt;Node27 -->
<g id="edge10" class="edge">
<title>Node26&#45;&gt;Node27</title>
<path fill="none" stroke="midnightblue" d="M526.53,-112.44C492.5,-102.56 436.73,-86.37 401.76,-76.22"/>
<polygon fill="midnightblue" stroke="midnightblue" points="402.63,-72.83 392.05,-73.4 400.68,-79.55 402.63,-72.83"/>
</g>
<!-- Node41&#45;&gt;Node6 -->
<g id="edge16" class="edge">
<title>Node41&#45;&gt;Node6</title>
<path fill="none" stroke="midnightblue" d="M319.48,-173.9C336.06,-159.27 371.95,-129.41 407,-112 437.96,-96.63 475.18,-85.38 504.68,-77.98"/>
<polygon fill="midnightblue" stroke="midnightblue" points="505.88,-81.29 514.77,-75.52 504.22,-74.49 505.88,-81.29"/>
</g>
<!-- Node41&#45;&gt;Node27 -->
<g id="edge21" class="edge">
<title>Node41&#45;&gt;Node27</title>
<path fill="none" stroke="midnightblue" d="M306.12,-173.65C300.63,-159.65 292.36,-131.97 303,-112 310.66,-97.63 325.17,-87.04 338.73,-79.75"/>
<polygon fill="midnightblue" stroke="midnightblue" points="340.46,-82.8 347.87,-75.23 337.36,-76.52 340.46,-82.8"/>
</g>
<!-- Node41&#45;&gt;Node12 -->
<g id="edge22" class="edge">
<title>Node41&#45;&gt;Node12</title>
<path fill="none" stroke="midnightblue" d="M330.2,-173.98C354.07,-163.9 394,-147.05 421.37,-135.5"/>
<polygon fill="midnightblue" stroke="midnightblue" points="422.98,-138.62 430.84,-131.51 420.26,-132.17 422.98,-138.62"/>
</g>
<!-- Node42 -->
<g id="node15" class="node">
<title>Node42</title>
<g id="a_node15"><a xlink:title=" ">
<polygon fill="white" stroke="#bfbfbf" points="312.5,-112.5 312.5,-131.5 359.5,-131.5 359.5,-112.5 312.5,-112.5"/>
<text text-anchor="middle" x="336" y="-119.5" font-family="Helvetica,sans-Serif" font-size="10.00">cmath</text>
</a>
</g>
</g>
<!-- Node41&#45;&gt;Node42 -->
<g id="edge17" class="edge">
<title>Node41&#45;&gt;Node42</title>
<path fill="none" stroke="midnightblue" d="M313.73,-173.98C317.47,-165.4 323.36,-151.93 328.14,-140.98"/>
<polygon fill="midnightblue" stroke="midnightblue" points="331.48,-142.07 332.28,-131.51 325.07,-139.27 331.48,-142.07"/>
</g>
<!-- Node43 -->
<g id="node16" class="node">
<title>Node43</title>
<g id="a_node16"><a xlink:title=" ">
<polygon fill="white" stroke="#bfbfbf" points="70.5,-112.5 70.5,-131.5 135.5,-131.5 135.5,-112.5 70.5,-112.5"/>
<text text-anchor="middle" x="103" y="-119.5" font-family="Helvetica,sans-Serif" font-size="10.00">functional</text>
</a>
</g>
</g>
<!-- Node41&#45;&gt;Node43 -->
<g id="edge18" class="edge">
<title>Node41&#45;&gt;Node43</title>
<path fill="none" stroke="midnightblue" d="M280.34,-173.98C244.07,-163.55 182.54,-145.86 142.34,-134.31"/>
<polygon fill="midnightblue" stroke="midnightblue" points="143.18,-130.91 132.6,-131.51 141.25,-137.64 143.18,-130.91"/>
</g>
<!-- Node44 -->
<g id="node17" class="node">
<title>Node44</title>
<g id="a_node17"><a xlink:title=" ">
<polygon fill="white" stroke="#bfbfbf" points="154,-112.5 154,-131.5 198,-131.5 198,-112.5 154,-112.5"/>
<text text-anchor="middle" x="176" y="-119.5" font-family="Helvetica,sans-Serif" font-size="10.00">limits</text>
</a>
</g>
</g>
<!-- Node41&#45;&gt;Node44 -->
<g id="edge19" class="edge">
<title>Node41&#45;&gt;Node44</title>
<path fill="none" stroke="midnightblue" d="M290.8,-173.98C268.21,-163.95 230.5,-147.2 204.5,-135.65"/>
<polygon fill="midnightblue" stroke="midnightblue" points="205.72,-132.37 195.16,-131.51 202.88,-138.77 205.72,-132.37"/>
</g>
<!-- Node45 -->
<g id="node18" class="node">
<title>Node45</title>
<g id="a_node18"><a xlink:title=" ">
<polygon fill="white" stroke="#bfbfbf" points="216.5,-112.5 216.5,-131.5 255.5,-131.5 255.5,-112.5 216.5,-112.5"/>
<text text-anchor="middle" x="236" y="-119.5" font-family="Helvetica,sans-Serif" font-size="10.00">ratio</text>
</a>
</g>
</g>
<!-- Node41&#45;&gt;Node45 -->
<g id="edge20" class="edge">
<title>Node41&#45;&gt;Node45</title>
<path fill="none" stroke="midnightblue" d="M299.4,-173.98C287.75,-164.61 268.81,-149.38 254.67,-138.01"/>
<polygon fill="midnightblue" stroke="midnightblue" points="256.57,-135.05 246.58,-131.51 252.18,-140.5 256.57,-135.05"/>
</g>
<!-- Node46&#45;&gt;Node37 -->
<g id="edge25" class="edge">
<title>Node46&#45;&gt;Node37</title>
<path fill="none" stroke="midnightblue" d="M931.02,-168.31C928.23,-152.92 921.84,-128.36 908,-112 895.87,-97.66 877.95,-87.04 862.05,-79.73"/>
<polygon fill="midnightblue" stroke="midnightblue" points="863.05,-76.35 852.48,-75.6 860.28,-82.78 863.05,-76.35"/>
</g>
<!-- Node24 -->
<g id="node20" class="node">
<title>Node24</title>
<g id="a_node20"><a xlink:href="iterator_8h.html" target="_top" xlink:title=" ">
<polygon fill="white" stroke="red" points="994,-112.5 994,-131.5 1106,-131.5 1106,-112.5 994,-112.5"/>
<text text-anchor="middle" x="1050" y="-119.5" font-family="Helvetica,sans-Serif" font-size="10.00">emlabcpp/iterator.h</text>
</a>
</g>
</g>
<!-- Node46&#45;&gt;Node24 -->
<g id="edge24" class="edge">
<title>Node46&#45;&gt;Node24</title>
<path fill="none" stroke="midnightblue" d="M960.73,-168.4C979.83,-158.68 1005.06,-145.86 1023.82,-136.31"/>
<polygon fill="midnightblue" stroke="midnightblue" points="1025.65,-139.31 1032.98,-131.66 1022.48,-133.07 1025.65,-139.31"/>
</g>
</g>
</svg>
