<?xml version="1.0" encoding="UTF-8" standalone="no"?>
<!DOCTYPE svg PUBLIC "-//W3C//DTD SVG 1.1//EN"
 "http://www.w3.org/Graphics/SVG/1.1/DTD/svg11.dtd">
<!-- Generated by graphviz version 2.43.0 (0)
 -->
<!-- Title: include/emlabcpp/protocol/sequencer.h Pages: 1 -->
<svg width="916pt" height="162pt"
 viewBox="0.00 0.00 916.00 162.00" xmlns="http://www.w3.org/2000/svg" xmlns:xlink="http://www.w3.org/1999/xlink">
<g id="graph0" class="graph" transform="scale(1 1) rotate(0) translate(4 158)">
<title>include/emlabcpp/protocol/sequencer.h</title>
<polygon fill="white" stroke="transparent" points="-4,4 -4,-158 912,-158 912,4 -4,4"/>
<!-- Node1 -->
<g id="node1" class="node">
<title>Node1</title>
<g id="a_node1"><a xlink:title=" ">
<polygon fill="#bfbfbf" stroke="black" points="430,-123.5 430,-153.5 576,-153.5 576,-123.5 430,-123.5"/>
<text text-anchor="start" x="438" y="-141.5" font-family="Helvetica,sans-Serif" font-size="10.00">include/emlabcpp/protocol</text>
<text text-anchor="middle" x="503" y="-130.5" font-family="Helvetica,sans-Serif" font-size="10.00">/sequencer.h</text>
</a>
</g>
</g>
<!-- Node2 -->
<g id="node2" class="node">
<title>Node2</title>
<g id="a_node2"><a xlink:href="assert_8h.html" target="_top" xlink:title=" ">
<polygon fill="white" stroke="black" points="132.5,-62 132.5,-81 197.5,-81 197.5,-62 132.5,-62"/>
<text text-anchor="middle" x="165" y="-69" font-family="Helvetica,sans-Serif" font-size="10.00">../assert.h</text>
</a>
</g>
</g>
<!-- Node1&#45;&gt;Node2 -->
<g id="edge1" class="edge">
<title>Node1&#45;&gt;Node2</title>
<path fill="none" stroke="midnightblue" d="M430.08,-123.48C362.29,-110.44 263.64,-91.47 207.77,-80.73"/>
<polygon fill="midnightblue" stroke="midnightblue" points="208.34,-77.27 197.86,-78.82 207.02,-84.14 208.34,-77.27"/>
</g>
<!-- Node4 -->
<g id="node4" class="node">
<title>Node4</title>
<g id="a_node4"><a xlink:href="quantity_8h.html" target="_top" xlink:title=" ">
<polygon fill="white" stroke="black" points="324,-62 324,-81 398,-81 398,-62 324,-62"/>
<text text-anchor="middle" x="361" y="-69" font-family="Helvetica,sans-Serif" font-size="10.00">../quantity.h</text>
</a>
</g>
</g>
<!-- Node1&#45;&gt;Node4 -->
<g id="edge3" class="edge">
<title>Node1&#45;&gt;Node4</title>
<path fill="none" stroke="midnightblue" d="M472.19,-123.4C447.38,-112.04 412.82,-96.22 388.84,-85.24"/>
<polygon fill="midnightblue" stroke="midnightblue" points="390.13,-81.99 379.58,-81.01 387.22,-88.35 390.13,-81.99"/>
</g>
<!-- Node21 -->
<g id="node12" class="node">
<title>Node21</title>
<g id="a_node12"><a xlink:href="static__circular__buffer_8h.html" target="_top" xlink:title=" ">
<polygon fill="white" stroke="black" points="568,-56.5 568,-86.5 662,-86.5 662,-56.5 568,-56.5"/>
<text text-anchor="start" x="576" y="-74.5" font-family="Helvetica,sans-Serif" font-size="10.00">../static_circular</text>
<text text-anchor="middle" x="615" y="-63.5" font-family="Helvetica,sans-Serif" font-size="10.00">_buffer.h</text>
</a>
</g>
</g>
<!-- Node1&#45;&gt;Node21 -->
<g id="edge11" class="edge">
<title>Node1&#45;&gt;Node21</title>
<path fill="none" stroke="midnightblue" d="M527.3,-123.4C543.3,-114.11 564.44,-101.84 581.96,-91.67"/>
<polygon fill="midnightblue" stroke="midnightblue" points="583.85,-94.62 590.75,-86.58 580.34,-88.57 583.85,-94.62"/>
</g>
<!-- Node7 -->
<g id="node17" class="node">
<title>Node7</title>
<g id="a_node17"><a xlink:title=" ">
<polygon fill="white" stroke="#bfbfbf" points="680,-62 680,-81 722,-81 722,-62 680,-62"/>
<text text-anchor="middle" x="701" y="-69" font-family="Helvetica,sans-Serif" font-size="10.00">array</text>
</a>
</g>
</g>
<!-- Node1&#45;&gt;Node7 -->
<g id="edge17" class="edge">
<title>Node1&#45;&gt;Node7</title>
<path fill="none" stroke="midnightblue" d="M557.45,-123.49C590.7,-114.35 633.82,-101.47 671,-87 672.38,-86.46 673.79,-85.89 675.2,-85.29"/>
<polygon fill="midnightblue" stroke="midnightblue" points="676.74,-88.43 684.39,-81.11 673.84,-82.06 676.74,-88.43"/>
</g>
<!-- Node3 -->
<g id="node3" class="node">
<title>Node3</title>
<g id="a_node3"><a xlink:title=" ">
<polygon fill="white" stroke="#bfbfbf" points="0,-0.5 0,-19.5 52,-19.5 52,-0.5 0,-0.5"/>
<text text-anchor="middle" x="26" y="-7.5" font-family="Helvetica,sans-Serif" font-size="10.00">cassert</text>
</a>
</g>
</g>
<!-- Node2&#45;&gt;Node3 -->
<g id="edge2" class="edge">
<title>Node2&#45;&gt;Node3</title>
<path fill="none" stroke="midnightblue" d="M145.08,-61.98C121.55,-51.9 82.19,-35.05 55.21,-23.5"/>
<polygon fill="midnightblue" stroke="midnightblue" points="56.45,-20.23 45.88,-19.51 53.69,-26.66 56.45,-20.23"/>
</g>
<!-- Node5 -->
<g id="node5" class="node">
<title>Node5</title>
<g id="a_node5"><a xlink:href="concepts_8h.html" target="_top" xlink:title=" ">
<polygon fill="white" stroke="red" points="70.5,-0.5 70.5,-19.5 145.5,-19.5 145.5,-0.5 70.5,-0.5"/>
<text text-anchor="middle" x="108" y="-7.5" font-family="Helvetica,sans-Serif" font-size="10.00">./concepts.h</text>
</a>
</g>
</g>
<!-- Node4&#45;&gt;Node5 -->
<g id="edge4" class="edge">
<title>Node4&#45;&gt;Node5</title>
<path fill="none" stroke="midnightblue" d="M324.75,-61.98C279.85,-51.42 203.29,-33.41 154.22,-21.87"/>
<polygon fill="midnightblue" stroke="midnightblue" points="154.72,-18.39 144.18,-19.51 153.11,-25.21 154.72,-18.39"/>
</g>
<!-- Node16 -->
<g id="node6" class="node">
<title>Node16</title>
<g id="a_node6"><a xlink:title=" ">
<polygon fill="white" stroke="#bfbfbf" points="163.5,-0.5 163.5,-19.5 210.5,-19.5 210.5,-0.5 163.5,-0.5"/>
<text text-anchor="middle" x="187" y="-7.5" font-family="Helvetica,sans-Serif" font-size="10.00">cmath</text>
</a>
</g>
</g>
<!-- Node4&#45;&gt;Node16 -->
<g id="edge5" class="edge">
<title>Node4&#45;&gt;Node16</title>
<path fill="none" stroke="midnightblue" d="M336.07,-61.98C305.75,-51.61 254.45,-34.07 220.65,-22.51"/>
<polygon fill="midnightblue" stroke="midnightblue" points="221.36,-19.05 210.77,-19.13 219.1,-25.67 221.36,-19.05"/>
</g>
<!-- Node17 -->
<g id="node7" class="node">
<title>Node17</title>
<g id="a_node7"><a xlink:title=" ">
<polygon fill="white" stroke="#bfbfbf" points="228.5,-0.5 228.5,-19.5 293.5,-19.5 293.5,-0.5 228.5,-0.5"/>
<text text-anchor="middle" x="261" y="-7.5" font-family="Helvetica,sans-Serif" font-size="10.00">functional</text>
</a>
</g>
</g>
<!-- Node4&#45;&gt;Node17 -->
<g id="edge6" class="edge">
<title>Node4&#45;&gt;Node17</title>
<path fill="none" stroke="midnightblue" d="M346.67,-61.98C330.34,-52.25 303.4,-36.23 284.09,-24.74"/>
<polygon fill="midnightblue" stroke="midnightblue" points="285.68,-21.61 275.3,-19.51 282.11,-27.63 285.68,-21.61"/>
</g>
<!-- Node18 -->
<g id="node8" class="node">
<title>Node18</title>
<g id="a_node8"><a xlink:title=" ">
<polygon fill="white" stroke="#bfbfbf" points="519,-0.5 519,-19.5 563,-19.5 563,-0.5 519,-0.5"/>
<text text-anchor="middle" x="541" y="-7.5" font-family="Helvetica,sans-Serif" font-size="10.00">limits</text>
</a>
</g>
</g>
<!-- Node4&#45;&gt;Node18 -->
<g id="edge7" class="edge">
<title>Node4&#45;&gt;Node18</title>
<path fill="none" stroke="midnightblue" d="M386.79,-61.98C419.08,-51.3 474.39,-33.02 509.25,-21.49"/>
<polygon fill="midnightblue" stroke="midnightblue" points="510.54,-24.75 518.94,-18.29 508.35,-18.11 510.54,-24.75"/>
</g>
<!-- Node19 -->
<g id="node9" class="node">
<title>Node19</title>
<g id="a_node9"><a xlink:title=" ">
<polygon fill="white" stroke="#bfbfbf" points="311.5,-0.5 311.5,-19.5 350.5,-19.5 350.5,-0.5 311.5,-0.5"/>
<text text-anchor="middle" x="331" y="-7.5" font-family="Helvetica,sans-Serif" font-size="10.00">ratio</text>
</a>
</g>
</g>
<!-- Node4&#45;&gt;Node19 -->
<g id="edge8" class="edge">
<title>Node4&#45;&gt;Node19</title>
<path fill="none" stroke="midnightblue" d="M356.7,-61.98C352.34,-53.32 345.44,-39.65 339.9,-28.65"/>
<polygon fill="midnightblue" stroke="midnightblue" points="342.92,-26.86 335.29,-19.51 336.67,-30.01 342.92,-26.86"/>
</g>
<!-- Node20 -->
<g id="node10" class="node">
<title>Node20</title>
<g id="a_node10"><a xlink:title=" ">
<polygon fill="white" stroke="#bfbfbf" points="369,-0.5 369,-19.5 413,-19.5 413,-0.5 369,-0.5"/>
<text text-anchor="middle" x="391" y="-7.5" font-family="Helvetica,sans-Serif" font-size="10.00">string</text>
</a>
</g>
</g>
<!-- Node4&#45;&gt;Node20 -->
<g id="edge9" class="edge">
<title>Node4&#45;&gt;Node20</title>
<path fill="none" stroke="midnightblue" d="M365.3,-61.98C369.66,-53.32 376.56,-39.65 382.1,-28.65"/>
<polygon fill="midnightblue" stroke="midnightblue" points="385.33,-30.01 386.71,-19.51 379.08,-26.86 385.33,-30.01"/>
</g>
<!-- Node11 -->
<g id="node11" class="node">
<title>Node11</title>
<g id="a_node11"><a xlink:title=" ">
<polygon fill="white" stroke="#bfbfbf" points="431.5,-0.5 431.5,-19.5 500.5,-19.5 500.5,-0.5 431.5,-0.5"/>
<text text-anchor="middle" x="466" y="-7.5" font-family="Helvetica,sans-Serif" font-size="10.00">type_traits</text>
</a>
</g>
</g>
<!-- Node4&#45;&gt;Node11 -->
<g id="edge10" class="edge">
<title>Node4&#45;&gt;Node11</title>
<path fill="none" stroke="midnightblue" d="M376.04,-61.98C393.28,-52.21 421.74,-36.08 442.03,-24.58"/>
<polygon fill="midnightblue" stroke="midnightblue" points="444.01,-27.48 450.98,-19.51 440.56,-21.39 444.01,-27.48"/>
</g>
<!-- Node21&#45;&gt;Node18 -->
<g id="edge16" class="edge">
<title>Node21&#45;&gt;Node18</title>
<path fill="none" stroke="midnightblue" d="M597.46,-56.4C586.16,-47.31 571.46,-35.49 559.89,-26.19"/>
<polygon fill="midnightblue" stroke="midnightblue" points="561.75,-23.2 551.77,-19.66 557.37,-28.65 561.75,-23.2"/>
</g>
<!-- Node22 -->
<g id="node13" class="node">
<title>Node22</title>
<g id="a_node13"><a xlink:href="iterator_8h.html" target="_top" xlink:title=" ">
<polygon fill="white" stroke="red" points="581.5,-0.5 581.5,-19.5 648.5,-19.5 648.5,-0.5 581.5,-0.5"/>
<text text-anchor="middle" x="615" y="-7.5" font-family="Helvetica,sans-Serif" font-size="10.00">./iterator.h</text>
</a>
</g>
</g>
<!-- Node21&#45;&gt;Node22 -->
<g id="edge12" class="edge">
<title>Node21&#45;&gt;Node22</title>
<path fill="none" stroke="midnightblue" d="M615,-56.4C615,-48.47 615,-38.46 615,-29.86"/>
<polygon fill="midnightblue" stroke="midnightblue" points="618.5,-29.66 615,-19.66 611.5,-29.66 618.5,-29.66"/>
</g>
<!-- Node23 -->
<g id="node14" class="node">
<title>Node23</title>
<g id="a_node14"><a xlink:href="static__storage_8h.html" target="_top" xlink:title=" ">
<polygon fill="white" stroke="red" points="666.5,-0.5 666.5,-19.5 767.5,-19.5 767.5,-0.5 666.5,-0.5"/>
<text text-anchor="middle" x="717" y="-7.5" font-family="Helvetica,sans-Serif" font-size="10.00">./static_storage.h</text>
</a>
</g>
</g>
<!-- Node21&#45;&gt;Node23 -->
<g id="edge13" class="edge">
<title>Node21&#45;&gt;Node23</title>
<path fill="none" stroke="midnightblue" d="M639.17,-56.4C655.52,-46.86 677.01,-34.32 693.27,-24.84"/>
<polygon fill="midnightblue" stroke="midnightblue" points="695.28,-27.72 702.16,-19.66 691.76,-21.67 695.28,-27.72"/>
</g>
<!-- Node27 -->
<g id="node15" class="node">
<title>Node27</title>
<g id="a_node15"><a xlink:href="view_8h.html" target="_top" xlink:title=" ">
<polygon fill="white" stroke="red" points="786,-0.5 786,-19.5 840,-19.5 840,-0.5 786,-0.5"/>
<text text-anchor="middle" x="813" y="-7.5" font-family="Helvetica,sans-Serif" font-size="10.00">./view.h</text>
</a>
</g>
</g>
<!-- Node21&#45;&gt;Node27 -->
<g id="edge14" class="edge">
<title>Node21&#45;&gt;Node27</title>
<path fill="none" stroke="midnightblue" d="M661.67,-56.47C696.54,-46 743.57,-31.86 775.89,-22.15"/>
<polygon fill="midnightblue" stroke="midnightblue" points="777.27,-25.39 785.84,-19.16 775.25,-18.69 777.27,-25.39"/>
</g>
<!-- Node30 -->
<g id="node16" class="node">
<title>Node30</title>
<g id="a_node16"><a xlink:title=" ">
<polygon fill="white" stroke="#bfbfbf" points="858,-0.5 858,-19.5 908,-19.5 908,-0.5 858,-0.5"/>
<text text-anchor="middle" x="883" y="-7.5" font-family="Helvetica,sans-Serif" font-size="10.00">atomic</text>
</a>
</g>
</g>
<!-- Node21&#45;&gt;Node30 -->
<g id="edge15" class="edge">
<title>Node21&#45;&gt;Node30</title>
<path fill="none" stroke="midnightblue" d="M662.01,-58.13C665.05,-57.39 668.06,-56.68 671,-56 746.58,-38.59 768.69,-38.33 847.85,-20.16"/>
<polygon fill="midnightblue" stroke="midnightblue" points="848.84,-23.52 857.79,-17.85 847.26,-16.7 848.84,-23.52"/>
</g>
</g>
</svg>
