<?xml version="1.0" encoding="UTF-8" standalone="no"?>
<!DOCTYPE svg PUBLIC "-//W3C//DTD SVG 1.1//EN"
 "http://www.w3.org/Graphics/SVG/1.1/DTD/svg11.dtd">
<!-- Generated by graphviz version 2.43.0 (0)
 -->
<!-- Title: include/emlabcpp/protocol/sequencer.h Pages: 1 -->
<svg width="721pt" height="498pt"
 viewBox="0.00 0.00 720.50 498.00" xmlns="http://www.w3.org/2000/svg" xmlns:xlink="http://www.w3.org/1999/xlink">
<g id="graph0" class="graph" transform="scale(1 1) rotate(0) translate(4 494)">
<title>include/emlabcpp/protocol/sequencer.h</title>
<polygon fill="white" stroke="transparent" points="-4,4 -4,-494 716.5,-494 716.5,4 -4,4"/>
<!-- Node1 -->
<g id="node1" class="node">
<title>Node1</title>
<g id="a_node1"><a xlink:title=" ">
<polygon fill="#bfbfbf" stroke="black" points="148.5,-459.5 148.5,-489.5 294.5,-489.5 294.5,-459.5 148.5,-459.5"/>
<text text-anchor="start" x="156.5" y="-477.5" font-family="Helvetica,sans-Serif" font-size="10.00">include/emlabcpp/protocol</text>
<text text-anchor="middle" x="221.5" y="-466.5" font-family="Helvetica,sans-Serif" font-size="10.00">/sequencer.h</text>
</a>
</g>
</g>
<!-- Node2 -->
<g id="node2" class="node">
<title>Node2</title>
<g id="a_node2"><a xlink:href="assert_8h.html" target="_top" xlink:title=" ">
<polygon fill="white" stroke="black" points="0,-403.5 0,-422.5 107,-422.5 107,-403.5 0,-403.5"/>
<text text-anchor="middle" x="53.5" y="-410.5" font-family="Helvetica,sans-Serif" font-size="10.00">emlabcpp/assert.h</text>
</a>
</g>
</g>
<!-- Node1&#45;&gt;Node2 -->
<g id="edge1" class="edge">
<title>Node1&#45;&gt;Node2</title>
<path fill="none" stroke="midnightblue" d="M181.69,-459.4C153,-449.24 114.69,-435.67 87.44,-426.02"/>
<polygon fill="midnightblue" stroke="midnightblue" points="88.54,-422.7 77.95,-422.66 86.2,-429.3 88.54,-422.7"/>
</g>
<!-- Node4 -->
<g id="node4" class="node">
<title>Node4</title>
<g id="a_node4"><a xlink:href="either_8h.html" target="_top" xlink:title=" ">
<polygon fill="white" stroke="black" points="408.5,-403.5 408.5,-422.5 512.5,-422.5 512.5,-403.5 408.5,-403.5"/>
<text text-anchor="middle" x="460.5" y="-410.5" font-family="Helvetica,sans-Serif" font-size="10.00">emlabcpp/either.h</text>
</a>
</g>
</g>
<!-- Node1&#45;&gt;Node4 -->
<g id="edge3" class="edge">
<title>Node1&#45;&gt;Node4</title>
<path fill="none" stroke="midnightblue" d="M277.84,-459.47C320.15,-448.94 377.29,-434.72 416.32,-425"/>
<polygon fill="midnightblue" stroke="midnightblue" points="417.47,-428.32 426.33,-422.51 415.78,-421.53 417.47,-428.32"/>
</g>
<!-- Node8 -->
<g id="node8" class="node">
<title>Node8</title>
<g id="a_node8"><a xlink:title=" ">
<polygon fill="white" stroke="#bfbfbf" points="103.5,-0.5 103.5,-19.5 145.5,-19.5 145.5,-0.5 103.5,-0.5"/>
<text text-anchor="middle" x="124.5" y="-7.5" font-family="Helvetica,sans-Serif" font-size="10.00">array</text>
</a>
</g>
</g>
<!-- Node1&#45;&gt;Node8 -->
<g id="edge36" class="edge">
<title>Node1&#45;&gt;Node8</title>
<path fill="none" stroke="midnightblue" d="M202.41,-459.42C177.08,-438.95 135.5,-398.37 135.5,-352.5 135.5,-352.5 135.5,-352.5 135.5,-121 135.5,-88.79 130.77,-51.53 127.52,-29.69"/>
<polygon fill="midnightblue" stroke="midnightblue" points="130.93,-28.87 125.94,-19.53 124.01,-29.95 130.93,-28.87"/>
</g>
<!-- Node23 -->
<g id="node23" class="node">
<title>Node23</title>
<g id="a_node23"><a xlink:href="static__circular__buffer_8h.html" target="_top" xlink:title=" ">
<polygon fill="white" stroke="black" points="240.5,-336.5 240.5,-366.5 376.5,-366.5 376.5,-336.5 240.5,-336.5"/>
<text text-anchor="start" x="248.5" y="-354.5" font-family="Helvetica,sans-Serif" font-size="10.00">emlabcpp/static_circular</text>
<text text-anchor="middle" x="308.5" y="-343.5" font-family="Helvetica,sans-Serif" font-size="10.00">_buffer.h</text>
</a>
</g>
</g>
<!-- Node1&#45;&gt;Node23 -->
<g id="edge29" class="edge">
<title>Node1&#45;&gt;Node23</title>
<path fill="none" stroke="midnightblue" d="M231.82,-459.14C246.73,-438.4 274.45,-399.85 292.16,-375.22"/>
<polygon fill="midnightblue" stroke="midnightblue" points="295.2,-377 298.19,-366.84 289.51,-372.91 295.2,-377"/>
</g>
<!-- Node3 -->
<g id="node3" class="node">
<title>Node3</title>
<g id="a_node3"><a xlink:title=" ">
<polygon fill="white" stroke="#bfbfbf" points="27.5,-342 27.5,-361 79.5,-361 79.5,-342 27.5,-342"/>
<text text-anchor="middle" x="53.5" y="-349" font-family="Helvetica,sans-Serif" font-size="10.00">cassert</text>
</a>
</g>
</g>
<!-- Node2&#45;&gt;Node3 -->
<g id="edge2" class="edge">
<title>Node2&#45;&gt;Node3</title>
<path fill="none" stroke="midnightblue" d="M53.5,-403.48C53.5,-395.08 53.5,-381.98 53.5,-371.16"/>
<polygon fill="midnightblue" stroke="midnightblue" points="57,-371.01 53.5,-361.01 50,-371.01 57,-371.01"/>
</g>
<!-- Node5 -->
<g id="node5" class="node">
<title>Node5</title>
<g id="a_node5"><a xlink:href="static__vector_8h.html" target="_top" xlink:title=" ">
<polygon fill="white" stroke="black" points="507,-342 507,-361 646,-361 646,-342 507,-342"/>
<text text-anchor="middle" x="576.5" y="-349" font-family="Helvetica,sans-Serif" font-size="10.00">emlabcpp/static_vector.h</text>
</a>
</g>
</g>
<!-- Node4&#45;&gt;Node5 -->
<g id="edge4" class="edge">
<title>Node4&#45;&gt;Node5</title>
<path fill="none" stroke="midnightblue" d="M477.12,-403.48C496.42,-393.58 528.46,-377.14 550.93,-365.62"/>
<polygon fill="midnightblue" stroke="midnightblue" points="552.61,-368.69 559.91,-361.01 549.42,-362.46 552.61,-368.69"/>
</g>
<!-- Node11 -->
<g id="node11" class="node">
<title>Node11</title>
<g id="a_node11"><a xlink:title=" ">
<polygon fill="white" stroke="#bfbfbf" points="164,-0.5 164,-19.5 205,-19.5 205,-0.5 164,-0.5"/>
<text text-anchor="middle" x="184.5" y="-7.5" font-family="Helvetica,sans-Serif" font-size="10.00">tuple</text>
</a>
</g>
</g>
<!-- Node4&#45;&gt;Node11 -->
<g id="edge26" class="edge">
<title>Node4&#45;&gt;Node11</title>
<path fill="none" stroke="midnightblue" d="M408.19,-412.38C325.41,-409.93 173.5,-391.71 173.5,-291 173.5,-291 173.5,-291 173.5,-121 173.5,-88.79 178.23,-51.53 181.48,-29.69"/>
<polygon fill="midnightblue" stroke="midnightblue" points="184.99,-29.95 183.06,-19.53 178.07,-28.87 184.99,-29.95"/>
</g>
<!-- Node12 -->
<g id="node12" class="node">
<title>Node12</title>
<g id="a_node12"><a xlink:title=" ">
<polygon fill="white" stroke="#bfbfbf" points="513,-0.5 513,-19.5 582,-19.5 582,-0.5 513,-0.5"/>
<text text-anchor="middle" x="547.5" y="-7.5" font-family="Helvetica,sans-Serif" font-size="10.00">type_traits</text>
</a>
</g>
</g>
<!-- Node4&#45;&gt;Node12 -->
<g id="edge27" class="edge">
<title>Node4&#45;&gt;Node12</title>
<path fill="none" stroke="midnightblue" d="M512.86,-405.8C566.67,-398.57 645.95,-385.22 670.5,-367 701.49,-344 712.5,-329.59 712.5,-291 712.5,-291 712.5,-291 712.5,-121 712.5,-62.86 640.71,-33.56 591.83,-20.35"/>
<polygon fill="midnightblue" stroke="midnightblue" points="592.65,-16.95 582.09,-17.84 590.9,-23.72 592.65,-16.95"/>
</g>
<!-- Node17 -->
<g id="node17" class="node">
<title>Node17</title>
<g id="a_node17"><a xlink:href="types_8h.html" target="_top" xlink:title=" ">
<polygon fill="white" stroke="black" points="359.5,-168.5 359.5,-187.5 463.5,-187.5 463.5,-168.5 359.5,-168.5"/>
<text text-anchor="middle" x="411.5" y="-175.5" font-family="Helvetica,sans-Serif" font-size="10.00">emlabcpp/types.h</text>
</a>
</g>
</g>
<!-- Node4&#45;&gt;Node17 -->
<g id="edge24" class="edge">
<title>Node4&#45;&gt;Node17</title>
<path fill="none" stroke="midnightblue" d="M512.69,-411.66C578.5,-408.82 680.27,-395.06 655.5,-336 628.03,-270.5 601.87,-261.42 541.5,-224 516.5,-208.5 485.47,-197.5 459.99,-190.26"/>
<polygon fill="midnightblue" stroke="midnightblue" points="460.74,-186.83 450.17,-187.57 458.89,-193.59 460.74,-186.83"/>
</g>
<!-- Node21 -->
<g id="node21" class="node">
<title>Node21</title>
<g id="a_node21"><a xlink:title=" ">
<polygon fill="white" stroke="#bfbfbf" points="395,-280.5 395,-299.5 440,-299.5 440,-280.5 395,-280.5"/>
<text text-anchor="middle" x="417.5" y="-287.5" font-family="Helvetica,sans-Serif" font-size="10.00">utility</text>
</a>
</g>
</g>
<!-- Node4&#45;&gt;Node21 -->
<g id="edge28" class="edge">
<title>Node4&#45;&gt;Node21</title>
<path fill="none" stroke="midnightblue" d="M450.68,-403.46C441.85,-395.14 429.4,-381.63 423.5,-367 416.09,-348.63 415.29,-325.76 415.91,-309.93"/>
<polygon fill="midnightblue" stroke="midnightblue" points="419.41,-310.02 416.53,-299.82 412.42,-309.58 419.41,-310.02"/>
</g>
<!-- Node22 -->
<g id="node22" class="node">
<title>Node22</title>
<g id="a_node22"><a xlink:title=" ">
<polygon fill="white" stroke="#bfbfbf" points="432.5,-342 432.5,-361 488.5,-361 488.5,-342 432.5,-342"/>
<text text-anchor="middle" x="460.5" y="-349" font-family="Helvetica,sans-Serif" font-size="10.00">optional</text>
</a>
</g>
</g>
<!-- Node4&#45;&gt;Node22 -->
<g id="edge25" class="edge">
<title>Node4&#45;&gt;Node22</title>
<path fill="none" stroke="midnightblue" d="M460.5,-403.48C460.5,-395.08 460.5,-381.98 460.5,-371.16"/>
<polygon fill="midnightblue" stroke="midnightblue" points="464,-371.01 460.5,-361.01 457,-371.01 464,-371.01"/>
</g>
<!-- Node6 -->
<g id="node6" class="node">
<title>Node6</title>
<g id="a_node6"><a xlink:href="concepts_8h.html" target="_top" xlink:title=" ">
<polygon fill="white" stroke="black" points="451.5,-112.5 451.5,-131.5 571.5,-131.5 571.5,-112.5 451.5,-112.5"/>
<text text-anchor="middle" x="511.5" y="-119.5" font-family="Helvetica,sans-Serif" font-size="10.00">emlabcpp/concepts.h</text>
</a>
</g>
</g>
<!-- Node5&#45;&gt;Node6 -->
<g id="edge5" class="edge">
<title>Node5&#45;&gt;Node6</title>
<path fill="none" stroke="midnightblue" d="M578.24,-341.71C580.6,-328.25 584.02,-301.83 579.5,-280 568.39,-226.4 538.04,-168.62 521.91,-140.45"/>
<polygon fill="midnightblue" stroke="midnightblue" points="524.91,-138.65 516.85,-131.77 518.86,-142.17 524.91,-138.65"/>
</g>
<!-- Node5&#45;&gt;Node12 -->
<g id="edge22" class="edge">
<title>Node5&#45;&gt;Node12</title>
<path fill="none" stroke="midnightblue" d="M584.84,-341.74C601.33,-323.46 636.5,-279.29 636.5,-235 636.5,-235 636.5,-235 636.5,-121 636.5,-78.85 596.51,-43.78 570.14,-25.24"/>
<polygon fill="midnightblue" stroke="midnightblue" points="572.04,-22.3 561.8,-19.6 568.12,-28.1 572.04,-22.3"/>
</g>
<!-- Node15 -->
<g id="node15" class="node">
<title>Node15</title>
<g id="a_node15"><a xlink:href="iterator_8h.html" target="_top" xlink:title=" ">
<polygon fill="white" stroke="black" points="458.5,-280.5 458.5,-299.5 570.5,-299.5 570.5,-280.5 458.5,-280.5"/>
<text text-anchor="middle" x="514.5" y="-287.5" font-family="Helvetica,sans-Serif" font-size="10.00">emlabcpp/iterator.h</text>
</a>
</g>
</g>
<!-- Node5&#45;&gt;Node15 -->
<g id="edge14" class="edge">
<title>Node5&#45;&gt;Node15</title>
<path fill="none" stroke="midnightblue" d="M567.62,-341.98C558.04,-332.78 542.59,-317.96 530.81,-306.66"/>
<polygon fill="midnightblue" stroke="midnightblue" points="533.01,-303.91 523.37,-299.51 528.16,-308.96 533.01,-303.91"/>
</g>
<!-- Node20 -->
<g id="node20" class="node">
<title>Node20</title>
<g id="a_node20"><a xlink:title=" ">
<polygon fill="white" stroke="#bfbfbf" points="340,-280.5 340,-299.5 377,-299.5 377,-280.5 340,-280.5"/>
<text text-anchor="middle" x="358.5" y="-287.5" font-family="Helvetica,sans-Serif" font-size="10.00">new</text>
</a>
</g>
</g>
<!-- Node5&#45;&gt;Node20 -->
<g id="edge21" class="edge">
<title>Node5&#45;&gt;Node20</title>
<path fill="none" stroke="midnightblue" d="M542.38,-341.99C506.17,-332.84 447.09,-317.56 386.82,-299.98"/>
<polygon fill="midnightblue" stroke="midnightblue" points="387.72,-296.59 377.14,-297.14 385.75,-303.31 387.72,-296.59"/>
</g>
<!-- Node5&#45;&gt;Node21 -->
<g id="edge23" class="edge">
<title>Node5&#45;&gt;Node21</title>
<path fill="none" stroke="midnightblue" d="M553.72,-341.98C526.45,-331.77 480.59,-314.61 449.7,-303.05"/>
<polygon fill="midnightblue" stroke="midnightblue" points="450.83,-299.74 440.24,-299.51 448.38,-306.29 450.83,-299.74"/>
</g>
<!-- Node7 -->
<g id="node7" class="node">
<title>Node7</title>
<g id="a_node7"><a xlink:href="types_2base_8h.html" target="_top" xlink:title=" ">
<polygon fill="white" stroke="black" points="239.5,-56.5 239.5,-75.5 369.5,-75.5 369.5,-56.5 239.5,-56.5"/>
<text text-anchor="middle" x="304.5" y="-63.5" font-family="Helvetica,sans-Serif" font-size="10.00">emlabcpp/types/base.h</text>
</a>
</g>
</g>
<!-- Node6&#45;&gt;Node7 -->
<g id="edge6" class="edge">
<title>Node6&#45;&gt;Node7</title>
<path fill="none" stroke="midnightblue" d="M478.7,-112.44C443.12,-103.16 386.19,-88.31 347.15,-78.13"/>
<polygon fill="midnightblue" stroke="midnightblue" points="347.71,-74.65 337.15,-75.52 345.94,-81.43 347.71,-74.65"/>
</g>
<!-- Node14 -->
<g id="node14" class="node">
<title>Node14</title>
<g id="a_node14"><a xlink:title=" ">
<polygon fill="white" stroke="#bfbfbf" points="481.5,-56.5 481.5,-75.5 541.5,-75.5 541.5,-56.5 481.5,-56.5"/>
<text text-anchor="middle" x="511.5" y="-63.5" font-family="Helvetica,sans-Serif" font-size="10.00">concepts</text>
</a>
</g>
</g>
<!-- Node6&#45;&gt;Node14 -->
<g id="edge13" class="edge">
<title>Node6&#45;&gt;Node14</title>
<path fill="none" stroke="midnightblue" d="M511.5,-112.08C511.5,-105.01 511.5,-94.86 511.5,-85.99"/>
<polygon fill="midnightblue" stroke="midnightblue" points="515,-85.75 511.5,-75.75 508,-85.75 515,-85.75"/>
</g>
<!-- Node7&#45;&gt;Node8 -->
<g id="edge7" class="edge">
<title>Node7&#45;&gt;Node8</title>
<path fill="none" stroke="midnightblue" d="M275.98,-56.44C243.1,-46.58 189.25,-30.42 155.39,-20.27"/>
<polygon fill="midnightblue" stroke="midnightblue" points="156.16,-16.84 145.58,-17.32 154.15,-23.55 156.16,-16.84"/>
</g>
<!-- Node9 -->
<g id="node9" class="node">
<title>Node9</title>
<g id="a_node9"><a xlink:title=" ">
<polygon fill="white" stroke="#bfbfbf" points="223.5,-0.5 223.5,-19.5 273.5,-19.5 273.5,-0.5 223.5,-0.5"/>
<text text-anchor="middle" x="248.5" y="-7.5" font-family="Helvetica,sans-Serif" font-size="10.00">cstdint</text>
</a>
</g>
</g>
<!-- Node7&#45;&gt;Node9 -->
<g id="edge8" class="edge">
<title>Node7&#45;&gt;Node9</title>
<path fill="none" stroke="midnightblue" d="M295.5,-56.32C287.31,-48.42 274.99,-36.55 265.03,-26.94"/>
<polygon fill="midnightblue" stroke="midnightblue" points="267.29,-24.26 257.66,-19.83 262.43,-29.29 267.29,-24.26"/>
</g>
<!-- Node10 -->
<g id="node10" class="node">
<title>Node10</title>
<g id="a_node10"><a xlink:title=" ">
<polygon fill="white" stroke="#bfbfbf" points="291.5,-0.5 291.5,-19.5 341.5,-19.5 341.5,-0.5 291.5,-0.5"/>
<text text-anchor="middle" x="316.5" y="-7.5" font-family="Helvetica,sans-Serif" font-size="10.00">ranges</text>
</a>
</g>
</g>
<!-- Node7&#45;&gt;Node10 -->
<g id="edge9" class="edge">
<title>Node7&#45;&gt;Node10</title>
<path fill="none" stroke="midnightblue" d="M306.48,-56.08C308.07,-48.93 310.36,-38.64 312.35,-29.69"/>
<polygon fill="midnightblue" stroke="midnightblue" points="315.8,-30.27 314.56,-19.75 308.97,-28.75 315.8,-30.27"/>
</g>
<!-- Node7&#45;&gt;Node11 -->
<g id="edge10" class="edge">
<title>Node7&#45;&gt;Node11</title>
<path fill="none" stroke="midnightblue" d="M285.49,-56.44C265.91,-47.64 235.19,-33.81 212.77,-23.72"/>
<polygon fill="midnightblue" stroke="midnightblue" points="213.98,-20.43 203.43,-19.52 211.11,-26.81 213.98,-20.43"/>
</g>
<!-- Node7&#45;&gt;Node12 -->
<g id="edge11" class="edge">
<title>Node7&#45;&gt;Node12</title>
<path fill="none" stroke="midnightblue" d="M343,-56.44C386.43,-46.79 456.94,-31.12 502.77,-20.94"/>
<polygon fill="midnightblue" stroke="midnightblue" points="503.72,-24.32 512.72,-18.73 502.2,-17.48 503.72,-24.32"/>
</g>
<!-- Node13 -->
<g id="node13" class="node">
<title>Node13</title>
<g id="a_node13"><a xlink:title=" ">
<polygon fill="white" stroke="#bfbfbf" points="360,-0.5 360,-19.5 407,-19.5 407,-0.5 360,-0.5"/>
<text text-anchor="middle" x="383.5" y="-7.5" font-family="Helvetica,sans-Serif" font-size="10.00">vector</text>
</a>
</g>
</g>
<!-- Node7&#45;&gt;Node13 -->
<g id="edge12" class="edge">
<title>Node7&#45;&gt;Node13</title>
<path fill="none" stroke="midnightblue" d="M317.19,-56.32C329.4,-47.98 348.08,-35.21 362.5,-25.35"/>
<polygon fill="midnightblue" stroke="midnightblue" points="364.56,-28.19 370.84,-19.65 360.61,-22.41 364.56,-28.19"/>
</g>
<!-- Node16 -->
<g id="node16" class="node">
<title>Node16</title>
<g id="a_node16"><a xlink:href="view_8h.html" target="_top" xlink:title=" ">
<polygon fill="white" stroke="black" points="362,-224.5 362,-243.5 461,-243.5 461,-224.5 362,-224.5"/>
<text text-anchor="middle" x="411.5" y="-231.5" font-family="Helvetica,sans-Serif" font-size="10.00">emlabcpp/view.h</text>
</a>
</g>
</g>
<!-- Node15&#45;&gt;Node16 -->
<g id="edge15" class="edge">
<title>Node15&#45;&gt;Node16</title>
<path fill="none" stroke="midnightblue" d="M497.95,-280.32C481.51,-271.7 456.07,-258.36 437.03,-248.39"/>
<polygon fill="midnightblue" stroke="midnightblue" points="438.49,-245.2 428.01,-243.65 435.24,-251.4 438.49,-245.2"/>
</g>
<!-- Node19 -->
<g id="node19" class="node">
<title>Node19</title>
<g id="a_node19"><a xlink:title=" ">
<polygon fill="white" stroke="#bfbfbf" points="479,-224.5 479,-243.5 532,-243.5 532,-224.5 479,-224.5"/>
<text text-anchor="middle" x="505.5" y="-231.5" font-family="Helvetica,sans-Serif" font-size="10.00">iterator</text>
</a>
</g>
</g>
<!-- Node15&#45;&gt;Node19 -->
<g id="edge20" class="edge">
<title>Node15&#45;&gt;Node19</title>
<path fill="none" stroke="midnightblue" d="M513.01,-280.08C511.82,-272.93 510.11,-262.64 508.62,-253.69"/>
<polygon fill="midnightblue" stroke="midnightblue" points="512.05,-253.04 506.96,-243.75 505.15,-254.19 512.05,-253.04"/>
</g>
<!-- Node16&#45;&gt;Node17 -->
<g id="edge16" class="edge">
<title>Node16&#45;&gt;Node17</title>
<path fill="none" stroke="midnightblue" d="M411.5,-224.08C411.5,-217.01 411.5,-206.86 411.5,-197.99"/>
<polygon fill="midnightblue" stroke="midnightblue" points="415,-197.75 411.5,-187.75 408,-197.75 415,-197.75"/>
</g>
<!-- Node17&#45;&gt;Node6 -->
<g id="edge17" class="edge">
<title>Node17&#45;&gt;Node6</title>
<path fill="none" stroke="midnightblue" d="M427.57,-168.32C443.46,-159.74 468.01,-146.49 486.46,-136.52"/>
<polygon fill="midnightblue" stroke="midnightblue" points="488.34,-139.49 495.47,-131.65 485.01,-133.33 488.34,-139.49"/>
</g>
<!-- Node17&#45;&gt;Node7 -->
<g id="edge18" class="edge">
<title>Node17&#45;&gt;Node7</title>
<path fill="none" stroke="midnightblue" d="M403.1,-168.37C385.21,-149.97 343.09,-106.67 320.11,-83.05"/>
<polygon fill="midnightblue" stroke="midnightblue" points="322.34,-80.32 312.86,-75.59 317.32,-85.2 322.34,-80.32"/>
</g>
<!-- Node18 -->
<g id="node18" class="node">
<title>Node18</title>
<g id="a_node18"><a xlink:title=" ">
<polygon fill="white" stroke="#bfbfbf" points="389.5,-112.5 389.5,-131.5 433.5,-131.5 433.5,-112.5 389.5,-112.5"/>
<text text-anchor="middle" x="411.5" y="-119.5" font-family="Helvetica,sans-Serif" font-size="10.00">string</text>
</a>
</g>
</g>
<!-- Node17&#45;&gt;Node18 -->
<g id="edge19" class="edge">
<title>Node17&#45;&gt;Node18</title>
<path fill="none" stroke="midnightblue" d="M411.5,-168.08C411.5,-161.01 411.5,-150.86 411.5,-141.99"/>
<polygon fill="midnightblue" stroke="midnightblue" points="415,-141.75 411.5,-131.75 408,-141.75 415,-141.75"/>
</g>
<!-- Node23&#45;&gt;Node9 -->
<g id="edge31" class="edge">
<title>Node23&#45;&gt;Node9</title>
<path fill="none" stroke="midnightblue" d="M276.42,-336.45C260.52,-327.99 242.26,-315.78 230.5,-300 212.52,-275.86 211.5,-265.1 211.5,-235 211.5,-235 211.5,-235 211.5,-121 211.5,-86.89 227.68,-49.79 238.64,-28.57"/>
<polygon fill="midnightblue" stroke="midnightblue" points="241.86,-29.98 243.51,-19.51 235.69,-26.66 241.86,-29.98"/>
</g>
<!-- Node23&#45;&gt;Node12 -->
<g id="edge34" class="edge">
<title>Node23&#45;&gt;Node12</title>
<path fill="none" stroke="midnightblue" d="M308.6,-336.27C309.65,-295.63 318.21,-177.81 380.5,-112 419.78,-70.5 479.78,-39.85 516.16,-23.76"/>
<polygon fill="midnightblue" stroke="midnightblue" points="517.96,-26.79 525.75,-19.61 515.18,-20.37 517.96,-26.79"/>
</g>
<!-- Node23&#45;&gt;Node15 -->
<g id="edge30" class="edge">
<title>Node23&#45;&gt;Node15</title>
<path fill="none" stroke="midnightblue" d="M357.06,-336.47C393.06,-326.08 441.52,-312.08 475.13,-302.37"/>
<polygon fill="midnightblue" stroke="midnightblue" points="476.41,-305.64 485.05,-299.51 474.47,-298.92 476.41,-305.64"/>
</g>
<!-- Node23&#45;&gt;Node20 -->
<g id="edge33" class="edge">
<title>Node23&#45;&gt;Node20</title>
<path fill="none" stroke="midnightblue" d="M320.35,-336.4C327.61,-327.75 336.95,-316.64 344.57,-307.58"/>
<polygon fill="midnightblue" stroke="midnightblue" points="347.47,-309.57 351.22,-299.66 342.11,-305.06 347.47,-309.57"/>
</g>
<!-- Node23&#45;&gt;Node21 -->
<g id="edge35" class="edge">
<title>Node23&#45;&gt;Node21</title>
<path fill="none" stroke="midnightblue" d="M334.33,-336.4C351.97,-326.77 375.2,-314.09 392.63,-304.58"/>
<polygon fill="midnightblue" stroke="midnightblue" points="394.54,-307.52 401.64,-299.66 391.19,-301.38 394.54,-307.52"/>
</g>
<!-- Node24 -->
<g id="node24" class="node">
<title>Node24</title>
<g id="a_node24"><a xlink:title=" ">
<polygon fill="white" stroke="#bfbfbf" points="239.5,-280.5 239.5,-299.5 283.5,-299.5 283.5,-280.5 239.5,-280.5"/>
<text text-anchor="middle" x="261.5" y="-287.5" font-family="Helvetica,sans-Serif" font-size="10.00">limits</text>
</a>
</g>
</g>
<!-- Node23&#45;&gt;Node24 -->
<g id="edge32" class="edge">
<title>Node23&#45;&gt;Node24</title>
<path fill="none" stroke="midnightblue" d="M297.36,-336.4C290.53,-327.75 281.76,-316.64 274.59,-307.58"/>
<polygon fill="midnightblue" stroke="midnightblue" points="277.28,-305.34 268.34,-299.66 271.79,-309.67 277.28,-305.34"/>
</g>
</g>
</svg>
