<?xml version="1.0" encoding="UTF-8" standalone="no"?>
<!DOCTYPE svg PUBLIC "-//W3C//DTD SVG 1.1//EN"
 "http://www.w3.org/Graphics/SVG/1.1/DTD/svg11.dtd">
<!-- Generated by graphviz version 2.43.0 (0)
 -->
<!-- Title: include/emlabcpp/protocol/sequencer.h Pages: 1 -->
<svg width="668pt" height="441pt"
 viewBox="0.00 0.00 668.00 441.00" xmlns="http://www.w3.org/2000/svg" xmlns:xlink="http://www.w3.org/1999/xlink">
<g id="graph0" class="graph" transform="scale(1 1) rotate(0) translate(4 437)">
<title>include/emlabcpp/protocol/sequencer.h</title>
<polygon fill="white" stroke="transparent" points="-4,4 -4,-437 664,-437 664,4 -4,4"/>
<!-- Node1 -->
<g id="node1" class="node">
<title>Node1</title>
<g id="a_node1"><a xlink:title=" ">
<polygon fill="#bfbfbf" stroke="black" points="259.5,-402.5 259.5,-432.5 405.5,-432.5 405.5,-402.5 259.5,-402.5"/>
<text text-anchor="start" x="267.5" y="-420.5" font-family="Helvetica,sans-Serif" font-size="10.00">include/emlabcpp/protocol</text>
<text text-anchor="middle" x="332.5" y="-409.5" font-family="Helvetica,sans-Serif" font-size="10.00">/sequencer.h</text>
</a>
</g>
</g>
<!-- Node2 -->
<g id="node2" class="node">
<title>Node2</title>
<g id="a_node2"><a xlink:href="packet_8h.html" target="_top" xlink:title=" ">
<polygon fill="white" stroke="black" points="259.5,-335.5 259.5,-365.5 405.5,-365.5 405.5,-335.5 259.5,-335.5"/>
<text text-anchor="start" x="267.5" y="-353.5" font-family="Helvetica,sans-Serif" font-size="10.00">include/emlabcpp/protocol</text>
<text text-anchor="middle" x="332.5" y="-342.5" font-family="Helvetica,sans-Serif" font-size="10.00">/packet.h</text>
</a>
</g>
</g>
<!-- Node1&#45;&gt;Node2 -->
<g id="edge1" class="edge">
<title>Node1&#45;&gt;Node2</title>
<path fill="none" stroke="midnightblue" d="M332.5,-392.11C332.5,-383.15 332.5,-373.32 332.5,-365.58"/>
<polygon fill="midnightblue" stroke="midnightblue" points="329,-392.4 332.5,-402.4 336,-392.4 329,-392.4"/>
</g>
<!-- Node3 -->
<g id="node3" class="node">
<title>Node3</title>
<g id="a_node3"><a xlink:href="experimental_2testing_2protocol_8h.html" target="_top" xlink:title=" ">
<polygon fill="white" stroke="black" points="190,-268.5 190,-298.5 361,-298.5 361,-268.5 190,-268.5"/>
<text text-anchor="start" x="198" y="-286.5" font-family="Helvetica,sans-Serif" font-size="10.00">include/emlabcpp/experimental</text>
<text text-anchor="middle" x="275.5" y="-275.5" font-family="Helvetica,sans-Serif" font-size="10.00">/testing/protocol.h</text>
</a>
</g>
</g>
<!-- Node2&#45;&gt;Node3 -->
<g id="edge2" class="edge">
<title>Node2&#45;&gt;Node3</title>
<path fill="none" stroke="midnightblue" d="M313.41,-327.74C304.98,-318.12 295.31,-307.09 287.84,-298.58"/>
<polygon fill="midnightblue" stroke="midnightblue" points="310.91,-330.18 320.13,-335.4 316.17,-325.57 310.91,-330.18"/>
</g>
<!-- Node12 -->
<g id="node12" class="node">
<title>Node12</title>
<g id="a_node12"><a xlink:href="packet__handler_8h.html" target="_top" xlink:title=" ">
<polygon fill="white" stroke="black" points="512.5,-201.5 512.5,-231.5 658.5,-231.5 658.5,-201.5 512.5,-201.5"/>
<text text-anchor="start" x="520.5" y="-219.5" font-family="Helvetica,sans-Serif" font-size="10.00">include/emlabcpp/protocol</text>
<text text-anchor="middle" x="585.5" y="-208.5" font-family="Helvetica,sans-Serif" font-size="10.00">/packet_handler.h</text>
</a>
</g>
</g>
<!-- Node2&#45;&gt;Node12 -->
<g id="edge14" class="edge">
<title>Node2&#45;&gt;Node12</title>
<path fill="none" stroke="midnightblue" d="M368.66,-330.63C420.02,-303.84 512.91,-255.37 558.62,-231.52"/>
<polygon fill="midnightblue" stroke="midnightblue" points="366.82,-327.64 359.58,-335.37 370.06,-333.85 366.82,-327.64"/>
</g>
<!-- Node4 -->
<g id="node4" class="node">
<title>Node4</title>
<g id="a_node4"><a xlink:href="controller__interface_8h.html" target="_top" xlink:title=" ">
<polygon fill="white" stroke="black" points="0,-134.5 0,-164.5 171,-164.5 171,-134.5 0,-134.5"/>
<text text-anchor="start" x="8" y="-152.5" font-family="Helvetica,sans-Serif" font-size="10.00">include/emlabcpp/experimental</text>
<text text-anchor="middle" x="85.5" y="-141.5" font-family="Helvetica,sans-Serif" font-size="10.00">/testing/controller_interface.h</text>
</a>
</g>
</g>
<!-- Node3&#45;&gt;Node4 -->
<g id="edge3" class="edge">
<title>Node3&#45;&gt;Node4</title>
<path fill="none" stroke="midnightblue" d="M179.83,-273.28C125.23,-265.83 64.37,-253.02 47.5,-232 30.79,-211.18 53.36,-181.81 70.19,-164.6"/>
<polygon fill="midnightblue" stroke="midnightblue" points="179.57,-276.78 189.94,-274.62 180.48,-269.84 179.57,-276.78"/>
</g>
<!-- Node7 -->
<g id="node7" class="node">
<title>Node7</title>
<g id="a_node7"><a xlink:href="experimental_2testing_2error_8h.html" target="_top" xlink:title=" ">
<polygon fill="white" stroke="black" points="57,-201.5 57,-231.5 228,-231.5 228,-201.5 57,-201.5"/>
<text text-anchor="start" x="65" y="-219.5" font-family="Helvetica,sans-Serif" font-size="10.00">include/emlabcpp/experimental</text>
<text text-anchor="middle" x="142.5" y="-208.5" font-family="Helvetica,sans-Serif" font-size="10.00">/testing/error.h</text>
</a>
</g>
</g>
<!-- Node3&#45;&gt;Node7 -->
<g id="edge6" class="edge">
<title>Node3&#45;&gt;Node7</title>
<path fill="none" stroke="midnightblue" d="M237.63,-263.99C216.55,-253.69 190.72,-241.07 171.3,-231.58"/>
<polygon fill="midnightblue" stroke="midnightblue" points="236.12,-267.15 246.64,-268.4 239.19,-260.86 236.12,-267.15"/>
</g>
<!-- Node8 -->
<g id="node8" class="node">
<title>Node8</title>
<g id="a_node8"><a xlink:href="reactor_8h.html" target="_top" xlink:title=" ">
<polygon fill="white" stroke="black" points="379,-67.5 379,-97.5 550,-97.5 550,-67.5 379,-67.5"/>
<text text-anchor="start" x="387" y="-85.5" font-family="Helvetica,sans-Serif" font-size="10.00">include/emlabcpp/experimental</text>
<text text-anchor="middle" x="464.5" y="-74.5" font-family="Helvetica,sans-Serif" font-size="10.00">/testing/reactor.h</text>
</a>
</g>
</g>
<!-- Node3&#45;&gt;Node8 -->
<g id="edge8" class="edge">
<title>Node3&#45;&gt;Node8</title>
<path fill="none" stroke="midnightblue" d="M267.42,-258.65C258.24,-226.74 247.85,-170.01 275.5,-134 288.64,-116.89 335.25,-104.33 378.9,-96.02"/>
<polygon fill="midnightblue" stroke="midnightblue" points="264.15,-259.92 270.43,-268.46 270.84,-257.87 264.15,-259.92"/>
</g>
<!-- Node9 -->
<g id="node9" class="node">
<title>Node9</title>
<g id="a_node9"><a xlink:href="reactor__interface_8h.html" target="_top" xlink:title=" ">
<polygon fill="white" stroke="black" points="285,-134.5 285,-164.5 456,-164.5 456,-134.5 285,-134.5"/>
<text text-anchor="start" x="293" y="-152.5" font-family="Helvetica,sans-Serif" font-size="10.00">include/emlabcpp/experimental</text>
<text text-anchor="middle" x="370.5" y="-141.5" font-family="Helvetica,sans-Serif" font-size="10.00">/testing/reactor_interface.h</text>
</a>
</g>
</g>
<!-- Node3&#45;&gt;Node9 -->
<g id="edge9" class="edge">
<title>Node3&#45;&gt;Node9</title>
<path fill="none" stroke="midnightblue" d="M283.68,-258.54C290.18,-241.5 300.36,-218.62 313.5,-201 324.02,-186.91 338.99,-173.83 350.95,-164.51"/>
<polygon fill="midnightblue" stroke="midnightblue" points="280.26,-257.69 280.11,-268.29 286.83,-260.1 280.26,-257.69"/>
</g>
<!-- Node10 -->
<g id="node10" class="node">
<title>Node10</title>
<g id="a_node10"><a xlink:href="record_8h.html" target="_top" xlink:title=" ">
<polygon fill="white" stroke="black" points="323,-201.5 323,-231.5 494,-231.5 494,-201.5 323,-201.5"/>
<text text-anchor="start" x="331" y="-219.5" font-family="Helvetica,sans-Serif" font-size="10.00">include/emlabcpp/experimental</text>
<text text-anchor="middle" x="408.5" y="-208.5" font-family="Helvetica,sans-Serif" font-size="10.00">/testing/record.h</text>
</a>
</g>
</g>
<!-- Node3&#45;&gt;Node10 -->
<g id="edge11" class="edge">
<title>Node3&#45;&gt;Node10</title>
<path fill="none" stroke="midnightblue" d="M313.37,-263.99C334.45,-253.69 360.28,-241.07 379.7,-231.58"/>
<polygon fill="midnightblue" stroke="midnightblue" points="311.81,-260.86 304.36,-268.4 314.88,-267.15 311.81,-260.86"/>
</g>
<!-- Node5 -->
<g id="node5" class="node">
<title>Node5</title>
<g id="a_node5"><a xlink:href="controller_8h.html" target="_top" xlink:title=" ">
<polygon fill="white" stroke="black" points="0,-67.5 0,-97.5 171,-97.5 171,-67.5 0,-67.5"/>
<text text-anchor="start" x="8" y="-85.5" font-family="Helvetica,sans-Serif" font-size="10.00">include/emlabcpp/experimental</text>
<text text-anchor="middle" x="85.5" y="-74.5" font-family="Helvetica,sans-Serif" font-size="10.00">/testing/controller.h</text>
</a>
</g>
</g>
<!-- Node4&#45;&gt;Node5 -->
<g id="edge4" class="edge">
<title>Node4&#45;&gt;Node5</title>
<path fill="none" stroke="midnightblue" d="M85.5,-124.11C85.5,-115.15 85.5,-105.32 85.5,-97.58"/>
<polygon fill="midnightblue" stroke="midnightblue" points="82,-124.4 85.5,-134.4 89,-124.4 82,-124.4"/>
</g>
<!-- Node6 -->
<g id="node6" class="node">
<title>Node6</title>
<g id="a_node6"><a xlink:href="gtest_8h.html" target="_top" xlink:title=" ">
<polygon fill="white" stroke="black" points="0,-0.5 0,-30.5 171,-30.5 171,-0.5 0,-0.5"/>
<text text-anchor="start" x="8" y="-18.5" font-family="Helvetica,sans-Serif" font-size="10.00">include/emlabcpp/experimental</text>
<text text-anchor="middle" x="85.5" y="-7.5" font-family="Helvetica,sans-Serif" font-size="10.00">/testing/gtest.h</text>
</a>
</g>
</g>
<!-- Node5&#45;&gt;Node6 -->
<g id="edge5" class="edge">
<title>Node5&#45;&gt;Node6</title>
<path fill="none" stroke="midnightblue" d="M85.5,-57.11C85.5,-48.15 85.5,-38.32 85.5,-30.58"/>
<polygon fill="midnightblue" stroke="midnightblue" points="82,-57.4 85.5,-67.4 89,-57.4 82,-57.4"/>
</g>
<!-- Node7&#45;&gt;Node4 -->
<g id="edge7" class="edge">
<title>Node7&#45;&gt;Node4</title>
<path fill="none" stroke="midnightblue" d="M123.41,-193.74C114.98,-184.12 105.31,-173.09 97.84,-164.58"/>
<polygon fill="midnightblue" stroke="midnightblue" points="120.91,-196.18 130.13,-201.4 126.17,-191.57 120.91,-196.18"/>
</g>
<!-- Node9&#45;&gt;Node8 -->
<g id="edge10" class="edge">
<title>Node9&#45;&gt;Node8</title>
<path fill="none" stroke="midnightblue" d="M399.49,-128.45C413.95,-118.45 431.09,-106.6 444.14,-97.58"/>
<polygon fill="midnightblue" stroke="midnightblue" points="397.13,-125.83 390.9,-134.4 401.11,-131.59 397.13,-125.83"/>
</g>
<!-- Node11 -->
<g id="node11" class="node">
<title>Node11</title>
<g id="a_node11"><a xlink:href="interface_8h.html" target="_top" xlink:title=" ">
<polygon fill="white" stroke="black" points="474,-134.5 474,-164.5 645,-164.5 645,-134.5 474,-134.5"/>
<text text-anchor="start" x="482" y="-152.5" font-family="Helvetica,sans-Serif" font-size="10.00">include/emlabcpp/experimental</text>
<text text-anchor="middle" x="559.5" y="-141.5" font-family="Helvetica,sans-Serif" font-size="10.00">/testing/interface.h</text>
</a>
</g>
</g>
<!-- Node10&#45;&gt;Node11 -->
<g id="edge12" class="edge">
<title>Node10&#45;&gt;Node11</title>
<path fill="none" stroke="midnightblue" d="M450.53,-197.41C474.64,-187.03 504.45,-174.2 526.8,-164.58"/>
<polygon fill="midnightblue" stroke="midnightblue" points="449.07,-194.23 441.26,-201.4 451.83,-200.66 449.07,-194.23"/>
</g>
<!-- Node11&#45;&gt;Node8 -->
<g id="edge13" class="edge">
<title>Node11&#45;&gt;Node8</title>
<path fill="none" stroke="midnightblue" d="M530.61,-128.73C515.91,-118.68 498.39,-106.68 485.07,-97.58"/>
<polygon fill="midnightblue" stroke="midnightblue" points="528.66,-131.64 538.89,-134.4 532.61,-125.86 528.66,-131.64"/>
</g>
<!-- Node12&#45;&gt;Node8 -->
<g id="edge16" class="edge">
<title>Node12&#45;&gt;Node8</title>
<path fill="none" stroke="midnightblue" d="M620.66,-196C645.38,-179.75 671.28,-155.82 654.5,-134 641.24,-116.75 594.06,-104.16 550.03,-95.86"/>
<polygon fill="midnightblue" stroke="midnightblue" points="618.65,-193.13 612.04,-201.41 622.37,-199.06 618.65,-193.13"/>
</g>
<!-- Node12&#45;&gt;Node11 -->
<g id="edge15" class="edge">
<title>Node12&#45;&gt;Node11</title>
<path fill="none" stroke="midnightblue" d="M576.1,-191.99C572.42,-182.8 568.33,-172.58 565.13,-164.58"/>
<polygon fill="midnightblue" stroke="midnightblue" points="572.89,-193.41 579.86,-201.4 579.39,-190.81 572.89,-193.41"/>
</g>
</g>
</svg>
