<?xml version="1.0" encoding="UTF-8" standalone="no"?>
<!DOCTYPE svg PUBLIC "-//W3C//DTD SVG 1.1//EN"
 "http://www.w3.org/Graphics/SVG/1.1/DTD/svg11.dtd">
<!-- Generated by graphviz version 2.43.0 (0)
 -->
<!-- Title: include/emlabcpp/protocol/serializer.h Pages: 1 -->
<svg width="703pt" height="218pt"
 viewBox="0.00 0.00 703.39 218.00" xmlns="http://www.w3.org/2000/svg" xmlns:xlink="http://www.w3.org/1999/xlink">
<g id="graph0" class="graph" transform="scale(1 1) rotate(0) translate(4 214)">
<title>include/emlabcpp/protocol/serializer.h</title>
<polygon fill="white" stroke="transparent" points="-4,4 -4,-214 699.39,-214 699.39,4 -4,4"/>
<!-- Node1 -->
<g id="node1" class="node">
<title>Node1</title>
<g id="a_node1"><a xlink:title=" ">
<polygon fill="#bfbfbf" stroke="black" points="322.89,-179.5 322.89,-209.5 468.89,-209.5 468.89,-179.5 322.89,-179.5"/>
<text text-anchor="start" x="330.89" y="-197.5" font-family="Helvetica,sans-Serif" font-size="10.00">include/emlabcpp/protocol</text>
<text text-anchor="middle" x="395.89" y="-186.5" font-family="Helvetica,sans-Serif" font-size="10.00">/serializer.h</text>
</a>
</g>
</g>
<!-- Node2 -->
<g id="node2" class="node">
<title>Node2</title>
<g id="a_node2"><a xlink:href="bounded__view_8h.html" target="_top" xlink:title=" ">
<polygon fill="white" stroke="black" points="123.39,-112.5 123.39,-142.5 256.39,-142.5 256.39,-112.5 123.39,-112.5"/>
<text text-anchor="start" x="131.39" y="-130.5" font-family="Helvetica,sans-Serif" font-size="10.00">emlabcpp/experimental</text>
<text text-anchor="middle" x="189.89" y="-119.5" font-family="Helvetica,sans-Serif" font-size="10.00">/bounded_view.h</text>
</a>
</g>
</g>
<!-- Node1&#45;&gt;Node2 -->
<g id="edge1" class="edge">
<title>Node1&#45;&gt;Node2</title>
<path fill="none" stroke="midnightblue" d="M351.44,-179.48C320.01,-169.56 277.68,-156.2 244.24,-145.65"/>
<polygon fill="midnightblue" stroke="midnightblue" points="245.2,-142.28 234.61,-142.61 243.09,-148.96 245.2,-142.28"/>
</g>
<!-- Node30 -->
<g id="node6" class="node">
<title>Node30</title>
<g id="a_node6"><a xlink:title=" ">
<polygon fill="white" stroke="#bfbfbf" points="3.89,-0.5 3.89,-19.5 43.89,-19.5 43.89,-0.5 3.89,-0.5"/>
<text text-anchor="middle" x="23.89" y="-7.5" font-family="Helvetica,sans-Serif" font-size="10.00">span</text>
</a>
</g>
</g>
<!-- Node1&#45;&gt;Node30 -->
<g id="edge16" class="edge">
<title>Node1&#45;&gt;Node30</title>
<path fill="none" stroke="midnightblue" d="M322.64,-187.85C264.53,-181.62 182.03,-168.81 113.89,-143 60.36,-122.72 31.93,-125.91 3.89,-76 -4.57,-60.95 3.17,-41.88 11.35,-28.3"/>
<polygon fill="midnightblue" stroke="midnightblue" points="14.31,-30.16 16.9,-19.89 8.47,-26.31 14.31,-30.16"/>
</g>
<!-- Node39 -->
<g id="node7" class="node">
<title>Node39</title>
<g id="a_node7"><a xlink:href="protocol_2base_8h.html" target="_top" xlink:title=" ">
<polygon fill="white" stroke="black" points="324.39,-118 324.39,-137 467.39,-137 467.39,-118 324.39,-118"/>
<text text-anchor="middle" x="395.89" y="-125" font-family="Helvetica,sans-Serif" font-size="10.00">emlabcpp/protocol/base.h</text>
</a>
</g>
</g>
<!-- Node1&#45;&gt;Node39 -->
<g id="edge6" class="edge">
<title>Node1&#45;&gt;Node39</title>
<path fill="none" stroke="midnightblue" d="M395.89,-179.4C395.89,-170.06 395.89,-157.71 395.89,-147.52"/>
<polygon fill="midnightblue" stroke="midnightblue" points="399.39,-147.19 395.89,-137.19 392.39,-147.19 399.39,-147.19"/>
</g>
<!-- Node44 -->
<g id="node9" class="node">
<title>Node44</title>
<g id="a_node9"><a xlink:title=" ">
<polygon fill="white" stroke="#bfbfbf" points="666.39,-56.5 666.39,-75.5 695.39,-75.5 695.39,-56.5 666.39,-56.5"/>
<text text-anchor="middle" x="680.89" y="-63.5" font-family="Helvetica,sans-Serif" font-size="10.00">bit</text>
</a>
</g>
</g>
<!-- Node1&#45;&gt;Node44 -->
<g id="edge15" class="edge">
<title>Node1&#45;&gt;Node44</title>
<path fill="none" stroke="midnightblue" d="M420.16,-179.47C436.52,-169.74 458.42,-156.21 476.89,-143 494.62,-130.32 495.42,-121.8 514.89,-112 570.32,-84.1 592.64,-94.36 656.52,-75.74"/>
<polygon fill="midnightblue" stroke="midnightblue" points="657.71,-79.04 666.26,-72.78 655.67,-72.34 657.71,-79.04"/>
</g>
<!-- Node24 -->
<g id="node13" class="node">
<title>Node24</title>
<g id="a_node13"><a xlink:href="range_8h.html" target="_top" xlink:title=" ">
<polygon fill="white" stroke="red" points="523.89,-118 523.89,-137 627.89,-137 627.89,-118 523.89,-118"/>
<text text-anchor="middle" x="575.89" y="-125" font-family="Helvetica,sans-Serif" font-size="10.00">emlabcpp/range.h</text>
</a>
</g>
</g>
<!-- Node1&#45;&gt;Node24 -->
<g id="edge14" class="edge">
<title>Node1&#45;&gt;Node24</title>
<path fill="none" stroke="midnightblue" d="M434.95,-179.4C467.09,-167.79 512.16,-151.51 542.61,-140.52"/>
<polygon fill="midnightblue" stroke="midnightblue" points="544.12,-143.7 552.33,-137.01 541.74,-137.11 544.12,-143.7"/>
</g>
<!-- Node3 -->
<g id="node3" class="node">
<title>Node3</title>
<g id="a_node3"><a xlink:href="bounded_8h.html" target="_top" xlink:title=" ">
<polygon fill="white" stroke="red" points="130.39,-56.5 130.39,-75.5 249.39,-75.5 249.39,-56.5 130.39,-56.5"/>
<text text-anchor="middle" x="189.89" y="-63.5" font-family="Helvetica,sans-Serif" font-size="10.00">emlabcpp/bounded.h</text>
</a>
</g>
</g>
<!-- Node2&#45;&gt;Node3 -->
<g id="edge2" class="edge">
<title>Node2&#45;&gt;Node3</title>
<path fill="none" stroke="midnightblue" d="M189.89,-112.4C189.89,-104.47 189.89,-94.46 189.89,-85.86"/>
<polygon fill="midnightblue" stroke="midnightblue" points="193.39,-85.66 189.89,-75.66 186.39,-85.66 193.39,-85.66"/>
</g>
<!-- Node27 -->
<g id="node5" class="node">
<title>Node27</title>
<g id="a_node5"><a xlink:href="view_8h.html" target="_top" xlink:title=" ">
<polygon fill="white" stroke="red" points="13.39,-56.5 13.39,-75.5 112.39,-75.5 112.39,-56.5 13.39,-56.5"/>
<text text-anchor="middle" x="62.89" y="-63.5" font-family="Helvetica,sans-Serif" font-size="10.00">emlabcpp/view.h</text>
</a>
</g>
</g>
<!-- Node2&#45;&gt;Node27 -->
<g id="edge4" class="edge">
<title>Node2&#45;&gt;Node27</title>
<path fill="none" stroke="midnightblue" d="M159.79,-112.4C138.77,-102.55 110.92,-89.5 90.47,-79.92"/>
<polygon fill="midnightblue" stroke="midnightblue" points="91.91,-76.73 81.37,-75.66 88.94,-83.07 91.91,-76.73"/>
</g>
<!-- Node10 -->
<g id="node4" class="node">
<title>Node10</title>
<g id="a_node4"><a xlink:title=" ">
<polygon fill="white" stroke="#bfbfbf" points="199.39,-0.5 199.39,-19.5 268.39,-19.5 268.39,-0.5 199.39,-0.5"/>
<text text-anchor="middle" x="233.89" y="-7.5" font-family="Helvetica,sans-Serif" font-size="10.00">type_traits</text>
</a>
</g>
</g>
<!-- Node3&#45;&gt;Node10 -->
<g id="edge3" class="edge">
<title>Node3&#45;&gt;Node10</title>
<path fill="none" stroke="midnightblue" d="M197.16,-56.08C203.43,-48.38 212.68,-37.03 220.32,-27.65"/>
<polygon fill="midnightblue" stroke="midnightblue" points="223.16,-29.71 226.76,-19.75 217.73,-25.29 223.16,-29.71"/>
</g>
<!-- Node27&#45;&gt;Node30 -->
<g id="edge5" class="edge">
<title>Node27&#45;&gt;Node30</title>
<path fill="none" stroke="midnightblue" d="M56.45,-56.08C50.94,-48.46 42.86,-37.26 36.12,-27.94"/>
<polygon fill="midnightblue" stroke="midnightblue" points="38.9,-25.81 30.21,-19.75 33.23,-29.91 38.9,-25.81"/>
</g>
<!-- Node39&#45;&gt;Node3 -->
<g id="edge7" class="edge">
<title>Node39&#45;&gt;Node3</title>
<path fill="none" stroke="midnightblue" d="M366.38,-117.98C330.27,-107.55 269.04,-89.86 229.04,-78.31"/>
<polygon fill="midnightblue" stroke="midnightblue" points="229.93,-74.92 219.35,-75.51 227.99,-81.65 229.93,-74.92"/>
</g>
<!-- Node39&#45;&gt;Node10 -->
<g id="edge12" class="edge">
<title>Node39&#45;&gt;Node10</title>
<path fill="none" stroke="midnightblue" d="M374.25,-117.93C353.37,-109.11 321.41,-94.12 296.89,-76 277.84,-61.92 259.38,-41.89 247.43,-27.8"/>
<polygon fill="midnightblue" stroke="midnightblue" points="249.95,-25.36 240.87,-19.89 244.56,-29.82 249.95,-25.36"/>
</g>
<!-- Node40 -->
<g id="node8" class="node">
<title>Node40</title>
<g id="a_node8"><a xlink:href="protocol_2error_8h.html" target="_top" xlink:title=" ">
<polygon fill="white" stroke="red" points="375.89,-56.5 375.89,-75.5 517.89,-75.5 517.89,-56.5 375.89,-56.5"/>
<text text-anchor="middle" x="446.89" y="-63.5" font-family="Helvetica,sans-Serif" font-size="10.00">emlabcpp/protocol/error.h</text>
</a>
</g>
</g>
<!-- Node39&#45;&gt;Node40 -->
<g id="edge8" class="edge">
<title>Node39&#45;&gt;Node40</title>
<path fill="none" stroke="midnightblue" d="M403.2,-117.98C410.92,-108.96 423.3,-94.52 432.91,-83.31"/>
<polygon fill="midnightblue" stroke="midnightblue" points="435.75,-85.38 439.6,-75.51 430.43,-80.82 435.75,-85.38"/>
</g>
<!-- Node39&#45;&gt;Node44 -->
<g id="edge9" class="edge">
<title>Node39&#45;&gt;Node44</title>
<path fill="none" stroke="midnightblue" d="M445.25,-117.97C505.39,-107.41 604.47,-89.44 656.54,-75.62"/>
<polygon fill="midnightblue" stroke="midnightblue" points="657.59,-78.96 666.3,-72.92 655.72,-72.21 657.59,-78.96"/>
</g>
<!-- Node31 -->
<g id="node10" class="node">
<title>Node31</title>
<g id="a_node10"><a xlink:title=" ">
<polygon fill="white" stroke="#bfbfbf" points="535.89,-56.5 535.89,-75.5 579.89,-75.5 579.89,-56.5 535.89,-56.5"/>
<text text-anchor="middle" x="557.89" y="-63.5" font-family="Helvetica,sans-Serif" font-size="10.00">bitset</text>
</a>
</g>
</g>
<!-- Node39&#45;&gt;Node31 -->
<g id="edge10" class="edge">
<title>Node39&#45;&gt;Node31</title>
<path fill="none" stroke="midnightblue" d="M419.1,-117.98C447.2,-107.65 494.68,-90.22 526.15,-78.66"/>
<polygon fill="midnightblue" stroke="midnightblue" points="527.58,-81.86 535.76,-75.13 525.17,-75.29 527.58,-81.86"/>
</g>
<!-- Node43 -->
<g id="node11" class="node">
<title>Node43</title>
<g id="a_node11"><a xlink:title=" ">
<polygon fill="white" stroke="#bfbfbf" points="597.89,-56.5 597.89,-75.5 647.89,-75.5 647.89,-56.5 597.89,-56.5"/>
<text text-anchor="middle" x="622.89" y="-63.5" font-family="Helvetica,sans-Serif" font-size="10.00">cstring</text>
</a>
</g>
</g>
<!-- Node39&#45;&gt;Node43 -->
<g id="edge11" class="edge">
<title>Node39&#45;&gt;Node43</title>
<path fill="none" stroke="midnightblue" d="M428.68,-117.95C465.14,-108.44 526.03,-92.53 587.73,-76.3"/>
<polygon fill="midnightblue" stroke="midnightblue" points="588.86,-79.62 597.64,-73.69 587.08,-72.85 588.86,-79.62"/>
</g>
<!-- Node14 -->
<g id="node12" class="node">
<title>Node14</title>
<g id="a_node12"><a xlink:title=" ">
<polygon fill="white" stroke="#bfbfbf" points="306.39,-56.5 306.39,-75.5 357.39,-75.5 357.39,-56.5 306.39,-56.5"/>
<text text-anchor="middle" x="331.89" y="-63.5" font-family="Helvetica,sans-Serif" font-size="10.00">variant</text>
</a>
</g>
</g>
<!-- Node39&#45;&gt;Node14 -->
<g id="edge13" class="edge">
<title>Node39&#45;&gt;Node14</title>
<path fill="none" stroke="midnightblue" d="M386.72,-117.98C376.74,-108.7 360.58,-93.67 348.38,-82.33"/>
<polygon fill="midnightblue" stroke="midnightblue" points="350.75,-79.75 341.04,-75.51 345.98,-84.88 350.75,-79.75"/>
</g>
</g>
</svg>
