<?xml version="1.0" encoding="UTF-8" standalone="no"?>
<!DOCTYPE svg PUBLIC "-//W3C//DTD SVG 1.1//EN"
 "http://www.w3.org/Graphics/SVG/1.1/DTD/svg11.dtd">
<!-- Generated by graphviz version 2.43.0 (0)
 -->
<!-- Title: include/emlabcpp/protocol/serializer.h Pages: 1 -->
<svg width="694pt" height="218pt"
 viewBox="0.00 0.00 694.00 218.00" xmlns="http://www.w3.org/2000/svg" xmlns:xlink="http://www.w3.org/1999/xlink">
<g id="graph0" class="graph" transform="scale(1 1) rotate(0) translate(4 214)">
<title>include/emlabcpp/protocol/serializer.h</title>
<polygon fill="white" stroke="transparent" points="-4,4 -4,-214 690,-214 690,4 -4,4"/>
<!-- Node1 -->
<g id="node1" class="node">
<title>Node1</title>
<g id="a_node1"><a xlink:title=" ">
<polygon fill="#bfbfbf" stroke="black" points="236,-179.5 236,-209.5 382,-209.5 382,-179.5 236,-179.5"/>
<text text-anchor="start" x="244" y="-197.5" font-family="Helvetica,sans-Serif" font-size="10.00">include/emlabcpp/protocol</text>
<text text-anchor="middle" x="309" y="-186.5" font-family="Helvetica,sans-Serif" font-size="10.00">/serializer.h</text>
</a>
</g>
</g>
<!-- Node2 -->
<g id="node2" class="node">
<title>Node2</title>
<g id="a_node2"><a xlink:href="bounded__view_8h.html" target="_top" xlink:title=" ">
<polygon fill="white" stroke="black" points="155,-118 155,-137 301,-137 301,-118 155,-118"/>
<text text-anchor="middle" x="228" y="-125" font-family="Helvetica,sans-Serif" font-size="10.00">emlabcpp/bounded_view.h</text>
</a>
</g>
</g>
<!-- Node1&#45;&gt;Node2 -->
<g id="edge1" class="edge">
<title>Node1&#45;&gt;Node2</title>
<path fill="none" stroke="midnightblue" d="M291.42,-179.4C278.29,-168.86 260.37,-154.48 246.93,-143.69"/>
<polygon fill="midnightblue" stroke="midnightblue" points="248.82,-140.72 238.83,-137.19 244.44,-146.18 248.82,-140.72"/>
</g>
<!-- Node18 -->
<g id="node6" class="node">
<title>Node18</title>
<g id="a_node6"><a xlink:href="numeric_8h.html" target="_top" xlink:title=" ">
<polygon fill="white" stroke="black" points="14.5,-112.5 14.5,-142.5 123.5,-142.5 123.5,-112.5 14.5,-112.5"/>
<text text-anchor="start" x="22.5" y="-130.5" font-family="Helvetica,sans-Serif" font-size="10.00">emlabcpp/iterators</text>
<text text-anchor="middle" x="69" y="-119.5" font-family="Helvetica,sans-Serif" font-size="10.00">/numeric.h</text>
</a>
</g>
</g>
<!-- Node1&#45;&gt;Node18 -->
<g id="edge5" class="edge">
<title>Node1&#45;&gt;Node18</title>
<path fill="none" stroke="midnightblue" d="M257.22,-179.48C220.13,-169.43 170.01,-155.86 130.82,-145.24"/>
<polygon fill="midnightblue" stroke="midnightblue" points="131.67,-141.85 121.1,-142.61 129.84,-148.6 131.67,-141.85"/>
</g>
<!-- Node21 -->
<g id="node8" class="node">
<title>Node21</title>
<g id="a_node8"><a xlink:href="protocol_2base_8h.html" target="_top" xlink:title=" ">
<polygon fill="white" stroke="black" points="323.5,-118 323.5,-137 466.5,-137 466.5,-118 323.5,-118"/>
<text text-anchor="middle" x="395" y="-125" font-family="Helvetica,sans-Serif" font-size="10.00">emlabcpp/protocol/base.h</text>
</a>
</g>
</g>
<!-- Node1&#45;&gt;Node21 -->
<g id="edge8" class="edge">
<title>Node1&#45;&gt;Node21</title>
<path fill="none" stroke="midnightblue" d="M327.66,-179.4C341.73,-168.76 360.99,-154.2 375.31,-143.38"/>
<polygon fill="midnightblue" stroke="midnightblue" points="377.63,-146.02 383.5,-137.19 373.41,-140.43 377.63,-146.02"/>
</g>
<!-- Node26 -->
<g id="node13" class="node">
<title>Node26</title>
<g id="a_node13"><a xlink:title=" ">
<polygon fill="white" stroke="#bfbfbf" points="485,-118 485,-137 525,-137 525,-118 485,-118"/>
<text text-anchor="middle" x="505" y="-125" font-family="Helvetica,sans-Serif" font-size="10.00">span</text>
</a>
</g>
</g>
<!-- Node1&#45;&gt;Node26 -->
<g id="edge15" class="edge">
<title>Node1&#45;&gt;Node26</title>
<path fill="none" stroke="midnightblue" d="M363.95,-179.42C396.92,-170.35 439.41,-157.56 476,-143 477.21,-142.52 478.43,-142.01 479.66,-141.48"/>
<polygon fill="midnightblue" stroke="midnightblue" points="481.39,-144.53 488.96,-137.13 478.42,-138.19 481.39,-144.53"/>
</g>
<!-- Node3 -->
<g id="node3" class="node">
<title>Node3</title>
<g id="a_node3"><a xlink:href="bounded_8h.html" target="_top" xlink:title=" ">
<polygon fill="white" stroke="red" points="168.5,-56.5 168.5,-75.5 287.5,-75.5 287.5,-56.5 168.5,-56.5"/>
<text text-anchor="middle" x="228" y="-63.5" font-family="Helvetica,sans-Serif" font-size="10.00">emlabcpp/bounded.h</text>
</a>
</g>
</g>
<!-- Node2&#45;&gt;Node3 -->
<g id="edge2" class="edge">
<title>Node2&#45;&gt;Node3</title>
<path fill="none" stroke="midnightblue" d="M228,-117.98C228,-109.58 228,-96.48 228,-85.66"/>
<polygon fill="midnightblue" stroke="midnightblue" points="231.5,-85.51 228,-75.51 224.5,-85.51 231.5,-85.51"/>
</g>
<!-- Node15 -->
<g id="node5" class="node">
<title>Node15</title>
<g id="a_node5"><a xlink:href="view_8h.html" target="_top" xlink:title=" ">
<polygon fill="white" stroke="red" points="65.5,-0.5 65.5,-19.5 164.5,-19.5 164.5,-0.5 65.5,-0.5"/>
<text text-anchor="middle" x="115" y="-7.5" font-family="Helvetica,sans-Serif" font-size="10.00">emlabcpp/view.h</text>
</a>
</g>
</g>
<!-- Node2&#45;&gt;Node15 -->
<g id="edge4" class="edge">
<title>Node2&#45;&gt;Node15</title>
<path fill="none" stroke="midnightblue" d="M213.4,-117.91C198.6,-108.75 175.59,-93.21 159,-76 145.15,-61.63 132.75,-42.43 124.67,-28.63"/>
<polygon fill="midnightblue" stroke="midnightblue" points="127.57,-26.65 119.59,-19.68 121.48,-30.1 127.57,-26.65"/>
</g>
<!-- Node10 -->
<g id="node4" class="node">
<title>Node10</title>
<g id="a_node4"><a xlink:title=" ">
<polygon fill="white" stroke="#bfbfbf" points="217.5,-0.5 217.5,-19.5 286.5,-19.5 286.5,-0.5 217.5,-0.5"/>
<text text-anchor="middle" x="252" y="-7.5" font-family="Helvetica,sans-Serif" font-size="10.00">type_traits</text>
</a>
</g>
</g>
<!-- Node3&#45;&gt;Node10 -->
<g id="edge3" class="edge">
<title>Node3&#45;&gt;Node10</title>
<path fill="none" stroke="midnightblue" d="M231.96,-56.08C235.21,-48.77 239.92,-38.18 243.95,-29.1"/>
<polygon fill="midnightblue" stroke="midnightblue" points="247.25,-30.31 248.11,-19.75 240.85,-27.47 247.25,-30.31"/>
</g>
<!-- Node19 -->
<g id="node7" class="node">
<title>Node19</title>
<g id="a_node7"><a xlink:href="iterator_8h.html" target="_top" xlink:title=" ">
<polygon fill="white" stroke="red" points="0,-56.5 0,-75.5 112,-75.5 112,-56.5 0,-56.5"/>
<text text-anchor="middle" x="56" y="-63.5" font-family="Helvetica,sans-Serif" font-size="10.00">emlabcpp/iterator.h</text>
</a>
</g>
</g>
<!-- Node18&#45;&gt;Node19 -->
<g id="edge6" class="edge">
<title>Node18&#45;&gt;Node19</title>
<path fill="none" stroke="midnightblue" d="M65.92,-112.4C64.17,-104.38 61.95,-94.23 60.06,-85.57"/>
<polygon fill="midnightblue" stroke="midnightblue" points="63.45,-84.68 57.89,-75.66 56.61,-86.17 63.45,-84.68"/>
</g>
<!-- Node19&#45;&gt;Node15 -->
<g id="edge7" class="edge">
<title>Node19&#45;&gt;Node15</title>
<path fill="none" stroke="midnightblue" d="M65.48,-56.32C74.2,-48.34 87.34,-36.31 97.9,-26.65"/>
<polygon fill="midnightblue" stroke="midnightblue" points="100.33,-29.17 105.35,-19.83 95.61,-24 100.33,-29.17"/>
</g>
<!-- Node21&#45;&gt;Node3 -->
<g id="edge9" class="edge">
<title>Node21&#45;&gt;Node3</title>
<path fill="none" stroke="midnightblue" d="M371.07,-117.98C342.3,-107.72 293.84,-90.46 261.4,-78.9"/>
<polygon fill="midnightblue" stroke="midnightblue" points="262.48,-75.57 251.88,-75.51 260.13,-82.16 262.48,-75.57"/>
</g>
<!-- Node21&#45;&gt;Node10 -->
<g id="edge13" class="edge">
<title>Node21&#45;&gt;Node10</title>
<path fill="none" stroke="midnightblue" d="M406.23,-117.97C423.02,-104.18 451.06,-76.49 435,-56 418.13,-34.48 345.31,-21.88 296.77,-15.73"/>
<polygon fill="midnightblue" stroke="midnightblue" points="297.16,-12.25 286.81,-14.51 296.31,-19.2 297.16,-12.25"/>
</g>
<!-- Node22 -->
<g id="node9" class="node">
<title>Node22</title>
<g id="a_node9"><a xlink:href="protocol_2error_8h.html" target="_top" xlink:title=" ">
<polygon fill="white" stroke="red" points="482,-56.5 482,-75.5 624,-75.5 624,-56.5 482,-56.5"/>
<text text-anchor="middle" x="553" y="-63.5" font-family="Helvetica,sans-Serif" font-size="10.00">emlabcpp/protocol/error.h</text>
</a>
</g>
</g>
<!-- Node21&#45;&gt;Node22 -->
<g id="edge10" class="edge">
<title>Node21&#45;&gt;Node22</title>
<path fill="none" stroke="midnightblue" d="M417.64,-117.98C444.74,-107.77 490.31,-90.61 521,-79.05"/>
<polygon fill="midnightblue" stroke="midnightblue" points="522.28,-82.31 530.4,-75.51 519.81,-75.76 522.28,-82.31"/>
</g>
<!-- Node24 -->
<g id="node10" class="node">
<title>Node24</title>
<g id="a_node10"><a xlink:title=" ">
<polygon fill="white" stroke="#bfbfbf" points="642,-56.5 642,-75.5 686,-75.5 686,-56.5 642,-56.5"/>
<text text-anchor="middle" x="664" y="-63.5" font-family="Helvetica,sans-Serif" font-size="10.00">bitset</text>
</a>
</g>
</g>
<!-- Node21&#45;&gt;Node24 -->
<g id="edge11" class="edge">
<title>Node21&#45;&gt;Node24</title>
<path fill="none" stroke="midnightblue" d="M439.97,-117.98C485.93,-109.05 559.55,-94.11 631.96,-76.13"/>
<polygon fill="midnightblue" stroke="midnightblue" points="632.85,-79.51 641.7,-73.69 631.15,-72.72 632.85,-79.51"/>
</g>
<!-- Node25 -->
<g id="node11" class="node">
<title>Node25</title>
<g id="a_node11"><a xlink:title=" ">
<polygon fill="white" stroke="#bfbfbf" points="306,-56.5 306,-75.5 356,-75.5 356,-56.5 306,-56.5"/>
<text text-anchor="middle" x="331" y="-63.5" font-family="Helvetica,sans-Serif" font-size="10.00">cstring</text>
</a>
</g>
</g>
<!-- Node21&#45;&gt;Node25 -->
<g id="edge12" class="edge">
<title>Node21&#45;&gt;Node25</title>
<path fill="none" stroke="midnightblue" d="M385.83,-117.98C375.85,-108.7 359.69,-93.67 347.49,-82.33"/>
<polygon fill="midnightblue" stroke="midnightblue" points="349.86,-79.75 340.15,-75.51 345.09,-84.88 349.86,-79.75"/>
</g>
<!-- Node13 -->
<g id="node12" class="node">
<title>Node13</title>
<g id="a_node12"><a xlink:title=" ">
<polygon fill="white" stroke="#bfbfbf" points="374.5,-56.5 374.5,-75.5 425.5,-75.5 425.5,-56.5 374.5,-56.5"/>
<text text-anchor="middle" x="400" y="-63.5" font-family="Helvetica,sans-Serif" font-size="10.00">variant</text>
</a>
</g>
</g>
<!-- Node21&#45;&gt;Node13 -->
<g id="edge14" class="edge">
<title>Node21&#45;&gt;Node13</title>
<path fill="none" stroke="midnightblue" d="M395.72,-117.98C396.42,-109.58 397.52,-96.48 398.43,-85.66"/>
<polygon fill="midnightblue" stroke="midnightblue" points="401.94,-85.77 399.28,-75.51 394.96,-85.18 401.94,-85.77"/>
</g>
</g>
</svg>
