<?xml version="1.0" encoding="UTF-8" standalone="no"?>
<!DOCTYPE svg PUBLIC "-//W3C//DTD SVG 1.1//EN"
 "http://www.w3.org/Graphics/SVG/1.1/DTD/svg11.dtd">
<!-- Generated by graphviz version 2.43.0 (0)
 -->
<!-- Title: include/emlabcpp/protocol/serializer.h Pages: 1 -->
<svg width="673pt" height="442pt"
 viewBox="0.00 0.00 673.48 442.00" xmlns="http://www.w3.org/2000/svg" xmlns:xlink="http://www.w3.org/1999/xlink">
<g id="graph0" class="graph" transform="scale(1 1) rotate(0) translate(4 438)">
<title>include/emlabcpp/protocol/serializer.h</title>
<polygon fill="white" stroke="transparent" points="-4,4 -4,-438 669.48,-438 669.48,4 -4,4"/>
<!-- Node1 -->
<g id="node1" class="node">
<title>Node1</title>
<g id="a_node1"><a xlink:title=" ">
<polygon fill="#bfbfbf" stroke="black" points="358,-403.5 358,-433.5 504,-433.5 504,-403.5 358,-403.5"/>
<text text-anchor="start" x="366" y="-421.5" font-family="Helvetica,sans-Serif" font-size="10.00">include/emlabcpp/protocol</text>
<text text-anchor="middle" x="431" y="-410.5" font-family="Helvetica,sans-Serif" font-size="10.00">/serializer.h</text>
</a>
</g>
</g>
<!-- Node2 -->
<g id="node2" class="node">
<title>Node2</title>
<g id="a_node2"><a xlink:href="bounded__view_8h.html" target="_top" xlink:title=" ">
<polygon fill="white" stroke="black" points="169,-280.5 169,-299.5 315,-299.5 315,-280.5 169,-280.5"/>
<text text-anchor="middle" x="242" y="-287.5" font-family="Helvetica,sans-Serif" font-size="10.00">emlabcpp/bounded_view.h</text>
</a>
</g>
</g>
<!-- Node1&#45;&gt;Node2 -->
<g id="edge1" class="edge">
<title>Node1&#45;&gt;Node2</title>
<path fill="none" stroke="midnightblue" d="M394.72,-403.4C373.55,-394.4 346.81,-381.7 325,-367 298.82,-349.36 272.63,-323.71 256.86,-307.19"/>
<polygon fill="midnightblue" stroke="midnightblue" points="259.41,-304.79 250.01,-299.89 254.3,-309.58 259.41,-304.79"/>
</g>
<!-- Node17 -->
<g id="node17" class="node">
<title>Node17</title>
<g id="a_node17"><a xlink:href="numeric_8h.html" target="_top" xlink:title=" ">
<polygon fill="white" stroke="black" points="334.5,-336.5 334.5,-366.5 443.5,-366.5 443.5,-336.5 334.5,-336.5"/>
<text text-anchor="start" x="342.5" y="-354.5" font-family="Helvetica,sans-Serif" font-size="10.00">emlabcpp/iterators</text>
<text text-anchor="middle" x="389" y="-343.5" font-family="Helvetica,sans-Serif" font-size="10.00">/numeric.h</text>
</a>
</g>
</g>
<!-- Node1&#45;&gt;Node17 -->
<g id="edge19" class="edge">
<title>Node1&#45;&gt;Node17</title>
<path fill="none" stroke="midnightblue" d="M421.89,-403.4C416.55,-395.13 409.68,-384.51 403.6,-375.1"/>
<polygon fill="midnightblue" stroke="midnightblue" points="406.46,-373.08 398.1,-366.58 400.58,-376.88 406.46,-373.08"/>
</g>
<!-- Node20 -->
<g id="node20" class="node">
<title>Node20</title>
<g id="a_node20"><a xlink:href="protocol_2base_8h.html" target="_top" xlink:title=" ">
<polygon fill="white" stroke="black" points="433.5,-224.5 433.5,-243.5 576.5,-243.5 576.5,-224.5 433.5,-224.5"/>
<text text-anchor="middle" x="505" y="-231.5" font-family="Helvetica,sans-Serif" font-size="10.00">emlabcpp/protocol/base.h</text>
</a>
</g>
</g>
<!-- Node1&#45;&gt;Node20 -->
<g id="edge23" class="edge">
<title>Node1&#45;&gt;Node20</title>
<path fill="none" stroke="midnightblue" d="M437.3,-403.41C441.77,-393.31 447.87,-379.37 453,-367 469.76,-326.59 488.29,-278.71 498.07,-253.18"/>
<polygon fill="midnightblue" stroke="midnightblue" points="501.4,-254.28 501.7,-243.69 494.86,-251.78 501.4,-254.28"/>
</g>
<!-- Node26 -->
<g id="node26" class="node">
<title>Node26</title>
<g id="a_node26"><a xlink:title=" ">
<polygon fill="white" stroke="#bfbfbf" points="501,-342 501,-361 541,-361 541,-342 501,-342"/>
<text text-anchor="middle" x="521" y="-349" font-family="Helvetica,sans-Serif" font-size="10.00">span</text>
</a>
</g>
</g>
<!-- Node1&#45;&gt;Node26 -->
<g id="edge32" class="edge">
<title>Node1&#45;&gt;Node26</title>
<path fill="none" stroke="midnightblue" d="M450.53,-403.4C465.48,-392.6 486.03,-377.76 501.08,-366.89"/>
<polygon fill="midnightblue" stroke="midnightblue" points="503.16,-369.7 509.22,-361.01 499.07,-364.02 503.16,-369.7"/>
</g>
<!-- Node3 -->
<g id="node3" class="node">
<title>Node3</title>
<g id="a_node3"><a xlink:href="bounded_8h.html" target="_top" xlink:title=" ">
<polygon fill="white" stroke="black" points="171.5,-168.5 171.5,-187.5 290.5,-187.5 290.5,-168.5 171.5,-168.5"/>
<text text-anchor="middle" x="231" y="-175.5" font-family="Helvetica,sans-Serif" font-size="10.00">emlabcpp/bounded.h</text>
</a>
</g>
</g>
<!-- Node2&#45;&gt;Node3 -->
<g id="edge2" class="edge">
<title>Node2&#45;&gt;Node3</title>
<path fill="none" stroke="midnightblue" d="M240.71,-280.39C239.38,-271.35 237.33,-256.7 236,-244 234.37,-228.5 233.05,-210.88 232.17,-197.89"/>
<polygon fill="midnightblue" stroke="midnightblue" points="235.66,-197.6 231.52,-187.85 228.68,-198.05 235.66,-197.6"/>
</g>
<!-- Node14 -->
<g id="node14" class="node">
<title>Node14</title>
<g id="a_node14"><a xlink:href="view_8h.html" target="_top" xlink:title=" ">
<polygon fill="white" stroke="black" points="245.5,-224.5 245.5,-243.5 344.5,-243.5 344.5,-224.5 245.5,-224.5"/>
<text text-anchor="middle" x="295" y="-231.5" font-family="Helvetica,sans-Serif" font-size="10.00">emlabcpp/view.h</text>
</a>
</g>
</g>
<!-- Node2&#45;&gt;Node14 -->
<g id="edge14" class="edge">
<title>Node2&#45;&gt;Node14</title>
<path fill="none" stroke="midnightblue" d="M250.75,-280.08C258.47,-272.22 269.9,-260.57 279.22,-251.08"/>
<polygon fill="midnightblue" stroke="midnightblue" points="281.9,-253.34 286.41,-243.75 276.91,-248.44 281.9,-253.34"/>
</g>
<!-- Node4 -->
<g id="node4" class="node">
<title>Node4</title>
<g id="a_node4"><a xlink:href="concepts_8h.html" target="_top" xlink:title=" ">
<polygon fill="white" stroke="black" points="120,-112.5 120,-131.5 240,-131.5 240,-112.5 120,-112.5"/>
<text text-anchor="middle" x="180" y="-119.5" font-family="Helvetica,sans-Serif" font-size="10.00">emlabcpp/concepts.h</text>
</a>
</g>
</g>
<!-- Node3&#45;&gt;Node4 -->
<g id="edge3" class="edge">
<title>Node3&#45;&gt;Node4</title>
<path fill="none" stroke="midnightblue" d="M222.58,-168.08C215.15,-160.22 204.15,-148.57 195.19,-139.08"/>
<polygon fill="midnightblue" stroke="midnightblue" points="197.68,-136.62 188.26,-131.75 192.59,-141.42 197.68,-136.62"/>
</g>
<!-- Node10 -->
<g id="node10" class="node">
<title>Node10</title>
<g id="a_node10"><a xlink:title=" ">
<polygon fill="white" stroke="#bfbfbf" points="321.5,-0.5 321.5,-19.5 390.5,-19.5 390.5,-0.5 321.5,-0.5"/>
<text text-anchor="middle" x="356" y="-7.5" font-family="Helvetica,sans-Serif" font-size="10.00">type_traits</text>
</a>
</g>
</g>
<!-- Node3&#45;&gt;Node10 -->
<g id="edge13" class="edge">
<title>Node3&#45;&gt;Node10</title>
<path fill="none" stroke="midnightblue" d="M263.87,-168.44C283.68,-161.66 307.93,-150.22 323,-132 347.55,-102.32 353.93,-55.88 355.53,-30.01"/>
<polygon fill="midnightblue" stroke="midnightblue" points="359.04,-29.85 355.97,-19.71 352.04,-29.55 359.04,-29.85"/>
</g>
<!-- Node13 -->
<g id="node13" class="node">
<title>Node13</title>
<g id="a_node13"><a xlink:title=" ">
<polygon fill="white" stroke="#bfbfbf" points="258,-112.5 258,-131.5 314,-131.5 314,-112.5 258,-112.5"/>
<text text-anchor="middle" x="286" y="-119.5" font-family="Helvetica,sans-Serif" font-size="10.00">optional</text>
</a>
</g>
</g>
<!-- Node3&#45;&gt;Node13 -->
<g id="edge12" class="edge">
<title>Node3&#45;&gt;Node13</title>
<path fill="none" stroke="midnightblue" d="M240.08,-168.08C248.17,-160.14 260.2,-148.34 269.91,-138.8"/>
<polygon fill="midnightblue" stroke="midnightblue" points="272.4,-141.25 277.09,-131.75 267.5,-136.26 272.4,-141.25"/>
</g>
<!-- Node5 -->
<g id="node5" class="node">
<title>Node5</title>
<g id="a_node5"><a xlink:href="types_2base_8h.html" target="_top" xlink:title=" ">
<polygon fill="white" stroke="black" points="92,-56.5 92,-75.5 222,-75.5 222,-56.5 92,-56.5"/>
<text text-anchor="middle" x="157" y="-63.5" font-family="Helvetica,sans-Serif" font-size="10.00">emlabcpp/types/base.h</text>
</a>
</g>
</g>
<!-- Node4&#45;&gt;Node5 -->
<g id="edge4" class="edge">
<title>Node4&#45;&gt;Node5</title>
<path fill="none" stroke="midnightblue" d="M176.2,-112.08C173.09,-104.77 168.58,-94.18 164.71,-85.1"/>
<polygon fill="midnightblue" stroke="midnightblue" points="167.87,-83.58 160.73,-75.75 161.43,-86.32 167.87,-83.58"/>
</g>
<!-- Node12 -->
<g id="node12" class="node">
<title>Node12</title>
<g id="a_node12"><a xlink:title=" ">
<polygon fill="white" stroke="#bfbfbf" points="240,-56.5 240,-75.5 300,-75.5 300,-56.5 240,-56.5"/>
<text text-anchor="middle" x="270" y="-63.5" font-family="Helvetica,sans-Serif" font-size="10.00">concepts</text>
</a>
</g>
</g>
<!-- Node4&#45;&gt;Node12 -->
<g id="edge11" class="edge">
<title>Node4&#45;&gt;Node12</title>
<path fill="none" stroke="midnightblue" d="M194.46,-112.32C208.5,-103.9 230.05,-90.97 246.54,-81.07"/>
<polygon fill="midnightblue" stroke="midnightblue" points="248.8,-83.8 255.58,-75.65 245.2,-77.8 248.8,-83.8"/>
</g>
<!-- Node6 -->
<g id="node6" class="node">
<title>Node6</title>
<g id="a_node6"><a xlink:title=" ">
<polygon fill="white" stroke="#bfbfbf" points="261,-0.5 261,-19.5 303,-19.5 303,-0.5 261,-0.5"/>
<text text-anchor="middle" x="282" y="-7.5" font-family="Helvetica,sans-Serif" font-size="10.00">array</text>
</a>
</g>
</g>
<!-- Node5&#45;&gt;Node6 -->
<g id="edge5" class="edge">
<title>Node5&#45;&gt;Node6</title>
<path fill="none" stroke="midnightblue" d="M176.81,-56.44C197.29,-47.6 229.48,-33.69 252.86,-23.59"/>
<polygon fill="midnightblue" stroke="midnightblue" points="254.49,-26.7 262.29,-19.52 251.72,-20.27 254.49,-26.7"/>
</g>
<!-- Node7 -->
<g id="node7" class="node">
<title>Node7</title>
<g id="a_node7"><a xlink:title=" ">
<polygon fill="white" stroke="#bfbfbf" points="0,-0.5 0,-19.5 50,-19.5 50,-0.5 0,-0.5"/>
<text text-anchor="middle" x="25" y="-7.5" font-family="Helvetica,sans-Serif" font-size="10.00">cstdint</text>
</a>
</g>
</g>
<!-- Node5&#45;&gt;Node7 -->
<g id="edge6" class="edge">
<title>Node5&#45;&gt;Node7</title>
<path fill="none" stroke="midnightblue" d="M136.08,-56.44C114.26,-47.52 79.85,-33.44 55.11,-23.32"/>
<polygon fill="midnightblue" stroke="midnightblue" points="56.4,-20.06 45.82,-19.52 53.75,-26.54 56.4,-20.06"/>
</g>
<!-- Node8 -->
<g id="node8" class="node">
<title>Node8</title>
<g id="a_node8"><a xlink:title=" ">
<polygon fill="white" stroke="#bfbfbf" points="68,-0.5 68,-19.5 118,-19.5 118,-0.5 68,-0.5"/>
<text text-anchor="middle" x="93" y="-7.5" font-family="Helvetica,sans-Serif" font-size="10.00">ranges</text>
</a>
</g>
</g>
<!-- Node5&#45;&gt;Node8 -->
<g id="edge7" class="edge">
<title>Node5&#45;&gt;Node8</title>
<path fill="none" stroke="midnightblue" d="M146.72,-56.32C137.16,-48.26 122.72,-36.08 111.22,-26.37"/>
<polygon fill="midnightblue" stroke="midnightblue" points="113.37,-23.61 103.47,-19.83 108.86,-28.96 113.37,-23.61"/>
</g>
<!-- Node9 -->
<g id="node9" class="node">
<title>Node9</title>
<g id="a_node9"><a xlink:title=" ">
<polygon fill="white" stroke="#bfbfbf" points="136.5,-0.5 136.5,-19.5 177.5,-19.5 177.5,-0.5 136.5,-0.5"/>
<text text-anchor="middle" x="157" y="-7.5" font-family="Helvetica,sans-Serif" font-size="10.00">tuple</text>
</a>
</g>
</g>
<!-- Node5&#45;&gt;Node9 -->
<g id="edge8" class="edge">
<title>Node5&#45;&gt;Node9</title>
<path fill="none" stroke="midnightblue" d="M157,-56.08C157,-49.01 157,-38.86 157,-29.99"/>
<polygon fill="midnightblue" stroke="midnightblue" points="160.5,-29.75 157,-19.75 153.5,-29.75 160.5,-29.75"/>
</g>
<!-- Node5&#45;&gt;Node10 -->
<g id="edge9" class="edge">
<title>Node5&#45;&gt;Node10</title>
<path fill="none" stroke="midnightblue" d="M188.53,-56.44C222.59,-47.2 277.01,-32.44 314.52,-22.26"/>
<polygon fill="midnightblue" stroke="midnightblue" points="315.88,-25.51 324.62,-19.52 314.05,-18.76 315.88,-25.51"/>
</g>
<!-- Node11 -->
<g id="node11" class="node">
<title>Node11</title>
<g id="a_node11"><a xlink:title=" ">
<polygon fill="white" stroke="#bfbfbf" points="195.5,-0.5 195.5,-19.5 242.5,-19.5 242.5,-0.5 195.5,-0.5"/>
<text text-anchor="middle" x="219" y="-7.5" font-family="Helvetica,sans-Serif" font-size="10.00">vector</text>
</a>
</g>
</g>
<!-- Node5&#45;&gt;Node11 -->
<g id="edge10" class="edge">
<title>Node5&#45;&gt;Node11</title>
<path fill="none" stroke="midnightblue" d="M166.96,-56.32C176.13,-48.34 189.94,-36.31 201.03,-26.65"/>
<polygon fill="midnightblue" stroke="midnightblue" points="203.62,-29.04 208.86,-19.83 199.02,-23.76 203.62,-29.04"/>
</g>
<!-- Node15 -->
<g id="node15" class="node">
<title>Node15</title>
<g id="a_node15"><a xlink:href="types_8h.html" target="_top" xlink:title=" ">
<polygon fill="white" stroke="black" points="39,-168.5 39,-187.5 143,-187.5 143,-168.5 39,-168.5"/>
<text text-anchor="middle" x="91" y="-175.5" font-family="Helvetica,sans-Serif" font-size="10.00">emlabcpp/types.h</text>
</a>
</g>
</g>
<!-- Node14&#45;&gt;Node15 -->
<g id="edge15" class="edge">
<title>Node14&#45;&gt;Node15</title>
<path fill="none" stroke="midnightblue" d="M262.68,-224.44C227.61,-215.16 171.5,-200.31 133.04,-190.13"/>
<polygon fill="midnightblue" stroke="midnightblue" points="133.74,-186.69 123.17,-187.52 131.94,-193.46 133.74,-186.69"/>
</g>
<!-- Node15&#45;&gt;Node4 -->
<g id="edge16" class="edge">
<title>Node15&#45;&gt;Node4</title>
<path fill="none" stroke="midnightblue" d="M105.3,-168.32C119.18,-159.9 140.49,-146.97 156.8,-137.07"/>
<polygon fill="midnightblue" stroke="midnightblue" points="159,-139.83 165.74,-131.65 155.37,-133.85 159,-139.83"/>
</g>
<!-- Node15&#45;&gt;Node5 -->
<g id="edge17" class="edge">
<title>Node15&#45;&gt;Node5</title>
<path fill="none" stroke="midnightblue" d="M78.27,-168.33C61.51,-155.82 35.66,-132.01 49,-112 59.79,-95.81 77.63,-85.44 95.73,-78.79"/>
<polygon fill="midnightblue" stroke="midnightblue" points="97.08,-82.03 105.47,-75.56 94.88,-75.39 97.08,-82.03"/>
</g>
<!-- Node16 -->
<g id="node16" class="node">
<title>Node16</title>
<g id="a_node16"><a xlink:title=" ">
<polygon fill="white" stroke="#bfbfbf" points="58,-112.5 58,-131.5 102,-131.5 102,-112.5 58,-112.5"/>
<text text-anchor="middle" x="80" y="-119.5" font-family="Helvetica,sans-Serif" font-size="10.00">string</text>
</a>
</g>
</g>
<!-- Node15&#45;&gt;Node16 -->
<g id="edge18" class="edge">
<title>Node15&#45;&gt;Node16</title>
<path fill="none" stroke="midnightblue" d="M89.18,-168.08C87.73,-160.93 85.63,-150.64 83.81,-141.69"/>
<polygon fill="midnightblue" stroke="midnightblue" points="87.21,-140.85 81.78,-131.75 80.35,-142.25 87.21,-140.85"/>
</g>
<!-- Node18 -->
<g id="node18" class="node">
<title>Node18</title>
<g id="a_node18"><a xlink:href="iterator_8h.html" target="_top" xlink:title=" ">
<polygon fill="white" stroke="black" points="333,-280.5 333,-299.5 445,-299.5 445,-280.5 333,-280.5"/>
<text text-anchor="middle" x="389" y="-287.5" font-family="Helvetica,sans-Serif" font-size="10.00">emlabcpp/iterator.h</text>
</a>
</g>
</g>
<!-- Node17&#45;&gt;Node18 -->
<g id="edge20" class="edge">
<title>Node17&#45;&gt;Node18</title>
<path fill="none" stroke="midnightblue" d="M389,-336.4C389,-328.47 389,-318.46 389,-309.86"/>
<polygon fill="midnightblue" stroke="midnightblue" points="392.5,-309.66 389,-299.66 385.5,-309.66 392.5,-309.66"/>
</g>
<!-- Node18&#45;&gt;Node14 -->
<g id="edge21" class="edge">
<title>Node18&#45;&gt;Node14</title>
<path fill="none" stroke="midnightblue" d="M373.9,-280.32C359.1,-271.82 336.31,-258.73 319.02,-248.8"/>
<polygon fill="midnightblue" stroke="midnightblue" points="320.48,-245.6 310.07,-243.65 316.99,-251.67 320.48,-245.6"/>
</g>
<!-- Node19 -->
<g id="node19" class="node">
<title>Node19</title>
<g id="a_node19"><a xlink:title=" ">
<polygon fill="white" stroke="#bfbfbf" points="362.5,-224.5 362.5,-243.5 415.5,-243.5 415.5,-224.5 362.5,-224.5"/>
<text text-anchor="middle" x="389" y="-231.5" font-family="Helvetica,sans-Serif" font-size="10.00">iterator</text>
</a>
</g>
</g>
<!-- Node18&#45;&gt;Node19 -->
<g id="edge22" class="edge">
<title>Node18&#45;&gt;Node19</title>
<path fill="none" stroke="midnightblue" d="M389,-280.08C389,-273.01 389,-262.86 389,-253.99"/>
<polygon fill="midnightblue" stroke="midnightblue" points="392.5,-253.75 389,-243.75 385.5,-253.75 392.5,-253.75"/>
</g>
<!-- Node20&#45;&gt;Node3 -->
<g id="edge24" class="edge">
<title>Node20&#45;&gt;Node3</title>
<path fill="none" stroke="midnightblue" d="M461.58,-224.44C413.48,-214.96 335.91,-199.67 284.19,-189.48"/>
<polygon fill="midnightblue" stroke="midnightblue" points="284.7,-186.02 274.21,-187.52 283.35,-192.88 284.7,-186.02"/>
</g>
<!-- Node20&#45;&gt;Node10 -->
<g id="edge30" class="edge">
<title>Node20&#45;&gt;Node10</title>
<path fill="none" stroke="midnightblue" d="M576.73,-227.71C627.34,-220.79 682.43,-204.82 660,-168 602.94,-74.31 470.01,-34.09 400.36,-18.95"/>
<polygon fill="midnightblue" stroke="midnightblue" points="401.07,-15.53 390.56,-16.9 399.63,-22.38 401.07,-15.53"/>
</g>
<!-- Node21 -->
<g id="node21" class="node">
<title>Node21</title>
<g id="a_node21"><a xlink:href="protocol_2error_8h.html" target="_top" xlink:title=" ">
<polygon fill="white" stroke="black" points="309,-168.5 309,-187.5 451,-187.5 451,-168.5 309,-168.5"/>
<text text-anchor="middle" x="380" y="-175.5" font-family="Helvetica,sans-Serif" font-size="10.00">emlabcpp/protocol/error.h</text>
</a>
</g>
</g>
<!-- Node20&#45;&gt;Node21 -->
<g id="edge25" class="edge">
<title>Node20&#45;&gt;Node21</title>
<path fill="none" stroke="midnightblue" d="M485.19,-224.44C464.71,-215.6 432.52,-201.69 409.14,-191.59"/>
<polygon fill="midnightblue" stroke="midnightblue" points="410.28,-188.27 399.71,-187.52 407.51,-194.7 410.28,-188.27"/>
</g>
<!-- Node23 -->
<g id="node23" class="node">
<title>Node23</title>
<g id="a_node23"><a xlink:title=" ">
<polygon fill="white" stroke="#bfbfbf" points="469,-168.5 469,-187.5 513,-187.5 513,-168.5 469,-168.5"/>
<text text-anchor="middle" x="491" y="-175.5" font-family="Helvetica,sans-Serif" font-size="10.00">bitset</text>
</a>
</g>
</g>
<!-- Node20&#45;&gt;Node23 -->
<g id="edge28" class="edge">
<title>Node20&#45;&gt;Node23</title>
<path fill="none" stroke="midnightblue" d="M502.69,-224.08C500.83,-216.93 498.16,-206.64 495.85,-197.69"/>
<polygon fill="midnightblue" stroke="midnightblue" points="499.17,-196.55 493.27,-187.75 492.39,-198.31 499.17,-196.55"/>
</g>
<!-- Node24 -->
<g id="node24" class="node">
<title>Node24</title>
<g id="a_node24"><a xlink:title=" ">
<polygon fill="white" stroke="#bfbfbf" points="531,-168.5 531,-187.5 581,-187.5 581,-168.5 531,-168.5"/>
<text text-anchor="middle" x="556" y="-175.5" font-family="Helvetica,sans-Serif" font-size="10.00">cstring</text>
</a>
</g>
</g>
<!-- Node20&#45;&gt;Node24 -->
<g id="edge29" class="edge">
<title>Node20&#45;&gt;Node24</title>
<path fill="none" stroke="midnightblue" d="M513.42,-224.08C520.85,-216.22 531.85,-204.57 540.81,-195.08"/>
<polygon fill="midnightblue" stroke="midnightblue" points="543.41,-197.42 547.74,-187.75 538.32,-192.62 543.41,-197.42"/>
</g>
<!-- Node25 -->
<g id="node25" class="node">
<title>Node25</title>
<g id="a_node25"><a xlink:title=" ">
<polygon fill="white" stroke="#bfbfbf" points="599.5,-168.5 599.5,-187.5 650.5,-187.5 650.5,-168.5 599.5,-168.5"/>
<text text-anchor="middle" x="625" y="-175.5" font-family="Helvetica,sans-Serif" font-size="10.00">variant</text>
</a>
</g>
</g>
<!-- Node20&#45;&gt;Node25 -->
<g id="edge31" class="edge">
<title>Node20&#45;&gt;Node25</title>
<path fill="none" stroke="midnightblue" d="M524.01,-224.44C543.59,-215.64 574.31,-201.81 596.73,-191.72"/>
<polygon fill="midnightblue" stroke="midnightblue" points="598.39,-194.81 606.07,-187.52 595.52,-188.43 598.39,-194.81"/>
</g>
<!-- Node21&#45;&gt;Node6 -->
<g id="edge27" class="edge">
<title>Node21&#45;&gt;Node6</title>
<path fill="none" stroke="midnightblue" d="M375.04,-168.47C363.5,-148.68 333.98,-98.1 309,-56 303.59,-46.88 297.51,-36.74 292.5,-28.41"/>
<polygon fill="midnightblue" stroke="midnightblue" points="295.36,-26.37 287.2,-19.61 289.36,-29.98 295.36,-26.37"/>
</g>
<!-- Node22 -->
<g id="node22" class="node">
<title>Node22</title>
<g id="a_node22"><a xlink:title=" ">
<polygon fill="white" stroke="#bfbfbf" points="408,-112.5 408,-131.5 472,-131.5 472,-112.5 408,-112.5"/>
<text text-anchor="middle" x="440" y="-119.5" font-family="Helvetica,sans-Serif" font-size="10.00">algorithm</text>
</a>
</g>
</g>
<!-- Node21&#45;&gt;Node22 -->
<g id="edge26" class="edge">
<title>Node21&#45;&gt;Node22</title>
<path fill="none" stroke="midnightblue" d="M389.64,-168.32C398.51,-160.34 411.87,-148.31 422.61,-138.65"/>
<polygon fill="midnightblue" stroke="midnightblue" points="425.09,-141.13 430.18,-131.83 420.41,-135.92 425.09,-141.13"/>
</g>
</g>
</svg>
