<?xml version="1.0" encoding="UTF-8" standalone="no"?>
<!DOCTYPE svg PUBLIC "-//W3C//DTD SVG 1.1//EN"
 "http://www.w3.org/Graphics/SVG/1.1/DTD/svg11.dtd">
<!-- Generated by graphviz version 2.43.0 (0)
 -->
<!-- Title: include/emlabcpp/protocol/serializer.h Pages: 1 -->
<svg width="742pt" height="218pt"
 viewBox="0.00 0.00 741.50 218.00" xmlns="http://www.w3.org/2000/svg" xmlns:xlink="http://www.w3.org/1999/xlink">
<g id="graph0" class="graph" transform="scale(1 1) rotate(0) translate(4 214)">
<title>include/emlabcpp/protocol/serializer.h</title>
<polygon fill="white" stroke="transparent" points="-4,4 -4,-214 737.5,-214 737.5,4 -4,4"/>
<!-- Node1 -->
<g id="node1" class="node">
<title>Node1</title>
<g id="a_node1"><a xlink:title=" ">
<polygon fill="#bfbfbf" stroke="black" points="361,-179.5 361,-209.5 507,-209.5 507,-179.5 361,-179.5"/>
<text text-anchor="start" x="369" y="-197.5" font-family="Helvetica,sans-Serif" font-size="10.00">include/emlabcpp/protocol</text>
<text text-anchor="middle" x="434" y="-186.5" font-family="Helvetica,sans-Serif" font-size="10.00">/serializer.h</text>
</a>
</g>
</g>
<!-- Node2 -->
<g id="node2" class="node">
<title>Node2</title>
<g id="a_node2"><a xlink:href="bounded__view_8h.html" target="_top" xlink:title=" ">
<polygon fill="white" stroke="black" points="161.5,-112.5 161.5,-142.5 294.5,-142.5 294.5,-112.5 161.5,-112.5"/>
<text text-anchor="start" x="169.5" y="-130.5" font-family="Helvetica,sans-Serif" font-size="10.00">emlabcpp/experimental</text>
<text text-anchor="middle" x="228" y="-119.5" font-family="Helvetica,sans-Serif" font-size="10.00">/bounded_view.h</text>
</a>
</g>
</g>
<!-- Node1&#45;&gt;Node2 -->
<g id="edge1" class="edge">
<title>Node1&#45;&gt;Node2</title>
<path fill="none" stroke="midnightblue" d="M389.55,-179.48C358.12,-169.56 315.79,-156.2 282.35,-145.65"/>
<polygon fill="midnightblue" stroke="midnightblue" points="283.31,-142.28 272.72,-142.61 281.2,-148.96 283.31,-142.28"/>
</g>
<!-- Node21 -->
<g id="node6" class="node">
<title>Node21</title>
<g id="a_node6"><a xlink:href="numeric_8h.html" target="_top" xlink:title=" ">
<polygon fill="white" stroke="black" points="18.5,-112.5 18.5,-142.5 127.5,-142.5 127.5,-112.5 18.5,-112.5"/>
<text text-anchor="start" x="26.5" y="-130.5" font-family="Helvetica,sans-Serif" font-size="10.00">emlabcpp/iterators</text>
<text text-anchor="middle" x="73" y="-119.5" font-family="Helvetica,sans-Serif" font-size="10.00">/numeric.h</text>
</a>
</g>
</g>
<!-- Node1&#45;&gt;Node21 -->
<g id="edge5" class="edge">
<title>Node1&#45;&gt;Node21</title>
<path fill="none" stroke="midnightblue" d="M360.95,-180.51C304.01,-170.36 222.96,-155.87 152,-143 147.36,-142.16 142.56,-141.29 137.73,-140.4"/>
<polygon fill="midnightblue" stroke="midnightblue" points="138.28,-136.95 127.82,-138.59 137.03,-143.83 138.28,-136.95"/>
</g>
<!-- Node23 -->
<g id="node8" class="node">
<title>Node23</title>
<g id="a_node8"><a xlink:href="protocol_2base_8h.html" target="_top" xlink:title=" ">
<polygon fill="white" stroke="black" points="362.5,-118 362.5,-137 505.5,-137 505.5,-118 362.5,-118"/>
<text text-anchor="middle" x="434" y="-125" font-family="Helvetica,sans-Serif" font-size="10.00">emlabcpp/protocol/base.h</text>
</a>
</g>
</g>
<!-- Node1&#45;&gt;Node23 -->
<g id="edge8" class="edge">
<title>Node1&#45;&gt;Node23</title>
<path fill="none" stroke="midnightblue" d="M434,-179.4C434,-170.06 434,-157.71 434,-147.52"/>
<polygon fill="midnightblue" stroke="midnightblue" points="437.5,-147.19 434,-137.19 430.5,-147.19 437.5,-147.19"/>
</g>
<!-- Node26 -->
<g id="node10" class="node">
<title>Node26</title>
<g id="a_node10"><a xlink:title=" ">
<polygon fill="white" stroke="#bfbfbf" points="704.5,-56.5 704.5,-75.5 733.5,-75.5 733.5,-56.5 704.5,-56.5"/>
<text text-anchor="middle" x="719" y="-63.5" font-family="Helvetica,sans-Serif" font-size="10.00">bit</text>
</a>
</g>
</g>
<!-- Node1&#45;&gt;Node26 -->
<g id="edge16" class="edge">
<title>Node1&#45;&gt;Node26</title>
<path fill="none" stroke="midnightblue" d="M458.27,-179.47C474.63,-169.74 496.53,-156.21 515,-143 532.73,-130.32 533.53,-121.8 553,-112 608.43,-84.1 630.75,-94.36 694.63,-75.74"/>
<polygon fill="midnightblue" stroke="midnightblue" points="695.82,-79.04 704.37,-72.78 693.78,-72.34 695.82,-79.04"/>
</g>
<!-- Node29 -->
<g id="node14" class="node">
<title>Node29</title>
<g id="a_node14"><a xlink:title=" ">
<polygon fill="white" stroke="#bfbfbf" points="562,-118 562,-137 602,-137 602,-118 562,-118"/>
<text text-anchor="middle" x="582" y="-125" font-family="Helvetica,sans-Serif" font-size="10.00">span</text>
</a>
</g>
</g>
<!-- Node1&#45;&gt;Node29 -->
<g id="edge17" class="edge">
<title>Node1&#45;&gt;Node29</title>
<path fill="none" stroke="midnightblue" d="M466.11,-179.4C492.08,-167.99 528.31,-152.08 553.32,-141.1"/>
<polygon fill="midnightblue" stroke="midnightblue" points="554.88,-144.23 562.63,-137.01 552.07,-137.82 554.88,-144.23"/>
</g>
<!-- Node3 -->
<g id="node3" class="node">
<title>Node3</title>
<g id="a_node3"><a xlink:href="bounded_8h.html" target="_top" xlink:title=" ">
<polygon fill="white" stroke="red" points="168.5,-56.5 168.5,-75.5 287.5,-75.5 287.5,-56.5 168.5,-56.5"/>
<text text-anchor="middle" x="228" y="-63.5" font-family="Helvetica,sans-Serif" font-size="10.00">emlabcpp/bounded.h</text>
</a>
</g>
</g>
<!-- Node2&#45;&gt;Node3 -->
<g id="edge2" class="edge">
<title>Node2&#45;&gt;Node3</title>
<path fill="none" stroke="midnightblue" d="M228,-112.4C228,-104.47 228,-94.46 228,-85.86"/>
<polygon fill="midnightblue" stroke="midnightblue" points="231.5,-85.66 228,-75.66 224.5,-85.66 231.5,-85.66"/>
</g>
<!-- Node18 -->
<g id="node5" class="node">
<title>Node18</title>
<g id="a_node5"><a xlink:href="view_8h.html" target="_top" xlink:title=" ">
<polygon fill="white" stroke="red" points="65.5,-0.5 65.5,-19.5 164.5,-19.5 164.5,-0.5 65.5,-0.5"/>
<text text-anchor="middle" x="115" y="-7.5" font-family="Helvetica,sans-Serif" font-size="10.00">emlabcpp/view.h</text>
</a>
</g>
</g>
<!-- Node2&#45;&gt;Node18 -->
<g id="edge4" class="edge">
<title>Node2&#45;&gt;Node18</title>
<path fill="none" stroke="midnightblue" d="M204.69,-112.36C190.52,-103.09 172.6,-90.11 159,-76 145.15,-61.63 132.75,-42.43 124.67,-28.63"/>
<polygon fill="midnightblue" stroke="midnightblue" points="127.57,-26.65 119.59,-19.68 121.48,-30.1 127.57,-26.65"/>
</g>
<!-- Node10 -->
<g id="node4" class="node">
<title>Node10</title>
<g id="a_node4"><a xlink:title=" ">
<polygon fill="white" stroke="#bfbfbf" points="217.5,-0.5 217.5,-19.5 286.5,-19.5 286.5,-0.5 217.5,-0.5"/>
<text text-anchor="middle" x="252" y="-7.5" font-family="Helvetica,sans-Serif" font-size="10.00">type_traits</text>
</a>
</g>
</g>
<!-- Node3&#45;&gt;Node10 -->
<g id="edge3" class="edge">
<title>Node3&#45;&gt;Node10</title>
<path fill="none" stroke="midnightblue" d="M231.96,-56.08C235.21,-48.77 239.92,-38.18 243.95,-29.1"/>
<polygon fill="midnightblue" stroke="midnightblue" points="247.25,-30.31 248.11,-19.75 240.85,-27.47 247.25,-30.31"/>
</g>
<!-- Node22 -->
<g id="node7" class="node">
<title>Node22</title>
<g id="a_node7"><a xlink:href="iterator_8h.html" target="_top" xlink:title=" ">
<polygon fill="white" stroke="red" points="0,-56.5 0,-75.5 112,-75.5 112,-56.5 0,-56.5"/>
<text text-anchor="middle" x="56" y="-63.5" font-family="Helvetica,sans-Serif" font-size="10.00">emlabcpp/iterator.h</text>
</a>
</g>
</g>
<!-- Node21&#45;&gt;Node22 -->
<g id="edge6" class="edge">
<title>Node21&#45;&gt;Node22</title>
<path fill="none" stroke="midnightblue" d="M68.97,-112.4C66.65,-104.29 63.72,-94.01 61.22,-85.28"/>
<polygon fill="midnightblue" stroke="midnightblue" points="64.59,-84.31 58.47,-75.66 57.86,-86.23 64.59,-84.31"/>
</g>
<!-- Node22&#45;&gt;Node18 -->
<g id="edge7" class="edge">
<title>Node22&#45;&gt;Node18</title>
<path fill="none" stroke="midnightblue" d="M65.48,-56.32C74.2,-48.34 87.34,-36.31 97.9,-26.65"/>
<polygon fill="midnightblue" stroke="midnightblue" points="100.33,-29.17 105.35,-19.83 95.61,-24 100.33,-29.17"/>
</g>
<!-- Node23&#45;&gt;Node3 -->
<g id="edge9" class="edge">
<title>Node23&#45;&gt;Node3</title>
<path fill="none" stroke="midnightblue" d="M404.49,-117.98C368.38,-107.55 307.15,-89.86 267.15,-78.31"/>
<polygon fill="midnightblue" stroke="midnightblue" points="268.04,-74.92 257.46,-75.51 266.1,-81.65 268.04,-74.92"/>
</g>
<!-- Node23&#45;&gt;Node10 -->
<g id="edge14" class="edge">
<title>Node23&#45;&gt;Node10</title>
<path fill="none" stroke="midnightblue" d="M414.42,-117.88C393.99,-108.57 361.35,-92.82 335,-76 311.09,-60.74 285.71,-40.13 269.4,-26.25"/>
<polygon fill="midnightblue" stroke="midnightblue" points="271.62,-23.54 261.76,-19.66 267.05,-28.84 271.62,-23.54"/>
</g>
<!-- Node24 -->
<g id="node9" class="node">
<title>Node24</title>
<g id="a_node9"><a xlink:href="protocol_2error_8h.html" target="_top" xlink:title=" ">
<polygon fill="white" stroke="red" points="414,-56.5 414,-75.5 556,-75.5 556,-56.5 414,-56.5"/>
<text text-anchor="middle" x="485" y="-63.5" font-family="Helvetica,sans-Serif" font-size="10.00">emlabcpp/protocol/error.h</text>
</a>
</g>
</g>
<!-- Node23&#45;&gt;Node24 -->
<g id="edge10" class="edge">
<title>Node23&#45;&gt;Node24</title>
<path fill="none" stroke="midnightblue" d="M441.31,-117.98C449.03,-108.96 461.41,-94.52 471.02,-83.31"/>
<polygon fill="midnightblue" stroke="midnightblue" points="473.86,-85.38 477.71,-75.51 468.54,-80.82 473.86,-85.38"/>
</g>
<!-- Node23&#45;&gt;Node26 -->
<g id="edge11" class="edge">
<title>Node23&#45;&gt;Node26</title>
<path fill="none" stroke="midnightblue" d="M483.36,-117.97C543.5,-107.41 642.58,-89.44 694.65,-75.62"/>
<polygon fill="midnightblue" stroke="midnightblue" points="695.7,-78.96 704.41,-72.92 693.83,-72.21 695.7,-78.96"/>
</g>
<!-- Node27 -->
<g id="node11" class="node">
<title>Node27</title>
<g id="a_node11"><a xlink:title=" ">
<polygon fill="white" stroke="#bfbfbf" points="574,-56.5 574,-75.5 618,-75.5 618,-56.5 574,-56.5"/>
<text text-anchor="middle" x="596" y="-63.5" font-family="Helvetica,sans-Serif" font-size="10.00">bitset</text>
</a>
</g>
</g>
<!-- Node23&#45;&gt;Node27 -->
<g id="edge12" class="edge">
<title>Node23&#45;&gt;Node27</title>
<path fill="none" stroke="midnightblue" d="M457.21,-117.98C485.32,-107.65 532.79,-90.22 564.26,-78.66"/>
<polygon fill="midnightblue" stroke="midnightblue" points="565.69,-81.86 573.87,-75.13 563.28,-75.29 565.69,-81.86"/>
</g>
<!-- Node28 -->
<g id="node12" class="node">
<title>Node28</title>
<g id="a_node12"><a xlink:title=" ">
<polygon fill="white" stroke="#bfbfbf" points="636,-56.5 636,-75.5 686,-75.5 686,-56.5 636,-56.5"/>
<text text-anchor="middle" x="661" y="-63.5" font-family="Helvetica,sans-Serif" font-size="10.00">cstring</text>
</a>
</g>
</g>
<!-- Node23&#45;&gt;Node28 -->
<g id="edge13" class="edge">
<title>Node23&#45;&gt;Node28</title>
<path fill="none" stroke="midnightblue" d="M466.79,-117.95C503.25,-108.44 564.14,-92.53 625.85,-76.3"/>
<polygon fill="midnightblue" stroke="midnightblue" points="626.97,-79.62 635.75,-73.69 625.19,-72.85 626.97,-79.62"/>
</g>
<!-- Node14 -->
<g id="node13" class="node">
<title>Node14</title>
<g id="a_node13"><a xlink:title=" ">
<polygon fill="white" stroke="#bfbfbf" points="344.5,-56.5 344.5,-75.5 395.5,-75.5 395.5,-56.5 344.5,-56.5"/>
<text text-anchor="middle" x="370" y="-63.5" font-family="Helvetica,sans-Serif" font-size="10.00">variant</text>
</a>
</g>
</g>
<!-- Node23&#45;&gt;Node14 -->
<g id="edge15" class="edge">
<title>Node23&#45;&gt;Node14</title>
<path fill="none" stroke="midnightblue" d="M424.83,-117.98C414.85,-108.7 398.69,-93.67 386.49,-82.33"/>
<polygon fill="midnightblue" stroke="midnightblue" points="388.86,-79.75 379.15,-75.51 384.09,-84.88 388.86,-79.75"/>
</g>
</g>
</svg>
