<?xml version="1.0" encoding="UTF-8" standalone="no"?>
<!DOCTYPE svg PUBLIC "-//W3C//DTD SVG 1.1//EN"
 "http://www.w3.org/Graphics/SVG/1.1/DTD/svg11.dtd">
<!-- Generated by graphviz version 2.43.0 (0)
 -->
<!-- Title: include/emlabcpp/protocol/serializer.h Pages: 1 -->
<svg width="830pt" height="229pt"
 viewBox="0.00 0.00 830.28 229.00" xmlns="http://www.w3.org/2000/svg" xmlns:xlink="http://www.w3.org/1999/xlink">
<g id="graph0" class="graph" transform="scale(1 1) rotate(0) translate(4 225)">
<title>include/emlabcpp/protocol/serializer.h</title>
<polygon fill="white" stroke="transparent" points="-4,4 -4,-225 826.28,-225 826.28,4 -4,4"/>
<!-- Node1 -->
<g id="node1" class="node">
<title>Node1</title>
<g id="a_node1"><a xlink:title=" ">
<polygon fill="#bfbfbf" stroke="black" points="415.78,-190.5 415.78,-220.5 561.78,-220.5 561.78,-190.5 415.78,-190.5"/>
<text text-anchor="start" x="423.78" y="-208.5" font-family="Helvetica,sans-Serif" font-size="10.00">include/emlabcpp/protocol</text>
<text text-anchor="middle" x="488.78" y="-197.5" font-family="Helvetica,sans-Serif" font-size="10.00">/serializer.h</text>
</a>
</g>
</g>
<!-- Node2 -->
<g id="node2" class="node">
<title>Node2</title>
<g id="a_node2"><a xlink:href="bounded__view_8h.html" target="_top" xlink:title=" ">
<polygon fill="white" stroke="black" points="124.28,-123.5 124.28,-153.5 257.28,-153.5 257.28,-123.5 124.28,-123.5"/>
<text text-anchor="start" x="132.28" y="-141.5" font-family="Helvetica,sans-Serif" font-size="10.00">emlabcpp/experimental</text>
<text text-anchor="middle" x="190.78" y="-130.5" font-family="Helvetica,sans-Serif" font-size="10.00">/bounded_view.h</text>
</a>
</g>
</g>
<!-- Node1&#45;&gt;Node2 -->
<g id="edge1" class="edge">
<title>Node1&#45;&gt;Node2</title>
<path fill="none" stroke="midnightblue" d="M424.49,-190.48C377.66,-180.26 314.13,-166.41 265.13,-155.72"/>
<polygon fill="midnightblue" stroke="midnightblue" points="265.73,-152.27 255.22,-153.55 264.24,-159.11 265.73,-152.27"/>
</g>
<!-- Node19 -->
<g id="node6" class="node">
<title>Node19</title>
<g id="a_node6"><a xlink:title=" ">
<polygon fill="white" stroke="#bfbfbf" points="4.78,-0.5 4.78,-19.5 44.78,-19.5 44.78,-0.5 4.78,-0.5"/>
<text text-anchor="middle" x="24.78" y="-7.5" font-family="Helvetica,sans-Serif" font-size="10.00">span</text>
</a>
</g>
</g>
<!-- Node1&#45;&gt;Node19 -->
<g id="edge17" class="edge">
<title>Node1&#45;&gt;Node19</title>
<path fill="none" stroke="midnightblue" d="M415.71,-203.45C338.78,-200.33 215.13,-189.57 114.78,-154 60.83,-134.88 32.82,-136.91 4.78,-87 -5.62,-68.48 4.02,-44.38 13.18,-28.33"/>
<polygon fill="midnightblue" stroke="midnightblue" points="16.36,-29.85 18.64,-19.5 10.4,-26.17 16.36,-29.85"/>
</g>
<!-- Node20 -->
<g id="node7" class="node">
<title>Node20</title>
<g id="a_node7"><a xlink:href="protocol_2base_8h.html" target="_top" xlink:title=" ">
<polygon fill="white" stroke="black" points="417.28,-129 417.28,-148 560.28,-148 560.28,-129 417.28,-129"/>
<text text-anchor="middle" x="488.78" y="-136" font-family="Helvetica,sans-Serif" font-size="10.00">emlabcpp/protocol/base.h</text>
</a>
</g>
</g>
<!-- Node1&#45;&gt;Node20 -->
<g id="edge6" class="edge">
<title>Node1&#45;&gt;Node20</title>
<path fill="none" stroke="midnightblue" d="M488.78,-190.4C488.78,-181.06 488.78,-168.71 488.78,-158.52"/>
<polygon fill="midnightblue" stroke="midnightblue" points="492.28,-158.19 488.78,-148.19 485.28,-158.19 492.28,-158.19"/>
</g>
<!-- Node26 -->
<g id="node9" class="node">
<title>Node26</title>
<g id="a_node9"><a xlink:title=" ">
<polygon fill="white" stroke="#bfbfbf" points="666.28,-62 666.28,-81 695.28,-81 695.28,-62 666.28,-62"/>
<text text-anchor="middle" x="680.78" y="-69" font-family="Helvetica,sans-Serif" font-size="10.00">bit</text>
</a>
</g>
</g>
<!-- Node1&#45;&gt;Node26 -->
<g id="edge16" class="edge">
<title>Node1&#45;&gt;Node26</title>
<path fill="none" stroke="midnightblue" d="M512.48,-190.38C528.79,-180.5 550.85,-166.83 569.78,-154 602.66,-131.73 639.61,-104.04 661.5,-87.35"/>
<polygon fill="midnightblue" stroke="midnightblue" points="663.82,-89.98 669.64,-81.12 659.57,-84.42 663.82,-89.98"/>
</g>
<!-- Node28 -->
<g id="node13" class="node">
<title>Node28</title>
<g id="a_node13"><a xlink:href="range_8h.html" target="_top" xlink:title=" ">
<polygon fill="white" stroke="black" points="688.78,-129 688.78,-148 792.78,-148 792.78,-129 688.78,-129"/>
<text text-anchor="middle" x="740.78" y="-136" font-family="Helvetica,sans-Serif" font-size="10.00">emlabcpp/range.h</text>
</a>
</g>
</g>
<!-- Node1&#45;&gt;Node28 -->
<g id="edge14" class="edge">
<title>Node1&#45;&gt;Node28</title>
<path fill="none" stroke="midnightblue" d="M543.15,-190.48C589.5,-178.52 655.21,-161.57 697.91,-150.56"/>
<polygon fill="midnightblue" stroke="midnightblue" points="698.91,-153.92 707.71,-148.03 697.16,-147.14 698.91,-153.92"/>
</g>
<!-- Node3 -->
<g id="node3" class="node">
<title>Node3</title>
<g id="a_node3"><a xlink:href="bounded_8h.html" target="_top" xlink:title=" ">
<polygon fill="white" stroke="red" points="131.28,-62 131.28,-81 250.28,-81 250.28,-62 131.28,-62"/>
<text text-anchor="middle" x="190.78" y="-69" font-family="Helvetica,sans-Serif" font-size="10.00">emlabcpp/bounded.h</text>
</a>
</g>
</g>
<!-- Node2&#45;&gt;Node3 -->
<g id="edge2" class="edge">
<title>Node2&#45;&gt;Node3</title>
<path fill="none" stroke="midnightblue" d="M190.78,-123.4C190.78,-114.06 190.78,-101.71 190.78,-91.52"/>
<polygon fill="midnightblue" stroke="midnightblue" points="194.28,-91.19 190.78,-81.19 187.28,-91.19 194.28,-91.19"/>
</g>
<!-- Node16 -->
<g id="node5" class="node">
<title>Node16</title>
<g id="a_node5"><a xlink:href="view_8h.html" target="_top" xlink:title=" ">
<polygon fill="white" stroke="red" points="14.28,-62 14.28,-81 113.28,-81 113.28,-62 14.28,-62"/>
<text text-anchor="middle" x="63.78" y="-69" font-family="Helvetica,sans-Serif" font-size="10.00">emlabcpp/view.h</text>
</a>
</g>
</g>
<!-- Node2&#45;&gt;Node16 -->
<g id="edge4" class="edge">
<title>Node2&#45;&gt;Node16</title>
<path fill="none" stroke="midnightblue" d="M163.22,-123.4C141.33,-112.19 110.95,-96.64 89.54,-85.69"/>
<polygon fill="midnightblue" stroke="midnightblue" points="90.9,-82.45 80.4,-81.01 87.71,-88.68 90.9,-82.45"/>
</g>
<!-- Node10 -->
<g id="node4" class="node">
<title>Node10</title>
<g id="a_node4"><a xlink:title=" ">
<polygon fill="white" stroke="#bfbfbf" points="200.28,-0.5 200.28,-19.5 269.28,-19.5 269.28,-0.5 200.28,-0.5"/>
<text text-anchor="middle" x="234.78" y="-7.5" font-family="Helvetica,sans-Serif" font-size="10.00">type_traits</text>
</a>
</g>
</g>
<!-- Node3&#45;&gt;Node10 -->
<g id="edge3" class="edge">
<title>Node3&#45;&gt;Node10</title>
<path fill="none" stroke="midnightblue" d="M197.08,-61.98C203.68,-53.05 214.22,-38.81 222.47,-27.64"/>
<polygon fill="midnightblue" stroke="midnightblue" points="225.36,-29.63 228.49,-19.51 219.73,-25.47 225.36,-29.63"/>
</g>
<!-- Node16&#45;&gt;Node19 -->
<g id="edge5" class="edge">
<title>Node16&#45;&gt;Node19</title>
<path fill="none" stroke="midnightblue" d="M58.19,-61.98C52.4,-53.14 43.19,-39.09 35.91,-27.98"/>
<polygon fill="midnightblue" stroke="midnightblue" points="38.77,-25.95 30.36,-19.51 32.91,-29.79 38.77,-25.95"/>
</g>
<!-- Node20&#45;&gt;Node3 -->
<g id="edge7" class="edge">
<title>Node20&#45;&gt;Node3</title>
<path fill="none" stroke="midnightblue" d="M449.52,-128.94C395.58,-117.17 298.6,-96.02 239.92,-83.22"/>
<polygon fill="midnightblue" stroke="midnightblue" points="240.65,-79.8 230.13,-81.08 239.16,-86.63 240.65,-79.8"/>
</g>
<!-- Node20&#45;&gt;Node10 -->
<g id="edge12" class="edge">
<title>Node20&#45;&gt;Node10</title>
<path fill="none" stroke="midnightblue" d="M416.93,-129.25C379.18,-122.36 333.48,-109.81 297.78,-87 274.38,-72.05 255.37,-45.59 244.56,-28.17"/>
<polygon fill="midnightblue" stroke="midnightblue" points="247.55,-26.35 239.42,-19.55 241.54,-29.93 247.55,-26.35"/>
</g>
<!-- Node21 -->
<g id="node8" class="node">
<title>Node21</title>
<g id="a_node8"><a xlink:href="protocol_2error_8h.html" target="_top" xlink:title=" ">
<polygon fill="white" stroke="red" points="306.78,-62 306.78,-81 448.78,-81 448.78,-62 306.78,-62"/>
<text text-anchor="middle" x="377.78" y="-69" font-family="Helvetica,sans-Serif" font-size="10.00">emlabcpp/protocol/error.h</text>
</a>
</g>
</g>
<!-- Node20&#45;&gt;Node21 -->
<g id="edge8" class="edge">
<title>Node20&#45;&gt;Node21</title>
<path fill="none" stroke="midnightblue" d="M473.81,-128.73C455.17,-117.82 423.12,-99.05 401.21,-86.22"/>
<polygon fill="midnightblue" stroke="midnightblue" points="402.91,-83.16 392.51,-81.13 399.37,-89.2 402.91,-83.16"/>
</g>
<!-- Node20&#45;&gt;Node26 -->
<g id="edge9" class="edge">
<title>Node20&#45;&gt;Node26</title>
<path fill="none" stroke="midnightblue" d="M528.12,-128.96C563.09,-120.63 615.12,-106.38 657.78,-87 658.34,-86.74 658.91,-86.48 659.48,-86.2"/>
<polygon fill="midnightblue" stroke="midnightblue" points="661.48,-89.08 668.47,-81.12 658.04,-82.99 661.48,-89.08"/>
</g>
<!-- Node27 -->
<g id="node10" class="node">
<title>Node27</title>
<g id="a_node10"><a xlink:title=" ">
<polygon fill="white" stroke="#bfbfbf" points="466.78,-62 466.78,-81 510.78,-81 510.78,-62 466.78,-62"/>
<text text-anchor="middle" x="488.78" y="-69" font-family="Helvetica,sans-Serif" font-size="10.00">bitset</text>
</a>
</g>
</g>
<!-- Node20&#45;&gt;Node27 -->
<g id="edge10" class="edge">
<title>Node20&#45;&gt;Node27</title>
<path fill="none" stroke="midnightblue" d="M488.78,-128.73C488.78,-119.18 488.78,-103.62 488.78,-91.28"/>
<polygon fill="midnightblue" stroke="midnightblue" points="492.28,-91.13 488.78,-81.13 485.28,-91.13 492.28,-91.13"/>
</g>
<!-- Node24 -->
<g id="node11" class="node">
<title>Node24</title>
<g id="a_node11"><a xlink:title=" ">
<polygon fill="white" stroke="#bfbfbf" points="528.78,-62 528.78,-81 578.78,-81 578.78,-62 528.78,-62"/>
<text text-anchor="middle" x="553.78" y="-69" font-family="Helvetica,sans-Serif" font-size="10.00">cstring</text>
</a>
</g>
</g>
<!-- Node20&#45;&gt;Node24 -->
<g id="edge11" class="edge">
<title>Node20&#45;&gt;Node24</title>
<path fill="none" stroke="midnightblue" d="M497.55,-128.73C507.88,-118.4 525.24,-101.04 537.95,-88.33"/>
<polygon fill="midnightblue" stroke="midnightblue" points="540.56,-90.67 545.15,-81.13 535.61,-85.72 540.56,-90.67"/>
</g>
<!-- Node14 -->
<g id="node12" class="node">
<title>Node14</title>
<g id="a_node12"><a xlink:title=" ">
<polygon fill="white" stroke="#bfbfbf" points="597.28,-62 597.28,-81 648.28,-81 648.28,-62 597.28,-62"/>
<text text-anchor="middle" x="622.78" y="-69" font-family="Helvetica,sans-Serif" font-size="10.00">variant</text>
</a>
</g>
</g>
<!-- Node20&#45;&gt;Node14 -->
<g id="edge13" class="edge">
<title>Node20&#45;&gt;Node14</title>
<path fill="none" stroke="midnightblue" d="M506.57,-128.87C529.4,-117.8 569.21,-98.49 595.78,-85.6"/>
<polygon fill="midnightblue" stroke="midnightblue" points="597.44,-88.68 604.91,-81.17 594.39,-82.38 597.44,-88.68"/>
</g>
<!-- Node29 -->
<g id="node14" class="node">
<title>Node29</title>
<g id="a_node14"><a xlink:href="numeric_8h.html" target="_top" xlink:title=" ">
<polygon fill="white" stroke="red" points="713.28,-56.5 713.28,-86.5 822.28,-86.5 822.28,-56.5 713.28,-56.5"/>
<text text-anchor="start" x="721.28" y="-74.5" font-family="Helvetica,sans-Serif" font-size="10.00">emlabcpp/iterators</text>
<text text-anchor="middle" x="767.78" y="-63.5" font-family="Helvetica,sans-Serif" font-size="10.00">/numeric.h</text>
</a>
</g>
</g>
<!-- Node28&#45;&gt;Node29 -->
<g id="edge15" class="edge">
<title>Node28&#45;&gt;Node29</title>
<path fill="none" stroke="midnightblue" d="M744.42,-128.73C747.89,-120.37 753.28,-107.4 758.01,-96.02"/>
<polygon fill="midnightblue" stroke="midnightblue" points="761.32,-97.17 761.93,-86.59 754.86,-94.48 761.32,-97.17"/>
</g>
</g>
</svg>
