<?xml version="1.0" encoding="UTF-8" standalone="no"?>
<!DOCTYPE svg PUBLIC "-//W3C//DTD SVG 1.1//EN"
 "http://www.w3.org/Graphics/SVG/1.1/DTD/svg11.dtd">
<!-- Generated by graphviz version 2.43.0 (0)
 -->
<!-- Title: include/emlabcpp/protocol/serializer.h Pages: 1 -->
<svg width="773pt" height="218pt"
 viewBox="0.00 0.00 772.50 218.00" xmlns="http://www.w3.org/2000/svg" xmlns:xlink="http://www.w3.org/1999/xlink">
<g id="graph0" class="graph" transform="scale(1 1) rotate(0) translate(4 214)">
<title>include/emlabcpp/protocol/serializer.h</title>
<polygon fill="white" stroke="transparent" points="-4,4 -4,-214 768.5,-214 768.5,4 -4,4"/>
<!-- Node1 -->
<g id="node1" class="node">
<title>Node1</title>
<g id="a_node1"><a xlink:title=" ">
<polygon fill="#bfbfbf" stroke="black" points="501.5,-179.5 501.5,-209.5 647.5,-209.5 647.5,-179.5 501.5,-179.5"/>
<text text-anchor="start" x="509.5" y="-197.5" font-family="Helvetica,sans-Serif" font-size="10.00">include/emlabcpp/protocol</text>
<text text-anchor="middle" x="574.5" y="-186.5" font-family="Helvetica,sans-Serif" font-size="10.00">/serializer.h</text>
</a>
</g>
</g>
<!-- Node2 -->
<g id="node2" class="node">
<title>Node2</title>
<g id="a_node2"><a xlink:href="bounded__view_8h.html" target="_top" xlink:title=" ">
<polygon fill="white" stroke="black" points="110,-112.5 110,-142.5 243,-142.5 243,-112.5 110,-112.5"/>
<text text-anchor="start" x="118" y="-130.5" font-family="Helvetica,sans-Serif" font-size="10.00">emlabcpp/experimental</text>
<text text-anchor="middle" x="176.5" y="-119.5" font-family="Helvetica,sans-Serif" font-size="10.00">/bounded_view.h</text>
</a>
</g>
</g>
<!-- Node1&#45;&gt;Node2 -->
<g id="edge1" class="edge">
<title>Node1&#45;&gt;Node2</title>
<path fill="none" stroke="midnightblue" d="M501.04,-181.5C430.71,-170.02 325.03,-152.76 253.54,-141.08"/>
<polygon fill="midnightblue" stroke="midnightblue" points="253.68,-137.56 243.25,-139.4 252.55,-144.47 253.68,-137.56"/>
</g>
<!-- Node38 -->
<g id="node6" class="node">
<title>Node38</title>
<g id="a_node6"><a xlink:href="protocol_2base_8h.html" target="_top" xlink:title=" ">
<polygon fill="white" stroke="black" points="403,-118 403,-137 546,-137 546,-118 403,-118"/>
<text text-anchor="middle" x="474.5" y="-125" font-family="Helvetica,sans-Serif" font-size="10.00">emlabcpp/protocol/base.h</text>
</a>
</g>
</g>
<!-- Node1&#45;&gt;Node38 -->
<g id="edge5" class="edge">
<title>Node1&#45;&gt;Node38</title>
<path fill="none" stroke="midnightblue" d="M552.8,-179.4C536.03,-168.5 512.93,-153.48 496.17,-142.58"/>
<polygon fill="midnightblue" stroke="midnightblue" points="497.88,-139.52 487.59,-137.01 494.06,-145.39 497.88,-139.52"/>
</g>
<!-- Node42 -->
<g id="node8" class="node">
<title>Node42</title>
<g id="a_node8"><a xlink:title=" ">
<polygon fill="white" stroke="#bfbfbf" points="652,-56.5 652,-75.5 681,-75.5 681,-56.5 652,-56.5"/>
<text text-anchor="middle" x="666.5" y="-63.5" font-family="Helvetica,sans-Serif" font-size="10.00">bit</text>
</a>
</g>
</g>
<!-- Node1&#45;&gt;Node42 -->
<g id="edge14" class="edge">
<title>Node1&#45;&gt;Node42</title>
<path fill="none" stroke="midnightblue" d="M574.58,-179.49C575.35,-162.1 578.9,-132.28 593.5,-112 600.05,-102.9 624.14,-88.94 642.88,-78.98"/>
<polygon fill="midnightblue" stroke="midnightblue" points="644.57,-82.05 651.81,-74.32 641.33,-75.85 644.57,-82.05"/>
</g>
<!-- Node21 -->
<g id="node12" class="node">
<title>Node21</title>
<g id="a_node12"><a xlink:href="range_8h.html" target="_top" xlink:title=" ">
<polygon fill="white" stroke="red" points="602.5,-118 602.5,-137 706.5,-137 706.5,-118 602.5,-118"/>
<text text-anchor="middle" x="654.5" y="-125" font-family="Helvetica,sans-Serif" font-size="10.00">emlabcpp/range.h</text>
</a>
</g>
</g>
<!-- Node1&#45;&gt;Node21 -->
<g id="edge13" class="edge">
<title>Node1&#45;&gt;Node21</title>
<path fill="none" stroke="midnightblue" d="M591.86,-179.4C604.83,-168.86 622.53,-154.48 635.81,-143.69"/>
<polygon fill="midnightblue" stroke="midnightblue" points="638.24,-146.22 643.8,-137.19 633.83,-140.78 638.24,-146.22"/>
</g>
<!-- Node34 -->
<g id="node13" class="node">
<title>Node34</title>
<g id="a_node13"><a xlink:title=" ">
<polygon fill="white" stroke="#bfbfbf" points="724.5,-118 724.5,-137 764.5,-137 764.5,-118 724.5,-118"/>
<text text-anchor="middle" x="744.5" y="-125" font-family="Helvetica,sans-Serif" font-size="10.00">span</text>
</a>
</g>
</g>
<!-- Node1&#45;&gt;Node34 -->
<g id="edge15" class="edge">
<title>Node1&#45;&gt;Node34</title>
<path fill="none" stroke="midnightblue" d="M617.9,-179.46C646.05,-169.98 683.34,-156.74 715.5,-143 716.66,-142.5 717.85,-141.98 719.04,-141.44"/>
<polygon fill="midnightblue" stroke="midnightblue" points="720.57,-144.59 728.1,-137.13 717.56,-138.27 720.57,-144.59"/>
</g>
<!-- Node3 -->
<g id="node3" class="node">
<title>Node3</title>
<g id="a_node3"><a xlink:href="bounded_8h.html" target="_top" xlink:title=" ">
<polygon fill="white" stroke="red" points="117,-56.5 117,-75.5 236,-75.5 236,-56.5 117,-56.5"/>
<text text-anchor="middle" x="176.5" y="-63.5" font-family="Helvetica,sans-Serif" font-size="10.00">emlabcpp/bounded.h</text>
</a>
</g>
</g>
<!-- Node2&#45;&gt;Node3 -->
<g id="edge2" class="edge">
<title>Node2&#45;&gt;Node3</title>
<path fill="none" stroke="midnightblue" d="M176.5,-112.4C176.5,-104.47 176.5,-94.46 176.5,-85.86"/>
<polygon fill="midnightblue" stroke="midnightblue" points="180,-85.66 176.5,-75.66 173,-85.66 180,-85.66"/>
</g>
<!-- Node24 -->
<g id="node5" class="node">
<title>Node24</title>
<g id="a_node5"><a xlink:href="view_8h.html" target="_top" xlink:title=" ">
<polygon fill="white" stroke="red" points="0,-56.5 0,-75.5 99,-75.5 99,-56.5 0,-56.5"/>
<text text-anchor="middle" x="49.5" y="-63.5" font-family="Helvetica,sans-Serif" font-size="10.00">emlabcpp/view.h</text>
</a>
</g>
</g>
<!-- Node2&#45;&gt;Node24 -->
<g id="edge4" class="edge">
<title>Node2&#45;&gt;Node24</title>
<path fill="none" stroke="midnightblue" d="M146.4,-112.4C125.38,-102.55 97.53,-89.5 77.08,-79.92"/>
<polygon fill="midnightblue" stroke="midnightblue" points="78.52,-76.73 67.98,-75.66 75.55,-83.07 78.52,-76.73"/>
</g>
<!-- Node10 -->
<g id="node4" class="node">
<title>Node10</title>
<g id="a_node4"><a xlink:title=" ">
<polygon fill="white" stroke="#bfbfbf" points="186,-0.5 186,-19.5 255,-19.5 255,-0.5 186,-0.5"/>
<text text-anchor="middle" x="220.5" y="-7.5" font-family="Helvetica,sans-Serif" font-size="10.00">type_traits</text>
</a>
</g>
</g>
<!-- Node3&#45;&gt;Node10 -->
<g id="edge3" class="edge">
<title>Node3&#45;&gt;Node10</title>
<path fill="none" stroke="midnightblue" d="M183.77,-56.08C190.04,-48.38 199.29,-37.03 206.93,-27.65"/>
<polygon fill="midnightblue" stroke="midnightblue" points="209.77,-29.71 213.37,-19.75 204.34,-25.29 209.77,-29.71"/>
</g>
<!-- Node38&#45;&gt;Node3 -->
<g id="edge6" class="edge">
<title>Node38&#45;&gt;Node3</title>
<path fill="none" stroke="midnightblue" d="M431.8,-117.98C378.36,-107.3 286.85,-89.03 229.13,-77.51"/>
<polygon fill="midnightblue" stroke="midnightblue" points="229.61,-74.03 219.12,-75.51 228.24,-80.9 229.61,-74.03"/>
</g>
<!-- Node38&#45;&gt;Node10 -->
<g id="edge11" class="edge">
<title>Node38&#45;&gt;Node10</title>
<path fill="none" stroke="midnightblue" d="M407.86,-117.97C369.51,-110.91 321.53,-98.27 283.5,-76 262.61,-63.77 244.05,-42.72 232.58,-27.9"/>
<polygon fill="midnightblue" stroke="midnightblue" points="235.18,-25.53 226.4,-19.61 229.57,-29.72 235.18,-25.53"/>
</g>
<!-- Node39 -->
<g id="node7" class="node">
<title>Node39</title>
<g id="a_node7"><a xlink:href="protocol_2error_8h.html" target="_top" xlink:title=" ">
<polygon fill="white" stroke="red" points="292.5,-56.5 292.5,-75.5 434.5,-75.5 434.5,-56.5 292.5,-56.5"/>
<text text-anchor="middle" x="363.5" y="-63.5" font-family="Helvetica,sans-Serif" font-size="10.00">emlabcpp/protocol/error.h</text>
</a>
</g>
</g>
<!-- Node38&#45;&gt;Node39 -->
<g id="edge7" class="edge">
<title>Node38&#45;&gt;Node39</title>
<path fill="none" stroke="midnightblue" d="M458.6,-117.98C440.22,-108.12 409.74,-91.79 388.26,-80.27"/>
<polygon fill="midnightblue" stroke="midnightblue" points="389.84,-77.15 379.37,-75.51 386.53,-83.32 389.84,-77.15"/>
</g>
<!-- Node38&#45;&gt;Node42 -->
<g id="edge8" class="edge">
<title>Node38&#45;&gt;Node42</title>
<path fill="none" stroke="midnightblue" d="M505.89,-117.96C538.08,-109.02 589.74,-94.16 642.46,-76.17"/>
<polygon fill="midnightblue" stroke="midnightblue" points="643.65,-79.46 651.97,-72.9 641.37,-72.84 643.65,-79.46"/>
</g>
<!-- Node27 -->
<g id="node9" class="node">
<title>Node27</title>
<g id="a_node9"><a xlink:title=" ">
<polygon fill="white" stroke="#bfbfbf" points="452.5,-56.5 452.5,-75.5 496.5,-75.5 496.5,-56.5 452.5,-56.5"/>
<text text-anchor="middle" x="474.5" y="-63.5" font-family="Helvetica,sans-Serif" font-size="10.00">bitset</text>
</a>
</g>
</g>
<!-- Node38&#45;&gt;Node27 -->
<g id="edge9" class="edge">
<title>Node38&#45;&gt;Node27</title>
<path fill="none" stroke="midnightblue" d="M474.5,-117.98C474.5,-109.58 474.5,-96.48 474.5,-85.66"/>
<polygon fill="midnightblue" stroke="midnightblue" points="478,-85.51 474.5,-75.51 471,-85.51 478,-85.51"/>
</g>
<!-- Node43 -->
<g id="node10" class="node">
<title>Node43</title>
<g id="a_node10"><a xlink:title=" ">
<polygon fill="white" stroke="#bfbfbf" points="514.5,-56.5 514.5,-75.5 564.5,-75.5 564.5,-56.5 514.5,-56.5"/>
<text text-anchor="middle" x="539.5" y="-63.5" font-family="Helvetica,sans-Serif" font-size="10.00">cstring</text>
</a>
</g>
</g>
<!-- Node38&#45;&gt;Node43 -->
<g id="edge10" class="edge">
<title>Node38&#45;&gt;Node43</title>
<path fill="none" stroke="midnightblue" d="M483.81,-117.98C493.95,-108.7 510.36,-93.67 522.75,-82.33"/>
<polygon fill="midnightblue" stroke="midnightblue" points="525.19,-84.84 530.2,-75.51 520.46,-79.68 525.19,-84.84"/>
</g>
<!-- Node14 -->
<g id="node11" class="node">
<title>Node14</title>
<g id="a_node11"><a xlink:title=" ">
<polygon fill="white" stroke="#bfbfbf" points="583,-56.5 583,-75.5 634,-75.5 634,-56.5 583,-56.5"/>
<text text-anchor="middle" x="608.5" y="-63.5" font-family="Helvetica,sans-Serif" font-size="10.00">variant</text>
</a>
</g>
</g>
<!-- Node38&#45;&gt;Node14 -->
<g id="edge12" class="edge">
<title>Node38&#45;&gt;Node14</title>
<path fill="none" stroke="midnightblue" d="M493.7,-117.98C516.29,-107.95 554,-91.2 580,-79.65"/>
<polygon fill="midnightblue" stroke="midnightblue" points="581.62,-82.77 589.34,-75.51 578.78,-76.37 581.62,-82.77"/>
</g>
</g>
</svg>
