<?xml version="1.0" encoding="UTF-8" standalone="no"?>
<!DOCTYPE svg PUBLIC "-//W3C//DTD SVG 1.1//EN"
 "http://www.w3.org/Graphics/SVG/1.1/DTD/svg11.dtd">
<!-- Generated by graphviz version 2.43.0 (0)
 -->
<!-- Title: include/emlabcpp/protocol/serializer.h Pages: 1 -->
<svg width="668pt" height="218pt"
 viewBox="0.00 0.00 667.82 218.00" xmlns="http://www.w3.org/2000/svg" xmlns:xlink="http://www.w3.org/1999/xlink">
<g id="graph0" class="graph" transform="scale(1 1) rotate(0) translate(4 214)">
<title>include/emlabcpp/protocol/serializer.h</title>
<polygon fill="white" stroke="transparent" points="-4,4 -4,-214 663.82,-214 663.82,4 -4,4"/>
<!-- Node1 -->
<g id="node1" class="node">
<title>Node1</title>
<g id="a_node1"><a xlink:title=" ">
<polygon fill="#bfbfbf" stroke="black" points="172.32,-179.5 172.32,-209.5 318.32,-209.5 318.32,-179.5 172.32,-179.5"/>
<text text-anchor="start" x="180.32" y="-197.5" font-family="Helvetica,sans-Serif" font-size="10.00">include/emlabcpp/protocol</text>
<text text-anchor="middle" x="245.32" y="-186.5" font-family="Helvetica,sans-Serif" font-size="10.00">/serializer.h</text>
</a>
</g>
</g>
<!-- Node2 -->
<g id="node2" class="node">
<title>Node2</title>
<g id="a_node2"><a xlink:href="bounded__view_8h.html" target="_top" xlink:title=" ">
<polygon fill="white" stroke="black" points="177.32,-112.5 177.32,-142.5 313.32,-142.5 313.32,-112.5 177.32,-112.5"/>
<text text-anchor="start" x="185.32" y="-130.5" font-family="Helvetica,sans-Serif" font-size="10.00">../experimental/bounded</text>
<text text-anchor="middle" x="245.32" y="-119.5" font-family="Helvetica,sans-Serif" font-size="10.00">_view.h</text>
</a>
</g>
</g>
<!-- Node1&#45;&gt;Node2 -->
<g id="edge1" class="edge">
<title>Node1&#45;&gt;Node2</title>
<path fill="none" stroke="midnightblue" d="M245.32,-179.4C245.32,-171.64 245.32,-161.81 245.32,-152.86"/>
<polygon fill="midnightblue" stroke="midnightblue" points="248.82,-152.58 245.32,-142.58 241.82,-152.58 248.82,-152.58"/>
</g>
<!-- Node19 -->
<g id="node6" class="node">
<title>Node19</title>
<g id="a_node6"><a xlink:title=" ">
<polygon fill="white" stroke="#bfbfbf" points="64.32,-0.5 64.32,-19.5 104.32,-19.5 104.32,-0.5 64.32,-0.5"/>
<text text-anchor="middle" x="84.32" y="-7.5" font-family="Helvetica,sans-Serif" font-size="10.00">span</text>
</a>
</g>
</g>
<!-- Node1&#45;&gt;Node19 -->
<g id="edge17" class="edge">
<title>Node1&#45;&gt;Node19</title>
<path fill="none" stroke="midnightblue" d="M172.22,-186.9C133.7,-180.5 87.33,-167.87 52.32,-143 16.83,-117.79 -14.35,-93.76 7.32,-56 17.43,-38.37 37.41,-26.99 54.48,-20.09"/>
<polygon fill="midnightblue" stroke="midnightblue" points="55.94,-23.28 64.1,-16.52 53.51,-16.72 55.94,-23.28"/>
</g>
<!-- Node20 -->
<g id="node7" class="node">
<title>Node20</title>
<g id="a_node7"><a xlink:href="range_8h.html" target="_top" xlink:title=" ">
<polygon fill="white" stroke="black" points="61.32,-118 61.32,-137 123.32,-137 123.32,-118 61.32,-118"/>
<text text-anchor="middle" x="92.32" y="-125" font-family="Helvetica,sans-Serif" font-size="10.00">../range.h</text>
</a>
</g>
</g>
<!-- Node1&#45;&gt;Node20 -->
<g id="edge6" class="edge">
<title>Node1&#45;&gt;Node20</title>
<path fill="none" stroke="midnightblue" d="M212.12,-179.4C185.15,-167.94 147.49,-151.94 121.63,-140.95"/>
<polygon fill="midnightblue" stroke="midnightblue" points="122.91,-137.7 112.34,-137.01 120.17,-144.14 122.91,-137.7"/>
</g>
<!-- Node23 -->
<g id="node9" class="node">
<title>Node23</title>
<g id="a_node9"><a xlink:href="protocol_2base_8h.html" target="_top" xlink:title=" ">
<polygon fill="white" stroke="black" points="391.82,-118 391.82,-137 446.82,-137 446.82,-118 391.82,-118"/>
<text text-anchor="middle" x="419.32" y="-125" font-family="Helvetica,sans-Serif" font-size="10.00">./base.h</text>
</a>
</g>
</g>
<!-- Node1&#45;&gt;Node23 -->
<g id="edge8" class="edge">
<title>Node1&#45;&gt;Node23</title>
<path fill="none" stroke="midnightblue" d="M283.07,-179.4C314.14,-167.79 357.71,-151.51 387.14,-140.52"/>
<polygon fill="midnightblue" stroke="midnightblue" points="388.4,-143.79 396.54,-137.01 385.95,-137.23 388.4,-143.79"/>
</g>
<!-- Node29 -->
<g id="node11" class="node">
<title>Node29</title>
<g id="a_node11"><a xlink:title=" ">
<polygon fill="white" stroke="#bfbfbf" points="630.82,-56.5 630.82,-75.5 659.82,-75.5 659.82,-56.5 630.82,-56.5"/>
<text text-anchor="middle" x="645.32" y="-63.5" font-family="Helvetica,sans-Serif" font-size="10.00">bit</text>
</a>
</g>
</g>
<!-- Node1&#45;&gt;Node29 -->
<g id="edge16" class="edge">
<title>Node1&#45;&gt;Node29</title>
<path fill="none" stroke="midnightblue" d="M315.4,-179.44C356.81,-170.47 410.02,-157.76 456.32,-143 516.73,-123.74 585.23,-94.18 620.85,-78.19"/>
<polygon fill="midnightblue" stroke="midnightblue" points="622.73,-81.18 630.4,-73.88 619.85,-74.81 622.73,-81.18"/>
</g>
<!-- Node3 -->
<g id="node3" class="node">
<title>Node3</title>
<g id="a_node3"><a xlink:href="bounded_8h.html" target="_top" xlink:title=" ">
<polygon fill="white" stroke="red" points="225.82,-56.5 225.82,-75.5 302.82,-75.5 302.82,-56.5 225.82,-56.5"/>
<text text-anchor="middle" x="264.32" y="-63.5" font-family="Helvetica,sans-Serif" font-size="10.00">../bounded.h</text>
</a>
</g>
</g>
<!-- Node2&#45;&gt;Node3 -->
<g id="edge2" class="edge">
<title>Node2&#45;&gt;Node3</title>
<path fill="none" stroke="midnightblue" d="M249.82,-112.4C252.41,-104.29 255.69,-94.01 258.48,-85.28"/>
<polygon fill="midnightblue" stroke="midnightblue" points="261.84,-86.25 261.55,-75.66 255.17,-84.12 261.84,-86.25"/>
</g>
<!-- Node16 -->
<g id="node5" class="node">
<title>Node16</title>
<g id="a_node5"><a xlink:href="view_8h.html" target="_top" xlink:title=" ">
<polygon fill="white" stroke="red" points="150.82,-56.5 150.82,-75.5 207.82,-75.5 207.82,-56.5 150.82,-56.5"/>
<text text-anchor="middle" x="179.32" y="-63.5" font-family="Helvetica,sans-Serif" font-size="10.00">../view.h</text>
</a>
</g>
</g>
<!-- Node2&#45;&gt;Node16 -->
<g id="edge4" class="edge">
<title>Node2&#45;&gt;Node16</title>
<path fill="none" stroke="midnightblue" d="M229.67,-112.4C219.69,-103.4 206.74,-91.72 196.47,-82.47"/>
<polygon fill="midnightblue" stroke="midnightblue" points="198.69,-79.75 188.92,-75.66 194,-84.95 198.69,-79.75"/>
</g>
<!-- Node10 -->
<g id="node4" class="node">
<title>Node10</title>
<g id="a_node4"><a xlink:title=" ">
<polygon fill="white" stroke="#bfbfbf" points="262.82,-0.5 262.82,-19.5 331.82,-19.5 331.82,-0.5 262.82,-0.5"/>
<text text-anchor="middle" x="297.32" y="-7.5" font-family="Helvetica,sans-Serif" font-size="10.00">type_traits</text>
</a>
</g>
</g>
<!-- Node3&#45;&gt;Node10 -->
<g id="edge3" class="edge">
<title>Node3&#45;&gt;Node10</title>
<path fill="none" stroke="midnightblue" d="M269.76,-56.08C274.33,-48.61 280.98,-37.72 286.61,-28.52"/>
<polygon fill="midnightblue" stroke="midnightblue" points="289.74,-30.11 291.97,-19.75 283.77,-26.46 289.74,-30.11"/>
</g>
<!-- Node16&#45;&gt;Node19 -->
<g id="edge5" class="edge">
<title>Node16&#45;&gt;Node19</title>
<path fill="none" stroke="midnightblue" d="M164.05,-56.32C149.09,-47.82 126.06,-34.73 108.59,-24.8"/>
<polygon fill="midnightblue" stroke="midnightblue" points="109.96,-21.55 99.54,-19.65 106.51,-27.64 109.96,-21.55"/>
</g>
<!-- Node21 -->
<g id="node8" class="node">
<title>Node21</title>
<g id="a_node8"><a xlink:href="numeric_8h.html" target="_top" xlink:title=" ">
<polygon fill="white" stroke="red" points="16.32,-56.5 16.32,-75.5 132.32,-75.5 132.32,-56.5 16.32,-56.5"/>
<text text-anchor="middle" x="74.32" y="-63.5" font-family="Helvetica,sans-Serif" font-size="10.00">./iterators/numeric.h</text>
</a>
</g>
</g>
<!-- Node20&#45;&gt;Node21 -->
<g id="edge7" class="edge">
<title>Node20&#45;&gt;Node21</title>
<path fill="none" stroke="midnightblue" d="M89.74,-117.98C87.17,-109.49 83.15,-96.2 79.86,-85.32"/>
<polygon fill="midnightblue" stroke="midnightblue" points="83.14,-84.07 76.89,-75.51 76.44,-86.09 83.14,-84.07"/>
</g>
<!-- Node23&#45;&gt;Node3 -->
<g id="edge9" class="edge">
<title>Node23&#45;&gt;Node3</title>
<path fill="none" stroke="midnightblue" d="M397.11,-117.98C370.63,-107.81 326.2,-90.76 296.1,-79.2"/>
<polygon fill="midnightblue" stroke="midnightblue" points="297.07,-75.83 286.48,-75.51 294.56,-82.36 297.07,-75.83"/>
</g>
<!-- Node23&#45;&gt;Node10 -->
<g id="edge14" class="edge">
<title>Node23&#45;&gt;Node10</title>
<path fill="none" stroke="midnightblue" d="M405.56,-117.94C391.04,-108.58 367.87,-92.66 350.32,-76 334.7,-61.18 319.44,-41.79 309.33,-28.06"/>
<polygon fill="midnightblue" stroke="midnightblue" points="311.91,-25.65 303.22,-19.58 306.23,-29.74 311.91,-25.65"/>
</g>
<!-- Node24 -->
<g id="node10" class="node">
<title>Node24</title>
<g id="a_node10"><a xlink:href="protocol_2error_8h.html" target="_top" xlink:title=" ">
<polygon fill="white" stroke="red" points="359.32,-56.5 359.32,-75.5 413.32,-75.5 413.32,-56.5 359.32,-56.5"/>
<text text-anchor="middle" x="386.32" y="-63.5" font-family="Helvetica,sans-Serif" font-size="10.00">./error.h</text>
</a>
</g>
</g>
<!-- Node23&#45;&gt;Node24 -->
<g id="edge10" class="edge">
<title>Node23&#45;&gt;Node24</title>
<path fill="none" stroke="midnightblue" d="M414.59,-117.98C409.74,-109.23 402.05,-95.37 395.92,-84.31"/>
<polygon fill="midnightblue" stroke="midnightblue" points="398.95,-82.56 391.03,-75.51 392.82,-85.95 398.95,-82.56"/>
</g>
<!-- Node23&#45;&gt;Node29 -->
<g id="edge11" class="edge">
<title>Node23&#45;&gt;Node29</title>
<path fill="none" stroke="midnightblue" d="M446.88,-120.83C484.38,-112.86 553.66,-97.23 620.48,-76.31"/>
<polygon fill="midnightblue" stroke="midnightblue" points="621.85,-79.55 630.32,-73.19 619.73,-72.88 621.85,-79.55"/>
</g>
<!-- Node30 -->
<g id="node12" class="node">
<title>Node30</title>
<g id="a_node12"><a xlink:title=" ">
<polygon fill="white" stroke="#bfbfbf" points="431.32,-56.5 431.32,-75.5 475.32,-75.5 475.32,-56.5 431.32,-56.5"/>
<text text-anchor="middle" x="453.32" y="-63.5" font-family="Helvetica,sans-Serif" font-size="10.00">bitset</text>
</a>
</g>
</g>
<!-- Node23&#45;&gt;Node30 -->
<g id="edge12" class="edge">
<title>Node23&#45;&gt;Node30</title>
<path fill="none" stroke="midnightblue" d="M424.19,-117.98C429.19,-109.23 437.1,-95.37 443.42,-84.31"/>
<polygon fill="midnightblue" stroke="midnightblue" points="446.53,-85.93 448.45,-75.51 440.45,-82.46 446.53,-85.93"/>
</g>
<!-- Node27 -->
<g id="node13" class="node">
<title>Node27</title>
<g id="a_node13"><a xlink:title=" ">
<polygon fill="white" stroke="#bfbfbf" points="493.32,-56.5 493.32,-75.5 543.32,-75.5 543.32,-56.5 493.32,-56.5"/>
<text text-anchor="middle" x="518.32" y="-63.5" font-family="Helvetica,sans-Serif" font-size="10.00">cstring</text>
</a>
</g>
</g>
<!-- Node23&#45;&gt;Node27 -->
<g id="edge13" class="edge">
<title>Node23&#45;&gt;Node27</title>
<path fill="none" stroke="midnightblue" d="M433.5,-117.98C449.67,-108.25 476.34,-92.23 495.46,-80.74"/>
<polygon fill="midnightblue" stroke="midnightblue" points="497.39,-83.66 504.16,-75.51 493.78,-77.66 497.39,-83.66"/>
</g>
<!-- Node14 -->
<g id="node14" class="node">
<title>Node14</title>
<g id="a_node14"><a xlink:title=" ">
<polygon fill="white" stroke="#bfbfbf" points="561.82,-56.5 561.82,-75.5 612.82,-75.5 612.82,-56.5 561.82,-56.5"/>
<text text-anchor="middle" x="587.32" y="-63.5" font-family="Helvetica,sans-Serif" font-size="10.00">variant</text>
</a>
</g>
</g>
<!-- Node23&#45;&gt;Node14 -->
<g id="edge15" class="edge">
<title>Node23&#45;&gt;Node14</title>
<path fill="none" stroke="midnightblue" d="M443.39,-117.98C472.33,-107.72 521.08,-90.46 553.72,-78.9"/>
<polygon fill="midnightblue" stroke="midnightblue" points="555.03,-82.15 563.29,-75.51 552.7,-75.55 555.03,-82.15"/>
</g>
</g>
</svg>
