<?xml version="1.0" encoding="UTF-8" standalone="no"?>
<!DOCTYPE svg PUBLIC "-//W3C//DTD SVG 1.1//EN"
 "http://www.w3.org/Graphics/SVG/1.1/DTD/svg11.dtd">
<!-- Generated by graphviz version 2.43.0 (0)
 -->
<!-- Title: include/emlabcpp/experimental/geom/simplex.h Pages: 1 -->
<svg width="861pt" height="430pt"
 viewBox="0.00 0.00 861.00 430.00" xmlns="http://www.w3.org/2000/svg" xmlns:xlink="http://www.w3.org/1999/xlink">
<g id="graph0" class="graph" transform="scale(1 1) rotate(0) translate(4 426)">
<title>include/emlabcpp/experimental/geom/simplex.h</title>
<polygon fill="white" stroke="transparent" points="-4,4 -4,-426 857,-426 857,4 -4,4"/>
<!-- Node1 -->
<g id="node1" class="node">
<title>Node1</title>
<g id="a_node1"><a xlink:title=" ">
<polygon fill="#bfbfbf" stroke="black" points="551,-391.5 551,-421.5 722,-421.5 722,-391.5 551,-391.5"/>
<text text-anchor="start" x="559" y="-409.5" font-family="Helvetica,sans-Serif" font-size="10.00">include/emlabcpp/experimental</text>
<text text-anchor="middle" x="636.5" y="-398.5" font-family="Helvetica,sans-Serif" font-size="10.00">/geom/simplex.h</text>
</a>
</g>
</g>
<!-- Node2 -->
<g id="node2" class="node">
<title>Node2</title>
<g id="a_node2"><a xlink:href="algorithm_8h.html" target="_top" xlink:title=" ">
<polygon fill="white" stroke="black" points="307.5,-129 307.5,-148 431.5,-148 431.5,-129 307.5,-129"/>
<text text-anchor="middle" x="369.5" y="-136" font-family="Helvetica,sans-Serif" font-size="10.00">emlabcpp/algorithm.h</text>
</a>
</g>
</g>
<!-- Node1&#45;&gt;Node2 -->
<g id="edge1" class="edge">
<title>Node1&#45;&gt;Node2</title>
<path fill="none" stroke="midnightblue" d="M556.86,-391.45C531.07,-383.91 503.68,-372.44 482.5,-355 417.07,-301.14 384.8,-199.36 373.89,-157.84"/>
<polygon fill="midnightblue" stroke="midnightblue" points="377.26,-156.86 371.42,-148.02 370.47,-158.57 377.26,-156.86"/>
</g>
<!-- Node41 -->
<g id="node10" class="node">
<title>Node41</title>
<g id="a_node10"><a xlink:href="point_8h.html" target="_top" xlink:title=" ">
<polygon fill="white" stroke="black" points="512,-324.5 512,-354.5 645,-354.5 645,-324.5 512,-324.5"/>
<text text-anchor="start" x="520" y="-342.5" font-family="Helvetica,sans-Serif" font-size="10.00">emlabcpp/experimental</text>
<text text-anchor="middle" x="578.5" y="-331.5" font-family="Helvetica,sans-Serif" font-size="10.00">/geom/point.h</text>
</a>
</g>
</g>
<!-- Node1&#45;&gt;Node41 -->
<g id="edge12" class="edge">
<title>Node1&#45;&gt;Node41</title>
<path fill="none" stroke="midnightblue" d="M623.91,-391.4C616.31,-382.88 606.47,-371.85 597.89,-362.23"/>
<polygon fill="midnightblue" stroke="midnightblue" points="600.33,-359.71 591.06,-354.58 595.11,-364.37 600.33,-359.71"/>
</g>
<!-- Node49 -->
<g id="node14" class="node">
<title>Node49</title>
<g id="a_node14"><a xlink:href="matrix_8h.html" target="_top" xlink:title=" ">
<polygon fill="white" stroke="black" points="417,-190.5 417,-220.5 550,-220.5 550,-190.5 417,-190.5"/>
<text text-anchor="start" x="425" y="-208.5" font-family="Helvetica,sans-Serif" font-size="10.00">emlabcpp/experimental</text>
<text text-anchor="middle" x="483.5" y="-197.5" font-family="Helvetica,sans-Serif" font-size="10.00">/matrix.h</text>
</a>
</g>
</g>
<!-- Node1&#45;&gt;Node49 -->
<g id="edge19" class="edge">
<title>Node1&#45;&gt;Node49</title>
<path fill="none" stroke="midnightblue" d="M559.04,-391.42C538.09,-383.95 517.4,-372.51 503.5,-355 475.14,-319.28 476.25,-262.83 479.76,-230.8"/>
<polygon fill="midnightblue" stroke="midnightblue" points="483.27,-230.93 481.06,-220.57 476.33,-230.05 483.27,-230.93"/>
</g>
<!-- Node50 -->
<g id="node16" class="node">
<title>Node50</title>
<g id="a_node16"><a xlink:title=" ">
<polygon fill="white" stroke="#bfbfbf" points="663.5,-330 663.5,-349 727.5,-349 727.5,-330 663.5,-330"/>
<text text-anchor="middle" x="695.5" y="-337" font-family="Helvetica,sans-Serif" font-size="10.00">algorithm</text>
</a>
</g>
</g>
<!-- Node1&#45;&gt;Node50 -->
<g id="edge27" class="edge">
<title>Node1&#45;&gt;Node50</title>
<path fill="none" stroke="midnightblue" d="M649.3,-391.4C658.59,-381.16 671.18,-367.3 680.87,-356.62"/>
<polygon fill="midnightblue" stroke="midnightblue" points="683.48,-358.95 687.61,-349.19 678.3,-354.25 683.48,-358.95"/>
</g>
<!-- Node7 -->
<g id="node17" class="node">
<title>Node7</title>
<g id="a_node17"><a xlink:title=" ">
<polygon fill="white" stroke="#bfbfbf" points="745.5,-330 745.5,-349 787.5,-349 787.5,-330 745.5,-330"/>
<text text-anchor="middle" x="766.5" y="-337" font-family="Helvetica,sans-Serif" font-size="10.00">array</text>
</a>
</g>
</g>
<!-- Node1&#45;&gt;Node7 -->
<g id="edge28" class="edge">
<title>Node1&#45;&gt;Node7</title>
<path fill="none" stroke="midnightblue" d="M664.71,-391.4C687.22,-380.14 718.5,-364.5 740.42,-353.54"/>
<polygon fill="midnightblue" stroke="midnightblue" points="742.11,-356.61 749.49,-349.01 738.98,-350.35 742.11,-356.61"/>
</g>
<!-- Node12 -->
<g id="node18" class="node">
<title>Node12</title>
<g id="a_node18"><a xlink:title=" ">
<polygon fill="white" stroke="#bfbfbf" points="806,-330 806,-349 853,-349 853,-330 806,-330"/>
<text text-anchor="middle" x="829.5" y="-337" font-family="Helvetica,sans-Serif" font-size="10.00">vector</text>
</a>
</g>
</g>
<!-- Node1&#45;&gt;Node12 -->
<g id="edge29" class="edge">
<title>Node1&#45;&gt;Node12</title>
<path fill="none" stroke="midnightblue" d="M685.63,-391.49C717.53,-382.04 759.83,-368.8 796.5,-355 798.11,-354.39 799.76,-353.75 801.41,-353.09"/>
<polygon fill="midnightblue" stroke="midnightblue" points="802.94,-356.24 810.8,-349.14 800.22,-349.79 802.94,-356.24"/>
</g>
<!-- Node3 -->
<g id="node3" class="node">
<title>Node3</title>
<g id="a_node3"><a xlink:href="impl_8h.html" target="_top" xlink:title=" ">
<polygon fill="white" stroke="black" points="308,-56.5 308,-86.5 423,-86.5 423,-56.5 308,-56.5"/>
<text text-anchor="start" x="316" y="-74.5" font-family="Helvetica,sans-Serif" font-size="10.00">emlabcpp/algorithm</text>
<text text-anchor="middle" x="365.5" y="-63.5" font-family="Helvetica,sans-Serif" font-size="10.00">/impl.h</text>
</a>
</g>
</g>
<!-- Node2&#45;&gt;Node3 -->
<g id="edge2" class="edge">
<title>Node2&#45;&gt;Node3</title>
<path fill="none" stroke="midnightblue" d="M368.96,-128.73C368.46,-120.54 367.68,-107.92 366.99,-96.71"/>
<polygon fill="midnightblue" stroke="midnightblue" points="370.47,-96.36 366.37,-86.59 363.49,-96.79 370.47,-96.36"/>
</g>
<!-- Node4 -->
<g id="node4" class="node">
<title>Node4</title>
<g id="a_node4"><a xlink:href="types_8h.html" target="_top" xlink:title=" ">
<polygon fill="white" stroke="red" points="459.5,-0.5 459.5,-19.5 563.5,-19.5 563.5,-0.5 459.5,-0.5"/>
<text text-anchor="middle" x="511.5" y="-7.5" font-family="Helvetica,sans-Serif" font-size="10.00">emlabcpp/types.h</text>
</a>
</g>
</g>
<!-- Node2&#45;&gt;Node4 -->
<g id="edge6" class="edge">
<title>Node2&#45;&gt;Node4</title>
<path fill="none" stroke="midnightblue" d="M380.69,-128.81C393.27,-118.94 414.2,-102.22 431.5,-87 454.28,-66.95 479.5,-42.62 495.41,-26.98"/>
<polygon fill="midnightblue" stroke="midnightblue" points="498.17,-29.18 502.83,-19.66 493.25,-24.19 498.17,-29.18"/>
</g>
<!-- Node10 -->
<g id="node5" class="node">
<title>Node10</title>
<g id="a_node5"><a xlink:title=" ">
<polygon fill="white" stroke="#bfbfbf" points="345,-0.5 345,-19.5 386,-19.5 386,-0.5 345,-0.5"/>
<text text-anchor="middle" x="365.5" y="-7.5" font-family="Helvetica,sans-Serif" font-size="10.00">tuple</text>
</a>
</g>
</g>
<!-- Node2&#45;&gt;Node10 -->
<g id="edge11" class="edge">
<title>Node2&#45;&gt;Node10</title>
<path fill="none" stroke="midnightblue" d="M307.28,-134.93C235.15,-130.5 122.78,-118.59 96.5,-87 87.69,-76.41 87.6,-66.52 96.5,-56 126.72,-20.3 270.52,-12.9 334.58,-11.38"/>
<polygon fill="midnightblue" stroke="midnightblue" points="334.93,-14.88 344.86,-11.17 334.79,-7.88 334.93,-14.88"/>
</g>
<!-- Node17 -->
<g id="node6" class="node">
<title>Node17</title>
<g id="a_node6"><a xlink:href="bounded_8h.html" target="_top" xlink:title=" ">
<polygon fill="white" stroke="red" points="106,-62 106,-81 225,-81 225,-62 106,-62"/>
<text text-anchor="middle" x="165.5" y="-69" font-family="Helvetica,sans-Serif" font-size="10.00">emlabcpp/bounded.h</text>
</a>
</g>
</g>
<!-- Node2&#45;&gt;Node17 -->
<g id="edge5" class="edge">
<title>Node2&#45;&gt;Node17</title>
<path fill="none" stroke="midnightblue" d="M342.41,-128.87C306.34,-117.38 242.42,-97.01 202.09,-84.16"/>
<polygon fill="midnightblue" stroke="midnightblue" points="202.97,-80.76 192.38,-81.06 200.84,-87.43 202.97,-80.76"/>
</g>
<!-- Node27 -->
<g id="node7" class="node">
<title>Node27</title>
<g id="a_node7"><a xlink:href="view_8h.html" target="_top" xlink:title=" ">
<polygon fill="white" stroke="black" points="518,-62 518,-81 617,-81 617,-62 518,-62"/>
<text text-anchor="middle" x="567.5" y="-69" font-family="Helvetica,sans-Serif" font-size="10.00">emlabcpp/view.h</text>
</a>
</g>
</g>
<!-- Node2&#45;&gt;Node27 -->
<g id="edge7" class="edge">
<title>Node2&#45;&gt;Node27</title>
<path fill="none" stroke="midnightblue" d="M395.79,-128.87C430.73,-117.4 492.58,-97.09 531.74,-84.24"/>
<polygon fill="midnightblue" stroke="midnightblue" points="533,-87.51 541.41,-81.06 530.82,-80.86 533,-87.51"/>
</g>
<!-- Node39 -->
<g id="node8" class="node">
<title>Node39</title>
<g id="a_node8"><a xlink:title=" ">
<polygon fill="white" stroke="#bfbfbf" points="243,-62 243,-81 290,-81 290,-62 243,-62"/>
<text text-anchor="middle" x="266.5" y="-69" font-family="Helvetica,sans-Serif" font-size="10.00">cmath</text>
</a>
</g>
</g>
<!-- Node2&#45;&gt;Node39 -->
<g id="edge9" class="edge">
<title>Node2&#45;&gt;Node39</title>
<path fill="none" stroke="midnightblue" d="M355.61,-128.73C338.47,-117.92 309.1,-99.38 288.79,-86.57"/>
<polygon fill="midnightblue" stroke="midnightblue" points="290.5,-83.5 280.17,-81.13 286.76,-89.42 290.5,-83.5"/>
</g>
<!-- Node40 -->
<g id="node9" class="node">
<title>Node40</title>
<g id="a_node9"><a xlink:title=" ">
<polygon fill="white" stroke="#bfbfbf" points="0,-62 0,-81 49,-81 49,-62 0,-62"/>
<text text-anchor="middle" x="24.5" y="-69" font-family="Helvetica,sans-Serif" font-size="10.00">cstdlib</text>
</a>
</g>
</g>
<!-- Node2&#45;&gt;Node40 -->
<g id="edge10" class="edge">
<title>Node2&#45;&gt;Node40</title>
<path fill="none" stroke="midnightblue" d="M307.22,-130.79C244.86,-123.23 146.5,-109.06 63.5,-87 60.69,-86.25 57.79,-85.38 54.91,-84.44"/>
<polygon fill="midnightblue" stroke="midnightblue" points="55.91,-81.08 45.31,-81.08 53.59,-87.69 55.91,-81.08"/>
</g>
<!-- Node3&#45;&gt;Node4 -->
<g id="edge3" class="edge">
<title>Node3&#45;&gt;Node4</title>
<path fill="none" stroke="midnightblue" d="M400.1,-56.4C424.6,-46.42 457.16,-33.15 480.75,-23.53"/>
<polygon fill="midnightblue" stroke="midnightblue" points="482.32,-26.67 490.26,-19.66 479.67,-20.19 482.32,-26.67"/>
</g>
<!-- Node3&#45;&gt;Node10 -->
<g id="edge4" class="edge">
<title>Node3&#45;&gt;Node10</title>
<path fill="none" stroke="midnightblue" d="M365.5,-56.4C365.5,-48.47 365.5,-38.46 365.5,-29.86"/>
<polygon fill="midnightblue" stroke="midnightblue" points="369,-29.66 365.5,-19.66 362,-29.66 369,-29.66"/>
</g>
<!-- Node27&#45;&gt;Node4 -->
<g id="edge8" class="edge">
<title>Node27&#45;&gt;Node4</title>
<path fill="none" stroke="midnightblue" d="M559.48,-61.98C550.91,-52.87 537.14,-38.24 526.54,-26.98"/>
<polygon fill="midnightblue" stroke="midnightblue" points="528.91,-24.39 519.51,-19.51 523.81,-29.19 528.91,-24.39"/>
</g>
<!-- Node42 -->
<g id="node11" class="node">
<title>Node42</title>
<g id="a_node11"><a xlink:href="vec__point__base_8h.html" target="_top" xlink:title=" ">
<polygon fill="white" stroke="red" points="568,-190.5 568,-220.5 703,-220.5 703,-190.5 568,-190.5"/>
<text text-anchor="start" x="576" y="-208.5" font-family="Helvetica,sans-Serif" font-size="10.00">emlabcpp/experimental</text>
<text text-anchor="middle" x="635.5" y="-197.5" font-family="Helvetica,sans-Serif" font-size="10.00">/geom/vec_point_base.h</text>
</a>
</g>
</g>
<!-- Node41&#45;&gt;Node42 -->
<g id="edge13" class="edge">
<title>Node41&#45;&gt;Node42</title>
<path fill="none" stroke="midnightblue" d="M613.64,-324.45C629.11,-316.29 645.74,-304.34 654.5,-288 664.26,-269.8 657.33,-246.7 649.23,-229.74"/>
<polygon fill="midnightblue" stroke="midnightblue" points="652.17,-227.8 644.44,-220.54 645.96,-231.03 652.17,-227.8"/>
</g>
<!-- Node24 -->
<g id="node12" class="node">
<title>Node24</title>
<g id="a_node12"><a xlink:href="range_8h.html" target="_top" xlink:title=" ">
<polygon fill="white" stroke="red" points="673.5,-62 673.5,-81 777.5,-81 777.5,-62 673.5,-62"/>
<text text-anchor="middle" x="725.5" y="-69" font-family="Helvetica,sans-Serif" font-size="10.00">emlabcpp/range.h</text>
</a>
</g>
</g>
<!-- Node41&#45;&gt;Node24 -->
<g id="edge18" class="edge">
<title>Node41&#45;&gt;Node24</title>
<path fill="none" stroke="midnightblue" d="M613.55,-324.43C631.97,-315.84 654.07,-303.51 670.5,-288 696.06,-263.88 701.32,-254.32 712.5,-221 727.47,-176.36 727.73,-120.17 726.63,-91.39"/>
<polygon fill="midnightblue" stroke="midnightblue" points="730.11,-90.97 726.13,-81.16 723.12,-91.32 730.11,-90.97"/>
</g>
<!-- Node48 -->
<g id="node13" class="node">
<title>Node48</title>
<g id="a_node13"><a xlink:href="vector_8h.html" target="_top" xlink:title=" ">
<polygon fill="white" stroke="black" points="512,-257.5 512,-287.5 645,-287.5 645,-257.5 512,-257.5"/>
<text text-anchor="start" x="520" y="-275.5" font-family="Helvetica,sans-Serif" font-size="10.00">emlabcpp/experimental</text>
<text text-anchor="middle" x="578.5" y="-264.5" font-family="Helvetica,sans-Serif" font-size="10.00">/geom/vector.h</text>
</a>
</g>
</g>
<!-- Node41&#45;&gt;Node48 -->
<g id="edge16" class="edge">
<title>Node41&#45;&gt;Node48</title>
<path fill="none" stroke="midnightblue" d="M578.5,-324.4C578.5,-316.64 578.5,-306.81 578.5,-297.86"/>
<polygon fill="midnightblue" stroke="midnightblue" points="582,-297.58 578.5,-287.58 575,-297.58 582,-297.58"/>
</g>
<!-- Node42&#45;&gt;Node2 -->
<g id="edge14" class="edge">
<title>Node42&#45;&gt;Node2</title>
<path fill="none" stroke="midnightblue" d="M578.11,-190.48C528.98,-178.47 459.24,-161.43 414.18,-150.42"/>
<polygon fill="midnightblue" stroke="midnightblue" points="414.95,-147 404.4,-148.03 413.29,-153.8 414.95,-147"/>
</g>
<!-- Node42&#45;&gt;Node24 -->
<g id="edge15" class="edge">
<title>Node42&#45;&gt;Node24</title>
<path fill="none" stroke="midnightblue" d="M645.13,-190.37C661.77,-165.97 695.84,-116 713.81,-89.65"/>
<polygon fill="midnightblue" stroke="midnightblue" points="716.9,-91.33 719.64,-81.1 711.11,-87.39 716.9,-91.33"/>
</g>
<!-- Node48&#45;&gt;Node42 -->
<g id="edge17" class="edge">
<title>Node48&#45;&gt;Node42</title>
<path fill="none" stroke="midnightblue" d="M590.87,-257.4C598.34,-248.88 608.01,-237.85 616.44,-228.23"/>
<polygon fill="midnightblue" stroke="midnightblue" points="619.19,-230.4 623.16,-220.58 613.93,-225.79 619.19,-230.4"/>
</g>
<!-- Node49&#45;&gt;Node2 -->
<g id="edge20" class="edge">
<title>Node49&#45;&gt;Node2</title>
<path fill="none" stroke="midnightblue" d="M458.76,-190.4C439.29,-179.29 412.33,-163.92 393.15,-152.98"/>
<polygon fill="midnightblue" stroke="midnightblue" points="394.84,-149.92 384.42,-148.01 391.37,-156 394.84,-149.92"/>
</g>
<!-- Node49&#45;&gt;Node24 -->
<g id="edge26" class="edge">
<title>Node49&#45;&gt;Node24</title>
<path fill="none" stroke="midnightblue" d="M546.08,-190.48C574.88,-182.41 608.73,-170.51 636.5,-154 653.8,-143.71 654.69,-136.63 669.5,-123 682.4,-111.13 697.12,-97.87 708.23,-87.91"/>
<polygon fill="midnightblue" stroke="midnightblue" points="710.81,-90.29 715.93,-81.02 706.15,-85.08 710.81,-90.29"/>
</g>
<!-- Node19 -->
<g id="node15" class="node">
<title>Node19</title>
<g id="a_node15"><a xlink:href="pretty__printer_8h.html" target="_top" xlink:title=" ">
<polygon fill="white" stroke="red" points="494,-123.5 494,-153.5 627,-153.5 627,-123.5 494,-123.5"/>
<text text-anchor="start" x="502" y="-141.5" font-family="Helvetica,sans-Serif" font-size="10.00">emlabcpp/experimental</text>
<text text-anchor="middle" x="560.5" y="-130.5" font-family="Helvetica,sans-Serif" font-size="10.00">/pretty_printer.h</text>
</a>
</g>
</g>
<!-- Node49&#45;&gt;Node19 -->
<g id="edge21" class="edge">
<title>Node49&#45;&gt;Node19</title>
<path fill="none" stroke="midnightblue" d="M500.21,-190.4C510.7,-181.54 524.42,-169.96 536.11,-160.09"/>
<polygon fill="midnightblue" stroke="midnightblue" points="538.44,-162.7 543.82,-153.58 533.93,-157.35 538.44,-162.7"/>
</g>
<!-- Node19&#45;&gt;Node4 -->
<g id="edge23" class="edge">
<title>Node19&#45;&gt;Node4</title>
<path fill="none" stroke="midnightblue" d="M589.41,-123.45C603.35,-114.99 618.7,-102.78 626.5,-87 632.6,-74.65 634.27,-67.38 626.5,-56 614.24,-38.04 593.64,-27.25 573.24,-20.76"/>
<polygon fill="midnightblue" stroke="midnightblue" points="574.17,-17.39 563.59,-17.99 572.24,-24.11 574.17,-17.39"/>
</g>
<!-- Node19&#45;&gt;Node10 -->
<g id="edge25" class="edge">
<title>Node19&#45;&gt;Node10</title>
<path fill="none" stroke="midnightblue" d="M538.89,-123.48C501.59,-99.28 425.52,-49.94 387.77,-25.45"/>
<polygon fill="midnightblue" stroke="midnightblue" points="389.34,-22.29 379.05,-19.79 385.53,-28.17 389.34,-22.29"/>
</g>
<!-- Node19&#45;&gt;Node27 -->
<g id="edge24" class="edge">
<title>Node19&#45;&gt;Node27</title>
<path fill="none" stroke="midnightblue" d="M562.02,-123.4C563.03,-113.96 564.38,-101.45 565.49,-91.19"/>
<polygon fill="midnightblue" stroke="midnightblue" points="568.97,-91.51 566.56,-81.19 562.01,-90.76 568.97,-91.51"/>
</g>
<!-- Node19&#45;&gt;Node24 -->
<g id="edge22" class="edge">
<title>Node19&#45;&gt;Node24</title>
<path fill="none" stroke="midnightblue" d="M596.3,-123.4C625.51,-111.89 666.36,-95.8 694.26,-84.81"/>
<polygon fill="midnightblue" stroke="midnightblue" points="695.88,-87.93 703.91,-81.01 693.32,-81.42 695.88,-87.93"/>
</g>
</g>
</svg>
