<?xml version="1.0" encoding="UTF-8" standalone="no"?>
<!DOCTYPE svg PUBLIC "-//W3C//DTD SVG 1.1//EN"
 "http://www.w3.org/Graphics/SVG/1.1/DTD/svg11.dtd">
<!-- Generated by graphviz version 2.43.0 (0)
 -->
<!-- Title: include/emlabcpp/experimental/geom/simplex.h Pages: 1 -->
<svg width="809pt" height="431pt"
 viewBox="0.00 0.00 809.00 431.00" xmlns="http://www.w3.org/2000/svg" xmlns:xlink="http://www.w3.org/1999/xlink">
<g id="graph0" class="graph" transform="scale(1 1) rotate(0) translate(4 427)">
<title>include/emlabcpp/experimental/geom/simplex.h</title>
<polygon fill="white" stroke="transparent" points="-4,4 -4,-427 805,-427 805,4 -4,4"/>
<!-- Node1 -->
<g id="node1" class="node">
<title>Node1</title>
<g id="a_node1"><a xlink:title=" ">
<polygon fill="#bfbfbf" stroke="black" points="462,-392.5 462,-422.5 633,-422.5 633,-392.5 462,-392.5"/>
<text text-anchor="start" x="470" y="-410.5" font-family="Helvetica,sans-Serif" font-size="10.00">include/emlabcpp/experimental</text>
<text text-anchor="middle" x="547.5" y="-399.5" font-family="Helvetica,sans-Serif" font-size="10.00">/geom/simplex.h</text>
</a>
</g>
</g>
<!-- Node2 -->
<g id="node2" class="node">
<title>Node2</title>
<g id="a_node2"><a xlink:href="algorithm_8h.html" target="_top" xlink:title=" ">
<polygon fill="white" stroke="black" points="212,-168.5 212,-187.5 303,-187.5 303,-168.5 212,-168.5"/>
<text text-anchor="middle" x="257.5" y="-175.5" font-family="Helvetica,sans-Serif" font-size="10.00">../../algorithm.h</text>
</a>
</g>
</g>
<!-- Node1&#45;&gt;Node2 -->
<g id="edge1" class="edge">
<title>Node1&#45;&gt;Node2</title>
<path fill="none" stroke="midnightblue" d="M530.03,-392.38C512.32,-378.09 484.09,-355.4 459.5,-336 392.96,-283.49 313.38,-222.03 277.17,-194.14"/>
<polygon fill="midnightblue" stroke="midnightblue" points="278.99,-191.12 268.94,-187.79 274.72,-196.67 278.99,-191.12"/>
</g>
<!-- Node7 -->
<g id="node8" class="node">
<title>Node7</title>
<g id="a_node8"><a xlink:title=" ">
<polygon fill="white" stroke="#bfbfbf" points="556.5,-56.5 556.5,-75.5 598.5,-75.5 598.5,-56.5 556.5,-56.5"/>
<text text-anchor="middle" x="577.5" y="-63.5" font-family="Helvetica,sans-Serif" font-size="10.00">array</text>
</a>
</g>
</g>
<!-- Node1&#45;&gt;Node7 -->
<g id="edge27" class="edge">
<title>Node1&#45;&gt;Node7</title>
<path fill="none" stroke="midnightblue" d="M571.23,-392.17C599.66,-373 643.5,-336.11 643.5,-291 643.5,-291 643.5,-291 643.5,-177 643.5,-146.77 639.23,-137.81 623.5,-112 616.64,-100.75 606.35,-90.32 597.23,-82.34"/>
<polygon fill="midnightblue" stroke="midnightblue" points="599.24,-79.46 589.32,-75.74 594.76,-84.84 599.24,-79.46"/>
</g>
<!-- Node28 -->
<g id="node13" class="node">
<title>Node28</title>
<g id="a_node13"><a xlink:href="matrix_8h.html" target="_top" xlink:title=" ">
<polygon fill="white" stroke="black" points="224,-224.5 224,-243.5 291,-243.5 291,-224.5 224,-224.5"/>
<text text-anchor="middle" x="257.5" y="-231.5" font-family="Helvetica,sans-Serif" font-size="10.00">../matrix.h</text>
</a>
</g>
</g>
<!-- Node1&#45;&gt;Node28 -->
<g id="edge16" class="edge">
<title>Node1&#45;&gt;Node28</title>
<path fill="none" stroke="midnightblue" d="M523.77,-392.47C469.15,-360.17 335.09,-280.88 280.85,-248.81"/>
<polygon fill="midnightblue" stroke="midnightblue" points="282.36,-245.64 271.97,-243.56 278.8,-251.66 282.36,-245.64"/>
</g>
<!-- Node29 -->
<g id="node14" class="node">
<title>Node29</title>
<g id="a_node14"><a xlink:href="point_8h.html" target="_top" xlink:title=" ">
<polygon fill="white" stroke="black" points="140.5,-336.5 140.5,-355.5 196.5,-355.5 196.5,-336.5 140.5,-336.5"/>
<text text-anchor="middle" x="168.5" y="-343.5" font-family="Helvetica,sans-Serif" font-size="10.00">./point.h</text>
</a>
</g>
</g>
<!-- Node1&#45;&gt;Node29 -->
<g id="edge19" class="edge">
<title>Node1&#45;&gt;Node29</title>
<path fill="none" stroke="midnightblue" d="M461.97,-393.07C382.06,-380.53 266.42,-362.37 206.98,-353.04"/>
<polygon fill="midnightblue" stroke="midnightblue" points="207.32,-349.55 196.9,-351.46 206.23,-356.47 207.32,-349.55"/>
</g>
<!-- Node36 -->
<g id="node17" class="node">
<title>Node36</title>
<g id="a_node17"><a xlink:title=" ">
<polygon fill="white" stroke="#bfbfbf" points="671.5,-336.5 671.5,-355.5 735.5,-355.5 735.5,-336.5 671.5,-336.5"/>
<text text-anchor="middle" x="703.5" y="-343.5" font-family="Helvetica,sans-Serif" font-size="10.00">algorithm</text>
</a>
</g>
</g>
<!-- Node1&#45;&gt;Node36 -->
<g id="edge26" class="edge">
<title>Node1&#45;&gt;Node36</title>
<path fill="none" stroke="midnightblue" d="M584.47,-392.4C610.88,-382.33 646.06,-368.91 671.31,-359.28"/>
<polygon fill="midnightblue" stroke="midnightblue" points="672.7,-362.49 680.8,-355.66 670.21,-355.95 672.7,-362.49"/>
</g>
<!-- Node12 -->
<g id="node18" class="node">
<title>Node12</title>
<g id="a_node18"><a xlink:title=" ">
<polygon fill="white" stroke="#bfbfbf" points="754,-336.5 754,-355.5 801,-355.5 801,-336.5 754,-336.5"/>
<text text-anchor="middle" x="777.5" y="-343.5" font-family="Helvetica,sans-Serif" font-size="10.00">vector</text>
</a>
</g>
</g>
<!-- Node1&#45;&gt;Node12 -->
<g id="edge28" class="edge">
<title>Node1&#45;&gt;Node12</title>
<path fill="none" stroke="midnightblue" d="M603.18,-392.47C640.35,-383.05 690.58,-370.21 743.76,-356.17"/>
<polygon fill="midnightblue" stroke="midnightblue" points="744.95,-359.47 753.72,-353.53 743.16,-352.71 744.95,-359.47"/>
</g>
<!-- Node3 -->
<g id="node3" class="node">
<title>Node3</title>
<g id="a_node3"><a xlink:href="impl_8h.html" target="_top" xlink:title=" ">
<polygon fill="white" stroke="black" points="312.5,-112.5 312.5,-131.5 416.5,-131.5 416.5,-112.5 312.5,-112.5"/>
<text text-anchor="middle" x="364.5" y="-119.5" font-family="Helvetica,sans-Serif" font-size="10.00">./algorithm/impl.h</text>
</a>
</g>
</g>
<!-- Node2&#45;&gt;Node3 -->
<g id="edge2" class="edge">
<title>Node2&#45;&gt;Node3</title>
<path fill="none" stroke="midnightblue" d="M274.69,-168.32C291.85,-159.66 318.45,-146.24 338.25,-136.25"/>
<polygon fill="midnightblue" stroke="midnightblue" points="340,-139.28 347.35,-131.65 336.85,-133.04 340,-139.28"/>
</g>
<!-- Node4 -->
<g id="node4" class="node">
<title>Node4</title>
<g id="a_node4"><a xlink:href="types_8h.html" target="_top" xlink:title=" ">
<polygon fill="white" stroke="red" points="333.5,-0.5 333.5,-19.5 395.5,-19.5 395.5,-0.5 333.5,-0.5"/>
<text text-anchor="middle" x="364.5" y="-7.5" font-family="Helvetica,sans-Serif" font-size="10.00">../types.h</text>
</a>
</g>
</g>
<!-- Node2&#45;&gt;Node4 -->
<g id="edge11" class="edge">
<title>Node2&#45;&gt;Node4</title>
<path fill="none" stroke="midnightblue" d="M303.21,-171.04C347.68,-164.19 410.66,-151.34 425.5,-132 451.85,-97.67 408.83,-50.19 382.53,-26.19"/>
<polygon fill="midnightblue" stroke="midnightblue" points="384.81,-23.54 375,-19.54 380.18,-28.78 384.81,-23.54"/>
</g>
<!-- Node10 -->
<g id="node5" class="node">
<title>Node10</title>
<g id="a_node5"><a xlink:title=" ">
<polygon fill="white" stroke="#bfbfbf" points="248,-56.5 248,-75.5 289,-75.5 289,-56.5 248,-56.5"/>
<text text-anchor="middle" x="268.5" y="-63.5" font-family="Helvetica,sans-Serif" font-size="10.00">tuple</text>
</a>
</g>
</g>
<!-- Node2&#45;&gt;Node10 -->
<g id="edge15" class="edge">
<title>Node2&#45;&gt;Node10</title>
<path fill="none" stroke="midnightblue" d="M243.72,-168.34C226.61,-156.41 200.89,-133.9 211.5,-112 217.9,-98.8 230.25,-88.3 241.83,-80.78"/>
<polygon fill="midnightblue" stroke="midnightblue" points="243.66,-83.77 250.42,-75.61 240.05,-77.77 243.66,-83.77"/>
</g>
<!-- Node17 -->
<g id="node6" class="node">
<title>Node17</title>
<g id="a_node6"><a xlink:href="bounded_8h.html" target="_top" xlink:title=" ">
<polygon fill="white" stroke="red" points="220.5,-112.5 220.5,-131.5 294.5,-131.5 294.5,-112.5 220.5,-112.5"/>
<text text-anchor="middle" x="257.5" y="-119.5" font-family="Helvetica,sans-Serif" font-size="10.00">./bounded.h</text>
</a>
</g>
</g>
<!-- Node2&#45;&gt;Node17 -->
<g id="edge5" class="edge">
<title>Node2&#45;&gt;Node17</title>
<path fill="none" stroke="midnightblue" d="M257.5,-168.08C257.5,-161.01 257.5,-150.86 257.5,-141.99"/>
<polygon fill="midnightblue" stroke="midnightblue" points="261,-141.75 257.5,-131.75 254,-141.75 261,-141.75"/>
</g>
<!-- Node19 -->
<g id="node7" class="node">
<title>Node19</title>
<g id="a_node7"><a xlink:href="min__max_8h.html" target="_top" xlink:title=" ">
<polygon fill="white" stroke="red" points="473,-112.5 473,-131.5 550,-131.5 550,-112.5 473,-112.5"/>
<text text-anchor="middle" x="511.5" y="-119.5" font-family="Helvetica,sans-Serif" font-size="10.00">./min_max.h</text>
</a>
</g>
</g>
<!-- Node2&#45;&gt;Node19 -->
<g id="edge6" class="edge">
<title>Node2&#45;&gt;Node19</title>
<path fill="none" stroke="midnightblue" d="M297.75,-168.44C342.54,-158.92 414.92,-143.53 462.85,-133.34"/>
<polygon fill="midnightblue" stroke="midnightblue" points="463.64,-136.75 472.69,-131.25 462.18,-129.91 463.64,-136.75"/>
</g>
<!-- Node21 -->
<g id="node9" class="node">
<title>Node21</title>
<g id="a_node9"><a xlink:href="range_8h.html" target="_top" xlink:title=" ">
<polygon fill="white" stroke="red" points="0,-112.5 0,-131.5 59,-131.5 59,-112.5 0,-112.5"/>
<text text-anchor="middle" x="29.5" y="-119.5" font-family="Helvetica,sans-Serif" font-size="10.00">./range.h</text>
</a>
</g>
</g>
<!-- Node2&#45;&gt;Node21 -->
<g id="edge8" class="edge">
<title>Node2&#45;&gt;Node21</title>
<path fill="none" stroke="midnightblue" d="M221.37,-168.44C179.87,-158.61 112,-142.54 69.09,-132.38"/>
<polygon fill="midnightblue" stroke="midnightblue" points="69.82,-128.95 59.28,-130.05 68.21,-135.76 69.82,-128.95"/>
</g>
<!-- Node24 -->
<g id="node10" class="node">
<title>Node24</title>
<g id="a_node10"><a xlink:href="view_8h.html" target="_top" xlink:title=" ">
<polygon fill="white" stroke="red" points="127.5,-56.5 127.5,-75.5 181.5,-75.5 181.5,-56.5 127.5,-56.5"/>
<text text-anchor="middle" x="154.5" y="-63.5" font-family="Helvetica,sans-Serif" font-size="10.00">./view.h</text>
</a>
</g>
</g>
<!-- Node2&#45;&gt;Node24 -->
<g id="edge12" class="edge">
<title>Node2&#45;&gt;Node24</title>
<path fill="none" stroke="midnightblue" d="M246.19,-168.27C235.27,-159.6 218.51,-145.66 205.5,-132 191.03,-116.81 176.45,-97.77 166.6,-84.22"/>
<polygon fill="midnightblue" stroke="midnightblue" points="169.27,-81.94 160.61,-75.84 163.58,-86.01 169.27,-81.94"/>
</g>
<!-- Node26 -->
<g id="node11" class="node">
<title>Node26</title>
<g id="a_node11"><a xlink:title=" ">
<polygon fill="white" stroke="#bfbfbf" points="568,-112.5 568,-131.5 615,-131.5 615,-112.5 568,-112.5"/>
<text text-anchor="middle" x="591.5" y="-119.5" font-family="Helvetica,sans-Serif" font-size="10.00">cmath</text>
</a>
</g>
</g>
<!-- Node2&#45;&gt;Node26 -->
<g id="edge13" class="edge">
<title>Node2&#45;&gt;Node26</title>
<path fill="none" stroke="midnightblue" d="M303.18,-171.87C360.46,-165.07 461.78,-151.79 557.9,-131.9"/>
<polygon fill="midnightblue" stroke="midnightblue" points="558.72,-135.3 567.79,-129.83 557.28,-128.45 558.72,-135.3"/>
</g>
<!-- Node27 -->
<g id="node12" class="node">
<title>Node27</title>
<g id="a_node12"><a xlink:title=" ">
<polygon fill="white" stroke="#bfbfbf" points="77,-112.5 77,-131.5 126,-131.5 126,-112.5 77,-112.5"/>
<text text-anchor="middle" x="101.5" y="-119.5" font-family="Helvetica,sans-Serif" font-size="10.00">cstdlib</text>
</a>
</g>
</g>
<!-- Node2&#45;&gt;Node27 -->
<g id="edge14" class="edge">
<title>Node2&#45;&gt;Node27</title>
<path fill="none" stroke="midnightblue" d="M232.78,-168.44C206.65,-159.4 165.24,-145.06 135.92,-134.92"/>
<polygon fill="midnightblue" stroke="midnightblue" points="136.7,-131.48 126.1,-131.52 134.41,-138.1 136.7,-131.48"/>
</g>
<!-- Node3&#45;&gt;Node4 -->
<g id="edge3" class="edge">
<title>Node3&#45;&gt;Node4</title>
<path fill="none" stroke="midnightblue" d="M364.5,-112.37C364.5,-94.62 364.5,-53.67 364.5,-29.6"/>
<polygon fill="midnightblue" stroke="midnightblue" points="368,-29.59 364.5,-19.59 361,-29.59 368,-29.59"/>
</g>
<!-- Node3&#45;&gt;Node10 -->
<g id="edge4" class="edge">
<title>Node3&#45;&gt;Node10</title>
<path fill="none" stroke="midnightblue" d="M349.08,-112.32C333.96,-103.82 310.68,-90.73 293.03,-80.8"/>
<polygon fill="midnightblue" stroke="midnightblue" points="294.32,-77.51 283.89,-75.65 290.89,-83.61 294.32,-77.51"/>
</g>
<!-- Node19&#45;&gt;Node7 -->
<g id="edge7" class="edge">
<title>Node19&#45;&gt;Node7</title>
<path fill="none" stroke="midnightblue" d="M522.1,-112.32C531.96,-104.26 546.85,-92.08 558.72,-82.37"/>
<polygon fill="midnightblue" stroke="midnightblue" points="561.18,-84.88 566.7,-75.83 556.75,-79.46 561.18,-84.88"/>
</g>
<!-- Node21&#45;&gt;Node24 -->
<g id="edge9" class="edge">
<title>Node21&#45;&gt;Node24</title>
<path fill="none" stroke="midnightblue" d="M49.31,-112.44C69.79,-103.6 101.98,-89.69 125.36,-79.59"/>
<polygon fill="midnightblue" stroke="midnightblue" points="126.99,-82.7 134.79,-75.52 124.22,-76.27 126.99,-82.7"/>
</g>
<!-- Node24&#45;&gt;Node4 -->
<g id="edge10" class="edge">
<title>Node24&#45;&gt;Node4</title>
<path fill="none" stroke="midnightblue" d="M181.52,-58.05C217.55,-48.79 281.62,-32.31 323.58,-21.52"/>
<polygon fill="midnightblue" stroke="midnightblue" points="324.67,-24.86 333.49,-18.98 322.93,-18.08 324.67,-24.86"/>
</g>
<!-- Node28&#45;&gt;Node2 -->
<g id="edge17" class="edge">
<title>Node28&#45;&gt;Node2</title>
<path fill="none" stroke="midnightblue" d="M257.5,-224.08C257.5,-217.01 257.5,-206.86 257.5,-197.99"/>
<polygon fill="midnightblue" stroke="midnightblue" points="261,-197.75 257.5,-187.75 254,-197.75 261,-197.75"/>
</g>
<!-- Node28&#45;&gt;Node21 -->
<g id="edge18" class="edge">
<title>Node28&#45;&gt;Node21</title>
<path fill="none" stroke="midnightblue" d="M239.61,-224.37C199.82,-205.17 103.79,-158.84 56.6,-136.07"/>
<polygon fill="midnightblue" stroke="midnightblue" points="57.84,-132.78 47.31,-131.59 54.79,-139.09 57.84,-132.78"/>
</g>
<!-- Node29&#45;&gt;Node21 -->
<g id="edge20" class="edge">
<title>Node29&#45;&gt;Node21</title>
<path fill="none" stroke="midnightblue" d="M148.55,-336.41C133.03,-328.84 111.95,-316.44 98.5,-300 58.54,-251.15 39.77,-176.42 32.83,-141.81"/>
<polygon fill="midnightblue" stroke="midnightblue" points="36.22,-140.88 30.92,-131.7 29.34,-142.18 36.22,-140.88"/>
</g>
<!-- Node30 -->
<g id="node15" class="node">
<title>Node30</title>
<g id="a_node15"><a xlink:href="vec__point__base_8h.html" target="_top" xlink:title=" ">
<polygon fill="white" stroke="red" points="96,-224.5 96,-243.5 203,-243.5 203,-224.5 96,-224.5"/>
<text text-anchor="middle" x="149.5" y="-231.5" font-family="Helvetica,sans-Serif" font-size="10.00">./vec_point_base.h</text>
</a>
</g>
</g>
<!-- Node29&#45;&gt;Node30 -->
<g id="edge21" class="edge">
<title>Node29&#45;&gt;Node30</title>
<path fill="none" stroke="midnightblue" d="M172.15,-336.43C177,-323.84 184.3,-299.72 178.5,-280 175.49,-269.76 169.35,-259.66 163.49,-251.63"/>
<polygon fill="midnightblue" stroke="midnightblue" points="166.09,-249.27 157.17,-243.54 160.57,-253.58 166.09,-249.27"/>
</g>
<!-- Node35 -->
<g id="node16" class="node">
<title>Node35</title>
<g id="a_node16"><a xlink:href="vector_8h.html" target="_top" xlink:title=" ">
<polygon fill="white" stroke="black" points="107.5,-280.5 107.5,-299.5 169.5,-299.5 169.5,-280.5 107.5,-280.5"/>
<text text-anchor="middle" x="138.5" y="-287.5" font-family="Helvetica,sans-Serif" font-size="10.00">./vector.h</text>
</a>
</g>
</g>
<!-- Node29&#45;&gt;Node35 -->
<g id="edge24" class="edge">
<title>Node29&#45;&gt;Node35</title>
<path fill="none" stroke="midnightblue" d="M163.55,-336.08C159.4,-328.61 153.35,-317.72 148.23,-308.52"/>
<polygon fill="midnightblue" stroke="midnightblue" points="151.28,-306.79 143.36,-299.75 145.16,-310.19 151.28,-306.79"/>
</g>
<!-- Node30&#45;&gt;Node2 -->
<g id="edge22" class="edge">
<title>Node30&#45;&gt;Node2</title>
<path fill="none" stroke="midnightblue" d="M166.85,-224.32C184.17,-215.66 211.02,-202.24 231,-192.25"/>
<polygon fill="midnightblue" stroke="midnightblue" points="232.81,-195.26 240.19,-187.65 229.68,-189 232.81,-195.26"/>
</g>
<!-- Node30&#45;&gt;Node21 -->
<g id="edge23" class="edge">
<title>Node30&#45;&gt;Node21</title>
<path fill="none" stroke="midnightblue" d="M140.08,-224.37C119.84,-205.81 71.95,-161.91 46.34,-138.44"/>
<polygon fill="midnightblue" stroke="midnightblue" points="48.61,-135.77 38.87,-131.59 43.88,-140.93 48.61,-135.77"/>
</g>
<!-- Node35&#45;&gt;Node30 -->
<g id="edge25" class="edge">
<title>Node35&#45;&gt;Node30</title>
<path fill="none" stroke="midnightblue" d="M140.32,-280.08C141.77,-272.93 143.87,-262.64 145.69,-253.69"/>
<polygon fill="midnightblue" stroke="midnightblue" points="149.15,-254.25 147.72,-243.75 142.29,-252.85 149.15,-254.25"/>
</g>
</g>
</svg>
