<?xml version="1.0" encoding="UTF-8" standalone="no"?>
<!DOCTYPE svg PUBLIC "-//W3C//DTD SVG 1.1//EN"
 "http://www.w3.org/Graphics/SVG/1.1/DTD/svg11.dtd">
<!-- Generated by graphviz version 2.43.0 (0)
 -->
<!-- Title: include/emlabcpp/pmr/stack_resource.h Pages: 1 -->
<svg width="552pt" height="218pt"
 viewBox="0.00 0.00 551.50 218.00" xmlns="http://www.w3.org/2000/svg" xmlns:xlink="http://www.w3.org/1999/xlink">
<g id="graph0" class="graph" transform="scale(1 1) rotate(0) translate(4 214)">
<title>include/emlabcpp/pmr/stack_resource.h</title>
<polygon fill="white" stroke="transparent" points="-4,4 -4,-214 547.5,-214 547.5,4 -4,4"/>
<!-- Node1 -->
<g id="node1" class="node">
<title>Node1</title>
<g id="a_node1"><a xlink:title=" ">
<polygon fill="#bfbfbf" stroke="black" points="295,-179.5 295,-209.5 420,-209.5 420,-179.5 295,-179.5"/>
<text text-anchor="start" x="303" y="-197.5" font-family="Helvetica,sans-Serif" font-size="10.00">include/emlabcpp/pmr</text>
<text text-anchor="middle" x="357.5" y="-186.5" font-family="Helvetica,sans-Serif" font-size="10.00">/stack_resource.h</text>
</a>
</g>
</g>
<!-- Node2 -->
<g id="node2" class="node">
<title>Node2</title>
<g id="a_node2"><a xlink:href="logging_8h.html" target="_top" xlink:title=" ">
<polygon fill="white" stroke="black" points="0,-112.5 0,-142.5 133,-142.5 133,-112.5 0,-112.5"/>
<text text-anchor="start" x="8" y="-130.5" font-family="Helvetica,sans-Serif" font-size="10.00">emlabcpp/experimental</text>
<text text-anchor="middle" x="66.5" y="-119.5" font-family="Helvetica,sans-Serif" font-size="10.00">/logging.h</text>
</a>
</g>
</g>
<!-- Node1&#45;&gt;Node2 -->
<g id="edge1" class="edge">
<title>Node1&#45;&gt;Node2</title>
<path fill="none" stroke="midnightblue" d="M294.72,-179.48C249.09,-169.28 187.21,-155.46 139.4,-144.78"/>
<polygon fill="midnightblue" stroke="midnightblue" points="139.95,-141.32 129.42,-142.55 138.42,-148.15 139.95,-141.32"/>
</g>
<!-- Node4 -->
<g id="node4" class="node">
<title>Node4</title>
<g id="a_node4"><a xlink:href="memory__resource_8h.html" target="_top" xlink:title=" ">
<polygon fill="white" stroke="black" points="151,-112.5 151,-142.5 282,-142.5 282,-112.5 151,-112.5"/>
<text text-anchor="start" x="159" y="-130.5" font-family="Helvetica,sans-Serif" font-size="10.00">emlabcpp/pmr/memory</text>
<text text-anchor="middle" x="216.5" y="-119.5" font-family="Helvetica,sans-Serif" font-size="10.00">_resource.h</text>
</a>
</g>
</g>
<!-- Node1&#45;&gt;Node4 -->
<g id="edge3" class="edge">
<title>Node1&#45;&gt;Node4</title>
<path fill="none" stroke="midnightblue" d="M326.91,-179.4C306.21,-169.86 278.68,-157.16 256.28,-146.84"/>
<polygon fill="midnightblue" stroke="midnightblue" points="257.58,-143.58 247.04,-142.58 254.65,-149.94 257.58,-143.58"/>
</g>
<!-- Node45 -->
<g id="node8" class="node">
<title>Node45</title>
<g id="a_node8"><a xlink:href="pmr_2util_8h.html" target="_top" xlink:title=" ">
<polygon fill="white" stroke="black" points="300,-118 300,-137 415,-137 415,-118 300,-118"/>
<text text-anchor="middle" x="357.5" y="-125" font-family="Helvetica,sans-Serif" font-size="10.00">emlabcpp/pmr/util.h</text>
</a>
</g>
</g>
<!-- Node1&#45;&gt;Node45 -->
<g id="edge7" class="edge">
<title>Node1&#45;&gt;Node45</title>
<path fill="none" stroke="midnightblue" d="M357.5,-179.4C357.5,-170.06 357.5,-157.71 357.5,-147.52"/>
<polygon fill="midnightblue" stroke="midnightblue" points="361,-147.19 357.5,-137.19 354,-147.19 361,-147.19"/>
</g>
<!-- Node11 -->
<g id="node10" class="node">
<title>Node11</title>
<g id="a_node10"><a xlink:title=" ">
<polygon fill="white" stroke="#bfbfbf" points="433.5,-118 433.5,-137 475.5,-137 475.5,-118 433.5,-118"/>
<text text-anchor="middle" x="454.5" y="-125" font-family="Helvetica,sans-Serif" font-size="10.00">array</text>
</a>
</g>
</g>
<!-- Node1&#45;&gt;Node11 -->
<g id="edge11" class="edge">
<title>Node1&#45;&gt;Node11</title>
<path fill="none" stroke="midnightblue" d="M378.55,-179.4C394.81,-168.5 417.22,-153.48 433.48,-142.58"/>
<polygon fill="midnightblue" stroke="midnightblue" points="435.45,-145.48 441.8,-137.01 431.55,-139.67 435.45,-145.48"/>
</g>
<!-- Node47 -->
<g id="node11" class="node">
<title>Node47</title>
<g id="a_node11"><a xlink:title=" ">
<polygon fill="white" stroke="#bfbfbf" points="493.5,-118 493.5,-137 543.5,-137 543.5,-118 493.5,-118"/>
<text text-anchor="middle" x="518.5" y="-125" font-family="Helvetica,sans-Serif" font-size="10.00">cstring</text>
</a>
</g>
</g>
<!-- Node1&#45;&gt;Node47 -->
<g id="edge12" class="edge">
<title>Node1&#45;&gt;Node47</title>
<path fill="none" stroke="midnightblue" d="M393.45,-179.48C418.93,-169.47 453.9,-155.61 484.5,-143 486.09,-142.34 487.72,-141.67 489.37,-140.98"/>
<polygon fill="midnightblue" stroke="midnightblue" points="490.91,-144.13 498.76,-137.02 488.18,-137.68 490.91,-144.13"/>
</g>
<!-- Node3 -->
<g id="node3" class="node">
<title>Node3</title>
<g id="a_node3"><a xlink:title=" ">
<polygon fill="white" stroke="#bfbfbf" points="30,-56.5 30,-75.5 103,-75.5 103,-56.5 30,-56.5"/>
<text text-anchor="middle" x="66.5" y="-63.5" font-family="Helvetica,sans-Serif" font-size="10.00">string_view</text>
</a>
</g>
</g>
<!-- Node2&#45;&gt;Node3 -->
<g id="edge2" class="edge">
<title>Node2&#45;&gt;Node3</title>
<path fill="none" stroke="midnightblue" d="M66.5,-112.4C66.5,-104.47 66.5,-94.46 66.5,-85.86"/>
<polygon fill="midnightblue" stroke="midnightblue" points="70,-85.66 66.5,-75.66 63,-85.66 70,-85.66"/>
</g>
<!-- Node5 -->
<g id="node5" class="node">
<title>Node5</title>
<g id="a_node5"><a xlink:href="result_8h.html" target="_top" xlink:title=" ">
<polygon fill="white" stroke="red" points="153.5,-56.5 153.5,-75.5 257.5,-75.5 257.5,-56.5 153.5,-56.5"/>
<text text-anchor="middle" x="205.5" y="-63.5" font-family="Helvetica,sans-Serif" font-size="10.00">emlabcpp/result.h</text>
</a>
</g>
</g>
<!-- Node4&#45;&gt;Node5 -->
<g id="edge4" class="edge">
<title>Node4&#45;&gt;Node5</title>
<path fill="none" stroke="midnightblue" d="M213.89,-112.4C212.41,-104.38 210.53,-94.23 208.93,-85.57"/>
<polygon fill="midnightblue" stroke="midnightblue" points="212.36,-84.85 207.1,-75.66 205.48,-86.13 212.36,-84.85"/>
</g>
<!-- Node44 -->
<g id="node7" class="node">
<title>Node44</title>
<g id="a_node7"><a xlink:title=" ">
<polygon fill="white" stroke="#bfbfbf" points="276,-56.5 276,-75.5 329,-75.5 329,-56.5 276,-56.5"/>
<text text-anchor="middle" x="302.5" y="-63.5" font-family="Helvetica,sans-Serif" font-size="10.00">cstddef</text>
</a>
</g>
</g>
<!-- Node4&#45;&gt;Node44 -->
<g id="edge6" class="edge">
<title>Node4&#45;&gt;Node44</title>
<path fill="none" stroke="midnightblue" d="M236.88,-112.4C250.41,-103.04 268.11,-90.79 281.72,-81.38"/>
<polygon fill="midnightblue" stroke="midnightblue" points="283.75,-84.23 289.99,-75.66 279.77,-78.47 283.75,-84.23"/>
</g>
<!-- Node12 -->
<g id="node6" class="node">
<title>Node12</title>
<g id="a_node6"><a xlink:title=" ">
<polygon fill="white" stroke="#bfbfbf" points="256.5,-0.5 256.5,-19.5 306.5,-19.5 306.5,-0.5 256.5,-0.5"/>
<text text-anchor="middle" x="281.5" y="-7.5" font-family="Helvetica,sans-Serif" font-size="10.00">cstdint</text>
</a>
</g>
</g>
<!-- Node5&#45;&gt;Node12 -->
<g id="edge5" class="edge">
<title>Node5&#45;&gt;Node12</title>
<path fill="none" stroke="midnightblue" d="M217.71,-56.32C229.28,-48.11 246.88,-35.6 260.66,-25.81"/>
<polygon fill="midnightblue" stroke="midnightblue" points="262.94,-28.48 269.07,-19.83 258.89,-22.77 262.94,-28.48"/>
</g>
<!-- Node45&#45;&gt;Node12 -->
<g id="edge10" class="edge">
<title>Node45&#45;&gt;Node12</title>
<path fill="none" stroke="midnightblue" d="M356.93,-117.98C355.63,-103.98 351.48,-75.68 338.5,-56 330.29,-43.54 317.48,-32.98 306.09,-25.23"/>
<polygon fill="midnightblue" stroke="midnightblue" points="307.68,-22.09 297.37,-19.64 303.9,-27.98 307.68,-22.09"/>
</g>
<!-- Node45&#45;&gt;Node44 -->
<g id="edge9" class="edge">
<title>Node45&#45;&gt;Node44</title>
<path fill="none" stroke="midnightblue" d="M349.62,-117.98C341.21,-108.87 327.68,-94.24 317.27,-82.98"/>
<polygon fill="midnightblue" stroke="midnightblue" points="319.72,-80.48 310.37,-75.51 314.58,-85.23 319.72,-80.48"/>
</g>
<!-- Node46 -->
<g id="node9" class="node">
<title>Node46</title>
<g id="a_node9"><a xlink:title=" ">
<polygon fill="white" stroke="#bfbfbf" points="386,-56.5 386,-75.5 415,-75.5 415,-56.5 386,-56.5"/>
<text text-anchor="middle" x="400.5" y="-63.5" font-family="Helvetica,sans-Serif" font-size="10.00">bit</text>
</a>
</g>
</g>
<!-- Node45&#45;&gt;Node46 -->
<g id="edge8" class="edge">
<title>Node45&#45;&gt;Node46</title>
<path fill="none" stroke="midnightblue" d="M363.66,-117.98C370.11,-109.05 380.4,-94.81 388.47,-83.64"/>
<polygon fill="midnightblue" stroke="midnightblue" points="391.33,-85.66 394.35,-75.51 385.66,-81.56 391.33,-85.66"/>
</g>
</g>
</svg>
