<?xml version="1.0" encoding="UTF-8" standalone="no"?>
<!DOCTYPE svg PUBLIC "-//W3C//DTD SVG 1.1//EN"
 "http://www.w3.org/Graphics/SVG/1.1/DTD/svg11.dtd">
<!-- Generated by graphviz version 2.43.0 (0)
 -->
<!-- Title: include/emlabcpp/pmr/stack_resource.h Pages: 1 -->
<svg width="647pt" height="229pt"
 viewBox="0.00 0.00 646.50 229.00" xmlns="http://www.w3.org/2000/svg" xmlns:xlink="http://www.w3.org/1999/xlink">
<g id="graph0" class="graph" transform="scale(1 1) rotate(0) translate(4 225)">
<title>include/emlabcpp/pmr/stack_resource.h</title>
<polygon fill="white" stroke="transparent" points="-4,4 -4,-225 642.5,-225 642.5,4 -4,4"/>
<!-- Node1 -->
<g id="node1" class="node">
<title>Node1</title>
<g id="a_node1"><a xlink:title=" ">
<polygon fill="#bfbfbf" stroke="black" points="390,-190.5 390,-220.5 515,-220.5 515,-190.5 390,-190.5"/>
<text text-anchor="start" x="398" y="-208.5" font-family="Helvetica,sans-Serif" font-size="10.00">include/emlabcpp/pmr</text>
<text text-anchor="middle" x="452.5" y="-197.5" font-family="Helvetica,sans-Serif" font-size="10.00">/stack_resource.h</text>
</a>
</g>
</g>
<!-- Node2 -->
<g id="node2" class="node">
<title>Node2</title>
<g id="a_node2"><a xlink:href="logging_8h.html" target="_top" xlink:title=" ">
<polygon fill="white" stroke="black" points="95,-123.5 95,-153.5 228,-153.5 228,-123.5 95,-123.5"/>
<text text-anchor="start" x="103" y="-141.5" font-family="Helvetica,sans-Serif" font-size="10.00">emlabcpp/experimental</text>
<text text-anchor="middle" x="161.5" y="-130.5" font-family="Helvetica,sans-Serif" font-size="10.00">/logging.h</text>
</a>
</g>
</g>
<!-- Node1&#45;&gt;Node2 -->
<g id="edge1" class="edge">
<title>Node1&#45;&gt;Node2</title>
<path fill="none" stroke="midnightblue" d="M389.72,-190.48C344.09,-180.28 282.21,-166.46 234.4,-155.78"/>
<polygon fill="midnightblue" stroke="midnightblue" points="234.95,-152.32 224.42,-153.55 233.42,-159.15 234.95,-152.32"/>
</g>
<!-- Node31 -->
<g id="node6" class="node">
<title>Node31</title>
<g id="a_node6"><a xlink:href="memory__resource_8h.html" target="_top" xlink:title=" ">
<polygon fill="white" stroke="black" points="246,-123.5 246,-153.5 377,-153.5 377,-123.5 246,-123.5"/>
<text text-anchor="start" x="254" y="-141.5" font-family="Helvetica,sans-Serif" font-size="10.00">emlabcpp/pmr/memory</text>
<text text-anchor="middle" x="311.5" y="-130.5" font-family="Helvetica,sans-Serif" font-size="10.00">_resource.h</text>
</a>
</g>
</g>
<!-- Node1&#45;&gt;Node31 -->
<g id="edge6" class="edge">
<title>Node1&#45;&gt;Node31</title>
<path fill="none" stroke="midnightblue" d="M421.91,-190.4C401.21,-180.86 373.68,-168.16 351.28,-157.84"/>
<polygon fill="midnightblue" stroke="midnightblue" points="352.58,-154.58 342.04,-153.58 349.65,-160.94 352.58,-154.58"/>
</g>
<!-- Node33 -->
<g id="node8" class="node">
<title>Node33</title>
<g id="a_node8"><a xlink:href="pmr_2util_8h.html" target="_top" xlink:title=" ">
<polygon fill="white" stroke="black" points="395,-129 395,-148 510,-148 510,-129 395,-129"/>
<text text-anchor="middle" x="452.5" y="-136" font-family="Helvetica,sans-Serif" font-size="10.00">emlabcpp/pmr/util.h</text>
</a>
</g>
</g>
<!-- Node1&#45;&gt;Node33 -->
<g id="edge8" class="edge">
<title>Node1&#45;&gt;Node33</title>
<path fill="none" stroke="midnightblue" d="M452.5,-190.4C452.5,-181.06 452.5,-168.71 452.5,-158.52"/>
<polygon fill="midnightblue" stroke="midnightblue" points="456,-158.19 452.5,-148.19 449,-158.19 456,-158.19"/>
</g>
<!-- Node6 -->
<g id="node10" class="node">
<title>Node6</title>
<g id="a_node10"><a xlink:title=" ">
<polygon fill="white" stroke="#bfbfbf" points="528.5,-129 528.5,-148 570.5,-148 570.5,-129 528.5,-129"/>
<text text-anchor="middle" x="549.5" y="-136" font-family="Helvetica,sans-Serif" font-size="10.00">array</text>
</a>
</g>
</g>
<!-- Node1&#45;&gt;Node6 -->
<g id="edge11" class="edge">
<title>Node1&#45;&gt;Node6</title>
<path fill="none" stroke="midnightblue" d="M473.55,-190.4C489.81,-179.5 512.22,-164.48 528.48,-153.58"/>
<polygon fill="midnightblue" stroke="midnightblue" points="530.45,-156.48 536.8,-148.01 526.55,-150.67 530.45,-156.48"/>
</g>
<!-- Node34 -->
<g id="node11" class="node">
<title>Node34</title>
<g id="a_node11"><a xlink:title=" ">
<polygon fill="white" stroke="#bfbfbf" points="588.5,-129 588.5,-148 638.5,-148 638.5,-129 588.5,-129"/>
<text text-anchor="middle" x="613.5" y="-136" font-family="Helvetica,sans-Serif" font-size="10.00">cstring</text>
</a>
</g>
</g>
<!-- Node1&#45;&gt;Node34 -->
<g id="edge12" class="edge">
<title>Node1&#45;&gt;Node34</title>
<path fill="none" stroke="midnightblue" d="M488.45,-190.48C513.93,-180.47 548.9,-166.61 579.5,-154 581.09,-153.34 582.72,-152.67 584.37,-151.98"/>
<polygon fill="midnightblue" stroke="midnightblue" points="585.91,-155.13 593.76,-148.02 583.18,-148.68 585.91,-155.13"/>
</g>
<!-- Node3 -->
<g id="node3" class="node">
<title>Node3</title>
<g id="a_node3"><a xlink:href="pretty__printer_8h.html" target="_top" xlink:title=" ">
<polygon fill="white" stroke="red" points="0,-56.5 0,-86.5 133,-86.5 133,-56.5 0,-56.5"/>
<text text-anchor="start" x="8" y="-74.5" font-family="Helvetica,sans-Serif" font-size="10.00">emlabcpp/experimental</text>
<text text-anchor="middle" x="66.5" y="-63.5" font-family="Helvetica,sans-Serif" font-size="10.00">/pretty_printer.h</text>
</a>
</g>
</g>
<!-- Node2&#45;&gt;Node3 -->
<g id="edge2" class="edge">
<title>Node2&#45;&gt;Node3</title>
<path fill="none" stroke="midnightblue" d="M140.89,-123.4C127.57,-114.28 110.04,-102.29 95.34,-92.24"/>
<polygon fill="midnightblue" stroke="midnightblue" points="97.3,-89.33 87.07,-86.58 93.35,-95.11 97.3,-89.33"/>
</g>
<!-- Node17 -->
<g id="node4" class="node">
<title>Node17</title>
<g id="a_node4"><a xlink:href="match_8h.html" target="_top" xlink:title=" ">
<polygon fill="white" stroke="red" points="60,-0.5 60,-19.5 167,-19.5 167,-0.5 60,-0.5"/>
<text text-anchor="middle" x="113.5" y="-7.5" font-family="Helvetica,sans-Serif" font-size="10.00">emlabcpp/match.h</text>
</a>
</g>
</g>
<!-- Node2&#45;&gt;Node17 -->
<g id="edge4" class="edge">
<title>Node2&#45;&gt;Node17</title>
<path fill="none" stroke="midnightblue" d="M159.4,-123.23C156.64,-106.61 151,-78.56 141.5,-56 137.35,-46.14 131.19,-35.96 125.71,-27.78"/>
<polygon fill="midnightblue" stroke="midnightblue" points="128.54,-25.71 119.95,-19.51 122.8,-29.72 128.54,-25.71"/>
</g>
<!-- Node30 -->
<g id="node5" class="node">
<title>Node30</title>
<g id="a_node5"><a xlink:title=" ">
<polygon fill="white" stroke="#bfbfbf" points="190,-62 190,-81 263,-81 263,-62 190,-62"/>
<text text-anchor="middle" x="226.5" y="-69" font-family="Helvetica,sans-Serif" font-size="10.00">string_view</text>
</a>
</g>
</g>
<!-- Node2&#45;&gt;Node30 -->
<g id="edge5" class="edge">
<title>Node2&#45;&gt;Node30</title>
<path fill="none" stroke="midnightblue" d="M175.6,-123.4C185.94,-113.06 199.98,-99.02 210.69,-88.31"/>
<polygon fill="midnightblue" stroke="midnightblue" points="213.21,-90.74 217.81,-81.19 208.26,-85.79 213.21,-90.74"/>
</g>
<!-- Node3&#45;&gt;Node17 -->
<g id="edge3" class="edge">
<title>Node3&#45;&gt;Node17</title>
<path fill="none" stroke="midnightblue" d="M77.64,-56.4C84.47,-47.75 93.24,-36.64 100.41,-27.58"/>
<polygon fill="midnightblue" stroke="midnightblue" points="103.21,-29.67 106.66,-19.66 97.72,-25.34 103.21,-29.67"/>
</g>
<!-- Node32 -->
<g id="node7" class="node">
<title>Node32</title>
<g id="a_node7"><a xlink:title=" ">
<polygon fill="white" stroke="#bfbfbf" points="321,-62 321,-81 374,-81 374,-62 321,-62"/>
<text text-anchor="middle" x="347.5" y="-69" font-family="Helvetica,sans-Serif" font-size="10.00">cstddef</text>
</a>
</g>
</g>
<!-- Node31&#45;&gt;Node32 -->
<g id="edge7" class="edge">
<title>Node31&#45;&gt;Node32</title>
<path fill="none" stroke="midnightblue" d="M319.31,-123.4C324.7,-113.66 331.91,-100.65 337.69,-90.21"/>
<polygon fill="midnightblue" stroke="midnightblue" points="340.9,-91.64 342.68,-81.19 334.78,-88.25 340.9,-91.64"/>
</g>
<!-- Node33&#45;&gt;Node32 -->
<g id="edge9" class="edge">
<title>Node33&#45;&gt;Node32</title>
<path fill="none" stroke="midnightblue" d="M438.34,-128.73C420.79,-117.87 390.66,-99.22 369.94,-86.39"/>
<polygon fill="midnightblue" stroke="midnightblue" points="371.78,-83.41 361.44,-81.13 368.1,-89.37 371.78,-83.41"/>
</g>
<!-- Node7 -->
<g id="node9" class="node">
<title>Node7</title>
<g id="a_node9"><a xlink:title=" ">
<polygon fill="white" stroke="#bfbfbf" points="427.5,-62 427.5,-81 477.5,-81 477.5,-62 427.5,-62"/>
<text text-anchor="middle" x="452.5" y="-69" font-family="Helvetica,sans-Serif" font-size="10.00">cstdint</text>
</a>
</g>
</g>
<!-- Node33&#45;&gt;Node7 -->
<g id="edge10" class="edge">
<title>Node33&#45;&gt;Node7</title>
<path fill="none" stroke="midnightblue" d="M452.5,-128.73C452.5,-119.18 452.5,-103.62 452.5,-91.28"/>
<polygon fill="midnightblue" stroke="midnightblue" points="456,-91.13 452.5,-81.13 449,-91.13 456,-91.13"/>
</g>
</g>
</svg>
