<?xml version="1.0" encoding="UTF-8" standalone="no"?>
<!DOCTYPE svg PUBLIC "-//W3C//DTD SVG 1.1//EN"
 "http://www.w3.org/Graphics/SVG/1.1/DTD/svg11.dtd">
<!-- Generated by graphviz version 2.43.0 (0)
 -->
<!-- Title: include/emlabcpp/static_vector.h Pages: 1 -->
<svg width="1561pt" height="397pt"
 viewBox="0.00 0.00 1560.50 397.00" xmlns="http://www.w3.org/2000/svg" xmlns:xlink="http://www.w3.org/1999/xlink">
<g id="graph0" class="graph" transform="scale(1 1) rotate(0) translate(4 393)">
<title>include/emlabcpp/static_vector.h</title>
<polygon fill="white" stroke="transparent" points="-4,4 -4,-393 1556.5,-393 1556.5,4 -4,4"/>
<!-- Node1 -->
<g id="node1" class="node">
<title>Node1</title>
<g id="a_node1"><a xlink:title=" ">
<polygon fill="#bfbfbf" stroke="black" points="1265.5,-358.5 1265.5,-388.5 1398.5,-388.5 1398.5,-358.5 1265.5,-358.5"/>
<text text-anchor="start" x="1273.5" y="-376.5" font-family="Helvetica,sans-Serif" font-size="10.00">include/emlabcpp/static</text>
<text text-anchor="middle" x="1332" y="-365.5" font-family="Helvetica,sans-Serif" font-size="10.00">_vector.h</text>
</a>
</g>
</g>
<!-- Node2 -->
<g id="node2" class="node">
<title>Node2</title>
<g id="a_node2"><a xlink:href="concepts_8h.html" target="_top" xlink:title=" ">
<polygon fill="white" stroke="black" points="1044,-112.5 1044,-131.5 1164,-131.5 1164,-112.5 1044,-112.5"/>
<text text-anchor="middle" x="1104" y="-119.5" font-family="Helvetica,sans-Serif" font-size="10.00">emlabcpp/concepts.h</text>
</a>
</g>
</g>
<!-- Node1&#45;&gt;Node2 -->
<g id="edge1" class="edge">
<title>Node1&#45;&gt;Node2</title>
<path fill="none" stroke="midnightblue" d="M1335.6,-358.42C1344.04,-321.85 1360.87,-222.88 1312,-168 1293.82,-147.59 1227.17,-135.74 1174.15,-129.37"/>
<polygon fill="midnightblue" stroke="midnightblue" points="1174.42,-125.88 1164.09,-128.21 1173.62,-132.83 1174.42,-125.88"/>
</g>
<!-- Node13 -->
<g id="node8" class="node">
<title>Node13</title>
<g id="a_node8"><a xlink:href="pretty__printer_8h.html" target="_top" xlink:title=" ">
<polygon fill="white" stroke="black" points="692.5,-291.5 692.5,-321.5 825.5,-321.5 825.5,-291.5 692.5,-291.5"/>
<text text-anchor="start" x="700.5" y="-309.5" font-family="Helvetica,sans-Serif" font-size="10.00">emlabcpp/experimental</text>
<text text-anchor="middle" x="759" y="-298.5" font-family="Helvetica,sans-Serif" font-size="10.00">/pretty_printer.h</text>
</a>
</g>
</g>
<!-- Node1&#45;&gt;Node13 -->
<g id="edge7" class="edge">
<title>Node1&#45;&gt;Node13</title>
<path fill="none" stroke="midnightblue" d="M1265.43,-364.95C1158.37,-352.8 948.51,-329 835.47,-316.17"/>
<polygon fill="midnightblue" stroke="midnightblue" points="835.83,-312.69 825.5,-315.04 835.04,-319.65 835.83,-312.69"/>
</g>
<!-- Node33 -->
<g id="node24" class="node">
<title>Node33</title>
<g id="a_node24"><a xlink:href="static__storage_8h.html" target="_top" xlink:title=" ">
<polygon fill="white" stroke="black" points="1373,-297 1373,-316 1519,-316 1519,-297 1373,-297"/>
<text text-anchor="middle" x="1446" y="-304" font-family="Helvetica,sans-Serif" font-size="10.00">emlabcpp/static_storage.h</text>
</a>
</g>
</g>
<!-- Node1&#45;&gt;Node33 -->
<g id="edge32" class="edge">
<title>Node1&#45;&gt;Node33</title>
<path fill="none" stroke="midnightblue" d="M1356.74,-358.4C1376.21,-347.29 1403.17,-331.92 1422.35,-320.98"/>
<polygon fill="midnightblue" stroke="midnightblue" points="1424.13,-324 1431.08,-316.01 1420.66,-317.92 1424.13,-324"/>
</g>
<!-- Node3 -->
<g id="node3" class="node">
<title>Node3</title>
<g id="a_node3"><a xlink:href="types_2base_8h.html" target="_top" xlink:title=" ">
<polygon fill="white" stroke="red" points="759,-56.5 759,-75.5 889,-75.5 889,-56.5 759,-56.5"/>
<text text-anchor="middle" x="824" y="-63.5" font-family="Helvetica,sans-Serif" font-size="10.00">emlabcpp/types/base.h</text>
</a>
</g>
</g>
<!-- Node2&#45;&gt;Node3 -->
<g id="edge2" class="edge">
<title>Node2&#45;&gt;Node3</title>
<path fill="none" stroke="midnightblue" d="M1059.63,-112.44C1010.38,-102.94 930.87,-87.61 878.03,-77.42"/>
<polygon fill="midnightblue" stroke="midnightblue" points="878.64,-73.97 868.16,-75.52 877.32,-80.85 878.64,-73.97"/>
</g>
<!-- Node10 -->
<g id="node5" class="node">
<title>Node10</title>
<g id="a_node5"><a xlink:title=" ">
<polygon fill="white" stroke="#bfbfbf" points="1026,-56.5 1026,-75.5 1086,-75.5 1086,-56.5 1026,-56.5"/>
<text text-anchor="middle" x="1056" y="-63.5" font-family="Helvetica,sans-Serif" font-size="10.00">concepts</text>
</a>
</g>
</g>
<!-- Node2&#45;&gt;Node10 -->
<g id="edge4" class="edge">
<title>Node2&#45;&gt;Node10</title>
<path fill="none" stroke="midnightblue" d="M1096.07,-112.08C1089.15,-104.3 1078.93,-92.8 1070.55,-83.37"/>
<polygon fill="midnightblue" stroke="midnightblue" points="1073.04,-80.9 1063.78,-75.75 1067.81,-85.55 1073.04,-80.9"/>
</g>
<!-- Node11 -->
<g id="node6" class="node">
<title>Node11</title>
<g id="a_node6"><a xlink:title=" ">
<polygon fill="white" stroke="#bfbfbf" points="1104.5,-56.5 1104.5,-75.5 1157.5,-75.5 1157.5,-56.5 1104.5,-56.5"/>
<text text-anchor="middle" x="1131" y="-63.5" font-family="Helvetica,sans-Serif" font-size="10.00">iterator</text>
</a>
</g>
</g>
<!-- Node2&#45;&gt;Node11 -->
<g id="edge5" class="edge">
<title>Node2&#45;&gt;Node11</title>
<path fill="none" stroke="midnightblue" d="M1108.46,-112.08C1112.15,-104.69 1117.52,-93.95 1122.09,-84.81"/>
<polygon fill="midnightblue" stroke="midnightblue" points="1125.28,-86.26 1126.62,-75.75 1119.02,-83.13 1125.28,-86.26"/>
</g>
<!-- Node12 -->
<g id="node7" class="node">
<title>Node12</title>
<g id="a_node7"><a xlink:title=" ">
<polygon fill="white" stroke="#bfbfbf" points="393.5,-56.5 393.5,-75.5 444.5,-75.5 444.5,-56.5 393.5,-56.5"/>
<text text-anchor="middle" x="419" y="-63.5" font-family="Helvetica,sans-Serif" font-size="10.00">variant</text>
</a>
</g>
</g>
<!-- Node2&#45;&gt;Node12 -->
<g id="edge6" class="edge">
<title>Node2&#45;&gt;Node12</title>
<path fill="none" stroke="midnightblue" d="M1043.81,-116.26C904.97,-105.31 565.7,-78.56 454.75,-69.82"/>
<polygon fill="midnightblue" stroke="midnightblue" points="454.99,-66.33 444.74,-69.03 454.44,-73.3 454.99,-66.33"/>
</g>
<!-- Node7 -->
<g id="node4" class="node">
<title>Node7</title>
<g id="a_node4"><a xlink:title=" ">
<polygon fill="white" stroke="#bfbfbf" points="803.5,-0.5 803.5,-19.5 844.5,-19.5 844.5,-0.5 803.5,-0.5"/>
<text text-anchor="middle" x="824" y="-7.5" font-family="Helvetica,sans-Serif" font-size="10.00">tuple</text>
</a>
</g>
</g>
<!-- Node3&#45;&gt;Node7 -->
<g id="edge3" class="edge">
<title>Node3&#45;&gt;Node7</title>
<path fill="none" stroke="midnightblue" d="M824,-56.08C824,-49.01 824,-38.86 824,-29.99"/>
<polygon fill="midnightblue" stroke="midnightblue" points="827.5,-29.75 824,-19.75 820.5,-29.75 827.5,-29.75"/>
</g>
<!-- Node13&#45;&gt;Node2 -->
<g id="edge8" class="edge">
<title>Node13&#45;&gt;Node2</title>
<path fill="none" stroke="midnightblue" d="M825.87,-302.41C940.24,-296.43 1163.45,-281.49 1187,-255 1192.91,-248.36 1189.79,-243.44 1187,-235 1186.08,-232.23 1139.4,-170.01 1116.46,-139.53"/>
<polygon fill="midnightblue" stroke="midnightblue" points="1119.24,-137.4 1110.42,-131.52 1113.64,-141.61 1119.24,-137.4"/>
</g>
<!-- Node13&#45;&gt;Node7 -->
<g id="edge29" class="edge">
<title>Node13&#45;&gt;Node7</title>
<path fill="none" stroke="midnightblue" d="M692.33,-303.3C530.23,-297.57 124.6,-280.81 69,-255 29.23,-236.54 0,-228.34 0,-184.5 0,-184.5 0,-184.5 0,-121 0,-39.42 642.71,-16.14 792.89,-11.81"/>
<polygon fill="midnightblue" stroke="midnightblue" points="793.32,-15.3 803.22,-11.52 793.12,-8.31 793.32,-15.3"/>
</g>
<!-- Node13&#45;&gt;Node12 -->
<g id="edge31" class="edge">
<title>Node13&#45;&gt;Node12</title>
<path fill="none" stroke="midnightblue" d="M692.21,-305.53C530.03,-304.9 125.73,-298.9 85,-255 -10.61,-151.96 279,-90.96 383.18,-72.78"/>
<polygon fill="midnightblue" stroke="midnightblue" points="383.97,-76.2 393.23,-71.06 382.79,-69.3 383.97,-76.2"/>
</g>
<!-- Node14 -->
<g id="node9" class="node">
<title>Node14</title>
<g id="a_node9"><a xlink:href="enum_8h.html" target="_top" xlink:title=" ">
<polygon fill="white" stroke="red" points="104,-235.5 104,-254.5 208,-254.5 208,-235.5 104,-235.5"/>
<text text-anchor="middle" x="156" y="-242.5" font-family="Helvetica,sans-Serif" font-size="10.00">emlabcpp/enum.h</text>
</a>
</g>
</g>
<!-- Node13&#45;&gt;Node14 -->
<g id="edge9" class="edge">
<title>Node13&#45;&gt;Node14</title>
<path fill="none" stroke="midnightblue" d="M692.12,-300.43C591.57,-292.55 395.23,-276.16 218.24,-255.09"/>
<polygon fill="midnightblue" stroke="midnightblue" points="218.56,-251.61 208.22,-253.89 217.73,-258.56 218.56,-251.61"/>
</g>
<!-- Node15 -->
<g id="node10" class="node">
<title>Node15</title>
<g id="a_node10"><a xlink:href="decompose_8h.html" target="_top" xlink:title=" ">
<polygon fill="white" stroke="black" points="1170.5,-168.5 1170.5,-198.5 1303.5,-198.5 1303.5,-168.5 1170.5,-168.5"/>
<text text-anchor="start" x="1178.5" y="-186.5" font-family="Helvetica,sans-Serif" font-size="10.00">emlabcpp/experimental</text>
<text text-anchor="middle" x="1237" y="-175.5" font-family="Helvetica,sans-Serif" font-size="10.00">/decompose.h</text>
</a>
</g>
</g>
<!-- Node13&#45;&gt;Node15 -->
<g id="edge10" class="edge">
<title>Node13&#45;&gt;Node15</title>
<path fill="none" stroke="midnightblue" d="M825.94,-303.38C952.04,-298.68 1214.67,-285.34 1242,-255 1253.14,-242.63 1251.07,-223.57 1246.66,-208.38"/>
<polygon fill="midnightblue" stroke="midnightblue" points="1249.88,-206.97 1243.37,-198.62 1243.25,-209.21 1249.88,-206.97"/>
</g>
<!-- Node16 -->
<g id="node11" class="node">
<title>Node16</title>
<g id="a_node11"><a xlink:href="match_8h.html" target="_top" xlink:title=" ">
<polygon fill="white" stroke="red" points="226.5,-235.5 226.5,-254.5 333.5,-254.5 333.5,-235.5 226.5,-235.5"/>
<text text-anchor="middle" x="280" y="-242.5" font-family="Helvetica,sans-Serif" font-size="10.00">emlabcpp/match.h</text>
</a>
</g>
</g>
<!-- Node13&#45;&gt;Node16 -->
<g id="edge13" class="edge">
<title>Node13&#45;&gt;Node16</title>
<path fill="none" stroke="midnightblue" d="M692.3,-297.84C612.18,-288.54 473.42,-272.13 343.72,-255.07"/>
<polygon fill="midnightblue" stroke="midnightblue" points="343.98,-251.57 333.61,-253.74 343.06,-258.51 343.98,-251.57"/>
</g>
<!-- Node18 -->
<g id="node12" class="node">
<title>Node18</title>
<g id="a_node12"><a xlink:href="range_8h.html" target="_top" xlink:title=" ">
<polygon fill="white" stroke="red" points="352,-235.5 352,-254.5 456,-254.5 456,-235.5 352,-235.5"/>
<text text-anchor="middle" x="404" y="-242.5" font-family="Helvetica,sans-Serif" font-size="10.00">emlabcpp/range.h</text>
</a>
</g>
</g>
<!-- Node13&#45;&gt;Node18 -->
<g id="edge14" class="edge">
<title>Node13&#45;&gt;Node18</title>
<path fill="none" stroke="midnightblue" d="M692.23,-294.31C626.97,-283.37 528.46,-266.86 465.19,-256.26"/>
<polygon fill="midnightblue" stroke="midnightblue" points="465.4,-252.74 454.96,-254.54 464.24,-259.65 465.4,-252.74"/>
</g>
<!-- Node22 -->
<g id="node13" class="node">
<title>Node22</title>
<g id="a_node13"><a xlink:href="types_8h.html" target="_top" xlink:title=" ">
<polygon fill="white" stroke="red" points="495,-174 495,-193 599,-193 599,-174 495,-174"/>
<text text-anchor="middle" x="547" y="-181" font-family="Helvetica,sans-Serif" font-size="10.00">emlabcpp/types.h</text>
</a>
</g>
</g>
<!-- Node13&#45;&gt;Node22 -->
<g id="edge15" class="edge">
<title>Node13&#45;&gt;Node22</title>
<path fill="none" stroke="midnightblue" d="M692.31,-305.45C531.95,-304.62 135.03,-298.19 95,-255 40.94,-196.67 348.12,-186.46 484.4,-184.78"/>
<polygon fill="midnightblue" stroke="midnightblue" points="484.74,-188.27 494.7,-184.66 484.66,-181.27 484.74,-188.27"/>
</g>
<!-- Node21 -->
<g id="node14" class="node">
<title>Node21</title>
<g id="a_node14"><a xlink:href="view_8h.html" target="_top" xlink:title=" ">
<polygon fill="white" stroke="black" points="474.5,-235.5 474.5,-254.5 573.5,-254.5 573.5,-235.5 474.5,-235.5"/>
<text text-anchor="middle" x="524" y="-242.5" font-family="Helvetica,sans-Serif" font-size="10.00">emlabcpp/view.h</text>
</a>
</g>
</g>
<!-- Node13&#45;&gt;Node21 -->
<g id="edge18" class="edge">
<title>Node13&#45;&gt;Node21</title>
<path fill="none" stroke="midnightblue" d="M703.61,-291.47C662,-280.94 605.82,-266.72 567.44,-257"/>
<polygon fill="midnightblue" stroke="midnightblue" points="568.15,-253.57 557.6,-254.51 566.43,-260.35 568.15,-253.57"/>
</g>
<!-- Node24 -->
<g id="node15" class="node">
<title>Node24</title>
<g id="a_node15"><a xlink:title=" ">
<polygon fill="white" stroke="#bfbfbf" points="834,-174 834,-193 874,-193 874,-174 834,-174"/>
<text text-anchor="middle" x="854" y="-181" font-family="Helvetica,sans-Serif" font-size="10.00">span</text>
</a>
</g>
</g>
<!-- Node13&#45;&gt;Node24 -->
<g id="edge28" class="edge">
<title>Node13&#45;&gt;Node24</title>
<path fill="none" stroke="midnightblue" d="M825.85,-302.06C936.45,-295.68 1147.61,-280.31 1170,-255 1175.89,-248.34 1175.77,-241.76 1170,-235 1133.39,-192.08 956.02,-185.48 884.24,-184.58"/>
<polygon fill="midnightblue" stroke="midnightblue" points="884.09,-181.08 874.05,-184.48 884.02,-188.08 884.09,-181.08"/>
</g>
<!-- Node25 -->
<g id="node16" class="node">
<title>Node25</title>
<g id="a_node16"><a xlink:title=" ">
<polygon fill="white" stroke="#bfbfbf" points="592,-235.5 592,-254.5 636,-254.5 636,-235.5 592,-235.5"/>
<text text-anchor="middle" x="614" y="-242.5" font-family="Helvetica,sans-Serif" font-size="10.00">bitset</text>
</a>
</g>
</g>
<!-- Node13&#45;&gt;Node25 -->
<g id="edge21" class="edge">
<title>Node13&#45;&gt;Node25</title>
<path fill="none" stroke="midnightblue" d="M724.64,-291.4C700.31,-281.42 667.97,-268.15 644.54,-258.53"/>
<polygon fill="midnightblue" stroke="midnightblue" points="645.68,-255.22 635.1,-254.66 643.02,-261.69 645.68,-255.22"/>
</g>
<!-- Node26 -->
<g id="node17" class="node">
<title>Node26</title>
<g id="a_node17"><a xlink:title=" ">
<polygon fill="white" stroke="#bfbfbf" points="654.5,-235.5 654.5,-254.5 715.5,-254.5 715.5,-235.5 654.5,-235.5"/>
<text text-anchor="middle" x="685" y="-242.5" font-family="Helvetica,sans-Serif" font-size="10.00">charconv</text>
</a>
</g>
</g>
<!-- Node13&#45;&gt;Node26 -->
<g id="edge22" class="edge">
<title>Node13&#45;&gt;Node26</title>
<path fill="none" stroke="midnightblue" d="M741.46,-291.4C730.16,-282.31 715.46,-270.49 703.89,-261.19"/>
<polygon fill="midnightblue" stroke="midnightblue" points="705.75,-258.2 695.77,-254.66 701.37,-263.65 705.75,-258.2"/>
</g>
<!-- Node27 -->
<g id="node18" class="node">
<title>Node27</title>
<g id="a_node18"><a xlink:title=" ">
<polygon fill="white" stroke="#bfbfbf" points="734,-235.5 734,-254.5 784,-254.5 784,-235.5 734,-235.5"/>
<text text-anchor="middle" x="759" y="-242.5" font-family="Helvetica,sans-Serif" font-size="10.00">chrono</text>
</a>
</g>
</g>
<!-- Node13&#45;&gt;Node27 -->
<g id="edge23" class="edge">
<title>Node13&#45;&gt;Node27</title>
<path fill="none" stroke="midnightblue" d="M759,-291.4C759,-283.47 759,-273.46 759,-264.86"/>
<polygon fill="midnightblue" stroke="midnightblue" points="762.5,-264.66 759,-254.66 755.5,-264.66 762.5,-264.66"/>
</g>
<!-- Node28 -->
<g id="node19" class="node">
<title>Node28</title>
<g id="a_node19"><a xlink:title=" ">
<polygon fill="white" stroke="#bfbfbf" points="802,-235.5 802,-254.5 870,-254.5 870,-235.5 802,-235.5"/>
<text text-anchor="middle" x="836" y="-242.5" font-family="Helvetica,sans-Serif" font-size="10.00">filesystem</text>
</a>
</g>
</g>
<!-- Node13&#45;&gt;Node28 -->
<g id="edge24" class="edge">
<title>Node13&#45;&gt;Node28</title>
<path fill="none" stroke="midnightblue" d="M777.25,-291.4C789.13,-282.22 804.61,-270.26 816.69,-260.92"/>
<polygon fill="midnightblue" stroke="midnightblue" points="819.02,-263.54 824.8,-254.66 814.74,-258 819.02,-263.54"/>
</g>
<!-- Node29 -->
<g id="node20" class="node">
<title>Node29</title>
<g id="a_node20"><a xlink:title=" ">
<polygon fill="white" stroke="#bfbfbf" points="888,-235.5 888,-254.5 926,-254.5 926,-235.5 888,-235.5"/>
<text text-anchor="middle" x="907" y="-242.5" font-family="Helvetica,sans-Serif" font-size="10.00">map</text>
</a>
</g>
</g>
<!-- Node13&#45;&gt;Node29 -->
<g id="edge25" class="edge">
<title>Node13&#45;&gt;Node29</title>
<path fill="none" stroke="midnightblue" d="M794.07,-291.4C819.77,-281.07 854.21,-267.22 878.28,-257.55"/>
<polygon fill="midnightblue" stroke="midnightblue" points="879.61,-260.78 887.59,-253.8 877,-254.29 879.61,-260.78"/>
</g>
<!-- Node30 -->
<g id="node21" class="node">
<title>Node30</title>
<g id="a_node21"><a xlink:title=" ">
<polygon fill="white" stroke="#bfbfbf" points="944,-235.5 944,-254.5 1000,-254.5 1000,-235.5 944,-235.5"/>
<text text-anchor="middle" x="972" y="-242.5" font-family="Helvetica,sans-Serif" font-size="10.00">optional</text>
</a>
</g>
</g>
<!-- Node13&#45;&gt;Node30 -->
<g id="edge26" class="edge">
<title>Node13&#45;&gt;Node30</title>
<path fill="none" stroke="midnightblue" d="M809.21,-291.47C847.49,-280.78 899.4,-266.28 934.21,-256.56"/>
<polygon fill="midnightblue" stroke="midnightblue" points="935.3,-259.89 943.99,-253.82 933.42,-253.14 935.3,-259.89"/>
</g>
<!-- Node31 -->
<g id="node22" class="node">
<title>Node31</title>
<g id="a_node22"><a xlink:title=" ">
<polygon fill="white" stroke="#bfbfbf" points="1018,-235.5 1018,-254.5 1050,-254.5 1050,-235.5 1018,-235.5"/>
<text text-anchor="middle" x="1034" y="-242.5" font-family="Helvetica,sans-Serif" font-size="10.00">set</text>
</a>
</g>
</g>
<!-- Node13&#45;&gt;Node31 -->
<g id="edge27" class="edge">
<title>Node13&#45;&gt;Node31</title>
<path fill="none" stroke="midnightblue" d="M825.69,-294.77C874.03,-286.36 941.06,-273.41 1008.09,-254.93"/>
<polygon fill="midnightblue" stroke="midnightblue" points="1009.29,-258.23 1017.97,-252.16 1007.4,-251.49 1009.29,-258.23"/>
</g>
<!-- Node32 -->
<g id="node23" class="node">
<title>Node32</title>
<g id="a_node23"><a xlink:title=" ">
<polygon fill="white" stroke="#bfbfbf" points="1068.5,-235.5 1068.5,-254.5 1161.5,-254.5 1161.5,-235.5 1068.5,-235.5"/>
<text text-anchor="middle" x="1115" y="-242.5" font-family="Helvetica,sans-Serif" font-size="10.00">unordered_map</text>
</a>
</g>
</g>
<!-- Node13&#45;&gt;Node32 -->
<g id="edge30" class="edge">
<title>Node13&#45;&gt;Node32</title>
<path fill="none" stroke="midnightblue" d="M825.54,-294.38C892.55,-283.18 994.82,-266.09 1058.15,-255.5"/>
<polygon fill="midnightblue" stroke="midnightblue" points="1059.07,-258.9 1068.35,-253.8 1057.91,-251.99 1059.07,-258.9"/>
</g>
<!-- Node15&#45;&gt;Node2 -->
<g id="edge11" class="edge">
<title>Node15&#45;&gt;Node2</title>
<path fill="none" stroke="midnightblue" d="M1205.48,-168.4C1183.36,-158.51 1154.03,-145.38 1132.59,-135.79"/>
<polygon fill="midnightblue" stroke="midnightblue" points="1133.91,-132.55 1123.35,-131.66 1131.05,-138.94 1133.91,-132.55"/>
</g>
<!-- Node15&#45;&gt;Node7 -->
<g id="edge12" class="edge">
<title>Node15&#45;&gt;Node7</title>
<path fill="none" stroke="midnightblue" d="M1233.53,-168.24C1226.17,-141.31 1206.25,-83.25 1166,-56 1115.54,-21.84 929.21,-13.55 854.89,-11.59"/>
<polygon fill="midnightblue" stroke="midnightblue" points="854.85,-8.09 844.77,-11.35 854.68,-15.09 854.85,-8.09"/>
</g>
<!-- Node22&#45;&gt;Node2 -->
<g id="edge16" class="edge">
<title>Node22&#45;&gt;Node2</title>
<path fill="none" stroke="midnightblue" d="M599.15,-176.93C699.7,-166.19 920.41,-142.61 1033.77,-130.5"/>
<polygon fill="midnightblue" stroke="midnightblue" points="1034.16,-133.98 1043.73,-129.44 1033.42,-127.02 1034.16,-133.98"/>
</g>
<!-- Node22&#45;&gt;Node3 -->
<g id="edge17" class="edge">
<title>Node22&#45;&gt;Node3</title>
<path fill="none" stroke="midnightblue" d="M567.82,-173.82C616.37,-153.58 737.23,-103.18 793.84,-79.57"/>
<polygon fill="midnightblue" stroke="midnightblue" points="795.43,-82.7 803.32,-75.62 792.74,-76.24 795.43,-82.7"/>
</g>
<!-- Node21&#45;&gt;Node22 -->
<g id="edge19" class="edge">
<title>Node21&#45;&gt;Node22</title>
<path fill="none" stroke="midnightblue" d="M527.3,-235.48C530.61,-226.9 535.82,-213.43 540.05,-202.48"/>
<polygon fill="midnightblue" stroke="midnightblue" points="543.37,-203.6 543.71,-193.01 536.84,-201.07 543.37,-203.6"/>
</g>
<!-- Node21&#45;&gt;Node24 -->
<g id="edge20" class="edge">
<title>Node21&#45;&gt;Node24</title>
<path fill="none" stroke="midnightblue" d="M571.28,-235.48C640.24,-223.04 766.43,-200.29 823.97,-189.91"/>
<polygon fill="midnightblue" stroke="midnightblue" points="824.67,-193.35 833.89,-188.13 823.42,-186.46 824.67,-193.35"/>
</g>
<!-- Node34 -->
<g id="node25" class="node">
<title>Node34</title>
<g id="a_node25"><a xlink:title=" ">
<polygon fill="white" stroke="#bfbfbf" points="1499.5,-235.5 1499.5,-254.5 1552.5,-254.5 1552.5,-235.5 1499.5,-235.5"/>
<text text-anchor="middle" x="1526" y="-242.5" font-family="Helvetica,sans-Serif" font-size="10.00">cstddef</text>
</a>
</g>
</g>
<!-- Node33&#45;&gt;Node34 -->
<g id="edge33" class="edge">
<title>Node33&#45;&gt;Node34</title>
<path fill="none" stroke="midnightblue" d="M1457.46,-296.98C1470.17,-287.52 1490.91,-272.1 1506.25,-260.69"/>
<polygon fill="midnightblue" stroke="midnightblue" points="1508.62,-263.29 1514.56,-254.51 1504.45,-257.67 1508.62,-263.29"/>
</g>
<!-- Node35 -->
<g id="node26" class="node">
<title>Node35</title>
<g id="a_node26"><a xlink:title=" ">
<polygon fill="white" stroke="#bfbfbf" points="1360,-235.5 1360,-254.5 1418,-254.5 1418,-235.5 1360,-235.5"/>
<text text-anchor="middle" x="1389" y="-242.5" font-family="Helvetica,sans-Serif" font-size="10.00">memory</text>
</a>
</g>
</g>
<!-- Node33&#45;&gt;Node35 -->
<g id="edge34" class="edge">
<title>Node33&#45;&gt;Node35</title>
<path fill="none" stroke="midnightblue" d="M1437.83,-296.98C1429.11,-287.87 1415.1,-273.24 1404.31,-261.98"/>
<polygon fill="midnightblue" stroke="midnightblue" points="1406.6,-259.31 1397.15,-254.51 1401.54,-264.15 1406.6,-259.31"/>
</g>
<!-- Node36 -->
<g id="node27" class="node">
<title>Node36</title>
<g id="a_node27"><a xlink:title=" ">
<polygon fill="white" stroke="#bfbfbf" points="1436.5,-235.5 1436.5,-254.5 1481.5,-254.5 1481.5,-235.5 1436.5,-235.5"/>
<text text-anchor="middle" x="1459" y="-242.5" font-family="Helvetica,sans-Serif" font-size="10.00">utility</text>
</a>
</g>
</g>
<!-- Node33&#45;&gt;Node36 -->
<g id="edge35" class="edge">
<title>Node33&#45;&gt;Node36</title>
<path fill="none" stroke="midnightblue" d="M1447.86,-296.98C1449.72,-288.49 1452.62,-275.2 1455,-264.32"/>
<polygon fill="midnightblue" stroke="midnightblue" points="1458.43,-265.03 1457.14,-254.51 1451.59,-263.53 1458.43,-265.03"/>
</g>
</g>
</svg>
