<?xml version="1.0" encoding="UTF-8" standalone="no"?>
<!DOCTYPE svg PUBLIC "-//W3C//DTD SVG 1.1//EN"
 "http://www.w3.org/Graphics/SVG/1.1/DTD/svg11.dtd">
<!-- Generated by graphviz version 2.43.0 (0)
 -->
<!-- Title: include/emlabcpp/static_vector.h Pages: 1 -->
<svg width="402pt" height="263pt"
 viewBox="0.00 0.00 402.00 263.00" xmlns="http://www.w3.org/2000/svg" xmlns:xlink="http://www.w3.org/1999/xlink">
<g id="graph0" class="graph" transform="scale(1 1) rotate(0) translate(4 259)">
<title>include/emlabcpp/static_vector.h</title>
<polygon fill="white" stroke="transparent" points="-4,4 -4,-259 398,-259 398,4 -4,4"/>
<!-- Node1 -->
<g id="node1" class="node">
<title>Node1</title>
<g id="a_node1"><a xlink:title=" ">
<polygon fill="#bfbfbf" stroke="black" points="54.5,-224.5 54.5,-254.5 187.5,-254.5 187.5,-224.5 54.5,-224.5"/>
<text text-anchor="start" x="62.5" y="-242.5" font-family="Helvetica,sans-Serif" font-size="10.00">include/emlabcpp/static</text>
<text text-anchor="middle" x="121" y="-231.5" font-family="Helvetica,sans-Serif" font-size="10.00">_vector.h</text>
</a>
</g>
</g>
<!-- Node2 -->
<g id="node2" class="node">
<title>Node2</title>
<g id="a_node2"><a xlink:href="concepts_8h.html" target="_top" xlink:title=" ">
<polygon fill="white" stroke="black" points="80,-56.5 80,-75.5 200,-75.5 200,-56.5 80,-56.5"/>
<text text-anchor="middle" x="140" y="-63.5" font-family="Helvetica,sans-Serif" font-size="10.00">emlabcpp/concepts.h</text>
</a>
</g>
</g>
<!-- Node1&#45;&gt;Node2 -->
<g id="edge1" class="edge">
<title>Node1&#45;&gt;Node2</title>
<path fill="none" stroke="midnightblue" d="M92.43,-224.47C50.38,-201.91 -20.01,-155.66 11,-112 24.7,-92.71 47.31,-81.62 69.8,-75.27"/>
<polygon fill="midnightblue" stroke="midnightblue" points="70.91,-78.6 79.75,-72.75 69.19,-71.81 70.91,-78.6"/>
</g>
<!-- Node13 -->
<g id="node7" class="node">
<title>Node13</title>
<g id="a_node7"><a xlink:href="static__storage_8h.html" target="_top" xlink:title=" ">
<polygon fill="white" stroke="black" points="48,-168.5 48,-187.5 194,-187.5 194,-168.5 48,-168.5"/>
<text text-anchor="middle" x="121" y="-175.5" font-family="Helvetica,sans-Serif" font-size="10.00">emlabcpp/static_storage.h</text>
</a>
</g>
</g>
<!-- Node1&#45;&gt;Node13 -->
<g id="edge6" class="edge">
<title>Node1&#45;&gt;Node13</title>
<path fill="none" stroke="midnightblue" d="M121,-224.4C121,-216.47 121,-206.46 121,-197.86"/>
<polygon fill="midnightblue" stroke="midnightblue" points="124.5,-197.66 121,-187.66 117.5,-197.66 124.5,-197.66"/>
</g>
<!-- Node17 -->
<g id="node11" class="node">
<title>Node17</title>
<g id="a_node11"><a xlink:href="view_8h.html" target="_top" xlink:title=" ">
<polygon fill="white" stroke="black" points="234.5,-168.5 234.5,-187.5 333.5,-187.5 333.5,-168.5 234.5,-168.5"/>
<text text-anchor="middle" x="284" y="-175.5" font-family="Helvetica,sans-Serif" font-size="10.00">emlabcpp/view.h</text>
</a>
</g>
</g>
<!-- Node1&#45;&gt;Node17 -->
<g id="edge10" class="edge">
<title>Node1&#45;&gt;Node17</title>
<path fill="none" stroke="midnightblue" d="M159.63,-224.4C187.34,-214.28 224.31,-200.79 250.72,-191.15"/>
<polygon fill="midnightblue" stroke="midnightblue" points="252.09,-194.37 260.28,-187.66 249.69,-187.8 252.09,-194.37"/>
</g>
<!-- Node3 -->
<g id="node3" class="node">
<title>Node3</title>
<g id="a_node3"><a xlink:href="types_2base_8h.html" target="_top" xlink:title=" ">
<polygon fill="white" stroke="red" points="219,-0.5 219,-19.5 349,-19.5 349,-0.5 219,-0.5"/>
<text text-anchor="middle" x="284" y="-7.5" font-family="Helvetica,sans-Serif" font-size="10.00">emlabcpp/types/base.h</text>
</a>
</g>
</g>
<!-- Node2&#45;&gt;Node3 -->
<g id="edge2" class="edge">
<title>Node2&#45;&gt;Node3</title>
<path fill="none" stroke="midnightblue" d="M162.82,-56.44C186.83,-47.44 224.83,-33.19 251.87,-23.05"/>
<polygon fill="midnightblue" stroke="midnightblue" points="253.16,-26.3 261.29,-19.52 250.7,-19.75 253.16,-26.3"/>
</g>
<!-- Node10 -->
<g id="node4" class="node">
<title>Node10</title>
<g id="a_node4"><a xlink:title=" ">
<polygon fill="white" stroke="#bfbfbf" points="0,-0.5 0,-19.5 60,-19.5 60,-0.5 0,-0.5"/>
<text text-anchor="middle" x="30" y="-7.5" font-family="Helvetica,sans-Serif" font-size="10.00">concepts</text>
</a>
</g>
</g>
<!-- Node2&#45;&gt;Node10 -->
<g id="edge3" class="edge">
<title>Node2&#45;&gt;Node10</title>
<path fill="none" stroke="midnightblue" d="M122.33,-56.32C104.61,-47.62 77.1,-34.12 56.71,-24.11"/>
<polygon fill="midnightblue" stroke="midnightblue" points="58.15,-20.92 47.63,-19.65 55.06,-27.2 58.15,-20.92"/>
</g>
<!-- Node11 -->
<g id="node5" class="node">
<title>Node11</title>
<g id="a_node5"><a xlink:title=" ">
<polygon fill="white" stroke="#bfbfbf" points="78.5,-0.5 78.5,-19.5 131.5,-19.5 131.5,-0.5 78.5,-0.5"/>
<text text-anchor="middle" x="105" y="-7.5" font-family="Helvetica,sans-Serif" font-size="10.00">iterator</text>
</a>
</g>
</g>
<!-- Node2&#45;&gt;Node11 -->
<g id="edge4" class="edge">
<title>Node2&#45;&gt;Node11</title>
<path fill="none" stroke="midnightblue" d="M134.22,-56.08C129.33,-48.53 122.17,-37.49 116.17,-28.23"/>
<polygon fill="midnightblue" stroke="midnightblue" points="119.05,-26.24 110.67,-19.75 113.17,-30.05 119.05,-26.24"/>
</g>
<!-- Node12 -->
<g id="node6" class="node">
<title>Node12</title>
<g id="a_node6"><a xlink:title=" ">
<polygon fill="white" stroke="#bfbfbf" points="149.5,-0.5 149.5,-19.5 200.5,-19.5 200.5,-0.5 149.5,-0.5"/>
<text text-anchor="middle" x="175" y="-7.5" font-family="Helvetica,sans-Serif" font-size="10.00">variant</text>
</a>
</g>
</g>
<!-- Node2&#45;&gt;Node12 -->
<g id="edge5" class="edge">
<title>Node2&#45;&gt;Node12</title>
<path fill="none" stroke="midnightblue" d="M145.78,-56.08C150.67,-48.53 157.83,-37.49 163.83,-28.23"/>
<polygon fill="midnightblue" stroke="midnightblue" points="166.83,-30.05 169.33,-19.75 160.95,-26.24 166.83,-30.05"/>
</g>
<!-- Node14 -->
<g id="node8" class="node">
<title>Node14</title>
<g id="a_node8"><a xlink:title=" ">
<polygon fill="white" stroke="#bfbfbf" points="20.5,-112.5 20.5,-131.5 73.5,-131.5 73.5,-112.5 20.5,-112.5"/>
<text text-anchor="middle" x="47" y="-119.5" font-family="Helvetica,sans-Serif" font-size="10.00">cstddef</text>
</a>
</g>
</g>
<!-- Node13&#45;&gt;Node14 -->
<g id="edge7" class="edge">
<title>Node13&#45;&gt;Node14</title>
<path fill="none" stroke="midnightblue" d="M109.11,-168.32C97.85,-160.11 80.71,-147.6 67.29,-137.81"/>
<polygon fill="midnightblue" stroke="midnightblue" points="69.25,-134.9 59.11,-131.83 65.12,-140.56 69.25,-134.9"/>
</g>
<!-- Node15 -->
<g id="node9" class="node">
<title>Node15</title>
<g id="a_node9"><a xlink:title=" ">
<polygon fill="white" stroke="#bfbfbf" points="92,-112.5 92,-131.5 150,-131.5 150,-112.5 92,-112.5"/>
<text text-anchor="middle" x="121" y="-119.5" font-family="Helvetica,sans-Serif" font-size="10.00">memory</text>
</a>
</g>
</g>
<!-- Node13&#45;&gt;Node15 -->
<g id="edge8" class="edge">
<title>Node13&#45;&gt;Node15</title>
<path fill="none" stroke="midnightblue" d="M121,-168.08C121,-161.01 121,-150.86 121,-141.99"/>
<polygon fill="midnightblue" stroke="midnightblue" points="124.5,-141.75 121,-131.75 117.5,-141.75 124.5,-141.75"/>
</g>
<!-- Node16 -->
<g id="node10" class="node">
<title>Node16</title>
<g id="a_node10"><a xlink:title=" ">
<polygon fill="white" stroke="#bfbfbf" points="168.5,-112.5 168.5,-131.5 213.5,-131.5 213.5,-112.5 168.5,-112.5"/>
<text text-anchor="middle" x="191" y="-119.5" font-family="Helvetica,sans-Serif" font-size="10.00">utility</text>
</a>
</g>
</g>
<!-- Node13&#45;&gt;Node16 -->
<g id="edge9" class="edge">
<title>Node13&#45;&gt;Node16</title>
<path fill="none" stroke="midnightblue" d="M132.25,-168.32C142.8,-160.18 158.8,-147.84 171.44,-138.09"/>
<polygon fill="midnightblue" stroke="midnightblue" points="173.77,-140.71 179.55,-131.83 169.49,-135.17 173.77,-140.71"/>
</g>
<!-- Node18 -->
<g id="node12" class="node">
<title>Node18</title>
<g id="a_node12"><a xlink:href="types_8h.html" target="_top" xlink:title=" ">
<polygon fill="white" stroke="red" points="232,-112.5 232,-131.5 336,-131.5 336,-112.5 232,-112.5"/>
<text text-anchor="middle" x="284" y="-119.5" font-family="Helvetica,sans-Serif" font-size="10.00">emlabcpp/types.h</text>
</a>
</g>
</g>
<!-- Node17&#45;&gt;Node18 -->
<g id="edge11" class="edge">
<title>Node17&#45;&gt;Node18</title>
<path fill="none" stroke="midnightblue" d="M284,-168.08C284,-161.01 284,-150.86 284,-141.99"/>
<polygon fill="midnightblue" stroke="midnightblue" points="287.5,-141.75 284,-131.75 280.5,-141.75 287.5,-141.75"/>
</g>
<!-- Node20 -->
<g id="node13" class="node">
<title>Node20</title>
<g id="a_node13"><a xlink:title=" ">
<polygon fill="white" stroke="#bfbfbf" points="354,-112.5 354,-131.5 394,-131.5 394,-112.5 354,-112.5"/>
<text text-anchor="middle" x="374" y="-119.5" font-family="Helvetica,sans-Serif" font-size="10.00">span</text>
</a>
</g>
</g>
<!-- Node17&#45;&gt;Node20 -->
<g id="edge14" class="edge">
<title>Node17&#45;&gt;Node20</title>
<path fill="none" stroke="midnightblue" d="M298.46,-168.32C312.5,-159.9 334.05,-146.97 350.54,-137.07"/>
<polygon fill="midnightblue" stroke="midnightblue" points="352.8,-139.8 359.58,-131.65 349.2,-133.8 352.8,-139.8"/>
</g>
<!-- Node18&#45;&gt;Node2 -->
<g id="edge12" class="edge">
<title>Node18&#45;&gt;Node2</title>
<path fill="none" stroke="midnightblue" d="M261.18,-112.44C237.17,-103.44 199.17,-89.19 172.13,-79.05"/>
<polygon fill="midnightblue" stroke="midnightblue" points="173.3,-75.75 162.71,-75.52 170.84,-82.3 173.3,-75.75"/>
</g>
<!-- Node18&#45;&gt;Node3 -->
<g id="edge13" class="edge">
<title>Node18&#45;&gt;Node3</title>
<path fill="none" stroke="midnightblue" d="M284,-112.37C284,-94.62 284,-53.67 284,-29.6"/>
<polygon fill="midnightblue" stroke="midnightblue" points="287.5,-29.59 284,-19.59 280.5,-29.59 287.5,-29.59"/>
</g>
</g>
</svg>
