<?xml version="1.0" encoding="UTF-8" standalone="no"?>
<!DOCTYPE svg PUBLIC "-//W3C//DTD SVG 1.1//EN"
 "http://www.w3.org/Graphics/SVG/1.1/DTD/svg11.dtd">
<!-- Generated by graphviz version 2.43.0 (0)
 -->
<!-- Title: include/emlabcpp/static_vector.h Pages: 1 -->
<svg width="883pt" height="397pt"
 viewBox="0.00 0.00 882.56 397.00" xmlns="http://www.w3.org/2000/svg" xmlns:xlink="http://www.w3.org/1999/xlink">
<g id="graph0" class="graph" transform="scale(1 1) rotate(0) translate(4 393)">
<title>include/emlabcpp/static_vector.h</title>
<polygon fill="white" stroke="transparent" points="-4,4 -4,-393 878.56,-393 878.56,4 -4,4"/>
<!-- Node1 -->
<g id="node1" class="node">
<title>Node1</title>
<g id="a_node1"><a xlink:title=" ">
<polygon fill="#bfbfbf" stroke="black" points="210.06,-358.5 210.06,-388.5 343.06,-388.5 343.06,-358.5 210.06,-358.5"/>
<text text-anchor="start" x="218.06" y="-376.5" font-family="Helvetica,sans-Serif" font-size="10.00">include/emlabcpp/static</text>
<text text-anchor="middle" x="276.56" y="-365.5" font-family="Helvetica,sans-Serif" font-size="10.00">_vector.h</text>
</a>
</g>
</g>
<!-- Node2 -->
<g id="node2" class="node">
<title>Node2</title>
<g id="a_node2"><a xlink:href="concepts_8h.html" target="_top" xlink:title=" ">
<polygon fill="white" stroke="black" points="234.56,-112.5 234.56,-131.5 354.56,-131.5 354.56,-112.5 234.56,-112.5"/>
<text text-anchor="middle" x="294.56" y="-119.5" font-family="Helvetica,sans-Serif" font-size="10.00">emlabcpp/concepts.h</text>
</a>
</g>
</g>
<!-- Node1&#45;&gt;Node2 -->
<g id="edge1" class="edge">
<title>Node1&#45;&gt;Node2</title>
<path fill="none" stroke="midnightblue" d="M247.94,-358.41C205.62,-335.48 133.85,-287.34 158.56,-235 180.89,-187.67 234.13,-153.57 266.98,-136.17"/>
<polygon fill="midnightblue" stroke="midnightblue" points="268.77,-139.18 276.06,-131.5 265.57,-132.96 268.77,-139.18"/>
</g>
<!-- Node8 -->
<g id="node5" class="node">
<title>Node8</title>
<g id="a_node5"><a xlink:title=" ">
<polygon fill="white" stroke="#bfbfbf" points="108.06,-0.5 108.06,-19.5 177.06,-19.5 177.06,-0.5 108.06,-0.5"/>
<text text-anchor="middle" x="142.56" y="-7.5" font-family="Helvetica,sans-Serif" font-size="10.00">type_traits</text>
</a>
</g>
</g>
<!-- Node1&#45;&gt;Node8 -->
<g id="edge31" class="edge">
<title>Node1&#45;&gt;Node8</title>
<path fill="none" stroke="midnightblue" d="M210.03,-367.39C143.49,-360.92 47.27,-347.4 20.56,-322 -4.67,-298.01 1.56,-280.82 1.56,-246 1.56,-246 1.56,-246 1.56,-121 1.56,-69.26 61.3,-38.27 103.01,-22.94"/>
<polygon fill="midnightblue" stroke="midnightblue" points="104.38,-26.17 112.65,-19.55 102.06,-19.56 104.38,-26.17"/>
</g>
<!-- Node13 -->
<g id="node9" class="node">
<title>Node13</title>
<g id="a_node9"><a xlink:href="pretty__printer_8h.html" target="_top" xlink:title=" ">
<polygon fill="white" stroke="black" points="340.06,-291.5 340.06,-321.5 473.06,-321.5 473.06,-291.5 340.06,-291.5"/>
<text text-anchor="start" x="348.06" y="-309.5" font-family="Helvetica,sans-Serif" font-size="10.00">emlabcpp/experimental</text>
<text text-anchor="middle" x="406.56" y="-298.5" font-family="Helvetica,sans-Serif" font-size="10.00">/pretty_printer.h</text>
</a>
</g>
</g>
<!-- Node1&#45;&gt;Node13 -->
<g id="edge8" class="edge">
<title>Node1&#45;&gt;Node13</title>
<path fill="none" stroke="midnightblue" d="M304.77,-358.4C323.67,-348.94 348.78,-336.39 369.32,-326.12"/>
<polygon fill="midnightblue" stroke="midnightblue" points="371.03,-329.18 378.4,-321.58 367.89,-322.92 371.03,-329.18"/>
</g>
<!-- Node25 -->
<g id="node19" class="node">
<title>Node25</title>
<g id="a_node19"><a xlink:href="iterator_8h.html" target="_top" xlink:title=" ">
<polygon fill="white" stroke="black" points="29.56,-297 29.56,-316 141.56,-316 141.56,-297 29.56,-297"/>
<text text-anchor="middle" x="85.56" y="-304" font-family="Helvetica,sans-Serif" font-size="10.00">emlabcpp/iterator.h</text>
</a>
</g>
</g>
<!-- Node1&#45;&gt;Node25 -->
<g id="edge27" class="edge">
<title>Node1&#45;&gt;Node25</title>
<path fill="none" stroke="midnightblue" d="M235.11,-358.4C200.71,-346.69 152.35,-330.23 120.04,-319.23"/>
<polygon fill="midnightblue" stroke="midnightblue" points="121.15,-315.92 110.55,-316.01 118.89,-322.54 121.15,-315.92"/>
</g>
<!-- Node26 -->
<g id="node20" class="node">
<title>Node26</title>
<g id="a_node20"><a xlink:title=" ">
<polygon fill="white" stroke="#bfbfbf" points="491.06,-297 491.06,-316 528.06,-316 528.06,-297 491.06,-297"/>
<text text-anchor="middle" x="509.56" y="-304" font-family="Helvetica,sans-Serif" font-size="10.00">new</text>
</a>
</g>
</g>
<!-- Node1&#45;&gt;Node26 -->
<g id="edge30" class="edge">
<title>Node1&#45;&gt;Node26</title>
<path fill="none" stroke="midnightblue" d="M343.26,-360.6C384.23,-352.21 437.35,-339.36 482.56,-322 483.76,-321.54 484.97,-321.04 486.19,-320.5"/>
<polygon fill="midnightblue" stroke="midnightblue" points="487.87,-323.57 495.3,-316.02 484.78,-317.29 487.87,-323.57"/>
</g>
<!-- Node27 -->
<g id="node21" class="node">
<title>Node27</title>
<g id="a_node21"><a xlink:title=" ">
<polygon fill="white" stroke="#bfbfbf" points="546.06,-297 546.06,-316 591.06,-316 591.06,-297 546.06,-297"/>
<text text-anchor="middle" x="568.56" y="-304" font-family="Helvetica,sans-Serif" font-size="10.00">utility</text>
</a>
</g>
</g>
<!-- Node1&#45;&gt;Node27 -->
<g id="edge32" class="edge">
<title>Node1&#45;&gt;Node27</title>
<path fill="none" stroke="midnightblue" d="M343.12,-364.24C396.56,-356.51 473.04,-342.98 537.56,-322 539.23,-321.46 540.93,-320.85 542.62,-320.19"/>
<polygon fill="midnightblue" stroke="midnightblue" points="544.33,-323.27 552.13,-316.1 541.56,-316.84 544.33,-323.27"/>
</g>
<!-- Node3 -->
<g id="node3" class="node">
<title>Node3</title>
<g id="a_node3"><a xlink:href="types_2base_8h.html" target="_top" xlink:title=" ">
<polygon fill="white" stroke="red" points="317.56,-56.5 317.56,-75.5 447.56,-75.5 447.56,-56.5 317.56,-56.5"/>
<text text-anchor="middle" x="382.56" y="-63.5" font-family="Helvetica,sans-Serif" font-size="10.00">emlabcpp/types/base.h</text>
</a>
</g>
</g>
<!-- Node2&#45;&gt;Node3 -->
<g id="edge2" class="edge">
<title>Node2&#45;&gt;Node3</title>
<path fill="none" stroke="midnightblue" d="M308.7,-112.32C322.42,-103.9 343.49,-90.97 359.62,-81.07"/>
<polygon fill="midnightblue" stroke="midnightblue" points="361.76,-83.87 368.45,-75.65 358.1,-77.9 361.76,-83.87"/>
</g>
<!-- Node10 -->
<g id="node6" class="node">
<title>Node10</title>
<g id="a_node6"><a xlink:title=" ">
<polygon fill="white" stroke="#bfbfbf" points="239.56,-56.5 239.56,-75.5 299.56,-75.5 299.56,-56.5 239.56,-56.5"/>
<text text-anchor="middle" x="269.56" y="-63.5" font-family="Helvetica,sans-Serif" font-size="10.00">concepts</text>
</a>
</g>
</g>
<!-- Node2&#45;&gt;Node10 -->
<g id="edge5" class="edge">
<title>Node2&#45;&gt;Node10</title>
<path fill="none" stroke="midnightblue" d="M290.43,-112.08C287.04,-104.77 282.14,-94.18 277.94,-85.1"/>
<polygon fill="midnightblue" stroke="midnightblue" points="280.99,-83.36 273.61,-75.75 274.63,-86.3 280.99,-83.36"/>
</g>
<!-- Node11 -->
<g id="node7" class="node">
<title>Node11</title>
<g id="a_node7"><a xlink:title=" ">
<polygon fill="white" stroke="#bfbfbf" points="57.06,-56.5 57.06,-75.5 110.06,-75.5 110.06,-56.5 57.06,-56.5"/>
<text text-anchor="middle" x="83.56" y="-63.5" font-family="Helvetica,sans-Serif" font-size="10.00">iterator</text>
</a>
</g>
</g>
<!-- Node2&#45;&gt;Node11 -->
<g id="edge6" class="edge">
<title>Node2&#45;&gt;Node11</title>
<path fill="none" stroke="midnightblue" d="M261.12,-112.44C222.64,-102.59 159.65,-86.47 119.96,-76.32"/>
<polygon fill="midnightblue" stroke="midnightblue" points="120.71,-72.9 110.15,-73.81 118.97,-79.68 120.71,-72.9"/>
</g>
<!-- Node12 -->
<g id="node8" class="node">
<title>Node12</title>
<g id="a_node8"><a xlink:title=" ">
<polygon fill="white" stroke="#bfbfbf" points="597.06,-56.5 597.06,-75.5 648.06,-75.5 648.06,-56.5 597.06,-56.5"/>
<text text-anchor="middle" x="622.56" y="-63.5" font-family="Helvetica,sans-Serif" font-size="10.00">variant</text>
</a>
</g>
</g>
<!-- Node2&#45;&gt;Node12 -->
<g id="edge7" class="edge">
<title>Node2&#45;&gt;Node12</title>
<path fill="none" stroke="midnightblue" d="M346.53,-112.44C413.53,-101.41 528.32,-82.51 586.49,-72.94"/>
<polygon fill="midnightblue" stroke="midnightblue" points="587.37,-76.34 596.67,-71.26 586.24,-69.43 587.37,-76.34"/>
</g>
<!-- Node7 -->
<g id="node4" class="node">
<title>Node7</title>
<g id="a_node4"><a xlink:title=" ">
<polygon fill="white" stroke="#bfbfbf" points="491.06,-0.5 491.06,-19.5 532.06,-19.5 532.06,-0.5 491.06,-0.5"/>
<text text-anchor="middle" x="511.56" y="-7.5" font-family="Helvetica,sans-Serif" font-size="10.00">tuple</text>
</a>
</g>
</g>
<!-- Node3&#45;&gt;Node7 -->
<g id="edge3" class="edge">
<title>Node3&#45;&gt;Node7</title>
<path fill="none" stroke="midnightblue" d="M403,-56.44C424.23,-47.56 457.66,-33.56 481.81,-23.45"/>
<polygon fill="midnightblue" stroke="midnightblue" points="483.34,-26.61 491.21,-19.52 480.64,-20.15 483.34,-26.61"/>
</g>
<!-- Node3&#45;&gt;Node8 -->
<g id="edge4" class="edge">
<title>Node3&#45;&gt;Node8</title>
<path fill="none" stroke="midnightblue" d="M344.53,-56.44C301.77,-46.82 232.4,-31.21 187.13,-21.03"/>
<polygon fill="midnightblue" stroke="midnightblue" points="187.82,-17.6 177.29,-18.82 186.28,-24.42 187.82,-17.6"/>
</g>
<!-- Node13&#45;&gt;Node2 -->
<g id="edge9" class="edge">
<title>Node13&#45;&gt;Node2</title>
<path fill="none" stroke="midnightblue" d="M362.06,-291.36C344.24,-283.45 325.21,-271.74 313.56,-255 289.71,-220.75 290.03,-169.29 292.3,-141.84"/>
<polygon fill="midnightblue" stroke="midnightblue" points="295.81,-141.96 293.33,-131.66 288.84,-141.26 295.81,-141.96"/>
</g>
<!-- Node13&#45;&gt;Node7 -->
<g id="edge25" class="edge">
<title>Node13&#45;&gt;Node7</title>
<path fill="none" stroke="midnightblue" d="M473.27,-292.69C476.41,-292.11 479.52,-291.55 482.56,-291 576.61,-274.04 616.9,-310.71 694.56,-255 723.48,-234.25 732.56,-220.1 732.56,-184.5 732.56,-184.5 732.56,-184.5 732.56,-121 732.56,-37.11 603.35,-17.2 542.52,-12.47"/>
<polygon fill="midnightblue" stroke="midnightblue" points="542.56,-8.97 532.35,-11.77 542.09,-15.95 542.56,-8.97"/>
</g>
<!-- Node13&#45;&gt;Node12 -->
<g id="edge26" class="edge">
<title>Node13&#45;&gt;Node12</title>
<path fill="none" stroke="midnightblue" d="M473.28,-292.75C476.42,-292.16 479.52,-291.57 482.56,-291 525.43,-282.91 647.68,-288.56 675.56,-255 718.51,-203.3 663.18,-118.96 636.01,-83.52"/>
<polygon fill="midnightblue" stroke="midnightblue" points="638.72,-81.3 629.79,-75.61 633.22,-85.63 638.72,-81.3"/>
</g>
<!-- Node14 -->
<g id="node10" class="node">
<title>Node14</title>
<g id="a_node10"><a xlink:href="enum_8h.html" target="_top" xlink:title=" ">
<polygon fill="white" stroke="black" points="90.56,-112.5 90.56,-131.5 194.56,-131.5 194.56,-112.5 90.56,-112.5"/>
<text text-anchor="middle" x="142.56" y="-119.5" font-family="Helvetica,sans-Serif" font-size="10.00">emlabcpp/enum.h</text>
</a>
</g>
</g>
<!-- Node13&#45;&gt;Node14 -->
<g id="edge10" class="edge">
<title>Node13&#45;&gt;Node14</title>
<path fill="none" stroke="midnightblue" d="M339.96,-300.6C275.02,-294.35 182.62,-281.08 158.56,-255 130.08,-224.14 134,-170.47 138.65,-142"/>
<polygon fill="midnightblue" stroke="midnightblue" points="142.16,-142.27 140.53,-131.8 135.27,-141 142.16,-142.27"/>
</g>
<!-- Node15 -->
<g id="node11" class="node">
<title>Node15</title>
<g id="a_node11"><a xlink:href="decompose_8h.html" target="_top" xlink:title=" ">
<polygon fill="white" stroke="black" points="445.06,-168.5 445.06,-198.5 578.06,-198.5 578.06,-168.5 445.06,-168.5"/>
<text text-anchor="start" x="453.06" y="-186.5" font-family="Helvetica,sans-Serif" font-size="10.00">emlabcpp/experimental</text>
<text text-anchor="middle" x="511.56" y="-175.5" font-family="Helvetica,sans-Serif" font-size="10.00">/decompose.h</text>
</a>
</g>
</g>
<!-- Node13&#45;&gt;Node15 -->
<g id="edge12" class="edge">
<title>Node13&#45;&gt;Node15</title>
<path fill="none" stroke="midnightblue" d="M417.86,-291.24C429.37,-276.85 447.86,-254.08 464.56,-235 472.98,-225.38 482.55,-215 490.84,-206.17"/>
<polygon fill="midnightblue" stroke="midnightblue" points="493.42,-208.54 497.74,-198.87 488.33,-203.73 493.42,-208.54"/>
</g>
<!-- Node16 -->
<g id="node12" class="node">
<title>Node16</title>
<g id="a_node12"><a xlink:href="match_8h.html" target="_top" xlink:title=" ">
<polygon fill="white" stroke="red" points="473.06,-235.5 473.06,-254.5 580.06,-254.5 580.06,-235.5 473.06,-235.5"/>
<text text-anchor="middle" x="526.56" y="-242.5" font-family="Helvetica,sans-Serif" font-size="10.00">emlabcpp/match.h</text>
</a>
</g>
</g>
<!-- Node13&#45;&gt;Node16 -->
<g id="edge15" class="edge">
<title>Node13&#45;&gt;Node16</title>
<path fill="none" stroke="midnightblue" d="M435,-291.4C454.68,-281.64 480.7,-268.74 499.97,-259.18"/>
<polygon fill="midnightblue" stroke="midnightblue" points="501.69,-262.24 509.1,-254.66 498.58,-255.96 501.69,-262.24"/>
</g>
<!-- Node18 -->
<g id="node13" class="node">
<title>Node18</title>
<g id="a_node13"><a xlink:href="types_8h.html" target="_top" xlink:title=" ">
<polygon fill="white" stroke="red" points="322.56,-174 322.56,-193 426.56,-193 426.56,-174 322.56,-174"/>
<text text-anchor="middle" x="374.56" y="-181" font-family="Helvetica,sans-Serif" font-size="10.00">emlabcpp/types.h</text>
</a>
</g>
</g>
<!-- Node13&#45;&gt;Node18 -->
<g id="edge16" class="edge">
<title>Node13&#45;&gt;Node18</title>
<path fill="none" stroke="midnightblue" d="M402.76,-291.14C396.93,-269.1 385.78,-226.95 379.39,-202.76"/>
<polygon fill="midnightblue" stroke="midnightblue" points="382.76,-201.82 376.82,-193.05 375.99,-203.61 382.76,-201.82"/>
</g>
<!-- Node20 -->
<g id="node14" class="node">
<title>Node20</title>
<g id="a_node14"><a xlink:href="view_8h.html" target="_top" xlink:title=" ">
<polygon fill="white" stroke="black" points="167.06,-235.5 167.06,-254.5 266.06,-254.5 266.06,-235.5 167.06,-235.5"/>
<text text-anchor="middle" x="216.56" y="-242.5" font-family="Helvetica,sans-Serif" font-size="10.00">emlabcpp/view.h</text>
</a>
</g>
</g>
<!-- Node13&#45;&gt;Node20 -->
<g id="edge19" class="edge">
<title>Node13&#45;&gt;Node20</title>
<path fill="none" stroke="midnightblue" d="M361.53,-291.4C328.7,-281.12 284.74,-267.35 253.86,-257.68"/>
<polygon fill="midnightblue" stroke="midnightblue" points="254.52,-254.22 243.93,-254.57 252.42,-260.9 254.52,-254.22"/>
</g>
<!-- Node21 -->
<g id="node15" class="node">
<title>Node21</title>
<g id="a_node15"><a xlink:title=" ">
<polygon fill="white" stroke="#bfbfbf" points="598.56,-235.5 598.56,-254.5 666.56,-254.5 666.56,-235.5 598.56,-235.5"/>
<text text-anchor="middle" x="632.56" y="-242.5" font-family="Helvetica,sans-Serif" font-size="10.00">filesystem</text>
</a>
</g>
</g>
<!-- Node13&#45;&gt;Node21 -->
<g id="edge21" class="edge">
<title>Node13&#45;&gt;Node21</title>
<path fill="none" stroke="midnightblue" d="M459.83,-291.47C499.67,-280.99 553.41,-266.84 590.31,-257.12"/>
<polygon fill="midnightblue" stroke="midnightblue" points="591.47,-260.44 600.25,-254.51 589.69,-253.67 591.47,-260.44"/>
</g>
<!-- Node22 -->
<g id="node16" class="node">
<title>Node22</title>
<g id="a_node16"><a xlink:title=" ">
<polygon fill="white" stroke="#bfbfbf" points="760.56,-235.5 760.56,-254.5 816.56,-254.5 816.56,-235.5 760.56,-235.5"/>
<text text-anchor="middle" x="788.56" y="-242.5" font-family="Helvetica,sans-Serif" font-size="10.00">optional</text>
</a>
</g>
</g>
<!-- Node13&#45;&gt;Node22 -->
<g id="edge22" class="edge">
<title>Node13&#45;&gt;Node22</title>
<path fill="none" stroke="midnightblue" d="M473.25,-292.57C476.39,-292.02 479.51,-291.5 482.56,-291 599.43,-271.9 629.91,-275.42 746.56,-255 747.8,-254.78 749.06,-254.56 750.33,-254.32"/>
<polygon fill="midnightblue" stroke="midnightblue" points="751.01,-257.75 760.15,-252.39 749.66,-250.88 751.01,-257.75"/>
</g>
<!-- Node23 -->
<g id="node17" class="node">
<title>Node23</title>
<g id="a_node17"><a xlink:title=" ">
<polygon fill="white" stroke="#bfbfbf" points="834.56,-235.5 834.56,-254.5 874.56,-254.5 874.56,-235.5 834.56,-235.5"/>
<text text-anchor="middle" x="854.56" y="-242.5" font-family="Helvetica,sans-Serif" font-size="10.00">span</text>
</a>
</g>
</g>
<!-- Node13&#45;&gt;Node23 -->
<g id="edge23" class="edge">
<title>Node13&#45;&gt;Node23</title>
<path fill="none" stroke="midnightblue" d="M473.23,-292.45C476.38,-291.94 479.5,-291.45 482.56,-291 630.94,-269.1 673.59,-285.14 824.32,-254.87"/>
<polygon fill="midnightblue" stroke="midnightblue" points="825.31,-258.24 834.41,-252.81 823.91,-251.38 825.31,-258.24"/>
</g>
<!-- Node24 -->
<g id="node18" class="node">
<title>Node24</title>
<g id="a_node18"><a xlink:title=" ">
<polygon fill="white" stroke="#bfbfbf" points="322.56,-235.5 322.56,-254.5 378.56,-254.5 378.56,-235.5 322.56,-235.5"/>
<text text-anchor="middle" x="350.56" y="-242.5" font-family="Helvetica,sans-Serif" font-size="10.00">sstream</text>
</a>
</g>
</g>
<!-- Node13&#45;&gt;Node24 -->
<g id="edge24" class="edge">
<title>Node13&#45;&gt;Node24</title>
<path fill="none" stroke="midnightblue" d="M393.29,-291.4C384.98,-282.58 374.26,-271.18 365.63,-262.02"/>
<polygon fill="midnightblue" stroke="midnightblue" points="368.11,-259.54 358.71,-254.66 363.01,-264.34 368.11,-259.54"/>
</g>
<!-- Node14&#45;&gt;Node8 -->
<g id="edge11" class="edge">
<title>Node14&#45;&gt;Node8</title>
<path fill="none" stroke="midnightblue" d="M142.56,-112.37C142.56,-94.62 142.56,-53.67 142.56,-29.6"/>
<polygon fill="midnightblue" stroke="midnightblue" points="146.06,-29.59 142.56,-19.59 139.06,-29.59 146.06,-29.59"/>
</g>
<!-- Node15&#45;&gt;Node2 -->
<g id="edge13" class="edge">
<title>Node15&#45;&gt;Node2</title>
<path fill="none" stroke="midnightblue" d="M460.41,-168.47C422.32,-158.03 370.99,-143.96 335.58,-134.25"/>
<polygon fill="midnightblue" stroke="midnightblue" points="336.15,-130.78 325.58,-131.51 334.3,-137.53 336.15,-130.78"/>
</g>
<!-- Node15&#45;&gt;Node7 -->
<g id="edge14" class="edge">
<title>Node15&#45;&gt;Node7</title>
<path fill="none" stroke="midnightblue" d="M511.56,-168.47C511.56,-137.7 511.56,-64.33 511.56,-29.7"/>
<polygon fill="midnightblue" stroke="midnightblue" points="515.06,-29.56 511.56,-19.56 508.06,-29.56 515.06,-29.56"/>
</g>
<!-- Node18&#45;&gt;Node2 -->
<g id="edge17" class="edge">
<title>Node18&#45;&gt;Node2</title>
<path fill="none" stroke="midnightblue" d="M363.1,-173.98C350.38,-164.52 329.64,-149.1 314.3,-137.69"/>
<polygon fill="midnightblue" stroke="midnightblue" points="316.11,-134.67 306,-131.51 311.93,-140.29 316.11,-134.67"/>
</g>
<!-- Node18&#45;&gt;Node3 -->
<g id="edge18" class="edge">
<title>Node18&#45;&gt;Node3</title>
<path fill="none" stroke="midnightblue" d="M375.16,-173.82C376.44,-155.26 379.49,-111.34 381.24,-85.97"/>
<polygon fill="midnightblue" stroke="midnightblue" points="384.75,-86 381.95,-75.78 377.77,-85.52 384.75,-86"/>
</g>
<!-- Node20&#45;&gt;Node18 -->
<g id="edge20" class="edge">
<title>Node20&#45;&gt;Node18</title>
<path fill="none" stroke="midnightblue" d="M239.2,-235.48C266.3,-225.27 311.87,-208.11 342.56,-196.55"/>
<polygon fill="midnightblue" stroke="midnightblue" points="343.84,-199.81 351.96,-193.01 341.37,-193.26 343.84,-199.81"/>
</g>
<!-- Node25&#45;&gt;Node11 -->
<g id="edge29" class="edge">
<title>Node25&#45;&gt;Node11</title>
<path fill="none" stroke="midnightblue" d="M85.1,-296.63C83.76,-269.18 79.98,-183.22 81.56,-112 81.75,-103.39 82.15,-93.86 82.54,-85.8"/>
<polygon fill="midnightblue" stroke="midnightblue" points="86.04,-85.79 83.06,-75.62 79.05,-85.43 86.04,-85.79"/>
</g>
<!-- Node25&#45;&gt;Node20 -->
<g id="edge28" class="edge">
<title>Node25&#45;&gt;Node20</title>
<path fill="none" stroke="midnightblue" d="M104.33,-296.98C126.41,-286.95 163.28,-270.2 188.7,-258.65"/>
<polygon fill="midnightblue" stroke="midnightblue" points="190.17,-261.83 197.82,-254.51 187.27,-255.46 190.17,-261.83"/>
</g>
</g>
</svg>
