<?xml version="1.0" encoding="UTF-8" standalone="no"?>
<!DOCTYPE svg PUBLIC "-//W3C//DTD SVG 1.1//EN"
 "http://www.w3.org/Graphics/SVG/1.1/DTD/svg11.dtd">
<!-- Generated by graphviz version 2.43.0 (0)
 -->
<!-- Title: include/emlabcpp/static_vector.h Pages: 1 -->
<svg width="1564pt" height="397pt"
 viewBox="0.00 0.00 1564.44 397.00" xmlns="http://www.w3.org/2000/svg" xmlns:xlink="http://www.w3.org/1999/xlink">
<g id="graph0" class="graph" transform="scale(1 1) rotate(0) translate(4 393)">
<title>include/emlabcpp/static_vector.h</title>
<polygon fill="white" stroke="transparent" points="-4,4 -4,-393 1560.44,-393 1560.44,4 -4,4"/>
<!-- Node1 -->
<g id="node1" class="node">
<title>Node1</title>
<g id="a_node1"><a xlink:title=" ">
<polygon fill="#bfbfbf" stroke="black" points="615.44,-358.5 615.44,-388.5 748.44,-388.5 748.44,-358.5 615.44,-358.5"/>
<text text-anchor="start" x="623.44" y="-376.5" font-family="Helvetica,sans-Serif" font-size="10.00">include/emlabcpp/static</text>
<text text-anchor="middle" x="681.94" y="-365.5" font-family="Helvetica,sans-Serif" font-size="10.00">_vector.h</text>
</a>
</g>
</g>
<!-- Node2 -->
<g id="node2" class="node">
<title>Node2</title>
<g id="a_node2"><a xlink:href="concepts_8h.html" target="_top" xlink:title=" ">
<polygon fill="white" stroke="black" points="130.94,-112.5 130.94,-131.5 250.94,-131.5 250.94,-112.5 130.94,-112.5"/>
<text text-anchor="middle" x="190.94" y="-119.5" font-family="Helvetica,sans-Serif" font-size="10.00">emlabcpp/concepts.h</text>
</a>
</g>
</g>
<!-- Node1&#45;&gt;Node2 -->
<g id="edge1" class="edge">
<title>Node1&#45;&gt;Node2</title>
<path fill="none" stroke="midnightblue" d="M615.21,-371.95C497.3,-368.44 247.17,-349.39 62.94,-255 30.76,-238.52 18.21,-232.22 3.94,-199 -17.98,-147.99 58.85,-131.01 120.6,-125.47"/>
<polygon fill="midnightblue" stroke="midnightblue" points="121.07,-128.95 130.75,-124.65 120.5,-121.97 121.07,-128.95"/>
</g>
<!-- Node13 -->
<g id="node8" class="node">
<title>Node13</title>
<g id="a_node8"><a xlink:href="pretty__printer_8h.html" target="_top" xlink:title=" ">
<polygon fill="white" stroke="black" points="615.44,-291.5 615.44,-321.5 748.44,-321.5 748.44,-291.5 615.44,-291.5"/>
<text text-anchor="start" x="623.44" y="-309.5" font-family="Helvetica,sans-Serif" font-size="10.00">emlabcpp/experimental</text>
<text text-anchor="middle" x="681.94" y="-298.5" font-family="Helvetica,sans-Serif" font-size="10.00">/pretty_printer.h</text>
</a>
</g>
</g>
<!-- Node1&#45;&gt;Node13 -->
<g id="edge7" class="edge">
<title>Node1&#45;&gt;Node13</title>
<path fill="none" stroke="midnightblue" d="M681.94,-358.4C681.94,-350.64 681.94,-340.81 681.94,-331.86"/>
<polygon fill="midnightblue" stroke="midnightblue" points="685.44,-331.58 681.94,-321.58 678.44,-331.58 685.44,-331.58"/>
</g>
<!-- Node33 -->
<g id="node24" class="node">
<title>Node33</title>
<g id="a_node24"><a xlink:href="static__storage_8h.html" target="_top" xlink:title=" ">
<polygon fill="white" stroke="black" points="1354.94,-297 1354.94,-316 1500.94,-316 1500.94,-297 1354.94,-297"/>
<text text-anchor="middle" x="1427.94" y="-304" font-family="Helvetica,sans-Serif" font-size="10.00">emlabcpp/static_storage.h</text>
</a>
</g>
</g>
<!-- Node1&#45;&gt;Node33 -->
<g id="edge31" class="edge">
<title>Node1&#45;&gt;Node33</title>
<path fill="none" stroke="midnightblue" d="M748.47,-366.7C884.79,-354.83 1195.53,-327.75 1344.83,-314.74"/>
<polygon fill="midnightblue" stroke="midnightblue" points="1345.21,-318.22 1354.86,-313.87 1344.6,-311.25 1345.21,-318.22"/>
</g>
<!-- Node3 -->
<g id="node3" class="node">
<title>Node3</title>
<g id="a_node3"><a xlink:href="types_2base_8h.html" target="_top" xlink:title=" ">
<polygon fill="white" stroke="red" points="292.94,-56.5 292.94,-75.5 422.94,-75.5 422.94,-56.5 292.94,-56.5"/>
<text text-anchor="middle" x="357.94" y="-63.5" font-family="Helvetica,sans-Serif" font-size="10.00">emlabcpp/types/base.h</text>
</a>
</g>
</g>
<!-- Node2&#45;&gt;Node3 -->
<g id="edge2" class="edge">
<title>Node2&#45;&gt;Node3</title>
<path fill="none" stroke="midnightblue" d="M217.4,-112.44C245.61,-103.32 290.48,-88.81 321.9,-78.65"/>
<polygon fill="midnightblue" stroke="midnightblue" points="323.16,-81.92 331.6,-75.52 321.01,-75.26 323.16,-81.92"/>
</g>
<!-- Node10 -->
<g id="node5" class="node">
<title>Node10</title>
<g id="a_node5"><a xlink:title=" ">
<polygon fill="white" stroke="#bfbfbf" points="137.94,-56.5 137.94,-75.5 197.94,-75.5 197.94,-56.5 137.94,-56.5"/>
<text text-anchor="middle" x="167.94" y="-63.5" font-family="Helvetica,sans-Serif" font-size="10.00">concepts</text>
</a>
</g>
</g>
<!-- Node2&#45;&gt;Node10 -->
<g id="edge4" class="edge">
<title>Node2&#45;&gt;Node10</title>
<path fill="none" stroke="midnightblue" d="M187.14,-112.08C184.02,-104.77 179.51,-94.18 175.65,-85.1"/>
<polygon fill="midnightblue" stroke="midnightblue" points="178.8,-83.58 171.66,-75.75 172.36,-86.32 178.8,-83.58"/>
</g>
<!-- Node11 -->
<g id="node6" class="node">
<title>Node11</title>
<g id="a_node6"><a xlink:title=" ">
<polygon fill="white" stroke="#bfbfbf" points="216.44,-56.5 216.44,-75.5 269.44,-75.5 269.44,-56.5 216.44,-56.5"/>
<text text-anchor="middle" x="242.94" y="-63.5" font-family="Helvetica,sans-Serif" font-size="10.00">iterator</text>
</a>
</g>
</g>
<!-- Node2&#45;&gt;Node11 -->
<g id="edge5" class="edge">
<title>Node2&#45;&gt;Node11</title>
<path fill="none" stroke="midnightblue" d="M199.52,-112.08C207.09,-104.22 218.31,-92.57 227.45,-83.08"/>
<polygon fill="midnightblue" stroke="midnightblue" points="230.09,-85.38 234.51,-75.75 225.05,-80.53 230.09,-85.38"/>
</g>
<!-- Node12 -->
<g id="node7" class="node">
<title>Node12</title>
<g id="a_node7"><a xlink:title=" ">
<polygon fill="white" stroke="#bfbfbf" points="794.44,-56.5 794.44,-75.5 845.44,-75.5 845.44,-56.5 794.44,-56.5"/>
<text text-anchor="middle" x="819.94" y="-63.5" font-family="Helvetica,sans-Serif" font-size="10.00">variant</text>
</a>
</g>
</g>
<!-- Node2&#45;&gt;Node12 -->
<g id="edge6" class="edge">
<title>Node2&#45;&gt;Node12</title>
<path fill="none" stroke="midnightblue" d="M250.96,-115.85C379.97,-104.77 680.37,-78.98 784.02,-70.08"/>
<polygon fill="midnightblue" stroke="midnightblue" points="784.6,-73.55 794.26,-69.2 784,-66.57 784.6,-73.55"/>
</g>
<!-- Node7 -->
<g id="node4" class="node">
<title>Node7</title>
<g id="a_node4"><a xlink:title=" ">
<polygon fill="white" stroke="#bfbfbf" points="337.44,-0.5 337.44,-19.5 378.44,-19.5 378.44,-0.5 337.44,-0.5"/>
<text text-anchor="middle" x="357.94" y="-7.5" font-family="Helvetica,sans-Serif" font-size="10.00">tuple</text>
</a>
</g>
</g>
<!-- Node3&#45;&gt;Node7 -->
<g id="edge3" class="edge">
<title>Node3&#45;&gt;Node7</title>
<path fill="none" stroke="midnightblue" d="M357.94,-56.08C357.94,-49.01 357.94,-38.86 357.94,-29.99"/>
<polygon fill="midnightblue" stroke="midnightblue" points="361.44,-29.75 357.94,-19.75 354.44,-29.75 361.44,-29.75"/>
</g>
<!-- Node13&#45;&gt;Node2 -->
<g id="edge8" class="edge">
<title>Node13&#45;&gt;Node2</title>
<path fill="none" stroke="midnightblue" d="M615.32,-304.58C471.4,-301.91 141.63,-291.79 107.94,-255 80.42,-224.96 143.22,-213.5 154.94,-199 168.95,-181.66 179.06,-157.95 184.93,-141.65"/>
<polygon fill="midnightblue" stroke="midnightblue" points="188.4,-142.31 188.32,-131.72 181.78,-140.06 188.4,-142.31"/>
</g>
<!-- Node13&#45;&gt;Node7 -->
<g id="edge28" class="edge">
<title>Node13&#45;&gt;Node7</title>
<path fill="none" stroke="midnightblue" d="M748.53,-306.23C866.82,-306.33 1107.57,-300.69 1175.94,-255 1205.53,-235.22 1213.94,-220.1 1213.94,-184.5 1213.94,-184.5 1213.94,-184.5 1213.94,-121 1213.94,-36.04 542.03,-15.28 388.79,-11.65"/>
<polygon fill="midnightblue" stroke="midnightblue" points="388.75,-8.15 378.67,-11.42 388.59,-15.15 388.75,-8.15"/>
</g>
<!-- Node13&#45;&gt;Node12 -->
<g id="edge30" class="edge">
<title>Node13&#45;&gt;Node12</title>
<path fill="none" stroke="midnightblue" d="M748.59,-303.24C872.72,-298.35 1129.2,-284.73 1155.94,-255 1250.34,-150 960.16,-90.27 855.81,-72.6"/>
<polygon fill="midnightblue" stroke="midnightblue" points="856.18,-69.11 845.74,-70.93 855.03,-76.02 856.18,-69.11"/>
</g>
<!-- Node14 -->
<g id="node9" class="node">
<title>Node14</title>
<g id="a_node9"><a xlink:href="enum_8h.html" target="_top" xlink:title=" ">
<polygon fill="white" stroke="red" points="1241.94,-235.5 1241.94,-254.5 1345.94,-254.5 1345.94,-235.5 1241.94,-235.5"/>
<text text-anchor="middle" x="1293.94" y="-242.5" font-family="Helvetica,sans-Serif" font-size="10.00">emlabcpp/enum.h</text>
</a>
</g>
</g>
<!-- Node13&#45;&gt;Node14 -->
<g id="edge9" class="edge">
<title>Node13&#45;&gt;Node14</title>
<path fill="none" stroke="midnightblue" d="M748.85,-300.25C851.9,-291.95 1055.56,-274.71 1227.94,-255 1229.2,-254.86 1230.47,-254.71 1231.75,-254.56"/>
<polygon fill="midnightblue" stroke="midnightblue" points="1232.22,-258.02 1241.72,-253.33 1231.37,-251.08 1232.22,-258.02"/>
</g>
<!-- Node15 -->
<g id="node10" class="node">
<title>Node15</title>
<g id="a_node10"><a xlink:href="decompose_8h.html" target="_top" xlink:title=" ">
<polygon fill="white" stroke="black" points="13.44,-168.5 13.44,-198.5 146.44,-198.5 146.44,-168.5 13.44,-168.5"/>
<text text-anchor="start" x="21.44" y="-186.5" font-family="Helvetica,sans-Serif" font-size="10.00">emlabcpp/experimental</text>
<text text-anchor="middle" x="79.94" y="-175.5" font-family="Helvetica,sans-Serif" font-size="10.00">/decompose.h</text>
</a>
</g>
</g>
<!-- Node13&#45;&gt;Node15 -->
<g id="edge10" class="edge">
<title>Node13&#45;&gt;Node15</title>
<path fill="none" stroke="midnightblue" d="M615.18,-304.93C465.03,-302.94 110.94,-294.12 74.94,-255 63.66,-242.75 65.74,-223.68 70.19,-208.46"/>
<polygon fill="midnightblue" stroke="midnightblue" points="73.61,-209.27 73.51,-198.67 66.98,-207.02 73.61,-209.27"/>
</g>
<!-- Node16 -->
<g id="node11" class="node">
<title>Node16</title>
<g id="a_node11"><a xlink:href="match_8h.html" target="_top" xlink:title=" ">
<polygon fill="white" stroke="red" points="117.44,-235.5 117.44,-254.5 224.44,-254.5 224.44,-235.5 117.44,-235.5"/>
<text text-anchor="middle" x="170.94" y="-242.5" font-family="Helvetica,sans-Serif" font-size="10.00">emlabcpp/match.h</text>
</a>
</g>
</g>
<!-- Node13&#45;&gt;Node16 -->
<g id="edge13" class="edge">
<title>Node13&#45;&gt;Node16</title>
<path fill="none" stroke="midnightblue" d="M615.07,-298.59C529.5,-289.6 376.41,-273.06 234.72,-255.07"/>
<polygon fill="midnightblue" stroke="midnightblue" points="234.9,-251.56 224.54,-253.77 234.01,-258.5 234.9,-251.56"/>
</g>
<!-- Node18 -->
<g id="node12" class="node">
<title>Node18</title>
<g id="a_node12"><a xlink:href="range_8h.html" target="_top" xlink:title=" ">
<polygon fill="white" stroke="red" points="242.94,-235.5 242.94,-254.5 346.94,-254.5 346.94,-235.5 242.94,-235.5"/>
<text text-anchor="middle" x="294.94" y="-242.5" font-family="Helvetica,sans-Serif" font-size="10.00">emlabcpp/range.h</text>
</a>
</g>
</g>
<!-- Node13&#45;&gt;Node18 -->
<g id="edge14" class="edge">
<title>Node13&#45;&gt;Node18</title>
<path fill="none" stroke="midnightblue" d="M615.41,-295.27C542.9,-284.12 427.81,-266.43 357.08,-255.55"/>
<polygon fill="midnightblue" stroke="midnightblue" points="357.39,-252.06 346.98,-254 356.33,-258.98 357.39,-252.06"/>
</g>
<!-- Node22 -->
<g id="node13" class="node">
<title>Node22</title>
<g id="a_node13"><a xlink:href="types_8h.html" target="_top" xlink:title=" ">
<polygon fill="white" stroke="red" points="317.94,-174 317.94,-193 421.94,-193 421.94,-174 317.94,-174"/>
<text text-anchor="middle" x="369.94" y="-181" font-family="Helvetica,sans-Serif" font-size="10.00">emlabcpp/types.h</text>
</a>
</g>
</g>
<!-- Node13&#45;&gt;Node22 -->
<g id="edge15" class="edge">
<title>Node13&#45;&gt;Node22</title>
<path fill="none" stroke="midnightblue" d="M615.38,-301.58C540.91,-295.89 426.42,-282.82 393.94,-255 379.08,-242.28 373.4,-219.97 371.24,-203.85"/>
<polygon fill="midnightblue" stroke="midnightblue" points="374.68,-203.04 370.21,-193.43 367.71,-203.73 374.68,-203.04"/>
</g>
<!-- Node21 -->
<g id="node14" class="node">
<title>Node21</title>
<g id="a_node14"><a xlink:href="view_8h.html" target="_top" xlink:title=" ">
<polygon fill="white" stroke="black" points="1048.44,-235.5 1048.44,-254.5 1147.44,-254.5 1147.44,-235.5 1048.44,-235.5"/>
<text text-anchor="middle" x="1097.94" y="-242.5" font-family="Helvetica,sans-Serif" font-size="10.00">emlabcpp/view.h</text>
</a>
</g>
</g>
<!-- Node13&#45;&gt;Node21 -->
<g id="edge18" class="edge">
<title>Node13&#45;&gt;Node21</title>
<path fill="none" stroke="midnightblue" d="M748.75,-296.27C818.33,-286.61 930.77,-270.85 1038.31,-255.08"/>
<polygon fill="midnightblue" stroke="midnightblue" points="1038.98,-258.52 1048.37,-253.6 1037.96,-251.59 1038.98,-258.52"/>
</g>
<!-- Node24 -->
<g id="node15" class="node">
<title>Node24</title>
<g id="a_node15"><a xlink:title=" ">
<polygon fill="white" stroke="#bfbfbf" points="402.94,-235.5 402.94,-254.5 446.94,-254.5 446.94,-235.5 402.94,-235.5"/>
<text text-anchor="middle" x="424.94" y="-242.5" font-family="Helvetica,sans-Serif" font-size="10.00">bitset</text>
</a>
</g>
</g>
<!-- Node13&#45;&gt;Node24 -->
<g id="edge20" class="edge">
<title>Node13&#45;&gt;Node24</title>
<path fill="none" stroke="midnightblue" d="M615.42,-291.78C572.64,-282.7 515.67,-270.1 457.05,-255.17"/>
<polygon fill="midnightblue" stroke="midnightblue" points="457.8,-251.75 447.24,-252.66 456.06,-258.53 457.8,-251.75"/>
</g>
<!-- Node25 -->
<g id="node16" class="node">
<title>Node25</title>
<g id="a_node16"><a xlink:title=" ">
<polygon fill="white" stroke="#bfbfbf" points="465.44,-235.5 465.44,-254.5 526.44,-254.5 526.44,-235.5 465.44,-235.5"/>
<text text-anchor="middle" x="495.94" y="-242.5" font-family="Helvetica,sans-Serif" font-size="10.00">charconv</text>
</a>
</g>
</g>
<!-- Node13&#45;&gt;Node25 -->
<g id="edge21" class="edge">
<title>Node13&#45;&gt;Node25</title>
<path fill="none" stroke="midnightblue" d="M637.86,-291.4C605.72,-281.12 562.68,-267.35 532.45,-257.68"/>
<polygon fill="midnightblue" stroke="midnightblue" points="533.32,-254.28 522.73,-254.57 531.19,-260.95 533.32,-254.28"/>
</g>
<!-- Node26 -->
<g id="node17" class="node">
<title>Node26</title>
<g id="a_node17"><a xlink:title=" ">
<polygon fill="white" stroke="#bfbfbf" points="544.94,-235.5 544.94,-254.5 594.94,-254.5 594.94,-235.5 544.94,-235.5"/>
<text text-anchor="middle" x="569.94" y="-242.5" font-family="Helvetica,sans-Serif" font-size="10.00">chrono</text>
</a>
</g>
</g>
<!-- Node13&#45;&gt;Node26 -->
<g id="edge22" class="edge">
<title>Node13&#45;&gt;Node26</title>
<path fill="none" stroke="midnightblue" d="M655.39,-291.4C637.27,-281.77 613.4,-269.09 595.49,-259.58"/>
<polygon fill="midnightblue" stroke="midnightblue" points="596.71,-256.26 586.23,-254.66 593.42,-262.44 596.71,-256.26"/>
</g>
<!-- Node27 -->
<g id="node18" class="node">
<title>Node27</title>
<g id="a_node18"><a xlink:title=" ">
<polygon fill="white" stroke="#bfbfbf" points="612.94,-235.5 612.94,-254.5 680.94,-254.5 680.94,-235.5 612.94,-235.5"/>
<text text-anchor="middle" x="646.94" y="-242.5" font-family="Helvetica,sans-Serif" font-size="10.00">filesystem</text>
</a>
</g>
</g>
<!-- Node13&#45;&gt;Node27 -->
<g id="edge23" class="edge">
<title>Node13&#45;&gt;Node27</title>
<path fill="none" stroke="midnightblue" d="M673.64,-291.4C668.71,-283.02 662.42,-272.33 657.18,-263.42"/>
<polygon fill="midnightblue" stroke="midnightblue" points="660.12,-261.5 652.03,-254.66 654.08,-265.05 660.12,-261.5"/>
</g>
<!-- Node28 -->
<g id="node19" class="node">
<title>Node28</title>
<g id="a_node19"><a xlink:title=" ">
<polygon fill="white" stroke="#bfbfbf" points="698.94,-235.5 698.94,-254.5 736.94,-254.5 736.94,-235.5 698.94,-235.5"/>
<text text-anchor="middle" x="717.94" y="-242.5" font-family="Helvetica,sans-Serif" font-size="10.00">map</text>
</a>
</g>
</g>
<!-- Node13&#45;&gt;Node28 -->
<g id="edge24" class="edge">
<title>Node13&#45;&gt;Node28</title>
<path fill="none" stroke="midnightblue" d="M690.47,-291.4C695.54,-283.02 702.01,-272.33 707.39,-263.42"/>
<polygon fill="midnightblue" stroke="midnightblue" points="710.52,-265.03 712.7,-254.66 704.53,-261.4 710.52,-265.03"/>
</g>
<!-- Node29 -->
<g id="node20" class="node">
<title>Node29</title>
<g id="a_node20"><a xlink:title=" ">
<polygon fill="white" stroke="#bfbfbf" points="754.94,-235.5 754.94,-254.5 810.94,-254.5 810.94,-235.5 754.94,-235.5"/>
<text text-anchor="middle" x="782.94" y="-242.5" font-family="Helvetica,sans-Serif" font-size="10.00">optional</text>
</a>
</g>
</g>
<!-- Node13&#45;&gt;Node29 -->
<g id="edge25" class="edge">
<title>Node13&#45;&gt;Node29</title>
<path fill="none" stroke="midnightblue" d="M705.87,-291.4C722.06,-281.86 743.34,-269.32 759.44,-259.84"/>
<polygon fill="midnightblue" stroke="midnightblue" points="761.4,-262.75 768.24,-254.66 757.85,-256.72 761.4,-262.75"/>
</g>
<!-- Node30 -->
<g id="node21" class="node">
<title>Node30</title>
<g id="a_node21"><a xlink:title=" ">
<polygon fill="white" stroke="#bfbfbf" points="828.94,-235.5 828.94,-254.5 860.94,-254.5 860.94,-235.5 828.94,-235.5"/>
<text text-anchor="middle" x="844.94" y="-242.5" font-family="Helvetica,sans-Serif" font-size="10.00">set</text>
</a>
</g>
</g>
<!-- Node13&#45;&gt;Node30 -->
<g id="edge26" class="edge">
<title>Node13&#45;&gt;Node30</title>
<path fill="none" stroke="midnightblue" d="M720.56,-291.4C750.98,-280.3 792.54,-265.13 819.06,-255.44"/>
<polygon fill="midnightblue" stroke="midnightblue" points="820.58,-258.62 828.77,-251.9 818.18,-252.04 820.58,-258.62"/>
</g>
<!-- Node31 -->
<g id="node22" class="node">
<title>Node31</title>
<g id="a_node22"><a xlink:title=" ">
<polygon fill="white" stroke="#bfbfbf" points="878.94,-235.5 878.94,-254.5 918.94,-254.5 918.94,-235.5 878.94,-235.5"/>
<text text-anchor="middle" x="898.94" y="-242.5" font-family="Helvetica,sans-Serif" font-size="10.00">span</text>
</a>
</g>
</g>
<!-- Node13&#45;&gt;Node31 -->
<g id="edge27" class="edge">
<title>Node13&#45;&gt;Node31</title>
<path fill="none" stroke="midnightblue" d="M736.39,-291.47C771.73,-282.22 818.99,-269.6 868.99,-255.2"/>
<polygon fill="midnightblue" stroke="midnightblue" points="870.05,-258.54 878.68,-252.39 868.11,-251.81 870.05,-258.54"/>
</g>
<!-- Node32 -->
<g id="node23" class="node">
<title>Node32</title>
<g id="a_node23"><a xlink:title=" ">
<polygon fill="white" stroke="#bfbfbf" points="937.44,-235.5 937.44,-254.5 1030.44,-254.5 1030.44,-235.5 937.44,-235.5"/>
<text text-anchor="middle" x="983.94" y="-242.5" font-family="Helvetica,sans-Serif" font-size="10.00">unordered_map</text>
</a>
</g>
</g>
<!-- Node13&#45;&gt;Node32 -->
<g id="edge29" class="edge">
<title>Node13&#45;&gt;Node32</title>
<path fill="none" stroke="midnightblue" d="M748.58,-292.37C803.35,-281.58 879.91,-266.5 930.66,-256.5"/>
<polygon fill="midnightblue" stroke="midnightblue" points="931.63,-259.87 940.76,-254.51 930.27,-253.01 931.63,-259.87"/>
</g>
<!-- Node15&#45;&gt;Node2 -->
<g id="edge11" class="edge">
<title>Node15&#45;&gt;Node2</title>
<path fill="none" stroke="midnightblue" d="M106.24,-168.4C124.2,-158.77 147.86,-146.09 165.61,-136.58"/>
<polygon fill="midnightblue" stroke="midnightblue" points="167.62,-139.47 174.78,-131.66 164.32,-133.3 167.62,-139.47"/>
</g>
<!-- Node15&#45;&gt;Node7 -->
<g id="edge12" class="edge">
<title>Node15&#45;&gt;Node7</title>
<path fill="none" stroke="midnightblue" d="M81.09,-168.18C84.05,-141.68 94.28,-85.05 128.94,-56 158.63,-31.11 271.76,-18.29 327.1,-13.4"/>
<polygon fill="midnightblue" stroke="midnightblue" points="327.68,-16.87 337.35,-12.53 327.09,-9.89 327.68,-16.87"/>
</g>
<!-- Node22&#45;&gt;Node2 -->
<g id="edge16" class="edge">
<title>Node22&#45;&gt;Node2</title>
<path fill="none" stroke="midnightblue" d="M344.29,-173.98C313.32,-163.68 261.06,-146.31 226.28,-134.75"/>
<polygon fill="midnightblue" stroke="midnightblue" points="227.13,-131.34 216.53,-131.51 224.92,-137.98 227.13,-131.34"/>
</g>
<!-- Node22&#45;&gt;Node3 -->
<g id="edge17" class="edge">
<title>Node22&#45;&gt;Node3</title>
<path fill="none" stroke="midnightblue" d="M369.03,-173.82C367.11,-155.26 362.54,-111.34 359.91,-85.97"/>
<polygon fill="midnightblue" stroke="midnightblue" points="363.36,-85.37 358.85,-75.78 356.4,-86.09 363.36,-85.37"/>
</g>
<!-- Node21&#45;&gt;Node22 -->
<g id="edge19" class="edge">
<title>Node21&#45;&gt;Node22</title>
<path fill="none" stroke="midnightblue" d="M1048.4,-236.16C1045.2,-235.74 1042.02,-235.35 1038.94,-235 816.51,-209.68 550.97,-193.91 432.44,-187.63"/>
<polygon fill="midnightblue" stroke="midnightblue" points="432.28,-184.11 422.11,-187.08 431.91,-191.11 432.28,-184.11"/>
</g>
<!-- Node34 -->
<g id="node25" class="node">
<title>Node34</title>
<g id="a_node25"><a xlink:title=" ">
<polygon fill="white" stroke="#bfbfbf" points="1503.44,-235.5 1503.44,-254.5 1556.44,-254.5 1556.44,-235.5 1503.44,-235.5"/>
<text text-anchor="middle" x="1529.94" y="-242.5" font-family="Helvetica,sans-Serif" font-size="10.00">cstddef</text>
</a>
</g>
</g>
<!-- Node33&#45;&gt;Node34 -->
<g id="edge32" class="edge">
<title>Node33&#45;&gt;Node34</title>
<path fill="none" stroke="midnightblue" d="M1442.55,-296.98C1459.29,-287.21 1486.94,-271.08 1506.65,-259.58"/>
<polygon fill="midnightblue" stroke="midnightblue" points="1508.47,-262.57 1515.35,-254.51 1504.95,-256.52 1508.47,-262.57"/>
</g>
<!-- Node35 -->
<g id="node26" class="node">
<title>Node35</title>
<g id="a_node26"><a xlink:title=" ">
<polygon fill="white" stroke="#bfbfbf" points="1363.94,-235.5 1363.94,-254.5 1421.94,-254.5 1421.94,-235.5 1363.94,-235.5"/>
<text text-anchor="middle" x="1392.94" y="-242.5" font-family="Helvetica,sans-Serif" font-size="10.00">memory</text>
</a>
</g>
</g>
<!-- Node33&#45;&gt;Node35 -->
<g id="edge33" class="edge">
<title>Node33&#45;&gt;Node35</title>
<path fill="none" stroke="midnightblue" d="M1422.92,-296.98C1417.77,-288.23 1409.62,-274.37 1403.12,-263.31"/>
<polygon fill="midnightblue" stroke="midnightblue" points="1406.03,-261.35 1397.94,-254.51 1399.99,-264.9 1406.03,-261.35"/>
</g>
<!-- Node36 -->
<g id="node27" class="node">
<title>Node36</title>
<g id="a_node27"><a xlink:title=" ">
<polygon fill="white" stroke="#bfbfbf" points="1440.44,-235.5 1440.44,-254.5 1485.44,-254.5 1485.44,-235.5 1440.44,-235.5"/>
<text text-anchor="middle" x="1462.94" y="-242.5" font-family="Helvetica,sans-Serif" font-size="10.00">utility</text>
</a>
</g>
</g>
<!-- Node33&#45;&gt;Node36 -->
<g id="edge34" class="edge">
<title>Node33&#45;&gt;Node36</title>
<path fill="none" stroke="midnightblue" d="M1432.95,-296.98C1438.1,-288.23 1446.25,-274.37 1452.75,-263.31"/>
<polygon fill="midnightblue" stroke="midnightblue" points="1455.88,-264.9 1457.93,-254.51 1449.84,-261.35 1455.88,-264.9"/>
</g>
</g>
</svg>
