<?xml version="1.0" encoding="UTF-8" standalone="no"?>
<!DOCTYPE svg PUBLIC "-//W3C//DTD SVG 1.1//EN"
 "http://www.w3.org/Graphics/SVG/1.1/DTD/svg11.dtd">
<!-- Generated by graphviz version 2.43.0 (0)
 -->
<!-- Title: include/emlabcpp/static_vector.h Pages: 1 -->
<svg width="1258pt" height="575pt"
 viewBox="0.00 0.00 1258.00 575.00" xmlns="http://www.w3.org/2000/svg" xmlns:xlink="http://www.w3.org/1999/xlink">
<g id="graph0" class="graph" transform="scale(1 1) rotate(0) translate(4 571)">
<title>include/emlabcpp/static_vector.h</title>
<polygon fill="white" stroke="transparent" points="-4,4 -4,-571 1254,-571 1254,4 -4,4"/>
<!-- Node1 -->
<g id="node1" class="node">
<title>Node1</title>
<g id="a_node1"><a xlink:title=" ">
<polygon fill="#bfbfbf" stroke="black" points="879.5,-536.5 879.5,-566.5 1012.5,-566.5 1012.5,-536.5 879.5,-536.5"/>
<text text-anchor="start" x="887.5" y="-554.5" font-family="Helvetica,sans-Serif" font-size="10.00">include/emlabcpp/static</text>
<text text-anchor="middle" x="946" y="-543.5" font-family="Helvetica,sans-Serif" font-size="10.00">_vector.h</text>
</a>
</g>
</g>
<!-- Node2 -->
<g id="node2" class="node">
<title>Node2</title>
<g id="a_node2"><a xlink:href="pool_8h.html" target="_top" xlink:title=" ">
<polygon fill="white" stroke="black" points="245.5,-134.5 245.5,-164.5 394.5,-164.5 394.5,-134.5 245.5,-134.5"/>
<text text-anchor="start" x="253.5" y="-152.5" font-family="Helvetica,sans-Serif" font-size="10.00">include/emlabcpp/allocator</text>
<text text-anchor="middle" x="320" y="-141.5" font-family="Helvetica,sans-Serif" font-size="10.00">/pool.h</text>
</a>
</g>
</g>
<!-- Node1&#45;&gt;Node2 -->
<g id="edge1" class="edge">
<title>Node1&#45;&gt;Node2</title>
<path fill="none" stroke="midnightblue" d="M869.4,-547.84C644.2,-539 0,-506.08 0,-418.5 0,-418.5 0,-418.5 0,-282.5 0,-228.71 156.45,-185.61 250.56,-164.54"/>
<polygon fill="midnightblue" stroke="midnightblue" points="869.35,-551.34 879.48,-548.23 869.62,-544.34 869.35,-551.34"/>
</g>
<!-- Node6 -->
<g id="node6" class="node">
<title>Node6</title>
<g id="a_node6"><a xlink:href="either_8h.html" target="_top" xlink:title=" ">
<polygon fill="white" stroke="black" points="874.5,-475 874.5,-494 1017.5,-494 1017.5,-475 874.5,-475"/>
<text text-anchor="middle" x="946" y="-482" font-family="Helvetica,sans-Serif" font-size="10.00">include/emlabcpp/either.h</text>
</a>
</g>
</g>
<!-- Node1&#45;&gt;Node6 -->
<g id="edge5" class="edge">
<title>Node1&#45;&gt;Node6</title>
<path fill="none" stroke="midnightblue" d="M946,-526.25C946,-515.02 946,-502.38 946,-494.19"/>
<polygon fill="midnightblue" stroke="midnightblue" points="942.5,-526.4 946,-536.4 949.5,-526.4 942.5,-526.4"/>
</g>
<!-- Node18 -->
<g id="node18" class="node">
<title>Node18</title>
<g id="a_node18"><a xlink:href="record_8h.html" target="_top" xlink:title=" ">
<polygon fill="white" stroke="black" points="993.5,-201.5 993.5,-231.5 1164.5,-231.5 1164.5,-201.5 993.5,-201.5"/>
<text text-anchor="start" x="1001.5" y="-219.5" font-family="Helvetica,sans-Serif" font-size="10.00">include/emlabcpp/experimental</text>
<text text-anchor="middle" x="1079" y="-208.5" font-family="Helvetica,sans-Serif" font-size="10.00">/testing/record.h</text>
</a>
</g>
</g>
<!-- Node1&#45;&gt;Node18 -->
<g id="edge31" class="edge">
<title>Node1&#45;&gt;Node18</title>
<path fill="none" stroke="midnightblue" d="M1022.91,-549.14C1112.97,-543 1250,-517.39 1250,-418.5 1250,-418.5 1250,-418.5 1250,-349.5 1250,-286.87 1177.23,-249.78 1126.63,-231.56"/>
<polygon fill="midnightblue" stroke="midnightblue" points="1022.48,-545.66 1012.71,-549.77 1022.91,-552.65 1022.48,-545.66"/>
</g>
<!-- Node19 -->
<g id="node19" class="node">
<title>Node19</title>
<g id="a_node19"><a xlink:href="experimental_2testing_2base_8h.html" target="_top" xlink:title=" ">
<polygon fill="white" stroke="black" points="1050.5,-335.5 1050.5,-365.5 1221.5,-365.5 1221.5,-335.5 1050.5,-335.5"/>
<text text-anchor="start" x="1058.5" y="-353.5" font-family="Helvetica,sans-Serif" font-size="10.00">include/emlabcpp/experimental</text>
<text text-anchor="middle" x="1136" y="-342.5" font-family="Helvetica,sans-Serif" font-size="10.00">/testing/base.h</text>
</a>
</g>
</g>
<!-- Node1&#45;&gt;Node19 -->
<g id="edge28" class="edge">
<title>Node1&#45;&gt;Node19</title>
<path fill="none" stroke="midnightblue" d="M980.63,-531.2C995.42,-522.39 1012.56,-511.39 1027,-500 1060.32,-473.73 1070.02,-467.3 1095,-433 1110.85,-411.23 1123.73,-382.44 1130.59,-365.54"/>
<polygon fill="midnightblue" stroke="midnightblue" points="978.63,-528.32 971.77,-536.39 982.17,-534.36 978.63,-528.32"/>
</g>
<!-- Node20 -->
<g id="node20" class="node">
<title>Node20</title>
<g id="a_node20"><a xlink:href="decl_8h.html" target="_top" xlink:title=" ">
<polygon fill="white" stroke="black" points="394,-469.5 394,-499.5 540,-499.5 540,-469.5 394,-469.5"/>
<text text-anchor="start" x="402" y="-487.5" font-family="Helvetica,sans-Serif" font-size="10.00">include/emlabcpp/protocol</text>
<text text-anchor="middle" x="467" y="-476.5" font-family="Helvetica,sans-Serif" font-size="10.00">/decl.h</text>
</a>
</g>
</g>
<!-- Node1&#45;&gt;Node20 -->
<g id="edge32" class="edge">
<title>Node1&#45;&gt;Node20</title>
<path fill="none" stroke="midnightblue" d="M869.47,-540.11C778.88,-527.82 629.14,-507.5 540.09,-495.42"/>
<polygon fill="midnightblue" stroke="midnightblue" points="869.02,-543.59 879.4,-541.46 869.96,-536.65 869.02,-543.59"/>
</g>
<!-- Node3 -->
<g id="node3" class="node">
<title>Node3</title>
<g id="a_node3"><a xlink:href="controller_8h.html" target="_top" xlink:title=" ">
<polygon fill="white" stroke="black" points="323.5,-67.5 323.5,-97.5 494.5,-97.5 494.5,-67.5 323.5,-67.5"/>
<text text-anchor="start" x="331.5" y="-85.5" font-family="Helvetica,sans-Serif" font-size="10.00">include/emlabcpp/experimental</text>
<text text-anchor="middle" x="409" y="-74.5" font-family="Helvetica,sans-Serif" font-size="10.00">/testing/controller.h</text>
</a>
</g>
</g>
<!-- Node2&#45;&gt;Node3 -->
<g id="edge2" class="edge">
<title>Node2&#45;&gt;Node3</title>
<path fill="none" stroke="midnightblue" d="M347.45,-128.45C361.14,-118.45 377.37,-106.6 389.73,-97.58"/>
<polygon fill="midnightblue" stroke="midnightblue" points="345.32,-125.67 339.31,-134.4 349.45,-131.32 345.32,-125.67"/>
</g>
<!-- Node5 -->
<g id="node5" class="node">
<title>Node5</title>
<g id="a_node5"><a xlink:href="reactor_8h.html" target="_top" xlink:title=" ">
<polygon fill="white" stroke="black" points="659.5,-67.5 659.5,-97.5 830.5,-97.5 830.5,-67.5 659.5,-67.5"/>
<text text-anchor="start" x="667.5" y="-85.5" font-family="Helvetica,sans-Serif" font-size="10.00">include/emlabcpp/experimental</text>
<text text-anchor="middle" x="745" y="-74.5" font-family="Helvetica,sans-Serif" font-size="10.00">/testing/reactor.h</text>
</a>
</g>
</g>
<!-- Node2&#45;&gt;Node5 -->
<g id="edge4" class="edge">
<title>Node2&#45;&gt;Node5</title>
<path fill="none" stroke="midnightblue" d="M404.72,-133.74C497.09,-118.94 592.37,-105.05 659.17,-95.53"/>
<polygon fill="midnightblue" stroke="midnightblue" points="403.96,-130.32 394.64,-135.36 405.07,-137.23 403.96,-130.32"/>
</g>
<!-- Node4 -->
<g id="node4" class="node">
<title>Node4</title>
<g id="a_node4"><a xlink:href="gtest_8h.html" target="_top" xlink:title=" ">
<polygon fill="white" stroke="black" points="323.5,-0.5 323.5,-30.5 494.5,-30.5 494.5,-0.5 323.5,-0.5"/>
<text text-anchor="start" x="331.5" y="-18.5" font-family="Helvetica,sans-Serif" font-size="10.00">include/emlabcpp/experimental</text>
<text text-anchor="middle" x="409" y="-7.5" font-family="Helvetica,sans-Serif" font-size="10.00">/testing/gtest.h</text>
</a>
</g>
</g>
<!-- Node3&#45;&gt;Node4 -->
<g id="edge3" class="edge">
<title>Node3&#45;&gt;Node4</title>
<path fill="none" stroke="midnightblue" d="M409,-57.11C409,-48.15 409,-38.32 409,-30.58"/>
<polygon fill="midnightblue" stroke="midnightblue" points="405.5,-57.4 409,-67.4 412.5,-57.4 405.5,-57.4"/>
</g>
<!-- Node7 -->
<g id="node7" class="node">
<title>Node7</title>
<g id="a_node7"><a xlink:href="def_8h.html" target="_top" xlink:title=" ">
<polygon fill="white" stroke="black" points="924,-402.5 924,-432.5 1070,-432.5 1070,-402.5 924,-402.5"/>
<text text-anchor="start" x="932" y="-420.5" font-family="Helvetica,sans-Serif" font-size="10.00">include/emlabcpp/protocol</text>
<text text-anchor="middle" x="997" y="-409.5" font-family="Helvetica,sans-Serif" font-size="10.00">/def.h</text>
</a>
</g>
</g>
<!-- Node6&#45;&gt;Node7 -->
<g id="edge6" class="edge">
<title>Node6&#45;&gt;Node7</title>
<path fill="none" stroke="midnightblue" d="M959.2,-466.67C967.5,-456.09 978.09,-442.6 985.95,-432.59"/>
<polygon fill="midnightblue" stroke="midnightblue" points="956.3,-464.71 952.88,-474.73 961.8,-469.03 956.3,-464.71"/>
</g>
<!-- Node8 -->
<g id="node8" class="node">
<title>Node8</title>
<g id="a_node8"><a xlink:href="handler_8h.html" target="_top" xlink:title=" ">
<polygon fill="white" stroke="black" points="886,-335.5 886,-365.5 1032,-365.5 1032,-335.5 886,-335.5"/>
<text text-anchor="start" x="894" y="-353.5" font-family="Helvetica,sans-Serif" font-size="10.00">include/emlabcpp/protocol</text>
<text text-anchor="middle" x="959" y="-342.5" font-family="Helvetica,sans-Serif" font-size="10.00">/handler.h</text>
</a>
</g>
</g>
<!-- Node6&#45;&gt;Node8 -->
<g id="edge13" class="edge">
<title>Node6&#45;&gt;Node8</title>
<path fill="none" stroke="midnightblue" d="M1020.35,-472.11C1042.95,-464.78 1065.38,-452.74 1079,-433 1100.6,-401.7 1054.97,-378.97 1013.9,-365.59"/>
<polygon fill="midnightblue" stroke="midnightblue" points="1019.28,-468.77 1010.69,-474.97 1021.27,-475.49 1019.28,-468.77"/>
</g>
<!-- Node11 -->
<g id="node11" class="node">
<title>Node11</title>
<g id="a_node11"><a xlink:href="register__handler_8h.html" target="_top" xlink:title=" ">
<polygon fill="white" stroke="black" points="722,-335.5 722,-365.5 868,-365.5 868,-335.5 722,-335.5"/>
<text text-anchor="start" x="730" y="-353.5" font-family="Helvetica,sans-Serif" font-size="10.00">include/emlabcpp/protocol</text>
<text text-anchor="middle" x="795" y="-342.5" font-family="Helvetica,sans-Serif" font-size="10.00">/register_handler.h</text>
</a>
</g>
</g>
<!-- Node6&#45;&gt;Node11 -->
<g id="edge14" class="edge">
<title>Node6&#45;&gt;Node11</title>
<path fill="none" stroke="midnightblue" d="M934.29,-466.73C921.53,-449.24 899.86,-421.66 877,-402 860.39,-387.72 839.31,-374.83 822.68,-365.65"/>
<polygon fill="midnightblue" stroke="midnightblue" points="931.44,-468.77 940.11,-474.87 937.14,-464.7 931.44,-468.77"/>
</g>
<!-- Node12 -->
<g id="node12" class="node">
<title>Node12</title>
<g id="a_node12"><a xlink:href="sequencer_8h.html" target="_top" xlink:title=" ">
<polygon fill="white" stroke="black" points="722,-402.5 722,-432.5 868,-432.5 868,-402.5 722,-402.5"/>
<text text-anchor="start" x="730" y="-420.5" font-family="Helvetica,sans-Serif" font-size="10.00">include/emlabcpp/protocol</text>
<text text-anchor="middle" x="795" y="-409.5" font-family="Helvetica,sans-Serif" font-size="10.00">/sequencer.h</text>
</a>
</g>
</g>
<!-- Node6&#45;&gt;Node12 -->
<g id="edge15" class="edge">
<title>Node6&#45;&gt;Node12</title>
<path fill="none" stroke="midnightblue" d="M916.76,-470.91C891.19,-459.91 854.1,-443.94 827.59,-432.53"/>
<polygon fill="midnightblue" stroke="midnightblue" points="915.38,-474.13 925.95,-474.87 918.15,-467.7 915.38,-474.13"/>
</g>
<!-- Node7&#45;&gt;Node8 -->
<g id="edge7" class="edge">
<title>Node7&#45;&gt;Node8</title>
<path fill="none" stroke="midnightblue" d="M983.6,-393.58C978.14,-384.24 972.01,-373.75 967.23,-365.58"/>
<polygon fill="midnightblue" stroke="midnightblue" points="980.69,-395.53 988.75,-402.4 986.73,-392 980.69,-395.53"/>
</g>
<!-- Node7&#45;&gt;Node11 -->
<g id="edge12" class="edge">
<title>Node7&#45;&gt;Node11</title>
<path fill="none" stroke="midnightblue" d="M943.32,-399.23C910.65,-388.71 869.43,-375.45 838.75,-365.58"/>
<polygon fill="midnightblue" stroke="midnightblue" points="942.58,-402.66 953.17,-402.4 944.72,-396 942.58,-402.66"/>
</g>
<!-- Node9 -->
<g id="node9" class="node">
<title>Node9</title>
<g id="a_node9"><a xlink:href="packet__handler_8h.html" target="_top" xlink:title=" ">
<polygon fill="white" stroke="black" points="836,-268.5 836,-298.5 982,-298.5 982,-268.5 836,-268.5"/>
<text text-anchor="start" x="844" y="-286.5" font-family="Helvetica,sans-Serif" font-size="10.00">include/emlabcpp/protocol</text>
<text text-anchor="middle" x="909" y="-275.5" font-family="Helvetica,sans-Serif" font-size="10.00">/packet_handler.h</text>
</a>
</g>
</g>
<!-- Node8&#45;&gt;Node9 -->
<g id="edge8" class="edge">
<title>Node8&#45;&gt;Node9</title>
<path fill="none" stroke="midnightblue" d="M942.04,-327.45C934.69,-317.9 926.31,-307 919.83,-298.58"/>
<polygon fill="midnightblue" stroke="midnightblue" points="939.28,-329.6 948.15,-335.4 944.83,-325.34 939.28,-329.6"/>
</g>
<!-- Node9&#45;&gt;Node5 -->
<g id="edge11" class="edge">
<title>Node9&#45;&gt;Node5</title>
<path fill="none" stroke="midnightblue" d="M890.76,-260.37C856.83,-219.19 784.89,-131.9 756.69,-97.68"/>
<polygon fill="midnightblue" stroke="midnightblue" points="888.14,-262.7 897.21,-268.19 893.55,-258.25 888.14,-262.7"/>
</g>
<!-- Node10 -->
<g id="node10" class="node">
<title>Node10</title>
<g id="a_node10"><a xlink:href="interface_8h.html" target="_top" xlink:title=" ">
<polygon fill="white" stroke="black" points="887.5,-134.5 887.5,-164.5 1058.5,-164.5 1058.5,-134.5 887.5,-134.5"/>
<text text-anchor="start" x="895.5" y="-152.5" font-family="Helvetica,sans-Serif" font-size="10.00">include/emlabcpp/experimental</text>
<text text-anchor="middle" x="973" y="-141.5" font-family="Helvetica,sans-Serif" font-size="10.00">/testing/interface.h</text>
</a>
</g>
</g>
<!-- Node9&#45;&gt;Node10 -->
<g id="edge9" class="edge">
<title>Node9&#45;&gt;Node10</title>
<path fill="none" stroke="midnightblue" d="M920.34,-259.12C933.64,-231.68 955.26,-187.09 966.2,-164.52"/>
<polygon fill="midnightblue" stroke="midnightblue" points="917.06,-257.85 915.85,-268.37 923.36,-260.9 917.06,-257.85"/>
</g>
<!-- Node10&#45;&gt;Node5 -->
<g id="edge10" class="edge">
<title>Node10&#45;&gt;Node5</title>
<path fill="none" stroke="midnightblue" d="M914.12,-131.71C877.02,-121.14 829.66,-107.63 794.5,-97.61"/>
<polygon fill="midnightblue" stroke="midnightblue" points="913.23,-135.1 923.81,-134.48 915.15,-128.37 913.23,-135.1"/>
</g>
<!-- Node13 -->
<g id="node13" class="node">
<title>Node13</title>
<g id="a_node13"><a xlink:href="packet_8h.html" target="_top" xlink:title=" ">
<polygon fill="white" stroke="black" points="558,-335.5 558,-365.5 704,-365.5 704,-335.5 558,-335.5"/>
<text text-anchor="start" x="566" y="-353.5" font-family="Helvetica,sans-Serif" font-size="10.00">include/emlabcpp/protocol</text>
<text text-anchor="middle" x="631" y="-342.5" font-family="Helvetica,sans-Serif" font-size="10.00">/packet.h</text>
</a>
</g>
</g>
<!-- Node12&#45;&gt;Node13 -->
<g id="edge16" class="edge">
<title>Node12&#45;&gt;Node13</title>
<path fill="none" stroke="midnightblue" d="M750.04,-398.68C723.74,-388.26 691,-375.28 666.52,-365.58"/>
<polygon fill="midnightblue" stroke="midnightblue" points="748.83,-401.97 759.41,-402.4 751.41,-395.46 748.83,-401.97"/>
</g>
<!-- Node13&#45;&gt;Node9 -->
<g id="edge27" class="edge">
<title>Node13&#45;&gt;Node9</title>
<path fill="none" stroke="midnightblue" d="M700.78,-333.19C746.3,-322.54 805.14,-308.78 848.65,-298.61"/>
<polygon fill="midnightblue" stroke="midnightblue" points="699.92,-329.79 690.98,-335.48 701.51,-336.61 699.92,-329.79"/>
</g>
<!-- Node14 -->
<g id="node14" class="node">
<title>Node14</title>
<g id="a_node14"><a xlink:href="experimental_2testing_2protocol_8h.html" target="_top" xlink:title=" ">
<polygon fill="white" stroke="black" points="545.5,-268.5 545.5,-298.5 716.5,-298.5 716.5,-268.5 545.5,-268.5"/>
<text text-anchor="start" x="553.5" y="-286.5" font-family="Helvetica,sans-Serif" font-size="10.00">include/emlabcpp/experimental</text>
<text text-anchor="middle" x="631" y="-275.5" font-family="Helvetica,sans-Serif" font-size="10.00">/testing/protocol.h</text>
</a>
</g>
</g>
<!-- Node13&#45;&gt;Node14 -->
<g id="edge17" class="edge">
<title>Node13&#45;&gt;Node14</title>
<path fill="none" stroke="midnightblue" d="M631,-325.11C631,-316.15 631,-306.32 631,-298.58"/>
<polygon fill="midnightblue" stroke="midnightblue" points="627.5,-325.4 631,-335.4 634.5,-325.4 627.5,-325.4"/>
</g>
<!-- Node14&#45;&gt;Node5 -->
<g id="edge22" class="edge">
<title>Node14&#45;&gt;Node5</title>
<path fill="none" stroke="midnightblue" d="M634.13,-258.24C636.95,-241.51 642.08,-219.12 651,-201 671.66,-159.05 709.39,-118.32 730.21,-97.61"/>
<polygon fill="midnightblue" stroke="midnightblue" points="630.64,-257.9 632.59,-268.31 637.56,-258.96 630.64,-257.9"/>
</g>
<!-- Node15 -->
<g id="node15" class="node">
<title>Node15</title>
<g id="a_node15"><a xlink:href="controller__interface_8h.html" target="_top" xlink:title=" ">
<polygon fill="white" stroke="black" points="412.5,-134.5 412.5,-164.5 583.5,-164.5 583.5,-134.5 412.5,-134.5"/>
<text text-anchor="start" x="420.5" y="-152.5" font-family="Helvetica,sans-Serif" font-size="10.00">include/emlabcpp/experimental</text>
<text text-anchor="middle" x="498" y="-141.5" font-family="Helvetica,sans-Serif" font-size="10.00">/testing/controller_interface.h</text>
</a>
</g>
</g>
<!-- Node14&#45;&gt;Node15 -->
<g id="edge18" class="edge">
<title>Node14&#45;&gt;Node15</title>
<path fill="none" stroke="midnightblue" d="M617.76,-259.47C607.09,-242.15 590.95,-218.49 573,-201 558.27,-186.65 538.98,-173.76 523.65,-164.6"/>
<polygon fill="midnightblue" stroke="midnightblue" points="614.95,-261.6 623.1,-268.37 620.95,-257.99 614.95,-261.6"/>
</g>
<!-- Node16 -->
<g id="node16" class="node">
<title>Node16</title>
<g id="a_node16"><a xlink:href="experimental_2testing_2error_8h.html" target="_top" xlink:title=" ">
<polygon fill="white" stroke="black" points="393.5,-201.5 393.5,-231.5 564.5,-231.5 564.5,-201.5 393.5,-201.5"/>
<text text-anchor="start" x="401.5" y="-219.5" font-family="Helvetica,sans-Serif" font-size="10.00">include/emlabcpp/experimental</text>
<text text-anchor="middle" x="479" y="-208.5" font-family="Helvetica,sans-Serif" font-size="10.00">/testing/error.h</text>
</a>
</g>
</g>
<!-- Node14&#45;&gt;Node16 -->
<g id="edge20" class="edge">
<title>Node14&#45;&gt;Node16</title>
<path fill="none" stroke="midnightblue" d="M588.69,-264.41C564.42,-254.03 534.41,-241.2 511.92,-231.58"/>
<polygon fill="midnightblue" stroke="midnightblue" points="587.45,-267.68 598.02,-268.4 590.2,-261.25 587.45,-267.68"/>
</g>
<!-- Node17 -->
<g id="node17" class="node">
<title>Node17</title>
<g id="a_node17"><a xlink:href="reactor__interface_8h.html" target="_top" xlink:title=" ">
<polygon fill="white" stroke="black" points="659.5,-201.5 659.5,-231.5 830.5,-231.5 830.5,-201.5 659.5,-201.5"/>
<text text-anchor="start" x="667.5" y="-219.5" font-family="Helvetica,sans-Serif" font-size="10.00">include/emlabcpp/experimental</text>
<text text-anchor="middle" x="745" y="-208.5" font-family="Helvetica,sans-Serif" font-size="10.00">/testing/reactor_interface.h</text>
</a>
</g>
</g>
<!-- Node14&#45;&gt;Node17 -->
<g id="edge23" class="edge">
<title>Node14&#45;&gt;Node17</title>
<path fill="none" stroke="midnightblue" d="M664.68,-263.3C682.52,-253.12 704.04,-240.85 720.31,-231.58"/>
<polygon fill="midnightblue" stroke="midnightblue" points="662.69,-260.4 655.74,-268.4 666.16,-266.48 662.69,-260.4"/>
</g>
<!-- Node14&#45;&gt;Node18 -->
<g id="edge25" class="edge">
<title>Node14&#45;&gt;Node18</title>
<path fill="none" stroke="midnightblue" d="M726.55,-268.64C805.67,-257.16 917.08,-240.99 993.34,-229.93"/>
<polygon fill="midnightblue" stroke="midnightblue" points="725.98,-265.18 716.58,-270.08 726.98,-272.11 725.98,-265.18"/>
</g>
<!-- Node15&#45;&gt;Node3 -->
<g id="edge19" class="edge">
<title>Node15&#45;&gt;Node3</title>
<path fill="none" stroke="midnightblue" d="M470.55,-128.45C456.86,-118.45 440.63,-106.6 428.27,-97.58"/>
<polygon fill="midnightblue" stroke="midnightblue" points="468.55,-131.32 478.69,-134.4 472.68,-125.67 468.55,-131.32"/>
</g>
<!-- Node16&#45;&gt;Node15 -->
<g id="edge21" class="edge">
<title>Node16&#45;&gt;Node15</title>
<path fill="none" stroke="midnightblue" d="M485.96,-191.7C488.62,-182.59 491.57,-172.49 493.89,-164.58"/>
<polygon fill="midnightblue" stroke="midnightblue" points="482.57,-190.82 483.12,-201.4 489.29,-192.78 482.57,-190.82"/>
</g>
<!-- Node17&#45;&gt;Node5 -->
<g id="edge24" class="edge">
<title>Node17&#45;&gt;Node5</title>
<path fill="none" stroke="midnightblue" d="M745,-191.02C745,-163.51 745,-119.79 745,-97.52"/>
<polygon fill="midnightblue" stroke="midnightblue" points="741.5,-191.37 745,-201.37 748.5,-191.37 741.5,-191.37"/>
</g>
<!-- Node18&#45;&gt;Node10 -->
<g id="edge26" class="edge">
<title>Node18&#45;&gt;Node10</title>
<path fill="none" stroke="midnightblue" d="M1047.22,-196.02C1030.73,-185.9 1010.95,-173.77 995.96,-164.58"/>
<polygon fill="midnightblue" stroke="midnightblue" points="1045.65,-199.15 1056,-201.4 1049.3,-193.18 1045.65,-199.15"/>
</g>
<!-- Node19&#45;&gt;Node14 -->
<g id="edge29" class="edge">
<title>Node19&#45;&gt;Node14</title>
<path fill="none" stroke="midnightblue" d="M1040.35,-334.93C922.06,-318.73 797.43,-303.75 716.69,-294.32"/>
<polygon fill="midnightblue" stroke="midnightblue" points="1039.93,-338.41 1050.31,-336.3 1040.88,-331.47 1039.93,-338.41"/>
</g>
<!-- Node19&#45;&gt;Node18 -->
<g id="edge30" class="edge">
<title>Node19&#45;&gt;Node18</title>
<path fill="none" stroke="midnightblue" d="M1125.9,-326.12C1114.06,-298.68 1094.8,-254.09 1085.06,-231.52"/>
<polygon fill="midnightblue" stroke="midnightblue" points="1122.72,-327.58 1129.9,-335.37 1129.15,-324.81 1122.72,-327.58"/>
</g>
<!-- Node20&#45;&gt;Node7 -->
<g id="edge36" class="edge">
<title>Node20&#45;&gt;Node7</title>
<path fill="none" stroke="midnightblue" d="M550.16,-473.3C652.84,-460.71 825.88,-439.49 923.76,-427.48"/>
<polygon fill="midnightblue" stroke="midnightblue" points="549.64,-469.84 540.14,-474.53 550.49,-476.79 549.64,-469.84"/>
</g>
<!-- Node21 -->
<g id="node21" class="node">
<title>Node21</title>
<g id="a_node21"><a xlink:href="command__group_8h.html" target="_top" xlink:title=" ">
<polygon fill="white" stroke="black" points="230,-402.5 230,-432.5 376,-432.5 376,-402.5 230,-402.5"/>
<text text-anchor="start" x="238" y="-420.5" font-family="Helvetica,sans-Serif" font-size="10.00">include/emlabcpp/protocol</text>
<text text-anchor="middle" x="303" y="-409.5" font-family="Helvetica,sans-Serif" font-size="10.00">/command_group.h</text>
</a>
</g>
</g>
<!-- Node20&#45;&gt;Node21 -->
<g id="edge33" class="edge">
<title>Node20&#45;&gt;Node21</title>
<path fill="none" stroke="midnightblue" d="M422.04,-465.68C395.74,-455.26 363,-442.28 338.52,-432.58"/>
<polygon fill="midnightblue" stroke="midnightblue" points="420.83,-468.97 431.41,-469.4 423.41,-462.46 420.83,-468.97"/>
</g>
<!-- Node22 -->
<g id="node22" class="node">
<title>Node22</title>
<g id="a_node22"><a xlink:href="protocol_8h.html" target="_top" xlink:title=" ">
<polygon fill="white" stroke="black" points="301.5,-341 301.5,-360 456.5,-360 456.5,-341 301.5,-341"/>
<text text-anchor="middle" x="379" y="-348" font-family="Helvetica,sans-Serif" font-size="10.00">include/emlabcpp/protocol.h</text>
</a>
</g>
</g>
<!-- Node20&#45;&gt;Node22 -->
<g id="edge44" class="edge">
<title>Node20&#45;&gt;Node22</title>
<path fill="none" stroke="midnightblue" d="M383.88,-477.51C320.76,-471.03 241.43,-458.06 221,-433 188.72,-393.41 264.21,-370.95 321.62,-360.01"/>
<polygon fill="midnightblue" stroke="midnightblue" points="383.57,-481 393.86,-478.5 384.26,-474.03 383.57,-481"/>
</g>
<!-- Node23 -->
<g id="node23" class="node">
<title>Node23</title>
<g id="a_node23"><a xlink:href="json_8h.html" target="_top" xlink:title=" ">
<polygon fill="white" stroke="black" points="558,-402.5 558,-432.5 704,-432.5 704,-402.5 558,-402.5"/>
<text text-anchor="start" x="566" y="-420.5" font-family="Helvetica,sans-Serif" font-size="10.00">include/emlabcpp/protocol</text>
<text text-anchor="middle" x="631" y="-409.5" font-family="Helvetica,sans-Serif" font-size="10.00">/json.h</text>
</a>
</g>
</g>
<!-- Node20&#45;&gt;Node23 -->
<g id="edge37" class="edge">
<title>Node20&#45;&gt;Node23</title>
<path fill="none" stroke="midnightblue" d="M511.96,-465.68C538.26,-455.26 571,-442.28 595.48,-432.58"/>
<polygon fill="midnightblue" stroke="midnightblue" points="510.59,-462.46 502.59,-469.4 513.17,-468.97 510.59,-462.46"/>
</g>
<!-- Node24 -->
<g id="node24" class="node">
<title>Node24</title>
<g id="a_node24"><a xlink:href="register__map_8h.html" target="_top" xlink:title=" ">
<polygon fill="white" stroke="black" points="28,-402.5 28,-432.5 174,-432.5 174,-402.5 28,-402.5"/>
<text text-anchor="start" x="36" y="-420.5" font-family="Helvetica,sans-Serif" font-size="10.00">include/emlabcpp/protocol</text>
<text text-anchor="middle" x="101" y="-409.5" font-family="Helvetica,sans-Serif" font-size="10.00">/register_map.h</text>
</a>
</g>
</g>
<!-- Node20&#45;&gt;Node24 -->
<g id="edge38" class="edge">
<title>Node20&#45;&gt;Node24</title>
<path fill="none" stroke="midnightblue" d="M383.88,-468.74C320.7,-457.52 234.62,-442.23 174.06,-431.47"/>
<polygon fill="midnightblue" stroke="midnightblue" points="383.36,-472.2 393.81,-470.5 384.58,-465.31 383.36,-472.2"/>
</g>
<!-- Node26 -->
<g id="node26" class="node">
<title>Node26</title>
<g id="a_node26"><a xlink:href="tuple_8h.html" target="_top" xlink:title=" ">
<polygon fill="white" stroke="black" points="394,-402.5 394,-432.5 540,-432.5 540,-402.5 394,-402.5"/>
<text text-anchor="start" x="402" y="-420.5" font-family="Helvetica,sans-Serif" font-size="10.00">include/emlabcpp/protocol</text>
<text text-anchor="middle" x="467" y="-409.5" font-family="Helvetica,sans-Serif" font-size="10.00">/tuple.h</text>
</a>
</g>
</g>
<!-- Node20&#45;&gt;Node26 -->
<g id="edge41" class="edge">
<title>Node20&#45;&gt;Node26</title>
<path fill="none" stroke="midnightblue" d="M467,-459.11C467,-450.15 467,-440.32 467,-432.58"/>
<polygon fill="midnightblue" stroke="midnightblue" points="463.5,-459.4 467,-469.4 470.5,-459.4 463.5,-459.4"/>
</g>
<!-- Node21&#45;&gt;Node22 -->
<g id="edge34" class="edge">
<title>Node21&#45;&gt;Node22</title>
<path fill="none" stroke="midnightblue" d="M327.35,-395.67C341.39,-383.67 358.28,-369.22 368.83,-360.19"/>
<polygon fill="midnightblue" stroke="midnightblue" points="324.82,-393.24 319.49,-402.4 329.37,-398.56 324.82,-393.24"/>
</g>
<!-- Node22&#45;&gt;Node14 -->
<g id="edge35" class="edge">
<title>Node22&#45;&gt;Node14</title>
<path fill="none" stroke="midnightblue" d="M422,-338.41C464.67,-327.4 530.2,-310.5 576.49,-298.56"/>
<polygon fill="midnightblue" stroke="midnightblue" points="421.01,-335.05 412.2,-340.94 422.76,-341.83 421.01,-335.05"/>
</g>
<!-- Node25 -->
<g id="node25" class="node">
<title>Node25</title>
<g id="a_node25"><a xlink:href="streams_8h.html" target="_top" xlink:title=" ">
<polygon fill="white" stroke="black" points="229,-268.5 229,-298.5 375,-298.5 375,-268.5 229,-268.5"/>
<text text-anchor="start" x="237" y="-286.5" font-family="Helvetica,sans-Serif" font-size="10.00">include/emlabcpp/protocol</text>
<text text-anchor="middle" x="302" y="-275.5" font-family="Helvetica,sans-Serif" font-size="10.00">/streams.h</text>
</a>
</g>
</g>
<!-- Node24&#45;&gt;Node25 -->
<g id="edge39" class="edge">
<title>Node24&#45;&gt;Node25</title>
<path fill="none" stroke="midnightblue" d="M131.01,-396.79C172.06,-369.84 244.71,-322.13 280.64,-298.52"/>
<polygon fill="midnightblue" stroke="midnightblue" points="128.95,-393.96 122.51,-402.37 132.79,-399.81 128.95,-393.96"/>
</g>
<!-- Node25&#45;&gt;Node16 -->
<g id="edge40" class="edge">
<title>Node25&#45;&gt;Node16</title>
<path fill="none" stroke="midnightblue" d="M350.15,-264.82C378.6,-254.37 414.13,-241.32 440.67,-231.58"/>
<polygon fill="midnightblue" stroke="midnightblue" points="348.59,-261.66 340.41,-268.4 351,-268.23 348.59,-261.66"/>
</g>
<!-- Node26&#45;&gt;Node13 -->
<g id="edge42" class="edge">
<title>Node26&#45;&gt;Node13</title>
<path fill="none" stroke="midnightblue" d="M511.96,-398.68C538.26,-388.26 571,-375.28 595.48,-365.58"/>
<polygon fill="midnightblue" stroke="midnightblue" points="510.59,-395.46 502.59,-402.4 513.17,-401.97 510.59,-395.46"/>
</g>
<!-- Node26&#45;&gt;Node22 -->
<g id="edge43" class="edge">
<title>Node26&#45;&gt;Node22</title>
<path fill="none" stroke="midnightblue" d="M439.66,-396.31C423.14,-384.1 402.93,-369.18 390.52,-360.01"/>
<polygon fill="midnightblue" stroke="midnightblue" points="437.78,-399.27 447.91,-402.4 441.94,-393.64 437.78,-399.27"/>
</g>
</g>
</svg>
