<?xml version="1.0" encoding="UTF-8" standalone="no"?>
<!DOCTYPE svg PUBLIC "-//W3C//DTD SVG 1.1//EN"
 "http://www.w3.org/Graphics/SVG/1.1/DTD/svg11.dtd">
<!-- Generated by graphviz version 2.43.0 (0)
 -->
<!-- Title: include/emlabcpp/static_vector.h Pages: 1 -->
<svg width="436pt" height="263pt"
 viewBox="0.00 0.00 436.37 263.00" xmlns="http://www.w3.org/2000/svg" xmlns:xlink="http://www.w3.org/1999/xlink">
<g id="graph0" class="graph" transform="scale(1 1) rotate(0) translate(4 259)">
<title>include/emlabcpp/static_vector.h</title>
<polygon fill="white" stroke="transparent" points="-4,4 -4,-259 432.37,-259 432.37,4 -4,4"/>
<!-- Node1 -->
<g id="node1" class="node">
<title>Node1</title>
<g id="a_node1"><a xlink:title=" ">
<polygon fill="#bfbfbf" stroke="black" points="77.37,-224.5 77.37,-254.5 210.37,-254.5 210.37,-224.5 77.37,-224.5"/>
<text text-anchor="start" x="85.37" y="-242.5" font-family="Helvetica,sans-Serif" font-size="10.00">include/emlabcpp/static</text>
<text text-anchor="middle" x="143.87" y="-231.5" font-family="Helvetica,sans-Serif" font-size="10.00">_vector.h</text>
</a>
</g>
</g>
<!-- Node2 -->
<g id="node2" class="node">
<title>Node2</title>
<g id="a_node2"><a xlink:href="concepts_8h.html" target="_top" xlink:title=" ">
<polygon fill="white" stroke="black" points="227.37,-56.5 227.37,-75.5 302.37,-75.5 302.37,-56.5 227.37,-56.5"/>
<text text-anchor="middle" x="264.87" y="-63.5" font-family="Helvetica,sans-Serif" font-size="10.00">./concepts.h</text>
</a>
</g>
</g>
<!-- Node1&#45;&gt;Node2 -->
<g id="edge1" class="edge">
<title>Node1&#45;&gt;Node2</title>
<path fill="none" stroke="midnightblue" d="M108.22,-224.45C56.88,-202.22 -27.76,-156.85 9.87,-112 35.79,-81.11 150.61,-71.41 217,-68.38"/>
<polygon fill="midnightblue" stroke="midnightblue" points="217.38,-71.87 227.22,-67.95 217.08,-64.87 217.38,-71.87"/>
</g>
<!-- Node13 -->
<g id="node7" class="node">
<title>Node13</title>
<g id="a_node7"><a xlink:href="static__storage_8h.html" target="_top" xlink:title=" ">
<polygon fill="white" stroke="black" points="93.37,-168.5 93.37,-187.5 194.37,-187.5 194.37,-168.5 93.37,-168.5"/>
<text text-anchor="middle" x="143.87" y="-175.5" font-family="Helvetica,sans-Serif" font-size="10.00">./static_storage.h</text>
</a>
</g>
</g>
<!-- Node1&#45;&gt;Node13 -->
<g id="edge6" class="edge">
<title>Node1&#45;&gt;Node13</title>
<path fill="none" stroke="midnightblue" d="M143.87,-224.4C143.87,-216.47 143.87,-206.46 143.87,-197.86"/>
<polygon fill="midnightblue" stroke="midnightblue" points="147.37,-197.66 143.87,-187.66 140.37,-197.66 147.37,-197.66"/>
</g>
<!-- Node18 -->
<g id="node12" class="node">
<title>Node18</title>
<g id="a_node12"><a xlink:href="view_8h.html" target="_top" xlink:title=" ">
<polygon fill="white" stroke="black" points="290.87,-168.5 290.87,-187.5 344.87,-187.5 344.87,-168.5 290.87,-168.5"/>
<text text-anchor="middle" x="317.87" y="-175.5" font-family="Helvetica,sans-Serif" font-size="10.00">./view.h</text>
</a>
</g>
</g>
<!-- Node1&#45;&gt;Node18 -->
<g id="edge11" class="edge">
<title>Node1&#45;&gt;Node18</title>
<path fill="none" stroke="midnightblue" d="M185.11,-224.4C215.04,-214.16 255.08,-200.47 283.34,-190.81"/>
<polygon fill="midnightblue" stroke="midnightblue" points="284.48,-194.12 292.81,-187.57 282.21,-187.49 284.48,-194.12"/>
</g>
<!-- Node3 -->
<g id="node3" class="node">
<title>Node3</title>
<g id="a_node3"><a xlink:href="types_2base_8h.html" target="_top" xlink:title=" ">
<polygon fill="white" stroke="red" points="343.37,-0.5 343.37,-19.5 428.37,-19.5 428.37,-0.5 343.37,-0.5"/>
<text text-anchor="middle" x="385.87" y="-7.5" font-family="Helvetica,sans-Serif" font-size="10.00">./types/base.h</text>
</a>
</g>
</g>
<!-- Node2&#45;&gt;Node3 -->
<g id="edge2" class="edge">
<title>Node2&#45;&gt;Node3</title>
<path fill="none" stroke="midnightblue" d="M284.04,-56.44C303.78,-47.64 334.76,-33.81 357.36,-23.72"/>
<polygon fill="midnightblue" stroke="midnightblue" points="359.08,-26.79 366.79,-19.52 356.23,-20.4 359.08,-26.79"/>
</g>
<!-- Node10 -->
<g id="node4" class="node">
<title>Node10</title>
<g id="a_node4"><a xlink:title=" ">
<polygon fill="white" stroke="#bfbfbf" points="124.87,-0.5 124.87,-19.5 184.87,-19.5 184.87,-0.5 124.87,-0.5"/>
<text text-anchor="middle" x="154.87" y="-7.5" font-family="Helvetica,sans-Serif" font-size="10.00">concepts</text>
</a>
</g>
</g>
<!-- Node2&#45;&gt;Node10 -->
<g id="edge3" class="edge">
<title>Node2&#45;&gt;Node10</title>
<path fill="none" stroke="midnightblue" d="M247.2,-56.32C229.48,-47.62 201.97,-34.12 181.58,-24.11"/>
<polygon fill="midnightblue" stroke="midnightblue" points="183.02,-20.92 172.5,-19.65 179.93,-27.2 183.02,-20.92"/>
</g>
<!-- Node11 -->
<g id="node5" class="node">
<title>Node11</title>
<g id="a_node5"><a xlink:title=" ">
<polygon fill="white" stroke="#bfbfbf" points="203.37,-0.5 203.37,-19.5 256.37,-19.5 256.37,-0.5 203.37,-0.5"/>
<text text-anchor="middle" x="229.87" y="-7.5" font-family="Helvetica,sans-Serif" font-size="10.00">iterator</text>
</a>
</g>
</g>
<!-- Node2&#45;&gt;Node11 -->
<g id="edge4" class="edge">
<title>Node2&#45;&gt;Node11</title>
<path fill="none" stroke="midnightblue" d="M259.09,-56.08C254.2,-48.53 247.04,-37.49 241.04,-28.23"/>
<polygon fill="midnightblue" stroke="midnightblue" points="243.92,-26.24 235.54,-19.75 238.04,-30.05 243.92,-26.24"/>
</g>
<!-- Node12 -->
<g id="node6" class="node">
<title>Node12</title>
<g id="a_node6"><a xlink:title=" ">
<polygon fill="white" stroke="#bfbfbf" points="274.37,-0.5 274.37,-19.5 325.37,-19.5 325.37,-0.5 274.37,-0.5"/>
<text text-anchor="middle" x="299.87" y="-7.5" font-family="Helvetica,sans-Serif" font-size="10.00">variant</text>
</a>
</g>
</g>
<!-- Node2&#45;&gt;Node12 -->
<g id="edge5" class="edge">
<title>Node2&#45;&gt;Node12</title>
<path fill="none" stroke="midnightblue" d="M270.65,-56.08C275.54,-48.53 282.7,-37.49 288.7,-28.23"/>
<polygon fill="midnightblue" stroke="midnightblue" points="291.7,-30.05 294.2,-19.75 285.82,-26.24 291.7,-30.05"/>
</g>
<!-- Node14 -->
<g id="node8" class="node">
<title>Node14</title>
<g id="a_node8"><a xlink:title=" ">
<polygon fill="white" stroke="#bfbfbf" points="82.37,-112.5 82.37,-131.5 135.37,-131.5 135.37,-112.5 82.37,-112.5"/>
<text text-anchor="middle" x="108.87" y="-119.5" font-family="Helvetica,sans-Serif" font-size="10.00">cstddef</text>
</a>
</g>
</g>
<!-- Node13&#45;&gt;Node14 -->
<g id="edge7" class="edge">
<title>Node13&#45;&gt;Node14</title>
<path fill="none" stroke="midnightblue" d="M138.09,-168.08C133.2,-160.53 126.04,-149.49 120.04,-140.23"/>
<polygon fill="midnightblue" stroke="midnightblue" points="122.92,-138.24 114.54,-131.75 117.04,-142.05 122.92,-138.24"/>
</g>
<!-- Node15 -->
<g id="node9" class="node">
<title>Node15</title>
<g id="a_node9"><a xlink:title=" ">
<polygon fill="white" stroke="#bfbfbf" points="153.87,-112.5 153.87,-131.5 203.87,-131.5 203.87,-112.5 153.87,-112.5"/>
<text text-anchor="middle" x="178.87" y="-119.5" font-family="Helvetica,sans-Serif" font-size="10.00">cstring</text>
</a>
</g>
</g>
<!-- Node13&#45;&gt;Node15 -->
<g id="edge8" class="edge">
<title>Node13&#45;&gt;Node15</title>
<path fill="none" stroke="midnightblue" d="M149.65,-168.08C154.54,-160.53 161.7,-149.49 167.7,-140.23"/>
<polygon fill="midnightblue" stroke="midnightblue" points="170.7,-142.05 173.2,-131.75 164.82,-138.24 170.7,-142.05"/>
</g>
<!-- Node16 -->
<g id="node10" class="node">
<title>Node16</title>
<g id="a_node10"><a xlink:title=" ">
<polygon fill="white" stroke="#bfbfbf" points="221.87,-112.5 221.87,-131.5 279.87,-131.5 279.87,-112.5 221.87,-112.5"/>
<text text-anchor="middle" x="250.87" y="-119.5" font-family="Helvetica,sans-Serif" font-size="10.00">memory</text>
</a>
</g>
</g>
<!-- Node13&#45;&gt;Node16 -->
<g id="edge9" class="edge">
<title>Node13&#45;&gt;Node16</title>
<path fill="none" stroke="midnightblue" d="M161.06,-168.32C178.22,-159.66 204.82,-146.24 224.62,-136.25"/>
<polygon fill="midnightblue" stroke="midnightblue" points="226.37,-139.28 233.72,-131.65 223.22,-133.04 226.37,-139.28"/>
</g>
<!-- Node17 -->
<g id="node11" class="node">
<title>Node17</title>
<g id="a_node11"><a xlink:title=" ">
<polygon fill="white" stroke="#bfbfbf" points="19.37,-112.5 19.37,-131.5 64.37,-131.5 64.37,-112.5 19.37,-112.5"/>
<text text-anchor="middle" x="41.87" y="-119.5" font-family="Helvetica,sans-Serif" font-size="10.00">utility</text>
</a>
</g>
</g>
<!-- Node13&#45;&gt;Node17 -->
<g id="edge10" class="edge">
<title>Node13&#45;&gt;Node17</title>
<path fill="none" stroke="midnightblue" d="M127.48,-168.32C111.2,-159.7 86,-146.36 67.15,-136.39"/>
<polygon fill="midnightblue" stroke="midnightblue" points="68.69,-133.24 58.22,-131.65 65.42,-139.43 68.69,-133.24"/>
</g>
<!-- Node19 -->
<g id="node13" class="node">
<title>Node19</title>
<g id="a_node13"><a xlink:href="types_8h.html" target="_top" xlink:title=" ">
<polygon fill="white" stroke="red" points="356.37,-112.5 356.37,-131.5 415.37,-131.5 415.37,-112.5 356.37,-112.5"/>
<text text-anchor="middle" x="385.87" y="-119.5" font-family="Helvetica,sans-Serif" font-size="10.00">./types.h</text>
</a>
</g>
</g>
<!-- Node18&#45;&gt;Node19 -->
<g id="edge12" class="edge">
<title>Node18&#45;&gt;Node19</title>
<path fill="none" stroke="midnightblue" d="M328.8,-168.32C339.04,-160.18 354.59,-147.84 366.87,-138.09"/>
<polygon fill="midnightblue" stroke="midnightblue" points="369.09,-140.79 374.75,-131.83 364.74,-135.31 369.09,-140.79"/>
</g>
<!-- Node21 -->
<g id="node14" class="node">
<title>Node21</title>
<g id="a_node14"><a xlink:title=" ">
<polygon fill="white" stroke="#bfbfbf" points="297.87,-112.5 297.87,-131.5 337.87,-131.5 337.87,-112.5 297.87,-112.5"/>
<text text-anchor="middle" x="317.87" y="-119.5" font-family="Helvetica,sans-Serif" font-size="10.00">span</text>
</a>
</g>
</g>
<!-- Node18&#45;&gt;Node21 -->
<g id="edge15" class="edge">
<title>Node18&#45;&gt;Node21</title>
<path fill="none" stroke="midnightblue" d="M317.87,-168.08C317.87,-161.01 317.87,-150.86 317.87,-141.99"/>
<polygon fill="midnightblue" stroke="midnightblue" points="321.37,-141.75 317.87,-131.75 314.37,-141.75 321.37,-141.75"/>
</g>
<!-- Node19&#45;&gt;Node2 -->
<g id="edge13" class="edge">
<title>Node19&#45;&gt;Node2</title>
<path fill="none" stroke="midnightblue" d="M366.7,-112.44C346.96,-103.64 315.98,-89.81 293.38,-79.72"/>
<polygon fill="midnightblue" stroke="midnightblue" points="294.51,-76.4 283.95,-75.52 291.66,-82.79 294.51,-76.4"/>
</g>
<!-- Node19&#45;&gt;Node3 -->
<g id="edge14" class="edge">
<title>Node19&#45;&gt;Node3</title>
<path fill="none" stroke="midnightblue" d="M385.87,-112.37C385.87,-94.62 385.87,-53.67 385.87,-29.6"/>
<polygon fill="midnightblue" stroke="midnightblue" points="389.37,-29.59 385.87,-19.59 382.37,-29.59 389.37,-29.59"/>
</g>
</g>
</svg>
