<?xml version="1.0" encoding="UTF-8" standalone="no"?>
<!DOCTYPE svg PUBLIC "-//W3C//DTD SVG 1.1//EN"
 "http://www.w3.org/Graphics/SVG/1.1/DTD/svg11.dtd">
<!-- Generated by graphviz version 2.43.0 (0)
 -->
<!-- Title: include/emlabcpp/static_vector.h Pages: 1 -->
<svg width="1701pt" height="397pt"
 viewBox="0.00 0.00 1701.00 397.00" xmlns="http://www.w3.org/2000/svg" xmlns:xlink="http://www.w3.org/1999/xlink">
<g id="graph0" class="graph" transform="scale(1 1) rotate(0) translate(4 393)">
<title>include/emlabcpp/static_vector.h</title>
<polygon fill="white" stroke="transparent" points="-4,4 -4,-393 1697,-393 1697,4 -4,4"/>
<!-- Node1 -->
<g id="node1" class="node">
<title>Node1</title>
<g id="a_node1"><a xlink:title=" ">
<polygon fill="#bfbfbf" stroke="black" points="1405.5,-358.5 1405.5,-388.5 1538.5,-388.5 1538.5,-358.5 1405.5,-358.5"/>
<text text-anchor="start" x="1413.5" y="-376.5" font-family="Helvetica,sans-Serif" font-size="10.00">include/emlabcpp/static</text>
<text text-anchor="middle" x="1472" y="-365.5" font-family="Helvetica,sans-Serif" font-size="10.00">_vector.h</text>
</a>
</g>
</g>
<!-- Node2 -->
<g id="node2" class="node">
<title>Node2</title>
<g id="a_node2"><a xlink:href="concepts_8h.html" target="_top" xlink:title=" ">
<polygon fill="white" stroke="black" points="1184,-112.5 1184,-131.5 1304,-131.5 1304,-112.5 1184,-112.5"/>
<text text-anchor="middle" x="1244" y="-119.5" font-family="Helvetica,sans-Serif" font-size="10.00">emlabcpp/concepts.h</text>
</a>
</g>
</g>
<!-- Node1&#45;&gt;Node2 -->
<g id="edge1" class="edge">
<title>Node1&#45;&gt;Node2</title>
<path fill="none" stroke="midnightblue" d="M1475.6,-358.42C1484.04,-321.85 1500.87,-222.88 1452,-168 1433.82,-147.59 1367.17,-135.74 1314.15,-129.37"/>
<polygon fill="midnightblue" stroke="midnightblue" points="1314.42,-125.88 1304.09,-128.21 1313.62,-132.83 1314.42,-125.88"/>
</g>
<!-- Node13 -->
<g id="node8" class="node">
<title>Node13</title>
<g id="a_node8"><a xlink:href="pretty__printer_8h.html" target="_top" xlink:title=" ">
<polygon fill="white" stroke="black" points="795.5,-291.5 795.5,-321.5 928.5,-321.5 928.5,-291.5 795.5,-291.5"/>
<text text-anchor="start" x="803.5" y="-309.5" font-family="Helvetica,sans-Serif" font-size="10.00">emlabcpp/experimental</text>
<text text-anchor="middle" x="862" y="-298.5" font-family="Helvetica,sans-Serif" font-size="10.00">/pretty_printer.h</text>
</a>
</g>
</g>
<!-- Node1&#45;&gt;Node13 -->
<g id="edge7" class="edge">
<title>Node1&#45;&gt;Node13</title>
<path fill="none" stroke="midnightblue" d="M1405.27,-365.39C1291.27,-353.24 1059.68,-328.56 939.01,-315.71"/>
<polygon fill="midnightblue" stroke="midnightblue" points="939.06,-312.19 928.75,-314.61 938.32,-319.15 939.06,-312.19"/>
</g>
<!-- Node35 -->
<g id="node25" class="node">
<title>Node35</title>
<g id="a_node25"><a xlink:href="static__storage_8h.html" target="_top" xlink:title=" ">
<polygon fill="white" stroke="black" points="1508,-297 1508,-316 1654,-316 1654,-297 1508,-297"/>
<text text-anchor="middle" x="1581" y="-304" font-family="Helvetica,sans-Serif" font-size="10.00">emlabcpp/static_storage.h</text>
</a>
</g>
</g>
<!-- Node1&#45;&gt;Node35 -->
<g id="edge33" class="edge">
<title>Node1&#45;&gt;Node35</title>
<path fill="none" stroke="midnightblue" d="M1495.65,-358.4C1514.18,-347.34 1539.81,-332.06 1558.14,-321.13"/>
<polygon fill="midnightblue" stroke="midnightblue" points="1559.94,-324.13 1566.73,-316.01 1556.35,-318.12 1559.94,-324.13"/>
</g>
<!-- Node3 -->
<g id="node3" class="node">
<title>Node3</title>
<g id="a_node3"><a xlink:href="types_2base_8h.html" target="_top" xlink:title=" ">
<polygon fill="white" stroke="red" points="899,-56.5 899,-75.5 1029,-75.5 1029,-56.5 899,-56.5"/>
<text text-anchor="middle" x="964" y="-63.5" font-family="Helvetica,sans-Serif" font-size="10.00">emlabcpp/types/base.h</text>
</a>
</g>
</g>
<!-- Node2&#45;&gt;Node3 -->
<g id="edge2" class="edge">
<title>Node2&#45;&gt;Node3</title>
<path fill="none" stroke="midnightblue" d="M1199.63,-112.44C1150.38,-102.94 1070.87,-87.61 1018.03,-77.42"/>
<polygon fill="midnightblue" stroke="midnightblue" points="1018.64,-73.97 1008.16,-75.52 1017.32,-80.85 1018.64,-73.97"/>
</g>
<!-- Node10 -->
<g id="node5" class="node">
<title>Node10</title>
<g id="a_node5"><a xlink:title=" ">
<polygon fill="white" stroke="#bfbfbf" points="1166,-56.5 1166,-75.5 1226,-75.5 1226,-56.5 1166,-56.5"/>
<text text-anchor="middle" x="1196" y="-63.5" font-family="Helvetica,sans-Serif" font-size="10.00">concepts</text>
</a>
</g>
</g>
<!-- Node2&#45;&gt;Node10 -->
<g id="edge4" class="edge">
<title>Node2&#45;&gt;Node10</title>
<path fill="none" stroke="midnightblue" d="M1236.07,-112.08C1229.15,-104.3 1218.93,-92.8 1210.55,-83.37"/>
<polygon fill="midnightblue" stroke="midnightblue" points="1213.04,-80.9 1203.78,-75.75 1207.81,-85.55 1213.04,-80.9"/>
</g>
<!-- Node11 -->
<g id="node6" class="node">
<title>Node11</title>
<g id="a_node6"><a xlink:title=" ">
<polygon fill="white" stroke="#bfbfbf" points="1244.5,-56.5 1244.5,-75.5 1297.5,-75.5 1297.5,-56.5 1244.5,-56.5"/>
<text text-anchor="middle" x="1271" y="-63.5" font-family="Helvetica,sans-Serif" font-size="10.00">iterator</text>
</a>
</g>
</g>
<!-- Node2&#45;&gt;Node11 -->
<g id="edge5" class="edge">
<title>Node2&#45;&gt;Node11</title>
<path fill="none" stroke="midnightblue" d="M1248.46,-112.08C1252.15,-104.69 1257.52,-93.95 1262.09,-84.81"/>
<polygon fill="midnightblue" stroke="midnightblue" points="1265.28,-86.26 1266.62,-75.75 1259.02,-83.13 1265.28,-86.26"/>
</g>
<!-- Node12 -->
<g id="node7" class="node">
<title>Node12</title>
<g id="a_node7"><a xlink:title=" ">
<polygon fill="white" stroke="#bfbfbf" points="463.5,-56.5 463.5,-75.5 514.5,-75.5 514.5,-56.5 463.5,-56.5"/>
<text text-anchor="middle" x="489" y="-63.5" font-family="Helvetica,sans-Serif" font-size="10.00">variant</text>
</a>
</g>
</g>
<!-- Node2&#45;&gt;Node12 -->
<g id="edge6" class="edge">
<title>Node2&#45;&gt;Node12</title>
<path fill="none" stroke="midnightblue" d="M1183.81,-116.69C1033.41,-105.94 644.7,-78.14 524.77,-69.56"/>
<polygon fill="midnightblue" stroke="midnightblue" points="524.89,-66.06 514.66,-68.84 524.39,-73.04 524.89,-66.06"/>
</g>
<!-- Node7 -->
<g id="node4" class="node">
<title>Node7</title>
<g id="a_node4"><a xlink:title=" ">
<polygon fill="white" stroke="#bfbfbf" points="943.5,-0.5 943.5,-19.5 984.5,-19.5 984.5,-0.5 943.5,-0.5"/>
<text text-anchor="middle" x="964" y="-7.5" font-family="Helvetica,sans-Serif" font-size="10.00">tuple</text>
</a>
</g>
</g>
<!-- Node3&#45;&gt;Node7 -->
<g id="edge3" class="edge">
<title>Node3&#45;&gt;Node7</title>
<path fill="none" stroke="midnightblue" d="M964,-56.08C964,-49.01 964,-38.86 964,-29.99"/>
<polygon fill="midnightblue" stroke="midnightblue" points="967.5,-29.75 964,-19.75 960.5,-29.75 967.5,-29.75"/>
</g>
<!-- Node13&#45;&gt;Node2 -->
<g id="edge8" class="edge">
<title>Node13&#45;&gt;Node2</title>
<path fill="none" stroke="midnightblue" d="M928.82,-303.09C1051.13,-297.98 1300.9,-284.09 1327,-255 1332.94,-248.38 1329.79,-243.44 1327,-235 1326.08,-232.23 1279.4,-170.01 1256.46,-139.53"/>
<polygon fill="midnightblue" stroke="midnightblue" points="1259.24,-137.4 1250.42,-131.52 1253.64,-141.61 1259.24,-137.4"/>
</g>
<!-- Node13&#45;&gt;Node7 -->
<g id="edge30" class="edge">
<title>Node13&#45;&gt;Node7</title>
<path fill="none" stroke="midnightblue" d="M795.37,-303.98C616.38,-299.53 134.17,-284.88 69,-255 29.15,-236.73 0,-228.34 0,-184.5 0,-184.5 0,-184.5 0,-121 0,-24.77 768.01,-12.69 933.02,-11.2"/>
<polygon fill="midnightblue" stroke="midnightblue" points="933.45,-14.7 943.42,-11.12 933.39,-7.7 933.45,-14.7"/>
</g>
<!-- Node13&#45;&gt;Node12 -->
<g id="edge32" class="edge">
<title>Node13&#45;&gt;Node12</title>
<path fill="none" stroke="midnightblue" d="M795.33,-303.61C611.8,-298.08 111.07,-280.69 87,-255 -26.52,-133.84 335.93,-83.44 453.47,-70.53"/>
<polygon fill="midnightblue" stroke="midnightblue" points="453.85,-74.01 463.42,-69.46 453.11,-67.05 453.85,-74.01"/>
</g>
<!-- Node14 -->
<g id="node9" class="node">
<title>Node14</title>
<g id="a_node9"><a xlink:href="enum_8h.html" target="_top" xlink:title=" ">
<polygon fill="white" stroke="red" points="104,-235.5 104,-254.5 208,-254.5 208,-235.5 104,-235.5"/>
<text text-anchor="middle" x="156" y="-242.5" font-family="Helvetica,sans-Serif" font-size="10.00">emlabcpp/enum.h</text>
</a>
</g>
</g>
<!-- Node13&#45;&gt;Node14 -->
<g id="edge9" class="edge">
<title>Node13&#45;&gt;Node14</title>
<path fill="none" stroke="midnightblue" d="M795.47,-301.8C680.09,-295.04 435.23,-279.25 218.2,-255.06"/>
<polygon fill="midnightblue" stroke="midnightblue" points="218.54,-251.58 208.21,-253.94 217.76,-258.54 218.54,-251.58"/>
</g>
<!-- Node15 -->
<g id="node10" class="node">
<title>Node15</title>
<g id="a_node10"><a xlink:href="decompose_8h.html" target="_top" xlink:title=" ">
<polygon fill="white" stroke="black" points="1310.5,-168.5 1310.5,-198.5 1443.5,-198.5 1443.5,-168.5 1310.5,-168.5"/>
<text text-anchor="start" x="1318.5" y="-186.5" font-family="Helvetica,sans-Serif" font-size="10.00">emlabcpp/experimental</text>
<text text-anchor="middle" x="1377" y="-175.5" font-family="Helvetica,sans-Serif" font-size="10.00">/decompose.h</text>
</a>
</g>
</g>
<!-- Node13&#45;&gt;Node15 -->
<g id="edge10" class="edge">
<title>Node13&#45;&gt;Node15</title>
<path fill="none" stroke="midnightblue" d="M928.62,-303.92C1062.08,-300.08 1352.07,-287.97 1382,-255 1393.19,-242.67 1391.11,-223.61 1386.69,-208.41"/>
<polygon fill="midnightblue" stroke="midnightblue" points="1389.9,-206.99 1383.39,-198.64 1383.27,-209.23 1389.9,-206.99"/>
</g>
<!-- Node16 -->
<g id="node11" class="node">
<title>Node16</title>
<g id="a_node11"><a xlink:href="match_8h.html" target="_top" xlink:title=" ">
<polygon fill="white" stroke="red" points="226.5,-235.5 226.5,-254.5 333.5,-254.5 333.5,-235.5 226.5,-235.5"/>
<text text-anchor="middle" x="280" y="-242.5" font-family="Helvetica,sans-Serif" font-size="10.00">emlabcpp/match.h</text>
</a>
</g>
</g>
<!-- Node13&#45;&gt;Node16 -->
<g id="edge13" class="edge">
<title>Node13&#45;&gt;Node16</title>
<path fill="none" stroke="midnightblue" d="M795.12,-299.96C698.11,-291.71 512.45,-275.11 343.66,-255.03"/>
<polygon fill="midnightblue" stroke="midnightblue" points="343.94,-251.54 333.59,-253.82 343.11,-258.49 343.94,-251.54"/>
</g>
<!-- Node18 -->
<g id="node12" class="node">
<title>Node18</title>
<g id="a_node12"><a xlink:href="min__max_8h.html" target="_top" xlink:title=" ">
<polygon fill="white" stroke="red" points="352,-235.5 352,-254.5 474,-254.5 474,-235.5 352,-235.5"/>
<text text-anchor="middle" x="413" y="-242.5" font-family="Helvetica,sans-Serif" font-size="10.00">emlabcpp/min_max.h</text>
</a>
</g>
</g>
<!-- Node13&#45;&gt;Node18 -->
<g id="edge14" class="edge">
<title>Node13&#45;&gt;Node18</title>
<path fill="none" stroke="midnightblue" d="M795.26,-296.66C711.93,-285.61 569.95,-266.8 484.46,-255.47"/>
<polygon fill="midnightblue" stroke="midnightblue" points="484.7,-251.97 474.32,-254.13 483.78,-258.91 484.7,-251.97"/>
</g>
<!-- Node20 -->
<g id="node13" class="node">
<title>Node20</title>
<g id="a_node13"><a xlink:href="range_8h.html" target="_top" xlink:title=" ">
<polygon fill="white" stroke="red" points="492,-235.5 492,-254.5 596,-254.5 596,-235.5 492,-235.5"/>
<text text-anchor="middle" x="544" y="-242.5" font-family="Helvetica,sans-Serif" font-size="10.00">emlabcpp/range.h</text>
</a>
</g>
</g>
<!-- Node13&#45;&gt;Node20 -->
<g id="edge15" class="edge">
<title>Node13&#45;&gt;Node20</title>
<path fill="none" stroke="midnightblue" d="M795.34,-293.03C737.21,-282.15 653.9,-266.56 599.38,-256.36"/>
<polygon fill="midnightblue" stroke="midnightblue" points="600.02,-252.92 589.55,-254.52 598.73,-259.8 600.02,-252.92"/>
</g>
<!-- Node24 -->
<g id="node14" class="node">
<title>Node24</title>
<g id="a_node14"><a xlink:href="types_8h.html" target="_top" xlink:title=" ">
<polygon fill="white" stroke="red" points="635,-174 635,-193 739,-193 739,-174 635,-174"/>
<text text-anchor="middle" x="687" y="-181" font-family="Helvetica,sans-Serif" font-size="10.00">emlabcpp/types.h</text>
</a>
</g>
</g>
<!-- Node13&#45;&gt;Node24 -->
<g id="edge16" class="edge">
<title>Node13&#45;&gt;Node24</title>
<path fill="none" stroke="midnightblue" d="M795.26,-306.19C617.41,-307.33 142.34,-305.56 95,-255 88.92,-248.51 88.99,-241.55 95,-235 130.3,-196.56 479.81,-187.34 624.64,-185.16"/>
<polygon fill="midnightblue" stroke="midnightblue" points="624.76,-188.66 634.71,-185.01 624.66,-181.66 624.76,-188.66"/>
</g>
<!-- Node23 -->
<g id="node15" class="node">
<title>Node23</title>
<g id="a_node15"><a xlink:href="view_8h.html" target="_top" xlink:title=" ">
<polygon fill="white" stroke="black" points="614.5,-235.5 614.5,-254.5 713.5,-254.5 713.5,-235.5 614.5,-235.5"/>
<text text-anchor="middle" x="664" y="-242.5" font-family="Helvetica,sans-Serif" font-size="10.00">emlabcpp/view.h</text>
</a>
</g>
</g>
<!-- Node13&#45;&gt;Node23 -->
<g id="edge19" class="edge">
<title>Node13&#45;&gt;Node23</title>
<path fill="none" stroke="midnightblue" d="M815.33,-291.47C780.87,-281.12 734.54,-267.2 702.26,-257.5"/>
<polygon fill="midnightblue" stroke="midnightblue" points="702.89,-254.03 692.31,-254.51 700.88,-260.74 702.89,-254.03"/>
</g>
<!-- Node26 -->
<g id="node16" class="node">
<title>Node26</title>
<g id="a_node16"><a xlink:title=" ">
<polygon fill="white" stroke="#bfbfbf" points="974,-174 974,-193 1014,-193 1014,-174 974,-174"/>
<text text-anchor="middle" x="994" y="-181" font-family="Helvetica,sans-Serif" font-size="10.00">span</text>
</a>
</g>
</g>
<!-- Node13&#45;&gt;Node26 -->
<g id="edge29" class="edge">
<title>Node13&#45;&gt;Node26</title>
<path fill="none" stroke="midnightblue" d="M928.7,-302.8C1047.35,-297.3 1285.06,-282.9 1310,-255 1315.92,-248.37 1315.77,-241.76 1310,-235 1273.39,-192.08 1096.02,-185.48 1024.24,-184.58"/>
<polygon fill="midnightblue" stroke="midnightblue" points="1024.09,-181.08 1014.05,-184.48 1024.02,-188.08 1024.09,-181.08"/>
</g>
<!-- Node27 -->
<g id="node17" class="node">
<title>Node27</title>
<g id="a_node17"><a xlink:title=" ">
<polygon fill="white" stroke="#bfbfbf" points="732,-235.5 732,-254.5 776,-254.5 776,-235.5 732,-235.5"/>
<text text-anchor="middle" x="754" y="-242.5" font-family="Helvetica,sans-Serif" font-size="10.00">bitset</text>
</a>
</g>
</g>
<!-- Node13&#45;&gt;Node27 -->
<g id="edge22" class="edge">
<title>Node13&#45;&gt;Node27</title>
<path fill="none" stroke="midnightblue" d="M836.41,-291.4C818.93,-281.77 795.91,-269.09 778.64,-259.58"/>
<polygon fill="midnightblue" stroke="midnightblue" points="780.16,-256.42 769.71,-254.66 776.78,-262.55 780.16,-256.42"/>
</g>
<!-- Node28 -->
<g id="node18" class="node">
<title>Node28</title>
<g id="a_node18"><a xlink:title=" ">
<polygon fill="white" stroke="#bfbfbf" points="794.5,-235.5 794.5,-254.5 855.5,-254.5 855.5,-235.5 794.5,-235.5"/>
<text text-anchor="middle" x="825" y="-242.5" font-family="Helvetica,sans-Serif" font-size="10.00">charconv</text>
</a>
</g>
</g>
<!-- Node13&#45;&gt;Node28 -->
<g id="edge23" class="edge">
<title>Node13&#45;&gt;Node28</title>
<path fill="none" stroke="midnightblue" d="M853.23,-291.4C848.02,-283.02 841.37,-272.33 835.83,-263.42"/>
<polygon fill="midnightblue" stroke="midnightblue" points="838.64,-261.3 830.38,-254.66 832.69,-265 838.64,-261.3"/>
</g>
<!-- Node29 -->
<g id="node19" class="node">
<title>Node29</title>
<g id="a_node19"><a xlink:title=" ">
<polygon fill="white" stroke="#bfbfbf" points="874,-235.5 874,-254.5 924,-254.5 924,-235.5 874,-235.5"/>
<text text-anchor="middle" x="899" y="-242.5" font-family="Helvetica,sans-Serif" font-size="10.00">chrono</text>
</a>
</g>
</g>
<!-- Node13&#45;&gt;Node29 -->
<g id="edge24" class="edge">
<title>Node13&#45;&gt;Node29</title>
<path fill="none" stroke="midnightblue" d="M870.77,-291.4C875.98,-283.02 882.63,-272.33 888.17,-263.42"/>
<polygon fill="midnightblue" stroke="midnightblue" points="891.31,-265 893.62,-254.66 885.36,-261.3 891.31,-265"/>
</g>
<!-- Node30 -->
<g id="node20" class="node">
<title>Node30</title>
<g id="a_node20"><a xlink:title=" ">
<polygon fill="white" stroke="#bfbfbf" points="942,-235.5 942,-254.5 1010,-254.5 1010,-235.5 942,-235.5"/>
<text text-anchor="middle" x="976" y="-242.5" font-family="Helvetica,sans-Serif" font-size="10.00">filesystem</text>
</a>
</g>
</g>
<!-- Node13&#45;&gt;Node30 -->
<g id="edge25" class="edge">
<title>Node13&#45;&gt;Node30</title>
<path fill="none" stroke="midnightblue" d="M889.02,-291.4C907.63,-281.68 932.21,-268.86 950.49,-259.31"/>
<polygon fill="midnightblue" stroke="midnightblue" points="952.17,-262.39 959.41,-254.66 948.93,-256.18 952.17,-262.39"/>
</g>
<!-- Node31 -->
<g id="node21" class="node">
<title>Node31</title>
<g id="a_node21"><a xlink:title=" ">
<polygon fill="white" stroke="#bfbfbf" points="1028,-235.5 1028,-254.5 1066,-254.5 1066,-235.5 1028,-235.5"/>
<text text-anchor="middle" x="1047" y="-242.5" font-family="Helvetica,sans-Serif" font-size="10.00">map</text>
</a>
</g>
</g>
<!-- Node13&#45;&gt;Node31 -->
<g id="edge26" class="edge">
<title>Node13&#45;&gt;Node31</title>
<path fill="none" stroke="midnightblue" d="M905.84,-291.4C940.44,-280.27 987.74,-265.06 1017.83,-255.38"/>
<polygon fill="midnightblue" stroke="midnightblue" points="1019.26,-258.6 1027.71,-252.2 1017.12,-251.93 1019.26,-258.6"/>
</g>
<!-- Node32 -->
<g id="node22" class="node">
<title>Node32</title>
<g id="a_node22"><a xlink:title=" ">
<polygon fill="white" stroke="#bfbfbf" points="1084,-235.5 1084,-254.5 1140,-254.5 1140,-235.5 1084,-235.5"/>
<text text-anchor="middle" x="1112" y="-242.5" font-family="Helvetica,sans-Serif" font-size="10.00">optional</text>
</a>
</g>
</g>
<!-- Node13&#45;&gt;Node32 -->
<g id="edge27" class="edge">
<title>Node13&#45;&gt;Node32</title>
<path fill="none" stroke="midnightblue" d="M921.7,-291.44C962.08,-281.91 1016.88,-268.94 1073.82,-255.27"/>
<polygon fill="midnightblue" stroke="midnightblue" points="1074.82,-258.63 1083.72,-252.9 1073.18,-251.83 1074.82,-258.63"/>
</g>
<!-- Node33 -->
<g id="node23" class="node">
<title>Node33</title>
<g id="a_node23"><a xlink:title=" ">
<polygon fill="white" stroke="#bfbfbf" points="1158,-235.5 1158,-254.5 1190,-254.5 1190,-235.5 1158,-235.5"/>
<text text-anchor="middle" x="1174" y="-242.5" font-family="Helvetica,sans-Serif" font-size="10.00">set</text>
</a>
</g>
</g>
<!-- Node13&#45;&gt;Node33 -->
<g id="edge28" class="edge">
<title>Node13&#45;&gt;Node33</title>
<path fill="none" stroke="midnightblue" d="M928.53,-297.09C984.86,-289.22 1067.78,-275.89 1148.2,-254.83"/>
<polygon fill="midnightblue" stroke="midnightblue" points="1149.23,-258.18 1157.99,-252.22 1147.43,-251.41 1149.23,-258.18"/>
</g>
<!-- Node34 -->
<g id="node24" class="node">
<title>Node34</title>
<g id="a_node24"><a xlink:title=" ">
<polygon fill="white" stroke="#bfbfbf" points="1208.5,-235.5 1208.5,-254.5 1301.5,-254.5 1301.5,-235.5 1208.5,-235.5"/>
<text text-anchor="middle" x="1255" y="-242.5" font-family="Helvetica,sans-Serif" font-size="10.00">unordered_map</text>
</a>
</g>
</g>
<!-- Node13&#45;&gt;Node34 -->
<g id="edge31" class="edge">
<title>Node13&#45;&gt;Node34</title>
<path fill="none" stroke="midnightblue" d="M928.53,-295.74C994.34,-286.04 1098.21,-270.6 1198.27,-255.1"/>
<polygon fill="midnightblue" stroke="midnightblue" points="1198.91,-258.54 1208.25,-253.55 1197.84,-251.63 1198.91,-258.54"/>
</g>
<!-- Node15&#45;&gt;Node2 -->
<g id="edge11" class="edge">
<title>Node15&#45;&gt;Node2</title>
<path fill="none" stroke="midnightblue" d="M1345.48,-168.4C1323.36,-158.51 1294.03,-145.38 1272.59,-135.79"/>
<polygon fill="midnightblue" stroke="midnightblue" points="1273.91,-132.55 1263.35,-131.66 1271.05,-138.94 1273.91,-132.55"/>
</g>
<!-- Node15&#45;&gt;Node7 -->
<g id="edge12" class="edge">
<title>Node15&#45;&gt;Node7</title>
<path fill="none" stroke="midnightblue" d="M1373.53,-168.24C1366.17,-141.31 1346.25,-83.25 1306,-56 1255.54,-21.84 1069.21,-13.55 994.89,-11.59"/>
<polygon fill="midnightblue" stroke="midnightblue" points="994.85,-8.09 984.77,-11.35 994.68,-15.09 994.85,-8.09"/>
</g>
<!-- Node24&#45;&gt;Node2 -->
<g id="edge17" class="edge">
<title>Node24&#45;&gt;Node2</title>
<path fill="none" stroke="midnightblue" d="M739.15,-176.93C839.7,-166.19 1060.41,-142.61 1173.77,-130.5"/>
<polygon fill="midnightblue" stroke="midnightblue" points="1174.16,-133.98 1183.73,-129.44 1173.42,-127.02 1174.16,-133.98"/>
</g>
<!-- Node24&#45;&gt;Node3 -->
<g id="edge18" class="edge">
<title>Node24&#45;&gt;Node3</title>
<path fill="none" stroke="midnightblue" d="M707.82,-173.82C756.37,-153.58 877.23,-103.18 933.84,-79.57"/>
<polygon fill="midnightblue" stroke="midnightblue" points="935.43,-82.7 943.32,-75.62 932.74,-76.24 935.43,-82.7"/>
</g>
<!-- Node23&#45;&gt;Node24 -->
<g id="edge20" class="edge">
<title>Node23&#45;&gt;Node24</title>
<path fill="none" stroke="midnightblue" d="M667.3,-235.48C670.61,-226.9 675.82,-213.43 680.05,-202.48"/>
<polygon fill="midnightblue" stroke="midnightblue" points="683.37,-203.6 683.71,-193.01 676.84,-201.07 683.37,-203.6"/>
</g>
<!-- Node23&#45;&gt;Node26 -->
<g id="edge21" class="edge">
<title>Node23&#45;&gt;Node26</title>
<path fill="none" stroke="midnightblue" d="M711.28,-235.48C780.24,-223.04 906.43,-200.29 963.97,-189.91"/>
<polygon fill="midnightblue" stroke="midnightblue" points="964.67,-193.35 973.89,-188.13 963.42,-186.46 964.67,-193.35"/>
</g>
<!-- Node36 -->
<g id="node26" class="node">
<title>Node36</title>
<g id="a_node26"><a xlink:title=" ">
<polygon fill="white" stroke="#bfbfbf" points="1563.5,-235.5 1563.5,-254.5 1616.5,-254.5 1616.5,-235.5 1563.5,-235.5"/>
<text text-anchor="middle" x="1590" y="-242.5" font-family="Helvetica,sans-Serif" font-size="10.00">cstddef</text>
</a>
</g>
</g>
<!-- Node35&#45;&gt;Node36 -->
<g id="edge34" class="edge">
<title>Node35&#45;&gt;Node36</title>
<path fill="none" stroke="midnightblue" d="M1582.29,-296.98C1583.56,-288.58 1585.54,-275.48 1587.18,-264.66"/>
<polygon fill="midnightblue" stroke="midnightblue" points="1590.68,-264.92 1588.71,-254.51 1583.76,-263.87 1590.68,-264.92"/>
</g>
<!-- Node37 -->
<g id="node27" class="node">
<title>Node37</title>
<g id="a_node27"><a xlink:title=" ">
<polygon fill="white" stroke="#bfbfbf" points="1635,-235.5 1635,-254.5 1693,-254.5 1693,-235.5 1635,-235.5"/>
<text text-anchor="middle" x="1664" y="-242.5" font-family="Helvetica,sans-Serif" font-size="10.00">memory</text>
</a>
</g>
</g>
<!-- Node35&#45;&gt;Node37 -->
<g id="edge35" class="edge">
<title>Node35&#45;&gt;Node37</title>
<path fill="none" stroke="midnightblue" d="M1592.89,-296.98C1606.2,-287.43 1628,-271.81 1643.96,-260.37"/>
<polygon fill="midnightblue" stroke="midnightblue" points="1646.04,-263.18 1652.13,-254.51 1641.96,-257.49 1646.04,-263.18"/>
</g>
<!-- Node38 -->
<g id="node28" class="node">
<title>Node38</title>
<g id="a_node28"><a xlink:title=" ">
<polygon fill="white" stroke="#bfbfbf" points="1500.5,-235.5 1500.5,-254.5 1545.5,-254.5 1545.5,-235.5 1500.5,-235.5"/>
<text text-anchor="middle" x="1523" y="-242.5" font-family="Helvetica,sans-Serif" font-size="10.00">utility</text>
</a>
</g>
</g>
<!-- Node35&#45;&gt;Node38 -->
<g id="edge36" class="edge">
<title>Node35&#45;&gt;Node38</title>
<path fill="none" stroke="midnightblue" d="M1572.69,-296.98C1563.82,-287.87 1549.55,-273.24 1538.58,-261.98"/>
<polygon fill="midnightblue" stroke="midnightblue" points="1540.78,-259.23 1531.29,-254.51 1535.77,-264.11 1540.78,-259.23"/>
</g>
</g>
</svg>
