<?xml version="1.0" encoding="UTF-8" standalone="no"?>
<!DOCTYPE svg PUBLIC "-//W3C//DTD SVG 1.1//EN"
 "http://www.w3.org/Graphics/SVG/1.1/DTD/svg11.dtd">
<!-- Generated by graphviz version 2.43.0 (0)
 -->
<!-- Title: include/emlabcpp/static_vector.h Pages: 1 -->
<svg width="980pt" height="341pt"
 viewBox="0.00 0.00 979.83 341.00" xmlns="http://www.w3.org/2000/svg" xmlns:xlink="http://www.w3.org/1999/xlink">
<g id="graph0" class="graph" transform="scale(1 1) rotate(0) translate(4 337)">
<title>include/emlabcpp/static_vector.h</title>
<polygon fill="white" stroke="transparent" points="-4,4 -4,-337 975.83,-337 975.83,4 -4,4"/>
<!-- Node1 -->
<g id="node1" class="node">
<title>Node1</title>
<g id="a_node1"><a xlink:title=" ">
<polygon fill="#bfbfbf" stroke="black" points="734.83,-302.5 734.83,-332.5 867.83,-332.5 867.83,-302.5 734.83,-302.5"/>
<text text-anchor="start" x="742.83" y="-320.5" font-family="Helvetica,sans-Serif" font-size="10.00">include/emlabcpp/static</text>
<text text-anchor="middle" x="801.33" y="-309.5" font-family="Helvetica,sans-Serif" font-size="10.00">_vector.h</text>
</a>
</g>
</g>
<!-- Node2 -->
<g id="node2" class="node">
<title>Node2</title>
<g id="a_node2"><a xlink:href="concepts_8h.html" target="_top" xlink:title=" ">
<polygon fill="white" stroke="black" points="539.33,-112.5 539.33,-131.5 659.33,-131.5 659.33,-112.5 539.33,-112.5"/>
<text text-anchor="middle" x="599.33" y="-119.5" font-family="Helvetica,sans-Serif" font-size="10.00">emlabcpp/concepts.h</text>
</a>
</g>
</g>
<!-- Node1&#45;&gt;Node2 -->
<g id="edge1" class="edge">
<title>Node1&#45;&gt;Node2</title>
<path fill="none" stroke="midnightblue" d="M758.35,-302.43C737.45,-294.12 712.9,-282.05 694.33,-266 652.35,-229.72 621.19,-170.6 607.31,-141.03"/>
<polygon fill="midnightblue" stroke="midnightblue" points="610.33,-139.21 602.99,-131.57 603.96,-142.12 610.33,-139.21"/>
</g>
<!-- Node8 -->
<g id="node5" class="node">
<title>Node8</title>
<g id="a_node5"><a xlink:title=" ">
<polygon fill="white" stroke="#bfbfbf" points="660.83,-0.5 660.83,-19.5 729.83,-19.5 729.83,-0.5 660.83,-0.5"/>
<text text-anchor="middle" x="695.33" y="-7.5" font-family="Helvetica,sans-Serif" font-size="10.00">type_traits</text>
</a>
</g>
</g>
<!-- Node1&#45;&gt;Node8 -->
<g id="edge23" class="edge">
<title>Node1&#45;&gt;Node8</title>
<path fill="none" stroke="midnightblue" d="M809.03,-302.32C821.16,-278.64 843.33,-229.23 843.33,-184.5 843.33,-184.5 843.33,-184.5 843.33,-121 843.33,-68.02 781.49,-37.57 737.75,-22.66"/>
<polygon fill="midnightblue" stroke="midnightblue" points="738.77,-19.31 728.18,-19.54 736.6,-25.97 738.77,-19.31"/>
</g>
<!-- Node13 -->
<g id="node9" class="node">
<title>Node13</title>
<g id="a_node9"><a xlink:href="pretty__printer_8h.html" target="_top" xlink:title=" ">
<polygon fill="white" stroke="black" points="280.83,-235.5 280.83,-265.5 413.83,-265.5 413.83,-235.5 280.83,-235.5"/>
<text text-anchor="start" x="288.83" y="-253.5" font-family="Helvetica,sans-Serif" font-size="10.00">emlabcpp/experimental</text>
<text text-anchor="middle" x="347.33" y="-242.5" font-family="Helvetica,sans-Serif" font-size="10.00">/pretty_printer.h</text>
</a>
</g>
</g>
<!-- Node1&#45;&gt;Node13 -->
<g id="edge8" class="edge">
<title>Node1&#45;&gt;Node13</title>
<path fill="none" stroke="midnightblue" d="M734.83,-306.98C652.14,-295.14 511.3,-274.98 424.11,-262.49"/>
<polygon fill="midnightblue" stroke="midnightblue" points="424.4,-259 414.01,-261.05 423.41,-265.93 424.4,-259"/>
</g>
<!-- Node20 -->
<g id="node15" class="node">
<title>Node20</title>
<g id="a_node15"><a xlink:href="iterator_8h.html" target="_top" xlink:title=" ">
<polygon fill="white" stroke="black" points="703.33,-241 703.33,-260 815.33,-260 815.33,-241 703.33,-241"/>
<text text-anchor="middle" x="759.33" y="-248" font-family="Helvetica,sans-Serif" font-size="10.00">emlabcpp/iterator.h</text>
</a>
</g>
</g>
<!-- Node1&#45;&gt;Node20 -->
<g id="edge19" class="edge">
<title>Node1&#45;&gt;Node20</title>
<path fill="none" stroke="midnightblue" d="M792.22,-302.4C785.86,-292.56 777.34,-279.38 770.57,-268.89"/>
<polygon fill="midnightblue" stroke="midnightblue" points="773.31,-266.69 764.95,-260.19 767.44,-270.49 773.31,-266.69"/>
</g>
<!-- Node24 -->
<g id="node17" class="node">
<title>Node24</title>
<g id="a_node17"><a xlink:title=" ">
<polygon fill="white" stroke="#bfbfbf" points="871.83,-241 871.83,-260 908.83,-260 908.83,-241 871.83,-241"/>
<text text-anchor="middle" x="890.33" y="-248" font-family="Helvetica,sans-Serif" font-size="10.00">new</text>
</a>
</g>
</g>
<!-- Node1&#45;&gt;Node24 -->
<g id="edge22" class="edge">
<title>Node1&#45;&gt;Node24</title>
<path fill="none" stroke="midnightblue" d="M820.64,-302.4C835.29,-291.7 855.37,-277.03 870.21,-266.19"/>
<polygon fill="midnightblue" stroke="midnightblue" points="872.67,-268.73 878.68,-260.01 868.54,-263.08 872.67,-268.73"/>
</g>
<!-- Node25 -->
<g id="node18" class="node">
<title>Node25</title>
<g id="a_node18"><a xlink:title=" ">
<polygon fill="white" stroke="#bfbfbf" points="926.83,-241 926.83,-260 971.83,-260 971.83,-241 926.83,-241"/>
<text text-anchor="middle" x="949.33" y="-248" font-family="Helvetica,sans-Serif" font-size="10.00">utility</text>
</a>
</g>
</g>
<!-- Node1&#45;&gt;Node25 -->
<g id="edge24" class="edge">
<title>Node1&#45;&gt;Node25</title>
<path fill="none" stroke="midnightblue" d="M834.73,-302.4C858.2,-292.41 890.28,-278.61 918.33,-266 919.52,-265.47 920.73,-264.92 921.96,-264.36"/>
<polygon fill="midnightblue" stroke="midnightblue" points="923.73,-267.4 931.34,-260.03 920.79,-261.04 923.73,-267.4"/>
</g>
<!-- Node3 -->
<g id="node3" class="node">
<title>Node3</title>
<g id="a_node3"><a xlink:href="types_2base_8h.html" target="_top" xlink:title=" ">
<polygon fill="white" stroke="red" points="483.33,-56.5 483.33,-75.5 613.33,-75.5 613.33,-56.5 483.33,-56.5"/>
<text text-anchor="middle" x="548.33" y="-63.5" font-family="Helvetica,sans-Serif" font-size="10.00">emlabcpp/types/base.h</text>
</a>
</g>
</g>
<!-- Node2&#45;&gt;Node3 -->
<g id="edge2" class="edge">
<title>Node2&#45;&gt;Node3</title>
<path fill="none" stroke="midnightblue" d="M590.91,-112.08C583.48,-104.22 572.48,-92.57 563.52,-83.08"/>
<polygon fill="midnightblue" stroke="midnightblue" points="566.01,-80.62 556.59,-75.75 560.92,-85.42 566.01,-80.62"/>
</g>
<!-- Node10 -->
<g id="node6" class="node">
<title>Node10</title>
<g id="a_node6"><a xlink:title=" ">
<polygon fill="white" stroke="#bfbfbf" points="631.33,-56.5 631.33,-75.5 691.33,-75.5 691.33,-56.5 631.33,-56.5"/>
<text text-anchor="middle" x="661.33" y="-63.5" font-family="Helvetica,sans-Serif" font-size="10.00">concepts</text>
</a>
</g>
</g>
<!-- Node2&#45;&gt;Node10 -->
<g id="edge5" class="edge">
<title>Node2&#45;&gt;Node10</title>
<path fill="none" stroke="midnightblue" d="M609.29,-112.32C618.46,-104.34 632.27,-92.31 643.36,-82.65"/>
<polygon fill="midnightblue" stroke="midnightblue" points="645.94,-85.04 651.19,-75.83 641.35,-79.76 645.94,-85.04"/>
</g>
<!-- Node11 -->
<g id="node7" class="node">
<title>Node11</title>
<g id="a_node7"><a xlink:title=" ">
<polygon fill="white" stroke="#bfbfbf" points="709.83,-56.5 709.83,-75.5 762.83,-75.5 762.83,-56.5 709.83,-56.5"/>
<text text-anchor="middle" x="736.33" y="-63.5" font-family="Helvetica,sans-Serif" font-size="10.00">iterator</text>
</a>
</g>
</g>
<!-- Node2&#45;&gt;Node11 -->
<g id="edge6" class="edge">
<title>Node2&#45;&gt;Node11</title>
<path fill="none" stroke="midnightblue" d="M621.04,-112.44C643.68,-103.52 679.4,-89.44 705.08,-79.32"/>
<polygon fill="midnightblue" stroke="midnightblue" points="706.7,-82.44 714.72,-75.52 704.14,-75.93 706.7,-82.44"/>
</g>
<!-- Node12 -->
<g id="node8" class="node">
<title>Node12</title>
<g id="a_node8"><a xlink:title=" ">
<polygon fill="white" stroke="#bfbfbf" points="413.83,-56.5 413.83,-75.5 464.83,-75.5 464.83,-56.5 413.83,-56.5"/>
<text text-anchor="middle" x="439.33" y="-63.5" font-family="Helvetica,sans-Serif" font-size="10.00">variant</text>
</a>
</g>
</g>
<!-- Node2&#45;&gt;Node12 -->
<g id="edge7" class="edge">
<title>Node2&#45;&gt;Node12</title>
<path fill="none" stroke="midnightblue" d="M573.98,-112.44C547.06,-103.36 504.33,-88.94 474.24,-78.78"/>
<polygon fill="midnightblue" stroke="midnightblue" points="475.16,-75.4 464.56,-75.52 472.92,-82.03 475.16,-75.4"/>
</g>
<!-- Node7 -->
<g id="node4" class="node">
<title>Node7</title>
<g id="a_node4"><a xlink:title=" ">
<polygon fill="white" stroke="#bfbfbf" points="364.83,-0.5 364.83,-19.5 405.83,-19.5 405.83,-0.5 364.83,-0.5"/>
<text text-anchor="middle" x="385.33" y="-7.5" font-family="Helvetica,sans-Serif" font-size="10.00">tuple</text>
</a>
</g>
</g>
<!-- Node3&#45;&gt;Node7 -->
<g id="edge3" class="edge">
<title>Node3&#45;&gt;Node7</title>
<path fill="none" stroke="midnightblue" d="M522.5,-56.44C493.47,-46.82 446.38,-31.22 415.63,-21.04"/>
<polygon fill="midnightblue" stroke="midnightblue" points="416.47,-17.63 405.88,-17.81 414.27,-24.27 416.47,-17.63"/>
</g>
<!-- Node3&#45;&gt;Node8 -->
<g id="edge4" class="edge">
<title>Node3&#45;&gt;Node8</title>
<path fill="none" stroke="midnightblue" d="M571.62,-56.44C596.14,-47.44 634.93,-33.19 662.53,-23.05"/>
<polygon fill="midnightblue" stroke="midnightblue" points="663.97,-26.25 672.15,-19.52 661.55,-19.68 663.97,-26.25"/>
</g>
<!-- Node13&#45;&gt;Node2 -->
<g id="edge9" class="edge">
<title>Node13&#45;&gt;Node2</title>
<path fill="none" stroke="midnightblue" d="M413.88,-244.56C478.13,-238.31 569.02,-225.06 592.33,-199 606.1,-183.61 605.7,-158.79 603.27,-141.72"/>
<polygon fill="midnightblue" stroke="midnightblue" points="606.71,-141.05 601.52,-131.81 599.82,-142.26 606.71,-141.05"/>
</g>
<!-- Node13&#45;&gt;Node7 -->
<g id="edge17" class="edge">
<title>Node13&#45;&gt;Node7</title>
<path fill="none" stroke="midnightblue" d="M280.59,-249.51C191.54,-247.94 41.03,-239.21 6.33,-199 -2.67,-188.57 -1.32,-179.46 6.33,-168 86.85,-47.5 278.83,-19.37 354.2,-12.9"/>
<polygon fill="midnightblue" stroke="midnightblue" points="354.75,-16.36 364.45,-12.09 354.2,-9.39 354.75,-16.36"/>
</g>
<!-- Node13&#45;&gt;Node12 -->
<g id="edge18" class="edge">
<title>Node13&#45;&gt;Node12</title>
<path fill="none" stroke="midnightblue" d="M348.89,-235.4C351.13,-218.71 356.15,-190.34 366.33,-168 381.26,-135.22 407.65,-102.35 424.28,-83.38"/>
<polygon fill="midnightblue" stroke="midnightblue" points="427.1,-85.48 431.15,-75.69 421.88,-80.81 427.1,-85.48"/>
</g>
<!-- Node14 -->
<g id="node10" class="node">
<title>Node14</title>
<g id="a_node10"><a xlink:href="enum_8h.html" target="_top" xlink:title=" ">
<polygon fill="white" stroke="black" points="15.33,-174 15.33,-193 119.33,-193 119.33,-174 15.33,-174"/>
<text text-anchor="middle" x="67.33" y="-181" font-family="Helvetica,sans-Serif" font-size="10.00">emlabcpp/enum.h</text>
</a>
</g>
</g>
<!-- Node13&#45;&gt;Node14 -->
<g id="edge10" class="edge">
<title>Node13&#45;&gt;Node14</title>
<path fill="none" stroke="midnightblue" d="M285.94,-235.46C242.03,-225.39 181.52,-211.45 128.33,-199 123.36,-197.84 118.16,-196.61 112.98,-195.39"/>
<polygon fill="midnightblue" stroke="midnightblue" points="113.66,-191.95 103.12,-193.05 112.05,-198.76 113.66,-191.95"/>
</g>
<!-- Node15 -->
<g id="node11" class="node">
<title>Node15</title>
<g id="a_node11"><a xlink:href="decompose_8h.html" target="_top" xlink:title=" ">
<polygon fill="white" stroke="black" points="375.83,-168.5 375.83,-198.5 508.83,-198.5 508.83,-168.5 375.83,-168.5"/>
<text text-anchor="start" x="383.83" y="-186.5" font-family="Helvetica,sans-Serif" font-size="10.00">emlabcpp/experimental</text>
<text text-anchor="middle" x="442.33" y="-175.5" font-family="Helvetica,sans-Serif" font-size="10.00">/decompose.h</text>
</a>
</g>
</g>
<!-- Node13&#45;&gt;Node15 -->
<g id="edge11" class="edge">
<title>Node13&#45;&gt;Node15</title>
<path fill="none" stroke="midnightblue" d="M367.94,-235.4C381.26,-226.28 398.79,-214.29 413.48,-204.24"/>
<polygon fill="midnightblue" stroke="midnightblue" points="415.48,-207.11 421.76,-198.58 411.53,-201.33 415.48,-207.11"/>
</g>
<!-- Node16 -->
<g id="node12" class="node">
<title>Node16</title>
<g id="a_node12"><a xlink:href="match_8h.html" target="_top" xlink:title=" ">
<polygon fill="white" stroke="red" points="137.83,-174 137.83,-193 244.83,-193 244.83,-174 137.83,-174"/>
<text text-anchor="middle" x="191.33" y="-181" font-family="Helvetica,sans-Serif" font-size="10.00">emlabcpp/match.h</text>
</a>
</g>
</g>
<!-- Node13&#45;&gt;Node16 -->
<g id="edge14" class="edge">
<title>Node13&#45;&gt;Node16</title>
<path fill="none" stroke="midnightblue" d="M313.48,-235.4C285.99,-223.94 247.58,-207.94 221.21,-196.95"/>
<polygon fill="midnightblue" stroke="midnightblue" points="222.32,-193.62 211.75,-193.01 219.63,-200.08 222.32,-193.62"/>
</g>
<!-- Node18 -->
<g id="node13" class="node">
<title>Node18</title>
<g id="a_node13"><a xlink:title=" ">
<polygon fill="white" stroke="#bfbfbf" points="263.33,-174 263.33,-193 319.33,-193 319.33,-174 263.33,-174"/>
<text text-anchor="middle" x="291.33" y="-181" font-family="Helvetica,sans-Serif" font-size="10.00">optional</text>
</a>
</g>
</g>
<!-- Node13&#45;&gt;Node18 -->
<g id="edge15" class="edge">
<title>Node13&#45;&gt;Node18</title>
<path fill="none" stroke="midnightblue" d="M335.18,-235.4C326.45,-225.26 314.65,-211.57 305.49,-200.94"/>
<polygon fill="midnightblue" stroke="midnightblue" points="308,-198.49 298.82,-193.19 302.7,-203.06 308,-198.49"/>
</g>
<!-- Node19 -->
<g id="node14" class="node">
<title>Node19</title>
<g id="a_node14"><a xlink:title=" ">
<polygon fill="white" stroke="#bfbfbf" points="527.33,-174 527.33,-193 583.33,-193 583.33,-174 527.33,-174"/>
<text text-anchor="middle" x="555.33" y="-181" font-family="Helvetica,sans-Serif" font-size="10.00">sstream</text>
</a>
</g>
</g>
<!-- Node13&#45;&gt;Node19 -->
<g id="edge16" class="edge">
<title>Node13&#45;&gt;Node19</title>
<path fill="none" stroke="midnightblue" d="M398.23,-235.47C432.17,-225.85 477.67,-212.44 517.33,-199 519.59,-198.24 521.91,-197.42 524.24,-196.58"/>
<polygon fill="midnightblue" stroke="midnightblue" points="525.57,-199.82 533.73,-193.07 523.14,-193.26 525.57,-199.82"/>
</g>
<!-- Node15&#45;&gt;Node2 -->
<g id="edge12" class="edge">
<title>Node15&#45;&gt;Node2</title>
<path fill="none" stroke="midnightblue" d="M479.54,-168.4C506.11,-158.33 541.52,-144.91 566.94,-135.28"/>
<polygon fill="midnightblue" stroke="midnightblue" points="568.37,-138.47 576.48,-131.66 565.89,-131.93 568.37,-138.47"/>
</g>
<!-- Node15&#45;&gt;Node7 -->
<g id="edge13" class="edge">
<title>Node15&#45;&gt;Node7</title>
<path fill="none" stroke="midnightblue" d="M437.03,-168.46C429.43,-148.18 415.17,-109.43 404.33,-76 399.29,-60.45 394.12,-42.61 390.44,-29.56"/>
<polygon fill="midnightblue" stroke="midnightblue" points="393.8,-28.58 387.75,-19.88 387.06,-30.45 393.8,-28.58"/>
</g>
<!-- Node20&#45;&gt;Node11 -->
<g id="edge21" class="edge">
<title>Node20&#45;&gt;Node11</title>
<path fill="none" stroke="midnightblue" d="M744.96,-240.75C732.11,-231.99 714.14,-217.22 706.33,-199 689.59,-159.92 711.48,-110.16 725.77,-84.33"/>
<polygon fill="midnightblue" stroke="midnightblue" points="728.8,-86.08 730.78,-75.67 722.75,-82.58 728.8,-86.08"/>
</g>
<!-- Node21 -->
<g id="node16" class="node">
<title>Node21</title>
<g id="a_node16"><a xlink:href="view_8h.html" target="_top" xlink:title=" ">
<polygon fill="white" stroke="red" points="715.83,-174 715.83,-193 814.83,-193 814.83,-174 715.83,-174"/>
<text text-anchor="middle" x="765.33" y="-181" font-family="Helvetica,sans-Serif" font-size="10.00">emlabcpp/view.h</text>
</a>
</g>
</g>
<!-- Node20&#45;&gt;Node21 -->
<g id="edge20" class="edge">
<title>Node20&#45;&gt;Node21</title>
<path fill="none" stroke="midnightblue" d="M760.14,-240.73C761.02,-231.18 762.46,-215.62 763.6,-203.28"/>
<polygon fill="midnightblue" stroke="midnightblue" points="767.1,-203.41 764.53,-193.13 760.13,-202.76 767.1,-203.41"/>
</g>
</g>
</svg>
