<?xml version="1.0" encoding="UTF-8" standalone="no"?>
<!DOCTYPE svg PUBLIC "-//W3C//DTD SVG 1.1//EN"
 "http://www.w3.org/Graphics/SVG/1.1/DTD/svg11.dtd">
<!-- Generated by graphviz version 2.43.0 (0)
 -->
<!-- Title: include/emlabcpp/static_function.h Pages: 1 -->
<svg width="287pt" height="151pt"
 viewBox="0.00 0.00 286.50 151.00" xmlns="http://www.w3.org/2000/svg" xmlns:xlink="http://www.w3.org/1999/xlink">
<g id="graph0" class="graph" transform="scale(1 1) rotate(0) translate(4 147)">
<title>include/emlabcpp/static_function.h</title>
<polygon fill="white" stroke="transparent" points="-4,4 -4,-147 282.5,-147 282.5,4 -4,4"/>
<!-- Node1 -->
<g id="node1" class="node">
<title>Node1</title>
<g id="a_node1"><a xlink:title=" ">
<polygon fill="#bfbfbf" stroke="black" points="103,-112.5 103,-142.5 236,-142.5 236,-112.5 103,-112.5"/>
<text text-anchor="start" x="111" y="-130.5" font-family="Helvetica,sans-Serif" font-size="10.00">include/emlabcpp/static</text>
<text text-anchor="middle" x="169.5" y="-119.5" font-family="Helvetica,sans-Serif" font-size="10.00">_function.h</text>
</a>
</g>
</g>
<!-- Node2 -->
<g id="node2" class="node">
<title>Node2</title>
<g id="a_node2"><a xlink:href="pmr_2util_8h.html" target="_top" xlink:title=" ">
<polygon fill="white" stroke="black" points="4,-56.5 4,-75.5 119,-75.5 119,-56.5 4,-56.5"/>
<text text-anchor="middle" x="61.5" y="-63.5" font-family="Helvetica,sans-Serif" font-size="10.00">emlabcpp/pmr/util.h</text>
</a>
</g>
</g>
<!-- Node1&#45;&gt;Node2 -->
<g id="edge1" class="edge">
<title>Node1&#45;&gt;Node2</title>
<path fill="none" stroke="midnightblue" d="M143.91,-112.4C126.43,-102.77 103.41,-90.09 86.14,-80.58"/>
<polygon fill="midnightblue" stroke="midnightblue" points="87.66,-77.42 77.21,-75.66 84.28,-83.55 87.66,-77.42"/>
</g>
<!-- Node5 -->
<g id="node5" class="node">
<title>Node5</title>
<g id="a_node5"><a xlink:title=" ">
<polygon fill="white" stroke="#bfbfbf" points="137,-56.5 137,-75.5 202,-75.5 202,-56.5 137,-56.5"/>
<text text-anchor="middle" x="169.5" y="-63.5" font-family="Helvetica,sans-Serif" font-size="10.00">functional</text>
</a>
</g>
</g>
<!-- Node1&#45;&gt;Node5 -->
<g id="edge4" class="edge">
<title>Node1&#45;&gt;Node5</title>
<path fill="none" stroke="midnightblue" d="M169.5,-112.4C169.5,-104.47 169.5,-94.46 169.5,-85.86"/>
<polygon fill="midnightblue" stroke="midnightblue" points="173,-85.66 169.5,-75.66 166,-85.66 173,-85.66"/>
</g>
<!-- Node6 -->
<g id="node6" class="node">
<title>Node6</title>
<g id="a_node6"><a xlink:title=" ">
<polygon fill="white" stroke="#bfbfbf" points="220.5,-56.5 220.5,-75.5 278.5,-75.5 278.5,-56.5 220.5,-56.5"/>
<text text-anchor="middle" x="249.5" y="-63.5" font-family="Helvetica,sans-Serif" font-size="10.00">memory</text>
</a>
</g>
</g>
<!-- Node1&#45;&gt;Node6 -->
<g id="edge5" class="edge">
<title>Node1&#45;&gt;Node6</title>
<path fill="none" stroke="midnightblue" d="M188.46,-112.4C200.92,-103.13 217.2,-91.03 229.81,-81.65"/>
<polygon fill="midnightblue" stroke="midnightblue" points="231.92,-84.43 237.86,-75.66 227.75,-78.82 231.92,-84.43"/>
</g>
<!-- Node3 -->
<g id="node3" class="node">
<title>Node3</title>
<g id="a_node3"><a xlink:title=" ">
<polygon fill="white" stroke="#bfbfbf" points="0,-0.5 0,-19.5 53,-19.5 53,-0.5 0,-0.5"/>
<text text-anchor="middle" x="26.5" y="-7.5" font-family="Helvetica,sans-Serif" font-size="10.00">cstddef</text>
</a>
</g>
</g>
<!-- Node2&#45;&gt;Node3 -->
<g id="edge2" class="edge">
<title>Node2&#45;&gt;Node3</title>
<path fill="none" stroke="midnightblue" d="M55.72,-56.08C50.83,-48.53 43.67,-37.49 37.67,-28.23"/>
<polygon fill="midnightblue" stroke="midnightblue" points="40.55,-26.24 32.17,-19.75 34.67,-30.05 40.55,-26.24"/>
</g>
<!-- Node4 -->
<g id="node4" class="node">
<title>Node4</title>
<g id="a_node4"><a xlink:title=" ">
<polygon fill="white" stroke="#bfbfbf" points="71.5,-0.5 71.5,-19.5 121.5,-19.5 121.5,-0.5 71.5,-0.5"/>
<text text-anchor="middle" x="96.5" y="-7.5" font-family="Helvetica,sans-Serif" font-size="10.00">cstdint</text>
</a>
</g>
</g>
<!-- Node2&#45;&gt;Node4 -->
<g id="edge3" class="edge">
<title>Node2&#45;&gt;Node4</title>
<path fill="none" stroke="midnightblue" d="M67.28,-56.08C72.17,-48.53 79.33,-37.49 85.33,-28.23"/>
<polygon fill="midnightblue" stroke="midnightblue" points="88.33,-30.05 90.83,-19.75 82.45,-26.24 88.33,-30.05"/>
</g>
</g>
</svg>
