<?xml version="1.0" encoding="UTF-8" standalone="no"?>
<!DOCTYPE svg PUBLIC "-//W3C//DTD SVG 1.1//EN"
 "http://www.w3.org/Graphics/SVG/1.1/DTD/svg11.dtd">
<!-- Generated by graphviz version 2.43.0 (0)
 -->
<!-- Title: include/emlabcpp/static_circular_buffer.h Pages: 1 -->
<svg width="345pt" height="151pt"
 viewBox="0.00 0.00 344.50 151.00" xmlns="http://www.w3.org/2000/svg" xmlns:xlink="http://www.w3.org/1999/xlink">
<g id="graph0" class="graph" transform="scale(1 1) rotate(0) translate(4 147)">
<title>include/emlabcpp/static_circular_buffer.h</title>
<polygon fill="white" stroke="transparent" points="-4,4 -4,-147 340.5,-147 340.5,4 -4,4"/>
<!-- Node1 -->
<g id="node1" class="node">
<title>Node1</title>
<g id="a_node1"><a xlink:title=" ">
<polygon fill="#bfbfbf" stroke="black" points="83.5,-112.5 83.5,-142.5 216.5,-142.5 216.5,-112.5 83.5,-112.5"/>
<text text-anchor="start" x="91.5" y="-130.5" font-family="Helvetica,sans-Serif" font-size="10.00">include/emlabcpp/static</text>
<text text-anchor="middle" x="150" y="-119.5" font-family="Helvetica,sans-Serif" font-size="10.00">_circular_buffer.h</text>
</a>
</g>
</g>
<!-- Node2 -->
<g id="node2" class="node">
<title>Node2</title>
<g id="a_node2"><a xlink:href="iterator_8h.html" target="_top" xlink:title=" ">
<polygon fill="white" stroke="black" points="65.5,-56.5 65.5,-75.5 132.5,-75.5 132.5,-56.5 65.5,-56.5"/>
<text text-anchor="middle" x="99" y="-63.5" font-family="Helvetica,sans-Serif" font-size="10.00">./iterator.h</text>
</a>
</g>
</g>
<!-- Node1&#45;&gt;Node2 -->
<g id="edge1" class="edge">
<title>Node1&#45;&gt;Node2</title>
<path fill="none" stroke="midnightblue" d="M137.91,-112.4C130.43,-103.66 120.78,-92.41 112.97,-83.3"/>
<polygon fill="midnightblue" stroke="midnightblue" points="115.59,-80.97 106.42,-75.66 110.27,-85.53 115.59,-80.97"/>
</g>
<!-- Node18 -->
<g id="node5" class="node">
<title>Node18</title>
<g id="a_node5"><a xlink:href="static__storage_8h.html" target="_top" xlink:title=" ">
<polygon fill="white" stroke="black" points="171.5,-56.5 171.5,-75.5 272.5,-75.5 272.5,-56.5 171.5,-56.5"/>
<text text-anchor="middle" x="222" y="-63.5" font-family="Helvetica,sans-Serif" font-size="10.00">./static_storage.h</text>
</a>
</g>
</g>
<!-- Node1&#45;&gt;Node18 -->
<g id="edge4" class="edge">
<title>Node1&#45;&gt;Node18</title>
<path fill="none" stroke="midnightblue" d="M167.06,-112.4C178.06,-103.31 192.37,-91.49 203.62,-82.19"/>
<polygon fill="midnightblue" stroke="midnightblue" points="206.04,-84.73 211.52,-75.66 201.59,-79.33 206.04,-84.73"/>
</g>
<!-- Node3 -->
<g id="node3" class="node">
<title>Node3</title>
<g id="a_node3"><a xlink:href="view_8h.html" target="_top" xlink:title=" ">
<polygon fill="white" stroke="red" points="0,-0.5 0,-19.5 54,-19.5 54,-0.5 0,-0.5"/>
<text text-anchor="middle" x="27" y="-7.5" font-family="Helvetica,sans-Serif" font-size="10.00">./view.h</text>
</a>
</g>
</g>
<!-- Node2&#45;&gt;Node3 -->
<g id="edge2" class="edge">
<title>Node2&#45;&gt;Node3</title>
<path fill="none" stroke="midnightblue" d="M87.43,-56.32C76.58,-48.18 60.12,-35.84 47.12,-26.09"/>
<polygon fill="midnightblue" stroke="midnightblue" points="48.88,-23.03 38.78,-19.83 44.68,-28.63 48.88,-23.03"/>
</g>
<!-- Node14 -->
<g id="node4" class="node">
<title>Node14</title>
<g id="a_node4"><a xlink:title=" ">
<polygon fill="white" stroke="#bfbfbf" points="72.5,-0.5 72.5,-19.5 125.5,-19.5 125.5,-0.5 72.5,-0.5"/>
<text text-anchor="middle" x="99" y="-7.5" font-family="Helvetica,sans-Serif" font-size="10.00">iterator</text>
</a>
</g>
</g>
<!-- Node2&#45;&gt;Node14 -->
<g id="edge3" class="edge">
<title>Node2&#45;&gt;Node14</title>
<path fill="none" stroke="midnightblue" d="M99,-56.08C99,-49.01 99,-38.86 99,-29.99"/>
<polygon fill="midnightblue" stroke="midnightblue" points="102.5,-29.75 99,-19.75 95.5,-29.75 102.5,-29.75"/>
</g>
<!-- Node19 -->
<g id="node6" class="node">
<title>Node19</title>
<g id="a_node6"><a xlink:title=" ">
<polygon fill="white" stroke="#bfbfbf" points="143.5,-0.5 143.5,-19.5 196.5,-19.5 196.5,-0.5 143.5,-0.5"/>
<text text-anchor="middle" x="170" y="-7.5" font-family="Helvetica,sans-Serif" font-size="10.00">cstddef</text>
</a>
</g>
</g>
<!-- Node18&#45;&gt;Node19 -->
<g id="edge5" class="edge">
<title>Node18&#45;&gt;Node19</title>
<path fill="none" stroke="midnightblue" d="M213.41,-56.08C205.84,-48.22 194.62,-36.57 185.49,-27.08"/>
<polygon fill="midnightblue" stroke="midnightblue" points="187.88,-24.53 178.43,-19.75 182.84,-29.38 187.88,-24.53"/>
</g>
<!-- Node20 -->
<g id="node7" class="node">
<title>Node20</title>
<g id="a_node7"><a xlink:title=" ">
<polygon fill="white" stroke="#bfbfbf" points="215,-0.5 215,-19.5 273,-19.5 273,-0.5 215,-0.5"/>
<text text-anchor="middle" x="244" y="-7.5" font-family="Helvetica,sans-Serif" font-size="10.00">memory</text>
</a>
</g>
</g>
<!-- Node18&#45;&gt;Node20 -->
<g id="edge6" class="edge">
<title>Node18&#45;&gt;Node20</title>
<path fill="none" stroke="midnightblue" d="M225.63,-56.08C228.61,-48.77 232.93,-38.18 236.62,-29.1"/>
<polygon fill="midnightblue" stroke="midnightblue" points="239.9,-30.33 240.43,-19.75 233.42,-27.69 239.9,-30.33"/>
</g>
<!-- Node21 -->
<g id="node8" class="node">
<title>Node21</title>
<g id="a_node8"><a xlink:title=" ">
<polygon fill="white" stroke="#bfbfbf" points="291.5,-0.5 291.5,-19.5 336.5,-19.5 336.5,-0.5 291.5,-0.5"/>
<text text-anchor="middle" x="314" y="-7.5" font-family="Helvetica,sans-Serif" font-size="10.00">utility</text>
</a>
</g>
</g>
<!-- Node18&#45;&gt;Node21 -->
<g id="edge7" class="edge">
<title>Node18&#45;&gt;Node21</title>
<path fill="none" stroke="midnightblue" d="M236.78,-56.32C251.27,-47.82 273.57,-34.73 290.49,-24.8"/>
<polygon fill="midnightblue" stroke="midnightblue" points="292.4,-27.74 299.26,-19.65 288.86,-21.7 292.4,-27.74"/>
</g>
</g>
</svg>
