<?xml version="1.0" encoding="UTF-8" standalone="no"?>
<!DOCTYPE svg PUBLIC "-//W3C//DTD SVG 1.1//EN"
 "http://www.w3.org/Graphics/SVG/1.1/DTD/svg11.dtd">
<!-- Generated by graphviz version 2.43.0 (0)
 -->
<!-- Title: include/emlabcpp/static_vector.h Pages: 1 -->
<svg width="399pt" height="375pt"
 viewBox="0.00 0.00 398.50 375.00" xmlns="http://www.w3.org/2000/svg" xmlns:xlink="http://www.w3.org/1999/xlink">
<g id="graph0" class="graph" transform="scale(1 1) rotate(0) translate(4 371)">
<title>include/emlabcpp/static_vector.h</title>
<polygon fill="white" stroke="transparent" points="-4,4 -4,-371 394.5,-371 394.5,4 -4,4"/>
<!-- Node1 -->
<g id="node1" class="node">
<title>Node1</title>
<g id="a_node1"><a xlink:title=" ">
<polygon fill="#bfbfbf" stroke="black" points="140,-336.5 140,-366.5 273,-366.5 273,-336.5 140,-336.5"/>
<text text-anchor="start" x="148" y="-354.5" font-family="Helvetica,sans-Serif" font-size="10.00">include/emlabcpp/static</text>
<text text-anchor="middle" x="206.5" y="-343.5" font-family="Helvetica,sans-Serif" font-size="10.00">_vector.h</text>
</a>
</g>
</g>
<!-- Node2 -->
<g id="node2" class="node">
<title>Node2</title>
<g id="a_node2"><a xlink:href="concepts_8h.html" target="_top" xlink:title=" ">
<polygon fill="white" stroke="black" points="62.5,-112.5 62.5,-131.5 182.5,-131.5 182.5,-112.5 62.5,-112.5"/>
<text text-anchor="middle" x="122.5" y="-119.5" font-family="Helvetica,sans-Serif" font-size="10.00">emlabcpp/concepts.h</text>
</a>
</g>
</g>
<!-- Node1&#45;&gt;Node2 -->
<g id="edge1" class="edge">
<title>Node1&#45;&gt;Node2</title>
<path fill="none" stroke="midnightblue" d="M179.36,-336.41C165.65,-327.81 150.13,-315.48 141.5,-300 112.83,-248.59 116.31,-175.7 119.96,-141.75"/>
<polygon fill="midnightblue" stroke="midnightblue" points="123.44,-142.17 121.16,-131.82 116.49,-141.32 123.44,-142.17"/>
</g>
<!-- Node8 -->
<g id="node8" class="node">
<title>Node8</title>
<g id="a_node8"><a xlink:title=" ">
<polygon fill="white" stroke="#bfbfbf" points="0,-0.5 0,-19.5 69,-19.5 69,-0.5 0,-0.5"/>
<text text-anchor="middle" x="34.5" y="-7.5" font-family="Helvetica,sans-Serif" font-size="10.00">type_traits</text>
</a>
</g>
</g>
<!-- Node1&#45;&gt;Node8 -->
<g id="edge18" class="edge">
<title>Node1&#45;&gt;Node8</title>
<path fill="none" stroke="midnightblue" d="M146.34,-336.48C96.74,-320.94 34.5,-290.39 34.5,-235 34.5,-235 34.5,-235 34.5,-121 34.5,-88.95 34.5,-51.64 34.5,-29.75"/>
<polygon fill="midnightblue" stroke="midnightblue" points="38,-29.56 34.5,-19.56 31,-29.56 38,-29.56"/>
</g>
<!-- Node11 -->
<g id="node11" class="node">
<title>Node11</title>
<g id="a_node11"><a xlink:href="iterator_8h.html" target="_top" xlink:title=" ">
<polygon fill="white" stroke="black" points="150.5,-280.5 150.5,-299.5 262.5,-299.5 262.5,-280.5 150.5,-280.5"/>
<text text-anchor="middle" x="206.5" y="-287.5" font-family="Helvetica,sans-Serif" font-size="10.00">emlabcpp/iterator.h</text>
</a>
</g>
</g>
<!-- Node1&#45;&gt;Node11 -->
<g id="edge10" class="edge">
<title>Node1&#45;&gt;Node11</title>
<path fill="none" stroke="midnightblue" d="M206.5,-336.4C206.5,-328.47 206.5,-318.46 206.5,-309.86"/>
<polygon fill="midnightblue" stroke="midnightblue" points="210,-309.66 206.5,-299.66 203,-309.66 210,-309.66"/>
</g>
<!-- Node16 -->
<g id="node16" class="node">
<title>Node16</title>
<g id="a_node16"><a xlink:title=" ">
<polygon fill="white" stroke="#bfbfbf" points="281,-280.5 281,-299.5 318,-299.5 318,-280.5 281,-280.5"/>
<text text-anchor="middle" x="299.5" y="-287.5" font-family="Helvetica,sans-Serif" font-size="10.00">new</text>
</a>
</g>
</g>
<!-- Node1&#45;&gt;Node16 -->
<g id="edge17" class="edge">
<title>Node1&#45;&gt;Node16</title>
<path fill="none" stroke="midnightblue" d="M228.54,-336.4C243.31,-326.95 262.68,-314.56 277.45,-305.11"/>
<polygon fill="midnightblue" stroke="midnightblue" points="279.43,-308 285.97,-299.66 275.66,-302.1 279.43,-308"/>
</g>
<!-- Node17 -->
<g id="node17" class="node">
<title>Node17</title>
<g id="a_node17"><a xlink:title=" ">
<polygon fill="white" stroke="#bfbfbf" points="336,-280.5 336,-299.5 381,-299.5 381,-280.5 336,-280.5"/>
<text text-anchor="middle" x="358.5" y="-287.5" font-family="Helvetica,sans-Serif" font-size="10.00">utility</text>
</a>
</g>
</g>
<!-- Node1&#45;&gt;Node17 -->
<g id="edge19" class="edge">
<title>Node1&#45;&gt;Node17</title>
<path fill="none" stroke="midnightblue" d="M242.52,-336.4C268.14,-326.37 302.23,-313.03 326.81,-303.4"/>
<polygon fill="midnightblue" stroke="midnightblue" points="328.35,-306.56 336.38,-299.66 325.79,-300.04 328.35,-306.56"/>
</g>
<!-- Node3 -->
<g id="node3" class="node">
<title>Node3</title>
<g id="a_node3"><a xlink:href="types_2base_8h.html" target="_top" xlink:title=" ">
<polygon fill="white" stroke="black" points="145.5,-56.5 145.5,-75.5 275.5,-75.5 275.5,-56.5 145.5,-56.5"/>
<text text-anchor="middle" x="210.5" y="-63.5" font-family="Helvetica,sans-Serif" font-size="10.00">emlabcpp/types/base.h</text>
</a>
</g>
</g>
<!-- Node2&#45;&gt;Node3 -->
<g id="edge2" class="edge">
<title>Node2&#45;&gt;Node3</title>
<path fill="none" stroke="midnightblue" d="M136.64,-112.32C150.37,-103.9 171.44,-90.97 187.56,-81.07"/>
<polygon fill="midnightblue" stroke="midnightblue" points="189.7,-83.87 196.4,-75.65 186.04,-77.9 189.7,-83.87"/>
</g>
<!-- Node10 -->
<g id="node10" class="node">
<title>Node10</title>
<g id="a_node10"><a xlink:title=" ">
<polygon fill="white" stroke="#bfbfbf" points="67.5,-56.5 67.5,-75.5 127.5,-75.5 127.5,-56.5 67.5,-56.5"/>
<text text-anchor="middle" x="97.5" y="-63.5" font-family="Helvetica,sans-Serif" font-size="10.00">concepts</text>
</a>
</g>
</g>
<!-- Node2&#45;&gt;Node10 -->
<g id="edge9" class="edge">
<title>Node2&#45;&gt;Node10</title>
<path fill="none" stroke="midnightblue" d="M118.37,-112.08C114.99,-104.77 110.08,-94.18 105.88,-85.1"/>
<polygon fill="midnightblue" stroke="midnightblue" points="108.93,-83.36 101.55,-75.75 102.58,-86.3 108.93,-83.36"/>
</g>
<!-- Node4 -->
<g id="node4" class="node">
<title>Node4</title>
<g id="a_node4"><a xlink:title=" ">
<polygon fill="white" stroke="#bfbfbf" points="348.5,-0.5 348.5,-19.5 390.5,-19.5 390.5,-0.5 348.5,-0.5"/>
<text text-anchor="middle" x="369.5" y="-7.5" font-family="Helvetica,sans-Serif" font-size="10.00">array</text>
</a>
</g>
</g>
<!-- Node3&#45;&gt;Node4 -->
<g id="edge3" class="edge">
<title>Node3&#45;&gt;Node4</title>
<path fill="none" stroke="midnightblue" d="M235.69,-56.44C263.7,-46.93 308.93,-31.57 338.94,-21.38"/>
<polygon fill="midnightblue" stroke="midnightblue" points="340.14,-24.67 348.49,-18.14 337.89,-18.04 340.14,-24.67"/>
</g>
<!-- Node5 -->
<g id="node5" class="node">
<title>Node5</title>
<g id="a_node5"><a xlink:title=" ">
<polygon fill="white" stroke="#bfbfbf" points="87.5,-0.5 87.5,-19.5 137.5,-19.5 137.5,-0.5 87.5,-0.5"/>
<text text-anchor="middle" x="112.5" y="-7.5" font-family="Helvetica,sans-Serif" font-size="10.00">cstdint</text>
</a>
</g>
</g>
<!-- Node3&#45;&gt;Node5 -->
<g id="edge4" class="edge">
<title>Node3&#45;&gt;Node5</title>
<path fill="none" stroke="midnightblue" d="M194.75,-56.32C179.18,-47.74 155.12,-34.49 137.04,-24.52"/>
<polygon fill="midnightblue" stroke="midnightblue" points="138.65,-21.42 128.21,-19.65 135.28,-27.55 138.65,-21.42"/>
</g>
<!-- Node6 -->
<g id="node6" class="node">
<title>Node6</title>
<g id="a_node6"><a xlink:title=" ">
<polygon fill="white" stroke="#bfbfbf" points="155.5,-0.5 155.5,-19.5 205.5,-19.5 205.5,-0.5 155.5,-0.5"/>
<text text-anchor="middle" x="180.5" y="-7.5" font-family="Helvetica,sans-Serif" font-size="10.00">ranges</text>
</a>
</g>
</g>
<!-- Node3&#45;&gt;Node6 -->
<g id="edge5" class="edge">
<title>Node3&#45;&gt;Node6</title>
<path fill="none" stroke="midnightblue" d="M205.55,-56.08C201.4,-48.61 195.35,-37.72 190.23,-28.52"/>
<polygon fill="midnightblue" stroke="midnightblue" points="193.28,-26.79 185.36,-19.75 187.16,-30.19 193.28,-26.79"/>
</g>
<!-- Node7 -->
<g id="node7" class="node">
<title>Node7</title>
<g id="a_node7"><a xlink:title=" ">
<polygon fill="white" stroke="#bfbfbf" points="224,-0.5 224,-19.5 265,-19.5 265,-0.5 224,-0.5"/>
<text text-anchor="middle" x="244.5" y="-7.5" font-family="Helvetica,sans-Serif" font-size="10.00">tuple</text>
</a>
</g>
</g>
<!-- Node3&#45;&gt;Node7 -->
<g id="edge6" class="edge">
<title>Node3&#45;&gt;Node7</title>
<path fill="none" stroke="midnightblue" d="M216.11,-56.08C220.87,-48.53 227.82,-37.49 233.65,-28.23"/>
<polygon fill="midnightblue" stroke="midnightblue" points="236.62,-30.08 238.99,-19.75 230.7,-26.35 236.62,-30.08"/>
</g>
<!-- Node3&#45;&gt;Node8 -->
<g id="edge7" class="edge">
<title>Node3&#45;&gt;Node8</title>
<path fill="none" stroke="midnightblue" d="M182.61,-56.44C152.75,-47.28 105.19,-32.69 72.04,-22.52"/>
<polygon fill="midnightblue" stroke="midnightblue" points="72.84,-19.1 62.26,-19.52 70.79,-25.8 72.84,-19.1"/>
</g>
<!-- Node9 -->
<g id="node9" class="node">
<title>Node9</title>
<g id="a_node9"><a xlink:title=" ">
<polygon fill="white" stroke="#bfbfbf" points="283,-0.5 283,-19.5 330,-19.5 330,-0.5 283,-0.5"/>
<text text-anchor="middle" x="306.5" y="-7.5" font-family="Helvetica,sans-Serif" font-size="10.00">vector</text>
</a>
</g>
</g>
<!-- Node3&#45;&gt;Node9 -->
<g id="edge8" class="edge">
<title>Node3&#45;&gt;Node9</title>
<path fill="none" stroke="midnightblue" d="M225.92,-56.32C241.04,-47.82 264.32,-34.73 281.97,-24.8"/>
<polygon fill="midnightblue" stroke="midnightblue" points="284.11,-27.61 291.11,-19.65 280.68,-21.51 284.11,-27.61"/>
</g>
<!-- Node12 -->
<g id="node12" class="node">
<title>Node12</title>
<g id="a_node12"><a xlink:href="view_8h.html" target="_top" xlink:title=" ">
<polygon fill="white" stroke="black" points="157,-224.5 157,-243.5 256,-243.5 256,-224.5 157,-224.5"/>
<text text-anchor="middle" x="206.5" y="-231.5" font-family="Helvetica,sans-Serif" font-size="10.00">emlabcpp/view.h</text>
</a>
</g>
</g>
<!-- Node11&#45;&gt;Node12 -->
<g id="edge11" class="edge">
<title>Node11&#45;&gt;Node12</title>
<path fill="none" stroke="midnightblue" d="M206.5,-280.08C206.5,-273.01 206.5,-262.86 206.5,-253.99"/>
<polygon fill="midnightblue" stroke="midnightblue" points="210,-253.75 206.5,-243.75 203,-253.75 210,-253.75"/>
</g>
<!-- Node15 -->
<g id="node15" class="node">
<title>Node15</title>
<g id="a_node15"><a xlink:title=" ">
<polygon fill="white" stroke="#bfbfbf" points="274,-224.5 274,-243.5 327,-243.5 327,-224.5 274,-224.5"/>
<text text-anchor="middle" x="300.5" y="-231.5" font-family="Helvetica,sans-Serif" font-size="10.00">iterator</text>
</a>
</g>
</g>
<!-- Node11&#45;&gt;Node15 -->
<g id="edge16" class="edge">
<title>Node11&#45;&gt;Node15</title>
<path fill="none" stroke="midnightblue" d="M221.6,-280.32C236.4,-271.82 259.19,-258.73 276.48,-248.8"/>
<polygon fill="midnightblue" stroke="midnightblue" points="278.51,-251.67 285.43,-243.65 275.02,-245.6 278.51,-251.67"/>
</g>
<!-- Node13 -->
<g id="node13" class="node">
<title>Node13</title>
<g id="a_node13"><a xlink:href="types_8h.html" target="_top" xlink:title=" ">
<polygon fill="white" stroke="black" points="156.5,-168.5 156.5,-187.5 260.5,-187.5 260.5,-168.5 156.5,-168.5"/>
<text text-anchor="middle" x="208.5" y="-175.5" font-family="Helvetica,sans-Serif" font-size="10.00">emlabcpp/types.h</text>
</a>
</g>
</g>
<!-- Node12&#45;&gt;Node13 -->
<g id="edge12" class="edge">
<title>Node12&#45;&gt;Node13</title>
<path fill="none" stroke="midnightblue" d="M206.83,-224.08C207.09,-217.01 207.47,-206.86 207.8,-197.99"/>
<polygon fill="midnightblue" stroke="midnightblue" points="211.3,-197.87 208.18,-187.75 204.31,-197.61 211.3,-197.87"/>
</g>
<!-- Node13&#45;&gt;Node2 -->
<g id="edge13" class="edge">
<title>Node13&#45;&gt;Node2</title>
<path fill="none" stroke="midnightblue" d="M194.68,-168.32C181.27,-159.9 160.68,-146.97 144.91,-137.07"/>
<polygon fill="midnightblue" stroke="midnightblue" points="146.61,-134.01 136.28,-131.65 142.89,-139.94 146.61,-134.01"/>
</g>
<!-- Node13&#45;&gt;Node3 -->
<g id="edge14" class="edge">
<title>Node13&#45;&gt;Node3</title>
<path fill="none" stroke="midnightblue" d="M208.66,-168.37C208.98,-150.62 209.72,-109.67 210.16,-85.6"/>
<polygon fill="midnightblue" stroke="midnightblue" points="213.66,-85.65 210.34,-75.59 206.66,-85.53 213.66,-85.65"/>
</g>
<!-- Node14 -->
<g id="node14" class="node">
<title>Node14</title>
<g id="a_node14"><a xlink:title=" ">
<polygon fill="white" stroke="#bfbfbf" points="238.5,-112.5 238.5,-131.5 282.5,-131.5 282.5,-112.5 238.5,-112.5"/>
<text text-anchor="middle" x="260.5" y="-119.5" font-family="Helvetica,sans-Serif" font-size="10.00">string</text>
</a>
</g>
</g>
<!-- Node13&#45;&gt;Node14 -->
<g id="edge15" class="edge">
<title>Node13&#45;&gt;Node14</title>
<path fill="none" stroke="midnightblue" d="M217.09,-168.08C224.66,-160.22 235.88,-148.57 245.01,-139.08"/>
<polygon fill="midnightblue" stroke="midnightblue" points="247.66,-141.38 252.07,-131.75 242.62,-136.53 247.66,-141.38"/>
</g>
</g>
</svg>
