<?xml version="1.0" encoding="UTF-8" standalone="no"?>
<!DOCTYPE svg PUBLIC "-//W3C//DTD SVG 1.1//EN"
 "http://www.w3.org/Graphics/SVG/1.1/DTD/svg11.dtd">
<!-- Generated by graphviz version 2.43.0 (0)
 -->
<!-- Title: include/emlabcpp/static_vector.h Pages: 1 -->
<svg width="503pt" height="207pt"
 viewBox="0.00 0.00 502.50 207.00" xmlns="http://www.w3.org/2000/svg" xmlns:xlink="http://www.w3.org/1999/xlink">
<g id="graph0" class="graph" transform="scale(1 1) rotate(0) translate(4 203)">
<title>include/emlabcpp/static_vector.h</title>
<polygon fill="white" stroke="transparent" points="-4,4 -4,-203 498.5,-203 498.5,4 -4,4"/>
<!-- Node1 -->
<g id="node1" class="node">
<title>Node1</title>
<g id="a_node1"><a xlink:title=" ">
<polygon fill="#bfbfbf" stroke="black" points="253.5,-168.5 253.5,-198.5 386.5,-198.5 386.5,-168.5 253.5,-168.5"/>
<text text-anchor="start" x="261.5" y="-186.5" font-family="Helvetica,sans-Serif" font-size="10.00">include/emlabcpp/static</text>
<text text-anchor="middle" x="320" y="-175.5" font-family="Helvetica,sans-Serif" font-size="10.00">_vector.h</text>
</a>
</g>
</g>
<!-- Node2 -->
<g id="node2" class="node">
<title>Node2</title>
<g id="a_node2"><a xlink:href="concepts_8h.html" target="_top" xlink:title=" ">
<polygon fill="white" stroke="black" points="88,-112.5 88,-131.5 208,-131.5 208,-112.5 88,-112.5"/>
<text text-anchor="middle" x="148" y="-119.5" font-family="Helvetica,sans-Serif" font-size="10.00">emlabcpp/concepts.h</text>
</a>
</g>
</g>
<!-- Node1&#45;&gt;Node2 -->
<g id="edge1" class="edge">
<title>Node1&#45;&gt;Node2</title>
<path fill="none" stroke="midnightblue" d="M279.24,-168.4C249.78,-158.21 210.41,-144.59 182.5,-134.93"/>
<polygon fill="midnightblue" stroke="midnightblue" points="183.37,-131.53 172.78,-131.57 181.08,-138.15 183.37,-131.53"/>
</g>
<!-- Node8 -->
<g id="node4" class="node">
<title>Node8</title>
<g id="a_node4"><a xlink:title=" ">
<polygon fill="white" stroke="#bfbfbf" points="115.5,-0.5 115.5,-19.5 184.5,-19.5 184.5,-0.5 115.5,-0.5"/>
<text text-anchor="middle" x="150" y="-7.5" font-family="Helvetica,sans-Serif" font-size="10.00">type_traits</text>
</a>
</g>
</g>
<!-- Node1&#45;&gt;Node8 -->
<g id="edge9" class="edge">
<title>Node1&#45;&gt;Node8</title>
<path fill="none" stroke="midnightblue" d="M297.13,-168.49C283.61,-159.36 266.87,-146.47 255,-132 231.05,-102.8 241.94,-84.35 217,-56 205.72,-43.18 190,-32.37 176.61,-24.56"/>
<polygon fill="midnightblue" stroke="midnightblue" points="178.25,-21.46 167.81,-19.64 174.83,-27.57 178.25,-21.46"/>
</g>
<!-- Node11 -->
<g id="node6" class="node">
<title>Node11</title>
<g id="a_node6"><a xlink:href="iterator_8h.html" target="_top" xlink:title=" ">
<polygon fill="white" stroke="black" points="264,-112.5 264,-131.5 376,-131.5 376,-112.5 264,-112.5"/>
<text text-anchor="middle" x="320" y="-119.5" font-family="Helvetica,sans-Serif" font-size="10.00">emlabcpp/iterator.h</text>
</a>
</g>
</g>
<!-- Node1&#45;&gt;Node11 -->
<g id="edge5" class="edge">
<title>Node1&#45;&gt;Node11</title>
<path fill="none" stroke="midnightblue" d="M320,-168.4C320,-160.47 320,-150.46 320,-141.86"/>
<polygon fill="midnightblue" stroke="midnightblue" points="323.5,-141.66 320,-131.66 316.5,-141.66 323.5,-141.66"/>
</g>
<!-- Node16 -->
<g id="node9" class="node">
<title>Node16</title>
<g id="a_node9"><a xlink:title=" ">
<polygon fill="white" stroke="#bfbfbf" points="394.5,-112.5 394.5,-131.5 431.5,-131.5 431.5,-112.5 394.5,-112.5"/>
<text text-anchor="middle" x="413" y="-119.5" font-family="Helvetica,sans-Serif" font-size="10.00">new</text>
</a>
</g>
</g>
<!-- Node1&#45;&gt;Node16 -->
<g id="edge8" class="edge">
<title>Node1&#45;&gt;Node16</title>
<path fill="none" stroke="midnightblue" d="M342.04,-168.4C356.81,-158.95 376.18,-146.56 390.95,-137.11"/>
<polygon fill="midnightblue" stroke="midnightblue" points="392.93,-140 399.47,-131.66 389.16,-134.1 392.93,-140"/>
</g>
<!-- Node17 -->
<g id="node10" class="node">
<title>Node17</title>
<g id="a_node10"><a xlink:title=" ">
<polygon fill="white" stroke="#bfbfbf" points="449.5,-112.5 449.5,-131.5 494.5,-131.5 494.5,-112.5 449.5,-112.5"/>
<text text-anchor="middle" x="472" y="-119.5" font-family="Helvetica,sans-Serif" font-size="10.00">utility</text>
</a>
</g>
</g>
<!-- Node1&#45;&gt;Node17 -->
<g id="edge10" class="edge">
<title>Node1&#45;&gt;Node17</title>
<path fill="none" stroke="midnightblue" d="M356.02,-168.4C381.64,-158.37 415.73,-145.03 440.31,-135.4"/>
<polygon fill="midnightblue" stroke="midnightblue" points="441.85,-138.56 449.88,-131.66 439.29,-132.04 441.85,-138.56"/>
</g>
<!-- Node3 -->
<g id="node3" class="node">
<title>Node3</title>
<g id="a_node3"><a xlink:href="types_2base_8h.html" target="_top" xlink:title=" ">
<polygon fill="white" stroke="red" points="0,-56.5 0,-75.5 130,-75.5 130,-56.5 0,-56.5"/>
<text text-anchor="middle" x="65" y="-63.5" font-family="Helvetica,sans-Serif" font-size="10.00">emlabcpp/types/base.h</text>
</a>
</g>
</g>
<!-- Node2&#45;&gt;Node3 -->
<g id="edge2" class="edge">
<title>Node2&#45;&gt;Node3</title>
<path fill="none" stroke="midnightblue" d="M134.66,-112.32C121.84,-103.98 102.22,-91.21 87.06,-81.35"/>
<polygon fill="midnightblue" stroke="midnightblue" points="88.59,-78.17 78.3,-75.65 84.78,-84.04 88.59,-78.17"/>
</g>
<!-- Node10 -->
<g id="node5" class="node">
<title>Node10</title>
<g id="a_node5"><a xlink:title=" ">
<polygon fill="white" stroke="#bfbfbf" points="148,-56.5 148,-75.5 208,-75.5 208,-56.5 148,-56.5"/>
<text text-anchor="middle" x="178" y="-63.5" font-family="Helvetica,sans-Serif" font-size="10.00">concepts</text>
</a>
</g>
</g>
<!-- Node2&#45;&gt;Node10 -->
<g id="edge4" class="edge">
<title>Node2&#45;&gt;Node10</title>
<path fill="none" stroke="midnightblue" d="M152.95,-112.08C157.1,-104.61 163.15,-93.72 168.27,-84.52"/>
<polygon fill="midnightblue" stroke="midnightblue" points="171.34,-86.19 173.14,-75.75 165.22,-82.79 171.34,-86.19"/>
</g>
<!-- Node3&#45;&gt;Node8 -->
<g id="edge3" class="edge">
<title>Node3&#45;&gt;Node8</title>
<path fill="none" stroke="midnightblue" d="M78.66,-56.32C91.92,-47.9 112.27,-34.97 127.85,-25.07"/>
<polygon fill="midnightblue" stroke="midnightblue" points="129.81,-27.97 136.38,-19.65 126.06,-22.06 129.81,-27.97"/>
</g>
<!-- Node12 -->
<g id="node7" class="node">
<title>Node12</title>
<g id="a_node7"><a xlink:href="view_8h.html" target="_top" xlink:title=" ">
<polygon fill="white" stroke="red" points="267.5,-56.5 267.5,-75.5 366.5,-75.5 366.5,-56.5 267.5,-56.5"/>
<text text-anchor="middle" x="317" y="-63.5" font-family="Helvetica,sans-Serif" font-size="10.00">emlabcpp/view.h</text>
</a>
</g>
</g>
<!-- Node11&#45;&gt;Node12 -->
<g id="edge6" class="edge">
<title>Node11&#45;&gt;Node12</title>
<path fill="none" stroke="midnightblue" d="M319.5,-112.08C319.11,-105.01 318.55,-94.86 318.05,-85.99"/>
<polygon fill="midnightblue" stroke="midnightblue" points="321.54,-85.54 317.49,-75.75 314.55,-85.93 321.54,-85.54"/>
</g>
<!-- Node15 -->
<g id="node8" class="node">
<title>Node15</title>
<g id="a_node8"><a xlink:title=" ">
<polygon fill="white" stroke="#bfbfbf" points="384.5,-56.5 384.5,-75.5 437.5,-75.5 437.5,-56.5 384.5,-56.5"/>
<text text-anchor="middle" x="411" y="-63.5" font-family="Helvetica,sans-Serif" font-size="10.00">iterator</text>
</a>
</g>
</g>
<!-- Node11&#45;&gt;Node15 -->
<g id="edge7" class="edge">
<title>Node11&#45;&gt;Node15</title>
<path fill="none" stroke="midnightblue" d="M334.62,-112.32C348.95,-103.82 371.01,-90.73 387.75,-80.8"/>
<polygon fill="midnightblue" stroke="midnightblue" points="389.6,-83.77 396.42,-75.65 386.03,-77.75 389.6,-83.77"/>
</g>
</g>
</svg>
