<?xml version="1.0" encoding="UTF-8" standalone="no"?>
<!DOCTYPE svg PUBLIC "-//W3C//DTD SVG 1.1//EN"
 "http://www.w3.org/Graphics/SVG/1.1/DTD/svg11.dtd">
<!-- Generated by graphviz version 2.43.0 (0)
 -->
<!-- Title: include/emlabcpp/experimental/cfg/store.h Pages: 1 -->
<svg width="509pt" height="218pt"
 viewBox="0.00 0.00 508.50 218.00" xmlns="http://www.w3.org/2000/svg" xmlns:xlink="http://www.w3.org/1999/xlink">
<g id="graph0" class="graph" transform="scale(1 1) rotate(0) translate(4 214)">
<title>include/emlabcpp/experimental/cfg/store.h</title>
<polygon fill="white" stroke="transparent" points="-4,4 -4,-214 504.5,-214 504.5,4 -4,4"/>
<!-- Node1 -->
<g id="node1" class="node">
<title>Node1</title>
<g id="a_node1"><a xlink:title=" ">
<polygon fill="#bfbfbf" stroke="black" points="260,-179.5 260,-209.5 431,-209.5 431,-179.5 260,-179.5"/>
<text text-anchor="start" x="268" y="-197.5" font-family="Helvetica,sans-Serif" font-size="10.00">include/emlabcpp/experimental</text>
<text text-anchor="middle" x="345.5" y="-186.5" font-family="Helvetica,sans-Serif" font-size="10.00">/cfg/store.h</text>
</a>
</g>
</g>
<!-- Node2 -->
<g id="node2" class="node">
<title>Node2</title>
<g id="a_node2"><a xlink:href="experimental_2cfg_2base_8h.html" target="_top" xlink:title=" ">
<polygon fill="white" stroke="black" points="0,-112.5 0,-142.5 133,-142.5 133,-112.5 0,-112.5"/>
<text text-anchor="start" x="8" y="-130.5" font-family="Helvetica,sans-Serif" font-size="10.00">emlabcpp/experimental</text>
<text text-anchor="middle" x="66.5" y="-119.5" font-family="Helvetica,sans-Serif" font-size="10.00">/cfg/base.h</text>
</a>
</g>
</g>
<!-- Node1&#45;&gt;Node2 -->
<g id="edge1" class="edge">
<title>Node1&#45;&gt;Node2</title>
<path fill="none" stroke="midnightblue" d="M285.3,-179.48C241.73,-169.32 182.69,-155.57 136.92,-144.91"/>
<polygon fill="midnightblue" stroke="midnightblue" points="137.6,-141.47 127.07,-142.61 136.01,-148.29 137.6,-141.47"/>
</g>
<!-- Node4 -->
<g id="node4" class="node">
<title>Node4</title>
<g id="a_node4"><a xlink:href="protocol_2handler_8h.html" target="_top" xlink:title=" ">
<polygon fill="white" stroke="black" points="182,-118 182,-137 337,-137 337,-118 182,-118"/>
<text text-anchor="middle" x="259.5" y="-125" font-family="Helvetica,sans-Serif" font-size="10.00">emlabcpp/protocol/handler.h</text>
</a>
</g>
</g>
<!-- Node1&#45;&gt;Node4 -->
<g id="edge3" class="edge">
<title>Node1&#45;&gt;Node4</title>
<path fill="none" stroke="midnightblue" d="M326.84,-179.4C312.77,-168.76 293.51,-154.2 279.19,-143.38"/>
<polygon fill="midnightblue" stroke="midnightblue" points="281.09,-140.43 271,-137.19 276.87,-146.02 281.09,-140.43"/>
</g>
<!-- Node11 -->
<g id="node7" class="node">
<title>Node11</title>
<g id="a_node7"><a xlink:title=" ">
<polygon fill="white" stroke="#bfbfbf" points="305,-0.5 305,-19.5 346,-19.5 346,-0.5 305,-0.5"/>
<text text-anchor="middle" x="325.5" y="-7.5" font-family="Helvetica,sans-Serif" font-size="10.00">tuple</text>
</a>
</g>
</g>
<!-- Node1&#45;&gt;Node11 -->
<g id="edge10" class="edge">
<title>Node1&#45;&gt;Node11</title>
<path fill="none" stroke="midnightblue" d="M361.99,-179.4C389.66,-154 439.91,-99.16 413.5,-56 401.01,-35.59 376.02,-24.06 355.85,-17.8"/>
<polygon fill="midnightblue" stroke="midnightblue" points="356.7,-14.4 346.12,-15.06 354.8,-21.14 356.7,-14.4"/>
</g>
<!-- Node35 -->
<g id="node9" class="node">
<title>Node35</title>
<g id="a_node9"><a xlink:title=" ">
<polygon fill="white" stroke="#bfbfbf" points="460.5,-118 460.5,-137 500.5,-137 500.5,-118 460.5,-118"/>
<text text-anchor="middle" x="480.5" y="-125" font-family="Helvetica,sans-Serif" font-size="10.00">span</text>
</a>
</g>
</g>
<!-- Node1&#45;&gt;Node35 -->
<g id="edge9" class="edge">
<title>Node1&#45;&gt;Node35</title>
<path fill="none" stroke="midnightblue" d="M374.79,-179.4C398.27,-168.09 430.94,-152.36 453.73,-141.39"/>
<polygon fill="midnightblue" stroke="midnightblue" points="455.34,-144.5 462.83,-137.01 452.3,-138.19 455.34,-144.5"/>
</g>
<!-- Node3 -->
<g id="node3" class="node">
<title>Node3</title>
<g id="a_node3"><a xlink:title=" ">
<polygon fill="white" stroke="#bfbfbf" points="10.5,-56.5 10.5,-75.5 60.5,-75.5 60.5,-56.5 10.5,-56.5"/>
<text text-anchor="middle" x="35.5" y="-63.5" font-family="Helvetica,sans-Serif" font-size="10.00">cstdint</text>
</a>
</g>
</g>
<!-- Node2&#45;&gt;Node3 -->
<g id="edge2" class="edge">
<title>Node2&#45;&gt;Node3</title>
<path fill="none" stroke="midnightblue" d="M59.15,-112.4C54.83,-104.11 49.33,-93.55 44.73,-84.71"/>
<polygon fill="midnightblue" stroke="midnightblue" points="47.74,-82.91 40.01,-75.66 41.53,-86.14 47.74,-82.91"/>
</g>
<!-- Node5 -->
<g id="node5" class="node">
<title>Node5</title>
<g id="a_node5"><a xlink:href="either_8h.html" target="_top" xlink:title=" ">
<polygon fill="white" stroke="red" points="116.5,-56.5 116.5,-75.5 220.5,-75.5 220.5,-56.5 116.5,-56.5"/>
<text text-anchor="middle" x="168.5" y="-63.5" font-family="Helvetica,sans-Serif" font-size="10.00">emlabcpp/either.h</text>
</a>
</g>
</g>
<!-- Node4&#45;&gt;Node5 -->
<g id="edge4" class="edge">
<title>Node4&#45;&gt;Node5</title>
<path fill="none" stroke="midnightblue" d="M246.46,-117.98C231.73,-108.34 207.53,-92.52 189.99,-81.05"/>
<polygon fill="midnightblue" stroke="midnightblue" points="191.8,-78.05 181.51,-75.51 187.97,-83.91 191.8,-78.05"/>
</g>
<!-- Node26 -->
<g id="node6" class="node">
<title>Node26</title>
<g id="a_node6"><a xlink:href="types_8h.html" target="_top" xlink:title=" ">
<polygon fill="white" stroke="red" points="76.5,-0.5 76.5,-19.5 180.5,-19.5 180.5,-0.5 76.5,-0.5"/>
<text text-anchor="middle" x="128.5" y="-7.5" font-family="Helvetica,sans-Serif" font-size="10.00">emlabcpp/types.h</text>
</a>
</g>
</g>
<!-- Node4&#45;&gt;Node26 -->
<g id="edge8" class="edge">
<title>Node4&#45;&gt;Node26</title>
<path fill="none" stroke="midnightblue" d="M181.86,-119.42C153.77,-112.67 124.75,-99.9 107.5,-76 97.14,-61.64 106.01,-41.92 115.2,-27.98"/>
<polygon fill="midnightblue" stroke="midnightblue" points="118.1,-29.93 121.08,-19.77 112.41,-25.86 118.1,-29.93"/>
</g>
<!-- Node41 -->
<g id="node8" class="node">
<title>Node41</title>
<g id="a_node8"><a xlink:href="converter_8h.html" target="_top" xlink:title=" ">
<polygon fill="white" stroke="red" points="239,-56.5 239,-75.5 404,-75.5 404,-56.5 239,-56.5"/>
<text text-anchor="middle" x="321.5" y="-63.5" font-family="Helvetica,sans-Serif" font-size="10.00">emlabcpp/protocol/converter.h</text>
</a>
</g>
</g>
<!-- Node4&#45;&gt;Node41 -->
<g id="edge7" class="edge">
<title>Node4&#45;&gt;Node41</title>
<path fill="none" stroke="midnightblue" d="M268.38,-117.98C277.96,-108.78 293.41,-93.96 305.19,-82.66"/>
<polygon fill="midnightblue" stroke="midnightblue" points="307.84,-84.96 312.63,-75.51 302.99,-79.91 307.84,-84.96"/>
</g>
<!-- Node5&#45;&gt;Node26 -->
<g id="edge5" class="edge">
<title>Node5&#45;&gt;Node26</title>
<path fill="none" stroke="midnightblue" d="M161.89,-56.08C156.24,-48.46 147.96,-37.26 141.05,-27.94"/>
<polygon fill="midnightblue" stroke="midnightblue" points="143.75,-25.7 134.98,-19.75 138.12,-29.87 143.75,-25.7"/>
</g>
<!-- Node5&#45;&gt;Node11 -->
<g id="edge6" class="edge">
<title>Node5&#45;&gt;Node11</title>
<path fill="none" stroke="midnightblue" d="M193.38,-56.44C220.91,-46.97 265.31,-31.7 294.94,-21.51"/>
<polygon fill="midnightblue" stroke="midnightblue" points="296.43,-24.7 304.75,-18.14 294.16,-18.08 296.43,-24.7"/>
</g>
</g>
</svg>
