<?xml version="1.0" encoding="UTF-8" standalone="no"?>
<!DOCTYPE svg PUBLIC "-//W3C//DTD SVG 1.1//EN"
 "http://www.w3.org/Graphics/SVG/1.1/DTD/svg11.dtd">
<!-- Generated by graphviz version 2.43.0 (0)
 -->
<!-- Title: include/emlabcpp/protocol/streams.h Pages: 1 -->
<svg width="598pt" height="319pt"
 viewBox="0.00 0.00 597.76 319.00" xmlns="http://www.w3.org/2000/svg" xmlns:xlink="http://www.w3.org/1999/xlink">
<g id="graph0" class="graph" transform="scale(1 1) rotate(0) translate(4 315)">
<title>include/emlabcpp/protocol/streams.h</title>
<polygon fill="white" stroke="transparent" points="-4,4 -4,-315 593.76,-315 593.76,4 -4,4"/>
<!-- Node1 -->
<g id="node1" class="node">
<title>Node1</title>
<g id="a_node1"><a xlink:title=" ">
<polygon fill="#bfbfbf" stroke="black" points="202.26,-280.5 202.26,-310.5 348.26,-310.5 348.26,-280.5 202.26,-280.5"/>
<text text-anchor="start" x="210.26" y="-298.5" font-family="Helvetica,sans-Serif" font-size="10.00">include/emlabcpp/protocol</text>
<text text-anchor="middle" x="275.26" y="-287.5" font-family="Helvetica,sans-Serif" font-size="10.00">/streams.h</text>
</a>
</g>
</g>
<!-- Node2 -->
<g id="node2" class="node">
<title>Node2</title>
<g id="a_node2"><a xlink:href="enum_8h.html" target="_top" xlink:title=" ">
<polygon fill="white" stroke="black" points="3.26,-168.5 3.26,-187.5 65.26,-187.5 65.26,-168.5 3.26,-168.5"/>
<text text-anchor="middle" x="34.26" y="-175.5" font-family="Helvetica,sans-Serif" font-size="10.00">../enum.h</text>
</a>
</g>
</g>
<!-- Node1&#45;&gt;Node2 -->
<g id="edge1" class="edge">
<title>Node1&#45;&gt;Node2</title>
<path fill="none" stroke="midnightblue" d="M212.33,-280.42C181.93,-272.2 145.57,-260.21 115.26,-244 90.58,-230.8 66.04,-209.71 50.55,-195.15"/>
<polygon fill="midnightblue" stroke="midnightblue" points="52.57,-192.23 42.94,-187.82 47.72,-197.27 52.57,-192.23"/>
</g>
<!-- Node4 -->
<g id="node4" class="node">
<title>Node4</title>
<g id="a_node4"><a xlink:href="range_8h.html" target="_top" xlink:title=" ">
<polygon fill="white" stroke="black" points="98.26,-112.5 98.26,-131.5 160.26,-131.5 160.26,-112.5 98.26,-112.5"/>
<text text-anchor="middle" x="129.26" y="-119.5" font-family="Helvetica,sans-Serif" font-size="10.00">../range.h</text>
</a>
</g>
</g>
<!-- Node1&#45;&gt;Node4 -->
<g id="edge3" class="edge">
<title>Node1&#45;&gt;Node4</title>
<path fill="none" stroke="midnightblue" d="M250.95,-280.38C222.24,-262.48 175.02,-228.95 148.26,-188 139.12,-174 134.27,-155.5 131.77,-141.82"/>
<polygon fill="midnightblue" stroke="midnightblue" points="135.18,-141 130.17,-131.66 128.27,-142.09 135.18,-141"/>
</g>
<!-- Node21 -->
<g id="node6" class="node">
<title>Node21</title>
<g id="a_node6"><a xlink:href="protocol_2base_8h.html" target="_top" xlink:title=" ">
<polygon fill="white" stroke="black" points="341.76,-112.5 341.76,-131.5 396.76,-131.5 396.76,-112.5 341.76,-112.5"/>
<text text-anchor="middle" x="369.26" y="-119.5" font-family="Helvetica,sans-Serif" font-size="10.00">./base.h</text>
</a>
</g>
</g>
<!-- Node1&#45;&gt;Node21 -->
<g id="edge5" class="edge">
<title>Node1&#45;&gt;Node21</title>
<path fill="none" stroke="midnightblue" d="M277.44,-280.44C280.08,-265.8 285.31,-242.48 294.26,-224 310.18,-191.12 337.31,-158.1 354.21,-139.15"/>
<polygon fill="midnightblue" stroke="midnightblue" points="356.84,-141.46 360.97,-131.7 351.65,-136.75 356.84,-141.46"/>
</g>
<!-- Node31 -->
<g id="node13" class="node">
<title>Node31</title>
<g id="a_node13"><a xlink:href="register__map_8h.html" target="_top" xlink:title=" ">
<polygon fill="white" stroke="black" points="303.26,-224.5 303.26,-243.5 399.26,-243.5 399.26,-224.5 303.26,-224.5"/>
<text text-anchor="middle" x="351.26" y="-231.5" font-family="Helvetica,sans-Serif" font-size="10.00">./register_map.h</text>
</a>
</g>
</g>
<!-- Node1&#45;&gt;Node31 -->
<g id="edge14" class="edge">
<title>Node1&#45;&gt;Node31</title>
<path fill="none" stroke="midnightblue" d="M293.27,-280.4C305,-271.22 320.28,-259.26 332.21,-249.92"/>
<polygon fill="midnightblue" stroke="midnightblue" points="334.49,-252.58 340.2,-243.66 330.17,-247.07 334.49,-252.58"/>
</g>
<!-- Node50 -->
<g id="node16" class="node">
<title>Node50</title>
<g id="a_node16"><a xlink:title=" ">
<polygon fill="white" stroke="#bfbfbf" points="417.26,-224.5 417.26,-243.5 473.26,-243.5 473.26,-224.5 417.26,-224.5"/>
<text text-anchor="middle" x="445.26" y="-231.5" font-family="Helvetica,sans-Serif" font-size="10.00">iomanip</text>
</a>
</g>
</g>
<!-- Node1&#45;&gt;Node50 -->
<g id="edge23" class="edge">
<title>Node1&#45;&gt;Node50</title>
<path fill="none" stroke="midnightblue" d="M315.55,-280.4C344.58,-270.24 383.34,-256.67 410.91,-247.02"/>
<polygon fill="midnightblue" stroke="midnightblue" points="412.24,-250.26 420.52,-243.66 409.93,-243.66 412.24,-250.26"/>
</g>
<!-- Node3 -->
<g id="node3" class="node">
<title>Node3</title>
<g id="a_node3"><a xlink:title=" ">
<polygon fill="white" stroke="#bfbfbf" points="158.76,-0.5 158.76,-19.5 227.76,-19.5 227.76,-0.5 158.76,-0.5"/>
<text text-anchor="middle" x="193.26" y="-7.5" font-family="Helvetica,sans-Serif" font-size="10.00">type_traits</text>
</a>
</g>
</g>
<!-- Node2&#45;&gt;Node3 -->
<g id="edge2" class="edge">
<title>Node2&#45;&gt;Node3</title>
<path fill="none" stroke="midnightblue" d="M28.47,-168.3C14.94,-146.79 -15.63,-90.35 11.26,-56 27.99,-34.63 100.16,-22.01 148.43,-15.8"/>
<polygon fill="midnightblue" stroke="midnightblue" points="149.15,-19.24 158.64,-14.54 148.29,-12.29 149.15,-19.24"/>
</g>
<!-- Node5 -->
<g id="node5" class="node">
<title>Node5</title>
<g id="a_node5"><a xlink:href="numeric_8h.html" target="_top" xlink:title=" ">
<polygon fill="white" stroke="red" points="20.26,-56.5 20.26,-75.5 136.26,-75.5 136.26,-56.5 20.26,-56.5"/>
<text text-anchor="middle" x="78.26" y="-63.5" font-family="Helvetica,sans-Serif" font-size="10.00">./iterators/numeric.h</text>
</a>
</g>
</g>
<!-- Node4&#45;&gt;Node5 -->
<g id="edge4" class="edge">
<title>Node4&#45;&gt;Node5</title>
<path fill="none" stroke="midnightblue" d="M120.84,-112.08C113.41,-104.22 102.41,-92.57 93.45,-83.08"/>
<polygon fill="midnightblue" stroke="midnightblue" points="95.94,-80.62 86.53,-75.75 90.85,-85.42 95.94,-80.62"/>
</g>
<!-- Node21&#45;&gt;Node3 -->
<g id="edge12" class="edge">
<title>Node21&#45;&gt;Node3</title>
<path fill="none" stroke="midnightblue" d="M363.24,-112.24C353.4,-98.52 332.62,-71.9 309.26,-56 287.17,-40.96 259.35,-29.95 236.49,-22.59"/>
<polygon fill="midnightblue" stroke="midnightblue" points="237.29,-19.17 226.7,-19.55 235.22,-25.86 237.29,-19.17"/>
</g>
<!-- Node22 -->
<g id="node7" class="node">
<title>Node22</title>
<g id="a_node7"><a xlink:href="bounded_8h.html" target="_top" xlink:title=" ">
<polygon fill="white" stroke="red" points="154.76,-56.5 154.76,-75.5 231.76,-75.5 231.76,-56.5 154.76,-56.5"/>
<text text-anchor="middle" x="193.26" y="-63.5" font-family="Helvetica,sans-Serif" font-size="10.00">../bounded.h</text>
</a>
</g>
</g>
<!-- Node21&#45;&gt;Node22 -->
<g id="edge6" class="edge">
<title>Node21&#45;&gt;Node22</title>
<path fill="none" stroke="midnightblue" d="M341.37,-112.44C311.51,-103.28 263.95,-88.69 230.81,-78.52"/>
<polygon fill="midnightblue" stroke="midnightblue" points="231.61,-75.1 221.02,-75.52 229.55,-81.8 231.61,-75.1"/>
</g>
<!-- Node24 -->
<g id="node8" class="node">
<title>Node24</title>
<g id="a_node8"><a xlink:href="protocol_2error_8h.html" target="_top" xlink:title=" ">
<polygon fill="white" stroke="red" points="466.26,-56.5 466.26,-75.5 520.26,-75.5 520.26,-56.5 466.26,-56.5"/>
<text text-anchor="middle" x="493.26" y="-63.5" font-family="Helvetica,sans-Serif" font-size="10.00">./error.h</text>
</a>
</g>
</g>
<!-- Node21&#45;&gt;Node24 -->
<g id="edge8" class="edge">
<title>Node21&#45;&gt;Node24</title>
<path fill="none" stroke="midnightblue" d="M388.91,-112.44C409.23,-103.6 441.16,-89.69 464.36,-79.59"/>
<polygon fill="midnightblue" stroke="midnightblue" points="465.93,-82.72 473.71,-75.52 463.14,-76.3 465.93,-82.72"/>
</g>
<!-- Node29 -->
<g id="node9" class="node">
<title>Node29</title>
<g id="a_node9"><a xlink:title=" ">
<polygon fill="white" stroke="#bfbfbf" points="356.76,-56.5 356.76,-75.5 385.76,-75.5 385.76,-56.5 356.76,-56.5"/>
<text text-anchor="middle" x="371.26" y="-63.5" font-family="Helvetica,sans-Serif" font-size="10.00">bit</text>
</a>
</g>
</g>
<!-- Node21&#45;&gt;Node29 -->
<g id="edge9" class="edge">
<title>Node21&#45;&gt;Node29</title>
<path fill="none" stroke="midnightblue" d="M369.59,-112.08C369.85,-105.01 370.23,-94.86 370.56,-85.99"/>
<polygon fill="midnightblue" stroke="midnightblue" points="374.06,-85.87 370.94,-75.75 367.07,-85.61 374.06,-85.87"/>
</g>
<!-- Node30 -->
<g id="node10" class="node">
<title>Node30</title>
<g id="a_node10"><a xlink:title=" ">
<polygon fill="white" stroke="#bfbfbf" points="404.26,-56.5 404.26,-75.5 448.26,-75.5 448.26,-56.5 404.26,-56.5"/>
<text text-anchor="middle" x="426.26" y="-63.5" font-family="Helvetica,sans-Serif" font-size="10.00">bitset</text>
</a>
</g>
</g>
<!-- Node21&#45;&gt;Node30 -->
<g id="edge10" class="edge">
<title>Node21&#45;&gt;Node30</title>
<path fill="none" stroke="midnightblue" d="M378.42,-112.32C386.76,-104.42 399.29,-92.55 409.44,-82.94"/>
<polygon fill="midnightblue" stroke="midnightblue" points="412.08,-85.25 416.94,-75.83 407.27,-80.17 412.08,-85.25"/>
</g>
<!-- Node27 -->
<g id="node11" class="node">
<title>Node27</title>
<g id="a_node11"><a xlink:title=" ">
<polygon fill="white" stroke="#bfbfbf" points="250.26,-56.5 250.26,-75.5 300.26,-75.5 300.26,-56.5 250.26,-56.5"/>
<text text-anchor="middle" x="275.26" y="-63.5" font-family="Helvetica,sans-Serif" font-size="10.00">cstring</text>
</a>
</g>
</g>
<!-- Node21&#45;&gt;Node27 -->
<g id="edge11" class="edge">
<title>Node21&#45;&gt;Node27</title>
<path fill="none" stroke="midnightblue" d="M354.16,-112.32C339.36,-103.82 316.57,-90.73 299.28,-80.8"/>
<polygon fill="midnightblue" stroke="midnightblue" points="300.74,-77.6 290.33,-75.65 297.25,-83.67 300.74,-77.6"/>
</g>
<!-- Node18 -->
<g id="node12" class="node">
<title>Node18</title>
<g id="a_node12"><a xlink:title=" ">
<polygon fill="white" stroke="#bfbfbf" points="538.76,-56.5 538.76,-75.5 589.76,-75.5 589.76,-56.5 538.76,-56.5"/>
<text text-anchor="middle" x="564.26" y="-63.5" font-family="Helvetica,sans-Serif" font-size="10.00">variant</text>
</a>
</g>
</g>
<!-- Node21&#45;&gt;Node18 -->
<g id="edge13" class="edge">
<title>Node21&#45;&gt;Node18</title>
<path fill="none" stroke="midnightblue" d="M396.79,-113.38C431.33,-103.81 490.65,-87.38 528.63,-76.87"/>
<polygon fill="midnightblue" stroke="midnightblue" points="530.03,-80.11 538.74,-74.07 528.17,-73.36 530.03,-80.11"/>
</g>
<!-- Node22&#45;&gt;Node3 -->
<g id="edge7" class="edge">
<title>Node22&#45;&gt;Node3</title>
<path fill="none" stroke="midnightblue" d="M193.26,-56.08C193.26,-49.01 193.26,-38.86 193.26,-29.99"/>
<polygon fill="midnightblue" stroke="midnightblue" points="196.76,-29.75 193.26,-19.75 189.76,-29.75 196.76,-29.75"/>
</g>
<!-- Node31&#45;&gt;Node21 -->
<g id="edge18" class="edge">
<title>Node31&#45;&gt;Node21</title>
<path fill="none" stroke="midnightblue" d="M352.67,-224.37C355.58,-206.62 362.28,-165.67 366.22,-141.6"/>
<polygon fill="midnightblue" stroke="midnightblue" points="369.69,-142.03 367.86,-131.59 362.79,-140.89 369.69,-142.03"/>
</g>
<!-- Node32 -->
<g id="node14" class="node">
<title>Node32</title>
<g id="a_node14"><a xlink:href="algorithm_8h.html" target="_top" xlink:title=" ">
<polygon fill="white" stroke="red" points="157.26,-168.5 157.26,-187.5 239.26,-187.5 239.26,-168.5 157.26,-168.5"/>
<text text-anchor="middle" x="198.26" y="-175.5" font-family="Helvetica,sans-Serif" font-size="10.00">../algorithm.h</text>
</a>
</g>
</g>
<!-- Node31&#45;&gt;Node32 -->
<g id="edge15" class="edge">
<title>Node31&#45;&gt;Node32</title>
<path fill="none" stroke="midnightblue" d="M327.02,-224.44C301.39,-215.4 260.78,-201.06 232.02,-190.92"/>
<polygon fill="midnightblue" stroke="midnightblue" points="232.99,-187.54 222.39,-187.52 230.66,-194.15 232.99,-187.54"/>
</g>
<!-- Node38 -->
<g id="node15" class="node">
<title>Node38</title>
<g id="a_node15"><a xlink:href="traits_8h.html" target="_top" xlink:title=" ">
<polygon fill="white" stroke="red" points="432.76,-168.5 432.76,-187.5 489.76,-187.5 489.76,-168.5 432.76,-168.5"/>
<text text-anchor="middle" x="461.26" y="-175.5" font-family="Helvetica,sans-Serif" font-size="10.00">./traits.h</text>
</a>
</g>
</g>
<!-- Node31&#45;&gt;Node38 -->
<g id="edge19" class="edge">
<title>Node31&#45;&gt;Node38</title>
<path fill="none" stroke="midnightblue" d="M368.93,-224.32C386.66,-215.62 414.16,-202.12 434.55,-192.11"/>
<polygon fill="midnightblue" stroke="midnightblue" points="436.2,-195.2 443.63,-187.65 433.11,-188.92 436.2,-195.2"/>
</g>
<!-- Node32&#45;&gt;Node4 -->
<g id="edge17" class="edge">
<title>Node32&#45;&gt;Node4</title>
<path fill="none" stroke="midnightblue" d="M187.18,-168.32C176.78,-160.18 161,-147.84 148.54,-138.09"/>
<polygon fill="midnightblue" stroke="midnightblue" points="150.58,-135.24 140.55,-131.83 146.27,-140.75 150.58,-135.24"/>
</g>
<!-- Node32&#45;&gt;Node22 -->
<g id="edge16" class="edge">
<title>Node32&#45;&gt;Node22</title>
<path fill="none" stroke="midnightblue" d="M197.87,-168.37C197.06,-150.62 195.2,-109.67 194.11,-85.6"/>
<polygon fill="midnightblue" stroke="midnightblue" points="197.6,-85.42 193.65,-75.59 190.61,-85.74 197.6,-85.42"/>
</g>
<!-- Node38&#45;&gt;Node21 -->
<g id="edge20" class="edge">
<title>Node38&#45;&gt;Node21</title>
<path fill="none" stroke="midnightblue" d="M446.48,-168.32C431.99,-159.82 409.69,-146.73 392.77,-136.8"/>
<polygon fill="midnightblue" stroke="midnightblue" points="394.4,-133.7 384.01,-131.65 390.86,-139.74 394.4,-133.7"/>
</g>
<!-- Node38&#45;&gt;Node24 -->
<g id="edge21" class="edge">
<title>Node38&#45;&gt;Node24</title>
<path fill="none" stroke="midnightblue" d="M463.77,-168.37C468.96,-150.54 480.96,-109.3 487.95,-85.27"/>
<polygon fill="midnightblue" stroke="midnightblue" points="491.33,-86.17 490.76,-75.59 484.61,-84.22 491.33,-86.17"/>
</g>
<!-- Node38&#45;&gt;Node18 -->
<g id="edge22" class="edge">
<title>Node38&#45;&gt;Node18</title>
<path fill="none" stroke="midnightblue" d="M469.34,-168.37C486.57,-149.97 527.11,-106.67 549.23,-83.05"/>
<polygon fill="midnightblue" stroke="midnightblue" points="551.94,-85.28 556.22,-75.59 546.83,-80.5 551.94,-85.28"/>
</g>
</g>
</svg>
