<?xml version="1.0" encoding="UTF-8" standalone="no"?>
<!DOCTYPE svg PUBLIC "-//W3C//DTD SVG 1.1//EN"
 "http://www.w3.org/Graphics/SVG/1.1/DTD/svg11.dtd">
<!-- Generated by graphviz version 2.43.0 (0)
 -->
<!-- Title: include/emlabcpp/protocol/streams.h Pages: 1 -->
<svg width="654pt" height="330pt"
 viewBox="0.00 0.00 654.00 330.00" xmlns="http://www.w3.org/2000/svg" xmlns:xlink="http://www.w3.org/1999/xlink">
<g id="graph0" class="graph" transform="scale(1 1) rotate(0) translate(4 326)">
<title>include/emlabcpp/protocol/streams.h</title>
<polygon fill="white" stroke="transparent" points="-4,4 -4,-326 650,-326 650,4 -4,4"/>
<!-- Node1 -->
<g id="node1" class="node">
<title>Node1</title>
<g id="a_node1"><a xlink:title=" ">
<polygon fill="#bfbfbf" stroke="black" points="269,-291.5 269,-321.5 415,-321.5 415,-291.5 269,-291.5"/>
<text text-anchor="start" x="277" y="-309.5" font-family="Helvetica,sans-Serif" font-size="10.00">include/emlabcpp/protocol</text>
<text text-anchor="middle" x="342" y="-298.5" font-family="Helvetica,sans-Serif" font-size="10.00">/streams.h</text>
</a>
</g>
</g>
<!-- Node2 -->
<g id="node2" class="node">
<title>Node2</title>
<g id="a_node2"><a xlink:href="enum_8h.html" target="_top" xlink:title=" ">
<polygon fill="white" stroke="black" points="0,-112.5 0,-131.5 104,-131.5 104,-112.5 0,-112.5"/>
<text text-anchor="middle" x="52" y="-119.5" font-family="Helvetica,sans-Serif" font-size="10.00">emlabcpp/enum.h</text>
</a>
</g>
</g>
<!-- Node1&#45;&gt;Node2 -->
<g id="edge1" class="edge">
<title>Node1&#45;&gt;Node2</title>
<path fill="none" stroke="midnightblue" d="M314.04,-291.41C295.12,-281.65 269.73,-268.11 248,-255 182.22,-215.31 107.8,-163.06 72.57,-137.85"/>
<polygon fill="midnightblue" stroke="midnightblue" points="74.27,-134.76 64.11,-131.78 70.19,-140.45 74.27,-134.76"/>
</g>
<!-- Node4 -->
<g id="node4" class="node">
<title>Node4</title>
<g id="a_node4"><a xlink:href="numeric_8h.html" target="_top" xlink:title=" ">
<polygon fill="white" stroke="black" points="434.5,-224.5 434.5,-254.5 543.5,-254.5 543.5,-224.5 434.5,-224.5"/>
<text text-anchor="start" x="442.5" y="-242.5" font-family="Helvetica,sans-Serif" font-size="10.00">emlabcpp/iterators</text>
<text text-anchor="middle" x="489" y="-231.5" font-family="Helvetica,sans-Serif" font-size="10.00">/numeric.h</text>
</a>
</g>
</g>
<!-- Node1&#45;&gt;Node4 -->
<g id="edge3" class="edge">
<title>Node1&#45;&gt;Node4</title>
<path fill="none" stroke="midnightblue" d="M373.9,-291.4C395.57,-281.81 424.43,-269.05 447.84,-258.7"/>
<polygon fill="midnightblue" stroke="midnightblue" points="449.44,-261.82 457.17,-254.58 446.6,-255.42 449.44,-261.82"/>
</g>
<!-- Node19 -->
<g id="node6" class="node">
<title>Node19</title>
<g id="a_node6"><a xlink:href="protocol_2base_8h.html" target="_top" xlink:title=" ">
<polygon fill="white" stroke="black" points="264.5,-112.5 264.5,-131.5 407.5,-131.5 407.5,-112.5 264.5,-112.5"/>
<text text-anchor="middle" x="336" y="-119.5" font-family="Helvetica,sans-Serif" font-size="10.00">emlabcpp/protocol/base.h</text>
</a>
</g>
</g>
<!-- Node1&#45;&gt;Node19 -->
<g id="edge5" class="edge">
<title>Node1&#45;&gt;Node19</title>
<path fill="none" stroke="midnightblue" d="M301.98,-291.38C285.61,-283.4 268.34,-271.62 259,-255 234.98,-212.27 285.74,-162.46 315.85,-138.05"/>
<polygon fill="midnightblue" stroke="midnightblue" points="318.37,-140.52 324.07,-131.59 314.05,-135.02 318.37,-140.52"/>
</g>
<!-- Node29 -->
<g id="node13" class="node">
<title>Node29</title>
<g id="a_node13"><a xlink:href="register__map_8h.html" target="_top" xlink:title=" ">
<polygon fill="white" stroke="black" points="268,-224.5 268,-254.5 416,-254.5 416,-224.5 268,-224.5"/>
<text text-anchor="start" x="276" y="-242.5" font-family="Helvetica,sans-Serif" font-size="10.00">emlabcpp/protocol/register</text>
<text text-anchor="middle" x="342" y="-231.5" font-family="Helvetica,sans-Serif" font-size="10.00">_map.h</text>
</a>
</g>
</g>
<!-- Node1&#45;&gt;Node29 -->
<g id="edge14" class="edge">
<title>Node1&#45;&gt;Node29</title>
<path fill="none" stroke="midnightblue" d="M342,-291.4C342,-283.64 342,-273.81 342,-264.86"/>
<polygon fill="midnightblue" stroke="midnightblue" points="345.5,-264.58 342,-254.58 338.5,-264.58 345.5,-264.58"/>
</g>
<!-- Node50 -->
<g id="node16" class="node">
<title>Node50</title>
<g id="a_node16"><a xlink:title=" ">
<polygon fill="white" stroke="#bfbfbf" points="562,-230 562,-249 618,-249 618,-230 562,-230"/>
<text text-anchor="middle" x="590" y="-237" font-family="Helvetica,sans-Serif" font-size="10.00">iomanip</text>
</a>
</g>
</g>
<!-- Node1&#45;&gt;Node50 -->
<g id="edge22" class="edge">
<title>Node1&#45;&gt;Node50</title>
<path fill="none" stroke="midnightblue" d="M411.56,-291.4C453.01,-282.36 506.46,-269.61 553,-255 555.28,-254.29 557.61,-253.5 559.95,-252.67"/>
<polygon fill="midnightblue" stroke="midnightblue" points="561.29,-255.91 569.44,-249.14 558.84,-249.35 561.29,-255.91"/>
</g>
<!-- Node3 -->
<g id="node3" class="node">
<title>Node3</title>
<g id="a_node3"><a xlink:title=" ">
<polygon fill="white" stroke="#bfbfbf" points="105.5,-0.5 105.5,-19.5 174.5,-19.5 174.5,-0.5 105.5,-0.5"/>
<text text-anchor="middle" x="140" y="-7.5" font-family="Helvetica,sans-Serif" font-size="10.00">type_traits</text>
</a>
</g>
</g>
<!-- Node2&#45;&gt;Node3 -->
<g id="edge2" class="edge">
<title>Node2&#45;&gt;Node3</title>
<path fill="none" stroke="midnightblue" d="M52.65,-112.15C54.02,-98.79 58.24,-73.18 71,-56 81.04,-42.47 96.46,-31.86 110.17,-24.35"/>
<polygon fill="midnightblue" stroke="midnightblue" points="112.02,-27.34 119.3,-19.65 108.81,-21.12 112.02,-27.34"/>
</g>
<!-- Node5 -->
<g id="node5" class="node">
<title>Node5</title>
<g id="a_node5"><a xlink:href="iterator_8h.html" target="_top" xlink:title=" ">
<polygon fill="white" stroke="red" points="528,-168.5 528,-187.5 640,-187.5 640,-168.5 528,-168.5"/>
<text text-anchor="middle" x="584" y="-175.5" font-family="Helvetica,sans-Serif" font-size="10.00">emlabcpp/iterator.h</text>
</a>
</g>
</g>
<!-- Node4&#45;&gt;Node5 -->
<g id="edge4" class="edge">
<title>Node4&#45;&gt;Node5</title>
<path fill="none" stroke="midnightblue" d="M511.51,-224.4C526.6,-214.95 546.39,-202.56 561.47,-193.11"/>
<polygon fill="midnightblue" stroke="midnightblue" points="563.56,-195.93 570.18,-187.66 559.84,-190 563.56,-195.93"/>
</g>
<!-- Node19&#45;&gt;Node3 -->
<g id="edge12" class="edge">
<title>Node19&#45;&gt;Node3</title>
<path fill="none" stroke="midnightblue" d="M318.28,-112.39C300.37,-103.58 272,-89.34 248,-76 217.84,-59.24 183.86,-38.47 162.21,-24.98"/>
<polygon fill="midnightblue" stroke="midnightblue" points="163.8,-21.85 153.46,-19.51 160.09,-27.78 163.8,-21.85"/>
</g>
<!-- Node20 -->
<g id="node7" class="node">
<title>Node20</title>
<g id="a_node7"><a xlink:href="bounded_8h.html" target="_top" xlink:title=" ">
<polygon fill="white" stroke="red" points="80.5,-56.5 80.5,-75.5 199.5,-75.5 199.5,-56.5 80.5,-56.5"/>
<text text-anchor="middle" x="140" y="-63.5" font-family="Helvetica,sans-Serif" font-size="10.00">emlabcpp/bounded.h</text>
</a>
</g>
</g>
<!-- Node19&#45;&gt;Node20 -->
<g id="edge6" class="edge">
<title>Node19&#45;&gt;Node20</title>
<path fill="none" stroke="midnightblue" d="M304.94,-112.44C271.4,-103.2 217.8,-88.44 180.86,-78.26"/>
<polygon fill="midnightblue" stroke="midnightblue" points="181.48,-74.8 170.91,-75.52 179.62,-81.55 181.48,-74.8"/>
</g>
<!-- Node24 -->
<g id="node8" class="node">
<title>Node24</title>
<g id="a_node8"><a xlink:href="protocol_2error_8h.html" target="_top" xlink:title=" ">
<polygon fill="white" stroke="red" points="504,-56.5 504,-75.5 646,-75.5 646,-56.5 504,-56.5"/>
<text text-anchor="middle" x="575" y="-63.5" font-family="Helvetica,sans-Serif" font-size="10.00">emlabcpp/protocol/error.h</text>
</a>
</g>
</g>
<!-- Node19&#45;&gt;Node24 -->
<g id="edge8" class="edge">
<title>Node19&#45;&gt;Node24</title>
<path fill="none" stroke="midnightblue" d="M373.87,-112.44C415.48,-103.04 482.37,-87.93 527.47,-77.74"/>
<polygon fill="midnightblue" stroke="midnightblue" points="528.32,-81.13 537.31,-75.52 526.78,-74.31 528.32,-81.13"/>
</g>
<!-- Node26 -->
<g id="node9" class="node">
<title>Node26</title>
<g id="a_node9"><a xlink:title=" ">
<polygon fill="white" stroke="#bfbfbf" points="256.5,-56.5 256.5,-75.5 285.5,-75.5 285.5,-56.5 256.5,-56.5"/>
<text text-anchor="middle" x="271" y="-63.5" font-family="Helvetica,sans-Serif" font-size="10.00">bit</text>
</a>
</g>
</g>
<!-- Node19&#45;&gt;Node26 -->
<g id="edge9" class="edge">
<title>Node19&#45;&gt;Node26</title>
<path fill="none" stroke="midnightblue" d="M325.56,-112.32C315.85,-104.26 301.18,-92.08 289.5,-82.37"/>
<polygon fill="midnightblue" stroke="midnightblue" points="291.56,-79.53 281.63,-75.83 287.09,-84.92 291.56,-79.53"/>
</g>
<!-- Node27 -->
<g id="node10" class="node">
<title>Node27</title>
<g id="a_node10"><a xlink:title=" ">
<polygon fill="white" stroke="#bfbfbf" points="304,-56.5 304,-75.5 348,-75.5 348,-56.5 304,-56.5"/>
<text text-anchor="middle" x="326" y="-63.5" font-family="Helvetica,sans-Serif" font-size="10.00">bitset</text>
</a>
</g>
</g>
<!-- Node19&#45;&gt;Node27 -->
<g id="edge10" class="edge">
<title>Node19&#45;&gt;Node27</title>
<path fill="none" stroke="midnightblue" d="M334.35,-112.08C333.02,-104.93 331.12,-94.64 329.46,-85.69"/>
<polygon fill="midnightblue" stroke="midnightblue" points="332.88,-84.95 327.62,-75.75 326,-86.22 332.88,-84.95"/>
</g>
<!-- Node28 -->
<g id="node11" class="node">
<title>Node28</title>
<g id="a_node11"><a xlink:title=" ">
<polygon fill="white" stroke="#bfbfbf" points="366,-56.5 366,-75.5 416,-75.5 416,-56.5 366,-56.5"/>
<text text-anchor="middle" x="391" y="-63.5" font-family="Helvetica,sans-Serif" font-size="10.00">cstring</text>
</a>
</g>
</g>
<!-- Node19&#45;&gt;Node28 -->
<g id="edge11" class="edge">
<title>Node19&#45;&gt;Node28</title>
<path fill="none" stroke="midnightblue" d="M345.08,-112.08C353.17,-104.14 365.2,-92.34 374.91,-82.8"/>
<polygon fill="midnightblue" stroke="midnightblue" points="377.4,-85.25 382.09,-75.75 372.5,-80.26 377.4,-85.25"/>
</g>
<!-- Node17 -->
<g id="node12" class="node">
<title>Node17</title>
<g id="a_node12"><a xlink:title=" ">
<polygon fill="white" stroke="#bfbfbf" points="434.5,-56.5 434.5,-75.5 485.5,-75.5 485.5,-56.5 434.5,-56.5"/>
<text text-anchor="middle" x="460" y="-63.5" font-family="Helvetica,sans-Serif" font-size="10.00">variant</text>
</a>
</g>
</g>
<!-- Node19&#45;&gt;Node17 -->
<g id="edge13" class="edge">
<title>Node19&#45;&gt;Node17</title>
<path fill="none" stroke="midnightblue" d="M355.65,-112.44C375.96,-103.6 407.9,-89.69 431.1,-79.59"/>
<polygon fill="midnightblue" stroke="midnightblue" points="432.67,-82.72 440.44,-75.52 429.88,-76.3 432.67,-82.72"/>
</g>
<!-- Node20&#45;&gt;Node3 -->
<g id="edge7" class="edge">
<title>Node20&#45;&gt;Node3</title>
<path fill="none" stroke="midnightblue" d="M140,-56.08C140,-49.01 140,-38.86 140,-29.99"/>
<polygon fill="midnightblue" stroke="midnightblue" points="143.5,-29.75 140,-19.75 136.5,-29.75 143.5,-29.75"/>
</g>
<!-- Node29&#45;&gt;Node19 -->
<g id="edge17" class="edge">
<title>Node29&#45;&gt;Node19</title>
<path fill="none" stroke="midnightblue" d="M341.26,-224.34C340.19,-203.62 338.18,-165.02 336.98,-141.9"/>
<polygon fill="midnightblue" stroke="midnightblue" points="340.46,-141.47 336.45,-131.67 333.47,-141.84 340.46,-141.47"/>
</g>
<!-- Node30 -->
<g id="node14" class="node">
<title>Node30</title>
<g id="a_node14"><a xlink:href="algorithm_8h.html" target="_top" xlink:title=" ">
<polygon fill="white" stroke="red" points="122,-112.5 122,-131.5 246,-131.5 246,-112.5 122,-112.5"/>
<text text-anchor="middle" x="184" y="-119.5" font-family="Helvetica,sans-Serif" font-size="10.00">emlabcpp/algorithm.h</text>
</a>
</g>
</g>
<!-- Node29&#45;&gt;Node30 -->
<g id="edge15" class="edge">
<title>Node29&#45;&gt;Node30</title>
<path fill="none" stroke="midnightblue" d="M322.63,-224.34C292.48,-202.3 234.62,-160.01 204.06,-137.66"/>
<polygon fill="midnightblue" stroke="midnightblue" points="206,-134.75 195.86,-131.67 201.87,-140.4 206,-134.75"/>
</g>
<!-- Node34 -->
<g id="node15" class="node">
<title>Node34</title>
<g id="a_node15"><a xlink:href="traits_8h.html" target="_top" xlink:title=" ">
<polygon fill="white" stroke="red" points="364.5,-168.5 364.5,-187.5 509.5,-187.5 509.5,-168.5 364.5,-168.5"/>
<text text-anchor="middle" x="437" y="-175.5" font-family="Helvetica,sans-Serif" font-size="10.00">emlabcpp/protocol/traits.h</text>
</a>
</g>
</g>
<!-- Node29&#45;&gt;Node34 -->
<g id="edge18" class="edge">
<title>Node29&#45;&gt;Node34</title>
<path fill="none" stroke="midnightblue" d="M364.51,-224.4C379.6,-214.95 399.39,-202.56 414.47,-193.11"/>
<polygon fill="midnightblue" stroke="midnightblue" points="416.56,-195.93 423.18,-187.66 412.84,-190 416.56,-195.93"/>
</g>
<!-- Node30&#45;&gt;Node20 -->
<g id="edge16" class="edge">
<title>Node30&#45;&gt;Node20</title>
<path fill="none" stroke="midnightblue" d="M176.73,-112.08C170.46,-104.38 161.21,-93.03 153.57,-83.65"/>
<polygon fill="midnightblue" stroke="midnightblue" points="156.16,-81.29 147.13,-75.75 150.73,-85.71 156.16,-81.29"/>
</g>
<!-- Node34&#45;&gt;Node19 -->
<g id="edge19" class="edge">
<title>Node34&#45;&gt;Node19</title>
<path fill="none" stroke="midnightblue" d="M420.77,-168.32C404.65,-159.7 379.7,-146.36 361.04,-136.39"/>
<polygon fill="midnightblue" stroke="midnightblue" points="362.66,-133.28 352.19,-131.65 359.36,-139.46 362.66,-133.28"/>
</g>
<!-- Node34&#45;&gt;Node24 -->
<g id="edge20" class="edge">
<title>Node34&#45;&gt;Node24</title>
<path fill="none" stroke="midnightblue" d="M447.83,-168.37C471.31,-149.65 527.14,-105.15 556.39,-81.83"/>
<polygon fill="midnightblue" stroke="midnightblue" points="558.58,-84.56 564.22,-75.59 554.22,-79.09 558.58,-84.56"/>
</g>
<!-- Node34&#45;&gt;Node17 -->
<g id="edge21" class="edge">
<title>Node34&#45;&gt;Node17</title>
<path fill="none" stroke="midnightblue" d="M438.8,-168.37C442.52,-150.62 451.08,-109.67 456.11,-85.6"/>
<polygon fill="midnightblue" stroke="midnightblue" points="459.58,-86.1 458.2,-75.59 452.73,-84.66 459.58,-86.1"/>
</g>
</g>
</svg>
