<?xml version="1.0" encoding="UTF-8" standalone="no"?>
<!DOCTYPE svg PUBLIC "-//W3C//DTD SVG 1.1//EN"
 "http://www.w3.org/Graphics/SVG/1.1/DTD/svg11.dtd">
<!-- Generated by graphviz version 2.43.0 (0)
 -->
<!-- Title: include/emlabcpp/protocol/streams.h Pages: 1 -->
<svg width="655pt" height="330pt"
 viewBox="0.00 0.00 655.00 330.00" xmlns="http://www.w3.org/2000/svg" xmlns:xlink="http://www.w3.org/1999/xlink">
<g id="graph0" class="graph" transform="scale(1 1) rotate(0) translate(4 326)">
<title>include/emlabcpp/protocol/streams.h</title>
<polygon fill="white" stroke="transparent" points="-4,4 -4,-326 651,-326 651,4 -4,4"/>
<!-- Node1 -->
<g id="node1" class="node">
<title>Node1</title>
<g id="a_node1"><a xlink:title=" ">
<polygon fill="#bfbfbf" stroke="black" points="247,-291.5 247,-321.5 393,-321.5 393,-291.5 247,-291.5"/>
<text text-anchor="start" x="255" y="-309.5" font-family="Helvetica,sans-Serif" font-size="10.00">include/emlabcpp/protocol</text>
<text text-anchor="middle" x="320" y="-298.5" font-family="Helvetica,sans-Serif" font-size="10.00">/streams.h</text>
</a>
</g>
</g>
<!-- Node2 -->
<g id="node2" class="node">
<title>Node2</title>
<g id="a_node2"><a xlink:href="enum_8h.html" target="_top" xlink:title=" ">
<polygon fill="white" stroke="black" points="0,-168.5 0,-187.5 104,-187.5 104,-168.5 0,-168.5"/>
<text text-anchor="middle" x="52" y="-175.5" font-family="Helvetica,sans-Serif" font-size="10.00">emlabcpp/enum.h</text>
</a>
</g>
</g>
<!-- Node1&#45;&gt;Node2 -->
<g id="edge1" class="edge">
<title>Node1&#45;&gt;Node2</title>
<path fill="none" stroke="midnightblue" d="M265.89,-291.45C235.98,-282.75 198.59,-270.31 167,-255 131.04,-237.57 93.06,-210.54 71,-193.85"/>
<polygon fill="midnightblue" stroke="midnightblue" points="72.9,-190.9 62.83,-187.59 68.64,-196.45 72.9,-190.9"/>
</g>
<!-- Node4 -->
<g id="node4" class="node">
<title>Node4</title>
<g id="a_node4"><a xlink:href="protocol_2base_8h.html" target="_top" xlink:title=" ">
<polygon fill="white" stroke="black" points="147.5,-112.5 147.5,-131.5 290.5,-131.5 290.5,-112.5 147.5,-112.5"/>
<text text-anchor="middle" x="219" y="-119.5" font-family="Helvetica,sans-Serif" font-size="10.00">emlabcpp/protocol/base.h</text>
</a>
</g>
</g>
<!-- Node1&#45;&gt;Node4 -->
<g id="edge3" class="edge">
<title>Node1&#45;&gt;Node4</title>
<path fill="none" stroke="midnightblue" d="M283.13,-291.33C266.58,-283.14 248.27,-271.2 237,-255 213.19,-220.78 213.98,-169.31 216.54,-141.84"/>
<polygon fill="midnightblue" stroke="midnightblue" points="220.05,-141.99 217.68,-131.66 213.09,-141.21 220.05,-141.99"/>
</g>
<!-- Node24 -->
<g id="node11" class="node">
<title>Node24</title>
<g id="a_node11"><a xlink:href="register__map_8h.html" target="_top" xlink:title=" ">
<polygon fill="white" stroke="black" points="246,-224.5 246,-254.5 394,-254.5 394,-224.5 246,-224.5"/>
<text text-anchor="start" x="254" y="-242.5" font-family="Helvetica,sans-Serif" font-size="10.00">emlabcpp/protocol/register</text>
<text text-anchor="middle" x="320" y="-231.5" font-family="Helvetica,sans-Serif" font-size="10.00">_map.h</text>
</a>
</g>
</g>
<!-- Node1&#45;&gt;Node24 -->
<g id="edge12" class="edge">
<title>Node1&#45;&gt;Node24</title>
<path fill="none" stroke="midnightblue" d="M320,-291.4C320,-283.64 320,-273.81 320,-264.86"/>
<polygon fill="midnightblue" stroke="midnightblue" points="323.5,-264.58 320,-254.58 316.5,-264.58 323.5,-264.58"/>
</g>
<!-- Node31 -->
<g id="node13" class="node">
<title>Node31</title>
<g id="a_node13"><a xlink:href="range_8h.html" target="_top" xlink:title=" ">
<polygon fill="white" stroke="red" points="508,-112.5 508,-131.5 612,-131.5 612,-112.5 508,-112.5"/>
<text text-anchor="middle" x="560" y="-119.5" font-family="Helvetica,sans-Serif" font-size="10.00">emlabcpp/range.h</text>
</a>
</g>
</g>
<!-- Node1&#45;&gt;Node31 -->
<g id="edge21" class="edge">
<title>Node1&#45;&gt;Node31</title>
<path fill="none" stroke="midnightblue" d="M373.56,-291.35C424.96,-274.98 500.94,-242.97 544,-188 554.41,-174.72 558.15,-155.59 559.45,-141.53"/>
<polygon fill="midnightblue" stroke="midnightblue" points="562.94,-141.73 560.04,-131.54 555.96,-141.31 562.94,-141.73"/>
</g>
<!-- Node50 -->
<g id="node15" class="node">
<title>Node50</title>
<g id="a_node15"><a xlink:title=" ">
<polygon fill="white" stroke="#bfbfbf" points="591,-230 591,-249 647,-249 647,-230 591,-230"/>
<text text-anchor="middle" x="619" y="-237" font-family="Helvetica,sans-Serif" font-size="10.00">iomanip</text>
</a>
</g>
</g>
<!-- Node1&#45;&gt;Node50 -->
<g id="edge22" class="edge">
<title>Node1&#45;&gt;Node50</title>
<path fill="none" stroke="midnightblue" d="M393.18,-293.9C444.94,-285.02 515.75,-271.5 577,-255 580.03,-254.18 583.16,-253.26 586.28,-252.28"/>
<polygon fill="midnightblue" stroke="midnightblue" points="587.67,-255.51 596.07,-249.06 585.48,-248.86 587.67,-255.51"/>
</g>
<!-- Node3 -->
<g id="node3" class="node">
<title>Node3</title>
<g id="a_node3"><a xlink:title=" ">
<polygon fill="white" stroke="#bfbfbf" points="184.5,-0.5 184.5,-19.5 253.5,-19.5 253.5,-0.5 184.5,-0.5"/>
<text text-anchor="middle" x="219" y="-7.5" font-family="Helvetica,sans-Serif" font-size="10.00">type_traits</text>
</a>
</g>
</g>
<!-- Node2&#45;&gt;Node3 -->
<g id="edge2" class="edge">
<title>Node2&#45;&gt;Node3</title>
<path fill="none" stroke="midnightblue" d="M45.38,-168.32C29.87,-146.86 -5.53,-90.52 22,-56 40.66,-32.6 121.96,-20.4 174.11,-14.87"/>
<polygon fill="midnightblue" stroke="midnightblue" points="174.53,-18.34 184.12,-13.85 173.82,-11.38 174.53,-18.34"/>
</g>
<!-- Node4&#45;&gt;Node3 -->
<g id="edge10" class="edge">
<title>Node4&#45;&gt;Node3</title>
<path fill="none" stroke="midnightblue" d="M219,-112.37C219,-94.62 219,-53.67 219,-29.6"/>
<polygon fill="midnightblue" stroke="midnightblue" points="222.5,-29.59 219,-19.59 215.5,-29.59 222.5,-29.59"/>
</g>
<!-- Node5 -->
<g id="node5" class="node">
<title>Node5</title>
<g id="a_node5"><a xlink:href="bounded_8h.html" target="_top" xlink:title=" ">
<polygon fill="white" stroke="red" points="476.5,-56.5 476.5,-75.5 595.5,-75.5 595.5,-56.5 476.5,-56.5"/>
<text text-anchor="middle" x="536" y="-63.5" font-family="Helvetica,sans-Serif" font-size="10.00">emlabcpp/bounded.h</text>
</a>
</g>
</g>
<!-- Node4&#45;&gt;Node5 -->
<g id="edge4" class="edge">
<title>Node4&#45;&gt;Node5</title>
<path fill="none" stroke="midnightblue" d="M269.23,-112.44C325.34,-102.89 416.13,-87.42 475.95,-77.23"/>
<polygon fill="midnightblue" stroke="midnightblue" points="476.74,-80.65 486.01,-75.52 475.56,-73.75 476.74,-80.65"/>
</g>
<!-- Node17 -->
<g id="node6" class="node">
<title>Node17</title>
<g id="a_node6"><a xlink:href="protocol_2error_8h.html" target="_top" xlink:title=" ">
<polygon fill="white" stroke="red" points="247,-56.5 247,-75.5 389,-75.5 389,-56.5 247,-56.5"/>
<text text-anchor="middle" x="318" y="-63.5" font-family="Helvetica,sans-Serif" font-size="10.00">emlabcpp/protocol/error.h</text>
</a>
</g>
</g>
<!-- Node4&#45;&gt;Node17 -->
<g id="edge6" class="edge">
<title>Node4&#45;&gt;Node17</title>
<path fill="none" stroke="midnightblue" d="M234.91,-112.32C250.64,-103.74 274.94,-90.49 293.21,-80.52"/>
<polygon fill="midnightblue" stroke="midnightblue" points="295.03,-83.52 302.13,-75.65 291.68,-77.37 295.03,-83.52"/>
</g>
<!-- Node22 -->
<g id="node7" class="node">
<title>Node22</title>
<g id="a_node7"><a xlink:title=" ">
<polygon fill="white" stroke="#bfbfbf" points="99.5,-56.5 99.5,-75.5 128.5,-75.5 128.5,-56.5 99.5,-56.5"/>
<text text-anchor="middle" x="114" y="-63.5" font-family="Helvetica,sans-Serif" font-size="10.00">bit</text>
</a>
</g>
</g>
<!-- Node4&#45;&gt;Node22 -->
<g id="edge7" class="edge">
<title>Node4&#45;&gt;Node22</title>
<path fill="none" stroke="midnightblue" d="M202.13,-112.32C184.69,-103.36 157.33,-89.28 137.72,-79.2"/>
<polygon fill="midnightblue" stroke="midnightblue" points="139.29,-76.07 128.79,-74.61 136.08,-82.29 139.29,-76.07"/>
</g>
<!-- Node23 -->
<g id="node8" class="node">
<title>Node23</title>
<g id="a_node8"><a xlink:title=" ">
<polygon fill="white" stroke="#bfbfbf" points="147,-56.5 147,-75.5 191,-75.5 191,-56.5 147,-56.5"/>
<text text-anchor="middle" x="169" y="-63.5" font-family="Helvetica,sans-Serif" font-size="10.00">bitset</text>
</a>
</g>
</g>
<!-- Node4&#45;&gt;Node23 -->
<g id="edge8" class="edge">
<title>Node4&#45;&gt;Node23</title>
<path fill="none" stroke="midnightblue" d="M210.74,-112.08C203.54,-104.3 192.89,-92.8 184.15,-83.37"/>
<polygon fill="midnightblue" stroke="midnightblue" points="186.47,-80.71 177.1,-75.75 181.33,-85.47 186.47,-80.71"/>
</g>
<!-- Node20 -->
<g id="node9" class="node">
<title>Node20</title>
<g id="a_node9"><a xlink:title=" ">
<polygon fill="white" stroke="#bfbfbf" points="31,-56.5 31,-75.5 81,-75.5 81,-56.5 31,-56.5"/>
<text text-anchor="middle" x="56" y="-63.5" font-family="Helvetica,sans-Serif" font-size="10.00">cstring</text>
</a>
</g>
</g>
<!-- Node4&#45;&gt;Node20 -->
<g id="edge9" class="edge">
<title>Node4&#45;&gt;Node20</title>
<path fill="none" stroke="midnightblue" d="M193.17,-112.44C165.59,-103.31 121.71,-88.77 91.03,-78.6"/>
<polygon fill="midnightblue" stroke="midnightblue" points="91.76,-75.16 81.17,-75.34 89.56,-81.81 91.76,-75.16"/>
</g>
<!-- Node15 -->
<g id="node10" class="node">
<title>Node15</title>
<g id="a_node10"><a xlink:title=" ">
<polygon fill="white" stroke="#bfbfbf" points="407.5,-56.5 407.5,-75.5 458.5,-75.5 458.5,-56.5 407.5,-56.5"/>
<text text-anchor="middle" x="433" y="-63.5" font-family="Helvetica,sans-Serif" font-size="10.00">variant</text>
</a>
</g>
</g>
<!-- Node4&#45;&gt;Node15 -->
<g id="edge11" class="edge">
<title>Node4&#45;&gt;Node15</title>
<path fill="none" stroke="midnightblue" d="M253.33,-112.43C287.4,-103.91 341.38,-90.37 397.61,-76.09"/>
<polygon fill="midnightblue" stroke="midnightblue" points="398.56,-79.46 407.39,-73.6 396.84,-72.67 398.56,-79.46"/>
</g>
<!-- Node5&#45;&gt;Node3 -->
<g id="edge5" class="edge">
<title>Node5&#45;&gt;Node3</title>
<path fill="none" stroke="midnightblue" d="M485.77,-56.44C424.67,-46.04 322.45,-28.62 263.88,-18.64"/>
<polygon fill="midnightblue" stroke="midnightblue" points="264.26,-15.16 253.82,-16.93 263.09,-22.06 264.26,-15.16"/>
</g>
<!-- Node24&#45;&gt;Node4 -->
<g id="edge16" class="edge">
<title>Node24&#45;&gt;Node4</title>
<path fill="none" stroke="midnightblue" d="M286.38,-224.44C269.99,-216.04 251.23,-203.89 239,-188 228.66,-174.56 223.63,-155.75 221.2,-141.81"/>
<polygon fill="midnightblue" stroke="midnightblue" points="224.66,-141.28 219.76,-131.88 217.73,-142.28 224.66,-141.28"/>
</g>
<!-- Node25 -->
<g id="node12" class="node">
<title>Node25</title>
<g id="a_node12"><a xlink:href="algorithm_8h.html" target="_top" xlink:title=" ">
<polygon fill="white" stroke="red" points="411,-168.5 411,-187.5 535,-187.5 535,-168.5 411,-168.5"/>
<text text-anchor="middle" x="473" y="-175.5" font-family="Helvetica,sans-Serif" font-size="10.00">emlabcpp/algorithm.h</text>
</a>
</g>
</g>
<!-- Node24&#45;&gt;Node25 -->
<g id="edge13" class="edge">
<title>Node24&#45;&gt;Node25</title>
<path fill="none" stroke="midnightblue" d="M356.26,-224.4C382.04,-214.37 416.36,-201.03 441.1,-191.4"/>
<polygon fill="midnightblue" stroke="midnightblue" points="442.69,-194.54 450.74,-187.66 440.15,-188.02 442.69,-194.54"/>
</g>
<!-- Node38 -->
<g id="node14" class="node">
<title>Node38</title>
<g id="a_node14"><a xlink:href="traits_8h.html" target="_top" xlink:title=" ">
<polygon fill="white" stroke="red" points="247.5,-168.5 247.5,-187.5 392.5,-187.5 392.5,-168.5 247.5,-168.5"/>
<text text-anchor="middle" x="320" y="-175.5" font-family="Helvetica,sans-Serif" font-size="10.00">emlabcpp/protocol/traits.h</text>
</a>
</g>
</g>
<!-- Node24&#45;&gt;Node38 -->
<g id="edge17" class="edge">
<title>Node24&#45;&gt;Node38</title>
<path fill="none" stroke="midnightblue" d="M320,-224.4C320,-216.47 320,-206.46 320,-197.86"/>
<polygon fill="midnightblue" stroke="midnightblue" points="323.5,-197.66 320,-187.66 316.5,-197.66 323.5,-197.66"/>
</g>
<!-- Node25&#45;&gt;Node5 -->
<g id="edge14" class="edge">
<title>Node25&#45;&gt;Node5</title>
<path fill="none" stroke="midnightblue" d="M475.57,-168.19C479.53,-155.31 487.86,-130.83 499,-112 505.04,-101.79 513.31,-91.49 520.5,-83.33"/>
<polygon fill="midnightblue" stroke="midnightblue" points="523.31,-85.44 527.46,-75.69 518.14,-80.72 523.31,-85.44"/>
</g>
<!-- Node25&#45;&gt;Node31 -->
<g id="edge15" class="edge">
<title>Node25&#45;&gt;Node31</title>
<path fill="none" stroke="midnightblue" d="M486.98,-168.32C500.55,-159.9 521.38,-146.97 537.32,-137.07"/>
<polygon fill="midnightblue" stroke="midnightblue" points="539.41,-139.9 546.06,-131.65 535.71,-133.95 539.41,-139.9"/>
</g>
<!-- Node38&#45;&gt;Node4 -->
<g id="edge18" class="edge">
<title>Node38&#45;&gt;Node4</title>
<path fill="none" stroke="midnightblue" d="M303.77,-168.32C287.65,-159.7 262.7,-146.36 244.04,-136.39"/>
<polygon fill="midnightblue" stroke="midnightblue" points="245.66,-133.28 235.19,-131.65 242.36,-139.46 245.66,-133.28"/>
</g>
<!-- Node38&#45;&gt;Node17 -->
<g id="edge19" class="edge">
<title>Node38&#45;&gt;Node17</title>
<path fill="none" stroke="midnightblue" d="M319.84,-168.37C319.52,-150.62 318.78,-109.67 318.34,-85.6"/>
<polygon fill="midnightblue" stroke="midnightblue" points="321.84,-85.53 318.16,-75.59 314.84,-85.65 321.84,-85.53"/>
</g>
<!-- Node38&#45;&gt;Node15 -->
<g id="edge20" class="edge">
<title>Node38&#45;&gt;Node15</title>
<path fill="none" stroke="midnightblue" d="M328.87,-168.37C347.85,-149.89 392.64,-106.29 416.83,-82.74"/>
<polygon fill="midnightblue" stroke="midnightblue" points="419.45,-85.07 424.17,-75.59 414.57,-80.06 419.45,-85.07"/>
</g>
</g>
</svg>
