<?xml version="1.0" encoding="UTF-8" standalone="no"?>
<!DOCTYPE svg PUBLIC "-//W3C//DTD SVG 1.1//EN"
 "http://www.w3.org/Graphics/SVG/1.1/DTD/svg11.dtd">
<!-- Generated by graphviz version 2.43.0 (0)
 -->
<!-- Title: include/emlabcpp/protocol/streams.h Pages: 1 -->
<svg width="753pt" height="453pt"
 viewBox="0.00 0.00 753.00 453.00" xmlns="http://www.w3.org/2000/svg" xmlns:xlink="http://www.w3.org/1999/xlink">
<g id="graph0" class="graph" transform="scale(1 1) rotate(0) translate(4 449)">
<title>include/emlabcpp/protocol/streams.h</title>
<polygon fill="white" stroke="transparent" points="-4,4 -4,-449 749,-449 749,4 -4,4"/>
<!-- Node1 -->
<g id="node1" class="node">
<title>Node1</title>
<g id="a_node1"><a xlink:title=" ">
<polygon fill="#bfbfbf" stroke="black" points="318,-414.5 318,-444.5 464,-444.5 464,-414.5 318,-414.5"/>
<text text-anchor="start" x="326" y="-432.5" font-family="Helvetica,sans-Serif" font-size="10.00">include/emlabcpp/protocol</text>
<text text-anchor="middle" x="391" y="-421.5" font-family="Helvetica,sans-Serif" font-size="10.00">/streams.h</text>
</a>
</g>
</g>
<!-- Node2 -->
<g id="node2" class="node">
<title>Node2</title>
<g id="a_node2"><a xlink:href="enum_8h.html" target="_top" xlink:title=" ">
<polygon fill="white" stroke="black" points="66,-56.5 66,-75.5 170,-75.5 170,-56.5 66,-56.5"/>
<text text-anchor="middle" x="118" y="-63.5" font-family="Helvetica,sans-Serif" font-size="10.00">emlabcpp/enum.h</text>
</a>
</g>
</g>
<!-- Node1&#45;&gt;Node2 -->
<g id="edge1" class="edge">
<title>Node1&#45;&gt;Node2</title>
<path fill="none" stroke="midnightblue" d="M317.91,-420C204.74,-404.77 0,-368.08 0,-302 0,-302 0,-302 0,-188 0,-136.77 54.88,-99.14 89.79,-80.39"/>
<polygon fill="midnightblue" stroke="midnightblue" points="91.77,-83.3 99.04,-75.6 88.55,-77.09 91.77,-83.3"/>
</g>
<!-- Node4 -->
<g id="node4" class="node">
<title>Node4</title>
<g id="a_node4"><a xlink:href="protocol_2base_8h.html" target="_top" xlink:title=" ">
<polygon fill="white" stroke="black" points="314.5,-235.5 314.5,-254.5 457.5,-254.5 457.5,-235.5 314.5,-235.5"/>
<text text-anchor="middle" x="386" y="-242.5" font-family="Helvetica,sans-Serif" font-size="10.00">emlabcpp/protocol/base.h</text>
</a>
</g>
</g>
<!-- Node1&#45;&gt;Node4 -->
<g id="edge3" class="edge">
<title>Node1&#45;&gt;Node4</title>
<path fill="none" stroke="midnightblue" d="M390.62,-414.48C389.73,-382.1 387.54,-302.04 386.52,-265.16"/>
<polygon fill="midnightblue" stroke="midnightblue" points="390.01,-264.72 386.24,-254.82 383.02,-264.91 390.01,-264.72"/>
</g>
<!-- Node27 -->
<g id="node7" class="node">
<title>Node27</title>
<g id="a_node7"><a xlink:href="range_8h.html" target="_top" xlink:title=" ">
<polygon fill="white" stroke="red" points="320,-56.5 320,-75.5 424,-75.5 424,-56.5 320,-56.5"/>
<text text-anchor="middle" x="372" y="-63.5" font-family="Helvetica,sans-Serif" font-size="10.00">emlabcpp/range.h</text>
</a>
</g>
</g>
<!-- Node1&#45;&gt;Node27 -->
<g id="edge26" class="edge">
<title>Node1&#45;&gt;Node27</title>
<path fill="none" stroke="midnightblue" d="M464.07,-424.84C544.03,-416.43 661,-389.22 661,-302 661,-302 661,-302 661,-188 661,-90.39 518.99,-70.17 434.06,-66.8"/>
<polygon fill="midnightblue" stroke="midnightblue" points="434.11,-63.3 424,-66.47 433.88,-70.3 434.11,-63.3"/>
</g>
<!-- Node45 -->
<g id="node13" class="node">
<title>Node45</title>
<g id="a_node13"><a xlink:href="register__map_8h.html" target="_top" xlink:title=" ">
<polygon fill="white" stroke="black" points="215,-347.5 215,-377.5 363,-377.5 363,-347.5 215,-347.5"/>
<text text-anchor="start" x="223" y="-365.5" font-family="Helvetica,sans-Serif" font-size="10.00">emlabcpp/protocol/register</text>
<text text-anchor="middle" x="289" y="-354.5" font-family="Helvetica,sans-Serif" font-size="10.00">_map.h</text>
</a>
</g>
</g>
<!-- Node1&#45;&gt;Node45 -->
<g id="edge17" class="edge">
<title>Node1&#45;&gt;Node45</title>
<path fill="none" stroke="midnightblue" d="M368.87,-414.4C354.43,-405.2 335.4,-393.07 319.53,-382.95"/>
<polygon fill="midnightblue" stroke="midnightblue" points="321.4,-380 311.09,-377.58 317.64,-385.9 321.4,-380"/>
</g>
<!-- Node59 -->
<g id="node16" class="node">
<title>Node59</title>
<g id="a_node16"><a xlink:title=" ">
<polygon fill="white" stroke="#bfbfbf" points="689,-353 689,-372 745,-372 745,-353 689,-353"/>
<text text-anchor="middle" x="717" y="-360" font-family="Helvetica,sans-Serif" font-size="10.00">iomanip</text>
</a>
</g>
</g>
<!-- Node1&#45;&gt;Node59 -->
<g id="edge27" class="edge">
<title>Node1&#45;&gt;Node59</title>
<path fill="none" stroke="midnightblue" d="M464.05,-418.73C521.81,-410.23 604.23,-396.39 675,-378 678.04,-377.21 681.17,-376.31 684.29,-375.34"/>
<polygon fill="midnightblue" stroke="midnightblue" points="685.68,-378.57 694.09,-372.13 683.5,-371.92 685.68,-378.57"/>
</g>
<!-- Node3 -->
<g id="node3" class="node">
<title>Node3</title>
<g id="a_node3"><a xlink:title=" ">
<polygon fill="white" stroke="#bfbfbf" points="83.5,-0.5 83.5,-19.5 152.5,-19.5 152.5,-0.5 83.5,-0.5"/>
<text text-anchor="middle" x="118" y="-7.5" font-family="Helvetica,sans-Serif" font-size="10.00">type_traits</text>
</a>
</g>
</g>
<!-- Node2&#45;&gt;Node3 -->
<g id="edge2" class="edge">
<title>Node2&#45;&gt;Node3</title>
<path fill="none" stroke="midnightblue" d="M118,-56.08C118,-49.01 118,-38.86 118,-29.99"/>
<polygon fill="midnightblue" stroke="midnightblue" points="121.5,-29.75 118,-19.75 114.5,-29.75 121.5,-29.75"/>
</g>
<!-- Node4&#45;&gt;Node3 -->
<g id="edge15" class="edge">
<title>Node4&#45;&gt;Node3</title>
<path fill="none" stroke="midnightblue" d="M392.88,-235.28C415.03,-206.11 480.39,-110.64 433,-56 398.53,-16.26 241.01,-10.74 162.6,-10.52"/>
<polygon fill="midnightblue" stroke="midnightblue" points="162.54,-7.02 152.54,-10.52 162.54,-14.02 162.54,-7.02"/>
</g>
<!-- Node5 -->
<g id="node5" class="node">
<title>Node5</title>
<g id="a_node5"><a xlink:href="bounded_8h.html" target="_top" xlink:title=" ">
<polygon fill="white" stroke="red" points="46.5,-179.5 46.5,-198.5 165.5,-198.5 165.5,-179.5 46.5,-179.5"/>
<text text-anchor="middle" x="106" y="-186.5" font-family="Helvetica,sans-Serif" font-size="10.00">emlabcpp/bounded.h</text>
</a>
</g>
</g>
<!-- Node4&#45;&gt;Node5 -->
<g id="edge4" class="edge">
<title>Node4&#45;&gt;Node5</title>
<path fill="none" stroke="midnightblue" d="M341.63,-235.44C292.38,-225.94 212.87,-210.61 160.03,-200.42"/>
<polygon fill="midnightblue" stroke="midnightblue" points="160.64,-196.97 150.16,-198.52 159.32,-203.85 160.64,-196.97"/>
</g>
<!-- Node32 -->
<g id="node8" class="node">
<title>Node32</title>
<g id="a_node8"><a xlink:title=" ">
<polygon fill="white" stroke="#bfbfbf" points="188,-56.5 188,-75.5 232,-75.5 232,-56.5 188,-56.5"/>
<text text-anchor="middle" x="210" y="-63.5" font-family="Helvetica,sans-Serif" font-size="10.00">bitset</text>
</a>
</g>
</g>
<!-- Node4&#45;&gt;Node32 -->
<g id="edge13" class="edge">
<title>Node4&#45;&gt;Node32</title>
<path fill="none" stroke="midnightblue" d="M380.12,-235.24C364.89,-212.94 322.16,-152.9 277,-112 263.84,-100.08 247.28,-88.93 233.92,-80.71"/>
<polygon fill="midnightblue" stroke="midnightblue" points="235.64,-77.66 225.27,-75.52 232.04,-83.66 235.64,-77.66"/>
</g>
<!-- Node15 -->
<g id="node9" class="node">
<title>Node15</title>
<g id="a_node9"><a xlink:title=" ">
<polygon fill="white" stroke="#bfbfbf" points="250.5,-56.5 250.5,-75.5 301.5,-75.5 301.5,-56.5 250.5,-56.5"/>
<text text-anchor="middle" x="276" y="-63.5" font-family="Helvetica,sans-Serif" font-size="10.00">variant</text>
</a>
</g>
</g>
<!-- Node4&#45;&gt;Node15 -->
<g id="edge16" class="edge">
<title>Node4&#45;&gt;Node15</title>
<path fill="none" stroke="midnightblue" d="M386.95,-235.28C388.97,-212.57 391.35,-150.64 363,-112 350.47,-94.92 329.52,-83.8 311.32,-76.89"/>
<polygon fill="midnightblue" stroke="midnightblue" points="312.44,-73.57 301.84,-73.57 310.12,-80.18 312.44,-73.57"/>
</g>
<!-- Node40 -->
<g id="node10" class="node">
<title>Node40</title>
<g id="a_node10"><a xlink:href="protocol_2error_8h.html" target="_top" xlink:title=" ">
<polygon fill="white" stroke="red" points="453,-179.5 453,-198.5 595,-198.5 595,-179.5 453,-179.5"/>
<text text-anchor="middle" x="524" y="-186.5" font-family="Helvetica,sans-Serif" font-size="10.00">emlabcpp/protocol/error.h</text>
</a>
</g>
</g>
<!-- Node4&#45;&gt;Node40 -->
<g id="edge11" class="edge">
<title>Node4&#45;&gt;Node40</title>
<path fill="none" stroke="midnightblue" d="M407.87,-235.44C430.78,-226.48 466.98,-212.31 492.87,-202.18"/>
<polygon fill="midnightblue" stroke="midnightblue" points="494.2,-205.42 502.24,-198.52 491.65,-198.9 494.2,-205.42"/>
</g>
<!-- Node44 -->
<g id="node11" class="node">
<title>Node44</title>
<g id="a_node11"><a xlink:title=" ">
<polygon fill="white" stroke="#bfbfbf" points="223.5,-179.5 223.5,-198.5 252.5,-198.5 252.5,-179.5 223.5,-179.5"/>
<text text-anchor="middle" x="238" y="-186.5" font-family="Helvetica,sans-Serif" font-size="10.00">bit</text>
</a>
</g>
</g>
<!-- Node4&#45;&gt;Node44 -->
<g id="edge12" class="edge">
<title>Node4&#45;&gt;Node44</title>
<path fill="none" stroke="midnightblue" d="M362.2,-235.45C339.02,-227.1 302.57,-213.92 262.21,-199.05"/>
<polygon fill="midnightblue" stroke="midnightblue" points="263.31,-195.72 252.71,-195.55 260.88,-202.29 263.31,-195.72"/>
</g>
<!-- Node43 -->
<g id="node12" class="node">
<title>Node43</title>
<g id="a_node12"><a xlink:title=" ">
<polygon fill="white" stroke="#bfbfbf" points="271,-179.5 271,-198.5 321,-198.5 321,-179.5 271,-179.5"/>
<text text-anchor="middle" x="296" y="-186.5" font-family="Helvetica,sans-Serif" font-size="10.00">cstring</text>
</a>
</g>
</g>
<!-- Node4&#45;&gt;Node43 -->
<g id="edge14" class="edge">
<title>Node4&#45;&gt;Node43</title>
<path fill="none" stroke="midnightblue" d="M371.54,-235.32C357.5,-226.9 335.95,-213.97 319.46,-204.07"/>
<polygon fill="midnightblue" stroke="midnightblue" points="320.8,-200.8 310.42,-198.65 317.2,-206.8 320.8,-200.8"/>
</g>
<!-- Node5&#45;&gt;Node3 -->
<g id="edge10" class="edge">
<title>Node5&#45;&gt;Node3</title>
<path fill="none" stroke="midnightblue" d="M97.97,-179.38C78.98,-157.91 34.52,-100.51 57,-56 63.81,-42.52 76.77,-32.08 89,-24.67"/>
<polygon fill="midnightblue" stroke="midnightblue" points="91.07,-27.52 98.09,-19.59 87.66,-21.41 91.07,-27.52"/>
</g>
<!-- Node18 -->
<g id="node6" class="node">
<title>Node18</title>
<g id="a_node6"><a xlink:href="pretty__printer_8h.html" target="_top" xlink:title=" ">
<polygon fill="white" stroke="red" points="135.5,-112.5 135.5,-142.5 268.5,-142.5 268.5,-112.5 135.5,-112.5"/>
<text text-anchor="start" x="143.5" y="-130.5" font-family="Helvetica,sans-Serif" font-size="10.00">emlabcpp/experimental</text>
<text text-anchor="middle" x="202" y="-119.5" font-family="Helvetica,sans-Serif" font-size="10.00">/pretty_printer.h</text>
</a>
</g>
</g>
<!-- Node5&#45;&gt;Node18 -->
<g id="edge5" class="edge">
<title>Node5&#45;&gt;Node18</title>
<path fill="none" stroke="midnightblue" d="M119.75,-179.48C133,-171.27 153.5,-158.56 170.72,-147.88"/>
<polygon fill="midnightblue" stroke="midnightblue" points="172.72,-150.77 179.37,-142.52 169.03,-144.82 172.72,-150.77"/>
</g>
<!-- Node18&#45;&gt;Node2 -->
<g id="edge6" class="edge">
<title>Node18&#45;&gt;Node2</title>
<path fill="none" stroke="midnightblue" d="M182.09,-112.4C169.01,-103.13 151.92,-91.03 138.68,-81.65"/>
<polygon fill="midnightblue" stroke="midnightblue" points="140.41,-78.58 130.22,-75.66 136.36,-84.29 140.41,-78.58"/>
</g>
<!-- Node18&#45;&gt;Node27 -->
<g id="edge7" class="edge">
<title>Node18&#45;&gt;Node27</title>
<path fill="none" stroke="midnightblue" d="M242.29,-112.4C271.32,-102.24 310.08,-88.67 337.65,-79.02"/>
<polygon fill="midnightblue" stroke="midnightblue" points="338.98,-82.26 347.26,-75.66 336.67,-75.66 338.98,-82.26"/>
</g>
<!-- Node18&#45;&gt;Node32 -->
<g id="edge8" class="edge">
<title>Node18&#45;&gt;Node32</title>
<path fill="none" stroke="midnightblue" d="M203.9,-112.4C204.97,-104.38 206.34,-94.23 207.5,-85.57"/>
<polygon fill="midnightblue" stroke="midnightblue" points="210.97,-86.04 208.84,-75.66 204.03,-85.1 210.97,-86.04"/>
</g>
<!-- Node18&#45;&gt;Node15 -->
<g id="edge9" class="edge">
<title>Node18&#45;&gt;Node15</title>
<path fill="none" stroke="midnightblue" d="M219.54,-112.4C230.84,-103.31 245.54,-91.49 257.11,-82.19"/>
<polygon fill="midnightblue" stroke="midnightblue" points="259.63,-84.65 265.23,-75.66 255.25,-79.2 259.63,-84.65"/>
</g>
<!-- Node45&#45;&gt;Node4 -->
<g id="edge21" class="edge">
<title>Node45&#45;&gt;Node4</title>
<path fill="none" stroke="midnightblue" d="M300.89,-347.34C318.93,-325.86 353.1,-285.17 372.2,-262.43"/>
<polygon fill="midnightblue" stroke="midnightblue" points="374.97,-264.58 378.72,-254.67 369.61,-260.08 374.97,-264.58"/>
</g>
<!-- Node45&#45;&gt;Node18 -->
<g id="edge20" class="edge">
<title>Node45&#45;&gt;Node18</title>
<path fill="none" stroke="midnightblue" d="M280.83,-347.23C265.36,-319.55 231.75,-256.28 214,-199 209.33,-183.93 206.34,-166.46 204.51,-152.68"/>
<polygon fill="midnightblue" stroke="midnightblue" points="207.96,-152.04 203.29,-142.53 201.01,-152.88 207.96,-152.04"/>
</g>
<!-- Node46 -->
<g id="node14" class="node">
<title>Node46</title>
<g id="a_node14"><a xlink:href="algorithm_8h.html" target="_top" xlink:title=" ">
<polygon fill="white" stroke="red" points="43,-235.5 43,-254.5 167,-254.5 167,-235.5 43,-235.5"/>
<text text-anchor="middle" x="105" y="-242.5" font-family="Helvetica,sans-Serif" font-size="10.00">emlabcpp/algorithm.h</text>
</a>
</g>
</g>
<!-- Node45&#45;&gt;Node46 -->
<g id="edge18" class="edge">
<title>Node45&#45;&gt;Node46</title>
<path fill="none" stroke="midnightblue" d="M252.7,-347.43C231.12,-338.37 203.62,-325.58 181,-311 158.59,-296.56 135.72,-276.05 121,-261.96"/>
<polygon fill="midnightblue" stroke="midnightblue" points="123.33,-259.33 113.72,-254.86 118.44,-264.35 123.33,-259.33"/>
</g>
<!-- Node49 -->
<g id="node15" class="node">
<title>Node49</title>
<g id="a_node15"><a xlink:href="traits_8h.html" target="_top" xlink:title=" ">
<polygon fill="white" stroke="red" points="437.5,-291.5 437.5,-310.5 582.5,-310.5 582.5,-291.5 437.5,-291.5"/>
<text text-anchor="middle" x="510" y="-298.5" font-family="Helvetica,sans-Serif" font-size="10.00">emlabcpp/protocol/traits.h</text>
</a>
</g>
</g>
<!-- Node45&#45;&gt;Node49 -->
<g id="edge22" class="edge">
<title>Node45&#45;&gt;Node49</title>
<path fill="none" stroke="midnightblue" d="M341.09,-347.47C380.05,-336.99 432.61,-322.84 468.69,-313.12"/>
<polygon fill="midnightblue" stroke="midnightblue" points="469.66,-316.49 478.4,-310.51 467.84,-309.73 469.66,-316.49"/>
</g>
<!-- Node46&#45;&gt;Node5 -->
<g id="edge19" class="edge">
<title>Node46&#45;&gt;Node5</title>
<path fill="none" stroke="midnightblue" d="M105.17,-235.08C105.3,-228.01 105.48,-217.86 105.65,-208.99"/>
<polygon fill="midnightblue" stroke="midnightblue" points="109.15,-208.81 105.84,-198.75 102.15,-208.68 109.15,-208.81"/>
</g>
<!-- Node49&#45;&gt;Node4 -->
<g id="edge23" class="edge">
<title>Node49&#45;&gt;Node4</title>
<path fill="none" stroke="midnightblue" d="M490.35,-291.44C470.04,-282.6 438.1,-268.69 414.9,-258.59"/>
<polygon fill="midnightblue" stroke="midnightblue" points="416.12,-255.3 405.56,-254.52 413.33,-261.72 416.12,-255.3"/>
</g>
<!-- Node49&#45;&gt;Node15 -->
<g id="edge25" class="edge">
<title>Node49&#45;&gt;Node15</title>
<path fill="none" stroke="midnightblue" d="M525.97,-291.38C560.17,-271.78 634.95,-222.27 604,-179 586.33,-154.3 392.58,-98.91 311.43,-76.59"/>
<polygon fill="midnightblue" stroke="midnightblue" points="312.22,-73.18 301.66,-73.92 310.37,-79.93 312.22,-73.18"/>
</g>
<!-- Node49&#45;&gt;Node40 -->
<g id="edge24" class="edge">
<title>Node49&#45;&gt;Node40</title>
<path fill="none" stroke="midnightblue" d="M511.1,-291.37C513.36,-273.62 518.57,-232.67 521.63,-208.6"/>
<polygon fill="midnightblue" stroke="midnightblue" points="525.12,-208.95 522.91,-198.59 518.17,-208.07 525.12,-208.95"/>
</g>
</g>
</svg>
