<?xml version="1.0" encoding="UTF-8" standalone="no"?>
<!DOCTYPE svg PUBLIC "-//W3C//DTD SVG 1.1//EN"
 "http://www.w3.org/Graphics/SVG/1.1/DTD/svg11.dtd">
<!-- Generated by graphviz version 2.43.0 (0)
 -->
<!-- Title: include/emlabcpp/protocol/streams.h Pages: 1 -->
<svg width="706pt" height="330pt"
 viewBox="0.00 0.00 706.00 330.00" xmlns="http://www.w3.org/2000/svg" xmlns:xlink="http://www.w3.org/1999/xlink">
<g id="graph0" class="graph" transform="scale(1 1) rotate(0) translate(4 326)">
<title>include/emlabcpp/protocol/streams.h</title>
<polygon fill="white" stroke="transparent" points="-4,4 -4,-326 702,-326 702,4 -4,4"/>
<!-- Node1 -->
<g id="node1" class="node">
<title>Node1</title>
<g id="a_node1"><a xlink:title=" ">
<polygon fill="#bfbfbf" stroke="black" points="355,-291.5 355,-321.5 501,-321.5 501,-291.5 355,-291.5"/>
<text text-anchor="start" x="363" y="-309.5" font-family="Helvetica,sans-Serif" font-size="10.00">include/emlabcpp/protocol</text>
<text text-anchor="middle" x="428" y="-298.5" font-family="Helvetica,sans-Serif" font-size="10.00">/streams.h</text>
</a>
</g>
</g>
<!-- Node2 -->
<g id="node2" class="node">
<title>Node2</title>
<g id="a_node2"><a xlink:href="enum_8h.html" target="_top" xlink:title=" ">
<polygon fill="white" stroke="black" points="0,-112.5 0,-131.5 104,-131.5 104,-112.5 0,-112.5"/>
<text text-anchor="middle" x="52" y="-119.5" font-family="Helvetica,sans-Serif" font-size="10.00">emlabcpp/enum.h</text>
</a>
</g>
</g>
<!-- Node1&#45;&gt;Node2 -->
<g id="edge1" class="edge">
<title>Node1&#45;&gt;Node2</title>
<path fill="none" stroke="midnightblue" d="M385.56,-291.45C328.62,-271.83 225.17,-233.5 143,-188 116.29,-173.21 88.05,-152.06 70.25,-137.95"/>
<polygon fill="midnightblue" stroke="midnightblue" points="72.38,-135.18 62.4,-131.64 68,-140.63 72.38,-135.18"/>
</g>
<!-- Node4 -->
<g id="node4" class="node">
<title>Node4</title>
<g id="a_node4"><a xlink:href="protocol_2base_8h.html" target="_top" xlink:title=" ">
<polygon fill="white" stroke="black" points="254.5,-112.5 254.5,-131.5 397.5,-131.5 397.5,-112.5 254.5,-112.5"/>
<text text-anchor="middle" x="326" y="-119.5" font-family="Helvetica,sans-Serif" font-size="10.00">emlabcpp/protocol/base.h</text>
</a>
</g>
</g>
<!-- Node1&#45;&gt;Node4 -->
<g id="edge3" class="edge">
<title>Node1&#45;&gt;Node4</title>
<path fill="none" stroke="midnightblue" d="M390.35,-291.36C373.83,-283.23 355.78,-271.33 345,-255 322,-220.17 321.97,-168.95 323.97,-141.68"/>
<polygon fill="midnightblue" stroke="midnightblue" points="327.46,-141.86 324.88,-131.58 320.49,-141.23 327.46,-141.86"/>
</g>
<!-- Node43 -->
<g id="node11" class="node">
<title>Node43</title>
<g id="a_node11"><a xlink:href="register__map_8h.html" target="_top" xlink:title=" ">
<polygon fill="white" stroke="black" points="354,-224.5 354,-254.5 502,-254.5 502,-224.5 354,-224.5"/>
<text text-anchor="start" x="362" y="-242.5" font-family="Helvetica,sans-Serif" font-size="10.00">emlabcpp/protocol/register</text>
<text text-anchor="middle" x="428" y="-231.5" font-family="Helvetica,sans-Serif" font-size="10.00">_map.h</text>
</a>
</g>
</g>
<!-- Node1&#45;&gt;Node43 -->
<g id="edge12" class="edge">
<title>Node1&#45;&gt;Node43</title>
<path fill="none" stroke="midnightblue" d="M428,-291.4C428,-283.64 428,-273.81 428,-264.86"/>
<polygon fill="midnightblue" stroke="midnightblue" points="431.5,-264.58 428,-254.58 424.5,-264.58 431.5,-264.58"/>
</g>
<!-- Node21 -->
<g id="node14" class="node">
<title>Node21</title>
<g id="a_node14"><a xlink:href="range_8h.html" target="_top" xlink:title=" ">
<polygon fill="white" stroke="red" points="520,-230 520,-249 624,-249 624,-230 520,-230"/>
<text text-anchor="middle" x="572" y="-237" font-family="Helvetica,sans-Serif" font-size="10.00">emlabcpp/range.h</text>
</a>
</g>
</g>
<!-- Node1&#45;&gt;Node21 -->
<g id="edge20" class="edge">
<title>Node1&#45;&gt;Node21</title>
<path fill="none" stroke="midnightblue" d="M459.25,-291.4C484.4,-280.04 519.45,-264.22 543.77,-253.24"/>
<polygon fill="midnightblue" stroke="midnightblue" points="545.48,-256.31 553.15,-249.01 542.6,-249.93 545.48,-256.31"/>
</g>
<!-- Node58 -->
<g id="node15" class="node">
<title>Node58</title>
<g id="a_node15"><a xlink:title=" ">
<polygon fill="white" stroke="#bfbfbf" points="642,-230 642,-249 698,-249 698,-230 642,-230"/>
<text text-anchor="middle" x="670" y="-237" font-family="Helvetica,sans-Serif" font-size="10.00">iomanip</text>
</a>
</g>
</g>
<!-- Node1&#45;&gt;Node58 -->
<g id="edge21" class="edge">
<title>Node1&#45;&gt;Node58</title>
<path fill="none" stroke="midnightblue" d="M494.63,-291.43C535.03,-282.32 587.41,-269.48 633,-255 635.27,-254.28 637.61,-253.49 639.95,-252.66"/>
<polygon fill="midnightblue" stroke="midnightblue" points="641.29,-255.89 649.43,-249.12 638.84,-249.34 641.29,-255.89"/>
</g>
<!-- Node3 -->
<g id="node3" class="node">
<title>Node3</title>
<g id="a_node3"><a xlink:title=" ">
<polygon fill="white" stroke="#bfbfbf" points="248.5,-0.5 248.5,-19.5 317.5,-19.5 317.5,-0.5 248.5,-0.5"/>
<text text-anchor="middle" x="283" y="-7.5" font-family="Helvetica,sans-Serif" font-size="10.00">type_traits</text>
</a>
</g>
</g>
<!-- Node2&#45;&gt;Node3 -->
<g id="edge2" class="edge">
<title>Node2&#45;&gt;Node3</title>
<path fill="none" stroke="midnightblue" d="M45.25,-112.39C35.53,-98.88 20.19,-72.53 34,-56 59.48,-25.5 173.32,-15.64 237.89,-12.47"/>
<polygon fill="midnightblue" stroke="midnightblue" points="238.37,-15.95 248.2,-12 238.05,-8.96 238.37,-15.95"/>
</g>
<!-- Node4&#45;&gt;Node3 -->
<g id="edge10" class="edge">
<title>Node4&#45;&gt;Node3</title>
<path fill="none" stroke="midnightblue" d="M320.66,-112.3C315.39,-103.42 307.35,-89.12 302,-76 295.76,-60.69 290.64,-42.59 287.3,-29.38"/>
<polygon fill="midnightblue" stroke="midnightblue" points="290.68,-28.49 284.92,-19.6 283.88,-30.15 290.68,-28.49"/>
</g>
<!-- Node5 -->
<g id="node5" class="node">
<title>Node5</title>
<g id="a_node5"><a xlink:href="bounded_8h.html" target="_top" xlink:title=" ">
<polygon fill="white" stroke="red" points="489.5,-56.5 489.5,-75.5 608.5,-75.5 608.5,-56.5 489.5,-56.5"/>
<text text-anchor="middle" x="549" y="-63.5" font-family="Helvetica,sans-Serif" font-size="10.00">emlabcpp/bounded.h</text>
</a>
</g>
</g>
<!-- Node4&#45;&gt;Node5 -->
<g id="edge4" class="edge">
<title>Node4&#45;&gt;Node5</title>
<path fill="none" stroke="midnightblue" d="M361.34,-112.44C399.91,-103.1 461.78,-88.12 503.85,-77.93"/>
<polygon fill="midnightblue" stroke="midnightblue" points="504.93,-81.27 513.83,-75.52 503.29,-74.47 504.93,-81.27"/>
</g>
<!-- Node38 -->
<g id="node6" class="node">
<title>Node38</title>
<g id="a_node6"><a xlink:href="protocol_2error_8h.html" target="_top" xlink:title=" ">
<polygon fill="white" stroke="red" points="43,-56.5 43,-75.5 185,-75.5 185,-56.5 43,-56.5"/>
<text text-anchor="middle" x="114" y="-63.5" font-family="Helvetica,sans-Serif" font-size="10.00">emlabcpp/protocol/error.h</text>
</a>
</g>
</g>
<!-- Node4&#45;&gt;Node38 -->
<g id="edge6" class="edge">
<title>Node4&#45;&gt;Node38</title>
<path fill="none" stroke="midnightblue" d="M292.41,-112.44C255.81,-103.12 197.16,-88.18 157.17,-78"/>
<polygon fill="midnightblue" stroke="midnightblue" points="157.99,-74.59 147.43,-75.52 156.26,-81.38 157.99,-74.59"/>
</g>
<!-- Node41 -->
<g id="node7" class="node">
<title>Node41</title>
<g id="a_node7"><a xlink:title=" ">
<polygon fill="white" stroke="#bfbfbf" points="311.5,-56.5 311.5,-75.5 340.5,-75.5 340.5,-56.5 311.5,-56.5"/>
<text text-anchor="middle" x="326" y="-63.5" font-family="Helvetica,sans-Serif" font-size="10.00">bit</text>
</a>
</g>
</g>
<!-- Node4&#45;&gt;Node41 -->
<g id="edge7" class="edge">
<title>Node4&#45;&gt;Node41</title>
<path fill="none" stroke="midnightblue" d="M326,-112.08C326,-105.01 326,-94.86 326,-85.99"/>
<polygon fill="midnightblue" stroke="midnightblue" points="329.5,-85.75 326,-75.75 322.5,-85.75 329.5,-85.75"/>
</g>
<!-- Node27 -->
<g id="node8" class="node">
<title>Node27</title>
<g id="a_node8"><a xlink:title=" ">
<polygon fill="white" stroke="#bfbfbf" points="359,-56.5 359,-75.5 403,-75.5 403,-56.5 359,-56.5"/>
<text text-anchor="middle" x="381" y="-63.5" font-family="Helvetica,sans-Serif" font-size="10.00">bitset</text>
</a>
</g>
</g>
<!-- Node4&#45;&gt;Node27 -->
<g id="edge8" class="edge">
<title>Node4&#45;&gt;Node27</title>
<path fill="none" stroke="midnightblue" d="M335.08,-112.08C343.17,-104.14 355.2,-92.34 364.91,-82.8"/>
<polygon fill="midnightblue" stroke="midnightblue" points="367.4,-85.25 372.09,-75.75 362.5,-80.26 367.4,-85.25"/>
</g>
<!-- Node42 -->
<g id="node9" class="node">
<title>Node42</title>
<g id="a_node9"><a xlink:title=" ">
<polygon fill="white" stroke="#bfbfbf" points="421,-56.5 421,-75.5 471,-75.5 471,-56.5 421,-56.5"/>
<text text-anchor="middle" x="446" y="-63.5" font-family="Helvetica,sans-Serif" font-size="10.00">cstring</text>
</a>
</g>
</g>
<!-- Node4&#45;&gt;Node42 -->
<g id="edge9" class="edge">
<title>Node4&#45;&gt;Node42</title>
<path fill="none" stroke="midnightblue" d="M345.01,-112.44C364.59,-103.64 395.31,-89.81 417.73,-79.72"/>
<polygon fill="midnightblue" stroke="midnightblue" points="419.39,-82.81 427.07,-75.52 416.52,-76.43 419.39,-82.81"/>
</g>
<!-- Node15 -->
<g id="node10" class="node">
<title>Node15</title>
<g id="a_node10"><a xlink:title=" ">
<polygon fill="white" stroke="#bfbfbf" points="203.5,-56.5 203.5,-75.5 254.5,-75.5 254.5,-56.5 203.5,-56.5"/>
<text text-anchor="middle" x="229" y="-63.5" font-family="Helvetica,sans-Serif" font-size="10.00">variant</text>
</a>
</g>
</g>
<!-- Node4&#45;&gt;Node15 -->
<g id="edge11" class="edge">
<title>Node4&#45;&gt;Node15</title>
<path fill="none" stroke="midnightblue" d="M310.42,-112.32C295,-103.74 271.19,-90.49 253.29,-80.52"/>
<polygon fill="midnightblue" stroke="midnightblue" points="254.99,-77.46 244.55,-75.65 251.58,-83.58 254.99,-77.46"/>
</g>
<!-- Node5&#45;&gt;Node3 -->
<g id="edge5" class="edge">
<title>Node5&#45;&gt;Node3</title>
<path fill="none" stroke="midnightblue" d="M506.85,-56.44C457.92,-46.51 377.57,-30.2 327.62,-20.06"/>
<polygon fill="midnightblue" stroke="midnightblue" points="328.24,-16.61 317.75,-18.05 326.85,-23.47 328.24,-16.61"/>
</g>
<!-- Node43&#45;&gt;Node4 -->
<g id="edge15" class="edge">
<title>Node43&#45;&gt;Node4</title>
<path fill="none" stroke="midnightblue" d="M415.49,-224.34C396.53,-202.86 360.59,-162.17 340.51,-139.43"/>
<polygon fill="midnightblue" stroke="midnightblue" points="342.9,-136.85 333.66,-131.67 337.65,-141.48 342.9,-136.85"/>
</g>
<!-- Node44 -->
<g id="node12" class="node">
<title>Node44</title>
<g id="a_node12"><a xlink:href="algorithm_8h.html" target="_top" xlink:title=" ">
<polygon fill="white" stroke="red" points="439,-168.5 439,-187.5 563,-187.5 563,-168.5 439,-168.5"/>
<text text-anchor="middle" x="501" y="-175.5" font-family="Helvetica,sans-Serif" font-size="10.00">emlabcpp/algorithm.h</text>
</a>
</g>
</g>
<!-- Node43&#45;&gt;Node44 -->
<g id="edge13" class="edge">
<title>Node43&#45;&gt;Node44</title>
<path fill="none" stroke="midnightblue" d="M445.3,-224.4C456.45,-215.31 470.95,-203.49 482.36,-194.19"/>
<polygon fill="midnightblue" stroke="midnightblue" points="484.84,-196.69 490.38,-187.66 480.42,-191.26 484.84,-196.69"/>
</g>
<!-- Node48 -->
<g id="node13" class="node">
<title>Node48</title>
<g id="a_node13"><a xlink:href="traits_8h.html" target="_top" xlink:title=" ">
<polygon fill="white" stroke="red" points="152.5,-168.5 152.5,-187.5 297.5,-187.5 297.5,-168.5 152.5,-168.5"/>
<text text-anchor="middle" x="225" y="-175.5" font-family="Helvetica,sans-Serif" font-size="10.00">emlabcpp/protocol/traits.h</text>
</a>
</g>
</g>
<!-- Node43&#45;&gt;Node48 -->
<g id="edge16" class="edge">
<title>Node43&#45;&gt;Node48</title>
<path fill="none" stroke="midnightblue" d="M380.15,-224.47C344.67,-214.08 296.91,-200.08 263.8,-190.37"/>
<polygon fill="midnightblue" stroke="midnightblue" points="264.6,-186.96 254.02,-187.51 262.63,-193.68 264.6,-186.96"/>
</g>
<!-- Node44&#45;&gt;Node5 -->
<g id="edge14" class="edge">
<title>Node44&#45;&gt;Node5</title>
<path fill="none" stroke="midnightblue" d="M504.77,-168.37C512.58,-150.46 530.71,-108.92 541.17,-84.95"/>
<polygon fill="midnightblue" stroke="midnightblue" points="544.46,-86.16 545.25,-75.59 538.04,-83.36 544.46,-86.16"/>
</g>
<!-- Node48&#45;&gt;Node4 -->
<g id="edge17" class="edge">
<title>Node48&#45;&gt;Node4</title>
<path fill="none" stroke="midnightblue" d="M241.23,-168.32C257.35,-159.7 282.3,-146.36 300.96,-136.39"/>
<polygon fill="midnightblue" stroke="midnightblue" points="302.64,-139.46 309.81,-131.65 299.34,-133.28 302.64,-139.46"/>
</g>
<!-- Node48&#45;&gt;Node38 -->
<g id="edge18" class="edge">
<title>Node48&#45;&gt;Node38</title>
<path fill="none" stroke="midnightblue" d="M216.29,-168.37C197.65,-149.89 153.65,-106.29 129.89,-82.74"/>
<polygon fill="midnightblue" stroke="midnightblue" points="132.24,-80.14 122.67,-75.59 127.31,-85.12 132.24,-80.14"/>
</g>
<!-- Node48&#45;&gt;Node15 -->
<g id="edge19" class="edge">
<title>Node48&#45;&gt;Node15</title>
<path fill="none" stroke="midnightblue" d="M225.31,-168.37C225.96,-150.62 227.45,-109.67 228.32,-85.6"/>
<polygon fill="midnightblue" stroke="midnightblue" points="231.82,-85.71 228.69,-75.59 224.83,-85.46 231.82,-85.71"/>
</g>
</g>
</svg>
