<?xml version="1.0" encoding="UTF-8" standalone="no"?>
<!DOCTYPE svg PUBLIC "-//W3C//DTD SVG 1.1//EN"
 "http://www.w3.org/Graphics/SVG/1.1/DTD/svg11.dtd">
<!-- Generated by graphviz version 2.43.0 (0)
 -->
<!-- Title: include/emlabcpp/protocol/streams.h Pages: 1 -->
<svg width="685pt" height="330pt"
 viewBox="0.00 0.00 684.50 330.00" xmlns="http://www.w3.org/2000/svg" xmlns:xlink="http://www.w3.org/1999/xlink">
<g id="graph0" class="graph" transform="scale(1 1) rotate(0) translate(4 326)">
<title>include/emlabcpp/protocol/streams.h</title>
<polygon fill="white" stroke="transparent" points="-4,4 -4,-326 680.5,-326 680.5,4 -4,4"/>
<!-- Node1 -->
<g id="node1" class="node">
<title>Node1</title>
<g id="a_node1"><a xlink:title=" ">
<polygon fill="#bfbfbf" stroke="black" points="251,-291.5 251,-321.5 397,-321.5 397,-291.5 251,-291.5"/>
<text text-anchor="start" x="259" y="-309.5" font-family="Helvetica,sans-Serif" font-size="10.00">include/emlabcpp/protocol</text>
<text text-anchor="middle" x="324" y="-298.5" font-family="Helvetica,sans-Serif" font-size="10.00">/streams.h</text>
</a>
</g>
</g>
<!-- Node2 -->
<g id="node2" class="node">
<title>Node2</title>
<g id="a_node2"><a xlink:href="enum_8h.html" target="_top" xlink:title=" ">
<polygon fill="white" stroke="black" points="0,-230 0,-249 104,-249 104,-230 0,-230"/>
<text text-anchor="middle" x="52" y="-237" font-family="Helvetica,sans-Serif" font-size="10.00">emlabcpp/enum.h</text>
</a>
</g>
</g>
<!-- Node1&#45;&gt;Node2 -->
<g id="edge1" class="edge">
<title>Node1&#45;&gt;Node2</title>
<path fill="none" stroke="midnightblue" d="M265.31,-291.48C215.08,-279.47 143.77,-262.43 97.69,-251.42"/>
<polygon fill="midnightblue" stroke="midnightblue" points="98.23,-247.95 87.69,-249.03 96.6,-254.76 98.23,-247.95"/>
</g>
<!-- Node3 -->
<g id="node3" class="node">
<title>Node3</title>
<g id="a_node3"><a xlink:href="numeric_8h.html" target="_top" xlink:title=" ">
<polygon fill="white" stroke="black" points="122.5,-224.5 122.5,-254.5 231.5,-254.5 231.5,-224.5 122.5,-224.5"/>
<text text-anchor="start" x="130.5" y="-242.5" font-family="Helvetica,sans-Serif" font-size="10.00">emlabcpp/iterators</text>
<text text-anchor="middle" x="177" y="-231.5" font-family="Helvetica,sans-Serif" font-size="10.00">/numeric.h</text>
</a>
</g>
</g>
<!-- Node1&#45;&gt;Node3 -->
<g id="edge2" class="edge">
<title>Node1&#45;&gt;Node3</title>
<path fill="none" stroke="midnightblue" d="M292.1,-291.4C270.43,-281.81 241.57,-269.05 218.16,-258.7"/>
<polygon fill="midnightblue" stroke="midnightblue" points="219.4,-255.42 208.83,-254.58 216.56,-261.82 219.4,-255.42"/>
</g>
<!-- Node19 -->
<g id="node5" class="node">
<title>Node19</title>
<g id="a_node5"><a xlink:href="protocol_2base_8h.html" target="_top" xlink:title=" ">
<polygon fill="white" stroke="black" points="353.5,-112.5 353.5,-131.5 496.5,-131.5 496.5,-112.5 353.5,-112.5"/>
<text text-anchor="middle" x="425" y="-119.5" font-family="Helvetica,sans-Serif" font-size="10.00">emlabcpp/protocol/base.h</text>
</a>
</g>
</g>
<!-- Node1&#45;&gt;Node19 -->
<g id="edge4" class="edge">
<title>Node1&#45;&gt;Node19</title>
<path fill="none" stroke="midnightblue" d="M361.7,-291.4C378.23,-283.27 396.28,-271.37 407,-255 429.84,-220.13 429.44,-168.92 427.2,-141.67"/>
<polygon fill="midnightblue" stroke="midnightblue" points="430.67,-141.18 426.2,-131.58 423.71,-141.88 430.67,-141.18"/>
</g>
<!-- Node27 -->
<g id="node12" class="node">
<title>Node27</title>
<g id="a_node12"><a xlink:href="register__map_8h.html" target="_top" xlink:title=" ">
<polygon fill="white" stroke="black" points="250,-224.5 250,-254.5 398,-254.5 398,-224.5 250,-224.5"/>
<text text-anchor="start" x="258" y="-242.5" font-family="Helvetica,sans-Serif" font-size="10.00">emlabcpp/protocol/register</text>
<text text-anchor="middle" x="324" y="-231.5" font-family="Helvetica,sans-Serif" font-size="10.00">_map.h</text>
</a>
</g>
</g>
<!-- Node1&#45;&gt;Node27 -->
<g id="edge12" class="edge">
<title>Node1&#45;&gt;Node27</title>
<path fill="none" stroke="midnightblue" d="M324,-291.4C324,-283.64 324,-273.81 324,-264.86"/>
<polygon fill="midnightblue" stroke="midnightblue" points="327.5,-264.58 324,-254.58 320.5,-264.58 327.5,-264.58"/>
</g>
<!-- Node46 -->
<g id="node15" class="node">
<title>Node46</title>
<g id="a_node15"><a xlink:title=" ">
<polygon fill="white" stroke="#bfbfbf" points="454,-230 454,-249 510,-249 510,-230 454,-230"/>
<text text-anchor="middle" x="482" y="-237" font-family="Helvetica,sans-Serif" font-size="10.00">iomanip</text>
</a>
</g>
</g>
<!-- Node1&#45;&gt;Node46 -->
<g id="edge20" class="edge">
<title>Node1&#45;&gt;Node46</title>
<path fill="none" stroke="midnightblue" d="M358.28,-291.4C386.13,-279.94 425.03,-263.94 451.73,-252.95"/>
<polygon fill="midnightblue" stroke="midnightblue" points="453.41,-256.05 461.32,-249.01 450.74,-249.57 453.41,-256.05"/>
</g>
<!-- Node4 -->
<g id="node4" class="node">
<title>Node4</title>
<g id="a_node4"><a xlink:href="iterator_8h.html" target="_top" xlink:title=" ">
<polygon fill="white" stroke="red" points="121,-168.5 121,-187.5 233,-187.5 233,-168.5 121,-168.5"/>
<text text-anchor="middle" x="177" y="-175.5" font-family="Helvetica,sans-Serif" font-size="10.00">emlabcpp/iterator.h</text>
</a>
</g>
</g>
<!-- Node3&#45;&gt;Node4 -->
<g id="edge3" class="edge">
<title>Node3&#45;&gt;Node4</title>
<path fill="none" stroke="midnightblue" d="M177,-224.4C177,-216.47 177,-206.46 177,-197.86"/>
<polygon fill="midnightblue" stroke="midnightblue" points="180.5,-197.66 177,-187.66 173.5,-197.66 180.5,-197.66"/>
</g>
<!-- Node20 -->
<g id="node6" class="node">
<title>Node20</title>
<g id="a_node6"><a xlink:href="bounded_8h.html" target="_top" xlink:title=" ">
<polygon fill="white" stroke="red" points="159.5,-56.5 159.5,-75.5 278.5,-75.5 278.5,-56.5 159.5,-56.5"/>
<text text-anchor="middle" x="219" y="-63.5" font-family="Helvetica,sans-Serif" font-size="10.00">emlabcpp/bounded.h</text>
</a>
</g>
</g>
<!-- Node19&#45;&gt;Node20 -->
<g id="edge5" class="edge">
<title>Node19&#45;&gt;Node20</title>
<path fill="none" stroke="midnightblue" d="M392.36,-112.44C356.95,-103.16 300.29,-88.31 261.45,-78.13"/>
<polygon fill="midnightblue" stroke="midnightblue" points="262.05,-74.67 251.49,-75.52 260.27,-81.44 262.05,-74.67"/>
</g>
<!-- Node13 -->
<g id="node7" class="node">
<title>Node13</title>
<g id="a_node7"><a xlink:title=" ">
<polygon fill="white" stroke="#bfbfbf" points="262.5,-0.5 262.5,-19.5 331.5,-19.5 331.5,-0.5 262.5,-0.5"/>
<text text-anchor="middle" x="297" y="-7.5" font-family="Helvetica,sans-Serif" font-size="10.00">type_traits</text>
</a>
</g>
</g>
<!-- Node19&#45;&gt;Node13 -->
<g id="edge10" class="edge">
<title>Node19&#45;&gt;Node13</title>
<path fill="none" stroke="midnightblue" d="M416.34,-112.28C403.52,-99.51 378.59,-75.16 356,-56 343.48,-45.37 328.79,-34.17 317.21,-25.6"/>
<polygon fill="midnightblue" stroke="midnightblue" points="319.17,-22.7 309.04,-19.61 315.03,-28.35 319.17,-22.7"/>
</g>
<!-- Node23 -->
<g id="node8" class="node">
<title>Node23</title>
<g id="a_node8"><a xlink:href="protocol_2error_8h.html" target="_top" xlink:title=" ">
<polygon fill="white" stroke="red" points="465,-56.5 465,-75.5 607,-75.5 607,-56.5 465,-56.5"/>
<text text-anchor="middle" x="536" y="-63.5" font-family="Helvetica,sans-Serif" font-size="10.00">emlabcpp/protocol/error.h</text>
</a>
</g>
</g>
<!-- Node19&#45;&gt;Node23 -->
<g id="edge7" class="edge">
<title>Node19&#45;&gt;Node23</title>
<path fill="none" stroke="midnightblue" d="M442.83,-112.32C460.72,-103.62 488.48,-90.12 509.05,-80.11"/>
<polygon fill="midnightblue" stroke="midnightblue" points="510.75,-83.18 518.21,-75.65 507.69,-76.88 510.75,-83.18"/>
</g>
<!-- Node25 -->
<g id="node9" class="node">
<title>Node25</title>
<g id="a_node9"><a xlink:title=" ">
<polygon fill="white" stroke="#bfbfbf" points="403,-56.5 403,-75.5 447,-75.5 447,-56.5 403,-56.5"/>
<text text-anchor="middle" x="425" y="-63.5" font-family="Helvetica,sans-Serif" font-size="10.00">bitset</text>
</a>
</g>
</g>
<!-- Node19&#45;&gt;Node25 -->
<g id="edge8" class="edge">
<title>Node19&#45;&gt;Node25</title>
<path fill="none" stroke="midnightblue" d="M425,-112.08C425,-105.01 425,-94.86 425,-85.99"/>
<polygon fill="midnightblue" stroke="midnightblue" points="428.5,-85.75 425,-75.75 421.5,-85.75 428.5,-85.75"/>
</g>
<!-- Node26 -->
<g id="node10" class="node">
<title>Node26</title>
<g id="a_node10"><a xlink:title=" ">
<polygon fill="white" stroke="#bfbfbf" points="297,-56.5 297,-75.5 347,-75.5 347,-56.5 297,-56.5"/>
<text text-anchor="middle" x="322" y="-63.5" font-family="Helvetica,sans-Serif" font-size="10.00">cstring</text>
</a>
</g>
</g>
<!-- Node19&#45;&gt;Node26 -->
<g id="edge9" class="edge">
<title>Node19&#45;&gt;Node26</title>
<path fill="none" stroke="midnightblue" d="M408.45,-112.32C392.01,-103.7 366.57,-90.36 347.53,-80.39"/>
<polygon fill="midnightblue" stroke="midnightblue" points="348.99,-77.2 338.51,-75.65 345.74,-83.4 348.99,-77.2"/>
</g>
<!-- Node17 -->
<g id="node11" class="node">
<title>Node17</title>
<g id="a_node11"><a xlink:title=" ">
<polygon fill="white" stroke="#bfbfbf" points="625.5,-56.5 625.5,-75.5 676.5,-75.5 676.5,-56.5 625.5,-56.5"/>
<text text-anchor="middle" x="651" y="-63.5" font-family="Helvetica,sans-Serif" font-size="10.00">variant</text>
</a>
</g>
</g>
<!-- Node19&#45;&gt;Node17 -->
<g id="edge11" class="edge">
<title>Node19&#45;&gt;Node17</title>
<path fill="none" stroke="midnightblue" d="M462.38,-112.43C498.9,-104 556.29,-90.62 615.5,-76.08"/>
<polygon fill="midnightblue" stroke="midnightblue" points="616.53,-79.44 625.4,-73.65 614.85,-72.64 616.53,-79.44"/>
</g>
<!-- Node20&#45;&gt;Node13 -->
<g id="edge6" class="edge">
<title>Node20&#45;&gt;Node13</title>
<path fill="none" stroke="midnightblue" d="M231.53,-56.32C243.59,-47.98 262.03,-35.21 276.27,-25.35"/>
<polygon fill="midnightblue" stroke="midnightblue" points="278.27,-28.22 284.5,-19.65 274.28,-22.47 278.27,-28.22"/>
</g>
<!-- Node27&#45;&gt;Node19 -->
<g id="edge15" class="edge">
<title>Node27&#45;&gt;Node19</title>
<path fill="none" stroke="midnightblue" d="M336.38,-224.34C355.16,-202.86 390.75,-162.17 410.63,-139.43"/>
<polygon fill="midnightblue" stroke="midnightblue" points="413.47,-141.5 417.42,-131.67 408.2,-136.89 413.47,-141.5"/>
</g>
<!-- Node28 -->
<g id="node13" class="node">
<title>Node28</title>
<g id="a_node13"><a xlink:href="algorithm_8h.html" target="_top" xlink:title=" ">
<polygon fill="white" stroke="red" points="182,-112.5 182,-131.5 306,-131.5 306,-112.5 182,-112.5"/>
<text text-anchor="middle" x="244" y="-119.5" font-family="Helvetica,sans-Serif" font-size="10.00">emlabcpp/algorithm.h</text>
</a>
</g>
</g>
<!-- Node27&#45;&gt;Node28 -->
<g id="edge13" class="edge">
<title>Node27&#45;&gt;Node28</title>
<path fill="none" stroke="midnightblue" d="M314.19,-224.34C299.45,-203.05 271.63,-162.89 255.8,-140.03"/>
<polygon fill="midnightblue" stroke="midnightblue" points="258.58,-137.9 250,-131.67 252.82,-141.88 258.58,-137.9"/>
</g>
<!-- Node32 -->
<g id="node14" class="node">
<title>Node32</title>
<g id="a_node14"><a xlink:href="traits_8h.html" target="_top" xlink:title=" ">
<polygon fill="white" stroke="red" points="456.5,-168.5 456.5,-187.5 601.5,-187.5 601.5,-168.5 456.5,-168.5"/>
<text text-anchor="middle" x="529" y="-175.5" font-family="Helvetica,sans-Serif" font-size="10.00">emlabcpp/protocol/traits.h</text>
</a>
</g>
</g>
<!-- Node27&#45;&gt;Node32 -->
<g id="edge16" class="edge">
<title>Node27&#45;&gt;Node32</title>
<path fill="none" stroke="midnightblue" d="M372.32,-224.47C408.15,-214.08 456.38,-200.08 489.82,-190.37"/>
<polygon fill="midnightblue" stroke="midnightblue" points="491.06,-193.66 499.69,-187.51 489.11,-186.93 491.06,-193.66"/>
</g>
<!-- Node28&#45;&gt;Node20 -->
<g id="edge14" class="edge">
<title>Node28&#45;&gt;Node20</title>
<path fill="none" stroke="midnightblue" d="M239.87,-112.08C236.49,-104.77 231.58,-94.18 227.38,-85.1"/>
<polygon fill="midnightblue" stroke="midnightblue" points="230.43,-83.36 223.05,-75.75 224.08,-86.3 230.43,-83.36"/>
</g>
<!-- Node32&#45;&gt;Node19 -->
<g id="edge17" class="edge">
<title>Node32&#45;&gt;Node19</title>
<path fill="none" stroke="midnightblue" d="M512.29,-168.32C495.69,-159.7 470,-146.36 450.78,-136.39"/>
<polygon fill="midnightblue" stroke="midnightblue" points="452.16,-133.16 441.67,-131.65 448.93,-139.37 452.16,-133.16"/>
</g>
<!-- Node32&#45;&gt;Node23 -->
<g id="edge18" class="edge">
<title>Node32&#45;&gt;Node23</title>
<path fill="none" stroke="midnightblue" d="M529.55,-168.37C530.68,-150.62 533.28,-109.67 534.82,-85.6"/>
<polygon fill="midnightblue" stroke="midnightblue" points="538.31,-85.79 535.45,-75.59 531.33,-85.35 538.31,-85.79"/>
</g>
<!-- Node32&#45;&gt;Node17 -->
<g id="edge19" class="edge">
<title>Node32&#45;&gt;Node17</title>
<path fill="none" stroke="midnightblue" d="M538.57,-168.37C559.15,-149.81 607.84,-105.91 633.88,-82.44"/>
<polygon fill="midnightblue" stroke="midnightblue" points="636.39,-84.89 641.47,-75.59 631.7,-79.69 636.39,-84.89"/>
</g>
</g>
</svg>
