<?xml version="1.0" encoding="UTF-8" standalone="no"?>
<!DOCTYPE svg PUBLIC "-//W3C//DTD SVG 1.1//EN"
 "http://www.w3.org/Graphics/SVG/1.1/DTD/svg11.dtd">
<!-- Generated by graphviz version 2.43.0 (0)
 -->
<!-- Title: include/emlabcpp/protocol/streams.h Pages: 1 -->
<svg width="654pt" height="341pt"
 viewBox="0.00 0.00 654.00 341.00" xmlns="http://www.w3.org/2000/svg" xmlns:xlink="http://www.w3.org/1999/xlink">
<g id="graph0" class="graph" transform="scale(1 1) rotate(0) translate(4 337)">
<title>include/emlabcpp/protocol/streams.h</title>
<polygon fill="white" stroke="transparent" points="-4,4 -4,-337 650,-337 650,4 -4,4"/>
<!-- Node1 -->
<g id="node1" class="node">
<title>Node1</title>
<g id="a_node1"><a xlink:title=" ">
<polygon fill="#bfbfbf" stroke="black" points="269,-302.5 269,-332.5 415,-332.5 415,-302.5 269,-302.5"/>
<text text-anchor="start" x="277" y="-320.5" font-family="Helvetica,sans-Serif" font-size="10.00">include/emlabcpp/protocol</text>
<text text-anchor="middle" x="342" y="-309.5" font-family="Helvetica,sans-Serif" font-size="10.00">/streams.h</text>
</a>
</g>
</g>
<!-- Node2 -->
<g id="node2" class="node">
<title>Node2</title>
<g id="a_node2"><a xlink:href="enum_8h.html" target="_top" xlink:title=" ">
<polygon fill="white" stroke="black" points="0,-112.5 0,-131.5 104,-131.5 104,-112.5 0,-112.5"/>
<text text-anchor="middle" x="52" y="-119.5" font-family="Helvetica,sans-Serif" font-size="10.00">emlabcpp/enum.h</text>
</a>
</g>
</g>
<!-- Node1&#45;&gt;Node2 -->
<g id="edge1" class="edge">
<title>Node1&#45;&gt;Node2</title>
<path fill="none" stroke="midnightblue" d="M313.46,-302.46C294.52,-292.83 269.32,-279.42 248,-266 180.26,-223.37 105.09,-165.24 70.85,-138.11"/>
<polygon fill="midnightblue" stroke="midnightblue" points="72.69,-135.1 62.68,-131.61 68.33,-140.57 72.69,-135.1"/>
</g>
<!-- Node4 -->
<g id="node4" class="node">
<title>Node4</title>
<g id="a_node4"><a xlink:href="protocol_2base_8h.html" target="_top" xlink:title=" ">
<polygon fill="white" stroke="black" points="264.5,-112.5 264.5,-131.5 407.5,-131.5 407.5,-112.5 264.5,-112.5"/>
<text text-anchor="middle" x="336" y="-119.5" font-family="Helvetica,sans-Serif" font-size="10.00">emlabcpp/protocol/base.h</text>
</a>
</g>
</g>
<!-- Node1&#45;&gt;Node4 -->
<g id="edge3" class="edge">
<title>Node1&#45;&gt;Node4</title>
<path fill="none" stroke="midnightblue" d="M301.98,-302.38C285.61,-294.4 268.34,-282.62 259,-266 233.11,-219.94 286.38,-164.69 316.79,-138.39"/>
<polygon fill="midnightblue" stroke="midnightblue" points="319.27,-140.88 324.68,-131.77 314.77,-135.51 319.27,-140.88"/>
</g>
<!-- Node38 -->
<g id="node11" class="node">
<title>Node38</title>
<g id="a_node11"><a xlink:href="register__map_8h.html" target="_top" xlink:title=" ">
<polygon fill="white" stroke="black" points="268,-235.5 268,-265.5 416,-265.5 416,-235.5 268,-235.5"/>
<text text-anchor="start" x="276" y="-253.5" font-family="Helvetica,sans-Serif" font-size="10.00">emlabcpp/protocol/register</text>
<text text-anchor="middle" x="342" y="-242.5" font-family="Helvetica,sans-Serif" font-size="10.00">_map.h</text>
</a>
</g>
</g>
<!-- Node1&#45;&gt;Node38 -->
<g id="edge12" class="edge">
<title>Node1&#45;&gt;Node38</title>
<path fill="none" stroke="midnightblue" d="M342,-302.4C342,-294.64 342,-284.81 342,-275.86"/>
<polygon fill="midnightblue" stroke="midnightblue" points="345.5,-275.58 342,-265.58 338.5,-275.58 345.5,-275.58"/>
</g>
<!-- Node53 -->
<g id="node14" class="node">
<title>Node53</title>
<g id="a_node14"><a xlink:href="range_8h.html" target="_top" xlink:title=" ">
<polygon fill="white" stroke="black" points="434,-241 434,-260 538,-260 538,-241 434,-241"/>
<text text-anchor="middle" x="486" y="-248" font-family="Helvetica,sans-Serif" font-size="10.00">emlabcpp/range.h</text>
</a>
</g>
</g>
<!-- Node1&#45;&gt;Node53 -->
<g id="edge20" class="edge">
<title>Node1&#45;&gt;Node53</title>
<path fill="none" stroke="midnightblue" d="M373.25,-302.4C398.4,-291.04 433.45,-275.22 457.77,-264.24"/>
<polygon fill="midnightblue" stroke="midnightblue" points="459.48,-267.31 467.15,-260.01 456.6,-260.93 459.48,-267.31"/>
</g>
<!-- Node55 -->
<g id="node16" class="node">
<title>Node55</title>
<g id="a_node16"><a xlink:title=" ">
<polygon fill="white" stroke="#bfbfbf" points="556,-241 556,-260 612,-260 612,-241 556,-241"/>
<text text-anchor="middle" x="584" y="-248" font-family="Helvetica,sans-Serif" font-size="10.00">iomanip</text>
</a>
</g>
</g>
<!-- Node1&#45;&gt;Node55 -->
<g id="edge22" class="edge">
<title>Node1&#45;&gt;Node55</title>
<path fill="none" stroke="midnightblue" d="M408.63,-302.43C449.03,-293.32 501.41,-280.48 547,-266 549.27,-265.28 551.61,-264.49 553.95,-263.66"/>
<polygon fill="midnightblue" stroke="midnightblue" points="555.29,-266.89 563.43,-260.12 552.84,-260.34 555.29,-266.89"/>
</g>
<!-- Node3 -->
<g id="node3" class="node">
<title>Node3</title>
<g id="a_node3"><a xlink:title=" ">
<polygon fill="white" stroke="#bfbfbf" points="105.5,-0.5 105.5,-19.5 174.5,-19.5 174.5,-0.5 105.5,-0.5"/>
<text text-anchor="middle" x="140" y="-7.5" font-family="Helvetica,sans-Serif" font-size="10.00">type_traits</text>
</a>
</g>
</g>
<!-- Node2&#45;&gt;Node3 -->
<g id="edge2" class="edge">
<title>Node2&#45;&gt;Node3</title>
<path fill="none" stroke="midnightblue" d="M52.65,-112.15C54.02,-98.79 58.24,-73.18 71,-56 81.04,-42.47 96.46,-31.86 110.17,-24.35"/>
<polygon fill="midnightblue" stroke="midnightblue" points="112.02,-27.34 119.3,-19.65 108.81,-21.12 112.02,-27.34"/>
</g>
<!-- Node4&#45;&gt;Node3 -->
<g id="edge10" class="edge">
<title>Node4&#45;&gt;Node3</title>
<path fill="none" stroke="midnightblue" d="M318.28,-112.39C300.37,-103.58 272,-89.34 248,-76 217.84,-59.24 183.86,-38.47 162.21,-24.98"/>
<polygon fill="midnightblue" stroke="midnightblue" points="163.8,-21.85 153.46,-19.51 160.09,-27.78 163.8,-21.85"/>
</g>
<!-- Node5 -->
<g id="node5" class="node">
<title>Node5</title>
<g id="a_node5"><a xlink:href="bounded_8h.html" target="_top" xlink:title=" ">
<polygon fill="white" stroke="red" points="80.5,-56.5 80.5,-75.5 199.5,-75.5 199.5,-56.5 80.5,-56.5"/>
<text text-anchor="middle" x="140" y="-63.5" font-family="Helvetica,sans-Serif" font-size="10.00">emlabcpp/bounded.h</text>
</a>
</g>
</g>
<!-- Node4&#45;&gt;Node5 -->
<g id="edge4" class="edge">
<title>Node4&#45;&gt;Node5</title>
<path fill="none" stroke="midnightblue" d="M304.94,-112.44C271.4,-103.2 217.8,-88.44 180.86,-78.26"/>
<polygon fill="midnightblue" stroke="midnightblue" points="181.48,-74.8 170.91,-75.52 179.62,-81.55 181.48,-74.8"/>
</g>
<!-- Node33 -->
<g id="node6" class="node">
<title>Node33</title>
<g id="a_node6"><a xlink:href="protocol_2error_8h.html" target="_top" xlink:title=" ">
<polygon fill="white" stroke="red" points="504,-56.5 504,-75.5 646,-75.5 646,-56.5 504,-56.5"/>
<text text-anchor="middle" x="575" y="-63.5" font-family="Helvetica,sans-Serif" font-size="10.00">emlabcpp/protocol/error.h</text>
</a>
</g>
</g>
<!-- Node4&#45;&gt;Node33 -->
<g id="edge6" class="edge">
<title>Node4&#45;&gt;Node33</title>
<path fill="none" stroke="midnightblue" d="M373.87,-112.44C415.48,-103.04 482.37,-87.93 527.47,-77.74"/>
<polygon fill="midnightblue" stroke="midnightblue" points="528.32,-81.13 537.31,-75.52 526.78,-74.31 528.32,-81.13"/>
</g>
<!-- Node35 -->
<g id="node7" class="node">
<title>Node35</title>
<g id="a_node7"><a xlink:title=" ">
<polygon fill="white" stroke="#bfbfbf" points="256.5,-56.5 256.5,-75.5 285.5,-75.5 285.5,-56.5 256.5,-56.5"/>
<text text-anchor="middle" x="271" y="-63.5" font-family="Helvetica,sans-Serif" font-size="10.00">bit</text>
</a>
</g>
</g>
<!-- Node4&#45;&gt;Node35 -->
<g id="edge7" class="edge">
<title>Node4&#45;&gt;Node35</title>
<path fill="none" stroke="midnightblue" d="M325.56,-112.32C315.85,-104.26 301.18,-92.08 289.5,-82.37"/>
<polygon fill="midnightblue" stroke="midnightblue" points="291.56,-79.53 281.63,-75.83 287.09,-84.92 291.56,-79.53"/>
</g>
<!-- Node36 -->
<g id="node8" class="node">
<title>Node36</title>
<g id="a_node8"><a xlink:title=" ">
<polygon fill="white" stroke="#bfbfbf" points="304,-56.5 304,-75.5 348,-75.5 348,-56.5 304,-56.5"/>
<text text-anchor="middle" x="326" y="-63.5" font-family="Helvetica,sans-Serif" font-size="10.00">bitset</text>
</a>
</g>
</g>
<!-- Node4&#45;&gt;Node36 -->
<g id="edge8" class="edge">
<title>Node4&#45;&gt;Node36</title>
<path fill="none" stroke="midnightblue" d="M334.35,-112.08C333.02,-104.93 331.12,-94.64 329.46,-85.69"/>
<polygon fill="midnightblue" stroke="midnightblue" points="332.88,-84.95 327.62,-75.75 326,-86.22 332.88,-84.95"/>
</g>
<!-- Node37 -->
<g id="node9" class="node">
<title>Node37</title>
<g id="a_node9"><a xlink:title=" ">
<polygon fill="white" stroke="#bfbfbf" points="366,-56.5 366,-75.5 416,-75.5 416,-56.5 366,-56.5"/>
<text text-anchor="middle" x="391" y="-63.5" font-family="Helvetica,sans-Serif" font-size="10.00">cstring</text>
</a>
</g>
</g>
<!-- Node4&#45;&gt;Node37 -->
<g id="edge9" class="edge">
<title>Node4&#45;&gt;Node37</title>
<path fill="none" stroke="midnightblue" d="M345.08,-112.08C353.17,-104.14 365.2,-92.34 374.91,-82.8"/>
<polygon fill="midnightblue" stroke="midnightblue" points="377.4,-85.25 382.09,-75.75 372.5,-80.26 377.4,-85.25"/>
</g>
<!-- Node15 -->
<g id="node10" class="node">
<title>Node15</title>
<g id="a_node10"><a xlink:title=" ">
<polygon fill="white" stroke="#bfbfbf" points="434.5,-56.5 434.5,-75.5 485.5,-75.5 485.5,-56.5 434.5,-56.5"/>
<text text-anchor="middle" x="460" y="-63.5" font-family="Helvetica,sans-Serif" font-size="10.00">variant</text>
</a>
</g>
</g>
<!-- Node4&#45;&gt;Node15 -->
<g id="edge11" class="edge">
<title>Node4&#45;&gt;Node15</title>
<path fill="none" stroke="midnightblue" d="M355.65,-112.44C375.96,-103.6 407.9,-89.69 431.1,-79.59"/>
<polygon fill="midnightblue" stroke="midnightblue" points="432.67,-82.72 440.44,-75.52 429.88,-76.3 432.67,-82.72"/>
</g>
<!-- Node5&#45;&gt;Node3 -->
<g id="edge5" class="edge">
<title>Node5&#45;&gt;Node3</title>
<path fill="none" stroke="midnightblue" d="M140,-56.08C140,-49.01 140,-38.86 140,-29.99"/>
<polygon fill="midnightblue" stroke="midnightblue" points="143.5,-29.75 140,-19.75 136.5,-29.75 143.5,-29.75"/>
</g>
<!-- Node38&#45;&gt;Node4 -->
<g id="edge15" class="edge">
<title>Node38&#45;&gt;Node4</title>
<path fill="none" stroke="midnightblue" d="M341.33,-235.48C340.26,-212.72 338.12,-167.7 336.9,-142.06"/>
<polygon fill="midnightblue" stroke="midnightblue" points="340.39,-141.61 336.42,-131.79 333.39,-141.94 340.39,-141.61"/>
</g>
<!-- Node39 -->
<g id="node12" class="node">
<title>Node39</title>
<g id="a_node12"><a xlink:href="algorithm_8h.html" target="_top" xlink:title=" ">
<polygon fill="white" stroke="red" points="122,-112.5 122,-131.5 246,-131.5 246,-112.5 122,-112.5"/>
<text text-anchor="middle" x="184" y="-119.5" font-family="Helvetica,sans-Serif" font-size="10.00">emlabcpp/algorithm.h</text>
</a>
</g>
</g>
<!-- Node38&#45;&gt;Node39 -->
<g id="edge13" class="edge">
<title>Node38&#45;&gt;Node39</title>
<path fill="none" stroke="midnightblue" d="M324.49,-235.48C294.52,-211.49 233.67,-162.77 202.83,-138.08"/>
<polygon fill="midnightblue" stroke="midnightblue" points="204.97,-135.31 194.98,-131.79 200.6,-140.77 204.97,-135.31"/>
</g>
<!-- Node43 -->
<g id="node13" class="node">
<title>Node43</title>
<g id="a_node13"><a xlink:href="traits_8h.html" target="_top" xlink:title=" ">
<polygon fill="white" stroke="red" points="364.5,-174 364.5,-193 509.5,-193 509.5,-174 364.5,-174"/>
<text text-anchor="middle" x="437" y="-181" font-family="Helvetica,sans-Serif" font-size="10.00">emlabcpp/protocol/traits.h</text>
</a>
</g>
</g>
<!-- Node38&#45;&gt;Node43 -->
<g id="edge16" class="edge">
<title>Node38&#45;&gt;Node43</title>
<path fill="none" stroke="midnightblue" d="M362.61,-235.4C378.4,-224.6 400.09,-209.76 415.97,-198.89"/>
<polygon fill="midnightblue" stroke="midnightblue" points="418.29,-201.54 424.57,-193.01 414.34,-195.77 418.29,-201.54"/>
</g>
<!-- Node39&#45;&gt;Node5 -->
<g id="edge14" class="edge">
<title>Node39&#45;&gt;Node5</title>
<path fill="none" stroke="midnightblue" d="M176.73,-112.08C170.46,-104.38 161.21,-93.03 153.57,-83.65"/>
<polygon fill="midnightblue" stroke="midnightblue" points="156.16,-81.29 147.13,-75.75 150.73,-85.71 156.16,-81.29"/>
</g>
<!-- Node43&#45;&gt;Node4 -->
<g id="edge17" class="edge">
<title>Node43&#45;&gt;Node4</title>
<path fill="none" stroke="midnightblue" d="M422.53,-173.98C406.03,-164.25 378.82,-148.23 359.32,-136.74"/>
<polygon fill="midnightblue" stroke="midnightblue" points="360.84,-133.57 350.44,-131.51 357.28,-139.6 360.84,-133.57"/>
</g>
<!-- Node43&#45;&gt;Node33 -->
<g id="edge18" class="edge">
<title>Node43&#45;&gt;Node33</title>
<path fill="none" stroke="midnightblue" d="M447.37,-173.82C470.65,-154.34 527.3,-106.92 556.67,-82.34"/>
<polygon fill="midnightblue" stroke="midnightblue" points="559.09,-84.88 564.51,-75.78 554.59,-79.52 559.09,-84.88"/>
</g>
<!-- Node43&#45;&gt;Node15 -->
<g id="edge19" class="edge">
<title>Node43&#45;&gt;Node15</title>
<path fill="none" stroke="midnightblue" d="M438.73,-173.82C442.44,-155.17 451.25,-110.94 456.29,-85.63"/>
<polygon fill="midnightblue" stroke="midnightblue" points="459.73,-86.27 458.25,-75.78 452.87,-84.91 459.73,-86.27"/>
</g>
<!-- Node54 -->
<g id="node15" class="node">
<title>Node54</title>
<g id="a_node15"><a xlink:href="numeric_8h.html" target="_top" xlink:title=" ">
<polygon fill="white" stroke="red" points="527.5,-168.5 527.5,-198.5 636.5,-198.5 636.5,-168.5 527.5,-168.5"/>
<text text-anchor="start" x="535.5" y="-186.5" font-family="Helvetica,sans-Serif" font-size="10.00">emlabcpp/iterators</text>
<text text-anchor="middle" x="582" y="-175.5" font-family="Helvetica,sans-Serif" font-size="10.00">/numeric.h</text>
</a>
</g>
</g>
<!-- Node53&#45;&gt;Node54 -->
<g id="edge21" class="edge">
<title>Node53&#45;&gt;Node54</title>
<path fill="none" stroke="midnightblue" d="M498.95,-240.73C512.67,-231.44 534.8,-216.46 552.76,-204.3"/>
<polygon fill="midnightblue" stroke="midnightblue" points="554.87,-207.09 561.19,-198.59 550.95,-201.3 554.87,-207.09"/>
</g>
</g>
</svg>
