<?xml version="1.0" encoding="UTF-8" standalone="no"?>
<!DOCTYPE svg PUBLIC "-//W3C//DTD SVG 1.1//EN"
 "http://www.w3.org/Graphics/SVG/1.1/DTD/svg11.dtd">
<!-- Generated by graphviz version 2.43.0 (0)
 -->
<!-- Title: include/emlabcpp/protocol/streams.h Pages: 1 -->
<svg width="1392pt" height="576pt"
 viewBox="0.00 0.00 1392.00 576.00" xmlns="http://www.w3.org/2000/svg" xmlns:xlink="http://www.w3.org/1999/xlink">
<g id="graph0" class="graph" transform="scale(1 1) rotate(0) translate(4 572)">
<title>include/emlabcpp/protocol/streams.h</title>
<polygon fill="white" stroke="transparent" points="-4,4 -4,-572 1388,-572 1388,4 -4,4"/>
<!-- Node1 -->
<g id="node1" class="node">
<title>Node1</title>
<g id="a_node1"><a xlink:title=" ">
<polygon fill="#bfbfbf" stroke="black" points="496,-537.5 496,-567.5 642,-567.5 642,-537.5 496,-537.5"/>
<text text-anchor="start" x="504" y="-555.5" font-family="Helvetica,sans-Serif" font-size="10.00">include/emlabcpp/protocol</text>
<text text-anchor="middle" x="569" y="-544.5" font-family="Helvetica,sans-Serif" font-size="10.00">/streams.h</text>
</a>
</g>
</g>
<!-- Node2 -->
<g id="node2" class="node">
<title>Node2</title>
<g id="a_node2"><a xlink:href="numeric_8h.html" target="_top" xlink:title=" ">
<polygon fill="white" stroke="black" points="725.5,-403.5 725.5,-433.5 834.5,-433.5 834.5,-403.5 725.5,-403.5"/>
<text text-anchor="start" x="733.5" y="-421.5" font-family="Helvetica,sans-Serif" font-size="10.00">emlabcpp/iterators</text>
<text text-anchor="middle" x="780" y="-410.5" font-family="Helvetica,sans-Serif" font-size="10.00">/numeric.h</text>
</a>
</g>
</g>
<!-- Node1&#45;&gt;Node2 -->
<g id="edge1" class="edge">
<title>Node1&#45;&gt;Node2</title>
<path fill="none" stroke="midnightblue" d="M577.71,-537.43C589.53,-519.43 612.26,-488.39 639,-470 661.88,-454.26 690.22,-442.86 715.47,-434.92"/>
<polygon fill="midnightblue" stroke="midnightblue" points="716.79,-438.18 725.35,-431.94 714.76,-431.48 716.79,-438.18"/>
</g>
<!-- Node17 -->
<g id="node17" class="node">
<title>Node17</title>
<g id="a_node17"><a xlink:href="protocol_2base_8h.html" target="_top" xlink:title=" ">
<polygon fill="white" stroke="black" points="266.5,-347.5 266.5,-366.5 409.5,-366.5 409.5,-347.5 266.5,-347.5"/>
<text text-anchor="middle" x="338" y="-354.5" font-family="Helvetica,sans-Serif" font-size="10.00">emlabcpp/protocol/base.h</text>
</a>
</g>
</g>
<!-- Node1&#45;&gt;Node17 -->
<g id="edge17" class="edge">
<title>Node1&#45;&gt;Node17</title>
<path fill="none" stroke="midnightblue" d="M508.92,-537.48C484.24,-529.64 456.48,-517.93 435,-501 390.96,-466.28 359.51,-406 345.75,-376.02"/>
<polygon fill="midnightblue" stroke="midnightblue" points="348.89,-374.48 341.63,-366.77 342.5,-377.32 348.89,-374.48"/>
</g>
<!-- Node25 -->
<g id="node25" class="node">
<title>Node25</title>
<g id="a_node25"><a xlink:href="register__map_8h.html" target="_top" xlink:title=" ">
<polygon fill="white" stroke="black" points="444,-470.5 444,-500.5 592,-500.5 592,-470.5 444,-470.5"/>
<text text-anchor="start" x="452" y="-488.5" font-family="Helvetica,sans-Serif" font-size="10.00">emlabcpp/protocol/register</text>
<text text-anchor="middle" x="518" y="-477.5" font-family="Helvetica,sans-Serif" font-size="10.00">_map.h</text>
</a>
</g>
</g>
<!-- Node1&#45;&gt;Node25 -->
<g id="edge29" class="edge">
<title>Node1&#45;&gt;Node25</title>
<path fill="none" stroke="midnightblue" d="M557.93,-537.4C551.32,-528.96 542.77,-518.07 535.28,-508.52"/>
<polygon fill="midnightblue" stroke="midnightblue" points="537.97,-506.28 529.04,-500.58 532.46,-510.6 537.97,-506.28"/>
</g>
<!-- Node39 -->
<g id="node39" class="node">
<title>Node39</title>
<g id="a_node39"><a xlink:title=" ">
<polygon fill="white" stroke="#bfbfbf" points="648,-476 648,-495 704,-495 704,-476 648,-476"/>
<text text-anchor="middle" x="676" y="-483" font-family="Helvetica,sans-Serif" font-size="10.00">iomanip</text>
</a>
</g>
</g>
<!-- Node1&#45;&gt;Node39 -->
<g id="edge65" class="edge">
<title>Node1&#45;&gt;Node39</title>
<path fill="none" stroke="midnightblue" d="M592.22,-537.4C610.33,-526.39 635.34,-511.2 653.31,-500.28"/>
<polygon fill="midnightblue" stroke="midnightblue" points="655.27,-503.19 662,-495.01 651.63,-497.21 655.27,-503.19"/>
</g>
<!-- Node3 -->
<g id="node3" class="node">
<title>Node3</title>
<g id="a_node3"><a xlink:href="iterator_8h.html" target="_top" xlink:title=" ">
<polygon fill="white" stroke="black" points="889,-291.5 889,-310.5 1001,-310.5 1001,-291.5 889,-291.5"/>
<text text-anchor="middle" x="945" y="-298.5" font-family="Helvetica,sans-Serif" font-size="10.00">emlabcpp/iterator.h</text>
</a>
</g>
</g>
<!-- Node2&#45;&gt;Node3 -->
<g id="edge2" class="edge">
<title>Node2&#45;&gt;Node3</title>
<path fill="none" stroke="midnightblue" d="M811.13,-403.5C830.28,-394.28 854.91,-381.3 875,-367 895.56,-352.37 916.4,-332.17 929.93,-318.19"/>
<polygon fill="midnightblue" stroke="midnightblue" points="932.64,-320.42 937,-310.77 927.57,-315.6 932.64,-320.42"/>
</g>
<!-- Node4 -->
<g id="node4" class="node">
<title>Node4</title>
<g id="a_node4"><a xlink:href="view_8h.html" target="_top" xlink:title=" ">
<polygon fill="white" stroke="black" points="960.5,-230 960.5,-249 1059.5,-249 1059.5,-230 960.5,-230"/>
<text text-anchor="middle" x="1010" y="-237" font-family="Helvetica,sans-Serif" font-size="10.00">emlabcpp/view.h</text>
</a>
</g>
</g>
<!-- Node3&#45;&gt;Node4 -->
<g id="edge3" class="edge">
<title>Node3&#45;&gt;Node4</title>
<path fill="none" stroke="midnightblue" d="M954.31,-291.48C964.45,-282.2 980.86,-267.17 993.25,-255.83"/>
<polygon fill="midnightblue" stroke="midnightblue" points="995.69,-258.34 1000.7,-249.01 990.96,-253.18 995.69,-258.34"/>
</g>
<!-- Node16 -->
<g id="node16" class="node">
<title>Node16</title>
<g id="a_node16"><a xlink:title=" ">
<polygon fill="white" stroke="#bfbfbf" points="889.5,-230 889.5,-249 942.5,-249 942.5,-230 889.5,-230"/>
<text text-anchor="middle" x="916" y="-237" font-family="Helvetica,sans-Serif" font-size="10.00">iterator</text>
</a>
</g>
</g>
<!-- Node3&#45;&gt;Node16 -->
<g id="edge16" class="edge">
<title>Node3&#45;&gt;Node16</title>
<path fill="none" stroke="midnightblue" d="M940.85,-291.48C936.62,-282.82 929.96,-269.15 924.6,-258.15"/>
<polygon fill="midnightblue" stroke="midnightblue" points="927.67,-256.46 920.15,-249.01 921.38,-259.53 927.67,-256.46"/>
</g>
<!-- Node5 -->
<g id="node5" class="node">
<title>Node5</title>
<g id="a_node5"><a xlink:href="types_8h.html" target="_top" xlink:title=" ">
<polygon fill="white" stroke="black" points="958,-168.5 958,-187.5 1062,-187.5 1062,-168.5 958,-168.5"/>
<text text-anchor="middle" x="1010" y="-175.5" font-family="Helvetica,sans-Serif" font-size="10.00">emlabcpp/types.h</text>
</a>
</g>
</g>
<!-- Node4&#45;&gt;Node5 -->
<g id="edge4" class="edge">
<title>Node4&#45;&gt;Node5</title>
<path fill="none" stroke="midnightblue" d="M1010,-229.98C1010,-221.58 1010,-208.48 1010,-197.66"/>
<polygon fill="midnightblue" stroke="midnightblue" points="1013.5,-197.51 1010,-187.51 1006.5,-197.51 1013.5,-197.51"/>
</g>
<!-- Node6 -->
<g id="node6" class="node">
<title>Node6</title>
<g id="a_node6"><a xlink:href="concepts_8h.html" target="_top" xlink:title=" ">
<polygon fill="white" stroke="black" points="518,-112.5 518,-131.5 638,-131.5 638,-112.5 518,-112.5"/>
<text text-anchor="middle" x="578" y="-119.5" font-family="Helvetica,sans-Serif" font-size="10.00">emlabcpp/concepts.h</text>
</a>
</g>
</g>
<!-- Node5&#45;&gt;Node6 -->
<g id="edge5" class="edge">
<title>Node5&#45;&gt;Node6</title>
<path fill="none" stroke="midnightblue" d="M957.89,-170.49C880.5,-160.81 735.03,-142.63 648.29,-131.79"/>
<polygon fill="midnightblue" stroke="midnightblue" points="648.63,-128.3 638.27,-130.53 647.76,-135.25 648.63,-128.3"/>
</g>
<!-- Node7 -->
<g id="node7" class="node">
<title>Node7</title>
<g id="a_node7"><a xlink:href="types_2base_8h.html" target="_top" xlink:title=" ">
<polygon fill="white" stroke="black" points="735,-56.5 735,-75.5 865,-75.5 865,-56.5 735,-56.5"/>
<text text-anchor="middle" x="800" y="-63.5" font-family="Helvetica,sans-Serif" font-size="10.00">emlabcpp/types/base.h</text>
</a>
</g>
</g>
<!-- Node5&#45;&gt;Node7 -->
<g id="edge14" class="edge">
<title>Node5&#45;&gt;Node7</title>
<path fill="none" stroke="midnightblue" d="M1023.2,-168.4C1041.29,-155.57 1069.85,-130.9 1054,-112 1031.49,-85.15 941.61,-74.31 875.12,-69.94"/>
<polygon fill="midnightblue" stroke="midnightblue" points="875.28,-66.45 865.08,-69.32 874.84,-73.43 875.28,-66.45"/>
</g>
<!-- Node15 -->
<g id="node15" class="node">
<title>Node15</title>
<g id="a_node15"><a xlink:title=" ">
<polygon fill="white" stroke="#bfbfbf" points="935,-112.5 935,-131.5 979,-131.5 979,-112.5 935,-112.5"/>
<text text-anchor="middle" x="957" y="-119.5" font-family="Helvetica,sans-Serif" font-size="10.00">string</text>
</a>
</g>
</g>
<!-- Node5&#45;&gt;Node15 -->
<g id="edge15" class="edge">
<title>Node5&#45;&gt;Node15</title>
<path fill="none" stroke="midnightblue" d="M1001.25,-168.08C993.53,-160.22 982.1,-148.57 972.78,-139.08"/>
<polygon fill="midnightblue" stroke="midnightblue" points="975.09,-136.44 965.59,-131.75 970.1,-141.34 975.09,-136.44"/>
</g>
<!-- Node6&#45;&gt;Node7 -->
<g id="edge6" class="edge">
<title>Node6&#45;&gt;Node7</title>
<path fill="none" stroke="midnightblue" d="M613.18,-112.44C651.58,-103.1 713.18,-88.12 755.06,-77.93"/>
<polygon fill="midnightblue" stroke="midnightblue" points="756.1,-81.28 764.99,-75.52 754.44,-74.48 756.1,-81.28"/>
</g>
<!-- Node14 -->
<g id="node14" class="node">
<title>Node14</title>
<g id="a_node14"><a xlink:title=" ">
<polygon fill="white" stroke="#bfbfbf" points="548,-56.5 548,-75.5 608,-75.5 608,-56.5 548,-56.5"/>
<text text-anchor="middle" x="578" y="-63.5" font-family="Helvetica,sans-Serif" font-size="10.00">concepts</text>
</a>
</g>
</g>
<!-- Node6&#45;&gt;Node14 -->
<g id="edge13" class="edge">
<title>Node6&#45;&gt;Node14</title>
<path fill="none" stroke="midnightblue" d="M578,-112.08C578,-105.01 578,-94.86 578,-85.99"/>
<polygon fill="midnightblue" stroke="midnightblue" points="581.5,-85.75 578,-75.75 574.5,-85.75 581.5,-85.75"/>
</g>
<!-- Node8 -->
<g id="node8" class="node">
<title>Node8</title>
<g id="a_node8"><a xlink:title=" ">
<polygon fill="white" stroke="#bfbfbf" points="317,-0.5 317,-19.5 359,-19.5 359,-0.5 317,-0.5"/>
<text text-anchor="middle" x="338" y="-7.5" font-family="Helvetica,sans-Serif" font-size="10.00">array</text>
</a>
</g>
</g>
<!-- Node7&#45;&gt;Node8 -->
<g id="edge7" class="edge">
<title>Node7&#45;&gt;Node8</title>
<path fill="none" stroke="midnightblue" d="M734.79,-57.38C634.03,-45.6 444.34,-23.43 369.5,-14.68"/>
<polygon fill="midnightblue" stroke="midnightblue" points="369.66,-11.18 359.32,-13.49 368.85,-18.13 369.66,-11.18"/>
</g>
<!-- Node9 -->
<g id="node9" class="node">
<title>Node9</title>
<g id="a_node9"><a xlink:title=" ">
<polygon fill="white" stroke="#bfbfbf" points="778,-0.5 778,-19.5 828,-19.5 828,-0.5 778,-0.5"/>
<text text-anchor="middle" x="803" y="-7.5" font-family="Helvetica,sans-Serif" font-size="10.00">cstdint</text>
</a>
</g>
</g>
<!-- Node7&#45;&gt;Node9 -->
<g id="edge8" class="edge">
<title>Node7&#45;&gt;Node9</title>
<path fill="none" stroke="midnightblue" d="M800.5,-56.08C800.89,-49.01 801.45,-38.86 801.95,-29.99"/>
<polygon fill="midnightblue" stroke="midnightblue" points="805.45,-29.93 802.51,-19.75 798.46,-29.54 805.45,-29.93"/>
</g>
<!-- Node10 -->
<g id="node10" class="node">
<title>Node10</title>
<g id="a_node10"><a xlink:title=" ">
<polygon fill="white" stroke="#bfbfbf" points="846,-0.5 846,-19.5 896,-19.5 896,-0.5 846,-0.5"/>
<text text-anchor="middle" x="871" y="-7.5" font-family="Helvetica,sans-Serif" font-size="10.00">ranges</text>
</a>
</g>
</g>
<!-- Node7&#45;&gt;Node10 -->
<g id="edge9" class="edge">
<title>Node7&#45;&gt;Node10</title>
<path fill="none" stroke="midnightblue" d="M811.41,-56.32C822.11,-48.18 838.34,-35.84 851.16,-26.09"/>
<polygon fill="midnightblue" stroke="midnightblue" points="853.54,-28.67 859.39,-19.83 849.31,-23.1 853.54,-28.67"/>
</g>
<!-- Node11 -->
<g id="node11" class="node">
<title>Node11</title>
<g id="a_node11"><a xlink:title=" ">
<polygon fill="white" stroke="#bfbfbf" points="1325.5,-0.5 1325.5,-19.5 1366.5,-19.5 1366.5,-0.5 1325.5,-0.5"/>
<text text-anchor="middle" x="1346" y="-7.5" font-family="Helvetica,sans-Serif" font-size="10.00">tuple</text>
</a>
</g>
</g>
<!-- Node7&#45;&gt;Node11 -->
<g id="edge10" class="edge">
<title>Node7&#45;&gt;Node11</title>
<path fill="none" stroke="midnightblue" d="M865.05,-58.57C983.14,-46.89 1228.59,-22.61 1315.05,-14.06"/>
<polygon fill="midnightblue" stroke="midnightblue" points="1315.64,-17.52 1325.24,-13.05 1314.95,-10.55 1315.64,-17.52"/>
</g>
<!-- Node12 -->
<g id="node12" class="node">
<title>Node12</title>
<g id="a_node12"><a xlink:title=" ">
<polygon fill="white" stroke="#bfbfbf" points="625.5,-0.5 625.5,-19.5 694.5,-19.5 694.5,-0.5 625.5,-0.5"/>
<text text-anchor="middle" x="660" y="-7.5" font-family="Helvetica,sans-Serif" font-size="10.00">type_traits</text>
</a>
</g>
</g>
<!-- Node7&#45;&gt;Node12 -->
<g id="edge11" class="edge">
<title>Node7&#45;&gt;Node12</title>
<path fill="none" stroke="midnightblue" d="M777.82,-56.44C754.57,-47.48 717.85,-33.31 691.58,-23.18"/>
<polygon fill="midnightblue" stroke="midnightblue" points="692.67,-19.85 682.08,-19.52 690.15,-26.38 692.67,-19.85"/>
</g>
<!-- Node13 -->
<g id="node13" class="node">
<title>Node13</title>
<g id="a_node13"><a xlink:title=" ">
<polygon fill="white" stroke="#bfbfbf" points="712.5,-0.5 712.5,-19.5 759.5,-19.5 759.5,-0.5 712.5,-0.5"/>
<text text-anchor="middle" x="736" y="-7.5" font-family="Helvetica,sans-Serif" font-size="10.00">vector</text>
</a>
</g>
</g>
<!-- Node7&#45;&gt;Node13 -->
<g id="edge12" class="edge">
<title>Node7&#45;&gt;Node13</title>
<path fill="none" stroke="midnightblue" d="M789.72,-56.32C780.16,-48.26 765.72,-36.08 754.22,-26.37"/>
<polygon fill="midnightblue" stroke="midnightblue" points="756.37,-23.61 746.47,-19.83 751.86,-28.96 756.37,-23.61"/>
</g>
<!-- Node17&#45;&gt;Node12 -->
<g id="edge27" class="edge">
<title>Node17&#45;&gt;Node12</title>
<path fill="none" stroke="midnightblue" d="M337.84,-347.27C337.75,-318.83 340.76,-227.29 381,-168 425.16,-102.92 448.84,-93.44 518,-56 548.72,-39.37 586.55,-27.76 615.44,-20.51"/>
<polygon fill="midnightblue" stroke="midnightblue" points="616.37,-23.88 625.26,-18.12 614.72,-17.08 616.37,-23.88"/>
</g>
<!-- Node18 -->
<g id="node18" class="node">
<title>Node18</title>
<g id="a_node18"><a xlink:href="bounded_8h.html" target="_top" xlink:title=" ">
<polygon fill="white" stroke="black" points="430.5,-230 430.5,-249 549.5,-249 549.5,-230 430.5,-230"/>
<text text-anchor="middle" x="490" y="-237" font-family="Helvetica,sans-Serif" font-size="10.00">emlabcpp/bounded.h</text>
</a>
</g>
</g>
<!-- Node17&#45;&gt;Node18 -->
<g id="edge18" class="edge">
<title>Node17&#45;&gt;Node18</title>
<path fill="none" stroke="midnightblue" d="M338.18,-347.24C338.92,-333.51 342.32,-306.89 357,-291 375.28,-271.23 402.11,-259.14 426.9,-251.77"/>
<polygon fill="midnightblue" stroke="midnightblue" points="427.93,-255.12 436.64,-249.08 426.06,-248.37 427.93,-255.12"/>
</g>
<!-- Node20 -->
<g id="node20" class="node">
<title>Node20</title>
<g id="a_node20"><a xlink:href="protocol_2error_8h.html" target="_top" xlink:title=" ">
<polygon fill="white" stroke="black" points="130,-291.5 130,-310.5 272,-310.5 272,-291.5 130,-291.5"/>
<text text-anchor="middle" x="201" y="-298.5" font-family="Helvetica,sans-Serif" font-size="10.00">emlabcpp/protocol/error.h</text>
</a>
</g>
</g>
<!-- Node17&#45;&gt;Node20 -->
<g id="edge22" class="edge">
<title>Node17&#45;&gt;Node20</title>
<path fill="none" stroke="midnightblue" d="M316.29,-347.44C293.65,-338.52 257.93,-324.44 232.25,-314.32"/>
<polygon fill="midnightblue" stroke="midnightblue" points="233.19,-310.93 222.61,-310.52 230.63,-317.44 233.19,-310.93"/>
</g>
<!-- Node22 -->
<g id="node22" class="node">
<title>Node22</title>
<g id="a_node22"><a xlink:title=" ">
<polygon fill="white" stroke="#bfbfbf" points="68,-291.5 68,-310.5 112,-310.5 112,-291.5 68,-291.5"/>
<text text-anchor="middle" x="90" y="-298.5" font-family="Helvetica,sans-Serif" font-size="10.00">bitset</text>
</a>
</g>
</g>
<!-- Node17&#45;&gt;Node22 -->
<g id="edge25" class="edge">
<title>Node17&#45;&gt;Node22</title>
<path fill="none" stroke="midnightblue" d="M291.62,-347.47C249.68,-339.51 186.03,-326.83 122.13,-311.14"/>
<polygon fill="midnightblue" stroke="midnightblue" points="122.84,-307.71 112.29,-308.7 121.16,-314.5 122.84,-307.71"/>
</g>
<!-- Node23 -->
<g id="node23" class="node">
<title>Node23</title>
<g id="a_node23"><a xlink:title=" ">
<polygon fill="white" stroke="#bfbfbf" points="0,-291.5 0,-310.5 50,-310.5 50,-291.5 0,-291.5"/>
<text text-anchor="middle" x="25" y="-298.5" font-family="Helvetica,sans-Serif" font-size="10.00">cstring</text>
</a>
</g>
</g>
<!-- Node17&#45;&gt;Node23 -->
<g id="edge26" class="edge">
<title>Node17&#45;&gt;Node23</title>
<path fill="none" stroke="midnightblue" d="M273.67,-347.47C219.24,-339.83 138.98,-327.58 60.27,-311.1"/>
<polygon fill="midnightblue" stroke="midnightblue" points="60.69,-307.61 50.18,-308.96 59.24,-314.46 60.69,-307.61"/>
</g>
<!-- Node24 -->
<g id="node24" class="node">
<title>Node24</title>
<g id="a_node24"><a xlink:title=" ">
<polygon fill="white" stroke="#bfbfbf" points="366.5,-291.5 366.5,-310.5 417.5,-310.5 417.5,-291.5 366.5,-291.5"/>
<text text-anchor="middle" x="392" y="-298.5" font-family="Helvetica,sans-Serif" font-size="10.00">variant</text>
</a>
</g>
</g>
<!-- Node17&#45;&gt;Node24 -->
<g id="edge28" class="edge">
<title>Node17&#45;&gt;Node24</title>
<path fill="none" stroke="midnightblue" d="M346.92,-347.08C354.78,-339.22 366.43,-327.57 375.92,-318.08"/>
<polygon fill="midnightblue" stroke="midnightblue" points="378.65,-320.3 383.25,-310.75 373.7,-315.35 378.65,-320.3"/>
</g>
<!-- Node18&#45;&gt;Node6 -->
<g id="edge19" class="edge">
<title>Node18&#45;&gt;Node6</title>
<path fill="none" stroke="midnightblue" d="M496.61,-229.82C511.14,-210.76 546.04,-164.95 565.08,-139.96"/>
<polygon fill="midnightblue" stroke="midnightblue" points="568.03,-141.86 571.31,-131.78 562.46,-137.62 568.03,-141.86"/>
</g>
<!-- Node18&#45;&gt;Node12 -->
<g id="edge21" class="edge">
<title>Node18&#45;&gt;Node12</title>
<path fill="none" stroke="midnightblue" d="M489.3,-229.94C487.43,-200.48 485.61,-102.59 539,-56 560.52,-37.22 590.6,-25.99 615.39,-19.44"/>
<polygon fill="midnightblue" stroke="midnightblue" points="616.42,-22.79 625.29,-16.99 614.74,-15.99 616.42,-22.79"/>
</g>
<!-- Node19 -->
<g id="node19" class="node">
<title>Node19</title>
<g id="a_node19"><a xlink:title=" ">
<polygon fill="white" stroke="#bfbfbf" points="390,-168.5 390,-187.5 446,-187.5 446,-168.5 390,-168.5"/>
<text text-anchor="middle" x="418" y="-175.5" font-family="Helvetica,sans-Serif" font-size="10.00">optional</text>
</a>
</g>
</g>
<!-- Node18&#45;&gt;Node19 -->
<g id="edge20" class="edge">
<title>Node18&#45;&gt;Node19</title>
<path fill="none" stroke="midnightblue" d="M479.68,-229.98C468.35,-220.61 449.93,-205.38 436.16,-194.01"/>
<polygon fill="midnightblue" stroke="midnightblue" points="438.23,-191.18 428.3,-187.51 433.78,-196.58 438.23,-191.18"/>
</g>
<!-- Node20&#45;&gt;Node8 -->
<g id="edge24" class="edge">
<title>Node20&#45;&gt;Node8</title>
<path fill="none" stroke="midnightblue" d="M198.42,-291.28C192.82,-271.51 180,-221.64 180,-179 180,-179 180,-179 180,-121 180,-59.79 260.87,-29.86 306.9,-17.78"/>
<polygon fill="midnightblue" stroke="midnightblue" points="307.83,-21.16 316.69,-15.34 306.14,-14.36 307.83,-21.16"/>
</g>
<!-- Node21 -->
<g id="node21" class="node">
<title>Node21</title>
<g id="a_node21"><a xlink:title=" ">
<polygon fill="white" stroke="#bfbfbf" points="208,-230 208,-249 272,-249 272,-230 208,-230"/>
<text text-anchor="middle" x="240" y="-237" font-family="Helvetica,sans-Serif" font-size="10.00">algorithm</text>
</a>
</g>
</g>
<!-- Node20&#45;&gt;Node21 -->
<g id="edge23" class="edge">
<title>Node20&#45;&gt;Node21</title>
<path fill="none" stroke="midnightblue" d="M206.59,-291.48C212.38,-282.64 221.59,-268.59 228.87,-257.48"/>
<polygon fill="midnightblue" stroke="midnightblue" points="231.87,-259.29 234.42,-249.01 226.01,-255.45 231.87,-259.29"/>
</g>
<!-- Node25&#45;&gt;Node17 -->
<g id="edge40" class="edge">
<title>Node25&#45;&gt;Node17</title>
<path fill="none" stroke="midnightblue" d="M494.88,-470.37C478.97,-460.49 457.45,-446.81 439,-434 409.79,-413.72 377.1,-388.67 357.03,-373.01"/>
<polygon fill="midnightblue" stroke="midnightblue" points="359.03,-370.13 349,-366.72 354.72,-375.64 359.03,-370.13"/>
</g>
<!-- Node26 -->
<g id="node26" class="node">
<title>Node26</title>
<g id="a_node26"><a xlink:href="algorithm_8h.html" target="_top" xlink:title=" ">
<polygon fill="white" stroke="black" points="1069,-291.5 1069,-310.5 1193,-310.5 1193,-291.5 1069,-291.5"/>
<text text-anchor="middle" x="1131" y="-298.5" font-family="Helvetica,sans-Serif" font-size="10.00">emlabcpp/algorithm.h</text>
</a>
</g>
</g>
<!-- Node25&#45;&gt;Node26 -->
<g id="edge30" class="edge">
<title>Node25&#45;&gt;Node26</title>
<path fill="none" stroke="midnightblue" d="M592.2,-475.43C673.43,-465.07 798.21,-447.78 844,-434 946.44,-403.16 1059.4,-342.68 1107.37,-315.64"/>
<polygon fill="midnightblue" stroke="midnightblue" points="1109.37,-318.53 1116.33,-310.54 1105.91,-312.44 1109.37,-318.53"/>
</g>
<!-- Node30 -->
<g id="node30" class="node">
<title>Node30</title>
<g id="a_node30"><a xlink:href="decl_8h.html" target="_top" xlink:title=" ">
<polygon fill="white" stroke="black" points="448,-409 448,-428 588,-428 588,-409 448,-409"/>
<text text-anchor="middle" x="518" y="-416" font-family="Helvetica,sans-Serif" font-size="10.00">emlabcpp/protocol/decl.h</text>
</a>
</g>
</g>
<!-- Node25&#45;&gt;Node30 -->
<g id="edge41" class="edge">
<title>Node25&#45;&gt;Node30</title>
<path fill="none" stroke="midnightblue" d="M518,-470.4C518,-461.06 518,-448.71 518,-438.52"/>
<polygon fill="midnightblue" stroke="midnightblue" points="521.5,-438.19 518,-428.19 514.5,-438.19 521.5,-438.19"/>
</g>
<!-- Node26&#45;&gt;Node4 -->
<g id="edge36" class="edge">
<title>Node26&#45;&gt;Node4</title>
<path fill="none" stroke="midnightblue" d="M1113.66,-291.48C1093.45,-281.53 1059.81,-264.99 1036.36,-253.46"/>
<polygon fill="midnightblue" stroke="midnightblue" points="1037.82,-250.28 1027.3,-249.01 1034.73,-256.56 1037.82,-250.28"/>
</g>
<!-- Node26&#45;&gt;Node5 -->
<g id="edge35" class="edge">
<title>Node26&#45;&gt;Node5</title>
<path fill="none" stroke="midnightblue" d="M1125.07,-291.47C1114.66,-276.81 1092,-246.26 1069,-224 1057.34,-212.72 1042.88,-201.65 1031.19,-193.31"/>
<polygon fill="midnightblue" stroke="midnightblue" points="1033.09,-190.37 1022.89,-187.51 1029.08,-196.11 1033.09,-190.37"/>
</g>
<!-- Node26&#45;&gt;Node11 -->
<g id="edge39" class="edge">
<title>Node26&#45;&gt;Node11</title>
<path fill="none" stroke="midnightblue" d="M1193.21,-296.69C1268.13,-288.95 1384,-263.35 1384,-179 1384,-179 1384,-179 1384,-121 1384,-86.81 1367.4,-49.76 1356.14,-28.57"/>
<polygon fill="midnightblue" stroke="midnightblue" points="1359.18,-26.83 1351.28,-19.77 1353.05,-30.22 1359.18,-26.83"/>
</g>
<!-- Node26&#45;&gt;Node18 -->
<g id="edge34" class="edge">
<title>Node26&#45;&gt;Node18</title>
<path fill="none" stroke="midnightblue" d="M1068.96,-294.24C949.01,-283.11 686.05,-258.7 560.04,-247"/>
<polygon fill="midnightblue" stroke="midnightblue" points="560.02,-243.48 549.74,-246.05 559.37,-250.45 560.02,-243.48"/>
</g>
<!-- Node27 -->
<g id="node27" class="node">
<title>Node27</title>
<g id="a_node27"><a xlink:href="impl_8h.html" target="_top" xlink:title=" ">
<polygon fill="white" stroke="black" points="1116.5,-224.5 1116.5,-254.5 1231.5,-254.5 1231.5,-224.5 1116.5,-224.5"/>
<text text-anchor="start" x="1124.5" y="-242.5" font-family="Helvetica,sans-Serif" font-size="10.00">emlabcpp/algorithm</text>
<text text-anchor="middle" x="1174" y="-231.5" font-family="Helvetica,sans-Serif" font-size="10.00">/impl.h</text>
</a>
</g>
</g>
<!-- Node26&#45;&gt;Node27 -->
<g id="edge31" class="edge">
<title>Node26&#45;&gt;Node27</title>
<path fill="none" stroke="midnightblue" d="M1137.16,-291.48C1142.55,-284.02 1150.62,-272.85 1157.83,-262.87"/>
<polygon fill="midnightblue" stroke="midnightblue" points="1160.85,-264.68 1163.87,-254.52 1155.17,-260.58 1160.85,-264.68"/>
</g>
<!-- Node28 -->
<g id="node28" class="node">
<title>Node28</title>
<g id="a_node28"><a xlink:title=" ">
<polygon fill="white" stroke="#bfbfbf" points="997.5,-112.5 997.5,-131.5 1044.5,-131.5 1044.5,-112.5 997.5,-112.5"/>
<text text-anchor="middle" x="1021" y="-119.5" font-family="Helvetica,sans-Serif" font-size="10.00">cmath</text>
</a>
</g>
</g>
<!-- Node26&#45;&gt;Node28 -->
<g id="edge37" class="edge">
<title>Node26&#45;&gt;Node28</title>
<path fill="none" stroke="midnightblue" d="M1193.14,-295.22C1256.14,-287.81 1340.08,-269.3 1308,-224 1249.42,-141.28 1117.4,-125.82 1054.95,-123.27"/>
<polygon fill="midnightblue" stroke="midnightblue" points="1054.95,-119.77 1044.84,-122.94 1054.72,-126.76 1054.95,-119.77"/>
</g>
<!-- Node29 -->
<g id="node29" class="node">
<title>Node29</title>
<g id="a_node29"><a xlink:title=" ">
<polygon fill="white" stroke="#bfbfbf" points="1249.5,-230 1249.5,-249 1298.5,-249 1298.5,-230 1249.5,-230"/>
<text text-anchor="middle" x="1274" y="-237" font-family="Helvetica,sans-Serif" font-size="10.00">cstdlib</text>
</a>
</g>
</g>
<!-- Node26&#45;&gt;Node29 -->
<g id="edge38" class="edge">
<title>Node26&#45;&gt;Node29</title>
<path fill="none" stroke="midnightblue" d="M1152.57,-291.37C1174.79,-282.43 1210.42,-267.97 1241,-255 1242.4,-254.4 1243.84,-253.79 1245.29,-253.17"/>
<polygon fill="midnightblue" stroke="midnightblue" points="1247.06,-256.21 1254.84,-249.02 1244.27,-249.79 1247.06,-256.21"/>
</g>
<!-- Node27&#45;&gt;Node5 -->
<g id="edge32" class="edge">
<title>Node27&#45;&gt;Node5</title>
<path fill="none" stroke="midnightblue" d="M1135.13,-224.4C1107.25,-214.28 1070.06,-200.79 1043.49,-191.15"/>
<polygon fill="midnightblue" stroke="midnightblue" points="1044.46,-187.78 1033.86,-187.66 1042.07,-194.36 1044.46,-187.78"/>
</g>
<!-- Node27&#45;&gt;Node11 -->
<g id="edge33" class="edge">
<title>Node27&#45;&gt;Node11</title>
<path fill="none" stroke="midnightblue" d="M1184.76,-224.27C1214.97,-184.31 1300.49,-71.19 1333.13,-28.02"/>
<polygon fill="midnightblue" stroke="midnightblue" points="1336.01,-30.01 1339.25,-19.93 1330.43,-25.79 1336.01,-30.01"/>
</g>
<!-- Node30&#45;&gt;Node5 -->
<g id="edge63" class="edge">
<title>Node30&#45;&gt;Node5</title>
<path fill="none" stroke="midnightblue" d="M588.28,-411.03C658.19,-403.47 759.57,-389.1 792,-367 853.86,-324.84 822.55,-270.77 881,-224 901.59,-207.52 928.63,-196.87 952.63,-190.09"/>
<polygon fill="midnightblue" stroke="midnightblue" points="953.59,-193.46 962.35,-187.5 951.79,-186.69 953.59,-193.46"/>
</g>
<!-- Node30&#45;&gt;Node17 -->
<g id="edge42" class="edge">
<title>Node30&#45;&gt;Node17</title>
<path fill="none" stroke="midnightblue" d="M492.21,-408.98C461.07,-398.68 408.52,-381.31 373.55,-369.75"/>
<polygon fill="midnightblue" stroke="midnightblue" points="374.34,-366.32 363.74,-366.51 372.14,-372.97 374.34,-366.32"/>
</g>
<!-- Node30&#45;&gt;Node20 -->
<g id="edge43" class="edge">
<title>Node30&#45;&gt;Node20</title>
<path fill="none" stroke="midnightblue" d="M507.03,-408.8C485.43,-391.82 437.86,-355.22 419,-347 375.87,-328.2 324.47,-317.1 282.4,-310.63"/>
<polygon fill="midnightblue" stroke="midnightblue" points="282.88,-307.17 272.48,-309.17 281.86,-314.09 282.88,-307.17"/>
</g>
<!-- Node30&#45;&gt;Node24 -->
<g id="edge64" class="edge">
<title>Node30&#45;&gt;Node24</title>
<path fill="none" stroke="midnightblue" d="M510.88,-408.76C499.41,-394.92 475.81,-367.45 453,-347 440.66,-335.94 425.7,-324.87 413.69,-316.48"/>
<polygon fill="midnightblue" stroke="midnightblue" points="415.39,-313.41 405.17,-310.63 411.43,-319.18 415.39,-313.41"/>
</g>
<!-- Node31 -->
<g id="node31" class="node">
<title>Node31</title>
<g id="a_node31"><a xlink:href="message_8h.html" target="_top" xlink:title=" ">
<polygon fill="white" stroke="black" points="436,-291.5 436,-310.5 600,-310.5 600,-291.5 436,-291.5"/>
<text text-anchor="middle" x="518" y="-298.5" font-family="Helvetica,sans-Serif" font-size="10.00">emlabcpp/protocol/message.h</text>
</a>
</g>
</g>
<!-- Node30&#45;&gt;Node31 -->
<g id="edge44" class="edge">
<title>Node30&#45;&gt;Node31</title>
<path fill="none" stroke="midnightblue" d="M518,-408.82C518,-390.26 518,-346.34 518,-320.97"/>
<polygon fill="midnightblue" stroke="midnightblue" points="521.5,-320.78 518,-310.78 514.5,-320.78 521.5,-320.78"/>
</g>
<!-- Node32 -->
<g id="node32" class="node">
<title>Node32</title>
<g id="a_node32"><a xlink:href="quantity_8h.html" target="_top" xlink:title=" ">
<polygon fill="white" stroke="black" points="765,-168.5 765,-187.5 881,-187.5 881,-168.5 765,-168.5"/>
<text text-anchor="middle" x="823" y="-175.5" font-family="Helvetica,sans-Serif" font-size="10.00">emlabcpp/quantity.h</text>
</a>
</g>
</g>
<!-- Node30&#45;&gt;Node32 -->
<g id="edge49" class="edge">
<title>Node30&#45;&gt;Node32</title>
<path fill="none" stroke="midnightblue" d="M588.07,-409.52C651.49,-401.21 739.25,-386.64 768,-367 823.46,-329.11 826.08,-237.78 824.38,-198.03"/>
<polygon fill="midnightblue" stroke="midnightblue" points="827.87,-197.65 823.8,-187.86 820.88,-198.05 827.87,-197.65"/>
</g>
<!-- Node36 -->
<g id="node36" class="node">
<title>Node36</title>
<g id="a_node36"><a xlink:href="static__vector_8h.html" target="_top" xlink:title=" ">
<polygon fill="white" stroke="black" points="619.5,-347.5 619.5,-366.5 758.5,-366.5 758.5,-347.5 619.5,-347.5"/>
<text text-anchor="middle" x="689" y="-354.5" font-family="Helvetica,sans-Serif" font-size="10.00">emlabcpp/static_vector.h</text>
</a>
</g>
</g>
<!-- Node30&#45;&gt;Node36 -->
<g id="edge57" class="edge">
<title>Node30&#45;&gt;Node36</title>
<path fill="none" stroke="midnightblue" d="M542.5,-408.98C571.96,-398.72 621.58,-381.46 654.8,-369.9"/>
<polygon fill="midnightblue" stroke="midnightblue" points="656.25,-373.1 664.55,-366.51 653.95,-366.49 656.25,-373.1"/>
</g>
<!-- Node31&#45;&gt;Node4 -->
<g id="edge46" class="edge">
<title>Node31&#45;&gt;Node4</title>
<path fill="none" stroke="midnightblue" d="M600.07,-294.97C687.7,-288.79 830.39,-276.39 952,-255 957.56,-254.02 963.37,-252.81 969.08,-251.5"/>
<polygon fill="midnightblue" stroke="midnightblue" points="970.27,-254.81 979.17,-249.07 968.63,-248 970.27,-254.81"/>
</g>
<!-- Node31&#45;&gt;Node6 -->
<g id="edge45" class="edge">
<title>Node31&#45;&gt;Node6</title>
<path fill="none" stroke="midnightblue" d="M529.03,-291.27C538.63,-283.01 552.05,-269.72 559,-255 576.65,-217.61 578.92,-168.15 578.68,-141.66"/>
<polygon fill="midnightblue" stroke="midnightblue" points="582.18,-141.44 578.45,-131.52 575.18,-141.6 582.18,-141.44"/>
</g>
<!-- Node31&#45;&gt;Node8 -->
<g id="edge47" class="edge">
<title>Node31&#45;&gt;Node8</title>
<path fill="none" stroke="midnightblue" d="M476.7,-291.47C423.56,-277.79 338,-245.46 338,-179 338,-179 338,-179 338,-121 338,-88.95 338,-51.64 338,-29.75"/>
<polygon fill="midnightblue" stroke="midnightblue" points="341.5,-29.56 338,-19.56 334.5,-29.56 341.5,-29.56"/>
</g>
<!-- Node31&#45;&gt;Node19 -->
<g id="edge48" class="edge">
<title>Node31&#45;&gt;Node19</title>
<path fill="none" stroke="midnightblue" d="M477.43,-291.39C457.3,-284.9 434.64,-273.78 422,-255 410.73,-238.26 411.48,-214.44 413.93,-197.95"/>
<polygon fill="midnightblue" stroke="midnightblue" points="417.41,-198.34 415.76,-187.88 410.53,-197.09 417.41,-198.34"/>
</g>
<!-- Node32&#45;&gt;Node6 -->
<g id="edge50" class="edge">
<title>Node32&#45;&gt;Node6</title>
<path fill="none" stroke="midnightblue" d="M784.18,-168.44C741.44,-159.02 672.67,-143.87 626.43,-133.68"/>
<polygon fill="midnightblue" stroke="midnightblue" points="627.16,-130.25 616.64,-131.52 625.65,-137.09 627.16,-130.25"/>
</g>
<!-- Node32&#45;&gt;Node12 -->
<g id="edge56" class="edge">
<title>Node32&#45;&gt;Node12</title>
<path fill="none" stroke="midnightblue" d="M790.92,-168.36C769.86,-161.37 742.83,-149.73 724,-132 707.75,-116.7 680.89,-58.7 667.74,-28.91"/>
<polygon fill="midnightblue" stroke="midnightblue" points="670.91,-27.42 663.7,-19.66 664.49,-30.22 670.91,-27.42"/>
</g>
<!-- Node32&#45;&gt;Node15 -->
<g id="edge55" class="edge">
<title>Node32&#45;&gt;Node15</title>
<path fill="none" stroke="midnightblue" d="M844.23,-168.44C866.38,-159.52 901.32,-145.44 926.44,-135.32"/>
<polygon fill="midnightblue" stroke="midnightblue" points="927.9,-138.5 935.87,-131.52 925.28,-132.01 927.9,-138.5"/>
</g>
<!-- Node32&#45;&gt;Node28 -->
<g id="edge51" class="edge">
<title>Node32&#45;&gt;Node28</title>
<path fill="none" stroke="midnightblue" d="M854.37,-168.44C890.65,-158.55 950.15,-142.32 987.36,-132.17"/>
<polygon fill="midnightblue" stroke="midnightblue" points="988.5,-135.49 997.23,-129.48 986.66,-128.74 988.5,-135.49"/>
</g>
<!-- Node33 -->
<g id="node33" class="node">
<title>Node33</title>
<g id="a_node33"><a xlink:title=" ">
<polygon fill="white" stroke="#bfbfbf" points="789.5,-112.5 789.5,-131.5 854.5,-131.5 854.5,-112.5 789.5,-112.5"/>
<text text-anchor="middle" x="822" y="-119.5" font-family="Helvetica,sans-Serif" font-size="10.00">functional</text>
</a>
</g>
</g>
<!-- Node32&#45;&gt;Node33 -->
<g id="edge52" class="edge">
<title>Node32&#45;&gt;Node33</title>
<path fill="none" stroke="midnightblue" d="M822.83,-168.08C822.7,-161.01 822.52,-150.86 822.35,-141.99"/>
<polygon fill="midnightblue" stroke="midnightblue" points="825.85,-141.68 822.16,-131.75 818.85,-141.81 825.85,-141.68"/>
</g>
<!-- Node34 -->
<g id="node34" class="node">
<title>Node34</title>
<g id="a_node34"><a xlink:title=" ">
<polygon fill="white" stroke="#bfbfbf" points="873,-112.5 873,-131.5 917,-131.5 917,-112.5 873,-112.5"/>
<text text-anchor="middle" x="895" y="-119.5" font-family="Helvetica,sans-Serif" font-size="10.00">limits</text>
</a>
</g>
</g>
<!-- Node32&#45;&gt;Node34 -->
<g id="edge53" class="edge">
<title>Node32&#45;&gt;Node34</title>
<path fill="none" stroke="midnightblue" d="M834.57,-168.32C845.42,-160.18 861.88,-147.84 874.88,-138.09"/>
<polygon fill="midnightblue" stroke="midnightblue" points="877.32,-140.63 883.22,-131.83 873.12,-135.03 877.32,-140.63"/>
</g>
<!-- Node35 -->
<g id="node35" class="node">
<title>Node35</title>
<g id="a_node35"><a xlink:title=" ">
<polygon fill="white" stroke="#bfbfbf" points="732.5,-112.5 732.5,-131.5 771.5,-131.5 771.5,-112.5 732.5,-112.5"/>
<text text-anchor="middle" x="752" y="-119.5" font-family="Helvetica,sans-Serif" font-size="10.00">ratio</text>
</a>
</g>
</g>
<!-- Node32&#45;&gt;Node35 -->
<g id="edge54" class="edge">
<title>Node32&#45;&gt;Node35</title>
<path fill="none" stroke="midnightblue" d="M811.59,-168.32C800.89,-160.18 784.66,-147.84 771.84,-138.09"/>
<polygon fill="midnightblue" stroke="midnightblue" points="773.69,-135.1 763.61,-131.83 769.46,-140.67 773.69,-135.1"/>
</g>
<!-- Node36&#45;&gt;Node3 -->
<g id="edge59" class="edge">
<title>Node36&#45;&gt;Node3</title>
<path fill="none" stroke="midnightblue" d="M729.56,-347.44C774.32,-338 846.38,-322.8 894.7,-312.61"/>
<polygon fill="midnightblue" stroke="midnightblue" points="895.56,-316.01 904.63,-310.52 894.12,-309.16 895.56,-316.01"/>
</g>
<!-- Node36&#45;&gt;Node6 -->
<g id="edge58" class="edge">
<title>Node36&#45;&gt;Node6</title>
<path fill="none" stroke="midnightblue" d="M680.45,-347.32C672.3,-338.69 660.1,-324.78 652,-311 617.83,-252.89 593.26,-176.06 583.13,-141.38"/>
<polygon fill="midnightblue" stroke="midnightblue" points="586.47,-140.33 580.36,-131.68 579.74,-142.26 586.47,-140.33"/>
</g>
<!-- Node36&#45;&gt;Node12 -->
<g id="edge61" class="edge">
<title>Node36&#45;&gt;Node12</title>
<path fill="none" stroke="midnightblue" d="M686.09,-347.42C679.9,-328.41 666,-281.19 666,-240.5 666,-240.5 666,-240.5 666,-121 666,-88.9 663.42,-51.61 661.64,-29.73"/>
<polygon fill="midnightblue" stroke="midnightblue" points="665.11,-29.22 660.78,-19.55 658.14,-29.81 665.11,-29.22"/>
</g>
<!-- Node37 -->
<g id="node37" class="node">
<title>Node37</title>
<g id="a_node37"><a xlink:title=" ">
<polygon fill="white" stroke="#bfbfbf" points="694.5,-291.5 694.5,-310.5 731.5,-310.5 731.5,-291.5 694.5,-291.5"/>
<text text-anchor="middle" x="713" y="-298.5" font-family="Helvetica,sans-Serif" font-size="10.00">new</text>
</a>
</g>
</g>
<!-- Node36&#45;&gt;Node37 -->
<g id="edge60" class="edge">
<title>Node36&#45;&gt;Node37</title>
<path fill="none" stroke="midnightblue" d="M692.96,-347.08C696.21,-339.77 700.92,-329.18 704.95,-320.1"/>
<polygon fill="midnightblue" stroke="midnightblue" points="708.25,-321.31 709.11,-310.75 701.85,-318.47 708.25,-321.31"/>
</g>
<!-- Node38 -->
<g id="node38" class="node">
<title>Node38</title>
<g id="a_node38"><a xlink:title=" ">
<polygon fill="white" stroke="#bfbfbf" points="749.5,-291.5 749.5,-310.5 794.5,-310.5 794.5,-291.5 749.5,-291.5"/>
<text text-anchor="middle" x="772" y="-298.5" font-family="Helvetica,sans-Serif" font-size="10.00">utility</text>
</a>
</g>
</g>
<!-- Node36&#45;&gt;Node38 -->
<g id="edge62" class="edge">
<title>Node36&#45;&gt;Node38</title>
<path fill="none" stroke="midnightblue" d="M702.34,-347.32C715.16,-338.98 734.78,-326.21 749.94,-316.35"/>
<polygon fill="midnightblue" stroke="midnightblue" points="752.22,-319.04 758.7,-310.65 748.41,-313.17 752.22,-319.04"/>
</g>
</g>
</svg>
