<?xml version="1.0" encoding="UTF-8" standalone="no"?>
<!DOCTYPE svg PUBLIC "-//W3C//DTD SVG 1.1//EN"
 "http://www.w3.org/Graphics/SVG/1.1/DTD/svg11.dtd">
<!-- Generated by graphviz version 2.43.0 (0)
 -->
<!-- Title: include/emlabcpp/protocol/streams.h Pages: 1 -->
<svg width="563pt" height="330pt"
 viewBox="0.00 0.00 562.50 330.00" xmlns="http://www.w3.org/2000/svg" xmlns:xlink="http://www.w3.org/1999/xlink">
<g id="graph0" class="graph" transform="scale(1 1) rotate(0) translate(4 326)">
<title>include/emlabcpp/protocol/streams.h</title>
<polygon fill="white" stroke="transparent" points="-4,4 -4,-326 558.5,-326 558.5,4 -4,4"/>
<!-- Node1 -->
<g id="node1" class="node">
<title>Node1</title>
<g id="a_node1"><a xlink:title=" ">
<polygon fill="#bfbfbf" stroke="black" points="181,-291.5 181,-321.5 327,-321.5 327,-291.5 181,-291.5"/>
<text text-anchor="start" x="189" y="-309.5" font-family="Helvetica,sans-Serif" font-size="10.00">include/emlabcpp/protocol</text>
<text text-anchor="middle" x="254" y="-298.5" font-family="Helvetica,sans-Serif" font-size="10.00">/streams.h</text>
</a>
</g>
</g>
<!-- Node2 -->
<g id="node2" class="node">
<title>Node2</title>
<g id="a_node2"><a xlink:href="numeric_8h.html" target="_top" xlink:title=" ">
<polygon fill="white" stroke="black" points="1.5,-224.5 1.5,-254.5 110.5,-254.5 110.5,-224.5 1.5,-224.5"/>
<text text-anchor="start" x="9.5" y="-242.5" font-family="Helvetica,sans-Serif" font-size="10.00">emlabcpp/iterators</text>
<text text-anchor="middle" x="56" y="-231.5" font-family="Helvetica,sans-Serif" font-size="10.00">/numeric.h</text>
</a>
</g>
</g>
<!-- Node1&#45;&gt;Node2 -->
<g id="edge1" class="edge">
<title>Node1&#45;&gt;Node2</title>
<path fill="none" stroke="midnightblue" d="M211.04,-291.4C180.94,-281.52 140.54,-268.25 108.52,-257.74"/>
<polygon fill="midnightblue" stroke="midnightblue" points="109.47,-254.37 98.88,-254.58 107.29,-261.02 109.47,-254.37"/>
</g>
<!-- Node17 -->
<g id="node4" class="node">
<title>Node17</title>
<g id="a_node4"><a xlink:href="protocol_2base_8h.html" target="_top" xlink:title=" ">
<polygon fill="white" stroke="black" points="231.5,-112.5 231.5,-131.5 374.5,-131.5 374.5,-112.5 231.5,-112.5"/>
<text text-anchor="middle" x="303" y="-119.5" font-family="Helvetica,sans-Serif" font-size="10.00">emlabcpp/protocol/base.h</text>
</a>
</g>
</g>
<!-- Node1&#45;&gt;Node17 -->
<g id="edge3" class="edge">
<title>Node1&#45;&gt;Node17</title>
<path fill="none" stroke="midnightblue" d="M265.34,-291.37C272.48,-281.7 281.21,-268.28 286,-255 299.94,-216.38 302.72,-167.77 303.11,-141.65"/>
<polygon fill="midnightblue" stroke="midnightblue" points="306.61,-141.65 303.16,-131.64 299.61,-141.62 306.61,-141.65"/>
</g>
<!-- Node25 -->
<g id="node11" class="node">
<title>Node25</title>
<g id="a_node11"><a xlink:href="register__map_8h.html" target="_top" xlink:title=" ">
<polygon fill="white" stroke="black" points="129,-224.5 129,-254.5 277,-254.5 277,-224.5 129,-224.5"/>
<text text-anchor="start" x="137" y="-242.5" font-family="Helvetica,sans-Serif" font-size="10.00">emlabcpp/protocol/register</text>
<text text-anchor="middle" x="203" y="-231.5" font-family="Helvetica,sans-Serif" font-size="10.00">_map.h</text>
</a>
</g>
</g>
<!-- Node1&#45;&gt;Node25 -->
<g id="edge11" class="edge">
<title>Node1&#45;&gt;Node25</title>
<path fill="none" stroke="midnightblue" d="M242.93,-291.4C236.32,-282.96 227.77,-272.07 220.28,-262.52"/>
<polygon fill="midnightblue" stroke="midnightblue" points="222.97,-260.28 214.04,-254.58 217.46,-264.6 222.97,-260.28"/>
</g>
<!-- Node39 -->
<g id="node14" class="node">
<title>Node39</title>
<g id="a_node14"><a xlink:title=" ">
<polygon fill="white" stroke="#bfbfbf" points="333,-230 333,-249 389,-249 389,-230 333,-230"/>
<text text-anchor="middle" x="361" y="-237" font-family="Helvetica,sans-Serif" font-size="10.00">iomanip</text>
</a>
</g>
</g>
<!-- Node1&#45;&gt;Node39 -->
<g id="edge19" class="edge">
<title>Node1&#45;&gt;Node39</title>
<path fill="none" stroke="midnightblue" d="M277.22,-291.4C295.33,-280.39 320.34,-265.2 338.31,-254.28"/>
<polygon fill="midnightblue" stroke="midnightblue" points="340.27,-257.19 347,-249.01 336.63,-251.21 340.27,-257.19"/>
</g>
<!-- Node3 -->
<g id="node3" class="node">
<title>Node3</title>
<g id="a_node3"><a xlink:href="iterator_8h.html" target="_top" xlink:title=" ">
<polygon fill="white" stroke="red" points="0,-168.5 0,-187.5 112,-187.5 112,-168.5 0,-168.5"/>
<text text-anchor="middle" x="56" y="-175.5" font-family="Helvetica,sans-Serif" font-size="10.00">emlabcpp/iterator.h</text>
</a>
</g>
</g>
<!-- Node2&#45;&gt;Node3 -->
<g id="edge2" class="edge">
<title>Node2&#45;&gt;Node3</title>
<path fill="none" stroke="midnightblue" d="M56,-224.4C56,-216.47 56,-206.46 56,-197.86"/>
<polygon fill="midnightblue" stroke="midnightblue" points="59.5,-197.66 56,-187.66 52.5,-197.66 59.5,-197.66"/>
</g>
<!-- Node18 -->
<g id="node5" class="node">
<title>Node18</title>
<g id="a_node5"><a xlink:href="bounded_8h.html" target="_top" xlink:title=" ">
<polygon fill="white" stroke="red" points="37.5,-56.5 37.5,-75.5 156.5,-75.5 156.5,-56.5 37.5,-56.5"/>
<text text-anchor="middle" x="97" y="-63.5" font-family="Helvetica,sans-Serif" font-size="10.00">emlabcpp/bounded.h</text>
</a>
</g>
</g>
<!-- Node17&#45;&gt;Node18 -->
<g id="edge4" class="edge">
<title>Node17&#45;&gt;Node18</title>
<path fill="none" stroke="midnightblue" d="M270.36,-112.44C234.95,-103.16 178.29,-88.31 139.45,-78.13"/>
<polygon fill="midnightblue" stroke="midnightblue" points="140.05,-74.67 129.49,-75.52 138.27,-81.44 140.05,-74.67"/>
</g>
<!-- Node12 -->
<g id="node6" class="node">
<title>Node12</title>
<g id="a_node6"><a xlink:title=" ">
<polygon fill="white" stroke="#bfbfbf" points="140.5,-0.5 140.5,-19.5 209.5,-19.5 209.5,-0.5 140.5,-0.5"/>
<text text-anchor="middle" x="175" y="-7.5" font-family="Helvetica,sans-Serif" font-size="10.00">type_traits</text>
</a>
</g>
</g>
<!-- Node17&#45;&gt;Node12 -->
<g id="edge9" class="edge">
<title>Node17&#45;&gt;Node12</title>
<path fill="none" stroke="midnightblue" d="M294.34,-112.28C281.52,-99.51 256.59,-75.16 234,-56 221.48,-45.37 206.79,-34.17 195.21,-25.6"/>
<polygon fill="midnightblue" stroke="midnightblue" points="197.17,-22.7 187.04,-19.61 193.03,-28.35 197.17,-22.7"/>
</g>
<!-- Node20 -->
<g id="node7" class="node">
<title>Node20</title>
<g id="a_node7"><a xlink:href="protocol_2error_8h.html" target="_top" xlink:title=" ">
<polygon fill="white" stroke="red" points="343,-56.5 343,-75.5 485,-75.5 485,-56.5 343,-56.5"/>
<text text-anchor="middle" x="414" y="-63.5" font-family="Helvetica,sans-Serif" font-size="10.00">emlabcpp/protocol/error.h</text>
</a>
</g>
</g>
<!-- Node17&#45;&gt;Node20 -->
<g id="edge6" class="edge">
<title>Node17&#45;&gt;Node20</title>
<path fill="none" stroke="midnightblue" d="M320.83,-112.32C338.72,-103.62 366.48,-90.12 387.05,-80.11"/>
<polygon fill="midnightblue" stroke="midnightblue" points="388.75,-83.18 396.21,-75.65 385.69,-76.88 388.75,-83.18"/>
</g>
<!-- Node22 -->
<g id="node8" class="node">
<title>Node22</title>
<g id="a_node8"><a xlink:title=" ">
<polygon fill="white" stroke="#bfbfbf" points="281,-56.5 281,-75.5 325,-75.5 325,-56.5 281,-56.5"/>
<text text-anchor="middle" x="303" y="-63.5" font-family="Helvetica,sans-Serif" font-size="10.00">bitset</text>
</a>
</g>
</g>
<!-- Node17&#45;&gt;Node22 -->
<g id="edge7" class="edge">
<title>Node17&#45;&gt;Node22</title>
<path fill="none" stroke="midnightblue" d="M303,-112.08C303,-105.01 303,-94.86 303,-85.99"/>
<polygon fill="midnightblue" stroke="midnightblue" points="306.5,-85.75 303,-75.75 299.5,-85.75 306.5,-85.75"/>
</g>
<!-- Node23 -->
<g id="node9" class="node">
<title>Node23</title>
<g id="a_node9"><a xlink:title=" ">
<polygon fill="white" stroke="#bfbfbf" points="175,-56.5 175,-75.5 225,-75.5 225,-56.5 175,-56.5"/>
<text text-anchor="middle" x="200" y="-63.5" font-family="Helvetica,sans-Serif" font-size="10.00">cstring</text>
</a>
</g>
</g>
<!-- Node17&#45;&gt;Node23 -->
<g id="edge8" class="edge">
<title>Node17&#45;&gt;Node23</title>
<path fill="none" stroke="midnightblue" d="M286.45,-112.32C270.01,-103.7 244.57,-90.36 225.53,-80.39"/>
<polygon fill="midnightblue" stroke="midnightblue" points="226.99,-77.2 216.51,-75.65 223.74,-83.4 226.99,-77.2"/>
</g>
<!-- Node24 -->
<g id="node10" class="node">
<title>Node24</title>
<g id="a_node10"><a xlink:title=" ">
<polygon fill="white" stroke="#bfbfbf" points="503.5,-56.5 503.5,-75.5 554.5,-75.5 554.5,-56.5 503.5,-56.5"/>
<text text-anchor="middle" x="529" y="-63.5" font-family="Helvetica,sans-Serif" font-size="10.00">variant</text>
</a>
</g>
</g>
<!-- Node17&#45;&gt;Node24 -->
<g id="edge10" class="edge">
<title>Node17&#45;&gt;Node24</title>
<path fill="none" stroke="midnightblue" d="M340.38,-112.43C376.9,-104 434.29,-90.62 493.5,-76.08"/>
<polygon fill="midnightblue" stroke="midnightblue" points="494.53,-79.44 503.4,-73.65 492.85,-72.64 494.53,-79.44"/>
</g>
<!-- Node18&#45;&gt;Node12 -->
<g id="edge5" class="edge">
<title>Node18&#45;&gt;Node12</title>
<path fill="none" stroke="midnightblue" d="M109.53,-56.32C121.59,-47.98 140.03,-35.21 154.27,-25.35"/>
<polygon fill="midnightblue" stroke="midnightblue" points="156.27,-28.22 162.5,-19.65 152.28,-22.47 156.27,-28.22"/>
</g>
<!-- Node25&#45;&gt;Node17 -->
<g id="edge14" class="edge">
<title>Node25&#45;&gt;Node17</title>
<path fill="none" stroke="midnightblue" d="M215.26,-224.34C233.85,-202.86 269.09,-162.17 288.78,-139.43"/>
<polygon fill="midnightblue" stroke="midnightblue" points="291.59,-141.52 295.49,-131.67 286.3,-136.94 291.59,-141.52"/>
</g>
<!-- Node26 -->
<g id="node12" class="node">
<title>Node26</title>
<g id="a_node12"><a xlink:href="algorithm_8h.html" target="_top" xlink:title=" ">
<polygon fill="white" stroke="red" points="61,-112.5 61,-131.5 185,-131.5 185,-112.5 61,-112.5"/>
<text text-anchor="middle" x="123" y="-119.5" font-family="Helvetica,sans-Serif" font-size="10.00">emlabcpp/algorithm.h</text>
</a>
</g>
</g>
<!-- Node25&#45;&gt;Node26 -->
<g id="edge12" class="edge">
<title>Node25&#45;&gt;Node26</title>
<path fill="none" stroke="midnightblue" d="M193.19,-224.34C178.45,-203.05 150.63,-162.89 134.8,-140.03"/>
<polygon fill="midnightblue" stroke="midnightblue" points="137.58,-137.9 129,-131.67 131.82,-141.88 137.58,-137.9"/>
</g>
<!-- Node30 -->
<g id="node13" class="node">
<title>Node30</title>
<g id="a_node13"><a xlink:href="decl_8h.html" target="_top" xlink:title=" ">
<polygon fill="white" stroke="red" points="336,-168.5 336,-187.5 476,-187.5 476,-168.5 336,-168.5"/>
<text text-anchor="middle" x="406" y="-175.5" font-family="Helvetica,sans-Serif" font-size="10.00">emlabcpp/protocol/decl.h</text>
</a>
</g>
</g>
<!-- Node25&#45;&gt;Node30 -->
<g id="edge15" class="edge">
<title>Node25&#45;&gt;Node30</title>
<path fill="none" stroke="midnightblue" d="M250.85,-224.47C286.33,-214.08 334.09,-200.08 367.2,-190.37"/>
<polygon fill="midnightblue" stroke="midnightblue" points="368.37,-193.68 376.98,-187.51 366.4,-186.96 368.37,-193.68"/>
</g>
<!-- Node26&#45;&gt;Node18 -->
<g id="edge13" class="edge">
<title>Node26&#45;&gt;Node18</title>
<path fill="none" stroke="midnightblue" d="M118.71,-112.08C115.15,-104.69 109.98,-93.95 105.58,-84.81"/>
<polygon fill="midnightblue" stroke="midnightblue" points="108.71,-83.24 101.21,-75.75 102.4,-86.28 108.71,-83.24"/>
</g>
<!-- Node30&#45;&gt;Node17 -->
<g id="edge16" class="edge">
<title>Node30&#45;&gt;Node17</title>
<path fill="none" stroke="midnightblue" d="M389.45,-168.32C373.01,-159.7 347.57,-146.36 328.53,-136.39"/>
<polygon fill="midnightblue" stroke="midnightblue" points="329.99,-133.2 319.51,-131.65 326.74,-139.4 329.99,-133.2"/>
</g>
<!-- Node30&#45;&gt;Node20 -->
<g id="edge17" class="edge">
<title>Node30&#45;&gt;Node20</title>
<path fill="none" stroke="midnightblue" d="M406.63,-168.37C407.92,-150.62 410.9,-109.67 412.65,-85.6"/>
<polygon fill="midnightblue" stroke="midnightblue" points="416.14,-85.82 413.38,-75.59 409.16,-85.31 416.14,-85.82"/>
</g>
<!-- Node30&#45;&gt;Node24 -->
<g id="edge18" class="edge">
<title>Node30&#45;&gt;Node24</title>
<path fill="none" stroke="midnightblue" d="M415.65,-168.37C436.4,-149.81 485.49,-105.91 511.74,-82.44"/>
<polygon fill="midnightblue" stroke="midnightblue" points="514.27,-84.87 519.39,-75.59 509.61,-79.65 514.27,-84.87"/>
</g>
</g>
</svg>
