<?xml version="1.0" encoding="UTF-8" standalone="no"?>
<!DOCTYPE svg PUBLIC "-//W3C//DTD SVG 1.1//EN"
 "http://www.w3.org/Graphics/SVG/1.1/DTD/svg11.dtd">
<!-- Generated by graphviz version 2.43.0 (0)
 -->
<!-- Title: emlabcpp::cfg::lambda_update&lt; Read, Write, KeyCheck, ValueChanged, SerializeKey, TakeUnseenKey &gt; Pages: 1 -->
<svg width="181pt" height="128pt"
 viewBox="0.00 0.00 181.00 128.00" xmlns="http://www.w3.org/2000/svg" xmlns:xlink="http://www.w3.org/1999/xlink">
<g id="graph0" class="graph" transform="scale(1 1) rotate(0) translate(4 124)">
<title>emlabcpp::cfg::lambda_update&lt; Read, Write, KeyCheck, ValueChanged, SerializeKey, TakeUnseenKey &gt;</title>
<polygon fill="white" stroke="transparent" points="-4,4 -4,-124 177,-124 177,4 -4,4"/>
<!-- Node1 -->
<g id="node1" class="node">
<title>Node1</title>
<g id="a_node1"><a xlink:title=" ">
<polygon fill="#bfbfbf" stroke="black" points="0,-0.5 0,-52.5 173,-52.5 173,-0.5 0,-0.5"/>
<text text-anchor="start" x="8" y="-40.5" font-family="Helvetica,sans-Serif" font-size="10.00">emlabcpp::cfg::lambda</text>
<text text-anchor="start" x="8" y="-29.5" font-family="Helvetica,sans-Serif" font-size="10.00">_update&lt; Read, Write,</text>
<text text-anchor="start" x="8" y="-18.5" font-family="Helvetica,sans-Serif" font-size="10.00"> KeyCheck, ValueChanged,</text>
<text text-anchor="middle" x="86.5" y="-7.5" font-family="Helvetica,sans-Serif" font-size="10.00"> SerializeKey, TakeUnseenKey &gt;</text>
</a>
</g>
</g>
<!-- Node2 -->
<g id="node2" class="node">
<title>Node2</title>
<g id="a_node2"><a xlink:title=" ">
<polygon fill="white" stroke="#bfbfbf" points="23.5,-100.5 23.5,-119.5 149.5,-119.5 149.5,-100.5 23.5,-100.5"/>
<text text-anchor="middle" x="86.5" y="-107.5" font-family="Helvetica,sans-Serif" font-size="10.00">std::span&lt; std::byte &gt;</text>
</a>
</g>
</g>
<!-- Node2&#45;&gt;Node1 -->
<g id="edge1" class="edge">
<title>Node2&#45;&gt;Node1</title>
<path fill="none" stroke="#9a32cd" stroke-dasharray="5,2" d="M86.5,-90.04C86.5,-78.94 86.5,-64.8 86.5,-52.76"/>
<polygon fill="#9a32cd" stroke="#9a32cd" points="83,-90.28 86.5,-100.28 90,-90.28 83,-90.28"/>
<text text-anchor="middle" x="102.5" y="-74" font-family="Helvetica,sans-Serif" font-size="10.00"> buffer</text>
</g>
</g>
</svg>
