<?xml version="1.0" encoding="UTF-8" standalone="no"?>
<!DOCTYPE svg PUBLIC "-//W3C//DTD SVG 1.1//EN"
 "http://www.w3.org/Graphics/SVG/1.1/DTD/svg11.dtd">
<!-- Generated by graphviz version 2.43.0 (0)
 -->
<!-- Title: emlabcpp::pid_config Pages: 1 -->
<svg width="298pt" height="163pt"
 viewBox="0.00 0.00 298.00 163.00" xmlns="http://www.w3.org/2000/svg" xmlns:xlink="http://www.w3.org/1999/xlink">
<g id="graph0" class="graph" transform="scale(1 1) rotate(0) translate(4 159)">
<title>emlabcpp::pid_config</title>
<polygon fill="white" stroke="transparent" points="-4,4 -4,-159 294,-159 294,4 -4,4"/>
<!-- Node1 -->
<g id="node1" class="node">
<title>Node1</title>
<g id="a_node1"><a xlink:title="Structure to configure the pid regulator.">
<polygon fill="#bfbfbf" stroke="black" points="72.5,-0.5 72.5,-19.5 192.5,-19.5 192.5,-0.5 72.5,-0.5"/>
<text text-anchor="middle" x="132.5" y="-7.5" font-family="Helvetica,sans-Serif" font-size="10.00">emlabcpp::pid_config</text>
</a>
</g>
</g>
<!-- Node2 -->
<g id="node2" class="node">
<title>Node2</title>
<g id="a_node2"><a xlink:href="namespaceemlabcpp.html#structemlabcpp_1_1pid__coefficients" target="_top" xlink:title=" ">
<polygon fill="white" stroke="black" points="0,-73 0,-92 147,-92 147,-73 0,-73"/>
<text text-anchor="middle" x="73.5" y="-80" font-family="Helvetica,sans-Serif" font-size="10.00">emlabcpp::pid_coefficients</text>
</a>
</g>
</g>
<!-- Node2&#45;&gt;Node1 -->
<g id="edge1" class="edge">
<title>Node2&#45;&gt;Node1</title>
<path fill="none" stroke="#9a32cd" stroke-dasharray="5,2" d="M86.99,-65.08C93.73,-56.92 102.01,-46.92 109.5,-38 114.57,-31.96 120.32,-25.21 124.8,-19.97"/>
<polygon fill="#9a32cd" stroke="#9a32cd" points="84.29,-62.86 80.64,-72.8 89.69,-67.31 84.29,-62.86"/>
<text text-anchor="middle" x="139.5" y="-41" font-family="Helvetica,sans-Serif" font-size="10.00"> coefficients</text>
</g>
<!-- Node3 -->
<g id="node3" class="node">
<title>Node3</title>
<g id="a_node3"><a xlink:href="structemlabcpp_1_1min__max.html" target="_top" xlink:title=" ">
<polygon fill="white" stroke="black" points="165,-67.5 165,-97.5 290,-97.5 290,-67.5 165,-67.5"/>
<text text-anchor="start" x="173" y="-85.5" font-family="Helvetica,sans-Serif" font-size="10.00">emlabcpp::min_max&lt;</text>
<text text-anchor="middle" x="227.5" y="-74.5" font-family="Helvetica,sans-Serif" font-size="10.00"> float &gt;</text>
</a>
</g>
</g>
<!-- Node3&#45;&gt;Node1 -->
<g id="edge2" class="edge">
<title>Node3&#45;&gt;Node1</title>
<path fill="none" stroke="#9a32cd" stroke-dasharray="5,2" d="M200.57,-61.19C190.8,-53.85 179.67,-45.53 169.5,-38 161.19,-31.85 151.78,-24.99 144.53,-19.72"/>
<polygon fill="#9a32cd" stroke="#9a32cd" points="198.64,-64.12 208.74,-67.33 202.85,-58.52 198.64,-64.12"/>
<text text-anchor="middle" x="199" y="-41" font-family="Helvetica,sans-Serif" font-size="10.00"> limits</text>
</g>
<!-- Node4 -->
<g id="node4" class="node">
<title>Node4</title>
<g id="a_node4"><a xlink:title=" ">
<polygon fill="white" stroke="#bfbfbf" points="181.5,-135.5 181.5,-154.5 273.5,-154.5 273.5,-135.5 181.5,-135.5"/>
<text text-anchor="middle" x="227.5" y="-142.5" font-family="Helvetica,sans-Serif" font-size="10.00">std::array&lt; T &gt;</text>
</a>
</g>
</g>
<!-- Node4&#45;&gt;Node3 -->
<g id="edge3" class="edge">
<title>Node4&#45;&gt;Node3</title>
<path fill="none" stroke="midnightblue" d="M227.5,-125.22C227.5,-116.36 227.5,-105.96 227.5,-97.76"/>
<polygon fill="midnightblue" stroke="midnightblue" points="224,-125.33 227.5,-135.33 231,-125.33 224,-125.33"/>
</g>
</g>
</svg>
