<?xml version="1.0" encoding="UTF-8" standalone="no"?>
<!DOCTYPE svg PUBLIC "-//W3C//DTD SVG 1.1//EN"
 "http://www.w3.org/Graphics/SVG/1.1/DTD/svg11.dtd">
<!-- Generated by graphviz version 2.43.0 (0)
 -->
<!-- Title: emlabcpp::protocol::protocol_tuple&lt; Endianess, Ds &gt; Pages: 1 -->
<svg width="191pt" height="106pt"
 viewBox="0.00 0.00 191.00 106.00" xmlns="http://www.w3.org/2000/svg" xmlns:xlink="http://www.w3.org/1999/xlink">
<g id="graph0" class="graph" transform="scale(1 1) rotate(0) translate(4 102)">
<title>emlabcpp::protocol::protocol_tuple&lt; Endianess, Ds &gt;</title>
<polygon fill="white" stroke="transparent" points="-4,4 -4,-102 187,-102 187,4 -4,4"/>
<!-- Node1 -->
<g id="node1" class="node">
<title>Node1</title>
<g id="a_node1"><a xlink:title="protocol_tuple is high levle alternative to use just &#39;std::tuple&#39; that is more friendly for standalon...">
<polygon fill="#bfbfbf" stroke="black" points="0,-0.5 0,-30.5 183,-30.5 183,-0.5 0,-0.5"/>
<text text-anchor="start" x="8" y="-18.5" font-family="Helvetica,sans-Serif" font-size="10.00">emlabcpp::protocol</text>
<text text-anchor="middle" x="91.5" y="-7.5" font-family="Helvetica,sans-Serif" font-size="10.00">::protocol_tuple&lt; Endianess, Ds &gt;</text>
</a>
</g>
</g>
<!-- Node2 -->
<g id="node2" class="node">
<title>Node2</title>
<g id="a_node2"><a xlink:href="structemlabcpp_1_1protocol_1_1converter__def__type__base.html" target="_top" xlink:title="More complex constructs have custom mechanics that internally produces def_type alias used by the lib...">
<polygon fill="white" stroke="black" points="18.5,-67.5 18.5,-97.5 164.5,-97.5 164.5,-67.5 18.5,-67.5"/>
<text text-anchor="start" x="26.5" y="-85.5" font-family="Helvetica,sans-Serif" font-size="10.00">emlabcpp::protocol</text>
<text text-anchor="middle" x="91.5" y="-74.5" font-family="Helvetica,sans-Serif" font-size="10.00">::converter_def_type_base</text>
</a>
</g>
</g>
<!-- Node2&#45;&gt;Node1 -->
<g id="edge1" class="edge">
<title>Node2&#45;&gt;Node1</title>
<path fill="none" stroke="midnightblue" d="M91.5,-57.11C91.5,-48.15 91.5,-38.32 91.5,-30.58"/>
<polygon fill="midnightblue" stroke="midnightblue" points="88,-57.4 91.5,-67.4 95,-57.4 88,-57.4"/>
</g>
</g>
</svg>
