<?xml version="1.0" encoding="UTF-8" standalone="no"?>
<!DOCTYPE svg PUBLIC "-//W3C//DTD SVG 1.1//EN"
 "http://www.w3.org/Graphics/SVG/1.1/DTD/svg11.dtd">
<!-- Generated by graphviz version 2.43.0 (0)
 -->
<!-- Title: emlabcpp::protocol_def_type_base Pages: 1 -->
<svg width="758pt" height="765pt"
 viewBox="0.00 0.00 758.00 764.50" xmlns="http://www.w3.org/2000/svg" xmlns:xlink="http://www.w3.org/1999/xlink">
<g id="graph0" class="graph" transform="scale(1 1) rotate(0) translate(4 760.5)">
<title>emlabcpp::protocol_def_type_base</title>
<polygon fill="white" stroke="transparent" points="-4,4 -4,-760.5 754,-760.5 754,4 -4,4"/>
<!-- Node1 -->
<g id="node1" class="node">
<title>Node1</title>
<g id="a_node1"><a xlink:title="More complex constructs have custom mechanics that internally produces def_type alias used by the lib...">
<polygon fill="#bfbfbf" stroke="black" points="0,-511.5 0,-541.5 110,-541.5 110,-511.5 0,-511.5"/>
<text text-anchor="start" x="8" y="-529.5" font-family="Helvetica,sans-Serif" font-size="10.00">emlabcpp::protocol</text>
<text text-anchor="middle" x="55" y="-518.5" font-family="Helvetica,sans-Serif" font-size="10.00">_def_type_base</text>
</a>
</g>
</g>
<!-- Node2 -->
<g id="node2" class="node">
<title>Node2</title>
<g id="a_node2"><a xlink:href="structemlabcpp_1_1protocol__command__group.html" target="_top" xlink:title="Command group should be used as a collection of commands that are selected based on the ID,...">
<polygon fill="white" stroke="black" points="268.5,-715 268.5,-756 435.5,-756 435.5,-715 268.5,-715"/>
<text text-anchor="start" x="276.5" y="-744" font-family="Helvetica,sans-Serif" font-size="10.00">emlabcpp::protocol</text>
<text text-anchor="start" x="276.5" y="-733" font-family="Helvetica,sans-Serif" font-size="10.00">_command_group&lt; Endianess,</text>
<text text-anchor="middle" x="352" y="-722" font-family="Helvetica,sans-Serif" font-size="10.00"> Cmds &gt;</text>
</a>
</g>
</g>
<!-- Node1&#45;&gt;Node2 -->
<g id="edge1" class="edge">
<title>Node1&#45;&gt;Node2</title>
<path fill="none" stroke="midnightblue" d="M60.88,-551.46C70.05,-591.1 93.81,-667.84 146,-705.5 180.93,-730.71 228.04,-738.89 268.29,-740.47"/>
<polygon fill="midnightblue" stroke="midnightblue" points="64.27,-550.57 58.72,-541.55 57.43,-552.06 64.27,-550.57"/>
</g>
<!-- Node3 -->
<g id="node3" class="node">
<title>Node3</title>
<g id="a_node3"><a xlink:href="structemlabcpp_1_1protocol__tuple.html" target="_top" xlink:title="protocol_tuple is high levle alternative to use just &#39;std::tuple&#39; that is more friendly for standalon...">
<polygon fill="white" stroke="black" points="283.5,-665.5 283.5,-695.5 420.5,-695.5 420.5,-665.5 283.5,-665.5"/>
<text text-anchor="start" x="291.5" y="-683.5" font-family="Helvetica,sans-Serif" font-size="10.00">emlabcpp::protocol</text>
<text text-anchor="middle" x="352" y="-672.5" font-family="Helvetica,sans-Serif" font-size="10.00">_tuple&lt; Endianess, Ds &gt;</text>
</a>
</g>
</g>
<!-- Node1&#45;&gt;Node3 -->
<g id="edge2" class="edge">
<title>Node1&#45;&gt;Node3</title>
<path fill="none" stroke="midnightblue" d="M65.59,-550.97C78.8,-581.09 105.63,-631.22 146,-655.5 187.02,-680.17 241,-685.91 283.28,-685.75"/>
<polygon fill="midnightblue" stroke="midnightblue" points="68.75,-549.44 61.64,-541.59 62.3,-552.16 68.75,-549.44"/>
</g>
<!-- Node5 -->
<g id="node5" class="node">
<title>Node5</title>
<g id="a_node5"><a xlink:href="structemlabcpp_1_1protocol__command__group.html" target="_top" xlink:title=" ">
<polygon fill="white" stroke="black" points="146,-407 146,-646 558,-646 558,-407 146,-407"/>
<text text-anchor="start" x="154" y="-634" font-family="Helvetica,sans-Serif" font-size="10.00">emlabcpp::protocol</text>
<text text-anchor="start" x="154" y="-623" font-family="Helvetica,sans-Serif" font-size="10.00">_command_group&lt; PROTOCOL</text>
<text text-anchor="start" x="154" y="-612" font-family="Helvetica,sans-Serif" font-size="10.00">_BIG_ENDIAN, protocol_command</text>
<text text-anchor="start" x="154" y="-601" font-family="Helvetica,sans-Serif" font-size="10.00">&lt; TESTING_COUNT &gt;::with_args</text>
<text text-anchor="start" x="154" y="-590" font-family="Helvetica,sans-Serif" font-size="10.00">&lt; testing_test_id &gt;, protocol</text>
<text text-anchor="start" x="154" y="-579" font-family="Helvetica,sans-Serif" font-size="10.00">_command&lt; TESTING_NAME &gt;::with</text>
<text text-anchor="start" x="154" y="-568" font-family="Helvetica,sans-Serif" font-size="10.00">_args&lt; testing_name_buffer &gt;, protocol</text>
<text text-anchor="start" x="154" y="-557" font-family="Helvetica,sans-Serif" font-size="10.00">_command&lt; TESTING_ARG &gt;::with_args&lt;</text>
<text text-anchor="start" x="154" y="-546" font-family="Helvetica,sans-Serif" font-size="10.00"> testing_run_id, testing_key &gt;, protocol</text>
<text text-anchor="start" x="154" y="-535" font-family="Helvetica,sans-Serif" font-size="10.00">_command&lt; TESTING_COLLECT &gt;::with_args&lt;</text>
<text text-anchor="start" x="154" y="-524" font-family="Helvetica,sans-Serif" font-size="10.00"> testing_run_id, testing_node_id, testing</text>
<text text-anchor="start" x="154" y="-513" font-family="Helvetica,sans-Serif" font-size="10.00">_node_id, testing_key, testing_arg_variant</text>
<text text-anchor="start" x="154" y="-502" font-family="Helvetica,sans-Serif" font-size="10.00"> &gt;, protocol_command&lt; TESTING_FINISHED &gt;::with</text>
<text text-anchor="start" x="154" y="-491" font-family="Helvetica,sans-Serif" font-size="10.00">_args&lt; testing_run_id &gt;, protocol_command&lt; TESTING</text>
<text text-anchor="start" x="154" y="-480" font-family="Helvetica,sans-Serif" font-size="10.00">_ERROR &gt;::with_args&lt; testing_run_id &gt;, protocol_command</text>
<text text-anchor="start" x="154" y="-469" font-family="Helvetica,sans-Serif" font-size="10.00">&lt; TESTING_FAILURE &gt;::with_args&lt; testing_run_id &gt;, protocol</text>
<text text-anchor="start" x="154" y="-458" font-family="Helvetica,sans-Serif" font-size="10.00">_command&lt; TESTING_SUITE_NAME &gt;::with_args&lt; testing_name_buffer</text>
<text text-anchor="start" x="154" y="-447" font-family="Helvetica,sans-Serif" font-size="10.00"> &gt;, protocol_command&lt; TESTING_SUITE_DATE &gt;::with_args&lt; testing</text>
<text text-anchor="start" x="154" y="-436" font-family="Helvetica,sans-Serif" font-size="10.00">_name_buffer &gt;, protocol_command&lt; TESTING_INTERNAL_ERROR &gt;::with</text>
<text text-anchor="start" x="154" y="-425" font-family="Helvetica,sans-Serif" font-size="10.00">_args&lt; testing_reactor_error_group &gt;, protocol_command&lt; TESTING_PROTOCOL</text>
<text text-anchor="middle" x="352" y="-414" font-family="Helvetica,sans-Serif" font-size="10.00">_ERROR &gt;::with_args&lt; protocol_error_record &gt; &gt;</text>
</a>
</g>
</g>
<!-- Node1&#45;&gt;Node5 -->
<g id="edge4" class="edge">
<title>Node1&#45;&gt;Node5</title>
<path fill="none" stroke="midnightblue" d="M120.37,-526.5C128.41,-526.5 136.93,-526.5 145.78,-526.5"/>
<polygon fill="midnightblue" stroke="midnightblue" points="120.11,-523 110.11,-526.5 120.11,-530 120.11,-523"/>
</g>
<!-- Node7 -->
<g id="node7" class="node">
<title>Node7</title>
<g id="a_node7"><a xlink:href="structemlabcpp_1_1protocol__command__group.html" target="_top" xlink:title=" ">
<polygon fill="white" stroke="black" points="162.5,-225.5 162.5,-387.5 541.5,-387.5 541.5,-225.5 162.5,-225.5"/>
<text text-anchor="start" x="170.5" y="-375.5" font-family="Helvetica,sans-Serif" font-size="10.00">emlabcpp::protocol</text>
<text text-anchor="start" x="170.5" y="-364.5" font-family="Helvetica,sans-Serif" font-size="10.00">_command_group&lt; PROTOCOL</text>
<text text-anchor="start" x="170.5" y="-353.5" font-family="Helvetica,sans-Serif" font-size="10.00">_BIG_ENDIAN, protocol_command</text>
<text text-anchor="start" x="170.5" y="-342.5" font-family="Helvetica,sans-Serif" font-size="10.00">&lt; TESTING_SUITE_NAME &gt;, protocol</text>
<text text-anchor="start" x="170.5" y="-331.5" font-family="Helvetica,sans-Serif" font-size="10.00">_command&lt; TESTING_SUITE_DATE &gt;,</text>
<text text-anchor="start" x="170.5" y="-320.5" font-family="Helvetica,sans-Serif" font-size="10.00"> protocol_command&lt; TESTING_COUNT</text>
<text text-anchor="start" x="170.5" y="-309.5" font-family="Helvetica,sans-Serif" font-size="10.00"> &gt;, protocol_command&lt; TESTING_NAME</text>
<text text-anchor="start" x="170.5" y="-298.5" font-family="Helvetica,sans-Serif" font-size="10.00"> &gt;::with_args&lt; testing_test_id &gt;, protocol</text>
<text text-anchor="start" x="170.5" y="-287.5" font-family="Helvetica,sans-Serif" font-size="10.00">_command&lt; TESTING_LOAD &gt;::with_args&lt; testing</text>
<text text-anchor="start" x="170.5" y="-276.5" font-family="Helvetica,sans-Serif" font-size="10.00">_test_id, testing_run_id &gt;, protocol_command</text>
<text text-anchor="start" x="170.5" y="-265.5" font-family="Helvetica,sans-Serif" font-size="10.00">&lt; TESTING_ARG &gt;::with_args&lt; testing_run_id, testing</text>
<text text-anchor="start" x="170.5" y="-254.5" font-family="Helvetica,sans-Serif" font-size="10.00">_key, testing_arg_variant &gt;, protocol_command&lt; TESTING</text>
<text text-anchor="start" x="170.5" y="-243.5" font-family="Helvetica,sans-Serif" font-size="10.00">_ARG_MISSING &gt;::with_args&lt; testing_run_id, testing_key</text>
<text text-anchor="middle" x="352" y="-232.5" font-family="Helvetica,sans-Serif" font-size="10.00"> &gt;, protocol_command&lt; TESTING_EXEC &gt;::with_args&lt; testing_run_id &gt; &gt;</text>
</a>
</g>
</g>
<!-- Node1&#45;&gt;Node7 -->
<g id="edge6" class="edge">
<title>Node1&#45;&gt;Node7</title>
<path fill="none" stroke="midnightblue" d="M67.77,-502.14C82.56,-473.72 110.38,-426.88 146,-397.5 151.26,-393.16 156.75,-389 162.43,-384.99"/>
<polygon fill="midnightblue" stroke="midnightblue" points="64.49,-500.86 63.09,-511.37 70.73,-504.03 64.49,-500.86"/>
</g>
<!-- Node9 -->
<g id="node9" class="node">
<title>Node9</title>
<g id="a_node9"><a xlink:href="structemlabcpp_1_1protocol__command__group.html" target="_top" xlink:title=" ">
<polygon fill="white" stroke="black" points="182.5,-0.5 182.5,-206.5 521.5,-206.5 521.5,-0.5 182.5,-0.5"/>
<text text-anchor="start" x="190.5" y="-194.5" font-family="Helvetica,sans-Serif" font-size="10.00">emlabcpp::protocol</text>
<text text-anchor="start" x="190.5" y="-183.5" font-family="Helvetica,sans-Serif" font-size="10.00">_command_group&lt; PROTOCOL</text>
<text text-anchor="start" x="190.5" y="-172.5" font-family="Helvetica,sans-Serif" font-size="10.00">_BIG_ENDIAN, protocol_command</text>
<text text-anchor="start" x="190.5" y="-161.5" font-family="Helvetica,sans-Serif" font-size="10.00">&lt; TESTING_TEST_NOT_LOADED_E</text>
<text text-anchor="start" x="190.5" y="-150.5" font-family="Helvetica,sans-Serif" font-size="10.00"> &gt;, protocol_command&lt; TESTING</text>
<text text-anchor="start" x="190.5" y="-139.5" font-family="Helvetica,sans-Serif" font-size="10.00">_TEST_NOT_FOUND_E &gt;, protocol</text>
<text text-anchor="start" x="190.5" y="-128.5" font-family="Helvetica,sans-Serif" font-size="10.00">_command&lt; TESTING_WRONG_RUN_ID</text>
<text text-anchor="start" x="190.5" y="-117.5" font-family="Helvetica,sans-Serif" font-size="10.00">_E &gt;, protocol_command&lt; TESTING</text>
<text text-anchor="start" x="190.5" y="-106.5" font-family="Helvetica,sans-Serif" font-size="10.00">_TEST_ALREADY_LOADED_E &gt;, protocol</text>
<text text-anchor="start" x="190.5" y="-95.5" font-family="Helvetica,sans-Serif" font-size="10.00">_command&lt; TESTING_BAD_TEST_ID_E &gt;,</text>
<text text-anchor="start" x="190.5" y="-84.5" font-family="Helvetica,sans-Serif" font-size="10.00"> protocol_command&lt; TESTING_UNDESIRED</text>
<text text-anchor="start" x="190.5" y="-73.5" font-family="Helvetica,sans-Serif" font-size="10.00">_MSG_E &gt;, protocol_command&lt; TESTING_NO</text>
<text text-anchor="start" x="190.5" y="-62.5" font-family="Helvetica,sans-Serif" font-size="10.00">_RESPONSE_E &gt;::with_args&lt; testing_messages</text>
<text text-anchor="start" x="190.5" y="-51.5" font-family="Helvetica,sans-Serif" font-size="10.00">_enum &gt;, protocol_command&lt; TESTING_ARG_MISSING</text>
<text text-anchor="start" x="190.5" y="-40.5" font-family="Helvetica,sans-Serif" font-size="10.00">_E &gt;::with_args&lt; testing_key &gt;, protocol_command</text>
<text text-anchor="start" x="190.5" y="-29.5" font-family="Helvetica,sans-Serif" font-size="10.00">&lt; TESTING_ARG_WRONG_MESSAGE_E &gt;::with_args&lt; testing</text>
<text text-anchor="start" x="190.5" y="-18.5" font-family="Helvetica,sans-Serif" font-size="10.00">_messages_enum &gt;, protocol_command&lt; TESTING_ARG_WRONG</text>
<text text-anchor="middle" x="352" y="-7.5" font-family="Helvetica,sans-Serif" font-size="10.00">_TYPE_E &gt;::with_args&lt; testing_key &gt; &gt;</text>
</a>
</g>
</g>
<!-- Node1&#45;&gt;Node9 -->
<g id="edge8" class="edge">
<title>Node1&#45;&gt;Node9</title>
<path fill="none" stroke="midnightblue" d="M56.98,-501.19C60.41,-444.22 75.92,-304.09 146,-216.5 156.41,-203.49 168.74,-191.75 182.12,-181.2"/>
<polygon fill="midnightblue" stroke="midnightblue" points="53.47,-501.26 56.44,-511.43 60.46,-501.63 53.47,-501.26"/>
</g>
<!-- Node4 -->
<g id="node4" class="node">
<title>Node4</title>
<g id="a_node4"><a xlink:href="structemlabcpp_1_1protocol__packet.html" target="_top" xlink:title=" ">
<polygon fill="white" stroke="black" points="603,-665.5 603,-695.5 741,-695.5 741,-665.5 603,-665.5"/>
<text text-anchor="start" x="611" y="-683.5" font-family="Helvetica,sans-Serif" font-size="10.00">emlabcpp::protocol</text>
<text text-anchor="middle" x="672" y="-672.5" font-family="Helvetica,sans-Serif" font-size="10.00">_packet&lt; Def, Payload &gt;</text>
</a>
</g>
</g>
<!-- Node3&#45;&gt;Node4 -->
<g id="edge3" class="edge">
<title>Node3&#45;&gt;Node4</title>
<path fill="none" stroke="midnightblue" d="M431.12,-680.5C483.69,-680.5 552.34,-680.5 602.73,-680.5"/>
<polygon fill="midnightblue" stroke="midnightblue" points="430.83,-677 420.83,-680.5 430.83,-684 430.83,-677"/>
</g>
<!-- Node6 -->
<g id="node6" class="node">
<title>Node6</title>
<g id="a_node6"><a xlink:href="structemlabcpp_1_1testing__reactor__controller__group.html" target="_top" xlink:title=" ">
<polygon fill="white" stroke="black" points="600,-511.5 600,-541.5 744,-541.5 744,-511.5 600,-511.5"/>
<text text-anchor="start" x="608" y="-529.5" font-family="Helvetica,sans-Serif" font-size="10.00">emlabcpp::testing_reactor</text>
<text text-anchor="middle" x="672" y="-518.5" font-family="Helvetica,sans-Serif" font-size="10.00">_controller_group</text>
</a>
</g>
</g>
<!-- Node5&#45;&gt;Node6 -->
<g id="edge5" class="edge">
<title>Node5&#45;&gt;Node6</title>
<path fill="none" stroke="midnightblue" d="M568.53,-526.5C579.4,-526.5 589.87,-526.5 599.69,-526.5"/>
<polygon fill="midnightblue" stroke="midnightblue" points="568.44,-523 558.44,-526.5 568.44,-530 568.44,-523"/>
</g>
<!-- Node8 -->
<g id="node8" class="node">
<title>Node8</title>
<g id="a_node8"><a xlink:href="structemlabcpp_1_1testing__controller__reactor__group.html" target="_top" xlink:title=" ">
<polygon fill="white" stroke="black" points="594,-291.5 594,-321.5 750,-321.5 750,-291.5 594,-291.5"/>
<text text-anchor="start" x="602" y="-309.5" font-family="Helvetica,sans-Serif" font-size="10.00">emlabcpp::testing_controller</text>
<text text-anchor="middle" x="672" y="-298.5" font-family="Helvetica,sans-Serif" font-size="10.00">_reactor_group</text>
</a>
</g>
</g>
<!-- Node7&#45;&gt;Node8 -->
<g id="edge7" class="edge">
<title>Node7&#45;&gt;Node8</title>
<path fill="none" stroke="midnightblue" d="M551.9,-306.5C566.59,-306.5 580.8,-306.5 593.97,-306.5"/>
<polygon fill="midnightblue" stroke="midnightblue" points="551.66,-303 541.66,-306.5 551.66,-310 551.66,-303"/>
</g>
<!-- Node10 -->
<g id="node10" class="node">
<title>Node10</title>
<g id="a_node10"><a xlink:href="structemlabcpp_1_1testing__reactor__error__group.html" target="_top" xlink:title=" ">
<polygon fill="white" stroke="black" points="600,-88.5 600,-118.5 744,-118.5 744,-88.5 600,-88.5"/>
<text text-anchor="start" x="608" y="-106.5" font-family="Helvetica,sans-Serif" font-size="10.00">emlabcpp::testing_reactor</text>
<text text-anchor="middle" x="672" y="-95.5" font-family="Helvetica,sans-Serif" font-size="10.00">_error_group</text>
</a>
</g>
</g>
<!-- Node9&#45;&gt;Node10 -->
<g id="edge9" class="edge">
<title>Node9&#45;&gt;Node10</title>
<path fill="none" stroke="midnightblue" d="M532.06,-103.5C556,-103.5 579.31,-103.5 599.8,-103.5"/>
<polygon fill="midnightblue" stroke="midnightblue" points="531.78,-100 521.78,-103.5 531.78,-107 531.78,-100"/>
</g>
</g>
</svg>
