<?xml version="1.0" encoding="UTF-8" standalone="no"?>
<!DOCTYPE svg PUBLIC "-//W3C//DTD SVG 1.1//EN"
 "http://www.w3.org/Graphics/SVG/1.1/DTD/svg11.dtd">
<!-- Generated by graphviz version 2.43.0 (0)
 -->
<!-- Title: emlabcpp::protocol::converter_def_type_base Pages: 1 -->
<svg width="533pt" height="100pt"
 viewBox="0.00 0.00 533.00 99.50" xmlns="http://www.w3.org/2000/svg" xmlns:xlink="http://www.w3.org/1999/xlink">
<g id="graph0" class="graph" transform="scale(1 1) rotate(0) translate(4 95.5)">
<title>emlabcpp::protocol::converter_def_type_base</title>
<polygon fill="white" stroke="transparent" points="-4,4 -4,-95.5 529,-95.5 529,4 -4,4"/>
<!-- Node1 -->
<g id="node1" class="node">
<title>Node1</title>
<g id="a_node1"><a xlink:title="More complex constructs have custom mechanics that internally produces def_type alias used by the lib...">
<polygon fill="#bfbfbf" stroke="black" points="0,-27.5 0,-57.5 146,-57.5 146,-27.5 0,-27.5"/>
<text text-anchor="start" x="8" y="-45.5" font-family="Helvetica,sans-Serif" font-size="10.00">emlabcpp::protocol</text>
<text text-anchor="middle" x="73" y="-34.5" font-family="Helvetica,sans-Serif" font-size="10.00">::converter_def_type_base</text>
</a>
</g>
</g>
<!-- Node2 -->
<g id="node2" class="node">
<title>Node2</title>
<g id="a_node2"><a xlink:href="structemlabcpp_1_1protocol_1_1command__group.html" target="_top" xlink:title="Command group should be used as a collection of commands that are selected based on the ID,...">
<polygon fill="white" stroke="black" points="182,-50 182,-91 350,-91 350,-50 182,-50"/>
<text text-anchor="start" x="190" y="-79" font-family="Helvetica,sans-Serif" font-size="10.00">emlabcpp::protocol</text>
<text text-anchor="start" x="190" y="-68" font-family="Helvetica,sans-Serif" font-size="10.00">::command_group&lt; Endianess,</text>
<text text-anchor="middle" x="266" y="-57" font-family="Helvetica,sans-Serif" font-size="10.00"> Cmds &gt;</text>
</a>
</g>
</g>
<!-- Node1&#45;&gt;Node2 -->
<g id="edge1" class="edge">
<title>Node1&#45;&gt;Node2</title>
<path fill="none" stroke="midnightblue" d="M156.11,-54.54C164.62,-55.78 173.27,-57.05 181.79,-58.3"/>
<polygon fill="midnightblue" stroke="midnightblue" points="156.61,-51.07 146.21,-53.09 155.6,-58 156.61,-51.07"/>
</g>
<!-- Node3 -->
<g id="node3" class="node">
<title>Node3</title>
<g id="a_node3"><a xlink:href="structemlabcpp_1_1protocol_1_1tuple.html" target="_top" xlink:title="tuple is high levle alternative to use just &#39;std::tuple&#39; that is more friendly for standalone protoco...">
<polygon fill="white" stroke="black" points="197,-0.5 197,-30.5 335,-30.5 335,-0.5 197,-0.5"/>
<text text-anchor="start" x="205" y="-18.5" font-family="Helvetica,sans-Serif" font-size="10.00">emlabcpp::protocol</text>
<text text-anchor="middle" x="266" y="-7.5" font-family="Helvetica,sans-Serif" font-size="10.00">::tuple&lt; Endianess, Ds &gt;</text>
</a>
</g>
</g>
<!-- Node1&#45;&gt;Node3 -->
<g id="edge2" class="edge">
<title>Node1&#45;&gt;Node3</title>
<path fill="none" stroke="midnightblue" d="M156.42,-30.85C169.89,-28.94 183.71,-26.99 196.79,-25.14"/>
<polygon fill="midnightblue" stroke="midnightblue" points="155.62,-27.43 146.21,-32.29 156.6,-34.36 155.62,-27.43"/>
</g>
<!-- Node4 -->
<g id="node4" class="node">
<title>Node4</title>
<g id="a_node4"><a xlink:href="structemlabcpp_1_1protocol_1_1packet.html" target="_top" xlink:title=" ">
<polygon fill="white" stroke="black" points="386,-0.5 386,-30.5 525,-30.5 525,-0.5 386,-0.5"/>
<text text-anchor="start" x="394" y="-18.5" font-family="Helvetica,sans-Serif" font-size="10.00">emlabcpp::protocol</text>
<text text-anchor="middle" x="455.5" y="-7.5" font-family="Helvetica,sans-Serif" font-size="10.00">::packet&lt; Def, Payload &gt;</text>
</a>
</g>
</g>
<!-- Node3&#45;&gt;Node4 -->
<g id="edge3" class="edge">
<title>Node3&#45;&gt;Node4</title>
<path fill="none" stroke="midnightblue" d="M345.36,-15.5C358.75,-15.5 372.58,-15.5 385.7,-15.5"/>
<polygon fill="midnightblue" stroke="midnightblue" points="345.22,-12 335.22,-15.5 345.22,-19 345.22,-12"/>
</g>
</g>
</svg>
