<?xml version="1.0" encoding="UTF-8" standalone="no"?>
<!DOCTYPE svg PUBLIC "-//W3C//DTD SVG 1.1//EN"
 "http://www.w3.org/Graphics/SVG/1.1/DTD/svg11.dtd">
<!-- Generated by graphviz version 2.43.0 (0)
 -->
<!-- Title: emlabcpp::cfg::iface_base Pages: 1 -->
<svg width="264pt" height="162pt"
 viewBox="0.00 0.00 264.00 162.00" xmlns="http://www.w3.org/2000/svg" xmlns:xlink="http://www.w3.org/1999/xlink">
<g id="graph0" class="graph" transform="scale(1 1) rotate(0) translate(4 158)">
<title>emlabcpp::cfg::iface_base</title>
<polygon fill="white" stroke="transparent" points="-4,4 -4,-158 260,-158 260,4 -4,4"/>
<!-- Node1 -->
<g id="node1" class="node">
<title>Node1</title>
<g id="a_node1"><a xlink:title=" ">
<polygon fill="#bfbfbf" stroke="black" points="52.5,-134.5 52.5,-153.5 196.5,-153.5 196.5,-134.5 52.5,-134.5"/>
<text text-anchor="middle" x="124.5" y="-141.5" font-family="Helvetica,sans-Serif" font-size="10.00">emlabcpp::cfg::iface_base</text>
</a>
</g>
</g>
<!-- Node2 -->
<g id="node2" class="node">
<title>Node2</title>
<g id="a_node2"><a xlink:href="structemlabcpp_1_1cfg_1_1load__iface.html" target="_top" xlink:title=" ">
<polygon fill="white" stroke="black" points="0,-67.5 0,-97.5 113,-97.5 113,-67.5 0,-67.5"/>
<text text-anchor="start" x="8" y="-85.5" font-family="Helvetica,sans-Serif" font-size="10.00">emlabcpp::cfg::load</text>
<text text-anchor="middle" x="56.5" y="-74.5" font-family="Helvetica,sans-Serif" font-size="10.00">_iface</text>
</a>
</g>
</g>
<!-- Node1&#45;&gt;Node2 -->
<g id="edge1" class="edge">
<title>Node1&#45;&gt;Node2</title>
<path fill="none" stroke="midnightblue" d="M106.95,-127.65C96.32,-118.35 82.87,-106.57 72.53,-97.52"/>
<polygon fill="midnightblue" stroke="midnightblue" points="104.93,-130.52 114.76,-134.48 109.54,-125.26 104.93,-130.52"/>
</g>
<!-- Node4 -->
<g id="node4" class="node">
<title>Node4</title>
<g id="a_node4"><a xlink:href="structemlabcpp_1_1cfg_1_1update__iface.html" target="_top" xlink:title=" ">
<polygon fill="white" stroke="black" points="131,-67.5 131,-97.5 256,-97.5 256,-67.5 131,-67.5"/>
<text text-anchor="start" x="139" y="-85.5" font-family="Helvetica,sans-Serif" font-size="10.00">emlabcpp::cfg::update</text>
<text text-anchor="middle" x="193.5" y="-74.5" font-family="Helvetica,sans-Serif" font-size="10.00">_iface</text>
</a>
</g>
</g>
<!-- Node1&#45;&gt;Node4 -->
<g id="edge3" class="edge">
<title>Node1&#45;&gt;Node4</title>
<path fill="none" stroke="midnightblue" d="M141.99,-127.92C152.82,-118.58 166.64,-106.66 177.24,-97.52"/>
<polygon fill="midnightblue" stroke="midnightblue" points="139.67,-125.29 134.39,-134.48 144.24,-130.6 139.67,-125.29"/>
</g>
<!-- Node3 -->
<g id="node3" class="node">
<title>Node3</title>
<g id="a_node3"><a xlink:href="structemlabcpp_1_1cfg_1_1load__cbs__bind.html" target="_top" xlink:title=" ">
<polygon fill="white" stroke="black" points="0,-0.5 0,-30.5 113,-30.5 113,-0.5 0,-0.5"/>
<text text-anchor="start" x="8" y="-18.5" font-family="Helvetica,sans-Serif" font-size="10.00">emlabcpp::cfg::load</text>
<text text-anchor="middle" x="56.5" y="-7.5" font-family="Helvetica,sans-Serif" font-size="10.00">_cbs_bind&lt; T &gt;</text>
</a>
</g>
</g>
<!-- Node2&#45;&gt;Node3 -->
<g id="edge2" class="edge">
<title>Node2&#45;&gt;Node3</title>
<path fill="none" stroke="midnightblue" d="M56.5,-57.11C56.5,-48.15 56.5,-38.32 56.5,-30.58"/>
<polygon fill="midnightblue" stroke="midnightblue" points="53,-57.4 56.5,-67.4 60,-57.4 53,-57.4"/>
</g>
<!-- Node5 -->
<g id="node5" class="node">
<title>Node5</title>
<g id="a_node5"><a xlink:href="structemlabcpp_1_1cfg_1_1update__cbs__bind.html" target="_top" xlink:title=" ">
<polygon fill="white" stroke="black" points="131,-0.5 131,-30.5 256,-30.5 256,-0.5 131,-0.5"/>
<text text-anchor="start" x="139" y="-18.5" font-family="Helvetica,sans-Serif" font-size="10.00">emlabcpp::cfg::update</text>
<text text-anchor="middle" x="193.5" y="-7.5" font-family="Helvetica,sans-Serif" font-size="10.00">_cbs_bind&lt; T &gt;</text>
</a>
</g>
</g>
<!-- Node4&#45;&gt;Node5 -->
<g id="edge4" class="edge">
<title>Node4&#45;&gt;Node5</title>
<path fill="none" stroke="midnightblue" d="M193.5,-57.11C193.5,-48.15 193.5,-38.32 193.5,-30.58"/>
<polygon fill="midnightblue" stroke="midnightblue" points="190,-57.4 193.5,-67.4 197,-57.4 190,-57.4"/>
</g>
</g>
</svg>
