<?xml version="1.0" encoding="UTF-8" standalone="no"?>
<!DOCTYPE svg PUBLIC "-//W3C//DTD SVG 1.1//EN"
 "http://www.w3.org/Graphics/SVG/1.1/DTD/svg11.dtd">
<!-- Generated by graphviz version 2.43.0 (0)
 -->
<!-- Title: emlabcpp::coro::wait_interface Pages: 1 -->
<svg width="306pt" height="137pt"
 viewBox="0.00 0.00 306.00 137.00" xmlns="http://www.w3.org/2000/svg" xmlns:xlink="http://www.w3.org/1999/xlink">
<g id="graph0" class="graph" transform="scale(1 1) rotate(0) translate(4 133)">
<title>emlabcpp::coro::wait_interface</title>
<polygon fill="white" stroke="transparent" points="-4,4 -4,-133 302,-133 302,4 -4,4"/>
<!-- Node1 -->
<g id="node1" class="node">
<title>Node1</title>
<g id="a_node1"><a xlink:title=" ">
<polygon fill="#bfbfbf" stroke="black" points="0,-49.5 0,-79.5 119,-79.5 119,-49.5 0,-49.5"/>
<text text-anchor="start" x="8" y="-67.5" font-family="Helvetica,sans-Serif" font-size="10.00">emlabcpp::coro::wait</text>
<text text-anchor="middle" x="59.5" y="-56.5" font-family="Helvetica,sans-Serif" font-size="10.00">_interface</text>
</a>
</g>
</g>
<!-- Node2 -->
<g id="node2" class="node">
<title>Node2</title>
<g id="a_node2"><a xlink:href="structemlabcpp_1_1coro_1_1error__awaiter.html" target="_top" xlink:title=" ">
<polygon fill="white" stroke="black" points="166,-98.5 166,-128.5 287,-128.5 287,-98.5 166,-98.5"/>
<text text-anchor="start" x="174" y="-116.5" font-family="Helvetica,sans-Serif" font-size="10.00">emlabcpp::coro::error</text>
<text text-anchor="middle" x="226.5" y="-105.5" font-family="Helvetica,sans-Serif" font-size="10.00">_awaiter</text>
</a>
</g>
</g>
<!-- Node1&#45;&gt;Node2 -->
<g id="edge1" class="edge">
<title>Node1&#45;&gt;Node2</title>
<path fill="none" stroke="midnightblue" d="M121,-82.47C138.68,-87.72 157.81,-93.4 174.82,-98.45"/>
<polygon fill="midnightblue" stroke="midnightblue" points="121.93,-79.09 111.35,-79.6 119.94,-85.8 121.93,-79.09"/>
</g>
<!-- Node3 -->
<g id="node3" class="node">
<title>Node3</title>
<g id="a_node3"><a xlink:href="structemlabcpp_1_1coro_1_1noop__awaiter.html" target="_top" xlink:title=" ">
<polygon fill="white" stroke="black" points="165.5,-49.5 165.5,-79.5 287.5,-79.5 287.5,-49.5 165.5,-49.5"/>
<text text-anchor="start" x="173.5" y="-67.5" font-family="Helvetica,sans-Serif" font-size="10.00">emlabcpp::coro::noop</text>
<text text-anchor="middle" x="226.5" y="-56.5" font-family="Helvetica,sans-Serif" font-size="10.00">_awaiter</text>
</a>
</g>
</g>
<!-- Node1&#45;&gt;Node3 -->
<g id="edge2" class="edge">
<title>Node1&#45;&gt;Node3</title>
<path fill="none" stroke="midnightblue" d="M129.49,-64.5C141.41,-64.5 153.72,-64.5 165.38,-64.5"/>
<polygon fill="midnightblue" stroke="midnightblue" points="129.14,-61 119.14,-64.5 129.14,-68 129.14,-61"/>
</g>
<!-- Node4 -->
<g id="node4" class="node">
<title>Node4</title>
<g id="a_node4"><a xlink:href="classemlabcpp_1_1coro_1_1recursive__coroutine.html" target="_top" xlink:title=" ">
<polygon fill="white" stroke="black" points="155,-0.5 155,-30.5 298,-30.5 298,-0.5 155,-0.5"/>
<text text-anchor="start" x="163" y="-18.5" font-family="Helvetica,sans-Serif" font-size="10.00">emlabcpp::coro::recursive</text>
<text text-anchor="middle" x="226.5" y="-7.5" font-family="Helvetica,sans-Serif" font-size="10.00">_coroutine&lt; T &gt;</text>
</a>
</g>
</g>
<!-- Node1&#45;&gt;Node4 -->
<g id="edge3" class="edge">
<title>Node1&#45;&gt;Node4</title>
<path fill="none" stroke="midnightblue" d="M121,-46.53C138.68,-41.28 157.81,-35.6 174.82,-30.55"/>
<polygon fill="midnightblue" stroke="midnightblue" points="119.94,-43.2 111.35,-49.4 121.93,-49.91 119.94,-43.2"/>
</g>
</g>
</svg>
