<?xml version="1.0" encoding="UTF-8" standalone="no"?>
<!DOCTYPE svg PUBLIC "-//W3C//DTD SVG 1.1//EN"
 "http://www.w3.org/Graphics/SVG/1.1/DTD/svg11.dtd">
<!-- Generated by graphviz version 2.43.0 (0)
 -->
<!-- Title: emlabcpp::cfg::update_cbs_bind&lt; T &gt; Pages: 1 -->
<svg width="152pt" height="162pt"
 viewBox="0.00 0.00 152.00 162.00" xmlns="http://www.w3.org/2000/svg" xmlns:xlink="http://www.w3.org/1999/xlink">
<g id="graph0" class="graph" transform="scale(1 1) rotate(0) translate(4 158)">
<title>emlabcpp::cfg::update_cbs_bind&lt; T &gt;</title>
<polygon fill="white" stroke="transparent" points="-4,4 -4,-158 148,-158 148,4 -4,4"/>
<!-- Node1 -->
<g id="node1" class="node">
<title>Node1</title>
<g id="a_node1"><a xlink:title=" ">
<polygon fill="#bfbfbf" stroke="black" points="9.5,-0.5 9.5,-30.5 134.5,-30.5 134.5,-0.5 9.5,-0.5"/>
<text text-anchor="start" x="17.5" y="-18.5" font-family="Helvetica,sans-Serif" font-size="10.00">emlabcpp::cfg::update</text>
<text text-anchor="middle" x="72" y="-7.5" font-family="Helvetica,sans-Serif" font-size="10.00">_cbs_bind&lt; T &gt;</text>
</a>
</g>
</g>
<!-- Node2 -->
<g id="node2" class="node">
<title>Node2</title>
<g id="a_node2"><a xlink:href="structemlabcpp_1_1cfg_1_1update__iface.html" target="_top" xlink:title=" ">
<polygon fill="white" stroke="black" points="9.5,-67.5 9.5,-97.5 134.5,-97.5 134.5,-67.5 9.5,-67.5"/>
<text text-anchor="start" x="17.5" y="-85.5" font-family="Helvetica,sans-Serif" font-size="10.00">emlabcpp::cfg::update</text>
<text text-anchor="middle" x="72" y="-74.5" font-family="Helvetica,sans-Serif" font-size="10.00">_iface</text>
</a>
</g>
</g>
<!-- Node2&#45;&gt;Node1 -->
<g id="edge1" class="edge">
<title>Node2&#45;&gt;Node1</title>
<path fill="none" stroke="midnightblue" d="M72,-57.11C72,-48.15 72,-38.32 72,-30.58"/>
<polygon fill="midnightblue" stroke="midnightblue" points="68.5,-57.4 72,-67.4 75.5,-57.4 68.5,-57.4"/>
</g>
<!-- Node3 -->
<g id="node3" class="node">
<title>Node3</title>
<g id="a_node3"><a xlink:href="structemlabcpp_1_1cfg_1_1iface__base.html" target="_top" xlink:title=" ">
<polygon fill="white" stroke="black" points="0,-134.5 0,-153.5 144,-153.5 144,-134.5 0,-134.5"/>
<text text-anchor="middle" x="72" y="-141.5" font-family="Helvetica,sans-Serif" font-size="10.00">emlabcpp::cfg::iface_base</text>
</a>
</g>
</g>
<!-- Node3&#45;&gt;Node2 -->
<g id="edge2" class="edge">
<title>Node3&#45;&gt;Node2</title>
<path fill="none" stroke="midnightblue" d="M72,-124.23C72,-115.59 72,-105.5 72,-97.52"/>
<polygon fill="midnightblue" stroke="midnightblue" points="68.5,-124.48 72,-134.48 75.5,-124.48 68.5,-124.48"/>
</g>
</g>
</svg>
