<?xml version="1.0" encoding="UTF-8" standalone="no"?>
<!DOCTYPE svg PUBLIC "-//W3C//DTD SVG 1.1//EN"
 "http://www.w3.org/Graphics/SVG/1.1/DTD/svg11.dtd">
<!-- Generated by graphviz version 2.43.0 (0)
 -->
<!-- Title: emlabcpp::pid_config Pages: 1 -->
<svg width="298pt" height="106pt"
 viewBox="0.00 0.00 298.00 106.00" xmlns="http://www.w3.org/2000/svg" xmlns:xlink="http://www.w3.org/1999/xlink">
<g id="graph0" class="graph" transform="scale(1 1) rotate(0) translate(4 102)">
<title>emlabcpp::pid_config</title>
<polygon fill="white" stroke="transparent" points="-4,4 -4,-102 294,-102 294,4 -4,4"/>
<!-- Node1 -->
<g id="node1" class="node">
<title>Node1</title>
<g id="a_node1"><a xlink:title="Structure to configure the pid regulator.">
<polygon fill="#bfbfbf" stroke="black" points="90.5,-0.5 90.5,-19.5 210.5,-19.5 210.5,-0.5 90.5,-0.5"/>
<text text-anchor="middle" x="150.5" y="-7.5" font-family="Helvetica,sans-Serif" font-size="10.00">emlabcpp::pid_config</text>
</a>
</g>
</g>
<!-- Node2 -->
<g id="node2" class="node">
<title>Node2</title>
<g id="a_node2"><a xlink:href="namespaceemlabcpp.html#structemlabcpp_1_1pid__coefficients" target="_top" xlink:title=" ">
<polygon fill="white" stroke="black" points="0,-73 0,-92 147,-92 147,-73 0,-73"/>
<text text-anchor="middle" x="73.5" y="-80" font-family="Helvetica,sans-Serif" font-size="10.00">emlabcpp::pid_coefficients</text>
</a>
</g>
</g>
<!-- Node2&#45;&gt;Node1 -->
<g id="edge1" class="edge">
<title>Node2&#45;&gt;Node1</title>
<path fill="none" stroke="#9a32cd" stroke-dasharray="5,2" d="M90.34,-66.08C105.86,-51.87 128.36,-31.27 140.98,-19.72"/>
<polygon fill="#9a32cd" stroke="#9a32cd" points="87.95,-63.52 82.94,-72.86 92.68,-68.68 87.95,-63.52"/>
<text text-anchor="middle" x="149.5" y="-41" font-family="Helvetica,sans-Serif" font-size="10.00"> coefficients</text>
</g>
<!-- Node3 -->
<g id="node3" class="node">
<title>Node3</title>
<g id="a_node3"><a xlink:href="structemlabcpp_1_1min__max.html" target="_top" xlink:title=" ">
<polygon fill="white" stroke="black" points="165,-67.5 165,-97.5 290,-97.5 290,-67.5 165,-67.5"/>
<text text-anchor="start" x="173" y="-85.5" font-family="Helvetica,sans-Serif" font-size="10.00">emlabcpp::min_max&lt;</text>
<text text-anchor="middle" x="227.5" y="-74.5" font-family="Helvetica,sans-Serif" font-size="10.00"> float &gt;</text>
</a>
</g>
</g>
<!-- Node3&#45;&gt;Node1 -->
<g id="edge2" class="edge">
<title>Node3&#45;&gt;Node1</title>
<path fill="none" stroke="#9a32cd" stroke-dasharray="5,2" d="M206.61,-60.05C199.43,-52.89 191.24,-44.96 183.5,-38 176.35,-31.56 167.95,-24.7 161.41,-19.51"/>
<polygon fill="#9a32cd" stroke="#9a32cd" points="204.42,-62.81 213.95,-67.44 209.39,-57.88 204.42,-62.81"/>
<text text-anchor="middle" x="210" y="-41" font-family="Helvetica,sans-Serif" font-size="10.00"> limits</text>
</g>
</g>
</svg>
