<?xml version="1.0" encoding="UTF-8" standalone="no"?>
<!DOCTYPE svg PUBLIC "-//W3C//DTD SVG 1.1//EN"
 "http://www.w3.org/Graphics/SVG/1.1/DTD/svg11.dtd">
<!-- Generated by graphviz version 2.43.0 (0)
 -->
<!-- Title: emlabcpp::pid&lt; TimeType &gt; Pages: 1 -->
<svg width="298pt" height="173pt"
 viewBox="0.00 0.00 298.00 173.00" xmlns="http://www.w3.org/2000/svg" xmlns:xlink="http://www.w3.org/1999/xlink">
<g id="graph0" class="graph" transform="scale(1 1) rotate(0) translate(4 169)">
<title>emlabcpp::pid&lt; TimeType &gt;</title>
<polygon fill="white" stroke="transparent" points="-4,4 -4,-169 294,-169 294,4 -4,4"/>
<!-- Node1 -->
<g id="node1" class="node">
<title>Node1</title>
<g id="a_node1"><a xlink:title="Implementation of PID regulator, the object should be constructed and populated with pid&lt;T&gt;::conf str...">
<polygon fill="#bfbfbf" stroke="black" points="73,-0.5 73,-19.5 228,-19.5 228,-0.5 73,-0.5"/>
<text text-anchor="middle" x="150.5" y="-7.5" font-family="Helvetica,sans-Serif" font-size="10.00">emlabcpp::pid&lt; TimeType &gt;</text>
</a>
</g>
</g>
<!-- Node2 -->
<g id="node2" class="node">
<title>Node2</title>
<g id="a_node2"><a xlink:href="namespaceemlabcpp.html#structemlabcpp_1_1pid__config" target="_top" xlink:title="Structure to configure the pid regulator.">
<polygon fill="white" stroke="black" points="90.5,-67.5 90.5,-86.5 210.5,-86.5 210.5,-67.5 90.5,-67.5"/>
<text text-anchor="middle" x="150.5" y="-74.5" font-family="Helvetica,sans-Serif" font-size="10.00">emlabcpp::pid_config</text>
</a>
</g>
</g>
<!-- Node2&#45;&gt;Node1 -->
<g id="edge1" class="edge">
<title>Node2&#45;&gt;Node1</title>
<path fill="none" stroke="#9a32cd" stroke-dasharray="5,2" d="M150.5,-57.04C150.5,-44.67 150.5,-29.12 150.5,-19.63"/>
<polygon fill="#9a32cd" stroke="#9a32cd" points="147,-57.23 150.5,-67.23 154,-57.23 147,-57.23"/>
<text text-anchor="middle" x="160" y="-41" font-family="Helvetica,sans-Serif" font-size="10.00"> cfg</text>
</g>
<!-- Node3 -->
<g id="node3" class="node">
<title>Node3</title>
<g id="a_node3"><a xlink:href="namespaceemlabcpp.html#structemlabcpp_1_1pid__coefficients" target="_top" xlink:title=" ">
<polygon fill="white" stroke="black" points="0,-140 0,-159 147,-159 147,-140 0,-140"/>
<text text-anchor="middle" x="73.5" y="-147" font-family="Helvetica,sans-Serif" font-size="10.00">emlabcpp::pid_coefficients</text>
</a>
</g>
</g>
<!-- Node3&#45;&gt;Node2 -->
<g id="edge2" class="edge">
<title>Node3&#45;&gt;Node2</title>
<path fill="none" stroke="#9a32cd" stroke-dasharray="5,2" d="M90.34,-133.08C105.86,-118.87 128.36,-98.27 140.98,-86.72"/>
<polygon fill="#9a32cd" stroke="#9a32cd" points="87.95,-130.52 82.94,-139.86 92.68,-135.68 87.95,-130.52"/>
<text text-anchor="middle" x="149.5" y="-108" font-family="Helvetica,sans-Serif" font-size="10.00"> coefficients</text>
</g>
<!-- Node4 -->
<g id="node4" class="node">
<title>Node4</title>
<g id="a_node4"><a xlink:href="structemlabcpp_1_1min__max.html" target="_top" xlink:title=" ">
<polygon fill="white" stroke="red" points="165,-134.5 165,-164.5 290,-164.5 290,-134.5 165,-134.5"/>
<text text-anchor="start" x="173" y="-152.5" font-family="Helvetica,sans-Serif" font-size="10.00">emlabcpp::min_max&lt;</text>
<text text-anchor="middle" x="227.5" y="-141.5" font-family="Helvetica,sans-Serif" font-size="10.00"> float &gt;</text>
</a>
</g>
</g>
<!-- Node4&#45;&gt;Node2 -->
<g id="edge3" class="edge">
<title>Node4&#45;&gt;Node2</title>
<path fill="none" stroke="#9a32cd" stroke-dasharray="5,2" d="M206.61,-127.05C199.43,-119.89 191.24,-111.96 183.5,-105 176.35,-98.56 167.95,-91.7 161.41,-86.51"/>
<polygon fill="#9a32cd" stroke="#9a32cd" points="204.42,-129.81 213.95,-134.44 209.39,-124.88 204.42,-129.81"/>
<text text-anchor="middle" x="210" y="-108" font-family="Helvetica,sans-Serif" font-size="10.00"> limits</text>
</g>
</g>
</svg>
