<?xml version="1.0" encoding="UTF-8" standalone="no"?>
<!DOCTYPE svg PUBLIC "-//W3C//DTD SVG 1.1//EN"
 "http://www.w3.org/Graphics/SVG/1.1/DTD/svg11.dtd">
<!-- Generated by graphviz version 2.43.0 (0)
 -->
<!-- Title: emlabcpp::protocol::protocol_packet&lt; Def, Payload &gt; Pages: 1 -->
<svg width="154pt" height="184pt"
 viewBox="0.00 0.00 154.00 184.00" xmlns="http://www.w3.org/2000/svg" xmlns:xlink="http://www.w3.org/1999/xlink">
<g id="graph0" class="graph" transform="scale(1 1) rotate(0) translate(4 180)">
<title>emlabcpp::protocol::protocol_packet&lt; Def, Payload &gt;</title>
<polygon fill="white" stroke="transparent" points="-4,4 -4,-180 150,-180 150,4 -4,4"/>
<!-- Node1 -->
<g id="node1" class="node">
<title>Node1</title>
<g id="a_node1"><a xlink:title=" ">
<polygon fill="#bfbfbf" stroke="black" points="7.5,-0.5 7.5,-41.5 138.5,-41.5 138.5,-0.5 7.5,-0.5"/>
<text text-anchor="start" x="15.5" y="-29.5" font-family="Helvetica,sans-Serif" font-size="10.00">emlabcpp::protocol</text>
<text text-anchor="start" x="15.5" y="-18.5" font-family="Helvetica,sans-Serif" font-size="10.00">::protocol_packet&lt; Def,</text>
<text text-anchor="middle" x="73" y="-7.5" font-family="Helvetica,sans-Serif" font-size="10.00"> Payload &gt;</text>
</a>
</g>
</g>
<!-- Node2 -->
<g id="node2" class="node">
<title>Node2</title>
<g id="a_node2"><a xlink:href="structemlabcpp_1_1protocol_1_1protocol__tuple.html" target="_top" xlink:title="protocol_tuple is high levle alternative to use just &#39;std::tuple&#39; that is more friendly for standalon...">
<polygon fill="white" stroke="black" points="12,-78.5 12,-108.5 134,-108.5 134,-78.5 12,-78.5"/>
<text text-anchor="start" x="20" y="-96.5" font-family="Helvetica,sans-Serif" font-size="10.00">protocol_packet_base</text>
<text text-anchor="middle" x="73" y="-85.5" font-family="Helvetica,sans-Serif" font-size="10.00">&lt; Def, Payload &gt;</text>
</a>
</g>
</g>
<!-- Node2&#45;&gt;Node1 -->
<g id="edge1" class="edge">
<title>Node2&#45;&gt;Node1</title>
<path fill="none" stroke="midnightblue" d="M73,-67.98C73,-59.35 73,-49.76 73,-41.59"/>
<polygon fill="midnightblue" stroke="midnightblue" points="69.5,-68.23 73,-78.23 76.5,-68.23 69.5,-68.23"/>
</g>
<!-- Node3 -->
<g id="node3" class="node">
<title>Node3</title>
<g id="a_node3"><a xlink:href="structemlabcpp_1_1protocol_1_1converter__def__type__base.html" target="_top" xlink:title="More complex constructs have custom mechanics that internally produces def_type alias used by the lib...">
<polygon fill="white" stroke="black" points="0,-145.5 0,-175.5 146,-175.5 146,-145.5 0,-145.5"/>
<text text-anchor="start" x="8" y="-163.5" font-family="Helvetica,sans-Serif" font-size="10.00">emlabcpp::protocol</text>
<text text-anchor="middle" x="73" y="-152.5" font-family="Helvetica,sans-Serif" font-size="10.00">::converter_def_type_base</text>
</a>
</g>
</g>
<!-- Node3&#45;&gt;Node2 -->
<g id="edge2" class="edge">
<title>Node3&#45;&gt;Node2</title>
<path fill="none" stroke="midnightblue" d="M73,-135.11C73,-126.15 73,-116.32 73,-108.58"/>
<polygon fill="midnightblue" stroke="midnightblue" points="69.5,-135.4 73,-145.4 76.5,-135.4 69.5,-135.4"/>
</g>
</g>
</svg>
