<?xml version="1.0" encoding="UTF-8" standalone="no"?>
<!DOCTYPE svg PUBLIC "-//W3C//DTD SVG 1.1//EN"
 "http://www.w3.org/Graphics/SVG/1.1/DTD/svg11.dtd">
<!-- Generated by graphviz version 2.43.0 (0)
 -->
<!-- Title: emlabcpp::protocol::converter&lt; endianess_wrapper&lt; Endianess, D &gt;, ParentEndianess &gt; Pages: 1 -->
<svg width="175pt" height="117pt"
 viewBox="0.00 0.00 175.00 117.00" xmlns="http://www.w3.org/2000/svg" xmlns:xlink="http://www.w3.org/1999/xlink">
<g id="graph0" class="graph" transform="scale(1 1) rotate(0) translate(4 113)">
<title>emlabcpp::protocol::converter&lt; endianess_wrapper&lt; Endianess, D &gt;, ParentEndianess &gt;</title>
<polygon fill="white" stroke="transparent" points="-4,4 -4,-113 171,-113 171,4 -4,4"/>
<!-- Node1 -->
<g id="node1" class="node">
<title>Node1</title>
<g id="a_node1"><a xlink:title=" ">
<polygon fill="#bfbfbf" stroke="black" points="15.5,-0.5 15.5,-52.5 151.5,-52.5 151.5,-0.5 15.5,-0.5"/>
<text text-anchor="start" x="23.5" y="-40.5" font-family="Helvetica,sans-Serif" font-size="10.00">emlabcpp::protocol</text>
<text text-anchor="start" x="23.5" y="-29.5" font-family="Helvetica,sans-Serif" font-size="10.00">::converter&lt; endianess</text>
<text text-anchor="start" x="23.5" y="-18.5" font-family="Helvetica,sans-Serif" font-size="10.00">_wrapper&lt; Endianess, D</text>
<text text-anchor="middle" x="83.5" y="-7.5" font-family="Helvetica,sans-Serif" font-size="10.00"> &gt;, ParentEndianess &gt;</text>
</a>
</g>
</g>
<!-- Node2 -->
<g id="node2" class="node">
<title>Node2</title>
<g id="a_node2"><a xlink:title=" ">
<polygon fill="white" stroke="#bfbfbf" points="0,-89.5 0,-108.5 167,-108.5 167,-89.5 0,-89.5"/>
<text text-anchor="middle" x="83.5" y="-96.5" font-family="Helvetica,sans-Serif" font-size="10.00">converter_for&lt; D, Endianess &gt;</text>
</a>
</g>
</g>
<!-- Node2&#45;&gt;Node1 -->
<g id="edge1" class="edge">
<title>Node2&#45;&gt;Node1</title>
<path fill="none" stroke="midnightblue" d="M83.5,-79.1C83.5,-70.96 83.5,-61.33 83.5,-52.6"/>
<polygon fill="midnightblue" stroke="midnightblue" points="80,-79.36 83.5,-89.36 87,-79.36 80,-79.36"/>
</g>
</g>
</svg>
