<?xml version="1.0" encoding="UTF-8" standalone="no"?>
<!DOCTYPE svg PUBLIC "-//W3C//DTD SVG 1.1//EN"
 "http://www.w3.org/Graphics/SVG/1.1/DTD/svg11.dtd">
<!-- Generated by graphviz version 2.43.0 (0)
 -->
<!-- Title: emlabcpp::_error_category Pages: 1 -->
<svg width="519pt" height="121pt"
 viewBox="0.00 0.00 519.00 121.00" xmlns="http://www.w3.org/2000/svg" xmlns:xlink="http://www.w3.org/1999/xlink">
<g id="graph0" class="graph" transform="scale(1 1) rotate(0) translate(4 117)">
<title>emlabcpp::_error_category</title>
<polygon fill="white" stroke="transparent" points="-4,4 -4,-117 515,-117 515,4 -4,4"/>
<!-- Node1 -->
<g id="node1" class="node">
<title>Node1</title>
<g id="a_node1"><a xlink:title=" ">
<polygon fill="#bfbfbf" stroke="black" points="0,-44 0,-63 147,-63 147,-44 0,-44"/>
<text text-anchor="middle" x="73.5" y="-51" font-family="Helvetica,sans-Serif" font-size="10.00">emlabcpp::_error_category</text>
</a>
</g>
</g>
<!-- Node2 -->
<g id="node2" class="node">
<title>Node2</title>
<g id="a_node2"><a xlink:href="structemlabcpp_1_1error__category.html" target="_top" xlink:title=" ">
<polygon fill="white" stroke="black" points="197,-82.5 197,-112.5 339,-112.5 339,-82.5 197,-82.5"/>
<text text-anchor="start" x="205" y="-100.5" font-family="Helvetica,sans-Serif" font-size="10.00">emlabcpp::error_category</text>
<text text-anchor="middle" x="268" y="-89.5" font-family="Helvetica,sans-Serif" font-size="10.00">&lt; status &gt;</text>
</a>
</g>
</g>
<!-- Node1&#45;&gt;Node2 -->
<g id="edge1" class="edge">
<title>Node1&#45;&gt;Node2</title>
<path fill="none" stroke="midnightblue" d="M126.18,-65.31C149.21,-70.58 176.61,-76.84 201.09,-82.43"/>
<polygon fill="midnightblue" stroke="midnightblue" points="126.8,-61.86 116.27,-63.05 125.24,-68.69 126.8,-61.86"/>
</g>
<!-- Node4 -->
<g id="node4" class="node">
<title>Node4</title>
<g id="a_node4"><a xlink:href="structemlabcpp_1_1bool__category.html" target="_top" xlink:title=" ">
<polygon fill="white" stroke="black" points="198,-44 198,-63 338,-63 338,-44 198,-44"/>
<text text-anchor="middle" x="268" y="-51" font-family="Helvetica,sans-Serif" font-size="10.00">emlabcpp::bool_category</text>
</a>
</g>
</g>
<!-- Node1&#45;&gt;Node4 -->
<g id="edge3" class="edge">
<title>Node1&#45;&gt;Node4</title>
<path fill="none" stroke="midnightblue" d="M157.24,-53.5C170.74,-53.5 184.61,-53.5 197.75,-53.5"/>
<polygon fill="midnightblue" stroke="midnightblue" points="157,-50 147,-53.5 157,-57 157,-50"/>
</g>
<!-- Node5 -->
<g id="node5" class="node">
<title>Node5</title>
<g id="a_node5"><a xlink:href="structemlabcpp_1_1error__category.html" target="_top" xlink:title=" ">
<polygon fill="white" stroke="black" points="183,-6 183,-25 353,-25 353,-6 183,-6"/>
<text text-anchor="middle" x="268" y="-13" font-family="Helvetica,sans-Serif" font-size="10.00">emlabcpp::error_category&lt; T &gt;</text>
</a>
</g>
</g>
<!-- Node1&#45;&gt;Node5 -->
<g id="edge4" class="edge">
<title>Node1&#45;&gt;Node5</title>
<path fill="none" stroke="midnightblue" d="M132.95,-41.96C160.41,-36.54 192.74,-30.16 218.77,-25.02"/>
<polygon fill="midnightblue" stroke="midnightblue" points="132.21,-38.54 123.08,-43.91 133.56,-45.41 132.21,-38.54"/>
</g>
<!-- Node3 -->
<g id="node3" class="node">
<title>Node3</title>
<g id="a_node3"><a xlink:href="structemlabcpp_1_1cfg_1_1status__category.html" target="_top" xlink:title=" ">
<polygon fill="white" stroke="black" points="389,-82.5 389,-112.5 511,-112.5 511,-82.5 389,-82.5"/>
<text text-anchor="start" x="397" y="-100.5" font-family="Helvetica,sans-Serif" font-size="10.00">emlabcpp::cfg::status</text>
<text text-anchor="middle" x="450" y="-89.5" font-family="Helvetica,sans-Serif" font-size="10.00">_category</text>
</a>
</g>
</g>
<!-- Node2&#45;&gt;Node3 -->
<g id="edge2" class="edge">
<title>Node2&#45;&gt;Node3</title>
<path fill="none" stroke="midnightblue" d="M349.19,-97.5C362.47,-97.5 376.04,-97.5 388.72,-97.5"/>
<polygon fill="midnightblue" stroke="midnightblue" points="349.11,-94 339.11,-97.5 349.11,-101 349.11,-94"/>
</g>
<!-- Node6 -->
<g id="node6" class="node">
<title>Node6</title>
<g id="a_node6"><a xlink:href="structemlabcpp_1_1undefined__error__category.html" target="_top" xlink:title=" ">
<polygon fill="white" stroke="black" points="389,-0.5 389,-30.5 511,-30.5 511,-0.5 389,-0.5"/>
<text text-anchor="start" x="397" y="-18.5" font-family="Helvetica,sans-Serif" font-size="10.00">emlabcpp::undefined</text>
<text text-anchor="middle" x="450" y="-7.5" font-family="Helvetica,sans-Serif" font-size="10.00">_error_category&lt; T &gt;</text>
</a>
</g>
</g>
<!-- Node5&#45;&gt;Node6 -->
<g id="edge5" class="edge">
<title>Node5&#45;&gt;Node6</title>
<path fill="none" stroke="midnightblue" d="M363.41,-15.5C372.09,-15.5 380.73,-15.5 388.98,-15.5"/>
<polygon fill="midnightblue" stroke="midnightblue" points="363.2,-12 353.2,-15.5 363.2,-19 363.2,-12"/>
</g>
</g>
</svg>
