<?xml version="1.0" encoding="UTF-8" standalone="no"?>
<!DOCTYPE svg PUBLIC "-//W3C//DTD SVG 1.1//EN"
 "http://www.w3.org/Graphics/SVG/1.1/DTD/svg11.dtd">
<!-- Generated by graphviz version 2.43.0 (0)
 -->
<!-- Title: emlabcpp::coro::request_reply&lt; RequestType, ReplyType &gt;::awaiter Pages: 1 -->
<svg width="184pt" height="207pt"
 viewBox="0.00 0.00 184.00 207.00" xmlns="http://www.w3.org/2000/svg" xmlns:xlink="http://www.w3.org/1999/xlink">
<g id="graph0" class="graph" transform="scale(1 1) rotate(0) translate(4 203)">
<title>emlabcpp::coro::request_reply&lt; RequestType, ReplyType &gt;::awaiter</title>
<polygon fill="white" stroke="transparent" points="-4,4 -4,-203 180,-203 180,4 -4,4"/>
<!-- Node1 -->
<g id="node1" class="node">
<title>Node1</title>
<g id="a_node1"><a xlink:title=" ">
<polygon fill="#bfbfbf" stroke="black" points="0,-0.5 0,-41.5 176,-41.5 176,-0.5 0,-0.5"/>
<text text-anchor="start" x="8" y="-29.5" font-family="Helvetica,sans-Serif" font-size="10.00">emlabcpp::coro::request</text>
<text text-anchor="start" x="8" y="-18.5" font-family="Helvetica,sans-Serif" font-size="10.00">_reply&lt; RequestType, ReplyType</text>
<text text-anchor="middle" x="88" y="-7.5" font-family="Helvetica,sans-Serif" font-size="10.00"> &gt;::awaiter</text>
</a>
</g>
</g>
<!-- Node2 -->
<g id="node2" class="node">
<title>Node2</title>
<g id="a_node2"><a xlink:href="structemlabcpp_1_1coro_1_1request__reply_1_1promise__type.html" target="_top" xlink:title=" ">
<polygon fill="white" stroke="black" points="0,-89.5 0,-130.5 176,-130.5 176,-89.5 0,-89.5"/>
<text text-anchor="start" x="8" y="-118.5" font-family="Helvetica,sans-Serif" font-size="10.00">emlabcpp::coro::request</text>
<text text-anchor="start" x="8" y="-107.5" font-family="Helvetica,sans-Serif" font-size="10.00">_reply&lt; RequestType, ReplyType</text>
<text text-anchor="middle" x="88" y="-96.5" font-family="Helvetica,sans-Serif" font-size="10.00"> &gt;::promise_type</text>
</a>
</g>
</g>
<!-- Node2&#45;&gt;Node1 -->
<g id="edge1" class="edge">
<title>Node2&#45;&gt;Node1</title>
<path fill="none" stroke="#9a32cd" stroke-dasharray="5,2" d="M88,-78.94C88,-66.6 88,-52.66 88,-41.66"/>
<polygon fill="#9a32cd" stroke="#9a32cd" points="84.5,-79.26 88,-89.26 91.5,-79.26 84.5,-79.26"/>
<text text-anchor="middle" x="105" y="-63" font-family="Helvetica,sans-Serif" font-size="10.00"> prom_</text>
</g>
<!-- Node3 -->
<g id="node3" class="node">
<title>Node3</title>
<g id="a_node3"><a xlink:href="structemlabcpp_1_1coro_1_1pool__promise.html" target="_top" xlink:title=" ">
<polygon fill="white" stroke="black" points="12.5,-168.5 12.5,-198.5 163.5,-198.5 163.5,-168.5 12.5,-168.5"/>
<text text-anchor="start" x="20.5" y="-186.5" font-family="Helvetica,sans-Serif" font-size="10.00">emlabcpp::coro::pool</text>
<text text-anchor="middle" x="88" y="-175.5" font-family="Helvetica,sans-Serif" font-size="10.00">_promise&lt; promise_type &gt;</text>
</a>
</g>
</g>
<!-- Node3&#45;&gt;Node2 -->
<g id="edge2" class="edge">
<title>Node3&#45;&gt;Node2</title>
<path fill="none" stroke="midnightblue" d="M88,-158.1C88,-149.1 88,-139.02 88,-130.51"/>
<polygon fill="midnightblue" stroke="midnightblue" points="84.5,-158.37 88,-168.37 91.5,-158.37 84.5,-158.37"/>
</g>
</g>
</svg>
