<?xml version="1.0" encoding="UTF-8" standalone="no"?>
<!DOCTYPE svg PUBLIC "-//W3C//DTD SVG 1.1//EN"
 "http://www.w3.org/Graphics/SVG/1.1/DTD/svg11.dtd">
<!-- Generated by graphviz version 2.43.0 (0)
 -->
<!-- Title: include/emlabcpp/experimental/logging/time.h Pages: 1 -->
<svg width="1732pt" height="341pt"
 viewBox="0.00 0.00 1731.85 341.00" xmlns="http://www.w3.org/2000/svg" xmlns:xlink="http://www.w3.org/1999/xlink">
<g id="graph0" class="graph" transform="scale(1 1) rotate(0) translate(4 337)">
<title>include/emlabcpp/experimental/logging/time.h</title>
<polygon fill="white" stroke="transparent" points="-4,4 -4,-337 1727.85,-337 1727.85,4 -4,4"/>
<!-- Node1 -->
<g id="node1" class="node">
<title>Node1</title>
<g id="a_node1"><a xlink:title=" ">
<polygon fill="#bfbfbf" stroke="black" points="1474.85,-302.5 1474.85,-332.5 1645.85,-332.5 1645.85,-302.5 1474.85,-302.5"/>
<text text-anchor="start" x="1482.85" y="-320.5" font-family="Helvetica,sans-Serif" font-size="10.00">include/emlabcpp/experimental</text>
<text text-anchor="middle" x="1560.35" y="-309.5" font-family="Helvetica,sans-Serif" font-size="10.00">/logging/time.h</text>
</a>
</g>
</g>
<!-- Node2 -->
<g id="node2" class="node">
<title>Node2</title>
<g id="a_node2"><a xlink:href="pretty__printer_8h.html" target="_top" xlink:title=" ">
<polygon fill="white" stroke="black" points="623.85,-235.5 623.85,-265.5 756.85,-265.5 756.85,-235.5 623.85,-235.5"/>
<text text-anchor="start" x="631.85" y="-253.5" font-family="Helvetica,sans-Serif" font-size="10.00">emlabcpp/experimental</text>
<text text-anchor="middle" x="690.35" y="-242.5" font-family="Helvetica,sans-Serif" font-size="10.00">/pretty_printer.h</text>
</a>
</g>
</g>
<!-- Node1&#45;&gt;Node2 -->
<g id="edge1" class="edge">
<title>Node1&#45;&gt;Node2</title>
<path fill="none" stroke="midnightblue" d="M1474.55,-310.09C1304.98,-297.42 929.34,-269.36 767.26,-257.25"/>
<polygon fill="midnightblue" stroke="midnightblue" points="767.13,-253.73 756.9,-256.47 766.61,-260.71 767.13,-253.73"/>
</g>
<!-- Node5 -->
<g id="node10" class="node">
<title>Node5</title>
<g id="a_node10"><a xlink:title=" ">
<polygon fill="white" stroke="#bfbfbf" points="1397.35,-112.5 1397.35,-131.5 1439.35,-131.5 1439.35,-112.5 1397.35,-112.5"/>
<text text-anchor="middle" x="1418.35" y="-119.5" font-family="Helvetica,sans-Serif" font-size="10.00">array</text>
</a>
</g>
</g>
<!-- Node1&#45;&gt;Node5 -->
<g id="edge28" class="edge">
<title>Node1&#45;&gt;Node5</title>
<path fill="none" stroke="midnightblue" d="M1562.95,-302.41C1567.38,-273.71 1573.13,-207.81 1541.35,-168 1519.21,-140.27 1478.35,-129.62 1449.83,-125.54"/>
<polygon fill="midnightblue" stroke="midnightblue" points="1449.92,-122.02 1439.56,-124.27 1449.06,-128.97 1449.92,-122.02"/>
</g>
<!-- Node30 -->
<g id="node17" class="node">
<title>Node30</title>
<g id="a_node17"><a xlink:title=" ">
<polygon fill="white" stroke="#bfbfbf" points="1482.35,-174 1482.35,-193 1532.35,-193 1532.35,-174 1482.35,-174"/>
<text text-anchor="middle" x="1507.35" y="-181" font-family="Helvetica,sans-Serif" font-size="10.00">chrono</text>
</a>
</g>
</g>
<!-- Node1&#45;&gt;Node30 -->
<g id="edge29" class="edge">
<title>Node1&#45;&gt;Node30</title>
<path fill="none" stroke="midnightblue" d="M1554.68,-302.37C1545.01,-278.29 1525.34,-229.31 1514.66,-202.7"/>
<polygon fill="midnightblue" stroke="midnightblue" points="1517.78,-201.07 1510.8,-193.1 1511.28,-203.68 1517.78,-201.07"/>
</g>
<!-- Node36 -->
<g id="node23" class="node">
<title>Node36</title>
<g id="a_node23"><a xlink:title=" ">
<polygon fill="white" stroke="#bfbfbf" points="1588.35,-241 1588.35,-260 1632.35,-260 1632.35,-241 1588.35,-241"/>
<text text-anchor="middle" x="1610.35" y="-248" font-family="Helvetica,sans-Serif" font-size="10.00">ctime</text>
</a>
</g>
</g>
<!-- Node1&#45;&gt;Node36 -->
<g id="edge30" class="edge">
<title>Node1&#45;&gt;Node36</title>
<path fill="none" stroke="midnightblue" d="M1571.2,-302.4C1578.92,-292.36 1589.32,-278.84 1597.46,-268.25"/>
<polygon fill="midnightblue" stroke="midnightblue" points="1600.34,-270.25 1603.66,-260.19 1594.79,-265.99 1600.34,-270.25"/>
</g>
<!-- Node37 -->
<g id="node24" class="node">
<title>Node37</title>
<g id="a_node24"><a xlink:title=" ">
<polygon fill="white" stroke="#bfbfbf" points="1650.85,-241 1650.85,-260 1723.85,-260 1723.85,-241 1650.85,-241"/>
<text text-anchor="middle" x="1687.35" y="-248" font-family="Helvetica,sans-Serif" font-size="10.00">string_view</text>
</a>
</g>
</g>
<!-- Node1&#45;&gt;Node37 -->
<g id="edge31" class="edge">
<title>Node1&#45;&gt;Node37</title>
<path fill="none" stroke="midnightblue" d="M1587.91,-302.4C1609.8,-291.19 1640.18,-275.64 1661.59,-264.69"/>
<polygon fill="midnightblue" stroke="midnightblue" points="1663.42,-267.68 1670.73,-260.01 1660.23,-261.45 1663.42,-267.68"/>
</g>
<!-- Node3 -->
<g id="node3" class="node">
<title>Node3</title>
<g id="a_node3"><a xlink:href="concepts_8h.html" target="_top" xlink:title=" ">
<polygon fill="white" stroke="red" points="413.35,-56.5 413.35,-75.5 533.35,-75.5 533.35,-56.5 413.35,-56.5"/>
<text text-anchor="middle" x="473.35" y="-63.5" font-family="Helvetica,sans-Serif" font-size="10.00">emlabcpp/concepts.h</text>
</a>
</g>
</g>
<!-- Node2&#45;&gt;Node3 -->
<g id="edge2" class="edge">
<title>Node2&#45;&gt;Node3</title>
<path fill="none" stroke="midnightblue" d="M623.56,-249.48C462.43,-248.73 62.66,-242.47 22.35,-199 -88.81,-79.12 250.42,-66.04 403.03,-66.01"/>
<polygon fill="midnightblue" stroke="midnightblue" points="403.24,-69.51 413.24,-66.03 403.25,-62.51 403.24,-69.51"/>
</g>
<!-- Node13 -->
<g id="node4" class="node">
<title>Node13</title>
<g id="a_node4"><a xlink:title=" ">
<polygon fill="white" stroke="#bfbfbf" points="728.85,-0.5 728.85,-19.5 779.85,-19.5 779.85,-0.5 728.85,-0.5"/>
<text text-anchor="middle" x="754.35" y="-7.5" font-family="Helvetica,sans-Serif" font-size="10.00">variant</text>
</a>
</g>
</g>
<!-- Node2&#45;&gt;Node13 -->
<g id="edge27" class="edge">
<title>Node2&#45;&gt;Node13</title>
<path fill="none" stroke="midnightblue" d="M757.22,-247.32C882.47,-242.53 1142.29,-229.07 1169.35,-199 1283.64,-72.03 909.69,-25.49 789.98,-14.04"/>
<polygon fill="midnightblue" stroke="midnightblue" points="790.14,-10.54 779.86,-13.1 789.49,-17.51 790.14,-10.54"/>
</g>
<!-- Node14 -->
<g id="node5" class="node">
<title>Node14</title>
<g id="a_node5"><a xlink:href="enum_8h.html" target="_top" xlink:title=" ">
<polygon fill="white" stroke="red" points="1056.35,-174 1056.35,-193 1160.35,-193 1160.35,-174 1056.35,-174"/>
<text text-anchor="middle" x="1108.35" y="-181" font-family="Helvetica,sans-Serif" font-size="10.00">emlabcpp/enum.h</text>
</a>
</g>
</g>
<!-- Node2&#45;&gt;Node14 -->
<g id="edge4" class="edge">
<title>Node2&#45;&gt;Node14</title>
<path fill="none" stroke="midnightblue" d="M757.09,-241.42C828.06,-232.47 943.49,-216.93 1042.35,-199 1048.64,-197.86 1055.24,-196.55 1061.73,-195.19"/>
<polygon fill="midnightblue" stroke="midnightblue" points="1062.75,-198.55 1071.79,-193.04 1061.28,-191.71 1062.75,-198.55"/>
</g>
<!-- Node15 -->
<g id="node6" class="node">
<title>Node15</title>
<g id="a_node6"><a xlink:href="decompose_8h.html" target="_top" xlink:title=" ">
<polygon fill="white" stroke="black" points="866.85,-168.5 866.85,-198.5 999.85,-198.5 999.85,-168.5 866.85,-168.5"/>
<text text-anchor="start" x="874.85" y="-186.5" font-family="Helvetica,sans-Serif" font-size="10.00">emlabcpp/experimental</text>
<text text-anchor="middle" x="933.35" y="-175.5" font-family="Helvetica,sans-Serif" font-size="10.00">/decompose.h</text>
</a>
</g>
</g>
<!-- Node2&#45;&gt;Node15 -->
<g id="edge5" class="edge">
<title>Node2&#45;&gt;Node15</title>
<path fill="none" stroke="midnightblue" d="M742.78,-235.48C780.34,-225.43 831.08,-211.86 870.76,-201.24"/>
<polygon fill="midnightblue" stroke="midnightblue" points="871.84,-204.58 880.6,-198.61 870.03,-197.81 871.84,-204.58"/>
</g>
<!-- Node8 -->
<g id="node7" class="node">
<title>Node8</title>
<g id="a_node7"><a xlink:title=" ">
<polygon fill="white" stroke="#bfbfbf" points="984.85,-112.5 984.85,-131.5 1025.85,-131.5 1025.85,-112.5 984.85,-112.5"/>
<text text-anchor="middle" x="1005.35" y="-119.5" font-family="Helvetica,sans-Serif" font-size="10.00">tuple</text>
</a>
</g>
</g>
<!-- Node2&#45;&gt;Node8 -->
<g id="edge25" class="edge">
<title>Node2&#45;&gt;Node8</title>
<path fill="none" stroke="midnightblue" d="M756.89,-248.68C840.43,-246.08 976.68,-236.09 1008.35,-199 1021.71,-183.35 1017.69,-158.58 1012.5,-141.6"/>
<polygon fill="midnightblue" stroke="midnightblue" points="1015.67,-140.05 1009.09,-131.75 1009.05,-142.34 1015.67,-140.05"/>
</g>
<!-- Node16 -->
<g id="node8" class="node">
<title>Node16</title>
<g id="a_node8"><a xlink:href="match_8h.html" target="_top" xlink:title=" ">
<polygon fill="white" stroke="red" points="1356.85,-174 1356.85,-193 1463.85,-193 1463.85,-174 1356.85,-174"/>
<text text-anchor="middle" x="1410.35" y="-181" font-family="Helvetica,sans-Serif" font-size="10.00">emlabcpp/match.h</text>
</a>
</g>
</g>
<!-- Node2&#45;&gt;Node16 -->
<g id="edge8" class="edge">
<title>Node2&#45;&gt;Node16</title>
<path fill="none" stroke="midnightblue" d="M756.93,-247.67C876.01,-243.67 1133.05,-231.71 1347.35,-199 1353.83,-198.01 1360.63,-196.72 1367.27,-195.31"/>
<polygon fill="midnightblue" stroke="midnightblue" points="1368.5,-198.62 1377.51,-193.04 1366.98,-191.79 1368.5,-198.62"/>
</g>
<!-- Node21 -->
<g id="node9" class="node">
<title>Node21</title>
<g id="a_node9"><a xlink:href="min__max_8h.html" target="_top" xlink:title=" ">
<polygon fill="white" stroke="red" points="1216.35,-174 1216.35,-193 1338.35,-193 1338.35,-174 1216.35,-174"/>
<text text-anchor="middle" x="1277.35" y="-181" font-family="Helvetica,sans-Serif" font-size="10.00">emlabcpp/min_max.h</text>
</a>
</g>
</g>
<!-- Node2&#45;&gt;Node21 -->
<g id="edge9" class="edge">
<title>Node2&#45;&gt;Node21</title>
<path fill="none" stroke="midnightblue" d="M756.87,-244.92C854.76,-237.73 1043.25,-222.17 1202.35,-199 1210.37,-197.83 1218.84,-196.39 1227.09,-194.88"/>
<polygon fill="midnightblue" stroke="midnightblue" points="1227.81,-198.31 1236.99,-193.02 1226.51,-191.43 1227.81,-198.31"/>
</g>
<!-- Node23 -->
<g id="node11" class="node">
<title>Node23</title>
<g id="a_node11"><a xlink:href="range_8h.html" target="_top" xlink:title=" ">
<polygon fill="white" stroke="red" points="31.35,-174 31.35,-193 135.35,-193 135.35,-174 31.35,-174"/>
<text text-anchor="middle" x="83.35" y="-181" font-family="Helvetica,sans-Serif" font-size="10.00">emlabcpp/range.h</text>
</a>
</g>
</g>
<!-- Node2&#45;&gt;Node23 -->
<g id="edge11" class="edge">
<title>Node2&#45;&gt;Node23</title>
<path fill="none" stroke="midnightblue" d="M623.82,-245.94C521.41,-239.85 319.22,-225.48 149.35,-199 142.57,-197.94 135.45,-196.61 128.49,-195.19"/>
<polygon fill="midnightblue" stroke="midnightblue" points="128.99,-191.72 118.48,-193.06 127.53,-198.56 128.99,-191.72"/>
</g>
<!-- Node19 -->
<g id="node12" class="node">
<title>Node19</title>
<g id="a_node12"><a xlink:href="types_8h.html" target="_top" xlink:title=" ">
<polygon fill="white" stroke="red" points="267.35,-112.5 267.35,-131.5 371.35,-131.5 371.35,-112.5 267.35,-112.5"/>
<text text-anchor="middle" x="319.35" y="-119.5" font-family="Helvetica,sans-Serif" font-size="10.00">emlabcpp/types.h</text>
</a>
</g>
</g>
<!-- Node2&#45;&gt;Node19 -->
<g id="edge12" class="edge">
<title>Node2&#45;&gt;Node19</title>
<path fill="none" stroke="midnightblue" d="M623.59,-248.54C533.39,-245.85 379.14,-235.81 338.35,-199 322.45,-184.65 318.92,-159.19 318.56,-141.72"/>
<polygon fill="midnightblue" stroke="midnightblue" points="322.06,-141.64 318.68,-131.59 315.06,-141.55 322.06,-141.64"/>
</g>
<!-- Node26 -->
<g id="node13" class="node">
<title>Node26</title>
<g id="a_node13"><a xlink:href="view_8h.html" target="_top" xlink:title=" ">
<polygon fill="white" stroke="black" points="191.85,-174 191.85,-193 290.85,-193 290.85,-174 191.85,-174"/>
<text text-anchor="middle" x="241.35" y="-181" font-family="Helvetica,sans-Serif" font-size="10.00">emlabcpp/view.h</text>
</a>
</g>
</g>
<!-- Node2&#45;&gt;Node26 -->
<g id="edge14" class="edge">
<title>Node2&#45;&gt;Node26</title>
<path fill="none" stroke="midnightblue" d="M623.64,-242.64C546.64,-234.29 416.34,-218.81 305.35,-199 299.17,-197.9 292.68,-196.6 286.31,-195.23"/>
<polygon fill="midnightblue" stroke="midnightblue" points="286.96,-191.79 276.44,-193.06 285.46,-198.63 286.96,-191.79"/>
</g>
<!-- Node27 -->
<g id="node14" class="node">
<title>Node27</title>
<g id="a_node14"><a xlink:title=" ">
<polygon fill="white" stroke="#bfbfbf" points="176.35,-112.5 176.35,-131.5 216.35,-131.5 216.35,-112.5 176.35,-112.5"/>
<text text-anchor="middle" x="196.35" y="-119.5" font-family="Helvetica,sans-Serif" font-size="10.00">span</text>
</a>
</g>
</g>
<!-- Node2&#45;&gt;Node27 -->
<g id="edge24" class="edge">
<title>Node2&#45;&gt;Node27</title>
<path fill="none" stroke="midnightblue" d="M623.77,-247.76C492.72,-243.64 211.44,-231.13 182.35,-199 168.05,-183.2 176.88,-157.75 185.65,-140.71"/>
<polygon fill="midnightblue" stroke="midnightblue" points="188.81,-142.22 190.63,-131.78 182.7,-138.81 188.81,-142.22"/>
</g>
<!-- Node28 -->
<g id="node15" class="node">
<title>Node28</title>
<g id="a_node15"><a xlink:title=" ">
<polygon fill="white" stroke="#bfbfbf" points="347.35,-174 347.35,-193 391.35,-193 391.35,-174 347.35,-174"/>
<text text-anchor="middle" x="369.35" y="-181" font-family="Helvetica,sans-Serif" font-size="10.00">bitset</text>
</a>
</g>
</g>
<!-- Node2&#45;&gt;Node28 -->
<g id="edge17" class="edge">
<title>Node2&#45;&gt;Node28</title>
<path fill="none" stroke="midnightblue" d="M623.8,-242.99C564.24,-235.97 475.05,-222.52 400.35,-199 398.48,-198.41 396.58,-197.73 394.68,-197"/>
<polygon fill="midnightblue" stroke="midnightblue" points="396,-193.76 385.44,-193.01 393.23,-200.19 396,-193.76"/>
</g>
<!-- Node29 -->
<g id="node16" class="node">
<title>Node29</title>
<g id="a_node16"><a xlink:title=" ">
<polygon fill="white" stroke="#bfbfbf" points="409.85,-174 409.85,-193 470.85,-193 470.85,-174 409.85,-174"/>
<text text-anchor="middle" x="440.35" y="-181" font-family="Helvetica,sans-Serif" font-size="10.00">charconv</text>
</a>
</g>
</g>
<!-- Node2&#45;&gt;Node29 -->
<g id="edge18" class="edge">
<title>Node2&#45;&gt;Node29</title>
<path fill="none" stroke="midnightblue" d="M623.64,-235.46C582.1,-226.22 527.75,-213.24 480.35,-199 477.72,-198.21 475.01,-197.34 472.3,-196.44"/>
<polygon fill="midnightblue" stroke="midnightblue" points="473.22,-193.05 462.63,-193.07 470.92,-199.67 473.22,-193.05"/>
</g>
<!-- Node2&#45;&gt;Node30 -->
<g id="edge19" class="edge">
<title>Node2&#45;&gt;Node30</title>
<path fill="none" stroke="midnightblue" d="M757.01,-248C920.35,-243.86 1337.11,-230.47 1472.35,-199 1475.02,-198.38 1477.75,-197.58 1480.45,-196.67"/>
<polygon fill="midnightblue" stroke="midnightblue" points="1481.83,-199.88 1489.92,-193.04 1479.33,-193.35 1481.83,-199.88"/>
</g>
<!-- Node31 -->
<g id="node18" class="node">
<title>Node31</title>
<g id="a_node18"><a xlink:title=" ">
<polygon fill="white" stroke="#bfbfbf" points="489.35,-174 489.35,-193 557.35,-193 557.35,-174 489.35,-174"/>
<text text-anchor="middle" x="523.35" y="-181" font-family="Helvetica,sans-Serif" font-size="10.00">filesystem</text>
</a>
</g>
</g>
<!-- Node2&#45;&gt;Node31 -->
<g id="edge20" class="edge">
<title>Node2&#45;&gt;Node31</title>
<path fill="none" stroke="midnightblue" d="M654.11,-235.4C624.42,-223.84 582.84,-207.66 554.6,-196.66"/>
<polygon fill="midnightblue" stroke="midnightblue" points="555.79,-193.37 545.21,-193.01 553.26,-199.9 555.79,-193.37"/>
</g>
<!-- Node32 -->
<g id="node19" class="node">
<title>Node32</title>
<g id="a_node19"><a xlink:title=" ">
<polygon fill="white" stroke="#bfbfbf" points="575.35,-174 575.35,-193 613.35,-193 613.35,-174 575.35,-174"/>
<text text-anchor="middle" x="594.35" y="-181" font-family="Helvetica,sans-Serif" font-size="10.00">map</text>
</a>
</g>
</g>
<!-- Node2&#45;&gt;Node32 -->
<g id="edge21" class="edge">
<title>Node2&#45;&gt;Node32</title>
<path fill="none" stroke="midnightblue" d="M669.52,-235.4C653.57,-224.6 631.65,-209.76 615.6,-198.89"/>
<polygon fill="midnightblue" stroke="midnightblue" points="617.16,-195.72 606.91,-193.01 613.23,-201.51 617.16,-195.72"/>
</g>
<!-- Node33 -->
<g id="node20" class="node">
<title>Node33</title>
<g id="a_node20"><a xlink:title=" ">
<polygon fill="white" stroke="#bfbfbf" points="631.35,-174 631.35,-193 687.35,-193 687.35,-174 631.35,-174"/>
<text text-anchor="middle" x="659.35" y="-181" font-family="Helvetica,sans-Serif" font-size="10.00">optional</text>
</a>
</g>
</g>
<!-- Node2&#45;&gt;Node33 -->
<g id="edge22" class="edge">
<title>Node2&#45;&gt;Node33</title>
<path fill="none" stroke="midnightblue" d="M683.62,-235.4C679.03,-225.76 672.9,-212.91 667.95,-202.54"/>
<polygon fill="midnightblue" stroke="midnightblue" points="670.96,-200.71 663.5,-193.19 664.64,-203.73 670.96,-200.71"/>
</g>
<!-- Node34 -->
<g id="node21" class="node">
<title>Node34</title>
<g id="a_node21"><a xlink:title=" ">
<polygon fill="white" stroke="#bfbfbf" points="705.35,-174 705.35,-193 737.35,-193 737.35,-174 705.35,-174"/>
<text text-anchor="middle" x="721.35" y="-181" font-family="Helvetica,sans-Serif" font-size="10.00">set</text>
</a>
</g>
</g>
<!-- Node2&#45;&gt;Node34 -->
<g id="edge23" class="edge">
<title>Node2&#45;&gt;Node34</title>
<path fill="none" stroke="midnightblue" d="M697.08,-235.4C701.67,-225.76 707.8,-212.91 712.75,-202.54"/>
<polygon fill="midnightblue" stroke="midnightblue" points="716.06,-203.73 717.2,-193.19 709.74,-200.71 716.06,-203.73"/>
</g>
<!-- Node35 -->
<g id="node22" class="node">
<title>Node35</title>
<g id="a_node22"><a xlink:title=" ">
<polygon fill="white" stroke="#bfbfbf" points="755.85,-174 755.85,-193 848.85,-193 848.85,-174 755.85,-174"/>
<text text-anchor="middle" x="802.35" y="-181" font-family="Helvetica,sans-Serif" font-size="10.00">unordered_map</text>
</a>
</g>
</g>
<!-- Node2&#45;&gt;Node35 -->
<g id="edge26" class="edge">
<title>Node2&#45;&gt;Node35</title>
<path fill="none" stroke="midnightblue" d="M714.65,-235.4C733.7,-224.34 760.03,-209.06 778.86,-198.13"/>
<polygon fill="midnightblue" stroke="midnightblue" points="780.8,-201.05 787.69,-193.01 777.29,-195 780.8,-201.05"/>
</g>
<!-- Node3&#45;&gt;Node13 -->
<g id="edge3" class="edge">
<title>Node3&#45;&gt;Node13</title>
<path fill="none" stroke="midnightblue" d="M517.88,-56.44C573.47,-45.76 667.47,-27.7 718.61,-17.87"/>
<polygon fill="midnightblue" stroke="midnightblue" points="719.38,-21.28 728.54,-15.96 718.06,-14.41 719.38,-21.28"/>
</g>
<!-- Node15&#45;&gt;Node3 -->
<g id="edge6" class="edge">
<title>Node15&#45;&gt;Node3</title>
<path fill="none" stroke="midnightblue" d="M877.4,-168.45C784.68,-145.17 601.07,-99.07 517.1,-77.99"/>
<polygon fill="midnightblue" stroke="midnightblue" points="517.92,-74.58 507.37,-75.54 516.22,-81.37 517.92,-74.58"/>
</g>
<!-- Node15&#45;&gt;Node8 -->
<g id="edge7" class="edge">
<title>Node15&#45;&gt;Node8</title>
<path fill="none" stroke="midnightblue" d="M950.41,-168.4C961.41,-159.31 975.72,-147.49 986.97,-138.19"/>
<polygon fill="midnightblue" stroke="midnightblue" points="989.39,-140.73 994.87,-131.66 984.94,-135.33 989.39,-140.73"/>
</g>
<!-- Node21&#45;&gt;Node5 -->
<g id="edge10" class="edge">
<title>Node21&#45;&gt;Node5</title>
<path fill="none" stroke="midnightblue" d="M1297.55,-173.98C1321.42,-163.9 1361.35,-147.05 1388.72,-135.5"/>
<polygon fill="midnightblue" stroke="midnightblue" points="1390.33,-138.62 1398.19,-131.51 1387.61,-132.17 1390.33,-138.62"/>
</g>
<!-- Node19&#45;&gt;Node3 -->
<g id="edge13" class="edge">
<title>Node19&#45;&gt;Node3</title>
<path fill="none" stroke="midnightblue" d="M343.75,-112.44C369.55,-103.4 410.43,-89.06 439.37,-78.92"/>
<polygon fill="midnightblue" stroke="midnightblue" points="440.78,-82.13 449.06,-75.52 438.47,-75.52 440.78,-82.13"/>
</g>
<!-- Node26&#45;&gt;Node19 -->
<g id="edge15" class="edge">
<title>Node26&#45;&gt;Node19</title>
<path fill="none" stroke="midnightblue" d="M252.53,-173.98C264.92,-164.52 285.14,-149.1 300.1,-137.69"/>
<polygon fill="midnightblue" stroke="midnightblue" points="302.37,-140.36 308.2,-131.51 298.12,-134.79 302.37,-140.36"/>
</g>
<!-- Node26&#45;&gt;Node27 -->
<g id="edge16" class="edge">
<title>Node26&#45;&gt;Node27</title>
<path fill="none" stroke="midnightblue" d="M234.9,-173.98C228.15,-165.05 217.38,-150.81 208.94,-139.64"/>
<polygon fill="midnightblue" stroke="midnightblue" points="211.61,-137.37 202.79,-131.51 206.03,-141.6 211.61,-137.37"/>
</g>
</g>
</svg>
