<?xml version="1.0" encoding="UTF-8" standalone="no"?>
<!DOCTYPE svg PUBLIC "-//W3C//DTD SVG 1.1//EN"
 "http://www.w3.org/Graphics/SVG/1.1/DTD/svg11.dtd">
<!-- Generated by graphviz version 2.43.0 (0)
 -->
<!-- Title: include/emlabcpp/experimental/logging/time.h Pages: 1 -->
<svg width="778pt" height="341pt"
 viewBox="0.00 0.00 777.57 341.00" xmlns="http://www.w3.org/2000/svg" xmlns:xlink="http://www.w3.org/1999/xlink">
<g id="graph0" class="graph" transform="scale(1 1) rotate(0) translate(4 337)">
<title>include/emlabcpp/experimental/logging/time.h</title>
<polygon fill="white" stroke="transparent" points="-4,4 -4,-337 773.57,-337 773.57,4 -4,4"/>
<!-- Node1 -->
<g id="node1" class="node">
<title>Node1</title>
<g id="a_node1"><a xlink:title=" ">
<polygon fill="#bfbfbf" stroke="black" points="437.07,-302.5 437.07,-332.5 608.07,-332.5 608.07,-302.5 437.07,-302.5"/>
<text text-anchor="start" x="445.07" y="-320.5" font-family="Helvetica,sans-Serif" font-size="10.00">include/emlabcpp/experimental</text>
<text text-anchor="middle" x="522.57" y="-309.5" font-family="Helvetica,sans-Serif" font-size="10.00">/logging/time.h</text>
</a>
</g>
</g>
<!-- Node2 -->
<g id="node2" class="node">
<title>Node2</title>
<g id="a_node2"><a xlink:href="pretty__printer_8h.html" target="_top" xlink:title=" ">
<polygon fill="white" stroke="black" points="286.07,-235.5 286.07,-265.5 419.07,-265.5 419.07,-235.5 286.07,-235.5"/>
<text text-anchor="start" x="294.07" y="-253.5" font-family="Helvetica,sans-Serif" font-size="10.00">emlabcpp/experimental</text>
<text text-anchor="middle" x="352.57" y="-242.5" font-family="Helvetica,sans-Serif" font-size="10.00">/pretty_printer.h</text>
</a>
</g>
</g>
<!-- Node1&#45;&gt;Node2 -->
<g id="edge1" class="edge">
<title>Node1&#45;&gt;Node2</title>
<path fill="none" stroke="midnightblue" d="M485.68,-302.4C460.17,-292.64 426.05,-279.59 398.73,-269.15"/>
<polygon fill="midnightblue" stroke="midnightblue" points="399.97,-265.88 389.38,-265.58 397.47,-272.42 399.97,-265.88"/>
</g>
<!-- Node5 -->
<g id="node13" class="node">
<title>Node5</title>
<g id="a_node13"><a xlink:title=" ">
<polygon fill="white" stroke="#bfbfbf" points="437.57,-241 437.57,-260 479.57,-260 479.57,-241 437.57,-241"/>
<text text-anchor="middle" x="458.57" y="-248" font-family="Helvetica,sans-Serif" font-size="10.00">array</text>
</a>
</g>
</g>
<!-- Node1&#45;&gt;Node5 -->
<g id="edge17" class="edge">
<title>Node1&#45;&gt;Node5</title>
<path fill="none" stroke="midnightblue" d="M508.68,-302.4C498.6,-292.16 484.95,-278.3 474.44,-267.62"/>
<polygon fill="midnightblue" stroke="midnightblue" points="476.64,-264.86 467.13,-260.19 471.65,-269.78 476.64,-264.86"/>
</g>
<!-- Node23 -->
<g id="node14" class="node">
<title>Node23</title>
<g id="a_node14"><a xlink:title=" ">
<polygon fill="white" stroke="#bfbfbf" points="497.57,-241 497.57,-260 547.57,-260 547.57,-241 497.57,-241"/>
<text text-anchor="middle" x="522.57" y="-248" font-family="Helvetica,sans-Serif" font-size="10.00">chrono</text>
</a>
</g>
</g>
<!-- Node1&#45;&gt;Node23 -->
<g id="edge18" class="edge">
<title>Node1&#45;&gt;Node23</title>
<path fill="none" stroke="midnightblue" d="M522.57,-302.4C522.57,-293.06 522.57,-280.71 522.57,-270.52"/>
<polygon fill="midnightblue" stroke="midnightblue" points="526.07,-270.19 522.57,-260.19 519.07,-270.19 526.07,-270.19"/>
</g>
<!-- Node24 -->
<g id="node15" class="node">
<title>Node24</title>
<g id="a_node15"><a xlink:title=" ">
<polygon fill="white" stroke="#bfbfbf" points="565.57,-241 565.57,-260 609.57,-260 609.57,-241 565.57,-241"/>
<text text-anchor="middle" x="587.57" y="-248" font-family="Helvetica,sans-Serif" font-size="10.00">ctime</text>
</a>
</g>
</g>
<!-- Node1&#45;&gt;Node24 -->
<g id="edge19" class="edge">
<title>Node1&#45;&gt;Node24</title>
<path fill="none" stroke="midnightblue" d="M536.67,-302.4C547.01,-292.06 561.04,-278.02 571.76,-267.31"/>
<polygon fill="midnightblue" stroke="midnightblue" points="574.28,-269.74 578.87,-260.19 569.33,-264.79 574.28,-269.74"/>
</g>
<!-- Node25 -->
<g id="node16" class="node">
<title>Node25</title>
<g id="a_node16"><a xlink:title=" ">
<polygon fill="white" stroke="#bfbfbf" points="628.07,-241 628.07,-260 701.07,-260 701.07,-241 628.07,-241"/>
<text text-anchor="middle" x="664.57" y="-248" font-family="Helvetica,sans-Serif" font-size="10.00">string_view</text>
</a>
</g>
</g>
<!-- Node1&#45;&gt;Node25 -->
<g id="edge20" class="edge">
<title>Node1&#45;&gt;Node25</title>
<path fill="none" stroke="midnightblue" d="M553.38,-302.4C578.18,-291.04 612.75,-275.22 636.73,-264.24"/>
<polygon fill="midnightblue" stroke="midnightblue" points="638.35,-267.35 645.98,-260.01 635.43,-260.99 638.35,-267.35"/>
</g>
<!-- Node3 -->
<g id="node3" class="node">
<title>Node3</title>
<g id="a_node3"><a xlink:href="concepts_8h.html" target="_top" xlink:title=" ">
<polygon fill="white" stroke="red" points="211.57,-56.5 211.57,-75.5 331.57,-75.5 331.57,-56.5 211.57,-56.5"/>
<text text-anchor="middle" x="271.57" y="-63.5" font-family="Helvetica,sans-Serif" font-size="10.00">emlabcpp/concepts.h</text>
</a>
</g>
</g>
<!-- Node2&#45;&gt;Node3 -->
<g id="edge2" class="edge">
<title>Node2&#45;&gt;Node3</title>
<path fill="none" stroke="midnightblue" d="M346.55,-235.39C335.87,-210.43 312.82,-156.87 292.57,-112 288.48,-102.95 283.82,-92.94 279.93,-84.65"/>
<polygon fill="midnightblue" stroke="midnightblue" points="283.09,-83.15 275.66,-75.6 276.76,-86.13 283.09,-83.15"/>
</g>
<!-- Node13 -->
<g id="node4" class="node">
<title>Node13</title>
<g id="a_node4"><a xlink:title=" ">
<polygon fill="white" stroke="#bfbfbf" points="88.07,-0.5 88.07,-19.5 139.07,-19.5 139.07,-0.5 88.07,-0.5"/>
<text text-anchor="middle" x="113.57" y="-7.5" font-family="Helvetica,sans-Serif" font-size="10.00">variant</text>
</a>
</g>
</g>
<!-- Node2&#45;&gt;Node13 -->
<g id="edge16" class="edge">
<title>Node2&#45;&gt;Node13</title>
<path fill="none" stroke="midnightblue" d="M286.04,-249.41C197.72,-247.72 48.89,-238.83 14.57,-199 -33.54,-143.17 53.74,-59.98 94.38,-26.14"/>
<polygon fill="midnightblue" stroke="midnightblue" points="96.75,-28.72 102.29,-19.69 92.32,-23.3 96.75,-28.72"/>
</g>
<!-- Node14 -->
<g id="node5" class="node">
<title>Node14</title>
<g id="a_node5"><a xlink:href="enum_8h.html" target="_top" xlink:title=" ">
<polygon fill="white" stroke="red" points="141.57,-174 141.57,-193 245.57,-193 245.57,-174 141.57,-174"/>
<text text-anchor="middle" x="193.57" y="-181" font-family="Helvetica,sans-Serif" font-size="10.00">emlabcpp/enum.h</text>
</a>
</g>
</g>
<!-- Node2&#45;&gt;Node14 -->
<g id="edge4" class="edge">
<title>Node2&#45;&gt;Node14</title>
<path fill="none" stroke="midnightblue" d="M318.07,-235.4C289.92,-223.89 250.56,-207.8 223.67,-196.81"/>
<polygon fill="midnightblue" stroke="midnightblue" points="224.96,-193.55 214.38,-193.01 222.31,-200.03 224.96,-193.55"/>
</g>
<!-- Node15 -->
<g id="node6" class="node">
<title>Node15</title>
<g id="a_node6"><a xlink:href="decompose_8h.html" target="_top" xlink:title=" ">
<polygon fill="white" stroke="black" points="504.07,-168.5 504.07,-198.5 637.07,-198.5 637.07,-168.5 504.07,-168.5"/>
<text text-anchor="start" x="512.07" y="-186.5" font-family="Helvetica,sans-Serif" font-size="10.00">emlabcpp/experimental</text>
<text text-anchor="middle" x="570.57" y="-175.5" font-family="Helvetica,sans-Serif" font-size="10.00">/decompose.h</text>
</a>
</g>
</g>
<!-- Node2&#45;&gt;Node15 -->
<g id="edge5" class="edge">
<title>Node2&#45;&gt;Node15</title>
<path fill="none" stroke="midnightblue" d="M399.6,-235.48C433.01,-225.51 478.05,-212.09 513.51,-201.51"/>
<polygon fill="midnightblue" stroke="midnightblue" points="514.66,-204.82 523.24,-198.61 512.66,-198.11 514.66,-204.82"/>
</g>
<!-- Node8 -->
<g id="node7" class="node">
<title>Node8</title>
<g id="a_node7"><a xlink:title=" ">
<polygon fill="white" stroke="#bfbfbf" points="466.07,-112.5 466.07,-131.5 507.07,-131.5 507.07,-112.5 466.07,-112.5"/>
<text text-anchor="middle" x="486.57" y="-119.5" font-family="Helvetica,sans-Serif" font-size="10.00">tuple</text>
</a>
</g>
</g>
<!-- Node2&#45;&gt;Node8 -->
<g id="edge15" class="edge">
<title>Node2&#45;&gt;Node8</title>
<path fill="none" stroke="midnightblue" d="M399.23,-235.4C419.08,-227.43 441.15,-215.64 456.57,-199 471.45,-182.94 479.29,-158.61 483.17,-141.83"/>
<polygon fill="midnightblue" stroke="midnightblue" points="486.69,-142.11 485.27,-131.61 479.83,-140.7 486.69,-142.11"/>
</g>
<!-- Node16 -->
<g id="node8" class="node">
<title>Node16</title>
<g id="a_node8"><a xlink:href="match_8h.html" target="_top" xlink:title=" ">
<polygon fill="white" stroke="red" points="340.07,-174 340.07,-193 447.07,-193 447.07,-174 340.07,-174"/>
<text text-anchor="middle" x="393.57" y="-181" font-family="Helvetica,sans-Serif" font-size="10.00">emlabcpp/match.h</text>
</a>
</g>
</g>
<!-- Node2&#45;&gt;Node16 -->
<g id="edge8" class="edge">
<title>Node2&#45;&gt;Node16</title>
<path fill="none" stroke="midnightblue" d="M361.46,-235.4C367.67,-225.56 375.98,-212.38 382.6,-201.89"/>
<polygon fill="midnightblue" stroke="midnightblue" points="385.71,-203.52 388.08,-193.19 379.79,-199.79 385.71,-203.52"/>
</g>
<!-- Node18 -->
<g id="node9" class="node">
<title>Node18</title>
<g id="a_node9"><a xlink:href="types_8h.html" target="_top" xlink:title=" ">
<polygon fill="white" stroke="red" points="179.57,-112.5 179.57,-131.5 283.57,-131.5 283.57,-112.5 179.57,-112.5"/>
<text text-anchor="middle" x="231.57" y="-119.5" font-family="Helvetica,sans-Serif" font-size="10.00">emlabcpp/types.h</text>
</a>
</g>
</g>
<!-- Node2&#45;&gt;Node18 -->
<g id="edge9" class="edge">
<title>Node2&#45;&gt;Node18</title>
<path fill="none" stroke="midnightblue" d="M336.23,-235.38C325.05,-225.5 310.04,-211.82 297.57,-199 278.44,-179.34 257.96,-155.22 244.98,-139.5"/>
<polygon fill="midnightblue" stroke="midnightblue" points="247.64,-137.23 238.59,-131.71 242.22,-141.66 247.64,-137.23"/>
</g>
<!-- Node20 -->
<g id="node10" class="node">
<title>Node20</title>
<g id="a_node10"><a xlink:href="view_8h.html" target="_top" xlink:title=" ">
<polygon fill="white" stroke="black" points="24.07,-174 24.07,-193 123.07,-193 123.07,-174 24.07,-174"/>
<text text-anchor="middle" x="73.57" y="-181" font-family="Helvetica,sans-Serif" font-size="10.00">emlabcpp/view.h</text>
</a>
</g>
</g>
<!-- Node2&#45;&gt;Node20 -->
<g id="edge11" class="edge">
<title>Node2&#45;&gt;Node20</title>
<path fill="none" stroke="midnightblue" d="M290.39,-235.5C246.3,-225.5 185.75,-211.64 132.57,-199 127.81,-197.87 122.85,-196.68 117.91,-195.47"/>
<polygon fill="midnightblue" stroke="midnightblue" points="118.41,-191.99 107.86,-193.02 116.75,-198.79 118.41,-191.99"/>
</g>
<!-- Node21 -->
<g id="node11" class="node">
<title>Node21</title>
<g id="a_node11"><a xlink:title=" ">
<polygon fill="white" stroke="#bfbfbf" points="655.57,-174 655.57,-193 711.57,-193 711.57,-174 655.57,-174"/>
<text text-anchor="middle" x="683.57" y="-181" font-family="Helvetica,sans-Serif" font-size="10.00">optional</text>
</a>
</g>
</g>
<!-- Node2&#45;&gt;Node21 -->
<g id="edge13" class="edge">
<title>Node2&#45;&gt;Node21</title>
<path fill="none" stroke="midnightblue" d="M419.28,-236.68C422.42,-236.1 425.52,-235.54 428.57,-235 525.25,-217.8 551.89,-225.06 646.57,-199 649.16,-198.29 651.82,-197.45 654.47,-196.56"/>
<polygon fill="midnightblue" stroke="midnightblue" points="655.68,-199.84 663.86,-193.11 653.26,-193.27 655.68,-199.84"/>
</g>
<!-- Node22 -->
<g id="node12" class="node">
<title>Node22</title>
<g id="a_node12"><a xlink:title=" ">
<polygon fill="white" stroke="#bfbfbf" points="729.57,-174 729.57,-193 769.57,-193 769.57,-174 729.57,-174"/>
<text text-anchor="middle" x="749.57" y="-181" font-family="Helvetica,sans-Serif" font-size="10.00">span</text>
</a>
</g>
</g>
<!-- Node2&#45;&gt;Node22 -->
<g id="edge14" class="edge">
<title>Node2&#45;&gt;Node22</title>
<path fill="none" stroke="midnightblue" d="M419.25,-236.52C422.4,-235.99 425.51,-235.48 428.57,-235 557.75,-214.74 595.38,-236.79 720.57,-199 722.23,-198.5 723.92,-197.9 725.6,-197.25"/>
<polygon fill="midnightblue" stroke="midnightblue" points="727.25,-200.35 734.92,-193.04 724.36,-193.97 727.25,-200.35"/>
</g>
<!-- Node3&#45;&gt;Node13 -->
<g id="edge3" class="edge">
<title>Node3&#45;&gt;Node13</title>
<path fill="none" stroke="midnightblue" d="M246.53,-56.44C219.95,-47.36 177.76,-32.94 148.04,-22.78"/>
<polygon fill="midnightblue" stroke="midnightblue" points="149.08,-19.44 138.48,-19.52 146.82,-26.06 149.08,-19.44"/>
</g>
<!-- Node15&#45;&gt;Node3 -->
<g id="edge6" class="edge">
<title>Node15&#45;&gt;Node3</title>
<path fill="none" stroke="midnightblue" d="M563.79,-168.32C555.2,-151.97 538.79,-125.61 516.57,-112 487.87,-94.43 403.56,-81.6 341.83,-74.23"/>
<polygon fill="midnightblue" stroke="midnightblue" points="342.09,-70.74 331.75,-73.05 341.27,-77.69 342.09,-70.74"/>
</g>
<!-- Node15&#45;&gt;Node8 -->
<g id="edge7" class="edge">
<title>Node15&#45;&gt;Node8</title>
<path fill="none" stroke="midnightblue" d="M550.66,-168.4C537.57,-159.13 520.48,-147.03 507.24,-137.65"/>
<polygon fill="midnightblue" stroke="midnightblue" points="508.97,-134.58 498.79,-131.66 504.93,-140.29 508.97,-134.58"/>
</g>
<!-- Node18&#45;&gt;Node3 -->
<g id="edge10" class="edge">
<title>Node18&#45;&gt;Node3</title>
<path fill="none" stroke="midnightblue" d="M238.17,-112.08C243.82,-104.46 252.11,-93.26 259.02,-83.94"/>
<polygon fill="midnightblue" stroke="midnightblue" points="261.94,-85.87 265.08,-75.75 256.32,-81.7 261.94,-85.87"/>
</g>
<!-- Node20&#45;&gt;Node18 -->
<g id="edge12" class="edge">
<title>Node20&#45;&gt;Node18</title>
<path fill="none" stroke="midnightblue" d="M96.2,-173.98C123.31,-163.77 168.88,-146.61 199.57,-135.05"/>
<polygon fill="midnightblue" stroke="midnightblue" points="200.85,-138.31 208.97,-131.51 198.38,-131.76 200.85,-138.31"/>
</g>
</g>
</svg>
