<?xml version="1.0" encoding="UTF-8" standalone="no"?>
<!DOCTYPE svg PUBLIC "-//W3C//DTD SVG 1.1//EN"
 "http://www.w3.org/Graphics/SVG/1.1/DTD/svg11.dtd">
<!-- Generated by graphviz version 2.43.0 (0)
 -->
<!-- Title: include/emlabcpp/experimental/logging/time.h Pages: 1 -->
<svg width="210pt" height="95pt"
 viewBox="0.00 0.00 210.00 95.00" xmlns="http://www.w3.org/2000/svg" xmlns:xlink="http://www.w3.org/1999/xlink">
<g id="graph0" class="graph" transform="scale(1 1) rotate(0) translate(4 91)">
<title>include/emlabcpp/experimental/logging/time.h</title>
<polygon fill="white" stroke="transparent" points="-4,4 -4,-91 206,-91 206,4 -4,4"/>
<!-- Node1 -->
<g id="node1" class="node">
<title>Node1</title>
<g id="a_node1"><a xlink:title=" ">
<polygon fill="#bfbfbf" stroke="black" points="0,-56.5 0,-86.5 171,-86.5 171,-56.5 0,-56.5"/>
<text text-anchor="start" x="8" y="-74.5" font-family="Helvetica,sans-Serif" font-size="10.00">include/emlabcpp/experimental</text>
<text text-anchor="middle" x="85.5" y="-63.5" font-family="Helvetica,sans-Serif" font-size="10.00">/logging/time.h</text>
</a>
</g>
</g>
<!-- Node1&#45;&gt;Node1 -->
<g id="edge4" class="edge">
<title>Node1&#45;&gt;Node1</title>
<path fill="none" stroke="midnightblue" d="M171.16,-81.3C181.92,-79.57 189,-76.3 189,-71.5 189,-68.42 186.09,-65.98 181.18,-64.16"/>
<polygon fill="midnightblue" stroke="midnightblue" points="181.71,-60.69 171.16,-61.7 180.04,-67.49 181.71,-60.69"/>
</g>
<!-- Node2 -->
<g id="node2" class="node">
<title>Node2</title>
<g id="a_node2"><a xlink:title=" ">
<polygon fill="white" stroke="#bfbfbf" points="0.5,-0.5 0.5,-19.5 42.5,-19.5 42.5,-0.5 0.5,-0.5"/>
<text text-anchor="middle" x="21.5" y="-7.5" font-family="Helvetica,sans-Serif" font-size="10.00">array</text>
</a>
</g>
</g>
<!-- Node1&#45;&gt;Node2 -->
<g id="edge1" class="edge">
<title>Node1&#45;&gt;Node2</title>
<path fill="none" stroke="midnightblue" d="M70.33,-56.4C60.75,-47.49 48.34,-35.95 38.43,-26.74"/>
<polygon fill="midnightblue" stroke="midnightblue" points="40.52,-23.9 30.81,-19.66 35.75,-29.03 40.52,-23.9"/>
</g>
<!-- Node3 -->
<g id="node3" class="node">
<title>Node3</title>
<g id="a_node3"><a xlink:title=" ">
<polygon fill="white" stroke="#bfbfbf" points="60.5,-0.5 60.5,-19.5 110.5,-19.5 110.5,-0.5 60.5,-0.5"/>
<text text-anchor="middle" x="85.5" y="-7.5" font-family="Helvetica,sans-Serif" font-size="10.00">chrono</text>
</a>
</g>
</g>
<!-- Node1&#45;&gt;Node3 -->
<g id="edge2" class="edge">
<title>Node1&#45;&gt;Node3</title>
<path fill="none" stroke="midnightblue" d="M85.5,-56.4C85.5,-48.47 85.5,-38.46 85.5,-29.86"/>
<polygon fill="midnightblue" stroke="midnightblue" points="89,-29.66 85.5,-19.66 82,-29.66 89,-29.66"/>
</g>
<!-- Node4 -->
<g id="node4" class="node">
<title>Node4</title>
<g id="a_node4"><a xlink:title=" ">
<polygon fill="white" stroke="#bfbfbf" points="129,-0.5 129,-19.5 202,-19.5 202,-0.5 129,-0.5"/>
<text text-anchor="middle" x="165.5" y="-7.5" font-family="Helvetica,sans-Serif" font-size="10.00">string_view</text>
</a>
</g>
</g>
<!-- Node1&#45;&gt;Node4 -->
<g id="edge3" class="edge">
<title>Node1&#45;&gt;Node4</title>
<path fill="none" stroke="midnightblue" d="M104.46,-56.4C116.92,-47.13 133.2,-35.03 145.81,-25.65"/>
<polygon fill="midnightblue" stroke="midnightblue" points="147.92,-28.43 153.86,-19.66 143.75,-22.82 147.92,-28.43"/>
</g>
</g>
</svg>
