<?xml version="1.0" encoding="UTF-8" standalone="no"?>
<!DOCTYPE svg PUBLIC "-//W3C//DTD SVG 1.1//EN"
 "http://www.w3.org/Graphics/SVG/1.1/DTD/svg11.dtd">
<!-- Generated by graphviz version 2.43.0 (0)
 -->
<!-- Title: include/emlabcpp/protocol/traits.h Pages: 1 -->
<svg width="1525pt" height="397pt"
 viewBox="0.00 0.00 1525.39 397.00" xmlns="http://www.w3.org/2000/svg" xmlns:xlink="http://www.w3.org/1999/xlink">
<g id="graph0" class="graph" transform="scale(1 1) rotate(0) translate(4 393)">
<title>include/emlabcpp/protocol/traits.h</title>
<polygon fill="white" stroke="transparent" points="-4,4 -4,-393 1521.39,-393 1521.39,4 -4,4"/>
<!-- Node1 -->
<g id="node1" class="node">
<title>Node1</title>
<g id="a_node1"><a xlink:title=" ">
<polygon fill="#bfbfbf" stroke="black" points="747.39,-358.5 747.39,-388.5 893.39,-388.5 893.39,-358.5 747.39,-358.5"/>
<text text-anchor="start" x="755.39" y="-376.5" font-family="Helvetica,sans-Serif" font-size="10.00">include/emlabcpp/protocol</text>
<text text-anchor="middle" x="820.39" y="-365.5" font-family="Helvetica,sans-Serif" font-size="10.00">/traits.h</text>
</a>
</g>
</g>
<!-- Node2 -->
<g id="node2" class="node">
<title>Node2</title>
<g id="a_node2"><a xlink:href="decompose_8h.html" target="_top" xlink:title=" ">
<polygon fill="white" stroke="black" points="14.89,-168.5 14.89,-198.5 147.89,-198.5 147.89,-168.5 14.89,-168.5"/>
<text text-anchor="start" x="22.89" y="-186.5" font-family="Helvetica,sans-Serif" font-size="10.00">emlabcpp/experimental</text>
<text text-anchor="middle" x="81.39" y="-175.5" font-family="Helvetica,sans-Serif" font-size="10.00">/decompose.h</text>
</a>
</g>
</g>
<!-- Node1&#45;&gt;Node2 -->
<g id="edge1" class="edge">
<title>Node1&#45;&gt;Node2</title>
<path fill="none" stroke="midnightblue" d="M747.01,-372.5C634.78,-371.09 414.35,-362.77 232.39,-322 162.54,-306.35 122.26,-324.76 81.39,-266 69.88,-249.46 71.18,-226.09 74.59,-208.62"/>
<polygon fill="midnightblue" stroke="midnightblue" points="78.06,-209.14 76.9,-198.61 71.24,-207.57 78.06,-209.14"/>
</g>
<!-- Node13 -->
<g id="node4" class="node">
<title>Node13</title>
<g id="a_node4"><a xlink:title=" ">
<polygon fill="white" stroke="#bfbfbf" points="1082.89,-0.5 1082.89,-19.5 1133.89,-19.5 1133.89,-0.5 1082.89,-0.5"/>
<text text-anchor="middle" x="1108.39" y="-7.5" font-family="Helvetica,sans-Serif" font-size="10.00">variant</text>
</a>
</g>
</g>
<!-- Node1&#45;&gt;Node13 -->
<g id="edge48" class="edge">
<title>Node1&#45;&gt;Node13</title>
<path fill="none" stroke="midnightblue" d="M893.4,-372.05C995.52,-369.94 1186.13,-360.58 1343.39,-322 1424.42,-302.12 1517.39,-334.94 1517.39,-251.5 1517.39,-251.5 1517.39,-251.5 1517.39,-121 1517.39,-44.02 1243.81,-19.38 1144.15,-12.96"/>
<polygon fill="midnightblue" stroke="midnightblue" points="1144.17,-9.45 1133.97,-12.33 1143.74,-16.44 1144.17,-9.45"/>
</g>
<!-- Node14 -->
<g id="node6" class="node">
<title>Node14</title>
<g id="a_node6"><a xlink:href="protocol_2base_8h.html" target="_top" xlink:title=" ">
<polygon fill="white" stroke="black" points="1023.89,-302.5 1023.89,-321.5 1166.89,-321.5 1166.89,-302.5 1023.89,-302.5"/>
<text text-anchor="middle" x="1095.39" y="-309.5" font-family="Helvetica,sans-Serif" font-size="10.00">emlabcpp/protocol/base.h</text>
</a>
</g>
</g>
<!-- Node1&#45;&gt;Node14 -->
<g id="edge5" class="edge">
<title>Node1&#45;&gt;Node14</title>
<path fill="none" stroke="midnightblue" d="M885.21,-358.47C934.52,-347.81 1001.32,-333.35 1046.27,-323.63"/>
<polygon fill="midnightblue" stroke="midnightblue" points="1047.04,-327.04 1056.07,-321.51 1045.56,-320.2 1047.04,-327.04"/>
</g>
<!-- Node17 -->
<g id="node8" class="node">
<title>Node17</title>
<g id="a_node8"><a xlink:title=" ">
<polygon fill="white" stroke="#bfbfbf" points="453.39,-174 453.39,-193 509.39,-193 509.39,-174 453.39,-174"/>
<text text-anchor="middle" x="481.39" y="-181" font-family="Helvetica,sans-Serif" font-size="10.00">optional</text>
</a>
</g>
</g>
<!-- Node1&#45;&gt;Node17 -->
<g id="edge47" class="edge">
<title>Node1&#45;&gt;Node17</title>
<path fill="none" stroke="midnightblue" d="M747.02,-363.18C644.58,-348.5 466.88,-316.35 428.39,-266 411.28,-243.63 438.99,-215.8 460.36,-199.13"/>
<polygon fill="midnightblue" stroke="midnightblue" points="462.49,-201.9 468.42,-193.12 458.31,-196.29 462.49,-201.9"/>
</g>
<!-- Node18 -->
<g id="node10" class="node">
<title>Node18</title>
<g id="a_node10"><a xlink:href="protocol_2error_8h.html" target="_top" xlink:title=" ">
<polygon fill="white" stroke="red" points="749.39,-241 749.39,-260 891.39,-260 891.39,-241 749.39,-241"/>
<text text-anchor="middle" x="820.39" y="-248" font-family="Helvetica,sans-Serif" font-size="10.00">emlabcpp/protocol/error.h</text>
</a>
</g>
</g>
<!-- Node1&#45;&gt;Node18 -->
<g id="edge16" class="edge">
<title>Node1&#45;&gt;Node18</title>
<path fill="none" stroke="midnightblue" d="M820.39,-358.14C820.39,-336.2 820.39,-294.33 820.39,-270.09"/>
<polygon fill="midnightblue" stroke="midnightblue" points="823.89,-270.05 820.39,-260.05 816.89,-270.05 823.89,-270.05"/>
</g>
<!-- Node22 -->
<g id="node14" class="node">
<title>Node22</title>
<g id="a_node14"><a xlink:href="message_8h.html" target="_top" xlink:title=" ">
<polygon fill="white" stroke="black" points="567.39,-241 567.39,-260 731.39,-260 731.39,-241 567.39,-241"/>
<text text-anchor="middle" x="649.39" y="-248" font-family="Helvetica,sans-Serif" font-size="10.00">emlabcpp/protocol/message.h</text>
</a>
</g>
</g>
<!-- Node1&#45;&gt;Node22 -->
<g id="edge17" class="edge">
<title>Node1&#45;&gt;Node22</title>
<path fill="none" stroke="midnightblue" d="M800.44,-358.38C767.74,-335.25 703.09,-289.5 669.98,-266.07"/>
<polygon fill="midnightblue" stroke="midnightblue" points="671.72,-263.01 661.53,-260.09 667.67,-268.73 671.72,-263.01"/>
</g>
<!-- Node24 -->
<g id="node16" class="node">
<title>Node24</title>
<g id="a_node16"><a xlink:href="types_8h.html" target="_top" xlink:title=" ">
<polygon fill="white" stroke="red" points="1018.39,-112.5 1018.39,-131.5 1122.39,-131.5 1122.39,-112.5 1018.39,-112.5"/>
<text text-anchor="middle" x="1070.39" y="-119.5" font-family="Helvetica,sans-Serif" font-size="10.00">emlabcpp/types.h</text>
</a>
</g>
</g>
<!-- Node1&#45;&gt;Node24 -->
<g id="edge46" class="edge">
<title>Node1&#45;&gt;Node24</title>
<path fill="none" stroke="midnightblue" d="M893.84,-367.86C1013.85,-358.43 1242.61,-332 1282.39,-266 1331.19,-185.02 1186.43,-211.85 1162.39,-199 1132.4,-182.97 1103.04,-156.25 1085.84,-139.14"/>
<polygon fill="midnightblue" stroke="midnightblue" points="1087.93,-136.27 1078.42,-131.6 1082.94,-141.18 1087.93,-136.27"/>
</g>
<!-- Node26 -->
<g id="node18" class="node">
<title>Node26</title>
<g id="a_node18"><a xlink:href="quantity_8h.html" target="_top" xlink:title=" ">
<polygon fill="white" stroke="black" points="1329.39,-241 1329.39,-260 1445.39,-260 1445.39,-241 1329.39,-241"/>
<text text-anchor="middle" x="1387.39" y="-248" font-family="Helvetica,sans-Serif" font-size="10.00">emlabcpp/quantity.h</text>
</a>
</g>
</g>
<!-- Node1&#45;&gt;Node26 -->
<g id="edge25" class="edge">
<title>Node1&#45;&gt;Node26</title>
<path fill="none" stroke="midnightblue" d="M893.42,-370.93C1012.45,-367.39 1242.35,-356.23 1315.39,-322 1340.78,-310.1 1362.61,-285.46 1375.37,-268.7"/>
<polygon fill="midnightblue" stroke="midnightblue" points="1378.42,-270.47 1381.5,-260.33 1372.77,-266.33 1378.42,-270.47"/>
</g>
<!-- Node31 -->
<g id="node23" class="node">
<title>Node31</title>
<g id="a_node23"><a xlink:href="static__vector_8h.html" target="_top" xlink:title=" ">
<polygon fill="white" stroke="black" points="241.89,-302.5 241.89,-321.5 380.89,-321.5 380.89,-302.5 241.89,-302.5"/>
<text text-anchor="middle" x="311.39" y="-309.5" font-family="Helvetica,sans-Serif" font-size="10.00">emlabcpp/static_vector.h</text>
</a>
</g>
</g>
<!-- Node1&#45;&gt;Node31 -->
<g id="edge33" class="edge">
<title>Node1&#45;&gt;Node31</title>
<path fill="none" stroke="midnightblue" d="M747.19,-363.94C652.73,-352.9 488.98,-333.76 391.35,-322.35"/>
<polygon fill="midnightblue" stroke="midnightblue" points="391.57,-318.85 381.24,-321.16 390.76,-325.8 391.57,-318.85"/>
</g>
<!-- Node3 -->
<g id="node3" class="node">
<title>Node3</title>
<g id="a_node3"><a xlink:href="concepts_8h.html" target="_top" xlink:title=" ">
<polygon fill="white" stroke="red" points="799.39,-56.5 799.39,-75.5 919.39,-75.5 919.39,-56.5 799.39,-56.5"/>
<text text-anchor="middle" x="859.39" y="-63.5" font-family="Helvetica,sans-Serif" font-size="10.00">emlabcpp/concepts.h</text>
</a>
</g>
</g>
<!-- Node2&#45;&gt;Node3 -->
<g id="edge2" class="edge">
<title>Node2&#45;&gt;Node3</title>
<path fill="none" stroke="midnightblue" d="M86.01,-168.22C92.25,-151.5 105.11,-124.52 126.39,-112 182.55,-78.94 616.52,-69.99 789.02,-67.72"/>
<polygon fill="midnightblue" stroke="midnightblue" points="789.3,-71.21 799.26,-67.59 789.21,-64.22 789.3,-71.21"/>
</g>
<!-- Node8 -->
<g id="node5" class="node">
<title>Node8</title>
<g id="a_node5"><a xlink:title=" ">
<polygon fill="white" stroke="#bfbfbf" points="135.89,-112.5 135.89,-131.5 176.89,-131.5 176.89,-112.5 135.89,-112.5"/>
<text text-anchor="middle" x="156.39" y="-119.5" font-family="Helvetica,sans-Serif" font-size="10.00">tuple</text>
</a>
</g>
</g>
<!-- Node2&#45;&gt;Node8 -->
<g id="edge4" class="edge">
<title>Node2&#45;&gt;Node8</title>
<path fill="none" stroke="midnightblue" d="M99.16,-168.4C110.73,-159.22 125.81,-147.26 137.58,-137.92"/>
<polygon fill="midnightblue" stroke="midnightblue" points="139.82,-140.61 145.47,-131.66 135.47,-135.13 139.82,-140.61"/>
</g>
<!-- Node3&#45;&gt;Node13 -->
<g id="edge3" class="edge">
<title>Node3&#45;&gt;Node13</title>
<path fill="none" stroke="midnightblue" d="M898.84,-56.44C946.78,-46.05 1026.93,-28.66 1072.97,-18.68"/>
<polygon fill="midnightblue" stroke="midnightblue" points="1073.77,-22.09 1082.8,-16.55 1072.29,-15.25 1073.77,-22.09"/>
</g>
<!-- Node14&#45;&gt;Node13 -->
<g id="edge15" class="edge">
<title>Node14&#45;&gt;Node13</title>
<path fill="none" stroke="midnightblue" d="M1098.96,-302.24C1111.18,-271.71 1151.32,-166.91 1164.39,-76 1165.65,-67.2 1168.23,-64.02 1164.39,-56 1158.13,-42.95 1146.05,-32.49 1134.71,-24.95"/>
<polygon fill="midnightblue" stroke="midnightblue" points="1136.24,-21.79 1125.89,-19.54 1132.58,-27.75 1136.24,-21.79"/>
</g>
<!-- Node15 -->
<g id="node7" class="node">
<title>Node15</title>
<g id="a_node7"><a xlink:href="bounded_8h.html" target="_top" xlink:title=" ">
<polygon fill="white" stroke="red" points="909.89,-241 909.89,-260 1028.89,-260 1028.89,-241 909.89,-241"/>
<text text-anchor="middle" x="969.39" y="-248" font-family="Helvetica,sans-Serif" font-size="10.00">emlabcpp/bounded.h</text>
</a>
</g>
</g>
<!-- Node14&#45;&gt;Node15 -->
<g id="edge6" class="edge">
<title>Node14&#45;&gt;Node15</title>
<path fill="none" stroke="midnightblue" d="M1077.33,-302.48C1056.19,-292.49 1020.95,-275.85 996.51,-264.31"/>
<polygon fill="midnightblue" stroke="midnightblue" points="997.94,-261.11 987.41,-260.01 994.95,-267.44 997.94,-261.11"/>
</g>
<!-- Node9 -->
<g id="node9" class="node">
<title>Node9</title>
<g id="a_node9"><a xlink:title=" ">
<polygon fill="white" stroke="#bfbfbf" points="997.89,-174 997.89,-193 1066.89,-193 1066.89,-174 997.89,-174"/>
<text text-anchor="middle" x="1032.39" y="-181" font-family="Helvetica,sans-Serif" font-size="10.00">type_traits</text>
</a>
</g>
</g>
<!-- Node14&#45;&gt;Node9 -->
<g id="edge14" class="edge">
<title>Node14&#45;&gt;Node9</title>
<path fill="none" stroke="midnightblue" d="M1093.66,-302.18C1090.58,-287.59 1083.31,-257.81 1071.39,-235 1064.94,-222.67 1055.44,-210.29 1047.43,-200.87"/>
<polygon fill="midnightblue" stroke="midnightblue" points="1049.85,-198.33 1040.62,-193.14 1044.6,-202.96 1049.85,-198.33"/>
</g>
<!-- Node14&#45;&gt;Node18 -->
<g id="edge10" class="edge">
<title>Node14&#45;&gt;Node18</title>
<path fill="none" stroke="midnightblue" d="M1055.99,-302.48C1006.87,-291.85 922.92,-273.68 869.62,-262.15"/>
<polygon fill="midnightblue" stroke="midnightblue" points="870.23,-258.7 859.72,-260.01 868.75,-265.54 870.23,-258.7"/>
</g>
<!-- Node20 -->
<g id="node12" class="node">
<title>Node20</title>
<g id="a_node12"><a xlink:title=" ">
<polygon fill="white" stroke="#bfbfbf" points="1229.39,-241 1229.39,-260 1273.39,-260 1273.39,-241 1229.39,-241"/>
<text text-anchor="middle" x="1251.39" y="-248" font-family="Helvetica,sans-Serif" font-size="10.00">bitset</text>
</a>
</g>
</g>
<!-- Node14&#45;&gt;Node20 -->
<g id="edge12" class="edge">
<title>Node14&#45;&gt;Node20</title>
<path fill="none" stroke="midnightblue" d="M1121.51,-302.38C1146.98,-293.79 1186.7,-279.91 1220.39,-266 1221.76,-265.43 1223.16,-264.84 1224.57,-264.23"/>
<polygon fill="midnightblue" stroke="midnightblue" points="1226.13,-267.36 1233.81,-260.06 1223.25,-260.98 1226.13,-267.36"/>
</g>
<!-- Node21 -->
<g id="node13" class="node">
<title>Node21</title>
<g id="a_node13"><a xlink:title=" ">
<polygon fill="white" stroke="#bfbfbf" points="1161.39,-241 1161.39,-260 1211.39,-260 1211.39,-241 1161.39,-241"/>
<text text-anchor="middle" x="1186.39" y="-248" font-family="Helvetica,sans-Serif" font-size="10.00">cstring</text>
</a>
</g>
</g>
<!-- Node14&#45;&gt;Node21 -->
<g id="edge13" class="edge">
<title>Node14&#45;&gt;Node21</title>
<path fill="none" stroke="midnightblue" d="M1108.43,-302.48C1123.16,-292.84 1147.36,-277.02 1164.9,-265.55"/>
<polygon fill="midnightblue" stroke="midnightblue" points="1166.92,-268.41 1173.37,-260.01 1163.09,-262.55 1166.92,-268.41"/>
</g>
<!-- Node15&#45;&gt;Node3 -->
<g id="edge7" class="edge">
<title>Node15&#45;&gt;Node3</title>
<path fill="none" stroke="midnightblue" d="M964.08,-240.7C946.98,-212.33 893.11,-122.94 870.04,-84.67"/>
<polygon fill="midnightblue" stroke="midnightblue" points="872.8,-82.47 864.64,-75.71 866.8,-86.09 872.8,-82.47"/>
</g>
<!-- Node15&#45;&gt;Node17 -->
<g id="edge8" class="edge">
<title>Node15&#45;&gt;Node17</title>
<path fill="none" stroke="midnightblue" d="M931.9,-240.97C921.71,-238.83 910.66,-236.67 900.39,-235 763.49,-212.71 728.03,-216.15 590.39,-199 566.89,-196.07 540.57,-192.58 519.68,-189.75"/>
<polygon fill="midnightblue" stroke="midnightblue" points="519.98,-186.26 509.6,-188.38 519.04,-193.2 519.98,-186.26"/>
</g>
<!-- Node15&#45;&gt;Node9 -->
<g id="edge9" class="edge">
<title>Node15&#45;&gt;Node9</title>
<path fill="none" stroke="midnightblue" d="M977.88,-240.73C987.9,-230.4 1004.73,-213.04 1017.04,-200.33"/>
<polygon fill="midnightblue" stroke="midnightblue" points="1019.58,-202.74 1024.03,-193.13 1014.55,-197.87 1019.58,-202.74"/>
</g>
<!-- Node5 -->
<g id="node11" class="node">
<title>Node5</title>
<g id="a_node11"><a xlink:title=" ">
<polygon fill="white" stroke="#bfbfbf" points="788.39,-174 788.39,-193 830.39,-193 830.39,-174 788.39,-174"/>
<text text-anchor="middle" x="809.39" y="-181" font-family="Helvetica,sans-Serif" font-size="10.00">array</text>
</a>
</g>
</g>
<!-- Node18&#45;&gt;Node5 -->
<g id="edge11" class="edge">
<title>Node18&#45;&gt;Node5</title>
<path fill="none" stroke="midnightblue" d="M818.9,-240.73C817.29,-231.18 814.65,-215.62 812.57,-203.28"/>
<polygon fill="midnightblue" stroke="midnightblue" points="815.97,-202.4 810.85,-193.13 809.07,-203.57 815.97,-202.4"/>
</g>
<!-- Node22&#45;&gt;Node3 -->
<g id="edge18" class="edge">
<title>Node22&#45;&gt;Node3</title>
<path fill="none" stroke="midnightblue" d="M659.23,-240.94C692.23,-212.27 799.18,-119.32 841.71,-82.36"/>
<polygon fill="midnightblue" stroke="midnightblue" points="844.07,-84.95 849.32,-75.75 839.47,-79.67 844.07,-84.95"/>
</g>
<!-- Node22&#45;&gt;Node17 -->
<g id="edge24" class="edge">
<title>Node22&#45;&gt;Node17</title>
<path fill="none" stroke="midnightblue" d="M627.08,-240.87C597.88,-229.57 546.51,-209.7 513.23,-196.82"/>
<polygon fill="midnightblue" stroke="midnightblue" points="514.11,-193.41 503.52,-193.06 511.58,-199.94 514.11,-193.41"/>
</g>
<!-- Node22&#45;&gt;Node5 -->
<g id="edge23" class="edge">
<title>Node22&#45;&gt;Node5</title>
<path fill="none" stroke="midnightblue" d="M670.63,-240.87C698.32,-229.62 746.95,-209.87 778.65,-196.99"/>
<polygon fill="midnightblue" stroke="midnightblue" points="780.36,-200.07 788.31,-193.06 777.73,-193.58 780.36,-200.07"/>
</g>
<!-- Node23 -->
<g id="node15" class="node">
<title>Node23</title>
<g id="a_node15"><a xlink:href="view_8h.html" target="_top" xlink:title=" ">
<polygon fill="white" stroke="black" points="599.89,-174 599.89,-193 698.89,-193 698.89,-174 599.89,-174"/>
<text text-anchor="middle" x="649.39" y="-181" font-family="Helvetica,sans-Serif" font-size="10.00">emlabcpp/view.h</text>
</a>
</g>
</g>
<!-- Node22&#45;&gt;Node23 -->
<g id="edge19" class="edge">
<title>Node22&#45;&gt;Node23</title>
<path fill="none" stroke="midnightblue" d="M649.39,-240.73C649.39,-231.18 649.39,-215.62 649.39,-203.28"/>
<polygon fill="midnightblue" stroke="midnightblue" points="652.89,-203.13 649.39,-193.13 645.89,-203.13 652.89,-203.13"/>
</g>
<!-- Node23&#45;&gt;Node24 -->
<g id="edge20" class="edge">
<title>Node23&#45;&gt;Node24</title>
<path fill="none" stroke="midnightblue" d="M698.92,-175.5C775.89,-164.62 924.08,-143.68 1008.15,-131.8"/>
<polygon fill="midnightblue" stroke="midnightblue" points="1008.67,-135.26 1018.08,-130.39 1007.69,-128.33 1008.67,-135.26"/>
</g>
<!-- Node24&#45;&gt;Node3 -->
<g id="edge21" class="edge">
<title>Node24&#45;&gt;Node3</title>
<path fill="none" stroke="midnightblue" d="M1036.95,-112.44C1000.53,-103.12 942.16,-88.18 902.36,-78"/>
<polygon fill="midnightblue" stroke="midnightblue" points="903.22,-74.61 892.66,-75.52 901.48,-81.39 903.22,-74.61"/>
</g>
<!-- Node25 -->
<g id="node17" class="node">
<title>Node25</title>
<g id="a_node17"><a xlink:title=" ">
<polygon fill="white" stroke="#bfbfbf" points="1111.39,-56.5 1111.39,-75.5 1155.39,-75.5 1155.39,-56.5 1111.39,-56.5"/>
<text text-anchor="middle" x="1133.39" y="-63.5" font-family="Helvetica,sans-Serif" font-size="10.00">string</text>
</a>
</g>
</g>
<!-- Node24&#45;&gt;Node25 -->
<g id="edge22" class="edge">
<title>Node24&#45;&gt;Node25</title>
<path fill="none" stroke="midnightblue" d="M1080.51,-112.32C1089.91,-104.26 1104.13,-92.08 1115.46,-82.37"/>
<polygon fill="midnightblue" stroke="midnightblue" points="1117.77,-85 1123.08,-75.83 1113.21,-79.68 1117.77,-85"/>
</g>
<!-- Node26&#45;&gt;Node3 -->
<g id="edge26" class="edge">
<title>Node26&#45;&gt;Node3</title>
<path fill="none" stroke="midnightblue" d="M1348.36,-240.99C1294.97,-229.11 1204.28,-208 1191.39,-199 1152.88,-172.11 1171.05,-137.17 1131.39,-112 1098.7,-91.25 998.68,-78.76 929.5,-72.37"/>
<polygon fill="midnightblue" stroke="midnightblue" points="929.8,-68.88 919.53,-71.47 929.17,-75.85 929.8,-68.88"/>
</g>
<!-- Node26&#45;&gt;Node9 -->
<g id="edge32" class="edge">
<title>Node26&#45;&gt;Node9</title>
<path fill="none" stroke="midnightblue" d="M1340.61,-240.94C1271.84,-228.34 1144.33,-205 1076.89,-192.65"/>
<polygon fill="midnightblue" stroke="midnightblue" points="1077.46,-189.19 1066.99,-190.84 1076.2,-196.08 1077.46,-189.19"/>
</g>
<!-- Node26&#45;&gt;Node25 -->
<g id="edge31" class="edge">
<title>Node26&#45;&gt;Node25</title>
<path fill="none" stroke="midnightblue" d="M1391.37,-240.98C1398.16,-225.09 1409.8,-190.49 1394.39,-168 1342.14,-91.75 1223.41,-73.05 1165.86,-68.48"/>
<polygon fill="midnightblue" stroke="midnightblue" points="1165.75,-64.96 1155.53,-67.76 1165.27,-71.94 1165.75,-64.96"/>
</g>
<!-- Node27 -->
<g id="node19" class="node">
<title>Node27</title>
<g id="a_node19"><a xlink:title=" ">
<polygon fill="white" stroke="#bfbfbf" points="1441.89,-174 1441.89,-193 1488.89,-193 1488.89,-174 1441.89,-174"/>
<text text-anchor="middle" x="1465.39" y="-181" font-family="Helvetica,sans-Serif" font-size="10.00">cmath</text>
</a>
</g>
</g>
<!-- Node26&#45;&gt;Node27 -->
<g id="edge27" class="edge">
<title>Node26&#45;&gt;Node27</title>
<path fill="none" stroke="midnightblue" d="M1397.91,-240.73C1410.54,-230.21 1431.93,-212.38 1447.25,-199.62"/>
<polygon fill="midnightblue" stroke="midnightblue" points="1449.59,-202.22 1455.03,-193.13 1445.11,-196.84 1449.59,-202.22"/>
</g>
<!-- Node28 -->
<g id="node20" class="node">
<title>Node28</title>
<g id="a_node20"><a xlink:title=" ">
<polygon fill="white" stroke="#bfbfbf" points="1199.89,-174 1199.89,-193 1264.89,-193 1264.89,-174 1199.89,-174"/>
<text text-anchor="middle" x="1232.39" y="-181" font-family="Helvetica,sans-Serif" font-size="10.00">functional</text>
</a>
</g>
</g>
<!-- Node26&#45;&gt;Node28 -->
<g id="edge28" class="edge">
<title>Node26&#45;&gt;Node28</title>
<path fill="none" stroke="midnightblue" d="M1366.8,-240.87C1340.05,-229.65 1293.14,-209.98 1262.42,-197.09"/>
<polygon fill="midnightblue" stroke="midnightblue" points="1263.63,-193.81 1253.06,-193.17 1260.92,-200.26 1263.63,-193.81"/>
</g>
<!-- Node29 -->
<g id="node21" class="node">
<title>Node29</title>
<g id="a_node21"><a xlink:title=" ">
<polygon fill="white" stroke="#bfbfbf" points="1283.39,-174 1283.39,-193 1327.39,-193 1327.39,-174 1283.39,-174"/>
<text text-anchor="middle" x="1305.39" y="-181" font-family="Helvetica,sans-Serif" font-size="10.00">limits</text>
</a>
</g>
</g>
<!-- Node26&#45;&gt;Node29 -->
<g id="edge29" class="edge">
<title>Node26&#45;&gt;Node29</title>
<path fill="none" stroke="midnightblue" d="M1376.33,-240.73C1363.05,-230.21 1340.56,-212.38 1324.46,-199.62"/>
<polygon fill="midnightblue" stroke="midnightblue" points="1326.28,-196.6 1316.27,-193.13 1321.93,-202.08 1326.28,-196.6"/>
</g>
<!-- Node30 -->
<g id="node22" class="node">
<title>Node30</title>
<g id="a_node22"><a xlink:title=" ">
<polygon fill="white" stroke="#bfbfbf" points="1345.89,-174 1345.89,-193 1384.89,-193 1384.89,-174 1345.89,-174"/>
<text text-anchor="middle" x="1365.39" y="-181" font-family="Helvetica,sans-Serif" font-size="10.00">ratio</text>
</a>
</g>
</g>
<!-- Node26&#45;&gt;Node30 -->
<g id="edge30" class="edge">
<title>Node26&#45;&gt;Node30</title>
<path fill="none" stroke="midnightblue" d="M1384.42,-240.73C1381.15,-231.09 1375.81,-215.3 1371.62,-202.91"/>
<polygon fill="midnightblue" stroke="midnightblue" points="1374.83,-201.48 1368.31,-193.13 1368.2,-203.72 1374.83,-201.48"/>
</g>
<!-- Node31&#45;&gt;Node3 -->
<g id="edge34" class="edge">
<title>Node31&#45;&gt;Node3</title>
<path fill="none" stroke="midnightblue" d="M300.8,-302.43C284.24,-287.95 255.63,-258 271.39,-235 330.46,-148.77 646.51,-95.8 789.29,-75.94"/>
<polygon fill="midnightblue" stroke="midnightblue" points="789.83,-79.4 799.26,-74.57 788.88,-72.46 789.83,-79.4"/>
</g>
<!-- Node31&#45;&gt;Node9 -->
<g id="edge44" class="edge">
<title>Node31&#45;&gt;Node9</title>
<path fill="none" stroke="midnightblue" d="M381.2,-309.24C558.93,-304.41 1016.08,-289.73 1038.39,-266 1054.14,-249.24 1047.54,-221.03 1040.58,-202.59"/>
<polygon fill="midnightblue" stroke="midnightblue" points="1043.77,-201.15 1036.71,-193.25 1037.3,-203.83 1043.77,-201.15"/>
</g>
<!-- Node32 -->
<g id="node24" class="node">
<title>Node32</title>
<g id="a_node24"><a xlink:href="pretty__printer_8h.html" target="_top" xlink:title=" ">
<polygon fill="white" stroke="red" points="90.89,-235.5 90.89,-265.5 223.89,-265.5 223.89,-235.5 90.89,-235.5"/>
<text text-anchor="start" x="98.89" y="-253.5" font-family="Helvetica,sans-Serif" font-size="10.00">emlabcpp/experimental</text>
<text text-anchor="middle" x="157.39" y="-242.5" font-family="Helvetica,sans-Serif" font-size="10.00">/pretty_printer.h</text>
</a>
</g>
</g>
<!-- Node31&#45;&gt;Node32 -->
<g id="edge35" class="edge">
<title>Node31&#45;&gt;Node32</title>
<path fill="none" stroke="midnightblue" d="M289.32,-302.48C266.91,-293.81 231.53,-280.15 203.05,-269.14"/>
<polygon fill="midnightblue" stroke="midnightblue" points="204.27,-265.86 193.68,-265.52 201.75,-272.39 204.27,-265.86"/>
</g>
<!-- Node37 -->
<g id="node25" class="node">
<title>Node37</title>
<g id="a_node25"><a xlink:href="iterator_8h.html" target="_top" xlink:title=" ">
<polygon fill="white" stroke="red" points="437.39,-241 437.39,-260 549.39,-260 549.39,-241 437.39,-241"/>
<text text-anchor="middle" x="493.39" y="-248" font-family="Helvetica,sans-Serif" font-size="10.00">emlabcpp/iterator.h</text>
</a>
</g>
</g>
<!-- Node31&#45;&gt;Node37 -->
<g id="edge41" class="edge">
<title>Node31&#45;&gt;Node37</title>
<path fill="none" stroke="midnightblue" d="M337.46,-302.48C368.95,-292.18 422.09,-274.81 457.45,-263.25"/>
<polygon fill="midnightblue" stroke="midnightblue" points="458.94,-266.44 467.36,-260.01 456.77,-259.79 458.94,-266.44"/>
</g>
<!-- Node38 -->
<g id="node26" class="node">
<title>Node38</title>
<g id="a_node26"><a xlink:title=" ">
<polygon fill="white" stroke="#bfbfbf" points="280.89,-241 280.89,-260 317.89,-260 317.89,-241 280.89,-241"/>
<text text-anchor="middle" x="299.39" y="-248" font-family="Helvetica,sans-Serif" font-size="10.00">new</text>
</a>
</g>
</g>
<!-- Node31&#45;&gt;Node38 -->
<g id="edge43" class="edge">
<title>Node31&#45;&gt;Node38</title>
<path fill="none" stroke="midnightblue" d="M309.67,-302.48C307.96,-293.99 305.28,-280.7 303.08,-269.82"/>
<polygon fill="midnightblue" stroke="midnightblue" points="306.51,-269.12 301.1,-260.01 299.65,-270.5 306.51,-269.12"/>
</g>
<!-- Node39 -->
<g id="node27" class="node">
<title>Node39</title>
<g id="a_node27"><a xlink:title=" ">
<polygon fill="white" stroke="#bfbfbf" points="335.89,-241 335.89,-260 380.89,-260 380.89,-241 335.89,-241"/>
<text text-anchor="middle" x="358.39" y="-248" font-family="Helvetica,sans-Serif" font-size="10.00">utility</text>
</a>
</g>
</g>
<!-- Node31&#45;&gt;Node39 -->
<g id="edge45" class="edge">
<title>Node31&#45;&gt;Node39</title>
<path fill="none" stroke="midnightblue" d="M318.12,-302.48C325.17,-293.55 336.42,-279.31 345.24,-268.14"/>
<polygon fill="midnightblue" stroke="midnightblue" points="348.21,-270.03 351.67,-260.01 342.72,-265.69 348.21,-270.03"/>
</g>
<!-- Node32&#45;&gt;Node2 -->
<g id="edge37" class="edge">
<title>Node32&#45;&gt;Node2</title>
<path fill="none" stroke="midnightblue" d="M140.9,-235.4C130.54,-226.54 117,-214.96 105.46,-205.09"/>
<polygon fill="midnightblue" stroke="midnightblue" points="107.72,-202.42 97.85,-198.58 103.17,-207.74 107.72,-202.42"/>
</g>
<!-- Node32&#45;&gt;Node3 -->
<g id="edge36" class="edge">
<title>Node32&#45;&gt;Node3</title>
<path fill="none" stroke="midnightblue" d="M161.05,-235.1C169.28,-206.02 192.25,-140.63 238.39,-112 284.23,-83.55 636.32,-72.11 789.06,-68.45"/>
<polygon fill="midnightblue" stroke="midnightblue" points="789.35,-71.94 799.27,-68.21 789.19,-64.94 789.35,-71.94"/>
</g>
<!-- Node32&#45;&gt;Node13 -->
<g id="edge40" class="edge">
<title>Node32&#45;&gt;Node13</title>
<path fill="none" stroke="midnightblue" d="M90.79,-239.51C40.18,-228.66 -17.21,-207.34 5.39,-168 29.99,-125.17 54.41,-127.26 101.39,-112 288.02,-51.39 915.61,-19.66 1072.57,-12.55"/>
<polygon fill="midnightblue" stroke="midnightblue" points="1072.8,-16.04 1082.63,-12.1 1072.49,-9.05 1072.8,-16.04"/>
</g>
<!-- Node32&#45;&gt;Node8 -->
<g id="edge39" class="edge">
<title>Node32&#45;&gt;Node8</title>
<path fill="none" stroke="midnightblue" d="M157.28,-235.48C157.1,-212.72 156.74,-167.7 156.54,-142.06"/>
<polygon fill="midnightblue" stroke="midnightblue" points="160.04,-141.76 156.46,-131.79 153.04,-141.82 160.04,-141.76"/>
</g>
<!-- Node32&#45;&gt;Node17 -->
<g id="edge38" class="edge">
<title>Node32&#45;&gt;Node17</title>
<path fill="none" stroke="midnightblue" d="M224.13,-236.11C290.43,-222.81 389.76,-202.88 443.53,-192.09"/>
<polygon fill="midnightblue" stroke="midnightblue" points="444.23,-195.52 453.34,-190.13 442.85,-188.66 444.23,-195.52"/>
</g>
<!-- Node37&#45;&gt;Node23 -->
<g id="edge42" class="edge">
<title>Node37&#45;&gt;Node23</title>
<path fill="none" stroke="midnightblue" d="M514.1,-240.87C541.03,-229.65 588.24,-209.98 619.17,-197.09"/>
<polygon fill="midnightblue" stroke="midnightblue" points="620.7,-200.24 628.59,-193.17 618.01,-193.78 620.7,-200.24"/>
</g>
</g>
</svg>
