<?xml version="1.0" encoding="UTF-8" standalone="no"?>
<!DOCTYPE svg PUBLIC "-//W3C//DTD SVG 1.1//EN"
 "http://www.w3.org/Graphics/SVG/1.1/DTD/svg11.dtd">
<!-- Generated by graphviz version 2.43.0 (0)
 -->
<!-- Title: include/emlabcpp/protocol/traits.h Pages: 1 -->
<svg width="1347pt" height="520pt"
 viewBox="0.00 0.00 1346.98 520.00" xmlns="http://www.w3.org/2000/svg" xmlns:xlink="http://www.w3.org/1999/xlink">
<g id="graph0" class="graph" transform="scale(1 1) rotate(0) translate(4 516)">
<title>include/emlabcpp/protocol/traits.h</title>
<polygon fill="white" stroke="transparent" points="-4,4 -4,-516 1342.98,-516 1342.98,4 -4,4"/>
<!-- Node1 -->
<g id="node1" class="node">
<title>Node1</title>
<g id="a_node1"><a xlink:title=" ">
<polygon fill="#bfbfbf" stroke="black" points="637.98,-481.5 637.98,-511.5 783.98,-511.5 783.98,-481.5 637.98,-481.5"/>
<text text-anchor="start" x="645.98" y="-499.5" font-family="Helvetica,sans-Serif" font-size="10.00">include/emlabcpp/protocol</text>
<text text-anchor="middle" x="710.98" y="-488.5" font-family="Helvetica,sans-Serif" font-size="10.00">/traits.h</text>
</a>
</g>
</g>
<!-- Node2 -->
<g id="node2" class="node">
<title>Node2</title>
<g id="a_node2"><a xlink:href="decompose_8h.html" target="_top" xlink:title=" ">
<polygon fill="white" stroke="black" points="215.48,-168.5 215.48,-198.5 348.48,-198.5 348.48,-168.5 215.48,-168.5"/>
<text text-anchor="start" x="223.48" y="-186.5" font-family="Helvetica,sans-Serif" font-size="10.00">emlabcpp/experimental</text>
<text text-anchor="middle" x="281.98" y="-175.5" font-family="Helvetica,sans-Serif" font-size="10.00">/decompose.h</text>
</a>
</g>
</g>
<!-- Node1&#45;&gt;Node2 -->
<g id="edge1" class="edge">
<title>Node1&#45;&gt;Node2</title>
<path fill="none" stroke="midnightblue" d="M675.19,-481.4C613.74,-457.35 484.05,-407.29 372.98,-369 322.75,-351.68 290.39,-375.86 258.98,-333 231.73,-295.81 253.06,-239.2 268.89,-207.71"/>
<polygon fill="midnightblue" stroke="midnightblue" points="272.02,-209.27 273.56,-198.79 265.82,-206.02 272.02,-209.27"/>
</g>
<!-- Node13 -->
<g id="node4" class="node">
<title>Node13</title>
<g id="a_node4"><a xlink:title=" ">
<polygon fill="white" stroke="#bfbfbf" points="275.48,-0.5 275.48,-19.5 326.48,-19.5 326.48,-0.5 275.48,-0.5"/>
<text text-anchor="middle" x="300.98" y="-7.5" font-family="Helvetica,sans-Serif" font-size="10.00">variant</text>
</a>
</g>
</g>
<!-- Node1&#45;&gt;Node13 -->
<g id="edge56" class="edge">
<title>Node1&#45;&gt;Node13</title>
<path fill="none" stroke="midnightblue" d="M784.25,-489.62C949.91,-475.33 1338.98,-435.84 1338.98,-380 1338.98,-380 1338.98,-380 1338.98,-121 1338.98,-17.95 519.46,-11.18 336.79,-10.95"/>
<polygon fill="midnightblue" stroke="midnightblue" points="336.64,-7.45 326.64,-10.95 336.64,-14.45 336.64,-7.45"/>
</g>
<!-- Node14 -->
<g id="node6" class="node">
<title>Node14</title>
<g id="a_node6"><a xlink:href="protocol_2base_8h.html" target="_top" xlink:title=" ">
<polygon fill="white" stroke="black" points="230.48,-425.5 230.48,-444.5 373.48,-444.5 373.48,-425.5 230.48,-425.5"/>
<text text-anchor="middle" x="301.98" y="-432.5" font-family="Helvetica,sans-Serif" font-size="10.00">emlabcpp/protocol/base.h</text>
</a>
</g>
</g>
<!-- Node1&#45;&gt;Node14 -->
<g id="edge5" class="edge">
<title>Node1&#45;&gt;Node14</title>
<path fill="none" stroke="midnightblue" d="M637.86,-484.86C562.15,-473.85 444.78,-456.77 370.73,-446"/>
<polygon fill="midnightblue" stroke="midnightblue" points="370.97,-442.5 360.57,-444.52 369.96,-449.43 370.97,-442.5"/>
</g>
<!-- Node21 -->
<g id="node10" class="node">
<title>Node21</title>
<g id="a_node10"><a xlink:href="types_8h.html" target="_top" xlink:title=" ">
<polygon fill="white" stroke="red" points="697.98,-112.5 697.98,-131.5 801.98,-131.5 801.98,-112.5 697.98,-112.5"/>
<text text-anchor="middle" x="749.98" y="-119.5" font-family="Helvetica,sans-Serif" font-size="10.00">emlabcpp/types.h</text>
</a>
</g>
</g>
<!-- Node1&#45;&gt;Node21 -->
<g id="edge54" class="edge">
<title>Node1&#45;&gt;Node21</title>
<path fill="none" stroke="midnightblue" d="M784.12,-491.37C856.64,-482.86 956.98,-457.14 956.98,-380 956.98,-380 956.98,-380 956.98,-249.5 956.98,-180.88 873.13,-148.36 812.17,-133.79"/>
<polygon fill="midnightblue" stroke="midnightblue" points="812.75,-130.33 802.22,-131.52 811.19,-137.16 812.75,-130.33"/>
</g>
<!-- Node27 -->
<g id="node13" class="node">
<title>Node27</title>
<g id="a_node13"><a xlink:title=" ">
<polygon fill="white" stroke="#bfbfbf" points="102.98,-174 102.98,-193 158.98,-193 158.98,-174 102.98,-174"/>
<text text-anchor="middle" x="130.98" y="-181" font-family="Helvetica,sans-Serif" font-size="10.00">optional</text>
</a>
</g>
</g>
<!-- Node1&#45;&gt;Node27 -->
<g id="edge55" class="edge">
<title>Node1&#45;&gt;Node27</title>
<path fill="none" stroke="midnightblue" d="M637.86,-495.84C481.69,-494.76 124.34,-481.97 57.98,-389 14.19,-327.64 83.35,-237.36 115.73,-200.78"/>
<polygon fill="midnightblue" stroke="midnightblue" points="118.6,-202.82 122.73,-193.06 113.42,-198.12 118.6,-202.82"/>
</g>
<!-- Node30 -->
<g id="node16" class="node">
<title>Node30</title>
<g id="a_node16"><a xlink:href="protocol_2error_8h.html" target="_top" xlink:title=" ">
<polygon fill="white" stroke="red" points="639.98,-369.5 639.98,-388.5 781.98,-388.5 781.98,-369.5 639.98,-369.5"/>
<text text-anchor="middle" x="710.98" y="-376.5" font-family="Helvetica,sans-Serif" font-size="10.00">emlabcpp/protocol/error.h</text>
</a>
</g>
</g>
<!-- Node1&#45;&gt;Node30 -->
<g id="edge30" class="edge">
<title>Node1&#45;&gt;Node30</title>
<path fill="none" stroke="midnightblue" d="M710.98,-481.34C710.98,-460.62 710.98,-422.02 710.98,-398.9"/>
<polygon fill="midnightblue" stroke="midnightblue" points="714.48,-398.67 710.98,-388.67 707.48,-398.67 714.48,-398.67"/>
</g>
<!-- Node35 -->
<g id="node21" class="node">
<title>Node35</title>
<g id="a_node21"><a xlink:href="message_8h.html" target="_top" xlink:title=" ">
<polygon fill="white" stroke="black" points="457.98,-369.5 457.98,-388.5 621.98,-388.5 621.98,-369.5 457.98,-369.5"/>
<text text-anchor="middle" x="539.98" y="-376.5" font-family="Helvetica,sans-Serif" font-size="10.00">emlabcpp/protocol/message.h</text>
</a>
</g>
</g>
<!-- Node1&#45;&gt;Node35 -->
<g id="edge31" class="edge">
<title>Node1&#45;&gt;Node35</title>
<path fill="none" stroke="midnightblue" d="M690.01,-481.34C657.24,-459.2 594.23,-416.64 561.27,-394.38"/>
<polygon fill="midnightblue" stroke="midnightblue" points="563.06,-391.37 552.82,-388.67 559.15,-397.17 563.06,-391.37"/>
</g>
<!-- Node36 -->
<g id="node22" class="node">
<title>Node36</title>
<g id="a_node22"><a xlink:href="quantity_8h.html" target="_top" xlink:title=" ">
<polygon fill="white" stroke="black" points="1018.98,-308 1018.98,-327 1134.98,-327 1134.98,-308 1018.98,-308"/>
<text text-anchor="middle" x="1076.98" y="-315" font-family="Helvetica,sans-Serif" font-size="10.00">emlabcpp/quantity.h</text>
</a>
</g>
</g>
<!-- Node1&#45;&gt;Node36 -->
<g id="edge38" class="edge">
<title>Node1&#45;&gt;Node36</title>
<path fill="none" stroke="midnightblue" d="M784.26,-494.25C839.06,-490.36 914.04,-478.56 970.98,-445 1016.49,-418.18 1051.43,-364.38 1067.42,-336.37"/>
<polygon fill="midnightblue" stroke="midnightblue" points="1070.65,-337.76 1072.43,-327.32 1064.53,-334.37 1070.65,-337.76"/>
</g>
<!-- Node41 -->
<g id="node27" class="node">
<title>Node41</title>
<g id="a_node27"><a xlink:href="static__vector_8h.html" target="_top" xlink:title=" ">
<polygon fill="white" stroke="black" points="670.48,-308 670.48,-327 809.48,-327 809.48,-308 670.48,-308"/>
<text text-anchor="middle" x="739.98" y="-315" font-family="Helvetica,sans-Serif" font-size="10.00">emlabcpp/static_vector.h</text>
</a>
</g>
</g>
<!-- Node1&#45;&gt;Node41 -->
<g id="edge46" class="edge">
<title>Node1&#45;&gt;Node41</title>
<path fill="none" stroke="midnightblue" d="M726.43,-481.47C745.86,-462.65 778.24,-427.17 790.98,-389 793.8,-380.57 794.4,-377.2 790.98,-369 784.94,-354.52 772.51,-342.07 761.43,-333.15"/>
<polygon fill="midnightblue" stroke="midnightblue" points="763.44,-330.28 753.35,-327.05 759.22,-335.87 763.44,-330.28"/>
</g>
<!-- Node3 -->
<g id="node3" class="node">
<title>Node3</title>
<g id="a_node3"><a xlink:href="concepts_8h.html" target="_top" xlink:title=" ">
<polygon fill="white" stroke="red" points="421.98,-56.5 421.98,-75.5 541.98,-75.5 541.98,-56.5 421.98,-56.5"/>
<text text-anchor="middle" x="481.98" y="-63.5" font-family="Helvetica,sans-Serif" font-size="10.00">emlabcpp/concepts.h</text>
</a>
</g>
</g>
<!-- Node2&#45;&gt;Node3 -->
<g id="edge2" class="edge">
<title>Node2&#45;&gt;Node3</title>
<path fill="none" stroke="midnightblue" d="M285.68,-168.4C290.62,-152.38 300.9,-126.57 318.98,-112 345.18,-90.89 380.58,-79.66 411.7,-73.7"/>
<polygon fill="midnightblue" stroke="midnightblue" points="412.4,-77.13 421.64,-71.94 411.18,-70.23 412.4,-77.13"/>
</g>
<!-- Node8 -->
<g id="node5" class="node">
<title>Node8</title>
<g id="a_node5"><a xlink:title=" ">
<polygon fill="white" stroke="#bfbfbf" points="328.48,-112.5 328.48,-131.5 369.48,-131.5 369.48,-112.5 328.48,-112.5"/>
<text text-anchor="middle" x="348.98" y="-119.5" font-family="Helvetica,sans-Serif" font-size="10.00">tuple</text>
</a>
</g>
</g>
<!-- Node2&#45;&gt;Node8 -->
<g id="edge4" class="edge">
<title>Node2&#45;&gt;Node8</title>
<path fill="none" stroke="midnightblue" d="M297.86,-168.4C308,-159.4 321.14,-147.72 331.57,-138.47"/>
<polygon fill="midnightblue" stroke="midnightblue" points="334.08,-140.92 339.23,-131.66 329.43,-135.68 334.08,-140.92"/>
</g>
<!-- Node3&#45;&gt;Node13 -->
<g id="edge3" class="edge">
<title>Node3&#45;&gt;Node13</title>
<path fill="none" stroke="midnightblue" d="M453.3,-56.44C421.68,-47.01 370.78,-31.82 336.63,-21.63"/>
<polygon fill="midnightblue" stroke="midnightblue" points="337.19,-18.15 326.6,-18.64 335.18,-24.86 337.19,-18.15"/>
</g>
<!-- Node14&#45;&gt;Node13 -->
<g id="edge29" class="edge">
<title>Node14&#45;&gt;Node13</title>
<path fill="none" stroke="midnightblue" d="M230.42,-429.12C167.69,-423.39 82.74,-411.64 57.98,-389 -11.65,-325.33 0.98,-278.85 0.98,-184.5 0.98,-184.5 0.98,-184.5 0.98,-121 0.98,-65.26 185.88,-29.24 265.36,-16.33"/>
<polygon fill="midnightblue" stroke="midnightblue" points="266.08,-19.76 275.4,-14.74 264.98,-12.85 266.08,-19.76"/>
</g>
<!-- Node15 -->
<g id="node7" class="node">
<title>Node15</title>
<g id="a_node7"><a xlink:href="bounded_8h.html" target="_top" xlink:title=" ">
<polygon fill="white" stroke="black" points="67.48,-369.5 67.48,-388.5 186.48,-388.5 186.48,-369.5 67.48,-369.5"/>
<text text-anchor="middle" x="126.98" y="-376.5" font-family="Helvetica,sans-Serif" font-size="10.00">emlabcpp/bounded.h</text>
</a>
</g>
</g>
<!-- Node14&#45;&gt;Node15 -->
<g id="edge6" class="edge">
<title>Node14&#45;&gt;Node15</title>
<path fill="none" stroke="midnightblue" d="M274.25,-425.44C244.56,-416.28 197.27,-401.69 164.31,-391.52"/>
<polygon fill="midnightblue" stroke="midnightblue" points="165.17,-388.12 154.58,-388.52 163.11,-394.81 165.17,-388.12"/>
</g>
<!-- Node9 -->
<g id="node15" class="node">
<title>Node9</title>
<g id="a_node15"><a xlink:title=" ">
<polygon fill="white" stroke="#bfbfbf" points="572.48,-241 572.48,-260 641.48,-260 641.48,-241 572.48,-241"/>
<text text-anchor="middle" x="606.98" y="-248" font-family="Helvetica,sans-Serif" font-size="10.00">type_traits</text>
</a>
</g>
</g>
<!-- Node14&#45;&gt;Node9 -->
<g id="edge28" class="edge">
<title>Node14&#45;&gt;Node9</title>
<path fill="none" stroke="midnightblue" d="M316.28,-425.44C364.91,-396.34 524.17,-301.05 584,-265.25"/>
<polygon fill="midnightblue" stroke="midnightblue" points="585.93,-268.18 592.71,-260.04 582.33,-262.17 585.93,-268.18"/>
</g>
<!-- Node14&#45;&gt;Node30 -->
<g id="edge23" class="edge">
<title>Node14&#45;&gt;Node30</title>
<path fill="none" stroke="midnightblue" d="M366.79,-425.44C440.08,-415.77 559.23,-400.04 636.35,-389.85"/>
<polygon fill="midnightblue" stroke="midnightblue" points="637.02,-393.3 646.48,-388.52 636.11,-386.36 637.02,-393.3"/>
</g>
<!-- Node32 -->
<g id="node18" class="node">
<title>Node32</title>
<g id="a_node18"><a xlink:title=" ">
<polygon fill="white" stroke="#bfbfbf" points="204.48,-369.5 204.48,-388.5 233.48,-388.5 233.48,-369.5 204.48,-369.5"/>
<text text-anchor="middle" x="218.98" y="-376.5" font-family="Helvetica,sans-Serif" font-size="10.00">bit</text>
</a>
</g>
</g>
<!-- Node14&#45;&gt;Node32 -->
<g id="edge25" class="edge">
<title>Node14&#45;&gt;Node32</title>
<path fill="none" stroke="midnightblue" d="M288.65,-425.32C275.82,-416.98 256.2,-404.21 241.04,-394.35"/>
<polygon fill="midnightblue" stroke="midnightblue" points="242.58,-391.17 232.28,-388.65 238.76,-397.04 242.58,-391.17"/>
</g>
<!-- Node33 -->
<g id="node19" class="node">
<title>Node33</title>
<g id="a_node19"><a xlink:title=" ">
<polygon fill="white" stroke="#bfbfbf" points="251.98,-369.5 251.98,-388.5 295.98,-388.5 295.98,-369.5 251.98,-369.5"/>
<text text-anchor="middle" x="273.98" y="-376.5" font-family="Helvetica,sans-Serif" font-size="10.00">bitset</text>
</a>
</g>
</g>
<!-- Node14&#45;&gt;Node33 -->
<g id="edge26" class="edge">
<title>Node14&#45;&gt;Node33</title>
<path fill="none" stroke="midnightblue" d="M297.36,-425.08C293.53,-417.69 287.96,-406.95 283.22,-397.81"/>
<polygon fill="midnightblue" stroke="midnightblue" points="286.23,-396.02 278.52,-388.75 280.02,-399.24 286.23,-396.02"/>
</g>
<!-- Node34 -->
<g id="node20" class="node">
<title>Node34</title>
<g id="a_node20"><a xlink:title=" ">
<polygon fill="white" stroke="#bfbfbf" points="313.98,-369.5 313.98,-388.5 363.98,-388.5 363.98,-369.5 313.98,-369.5"/>
<text text-anchor="middle" x="338.98" y="-376.5" font-family="Helvetica,sans-Serif" font-size="10.00">cstring</text>
</a>
</g>
</g>
<!-- Node14&#45;&gt;Node34 -->
<g id="edge27" class="edge">
<title>Node14&#45;&gt;Node34</title>
<path fill="none" stroke="midnightblue" d="M308.09,-425.08C313.26,-417.53 320.83,-406.49 327.18,-397.23"/>
<polygon fill="midnightblue" stroke="midnightblue" points="330.22,-398.98 332.99,-388.75 324.45,-395.02 330.22,-398.98"/>
</g>
<!-- Node15&#45;&gt;Node3 -->
<g id="edge7" class="edge">
<title>Node15&#45;&gt;Node3</title>
<path fill="none" stroke="midnightblue" d="M121.53,-369.3C102.89,-338.28 45.38,-231.65 93.98,-168 132.22,-117.92 310.4,-88.16 411.49,-75.03"/>
<polygon fill="midnightblue" stroke="midnightblue" points="412.14,-78.47 421.62,-73.73 411.26,-71.53 412.14,-78.47"/>
</g>
<!-- Node16 -->
<g id="node8" class="node">
<title>Node16</title>
<g id="a_node8"><a xlink:href="logging_8h.html" target="_top" xlink:title=" ">
<polygon fill="white" stroke="red" points="268.48,-302.5 268.48,-332.5 401.48,-332.5 401.48,-302.5 268.48,-302.5"/>
<text text-anchor="start" x="276.48" y="-320.5" font-family="Helvetica,sans-Serif" font-size="10.00">emlabcpp/experimental</text>
<text text-anchor="middle" x="334.98" y="-309.5" font-family="Helvetica,sans-Serif" font-size="10.00">/logging.h</text>
</a>
</g>
</g>
<!-- Node15&#45;&gt;Node16 -->
<g id="edge8" class="edge">
<title>Node15&#45;&gt;Node16</title>
<path fill="none" stroke="midnightblue" d="M156.78,-369.48C187.85,-360.59 237.35,-346.43 276.3,-335.29"/>
<polygon fill="midnightblue" stroke="midnightblue" points="277.31,-338.64 285.96,-332.52 275.38,-331.91 277.31,-338.64"/>
</g>
<!-- Node15&#45;&gt;Node27 -->
<g id="edge21" class="edge">
<title>Node15&#45;&gt;Node27</title>
<path fill="none" stroke="midnightblue" d="M127.16,-369.44C127.76,-340.29 129.74,-244.47 130.59,-203.43"/>
<polygon fill="midnightblue" stroke="midnightblue" points="134.09,-203.48 130.8,-193.41 127.09,-203.33 134.09,-203.48"/>
</g>
<!-- Node15&#45;&gt;Node9 -->
<g id="edge22" class="edge">
<title>Node15&#45;&gt;Node9</title>
<path fill="none" stroke="midnightblue" d="M138.27,-369.49C160.22,-353.41 210.75,-318.7 258.98,-302 314.13,-282.91 480.97,-264.17 561.94,-255.9"/>
<polygon fill="midnightblue" stroke="midnightblue" points="562.71,-259.34 572.31,-254.85 562.01,-252.38 562.71,-259.34"/>
</g>
<!-- Node17 -->
<g id="node9" class="node">
<title>Node17</title>
<g id="a_node9"><a xlink:href="pretty__printer_8h.html" target="_top" xlink:title=" ">
<polygon fill="white" stroke="red" points="306.48,-235.5 306.48,-265.5 439.48,-265.5 439.48,-235.5 306.48,-235.5"/>
<text text-anchor="start" x="314.48" y="-253.5" font-family="Helvetica,sans-Serif" font-size="10.00">emlabcpp/experimental</text>
<text text-anchor="middle" x="372.98" y="-242.5" font-family="Helvetica,sans-Serif" font-size="10.00">/pretty_printer.h</text>
</a>
</g>
</g>
<!-- Node16&#45;&gt;Node17 -->
<g id="edge9" class="edge">
<title>Node16&#45;&gt;Node17</title>
<path fill="none" stroke="midnightblue" d="M343.23,-302.4C348.01,-294.22 354.14,-283.73 359.6,-274.39"/>
<polygon fill="midnightblue" stroke="midnightblue" points="362.73,-275.98 364.75,-265.58 356.68,-272.44 362.73,-275.98"/>
</g>
<!-- Node17&#45;&gt;Node2 -->
<g id="edge11" class="edge">
<title>Node17&#45;&gt;Node2</title>
<path fill="none" stroke="midnightblue" d="M353.24,-235.4C340.6,-226.37 324,-214.51 310.01,-204.52"/>
<polygon fill="midnightblue" stroke="midnightblue" points="311.86,-201.54 301.69,-198.58 307.79,-207.24 311.86,-201.54"/>
</g>
<!-- Node17&#45;&gt;Node3 -->
<g id="edge10" class="edge">
<title>Node17&#45;&gt;Node3</title>
<path fill="none" stroke="midnightblue" d="M381.35,-235.48C400.95,-202.68 449.76,-120.95 471.38,-84.74"/>
<polygon fill="midnightblue" stroke="midnightblue" points="474.59,-86.2 476.72,-75.82 468.58,-82.61 474.59,-86.2"/>
</g>
<!-- Node17&#45;&gt;Node13 -->
<g id="edge20" class="edge">
<title>Node17&#45;&gt;Node13</title>
<path fill="none" stroke="midnightblue" d="M306.29,-237.71C265.31,-228.95 218.35,-215.66 205.98,-199 162.82,-140.85 243.27,-60.17 281.93,-26.61"/>
<polygon fill="midnightblue" stroke="midnightblue" points="284.55,-28.98 289.91,-19.84 280.02,-23.64 284.55,-28.98"/>
</g>
<!-- Node17&#45;&gt;Node8 -->
<g id="edge19" class="edge">
<title>Node17&#45;&gt;Node8</title>
<path fill="none" stroke="midnightblue" d="M370.32,-235.48C365.98,-212.62 357.39,-167.3 352.53,-141.71"/>
<polygon fill="midnightblue" stroke="midnightblue" points="355.95,-140.96 350.65,-131.79 349.08,-142.27 355.95,-140.96"/>
</g>
<!-- Node17&#45;&gt;Node21 -->
<g id="edge12" class="edge">
<title>Node17&#45;&gt;Node21</title>
<path fill="none" stroke="midnightblue" d="M388.01,-235.45C410.81,-214.43 453.42,-176.39 471.98,-168 541.54,-136.55 629.65,-126.73 687.82,-123.84"/>
<polygon fill="midnightblue" stroke="midnightblue" points="688.13,-127.33 697.96,-123.4 687.82,-120.34 688.13,-127.33"/>
</g>
<!-- Node23 -->
<g id="node12" class="node">
<title>Node23</title>
<g id="a_node12"><a xlink:href="view_8h.html" target="_top" xlink:title=" ">
<polygon fill="white" stroke="black" points="699.48,-174 699.48,-193 798.48,-193 798.48,-174 699.48,-174"/>
<text text-anchor="middle" x="748.98" y="-181" font-family="Helvetica,sans-Serif" font-size="10.00">emlabcpp/view.h</text>
</a>
</g>
</g>
<!-- Node17&#45;&gt;Node23 -->
<g id="edge15" class="edge">
<title>Node17&#45;&gt;Node23</title>
<path fill="none" stroke="midnightblue" d="M439.77,-237.95C510.63,-225.71 621.53,-206.53 689.48,-194.79"/>
<polygon fill="midnightblue" stroke="midnightblue" points="690.34,-198.19 699.6,-193.04 689.15,-191.29 690.34,-198.19"/>
</g>
<!-- Node17&#45;&gt;Node27 -->
<g id="edge17" class="edge">
<title>Node17&#45;&gt;Node27</title>
<path fill="none" stroke="midnightblue" d="M311.78,-235.48C272,-226.01 219.14,-212.77 172.98,-199 170.21,-198.17 167.35,-197.28 164.48,-196.35"/>
<polygon fill="midnightblue" stroke="midnightblue" points="165.45,-192.98 154.86,-193.14 163.23,-199.62 165.45,-192.98"/>
</g>
<!-- Node28 -->
<g id="node14" class="node">
<title>Node28</title>
<g id="a_node14"><a xlink:title=" ">
<polygon fill="white" stroke="#bfbfbf" points="480.98,-174 480.98,-193 520.98,-193 520.98,-174 480.98,-174"/>
<text text-anchor="middle" x="500.98" y="-181" font-family="Helvetica,sans-Serif" font-size="10.00">span</text>
</a>
</g>
</g>
<!-- Node17&#45;&gt;Node28 -->
<g id="edge18" class="edge">
<title>Node17&#45;&gt;Node28</title>
<path fill="none" stroke="midnightblue" d="M400.76,-235.4C422.92,-224.14 453.72,-208.5 475.31,-197.54"/>
<polygon fill="midnightblue" stroke="midnightblue" points="476.9,-200.66 484.23,-193.01 473.73,-194.41 476.9,-200.66"/>
</g>
<!-- Node21&#45;&gt;Node3 -->
<g id="edge13" class="edge">
<title>Node21&#45;&gt;Node3</title>
<path fill="none" stroke="midnightblue" d="M707.52,-112.44C660.57,-102.98 584.91,-87.74 534.33,-77.55"/>
<polygon fill="midnightblue" stroke="midnightblue" points="534.74,-74.06 524.25,-75.52 533.36,-80.92 534.74,-74.06"/>
</g>
<!-- Node22 -->
<g id="node11" class="node">
<title>Node22</title>
<g id="a_node11"><a xlink:title=" ">
<polygon fill="white" stroke="#bfbfbf" points="996.98,-56.5 996.98,-75.5 1040.98,-75.5 1040.98,-56.5 996.98,-56.5"/>
<text text-anchor="middle" x="1018.98" y="-63.5" font-family="Helvetica,sans-Serif" font-size="10.00">string</text>
</a>
</g>
</g>
<!-- Node21&#45;&gt;Node22 -->
<g id="edge14" class="edge">
<title>Node21&#45;&gt;Node22</title>
<path fill="none" stroke="midnightblue" d="M792.61,-112.44C846.57,-101.61 938.34,-83.19 986.8,-73.46"/>
<polygon fill="midnightblue" stroke="midnightblue" points="987.62,-76.87 996.73,-71.47 986.24,-70 987.62,-76.87"/>
</g>
<!-- Node23&#45;&gt;Node21 -->
<g id="edge16" class="edge">
<title>Node23&#45;&gt;Node21</title>
<path fill="none" stroke="midnightblue" d="M749.13,-173.98C749.27,-165.58 749.49,-152.48 749.67,-141.66"/>
<polygon fill="midnightblue" stroke="midnightblue" points="753.17,-141.57 749.84,-131.51 746.17,-141.45 753.17,-141.57"/>
</g>
<!-- Node5 -->
<g id="node17" class="node">
<title>Node5</title>
<g id="a_node17"><a xlink:title=" ">
<polygon fill="white" stroke="#bfbfbf" points="609.98,-308 609.98,-327 651.98,-327 651.98,-308 609.98,-308"/>
<text text-anchor="middle" x="630.98" y="-315" font-family="Helvetica,sans-Serif" font-size="10.00">array</text>
</a>
</g>
</g>
<!-- Node30&#45;&gt;Node5 -->
<g id="edge24" class="edge">
<title>Node30&#45;&gt;Node5</title>
<path fill="none" stroke="midnightblue" d="M699.52,-369.48C686.81,-360.02 666.07,-344.6 650.73,-333.19"/>
<polygon fill="midnightblue" stroke="midnightblue" points="652.54,-330.17 642.42,-327.01 648.36,-335.79 652.54,-330.17"/>
</g>
<!-- Node35&#45;&gt;Node3 -->
<g id="edge32" class="edge">
<title>Node35&#45;&gt;Node3</title>
<path fill="none" stroke="midnightblue" d="M538.03,-369.43C536.07,-360.42 533.19,-345.8 531.98,-333 525.1,-259.99 546.55,-239.44 529.98,-168 522.74,-136.77 504.87,-103.82 493.1,-84.35"/>
<polygon fill="midnightblue" stroke="midnightblue" points="495.98,-82.36 487.73,-75.71 490.04,-86.05 495.98,-82.36"/>
</g>
<!-- Node35&#45;&gt;Node16 -->
<g id="edge33" class="edge">
<title>Node35&#45;&gt;Node16</title>
<path fill="none" stroke="midnightblue" d="M510.61,-369.48C480.12,-360.63 431.62,-346.55 393.3,-335.43"/>
<polygon fill="midnightblue" stroke="midnightblue" points="393.88,-331.95 383.3,-332.52 391.92,-338.67 393.88,-331.95"/>
</g>
<!-- Node35&#45;&gt;Node23 -->
<g id="edge34" class="edge">
<title>Node35&#45;&gt;Node23</title>
<path fill="none" stroke="midnightblue" d="M538.47,-369.26C534.75,-344.66 527.83,-274.07 562.98,-235 579.85,-216.25 641.37,-202.07 689.09,-193.58"/>
<polygon fill="midnightblue" stroke="midnightblue" points="689.79,-197.01 699.05,-191.85 688.59,-190.11 689.79,-197.01"/>
</g>
<!-- Node35&#45;&gt;Node27 -->
<g id="edge36" class="edge">
<title>Node35&#45;&gt;Node27</title>
<path fill="none" stroke="midnightblue" d="M527.56,-369.48C504.99,-354.28 455.36,-322.2 409.98,-302 361.83,-280.57 345.88,-285.67 296.98,-266 245.42,-245.26 187.7,-215.31 155.71,-198.08"/>
<polygon fill="midnightblue" stroke="midnightblue" points="157.11,-194.86 146.65,-193.17 153.77,-201.01 157.11,-194.86"/>
</g>
<!-- Node35&#45;&gt;Node28 -->
<g id="edge37" class="edge">
<title>Node35&#45;&gt;Node28</title>
<path fill="none" stroke="midnightblue" d="M525.61,-369.33C514.1,-361.47 498.79,-348.72 491.98,-333 473.05,-289.29 486.07,-231.48 494.83,-202.58"/>
<polygon fill="midnightblue" stroke="midnightblue" points="498.18,-203.6 497.9,-193.01 491.51,-201.46 498.18,-203.6"/>
</g>
<!-- Node35&#45;&gt;Node5 -->
<g id="edge35" class="edge">
<title>Node35&#45;&gt;Node5</title>
<path fill="none" stroke="midnightblue" d="M553.02,-369.48C567.75,-359.84 591.96,-344.02 609.49,-332.55"/>
<polygon fill="midnightblue" stroke="midnightblue" points="611.51,-335.41 617.97,-327.01 607.68,-329.55 611.51,-335.41"/>
</g>
<!-- Node36&#45;&gt;Node3 -->
<g id="edge39" class="edge">
<title>Node36&#45;&gt;Node3</title>
<path fill="none" stroke="midnightblue" d="M1062.54,-307.86C1048.56,-298.88 1027.55,-283.69 1013.98,-266 985.04,-228.26 1005.88,-200.32 970.98,-168 910.88,-112.34 673.01,-83.82 552.6,-72.7"/>
<polygon fill="midnightblue" stroke="midnightblue" points="552.65,-69.19 542.38,-71.77 552.02,-76.16 552.65,-69.19"/>
</g>
<!-- Node36&#45;&gt;Node22 -->
<g id="edge44" class="edge">
<title>Node36&#45;&gt;Node22</title>
<path fill="none" stroke="midnightblue" d="M1135.24,-314.84C1206.56,-310.28 1314.18,-293.78 1281.98,-235 1232.13,-144 1109.69,-95.14 1051.16,-76.29"/>
<polygon fill="midnightblue" stroke="midnightblue" points="1051.93,-72.86 1041.34,-73.22 1049.84,-79.54 1051.93,-72.86"/>
</g>
<!-- Node36&#45;&gt;Node9 -->
<g id="edge45" class="edge">
<title>Node36&#45;&gt;Node9</title>
<path fill="none" stroke="midnightblue" d="M1018.69,-309.75C942.68,-300.76 805.64,-283.9 688.98,-266 676.81,-264.13 663.67,-261.9 651.54,-259.76"/>
<polygon fill="midnightblue" stroke="midnightblue" points="652.1,-256.3 641.64,-257.99 650.86,-263.19 652.1,-256.3"/>
</g>
<!-- Node37 -->
<g id="node23" class="node">
<title>Node37</title>
<g id="a_node23"><a xlink:title=" ">
<polygon fill="white" stroke="#bfbfbf" points="1080.48,-241 1080.48,-260 1127.48,-260 1127.48,-241 1080.48,-241"/>
<text text-anchor="middle" x="1103.98" y="-248" font-family="Helvetica,sans-Serif" font-size="10.00">cmath</text>
</a>
</g>
</g>
<!-- Node36&#45;&gt;Node37 -->
<g id="edge40" class="edge">
<title>Node36&#45;&gt;Node37</title>
<path fill="none" stroke="midnightblue" d="M1080.62,-307.73C1084.67,-297.99 1091.32,-281.98 1096.49,-269.53"/>
<polygon fill="midnightblue" stroke="midnightblue" points="1099.79,-270.7 1100.4,-260.13 1093.33,-268.02 1099.79,-270.7"/>
</g>
<!-- Node38 -->
<g id="node24" class="node">
<title>Node38</title>
<g id="a_node24"><a xlink:title=" ">
<polygon fill="white" stroke="#bfbfbf" points="1145.48,-241 1145.48,-260 1210.48,-260 1210.48,-241 1145.48,-241"/>
<text text-anchor="middle" x="1177.98" y="-248" font-family="Helvetica,sans-Serif" font-size="10.00">functional</text>
</a>
</g>
</g>
<!-- Node36&#45;&gt;Node38 -->
<g id="edge41" class="edge">
<title>Node36&#45;&gt;Node38</title>
<path fill="none" stroke="midnightblue" d="M1090.6,-307.73C1107.41,-296.92 1136.21,-278.38 1156.13,-265.57"/>
<polygon fill="midnightblue" stroke="midnightblue" points="1158.06,-268.48 1164.58,-260.13 1154.27,-262.6 1158.06,-268.48"/>
</g>
<!-- Node39 -->
<g id="node25" class="node">
<title>Node39</title>
<g id="a_node25"><a xlink:title=" ">
<polygon fill="white" stroke="#bfbfbf" points="1228.98,-241 1228.98,-260 1272.98,-260 1272.98,-241 1228.98,-241"/>
<text text-anchor="middle" x="1250.98" y="-248" font-family="Helvetica,sans-Serif" font-size="10.00">limits</text>
</a>
</g>
</g>
<!-- Node36&#45;&gt;Node39 -->
<g id="edge42" class="edge">
<title>Node36&#45;&gt;Node39</title>
<path fill="none" stroke="midnightblue" d="M1103.14,-307.93C1131.82,-298.37 1179.07,-282.11 1218.98,-266 1220.4,-265.43 1221.84,-264.83 1223.29,-264.22"/>
<polygon fill="midnightblue" stroke="midnightblue" points="1225.06,-267.26 1232.82,-260.05 1222.26,-260.85 1225.06,-267.26"/>
</g>
<!-- Node40 -->
<g id="node26" class="node">
<title>Node40</title>
<g id="a_node26"><a xlink:title=" ">
<polygon fill="white" stroke="#bfbfbf" points="1023.48,-241 1023.48,-260 1062.48,-260 1062.48,-241 1023.48,-241"/>
<text text-anchor="middle" x="1042.98" y="-248" font-family="Helvetica,sans-Serif" font-size="10.00">ratio</text>
</a>
</g>
</g>
<!-- Node36&#45;&gt;Node40 -->
<g id="edge43" class="edge">
<title>Node36&#45;&gt;Node40</title>
<path fill="none" stroke="midnightblue" d="M1072.4,-307.73C1067.25,-297.89 1058.76,-281.66 1052.22,-269.16"/>
<polygon fill="midnightblue" stroke="midnightblue" points="1055.23,-267.37 1047.5,-260.13 1049.03,-270.61 1055.23,-267.37"/>
</g>
<!-- Node41&#45;&gt;Node3 -->
<g id="edge47" class="edge">
<title>Node41&#45;&gt;Node3</title>
<path fill="none" stroke="midnightblue" d="M730.66,-307.84C720.21,-297.99 702.9,-281.3 688.98,-266 629.48,-200.58 630.84,-168.71 562.98,-112 547.4,-98.98 527.49,-87.86 511.31,-79.93"/>
<polygon fill="midnightblue" stroke="midnightblue" points="512.81,-76.77 502.28,-75.64 509.81,-83.09 512.81,-76.77"/>
</g>
<!-- Node41&#45;&gt;Node17 -->
<g id="edge48" class="edge">
<title>Node41&#45;&gt;Node17</title>
<path fill="none" stroke="midnightblue" d="M693.63,-307.93C682.91,-305.96 671.55,-303.9 660.98,-302 589.46,-289.16 507.87,-274.89 449.83,-264.8"/>
<polygon fill="midnightblue" stroke="midnightblue" points="450.09,-261.3 439.64,-263.03 448.9,-268.19 450.09,-261.3"/>
</g>
<!-- Node41&#45;&gt;Node9 -->
<g id="edge52" class="edge">
<title>Node41&#45;&gt;Node9</title>
<path fill="none" stroke="midnightblue" d="M722.32,-307.87C699.67,-296.8 660.15,-277.49 633.78,-264.6"/>
<polygon fill="midnightblue" stroke="midnightblue" points="635.24,-261.41 624.72,-260.17 632.16,-267.7 635.24,-261.41"/>
</g>
<!-- Node42 -->
<g id="node28" class="node">
<title>Node42</title>
<g id="a_node28"><a xlink:href="iterator_8h.html" target="_top" xlink:title=" ">
<polygon fill="white" stroke="red" points="816.98,-241 816.98,-260 928.98,-260 928.98,-241 816.98,-241"/>
<text text-anchor="middle" x="872.98" y="-248" font-family="Helvetica,sans-Serif" font-size="10.00">emlabcpp/iterator.h</text>
</a>
</g>
</g>
<!-- Node41&#45;&gt;Node42 -->
<g id="edge49" class="edge">
<title>Node41&#45;&gt;Node42</title>
<path fill="none" stroke="midnightblue" d="M757.64,-307.87C780.3,-296.8 819.81,-277.49 846.18,-264.6"/>
<polygon fill="midnightblue" stroke="midnightblue" points="847.8,-267.7 855.25,-260.17 844.73,-261.41 847.8,-267.7"/>
</g>
<!-- Node43 -->
<g id="node29" class="node">
<title>Node43</title>
<g id="a_node29"><a xlink:title=" ">
<polygon fill="white" stroke="#bfbfbf" points="761.48,-241 761.48,-260 798.48,-260 798.48,-241 761.48,-241"/>
<text text-anchor="middle" x="779.98" y="-248" font-family="Helvetica,sans-Serif" font-size="10.00">new</text>
</a>
</g>
</g>
<!-- Node41&#45;&gt;Node43 -->
<g id="edge51" class="edge">
<title>Node41&#45;&gt;Node43</title>
<path fill="none" stroke="midnightblue" d="M745.38,-307.73C751.49,-297.79 761.62,-281.34 769.34,-268.79"/>
<polygon fill="midnightblue" stroke="midnightblue" points="772.41,-270.48 774.67,-260.13 766.45,-266.81 772.41,-270.48"/>
</g>
<!-- Node44 -->
<g id="node30" class="node">
<title>Node44</title>
<g id="a_node30"><a xlink:title=" ">
<polygon fill="white" stroke="#bfbfbf" points="698.48,-241 698.48,-260 743.48,-260 743.48,-241 698.48,-241"/>
<text text-anchor="middle" x="720.98" y="-248" font-family="Helvetica,sans-Serif" font-size="10.00">utility</text>
</a>
</g>
</g>
<!-- Node41&#45;&gt;Node44 -->
<g id="edge53" class="edge">
<title>Node41&#45;&gt;Node44</title>
<path fill="none" stroke="midnightblue" d="M737.42,-307.73C734.6,-298.09 729.99,-282.3 726.36,-269.91"/>
<polygon fill="midnightblue" stroke="midnightblue" points="729.67,-268.74 723.5,-260.13 722.95,-270.71 729.67,-268.74"/>
</g>
<!-- Node42&#45;&gt;Node23 -->
<g id="edge50" class="edge">
<title>Node42&#45;&gt;Node23</title>
<path fill="none" stroke="midnightblue" d="M856.52,-240.87C835.58,-229.89 799.2,-210.82 774.62,-197.94"/>
<polygon fill="midnightblue" stroke="midnightblue" points="776,-194.71 765.52,-193.17 772.75,-200.91 776,-194.71"/>
</g>
</g>
</svg>
