<?xml version="1.0" encoding="UTF-8" standalone="no"?>
<!DOCTYPE svg PUBLIC "-//W3C//DTD SVG 1.1//EN"
 "http://www.w3.org/Graphics/SVG/1.1/DTD/svg11.dtd">
<!-- Generated by graphviz version 2.43.0 (0)
 -->
<!-- Title: include/emlabcpp/protocol/traits.h Pages: 1 -->
<svg width="1002pt" height="319pt"
 viewBox="0.00 0.00 1002.00 319.00" xmlns="http://www.w3.org/2000/svg" xmlns:xlink="http://www.w3.org/1999/xlink">
<g id="graph0" class="graph" transform="scale(1 1) rotate(0) translate(4 315)">
<title>include/emlabcpp/protocol/traits.h</title>
<polygon fill="white" stroke="transparent" points="-4,4 -4,-315 998,-315 998,4 -4,4"/>
<!-- Node1 -->
<g id="node1" class="node">
<title>Node1</title>
<g id="a_node1"><a xlink:title=" ">
<polygon fill="#bfbfbf" stroke="black" points="552,-280.5 552,-310.5 698,-310.5 698,-280.5 552,-280.5"/>
<text text-anchor="start" x="560" y="-298.5" font-family="Helvetica,sans-Serif" font-size="10.00">include/emlabcpp/protocol</text>
<text text-anchor="middle" x="625" y="-287.5" font-family="Helvetica,sans-Serif" font-size="10.00">/traits.h</text>
</a>
</g>
</g>
<!-- Node2 -->
<g id="node2" class="node">
<title>Node2</title>
<g id="a_node2"><a xlink:href="decompose_8h.html" target="_top" xlink:title=" ">
<polygon fill="white" stroke="black" points="492.5,-224.5 492.5,-243.5 651.5,-243.5 651.5,-224.5 492.5,-224.5"/>
<text text-anchor="middle" x="572" y="-231.5" font-family="Helvetica,sans-Serif" font-size="10.00">../experimental/decompose.h</text>
</a>
</g>
</g>
<!-- Node1&#45;&gt;Node2 -->
<g id="edge1" class="edge">
<title>Node1&#45;&gt;Node2</title>
<path fill="none" stroke="midnightblue" d="M612.44,-280.4C604.66,-271.66 594.64,-260.41 586.52,-251.3"/>
<polygon fill="midnightblue" stroke="midnightblue" points="588.98,-248.8 579.71,-243.66 583.75,-253.45 588.98,-248.8"/>
</g>
<!-- Node13 -->
<g id="node4" class="node">
<title>Node13</title>
<g id="a_node4"><a xlink:title=" ">
<polygon fill="white" stroke="#bfbfbf" points="498.5,-0.5 498.5,-19.5 549.5,-19.5 549.5,-0.5 498.5,-0.5"/>
<text text-anchor="middle" x="524" y="-7.5" font-family="Helvetica,sans-Serif" font-size="10.00">variant</text>
</a>
</g>
</g>
<!-- Node1&#45;&gt;Node13 -->
<g id="edge39" class="edge">
<title>Node1&#45;&gt;Node13</title>
<path fill="none" stroke="midnightblue" d="M698.06,-280.53C784.26,-261.92 916,-225.81 916,-179 916,-179 916,-179 916,-121 916,-47.42 656.73,-20.77 559.9,-13.38"/>
<polygon fill="midnightblue" stroke="midnightblue" points="559.95,-9.87 549.72,-12.63 559.44,-16.85 559.95,-9.87"/>
</g>
<!-- Node14 -->
<g id="node6" class="node">
<title>Node14</title>
<g id="a_node6"><a xlink:href="quantity_8h.html" target="_top" xlink:title=" ">
<polygon fill="white" stroke="black" points="157,-112.5 157,-131.5 231,-131.5 231,-112.5 157,-112.5"/>
<text text-anchor="middle" x="194" y="-119.5" font-family="Helvetica,sans-Serif" font-size="10.00">../quantity.h</text>
</a>
</g>
</g>
<!-- Node1&#45;&gt;Node14 -->
<g id="edge5" class="edge">
<title>Node1&#45;&gt;Node14</title>
<path fill="none" stroke="midnightblue" d="M551.94,-292.07C459.27,-287.7 305.99,-275.77 260,-244 224.18,-219.26 205.94,-168.57 198.38,-141.31"/>
<polygon fill="midnightblue" stroke="midnightblue" points="201.74,-140.31 195.85,-131.51 194.96,-142.07 201.74,-140.31"/>
</g>
<!-- Node20 -->
<g id="node13" class="node">
<title>Node20</title>
<g id="a_node13"><a xlink:href="static__vector_8h.html" target="_top" xlink:title=" ">
<polygon fill="white" stroke="black" points="377.5,-224.5 377.5,-243.5 474.5,-243.5 474.5,-224.5 377.5,-224.5"/>
<text text-anchor="middle" x="426" y="-231.5" font-family="Helvetica,sans-Serif" font-size="10.00">../static_vector.h</text>
</a>
</g>
</g>
<!-- Node1&#45;&gt;Node20 -->
<g id="edge13" class="edge">
<title>Node1&#45;&gt;Node20</title>
<path fill="none" stroke="midnightblue" d="M578.09,-280.47C543.31,-270.08 496.5,-256.08 464.03,-246.37"/>
<polygon fill="midnightblue" stroke="midnightblue" points="465.03,-243.02 454.45,-243.51 463.03,-249.72 465.03,-243.02"/>
</g>
<!-- Node27 -->
<g id="node17" class="node">
<title>Node27</title>
<g id="a_node17"><a xlink:href="types_8h.html" target="_top" xlink:title=" ">
<polygon fill="white" stroke="red" points="249.5,-112.5 249.5,-131.5 308.5,-131.5 308.5,-112.5 249.5,-112.5"/>
<text text-anchor="middle" x="279" y="-119.5" font-family="Helvetica,sans-Serif" font-size="10.00">./types.h</text>
</a>
</g>
</g>
<!-- Node1&#45;&gt;Node27 -->
<g id="edge21" class="edge">
<title>Node1&#45;&gt;Node27</title>
<path fill="none" stroke="midnightblue" d="M551.62,-294.75C459.48,-293.31 309.17,-284.6 274,-244 249.19,-215.37 261.78,-167.1 271.42,-141.02"/>
<polygon fill="midnightblue" stroke="midnightblue" points="274.71,-142.2 275.12,-131.61 268.2,-139.63 274.71,-142.2"/>
</g>
<!-- Node29 -->
<g id="node18" class="node">
<title>Node29</title>
<g id="a_node18"><a xlink:href="protocol_2base_8h.html" target="_top" xlink:title=" ">
<polygon fill="white" stroke="black" points="645.5,-168.5 645.5,-187.5 700.5,-187.5 700.5,-168.5 645.5,-168.5"/>
<text text-anchor="middle" x="673" y="-175.5" font-family="Helvetica,sans-Serif" font-size="10.00">./base.h</text>
</a>
</g>
</g>
<!-- Node1&#45;&gt;Node29 -->
<g id="edge22" class="edge">
<title>Node1&#45;&gt;Node29</title>
<path fill="none" stroke="midnightblue" d="M637.12,-280.42C644.8,-270.77 654.33,-257.35 660,-244 666.26,-229.25 669.56,-211.32 671.26,-198.03"/>
<polygon fill="midnightblue" stroke="midnightblue" points="674.78,-198.06 672.38,-187.74 667.82,-197.31 674.78,-198.06"/>
</g>
<!-- Node31 -->
<g id="node20" class="node">
<title>Node31</title>
<g id="a_node20"><a xlink:title=" ">
<polygon fill="white" stroke="#bfbfbf" points="738,-56.5 738,-75.5 794,-75.5 794,-56.5 738,-56.5"/>
<text text-anchor="middle" x="766" y="-63.5" font-family="Helvetica,sans-Serif" font-size="10.00">optional</text>
</a>
</g>
</g>
<!-- Node1&#45;&gt;Node31 -->
<g id="edge38" class="edge">
<title>Node1&#45;&gt;Node31</title>
<path fill="none" stroke="midnightblue" d="M665.94,-280.35C721.83,-258.52 819.54,-210.7 859,-132 872.74,-104.59 835.39,-86.48 804,-76.5"/>
<polygon fill="midnightblue" stroke="midnightblue" points="804.67,-73.05 794.09,-73.54 802.67,-79.75 804.67,-73.05"/>
</g>
<!-- Node32 -->
<g id="node21" class="node">
<title>Node32</title>
<g id="a_node21"><a xlink:href="protocol_2error_8h.html" target="_top" xlink:title=" ">
<polygon fill="white" stroke="red" points="796,-112.5 796,-131.5 850,-131.5 850,-112.5 796,-112.5"/>
<text text-anchor="middle" x="823" y="-119.5" font-family="Helvetica,sans-Serif" font-size="10.00">./error.h</text>
</a>
</g>
</g>
<!-- Node1&#45;&gt;Node32 -->
<g id="edge33" class="edge">
<title>Node1&#45;&gt;Node32</title>
<path fill="none" stroke="midnightblue" d="M641.2,-280.47C677.95,-248.63 767.38,-171.17 805.42,-138.23"/>
<polygon fill="midnightblue" stroke="midnightblue" points="807.85,-140.75 813.12,-131.56 803.27,-135.46 807.85,-140.75"/>
</g>
<!-- Node38 -->
<g id="node24" class="node">
<title>Node38</title>
<g id="a_node24"><a xlink:href="message_8h.html" target="_top" xlink:title=" ">
<polygon fill="white" stroke="black" points="283,-224.5 283,-243.5 359,-243.5 359,-224.5 283,-224.5"/>
<text text-anchor="middle" x="321" y="-231.5" font-family="Helvetica,sans-Serif" font-size="10.00">./message.h</text>
</a>
</g>
</g>
<!-- Node1&#45;&gt;Node38 -->
<g id="edge34" class="edge">
<title>Node1&#45;&gt;Node38</title>
<path fill="none" stroke="midnightblue" d="M553.34,-280.47C496.52,-269.35 418.68,-254.12 369.11,-244.42"/>
<polygon fill="midnightblue" stroke="midnightblue" points="369.77,-240.98 359.28,-242.49 368.42,-247.85 369.77,-240.98"/>
</g>
<!-- Node39 -->
<g id="node25" class="node">
<title>Node39</title>
<g id="a_node25"><a xlink:title=" ">
<polygon fill="white" stroke="#bfbfbf" points="944,-224.5 944,-243.5 994,-243.5 994,-224.5 944,-224.5"/>
<text text-anchor="middle" x="969" y="-231.5" font-family="Helvetica,sans-Serif" font-size="10.00">chrono</text>
</a>
</g>
</g>
<!-- Node1&#45;&gt;Node39 -->
<g id="edge37" class="edge">
<title>Node1&#45;&gt;Node39</title>
<path fill="none" stroke="midnightblue" d="M698.26,-283.69C760.19,-274.24 851.16,-259.61 930,-244 931.27,-243.75 932.55,-243.49 933.85,-243.22"/>
<polygon fill="midnightblue" stroke="midnightblue" points="934.84,-246.58 943.87,-241.04 933.36,-239.74 934.84,-246.58"/>
</g>
<!-- Node3 -->
<g id="node3" class="node">
<title>Node3</title>
<g id="a_node3"><a xlink:href="concepts_8h.html" target="_top" xlink:title=" ">
<polygon fill="white" stroke="red" points="341,-56.5 341,-75.5 419,-75.5 419,-56.5 341,-56.5"/>
<text text-anchor="middle" x="380" y="-63.5" font-family="Helvetica,sans-Serif" font-size="10.00">../concepts.h</text>
</a>
</g>
</g>
<!-- Node2&#45;&gt;Node3 -->
<g id="edge2" class="edge">
<title>Node2&#45;&gt;Node3</title>
<path fill="none" stroke="midnightblue" d="M566.33,-224.33C551.96,-202.87 512.01,-146.55 467,-112 449.81,-98.81 428.19,-87.6 410.79,-79.67"/>
<polygon fill="midnightblue" stroke="midnightblue" points="412.18,-76.46 401.62,-75.61 409.35,-82.86 412.18,-76.46"/>
</g>
<!-- Node8 -->
<g id="node5" class="node">
<title>Node8</title>
<g id="a_node5"><a xlink:title=" ">
<polygon fill="white" stroke="#bfbfbf" points="566.5,-168.5 566.5,-187.5 607.5,-187.5 607.5,-168.5 566.5,-168.5"/>
<text text-anchor="middle" x="587" y="-175.5" font-family="Helvetica,sans-Serif" font-size="10.00">tuple</text>
</a>
</g>
</g>
<!-- Node2&#45;&gt;Node8 -->
<g id="edge4" class="edge">
<title>Node2&#45;&gt;Node8</title>
<path fill="none" stroke="midnightblue" d="M574.48,-224.08C576.49,-216.85 579.39,-206.41 581.89,-197.4"/>
<polygon fill="midnightblue" stroke="midnightblue" points="585.26,-198.32 584.57,-187.75 578.52,-196.45 585.26,-198.32"/>
</g>
<!-- Node3&#45;&gt;Node13 -->
<g id="edge3" class="edge">
<title>Node3&#45;&gt;Node13</title>
<path fill="none" stroke="midnightblue" d="M402.82,-56.44C426.83,-47.44 464.83,-33.19 491.87,-23.05"/>
<polygon fill="midnightblue" stroke="midnightblue" points="493.16,-26.3 501.29,-19.52 490.7,-19.75 493.16,-26.3"/>
</g>
<!-- Node14&#45;&gt;Node3 -->
<g id="edge6" class="edge">
<title>Node14&#45;&gt;Node3</title>
<path fill="none" stroke="midnightblue" d="M223.47,-112.44C255.17,-103.24 305.73,-88.56 340.77,-78.39"/>
<polygon fill="midnightblue" stroke="midnightblue" points="342.04,-81.67 350.67,-75.52 340.09,-74.94 342.04,-81.67"/>
</g>
<!-- Node15 -->
<g id="node7" class="node">
<title>Node15</title>
<g id="a_node7"><a xlink:title=" ">
<polygon fill="white" stroke="#bfbfbf" points="119.5,-56.5 119.5,-75.5 166.5,-75.5 166.5,-56.5 119.5,-56.5"/>
<text text-anchor="middle" x="143" y="-63.5" font-family="Helvetica,sans-Serif" font-size="10.00">cmath</text>
</a>
</g>
</g>
<!-- Node14&#45;&gt;Node15 -->
<g id="edge7" class="edge">
<title>Node14&#45;&gt;Node15</title>
<path fill="none" stroke="midnightblue" d="M185.58,-112.08C178.15,-104.22 167.15,-92.57 158.19,-83.08"/>
<polygon fill="midnightblue" stroke="midnightblue" points="160.68,-80.62 151.26,-75.75 155.59,-85.42 160.68,-80.62"/>
</g>
<!-- Node16 -->
<g id="node8" class="node">
<title>Node16</title>
<g id="a_node8"><a xlink:title=" ">
<polygon fill="white" stroke="#bfbfbf" points="184.5,-56.5 184.5,-75.5 249.5,-75.5 249.5,-56.5 184.5,-56.5"/>
<text text-anchor="middle" x="217" y="-63.5" font-family="Helvetica,sans-Serif" font-size="10.00">functional</text>
</a>
</g>
</g>
<!-- Node14&#45;&gt;Node16 -->
<g id="edge8" class="edge">
<title>Node14&#45;&gt;Node16</title>
<path fill="none" stroke="midnightblue" d="M197.8,-112.08C200.91,-104.77 205.42,-94.18 209.29,-85.1"/>
<polygon fill="midnightblue" stroke="midnightblue" points="212.57,-86.32 213.27,-75.75 206.13,-83.58 212.57,-86.32"/>
</g>
<!-- Node17 -->
<g id="node9" class="node">
<title>Node17</title>
<g id="a_node9"><a xlink:title=" ">
<polygon fill="white" stroke="#bfbfbf" points="0,-56.5 0,-75.5 44,-75.5 44,-56.5 0,-56.5"/>
<text text-anchor="middle" x="22" y="-63.5" font-family="Helvetica,sans-Serif" font-size="10.00">limits</text>
</a>
</g>
</g>
<!-- Node14&#45;&gt;Node17 -->
<g id="edge9" class="edge">
<title>Node14&#45;&gt;Node17</title>
<path fill="none" stroke="midnightblue" d="M166.75,-112.44C136.15,-102.84 86.54,-87.26 54.09,-77.07"/>
<polygon fill="midnightblue" stroke="midnightblue" points="54.79,-73.63 44.2,-73.97 52.7,-80.31 54.79,-73.63"/>
</g>
<!-- Node18 -->
<g id="node10" class="node">
<title>Node18</title>
<g id="a_node10"><a xlink:title=" ">
<polygon fill="white" stroke="#bfbfbf" points="62.5,-56.5 62.5,-75.5 101.5,-75.5 101.5,-56.5 62.5,-56.5"/>
<text text-anchor="middle" x="82" y="-63.5" font-family="Helvetica,sans-Serif" font-size="10.00">ratio</text>
</a>
</g>
</g>
<!-- Node14&#45;&gt;Node18 -->
<g id="edge10" class="edge">
<title>Node14&#45;&gt;Node18</title>
<path fill="none" stroke="midnightblue" d="M176.01,-112.32C157.96,-103.62 129.95,-90.12 109.2,-80.11"/>
<polygon fill="midnightblue" stroke="midnightblue" points="110.48,-76.84 99.95,-75.65 107.44,-83.15 110.48,-76.84"/>
</g>
<!-- Node19 -->
<g id="node11" class="node">
<title>Node19</title>
<g id="a_node11"><a xlink:title=" ">
<polygon fill="white" stroke="#bfbfbf" points="268,-56.5 268,-75.5 312,-75.5 312,-56.5 268,-56.5"/>
<text text-anchor="middle" x="290" y="-63.5" font-family="Helvetica,sans-Serif" font-size="10.00">string</text>
</a>
</g>
</g>
<!-- Node14&#45;&gt;Node19 -->
<g id="edge11" class="edge">
<title>Node14&#45;&gt;Node19</title>
<path fill="none" stroke="midnightblue" d="M209.42,-112.32C224.54,-103.82 247.82,-90.73 265.47,-80.8"/>
<polygon fill="midnightblue" stroke="midnightblue" points="267.61,-83.61 274.61,-75.65 264.18,-77.51 267.61,-83.61"/>
</g>
<!-- Node9 -->
<g id="node12" class="node">
<title>Node9</title>
<g id="a_node12"><a xlink:title=" ">
<polygon fill="white" stroke="#bfbfbf" points="556.5,-56.5 556.5,-75.5 625.5,-75.5 625.5,-56.5 556.5,-56.5"/>
<text text-anchor="middle" x="591" y="-63.5" font-family="Helvetica,sans-Serif" font-size="10.00">type_traits</text>
</a>
</g>
</g>
<!-- Node14&#45;&gt;Node9 -->
<g id="edge12" class="edge">
<title>Node14&#45;&gt;Node9</title>
<path fill="none" stroke="midnightblue" d="M231.12,-113.52C234.12,-112.98 237.11,-112.47 240,-112 349.38,-94.31 478.85,-79.21 545.82,-71.83"/>
<polygon fill="midnightblue" stroke="midnightblue" points="546.46,-75.28 556.02,-70.71 545.7,-68.32 546.46,-75.28"/>
</g>
<!-- Node20&#45;&gt;Node3 -->
<g id="edge14" class="edge">
<title>Node20&#45;&gt;Node3</title>
<path fill="none" stroke="midnightblue" d="M419.32,-224.21C413.04,-215.5 403.91,-201.53 399,-188 386.41,-153.32 382.16,-110.06 380.73,-85.79"/>
<polygon fill="midnightblue" stroke="midnightblue" points="384.22,-85.61 380.24,-75.79 377.23,-85.95 384.22,-85.61"/>
</g>
<!-- Node21 -->
<g id="node14" class="node">
<title>Node21</title>
<g id="a_node14"><a xlink:href="static__storage_8h.html" target="_top" xlink:title=" ">
<polygon fill="white" stroke="red" points="408.5,-168.5 408.5,-187.5 509.5,-187.5 509.5,-168.5 408.5,-168.5"/>
<text text-anchor="middle" x="459" y="-175.5" font-family="Helvetica,sans-Serif" font-size="10.00">./static_storage.h</text>
</a>
</g>
</g>
<!-- Node20&#45;&gt;Node21 -->
<g id="edge15" class="edge">
<title>Node20&#45;&gt;Node21</title>
<path fill="none" stroke="midnightblue" d="M431.45,-224.08C436.01,-216.61 442.67,-205.72 448.29,-196.52"/>
<polygon fill="midnightblue" stroke="midnightblue" points="451.42,-198.11 453.65,-187.75 445.45,-194.46 451.42,-198.11"/>
</g>
<!-- Node26 -->
<g id="node16" class="node">
<title>Node26</title>
<g id="a_node16"><a xlink:href="view_8h.html" target="_top" xlink:title=" ">
<polygon fill="white" stroke="red" points="298,-168.5 298,-187.5 352,-187.5 352,-168.5 298,-168.5"/>
<text text-anchor="middle" x="325" y="-175.5" font-family="Helvetica,sans-Serif" font-size="10.00">./view.h</text>
</a>
</g>
</g>
<!-- Node20&#45;&gt;Node26 -->
<g id="edge17" class="edge">
<title>Node20&#45;&gt;Node26</title>
<path fill="none" stroke="midnightblue" d="M409.77,-224.32C393.65,-215.7 368.7,-202.36 350.04,-192.39"/>
<polygon fill="midnightblue" stroke="midnightblue" points="351.66,-189.28 341.19,-187.65 348.36,-195.46 351.66,-189.28"/>
</g>
<!-- Node23 -->
<g id="node15" class="node">
<title>Node23</title>
<g id="a_node15"><a xlink:title=" ">
<polygon fill="white" stroke="#bfbfbf" points="408,-112.5 408,-131.5 458,-131.5 458,-112.5 408,-112.5"/>
<text text-anchor="middle" x="433" y="-119.5" font-family="Helvetica,sans-Serif" font-size="10.00">cstring</text>
</a>
</g>
</g>
<!-- Node21&#45;&gt;Node23 -->
<g id="edge16" class="edge">
<title>Node21&#45;&gt;Node23</title>
<path fill="none" stroke="midnightblue" d="M454.71,-168.08C451.15,-160.69 445.98,-149.95 441.58,-140.81"/>
<polygon fill="midnightblue" stroke="midnightblue" points="444.71,-139.24 437.21,-131.75 438.4,-142.28 444.71,-139.24"/>
</g>
<!-- Node26&#45;&gt;Node27 -->
<g id="edge18" class="edge">
<title>Node26&#45;&gt;Node27</title>
<path fill="none" stroke="midnightblue" d="M317.4,-168.08C310.77,-160.3 300.98,-148.8 292.94,-139.37"/>
<polygon fill="midnightblue" stroke="midnightblue" points="295.6,-137.09 286.45,-131.75 290.27,-141.63 295.6,-137.09"/>
</g>
<!-- Node27&#45;&gt;Node3 -->
<g id="edge19" class="edge">
<title>Node27&#45;&gt;Node3</title>
<path fill="none" stroke="midnightblue" d="M295.23,-112.32C311.35,-103.7 336.3,-90.36 354.96,-80.39"/>
<polygon fill="midnightblue" stroke="midnightblue" points="356.64,-83.46 363.81,-75.65 353.34,-77.28 356.64,-83.46"/>
</g>
<!-- Node27&#45;&gt;Node19 -->
<g id="edge20" class="edge">
<title>Node27&#45;&gt;Node19</title>
<path fill="none" stroke="midnightblue" d="M280.82,-112.08C282.27,-104.93 284.37,-94.64 286.19,-85.69"/>
<polygon fill="midnightblue" stroke="midnightblue" points="289.65,-86.25 288.22,-75.75 282.79,-84.85 289.65,-86.25"/>
</g>
<!-- Node29&#45;&gt;Node13 -->
<g id="edge32" class="edge">
<title>Node29&#45;&gt;Node13</title>
<path fill="none" stroke="midnightblue" d="M645.34,-170.94C611.28,-162.91 556.29,-147.89 543,-132 518.63,-102.88 519.02,-55.51 521.48,-29.52"/>
<polygon fill="midnightblue" stroke="midnightblue" points="524.96,-29.85 522.63,-19.51 518.01,-29.05 524.96,-29.85"/>
</g>
<!-- Node29&#45;&gt;Node9 -->
<g id="edge31" class="edge">
<title>Node29&#45;&gt;Node9</title>
<path fill="none" stroke="midnightblue" d="M682.2,-168.07C694.48,-155.04 713.33,-130.36 701,-112 686.41,-90.27 659.26,-79.02 635.59,-73.21"/>
<polygon fill="midnightblue" stroke="midnightblue" points="636.22,-69.76 625.7,-71.03 634.72,-76.6 636.22,-69.76"/>
</g>
<!-- Node29&#45;&gt;Node23 -->
<g id="edge30" class="edge">
<title>Node29&#45;&gt;Node23</title>
<path fill="none" stroke="midnightblue" d="M645.47,-170.81C601.65,-160.95 516.09,-141.7 467.99,-130.87"/>
<polygon fill="midnightblue" stroke="midnightblue" points="468.56,-127.41 458.04,-128.63 467.03,-134.24 468.56,-127.41"/>
</g>
<!-- Node30 -->
<g id="node19" class="node">
<title>Node30</title>
<g id="a_node19"><a xlink:href="bounded_8h.html" target="_top" xlink:title=" ">
<polygon fill="white" stroke="black" points="552.5,-112.5 552.5,-131.5 629.5,-131.5 629.5,-112.5 552.5,-112.5"/>
<text text-anchor="middle" x="591" y="-119.5" font-family="Helvetica,sans-Serif" font-size="10.00">../bounded.h</text>
</a>
</g>
</g>
<!-- Node29&#45;&gt;Node30 -->
<g id="edge23" class="edge">
<title>Node29&#45;&gt;Node30</title>
<path fill="none" stroke="midnightblue" d="M659.83,-168.32C647.15,-159.98 627.77,-147.21 612.79,-137.35"/>
<polygon fill="midnightblue" stroke="midnightblue" points="614.42,-134.23 604.14,-131.65 610.57,-140.08 614.42,-134.23"/>
</g>
<!-- Node29&#45;&gt;Node32 -->
<g id="edge27" class="edge">
<title>Node29&#45;&gt;Node32</title>
<path fill="none" stroke="midnightblue" d="M696.77,-168.44C721.89,-159.4 761.71,-145.06 789.9,-134.92"/>
<polygon fill="midnightblue" stroke="midnightblue" points="791.12,-138.2 799.34,-131.52 788.75,-131.61 791.12,-138.2"/>
</g>
<!-- Node36 -->
<g id="node22" class="node">
<title>Node36</title>
<g id="a_node22"><a xlink:title=" ">
<polygon fill="white" stroke="#bfbfbf" points="748.5,-112.5 748.5,-131.5 777.5,-131.5 777.5,-112.5 748.5,-112.5"/>
<text text-anchor="middle" x="763" y="-119.5" font-family="Helvetica,sans-Serif" font-size="10.00">bit</text>
</a>
</g>
</g>
<!-- Node29&#45;&gt;Node36 -->
<g id="edge28" class="edge">
<title>Node29&#45;&gt;Node36</title>
<path fill="none" stroke="midnightblue" d="M687.46,-168.32C701.5,-159.9 723.05,-146.97 739.54,-137.07"/>
<polygon fill="midnightblue" stroke="midnightblue" points="741.8,-139.8 748.58,-131.65 738.2,-133.8 741.8,-139.8"/>
</g>
<!-- Node37 -->
<g id="node23" class="node">
<title>Node37</title>
<g id="a_node23"><a xlink:title=" ">
<polygon fill="white" stroke="#bfbfbf" points="648,-112.5 648,-131.5 692,-131.5 692,-112.5 648,-112.5"/>
<text text-anchor="middle" x="670" y="-119.5" font-family="Helvetica,sans-Serif" font-size="10.00">bitset</text>
</a>
</g>
</g>
<!-- Node29&#45;&gt;Node37 -->
<g id="edge29" class="edge">
<title>Node29&#45;&gt;Node37</title>
<path fill="none" stroke="midnightblue" d="M672.5,-168.08C672.11,-161.01 671.55,-150.86 671.05,-141.99"/>
<polygon fill="midnightblue" stroke="midnightblue" points="674.54,-141.54 670.49,-131.75 667.55,-141.93 674.54,-141.54"/>
</g>
<!-- Node30&#45;&gt;Node3 -->
<g id="edge24" class="edge">
<title>Node30&#45;&gt;Node3</title>
<path fill="none" stroke="midnightblue" d="M557.57,-112.44C521.14,-103.12 462.77,-88.18 422.97,-78"/>
<polygon fill="midnightblue" stroke="midnightblue" points="423.83,-74.61 413.28,-75.52 422.1,-81.39 423.83,-74.61"/>
</g>
<!-- Node30&#45;&gt;Node9 -->
<g id="edge26" class="edge">
<title>Node30&#45;&gt;Node9</title>
<path fill="none" stroke="midnightblue" d="M591,-112.08C591,-105.01 591,-94.86 591,-85.99"/>
<polygon fill="midnightblue" stroke="midnightblue" points="594.5,-85.75 591,-75.75 587.5,-85.75 594.5,-85.75"/>
</g>
<!-- Node30&#45;&gt;Node31 -->
<g id="edge25" class="edge">
<title>Node30&#45;&gt;Node31</title>
<path fill="none" stroke="midnightblue" d="M618.73,-112.44C648.43,-103.28 695.72,-88.69 728.67,-78.52"/>
<polygon fill="midnightblue" stroke="midnightblue" points="729.88,-81.81 738.4,-75.52 727.81,-75.12 729.88,-81.81"/>
</g>
<!-- Node38&#45;&gt;Node3 -->
<g id="edge35" class="edge">
<title>Node38&#45;&gt;Node3</title>
<path fill="none" stroke="midnightblue" d="M311.66,-224.4C299.58,-212.16 280.97,-188.9 289,-168 292.95,-157.72 339.53,-108.72 364.47,-82.94"/>
<polygon fill="midnightblue" stroke="midnightblue" points="366.99,-85.37 371.44,-75.75 361.97,-80.49 366.99,-85.37"/>
</g>
<!-- Node38&#45;&gt;Node26 -->
<g id="edge36" class="edge">
<title>Node38&#45;&gt;Node26</title>
<path fill="none" stroke="midnightblue" d="M321.66,-224.08C322.18,-217.01 322.94,-206.86 323.59,-197.99"/>
<polygon fill="midnightblue" stroke="midnightblue" points="327.1,-197.98 324.35,-187.75 320.12,-197.47 327.1,-197.98"/>
</g>
</g>
</svg>
