<?xml version="1.0" encoding="UTF-8" standalone="no"?>
<!DOCTYPE svg PUBLIC "-//W3C//DTD SVG 1.1//EN"
 "http://www.w3.org/Graphics/SVG/1.1/DTD/svg11.dtd">
<!-- Generated by graphviz version 2.43.0 (0)
 -->
<!-- Title: include/emlabcpp/protocol/traits.h Pages: 1 -->
<svg width="1496pt" height="397pt"
 viewBox="0.00 0.00 1496.11 397.00" xmlns="http://www.w3.org/2000/svg" xmlns:xlink="http://www.w3.org/1999/xlink">
<g id="graph0" class="graph" transform="scale(1 1) rotate(0) translate(4 393)">
<title>include/emlabcpp/protocol/traits.h</title>
<polygon fill="white" stroke="transparent" points="-4,4 -4,-393 1492.11,-393 1492.11,4 -4,4"/>
<!-- Node1 -->
<g id="node1" class="node">
<title>Node1</title>
<g id="a_node1"><a xlink:title=" ">
<polygon fill="#bfbfbf" stroke="black" points="839.11,-358.5 839.11,-388.5 985.11,-388.5 985.11,-358.5 839.11,-358.5"/>
<text text-anchor="start" x="847.11" y="-376.5" font-family="Helvetica,sans-Serif" font-size="10.00">include/emlabcpp/protocol</text>
<text text-anchor="middle" x="912.11" y="-365.5" font-family="Helvetica,sans-Serif" font-size="10.00">/traits.h</text>
</a>
</g>
</g>
<!-- Node2 -->
<g id="node2" class="node">
<title>Node2</title>
<g id="a_node2"><a xlink:href="decompose_8h.html" target="_top" xlink:title=" ">
<polygon fill="white" stroke="black" points="19.61,-168.5 19.61,-198.5 152.61,-198.5 152.61,-168.5 19.61,-168.5"/>
<text text-anchor="start" x="27.61" y="-186.5" font-family="Helvetica,sans-Serif" font-size="10.00">emlabcpp/experimental</text>
<text text-anchor="middle" x="86.11" y="-175.5" font-family="Helvetica,sans-Serif" font-size="10.00">/decompose.h</text>
</a>
</g>
</g>
<!-- Node1&#45;&gt;Node2 -->
<g id="edge1" class="edge">
<title>Node1&#45;&gt;Node2</title>
<path fill="none" stroke="midnightblue" d="M838.79,-373.19C715.18,-372.97 458.03,-366.54 246.11,-322 172.79,-306.59 130.77,-326.88 87.11,-266 75.36,-249.62 76.37,-226.24 79.59,-208.72"/>
<polygon fill="midnightblue" stroke="midnightblue" points="83.06,-209.19 81.78,-198.68 76.23,-207.7 83.06,-209.19"/>
</g>
<!-- Node13 -->
<g id="node4" class="node">
<title>Node13</title>
<g id="a_node4"><a xlink:title=" ">
<polygon fill="white" stroke="#bfbfbf" points="987.61,-0.5 987.61,-19.5 1038.61,-19.5 1038.61,-0.5 987.61,-0.5"/>
<text text-anchor="middle" x="1013.11" y="-7.5" font-family="Helvetica,sans-Serif" font-size="10.00">variant</text>
</a>
</g>
</g>
<!-- Node1&#45;&gt;Node13 -->
<g id="edge55" class="edge">
<title>Node1&#45;&gt;Node13</title>
<path fill="none" stroke="midnightblue" d="M985.35,-372.29C1140.49,-369.87 1488.11,-353.11 1488.11,-251.5 1488.11,-251.5 1488.11,-251.5 1488.11,-121 1488.11,-30.89 1159.55,-14.58 1048.95,-11.64"/>
<polygon fill="midnightblue" stroke="midnightblue" points="1048.73,-8.13 1038.64,-11.39 1048.56,-15.13 1048.73,-8.13"/>
</g>
<!-- Node14 -->
<g id="node6" class="node">
<title>Node14</title>
<g id="a_node6"><a xlink:href="protocol_2base_8h.html" target="_top" xlink:title=" ">
<polygon fill="white" stroke="black" points="1224.61,-302.5 1224.61,-321.5 1367.61,-321.5 1367.61,-302.5 1224.61,-302.5"/>
<text text-anchor="middle" x="1296.11" y="-309.5" font-family="Helvetica,sans-Serif" font-size="10.00">emlabcpp/protocol/base.h</text>
</a>
</g>
</g>
<!-- Node1&#45;&gt;Node14 -->
<g id="edge5" class="edge">
<title>Node1&#45;&gt;Node14</title>
<path fill="none" stroke="midnightblue" d="M985.24,-361.17C1056.13,-350.18 1162.66,-333.68 1230.78,-323.12"/>
<polygon fill="midnightblue" stroke="midnightblue" points="1231.61,-326.54 1240.96,-321.55 1230.54,-319.62 1231.61,-326.54"/>
</g>
<!-- Node18 -->
<g id="node9" class="node">
<title>Node18</title>
<g id="a_node9"><a xlink:title=" ">
<polygon fill="white" stroke="#bfbfbf" points="461.11,-174 461.11,-193 517.11,-193 517.11,-174 461.11,-174"/>
<text text-anchor="middle" x="489.11" y="-181" font-family="Helvetica,sans-Serif" font-size="10.00">optional</text>
</a>
</g>
</g>
<!-- Node1&#45;&gt;Node18 -->
<g id="edge54" class="edge">
<title>Node1&#45;&gt;Node18</title>
<path fill="none" stroke="midnightblue" d="M838.92,-370.58C753.96,-364.63 614.15,-342.8 525.11,-266 506.2,-249.69 496.82,-221.55 492.47,-202.98"/>
<polygon fill="midnightblue" stroke="midnightblue" points="495.88,-202.16 490.42,-193.08 489.03,-203.58 495.88,-202.16"/>
</g>
<!-- Node19 -->
<g id="node11" class="node">
<title>Node19</title>
<g id="a_node11"><a xlink:href="protocol_2error_8h.html" target="_top" xlink:title=" ">
<polygon fill="white" stroke="red" points="1026.11,-241 1026.11,-260 1168.11,-260 1168.11,-241 1026.11,-241"/>
<text text-anchor="middle" x="1097.11" y="-248" font-family="Helvetica,sans-Serif" font-size="10.00">emlabcpp/protocol/error.h</text>
</a>
</g>
</g>
<!-- Node1&#45;&gt;Node19 -->
<g id="edge18" class="edge">
<title>Node1&#45;&gt;Node19</title>
<path fill="none" stroke="midnightblue" d="M933.69,-358.38C969.21,-335.15 1039.61,-289.11 1075.29,-265.77"/>
<polygon fill="midnightblue" stroke="midnightblue" points="1077.52,-268.5 1083.97,-260.09 1073.68,-262.64 1077.52,-268.5"/>
</g>
<!-- Node24 -->
<g id="node16" class="node">
<title>Node24</title>
<g id="a_node16"><a xlink:href="message_8h.html" target="_top" xlink:title=" ">
<polygon fill="white" stroke="black" points="534.11,-241 534.11,-260 698.11,-260 698.11,-241 534.11,-241"/>
<text text-anchor="middle" x="616.11" y="-248" font-family="Helvetica,sans-Serif" font-size="10.00">emlabcpp/protocol/message.h</text>
</a>
</g>
</g>
<!-- Node1&#45;&gt;Node24 -->
<g id="edge19" class="edge">
<title>Node1&#45;&gt;Node24</title>
<path fill="none" stroke="midnightblue" d="M877.57,-358.38C819.16,-334.51 701.83,-286.54 646.41,-263.89"/>
<polygon fill="midnightblue" stroke="midnightblue" points="647.71,-260.64 637.12,-260.09 645.06,-267.12 647.71,-260.64"/>
</g>
<!-- Node26 -->
<g id="node18" class="node">
<title>Node26</title>
<g id="a_node18"><a xlink:href="types_8h.html" target="_top" xlink:title=" ">
<polygon fill="white" stroke="red" points="641.11,-112.5 641.11,-131.5 745.11,-131.5 745.11,-112.5 641.11,-112.5"/>
<text text-anchor="middle" x="693.11" y="-119.5" font-family="Helvetica,sans-Serif" font-size="10.00">emlabcpp/types.h</text>
</a>
</g>
</g>
<!-- Node1&#45;&gt;Node26 -->
<g id="edge53" class="edge">
<title>Node1&#45;&gt;Node26</title>
<path fill="none" stroke="midnightblue" d="M962.94,-358.43C1018.41,-341.67 1108.46,-310.28 1177.11,-266 1222.09,-236.99 1283.39,-207.35 1247.11,-168 1214.35,-132.48 893.76,-124.99 755.76,-123.42"/>
<polygon fill="midnightblue" stroke="midnightblue" points="755.39,-119.92 745.35,-123.31 755.31,-126.91 755.39,-119.92"/>
</g>
<!-- Node29 -->
<g id="node21" class="node">
<title>Node29</title>
<g id="a_node21"><a xlink:href="quantity_8h.html" target="_top" xlink:title=" ">
<polygon fill="white" stroke="black" points="854.11,-241 854.11,-260 970.11,-260 970.11,-241 854.11,-241"/>
<text text-anchor="middle" x="912.11" y="-248" font-family="Helvetica,sans-Serif" font-size="10.00">emlabcpp/quantity.h</text>
</a>
</g>
</g>
<!-- Node1&#45;&gt;Node29 -->
<g id="edge29" class="edge">
<title>Node1&#45;&gt;Node29</title>
<path fill="none" stroke="midnightblue" d="M912.11,-358.14C912.11,-336.2 912.11,-294.33 912.11,-270.09"/>
<polygon fill="midnightblue" stroke="midnightblue" points="915.61,-270.05 912.11,-260.05 908.61,-270.05 915.61,-270.05"/>
</g>
<!-- Node34 -->
<g id="node26" class="node">
<title>Node34</title>
<g id="a_node26"><a xlink:href="static__vector_8h.html" target="_top" xlink:title=" ">
<polygon fill="white" stroke="black" points="255.61,-302.5 255.61,-321.5 394.61,-321.5 394.61,-302.5 255.61,-302.5"/>
<text text-anchor="middle" x="325.11" y="-309.5" font-family="Helvetica,sans-Serif" font-size="10.00">emlabcpp/static_vector.h</text>
</a>
</g>
</g>
<!-- Node1&#45;&gt;Node34 -->
<g id="edge37" class="edge">
<title>Node1&#45;&gt;Node34</title>
<path fill="none" stroke="midnightblue" d="M838.95,-365.08C728.27,-353.87 519.07,-332.66 404.7,-321.07"/>
<polygon fill="midnightblue" stroke="midnightblue" points="404.91,-317.57 394.61,-320.05 404.21,-324.54 404.91,-317.57"/>
</g>
<!-- Node3 -->
<g id="node3" class="node">
<title>Node3</title>
<g id="a_node3"><a xlink:href="concepts_8h.html" target="_top" xlink:title=" ">
<polygon fill="white" stroke="red" points="509.11,-56.5 509.11,-75.5 629.11,-75.5 629.11,-56.5 509.11,-56.5"/>
<text text-anchor="middle" x="569.11" y="-63.5" font-family="Helvetica,sans-Serif" font-size="10.00">emlabcpp/concepts.h</text>
</a>
</g>
</g>
<!-- Node2&#45;&gt;Node3 -->
<g id="edge2" class="edge">
<title>Node2&#45;&gt;Node3</title>
<path fill="none" stroke="midnightblue" d="M90.82,-168.36C97.14,-151.79 110.09,-124.96 131.11,-112 190.99,-75.08 391.19,-67.99 498.97,-66.92"/>
<polygon fill="midnightblue" stroke="midnightblue" points="499.13,-70.42 509.1,-66.83 499.08,-63.42 499.13,-70.42"/>
</g>
<!-- Node8 -->
<g id="node5" class="node">
<title>Node8</title>
<g id="a_node5"><a xlink:title=" ">
<polygon fill="white" stroke="#bfbfbf" points="140.61,-112.5 140.61,-131.5 181.61,-131.5 181.61,-112.5 140.61,-112.5"/>
<text text-anchor="middle" x="161.11" y="-119.5" font-family="Helvetica,sans-Serif" font-size="10.00">tuple</text>
</a>
</g>
</g>
<!-- Node2&#45;&gt;Node8 -->
<g id="edge4" class="edge">
<title>Node2&#45;&gt;Node8</title>
<path fill="none" stroke="midnightblue" d="M103.88,-168.4C115.45,-159.22 130.53,-147.26 142.3,-137.92"/>
<polygon fill="midnightblue" stroke="midnightblue" points="144.53,-140.61 150.19,-131.66 140.18,-135.13 144.53,-140.61"/>
</g>
<!-- Node3&#45;&gt;Node13 -->
<g id="edge3" class="edge">
<title>Node3&#45;&gt;Node13</title>
<path fill="none" stroke="midnightblue" d="M629.45,-57.66C723.2,-46.26 900.96,-24.64 977.06,-15.38"/>
<polygon fill="midnightblue" stroke="midnightblue" points="977.6,-18.84 987.11,-14.16 976.76,-11.89 977.6,-18.84"/>
</g>
<!-- Node14&#45;&gt;Node13 -->
<g id="edge17" class="edge">
<title>Node14&#45;&gt;Node13</title>
<path fill="none" stroke="midnightblue" d="M1363.72,-302.42C1388.03,-296.08 1413.72,-285.08 1431.11,-266 1456.16,-238.51 1450.11,-221.69 1450.11,-184.5 1450.11,-184.5 1450.11,-184.5 1450.11,-121 1450.11,-38.46 1153.23,-17.26 1048.86,-12.35"/>
<polygon fill="midnightblue" stroke="midnightblue" points="1048.96,-8.85 1038.81,-11.9 1048.64,-15.84 1048.96,-8.85"/>
</g>
<!-- Node15 -->
<g id="node7" class="node">
<title>Node15</title>
<g id="a_node7"><a xlink:href="bounded_8h.html" target="_top" xlink:title=" ">
<polygon fill="white" stroke="black" points="716.61,-241 716.61,-260 835.61,-260 835.61,-241 716.61,-241"/>
<text text-anchor="middle" x="776.11" y="-248" font-family="Helvetica,sans-Serif" font-size="10.00">emlabcpp/bounded.h</text>
</a>
</g>
</g>
<!-- Node14&#45;&gt;Node15 -->
<g id="edge6" class="edge">
<title>Node14&#45;&gt;Node15</title>
<path fill="none" stroke="midnightblue" d="M1224.33,-306.23C1135.1,-299.76 978.28,-286.58 845.11,-266 837.95,-264.89 830.42,-263.53 823.07,-262.08"/>
<polygon fill="midnightblue" stroke="midnightblue" points="823.71,-258.63 813.21,-260.06 822.31,-265.49 823.71,-258.63"/>
</g>
<!-- Node9 -->
<g id="node10" class="node">
<title>Node9</title>
<g id="a_node10"><a xlink:title=" ">
<polygon fill="white" stroke="#bfbfbf" points="1168.61,-174 1168.61,-193 1237.61,-193 1237.61,-174 1168.61,-174"/>
<text text-anchor="middle" x="1203.11" y="-181" font-family="Helvetica,sans-Serif" font-size="10.00">type_traits</text>
</a>
</g>
</g>
<!-- Node14&#45;&gt;Node9 -->
<g id="edge16" class="edge">
<title>Node14&#45;&gt;Node9</title>
<path fill="none" stroke="midnightblue" d="M1287.21,-302.48C1278.32,-293.75 1264.52,-279.56 1254.11,-266 1238.13,-245.2 1222.55,-219.22 1212.9,-202.26"/>
<polygon fill="midnightblue" stroke="midnightblue" points="1215.89,-200.44 1207.94,-193.43 1209.78,-203.86 1215.89,-200.44"/>
</g>
<!-- Node14&#45;&gt;Node19 -->
<g id="edge11" class="edge">
<title>Node14&#45;&gt;Node19</title>
<path fill="none" stroke="midnightblue" d="M1267.59,-302.48C1232.87,-292.09 1174.07,-274.51 1135.41,-262.95"/>
<polygon fill="midnightblue" stroke="midnightblue" points="1136.15,-259.52 1125.56,-260.01 1134.14,-266.23 1136.15,-259.52"/>
</g>
<!-- Node21 -->
<g id="node13" class="node">
<title>Node21</title>
<g id="a_node13"><a xlink:title=" ">
<polygon fill="white" stroke="#bfbfbf" points="1262.61,-241 1262.61,-260 1291.61,-260 1291.61,-241 1262.61,-241"/>
<text text-anchor="middle" x="1277.11" y="-248" font-family="Helvetica,sans-Serif" font-size="10.00">bit</text>
</a>
</g>
</g>
<!-- Node14&#45;&gt;Node21 -->
<g id="edge13" class="edge">
<title>Node14&#45;&gt;Node21</title>
<path fill="none" stroke="midnightblue" d="M1293.38,-302.48C1290.67,-293.99 1286.43,-280.7 1282.96,-269.82"/>
<polygon fill="midnightblue" stroke="midnightblue" points="1286.2,-268.47 1279.82,-260.01 1279.53,-270.6 1286.2,-268.47"/>
</g>
<!-- Node22 -->
<g id="node14" class="node">
<title>Node22</title>
<g id="a_node14"><a xlink:title=" ">
<polygon fill="white" stroke="#bfbfbf" points="1310.11,-241 1310.11,-260 1354.11,-260 1354.11,-241 1310.11,-241"/>
<text text-anchor="middle" x="1332.11" y="-248" font-family="Helvetica,sans-Serif" font-size="10.00">bitset</text>
</a>
</g>
</g>
<!-- Node14&#45;&gt;Node22 -->
<g id="edge14" class="edge">
<title>Node14&#45;&gt;Node22</title>
<path fill="none" stroke="midnightblue" d="M1301.26,-302.48C1306.56,-293.73 1314.94,-279.87 1321.63,-268.81"/>
<polygon fill="midnightblue" stroke="midnightblue" points="1324.78,-270.38 1326.96,-260.01 1318.79,-266.75 1324.78,-270.38"/>
</g>
<!-- Node23 -->
<g id="node15" class="node">
<title>Node23</title>
<g id="a_node15"><a xlink:title=" ">
<polygon fill="white" stroke="#bfbfbf" points="1372.11,-241 1372.11,-260 1422.11,-260 1422.11,-241 1372.11,-241"/>
<text text-anchor="middle" x="1397.11" y="-248" font-family="Helvetica,sans-Serif" font-size="10.00">cstring</text>
</a>
</g>
</g>
<!-- Node14&#45;&gt;Node23 -->
<g id="edge15" class="edge">
<title>Node14&#45;&gt;Node23</title>
<path fill="none" stroke="midnightblue" d="M1310.58,-302.48C1327.08,-292.75 1354.28,-276.73 1373.79,-265.24"/>
<polygon fill="midnightblue" stroke="midnightblue" points="1375.82,-268.1 1382.66,-260.01 1372.27,-262.07 1375.82,-268.1"/>
</g>
<!-- Node15&#45;&gt;Node3 -->
<g id="edge7" class="edge">
<title>Node15&#45;&gt;Node3</title>
<path fill="none" stroke="midnightblue" d="M771.69,-240.7C763.07,-224.33 742.54,-188.96 716.11,-168 684.28,-142.76 665.56,-155.03 632.11,-132 612.38,-118.42 593.82,-97.98 582.02,-83.65"/>
<polygon fill="midnightblue" stroke="midnightblue" points="584.59,-81.26 575.6,-75.64 579.12,-85.63 584.59,-81.26"/>
</g>
<!-- Node16 -->
<g id="node8" class="node">
<title>Node16</title>
<g id="a_node8"><a xlink:href="logging_8h.html" target="_top" xlink:title=" ">
<polygon fill="white" stroke="red" points="573.61,-168.5 573.61,-198.5 706.61,-198.5 706.61,-168.5 573.61,-168.5"/>
<text text-anchor="start" x="581.61" y="-186.5" font-family="Helvetica,sans-Serif" font-size="10.00">emlabcpp/experimental</text>
<text text-anchor="middle" x="640.11" y="-175.5" font-family="Helvetica,sans-Serif" font-size="10.00">/logging.h</text>
</a>
</g>
</g>
<!-- Node15&#45;&gt;Node16 -->
<g id="edge8" class="edge">
<title>Node15&#45;&gt;Node16</title>
<path fill="none" stroke="midnightblue" d="M758.05,-240.87C737.9,-231.24 704.73,-215.39 678.69,-202.94"/>
<polygon fill="midnightblue" stroke="midnightblue" points="679.99,-199.68 669.46,-198.53 676.97,-206 679.99,-199.68"/>
</g>
<!-- Node15&#45;&gt;Node18 -->
<g id="edge9" class="edge">
<title>Node15&#45;&gt;Node18</title>
<path fill="none" stroke="midnightblue" d="M738.29,-240.94C683.52,-228.53 582.67,-205.69 527.55,-193.21"/>
<polygon fill="midnightblue" stroke="midnightblue" points="528.01,-189.72 517.49,-190.93 526.47,-196.55 528.01,-189.72"/>
</g>
<!-- Node15&#45;&gt;Node9 -->
<g id="edge10" class="edge">
<title>Node15&#45;&gt;Node9</title>
<path fill="none" stroke="midnightblue" d="M813.97,-240.99C824.06,-238.88 834.97,-236.72 845.11,-235 967.06,-214.26 998.83,-217.78 1121.11,-199 1133.27,-197.13 1146.42,-194.9 1158.55,-192.76"/>
<polygon fill="midnightblue" stroke="midnightblue" points="1159.22,-196.19 1168.45,-190.99 1157.99,-189.3 1159.22,-196.19"/>
</g>
<!-- Node5 -->
<g id="node12" class="node">
<title>Node5</title>
<g id="a_node12"><a xlink:title=" ">
<polygon fill="white" stroke="#bfbfbf" points="801.11,-174 801.11,-193 843.11,-193 843.11,-174 801.11,-174"/>
<text text-anchor="middle" x="822.11" y="-181" font-family="Helvetica,sans-Serif" font-size="10.00">array</text>
</a>
</g>
</g>
<!-- Node19&#45;&gt;Node5 -->
<g id="edge12" class="edge">
<title>Node19&#45;&gt;Node5</title>
<path fill="none" stroke="midnightblue" d="M1036.41,-240.98C986.41,-233 914.07,-219.26 853.11,-199 851.44,-198.45 849.74,-197.83 848.05,-197.16"/>
<polygon fill="midnightblue" stroke="midnightblue" points="849.11,-193.81 838.55,-193.06 846.34,-200.24 849.11,-193.81"/>
</g>
<!-- Node24&#45;&gt;Node3 -->
<g id="edge20" class="edge">
<title>Node24&#45;&gt;Node3</title>
<path fill="none" stroke="midnightblue" d="M602,-240.68C589.39,-231.88 571.75,-217.08 564.11,-199 548.16,-161.3 556.88,-112 563.63,-85.6"/>
<polygon fill="midnightblue" stroke="midnightblue" points="567.05,-86.36 566.32,-75.79 560.3,-84.51 567.05,-86.36"/>
</g>
<!-- Node24&#45;&gt;Node16 -->
<g id="edge21" class="edge">
<title>Node24&#45;&gt;Node16</title>
<path fill="none" stroke="midnightblue" d="M619.34,-240.73C622.43,-232.37 627.22,-219.4 631.42,-208.02"/>
<polygon fill="midnightblue" stroke="midnightblue" points="634.72,-209.18 634.9,-198.59 628.16,-206.76 634.72,-209.18"/>
</g>
<!-- Node24&#45;&gt;Node18 -->
<g id="edge27" class="edge">
<title>Node24&#45;&gt;Node18</title>
<path fill="none" stroke="midnightblue" d="M599.24,-240.87C577.7,-229.84 540.21,-210.66 515.03,-197.77"/>
<polygon fill="midnightblue" stroke="midnightblue" points="516.54,-194.61 506.04,-193.17 513.35,-200.84 516.54,-194.61"/>
</g>
<!-- Node24&#45;&gt;Node5 -->
<g id="edge26" class="edge">
<title>Node24&#45;&gt;Node5</title>
<path fill="none" stroke="midnightblue" d="M643.46,-240.87C681.72,-228.8 751.01,-206.93 791.13,-194.28"/>
<polygon fill="midnightblue" stroke="midnightblue" points="792.42,-197.54 800.9,-191.19 790.31,-190.86 792.42,-197.54"/>
</g>
<!-- Node25 -->
<g id="node17" class="node">
<title>Node25</title>
<g id="a_node17"><a xlink:href="view_8h.html" target="_top" xlink:title=" ">
<polygon fill="white" stroke="black" points="285.61,-174 285.61,-193 384.61,-193 384.61,-174 285.61,-174"/>
<text text-anchor="middle" x="335.11" y="-181" font-family="Helvetica,sans-Serif" font-size="10.00">emlabcpp/view.h</text>
</a>
</g>
</g>
<!-- Node24&#45;&gt;Node25 -->
<g id="edge22" class="edge">
<title>Node24&#45;&gt;Node25</title>
<path fill="none" stroke="midnightblue" d="M577.56,-240.94C533.24,-231.06 458.34,-214.2 394.11,-199 389.35,-197.88 384.39,-196.68 379.44,-195.48"/>
<polygon fill="midnightblue" stroke="midnightblue" points="379.94,-192 369.4,-193.03 378.29,-198.8 379.94,-192"/>
</g>
<!-- Node28 -->
<g id="node20" class="node">
<title>Node28</title>
<g id="a_node20"><a xlink:title=" ">
<polygon fill="white" stroke="#bfbfbf" points="403.11,-174 403.11,-193 443.11,-193 443.11,-174 403.11,-174"/>
<text text-anchor="middle" x="423.11" y="-181" font-family="Helvetica,sans-Serif" font-size="10.00">span</text>
</a>
</g>
</g>
<!-- Node24&#45;&gt;Node28 -->
<g id="edge28" class="edge">
<title>Node24&#45;&gt;Node28</title>
<path fill="none" stroke="midnightblue" d="M582.57,-240.92C549.02,-231.93 496.21,-216.68 452.11,-199 450.9,-198.52 449.68,-198 448.45,-197.47"/>
<polygon fill="midnightblue" stroke="midnightblue" points="449.69,-194.18 439.15,-193.11 446.72,-200.52 449.69,-194.18"/>
</g>
<!-- Node25&#45;&gt;Node26 -->
<g id="edge23" class="edge">
<title>Node25&#45;&gt;Node26</title>
<path fill="none" stroke="midnightblue" d="M367.45,-173.99C376.07,-171.87 385.41,-169.72 394.11,-168 475.4,-151.93 570.14,-138.57 630.82,-130.68"/>
<polygon fill="midnightblue" stroke="midnightblue" points="631.53,-134.12 641,-129.37 630.64,-127.18 631.53,-134.12"/>
</g>
<!-- Node26&#45;&gt;Node3 -->
<g id="edge24" class="edge">
<title>Node26&#45;&gt;Node3</title>
<path fill="none" stroke="midnightblue" d="M673.46,-112.44C653.14,-103.6 621.2,-89.69 598.01,-79.59"/>
<polygon fill="midnightblue" stroke="midnightblue" points="599.23,-76.3 588.66,-75.52 596.43,-82.72 599.23,-76.3"/>
</g>
<!-- Node27 -->
<g id="node19" class="node">
<title>Node27</title>
<g id="a_node19"><a xlink:title=" ">
<polygon fill="white" stroke="#bfbfbf" points="894.11,-56.5 894.11,-75.5 938.11,-75.5 938.11,-56.5 894.11,-56.5"/>
<text text-anchor="middle" x="916.11" y="-63.5" font-family="Helvetica,sans-Serif" font-size="10.00">string</text>
</a>
</g>
</g>
<!-- Node26&#45;&gt;Node27 -->
<g id="edge25" class="edge">
<title>Node26&#45;&gt;Node27</title>
<path fill="none" stroke="midnightblue" d="M728.44,-112.44C771.24,-102.08 842.71,-84.77 884,-74.77"/>
<polygon fill="midnightblue" stroke="midnightblue" points="884.92,-78.15 893.81,-72.4 883.27,-71.35 884.92,-78.15"/>
</g>
<!-- Node29&#45;&gt;Node3 -->
<g id="edge30" class="edge">
<title>Node29&#45;&gt;Node3</title>
<path fill="none" stroke="midnightblue" d="M872.43,-240.93C846.73,-233.59 814.07,-220.67 792.11,-199 762.07,-169.37 786.41,-139.14 754.11,-112 722.41,-85.37 677.46,-74.03 639.8,-69.39"/>
<polygon fill="midnightblue" stroke="midnightblue" points="639.71,-65.85 629.39,-68.25 638.95,-72.81 639.71,-65.85"/>
</g>
<!-- Node29&#45;&gt;Node9 -->
<g id="edge36" class="edge">
<title>Node29&#45;&gt;Node9</title>
<path fill="none" stroke="midnightblue" d="M953.96,-240.96C1018,-227.87 1134.94,-203.83 1154.11,-199 1157.96,-198.03 1161.97,-196.95 1165.96,-195.84"/>
<polygon fill="midnightblue" stroke="midnightblue" points="1167.1,-199.15 1175.74,-193.03 1165.17,-192.43 1167.1,-199.15"/>
</g>
<!-- Node29&#45;&gt;Node27 -->
<g id="edge35" class="edge">
<title>Node29&#45;&gt;Node27</title>
<path fill="none" stroke="midnightblue" d="M948.7,-240.96C1008.27,-227.01 1119.75,-200.72 1121.11,-199 1173.53,-132.4 1018.55,-89.23 948.53,-73.58"/>
<polygon fill="midnightblue" stroke="midnightblue" points="948.97,-70.1 938.45,-71.39 947.48,-76.94 948.97,-70.1"/>
</g>
<!-- Node30 -->
<g id="node22" class="node">
<title>Node30</title>
<g id="a_node22"><a xlink:title=" ">
<polygon fill="white" stroke="#bfbfbf" points="861.61,-174 861.61,-193 908.61,-193 908.61,-174 861.61,-174"/>
<text text-anchor="middle" x="885.11" y="-181" font-family="Helvetica,sans-Serif" font-size="10.00">cmath</text>
</a>
</g>
</g>
<!-- Node29&#45;&gt;Node30 -->
<g id="edge31" class="edge">
<title>Node29&#45;&gt;Node30</title>
<path fill="none" stroke="midnightblue" d="M908.46,-240.73C904.42,-230.99 897.77,-214.98 892.6,-202.53"/>
<polygon fill="midnightblue" stroke="midnightblue" points="895.76,-201.02 888.69,-193.13 889.29,-203.7 895.76,-201.02"/>
</g>
<!-- Node31 -->
<g id="node23" class="node">
<title>Node31</title>
<g id="a_node23"><a xlink:title=" ">
<polygon fill="white" stroke="#bfbfbf" points="926.61,-174 926.61,-193 991.61,-193 991.61,-174 926.61,-174"/>
<text text-anchor="middle" x="959.11" y="-181" font-family="Helvetica,sans-Serif" font-size="10.00">functional</text>
</a>
</g>
</g>
<!-- Node29&#45;&gt;Node31 -->
<g id="edge32" class="edge">
<title>Node29&#45;&gt;Node31</title>
<path fill="none" stroke="midnightblue" d="M918.44,-240.73C925.7,-230.7 937.76,-214.01 946.87,-201.42"/>
<polygon fill="midnightblue" stroke="midnightblue" points="949.84,-203.28 952.87,-193.13 944.17,-199.18 949.84,-203.28"/>
</g>
<!-- Node32 -->
<g id="node24" class="node">
<title>Node32</title>
<g id="a_node24"><a xlink:title=" ">
<polygon fill="white" stroke="#bfbfbf" points="1010.11,-174 1010.11,-193 1054.11,-193 1054.11,-174 1010.11,-174"/>
<text text-anchor="middle" x="1032.11" y="-181" font-family="Helvetica,sans-Serif" font-size="10.00">limits</text>
</a>
</g>
</g>
<!-- Node29&#45;&gt;Node32 -->
<g id="edge33" class="edge">
<title>Node29&#45;&gt;Node32</title>
<path fill="none" stroke="midnightblue" d="M928.29,-240.73C948.53,-229.77 983.4,-210.88 1007.09,-198.05"/>
<polygon fill="midnightblue" stroke="midnightblue" points="1009.05,-200.97 1016.18,-193.13 1005.72,-194.81 1009.05,-200.97"/>
</g>
<!-- Node33 -->
<g id="node25" class="node">
<title>Node33</title>
<g id="a_node25"><a xlink:title=" ">
<polygon fill="white" stroke="#bfbfbf" points="1072.61,-174 1072.61,-193 1111.61,-193 1111.61,-174 1072.61,-174"/>
<text text-anchor="middle" x="1092.11" y="-181" font-family="Helvetica,sans-Serif" font-size="10.00">ratio</text>
</a>
</g>
</g>
<!-- Node29&#45;&gt;Node33 -->
<g id="edge34" class="edge">
<title>Node29&#45;&gt;Node33</title>
<path fill="none" stroke="midnightblue" d="M941.79,-240.93C972.57,-231.73 1021.87,-216.1 1063.11,-199 1064.31,-198.5 1065.52,-197.98 1066.75,-197.43"/>
<polygon fill="midnightblue" stroke="midnightblue" points="1068.49,-200.48 1076.04,-193.04 1065.5,-194.15 1068.49,-200.48"/>
</g>
<!-- Node34&#45;&gt;Node3 -->
<g id="edge38" class="edge">
<title>Node34&#45;&gt;Node3</title>
<path fill="none" stroke="midnightblue" d="M255.19,-306.48C146.24,-296.41 -46.04,-264.75 10.11,-168 58.55,-84.52 359.68,-69.65 498.79,-67.28"/>
<polygon fill="midnightblue" stroke="midnightblue" points="498.98,-70.78 508.93,-67.12 498.87,-63.78 498.98,-70.78"/>
</g>
<!-- Node34&#45;&gt;Node9 -->
<g id="edge51" class="edge">
<title>Node34&#45;&gt;Node9</title>
<path fill="none" stroke="midnightblue" d="M394.75,-311.5C540.82,-311.68 874.39,-307.4 979.11,-266 999.38,-257.99 997.68,-244.88 1017.11,-235 1073.22,-206.45 1093.47,-215.93 1154.11,-199 1157.69,-198 1161.42,-196.94 1165.14,-195.86"/>
<polygon fill="midnightblue" stroke="midnightblue" points="1166.29,-199.17 1174.91,-193.01 1164.33,-192.45 1166.29,-199.17"/>
</g>
<!-- Node35 -->
<g id="node27" class="node">
<title>Node35</title>
<g id="a_node27"><a xlink:href="pretty__printer_8h.html" target="_top" xlink:title=" ">
<polygon fill="white" stroke="red" points="96.61,-235.5 96.61,-265.5 229.61,-265.5 229.61,-235.5 96.61,-235.5"/>
<text text-anchor="start" x="104.61" y="-253.5" font-family="Helvetica,sans-Serif" font-size="10.00">emlabcpp/experimental</text>
<text text-anchor="middle" x="163.11" y="-242.5" font-family="Helvetica,sans-Serif" font-size="10.00">/pretty_printer.h</text>
</a>
</g>
</g>
<!-- Node34&#45;&gt;Node35 -->
<g id="edge39" class="edge">
<title>Node34&#45;&gt;Node35</title>
<path fill="none" stroke="midnightblue" d="M301.9,-302.48C278.21,-293.78 240.77,-280.03 210.75,-269"/>
<polygon fill="midnightblue" stroke="midnightblue" points="211.88,-265.69 201.29,-265.52 209.47,-272.26 211.88,-265.69"/>
</g>
<!-- Node41 -->
<g id="node28" class="node">
<title>Node41</title>
<g id="a_node28"><a xlink:href="iterator_8h.html" target="_top" xlink:title=" ">
<polygon fill="white" stroke="red" points="366.11,-241 366.11,-260 478.11,-260 478.11,-241 366.11,-241"/>
<text text-anchor="middle" x="422.11" y="-248" font-family="Helvetica,sans-Serif" font-size="10.00">emlabcpp/iterator.h</text>
</a>
</g>
</g>
<!-- Node34&#45;&gt;Node41 -->
<g id="edge48" class="edge">
<title>Node34&#45;&gt;Node41</title>
<path fill="none" stroke="midnightblue" d="M339,-302.48C354.78,-292.8 380.74,-276.87 399.46,-265.39"/>
<polygon fill="midnightblue" stroke="midnightblue" points="401.54,-268.22 408.23,-260.01 397.88,-262.25 401.54,-268.22"/>
</g>
<!-- Node42 -->
<g id="node29" class="node">
<title>Node42</title>
<g id="a_node29"><a xlink:title=" ">
<polygon fill="white" stroke="#bfbfbf" points="247.61,-241 247.61,-260 284.61,-260 284.61,-241 247.61,-241"/>
<text text-anchor="middle" x="266.11" y="-248" font-family="Helvetica,sans-Serif" font-size="10.00">new</text>
</a>
</g>
</g>
<!-- Node34&#45;&gt;Node42 -->
<g id="edge50" class="edge">
<title>Node34&#45;&gt;Node42</title>
<path fill="none" stroke="midnightblue" d="M316.65,-302.48C307.54,-293.28 292.84,-278.46 281.63,-267.16"/>
<polygon fill="midnightblue" stroke="midnightblue" points="284.07,-264.65 274.54,-260.01 279.1,-269.57 284.07,-264.65"/>
</g>
<!-- Node43 -->
<g id="node30" class="node">
<title>Node43</title>
<g id="a_node30"><a xlink:title=" ">
<polygon fill="white" stroke="#bfbfbf" points="302.61,-241 302.61,-260 347.61,-260 347.61,-241 302.61,-241"/>
<text text-anchor="middle" x="325.11" y="-248" font-family="Helvetica,sans-Serif" font-size="10.00">utility</text>
</a>
</g>
</g>
<!-- Node34&#45;&gt;Node43 -->
<g id="edge52" class="edge">
<title>Node34&#45;&gt;Node43</title>
<path fill="none" stroke="midnightblue" d="M325.11,-302.48C325.11,-294.08 325.11,-280.98 325.11,-270.16"/>
<polygon fill="midnightblue" stroke="midnightblue" points="328.61,-270.01 325.11,-260.01 321.61,-270.01 328.61,-270.01"/>
</g>
<!-- Node35&#45;&gt;Node2 -->
<g id="edge41" class="edge">
<title>Node35&#45;&gt;Node2</title>
<path fill="none" stroke="midnightblue" d="M146.4,-235.4C135.9,-226.54 122.19,-214.96 110.49,-205.09"/>
<polygon fill="midnightblue" stroke="midnightblue" points="112.68,-202.35 102.78,-198.58 108.16,-207.7 112.68,-202.35"/>
</g>
<!-- Node35&#45;&gt;Node3 -->
<g id="edge40" class="edge">
<title>Node35&#45;&gt;Node3</title>
<path fill="none" stroke="midnightblue" d="M171.68,-235.22C183.34,-216.99 205.9,-185.69 233.11,-168 315.36,-114.51 427.13,-88.35 498.7,-76.3"/>
<polygon fill="midnightblue" stroke="midnightblue" points="499.66,-79.69 508.97,-74.62 498.53,-72.78 499.66,-79.69"/>
</g>
<!-- Node35&#45;&gt;Node13 -->
<g id="edge47" class="edge">
<title>Node35&#45;&gt;Node13</title>
<path fill="none" stroke="midnightblue" d="M96.5,-239.67C45.39,-228.88 -12.86,-207.57 10.11,-168 35.29,-124.61 60.66,-128.28 108.11,-112 273.69,-55.19 830.04,-21.09 977.17,-12.92"/>
<polygon fill="midnightblue" stroke="midnightblue" points="977.64,-16.4 987.43,-12.35 977.25,-9.41 977.64,-16.4"/>
</g>
<!-- Node35&#45;&gt;Node8 -->
<g id="edge46" class="edge">
<title>Node35&#45;&gt;Node8</title>
<path fill="none" stroke="midnightblue" d="M162.88,-235.48C162.52,-212.72 161.81,-167.7 161.41,-142.06"/>
<polygon fill="midnightblue" stroke="midnightblue" points="164.9,-141.73 161.24,-131.79 157.9,-141.84 164.9,-141.73"/>
</g>
<!-- Node35&#45;&gt;Node18 -->
<g id="edge44" class="edge">
<title>Node35&#45;&gt;Node18</title>
<path fill="none" stroke="midnightblue" d="M229.75,-236.53C232.57,-236.01 235.37,-235.5 238.11,-235 333.02,-217.84 359.15,-224.73 452.11,-199 454.7,-198.28 457.36,-197.45 460,-196.55"/>
<polygon fill="midnightblue" stroke="midnightblue" points="461.21,-199.83 469.39,-193.1 458.8,-193.26 461.21,-199.83"/>
</g>
<!-- Node35&#45;&gt;Node25 -->
<g id="edge43" class="edge">
<title>Node35&#45;&gt;Node25</title>
<path fill="none" stroke="midnightblue" d="M200.43,-235.4C231.01,-223.84 273.83,-207.66 302.92,-196.66"/>
<polygon fill="midnightblue" stroke="midnightblue" points="304.48,-199.82 312.6,-193.01 302,-193.27 304.48,-199.82"/>
</g>
<!-- Node35&#45;&gt;Node26 -->
<g id="edge42" class="edge">
<title>Node35&#45;&gt;Node26</title>
<path fill="none" stroke="midnightblue" d="M182.75,-235.32C215.08,-211.99 275.94,-168.06 276.11,-168 339.31,-143.76 530.65,-131 630.68,-125.82"/>
<polygon fill="midnightblue" stroke="midnightblue" points="631.13,-129.3 640.94,-125.3 630.78,-122.31 631.13,-129.3"/>
</g>
<!-- Node35&#45;&gt;Node28 -->
<g id="edge45" class="edge">
<title>Node35&#45;&gt;Node28</title>
<path fill="none" stroke="midnightblue" d="M229.66,-236.69C286.42,-225.43 363.41,-209.28 393.11,-199 394.72,-198.44 396.36,-197.82 398.01,-197.15"/>
<polygon fill="midnightblue" stroke="midnightblue" points="399.51,-200.31 407.21,-193.04 396.65,-193.92 399.51,-200.31"/>
</g>
<!-- Node41&#45;&gt;Node25 -->
<g id="edge49" class="edge">
<title>Node41&#45;&gt;Node25</title>
<path fill="none" stroke="midnightblue" d="M410.37,-240.73C396.15,-230.11 371.98,-212.05 354.87,-199.26"/>
<polygon fill="midnightblue" stroke="midnightblue" points="356.76,-196.31 346.65,-193.13 352.57,-201.92 356.76,-196.31"/>
</g>
</g>
</svg>
