<?xml version="1.0" encoding="UTF-8" standalone="no"?>
<!DOCTYPE svg PUBLIC "-//W3C//DTD SVG 1.1//EN"
 "http://www.w3.org/Graphics/SVG/1.1/DTD/svg11.dtd">
<!-- Generated by graphviz version 2.43.0 (0)
 -->
<!-- Title: include/emlabcpp/protocol/traits.h Pages: 1 -->
<svg width="1293pt" height="330pt"
 viewBox="0.00 0.00 1293.36 330.00" xmlns="http://www.w3.org/2000/svg" xmlns:xlink="http://www.w3.org/1999/xlink">
<g id="graph0" class="graph" transform="scale(1 1) rotate(0) translate(4 326)">
<title>include/emlabcpp/protocol/traits.h</title>
<polygon fill="white" stroke="transparent" points="-4,4 -4,-326 1289.36,-326 1289.36,4 -4,4"/>
<!-- Node1 -->
<g id="node1" class="node">
<title>Node1</title>
<g id="a_node1"><a xlink:title=" ">
<polygon fill="#bfbfbf" stroke="black" points="670.36,-291.5 670.36,-321.5 816.36,-321.5 816.36,-291.5 670.36,-291.5"/>
<text text-anchor="start" x="678.36" y="-309.5" font-family="Helvetica,sans-Serif" font-size="10.00">include/emlabcpp/protocol</text>
<text text-anchor="middle" x="743.36" y="-298.5" font-family="Helvetica,sans-Serif" font-size="10.00">/traits.h</text>
</a>
</g>
</g>
<!-- Node2 -->
<g id="node2" class="node">
<title>Node2</title>
<g id="a_node2"><a xlink:href="decompose_8h.html" target="_top" xlink:title=" ">
<polygon fill="white" stroke="black" points="59.86,-224.5 59.86,-254.5 192.86,-254.5 192.86,-224.5 59.86,-224.5"/>
<text text-anchor="start" x="67.86" y="-242.5" font-family="Helvetica,sans-Serif" font-size="10.00">emlabcpp/experimental</text>
<text text-anchor="middle" x="126.36" y="-231.5" font-family="Helvetica,sans-Serif" font-size="10.00">/decompose.h</text>
</a>
</g>
</g>
<!-- Node1&#45;&gt;Node2 -->
<g id="edge1" class="edge">
<title>Node1&#45;&gt;Node2</title>
<path fill="none" stroke="midnightblue" d="M670.16,-297.79C552.6,-285.4 322.82,-261.2 203.07,-248.58"/>
<polygon fill="midnightblue" stroke="midnightblue" points="203.2,-245.08 192.89,-247.51 202.47,-252.04 203.2,-245.08"/>
</g>
<!-- Node13 -->
<g id="node4" class="node">
<title>Node13</title>
<g id="a_node4"><a xlink:title=" ">
<polygon fill="white" stroke="#bfbfbf" points="707.86,-0.5 707.86,-19.5 758.86,-19.5 758.86,-0.5 707.86,-0.5"/>
<text text-anchor="middle" x="733.36" y="-7.5" font-family="Helvetica,sans-Serif" font-size="10.00">variant</text>
</a>
</g>
</g>
<!-- Node1&#45;&gt;Node13 -->
<g id="edge38" class="edge">
<title>Node1&#45;&gt;Node13</title>
<path fill="none" stroke="midnightblue" d="M816.37,-300.72C947.04,-290.15 1207.36,-259.05 1207.36,-179 1207.36,-179 1207.36,-179 1207.36,-121 1207.36,-31.17 880.24,-14.68 769.5,-11.67"/>
<polygon fill="midnightblue" stroke="midnightblue" points="769.27,-8.16 759.18,-11.41 769.09,-15.16 769.27,-8.16"/>
</g>
<!-- Node14 -->
<g id="node6" class="node">
<title>Node14</title>
<g id="a_node6"><a xlink:href="protocol_2base_8h.html" target="_top" xlink:title=" ">
<polygon fill="white" stroke="black" points="318.86,-230 318.86,-249 461.86,-249 461.86,-230 318.86,-230"/>
<text text-anchor="middle" x="390.36" y="-237" font-family="Helvetica,sans-Serif" font-size="10.00">emlabcpp/protocol/base.h</text>
</a>
</g>
</g>
<!-- Node1&#45;&gt;Node14 -->
<g id="edge5" class="edge">
<title>Node1&#45;&gt;Node14</title>
<path fill="none" stroke="midnightblue" d="M670.22,-292.03C603.88,-279.82 507.47,-262.06 446.88,-250.91"/>
<polygon fill="midnightblue" stroke="midnightblue" points="447.2,-247.41 436.73,-249.04 445.93,-254.29 447.2,-247.41"/>
</g>
<!-- Node16 -->
<g id="node8" class="node">
<title>Node16</title>
<g id="a_node8"><a xlink:title=" ">
<polygon fill="white" stroke="#bfbfbf" points="116.36,-112.5 116.36,-131.5 172.36,-131.5 172.36,-112.5 116.36,-112.5"/>
<text text-anchor="middle" x="144.36" y="-119.5" font-family="Helvetica,sans-Serif" font-size="10.00">optional</text>
</a>
</g>
</g>
<!-- Node1&#45;&gt;Node16 -->
<g id="edge37" class="edge">
<title>Node1&#45;&gt;Node16</title>
<path fill="none" stroke="midnightblue" d="M670.19,-303.92C502.79,-299.78 102.32,-286.66 50.36,-255 13.86,-232.76 -15.63,-202.68 9.36,-168 31.23,-137.66 74.44,-127.47 106.11,-124.2"/>
<polygon fill="midnightblue" stroke="midnightblue" points="106.69,-127.67 116.36,-123.34 106.1,-120.69 106.69,-127.67"/>
</g>
<!-- Node17 -->
<g id="node10" class="node">
<title>Node17</title>
<g id="a_node10"><a xlink:href="protocol_2error_8h.html" target="_top" xlink:title=" ">
<polygon fill="white" stroke="red" points="507.36,-168.5 507.36,-187.5 649.36,-187.5 649.36,-168.5 507.36,-168.5"/>
<text text-anchor="middle" x="578.36" y="-175.5" font-family="Helvetica,sans-Serif" font-size="10.00">emlabcpp/protocol/error.h</text>
</a>
</g>
</g>
<!-- Node1&#45;&gt;Node17 -->
<g id="edge16" class="edge">
<title>Node1&#45;&gt;Node17</title>
<path fill="none" stroke="midnightblue" d="M669.99,-294.99C643.83,-287.76 616.2,-275.57 597.36,-255 583.18,-239.51 579.19,-215.07 578.26,-198.1"/>
<polygon fill="midnightblue" stroke="midnightblue" points="581.75,-197.66 578.02,-187.75 574.76,-197.83 581.75,-197.66"/>
</g>
<!-- Node24 -->
<g id="node14" class="node">
<title>Node24</title>
<g id="a_node14"><a xlink:href="message_8h.html" target="_top" xlink:title=" ">
<polygon fill="white" stroke="black" points="606.36,-230 606.36,-249 770.36,-249 770.36,-230 606.36,-230"/>
<text text-anchor="middle" x="688.36" y="-237" font-family="Helvetica,sans-Serif" font-size="10.00">emlabcpp/protocol/message.h</text>
</a>
</g>
</g>
<!-- Node1&#45;&gt;Node24 -->
<g id="edge17" class="edge">
<title>Node1&#45;&gt;Node24</title>
<path fill="none" stroke="midnightblue" d="M731.43,-291.4C722.85,-281.26 711.26,-267.57 702.27,-256.94"/>
<polygon fill="midnightblue" stroke="midnightblue" points="704.85,-254.57 695.72,-249.19 699.51,-259.09 704.85,-254.57"/>
</g>
<!-- Node26 -->
<g id="node16" class="node">
<title>Node26</title>
<g id="a_node16"><a xlink:href="types_8h.html" target="_top" xlink:title=" ">
<polygon fill="white" stroke="red" points="1033.36,-112.5 1033.36,-131.5 1137.36,-131.5 1137.36,-112.5 1033.36,-112.5"/>
<text text-anchor="middle" x="1085.36" y="-119.5" font-family="Helvetica,sans-Serif" font-size="10.00">emlabcpp/types.h</text>
</a>
</g>
</g>
<!-- Node1&#45;&gt;Node26 -->
<g id="edge35" class="edge">
<title>Node1&#45;&gt;Node26</title>
<path fill="none" stroke="midnightblue" d="M816.78,-295.92C924.03,-280.12 1114.69,-244.62 1150.36,-188 1163.37,-167.35 1137.64,-148.18 1114.81,-136.08"/>
<polygon fill="midnightblue" stroke="midnightblue" points="1116.16,-132.84 1105.65,-131.5 1113.03,-139.11 1116.16,-132.84"/>
</g>
<!-- Node29 -->
<g id="node18" class="node">
<title>Node29</title>
<g id="a_node18"><a xlink:href="quantity_8h.html" target="_top" xlink:title=" ">
<polygon fill="white" stroke="black" points="705.36,-168.5 705.36,-187.5 821.36,-187.5 821.36,-168.5 705.36,-168.5"/>
<text text-anchor="middle" x="763.36" y="-175.5" font-family="Helvetica,sans-Serif" font-size="10.00">emlabcpp/quantity.h</text>
</a>
</g>
</g>
<!-- Node1&#45;&gt;Node29 -->
<g id="edge23" class="edge">
<title>Node1&#45;&gt;Node29</title>
<path fill="none" stroke="midnightblue" d="M757.1,-291.39C765.31,-281.93 774.96,-268.74 779.36,-255 785.57,-235.59 778.87,-212.61 772.34,-197.04"/>
<polygon fill="midnightblue" stroke="midnightblue" points="775.36,-195.22 768.01,-187.58 768.99,-198.13 775.36,-195.22"/>
</g>
<!-- Node34 -->
<g id="node23" class="node">
<title>Node34</title>
<g id="a_node23"><a xlink:href="static__vector_8h.html" target="_top" xlink:title=" ">
<polygon fill="white" stroke="black" points="861.86,-230 861.86,-249 1000.86,-249 1000.86,-230 861.86,-230"/>
<text text-anchor="middle" x="931.36" y="-237" font-family="Helvetica,sans-Serif" font-size="10.00">emlabcpp/static_vector.h</text>
</a>
</g>
</g>
<!-- Node1&#45;&gt;Node34 -->
<g id="edge31" class="edge">
<title>Node1&#45;&gt;Node34</title>
<path fill="none" stroke="midnightblue" d="M784.15,-291.4C817.87,-279.74 865.21,-263.37 897.01,-252.38"/>
<polygon fill="midnightblue" stroke="midnightblue" points="898.45,-255.58 906.76,-249.01 896.16,-248.97 898.45,-255.58"/>
</g>
<!-- Node39 -->
<g id="node25" class="node">
<title>Node39</title>
<g id="a_node25"><a xlink:title=" ">
<polygon fill="white" stroke="#bfbfbf" points="1235.36,-230 1235.36,-249 1285.36,-249 1285.36,-230 1235.36,-230"/>
<text text-anchor="middle" x="1260.36" y="-237" font-family="Helvetica,sans-Serif" font-size="10.00">chrono</text>
</a>
</g>
</g>
<!-- Node1&#45;&gt;Node39 -->
<g id="edge36" class="edge">
<title>Node1&#45;&gt;Node39</title>
<path fill="none" stroke="midnightblue" d="M816.38,-303.46C910.96,-299.53 1080.41,-288.09 1221.36,-255 1224.43,-254.28 1227.58,-253.39 1230.7,-252.4"/>
<polygon fill="midnightblue" stroke="midnightblue" points="1232.13,-255.61 1240.42,-249.01 1229.82,-249 1232.13,-255.61"/>
</g>
<!-- Node3 -->
<g id="node3" class="node">
<title>Node3</title>
<g id="a_node3"><a xlink:href="concepts_8h.html" target="_top" xlink:title=" ">
<polygon fill="white" stroke="red" points="673.36,-56.5 673.36,-75.5 793.36,-75.5 793.36,-56.5 673.36,-56.5"/>
<text text-anchor="middle" x="733.36" y="-63.5" font-family="Helvetica,sans-Serif" font-size="10.00">emlabcpp/concepts.h</text>
</a>
</g>
</g>
<!-- Node2&#45;&gt;Node3 -->
<g id="edge2" class="edge">
<title>Node2&#45;&gt;Node3</title>
<path fill="none" stroke="midnightblue" d="M126.1,-224.45C126.6,-208.48 129.97,-182.72 145.36,-168 218.62,-97.94 523.57,-75.97 663.11,-69.51"/>
<polygon fill="midnightblue" stroke="midnightblue" points="663.43,-73 673.27,-69.05 663.12,-66 663.43,-73"/>
</g>
<!-- Node8 -->
<g id="node5" class="node">
<title>Node8</title>
<g id="a_node5"><a xlink:title=" ">
<polygon fill="white" stroke="#bfbfbf" points="18.86,-168.5 18.86,-187.5 59.86,-187.5 59.86,-168.5 18.86,-168.5"/>
<text text-anchor="middle" x="39.36" y="-175.5" font-family="Helvetica,sans-Serif" font-size="10.00">tuple</text>
</a>
</g>
</g>
<!-- Node2&#45;&gt;Node8 -->
<g id="edge4" class="edge">
<title>Node2&#45;&gt;Node8</title>
<path fill="none" stroke="midnightblue" d="M105.74,-224.4C92.06,-215.04 74.15,-202.79 60.38,-193.38"/>
<polygon fill="midnightblue" stroke="midnightblue" points="62.25,-190.41 52.02,-187.66 58.3,-196.19 62.25,-190.41"/>
</g>
<!-- Node3&#45;&gt;Node13 -->
<g id="edge3" class="edge">
<title>Node3&#45;&gt;Node13</title>
<path fill="none" stroke="midnightblue" d="M733.36,-56.08C733.36,-49.01 733.36,-38.86 733.36,-29.99"/>
<polygon fill="midnightblue" stroke="midnightblue" points="736.86,-29.75 733.36,-19.75 729.86,-29.75 736.86,-29.75"/>
</g>
<!-- Node14&#45;&gt;Node13 -->
<g id="edge15" class="edge">
<title>Node14&#45;&gt;Node13</title>
<path fill="none" stroke="midnightblue" d="M318.45,-231.75C215.09,-219.32 43.6,-186.88 107.36,-112 184.35,-21.59 576.16,-11.83 697.49,-11"/>
<polygon fill="midnightblue" stroke="midnightblue" points="697.74,-14.5 707.72,-10.95 697.71,-7.5 697.74,-14.5"/>
</g>
<!-- Node15 -->
<g id="node7" class="node">
<title>Node15</title>
<g id="a_node7"><a xlink:href="bounded_8h.html" target="_top" xlink:title=" ">
<polygon fill="white" stroke="black" points="284.86,-168.5 284.86,-187.5 403.86,-187.5 403.86,-168.5 284.86,-168.5"/>
<text text-anchor="middle" x="344.36" y="-175.5" font-family="Helvetica,sans-Serif" font-size="10.00">emlabcpp/bounded.h</text>
</a>
</g>
</g>
<!-- Node14&#45;&gt;Node15 -->
<g id="edge6" class="edge">
<title>Node14&#45;&gt;Node15</title>
<path fill="none" stroke="midnightblue" d="M383.77,-229.98C376.87,-221.05 365.86,-206.81 357.23,-195.64"/>
<polygon fill="midnightblue" stroke="midnightblue" points="359.83,-193.28 350.94,-187.51 354.29,-197.56 359.83,-193.28"/>
</g>
<!-- Node9 -->
<g id="node9" class="node">
<title>Node9</title>
<g id="a_node9"><a xlink:title=" ">
<polygon fill="white" stroke="#bfbfbf" points="444.86,-112.5 444.86,-131.5 513.86,-131.5 513.86,-112.5 444.86,-112.5"/>
<text text-anchor="middle" x="479.36" y="-119.5" font-family="Helvetica,sans-Serif" font-size="10.00">type_traits</text>
</a>
</g>
</g>
<!-- Node14&#45;&gt;Node9 -->
<g id="edge14" class="edge">
<title>Node14&#45;&gt;Node9</title>
<path fill="none" stroke="midnightblue" d="M407.88,-229.87C423.54,-221.3 446.02,-206.74 459.36,-188 469.1,-174.32 474.19,-155.79 476.79,-142.01"/>
<polygon fill="midnightblue" stroke="midnightblue" points="480.31,-142.19 478.44,-131.77 473.39,-141.08 480.31,-142.19"/>
</g>
<!-- Node14&#45;&gt;Node17 -->
<g id="edge10" class="edge">
<title>Node14&#45;&gt;Node17</title>
<path fill="none" stroke="midnightblue" d="M417.3,-229.98C449.96,-219.64 505.18,-202.16 541.7,-190.6"/>
<polygon fill="midnightblue" stroke="midnightblue" points="543,-193.86 551.48,-187.51 540.89,-187.19 543,-193.86"/>
</g>
<!-- Node22 -->
<g id="node11" class="node">
<title>Node22</title>
<g id="a_node11"><a xlink:title=" ">
<polygon fill="white" stroke="#bfbfbf" points="421.86,-168.5 421.86,-187.5 450.86,-187.5 450.86,-168.5 421.86,-168.5"/>
<text text-anchor="middle" x="436.36" y="-175.5" font-family="Helvetica,sans-Serif" font-size="10.00">bit</text>
</a>
</g>
</g>
<!-- Node14&#45;&gt;Node22 -->
<g id="edge11" class="edge">
<title>Node14&#45;&gt;Node22</title>
<path fill="none" stroke="midnightblue" d="M396.95,-229.98C403.85,-221.05 414.86,-206.81 423.49,-195.64"/>
<polygon fill="midnightblue" stroke="midnightblue" points="426.44,-197.56 429.78,-187.51 420.9,-193.28 426.44,-197.56"/>
</g>
<!-- Node23 -->
<g id="node12" class="node">
<title>Node23</title>
<g id="a_node12"><a xlink:title=" ">
<polygon fill="white" stroke="#bfbfbf" points="154.36,-168.5 154.36,-187.5 198.36,-187.5 198.36,-168.5 154.36,-168.5"/>
<text text-anchor="middle" x="176.36" y="-175.5" font-family="Helvetica,sans-Serif" font-size="10.00">bitset</text>
</a>
</g>
</g>
<!-- Node14&#45;&gt;Node23 -->
<g id="edge12" class="edge">
<title>Node14&#45;&gt;Node23</title>
<path fill="none" stroke="midnightblue" d="M358.92,-229.96C324.35,-220.54 266.94,-204.81 208.19,-188.21"/>
<polygon fill="midnightblue" stroke="midnightblue" points="208.94,-184.78 198.37,-185.43 207.03,-191.52 208.94,-184.78"/>
</g>
<!-- Node20 -->
<g id="node13" class="node">
<title>Node20</title>
<g id="a_node13"><a xlink:title=" ">
<polygon fill="white" stroke="#bfbfbf" points="216.36,-168.5 216.36,-187.5 266.36,-187.5 266.36,-168.5 216.36,-168.5"/>
<text text-anchor="middle" x="241.36" y="-175.5" font-family="Helvetica,sans-Serif" font-size="10.00">cstring</text>
</a>
</g>
</g>
<!-- Node14&#45;&gt;Node20 -->
<g id="edge13" class="edge">
<title>Node14&#45;&gt;Node20</title>
<path fill="none" stroke="midnightblue" d="M369.01,-229.98C343.68,-219.86 301.22,-202.9 272.29,-191.35"/>
<polygon fill="midnightblue" stroke="midnightblue" points="273.25,-187.97 262.67,-187.51 270.66,-194.47 273.25,-187.97"/>
</g>
<!-- Node15&#45;&gt;Node3 -->
<g id="edge7" class="edge">
<title>Node15&#45;&gt;Node3</title>
<path fill="none" stroke="midnightblue" d="M353.55,-168.12C369.02,-153.73 401.89,-125.56 435.36,-112 509.43,-81.98 601.2,-71.76 663.18,-68.41"/>
<polygon fill="midnightblue" stroke="midnightblue" points="663.43,-71.9 673.25,-67.91 663.09,-64.91 663.43,-71.9"/>
</g>
<!-- Node15&#45;&gt;Node16 -->
<g id="edge8" class="edge">
<title>Node15&#45;&gt;Node16</title>
<path fill="none" stroke="midnightblue" d="M312.67,-168.44C277.43,-158.93 220.52,-143.56 182.77,-133.37"/>
<polygon fill="midnightblue" stroke="midnightblue" points="183.24,-129.87 172.67,-130.64 181.41,-136.63 183.24,-129.87"/>
</g>
<!-- Node15&#45;&gt;Node9 -->
<g id="edge9" class="edge">
<title>Node15&#45;&gt;Node9</title>
<path fill="none" stroke="midnightblue" d="M365.75,-168.44C388.07,-159.52 423.26,-145.44 448.57,-135.32"/>
<polygon fill="midnightblue" stroke="midnightblue" points="450.09,-138.48 458.07,-131.52 447.49,-131.98 450.09,-138.48"/>
</g>
<!-- Node24&#45;&gt;Node3 -->
<g id="edge18" class="edge">
<title>Node24&#45;&gt;Node3</title>
<path fill="none" stroke="midnightblue" d="M684.77,-229.77C679.25,-216.4 668.27,-190.09 658.36,-168 651.12,-151.86 645.23,-149.27 641.36,-132 639.42,-123.33 636.66,-119.54 641.36,-112 651.12,-96.36 668.06,-86.01 684.76,-79.23"/>
<polygon fill="midnightblue" stroke="midnightblue" points="686.34,-82.38 694.52,-75.64 683.92,-75.81 686.34,-82.38"/>
</g>
<!-- Node25 -->
<g id="node15" class="node">
<title>Node25</title>
<g id="a_node15"><a xlink:href="view_8h.html" target="_top" xlink:title=" ">
<polygon fill="white" stroke="red" points="839.86,-168.5 839.86,-187.5 938.86,-187.5 938.86,-168.5 839.86,-168.5"/>
<text text-anchor="middle" x="889.36" y="-175.5" font-family="Helvetica,sans-Serif" font-size="10.00">emlabcpp/view.h</text>
</a>
</g>
</g>
<!-- Node24&#45;&gt;Node25 -->
<g id="edge19" class="edge">
<title>Node24&#45;&gt;Node25</title>
<path fill="none" stroke="midnightblue" d="M717.16,-229.98C752.24,-219.59 811.62,-202.01 850.67,-190.45"/>
<polygon fill="midnightblue" stroke="midnightblue" points="852.02,-193.7 860.62,-187.51 850.03,-186.99 852.02,-193.7"/>
</g>
<!-- Node25&#45;&gt;Node26 -->
<g id="edge20" class="edge">
<title>Node25&#45;&gt;Node26</title>
<path fill="none" stroke="midnightblue" d="M920.42,-168.44C953.96,-159.2 1007.56,-144.44 1044.5,-134.26"/>
<polygon fill="midnightblue" stroke="midnightblue" points="1045.74,-137.55 1054.45,-131.52 1043.88,-130.8 1045.74,-137.55"/>
</g>
<!-- Node26&#45;&gt;Node3 -->
<g id="edge21" class="edge">
<title>Node26&#45;&gt;Node3</title>
<path fill="none" stroke="midnightblue" d="M1033.04,-112.97C970.74,-103.42 866.63,-87.45 798.99,-77.07"/>
<polygon fill="midnightblue" stroke="midnightblue" points="799.29,-73.57 788.87,-75.52 798.23,-80.49 799.29,-73.57"/>
</g>
<!-- Node27 -->
<g id="node17" class="node">
<title>Node27</title>
<g id="a_node17"><a xlink:title=" ">
<polygon fill="white" stroke="#bfbfbf" points="1023.36,-56.5 1023.36,-75.5 1067.36,-75.5 1067.36,-56.5 1023.36,-56.5"/>
<text text-anchor="middle" x="1045.36" y="-63.5" font-family="Helvetica,sans-Serif" font-size="10.00">string</text>
</a>
</g>
</g>
<!-- Node26&#45;&gt;Node27 -->
<g id="edge22" class="edge">
<title>Node26&#45;&gt;Node27</title>
<path fill="none" stroke="midnightblue" d="M1078.76,-112.08C1073.11,-104.46 1064.82,-93.26 1057.91,-83.94"/>
<polygon fill="midnightblue" stroke="midnightblue" points="1060.61,-81.7 1051.84,-75.75 1054.98,-85.87 1060.61,-81.7"/>
</g>
<!-- Node29&#45;&gt;Node3 -->
<g id="edge24" class="edge">
<title>Node29&#45;&gt;Node3</title>
<path fill="none" stroke="midnightblue" d="M783.08,-168.4C806.56,-156.87 840.89,-135.17 826.36,-112 816.48,-96.25 799.36,-85.87 782.47,-79.11"/>
<polygon fill="midnightblue" stroke="midnightblue" points="783.21,-75.65 772.62,-75.52 780.82,-82.23 783.21,-75.65"/>
</g>
<!-- Node29&#45;&gt;Node9 -->
<g id="edge30" class="edge">
<title>Node29&#45;&gt;Node9</title>
<path fill="none" stroke="midnightblue" d="M718.36,-168.44C665.13,-158.32 577.08,-141.58 524,-131.49"/>
<polygon fill="midnightblue" stroke="midnightblue" points="524.36,-127.99 513.88,-129.56 523.05,-134.87 524.36,-127.99"/>
</g>
<!-- Node29&#45;&gt;Node27 -->
<g id="edge29" class="edge">
<title>Node29&#45;&gt;Node27</title>
<path fill="none" stroke="midnightblue" d="M820.49,-168.46C857.94,-161.59 907.36,-150.04 948.36,-132 978.16,-118.89 1008.74,-96.65 1027.39,-81.9"/>
<polygon fill="midnightblue" stroke="midnightblue" points="1029.72,-84.52 1035.31,-75.52 1025.33,-79.07 1029.72,-84.52"/>
</g>
<!-- Node30 -->
<g id="node19" class="node">
<title>Node30</title>
<g id="a_node19"><a xlink:title=" ">
<polygon fill="white" stroke="#bfbfbf" points="769.86,-112.5 769.86,-131.5 816.86,-131.5 816.86,-112.5 769.86,-112.5"/>
<text text-anchor="middle" x="793.36" y="-119.5" font-family="Helvetica,sans-Serif" font-size="10.00">cmath</text>
</a>
</g>
</g>
<!-- Node29&#45;&gt;Node30 -->
<g id="edge25" class="edge">
<title>Node29&#45;&gt;Node30</title>
<path fill="none" stroke="midnightblue" d="M768.32,-168.08C772.47,-160.61 778.51,-149.72 783.63,-140.52"/>
<polygon fill="midnightblue" stroke="midnightblue" points="786.7,-142.19 788.5,-131.75 780.58,-138.79 786.7,-142.19"/>
</g>
<!-- Node31 -->
<g id="node20" class="node">
<title>Node31</title>
<g id="a_node20"><a xlink:title=" ">
<polygon fill="white" stroke="#bfbfbf" points="873.86,-112.5 873.86,-131.5 938.86,-131.5 938.86,-112.5 873.86,-112.5"/>
<text text-anchor="middle" x="906.36" y="-119.5" font-family="Helvetica,sans-Serif" font-size="10.00">functional</text>
</a>
</g>
</g>
<!-- Node29&#45;&gt;Node31 -->
<g id="edge26" class="edge">
<title>Node29&#45;&gt;Node31</title>
<path fill="none" stroke="midnightblue" d="M786.02,-168.44C809.76,-159.48 847.27,-145.31 874.1,-135.18"/>
<polygon fill="midnightblue" stroke="midnightblue" points="875.69,-138.32 883.81,-131.52 873.22,-131.77 875.69,-138.32"/>
</g>
<!-- Node32 -->
<g id="node21" class="node">
<title>Node32</title>
<g id="a_node21"><a xlink:title=" ">
<polygon fill="white" stroke="#bfbfbf" points="650.36,-112.5 650.36,-131.5 694.36,-131.5 694.36,-112.5 650.36,-112.5"/>
<text text-anchor="middle" x="672.36" y="-119.5" font-family="Helvetica,sans-Serif" font-size="10.00">limits</text>
</a>
</g>
</g>
<!-- Node29&#45;&gt;Node32 -->
<g id="edge27" class="edge">
<title>Node29&#45;&gt;Node32</title>
<path fill="none" stroke="midnightblue" d="M748.74,-168.32C734.41,-159.82 712.35,-146.73 695.61,-136.8"/>
<polygon fill="midnightblue" stroke="midnightblue" points="697.33,-133.75 686.95,-131.65 693.76,-139.77 697.33,-133.75"/>
</g>
<!-- Node33 -->
<g id="node22" class="node">
<title>Node33</title>
<g id="a_node22"><a xlink:title=" ">
<polygon fill="white" stroke="#bfbfbf" points="712.86,-112.5 712.86,-131.5 751.86,-131.5 751.86,-112.5 712.86,-112.5"/>
<text text-anchor="middle" x="732.36" y="-119.5" font-family="Helvetica,sans-Serif" font-size="10.00">ratio</text>
</a>
</g>
</g>
<!-- Node29&#45;&gt;Node33 -->
<g id="edge28" class="edge">
<title>Node29&#45;&gt;Node33</title>
<path fill="none" stroke="midnightblue" d="M758.24,-168.08C753.95,-160.61 747.7,-149.72 742.42,-140.52"/>
<polygon fill="midnightblue" stroke="midnightblue" points="745.4,-138.68 737.38,-131.75 739.33,-142.17 745.4,-138.68"/>
</g>
<!-- Node34&#45;&gt;Node3 -->
<g id="edge32" class="edge">
<title>Node34&#45;&gt;Node3</title>
<path fill="none" stroke="midnightblue" d="M936.35,-229.96C948.6,-207.75 977.14,-147.43 948.36,-112 930.28,-89.74 859.24,-78.11 803.71,-72.29"/>
<polygon fill="midnightblue" stroke="midnightblue" points="803.84,-68.79 793.54,-71.27 803.14,-75.75 803.84,-68.79"/>
</g>
<!-- Node34&#45;&gt;Node25 -->
<g id="edge34" class="edge">
<title>Node34&#45;&gt;Node25</title>
<path fill="none" stroke="midnightblue" d="M925.34,-229.98C919.11,-221.14 909.19,-207.09 901.34,-195.98"/>
<polygon fill="midnightblue" stroke="midnightblue" points="903.99,-193.66 895.37,-187.51 898.28,-197.7 903.99,-193.66"/>
</g>
<!-- Node35 -->
<g id="node24" class="node">
<title>Node35</title>
<g id="a_node24"><a xlink:href="static__storage_8h.html" target="_top" xlink:title=" ">
<polygon fill="white" stroke="red" points="995.36,-168.5 995.36,-187.5 1141.36,-187.5 1141.36,-168.5 995.36,-168.5"/>
<text text-anchor="middle" x="1068.36" y="-175.5" font-family="Helvetica,sans-Serif" font-size="10.00">emlabcpp/static_storage.h</text>
</a>
</g>
</g>
<!-- Node34&#45;&gt;Node35 -->
<g id="edge33" class="edge">
<title>Node34&#45;&gt;Node35</title>
<path fill="none" stroke="midnightblue" d="M950.99,-229.98C974.19,-219.9 1012.98,-203.05 1039.57,-191.5"/>
<polygon fill="midnightblue" stroke="midnightblue" points="1040.99,-194.7 1048.77,-187.51 1038.2,-188.28 1040.99,-194.7"/>
</g>
</g>
</svg>
