<?xml version="1.0" encoding="UTF-8" standalone="no"?>
<!DOCTYPE svg PUBLIC "-//W3C//DTD SVG 1.1//EN"
 "http://www.w3.org/Graphics/SVG/1.1/DTD/svg11.dtd">
<!-- Generated by graphviz version 2.43.0 (0)
 -->
<!-- Title: include/emlabcpp/experimental/contiguous_tree/tree.h Pages: 1 -->
<svg width="1378pt" height="352pt"
 viewBox="0.00 0.00 1378.23 352.00" xmlns="http://www.w3.org/2000/svg" xmlns:xlink="http://www.w3.org/1999/xlink">
<g id="graph0" class="graph" transform="scale(1 1) rotate(0) translate(4 348)">
<title>include/emlabcpp/experimental/contiguous_tree/tree.h</title>
<polygon fill="white" stroke="transparent" points="-4,4 -4,-348 1374.23,-348 1374.23,4 -4,4"/>
<!-- Node1 -->
<g id="node1" class="node">
<title>Node1</title>
<g id="a_node1"><a xlink:title=" ">
<polygon fill="#bfbfbf" stroke="black" points="404,-313.5 404,-343.5 575,-343.5 575,-313.5 404,-313.5"/>
<text text-anchor="start" x="412" y="-331.5" font-family="Helvetica,sans-Serif" font-size="10.00">include/emlabcpp/experimental</text>
<text text-anchor="middle" x="489.5" y="-320.5" font-family="Helvetica,sans-Serif" font-size="10.00">/contiguous_tree/tree.h</text>
</a>
</g>
</g>
<!-- Node2 -->
<g id="node2" class="node">
<title>Node2</title>
<g id="a_node2"><a xlink:href="experimental_2contiguous__tree_2base_8h.html" target="_top" xlink:title=" ">
<polygon fill="white" stroke="black" points="423,-246.5 423,-276.5 556,-276.5 556,-246.5 423,-246.5"/>
<text text-anchor="start" x="431" y="-264.5" font-family="Helvetica,sans-Serif" font-size="10.00">emlabcpp/experimental</text>
<text text-anchor="middle" x="489.5" y="-253.5" font-family="Helvetica,sans-Serif" font-size="10.00">/contiguous_tree/base.h</text>
</a>
</g>
</g>
<!-- Node1&#45;&gt;Node2 -->
<g id="edge1" class="edge">
<title>Node1&#45;&gt;Node2</title>
<path fill="none" stroke="midnightblue" d="M489.5,-313.4C489.5,-305.64 489.5,-295.81 489.5,-286.86"/>
<polygon fill="midnightblue" stroke="midnightblue" points="493,-286.58 489.5,-276.58 486,-286.58 493,-286.58"/>
</g>
<!-- Node4 -->
<g id="node4" class="node">
<title>Node4</title>
<g id="a_node4"><a xlink:href="static__vector_8h.html" target="_top" xlink:title=" ">
<polygon fill="white" stroke="red" points="330,-129 330,-148 469,-148 469,-129 330,-129"/>
<text text-anchor="middle" x="399.5" y="-136" font-family="Helvetica,sans-Serif" font-size="10.00">emlabcpp/static_vector.h</text>
</a>
</g>
</g>
<!-- Node1&#45;&gt;Node4 -->
<g id="edge29" class="edge">
<title>Node1&#45;&gt;Node4</title>
<path fill="none" stroke="midnightblue" d="M459.03,-313.46C424.02,-295.34 368.79,-260.05 348.5,-210 339.82,-188.58 359.72,-167.59 377.15,-154.16"/>
<polygon fill="midnightblue" stroke="midnightblue" points="379.32,-156.91 385.37,-148.21 375.22,-151.24 379.32,-156.91"/>
</g>
<!-- Node19 -->
<g id="node6" class="node">
<title>Node19</title>
<g id="a_node6"><a xlink:href="match_8h.html" target="_top" xlink:title=" ">
<polygon fill="white" stroke="red" points="143,-0.5 143,-19.5 250,-19.5 250,-0.5 143,-0.5"/>
<text text-anchor="middle" x="196.5" y="-7.5" font-family="Helvetica,sans-Serif" font-size="10.00">emlabcpp/match.h</text>
</a>
</g>
</g>
<!-- Node1&#45;&gt;Node19 -->
<g id="edge12" class="edge">
<title>Node1&#45;&gt;Node19</title>
<path fill="none" stroke="midnightblue" d="M421.36,-313.49C364.09,-297.26 291.5,-264.23 291.5,-201 291.5,-201 291.5,-201 291.5,-137.5 291.5,-100.2 293.64,-86.02 271.5,-56 261,-41.77 244.53,-31.17 229.69,-23.84"/>
<polygon fill="midnightblue" stroke="midnightblue" points="230.8,-20.5 220.26,-19.5 227.88,-26.86 230.8,-20.5"/>
</g>
<!-- Node30 -->
<g id="node9" class="node">
<title>Node30</title>
<g id="a_node9"><a xlink:href="logging_8h.html" target="_top" xlink:title=" ">
<polygon fill="white" stroke="black" points="83,-123.5 83,-153.5 216,-153.5 216,-123.5 83,-123.5"/>
<text text-anchor="start" x="91" y="-141.5" font-family="Helvetica,sans-Serif" font-size="10.00">emlabcpp/experimental</text>
<text text-anchor="middle" x="149.5" y="-130.5" font-family="Helvetica,sans-Serif" font-size="10.00">/logging.h</text>
</a>
</g>
</g>
<!-- Node1&#45;&gt;Node30 -->
<g id="edge8" class="edge">
<title>Node1&#45;&gt;Node30</title>
<path fill="none" stroke="midnightblue" d="M403.96,-318.76C363.52,-311.8 315.83,-299.33 277.5,-277 227.48,-247.86 185.3,-193.04 164.12,-162.15"/>
<polygon fill="midnightblue" stroke="midnightblue" points="166.96,-160.1 158.48,-153.75 161.15,-164 166.96,-160.1"/>
</g>
<!-- Node32 -->
<g id="node11" class="node">
<title>Node32</title>
<g id="a_node11"><a xlink:href="aliases_8h.html" target="_top" xlink:title=" ">
<polygon fill="white" stroke="black" points="658.5,-252 658.5,-271 792.5,-271 792.5,-252 658.5,-252"/>
<text text-anchor="middle" x="725.5" y="-259" font-family="Helvetica,sans-Serif" font-size="10.00">emlabcpp/pmr/aliases.h</text>
</a>
</g>
</g>
<!-- Node1&#45;&gt;Node32 -->
<g id="edge13" class="edge">
<title>Node1&#45;&gt;Node32</title>
<path fill="none" stroke="midnightblue" d="M540.42,-313.48C583.64,-301.57 644.84,-284.72 684.84,-273.7"/>
<polygon fill="midnightblue" stroke="midnightblue" points="685.82,-277.06 694.53,-271.03 683.96,-270.31 685.82,-277.06"/>
</g>
<!-- Node40 -->
<g id="node16" class="node">
<title>Node40</title>
<g id="a_node16"><a xlink:title=" ">
<polygon fill="white" stroke="#bfbfbf" points="862.5,-190.5 862.5,-209.5 900.5,-209.5 900.5,-190.5 862.5,-190.5"/>
<text text-anchor="middle" x="881.5" y="-197.5" font-family="Helvetica,sans-Serif" font-size="10.00">map</text>
</a>
</g>
</g>
<!-- Node1&#45;&gt;Node40 -->
<g id="edge30" class="edge">
<title>Node1&#45;&gt;Node40</title>
<path fill="none" stroke="midnightblue" d="M575.07,-327.14C640.21,-323.76 730.46,-312.21 801.5,-277 829.56,-263.09 854.41,-235.95 868.71,-218.15"/>
<polygon fill="midnightblue" stroke="midnightblue" points="871.81,-219.86 875.18,-209.81 866.28,-215.56 871.81,-219.86"/>
</g>
<!-- Node43 -->
<g id="node20" class="node">
<title>Node43</title>
<g id="a_node20"><a xlink:href="pool__resource_8h.html" target="_top" xlink:title=" ">
<polygon fill="white" stroke="black" points="1090,-252 1090,-271 1257,-271 1257,-252 1090,-252"/>
<text text-anchor="middle" x="1173.5" y="-259" font-family="Helvetica,sans-Serif" font-size="10.00">emlabcpp/pmr/pool_resource.h</text>
</a>
</g>
</g>
<!-- Node1&#45;&gt;Node43 -->
<g id="edge23" class="edge">
<title>Node1&#45;&gt;Node43</title>
<path fill="none" stroke="midnightblue" d="M575.09,-319.37C703.83,-307.13 946.4,-284.08 1079.76,-271.41"/>
<polygon fill="midnightblue" stroke="midnightblue" points="1080.33,-274.87 1089.96,-270.44 1079.67,-267.9 1080.33,-274.87"/>
</g>
<!-- Node3 -->
<g id="node3" class="node">
<title>Node3</title>
<g id="a_node3"><a xlink:href="either_8h.html" target="_top" xlink:title=" ">
<polygon fill="white" stroke="red" points="357.5,-190.5 357.5,-209.5 461.5,-209.5 461.5,-190.5 357.5,-190.5"/>
<text text-anchor="middle" x="409.5" y="-197.5" font-family="Helvetica,sans-Serif" font-size="10.00">emlabcpp/either.h</text>
</a>
</g>
</g>
<!-- Node2&#45;&gt;Node3 -->
<g id="edge2" class="edge">
<title>Node2&#45;&gt;Node3</title>
<path fill="none" stroke="midnightblue" d="M470.54,-246.4C458.08,-237.13 441.8,-225.03 429.19,-215.65"/>
<polygon fill="midnightblue" stroke="midnightblue" points="431.25,-212.82 421.14,-209.66 427.08,-218.43 431.25,-212.82"/>
</g>
<!-- Node8 -->
<g id="node7" class="node">
<title>Node8</title>
<g id="a_node7"><a xlink:title=" ">
<polygon fill="white" stroke="#bfbfbf" points="981.5,-129 981.5,-148 1031.5,-148 1031.5,-129 981.5,-129"/>
<text text-anchor="middle" x="1006.5" y="-136" font-family="Helvetica,sans-Serif" font-size="10.00">cstdint</text>
</a>
</g>
</g>
<!-- Node2&#45;&gt;Node8 -->
<g id="edge6" class="edge">
<title>Node2&#45;&gt;Node8</title>
<path fill="none" stroke="midnightblue" d="M496.53,-246.32C505.59,-229.71 523.02,-202.83 546.5,-190 565.14,-179.82 866.92,-151.99 971.3,-142.63"/>
<polygon fill="midnightblue" stroke="midnightblue" points="971.69,-146.11 981.34,-141.73 971.07,-139.13 971.69,-146.11"/>
</g>
<!-- Node29 -->
<g id="node8" class="node">
<title>Node29</title>
<g id="a_node8"><a xlink:title=" ">
<polygon fill="white" stroke="#bfbfbf" points="742,-129 742,-148 807,-148 807,-129 742,-129"/>
<text text-anchor="middle" x="774.5" y="-136" font-family="Helvetica,sans-Serif" font-size="10.00">functional</text>
</a>
</g>
</g>
<!-- Node2&#45;&gt;Node29 -->
<g id="edge7" class="edge">
<title>Node2&#45;&gt;Node29</title>
<path fill="none" stroke="midnightblue" d="M490.25,-246.29C491.91,-230.17 497.13,-204.27 513.5,-190 545.53,-162.08 666.53,-148.2 731.93,-142.6"/>
<polygon fill="midnightblue" stroke="midnightblue" points="732.25,-146.09 741.93,-141.78 731.67,-139.11 732.25,-146.09"/>
</g>
<!-- Node3&#45;&gt;Node4 -->
<g id="edge3" class="edge">
<title>Node3&#45;&gt;Node4</title>
<path fill="none" stroke="midnightblue" d="M408.07,-190.48C406.66,-182.08 404.45,-168.98 402.64,-158.16"/>
<polygon fill="midnightblue" stroke="midnightblue" points="406.04,-157.29 400.93,-148.01 399.14,-158.45 406.04,-157.29"/>
</g>
<!-- Node16 -->
<g id="node5" class="node">
<title>Node16</title>
<g id="a_node5"><a xlink:href="pretty__printer_8h.html" target="_top" xlink:title=" ">
<polygon fill="white" stroke="red" points="130,-56.5 130,-86.5 263,-86.5 263,-56.5 130,-56.5"/>
<text text-anchor="start" x="138" y="-74.5" font-family="Helvetica,sans-Serif" font-size="10.00">emlabcpp/experimental</text>
<text text-anchor="middle" x="196.5" y="-63.5" font-family="Helvetica,sans-Serif" font-size="10.00">/pretty_printer.h</text>
</a>
</g>
</g>
<!-- Node4&#45;&gt;Node16 -->
<g id="edge4" class="edge">
<title>Node4&#45;&gt;Node16</title>
<path fill="none" stroke="midnightblue" d="M372.54,-128.87C341.42,-118.9 289.47,-102.27 250.04,-89.64"/>
<polygon fill="midnightblue" stroke="midnightblue" points="250.9,-86.24 240.31,-86.53 248.77,-92.91 250.9,-86.24"/>
</g>
<!-- Node16&#45;&gt;Node19 -->
<g id="edge5" class="edge">
<title>Node16&#45;&gt;Node19</title>
<path fill="none" stroke="midnightblue" d="M196.5,-56.4C196.5,-48.47 196.5,-38.46 196.5,-29.86"/>
<polygon fill="midnightblue" stroke="midnightblue" points="200,-29.66 196.5,-19.66 193,-29.66 200,-29.66"/>
</g>
<!-- Node30&#45;&gt;Node16 -->
<g id="edge9" class="edge">
<title>Node30&#45;&gt;Node16</title>
<path fill="none" stroke="midnightblue" d="M159.7,-123.4C165.73,-115.05 173.52,-104.29 180.37,-94.81"/>
<polygon fill="midnightblue" stroke="midnightblue" points="183.3,-96.73 186.32,-86.58 177.63,-92.63 183.3,-96.73"/>
</g>
<!-- Node30&#45;&gt;Node19 -->
<g id="edge10" class="edge">
<title>Node30&#45;&gt;Node19</title>
<path fill="none" stroke="midnightblue" d="M137.37,-123.3C124.6,-106.51 107.93,-78.05 120.5,-56 128.91,-41.25 144.27,-30.84 158.98,-23.77"/>
<polygon fill="midnightblue" stroke="midnightblue" points="160.74,-26.83 168.48,-19.6 157.92,-20.42 160.74,-26.83"/>
</g>
<!-- Node31 -->
<g id="node10" class="node">
<title>Node31</title>
<g id="a_node10"><a xlink:title=" ">
<polygon fill="white" stroke="#bfbfbf" points="0,-62 0,-81 73,-81 73,-62 0,-62"/>
<text text-anchor="middle" x="36.5" y="-69" font-family="Helvetica,sans-Serif" font-size="10.00">string_view</text>
</a>
</g>
</g>
<!-- Node30&#45;&gt;Node31 -->
<g id="edge11" class="edge">
<title>Node30&#45;&gt;Node31</title>
<path fill="none" stroke="midnightblue" d="M124.98,-123.4C105.77,-112.34 79.2,-97.06 60.2,-86.13"/>
<polygon fill="midnightblue" stroke="midnightblue" points="61.7,-82.96 51.29,-81.01 58.21,-89.03 61.7,-82.96"/>
</g>
<!-- Node33 -->
<g id="node12" class="node">
<title>Node33</title>
<g id="a_node12"><a xlink:href="allocator_8h.html" target="_top" xlink:title=" ">
<polygon fill="white" stroke="red" points="957,-190.5 957,-209.5 1098,-209.5 1098,-190.5 957,-190.5"/>
<text text-anchor="middle" x="1027.5" y="-197.5" font-family="Helvetica,sans-Serif" font-size="10.00">emlabcpp/pmr/allocator.h</text>
</a>
</g>
</g>
<!-- Node32&#45;&gt;Node33 -->
<g id="edge14" class="edge">
<title>Node32&#45;&gt;Node33</title>
<path fill="none" stroke="midnightblue" d="M768.77,-251.98C822.93,-241.3 915.67,-223.03 974.16,-211.51"/>
<polygon fill="midnightblue" stroke="midnightblue" points="975.18,-214.88 984.31,-209.51 973.82,-208.01 975.18,-214.88"/>
</g>
<!-- Node38 -->
<g id="node14" class="node">
<title>Node38</title>
<g id="a_node14"><a xlink:title=" ">
<polygon fill="white" stroke="#bfbfbf" points="747,-190.5 747,-209.5 794,-209.5 794,-190.5 747,-190.5"/>
<text text-anchor="middle" x="770.5" y="-197.5" font-family="Helvetica,sans-Serif" font-size="10.00">deque</text>
</a>
</g>
</g>
<!-- Node32&#45;&gt;Node38 -->
<g id="edge17" class="edge">
<title>Node32&#45;&gt;Node38</title>
<path fill="none" stroke="midnightblue" d="M731.95,-251.98C738.7,-243.05 749.47,-228.81 757.91,-217.64"/>
<polygon fill="midnightblue" stroke="midnightblue" points="760.82,-219.6 764.06,-209.51 755.24,-215.37 760.82,-219.6"/>
</g>
<!-- Node39 -->
<g id="node15" class="node">
<title>Node39</title>
<g id="a_node15"><a xlink:title=" ">
<polygon fill="white" stroke="#bfbfbf" points="812.5,-190.5 812.5,-209.5 844.5,-209.5 844.5,-190.5 812.5,-190.5"/>
<text text-anchor="middle" x="828.5" y="-197.5" font-family="Helvetica,sans-Serif" font-size="10.00">list</text>
</a>
</g>
</g>
<!-- Node32&#45;&gt;Node39 -->
<g id="edge18" class="edge">
<title>Node32&#45;&gt;Node39</title>
<path fill="none" stroke="midnightblue" d="M740.26,-251.98C757.16,-242.21 785.08,-226.08 804.99,-214.58"/>
<polygon fill="midnightblue" stroke="midnightblue" points="806.86,-217.54 813.77,-209.51 803.36,-211.48 806.86,-217.54"/>
</g>
<!-- Node32&#45;&gt;Node40 -->
<g id="edge19" class="edge">
<title>Node32&#45;&gt;Node40</title>
<path fill="none" stroke="midnightblue" d="M747.85,-251.98C775.4,-241.47 822.28,-223.59 852.56,-212.04"/>
<polygon fill="midnightblue" stroke="midnightblue" points="854.05,-215.22 862.14,-208.38 851.55,-208.68 854.05,-215.22"/>
</g>
<!-- Node41 -->
<g id="node17" class="node">
<title>Node41</title>
<g id="a_node17"><a xlink:title=" ">
<polygon fill="white" stroke="#bfbfbf" points="555.5,-190.5 555.5,-209.5 613.5,-209.5 613.5,-190.5 555.5,-190.5"/>
<text text-anchor="middle" x="584.5" y="-197.5" font-family="Helvetica,sans-Serif" font-size="10.00">memory</text>
</a>
</g>
</g>
<!-- Node32&#45;&gt;Node41 -->
<g id="edge20" class="edge">
<title>Node32&#45;&gt;Node41</title>
<path fill="none" stroke="midnightblue" d="M705.3,-251.98C681.43,-241.9 641.5,-225.05 614.13,-213.5"/>
<polygon fill="midnightblue" stroke="midnightblue" points="615.24,-210.17 604.66,-209.51 612.52,-216.62 615.24,-210.17"/>
</g>
<!-- Node42 -->
<g id="node18" class="node">
<title>Node42</title>
<g id="a_node18"><a xlink:title=" ">
<polygon fill="white" stroke="#bfbfbf" points="631.5,-190.5 631.5,-209.5 663.5,-209.5 663.5,-190.5 631.5,-190.5"/>
<text text-anchor="middle" x="647.5" y="-197.5" font-family="Helvetica,sans-Serif" font-size="10.00">set</text>
</a>
</g>
</g>
<!-- Node32&#45;&gt;Node42 -->
<g id="edge21" class="edge">
<title>Node32&#45;&gt;Node42</title>
<path fill="none" stroke="midnightblue" d="M714.32,-251.98C701.93,-242.52 681.71,-227.1 666.75,-215.69"/>
<polygon fill="midnightblue" stroke="midnightblue" points="668.73,-212.79 658.65,-209.51 664.48,-218.36 668.73,-212.79"/>
</g>
<!-- Node12 -->
<g id="node19" class="node">
<title>Node12</title>
<g id="a_node19"><a xlink:title=" ">
<polygon fill="white" stroke="#bfbfbf" points="682,-190.5 682,-209.5 729,-209.5 729,-190.5 682,-190.5"/>
<text text-anchor="middle" x="705.5" y="-197.5" font-family="Helvetica,sans-Serif" font-size="10.00">vector</text>
</a>
</g>
</g>
<!-- Node32&#45;&gt;Node12 -->
<g id="edge22" class="edge">
<title>Node32&#45;&gt;Node12</title>
<path fill="none" stroke="midnightblue" d="M722.63,-251.98C719.78,-243.49 715.32,-230.2 711.66,-219.32"/>
<polygon fill="midnightblue" stroke="midnightblue" points="714.86,-217.87 708.36,-209.51 708.23,-220.1 714.86,-217.87"/>
</g>
<!-- Node33&#45;&gt;Node29 -->
<g id="edge16" class="edge">
<title>Node33&#45;&gt;Node29</title>
<path fill="none" stroke="midnightblue" d="M991.25,-190.48C945.2,-179.65 865.86,-160.99 817.01,-149.5"/>
<polygon fill="midnightblue" stroke="midnightblue" points="817.6,-146.04 807.07,-147.16 816,-152.86 817.6,-146.04"/>
</g>
<!-- Node34 -->
<g id="node13" class="node">
<title>Node34</title>
<g id="a_node13"><a xlink:href="memory__resource_8h.html" target="_top" xlink:title=" ">
<polygon fill="white" stroke="red" points="1128,-123.5 1128,-153.5 1259,-153.5 1259,-123.5 1128,-123.5"/>
<text text-anchor="start" x="1136" y="-141.5" font-family="Helvetica,sans-Serif" font-size="10.00">emlabcpp/pmr/memory</text>
<text text-anchor="middle" x="1193.5" y="-130.5" font-family="Helvetica,sans-Serif" font-size="10.00">_resource.h</text>
</a>
</g>
</g>
<!-- Node33&#45;&gt;Node34 -->
<g id="edge15" class="edge">
<title>Node33&#45;&gt;Node34</title>
<path fill="none" stroke="midnightblue" d="M1051.28,-190.48C1075.55,-181.78 1113.91,-168.03 1144.68,-157"/>
<polygon fill="midnightblue" stroke="midnightblue" points="1146.14,-160.19 1154.38,-153.52 1143.78,-153.6 1146.14,-160.19"/>
</g>
<!-- Node43&#45;&gt;Node4 -->
<g id="edge28" class="edge">
<title>Node43&#45;&gt;Node4</title>
<path fill="none" stroke="midnightblue" d="M1117.37,-251.97C1071.16,-243.99 1004.4,-230.24 948.5,-210 930.18,-203.37 928.19,-195.5 909.5,-190 831.05,-166.91 602.28,-150.94 479.53,-143.77"/>
<polygon fill="midnightblue" stroke="midnightblue" points="479.63,-140.27 469.44,-143.19 479.22,-147.26 479.63,-140.27"/>
</g>
<!-- Node43&#45;&gt;Node34 -->
<g id="edge24" class="edge">
<title>Node43&#45;&gt;Node34</title>
<path fill="none" stroke="midnightblue" d="M1236.88,-251.93C1285.59,-243.88 1347.09,-230.07 1362.5,-210 1391.92,-171.68 1326.87,-154.02 1269.13,-145.98"/>
<polygon fill="midnightblue" stroke="midnightblue" points="1269.57,-142.51 1259.2,-144.68 1268.66,-149.45 1269.57,-142.51"/>
</g>
<!-- Node44 -->
<g id="node21" class="node">
<title>Node44</title>
<g id="a_node21"><a xlink:href="util_8h.html" target="_top" xlink:title=" ">
<polygon fill="white" stroke="red" points="1116,-190.5 1116,-209.5 1231,-209.5 1231,-190.5 1116,-190.5"/>
<text text-anchor="middle" x="1173.5" y="-197.5" font-family="Helvetica,sans-Serif" font-size="10.00">emlabcpp/pmr/util.h</text>
</a>
</g>
</g>
<!-- Node43&#45;&gt;Node44 -->
<g id="edge25" class="edge">
<title>Node43&#45;&gt;Node44</title>
<path fill="none" stroke="midnightblue" d="M1173.5,-251.98C1173.5,-243.58 1173.5,-230.48 1173.5,-219.66"/>
<polygon fill="midnightblue" stroke="midnightblue" points="1177,-219.51 1173.5,-209.51 1170,-219.51 1177,-219.51"/>
</g>
<!-- Node45 -->
<g id="node22" class="node">
<title>Node45</title>
<g id="a_node22"><a xlink:href="range_8h.html" target="_top" xlink:title=" ">
<polygon fill="white" stroke="red" points="1249.5,-190.5 1249.5,-209.5 1353.5,-209.5 1353.5,-190.5 1249.5,-190.5"/>
<text text-anchor="middle" x="1301.5" y="-197.5" font-family="Helvetica,sans-Serif" font-size="10.00">emlabcpp/range.h</text>
</a>
</g>
</g>
<!-- Node43&#45;&gt;Node45 -->
<g id="edge27" class="edge">
<title>Node43&#45;&gt;Node45</title>
<path fill="none" stroke="midnightblue" d="M1191.84,-251.98C1213.32,-241.99 1249.12,-225.35 1273.95,-213.81"/>
<polygon fill="midnightblue" stroke="midnightblue" points="1275.6,-216.9 1283.19,-209.51 1272.65,-210.55 1275.6,-216.9"/>
</g>
<!-- Node44&#45;&gt;Node8 -->
<g id="edge26" class="edge">
<title>Node44&#45;&gt;Node8</title>
<path fill="none" stroke="midnightblue" d="M1149.57,-190.48C1120.8,-180.22 1072.34,-162.96 1039.9,-151.4"/>
<polygon fill="midnightblue" stroke="midnightblue" points="1040.98,-148.07 1030.38,-148.01 1038.63,-154.66 1040.98,-148.07"/>
</g>
</g>
</svg>
