<?xml version="1.0" encoding="UTF-8" standalone="no"?>
<!DOCTYPE svg PUBLIC "-//W3C//DTD SVG 1.1//EN"
 "http://www.w3.org/Graphics/SVG/1.1/DTD/svg11.dtd">
<!-- Generated by graphviz version 2.43.0 (0)
 -->
<!-- Title: include/emlabcpp/experimental/contiguous_tree/tree.h Pages: 1 -->
<svg width="886pt" height="207pt"
 viewBox="0.00 0.00 885.50 207.00" xmlns="http://www.w3.org/2000/svg" xmlns:xlink="http://www.w3.org/1999/xlink">
<g id="graph0" class="graph" transform="scale(1 1) rotate(0) translate(4 203)">
<title>include/emlabcpp/experimental/contiguous_tree/tree.h</title>
<polygon fill="white" stroke="transparent" points="-4,4 -4,-203 881.5,-203 881.5,4 -4,4"/>
<!-- Node1 -->
<g id="node1" class="node">
<title>Node1</title>
<g id="a_node1"><a xlink:title=" ">
<polygon fill="#bfbfbf" stroke="black" points="290,-168.5 290,-198.5 461,-198.5 461,-168.5 290,-168.5"/>
<text text-anchor="start" x="298" y="-186.5" font-family="Helvetica,sans-Serif" font-size="10.00">include/emlabcpp/experimental</text>
<text text-anchor="middle" x="375.5" y="-175.5" font-family="Helvetica,sans-Serif" font-size="10.00">/contiguous_tree/tree.h</text>
</a>
</g>
</g>
<!-- Node2 -->
<g id="node2" class="node">
<title>Node2</title>
<g id="a_node2"><a xlink:href="match_8h.html" target="_top" xlink:title=" ">
<polygon fill="white" stroke="black" points="27.5,-112.5 27.5,-131.5 101.5,-131.5 101.5,-112.5 27.5,-112.5"/>
<text text-anchor="middle" x="64.5" y="-119.5" font-family="Helvetica,sans-Serif" font-size="10.00">../../match.h</text>
</a>
</g>
</g>
<!-- Node1&#45;&gt;Node2 -->
<g id="edge1" class="edge">
<title>Node1&#45;&gt;Node2</title>
<path fill="none" stroke="midnightblue" d="M302.19,-168.47C243.22,-157.19 162.12,-141.68 111.53,-132"/>
<polygon fill="midnightblue" stroke="midnightblue" points="112.01,-128.53 101.53,-130.08 110.69,-135.4 112.01,-128.53"/>
</g>
<!-- Node18 -->
<g id="node4" class="node">
<title>Node18</title>
<g id="a_node4"><a xlink:href="aliases_8h.html" target="_top" xlink:title=" ">
<polygon fill="white" stroke="black" points="592,-112.5 592,-131.5 693,-131.5 693,-112.5 592,-112.5"/>
<text text-anchor="middle" x="642.5" y="-119.5" font-family="Helvetica,sans-Serif" font-size="10.00">../../pmr/aliases.h</text>
</a>
</g>
</g>
<!-- Node1&#45;&gt;Node18 -->
<g id="edge3" class="edge">
<title>Node1&#45;&gt;Node18</title>
<path fill="none" stroke="midnightblue" d="M438.44,-168.47C486.21,-157.83 550.9,-143.41 594.53,-133.69"/>
<polygon fill="midnightblue" stroke="midnightblue" points="595.33,-137.1 604.33,-131.51 593.81,-130.27 595.33,-137.1"/>
</g>
<!-- Node40 -->
<g id="node10" class="node">
<title>Node40</title>
<g id="a_node10"><a xlink:title=" ">
<polygon fill="white" stroke="#bfbfbf" points="839.5,-56.5 839.5,-75.5 877.5,-75.5 877.5,-56.5 839.5,-56.5"/>
<text text-anchor="middle" x="858.5" y="-63.5" font-family="Helvetica,sans-Serif" font-size="10.00">map</text>
</a>
</g>
</g>
<!-- Node1&#45;&gt;Node40 -->
<g id="edge23" class="edge">
<title>Node1&#45;&gt;Node40</title>
<path fill="none" stroke="midnightblue" d="M461.05,-175C527.73,-167.79 622.18,-154.58 702.5,-132 749.91,-118.68 802.21,-94.88 832.6,-80.08"/>
<polygon fill="midnightblue" stroke="midnightblue" points="834.25,-83.17 841.67,-75.61 831.15,-76.89 834.25,-83.17"/>
</g>
<!-- Node43 -->
<g id="node14" class="node">
<title>Node43</title>
<g id="a_node14"><a xlink:href="pool__resource_8h.html" target="_top" xlink:title=" ">
<polygon fill="white" stroke="black" points="156.5,-112.5 156.5,-131.5 290.5,-131.5 290.5,-112.5 156.5,-112.5"/>
<text text-anchor="middle" x="223.5" y="-119.5" font-family="Helvetica,sans-Serif" font-size="10.00">../../pmr/pool_resource.h</text>
</a>
</g>
</g>
<!-- Node1&#45;&gt;Node43 -->
<g id="edge13" class="edge">
<title>Node1&#45;&gt;Node43</title>
<path fill="none" stroke="midnightblue" d="M339.48,-168.4C313.86,-158.37 279.77,-145.03 255.19,-135.4"/>
<polygon fill="midnightblue" stroke="midnightblue" points="256.21,-132.04 245.62,-131.66 253.65,-138.56 256.21,-132.04"/>
</g>
<!-- Node44 -->
<g id="node16" class="node">
<title>Node44</title>
<g id="a_node16"><a xlink:href="static__vector_8h.html" target="_top" xlink:title=" ">
<polygon fill="white" stroke="red" points="252,-56.5 252,-75.5 349,-75.5 349,-56.5 252,-56.5"/>
<text text-anchor="middle" x="300.5" y="-63.5" font-family="Helvetica,sans-Serif" font-size="10.00">../static_vector.h</text>
</a>
</g>
</g>
<!-- Node1&#45;&gt;Node44 -->
<g id="edge19" class="edge">
<title>Node1&#45;&gt;Node44</title>
<path fill="none" stroke="midnightblue" d="M366.3,-168.34C352.54,-147.15 326.63,-107.24 311.76,-84.34"/>
<polygon fill="midnightblue" stroke="midnightblue" points="314.51,-82.15 306.13,-75.67 308.64,-85.96 314.51,-82.15"/>
</g>
<!-- Node49 -->
<g id="node19" class="node">
<title>Node49</title>
<g id="a_node19"><a xlink:href="experimental_2contiguous__tree_2base_8h.html" target="_top" xlink:title=" ">
<polygon fill="white" stroke="black" points="367,-56.5 367,-75.5 422,-75.5 422,-56.5 367,-56.5"/>
<text text-anchor="middle" x="394.5" y="-63.5" font-family="Helvetica,sans-Serif" font-size="10.00">./base.h</text>
</a>
</g>
</g>
<!-- Node1&#45;&gt;Node49 -->
<g id="edge20" class="edge">
<title>Node1&#45;&gt;Node49</title>
<path fill="none" stroke="midnightblue" d="M377.83,-168.34C381.25,-147.53 387.65,-108.66 391.44,-85.58"/>
<polygon fill="midnightblue" stroke="midnightblue" points="394.9,-86.1 393.07,-75.67 388,-84.97 394.9,-86.1"/>
</g>
<!-- Node3 -->
<g id="node3" class="node">
<title>Node3</title>
<g id="a_node3"><a xlink:href="visit_8h.html" target="_top" xlink:title=" ">
<polygon fill="white" stroke="red" points="0,-56.5 0,-75.5 53,-75.5 53,-56.5 0,-56.5"/>
<text text-anchor="middle" x="26.5" y="-63.5" font-family="Helvetica,sans-Serif" font-size="10.00">./visit.h</text>
</a>
</g>
</g>
<!-- Node2&#45;&gt;Node3 -->
<g id="edge2" class="edge">
<title>Node2&#45;&gt;Node3</title>
<path fill="none" stroke="midnightblue" d="M58.23,-112.08C52.86,-104.46 44.98,-93.26 38.42,-83.94"/>
<polygon fill="midnightblue" stroke="midnightblue" points="41.28,-81.91 32.66,-75.75 35.55,-85.94 41.28,-81.91"/>
</g>
<!-- Node19 -->
<g id="node5" class="node">
<title>Node19</title>
<g id="a_node5"><a xlink:href="allocator_8h.html" target="_top" xlink:title=" ">
<polygon fill="white" stroke="red" points="440.5,-56.5 440.5,-75.5 514.5,-75.5 514.5,-56.5 440.5,-56.5"/>
<text text-anchor="middle" x="477.5" y="-63.5" font-family="Helvetica,sans-Serif" font-size="10.00">./allocator.h</text>
</a>
</g>
</g>
<!-- Node18&#45;&gt;Node19 -->
<g id="edge4" class="edge">
<title>Node18&#45;&gt;Node19</title>
<path fill="none" stroke="midnightblue" d="M616.36,-112.44C588.48,-103.32 544.15,-88.81 513.1,-78.65"/>
<polygon fill="midnightblue" stroke="midnightblue" points="514.12,-75.3 503.52,-75.52 511.94,-81.95 514.12,-75.3"/>
</g>
<!-- Node38 -->
<g id="node8" class="node">
<title>Node38</title>
<g id="a_node8"><a xlink:title=" ">
<polygon fill="white" stroke="#bfbfbf" points="774,-56.5 774,-75.5 821,-75.5 821,-56.5 774,-56.5"/>
<text text-anchor="middle" x="797.5" y="-63.5" font-family="Helvetica,sans-Serif" font-size="10.00">deque</text>
</a>
</g>
</g>
<!-- Node18&#45;&gt;Node38 -->
<g id="edge7" class="edge">
<title>Node18&#45;&gt;Node38</title>
<path fill="none" stroke="midnightblue" d="M667.06,-112.44C693.25,-103.32 734.9,-88.81 764.07,-78.65"/>
<polygon fill="midnightblue" stroke="midnightblue" points="765.53,-81.85 773.82,-75.25 763.22,-75.24 765.53,-81.85"/>
</g>
<!-- Node39 -->
<g id="node9" class="node">
<title>Node39</title>
<g id="a_node9"><a xlink:title=" ">
<polygon fill="white" stroke="#bfbfbf" points="532.5,-56.5 532.5,-75.5 564.5,-75.5 564.5,-56.5 532.5,-56.5"/>
<text text-anchor="middle" x="548.5" y="-63.5" font-family="Helvetica,sans-Serif" font-size="10.00">list</text>
</a>
</g>
</g>
<!-- Node18&#45;&gt;Node39 -->
<g id="edge8" class="edge">
<title>Node18&#45;&gt;Node39</title>
<path fill="none" stroke="midnightblue" d="M627.4,-112.32C612.6,-103.82 589.81,-90.73 572.52,-80.8"/>
<polygon fill="midnightblue" stroke="midnightblue" points="573.98,-77.6 563.57,-75.65 570.49,-83.67 573.98,-77.6"/>
</g>
<!-- Node18&#45;&gt;Node40 -->
<g id="edge9" class="edge">
<title>Node18&#45;&gt;Node40</title>
<path fill="none" stroke="midnightblue" d="M681.97,-112.47C718.08,-104.46 773.16,-91.74 829.49,-76.13"/>
<polygon fill="midnightblue" stroke="midnightblue" points="830.59,-79.46 839.28,-73.39 828.71,-72.71 830.59,-79.46"/>
</g>
<!-- Node41 -->
<g id="node11" class="node">
<title>Node41</title>
<g id="a_node11"><a xlink:title=" ">
<polygon fill="white" stroke="#bfbfbf" points="582.5,-56.5 582.5,-75.5 640.5,-75.5 640.5,-56.5 582.5,-56.5"/>
<text text-anchor="middle" x="611.5" y="-63.5" font-family="Helvetica,sans-Serif" font-size="10.00">memory</text>
</a>
</g>
</g>
<!-- Node18&#45;&gt;Node41 -->
<g id="edge10" class="edge">
<title>Node18&#45;&gt;Node41</title>
<path fill="none" stroke="midnightblue" d="M637.38,-112.08C633.09,-104.61 626.84,-93.72 621.56,-84.52"/>
<polygon fill="midnightblue" stroke="midnightblue" points="624.54,-82.68 616.52,-75.75 618.47,-86.17 624.54,-82.68"/>
</g>
<!-- Node42 -->
<g id="node12" class="node">
<title>Node42</title>
<g id="a_node12"><a xlink:title=" ">
<polygon fill="white" stroke="#bfbfbf" points="658.5,-56.5 658.5,-75.5 690.5,-75.5 690.5,-56.5 658.5,-56.5"/>
<text text-anchor="middle" x="674.5" y="-63.5" font-family="Helvetica,sans-Serif" font-size="10.00">set</text>
</a>
</g>
</g>
<!-- Node18&#45;&gt;Node42 -->
<g id="edge11" class="edge">
<title>Node18&#45;&gt;Node42</title>
<path fill="none" stroke="midnightblue" d="M647.78,-112.08C652.21,-104.61 658.66,-93.72 664.12,-84.52"/>
<polygon fill="midnightblue" stroke="midnightblue" points="667.23,-86.14 669.31,-75.75 661.21,-82.57 667.23,-86.14"/>
</g>
<!-- Node13 -->
<g id="node13" class="node">
<title>Node13</title>
<g id="a_node13"><a xlink:title=" ">
<polygon fill="white" stroke="#bfbfbf" points="709,-56.5 709,-75.5 756,-75.5 756,-56.5 709,-56.5"/>
<text text-anchor="middle" x="732.5" y="-63.5" font-family="Helvetica,sans-Serif" font-size="10.00">vector</text>
</a>
</g>
</g>
<!-- Node18&#45;&gt;Node13 -->
<g id="edge12" class="edge">
<title>Node18&#45;&gt;Node13</title>
<path fill="none" stroke="midnightblue" d="M656.96,-112.32C671,-103.9 692.55,-90.97 709.04,-81.07"/>
<polygon fill="midnightblue" stroke="midnightblue" points="711.3,-83.8 718.08,-75.65 707.7,-77.8 711.3,-83.8"/>
</g>
<!-- Node20 -->
<g id="node6" class="node">
<title>Node20</title>
<g id="a_node6"><a xlink:href="memory__resource_8h.html" target="_top" xlink:title=" ">
<polygon fill="white" stroke="red" points="193.5,-0.5 193.5,-19.5 313.5,-19.5 313.5,-0.5 193.5,-0.5"/>
<text text-anchor="middle" x="253.5" y="-7.5" font-family="Helvetica,sans-Serif" font-size="10.00">./memory_resource.h</text>
</a>
</g>
</g>
<!-- Node19&#45;&gt;Node20 -->
<g id="edge5" class="edge">
<title>Node19&#45;&gt;Node20</title>
<path fill="none" stroke="midnightblue" d="M442.01,-56.44C403.18,-47.08 340.84,-32.06 298.58,-21.87"/>
<polygon fill="midnightblue" stroke="midnightblue" points="299.37,-18.46 288.83,-19.52 297.73,-25.26 299.37,-18.46"/>
</g>
<!-- Node26 -->
<g id="node7" class="node">
<title>Node26</title>
<g id="a_node7"><a xlink:title=" ">
<polygon fill="white" stroke="#bfbfbf" points="403,-0.5 403,-19.5 468,-19.5 468,-0.5 403,-0.5"/>
<text text-anchor="middle" x="435.5" y="-7.5" font-family="Helvetica,sans-Serif" font-size="10.00">functional</text>
</a>
</g>
</g>
<!-- Node19&#45;&gt;Node26 -->
<g id="edge6" class="edge">
<title>Node19&#45;&gt;Node26</title>
<path fill="none" stroke="midnightblue" d="M470.56,-56.08C464.57,-48.38 455.75,-37.03 448.45,-27.65"/>
<polygon fill="midnightblue" stroke="midnightblue" points="451.21,-25.5 442.31,-19.75 445.68,-29.79 451.21,-25.5"/>
</g>
<!-- Node43&#45;&gt;Node20 -->
<g id="edge16" class="edge">
<title>Node43&#45;&gt;Node20</title>
<path fill="none" stroke="midnightblue" d="M225.85,-112.37C230.72,-94.54 241.96,-53.3 248.52,-29.27"/>
<polygon fill="midnightblue" stroke="midnightblue" points="251.9,-30.16 251.16,-19.59 245.15,-28.32 251.9,-30.16"/>
</g>
<!-- Node27 -->
<g id="node15" class="node">
<title>Node27</title>
<g id="a_node15"><a xlink:href="range_8h.html" target="_top" xlink:title=" ">
<polygon fill="white" stroke="red" points="136,-56.5 136,-75.5 195,-75.5 195,-56.5 136,-56.5"/>
<text text-anchor="middle" x="165.5" y="-63.5" font-family="Helvetica,sans-Serif" font-size="10.00">./range.h</text>
</a>
</g>
</g>
<!-- Node43&#45;&gt;Node27 -->
<g id="edge14" class="edge">
<title>Node43&#45;&gt;Node27</title>
<path fill="none" stroke="midnightblue" d="M214.18,-112.32C205.61,-104.34 192.69,-92.31 182.31,-82.65"/>
<polygon fill="midnightblue" stroke="midnightblue" points="184.69,-80.09 174.99,-75.83 179.92,-85.21 184.69,-80.09"/>
</g>
<!-- Node43&#45;&gt;Node44 -->
<g id="edge15" class="edge">
<title>Node43&#45;&gt;Node44</title>
<path fill="none" stroke="midnightblue" d="M235.87,-112.32C247.66,-104.06 265.63,-91.45 279.64,-81.63"/>
<polygon fill="midnightblue" stroke="midnightblue" points="281.98,-84.26 288.16,-75.65 277.96,-78.53 281.98,-84.26"/>
</g>
<!-- Node47 -->
<g id="node17" class="node">
<title>Node47</title>
<g id="a_node17"><a xlink:href="util_8h.html" target="_top" xlink:title=" ">
<polygon fill="white" stroke="red" points="71,-56.5 71,-75.5 118,-75.5 118,-56.5 71,-56.5"/>
<text text-anchor="middle" x="94.5" y="-63.5" font-family="Helvetica,sans-Serif" font-size="10.00">./util.h</text>
</a>
</g>
</g>
<!-- Node43&#45;&gt;Node47 -->
<g id="edge17" class="edge">
<title>Node43&#45;&gt;Node47</title>
<path fill="none" stroke="midnightblue" d="M203.06,-112.44C181.83,-103.56 148.4,-89.56 124.25,-79.45"/>
<polygon fill="midnightblue" stroke="midnightblue" points="125.42,-76.15 114.84,-75.52 122.72,-82.61 125.42,-76.15"/>
</g>
<!-- Node9 -->
<g id="node18" class="node">
<title>Node9</title>
<g id="a_node18"><a xlink:title=" ">
<polygon fill="white" stroke="#bfbfbf" points="112.5,-0.5 112.5,-19.5 162.5,-19.5 162.5,-0.5 112.5,-0.5"/>
<text text-anchor="middle" x="137.5" y="-7.5" font-family="Helvetica,sans-Serif" font-size="10.00">cstdint</text>
</a>
</g>
</g>
<!-- Node47&#45;&gt;Node9 -->
<g id="edge18" class="edge">
<title>Node47&#45;&gt;Node9</title>
<path fill="none" stroke="midnightblue" d="M101.6,-56.08C107.74,-48.38 116.77,-37.03 124.24,-27.65"/>
<polygon fill="midnightblue" stroke="midnightblue" points="127.04,-29.75 130.53,-19.75 121.56,-25.39 127.04,-29.75"/>
</g>
<!-- Node49&#45;&gt;Node26 -->
<g id="edge22" class="edge">
<title>Node49&#45;&gt;Node26</title>
<path fill="none" stroke="midnightblue" d="M401.27,-56.08C407.06,-48.46 415.56,-37.26 422.64,-27.94"/>
<polygon fill="midnightblue" stroke="midnightblue" points="425.6,-29.83 428.86,-19.75 420.02,-25.6 425.6,-29.83"/>
</g>
<!-- Node49&#45;&gt;Node9 -->
<g id="edge21" class="edge">
<title>Node49&#45;&gt;Node9</title>
<path fill="none" stroke="midnightblue" d="M366.65,-58.11C363.56,-57.38 360.47,-56.66 357.5,-56 292.48,-41.45 216.22,-26.27 172.71,-17.79"/>
<polygon fill="midnightblue" stroke="midnightblue" points="173.12,-14.3 162.64,-15.83 171.79,-21.17 173.12,-14.3"/>
</g>
</g>
</svg>
