<?xml version="1.0" encoding="UTF-8" standalone="no"?>
<!DOCTYPE svg PUBLIC "-//W3C//DTD SVG 1.1//EN"
 "http://www.w3.org/Graphics/SVG/1.1/DTD/svg11.dtd">
<!-- Generated by graphviz version 2.43.0 (0)
 -->
<!-- Title: include/emlabcpp/experimental/contiguous_tree/tree.h Pages: 1 -->
<svg width="1144pt" height="352pt"
 viewBox="0.00 0.00 1144.00 352.00" xmlns="http://www.w3.org/2000/svg" xmlns:xlink="http://www.w3.org/1999/xlink">
<g id="graph0" class="graph" transform="scale(1 1) rotate(0) translate(4 348)">
<title>include/emlabcpp/experimental/contiguous_tree/tree.h</title>
<polygon fill="white" stroke="transparent" points="-4,4 -4,-348 1140,-348 1140,4 -4,4"/>
<!-- Node1 -->
<g id="node1" class="node">
<title>Node1</title>
<g id="a_node1"><a xlink:title=" ">
<polygon fill="#bfbfbf" stroke="black" points="150.5,-313.5 150.5,-343.5 321.5,-343.5 321.5,-313.5 150.5,-313.5"/>
<text text-anchor="start" x="158.5" y="-331.5" font-family="Helvetica,sans-Serif" font-size="10.00">include/emlabcpp/experimental</text>
<text text-anchor="middle" x="236" y="-320.5" font-family="Helvetica,sans-Serif" font-size="10.00">/contiguous_tree/tree.h</text>
</a>
</g>
</g>
<!-- Node2 -->
<g id="node2" class="node">
<title>Node2</title>
<g id="a_node2"><a xlink:href="experimental_2contiguous__tree_2base_8h.html" target="_top" xlink:title=" ">
<polygon fill="white" stroke="black" points="169.5,-246.5 169.5,-276.5 302.5,-276.5 302.5,-246.5 169.5,-246.5"/>
<text text-anchor="start" x="177.5" y="-264.5" font-family="Helvetica,sans-Serif" font-size="10.00">emlabcpp/experimental</text>
<text text-anchor="middle" x="236" y="-253.5" font-family="Helvetica,sans-Serif" font-size="10.00">/contiguous_tree/base.h</text>
</a>
</g>
</g>
<!-- Node1&#45;&gt;Node2 -->
<g id="edge1" class="edge">
<title>Node1&#45;&gt;Node2</title>
<path fill="none" stroke="midnightblue" d="M236,-313.4C236,-305.64 236,-295.81 236,-286.86"/>
<polygon fill="midnightblue" stroke="midnightblue" points="239.5,-286.58 236,-276.58 232.5,-286.58 239.5,-286.58"/>
</g>
<!-- Node4 -->
<g id="node4" class="node">
<title>Node4</title>
<g id="a_node4"><a xlink:href="static__vector_8h.html" target="_top" xlink:title=" ">
<polygon fill="white" stroke="red" points="179.5,-129 179.5,-148 318.5,-148 318.5,-129 179.5,-129"/>
<text text-anchor="middle" x="249" y="-136" font-family="Helvetica,sans-Serif" font-size="10.00">emlabcpp/static_vector.h</text>
</a>
</g>
</g>
<!-- Node1&#45;&gt;Node4 -->
<g id="edge31" class="edge">
<title>Node1&#45;&gt;Node4</title>
<path fill="none" stroke="midnightblue" d="M200.92,-313.46C148.05,-290.22 57.89,-241.22 95,-190 107.06,-173.35 155.52,-159.26 194.9,-150.22"/>
<polygon fill="midnightblue" stroke="midnightblue" points="195.7,-153.63 204.69,-148.04 194.17,-146.8 195.7,-153.63"/>
</g>
<!-- Node19 -->
<g id="node6" class="node">
<title>Node19</title>
<g id="a_node6"><a xlink:href="match_8h.html" target="_top" xlink:title=" ">
<polygon fill="white" stroke="red" points="88.5,-0.5 88.5,-19.5 195.5,-19.5 195.5,-0.5 88.5,-0.5"/>
<text text-anchor="middle" x="142" y="-7.5" font-family="Helvetica,sans-Serif" font-size="10.00">emlabcpp/match.h</text>
</a>
</g>
</g>
<!-- Node1&#45;&gt;Node19 -->
<g id="edge14" class="edge">
<title>Node1&#45;&gt;Node19</title>
<path fill="none" stroke="midnightblue" d="M150.46,-316.75C82.93,-302.9 0,-271.54 0,-201 0,-201 0,-201 0,-137.5 0,-98.75 3.9,-83.7 31,-56 46.82,-39.83 69.24,-29.28 89.79,-22.49"/>
<polygon fill="midnightblue" stroke="midnightblue" points="90.85,-25.83 99.38,-19.54 88.79,-19.14 90.85,-25.83"/>
</g>
<!-- Node27 -->
<g id="node7" class="node">
<title>Node27</title>
<g id="a_node7"><a xlink:title=" ">
<polygon fill="white" stroke="#bfbfbf" points="953,-0.5 953,-19.5 991,-19.5 991,-0.5 953,-0.5"/>
<text text-anchor="middle" x="972" y="-7.5" font-family="Helvetica,sans-Serif" font-size="10.00">map</text>
</a>
</g>
</g>
<!-- Node1&#45;&gt;Node27 -->
<g id="edge32" class="edge">
<title>Node1&#45;&gt;Node27</title>
<path fill="none" stroke="midnightblue" d="M321.6,-325.1C486.21,-319.89 841.11,-305.65 960,-277 1042.83,-257.04 1136,-286.2 1136,-201 1136,-201 1136,-201 1136,-137.5 1136,-70 1047.81,-33.47 1000.77,-18.79"/>
<polygon fill="midnightblue" stroke="midnightblue" points="1001.72,-15.42 991.13,-15.91 999.71,-22.13 1001.72,-15.42"/>
</g>
<!-- Node36 -->
<g id="node11" class="node">
<title>Node36</title>
<g id="a_node11"><a xlink:href="logging_8h.html" target="_top" xlink:title=" ">
<polygon fill="white" stroke="black" points="28.5,-123.5 28.5,-153.5 161.5,-153.5 161.5,-123.5 28.5,-123.5"/>
<text text-anchor="start" x="36.5" y="-141.5" font-family="Helvetica,sans-Serif" font-size="10.00">emlabcpp/experimental</text>
<text text-anchor="middle" x="95" y="-130.5" font-family="Helvetica,sans-Serif" font-size="10.00">/logging.h</text>
</a>
</g>
</g>
<!-- Node1&#45;&gt;Node36 -->
<g id="edge10" class="edge">
<title>Node1&#45;&gt;Node36</title>
<path fill="none" stroke="midnightblue" d="M154.98,-313.48C133.08,-306.01 111.25,-294.55 96,-277 68.83,-245.73 78.04,-193.67 86.79,-163.37"/>
<polygon fill="midnightblue" stroke="midnightblue" points="90.19,-164.22 89.8,-153.64 83.5,-162.15 90.19,-164.22"/>
</g>
<!-- Node38 -->
<g id="node13" class="node">
<title>Node38</title>
<g id="a_node13"><a xlink:href="aliases_8h.html" target="_top" xlink:title=" ">
<polygon fill="white" stroke="black" points="817,-252 817,-271 951,-271 951,-252 817,-252"/>
<text text-anchor="middle" x="884" y="-259" font-family="Helvetica,sans-Serif" font-size="10.00">emlabcpp/pmr/aliases.h</text>
</a>
</g>
</g>
<!-- Node1&#45;&gt;Node38 -->
<g id="edge15" class="edge">
<title>Node1&#45;&gt;Node38</title>
<path fill="none" stroke="midnightblue" d="M321.71,-318.9C448.68,-306.17 684.83,-282.48 806.74,-270.25"/>
<polygon fill="midnightblue" stroke="midnightblue" points="807.15,-273.73 816.75,-269.25 806.45,-266.76 807.15,-273.73"/>
</g>
<!-- Node47 -->
<g id="node20" class="node">
<title>Node47</title>
<g id="a_node20"><a xlink:href="pool__resource_8h.html" target="_top" xlink:title=" ">
<polygon fill="white" stroke="black" points="350.5,-252 350.5,-271 517.5,-271 517.5,-252 350.5,-252"/>
<text text-anchor="middle" x="434" y="-259" font-family="Helvetica,sans-Serif" font-size="10.00">emlabcpp/pmr/pool_resource.h</text>
</a>
</g>
</g>
<!-- Node1&#45;&gt;Node47 -->
<g id="edge25" class="edge">
<title>Node1&#45;&gt;Node47</title>
<path fill="none" stroke="midnightblue" d="M278.96,-313.4C314.63,-301.69 364.76,-285.23 398.26,-274.23"/>
<polygon fill="midnightblue" stroke="midnightblue" points="399.68,-277.45 408.09,-271.01 397.49,-270.8 399.68,-277.45"/>
</g>
<!-- Node3 -->
<g id="node3" class="node">
<title>Node3</title>
<g id="a_node3"><a xlink:href="either_8h.html" target="_top" xlink:title=" ">
<polygon fill="white" stroke="red" points="104,-190.5 104,-209.5 208,-209.5 208,-190.5 104,-190.5"/>
<text text-anchor="middle" x="156" y="-197.5" font-family="Helvetica,sans-Serif" font-size="10.00">emlabcpp/either.h</text>
</a>
</g>
</g>
<!-- Node2&#45;&gt;Node3 -->
<g id="edge2" class="edge">
<title>Node2&#45;&gt;Node3</title>
<path fill="none" stroke="midnightblue" d="M217.04,-246.4C204.58,-237.13 188.3,-225.03 175.69,-215.65"/>
<polygon fill="midnightblue" stroke="midnightblue" points="177.75,-212.82 167.64,-209.66 173.58,-218.43 177.75,-212.82"/>
</g>
<!-- Node8 -->
<g id="node9" class="node">
<title>Node8</title>
<g id="a_node9"><a xlink:title=" ">
<polygon fill="white" stroke="#bfbfbf" points="422,-129 422,-148 472,-148 472,-129 422,-129"/>
<text text-anchor="middle" x="447" y="-136" font-family="Helvetica,sans-Serif" font-size="10.00">cstdint</text>
</a>
</g>
</g>
<!-- Node2&#45;&gt;Node8 -->
<g id="edge8" class="edge">
<title>Node2&#45;&gt;Node8</title>
<path fill="none" stroke="midnightblue" d="M236.97,-246.22C238.83,-230.27 244.25,-204.77 260,-190 281.88,-169.48 364.09,-153.04 411.91,-144.95"/>
<polygon fill="midnightblue" stroke="midnightblue" points="412.55,-148.39 421.84,-143.31 411.41,-141.49 412.55,-148.39"/>
</g>
<!-- Node35 -->
<g id="node10" class="node">
<title>Node35</title>
<g id="a_node10"><a xlink:title=" ">
<polygon fill="white" stroke="#bfbfbf" points="516.5,-129 516.5,-148 581.5,-148 581.5,-129 516.5,-129"/>
<text text-anchor="middle" x="549" y="-136" font-family="Helvetica,sans-Serif" font-size="10.00">functional</text>
</a>
</g>
</g>
<!-- Node2&#45;&gt;Node35 -->
<g id="edge9" class="edge">
<title>Node2&#45;&gt;Node35</title>
<path fill="none" stroke="midnightblue" d="M243.37,-246.35C252.65,-230.02 270.19,-203.68 293,-190 365.97,-146.26 397.62,-170.87 481,-154 489.16,-152.35 497.86,-150.54 506.21,-148.77"/>
<polygon fill="midnightblue" stroke="midnightblue" points="507.12,-152.15 516.17,-146.64 505.66,-145.31 507.12,-152.15"/>
</g>
<!-- Node3&#45;&gt;Node4 -->
<g id="edge3" class="edge">
<title>Node3&#45;&gt;Node4</title>
<path fill="none" stroke="midnightblue" d="M169.32,-190.48C184.38,-180.84 209.12,-165.02 227.04,-153.55"/>
<polygon fill="midnightblue" stroke="midnightblue" points="229.16,-156.35 235.7,-148.01 225.39,-150.45 229.16,-156.35"/>
</g>
<!-- Node16 -->
<g id="node5" class="node">
<title>Node16</title>
<g id="a_node5"><a xlink:href="pretty__printer_8h.html" target="_top" xlink:title=" ">
<polygon fill="white" stroke="red" points="182.5,-56.5 182.5,-86.5 315.5,-86.5 315.5,-56.5 182.5,-56.5"/>
<text text-anchor="start" x="190.5" y="-74.5" font-family="Helvetica,sans-Serif" font-size="10.00">emlabcpp/experimental</text>
<text text-anchor="middle" x="249" y="-63.5" font-family="Helvetica,sans-Serif" font-size="10.00">/pretty_printer.h</text>
</a>
</g>
</g>
<!-- Node4&#45;&gt;Node16 -->
<g id="edge4" class="edge">
<title>Node4&#45;&gt;Node16</title>
<path fill="none" stroke="midnightblue" d="M249,-128.73C249,-120.54 249,-107.92 249,-96.71"/>
<polygon fill="midnightblue" stroke="midnightblue" points="252.5,-96.59 249,-86.59 245.5,-96.59 252.5,-96.59"/>
</g>
<!-- Node16&#45;&gt;Node19 -->
<g id="edge5" class="edge">
<title>Node16&#45;&gt;Node19</title>
<path fill="none" stroke="midnightblue" d="M223.64,-56.4C206.33,-46.77 183.52,-34.09 166.42,-24.58"/>
<polygon fill="midnightblue" stroke="midnightblue" points="168.01,-21.46 157.57,-19.66 164.61,-27.58 168.01,-21.46"/>
</g>
<!-- Node16&#45;&gt;Node27 -->
<g id="edge6" class="edge">
<title>Node16&#45;&gt;Node27</title>
<path fill="none" stroke="midnightblue" d="M315.72,-65.01C468.15,-52.47 836.92,-22.12 943.01,-13.39"/>
<polygon fill="midnightblue" stroke="midnightblue" points="943.31,-16.87 952.99,-12.56 942.73,-9.9 943.31,-16.87"/>
</g>
<!-- Node29 -->
<g id="node8" class="node">
<title>Node29</title>
<g id="a_node8"><a xlink:title=" ">
<polygon fill="white" stroke="#bfbfbf" points="568,-0.5 568,-19.5 600,-19.5 600,-0.5 568,-0.5"/>
<text text-anchor="middle" x="584" y="-7.5" font-family="Helvetica,sans-Serif" font-size="10.00">set</text>
</a>
</g>
</g>
<!-- Node16&#45;&gt;Node29 -->
<g id="edge7" class="edge">
<title>Node16&#45;&gt;Node29</title>
<path fill="none" stroke="midnightblue" d="M315.59,-58.67C389.87,-45.48 506.37,-24.79 557.94,-15.63"/>
<polygon fill="midnightblue" stroke="midnightblue" points="558.69,-19.05 567.92,-13.86 557.47,-12.16 558.69,-19.05"/>
</g>
<!-- Node36&#45;&gt;Node16 -->
<g id="edge11" class="edge">
<title>Node36&#45;&gt;Node16</title>
<path fill="none" stroke="midnightblue" d="M128.42,-123.4C151.22,-113.77 181.63,-100.94 206.2,-90.56"/>
<polygon fill="midnightblue" stroke="midnightblue" points="207.8,-93.69 215.65,-86.58 205.08,-87.24 207.8,-93.69"/>
</g>
<!-- Node36&#45;&gt;Node19 -->
<g id="edge12" class="edge">
<title>Node36&#45;&gt;Node19</title>
<path fill="none" stroke="midnightblue" d="M104.13,-123.41C110.18,-113.54 117.92,-99.87 123,-87 130.47,-68.06 135.7,-45.29 138.75,-29.64"/>
<polygon fill="midnightblue" stroke="midnightblue" points="142.22,-30.13 140.6,-19.66 135.34,-28.86 142.22,-30.13"/>
</g>
<!-- Node37 -->
<g id="node12" class="node">
<title>Node37</title>
<g id="a_node12"><a xlink:title=" ">
<polygon fill="white" stroke="#bfbfbf" points="40.5,-62 40.5,-81 113.5,-81 113.5,-62 40.5,-62"/>
<text text-anchor="middle" x="77" y="-69" font-family="Helvetica,sans-Serif" font-size="10.00">string_view</text>
</a>
</g>
</g>
<!-- Node36&#45;&gt;Node37 -->
<g id="edge13" class="edge">
<title>Node36&#45;&gt;Node37</title>
<path fill="none" stroke="midnightblue" d="M91.09,-123.4C88.45,-113.86 84.94,-101.18 82.08,-90.86"/>
<polygon fill="midnightblue" stroke="midnightblue" points="85.45,-89.9 79.41,-81.19 78.7,-91.77 85.45,-89.9"/>
</g>
<!-- Node38&#45;&gt;Node27 -->
<g id="edge21" class="edge">
<title>Node38&#45;&gt;Node27</title>
<path fill="none" stroke="midnightblue" d="M901.3,-251.89C916.34,-243.42 937.33,-229.01 948,-210 981.04,-151.13 977.79,-67.2 974.27,-30"/>
<polygon fill="midnightblue" stroke="midnightblue" points="977.71,-29.23 973.17,-19.66 970.75,-29.97 977.71,-29.23"/>
</g>
<!-- Node38&#45;&gt;Node29 -->
<g id="edge23" class="edge">
<title>Node38&#45;&gt;Node29</title>
<path fill="none" stroke="midnightblue" d="M892.97,-251.92C906.07,-238.31 927.6,-211.13 915,-190 846.4,-74.91 675.29,-29.34 609.93,-15.77"/>
<polygon fill="midnightblue" stroke="midnightblue" points="610.53,-12.32 600.04,-13.79 609.16,-19.18 610.53,-12.32"/>
</g>
<!-- Node39 -->
<g id="node14" class="node">
<title>Node39</title>
<g id="a_node14"><a xlink:href="allocator_8h.html" target="_top" xlink:title=" ">
<polygon fill="white" stroke="red" points="764.5,-190.5 764.5,-209.5 905.5,-209.5 905.5,-190.5 764.5,-190.5"/>
<text text-anchor="middle" x="835" y="-197.5" font-family="Helvetica,sans-Serif" font-size="10.00">emlabcpp/pmr/allocator.h</text>
</a>
</g>
</g>
<!-- Node38&#45;&gt;Node39 -->
<g id="edge16" class="edge">
<title>Node38&#45;&gt;Node39</title>
<path fill="none" stroke="midnightblue" d="M876.98,-251.98C869.56,-242.96 857.67,-228.52 848.43,-217.31"/>
<polygon fill="midnightblue" stroke="midnightblue" points="851.07,-215 842.01,-209.51 845.66,-219.45 851.07,-215"/>
</g>
<!-- Node44 -->
<g id="node16" class="node">
<title>Node44</title>
<g id="a_node16"><a xlink:title=" ">
<polygon fill="white" stroke="#bfbfbf" points="699.5,-190.5 699.5,-209.5 746.5,-209.5 746.5,-190.5 699.5,-190.5"/>
<text text-anchor="middle" x="723" y="-197.5" font-family="Helvetica,sans-Serif" font-size="10.00">deque</text>
</a>
</g>
</g>
<!-- Node38&#45;&gt;Node44 -->
<g id="edge19" class="edge">
<title>Node38&#45;&gt;Node44</title>
<path fill="none" stroke="midnightblue" d="M860.93,-251.98C833.32,-241.77 786.88,-224.61 755.6,-213.05"/>
<polygon fill="midnightblue" stroke="midnightblue" points="756.62,-209.69 746.02,-209.51 754.19,-216.26 756.62,-209.69"/>
</g>
<!-- Node45 -->
<g id="node17" class="node">
<title>Node45</title>
<g id="a_node17"><a xlink:title=" ">
<polygon fill="white" stroke="#bfbfbf" points="1000,-190.5 1000,-209.5 1032,-209.5 1032,-190.5 1000,-190.5"/>
<text text-anchor="middle" x="1016" y="-197.5" font-family="Helvetica,sans-Serif" font-size="10.00">list</text>
</a>
</g>
</g>
<!-- Node38&#45;&gt;Node45 -->
<g id="edge20" class="edge">
<title>Node38&#45;&gt;Node45</title>
<path fill="none" stroke="midnightblue" d="M902.91,-251.98C925.82,-241.65 964.52,-224.21 990.16,-212.65"/>
<polygon fill="midnightblue" stroke="midnightblue" points="991.94,-215.68 999.62,-208.38 989.06,-209.3 991.94,-215.68"/>
</g>
<!-- Node46 -->
<g id="node18" class="node">
<title>Node46</title>
<g id="a_node18"><a xlink:title=" ">
<polygon fill="white" stroke="#bfbfbf" points="1050,-190.5 1050,-209.5 1108,-209.5 1108,-190.5 1050,-190.5"/>
<text text-anchor="middle" x="1079" y="-197.5" font-family="Helvetica,sans-Serif" font-size="10.00">memory</text>
</a>
</g>
</g>
<!-- Node38&#45;&gt;Node46 -->
<g id="edge22" class="edge">
<title>Node38&#45;&gt;Node46</title>
<path fill="none" stroke="midnightblue" d="M911.94,-251.98C945.97,-241.59 1003.58,-224.01 1041.46,-212.45"/>
<polygon fill="midnightblue" stroke="midnightblue" points="1042.57,-215.78 1051.11,-209.51 1040.53,-209.08 1042.57,-215.78"/>
</g>
<!-- Node12 -->
<g id="node19" class="node">
<title>Node12</title>
<g id="a_node19"><a xlink:title=" ">
<polygon fill="white" stroke="#bfbfbf" points="634.5,-190.5 634.5,-209.5 681.5,-209.5 681.5,-190.5 634.5,-190.5"/>
<text text-anchor="middle" x="658" y="-197.5" font-family="Helvetica,sans-Serif" font-size="10.00">vector</text>
</a>
</g>
</g>
<!-- Node38&#45;&gt;Node12 -->
<g id="edge24" class="edge">
<title>Node38&#45;&gt;Node12</title>
<path fill="none" stroke="midnightblue" d="M850.85,-251.94C814.33,-242.48 753.61,-226.68 691.72,-210.17"/>
<polygon fill="midnightblue" stroke="midnightblue" points="692.35,-206.72 681.79,-207.52 690.54,-213.48 692.35,-206.72"/>
</g>
<!-- Node39&#45;&gt;Node35 -->
<g id="edge18" class="edge">
<title>Node39&#45;&gt;Node35</title>
<path fill="none" stroke="midnightblue" d="M786.13,-190.44C739.24,-182 666.53,-168.32 604,-154 599.37,-152.94 594.54,-151.77 589.75,-150.56"/>
<polygon fill="midnightblue" stroke="midnightblue" points="590.59,-147.16 580.04,-148.06 588.85,-153.94 590.59,-147.16"/>
</g>
<!-- Node40 -->
<g id="node15" class="node">
<title>Node40</title>
<g id="a_node15"><a xlink:href="memory__resource_8h.html" target="_top" xlink:title=" ">
<polygon fill="white" stroke="red" points="612.5,-123.5 612.5,-153.5 743.5,-153.5 743.5,-123.5 612.5,-123.5"/>
<text text-anchor="start" x="620.5" y="-141.5" font-family="Helvetica,sans-Serif" font-size="10.00">emlabcpp/pmr/memory</text>
<text text-anchor="middle" x="678" y="-130.5" font-family="Helvetica,sans-Serif" font-size="10.00">_resource.h</text>
</a>
</g>
</g>
<!-- Node39&#45;&gt;Node40 -->
<g id="edge17" class="edge">
<title>Node39&#45;&gt;Node40</title>
<path fill="none" stroke="midnightblue" d="M812.51,-190.48C789.65,-181.81 753.59,-168.15 724.55,-157.14"/>
<polygon fill="midnightblue" stroke="midnightblue" points="725.59,-153.79 715,-153.52 723.11,-160.34 725.59,-153.79"/>
</g>
<!-- Node47&#45;&gt;Node4 -->
<g id="edge30" class="edge">
<title>Node47&#45;&gt;Node4</title>
<path fill="none" stroke="midnightblue" d="M434.2,-251.84C434.05,-237.12 431.58,-207.12 415,-190 392.4,-166.67 359.39,-154.03 328.75,-147.22"/>
<polygon fill="midnightblue" stroke="midnightblue" points="329.39,-143.78 318.9,-145.21 327.99,-150.64 329.39,-143.78"/>
</g>
<!-- Node47&#45;&gt;Node40 -->
<g id="edge26" class="edge">
<title>Node47&#45;&gt;Node40</title>
<path fill="none" stroke="midnightblue" d="M471.28,-252C503.18,-243.84 549.71,-229.84 587,-210 612.4,-196.49 638.01,-175.88 655.56,-160.43"/>
<polygon fill="midnightblue" stroke="midnightblue" points="657.91,-163.02 663.03,-153.74 653.24,-157.8 657.91,-163.02"/>
</g>
<!-- Node48 -->
<g id="node21" class="node">
<title>Node48</title>
<g id="a_node21"><a xlink:href="pmr_2util_8h.html" target="_top" xlink:title=" ">
<polygon fill="white" stroke="red" points="462.5,-190.5 462.5,-209.5 577.5,-209.5 577.5,-190.5 462.5,-190.5"/>
<text text-anchor="middle" x="520" y="-197.5" font-family="Helvetica,sans-Serif" font-size="10.00">emlabcpp/pmr/util.h</text>
</a>
</g>
</g>
<!-- Node47&#45;&gt;Node48 -->
<g id="edge27" class="edge">
<title>Node47&#45;&gt;Node48</title>
<path fill="none" stroke="midnightblue" d="M446.32,-251.98C460.12,-242.43 482.7,-226.81 499.23,-215.37"/>
<polygon fill="midnightblue" stroke="midnightblue" points="501.47,-218.08 507.7,-209.51 497.49,-212.32 501.47,-218.08"/>
</g>
<!-- Node49 -->
<g id="node22" class="node">
<title>Node49</title>
<g id="a_node22"><a xlink:href="range_8h.html" target="_top" xlink:title=" ">
<polygon fill="white" stroke="red" points="302,-190.5 302,-209.5 406,-209.5 406,-190.5 302,-190.5"/>
<text text-anchor="middle" x="354" y="-197.5" font-family="Helvetica,sans-Serif" font-size="10.00">emlabcpp/range.h</text>
</a>
</g>
</g>
<!-- Node47&#45;&gt;Node49 -->
<g id="edge29" class="edge">
<title>Node47&#45;&gt;Node49</title>
<path fill="none" stroke="midnightblue" d="M422.54,-251.98C409.83,-242.52 389.09,-227.1 373.75,-215.69"/>
<polygon fill="midnightblue" stroke="midnightblue" points="375.55,-212.67 365.44,-209.51 371.38,-218.29 375.55,-212.67"/>
</g>
<!-- Node48&#45;&gt;Node8 -->
<g id="edge28" class="edge">
<title>Node48&#45;&gt;Node8</title>
<path fill="none" stroke="midnightblue" d="M509.54,-190.48C498.05,-181.11 479.37,-165.88 465.41,-154.51"/>
<polygon fill="midnightblue" stroke="midnightblue" points="467.4,-151.61 457.44,-148.01 462.98,-157.04 467.4,-151.61"/>
</g>
</g>
</svg>
