<?xml version="1.0" encoding="UTF-8" standalone="no"?>
<!DOCTYPE svg PUBLIC "-//W3C//DTD SVG 1.1//EN"
 "http://www.w3.org/Graphics/SVG/1.1/DTD/svg11.dtd">
<!-- Generated by graphviz version 2.43.0 (0)
 -->
<!-- Title: include/emlabcpp/experimental/contiguous_tree/tree.h Pages: 1 -->
<svg width="1232pt" height="240pt"
 viewBox="0.00 0.00 1231.50 240.00" xmlns="http://www.w3.org/2000/svg" xmlns:xlink="http://www.w3.org/1999/xlink">
<g id="graph0" class="graph" transform="scale(1 1) rotate(0) translate(4 236)">
<title>include/emlabcpp/experimental/contiguous_tree/tree.h</title>
<polygon fill="white" stroke="transparent" points="-4,4 -4,-236 1227.5,-236 1227.5,4 -4,4"/>
<!-- Node1 -->
<g id="node1" class="node">
<title>Node1</title>
<g id="a_node1"><a xlink:title=" ">
<polygon fill="#bfbfbf" stroke="black" points="568,-201.5 568,-231.5 739,-231.5 739,-201.5 568,-201.5"/>
<text text-anchor="start" x="576" y="-219.5" font-family="Helvetica,sans-Serif" font-size="10.00">include/emlabcpp/experimental</text>
<text text-anchor="middle" x="653.5" y="-208.5" font-family="Helvetica,sans-Serif" font-size="10.00">/contiguous_tree/tree.h</text>
</a>
</g>
</g>
<!-- Node2 -->
<g id="node2" class="node">
<title>Node2</title>
<g id="a_node2"><a xlink:href="experimental_2contiguous__tree_2base_8h.html" target="_top" xlink:title=" ">
<polygon fill="white" stroke="black" points="587,-134.5 587,-164.5 720,-164.5 720,-134.5 587,-134.5"/>
<text text-anchor="start" x="595" y="-152.5" font-family="Helvetica,sans-Serif" font-size="10.00">emlabcpp/experimental</text>
<text text-anchor="middle" x="653.5" y="-141.5" font-family="Helvetica,sans-Serif" font-size="10.00">/contiguous_tree/base.h</text>
</a>
</g>
</g>
<!-- Node1&#45;&gt;Node2 -->
<g id="edge1" class="edge">
<title>Node1&#45;&gt;Node2</title>
<path fill="none" stroke="midnightblue" d="M653.5,-201.4C653.5,-193.64 653.5,-183.81 653.5,-174.86"/>
<polygon fill="midnightblue" stroke="midnightblue" points="657,-174.58 653.5,-164.58 650,-174.58 657,-174.58"/>
</g>
<!-- Node4 -->
<g id="node4" class="node">
<title>Node4</title>
<g id="a_node4"><a xlink:href="static__vector_8h.html" target="_top" xlink:title=" ">
<polygon fill="white" stroke="red" points="130,-6 130,-25 269,-25 269,-6 130,-6"/>
<text text-anchor="middle" x="199.5" y="-13" font-family="Helvetica,sans-Serif" font-size="10.00">emlabcpp/static_vector.h</text>
</a>
</g>
</g>
<!-- Node1&#45;&gt;Node4 -->
<g id="edge26" class="edge">
<title>Node1&#45;&gt;Node4</title>
<path fill="none" stroke="midnightblue" d="M567.84,-212.57C465.86,-207.75 302.76,-195.42 250.5,-165 218.39,-146.31 212.42,-133.19 200.5,-98 193.56,-77.53 194.55,-52.47 196.47,-35.59"/>
<polygon fill="midnightblue" stroke="midnightblue" points="199.98,-35.74 197.87,-25.36 193.05,-34.8 199.98,-35.74"/>
</g>
<!-- Node42 -->
<g id="node7" class="node">
<title>Node42</title>
<g id="a_node7"><a xlink:href="logging_8h.html" target="_top" xlink:title=" ">
<polygon fill="white" stroke="black" points="0,-67.5 0,-97.5 133,-97.5 133,-67.5 0,-67.5"/>
<text text-anchor="start" x="8" y="-85.5" font-family="Helvetica,sans-Serif" font-size="10.00">emlabcpp/experimental</text>
<text text-anchor="middle" x="66.5" y="-74.5" font-family="Helvetica,sans-Serif" font-size="10.00">/logging.h</text>
</a>
</g>
</g>
<!-- Node1&#45;&gt;Node42 -->
<g id="edge6" class="edge">
<title>Node1&#45;&gt;Node42</title>
<path fill="none" stroke="midnightblue" d="M567.75,-213.89C443.34,-210.38 219.75,-199.37 147.5,-165 119.85,-151.85 96.24,-125.17 81.76,-105.91"/>
<polygon fill="midnightblue" stroke="midnightblue" points="84.48,-103.7 75.77,-97.66 78.81,-107.81 84.48,-103.7"/>
</g>
<!-- Node19 -->
<g id="node9" class="node">
<title>Node19</title>
<g id="a_node9"><a xlink:href="match_8h.html" target="_top" xlink:title=" ">
<polygon fill="white" stroke="red" points="1091,-140 1091,-159 1198,-159 1198,-140 1091,-140"/>
<text text-anchor="middle" x="1144.5" y="-147" font-family="Helvetica,sans-Serif" font-size="10.00">emlabcpp/match.h</text>
</a>
</g>
</g>
<!-- Node1&#45;&gt;Node19 -->
<g id="edge8" class="edge">
<title>Node1&#45;&gt;Node19</title>
<path fill="none" stroke="midnightblue" d="M739.3,-207.58C824.99,-199.12 960.31,-184.28 1076.5,-165 1083.3,-163.87 1090.45,-162.52 1097.46,-161.11"/>
<polygon fill="midnightblue" stroke="midnightblue" points="1098.48,-164.48 1107.56,-159.02 1097.06,-157.62 1098.48,-164.48"/>
</g>
<!-- Node44 -->
<g id="node10" class="node">
<title>Node44</title>
<g id="a_node10"><a xlink:href="aliases_8h.html" target="_top" xlink:title=" ">
<polygon fill="white" stroke="black" points="900.5,-140 900.5,-159 1034.5,-159 1034.5,-140 900.5,-140"/>
<text text-anchor="middle" x="967.5" y="-147" font-family="Helvetica,sans-Serif" font-size="10.00">emlabcpp/pmr/aliases.h</text>
</a>
</g>
</g>
<!-- Node1&#45;&gt;Node44 -->
<g id="edge9" class="edge">
<title>Node1&#45;&gt;Node44</title>
<path fill="none" stroke="midnightblue" d="M721.25,-201.48C779.85,-189.34 863.3,-172.07 916.42,-161.07"/>
<polygon fill="midnightblue" stroke="midnightblue" points="917.22,-164.48 926.3,-159.03 915.8,-157.63 917.22,-164.48"/>
</g>
<!-- Node34 -->
<g id="node15" class="node">
<title>Node34</title>
<g id="a_node15"><a xlink:title=" ">
<polygon fill="white" stroke="#bfbfbf" points="1185.5,-73 1185.5,-92 1223.5,-92 1223.5,-73 1185.5,-73"/>
<text text-anchor="middle" x="1204.5" y="-80" font-family="Helvetica,sans-Serif" font-size="10.00">map</text>
</a>
</g>
</g>
<!-- Node1&#45;&gt;Node34 -->
<g id="edge27" class="edge">
<title>Node1&#45;&gt;Node34</title>
<path fill="none" stroke="midnightblue" d="M739.17,-209.79C836.97,-202.33 990.29,-187.51 1043.5,-165 1063.89,-156.37 1063.27,-144.98 1082.5,-134 1121.35,-111.82 1135.68,-116.31 1176.5,-98 1177.5,-97.55 1178.51,-97.09 1179.53,-96.61"/>
<polygon fill="midnightblue" stroke="midnightblue" points="1181.25,-99.66 1188.66,-92.09 1178.14,-93.39 1181.25,-99.66"/>
</g>
<!-- Node52 -->
<g id="node19" class="node">
<title>Node52</title>
<g id="a_node19"><a xlink:href="pool__resource_8h.html" target="_top" xlink:title=" ">
<polygon fill="white" stroke="black" points="260,-140 260,-159 427,-159 427,-140 260,-140"/>
<text text-anchor="middle" x="343.5" y="-147" font-family="Helvetica,sans-Serif" font-size="10.00">emlabcpp/pmr/pool_resource.h</text>
</a>
</g>
</g>
<!-- Node1&#45;&gt;Node52 -->
<g id="edge19" class="edge">
<title>Node1&#45;&gt;Node52</title>
<path fill="none" stroke="midnightblue" d="M586.62,-201.48C528.88,-189.37 446.72,-172.14 394.26,-161.14"/>
<polygon fill="midnightblue" stroke="midnightblue" points="394.68,-157.66 384.18,-159.03 393.24,-164.51 394.68,-157.66"/>
</g>
<!-- Node3 -->
<g id="node3" class="node">
<title>Node3</title>
<g id="a_node3"><a xlink:href="either_8h.html" target="_top" xlink:title=" ">
<polygon fill="white" stroke="red" points="483.5,-73 483.5,-92 587.5,-92 587.5,-73 483.5,-73"/>
<text text-anchor="middle" x="535.5" y="-80" font-family="Helvetica,sans-Serif" font-size="10.00">emlabcpp/either.h</text>
</a>
</g>
</g>
<!-- Node2&#45;&gt;Node3 -->
<g id="edge2" class="edge">
<title>Node2&#45;&gt;Node3</title>
<path fill="none" stroke="midnightblue" d="M627.9,-134.4C607.65,-123.24 579.58,-107.78 559.71,-96.83"/>
<polygon fill="midnightblue" stroke="midnightblue" points="561.39,-93.77 550.94,-92.01 558.01,-99.9 561.39,-93.77"/>
</g>
<!-- Node8 -->
<g id="node5" class="node">
<title>Node8</title>
<g id="a_node5"><a xlink:title=" ">
<polygon fill="white" stroke="#bfbfbf" points="431.5,-6 431.5,-25 481.5,-25 481.5,-6 431.5,-6"/>
<text text-anchor="middle" x="456.5" y="-13" font-family="Helvetica,sans-Serif" font-size="10.00">cstdint</text>
</a>
</g>
</g>
<!-- Node2&#45;&gt;Node8 -->
<g id="edge4" class="edge">
<title>Node2&#45;&gt;Node8</title>
<path fill="none" stroke="midnightblue" d="M647.04,-134.39C638.12,-116.35 620.36,-85.26 596.5,-67 565.39,-43.19 522.02,-29.87 491.83,-22.96"/>
<polygon fill="midnightblue" stroke="midnightblue" points="492.25,-19.47 481.74,-20.78 490.77,-26.32 492.25,-19.47"/>
</g>
<!-- Node22 -->
<g id="node6" class="node">
<title>Node22</title>
<g id="a_node6"><a xlink:title=" ">
<polygon fill="white" stroke="#bfbfbf" points="743,-6 743,-25 808,-25 808,-6 743,-6"/>
<text text-anchor="middle" x="775.5" y="-13" font-family="Helvetica,sans-Serif" font-size="10.00">functional</text>
</a>
</g>
</g>
<!-- Node2&#45;&gt;Node22 -->
<g id="edge5" class="edge">
<title>Node2&#45;&gt;Node22</title>
<path fill="none" stroke="midnightblue" d="M661.85,-134.33C672.25,-117.31 691.15,-88.39 711.5,-67 724.42,-53.42 741.1,-40.38 754.19,-30.95"/>
<polygon fill="midnightblue" stroke="midnightblue" points="756.43,-33.65 762.59,-25.04 752.4,-27.93 756.43,-33.65"/>
</g>
<!-- Node3&#45;&gt;Node4 -->
<g id="edge3" class="edge">
<title>Node3&#45;&gt;Node4</title>
<path fill="none" stroke="midnightblue" d="M500.15,-72.93C491.46,-70.9 482.16,-68.81 473.5,-67 400.18,-51.68 315.3,-36.41 259.67,-26.74"/>
<polygon fill="midnightblue" stroke="midnightblue" points="260.09,-23.26 249.64,-25 258.89,-30.16 260.09,-23.26"/>
</g>
<!-- Node43 -->
<g id="node8" class="node">
<title>Node43</title>
<g id="a_node8"><a xlink:title=" ">
<polygon fill="white" stroke="#bfbfbf" points="30,-6 30,-25 103,-25 103,-6 30,-6"/>
<text text-anchor="middle" x="66.5" y="-13" font-family="Helvetica,sans-Serif" font-size="10.00">string_view</text>
</a>
</g>
</g>
<!-- Node42&#45;&gt;Node43 -->
<g id="edge7" class="edge">
<title>Node42&#45;&gt;Node43</title>
<path fill="none" stroke="midnightblue" d="M66.5,-67.4C66.5,-58.06 66.5,-45.71 66.5,-35.52"/>
<polygon fill="midnightblue" stroke="midnightblue" points="70,-35.19 66.5,-25.19 63,-35.19 70,-35.19"/>
</g>
<!-- Node45 -->
<g id="node11" class="node">
<title>Node45</title>
<g id="a_node11"><a xlink:href="allocator_8h.html" target="_top" xlink:title=" ">
<polygon fill="white" stroke="red" points="720,-73 720,-92 861,-92 861,-73 720,-73"/>
<text text-anchor="middle" x="790.5" y="-80" font-family="Helvetica,sans-Serif" font-size="10.00">emlabcpp/pmr/allocator.h</text>
</a>
</g>
</g>
<!-- Node44&#45;&gt;Node45 -->
<g id="edge10" class="edge">
<title>Node44&#45;&gt;Node45</title>
<path fill="none" stroke="midnightblue" d="M944,-139.87C913.1,-128.52 858.64,-108.52 823.59,-95.65"/>
<polygon fill="midnightblue" stroke="midnightblue" points="824.41,-92.23 813.82,-92.06 822,-98.8 824.41,-92.23"/>
</g>
<!-- Node50 -->
<g id="node13" class="node">
<title>Node50</title>
<g id="a_node13"><a xlink:title=" ">
<polygon fill="white" stroke="#bfbfbf" points="944,-73 944,-92 991,-92 991,-73 944,-73"/>
<text text-anchor="middle" x="967.5" y="-80" font-family="Helvetica,sans-Serif" font-size="10.00">deque</text>
</a>
</g>
</g>
<!-- Node44&#45;&gt;Node50 -->
<g id="edge13" class="edge">
<title>Node44&#45;&gt;Node50</title>
<path fill="none" stroke="midnightblue" d="M967.5,-139.73C967.5,-130.18 967.5,-114.62 967.5,-102.28"/>
<polygon fill="midnightblue" stroke="midnightblue" points="971,-102.13 967.5,-92.13 964,-102.13 971,-102.13"/>
</g>
<!-- Node51 -->
<g id="node14" class="node">
<title>Node51</title>
<g id="a_node14"><a xlink:title=" ">
<polygon fill="white" stroke="#bfbfbf" points="1009.5,-73 1009.5,-92 1041.5,-92 1041.5,-73 1009.5,-73"/>
<text text-anchor="middle" x="1025.5" y="-80" font-family="Helvetica,sans-Serif" font-size="10.00">list</text>
</a>
</g>
</g>
<!-- Node44&#45;&gt;Node51 -->
<g id="edge14" class="edge">
<title>Node44&#45;&gt;Node51</title>
<path fill="none" stroke="midnightblue" d="M975.32,-139.73C984.45,-129.5 999.74,-112.36 1011.05,-99.69"/>
<polygon fill="midnightblue" stroke="midnightblue" points="1013.76,-101.92 1017.8,-92.13 1008.53,-97.26 1013.76,-101.92"/>
</g>
<!-- Node44&#45;&gt;Node34 -->
<g id="edge15" class="edge">
<title>Node44&#45;&gt;Node34</title>
<path fill="none" stroke="midnightblue" d="M1017.49,-139.94C1060.47,-131.75 1123.7,-117.72 1176.5,-98 1177.74,-97.54 1179,-97.03 1180.25,-96.5"/>
<polygon fill="midnightblue" stroke="midnightblue" points="1182.16,-99.46 1189.69,-92.01 1179.16,-93.14 1182.16,-99.46"/>
</g>
<!-- Node40 -->
<g id="node16" class="node">
<title>Node40</title>
<g id="a_node16"><a xlink:title=" ">
<polygon fill="white" stroke="#bfbfbf" points="1059.5,-73 1059.5,-92 1117.5,-92 1117.5,-73 1059.5,-73"/>
<text text-anchor="middle" x="1088.5" y="-80" font-family="Helvetica,sans-Serif" font-size="10.00">memory</text>
</a>
</g>
</g>
<!-- Node44&#45;&gt;Node40 -->
<g id="edge16" class="edge">
<title>Node44&#45;&gt;Node40</title>
<path fill="none" stroke="midnightblue" d="M983.82,-139.73C1004.32,-128.72 1039.7,-109.71 1063.59,-96.88"/>
<polygon fill="midnightblue" stroke="midnightblue" points="1065.29,-99.94 1072.44,-92.13 1061.97,-93.78 1065.29,-99.94"/>
</g>
<!-- Node36 -->
<g id="node17" class="node">
<title>Node36</title>
<g id="a_node17"><a xlink:title=" ">
<polygon fill="white" stroke="#bfbfbf" points="1135.5,-73 1135.5,-92 1167.5,-92 1167.5,-73 1135.5,-73"/>
<text text-anchor="middle" x="1151.5" y="-80" font-family="Helvetica,sans-Serif" font-size="10.00">set</text>
</a>
</g>
</g>
<!-- Node44&#45;&gt;Node36 -->
<g id="edge17" class="edge">
<title>Node44&#45;&gt;Node36</title>
<path fill="none" stroke="midnightblue" d="M1001.79,-139.94C1034.54,-131.22 1084.92,-116.4 1126.5,-98 1127.34,-97.63 1128.19,-97.23 1129.05,-96.82"/>
<polygon fill="midnightblue" stroke="midnightblue" points="1130.85,-99.83 1138.03,-92.03 1127.56,-93.65 1130.85,-99.83"/>
</g>
<!-- Node12 -->
<g id="node18" class="node">
<title>Node12</title>
<g id="a_node18"><a xlink:title=" ">
<polygon fill="white" stroke="#bfbfbf" points="879,-73 879,-92 926,-92 926,-73 879,-73"/>
<text text-anchor="middle" x="902.5" y="-80" font-family="Helvetica,sans-Serif" font-size="10.00">vector</text>
</a>
</g>
</g>
<!-- Node44&#45;&gt;Node12 -->
<g id="edge18" class="edge">
<title>Node44&#45;&gt;Node12</title>
<path fill="none" stroke="midnightblue" d="M958.73,-139.73C948.4,-129.4 931.04,-112.04 918.33,-99.33"/>
<polygon fill="midnightblue" stroke="midnightblue" points="920.67,-96.72 911.13,-92.13 915.72,-101.67 920.67,-96.72"/>
</g>
<!-- Node45&#45;&gt;Node22 -->
<g id="edge12" class="edge">
<title>Node45&#45;&gt;Node22</title>
<path fill="none" stroke="midnightblue" d="M788.48,-72.73C786.25,-63.09 782.61,-47.3 779.75,-34.91"/>
<polygon fill="midnightblue" stroke="midnightblue" points="783.15,-34.08 777.49,-25.13 776.33,-35.66 783.15,-34.08"/>
</g>
<!-- Node46 -->
<g id="node12" class="node">
<title>Node46</title>
<g id="a_node12"><a xlink:href="memory__resource_8h.html" target="_top" xlink:title=" ">
<polygon fill="white" stroke="red" points="565,-0.5 565,-30.5 696,-30.5 696,-0.5 565,-0.5"/>
<text text-anchor="start" x="573" y="-18.5" font-family="Helvetica,sans-Serif" font-size="10.00">emlabcpp/pmr/memory</text>
<text text-anchor="middle" x="630.5" y="-7.5" font-family="Helvetica,sans-Serif" font-size="10.00">_resource.h</text>
</a>
</g>
</g>
<!-- Node45&#45;&gt;Node46 -->
<g id="edge11" class="edge">
<title>Node45&#45;&gt;Node46</title>
<path fill="none" stroke="midnightblue" d="M769.25,-72.87C745.24,-63.12 705.5,-46.97 674.69,-34.45"/>
<polygon fill="midnightblue" stroke="midnightblue" points="675.61,-31.05 665.03,-30.53 672.98,-37.53 675.61,-31.05"/>
</g>
<!-- Node52&#45;&gt;Node4 -->
<g id="edge25" class="edge">
<title>Node52&#45;&gt;Node4</title>
<path fill="none" stroke="midnightblue" d="M294.37,-139.99C268.26,-132.99 237.68,-120.4 218.5,-98 203.55,-80.53 199.82,-53.52 199.16,-35.43"/>
<polygon fill="midnightblue" stroke="midnightblue" points="202.65,-35.23 199.07,-25.26 195.65,-35.29 202.65,-35.23"/>
</g>
<!-- Node52&#45;&gt;Node42 -->
<g id="edge20" class="edge">
<title>Node52&#45;&gt;Node42</title>
<path fill="none" stroke="midnightblue" d="M307,-139.94C263.71,-129.78 190.59,-112.62 136.32,-99.88"/>
<polygon fill="midnightblue" stroke="midnightblue" points="136.95,-96.44 126.41,-97.56 135.35,-103.25 136.95,-96.44"/>
</g>
<!-- Node52&#45;&gt;Node46 -->
<g id="edge21" class="edge">
<title>Node52&#45;&gt;Node46</title>
<path fill="none" stroke="midnightblue" d="M427.22,-140.29C490.58,-132.55 570.9,-118.97 596.5,-98 613.85,-83.79 622.47,-59.21 626.68,-40.75"/>
<polygon fill="midnightblue" stroke="midnightblue" points="630.16,-41.2 628.68,-30.71 623.29,-39.83 630.16,-41.2"/>
</g>
<!-- Node53 -->
<g id="node20" class="node">
<title>Node53</title>
<g id="a_node20"><a xlink:href="pmr_2util_8h.html" target="_top" xlink:title=" ">
<polygon fill="white" stroke="red" points="350,-73 350,-92 465,-92 465,-73 350,-73"/>
<text text-anchor="middle" x="407.5" y="-80" font-family="Helvetica,sans-Serif" font-size="10.00">emlabcpp/pmr/util.h</text>
</a>
</g>
</g>
<!-- Node52&#45;&gt;Node53 -->
<g id="edge22" class="edge">
<title>Node52&#45;&gt;Node53</title>
<path fill="none" stroke="midnightblue" d="M352.13,-139.73C362.3,-129.4 379.4,-112.04 391.91,-99.33"/>
<polygon fill="midnightblue" stroke="midnightblue" points="394.48,-101.71 399.01,-92.13 389.5,-96.8 394.48,-101.71"/>
</g>
<!-- Node23 -->
<g id="node21" class="node">
<title>Node23</title>
<g id="a_node21"><a xlink:href="range_8h.html" target="_top" xlink:title=" ">
<polygon fill="white" stroke="red" points="227.5,-73 227.5,-92 331.5,-92 331.5,-73 227.5,-73"/>
<text text-anchor="middle" x="279.5" y="-80" font-family="Helvetica,sans-Serif" font-size="10.00">emlabcpp/range.h</text>
</a>
</g>
</g>
<!-- Node52&#45;&gt;Node23 -->
<g id="edge24" class="edge">
<title>Node52&#45;&gt;Node23</title>
<path fill="none" stroke="midnightblue" d="M334.87,-139.73C324.7,-129.4 307.6,-112.04 295.09,-99.33"/>
<polygon fill="midnightblue" stroke="midnightblue" points="297.5,-96.8 287.99,-92.13 292.52,-101.71 297.5,-96.8"/>
</g>
<!-- Node53&#45;&gt;Node8 -->
<g id="edge23" class="edge">
<title>Node53&#45;&gt;Node8</title>
<path fill="none" stroke="midnightblue" d="M414.11,-72.73C421.68,-62.7 434.25,-46.01 443.74,-33.42"/>
<polygon fill="midnightblue" stroke="midnightblue" points="446.77,-35.22 450,-25.13 441.18,-31.01 446.77,-35.22"/>
</g>
</g>
</svg>
