<?xml version="1.0" encoding="UTF-8" standalone="no"?>
<!DOCTYPE svg PUBLIC "-//W3C//DTD SVG 1.1//EN"
 "http://www.w3.org/Graphics/SVG/1.1/DTD/svg11.dtd">
<!-- Generated by graphviz version 2.43.0 (0)
 -->
<!-- Title: include/emlabcpp/experimental/contiguous_tree/tree.h Pages: 1 -->
<svg width="1119pt" height="173pt"
 viewBox="0.00 0.00 1119.00 173.00" xmlns="http://www.w3.org/2000/svg" xmlns:xlink="http://www.w3.org/1999/xlink">
<g id="graph0" class="graph" transform="scale(1 1) rotate(0) translate(4 169)">
<title>include/emlabcpp/experimental/contiguous_tree/tree.h</title>
<polygon fill="white" stroke="transparent" points="-4,4 -4,-169 1115,-169 1115,4 -4,4"/>
<!-- Node1 -->
<g id="node1" class="node">
<title>Node1</title>
<g id="a_node1"><a xlink:title=" ">
<polygon fill="#bfbfbf" stroke="black" points="635,-134.5 635,-164.5 806,-164.5 806,-134.5 635,-134.5"/>
<text text-anchor="start" x="643" y="-152.5" font-family="Helvetica,sans-Serif" font-size="10.00">include/emlabcpp/experimental</text>
<text text-anchor="middle" x="720.5" y="-141.5" font-family="Helvetica,sans-Serif" font-size="10.00">/contiguous_tree/tree.h</text>
</a>
</g>
</g>
<!-- Node2 -->
<g id="node2" class="node">
<title>Node2</title>
<g id="a_node2"><a xlink:href="pool_8h.html" target="_top" xlink:title=" ">
<polygon fill="white" stroke="black" points="535.5,-67.5 535.5,-97.5 645.5,-97.5 645.5,-67.5 535.5,-67.5"/>
<text text-anchor="start" x="543.5" y="-85.5" font-family="Helvetica,sans-Serif" font-size="10.00">emlabcpp/allocator</text>
<text text-anchor="middle" x="590.5" y="-74.5" font-family="Helvetica,sans-Serif" font-size="10.00">/pool.h</text>
</a>
</g>
</g>
<!-- Node1&#45;&gt;Node2 -->
<g id="edge1" class="edge">
<title>Node1&#45;&gt;Node2</title>
<path fill="none" stroke="midnightblue" d="M692.29,-134.4C673.38,-124.94 648.28,-112.39 627.73,-102.12"/>
<polygon fill="midnightblue" stroke="midnightblue" points="629.16,-98.92 618.65,-97.58 626.03,-105.18 629.16,-98.92"/>
</g>
<!-- Node23 -->
<g id="node6" class="node">
<title>Node23</title>
<g id="a_node6"><a xlink:href="static__vector_8h.html" target="_top" xlink:title=" ">
<polygon fill="white" stroke="red" points="0,-6 0,-25 139,-25 139,-6 0,-6"/>
<text text-anchor="middle" x="69.5" y="-13" font-family="Helvetica,sans-Serif" font-size="10.00">emlabcpp/static_vector.h</text>
</a>
</g>
</g>
<!-- Node1&#45;&gt;Node23 -->
<g id="edge15" class="edge">
<title>Node1&#45;&gt;Node23</title>
<path fill="none" stroke="midnightblue" d="M651.45,-134.5C520.42,-107.93 238.41,-50.75 121.7,-27.09"/>
<polygon fill="midnightblue" stroke="midnightblue" points="122.09,-23.59 111.6,-25.04 120.7,-30.45 122.09,-23.59"/>
</g>
<!-- Node36 -->
<g id="node9" class="node">
<title>Node36</title>
<g id="a_node9"><a xlink:title=" ">
<polygon fill="white" stroke="#bfbfbf" points="845.5,-6 845.5,-25 883.5,-25 883.5,-6 845.5,-6"/>
<text text-anchor="middle" x="864.5" y="-13" font-family="Helvetica,sans-Serif" font-size="10.00">map</text>
</a>
</g>
</g>
<!-- Node1&#45;&gt;Node36 -->
<g id="edge16" class="edge">
<title>Node1&#45;&gt;Node36</title>
<path fill="none" stroke="midnightblue" d="M708.6,-134.47C695.35,-117.06 677.74,-87.22 693.5,-67 733.79,-15.31 775.21,-54.22 836.5,-31 837.71,-30.54 838.93,-30.04 840.16,-29.52"/>
<polygon fill="midnightblue" stroke="midnightblue" points="841.86,-32.59 849.39,-25.13 838.85,-26.27 841.86,-32.59"/>
</g>
<!-- Node39 -->
<g id="node13" class="node">
<title>Node39</title>
<g id="a_node13"><a xlink:href="experimental_2contiguous__tree_2base_8h.html" target="_top" xlink:title=" ">
<polygon fill="white" stroke="black" points="702,-67.5 702,-97.5 835,-97.5 835,-67.5 702,-67.5"/>
<text text-anchor="start" x="710" y="-85.5" font-family="Helvetica,sans-Serif" font-size="10.00">emlabcpp/experimental</text>
<text text-anchor="middle" x="768.5" y="-74.5" font-family="Helvetica,sans-Serif" font-size="10.00">/contiguous_tree/base.h</text>
</a>
</g>
</g>
<!-- Node1&#45;&gt;Node39 -->
<g id="edge12" class="edge">
<title>Node1&#45;&gt;Node39</title>
<path fill="none" stroke="midnightblue" d="M730.92,-134.4C737.08,-126.05 745.03,-115.29 752.02,-105.81"/>
<polygon fill="midnightblue" stroke="midnightblue" points="754.98,-107.7 758.11,-97.58 749.35,-103.54 754.98,-107.7"/>
</g>
<!-- Node40 -->
<g id="node14" class="node">
<title>Node40</title>
<g id="a_node14"><a xlink:href="logging_8h.html" target="_top" xlink:title=" ">
<polygon fill="white" stroke="black" points="853,-67.5 853,-97.5 986,-97.5 986,-67.5 853,-67.5"/>
<text text-anchor="start" x="861" y="-85.5" font-family="Helvetica,sans-Serif" font-size="10.00">emlabcpp/experimental</text>
<text text-anchor="middle" x="919.5" y="-74.5" font-family="Helvetica,sans-Serif" font-size="10.00">/logging.h</text>
</a>
</g>
</g>
<!-- Node1&#45;&gt;Node40 -->
<g id="edge13" class="edge">
<title>Node1&#45;&gt;Node40</title>
<path fill="none" stroke="midnightblue" d="M763.68,-134.4C793.93,-124.52 834.53,-111.25 866.71,-100.74"/>
<polygon fill="midnightblue" stroke="midnightblue" points="867.99,-104.01 876.4,-97.58 865.81,-97.35 867.99,-104.01"/>
</g>
<!-- Node27 -->
<g id="node15" class="node">
<title>Node27</title>
<g id="a_node15"><a xlink:href="match_8h.html" target="_top" xlink:title=" ">
<polygon fill="white" stroke="red" points="1004,-73 1004,-92 1111,-92 1111,-73 1004,-73"/>
<text text-anchor="middle" x="1057.5" y="-80" font-family="Helvetica,sans-Serif" font-size="10.00">emlabcpp/match.h</text>
</a>
</g>
</g>
<!-- Node1&#45;&gt;Node27 -->
<g id="edge14" class="edge">
<title>Node1&#45;&gt;Node27</title>
<path fill="none" stroke="midnightblue" d="M802.83,-134.45C857.57,-124.84 930.99,-111.46 995.5,-98 1000.98,-96.86 1006.71,-95.6 1012.39,-94.32"/>
<polygon fill="midnightblue" stroke="midnightblue" points="1013.52,-97.65 1022.48,-92 1011.95,-90.83 1013.52,-97.65"/>
</g>
<!-- Node3 -->
<g id="node3" class="node">
<title>Node3</title>
<g id="a_node3"><a xlink:href="util_8h.html" target="_top" xlink:title=" ">
<polygon fill="white" stroke="red" points="157.5,-0.5 157.5,-30.5 267.5,-30.5 267.5,-0.5 157.5,-0.5"/>
<text text-anchor="start" x="165.5" y="-18.5" font-family="Helvetica,sans-Serif" font-size="10.00">emlabcpp/allocator</text>
<text text-anchor="middle" x="212.5" y="-7.5" font-family="Helvetica,sans-Serif" font-size="10.00">/util.h</text>
</a>
</g>
</g>
<!-- Node2&#45;&gt;Node3 -->
<g id="edge2" class="edge">
<title>Node2&#45;&gt;Node3</title>
<path fill="none" stroke="midnightblue" d="M535.29,-73.7C474.52,-64.88 373.73,-49.53 277.51,-31.13"/>
<polygon fill="midnightblue" stroke="midnightblue" points="278.09,-27.67 267.61,-29.22 276.77,-34.55 278.09,-27.67"/>
</g>
<!-- Node6 -->
<g id="node4" class="node">
<title>Node6</title>
<g id="a_node4"><a xlink:href="assert_8h.html" target="_top" xlink:title=" ">
<polygon fill="white" stroke="red" points="286,-6 286,-25 393,-25 393,-6 286,-6"/>
<text text-anchor="middle" x="339.5" y="-13" font-family="Helvetica,sans-Serif" font-size="10.00">emlabcpp/assert.h</text>
</a>
</g>
</g>
<!-- Node2&#45;&gt;Node6 -->
<g id="edge3" class="edge">
<title>Node2&#45;&gt;Node6</title>
<path fill="none" stroke="midnightblue" d="M536.35,-67.48C490.18,-55.52 424.73,-38.57 382.2,-27.56"/>
<polygon fill="midnightblue" stroke="midnightblue" points="382.99,-24.15 372.43,-25.03 381.24,-30.92 382.99,-24.15"/>
</g>
<!-- Node8 -->
<g id="node5" class="node">
<title>Node8</title>
<g id="a_node5"><a xlink:href="numeric_8h.html" target="_top" xlink:title=" ">
<polygon fill="white" stroke="red" points="411,-0.5 411,-30.5 520,-30.5 520,-0.5 411,-0.5"/>
<text text-anchor="start" x="419" y="-18.5" font-family="Helvetica,sans-Serif" font-size="10.00">emlabcpp/iterators</text>
<text text-anchor="middle" x="465.5" y="-7.5" font-family="Helvetica,sans-Serif" font-size="10.00">/numeric.h</text>
</a>
</g>
</g>
<!-- Node2&#45;&gt;Node8 -->
<g id="edge4" class="edge">
<title>Node2&#45;&gt;Node8</title>
<path fill="none" stroke="midnightblue" d="M563.38,-67.4C545.28,-57.98 521.27,-45.5 501.57,-35.26"/>
<polygon fill="midnightblue" stroke="midnightblue" points="503.06,-32.08 492.57,-30.58 499.83,-38.3 503.06,-32.08"/>
</g>
<!-- Node2&#45;&gt;Node23 -->
<g id="edge5" class="edge">
<title>Node2&#45;&gt;Node23</title>
<path fill="none" stroke="midnightblue" d="M535.22,-76.4C451.38,-68.39 287.16,-51.62 148.5,-31 140.17,-29.76 131.38,-28.3 122.8,-26.79"/>
<polygon fill="midnightblue" stroke="midnightblue" points="123.34,-23.33 112.87,-25.01 122.1,-30.22 123.34,-23.33"/>
</g>
<!-- Node34 -->
<g id="node7" class="node">
<title>Node34</title>
<g id="a_node7"><a xlink:title=" ">
<polygon fill="white" stroke="#bfbfbf" points="538,-6 538,-25 585,-25 585,-6 538,-6"/>
<text text-anchor="middle" x="561.5" y="-13" font-family="Helvetica,sans-Serif" font-size="10.00">deque</text>
</a>
</g>
</g>
<!-- Node2&#45;&gt;Node34 -->
<g id="edge6" class="edge">
<title>Node2&#45;&gt;Node34</title>
<path fill="none" stroke="midnightblue" d="M584.21,-67.4C579.91,-57.76 574.18,-44.91 569.55,-34.54"/>
<polygon fill="midnightblue" stroke="midnightblue" points="572.65,-32.9 565.38,-25.19 566.26,-35.75 572.65,-32.9"/>
</g>
<!-- Node35 -->
<g id="node8" class="node">
<title>Node35</title>
<g id="a_node8"><a xlink:title=" ">
<polygon fill="white" stroke="#bfbfbf" points="603.5,-6 603.5,-25 635.5,-25 635.5,-6 603.5,-6"/>
<text text-anchor="middle" x="619.5" y="-13" font-family="Helvetica,sans-Serif" font-size="10.00">list</text>
</a>
</g>
</g>
<!-- Node2&#45;&gt;Node35 -->
<g id="edge7" class="edge">
<title>Node2&#45;&gt;Node35</title>
<path fill="none" stroke="midnightblue" d="M596.79,-67.4C601.09,-57.76 606.82,-44.91 611.45,-34.54"/>
<polygon fill="midnightblue" stroke="midnightblue" points="614.74,-35.75 615.62,-25.19 608.35,-32.9 614.74,-35.75"/>
</g>
<!-- Node2&#45;&gt;Node36 -->
<g id="edge8" class="edge">
<title>Node2&#45;&gt;Node36</title>
<path fill="none" stroke="midnightblue" d="M645.85,-69.83C650.47,-68.87 655.06,-67.92 659.5,-67 738.11,-50.75 760.8,-57.71 836.5,-31 837.75,-30.56 839.01,-30.07 840.27,-29.55"/>
<polygon fill="midnightblue" stroke="midnightblue" points="842.16,-32.53 849.73,-25.12 839.19,-26.19 842.16,-32.53"/>
</g>
<!-- Node37 -->
<g id="node10" class="node">
<title>Node37</title>
<g id="a_node10"><a xlink:title=" ">
<polygon fill="white" stroke="#bfbfbf" points="653.5,-6 653.5,-25 711.5,-25 711.5,-6 653.5,-6"/>
<text text-anchor="middle" x="682.5" y="-13" font-family="Helvetica,sans-Serif" font-size="10.00">memory</text>
</a>
</g>
</g>
<!-- Node2&#45;&gt;Node37 -->
<g id="edge9" class="edge">
<title>Node2&#45;&gt;Node37</title>
<path fill="none" stroke="midnightblue" d="M610.46,-67.4C625.75,-56.6 646.75,-41.76 662.14,-30.89"/>
<polygon fill="midnightblue" stroke="midnightblue" points="664.31,-33.64 670.46,-25.01 660.27,-27.92 664.31,-33.64"/>
</g>
<!-- Node38 -->
<g id="node11" class="node">
<title>Node38</title>
<g id="a_node11"><a xlink:title=" ">
<polygon fill="white" stroke="#bfbfbf" points="729.5,-6 729.5,-25 761.5,-25 761.5,-6 729.5,-6"/>
<text text-anchor="middle" x="745.5" y="-13" font-family="Helvetica,sans-Serif" font-size="10.00">set</text>
</a>
</g>
</g>
<!-- Node2&#45;&gt;Node38 -->
<g id="edge10" class="edge">
<title>Node2&#45;&gt;Node38</title>
<path fill="none" stroke="midnightblue" d="M631.3,-67.5C657.27,-58.13 691.37,-45 720.5,-31 721.2,-30.67 721.9,-30.32 722.6,-29.96"/>
<polygon fill="midnightblue" stroke="midnightblue" points="724.58,-32.87 731.69,-25.02 721.23,-26.72 724.58,-32.87"/>
</g>
<!-- Node18 -->
<g id="node12" class="node">
<title>Node18</title>
<g id="a_node12"><a xlink:title=" ">
<polygon fill="white" stroke="#bfbfbf" points="780,-6 780,-25 827,-25 827,-6 780,-6"/>
<text text-anchor="middle" x="803.5" y="-13" font-family="Helvetica,sans-Serif" font-size="10.00">vector</text>
</a>
</g>
</g>
<!-- Node2&#45;&gt;Node18 -->
<g id="edge11" class="edge">
<title>Node2&#45;&gt;Node18</title>
<path fill="none" stroke="midnightblue" d="M645.88,-68.11C681.8,-58.91 729.4,-45.71 770.5,-31 772.16,-30.41 773.86,-29.77 775.56,-29.1"/>
<polygon fill="midnightblue" stroke="midnightblue" points="777.3,-32.17 785.18,-25.09 774.61,-25.7 777.3,-32.17"/>
</g>
</g>
</svg>
