<?xml version="1.0" encoding="UTF-8" standalone="no"?>
<!DOCTYPE svg PUBLIC "-//W3C//DTD SVG 1.1//EN"
 "http://www.w3.org/Graphics/SVG/1.1/DTD/svg11.dtd">
<!-- Generated by graphviz version 2.43.0 (0)
 -->
<!-- Title: include/emlabcpp/experimental/contiguous_tree/tree.h Pages: 1 -->
<svg width="1176pt" height="229pt"
 viewBox="0.00 0.00 1175.50 229.00" xmlns="http://www.w3.org/2000/svg" xmlns:xlink="http://www.w3.org/1999/xlink">
<g id="graph0" class="graph" transform="scale(1 1) rotate(0) translate(4 225)">
<title>include/emlabcpp/experimental/contiguous_tree/tree.h</title>
<polygon fill="white" stroke="transparent" points="-4,4 -4,-225 1171.5,-225 1171.5,4 -4,4"/>
<!-- Node1 -->
<g id="node1" class="node">
<title>Node1</title>
<g id="a_node1"><a xlink:title=" ">
<polygon fill="#bfbfbf" stroke="black" points="392,-190.5 392,-220.5 563,-220.5 563,-190.5 392,-190.5"/>
<text text-anchor="start" x="400" y="-208.5" font-family="Helvetica,sans-Serif" font-size="10.00">include/emlabcpp/experimental</text>
<text text-anchor="middle" x="477.5" y="-197.5" font-family="Helvetica,sans-Serif" font-size="10.00">/contiguous_tree/tree.h</text>
</a>
</g>
</g>
<!-- Node2 -->
<g id="node2" class="node">
<title>Node2</title>
<g id="a_node2"><a xlink:href="experimental_2contiguous__tree_2base_8h.html" target="_top" xlink:title=" ">
<polygon fill="white" stroke="black" points="102,-123.5 102,-153.5 235,-153.5 235,-123.5 102,-123.5"/>
<text text-anchor="start" x="110" y="-141.5" font-family="Helvetica,sans-Serif" font-size="10.00">emlabcpp/experimental</text>
<text text-anchor="middle" x="168.5" y="-130.5" font-family="Helvetica,sans-Serif" font-size="10.00">/contiguous_tree/base.h</text>
</a>
</g>
</g>
<!-- Node1&#45;&gt;Node2 -->
<g id="edge1" class="edge">
<title>Node1&#45;&gt;Node2</title>
<path fill="none" stroke="midnightblue" d="M410.83,-190.48C362.1,-180.22 295.9,-166.3 245.01,-155.59"/>
<polygon fill="midnightblue" stroke="midnightblue" points="245.55,-152.13 235.05,-153.5 244.11,-158.98 245.55,-152.13"/>
</g>
<!-- Node4 -->
<g id="node4" class="node">
<title>Node4</title>
<g id="a_node4"><a xlink:href="static__vector_8h.html" target="_top" xlink:title=" ">
<polygon fill="white" stroke="red" points="0,-6 0,-25 139,-25 139,-6 0,-6"/>
<text text-anchor="middle" x="69.5" y="-13" font-family="Helvetica,sans-Serif" font-size="10.00">emlabcpp/static_vector.h</text>
</a>
</g>
</g>
<!-- Node1&#45;&gt;Node4 -->
<g id="edge24" class="edge">
<title>Node1&#45;&gt;Node4</title>
<path fill="none" stroke="midnightblue" d="M391.63,-198.62C295.03,-191.06 144.77,-176.21 92.5,-154 48.55,-135.32 29.22,-130.03 8.5,-87 -2.38,-64.42 22.23,-43.35 43.37,-30.24"/>
<polygon fill="midnightblue" stroke="midnightblue" points="45.25,-33.2 52.11,-25.12 41.71,-27.16 45.25,-33.2"/>
</g>
<!-- Node26 -->
<g id="node7" class="node">
<title>Node26</title>
<g id="a_node7"><a xlink:href="match_8h.html" target="_top" xlink:title=" ">
<polygon fill="white" stroke="black" points="1000,-129 1000,-148 1107,-148 1107,-129 1000,-129"/>
<text text-anchor="middle" x="1053.5" y="-136" font-family="Helvetica,sans-Serif" font-size="10.00">emlabcpp/match.h</text>
</a>
</g>
</g>
<!-- Node1&#45;&gt;Node26 -->
<g id="edge6" class="edge">
<title>Node1&#45;&gt;Node26</title>
<path fill="none" stroke="midnightblue" d="M563.16,-194.91C653.52,-184.78 800.04,-168.33 926.5,-154 947.06,-151.67 969.49,-149.11 989.71,-146.8"/>
<polygon fill="midnightblue" stroke="midnightblue" points="990.2,-150.27 999.74,-145.66 989.41,-143.32 990.2,-150.27"/>
</g>
<!-- Node29 -->
<g id="node9" class="node">
<title>Node29</title>
<g id="a_node9"><a xlink:href="aliases_8h.html" target="_top" xlink:title=" ">
<polygon fill="white" stroke="black" points="363.5,-129 363.5,-148 497.5,-148 497.5,-129 363.5,-129"/>
<text text-anchor="middle" x="430.5" y="-136" font-family="Helvetica,sans-Serif" font-size="10.00">emlabcpp/pmr/aliases.h</text>
</a>
</g>
</g>
<!-- Node1&#45;&gt;Node29 -->
<g id="edge8" class="edge">
<title>Node1&#45;&gt;Node29</title>
<path fill="none" stroke="midnightblue" d="M467.3,-190.4C460.12,-180.46 450.46,-167.11 442.84,-156.57"/>
<polygon fill="midnightblue" stroke="midnightblue" points="445.48,-154.25 436.79,-148.19 439.81,-158.35 445.48,-154.25"/>
</g>
<!-- Node45 -->
<g id="node14" class="node">
<title>Node45</title>
<g id="a_node14"><a xlink:title=" ">
<polygon fill="white" stroke="#bfbfbf" points="522.5,-67.5 522.5,-86.5 560.5,-86.5 560.5,-67.5 522.5,-67.5"/>
<text text-anchor="middle" x="541.5" y="-74.5" font-family="Helvetica,sans-Serif" font-size="10.00">map</text>
</a>
</g>
</g>
<!-- Node1&#45;&gt;Node45 -->
<g id="edge25" class="edge">
<title>Node1&#45;&gt;Node45</title>
<path fill="none" stroke="midnightblue" d="M486.23,-190.11C492.17,-180.1 500.1,-166.4 506.5,-154 516.57,-134.49 526.95,-111.53 533.76,-95.99"/>
<polygon fill="midnightblue" stroke="midnightblue" points="537.09,-97.12 537.86,-86.55 530.67,-94.33 537.09,-97.12"/>
</g>
<!-- Node47 -->
<g id="node18" class="node">
<title>Node47</title>
<g id="a_node18"><a xlink:href="pool__resource_8h.html" target="_top" xlink:title=" ">
<polygon fill="white" stroke="black" points="750,-129 750,-148 917,-148 917,-129 750,-129"/>
<text text-anchor="middle" x="833.5" y="-136" font-family="Helvetica,sans-Serif" font-size="10.00">emlabcpp/pmr/pool_resource.h</text>
</a>
</g>
</g>
<!-- Node1&#45;&gt;Node47 -->
<g id="edge18" class="edge">
<title>Node1&#45;&gt;Node47</title>
<path fill="none" stroke="midnightblue" d="M554.31,-190.48C621.16,-178.27 716.54,-160.86 776.71,-149.87"/>
<polygon fill="midnightblue" stroke="midnightblue" points="777.58,-153.27 786.79,-148.03 776.32,-146.38 777.58,-153.27"/>
</g>
<!-- Node3 -->
<g id="node3" class="node">
<title>Node3</title>
<g id="a_node3"><a xlink:href="either_8h.html" target="_top" xlink:title=" ">
<polygon fill="white" stroke="red" points="17.5,-67.5 17.5,-86.5 121.5,-86.5 121.5,-67.5 17.5,-67.5"/>
<text text-anchor="middle" x="69.5" y="-74.5" font-family="Helvetica,sans-Serif" font-size="10.00">emlabcpp/either.h</text>
</a>
</g>
</g>
<!-- Node2&#45;&gt;Node3 -->
<g id="edge2" class="edge">
<title>Node2&#45;&gt;Node3</title>
<path fill="none" stroke="midnightblue" d="M145.04,-123.4C129.17,-113.86 108.31,-101.32 92.53,-91.84"/>
<polygon fill="midnightblue" stroke="midnightblue" points="94.28,-88.81 83.91,-86.66 90.67,-94.81 94.28,-88.81"/>
</g>
<!-- Node8 -->
<g id="node5" class="node">
<title>Node8</title>
<g id="a_node5"><a xlink:title=" ">
<polygon fill="white" stroke="#bfbfbf" points="641.5,-6 641.5,-25 691.5,-25 691.5,-6 641.5,-6"/>
<text text-anchor="middle" x="666.5" y="-13" font-family="Helvetica,sans-Serif" font-size="10.00">cstdint</text>
</a>
</g>
</g>
<!-- Node2&#45;&gt;Node8 -->
<g id="edge4" class="edge">
<title>Node2&#45;&gt;Node8</title>
<path fill="none" stroke="midnightblue" d="M171.85,-123.45C176.57,-106.96 186.9,-80.21 206.5,-67 224.11,-55.13 526.56,-28.41 631.21,-19.47"/>
<polygon fill="midnightblue" stroke="midnightblue" points="631.61,-22.95 641.27,-18.62 631.01,-15.98 631.61,-22.95"/>
</g>
<!-- Node25 -->
<g id="node6" class="node">
<title>Node25</title>
<g id="a_node6"><a xlink:title=" ">
<polygon fill="white" stroke="#bfbfbf" points="402,-6 402,-25 467,-25 467,-6 402,-6"/>
<text text-anchor="middle" x="434.5" y="-13" font-family="Helvetica,sans-Serif" font-size="10.00">functional</text>
</a>
</g>
</g>
<!-- Node2&#45;&gt;Node25 -->
<g id="edge5" class="edge">
<title>Node2&#45;&gt;Node25</title>
<path fill="none" stroke="midnightblue" d="M164.96,-123.42C161.92,-107.66 159.91,-82.33 173.5,-67 201.76,-35.12 325.01,-22.96 391.54,-18.65"/>
<polygon fill="midnightblue" stroke="midnightblue" points="391.94,-22.13 401.7,-18.03 391.51,-15.15 391.94,-22.13"/>
</g>
<!-- Node3&#45;&gt;Node4 -->
<g id="edge3" class="edge">
<title>Node3&#45;&gt;Node4</title>
<path fill="none" stroke="midnightblue" d="M69.5,-67.48C69.5,-59.08 69.5,-45.98 69.5,-35.16"/>
<polygon fill="midnightblue" stroke="midnightblue" points="73,-35.01 69.5,-25.01 66,-35.01 73,-35.01"/>
</g>
<!-- Node27 -->
<g id="node8" class="node">
<title>Node27</title>
<g id="a_node8"><a xlink:href="visit_8h.html" target="_top" xlink:title=" ">
<polygon fill="white" stroke="red" points="1069.5,-67.5 1069.5,-86.5 1167.5,-86.5 1167.5,-67.5 1069.5,-67.5"/>
<text text-anchor="middle" x="1118.5" y="-74.5" font-family="Helvetica,sans-Serif" font-size="10.00">emlabcpp/visit.h</text>
</a>
</g>
</g>
<!-- Node26&#45;&gt;Node27 -->
<g id="edge7" class="edge">
<title>Node26&#45;&gt;Node27</title>
<path fill="none" stroke="midnightblue" d="M1062.81,-128.98C1072.95,-119.7 1089.36,-104.67 1101.75,-93.33"/>
<polygon fill="midnightblue" stroke="midnightblue" points="1104.19,-95.84 1109.2,-86.51 1099.46,-90.68 1104.19,-95.84"/>
</g>
<!-- Node30 -->
<g id="node10" class="node">
<title>Node30</title>
<g id="a_node10"><a xlink:href="allocator_8h.html" target="_top" xlink:title=" ">
<polygon fill="white" stroke="red" points="617,-67.5 617,-86.5 758,-86.5 758,-67.5 617,-67.5"/>
<text text-anchor="middle" x="687.5" y="-74.5" font-family="Helvetica,sans-Serif" font-size="10.00">emlabcpp/pmr/allocator.h</text>
</a>
</g>
</g>
<!-- Node29&#45;&gt;Node30 -->
<g id="edge9" class="edge">
<title>Node29&#45;&gt;Node30</title>
<path fill="none" stroke="midnightblue" d="M467.32,-128.98C513.03,-118.39 591.03,-100.34 640.87,-88.8"/>
<polygon fill="midnightblue" stroke="midnightblue" points="641.79,-92.17 650.75,-86.51 640.21,-85.35 641.79,-92.17"/>
</g>
<!-- Node43 -->
<g id="node12" class="node">
<title>Node43</title>
<g id="a_node12"><a xlink:title=" ">
<polygon fill="white" stroke="#bfbfbf" points="281,-67.5 281,-86.5 328,-86.5 328,-67.5 281,-67.5"/>
<text text-anchor="middle" x="304.5" y="-74.5" font-family="Helvetica,sans-Serif" font-size="10.00">deque</text>
</a>
</g>
</g>
<!-- Node29&#45;&gt;Node43 -->
<g id="edge12" class="edge">
<title>Node29&#45;&gt;Node43</title>
<path fill="none" stroke="midnightblue" d="M412.45,-128.98C391.3,-118.99 356.06,-102.35 331.62,-90.81"/>
<polygon fill="midnightblue" stroke="midnightblue" points="333.06,-87.61 322.52,-86.51 330.07,-93.94 333.06,-87.61"/>
</g>
<!-- Node44 -->
<g id="node13" class="node">
<title>Node44</title>
<g id="a_node13"><a xlink:title=" ">
<polygon fill="white" stroke="#bfbfbf" points="346.5,-67.5 346.5,-86.5 378.5,-86.5 378.5,-67.5 346.5,-67.5"/>
<text text-anchor="middle" x="362.5" y="-74.5" font-family="Helvetica,sans-Serif" font-size="10.00">list</text>
</a>
</g>
</g>
<!-- Node29&#45;&gt;Node44 -->
<g id="edge13" class="edge">
<title>Node29&#45;&gt;Node44</title>
<path fill="none" stroke="midnightblue" d="M420.76,-128.98C410.15,-119.7 392.98,-104.67 380.02,-93.33"/>
<polygon fill="midnightblue" stroke="midnightblue" points="382.06,-90.46 372.22,-86.51 377.45,-95.73 382.06,-90.46"/>
</g>
<!-- Node29&#45;&gt;Node45 -->
<g id="edge14" class="edge">
<title>Node29&#45;&gt;Node45</title>
<path fill="none" stroke="midnightblue" d="M446.4,-128.98C464.78,-119.12 495.26,-102.79 516.74,-91.27"/>
<polygon fill="midnightblue" stroke="midnightblue" points="518.47,-94.32 525.63,-86.51 515.16,-88.15 518.47,-94.32"/>
</g>
<!-- Node18 -->
<g id="node15" class="node">
<title>Node18</title>
<g id="a_node15"><a xlink:title=" ">
<polygon fill="white" stroke="#bfbfbf" points="396.5,-67.5 396.5,-86.5 454.5,-86.5 454.5,-67.5 396.5,-67.5"/>
<text text-anchor="middle" x="425.5" y="-74.5" font-family="Helvetica,sans-Serif" font-size="10.00">memory</text>
</a>
</g>
</g>
<!-- Node29&#45;&gt;Node18 -->
<g id="edge15" class="edge">
<title>Node29&#45;&gt;Node18</title>
<path fill="none" stroke="midnightblue" d="M429.78,-128.98C429.08,-120.58 427.98,-107.48 427.07,-96.66"/>
<polygon fill="midnightblue" stroke="midnightblue" points="430.54,-96.18 426.22,-86.51 423.56,-96.77 430.54,-96.18"/>
</g>
<!-- Node46 -->
<g id="node16" class="node">
<title>Node46</title>
<g id="a_node16"><a xlink:title=" ">
<polygon fill="white" stroke="#bfbfbf" points="472.5,-67.5 472.5,-86.5 504.5,-86.5 504.5,-67.5 472.5,-67.5"/>
<text text-anchor="middle" x="488.5" y="-74.5" font-family="Helvetica,sans-Serif" font-size="10.00">set</text>
</a>
</g>
</g>
<!-- Node29&#45;&gt;Node46 -->
<g id="edge16" class="edge">
<title>Node29&#45;&gt;Node46</title>
<path fill="none" stroke="midnightblue" d="M438.81,-128.98C447.68,-119.87 461.95,-105.24 472.92,-93.98"/>
<polygon fill="midnightblue" stroke="midnightblue" points="475.73,-96.11 480.21,-86.51 470.72,-91.23 475.73,-96.11"/>
</g>
<!-- Node12 -->
<g id="node17" class="node">
<title>Node12</title>
<g id="a_node17"><a xlink:title=" ">
<polygon fill="white" stroke="#bfbfbf" points="216,-67.5 216,-86.5 263,-86.5 263,-67.5 216,-67.5"/>
<text text-anchor="middle" x="239.5" y="-74.5" font-family="Helvetica,sans-Serif" font-size="10.00">vector</text>
</a>
</g>
</g>
<!-- Node29&#45;&gt;Node12 -->
<g id="edge17" class="edge">
<title>Node29&#45;&gt;Node12</title>
<path fill="none" stroke="midnightblue" d="M403.13,-128.98C368.81,-118.28 310,-99.96 273.02,-88.44"/>
<polygon fill="midnightblue" stroke="midnightblue" points="273.79,-85.02 263.2,-85.38 271.71,-91.7 273.79,-85.02"/>
</g>
<!-- Node30&#45;&gt;Node25 -->
<g id="edge11" class="edge">
<title>Node30&#45;&gt;Node25</title>
<path fill="none" stroke="midnightblue" d="M651.25,-67.48C605.2,-56.65 525.86,-37.99 477.01,-26.5"/>
<polygon fill="midnightblue" stroke="midnightblue" points="477.6,-23.04 467.07,-24.16 476,-29.86 477.6,-23.04"/>
</g>
<!-- Node31 -->
<g id="node11" class="node">
<title>Node31</title>
<g id="a_node11"><a xlink:href="memory__resource_8h.html" target="_top" xlink:title=" ">
<polygon fill="white" stroke="red" points="788,-0.5 788,-30.5 919,-30.5 919,-0.5 788,-0.5"/>
<text text-anchor="start" x="796" y="-18.5" font-family="Helvetica,sans-Serif" font-size="10.00">emlabcpp/pmr/memory</text>
<text text-anchor="middle" x="853.5" y="-7.5" font-family="Helvetica,sans-Serif" font-size="10.00">_resource.h</text>
</a>
</g>
</g>
<!-- Node30&#45;&gt;Node31 -->
<g id="edge10" class="edge">
<title>Node30&#45;&gt;Node31</title>
<path fill="none" stroke="midnightblue" d="M711.28,-67.48C735.55,-58.78 773.91,-45.03 804.68,-34"/>
<polygon fill="midnightblue" stroke="midnightblue" points="806.14,-37.19 814.38,-30.52 803.78,-30.6 806.14,-37.19"/>
</g>
<!-- Node47&#45;&gt;Node4 -->
<g id="edge23" class="edge">
<title>Node47&#45;&gt;Node4</title>
<path fill="none" stroke="midnightblue" d="M776.12,-129C729.71,-121.1 663.16,-107.45 607.5,-87 589.59,-80.42 587.77,-72.5 569.5,-67 492.99,-43.96 270.01,-28.04 149.32,-20.84"/>
<polygon fill="midnightblue" stroke="midnightblue" points="149.22,-17.33 139.03,-20.23 148.81,-24.32 149.22,-17.33"/>
</g>
<!-- Node47&#45;&gt;Node31 -->
<g id="edge19" class="edge">
<title>Node47&#45;&gt;Node31</title>
<path fill="none" stroke="midnightblue" d="M896.88,-128.93C945.59,-120.88 1007.09,-107.07 1022.5,-87 1051.92,-48.68 986.87,-31.02 929.13,-22.98"/>
<polygon fill="midnightblue" stroke="midnightblue" points="929.57,-19.51 919.2,-21.68 928.66,-26.45 929.57,-19.51"/>
</g>
<!-- Node48 -->
<g id="node19" class="node">
<title>Node48</title>
<g id="a_node19"><a xlink:href="util_8h.html" target="_top" xlink:title=" ">
<polygon fill="white" stroke="red" points="776,-67.5 776,-86.5 891,-86.5 891,-67.5 776,-67.5"/>
<text text-anchor="middle" x="833.5" y="-74.5" font-family="Helvetica,sans-Serif" font-size="10.00">emlabcpp/pmr/util.h</text>
</a>
</g>
</g>
<!-- Node47&#45;&gt;Node48 -->
<g id="edge20" class="edge">
<title>Node47&#45;&gt;Node48</title>
<path fill="none" stroke="midnightblue" d="M833.5,-128.98C833.5,-120.58 833.5,-107.48 833.5,-96.66"/>
<polygon fill="midnightblue" stroke="midnightblue" points="837,-96.51 833.5,-86.51 830,-96.51 837,-96.51"/>
</g>
<!-- Node36 -->
<g id="node20" class="node">
<title>Node36</title>
<g id="a_node20"><a xlink:href="range_8h.html" target="_top" xlink:title=" ">
<polygon fill="white" stroke="red" points="909.5,-67.5 909.5,-86.5 1013.5,-86.5 1013.5,-67.5 909.5,-67.5"/>
<text text-anchor="middle" x="961.5" y="-74.5" font-family="Helvetica,sans-Serif" font-size="10.00">emlabcpp/range.h</text>
</a>
</g>
</g>
<!-- Node47&#45;&gt;Node36 -->
<g id="edge22" class="edge">
<title>Node47&#45;&gt;Node36</title>
<path fill="none" stroke="midnightblue" d="M851.84,-128.98C873.32,-118.99 909.12,-102.35 933.95,-90.81"/>
<polygon fill="midnightblue" stroke="midnightblue" points="935.6,-93.9 943.19,-86.51 932.65,-87.55 935.6,-93.9"/>
</g>
<!-- Node48&#45;&gt;Node8 -->
<g id="edge21" class="edge">
<title>Node48&#45;&gt;Node8</title>
<path fill="none" stroke="midnightblue" d="M809.57,-67.48C780.8,-57.22 732.34,-39.96 699.9,-28.4"/>
<polygon fill="midnightblue" stroke="midnightblue" points="700.98,-25.07 690.38,-25.01 698.63,-31.66 700.98,-25.07"/>
</g>
</g>
</svg>
