<?xml version="1.0" encoding="UTF-8" standalone="no"?>
<!DOCTYPE svg PUBLIC "-//W3C//DTD SVG 1.1//EN"
 "http://www.w3.org/Graphics/SVG/1.1/DTD/svg11.dtd">
<!-- Generated by graphviz version 2.43.0 (0)
 -->
<!-- Title: include/emlabcpp/experimental/contiguous_tree/tree.h Pages: 1 -->
<svg width="1040pt" height="173pt"
 viewBox="0.00 0.00 1040.00 173.00" xmlns="http://www.w3.org/2000/svg" xmlns:xlink="http://www.w3.org/1999/xlink">
<g id="graph0" class="graph" transform="scale(1 1) rotate(0) translate(4 169)">
<title>include/emlabcpp/experimental/contiguous_tree/tree.h</title>
<polygon fill="white" stroke="transparent" points="-4,4 -4,-169 1036,-169 1036,4 -4,4"/>
<!-- Node1 -->
<g id="node1" class="node">
<title>Node1</title>
<g id="a_node1"><a xlink:title=" ">
<polygon fill="#bfbfbf" stroke="black" points="509,-134.5 509,-164.5 680,-164.5 680,-134.5 509,-134.5"/>
<text text-anchor="start" x="517" y="-152.5" font-family="Helvetica,sans-Serif" font-size="10.00">include/emlabcpp/experimental</text>
<text text-anchor="middle" x="594.5" y="-141.5" font-family="Helvetica,sans-Serif" font-size="10.00">/contiguous_tree/tree.h</text>
</a>
</g>
</g>
<!-- Node2 -->
<g id="node2" class="node">
<title>Node2</title>
<g id="a_node2"><a xlink:href="pool_8h.html" target="_top" xlink:title=" ">
<polygon fill="white" stroke="black" points="456.5,-67.5 456.5,-97.5 566.5,-97.5 566.5,-67.5 456.5,-67.5"/>
<text text-anchor="start" x="464.5" y="-85.5" font-family="Helvetica,sans-Serif" font-size="10.00">emlabcpp/allocator</text>
<text text-anchor="middle" x="511.5" y="-74.5" font-family="Helvetica,sans-Serif" font-size="10.00">/pool.h</text>
</a>
</g>
</g>
<!-- Node1&#45;&gt;Node2 -->
<g id="edge1" class="edge">
<title>Node1&#45;&gt;Node2</title>
<path fill="none" stroke="midnightblue" d="M576.49,-134.4C565.07,-125.45 550.11,-113.74 537.42,-103.8"/>
<polygon fill="midnightblue" stroke="midnightblue" points="539.51,-100.99 529.47,-97.58 535.19,-106.5 539.51,-100.99"/>
</g>
<!-- Node23 -->
<g id="node6" class="node">
<title>Node23</title>
<g id="a_node6"><a xlink:href="static__vector_8h.html" target="_top" xlink:title=" ">
<polygon fill="white" stroke="red" points="288,-6 288,-25 427,-25 427,-6 288,-6"/>
<text text-anchor="middle" x="357.5" y="-13" font-family="Helvetica,sans-Serif" font-size="10.00">emlabcpp/static_vector.h</text>
</a>
</g>
</g>
<!-- Node1&#45;&gt;Node23 -->
<g id="edge19" class="edge">
<title>Node1&#45;&gt;Node23</title>
<path fill="none" stroke="midnightblue" d="M536.31,-134.41C508.29,-126.18 474.92,-114.19 447.5,-98 417.28,-80.15 388.3,-51.05 371.73,-32.88"/>
<polygon fill="midnightblue" stroke="midnightblue" points="374.3,-30.5 365.03,-25.38 369.08,-35.17 374.3,-30.5"/>
</g>
<!-- Node36 -->
<g id="node9" class="node">
<title>Node36</title>
<g id="a_node9"><a xlink:title=" ">
<polygon fill="white" stroke="#bfbfbf" points="928.5,-6 928.5,-25 966.5,-25 966.5,-6 928.5,-6"/>
<text text-anchor="middle" x="947.5" y="-13" font-family="Helvetica,sans-Serif" font-size="10.00">map</text>
</a>
</g>
</g>
<!-- Node1&#45;&gt;Node36 -->
<g id="edge20" class="edge">
<title>Node1&#45;&gt;Node36</title>
<path fill="none" stroke="midnightblue" d="M593.5,-134.26C593.06,-115.77 595.4,-83.88 614.5,-67 665.64,-21.8 854.25,-51.02 919.5,-31 920.97,-30.55 922.46,-30.02 923.94,-29.44"/>
<polygon fill="midnightblue" stroke="midnightblue" points="925.79,-32.44 933.39,-25.06 922.85,-26.09 925.79,-32.44"/>
</g>
<!-- Node39 -->
<g id="node13" class="node">
<title>Node39</title>
<g id="a_node13"><a xlink:href="experimental_2contiguous__tree_2base_8h.html" target="_top" xlink:title=" ">
<polygon fill="white" stroke="black" points="623,-67.5 623,-97.5 756,-97.5 756,-67.5 623,-67.5"/>
<text text-anchor="start" x="631" y="-85.5" font-family="Helvetica,sans-Serif" font-size="10.00">emlabcpp/experimental</text>
<text text-anchor="middle" x="689.5" y="-74.5" font-family="Helvetica,sans-Serif" font-size="10.00">/contiguous_tree/base.h</text>
</a>
</g>
</g>
<!-- Node1&#45;&gt;Node39 -->
<g id="edge12" class="edge">
<title>Node1&#45;&gt;Node39</title>
<path fill="none" stroke="midnightblue" d="M615.11,-134.4C628.43,-125.28 645.96,-113.29 660.66,-103.24"/>
<polygon fill="midnightblue" stroke="midnightblue" points="662.65,-106.11 668.93,-97.58 658.7,-100.33 662.65,-106.11"/>
</g>
<!-- Node40 -->
<g id="node14" class="node">
<title>Node40</title>
<g id="a_node14"><a xlink:href="logging_8h.html" target="_top" xlink:title=" ">
<polygon fill="white" stroke="black" points="774,-67.5 774,-97.5 907,-97.5 907,-67.5 774,-67.5"/>
<text text-anchor="start" x="782" y="-85.5" font-family="Helvetica,sans-Serif" font-size="10.00">emlabcpp/experimental</text>
<text text-anchor="middle" x="840.5" y="-74.5" font-family="Helvetica,sans-Serif" font-size="10.00">/logging.h</text>
</a>
</g>
</g>
<!-- Node1&#45;&gt;Node40 -->
<g id="edge13" class="edge">
<title>Node1&#45;&gt;Node40</title>
<path fill="none" stroke="midnightblue" d="M647.58,-134.48C685.68,-124.41 737.18,-110.8 777.39,-100.17"/>
<polygon fill="midnightblue" stroke="midnightblue" points="778.32,-103.55 787.1,-97.61 776.53,-96.78 778.32,-103.55"/>
</g>
<!-- Node41 -->
<g id="node15" class="node">
<title>Node41</title>
<g id="a_node15"><a xlink:href="static__function_8h.html" target="_top" xlink:title=" ">
<polygon fill="white" stroke="black" points="97,-67.5 97,-97.5 230,-97.5 230,-67.5 97,-67.5"/>
<text text-anchor="start" x="105" y="-85.5" font-family="Helvetica,sans-Serif" font-size="10.00">emlabcpp/experimental</text>
<text text-anchor="middle" x="163.5" y="-74.5" font-family="Helvetica,sans-Serif" font-size="10.00">/static_function.h</text>
</a>
</g>
</g>
<!-- Node1&#45;&gt;Node41 -->
<g id="edge14" class="edge">
<title>Node1&#45;&gt;Node41</title>
<path fill="none" stroke="midnightblue" d="M508.83,-135.58C430.48,-123.76 315.62,-106.44 240.21,-95.07"/>
<polygon fill="midnightblue" stroke="midnightblue" points="240.71,-91.6 230.3,-93.57 239.67,-98.53 240.71,-91.6"/>
</g>
<!-- Node27 -->
<g id="node17" class="node">
<title>Node27</title>
<g id="a_node17"><a xlink:href="match_8h.html" target="_top" xlink:title=" ">
<polygon fill="white" stroke="red" points="925,-73 925,-92 1032,-92 1032,-73 925,-73"/>
<text text-anchor="middle" x="978.5" y="-80" font-family="Helvetica,sans-Serif" font-size="10.00">emlabcpp/match.h</text>
</a>
</g>
</g>
<!-- Node1&#45;&gt;Node27 -->
<g id="edge18" class="edge">
<title>Node1&#45;&gt;Node27</title>
<path fill="none" stroke="midnightblue" d="M680.22,-136.82C745.28,-127.53 836.8,-113.55 916.5,-98 922.27,-96.87 928.32,-95.59 934.28,-94.26"/>
<polygon fill="midnightblue" stroke="midnightblue" points="935.19,-97.65 944.16,-92.01 933.64,-90.82 935.19,-97.65"/>
</g>
<!-- Node3 -->
<g id="node3" class="node">
<title>Node3</title>
<g id="a_node3"><a xlink:href="util_8h.html" target="_top" xlink:title=" ">
<polygon fill="white" stroke="red" points="159.5,-0.5 159.5,-30.5 269.5,-30.5 269.5,-0.5 159.5,-0.5"/>
<text text-anchor="start" x="167.5" y="-18.5" font-family="Helvetica,sans-Serif" font-size="10.00">emlabcpp/allocator</text>
<text text-anchor="middle" x="214.5" y="-7.5" font-family="Helvetica,sans-Serif" font-size="10.00">/util.h</text>
</a>
</g>
</g>
<!-- Node2&#45;&gt;Node3 -->
<g id="edge2" class="edge">
<title>Node2&#45;&gt;Node3</title>
<path fill="none" stroke="midnightblue" d="M456.39,-69.71C411.37,-60.04 345.81,-45.88 279.45,-31.2"/>
<polygon fill="midnightblue" stroke="midnightblue" points="280.17,-27.78 269.65,-29.03 278.66,-34.61 280.17,-27.78"/>
</g>
<!-- Node6 -->
<g id="node4" class="node">
<title>Node6</title>
<g id="a_node4"><a xlink:href="assert_8h.html" target="_top" xlink:title=" ">
<polygon fill="white" stroke="red" points="611,-6 611,-25 718,-25 718,-6 611,-6"/>
<text text-anchor="middle" x="664.5" y="-13" font-family="Helvetica,sans-Serif" font-size="10.00">emlabcpp/assert.h</text>
</a>
</g>
</g>
<!-- Node2&#45;&gt;Node6 -->
<g id="edge3" class="edge">
<title>Node2&#45;&gt;Node6</title>
<path fill="none" stroke="midnightblue" d="M544.7,-67.4C571.66,-55.94 609.33,-39.94 635.19,-28.95"/>
<polygon fill="midnightblue" stroke="midnightblue" points="636.64,-32.14 644.48,-25.01 633.9,-25.7 636.64,-32.14"/>
</g>
<!-- Node8 -->
<g id="node5" class="node">
<title>Node8</title>
<g id="a_node5"><a xlink:href="numeric_8h.html" target="_top" xlink:title=" ">
<polygon fill="white" stroke="red" points="736,-0.5 736,-30.5 845,-30.5 845,-0.5 736,-0.5"/>
<text text-anchor="start" x="744" y="-18.5" font-family="Helvetica,sans-Serif" font-size="10.00">emlabcpp/iterators</text>
<text text-anchor="middle" x="790.5" y="-7.5" font-family="Helvetica,sans-Serif" font-size="10.00">/numeric.h</text>
</a>
</g>
</g>
<!-- Node2&#45;&gt;Node8 -->
<g id="edge4" class="edge">
<title>Node2&#45;&gt;Node8</title>
<path fill="none" stroke="midnightblue" d="M566.62,-68.66C612.43,-57.98 677.69,-42.78 725.94,-31.54"/>
<polygon fill="midnightblue" stroke="midnightblue" points="727.02,-34.88 735.97,-29.2 725.44,-28.06 727.02,-34.88"/>
</g>
<!-- Node2&#45;&gt;Node23 -->
<g id="edge5" class="edge">
<title>Node2&#45;&gt;Node23</title>
<path fill="none" stroke="midnightblue" d="M478.08,-67.4C450.94,-55.94 413.03,-39.94 387,-28.95"/>
<polygon fill="midnightblue" stroke="midnightblue" points="388.23,-25.67 377.66,-25.01 385.51,-32.12 388.23,-25.67"/>
</g>
<!-- Node34 -->
<g id="node7" class="node">
<title>Node34</title>
<g id="a_node7"><a xlink:title=" ">
<polygon fill="white" stroke="#bfbfbf" points="863,-6 863,-25 910,-25 910,-6 863,-6"/>
<text text-anchor="middle" x="886.5" y="-13" font-family="Helvetica,sans-Serif" font-size="10.00">deque</text>
</a>
</g>
</g>
<!-- Node2&#45;&gt;Node34 -->
<g id="edge6" class="edge">
<title>Node2&#45;&gt;Node34</title>
<path fill="none" stroke="midnightblue" d="M566.79,-69.49C571.42,-68.61 576.04,-67.76 580.5,-67 701.58,-46.36 736.39,-64.71 854.5,-31 856.44,-30.45 858.4,-29.8 860.36,-29.08"/>
<polygon fill="midnightblue" stroke="midnightblue" points="862.01,-32.19 869.91,-25.13 859.33,-25.72 862.01,-32.19"/>
</g>
<!-- Node35 -->
<g id="node8" class="node">
<title>Node35</title>
<g id="a_node8"><a xlink:title=" ">
<polygon fill="white" stroke="#bfbfbf" points="445.5,-6 445.5,-25 477.5,-25 477.5,-6 445.5,-6"/>
<text text-anchor="middle" x="461.5" y="-13" font-family="Helvetica,sans-Serif" font-size="10.00">list</text>
</a>
</g>
</g>
<!-- Node2&#45;&gt;Node35 -->
<g id="edge7" class="edge">
<title>Node2&#45;&gt;Node35</title>
<path fill="none" stroke="midnightblue" d="M500.65,-67.4C492.93,-57.36 482.53,-43.84 474.39,-33.25"/>
<polygon fill="midnightblue" stroke="midnightblue" points="477.06,-30.99 468.19,-25.19 471.51,-35.25 477.06,-30.99"/>
</g>
<!-- Node2&#45;&gt;Node36 -->
<g id="edge8" class="edge">
<title>Node2&#45;&gt;Node36</title>
<path fill="none" stroke="midnightblue" d="M566.77,-69.37C571.4,-68.51 576.03,-67.71 580.5,-67 730.16,-43.39 774.39,-74.59 919.5,-31 920.97,-30.56 922.46,-30.04 923.94,-29.46"/>
<polygon fill="midnightblue" stroke="midnightblue" points="925.79,-32.46 933.4,-25.1 922.85,-26.11 925.79,-32.46"/>
</g>
<!-- Node37 -->
<g id="node10" class="node">
<title>Node37</title>
<g id="a_node10"><a xlink:title=" ">
<polygon fill="white" stroke="#bfbfbf" points="83.5,-6 83.5,-25 141.5,-25 141.5,-6 83.5,-6"/>
<text text-anchor="middle" x="112.5" y="-13" font-family="Helvetica,sans-Serif" font-size="10.00">memory</text>
</a>
</g>
</g>
<!-- Node2&#45;&gt;Node37 -->
<g id="edge9" class="edge">
<title>Node2&#45;&gt;Node37</title>
<path fill="none" stroke="midnightblue" d="M456.32,-77.67C384.85,-71.82 256.84,-58.35 150.5,-31 147.68,-30.27 144.78,-29.41 141.9,-28.46"/>
<polygon fill="midnightblue" stroke="midnightblue" points="142.94,-25.11 132.34,-25.04 140.58,-31.7 142.94,-25.11"/>
</g>
<!-- Node38 -->
<g id="node11" class="node">
<title>Node38</title>
<g id="a_node11"><a xlink:title=" ">
<polygon fill="white" stroke="#bfbfbf" points="495.5,-6 495.5,-25 527.5,-25 527.5,-6 495.5,-6"/>
<text text-anchor="middle" x="511.5" y="-13" font-family="Helvetica,sans-Serif" font-size="10.00">set</text>
</a>
</g>
</g>
<!-- Node2&#45;&gt;Node38 -->
<g id="edge10" class="edge">
<title>Node2&#45;&gt;Node38</title>
<path fill="none" stroke="midnightblue" d="M511.5,-67.4C511.5,-58.06 511.5,-45.71 511.5,-35.52"/>
<polygon fill="midnightblue" stroke="midnightblue" points="515,-35.19 511.5,-25.19 508,-35.19 515,-35.19"/>
</g>
<!-- Node18 -->
<g id="node12" class="node">
<title>Node18</title>
<g id="a_node12"><a xlink:title=" ">
<polygon fill="white" stroke="#bfbfbf" points="546,-6 546,-25 593,-25 593,-6 546,-6"/>
<text text-anchor="middle" x="569.5" y="-13" font-family="Helvetica,sans-Serif" font-size="10.00">vector</text>
</a>
</g>
</g>
<!-- Node2&#45;&gt;Node18 -->
<g id="edge11" class="edge">
<title>Node2&#45;&gt;Node18</title>
<path fill="none" stroke="midnightblue" d="M524.09,-67.4C533.13,-57.26 545.35,-43.57 554.83,-32.94"/>
<polygon fill="midnightblue" stroke="midnightblue" points="557.7,-34.99 561.74,-25.19 552.47,-30.33 557.7,-34.99"/>
</g>
<!-- Node41&#45;&gt;Node3 -->
<g id="edge15" class="edge">
<title>Node41&#45;&gt;Node3</title>
<path fill="none" stroke="midnightblue" d="M174.57,-67.4C181.18,-58.96 189.73,-48.07 197.22,-38.52"/>
<polygon fill="midnightblue" stroke="midnightblue" points="200.04,-40.6 203.46,-30.58 194.53,-36.28 200.04,-40.6"/>
</g>
<!-- Node41&#45;&gt;Node37 -->
<g id="edge17" class="edge">
<title>Node41&#45;&gt;Node37</title>
<path fill="none" stroke="midnightblue" d="M152.43,-67.4C144.56,-57.36 133.95,-43.84 125.65,-33.25"/>
<polygon fill="midnightblue" stroke="midnightblue" points="128.25,-30.9 119.32,-25.19 122.74,-35.22 128.25,-30.9"/>
</g>
<!-- Node42 -->
<g id="node16" class="node">
<title>Node42</title>
<g id="a_node16"><a xlink:title=" ">
<polygon fill="white" stroke="#bfbfbf" points="0,-6 0,-25 65,-25 65,-6 0,-6"/>
<text text-anchor="middle" x="32.5" y="-13" font-family="Helvetica,sans-Serif" font-size="10.00">functional</text>
</a>
</g>
</g>
<!-- Node41&#45;&gt;Node42 -->
<g id="edge16" class="edge">
<title>Node41&#45;&gt;Node42</title>
<path fill="none" stroke="midnightblue" d="M135.07,-67.4C112.39,-56.14 80.87,-40.5 58.78,-29.54"/>
<polygon fill="midnightblue" stroke="midnightblue" points="60.16,-26.32 49.64,-25.01 57.05,-32.59 60.16,-26.32"/>
</g>
</g>
</svg>
