<?xml version="1.0" encoding="UTF-8" standalone="no"?>
<!DOCTYPE svg PUBLIC "-//W3C//DTD SVG 1.1//EN"
 "http://www.w3.org/Graphics/SVG/1.1/DTD/svg11.dtd">
<!-- Generated by graphviz version 2.43.0 (0)
 -->
<!-- Title: include/emlabcpp/protocol/tuple.hpp Pages: 1 -->
<svg width="911pt" height="207pt"
 viewBox="0.00 0.00 910.50 207.00" xmlns="http://www.w3.org/2000/svg" xmlns:xlink="http://www.w3.org/1999/xlink">
<g id="graph0" class="graph" transform="scale(1 1) rotate(0) translate(4 203)">
<title>include/emlabcpp/protocol/tuple.hpp</title>
<polygon fill="white" stroke="transparent" points="-4,4 -4,-203 906.5,-203 906.5,4 -4,4"/>
<!-- Node1 -->
<g id="node1" class="node">
<title>Node1</title>
<g id="a_node1"><a xlink:title=" ">
<polygon fill="#bfbfbf" stroke="black" points="478.5,-168.5 478.5,-198.5 624.5,-198.5 624.5,-168.5 478.5,-168.5"/>
<text text-anchor="start" x="486.5" y="-186.5" font-family="Helvetica,sans-Serif" font-size="10.00">include/emlabcpp/protocol</text>
<text text-anchor="middle" x="551.5" y="-175.5" font-family="Helvetica,sans-Serif" font-size="10.00">/tuple.hpp</text>
</a>
</g>
</g>
<!-- Node2 -->
<g id="node2" class="node">
<title>Node2</title>
<g id="a_node2"><a xlink:href="traits_8hpp.html" target="_top" xlink:title=" ">
<polygon fill="white" stroke="black" points="517,-112.5 517,-131.5 586,-131.5 586,-112.5 517,-112.5"/>
<text text-anchor="middle" x="551.5" y="-119.5" font-family="Helvetica,sans-Serif" font-size="10.00">./traits.hpp</text>
</a>
</g>
</g>
<!-- Node1&#45;&gt;Node2 -->
<g id="edge1" class="edge">
<title>Node1&#45;&gt;Node2</title>
<path fill="none" stroke="midnightblue" d="M551.5,-168.4C551.5,-160.47 551.5,-150.46 551.5,-141.86"/>
<polygon fill="midnightblue" stroke="midnightblue" points="555,-141.66 551.5,-131.66 548,-141.66 555,-141.66"/>
</g>
<!-- Node3 -->
<g id="node3" class="node">
<title>Node3</title>
<g id="a_node3"><a xlink:href="decompose_8hpp.html" target="_top" xlink:title=" ">
<polygon fill="white" stroke="red" points="0,-56.5 0,-75.5 171,-75.5 171,-56.5 0,-56.5"/>
<text text-anchor="middle" x="85.5" y="-63.5" font-family="Helvetica,sans-Serif" font-size="10.00">../experimental/decompose.hpp</text>
</a>
</g>
</g>
<!-- Node2&#45;&gt;Node3 -->
<g id="edge2" class="edge">
<title>Node2&#45;&gt;Node3</title>
<path fill="none" stroke="midnightblue" d="M516.85,-116.99C443.88,-108.53 272.56,-88.68 169.13,-76.69"/>
<polygon fill="midnightblue" stroke="midnightblue" points="169.37,-73.2 159.03,-75.52 168.56,-80.15 169.37,-73.2"/>
</g>
<!-- Node15 -->
<g id="node4" class="node">
<title>Node15</title>
<g id="a_node4"><a xlink:href="quantity_8hpp.html" target="_top" xlink:title=" ">
<polygon fill="white" stroke="red" points="189.5,-56.5 189.5,-75.5 275.5,-75.5 275.5,-56.5 189.5,-56.5"/>
<text text-anchor="middle" x="232.5" y="-63.5" font-family="Helvetica,sans-Serif" font-size="10.00">../quantity.hpp</text>
</a>
</g>
</g>
<!-- Node2&#45;&gt;Node15 -->
<g id="edge3" class="edge">
<title>Node2&#45;&gt;Node15</title>
<path fill="none" stroke="midnightblue" d="M516.93,-115.22C467.86,-107.01 374.94,-91.43 285.65,-76.19"/>
<polygon fill="midnightblue" stroke="midnightblue" points="286.07,-72.71 275.63,-74.48 284.9,-79.61 286.07,-72.71"/>
</g>
<!-- Node22 -->
<g id="node5" class="node">
<title>Node22</title>
<g id="a_node5"><a xlink:href="static__vector_8hpp.html" target="_top" xlink:title=" ">
<polygon fill="white" stroke="red" points="294,-56.5 294,-75.5 403,-75.5 403,-56.5 294,-56.5"/>
<text text-anchor="middle" x="348.5" y="-63.5" font-family="Helvetica,sans-Serif" font-size="10.00">../static_vector.hpp</text>
</a>
</g>
</g>
<!-- Node2&#45;&gt;Node22 -->
<g id="edge4" class="edge">
<title>Node2&#45;&gt;Node22</title>
<path fill="none" stroke="midnightblue" d="M519.33,-112.44C484.44,-103.16 428.61,-88.31 390.33,-78.13"/>
<polygon fill="midnightblue" stroke="midnightblue" points="391.08,-74.7 380.52,-75.52 389.28,-81.47 391.08,-74.7"/>
</g>
<!-- Node29 -->
<g id="node6" class="node">
<title>Node29</title>
<g id="a_node6"><a xlink:href="types_8hpp.html" target="_top" xlink:title=" ">
<polygon fill="white" stroke="red" points="421,-56.5 421,-75.5 492,-75.5 492,-56.5 421,-56.5"/>
<text text-anchor="middle" x="456.5" y="-63.5" font-family="Helvetica,sans-Serif" font-size="10.00">./types.hpp</text>
</a>
</g>
</g>
<!-- Node2&#45;&gt;Node29 -->
<g id="edge5" class="edge">
<title>Node2&#45;&gt;Node29</title>
<path fill="none" stroke="midnightblue" d="M536.24,-112.32C521.28,-103.82 498.25,-90.73 480.77,-80.8"/>
<polygon fill="midnightblue" stroke="midnightblue" points="482.15,-77.55 471.73,-75.65 478.69,-83.64 482.15,-77.55"/>
</g>
<!-- Node32 -->
<g id="node7" class="node">
<title>Node32</title>
<g id="a_node7"><a xlink:href="protocol_2base_8hpp.html" target="_top" xlink:title=" ">
<polygon fill="white" stroke="red" points="549,-56.5 549,-75.5 616,-75.5 616,-56.5 549,-56.5"/>
<text text-anchor="middle" x="582.5" y="-63.5" font-family="Helvetica,sans-Serif" font-size="10.00">./base.hpp</text>
</a>
</g>
</g>
<!-- Node2&#45;&gt;Node32 -->
<g id="edge6" class="edge">
<title>Node2&#45;&gt;Node32</title>
<path fill="none" stroke="midnightblue" d="M556.62,-112.08C560.91,-104.61 567.16,-93.72 572.44,-84.52"/>
<polygon fill="midnightblue" stroke="midnightblue" points="575.53,-86.17 577.48,-75.75 569.46,-82.68 575.53,-86.17"/>
</g>
<!-- Node35 -->
<g id="node8" class="node">
<title>Node35</title>
<g id="a_node8"><a xlink:href="error_8hpp.html" target="_top" xlink:title=" ">
<polygon fill="white" stroke="red" points="510.5,-0.5 510.5,-19.5 576.5,-19.5 576.5,-0.5 510.5,-0.5"/>
<text text-anchor="middle" x="543.5" y="-7.5" font-family="Helvetica,sans-Serif" font-size="10.00">./error.hpp</text>
</a>
</g>
</g>
<!-- Node2&#45;&gt;Node35 -->
<g id="edge9" class="edge">
<title>Node2&#45;&gt;Node35</title>
<path fill="none" stroke="midnightblue" d="M548.41,-112.17C545.45,-103.2 541.18,-88.83 539.5,-76 537.48,-60.57 538.79,-42.93 540.43,-29.93"/>
<polygon fill="midnightblue" stroke="midnightblue" points="543.92,-30.27 541.88,-19.87 536.99,-29.26 543.92,-30.27"/>
</g>
<!-- Node14 -->
<g id="node9" class="node">
<title>Node14</title>
<g id="a_node9"><a xlink:title=" ">
<polygon fill="white" stroke="#bfbfbf" points="607,-0.5 607,-19.5 658,-19.5 658,-0.5 607,-0.5"/>
<text text-anchor="middle" x="632.5" y="-7.5" font-family="Helvetica,sans-Serif" font-size="10.00">variant</text>
</a>
</g>
</g>
<!-- Node2&#45;&gt;Node14 -->
<g id="edge13" class="edge">
<title>Node2&#45;&gt;Node14</title>
<path fill="none" stroke="midnightblue" d="M576.72,-112.45C593.44,-105.39 614.29,-93.64 625.5,-76 634.15,-62.38 635.35,-43.84 634.71,-30.04"/>
<polygon fill="midnightblue" stroke="midnightblue" points="638.17,-29.46 633.86,-19.78 631.2,-30.04 638.17,-29.46"/>
</g>
<!-- Node40 -->
<g id="node10" class="node">
<title>Node40</title>
<g id="a_node10"><a xlink:href="message_8hpp.html" target="_top" xlink:title=" ">
<polygon fill="white" stroke="red" points="672.5,-56.5 672.5,-75.5 760.5,-75.5 760.5,-56.5 672.5,-56.5"/>
<text text-anchor="middle" x="716.5" y="-63.5" font-family="Helvetica,sans-Serif" font-size="10.00">./message.hpp</text>
</a>
</g>
</g>
<!-- Node2&#45;&gt;Node40 -->
<g id="edge10" class="edge">
<title>Node2&#45;&gt;Node40</title>
<path fill="none" stroke="midnightblue" d="M577.64,-112.44C605.52,-103.32 649.85,-88.81 680.9,-78.65"/>
<polygon fill="midnightblue" stroke="midnightblue" points="682.06,-81.95 690.48,-75.52 679.88,-75.3 682.06,-81.95"/>
</g>
<!-- Node41 -->
<g id="node11" class="node">
<title>Node41</title>
<g id="a_node11"><a xlink:title=" ">
<polygon fill="white" stroke="#bfbfbf" points="778.5,-56.5 778.5,-75.5 828.5,-75.5 828.5,-56.5 778.5,-56.5"/>
<text text-anchor="middle" x="803.5" y="-63.5" font-family="Helvetica,sans-Serif" font-size="10.00">chrono</text>
</a>
</g>
</g>
<!-- Node2&#45;&gt;Node41 -->
<g id="edge11" class="edge">
<title>Node2&#45;&gt;Node41</title>
<path fill="none" stroke="midnightblue" d="M586.37,-114.42C627.58,-106.5 698.44,-92.47 768.42,-76.16"/>
<polygon fill="midnightblue" stroke="midnightblue" points="769.35,-79.53 778.29,-73.84 767.75,-72.72 769.35,-79.53"/>
</g>
<!-- Node34 -->
<g id="node12" class="node">
<title>Node34</title>
<g id="a_node12"><a xlink:title=" ">
<polygon fill="white" stroke="#bfbfbf" points="846.5,-56.5 846.5,-75.5 902.5,-75.5 902.5,-56.5 846.5,-56.5"/>
<text text-anchor="middle" x="874.5" y="-63.5" font-family="Helvetica,sans-Serif" font-size="10.00">optional</text>
</a>
</g>
</g>
<!-- Node2&#45;&gt;Node34 -->
<g id="edge12" class="edge">
<title>Node2&#45;&gt;Node34</title>
<path fill="none" stroke="midnightblue" d="M586,-116.51C638.12,-109.52 740.23,-95.04 836.39,-76.09"/>
<polygon fill="midnightblue" stroke="midnightblue" points="837.15,-79.51 846.27,-74.12 835.78,-72.64 837.15,-79.51"/>
</g>
<!-- Node32&#45;&gt;Node35 -->
<g id="edge7" class="edge">
<title>Node32&#45;&gt;Node35</title>
<path fill="none" stroke="midnightblue" d="M576.06,-56.08C570.55,-48.46 562.47,-37.26 555.74,-27.94"/>
<polygon fill="midnightblue" stroke="midnightblue" points="558.51,-25.81 549.82,-19.75 552.84,-29.91 558.51,-25.81"/>
</g>
<!-- Node32&#45;&gt;Node14 -->
<g id="edge8" class="edge">
<title>Node32&#45;&gt;Node14</title>
<path fill="none" stroke="midnightblue" d="M590.76,-56.08C597.96,-48.3 608.61,-36.8 617.35,-27.37"/>
<polygon fill="midnightblue" stroke="midnightblue" points="620.17,-29.47 624.4,-19.75 615.03,-24.71 620.17,-29.47"/>
</g>
</g>
</svg>
