<?xml version="1.0" encoding="UTF-8" standalone="no"?>
<!DOCTYPE svg PUBLIC "-//W3C//DTD SVG 1.1//EN"
 "http://www.w3.org/Graphics/SVG/1.1/DTD/svg11.dtd">
<!-- Generated by graphviz version 2.43.0 (0)
 -->
<!-- Title: include/emlabcpp/protocol/tuple.h Pages: 1 -->
<svg width="839pt" height="207pt"
 viewBox="0.00 0.00 838.50 207.00" xmlns="http://www.w3.org/2000/svg" xmlns:xlink="http://www.w3.org/1999/xlink">
<g id="graph0" class="graph" transform="scale(1 1) rotate(0) translate(4 203)">
<title>include/emlabcpp/protocol/tuple.h</title>
<polygon fill="white" stroke="transparent" points="-4,4 -4,-203 834.5,-203 834.5,4 -4,4"/>
<!-- Node1 -->
<g id="node1" class="node">
<title>Node1</title>
<g id="a_node1"><a xlink:title=" ">
<polygon fill="#bfbfbf" stroke="black" points="427.5,-168.5 427.5,-198.5 573.5,-198.5 573.5,-168.5 427.5,-168.5"/>
<text text-anchor="start" x="435.5" y="-186.5" font-family="Helvetica,sans-Serif" font-size="10.00">include/emlabcpp/protocol</text>
<text text-anchor="middle" x="500.5" y="-175.5" font-family="Helvetica,sans-Serif" font-size="10.00">/tuple.h</text>
</a>
</g>
</g>
<!-- Node2 -->
<g id="node2" class="node">
<title>Node2</title>
<g id="a_node2"><a xlink:href="traits_8h.html" target="_top" xlink:title=" ">
<polygon fill="white" stroke="black" points="472,-112.5 472,-131.5 529,-131.5 529,-112.5 472,-112.5"/>
<text text-anchor="middle" x="500.5" y="-119.5" font-family="Helvetica,sans-Serif" font-size="10.00">./traits.h</text>
</a>
</g>
</g>
<!-- Node1&#45;&gt;Node2 -->
<g id="edge1" class="edge">
<title>Node1&#45;&gt;Node2</title>
<path fill="none" stroke="midnightblue" d="M500.5,-168.4C500.5,-160.47 500.5,-150.46 500.5,-141.86"/>
<polygon fill="midnightblue" stroke="midnightblue" points="504,-141.66 500.5,-131.66 497,-141.66 504,-141.66"/>
</g>
<!-- Node3 -->
<g id="node3" class="node">
<title>Node3</title>
<g id="a_node3"><a xlink:href="decompose_8h.html" target="_top" xlink:title=" ">
<polygon fill="white" stroke="red" points="0,-56.5 0,-75.5 159,-75.5 159,-56.5 0,-56.5"/>
<text text-anchor="middle" x="79.5" y="-63.5" font-family="Helvetica,sans-Serif" font-size="10.00">../experimental/decompose.h</text>
</a>
</g>
</g>
<!-- Node2&#45;&gt;Node3 -->
<g id="edge2" class="edge">
<title>Node2&#45;&gt;Node3</title>
<path fill="none" stroke="midnightblue" d="M471.89,-117.33C407.79,-109.11 250.83,-88.98 155.99,-76.81"/>
<polygon fill="midnightblue" stroke="midnightblue" points="156.24,-73.31 145.88,-75.51 155.35,-80.26 156.24,-73.31"/>
</g>
<!-- Node15 -->
<g id="node4" class="node">
<title>Node15</title>
<g id="a_node4"><a xlink:href="quantity_8h.html" target="_top" xlink:title=" ">
<polygon fill="white" stroke="red" points="177.5,-56.5 177.5,-75.5 251.5,-75.5 251.5,-56.5 177.5,-56.5"/>
<text text-anchor="middle" x="214.5" y="-63.5" font-family="Helvetica,sans-Serif" font-size="10.00">../quantity.h</text>
</a>
</g>
</g>
<!-- Node2&#45;&gt;Node15 -->
<g id="edge3" class="edge">
<title>Node2&#45;&gt;Node15</title>
<path fill="none" stroke="midnightblue" d="M471.67,-115.67C428.36,-107.65 343.65,-91.89 261.64,-76.21"/>
<polygon fill="midnightblue" stroke="midnightblue" points="262.13,-72.74 251.65,-74.29 260.82,-79.61 262.13,-72.74"/>
</g>
<!-- Node21 -->
<g id="node5" class="node">
<title>Node21</title>
<g id="a_node5"><a xlink:href="static__vector_8h.html" target="_top" xlink:title=" ">
<polygon fill="white" stroke="red" points="270,-56.5 270,-75.5 367,-75.5 367,-56.5 270,-56.5"/>
<text text-anchor="middle" x="318.5" y="-63.5" font-family="Helvetica,sans-Serif" font-size="10.00">../static_vector.h</text>
</a>
</g>
</g>
<!-- Node2&#45;&gt;Node21 -->
<g id="edge4" class="edge">
<title>Node2&#45;&gt;Node21</title>
<path fill="none" stroke="midnightblue" d="M471.66,-112.44C440.64,-103.24 391.17,-88.56 356.88,-78.39"/>
<polygon fill="midnightblue" stroke="midnightblue" points="357.79,-75.01 347.2,-75.52 355.79,-81.72 357.79,-75.01"/>
</g>
<!-- Node27 -->
<g id="node6" class="node">
<title>Node27</title>
<g id="a_node6"><a xlink:href="types_8h.html" target="_top" xlink:title=" ">
<polygon fill="white" stroke="red" points="385,-56.5 385,-75.5 444,-75.5 444,-56.5 385,-56.5"/>
<text text-anchor="middle" x="414.5" y="-63.5" font-family="Helvetica,sans-Serif" font-size="10.00">./types.h</text>
</a>
</g>
</g>
<!-- Node2&#45;&gt;Node27 -->
<g id="edge5" class="edge">
<title>Node2&#45;&gt;Node27</title>
<path fill="none" stroke="midnightblue" d="M486.68,-112.32C473.27,-103.9 452.68,-90.97 436.91,-81.07"/>
<polygon fill="midnightblue" stroke="midnightblue" points="438.61,-78.01 428.28,-75.65 434.89,-83.94 438.61,-78.01"/>
</g>
<!-- Node29 -->
<g id="node7" class="node">
<title>Node29</title>
<g id="a_node7"><a xlink:href="protocol_2base_8h.html" target="_top" xlink:title=" ">
<polygon fill="white" stroke="red" points="501,-56.5 501,-75.5 556,-75.5 556,-56.5 501,-56.5"/>
<text text-anchor="middle" x="528.5" y="-63.5" font-family="Helvetica,sans-Serif" font-size="10.00">./base.h</text>
</a>
</g>
</g>
<!-- Node2&#45;&gt;Node29 -->
<g id="edge6" class="edge">
<title>Node2&#45;&gt;Node29</title>
<path fill="none" stroke="midnightblue" d="M505.12,-112.08C508.96,-104.69 514.52,-93.95 519.26,-84.81"/>
<polygon fill="midnightblue" stroke="midnightblue" points="522.47,-86.24 523.96,-75.75 516.25,-83.02 522.47,-86.24"/>
</g>
<!-- Node32 -->
<g id="node8" class="node">
<title>Node32</title>
<g id="a_node8"><a xlink:href="protocol_2error_8h.html" target="_top" xlink:title=" ">
<polygon fill="white" stroke="red" points="465.5,-0.5 465.5,-19.5 519.5,-19.5 519.5,-0.5 465.5,-0.5"/>
<text text-anchor="middle" x="492.5" y="-7.5" font-family="Helvetica,sans-Serif" font-size="10.00">./error.h</text>
</a>
</g>
</g>
<!-- Node2&#45;&gt;Node32 -->
<g id="edge9" class="edge">
<title>Node2&#45;&gt;Node32</title>
<path fill="none" stroke="midnightblue" d="M498.27,-112.45C496.04,-103.45 492.77,-88.84 491.5,-76 489.97,-60.54 490.37,-42.91 491.08,-29.91"/>
<polygon fill="midnightblue" stroke="midnightblue" points="494.57,-30.06 491.73,-19.86 487.59,-29.61 494.57,-30.06"/>
</g>
<!-- Node14 -->
<g id="node9" class="node">
<title>Node14</title>
<g id="a_node9"><a xlink:title=" ">
<polygon fill="white" stroke="#bfbfbf" points="548,-0.5 548,-19.5 599,-19.5 599,-0.5 548,-0.5"/>
<text text-anchor="middle" x="573.5" y="-7.5" font-family="Helvetica,sans-Serif" font-size="10.00">variant</text>
</a>
</g>
</g>
<!-- Node2&#45;&gt;Node14 -->
<g id="edge13" class="edge">
<title>Node2&#45;&gt;Node14</title>
<path fill="none" stroke="midnightblue" d="M521.07,-112.41C535.99,-105.04 555.27,-92.91 565.5,-76 573.87,-62.17 575.41,-43.65 575.12,-29.92"/>
<polygon fill="midnightblue" stroke="midnightblue" points="578.61,-29.51 574.57,-19.71 571.62,-29.89 578.61,-29.51"/>
</g>
<!-- Node39 -->
<g id="node10" class="node">
<title>Node39</title>
<g id="a_node10"><a xlink:href="message_8h.html" target="_top" xlink:title=" ">
<polygon fill="white" stroke="red" points="612.5,-56.5 612.5,-75.5 688.5,-75.5 688.5,-56.5 612.5,-56.5"/>
<text text-anchor="middle" x="650.5" y="-63.5" font-family="Helvetica,sans-Serif" font-size="10.00">./message.h</text>
</a>
</g>
</g>
<!-- Node2&#45;&gt;Node39 -->
<g id="edge10" class="edge">
<title>Node2&#45;&gt;Node39</title>
<path fill="none" stroke="midnightblue" d="M524.27,-112.44C549.39,-103.4 589.21,-89.06 617.4,-78.92"/>
<polygon fill="midnightblue" stroke="midnightblue" points="618.62,-82.2 626.84,-75.52 616.25,-75.61 618.62,-82.2"/>
</g>
<!-- Node40 -->
<g id="node11" class="node">
<title>Node40</title>
<g id="a_node11"><a xlink:title=" ">
<polygon fill="white" stroke="#bfbfbf" points="706.5,-56.5 706.5,-75.5 756.5,-75.5 756.5,-56.5 706.5,-56.5"/>
<text text-anchor="middle" x="731.5" y="-63.5" font-family="Helvetica,sans-Serif" font-size="10.00">chrono</text>
</a>
</g>
</g>
<!-- Node2&#45;&gt;Node40 -->
<g id="edge11" class="edge">
<title>Node2&#45;&gt;Node40</title>
<path fill="none" stroke="midnightblue" d="M529.28,-114.75C565.84,-106.74 631.11,-92.2 696.25,-76.25"/>
<polygon fill="midnightblue" stroke="midnightblue" points="697.4,-79.57 706.27,-73.78 695.73,-72.77 697.4,-79.57"/>
</g>
<!-- Node31 -->
<g id="node12" class="node">
<title>Node31</title>
<g id="a_node12"><a xlink:title=" ">
<polygon fill="white" stroke="#bfbfbf" points="774.5,-56.5 774.5,-75.5 830.5,-75.5 830.5,-56.5 774.5,-56.5"/>
<text text-anchor="middle" x="802.5" y="-63.5" font-family="Helvetica,sans-Serif" font-size="10.00">optional</text>
</a>
</g>
</g>
<!-- Node2&#45;&gt;Node31 -->
<g id="edge12" class="edge">
<title>Node2&#45;&gt;Node31</title>
<path fill="none" stroke="midnightblue" d="M529.25,-116.8C576.31,-109.77 672.93,-94.73 764.3,-76.13"/>
<polygon fill="midnightblue" stroke="midnightblue" points="765.17,-79.53 774.26,-74.08 763.76,-72.67 765.17,-79.53"/>
</g>
<!-- Node29&#45;&gt;Node32 -->
<g id="edge7" class="edge">
<title>Node29&#45;&gt;Node32</title>
<path fill="none" stroke="midnightblue" d="M522.56,-56.08C517.52,-48.53 510.16,-37.49 503.99,-28.23"/>
<polygon fill="midnightblue" stroke="midnightblue" points="506.79,-26.13 498.33,-19.75 500.97,-30.01 506.79,-26.13"/>
</g>
<!-- Node29&#45;&gt;Node14 -->
<g id="edge8" class="edge">
<title>Node29&#45;&gt;Node14</title>
<path fill="none" stroke="midnightblue" d="M535.93,-56.08C542.35,-48.38 551.81,-37.03 559.62,-27.65"/>
<polygon fill="midnightblue" stroke="midnightblue" points="562.49,-29.67 566.21,-19.75 557.12,-25.19 562.49,-29.67"/>
</g>
</g>
</svg>
