<?xml version="1.0" encoding="UTF-8" standalone="no"?>
<!DOCTYPE svg PUBLIC "-//W3C//DTD SVG 1.1//EN"
 "http://www.w3.org/Graphics/SVG/1.1/DTD/svg11.dtd">
<!-- Generated by graphviz version 2.43.0 (0)
 -->
<!-- Title: include/emlabcpp/types.h Pages: 1 -->
<svg width="283pt" height="140pt"
 viewBox="0.00 0.00 283.00 140.00" xmlns="http://www.w3.org/2000/svg" xmlns:xlink="http://www.w3.org/1999/xlink">
<g id="graph0" class="graph" transform="scale(1 1) rotate(0) translate(4 136)">
<title>include/emlabcpp/types.h</title>
<polygon fill="white" stroke="transparent" points="-4,4 -4,-136 279,-136 279,4 -4,4"/>
<!-- Node1 -->
<g id="node1" class="node">
<title>Node1</title>
<g id="a_node1"><a xlink:title=" ">
<polygon fill="#bfbfbf" stroke="black" points="82,-112.5 82,-131.5 224,-131.5 224,-112.5 82,-112.5"/>
<text text-anchor="middle" x="153" y="-119.5" font-family="Helvetica,sans-Serif" font-size="10.00">include/emlabcpp/types.h</text>
</a>
</g>
</g>
<!-- Node2 -->
<g id="node2" class="node">
<title>Node2</title>
<g id="a_node2"><a xlink:href="concepts_8h.html" target="_top" xlink:title=" ">
<polygon fill="white" stroke="black" points="93,-56.5 93,-75.5 213,-75.5 213,-56.5 93,-56.5"/>
<text text-anchor="middle" x="153" y="-63.5" font-family="Helvetica,sans-Serif" font-size="10.00">emlabcpp/concepts.h</text>
</a>
</g>
</g>
<!-- Node1&#45;&gt;Node2 -->
<g id="edge1" class="edge">
<title>Node1&#45;&gt;Node2</title>
<path fill="none" stroke="midnightblue" d="M153,-112.08C153,-105.01 153,-94.86 153,-85.99"/>
<polygon fill="midnightblue" stroke="midnightblue" points="156.5,-85.75 153,-75.75 149.5,-85.75 156.5,-85.75"/>
</g>
<!-- Node3 -->
<g id="node3" class="node">
<title>Node3</title>
<g id="a_node3"><a xlink:href="types_2base_8h.html" target="_top" xlink:title=" ">
<polygon fill="white" stroke="red" points="0,-0.5 0,-19.5 130,-19.5 130,-0.5 0,-0.5"/>
<text text-anchor="middle" x="65" y="-7.5" font-family="Helvetica,sans-Serif" font-size="10.00">emlabcpp/types/base.h</text>
</a>
</g>
</g>
<!-- Node1&#45;&gt;Node3 -->
<g id="edge4" class="edge">
<title>Node1&#45;&gt;Node3</title>
<path fill="none" stroke="midnightblue" d="M132.3,-112.35C116.86,-104.88 96.36,-92.65 84,-76 74.03,-62.58 69.28,-44.01 67.02,-30.16"/>
<polygon fill="midnightblue" stroke="midnightblue" points="70.43,-29.3 65.65,-19.85 63.5,-30.22 70.43,-29.3"/>
</g>
<!-- Node11 -->
<g id="node5" class="node">
<title>Node11</title>
<g id="a_node5"><a xlink:title=" ">
<polygon fill="white" stroke="#bfbfbf" points="231,-56.5 231,-75.5 275,-75.5 275,-56.5 231,-56.5"/>
<text text-anchor="middle" x="253" y="-63.5" font-family="Helvetica,sans-Serif" font-size="10.00">string</text>
</a>
</g>
</g>
<!-- Node1&#45;&gt;Node11 -->
<g id="edge5" class="edge">
<title>Node1&#45;&gt;Node11</title>
<path fill="none" stroke="midnightblue" d="M169.07,-112.32C184.96,-103.74 209.51,-90.49 227.96,-80.52"/>
<polygon fill="midnightblue" stroke="midnightblue" points="229.84,-83.49 236.97,-75.65 226.51,-77.33 229.84,-83.49"/>
</g>
<!-- Node2&#45;&gt;Node3 -->
<g id="edge2" class="edge">
<title>Node2&#45;&gt;Node3</title>
<path fill="none" stroke="midnightblue" d="M138.86,-56.32C125.13,-47.9 104.06,-34.97 87.94,-25.07"/>
<polygon fill="midnightblue" stroke="midnightblue" points="89.46,-21.9 79.1,-19.65 85.8,-27.87 89.46,-21.9"/>
</g>
<!-- Node10 -->
<g id="node4" class="node">
<title>Node10</title>
<g id="a_node4"><a xlink:title=" ">
<polygon fill="white" stroke="#bfbfbf" points="148,-0.5 148,-19.5 208,-19.5 208,-0.5 148,-0.5"/>
<text text-anchor="middle" x="178" y="-7.5" font-family="Helvetica,sans-Serif" font-size="10.00">concepts</text>
</a>
</g>
</g>
<!-- Node2&#45;&gt;Node10 -->
<g id="edge3" class="edge">
<title>Node2&#45;&gt;Node10</title>
<path fill="none" stroke="midnightblue" d="M157.13,-56.08C160.51,-48.77 165.42,-38.18 169.62,-29.1"/>
<polygon fill="midnightblue" stroke="midnightblue" points="172.92,-30.3 173.95,-19.75 166.57,-27.36 172.92,-30.3"/>
</g>
</g>
</svg>
