<?xml version="1.0" encoding="UTF-8" standalone="no"?>
<!DOCTYPE svg PUBLIC "-//W3C//DTD SVG 1.1//EN"
 "http://www.w3.org/Graphics/SVG/1.1/DTD/svg11.dtd">
<!-- Generated by graphviz version 2.43.0 (0)
 -->
<!-- Title: include/emlabcpp/types.h Pages: 1 -->
<svg width="357pt" height="140pt"
 viewBox="0.00 0.00 356.50 140.00" xmlns="http://www.w3.org/2000/svg" xmlns:xlink="http://www.w3.org/1999/xlink">
<g id="graph0" class="graph" transform="scale(1 1) rotate(0) translate(4 136)">
<title>include/emlabcpp/types.h</title>
<polygon fill="white" stroke="transparent" points="-4,4 -4,-136 352.5,-136 352.5,4 -4,4"/>
<!-- Node1 -->
<g id="node1" class="node">
<title>Node1</title>
<g id="a_node1"><a xlink:title=" ">
<polygon fill="#bfbfbf" stroke="black" points="107,-112.5 107,-131.5 249,-131.5 249,-112.5 107,-112.5"/>
<text text-anchor="middle" x="178" y="-119.5" font-family="Helvetica,sans-Serif" font-size="10.00">include/emlabcpp/types.h</text>
</a>
</g>
</g>
<!-- Node2 -->
<g id="node2" class="node">
<title>Node2</title>
<g id="a_node2"><a xlink:href="concepts_8h.html" target="_top" xlink:title=" ">
<polygon fill="white" stroke="black" points="118,-56.5 118,-75.5 238,-75.5 238,-56.5 118,-56.5"/>
<text text-anchor="middle" x="178" y="-63.5" font-family="Helvetica,sans-Serif" font-size="10.00">emlabcpp/concepts.h</text>
</a>
</g>
</g>
<!-- Node1&#45;&gt;Node2 -->
<g id="edge1" class="edge">
<title>Node1&#45;&gt;Node2</title>
<path fill="none" stroke="midnightblue" d="M178,-112.08C178,-105.01 178,-94.86 178,-85.99"/>
<polygon fill="midnightblue" stroke="midnightblue" points="181.5,-85.75 178,-75.75 174.5,-85.75 181.5,-85.75"/>
</g>
<!-- Node3 -->
<g id="node3" class="node">
<title>Node3</title>
<g id="a_node3"><a xlink:href="types_2base_8h.html" target="_top" xlink:title=" ">
<polygon fill="white" stroke="red" points="0,-0.5 0,-19.5 130,-19.5 130,-0.5 0,-0.5"/>
<text text-anchor="middle" x="65" y="-7.5" font-family="Helvetica,sans-Serif" font-size="10.00">emlabcpp/types/base.h</text>
</a>
</g>
</g>
<!-- Node1&#45;&gt;Node3 -->
<g id="edge6" class="edge">
<title>Node1&#45;&gt;Node3</title>
<path fill="none" stroke="midnightblue" d="M161.06,-112.46C146.2,-104.42 124.6,-91.34 109,-76 94.77,-62.01 82.42,-42.75 74.46,-28.84"/>
<polygon fill="midnightblue" stroke="midnightblue" points="77.37,-26.86 69.47,-19.8 71.24,-30.24 77.37,-26.86"/>
</g>
<!-- Node13 -->
<g id="node7" class="node">
<title>Node13</title>
<g id="a_node7"><a xlink:title=" ">
<polygon fill="white" stroke="#bfbfbf" points="256,-56.5 256,-75.5 300,-75.5 300,-56.5 256,-56.5"/>
<text text-anchor="middle" x="278" y="-63.5" font-family="Helvetica,sans-Serif" font-size="10.00">string</text>
</a>
</g>
</g>
<!-- Node1&#45;&gt;Node13 -->
<g id="edge7" class="edge">
<title>Node1&#45;&gt;Node13</title>
<path fill="none" stroke="midnightblue" d="M194.07,-112.32C209.96,-103.74 234.51,-90.49 252.96,-80.52"/>
<polygon fill="midnightblue" stroke="midnightblue" points="254.84,-83.49 261.97,-75.65 251.51,-77.33 254.84,-83.49"/>
</g>
<!-- Node2&#45;&gt;Node3 -->
<g id="edge2" class="edge">
<title>Node2&#45;&gt;Node3</title>
<path fill="none" stroke="midnightblue" d="M160.09,-56.44C141.75,-47.68 112.99,-33.94 91.91,-23.86"/>
<polygon fill="midnightblue" stroke="midnightblue" points="93.35,-20.67 82.82,-19.52 90.33,-26.99 93.35,-20.67"/>
</g>
<!-- Node10 -->
<g id="node4" class="node">
<title>Node10</title>
<g id="a_node4"><a xlink:title=" ">
<polygon fill="white" stroke="#bfbfbf" points="148,-0.5 148,-19.5 208,-19.5 208,-0.5 148,-0.5"/>
<text text-anchor="middle" x="178" y="-7.5" font-family="Helvetica,sans-Serif" font-size="10.00">concepts</text>
</a>
</g>
</g>
<!-- Node2&#45;&gt;Node10 -->
<g id="edge3" class="edge">
<title>Node2&#45;&gt;Node10</title>
<path fill="none" stroke="midnightblue" d="M178,-56.08C178,-49.01 178,-38.86 178,-29.99"/>
<polygon fill="midnightblue" stroke="midnightblue" points="181.5,-29.75 178,-19.75 174.5,-29.75 181.5,-29.75"/>
</g>
<!-- Node11 -->
<g id="node5" class="node">
<title>Node11</title>
<g id="a_node5"><a xlink:title=" ">
<polygon fill="white" stroke="#bfbfbf" points="226.5,-0.5 226.5,-19.5 279.5,-19.5 279.5,-0.5 226.5,-0.5"/>
<text text-anchor="middle" x="253" y="-7.5" font-family="Helvetica,sans-Serif" font-size="10.00">iterator</text>
</a>
</g>
</g>
<!-- Node2&#45;&gt;Node11 -->
<g id="edge4" class="edge">
<title>Node2&#45;&gt;Node11</title>
<path fill="none" stroke="midnightblue" d="M190.05,-56.32C201.46,-48.11 218.83,-35.6 232.43,-25.81"/>
<polygon fill="midnightblue" stroke="midnightblue" points="234.66,-28.52 240.73,-19.83 230.57,-22.84 234.66,-28.52"/>
</g>
<!-- Node12 -->
<g id="node6" class="node">
<title>Node12</title>
<g id="a_node6"><a xlink:title=" ">
<polygon fill="white" stroke="#bfbfbf" points="297.5,-0.5 297.5,-19.5 348.5,-19.5 348.5,-0.5 297.5,-0.5"/>
<text text-anchor="middle" x="323" y="-7.5" font-family="Helvetica,sans-Serif" font-size="10.00">variant</text>
</a>
</g>
</g>
<!-- Node2&#45;&gt;Node12 -->
<g id="edge5" class="edge">
<title>Node2&#45;&gt;Node12</title>
<path fill="none" stroke="midnightblue" d="M200.98,-56.44C225.16,-47.44 263.42,-33.19 290.65,-23.05"/>
<polygon fill="midnightblue" stroke="midnightblue" points="291.98,-26.29 300.13,-19.52 289.54,-19.73 291.98,-26.29"/>
</g>
</g>
</svg>
