<?xml version="1.0" encoding="UTF-8" standalone="no"?>
<!DOCTYPE svg PUBLIC "-//W3C//DTD SVG 1.1//EN"
 "http://www.w3.org/Graphics/SVG/1.1/DTD/svg11.dtd">
<!-- Generated by graphviz version 2.43.0 (0)
 -->
<!-- Title: include/emlabcpp/allocator/util.h Pages: 1 -->
<svg width="423pt" height="240pt"
 viewBox="0.00 0.00 423.00 240.00" xmlns="http://www.w3.org/2000/svg" xmlns:xlink="http://www.w3.org/1999/xlink">
<g id="graph0" class="graph" transform="scale(1 1) rotate(0) translate(4 236)">
<title>include/emlabcpp/allocator/util.h</title>
<polygon fill="white" stroke="transparent" points="-4,4 -4,-236 419,-236 419,4 -4,4"/>
<!-- Node1 -->
<g id="node1" class="node">
<title>Node1</title>
<g id="a_node1"><a xlink:title=" ">
<polygon fill="#bfbfbf" stroke="black" points="187,-201.5 187,-231.5 336,-231.5 336,-201.5 187,-201.5"/>
<text text-anchor="start" x="195" y="-219.5" font-family="Helvetica,sans-Serif" font-size="10.00">include/emlabcpp/allocator</text>
<text text-anchor="middle" x="261.5" y="-208.5" font-family="Helvetica,sans-Serif" font-size="10.00">/util.h</text>
</a>
</g>
</g>
<!-- Node2 -->
<g id="node2" class="node">
<title>Node2</title>
<g id="a_node2"><a xlink:href="pool_8h.html" target="_top" xlink:title=" ">
<polygon fill="white" stroke="black" points="105,-134.5 105,-164.5 254,-164.5 254,-134.5 105,-134.5"/>
<text text-anchor="start" x="113" y="-152.5" font-family="Helvetica,sans-Serif" font-size="10.00">include/emlabcpp/allocator</text>
<text text-anchor="middle" x="179.5" y="-141.5" font-family="Helvetica,sans-Serif" font-size="10.00">/pool.h</text>
</a>
</g>
</g>
<!-- Node1&#45;&gt;Node2 -->
<g id="edge1" class="edge">
<title>Node1&#45;&gt;Node2</title>
<path fill="none" stroke="midnightblue" d="M235.85,-195.17C223.31,-185.23 208.53,-173.51 197.26,-164.58"/>
<polygon fill="midnightblue" stroke="midnightblue" points="233.7,-197.93 243.71,-201.4 238.04,-192.44 233.7,-197.93"/>
</g>
<!-- Node6 -->
<g id="node6" class="node">
<title>Node6</title>
<g id="a_node6"><a xlink:href="derived__storage_8h.html" target="_top" xlink:title=" ">
<polygon fill="white" stroke="black" points="272,-134.5 272,-164.5 415,-164.5 415,-134.5 272,-134.5"/>
<text text-anchor="start" x="280" y="-152.5" font-family="Helvetica,sans-Serif" font-size="10.00">include/emlabcpp/derived</text>
<text text-anchor="middle" x="343.5" y="-141.5" font-family="Helvetica,sans-Serif" font-size="10.00">_storage.h</text>
</a>
</g>
</g>
<!-- Node1&#45;&gt;Node6 -->
<g id="edge5" class="edge">
<title>Node1&#45;&gt;Node6</title>
<path fill="none" stroke="midnightblue" d="M287.15,-195.17C299.69,-185.23 314.47,-173.51 325.74,-164.58"/>
<polygon fill="midnightblue" stroke="midnightblue" points="284.96,-192.44 279.29,-201.4 289.3,-197.93 284.96,-192.44"/>
</g>
<!-- Node3 -->
<g id="node3" class="node">
<title>Node3</title>
<g id="a_node3"><a xlink:href="controller_8h.html" target="_top" xlink:title=" ">
<polygon fill="white" stroke="black" points="0,-67.5 0,-97.5 171,-97.5 171,-67.5 0,-67.5"/>
<text text-anchor="start" x="8" y="-85.5" font-family="Helvetica,sans-Serif" font-size="10.00">include/emlabcpp/experimental</text>
<text text-anchor="middle" x="85.5" y="-74.5" font-family="Helvetica,sans-Serif" font-size="10.00">/testing/controller.h</text>
</a>
</g>
</g>
<!-- Node2&#45;&gt;Node3 -->
<g id="edge2" class="edge">
<title>Node2&#45;&gt;Node3</title>
<path fill="none" stroke="midnightblue" d="M150.51,-128.45C136.05,-118.45 118.91,-106.6 105.86,-97.58"/>
<polygon fill="midnightblue" stroke="midnightblue" points="148.89,-131.59 159.1,-134.4 152.87,-125.83 148.89,-131.59"/>
</g>
<!-- Node5 -->
<g id="node5" class="node">
<title>Node5</title>
<g id="a_node5"><a xlink:href="reactor_8h.html" target="_top" xlink:title=" ">
<polygon fill="white" stroke="black" points="189,-67.5 189,-97.5 360,-97.5 360,-67.5 189,-67.5"/>
<text text-anchor="start" x="197" y="-85.5" font-family="Helvetica,sans-Serif" font-size="10.00">include/emlabcpp/experimental</text>
<text text-anchor="middle" x="274.5" y="-74.5" font-family="Helvetica,sans-Serif" font-size="10.00">/testing/reactor.h</text>
</a>
</g>
</g>
<!-- Node2&#45;&gt;Node5 -->
<g id="edge4" class="edge">
<title>Node2&#45;&gt;Node5</title>
<path fill="none" stroke="midnightblue" d="M208.39,-128.73C223.09,-118.68 240.61,-106.68 253.93,-97.58"/>
<polygon fill="midnightblue" stroke="midnightblue" points="206.39,-125.86 200.11,-134.4 210.34,-131.64 206.39,-125.86"/>
</g>
<!-- Node4 -->
<g id="node4" class="node">
<title>Node4</title>
<g id="a_node4"><a xlink:href="gtest_8h.html" target="_top" xlink:title=" ">
<polygon fill="white" stroke="black" points="0,-0.5 0,-30.5 171,-30.5 171,-0.5 0,-0.5"/>
<text text-anchor="start" x="8" y="-18.5" font-family="Helvetica,sans-Serif" font-size="10.00">include/emlabcpp/experimental</text>
<text text-anchor="middle" x="85.5" y="-7.5" font-family="Helvetica,sans-Serif" font-size="10.00">/testing/gtest.h</text>
</a>
</g>
</g>
<!-- Node3&#45;&gt;Node4 -->
<g id="edge3" class="edge">
<title>Node3&#45;&gt;Node4</title>
<path fill="none" stroke="midnightblue" d="M85.5,-57.11C85.5,-48.15 85.5,-38.32 85.5,-30.58"/>
<polygon fill="midnightblue" stroke="midnightblue" points="82,-57.4 85.5,-67.4 89,-57.4 82,-57.4"/>
</g>
</g>
</svg>
