<?xml version="1.0" encoding="UTF-8" standalone="no"?>
<!DOCTYPE svg PUBLIC "-//W3C//DTD SVG 1.1//EN"
 "http://www.w3.org/Graphics/SVG/1.1/DTD/svg11.dtd">
<!-- Generated by graphviz version 2.43.0 (0)
 -->
<!-- Title: include/emlabcpp/experimental/geom/vec_point_base.h Pages: 1 -->
<svg width="691pt" height="375pt"
 viewBox="0.00 0.00 690.50 375.00" xmlns="http://www.w3.org/2000/svg" xmlns:xlink="http://www.w3.org/1999/xlink">
<g id="graph0" class="graph" transform="scale(1 1) rotate(0) translate(4 371)">
<title>include/emlabcpp/experimental/geom/vec_point_base.h</title>
<polygon fill="white" stroke="transparent" points="-4,4 -4,-371 686.5,-371 686.5,4 -4,4"/>
<!-- Node1 -->
<g id="node1" class="node">
<title>Node1</title>
<g id="a_node1"><a xlink:title=" ">
<polygon fill="#bfbfbf" stroke="black" points="274,-336.5 274,-366.5 445,-366.5 445,-336.5 274,-336.5"/>
<text text-anchor="start" x="282" y="-354.5" font-family="Helvetica,sans-Serif" font-size="10.00">include/emlabcpp/experimental</text>
<text text-anchor="middle" x="359.5" y="-343.5" font-family="Helvetica,sans-Serif" font-size="10.00">/geom/vec_point_base.h</text>
</a>
</g>
</g>
<!-- Node2 -->
<g id="node2" class="node">
<title>Node2</title>
<g id="a_node2"><a xlink:href="algorithm_8h.html" target="_top" xlink:title=" ">
<polygon fill="white" stroke="black" points="314,-224.5 314,-243.5 405,-243.5 405,-224.5 314,-224.5"/>
<text text-anchor="middle" x="359.5" y="-231.5" font-family="Helvetica,sans-Serif" font-size="10.00">../../algorithm.h</text>
</a>
</g>
</g>
<!-- Node1&#45;&gt;Node2 -->
<g id="edge1" class="edge">
<title>Node1&#45;&gt;Node2</title>
<path fill="none" stroke="midnightblue" d="M359.5,-336.34C359.5,-315.62 359.5,-277.02 359.5,-253.9"/>
<polygon fill="midnightblue" stroke="midnightblue" points="363,-253.67 359.5,-243.67 356,-253.67 363,-253.67"/>
</g>
<!-- Node21 -->
<g id="node9" class="node">
<title>Node21</title>
<g id="a_node9"><a xlink:href="range_8h.html" target="_top" xlink:title=" ">
<polygon fill="white" stroke="red" points="0,-168.5 0,-187.5 59,-187.5 59,-168.5 0,-168.5"/>
<text text-anchor="middle" x="29.5" y="-175.5" font-family="Helvetica,sans-Serif" font-size="10.00">./range.h</text>
</a>
</g>
</g>
<!-- Node1&#45;&gt;Node21 -->
<g id="edge22" class="edge">
<title>Node1&#45;&gt;Node21</title>
<path fill="none" stroke="midnightblue" d="M332.49,-336.47C269.96,-303.96 115.89,-223.9 54.93,-192.21"/>
<polygon fill="midnightblue" stroke="midnightblue" points="56.46,-189.07 45.97,-187.56 53.23,-195.28 56.46,-189.07"/>
</g>
<!-- Node28 -->
<g id="node13" class="node">
<title>Node28</title>
<g id="a_node13"><a xlink:href="physical__quantity_8h.html" target="_top" xlink:title=" ">
<polygon fill="white" stroke="black" points="481.5,-280.5 481.5,-299.5 609.5,-299.5 609.5,-280.5 481.5,-280.5"/>
<text text-anchor="middle" x="545.5" y="-287.5" font-family="Helvetica,sans-Serif" font-size="10.00">../../physical_quantity.h</text>
</a>
</g>
</g>
<!-- Node1&#45;&gt;Node28 -->
<g id="edge16" class="edge">
<title>Node1&#45;&gt;Node28</title>
<path fill="none" stroke="midnightblue" d="M403.58,-336.4C435.72,-326.12 478.76,-312.35 508.98,-302.68"/>
<polygon fill="midnightblue" stroke="midnightblue" points="510.25,-305.95 518.71,-299.57 508.12,-299.28 510.25,-305.95"/>
</g>
<!-- Node3 -->
<g id="node3" class="node">
<title>Node3</title>
<g id="a_node3"><a xlink:href="impl_8h.html" target="_top" xlink:title=" ">
<polygon fill="white" stroke="black" points="115.5,-168.5 115.5,-187.5 219.5,-187.5 219.5,-168.5 115.5,-168.5"/>
<text text-anchor="middle" x="167.5" y="-175.5" font-family="Helvetica,sans-Serif" font-size="10.00">./algorithm/impl.h</text>
</a>
</g>
</g>
<!-- Node2&#45;&gt;Node3 -->
<g id="edge2" class="edge">
<title>Node2&#45;&gt;Node3</title>
<path fill="none" stroke="midnightblue" d="M329.08,-224.44C296.22,-215.2 243.72,-200.44 207.53,-190.26"/>
<polygon fill="midnightblue" stroke="midnightblue" points="208.35,-186.85 197.78,-187.52 206.46,-193.59 208.35,-186.85"/>
</g>
<!-- Node4 -->
<g id="node4" class="node">
<title>Node4</title>
<g id="a_node4"><a xlink:href="types_8h.html" target="_top" xlink:title=" ">
<polygon fill="white" stroke="red" points="331.5,-56.5 331.5,-75.5 393.5,-75.5 393.5,-56.5 331.5,-56.5"/>
<text text-anchor="middle" x="362.5" y="-63.5" font-family="Helvetica,sans-Serif" font-size="10.00">../types.h</text>
</a>
</g>
</g>
<!-- Node2&#45;&gt;Node4 -->
<g id="edge11" class="edge">
<title>Node2&#45;&gt;Node4</title>
<path fill="none" stroke="midnightblue" d="M405.2,-226.54C447.99,-219.44 507.41,-206.53 521.5,-188 559.9,-137.48 462.25,-97.38 403.36,-78.6"/>
<polygon fill="midnightblue" stroke="midnightblue" points="404.16,-75.18 393.57,-75.56 402.08,-81.87 404.16,-75.18"/>
</g>
<!-- Node10 -->
<g id="node6" class="node">
<title>Node10</title>
<g id="a_node6"><a xlink:title=" ">
<polygon fill="white" stroke="#bfbfbf" points="219,-112.5 219,-131.5 260,-131.5 260,-112.5 219,-112.5"/>
<text text-anchor="middle" x="239.5" y="-119.5" font-family="Helvetica,sans-Serif" font-size="10.00">tuple</text>
</a>
</g>
</g>
<!-- Node2&#45;&gt;Node10 -->
<g id="edge15" class="edge">
<title>Node2&#45;&gt;Node10</title>
<path fill="none" stroke="midnightblue" d="M328.83,-224.45C308.82,-217.5 283.37,-205.86 266.5,-188 254.32,-175.1 247.27,-155.93 243.45,-141.74"/>
<polygon fill="midnightblue" stroke="midnightblue" points="246.77,-140.57 241.04,-131.65 239.96,-142.19 246.77,-140.57"/>
</g>
<!-- Node17 -->
<g id="node7" class="node">
<title>Node17</title>
<g id="a_node7"><a xlink:href="bounded_8h.html" target="_top" xlink:title=" ">
<polygon fill="white" stroke="red" points="275.5,-168.5 275.5,-187.5 349.5,-187.5 349.5,-168.5 275.5,-168.5"/>
<text text-anchor="middle" x="312.5" y="-175.5" font-family="Helvetica,sans-Serif" font-size="10.00">./bounded.h</text>
</a>
</g>
</g>
<!-- Node2&#45;&gt;Node17 -->
<g id="edge6" class="edge">
<title>Node2&#45;&gt;Node17</title>
<path fill="none" stroke="midnightblue" d="M351.74,-224.08C344.96,-216.3 334.96,-204.8 326.74,-195.37"/>
<polygon fill="midnightblue" stroke="midnightblue" points="329.32,-193 320.12,-187.75 324.04,-197.59 329.32,-193"/>
</g>
<!-- Node19 -->
<g id="node8" class="node">
<title>Node19</title>
<g id="a_node8"><a xlink:href="min__max_8h.html" target="_top" xlink:title=" ">
<polygon fill="white" stroke="red" points="368,-168.5 368,-187.5 445,-187.5 445,-168.5 368,-168.5"/>
<text text-anchor="middle" x="406.5" y="-175.5" font-family="Helvetica,sans-Serif" font-size="10.00">./min_max.h</text>
</a>
</g>
</g>
<!-- Node2&#45;&gt;Node19 -->
<g id="edge7" class="edge">
<title>Node2&#45;&gt;Node19</title>
<path fill="none" stroke="midnightblue" d="M367.26,-224.08C374.04,-216.3 384.04,-204.8 392.26,-195.37"/>
<polygon fill="midnightblue" stroke="midnightblue" points="394.96,-197.59 398.88,-187.75 389.68,-193 394.96,-197.59"/>
</g>
<!-- Node2&#45;&gt;Node21 -->
<g id="edge8" class="edge">
<title>Node2&#45;&gt;Node21</title>
<path fill="none" stroke="midnightblue" d="M313.82,-226.47C257.27,-218.24 158.08,-203.3 73.5,-188 72.06,-187.74 70.6,-187.47 69.12,-187.19"/>
<polygon fill="midnightblue" stroke="midnightblue" points="69.77,-183.75 59.29,-185.28 68.44,-190.62 69.77,-183.75"/>
</g>
<!-- Node24 -->
<g id="node10" class="node">
<title>Node24</title>
<g id="a_node10"><a xlink:href="view_8h.html" target="_top" xlink:title=" ">
<polygon fill="white" stroke="red" points="60.5,-112.5 60.5,-131.5 114.5,-131.5 114.5,-112.5 60.5,-112.5"/>
<text text-anchor="middle" x="87.5" y="-119.5" font-family="Helvetica,sans-Serif" font-size="10.00">./view.h</text>
</a>
</g>
</g>
<!-- Node2&#45;&gt;Node24 -->
<g id="edge12" class="edge">
<title>Node2&#45;&gt;Node24</title>
<path fill="none" stroke="midnightblue" d="M313.75,-230.55C249.32,-226.17 136.39,-214.81 106.5,-188 93.53,-176.36 89.21,-156.41 87.87,-141.68"/>
<polygon fill="midnightblue" stroke="midnightblue" points="91.36,-141.45 87.33,-131.65 84.37,-141.82 91.36,-141.45"/>
</g>
<!-- Node26 -->
<g id="node11" class="node">
<title>Node26</title>
<g id="a_node11"><a xlink:title=" ">
<polygon fill="white" stroke="#bfbfbf" points="569,-168.5 569,-187.5 616,-187.5 616,-168.5 569,-168.5"/>
<text text-anchor="middle" x="592.5" y="-175.5" font-family="Helvetica,sans-Serif" font-size="10.00">cmath</text>
</a>
</g>
</g>
<!-- Node2&#45;&gt;Node26 -->
<g id="edge13" class="edge">
<title>Node2&#45;&gt;Node26</title>
<path fill="none" stroke="midnightblue" d="M396.9,-224.44C436.16,-215.43 499.69,-200.81 554.5,-188 555.94,-187.66 557.42,-187.32 558.91,-186.97"/>
<polygon fill="midnightblue" stroke="midnightblue" points="559.86,-190.34 568.79,-184.64 558.25,-183.53 559.86,-190.34"/>
</g>
<!-- Node27 -->
<g id="node12" class="node">
<title>Node27</title>
<g id="a_node12"><a xlink:title=" ">
<polygon fill="white" stroke="#bfbfbf" points="463,-168.5 463,-187.5 512,-187.5 512,-168.5 463,-168.5"/>
<text text-anchor="middle" x="487.5" y="-175.5" font-family="Helvetica,sans-Serif" font-size="10.00">cstdlib</text>
</a>
</g>
</g>
<!-- Node2&#45;&gt;Node27 -->
<g id="edge14" class="edge">
<title>Node2&#45;&gt;Node27</title>
<path fill="none" stroke="midnightblue" d="M379.78,-224.44C400.85,-215.56 434.02,-201.56 457.99,-191.45"/>
<polygon fill="midnightblue" stroke="midnightblue" points="459.46,-194.63 467.31,-187.52 456.74,-188.18 459.46,-194.63"/>
</g>
<!-- Node3&#45;&gt;Node4 -->
<g id="edge3" class="edge">
<title>Node3&#45;&gt;Node4</title>
<path fill="none" stroke="midnightblue" d="M170.85,-168.44C176.74,-154.5 190.27,-126.97 210.5,-112 243.14,-87.85 288.64,-76.59 321.34,-71.38"/>
<polygon fill="midnightblue" stroke="midnightblue" points="322.09,-74.81 331.47,-69.9 321.07,-67.88 322.09,-74.81"/>
</g>
<!-- Node3&#45;&gt;Node10 -->
<g id="edge5" class="edge">
<title>Node3&#45;&gt;Node10</title>
<path fill="none" stroke="midnightblue" d="M179.07,-168.32C189.92,-160.18 206.38,-147.84 219.38,-138.09"/>
<polygon fill="midnightblue" stroke="midnightblue" points="221.82,-140.63 227.72,-131.83 217.62,-135.03 221.82,-140.63"/>
</g>
<!-- Node16 -->
<g id="node5" class="node">
<title>Node16</title>
<g id="a_node5"><a xlink:title=" ">
<polygon fill="white" stroke="#bfbfbf" points="622.5,-0.5 622.5,-19.5 666.5,-19.5 666.5,-0.5 622.5,-0.5"/>
<text text-anchor="middle" x="644.5" y="-7.5" font-family="Helvetica,sans-Serif" font-size="10.00">string</text>
</a>
</g>
</g>
<!-- Node4&#45;&gt;Node16 -->
<g id="edge4" class="edge">
<title>Node4&#45;&gt;Node16</title>
<path fill="none" stroke="midnightblue" d="M393.76,-59.01C447.67,-48.69 557.59,-27.64 612.21,-17.18"/>
<polygon fill="midnightblue" stroke="midnightblue" points="613.2,-20.56 622.36,-15.24 611.88,-13.68 613.2,-20.56"/>
</g>
<!-- Node21&#45;&gt;Node24 -->
<g id="edge9" class="edge">
<title>Node21&#45;&gt;Node24</title>
<path fill="none" stroke="midnightblue" d="M38.82,-168.32C47.39,-160.34 60.31,-148.31 70.69,-138.65"/>
<polygon fill="midnightblue" stroke="midnightblue" points="73.08,-141.21 78.01,-131.83 68.31,-136.09 73.08,-141.21"/>
</g>
<!-- Node24&#45;&gt;Node4 -->
<g id="edge10" class="edge">
<title>Node24&#45;&gt;Node4</title>
<path fill="none" stroke="midnightblue" d="M114.62,-115.67C162.97,-106.18 264.31,-86.28 321.3,-75.09"/>
<polygon fill="midnightblue" stroke="midnightblue" points="322.27,-78.47 331.41,-73.11 320.92,-71.6 322.27,-78.47"/>
</g>
<!-- Node28&#45;&gt;Node2 -->
<g id="edge17" class="edge">
<title>Node28&#45;&gt;Node2</title>
<path fill="none" stroke="midnightblue" d="M516.03,-280.44C484.33,-271.24 433.77,-256.56 398.73,-246.39"/>
<polygon fill="midnightblue" stroke="midnightblue" points="399.41,-242.94 388.83,-243.52 397.46,-249.67 399.41,-242.94"/>
</g>
<!-- Node28&#45;&gt;Node16 -->
<g id="edge21" class="edge">
<title>Node28&#45;&gt;Node16</title>
<path fill="none" stroke="midnightblue" d="M573.89,-280.42C614.01,-266.34 682.5,-234.21 682.5,-179 682.5,-179 682.5,-179 682.5,-121 682.5,-86.81 665.9,-49.76 654.64,-28.57"/>
<polygon fill="midnightblue" stroke="midnightblue" points="657.68,-26.83 649.78,-19.77 651.55,-30.22 657.68,-26.83"/>
</g>
<!-- Node29 -->
<g id="node14" class="node">
<title>Node29</title>
<g id="a_node14"><a xlink:href="quantity_8h.html" target="_top" xlink:title=" ">
<polygon fill="white" stroke="red" points="557,-224.5 557,-243.5 628,-243.5 628,-224.5 557,-224.5"/>
<text text-anchor="middle" x="592.5" y="-231.5" font-family="Helvetica,sans-Serif" font-size="10.00">./quantity.h</text>
</a>
</g>
</g>
<!-- Node28&#45;&gt;Node29 -->
<g id="edge18" class="edge">
<title>Node28&#45;&gt;Node29</title>
<path fill="none" stroke="midnightblue" d="M553.26,-280.08C560.04,-272.3 570.04,-260.8 578.26,-251.37"/>
<polygon fill="midnightblue" stroke="midnightblue" points="580.96,-253.59 584.88,-243.75 575.68,-249 580.96,-253.59"/>
</g>
<!-- Node29&#45;&gt;Node16 -->
<g id="edge20" class="edge">
<title>Node29&#45;&gt;Node16</title>
<path fill="none" stroke="midnightblue" d="M601.17,-224.22C608.98,-215.72 620.04,-202.09 625.5,-188 646.59,-133.61 646.91,-63.21 645.62,-29.97"/>
<polygon fill="midnightblue" stroke="midnightblue" points="649.11,-29.67 645.13,-19.85 642.12,-30.01 649.11,-29.67"/>
</g>
<!-- Node29&#45;&gt;Node26 -->
<g id="edge19" class="edge">
<title>Node29&#45;&gt;Node26</title>
<path fill="none" stroke="midnightblue" d="M592.5,-224.08C592.5,-217.01 592.5,-206.86 592.5,-197.99"/>
<polygon fill="midnightblue" stroke="midnightblue" points="596,-197.75 592.5,-187.75 589,-197.75 596,-197.75"/>
</g>
</g>
</svg>
