<?xml version="1.0" encoding="UTF-8" standalone="no"?>
<!DOCTYPE svg PUBLIC "-//W3C//DTD SVG 1.1//EN"
 "http://www.w3.org/Graphics/SVG/1.1/DTD/svg11.dtd">
<!-- Generated by graphviz version 2.43.0 (0)
 -->
<!-- Title: include/emlabcpp/experimental/geom/vec_point_base.h Pages: 1 -->
<svg width="914pt" height="330pt"
 viewBox="0.00 0.00 913.78 330.00" xmlns="http://www.w3.org/2000/svg" xmlns:xlink="http://www.w3.org/1999/xlink">
<g id="graph0" class="graph" transform="scale(1 1) rotate(0) translate(4 326)">
<title>include/emlabcpp/experimental/geom/vec_point_base.h</title>
<polygon fill="white" stroke="transparent" points="-4,4 -4,-326 909.78,-326 909.78,4 -4,4"/>
<!-- Node1 -->
<g id="node1" class="node">
<title>Node1</title>
<g id="a_node1"><a xlink:title=" ">
<polygon fill="#bfbfbf" stroke="black" points="304.28,-291.5 304.28,-321.5 475.28,-321.5 475.28,-291.5 304.28,-291.5"/>
<text text-anchor="start" x="312.28" y="-309.5" font-family="Helvetica,sans-Serif" font-size="10.00">include/emlabcpp/experimental</text>
<text text-anchor="middle" x="389.78" y="-298.5" font-family="Helvetica,sans-Serif" font-size="10.00">/geom/vec_point_base.h</text>
</a>
</g>
</g>
<!-- Node2 -->
<g id="node2" class="node">
<title>Node2</title>
<g id="a_node2"><a xlink:href="algorithm_8h.html" target="_top" xlink:title=" ">
<polygon fill="white" stroke="black" points="327.78,-179.5 327.78,-198.5 451.78,-198.5 451.78,-179.5 327.78,-179.5"/>
<text text-anchor="middle" x="389.78" y="-186.5" font-family="Helvetica,sans-Serif" font-size="10.00">emlabcpp/algorithm.h</text>
</a>
</g>
</g>
<!-- Node1&#45;&gt;Node2 -->
<g id="edge1" class="edge">
<title>Node1&#45;&gt;Node2</title>
<path fill="none" stroke="midnightblue" d="M389.78,-291.34C389.78,-270.62 389.78,-232.02 389.78,-208.9"/>
<polygon fill="midnightblue" stroke="midnightblue" points="393.28,-208.67 389.78,-198.67 386.28,-208.67 393.28,-208.67"/>
</g>
<!-- Node21 -->
<g id="node9" class="node">
<title>Node21</title>
<g id="a_node9"><a xlink:href="range_8h.html" target="_top" xlink:title=" ">
<polygon fill="white" stroke="red" points="801.78,-118 801.78,-137 905.78,-137 905.78,-118 801.78,-118"/>
<text text-anchor="middle" x="853.78" y="-125" font-family="Helvetica,sans-Serif" font-size="10.00">emlabcpp/range.h</text>
</a>
</g>
</g>
<!-- Node1&#45;&gt;Node21 -->
<g id="edge21" class="edge">
<title>Node1&#45;&gt;Node21</title>
<path fill="none" stroke="midnightblue" d="M426.58,-291.46C515.05,-257.72 738.48,-172.48 821.81,-140.7"/>
<polygon fill="midnightblue" stroke="midnightblue" points="823.16,-143.93 831.25,-137.09 820.66,-137.39 823.16,-143.93"/>
</g>
<!-- Node28 -->
<g id="node13" class="node">
<title>Node28</title>
<g id="a_node13"><a xlink:href="physical__quantity_8h.html" target="_top" xlink:title=" ">
<polygon fill="white" stroke="black" points="125.28,-235.5 125.28,-254.5 286.28,-254.5 286.28,-235.5 125.28,-235.5"/>
<text text-anchor="middle" x="205.78" y="-242.5" font-family="Helvetica,sans-Serif" font-size="10.00">emlabcpp/physical_quantity.h</text>
</a>
</g>
</g>
<!-- Node1&#45;&gt;Node28 -->
<g id="edge15" class="edge">
<title>Node1&#45;&gt;Node28</title>
<path fill="none" stroke="midnightblue" d="M346.18,-291.4C314.38,-281.12 271.81,-267.35 241.91,-257.68"/>
<polygon fill="midnightblue" stroke="midnightblue" points="242.88,-254.32 232.29,-254.57 240.73,-260.98 242.88,-254.32"/>
</g>
<!-- Node3 -->
<g id="node3" class="node">
<title>Node3</title>
<g id="a_node3"><a xlink:href="impl_8h.html" target="_top" xlink:title=" ">
<polygon fill="white" stroke="black" points="375.28,-112.5 375.28,-142.5 490.28,-142.5 490.28,-112.5 375.28,-112.5"/>
<text text-anchor="start" x="383.28" y="-130.5" font-family="Helvetica,sans-Serif" font-size="10.00">emlabcpp/algorithm</text>
<text text-anchor="middle" x="432.78" y="-119.5" font-family="Helvetica,sans-Serif" font-size="10.00">/impl.h</text>
</a>
</g>
</g>
<!-- Node2&#45;&gt;Node3 -->
<g id="edge2" class="edge">
<title>Node2&#45;&gt;Node3</title>
<path fill="none" stroke="midnightblue" d="M395.94,-179.48C401.33,-172.02 409.4,-160.85 416.62,-150.87"/>
<polygon fill="midnightblue" stroke="midnightblue" points="419.63,-152.68 422.65,-142.52 413.96,-148.58 419.63,-152.68"/>
</g>
<!-- Node4 -->
<g id="node4" class="node">
<title>Node4</title>
<g id="a_node4"><a xlink:href="types_8h.html" target="_top" xlink:title=" ">
<polygon fill="white" stroke="red" points="537.78,-56.5 537.78,-75.5 641.78,-75.5 641.78,-56.5 537.78,-56.5"/>
<text text-anchor="middle" x="589.78" y="-63.5" font-family="Helvetica,sans-Serif" font-size="10.00">emlabcpp/types.h</text>
</a>
</g>
</g>
<!-- Node2&#45;&gt;Node4 -->
<g id="edge9" class="edge">
<title>Node2&#45;&gt;Node4</title>
<path fill="none" stroke="midnightblue" d="M451.95,-185.43C516.99,-181.29 612.81,-170.55 635.78,-143 651.96,-123.6 628.61,-97.92 609.69,-81.93"/>
<polygon fill="midnightblue" stroke="midnightblue" points="611.71,-79.06 601.73,-75.52 607.32,-84.52 611.71,-79.06"/>
</g>
<!-- Node10 -->
<g id="node6" class="node">
<title>Node10</title>
<g id="a_node6"><a xlink:title=" ">
<polygon fill="white" stroke="#bfbfbf" points="369.28,-56.5 369.28,-75.5 410.28,-75.5 410.28,-56.5 369.28,-56.5"/>
<text text-anchor="middle" x="389.78" y="-63.5" font-family="Helvetica,sans-Serif" font-size="10.00">tuple</text>
</a>
</g>
</g>
<!-- Node2&#45;&gt;Node10 -->
<g id="edge14" class="edge">
<title>Node2&#45;&gt;Node10</title>
<path fill="none" stroke="midnightblue" d="M383.42,-179.23C377.52,-170.53 369.18,-156.57 365.78,-143 362.44,-129.63 362.44,-125.37 365.78,-112 368.22,-102.25 373.22,-92.29 378.03,-84.23"/>
<polygon fill="midnightblue" stroke="midnightblue" points="381,-86.08 383.42,-75.77 375.09,-82.32 381,-86.08"/>
</g>
<!-- Node17 -->
<g id="node7" class="node">
<title>Node17</title>
<g id="a_node7"><a xlink:href="bounded_8h.html" target="_top" xlink:title=" ">
<polygon fill="white" stroke="red" points="508.28,-118 508.28,-137 627.28,-137 627.28,-118 508.28,-118"/>
<text text-anchor="middle" x="567.78" y="-125" font-family="Helvetica,sans-Serif" font-size="10.00">emlabcpp/bounded.h</text>
</a>
</g>
</g>
<!-- Node2&#45;&gt;Node17 -->
<g id="edge6" class="edge">
<title>Node2&#45;&gt;Node17</title>
<path fill="none" stroke="midnightblue" d="M415.29,-179.48C446.08,-169.18 498.05,-151.81 532.63,-140.25"/>
<polygon fill="midnightblue" stroke="midnightblue" points="533.95,-143.5 542.33,-137.01 531.73,-136.86 533.95,-143.5"/>
</g>
<!-- Node19 -->
<g id="node8" class="node">
<title>Node19</title>
<g id="a_node8"><a xlink:href="min__max_8h.html" target="_top" xlink:title=" ">
<polygon fill="white" stroke="red" points="128.78,-118 128.78,-137 250.78,-137 250.78,-118 128.78,-118"/>
<text text-anchor="middle" x="189.78" y="-125" font-family="Helvetica,sans-Serif" font-size="10.00">emlabcpp/min_max.h</text>
</a>
</g>
</g>
<!-- Node2&#45;&gt;Node19 -->
<g id="edge7" class="edge">
<title>Node2&#45;&gt;Node19</title>
<path fill="none" stroke="midnightblue" d="M361.13,-179.48C326.23,-169.09 267.13,-151.51 228.28,-139.95"/>
<polygon fill="midnightblue" stroke="midnightblue" points="228.97,-136.51 218.39,-137.01 226.97,-143.22 228.97,-136.51"/>
</g>
<!-- Node2&#45;&gt;Node21 -->
<g id="edge8" class="edge">
<title>Node2&#45;&gt;Node21</title>
<path fill="none" stroke="midnightblue" d="M452.09,-183.33C531.38,-176.85 672.4,-163.57 791.78,-143 797.93,-141.94 804.38,-140.64 810.7,-139.27"/>
<polygon fill="midnightblue" stroke="midnightblue" points="811.49,-142.68 820.47,-137.05 809.94,-135.85 811.49,-142.68"/>
</g>
<!-- Node24 -->
<g id="node10" class="node">
<title>Node24</title>
<g id="a_node10"><a xlink:href="view_8h.html" target="_top" xlink:title=" ">
<polygon fill="white" stroke="red" points="684.28,-118 684.28,-137 783.28,-137 783.28,-118 684.28,-118"/>
<text text-anchor="middle" x="733.78" y="-125" font-family="Helvetica,sans-Serif" font-size="10.00">emlabcpp/view.h</text>
</a>
</g>
</g>
<!-- Node2&#45;&gt;Node24 -->
<g id="edge10" class="edge">
<title>Node2&#45;&gt;Node24</title>
<path fill="none" stroke="midnightblue" d="M449.79,-179.48C506.62,-171.15 594.25,-157.61 669.78,-143 675.66,-141.86 681.82,-140.58 687.9,-139.26"/>
<polygon fill="midnightblue" stroke="midnightblue" points="688.98,-142.61 697.99,-137.03 687.47,-135.78 688.98,-142.61"/>
</g>
<!-- Node26 -->
<g id="node11" class="node">
<title>Node26</title>
<g id="a_node11"><a xlink:title=" ">
<polygon fill="white" stroke="#bfbfbf" points="63.28,-118 63.28,-137 110.28,-137 110.28,-118 63.28,-118"/>
<text text-anchor="middle" x="86.78" y="-125" font-family="Helvetica,sans-Serif" font-size="10.00">cmath</text>
</a>
</g>
</g>
<!-- Node2&#45;&gt;Node26 -->
<g id="edge12" class="edge">
<title>Node2&#45;&gt;Node26</title>
<path fill="none" stroke="midnightblue" d="M327.67,-182.09C272.3,-175.78 189.46,-163.76 119.78,-143 117.64,-142.36 115.45,-141.62 113.27,-140.81"/>
<polygon fill="midnightblue" stroke="midnightblue" points="114.53,-137.54 103.95,-137.01 111.88,-144.03 114.53,-137.54"/>
</g>
<!-- Node27 -->
<g id="node12" class="node">
<title>Node27</title>
<g id="a_node12"><a xlink:title=" ">
<polygon fill="white" stroke="#bfbfbf" points="269.28,-118 269.28,-137 318.28,-137 318.28,-118 269.28,-118"/>
<text text-anchor="middle" x="293.78" y="-125" font-family="Helvetica,sans-Serif" font-size="10.00">cstdlib</text>
</a>
</g>
</g>
<!-- Node2&#45;&gt;Node27 -->
<g id="edge13" class="edge">
<title>Node2&#45;&gt;Node27</title>
<path fill="none" stroke="midnightblue" d="M376.03,-179.48C360.42,-169.8 334.72,-153.87 316.2,-142.39"/>
<polygon fill="midnightblue" stroke="midnightblue" points="317.86,-139.3 307.51,-137.01 314.17,-145.25 317.86,-139.3"/>
</g>
<!-- Node3&#45;&gt;Node4 -->
<g id="edge3" class="edge">
<title>Node3&#45;&gt;Node4</title>
<path fill="none" stroke="midnightblue" d="M469.99,-112.4C496.57,-102.33 531.97,-88.91 557.39,-79.28"/>
<polygon fill="midnightblue" stroke="midnightblue" points="558.83,-82.47 566.94,-75.66 556.35,-75.93 558.83,-82.47"/>
</g>
<!-- Node3&#45;&gt;Node10 -->
<g id="edge5" class="edge">
<title>Node3&#45;&gt;Node10</title>
<path fill="none" stroke="midnightblue" d="M422.59,-112.4C416.41,-103.84 408.48,-92.87 401.97,-83.86"/>
<polygon fill="midnightblue" stroke="midnightblue" points="404.73,-81.71 396.04,-75.66 399.06,-85.81 404.73,-81.71"/>
</g>
<!-- Node16 -->
<g id="node5" class="node">
<title>Node16</title>
<g id="a_node5"><a xlink:title=" ">
<polygon fill="white" stroke="#bfbfbf" points="12.78,-0.5 12.78,-19.5 56.78,-19.5 56.78,-0.5 12.78,-0.5"/>
<text text-anchor="middle" x="34.78" y="-7.5" font-family="Helvetica,sans-Serif" font-size="10.00">string</text>
</a>
</g>
</g>
<!-- Node4&#45;&gt;Node16 -->
<g id="edge4" class="edge">
<title>Node4&#45;&gt;Node16</title>
<path fill="none" stroke="midnightblue" d="M537.57,-59.92C424.4,-48.91 159.28,-23.11 67.07,-14.14"/>
<polygon fill="midnightblue" stroke="midnightblue" points="67.24,-10.64 56.95,-13.16 66.57,-17.61 67.24,-10.64"/>
</g>
<!-- Node24&#45;&gt;Node4 -->
<g id="edge11" class="edge">
<title>Node24&#45;&gt;Node4</title>
<path fill="none" stroke="midnightblue" d="M713.15,-117.98C688.66,-107.86 647.64,-90.9 619.67,-79.35"/>
<polygon fill="midnightblue" stroke="midnightblue" points="620.96,-76.09 610.38,-75.51 618.28,-82.56 620.96,-76.09"/>
</g>
<!-- Node28&#45;&gt;Node2 -->
<g id="edge16" class="edge">
<title>Node28&#45;&gt;Node2</title>
<path fill="none" stroke="midnightblue" d="M234.94,-235.44C266.3,-226.24 316.31,-211.56 350.98,-201.39"/>
<polygon fill="midnightblue" stroke="midnightblue" points="352.15,-204.69 360.76,-198.52 350.18,-197.97 352.15,-204.69"/>
</g>
<!-- Node28&#45;&gt;Node16 -->
<g id="edge20" class="edge">
<title>Node28&#45;&gt;Node16</title>
<path fill="none" stroke="midnightblue" d="M131.7,-235.46C86.14,-228.51 33.86,-216.88 19.78,-199 -19.84,-148.65 9.88,-65.43 26.08,-29.01"/>
<polygon fill="midnightblue" stroke="midnightblue" points="29.38,-30.21 30.4,-19.66 23.03,-27.27 29.38,-30.21"/>
</g>
<!-- Node29 -->
<g id="node14" class="node">
<title>Node29</title>
<g id="a_node14"><a xlink:href="quantity_8h.html" target="_top" xlink:title=" ">
<polygon fill="white" stroke="red" points="28.78,-179.5 28.78,-198.5 144.78,-198.5 144.78,-179.5 28.78,-179.5"/>
<text text-anchor="middle" x="86.78" y="-186.5" font-family="Helvetica,sans-Serif" font-size="10.00">emlabcpp/quantity.h</text>
</a>
</g>
</g>
<!-- Node28&#45;&gt;Node29 -->
<g id="edge17" class="edge">
<title>Node28&#45;&gt;Node29</title>
<path fill="none" stroke="midnightblue" d="M186.93,-235.44C167.52,-226.64 137.05,-212.81 114.82,-202.72"/>
<polygon fill="midnightblue" stroke="midnightblue" points="116.1,-199.46 105.55,-198.52 113.21,-205.84 116.1,-199.46"/>
</g>
<!-- Node29&#45;&gt;Node16 -->
<g id="edge19" class="edge">
<title>Node29&#45;&gt;Node16</title>
<path fill="none" stroke="midnightblue" d="M78.52,-179.5C70.79,-170.99 59.57,-157.17 53.78,-143 38.22,-104.91 35.11,-56.1 34.66,-29.8"/>
<polygon fill="midnightblue" stroke="midnightblue" points="38.16,-29.69 34.61,-19.71 31.16,-29.73 38.16,-29.69"/>
</g>
<!-- Node29&#45;&gt;Node26 -->
<g id="edge18" class="edge">
<title>Node29&#45;&gt;Node26</title>
<path fill="none" stroke="midnightblue" d="M86.78,-179.48C86.78,-171.08 86.78,-157.98 86.78,-147.16"/>
<polygon fill="midnightblue" stroke="midnightblue" points="90.28,-147.01 86.78,-137.01 83.28,-147.01 90.28,-147.01"/>
</g>
</g>
</svg>
