<?xml version="1.0" encoding="UTF-8" standalone="no"?>
<!DOCTYPE svg PUBLIC "-//W3C//DTD SVG 1.1//EN"
 "http://www.w3.org/Graphics/SVG/1.1/DTD/svg11.dtd">
<!-- Generated by graphviz version 2.43.0 (0)
 -->
<!-- Title: include/emlabcpp/experimental/geom/vec_point_base.h Pages: 1 -->
<svg width="708pt" height="319pt"
 viewBox="0.00 0.00 707.50 319.00" xmlns="http://www.w3.org/2000/svg" xmlns:xlink="http://www.w3.org/1999/xlink">
<g id="graph0" class="graph" transform="scale(1 1) rotate(0) translate(4 315)">
<title>include/emlabcpp/experimental/geom/vec_point_base.h</title>
<polygon fill="white" stroke="transparent" points="-4,4 -4,-315 703.5,-315 703.5,4 -4,4"/>
<!-- Node1 -->
<g id="node1" class="node">
<title>Node1</title>
<g id="a_node1"><a xlink:title=" ">
<polygon fill="#bfbfbf" stroke="black" points="242.5,-280.5 242.5,-310.5 413.5,-310.5 413.5,-280.5 242.5,-280.5"/>
<text text-anchor="start" x="250.5" y="-298.5" font-family="Helvetica,sans-Serif" font-size="10.00">include/emlabcpp/experimental</text>
<text text-anchor="middle" x="328" y="-287.5" font-family="Helvetica,sans-Serif" font-size="10.00">/geom/vec_point_base.h</text>
</a>
</g>
</g>
<!-- Node2 -->
<g id="node2" class="node">
<title>Node2</title>
<g id="a_node2"><a xlink:href="algorithm_8h.html" target="_top" xlink:title=" ">
<polygon fill="white" stroke="black" points="282.5,-168.5 282.5,-187.5 373.5,-187.5 373.5,-168.5 282.5,-168.5"/>
<text text-anchor="middle" x="328" y="-175.5" font-family="Helvetica,sans-Serif" font-size="10.00">../../algorithm.h</text>
</a>
</g>
</g>
<!-- Node1&#45;&gt;Node2 -->
<g id="edge1" class="edge">
<title>Node1&#45;&gt;Node2</title>
<path fill="none" stroke="midnightblue" d="M328,-280.34C328,-259.62 328,-221.02 328,-197.9"/>
<polygon fill="midnightblue" stroke="midnightblue" points="331.5,-197.67 328,-187.67 324.5,-197.67 331.5,-197.67"/>
</g>
<!-- Node21 -->
<g id="node9" class="node">
<title>Node21</title>
<g id="a_node9"><a xlink:href="range_8h.html" target="_top" xlink:title=" ">
<polygon fill="white" stroke="red" points="640.5,-112.5 640.5,-131.5 699.5,-131.5 699.5,-112.5 640.5,-112.5"/>
<text text-anchor="middle" x="670" y="-119.5" font-family="Helvetica,sans-Serif" font-size="10.00">./range.h</text>
</a>
</g>
</g>
<!-- Node1&#45;&gt;Node21 -->
<g id="edge21" class="edge">
<title>Node1&#45;&gt;Node21</title>
<path fill="none" stroke="midnightblue" d="M355.99,-280.47C420.8,-247.96 580.47,-167.9 643.65,-136.21"/>
<polygon fill="midnightblue" stroke="midnightblue" points="645.56,-139.17 652.93,-131.56 642.42,-132.91 645.56,-139.17"/>
</g>
<!-- Node28 -->
<g id="node13" class="node">
<title>Node28</title>
<g id="a_node13"><a xlink:href="physical__quantity_8h.html" target="_top" xlink:title=" ">
<polygon fill="white" stroke="black" points="111,-224.5 111,-243.5 239,-243.5 239,-224.5 111,-224.5"/>
<text text-anchor="middle" x="175" y="-231.5" font-family="Helvetica,sans-Serif" font-size="10.00">../../physical_quantity.h</text>
</a>
</g>
</g>
<!-- Node1&#45;&gt;Node28 -->
<g id="edge15" class="edge">
<title>Node1&#45;&gt;Node28</title>
<path fill="none" stroke="midnightblue" d="M291.74,-280.4C265.96,-270.37 231.64,-257.03 206.9,-247.4"/>
<polygon fill="midnightblue" stroke="midnightblue" points="207.85,-244.02 197.26,-243.66 205.31,-250.54 207.85,-244.02"/>
</g>
<!-- Node3 -->
<g id="node3" class="node">
<title>Node3</title>
<g id="a_node3"><a xlink:href="impl_8h.html" target="_top" xlink:title=" ">
<polygon fill="white" stroke="black" points="316,-112.5 316,-131.5 420,-131.5 420,-112.5 316,-112.5"/>
<text text-anchor="middle" x="368" y="-119.5" font-family="Helvetica,sans-Serif" font-size="10.00">./algorithm/impl.h</text>
</a>
</g>
</g>
<!-- Node2&#45;&gt;Node3 -->
<g id="edge2" class="edge">
<title>Node2&#45;&gt;Node3</title>
<path fill="none" stroke="midnightblue" d="M334.61,-168.08C340.26,-160.46 348.54,-149.26 355.45,-139.94"/>
<polygon fill="midnightblue" stroke="midnightblue" points="358.38,-141.87 361.52,-131.75 352.75,-137.7 358.38,-141.87"/>
</g>
<!-- Node4 -->
<g id="node4" class="node">
<title>Node4</title>
<g id="a_node4"><a xlink:href="types_8h.html" target="_top" xlink:title=" ">
<polygon fill="white" stroke="red" points="423,-56.5 423,-75.5 485,-75.5 485,-56.5 423,-56.5"/>
<text text-anchor="middle" x="454" y="-63.5" font-family="Helvetica,sans-Serif" font-size="10.00">../types.h</text>
</a>
</g>
</g>
<!-- Node2&#45;&gt;Node4 -->
<g id="edge9" class="edge">
<title>Node2&#45;&gt;Node4</title>
<path fill="none" stroke="midnightblue" d="M373.91,-172.78C425.07,-167.02 502.98,-154.7 521,-132 536.72,-112.19 508.38,-92.38 483.85,-79.93"/>
<polygon fill="midnightblue" stroke="midnightblue" points="485.26,-76.72 474.73,-75.53 482.22,-83.03 485.26,-76.72"/>
</g>
<!-- Node10 -->
<g id="node6" class="node">
<title>Node10</title>
<g id="a_node6"><a xlink:title=" ">
<polygon fill="white" stroke="#bfbfbf" points="307.5,-56.5 307.5,-75.5 348.5,-75.5 348.5,-56.5 307.5,-56.5"/>
<text text-anchor="middle" x="328" y="-63.5" font-family="Helvetica,sans-Serif" font-size="10.00">tuple</text>
</a>
</g>
</g>
<!-- Node2&#45;&gt;Node10 -->
<g id="edge14" class="edge">
<title>Node2&#45;&gt;Node10</title>
<path fill="none" stroke="midnightblue" d="M322.07,-168.31C314.37,-155.98 302.43,-132.61 307,-112 309.12,-102.43 313.51,-92.48 317.72,-84.37"/>
<polygon fill="midnightblue" stroke="midnightblue" points="320.82,-86 322.62,-75.56 314.7,-82.6 320.82,-86"/>
</g>
<!-- Node17 -->
<g id="node7" class="node">
<title>Node17</title>
<g id="a_node7"><a xlink:href="bounded_8h.html" target="_top" xlink:title=" ">
<polygon fill="white" stroke="red" points="438,-112.5 438,-131.5 512,-131.5 512,-112.5 438,-112.5"/>
<text text-anchor="middle" x="475" y="-119.5" font-family="Helvetica,sans-Serif" font-size="10.00">./bounded.h</text>
</a>
</g>
</g>
<!-- Node2&#45;&gt;Node17 -->
<g id="edge6" class="edge">
<title>Node2&#45;&gt;Node17</title>
<path fill="none" stroke="midnightblue" d="M351.29,-168.44C375.81,-159.44 414.6,-145.19 442.2,-135.05"/>
<polygon fill="midnightblue" stroke="midnightblue" points="443.64,-138.25 451.82,-131.52 441.22,-131.68 443.64,-138.25"/>
</g>
<!-- Node19 -->
<g id="node8" class="node">
<title>Node19</title>
<g id="a_node8"><a xlink:href="min__max_8h.html" target="_top" xlink:title=" ">
<polygon fill="white" stroke="red" points="115.5,-112.5 115.5,-131.5 192.5,-131.5 192.5,-112.5 115.5,-112.5"/>
<text text-anchor="middle" x="154" y="-119.5" font-family="Helvetica,sans-Serif" font-size="10.00">./min_max.h</text>
</a>
</g>
</g>
<!-- Node2&#45;&gt;Node19 -->
<g id="edge7" class="edge">
<title>Node2&#45;&gt;Node19</title>
<path fill="none" stroke="midnightblue" d="M300.43,-168.44C270.9,-159.28 223.88,-144.69 191.12,-134.52"/>
<polygon fill="midnightblue" stroke="midnightblue" points="192.03,-131.14 181.44,-131.52 189.96,-137.82 192.03,-131.14"/>
</g>
<!-- Node2&#45;&gt;Node21 -->
<g id="edge8" class="edge">
<title>Node2&#45;&gt;Node21</title>
<path fill="none" stroke="midnightblue" d="M373.62,-171.37C431.11,-164.03 533.15,-150.15 630.26,-132.01"/>
<polygon fill="midnightblue" stroke="midnightblue" points="631.06,-135.42 640.24,-130.12 629.77,-128.54 631.06,-135.42"/>
</g>
<!-- Node24 -->
<g id="node10" class="node">
<title>Node24</title>
<g id="a_node10"><a xlink:href="view_8h.html" target="_top" xlink:title=" ">
<polygon fill="white" stroke="red" points="568,-112.5 568,-131.5 622,-131.5 622,-112.5 568,-112.5"/>
<text text-anchor="middle" x="595" y="-119.5" font-family="Helvetica,sans-Serif" font-size="10.00">./view.h</text>
</a>
</g>
</g>
<!-- Node2&#45;&gt;Node24 -->
<g id="edge10" class="edge">
<title>Node2&#45;&gt;Node24</title>
<path fill="none" stroke="midnightblue" d="M372.22,-168.46C417.82,-159.59 490.96,-145.19 554,-132 555.24,-131.74 556.51,-131.47 557.79,-131.2"/>
<polygon fill="midnightblue" stroke="midnightblue" points="558.63,-134.6 567.67,-129.08 557.16,-127.76 558.63,-134.6"/>
</g>
<!-- Node26 -->
<g id="node11" class="node">
<title>Node26</title>
<g id="a_node11"><a xlink:title=" ">
<polygon fill="white" stroke="#bfbfbf" points="50.5,-112.5 50.5,-131.5 97.5,-131.5 97.5,-112.5 50.5,-112.5"/>
<text text-anchor="middle" x="74" y="-119.5" font-family="Helvetica,sans-Serif" font-size="10.00">cmath</text>
</a>
</g>
</g>
<!-- Node2&#45;&gt;Node26 -->
<g id="edge12" class="edge">
<title>Node2&#45;&gt;Node26</title>
<path fill="none" stroke="midnightblue" d="M282.29,-168.76C239.45,-160.81 173.43,-147.97 107.81,-132.31"/>
<polygon fill="midnightblue" stroke="midnightblue" points="108.26,-128.82 97.71,-129.88 106.62,-135.63 108.26,-128.82"/>
</g>
<!-- Node27 -->
<g id="node12" class="node">
<title>Node27</title>
<g id="a_node12"><a xlink:title=" ">
<polygon fill="white" stroke="#bfbfbf" points="210.5,-112.5 210.5,-131.5 259.5,-131.5 259.5,-112.5 210.5,-112.5"/>
<text text-anchor="middle" x="235" y="-119.5" font-family="Helvetica,sans-Serif" font-size="10.00">cstdlib</text>
</a>
</g>
</g>
<!-- Node2&#45;&gt;Node27 -->
<g id="edge13" class="edge">
<title>Node2&#45;&gt;Node27</title>
<path fill="none" stroke="midnightblue" d="M313.06,-168.32C298.41,-159.82 275.87,-146.73 258.76,-136.8"/>
<polygon fill="midnightblue" stroke="midnightblue" points="260.31,-133.65 249.9,-131.65 256.8,-139.7 260.31,-133.65"/>
</g>
<!-- Node3&#45;&gt;Node4 -->
<g id="edge3" class="edge">
<title>Node3&#45;&gt;Node4</title>
<path fill="none" stroke="midnightblue" d="M381.82,-112.32C395.23,-103.9 415.82,-90.97 431.59,-81.07"/>
<polygon fill="midnightblue" stroke="midnightblue" points="433.61,-83.94 440.22,-75.65 429.89,-78.01 433.61,-83.94"/>
</g>
<!-- Node3&#45;&gt;Node10 -->
<g id="edge5" class="edge">
<title>Node3&#45;&gt;Node10</title>
<path fill="none" stroke="midnightblue" d="M361.39,-112.08C355.74,-104.46 347.46,-93.26 340.55,-83.94"/>
<polygon fill="midnightblue" stroke="midnightblue" points="343.25,-81.7 334.48,-75.75 337.62,-85.87 343.25,-81.7"/>
</g>
<!-- Node16 -->
<g id="node5" class="node">
<title>Node16</title>
<g id="a_node5"><a xlink:title=" ">
<polygon fill="white" stroke="#bfbfbf" points="0,-0.5 0,-19.5 44,-19.5 44,-0.5 0,-0.5"/>
<text text-anchor="middle" x="22" y="-7.5" font-family="Helvetica,sans-Serif" font-size="10.00">string</text>
</a>
</g>
</g>
<!-- Node4&#45;&gt;Node16 -->
<g id="edge4" class="edge">
<title>Node4&#45;&gt;Node16</title>
<path fill="none" stroke="midnightblue" d="M422.93,-61.12C343.69,-51.21 134.63,-25.08 54.18,-15.02"/>
<polygon fill="midnightblue" stroke="midnightblue" points="54.5,-11.54 44.15,-13.77 53.64,-18.48 54.5,-11.54"/>
</g>
<!-- Node24&#45;&gt;Node4 -->
<g id="edge11" class="edge">
<title>Node24&#45;&gt;Node4</title>
<path fill="none" stroke="midnightblue" d="M572.66,-112.44C549.25,-103.48 512.26,-89.31 485.81,-79.18"/>
<polygon fill="midnightblue" stroke="midnightblue" points="486.83,-75.82 476.24,-75.52 484.32,-82.36 486.83,-75.82"/>
</g>
<!-- Node28&#45;&gt;Node2 -->
<g id="edge16" class="edge">
<title>Node28&#45;&gt;Node2</title>
<path fill="none" stroke="midnightblue" d="M199.24,-224.44C224.87,-215.4 265.49,-201.06 294.24,-190.92"/>
<polygon fill="midnightblue" stroke="midnightblue" points="295.61,-194.15 303.87,-187.52 293.28,-187.54 295.61,-194.15"/>
</g>
<!-- Node28&#45;&gt;Node16 -->
<g id="edge20" class="edge">
<title>Node28&#45;&gt;Node16</title>
<path fill="none" stroke="midnightblue" d="M110.81,-229.29C81.29,-224.07 48.56,-212.61 29,-188 -7.95,-141.51 6.86,-64.45 16.37,-29.39"/>
<polygon fill="midnightblue" stroke="midnightblue" points="19.79,-30.15 19.2,-19.57 13.06,-28.21 19.79,-30.15"/>
</g>
<!-- Node29 -->
<g id="node14" class="node">
<title>Node29</title>
<g id="a_node14"><a xlink:href="quantity_8h.html" target="_top" xlink:title=" ">
<polygon fill="white" stroke="red" points="38.5,-168.5 38.5,-187.5 109.5,-187.5 109.5,-168.5 38.5,-168.5"/>
<text text-anchor="middle" x="74" y="-175.5" font-family="Helvetica,sans-Serif" font-size="10.00">./quantity.h</text>
</a>
</g>
</g>
<!-- Node28&#45;&gt;Node29 -->
<g id="edge17" class="edge">
<title>Node28&#45;&gt;Node29</title>
<path fill="none" stroke="midnightblue" d="M158.77,-224.32C142.65,-215.7 117.7,-202.36 99.04,-192.39"/>
<polygon fill="midnightblue" stroke="midnightblue" points="100.66,-189.28 90.19,-187.65 97.36,-195.46 100.66,-189.28"/>
</g>
<!-- Node29&#45;&gt;Node16 -->
<g id="edge19" class="edge">
<title>Node29&#45;&gt;Node16</title>
<path fill="none" stroke="midnightblue" d="M65.78,-168.48C58.07,-159.96 46.88,-146.13 41,-132 26.76,-97.76 23.1,-54.02 22.22,-29.61"/>
<polygon fill="midnightblue" stroke="midnightblue" points="25.72,-29.5 21.98,-19.59 18.72,-29.67 25.72,-29.5"/>
</g>
<!-- Node29&#45;&gt;Node26 -->
<g id="edge18" class="edge">
<title>Node29&#45;&gt;Node26</title>
<path fill="none" stroke="midnightblue" d="M74,-168.08C74,-161.01 74,-150.86 74,-141.99"/>
<polygon fill="midnightblue" stroke="midnightblue" points="77.5,-141.75 74,-131.75 70.5,-141.75 77.5,-141.75"/>
</g>
</g>
</svg>
