<?xml version="1.0" encoding="UTF-8" standalone="no"?>
<!DOCTYPE svg PUBLIC "-//W3C//DTD SVG 1.1//EN"
 "http://www.w3.org/Graphics/SVG/1.1/DTD/svg11.dtd">
<!-- Generated by graphviz version 2.43.0 (0)
 -->
<!-- Title: include/emlabcpp/experimental/geom/vec_point_base.h Pages: 1 -->
<svg width="959pt" height="274pt"
 viewBox="0.00 0.00 959.01 274.00" xmlns="http://www.w3.org/2000/svg" xmlns:xlink="http://www.w3.org/1999/xlink">
<g id="graph0" class="graph" transform="scale(1 1) rotate(0) translate(4 270)">
<title>include/emlabcpp/experimental/geom/vec_point_base.h</title>
<polygon fill="white" stroke="transparent" points="-4,4 -4,-270 955.01,-270 955.01,4 -4,4"/>
<!-- Node1 -->
<g id="node1" class="node">
<title>Node1</title>
<g id="a_node1"><a xlink:title=" ">
<polygon fill="#bfbfbf" stroke="black" points="662.51,-235.5 662.51,-265.5 833.51,-265.5 833.51,-235.5 662.51,-235.5"/>
<text text-anchor="start" x="670.51" y="-253.5" font-family="Helvetica,sans-Serif" font-size="10.00">include/emlabcpp/experimental</text>
<text text-anchor="middle" x="748.01" y="-242.5" font-family="Helvetica,sans-Serif" font-size="10.00">/geom/vec_point_base.h</text>
</a>
</g>
</g>
<!-- Node2 -->
<g id="node2" class="node">
<title>Node2</title>
<g id="a_node2"><a xlink:href="algorithm_8h.html" target="_top" xlink:title=" ">
<polygon fill="white" stroke="black" points="392.01,-179.5 392.01,-198.5 516.01,-198.5 516.01,-179.5 392.01,-179.5"/>
<text text-anchor="middle" x="454.01" y="-186.5" font-family="Helvetica,sans-Serif" font-size="10.00">emlabcpp/algorithm.h</text>
</a>
</g>
</g>
<!-- Node1&#45;&gt;Node2 -->
<g id="edge1" class="edge">
<title>Node1&#45;&gt;Node2</title>
<path fill="none" stroke="midnightblue" d="M678.71,-235.47C625.77,-224.76 553.97,-210.23 505.92,-200.51"/>
<polygon fill="midnightblue" stroke="midnightblue" points="506.54,-197.06 496.04,-198.51 505.15,-203.92 506.54,-197.06"/>
</g>
<!-- Node42 -->
<g id="node12" class="node">
<title>Node42</title>
<g id="a_node12"><a xlink:href="physical__quantity_8h.html" target="_top" xlink:title=" ">
<polygon fill="white" stroke="black" points="667.51,-179.5 667.51,-198.5 828.51,-198.5 828.51,-179.5 667.51,-179.5"/>
<text text-anchor="middle" x="748.01" y="-186.5" font-family="Helvetica,sans-Serif" font-size="10.00">emlabcpp/physical_quantity.h</text>
</a>
</g>
</g>
<!-- Node1&#45;&gt;Node42 -->
<g id="edge14" class="edge">
<title>Node1&#45;&gt;Node42</title>
<path fill="none" stroke="midnightblue" d="M748.01,-235.4C748.01,-227.47 748.01,-217.46 748.01,-208.86"/>
<polygon fill="midnightblue" stroke="midnightblue" points="751.51,-208.66 748.01,-198.66 744.51,-208.66 751.51,-208.66"/>
</g>
<!-- Node27 -->
<g id="node14" class="node">
<title>Node27</title>
<g id="a_node14"><a xlink:href="range_8h.html" target="_top" xlink:title=" ">
<polygon fill="white" stroke="red" points="847.01,-179.5 847.01,-198.5 951.01,-198.5 951.01,-179.5 847.01,-179.5"/>
<text text-anchor="middle" x="899.01" y="-186.5" font-family="Helvetica,sans-Serif" font-size="10.00">emlabcpp/range.h</text>
</a>
</g>
</g>
<!-- Node1&#45;&gt;Node27 -->
<g id="edge19" class="edge">
<title>Node1&#45;&gt;Node27</title>
<path fill="none" stroke="midnightblue" d="M783.8,-235.4C809.24,-225.37 843.11,-212.03 867.53,-202.4"/>
<polygon fill="midnightblue" stroke="midnightblue" points="869.02,-205.58 877.04,-198.66 866.45,-199.07 869.02,-205.58"/>
</g>
<!-- Node3 -->
<g id="node3" class="node">
<title>Node3</title>
<g id="a_node3"><a xlink:href="impl_8h.html" target="_top" xlink:title=" ">
<polygon fill="white" stroke="black" points="296.51,-112.5 296.51,-142.5 411.51,-142.5 411.51,-112.5 296.51,-112.5"/>
<text text-anchor="start" x="304.51" y="-130.5" font-family="Helvetica,sans-Serif" font-size="10.00">emlabcpp/algorithm</text>
<text text-anchor="middle" x="354.01" y="-119.5" font-family="Helvetica,sans-Serif" font-size="10.00">/impl.h</text>
</a>
</g>
</g>
<!-- Node2&#45;&gt;Node3 -->
<g id="edge2" class="edge">
<title>Node2&#45;&gt;Node3</title>
<path fill="none" stroke="midnightblue" d="M439.68,-179.48C425.89,-171.27 404.53,-158.56 386.59,-147.88"/>
<polygon fill="midnightblue" stroke="midnightblue" points="387.96,-144.63 377.58,-142.52 384.38,-150.64 387.96,-144.63"/>
</g>
<!-- Node4 -->
<g id="node4" class="node">
<title>Node4</title>
<g id="a_node4"><a xlink:href="types_8h.html" target="_top" xlink:title=" ">
<polygon fill="white" stroke="red" points="508.01,-56.5 508.01,-75.5 612.01,-75.5 612.01,-56.5 508.01,-56.5"/>
<text text-anchor="middle" x="560.01" y="-63.5" font-family="Helvetica,sans-Serif" font-size="10.00">emlabcpp/types.h</text>
</a>
</g>
</g>
<!-- Node2&#45;&gt;Node4 -->
<g id="edge8" class="edge">
<title>Node2&#45;&gt;Node4</title>
<path fill="none" stroke="midnightblue" d="M516.11,-186.25C548.1,-181.79 584.58,-170.41 605.01,-143 619.87,-123.06 597.85,-97.89 579.71,-82.11"/>
<polygon fill="midnightblue" stroke="midnightblue" points="581.73,-79.24 571.79,-75.58 577.28,-84.64 581.73,-79.24"/>
</g>
<!-- Node10 -->
<g id="node6" class="node">
<title>Node10</title>
<g id="a_node6"><a xlink:title=" ">
<polygon fill="white" stroke="#bfbfbf" points="151.51,-56.5 151.51,-75.5 192.51,-75.5 192.51,-56.5 151.51,-56.5"/>
<text text-anchor="middle" x="172.01" y="-63.5" font-family="Helvetica,sans-Serif" font-size="10.00">tuple</text>
</a>
</g>
</g>
<!-- Node2&#45;&gt;Node10 -->
<g id="edge13" class="edge">
<title>Node2&#45;&gt;Node10</title>
<path fill="none" stroke="midnightblue" d="M391.9,-186.25C275.55,-182.32 34.2,-170.87 9.01,-143 -31.69,-97.97 83.42,-77.5 141.17,-70.26"/>
<polygon fill="midnightblue" stroke="midnightblue" points="141.72,-73.72 151.24,-69.06 140.89,-66.77 141.72,-73.72"/>
</g>
<!-- Node17 -->
<g id="node7" class="node">
<title>Node17</title>
<g id="a_node7"><a xlink:href="bounded_8h.html" target="_top" xlink:title=" ">
<polygon fill="white" stroke="red" points="18.51,-118 18.51,-137 137.51,-137 137.51,-118 18.51,-118"/>
<text text-anchor="middle" x="78.01" y="-125" font-family="Helvetica,sans-Serif" font-size="10.00">emlabcpp/bounded.h</text>
</a>
</g>
</g>
<!-- Node2&#45;&gt;Node17 -->
<g id="edge6" class="edge">
<title>Node2&#45;&gt;Node17</title>
<path fill="none" stroke="midnightblue" d="M391.8,-180.02C329.65,-171.79 231.47,-158.05 147.01,-143 140.37,-141.82 133.4,-140.47 126.53,-139.09"/>
<polygon fill="midnightblue" stroke="midnightblue" points="127.11,-135.63 116.61,-137.05 125.7,-142.49 127.11,-135.63"/>
</g>
<!-- Node25 -->
<g id="node8" class="node">
<title>Node25</title>
<g id="a_node8"><a xlink:href="min__max_8h.html" target="_top" xlink:title=" ">
<polygon fill="white" stroke="red" points="156.01,-118 156.01,-137 278.01,-137 278.01,-118 156.01,-118"/>
<text text-anchor="middle" x="217.01" y="-125" font-family="Helvetica,sans-Serif" font-size="10.00">emlabcpp/min_max.h</text>
</a>
</g>
</g>
<!-- Node2&#45;&gt;Node25 -->
<g id="edge7" class="edge">
<title>Node2&#45;&gt;Node25</title>
<path fill="none" stroke="midnightblue" d="M420.06,-179.48C378.17,-168.96 306.88,-151.06 260.88,-139.51"/>
<polygon fill="midnightblue" stroke="midnightblue" points="261.46,-136.05 250.91,-137.01 259.75,-142.84 261.46,-136.05"/>
</g>
<!-- Node30 -->
<g id="node9" class="node">
<title>Node30</title>
<g id="a_node9"><a xlink:href="view_8h.html" target="_top" xlink:title=" ">
<polygon fill="white" stroke="red" points="496.51,-118 496.51,-137 595.51,-137 595.51,-118 496.51,-118"/>
<text text-anchor="middle" x="546.01" y="-125" font-family="Helvetica,sans-Serif" font-size="10.00">emlabcpp/view.h</text>
</a>
</g>
</g>
<!-- Node2&#45;&gt;Node30 -->
<g id="edge9" class="edge">
<title>Node2&#45;&gt;Node30</title>
<path fill="none" stroke="midnightblue" d="M467.19,-179.48C482.09,-169.84 506.56,-154.02 524.28,-142.55"/>
<polygon fill="midnightblue" stroke="midnightblue" points="526.36,-145.38 532.85,-137.01 522.56,-139.5 526.36,-145.38"/>
</g>
<!-- Node40 -->
<g id="node10" class="node">
<title>Node40</title>
<g id="a_node10"><a xlink:title=" ">
<polygon fill="white" stroke="#bfbfbf" points="658.51,-56.5 658.51,-75.5 705.51,-75.5 705.51,-56.5 658.51,-56.5"/>
<text text-anchor="middle" x="682.01" y="-63.5" font-family="Helvetica,sans-Serif" font-size="10.00">cmath</text>
</a>
</g>
</g>
<!-- Node2&#45;&gt;Node40 -->
<g id="edge11" class="edge">
<title>Node2&#45;&gt;Node40</title>
<path fill="none" stroke="midnightblue" d="M516.16,-180.77C549.36,-174.65 589.72,-163.45 621.01,-143 643.74,-128.15 661.95,-102.04 672.37,-84.64"/>
<polygon fill="midnightblue" stroke="midnightblue" points="675.64,-85.96 677.58,-75.54 669.57,-82.48 675.64,-85.96"/>
</g>
<!-- Node41 -->
<g id="node11" class="node">
<title>Node41</title>
<g id="a_node11"><a xlink:title=" ">
<polygon fill="white" stroke="#bfbfbf" points="429.51,-118 429.51,-137 478.51,-137 478.51,-118 429.51,-118"/>
<text text-anchor="middle" x="454.01" y="-125" font-family="Helvetica,sans-Serif" font-size="10.00">cstdlib</text>
</a>
</g>
</g>
<!-- Node2&#45;&gt;Node41 -->
<g id="edge12" class="edge">
<title>Node2&#45;&gt;Node41</title>
<path fill="none" stroke="midnightblue" d="M454.01,-179.48C454.01,-171.08 454.01,-157.98 454.01,-147.16"/>
<polygon fill="midnightblue" stroke="midnightblue" points="457.51,-147.01 454.01,-137.01 450.51,-147.01 457.51,-147.01"/>
</g>
<!-- Node3&#45;&gt;Node4 -->
<g id="edge3" class="edge">
<title>Node3&#45;&gt;Node4</title>
<path fill="none" stroke="midnightblue" d="M402.57,-112.47C438.57,-102.08 487.03,-88.08 520.64,-78.37"/>
<polygon fill="midnightblue" stroke="midnightblue" points="521.93,-81.64 530.56,-75.51 519.98,-74.92 521.93,-81.64"/>
</g>
<!-- Node3&#45;&gt;Node10 -->
<g id="edge5" class="edge">
<title>Node3&#45;&gt;Node10</title>
<path fill="none" stroke="midnightblue" d="M310.88,-112.4C277.59,-101.52 232.36,-86.73 202.69,-77.03"/>
<polygon fill="midnightblue" stroke="midnightblue" points="203.48,-73.61 192.89,-73.83 201.31,-80.26 203.48,-73.61"/>
</g>
<!-- Node16 -->
<g id="node5" class="node">
<title>Node16</title>
<g id="a_node5"><a xlink:title=" ">
<polygon fill="white" stroke="#bfbfbf" points="726.01,-0.5 726.01,-19.5 770.01,-19.5 770.01,-0.5 726.01,-0.5"/>
<text text-anchor="middle" x="748.01" y="-7.5" font-family="Helvetica,sans-Serif" font-size="10.00">string</text>
</a>
</g>
</g>
<!-- Node4&#45;&gt;Node16 -->
<g id="edge4" class="edge">
<title>Node4&#45;&gt;Node16</title>
<path fill="none" stroke="midnightblue" d="M589.8,-56.44C624.29,-46.54 680.87,-30.28 716.2,-20.14"/>
<polygon fill="midnightblue" stroke="midnightblue" points="717.35,-23.45 726,-17.32 715.42,-16.72 717.35,-23.45"/>
</g>
<!-- Node30&#45;&gt;Node4 -->
<g id="edge10" class="edge">
<title>Node30&#45;&gt;Node4</title>
<path fill="none" stroke="midnightblue" d="M548.02,-117.98C550.01,-109.49 553.14,-96.2 555.7,-85.32"/>
<polygon fill="midnightblue" stroke="midnightblue" points="559.13,-86.04 558.01,-75.51 552.31,-84.44 559.13,-86.04"/>
</g>
<!-- Node42&#45;&gt;Node16 -->
<g id="edge18" class="edge">
<title>Node42&#45;&gt;Node16</title>
<path fill="none" stroke="midnightblue" d="M770.8,-179.47C786.34,-172.32 805.72,-160.44 815.01,-143 821.49,-130.84 818.99,-125.19 815.01,-112 804.9,-78.46 779.6,-45.82 763.14,-27.1"/>
<polygon fill="midnightblue" stroke="midnightblue" points="765.6,-24.6 756.29,-19.53 760.41,-29.29 765.6,-24.6"/>
</g>
<!-- Node43 -->
<g id="node13" class="node">
<title>Node43</title>
<g id="a_node13"><a xlink:href="quantity_8h.html" target="_top" xlink:title=" ">
<polygon fill="white" stroke="red" points="690.01,-118 690.01,-137 806.01,-137 806.01,-118 690.01,-118"/>
<text text-anchor="middle" x="748.01" y="-125" font-family="Helvetica,sans-Serif" font-size="10.00">emlabcpp/quantity.h</text>
</a>
</g>
</g>
<!-- Node42&#45;&gt;Node43 -->
<g id="edge15" class="edge">
<title>Node42&#45;&gt;Node43</title>
<path fill="none" stroke="midnightblue" d="M748.01,-179.48C748.01,-171.08 748.01,-157.98 748.01,-147.16"/>
<polygon fill="midnightblue" stroke="midnightblue" points="751.51,-147.01 748.01,-137.01 744.51,-147.01 751.51,-147.01"/>
</g>
<!-- Node43&#45;&gt;Node16 -->
<g id="edge17" class="edge">
<title>Node43&#45;&gt;Node16</title>
<path fill="none" stroke="midnightblue" d="M748.01,-117.82C748.01,-99.26 748.01,-55.34 748.01,-29.97"/>
<polygon fill="midnightblue" stroke="midnightblue" points="751.51,-29.78 748.01,-19.78 744.51,-29.78 751.51,-29.78"/>
</g>
<!-- Node43&#45;&gt;Node40 -->
<g id="edge16" class="edge">
<title>Node43&#45;&gt;Node40</title>
<path fill="none" stroke="midnightblue" d="M738.56,-117.98C728.26,-108.7 711.6,-93.67 699.02,-82.33"/>
<polygon fill="midnightblue" stroke="midnightblue" points="701.22,-79.61 691.45,-75.51 696.53,-84.8 701.22,-79.61"/>
</g>
</g>
</svg>
