<?xml version="1.0" encoding="UTF-8" standalone="no"?>
<!DOCTYPE svg PUBLIC "-//W3C//DTD SVG 1.1//EN"
 "http://www.w3.org/Graphics/SVG/1.1/DTD/svg11.dtd">
<!-- Generated by graphviz version 2.43.0 (0)
 -->
<!-- Title: include/emlabcpp/experimental/geom/vector.h Pages: 1 -->
<svg width="328pt" height="218pt"
 viewBox="0.00 0.00 328.00 218.00" xmlns="http://www.w3.org/2000/svg" xmlns:xlink="http://www.w3.org/1999/xlink">
<g id="graph0" class="graph" transform="scale(1 1) rotate(0) translate(4 214)">
<title>include/emlabcpp/experimental/geom/vector.h</title>
<polygon fill="white" stroke="transparent" points="-4,4 -4,-214 324,-214 324,4 -4,4"/>
<!-- Node1 -->
<g id="node1" class="node">
<title>Node1</title>
<g id="a_node1"><a xlink:title=" ">
<polygon fill="#bfbfbf" stroke="black" points="31.5,-179.5 31.5,-209.5 202.5,-209.5 202.5,-179.5 31.5,-179.5"/>
<text text-anchor="start" x="39.5" y="-197.5" font-family="Helvetica,sans-Serif" font-size="10.00">include/emlabcpp/experimental</text>
<text text-anchor="middle" x="117" y="-186.5" font-family="Helvetica,sans-Serif" font-size="10.00">/geom/vector.h</text>
</a>
</g>
</g>
<!-- Node2 -->
<g id="node2" class="node">
<title>Node2</title>
<g id="a_node2"><a xlink:href="vec__point__base_8h.html" target="_top" xlink:title=" ">
<polygon fill="white" stroke="black" points="49.5,-112.5 49.5,-142.5 184.5,-142.5 184.5,-112.5 49.5,-112.5"/>
<text text-anchor="start" x="57.5" y="-130.5" font-family="Helvetica,sans-Serif" font-size="10.00">emlabcpp/experimental</text>
<text text-anchor="middle" x="117" y="-119.5" font-family="Helvetica,sans-Serif" font-size="10.00">/geom/vec_point_base.h</text>
</a>
</g>
</g>
<!-- Node1&#45;&gt;Node2 -->
<g id="edge1" class="edge">
<title>Node1&#45;&gt;Node2</title>
<path fill="none" stroke="midnightblue" d="M117,-179.4C117,-171.64 117,-161.81 117,-152.86"/>
<polygon fill="midnightblue" stroke="midnightblue" points="120.5,-152.58 117,-142.58 113.5,-152.58 120.5,-152.58"/>
</g>
<!-- Node3 -->
<g id="node3" class="node">
<title>Node3</title>
<g id="a_node3"><a xlink:href="algorithm_8h.html" target="_top" xlink:title=" ">
<polygon fill="white" stroke="red" points="0,-0.5 0,-19.5 124,-19.5 124,-0.5 0,-0.5"/>
<text text-anchor="middle" x="62" y="-7.5" font-family="Helvetica,sans-Serif" font-size="10.00">emlabcpp/algorithm.h</text>
</a>
</g>
</g>
<!-- Node2&#45;&gt;Node3 -->
<g id="edge2" class="edge">
<title>Node2&#45;&gt;Node3</title>
<path fill="none" stroke="midnightblue" d="M71.82,-112.34C54.65,-104.51 36.87,-92.85 27,-76 17.26,-59.36 31.06,-39.82 44.09,-26.55"/>
<polygon fill="midnightblue" stroke="midnightblue" points="46.65,-28.94 51.5,-19.52 41.83,-23.87 46.65,-28.94"/>
</g>
<!-- Node43 -->
<g id="node4" class="node">
<title>Node43</title>
<g id="a_node4"><a xlink:href="physical__quantity_8h.html" target="_top" xlink:title=" ">
<polygon fill="white" stroke="red" points="36.5,-56.5 36.5,-75.5 197.5,-75.5 197.5,-56.5 36.5,-56.5"/>
<text text-anchor="middle" x="117" y="-63.5" font-family="Helvetica,sans-Serif" font-size="10.00">emlabcpp/physical_quantity.h</text>
</a>
</g>
</g>
<!-- Node2&#45;&gt;Node43 -->
<g id="edge3" class="edge">
<title>Node2&#45;&gt;Node43</title>
<path fill="none" stroke="midnightblue" d="M117,-112.4C117,-104.47 117,-94.46 117,-85.86"/>
<polygon fill="midnightblue" stroke="midnightblue" points="120.5,-85.66 117,-75.66 113.5,-85.66 120.5,-85.66"/>
</g>
<!-- Node28 -->
<g id="node5" class="node">
<title>Node28</title>
<g id="a_node5"><a xlink:href="range_8h.html" target="_top" xlink:title=" ">
<polygon fill="white" stroke="red" points="216,-56.5 216,-75.5 320,-75.5 320,-56.5 216,-56.5"/>
<text text-anchor="middle" x="268" y="-63.5" font-family="Helvetica,sans-Serif" font-size="10.00">emlabcpp/range.h</text>
</a>
</g>
</g>
<!-- Node2&#45;&gt;Node28 -->
<g id="edge5" class="edge">
<title>Node2&#45;&gt;Node28</title>
<path fill="none" stroke="midnightblue" d="M152.78,-112.4C178.23,-102.37 212.1,-89.03 236.52,-79.4"/>
<polygon fill="midnightblue" stroke="midnightblue" points="238.01,-82.58 246.03,-75.66 235.44,-76.07 238.01,-82.58"/>
</g>
<!-- Node43&#45;&gt;Node3 -->
<g id="edge4" class="edge">
<title>Node43&#45;&gt;Node3</title>
<path fill="none" stroke="midnightblue" d="M107.92,-56.08C99.83,-48.14 87.8,-36.34 78.09,-26.8"/>
<polygon fill="midnightblue" stroke="midnightblue" points="80.5,-24.26 70.91,-19.75 75.6,-29.25 80.5,-24.26"/>
</g>
</g>
</svg>
