<?xml version="1.0" encoding="UTF-8" standalone="no"?>
<!DOCTYPE svg PUBLIC "-//W3C//DTD SVG 1.1//EN"
 "http://www.w3.org/Graphics/SVG/1.1/DTD/svg11.dtd">
<!-- Generated by graphviz version 2.43.0 (0)
 -->
<!-- Title: include/emlabcpp/experimental/geom/vector.h Pages: 1 -->
<svg width="179pt" height="263pt"
 viewBox="0.00 0.00 179.00 263.00" xmlns="http://www.w3.org/2000/svg" xmlns:xlink="http://www.w3.org/1999/xlink">
<g id="graph0" class="graph" transform="scale(1 1) rotate(0) translate(4 259)">
<title>include/emlabcpp/experimental/geom/vector.h</title>
<polygon fill="white" stroke="transparent" points="-4,4 -4,-259 175,-259 175,4 -4,4"/>
<!-- Node1 -->
<g id="node1" class="node">
<title>Node1</title>
<g id="a_node1"><a xlink:title=" ">
<polygon fill="#bfbfbf" stroke="black" points="0,-224.5 0,-254.5 171,-254.5 171,-224.5 0,-224.5"/>
<text text-anchor="start" x="8" y="-242.5" font-family="Helvetica,sans-Serif" font-size="10.00">include/emlabcpp/experimental</text>
<text text-anchor="middle" x="85.5" y="-231.5" font-family="Helvetica,sans-Serif" font-size="10.00">/geom/vector.h</text>
</a>
</g>
</g>
<!-- Node2 -->
<g id="node2" class="node">
<title>Node2</title>
<g id="a_node2"><a xlink:href="vec__point__base_8h.html" target="_top" xlink:title=" ">
<polygon fill="white" stroke="black" points="32,-168.5 32,-187.5 139,-187.5 139,-168.5 32,-168.5"/>
<text text-anchor="middle" x="85.5" y="-175.5" font-family="Helvetica,sans-Serif" font-size="10.00">./vec_point_base.h</text>
</a>
</g>
</g>
<!-- Node1&#45;&gt;Node2 -->
<g id="edge1" class="edge">
<title>Node1&#45;&gt;Node2</title>
<path fill="none" stroke="midnightblue" d="M85.5,-224.4C85.5,-216.47 85.5,-206.46 85.5,-197.86"/>
<polygon fill="midnightblue" stroke="midnightblue" points="89,-197.66 85.5,-187.66 82,-197.66 89,-197.66"/>
</g>
<!-- Node3 -->
<g id="node3" class="node">
<title>Node3</title>
<g id="a_node3"><a xlink:href="algorithm_8h.html" target="_top" xlink:title=" ">
<polygon fill="white" stroke="red" points="40,-56.5 40,-75.5 131,-75.5 131,-56.5 40,-56.5"/>
<text text-anchor="middle" x="85.5" y="-63.5" font-family="Helvetica,sans-Serif" font-size="10.00">../../algorithm.h</text>
</a>
</g>
</g>
<!-- Node2&#45;&gt;Node3 -->
<g id="edge2" class="edge">
<title>Node2&#45;&gt;Node3</title>
<path fill="none" stroke="midnightblue" d="M59.29,-168.41C42.65,-161.44 22.44,-149.81 12.5,-132 0.03,-109.66 27.56,-91.1 52.3,-79.6"/>
<polygon fill="midnightblue" stroke="midnightblue" points="53.8,-82.77 61.56,-75.55 50.99,-76.35 53.8,-82.77"/>
</g>
<!-- Node22 -->
<g id="node4" class="node">
<title>Node22</title>
<g id="a_node4"><a xlink:href="range_8h.html" target="_top" xlink:title=" ">
<polygon fill="white" stroke="red" points="102,-0.5 102,-19.5 161,-19.5 161,-0.5 102,-0.5"/>
<text text-anchor="middle" x="131.5" y="-7.5" font-family="Helvetica,sans-Serif" font-size="10.00">./range.h</text>
</a>
</g>
</g>
<!-- Node2&#45;&gt;Node22 -->
<g id="edge6" class="edge">
<title>Node2&#45;&gt;Node22</title>
<path fill="none" stroke="midnightblue" d="M111.71,-168.41C128.35,-161.44 148.56,-149.81 158.5,-132 177.22,-98.47 156.73,-52.9 142.59,-28.36"/>
<polygon fill="midnightblue" stroke="midnightblue" points="145.4,-26.25 137.23,-19.51 139.42,-29.87 145.4,-26.25"/>
</g>
<!-- Node29 -->
<g id="node5" class="node">
<title>Node29</title>
<g id="a_node5"><a xlink:href="physical__quantity_8h.html" target="_top" xlink:title=" ">
<polygon fill="white" stroke="red" points="21.5,-112.5 21.5,-131.5 149.5,-131.5 149.5,-112.5 21.5,-112.5"/>
<text text-anchor="middle" x="85.5" y="-119.5" font-family="Helvetica,sans-Serif" font-size="10.00">../../physical_quantity.h</text>
</a>
</g>
</g>
<!-- Node2&#45;&gt;Node29 -->
<g id="edge4" class="edge">
<title>Node2&#45;&gt;Node29</title>
<path fill="none" stroke="midnightblue" d="M85.5,-168.08C85.5,-161.01 85.5,-150.86 85.5,-141.99"/>
<polygon fill="midnightblue" stroke="midnightblue" points="89,-141.75 85.5,-131.75 82,-141.75 89,-141.75"/>
</g>
<!-- Node3&#45;&gt;Node22 -->
<g id="edge3" class="edge">
<title>Node3&#45;&gt;Node22</title>
<path fill="none" stroke="midnightblue" d="M93.1,-56.08C99.73,-48.3 109.52,-36.8 117.56,-27.37"/>
<polygon fill="midnightblue" stroke="midnightblue" points="120.23,-29.63 124.05,-19.75 114.9,-25.09 120.23,-29.63"/>
</g>
<!-- Node29&#45;&gt;Node3 -->
<g id="edge5" class="edge">
<title>Node29&#45;&gt;Node3</title>
<path fill="none" stroke="midnightblue" d="M85.5,-112.08C85.5,-105.01 85.5,-94.86 85.5,-85.99"/>
<polygon fill="midnightblue" stroke="midnightblue" points="89,-85.75 85.5,-75.75 82,-85.75 89,-85.75"/>
</g>
</g>
</svg>
