<?xml version="1.0" encoding="UTF-8" standalone="no"?>
<!DOCTYPE svg PUBLIC "-//W3C//DTD SVG 1.1//EN"
 "http://www.w3.org/Graphics/SVG/1.1/DTD/svg11.dtd">
<!-- Generated by graphviz version 2.43.0 (0)
 -->
<!-- Title: include/emlabcpp/view.hpp Pages: 1 -->
<svg width="235pt" height="196pt"
 viewBox="0.00 0.00 235.00 196.00" xmlns="http://www.w3.org/2000/svg" xmlns:xlink="http://www.w3.org/1999/xlink">
<g id="graph0" class="graph" transform="scale(1 1) rotate(0) translate(4 192)">
<title>include/emlabcpp/view.hpp</title>
<polygon fill="white" stroke="transparent" points="-4,4 -4,-192 231,-192 231,4 -4,4"/>
<!-- Node1 -->
<g id="node1" class="node">
<title>Node1</title>
<g id="a_node1"><a xlink:title=" ">
<polygon fill="#bfbfbf" stroke="black" points="78,-168.5 78,-187.5 227,-187.5 227,-168.5 78,-168.5"/>
<text text-anchor="middle" x="152.5" y="-175.5" font-family="Helvetica,sans-Serif" font-size="10.00">include/emlabcpp/view.hpp</text>
</a>
</g>
</g>
<!-- Node2 -->
<g id="node2" class="node">
<title>Node2</title>
<g id="a_node2"><a xlink:href="types_8hpp.html" target="_top" xlink:title=" ">
<polygon fill="white" stroke="black" points="80,-112.5 80,-131.5 151,-131.5 151,-112.5 80,-112.5"/>
<text text-anchor="middle" x="115.5" y="-119.5" font-family="Helvetica,sans-Serif" font-size="10.00">./types.hpp</text>
</a>
</g>
</g>
<!-- Node1&#45;&gt;Node2 -->
<g id="edge1" class="edge">
<title>Node1&#45;&gt;Node2</title>
<path fill="none" stroke="midnightblue" d="M146.39,-168.08C141.22,-160.53 133.65,-149.49 127.31,-140.23"/>
<polygon fill="midnightblue" stroke="midnightblue" points="130.04,-138.02 121.5,-131.75 124.26,-141.98 130.04,-138.02"/>
</g>
<!-- Node15 -->
<g id="node6" class="node">
<title>Node15</title>
<g id="a_node6"><a xlink:title=" ">
<polygon fill="white" stroke="#bfbfbf" points="169.5,-112.5 169.5,-131.5 209.5,-131.5 209.5,-112.5 169.5,-112.5"/>
<text text-anchor="middle" x="189.5" y="-119.5" font-family="Helvetica,sans-Serif" font-size="10.00">span</text>
</a>
</g>
</g>
<!-- Node1&#45;&gt;Node15 -->
<g id="edge6" class="edge">
<title>Node1&#45;&gt;Node15</title>
<path fill="none" stroke="midnightblue" d="M158.61,-168.08C163.78,-160.53 171.35,-149.49 177.69,-140.23"/>
<polygon fill="midnightblue" stroke="midnightblue" points="180.74,-141.98 183.5,-131.75 174.96,-138.02 180.74,-141.98"/>
</g>
<!-- Node3 -->
<g id="node3" class="node">
<title>Node3</title>
<g id="a_node3"><a xlink:href="concepts_8hpp.html" target="_top" xlink:title=" ">
<polygon fill="white" stroke="red" points="0,-56.5 0,-75.5 87,-75.5 87,-56.5 0,-56.5"/>
<text text-anchor="middle" x="43.5" y="-63.5" font-family="Helvetica,sans-Serif" font-size="10.00">./concepts.hpp</text>
</a>
</g>
</g>
<!-- Node2&#45;&gt;Node3 -->
<g id="edge2" class="edge">
<title>Node2&#45;&gt;Node3</title>
<path fill="none" stroke="midnightblue" d="M103.93,-112.32C93.08,-104.18 76.62,-91.84 63.62,-82.09"/>
<polygon fill="midnightblue" stroke="midnightblue" points="65.38,-79.03 55.28,-75.83 61.18,-84.63 65.38,-79.03"/>
</g>
<!-- Node4 -->
<g id="node4" class="node">
<title>Node4</title>
<g id="a_node4"><a xlink:href="types_2base_8hpp.html" target="_top" xlink:title=" ">
<polygon fill="white" stroke="red" points="31,-0.5 31,-19.5 128,-19.5 128,-0.5 31,-0.5"/>
<text text-anchor="middle" x="79.5" y="-7.5" font-family="Helvetica,sans-Serif" font-size="10.00">./types/base.hpp</text>
</a>
</g>
</g>
<!-- Node2&#45;&gt;Node4 -->
<g id="edge4" class="edge">
<title>Node2&#45;&gt;Node4</title>
<path fill="none" stroke="midnightblue" d="M113.13,-112.1C109.73,-99.52 103.14,-75.85 96.5,-56 93.52,-47.08 89.87,-37.3 86.72,-29.14"/>
<polygon fill="midnightblue" stroke="midnightblue" points="89.87,-27.59 82.96,-19.56 83.35,-30.14 89.87,-27.59"/>
</g>
<!-- Node14 -->
<g id="node5" class="node">
<title>Node14</title>
<g id="a_node5"><a xlink:title=" ">
<polygon fill="white" stroke="#bfbfbf" points="143.5,-56.5 143.5,-75.5 187.5,-75.5 187.5,-56.5 143.5,-56.5"/>
<text text-anchor="middle" x="165.5" y="-63.5" font-family="Helvetica,sans-Serif" font-size="10.00">string</text>
</a>
</g>
</g>
<!-- Node2&#45;&gt;Node14 -->
<g id="edge5" class="edge">
<title>Node2&#45;&gt;Node14</title>
<path fill="none" stroke="midnightblue" d="M123.76,-112.08C130.96,-104.3 141.61,-92.8 150.35,-83.37"/>
<polygon fill="midnightblue" stroke="midnightblue" points="153.17,-85.47 157.4,-75.75 148.03,-80.71 153.17,-85.47"/>
</g>
<!-- Node3&#45;&gt;Node4 -->
<g id="edge3" class="edge">
<title>Node3&#45;&gt;Node4</title>
<path fill="none" stroke="midnightblue" d="M49.44,-56.08C54.48,-48.53 61.84,-37.49 68.01,-28.23"/>
<polygon fill="midnightblue" stroke="midnightblue" points="71.03,-30.01 73.67,-19.75 65.21,-26.13 71.03,-30.01"/>
</g>
</g>
</svg>
