<?xml version="1.0" encoding="UTF-8" standalone="no"?>
<!DOCTYPE svg PUBLIC "-//W3C//DTD SVG 1.1//EN"
 "http://www.w3.org/Graphics/SVG/1.1/DTD/svg11.dtd">
<!-- Generated by graphviz version 2.43.0 (0)
 -->
<!-- Title: include/emlabcpp/visit.h Pages: 1 -->
<svg width="231pt" height="140pt"
 viewBox="0.00 0.00 230.50 140.00" xmlns="http://www.w3.org/2000/svg" xmlns:xlink="http://www.w3.org/1999/xlink">
<g id="graph0" class="graph" transform="scale(1 1) rotate(0) translate(4 136)">
<title>include/emlabcpp/visit.h</title>
<polygon fill="white" stroke="transparent" points="-4,4 -4,-136 226.5,-136 226.5,4 -4,4"/>
<!-- Node1 -->
<g id="node1" class="node">
<title>Node1</title>
<g id="a_node1"><a xlink:title=" ">
<polygon fill="#bfbfbf" stroke="black" points="75,-112.5 75,-131.5 211,-131.5 211,-112.5 75,-112.5"/>
<text text-anchor="middle" x="143" y="-119.5" font-family="Helvetica,sans-Serif" font-size="10.00">include/emlabcpp/visit.h</text>
</a>
</g>
</g>
<!-- Node2 -->
<g id="node2" class="node">
<title>Node2</title>
<g id="a_node2"><a xlink:href="impl_8h.html" target="_top" xlink:title=" ">
<polygon fill="white" stroke="black" points="17,-56.5 17,-75.5 115,-75.5 115,-56.5 17,-56.5"/>
<text text-anchor="middle" x="66" y="-63.5" font-family="Helvetica,sans-Serif" font-size="10.00">algorithm/impl.h</text>
</a>
</g>
</g>
<!-- Node1&#45;&gt;Node2 -->
<g id="edge1" class="edge">
<title>Node1&#45;&gt;Node2</title>
<path fill="none" stroke="midnightblue" d="M130.63,-112.32C118.84,-104.06 100.87,-91.45 86.86,-81.63"/>
<polygon fill="midnightblue" stroke="midnightblue" points="88.54,-78.53 78.34,-75.65 84.52,-84.26 88.54,-78.53"/>
</g>
<!-- Node9 -->
<g id="node4" class="node">
<title>Node9</title>
<g id="a_node4"><a xlink:title=" ">
<polygon fill="white" stroke="#bfbfbf" points="122.5,-0.5 122.5,-19.5 163.5,-19.5 163.5,-0.5 122.5,-0.5"/>
<text text-anchor="middle" x="143" y="-7.5" font-family="Helvetica,sans-Serif" font-size="10.00">tuple</text>
</a>
</g>
</g>
<!-- Node1&#45;&gt;Node9 -->
<g id="edge4" class="edge">
<title>Node1&#45;&gt;Node9</title>
<path fill="none" stroke="midnightblue" d="M143,-112.37C143,-94.62 143,-53.67 143,-29.6"/>
<polygon fill="midnightblue" stroke="midnightblue" points="146.5,-29.59 143,-19.59 139.5,-29.59 146.5,-29.59"/>
</g>
<!-- Node14 -->
<g id="node5" class="node">
<title>Node14</title>
<g id="a_node5"><a xlink:title=" ">
<polygon fill="white" stroke="#bfbfbf" points="171.5,-56.5 171.5,-75.5 222.5,-75.5 222.5,-56.5 171.5,-56.5"/>
<text text-anchor="middle" x="197" y="-63.5" font-family="Helvetica,sans-Serif" font-size="10.00">variant</text>
</a>
</g>
</g>
<!-- Node1&#45;&gt;Node14 -->
<g id="edge5" class="edge">
<title>Node1&#45;&gt;Node14</title>
<path fill="none" stroke="midnightblue" d="M151.92,-112.08C159.78,-104.22 171.43,-92.57 180.92,-83.08"/>
<polygon fill="midnightblue" stroke="midnightblue" points="183.65,-85.3 188.25,-75.75 178.7,-80.35 183.65,-85.3"/>
</g>
<!-- Node3 -->
<g id="node3" class="node">
<title>Node3</title>
<g id="a_node3"><a xlink:href="types_8h.html" target="_top" xlink:title=" ">
<polygon fill="white" stroke="red" points="0,-0.5 0,-19.5 104,-19.5 104,-0.5 0,-0.5"/>
<text text-anchor="middle" x="52" y="-7.5" font-family="Helvetica,sans-Serif" font-size="10.00">emlabcpp/types.h</text>
</a>
</g>
</g>
<!-- Node2&#45;&gt;Node3 -->
<g id="edge2" class="edge">
<title>Node2&#45;&gt;Node3</title>
<path fill="none" stroke="midnightblue" d="M63.69,-56.08C61.83,-48.93 59.16,-38.64 56.85,-29.69"/>
<polygon fill="midnightblue" stroke="midnightblue" points="60.17,-28.55 54.27,-19.75 53.39,-30.31 60.17,-28.55"/>
</g>
<!-- Node2&#45;&gt;Node9 -->
<g id="edge3" class="edge">
<title>Node2&#45;&gt;Node9</title>
<path fill="none" stroke="midnightblue" d="M78.37,-56.32C90.16,-48.06 108.13,-35.45 122.14,-25.63"/>
<polygon fill="midnightblue" stroke="midnightblue" points="124.48,-28.26 130.66,-19.65 120.46,-22.53 124.48,-28.26"/>
</g>
</g>
</svg>
