<?xml version="1.0" encoding="UTF-8" standalone="no"?>
<!DOCTYPE svg PUBLIC "-//W3C//DTD SVG 1.1//EN"
 "http://www.w3.org/Graphics/SVG/1.1/DTD/svg11.dtd">
<!-- Generated by graphviz version 2.43.0 (0)
 -->
<!-- Title: include/emlabcpp/zip.h Pages: 1 -->
<svg width="409pt" height="431pt"
 viewBox="0.00 0.00 408.50 431.00" xmlns="http://www.w3.org/2000/svg" xmlns:xlink="http://www.w3.org/1999/xlink">
<g id="graph0" class="graph" transform="scale(1 1) rotate(0) translate(4 427)">
<title>include/emlabcpp/zip.h</title>
<polygon fill="white" stroke="transparent" points="-4,4 -4,-427 404.5,-427 404.5,4 -4,4"/>
<!-- Node1 -->
<g id="node1" class="node">
<title>Node1</title>
<g id="a_node1"><a xlink:title=" ">
<polygon fill="#bfbfbf" stroke="black" points="246.5,-403.5 246.5,-422.5 375.5,-422.5 375.5,-403.5 246.5,-403.5"/>
<text text-anchor="middle" x="311" y="-410.5" font-family="Helvetica,sans-Serif" font-size="10.00">include/emlabcpp/zip.h</text>
</a>
</g>
</g>
<!-- Node2 -->
<g id="node2" class="node">
<title>Node2</title>
<g id="a_node2"><a xlink:href="numeric_8h.html" target="_top" xlink:title=" ">
<polygon fill="white" stroke="black" points="154.5,-336.5 154.5,-366.5 263.5,-366.5 263.5,-336.5 154.5,-336.5"/>
<text text-anchor="start" x="162.5" y="-354.5" font-family="Helvetica,sans-Serif" font-size="10.00">emlabcpp/iterators</text>
<text text-anchor="middle" x="209" y="-343.5" font-family="Helvetica,sans-Serif" font-size="10.00">/numeric.h</text>
</a>
</g>
</g>
<!-- Node1&#45;&gt;Node2 -->
<g id="edge1" class="edge">
<title>Node1&#45;&gt;Node2</title>
<path fill="none" stroke="midnightblue" d="M296.39,-403.48C282.18,-395.19 260.13,-382.32 241.73,-371.59"/>
<polygon fill="midnightblue" stroke="midnightblue" points="243.44,-368.54 233.04,-366.52 239.91,-374.58 243.44,-368.54"/>
</g>
<!-- Node4 -->
<g id="node4" class="node">
<title>Node4</title>
<g id="a_node4"><a xlink:href="view_8h.html" target="_top" xlink:title=" ">
<polygon fill="white" stroke="black" points="202.5,-224.5 202.5,-243.5 301.5,-243.5 301.5,-224.5 202.5,-224.5"/>
<text text-anchor="middle" x="252" y="-231.5" font-family="Helvetica,sans-Serif" font-size="10.00">emlabcpp/view.h</text>
</a>
</g>
</g>
<!-- Node1&#45;&gt;Node4 -->
<g id="edge18" class="edge">
<title>Node1&#45;&gt;Node4</title>
<path fill="none" stroke="midnightblue" d="M308.97,-403.2C303.93,-381.77 289.98,-325.33 273,-280 269.6,-270.92 265.13,-261.13 261.19,-253.01"/>
<polygon fill="midnightblue" stroke="midnightblue" points="264.19,-251.18 256.6,-243.79 257.93,-254.3 264.19,-251.18"/>
</g>
<!-- Node5 -->
<g id="node5" class="node">
<title>Node5</title>
<g id="a_node5"><a xlink:href="types_8h.html" target="_top" xlink:title=" ">
<polygon fill="white" stroke="black" points="200,-168.5 200,-187.5 304,-187.5 304,-168.5 200,-168.5"/>
<text text-anchor="middle" x="252" y="-175.5" font-family="Helvetica,sans-Serif" font-size="10.00">emlabcpp/types.h</text>
</a>
</g>
</g>
<!-- Node1&#45;&gt;Node5 -->
<g id="edge17" class="edge">
<title>Node1&#45;&gt;Node5</title>
<path fill="none" stroke="midnightblue" d="M313.61,-403.14C321.36,-375.08 341.84,-286.31 311,-224 304.4,-210.66 291.74,-200.19 279.83,-192.73"/>
<polygon fill="midnightblue" stroke="midnightblue" points="281.39,-189.59 270.98,-187.6 277.88,-195.64 281.39,-189.59"/>
</g>
<!-- Node11 -->
<g id="node11" class="node">
<title>Node11</title>
<g id="a_node11"><a xlink:title=" ">
<polygon fill="white" stroke="#bfbfbf" points="359.5,-0.5 359.5,-19.5 400.5,-19.5 400.5,-0.5 359.5,-0.5"/>
<text text-anchor="middle" x="380" y="-7.5" font-family="Helvetica,sans-Serif" font-size="10.00">tuple</text>
</a>
</g>
</g>
<!-- Node1&#45;&gt;Node11 -->
<g id="edge19" class="edge">
<title>Node1&#45;&gt;Node11</title>
<path fill="none" stroke="midnightblue" d="M320.98,-403.41C341.18,-385.01 385,-339.51 385,-291 385,-291 385,-291 385,-121 385,-88.91 382.85,-51.62 381.37,-29.74"/>
<polygon fill="midnightblue" stroke="midnightblue" points="384.85,-29.28 380.65,-19.55 377.86,-29.77 384.85,-29.28"/>
</g>
<!-- Node3 -->
<g id="node3" class="node">
<title>Node3</title>
<g id="a_node3"><a xlink:href="iterator_8h.html" target="_top" xlink:title=" ">
<polygon fill="white" stroke="black" points="152,-280.5 152,-299.5 264,-299.5 264,-280.5 152,-280.5"/>
<text text-anchor="middle" x="208" y="-287.5" font-family="Helvetica,sans-Serif" font-size="10.00">emlabcpp/iterator.h</text>
</a>
</g>
</g>
<!-- Node2&#45;&gt;Node3 -->
<g id="edge2" class="edge">
<title>Node2&#45;&gt;Node3</title>
<path fill="none" stroke="midnightblue" d="M208.76,-336.4C208.63,-328.47 208.46,-318.46 208.32,-309.86"/>
<polygon fill="midnightblue" stroke="midnightblue" points="211.81,-309.6 208.15,-299.66 204.81,-309.72 211.81,-309.6"/>
</g>
<!-- Node3&#45;&gt;Node4 -->
<g id="edge3" class="edge">
<title>Node3&#45;&gt;Node4</title>
<path fill="none" stroke="midnightblue" d="M215.27,-280.08C221.54,-272.38 230.79,-261.03 238.43,-251.65"/>
<polygon fill="midnightblue" stroke="midnightblue" points="241.27,-253.71 244.87,-243.75 235.84,-249.29 241.27,-253.71"/>
</g>
<!-- Node16 -->
<g id="node16" class="node">
<title>Node16</title>
<g id="a_node16"><a xlink:title=" ">
<polygon fill="white" stroke="#bfbfbf" points="131.5,-224.5 131.5,-243.5 184.5,-243.5 184.5,-224.5 131.5,-224.5"/>
<text text-anchor="middle" x="158" y="-231.5" font-family="Helvetica,sans-Serif" font-size="10.00">iterator</text>
</a>
</g>
</g>
<!-- Node3&#45;&gt;Node16 -->
<g id="edge16" class="edge">
<title>Node3&#45;&gt;Node16</title>
<path fill="none" stroke="midnightblue" d="M199.74,-280.08C192.54,-272.3 181.89,-260.8 173.15,-251.37"/>
<polygon fill="midnightblue" stroke="midnightblue" points="175.47,-248.71 166.1,-243.75 170.33,-253.47 175.47,-248.71"/>
</g>
<!-- Node4&#45;&gt;Node5 -->
<g id="edge4" class="edge">
<title>Node4&#45;&gt;Node5</title>
<path fill="none" stroke="midnightblue" d="M252,-224.08C252,-217.01 252,-206.86 252,-197.99"/>
<polygon fill="midnightblue" stroke="midnightblue" points="255.5,-197.75 252,-187.75 248.5,-197.75 255.5,-197.75"/>
</g>
<!-- Node6 -->
<g id="node6" class="node">
<title>Node6</title>
<g id="a_node6"><a xlink:href="concepts_8h.html" target="_top" xlink:title=" ">
<polygon fill="white" stroke="black" points="175,-112.5 175,-131.5 295,-131.5 295,-112.5 175,-112.5"/>
<text text-anchor="middle" x="235" y="-119.5" font-family="Helvetica,sans-Serif" font-size="10.00">emlabcpp/concepts.h</text>
</a>
</g>
</g>
<!-- Node5&#45;&gt;Node6 -->
<g id="edge5" class="edge">
<title>Node5&#45;&gt;Node6</title>
<path fill="none" stroke="midnightblue" d="M249.19,-168.08C246.92,-160.85 243.63,-150.41 240.79,-141.4"/>
<polygon fill="midnightblue" stroke="midnightblue" points="244.1,-140.24 237.75,-131.75 237.42,-142.34 244.1,-140.24"/>
</g>
<!-- Node7 -->
<g id="node7" class="node">
<title>Node7</title>
<g id="a_node7"><a xlink:href="types_2base_8h.html" target="_top" xlink:title=" ">
<polygon fill="white" stroke="black" points="88,-56.5 88,-75.5 218,-75.5 218,-56.5 88,-56.5"/>
<text text-anchor="middle" x="153" y="-63.5" font-family="Helvetica,sans-Serif" font-size="10.00">emlabcpp/types/base.h</text>
</a>
</g>
</g>
<!-- Node5&#45;&gt;Node7 -->
<g id="edge14" class="edge">
<title>Node5&#45;&gt;Node7</title>
<path fill="none" stroke="midnightblue" d="M221.25,-168.39C202.47,-161.55 179.54,-150.07 166,-132 156.08,-118.76 153.2,-99.9 152.58,-85.9"/>
<polygon fill="midnightblue" stroke="midnightblue" points="156.08,-85.48 152.49,-75.51 149.08,-85.54 156.08,-85.48"/>
</g>
<!-- Node15 -->
<g id="node15" class="node">
<title>Node15</title>
<g id="a_node15"><a xlink:title=" ">
<polygon fill="white" stroke="#bfbfbf" points="313,-112.5 313,-131.5 357,-131.5 357,-112.5 313,-112.5"/>
<text text-anchor="middle" x="335" y="-119.5" font-family="Helvetica,sans-Serif" font-size="10.00">string</text>
</a>
</g>
</g>
<!-- Node5&#45;&gt;Node15 -->
<g id="edge15" class="edge">
<title>Node5&#45;&gt;Node15</title>
<path fill="none" stroke="midnightblue" d="M265.34,-168.32C278.16,-159.98 297.78,-147.21 312.94,-137.35"/>
<polygon fill="midnightblue" stroke="midnightblue" points="315.22,-140.04 321.7,-131.65 311.41,-134.17 315.22,-140.04"/>
</g>
<!-- Node6&#45;&gt;Node7 -->
<g id="edge6" class="edge">
<title>Node6&#45;&gt;Node7</title>
<path fill="none" stroke="midnightblue" d="M221.83,-112.32C209.15,-103.98 189.77,-91.21 174.79,-81.35"/>
<polygon fill="midnightblue" stroke="midnightblue" points="176.42,-78.23 166.14,-75.65 172.57,-84.08 176.42,-78.23"/>
</g>
<!-- Node14 -->
<g id="node14" class="node">
<title>Node14</title>
<g id="a_node14"><a xlink:title=" ">
<polygon fill="white" stroke="#bfbfbf" points="236,-56.5 236,-75.5 296,-75.5 296,-56.5 236,-56.5"/>
<text text-anchor="middle" x="266" y="-63.5" font-family="Helvetica,sans-Serif" font-size="10.00">concepts</text>
</a>
</g>
</g>
<!-- Node6&#45;&gt;Node14 -->
<g id="edge13" class="edge">
<title>Node6&#45;&gt;Node14</title>
<path fill="none" stroke="midnightblue" d="M240.12,-112.08C244.41,-104.61 250.66,-93.72 255.94,-84.52"/>
<polygon fill="midnightblue" stroke="midnightblue" points="259.03,-86.17 260.98,-75.75 252.96,-82.68 259.03,-86.17"/>
</g>
<!-- Node8 -->
<g id="node8" class="node">
<title>Node8</title>
<g id="a_node8"><a xlink:title=" ">
<polygon fill="white" stroke="#bfbfbf" points="0,-0.5 0,-19.5 42,-19.5 42,-0.5 0,-0.5"/>
<text text-anchor="middle" x="21" y="-7.5" font-family="Helvetica,sans-Serif" font-size="10.00">array</text>
</a>
</g>
</g>
<!-- Node7&#45;&gt;Node8 -->
<g id="edge7" class="edge">
<title>Node7&#45;&gt;Node8</title>
<path fill="none" stroke="midnightblue" d="M132.08,-56.44C110.26,-47.52 75.85,-33.44 51.11,-23.32"/>
<polygon fill="midnightblue" stroke="midnightblue" points="52.4,-20.06 41.82,-19.52 49.75,-26.54 52.4,-20.06"/>
</g>
<!-- Node9 -->
<g id="node9" class="node">
<title>Node9</title>
<g id="a_node9"><a xlink:title=" ">
<polygon fill="white" stroke="#bfbfbf" points="60,-0.5 60,-19.5 110,-19.5 110,-0.5 60,-0.5"/>
<text text-anchor="middle" x="85" y="-7.5" font-family="Helvetica,sans-Serif" font-size="10.00">cstdint</text>
</a>
</g>
</g>
<!-- Node7&#45;&gt;Node9 -->
<g id="edge8" class="edge">
<title>Node7&#45;&gt;Node9</title>
<path fill="none" stroke="midnightblue" d="M142.07,-56.32C131.83,-48.18 116.28,-35.84 104,-26.09"/>
<polygon fill="midnightblue" stroke="midnightblue" points="106.13,-23.31 96.12,-19.83 101.78,-28.79 106.13,-23.31"/>
</g>
<!-- Node10 -->
<g id="node10" class="node">
<title>Node10</title>
<g id="a_node10"><a xlink:title=" ">
<polygon fill="white" stroke="#bfbfbf" points="128,-0.5 128,-19.5 178,-19.5 178,-0.5 128,-0.5"/>
<text text-anchor="middle" x="153" y="-7.5" font-family="Helvetica,sans-Serif" font-size="10.00">ranges</text>
</a>
</g>
</g>
<!-- Node7&#45;&gt;Node10 -->
<g id="edge9" class="edge">
<title>Node7&#45;&gt;Node10</title>
<path fill="none" stroke="midnightblue" d="M153,-56.08C153,-49.01 153,-38.86 153,-29.99"/>
<polygon fill="midnightblue" stroke="midnightblue" points="156.5,-29.75 153,-19.75 149.5,-29.75 156.5,-29.75"/>
</g>
<!-- Node7&#45;&gt;Node11 -->
<g id="edge10" class="edge">
<title>Node7&#45;&gt;Node11</title>
<path fill="none" stroke="midnightblue" d="M188.97,-56.44C233.34,-45.89 307.99,-28.13 349.62,-18.23"/>
<polygon fill="midnightblue" stroke="midnightblue" points="350.54,-21.61 359.45,-15.89 348.92,-14.8 350.54,-21.61"/>
</g>
<!-- Node12 -->
<g id="node12" class="node">
<title>Node12</title>
<g id="a_node12"><a xlink:title=" ">
<polygon fill="white" stroke="#bfbfbf" points="196.5,-0.5 196.5,-19.5 265.5,-19.5 265.5,-0.5 196.5,-0.5"/>
<text text-anchor="middle" x="231" y="-7.5" font-family="Helvetica,sans-Serif" font-size="10.00">type_traits</text>
</a>
</g>
</g>
<!-- Node7&#45;&gt;Node12 -->
<g id="edge11" class="edge">
<title>Node7&#45;&gt;Node12</title>
<path fill="none" stroke="midnightblue" d="M165.53,-56.32C177.59,-47.98 196.03,-35.21 210.27,-25.35"/>
<polygon fill="midnightblue" stroke="midnightblue" points="212.27,-28.22 218.5,-19.65 208.28,-22.47 212.27,-28.22"/>
</g>
<!-- Node13 -->
<g id="node13" class="node">
<title>Node13</title>
<g id="a_node13"><a xlink:title=" ">
<polygon fill="white" stroke="#bfbfbf" points="283.5,-0.5 283.5,-19.5 330.5,-19.5 330.5,-0.5 283.5,-0.5"/>
<text text-anchor="middle" x="307" y="-7.5" font-family="Helvetica,sans-Serif" font-size="10.00">vector</text>
</a>
</g>
</g>
<!-- Node7&#45;&gt;Node13 -->
<g id="edge12" class="edge">
<title>Node7&#45;&gt;Node13</title>
<path fill="none" stroke="midnightblue" d="M177.4,-56.44C203.42,-47.32 244.8,-32.81 273.78,-22.65"/>
<polygon fill="midnightblue" stroke="midnightblue" points="275.19,-25.86 283.47,-19.25 272.88,-19.26 275.19,-25.86"/>
</g>
</g>
</svg>
