<?xml version="1.0" encoding="UTF-8" standalone="no"?>
<!DOCTYPE svg PUBLIC "-//W3C//DTD SVG 1.1//EN"
 "http://www.w3.org/Graphics/SVG/1.1/DTD/svg11.dtd">
<!-- Generated by graphviz version 2.43.0 (0)
 -->
<!-- Title: include/emlabcpp/zip.h Pages: 1 -->
<svg width="329pt" height="151pt"
 viewBox="0.00 0.00 329.00 151.00" xmlns="http://www.w3.org/2000/svg" xmlns:xlink="http://www.w3.org/1999/xlink">
<g id="graph0" class="graph" transform="scale(1 1) rotate(0) translate(4 147)">
<title>include/emlabcpp/zip.h</title>
<polygon fill="white" stroke="transparent" points="-4,4 -4,-147 325,-147 325,4 -4,4"/>
<!-- Node1 -->
<g id="node1" class="node">
<title>Node1</title>
<g id="a_node1"><a xlink:title=" ">
<polygon fill="#bfbfbf" stroke="black" points="109,-123.5 109,-142.5 238,-142.5 238,-123.5 109,-123.5"/>
<text text-anchor="middle" x="173.5" y="-130.5" font-family="Helvetica,sans-Serif" font-size="10.00">include/emlabcpp/zip.h</text>
</a>
</g>
</g>
<!-- Node2 -->
<g id="node2" class="node">
<title>Node2</title>
<g id="a_node2"><a xlink:href="range_8h.html" target="_top" xlink:title=" ">
<polygon fill="white" stroke="black" points="2.5,-67.5 2.5,-86.5 106.5,-86.5 106.5,-67.5 2.5,-67.5"/>
<text text-anchor="middle" x="54.5" y="-74.5" font-family="Helvetica,sans-Serif" font-size="10.00">emlabcpp/range.h</text>
</a>
</g>
</g>
<!-- Node1&#45;&gt;Node2 -->
<g id="edge1" class="edge">
<title>Node1&#45;&gt;Node2</title>
<path fill="none" stroke="midnightblue" d="M154.64,-123.44C135.23,-114.64 104.77,-100.81 82.54,-90.72"/>
<polygon fill="midnightblue" stroke="midnightblue" points="83.82,-87.46 73.27,-86.52 80.93,-93.84 83.82,-87.46"/>
</g>
<!-- Node6 -->
<g id="node4" class="node">
<title>Node6</title>
<g id="a_node4"><a xlink:href="types_8h.html" target="_top" xlink:title=" ">
<polygon fill="white" stroke="red" points="143.5,-6 143.5,-25 247.5,-25 247.5,-6 143.5,-6"/>
<text text-anchor="middle" x="195.5" y="-13" font-family="Helvetica,sans-Serif" font-size="10.00">emlabcpp/types.h</text>
</a>
</g>
</g>
<!-- Node1&#45;&gt;Node6 -->
<g id="edge3" class="edge">
<title>Node1&#45;&gt;Node6</title>
<path fill="none" stroke="midnightblue" d="M167.6,-123.49C159.69,-110.98 147.42,-86.94 154.5,-67 159.17,-53.83 168.91,-41.59 177.72,-32.46"/>
<polygon fill="midnightblue" stroke="midnightblue" points="180.36,-34.78 185.08,-25.29 175.47,-29.77 180.36,-34.78"/>
</g>
<!-- Node5 -->
<g id="node5" class="node">
<title>Node5</title>
<g id="a_node5"><a xlink:href="view_8h.html" target="_top" xlink:title=" ">
<polygon fill="white" stroke="red" points="163,-67.5 163,-86.5 262,-86.5 262,-67.5 163,-67.5"/>
<text text-anchor="middle" x="212.5" y="-74.5" font-family="Helvetica,sans-Serif" font-size="10.00">emlabcpp/view.h</text>
</a>
</g>
</g>
<!-- Node1&#45;&gt;Node5 -->
<g id="edge4" class="edge">
<title>Node1&#45;&gt;Node5</title>
<path fill="none" stroke="midnightblue" d="M179.94,-123.08C185.45,-115.46 193.53,-104.26 200.26,-94.94"/>
<polygon fill="midnightblue" stroke="midnightblue" points="203.16,-96.91 206.18,-86.75 197.49,-92.81 203.16,-96.91"/>
</g>
<!-- Node12 -->
<g id="node6" class="node">
<title>Node12</title>
<g id="a_node6"><a xlink:title=" ">
<polygon fill="white" stroke="#bfbfbf" points="280,-67.5 280,-86.5 321,-86.5 321,-67.5 280,-67.5"/>
<text text-anchor="middle" x="300.5" y="-74.5" font-family="Helvetica,sans-Serif" font-size="10.00">tuple</text>
</a>
</g>
</g>
<!-- Node1&#45;&gt;Node12 -->
<g id="edge6" class="edge">
<title>Node1&#45;&gt;Node12</title>
<path fill="none" stroke="midnightblue" d="M193.62,-123.44C214.52,-114.56 247.43,-100.56 271.22,-90.45"/>
<polygon fill="midnightblue" stroke="midnightblue" points="272.64,-93.65 280.47,-86.52 269.9,-87.21 272.64,-93.65"/>
</g>
<!-- Node3 -->
<g id="node3" class="node">
<title>Node3</title>
<g id="a_node3"><a xlink:href="numeric_8h.html" target="_top" xlink:title=" ">
<polygon fill="white" stroke="red" points="0,-0.5 0,-30.5 109,-30.5 109,-0.5 0,-0.5"/>
<text text-anchor="start" x="8" y="-18.5" font-family="Helvetica,sans-Serif" font-size="10.00">emlabcpp/iterators</text>
<text text-anchor="middle" x="54.5" y="-7.5" font-family="Helvetica,sans-Serif" font-size="10.00">/numeric.h</text>
</a>
</g>
</g>
<!-- Node2&#45;&gt;Node3 -->
<g id="edge2" class="edge">
<title>Node2&#45;&gt;Node3</title>
<path fill="none" stroke="midnightblue" d="M54.5,-67.48C54.5,-60.47 54.5,-50.19 54.5,-40.7"/>
<polygon fill="midnightblue" stroke="midnightblue" points="58,-40.52 54.5,-30.52 51,-40.52 58,-40.52"/>
</g>
<!-- Node5&#45;&gt;Node6 -->
<g id="edge5" class="edge">
<title>Node5&#45;&gt;Node6</title>
<path fill="none" stroke="midnightblue" d="M210.06,-67.48C207.64,-58.99 203.84,-45.7 200.73,-34.82"/>
<polygon fill="midnightblue" stroke="midnightblue" points="204.04,-33.66 197.93,-25.01 197.31,-35.59 204.04,-33.66"/>
</g>
</g>
</svg>
