<?xml version="1.0" encoding="UTF-8" standalone="no"?>
<!DOCTYPE svg PUBLIC "-//W3C//DTD SVG 1.1//EN"
 "http://www.w3.org/Graphics/SVG/1.1/DTD/svg11.dtd">
<!-- Generated by graphviz version 2.43.0 (0)
 -->
<!-- Title: include/emlabcpp/zip.h Pages: 1 -->
<svg width="294pt" height="196pt"
 viewBox="0.00 0.00 293.50 196.00" xmlns="http://www.w3.org/2000/svg" xmlns:xlink="http://www.w3.org/1999/xlink">
<g id="graph0" class="graph" transform="scale(1 1) rotate(0) translate(4 192)">
<title>include/emlabcpp/zip.h</title>
<polygon fill="white" stroke="transparent" points="-4,4 -4,-192 289.5,-192 289.5,4 -4,4"/>
<!-- Node1 -->
<g id="node1" class="node">
<title>Node1</title>
<g id="a_node1"><a xlink:title=" ">
<polygon fill="#bfbfbf" stroke="black" points="132.5,-168.5 132.5,-187.5 261.5,-187.5 261.5,-168.5 132.5,-168.5"/>
<text text-anchor="middle" x="197" y="-175.5" font-family="Helvetica,sans-Serif" font-size="10.00">include/emlabcpp/zip.h</text>
</a>
</g>
</g>
<!-- Node2 -->
<g id="node2" class="node">
<title>Node2</title>
<g id="a_node2"><a xlink:href="range_8h.html" target="_top" xlink:title=" ">
<polygon fill="white" stroke="black" points="90.5,-112.5 90.5,-131.5 149.5,-131.5 149.5,-112.5 90.5,-112.5"/>
<text text-anchor="middle" x="120" y="-119.5" font-family="Helvetica,sans-Serif" font-size="10.00">./range.h</text>
</a>
</g>
</g>
<!-- Node1&#45;&gt;Node2 -->
<g id="edge1" class="edge">
<title>Node1&#45;&gt;Node2</title>
<path fill="none" stroke="midnightblue" d="M184.63,-168.32C172.84,-160.06 154.87,-147.45 140.86,-137.63"/>
<polygon fill="midnightblue" stroke="midnightblue" points="142.54,-134.53 132.34,-131.65 138.52,-140.26 142.54,-134.53"/>
</g>
<!-- Node6 -->
<g id="node4" class="node">
<title>Node6</title>
<g id="a_node4"><a xlink:href="view_8h.html" target="_top" xlink:title=" ">
<polygon fill="white" stroke="red" points="134,-56.5 134,-75.5 188,-75.5 188,-56.5 134,-56.5"/>
<text text-anchor="middle" x="161" y="-63.5" font-family="Helvetica,sans-Serif" font-size="10.00">./view.h</text>
</a>
</g>
</g>
<!-- Node1&#45;&gt;Node6 -->
<g id="edge6" class="edge">
<title>Node1&#45;&gt;Node6</title>
<path fill="none" stroke="midnightblue" d="M194.18,-168.37C188.34,-150.54 174.84,-109.3 166.98,-85.27"/>
<polygon fill="midnightblue" stroke="midnightblue" points="170.25,-84.01 163.81,-75.59 163.6,-86.18 170.25,-84.01"/>
</g>
<!-- Node7 -->
<g id="node5" class="node">
<title>Node7</title>
<g id="a_node5"><a xlink:href="types_8h.html" target="_top" xlink:title=" ">
<polygon fill="white" stroke="red" points="158.5,-0.5 158.5,-19.5 217.5,-19.5 217.5,-0.5 158.5,-0.5"/>
<text text-anchor="middle" x="188" y="-7.5" font-family="Helvetica,sans-Serif" font-size="10.00">./types.h</text>
</a>
</g>
</g>
<!-- Node1&#45;&gt;Node7 -->
<g id="edge5" class="edge">
<title>Node1&#45;&gt;Node7</title>
<path fill="none" stroke="midnightblue" d="M197.58,-168.46C198.79,-148.65 201.16,-98.02 197,-56 196.13,-47.17 194.31,-37.51 192.53,-29.4"/>
<polygon fill="midnightblue" stroke="midnightblue" points="195.92,-28.49 190.23,-19.55 189.1,-30.08 195.92,-28.49"/>
</g>
<!-- Node13 -->
<g id="node6" class="node">
<title>Node13</title>
<g id="a_node6"><a xlink:title=" ">
<polygon fill="white" stroke="#bfbfbf" points="244.5,-112.5 244.5,-131.5 285.5,-131.5 285.5,-112.5 244.5,-112.5"/>
<text text-anchor="middle" x="265" y="-119.5" font-family="Helvetica,sans-Serif" font-size="10.00">tuple</text>
</a>
</g>
</g>
<!-- Node1&#45;&gt;Node13 -->
<g id="edge7" class="edge">
<title>Node1&#45;&gt;Node13</title>
<path fill="none" stroke="midnightblue" d="M207.93,-168.32C218.17,-160.18 233.72,-147.84 246,-138.09"/>
<polygon fill="midnightblue" stroke="midnightblue" points="248.22,-140.79 253.88,-131.83 243.87,-135.31 248.22,-140.79"/>
</g>
<!-- Node3 -->
<g id="node3" class="node">
<title>Node3</title>
<g id="a_node3"><a xlink:href="numeric_8h.html" target="_top" xlink:title=" ">
<polygon fill="white" stroke="red" points="0,-56.5 0,-75.5 116,-75.5 116,-56.5 0,-56.5"/>
<text text-anchor="middle" x="58" y="-63.5" font-family="Helvetica,sans-Serif" font-size="10.00">./iterators/numeric.h</text>
</a>
</g>
</g>
<!-- Node2&#45;&gt;Node3 -->
<g id="edge2" class="edge">
<title>Node2&#45;&gt;Node3</title>
<path fill="none" stroke="midnightblue" d="M110.04,-112.32C100.87,-104.34 87.06,-92.31 75.97,-82.65"/>
<polygon fill="midnightblue" stroke="midnightblue" points="77.98,-79.76 68.14,-75.83 73.38,-85.04 77.98,-79.76"/>
</g>
<!-- Node2&#45;&gt;Node6 -->
<g id="edge3" class="edge">
<title>Node2&#45;&gt;Node6</title>
<path fill="none" stroke="midnightblue" d="M126.77,-112.08C132.56,-104.46 141.06,-93.26 148.14,-83.94"/>
<polygon fill="midnightblue" stroke="midnightblue" points="151.1,-85.83 154.36,-75.75 145.52,-81.6 151.1,-85.83"/>
</g>
<!-- Node6&#45;&gt;Node7 -->
<g id="edge4" class="edge">
<title>Node6&#45;&gt;Node7</title>
<path fill="none" stroke="midnightblue" d="M165.46,-56.08C169.15,-48.69 174.52,-37.95 179.09,-28.81"/>
<polygon fill="midnightblue" stroke="midnightblue" points="182.28,-30.26 183.62,-19.75 176.02,-27.13 182.28,-30.26"/>
</g>
</g>
</svg>
